<svg width="401" height="108" viewBox="0 0 401 108" fill="none" xmlns="http://www.w3.org/2000/svg">
<path d="M0.567871 0.5H266.232V107.498H0.567871V0.5Z" stroke="white"/>
<path d="M245.636 15.203L220.285 52.231L247.859 92.6845H222.396L207.244 71.0273L191.969 92.7357H166.671C167.359 91.3102 194.362 52.229 194.362 52.229L182.852 36.2161L134.028 36.2713C131.752 36.4513 128.958 35.7601 127.817 38.3287C127.418 39.1794 127.247 40.433 127.705 41.292C128.099 42.2593 129.016 43.1693 130.038 43.4536L131.576 43.5702H151.119C160.174 43.7972 168.553 49.4334 172.479 57.5809C175.958 64.4196 175.445 73.7615 171.569 80.2607C166.674 88.5167 157.953 93.1344 148.499 92.795H94.1452C94.1452 92.795 85.8258 62.7652 85.7686 62.7141L77.392 92.795L57.5691 92.799L49.5934 62.5995L40.8732 92.7357H18.9419C18.9419 92.7357 39.1083 20.1562 40.4192 15.3666H58.9414L67.6575 47.7278L76.5453 15.3666L94.7199 15.3625L110.273 71.7185H146.507C149.008 71.5978 152.487 72.2809 153.514 69.2092C153.912 67.8349 153.573 66.4136 152.603 65.4463C151.689 64.6466 150.55 64.4237 149.356 64.4237L129.87 64.4196C120.639 64.1354 111.469 58.0963 108.05 49.2125C104.346 40.3206 106.512 29.6658 113.291 22.7821C118.077 17.9843 123.772 15.5916 130.443 15.3094L194.364 15.2542L207.244 33.8234L220.569 15.1969L245.636 15.203Z" fill="white"/>
<path d="M270.86 107.998C271.387 103.139 271.747 98.2553 272.479 93.4269C273.745 85.0748 278.688 78.868 284.742 73.3975C289.159 69.4055 293.697 65.5444 297.988 61.4216C300.916 58.6076 301.532 54.4949 299.934 51.5623C298.695 49.2882 296.664 48.2963 294.225 48.8199C291.83 49.3332 290.56 50.8813 290.439 53.2822C290.343 55.225 290.419 57.178 290.419 59.309C283.909 59.309 277.52 59.309 271.134 59.309C268.976 47.1797 278.171 34.3571 290.588 32.0667C295.014 31.2507 299.366 31.4634 303.667 32.6618C316.859 36.3388 323.16 48.5397 319.181 62.5934C317.614 68.1273 314.565 72.5058 309.82 75.9027C304.928 79.4059 300.333 83.3222 295.632 87.0913C294.578 87.9522 294.458 88.2385 294.02 89.302C302.804 89.302 310.665 89.302 319.363 89.302C319.363 95.6703 319.363 101.834 319.363 108C303.196 107.998 287.028 107.998 270.86 107.998Z" fill="white"/>
<path d="M270.792 107.998C271.319 103.139 271.679 98.2553 272.412 93.4269C273.677 85.0748 278.62 78.868 284.674 73.3975C289.091 69.4055 293.629 65.5444 297.92 61.4216C300.848 58.6076 301.464 54.4949 299.867 51.5623C298.627 49.2882 296.597 48.2963 294.157 48.8199C291.762 49.3332 290.492 50.8813 290.371 53.2822C290.275 55.225 290.351 57.178 290.351 59.309C283.841 59.309 277.453 59.309 271.066 59.309C268.908 47.1797 278.103 34.3571 290.521 32.0667C294.946 31.2507 299.298 31.4634 303.599 32.6618C316.792 36.3388 323.092 48.5397 319.113 62.5934C317.546 68.1273 314.497 72.5058 309.752 75.9027C304.861 79.4059 300.265 83.3222 295.564 87.0913C294.511 87.9522 294.39 88.2385 293.952 89.302C302.736 89.302 310.597 89.302 319.295 89.302C319.295 95.6703 319.295 101.834 319.295 108C303.128 107.998 286.96 107.998 270.792 107.998Z" fill="white"/>
<path d="M358.374 62.7441V31.5785H371.875V62.7441H400.349V76.834H371.875V108H358.374V76.834H329.899V62.7441H358.374Z" fill="white"/>
</svg>
