<svg width="637" height="133" viewBox="0 0 637 133" fill="none" xmlns="http://www.w3.org/2000/svg">
<path d="M299.951 99.8184H301.849C303.62 99.8184 306.653 100.183 307.901 100.916C309.15 101.642 309.973 102.457 310.37 103.359C310.768 104.262 310.97 106.252 310.97 109.325V121.389C310.97 125.029 307.123 126.884 305.269 127.286C303.409 127.688 301.601 127.89 299.837 127.89C294.758 127.89 290.375 126.569 286.678 123.924C282.986 121.278 280.311 117.143 278.65 111.502C276.993 105.87 276.168 99.3207 276.168 91.8411C276.168 85.6709 276.926 79.6533 278.441 73.7909C279.957 67.9259 282.538 63.3573 286.181 60.0773C289.825 56.8018 294.391 55.1624 299.876 55.1624C305.617 55.1624 308.972 56.6153 313.198 61.0065C317.518 65.4936 321.662 70.5924 324.082 78.0785H327.614V50.5924H325.605C324.88 52.7939 324.088 54.2879 323.223 55.0783C322.355 55.8706 321.415 56.2644 320.407 56.2644C319.757 56.2644 317.651 55.5491 314.098 54.1184C310.543 52.6857 307.971 51.8158 306.384 51.5093C303.46 50.8996 301.189 50.5918 297.548 50.5918C285.784 50.5918 276.015 54.6348 268.255 62.7209C260.495 70.8135 256.615 80.7189 256.615 92.4436C256.615 98.9973 257.876 104.918 260.403 110.207C262.389 114.307 265.142 117.993 268.659 121.273C272.178 124.549 276.243 127.195 280.84 129.209C285.442 131.218 291.228 132.224 298.193 132.224C303.644 132.224 308.9 131.661 313.973 130.535C319.047 129.406 323.924 127.734 328.626 125.52V109.309C328.626 106.467 328.786 104.68 329.111 103.953C329.687 102.569 330.506 101.582 331.57 100.985C332.632 100.387 335.531 99.9976 338.234 99.8026V97.1486H299.936V99.8026L299.951 99.8184Z" fill="white"/>
<path d="M387.985 120.816C383.62 124.16 377.812 125.829 370.568 125.829H366.437C364.225 125.829 362.626 125.527 361.633 124.919C360.644 124.31 359.964 123.532 359.604 122.581C359.242 121.631 359.059 119.029 359.059 114.775V93.0015C362.78 93.0015 367.139 93.4854 369.095 94.4589C371.047 95.4273 372.764 97.3223 374.238 100.139C375.718 102.956 376.685 106.066 377.145 110.482H380.286V70.4101H377.145C376.532 76.4309 375.114 80.472 372.888 83.5565C370.665 86.6415 367.078 88.1838 362.135 88.1838H359.059V61.3042C359.032 56.6325 363.197 57.1738 363.197 57.1738H368.063C373.949 57.1738 377.956 57.5175 380.095 58.2034C383.761 59.3433 386.597 61.1327 388.605 63.5643C390.612 66.0006 392.166 70.011 393.275 75.6021H395.907V52.7134H330.437V55.8487H332.502C335.016 55.8487 337.001 56.3805 338.447 57.4424C339.477 58.1649 340.184 59.1946 340.564 60.5236C340.755 61.3185 340.851 63.4672 340.851 66.9637V115.389C340.851 119.265 340.642 121.659 340.221 122.575C339.687 123.865 338.924 124.778 337.934 125.31C336.56 126.11 334.75 126.507 332.502 126.507H330.437V130.15H397.016L401.017 105.526H397.362C395.456 112.38 392.318 117.479 387.953 120.818" fill="white"/>
<path fill-rule="evenodd" clip-rule="evenodd" d="M411.304 62.414C418.94 54.6742 428.343 51.0372 439.501 51.4978H439.514C451.565 51.0348 461.353 54.6605 468.884 62.3814C476.411 70.1023 480.179 79.7599 480.179 91.3542C480.179 101.266 477.368 109.985 471.754 117.503C464.313 127.49 453.801 132.482 440.231 132.482C426.615 132.482 416.09 127.715 408.656 118.195C402.776 110.669 399.84 101.742 399.84 91.4129C399.84 79.8186 403.655 70.1479 411.304 62.414ZM449.667 125.244C452.94 122.792 455.489 118.866 457.31 113.474L457.298 113.482C459.122 108.089 460.033 101.053 460.033 92.38C460.033 82.0507 459.102 74.3305 457.243 69.2043C455.381 64.0821 453.011 60.4636 450.129 58.3534C447.246 56.2425 443.927 55.1854 440.171 55.1854C433.252 55.1854 427.99 58.8307 424.384 66.1212C421.445 72.1075 419.977 80.7022 419.977 91.9118C419.977 105.234 422.249 115.075 426.785 121.445C429.954 125.896 434.376 128.123 440.068 128.123C443.902 128.123 447.102 127.165 449.667 125.244Z" fill="white"/>
<path fill-rule="evenodd" clip-rule="evenodd" d="M223.812 117.053C216.373 127.037 205.863 132.03 192.296 132.032C178.683 132.031 168.16 127.264 160.728 117.745C154.848 110.219 151.911 101.292 151.911 90.9627C151.911 79.3684 155.726 69.6977 163.375 61.9638C171.011 54.224 180.414 50.5878 191.572 51.0476C203.623 50.5846 213.411 54.2103 220.943 61.9312C228.469 69.6521 232.237 79.3097 232.237 90.904C232.237 100.816 229.426 109.528 223.812 117.053ZM192.296 132.032C192.294 132.032 192.291 132.032 192.289 132.032H192.302C192.3 132.032 192.298 132.032 192.296 132.032ZM192.113 54.7776C185.194 54.7776 179.933 58.4229 176.326 65.7134L176.314 65.7199C173.375 71.7062 171.907 80.3009 171.907 91.5105C171.907 104.833 174.179 114.674 178.715 121.044C181.884 125.495 186.307 127.722 191.998 127.722C195.832 127.722 199.032 126.763 201.597 124.843C204.871 122.385 207.419 118.46 209.24 113.066C211.065 107.673 211.975 100.637 211.975 91.9644C211.975 81.6416 211.044 73.9214 209.185 68.7952C207.323 63.6736 204.953 60.0551 202.071 57.9442C199.188 55.8327 195.869 54.7776 192.113 54.7776Z" fill="white"/>
<path d="M152.968 104.905H149.313C147.406 111.758 144.268 116.858 139.903 120.197C135.538 123.539 129.73 125.209 122.492 125.209H118.361C116.149 125.209 114.552 124.906 113.557 124.299C112.567 123.69 111.889 122.911 111.527 121.961C111.166 121.01 110.983 118.409 110.983 114.155V92.3812C114.703 92.3812 119.062 92.8651 121.019 93.8393C122.973 94.8071 124.689 96.7021 126.163 99.5191C127.641 102.336 128.61 105.446 129.071 109.861H132.211V69.7899H129.071C128.455 75.8081 127.037 79.8518 124.812 82.9362C122.591 86.0213 119.003 87.5629 114.059 87.5629H110.981V60.6833C110.955 56.011 115.123 56.5529 115.123 56.5529H119.985C125.872 56.5529 129.884 56.8959 132.023 57.5819C135.692 58.7211 138.528 60.5105 140.533 62.9428C142.539 65.3784 144.095 69.3914 145.204 74.9806H147.836V52.0723H82.3646V55.2278H84.4279C86.9437 55.2278 88.9267 55.7604 90.3757 56.8215C91.4047 57.5434 92.1096 58.5724 92.4892 59.902C92.6817 60.6976 92.7783 62.845 92.7783 66.3415V114.767C92.7783 118.641 92.5693 121.037 92.1484 121.946C91.6158 123.237 90.85 124.152 89.8634 124.682C88.4888 125.482 86.6786 125.879 84.4275 125.879H82.3643V129.522H148.944L152.946 104.899L152.968 104.905Z" fill="white"/>
<path d="M27.3077 125.837H25.5405C23.0051 125.837 20.7534 125.059 18.7847 123.503C16.8193 121.946 15.8353 118.947 15.8353 114.504V67.7352L66.497 130.891L69.7816 130.895V66.4806C69.7816 62.8184 70.0858 61.7555 70.69 60.2485C71.2944 58.7415 72.1396 57.6538 73.2189 56.986C74.2987 56.3189 76.4181 55.7757 79.569 55.3551V52.0776H54.437V55.3551C58.5805 55.2795 61.5384 56.3469 63.2926 58.5602C64.5772 60.2002 65.2189 61.8259 65.2189 66.4832V100.216L25.7798 52.0783H1.78248V54.6789C4.06353 54.7545 4.14439 55.5194 5.35926 56.1637L11.7877 62.6332L11.7787 114.501C11.7787 118.602 10.9688 121.505 9.3509 123.213C7.73173 124.923 4.86118 125.795 0.743164 125.834V128.969H27.2967V125.834L27.3077 125.837Z" fill="white"/>
<path d="M253.857 91.5362C253.857 96.6833 249.684 100.853 244.54 100.853C239.392 100.853 235.223 96.6804 235.223 91.5362C235.223 86.389 239.395 82.2192 244.54 82.2192C249.687 82.2192 253.857 86.392 253.857 91.5362Z" fill="white"/>
<path fill-rule="evenodd" clip-rule="evenodd" d="M474.987 124.975V130.353H475.908V124.975H478.147V124.033H473.012V124.975H474.987ZM478.674 124.033V130.353H479.727V124.975L481.439 130.353H482.36L483.94 124.975V130.353H484.862V124.033H483.414L481.834 129.143L480.254 124.033H478.674Z" fill="white"/>
<path d="M1.62583 7.33447C1.62583 11.3877 4.32799 14.6689 7.67353 14.6689H24.4655C24.8516 14.6689 25.2376 15.055 25.2376 15.5696C25.2376 16.0843 24.9159 16.4704 24.4655 16.4704H1.56152V22.9685H27.1677C30.5132 22.9685 33.2154 19.623 33.2154 15.5697C33.2154 11.5165 30.5132 8.17095 27.1677 8.17095H10.44C10.054 8.17095 9.66797 7.78491 9.66797 7.27024C9.66797 6.75553 9.98966 6.36952 10.44 6.36952H33.1511V0H7.67461C4.32907 0 1.62692 3.28123 1.62692 7.33447H1.62583Z" fill="#0097E0"/>
<path d="M35.0176 0V22.8401H43.0599V8.49266L58.3724 22.8401H66.7364V0H58.6941V14.2831L43.3816 0H35.0176Z" fill="#0097E0"/>
<path d="M76.6446 10.0368V0H68.4736V22.8401H76.6446V12.739L89.641 22.8401H100.128L85.3303 11.4522L100.128 0H89.641L76.6446 10.0368Z" fill="#0097E0"/>
<path fill-rule="evenodd" clip-rule="evenodd" d="M102.506 0C103.149 0 103.728 0.257353 104.179 0.707695H104.179C104.63 1.15806 104.822 1.67277 104.887 2.38047C104.887 3.02371 104.63 3.60279 104.179 4.05324C103.729 4.50358 103.15 4.76093 102.506 4.76093C101.863 4.76093 101.284 4.5036 100.834 4.05324C100.383 3.60287 100.126 3.02385 100.126 2.38047C100.126 1.73708 100.383 1.15806 100.834 0.707695C101.285 0.257348 101.863 0 102.506 0ZM102.506 4.37504C103.085 4.37504 103.536 4.18202 103.922 3.79599C104.308 3.40996 104.501 2.89528 104.501 2.38057C104.501 1.86587 104.308 1.35119 103.922 0.965156C103.536 0.579124 103.085 0.386111 102.506 0.386111C101.991 0.386111 101.477 0.579126 101.091 0.965156C100.705 1.35119 100.512 1.80153 100.512 2.38057C100.512 2.89528 100.705 3.40996 101.091 3.79599C101.477 4.18202 101.927 4.37504 102.506 4.37504Z" fill="#0096DF"/>
<path fill-rule="evenodd" clip-rule="evenodd" d="M103.601 1.93035V1.99469L103.601 1.99468C103.601 2.25204 103.472 2.44505 103.279 2.50939C103.297 2.54477 103.319 2.58014 103.343 2.61685C103.404 2.71368 103.472 2.81981 103.472 2.95976L103.536 3.5388H103.15L103.086 2.95976C103.086 2.83109 102.957 2.70241 102.764 2.70241H101.928V3.60312H101.542V1.22266H102.893C103.279 1.22266 103.601 1.54432 103.601 1.93035ZM102.893 1.60866H101.928V1.60868V2.38072H102.893C103.086 2.38072 103.215 2.25203 103.215 2.05903V1.93035C103.215 1.73733 103.086 1.60866 102.893 1.60866Z" fill="#0096DF"/>
<path fill-rule="evenodd" clip-rule="evenodd" d="M631.784 71.4045C628.26 65.2325 623.034 59.6296 616.241 56.5933C610.782 54.1611 603.588 53.0081 594.852 53.0081L563.34 53H555.66L555.299 55.6243C555.093 57.1063 554.705 57.5899 554.591 57.7047C554.337 57.958 554.146 58.015 553.911 58.0198C553.739 58.0003 552.678 57.8309 548.959 56.3848C543.161 54.1375 537.555 53 532.289 53C525.128 53 518.276 54.7889 511.918 58.3203C505.535 61.8663 500.396 66.9171 496.648 73.331C492.9 79.7367 491 86.6211 491 93.7865C491 100.594 492.719 107.099 496.108 113.12C499.53 119.207 504.462 123.941 510.764 127.188C516.964 130.382 524.121 132 532.029 132C538.089 132 543.499 130.99 548.11 128.994C552.703 127.005 557.156 123.784 561.34 119.42L562.185 118.538V103.105L556.831 109.318C553.049 113.705 549.465 116.807 546.171 118.538C542.978 120.217 539.399 121.067 535.532 121.067C530.903 121.067 527.134 119.961 524.341 117.778C521.495 115.56 519.351 112.153 517.967 107.657C516.487 102.851 515.738 97.414 515.738 91.5017C515.738 85.5927 516.749 80.1739 518.744 75.3902C520.208 71.8588 522.463 69.0838 525.632 66.9008C528.776 64.7382 532.131 63.6846 535.888 63.6846C540.414 63.6846 544.358 65.1111 547.947 68.0489C551.515 70.968 554.005 75.3063 555.35 80.9393L555.907 83.2738H563.338V60.8176H565.892C567.627 60.8176 568.539 61.1392 568.998 61.4096C569.766 61.8623 569.966 62.2043 570.013 62.3109C570.069 62.4958 570.351 65.2707 570.351 69.5366V115.465C570.351 119.29 570.173 120.522 570.103 120.857C569.886 121.298 569.521 121.697 568.988 122.014C568.651 122.215 567.802 122.551 565.892 122.551H560.534V130.436H594.85C599.588 130.436 603.016 130.214 605.331 129.763C610.304 128.824 614.617 127.463 618.132 125.715C621.721 123.932 624.957 121.515 627.682 118.58C630.445 115.613 632.714 111.835 634.427 107.349C636.135 102.89 637 97.2625 637 92.0049C637.002 84.4015 635.248 77.4706 631.784 71.4045ZM625.453 116.512C627.962 113.819 630.004 110.405 631.584 106.269C633.166 102.133 633.955 96.9132 633.955 92.0057C633.955 84.9022 632.35 78.5389 629.139 72.9108C625.925 67.2819 621.213 62.1448 614.995 59.3658C609.914 57.1014 603.2 55.9679 594.853 55.9679H563.581V57.7788H565.894C567.848 57.7788 569.399 58.1159 570.546 58.7909C571.695 59.4659 572.457 60.2525 572.834 61.1531C573.21 62.0544 573.398 65.9384 573.398 69.5366V115.465C573.398 119.097 573.243 121.28 572.935 122.005C572.421 123.112 571.624 123.985 570.546 124.627C569.466 125.268 567.916 125.589 565.894 125.589H563.581V127.396H594.853C599.352 127.396 602.647 127.191 604.747 126.781C609.482 125.888 613.493 124.627 616.774 122.996C620.038 121.379 622.979 119.182 625.453 116.512ZM602.513 61.3811C600.045 60.3168 595.951 59.8022 590.228 59.8356V115.958C590.228 118.843 590.365 120.613 590.641 121.265C590.912 121.917 591.376 122.417 592.027 122.757C592.952 123.272 594.288 123.527 596.036 123.527C601.757 123.527 606.124 121.574 609.143 117.659C613.254 112.37 615.31 103.465 615.31 92.338C615.31 83.3772 613.903 76.2183 611.096 70.8638C608.867 66.6753 606.007 62.8907 602.513 61.3811ZM560.295 80.2374H558.316C556.805 73.9148 553.993 69.0684 549.879 65.7023C545.763 62.3337 541.099 60.6482 535.889 60.6482C531.534 60.6482 527.538 61.8989 523.904 64.4011C520.269 66.9049 517.612 70.179 515.931 74.225C513.771 79.4036 512.691 85.1604 512.691 91.5034C512.691 97.7438 513.48 103.426 515.057 108.551C516.634 113.677 519.103 117.55 522.464 120.174C525.825 122.798 530.182 124.107 535.532 124.107C539.918 124.107 543.937 123.149 547.591 121.229C551.243 119.307 555.091 115.999 559.14 111.301V117.321C555.222 121.406 551.142 124.368 546.898 126.209C542.657 128.043 537.699 128.964 532.029 128.964C524.573 128.964 517.95 127.47 512.161 124.49C506.371 121.506 501.905 117.221 498.763 111.632C495.616 106.045 494.048 100.098 494.048 93.7881C494.048 87.1374 495.789 80.8286 499.277 74.8626C502.765 68.8974 507.47 64.27 513.398 60.9764C519.326 57.6868 525.62 56.0396 532.289 56.0396C537.2 56.0396 542.389 57.0997 547.853 59.2168C551.016 60.4455 553.024 61.0611 553.884 61.0611C554.982 61.0611 555.937 60.6604 556.742 59.8576C557.551 59.0539 558.074 57.7829 558.317 56.0396H560.295L560.295 80.2374ZM596.036 120.491C600.802 120.491 604.298 118.959 606.736 115.796C610.404 111.081 612.261 102.725 612.26 92.3396C612.26 83.9203 610.962 77.1693 608.406 72.2895C606.491 68.6946 604.168 65.41 601.3 64.169C600.123 63.661 597.794 63.0788 593.273 62.9184V115.958C593.273 118.719 593.409 119.751 593.465 120.079L593.51 120.104C593.673 120.195 594.336 120.491 596.036 120.491Z" fill="white"/>
</svg>
