<svg width="637" height="133" viewBox="0 0 637 133" fill="none" xmlns="http://www.w3.org/2000/svg">
<path d="M299.208 99.8184H301.106C302.877 99.8184 305.91 100.183 307.158 100.916C308.407 101.642 309.23 102.457 309.627 103.359C310.025 104.262 310.227 106.252 310.227 109.325V121.389C310.227 125.029 306.38 126.884 304.525 127.286C302.666 127.688 300.858 127.89 299.094 127.89C294.015 127.89 289.632 126.569 285.935 123.924C282.242 121.278 279.567 117.143 277.907 111.502C276.25 105.87 275.425 99.3207 275.425 91.8411C275.425 85.6709 276.182 79.6533 277.698 73.7909C279.214 67.9259 281.795 63.3573 285.438 60.0773C289.082 56.8018 293.648 55.1624 299.132 55.1624C304.874 55.1624 308.229 56.6153 312.455 61.0065C316.774 65.4936 320.919 70.5924 323.338 78.0785H326.871V50.5924H324.862C324.137 52.7939 323.345 54.2879 322.48 55.0783C321.612 55.8706 320.672 56.2644 319.664 56.2644C319.014 56.2644 316.907 55.5491 313.355 54.1184C309.8 52.6857 307.228 51.8158 305.64 51.5093C302.717 50.8996 300.446 50.5918 296.804 50.5918C285.041 50.5918 275.272 54.6348 267.512 62.7209C259.752 70.8135 255.872 80.7189 255.872 92.4436C255.872 98.9973 257.133 104.918 259.66 110.207C261.646 114.307 264.399 117.993 267.916 121.273C271.435 124.549 275.5 127.195 280.097 129.209C284.699 131.218 290.485 132.224 297.449 132.224C302.901 132.224 308.157 131.661 313.23 130.535C318.304 129.406 323.181 127.734 327.883 125.52V109.309C327.883 106.467 328.042 104.68 328.368 103.953C328.944 102.569 329.762 101.582 330.827 100.985C331.889 100.387 334.787 99.9976 337.491 99.8026V97.1486H299.193V99.8026L299.208 99.8184Z" fill="white"/>
<path d="M387.242 120.816C382.877 124.16 377.069 125.829 369.824 125.829H365.694C363.481 125.829 361.883 125.527 360.89 124.919C359.901 124.31 359.221 123.532 358.861 122.581C358.499 121.631 358.316 119.029 358.316 114.775V93.0015C362.037 93.0015 366.396 93.4854 368.352 94.4589C370.304 95.4273 372.021 97.3223 373.494 100.139C374.975 102.956 375.942 106.066 376.402 110.482H379.543V70.4101H376.402C375.789 76.4309 374.371 80.472 372.144 83.5565C369.922 86.6415 366.335 88.1838 361.391 88.1838H358.315V61.3042C358.289 56.6325 362.454 57.1738 362.454 57.1738H367.32C373.205 57.1738 377.213 57.5175 379.352 58.2034C383.018 59.3433 385.854 61.1327 387.861 63.5643C389.869 66.0006 391.423 70.011 392.532 75.6021H395.164V52.7134H329.693V55.8487H331.759C334.273 55.8487 336.258 56.3805 337.704 57.4424C338.734 58.1649 339.441 59.1946 339.82 60.5236C340.011 61.3185 340.108 63.4672 340.108 66.9637V115.389C340.108 119.265 339.899 121.659 339.478 122.575C338.944 123.865 338.181 124.778 337.191 125.31C335.817 126.11 334.006 126.507 331.759 126.507H329.693V130.15H396.273L400.274 105.526H396.619C394.712 112.38 391.575 117.479 387.209 120.818" fill="white"/>
<path fill-rule="evenodd" clip-rule="evenodd" d="M410.561 62.414C418.197 54.6742 427.6 51.0372 438.757 51.4978H438.771C450.821 51.0348 460.609 54.6605 468.141 62.3814C475.668 70.1023 479.436 79.7599 479.436 91.3542C479.436 101.266 476.625 109.985 471.01 117.503C463.57 127.49 453.058 132.482 439.488 132.482C425.872 132.482 415.347 127.715 407.913 118.195C402.033 110.669 399.097 101.742 399.097 91.4129C399.097 79.8186 402.911 70.1479 410.561 62.414ZM448.924 125.244C452.197 122.792 454.746 118.866 456.566 113.474L456.555 113.482C458.379 108.089 459.29 101.053 459.29 92.38C459.29 82.0507 458.359 74.3305 456.5 69.2043C454.638 64.0821 452.268 60.4636 449.385 58.3534C446.503 56.2425 443.184 55.1854 439.428 55.1854C432.509 55.1854 427.247 58.8307 423.64 66.1212C420.701 72.1075 419.234 80.7022 419.234 91.9118C419.234 105.234 421.505 115.075 426.041 121.445C429.211 125.896 433.633 128.123 439.325 128.123C443.159 128.123 446.358 127.165 448.924 125.244Z" fill="white"/>
<path fill-rule="evenodd" clip-rule="evenodd" d="M223.069 117.053C215.629 127.037 205.12 132.03 191.553 132.032C177.94 132.031 167.417 127.264 159.984 117.745C154.104 110.219 151.168 101.292 151.168 90.9627C151.168 79.3684 154.983 69.6977 162.632 61.9638C170.268 54.224 179.671 50.5878 190.829 51.0476C202.88 50.5846 212.668 54.2103 220.199 61.9312C227.726 69.6521 231.494 79.3097 231.494 90.904C231.494 100.816 228.683 109.528 223.069 117.053ZM191.553 132.032C191.55 132.032 191.548 132.032 191.546 132.032H191.559C191.557 132.032 191.555 132.032 191.553 132.032ZM191.37 54.7776C184.451 54.7776 179.189 58.4229 175.583 65.7134L175.571 65.7199C172.632 71.7062 171.164 80.3009 171.164 91.5105C171.164 104.833 173.436 114.674 177.972 121.044C181.141 125.495 185.564 127.722 191.255 127.722C195.089 127.722 198.289 126.763 200.854 124.843C204.128 122.385 206.676 118.46 208.497 113.066C210.321 107.673 211.232 100.637 211.232 91.9644C211.232 81.6416 210.301 73.9214 208.442 68.7952C206.58 63.6736 204.21 60.0551 201.328 57.9442C198.445 55.8327 195.126 54.7776 191.37 54.7776Z" fill="white"/>
<path d="M152.224 104.905H148.569C146.663 111.758 143.525 116.858 139.16 120.197C134.794 123.539 128.987 125.209 121.748 125.209H117.618C115.406 125.209 113.808 124.906 112.814 124.299C111.824 123.69 111.146 122.911 110.783 121.961C110.422 121.01 110.24 118.409 110.24 114.155V92.3812C113.96 92.3812 118.319 92.8651 120.275 93.8393C122.23 94.8071 123.946 96.7021 125.42 99.5191C126.898 102.336 127.867 105.446 128.328 109.861H131.468V69.7899H128.328C127.712 75.8081 126.294 79.8518 124.069 82.9362C121.848 86.0213 118.26 87.5629 113.316 87.5629H110.238V60.6833C110.212 56.011 114.38 56.5529 114.38 56.5529H119.242C125.128 56.5529 129.141 56.8959 131.28 57.5819C134.948 58.7211 137.784 60.5105 139.79 62.9428C141.796 65.3784 143.352 69.3914 144.461 74.9806H147.092V52.0723H81.6215V55.2278H83.6847C86.2005 55.2278 88.1836 55.7604 89.6325 56.8215C90.6616 57.5434 91.3665 58.5724 91.746 59.902C91.9385 60.6976 92.0351 62.845 92.0351 66.3415V114.767C92.0351 118.641 91.8262 121.037 91.4052 121.946C90.8726 123.237 90.1069 124.152 89.1203 124.682C87.7456 125.482 85.9354 125.879 83.6843 125.879H81.6211V129.522H148.201L152.203 104.899L152.224 104.905Z" fill="white"/>
<path d="M26.5645 125.837H24.7973C22.262 125.837 20.0102 125.059 18.0416 123.503C16.0761 121.946 15.0921 118.947 15.0921 114.504V67.7352L65.7538 130.891L69.0385 130.895V66.4806C69.0385 62.8184 69.3426 61.7555 69.9468 60.2485C70.5513 58.7415 71.3965 57.6538 72.4757 56.986C73.5556 56.3189 75.6749 55.7757 78.8259 55.3551V52.0776H53.6939V55.3551C57.8373 55.2795 60.7953 56.3469 62.5494 58.5602C63.8341 60.2002 64.4757 61.8259 64.4757 66.4832V100.216L25.0366 52.0783H1.03932V54.6789C3.32037 54.7545 3.40123 55.5194 4.61609 56.1637L11.0445 62.6332L11.0355 114.501C11.0355 118.602 10.2256 121.505 8.60773 123.213C6.98857 124.923 4.11802 125.795 0 125.834V128.969H26.5536V125.834L26.5645 125.837Z" fill="white"/>
<path d="M253.113 91.5362C253.113 96.6833 248.941 100.853 243.796 100.853C238.649 100.853 234.479 96.6804 234.479 91.5362C234.479 86.389 238.652 82.2192 243.796 82.2192C248.944 82.2192 253.113 86.392 253.113 91.5362Z" fill="white"/>
<path fill-rule="evenodd" clip-rule="evenodd" d="M474.244 124.975V130.353H475.165V124.975H477.404V124.033H472.269V124.975H474.244ZM477.93 124.033V130.353H478.984V124.975L480.695 130.353H481.617L483.197 124.975V130.353H484.119V124.033H482.67L481.09 129.143L479.51 124.033H477.93Z" fill="white"/>
<path d="M0.882671 7.33447C0.882671 11.3877 3.58483 14.6689 6.93037 14.6689H23.7224C24.1084 14.6689 24.4944 15.055 24.4944 15.5696C24.4944 16.0843 24.1727 16.4704 23.7224 16.4704H0.818359V22.9685H26.4245C29.7701 22.9685 32.4722 19.623 32.4722 15.5697C32.4722 11.5165 29.7701 8.17095 26.4245 8.17095H9.69684C9.31081 8.17095 8.9248 7.78491 8.9248 7.27024C8.9248 6.75553 9.2465 6.36952 9.69684 6.36952H32.4079V0H6.93145C3.58591 0 0.883752 3.28123 0.883752 7.33447H0.882671Z" fill="white"/>
<path d="M34.2744 0V22.8401H42.3167V8.49266L57.6292 22.8401H65.9932V0H57.9509V14.2831L42.6384 0H34.2744Z" fill="white"/>
<path d="M75.9014 10.0368V0H67.7305V22.8401H75.9014V12.739L88.8978 22.8401H99.3849L84.5871 11.4522L99.3849 0H88.8978L75.9014 10.0368Z" fill="white"/>
<path fill-rule="evenodd" clip-rule="evenodd" d="M101.763 0C102.406 0 102.985 0.257353 103.436 0.707695H103.436C103.887 1.15806 104.079 1.67277 104.144 2.38047C104.144 3.02371 103.887 3.60279 103.436 4.05324C102.986 4.50358 102.407 4.76093 101.763 4.76093C101.12 4.76093 100.541 4.5036 100.091 4.05324C99.6402 3.60287 99.3828 3.02385 99.3828 2.38047C99.3828 1.73708 99.6401 1.15806 100.091 0.707695C100.542 0.257348 101.12 0 101.763 0ZM101.763 4.37504C102.342 4.37504 102.792 4.18202 103.178 3.79599C103.564 3.40996 103.757 2.89528 103.757 2.38057C103.757 1.86587 103.564 1.35119 103.178 0.965156C102.792 0.579124 102.342 0.386111 101.763 0.386111C101.248 0.386111 100.734 0.579126 100.348 0.965156C99.9616 1.35119 99.7686 1.80153 99.7686 2.38057C99.7686 2.89528 99.9616 3.40996 100.348 3.79599C100.734 4.18202 101.184 4.37504 101.763 4.37504Z" fill="white"/>
<path fill-rule="evenodd" clip-rule="evenodd" d="M102.858 1.93035V1.99469L102.858 1.99468C102.858 2.25204 102.729 2.44505 102.536 2.50939C102.554 2.54477 102.576 2.58014 102.6 2.61685C102.661 2.71368 102.729 2.81981 102.729 2.95976L102.793 3.5388H102.407L102.343 2.95976C102.343 2.83109 102.214 2.70241 102.021 2.70241H101.185V3.60312H100.799V1.22266H102.15C102.536 1.22266 102.858 1.54432 102.858 1.93035ZM102.15 1.60866H101.185V1.60868V2.38072H102.15C102.343 2.38072 102.472 2.25203 102.472 2.05903V1.93035C102.472 1.73733 102.343 1.60866 102.15 1.60866Z" fill="white"/>
<path fill-rule="evenodd" clip-rule="evenodd" d="M631.041 71.4045C627.517 65.2325 622.291 59.6296 615.498 56.5933C610.039 54.1611 602.844 53.0081 594.109 53.0081L562.597 53H554.916L554.556 55.6243C554.35 57.1063 553.961 57.5899 553.848 57.7047C553.593 57.958 553.403 58.015 553.168 58.0198C552.996 58.0003 551.935 57.8309 548.216 56.3848C542.418 54.1375 536.812 53 531.546 53C524.385 53 517.533 54.7889 511.175 58.3203C504.792 61.8663 499.653 66.9171 495.905 73.331C492.157 79.7367 490.257 86.6211 490.257 93.7865C490.257 100.594 491.976 107.099 495.364 113.12C498.787 119.207 503.719 123.941 510.02 127.188C516.221 130.382 523.378 132 531.286 132C537.346 132 542.756 130.99 547.367 128.994C551.96 127.005 556.412 123.784 560.597 119.42L561.442 118.538V103.105L556.088 109.318C552.306 113.705 548.722 116.807 545.428 118.538C542.235 120.217 538.656 121.067 534.789 121.067C530.159 121.067 526.391 119.961 523.598 117.778C520.751 115.56 518.608 112.153 517.224 107.657C515.744 102.851 514.995 97.414 514.995 91.5017C514.995 85.5927 516.005 80.1739 518.001 75.3902C519.465 71.8588 521.72 69.0838 524.889 66.9008C528.033 64.7382 531.388 63.6846 535.145 63.6846C539.671 63.6846 543.615 65.1111 547.204 68.0489C550.772 70.968 553.262 75.3063 554.607 80.9393L555.164 83.2738H562.595V60.8176H565.149C566.884 60.8176 567.796 61.1392 568.255 61.4096C569.023 61.8623 569.223 62.2043 569.27 62.3109C569.326 62.4958 569.607 65.2707 569.607 69.5366V115.465C569.607 119.29 569.43 120.522 569.359 120.857C569.143 121.298 568.778 121.697 568.244 122.014C567.908 122.215 567.059 122.551 565.149 122.551H559.791V130.436H594.107C598.845 130.436 602.273 130.214 604.588 129.763C609.561 128.824 613.874 127.463 617.389 125.715C620.978 123.932 624.214 121.515 626.939 118.58C629.701 115.613 631.971 111.835 633.684 107.349C635.392 102.89 636.257 97.2625 636.257 92.0049C636.258 84.4015 634.505 77.4706 631.041 71.4045ZM624.71 116.512C627.219 113.819 629.261 110.405 630.841 106.269C632.423 102.133 633.212 96.9132 633.212 92.0057C633.212 84.9022 631.607 78.5389 628.395 72.9108C625.182 67.2819 620.47 62.1448 614.252 59.3658C609.171 57.1014 602.457 55.9679 594.11 55.9679H562.838V57.7788H565.151C567.105 57.7788 568.656 58.1159 569.803 58.7909C570.952 59.4659 571.714 60.2525 572.091 61.1531C572.467 62.0544 572.655 65.9384 572.655 69.5366V115.465C572.655 119.097 572.5 121.28 572.191 122.005C571.678 123.112 570.881 123.985 569.803 124.627C568.723 125.268 567.173 125.589 565.151 125.589H562.838V127.396H594.11C598.608 127.396 601.903 127.191 604.003 126.781C608.739 125.888 612.75 124.627 616.031 122.996C619.295 121.379 622.236 119.182 624.71 116.512ZM601.77 61.3811C599.302 60.3168 595.208 59.8022 589.485 59.8356V115.958C589.485 118.843 589.622 120.613 589.898 121.265C590.169 121.917 590.633 122.417 591.284 122.757C592.209 123.272 593.545 123.527 595.293 123.527C601.014 123.527 605.381 121.574 608.4 117.659C612.51 112.37 614.567 103.465 614.567 92.338C614.567 83.3772 613.16 76.2183 610.352 70.8638C608.123 66.6753 605.264 62.8907 601.77 61.3811ZM559.551 80.2374H557.573C556.062 73.9148 553.25 69.0684 549.136 65.7023C545.02 62.3337 540.356 60.6482 535.145 60.6482C530.79 60.6482 526.794 61.8989 523.161 64.4011C519.526 66.9049 516.869 70.179 515.188 74.225C513.028 79.4036 511.948 85.1604 511.948 91.5034C511.948 97.7438 512.737 103.426 514.314 108.551C515.89 113.677 518.36 117.55 521.721 120.174C525.082 122.798 529.439 124.107 534.789 124.107C539.175 124.107 543.194 123.149 546.848 121.229C550.5 119.307 554.348 115.999 558.397 111.301V117.321C554.479 121.406 550.399 124.368 546.155 126.209C541.914 128.043 536.956 128.964 531.286 128.964C523.83 128.964 517.207 127.47 511.418 124.49C505.628 121.506 501.162 117.221 498.019 111.632C494.873 106.045 493.304 100.098 493.304 93.7881C493.304 87.1374 495.045 80.8286 498.534 74.8626C502.022 68.8974 506.727 64.27 512.655 60.9764C518.583 57.6868 524.876 56.0396 531.546 56.0396C536.457 56.0396 541.645 57.0997 547.11 59.2168C550.272 60.4455 552.281 61.0611 553.14 61.0611C554.239 61.0611 555.194 60.6604 555.999 59.8576C556.807 59.0539 557.331 57.7829 557.574 56.0396H559.552L559.551 80.2374ZM595.293 120.491C600.059 120.491 603.555 118.959 605.992 115.796C609.661 111.081 611.518 102.725 611.517 92.3396C611.517 83.9203 610.218 77.1693 607.663 72.2895C605.748 68.6946 603.425 65.41 600.557 64.169C599.38 63.661 597.05 63.0788 592.53 62.9184V115.958C592.53 118.719 592.666 119.751 592.722 120.079L592.767 120.104C592.93 120.195 593.593 120.491 595.293 120.491Z" fill="white"/>
</svg>
