<?xml version="1.0" encoding="utf-8"?>
<svg version="1.1" viewBox="0 0 3839 566.3" xmlns="http://www.w3.org/2000/svg">
  <rect y="27.8" class="st2" width="144.4" height="528.8" style="fill: rgb(255, 255, 255);"/>
  <path class="st2" d="M 467.9 126.8 L 467.9 335.9 L 331.7 148 C 288.5 88.4 194.2 119 194.2 192.6 L 194.2 556.6 L 265.9 556.6 L 265.9 303.3 L 438.3 541 C 470.1 585 539.5 562.4 539.5 508.2 L 539.5 126.8 L 467.9 126.8 Z" style="fill: rgb(255, 255, 255);"/>
  <path class="st2" d="M 3767.4 126.8 L 3767.4 335.9 L 3631.2 148 C 3588 88.4 3493.7 119 3493.7 192.6 L 3493.7 556.6 L 3565.4 556.6 L 3565.4 303.3 L 3737.8 541 C 3769.6 585 3839 562.4 3839 508.2 L 3839 126.8 L 3767.4 126.8 Z" style="fill: rgb(255, 255, 255);"/>
  <path class="st2" d="M 2333.9 0 L 2259.9 0 L 2144 451.3 L 2053.9 126.8 L 1904.1 126.8 L 2014.2 494.7 C 2043.4 592.2 2182.5 589.5 2207.8 490.9 L 2333.9 0 Z" style="fill: rgb(255, 255, 255);"/>
  <path class="st2" d="M 792.6 484.8 C 781.5 484.8 772.6 475.8 772.6 464.8 L 772.6 218.6 C 772.6 207.5 781.6 198.5 792.7 198.5 L 874.9 198.5 L 874.9 126.8 L 772.5 126.8 L 772.5 27.8 L 516.2 198.5 L 608.1 198.5 C 619.2 198.5 628.2 207.5 628.2 218.6 L 628.2 464.5 C 628.2 515.4 669.5 556.6 720.3 556.6 L 772.5 556.6 L 874.7 556.6 L 874.7 484.9 L 792.6 484.8 L 792.6 484.8 Z" style="fill: rgb(255, 255, 255);"/>
  <path class="st2" d="M 1361.3 464.8 L 1361.3 126.8 L 1217 126.8 L 1217 464.4 C 1217 515.3 1258.3 556.5 1309.1 556.5 L 1361.3 556.5 L 1463.5 556.5 L 1463.5 484.8 L 1381.3 484.8 C 1370.2 484.8 1361.3 475.8 1361.3 464.8 Z" style="fill: rgb(255, 255, 255);"/>
  <path class="st2" d="M 1632.7 484.8 C 1621.6 484.8 1612.7 475.8 1612.7 464.8 L 1612.7 126.8 L 1468.4 126.8 L 1468.4 464.4 C 1468.4 515.3 1509.7 556.5 1560.5 556.5 L 1612.7 556.5 L 1714.9 556.5 L 1714.9 484.8 L 1632.7 484.8 Z" style="fill: rgb(255, 255, 255);"/>
  <path class="st2" d="M 1195 198.5 L 1195 126.8 L 1036.5 126.8 L 984.3 126.8 C 933.4 126.8 892.1 168.1 892.1 219 L 892.1 464.5 C 892.1 515.4 933.4 556.7 984.3 556.7 L 1036.5 556.7 L 1195 556.7 L 1195 485 L 1056.6 485 C 1045.5 485 1036.5 476 1036.5 464.9 L 1036.5 377.6 L 1168 377.6 L 1168 305.9 L 1036.5 305.9 L 1036.5 218.7 C 1036.5 207.6 1045.5 198.6 1056.6 198.6 L 1195 198.5 L 1195 198.5 Z" style="fill: rgb(255, 255, 255);"/>
  <rect x="1728.1" y="234.6" class="st2" width="144.4" height="321.9" style="fill: rgb(255, 255, 255);"/>
  <rect x="1728.1" y="126.8" class="st2" width="144.4" height="71.7" style="fill: rgb(255, 255, 255);"/>
  <rect x="2850.1" y="234.6" class="st2" width="144.4" height="321.9" style="fill: rgb(255, 255, 255);"/>
  <rect x="2850.1" y="126.8" class="st2" width="144.4" height="71.7" style="fill: rgb(255, 255, 255);"/>
  <rect x="2319.6" y="234.6" class="st2" width="144.4" height="321.9" style="fill: rgb(255, 255, 255);"/>
  <rect x="2319.6" y="126.8" class="st2" width="144.4" height="71.7" style="fill: rgb(255, 255, 255);"/>
  <path class="st2" d="M 3244.4 128.4 C 3164.4 128.4 3020.6 146.5 3020.6 347 C 3020.6 547.5 3164.4 565.6 3244.4 565.6 C 3324.4 565.6 3468.2 547.5 3468.2 347 C 3468.2 146.5 3324.4 128.4 3244.4 128.4 Z M 3309.8 425.4 C 3309.8 459.1 3282.9 506.5 3244.4 506.5 C 3205.9 506.5 3179 459.2 3179 425.4 L 3179 268.4 C 3179 234.7 3205.9 187.3 3244.4 187.3 C 3282.9 187.3 3309.8 234.6 3309.8 268.4 L 3309.8 425.4 Z" style="fill: rgb(255, 255, 255);"/>
  <path class="st2" d="M 2822.5 373.1 C 2822.1 370.5 2821.5 368.1 2821 365.6 C 2806.7 299.3 2754.7 286.5 2673.7 265 C 2673.7 265 2673.3 264.9 2672.8 264.7 L 2654.2 259.7 C 2619.1 250.3 2625.9 198.4 2662.3 198.4 L 2678.2 198.4 L 2694.1 198.4 L 2779.3 198.4 L 2778.8 126.7 L 2640.8 126.7 C 2557.2 126.7 2492.4 184.8 2492.4 269.8 C 2492.4 357.4 2589 385.2 2640.1 390.7 C 2672.2 394.1 2703.2 407.5 2703.2 439 C 2703.2 464.3 2681.4 484.9 2657.7 484.9 L 2492.4 484.9 L 2492.4 555.8 C 2492.4 555.8 2678.7 556.7 2681.3 556.6 C 2761.3 552.7 2824.9 487.4 2824.9 408.2 C 2824.9 395 2824.2 383.5 2822.5 373.1 Z" style="fill: rgb(255, 255, 255);"/>
</svg>