<?xml version="1.0" encoding="utf-8"?>
<svg version="1.1" viewBox="0 0 3839 624.6" xmlns="http://www.w3.org/2000/svg">
  <path class="st0" d="M 3769.5 0 L 3664 0 L 3618 52.2 L 3769.6 52.2 L 3769.6 52.2 C 3792.7 52.2 3792.7 86.8 3769.6 86.8 L 3769.6 86.8 L 3633.4 86.8 L 3587.4 139 L 3548.3 183.3 L 3548.3 183.3 L 3493.4 245.5 L 3712.6 245.5 L 3767.5 183.3 L 3619.3 183.3 L 3658.4 139 L 3769.6 139 C 3862.2 139.1 3862.2 0 3769.5 0 Z" style="fill: rgb(255, 255, 255);"/>
  <path class="st0" d="M 1287.2 624.5 L 1217.4 448.1 L 1182.1 448.1 C 1146.4 448.1 1113.9 427.3 1099 394.8 L 961 93.8 L 1149.6 93.8 L 1222 289.5 C 1226.3 301.2 1237.5 309 1250 309 L 1254.7 309 C 1275 309 1289.4 289.2 1283.1 269.8 L 1225.8 93.7 L 1404.3 93.7 L 1474.5 390.8 C 1481.4 420 1459.3 448 1429.3 448 L 1389.1 448 L 1440.9 624.4" style="fill: rgb(255, 255, 255);"/>
  <path class="st0" d="M 3180.2 308.6 C 3174.5 315.9 3165.8 320.2 3156.5 320.2 C 3132 320.2 3117.9 292.4 3132.4 272.6 L 3263.3 93.7 L 3040 93.7 L 2855.6 396 C 2838.7 423.7 2858.6 459.3 2891.1 459.3 L 2940.5 459.3 L 2826.3 624.5 L 3006.8 624.5 L 3143.4 459.3 L 3209.1 459.3 C 3221 459.3 3232.4 454.2 3240.3 445.2 L 3550 93.8 L 3346.1 93.8 L 3180.2 308.6 Z" style="fill: rgb(255, 255, 255);"/>
  <path class="st0" d="M 2327.2 624.6 L 2677.3 624.6 L 2748.2 501.6 L 2613.3 501.6 C 2591.5 501.6 2577.1 479.1 2586.1 459.3 L 2591.2 448.2 L 2779.1 448.2 L 2859.3 309.1 L 2701.2 309.1 C 2679.4 309.1 2665 286.6 2674 266.8 L 2679.1 255.7 L 2893.3 255.7 L 2983.5 93.9 L 2498.9 93.9 L 2327.2 624.6 Z" style="fill: rgb(255, 255, 255);"/>
  <path class="st0" d="M 1991 174.8 L 1976.7 387.5 C 1974.5 420.3 2000.5 448.1 2033.4 448.1 L 2166.4 448.1 L 2161 477.1 C 2158.4 491.3 2146 501.6 2131.6 501.6 L 1969 501.6 L 1960.7 624.6 L 2250 624.6 C 2268.5 624.6 2284.8 612.4 2289.9 594.6 L 2354.3 372.8 C 2363.6 340.9 2339.6 309.1 2306.5 309.1 L 2181.9 309.1 C 2163.5 309.1 2149.5 292.7 2152.4 274.5 L 2155.4 255.7 L 2388.4 255.7 L 2435.4 93.9 L 2077.8 93.9 C 2032 93.8 1994.1 129.2 1991 174.8 Z" style="fill: rgb(255, 255, 255);"/>
  <path class="st0" d="M 1477.4 198.4 L 1518.7 394.5 C 1525.3 425.8 1552.9 448.2 1584.8 448.2 L 1776.5 448.2 L 1777.7 470 C 1778.7 487.2 1765 501.6 1747.9 501.6 L 1541.2 501.6 L 1567.1 624.6 L 1871.2 624.6 C 1893.7 624.6 1912.1 606.7 1912.8 584.2 L 1918.3 388.2 C 1919.5 344.9 1884.7 309.1 1841.4 309.1 L 1686.5 309.1 C 1671.3 309.1 1658.6 297.8 1656.8 282.7 L 1653.6 255.6 L 1922 255.6 L 1926.6 93.8 L 1562.2 93.8 C 1507.2 93.8 1466 144.5 1477.4 198.4 Z" style="fill: rgb(255, 255, 255);"/>
  <path class="st0" d="M 935.3 152.5 C 917.9 116.6 881.6 93.8 841.7 93.8 L 485.4 93.8 L 597.2 255.6 L 826.7 255.6 C 837.5 255.6 847.5 261.5 852.8 270.9 L 956.9 457.1 C 968 477 953.6 501.6 930.8 501.6 L 904.2 501.6 L 786.9 309.1 L 634.1 309.1 L 852 624.6 L 1097.4 624.6 C 1128.1 624.6 1148.2 592.5 1134.8 564.9 L 935.3 152.5 Z" style="fill: rgb(255, 255, 255);"/>
  <path class="st0" d="M 463.8 146.9 C 439.7 113.6 401.1 93.8 360 93.8 L 29.6 93.8 C 3.6 93.8 -9.7 124.8 8.1 143.7 L 431.4 592 C 451 612.8 478.3 624.5 506.8 624.5 L 727.3 624.5 C 761.2 624.5 780.9 586.1 761 558.6 L 463.8 146.9 Z M 525 501.6 C 506.1 501.6 488.1 493.3 475.8 479 L 326.6 305 C 310 285.6 323.7 255.6 349.3 255.6 L 360 255.6 C 379.7 255.6 398.4 264.6 410.7 280 L 548.4 453 C 564 472.6 550.1 501.6 525 501.6 Z" style="fill: rgb(255, 255, 255);"/>
</svg>