<?xml version="1.0" encoding="UTF-8" standalone="no"?>
<!-- Created with Inkscape (http://www.inkscape.org/) -->

<svg
   xmlns:dc="http://purl.org/dc/elements/1.1/"
   xmlns:cc="http://creativecommons.org/ns#"
   xmlns:rdf="http://www.w3.org/1999/02/22-rdf-syntax-ns#"
   xmlns:svg="http://www.w3.org/2000/svg"
   xmlns="http://www.w3.org/2000/svg"
   xmlns:sodipodi="http://sodipodi.sourceforge.net/DTD/sodipodi-0.dtd"
   xmlns:inkscape="http://www.inkscape.org/namespaces/inkscape"
   width="150"
   height="150"
   viewBox="0 0 39.687499 39.687501"
   version="1.1"
   id="svg8"
   sodipodi:docname="x.svg"
   inkscape:version="0.92.5 (2060ec1f9f, 2020-04-08)">
  <defs
     id="defs2" />
  <sodipodi:namedview
     id="base"
     pagecolor="#ffffff"
     bordercolor="#666666"
     borderopacity="1.0"
     inkscape:pageopacity="0.0"
     inkscape:pageshadow="2"
     inkscape:zoom="2.5806162"
     inkscape:cx="13.322827"
     inkscape:cy="92.95768"
     inkscape:document-units="mm"
     inkscape:current-layer="layer1"
     showgrid="false"
     units="px"
     inkscape:pagecheckerboard="true"
     inkscape:window-width="1366"
     inkscape:window-height="743"
     inkscape:window-x="0"
     inkscape:window-y="0"
     inkscape:window-maximized="1" />
  <metadata
     id="metadata5">
    <rdf:RDF>
      <cc:Work
         rdf:about="">
        <dc:format>image/svg+xml</dc:format>
        <dc:type
           rdf:resource="http://purl.org/dc/dcmitype/StillImage" />
        <dc:title />
      </cc:Work>
    </rdf:RDF>
  </metadata>
  <g
     inkscape:label="Layer 1"
     inkscape:groupmode="layer"
     id="layer1"
     transform="translate(0,-257.31248)">
    <path
       style="opacity:0.98000004;fill:#666666;fill-opacity:1;stroke:#666666;stroke-width:4.91268206;stroke-linecap:round;stroke-linejoin:round;stroke-miterlimit:4;stroke-dasharray:none;stroke-opacity:1"
       d="M 75.244141 2.0859375 A 72.668541 72.334871 0 0 0 2.5761719 74.421875 A 72.668541 72.334871 0 0 0 75.244141 146.75586 A 72.668541 72.334871 0 0 0 147.91406 74.421875 A 72.668541 72.334871 0 0 0 75.244141 2.0859375 z M 48.107422 17.212891 L 50.154297 17.212891 C 56.235065 17.212891 60.361499 19.647404 62.533203 24.513672 L 76.958984 56.324219 L 91.386719 24.513672 C 93.558423 19.647404 97.682903 17.212891 103.76367 17.212891 L 104.13672 17.212891 C 110.77592 17.212891 115.49101 19.585927 118.2832 24.332031 C 120.76515 28.717694 120.5174 33.374444 117.53906 38.300781 L 95.667969 75.427734 L 117.53906 110.30273 C 120.64149 115.28914 120.88925 120.21576 118.2832 125.08203 C 115.67716 129.9483 110.96207 132.38281 104.13672 132.38281 L 103.76367 132.38281 C 97.744951 132.38281 93.62047 129.9483 91.386719 125.08203 L 76.958984 94.443359 L 62.533203 125.08203 C 60.237402 129.88823 56.110968 132.32274 50.154297 132.38281 L 48.107422 132.38281 C 42.585094 132.38281 38.426955 129.97805 35.634766 125.17188 C 32.904625 120.36568 33.152376 115.4093 36.378906 110.30273 L 58.345703 75.427734 L 36.378906 38.300781 C 33.524667 33.494608 33.308617 28.837858 35.728516 24.332031 C 38.148413 19.585927 42.27485 17.212891 48.107422 17.212891 z "
       transform="matrix(0.26458333,0,0,0.26458333,0,257.31248)"
       id="path10" />
  </g>
</svg>
