<svg width="723" height="85" viewBox="0 0 723 85" fill="none" xmlns="http://www.w3.org/2000/svg">
<g id="gamemeta">
<g id="GAME DETAILS">
<g id="ICON DIVIDERS" opacity="0.351446">
<rect id="Rectangle" x="170" width="1" height="73" fill="white"/>
<rect id="Rectangle_2" x="361" width="1" height="73" fill="white"/>
<rect id="Rectangle_3" x="552" width="1" height="73" fill="white"/>
</g>
<g id="MD_LBL_PLAYERS INFO">
<g id="PLAYERS - ICON">
<path id="Oval" d="M258.5 8C258.5 11.5899 255.59 14.5 252 14.5C248.41 14.5 245.5 11.5899 245.5 8C245.5 4.41015 248.41 1.5 252 1.5C255.59 1.5 258.5 4.41015 258.5 8Z" stroke="white" stroke-width="3"/>
<path id="Rectangle_4" d="M245 19.5H259C262.038 19.5 264.5 21.9624 264.5 25V36.5H239.5V25C239.5 21.9624 241.962 19.5 245 19.5Z" stroke="white" stroke-width="3"/>
<path id="Oval_2" d="M287.5 8C287.5 11.5899 284.59 14.5 281 14.5C277.41 14.5 274.5 11.5899 274.5 8C274.5 4.41015 277.41 1.5 281 1.5C284.59 1.5 287.5 4.41015 287.5 8Z" stroke="white" stroke-width="3"/>
<path id="Rectangle_5" d="M274 19.5H288C291.038 19.5 293.5 21.9624 293.5 25V36.5H268.5V25C268.5 21.9624 270.962 19.5 274 19.5Z" stroke="white" stroke-width="3"/>
</g>
</g>
<g id="MD_DEVELOPER INFO">
<g id="PROCESSOR - ICON">
<g id="Group 51">
<rect id="Rectangle_6" x="420" y="13" width="8" height="3" rx="1.5" fill="white"/>
<rect id="Rectangle_7" x="420" y="18" width="8" height="3" rx="1.5" fill="white"/>
<rect id="Rectangle_8" x="420" y="23" width="8" height="3" rx="1.5" fill="white"/>
</g>
<g id="Group 52">
<rect id="Rectangle_9" x="448" y="1" width="7" height="3" rx="1.5" transform="rotate(90 448 1)" fill="white"/>
<rect id="Rectangle_10" x="443" y="1" width="7" height="3" rx="1.5" transform="rotate(90 443 1)" fill="white"/>
<rect id="Rectangle_11" x="438" y="1" width="7" height="3" rx="1.5" transform="rotate(90 438 1)" fill="white"/>
<rect id="Rectangle_12" x="463" y="1" width="7" height="3" rx="1.5" transform="rotate(90 463 1)" fill="white"/>
<rect id="Rectangle_13" x="458" y="1" width="7" height="3" rx="1.5" transform="rotate(90 458 1)" fill="white"/>
<rect id="Rectangle_14" x="453" y="1" width="7" height="3" rx="1.5" transform="rotate(90 453 1)" fill="white"/>
<rect id="Rectangle_15" x="478" y="1" width="7" height="3" rx="1.5" transform="rotate(90 478 1)" fill="white"/>
<rect id="Rectangle_16" x="468" y="1" width="7" height="3" rx="1.5" transform="rotate(90 468 1)" fill="white"/>
<rect id="Rectangle_17" x="473" y="1" width="7" height="3" rx="1.5" transform="rotate(90 473 1)" fill="white"/>
</g>
<g id="Group 52_2">
<rect id="Rectangle_18" x="448" y="31" width="7" height="3" rx="1.5" transform="rotate(90 448 31)" fill="white"/>
<rect id="Rectangle_19" x="443" y="31" width="7" height="3" rx="1.5" transform="rotate(90 443 31)" fill="white"/>
<rect id="Rectangle_20" x="438" y="31" width="7" height="3" rx="1.5" transform="rotate(90 438 31)" fill="white"/>
<rect id="Rectangle_21" x="463" y="31" width="7" height="3" rx="1.5" transform="rotate(90 463 31)" fill="white"/>
<rect id="Rectangle_22" x="458" y="31" width="7" height="3" rx="1.5" transform="rotate(90 458 31)" fill="white"/>
<rect id="Rectangle_23" x="453" y="31" width="7" height="3" rx="1.5" transform="rotate(90 453 31)" fill="white"/>
<rect id="Rectangle_24" x="478" y="31" width="7" height="3" rx="1.5" transform="rotate(90 478 31)" fill="white"/>
<rect id="Rectangle_25" x="468" y="31" width="7" height="3" rx="1.5" transform="rotate(90 468 31)" fill="white"/>
<rect id="Rectangle_26" x="473" y="31" width="7" height="3" rx="1.5" transform="rotate(90 473 31)" fill="white"/>
</g>
<g id="Group 51_2">
<rect id="Rectangle_27" x="486" y="13" width="8" height="3" rx="1.5" fill="white"/>
<rect id="Rectangle_28" x="486" y="18" width="8" height="3" rx="1.5" fill="white"/>
<rect id="Rectangle_29" x="486" y="23" width="8" height="3" rx="1.5" fill="white"/>
</g>
<path id="Rectangle (Stroke)" fill-rule="evenodd" clip-rule="evenodd" d="M428 9V30H485V9H428ZM427.556 6C426.144 6 425 7.14416 425 8.55556V30.4444C425 31.8558 426.144 33 427.556 33H485.444C486.856 33 488 31.8558 488 30.4444V8.55556C488 7.14416 486.856 6 485.444 6H427.556Z" fill="white"/>
<path id="Rectangle (Stroke)_2" fill-rule="evenodd" clip-rule="evenodd" d="M480 14H433V25H480V14ZM431 12V27H482V12H431Z" fill="white"/>
</g>
</g>
<g id="RELEASEDATE - INFO">
<g id="RELEASEDATE - ICON">
<rect id="Rectangle_30" x="632" width="10" height="3" rx="1.5" transform="rotate(90 632 0)" fill="white"/>
<rect id="Rectangle_31" x="620" y="11" width="57" height="2" fill="white"/>
<rect id="Rectangle_32" x="668" width="10" height="3" rx="1.5" transform="rotate(90 668 0)" fill="white"/>
<path id="Rectangle (Stroke)_3" fill-rule="evenodd" clip-rule="evenodd" d="M623 6V35H674V6H623ZM622.556 3C621.144 3 620 4.14416 620 5.55556V35.4444C620 36.8558 621.144 38 622.556 38H674.444C675.856 38 677 36.8558 677 35.4444V5.55556C677 4.14416 675.856 3 674.444 3H622.556Z" fill="white"/>
<path id="Oval_3" fill-rule="evenodd" clip-rule="evenodd" d="M634.5 18C635.328 18 636 17.3284 636 16.5C636 15.6716 635.328 15 634.5 15C633.672 15 633 15.6716 633 16.5C633 17.3284 633.672 18 634.5 18Z" fill="white"/>
<path id="Oval_4" fill-rule="evenodd" clip-rule="evenodd" d="M641.5 18C642.328 18 643 17.3284 643 16.5C643 15.6716 642.328 15 641.5 15C640.672 15 640 15.6716 640 16.5C640 17.3284 640.672 18 641.5 18Z" fill="white"/>
<path id="Oval_5" fill-rule="evenodd" clip-rule="evenodd" d="M648.5 18C649.328 18 650 17.3284 650 16.5C650 15.6716 649.328 15 648.5 15C647.672 15 647 15.6716 647 16.5C647 17.3284 647.672 18 648.5 18Z" fill="white"/>
<path id="Oval_6" fill-rule="evenodd" clip-rule="evenodd" d="M655.5 18C656.328 18 657 17.3284 657 16.5C657 15.6716 656.328 15 655.5 15C654.672 15 654 15.6716 654 16.5C654 17.3284 654.672 18 655.5 18Z" fill="white"/>
<path id="Oval_7" fill-rule="evenodd" clip-rule="evenodd" d="M662.5 18C663.328 18 664 17.3284 664 16.5C664 15.6716 663.328 15 662.5 15C661.672 15 661 15.6716 661 16.5C661 17.3284 661.672 18 662.5 18Z" fill="white"/>
<path id="Oval_8" fill-rule="evenodd" clip-rule="evenodd" d="M669.5 18C670.328 18 671 17.3284 671 16.5C671 15.6716 670.328 15 669.5 15C668.672 15 668 15.6716 668 16.5C668 17.3284 668.672 18 669.5 18Z" fill="white"/>
<path id="Oval_9" fill-rule="evenodd" clip-rule="evenodd" d="M627.5 23C628.328 23 629 22.3284 629 21.5C629 20.6716 628.328 20 627.5 20C626.672 20 626 20.6716 626 21.5C626 22.3284 626.672 23 627.5 23Z" fill="white"/>
<path id="Oval_10" fill-rule="evenodd" clip-rule="evenodd" d="M634.5 23C635.328 23 636 22.3284 636 21.5C636 20.6716 635.328 20 634.5 20C633.672 20 633 20.6716 633 21.5C633 22.3284 633.672 23 634.5 23Z" fill="white"/>
<path id="Oval_11" fill-rule="evenodd" clip-rule="evenodd" d="M641.5 23C642.328 23 643 22.3284 643 21.5C643 20.6716 642.328 20 641.5 20C640.672 20 640 20.6716 640 21.5C640 22.3284 640.672 23 641.5 23Z" fill="white"/>
<path id="Oval_12" fill-rule="evenodd" clip-rule="evenodd" d="M648.5 23C649.328 23 650 22.3284 650 21.5C650 20.6716 649.328 20 648.5 20C647.672 20 647 20.6716 647 21.5C647 22.3284 647.672 23 648.5 23Z" fill="white"/>
<path id="Oval_13" fill-rule="evenodd" clip-rule="evenodd" d="M655.5 23C656.328 23 657 22.3284 657 21.5C657 20.6716 656.328 20 655.5 20C654.672 20 654 20.6716 654 21.5C654 22.3284 654.672 23 655.5 23Z" fill="white"/>
<path id="Oval_14" fill-rule="evenodd" clip-rule="evenodd" d="M662.5 23C663.328 23 664 22.3284 664 21.5C664 20.6716 663.328 20 662.5 20C661.672 20 661 20.6716 661 21.5C661 22.3284 661.672 23 662.5 23Z" fill="white"/>
<path id="Oval_15" fill-rule="evenodd" clip-rule="evenodd" d="M669.5 23C670.328 23 671 22.3284 671 21.5C671 20.6716 670.328 20 669.5 20C668.672 20 668 20.6716 668 21.5C668 22.3284 668.672 23 669.5 23Z" fill="white"/>
<path id="Oval_16" fill-rule="evenodd" clip-rule="evenodd" d="M627.5 28C628.328 28 629 27.3284 629 26.5C629 25.6716 628.328 25 627.5 25C626.672 25 626 25.6716 626 26.5C626 27.3284 626.672 28 627.5 28Z" fill="white"/>
<path id="Oval_17" fill-rule="evenodd" clip-rule="evenodd" d="M634.5 28C635.328 28 636 27.3284 636 26.5C636 25.6716 635.328 25 634.5 25C633.672 25 633 25.6716 633 26.5C633 27.3284 633.672 28 634.5 28Z" fill="white"/>
<path id="Oval_18" fill-rule="evenodd" clip-rule="evenodd" d="M641.5 28C642.328 28 643 27.3284 643 26.5C643 25.6716 642.328 25 641.5 25C640.672 25 640 25.6716 640 26.5C640 27.3284 640.672 28 641.5 28Z" fill="white"/>
<path id="Oval_19" fill-rule="evenodd" clip-rule="evenodd" d="M648.5 28C649.328 28 650 27.3284 650 26.5C650 25.6716 649.328 25 648.5 25C647.672 25 647 25.6716 647 26.5C647 27.3284 647.672 28 648.5 28Z" fill="white"/>
<path id="Oval_20" fill-rule="evenodd" clip-rule="evenodd" d="M655.5 28C656.328 28 657 27.3284 657 26.5C657 25.6716 656.328 25 655.5 25C654.672 25 654 25.6716 654 26.5C654 27.3284 654.672 28 655.5 28Z" fill="white"/>
<path id="Oval_21" fill-rule="evenodd" clip-rule="evenodd" d="M662.5 28C663.328 28 664 27.3284 664 26.5C664 25.6716 663.328 25 662.5 25C661.672 25 661 25.6716 661 26.5C661 27.3284 661.672 28 662.5 28Z" fill="white"/>
<path id="Oval_22" fill-rule="evenodd" clip-rule="evenodd" d="M669.5 28C670.328 28 671 27.3284 671 26.5C671 25.6716 670.328 25 669.5 25C668.672 25 668 25.6716 668 26.5C668 27.3284 668.672 28 669.5 28Z" fill="white"/>
<path id="Oval_23" fill-rule="evenodd" clip-rule="evenodd" d="M627.5 33C628.328 33 629 32.3284 629 31.5C629 30.6716 628.328 30 627.5 30C626.672 30 626 30.6716 626 31.5C626 32.3284 626.672 33 627.5 33Z" fill="white"/>
<path id="Oval_24" fill-rule="evenodd" clip-rule="evenodd" d="M634.5 33C635.328 33 636 32.3284 636 31.5C636 30.6716 635.328 30 634.5 30C633.672 30 633 30.6716 633 31.5C633 32.3284 633.672 33 634.5 33Z" fill="white"/>
<path id="Oval_25" fill-rule="evenodd" clip-rule="evenodd" d="M641.5 33C642.328 33 643 32.3284 643 31.5C643 30.6716 642.328 30 641.5 30C640.672 30 640 30.6716 640 31.5C640 32.3284 640.672 33 641.5 33Z" fill="white"/>
<path id="Oval_26" fill-rule="evenodd" clip-rule="evenodd" d="M648.5 33C649.328 33 650 32.3284 650 31.5C650 30.6716 649.328 30 648.5 30C647.672 30 647 30.6716 647 31.5C647 32.3284 647.672 33 648.5 33Z" fill="white"/>
<path id="Oval_27" fill-rule="evenodd" clip-rule="evenodd" d="M655.5 33C656.328 33 657 32.3284 657 31.5C657 30.6716 656.328 30 655.5 30C654.672 30 654 30.6716 654 31.5C654 32.3284 654.672 33 655.5 33Z" fill="white"/>
<path id="Oval_28" fill-rule="evenodd" clip-rule="evenodd" d="M662.5 33C663.328 33 664 32.3284 664 31.5C664 30.6716 663.328 30 662.5 30C661.672 30 661 30.6716 661 31.5C661 32.3284 661.672 33 662.5 33Z" fill="white"/>
</g>
</g>
</g>
<g id="pc-fx">
<g id="Group 371">
<g id="Vector">
<path fill-rule="evenodd" clip-rule="evenodd" d="M53.9156 29.1543C58.0728 29.1543 61.4429 25.7842 61.4429 21.627C61.4429 17.4698 58.0728 14.0998 53.9156 14.0998C49.7584 14.0998 46.3884 17.4698 46.3884 21.627C46.3884 25.7842 49.7584 29.1543 53.9156 29.1543ZM53.9156 30.154C58.6249 30.154 62.4426 26.3363 62.4426 21.627C62.4426 16.9177 58.6249 13.1001 53.9156 13.1001C49.2063 13.1001 45.3887 16.9177 45.3887 21.627C45.3887 26.3363 49.2063 30.154 53.9156 30.154Z" fill="white"/>
<path d="M95.0495 19.717C95.0495 21.224 93.8279 22.4456 92.3209 22.4456C90.8139 22.4456 89.5923 21.224 89.5923 19.717C89.5923 18.21 90.8139 16.9884 92.3209 16.9884C93.8279 16.9884 95.0495 18.21 95.0495 19.717Z" fill="white"/>
<path d="M107.601 14.8737C107.601 16.3807 106.38 17.6023 104.873 17.6023C103.366 17.6023 102.144 16.3807 102.144 14.8737C102.144 13.3667 103.366 12.1451 104.873 12.1451C106.38 12.1451 107.601 13.3667 107.601 14.8737Z" fill="white"/>
<path d="M101.121 16.9884C101.121 18.4954 99.8991 19.717 98.3921 19.717C96.8851 19.717 95.6635 18.4954 95.6635 16.9884C95.6635 15.4814 96.8851 14.2598 98.3921 14.2598C99.8991 14.2598 101.121 15.4814 101.121 16.9884Z" fill="white"/>
<path d="M97.5735 26.3339C97.5735 27.8409 96.3519 29.0625 94.8449 29.0625C93.3379 29.0625 92.1163 27.8409 92.1163 26.3339C92.1163 24.8269 93.3379 23.6053 94.8449 23.6053C96.3519 23.6053 97.5735 24.8269 97.5735 26.3339Z" fill="white"/>
<path d="M110.125 21.4906C110.125 22.9976 108.903 24.2192 107.397 24.2192C105.89 24.2192 104.668 22.9976 104.668 21.4906C104.668 19.9836 105.89 18.762 107.397 18.762C108.903 18.762 110.125 19.9836 110.125 21.4906Z" fill="white"/>
<path d="M103.645 23.6053C103.645 25.1123 102.423 26.3339 100.916 26.3339C99.4091 26.3339 98.1874 25.1123 98.1874 23.6053C98.1874 22.0983 99.4091 20.8767 100.916 20.8767C102.423 20.8767 103.645 22.0983 103.645 23.6053Z" fill="white"/>
<path fill-rule="evenodd" clip-rule="evenodd" d="M104.721 4.96317C106.867 5.62497 108.67 6.42735 109.884 7.41228C110.98 8.3017 112.086 10.0851 113.03 12.1823C113.995 14.3244 114.858 16.9444 115.401 19.6513C115.944 22.3531 116.177 25.1879 115.848 27.7452C115.519 30.2967 114.615 32.673 112.786 34.3098C111.748 35.2382 110.306 35.9026 108.72 36.3937C107.121 36.889 105.295 37.2316 103.422 37.471C99.6767 37.9497 95.6379 38.0278 92.6396 38.0408C91.2247 38.047 90.0555 37.2796 89.2308 36.4352C87.6917 34.8594 85.2108 34.1551 77.7384 34.1551H77.261C69.7886 34.1551 67.3077 34.8594 65.7686 36.4352C64.9439 37.2796 63.7747 38.047 62.3598 38.0408C59.3615 38.0278 55.3227 37.9497 51.5772 37.471C49.7041 37.2316 47.8785 36.889 46.2789 36.3937C44.6931 35.9026 43.2515 35.2382 42.2138 34.3098C40.3845 32.673 39.4804 30.2967 39.1517 27.7452C38.8223 25.1879 39.0557 22.3531 39.598 19.6513C40.1413 16.9444 41.0041 14.3244 41.9689 12.1823C42.9135 10.0851 44.0193 8.3017 45.1156 7.41228C46.3296 6.42735 48.1325 5.62497 50.2783 4.96317C52.4436 4.29532 55.0428 3.7456 57.9167 3.30859C63.666 2.43437 70.5907 2 77.4997 2C84.4087 2 91.3334 2.43437 97.0826 3.30859C99.9566 3.7456 102.556 4.29532 104.721 4.96317ZM50.8675 6.87375C48.8073 7.50917 47.2932 8.22023 46.3753 8.96493C45.6639 9.54214 44.7147 10.9545 43.7919 13.0034C42.8893 15.0074 42.0723 17.4839 41.5583 20.0448C41.0432 22.6107 40.8417 25.2152 41.1347 27.4898C41.4285 29.7702 42.2043 31.6183 43.547 32.8197C44.277 33.4729 45.4067 34.0305 46.8704 34.4838C48.3204 34.9328 50.0227 35.2567 51.8306 35.4877C55.4471 35.9499 59.3825 36.0284 62.3685 36.0414C63.0298 36.0443 63.7123 35.6791 64.3382 35.0382C66.546 32.7777 69.9092 32.1558 77.261 32.1558H77.7384C85.0902 32.1558 88.4534 32.7777 90.6611 35.0382C91.2871 35.6791 91.9695 36.0443 92.6309 36.0414C95.6169 36.0284 99.5523 35.9499 103.169 35.4877C104.977 35.2567 106.679 34.9328 108.129 34.4838C109.593 34.0305 110.722 33.4729 111.452 32.8197C112.795 31.6183 113.571 29.7702 113.865 27.4898C114.158 25.2152 113.956 22.6107 113.441 20.0448C112.927 17.4839 112.11 15.0074 111.207 13.0034C110.285 10.9545 109.336 9.54214 108.624 8.96493C107.706 8.22023 106.192 7.50917 104.132 6.87375C102.091 6.24437 99.5956 5.71307 96.7821 5.28526C91.1565 4.42985 84.3359 3.99939 77.4997 3.99939C70.6634 3.99939 63.8429 4.42985 58.2173 5.28526C55.4038 5.71307 52.9082 6.24437 50.8675 6.87375Z" fill="white"/>
<path fill-rule="evenodd" clip-rule="evenodd" d="M56.5896 15.8839C56.6407 15.6163 56.4898 15.3513 56.2336 15.2587C54.6916 14.7013 53.0032 14.7013 51.4612 15.2587C51.205 15.3513 51.0541 15.6163 51.1052 15.8839L51.5662 18.2968C51.6928 18.9592 51.1114 19.5406 50.4489 19.414L48.0361 18.953C47.7685 18.9019 47.5034 19.0528 47.4108 19.309C46.8535 20.851 46.8535 22.5395 47.4108 24.0815C47.5034 24.3377 47.7685 24.4886 48.0361 24.4374L50.4489 23.9764C51.1114 23.8499 51.6928 24.4312 51.5662 25.0937L51.1052 27.5066C51.0541 27.7742 51.205 28.0392 51.4612 28.1318C53.0032 28.6891 54.6916 28.6891 56.2336 28.1318C56.4898 28.0392 56.6407 27.7742 56.5896 27.5066L56.1286 25.0937C56.002 24.4312 56.5834 23.8499 57.2459 23.9764L59.6588 24.4374C59.9263 24.4886 60.1914 24.3377 60.284 24.0815C60.8413 22.5395 60.8413 20.851 60.284 19.309C60.1914 19.0528 59.9263 18.9019 59.6588 18.953L57.2459 19.414C56.5834 19.5406 56.002 18.9592 56.1286 18.2968L56.5896 15.8839Z" fill="white"/>
<path fill-rule="evenodd" clip-rule="evenodd" d="M57.835 10.9234C60.8693 11.7054 63.873 13.0219 65.6903 15.1648C67.9127 17.7852 67.7726 21.3176 66.5694 24.5904C65.3626 27.8731 63.0459 31.0275 60.681 33.0466C59.3665 34.1688 57.6302 34.4732 56.0034 34.3235C53.2443 34.0695 50.655 33.7958 48.5119 33.1909C46.3665 32.5854 44.587 31.6262 43.5341 29.9416C42.0488 27.5651 41.8061 24.4376 42.1794 21.3916C42.5541 18.3341 43.5587 15.28 44.66 12.9815C45.5534 11.117 47.2853 9.89909 49.3891 9.88507C51.6207 9.8702 54.7854 10.1374 57.835 10.9234ZM57.5856 11.8911C54.6331 11.1302 51.5561 10.87 49.3958 10.8844C47.7098 10.8956 46.3055 11.8601 45.5613 13.4134C44.5004 15.6275 43.5311 18.5772 43.1713 21.5132C42.81 24.4608 43.072 27.3166 44.3815 29.4119C45.2447 30.793 46.7449 31.6538 48.7833 32.2291C50.8239 32.8051 53.3223 33.0731 56.095 33.3283C57.5549 33.4627 58.989 33.177 60.0321 32.2865C62.2741 30.3724 64.487 27.3585 65.6314 24.2456C66.7794 21.1229 66.8121 18.0325 64.9282 15.8112C63.3121 13.9056 60.5533 12.6559 57.5856 11.8911Z" fill="white"/>
<path fill-rule="evenodd" clip-rule="evenodd" d="M97.1203 10.9229C94.0859 11.7049 91.0823 13.0215 89.2649 15.1643C87.0425 17.7848 87.1827 21.3171 88.3859 24.59C89.5927 27.8727 91.9093 31.0271 94.2743 33.0461C95.5887 34.1683 97.325 34.4728 98.9519 34.323C101.711 34.069 104.3 33.7953 106.443 33.1905C108.589 32.5849 110.368 31.6258 111.421 29.9411C112.906 27.5646 113.149 24.4372 112.776 21.3912C112.401 18.3336 111.397 15.2796 110.295 12.9811C109.402 11.1166 107.67 9.89865 105.566 9.88463C103.335 9.86976 100.17 10.137 97.1203 10.9229ZM97.3697 11.8907C100.322 11.1298 103.399 10.8696 105.559 10.884C107.245 10.8952 108.65 11.8596 109.394 13.4129C110.455 15.6271 111.424 18.5768 111.784 21.5128C112.145 24.4603 111.883 27.3162 110.574 29.4115C109.711 30.7926 108.21 31.6533 106.172 32.2287C104.131 32.8046 101.633 33.0726 98.8603 33.3279C97.4004 33.4623 95.9662 33.1766 94.9232 32.2861C92.6812 30.372 90.4683 27.358 89.3239 24.2452C88.1759 21.1225 88.1432 18.0321 90.0271 15.8107C91.6432 13.9052 94.402 12.6555 97.3697 11.8907Z" fill="white"/>
<path fill-rule="evenodd" clip-rule="evenodd" d="M76.4268 21.0133H78.4732C79.1514 21.0133 79.7011 21.563 79.7011 22.2412C79.7011 22.9193 79.1514 23.469 78.4732 23.469H76.4268C75.7486 23.469 75.1989 22.9193 75.1989 22.2412C75.1989 21.563 75.7486 21.0133 76.4268 21.0133ZM76.4268 21.4226C75.9747 21.4226 75.6082 21.7891 75.6082 22.2412C75.6082 22.6933 75.9747 23.0597 76.4268 23.0597H78.4732C78.9253 23.0597 79.2918 22.6933 79.2918 22.2412C79.2918 21.7891 78.9253 21.4226 78.4732 21.4226H76.4268Z" fill="white"/>
<path fill-rule="evenodd" clip-rule="evenodd" d="M76.4274 15.7605H78.4739C79.152 15.7605 79.7018 16.3103 79.7018 16.9884C79.7018 17.6665 79.152 18.2163 78.4739 18.2163H76.4274C75.7493 18.2163 75.1996 17.6665 75.1996 16.9884C75.1996 16.3103 75.7493 15.7605 76.4274 15.7605ZM76.4274 16.1698C75.9753 16.1698 75.6089 16.5363 75.6089 16.9884C75.6089 17.4405 75.9753 17.807 76.4274 17.807H78.4739C78.926 17.807 79.2925 17.4405 79.2925 16.9884C79.2925 16.5363 78.926 16.1698 78.4739 16.1698H76.4274Z" fill="white"/>
<path d="M72.0609 28.3807C72.0609 27.9286 72.4274 27.5621 72.8795 27.5621H75.9492C76.4013 27.5621 76.7678 27.9286 76.7678 28.3807C76.7678 28.8328 76.4013 29.1993 75.9492 29.1993H72.8795C72.4274 29.1993 72.0609 28.8328 72.0609 28.3807Z" fill="white"/>
<path d="M78.2005 28.3804C78.2005 27.9283 78.567 27.5618 79.0191 27.5618H82.0888C82.5409 27.5618 82.9074 27.9283 82.9074 28.3804C82.9074 28.8325 82.5409 29.199 82.0888 29.199H79.0191C78.567 29.199 78.2005 28.8325 78.2005 28.3804Z" fill="white"/>
<path d="M77.7228 16.9884C77.7228 17.4405 77.3563 17.807 76.9042 17.807C76.4521 17.807 76.0856 17.4405 76.0856 16.9884C76.0856 16.5363 76.4521 16.1698 76.9042 16.1698C77.3563 16.1698 77.7228 16.5363 77.7228 16.9884Z" fill="white"/>
<path d="M77.7228 22.241C77.7228 22.6931 77.3563 23.0596 76.9042 23.0596C76.4521 23.0596 76.0856 22.6931 76.0856 22.241C76.0856 21.7889 76.4521 21.4224 76.9042 21.4224C77.3563 21.4224 77.7228 21.7889 77.7228 22.241Z" fill="white"/>
</g>
</g>
</g>
</g>
</svg>
