<svg width="283" height="141" viewBox="0 0 283 141" fill="none" xmlns="http://www.w3.org/2000/svg">
<path d="M20.3289 95.813C25.3879 95.812 30.424 95.503 35.177 93.694C47.887 89.314 56.3069 75.884 55.8869 62.624C55.5169 56.124 53.3169 49.694 49.3869 44.484C43.5369 36.214 33.347 31.524 23.297 31.774L0.686951 31.765V50.87L0.626953 51.133L0.686951 51.128V120.934H9.88695V95.813H20.3289ZM9.79695 40.004C14.977 39.994 20.1569 39.884 25.327 40.124C33.0269 40.634 40.5069 44.934 44.2769 51.754C48.9969 59.824 48.4569 70.744 42.6369 78.114C38.5769 83.584 31.9669 87.084 25.1369 87.194C20.0569 87.264 15.0799 87.227 9.88695 87.227L9.79695 40.004Z" fill="white"/>
<path d="M155.881 83.0512V65.7242H142.346C143.266 68.9962 143.768 72.4432 143.768 76.0092C143.768 78.4172 143.534 80.7682 143.105 83.0522H155.881V83.0512Z" fill="white"/>
<path d="M139.795 92.9112C133.578 105.384 120.703 113.956 105.82 113.956C84.8619 113.956 67.8719 96.9662 67.8719 76.0082C67.8719 55.0502 84.8619 38.0602 105.82 38.0602C119.375 38.0602 131.262 45.1722 137.974 55.8632H147.516C140.023 40.3792 124.175 29.6932 105.819 29.6932C80.2399 29.6932 59.5039 50.4292 59.5039 76.0082C59.5039 101.587 80.2399 122.323 105.819 122.323C125.431 122.323 142.181 110.128 148.934 92.9112H139.795Z" fill="white"/>
<path d="M207.737 49.444V31.765H180.067H172.267H163.127V120.964H180.067V83.051H206.463V65.724H180.067V49.444H207.737Z" fill="white"/>
<path d="M278.767 120.964L252.267 74.616L276.767 31.765H256.377L242.072 56.785L227.767 31.765H207.377L231.877 74.616L205.377 120.964H225.767L242.072 92.447L258.377 120.964H278.767Z" fill="white"/>
<path d="M10.289 140.565V131.391L6.41303 140.565H5.52119L1.65915 131.391V140.565H0.626953V130.261H2.23049L5.98104 139.031L9.71766 130.261H11.3212V140.565H10.289Z" fill="white"/>
<path d="M16.8493 140.746C14.772 140.746 13.3496 139.491 13.3496 136.689V130.261H14.3818V136.689C14.3818 138.795 15.2468 139.799 16.8633 139.799C18.4529 139.799 19.3308 138.796 19.3308 136.689V130.261H20.363V136.689C20.363 139.491 18.9406 140.746 16.8493 140.746V140.746Z" fill="white"/>
<path d="M22.3926 140.565V130.261H23.4248V139.631H27.6909V140.565H22.3926Z" fill="white"/>
<path d="M245.297 135.473H246.788C247.067 135.473 247.299 135.473 247.485 135.473C247.68 135.464 247.852 135.455 248 135.445C248.158 135.427 248.302 135.399 248.432 135.362C248.562 135.324 248.702 135.273 248.85 135.208C249.259 135.023 249.561 134.762 249.756 134.428C249.951 134.084 250.049 133.717 250.049 133.327C250.049 132.937 249.951 132.575 249.756 132.24C249.561 131.896 249.259 131.632 248.85 131.446C248.702 131.381 248.562 131.33 248.432 131.293C248.302 131.255 248.158 131.232 248 131.223C247.852 131.204 247.68 131.195 247.485 131.195C247.299 131.186 247.067 131.181 246.788 131.181H245.297V135.473ZM244.266 130.247H247.136C247.489 130.247 247.801 130.261 248.07 130.289C248.339 130.317 248.576 130.359 248.781 130.415C248.994 130.461 249.18 130.521 249.338 130.596C249.505 130.67 249.659 130.754 249.798 130.847C250.188 131.107 250.499 131.45 250.732 131.878C250.964 132.296 251.08 132.779 251.08 133.327C251.08 133.875 250.964 134.363 250.732 134.79C250.499 135.208 250.188 135.547 249.798 135.808C249.659 135.9 249.505 135.984 249.338 136.058C249.18 136.133 248.994 136.198 248.781 136.253C248.576 136.3 248.339 136.337 248.07 136.365C247.801 136.393 247.489 136.407 247.136 136.407H245.297V140.559H244.266V130.247Z" fill="white"/>
<path d="M262.211 137.856C261.933 138.358 261.607 138.794 261.236 139.166C260.864 139.528 260.465 139.826 260.037 140.058C259.619 140.29 259.187 140.462 258.741 140.573C258.305 140.685 257.877 140.741 257.459 140.741C256.735 140.741 256.047 140.606 255.397 140.336C254.747 140.067 254.175 139.695 253.683 139.222C253.191 138.748 252.796 138.186 252.498 137.536C252.21 136.885 252.066 136.179 252.066 135.417C252.066 134.656 252.206 133.95 252.485 133.299C252.773 132.649 253.158 132.087 253.641 131.613C254.134 131.13 254.705 130.754 255.355 130.484C256.015 130.215 256.712 130.08 257.445 130.08C258.105 130.08 258.704 130.182 259.243 130.387C259.782 130.591 260.251 130.842 260.651 131.139C261.05 131.427 261.375 131.734 261.626 132.059C261.886 132.375 262.067 132.654 262.169 132.895H261.013C260.734 132.477 260.418 132.143 260.065 131.892C259.712 131.641 259.369 131.45 259.034 131.32C258.7 131.19 258.388 131.107 258.1 131.07C257.812 131.032 257.589 131.014 257.432 131.014C256.828 131.014 256.261 131.139 255.731 131.39C255.211 131.632 254.756 131.957 254.366 132.366C253.976 132.774 253.664 133.243 253.432 133.773C253.209 134.303 253.098 134.855 253.098 135.431C253.098 136.035 253.218 136.602 253.46 137.131C253.702 137.661 254.022 138.125 254.422 138.525C254.83 138.924 255.295 139.24 255.815 139.473C256.345 139.695 256.888 139.807 257.445 139.807C257.576 139.807 257.771 139.793 258.031 139.765C258.291 139.737 258.584 139.663 258.909 139.542C259.243 139.412 259.596 139.217 259.968 138.957C260.339 138.697 260.702 138.33 261.055 137.856H262.211Z" fill="white"/>
<path d="M267.012 135.175V136.108H263.221V135.175H267.012Z" fill="white"/>
<path d="M268.406 130.247H273.617V131.181H269.437V134.916H273.464V135.849H269.437V140.559H268.406V130.247Z" fill="white"/>
<path d="M277.803 135.292L274.5 130.247H275.713L278.458 134.372L281.175 130.247H282.374L279.057 135.292L282.583 140.559H281.356L278.458 136.156L275.517 140.559H274.305L277.803 135.292Z" fill="white"/>
<path d="M30.5464 131.196V140.566H29.5142V131.196H27.1582V130.262H32.9025V131.196H30.5464Z" fill="white"/>
<path d="M33.9746 140.565V130.261H35.0068V140.565H33.9746Z" fill="white"/>
<path d="M46.7002 140.565V131.391L42.8232 140.565H41.9313L38.0693 131.391V140.565H37.0371V130.261H38.6407L42.3912 139.031L46.1278 130.261H47.7314V140.565H46.7002Z" fill="white"/>
<path d="M49.7617 140.565V130.261H55.3945V131.195H50.7929V134.89H55.2402V135.823H50.7929V139.63H55.3945V140.565H49.7617Z" fill="white"/>
<path d="M59.9216 140.565H57.1465V130.261H59.5732C61.4415 130.261 62.5294 130.484 63.5049 131.07C65.0388 131.976 65.847 133.51 65.847 135.448C65.847 138.418 63.9508 140.565 59.9216 140.565V140.565ZM62.9336 131.865C62.1522 131.391 61.1767 131.196 59.615 131.196H58.1787V139.632H59.615C61.4415 139.632 62.5006 139.367 63.3237 138.712C64.2723 137.944 64.8019 136.76 64.8019 135.407C64.8019 133.872 64.118 132.576 62.9336 131.865Z" fill="white"/>
<path d="M67.4316 140.565V130.261H68.4638V140.565H67.4316Z" fill="white"/>
<path d="M78.4725 140.565L76.9804 137.093H72.1837L70.6787 140.565H69.5918L74.0112 130.261H75.1689L79.6022 140.565H78.4725ZM74.5965 131.433L72.5749 136.16H76.5763L74.5965 131.433Z" fill="white"/>
<path d="M84.502 140.565V130.261H90.1347V131.195H85.5332V134.89H89.9805V135.823H85.5332V139.63H90.1347V140.565H84.502Z" fill="white"/>
<path d="M99.0544 140.565L92.9189 131.502V140.565H91.8867V130.261H93.2812L99.0534 138.807V130.261H100.086V140.565H99.0544Z" fill="white"/>
<path d="M104.543 131.196V140.566H103.51V131.196H101.154V130.262H106.899V131.196H104.543Z" fill="white"/>
<path d="M107.967 140.565V130.261H113.6V131.195H108.998V134.89H113.445V135.823H108.998V139.63H113.6V140.565H107.967Z" fill="white"/>
<path d="M119.301 136.717L122.187 140.565H120.904L117.432 135.895C120.317 135.895 121.294 135.393 121.294 133.539C121.294 131.824 120.235 131.196 117.836 131.196H116.386V140.565H115.354V130.261H117.905C121.14 130.261 122.339 131.433 122.339 133.58C122.34 135.406 121.28 136.508 119.301 136.717V136.717Z" fill="white"/>
<path d="M126.154 131.196V140.566H125.122V131.196H122.766V130.262H128.51V131.196H126.154Z" fill="white"/>
<path d="M136.86 140.565L135.368 137.093H130.571L129.065 140.565H127.979L132.398 130.261H133.556L137.989 140.565H136.86ZM132.983 131.433L130.962 136.16H134.963L132.983 131.433Z" fill="white"/>
<path d="M139.113 140.565V130.261H140.145V140.565H139.113Z" fill="white"/>
<path d="M149.345 140.565L143.21 131.502V140.565H142.178V130.261H143.572L149.344 138.807V130.261H150.377V140.565H149.345Z" fill="white"/>
<path d="M162.07 140.565V131.391L158.194 140.565H157.302L153.44 131.391V140.565H152.408V130.261H154.012L157.762 139.031L161.499 130.261H163.102V140.565H162.07Z" fill="white"/>
<path d="M165.129 140.565V130.261H170.762V131.195H166.16V134.89H170.607V135.823H166.16V139.63H170.762V140.565H165.129Z" fill="white"/>
<path d="M179.683 140.565L173.548 131.502V140.565H172.516V130.261H173.91L179.682 138.807V130.261H180.713V140.565H179.683Z" fill="white"/>
<path d="M185.169 131.196V140.566H184.137V131.196H181.781V130.262H187.526V131.196H185.169Z" fill="white"/>
<path d="M195.383 136.397H193.403V140.565H192.371V130.261H195.215C198.046 130.261 199.188 131.223 199.188 133.385C199.189 135.337 198.185 136.397 195.383 136.397V136.397ZM194.867 131.196H193.402V135.462H195.312C197.362 135.462 198.143 134.877 198.143 133.385C198.143 131.293 196.833 131.196 194.867 131.196Z" fill="white"/>
<path d="M200.539 140.565V130.261H201.571V139.631H205.838V140.565H200.539Z" fill="white"/>
<path d="M215.355 140.565L213.863 137.093H209.067L207.562 140.565H206.475L210.894 130.261H212.052L216.485 140.565H215.355ZM211.479 131.433L209.458 136.16H213.459L211.479 131.433Z" fill="white"/>
<path d="M220.133 137.121V140.565H219.101V137.121L215.531 130.261H216.675L219.602 136.033L222.6 130.261H223.73L220.133 137.121Z" fill="white"/>
<path d="M224.729 140.565V130.261H230.361V131.195H225.76V134.89H230.207V135.823H225.76V139.63H230.361V140.565H224.729Z" fill="white"/>
<path d="M236.061 136.717L238.947 140.565H237.663L234.192 135.895C237.077 135.895 238.054 135.393 238.054 133.539C238.054 131.824 236.995 131.196 234.596 131.196H233.145V140.565H232.113V130.261H234.664C237.899 130.261 239.099 131.433 239.099 133.58C239.101 135.406 238.041 136.508 236.061 136.717Z" fill="white"/>
<path d="M0.626953 1.30334H6.61956C7.99026 1.30334 9.60624 2.58362 10.3267 3.28773L20.8402 14.9449V1.30334H24.4117V19.915H18.1594C17.0455 19.8775 15.9519 19.6486 14.6773 18.3962L4.18115 6.71785V19.915H0.626953L0.626953 1.30334Z" fill="white"/>
<path d="M75.0873 20.0419C70.8098 20.6258 66.4822 20.6835 62.146 20.3189C59.6076 20.0948 57.1211 19.5725 54.8423 18.3827C51.9653 16.8917 51.0486 13.5405 51.0871 10.5028C51.1188 7.69889 51.9528 4.70548 54.4547 3.07506C56.0947 1.9987 57.8463 1.64569 59.7076 1.30806C64.7883 0.41254 69.8787 0.614538 74.8353 1.15801V3.81284C68.9899 2.67684 62.8155 2.95964 60.7176 5.64525C59.4065 7.31606 59.2199 8.97821 59.2199 10.3778C59.2199 12.8999 60.0827 16.7263 65.2077 17.4698C68.5512 17.9604 71.8611 17.5881 75.0873 17.0004V20.0419Z" fill="white"/>
<path d="M38.4801 17.1473C38.986 17.1521 47.0419 17.1896 49.8074 17.1473V19.9281C44.237 20.1426 38.885 20.2359 33.258 20.0022C28.4831 19.805 27.6607 17.4041 27.5684 15.0975V1.30293H49.5409V3.95295H35.326V8.69124H48.2818V11.2778H35.326C35.326 12.6773 35.3722 14.2645 35.3857 14.5501C35.4617 16.3547 36.2985 17.0184 38.4801 17.1473Z" fill="white"/>
</svg>
