<?xml version="1.0" encoding="utf-8"?>
<!-- Generator: Adobe Illustrator 24.1.3, SVG Export Plug-In . SVG Version: 6.00 Build 0)  -->
<svg version="1.1" id="Layer_1" xmlns="http://www.w3.org/2000/svg" xmlns:xlink="http://www.w3.org/1999/xlink" x="0px" y="0px"
	 viewBox="0 0 500 68.2" style="enable-background:new 0 0 500 68.2;" xml:space="preserve">
<g>
	<defs>
		<rect id="SVGID_1_" width="500" height="68.2"/>
	</defs>
	<clipPath id="SVGID_2_">
		<use xlink:href="#SVGID_1_"  style="overflow:visible;"/>
	</clipPath>
	<g style="clip-path:url(#SVGID_2_);">
		<path style="fill:#FFFFFF;" d="M482.1,41.5h3.2v8.3h1.3v-8.3h3.2v-1.1h-7.7V41.5z"/>
		<path style="fill:#FFFFFF;" d="M498.2,40.4l-2.7,8l-2.7-8H491v9.5h1.2v-5.6c0-0.3,0-1.5,0-2.4l2.7,7.9h1.3l2.7-8
			c0,0.9,0,2.1,0,2.4v5.6h1.2v-9.5h-1.9V40.4z"/>
		<path style="fill:#FFFFFF;" d="M260.6,13.4l-8.3,31.9c-0.7,2.5,0.9,4.6,3.4,4.6h7.6l9.5-36.5H260.6L260.6,13.4z"/>
		<path style="fill:#FFFFFF;" d="M249.9,13.4h-44l-9.5,36.5h12.2l8.3-31.9h4.6c0.8,0,1.3,0.7,1.1,1.5l-7.9,30.4h12.2l8.3-31.9h4.6
			c0.8,0,1.3,0.7,1.1,1.5L233,49.9h12l8.3-31.9C254,15.4,252.5,13.4,249.9,13.4z"/>
		<path style="fill:#FFFFFF;" d="M304.1,27h-15.2c-0.8,0-1.3-0.7-1.1-1.5l2-7.6H310l1.2-4.6h-32.3L275.2,27
			c-0.7,2.5,0.9,4.6,3.4,4.6h15.2c0.8,0,1.3,0.7,1.1,1.5l-3.2,12.2h-21.3l-1.2,4.6h33.4l4.8-18.2C308.1,29.1,306.6,27,304.1,27z"/>
		<path style="fill:#FFFFFF;" d="M195.4,13.4h-28.9l-8.3,31.9c-0.7,2.5,0.9,4.6,3.4,4.6h28.9l8.3-31.9
			C199.5,15.4,197.9,13.4,195.4,13.4z M186.2,19.5l-6.7,25.8h-7.6c-0.8,0-1.3-0.7-1.1-1.5l6.7-25.8h7.6
			C186,17.9,186.5,18.6,186.2,19.5z"/>
		<path style="fill:#FFFFFF;" d="M354.7,13.4l-8.3,31.9h-4.6c-0.8,0-1.3-0.7-1.1-1.5l7.9-30.4h-12.1l-8.3,31.9h-4.6
			c-0.8,0-1.3-0.7-1.1-1.5l7.9-30.4h-12.2L310,45.3c-0.7,2.5,0.8,4.6,3.4,4.6h44l9.5-36.5H354.7L354.7,13.4z"/>
		<path style="fill:#FFFFFF;" d="M462.7,17.9h20.2l1.2-4.6h-32.3l-8.3,31.9c-0.7,2.5,0.9,4.6,3.4,4.6h28.9l1.2-4.6h-19.7
			c-0.8,0-1.3-0.7-1.1-1.5l3.2-12.2h18.2l1.2-4.6h-18.2L462.7,17.9z"/>
		<path style="fill:#FFFFFF;" d="M163.1,13.4h-39.8l0.9,4.6h13.2l-7.1,27.3c-0.7,2.5,0.9,4.6,3.4,4.6h7.6l8.3-31.9h12.3L163.1,13.4z
			"/>
		<path style="fill:#FFFFFF;" d="M116.3,13.4H92.7l-9.5,36.5h12.2l2.4-9.1h12.4l0.9,9.1h12.2l-3.4-33.4
			C119.7,14.6,118.3,13.4,116.3,13.4z M98.9,36.2l4.8-18.2h3.1c0.7,0,1.1,0.4,1.2,1l1.8,17.2H98.9z"/>
		<path style="fill:#FFFFFF;" d="M400.1,16.4c-0.2-1.8-1.5-3-3.5-3H373l-9.5,36.5h12.2l2.4-9.1h12.4l0.9,9.1h12.2L400.1,16.4z
			 M379.2,36.2L384,18h3.1c0.7,0,1.1,0.4,1.2,1l1.8,17.2H379.2z"/>
		<path style="fill:#FFFFFF;" d="M433.5,13.4l-8.3,31.9h-3.1c-0.7,0-1.1-0.4-1.2-1l-3.2-30.9h-12.2l3.4,33.4c0.2,1.8,1.5,3,3.5,3
			H436l9.5-36.5L433.5,13.4L433.5,13.4z"/>
		
			<linearGradient id="SVGID_3_" gradientUnits="userSpaceOnUse" x1="40.5622" y1="433.6339" x2="40.5622" y2="408.1845" gradientTransform="matrix(1 0 0 -1 -8.3622 456.2551)">
			<stop  offset="0" style="stop-color:#C8C8C8"/>
			<stop  offset="1" style="stop-color:#979797"/>
		</linearGradient>
		<path style="fill:url(#SVGID_3_);" d="M39.3,22.5L33.7,0.1h-8.4h-8.6l8.6,34.5l5.4,21.9h8.6h8.4L39.3,22.5z"/>
		
			<linearGradient id="SVGID_4_" gradientUnits="userSpaceOnUse" x1="65.7622" y1="433.6724" x2="65.7622" y2="408.2135" gradientTransform="matrix(1 0 0 -1 -8.3622 456.2551)">
			<stop  offset="0" style="stop-color:#C8C8C8"/>
			<stop  offset="1" style="stop-color:#9E9E9E"/>
		</linearGradient>
		<path style="fill:url(#SVGID_4_);" d="M63,17L60.3,6.7h-8.4h-8.6l8.6,33.4l2.5,9.8H63h8.5L63,17z"/>
		
			<linearGradient id="SVGID_5_" gradientUnits="userSpaceOnUse" x1="21.0122" y1="408.6473" x2="21.0122" y2="435.9157" gradientTransform="matrix(1 0 0 -1 -8.3622 456.2551)">
			<stop  offset="0" style="stop-color:#C8C8C8"/>
			<stop  offset="1" style="stop-color:#8A8A8A"/>
		</linearGradient>
		<path style="fill:url(#SVGID_5_);" d="M16.6,0.1L0,68.2h17.1l8.2-33.6L16.7,0.1H16.6z"/>
		
			<linearGradient id="SVGID_6_" gradientUnits="userSpaceOnUse" x1="80.3622" y1="417.3379" x2="80.3622" y2="431.939" gradientTransform="matrix(1 0 0 -1 -8.3622 456.2551)">
			<stop  offset="0" style="stop-color:#CCCCCC"/>
			<stop  offset="1" style="stop-color:#919191"/>
		</linearGradient>
		<path style="fill:url(#SVGID_6_);" d="M63,17l8.5,32.9L81,13.4H64L63,17z"/>
		
			<linearGradient id="SVGID_7_" gradientUnits="userSpaceOnUse" x1="53.9622" y1="414.6782" x2="53.9622" y2="434.63" gradientTransform="matrix(1 0 0 -1 -8.3622 456.2551)">
			<stop  offset="0" style="stop-color:#CBCBCB"/>
			<stop  offset="1" style="stop-color:#8F8F8F"/>
		</linearGradient>
		<path style="fill:url(#SVGID_7_);" d="M39.3,22.5l8.4,34l4.2-16.4L43.3,6.7L39.3,22.5z"/>
	</g>
</g>
</svg>
