<svg width="356" height="140" viewBox="0 0 356 140" fill="none" xmlns="http://www.w3.org/2000/svg">
<path d="M0 55.6621C0.59548 55.5291 1.19096 55.2826 1.78644 55.2826C11.857 55.2604 21.9303 55.2411 32.0008 55.2771C36.4545 55.2937 40.8333 55.8033 44.8715 57.9193C49.7849 60.4924 53.2304 64.3976 55.4323 69.4578C57.2907 73.7314 58.0524 78.2183 57.6923 82.8215C57.0359 91.1831 53.8923 98.2901 46.597 103.029C43.1654 105.259 39.3377 106.438 35.2552 106.538C31.001 106.643 26.7412 106.538 22.4842 106.58C21.5342 106.588 21.2296 106.303 21.2406 105.333C21.2877 100.835 21.2822 96.3347 21.2462 91.8368C21.2379 90.8508 21.5398 90.535 22.5618 90.5433C25.9491 90.5738 29.3392 90.5322 32.7265 90.4325C35.6845 90.3439 37.6648 88.6129 39.0884 86.2171C41.1629 82.7301 40.584 77.4788 37.9251 74.4543C36.2301 72.5266 34.0254 71.7317 31.5604 71.6818C27.0625 71.5932 22.5645 71.6237 18.0666 71.5628C17.1138 71.5489 16.7261 71.8009 16.7288 72.8423C16.7565 94.2658 16.7482 115.689 16.7704 137.113C16.7704 137.968 16.5405 138.268 15.668 138.262C10.8931 138.232 6.11544 138.251 1.34052 138.24C0.894605 138.24 0.451457 138.16 0.00553935 138.115C0 110.635 0 83.1483 0 55.6621Z" fill="white"/>
<path d="M270.442 79.5284C270.406 85.3558 268.794 90.5739 264.526 94.7561C264.058 95.2159 263.542 95.6285 263.049 96.0606C262.537 96.5093 262.423 96.886 263.063 97.3845C268.11 101.309 270.456 106.524 270.444 112.873C270.439 115.573 270.436 118.257 269.78 120.913C268.154 127.488 264.611 132.57 258.596 135.872C252.901 138.999 246.786 139.525 240.488 138.982C235.494 138.553 230.91 136.952 226.872 133.928C223.191 131.169 220.74 127.555 219.264 123.203C217.666 118.492 217.527 113.676 218.236 108.854C218.917 104.228 221.319 100.467 224.955 97.5119C225.831 96.8001 225.819 96.5952 224.953 95.8612C220.316 91.9393 218.073 86.8819 217.904 80.8662C217.821 77.922 217.948 74.9972 218.76 72.1306C219.698 68.8181 221.23 65.8158 223.479 63.2261C226.196 60.0909 229.523 57.7477 233.422 56.3019C238.172 54.5404 243.066 54.0087 248.107 54.7011C253.563 55.4517 258.424 57.504 262.57 61.1323C265.764 63.9269 268.068 67.3613 269.168 71.4714C269.868 74.0916 270.231 76.8003 270.746 79.4675C270.641 79.4897 270.541 79.509 270.442 79.5284ZM253.862 113.576C253.458 112.308 253.225 110.948 252.619 109.784C249.863 104.508 242.867 103.273 238.217 106.649C233.256 110.247 233.048 116.803 237.862 120.641C240.637 122.857 243.806 123.32 247.251 122.289C250.832 121.215 253.76 117.376 253.862 113.576ZM243.825 88.5465C248.132 88.4994 252.284 86.2033 253.27 81.8051C254.009 78.5009 253.272 75.6315 250.771 73.4185C247.905 70.8815 244.512 70.5021 240.85 71.4825C235.835 72.823 233.068 78.4123 235.206 83.1539C236.92 86.9595 240.164 88.3166 243.825 88.5465Z" fill="white"/>
<path d="M333.222 96.9248C332.807 101.462 332.629 106.037 331.918 110.527C330.743 117.938 328.439 124.971 323.429 130.817C320.748 133.947 317.488 136.238 313.621 137.725C308.954 139.52 304.127 139.913 299.244 139.353C289.586 138.251 282.809 133.039 278.532 124.403C275.494 118.268 273.973 111.737 273.544 104.954C273.281 100.819 273.026 96.6589 273.195 92.5266C273.453 86.2006 274.369 79.955 276.508 73.9254C278.488 68.339 281.363 63.373 286.016 59.6201C290.256 56.1995 295.147 54.3854 300.631 54.2912C301.947 54.269 303.263 54.2829 304.575 54.2884C313.751 54.3272 320.753 58.3571 325.777 65.9238C328.763 70.4218 330.422 75.4571 331.511 80.7084C332.621 86.0511 333.009 91.4519 332.918 96.8971C333.017 96.9054 333.12 96.9165 333.222 96.9248ZM316.355 93.4128C316.061 88.6435 315.513 83.9489 314.017 79.4149C312.965 76.2243 311.43 73.3133 308.586 71.2804C305.75 69.253 301.28 69.0757 298.274 70.8566C294.882 72.8674 293.275 76.1329 292.187 79.6753C291.489 81.9436 290.96 84.3006 290.694 86.6548C290.289 90.2527 290.093 93.8809 289.971 97.5009C289.904 99.4923 290.151 101.498 290.292 103.494C290.625 108.211 291.392 112.839 293.455 117.146C295.067 120.509 297.463 122.993 301.282 123.796C305.107 124.602 309.245 122.755 311.68 119.052C314.483 114.789 315.397 109.917 315.856 104.982C316.216 101.14 316.203 97.2682 316.355 93.4128Z" fill="white"/>
<path d="M173.385 138.088C175.188 133.953 176.93 129.975 178.658 125.99C180.184 122.478 181.699 118.96 183.22 115.443C184.782 111.831 186.328 108.211 187.909 104.608C188.352 103.597 188.272 103.384 187.192 103.359C183.209 103.27 179.351 102.542 175.72 100.891C170.795 98.6503 167.209 95.047 165.153 90.0089C162.827 84.3034 162.544 78.3929 164.034 72.4991C165.846 65.3228 170.211 60.0438 177.005 56.9806C181.705 54.8618 186.696 54.3688 191.82 54.7565C195.387 55.0252 198.788 55.8367 201.985 57.4126C206.593 59.6838 210.094 63.1071 212.432 67.7103C214.434 71.6515 215.24 75.8559 215.143 80.2292C215.044 84.7743 213.922 89.0894 212.027 93.2301C209.814 98.0631 207.729 102.954 205.58 107.815C203.151 113.307 200.705 118.789 198.279 124.281C196.351 128.64 194.426 133 192.545 137.379C192.285 137.985 191.983 138.254 191.338 138.254C185.627 138.243 179.916 138.251 174.205 138.243C173.972 138.246 173.748 138.16 173.385 138.088ZM188.205 87.9344C193.681 87.9317 196.434 86.0372 197.858 82.1708C198.902 79.3374 197.708 75.3075 195.243 73.4906C192.377 71.3801 189.263 71.0588 185.915 72.1916C181.544 73.6706 179.259 79.6033 181.547 83.5944C183.317 86.6743 186.095 87.8514 188.205 87.9344Z" fill="white"/>
<path d="M112.083 129.128C112.083 131.62 112.058 134.113 112.1 136.603C112.111 137.337 111.867 137.611 111.147 137.766C107.208 138.617 103.214 138.445 99.251 138.276C93.9305 138.049 88.8066 136.78 83.9292 134.59C76.235 131.133 70.3079 125.735 66.1451 118.406C61.4145 110.075 59.761 101.063 60.7027 91.6181C61.5807 82.816 64.6855 74.8255 70.5544 68.0869C74.7948 63.215 79.9187 59.584 86.0064 57.2575C92.6675 54.7121 99.5501 54.0336 106.582 54.3133C108.164 54.377 109.745 54.6651 111.307 54.9448C111.607 54.9974 112.041 55.4987 112.044 55.7951C112.088 60.883 112.075 65.9709 112.077 71.0588C112.077 71.7318 111.875 71.9367 111.127 71.7595C106.142 70.5879 101.115 70.4356 96.1434 71.7207C89.7815 73.3687 84.9207 77.0994 81.6691 82.8271C78.5061 88.3941 77.6448 94.4348 78.5837 100.68C79.3592 105.846 81.514 110.466 85.1561 114.293C87.9037 117.179 91.23 119.14 95.0328 120.34C100.406 122.037 105.81 121.813 111.23 120.694C112.113 120.511 112.075 121.01 112.075 121.544C112.088 124.073 112.083 126.599 112.083 129.128Z" fill="white"/>
<path d="M338.95 96.1657C338.95 82.5999 338.958 69.034 338.931 55.4681C338.928 54.5514 339.202 54.2633 340.108 54.2689C344.988 54.3021 349.865 54.2993 354.746 54.2716C355.671 54.2661 356 54.532 356 55.518C355.975 82.683 355.975 109.848 356 137.016C356 137.999 355.676 138.27 354.748 138.265C349.868 138.234 344.991 138.234 340.111 138.265C339.208 138.27 338.931 137.988 338.933 137.068C338.961 123.436 338.95 109.801 338.95 96.1657Z" fill="white"/>
<path d="M140.982 91.0503C146.552 91.0503 152.119 91.0475 157.689 91.0503C159.079 91.0503 159.082 91.0669 159.082 92.4323C159.079 96.5148 159.082 100.595 159.079 104.677C159.079 106.286 159.035 106.328 157.473 106.328C146.336 106.328 135.196 106.314 124.06 106.35C123.074 106.353 122.805 106.023 122.813 105.101C122.844 100.777 122.852 96.4539 122.805 92.1304C122.794 91.2081 123.165 91.0336 123.965 91.0364C129.638 91.0586 135.31 91.0503 140.982 91.0503Z" fill="white"/>
<path d="M0 21.9935C3.79282 21.7777 7.58841 21.6339 11.3425 22.3891C12.9415 22.71 14.4824 23.2439 15.708 24.4031C18.0429 26.608 18.2089 29.4187 17.6445 32.282C16.8727 36.1993 14.3248 38.2271 9.94821 38.7251C7.2592 39.0322 7.25644 39.0294 7.29517 36.3874C7.29517 36.3542 7.29517 36.3183 7.29793 36.2851C7.33666 35.4634 7.10428 34.462 7.49435 33.8699C7.8291 33.3609 8.87205 33.3166 9.59963 33.0621C10.8418 32.6306 11.5915 31.6568 11.6164 30.4561C11.6413 29.1918 11.0216 28.2872 9.65773 27.8667C8.84162 27.615 7.97018 27.5403 7.12088 27.4241C6.23008 27.3023 5.8732 27.7367 5.87874 28.6219C5.91193 32.8021 5.92023 36.9794 5.93407 41.1596C5.94237 43.7158 5.95343 46.272 5.9562 48.8282C5.9562 50.098 5.77361 50.3027 4.52317 50.2557C3.01545 50.2004 1.50772 50.0897 0 50.004C0 40.6644 0 31.3303 0 21.9935Z" fill="white"/>
<path d="M228.621 0.00292969C228.809 0.13572 228.981 0.326606 229.191 0.395768C230.862 0.940761 231.642 2.14971 231.667 3.83448C231.711 6.80567 231.761 9.77962 231.667 12.748C231.573 15.7773 229.235 17.9352 226.195 17.9794C223.984 18.0126 221.774 18.0154 219.563 18.0569C218.739 18.0735 218.371 17.7553 218.388 16.8922C218.438 14.4771 218.418 14.4771 220.905 14.4522C222.46 14.4356 224.015 14.4494 225.569 14.3996C226.856 14.3581 227.689 13.4922 227.752 12.2307C227.802 11.1988 227.489 10.8309 226.446 10.817C225.099 10.7977 223.752 10.8309 222.405 10.8309C221.201 10.8309 221.096 10.6206 221.035 8.86392C221.002 7.87629 221.4 7.47792 222.371 7.50005C223.683 7.53048 224.997 7.49728 226.311 7.50005C227.088 7.50282 227.658 7.30363 227.725 6.37686C227.83 4.91064 227.484 4.06687 226.499 4.0143C224.811 3.92578 223.11 3.92024 221.428 4.05027C220.997 4.08347 220.438 4.67825 220.244 5.14302C219.837 6.12512 219.669 7.20127 219.334 8.21656C219.032 9.1295 216.584 9.64406 215.948 8.93584C215.79 8.76156 215.696 8.41022 215.751 8.18337C216.26 6.10575 216.744 4.01707 217.389 1.97819C217.561 1.43043 218.238 1.03205 218.706 0.592187C218.944 0.368103 219.232 0.199349 219.494 0.00292969C222.535 0.00292969 225.578 0.00292969 228.621 0.00292969Z" fill="white"/>
<path d="M71.9893 0.00292969C72.2079 0.202115 72.4015 0.440031 72.6477 0.59772C73.8843 1.3917 74.3878 2.61724 74.0116 3.98664C73.6907 5.14579 72.4541 6.06425 71.2064 6.06979C69.8813 6.07532 68.7553 5.22325 68.3625 3.91471C67.989 2.67533 68.5202 1.34743 69.6655 0.59772C69.9117 0.437265 70.1109 0.204882 70.3322 0.00569615C70.8827 0.00292969 71.436 0.00292969 71.9893 0.00292969ZM71.1649 1.90349C70.7804 2.45678 70.3516 2.80536 70.3875 3.0986C70.4263 3.41121 70.9076 3.89535 71.187 3.89258C71.4803 3.88705 71.9644 3.40568 71.9921 3.0986C72.017 2.79983 71.5716 2.45678 71.1649 1.90349Z" fill="white"/>
<path d="M191.899 0.00276646C192.164 0.207485 192.413 0.439868 192.695 0.614155C193.874 1.3445 194.413 2.66134 194.026 3.91178C193.653 5.11519 192.372 6.04196 191.11 6.01706C189.816 5.99216 188.67 5.03497 188.374 3.72643C188.084 2.44279 188.706 1.20341 189.946 0.539461C190.203 0.401137 190.416 0.182587 190.651 0C191.069 0.00276646 191.484 0.00276646 191.899 0.00276646ZM192.466 3.10121C191.882 2.6724 191.509 2.18827 191.188 2.22147C190.875 2.2519 190.433 2.79136 190.394 3.14547C190.366 3.39999 190.906 3.94221 191.196 3.94498C191.545 3.94498 191.893 3.50788 192.466 3.10121Z" fill="white"/>
<path d="M90.2002 29.9863C90.1698 31.8094 89.5695 33.3891 88.4048 34.7585C87.9262 35.3201 87.8183 35.8374 88.4407 36.3602C93.1078 40.272 90.665 47.8743 84.6009 49.6503C80.1718 50.9478 74.8159 49.1192 72.7577 45.4674C71.1365 42.5903 71.5321 39.1184 73.8698 36.6673C74.5891 35.9121 74.7246 35.3616 74.0994 34.4597C71.557 30.7914 72.4284 27.3582 74.1022 25.2031C75.9723 22.7935 78.617 21.9497 81.5301 22.0023C85.6217 22.077 88.8142 24.4174 89.8627 27.9557C90.0536 28.6086 90.0923 29.3085 90.2002 29.9863ZM81.4167 44.7648C83.0793 44.7509 84.4404 43.3705 84.4155 41.7217C84.3906 40.0701 82.9134 38.6536 81.2507 38.6868C79.5825 38.72 78.2491 40.0977 78.2768 41.7576C78.3017 43.4811 79.66 44.7814 81.4167 44.7648ZM81.3337 32.4097C82.7391 32.4125 83.8982 31.2949 83.8761 29.9586C83.8539 28.5229 82.6395 27.289 81.2479 27.2862C79.8011 27.2835 78.7581 28.3762 78.7609 29.8867C78.7664 31.3446 79.8509 32.407 81.3337 32.4097Z" fill="white"/>
<path d="M112.867 36.6335C112.861 39.8177 112.482 42.9051 110.919 45.7628C109.796 47.8183 108.139 49.16 105.928 49.86C100.307 51.6388 95.3219 49.1324 93.5237 43.5137C91.991 38.7222 91.8278 33.8394 93.3189 29.0174C95.7507 21.1634 104.451 20.7955 108.648 24.0599C110.366 25.3961 111.315 27.2773 111.827 29.2885C112.435 31.6815 112.726 34.1575 113.154 36.5975C113.058 36.6086 112.961 36.6224 112.867 36.6335ZM106.944 36.4343C106.548 34.495 106.288 32.5059 105.707 30.6137C105.256 29.1502 104.354 27.7614 102.537 27.7836C100.739 27.8057 100.017 29.2332 99.5518 30.669C98.3262 34.4618 98.3539 38.2878 99.6541 42.0558C100.136 43.4473 100.913 44.8222 102.631 44.8416C104.388 44.861 105.284 43.5248 105.724 42.0724C106.266 40.2769 106.532 38.3957 106.944 36.4343Z" fill="white"/>
<path d="M114.413 36.4704C114.394 32.6167 114.723 29.6179 116.225 26.8542C118.192 23.2356 122.444 21.2936 126.5 22.0737C129.927 22.7321 132.276 24.6189 133.441 27.8971C135.457 33.5739 135.651 39.2673 133.269 44.8915C131.687 48.629 128.53 50.0869 124.718 50.1921C120.972 50.2972 118.131 48.6263 116.402 45.2346C114.875 42.2357 114.352 39.0211 114.413 36.4704ZM120.671 36.3072C120.784 38.6061 120.953 41.2038 122.56 43.417C123.819 45.1488 125.686 45.1184 126.953 43.3893C127.216 43.0297 127.49 42.6369 127.603 42.2164C128.016 40.7252 128.53 39.2341 128.693 37.7098C129.003 34.7829 128.685 31.9002 127.177 29.2804C126.585 28.2512 125.742 27.449 124.436 27.5652C123.16 27.6786 122.458 28.5749 121.927 29.6455C120.933 31.6512 120.734 33.8118 120.671 36.3072Z" fill="white"/>
<path d="M216.451 23.9356C218.698 23.9356 220.947 23.8941 223.19 23.9439C227.055 24.0352 229.691 26.1543 230.571 29.8392C231 31.6402 230.665 33.2641 229.335 34.6308C228.491 35.4967 227.697 36.4151 226.82 37.2451C226.178 37.8537 226.153 38.3212 226.632 39.1069C228.568 42.2883 230.433 45.5168 232.262 48.7646C232.787 49.6969 232.544 49.9874 231.465 49.9985C230.22 50.0123 228.969 50.0732 227.736 49.9653C227.296 49.9265 226.74 49.5475 226.496 49.1602C225.213 47.1158 224.02 45.0161 222.784 42.944C222.347 42.2109 221.912 42.3852 221.398 42.9274C219.76 44.662 218.061 46.3384 216.443 48.0868C215.422 49.1907 214.227 49.8297 212.73 49.8878C211.591 49.9321 210.451 49.9597 209.314 49.9929C208.572 50.0151 208.249 49.6471 208.265 48.9112C208.287 47.979 208.285 47.0439 208.268 46.1116C208.254 45.3397 208.583 44.9054 209.377 44.9773C211.355 45.1599 212.766 44.2691 214.072 42.8527C217.303 39.3448 220.642 35.9393 223.915 32.4674C224.507 31.8394 225.37 31.2197 224.892 30.1629C224.416 29.1089 223.409 29.048 222.407 29.0536C218.191 29.0757 213.972 29.0978 209.756 29.1117C208.404 29.1172 208.279 28.9816 208.276 27.6261C208.276 26.7961 208.301 25.9662 208.265 25.1363C208.226 24.2399 208.633 23.8969 209.505 23.9052C211.82 23.9301 214.136 23.9135 216.451 23.9135C216.451 23.9245 216.451 23.9301 216.451 23.9356Z" fill="white"/>
<path d="M35.3825 47.052C35.3438 49.9706 35.8833 49.6912 32.6133 50.1449C26.2394 51.0302 20.4519 47.1543 18.8252 40.833C17.5333 35.8063 18.117 31.012 21.2653 26.7295C24.5518 22.2589 30.2009 21.2104 34.8458 22.3281C35.164 22.4055 35.5402 22.981 35.5734 23.3544C35.6702 24.4859 35.6066 25.6312 35.6121 26.771C35.6149 27.5622 35.2359 27.6867 34.4834 27.6618C32.948 27.6093 31.3186 27.4156 29.8883 27.8334C25.7027 29.0478 23.4176 33.7564 24.5767 38.2934C25.7967 43.0683 29.2991 45.298 34.2566 44.4238C35.0976 44.2745 35.4213 44.5788 35.3908 45.3949C35.3632 45.9454 35.3825 46.4987 35.3825 47.052Z" fill="white"/>
<path d="M161.91 33.6486C161.91 35.7207 161.918 37.7928 161.907 39.8649C161.88 45.0769 157.655 49.4977 152.429 49.6222C148.114 49.7245 143.795 49.6415 139.48 49.6554C138.63 49.6581 138.309 49.2515 138.334 48.4381C138.365 47.4035 138.401 46.3633 138.34 45.3314C138.285 44.3687 138.686 44.0422 139.61 44.0478C143.616 44.0671 147.621 44.0533 151.627 44.0367C152.211 44.0339 152.811 44.0256 153.378 43.9011C155.359 43.4613 156.377 42.0614 156.386 39.7791C156.402 35.5326 156.399 31.2833 156.399 27.034C156.399 25.4626 156.469 25.388 158.023 25.3963C158.922 25.4018 159.821 25.4433 160.715 25.399C161.611 25.352 161.941 25.6923 161.924 26.6052C161.88 28.9512 161.91 31.2999 161.91 33.6486Z" fill="white"/>
<path d="M184.938 33.0014C184.938 35.3861 184.958 37.7707 184.936 40.1554C184.886 45.7465 181.021 49.6084 175.452 49.6444C172.412 49.6638 169.369 49.6278 166.328 49.6693C165.324 49.6831 164.962 49.2931 165.028 48.311C165.089 47.4174 165.081 46.5128 165.028 45.6164C164.973 44.7229 165.321 44.3605 166.22 44.3688C169.02 44.3909 171.82 44.3632 174.619 44.366C177.856 44.3688 179.309 42.9551 179.322 39.7045C179.345 34.8328 179.35 29.9582 179.331 25.0865C179.328 24.2206 179.696 23.908 180.515 23.9274C181.552 23.9523 182.59 23.9357 183.624 23.9301C184.781 23.9246 184.958 24.0989 184.955 25.2248C184.952 27.817 184.955 30.4092 184.955 33.0014C184.949 33.0014 184.944 33.0014 184.938 33.0014Z" fill="white"/>
<path d="M20.007 9.56666C22.0099 9.32044 21.7914 7.76846 22.1427 6.60101C22.3613 5.87619 22.4277 5.10435 22.6407 4.37677C22.9339 3.38084 23.122 2.47344 21.9186 1.92292C21.7858 1.86205 21.6614 1.55498 21.7029 1.41665C21.7471 1.2728 21.9878 1.15661 22.1649 1.09574C22.3198 1.04318 22.5051 1.07914 22.6794 1.07914C26.7959 1.08191 30.9096 1.08191 35.0234 1.09021C36.437 1.09298 36.603 1.32259 36.2849 2.67816C36.1023 3.45 35.9833 4.24121 35.7842 5.00752C35.6984 5.33673 35.4798 5.62998 35.1783 6.22477C34.7965 5.43356 34.5337 4.93006 34.3069 4.41273C33.7093 3.05163 32.8185 2.30192 31.1891 2.40981C28.6273 2.57857 28.4724 1.87865 27.8997 5.15968C27.7642 5.94259 27.529 6.7089 27.4156 7.49458C27.2745 8.48774 27.7144 8.84461 28.6107 8.37984C29.4545 7.93998 30.1931 7.29816 30.9954 6.76976C31.261 6.59547 31.5736 6.49312 31.8641 6.35756C31.9111 6.66464 32.0467 6.99108 31.9913 7.27879C31.6926 8.83908 31.3661 10.3966 30.9982 11.9403C30.9207 12.2584 30.6219 12.5268 30.4255 12.8173C30.1876 12.5932 29.9469 12.3746 29.7145 12.1478C29.1585 11.5972 28.6633 10.9582 28.0353 10.5073C27.4599 10.0951 26.8678 10.2859 26.6742 11.0357C26.2786 12.5738 25.9162 14.123 25.5787 15.6778C25.4099 16.4524 25.883 16.6903 26.5774 16.7761C29.3272 17.108 31.3246 15.9683 32.7881 13.7081C33.0509 13.3014 33.3884 12.9445 33.8698 12.3359C34.0026 12.8781 34.1326 13.1077 34.0938 13.2986C33.82 14.5823 33.5157 15.8576 33.2113 17.1329C33.0509 17.7997 32.6193 18.0874 31.9277 18.0874C27.5705 18.0929 23.2161 18.1206 18.8589 18.115C18.6127 18.115 18.3693 17.8633 18.123 17.7305C18.2946 17.5396 18.4357 17.2325 18.6431 17.1772C19.7221 16.8895 20.0706 16.0983 20.2477 15.1162C20.4109 14.1977 20.6156 13.2876 20.8452 12.3829C21.1081 11.3649 21.5645 10.3274 20.007 9.56666Z" fill="white"/>
<path d="M3.93911 14.4106C4.29045 14.762 4.74138 15.1935 5.16742 15.65C5.433 15.9349 5.88393 16.2946 5.84244 16.5574C5.79541 16.8534 5.32787 17.1494 4.9793 17.3237C4.20746 17.7082 3.40518 18.0319 2.60291 18.3528C1.7785 18.682 1.3663 18.3722 1.55165 17.5091C2.17134 14.6043 2.78549 11.6939 3.49371 8.81129C3.82292 7.47232 3.81462 6.38233 2.53928 5.52749C2.33456 5.39193 2.26263 4.63392 2.43692 4.42644C3.42178 3.27282 4.4924 2.1856 5.55472 1.10115C6.12738 0.517423 6.54235 0.954524 6.92966 1.38609C9.129 3.82611 11.3173 6.27444 13.5304 8.69786C13.8126 9.0077 14.2165 9.20412 14.5651 9.4531C14.7477 9.0658 15.0022 8.69786 15.1046 8.29119C15.644 6.11398 16.1337 3.92017 16.6704 1.74297C16.947 0.617016 17.2596 0.500824 18.2583 1.06795C18.9499 1.46079 19.6443 1.84809 20.3221 2.2603C20.892 2.6061 20.8865 2.99618 20.3415 3.37795C20.3138 3.39731 20.2861 3.42498 20.2557 3.43604C17.6331 4.19129 17.326 6.44319 16.8668 8.62317C16.2554 11.5307 15.6053 14.43 14.9441 17.3265C14.8666 17.6667 14.6121 17.9655 14.4406 18.2837C14.1003 18.0928 13.6826 17.9738 13.4336 17.6999C11.0655 15.0884 8.73339 12.4464 6.3736 9.82934C6.13568 9.56653 5.78434 9.40608 5.48556 9.19859C5.29468 9.53887 5.02633 9.85701 4.93227 10.2222C4.58923 11.5252 4.30428 12.842 3.93911 14.4106Z" fill="white"/>
<path d="M155.782 9.32309C155.782 11.0162 155.81 12.7092 155.777 14.3996C155.727 16.9032 154.535 18.0762 152.064 18.0872C148.816 18.1011 145.568 18.0983 142.321 18.0955C141.103 18.0928 140.899 17.8798 140.852 16.6376C140.843 16.4301 140.841 16.2227 140.838 16.0152C140.81 14.4161 141.004 14.2059 142.589 14.1976C145.043 14.1838 147.494 14.1921 149.948 14.1838C151.146 14.1782 151.514 13.8629 151.536 12.665C151.58 10.4546 151.591 8.24417 151.574 6.031C151.566 4.92441 151.154 4.58137 150.028 4.58137C147.436 4.58137 144.846 4.58967 142.254 4.57307C141.009 4.56477 140.818 4.34622 140.83 3.10684C140.849 0.810676 140.849 0.821742 143.187 0.810676C146.227 0.796844 149.264 0.769179 152.305 0.733215C154.142 0.711083 155.539 1.89513 155.614 3.72653C155.691 5.58836 155.63 7.45572 155.63 9.32032C155.683 9.32309 155.732 9.32309 155.782 9.32309Z" fill="white"/>
<path d="M173.798 7.75447C173.798 5.88711 173.817 4.01974 173.789 2.15515C173.776 1.19795 174.166 0.727652 175.148 0.788514C175.997 0.841077 177.076 0.581029 177.629 1.00706C178.083 1.35841 177.925 2.51479 178.017 3.31706C178.113 4.1885 178.7 4.32959 179.425 4.32682C181.74 4.31576 184.059 4.31852 186.374 4.31299C187.774 4.31022 187.926 4.47068 187.932 5.9618C187.94 7.74064 187.804 7.91493 186.338 7.91769C184.056 7.92323 181.773 7.91769 179.494 7.92599C178.285 7.93153 178.011 8.19987 178 9.37562C177.992 10.2388 177.986 11.1047 178.003 11.9678C178.03 13.5474 178.57 14.1035 180.13 14.1201C182.515 14.1422 184.9 14.1312 187.287 14.145C188.554 14.1533 188.717 14.3331 188.728 15.5891C188.75 18.3196 188.634 17.9793 186.371 17.9766C183.881 17.9738 181.394 17.9849 178.905 17.9793C175.781 17.9683 173.792 15.9598 173.795 12.8365C173.798 11.1434 173.795 9.44755 173.795 7.75447C173.795 7.75447 173.795 7.75447 173.798 7.75447Z" fill="white"/>
<path d="M108.559 2.50635C109.146 2.50635 109.735 2.48422 110.321 2.51189C111.234 2.55338 112.053 2.53402 112.263 1.3472C112.305 1.11205 112.745 0.81051 113.027 0.780079C113.813 0.694319 114.62 0.663888 115.401 0.76348C115.713 0.804977 116.15 1.20335 116.225 1.51319C116.427 2.34037 116.93 2.52295 117.666 2.51189C119.116 2.49252 120.568 2.53125 122.018 2.49252C122.945 2.46762 123.315 2.84939 123.332 3.77616C123.379 6.27428 123.404 6.27428 120.889 6.27151C119.783 6.26874 118.679 6.29918 117.575 6.26321C116.634 6.23278 116.261 6.68925 116.264 7.57728C116.269 8.81942 116.267 10.0643 116.253 11.3065C116.208 15.0772 113.398 17.8907 109.61 17.9598C109.403 17.9626 109.195 17.9571 108.988 17.9626C106.307 18.0594 106.598 17.78 106.719 15.0108C106.733 14.7286 107.206 14.4409 107.505 14.2057C107.616 14.1172 107.84 14.1698 108.011 14.1642C111.528 14.037 112.186 13.3454 112.167 9.80705C112.164 9.11544 112.178 8.42659 112.164 7.73497C112.142 6.60625 111.865 6.31577 110.753 6.30194C109.267 6.28258 107.782 6.29364 106.299 6.29088C105.021 6.28811 104.808 6.06679 104.811 4.76932C104.811 4.49267 104.811 4.21603 104.816 3.93938C104.835 2.71937 105.054 2.50359 106.285 2.49805C107.038 2.50359 107.798 2.50635 108.559 2.50635Z" fill="white"/>
<path d="M45.1432 18.6184C40.8607 18.5216 38.2602 17.2103 36.877 14.1727C35.4384 11.0134 36.0692 7.96751 38.2491 5.36427C40.9741 2.10814 44.5871 0.556151 48.8226 0.547852C49.3233 0.547852 50.0011 0.965588 50.2888 1.39439C50.8172 2.18837 51.1851 3.11236 51.4673 4.02806C51.5697 4.35451 51.3539 4.99633 51.0745 5.18721C49.6027 6.18591 48.9692 6.01992 47.9235 4.53156C46.3909 2.35435 46.1723 2.31009 43.8651 3.73759C42.2107 4.76118 40.952 6.11675 40.6449 8.092C40.0833 11.705 43.5054 14.1672 47.2319 12.8725C47.752 12.6926 48.2389 12.369 48.77 12.2694C49.1601 12.1974 49.6912 12.2694 49.979 12.499C50.156 12.6428 50.0896 13.2404 49.9651 13.5751C49.7134 14.2502 49.279 14.8615 49.0467 15.5421C48.2333 17.9185 46.5126 18.754 45.1432 18.6184Z" fill="white"/>
<path d="M198.347 39.5079C195.132 39.5079 191.92 39.5107 188.706 39.5079C187.422 39.5079 187.276 39.3558 187.278 38.0832C187.281 37.3584 187.281 36.6308 187.276 35.906C187.27 34.6279 187.43 34.4536 188.689 34.4536C192.731 34.4536 196.776 34.4591 200.817 34.4619C203.271 34.4619 205.725 34.4868 208.179 34.4508C209.15 34.437 209.587 34.7883 209.521 35.7898C209.465 36.6142 209.471 37.4497 209.515 38.2769C209.565 39.176 209.183 39.5162 208.298 39.5107C204.981 39.4886 201.664 39.5024 198.347 39.5024C198.347 39.5024 198.347 39.5052 198.347 39.5079Z" fill="white"/>
<path d="M172.525 7.55243C172.525 8.93289 172.569 10.3161 172.517 11.6966C172.384 15.1685 169.9 17.7828 166.422 17.9488C163.562 18.0844 160.693 18.018 157.83 18.0539C157.099 18.0622 156.737 17.7303 156.728 17.0027C156.728 16.9335 156.726 16.8643 156.723 16.7952C156.654 14.0951 156.654 14.0979 159.323 14.0979C161.257 14.0979 163.191 14.1062 165.125 14.0924C167.313 14.0758 168.37 13.066 168.414 10.8639C168.464 8.3796 168.436 5.89255 168.444 3.4055C168.45 2.00843 168.605 1.85074 169.983 1.84798C172.608 1.84798 172.528 1.5243 172.519 4.34056C172.517 5.41118 172.519 6.48181 172.519 7.55243C172.522 7.55243 172.525 7.55243 172.525 7.55243Z" fill="white"/>
<path d="M92.9371 18.076C91.8997 18.076 90.8623 18.065 89.8276 18.0816C89.0973 18.0926 88.7349 17.7524 88.7183 17.0303C88.7155 16.9611 88.7155 16.892 88.7127 16.8228C88.6159 14.0702 88.6159 14.0702 91.3685 14.084C92.406 14.0896 93.4434 14.1034 94.4781 14.0868C96.5695 14.0536 97.9887 12.8198 98.2985 10.7311C98.719 7.89544 99.1368 5.05705 99.4881 2.21313C99.6098 1.21997 100.047 0.799463 101.029 0.843726C103.508 0.957151 103.992 0.282134 103.48 3.50507C103.015 6.43752 102.697 9.39487 102.282 12.3356C101.815 15.6554 99.4134 17.8547 96.0439 18.0428C95.0092 18.1009 93.9718 18.0511 92.9344 18.0511C92.9371 18.0594 92.9371 18.0677 92.9371 18.076Z" fill="white"/>
<path d="M131.487 8.79174C131.487 6.61453 131.482 4.43732 131.49 2.26011C131.493 1.07607 131.772 0.796654 132.945 0.75239C135.637 0.647265 135.64 0.647265 135.659 3.3169C135.681 6.25489 135.689 9.19287 135.717 12.1309C135.731 13.6026 136.082 13.8931 137.557 13.6718C138.069 13.5971 138.575 13.4781 139.081 13.373C139.787 13.2264 140.138 13.5196 140.16 14.2278C140.163 14.3302 140.149 14.4353 140.149 14.5377C140.102 17.4259 140.6 17.2295 137.322 17.7468C136.434 17.8879 135.54 18.0013 134.646 18.0594C132.621 18.195 131.59 17.2433 131.567 15.221C131.542 13.0798 131.562 10.9357 131.562 8.79174C131.534 8.79174 131.512 8.79174 131.487 8.79174Z" fill="white"/>
<path d="M196.129 17.96C194.574 17.96 193.016 17.9378 191.462 17.9683C190.618 17.9849 190.25 17.6086 190.261 16.7925C190.267 16.4467 190.278 16.1009 190.258 15.7551C190.211 14.7868 190.659 14.3608 191.63 14.4023C192.424 14.4355 193.221 14.4051 194.015 14.3995C194.69 14.394 194.997 14.0371 195.072 13.3787C195.296 11.4145 194.784 10.7976 192.778 10.7976C191.907 10.7976 191.52 10.4878 191.517 9.58589C191.509 7.92325 191.672 7.55531 192.698 7.52488C193.838 7.49168 194.981 7.48061 196.12 7.52764C197.755 7.59404 198.812 8.63699 198.917 10.283C198.978 11.2126 198.967 12.1504 198.953 13.0827C198.939 13.9763 199.299 14.4134 200.24 14.43C202.01 14.4632 202.829 15.7413 202.054 17.3458C201.891 17.6833 201.236 17.9351 200.796 17.9544C199.244 18.0264 197.686 17.9821 196.131 17.9821C196.129 17.9793 196.129 17.9683 196.129 17.96Z" fill="white"/>
<path d="M67.7117 7.10984C67.7117 8.45711 67.6868 9.80438 67.7173 11.1516C67.7588 12.8115 68.4697 13.7798 70.0632 14.2999C70.741 14.5212 71.0121 14.8974 70.9679 15.5918C70.9319 16.1064 70.954 16.6265 70.9762 17.1438C71.0177 18.0484 70.5695 18.397 69.7064 18.3389C66.6854 18.1397 63.8415 15.5199 63.6865 12.4547C63.5095 8.93848 63.6035 5.40847 63.5842 1.88399C63.5842 1.74843 63.5869 1.59075 63.6506 1.48009C64.3837 0.232412 65.5899 0.998723 66.5719 0.841034C67.2525 0.733142 67.6509 1.23387 67.6564 1.93655C67.6675 3.66006 67.6592 5.38634 67.6592 7.10984C67.6785 7.11261 67.6951 7.10984 67.7117 7.10984Z" fill="white"/>
<path d="M59.5621 7.17618C59.5621 8.76413 59.6146 10.3549 59.551 11.94C59.4155 15.2266 56.7237 18.0484 53.462 18.397C52.7289 18.4744 52.3444 18.1452 52.3361 17.4066C52.3305 16.8892 52.3831 16.3691 52.3333 15.8573C52.2586 15.127 52.5297 14.6678 53.2158 14.416C54.8591 13.8129 55.5341 12.5846 55.5286 10.8805C55.5203 8.01442 55.5479 5.14836 55.5562 2.28231C55.559 1.0789 55.8246 0.807782 57.0059 0.813315C59.5648 0.827147 59.5648 0.827147 59.5787 3.34186C59.5814 3.99752 59.5842 4.65317 59.5842 5.30882C59.5842 5.93127 59.5842 6.55096 59.5842 7.17342C59.5759 7.17618 59.5676 7.17618 59.5621 7.17618Z" fill="white"/>
<path d="M128.921 7.02959C128.921 8.61754 128.959 10.2055 128.912 11.7934C128.813 15.1713 126.879 17.5643 123.941 18.0208C122.48 18.2476 122.132 17.9516 122.132 16.4964C122.132 16.0815 122.018 15.6305 122.148 15.2626C122.298 14.8366 122.572 14.3026 122.94 14.1311C124.456 13.4174 124.821 12.9803 124.815 11.301C124.81 8.3326 124.785 5.36418 124.765 2.39576C124.757 1.07616 125.009 0.799512 126.317 0.805045C128.647 0.816111 128.885 0.174291 128.818 3.30316C128.793 4.54531 128.813 5.78745 128.813 7.02959C128.852 7.02959 128.885 7.02959 128.921 7.02959Z" fill="white"/>
<path d="M170.754 30.1738C170.754 31.8337 170.726 33.4936 170.765 35.1507C170.784 35.9973 170.458 36.3514 169.609 36.3265C168.469 36.2933 167.326 36.296 166.186 36.3265C165.376 36.3486 164.986 36.0775 164.994 35.1922C165.025 31.8393 165.019 28.4863 164.991 25.1333C164.983 24.2591 165.298 23.8552 166.203 23.8884C167.274 23.9244 168.347 23.9355 169.418 23.8774C170.4 23.8248 170.804 24.1983 170.773 25.197C170.726 26.8541 170.759 28.5167 170.759 30.1738C170.757 30.1738 170.754 30.1738 170.754 30.1738Z" fill="white"/>
<path d="M144.523 29.2665C142.902 29.2665 141.281 29.2251 139.663 29.2804C138.658 29.3163 138.293 28.9152 138.346 27.9386C138.396 27.0091 138.373 26.0768 138.343 25.1473C138.318 24.3699 138.636 23.9909 139.43 23.9937C142.88 24.0047 146.327 24.0075 149.777 24.0047C150.408 24.0047 150.764 24.2841 150.77 24.9232C150.781 26.0602 150.77 27.2 150.767 28.337C150.764 29.0508 150.369 29.2831 149.699 29.2748C147.973 29.2555 146.25 29.2665 144.523 29.2665Z" fill="white"/>
<path d="M144.647 32.1243C146.304 32.1243 147.964 32.1465 149.621 32.116C150.474 32.0994 150.808 32.4591 150.781 33.2945C150.747 34.296 150.761 35.2975 150.783 36.2989C150.8 37.0735 150.487 37.4276 149.677 37.4249C146.291 37.4055 142.907 37.4083 139.521 37.4249C138.705 37.4276 138.307 37.1206 138.34 36.2574C138.379 35.256 138.373 34.2545 138.343 33.253C138.318 32.4452 138.699 32.1299 139.469 32.1354C141.195 32.1465 142.924 32.1382 144.65 32.1382C144.647 32.1326 144.647 32.1271 144.647 32.1243Z" fill="white"/>
<path d="M42.7338 34.2349C44.6676 34.2349 46.6041 34.2515 48.5378 34.2266C49.365 34.2155 49.744 34.542 49.7191 35.3913C49.614 38.8411 50.325 38.5118 46.6816 38.5035C43.5029 38.4952 40.327 38.5118 37.1483 38.5118C35.9394 38.5118 35.7595 38.3265 35.7678 37.1341C35.7872 34.2515 35.7872 34.2515 38.6948 34.246C40.042 34.2432 41.3893 34.246 42.7366 34.246C42.7338 34.2404 42.7338 34.2377 42.7338 34.2349Z" fill="white"/>
<path d="M79.5853 11.2152C77.5824 11.2152 75.5767 11.218 73.5738 11.2152C72.3842 11.2124 72.1795 11.0215 72.2016 9.82089C72.2459 7.29787 71.7147 7.21211 74.7661 7.23148C78.3266 7.25361 81.8842 7.22318 85.4447 7.21488C86.8334 7.21211 86.9939 7.36704 87.0354 8.73644C87.1101 11.2014 87.1101 11.2014 84.6645 11.2014C82.9714 11.2014 81.2784 11.2014 79.5853 11.2014C79.5853 11.2069 79.5853 11.2124 79.5853 11.2152Z" fill="white"/>
<path d="M207.463 11.2375C205.46 11.2375 203.46 11.2375 201.457 11.2375C200.195 11.2375 199.988 11.0438 199.977 9.82932C199.952 7.30907 199.952 7.29801 202.517 7.28418C206.141 7.26481 209.765 7.26204 213.389 7.25928C214.661 7.25928 214.758 7.3893 214.819 8.69507C214.957 11.6524 214.725 11.1904 212.329 11.2181C210.708 11.2375 209.084 11.2209 207.463 11.2209C207.463 11.2236 207.463 11.2319 207.463 11.2375Z" fill="white"/>
<path d="M90.2773 9.42819C88.421 9.44755 88.4044 9.45032 88.114 7.65489C87.8124 5.78199 87.5607 3.89803 87.2702 2.02236C87.154 1.27265 87.4777 0.888113 88.197 0.846616C88.8858 0.807886 89.5774 0.821718 90.269 0.824484C90.9717 0.824484 91.3646 1.20349 91.4559 1.87851C91.7519 4.03358 92.0368 6.18866 92.319 8.3465C92.4075 9.02429 92.1226 9.41159 91.4144 9.42819C91.0354 9.43649 90.6563 9.42819 90.2773 9.42819Z" fill="white"/>
<path d="M161.18 4.76939C160.076 4.76939 158.972 4.74726 157.868 4.77769C157.077 4.79982 156.731 4.43188 156.704 3.67387C156.593 0.558832 156.626 0.796748 159.326 0.829945C160.947 0.84931 162.569 0.816113 164.19 0.824412C165.341 0.829945 165.556 1.06786 165.565 2.23808C165.584 4.77769 165.584 4.77769 163.042 4.76109C162.422 4.75833 161.799 4.76109 161.18 4.76109C161.18 4.76386 161.18 4.76662 161.18 4.76939Z" fill="white"/>
<path d="M234.577 28.4282C233.359 28.4393 232.214 27.3244 232.217 26.1348C232.22 24.9203 233.329 23.8303 234.56 23.8303C235.813 23.8303 236.898 24.8871 236.911 26.1182C236.925 27.3216 235.819 28.4171 234.577 28.4282Z" fill="white"/>
<path d="M242.686 26.1018C242.702 27.3743 241.659 28.4422 240.412 28.4256C239.175 28.4118 238.154 27.4214 238.115 26.2041C238.077 24.9509 239.1 23.8748 240.367 23.8333C241.645 23.7918 242.669 24.796 242.686 26.1018Z" fill="white"/>
<path d="M60.5175 49.976C59.7841 49.976 59.0479 49.9872 58.3145 49.9732C57.6734 49.962 57.5223 49.6316 57.777 49.0718C58.8771 46.656 59.9577 44.2318 61.083 41.8272C61.6988 40.5115 61.6232 40.2987 60.2096 40.016C54.7537 38.9243 51.5737 33.7959 53.1413 28.494C54.1211 25.1684 56.3745 23.0186 59.7449 22.2655C63.3084 21.4677 66.4129 22.4643 68.7923 25.3C71.3481 28.3429 71.4292 31.7636 69.9484 35.2516C67.9581 39.9488 65.8502 44.5957 63.7395 49.2425C63.5828 49.5841 63.0229 49.8696 62.6114 49.9396C61.9312 50.0543 61.2173 49.9704 60.5175 49.9704C60.5175 49.9704 60.5175 49.9732 60.5175 49.976ZM61.8136 34.8065C63.7031 34.7785 65.5675 32.9197 65.5395 31.089C65.5087 29.219 63.6947 27.4107 61.878 27.4443C59.9297 27.4779 58.1801 29.1799 58.1857 31.033C58.1913 33.0121 59.9437 34.8345 61.8136 34.8065Z" fill="white"/>
</svg>
