<svg width="561" height="125" viewBox="0 0 561 125" fill="none" xmlns="http://www.w3.org/2000/svg">
<path fill-rule="evenodd" clip-rule="evenodd" d="M124.824 6.86803C128.361 2.75363 133.801 0.118896 139.901 0.118896C140.156 0.118896 140.409 0.12351 140.662 0.132621C140.9 0.123222 141.139 0.118896 141.38 0.118896C147.283 0.118896 152.466 2.97464 155.419 7.27979L156.494 8.74377V1.0053H172.235L172.239 0.901224L172.283 1.0053H172.361V1.18944L174.016 5.08384L175.167 1.21461V1.0053H187.662H190.016H191.48V8.37777C191.48 8.37777 190.679 8.63917 190.434 8.95307C190.137 9.33458 190.068 10.3564 190.068 10.3564L192.368 25.6309C192.368 25.6309 192.751 26.4972 193.121 26.7552C193.394 26.946 194.093 26.9908 194.093 26.9908V35.3046H177.729V29.0301L172.361 28.9832V29.0529L168.361 29.0007L168.283 35.3274H152.939L152.965 31.192C149.755 33.9413 145.2 36.1646 140.123 36.1646C133.908 36.1646 127.752 32.8021 124.592 29.2942L124.629 35.2737H112.478C112.478 35.2737 112.199 35.2843 112.059 35.2794C111.534 35.2609 111.051 35.2122 110.49 35.1479C101.899 34.1626 94.792 28.2618 93.4233 20.1753C91.378 22.1112 88.4968 23.8631 85.073 25.0945C83.7898 25.556 82.5078 25.9157 81.2506 26.1788C81.1675 26.1961 80.9477 26.2757 80.8538 26.3926C80.7579 26.5119 80.7212 26.6517 80.7291 26.8341C80.7291 26.8341 80.7709 27.307 81.2118 27.6073C81.6316 27.8932 82.6517 28.1059 82.6517 28.1059V35.2588H80.7474V35.2782L68.5736 35.2954V35.2977H36.1935V35.3045H22.2858L20.9785 35.2519C10.6393 34.4677 2.73145 27.1959 2.73145 17.5802C2.73145 7.96447 10.9007 0.169221 20.9785 0.169221C27.6349 0.169221 33.4591 3.57007 36.6464 8.64996L27.5103 18.2092L21.5949 14.1341C22.2013 13.4196 22.8145 12.4151 22.3956 11.5859C22.1075 11.0158 21.5761 10.629 20.9384 10.632C20.6486 10.6334 19.6433 10.8468 19.2835 11.1136C17.6604 12.3171 16.7738 13.3572 16.6026 16.2752C16.6523 17.7507 17.0825 19.4183 17.6445 20.7803C18.3589 22.2521 19.2263 23.0805 20.3872 23.778C21.278 24.3133 22.3773 24.5558 23.4055 24.5558C25.3566 24.5558 26.9742 23.4829 27.5503 21.8943H34.8668V27.5832L45.0334 1.00529L56.7337 0.997279L65.9613 24.8772C65.9613 24.8772 66.457 25.8401 66.8065 26.2474C66.9943 26.4662 67.4653 26.8078 67.4653 26.8078L67.5076 10.1002C67.5076 10.1002 67.3466 9.36801 67.105 9.10288C66.8155 8.78509 65.959 8.51157 65.959 8.51157L65.9549 1.00529H83.9647C91.3967 1.37499 93.3129 3.60037 95.4489 7.86193C97.9775 3.692 103.468 -0.0167776 110.333 0.168077C114.389 0.277269 118.183 0.942121 121.11 3.1269C122.504 4.11846 123.78 5.52704 124.824 6.86803ZM34.6631 29.1708L34.6643 29.0953C34.6556 29.1047 34.647 29.1141 34.6383 29.1235C34.6238 29.1393 34.6092 29.1551 34.5945 29.1708H34.6631Z" fill="#0C4DA2"/>
<path d="M20.9663 3.44067C12.6589 3.49296 5.87402 9.5442 5.87402 17.4601C5.87402 25.376 13.364 32.1756 22.4303 31.9709L31.2402 31.9957V25.0599H29.5763C29.0535 26.3676 26.6119 27.6468 24.8416 27.6468C23.9086 27.6468 21.56 27.5199 20.6912 27.2156C19.1573 26.6784 16.9687 25.9072 15.0656 22.7088C14.5557 21.5875 13.1197 18.8553 13.4405 14.8695C13.5959 12.4673 15.1218 9.46865 17.8598 8.11067C19.0538 7.51854 20.2557 7.42138 22.366 7.61288C23.881 7.75037 25.3864 8.81566 25.912 10.0942C26.3185 11.0831 26.2017 12.288 25.7232 12.9744C25.689 13.0234 25.6883 13.0667 25.6954 13.1135C25.7008 13.1491 25.7469 13.2084 25.7469 13.2084L26.5808 13.8598C26.5808 13.8598 26.8182 14.0247 27.0955 14.0174C27.2566 14.0131 27.5445 13.8384 27.5445 13.8384L32.3068 8.84061C29.3626 4.86786 24.1303 3.44067 20.9663 3.44067V3.44067Z" fill="#FFCB08"/>
<path fill-rule="evenodd" clip-rule="evenodd" d="M124.032 18.103C124.032 9.93113 131.172 3.30664 139.979 3.30664C148.786 3.30664 155.926 9.93113 155.926 18.103C155.926 26.275 148.786 32.8995 139.979 32.8995C131.172 32.8995 124.032 26.275 124.032 18.103ZM148.031 15.0181C147.046 11.151 144.617 7.90673 140.083 7.90673H140.083C135.55 7.90673 132.493 11.0894 131.875 15.6978C131.661 17.2871 131.666 19.1877 131.928 20.7697C132.823 26.178 135.712 28.189 140.032 28.2983C144.464 28.4104 147.519 24.7684 148.031 21.0312C148.199 19.8056 148.313 16.125 148.031 15.0181Z" fill="#FFCB08"/>
<path fill-rule="evenodd" clip-rule="evenodd" d="M38.9649 26.6248C40.2197 23.174 47.2226 4.22485 47.2226 4.22485L54.579 4.2443L63.3446 27.2893C63.3446 27.2893 63.868 28.6727 64.637 29.3434C65.3149 29.9347 65.9523 30.0319 65.9523 30.0319L65.9591 32.0506L55.2561 32.0563V30.0148C55.2561 30.0148 56.9469 29.9823 56.4056 28.1608C55.9907 26.7647 54.2965 22.5348 54.2965 22.5348L45.6053 22.5165L43.6484 27.5226C43.6484 27.5226 43.1597 28.9489 43.9321 29.6579C44.3303 30.0235 44.8734 30.0514 44.8734 30.0514L44.8665 32.0598L36.4029 32.062L36.2988 29.9713C36.2988 29.9713 37.71 30.0756 38.9649 26.6248ZM52.6375 18.1291L49.7358 10.051L47.0172 18.1543L52.6375 18.1291Z" fill="#FFCB08"/>
<path fill-rule="evenodd" clip-rule="evenodd" d="M69.3374 6.5181L69.3786 4.19519L84.2013 4.2478C84.8889 4.28634 85.6892 4.37435 87.4323 4.878C91.2562 5.52985 93.0412 8.41443 93.0789 11.9337C93.2786 16.9009 89.8682 19.6854 85.4731 21.4392C85.2052 21.5378 84.8411 21.6884 84.3971 21.8721C82.904 22.4896 80.508 23.4807 77.8296 24.1258C77.8338 24.9677 77.8231 25.8014 77.8122 26.6446C77.8054 27.176 77.7985 27.7112 77.7953 28.2546C77.7908 28.6567 77.9821 29.0599 78.2928 29.34C78.8432 29.8364 79.1941 29.9748 79.1941 29.9748L79.17 32.0804L69.2505 32.0564L69.302 29.9863C69.6923 29.9523 69.9329 29.7496 70.1817 29.54C70.2097 29.5164 70.2377 29.4928 70.2661 29.4693C71.0105 28.8531 70.7888 28.2398 70.7888 28.2398L70.8002 12.6794C70.8002 12.6794 71.0139 7.81835 70.6687 7.43537C70.0177 6.71303 69.3374 6.5181 69.3374 6.5181ZM84.0239 8.85371C83.0537 8.36506 81.7935 8.1199 80.7235 8.14045C79.7745 8.14674 78.8961 8.29732 77.9168 8.48203L77.9462 20.2705C79.7838 19.4247 80.6115 18.9399 82.9246 17.2863C83.7158 16.527 84.9688 15.1997 85.3831 14.5083C85.7809 13.7853 86.0185 13.0742 85.9687 12.2472C85.9687 10.488 85.233 9.65645 84.0239 8.85371Z" fill="#FFCB08"/>
<path d="M111.313 3.45911C103.005 3.51139 96.2205 9.56263 96.2205 17.4785C96.2205 25.3944 103.71 32.194 112.777 31.9893L121.587 32.0142V25.0783H119.923C119.4 26.3861 116.958 27.6652 115.188 27.6652C114.255 27.6652 111.906 27.5384 111.038 27.2341C109.504 26.6968 107.315 25.9256 105.412 22.7272C104.902 21.606 103.466 18.8737 103.787 14.888C103.942 12.4858 105.468 9.48708 108.206 8.12911C109.4 7.53697 110.602 7.43981 112.712 7.63132C114.227 7.7688 115.733 8.83409 116.258 10.1126C116.665 11.1015 116.548 12.3065 116.07 12.9928C116.035 13.0418 116.035 13.0852 116.042 13.1319C116.047 13.1675 116.093 13.2268 116.093 13.2268L116.927 13.8782C116.927 13.8782 117.165 14.0432 117.442 14.0358C117.603 14.0315 117.891 13.8568 117.891 13.8568L122.653 8.85904C119.709 4.88629 114.477 3.45911 111.313 3.45911Z" fill="#FFCB08"/>
<path d="M159.912 4.25L159.921 6.24581C159.921 6.24581 160.794 6.48074 161.14 6.75476C161.536 7.06804 161.436 7.624 161.436 7.624C161.436 7.624 158.271 27.297 158.202 27.6621C158.128 28.0549 158.023 28.9727 157.471 29.4829C156.922 29.9903 156.288 30.0925 156.288 30.0925L156.279 32.0609H165.143V30.2218C165.143 30.2218 164.422 30.166 163.941 29.6854C163.461 29.2047 163.599 27.884 163.599 27.884L165.78 13.0212L170.217 25.8127L175.621 25.887L180.011 12.112L182.46 27.9572C182.46 27.9572 182.756 29.1484 182.118 29.7597C181.628 30.2302 180.917 30.2961 180.917 30.2961V32.1352H191.186L191.177 30.1669C191.177 30.1669 190.947 30.2456 190.364 29.778C190.02 29.503 189.855 28.2768 189.781 27.884C189.713 27.5189 186.946 7.7235 186.946 7.7235C186.946 7.7235 186.898 6.90612 187.346 6.48828C187.67 6.18712 188.331 5.90154 188.331 5.90154L188.315 4.27173L177.654 4.25915L173.753 15.4963L170.033 4.25915L159.912 4.25V4.25Z" fill="#FFCB08"/>
<path fill-rule="evenodd" clip-rule="evenodd" d="M195.801 5.10579C195.801 2.28594 198.087 0 200.907 0C203.726 0 206.012 2.28594 206.012 5.10579C206.012 7.92564 203.726 10.2116 200.907 10.2116C198.087 10.2116 195.801 7.92564 195.801 5.10579ZM205.326 5.10579C205.326 2.66505 203.347 0.686434 200.906 0.686434C198.466 0.686434 196.487 2.66505 196.487 5.10579C196.487 7.54652 198.466 9.52514 200.906 9.52514C203.347 9.52514 205.326 7.54652 205.326 5.10579Z" fill="#0C4DA2"/>
<path fill-rule="evenodd" clip-rule="evenodd" d="M198.278 8.06682V2.02222H199.553V2.02679H201.716V2.05195C202.743 2.07479 203.57 2.94378 203.57 4.0123C203.57 4.84109 203.072 5.54857 202.37 5.83541L204.081 8.08397L202.649 8.09312L201.247 5.97151H199.553V8.06682H198.278ZM201.674 3.25411L199.553 3.24267V4.83474L201.674 4.80958C201.834 4.80434 202.367 4.71201 202.38 4.0191C202.391 3.37581 202.109 3.32789 201.683 3.25554L201.674 3.25411Z" fill="#0C4DA2"/>
<path fill-rule="evenodd" clip-rule="evenodd" d="M107.846 71.6533C107.846 68.4801 105.273 65.9075 102.1 65.9075H83.1724V81.117H102.1C105.273 81.117 107.846 78.5444 107.846 75.3712V71.6533ZM86.5523 69.2874H102.1C103.406 69.2874 104.466 70.3467 104.466 71.6533V75.3712C104.466 76.6778 103.406 77.7371 102.1 77.7371H86.5523V69.2874Z" fill="white"/>
<path fill-rule="evenodd" clip-rule="evenodd" d="M64.2451 58.7763C60.2324 51.7309 52.6541 46.9802 43.9661 46.9802H23.6869C10.8069 46.9802 0.365723 57.4214 0.365723 70.3014V101.058C0.365723 113.938 10.8069 124.379 23.6869 124.379H43.9661C52.6541 124.379 60.2324 119.629 64.2451 112.583V124.379H86.5523V100.044H105.818C117.018 100.044 126.097 90.9649 126.097 79.765V67.2595C126.097 56.0595 117.018 46.9802 105.818 46.9802H64.2451V58.7763ZM64.2451 82.1309H44.9801V72.3293C44.9801 70.6493 43.6181 69.2874 41.9382 69.2874H25.7148C24.0348 69.2874 22.6729 70.6493 22.6729 72.3293V99.0303C22.6729 100.71 24.0348 102.072 25.7148 102.072H41.9382C43.6181 102.072 44.9801 100.71 44.9801 99.0303V87.8767H64.2451V82.1309ZM63.9074 70.3014C63.9074 59.2881 54.9794 50.3601 43.9661 50.3601H23.6869C12.6735 50.3601 3.7456 59.2881 3.7456 70.3014V101.058C3.7456 112.072 12.6735 120.999 23.6869 120.999H43.9661C54.9794 120.999 63.9074 112.072 63.9074 101.058V91.2566H48.3599V99.0303C48.3599 102.577 45.4847 105.452 41.9382 105.452H25.7148C22.1682 105.452 19.293 102.577 19.293 99.0303V72.3293C19.293 68.7826 22.1682 65.9075 25.7148 65.9075H41.9382C45.4847 65.9075 48.3599 68.7826 48.3599 72.3293V78.751H63.9074V70.3014ZM67.625 120.999H83.1724V96.6644H105.818C115.151 96.6644 122.717 89.0983 122.717 79.765V67.2595C122.717 57.9262 115.151 50.3601 105.818 50.3601H67.625V120.999Z" fill="white"/>
<path fill-rule="evenodd" clip-rule="evenodd" d="M374.18 69.2874H357.28V124.379H334.973V69.2874H318.074V75.7092H307.622C310.94 77.0299 313.799 79.2485 315.911 82.0633L315.915 82.0688C318.324 85.2948 319.764 89.2764 319.764 93.6225V105.114C319.764 115.768 311.153 124.379 300.498 124.379H277.853C267.199 124.379 258.588 115.768 258.588 105.114V94.6365H269.247C265.938 92.9827 263.174 90.408 261.295 87.2417C259.569 84.3617 258.588 80.9935 258.588 77.3991V66.2455C258.588 65.9972 258.593 65.7499 258.602 65.5039L244.055 89.401V124.38H221.747V89.401L207.551 66.08C207.551 66.1351 207.552 66.1903 207.552 66.2455V75.7092H197.1C200.418 77.0299 203.277 79.2485 205.389 82.0633L205.393 82.0688C207.802 85.2948 209.242 89.2764 209.242 93.6225V105.114C209.242 115.768 200.631 124.379 189.976 124.379H167.331C156.677 124.379 148.066 115.768 148.066 105.114V94.6365H158.725C155.416 92.9827 152.652 90.408 150.773 87.2417C149.047 84.3617 148.066 80.9935 148.066 77.3991V66.2455C148.066 55.5912 156.677 46.9802 167.331 46.9802H188.286C191.533 46.9802 194.59 47.7798 197.271 49.1931L196.13 47.3182H220.618L232.901 67.7711L245.184 47.3182H269.672L268.363 49.4694C271.163 47.8845 274.401 46.9802 277.853 46.9802H298.808C305.857 46.9802 312.011 50.7491 315.37 56.3852V46.9802H458.767L464.084 74.7633L469.402 46.9802H498.897V124.379H476.59V105.426L472.962 124.379H455.206L451.579 105.426V124.379H374.18V69.2874ZM396.487 69.2874H429.271V101.734H396.487V96.6644H427.582V74.3572H396.487V69.2874ZM338.353 65.9075V120.999H353.9V65.9075H373.841V50.3601H318.75V65.9075H338.353ZM240.675 121V88.4532L263.658 50.6981H247.097L232.901 74.3361L218.706 50.6981H202.144L225.127 88.4532V121H240.675ZM393.107 105.114V93.2845H424.202V77.7371H393.107V65.9075H428.934V50.3601H377.56V120.999H428.934V105.114H393.107ZM186.934 74.3572V69.9634C186.934 69.5993 186.623 69.2874 186.258 69.2874H171.049C170.685 69.2874 170.373 69.5993 170.373 69.9634V73.6812C170.373 74.0453 170.685 74.3572 171.049 74.3572H186.934ZM153.677 85.5108C152.257 83.1449 151.446 80.3734 151.446 77.3991V66.2455C151.446 57.4578 158.544 50.3601 167.331 50.3601H188.286C197.074 50.3601 204.172 57.4578 204.172 66.2455V72.3293H190.314V69.9634C190.314 67.7327 188.489 65.9075 186.258 65.9075H171.049C168.818 65.9075 166.993 67.7327 166.993 69.9634V73.6812C166.993 75.9119 168.818 77.7371 171.049 77.7371H190.314C195.384 77.8385 199.846 80.3058 202.685 84.0912C204.679 86.7613 205.862 90.0398 205.862 93.6225V105.114C205.862 113.902 198.764 120.999 189.976 120.999H167.331C158.544 120.999 151.446 113.902 151.446 105.114V98.0163H166.993V101.396C166.993 103.627 168.818 105.452 171.049 105.452H186.258C188.489 105.452 190.314 103.627 190.314 101.396V97.3404C190.314 95.1096 188.489 93.2845 186.258 93.2845H166.993C161.315 93.1493 156.38 90.0736 153.677 85.5108ZM186.258 96.6644H170.373V101.396C170.373 101.76 170.685 102.072 171.049 102.072H186.258C186.623 102.072 186.934 101.76 186.934 101.396V97.3404C186.934 96.9763 186.623 96.6644 186.258 96.6644ZM297.456 69.9634V74.3572H281.571C281.207 74.3572 280.895 74.0453 280.895 73.6812V69.9634C280.895 69.5993 281.207 69.2874 281.571 69.2874H296.78C297.145 69.2874 297.456 69.5993 297.456 69.9634ZM261.968 77.3991C261.968 80.3734 262.779 83.1449 264.198 85.5108C266.902 90.0736 271.837 93.1493 277.515 93.2845H296.78C299.011 93.2845 300.836 95.1096 300.836 97.3404V101.396C300.836 103.627 299.011 105.452 296.78 105.452H281.571C279.34 105.452 277.515 103.627 277.515 101.396V98.0163H261.968V105.114C261.968 113.902 269.065 120.999 277.853 120.999H300.498C309.286 120.999 316.384 113.902 316.384 105.114V93.6225C316.384 90.0398 315.201 86.7613 313.207 84.0912C310.368 80.3058 305.906 77.8385 300.836 77.7371H281.571C279.34 77.7371 277.515 75.9119 277.515 73.6812V69.9634C277.515 67.7327 279.34 65.9075 281.571 65.9075H296.78C299.011 65.9075 300.836 67.7327 300.836 69.9634V72.3293H314.694V66.2455C314.694 57.4578 307.596 50.3601 298.808 50.3601H277.853C269.065 50.3601 261.968 57.4578 261.968 66.2455V77.3991ZM281.571 102.072C281.207 102.072 280.895 101.76 280.895 101.396V96.6644H296.78C297.145 96.6644 297.456 96.9763 297.456 97.3404V101.396C297.456 101.76 297.145 102.072 296.78 102.072H281.571ZM455.973 50.3601L464.084 92.7437L472.196 50.3601H495.517V120.999H479.97V69.786L470.168 120.999H458L448.199 69.786V120.999H432.651V50.3601H455.973Z" fill="white"/>
</svg>
