<svg width="561" height="125" viewBox="0 0 561 125" fill="none" xmlns="http://www.w3.org/2000/svg">
<path fill-rule="evenodd" clip-rule="evenodd" d="M124.459 6.86803C127.995 2.75363 133.435 0.118896 139.535 0.118896C139.79 0.118896 140.043 0.12351 140.296 0.132621C140.534 0.123222 140.773 0.118896 141.014 0.118896C146.917 0.118896 152.1 2.97464 155.053 7.27979L156.128 8.74377V1.0053H171.87L171.873 0.901224L171.918 1.0053H171.995V1.18944L173.65 5.08384L174.801 1.21461V1.0053H187.296H189.65H191.114V8.37777C191.114 8.37777 190.313 8.63917 190.069 8.95307C189.772 9.33458 189.703 10.3564 189.703 10.3564L192.003 25.6309C192.003 25.6309 192.385 26.4972 192.755 26.7552C193.029 26.946 193.727 26.9908 193.727 26.9908V35.3046H177.363V29.0301L171.995 28.9832V29.0529L167.995 29.0007L167.917 35.3274H152.573L152.599 31.192C149.389 33.9413 144.835 36.1646 139.757 36.1646C133.543 36.1646 127.386 32.8021 124.226 29.2942L124.263 35.2737H112.112C112.112 35.2737 111.833 35.2843 111.694 35.2794C111.169 35.2609 110.685 35.2122 110.124 35.1479C101.533 34.1626 94.4263 28.2618 93.0576 20.1753C91.0123 22.1112 88.1311 23.8631 84.7073 25.0945C83.4241 25.556 82.1421 25.9157 80.8849 26.1788C80.8018 26.1961 80.582 26.2757 80.488 26.3926C80.3922 26.5119 80.3555 26.6517 80.3634 26.8341C80.3634 26.8341 80.4052 27.307 80.846 27.6073C81.2658 27.8932 82.286 28.1059 82.286 28.1059V35.2588H80.3817V35.2782L68.2078 35.2954V35.2977H35.8278V35.3045H21.92L20.6128 35.2519C10.2736 34.4677 2.36572 27.1959 2.36572 17.5802C2.36572 7.96447 10.535 0.169221 20.6128 0.169221C27.2692 0.169221 33.0934 3.57007 36.2807 8.64996L27.1446 18.2092L21.2292 14.1341C21.8356 13.4196 22.4488 12.4151 22.0298 11.5859C21.7418 11.0158 21.2104 10.629 20.5727 10.632C20.2829 10.6334 19.2776 10.8468 18.9178 11.1136C17.2946 12.3171 16.4081 13.3572 16.2369 16.2752C16.2866 17.7507 16.7167 19.4183 17.2788 20.7803C17.9932 22.2521 18.8606 23.0805 20.0214 23.778C20.9122 24.3133 22.0116 24.5558 23.0397 24.5558C24.9908 24.5558 26.6085 23.4829 27.1846 21.8943H34.501V27.5832L44.6676 1.00529L56.368 0.997279L65.5956 24.8772C65.5956 24.8772 66.0913 25.8401 66.4408 26.2474C66.6286 26.4662 67.0996 26.8078 67.0996 26.8078L67.1419 10.1002C67.1419 10.1002 66.9809 9.36801 66.7393 9.10288C66.4497 8.78509 65.5933 8.51157 65.5933 8.51157L65.5892 1.00529H83.599C91.0309 1.37499 92.9472 3.60037 95.0832 7.86193C97.6118 3.692 103.103 -0.0167776 109.968 0.168077C114.023 0.277269 117.817 0.942121 120.744 3.1269C122.138 4.11846 123.415 5.52704 124.459 6.86803ZM34.2974 29.1708L34.2986 29.0953C34.2899 29.1047 34.2812 29.1141 34.2726 29.1235C34.2581 29.1393 34.2435 29.1551 34.2288 29.1708H34.2974Z" fill="#0C4DA2"/>
<path d="M20.6006 3.44067C12.2932 3.49296 5.5083 9.5442 5.5083 17.4601C5.5083 25.376 12.9982 32.1756 22.0646 31.9709L30.8745 31.9957V25.0599H29.2106C28.6878 26.3676 26.2461 27.6468 24.4758 27.6468C23.5429 27.6468 21.1943 27.5199 20.3255 27.2156C18.7916 26.6784 16.6029 25.9072 14.6999 22.7088C14.1899 21.5875 12.754 18.8553 13.0748 14.8695C13.2302 12.4673 14.7561 9.46865 17.4941 8.11067C18.688 7.51854 19.8899 7.42138 22.0003 7.61288C23.5153 7.75037 25.0207 8.81566 25.5463 10.0942C25.9528 11.0831 25.836 12.288 25.3575 12.9744C25.3233 13.0234 25.3226 13.0667 25.3297 13.1135C25.335 13.1491 25.3812 13.2084 25.3812 13.2084L26.2151 13.8598C26.2151 13.8598 26.4525 14.0247 26.7298 14.0174C26.8909 14.0131 27.1788 13.8384 27.1788 13.8384L31.9411 8.84061C28.9969 4.86786 23.7646 3.44067 20.6006 3.44067V3.44067Z" fill="#FFCB08"/>
<path fill-rule="evenodd" clip-rule="evenodd" d="M123.666 18.103C123.666 9.93113 130.806 3.30664 139.613 3.30664C148.42 3.30664 155.56 9.93113 155.56 18.103C155.56 26.275 148.42 32.8995 139.613 32.8995C130.806 32.8995 123.666 26.275 123.666 18.103ZM147.666 15.0181C146.681 11.151 144.251 7.90673 139.717 7.90673H139.717C135.184 7.90673 132.127 11.0894 131.509 15.6978C131.295 17.2871 131.3 19.1877 131.562 20.7697C132.457 26.178 135.346 28.189 139.666 28.2983C144.098 28.4104 147.153 24.7684 147.665 21.0312C147.833 19.8056 147.948 16.125 147.666 15.0181Z" fill="#FFCB08"/>
<path fill-rule="evenodd" clip-rule="evenodd" d="M38.5991 26.6248C39.854 23.174 46.8568 4.22485 46.8568 4.22485L54.2133 4.2443L62.9788 27.2893C62.9788 27.2893 63.5023 28.6727 64.2712 29.3434C64.9491 29.9347 65.5865 30.0319 65.5865 30.0319L65.5934 32.0506L54.8904 32.0563V30.0148C54.8904 30.0148 56.5812 29.9823 56.0398 28.1608C55.6249 26.7647 53.9308 22.5348 53.9308 22.5348L45.2396 22.5165L43.2827 27.5226C43.2827 27.5226 42.794 28.9489 43.5663 29.6579C43.9646 30.0235 44.5076 30.0514 44.5076 30.0514L44.5008 32.0598L36.0372 32.062L35.9331 29.9713C35.9331 29.9713 37.3443 30.0756 38.5991 26.6248ZM52.2718 18.1291L49.3701 10.051L46.6515 18.1543L52.2718 18.1291Z" fill="#FFCB08"/>
<path fill-rule="evenodd" clip-rule="evenodd" d="M68.9717 6.5181L69.0129 4.19519L83.8356 4.2478C84.5232 4.28634 85.3235 4.37435 87.0666 4.878C90.8905 5.52985 92.6755 8.41443 92.7132 11.9337C92.9129 16.9009 89.5025 19.6854 85.1074 21.4392C84.8394 21.5378 84.4753 21.6884 84.0314 21.8721C82.5383 22.4896 80.1422 23.4807 77.4639 24.1258C77.4681 24.9677 77.4574 25.8014 77.4465 26.6446C77.4397 27.176 77.4328 27.7112 77.4296 28.2546C77.425 28.6567 77.6164 29.0599 77.9271 29.34C78.4774 29.8364 78.8283 29.9748 78.8283 29.9748L78.8043 32.0804L68.8848 32.0564L68.9362 29.9863C69.3266 29.9523 69.5672 29.7496 69.816 29.54C69.8439 29.5164 69.872 29.4928 69.9004 29.4693C70.6448 28.8531 70.4231 28.2398 70.4231 28.2398L70.4345 12.6794C70.4345 12.6794 70.6482 7.81835 70.303 7.43537C69.652 6.71303 68.9717 6.5181 68.9717 6.5181ZM83.6582 8.85371C82.688 8.36506 81.4278 8.1199 80.3578 8.14045C79.4088 8.14674 78.5304 8.29732 77.5511 8.48203L77.5805 20.2705C79.4181 19.4247 80.2458 18.9399 82.5589 17.2863C83.3501 16.527 84.6031 15.1997 85.0174 14.5083C85.4152 13.7853 85.6528 13.0742 85.6029 12.2472C85.6029 10.488 84.8673 9.65645 83.6582 8.85371Z" fill="#FFCB08"/>
<path d="M110.947 3.45911C102.639 3.51139 95.8545 9.56263 95.8545 17.4785C95.8545 25.3944 103.344 32.194 112.411 31.9893L121.221 32.0142V25.0783H119.557C119.034 26.3861 116.592 27.6652 114.822 27.6652C113.889 27.6652 111.541 27.5384 110.672 27.2341C109.138 26.6968 106.949 25.9256 105.046 22.7272C104.536 21.606 103.1 18.8737 103.421 14.888C103.576 12.4858 105.102 9.48708 107.84 8.12911C109.034 7.53697 110.236 7.43981 112.346 7.63132C113.862 7.7688 115.367 8.83409 115.893 10.1126C116.299 11.1015 116.182 12.3065 115.704 12.9928C115.67 13.0418 115.669 13.0852 115.676 13.1319C115.681 13.1675 115.727 13.2268 115.727 13.2268L116.561 13.8782C116.561 13.8782 116.799 14.0432 117.076 14.0358C117.237 14.0315 117.525 13.8568 117.525 13.8568L122.287 8.85904C119.343 4.88629 114.111 3.45911 110.947 3.45911Z" fill="#FFCB08"/>
<path d="M159.546 4.25L159.555 6.24581C159.555 6.24581 160.428 6.48074 160.774 6.75476C161.171 7.06804 161.071 7.624 161.071 7.624C161.071 7.624 157.905 27.297 157.836 27.6621C157.762 28.0549 157.658 28.9727 157.105 29.4829C156.556 29.9903 155.923 30.0925 155.923 30.0925L155.914 32.0609H164.777V30.2218C164.777 30.2218 164.056 30.166 163.575 29.6854C163.095 29.2047 163.233 27.884 163.233 27.884L165.415 13.0212L169.851 25.8127L175.255 25.887L179.645 12.112L182.095 27.9572C182.095 27.9572 182.39 29.1484 181.753 29.7597C181.262 30.2302 180.552 30.2961 180.552 30.2961V32.1352H190.82L190.811 30.1669C190.811 30.1669 190.581 30.2456 189.998 29.778C189.655 29.503 189.49 28.2768 189.416 27.884C189.347 27.5189 186.58 7.7235 186.58 7.7235C186.58 7.7235 186.532 6.90612 186.981 6.48828C187.304 6.18712 187.965 5.90154 187.965 5.90154L187.949 4.27173L177.289 4.25915L173.387 15.4963L169.667 4.25915L159.546 4.25V4.25Z" fill="#FFCB08"/>
<path fill-rule="evenodd" clip-rule="evenodd" d="M195.435 5.10579C195.435 2.28594 197.721 0 200.541 0C203.361 0 205.647 2.28594 205.647 5.10579C205.647 7.92564 203.361 10.2116 200.541 10.2116C197.721 10.2116 195.435 7.92564 195.435 5.10579ZM204.96 5.10579C204.96 2.66505 202.981 0.686434 200.541 0.686434C198.1 0.686434 196.121 2.66505 196.121 5.10579C196.121 7.54652 198.1 9.52514 200.541 9.52514C202.981 9.52514 204.96 7.54652 204.96 5.10579Z" fill="#0C4DA2"/>
<path fill-rule="evenodd" clip-rule="evenodd" d="M197.912 8.06682V2.02222H199.187V2.02679H201.35V2.05195C202.378 2.07479 203.204 2.94378 203.204 4.0123C203.204 4.84109 202.707 5.54857 202.004 5.83541L203.715 8.08397L202.283 8.09312L200.881 5.97151H199.187V8.06682H197.912ZM201.309 3.25411L199.187 3.24267V4.83474L201.309 4.80958C201.468 4.80434 202.002 4.71201 202.014 4.0191C202.026 3.37581 201.743 3.32789 201.317 3.25554L201.309 3.25411Z" fill="#0C4DA2"/>
<path fill-rule="evenodd" clip-rule="evenodd" d="M107.48 71.6533C107.48 68.4801 104.907 65.9075 101.734 65.9075H82.8067V81.117H101.734C104.907 81.117 107.48 78.5444 107.48 75.3712V71.6533ZM86.1866 69.2874H101.734C103.041 69.2874 104.1 70.3467 104.1 71.6533V75.3712C104.1 76.6778 103.041 77.7371 101.734 77.7371H86.1866V69.2874Z" fill="white"/>
<path fill-rule="evenodd" clip-rule="evenodd" d="M63.8794 58.7763C59.8667 51.7309 52.2884 46.9802 43.6004 46.9802H23.3211C10.4412 46.9802 0 57.4214 0 70.3014V101.058C0 113.938 10.4412 124.379 23.3211 124.379H43.6004C52.2884 124.379 59.8667 119.629 63.8794 112.583V124.379H86.1866V100.044H105.452C116.652 100.044 125.731 90.9649 125.731 79.765V67.2595C125.731 56.0595 116.652 46.9802 105.452 46.9802H63.8794V58.7763ZM63.8794 82.1309H44.6143V72.3293C44.6143 70.6493 43.2524 69.2874 41.5725 69.2874H25.3491C23.6691 69.2874 22.3072 70.6493 22.3072 72.3293V99.0303C22.3072 100.71 23.6691 102.072 25.3491 102.072H41.5725C43.2524 102.072 44.6143 100.71 44.6143 99.0303V87.8767H63.8794V82.1309ZM63.5416 70.3014C63.5416 59.2881 54.6137 50.3601 43.6004 50.3601H23.3211C12.3078 50.3601 3.37987 59.2881 3.37987 70.3014V101.058C3.37987 112.072 12.3078 120.999 23.3211 120.999H43.6004C54.6137 120.999 63.5416 112.072 63.5416 101.058V91.2566H47.9942V99.0303C47.9942 102.577 45.119 105.452 41.5725 105.452H25.3491C21.8025 105.452 18.9273 102.577 18.9273 99.0303V72.3293C18.9273 68.7826 21.8025 65.9075 25.3491 65.9075H41.5725C45.119 65.9075 47.9942 68.7826 47.9942 72.3293V78.751H63.5416V70.3014ZM67.2593 120.999H82.8067V96.6644H105.452C114.785 96.6644 122.351 89.0983 122.351 79.765V67.2595C122.351 57.9262 114.785 50.3601 105.452 50.3601H67.2593V120.999Z" fill="white"/>
<path fill-rule="evenodd" clip-rule="evenodd" d="M373.814 69.2874H356.914V124.379H334.607V69.2874H317.708V75.7092H307.256C310.575 77.0299 313.434 79.2485 315.545 82.0633L315.549 82.0688C317.958 85.2948 319.398 89.2764 319.398 93.6225V105.114C319.398 115.768 310.787 124.379 300.133 124.379H277.487C266.833 124.379 258.222 115.768 258.222 105.114V94.6365H268.881C265.572 92.9827 262.808 90.408 260.93 87.2417C259.204 84.3617 258.222 80.9935 258.222 77.3991V66.2455C258.222 65.9972 258.227 65.7499 258.236 65.5039L243.689 89.401V124.38H221.382V89.401L207.185 66.08C207.186 66.1351 207.186 66.1903 207.186 66.2455V75.7092H196.734C200.053 77.0299 202.912 79.2485 205.023 82.0633L205.027 82.0688C207.436 85.2948 208.876 89.2764 208.876 93.6225V105.114C208.876 115.768 200.265 124.379 189.611 124.379H166.965C156.311 124.379 147.7 115.768 147.7 105.114V94.6365H158.359C155.05 92.9827 152.286 90.408 150.408 87.2417C148.682 84.3617 147.7 80.9935 147.7 77.3991V66.2455C147.7 55.5912 156.311 46.9802 166.965 46.9802H187.921C191.167 46.9802 194.224 47.7798 196.906 49.1931L195.764 47.3182H220.253L232.535 67.7711L244.818 47.3182H269.307L267.997 49.4694C270.797 47.8845 274.035 46.9802 277.487 46.9802H298.443C305.491 46.9802 311.646 50.7491 315.004 56.3852V46.9802H458.401L463.718 74.7633L469.036 46.9802H498.531V124.379H476.224V105.426L472.597 124.379H454.84L451.213 105.426V124.379H373.814V69.2874ZM396.121 69.2874H428.906V101.734H396.121V96.6644H427.216V74.3572H396.121V69.2874ZM337.987 65.9075V120.999H353.534V65.9075H373.476V50.3601H318.384V65.9075H337.987ZM240.309 121V88.4532L263.292 50.6981H246.731L232.535 74.3361L218.34 50.6981H201.779L224.762 88.4532V121H240.309ZM392.741 105.114V93.2845H423.836V77.7371H392.741V65.9075H428.568V50.3601H377.194V120.999H428.568V105.114H392.741ZM186.569 74.3572V69.9634C186.569 69.5993 186.257 69.2874 185.893 69.2874H170.683C170.319 69.2874 170.007 69.5993 170.007 69.9634V73.6812C170.007 74.0453 170.319 74.3572 170.683 74.3572H186.569ZM153.311 85.5108C151.891 83.1449 151.08 80.3734 151.08 77.3991V66.2455C151.08 57.4578 158.178 50.3601 166.965 50.3601H187.921C196.708 50.3601 203.806 57.4578 203.806 66.2455V72.3293H189.949V69.9634C189.949 67.7327 188.123 65.9075 185.893 65.9075H170.683C168.453 65.9075 166.627 67.7327 166.627 69.9634V73.6812C166.627 75.9119 168.453 77.7371 170.683 77.7371H189.949C195.018 77.8385 199.48 80.3058 202.319 84.0912C204.313 86.7613 205.496 90.0398 205.496 93.6225V105.114C205.496 113.902 198.398 120.999 189.611 120.999H166.965C158.178 120.999 151.08 113.902 151.08 105.114V98.0163H166.627V101.396C166.627 103.627 168.453 105.452 170.683 105.452H185.893C188.123 105.452 189.949 103.627 189.949 101.396V97.3404C189.949 95.1096 188.123 93.2845 185.893 93.2845H166.627C160.949 93.1493 156.015 90.0736 153.311 85.5108ZM185.893 96.6644H170.007V101.396C170.007 101.76 170.319 102.072 170.683 102.072H185.893C186.257 102.072 186.569 101.76 186.569 101.396V97.3404C186.569 96.9763 186.257 96.6644 185.893 96.6644ZM297.091 69.9634V74.3572H281.205C280.841 74.3572 280.529 74.0453 280.529 73.6812V69.9634C280.529 69.5993 280.841 69.2874 281.205 69.2874H296.415C296.779 69.2874 297.091 69.5993 297.091 69.9634ZM261.602 77.3991C261.602 80.3734 262.413 83.1449 263.833 85.5108C266.537 90.0736 271.471 93.1493 277.149 93.2845H296.415C298.645 93.2845 300.471 95.1096 300.471 97.3404V101.396C300.471 103.627 298.645 105.452 296.415 105.452H281.205C278.975 105.452 277.149 103.627 277.149 101.396V98.0163H261.602V105.114C261.602 113.902 268.7 120.999 277.487 120.999H300.133C308.92 120.999 316.018 113.902 316.018 105.114V93.6225C316.018 90.0398 314.835 86.7613 312.841 84.0912C310.002 80.3058 305.54 77.8385 300.471 77.7371H281.205C278.975 77.7371 277.149 75.9119 277.149 73.6812V69.9634C277.149 67.7327 278.975 65.9075 281.205 65.9075H296.415C298.645 65.9075 300.471 67.7327 300.471 69.9634V72.3293H314.328V66.2455C314.328 57.4578 307.23 50.3601 298.443 50.3601H277.487C268.7 50.3601 261.602 57.4578 261.602 66.2455V77.3991ZM281.205 102.072C280.841 102.072 280.529 101.76 280.529 101.396V96.6644H296.415C296.779 96.6644 297.091 96.9763 297.091 97.3404V101.396C297.091 101.76 296.779 102.072 296.415 102.072H281.205ZM455.607 50.3601L463.718 92.7437L471.83 50.3601H495.151V120.999H479.604V69.786L469.802 120.999H457.635L447.833 69.786V120.999H432.286V50.3601H455.607Z" fill="white"/>
<path d="M536.724 111.198H542.132V60.1617H536.724V111.198Z" fill="white"/>
<path fill-rule="evenodd" clip-rule="evenodd" d="M560.045 46.9802H518.811V63.5416H523.542V107.818H518.811V124.379H560.045V107.818H555.313V63.5416H560.045V46.9802ZM522.19 111.198H526.922V60.1617H522.19V50.3601H556.665V60.1617H551.933V111.198H556.665V120.999H522.19V111.198Z" fill="white"/>
</svg>
