<svg width="723" height="85" viewBox="0 0 723 85" fill="none" xmlns="http://www.w3.org/2000/svg">
<g id="gamemeta">
<g id="GAME DETAILS">
<g id="ICON DIVIDERS" opacity="0.351446">
<rect id="Rectangle" x="170" width="1" height="73" fill="white"/>
<rect id="Rectangle_2" x="361" width="1" height="73" fill="white"/>
<rect id="Rectangle_3" x="552" width="1" height="73" fill="white"/>
</g>
<g id="MD_LBL_PLAYERS INFO">
<g id="PLAYERS - ICON">
<path id="Oval" d="M258.5 8C258.5 11.5899 255.59 14.5 252 14.5C248.41 14.5 245.5 11.5899 245.5 8C245.5 4.41015 248.41 1.5 252 1.5C255.59 1.5 258.5 4.41015 258.5 8Z" stroke="white" stroke-width="3"/>
<path id="Rectangle_4" d="M245 19.5H259C262.038 19.5 264.5 21.9624 264.5 25V36.5H239.5V25C239.5 21.9624 241.962 19.5 245 19.5Z" stroke="white" stroke-width="3"/>
<path id="Oval_2" d="M287.5 8C287.5 11.5899 284.59 14.5 281 14.5C277.41 14.5 274.5 11.5899 274.5 8C274.5 4.41015 277.41 1.5 281 1.5C284.59 1.5 287.5 4.41015 287.5 8Z" stroke="white" stroke-width="3"/>
<path id="Rectangle_5" d="M274 19.5H288C291.038 19.5 293.5 21.9624 293.5 25V36.5H268.5V25C268.5 21.9624 270.962 19.5 274 19.5Z" stroke="white" stroke-width="3"/>
</g>
</g>
<g id="MD_DEVELOPER INFO">
<g id="PROCESSOR - ICON">
<g id="Group 51">
<rect id="Rectangle_6" x="420" y="13" width="8" height="3" rx="1.5" fill="white"/>
<rect id="Rectangle_7" x="420" y="18" width="8" height="3" rx="1.5" fill="white"/>
<rect id="Rectangle_8" x="420" y="23" width="8" height="3" rx="1.5" fill="white"/>
</g>
<g id="Group 52">
<rect id="Rectangle_9" x="448" y="1" width="7" height="3" rx="1.5" transform="rotate(90 448 1)" fill="white"/>
<rect id="Rectangle_10" x="443" y="1" width="7" height="3" rx="1.5" transform="rotate(90 443 1)" fill="white"/>
<rect id="Rectangle_11" x="438" y="1" width="7" height="3" rx="1.5" transform="rotate(90 438 1)" fill="white"/>
<rect id="Rectangle_12" x="463" y="1" width="7" height="3" rx="1.5" transform="rotate(90 463 1)" fill="white"/>
<rect id="Rectangle_13" x="458" y="1" width="7" height="3" rx="1.5" transform="rotate(90 458 1)" fill="white"/>
<rect id="Rectangle_14" x="453" y="1" width="7" height="3" rx="1.5" transform="rotate(90 453 1)" fill="white"/>
<rect id="Rectangle_15" x="478" y="1" width="7" height="3" rx="1.5" transform="rotate(90 478 1)" fill="white"/>
<rect id="Rectangle_16" x="468" y="1" width="7" height="3" rx="1.5" transform="rotate(90 468 1)" fill="white"/>
<rect id="Rectangle_17" x="473" y="1" width="7" height="3" rx="1.5" transform="rotate(90 473 1)" fill="white"/>
</g>
<g id="Group 52_2">
<rect id="Rectangle_18" x="448" y="31" width="7" height="3" rx="1.5" transform="rotate(90 448 31)" fill="white"/>
<rect id="Rectangle_19" x="443" y="31" width="7" height="3" rx="1.5" transform="rotate(90 443 31)" fill="white"/>
<rect id="Rectangle_20" x="438" y="31" width="7" height="3" rx="1.5" transform="rotate(90 438 31)" fill="white"/>
<rect id="Rectangle_21" x="463" y="31" width="7" height="3" rx="1.5" transform="rotate(90 463 31)" fill="white"/>
<rect id="Rectangle_22" x="458" y="31" width="7" height="3" rx="1.5" transform="rotate(90 458 31)" fill="white"/>
<rect id="Rectangle_23" x="453" y="31" width="7" height="3" rx="1.5" transform="rotate(90 453 31)" fill="white"/>
<rect id="Rectangle_24" x="478" y="31" width="7" height="3" rx="1.5" transform="rotate(90 478 31)" fill="white"/>
<rect id="Rectangle_25" x="468" y="31" width="7" height="3" rx="1.5" transform="rotate(90 468 31)" fill="white"/>
<rect id="Rectangle_26" x="473" y="31" width="7" height="3" rx="1.5" transform="rotate(90 473 31)" fill="white"/>
</g>
<g id="Group 51_2">
<rect id="Rectangle_27" x="486" y="13" width="8" height="3" rx="1.5" fill="white"/>
<rect id="Rectangle_28" x="486" y="18" width="8" height="3" rx="1.5" fill="white"/>
<rect id="Rectangle_29" x="486" y="23" width="8" height="3" rx="1.5" fill="white"/>
</g>
<path id="Rectangle (Stroke)" fill-rule="evenodd" clip-rule="evenodd" d="M428 9V30H485V9H428ZM427.556 6C426.144 6 425 7.14416 425 8.55556V30.4444C425 31.8558 426.144 33 427.556 33H485.444C486.856 33 488 31.8558 488 30.4444V8.55556C488 7.14416 486.856 6 485.444 6H427.556Z" fill="white"/>
<path id="Rectangle (Stroke)_2" fill-rule="evenodd" clip-rule="evenodd" d="M480 14H433V25H480V14ZM431 12V27H482V12H431Z" fill="white"/>
</g>
</g>
<g id="RELEASEDATE - INFO">
<g id="RELEASEDATE - ICON">
<rect id="Rectangle_30" x="632" width="10" height="3" rx="1.5" transform="rotate(90 632 0)" fill="white"/>
<rect id="Rectangle_31" x="620" y="11" width="57" height="2" fill="white"/>
<rect id="Rectangle_32" x="668" width="10" height="3" rx="1.5" transform="rotate(90 668 0)" fill="white"/>
<path id="Rectangle (Stroke)_3" fill-rule="evenodd" clip-rule="evenodd" d="M623 6V35H674V6H623ZM622.556 3C621.144 3 620 4.14416 620 5.55556V35.4444C620 36.8558 621.144 38 622.556 38H674.444C675.856 38 677 36.8558 677 35.4444V5.55556C677 4.14416 675.856 3 674.444 3H622.556Z" fill="white"/>
<path id="Oval_3" fill-rule="evenodd" clip-rule="evenodd" d="M634.5 18C635.328 18 636 17.3284 636 16.5C636 15.6716 635.328 15 634.5 15C633.672 15 633 15.6716 633 16.5C633 17.3284 633.672 18 634.5 18Z" fill="white"/>
<path id="Oval_4" fill-rule="evenodd" clip-rule="evenodd" d="M641.5 18C642.328 18 643 17.3284 643 16.5C643 15.6716 642.328 15 641.5 15C640.672 15 640 15.6716 640 16.5C640 17.3284 640.672 18 641.5 18Z" fill="white"/>
<path id="Oval_5" fill-rule="evenodd" clip-rule="evenodd" d="M648.5 18C649.328 18 650 17.3284 650 16.5C650 15.6716 649.328 15 648.5 15C647.672 15 647 15.6716 647 16.5C647 17.3284 647.672 18 648.5 18Z" fill="white"/>
<path id="Oval_6" fill-rule="evenodd" clip-rule="evenodd" d="M655.5 18C656.328 18 657 17.3284 657 16.5C657 15.6716 656.328 15 655.5 15C654.672 15 654 15.6716 654 16.5C654 17.3284 654.672 18 655.5 18Z" fill="white"/>
<path id="Oval_7" fill-rule="evenodd" clip-rule="evenodd" d="M662.5 18C663.328 18 664 17.3284 664 16.5C664 15.6716 663.328 15 662.5 15C661.672 15 661 15.6716 661 16.5C661 17.3284 661.672 18 662.5 18Z" fill="white"/>
<path id="Oval_8" fill-rule="evenodd" clip-rule="evenodd" d="M669.5 18C670.328 18 671 17.3284 671 16.5C671 15.6716 670.328 15 669.5 15C668.672 15 668 15.6716 668 16.5C668 17.3284 668.672 18 669.5 18Z" fill="white"/>
<path id="Oval_9" fill-rule="evenodd" clip-rule="evenodd" d="M627.5 23C628.328 23 629 22.3284 629 21.5C629 20.6716 628.328 20 627.5 20C626.672 20 626 20.6716 626 21.5C626 22.3284 626.672 23 627.5 23Z" fill="white"/>
<path id="Oval_10" fill-rule="evenodd" clip-rule="evenodd" d="M634.5 23C635.328 23 636 22.3284 636 21.5C636 20.6716 635.328 20 634.5 20C633.672 20 633 20.6716 633 21.5C633 22.3284 633.672 23 634.5 23Z" fill="white"/>
<path id="Oval_11" fill-rule="evenodd" clip-rule="evenodd" d="M641.5 23C642.328 23 643 22.3284 643 21.5C643 20.6716 642.328 20 641.5 20C640.672 20 640 20.6716 640 21.5C640 22.3284 640.672 23 641.5 23Z" fill="white"/>
<path id="Oval_12" fill-rule="evenodd" clip-rule="evenodd" d="M648.5 23C649.328 23 650 22.3284 650 21.5C650 20.6716 649.328 20 648.5 20C647.672 20 647 20.6716 647 21.5C647 22.3284 647.672 23 648.5 23Z" fill="white"/>
<path id="Oval_13" fill-rule="evenodd" clip-rule="evenodd" d="M655.5 23C656.328 23 657 22.3284 657 21.5C657 20.6716 656.328 20 655.5 20C654.672 20 654 20.6716 654 21.5C654 22.3284 654.672 23 655.5 23Z" fill="white"/>
<path id="Oval_14" fill-rule="evenodd" clip-rule="evenodd" d="M662.5 23C663.328 23 664 22.3284 664 21.5C664 20.6716 663.328 20 662.5 20C661.672 20 661 20.6716 661 21.5C661 22.3284 661.672 23 662.5 23Z" fill="white"/>
<path id="Oval_15" fill-rule="evenodd" clip-rule="evenodd" d="M669.5 23C670.328 23 671 22.3284 671 21.5C671 20.6716 670.328 20 669.5 20C668.672 20 668 20.6716 668 21.5C668 22.3284 668.672 23 669.5 23Z" fill="white"/>
<path id="Oval_16" fill-rule="evenodd" clip-rule="evenodd" d="M627.5 28C628.328 28 629 27.3284 629 26.5C629 25.6716 628.328 25 627.5 25C626.672 25 626 25.6716 626 26.5C626 27.3284 626.672 28 627.5 28Z" fill="white"/>
<path id="Oval_17" fill-rule="evenodd" clip-rule="evenodd" d="M634.5 28C635.328 28 636 27.3284 636 26.5C636 25.6716 635.328 25 634.5 25C633.672 25 633 25.6716 633 26.5C633 27.3284 633.672 28 634.5 28Z" fill="white"/>
<path id="Oval_18" fill-rule="evenodd" clip-rule="evenodd" d="M641.5 28C642.328 28 643 27.3284 643 26.5C643 25.6716 642.328 25 641.5 25C640.672 25 640 25.6716 640 26.5C640 27.3284 640.672 28 641.5 28Z" fill="white"/>
<path id="Oval_19" fill-rule="evenodd" clip-rule="evenodd" d="M648.5 28C649.328 28 650 27.3284 650 26.5C650 25.6716 649.328 25 648.5 25C647.672 25 647 25.6716 647 26.5C647 27.3284 647.672 28 648.5 28Z" fill="white"/>
<path id="Oval_20" fill-rule="evenodd" clip-rule="evenodd" d="M655.5 28C656.328 28 657 27.3284 657 26.5C657 25.6716 656.328 25 655.5 25C654.672 25 654 25.6716 654 26.5C654 27.3284 654.672 28 655.5 28Z" fill="white"/>
<path id="Oval_21" fill-rule="evenodd" clip-rule="evenodd" d="M662.5 28C663.328 28 664 27.3284 664 26.5C664 25.6716 663.328 25 662.5 25C661.672 25 661 25.6716 661 26.5C661 27.3284 661.672 28 662.5 28Z" fill="white"/>
<path id="Oval_22" fill-rule="evenodd" clip-rule="evenodd" d="M669.5 28C670.328 28 671 27.3284 671 26.5C671 25.6716 670.328 25 669.5 25C668.672 25 668 25.6716 668 26.5C668 27.3284 668.672 28 669.5 28Z" fill="white"/>
<path id="Oval_23" fill-rule="evenodd" clip-rule="evenodd" d="M627.5 33C628.328 33 629 32.3284 629 31.5C629 30.6716 628.328 30 627.5 30C626.672 30 626 30.6716 626 31.5C626 32.3284 626.672 33 627.5 33Z" fill="white"/>
<path id="Oval_24" fill-rule="evenodd" clip-rule="evenodd" d="M634.5 33C635.328 33 636 32.3284 636 31.5C636 30.6716 635.328 30 634.5 30C633.672 30 633 30.6716 633 31.5C633 32.3284 633.672 33 634.5 33Z" fill="white"/>
<path id="Oval_25" fill-rule="evenodd" clip-rule="evenodd" d="M641.5 33C642.328 33 643 32.3284 643 31.5C643 30.6716 642.328 30 641.5 30C640.672 30 640 30.6716 640 31.5C640 32.3284 640.672 33 641.5 33Z" fill="white"/>
<path id="Oval_26" fill-rule="evenodd" clip-rule="evenodd" d="M648.5 33C649.328 33 650 32.3284 650 31.5C650 30.6716 649.328 30 648.5 30C647.672 30 647 30.6716 647 31.5C647 32.3284 647.672 33 648.5 33Z" fill="white"/>
<path id="Oval_27" fill-rule="evenodd" clip-rule="evenodd" d="M655.5 33C656.328 33 657 32.3284 657 31.5C657 30.6716 656.328 30 655.5 30C654.672 30 654 30.6716 654 31.5C654 32.3284 654.672 33 655.5 33Z" fill="white"/>
<path id="Oval_28" fill-rule="evenodd" clip-rule="evenodd" d="M662.5 33C663.328 33 664 32.3284 664 31.5C664 30.6716 663.328 30 662.5 30C661.672 30 661 30.6716 661 31.5C661 32.3284 661.672 33 662.5 33Z" fill="white"/>
</g>
</g>
</g>
<g id="Group 312">
<path id="Rectangle 289 (Stroke)" fill-rule="evenodd" clip-rule="evenodd" d="M90.2539 42.0554L90.2567 42.0554L90.2686 42.0551L90.3192 42.054C90.3646 42.0529 90.4328 42.0513 90.5217 42.0489C90.6996 42.044 90.9603 42.0362 91.2868 42.0243C91.9403 42.0004 92.8547 41.9603 93.8954 41.8953C96.0016 41.7639 98.5319 41.5363 100.464 41.1585C102.261 40.8074 104.347 40.2379 106.114 39.7111C107.411 39.3244 108.32 38.1 108.32 36.653V7.36668C108.32 5.37382 106.705 3.75829 104.712 3.75829H46.9828C45.2006 3.75829 43.7909 4.75251 43.3347 6.1748C42.3414 9.27173 41.1904 14.126 41.1904 19.9734C41.1904 25.1752 41.425 30.3741 41.6666 34.3459C41.8385 37.1729 44.203 39.3714 47.108 39.3714H59.3932L59.4462 39.374L59.3402 41.5047H47.108C43.1117 41.5047 39.7799 38.4643 39.5372 34.4754C39.2941 30.479 39.0571 25.2336 39.0571 19.9734C39.0571 13.8518 40.2609 8.77345 41.3034 5.52324C42.0856 3.08456 44.4218 1.625 46.9828 1.625H104.712C107.883 1.625 110.454 4.19564 110.454 7.36668V36.653C110.454 38.9961 108.969 41.0859 106.724 41.7554C104.933 42.2893 102.77 42.8815 100.874 43.2522C96.7235 44.0635 90.2954 44.1883 90.2954 44.1883L89.1261 44.6894C89.0328 44.7294 88.9337 44.75 88.8323 44.75H83.7469C81.0135 44.75 78.3007 44.316 75.6338 43.7171C67.6144 41.9161 59.3402 41.5047 59.3402 41.5047C59.4462 39.374 59.4459 39.374 59.4462 39.374L59.4473 39.3741L59.455 39.3745L59.4759 39.3756L59.5527 39.3797C59.6192 39.3834 59.7162 39.3889 59.8414 39.3966C60.0918 39.4119 60.4556 39.4356 60.9159 39.4697C61.8362 39.5378 63.1444 39.6475 64.7063 39.8143C67.8223 40.1471 71.9833 40.7108 76.1012 41.6356C78.6898 42.217 81.2325 42.6167 83.7469 42.6167H88.5469L89.8377 42.0635" fill="white"/>
<path id="Rectangle 290 (Stroke)" fill-rule="evenodd" clip-rule="evenodd" d="M60.015 21.1554C59.6873 28.6678 60.4854 34.4267 60.9132 36.8718C60.9582 37.129 61.1909 37.3331 61.5031 37.3212L64.6335 37.2014C64.6343 37.2013 64.635 37.2013 64.6353 37.2012C64.6357 37.201 64.6363 37.2005 64.6369 37.1997C64.6376 37.1989 64.638 37.1982 64.6382 37.1979C64.6382 37.1975 64.6382 37.1969 64.6381 37.196C64.5108 36.0142 65.4339 34.9818 66.6225 34.9765L75.7042 34.9363C76.9508 34.9308 77.9219 36.0162 77.7782 37.2545C77.7725 37.3036 77.8128 37.3456 77.8621 37.342L95.0887 36.063C95.3769 36.0416 95.5572 35.8461 95.5826 35.6249C95.785 33.8608 96.1059 29.8986 96.1059 22.5161C96.1059 15.452 95.6149 11.6435 95.2833 9.87876C95.2106 9.49179 94.8877 9.1756 94.3911 9.11547C91.2686 8.7373 83.7155 7.85851 78.4686 7.54105C73.0577 7.21366 65.1951 7.1865 62.2687 7.18885C62.0035 7.18906 61.8198 7.3473 61.767 7.54854C61.2797 9.40604 60.3344 13.8335 60.015 21.1554ZM62.2679 6.18885C61.5773 6.1894 60.975 6.62683 60.7997 7.29478C60.2939 9.22309 59.3383 13.7211 59.0159 21.1119C58.6843 28.7141 59.4914 34.5475 59.9282 37.0441C60.0638 37.8192 60.7551 38.3505 61.5414 38.3204L64.6717 38.2006C65.2535 38.1784 65.6947 37.6678 65.6323 37.0889C65.5686 36.4966 66.0312 35.9791 66.627 35.9765L75.7087 35.9363C76.3555 35.9335 76.8594 36.4967 76.7848 37.1393C76.7068 37.812 77.2607 38.3894 77.9361 38.3392L95.1627 37.0602C95.8963 37.0058 96.4922 36.4697 96.5761 35.7389C96.7839 33.9275 97.1059 29.9257 97.1059 22.5161C97.1059 15.4089 96.6122 11.5358 96.2661 9.69409C96.1033 8.82733 95.3869 8.22876 94.5113 8.12272C91.3911 7.74483 83.81 6.86239 78.529 6.54287C73.0833 6.21338 65.1917 6.18651 62.2679 6.18885Z" fill="white"/>
<path id="Rectangle 291" d="M66.2017 37.3663C66.2017 36.8493 66.6208 36.4302 67.1378 36.4302H69.5367C70.0538 36.4302 70.4729 36.8493 70.4729 37.3663V37.3663C70.4729 37.8834 70.0538 38.3025 69.5367 38.3025H67.1378C66.6208 38.3025 66.2017 37.8834 66.2017 37.3663V37.3663Z" fill="white"/>
<path id="Rectangle 292" d="M71.9351 37.3663C71.9351 36.8493 72.3542 36.4302 72.8712 36.4302H75.2701C75.7872 36.4302 76.2063 36.8493 76.2063 37.3663V37.3663C76.2063 37.8834 75.7872 38.3025 75.2701 38.3025H72.8712C72.3542 38.3025 71.9351 37.8834 71.9351 37.3663V37.3663Z" fill="white"/>
<path id="Polygon 30" d="M51.8781 11.0536C51.6068 11.3126 51.1798 11.3126 50.9085 11.0536L49.2218 9.44354C48.8514 9.08999 48.8573 8.48609 49.1076 8.06536C49.3719 7.621 50.0259 7.14993 50.521 7.0009C50.7344 6.93666 51.0176 6.89404 51.3933 6.89404C51.7691 6.89404 52.0522 6.93666 52.2657 7.0009C52.7607 7.14993 53.4147 7.621 53.6791 8.06536C53.9293 8.48609 53.9352 9.08999 53.5648 9.44354L51.8781 11.0536Z" fill="white"/>
<path id="Polygon 31" d="M50.9075 13.9633C51.1788 13.7043 51.6058 13.7043 51.8771 13.9633L53.5638 15.5733C53.9342 15.9269 53.9283 16.5308 53.6781 16.9515C53.4137 17.3958 52.7597 17.8669 52.2647 18.0159C52.0512 18.0802 51.7681 18.1228 51.3923 18.1228C51.0166 18.1228 50.7334 18.0802 50.52 18.0159C50.0249 17.8669 49.3709 17.3958 49.1066 16.9515C48.8563 16.5308 48.8504 15.9269 49.2208 15.5733L50.9075 13.9633Z" fill="white"/>
<path id="Polygon 32" d="M49.9379 12.0235C50.1968 12.2948 50.1968 12.7218 49.9379 12.9931L48.3278 14.6798C47.9743 15.0502 47.3704 15.0443 46.9496 14.794C46.5053 14.5297 46.0342 13.8757 45.8852 13.3806C45.8209 13.1672 45.7783 12.884 45.7783 12.5083C45.7783 12.1325 45.8209 11.8494 45.8852 11.636C46.0342 11.1409 46.5053 10.4869 46.9496 10.2226C47.3704 9.97229 47.9743 9.9664 48.3278 10.3368L49.9379 12.0235Z" fill="white"/>
<path id="Polygon 33" d="M52.8468 12.9931C52.5878 12.7218 52.5878 12.2948 52.8468 12.0235L54.4569 10.3368C54.8104 9.96642 55.4143 9.97231 55.835 10.2226C56.2794 10.4869 56.7505 11.1409 56.8995 11.636C56.9637 11.8494 57.0063 12.1326 57.0063 12.5083C57.0063 12.8841 56.9637 13.1672 56.8995 13.3806C56.7505 13.8757 56.2794 14.5297 55.835 14.794C55.4143 15.0443 54.8104 15.0502 54.4569 14.6798L52.8468 12.9931Z" fill="white"/>
<path id="Polygon 30_2" d="M51.8796 28.8431C51.6083 29.1021 51.1813 29.1021 50.91 28.8431L49.2233 27.2331C48.8529 26.8795 48.8588 26.2756 49.1091 25.8549C49.3734 25.4106 50.0274 24.9395 50.5225 24.7905C50.7359 24.7262 51.019 24.6836 51.3948 24.6836C51.7705 24.6836 52.0537 24.7262 52.2671 24.7905C52.7622 24.9395 53.4162 25.4106 53.6805 25.8549C53.9308 26.2756 53.9367 26.8795 53.5663 27.2331L51.8796 28.8431Z" fill="white"/>
<path id="Polygon 31_2" d="M50.9075 31.7528C51.1788 31.4938 51.6058 31.4938 51.8771 31.7528L53.5638 33.3629C53.9342 33.7164 53.9283 34.3203 53.6781 34.741C53.4137 35.1854 52.7597 35.6565 52.2647 35.8055C52.0512 35.8697 51.7681 35.9124 51.3923 35.9124C51.0166 35.9124 50.7334 35.8697 50.52 35.8055C50.0249 35.6565 49.3709 35.1854 49.1066 34.741C48.8563 34.3203 48.8504 33.7164 49.2208 33.3629L50.9075 31.7528Z" fill="white"/>
<path id="Polygon 32_2" d="M49.9379 29.8133C50.1968 30.0846 50.1968 30.5116 49.9379 30.7829L48.3278 32.4696C47.9743 32.84 47.3704 32.8341 46.9496 32.5838C46.5053 32.3195 46.0342 31.6655 45.8852 31.1704C45.8209 30.957 45.7783 30.6738 45.7783 30.2981C45.7783 29.9223 45.8209 29.6392 45.8852 29.4258C46.0342 28.9307 46.5053 28.2767 46.9496 28.0124C47.3704 27.7621 47.9743 27.7562 48.3278 28.1266L49.9379 29.8133Z" fill="white"/>
<path id="Polygon 33_2" d="M52.8468 30.7829C52.5878 30.5116 52.5878 30.0846 52.8468 29.8133L54.4569 28.1266C54.8104 27.7562 55.4143 27.7621 55.835 28.0124C56.2794 28.2767 56.7505 28.9307 56.8995 29.4258C56.9637 29.6392 57.0063 29.9224 57.0063 30.2981C57.0063 30.6739 56.9637 30.957 56.8995 31.1704C56.7505 31.6655 56.2794 32.3195 55.835 32.5838C55.4143 32.8341 54.8104 32.84 54.4569 32.4696L52.8468 30.7829Z" fill="white"/>
<path id="Polygon 31_3" d="M100.116 32.6278C100.387 32.3688 100.814 32.3688 101.085 32.6278L102.772 34.2379C103.142 34.5914 103.136 35.1953 102.886 35.616C102.622 36.0604 101.968 36.5315 101.473 36.6805C101.259 36.7447 100.976 36.7874 100.6 36.7874C100.225 36.7874 99.9414 36.7447 99.728 36.6805C99.2329 36.5315 98.5789 36.0604 98.3146 35.616C98.0643 35.1953 98.0584 34.5914 98.4288 34.2379L100.116 32.6278Z" fill="white"/>
<path id="Polygon 33_3" d="M102.055 31.6579C101.796 31.3866 101.796 30.9596 102.055 30.6883L103.665 29.0016C104.018 28.6312 104.622 28.6371 105.043 28.8874C105.487 29.1517 105.958 29.8057 106.107 30.3008C106.172 30.5142 106.214 30.7974 106.214 31.1731C106.214 31.5489 106.172 31.832 106.107 32.0454C105.958 32.5405 105.487 33.1945 105.043 33.4588C104.622 33.7091 104.018 33.715 103.665 33.3446L102.055 31.6579Z" fill="white"/>
<path id="Rectangle 293 (Stroke)" fill-rule="evenodd" clip-rule="evenodd" d="M91.6548 13.2478H64.5859V30.4337H91.6548V13.2478ZM62.5859 11.2478V32.4337H93.6548V11.2478H62.5859Z" fill="white"/>
<path id="Rectangle 294" d="M102.547 8.97114C102.547 8.76109 102.718 8.59082 102.928 8.59082H108.194C108.404 8.59082 108.574 8.76109 108.574 8.97114V8.97114C108.574 9.18118 108.404 9.35145 108.194 9.35145H102.928C102.718 9.35145 102.547 9.18118 102.547 8.97114V8.97114Z" fill="white"/>
<path id="Rectangle 295" d="M102.547 10.2875C102.547 10.0775 102.718 9.90723 102.928 9.90723H108.194C108.404 9.90723 108.574 10.0775 108.574 10.2875V10.2875C108.574 10.4976 108.404 10.6679 108.194 10.6679H102.928C102.718 10.6679 102.547 10.4976 102.547 10.2875V10.2875Z" fill="white"/>
<path id="Rectangle 296" d="M102.547 14.237C102.547 14.027 102.718 13.8567 102.928 13.8567H108.194C108.404 13.8567 108.574 14.027 108.574 14.237V14.237C108.574 14.447 108.404 14.6173 108.194 14.6173H102.928C102.718 14.6173 102.547 14.447 102.547 14.237V14.237Z" fill="white"/>
<path id="Rectangle 297" d="M102.547 12.9206C102.547 12.7106 102.718 12.5403 102.928 12.5403H108.194C108.404 12.5403 108.574 12.7106 108.574 12.9206V12.9206C108.574 13.1306 108.404 13.3009 108.194 13.3009H102.928C102.718 13.3009 102.547 13.1306 102.547 12.9206V12.9206Z" fill="white"/>
<path id="Rectangle 298" d="M102.547 11.6042C102.547 11.3941 102.718 11.2239 102.928 11.2239H108.194C108.404 11.2239 108.574 11.3941 108.574 11.6042V11.6042C108.574 11.8142 108.404 11.9845 108.194 11.9845H102.928C102.718 11.9845 102.547 11.8142 102.547 11.6042V11.6042Z" fill="white"/>
</g>
</g>
</svg>
