<?xml version="1.0" encoding="UTF-8"?>
<svg width="460px" height="128px" viewBox="0 0 460 128" version="1.1" xmlns="http://www.w3.org/2000/svg" xmlns:xlink="http://www.w3.org/1999/xlink">
    <title>mainlogo</title>
    <g id="Page-1" stroke="none" stroke-width="1" fill="none" fill-rule="evenodd">
        <g id="mainlogo" fill-rule="nonzero">
            <path d="M139.342404,0.022174413 L139.34,0.026 C139.3818,0.034345815 139.48723,0.0979795051 139.48723,0.612806863 L139.473476,66.790341 L139.487431,66.8549647 L139.507458,66.8194681 L139.507458,66.8194681 L205.056332,1.2714025 L205.056332,1.2714025 C205.8193,0.387071995 206.481132,0.55697996 206.481132,0.55697996 L206.545707,0.582020734 C206.674527,0.640818458 206.953638,0.822360019 206.953638,1.29162964 L206.94,75.029 L280.545632,1.49956462 L280.545632,1.49956462 C281.186768,0.751458575 281.769956,0.768742974 281.938136,0.792852048 L281.987423,0.803751052 C281.987423,0.803751052 282.442938,0.912168515 282.442938,1.52060085 L282.442938,41.7054527 L282.45979,41.8336705 L282.569964,41.6221169 L282.569964,41.6221169 L322.98136,1.11120356 L322.98136,1.11120356 C323.828473,0.275418189 324.095471,0.577207099 324.095471,0.577207099 L324.09628,0.575588927 L324.123644,0.61135739 C324.181943,0.705641938 324.313115,1.02175466 324.313115,1.95750704 L324.313,64.196 L386.836819,1.55053701 L389.135,4.566 L386.839246,1.54891884 L458.566298,1.54891884 C459.20143,1.54891884 459.20143,1.80216262 459.20143,1.80216262 L459.203857,1.8029717 L459.229586,1.87821019 C459.290511,2.06848122 459.395287,2.57969383 459.031522,2.9454005 L436.72827,25.3287522 L399.230391,25.3287522 L388.974423,35.67372 L388.916,35.723 L407.157002,35.7238833 C407.36696,35.6977903 407.462685,35.7772829 407.497425,35.8186601 L407.513809,35.8428189 C407.513809,35.8428189 407.84877,36.08069 407.532418,36.7765036 L383.770384,60.5369188 L363.802962,60.5369188 L352.921,71.44 L415.823117,71.4417739 C416.174584,71.4411266 416.306497,71.6600328 416.345204,71.7476211 L416.357923,71.7807807 L416.384511,71.8184713 C416.449726,71.9249749 416.583708,72.2553094 416.170215,72.786474 L392.829715,95.9675841 L392.830524,95.9692022 L300.15382,95.9457387 L300.156,95.941 L293.689227,95.9416838 C293.48291,95.9501792 293.348956,95.8225965 293.294873,95.7582742 L293.258748,95.7100574 C293.237149,95.6721112 293.202304,95.5430253 293.472392,95.2709519 L299.338262,89.38 L299.338,63.23 L265.257961,97.2807299 C264.830475,97.7037083 264.486006,97.6195097 264.438978,97.6053233 L264.436739,97.6100277 L264.345265,97.5791281 C264.20185,97.5213894 263.937754,97.3723037 263.912451,97.0469042 L263.847,57.615 L224.759993,96.6747248 L222.97,93.736 L224.755947,96.6739157 L183.066196,96.6504523 C182.796771,96.6544977 182.410837,96.3794086 182.410837,96.3794086 L185.592,93.509 L185.588,93.509 L182.410837,96.3761836 L182.356314,96.3346637 C182.210029,96.2101043 181.819749,95.7941869 181.817777,94.9376182 L181.744,63.778 L117.736584,127.652992 L117.736584,127.652992 L79.271,127.651 C79.2645659,127.655386 78.7985326,127.707201 79.0736217,127.325313 L114.615941,91.928629 L115.828,92.468 L114.615941,91.9262017 L114.552023,63.5879804 L114.551,63.585 L114.550405,63.593644 L80.6634748,97.5250737 L80.6634748,97.5250737 C80.4709101,97.7360045 80.0831016,97.7647078 79.8597688,97.7620761 L79.6917631,97.754854 C79.6917631,97.754854 79.0177948,97.6990271 79.0372129,96.8252147 L78.9741042,57.1508958 L78.9741042,57.1508958 L40.2269973,95.9934748 L40.225,95.991 L2.24525207,95.9922653 C2.12567695,95.9863247 1.86934957,95.9394972 2.08104103,95.6318136 L97.1259385,0.587725211 L97.1259385,0.587725211 C97.2301644,0.498739847 97.3472359,0.509531849 97.4230593,0.531699624 L97.5284682,0.572164877 C97.5912274,0.600541126 97.7481252,0.703586261 97.7481252,1.02463141 L97.7489343,41.3939548 L138.904689,0.235772998 L138.904689,0.235772998 C139.172496,-0.101615676 139.342404,0.022174413 139.342404,0.022174413 Z" id="Path" fill="#1DABE6"></path>
            <g id="Group-18" transform="translate(0.000000, 107.101890)" fill="#FFFFFF">
                <polygon id="path5545" points="8.65973959e-14 7.83275718 8.65973959e-14 0.129453688 2.32693003 0.129453688 3.72502986 5.38365523 5.10694798 0.129453688 7.43954161 0.129453688 7.43954161 7.83275718 5.99532391 7.83275718 5.99532391 1.76785192 4.46615222 7.83275718 2.96853487 7.83275718 1.44502679 1.76785192 1.44502679 7.83275718"></polygon>
                <path d="M13.9356895,0.127835516 L15.4907519,0.127835516 L15.4907519,4.29867151 C15.4907519,4.95888532 15.5101699,5.390937 15.548197,5.58673571 C15.6153511,5.90308815 15.7731227,6.15390467 16.0239393,6.34565795 C16.2747558,6.53741122 16.6161899,6.63207423 17.0514779,6.63207423 C17.4924295,6.63207423 17.8257728,6.54307482 18.0498895,6.36183966 C18.2740062,6.18141358 18.4083144,5.96053323 18.4544323,5.69758043 C18.499741,5.43543671 18.5223954,4.9993396 18.5223954,4.39009818 L18.5223954,0.127835516 L20.0774579,0.127835516 L20.0774579,4.17407234 C20.0774579,5.09966621 20.0353854,5.75178916 19.9520496,6.13448662 C19.8679047,6.516375 19.7125603,6.83839105 19.4868254,7.09972568 C19.2610905,7.3618694 18.9593016,7.57061347 18.5806496,7.72514881 C18.2019976,7.88049323 17.7084554,7.95897453 17.0984049,7.95897453 C16.3629461,7.95897453 15.8046771,7.87482963 15.425216,7.70573075 C15.0449458,7.5350137 14.744775,7.31575152 14.5238947,7.04389878 C14.3030143,6.77285512 14.158188,6.48724792 14.0877976,6.18869535 C13.9866619,5.74774373 13.9356895,5.09400261 13.9356895,4.23394467 L13.9356895,0.127835516 L13.9356895,0.127835516 Z" id="path5547"></path>
                <polygon id="path5549" points="26.7200502 7.83275718 26.7200502 0.19256236 28.2751126 0.19256236 28.2751126 6.53579305 32.1425415 6.53579305 32.1425415 7.83356627 26.7200502 7.83356627"></polygon>
                <polygon id="path5551" points="39.1476042 7.83275718 39.1476042 1.4328905 36.8619375 1.4328905 36.8619375 0.130262773 42.9834788 0.130262773 42.9834788 1.4328905 40.7026666 1.4328905 40.7026666 7.83275718"></polygon>
                <polygon id="path5553" points="48.8995123 7.83275718 48.8995123 0.129453688 50.4545747 0.129453688 50.4545747 7.83275718"></polygon>
                <path d="M56.898132,7.83275718 L56.898132,0.129453688 L59.394161,0.129453688 C60.339982,0.129453688 60.9565051,0.168289794 61.2437305,0.245962006 C61.6846821,0.364088496 62.0544342,0.612477759 62.3521777,1.00245699 C62.6499212,1.39000897 62.7987929,1.89083292 62.7987929,2.5025016 C62.7987929,2.97500756 62.7130299,3.37226856 62.5415037,3.69752095 C62.3699776,4.01791883 62.1515245,4.27278078 61.8869535,4.4564432 C61.6223825,4.64172379 61.3537661,4.76227753 61.0802952,4.82214986 C60.708925,4.89496756 60.1708831,4.9321855 59.4669787,4.9321855 L58.4531945,4.9321855 L58.4531945,7.84003895 L56.898132,7.83275718 L56.898132,7.83275718 L56.898132,7.83275718 Z M58.4531945,1.4328905 L58.4531945,3.61823057 L59.3043525,3.61823057 C59.9168302,3.61823057 60.3270366,3.57534903 60.5341625,3.49686774 C60.7412884,3.41757735 60.9031055,3.29136001 61.0204229,3.11902479 C61.1377403,2.94668956 61.1959945,2.74765452 61.1959945,2.52030148 C61.1959945,2.24035788 61.1134677,2.00815033 60.9492234,1.82772425 C60.7841699,1.64568 60.5762349,1.53483528 60.3238002,1.48629015 C60.1385197,1.45149947 59.7647221,1.43531776 59.2048349,1.43531776 L58.4531945,1.4328905 L58.4531945,1.4328905 Z" id="path5555"></path>
                <polygon id="path5557" points="69.0781059 7.83275718 69.0781059 0.19256236 70.6331683 0.19256236 70.6331683 6.53579305 74.5005972 6.53579305 74.5005972 7.83356627 69.0781059 7.83356627"></polygon>
                <polygon id="path5559" points="80.570357 7.83275718 80.570357 0.129453688 86.2816919 0.129453688 86.2816919 1.43127233 82.1254194 1.43127233 82.1254194 3.13682467 85.9928483 3.13682467 85.9928483 4.43459789 82.1254194 4.43459789 82.1254194 6.53174762 86.4289454 6.53174762 86.4289454 7.82952084 80.570357 7.83275718 80.570357 7.83275718"></polygon>
                <path d="M153.698745,7.83275718 L152.006947,7.83275718 L151.334597,6.08189606 L148.255218,6.08189606 L147.619276,7.83275718 L145.969551,7.83275718 L148.96964,0.129453688 L150.613702,0.129453688 L153.698745,7.83275718 Z M150.835391,4.78331376 L149.773062,1.9256236 L148.732578,4.78331376 L150.835391,4.78331376 Z" id="path5563"></path>
                <path d="M159.490179,7.83275718 L159.490179,0.129453688 L162.76374,0.129453688 C163.587389,0.129453688 164.185303,0.199035045 164.558291,0.338197759 C164.93128,0.476551387 165.229832,0.724131565 165.453949,1.07608378 C165.678066,1.43046325 165.790529,1.83500602 165.790529,2.2897121 C165.790529,2.86739918 165.620621,3.34475965 165.280805,3.7226026 C164.941798,4.09882738 164.433692,4.33588945 163.757297,4.4337888 C164.093876,4.6295875 164.370583,4.84642243 164.589846,5.08024815 C164.809108,5.31569205 165.103615,5.73398927 165.474985,6.33271258 L166.415143,7.83437536 L164.555055,7.83437536 L163.430426,6.1579501 C163.031547,5.56003588 162.757267,5.18138385 162.610822,5.02684851 C162.464378,4.87393134 162.307415,4.76632296 162.143171,4.70645063 C161.978927,4.65062373 161.717592,4.62230573 161.359976,4.62230573 L161.045242,4.62230573 L161.045242,7.84084804 L159.490179,7.84084804 L159.490179,7.83275718 L159.490179,7.83275718 Z M161.045242,3.38602302 L162.195762,3.38602302 C162.941738,3.38602302 163.407772,3.35608685 163.593052,3.29297818 C163.779142,3.23067859 163.923968,3.12064296 164.029149,2.96772579 C164.13433,2.81561771 164.186921,2.619819 164.186921,2.39003871 C164.186921,2.13113133 164.118149,1.92157818 163.979795,1.76218832 C163.841442,1.60603481 163.646452,1.50489912 163.394017,1.46201758 C163.2678,1.44502679 162.889957,1.43693593 162.25887,1.43693593 L161.045242,1.43693593 L161.045242,3.38602302 L161.045242,3.38602302 L161.045242,3.38602302 Z" id="path5565"></path>
                <path d="M177.145235,4.99853051 L178.653371,5.47831824 C178.421972,6.3205763 178.037657,6.94519034 177.500424,7.34973311 C176.963191,7.75751223 176.280323,7.96221087 175.453437,7.96221087 C174.430753,7.96221087 173.590113,7.61187683 172.931518,6.913636 C172.272922,6.21782243 171.943624,5.25986514 171.943624,4.04785499 C171.943624,2.7654544 172.27454,1.77189735 172.937181,1.06313841 C173.599013,0.353570384 174.469589,0.000809085547 175.548909,0.000809085547 C176.491494,0.000809085547 177.25608,0.279134514 177.845094,0.834167199 C178.195428,1.16265593 178.457572,1.63678006 178.633144,2.25411234 L177.093454,2.619819 C177.002027,2.222558 176.812701,1.90701464 176.523048,1.67480708 C176.233396,1.44502679 175.883062,1.32851847 175.469619,1.32851847 C174.898405,1.32851847 174.435608,1.53240803 174.07961,1.94342348 C173.723612,2.35362986 173.545614,3.01627092 173.545614,3.93458302 C173.545614,4.90791293 173.721185,5.60291742 174.071519,6.01555105 C174.421853,6.42818467 174.877368,6.63611966 175.437256,6.63611966 C175.850698,6.63611966 176.205887,6.5050478 176.50363,6.24290408 C176.802183,5.97590585 177.015781,5.56327222 177.145235,4.99853051 L177.145235,4.99853051 Z" id="path5567"></path>
                <path d="M191.894865,7.83275718 L190.203067,7.83275718 L189.529908,6.08189606 L186.450528,6.08189606 L185.814587,7.83275718 L184.164861,7.83275718 L187.164951,0.129453688 L188.809822,0.129453688 L191.894865,7.83275718 L191.894865,7.83275718 Z M189.031511,4.78331376 L187.969182,1.9256236 L186.928698,4.78331376 L189.031511,4.78331376 Z" id="path5569"></path>
                <path d="M197.675781,0.127835516 L200.518908,0.127835516 C201.159703,0.127835516 201.648391,0.17799882 201.984971,0.275898172 C202.437249,0.409397287 202.823992,0.645650267 203.146008,0.985466197 C203.468024,1.32447304 203.713986,1.74277027 203.882276,2.23307611 C204.050566,2.72500012 204.134711,3.33181428 204.134711,4.05432768 C204.134711,4.68703258 204.05542,5.23397441 203.898458,5.69272591 C203.705896,6.25180403 203.430806,6.70731919 203.073191,7.0536078 C202.803765,7.31656061 202.438868,7.52125925 201.980116,7.67013099 C201.637064,7.78016662 201.178312,7.83437536 200.603862,7.83437536 L197.677399,7.83437536 L197.677399,0.131071859 L197.675781,0.127835516 L197.675781,0.127835516 L197.675781,0.127835516 Z M199.230843,1.4328905 L199.230843,6.53579305 L200.391881,6.53579305 C200.82636,6.53579305 201.139476,6.51152049 201.332848,6.46135718 C201.585282,6.39905759 201.794026,6.29064013 201.960698,6.14095931 C202.12737,5.98885122 202.263296,5.74450739 202.367668,5.3966006 C202.472849,5.05193016 202.52544,4.58185146 202.52544,3.98636449 C202.52544,3.39330479 202.472849,2.9337442 202.367668,2.61739175 C202.262487,2.29699387 202.115233,2.05022278 201.926716,1.8697967 C201.73739,1.68937062 201.497901,1.57124413 201.20663,1.50813546 C200.988986,1.45716307 200.563407,1.43531776 199.929893,1.43531776 L199.230843,1.4328905 L199.230843,1.4328905 L199.230843,1.4328905 Z" id="path5571"></path>
                <polygon id="path5573" points="210.413215 7.83275718 210.413215 0.129453688 216.12455 0.129453688 216.12455 1.43127233 211.968277 1.43127233 211.968277 3.13682467 215.835706 3.13682467 215.835706 4.43459789 211.968277 4.43459789 211.968277 6.53174762 216.271803 6.53174762 216.271803 7.82952084 210.413215 7.83275718 210.413215 7.83275718"></polygon>
                <polygon id="path5577" points="229.116845 7.83275718 229.116845 0.129453688 231.444584 0.129453688 232.843493 5.38365523 234.224602 0.129453688 236.557196 0.129453688 236.557196 7.83275718 235.112978 7.83275718 235.112978 1.76785192 233.582998 7.83275718 232.082953 7.83275718 230.556209 1.76785192 230.556209 7.83275718 229.116845 7.83275718"></polygon>
                <path d="M250.008243,7.83275718 L248.317254,7.83275718 L247.644095,6.08189606 L244.562288,6.08189606 L243.929584,7.83275718 L242.279049,7.83275718 L245.279947,0.129453688 L246.921582,0.129453688 L250.008243,7.83275718 Z M247.144889,4.78331376 L246.08256,1.9256236 L245.042076,4.78331376 L247.144889,4.78331376 Z" id="path5579"></path>
                <path d="M260.724581,4.99853051 L262.231908,5.47831824 C262.001318,6.3205763 261.616194,6.94519034 261.078961,7.34973311 C260.540919,7.75832131 259.858051,7.96221087 259.031974,7.96221087 C258.00929,7.96221087 257.16865,7.61187683 256.511673,6.913636 C255.853886,6.21782243 255.522161,5.25986514 255.522161,4.04785499 C255.522161,2.7654544 255.853077,1.77189735 256.516527,1.06313841 C257.178359,0.353570384 258.050554,0.000809085547 259.129065,0.000809085547 C260.071649,0.000809085547 260.834617,0.279134514 261.426058,0.834167199 C261.777202,1.16265593 262.040964,1.63678006 262.216535,2.25411234 L260.677654,2.619819 C260.587846,2.222558 260.394474,1.90701464 260.108058,1.67480708 C259.820024,1.44502679 259.468071,1.32851847 259.05382,1.32851847 C258.483414,1.32851847 258.020617,1.53240803 257.663811,1.94342348 C257.308622,2.35362986 257.129814,3.01627092 257.129814,3.93458302 C257.129814,4.90791293 257.306195,5.60291742 257.654102,6.01555105 C258.005245,6.42818467 258.458333,6.63611966 259.019838,6.63611966 C259.432472,6.63611966 259.785233,6.5050478 260.082167,6.24290408 C260.38072,5.97590585 260.594319,5.56327222 260.724581,4.99853051 L260.724581,4.99853051 Z" id="path5581"></path>
                <polygon id="path5583" points="268.533066 7.83275718 268.533066 0.129453688 270.088937 0.129453688 270.088937 3.16190632 273.135954 3.16190632 273.135954 0.129453688 274.692634 0.129453688 274.692634 7.83275718 273.135954 7.83275718 273.135954 4.46372497 270.088937 4.46372497 270.088937 7.83275718"></polygon>
                <polygon id="path5585" points="281.213055 7.83275718 281.213055 0.129453688 282.768926 0.129453688 282.768926 7.83275718"></polygon>
                <polygon id="path5587" points="289.225429 7.83275718 289.225429 0.129453688 290.739228 0.129453688 293.891425 5.27281051 293.891425 0.129453688 295.336452 0.129453688 295.336452 7.83275718 293.775726 7.83275718 290.669647 2.80914502 290.669647 7.83275718"></polygon>
                <polygon id="path5589" points="301.942635 7.83275718 301.942635 0.129453688 307.654779 0.129453688 307.654779 1.43127233 303.497698 1.43127233 303.497698 3.13682467 307.365127 3.13682467 307.365127 4.43459789 303.497698 4.43459789 303.497698 6.53174762 307.801224 6.53174762 307.801224 7.82952084 301.942635 7.83275718 301.942635 7.83275718"></polygon>
                <polygon id="path5593" points="321.280589 7.83275718 321.280589 0.129453688 326.992733 0.129453688 326.992733 1.43127233 322.836461 1.43127233 322.836461 3.13682467 326.70389 3.13682467 326.70389 4.43459789 322.836461 4.43459789 322.836461 6.53174762 327.139987 6.53174762 327.139987 7.82952084 321.280589 7.83275718 321.280589 7.83275718"></polygon>
                <polygon id="path5595" points="333.399072 7.83275718 333.399072 0.129453688 335.726812 0.129453688 337.124911 5.38365523 338.507639 0.129453688 340.840232 0.129453688 340.840232 7.83275718 339.397633 7.83275718 339.397633 1.76785192 337.866034 7.83275718 336.367607 7.83275718 334.84329 1.76785192 334.84329 7.83275718"></polygon>
                <path d="M347.333953,0.127835516 L348.889015,0.127835516 L348.889015,4.29867151 C348.889015,4.95888532 348.907624,5.390937 348.945651,5.58673571 C349.011996,5.90308815 349.166532,6.15390467 349.421394,6.34565795 C349.673019,6.53660214 350.011217,6.63207423 350.448932,6.63207423 C350.891502,6.63207423 351.223227,6.54307482 351.447344,6.36183966 C351.67146,6.18141358 351.805769,5.96053323 351.851887,5.69758043 C351.898004,5.43543671 351.91985,4.9993396 351.91985,4.39009818 L351.91985,0.127835516 L353.47653,0.127835516 L353.47653,4.17407234 C353.47653,5.09966621 353.433649,5.75178916 353.350313,6.13448662 C353.266168,6.516375 353.110015,6.83839105 352.885898,7.09972568 C352.660163,7.3618694 352.358374,7.57061347 351.978913,7.72514881 C351.60107,7.88049323 351.106719,7.95897453 350.498286,7.95897453 C349.762019,7.95897453 349.20375,7.87482963 348.825097,7.70573075 C348.444018,7.5350137 348.143847,7.31575152 347.927822,7.04389878 C347.708559,6.77285512 347.562924,6.48724792 347.493343,6.18869535 C347.390589,5.74774373 347.340426,5.09400261 347.340426,4.23394467 L347.340426,0.126217345 L347.333953,0.127835516 L347.333953,0.127835516 L347.333953,0.127835516 Z" id="path5597"></path>
                <polygon id="path5599" points="360.118314 7.83275718 360.118314 0.19256236 361.673376 0.19256236 361.673376 6.53579305 365.541614 6.53579305 365.541614 7.83356627 360.118314 7.83356627 360.118314 7.83275718"></polygon>
                <path d="M378.556564,7.83275718 L376.863957,7.83275718 L376.192416,6.08189606 L373.112227,6.08189606 L372.477095,7.83275718 L370.82737,7.83275718 L373.82665,0.129453688 L375.471521,0.129453688 L378.556564,7.83275718 Z M375.69321,4.78331376 L374.630881,1.9256236 L373.591206,4.78331376 L375.69321,4.78331376 Z" id="path5601"></path>
                <polygon id="path5603" points="385.279256 7.83275718 385.279256 1.4328905 382.99278 1.4328905 382.99278 0.130262773 389.112703 0.130262773 389.112703 1.4328905 386.834318 1.4328905 386.834318 7.83275718"></polygon>
                <path d="M394.567558,4.02762786 C394.567558,3.2411967 394.685684,2.58502832 394.921937,2.05345912 C395.095891,1.66186171 395.334571,1.30910042 395.637978,0.995175223 C395.941385,0.682059116 396.27311,0.453087907 396.633153,0.304216166 C397.11375,0.101135693 397.666356,4.13002965e-14 398.294206,4.13002965e-14 C399.428544,4.13002965e-14 400.337147,0.35437947 401.018397,1.05585664 C401.699647,1.75976107 402.041081,2.73956366 402.041081,3.99526443 C402.041081,5.23721075 401.702883,6.20973158 401.026488,6.91201783 C400.350092,7.613495 399.446344,7.96544721 398.314433,7.96544721 C397.168768,7.96544721 396.258547,7.61511317 395.582151,6.91687235 C394.905756,6.21863152 394.567558,5.25258337 394.567558,4.02762786 Z M396.171975,3.97422821 C396.171975,4.84642243 396.372628,5.50825441 396.775552,5.9564878 C397.178477,6.40795754 397.690628,6.63126515 398.309579,6.63126515 C398.930956,6.63126515 399.439062,6.41038479 399.836323,5.96376957 C400.234393,5.51553618 400.43181,4.84642243 400.43181,3.95319198 C400.43181,3.07128874 400.239248,2.41431127 399.851696,1.97983233 C399.463335,1.54697157 398.951184,1.32851847 398.309579,1.32851847 C397.667974,1.32851847 397.152586,1.54778065 396.759371,1.98630502 C396.366155,2.42482939 396.171975,3.08827953 396.171975,3.97422821 L396.171975,3.97422821 Z" id="path5605"></path>
                <path d="M408.219258,7.83275718 L408.219258,0.129453688 L411.493628,0.129453688 C412.317277,0.129453688 412.914382,0.199035045 413.28737,0.338197759 C413.660359,0.476551387 413.958911,0.724131565 414.183028,1.07608378 C414.407145,1.43046325 414.519608,1.83500602 414.519608,2.2897121 C414.519608,2.86739918 414.348891,3.34475965 414.009075,3.7226026 C413.669259,4.09882738 413.161962,4.33588945 412.485567,4.4337888 C412.822146,4.6295875 413.100472,4.84642243 413.311643,5.08024815 C413.530905,5.31569205 413.833503,5.73398927 414.203255,6.33271258 L415.138558,7.83437536 L413.280898,7.83437536 L412.15546,6.1579501 C411.75739,5.56003588 411.483919,5.18138385 411.336665,5.02684851 C411.186175,4.87393134 411.033258,4.76632296 410.869014,4.70645063 C410.704769,4.65062373 410.444244,4.62230573 410.083392,4.62230573 L409.767039,4.62230573 L409.767039,7.84084804 L408.213595,7.84084804 L408.213595,7.83599353 L408.216831,7.83599353 L408.216831,7.83437536 L408.219258,7.83437536 L408.219258,7.83275718 Z M409.774321,3.38602302 L410.926459,3.38602302 C411.672436,3.38602302 412.138469,3.35608685 412.323749,3.29297818 C412.509839,3.23067859 412.655475,3.12064296 412.761465,2.96772579 C412.865837,2.81561771 412.917618,2.619819 412.917618,2.39003871 C412.917618,2.13113133 412.848037,1.92157818 412.708874,1.76218832 C412.57133,1.60603481 412.377149,1.50489912 412.123905,1.46201758 C411.997688,1.44502679 411.619845,1.43693593 410.989567,1.43693593 L409.774321,1.43693593 L409.774321,3.38602302 L409.774321,3.38602302 L409.774321,3.38602302 Z" id="path5607"></path>
            </g>
        </g>
    </g>
</svg>