<svg width="557" height="120" viewBox="0 0 557 120" fill="none" xmlns="http://www.w3.org/2000/svg">
<path d="M247.588 24.2693L228.302 95.5104H215.102L201.703 45.6813C201.146 43.5614 200.803 41.2428 200.674 38.7255H200.479C200.32 41.0448 199.925 43.342 199.302 45.582L185.856 95.5104H172.361L152.676 24.2693H165.486L178.245 76.4361C178.769 78.6218 179.097 80.9045 179.226 83.2913H179.471C179.601 81.6023 180.059 79.3173 180.845 76.4361L195.275 24.2693H207.299L220.648 76.8311C221.106 78.6218 221.449 80.7417 221.677 83.1896H221.874C221.972 81.5341 222.348 79.3484 223.001 76.6312L235.515 24.2669L247.588 24.2693ZM251.312 44.6388H262.872V95.5116H251.312V44.6388ZM317.102 95.5104H307.444V66.8456C307.645 54.4638 302.504 51.7705 295.939 51.7705C292.513 51.7705 289.748 53.9036 287.514 56.537C285.284 59.1692 284.168 62.4909 284.168 66.4973V95.5104H272.868V44.6376H284.168V53.0836H284.362C288.079 46.6581 293.448 43.4453 300.464 43.4453C305.864 43.4453 309.987 45.242 312.834 48.8355C315.678 52.4301 317.102 57.6215 317.102 64.4097V95.5104ZM374.78 95.5104H363.22V88.1548H363.021C359.302 94.7132 353.571 96.7038 345.832 96.7038C339.555 96.7038 334.53 94.4271 330.758 89.8713C326.987 85.3167 325.102 79.1174 325.102 71.2662C325.102 62.8548 327.186 56.1145 331.356 51.0463C335.527 45.9782 341.082 43.4453 348.025 43.4453C354.903 43.4453 359.902 44.203 363.021 49.7009H363.22V20.1959H374.78V95.5104ZM363.37 72.3447V65.4332C363.37 61.6865 362.146 58.5061 359.697 55.8918C357.247 53.2788 354.125 51.9728 350.333 51.9728C345.85 51.9728 342.324 53.6415 339.754 56.9751C337.185 60.3112 335.9 64.9364 335.9 70.8484C335.9 76.211 337.133 80.4496 339.6 83.5618C342.064 86.6753 345.383 88.2278 349.557 88.2278C353.661 88.2278 356.988 86.7243 359.542 83.7151C362.095 80.7058 363.37 76.9161 363.37 72.3447ZM407.168 96.7038C399.292 96.7038 393.007 94.3277 388.306 89.5744C383.607 84.8211 381.258 78.5213 381.258 70.6701C381.258 62.1246 383.705 55.4525 388.606 50.6489C393.504 45.8465 400.108 43.4453 408.413 43.4453C416.386 43.4453 422.595 45.7807 427.047 50.4502C431.499 55.1198 433.725 61.5968 433.725 69.8765C433.725 77.991 431.324 84.4907 426.524 89.3757C421.725 94.2619 415.272 96.7038 407.168 96.7038ZM407.716 52.6372C403.195 52.6372 399.626 54.21 397.004 57.357C394.377 60.5039 393.067 64.8418 393.067 70.3732C393.067 75.7071 394.394 79.905 397.053 82.9669C399.71 86.0313 403.265 87.5611 407.716 87.5611C412.267 87.5611 415.763 86.0552 418.203 83.0423C420.646 80.0283 421.867 75.7382 421.867 70.1757C421.867 64.5773 420.646 60.2561 418.203 57.2085C415.763 54.1609 412.267 52.6372 407.716 52.6372ZM508.321 44.6388L493.382 95.5116H481.362L472.161 61.0342C471.797 59.7103 471.568 58.2176 471.469 56.5633H471.27C471.204 57.6897 470.906 59.1465 470.38 60.9348L460.389 95.5116H448.614L433.728 44.6388H445.601L454.799 81.3031C455.097 82.396 455.294 83.8527 455.395 85.6746H455.739C455.84 84.2824 456.103 82.7922 456.532 81.2037L466.77 44.6388H477.551L486.654 81.4515C486.952 82.6126 487.165 84.0694 487.296 85.823H487.643C487.709 84.5985 487.955 83.1405 488.383 81.4515L497.387 44.6388H508.321ZM509.626 93.9207V83.2399C513.602 86.5185 517.995 88.1572 522.803 88.1572C529.231 88.1572 532.441 86.1043 532.441 81.9974C532.441 80.8387 532.166 79.8535 531.615 79.0419C531.066 78.2304 530.323 77.511 529.389 76.879C528.458 76.2517 527.356 75.6867 526.085 75.1912C524.667 74.6345 523.252 74.0715 521.839 73.5022C520.045 72.743 518.304 71.8635 516.629 70.87C515.083 69.9435 513.796 68.8913 512.771 67.7123C511.747 66.5412 510.96 65.1836 510.454 63.7143C509.929 62.2252 509.674 60.4859 509.674 58.4989C509.674 56.0486 510.206 53.8868 511.278 52.0147C512.35 50.1436 513.824 48.5322 515.595 47.2961C517.402 46.0225 519.453 45.0601 521.745 44.4149C524.043 43.7685 526.416 43.4453 528.863 43.4453C533.208 43.4453 537.092 44.1576 540.525 45.582V55.6668C537.218 53.2165 533.422 51.9908 529.138 51.9908C527.793 51.9908 526.575 52.1404 525.49 52.4385C524.406 52.7365 523.478 53.1507 522.714 53.681C521.98 54.176 521.368 54.8298 520.923 55.5938C520.494 56.3424 520.272 57.1914 520.281 58.0536C520.281 59.1465 520.494 60.0742 520.923 60.8355C521.349 61.598 521.988 62.2695 522.827 62.8464C523.669 63.427 524.679 63.9585 525.856 64.4373C527.034 64.9161 528.387 65.4392 529.92 66.0041C531.781 66.8169 533.597 67.7283 535.36 68.7345C536.966 69.661 538.336 70.7132 539.468 71.8886C540.599 73.0653 541.473 74.4227 542.085 75.9632C542.698 77.5038 543.005 79.3316 543.005 81.4527C543.005 84.0359 542.454 86.2886 541.352 88.2098C540.267 90.1134 538.76 91.7445 536.946 92.9787C535.108 94.2392 532.987 95.1728 530.586 95.7869C528.183 96.3998 525.651 96.7074 522.989 96.7074C517.842 96.7038 513.389 95.7761 509.626 93.9207Z" fill="white"/>
<path d="M257.424 34.3134C261.265 34.3134 264.378 31.4553 264.378 27.9297C264.378 24.4041 261.265 21.5461 257.424 21.5461C253.584 21.5461 250.471 24.4041 250.471 27.9297C250.471 31.4553 253.584 34.3134 257.424 34.3134Z" fill="white"/>
<path d="M549.984 55.4741C548.291 55.4741 546.848 54.8876 545.654 53.7121C544.461 52.5378 543.864 51.1206 543.864 49.4591C543.864 47.7989 544.461 46.3804 545.654 45.2061C546.848 44.0319 548.291 43.4442 549.984 43.4442C551.67 43.4442 553.11 44.0319 554.306 45.2061C555.501 46.3804 556.097 47.7989 556.097 49.4591C556.097 51.1206 555.5 52.5378 554.306 53.7121C553.111 54.8876 551.672 55.4741 549.984 55.4741ZM549.984 44.2438C548.533 44.2438 547.297 44.7525 546.271 45.7711C545.246 46.7898 544.736 48.0191 544.736 49.4591C544.736 50.8991 545.249 52.1284 546.271 53.1471C547.297 54.1658 548.533 54.6745 549.984 54.6745C551.434 54.6745 552.669 54.1658 553.691 53.1471C554.713 52.1284 555.223 50.8991 555.223 49.4591C555.223 48.0191 554.711 46.7898 553.691 45.7711C552.67 44.7525 551.434 44.2438 549.984 44.2438ZM553.122 53.1854H551.423L550.68 51.4354C550.303 50.5616 549.896 50.1211 549.458 50.1211H548.829V53.1854H547.47V45.6071H549.748C550.697 45.6071 551.428 45.7927 551.943 46.1626C552.459 46.5336 552.717 47.0364 552.717 47.6708C552.717 48.1927 552.56 48.6356 552.243 49.0007C551.927 49.3658 551.464 49.6111 550.848 49.7344V49.7668C551.273 49.8589 551.697 50.3258 552.119 51.1696L553.122 53.1854V53.1854ZM548.827 46.7515V49.033H549.847C550.778 49.033 551.245 48.6511 551.245 47.8874C551.245 47.4733 551.12 47.1812 550.871 47.0088C550.621 46.8365 550.222 46.7503 549.679 46.7503L548.827 46.7515V46.7515Z" fill="white"/>
<path d="M127.884 113.34H125.861V119.577H125.04V113.34H123.025V112.601H127.882L127.884 113.34ZM135.616 119.576H134.801V114.896C134.801 114.525 134.826 114.072 134.869 113.537H134.85C134.799 113.768 134.728 113.995 134.638 114.214L132.248 119.575H131.848L129.462 114.252C129.371 114.02 129.3 113.78 129.252 113.536H129.231C129.256 113.815 129.271 114.27 129.271 114.904V119.575H128.481V112.599H129.562L131.709 117.462C131.876 117.836 131.984 118.115 132.033 118.299H132.062C132.203 117.916 132.315 117.629 132.399 117.443L134.59 112.595H135.616V119.576V119.576Z" fill="white"/>
<path d="M118.656 57.3271V0L52.6112 9.60479V57.3271H118.656ZM47.959 10.2823L0 17.2573V57.3271H47.959V10.2823ZM0 61.9667V102.544L47.959 109.6V61.9667H0ZM52.6112 110.285L118.656 120V61.9667H52.6112V110.285Z" fill="white"/>
</svg>
