<svg width="557" height="185" viewBox="0 0 557 185" fill="none" xmlns="http://www.w3.org/2000/svg">
<path d="M6.99512 156.624H49.0146V163.786H6.99512V156.624Z" fill="white"/>
<path d="M11.2197 153.231H17.7829V172.682H11.2197V153.231Z" fill="white"/>
<path d="M38.7564 167.782V153.231H44.716V167.179C44.716 176.354 38.3239 184.595 25.2528 184.595H11.3721V176.603H26.6862C34.7319 176.603 38.7564 172.889 38.7564 167.782Z" fill="white"/>
<path d="M76.6666 169.845V172.499C76.6666 175.201 74.9028 176.603 72.5058 176.603H53.7246V184.595H72.3458C77.8296 184.595 82.2143 180.891 82.2143 175.656V168.086" fill="white"/>
<path d="M56.3955 153.159H90.5352V160.729H56.3955V153.159Z" fill="white"/>
<path d="M53.7285 163.715H92.9892V170.859H53.7285V163.715Z" fill="white"/>
<path d="M131.289 169.846V172.499C131.289 175.202 129.525 176.603 127.128 176.603H100.559V184.595H126.968C132.452 184.595 136.836 180.892 136.836 175.657V163.715" fill="white"/>
<path d="M97.1504 163.715H136.838V170.859H97.1504V163.715Z" fill="white"/>
<path d="M99.9258 153.159H134.599V160.729H99.9258V153.159Z" fill="white"/>
<path d="M169.269 161.476H144.224V168.619H169.269V161.476Z" fill="white"/>
<path d="M147.357 153.107V172.499C147.357 175.201 149.121 176.603 151.518 176.603H180.915V184.595H151.678C146.194 184.595 141.81 180.891 141.81 175.656V153.105" fill="white"/>
<path d="M180.932 163.888H144.225V169.524H180.932V163.888Z" fill="white"/>
<path d="M171.51 153.234H175.297V161.577H171.51V153.234Z" fill="white"/>
<path d="M177.166 153.234H180.953V161.577H177.166V153.234Z" fill="white"/>
<path d="M185.143 177.357H218.301V184.595H185.143V177.357Z" fill="white"/>
<path d="M188.521 162.278H210.741V169.516H188.521V162.278Z" fill="white"/>
<path d="M205.854 162.278H210.741V180.9H205.854V162.278Z" fill="white"/>
<path d="M219.884 164.54H258.358V172.381H219.884V164.54Z" fill="white"/>
<path d="M77.6178 99.1062V109.666H105.308C107.67 109.666 109.817 111.571 109.817 113.912L78.34 122.145C76.1275 122.738 74.5889 124.742 74.5889 127.031V130.486C74.5889 137.047 79.9106 142.366 86.4755 142.366L111.628 142.365C118.191 142.365 123.513 137.047 123.513 130.486V110.986C123.513 104.425 118.191 99.1062 111.627 99.1062L77.6178 99.1062ZM110.031 123.638V127.782C110.031 130.245 108.033 132.242 105.568 132.242H91.8333C89.7058 132.242 88.1181 130.766 87.7182 129.274L110.031 123.638Z" fill="white"/>
<path d="M146.111 109.732H155.287V98.6708H146.117V80.1296H132.934V98.7762H127.459V109.732H132.935V136.907C132.935 139.997 135.441 142.501 138.532 142.501H154.549V131.434L146.111 131.428V109.732Z" fill="white"/>
<path d="M207.768 142.292V131.732H176.948C174.585 131.732 172.438 129.827 172.438 127.486L203.915 119.253C206.128 118.66 207.666 116.656 207.666 114.367V110.912C207.666 104.351 202.345 99.0317 195.78 99.0317L170.627 99.0326C164.064 99.0327 158.742 104.351 158.742 110.912V130.412C158.742 136.973 164.064 142.292 170.629 142.292L207.768 142.292ZM172.225 117.76V113.616C172.225 111.153 174.223 109.156 176.687 109.156H190.422C192.55 109.156 194.137 110.632 194.537 112.124L172.225 117.76Z" fill="white"/>
<path d="M214.521 80.1296H227.282V142.501H214.521V80.1296Z" fill="white"/>
<path d="M234.127 80.1296H246.888V142.501H234.127V80.1296Z" fill="white"/>
<path d="M254.497 99.1062V109.666H282.187C284.549 109.666 286.696 111.571 286.696 113.912L255.219 122.145C253.006 122.738 251.468 124.742 251.468 127.031V130.486C251.468 137.047 256.789 142.366 263.354 142.366L288.507 142.365C295.07 142.365 300.392 137.047 300.392 130.486V110.986C300.392 104.425 295.07 99.1062 288.505 99.1062L254.497 99.1062ZM286.909 123.638V127.782C286.909 130.245 284.912 132.242 282.447 132.242H268.712C266.585 132.242 264.997 130.766 264.597 129.274L286.909 123.638Z" fill="white"/>
<path d="M330.056 142.917C324.977 142.917 321.891 141.159 319.62 137.228L300.225 98.8816H314.56L331.848 132.277L349.135 98.8816H363.471L344.075 137.228C341.804 141.159 338.719 142.917 333.64 142.917H331.848H330.056Z" fill="white"/>
<path d="M366.943 98.8816H379.704V142.501H366.943V98.8816Z" fill="white"/>
<path d="M373.381 94.3517C377.34 94.3517 380.549 91.1445 380.549 87.1881C380.549 83.2317 377.34 80.0244 373.381 80.0244C369.422 80.0244 366.213 83.2317 366.213 87.1881C366.213 91.1445 369.422 94.3517 373.381 94.3517Z" fill="white"/>
<path d="M435.03 142.292V131.732H404.209C401.847 131.732 399.7 129.827 399.7 127.486L431.177 119.253C433.39 118.66 434.928 116.656 434.928 114.367V110.912C434.928 104.351 429.607 99.0317 423.042 99.0317L397.889 99.0326C391.326 99.0327 386.004 104.351 386.004 110.912V130.412C386.004 136.973 391.326 142.292 397.891 142.292L435.03 142.292ZM399.487 117.76V113.616C399.487 111.153 401.484 109.156 403.949 109.156H417.684C419.811 109.156 421.399 110.632 421.799 112.124L399.487 117.76Z" fill="white"/>
<path fill-rule="evenodd" clip-rule="evenodd" d="M453.307 137.228C455.578 141.159 458.663 142.917 463.742 142.917H465.534H467.326C472.405 142.917 475.596 140.527 477.34 136.701L483.401 117.625L489.463 136.702C491.206 140.527 494.398 142.917 499.476 142.917H501.268H503.06C508.139 142.917 511.225 141.159 513.496 137.228L532.891 98.8817H518.556L501.268 132.277L489.357 98.8817H489.357L489.357 98.8816H477.446L465.534 132.277L448.247 98.8816H433.911L453.307 137.228Z" fill="white"/>
<path d="M4.25936 130.605V142.918L52.1011 142.911C67.8714 142.659 73.6817 126.867 68.3286 115.273C65.2591 108.635 57.8991 106.039 51.8565 105.846H20.9129C20.0368 105.859 19.1803 105.586 18.4736 105.068C17.4678 104.256 16.6955 103.192 16.2357 101.984C15.776 100.776 15.645 99.4683 15.8564 98.1935C16.0366 96.9531 16.6049 95.8014 17.4798 94.9032C18.3547 94.0051 19.4915 93.4064 20.7276 93.1928C21.7211 92.9927 22.7591 92.8964 23.7749 92.8964C34.5257 92.8742 50.6205 92.8816 61.3787 92.8816H63.6994V80.2502L18.1412 80.2508C9.54304 80.2508 0.5625 88.6561 0.5625 99.0745C0.561458 108.669 8.6082 117.344 20.2759 117.344H45.2809C46.7452 117.371 48.1915 117.672 49.5442 118.233C52.4951 119.463 54.0298 122.263 53.496 125.005C52.7694 128.724 50.7082 130.605 47.3199 130.605H4.25936Z" fill="white"/>
<path d="M542.605 88.8787H545.488V87.188H537.585V88.8787H540.573V97.0452H542.605V88.8787Z" fill="white"/>
<path d="M554.134 97.0452H556.159V87.188H553.206L551.353 94.7349L549.52 87.188H546.55V97.0452H548.582V89.0782L550.344 97.0452H552.376L554.134 89.0397V97.0452Z" fill="white"/>
<path d="M261.908 154.43H263.947V153.234H258.358V154.43H260.472V160.205H261.908V154.43Z" fill="white"/>
<path d="M270.061 160.205H271.493V153.234H269.405L268.094 158.571L266.799 153.234H264.698V160.205H266.135V154.571L267.381 160.205H268.818L270.061 154.544V160.205Z" fill="white"/>
<path d="M32.5852 60.3162C13.3891 60.3097 0.5625 46.706 0.5625 30.2118C0.5625 13.7176 13.4184 -0.0421703 32.5559 9.71414e-05H213.403C232.541 -0.042175 245.397 13.7176 245.397 30.2118C245.397 46.706 232.57 60.3097 213.374 60.3162H32.5852Z" fill="#E60012"/>
<path d="M32.6442 7.41968C17.4473 7.44894 8.11914 17.6062 8.11914 30.1727C8.11914 42.736 17.3888 52.9778 32.6442 52.9225H213.316C228.571 52.9746 237.844 42.736 237.844 30.1727C237.844 17.6095 228.516 7.45219 213.319 7.42292L32.6442 7.41968Z" fill="white"/>
<path fill-rule="evenodd" clip-rule="evenodd" d="M218.557 20.5031C218.557 18.0906 220.514 16.1333 222.926 16.1333C225.339 16.1333 227.296 18.0906 227.296 20.5031C227.296 22.9156 225.339 24.873 222.926 24.873C220.514 24.873 218.557 22.9156 218.557 20.5031ZM222.927 24.0406C224.877 24.0406 226.461 22.4572 226.461 20.5063C226.461 18.5523 224.877 16.9721 222.927 16.9721C220.976 16.9721 219.392 18.5555 219.392 20.5063C219.392 22.4572 220.976 24.0406 222.927 24.0406Z" fill="#E60012"/>
<path fill-rule="evenodd" clip-rule="evenodd" d="M225.101 19.4205C225.101 18.4938 224.415 18.0256 223.034 18.0256H221.135V22.8669H222.315V20.8836H222.891L223.817 22.8669H225.127L224.045 20.7048C224.705 20.5389 225.101 20.0577 225.101 19.4205ZM222.89 20.1748H222.315V18.767H222.832C223.541 18.767 223.889 18.9848 223.889 19.4888C223.889 19.97 223.564 20.1748 222.89 20.1748Z" fill="#E60012"/>
<path fill-rule="evenodd" clip-rule="evenodd" d="M130.653 38.8441C130.653 37.7841 130.647 37.6996 130.647 37.6996L139.152 37.693C137.667 42.1506 132.799 45.4377 127.038 45.4377C120.093 45.4377 114.465 40.694 114.465 34.8383C114.465 28.9826 120.093 24.2356 127.038 24.2356C133.983 24.2356 139.637 29.0866 139.637 34.9423C139.637 34.9522 123.552 34.9457 123.552 34.9457C123.552 34.9457 123.546 37.8101 123.546 38.8441C123.546 42.297 125.858 43.0643 127.119 43.0643C128.381 43.0643 130.653 42.297 130.653 38.8441ZM124.118 28.3031C123.575 29.246 123.539 30.3515 123.552 32.0064L130.676 32.0097C130.689 30.3547 130.666 29.2493 130.123 28.3031C129.457 27.1397 128.232 26.587 127.121 26.5799C127.121 26.5799 127.122 26.5799 127.122 26.5799H127.119C127.12 26.5799 127.12 26.5799 127.121 26.5799C126.009 26.587 124.784 27.1397 124.118 28.3031Z" fill="#E60012"/>
<path d="M157.512 24.5512C160.705 24.4601 167.182 26.5508 167.136 34.0256C167.13 35.3522 167.133 44.3 167.133 44.3H158.65C158.65 44.3 158.65 33.0795 158.65 31.8992C158.65 30.2541 157.077 28.4235 154.749 28.4235C152.424 28.4235 150.694 30.2541 150.694 31.8992C150.694 32.7056 150.704 44.3 150.704 44.3H142.228L142.234 25.4193L150.707 25.4128C150.707 25.4128 150.697 26.9312 150.707 27.3994C152.339 25.8419 154.693 24.6324 157.512 24.5512L157.512 24.5512Z" fill="#E60012"/>
<path d="M88.1221 24.5512C91.3149 24.4601 97.7917 26.5508 97.7461 34.0256C97.7396 35.3522 97.7428 44.3 97.7428 44.3H89.26C89.26 44.3 89.26 33.0795 89.26 31.8992C89.26 30.2541 87.6863 28.4235 85.3583 28.4235C83.0336 28.4235 81.3039 30.2541 81.3039 31.8992C81.3039 32.7056 81.3136 44.3 81.3136 44.3H72.8373L72.834 25.4193L81.3168 25.4128C81.3168 25.4128 81.307 26.9312 81.3168 27.3994C82.949 25.8419 85.2997 24.6324 88.1219 24.5512L88.1221 24.5512Z" fill="#E60012"/>
<path fill-rule="evenodd" clip-rule="evenodd" d="M193.966 15.9121H185.539H185.539C185.539 15.9121 185.539 21.9889 185.545 26.3587C184.18 25.5914 182.739 24.8534 180.714 24.6745C174.559 24.1348 169.857 29.5776 169.857 34.5619C169.857 41.1329 174.926 43.565 175.697 43.9226C178.568 45.2622 182.255 45.2654 185.522 43.2138C185.522 43.3894 185.526 44.3063 185.526 44.3063H193.966V15.9121ZM185.601 31.3951V34.77H185.601C185.601 34.77 185.604 36.9062 185.604 38.1189C185.604 41.0354 183.585 41.7995 182.255 41.7995C180.899 41.7995 178.909 41.0354 178.909 38.1189C178.909 37.1143 178.913 34.7603 178.913 34.7603C178.913 34.7603 178.909 32.364 178.909 31.3951C178.909 28.4754 180.899 27.7308 182.258 27.7308C183.585 27.7308 185.601 28.4754 185.601 31.3951Z" fill="#E60012"/>
<path fill-rule="evenodd" clip-rule="evenodd" d="M196.747 34.7377C196.747 28.882 202.333 24.135 209.226 24.135C216.119 24.135 221.705 28.882 221.705 34.7377C221.705 40.5934 216.119 45.3404 209.226 45.3404C202.336 45.3404 196.747 40.5934 196.747 34.7377ZM212.653 38.7142C212.653 37.5697 212.656 34.715 212.656 34.715L212.659 34.7247C212.651 34.1088 212.652 32.5947 212.653 31.4349C212.653 31.1681 212.653 30.9201 212.653 30.706C212.653 27.7083 210.868 26.476 209.164 26.476C207.464 26.476 205.675 27.7083 205.675 30.706C205.675 31.8505 205.669 34.6434 205.669 34.6434C205.669 34.6434 205.665 37.5697 205.665 38.7142C205.665 41.7249 207.45 42.9669 209.164 42.9669C210.874 42.9669 212.653 41.7249 212.653 38.7142Z" fill="#E60012"/>
<path d="M59.5752 21.7094V15.9058H68.1328V21.7094H59.5752Z" fill="#E60012"/>
<path d="M59.5947 44.3063V25.4224L68.1328 25.4257V44.3064L59.5947 44.3063Z" fill="#E60012"/>
<path d="M102.431 44.3066L102.434 25.4617H97.791V22.659L102.437 22.6556L102.431 18.832H110.975V22.6524H115.599V25.4616H110.975L110.982 44.3065L102.431 44.3066Z" fill="#E60012"/>
<path d="M24.8467 44.3063L24.8499 15.9121H33.6969L45.935 35.7129L45.9285 15.9121H54.7072V44.3063H45.9415L33.6384 24.5055V44.3063H24.8467Z" fill="#E60012"/>
</svg>
