<svg width="557" height="185" viewBox="0 0 557 185" fill="none" xmlns="http://www.w3.org/2000/svg">
<path d="M6.99512 156.488H49.0146V163.65H6.99512V156.488Z" fill="white"/>
<path d="M11.2197 153.095H17.7829V172.547H11.2197V153.095Z" fill="white"/>
<path d="M38.7564 167.646V153.095H44.716V167.043C44.716 176.218 38.3239 184.459 25.2528 184.459H11.3721V176.467H26.6862C34.7319 176.467 38.7564 172.753 38.7564 167.646Z" fill="white"/>
<path d="M76.6666 169.71V172.363C76.6666 175.066 74.9028 176.467 72.5058 176.467H53.7246V184.459H72.3458C77.8296 184.459 82.2143 180.756 82.2143 175.521V167.95" fill="white"/>
<path d="M56.3955 153.023H90.5352V160.593H56.3955V153.023Z" fill="white"/>
<path d="M53.7285 163.579H92.9892V170.723H53.7285V163.579Z" fill="white"/>
<path d="M131.289 169.71V172.363C131.289 175.066 129.525 176.467 127.128 176.467H100.559V184.459H126.968C132.452 184.459 136.836 180.756 136.836 175.521V163.579" fill="white"/>
<path d="M97.1504 163.579H136.838V170.723H97.1504V163.579Z" fill="white"/>
<path d="M99.9258 153.023H134.599V160.593H99.9258V153.023Z" fill="white"/>
<path d="M169.269 161.34H144.224V168.484H169.269V161.34Z" fill="white"/>
<path d="M147.357 152.971V172.363C147.357 175.065 149.121 176.467 151.518 176.467H180.915V184.459H151.678C146.194 184.459 141.81 180.756 141.81 175.521V152.97" fill="white"/>
<path d="M180.932 163.752H144.225V169.388H180.932V163.752Z" fill="white"/>
<path d="M171.51 153.098H175.297V161.442H171.51V153.098Z" fill="white"/>
<path d="M177.166 153.098H180.953V161.442H177.166V153.098Z" fill="white"/>
<path d="M185.143 177.221H218.301V184.459H185.143V177.221Z" fill="white"/>
<path d="M188.521 162.142H210.741V169.38H188.521V162.142Z" fill="white"/>
<path d="M205.854 162.142H210.741V180.765H205.854V162.142Z" fill="white"/>
<path d="M219.884 164.404H258.358V172.245H219.884V164.404Z" fill="white"/>
<path d="M77.6178 98.9705V109.53H105.308C107.67 109.53 109.817 111.436 109.817 113.776L78.34 122.01C76.1275 122.602 74.5889 124.606 74.5889 126.895V130.35C74.5889 136.911 79.9106 142.231 86.4755 142.231L111.628 142.23C118.191 142.23 123.513 136.911 123.513 130.35V110.85C123.513 104.289 118.191 98.9705 111.627 98.9705L77.6178 98.9705ZM110.031 123.503V127.646C110.031 130.11 108.033 132.106 105.568 132.106H91.8333C89.7058 132.106 88.1181 130.63 87.7182 129.139L110.031 123.503Z" fill="white"/>
<path d="M146.111 109.597H155.287V98.5351H146.117V79.9939H132.934V98.6405H127.459V109.597H132.935V136.772C132.935 139.861 135.441 142.365 138.532 142.365H154.549V131.298L146.111 131.292V109.597Z" fill="white"/>
<path d="M207.768 142.156V131.597H176.948C174.585 131.597 172.438 129.691 172.438 127.351L203.915 119.117C206.128 118.525 207.666 116.521 207.666 114.232V110.776C207.666 104.215 202.345 98.896 195.78 98.896L170.627 98.8968C164.064 98.897 158.742 104.215 158.742 110.776V130.276C158.742 136.838 164.064 142.156 170.629 142.156L207.768 142.156ZM172.225 117.624V113.48C172.225 111.017 174.223 109.02 176.687 109.02H190.422C192.55 109.02 194.137 110.496 194.537 111.988L172.225 117.624Z" fill="white"/>
<path d="M214.521 79.9939H227.282V142.365H214.521V79.9939Z" fill="white"/>
<path d="M234.127 79.9939H246.888V142.365H234.127V79.9939Z" fill="white"/>
<path d="M254.497 98.9705V109.53H282.187C284.549 109.53 286.696 111.436 286.696 113.776L255.219 122.01C253.006 122.602 251.468 124.606 251.468 126.895V130.35C251.468 136.911 256.789 142.231 263.354 142.231L288.507 142.23C295.07 142.23 300.392 136.911 300.392 130.35V110.85C300.392 104.289 295.07 98.9705 288.505 98.9705L254.497 98.9705ZM286.909 123.503V127.646C286.909 130.11 284.912 132.106 282.447 132.106H268.712C266.585 132.106 264.997 130.63 264.597 129.139L286.909 123.503Z" fill="white"/>
<path d="M330.056 142.781C324.977 142.781 321.891 141.024 319.62 137.092L300.225 98.7458H314.56L331.848 132.141L349.135 98.7458H363.471L344.075 137.092C341.804 141.024 338.719 142.781 333.64 142.781H331.848H330.056Z" fill="white"/>
<path d="M366.943 98.7458H379.704V142.365H366.943V98.7458Z" fill="white"/>
<path d="M373.381 94.216C377.34 94.216 380.549 91.0087 380.549 87.0523C380.549 83.096 377.34 79.8887 373.381 79.8887C369.422 79.8887 366.213 83.096 366.213 87.0523C366.213 91.0087 369.422 94.216 373.381 94.216Z" fill="white"/>
<path d="M435.03 142.156V131.597H404.209C401.847 131.597 399.7 129.691 399.7 127.351L431.177 119.117C433.39 118.525 434.928 116.521 434.928 114.231V110.776C434.928 104.215 429.607 98.896 423.042 98.896L397.889 98.8968C391.326 98.8969 386.004 104.215 386.004 110.776V130.276C386.004 136.838 391.326 142.156 397.891 142.156L435.03 142.156ZM399.487 117.624V113.48C399.487 111.017 401.484 109.02 403.949 109.02H417.684C419.811 109.02 421.399 110.496 421.799 111.988L399.487 117.624Z" fill="white"/>
<path fill-rule="evenodd" clip-rule="evenodd" d="M453.307 137.092C455.578 141.024 458.663 142.781 463.742 142.781H465.534H467.326C472.405 142.781 475.596 140.391 477.34 136.566L483.401 117.49L489.463 136.566C491.206 140.392 494.398 142.781 499.476 142.781H501.268H503.06C508.139 142.781 511.225 141.024 513.496 137.093L532.891 98.746H518.556L501.268 132.141L489.357 98.746H489.357L489.357 98.7458H477.446L465.534 132.141L448.247 98.7458H433.911L453.307 137.092Z" fill="white"/>
<path d="M4.25936 130.47V142.782L52.1011 142.775C67.8714 142.523 73.6817 126.731 68.3286 115.137C65.2591 108.499 57.8991 105.903 51.8565 105.711H20.9129C20.0368 105.723 19.1803 105.45 18.4736 104.933C17.4678 104.121 16.6955 103.056 16.2357 101.848C15.776 100.641 15.645 99.3326 15.8564 98.0577C16.0366 96.8173 16.6049 95.6657 17.4798 94.7675C18.3547 93.8693 19.4915 93.2706 20.7276 93.057C21.7211 92.857 22.7591 92.7607 23.7749 92.7607C34.5257 92.7385 50.6205 92.7459 61.3787 92.7459H63.6994V80.1145L18.1412 80.115C9.54304 80.115 0.5625 88.5203 0.5625 98.9388C0.561458 108.533 8.6082 117.208 20.2759 117.208H45.2809C46.7452 117.235 48.1915 117.536 49.5442 118.097C52.4951 119.327 54.0298 122.128 53.496 124.869C52.7694 128.588 50.7082 130.47 47.3199 130.47H4.25936Z" fill="white"/>
<path d="M542.605 88.743H545.488V87.0522H537.585V88.743H540.573V96.9094H542.605V88.743Z" fill="white"/>
<path d="M554.134 96.9094H556.159V87.0522H553.206L551.353 94.5992L549.52 87.0522H546.55V96.9094H548.582V88.9425L550.344 96.9094H552.376L554.134 88.904V96.9094Z" fill="white"/>
<path d="M261.908 154.294H263.947V153.098H258.358V154.294H260.472V160.069H261.908V154.294Z" fill="white"/>
<path d="M270.061 160.069H271.493V153.098H269.405L268.094 158.435L266.799 153.098H264.698V160.069H266.135V154.435L267.381 160.069H268.818L270.061 154.408V160.069Z" fill="white"/>
<path fill-rule="evenodd" clip-rule="evenodd" d="M1 30.2118C1 46.706 13.8266 60.3097 33.0227 60.3162H213.812C233.008 60.3097 245.834 46.706 245.834 30.2118C245.834 13.7176 232.978 -0.042175 213.841 9.71414e-05H32.9934C13.8559 -0.0421703 1 13.7176 1 30.2118ZM8.55615 30.1727C8.55615 17.6062 17.8843 7.44894 33.0812 7.41968L213.756 7.42292C228.953 7.45219 238.281 17.6095 238.281 30.1727C238.281 42.736 229.008 52.9746 213.753 52.9225H33.0812C17.8258 52.9778 8.55615 42.736 8.55615 30.1727Z" fill="white"/>
<path fill-rule="evenodd" clip-rule="evenodd" d="M218.994 20.5031C218.994 18.0906 220.951 16.1333 223.364 16.1333C225.776 16.1333 227.734 18.0906 227.734 20.5031C227.734 22.9156 225.776 24.873 223.364 24.873C220.951 24.873 218.994 22.9156 218.994 20.5031ZM223.364 24.0406C225.315 24.0406 226.898 22.4572 226.898 20.5063C226.898 18.5523 225.315 16.9721 223.364 16.9721C221.413 16.9721 219.83 18.5555 219.83 20.5063C219.83 22.4572 221.413 24.0406 223.364 24.0406Z" fill="white"/>
<path fill-rule="evenodd" clip-rule="evenodd" d="M225.539 19.4205C225.539 18.4938 224.853 18.0256 223.471 18.0256H221.572V22.8669H222.753V20.8836H223.328L224.255 22.8669H225.565L224.482 20.7048C225.142 20.5389 225.539 20.0577 225.539 19.4205ZM223.328 20.1748H222.753V18.767H223.269C223.978 18.767 224.326 18.9848 224.326 19.4888C224.326 19.97 224.001 20.1748 223.328 20.1748Z" fill="white"/>
<path fill-rule="evenodd" clip-rule="evenodd" d="M131.091 38.8441C131.091 37.7841 131.084 37.6996 131.084 37.6996L139.59 37.693C138.104 42.1506 133.237 45.4377 127.475 45.4377C120.53 45.4377 114.902 40.694 114.902 34.8383C114.902 28.9826 120.53 24.2356 127.475 24.2356C134.42 24.2356 140.074 29.0866 140.074 34.9423C140.074 34.9522 123.99 34.9457 123.99 34.9457C123.99 34.9457 123.983 37.8101 123.983 38.8441C123.983 42.297 126.295 43.0643 127.557 43.0643C128.818 43.0643 131.091 42.297 131.091 38.8441ZM124.556 28.3031C124.013 29.246 123.977 30.3515 123.99 32.0064L131.114 32.0097C131.127 30.3547 131.104 29.2493 130.561 28.3031C129.895 27.1397 128.67 26.587 127.558 26.5799C127.559 26.5799 127.559 26.5799 127.56 26.5799H127.557C127.557 26.5799 127.558 26.5799 127.558 26.5799C126.447 26.587 125.222 27.1397 124.556 28.3031Z" fill="white"/>
<path d="M157.95 24.5512C161.143 24.4601 167.619 26.5508 167.574 34.0256C167.567 35.3522 167.57 44.3 167.57 44.3H159.088C159.088 44.3 159.088 33.0795 159.088 31.8992C159.088 30.2541 157.514 28.4235 155.186 28.4235C152.861 28.4235 151.132 30.2541 151.132 31.8992C151.132 32.7056 151.141 44.3 151.141 44.3H142.665L142.672 25.4193L151.145 25.4128C151.145 25.4128 151.135 26.9312 151.145 27.3994C152.777 25.8419 155.131 24.6324 157.95 24.5512L157.95 24.5512Z" fill="white"/>
<path d="M88.5596 24.5512C91.7524 24.4601 98.2292 26.5508 98.1836 34.0256C98.1771 35.3522 98.1803 44.3 98.1803 44.3H89.6975C89.6975 44.3 89.6975 33.0795 89.6975 31.8992C89.6975 30.2541 88.1238 28.4235 85.7958 28.4235C83.4711 28.4235 81.7414 30.2541 81.7414 31.8992C81.7414 32.7056 81.7511 44.3 81.7511 44.3H73.2748L73.2715 25.4193L81.7543 25.4128C81.7543 25.4128 81.7445 26.9312 81.7543 27.3994C83.3865 25.8419 85.7372 24.6324 88.5594 24.5512L88.5596 24.5512Z" fill="white"/>
<path fill-rule="evenodd" clip-rule="evenodd" d="M194.404 15.9121H185.976H185.976C185.976 15.9121 185.976 21.9889 185.983 26.3587C184.617 25.5914 183.177 24.8534 181.151 24.6745C174.996 24.1348 170.295 29.5776 170.295 34.5619C170.295 41.1329 175.364 43.565 176.134 43.9226C179.005 45.2622 182.692 45.2654 185.96 43.2138C185.96 43.3894 185.963 44.3063 185.963 44.3063H194.404V15.9121ZM186.038 31.3951V34.77H186.038C186.038 34.77 186.041 36.9062 186.041 38.1189C186.041 41.0354 184.022 41.7995 182.693 41.7995C181.337 41.7995 179.347 41.0354 179.347 38.1189C179.347 37.1143 179.35 34.7603 179.35 34.7603C179.35 34.7603 179.347 32.364 179.347 31.3951C179.347 28.4754 181.337 27.7308 182.696 27.7308C184.022 27.7308 186.038 28.4754 186.038 31.3951Z" fill="white"/>
<path fill-rule="evenodd" clip-rule="evenodd" d="M197.185 34.7377C197.185 28.882 202.77 24.135 209.663 24.135C216.556 24.135 222.142 28.882 222.142 34.7377C222.142 40.5934 216.556 45.3404 209.663 45.3404C202.774 45.3404 197.185 40.5934 197.185 34.7377ZM213.09 38.7142C213.09 37.5697 213.093 34.715 213.093 34.715L213.097 34.7247C213.089 34.1088 213.089 32.5947 213.09 31.4349C213.09 31.1681 213.09 30.9201 213.09 30.706C213.09 27.7083 211.305 26.476 209.602 26.476C207.901 26.476 206.113 27.7083 206.113 30.706C206.113 31.8505 206.106 34.6434 206.106 34.6434C206.106 34.6434 206.103 37.5697 206.103 38.7142C206.103 41.7249 207.888 42.9669 209.601 42.9669C211.312 42.9669 213.09 41.7249 213.09 38.7142Z" fill="white"/>
<path d="M60.0127 21.7094V15.9058H68.5703V21.7094H60.0127Z" fill="white"/>
<path d="M60.0322 44.3063V25.4224L68.5703 25.4257V44.3064L60.0322 44.3063Z" fill="white"/>
<path d="M102.868 44.3066L102.871 25.4617H98.2285V22.659L102.875 22.6556L102.868 18.832H111.413V22.6524H116.036V25.4616H111.413L111.419 44.3065L102.868 44.3066Z" fill="white"/>
<path d="M25.2842 44.3063L25.2874 15.9121H34.1344L46.3725 35.7129L46.366 15.9121H55.1447V44.3063H46.379L34.0759 24.5055V44.3063H25.2842Z" fill="white"/>
</svg>
