<svg width="723" height="85" viewBox="0 0 723 85" fill="none" xmlns="http://www.w3.org/2000/svg">
<g id="gamemeta">
<g id="GAME DETAILS">
<g id="ICON DIVIDERS" opacity="0.351446">
<rect id="Rectangle" x="170" width="1" height="73" fill="white"/>
<rect id="Rectangle_2" x="361" width="1" height="73" fill="white"/>
<rect id="Rectangle_3" x="552" width="1" height="73" fill="white"/>
</g>
<g id="MD_LBL_PLAYERS INFO">
<g id="PLAYERS - ICON">
<path id="Oval" d="M258.5 8C258.5 11.5899 255.59 14.5 252 14.5C248.41 14.5 245.5 11.5899 245.5 8C245.5 4.41015 248.41 1.5 252 1.5C255.59 1.5 258.5 4.41015 258.5 8Z" stroke="white" stroke-width="3"/>
<path id="Rectangle_4" d="M245 19.5H259C262.038 19.5 264.5 21.9624 264.5 25V36.5H239.5V25C239.5 21.9624 241.962 19.5 245 19.5Z" stroke="white" stroke-width="3"/>
<path id="Oval_2" d="M287.5 8C287.5 11.5899 284.59 14.5 281 14.5C277.41 14.5 274.5 11.5899 274.5 8C274.5 4.41015 277.41 1.5 281 1.5C284.59 1.5 287.5 4.41015 287.5 8Z" stroke="white" stroke-width="3"/>
<path id="Rectangle_5" d="M274 19.5H288C291.038 19.5 293.5 21.9624 293.5 25V36.5H268.5V25C268.5 21.9624 270.962 19.5 274 19.5Z" stroke="white" stroke-width="3"/>
</g>
</g>
<g id="MD_DEVELOPER INFO">
<g id="PROCESSOR - ICON">
<g id="Group 51">
<rect id="Rectangle_6" x="420" y="13" width="8" height="3" rx="1.5" fill="white"/>
<rect id="Rectangle_7" x="420" y="18" width="8" height="3" rx="1.5" fill="white"/>
<rect id="Rectangle_8" x="420" y="23" width="8" height="3" rx="1.5" fill="white"/>
</g>
<g id="Group 52">
<rect id="Rectangle_9" x="448" y="1" width="7" height="3" rx="1.5" transform="rotate(90 448 1)" fill="white"/>
<rect id="Rectangle_10" x="443" y="1" width="7" height="3" rx="1.5" transform="rotate(90 443 1)" fill="white"/>
<rect id="Rectangle_11" x="438" y="1" width="7" height="3" rx="1.5" transform="rotate(90 438 1)" fill="white"/>
<rect id="Rectangle_12" x="463" y="1" width="7" height="3" rx="1.5" transform="rotate(90 463 1)" fill="white"/>
<rect id="Rectangle_13" x="458" y="1" width="7" height="3" rx="1.5" transform="rotate(90 458 1)" fill="white"/>
<rect id="Rectangle_14" x="453" y="1" width="7" height="3" rx="1.5" transform="rotate(90 453 1)" fill="white"/>
<rect id="Rectangle_15" x="478" y="1" width="7" height="3" rx="1.5" transform="rotate(90 478 1)" fill="white"/>
<rect id="Rectangle_16" x="468" y="1" width="7" height="3" rx="1.5" transform="rotate(90 468 1)" fill="white"/>
<rect id="Rectangle_17" x="473" y="1" width="7" height="3" rx="1.5" transform="rotate(90 473 1)" fill="white"/>
</g>
<g id="Group 52_2">
<rect id="Rectangle_18" x="448" y="31" width="7" height="3" rx="1.5" transform="rotate(90 448 31)" fill="white"/>
<rect id="Rectangle_19" x="443" y="31" width="7" height="3" rx="1.5" transform="rotate(90 443 31)" fill="white"/>
<rect id="Rectangle_20" x="438" y="31" width="7" height="3" rx="1.5" transform="rotate(90 438 31)" fill="white"/>
<rect id="Rectangle_21" x="463" y="31" width="7" height="3" rx="1.5" transform="rotate(90 463 31)" fill="white"/>
<rect id="Rectangle_22" x="458" y="31" width="7" height="3" rx="1.5" transform="rotate(90 458 31)" fill="white"/>
<rect id="Rectangle_23" x="453" y="31" width="7" height="3" rx="1.5" transform="rotate(90 453 31)" fill="white"/>
<rect id="Rectangle_24" x="478" y="31" width="7" height="3" rx="1.5" transform="rotate(90 478 31)" fill="white"/>
<rect id="Rectangle_25" x="468" y="31" width="7" height="3" rx="1.5" transform="rotate(90 468 31)" fill="white"/>
<rect id="Rectangle_26" x="473" y="31" width="7" height="3" rx="1.5" transform="rotate(90 473 31)" fill="white"/>
</g>
<g id="Group 51_2">
<rect id="Rectangle_27" x="486" y="13" width="8" height="3" rx="1.5" fill="white"/>
<rect id="Rectangle_28" x="486" y="18" width="8" height="3" rx="1.5" fill="white"/>
<rect id="Rectangle_29" x="486" y="23" width="8" height="3" rx="1.5" fill="white"/>
</g>
<path id="Rectangle (Stroke)" fill-rule="evenodd" clip-rule="evenodd" d="M428 9V30H485V9H428ZM427.556 6C426.144 6 425 7.14416 425 8.55556V30.4444C425 31.8558 426.144 33 427.556 33H485.444C486.856 33 488 31.8558 488 30.4444V8.55556C488 7.14416 486.856 6 485.444 6H427.556Z" fill="white"/>
<path id="Rectangle (Stroke)_2" fill-rule="evenodd" clip-rule="evenodd" d="M480 14H433V25H480V14ZM431 12V27H482V12H431Z" fill="white"/>
</g>
</g>
<g id="RELEASEDATE - INFO">
<g id="RELEASEDATE - ICON">
<rect id="Rectangle_30" x="632" width="10" height="3" rx="1.5" transform="rotate(90 632 0)" fill="white"/>
<rect id="Rectangle_31" x="620" y="11" width="57" height="2" fill="white"/>
<rect id="Rectangle_32" x="668" width="10" height="3" rx="1.5" transform="rotate(90 668 0)" fill="white"/>
<path id="Rectangle (Stroke)_3" fill-rule="evenodd" clip-rule="evenodd" d="M623 6V35H674V6H623ZM622.556 3C621.144 3 620 4.14416 620 5.55556V35.4444C620 36.8558 621.144 38 622.556 38H674.444C675.856 38 677 36.8558 677 35.4444V5.55556C677 4.14416 675.856 3 674.444 3H622.556Z" fill="white"/>
<path id="Oval_3" fill-rule="evenodd" clip-rule="evenodd" d="M634.5 18C635.328 18 636 17.3284 636 16.5C636 15.6716 635.328 15 634.5 15C633.672 15 633 15.6716 633 16.5C633 17.3284 633.672 18 634.5 18Z" fill="white"/>
<path id="Oval_4" fill-rule="evenodd" clip-rule="evenodd" d="M641.5 18C642.328 18 643 17.3284 643 16.5C643 15.6716 642.328 15 641.5 15C640.672 15 640 15.6716 640 16.5C640 17.3284 640.672 18 641.5 18Z" fill="white"/>
<path id="Oval_5" fill-rule="evenodd" clip-rule="evenodd" d="M648.5 18C649.328 18 650 17.3284 650 16.5C650 15.6716 649.328 15 648.5 15C647.672 15 647 15.6716 647 16.5C647 17.3284 647.672 18 648.5 18Z" fill="white"/>
<path id="Oval_6" fill-rule="evenodd" clip-rule="evenodd" d="M655.5 18C656.328 18 657 17.3284 657 16.5C657 15.6716 656.328 15 655.5 15C654.672 15 654 15.6716 654 16.5C654 17.3284 654.672 18 655.5 18Z" fill="white"/>
<path id="Oval_7" fill-rule="evenodd" clip-rule="evenodd" d="M662.5 18C663.328 18 664 17.3284 664 16.5C664 15.6716 663.328 15 662.5 15C661.672 15 661 15.6716 661 16.5C661 17.3284 661.672 18 662.5 18Z" fill="white"/>
<path id="Oval_8" fill-rule="evenodd" clip-rule="evenodd" d="M669.5 18C670.328 18 671 17.3284 671 16.5C671 15.6716 670.328 15 669.5 15C668.672 15 668 15.6716 668 16.5C668 17.3284 668.672 18 669.5 18Z" fill="white"/>
<path id="Oval_9" fill-rule="evenodd" clip-rule="evenodd" d="M627.5 23C628.328 23 629 22.3284 629 21.5C629 20.6716 628.328 20 627.5 20C626.672 20 626 20.6716 626 21.5C626 22.3284 626.672 23 627.5 23Z" fill="white"/>
<path id="Oval_10" fill-rule="evenodd" clip-rule="evenodd" d="M634.5 23C635.328 23 636 22.3284 636 21.5C636 20.6716 635.328 20 634.5 20C633.672 20 633 20.6716 633 21.5C633 22.3284 633.672 23 634.5 23Z" fill="white"/>
<path id="Oval_11" fill-rule="evenodd" clip-rule="evenodd" d="M641.5 23C642.328 23 643 22.3284 643 21.5C643 20.6716 642.328 20 641.5 20C640.672 20 640 20.6716 640 21.5C640 22.3284 640.672 23 641.5 23Z" fill="white"/>
<path id="Oval_12" fill-rule="evenodd" clip-rule="evenodd" d="M648.5 23C649.328 23 650 22.3284 650 21.5C650 20.6716 649.328 20 648.5 20C647.672 20 647 20.6716 647 21.5C647 22.3284 647.672 23 648.5 23Z" fill="white"/>
<path id="Oval_13" fill-rule="evenodd" clip-rule="evenodd" d="M655.5 23C656.328 23 657 22.3284 657 21.5C657 20.6716 656.328 20 655.5 20C654.672 20 654 20.6716 654 21.5C654 22.3284 654.672 23 655.5 23Z" fill="white"/>
<path id="Oval_14" fill-rule="evenodd" clip-rule="evenodd" d="M662.5 23C663.328 23 664 22.3284 664 21.5C664 20.6716 663.328 20 662.5 20C661.672 20 661 20.6716 661 21.5C661 22.3284 661.672 23 662.5 23Z" fill="white"/>
<path id="Oval_15" fill-rule="evenodd" clip-rule="evenodd" d="M669.5 23C670.328 23 671 22.3284 671 21.5C671 20.6716 670.328 20 669.5 20C668.672 20 668 20.6716 668 21.5C668 22.3284 668.672 23 669.5 23Z" fill="white"/>
<path id="Oval_16" fill-rule="evenodd" clip-rule="evenodd" d="M627.5 28C628.328 28 629 27.3284 629 26.5C629 25.6716 628.328 25 627.5 25C626.672 25 626 25.6716 626 26.5C626 27.3284 626.672 28 627.5 28Z" fill="white"/>
<path id="Oval_17" fill-rule="evenodd" clip-rule="evenodd" d="M634.5 28C635.328 28 636 27.3284 636 26.5C636 25.6716 635.328 25 634.5 25C633.672 25 633 25.6716 633 26.5C633 27.3284 633.672 28 634.5 28Z" fill="white"/>
<path id="Oval_18" fill-rule="evenodd" clip-rule="evenodd" d="M641.5 28C642.328 28 643 27.3284 643 26.5C643 25.6716 642.328 25 641.5 25C640.672 25 640 25.6716 640 26.5C640 27.3284 640.672 28 641.5 28Z" fill="white"/>
<path id="Oval_19" fill-rule="evenodd" clip-rule="evenodd" d="M648.5 28C649.328 28 650 27.3284 650 26.5C650 25.6716 649.328 25 648.5 25C647.672 25 647 25.6716 647 26.5C647 27.3284 647.672 28 648.5 28Z" fill="white"/>
<path id="Oval_20" fill-rule="evenodd" clip-rule="evenodd" d="M655.5 28C656.328 28 657 27.3284 657 26.5C657 25.6716 656.328 25 655.5 25C654.672 25 654 25.6716 654 26.5C654 27.3284 654.672 28 655.5 28Z" fill="white"/>
<path id="Oval_21" fill-rule="evenodd" clip-rule="evenodd" d="M662.5 28C663.328 28 664 27.3284 664 26.5C664 25.6716 663.328 25 662.5 25C661.672 25 661 25.6716 661 26.5C661 27.3284 661.672 28 662.5 28Z" fill="white"/>
<path id="Oval_22" fill-rule="evenodd" clip-rule="evenodd" d="M669.5 28C670.328 28 671 27.3284 671 26.5C671 25.6716 670.328 25 669.5 25C668.672 25 668 25.6716 668 26.5C668 27.3284 668.672 28 669.5 28Z" fill="white"/>
<path id="Oval_23" fill-rule="evenodd" clip-rule="evenodd" d="M627.5 33C628.328 33 629 32.3284 629 31.5C629 30.6716 628.328 30 627.5 30C626.672 30 626 30.6716 626 31.5C626 32.3284 626.672 33 627.5 33Z" fill="white"/>
<path id="Oval_24" fill-rule="evenodd" clip-rule="evenodd" d="M634.5 33C635.328 33 636 32.3284 636 31.5C636 30.6716 635.328 30 634.5 30C633.672 30 633 30.6716 633 31.5C633 32.3284 633.672 33 634.5 33Z" fill="white"/>
<path id="Oval_25" fill-rule="evenodd" clip-rule="evenodd" d="M641.5 33C642.328 33 643 32.3284 643 31.5C643 30.6716 642.328 30 641.5 30C640.672 30 640 30.6716 640 31.5C640 32.3284 640.672 33 641.5 33Z" fill="white"/>
<path id="Oval_26" fill-rule="evenodd" clip-rule="evenodd" d="M648.5 33C649.328 33 650 32.3284 650 31.5C650 30.6716 649.328 30 648.5 30C647.672 30 647 30.6716 647 31.5C647 32.3284 647.672 33 648.5 33Z" fill="white"/>
<path id="Oval_27" fill-rule="evenodd" clip-rule="evenodd" d="M655.5 33C656.328 33 657 32.3284 657 31.5C657 30.6716 656.328 30 655.5 30C654.672 30 654 30.6716 654 31.5C654 32.3284 654.672 33 655.5 33Z" fill="white"/>
<path id="Oval_28" fill-rule="evenodd" clip-rule="evenodd" d="M662.5 33C663.328 33 664 32.3284 664 31.5C664 30.6716 663.328 30 662.5 30C661.672 30 661 30.6716 661 31.5C661 32.3284 661.672 33 662.5 33Z" fill="white"/>
</g>
</g>
</g>
<g id="Group 360">
<g id="Group 356">
<path id="Rectangle 335" d="M44.2757 3.67301H110.725C111.357 3.67301 111.87 4.18595 111.87 4.81868V39.9525C111.87 40.5853 111.357 41.0982 110.725 41.0982H44.2757C43.643 41.0982 43.13 40.5853 43.13 39.9525V4.81868C43.13 4.18595 43.643 3.67301 44.2757 3.67301Z" stroke="white" stroke-width="2.29134"/>
<rect id="Rectangle 120" x="48.8585" y="7.87413" width="57.2835" height="29.7874" stroke="white" stroke-width="1.52756"/>
</g>
<g id="Group 357">
<path id="Oval_29" d="M39.3109 12.9037C39.3109 14.3945 38.1101 15.5958 36.6377 15.5958C35.1653 15.5958 33.9645 14.3945 33.9645 12.9037C33.9645 11.4129 35.1653 10.2115 36.6377 10.2115C38.1101 10.2115 39.3109 11.4129 39.3109 12.9037Z" stroke="white" stroke-width="1.52756"/>
<g id="Group 354">
<path id="Oval_30" d="M37.2273 21.5599C37.2273 21.8935 36.9594 22.1567 36.6379 22.1567C36.3163 22.1567 36.0484 21.8935 36.0484 21.5599C36.0484 21.2263 36.3163 20.963 36.6379 20.963C36.9594 20.963 37.2273 21.2263 37.2273 21.5599Z" fill="white" stroke="white" stroke-width="1.52756"/>
<path id="Oval_31" d="M34.5202 24.2811C34.5202 24.6146 34.2524 24.8779 33.9308 24.8779C33.6093 24.8779 33.3414 24.6146 33.3414 24.2811C33.3414 23.9475 33.6093 23.6842 33.9308 23.6842C34.2524 23.6842 34.5202 23.9475 34.5202 24.2811Z" fill="white" stroke="white" stroke-width="1.52756"/>
<path id="Oval_32" d="M39.9333 24.2811C39.9333 24.6146 39.6655 24.8779 39.3439 24.8779C39.0223 24.8779 38.7545 24.6146 38.7545 24.2811C38.7545 23.9475 39.0223 23.6842 39.3439 23.6842C39.6655 23.6842 39.9333 23.9475 39.9333 24.2811Z" fill="white" stroke="white" stroke-width="1.52756"/>
<path id="Oval_33" d="M37.2273 27.0027C37.2273 27.3363 36.9594 27.5996 36.6379 27.5996C36.3163 27.5996 36.0484 27.3363 36.0484 27.0027C36.0484 26.6691 36.3163 26.4059 36.6379 26.4059C36.9594 26.4059 37.2273 26.6691 37.2273 27.0027Z" fill="white" stroke="white" stroke-width="1.52756"/>
</g>
<path id="Ellipse 62" d="M38.6068 1.56656C36.7047 1.44938 34.8056 1.89152 33.1183 2.84431C31.4311 3.7971 30.0212 5.22362 29.0437 6.96688L30.3183 7.76579L34.1782 4.25802L38.5049 3.23861L38.6068 1.56656Z" fill="white"/>
<path id="Rectangle 334" d="M37.4016 3.45475H41.9843C42.617 3.45475 43.1299 3.96768 43.1299 4.60042V39.953C43.1299 40.5857 42.617 41.0986 41.9843 41.0986H37.4016C33.3942 41.0986 30.1457 37.8501 30.1457 33.8427V10.7107C30.1457 6.70334 33.3943 3.45475 37.4016 3.45475Z" stroke="white" stroke-width="2.29134"/>
<rect id="Rectangle 131" x="37.0196" y="30.5655" width="2.29134" height="2.30816" rx="0.38189" stroke="white" stroke-width="0.76378"/>
<rect id="Rectangle 336" x="38.9292" y="6.37598" width="2.29134" height="0.767985" fill="white"/>
</g>
<g id="Group 358">
<path id="Oval_34" d="M121.035 24.4232C121.035 25.914 119.834 27.1154 118.362 27.1154C116.889 27.1154 115.689 25.914 115.689 24.4232C115.689 22.9324 116.889 21.7311 118.362 21.7311C119.834 21.7311 121.035 22.9324 121.035 24.4232Z" stroke="white" stroke-width="1.52756"/>
<g id="Group 355">
<path id="Oval_35" d="M118.952 10.1824C118.952 10.516 118.684 10.7793 118.362 10.7793C118.041 10.7793 117.773 10.516 117.773 10.1824C117.773 9.84882 118.041 9.58556 118.362 9.58556C118.684 9.58556 118.952 9.84882 118.952 10.1824Z" fill="white" stroke="white" stroke-width="1.52756"/>
<path id="Oval_36" d="M116.245 12.9036C116.245 13.2372 115.977 13.5005 115.655 13.5005C115.334 13.5005 115.066 13.2372 115.066 12.9036C115.066 12.57 115.334 12.3067 115.655 12.3067C115.977 12.3067 116.245 12.57 116.245 12.9036Z" fill="white" stroke="white" stroke-width="1.52756"/>
<path id="Oval_37" d="M121.658 12.9036C121.658 13.2372 121.39 13.5005 121.069 13.5005C120.747 13.5005 120.479 13.2372 120.479 12.9036C120.479 12.57 120.747 12.3067 121.069 12.3067C121.39 12.3067 121.658 12.57 121.658 12.9036Z" fill="white" stroke="white" stroke-width="1.52756"/>
<path id="Oval_38" d="M118.952 15.6253C118.952 15.9589 118.684 16.2222 118.362 16.2222C118.041 16.2222 117.773 15.9589 117.773 15.6253C117.773 15.2917 118.041 15.0284 118.362 15.0284C118.684 15.0284 118.952 15.2917 118.952 15.6253Z" fill="white" stroke="white" stroke-width="1.52756"/>
</g>
<path id="Ellipse 194" d="M116.393 1.56656C118.295 1.44938 120.194 1.89152 121.881 2.84431C123.568 3.7971 124.978 5.22362 125.956 6.96688L124.681 7.76579L120.821 4.25802L116.495 3.23861L116.393 1.56656Z" fill="white"/>
<path id="Rectangle 333" d="M117.598 3.45475H113.015C112.383 3.45475 111.87 3.96768 111.87 4.60042V39.953C111.87 40.5857 112.383 41.0986 113.015 41.0986H117.598C121.605 41.0986 124.854 37.8501 124.854 33.8427V10.7107C124.854 6.70334 121.605 3.45475 117.598 3.45475Z" stroke="white" stroke-width="2.29134"/>
<path id="Ellipse 57" d="M117.216 31.7196C117.216 32.3589 116.701 32.8736 116.071 32.8736C115.44 32.8736 114.925 32.3589 114.925 31.7196C114.925 31.0802 115.44 30.5655 116.071 30.5655C116.701 30.5655 117.216 31.0802 117.216 31.7196Z" stroke="white" stroke-width="0.76378"/>
<rect id="Rectangle 337" x="113.779" y="6.37598" width="2.29134" height="0.767985" fill="white"/>
<rect id="Rectangle 338" x="114.543" y="7.91162" width="2.30396" height="0.76378" transform="rotate(-90 114.543 7.91162)" fill="white"/>
</g>
</g>
</g>
</svg>
