<svg width="723" height="85" viewBox="0 0 723 85" fill="none" xmlns="http://www.w3.org/2000/svg">
<g id="gamemeta">
<g id="Group 312">
<g id="Group 309">
<g id="Group 307">
<g id="Group 290">
<path id="Polygon 30" d="M48.5715 11.0379C48.3002 11.2969 47.8732 11.2969 47.6019 11.0379L45.9152 9.42791C45.5448 9.07436 45.5507 8.47046 45.8009 8.04973C46.0653 7.60538 46.7193 7.13431 47.2143 6.98528C47.4278 6.92104 47.7109 6.87842 48.0867 6.87842C48.4624 6.87842 48.7456 6.92104 48.959 6.98528C49.4541 7.13431 50.1081 7.60538 50.3724 8.04973C50.6227 8.47046 50.6286 9.07436 50.2582 9.42791L48.5715 11.0379Z" fill="white"/>
<path id="Polygon 31" d="M47.6009 13.9476C47.8722 13.6887 48.2992 13.6887 48.5705 13.9476L50.2572 15.5577C50.6276 15.9112 50.6217 16.5151 50.3714 16.9359C50.1071 17.3802 49.4531 17.8513 48.958 18.0003C48.7446 18.0646 48.4614 18.1072 48.0857 18.1072C47.7099 18.1072 47.4268 18.0646 47.2134 18.0003C46.7183 17.8513 46.0643 17.3802 45.8 16.9359C45.5497 16.5151 45.5438 15.9112 45.9142 15.5577L47.6009 13.9476Z" fill="white"/>
</g>
<g id="Group 291">
<path id="Polygon 32" d="M46.6322 12.0079C46.8912 12.2792 46.8912 12.7061 46.6322 12.9775L45.0222 14.6642C44.6686 15.0346 44.0647 15.0287 43.644 14.7784C43.1996 14.5141 42.7285 13.8601 42.5795 13.365C42.5153 13.1516 42.4727 12.8684 42.4727 12.4927C42.4727 12.1169 42.5153 11.8337 42.5795 11.6203C42.7285 11.1252 43.1996 10.4713 43.644 10.2069C44.0647 9.95667 44.6686 9.95078 45.0222 10.3212L46.6322 12.0079Z" fill="white"/>
<path id="Polygon 33" d="M49.5412 12.9775C49.2822 12.7062 49.2822 12.2792 49.5412 12.0079L51.1512 10.3212C51.5047 9.9508 52.1086 9.95669 52.5294 10.207C52.9737 10.4713 53.4448 11.1253 53.5938 11.6204C53.6581 11.8338 53.7007 12.1169 53.7007 12.4927C53.7007 12.8684 53.6581 13.1516 53.5938 13.365C53.4448 13.8601 52.9737 14.5141 52.5294 14.7784C52.1086 15.0287 51.5047 15.0346 51.1512 14.6642L49.5412 12.9775Z" fill="white"/>
</g>
</g>
<path id="Ellipse 174 (Stroke)" fill-rule="evenodd" clip-rule="evenodd" d="M48.0865 18.4854C51.3962 18.4854 54.0792 15.8024 54.0792 12.4927C54.0792 9.18303 51.3962 6.5 48.0865 6.5C44.7768 6.5 42.0938 9.18303 42.0938 12.4927C42.0938 15.8024 44.7768 18.4854 48.0865 18.4854ZM48.0865 19.4854C51.9484 19.4854 55.0792 16.3547 55.0792 12.4927C55.0792 8.63075 51.9484 5.5 48.0865 5.5C44.2245 5.5 41.0938 8.63075 41.0938 12.4927C41.0938 16.3547 44.2245 19.4854 48.0865 19.4854Z" fill="white"/>
</g>
<path id="Rectangle 299 (Stroke)" fill-rule="evenodd" clip-rule="evenodd" d="M89.3094 44.7048C89.3094 44.7048 95.1553 44.7417 99.6044 43.9081C102.184 43.4249 106.015 42.4105 108.78 41.6431C110.874 41.0618 112.383 39.2542 112.62 37.0937L113.086 32.8504V7.26275C113.086 4.14911 110.562 1.625 107.448 1.625H44.2113C41.9394 1.625 39.8276 2.7992 38.9975 4.91395C37.8261 7.89847 36.4248 12.8178 36.4248 19.2736C36.4248 26.2283 38.3279 33.9292 39.7476 38.7067C40.5965 41.5633 43.1726 43.4934 46.1489 43.645C49.0797 43.7944 52.7854 43.9397 55.6667 43.9081C59.0433 43.8711 61.5743 43.569 64.129 43.264C66.2555 43.0101 68.3985 42.7542 71.0592 42.6477C72.8031 42.5779 74.5453 42.7655 76.264 43.0692C79.5946 43.6579 82.8491 44.1631 83.1576 44.2109C83.1753 44.2136 83.1903 44.2153 83.2082 44.2167L89.3094 44.7048ZM89.396 42.6103C89.4359 42.6104 89.4915 42.6103 89.5616 42.6101C89.7226 42.6095 89.96 42.6077 90.2599 42.6031C90.8601 42.5938 91.7074 42.5729 92.69 42.5267C94.6734 42.4333 97.1351 42.2396 99.2187 41.8493C101.699 41.3847 105.45 40.3935 108.219 39.6247C109.471 39.2773 110.392 38.1915 110.538 36.865L110.991 32.7356V7.26275C110.991 5.30597 109.405 3.71968 107.448 3.71968H44.2113C42.6215 3.71968 41.4019 4.52139 40.9474 5.67929C39.854 8.46489 38.5195 13.124 38.5195 19.2736C38.5195 25.9173 40.3507 33.3827 41.7555 38.11C42.3387 40.0723 44.1198 41.4442 46.2555 41.5531C49.1789 41.7021 52.8308 41.8444 55.6438 41.8136C58.6243 41.7809 60.9202 41.535 63.2405 41.2603C63.4545 41.2349 63.6691 41.2093 63.8847 41.1835C66.0081 40.9299 68.2285 40.6647 70.9754 40.5547C72.9203 40.4769 74.8223 40.6873 76.6286 41.0065C79.8005 41.5672 82.9067 42.0522 83.4255 42.1327L89.396 42.6103Z" fill="white"/>
<path id="Rectangle 300 (Stroke)" fill-rule="evenodd" clip-rule="evenodd" d="M56.1827 20.52C55.8339 28.515 57.9086 35.404 58.7554 37.8437C58.822 38.0354 59.0057 38.1853 59.259 38.1992L60.1079 38.2455C60.4067 38.2618 60.6756 38.0649 60.7503 37.775C61.0482 36.6186 62.0884 35.8085 63.2825 35.8027L71.9055 35.7612C72.6331 35.7577 73.307 36.1434 73.6725 36.7726L73.7036 36.8262C74.0401 36.1719 74.715 35.7583 75.454 35.7583H78.8219C80.0117 35.7583 81.0377 36.5946 81.2776 37.76C81.3306 38.0178 81.5722 38.1922 81.8337 38.1613L95.348 36.5659C96.2561 36.4587 96.9555 35.9228 97.204 35.1757C97.9495 32.9339 99.0608 28.4102 99.0608 21.3541C99.0608 14.2819 98.5687 10.2691 98.2346 8.36053C98.1579 7.92237 97.7873 7.56998 97.248 7.52039C93.0185 7.13144 81.2786 6.06826 75.7773 5.73541C70.3058 5.40437 61.8271 5.61133 58.82 5.70158C58.5639 5.70927 58.3806 5.8644 58.323 6.05867C57.739 8.02736 56.5126 12.956 56.1827 20.52ZM58.79 4.70203C58.1295 4.72185 57.5522 5.14078 57.3643 5.7743C56.7594 7.81346 55.5175 12.8231 55.1836 20.4764C54.8271 28.6507 56.9445 35.6761 57.8107 38.1716C58.0186 38.7705 58.5715 39.1631 59.2046 39.1977L60.0534 39.244C60.8281 39.2862 61.525 38.7759 61.7186 38.0245C61.9032 37.3082 62.5476 36.8063 63.2873 36.8027L71.9103 36.7612C72.2799 36.7594 72.6222 36.9553 72.8078 37.2749L72.8683 37.3791C73.2594 38.0523 74.2447 38.0124 74.5799 37.3097C74.7407 36.9728 75.0807 36.7583 75.454 36.7583H78.8219C79.5372 36.7583 80.1539 37.261 80.2981 37.9616C80.4558 38.728 81.1739 39.2462 81.951 39.1544L95.4653 37.559C96.6934 37.414 97.7627 36.6647 98.1529 35.4912C98.9323 33.1476 100.061 28.5173 100.061 21.3541C100.061 14.2372 99.5657 10.1652 99.2196 8.18809C99.0569 7.25852 98.2793 6.61101 97.3396 6.52459C93.1161 6.13619 81.3582 5.07125 75.8377 4.73724C70.3139 4.40303 61.7907 4.61197 58.79 4.70203Z" fill="white"/>
<path id="Rectangle 301" d="M62.5557 38.673C62.5557 38.1559 62.9748 37.7368 63.4918 37.7368H65.8907C66.4078 37.7368 66.8269 38.1559 66.8269 38.673V38.673C66.8269 39.19 66.4078 39.6091 65.8907 39.6091H63.4918C62.9748 39.6091 62.5557 39.19 62.5557 38.673V38.673Z" fill="white"/>
<path id="Rectangle 302" d="M68.1147 38.673C68.1147 38.1559 68.5339 37.7368 69.0509 37.7368H71.4498C71.9668 37.7368 72.386 38.1559 72.386 38.673V38.673C72.386 39.19 71.9668 39.6091 71.4498 39.6091H69.0509C68.5339 39.6091 68.1147 39.19 68.1147 38.673V38.673Z" fill="white"/>
<path id="Rectangle 303" d="M74.96 38.673C74.96 38.1559 75.3791 37.7368 75.8961 37.7368H78.295C78.8121 37.7368 79.2312 38.1559 79.2312 38.673V38.673C79.2312 39.19 78.8121 39.6091 78.295 39.6091H75.8961C75.3791 39.6091 74.96 39.19 74.96 38.673V38.673Z" fill="white"/>
<g id="Group 305">
<path id="Polygon 31_2" d="M102.388 32.7528C102.659 32.4938 103.086 32.4938 103.358 32.7528L105.044 34.3629C105.415 34.7164 105.409 35.3203 105.159 35.741C104.894 36.1854 104.24 36.6565 103.745 36.8055C103.532 36.8697 103.249 36.9124 102.873 36.9124C102.497 36.9124 102.214 36.8697 102 36.8055C101.505 36.6565 100.851 36.1854 100.587 35.741C100.337 35.3203 100.331 34.7164 100.701 34.3629L102.388 32.7528Z" fill="white"/>
</g>
<g id="Group 306">
<path id="Polygon 33_2" d="M104.327 31.7829C104.068 31.5116 104.068 31.0846 104.327 30.8133L105.937 29.1266C106.29 28.7562 106.894 28.7621 107.315 29.0124C107.759 29.2767 108.23 29.9307 108.379 30.4258C108.444 30.6392 108.486 30.9224 108.486 31.2981C108.486 31.6739 108.444 31.957 108.379 32.1704C108.23 32.6655 107.759 33.3195 107.315 33.5838C106.894 33.8341 106.29 33.84 105.937 33.4696L104.327 31.7829Z" fill="white"/>
</g>
<path id="Rectangle 304 (Stroke)" fill-rule="evenodd" clip-rule="evenodd" d="M92.3613 14.1094H62.4238V29.75H92.3613V14.1094ZM60.4238 12.1094V31.75H94.3613V12.1094H60.4238Z" fill="white"/>
<path id="Rectangle 305" d="M108.486 7.86738C108.486 7.65733 108.657 7.48706 108.867 7.48706H111.149V8.24769H108.867C108.657 8.24769 108.486 8.07742 108.486 7.86738V7.86738Z" fill="white"/>
<path id="Rectangle 306" d="M109.188 9.18378C109.188 8.97374 109.358 8.80347 109.568 8.80347H111.148V9.5641H109.568C109.358 9.5641 109.188 9.39382 109.188 9.18378V9.18378Z" fill="white"/>
<path id="Rectangle 307" d="M108.486 13.1332C108.486 12.9232 108.657 12.7529 108.867 12.7529H111.149V13.5136H108.867C108.657 13.5136 108.486 13.3433 108.486 13.1332V13.1332Z" fill="white"/>
<path id="Rectangle 308" d="M109.188 11.8168C109.188 11.6068 109.358 11.4365 109.568 11.4365H111.148V12.1972H109.568C109.358 12.1972 109.188 12.0269 109.188 11.8168V11.8168Z" fill="white"/>
<path id="Rectangle 309" d="M109.656 10.5004C109.656 10.2904 109.827 10.1201 110.037 10.1201H111.148V10.8807H110.037C109.827 10.8807 109.656 10.7105 109.656 10.5004V10.5004Z" fill="white"/>
<path id="Rectangle 310 (Stroke)" fill-rule="evenodd" clip-rule="evenodd" d="M94.7793 11.1201H59.8393C59.6506 11.1201 59.5293 11.2401 59.5033 11.3724C59.1725 13.0586 58.583 16.7868 58.583 21.9407C58.583 27.0946 59.1725 30.8227 59.5033 32.509C59.5293 32.6413 59.6506 32.7613 59.8393 32.7613H94.7793C94.8498 32.7613 94.8983 32.7428 94.9242 32.727C94.9462 32.7135 94.955 32.7011 94.9613 32.6858C95.4411 31.5063 96.4283 28.3061 96.4283 21.9407C96.4283 15.5753 95.4411 12.3751 94.9613 11.1956C94.955 11.1803 94.9462 11.1679 94.9242 11.1544C94.8983 11.1386 94.8498 11.1201 94.7793 11.1201ZM59.8393 10.1201C59.1997 10.1201 58.6451 10.5523 58.522 11.1799C58.181 12.9181 57.583 16.7114 57.583 21.9407C57.583 27.1699 58.181 30.9633 58.522 32.7015C58.6451 33.3291 59.1997 33.7613 59.8393 33.7613H94.7793C95.2626 33.7613 95.7054 33.5103 95.8875 33.0626C96.4253 31.7407 97.4283 28.4083 97.4283 21.9407C97.4283 15.4731 96.4253 12.1407 95.8875 10.8188C95.7054 10.3711 95.2626 10.1201 94.7793 10.1201H59.8393Z" fill="white"/>
<g id="Group 308">
<g id="Group 307_2">
<g id="Group 290_2">
<path id="Polygon 30_2" d="M48.5715 30.2254C48.3002 30.4844 47.8732 30.4844 47.6019 30.2254L45.9152 28.6154C45.5448 28.2619 45.5507 27.658 45.8009 27.2372C46.0653 26.7929 46.7193 26.3218 47.2143 26.1728C47.4278 26.1085 47.7109 26.0659 48.0867 26.0659C48.4624 26.0659 48.7456 26.1085 48.959 26.1728C49.4541 26.3218 50.1081 26.7929 50.3724 27.2372C50.6227 27.658 50.6286 28.2619 50.2582 28.6154L48.5715 30.2254Z" fill="white"/>
<path id="Polygon 31_3" d="M47.6009 33.1351C47.8722 32.8762 48.2992 32.8762 48.5705 33.1351L50.2572 34.7452C50.6276 35.0987 50.6217 35.7026 50.3714 36.1234C50.1071 36.5677 49.4531 37.0388 48.958 37.1878C48.7446 37.2521 48.4614 37.2947 48.0857 37.2947C47.7099 37.2947 47.4268 37.2521 47.2134 37.1878C46.7183 37.0388 46.0643 36.5677 45.8 36.1234C45.5497 35.7026 45.5438 35.0987 45.9142 34.7452L47.6009 33.1351Z" fill="white"/>
</g>
<g id="Group 291_2">
<path id="Polygon 32_2" d="M46.6322 31.1954C46.8912 31.4667 46.8912 31.8936 46.6322 32.165L45.0222 33.8517C44.6686 34.2221 44.0647 34.2162 43.644 33.9659C43.1996 33.7016 42.7285 33.0476 42.5795 32.5525C42.5153 32.3391 42.4727 32.0559 42.4727 31.6802C42.4727 31.3044 42.5153 31.0212 42.5795 30.8078C42.7285 30.3127 43.1996 29.6588 43.644 29.3944C44.0647 29.1442 44.6686 29.1383 45.0222 29.5087L46.6322 31.1954Z" fill="white"/>
<path id="Polygon 33_3" d="M49.5412 32.165C49.2822 31.8937 49.2822 31.4667 49.5412 31.1954L51.1512 29.5087C51.5047 29.1383 52.1086 29.1442 52.5294 29.3945C52.9737 29.6588 53.4448 30.3128 53.5938 30.8079C53.6581 31.0213 53.7007 31.3044 53.7007 31.6802C53.7007 32.0559 53.6581 32.3391 53.5938 32.5525C53.4448 33.0476 52.9737 33.7016 52.5294 33.9659C52.1086 34.2162 51.5047 34.2221 51.1512 33.8517L49.5412 32.165Z" fill="white"/>
</g>
</g>
<path id="Ellipse 174 (Stroke)_2" fill-rule="evenodd" clip-rule="evenodd" d="M48.0865 37.6729C51.3962 37.6729 54.0792 34.9899 54.0792 31.6802C54.0792 28.3705 51.3962 25.6875 48.0865 25.6875C44.7768 25.6875 42.0938 28.3705 42.0938 31.6802C42.0938 34.9899 44.7768 37.6729 48.0865 37.6729ZM48.0865 38.6729C51.9484 38.6729 55.0792 35.5422 55.0792 31.6802C55.0792 27.8182 51.9484 24.6875 48.0865 24.6875C44.2245 24.6875 41.0938 27.8182 41.0938 31.6802C41.0938 35.5422 44.2245 38.6729 48.0865 38.6729Z" fill="white"/>
</g>
</g>
<g id="GAME DETAILS">
<g id="ICON DIVIDERS" opacity="0.351446">
<rect id="Rectangle" x="170" width="1" height="73" fill="white"/>
<rect id="Rectangle_2" x="361" width="1" height="73" fill="white"/>
<rect id="Rectangle_3" x="552" width="1" height="73" fill="white"/>
</g>
<g id="MD_LBL_PLAYERS INFO">
<g id="PLAYERS - ICON">
<path id="Oval" d="M258.5 8C258.5 11.5899 255.59 14.5 252 14.5C248.41 14.5 245.5 11.5899 245.5 8C245.5 4.41015 248.41 1.5 252 1.5C255.59 1.5 258.5 4.41015 258.5 8Z" stroke="white" stroke-width="3"/>
<path id="Rectangle_4" d="M245 19.5H259C262.038 19.5 264.5 21.9624 264.5 25V36.5H239.5V25C239.5 21.9624 241.962 19.5 245 19.5Z" stroke="white" stroke-width="3"/>
<path id="Oval_2" d="M287.5 8C287.5 11.5899 284.59 14.5 281 14.5C277.41 14.5 274.5 11.5899 274.5 8C274.5 4.41015 277.41 1.5 281 1.5C284.59 1.5 287.5 4.41015 287.5 8Z" stroke="white" stroke-width="3"/>
<path id="Rectangle_5" d="M274 19.5H288C291.038 19.5 293.5 21.9624 293.5 25V36.5H268.5V25C268.5 21.9624 270.962 19.5 274 19.5Z" stroke="white" stroke-width="3"/>
</g>
</g>
<g id="MD_DEVELOPER INFO">
<g id="PROCESSOR - ICON">
<g id="Group 51">
<rect id="Rectangle_6" x="420" y="13" width="8" height="3" rx="1.5" fill="white"/>
<rect id="Rectangle_7" x="420" y="18" width="8" height="3" rx="1.5" fill="white"/>
<rect id="Rectangle_8" x="420" y="23" width="8" height="3" rx="1.5" fill="white"/>
</g>
<g id="Group 52">
<rect id="Rectangle_9" x="448" y="1" width="7" height="3" rx="1.5" transform="rotate(90 448 1)" fill="white"/>
<rect id="Rectangle_10" x="443" y="1" width="7" height="3" rx="1.5" transform="rotate(90 443 1)" fill="white"/>
<rect id="Rectangle_11" x="438" y="1" width="7" height="3" rx="1.5" transform="rotate(90 438 1)" fill="white"/>
<rect id="Rectangle_12" x="463" y="1" width="7" height="3" rx="1.5" transform="rotate(90 463 1)" fill="white"/>
<rect id="Rectangle_13" x="458" y="1" width="7" height="3" rx="1.5" transform="rotate(90 458 1)" fill="white"/>
<rect id="Rectangle_14" x="453" y="1" width="7" height="3" rx="1.5" transform="rotate(90 453 1)" fill="white"/>
<rect id="Rectangle_15" x="478" y="1" width="7" height="3" rx="1.5" transform="rotate(90 478 1)" fill="white"/>
<rect id="Rectangle_16" x="468" y="1" width="7" height="3" rx="1.5" transform="rotate(90 468 1)" fill="white"/>
<rect id="Rectangle_17" x="473" y="1" width="7" height="3" rx="1.5" transform="rotate(90 473 1)" fill="white"/>
</g>
<g id="Group 52_2">
<rect id="Rectangle_18" x="448" y="31" width="7" height="3" rx="1.5" transform="rotate(90 448 31)" fill="white"/>
<rect id="Rectangle_19" x="443" y="31" width="7" height="3" rx="1.5" transform="rotate(90 443 31)" fill="white"/>
<rect id="Rectangle_20" x="438" y="31" width="7" height="3" rx="1.5" transform="rotate(90 438 31)" fill="white"/>
<rect id="Rectangle_21" x="463" y="31" width="7" height="3" rx="1.5" transform="rotate(90 463 31)" fill="white"/>
<rect id="Rectangle_22" x="458" y="31" width="7" height="3" rx="1.5" transform="rotate(90 458 31)" fill="white"/>
<rect id="Rectangle_23" x="453" y="31" width="7" height="3" rx="1.5" transform="rotate(90 453 31)" fill="white"/>
<rect id="Rectangle_24" x="478" y="31" width="7" height="3" rx="1.5" transform="rotate(90 478 31)" fill="white"/>
<rect id="Rectangle_25" x="468" y="31" width="7" height="3" rx="1.5" transform="rotate(90 468 31)" fill="white"/>
<rect id="Rectangle_26" x="473" y="31" width="7" height="3" rx="1.5" transform="rotate(90 473 31)" fill="white"/>
</g>
<g id="Group 51_2">
<rect id="Rectangle_27" x="486" y="13" width="8" height="3" rx="1.5" fill="white"/>
<rect id="Rectangle_28" x="486" y="18" width="8" height="3" rx="1.5" fill="white"/>
<rect id="Rectangle_29" x="486" y="23" width="8" height="3" rx="1.5" fill="white"/>
</g>
<path id="Rectangle (Stroke)" fill-rule="evenodd" clip-rule="evenodd" d="M428 9V30H485V9H428ZM427.556 6C426.144 6 425 7.14416 425 8.55556V30.4444C425 31.8558 426.144 33 427.556 33H485.444C486.856 33 488 31.8558 488 30.4444V8.55556C488 7.14416 486.856 6 485.444 6H427.556Z" fill="white"/>
<path id="Rectangle (Stroke)_2" fill-rule="evenodd" clip-rule="evenodd" d="M480 14H433V25H480V14ZM431 12V27H482V12H431Z" fill="white"/>
</g>
</g>
<g id="RELEASEDATE - INFO">
<g id="RELEASEDATE - ICON">
<rect id="Rectangle_30" x="632" width="10" height="3" rx="1.5" transform="rotate(90 632 0)" fill="white"/>
<rect id="Rectangle_31" x="620" y="11" width="57" height="2" fill="white"/>
<rect id="Rectangle_32" x="668" width="10" height="3" rx="1.5" transform="rotate(90 668 0)" fill="white"/>
<path id="Rectangle (Stroke)_3" fill-rule="evenodd" clip-rule="evenodd" d="M623 6V35H674V6H623ZM622.556 3C621.144 3 620 4.14416 620 5.55556V35.4444C620 36.8558 621.144 38 622.556 38H674.444C675.856 38 677 36.8558 677 35.4444V5.55556C677 4.14416 675.856 3 674.444 3H622.556Z" fill="white"/>
<path id="Oval_3" fill-rule="evenodd" clip-rule="evenodd" d="M634.5 18C635.328 18 636 17.3284 636 16.5C636 15.6716 635.328 15 634.5 15C633.672 15 633 15.6716 633 16.5C633 17.3284 633.672 18 634.5 18Z" fill="white"/>
<path id="Oval_4" fill-rule="evenodd" clip-rule="evenodd" d="M641.5 18C642.328 18 643 17.3284 643 16.5C643 15.6716 642.328 15 641.5 15C640.672 15 640 15.6716 640 16.5C640 17.3284 640.672 18 641.5 18Z" fill="white"/>
<path id="Oval_5" fill-rule="evenodd" clip-rule="evenodd" d="M648.5 18C649.328 18 650 17.3284 650 16.5C650 15.6716 649.328 15 648.5 15C647.672 15 647 15.6716 647 16.5C647 17.3284 647.672 18 648.5 18Z" fill="white"/>
<path id="Oval_6" fill-rule="evenodd" clip-rule="evenodd" d="M655.5 18C656.328 18 657 17.3284 657 16.5C657 15.6716 656.328 15 655.5 15C654.672 15 654 15.6716 654 16.5C654 17.3284 654.672 18 655.5 18Z" fill="white"/>
<path id="Oval_7" fill-rule="evenodd" clip-rule="evenodd" d="M662.5 18C663.328 18 664 17.3284 664 16.5C664 15.6716 663.328 15 662.5 15C661.672 15 661 15.6716 661 16.5C661 17.3284 661.672 18 662.5 18Z" fill="white"/>
<path id="Oval_8" fill-rule="evenodd" clip-rule="evenodd" d="M669.5 18C670.328 18 671 17.3284 671 16.5C671 15.6716 670.328 15 669.5 15C668.672 15 668 15.6716 668 16.5C668 17.3284 668.672 18 669.5 18Z" fill="white"/>
<path id="Oval_9" fill-rule="evenodd" clip-rule="evenodd" d="M627.5 23C628.328 23 629 22.3284 629 21.5C629 20.6716 628.328 20 627.5 20C626.672 20 626 20.6716 626 21.5C626 22.3284 626.672 23 627.5 23Z" fill="white"/>
<path id="Oval_10" fill-rule="evenodd" clip-rule="evenodd" d="M634.5 23C635.328 23 636 22.3284 636 21.5C636 20.6716 635.328 20 634.5 20C633.672 20 633 20.6716 633 21.5C633 22.3284 633.672 23 634.5 23Z" fill="white"/>
<path id="Oval_11" fill-rule="evenodd" clip-rule="evenodd" d="M641.5 23C642.328 23 643 22.3284 643 21.5C643 20.6716 642.328 20 641.5 20C640.672 20 640 20.6716 640 21.5C640 22.3284 640.672 23 641.5 23Z" fill="white"/>
<path id="Oval_12" fill-rule="evenodd" clip-rule="evenodd" d="M648.5 23C649.328 23 650 22.3284 650 21.5C650 20.6716 649.328 20 648.5 20C647.672 20 647 20.6716 647 21.5C647 22.3284 647.672 23 648.5 23Z" fill="white"/>
<path id="Oval_13" fill-rule="evenodd" clip-rule="evenodd" d="M655.5 23C656.328 23 657 22.3284 657 21.5C657 20.6716 656.328 20 655.5 20C654.672 20 654 20.6716 654 21.5C654 22.3284 654.672 23 655.5 23Z" fill="white"/>
<path id="Oval_14" fill-rule="evenodd" clip-rule="evenodd" d="M662.5 23C663.328 23 664 22.3284 664 21.5C664 20.6716 663.328 20 662.5 20C661.672 20 661 20.6716 661 21.5C661 22.3284 661.672 23 662.5 23Z" fill="white"/>
<path id="Oval_15" fill-rule="evenodd" clip-rule="evenodd" d="M669.5 23C670.328 23 671 22.3284 671 21.5C671 20.6716 670.328 20 669.5 20C668.672 20 668 20.6716 668 21.5C668 22.3284 668.672 23 669.5 23Z" fill="white"/>
<path id="Oval_16" fill-rule="evenodd" clip-rule="evenodd" d="M627.5 28C628.328 28 629 27.3284 629 26.5C629 25.6716 628.328 25 627.5 25C626.672 25 626 25.6716 626 26.5C626 27.3284 626.672 28 627.5 28Z" fill="white"/>
<path id="Oval_17" fill-rule="evenodd" clip-rule="evenodd" d="M634.5 28C635.328 28 636 27.3284 636 26.5C636 25.6716 635.328 25 634.5 25C633.672 25 633 25.6716 633 26.5C633 27.3284 633.672 28 634.5 28Z" fill="white"/>
<path id="Oval_18" fill-rule="evenodd" clip-rule="evenodd" d="M641.5 28C642.328 28 643 27.3284 643 26.5C643 25.6716 642.328 25 641.5 25C640.672 25 640 25.6716 640 26.5C640 27.3284 640.672 28 641.5 28Z" fill="white"/>
<path id="Oval_19" fill-rule="evenodd" clip-rule="evenodd" d="M648.5 28C649.328 28 650 27.3284 650 26.5C650 25.6716 649.328 25 648.5 25C647.672 25 647 25.6716 647 26.5C647 27.3284 647.672 28 648.5 28Z" fill="white"/>
<path id="Oval_20" fill-rule="evenodd" clip-rule="evenodd" d="M655.5 28C656.328 28 657 27.3284 657 26.5C657 25.6716 656.328 25 655.5 25C654.672 25 654 25.6716 654 26.5C654 27.3284 654.672 28 655.5 28Z" fill="white"/>
<path id="Oval_21" fill-rule="evenodd" clip-rule="evenodd" d="M662.5 28C663.328 28 664 27.3284 664 26.5C664 25.6716 663.328 25 662.5 25C661.672 25 661 25.6716 661 26.5C661 27.3284 661.672 28 662.5 28Z" fill="white"/>
<path id="Oval_22" fill-rule="evenodd" clip-rule="evenodd" d="M669.5 28C670.328 28 671 27.3284 671 26.5C671 25.6716 670.328 25 669.5 25C668.672 25 668 25.6716 668 26.5C668 27.3284 668.672 28 669.5 28Z" fill="white"/>
<path id="Oval_23" fill-rule="evenodd" clip-rule="evenodd" d="M627.5 33C628.328 33 629 32.3284 629 31.5C629 30.6716 628.328 30 627.5 30C626.672 30 626 30.6716 626 31.5C626 32.3284 626.672 33 627.5 33Z" fill="white"/>
<path id="Oval_24" fill-rule="evenodd" clip-rule="evenodd" d="M634.5 33C635.328 33 636 32.3284 636 31.5C636 30.6716 635.328 30 634.5 30C633.672 30 633 30.6716 633 31.5C633 32.3284 633.672 33 634.5 33Z" fill="white"/>
<path id="Oval_25" fill-rule="evenodd" clip-rule="evenodd" d="M641.5 33C642.328 33 643 32.3284 643 31.5C643 30.6716 642.328 30 641.5 30C640.672 30 640 30.6716 640 31.5C640 32.3284 640.672 33 641.5 33Z" fill="white"/>
<path id="Oval_26" fill-rule="evenodd" clip-rule="evenodd" d="M648.5 33C649.328 33 650 32.3284 650 31.5C650 30.6716 649.328 30 648.5 30C647.672 30 647 30.6716 647 31.5C647 32.3284 647.672 33 648.5 33Z" fill="white"/>
<path id="Oval_27" fill-rule="evenodd" clip-rule="evenodd" d="M655.5 33C656.328 33 657 32.3284 657 31.5C657 30.6716 656.328 30 655.5 30C654.672 30 654 30.6716 654 31.5C654 32.3284 654.672 33 655.5 33Z" fill="white"/>
<path id="Oval_28" fill-rule="evenodd" clip-rule="evenodd" d="M662.5 33C663.328 33 664 32.3284 664 31.5C664 30.6716 663.328 30 662.5 30C661.672 30 661 30.6716 661 31.5C661 32.3284 661.672 33 662.5 33Z" fill="white"/>
</g>
</g>
</g>
</g>
</svg>
