<svg width="582" height="153" viewBox="0 0 582 153" fill="none" xmlns="http://www.w3.org/2000/svg">
<path d="M230.773 18.1682L241.695 5.28745H225.577L221.556 11.762L215.917 17.0775H198.776L184.533 25.8521L180.614 40.4882C179.745 43.7095 182.59 46.3151 186.952 46.3151H214.707L226.531 46.6052L232.784 22.939C233.313 20.9975 232.48 19.2587 230.774 18.1866L230.773 18.1682ZM211.929 41.7988L205.948 41.9433H198.06C196.987 41.9433 196.271 41.2622 196.475 40.4944L200.326 25.8582L207.448 21.4776H215.422C216.478 21.4776 217.211 22.091 216.989 22.9266L211.929 41.8039L211.929 41.7988ZM505.479 46.2809L495.716 46.2296L502.361 21.4396H496.414C490.996 21.4396 485.595 24.7286 484.539 28.7312L482.954 34.5582C481.95 38.6152 485.51 41.9018 490.928 41.9018H495.58L489.77 46.2822H479.905C471.164 46.2822 465.371 41.0174 467.092 34.5597L468.728 28.7328C470.534 22.2925 479.002 17.0618 487.725 17.0618H503.537L519.552 16.4677L511.646 46.0452L505.478 46.2868L505.479 46.2809ZM393.063 8.12983H371.169C369.005 8.12983 366.637 10.0907 365.972 12.5779L365.342 14.8769C364.713 17.3642 365.905 19.3249 368.103 19.3249H385.976C391.411 19.3249 394.563 24.3512 392.842 30.604L391.599 35.0329C389.895 41.269 383.983 46.2952 378.548 46.2952H318.182L325.986 39.5651H370.523C372.704 39.5651 375.004 37.5028 375.685 35.0349L376.299 32.8035C376.98 30.3164 375.736 28.2879 373.555 28.2879H355.666C350.231 28.2879 347.25 23.2615 348.868 17.111L350.111 12.5808C351.799 6.43033 357.642 1.40402 363.163 1.40402H384.852L401.618 0.380464L393.065 8.13308L393.063 8.12983ZM294.143 46.2786H284.227L289.696 25.8496L303.94 17.0581H327.707C334.25 17.0581 338.458 20.9943 337.163 25.8496L337.125 25.9523L330.088 30.3327H320.155L321.365 25.8363C322.081 23.3683 319.832 21.422 316.594 21.422H312.608L305.486 25.8363L300.153 46.0272L294.138 46.2686L294.143 46.2786ZM167.564 46.2829H157.631L163.1 25.8539C163.765 23.3859 161.584 21.4396 158.347 21.4396H148.414L143.711 39.2774L135.891 46.2803H125.957L133.965 16.3948L149.521 17.0618H169.438C175.981 17.0618 180.206 20.998 178.894 25.8533L173.579 46.0441L167.564 46.2857L167.564 46.2829ZM558.86 46.2857H548.909L554.396 25.8567C555.06 23.3889 552.879 21.4424 549.642 21.4424H539.692L535.007 39.2801L527.169 46.2832H517.253L525.244 16.3977L540.817 17.0646H560.734C567.294 17.0646 571.502 21.0008 570.207 25.8559L564.875 46.0467L558.86 46.2882L558.86 46.2857ZM249.651 40.4582L251.049 35.1423H270.83L285.074 26.3677L285.926 22.8904C286.795 19.669 283.95 17.0635 279.588 17.0635H251.901L237.658 25.8549L236.312 30.8811C236.261 31.0255 236.248 31.1711 236.209 31.3156L233.773 40.448C232.904 43.65 235.749 46.2749 240.111 46.2749H267.032L274.154 41.8945H251.22C250.164 41.8945 249.431 41.2275 249.653 40.4455L249.651 40.4582ZM253.468 25.8563L260.59 21.4421H271.102C272.141 21.4421 272.891 22.0554 272.669 22.8909L271.715 26.3683L264.61 30.7487H252.155L253.467 25.8587L253.468 25.8563ZM108.574 46.2849H80.8023C76.4407 46.2849 73.6123 43.6624 74.4641 40.4579L78.3829 25.856L92.6266 17.0645H120.313C124.675 17.0645 127.503 19.6727 126.651 22.8916L122.8 37.5092L108.574 46.2849ZM106.939 37.5099L110.84 22.8923C111.077 22.0566 110.346 21.4434 109.273 21.4434H101.299L94.1941 25.8577L90.3434 40.4597C90.1402 41.2417 90.8545 41.9084 91.9112 41.9084H99.7997L106.939 37.5136L106.939 37.5099ZM447.821 46.2856H394.288L400.967 21.2902L407.85 17.0498L417.596 16.4032L410.747 42.0446H414.512L421.395 37.8186L425.825 21.2915L432.691 17.051L442.454 16.4045L436.712 37.8204L433.969 42.0463H439.353L446.287 37.8204L450.649 21.2946L457.532 17.0541L467.295 16.4062L461.536 37.8235L447.821 46.2917L447.821 46.2856ZM55.4414 46.2917H0L8.99603 5.96282L16.135 0.681088L26.2044 0L17.038 41.0277H20.9568L28.0788 35.746L34.7406 5.96312L41.8625 0.681392L51.949 0.00032641L43.9581 35.7457L41.1298 41.0273H46.7013L53.8912 35.7457L60.4678 5.96288L67.5897 0.681153L77.6762 4.35214e-05L69.6853 35.7454L55.4417 46.2921" fill="white"/>
<path fill-rule="evenodd" clip-rule="evenodd" d="M575.032 44.6484H574.032V38.0681H576.541C578.094 38.0681 578.863 38.6429 578.863 39.9382C578.863 41.1152 578.125 41.6264 577.157 41.7507L579.025 44.6484H577.914L576.174 41.7951H575.032V44.6484ZM576.225 40.9502C577.069 40.9502 577.82 40.8918 577.82 39.8783C577.82 39.066 577.082 38.9136 576.392 38.9136H575.032V40.9502H576.225V40.9502Z" fill="white"/>
<path fill-rule="evenodd" clip-rule="evenodd" d="M570.443 41.3416C570.443 38.0681 573.101 35.6527 576.237 35.6527C579.35 35.6527 582 38.0681 582 41.3416C582 44.6484 579.35 47.0616 576.237 47.0616C573.101 47.0616 570.443 44.6484 570.443 41.3416ZM576.236 46.1109C578.821 46.1109 580.85 44.0891 580.85 41.3416C580.85 38.6429 578.821 36.6018 576.236 36.6018C573.629 36.6018 571.592 38.6429 571.592 41.3416C571.592 44.0891 573.629 46.1109 576.236 46.1109V46.1109Z" fill="white"/>
<path d="M36.6361 150.363C28.0346 150.211 17.2981 148.228 8.66611 140.084C0.491676 132.398 -1.15541 122.607 0.674685 112.206C4.30438 91.6782 19.2197 81.9176 37.1546 75.7258C47.8912 72.0046 59.1463 71.7301 70.4319 72.7977C75.4342 73.2857 80.4669 73.6822 85.4082 74.6277C86.1707 74.7803 86.1707 74.9938 86.0182 75.5733C83.8221 83.7172 82.3885 92.0747 79.4909 100.005C78.8199 101.866 77.5693 103.36 75.9832 104.489C74.4276 105.587 72.689 105.343 71.0724 104.519C69.2118 103.574 68.9068 101.805 68.8763 100.005C68.7848 96.0094 68.8763 91.9832 66.8937 88.2925C64.2706 83.4427 57.4992 81.4296 51.0329 83.5952C36.0566 88.628 23.3374 109.095 25.5335 124.65C27.3636 137.644 40.3573 143.927 52.863 137.98C57.8652 135.601 62.4405 132.703 66.7107 129.226C69.7609 126.755 74.0616 126.999 76.0747 129.592C78.1183 132.245 77.2033 136.119 73.9091 138.59C63.4165 146.551 52.3444 150.302 36.6361 150.363Z" fill="white"/>
<path d="M133.601 121.478C133.632 113.761 131.435 109.766 126.342 108.241C126.281 108.241 126.25 108.21 126.189 108.21C125 107.966 123.78 107.753 122.59 107.509C123.261 105.983 124.817 105.495 126.067 104.733C133.876 100.097 142.08 98.724 150.773 101.957C154.647 103.421 157.941 110.559 157.88 116.659C157.728 129.256 150.682 137.553 140.769 143.836C130.124 150.607 118.35 153.505 105.753 152.102C97.4566 151.187 90.1362 147.832 85.622 140.511C80.2842 131.818 82.0838 123.034 87.1775 114.951C92.8509 105.953 100.537 99.2426 111.274 96.8024C113.226 96.3449 115.178 96.3449 117.1 96.8634C120.546 97.7785 120.821 100.585 118.198 104.031C112.921 111.016 107.675 118.154 106.973 127.304C106.546 133.008 107.339 138.651 112.951 141.884C119.082 145.392 127.135 141.67 130.703 134.106C132.686 130.08 133.693 125.901 133.601 121.478Z" fill="white"/>
<path d="M289.311 150.302C285.315 150.333 281.655 150.76 278.818 147.71C275.188 143.775 277.262 139.596 278.239 135.54C280.313 126.877 282.478 118.215 284.888 109.613C286.23 104.855 289.86 101.896 294.526 100.615C298.278 99.5476 302.121 99.6391 305.049 102.903C307.886 106.044 305.232 109.064 304.744 112.145C304.592 113.182 304.134 114.158 303.86 115.195C303.585 116.14 303.402 117.117 303.158 118.093C303.921 117.33 304.744 116.598 305.446 115.805C315.085 104.855 326.614 97.7785 341.773 98.297C342.597 98.3275 343.207 98.4495 342.933 99.4866C340.706 107.875 338.571 116.293 336.253 124.65C335.612 126.999 334.087 128.89 331.372 128.982C328.658 129.073 327.712 126.999 326.797 124.864C324.693 119.923 320.117 118.52 315.451 121.387C305.141 127.792 299.254 137.553 295.136 148.594C294.398 150.575 291.41 150.302 289.311 150.302Z" fill="white"/>
<path d="M200.399 134.014C201.772 136.912 203.492 139.636 204.895 142.533C197.514 146.865 189.632 150.821 180.695 150.302C167.122 149.509 159.924 140.877 162.669 127.579C165.933 111.718 171.087 96.3449 175.907 80.8806C177.523 75.7258 181.855 72.8587 187.253 72.0961C193.445 71.2421 197.258 76.1833 195.55 82.7717C191.829 97.1685 188.016 111.535 184.325 125.931C183.532 128.982 183.227 132.123 183.563 135.295C183.99 139.749 187.192 141.701 191.34 140.023C194.726 138.651 197.502 136.272 200.399 134.014Z" fill="white"/>
<path d="M274.121 109.034L274.091 108.942C273.237 106.898 272.474 104.641 270.583 103.452C263.659 99.09 256.43 99.7916 249.14 102.628C248.957 102.598 248.744 102.765 247.676 103.299C244.931 104.672 243.833 105.16 241.454 106.532C241.088 106.746 240.814 107.173 240.509 107.508C240.936 107.6 241.332 107.692 241.759 107.783C248.042 108.851 250.391 111.169 251.367 117.33C252.343 123.4 251.489 129.165 248.652 134.685C244.657 142.494 235.354 147.039 228.033 140.267C227.911 140.176 227.82 139.993 227.698 139.901C226.935 138.529 225.41 135.326 224.709 132.55C223.519 126.084 226.02 120.228 228.491 114.646C230.168 110.833 233.249 107.63 235.811 104.214C237.001 102.628 238.221 101.073 237.428 99.0595C236.726 97.2294 234.927 97.1684 233.219 96.9549C230.29 96.5889 227.637 97.382 224.953 98.236C219.371 100.554 215.971 102.825 211.701 107.065L208.116 111.108C203.388 116.506 200.826 122.759 200.551 129.958C200.49 131.33 200.399 132.672 200.338 134.045C201.71 136.943 203.265 139.56 204.668 142.458C204.895 142.735 205.096 142.921 205.279 143.134C208.543 146.551 212.478 148.991 216.87 150.577C224.038 153.139 231.419 152.59 238.8 151.583C238.831 151.522 238.892 151.461 238.953 151.4C238.922 151.431 238.9 151.461 238.877 151.492C238.854 151.522 238.831 151.553 238.8 151.583C239.716 151.309 240.204 151.328 241.119 151.054C241.394 151.054 242.522 150.668 242.796 150.668C246.975 149.631 250.879 147.923 254.783 146.124C260.182 143.165 266.831 137.736 270.583 132.825C275.372 126.572 277.263 114.707 274.121 109.034Z" fill="white"/>
</svg>
