<?xml version="1.0" encoding="UTF-8" standalone="no"?>
<!-- Generator: Adobe Illustrator 23.0.3, SVG Export Plug-In . SVG Version: 6.00 Build 0)  -->

<svg
   xmlns:dc="http://purl.org/dc/elements/1.1/"
   xmlns:cc="http://creativecommons.org/ns#"
   xmlns:rdf="http://www.w3.org/1999/02/22-rdf-syntax-ns#"
   xmlns:svg="http://www.w3.org/2000/svg"
   xmlns="http://www.w3.org/2000/svg"
   xmlns:sodipodi="http://sodipodi.sourceforge.net/DTD/sodipodi-0.dtd"
   xmlns:inkscape="http://www.inkscape.org/namespaces/inkscape"
   version="1.1"
   id="Capa_1"
   x="0px"
   y="0px"
   viewBox="0 0 52 50"
   xml:space="preserve"
   sodipodi:docname="game_info_players.svg"
   inkscape:version="0.92.5 (2060ec1f9f, 2020-04-08)"><metadata
   id="metadata156"><rdf:RDF><cc:Work
       rdf:about=""><dc:format>image/svg+xml</dc:format><dc:type
         rdf:resource="http://purl.org/dc/dcmitype/StillImage" /><dc:title /></cc:Work></rdf:RDF></metadata><defs
   id="defs154" /><sodipodi:namedview
   pagecolor="#ffffff"
   bordercolor="#666666"
   borderopacity="1"
   objecttolerance="10"
   gridtolerance="10"
   guidetolerance="10"
   inkscape:pageopacity="0"
   inkscape:pageshadow="2"
   inkscape:window-width="1366"
   inkscape:window-height="740"
   id="namedview152"
   showgrid="false"
   inkscape:pagecheckerboard="true"
   inkscape:zoom="7.9853348"
   inkscape:cx="32.348711"
   inkscape:cy="16.645994"
   inkscape:window-x="0"
   inkscape:window-y="0"
   inkscape:window-maximized="1"
   inkscape:current-layer="Capa_1" />
<g
   id="g149"
   style="fill:#ffffff"
   transform="translate(0.12522956,2.7550504)">
	<path
   d="m 31.4,10.6 c 2.4,1.5 4.1,4.1 4.4,7 1,0.5 2.1,0.7 3.2,0.7 4.2,0 7.6,-3.4 7.6,-7.7 C 46.6,6.3 43.2,3 39,3 34.8,3 31.5,6.4 31.4,10.6 Z m -5,15.7 c 4.2,0 7.6,-3.4 7.6,-7.7 0,-4.3 -3.4,-7.7 -7.6,-7.7 -4.2,0 -7.6,3.4 -7.6,7.7 0,4.3 3.4,7.7 7.6,7.7 z m 3.2,0.5 h -6.5 c -5.4,0 -9.7,4.4 -9.7,9.8 v 7.9 0.1 l 0.5,0.2 c 5.1,1.6 9.6,2.1 13.3,2.1 7.2,0 11.3,-2.1 11.6,-2.2 l 0.5,-0.3 h 0.1 v -7.9 c 0,-5.4 -4.4,-9.7 -9.8,-9.7 z m 12.6,-7.9 h -6.4 c -0.1,2.6 -1.2,4.9 -2.9,6.6 4.8,1.4 8.3,5.9 8.3,11.1 v 2.5 c 6.3,-0.3 10,-2 10.2,-2.1 l 0.5,-0.3 H 52 v -8 C 51.9,23.3 47.6,18.9 42.2,18.9 Z M 13.1,18.4 c 1.5,0 2.8,-0.5 4.1,-1.2 0.4,-2.5 1.7,-4.6 3.6,-6.1 0,-0.1 0,-0.3 0,-0.5 0,-4.2 -3.4,-7.7 -7.6,-7.7 -4.2,0 -7.6,3.4 -7.6,7.7 -0.1,4.3 3.3,7.8 7.5,7.8 z m 6.8,7 c -1.7,-1.7 -2.8,-4 -2.9,-6.5 -0.3,0 -0.5,-0.1 -0.7,-0.1 H 9.8 c -5.4,0 -9.7,4.4 -9.7,9.8 v 7.9 0.1 l 0.5,0.2 c 4.1,1.3 7.8,1.9 10.9,2.1 v -2.4 c 0.1,-5.2 3.6,-9.7 8.4,-11.1 z"
   id="path147"
   style="fill:#ffffff"
   inkscape:connector-curvature="0" />
</g>
</svg>