<?xml version="1.0" encoding="UTF-8" standalone="no"?>
<!-- Generator: Adobe Illustrator 23.0.3, SVG Export Plug-In . SVG Version: 6.00 Build 0)  -->

<svg
   xmlns:dc="http://purl.org/dc/elements/1.1/"
   xmlns:cc="http://creativecommons.org/ns#"
   xmlns:rdf="http://www.w3.org/1999/02/22-rdf-syntax-ns#"
   xmlns:svg="http://www.w3.org/2000/svg"
   xmlns="http://www.w3.org/2000/svg"
   xmlns:sodipodi="http://sodipodi.sourceforge.net/DTD/sodipodi-0.dtd"
   xmlns:inkscape="http://www.inkscape.org/namespaces/inkscape"
   version="1.1"
   id="Layer_1"
   x="0px"
   y="0px"
   viewBox="0 0 45 45"
   xml:space="preserve"
   sodipodi:docname="game_info_gametime3.svg"
   inkscape:version="0.92.5 (2060ec1f9f, 2020-04-08)"><metadata
   id="metadata88"><rdf:RDF><cc:Work
       rdf:about=""><dc:format>image/svg+xml</dc:format><dc:type
         rdf:resource="http://purl.org/dc/dcmitype/StillImage" /><dc:title></dc:title></cc:Work></rdf:RDF></metadata><defs
   id="defs86" /><sodipodi:namedview
   pagecolor="#ffffff"
   bordercolor="#666666"
   borderopacity="1"
   objecttolerance="10"
   gridtolerance="10"
   guidetolerance="10"
   inkscape:pageopacity="0"
   inkscape:pageshadow="2"
   inkscape:window-width="1366"
   inkscape:window-height="740"
   id="namedview84"
   showgrid="false"
   inkscape:pagecheckerboard="true"
   inkscape:zoom="11.472222"
   inkscape:cx="22.5"
   inkscape:cy="22.5"
   inkscape:window-x="0"
   inkscape:window-y="0"
   inkscape:window-maximized="1"
   inkscape:current-layer="Layer_1" />
<g
   id="g69"
   style="fill:#ffffff">
	<g
   id="g67"
   style="fill:#ffffff">
		<path
   fill="#666666"
   d="M34.7,39.5v-7.1c0-2.4-1.1-4.7-2.9-6.4l-4.1-3.6l4.1-3.6c1.8-1.6,2.9-3.9,2.9-6.4V5.5    c1.1-0.4,1.9-1.4,1.9-2.6c0-1.6-1.3-2.8-2.8-2.8H11.3C9.7,0,8.4,1.3,8.4,2.8c0,1.2,0.8,2.3,1.9,2.6v7.1c0,2.4,1.1,4.7,2.9,6.4    l4.1,3.6l-4.1,3.6c-1.8,1.6-2.9,3.9-2.9,6.4v7.1c-1.1,0.4-1.9,1.4-1.9,2.6c0,1.6,1.3,2.8,2.8,2.8h22.5c1.6,0,2.8-1.3,2.8-2.8    C36.6,41,35.8,39.9,34.7,39.5z M32.8,39.4H12.2v-6.9c0-1.9,0.8-3.7,2.2-4.9l4.9-4.3c0.2-0.2,0.3-0.4,0.3-0.7    c0-0.3-0.1-0.5-0.3-0.7l-4.9-4.3c-1.4-1.2-2.2-3-2.2-4.9V5.6h20.6v6.9c0,1.9-0.8,3.7-2.2,4.9l-4.9,4.3c-0.2,0.2-0.3,0.4-0.3,0.7    c0,0.3,0.1,0.5,0.3,0.7l4.9,4.3c1.4,1.2,2.2,3,2.2,4.9L32.8,39.4L32.8,39.4z"
   id="path65"
   style="fill:#ffffff" />
	</g>
</g>
<g
   id="g75"
   style="fill:#ffffff">
	<g
   id="g73"
   style="fill:#ffffff">
		<path
   fill="#666666"
   d="M30.7,36l-7.5-9.4c-0.4-0.4-1.1-0.4-1.5,0L14.3,36c-0.2,0.3-0.3,0.7-0.1,1c0.2,0.3,0.5,0.5,0.8,0.5h15    c0.4,0,0.7-0.2,0.8-0.5C31,36.6,31,36.3,30.7,36z"
   id="path71"
   style="fill:#ffffff" />
	</g>
</g>
<g
   id="g81"
   style="fill:#ffffff">
	<g
   id="g79"
   style="fill:#ffffff">
		<path
   fill="#666666"
   d="M27.1,15.6C27,15.2,26.6,15,26.3,15h-7.5c-0.4,0-0.7,0.2-0.9,0.6c-0.1,0.4-0.1,0.8,0.2,1l3.8,3.8    c0.2,0.2,0.4,0.3,0.7,0.3s0.5-0.1,0.7-0.3l3.8-3.8C27.2,16.3,27.3,15.9,27.1,15.6z"
   id="path77"
   style="fill:#ffffff" />
	</g>
</g>
</svg>