<?xml version="1.0" encoding="UTF-8" standalone="no"?>
<!-- Generator: Adobe Illustrator 23.0.3, SVG Export Plug-In . SVG Version: 6.00 Build 0)  -->

<svg
   xmlns:dc="http://purl.org/dc/elements/1.1/"
   xmlns:cc="http://creativecommons.org/ns#"
   xmlns:rdf="http://www.w3.org/1999/02/22-rdf-syntax-ns#"
   xmlns:svg="http://www.w3.org/2000/svg"
   xmlns="http://www.w3.org/2000/svg"
   xmlns:sodipodi="http://sodipodi.sourceforge.net/DTD/sodipodi-0.dtd"
   xmlns:inkscape="http://www.inkscape.org/namespaces/inkscape"
   version="1.1"
   id="Outline"
   x="0px"
   y="0px"
   viewBox="0 0 45 45"
   xml:space="preserve"
   sodipodi:docname="game_info_gametime2.svg"
   inkscape:version="0.92.5 (2060ec1f9f, 2020-04-08)"><metadata
   id="metadata63"><rdf:RDF><cc:Work
       rdf:about=""><dc:format>image/svg+xml</dc:format><dc:type
         rdf:resource="http://purl.org/dc/dcmitype/StillImage" /><dc:title></dc:title></cc:Work></rdf:RDF></metadata><defs
   id="defs61">
	
	
	
	
	
	
	
	
	
	
	
	
	
</defs><sodipodi:namedview
   pagecolor="#ffffff"
   bordercolor="#666666"
   borderopacity="1"
   objecttolerance="10"
   gridtolerance="10"
   guidetolerance="10"
   inkscape:pageopacity="0"
   inkscape:pageshadow="2"
   inkscape:window-width="1366"
   inkscape:window-height="740"
   id="namedview59"
   showgrid="false"
   inkscape:pagecheckerboard="true"
   inkscape:zoom="11.472222"
   inkscape:cx="22.5"
   inkscape:cy="22.5"
   inkscape:window-x="0"
   inkscape:window-y="0"
   inkscape:window-maximized="1"
   inkscape:current-layer="Outline" />
<path
   style="fill:none"
   inkscape:connector-curvature="0"
   id="path30"
   d="m 23.2,11.9 v -1.4 h -1.5 v 1.4 c 0.5,0.1 1.1,0.1 1.5,0 z" /><path
   style="fill:none"
   inkscape:connector-curvature="0"
   id="path32"
   d="M 8.2,12 C 7.9,11.7 7.4,11.7 7.1,12 L 6,13.1 c -0.3,0.3 -0.3,0.8 0,1.1 l 1.6,1.6 2.1,-2.1 z" /><path
   style="fill:none"
   inkscape:connector-curvature="0"
   id="path34"
   d="m 22.5,27.7 c -0.4,0 -0.7,0.3 -0.7,0.7 0,0.4 0.3,0.7 0.7,0.7 0.4,0 0.7,-0.3 0.7,-0.7 0,-0.3 -0.3,-0.7 -0.7,-0.7 z" /><path
   style="fill:none"
   inkscape:connector-curvature="0"
   id="path36"
   d="m 11.4,16.3 -1.1,-1.1 -1.1,1.1 1.1,1.1 C 10.7,17 11,16.6 11.4,16.3 Z" /><path
   style="fill:none"
   inkscape:connector-curvature="0"
   id="path38"
   d="m 38.9,14.2 c 0.3,-0.3 0.3,-0.8 0,-1.1 l -1,-1.1 c -0.3,-0.3 -0.8,-0.3 -1.1,0 l -1.6,1.6 2.1,2.1 z" /><path
   style="fill:none"
   inkscape:connector-curvature="0"
   id="path40"
   d="M 24,6.7 C 24,6.3 23.7,6 23.2,6 H 21.7 C 21.3,6 21,6.3 21,6.7 V 9 h 3 z" /><path
   style="fill:none"
   inkscape:connector-curvature="0"
   id="path42"
   d="m 20.3,11.5 v -1 c -0.4,0 -0.7,-0.3 -0.7,-0.7 v -3 c 0,-1.2 1,-2.2 2.2,-2.2 h 1.5 c 1.2,0 2.2,1 2.2,2.2 v 3 c 0,0.4 -0.3,0.7 -0.7,0.7 v 1 c 1.8,-0.9 3,-2.7 3,-4.7 0,-2.9 -2.4,-5.2 -5.3,-5.2 -2.9,0 -5.2,2.4 -5.2,5.3 0,1.9 1.1,3.7 3,4.6 z" /><path
   style="fill:none"
   inkscape:connector-curvature="0"
   id="path44"
   d="m 33.6,16.3 c 0.4,0.3 0.7,0.7 1.1,1.1 l 1.1,-1.1 -1.1,-1.1 z" /><path
   style="fill:none"
   inkscape:connector-curvature="0"
   id="path46"
   d="m 22.5,13.5 c -8.3,0 -15,6.7 -15,15 0,8.3 6.7,15 15,15 8.3,0 15,-6.7 15,-15 0,-8.3 -6.7,-15 -15,-15 z m 9.1,23.9 c 0,0.1 -0.1,0.1 -0.1,0.1 -5,4.9 -12.9,4.9 -17.9,0 -0.1,0 -0.1,-0.1 -0.1,-0.1 -4.9,-5 -4.9,-12.9 0,-17.9 0,-0.1 0.1,-0.1 0.1,-0.1 5,-4.9 12.9,-4.9 17.9,0 0,0 0.1,0 0.1,0.1 0,0 0,0 0.1,0.1 4.8,4.9 4.8,12.9 -0.1,17.8 z" /><path
   style="fill:none"
   inkscape:connector-curvature="0"
   id="path48"
   d="m 31.5,27.7 h 2.2 C 33.5,25.2 32.6,22.9 30.9,21 l -1.6,1.6 c 0,0 0,0 0,0 -0.3,0.3 -0.8,0.3 -1.1,0 -0.3,-0.3 -0.3,-0.8 0,-1.1 l 1.6,-1.6 c -1.9,-1.6 -4.2,-2.6 -6.7,-2.8 v 2.2 c 0,0.4 -0.3,0.7 -0.7,0.7 -0.4,0 -0.7,-0.3 -0.7,-0.7 v -2.2 c -2.5,0.2 -4.8,1.1 -6.7,2.8 l 1.6,1.6 c 0,0 0,0 0,0 0.3,0.3 0.3,0.8 0,1.1 -0.3,0.3 -0.8,0.3 -1.1,0 L 14,21.1 c -1.6,1.9 -2.6,4.2 -2.8,6.7 h 2.2 c 0.4,0 0.7,0.3 0.7,0.7 0,0.4 -0.3,0.7 -0.7,0.7 h -2.2 c 0.2,2.5 1.1,4.8 2.8,6.7 l 1.6,-1.6 c 0.3,-0.3 0.8,-0.3 1.1,0 0.3,0.3 0.3,0.8 0,1.1 L 15.1,37 c 1.9,1.6 4.2,2.6 6.7,2.8 v -2.2 c 0,-0.4 0.3,-0.7 0.7,-0.7 0.4,0 0.7,0.3 0.7,0.7 v 2.2 C 25.7,39.6 28,38.7 29.9,37 l -1.6,-1.6 c -0.3,-0.3 -0.3,-0.8 0,-1.1 0.3,-0.3 0.8,-0.3 1.1,0 l 1.6,1.6 c 1.6,-1.9 2.6,-4.2 2.8,-6.7 h -2.2 c -0.4,0 -0.7,-0.3 -0.7,-0.7 -0.2,-0.4 0.2,-0.8 0.6,-0.8 z m -3,1.5 h -3.9 c 0,0.1 -0.1,0.2 -0.1,0.2 -0.5,1.1 -1.9,1.6 -3,1.1 -1.1,-0.5 -1.6,-1.9 -1.1,-3 l -2.7,-2.7 c -0.3,-0.3 -0.3,-0.8 0,-1.1 0.3,-0.3 0.8,-0.3 1.1,0 l 2.7,2.7 c 0.1,0 0.1,-0.1 0.2,-0.1 1.2,-0.4 2.5,0.2 2.9,1.4 h 3.9 c 0.4,0 0.7,0.3 0.7,0.7 0,0.5 -0.3,0.8 -0.7,0.8 z" /><path
   style="fill:#ffffff"
   inkscape:connector-curvature="0"
   id="path50"
   d="m 36.8,17.3 c 0.3,0.3 0.8,0.3 1.1,0 L 40,15.2 c 0.9,-0.9 0.9,-2.3 0,-3.2 L 38.9,11 C 38,10.1 36.6,10.1 35.7,11 l -2.1,2.1 c -0.3,0.3 -0.3,0.8 0,1.1 0,0 0,0 0,0 l -1.2,1.2 c -1.9,-1.4 -4,-2.4 -6.3,-2.9 3.1,-2 4,-6.2 2,-9.3 -2,-3.1 -6.2,-4 -9.3,-2 -3.1,2 -4,6.2 -2,9.3 0.5,0.8 1.2,1.5 2,2 -2.3,0.5 -4.4,1.5 -6.3,2.9 l -1.2,-1.2 c 0.3,-0.3 0.3,-0.8 0,-1.1 0,0 0,0 0,0 L 9.2,11 C 8.3,10.1 6.9,10.1 6,11 l -1,1 c -0.9,0.9 -0.9,2.3 0,3.2 l 2.1,2.1 c 0.3,0.3 0.8,0.3 1.1,0 0,0 0,0 0,0 l 1.2,1.2 C 7.2,21.4 6,24.9 6,28.5 6,37.6 13.4,45 22.5,45 31.6,45 39,37.6 39,28.5 c 0,-3.6 -1.2,-7.1 -3.4,-10 z m 0,-5.3 c 0.3,-0.3 0.8,-0.3 1.1,0 l 1.1,1.1 c 0.3,0.3 0.3,0.8 0,1.1 l -1.6,1.6 -2.1,-2.1 z M 17.3,6.7 c 0,-2.9 2.3,-5.2 5.2,-5.3 2.9,-0.1 5.2,2.3 5.3,5.2 0,2 -1.2,3.9 -3,4.7 v -1 c 0.4,0 0.7,-0.3 0.7,-0.7 v -3 c 0,-1.2 -1,-2.2 -2.2,-2.2 h -1.5 c -1.2,0 -2.2,1 -2.2,2.2 v 3 c 0,0.4 0.3,0.7 0.7,0.7 v 1 c -1.9,-0.7 -3,-2.5 -3,-4.6 z M 21,9 V 6.7 C 21,6.3 21.3,6 21.7,6 h 1.5 C 23.7,6 24,6.3 24,6.7 V 9 Z m 2.2,1.5 v 1.4 c -0.5,0.1 -1,0.1 -1.5,0 V 10.5 Z M 7.7,15.7 6.1,14.1 C 5.8,13.8 5.8,13.3 6.1,13 l 1,-1 c 0.3,-0.3 0.8,-0.3 1.1,0 l 1.6,1.6 z m 1.5,0.6 1.1,-1.1 1.1,1.1 C 11,16.6 10.7,17 10.3,17.4 Z m 26,12.2 c 0,7 -5.7,12.7 -12.7,12.7 -7,0 -12.7,-5.7 -12.7,-12.7 0,-7 5.7,-12.7 12.7,-12.7 7,-0.1 12.7,5.7 12.7,12.7 z M 34.7,17.4 C 34.4,17 34,16.7 33.6,16.3 l 1.1,-1.1 1.1,1.1 z" /><path
   style="fill:#ffffff"
   inkscape:connector-curvature="0"
   id="path52"
   d="m 31.5,19.5 c 0,-0.1 0,-0.1 0,0 -5,-5 -13,-5 -18,-0.1 -0.1,0 -0.1,0.1 -0.1,0.1 -4.9,5 -4.9,12.9 0,17.9 0,0.1 0.1,0.1 0.1,0.1 5,4.9 12.9,4.9 17.9,0 0.1,0 0.1,-0.1 0.1,-0.1 5,-4.9 5,-12.9 0,-17.9 0.1,0 0,0 0,0 z m 0,9.7 h 2.2 c -0.2,2.5 -1.1,4.8 -2.8,6.7 L 29.3,34.3 C 29,34 28.5,34 28.2,34.3 c -0.3,0.3 -0.3,0.8 0,1.1 l 1.6,1.6 c -1.9,1.6 -4.2,2.6 -6.7,2.8 v -2.2 c 0,-0.4 -0.3,-0.7 -0.7,-0.7 -0.4,0 -0.7,0.3 -0.7,0.7 v 2.2 C 19.2,39.6 16.9,38.7 15,37 l 1.6,-1.6 c 0.3,-0.3 0.3,-0.8 0,-1.1 -0.3,-0.3 -0.8,-0.3 -1.1,0 L 14,35.9 C 12.4,34 11.4,31.7 11.2,29.2 h 2.2 c 0.4,0 0.7,-0.3 0.7,-0.7 0,-0.4 -0.3,-0.7 -0.7,-0.7 H 11.2 C 11.4,25.3 12.3,23 14,21.1 l 1.6,1.6 c 0.3,0.3 0.8,0.3 1.1,0 0.3,-0.3 0.3,-0.8 0,-1.1 0,0 0,0 0,0 L 15.1,20 c 1.9,-1.6 4.2,-2.6 6.7,-2.8 v 2.2 c 0,0.4 0.3,0.7 0.7,0.7 0.4,0 0.7,-0.3 0.7,-0.7 v -2.2 c 2.5,0.2 4.8,1.1 6.7,2.8 l -1.6,1.6 c -0.3,0.3 -0.3,0.8 0,1.1 0.3,0.3 0.8,0.3 1.1,0 0,0 0,0 0,0 L 31,21.1 c 1.6,1.9 2.6,4.2 2.8,6.7 h -2.2 c -0.4,0 -0.7,0.3 -0.7,0.7 -0.2,0.4 0.2,0.7 0.6,0.7 z" /><path
   style="fill:#ffffff"
   inkscape:connector-curvature="0"
   id="path54"
   d="m 28.5,27.7 h -3.9 c -0.4,-1.2 -1.7,-1.8 -2.9,-1.4 -0.1,0 -0.1,0.1 -0.2,0.1 l -2.7,-2.7 c -0.3,-0.3 -0.8,-0.3 -1.1,0 -0.3,0.3 -0.3,0.8 0,1.1 l 2.7,2.7 c -0.5,1.1 -0.1,2.5 1.1,3 1.1,0.5 2.5,0.1 3,-1.1 0,-0.1 0.1,-0.2 0.1,-0.2 h 3.9 c 0.4,0 0.7,-0.3 0.7,-0.7 0,-0.4 -0.3,-0.8 -0.7,-0.8 z m -6,1.5 c -0.4,0 -0.7,-0.3 -0.7,-0.7 0,-0.4 0.3,-0.7 0.7,-0.7 0.4,0 0.7,0.3 0.7,0.7 0,0.4 -0.3,0.7 -0.7,0.7 z" />
</svg>