<?xml version="1.0" encoding="UTF-8" standalone="no"?>
<!-- Generator: Adobe Illustrator 23.0.3, SVG Export Plug-In . SVG Version: 6.00 Build 0)  -->

<svg
   xmlns:dc="http://purl.org/dc/elements/1.1/"
   xmlns:cc="http://creativecommons.org/ns#"
   xmlns:rdf="http://www.w3.org/1999/02/22-rdf-syntax-ns#"
   xmlns:svg="http://www.w3.org/2000/svg"
   xmlns="http://www.w3.org/2000/svg"
   xmlns:sodipodi="http://sodipodi.sourceforge.net/DTD/sodipodi-0.dtd"
   xmlns:inkscape="http://www.inkscape.org/namespaces/inkscape"
   version="1.1"
   id="Layer_1"
   x="0px"
   y="0px"
   viewBox="0 0 45 45"
   xml:space="preserve"
   sodipodi:docname="game_info_releasedate.svg"
   inkscape:version="0.92.5 (2060ec1f9f, 2020-04-08)"><metadata
   id="metadata213"><rdf:RDF><cc:Work
       rdf:about=""><dc:format>image/svg+xml</dc:format><dc:type
         rdf:resource="http://purl.org/dc/dcmitype/StillImage" /><dc:title>game_info_releasedate</dc:title></cc:Work></rdf:RDF></metadata><defs
   id="defs211" /><sodipodi:namedview
   pagecolor="#ffffff"
   bordercolor="#666666"
   borderopacity="1"
   objecttolerance="10"
   gridtolerance="10"
   guidetolerance="10"
   inkscape:pageopacity="0"
   inkscape:pageshadow="2"
   inkscape:window-width="1366"
   inkscape:window-height="740"
   id="namedview209"
   showgrid="false"
   inkscape:pagecheckerboard="true"
   inkscape:zoom="11.472222"
   inkscape:cx="22.5"
   inkscape:cy="22.5"
   inkscape:window-x="0"
   inkscape:window-y="0"
   inkscape:window-maximized="1"
   inkscape:current-layer="Layer_1" />
<title
   id="title182">game_info_releasedate</title>
<path
   fill="#666666"
   d="M44.9,7.9c-0.3-1.2-1.4-2-2.6-2h-2.8v4.4c0,2.3-1.9,4.2-4.2,4.2c-2.3,0-4.2-1.9-4.2-4.2V5.9H14.1v4.4  c0,2.3-1.9,4.2-4.2,4.2s-4.2-1.9-4.2-4.2l0,0V5.9H2.9c-1.2,0-2.3,0.8-2.6,2H0v34.3C0,43.8,1.3,45,2.9,45h39.4c1.5,0,2.8-1.2,2.8-2.8  V7.9H44.9z M42.2,42.2H2.9V19.7h39.4L42.2,42.2L42.2,42.2z"
   id="path184"
   style="fill:#ffffff" />
<path
   fill="#666666"
   d="M9.8,11.7c0.8,0,1.4-0.6,1.4-1.4V1.4c0-0.8-0.6-1.4-1.4-1.4S8.5,0.6,8.5,1.4l0,0v8.9  C8.5,11.1,9.1,11.7,9.8,11.7z"
   id="path186"
   style="fill:#ffffff" />
<path
   fill="#666666"
   d="M35.2,11.7c0.8,0,1.4-0.6,1.4-1.4V1.4c0-0.8-0.6-1.4-1.4-1.4s-1.4,0.6-1.4,1.4v8.9  C33.8,11.1,34.4,11.7,35.2,11.7z"
   id="path188"
   style="fill:#ffffff" />
<polygon
   fill="#666666"
   points="9.1,23.9 15.2,23.9 15.2,26.9 9.1,26.9 "
   id="polygon190"
   style="fill:#ffffff" />
<polygon
   fill="#666666"
   points="19.7,23.9 25.8,23.9 25.8,26.9 19.7,26.9 "
   id="polygon192"
   style="fill:#ffffff" />
<polygon
   fill="#666666"
   points="30.3,23.9 36.3,23.9 36.3,26.9 30.3,26.9 "
   id="polygon194"
   style="fill:#ffffff" />
<polygon
   fill="#666666"
   points="9.1,30 15.2,30 15.2,32.9 9.1,32.9 "
   id="polygon196"
   style="fill:#ffffff" />
<polygon
   fill="#666666"
   points="19.7,30 25.8,30 25.8,32.9 19.7,32.9 "
   id="polygon198"
   style="fill:#ffffff" />
<polygon
   fill="#666666"
   points="30.3,30 36.3,30 36.3,32.9 30.3,32.9 "
   id="polygon200"
   style="fill:#ffffff" />
<polygon
   fill="#666666"
   points="9.1,36 15.2,36 15.2,39 9.1,39 "
   id="polygon202"
   style="fill:#ffffff" />
<polygon
   fill="#666666"
   points="19.7,36 25.8,36 25.8,39 19.7,39 "
   id="polygon204"
   style="fill:#ffffff" />
<polygon
   fill="#666666"
   points="30.3,36 36.3,36 36.3,39 30.3,39 "
   id="polygon206"
   style="fill:#ffffff" />
</svg>