<?xml version="1.0" encoding="utf-8"?>
<svg version="1.1" viewBox="0 0 3839 1572.4" xmlns="http://www.w3.org/2000/svg">
  <path class="st1" d="M 1499.3 174.8 C 1519.4 180 1517.1 212 1541.7 201.6 C 1548.4 200.1 1556.6 208.3 1550.6 216.5 C 1546.9 218.7 1542.4 221 1537.9 223.2 C 1541.6 230.6 1549.8 240.3 1541.6 248.5 C 1519.3 260.4 1493.3 261.2 1468.7 267.8 C 1380.2 301.3 1284.3 369 1247.1 462.6 C 1228.5 525.1 1225.5 605.4 1263.5 660.4 C 1294.7 692.4 1331.2 726.6 1375.8 734 C 1415.2 742.9 1449.4 728.1 1477.7 703.5 C 1477.7 694.6 1459.9 690.1 1470.3 681.9 C 1449.5 656.6 1472.5 629.1 1466.6 601.6 C 1474 572.6 1477 548.8 1488.2 521.3 C 1471.8 519.8 1456.2 531 1438.4 531.7 C 1445.8 528 1438.4 518.3 1433.2 525 C 1399.7 540.6 1364 550.3 1332.8 571.1 C 1328.3 570.4 1320.1 566.7 1326.1 560.7 C 1358.9 551.1 1346.2 507.2 1383.4 504.9 C 1388.6 482.6 1415.4 479.6 1434.7 475.2 C 1429.5 452.9 1454.8 467 1463.7 460.3 C 1489.7 446.9 1519.5 440.2 1541.8 415.7 C 1552.2 410.5 1561.9 412.7 1564.9 424.6 C 1565.7 429 1564.1 433.5 1568.6 435.8 C 1580.5 434.3 1589.4 415.7 1600.6 424.6 C 1599.8 539.9 1532.2 642.5 1559.7 760.7 C 1558.2 771.8 1561.9 785.2 1563.4 797.9 C 1561.1 801.6 1557.4 801.6 1554.5 803.1 C 1550.8 800.1 1554.5 794.2 1550.8 790.4 C 1525.5 803.8 1538.1 763.6 1517.3 767.3 C 1506.9 756.9 1501.7 741.3 1484.6 742.8 C 1463.8 765.1 1449.6 797.8 1416.9 803 C 1373 814.9 1321.7 807.5 1281.5 783.7 C 1222.7 760.6 1181.1 706.4 1156.5 651.3 C 1131.2 549.4 1136.4 429.7 1193.7 344.2 C 1204.1 310 1237.6 289.9 1252.4 257.2 C 1282.1 240.8 1294.8 200.7 1326 183.6 C 1331.2 184.4 1338.7 183.6 1338.7 176.9 C 1376.6 155.3 1419 145.7 1463.6 139 C 1472.6 162.9 1510.5 143.6 1499.3 174.8" style="fill: rgb(255, 255, 255);"/>
  <path class="st1" d="M 2380.6 281.9 C 2341.9 330.2 2299.5 377.1 2275.7 432.1 L 2280.9 432.1 C 2287.6 421.7 2312.9 428.4 2316.6 409 C 2335.2 403.1 2351.6 380.7 2373.9 394.9 C 2366.5 379.3 2388 374.8 2375.4 364.4 C 2373.9 356.2 2376.2 344.3 2385.8 341.3 C 2383.6 322 2397.7 305.6 2397 285.5 C 2396.2 288.5 2391.1 295.1 2385.8 294.4 C 2382.1 291.6 2379.9 287.8 2380.6 281.9 M 1865.2 100.4 C 1853.3 119.7 1891.2 129.4 1870.4 148 C 1882.3 156.2 1894.9 151.7 1902.4 168.1 C 1889.7 204.5 1863.7 235.8 1848.9 271.5 C 1824.4 287.9 1835.5 319.1 1820.6 339.2 C 1794.6 376.4 1770 414.3 1759.6 457.4 C 1710.5 522.1 1686.7 597.9 1665.1 674.6 C 1661.4 685.7 1662.1 701.4 1674 707.3 C 1707.5 711.7 1730.5 672.3 1755.8 659 C 1765.5 643.4 1786.3 638.9 1793.7 621.1 C 1830.1 587.6 1885.9 551.9 1889.6 499.9 C 1906 485.8 1891.1 459 1911.2 446.4 C 1911.2 427.1 1911.2 402.5 1929.1 395.1 C 1924.6 381 1920.9 365.4 1932.8 353.5 C 1930.6 348.3 1936.5 345.3 1934.3 339.4 C 1939.5 342.4 1945.5 335 1950.7 332.7 C 1970 319.3 1934.3 309.6 1954.4 297 C 1967 280.6 1970.7 255.4 1987.9 246.4 C 1982 236 1999.8 230.8 1999.1 219.6 C 2014 198.8 2021.4 172.7 2043.7 155.6 C 2052.6 163.8 2069.7 154.1 2075.7 169.7 C 2090.6 162.3 2103.2 161.5 2118.1 169.7 C 2123.3 178.6 2131.5 188.3 2127 198.7 C 2124.8 203.9 2118.8 207.6 2120.3 214.3 C 2130 219.5 2144.1 223.2 2143.4 237.4 L 2143.4 248.6 C 2068.3 382.5 2010.3 523 1961.2 668.1 C 1960.4 681.5 1954.5 695.6 1959.7 709 C 1963.4 717.9 1972.3 729.1 1982.7 730.6 C 1985.7 733.6 1989.4 738.8 1993.1 734.3 C 2015.4 690.4 2055.6 658.4 2077.1 614.6 C 2062.2 616.8 2045.1 624.3 2028.7 628.7 C 2026.5 616.8 2042.8 610.1 2043.6 596.8 C 2046.6 586.4 2028 587.9 2037.7 578.9 C 2053.3 570 2074.9 566.3 2082.3 549.9 C 2097.2 538 2120.2 539.5 2126.9 517.9 C 2164.8 509.7 2161.9 468.8 2186.4 446.5 C 2190.1 423.4 2214.7 410.8 2223.6 391.4 C 2226.6 393.7 2230.3 392.9 2232.5 389.2 C 2226.5 361.7 2274.9 362.4 2269.7 330.4 C 2291.3 323.7 2288.3 300.7 2305.4 289.5 C 2318.1 272.4 2330.7 253.8 2350.1 241.1 C 2347.8 236.7 2354.5 235.9 2353.8 232.2 C 2379.1 206.9 2421.5 191.3 2418.5 151.9 C 2419.3 141.5 2420 125.1 2432.6 118.4 C 2445.2 118.4 2457.1 124.3 2466.1 128.8 C 2466.9 134.7 2463.9 145.9 2473.5 145.2 C 2499.5 151.9 2517.4 145.2 2541.2 157.1 C 2544.9 160.1 2541.2 165.3 2544.9 168.3 C 2494.3 376.5 2505.5 617.5 2473.5 833.9 C 2478 864.4 2466.1 897.1 2469.8 924.6 C 2464.6 928.3 2465.3 937.2 2459.4 933.5 C 2460.9 929 2456.4 926.1 2454.2 923.1 C 2454.2 912.7 2457.2 896.3 2448.2 887.4 C 2446.7 890.4 2443 891.1 2439.3 891.1 C 2434.1 887.4 2436.3 880.7 2430.4 877 C 2447.5 871.8 2443.1 853.2 2441.6 841.3 C 2430.4 840.5 2432.7 827.9 2427.5 821.2 C 2430.5 816.7 2445.3 817.5 2439.4 805.6 C 2435.7 795.9 2432 810 2425.3 805.6 C 2421.6 797.4 2417.1 788.5 2420.1 780.3 C 2409.7 765.4 2421.6 740.1 2407.5 728.2 C 2407.5 719.3 2415.7 708.1 2407.5 699.9 C 2398.6 704.4 2403 720.7 2397.1 725.2 C 2394.1 694.7 2378.5 659.7 2397.1 632.2 C 2394.1 617.3 2380.7 601 2388.2 582.4 C 2385.2 549.7 2394.9 512.5 2391.9 480.5 C 2374 477.5 2359.9 493.9 2341.3 494.6 C 2336.8 505 2323.5 504.3 2314.5 508.7 C 2288.5 514.6 2276.6 544.4 2249.1 546.6 C 2244.6 551.1 2238 551.1 2232.7 553.3 C 2232.7 551.8 2233.4 548.8 2231.2 548.1 C 2224.5 557 2205.2 549.6 2211.1 566 C 2202.2 566 2196.2 575.7 2191.8 582.3 C 2156.1 649.3 2122.7 716.9 2081 781.6 C 2074.3 800.2 2059.4 815.8 2054.2 835.1 C 2051.2 838.8 2044.5 836.6 2043.8 833.6 C 2037.1 824.7 2028.9 839.5 2027.4 844 C 2010.3 878.2 1992.4 915.4 1964.9 942.2 C 1961.9 943.7 1959.7 940.7 1957.5 939.2 C 1958.3 931 1963.5 923.6 1963.5 917.6 C 1950.1 928.8 1941.9 942.2 1933 954.8 C 1915.9 959.2 1928.5 939.9 1921.8 933.2 C 1905.4 949.6 1900.2 981.6 1872 981.6 C 1870.5 973.4 1874.2 963 1875.7 953.3 C 1869.7 947.4 1863 960.7 1857.8 951.1 C 1861.5 936.2 1879.4 923.6 1883.1 906.5 C 1898.7 900.6 1894.3 877.5 1909.9 869.3 C 1906.9 855.9 1920.3 853.7 1920.3 842.5 C 1935.9 827.6 1935.2 805.3 1952.3 790.4 C 1915.8 795.6 1858.6 833.5 1832.6 783.7 C 1837.8 773.3 1833.4 760.6 1823.7 754.7 C 1828.9 723.5 1822.2 701.2 1834.9 672.9 C 1833.4 658 1852 652.1 1843.8 638.7 C 1805.9 680.3 1763.5 722.7 1720.3 760.7 C 1688.3 776.3 1651.9 782.3 1618.4 763.7 C 1605.8 756.3 1606.5 742.9 1597.6 733.9 C 1584.2 674.4 1586.5 613.4 1611.7 560.6 C 1625.8 530.9 1619.1 492.2 1640 466.2 C 1649.7 405.2 1682.4 353.9 1704.7 298.1 C 1718.1 266.1 1727.8 231.9 1750.8 203.6 C 1762 168.6 1775.4 130 1808.1 109.2 C 1813.3 106.2 1819.3 97.3 1825.9 103.3 C 1839.3 107 1842.3 81.7 1857.9 91.4 C 1860.8 93.7 1863.7 96.7 1865.2 100.4" style="fill: rgb(255, 255, 255);"/>
  <path class="st1" d="M 1099.2 12.7 C 1096.2 18.6 1088.1 18.6 1082.8 23.1 C 1034.5 30.5 983.9 33.5 937 44.7 C 929.6 64 950.4 63.3 961.5 62.5 C 965.2 67.7 971.9 61 972.7 62.5 C 972.7 84.8 937 75.9 943.7 101.9 C 925.1 119 896.8 112.3 877.5 128.7 C 879 130.2 880.5 130.9 881.2 132.4 C 849.2 145.1 815.8 160.7 781.5 164.4 C 786.7 177 767.4 187.5 761.4 194.9 C 739.9 193.4 724.2 204.6 706.4 212.7 C 685 346.6 638.9 470.8 601 598 C 560.9 673.9 539.3 757.2 474.6 823.4 C 408.4 910.4 314 1011.6 192.7 975.1 C 121.3 945.3 29.8 919.3 0.1 835.2 C -0.7 827.8 6 824.8 12 823.3 C 17.2 821.1 15.7 826.3 17.9 828.5 C 26.8 833.7 37.2 837.4 38.7 850.1 C 84.1 876.9 122.7 919.3 181.5 912.5 C 292.3 900.7 363 786.9 415.8 701.3 C 487.9 556.3 526.6 396.4 562.3 235.7 C 560.8 234.2 559.3 233.5 558.6 232 C 466.4 240.2 377.1 260.2 285.7 262.5 C 280.5 255.1 279 246.9 274.5 239.4 C 264.8 235.7 251.4 247.6 247.7 235.7 C 252.9 234.2 246.9 232 246.2 230.5 C 257.4 231.3 265.5 223.1 270.8 214.1 C 273.8 202.9 260.4 201.4 255.2 194.8 C 247.8 193.3 241.1 191.8 238.8 183.6 C 238.8 176.2 238.8 168.7 246.2 164.3 C 256.6 157.6 285.6 171.7 279.6 151.6 C 272.9 150.9 255.8 155.3 255.1 141.2 C 255.9 130 257.3 119.6 270.7 121.1 C 365.9 129.3 448.4 101.8 542.1 96.6 C 676.7 78 804.6 39.3 937 21.5 C 981.7 14.2 1026.3 7.5 1071 0 C 1082.1 0 1097 -1.4 1099.2 12.7" style="fill: rgb(255, 255, 255);"/>
  <path class="st1" d="M 978 289.4 C 976.5 292.4 972.8 294.6 972.8 298.3 C 968.3 303.5 959.4 323.6 952.7 305.7 C 915.5 365.2 884.3 426.9 853 489.4 C 850.8 493.9 850.8 499.1 853 503.6 C 870.8 507.3 868.6 493.2 874.6 484.2 C 885 478.3 896.9 471.6 910.3 476.8 C 925.2 454.5 952.7 447.8 975.7 437.4 C 974.3 386.8 980.2 339.9 978 289.4 M 1094 127.2 C 1102.2 142.8 1081.4 180.7 1111.8 178.5 C 1127.4 206 1112.6 238.7 1113.3 270 C 1096.9 439.6 1093.2 621.8 1095.5 792.8 C 1091.8 800.2 1098.5 824.1 1081.4 814.4 C 1073.2 806.2 1072.5 789.8 1062.1 787.6 C 1049.4 809.2 1056.1 836.7 1049.4 856.8 C 1035.3 851.6 1034.5 837.5 1033 824.8 C 1047.1 801 1010.7 789.1 1020.4 762.3 C 1010 768.2 1020.4 789.8 1011.5 799.5 C 1001.1 802.5 999.6 789.1 993.6 781.6 C 995.1 765.3 975.8 747.4 990.6 735.5 C 1001 708.7 972.8 692.4 983.2 667.8 C 981.7 619.5 979.5 562.2 978 516.1 L 974.3 512.4 C 929.7 531 881.3 547.4 836.7 560.8 C 827 565.2 818.9 575.7 806.2 574.9 C 758.6 663.4 722.9 757.1 679.8 847.8 C 682 872.3 649.3 877.5 654.5 903.6 C 648.6 914.8 645.6 928.9 636.7 937 C 629.3 922.9 653.1 904.3 636.7 890.9 C 642.6 876 648.6 858.9 645.6 842.6 C 623.3 873.8 610.6 911 594.3 946 C 586.9 948.2 585.4 936.3 589.1 931.9 C 593.5 923 601.7 910.3 595.8 901.4 L 592 901.4 C 577.9 922.3 574.9 952 551.1 963.9 C 557 944.5 548.1 935.6 549.6 917.8 C 549.6 896.2 570.4 888.1 568.9 869.5 C 577.1 865 566.7 851.6 580.1 851.6 C 579.3 841.9 603.2 835.3 590.5 826.3 C 600.2 798 618.1 772 630 746 C 640.4 737.1 636.7 722.2 649.3 714.1 C 659 688.8 671.6 662 690.2 639 C 682 625.6 705.8 624.9 697.6 610.7 C 700.6 602.5 708 595.8 710.3 587.6 C 703.6 582.4 680.5 591.3 683.5 573.5 C 687.2 568.3 677.5 568.3 674.6 566.1 C 685 555.7 702.9 549.7 717 549.7 C 720 541.5 730.4 543.8 737.1 540.8 C 744.5 522.2 767.6 506.6 760.2 484.3 C 772.1 476.1 783.3 464.2 783.3 451.6 C 783.3 422.6 817.5 399.6 821.2 373.5 C 837.6 361.6 840.5 339.3 851 325.2 C 865.9 322.2 851.7 308.1 867.4 307.4 C 885.2 274.7 889 234.5 920.9 209.2 C 932.8 192.1 939.5 173.5 944 154.2 C 952.2 149.8 956.6 154.2 965.6 152 C 972.3 158.7 965.6 177.3 982 173.6 C 987.2 162.4 982.7 136.4 1005 136.4 C 1022.9 135.6 1043.7 146.1 1054.8 129 C 1065 122.8 1082.9 116.8 1094 127.2" style="fill: rgb(255, 255, 255);"/>
  <path class="st1" d="M 3062.6 114.6 C 3101.3 113.9 3135.5 146.5 3169.7 168.2 C 3210.6 203.1 3230.7 247 3228.5 299.8 C 3224 400.2 3120.7 477.5 3039.6 517.7 C 3046.3 528.8 3060.4 538.5 3071.6 546.7 C 3107.3 581.7 3131.8 630 3173.5 662.7 C 3185.4 688 3216.6 689.5 3236 710.3 C 3265 761.6 3321.5 776.5 3353.5 823.3 C 3392.2 856.8 3430.9 897.7 3473.2 926.7 C 3491.8 960.9 3530.5 953.5 3546.1 990.7 C 3556.5 994.4 3563.9 1005.6 3567.7 1013.8 C 3543.9 1035.3 3526.8 990.7 3505.2 981.8 C 3488.8 971.4 3476.2 956.5 3459.1 944.6 C 3381 883.6 3313.3 821.1 3232.3 767.6 C 3207 754.9 3189.9 725.9 3171.3 703.6 C 3126.7 691 3113.3 642.6 3076.9 618.1 C 3071 606.9 3061.3 595.8 3052.3 587.6 C 3051.6 600.3 3037.4 595.8 3032.2 589.1 C 3018.8 572 2995.8 565.3 2980.9 551.9 C 2986.9 533.3 2965.3 545.2 2959.4 539.3 C 2950.5 528.2 2939.3 515.5 2927.4 508.8 C 2918.5 513.3 2927.4 518.5 2928.9 523 C 2957.2 543.1 2965.3 585.5 3000.3 592.9 C 3033.8 630.1 3071 659.1 3107.4 689.6 C 3104.4 693.3 3096.2 691.8 3091 694.8 C 3161.7 729 3215.9 802.6 3284.4 842.8 C 3310.4 867.3 3337.2 890.4 3358.8 914.2 C 3360.3 916.4 3355.8 917.2 3357.3 919.4 C 3448.8 981.1 3521.7 1080 3619.8 1132.1 C 3622.8 1139.5 3614.6 1140.3 3610.9 1137.3 C 3505.3 1070.4 3414.6 978.1 3307.5 914.2 C 3218.2 848 3158.8 752.8 3059.1 703.7 C 3056.1 686.6 3038.3 687.4 3027.1 680.6 C 3015.9 664.2 2992.1 650.1 2991.4 628.5 C 2975.8 611.4 2946.8 604 2939.3 578.7 C 2925.2 571.3 2912.5 557.1 2894.7 562.3 C 2882.1 554.1 2876.1 534 2859 531.8 C 2856 525.1 2846.3 525.8 2847.1 517.7 C 2862.7 515.5 2857.5 495.4 2873.9 493.1 C 2887.3 500.5 2902.2 499.8 2916.3 494.6 C 2928.2 471.5 2894.7 465.6 2885.8 448.5 C 2879.1 438.8 2891.7 429.2 2893.2 424.7 C 2917.7 424 2931.9 473 2959.4 453.7 C 2966.1 453.7 2969 461.9 2977.2 458.9 C 2995 429.2 3018.8 401.6 3041.1 373.4 C 3048.5 355.5 3064.2 338.5 3055.2 316.1 C 3023.2 275.2 2966 267.7 2914.7 276.7 C 2901.3 288.6 2874.5 281.1 2871.6 303.5 C 2869.3 322.8 2856.7 337 2848.5 353.3 C 2844 352.6 2843.3 348.9 2843.3 344.4 C 2847 342.2 2840.3 338.5 2838.1 337.7 C 2815 366 2812.1 406.1 2796.5 439.6 C 2791.3 439.6 2793.5 432.2 2787.6 432.2 C 2747.4 553.4 2724.4 680.6 2696.8 807 C 2693.8 815.9 2687.9 819.6 2680.5 824.8 C 2669.3 816.6 2689.4 796.5 2670.1 790.6 C 2646.3 844.9 2624.7 899.9 2600.2 953.5 C 2592.8 942.3 2601 931.9 2593.5 921.5 C 2583.1 919.3 2577.9 923.7 2575.7 931.9 C 2565.3 955 2568.3 986.9 2548.9 1003.3 C 2549.7 998.1 2554.9 982.5 2548.9 975 C 2539.2 981.7 2540 1004.7 2527.3 998.1 C 2527.3 982.5 2511 964.6 2527.3 951.2 C 2505.8 921.4 2541.4 885 2552.6 853 C 2559.3 847.8 2573.4 844.1 2561.5 833.7 C 2568.9 825.5 2557 801.7 2573.4 803.2 C 2583 796.5 2574.1 792 2568.2 789.1 C 2580.9 761.6 2586 731.1 2598.7 703.6 C 2611.3 699.1 2621 688.7 2621.8 674.6 C 2612.1 673.1 2614.4 661.2 2616.6 655.3 C 2640.4 589.1 2653.8 518.4 2684.3 455.2 C 2688 441.1 2690.2 421.8 2702.1 409.1 C 2706.6 384.5 2720.7 365.2 2725.2 341.4 C 2694 347.3 2663.5 388.3 2627.1 368.2 C 2627.8 331 2579.5 374.1 2581 337.7 C 2578 315.4 2551.2 335.5 2545.3 314.6 C 2545.3 299.7 2553.5 292.3 2550.5 278.9 C 2563.9 285.6 2572 269.2 2584.7 270 C 2598.8 258.9 2592.1 238.8 2604 226.9 C 2634.5 219.5 2660.5 197.2 2689.5 192.7 C 2693.2 187.5 2696.2 180 2704.4 180.8 C 2719.3 181.6 2734.1 171.9 2749 168.2 C 2749 168.9 2749.8 168.9 2750.5 169.7 C 2765.4 160.1 2786.2 160.8 2798.8 148.2 C 2829.3 145.2 2858.3 127.4 2888 132.6 C 2908.1 128.9 2936.4 134.1 2952 114.8 C 2967.6 103.7 2986.2 122.2 3001.8 105.9 C 3018.7 116.8 3045.5 98.2 3062.6 114.6" style="fill: rgb(255, 255, 255);"/>
  <path class="st1" d="M 2884.1 566 C 2892.3 571.2 2900.5 577.9 2910.9 578.6 C 2944.4 629.9 3003.1 664.1 3035.9 717.7 C 3052.3 732.6 3081.3 737 3085.7 762.3 C 3119.2 789.8 3160.8 817.3 3180.2 855.3 C 3203.3 867.2 3224.1 882.1 3248.6 888.8 C 3316.3 942.3 3367.6 999.6 3430.1 1058.3 C 3470.3 1104.4 3524.5 1114.8 3567.7 1151.3 C 3597.4 1179.6 3636.9 1207.8 3659.2 1240.6 C 3657.7 1243.6 3651 1243.6 3648 1240.6 C 3555 1160.3 3453.2 1098.5 3360.9 1016 C 3347.5 1017.5 3335.6 1007.1 3325.2 998.2 C 3264.2 967 3225.5 888.1 3157.1 871 C 3136.3 833.8 3098.3 811.5 3062.6 790.7 C 3034.3 779.6 3031.4 743.1 3003.8 735.7 C 2995.6 725.3 2980.7 724.5 2977 710.4 C 2950.2 680.6 2923.5 647.2 2889.2 628.6 C 2878.8 618.2 2873.6 606.3 2866.1 594.4 C 2854.2 592.2 2833.4 601.1 2825.2 584 C 2813.3 584 2799.9 586.2 2793.2 575.1 C 2794.7 562.5 2806.6 555.8 2793.2 544.6 C 2807.3 507.4 2838.6 547.6 2862.4 544.6 C 2872.2 548.9 2879.6 556.3 2884.1 566" style="fill: rgb(255, 255, 255);"/>
  <path class="st1" d="M 2912.4 662.7 C 2927.3 675.3 2939.9 689.5 2939.2 708.8 C 2965.2 754.2 3009.1 786.1 3046.3 819.6 C 3058.2 841.2 3072.3 862 3087.9 882.1 C 3119.1 868.7 3137.7 904.4 3157.1 923 C 3153.4 946.1 3183.1 950.5 3196.5 963.9 C 3207.7 959.4 3214.4 970.6 3215.8 980.2 C 3241.1 990.6 3252.2 1023.3 3280.5 1026.3 C 3291.7 1048.6 3323.6 1039 3325.1 1065.7 C 3348.9 1084.3 3375.7 1098.4 3398 1115.5 C 3395.8 1130.4 3419.6 1122.2 3418.1 1138.6 C 3429.3 1146.8 3440.4 1162.4 3456.8 1160.1 C 3459.8 1181.7 3483.6 1181.7 3496.2 1192.1 C 3563.9 1249.4 3640.5 1300.7 3705.2 1360.2 C 3695.5 1360.2 3687.3 1354.2 3678.4 1351.3 C 3502.1 1213 3315.5 1091 3141.4 944.5 C 3131.7 939.3 3131 928.2 3126.5 919.2 C 3066.3 911 3034.3 845.6 2983.7 812.1 C 2965.1 761.5 2895.2 750.4 2889.3 694.6 C 2870.7 677.5 2838 684.2 2829.1 655.2 C 2823.9 653 2823.9 645.5 2821.7 641.1 C 2811.3 630.7 2780.8 633.7 2789.7 612.1 C 2817.2 598 2839.5 629.2 2866.3 633.7 C 2878.9 646.3 2897.5 653 2912.4 662.7" style="fill: rgb(255, 255, 255);"/>
  <path class="st1" d="M 2686.3 841.2 C 2682.6 871.7 2669.2 899.2 2652.1 924.5 C 2644.7 923 2645.4 911.1 2635.7 908.9 C 2636.5 905.2 2640.9 903 2643.1 900 C 2646.8 900 2649.8 899.2 2652 896.3 C 2663.2 876.2 2649.8 842 2677.3 833.8 C 2680.3 835.2 2683.3 838.2 2686.3 841.2" style="fill: rgb(255, 255, 255);"/>
  <path class="st1" d="M 3599.5 1033.8 C 3608.4 1037.5 3615.1 1047.2 3626.3 1046.5 C 3648.6 1057.7 3659 1084.4 3682.1 1094.1 C 3667.2 1112 3651.6 1081.4 3633.8 1080 C 3617.4 1056.2 3583.2 1052.5 3576.5 1025 C 3585.4 1016.7 3594.3 1024.1 3599.5 1033.8" style="fill: rgb(255, 255, 255);"/>
  <path class="st1" d="M 3733.4 1126.7 C 3768.4 1149.8 3807 1164.6 3839 1190.7 C 3795.9 1185.5 3758.7 1154.3 3719.3 1133.4 C 3708.2 1130.4 3697 1125.2 3691 1114.1 C 3691.8 1108.9 3688 1102.2 3694.7 1100 C 3710.4 1102.2 3719.3 1120.8 3733.4 1126.7" style="fill: rgb(255, 255, 255);"/>
  <path class="st1" d="M 3742.3 1208.5 C 3737.8 1215.9 3729.7 1210 3724.5 1208.5 C 3697 1195.9 3671.7 1177.3 3646.4 1158.7 C 3641.2 1153.5 3647.2 1146.8 3653.1 1149.8 C 3685.1 1164.7 3713.3 1190.7 3742.3 1208.5" style="fill: rgb(255, 255, 255);"/>
  <path class="st1" d="M 3710.4 1274.8 C 3698.5 1280 3685.1 1267.4 3674.7 1258.4 C 3684.4 1239.8 3697 1270.3 3710.4 1271 L 3710.4 1274.8" style="fill: rgb(255, 255, 255);"/>
  <path class="st1" d="M 2398.3 1046.8 C 2414.1 1043.5 2457.3 1033 2462.7 1048.4 C 2468 1063.4 2505.2 1040.7 2508.6 1072.5 C 2511 1095 2497.8 1089.6 2496.3 1112.7 C 2495.5 1126 2477.4 1140.4 2456.4 1143 C 2389.8 1148.5 2270.3 1196.6 2270.3 1308.9 C 2270.3 1308.9 2262.9 1434.2 2393.4 1434.2 C 2393.4 1434.2 2474.8 1447.3 2539.9 1357.4 C 2543.5 1352.4 2554.1 1348.1 2559.8 1350.4 C 2563.3 1351.8 2566.1 1354.9 2565.8 1361.3 C 2565.6 1367.4 2562.4 1373 2558.2 1377.4 C 2555.2 1380.7 2552.3 1385.9 2555.4 1392.2 C 2560.9 1403.3 2559.4 1418.8 2546.1 1433.2 C 2546.1 1433.2 2484.5 1495 2394.5 1495 C 2304.4 1495 2182.3 1464.6 2182.3 1302.7 C 2182.3 1140.8 2303.8 1066.8 2398.3 1046.8 Z" style="fill: rgb(255, 255, 255);"/>
  <path class="st1" d="M 2855.6 1111.7 C 2774.6 1111.7 2760.1 1134.6 2757.8 1163.1 C 2753.9 1211.3 2733.8 1273.3 2717.9 1313.1 C 2696.1 1367.7 2645.5 1456.1 2645.5 1518.9 C 2645.5 1553.8 2632 1551.1 2632 1551.1 C 2624.1 1551.1 2619.9 1543.3 2617.6 1535.3 C 2616.9 1532.6 2613 1532.7 2612.4 1535.4 C 2608.9 1551.3 2601.3 1572.3 2585.3 1572.3 C 2559.6 1572.3 2556.4 1527.6 2556.4 1527.6 C 2556.4 1438.2 2662.2 1169.8 2662.2 1169.8 C 2662.2 1169.8 2581.3 1210.7 2565.9 1211.1 C 2536.7 1212 2532.8 1173.7 2556.3 1165.5 C 2558 1164.9 2557.9 1162.4 2556.1 1161.9 C 2544.9 1158.8 2528.1 1151.8 2528.1 1137 C 2528.1 1102.7 2584.5 1073.5 2691.6 1048.8 C 2691.6 1048.8 2695.9 977.8 2718.5 977.8 C 2734.2 977.8 2760.6 991.5 2775.3 999.8 C 2781.8 1003.5 2785.9 1010.4 2785.9 1017.8 L 2785.9 1023 C 2785.9 1023 2870.3 1023 2898.4 1023 C 2950.1 1023 3049.6 1049.2 3049.6 1164.6 C 3049.6 1322.6 2834.4 1447.9 2673.3 1518.4 C 2669.2 1520.2 2664.6 1517.8 2663.2 1513.6 C 2660.9 1506.8 2660.1 1497.4 2671.6 1495.2 C 2674.6 1494.6 2676.4 1491.4 2675.7 1488.5 C 2672.3 1473.9 2668.5 1436.8 2708.2 1414.9 C 2758.5 1387.2 2942.1 1273.3 2948 1196.6 C 2953.8 1122 2903 1111.7 2855.6 1111.7 Z" style="fill: rgb(255, 255, 255);"/>
</svg>