<?xml version="1.0" encoding="utf-8"?>
<svg viewBox="0 0 1758.6 493" version="1.1" id="svg45" xmlns="http://www.w3.org/2000/svg">
  <g id="g887">
    <path id="rect4789_00000023279678385123697860000008904562164264106648_" class="st0" d="M 206.186 350.241 L 1552.276 350.241 C 1591.716 350.241 1623.69 382.215 1623.69 421.655 C 1623.69 461.095 1591.716 493.022 1552.322 493.022 L 206.186 493.022 C 166.746 493.022 134.819 461.049 134.819 421.655 C 134.864 382.215 166.792 350.241 206.186 350.241 Z M 415.525 454.178 L 433.527 454.178 L 433.527 435.58 L 442.46 435.58 C 458.63 435.58 470.402 427.518 470.402 412.173 L 470.402 411.99 C 470.402 397.56 459.821 389.132 443.376 389.132 L 415.525 389.132 Z M 433.573 421.426 L 433.573 404.248 L 442.002 404.248 C 448.506 404.248 452.4 407.226 452.4 412.814 L 452.4 412.997 C 452.4 418.128 448.506 421.472 442.093 421.472 Z M 505.857 454.178 L 555.374 454.178 L 555.374 438.374 L 523.905 438.374 L 523.905 389.132 L 505.903 389.132 Z M 585.745 454.132 L 604.709 454.132 L 609.335 442.543 L 634.392 442.543 L 639.11 454.132 L 658.441 454.132 L 630.773 388.674 L 613.412 388.674 Z M 614.649 428.526 L 621.978 410.02 L 629.216 428.526 Z M 701.27 454.132 L 719.364 454.132 L 719.364 429.534 L 744.054 389.132 L 723.899 389.132 L 710.432 412.814 L 697.056 389.132 L 676.534 389.132 L 701.225 429.809 Z M 856.511 455.277 C 872.314 455.277 882.804 447.398 882.804 434.114 L 882.804 433.931 C 882.804 421.746 873.505 416.937 858.572 413.684 C 849.594 411.623 847.349 410.34 847.349 407.363 L 847.349 407.18 C 847.349 404.889 849.502 403.011 853.854 403.011 C 859.58 403.011 866.085 405.256 872.04 409.424 L 881.064 396.69 C 874.009 391.01 865.352 388.032 854.312 388.032 C 838.738 388.032 829.164 396.736 829.164 408.829 L 829.164 409.012 C 829.164 422.388 839.837 426.281 853.671 429.442 C 862.466 431.503 864.619 432.969 864.619 435.672 L 864.619 435.855 C 864.619 438.649 862.008 440.298 857.198 440.298 C 849.686 440.298 842.54 437.642 836.127 432.511 L 826.095 444.513 C 834.065 451.659 845.059 455.277 856.511 455.277 Z M 935.437 454.132 L 953.531 454.132 L 953.531 429.534 L 978.221 389.132 L 958.065 389.132 L 944.598 412.814 L 931.222 389.132 L 910.701 389.132 L 935.391 429.809 Z M 1033.876 455.277 C 1049.68 455.277 1060.17 447.398 1060.17 434.114 L 1060.17 433.931 C 1060.17 421.746 1050.871 416.937 1035.938 413.684 C 1026.959 411.623 1024.715 410.34 1024.715 407.363 L 1024.715 407.18 C 1024.715 404.889 1026.868 403.011 1031.22 403.011 C 1036.945 403.011 1043.45 405.256 1049.405 409.424 L 1058.429 396.69 C 1051.375 391.01 1042.717 388.032 1031.678 388.032 C 1016.103 388.032 1006.529 396.736 1006.529 408.829 L 1006.529 409.012 C 1006.529 422.388 1017.203 426.281 1031.036 429.442 C 1039.831 431.503 1041.984 432.969 1041.984 435.672 L 1041.984 435.855 C 1041.984 438.649 1039.373 440.298 1034.563 440.298 C 1027.051 440.298 1019.905 437.642 1013.492 432.511 L 1003.46 444.513 C 1011.477 451.659 1022.425 455.277 1033.876 455.277 Z M 1110.832 454.178 L 1128.835 454.178 L 1128.835 404.935 L 1148.349 404.935 L 1148.349 389.132 L 1091.319 389.132 L 1091.319 404.935 L 1110.832 404.935 Z M 1184.124 454.178 L 1236.894 454.178 L 1236.894 438.833 L 1201.989 438.833 L 1201.989 428.526 L 1233.183 428.526 L 1233.183 414.326 L 1201.989 414.326 L 1201.989 404.477 L 1236.436 404.477 L 1236.436 389.132 L 1184.124 389.132 Z M 1273.998 389.132 L 1273.998 454.132 L 1291.633 454.132 L 1291.633 416.982 L 1308.17 442.268 L 1308.536 442.268 L 1325.164 416.799 L 1325.164 454.132 L 1343.075 454.132 L 1343.075 389.132 L 1324.019 389.132 L 1308.491 414.28 L 1292.962 389.132 Z" style="clip-rule: evenodd; fill-rule: evenodd; stroke-width: 0.458072; fill: rgb(255, 255, 255);"/>
    <path class="st3" d="M 310.901 79.154 L 227.761 167.333 L 172.884 129.542 C 172.884 129.542 190.932 112.227 174.442 99.63 C 161.57 89.827 125.566 110.67 127.077 151.621 C 128.909 198.849 157.997 225.6 190.108 225.6 C 219.883 225.6 227.716 201.46 227.716 201.46 L 294.548 201.46 L 294.548 257.115 L 388.545 8.245 L 495.962 8.245 L 582.217 231.876 C 582.217 231.876 588.493 243.694 594.769 246.855 C 594.769 246.855 595.135 100.134 595.135 96.011 C 595.135 91.889 594.585 87.354 592.02 84.422 C 587.806 79.521 580.66 77.551 580.66 77.551 L 580.66 8.245 C 580.66 8.245 680.199 8.245 731.228 8.245 C 809.284 8.245 829.347 29.545 851.976 70.451 C 883.262 28.171 926.275 0.366 987.657 0.366 C 1050.825 0.366 1095.487 23.728 1121.002 62.572 C 1156.64 19.834 1213.99 0 1266.485 0 C 1330.982 0 1384.851 31.332 1412.748 79.933 L 1412.748 8.245 L 1557.819 8.245 L 1573.119 47.227 L 1584.479 8.245 L 1734.268 8.245 L 1734.268 75.948 C 1723.687 81.078 1719.427 86.3 1721.305 98.393 L 1742.239 232.242 C 1743.109 236.594 1744.621 241.129 1748.377 244.473 C 1752.729 248.366 1758.592 247.633 1758.592 247.633 L 1758.592 324.818 L 1608.024 324.818 L 1608.024 266.506 L 1521.723 266.506 L 1521.723 324.956 L 1380.179 324.956 L 1380.179 286.982 C 1380.179 286.982 1328.462 332.651 1261.767 332.651 C 1176.474 332.651 1119.444 269.667 1119.444 269.667 L 1119.444 324.773 C 1119.444 324.773 1113.169 324.773 1019.035 324.773 C 929.711 324.773 853.03 275.667 831.592 186.206 C 821.423 195.917 776.669 228.028 722.983 240.121 C 718.814 241.037 716.707 242.64 716.707 247.221 C 716.707 255.512 734.389 258.444 734.389 258.444 L 734.389 324.773 C 734.389 324.773 270.133 324.773 183.878 324.773 C 81.911 324.818 0.008 254.733 0.008 165.776 C 0.008 76.818 63.863 1.145 169.724 1.145 C 270.912 1.145 310.901 79.154 310.901 79.154 Z M 168.166 31.194 C 101.792 31.194 28.592 78.101 28.592 162.615 C 28.592 217.721 82.69 294.082 179.939 294.082 L 261.521 294.082 L 261.521 230.41 L 246.634 230.41 C 246.634 230.41 237.427 254.825 194.093 254.825 C 119.611 254.825 96.844 187.076 96.844 150.064 C 96.844 113.052 118.053 68.161 165.876 68.161 C 213.699 68.161 215.256 99.218 215.256 106.73 C 215.256 114.197 210.95 118.136 210.95 119.694 C 210.95 120.289 211.133 120.747 211.454 121.022 L 218.875 127.115 C 221.44 129.222 225.242 128.993 227.532 126.565 L 271.278 80.483 C 271.278 80.483 232.48 31.194 168.166 31.194 Z M 328.583 256.245 C 328.583 256.245 326.613 262.566 320.704 268.476 C 315.345 273.881 308.199 276.354 308.199 276.354 L 308.199 294.861 L 386.987 294.861 L 386.987 276.354 C 386.987 276.354 377.826 275.392 375.215 268.842 C 373.657 264.948 373.657 258.627 375.215 254.688 C 376.772 250.748 393.263 206.636 393.263 206.636 L 473.654 206.636 C 473.654 206.636 490.145 250.382 492.481 255.879 C 494.863 261.375 494.863 265.727 491.702 271.224 C 488.542 276.767 482.266 275.942 482.266 275.942 L 482.266 294.861 L 580.706 294.861 L 580.706 276.354 C 580.706 276.354 571.269 273.194 567.376 268.476 C 563.436 263.757 559.497 258.261 557.161 252.351 L 475.578 38.157 L 408.517 38.157 Z M 431.695 91.706 L 458.355 166.509 L 406.593 166.509 Z M 612.038 58.999 C 612.038 58.999 619.459 63.305 622.619 66.466 C 625.734 69.627 625.368 77.505 625.368 77.505 L 625.368 262.566 C 625.368 262.566 624.589 267.285 620.65 271.224 C 616.71 275.163 611.213 276.354 611.213 276.354 L 611.213 294.861 L 702.186 294.861 L 702.186 275.942 C 702.186 275.942 697.835 274.751 693.941 270.033 C 690.002 265.269 689.635 262.521 689.635 262.521 L 689.635 221.615 C 689.635 221.615 733.793 209.522 767.278 194.039 C 796.32 180.663 830.034 161.791 830.034 108.242 C 830.034 54.693 783.769 38.157 737.504 38.157 C 691.239 38.157 612.038 38.157 612.038 38.157 Z M 764.164 112.181 C 764.164 155.515 690.46 186.206 690.46 186.206 L 690.46 76.772 C 690.46 76.772 764.164 58.633 764.164 112.181 Z M 998.696 31.607 C 932.322 31.607 859.122 78.513 859.122 163.027 C 859.122 218.179 913.22 294.54 1010.469 294.54 L 1092.052 294.54 L 1092.052 230.868 L 1077.164 230.868 C 1077.164 230.868 1067.957 255.283 1024.623 255.283 C 950.141 255.283 927.375 187.534 927.375 150.522 C 927.375 113.51 948.583 68.619 996.406 68.619 C 1044.229 68.619 1045.786 99.676 1045.786 107.188 C 1045.786 114.655 1041.48 118.594 1041.48 120.152 C 1041.48 120.747 1041.664 121.205 1041.984 121.48 L 1049.405 127.573 C 1051.97 129.68 1055.772 129.451 1058.063 127.023 L 1101.808 80.941 C 1101.808 80.941 1062.964 31.652 998.696 31.607 Z M 1406.151 164.585 C 1406.151 88.957 1343.716 30.37 1260.576 30.37 C 1177.436 30.37 1115.001 89.003 1115.001 164.585 C 1115.001 240.167 1175.879 302.281 1260.576 302.281 C 1345.274 302.281 1406.151 240.213 1406.151 164.585 Z M 1260.622 71.276 C 1292.779 71.276 1336.708 94.912 1336.708 165.776 C 1336.708 236.64 1297.451 260.276 1260.622 260.276 C 1223.747 260.276 1185.315 241.358 1185.315 165.776 C 1185.315 90.148 1228.42 71.276 1260.622 71.276 Z M 1443.942 38.34 L 1443.942 56.663 C 1443.942 56.663 1455.028 59.503 1457.089 62.801 C 1459.059 65.916 1457.272 72.833 1457.272 72.833 L 1427.681 257.665 C 1427.681 257.665 1426.902 264.765 1422.184 270.262 C 1417.466 275.759 1411.007 276.767 1411.007 276.767 L 1411.007 294.861 L 1492.177 294.861 L 1492.177 277.958 C 1492.177 277.958 1484.344 277.958 1480.038 271.636 C 1476.924 267.056 1477.702 258.673 1477.702 258.673 L 1498.086 118.503 L 1538.488 237.418 L 1587.869 237.418 L 1628.637 110.624 C 1628.637 110.624 1650.991 253.909 1651.77 260.23 C 1652.594 266.506 1651.403 268.888 1648.655 272.827 C 1645.952 276.767 1637.707 277.958 1637.707 277.958 L 1637.707 294.998 L 1731.428 294.998 L 1731.428 279.149 C 1731.428 279.149 1723.962 275.576 1722.404 271.27 C 1720.847 266.918 1720.022 263.391 1719.244 257.07 C 1718.465 250.794 1693.363 79.933 1692.584 73.612 C 1691.805 67.336 1691.805 64.13 1695.332 59.824 C 1698.264 56.251 1704.769 53.502 1704.769 53.502 L 1704.769 38.157 L 1607.153 38.157 L 1571.103 142.918 L 1537.389 38.34 Z" id="path41" style="stroke-width: 0.458072; fill: rgb(255, 255, 255);"/>
  </g>
</svg>