<?xml version="1.0" encoding="utf-8"?>
<svg viewBox="0 0 648 751" fill="none" xmlns="http://www.w3.org/2000/svg">
  <path fill-rule="evenodd" clip-rule="evenodd" d="M 647.167 58.79 L 647.167 577.025 C 647.167 581.885 646.969 586.4 646.54 590.582 C 645.563 599.957 645.379 609.041 636.66 619.384 C 635.809 620.397 626.908 627.021 626.908 627.021 C 622.119 629.369 618.851 631.098 613.449 633.272 L 352.656 742.536 C 339.116 748.742 333.455 751.161 323.621 750.966 L 323.621 750.968 C 323.608 750.968 323.596 750.968 323.583 750.968 C 323.569 750.968 323.557 750.968 323.544 750.968 L 323.544 750.966 C 313.711 751.161 308.049 748.742 294.511 742.536 L 33.716 633.272 C 28.316 631.098 25.047 629.369 20.259 627.021 C 20.259 627.021 11.357 620.397 10.505 619.384 C 1.787 609.041 1.603 599.957 0.625 590.582 C 0.196 586.4 0 581.885 0 577.025 L 0 58.79 C 0 15.842 15.843 0 58.771 0 L 588.396 0 C 631.323 0 647.167 15.842 647.167 58.79 Z M 553.042 519.702 L 553.042 516.832 L 552.922 515.518 L 552.802 514.323 L 552.563 513.127 L 552.325 511.931 L 552.086 510.855 L 551.734 509.779 L 551.375 508.704 L 550.898 507.748 L 550.299 506.671 L 549.709 505.715 L 548.991 504.64 L 548.281 503.683 L 547.445 502.847 L 546.615 501.89 L 545.659 501.054 L 544.71 500.216 L 543.759 499.619 L 542.803 498.902 L 541.855 498.304 L 540.786 497.707 L 539.71 497.108 L 538.521 496.511 L 537.333 496.034 L 536.145 495.435 L 534.83 494.964 L 533.762 494.606 L 532.693 494.247 L 531.497 493.888 L 530.429 493.53 L 529.241 493.171 L 528.051 492.812 L 526.855 492.574 L 525.547 492.215 L 524.359 491.856 L 523.053 491.618 L 521.745 491.258 L 520.437 490.9 L 519.121 490.542 L 517.933 490.302 L 516.865 489.943 L 515.789 489.704 L 514.839 489.346 L 513.89 489.107 L 512.462 488.63 L 511.147 488.151 L 509.959 487.672 L 509.01 487.075 L 507.934 486.478 L 507.105 485.64 L 506.626 484.923 L 506.037 483.608 L 505.915 482.055 L 505.915 481.815 L 506.037 480.62 L 506.506 479.544 L 507.223 478.468 L 508.293 477.511 L 509.13 477.034 L 510.079 476.555 L 511.147 476.316 L 512.343 476.076 L 513.651 475.838 L 516.267 475.838 L 517.335 475.958 L 518.531 476.076 L 519.719 476.196 L 520.907 476.436 L 522.095 476.675 L 523.291 476.915 L 524.479 477.272 L 525.667 477.632 L 526.977 477.99 L 527.933 478.468 L 529.001 478.827 L 529.95 479.304 L 531.026 479.783 L 531.975 480.26 L 533.043 480.739 L 534.001 481.338 L 535.069 481.815 L 536.025 482.532 L 536.975 483.13 L 538.043 483.728 L 538.999 484.444 L 539.71 483.488 L 540.307 482.532 L 541.017 481.576 L 541.735 480.62 L 542.445 479.544 L 543.043 478.588 L 543.759 477.632 L 544.471 476.675 L 545.067 475.719 L 545.778 474.763 L 546.495 473.806 L 547.094 472.85 L 547.803 471.775 L 548.521 470.818 L 549.231 469.862 L 549.829 468.906 L 550.538 467.948 L 549.59 467.232 L 548.641 466.515 L 547.685 465.796 L 546.734 465.2 L 545.659 464.483 L 544.71 463.884 L 543.641 463.287 L 542.565 462.69 L 541.615 462.211 L 540.546 461.614 L 539.351 461.135 L 538.282 460.656 L 537.214 460.179 L 536.145 459.82 L 534.95 459.343 L 533.881 459.103 L 532.811 458.744 L 531.617 458.386 L 530.547 458.147 L 529.359 457.907 L 528.171 457.668 L 527.095 457.43 L 525.906 457.191 L 524.598 457.071 L 523.41 456.832 L 522.095 456.712 L 520.907 456.712 L 519.599 456.592 L 518.291 456.474 L 513.173 456.474 L 511.985 456.592 L 510.797 456.712 L 509.601 456.832 L 508.413 456.951 L 507.343 457.191 L 506.155 457.43 L 505.081 457.668 L 504.01 457.907 L 503.061 458.147 L 501.985 458.506 L 500.797 458.983 L 499.609 459.343 L 498.533 459.82 L 497.465 460.418 L 496.395 460.896 L 495.319 461.494 L 494.371 462.091 L 493.421 462.808 L 492.465 463.526 L 491.635 464.123 L 490.679 464.96 L 489.849 465.918 L 489.013 466.754 L 488.183 467.71 L 487.465 468.666 L 486.754 469.623 L 486.158 470.698 L 485.566 471.775 L 485.089 472.85 L 484.61 473.926 L 484.139 475.002 L 483.901 476.076 L 483.542 477.154 L 483.302 478.23 L 483.063 479.304 L 482.943 480.5 L 482.825 481.576 L 482.705 482.771 L 482.705 485.522 L 482.825 486.835 L 482.943 488.031 L 483.063 489.226 L 483.302 490.302 L 483.542 491.498 L 483.901 492.454 L 484.251 493.53 L 484.61 494.487 L 485.089 495.316 L 485.686 496.391 L 486.277 497.348 L 486.875 498.184 L 487.585 499.02 L 488.302 499.858 L 489.133 500.695 L 489.969 501.531 L 490.798 502.25 L 491.754 502.847 L 492.703 503.564 L 493.773 504.162 L 494.729 504.759 L 495.918 505.356 L 496.986 505.954 L 498.181 506.432 L 499.37 506.91 L 500.558 507.388 L 501.866 507.867 L 502.942 508.226 L 504.01 508.584 L 505.081 508.943 L 506.267 509.183 L 507.343 509.54 L 508.533 509.899 L 509.719 510.139 L 510.915 510.498 L 512.103 510.736 L 513.411 511.095 L 514.601 511.334 L 515.907 511.692 L 517.103 511.931 L 518.291 512.29 L 519.361 512.528 L 520.437 512.888 L 521.385 513.127 L 522.215 513.367 L 523.642 513.963 L 524.838 514.442 L 525.906 514.92 L 526.855 515.398 L 527.813 516.115 L 528.642 516.832 L 529.241 517.668 L 529.719 518.864 L 529.837 520.299 L 529.837 520.538 L 529.719 521.734 L 529.359 522.808 L 528.881 523.766 L 528.171 524.603 L 527.215 525.32 L 526.385 525.798 L 525.429 526.156 L 524.359 526.395 L 523.291 526.635 L 522.095 526.874 L 520.787 526.992 L 518.171 526.992 L 516.865 526.874 L 515.675 526.874 L 514.481 526.635 L 513.173 526.515 L 511.985 526.276 L 510.797 526.038 L 509.601 525.798 L 508.533 525.439 L 507.343 525.08 L 506.155 524.722 L 505.081 524.244 L 504.01 523.886 L 502.942 523.407 L 501.866 522.93 L 500.797 522.451 L 499.849 521.852 L 498.771 521.375 L 497.823 520.776 L 496.754 520.06 L 495.798 519.463 L 494.729 518.746 L 493.773 518.028 L 492.703 517.311 L 491.754 516.594 L 491.037 517.55 L 490.207 518.386 L 489.49 519.343 L 488.661 520.299 L 487.943 521.135 L 487.233 522.092 L 486.397 523.048 L 485.686 523.886 L 484.849 524.842 L 484.139 525.678 L 483.302 526.635 L 482.593 527.591 L 481.875 528.427 L 481.045 529.383 L 480.327 530.34 L 479.498 531.178 L 478.781 532.134 L 479.73 532.97 L 480.566 533.687 L 481.517 534.404 L 482.473 535.122 L 484.371 536.556 L 485.327 537.154 L 486.277 537.751 L 487.353 538.35 L 488.302 538.946 L 489.371 539.544 L 490.446 540.023 L 491.515 540.612 L 492.585 541.091 L 493.659 541.57 L 494.849 542.048 L 495.918 542.406 L 497.106 542.764 L 498.181 543.243 L 499.37 543.602 L 500.558 543.96 L 501.627 544.2 L 502.822 544.558 L 504.01 544.796 L 505.198 545.036 L 506.387 545.275 L 507.583 545.514 L 508.771 545.634 L 509.959 545.872 L 511.267 545.992 L 512.462 546.112 L 513.651 546.232 L 514.958 546.232 L 516.147 546.351 L 521.146 546.351 L 522.335 546.232 L 523.642 546.112 L 524.838 545.992 L 525.906 545.872 L 527.095 545.754 L 528.291 545.514 L 529.359 545.275 L 530.429 545.036 L 531.617 544.796 L 532.693 544.439 L 533.881 544.079 L 535.069 543.722 L 536.257 543.243 L 537.453 542.764 L 538.521 542.167 L 539.59 541.688 L 540.666 541.091 L 541.615 540.374 L 542.565 539.784 L 543.521 539.067 L 544.351 538.35 L 545.306 537.512 L 546.017 536.795 L 546.854 535.958 L 547.563 535.122 L 548.162 534.166 L 548.873 533.21 L 549.47 532.252 L 550.067 531.296 L 550.538 530.222 L 551.017 529.264 L 551.494 528.188 L 551.854 526.992 L 552.086 525.916 L 552.443 524.722 L 552.683 523.526 L 552.802 522.212 L 552.922 521.016 Z M 470.653 544.918 L 470.653 525.199 L 423.998 525.199 L 423.998 510.378 L 465.414 510.378 L 465.414 491.856 L 423.998 491.856 L 423.998 477.632 L 470.055 477.632 L 470.055 457.907 L 401.273 457.907 L 401.273 544.918 Z M 383.699 544.918 L 383.699 457.907 L 359.307 457.907 L 358.71 458.864 L 358.119 459.939 L 357.402 460.888 L 356.803 461.964 L 356.214 462.92 L 355.615 463.998 L 354.906 464.946 L 354.307 466.023 L 353.711 466.979 L 353.119 467.935 L 352.403 469.003 L 351.811 469.96 L 351.214 471.035 L 350.617 471.992 L 349.907 473.06 L 349.307 474.016 L 348.718 474.972 L 348.119 476.043 L 347.522 476.998 L 346.811 478.074 L 346.215 479.031 L 345.617 480.099 L 345.026 481.056 L 344.309 482.131 L 343.719 483.08 L 343.121 484.036 L 342.523 485.112 L 341.813 486.07 L 341.215 487.146 L 340.623 488.095 L 340.027 489.171 L 339.317 490.127 L 338.719 491.195 L 338.122 492.152 L 337.531 491.195 L 336.934 490.127 L 336.215 489.171 L 335.625 488.095 L 335.027 487.146 L 334.437 486.07 L 333.839 485.112 L 333.122 484.036 L 332.531 483.08 L 331.933 482.131 L 331.343 481.056 L 330.746 480.099 L 330.029 479.031 L 329.437 478.074 L 328.839 476.998 L 328.25 476.043 L 327.651 474.972 L 326.934 474.016 L 326.343 473.06 L 325.746 471.992 L 325.149 471.035 L 324.438 469.96 L 323.841 469.003 L 323.25 467.935 L 322.651 466.979 L 322.055 466.023 L 321.343 464.946 L 320.746 463.998 L 320.155 462.92 L 319.558 461.964 L 318.959 460.888 L 318.25 459.939 L 317.653 458.864 L 317.062 457.907 L 292.662 457.907 L 292.662 544.918 L 315.275 544.918 L 315.275 493.706 L 315.985 494.662 L 316.585 495.746 L 317.294 496.7 L 317.891 497.776 L 318.609 498.734 L 319.199 499.808 L 319.917 500.772 L 320.507 501.848 L 321.225 502.804 L 321.822 503.88 L 322.533 504.836 L 323.13 505.92 L 323.841 506.876 L 324.438 507.952 L 325.149 508.908 L 325.746 509.991 L 326.463 510.947 L 327.173 512.023 L 327.771 512.979 L 328.481 514.062 L 329.079 515.018 L 329.797 516.094 L 330.386 517.05 L 331.103 518.134 L 331.694 519.09 L 332.411 520.164 L 333.01 521.122 L 333.719 522.198 L 334.317 523.162 L 335.027 524.236 L 335.625 525.192 L 336.335 526.268 L 336.934 527.232 L 337.65 528.308 L 338.122 528.308 L 338.719 527.352 L 339.43 526.268 L 340.027 525.312 L 340.745 524.356 L 341.335 523.28 L 342.051 522.323 L 342.642 521.36 L 343.241 520.286 L 343.958 519.328 L 344.549 518.372 L 345.266 517.41 L 345.857 516.334 L 346.573 515.378 L 347.171 514.42 L 347.762 513.338 L 348.479 512.382 L 349.069 511.424 L 349.786 510.35 L 350.377 509.392 L 351.094 508.43 L 351.693 507.354 L 352.283 506.398 L 353.001 505.442 L 353.591 504.359 L 354.307 503.402 L 354.906 502.446 L 355.615 501.49 L 356.214 500.407 L 356.803 499.451 L 357.522 498.494 L 358.119 497.419 L 358.829 496.462 L 359.427 495.506 L 360.138 494.422 L 360.734 493.466 L 360.734 544.918 Z M 244.91 510.139 L 224.801 510.139 L 225.271 509.063 L 225.63 507.98 L 226.109 506.784 L 226.587 505.708 L 226.938 504.626 L 227.415 503.55 L 227.894 502.354 L 228.366 501.271 L 228.723 500.195 L 229.202 499.12 L 229.679 498.038 L 230.031 496.842 L 230.51 495.766 L 230.987 494.683 L 231.347 493.607 L 231.818 492.531 L 232.297 491.33 L 232.774 490.252 L 233.126 489.178 L 233.605 488.095 L 234.083 486.899 L 234.441 485.816 L 234.911 484.74 L 235.39 485.816 L 235.749 486.899 L 236.219 488.095 L 236.698 489.178 L 237.057 490.252 L 237.534 491.33 L 238.006 492.531 L 238.363 493.607 L 238.842 494.683 L 239.321 495.766 L 239.671 496.842 L 240.15 498.038 L 240.51 499.12 L 240.979 500.195 L 241.458 501.271 L 241.818 502.354 L 242.295 503.55 L 242.766 504.626 L 243.125 505.708 L 243.603 506.784 L 244.074 507.98 L 244.433 509.063 Z M 282.993 544.918 L 282.515 543.84 L 282.037 542.764 L 281.567 541.688 L 281.207 540.494 L 280.729 539.424 L 280.251 538.35 L 279.779 537.274 L 278.825 535.122 L 278.354 533.926 L 277.875 532.85 L 277.515 531.775 L 277.045 530.699 L 276.089 528.547 L 275.611 527.352 L 275.141 526.276 L 274.662 525.199 L 274.183 524.124 L 273.833 523.048 L 273.354 521.972 L 272.875 520.776 L 272.397 519.702 L 271.926 518.626 L 271.447 517.55 L 270.97 516.474 L 270.498 515.398 L 270.141 514.202 L 269.662 513.127 L 269.19 512.051 L 268.713 510.975 L 268.234 509.899 L 267.757 508.823 L 267.285 507.628 L 266.807 506.552 L 266.449 505.476 L 265.978 504.4 L 265.499 503.326 L 265.021 502.25 L 264.543 501.054 L 264.071 499.978 L 263.115 497.826 L 262.763 496.751 L 262.286 495.674 L 261.807 494.606 L 261.337 493.41 L 260.858 492.335 L 260.379 491.258 L 259.902 490.182 L 259.431 489.107 L 259.071 488.031 L 258.594 486.835 L 258.123 485.76 L 256.689 482.532 L 256.217 481.456 L 255.739 480.26 L 255.381 479.186 L 254.91 478.11 L 254.431 477.034 L 253.954 475.958 L 253.483 474.882 L 253.005 473.687 L 252.047 471.535 L 251.697 470.459 L 251.218 469.384 L 250.739 468.307 L 250.269 467.112 L 249.79 466.036 L 249.313 464.96 L 248.834 463.884 L 248.363 462.808 L 248.005 461.734 L 247.527 460.538 L 247.055 459.462 L 246.099 457.31 L 224.083 457.31 L 223.613 458.386 L 223.134 459.462 L 222.657 460.538 L 222.297 461.734 L 221.826 462.808 L 221.349 463.884 L 220.87 464.96 L 220.399 466.036 L 219.921 467.112 L 219.442 468.307 L 218.963 469.384 L 218.613 470.459 L 217.655 472.611 L 217.185 473.687 L 216.706 474.882 L 216.229 475.958 L 215.757 477.034 L 215.279 478.11 L 214.921 479.186 L 214.443 480.26 L 213.971 481.456 L 213.494 482.532 L 213.015 483.608 L 212.543 484.684 L 212.066 485.76 L 211.587 486.835 L 211.229 488.031 L 210.758 489.107 L 210.279 490.182 L 209.802 491.258 L 209.33 492.335 L 208.853 493.41 L 208.375 494.606 L 207.903 495.674 L 207.545 496.751 L 207.066 497.826 L 206.589 498.902 L 206.118 499.978 L 205.639 501.054 L 205.161 502.25 L 204.69 503.326 L 204.211 504.4 L 203.853 505.476 L 203.375 506.552 L 202.903 507.628 L 202.426 508.823 L 201.949 509.899 L 201.477 510.975 L 200.521 513.127 L 200.162 514.202 L 199.691 515.398 L 199.213 516.474 L 198.734 517.55 L 198.263 518.626 L 197.785 519.702 L 197.306 520.776 L 196.835 521.972 L 196.477 523.048 L 195.999 524.124 L 195.521 525.199 L 195.049 526.276 L 194.571 527.352 L 194.093 528.547 L 193.622 529.623 L 193.143 530.699 L 192.786 531.775 L 192.307 532.85 L 191.837 533.926 L 191.358 535.122 L 190.879 536.198 L 190.409 537.274 L 189.931 538.35 L 189.453 539.424 L 189.094 540.494 L 188.622 541.688 L 188.145 542.764 L 187.666 543.84 L 187.195 544.918 L 211.229 544.918 L 211.707 543.84 L 212.066 542.764 L 212.543 541.688 L 213.015 540.494 L 213.374 539.424 L 213.853 538.35 L 214.323 537.274 L 214.682 536.198 L 215.161 535.122 L 215.638 534.046 L 215.99 532.97 L 216.467 531.775 L 216.946 530.699 L 217.305 529.623 L 217.775 528.547 L 251.927 528.547 L 252.406 529.623 L 252.765 530.699 L 253.243 531.775 L 253.715 532.97 L 254.073 534.046 L 255.029 536.198 L 255.381 537.274 L 255.859 538.35 L 256.337 539.424 L 256.689 540.494 L 257.167 541.688 L 257.645 542.764 L 258.003 543.84 L 258.475 544.918 Z M 178.378 533.09 L 178.378 494.247 L 139.106 494.247 L 139.106 511.692 L 156.482 511.692 L 156.482 522.57 L 155.531 523.168 L 154.695 523.646 L 153.627 524.124 L 152.671 524.603 L 151.601 525.08 L 150.533 525.32 L 149.345 525.678 L 148.149 525.916 L 146.961 526.156 L 145.773 526.276 L 144.465 526.395 L 143.149 526.515 L 140.414 526.515 L 139.106 526.395 L 137.918 526.276 L 136.73 526.038 L 135.534 525.798 L 134.346 525.439 L 133.157 525.08 L 132.082 524.603 L 131.014 524.124 L 129.943 523.646 L 128.987 523.048 L 128.039 522.451 L 127.09 521.734 L 126.133 521.016 L 125.305 520.299 L 124.586 519.463 L 123.757 518.626 L 123.039 517.79 L 122.329 516.832 L 121.731 515.876 L 121.134 514.92 L 120.543 513.844 L 120.066 512.767 L 119.587 511.572 L 119.235 510.616 L 118.877 509.54 L 118.638 508.466 L 118.398 507.388 L 118.159 506.314 L 118.039 505.118 L 117.921 504.042 L 117.809 502.847 L 117.809 500.096 L 117.921 498.902 L 118.039 497.707 L 118.279 496.391 L 118.518 495.316 L 118.757 494.127 L 119.115 492.932 L 119.587 491.856 L 119.946 490.78 L 120.423 489.704 L 121.022 488.748 L 121.611 487.672 L 122.209 486.716 L 122.801 485.879 L 123.518 484.923 L 124.347 484.086 L 125.065 483.25 L 125.894 482.532 L 126.731 481.815 L 127.561 481.099 L 128.518 480.5 L 129.466 479.902 L 130.422 479.304 L 131.491 478.827 L 132.561 478.348 L 133.629 477.99 L 134.705 477.632 L 135.774 477.392 L 136.962 477.154 L 138.038 477.034 L 139.226 476.915 L 141.722 476.915 L 143.037 477.034 L 144.345 477.154 L 145.534 477.272 L 146.722 477.511 L 147.91 477.751 L 148.986 477.99 L 150.054 478.348 L 151.123 478.707 L 152.079 479.066 L 153.029 479.544 L 153.985 480.022 L 155.053 480.62 L 156.003 481.216 L 156.959 481.815 L 157.909 482.412 L 158.858 483.13 L 159.814 483.728 L 160.763 484.564 L 161.719 485.282 L 162.43 484.326 L 163.266 483.488 L 163.978 482.532 L 164.814 481.576 L 165.523 480.62 L 166.241 479.783 L 167.071 478.827 L 167.787 477.871 L 168.618 476.915 L 169.335 476.076 L 170.045 475.12 L 170.882 474.164 L 171.593 473.328 L 172.31 472.371 L 173.139 471.415 L 173.857 470.459 L 174.686 469.623 L 175.403 468.666 L 174.454 467.948 L 173.498 467.112 L 172.549 466.395 L 171.593 465.678 L 170.643 465.079 L 169.694 464.363 L 168.618 463.764 L 167.669 463.167 L 166.601 462.57 L 165.643 461.972 L 164.575 461.494 L 163.506 460.896 L 162.43 460.418 L 161.362 459.939 L 160.293 459.462 L 159.217 459.103 L 158.267 458.744 L 157.199 458.506 L 156.123 458.147 L 155.053 457.907 L 153.985 457.668 L 152.91 457.43 L 151.721 457.191 L 150.533 456.951 L 149.457 456.832 L 148.149 456.592 L 146.961 456.474 L 145.773 456.474 L 144.465 456.354 L 143.149 456.234 L 138.038 456.234 L 136.842 456.354 L 135.653 456.474 L 134.466 456.592 L 133.277 456.712 L 132.082 456.951 L 130.893 457.071 L 129.705 457.31 L 128.635 457.668 L 127.441 457.907 L 126.373 458.266 L 125.305 458.506 L 124.227 458.983 L 123.039 459.343 L 122.09 459.7 L 120.901 460.299 L 119.826 460.776 L 118.757 461.255 L 117.689 461.852 L 116.613 462.45 L 115.543 463.048 L 114.595 463.646 L 113.638 464.243 L 112.689 464.96 L 111.733 465.558 L 110.783 466.275 L 109.953 466.992 L 108.997 467.83 L 108.167 468.546 L 107.331 469.384 L 106.501 470.219 L 105.783 471.056 L 104.954 471.892 L 104.237 472.731 L 103.526 473.687 L 102.809 474.643 L 102.099 475.599 L 101.501 476.555 L 100.905 477.511 L 100.313 478.468 L 99.715 479.424 L 99.118 480.5 L 98.647 481.576 L 97.691 483.728 L 97.219 484.803 L 96.741 485.999 L 96.382 487.075 L 96.023 488.27 L 95.673 489.346 L 95.433 490.542 L 95.074 491.736 L 94.835 492.812 L 94.717 494.008 L 94.478 495.196 L 94.357 496.511 L 94.245 497.707 L 94.245 498.902 L 94.126 500.216 L 94.126 504.162 L 94.245 505.356 L 94.357 506.552 L 94.478 507.748 L 94.595 508.823 L 94.835 510.019 L 94.955 511.095 L 95.194 512.29 L 95.553 513.367 L 95.791 514.562 L 96.143 515.636 L 96.382 516.712 L 96.861 517.79 L 97.219 518.746 L 97.691 519.82 L 98.647 521.972 L 99.118 523.048 L 99.715 524.004 L 100.313 525.08 L 100.905 526.038 L 101.501 526.992 L 102.211 527.95 L 102.809 528.906 L 103.526 529.743 L 104.237 530.699 L 104.954 531.535 L 105.783 532.372 L 106.621 533.21 L 107.45 533.926 L 108.287 534.763 L 109.117 535.48 L 109.953 536.198 L 110.903 536.915 L 111.853 537.631 L 112.809 538.35 L 113.758 538.946 L 114.714 539.544 L 115.783 540.142 L 116.731 540.734 L 117.809 541.331 L 118.877 541.81 L 119.946 542.287 L 121.022 542.764 L 122.209 543.243 L 123.278 543.602 L 124.347 544.079 L 125.423 544.439 L 126.611 544.678 L 127.681 545.036 L 128.875 545.275 L 129.943 545.514 L 131.133 545.754 L 132.321 545.992 L 133.517 546.112 L 134.705 546.232 L 135.893 546.351 L 137.201 546.471 L 138.389 546.59 L 143.509 546.59 L 144.815 546.471 L 146.011 546.351 L 147.319 546.232 L 148.507 546.112 L 149.815 545.992 L 151.005 545.872 L 152.199 545.634 L 153.387 545.395 L 154.457 545.156 L 155.653 544.918 L 156.721 544.558 L 157.909 544.2 L 158.978 543.84 L 160.053 543.482 L 161.123 543.123 L 162.191 542.644 L 163.387 542.167 L 164.455 541.688 L 165.643 541.211 L 166.713 540.612 L 167.787 540.142 L 168.857 539.544 L 169.926 538.946 L 171.002 538.35 L 171.951 537.751 L 172.907 537.154 L 173.857 536.436 L 174.806 535.839 L 175.762 535.122 L 176.593 534.523 L 177.549 533.806 Z M 508.708 269.68 L 508.708 334.672 C 508.708 346.191 503.384 351.535 492.337 351.535 L 484.145 351.535 C 472.685 351.535 467.361 346.191 467.361 334.672 L 467.361 152.856 C 467.361 141.339 472.685 135.995 484.145 135.995 L 491.515 135.995 C 502.568 135.995 507.892 141.339 507.892 152.856 L 507.892 209.215 L 550.869 209.215 L 550.869 150.388 C 550.869 114.605 533.676 97.328 498.069 97.328 L 476.777 97.328 C 441.169 97.328 423.561 115.013 423.561 150.803 L 423.561 336.725 C 423.561 372.516 441.169 390.2 476.777 390.2 L 498.476 390.2 C 534.092 390.2 551.691 372.516 551.691 336.725 L 551.691 269.68 Z M 356.608 387.732 L 400.413 387.732 L 400.413 99.796 L 356.608 99.796 Z M 293.049 227.722 C 293.049 239.24 287.733 244.591 276.68 244.591 L 258.665 244.591 L 258.665 138.463 L 276.68 138.463 C 287.733 138.463 293.049 143.808 293.049 155.324 Z M 283.635 99.796 L 214.865 99.796 L 214.865 387.732 L 258.665 387.732 L 258.665 283.25 L 283.635 283.25 C 319.249 283.25 336.849 265.566 336.849 229.783 L 336.849 153.271 C 336.849 117.482 319.249 99.796 283.635 99.796 Z M 139.274 261.037 L 190.852 261.037 L 190.852 221.141 L 139.274 221.141 L 139.274 139.693 L 192.905 139.693 L 192.905 99.797 L 95.476 99.797 L 95.476 387.732 L 193.721 387.732 L 193.721 347.835 L 139.274 347.835 Z M 321.562 690.289 L 449.544 648.083 L 198.805 648.083 Z" fill="white" clip-path="url(#clip1)"/>
  <defs>
    <clipPath id="clip1">
      <rect width="647.167" height="750.977" fill="white"/>
    </clipPath>
  </defs>
  <script/>
</svg>