<?xml version="1.0" encoding="utf-8"?>
<svg version="1.1" id="Layer_1" x="0px" y="0px" viewBox="-0.003 -0.001 500 150.2" enable-background="new -0.003 -0.001 566.931 154.093" xmlns="http://www.w3.org/2000/svg">
  <path id="path4994-4" style="color: rgb(0, 0, 0); display: inline; overflow: visible; visibility: visible; fill-opacity: 1; fill-rule: evenodd; stroke: none; fill: rgb(255, 255, 255);" d="M 369.117 149.397 C 368.144 148.822 365.779 146.836 363.864 144.979 C 359.694 140.939 358.374 140.492 356.031 142.33 C 354.573 143.473 354.341 144.015 354.461 145.993 C 354.538 147.268 354.38 148.313 354.115 148.313 C 353.075 148.313 349.923 144.52 348.519 141.575 C 345.65 135.559 345.183 129.813 347.415 128.018 C 348.039 127.513 349.698 127.301 352.354 127.379 C 357.981 127.543 360.904 129.231 367.412 136.071 C 372.838 141.774 373.645 142.2 376.813 141.032 C 378.894 140.267 379.09 138.638 377.796 132.871 C 376.544 127.285 375.343 124.148 374.063 123.12 C 373.373 122.563 373.009 122.775 372.042 124.288 C 371.395 125.303 370.08 126.861 369.121 127.749 L 367.377 129.365 L 361.42 125.798 C 358.143 123.836 353.406 121.427 350.893 120.445 C 348.38 119.462 346.093 118.434 345.809 118.16 C 345.063 117.438 345.115 115.691 346.102 108.445 C 347.299 99.62 347.326 75.975 346.16 72.79 C 345.702 71.554 345.321 70.364 345.316 70.145 C 345.258 69.503 348.038 67.13 355.441 61.365 C 361.901 56.336 369.218 49.722 371.487 46.861 C 373.037 44.908 374.655 45.781 376.627 49.631 C 379.144 54.549 381.976 58.176 388.333 64.624 C 391.44 67.776 393.982 70.812 393.982 71.368 C 393.982 71.924 393.289 72.819 392.443 73.357 L 390.904 74.333 L 391.297 86.196 C 391.514 92.719 391.936 100.584 392.235 103.673 C 393.116 112.77 392.959 123.51 391.895 127.013 C 388.607 137.817 380.232 147.946 372.981 149.885 C 371.29 150.336 370.582 150.249 369.139 149.399 Z M 373.968 92.443 C 373.968 72.438 373.91 72.201 372.624 69.586 C 371.327 67.033 367.882 63.525 366.674 63.525 C 366.352 63.525 365.656 64.472 365.132 65.63 C 364.321 67.419 364.144 70.694 363.957 87.389 L 363.734 107.042 L 365.25 109.002 C 367.127 111.434 369.94 112.959 372.227 112.787 L 373.966 112.653 Z M 52.799 135.092 C 52.095 134.617 50.682 133.035 49.658 131.582 C 46.93 127.717 40.673 121.767 37.014 119.56 C 31.891 116.47 23.624 114.093 20.578 114.833 C 17.252 115.643 16.012 118.647 17.26 122.867 C 17.914 125.079 16.973 125.611 14.829 124.246 C 9.98 121.164 4.565 110.577 4.564 104.177 C 4.564 98.653 5.31 97.326 9.436 95.513 C 16.117 92.578 21.231 92.196 32.034 93.825 C 36.884 94.556 37.775 94.323 39.303 91.926 C 41.482 88.507 41.151 88.078 34.261 85.423 C 15.524 78.199 3.654 68.988 0.863 59.507 C -0.421 55.143 -0.318 53.364 1.475 49.021 C 5.22 39.945 12.433 29.967 32.8 5.69 L 36.804 0.917 L 40.637 0.747 C 43.761 0.612 45.579 0.941 50.449 2.516 C 53.736 3.579 57.604 4.945 59.043 5.551 C 67.504 9.12 75.214 10.579 77.993 9.138 C 78.676 8.786 82.884 2.927 83.565 1.999 C 85.263 -0.311 87.901 -0.881 90.236 1.694 C 94.453 8.099 85.114 29.443 77.879 39.354 C 76.074 41.727 76.032 42.99 77.722 44.135 C 89.124 51.862 92.403 54.312 96.133 57.889 C 98.556 60.212 101.641 63.913 102.986 66.111 C 106.332 71.579 106.97 75.151 106.055 83.326 C 104.788 94.665 101.976 101.812 97.162 105.929 C 83.54 117.579 64.978 131.145 58.035 134.524 C 54.587 136.201 54.464 136.215 52.799 135.087 Z M 79.467 110.944 C 81.877 109.23 84 107.445 84.184 106.978 C 84.624 105.863 83.081 103.023 81.145 101.388 C 80.298 100.673 78.035 99.341 76.117 98.428 C 72.793 96.847 70.108 95.996 57.082 92.395 L 51.364 90.814 L 49.115 93.15 C 46.817 95.536 46.232 97.697 47.589 98.777 C 47.988 99.094 49.694 99.79 51.382 100.323 C 55.877 101.741 66.576 108.842 70.278 112.862 C 72.186 114.933 74.552 114.44 79.467 110.944 Z M 95.191 91.546 C 96.096 86.07 93.728 81.258 86.921 74.739 C 81.271 69.328 74.384 65.042 69.712 64.028 C 65.941 63.21 65.252 63.459 63.404 66.294 C 61.32 69.495 61.464 70.962 63.979 72.123 C 65.105 72.645 66.507 73.07 67.095 73.07 C 69.437 73.07 80.651 78.331 84.825 81.388 C 87.074 83.035 88.305 84.613 90.5 88.669 C 92.042 91.516 93.643 93.846 94.058 93.846 C 94.492 93.846 94.973 92.871 95.191 91.546 Z M 51.791 67.587 C 53.52 66.359 56.136 62.746 56.136 61.59 C 56.136 59.845 52.484 58.092 46.731 57.075 C 41.141 56.088 38.203 55.136 32.791 52.559 C 27.202 49.897 19.188 43.74 17.68 40.95 C 16.179 38.17 14.73 38.831 14.206 42.534 C 13.713 46.003 15.209 48.503 20.905 53.746 C 24.687 57.227 33.619 62.963 35.257 62.963 C 35.597 62.963 36.324 63.203 36.878 63.496 C 40.076 65.195 47.685 67.654 50.631 67.942 C 50.948 68 51.472 67.813 51.791 67.584 Z M 67.564 39.239 C 69.234 37.478 71.202 33.732 71.202 32.312 C 71.202 31.192 70.821 31.104 64.683 30.781 C 57.084 30.383 55.637 29.985 44.913 25.366 C 35.396 21.268 32.261 20.696 29.236 22.508 C 25.546 24.717 25.707 28.148 29.605 30.468 C 33.999 33.083 42.732 35.597 58.656 38.829 C 61.478 39.404 63.934 40.013 64.113 40.187 C 64.825 40.876 66.424 40.439 67.561 39.239 Z M 266.229 131.707 C 265.754 131.25 263.187 128.163 260.521 124.853 C 251.445 113.581 250.273 111.304 252.525 109.328 C 253.711 108.288 253.731 107.873 253.731 83.615 C 253.731 67.693 253.52 58.574 253.13 57.872 C 252.744 57.174 251.918 56.786 250.813 56.786 C 247.314 56.786 248.627 54.596 260.966 39.86 C 263.201 37.19 265.787 33.938 266.712 32.631 L 268.394 30.258 L 269.4 31.549 C 270.684 33.198 271.114 36.322 271.114 43.97 C 271.114 50.732 271.185 50.869 275.75 53.616 C 278.651 55.361 279.818 58.09 280.217 64.062 C 280.616 70.039 280.288 70.278 275.648 67.393 C 270.907 64.444 271.048 63.789 271.24 87.803 L 271.404 108.544 L 273.03 109.898 C 273.923 110.644 275.292 111.253 276.071 111.253 C 276.948 111.253 277.488 111.575 277.488 112.1 C 277.488 112.843 275.228 117.964 270.128 128.773 C 268.475 132.28 267.543 132.98 266.229 131.707 Z M 126.495 129.924 C 125.597 128.765 124.712 127.691 124.526 127.537 C 123.758 126.895 116.528 117.559 115.391 115.738 C 112.944 111.823 112.78 110.804 114.381 109.456 L 115.82 108.243 L 115.82 84.621 C 115.82 69.978 115.586 60.197 115.213 58.892 C 114.663 56.978 114.428 56.786 112.609 56.786 C 111.508 56.786 110.608 56.629 110.608 56.435 C 110.608 55.282 114.815 49.391 119.999 43.287 C 123.288 39.412 126.873 34.894 127.964 33.246 L 129.949 30.248 L 131.288 31.758 C 132.557 33.187 132.628 33.704 132.628 41.56 C 132.628 50.835 132.505 50.527 137.482 53.417 C 140.381 55.099 141.656 57.969 142.164 63.949 C 142.651 69.679 142.088 70.12 137.686 67.469 C 132.716 64.474 132.918 63.652 132.918 86.946 C 132.918 103.082 133.082 107.447 133.72 108.606 C 134.442 109.915 135.399 110.478 138.565 111.464 C 139.517 111.757 139.506 111.968 138.39 114.87 C 137.734 116.57 136.214 119.925 135.014 122.328 C 133.813 124.73 132.33 127.895 131.717 129.36 C 130.305 132.745 128.813 132.905 126.503 129.924 Z M 473.35 128.712 C 469.198 124.523 466.623 123.644 463.343 125.301 C 462.131 125.913 460.897 126.414 460.601 126.414 C 459.734 126.414 457.629 124.038 456.761 122.079 C 455.979 120.316 456.086 120.028 461.074 110.288 C 463.887 104.796 466.342 99.727 466.529 99.022 C 466.975 97.355 465.513 96.421 460.589 95.221 C 455.168 93.9 455.11 93.804 456.344 88.177 C 457.463 83.073 457.831 68.115 456.918 64.862 C 456.344 62.822 456.397 62.763 461.756 59.459 C 466.259 56.682 473.356 49.927 474.445 47.38 C 475.463 44.997 476.335 45.079 478.534 47.767 C 479.803 49.321 481.317 50.334 483.607 51.165 C 487.562 52.598 489.653 52.466 490.438 50.73 C 491.35 48.717 492.573 49.485 494.649 53.371 C 496.135 56.154 496.486 57.365 496.19 58.701 C 495.903 60.005 489.702 73.129 488.016 76.004 C 487.882 76.233 488.635 76.925 489.686 77.547 C 491.136 78.403 492.613 78.677 495.799 78.678 L 500 78.678 L 499.942 80.503 C 499.884 81.506 499.543 82.817 499.072 83.417 C 498.425 84.246 498.221 86.258 498.221 91.802 C 498.221 95.814 497.928 101.341 497.562 104.082 C 497.069 107.812 497.069 109.229 497.562 109.708 C 499.532 111.616 497.193 114.942 490.731 119.426 C 488.037 121.295 484.476 124.527 482.046 127.308 C 479.779 129.9 477.626 132.021 477.262 132.021 C 476.898 132.021 475.119 130.529 473.311 128.704 Z M 481.212 110.391 C 481.858 108.896 482.028 106.521 481.907 100.765 C 481.773 94.204 481.602 93.037 480.732 92.505 C 480.02 92.072 479.432 92.059 478.757 92.447 C 477.862 92.992 474.484 98.718 473.732 100.964 C 473.551 101.509 472.474 103.603 471.346 105.611 C 470.217 107.618 469.292 109.818 469.29 110.499 C 469.29 111.645 469.601 111.753 473.489 111.932 C 475.8 112.038 478.289 112.172 479.023 112.237 C 480.05 112.325 480.553 111.891 481.212 110.364 Z M 477.528 80.229 C 479.103 79.04 484.353 69.56 484.353 67.905 C 484.353 66.523 483.908 66.148 480.507 64.653 C 476.564 62.921 475.347 62.647 474.889 63.384 C 474.748 63.613 474.443 67.233 474.211 71.424 C 473.841 78.155 473.906 79.152 474.768 79.987 C 475.934 81.116 476.309 81.15 477.526 80.227 Z M 207.737 128.364 C 205.966 126.966 204.312 125.475 204.063 125.049 C 203.81 124.622 202.228 122.844 200.542 121.093 C 196.653 117.053 196.366 115.683 196.36 101.21 C 196.359 95.152 196.085 89.258 195.76 88.112 C 195.367 86.728 194.292 85.334 192.576 83.973 C 190.001 81.927 189.071 79.457 190.714 79.019 C 191.113 78.914 192.872 78.51 194.627 78.121 C 200.893 76.734 201.209 75.466 195.696 73.826 C 193.122 73.059 192.003 72.402 191.408 71.304 C 190.673 69.947 190.751 69.53 192.316 66.53 C 196.843 57.844 210.075 43.872 213.773 43.872 C 215.961 43.872 221.59 47.709 226.207 52.344 C 230.452 56.607 236.149 60.585 238.736 61.093 C 240.898 61.515 242.988 65.231 242.416 67.635 C 242.181 68.617 241.807 77.632 241.582 87.669 C 241.359 97.706 240.97 106.487 240.721 107.182 C 240.328 108.273 240.463 108.445 241.722 108.445 C 245.238 108.445 243.941 111.85 237.015 120.799 C 231.83 127.5 229.216 130.09 228.234 129.502 C 227.865 129.279 226.66 127.735 225.561 126.07 C 224.407 124.323 223.142 123.047 222.567 123.05 C 222.022 123.05 219.383 124.823 216.709 126.982 C 214.035 129.14 211.646 130.906 211.402 130.906 C 211.156 130.906 209.508 129.762 207.737 128.364 Z M 221.511 113.307 L 223.309 111.151 L 223.479 93.425 C 223.572 83.676 223.421 75.489 223.163 75.23 C 222.494 74.583 215.272 77.364 213.953 78.775 C 212.986 79.808 212.859 81.207 212.684 92.632 C 212.432 108.82 212.626 110.453 215.302 113.466 C 217.815 116.311 219.035 116.279 221.511 113.307 Z M 214.696 68.895 C 217.892 67.426 220.122 66.067 220.122 65.584 C 217.928 61.102 208.767 57.058 205.072 59.583 C 202.864 61.106 202.404 62.862 203.337 66.215 C 204.228 69.431 205.933 71.385 207.843 71.385 C 208.627 71.385 211.711 70.265 214.696 68.895 Z M 304.134 129.512 C 303.022 128.744 299.922 125.815 297.246 123.003 C 293.399 118.961 292.282 117.4 291.912 115.554 C 291.655 114.269 291.431 108.164 291.42 101.988 C 291.362 95.812 291.121 89.814 290.789 88.66 C 290.42 87.372 289.061 85.486 287.276 83.783 C 284.731 81.356 284.445 80.857 285.003 79.845 C 285.355 79.207 286.182 78.686 286.837 78.686 C 287.494 78.686 289.442 78.287 291.163 77.803 C 295.612 76.55 295.472 75.218 290.748 73.845 C 288.457 73.181 286.884 72.352 286.316 71.51 C 285.506 70.313 285.548 69.97 286.825 67.302 C 289.594 61.513 299.743 49.384 304.871 45.736 C 307.189 44.088 307.996 43.803 309.52 44.099 C 312.258 44.632 315.413 46.896 321.371 52.611 C 326.282 57.32 332.215 61.279 334.363 61.279 C 335.64 61.279 337.984 66.074 337.443 67.58 C 337.191 68.284 336.796 77.071 336.566 87.108 C 336.337 97.145 335.963 106.031 335.736 106.855 C 335.384 108.14 335.52 108.379 336.685 108.54 C 339.223 108.891 338.78 111.326 335.245 116.467 C 331.201 122.347 324.544 129.911 323.66 129.633 C 323.291 129.515 321.993 128.046 320.783 126.371 C 319.574 124.696 318.207 123.243 317.745 123.145 C 316.778 122.934 314.803 124.223 310.094 128.129 C 308.258 129.651 306.624 130.899 306.46 130.901 C 306.296 130.901 305.254 130.278 304.141 129.512 Z M 315.563 114.482 C 318.561 111.305 318.629 110.816 318.629 92.504 C 318.629 83.087 318.412 75.249 318.13 75.086 C 317.557 74.74 310.715 77.241 309.218 78.341 C 307.708 79.449 306.81 88.908 307.238 99.181 C 307.66 109.362 308.126 111.391 310.584 113.848 C 312.806 116.07 313.927 116.213 315.561 114.482 Z M 305.165 70.879 C 305.716 70.597 308.054 69.54 310.353 68.525 C 312.653 67.511 314.653 66.378 314.8 66.009 C 313.316 60.844 302.874 57.207 299.551 59.924 C 297.557 61.552 297.264 63.527 298.519 66.893 C 299.89 70.57 300.602 71.385 302.433 71.385 C 303.383 71.385 304.611 71.156 305.165 70.876 Z M 160.029 129.081 C 158.441 127.398 147.689 111.768 147.689 111.145 C 147.689 110.876 148.247 109.085 148.928 107.165 C 150.068 103.948 150.188 102.186 150.453 84.821 L 150.741 65.969 L 149.216 64.807 C 148.377 64.167 147.69 63.337 147.69 62.963 C 147.69 62.327 152.576 55.248 157.654 48.524 C 158.914 46.855 160.186 45.713 160.61 45.872 C 161.02 46.023 161.865 47.439 162.49 49.017 C 163.853 52.461 167.392 56.56 168.612 56.107 C 169.788 55.668 172.568 51.666 173.481 49.095 C 173.897 47.921 174.539 46.96 174.906 46.96 C 175.622 46.96 185.302 64.385 185.335 65.732 C 185.393 66.171 183.863 68.422 182.041 70.727 C 176.911 77.218 176.512 77.468 175.379 74.896 C 175.01 74.045 173.41 71.63 171.835 69.526 C 169.789 66.798 168.791 65.877 168.345 66.307 C 167.923 66.718 167.716 74.234 167.701 89.783 L 167.643 112.656 L 169.237 114.892 C 171.451 117.999 171.287 119.178 168.314 121.539 C 166.427 123.037 165.474 124.39 164.515 126.941 C 163.094 130.718 162.015 131.228 159.991 129.081 Z M 416.557 125.928 C 414.166 123.57 409.902 119.62 407.08 117.149 L 401.948 112.656 L 402.038 91.319 C 402.096 79.584 402.365 68.971 402.654 67.735 C 403.1 65.859 403.006 65.318 402.115 64.446 C 401.215 63.566 401.137 63.075 401.628 61.356 C 403.441 54.987 410.835 44.338 412.726 45.374 C 413.954 46.047 418.595 49.676 420.765 51.659 C 423.398 54.067 423.514 55.564 421.338 59.033 L 419.752 61.559 L 419.588 83.871 C 419.464 99.489 419.646 106.533 420.062 107.352 C 420.839 108.757 425.654 111.814 427.092 111.814 C 427.655 111.814 428.388 111.328 428.718 110.728 C 429.104 110.026 429.312 100.954 429.304 85.039 L 429.246 60.436 L 427.523 58.799 C 424.759 56.169 425.164 54.894 430.391 49.768 C 432.911 47.296 435.242 45.276 435.57 45.276 C 436.161 45.276 442.695 52.891 446.507 58.024 C 448.022 60.063 448.342 60.895 447.913 61.674 C 446.822 63.648 446.082 75.173 446.082 90.175 C 446.082 104.112 446.176 105.58 447.201 107.528 C 448.306 109.627 448.306 109.689 447.201 112.169 C 445.739 115.473 441.773 121.994 438.891 125.829 L 436.588 128.894 L 434.675 124.987 C 433.622 122.838 432.234 120.731 431.589 120.304 C 430.527 119.604 430.241 119.713 428.541 121.462 C 427.508 122.524 425.881 124.944 424.925 126.838 C 423.637 129.39 422.886 130.274 422.028 130.25 C 421.379 130.192 418.954 128.327 416.522 125.928 Z"/>
</svg>