<?xml version="1.0" encoding="utf-8"?>
<svg version="1.1" viewBox="0 0 3840 1163" xmlns="http://www.w3.org/2000/svg">
  <rect x="1187.4" y="113.9" class="st0" width="155.6" height="390.6" style="fill: rgb(255, 255, 255);"/>
  <path class="st0" d="M 2009.9 170.5 L 2009.9 295.6 C 2009.9 325 1986.1 348.8 1956.7 348.8 L 1913.7 348.8 L 1913.7 504.4 L 1995 504.4 C 2089.2 504.4 2165.5 428 2165.5 333.9 L 2165.5 208.9 C 2165.5 179.5 2189.3 155.7 2218.7 155.7 L 2261.7 155.7 L 2261.7 0 L 2180.4 0 C 2086.2 0 2009.9 76.4 2009.9 170.5 Z" style="fill: rgb(255, 255, 255);"/>
  <path class="st0" d="M 2431.3 113.9 L 2431.3 0 L 2275.7 0 L 2275.7 504.5 L 2431.3 504.5 L 2431.3 258.2 C 2431.3 246.7 2440.6 237.3 2452.2 237.3 L 2452.2 237.3 C 2463.7 237.3 2473.1 246.6 2473.1 258.2 L 2473.1 504.5 L 2628.7 504.5 L 2628.7 225.4 C 2628.7 163.8 2578.8 113.9 2517.2 113.9 L 2431.3 113.9 Z" style="fill: rgb(255, 255, 255);"/>
  <path class="st0" d="M 3840 504.5 L 3754.1 279.1 L 3830 163.1 L 3665.7 163.1 L 3596.3 269 L 3596.3 269 L 3596.3 0 L 3472.9 0 L 3472.9 504.5 L 3596.3 504.5 L 3596.3 398.3 C 3596.3 378.6 3623.6 373.6 3630.6 392 L 3673.5 504.5 L 3840 504.5 Z" style="fill: rgb(255, 255, 255);"/>
  <path class="st0" d="M 1003.6 0 L 1003.6 113.9 L 945.3 113.9 C 837.4 113.9 750 201.3 750 309.2 C 750 417.1 837.4 504.5 945.3 504.5 L 1003.6 504.5 L 1061.7 504.5 L 1145.6 504.5 L 1145.6 0 L 1003.6 0 Z M 947.8 428.9 C 913.4 428.9 885.5 401 885.5 366.6 C 885.5 332.2 913.4 304.3 947.8 304.3 C 982.2 304.3 1010.1 332.2 1010.1 366.6 C 1010.1 401 982.2 428.9 947.8 428.9 Z" style="fill: rgb(255, 255, 255);"/>
  <path class="st0" d="M 616.1 113.9 L 410.2 113.9 L 410.2 237.3 L 534.1 237.3 C 543 237.3 550.2 244.5 550.2 253.4 L 550.2 253.4 C 550.2 262.3 543 269.5 534.1 269.5 L 488 269.5 C 424 269.5 369.9 319.7 368.1 383.7 C 366.3 450.1 419.6 504.5 485.5 504.5 L 550.3 504.5 L 572 504.5 L 685.9 504.5 L 705.9 504.5 L 727.6 504.5 L 727.6 225.4 C 727.6 163.8 677.7 113.9 616.1 113.9 Z M 532.3 428.9 C 497.9 428.9 470 401 470 366.6 C 470 332.2 497.9 304.3 532.3 304.3 C 566.7 304.3 594.6 332.2 594.6 366.6 C 594.6 401 566.7 428.9 532.3 428.9 Z" style="fill: rgb(255, 255, 255);"/>
  <path class="st0" d="M 2899.4 113.9 L 2693.5 113.9 L 2693.5 237.3 L 2817.4 237.3 C 2826.3 237.3 2833.5 244.5 2833.5 253.4 L 2833.5 253.4 C 2833.5 262.3 2826.3 269.5 2817.4 269.5 L 2771.2 269.5 C 2707.2 269.5 2653.1 319.7 2651.3 383.7 C 2649.5 450.1 2702.8 504.5 2768.7 504.5 L 2833.5 504.5 L 2855.2 504.5 L 2969.1 504.5 L 2989.1 504.5 L 3010.8 504.5 L 3010.8 225.4 C 3010.9 163.8 2961 113.9 2899.4 113.9 Z M 2815.6 428.9 C 2781.2 428.9 2753.3 401 2753.3 366.6 C 2753.3 332.2 2781.2 304.3 2815.6 304.3 C 2850 304.3 2877.9 332.2 2877.9 366.6 C 2877.9 401 2850 428.9 2815.6 428.9 Z" style="fill: rgb(255, 255, 255);"/>
  <path class="st0" d="M 279.4 290.4 C 337.3 269.8 378.7 214.5 378.7 149.5 C 378.7 66.9 311.8 0 229.2 0 C 226.1 0 0 0 0 0 L 0 504.5 L 142 504.5 L 142 407.2 C 142 389.3 166.4 383.8 174 400.1 L 223 504.5 L 380 504.5 L 279.4 290.4 Z M 166.1 327.2 C 131.7 327.2 103.8 299.3 103.8 264.9 C 103.8 230.5 131.7 202.6 166.1 202.6 C 200.5 202.6 228.4 230.5 228.4 264.9 C 228.4 299.3 200.5 327.2 166.1 327.2 Z" style="fill: rgb(255, 255, 255);"/>
  <path class="st0" d="M 1577.9 98.7 C 1461.6 98.7 1367.3 193 1367.3 309.3 C 1367.3 425.6 1461.6 519.9 1577.9 519.9 C 1694.2 519.9 1788.5 425.6 1788.5 309.3 C 1788.5 193 1694.2 98.7 1577.9 98.7 Z M 1577.9 428.9 C 1543.5 428.9 1515.6 401 1515.6 366.6 C 1515.6 332.2 1543.5 304.3 1577.9 304.3 C 1612.3 304.3 1640.2 332.2 1640.2 366.6 C 1640.2 401 1612.4 428.9 1577.9 428.9 Z" style="fill: rgb(255, 255, 255);"/>
  <path class="st0" d="M 3302.1 389 C 3293.1 412.3 3270.5 428.9 3244 428.9 C 3209.6 428.9 3181.7 401 3181.7 366.6 C 3181.7 332.2 3209.6 304.3 3244 304.3 C 3270.5 304.3 3293.1 320.9 3302.1 344.2 L 3451.6 344.2 C 3453.5 332.8 3454.6 321.1 3454.6 309.2 C 3454.6 192.9 3360.3 98.6 3244 98.6 C 3127.7 98.6 3033.4 192.9 3033.4 309.2 C 3033.4 425.5 3127.7 519.8 3244 519.8 C 3332 519.8 3407.4 465.7 3438.9 389 L 3302.1 389 Z" style="fill: rgb(255, 255, 255);"/>
  <path class="st0" d="M 394.5 770.8 L 394.5 1155.2 L 229.7 1155.2 L 229.7 770.8 L 0 770.8 L 0 639.3 L 624.2 639.3 L 624.2 770.8 L 394.5 770.8 Z" style="fill: rgb(255, 255, 255);"/>
  <path class="st0" d="M 1328.9 913.8 C 1311.9 943.2 1281.7 950.2 1250 955.6 C 1328.1 961 1340.5 998.9 1340.5 1070.9 L 1340.5 1155.2 L 1185.8 1155.2 C 1185.8 1124.3 1187.4 1091.8 1181.2 1061.6 C 1174.2 1027.6 1150.3 1024.5 1119.3 1024.5 L 860.9 1024.5 L 860.9 1155.2 L 703.9 1155.2 L 703.9 639.3 L 1083.7 639.3 C 1111.5 639.3 1140.2 640.1 1168 640.1 C 1226.8 640.9 1292.5 634.7 1327.3 692.7 C 1347.4 726 1345.9 772.4 1345.9 809.5 C 1345.9 843.5 1346.7 883.7 1328.9 913.8 Z M 1123.9 768.4 L 860.9 768.4 L 860.9 895.3 L 1082.1 895.3 C 1093.7 895.3 1105.3 894.5 1116.9 894.5 C 1173.4 893 1188.8 891.4 1188.8 829.5 C 1188.9 776.9 1175.7 768.4 1123.9 768.4 Z" style="fill: rgb(255, 255, 255);"/>
  <path class="st0" d="M 2018.9 1121.9 C 1981.8 1162.1 1900.6 1160.6 1850.3 1161.3 C 1810.1 1162.9 1769.9 1162.9 1729.6 1162.9 C 1662.3 1162.9 1581.1 1165.2 1515.4 1150.5 C 1490.6 1145.1 1469 1135 1451.2 1117.2 C 1424.9 1091.7 1421.8 1058.4 1421.8 1023.6 C 1421.8 1010.4 1422.6 997.3 1423.4 984.1 L 1575 984.1 C 1575 995.7 1575 1006.5 1578.9 1017.4 C 1581.2 1024.4 1584.3 1029 1590.5 1033.6 C 1605.2 1045.2 1649.3 1043.7 1666.3 1043.7 C 1688.7 1043.7 1710.4 1044.5 1732.8 1044.5 C 1760.6 1044.5 1787.7 1043.7 1815.6 1043.7 C 1834.9 1043.7 1883.7 1046 1896.8 1027.5 C 1902.2 1019 1902.2 1007.4 1902.2 998.1 C 1902.2 958.7 1871.3 960.2 1839.6 959.4 C 1756.8 957.1 1674.1 952.4 1591.3 949.3 C 1546.4 947.8 1489.2 946.2 1456.7 909.9 C 1429.6 879.7 1427.3 836.4 1427.3 797.7 C 1427.3 705.7 1451.3 647.7 1550.3 637.6 C 1616.8 630.6 1685.7 631.4 1752.9 631.4 C 1817.9 631.4 1886.7 629.9 1950.1 645.3 C 2020.5 663.1 2035.2 709.5 2035.2 776.8 L 2035.2 801.6 L 1882.8 801.6 L 1882.8 794 C 1882.8 779.3 1881.2 768.5 1868.1 760 C 1853.4 749.9 1818.6 750.7 1801.6 750.7 L 1667.8 750.7 C 1651.6 750.7 1605.9 749.9 1592 760 C 1581.9 767 1579.6 779.3 1579.6 790.9 C 1579.6 800.2 1581.9 812.6 1589.7 818.7 C 1595.1 823.3 1602.9 824.9 1609.8 825.7 C 1627.6 828.8 1646.1 828.8 1663.9 829.6 C 1698.7 831.2 1733.5 832.7 1768.3 833.5 C 1827.9 835.1 1912.9 834.3 1971 849.7 C 1989.6 855.1 2005.8 862.9 2020.5 876 C 2052.2 903.8 2053.8 957.2 2053.8 995.9 C 2053.7 1039.2 2049.9 1088.7 2018.9 1121.9 Z" style="fill: rgb(255, 255, 255);"/>
  <path class="st0" d="M 3057.9 1129.6 C 3006.9 1166.7 2883.9 1161.3 2822.8 1161.3 L 2752.4 1161.3 C 2689 1161.3 2584.6 1165.9 2530.4 1129.6 C 2494 1104.9 2490.9 1055.4 2490.9 1015.1 C 2490.9 981.1 2494 944.7 2518.7 919.2 C 2537.3 899.9 2565.9 896 2591.4 891.4 C 2579.8 890.6 2567.4 889.9 2555.8 886.8 C 2504 872.9 2497 821.8 2497 775.4 C 2497 700.4 2519.4 656.3 2597.5 643.9 C 2661.7 633.8 2729 633.1 2794 633.1 C 2829.6 633.1 2865.2 633.9 2900.7 635.4 C 2946.3 637.7 3011.3 639.3 3050 665.6 C 3085.6 689.6 3091 738.3 3091 777.7 C 3091 807.9 3087.1 842.7 3067 865.9 C 3048.4 887.6 3023.7 889.9 2996.6 891.4 C 3024.4 896 3048.4 899.1 3069.3 919.2 C 3096.4 944.7 3097.1 989.6 3097.1 1024.4 C 3097.4 1063.1 3092 1105.7 3057.9 1129.6 Z M 2938 961.8 C 2926.4 950.2 2883.9 951 2869.2 951 C 2841.4 950.2 2813.5 949.4 2785.7 949.4 C 2760.2 949.4 2669.7 947.1 2652.7 959.5 C 2641.1 968 2641.1 987.3 2641.1 1000.5 C 2641.1 1012.1 2641.9 1025.2 2651.2 1033.8 C 2669 1049.3 2764.1 1045.4 2786.6 1045.4 C 2813.7 1045.4 2840.7 1044.6 2867.8 1043.9 C 2887.1 1043.9 2933.5 1046.2 2943.6 1023.8 C 2947.5 1015.3 2947.5 1003.7 2947.5 994.4 C 2947.3 983.5 2946.6 969.5 2938 961.8 Z M 2869.2 750.6 C 2838.3 749.8 2808.1 749.1 2777.2 749.1 C 2745.5 749.1 2712.2 748.3 2680.5 753 C 2654.2 756.9 2647.2 770.8 2647.2 796.3 C 2647.2 823.4 2656.5 832.6 2682.8 835.7 C 2737.7 841.1 2796.5 838.8 2851.4 838.8 C 2869.2 838.8 2921 838.8 2933.4 826.4 C 2941.1 818.7 2941.1 804 2941.1 793.9 C 2941.1 749.1 2904.8 751.4 2869.2 750.6 Z" style="fill: rgb(255, 255, 255);"/>
  <path class="st0" d="M 3724.7 1152.1 C 3662.8 1162.2 3579.3 1161.4 3516.6 1161.4 C 3477.9 1161.4 3440 1160.6 3401.3 1159.9 C 3316.2 1158.3 3217.2 1155.3 3198.7 1052.4 C 3190.2 1004.4 3192.5 946.4 3192.5 897.7 C 3192.5 866.8 3192.5 836.6 3193.3 805.7 C 3194.1 762.4 3197.2 712.9 3228.9 679.6 C 3249.8 657.9 3279.2 647.1 3308.6 642.5 C 3370.5 632.4 3453.2 633.2 3516.7 633.2 C 3554.6 633.2 3593.3 634.7 3631.2 635.5 C 3763.5 638.6 3840 652.5 3840 805.7 L 3840 989.8 C 3840 1075.5 3818.3 1136.6 3724.7 1152.1 Z M 3649.7 776.9 C 3631.9 769.2 3605.6 768.4 3586.3 768.4 C 3555.4 768.4 3524.4 767.6 3492.7 767.6 C 3461 767.6 3426.2 766.8 3395.2 773.8 C 3385.9 776.1 3376.6 779.2 3369.7 787 C 3348.8 808.7 3350.4 869.8 3350.4 897.6 C 3350.4 923.1 3348.8 983.5 3366.6 1004.3 C 3374.3 1013.6 3383.6 1017.5 3395.2 1020.5 C 3428.5 1028.2 3483.4 1028.2 3518.2 1027.5 L 3586.3 1026 C 3605.6 1025.2 3631.9 1025.2 3649.7 1016.7 C 3688.4 999.7 3683 931.6 3683 897.6 C 3683 863.6 3688.4 794.7 3649.7 776.9 Z" style="fill: rgb(255, 255, 255);"/>
  <rect x="2162.7" y="903.5" class="st0" width="205.2" height="136.8" style="fill: rgb(255, 255, 255);"/>
</svg>