<?xml version="1.0" encoding="utf-8"?>
<svg version="1.1" viewBox="0 0 3840 1095.1" xmlns="http://www.w3.org/2000/svg">
  <rect x="683.6" class="st4" width="118" height="93.4" style="fill: rgb(255, 255, 255);"/>
  <path class="st4" d="M 1.7 955.4 L 176.6 746.3 L 15.4 746.3 L 15.4 686 L 272 686 L 272 742.6 L 97.2 951.7 L 276.7 951.7 L 276.7 1012 L 1.7 1012 L 1.7 955.4 Z" style="fill: rgb(255, 255, 255);"/>
  <path class="st4" d="M 403.1 841.2 L 298.1 686 L 381.2 686 L 445.1 790.1 L 511.3 686 L 589.8 686 L 485.3 841.7 L 599 1012 L 513.6 1012 L 442.4 899.2 L 369.8 1012 L 289 1012 L 403.1 841.2 Z" style="fill: rgb(255, 255, 255);"/>
  <path class="st4" d="M 712.2 903.8 C 712.2 947.2 746 964.1 784.3 964.1 C 809.4 964.1 847.8 956.8 847.8 923.5 C 847.8 888.3 798.9 882.4 751 869.6 C 702.6 856.8 653.7 838.1 653.7 776.9 C 653.7 710.2 716.7 678.3 775.6 678.3 C 843.6 678.3 906.2 708 906.2 783.3 L 836.8 783.3 C 834.5 744 806.7 734 772.4 734 C 749.6 734 723.1 743.6 723.1 771 C 723.1 796.1 738.6 799.3 820.4 820.3 C 844.1 826.2 917.2 841.3 917.2 915.3 C 917.2 975.1 870.2 1019.9 781.6 1019.9 C 709.5 1019.9 641.9 984.3 642.8 903.9 L 712.2 903.9 Z" style="fill: rgb(255, 255, 255);"/>
  <path class="st4" d="M 939.1 775.9 L 1000.7 775.9 L 1000.7 806 L 1001.6 806 C 1017.1 780.9 1042.7 769.5 1071.9 769.5 C 1145.9 769.5 1179.2 829.3 1179.2 896.4 C 1179.2 959.4 1144.5 1018.3 1075.5 1018.3 C 1047.2 1018.3 1020.2 1006 1004.7 982.7 L 1003.8 982.7 L 1003.8 1095 L 939 1095 L 939 775.9 Z M 1114.5 894.7 C 1114.5 857.3 1099.4 818.4 1057.9 818.4 C 1015.4 818.4 1001.7 856.3 1001.7 894.7 C 1001.7 933.1 1016.3 969.6 1058.3 969.6 C 1100.8 969.6 1114.5 933 1114.5 894.7 Z" style="fill: rgb(255, 255, 255);"/>
  <path class="st4" d="M 1257.9 909.7 C 1259.7 950.8 1279.8 969.5 1315.9 969.5 C 1341.9 969.5 1362.9 953.5 1367 938.9 L 1424.1 938.9 C 1405.8 994.6 1367 1018.4 1313.6 1018.4 C 1239.2 1018.4 1193 967.3 1193 894.2 C 1193 823.4 1241.9 769.5 1313.6 769.5 C 1394 769.5 1432.8 837.1 1428.2 909.7 L 1257.9 909.7 Z M 1363.3 868.6 C 1357.4 835.7 1343.2 818.4 1311.7 818.4 C 1270.6 818.4 1258.7 850.4 1257.8 868.6 L 1363.3 868.6 Z" style="fill: rgb(255, 255, 255);"/>
  <path class="st4" d="M 1613.6 859.1 C 1609.5 832.6 1592.6 818.5 1565.7 818.5 C 1524.1 818.5 1510.4 860.5 1510.4 895.2 C 1510.4 929 1523.6 969.6 1564.3 969.6 C 1594.4 969.6 1611.8 950.4 1615.9 921.7 L 1678.5 921.7 C 1670.3 984.3 1626.9 1018.5 1564.8 1018.5 C 1493.6 1018.5 1445.6 968.3 1445.6 897.5 C 1445.6 824 1489.4 769.6 1566.2 769.6 C 1621.9 769.6 1673.1 798.8 1677.2 859.1 L 1613.6 859.1 Z" style="fill: rgb(255, 255, 255);"/>
  <path class="st4" d="M 1783.4 775.9 L 1830.9 775.9 L 1830.9 819.3 L 1783.4 819.3 L 1783.4 936.2 C 1783.4 958.1 1788.9 963.6 1810.8 963.6 C 1817.7 963.6 1824 963.1 1830.9 961.8 L 1830.9 1012.5 C 1819.9 1014.3 1805.8 1014.8 1793 1014.8 C 1753.3 1014.8 1718.6 1005.7 1718.6 958.6 L 1718.6 819.3 L 1679.3 819.3 L 1679.3 775.9 L 1718.6 775.9 L 1718.6 705.1 L 1783.4 705.1 L 1783.4 775.9 Z" style="fill: rgb(255, 255, 255);"/>
  <path class="st4" d="M 1848.2 775.9 L 1909.8 775.9 L 1909.8 819.7 L 1910.7 819.7 C 1922.6 790 1954.5 769.5 1986 769.5 C 1990.6 769.5 1996 770.4 2000.2 771.8 L 2000.2 832.1 C 1994.3 830.7 1984.7 829.8 1976.9 829.8 C 1929.4 829.8 1913 864 1913 905.6 L 1913 1012 L 1848.2 1012 L 1848.2 775.9 Z" style="fill: rgb(255, 255, 255);"/>
  <path class="st4" d="M 2233.6 1012 L 2172 1012 L 2172 979.1 L 2170.6 979.1 C 2154.2 1005.6 2125.9 1018.4 2098.5 1018.4 C 2029.5 1018.4 2012.2 979.6 2012.2 921.1 L 2012.2 775.9 L 2077 775.9 L 2077 909.2 C 2077 948 2088.4 967.2 2118.6 967.2 C 2153.8 967.2 2168.8 947.6 2168.8 899.6 L 2168.8 775.9 L 2233.6 775.9 L 2233.6 1012 Z" style="fill: rgb(255, 255, 255);"/>
  <path class="st4" d="M 2271.1 775.9 L 2332.3 775.9 L 2332.3 807.9 L 2333.2 807.9 C 2350.1 783.7 2374.8 769.5 2405.3 769.5 C 2435 769.5 2461.5 780.5 2474.3 808.8 C 2488 788.3 2512.7 769.5 2545.5 769.5 C 2595.7 769.5 2631.8 792.8 2631.8 854 L 2631.8 1012 L 2567 1012 L 2567 878.2 C 2567 846.7 2564.3 820.7 2527.3 820.7 C 2490.8 820.7 2483.9 850.8 2483.9 880.5 L 2483.9 1012 L 2419 1012 L 2419 879.6 C 2419 852.2 2420.8 820.7 2379.7 820.7 C 2366.9 820.7 2335.9 828.9 2335.9 875 L 2335.9 1012 L 2271.1 1012 L 2271.1 775.9 Z" style="fill: rgb(255, 255, 255);"/>
  <rect x="3039.4" class="st4" width="118" height="93.4" style="fill: rgb(255, 255, 255);"/>
  <rect x="683.6" y="128.1" class="st4" width="118" height="391.3" style="fill: rgb(255, 255, 255);"/>
  <rect x="3039.4" y="128.1" class="st4" width="118" height="391.3" style="fill: rgb(255, 255, 255);"/>
  <rect x="2198" class="st4" width="118" height="519.3" style="fill: rgb(255, 255, 255);"/>
  <polygon class="st4" points="950.8 128.1 832.8 128.1 832.8 221.4 832.8 519.3 950.8 519.3 950.8 221.4 1366.2 221.4 1366.2 519.3 1484.2 519.3 1484.2 221.4 1484.2 128.1 1366.2 128.1" style="fill: rgb(255, 255, 255);"/>
  <polygon class="st4" points="3840 128.1 3306.6 128.1 3188.6 128.1 3188.6 221.4 3188.6 519.3 3306.6 519.3 3306.6 221.4 3840 221.4" style="fill: rgb(255, 255, 255);"/>
  <polygon class="st4" points="1 153.8 0 153.8 0 277 0 370.4 0 371.7 118 371.7 118 370.4 533.4 370.4 533.4 426 1 426 1 519.3 533.4 519.3 651.4 519.3 652.4 519.3 652.4 426 651.4 426 651.4 370.4 651.4 277 651.4 275.7 533.4 275.7 533.4 277 118 277 118 221.4 652.4 221.4 652.4 128.1 1 128.1" style="fill: rgb(255, 255, 255);"/>
  <polygon class="st4" points="1515.4 128.1 1515.4 221.4 1515.4 426 1515.4 519.3 1633.4 519.3 2166.7 519.3 2166.7 426 1633.4 426 1633.4 221.4 2166.7 221.4 2166.7 128.1 1633.4 128.1" style="fill: rgb(255, 255, 255);"/>
  <path class="st4" d="M 2998.5 128.1 L 2890.2 128.1 L 2885.8 128.1 L 2347.2 128.1 L 2347.2 221.5 L 2885.8 221.5 L 2885.8 277 L 2347.2 277 L 2347.2 282 L 2347.2 370.4 L 2347.2 426 L 2347.2 519.4 L 2465.2 519.4 L 2885.8 519.4 L 2890.2 519.4 L 2998.5 519.4 L 3003.8 519.4 L 3008.2 519.4 L 3008.2 128.1 L 3003.8 128.1 L 2998.5 128.1 Z M 2465.2 426 L 2465.2 370.4 L 2885.8 370.4 L 2885.8 426 L 2465.2 426 Z" style="fill: rgb(255, 255, 255);"/>
</svg>