<svg width="356" height="140" viewBox="0 0 356 140" fill="none" xmlns="http://www.w3.org/2000/svg">
<path d="M0 55.4764C0.50073 55.3713 1.00146 55.1749 1.50219 55.1749C11.7021 55.161 21.8993 55.0974 32.0993 55.2247C34.9736 55.2606 37.9282 55.5456 40.6975 56.2759C46.6454 57.839 51.1353 61.5073 54.1646 66.8687C57.4816 72.7419 58.4084 79.0384 57.3848 85.6779C56.5161 91.3104 54.2614 96.2679 50.1671 100.26C45.8459 104.473 40.5591 106.523 34.5448 106.62C30.5003 106.686 26.4557 106.612 22.4111 106.65C21.4733 106.659 21.1358 106.385 21.1441 105.411C21.1856 100.849 21.1801 96.2845 21.1496 91.7199C21.1413 90.7433 21.4263 90.4141 22.4609 90.4279C25.8443 90.4694 29.2332 90.4418 32.6166 90.3366C35.6044 90.2453 37.7235 88.5606 38.9989 86.0375C40.7251 82.6237 40.6615 79.102 38.689 75.7408C37.0402 72.93 34.4093 71.8317 31.2859 71.7875C27.7255 71.7377 24.1651 71.7875 20.6046 71.7737C19.6391 71.7709 18.6736 71.7073 17.7081 71.6575C17.047 71.6215 16.7426 71.8954 16.7924 72.5732C16.8201 72.9522 16.8035 73.3339 16.8035 73.7129C16.8035 94.8377 16.8007 115.96 16.8256 137.084C16.8256 138.011 16.5324 138.277 15.6388 138.268C10.8694 138.235 6.09729 138.257 1.32514 138.243C0.885269 138.243 0.442634 138.116 0.00276646 138.047C0 110.521 0 82.9972 0 55.4764Z" fill="white"/>
<path d="M356 137.837C355.339 137.975 354.68 138.227 354.016 138.233C349.316 138.266 344.616 138.252 339.916 138.249C338.444 138.249 338.452 138.244 338.452 136.836C338.455 109.774 338.455 82.7097 338.452 55.6481C338.452 54.24 338.444 54.2345 339.916 54.2345C344.616 54.2317 349.316 54.2179 354.016 54.2511C354.677 54.2566 355.339 54.5083 356 54.6467C356 54.8541 356 55.0616 356 55.2691C355.892 55.6785 355.69 56.0908 355.69 56.5002C355.671 63.0622 355.676 69.6271 355.676 76.1891C355.676 96.0523 355.673 115.913 355.69 135.776C355.69 136.255 355.892 136.736 356 137.215C356 137.422 356 137.63 356 137.837Z" fill="white"/>
<path d="M0 22.0743C3.79282 21.8585 7.58841 21.7147 11.3425 22.4699C12.9415 22.7908 14.4824 23.3248 15.708 24.4839C18.0429 26.6888 18.2089 29.4995 17.6445 32.3628C16.8727 36.2801 14.3248 38.3079 9.94821 38.8059C7.2592 39.113 7.25644 39.1102 7.29517 36.4682C7.29517 36.435 7.29517 36.3991 7.29793 36.3659C7.33666 35.5442 7.10428 34.5428 7.49435 33.9507C7.8291 33.4417 8.87205 33.3975 9.59963 33.1429C10.8418 32.7114 11.5915 31.7376 11.6164 30.5369C11.6413 29.2727 11.0216 28.368 9.65773 27.9475C8.84162 27.6958 7.97018 27.6211 7.12088 27.5049C6.23008 27.3832 5.8732 27.8175 5.87874 28.7028C5.91193 32.8829 5.92023 37.0603 5.93407 41.2404C5.94237 43.7966 5.95343 46.3528 5.9562 48.909C5.9562 50.1788 5.77361 50.3835 4.52317 50.3365C3.01545 50.2812 1.50772 50.1705 0 50.0848C0 40.7452 0 31.4111 0 22.0743Z" fill="white"/>
<path d="M228.621 0.0837402C228.809 0.216531 228.981 0.407417 229.191 0.476578C230.862 1.02157 231.642 2.23052 231.667 3.91529C231.711 6.88648 231.761 9.86043 231.667 12.8288C231.573 15.8581 229.235 18.016 226.195 18.0602C223.984 18.0934 221.774 18.0962 219.563 18.1377C218.739 18.1543 218.371 17.8361 218.388 16.973C218.438 14.5579 218.418 14.5579 220.905 14.533C222.46 14.5164 224.015 14.5302 225.569 14.4804C226.856 14.4389 227.689 13.573 227.752 12.3115C227.802 11.2796 227.489 10.9117 226.446 10.8979C225.099 10.8785 223.752 10.9117 222.405 10.9117C221.201 10.9117 221.096 10.7014 221.035 8.94473C221.002 7.9571 221.4 7.55873 222.371 7.58086C223.683 7.61129 224.997 7.57809 226.311 7.58086C227.088 7.58363 227.658 7.38444 227.725 6.45768C227.83 4.99145 227.484 4.14768 226.499 4.09511C224.811 4.00659 223.11 4.00105 221.428 4.13108C220.997 4.16428 220.438 4.75907 220.244 5.22383C219.837 6.20593 219.669 7.28208 219.334 8.29737C219.032 9.21031 216.584 9.72487 215.948 9.01665C215.79 8.84237 215.696 8.49103 215.751 8.26418C216.26 6.18656 216.744 4.09788 217.389 2.059C217.561 1.51124 218.238 1.11287 218.706 0.672997C218.944 0.448914 219.232 0.280159 219.494 0.0837402C222.535 0.0837402 225.578 0.0837402 228.621 0.0837402Z" fill="white"/>
<path d="M71.9893 0.0837402C72.2079 0.282926 72.4015 0.520842 72.6477 0.67853C73.8843 1.47251 74.3878 2.69805 74.0116 4.06745C73.6907 5.2266 72.4541 6.14507 71.2064 6.1506C69.8813 6.15613 68.7553 5.30406 68.3625 3.99552C67.989 2.75615 68.5202 1.42824 69.6655 0.67853C69.9117 0.518075 70.1109 0.285692 70.3322 0.0865067C70.8827 0.0837402 71.436 0.0837402 71.9893 0.0837402ZM71.1649 1.9843C70.7804 2.53759 70.3516 2.88617 70.3875 3.17941C70.4263 3.49202 70.9076 3.97616 71.187 3.97339C71.4803 3.96786 71.9644 3.48649 71.9921 3.17941C72.017 2.88064 71.5716 2.53759 71.1649 1.9843Z" fill="white"/>
<path d="M191.899 0.083577C192.164 0.288295 192.413 0.520678 192.695 0.694966C193.874 1.42531 194.413 2.74215 194.026 3.99259C193.653 5.196 192.372 6.12277 191.11 6.09787C189.816 6.07297 188.67 5.11578 188.374 3.80724C188.084 2.5236 188.706 1.28422 189.946 0.620271C190.203 0.481948 190.416 0.263397 190.651 0.0808105C191.069 0.083577 191.484 0.083577 191.899 0.083577ZM192.466 3.18202C191.882 2.75322 191.509 2.26908 191.188 2.30228C190.875 2.33271 190.433 2.87217 190.394 3.22628C190.366 3.4808 190.906 4.02302 191.196 4.02579C191.545 4.02579 191.893 3.58869 192.466 3.18202Z" fill="white"/>
<path d="M243.8 139.17C239.709 139.334 235.645 138.584 231.788 136.946C226.164 134.556 221.984 130.647 219.575 124.926C217.325 119.589 217.027 114.048 217.948 108.452C218.686 103.962 221.074 100.31 224.615 97.4356C225.467 96.7439 225.462 96.6111 224.612 95.8946C220.75 92.6385 218.457 88.4971 217.782 83.4981C217.159 78.8809 217.45 74.3273 219.132 69.9397C220.958 65.1758 224.048 61.3802 228.358 58.6774C235.507 54.1985 243.233 53.2828 251.347 55.341C257.121 56.8073 261.973 59.7729 265.537 64.5976C269.177 69.5247 270.475 75.1351 270.143 81.2075C269.855 86.461 268.068 91.0257 264.322 94.7659C263.857 95.2279 263.346 95.6429 262.848 96.0689C262.355 96.4922 262.258 96.8518 262.859 97.3055C265.927 99.6183 268.068 102.631 269.252 106.261C269.742 107.757 270.04 109.353 270.154 110.925C270.461 115.221 270.306 119.509 268.793 123.606C266.643 129.427 262.856 133.787 257.179 136.476C252.963 138.473 248.545 139.292 243.8 139.17ZM244.334 122.76C245.267 122.467 246.924 122.112 248.434 121.435C252.681 119.529 254.473 113.879 252.296 109.796C249.463 104.485 242.387 103.458 237.877 106.756C234.583 109.163 233.13 113.583 235.183 117.517C236.948 120.906 239.914 122.372 244.334 122.76ZM253.198 79.6638C252.971 76.8697 252.069 74.3383 249.466 72.7283C246.077 70.6313 242.564 70.5621 238.995 72.2165C233.753 74.6454 232.679 82.22 237.083 85.963C239.961 88.4086 243.267 88.9563 246.891 87.9106C250.974 86.7293 252.938 83.6254 253.198 79.6638Z" fill="white"/>
<path d="M187.821 139.168C183.663 139.336 179.599 138.576 175.748 136.935C170.126 134.539 165.952 130.622 163.551 124.895C161.31 119.556 161.011 114.015 161.94 108.421C162.685 103.934 165.061 100.263 168.635 97.4299C169.36 96.8545 169.366 96.5087 168.666 95.9277C164.682 92.6301 162.369 88.3836 161.739 83.2628C161.063 77.7686 161.628 72.4487 164.248 67.4663C166.394 63.3803 169.512 60.2182 173.515 57.9608C179.97 54.3201 186.894 53.4957 194.062 55.0062C200.264 56.3119 205.557 59.3053 209.419 64.4564C213.117 69.3918 214.451 75.0243 214.135 81.1354C213.861 86.4277 212.072 91.0255 208.287 94.7879C207.822 95.2499 207.308 95.6621 206.81 96.0882C206.295 96.5308 206.292 96.8849 206.868 97.322C209.363 99.217 211.255 101.599 212.539 104.462C213.538 106.692 214.122 109.03 214.21 111.467C214.359 115.523 214.235 119.562 212.835 123.437C210.899 128.799 207.568 133.009 202.522 135.784C197.954 138.299 193.052 139.328 187.821 139.168ZM188.435 122.757C189.411 122.436 191.107 122.068 192.634 121.346C196.687 119.432 198.4 113.827 196.317 109.862C193.484 104.468 186.341 103.439 181.84 106.778C178.55 109.218 177.322 113.583 178.844 116.898C180.586 120.688 183.677 122.397 188.435 122.757ZM187.179 70.9742C186.136 71.2813 184.484 71.5745 182.999 72.2412C177.723 74.6149 176.661 82.2144 181.062 85.9601C183.937 88.4085 187.229 88.9064 190.869 87.9243C196.098 86.5162 198.53 80.7869 196.322 76.0507C194.637 72.4294 191.442 71.3255 187.179 70.9742Z" fill="white"/>
<path d="M332.955 96.8767C332.52 101.508 332.343 106.183 331.596 110.764C330.396 118.126 328.058 125.108 323.053 130.896C320.411 133.95 317.222 136.232 313.423 137.682C307.448 139.962 301.328 140.15 295.201 138.717C288.296 137.101 283.136 132.949 279.501 126.904C276.4 121.744 274.729 116.095 273.727 110.181C272.712 104.18 272.518 98.1465 272.773 92.1101C273.047 85.6117 274.043 79.1907 276.367 73.0602C278.613 67.1345 281.897 61.9307 287.286 58.3371C291.341 55.6343 295.798 54.1376 300.725 54.2261C301.901 54.2483 303.077 54.2317 304.25 54.2289C313.434 54.2178 320.398 58.3094 325.438 65.8259C328.379 70.2135 330.039 75.1378 331.137 80.2752C332.307 85.7389 332.733 91.2691 332.642 96.8463C332.747 96.8573 332.852 96.8684 332.955 96.8767ZM315.88 93.3854C315.631 89.6701 315.216 86.01 314.372 82.3943C313.595 79.0662 312.452 75.929 310.245 73.2373C307.108 69.4057 301.331 68.5398 297.273 71.3754C294.437 73.3562 293.012 76.3136 291.969 79.448C290.055 85.1884 289.776 91.1833 289.765 97.1534C289.759 101.002 290.171 104.877 290.702 108.698C291.217 112.397 292.254 116.001 294.409 119.152C296.578 122.325 299.58 124.068 303.453 123.756C307.81 123.402 310.579 120.713 312.411 116.95C314.251 113.168 315.042 109.088 315.393 104.952C315.72 101.107 315.728 97.2391 315.88 93.3854Z" fill="white"/>
<path d="M112.028 129.029C112.028 131.552 112.006 134.075 112.042 136.598C112.053 137.325 111.826 137.685 111.088 137.768C109.511 137.942 107.942 138.269 106.363 138.332C100.926 138.559 95.507 138.371 90.223 136.91C84.0538 135.203 78.4877 132.368 73.6961 128.046C68.7635 123.601 65.2723 118.19 63.0148 112.009C60.312 104.606 59.6951 96.968 60.8874 89.161C62.1074 81.177 65.1976 74.0506 70.476 67.9423C73.8953 63.9862 77.951 60.802 82.7093 58.5446C89.0251 55.5485 95.6757 54.0906 102.653 54.2538C105.441 54.3202 108.222 54.6522 111.007 54.8237C111.754 54.8707 112.037 55.164 112.034 55.9081C112.017 60.9542 112.023 66.0002 112.026 71.049C112.026 71.843 111.876 72.1141 110.927 71.8706C109.298 71.4529 107.61 71.1846 105.931 71.0628C102.86 70.8415 99.795 70.919 96.7712 71.6466C93.0531 72.5429 89.6476 74.0617 86.7815 76.6234C80.1752 82.5243 77.7545 90.0491 78.4047 98.6998C78.8418 104.498 80.983 109.614 84.8976 113.935C87.6253 116.947 91.0142 118.95 94.8734 120.176C100.263 121.886 105.699 121.697 111.146 120.511C112.097 120.303 112.014 120.917 112.017 121.46C112.037 123.983 112.028 126.506 112.028 129.029Z" fill="white"/>
<path d="M140.774 90.9536C146.376 90.9536 151.975 90.9508 157.577 90.9536C159.002 90.9536 159.013 90.9896 159.01 92.4032C159.005 96.5529 159.01 100.7 159.019 104.85C159.021 106.26 158.903 106.385 157.489 106.385C146.218 106.388 134.945 106.382 123.674 106.407C122.914 106.41 122.598 106.175 122.601 105.414C122.609 100.885 122.615 96.3565 122.59 91.825C122.584 90.9176 123.143 90.9508 123.76 90.9508C129.434 90.9536 135.103 90.9536 140.774 90.9536Z" fill="white"/>
<path d="M51.7912 41.6109C51.6363 39.7518 52.5078 38.186 53.8025 36.8802C54.5992 36.0752 54.6296 35.4527 54.0127 34.5619C52.2643 32.0306 51.9074 29.3167 53.3543 26.5392C54.9893 23.3993 57.8415 22.2207 61.1751 22.2069C64.5502 22.1931 67.4467 23.3882 69.1425 26.5088C70.6364 29.2586 70.4981 32.0085 68.6584 34.6062C67.7842 35.84 67.7122 35.9203 68.7856 36.9134C72.4152 40.2719 70.819 46.834 66.3899 49.108C62.0161 51.3544 56.0378 50.2063 53.2436 46.4577C52.1924 45.0413 51.7193 43.4561 51.7912 41.6109ZM61.2526 44.9417C63.0286 44.9638 64.3648 43.6608 64.3538 41.918C64.3455 40.2941 62.9429 38.9081 61.2968 38.897C59.6093 38.8859 58.2703 40.2111 58.2648 41.8986C58.2592 43.5889 59.565 44.9223 61.2526 44.9417ZM61.3549 32.6033C62.7077 32.5867 63.8226 31.5078 63.8337 30.2048C63.8447 28.7828 62.6275 27.4964 61.2636 27.4881C59.8417 27.4798 58.6963 28.6113 58.688 30.0277C58.6825 31.458 59.8859 32.6226 61.3549 32.6033Z" fill="white"/>
<path d="M90.2002 30.1855C90.1698 32.0086 89.5695 33.5883 88.4048 34.9577C87.9262 35.5193 87.8183 36.0366 88.4407 36.5595C93.1078 40.4712 90.665 48.0735 84.6009 49.8496C80.1718 51.147 74.8159 49.3184 72.7577 45.6667C71.1365 42.7895 71.5321 39.3176 73.8698 36.8665C74.5891 36.1113 74.7246 35.5608 74.0994 34.6589C71.557 30.9906 72.4284 27.5574 74.1022 25.4023C75.9723 22.9927 78.617 22.149 81.5301 22.2015C85.6217 22.2762 88.8142 24.6166 89.8627 28.1549C90.0536 28.8078 90.0923 29.5077 90.2002 30.1855ZM81.4167 44.964C83.0793 44.9502 84.4404 43.5697 84.4155 41.9209C84.3906 40.2693 82.9134 38.8529 81.2507 38.8861C79.5825 38.9193 78.2491 40.297 78.2768 41.9568C78.3017 43.6803 79.66 44.9806 81.4167 44.964ZM81.3337 32.609C82.7391 32.6117 83.8982 31.4941 83.8761 30.1579C83.8539 28.7221 82.6395 27.4882 81.2479 27.4855C79.8011 27.4827 78.7581 28.5754 78.7609 30.0859C78.7664 31.5439 79.8509 32.6062 81.3337 32.609Z" fill="white"/>
<path d="M112.867 36.7143C112.861 39.8985 112.482 42.9859 110.919 45.8436C109.796 47.8991 108.139 49.2408 105.928 49.9408C100.307 51.7196 95.3219 49.2132 93.5237 43.5945C91.991 38.803 91.8278 33.9202 93.3189 29.0982C95.7507 21.2442 104.451 20.8763 108.648 24.1407C110.366 25.4769 111.315 27.3581 111.827 29.3693C112.435 31.7623 112.726 34.2383 113.154 36.6783C113.058 36.6894 112.961 36.7032 112.867 36.7143ZM106.944 36.5151C106.548 34.5758 106.288 32.5867 105.707 30.6945C105.256 29.231 104.354 27.8422 102.537 27.8644C100.739 27.8865 100.017 29.314 99.5518 30.7498C98.3262 34.5426 98.3539 38.3686 99.6541 42.1366C100.136 43.5281 100.913 44.903 102.631 44.9224C104.388 44.9418 105.284 43.6056 105.724 42.1532C106.266 40.3577 106.532 38.4765 106.944 36.5151Z" fill="white"/>
<path d="M114.413 36.5512C114.394 32.6975 114.723 29.6987 116.225 26.935C118.192 23.3165 122.444 21.3744 126.5 22.1545C129.927 22.813 132.276 24.6997 133.441 27.9779C135.457 33.6547 135.651 39.3481 133.269 44.9723C131.687 48.7098 128.53 50.1678 124.718 50.2729C120.972 50.378 118.131 48.7071 116.402 45.3154C114.875 42.3165 114.352 39.1019 114.413 36.5512ZM120.671 36.388C120.784 38.6869 120.953 41.2846 122.56 43.4978C123.819 45.2296 125.686 45.1992 126.953 43.4701C127.216 43.1105 127.49 42.7177 127.603 42.2972C128.016 40.806 128.53 39.3149 128.693 37.7906C129.003 34.8637 128.685 31.981 127.177 29.3612C126.585 28.3321 125.742 27.5298 124.436 27.646C123.16 27.7594 122.458 28.6557 121.927 29.7264C120.933 31.732 120.734 33.8926 120.671 36.388Z" fill="white"/>
<path d="M216.451 24.0162C218.698 24.0162 220.947 23.9747 223.19 24.0245C227.055 24.1158 229.691 26.2349 230.571 29.9198C231 31.7208 230.665 33.3447 229.335 34.7113C228.491 35.5772 227.697 36.4957 226.82 37.3256C226.178 37.9343 226.153 38.4018 226.632 39.1875C228.568 42.3689 230.433 45.5974 232.262 48.8452C232.787 49.7775 232.544 50.068 231.465 50.079C230.22 50.0929 228.969 50.1537 227.736 50.0458C227.296 50.0071 226.74 49.6281 226.496 49.2408C225.213 47.1964 224.02 45.0966 222.784 43.0246C222.347 42.2914 221.912 42.4657 221.398 43.008C219.76 44.7425 218.061 46.419 216.443 48.1674C215.422 49.2712 214.227 49.9103 212.73 49.9684C211.591 50.0126 210.451 50.0403 209.314 50.0735C208.572 50.0956 208.249 49.7277 208.265 48.9918C208.287 48.0595 208.285 47.1245 208.268 46.1922C208.254 45.4203 208.583 44.986 209.377 45.0579C211.355 45.2405 212.766 44.3497 214.072 42.9333C217.303 39.4254 220.642 36.0199 223.915 32.5479C224.507 31.92 225.37 31.3003 224.892 30.2435C224.416 29.1895 223.409 29.1286 222.407 29.1341C218.191 29.1563 213.972 29.1784 209.756 29.1922C208.404 29.1978 208.279 29.0622 208.276 27.7066C208.276 26.8767 208.301 26.0468 208.265 25.2168C208.226 24.3205 208.633 23.9774 209.505 23.9857C211.82 24.0106 214.136 23.994 216.451 23.994C216.451 24.0051 216.451 24.0106 216.451 24.0162Z" fill="white"/>
<path d="M35.3825 47.1328C35.3438 50.0514 35.8833 49.772 32.6133 50.2257C26.2394 51.111 20.4519 47.2352 18.8252 40.9138C17.5333 35.8871 18.117 31.0928 21.2653 26.8103C24.5518 22.3397 30.2009 21.2912 34.8458 22.4089C35.164 22.4864 35.5402 23.0618 35.5734 23.4353C35.6702 24.5667 35.6066 25.7121 35.6121 26.8518C35.6149 27.643 35.2359 27.7675 34.4834 27.7426C32.948 27.6901 31.3186 27.4964 29.8883 27.9142C25.7027 29.1286 23.4176 33.8372 24.5767 38.3742C25.7967 43.1491 29.2991 45.3789 34.2566 44.5047C35.0976 44.3553 35.4213 44.6596 35.3908 45.4757C35.3632 46.0262 35.3825 46.5795 35.3825 47.1328Z" fill="white"/>
<path d="M161.91 33.7294C161.91 35.8015 161.918 37.8736 161.907 39.9457C161.88 45.1577 157.655 49.5785 152.429 49.703C148.114 49.8054 143.795 49.7224 139.48 49.7362C138.63 49.739 138.309 49.3323 138.334 48.5189C138.365 47.4843 138.401 46.4441 138.34 45.4122C138.285 44.4495 138.686 44.123 139.61 44.1286C143.616 44.1479 147.621 44.1341 151.627 44.1175C152.211 44.1147 152.811 44.1064 153.378 43.9819C155.359 43.5421 156.377 42.1422 156.386 39.8599C156.402 35.6134 156.399 31.3641 156.399 27.1148C156.399 25.5435 156.469 25.4688 158.023 25.4771C158.922 25.4826 159.821 25.5241 160.715 25.4798C161.611 25.4328 161.941 25.7731 161.924 26.686C161.88 29.032 161.91 31.3807 161.91 33.7294Z" fill="white"/>
<path d="M184.938 33.0822C184.938 35.4669 184.958 37.8516 184.936 40.2362C184.886 45.8273 181.021 49.6893 175.452 49.7252C172.412 49.7446 169.369 49.7086 166.328 49.7501C165.324 49.764 164.962 49.3739 165.028 48.3918C165.089 47.4982 165.081 46.5936 165.028 45.6972C164.973 44.8037 165.321 44.4413 166.22 44.4496C169.02 44.4717 171.82 44.444 174.619 44.4468C177.856 44.4496 179.309 43.0359 179.322 39.7853C179.345 34.9136 179.35 30.0391 179.331 25.1673C179.328 24.3014 179.696 23.9888 180.515 24.0082C181.552 24.0331 182.59 24.0165 183.624 24.0109C184.781 24.0054 184.958 24.1797 184.955 25.3056C184.952 27.8978 184.955 30.49 184.955 33.0822C184.949 33.0822 184.944 33.0822 184.938 33.0822Z" fill="white"/>
<path d="M20.007 9.64747C22.0099 9.40125 21.7914 7.84927 22.1427 6.68182C22.3613 5.957 22.4277 5.18516 22.6407 4.45758C22.9339 3.46165 23.122 2.55425 21.9186 2.00373C21.7858 1.94286 21.6614 1.63579 21.7029 1.49746C21.7471 1.35361 21.9878 1.23742 22.1649 1.17655C22.3198 1.12399 22.5051 1.15996 22.6794 1.15996C26.7959 1.16272 30.9096 1.16272 35.0234 1.17102C36.437 1.17379 36.603 1.4034 36.2849 2.75897C36.1023 3.53082 35.9833 4.32202 35.7842 5.08833C35.6984 5.41754 35.4798 5.71079 35.1783 6.30558C34.7965 5.51437 34.5337 5.01087 34.3069 4.49354C33.7093 3.13244 32.8185 2.38273 31.1891 2.49062C28.6273 2.65938 28.4724 1.95946 27.8997 5.24049C27.7642 6.0234 27.529 6.78971 27.4156 7.57539C27.2745 8.56855 27.7144 8.92542 28.6107 8.46066C29.4545 8.02079 30.1931 7.37897 30.9954 6.85057C31.261 6.67628 31.5736 6.57393 31.8641 6.43837C31.9111 6.74545 32.0467 7.07189 31.9913 7.3596C31.6926 8.91989 31.3661 10.4774 30.9982 12.0211C30.9207 12.3392 30.6219 12.6076 30.4255 12.8981C30.1876 12.674 29.9469 12.4554 29.7145 12.2286C29.1585 11.6781 28.6633 11.039 28.0353 10.5881C27.4599 10.1759 26.8678 10.3667 26.6742 11.1165C26.2786 12.6546 25.9162 14.2038 25.5787 15.7586C25.4099 16.5332 25.883 16.7711 26.5774 16.8569C29.3272 17.1889 31.3246 16.0491 32.7881 13.7889C33.0509 13.3822 33.3884 13.0253 33.8698 12.4167C34.0026 12.9589 34.1326 13.1885 34.0938 13.3794C33.82 14.6631 33.5157 15.9384 33.2113 17.2137C33.0509 17.8805 32.6193 18.1682 31.9277 18.1682C27.5705 18.1737 23.2161 18.2014 18.8589 18.1958C18.6127 18.1958 18.3693 17.9441 18.123 17.8113C18.2946 17.6204 18.4357 17.3133 18.6431 17.258C19.7221 16.9703 20.0706 16.1791 20.2477 15.197C20.4109 14.2785 20.6156 13.3684 20.8452 12.4637C21.1081 11.4457 21.5645 10.4082 20.007 9.64747Z" fill="#EB222C"/>
<path d="M3.93911 14.4914C4.29045 14.8428 4.74138 15.2743 5.16742 15.7308C5.433 16.0157 5.88393 16.3754 5.84244 16.6382C5.79541 16.9342 5.32787 17.2302 4.9793 17.4045C4.20746 17.789 3.40518 18.1127 2.60291 18.4336C1.7785 18.7628 1.3663 18.453 1.55165 17.5899C2.17134 14.6851 2.78549 11.7748 3.49371 8.8921C3.82292 7.55313 3.81462 6.46314 2.53928 5.6083C2.33456 5.47274 2.26263 4.71473 2.43692 4.50725C3.42178 3.35363 4.4924 2.26641 5.55472 1.18196C6.12738 0.598234 6.54235 1.03533 6.92966 1.4669C9.129 3.90693 11.3173 6.35525 13.5304 8.77867C13.8126 9.08851 14.2165 9.28493 14.5651 9.53392C14.7477 9.14661 15.0022 8.77867 15.1046 8.372C15.644 6.19479 16.1337 4.00099 16.6704 1.82378C16.947 0.697826 17.2596 0.581635 18.2583 1.14876C18.9499 1.5416 19.6443 1.9289 20.3221 2.34111C20.892 2.68691 20.8865 3.07699 20.3415 3.45876C20.3138 3.47812 20.2861 3.50579 20.2557 3.51685C17.6331 4.2721 17.326 6.524 16.8668 8.70398C16.2554 11.6115 15.6053 14.5108 14.9441 17.4073C14.8666 17.7475 14.6121 18.0463 14.4406 18.3645C14.1003 18.1736 13.6826 18.0546 13.4336 17.7807C11.0655 15.1692 8.73339 12.5272 6.3736 9.91015C6.13568 9.64734 5.78434 9.48689 5.48556 9.2794C5.29468 9.61968 5.02633 9.93782 4.93227 10.303C4.58923 11.606 4.30428 12.9228 3.93911 14.4914Z" fill="#EB222C"/>
<path d="M155.782 9.4039C155.782 11.097 155.81 12.7901 155.777 14.4804C155.727 16.984 154.535 18.157 152.064 18.1681C148.816 18.1819 145.568 18.1791 142.321 18.1764C141.103 18.1736 140.899 17.9606 140.852 16.7184C140.843 16.5109 140.841 16.3035 140.838 16.096C140.81 14.497 141.004 14.2867 142.589 14.2784C145.043 14.2646 147.494 14.2729 149.948 14.2646C151.146 14.259 151.514 13.9437 151.536 12.7458C151.58 10.5354 151.591 8.32498 151.574 6.11181C151.566 5.00522 151.154 4.66218 150.028 4.66218C147.436 4.66218 144.846 4.67048 142.254 4.65388C141.009 4.64558 140.818 4.42703 140.83 3.18765C140.849 0.891487 140.849 0.902553 143.187 0.891487C146.227 0.877654 149.264 0.84999 152.305 0.814026C154.142 0.791894 155.539 1.97594 155.614 3.80734C155.691 5.66917 155.63 7.53654 155.63 9.40113C155.683 9.4039 155.732 9.4039 155.782 9.4039Z" fill="white"/>
<path d="M173.798 7.83528C173.798 5.96792 173.817 4.10056 173.789 2.23596C173.776 1.27876 174.166 0.808462 175.148 0.869325C175.997 0.921887 177.076 0.66184 177.629 1.08788C178.083 1.43922 177.925 2.5956 178.017 3.39787C178.113 4.26931 178.7 4.4104 179.425 4.40763C181.74 4.39657 184.059 4.39933 186.374 4.3938C187.774 4.39103 187.926 4.55149 187.932 6.04261C187.94 7.82145 187.804 7.99574 186.338 7.9985C184.056 8.00404 181.773 7.9985 179.494 8.0068C178.285 8.01234 178.011 8.28068 178 9.45643C177.992 10.3196 177.986 11.1855 178.003 12.0486C178.03 13.6283 178.57 14.1843 180.13 14.2009C182.515 14.223 184.9 14.212 187.287 14.2258C188.554 14.2341 188.717 14.4139 188.728 15.6699C188.75 18.4004 188.634 18.0601 186.371 18.0574C183.881 18.0546 181.394 18.0657 178.905 18.0601C175.781 18.0491 173.792 16.0406 173.795 12.9173C173.798 11.2242 173.795 9.52836 173.795 7.83528C173.795 7.83528 173.795 7.83528 173.798 7.83528Z" fill="white"/>
<path d="M108.559 2.58716C109.146 2.58716 109.735 2.56503 110.321 2.5927C111.234 2.63419 112.053 2.61483 112.263 1.42801C112.305 1.19287 112.745 0.891321 113.027 0.86089C113.813 0.775129 114.62 0.744698 115.401 0.844291C115.713 0.885788 116.15 1.28416 116.225 1.594C116.427 2.42118 116.93 2.60376 117.666 2.5927C119.116 2.57333 120.568 2.61206 122.018 2.57333C122.945 2.54843 123.315 2.93021 123.332 3.85697C123.379 6.35509 123.404 6.35509 120.889 6.35232C119.783 6.34956 118.679 6.37999 117.575 6.34402C116.634 6.31359 116.261 6.77006 116.264 7.65809C116.269 8.90024 116.267 10.1451 116.253 11.3873C116.208 15.158 113.398 17.9715 109.61 18.0406C109.403 18.0434 109.195 18.0379 108.988 18.0434C106.307 18.1402 106.598 17.8608 106.719 15.0916C106.733 14.8094 107.206 14.5217 107.505 14.2865C107.616 14.198 107.84 14.2506 108.011 14.245C111.528 14.1178 112.186 13.4262 112.167 9.88786C112.164 9.19625 112.178 8.5074 112.164 7.81578C112.142 6.68706 111.865 6.39659 110.753 6.38275C109.267 6.36339 107.782 6.37445 106.299 6.37169C105.021 6.36892 104.808 6.1476 104.811 4.85013C104.811 4.57348 104.811 4.29684 104.816 4.02019C104.835 2.80018 105.054 2.5844 106.285 2.57886C107.038 2.5844 107.798 2.58716 108.559 2.58716Z" fill="white"/>
<path d="M45.1432 18.6992C40.8607 18.6024 38.2602 17.2911 36.877 14.2535C35.4384 11.0942 36.0692 8.04832 38.2491 5.44508C40.9741 2.18895 44.5871 0.636962 48.8226 0.628662C49.3233 0.628662 50.0011 1.0464 50.2888 1.4752C50.8172 2.26918 51.1851 3.19317 51.4673 4.10887C51.5697 4.43532 51.3539 5.07714 51.0745 5.26802C49.6027 6.26672 48.9692 6.10073 47.9235 4.61237C46.3909 2.43516 46.1723 2.3909 43.8651 3.8184C42.2107 4.84199 40.952 6.19756 40.6449 8.17281C40.0833 11.7858 43.5054 14.248 47.2319 12.9533C47.752 12.7734 48.2389 12.4498 48.77 12.3502C49.1601 12.2782 49.6912 12.3502 49.979 12.5798C50.156 12.7236 50.0896 13.3212 49.9651 13.6559C49.7134 14.331 49.279 14.9423 49.0467 15.6229C48.2333 17.9993 46.5126 18.8348 45.1432 18.6992Z" fill="#EB222C"/>
<path d="M198.347 39.5887C195.132 39.5887 191.92 39.5915 188.706 39.5887C187.422 39.5887 187.276 39.4366 187.278 38.164C187.281 37.4392 187.281 36.7116 187.276 35.9868C187.27 34.7087 187.43 34.5344 188.689 34.5344C192.731 34.5344 196.776 34.5399 200.817 34.5427C203.271 34.5427 205.725 34.5676 208.179 34.5316C209.15 34.5178 209.587 34.8692 209.521 35.8706C209.465 36.695 209.471 37.5305 209.515 38.3577C209.565 39.2568 209.183 39.597 208.298 39.5915C204.981 39.5694 201.664 39.5832 198.347 39.5832C198.347 39.5832 198.347 39.586 198.347 39.5887Z" fill="white"/>
<path d="M172.525 7.63324C172.525 9.0137 172.569 10.3969 172.517 11.7774C172.384 15.2493 169.9 17.8636 166.422 18.0296C163.562 18.1652 160.693 18.0988 157.83 18.1347C157.099 18.143 156.737 17.8111 156.728 17.0835C156.728 17.0143 156.726 16.9452 156.723 16.876C156.654 14.1759 156.654 14.1787 159.323 14.1787C161.257 14.1787 163.191 14.187 165.125 14.1732C167.313 14.1566 168.37 13.1468 168.414 10.9447C168.464 8.46041 168.436 5.97336 168.444 3.48631C168.45 2.08924 168.605 1.93155 169.983 1.92879C172.608 1.92879 172.528 1.60511 172.519 4.42137C172.517 5.49199 172.519 6.56262 172.519 7.63324C172.522 7.63324 172.525 7.63324 172.525 7.63324Z" fill="white"/>
<path d="M92.9371 18.1568C91.8997 18.1568 90.8623 18.1458 89.8276 18.1624C89.0973 18.1734 88.7349 17.8332 88.7183 17.1111C88.7155 17.042 88.7155 16.9728 88.7127 16.9036C88.6159 14.151 88.6159 14.151 91.3685 14.1648C92.406 14.1704 93.4434 14.1842 94.4781 14.1676C96.5695 14.1344 97.9887 12.9006 98.2985 10.8119C98.719 7.97625 99.1368 5.13786 99.4881 2.29394C99.6098 1.30078 100.047 0.880273 101.029 0.924537C103.508 1.03796 103.992 0.362945 103.48 3.58588C103.015 6.51833 102.697 9.47568 102.282 12.4164C101.815 15.7362 99.4134 17.9355 96.0439 18.1236C95.0092 18.1817 93.9718 18.1319 92.9344 18.1319C92.9371 18.1402 92.9371 18.1485 92.9371 18.1568Z" fill="white"/>
<path d="M131.487 8.87255C131.487 6.69534 131.482 4.51813 131.49 2.34092C131.493 1.15688 131.772 0.877464 132.945 0.833201C135.637 0.728075 135.64 0.728075 135.659 3.39771C135.681 6.3357 135.689 9.27369 135.717 12.2117C135.731 13.6834 136.082 13.9739 137.557 13.7526C138.069 13.6779 138.575 13.5589 139.081 13.4538C139.787 13.3072 140.138 13.6004 140.16 14.3087C140.163 14.411 140.149 14.5161 140.149 14.6185C140.102 17.5067 140.6 17.3103 137.322 17.8276C136.434 17.9687 135.54 18.0821 134.646 18.1402C132.621 18.2758 131.59 17.3241 131.567 15.3018C131.542 13.1606 131.562 11.0166 131.562 8.87255C131.534 8.87255 131.512 8.87255 131.487 8.87255Z" fill="white"/>
<path d="M196.129 18.0408C194.574 18.0408 193.016 18.0187 191.462 18.0491C190.618 18.0657 190.25 17.6894 190.261 16.8733C190.267 16.5275 190.278 16.1817 190.258 15.8359C190.211 14.8677 190.659 14.4416 191.63 14.4831C192.424 14.5163 193.221 14.4859 194.015 14.4804C194.69 14.4748 194.997 14.1179 195.072 13.4595C195.296 11.4953 194.784 10.8784 192.778 10.8784C191.907 10.8784 191.52 10.5686 191.517 9.6667C191.509 8.00406 191.672 7.63612 192.698 7.60569C193.838 7.57249 194.981 7.56142 196.12 7.60845C197.755 7.67485 198.812 8.7178 198.917 10.3639C198.978 11.2934 198.967 12.2312 198.953 13.1635C198.939 14.0571 199.299 14.4942 200.24 14.5108C202.01 14.544 202.829 15.8221 202.054 17.4266C201.891 17.7641 201.236 18.0159 200.796 18.0353C199.244 18.1072 197.686 18.0629 196.131 18.0629C196.129 18.0602 196.129 18.0491 196.129 18.0408Z" fill="white"/>
<path d="M67.7117 7.19065C67.7117 8.53792 67.6868 9.88519 67.7173 11.2325C67.7588 12.8923 68.4697 13.8606 70.0632 14.3807C70.741 14.602 71.0121 14.9783 70.9679 15.6726C70.9319 16.1872 70.954 16.7073 70.9762 17.2246C71.0177 18.1293 70.5695 18.4778 69.7064 18.4197C66.6854 18.2205 63.8415 15.6007 63.6865 12.5355C63.5095 9.01929 63.6035 5.48928 63.5842 1.9648C63.5842 1.82925 63.5869 1.67156 63.6506 1.5609C64.3837 0.313222 65.5899 1.07953 66.5719 0.921845C67.2525 0.813953 67.6509 1.31468 67.6564 2.01736C67.6675 3.74087 67.6592 5.46715 67.6592 7.19065C67.6785 7.19342 67.6951 7.19065 67.7117 7.19065Z" fill="white"/>
<path d="M59.5621 7.25699C59.5621 8.84494 59.6146 10.4357 59.551 12.0208C59.4155 15.3074 56.7237 18.1292 53.462 18.4778C52.7289 18.5552 52.3444 18.226 52.3361 17.4874C52.3305 16.9701 52.3831 16.45 52.3333 15.9382C52.2586 15.2078 52.5297 14.7486 53.2158 14.4968C54.8591 13.8937 55.5341 12.6654 55.5286 10.9613C55.5203 8.09523 55.5479 5.22918 55.5562 2.36312C55.559 1.15971 55.8246 0.888592 57.0059 0.894125C59.5648 0.907958 59.5648 0.907957 59.5787 3.42267C59.5814 4.07833 59.5842 4.73398 59.5842 5.38963C59.5842 6.01208 59.5842 6.63177 59.5842 7.25423C59.5759 7.25699 59.5676 7.25699 59.5621 7.25699Z" fill="white"/>
<path d="M128.921 7.1104C128.921 8.69835 128.959 10.2863 128.912 11.8743C128.813 15.2521 126.879 17.6451 123.941 18.1016C122.48 18.3284 122.132 18.0324 122.132 16.5772C122.132 16.1623 122.018 15.7113 122.148 15.3434C122.298 14.9174 122.572 14.3834 122.94 14.2119C124.456 13.4982 124.821 13.0611 124.815 11.3818C124.81 8.41341 124.785 5.44499 124.765 2.47657C124.757 1.15697 125.009 0.880323 126.317 0.885856C128.647 0.896921 128.885 0.255102 128.818 3.38397C128.793 4.62612 128.813 5.86826 128.813 7.1104C128.852 7.1104 128.885 7.1104 128.921 7.1104Z" fill="white"/>
<path d="M170.754 30.2547C170.754 31.9145 170.726 33.5744 170.765 35.2315C170.784 36.0781 170.458 36.4322 169.609 36.4073C168.469 36.3741 167.326 36.3768 166.186 36.4073C165.376 36.4294 164.986 36.1583 164.994 35.273C165.025 31.9201 165.019 28.5671 164.991 25.2142C164.983 24.34 165.298 23.9361 166.203 23.9693C167.274 24.0052 168.347 24.0163 169.418 23.9582C170.4 23.9056 170.804 24.2791 170.773 25.2778C170.726 26.9349 170.759 28.5975 170.759 30.2547C170.757 30.2547 170.754 30.2547 170.754 30.2547Z" fill="white"/>
<path d="M144.523 29.3474C142.902 29.3474 141.281 29.3059 139.663 29.3612C138.658 29.3972 138.293 28.996 138.346 28.0195C138.396 27.0899 138.373 26.1576 138.343 25.2281C138.318 24.4507 138.636 24.0717 139.43 24.0745C142.88 24.0855 146.327 24.0883 149.777 24.0855C150.408 24.0855 150.764 24.365 150.77 25.004C150.781 26.141 150.77 27.2808 150.767 28.4178C150.764 29.1316 150.369 29.364 149.699 29.3557C147.973 29.3363 146.25 29.3474 144.523 29.3474Z" fill="white"/>
<path d="M144.647 32.2051C146.304 32.2051 147.964 32.2273 149.621 32.1968C150.474 32.1802 150.808 32.5399 150.781 33.3753C150.747 34.3768 150.761 35.3783 150.783 36.3797C150.8 37.1543 150.487 37.5085 149.677 37.5057C146.291 37.4863 142.907 37.4891 139.521 37.5057C138.705 37.5085 138.307 37.2014 138.34 36.3382C138.379 35.3368 138.373 34.3353 138.343 33.3339C138.318 32.526 138.699 32.2107 139.469 32.2162C141.195 32.2273 142.924 32.219 144.65 32.219C144.647 32.2134 144.647 32.2079 144.647 32.2051Z" fill="white"/>
<path d="M42.7338 34.3157C44.6676 34.3157 46.6041 34.3323 48.5378 34.3074C49.365 34.2963 49.744 34.6228 49.7191 35.4721C49.614 38.9219 50.325 38.5927 46.6816 38.5844C43.5029 38.5761 40.327 38.5927 37.1483 38.5927C35.9394 38.5927 35.7595 38.4073 35.7678 37.215C35.7872 34.3323 35.7872 34.3323 38.6948 34.3268C40.042 34.324 41.3893 34.3268 42.7366 34.3268C42.7338 34.3212 42.7338 34.3185 42.7338 34.3157Z" fill="white"/>
<path d="M79.5853 11.296C77.5824 11.296 75.5767 11.2988 73.5738 11.296C72.3842 11.2932 72.1795 11.1023 72.2016 9.9017C72.2459 7.37868 71.7147 7.29292 74.7661 7.31229C78.3266 7.33442 81.8842 7.30399 85.4447 7.29569C86.8334 7.29292 86.9939 7.44785 87.0354 8.81725C87.1101 11.2822 87.1101 11.2822 84.6645 11.2822C82.9714 11.2822 81.2784 11.2822 79.5853 11.2822C79.5853 11.2877 79.5853 11.2932 79.5853 11.296Z" fill="white"/>
<path d="M207.463 11.3183C205.46 11.3183 203.46 11.3183 201.457 11.3183C200.195 11.3183 199.988 11.1246 199.977 9.91013C199.952 7.38988 199.952 7.37882 202.517 7.36499C206.141 7.34562 209.765 7.34285 213.389 7.34009C214.661 7.34009 214.758 7.47011 214.819 8.77588C214.957 11.7332 214.725 11.2712 212.329 11.2989C210.708 11.3183 209.084 11.3017 207.463 11.3017C207.463 11.3044 207.463 11.3127 207.463 11.3183Z" fill="white"/>
<path d="M90.2773 9.509C88.421 9.52836 88.4044 9.53113 88.114 7.7357C87.8124 5.8628 87.5607 3.97884 87.2702 2.10317C87.154 1.35346 87.4777 0.968924 88.197 0.927427C88.8858 0.888696 89.5774 0.902528 90.269 0.905295C90.9717 0.905295 91.3646 1.2843 91.4559 1.95932C91.7519 4.11439 92.0368 6.26947 92.319 8.42731C92.4075 9.1051 92.1226 9.4924 91.4144 9.509C91.0354 9.5173 90.6563 9.509 90.2773 9.509Z" fill="white"/>
<path d="M161.18 4.8502C160.076 4.8502 158.972 4.82807 157.868 4.8585C157.077 4.88063 156.731 4.51269 156.704 3.75468C156.593 0.639642 156.626 0.877558 159.326 0.910756C160.947 0.930121 162.569 0.896923 164.19 0.905223C165.341 0.910756 165.556 1.14867 165.565 2.31889C165.584 4.8585 165.584 4.8585 163.042 4.8419C162.422 4.83914 161.799 4.8419 161.18 4.8419C161.18 4.84467 161.18 4.84744 161.18 4.8502Z" fill="white"/>
<path d="M234.577 28.509C233.359 28.5201 232.214 27.4052 232.217 26.2156C232.22 25.0011 233.329 23.9111 234.56 23.9111C235.813 23.9111 236.898 24.9679 236.911 26.199C236.925 27.4024 235.819 28.4979 234.577 28.509Z" fill="white"/>
<path d="M242.686 26.1826C242.702 27.4552 241.659 28.523 240.412 28.5064C239.175 28.4926 238.154 27.5022 238.115 26.2849C238.077 25.0317 239.1 23.9556 240.367 23.9141C241.645 23.8726 242.669 24.8768 242.686 26.1826Z" fill="white"/>
</svg>
