<svg width="758" height="224" viewBox="0 0 758 224" fill="none" xmlns="http://www.w3.org/2000/svg">
<path d="M519.676 19.14C537.996 5 561.696 -0.699996 584.566 0.190004C595.136 0.720004 605.606 2.67 615.786 5.53C616.156 5.75 616.886 6.18 617.256 6.39C604.816 15.15 594.126 26.73 587.426 40.46C574.796 39.03 561.716 42.21 551.396 49.71C538.486 58.77 529.116 73.23 527.386 89.04C525.386 105.01 523.526 121 521.546 136.97C520.966 141.39 520.776 146 518.776 150.07C515.986 155.95 511.776 161.04 507.346 165.76C503.326 169.96 497.216 170.64 491.716 170.7C478.916 142.46 476.306 110.02 483.006 79.85C488.156 56.4 500.286 33.81 519.676 19.14Z" fill="white"/>
<path d="M616.006 15.33C634.886 3.08 658.416 0.43 680.386 2.7C699.826 4.65 719.706 11.71 733.146 26.45C744.216 38.25 749.406 54.36 750.546 70.26C736.556 70.52 722.556 70.4 708.566 70.32C707.046 61.92 702.766 53.9 695.926 48.66C686.016 40.98 672.756 38.85 660.546 40.41C651.366 41.75 641.736 44.68 635.246 51.68C631.366 56.01 628.876 62.58 631.396 68.18C633.846 75.07 636.226 81.99 638.616 88.9C642.296 99.93 640.586 111.77 639.416 123.08C624.036 118.95 608.136 112.24 598.376 99.05C588.976 86.24 587.776 69.26 590.366 54.04C593.016 38.28 602.526 23.91 616.006 15.33Z" fill="white"/>
<path d="M400.586 8.27999C426.246 7.58999 451.916 6.93999 477.586 6.32999C490.296 6.28999 502.986 8.19 515.086 12.13C515.146 13.89 514.806 15.6 513.236 16.63C502.706 25.85 494.816 37.56 487.676 49.47C472.886 49.4 458.096 49.74 443.296 49.75C443.596 91.81 443.366 133.89 443.656 175.96C452.626 176.68 461.616 177.33 470.596 177.83C479.286 177.8 487.976 177.68 496.666 177.53C505.036 177.25 511.746 171.21 516.706 165.01C523.336 156.37 528.446 146.14 529.306 135.15C530.426 121.73 531.686 108.32 532.896 94.91C533.396 89.21 534.526 83.52 536.756 78.23C541.626 66.27 551.596 56.79 563.306 51.58C579.966 79.75 582.416 114.59 574.726 145.95C569.146 168.31 555.986 189.17 536.536 201.92C517.546 214.65 494.116 219.22 471.536 218.24C447.886 217.25 424.216 216.6 400.586 215.35V8.27999Z" fill="white"/>
<path d="M647.656 51.21C656.896 46.86 667.386 46.94 677.326 48.1C687.566 66.71 693.606 87.7 693.736 108.99C694.236 132.7 687.796 156.23 676.746 177.11C665.606 178.43 653.946 176.23 644.426 170.2C640.406 167.68 636.946 163.12 638.236 158.13C640.846 147.71 644.396 137.53 647.246 127.17C648.746 121.22 648.116 115.05 648.036 108.99C647.846 101.85 646.446 94.79 644.406 87.96C641.916 79.38 638.216 70.96 637.846 61.92C638.066 56.52 643.206 53.19 647.656 51.21Z" fill="white"/>
<path d="M699.526 97.6C714.846 101.77 730.736 106.86 742.626 117.87C752.466 126.85 757.106 140.22 757.586 153.29V160.77C756.906 173.12 752.496 185.37 744.336 194.76C733.486 207.44 717.726 214.88 701.696 218.61C680.356 223.45 657.806 222.37 636.756 216.57C619.776 211.77 602.976 202.27 594.106 186.46C588.056 175.57 582.766 162.84 586.026 150.22C599.706 150.06 613.396 150.32 627.086 150.42C628.606 159.8 632.486 169.38 640.296 175.25C650.016 182.61 662.766 183.73 674.556 183.85C685.276 183.62 696.736 182.51 705.816 176.26C713.706 171.04 716.806 159.7 712.356 151.29C709.146 145.41 703.186 141.83 697.496 138.71C697.866 124.99 698.886 111.3 699.526 97.6Z" fill="white"/>
<path d="M568.046 180.5C573.426 179.66 579.046 180.48 584.516 180.59C591.616 196.79 605.246 208.97 619.876 218.36C609.126 222.01 597.806 223.76 586.466 224H585.836C569.436 223.83 553.206 220.22 537.946 214.34C537.926 214.14 537.886 213.75 537.866 213.55C543.476 208.06 549.286 202.76 554.986 197.35C560.476 192.69 563.586 186.03 568.046 180.5Z" fill="white"/>
<path d="M206.002 28.1876C218.452 12.1436 238.291 3.36856 258.06 0.818386C266.042 0.798306 274.034 1.15975 282.016 0.657745C300.68 2.46496 319.244 10.3364 331.895 24.4728C342.648 36.2297 348.551 51.7818 350.208 67.4945C336.011 67.6953 321.804 68.127 307.608 68.0366C305.811 57.6753 299.064 48.3681 289.797 43.4083C279.957 38.1072 267.849 36.4305 257.187 40.1554C251.424 42.1333 245.861 45.3059 242.106 50.2055C237.096 56.5608 237.789 66.2595 242.769 72.4241C247.9 78.659 255.771 81.6409 263.241 84.0505C281.072 89.3818 299.736 91.6509 317.236 98.1568C329.355 102.605 341.202 109.452 348.601 120.335C357.065 132.825 358.852 148.759 356.814 163.417C354.706 178.799 346.473 193.146 334.405 202.875C318.2 216.148 296.835 221.871 276.132 221.66C256.122 221.379 235.661 216.168 219.396 204.15C208.432 196.098 199.908 184.622 196.053 171.53C193.984 165.144 193.422 158.417 193.091 151.751C207.047 151.57 221.002 151.951 234.968 151.741C238.974 163.377 247.638 173.487 259.144 178.176C270.741 183.015 284.325 183.648 296.022 178.748C301.634 176.399 307.015 172.845 310.268 167.584C313.883 161.791 314.325 153.919 310.58 148.076C306.985 142.403 300.73 139.221 294.686 136.801C283.2 132.414 271.062 130.175 259.185 127.163C243.743 123.307 227.94 118.9 214.848 109.502C205.561 102.946 198.543 93.187 195.711 82.1429C190.982 63.87 194.165 43.1774 206.002 28.1876Z" fill="white"/>
<path d="M0 4.21193C20.3613 4.07137 40.7225 4.19185 61.0838 4.14165C71.9873 44.9646 82.3286 85.9381 93.3325 126.721C101.646 85.918 109.156 44.9344 117.378 4.11153C140.42 4.21193 163.472 4.10149 186.514 4.16173C186.544 76.0787 186.474 147.996 186.554 219.913C172.659 219.963 158.774 220.033 144.888 219.873C144.035 179.943 143.382 140.004 142.157 100.095C134.075 140.064 125.591 179.963 117.439 219.923C102.68 219.973 87.9209 219.983 73.162 219.923C63.2123 181.931 53.4734 143.889 43.363 105.938C43.0217 109.412 43.0418 112.906 43.0719 116.39C43.1121 150.907 43.0418 185.415 43.102 219.933C32.4294 219.983 21.7568 219.943 11.0842 219.963C7.38949 219.953 3.66462 220.174 0 219.541V4.21193Z" fill="white"/>
</svg>
