<svg width="482" height="164" viewBox="0 0 482 164" fill="none" xmlns="http://www.w3.org/2000/svg">
<path d="M68.1099 41.884C70.648 44.3488 74.1091 45.8726 77.9263 45.8726L138.24 45.8796L125.214 7.01937C123.435 2.89106 119.261 0 114.248 0C109.256 0 105.019 2.98552 103.306 7.09678L98.9642 19.7554L98.9471 0.653875L77.8844 0.643277C74.0773 0.643277 70.6549 2.1289 68.1343 4.58634L68.1417 0.660326H46.5758C42.559 0.660326 38.9058 2.37312 36.3507 5.06511V0.643277L16.0248 0.660787C7.25023 0.653414 0.0525312 7.51242 0.0419328 16.581C0.0419328 20.7793 1.87684 24.5869 4.58266 27.4079L0 27.4005V45.8726L20.4789 45.8689C26.2329 45.862 31.9348 42.3904 33.9167 38.2307L33.9762 38.0598C36.2659 42.6844 41.0444 45.8726 46.5749 45.8726L68.1095 45.8689V41.884" fill="white"/>
<path d="M3.16406 42.7121L20.4335 42.6946C27.4989 42.6946 33.2248 36.9862 33.2248 29.9526C33.2248 22.9051 27.4989 17.1963 20.4335 17.1963L15.9485 17.2207C15.5951 17.2207 15.3084 16.9308 15.3084 16.5742C15.3084 16.2175 15.5951 15.9272 15.9485 15.9272L33.1866 15.9309L33.1935 10.5229H15.9448C12.61 10.5229 9.89681 13.232 9.89681 16.5604C9.89681 19.8919 12.6095 22.5904 15.9448 22.5904L20.451 22.6498C24.4991 22.6498 27.7749 25.9146 27.7749 29.9424C27.7749 33.9731 24.4996 37.2452 20.451 37.2452H3.17097L3.16406 42.7121" fill="#0060A8"/>
<path d="M3.17056 35.9756H20.4506C23.796 35.9756 26.5018 33.2771 26.5018 29.9419C26.5018 26.6103 23.796 23.915 20.4506 23.915L15.9444 23.8662C11.9032 23.8662 8.62413 20.5978 8.62413 16.5598C8.62413 12.5328 11.9032 9.26391 15.9444 9.26391L33.1931 9.26023L33.1862 3.83154H15.9481C8.89001 3.83154 3.15674 9.53348 3.15674 16.574C3.15674 23.6146 8.89001 29.3198 15.9481 29.3198L20.4086 29.3267C20.7478 29.3267 21.0344 29.6032 21.0344 29.9524C21.0344 30.2953 20.7478 30.5713 20.4086 30.5713L3.16365 30.5851L3.17056 35.9756" fill="#0060A8"/>
<path d="M46.6137 37.2796C43.6176 37.2796 41.1633 34.8918 41.1633 31.8431V14.5917C41.1633 11.6587 43.6176 9.2464 46.6137 9.2464L65.0471 9.24963V3.83154H46.6137C40.615 3.83154 35.7559 8.67317 35.7559 14.6511V31.8436C35.7559 37.822 40.615 42.6705 46.6137 42.6705L64.9701 42.6779L64.9664 37.2732L46.6137 37.2796" fill="#0060A8"/>
<path d="M42.485 14.6511C42.485 12.3651 44.324 10.5122 46.6137 10.5122H65.0471V15.9377H49.1656C47.8934 15.9377 47.8759 17.1998 47.8759 17.1998H61.1252V22.6008H42.4785L42.485 14.6511" fill="#0060A8"/>
<path d="M46.6137 35.9652C44.3309 35.9652 42.478 34.1229 42.478 31.8434V23.8867H61.1248V29.2988H47.8754C47.8929 30.5711 49.1652 30.5775 49.1652 30.5775H64.9697L64.966 35.9578L46.6137 35.9652" fill="#0060A8"/>
<path d="M77.9645 37.2658C74.979 37.2658 72.5391 34.8328 72.5391 31.8431V14.6507C72.5391 11.6582 74.9615 9.24594 77.9502 9.24594H95.8039V3.83154H77.9088C71.9128 3.83154 67.0537 8.67317 67.0537 14.6511V31.8436C67.0537 37.822 71.9548 42.6705 77.9502 42.6705L95.8039 42.6779V17.1998H80.4607V22.6008H90.3817V37.2658H77.9645" fill="#0060A8"/>
<path d="M73.8115 31.8429C73.8115 34.1335 75.6643 35.9965 77.9504 35.9965H89.1022V23.8798H80.4742V29.2988H83.6763L83.6864 30.5711H80.4986C79.8028 30.5711 79.2332 29.9946 79.2332 29.2988L79.2047 17.1959C79.2047 17.1959 79.201 15.9374 80.4843 15.9061H95.8101L95.8031 10.5083L77.9495 10.512C75.6634 10.512 73.8105 12.3649 73.8105 14.6509V31.8429" fill="#0060A8"/>
<path d="M112.58 10.4318C112.821 9.74335 113.475 9.24707 114.247 9.24707C115.021 9.24707 115.681 9.74335 115.915 10.4318L124.582 36.0352H111.891L111.905 30.0121H116.146L114.237 24.3383L108.018 42.6735H101.621L112.58 10.4318" fill="#0060A8"/>
<path d="M126.329 37.2657H111.912V42.6732H133.852L122.442 8.91403C121.442 5.62116 118.146 3.19873 114.244 3.19873C110.336 3.19873 107.05 5.61056 106.042 8.90067L94.5273 42.6736H100.271L111.451 9.84439C111.905 8.75736 112.975 7.99151 114.234 7.99151C115.485 7.99151 116.562 8.75736 117.02 9.83748L126.329 37.2657" fill="#0060A8"/>
<path fill-rule="evenodd" clip-rule="evenodd" d="M132.42 7.01285C131.7 7.72939 130.738 8.12799 129.717 8.12799C128.7 8.12799 127.742 7.72939 127.025 7.01331C126.298 6.28985 125.9 5.33554 125.9 4.31487C125.9 2.2173 127.616 0.514648 129.717 0.514648C130.738 0.514648 131.7 0.91324 132.42 1.6261C133.14 2.34955 133.542 3.30064 133.542 4.3144C133.542 5.33508 133.14 6.28939 132.42 7.01285ZM127.399 1.99981C126.774 2.61866 126.439 3.44349 126.439 4.31394C126.439 5.19131 126.774 6.01291 127.399 6.63131C128.021 7.25016 128.846 7.58931 129.717 7.58931C131.532 7.58931 133.007 6.1212 133.007 4.31394C133.007 3.44349 132.664 2.61866 132.046 1.99981C131.423 1.38141 130.598 1.04549 129.717 1.04549C128.847 1.04549 128.022 1.38095 127.399 1.99981Z" fill="white"/>
<path fill-rule="evenodd" clip-rule="evenodd" d="M128.738 6.43224V4.63558H129.829L130.986 6.43224H131.654L130.465 4.60056C130.471 4.59924 130.478 4.59782 130.486 4.59629C130.718 4.54959 131.472 4.39836 131.472 3.4435C131.472 3.05182 131.339 2.69884 131.021 2.4643C130.698 2.22039 130.357 2.21645 129.783 2.2098C129.774 2.20969 129.765 2.20958 129.755 2.20947H128.186V6.43224H128.738ZM129.86 4.17064H128.738V2.67811H129.829C129.84 2.67811 129.851 2.6781 129.863 2.67809C130.173 2.67786 130.441 2.67766 130.654 2.85644C130.895 3.05228 130.906 3.33521 130.906 3.44718C130.906 3.75453 130.766 4.03424 130.374 4.1287C130.207 4.17064 130.039 4.17064 129.86 4.17064Z" fill="white"/>
<path fill-rule="evenodd" clip-rule="evenodd" d="M82.521 157.726V69.1709H67.8022L68.0447 126.117L0 69.8955L0.239778 158.693H13.0298V101.264L82.521 157.726ZM91.933 159.172L103.274 139.869H92.8974V126.36H110.03L141.156 69.8955L190.864 159.172H173.25L163.116 139.869H118.96L108.343 159.172H91.933V159.172ZM124.991 126.117H156.842L140.917 96.9194L124.991 126.117ZM316.822 159.172H302.346V70.1353L351.569 127.321L401.275 68.9311V159.172H385.829L385.592 110.674L351.327 151.937L316.822 110.914V159.172V159.172ZM429.266 159.172L429.506 67.9641H444.224L443.985 159.172H429.266V159.172ZM457.739 82.9253V70.1353H453.639V67.7217H464.98V70.1353H460.632V82.9253H457.739V82.9253ZM465.702 82.6829V67.7217H469.802L474.147 77.1337L478.247 67.7217H481.387V82.9253H478.489V73.0311L474.389 82.9253L468.597 73.0311V82.9253L465.702 82.6829V82.6829Z" fill="white"/>
<path fill-rule="evenodd" clip-rule="evenodd" d="M190.382 115.501C190.382 88.7172 212.099 67 238.886 67C265.668 67 287.385 88.7172 287.385 115.501C287.385 142.283 265.668 164 238.886 164C212.099 164 190.382 142.283 190.382 115.501V115.501ZM238.886 149.524C257.708 149.524 272.903 134.32 272.903 115.501C272.903 96.9224 257.705 81.7188 238.886 81.7188C220.305 81.7188 205.101 96.9224 205.101 115.501C205.101 134.32 220.302 149.524 238.886 149.524Z" fill="#CC2229"/>
</svg>
