<?xml version="1.0" encoding="UTF-8" standalone="no"?>
<!-- Generator: Adobe Illustrator 15.1.0, SVG Export Plug-In . SVG Version: 6.00 Build 0)  -->

<svg
   xmlns:dc="http://purl.org/dc/elements/1.1/"
   xmlns:cc="http://creativecommons.org/ns#"
   xmlns:rdf="http://www.w3.org/1999/02/22-rdf-syntax-ns#"
   xmlns:svg="http://www.w3.org/2000/svg"
   xmlns="http://www.w3.org/2000/svg"
   xmlns:sodipodi="http://sodipodi.sourceforge.net/DTD/sodipodi-0.dtd"
   xmlns:inkscape="http://www.inkscape.org/namespaces/inkscape"
   version="1.1"
   id="Layer_1"
   x="0px"
   y="0px"
   width="500"
   height="200"
   viewBox="0 0 500 200"
   enable-background="new 0 0 588 122"
   xml:space="preserve"
   sodipodi:docname="Metal_Gear_Solid_logo.svg"
   inkscape:version="0.92.5 (2060ec1f9f, 2020-04-08)"><metadata
   id="metadata97"><rdf:RDF><cc:Work
       rdf:about=""><dc:format>image/svg+xml</dc:format><dc:type
         rdf:resource="http://purl.org/dc/dcmitype/StillImage" /><dc:title></dc:title></cc:Work></rdf:RDF></metadata><defs
   id="defs95">
	
	
	
	
	
</defs><sodipodi:namedview
   pagecolor="#ffffff"
   bordercolor="#666666"
   borderopacity="1"
   objecttolerance="10"
   gridtolerance="10"
   guidetolerance="10"
   inkscape:pageopacity="0"
   inkscape:pageshadow="2"
   inkscape:window-width="1366"
   inkscape:window-height="740"
   id="namedview93"
   showgrid="false"
   inkscape:pagecheckerboard="true"
   inkscape:zoom="0.99330357"
   inkscape:cx="294"
   inkscape:cy="61"
   inkscape:window-x="0"
   inkscape:window-y="0"
   inkscape:window-maximized="1"
   inkscape:current-layer="Layer_1" />
<polygon
   style="fill:#ed1c24"
   id="polygon2"
   points="549.108,119.468 24.509,119.468 29.197,96.921 542.57,96.921 "
   transform="matrix(0.85921949,0,0,0.85921949,2.2050854,41.527771)" /><g
   id="g22"
   transform="matrix(0.85921949,0,0,0.85921949,2.2050854,41.527771)">
		<path
   style="fill:#ed1c24"
   inkscape:connector-curvature="0"
   id="path4"
   d="M 1.361,119.827 22.724,22.445 44.59,22.408 44.664,58.951 66.197,22.408 90.101,22.445 74.907,91.194 H 54.375 L 60.639,63.398 46.11,91.194 H 31.693 L 31.656,64.25 19.52,119.938 Z" />
		<path
   style="fill:#ed1c24"
   inkscape:connector-curvature="0"
   id="path6"
   d="m 96.063,44.2 h 47.809 l -3.706,17.456 h -29.278 l -2.298,10.118 h 29.241 l -4.262,19.383 -47.92,0.037 z m 0,0 h 47.809 l -3.706,17.456 h -29.278 l -2.298,10.118 h 29.241 l -4.262,19.383 -47.92,0.037 z m 4.781,-21.755 47.957,-0.037 -3.595,15.862 h -47.92 z m 0,0 47.957,-0.037 -3.595,15.862 h -47.92 z" />
		<path
   style="fill:#ed1c24"
   inkscape:connector-curvature="0"
   id="path8"
   d="m 154.002,22.445 55.222,-0.037 -3.559,15.908 -17.418,0.037 -11.6,52.804 -20.235,0.037 11.6,-52.804 -17.493,-0.037 z" />
		<path
   style="fill:#ed1c24"
   inkscape:connector-curvature="0"
   id="path10"
   d="m 210.372,44.349 h 37.358 l 6.338,46.845 -22.497,-0.037 -2.372,-27.796 h -7.042 l -14.454,27.833 h -23.905 l 25.239,-44.881 z m 36.506,-6.115 -2.558,-15.825 h -22.756 l -8.895,15.825 z" />
		<path
   style="fill:#ed1c24"
   inkscape:connector-curvature="0"
   id="path12"
   d="m 272.87,22.445 19.346,-0.037 -11.341,51.033 28.426,-0.037 -3.928,17.753 -47.772,0.037 z" />
		<path
   style="fill:#ed1c24"
   inkscape:connector-curvature="0"
   id="path14"
   d="m 350.692,61.879 3.965,-17.642 h 32.207 l -10.378,46.919 h -44.028 l -12.194,-37.674 26.537,-31.038 44.918,-0.037 -3.633,15.974 h -30.5 l -15.492,16.252 4.929,17.362 h 15.418 l 2.224,-10.117 h -13.973 z" />
		<path
   style="fill:#ed1c24"
   inkscape:connector-curvature="0"
   id="path16"
   d="m 395.185,44.2 h 47.809 l -3.706,17.456 H 410.01 l -2.298,10.118 h 29.241 l -4.262,19.383 -47.921,0.037 z m 0,0 h 47.809 l -3.706,17.456 H 410.01 l -2.298,10.118 h 29.241 l -4.262,19.383 -47.921,0.037 z m 4.78,-21.755 47.958,-0.037 -3.595,15.862 h -47.921 z m 0,0 47.958,-0.037 -3.595,15.862 h -47.921 z" />
		<path
   style="fill:#ed1c24"
   inkscape:connector-curvature="0"
   id="path18"
   d="m 463.644,44.349 h 37.357 l 6.337,46.845 -22.496,-0.037 -2.371,-27.796 h -7.043 L 460.975,91.194 H 437.07 l 25.238,-44.881 z m 36.505,-6.115 -2.559,-15.825 h -22.755 l -8.896,15.825 z" />
		<path
   style="fill:#ed1c24"
   inkscape:connector-curvature="0"
   id="path20"
   d="m 524.498,22.445 h 34.281 l 3.483,0.371 c 5.634,0.593 9.118,3.424 10.452,8.492 0.913,3.461 1.371,6.675 1.371,9.641 0,7.737 -3.225,13.449 -9.674,17.132 l -7.708,3.3 20.211,58.558 -20.05,-0.037 -21.435,-57.504 -6.375,28.797 h -19.79 l 10.34,-47.067 h 34.208 l 2.372,-0.334 1.223,-0.481 1.001,-0.631 0.52,-1.111 v -0.927 l -0.52,-1.111 -1.223,-0.815 -1.335,-0.408 -34.801,-0.147 z" />
	</g><g
   id="g88"
   transform="matrix(0.85921949,0,0,0.85921949,2.2050854,41.527771)">
		<path
   style="fill:#ed1c24"
   inkscape:connector-curvature="0"
   id="path84"
   d="m 574.606,27.701 v -6.949 h -2.596 v -0.929 h 6.245 v 0.929 h -2.606 v 6.949 z" />
		<path
   style="fill:#ed1c24"
   inkscape:connector-curvature="0"
   id="path86"
   d="m 579.293,27.701 v -7.878 h 1.569 l 1.864,5.578 c 0.173,0.52 0.298,0.908 0.377,1.167 0.089,-0.287 0.229,-0.708 0.419,-1.263 l 1.886,-5.481 h 1.403 v 7.878 h -1.005 v -6.594 l -2.29,6.594 h -0.94 l -2.278,-6.707 v 6.707 h -1.005 z" />
	</g>
</svg>