<svg width="376" height="142" viewBox="0 0 376 142" fill="none" xmlns="http://www.w3.org/2000/svg">
<path d="M80.6249 0.178974H68.2703V10.8347H80.6249V0.178974Z" fill="white"/>
<path d="M65.3179 27.638H13.1149V23.4031H65.2578V12.7474H0.845553L0.828613 37.7473H52.9628V41.8456H0.828613V52.7745H65.3179V27.638Z" fill="white"/>
<path d="M228.851 1.4998H216.496V52.8657H228.851V1.4998Z" fill="white"/>
<path d="M309.998 12.8759H297.643V52.7752H309.998V12.8759Z" fill="white"/>
<path d="M80.6249 12.8759H68.2703V52.7752H80.6249V12.8759Z" fill="white"/>
<path d="M147.359 12.8759H83.3657V52.8205H95.7203V23.5316H135.005V52.7752H147.359V12.8759Z" fill="white"/>
<path d="M213.868 52.7752V41.8463H162.388V23.5316H213.868L213.885 12.8759H150.033V52.7752H213.868Z" fill="white"/>
<path d="M295.037 52.7752V12.8759H231.536V23.5316H282.682V27.6687H231.536V52.7752H295.037ZM282.682 41.8463H243.89V37.7479H282.682V41.8463Z" fill="white"/>
<path d="M309.998 0.178974H297.643V10.7893H309.998V0.178974Z" fill="white"/>
<path d="M313.081 12.8759V52.7752H325.435V23.5403H375.526V12.8759H313.081Z" fill="white"/>
<path d="M0.828613 141.39V129.367L36.0212 85.2948H1.70727V73.2248H53.7794V84.6474L18.1243 129.367H53.8719V141.39H0.828613Z" fill="#FF300F"/>
<path d="M186.678 141.39V73.2248H200.829V141.39H186.678Z" fill="#FF300F"/>
<path d="M120.455 121.02C120.455 117.255 121.516 113.845 123.638 110.789C125.799 107.734 128.943 105.434 133.072 103.891C129.021 101.731 126.377 99.4006 125.143 96.9006C123.947 94.3698 123.348 92.0088 123.348 89.8174C123.348 84.941 125.644 80.7899 130.236 77.364C134.828 73.9073 141.31 72.179 149.683 72.179C158.056 72.179 164.538 73.9073 169.13 77.364C173.722 80.7899 176.018 84.941 176.018 89.8174C176.018 92.0088 175.4 94.3698 174.165 96.9006C172.969 99.4006 170.346 101.576 166.294 103.428C170.423 105.28 173.529 107.734 175.612 110.789C177.696 113.845 178.738 117.255 178.738 121.02C178.738 126.668 176.114 131.483 170.866 135.465C165.657 139.415 158.365 141.39 148.988 141.39C139.612 141.39 132.513 139.415 127.689 135.465C122.866 131.483 120.455 126.668 120.455 121.02ZM137.587 120.141C137.587 123.443 138.648 126.005 140.77 127.826C142.931 129.647 145.902 130.557 149.683 130.557C153.464 130.557 156.416 129.647 158.538 127.826C160.699 126.005 161.78 123.443 161.78 120.141C161.78 116.715 160.68 114.122 158.48 112.363C156.32 110.573 153.387 109.678 149.683 109.678C145.979 109.678 143.027 110.573 140.828 112.363C138.667 114.122 137.587 116.715 137.587 120.141ZM139.091 91.2989C139.091 93.7371 140.017 95.7278 141.869 97.271C143.76 98.8141 146.365 99.5857 149.683 99.5857C153.04 99.5857 155.625 98.8141 157.439 97.271C159.291 95.7278 160.217 93.7371 160.217 91.2989C160.217 88.6446 159.291 86.5768 157.439 85.0953C155.625 83.583 153.04 82.8269 149.683 82.8269C146.365 82.8269 143.76 83.583 141.869 85.0953C140.017 86.5768 139.091 88.6446 139.091 91.2989Z" fill="#FF300F"/>
<path d="M60.2717 73.3173H76.8738L119.448 141.39H102.846L60.2717 73.3173Z" fill="#FF300F"/>
<path d="M119.448 73.3173H102.845L60.2714 141.39H76.8734L119.448 73.3173Z" fill="#FF300F"/>
</svg>
