<svg width="376" height="142" viewBox="0 0 376 142" fill="none" xmlns="http://www.w3.org/2000/svg">
<path d="M80.6249 0.699127H68.2703V11.3548H80.6249V0.699127Z" fill="white"/>
<path d="M65.3179 28.1582H13.1149V23.9232H65.2578V13.2675H0.845553L0.828613 38.2674H52.9628V42.3658H0.828613V53.2947H65.3179V28.1582Z" fill="white"/>
<path d="M228.851 2.01996H216.496V53.3858H228.851V2.01996Z" fill="white"/>
<path d="M309.998 13.3961H297.643V53.2953H309.998V13.3961Z" fill="white"/>
<path d="M80.6249 13.3961H68.2703V53.2953H80.6249V13.3961Z" fill="white"/>
<path d="M147.359 13.3961H83.3657V53.3407H95.7203V24.0517H135.005V53.2953H147.359V13.3961Z" fill="white"/>
<path d="M213.868 53.2953V42.3664H162.388V24.0517H213.868L213.885 13.3961H150.033V53.2953H213.868Z" fill="white"/>
<path d="M295.037 53.2953V13.3961H231.536V24.0517H282.682V28.1889H231.536V53.2953H295.037ZM282.682 42.3664H243.89V38.2681H282.682V42.3664Z" fill="white"/>
<path d="M309.998 0.699127H297.643V11.3095H309.998V0.699127Z" fill="white"/>
<path d="M313.081 13.3961V53.2953H325.435V24.0605H375.526V13.3961H313.081Z" fill="white"/>
<path d="M0.828613 141.91V129.887L36.0212 85.815H1.70727V73.745H53.7794V85.1676L18.1243 129.887H53.8719V141.91H0.828613Z" fill="white"/>
<path d="M186.677 141.91V73.745H200.829V141.91H186.677Z" fill="white"/>
<path d="M120.454 121.541C120.454 117.775 121.515 114.365 123.638 111.309C125.798 108.254 128.943 105.955 133.072 104.411C129.02 102.251 126.377 99.9207 125.142 97.4208C123.946 94.89 123.348 92.5289 123.348 90.3376C123.348 85.4612 125.644 81.31 130.236 77.8842C134.827 74.4275 141.31 72.6991 149.683 72.6991C158.056 72.6991 164.538 74.4275 169.13 77.8842C173.721 81.31 176.017 85.4612 176.017 90.3376C176.017 92.5289 175.4 94.89 174.165 97.4208C172.969 99.9207 170.345 102.097 166.294 103.948C170.422 105.8 173.529 108.254 175.612 111.309C177.696 114.365 178.738 117.775 178.738 121.541C178.738 127.189 176.114 132.003 170.866 135.985C165.657 139.935 158.364 141.91 148.988 141.91C139.612 141.91 132.512 139.935 127.689 135.985C122.866 132.003 120.454 127.189 120.454 121.541ZM137.586 120.661C137.586 123.963 138.647 126.525 140.77 128.346C142.93 130.167 145.901 131.077 149.683 131.077C153.464 131.077 156.416 130.167 158.538 128.346C160.699 126.525 161.779 123.963 161.779 120.661C161.779 117.235 160.68 114.643 158.48 112.883C156.319 111.093 153.387 110.198 149.683 110.198C145.979 110.198 143.027 111.093 140.827 112.883C138.667 114.643 137.586 117.235 137.586 120.661ZM139.091 91.819C139.091 94.2573 140.017 96.248 141.869 97.7911C143.76 99.3343 146.364 100.106 149.683 100.106C153.04 100.106 155.625 99.3343 157.438 97.7911C159.291 96.248 160.217 94.2573 160.217 91.819C160.217 89.1648 159.291 87.0969 157.438 85.6155C155.625 84.1032 153.04 83.347 149.683 83.347C146.364 83.347 143.76 84.1032 141.869 85.6155C140.017 87.0969 139.091 89.1648 139.091 91.819Z" fill="white"/>
<path d="M60.2717 73.8375H76.8738L119.448 141.91H102.846L60.2717 73.8375Z" fill="white"/>
<path d="M119.448 73.8375H102.846L60.2716 141.91H76.8737L119.448 73.8375Z" fill="white"/>
</svg>
