<svg width="475" height="139" viewBox="0 0 475 139" fill="none" xmlns="http://www.w3.org/2000/svg">
<path d="M332.956 138.001L384.957 80.5683C385.603 80.5683 386.248 80.5683 386.913 80.663H387.026C394.317 80.5494 399.766 76.9693 404.55 72.0823L419.017 57.6484C421.087 58.5197 423.27 58.8417 425.662 58.8417H445.692C449.831 58.8417 452.774 58.3114 456.039 55.2617C457.121 54.182 458.317 53.0834 459.514 52.0037C461.583 50.261 462.779 48.1016 463.216 45.9233C466.367 44.5216 469.31 42.3432 471.152 39.6345C476.05 32.7965 476.278 23.136 469.196 17.4912C465.931 14.8961 461.697 14.0249 457.444 14.0249H442.104C437.092 13.7028 433.845 16.6199 430.788 19.9916L430.029 20.7493L429.478 21.6206C428.7 22.7003 428.263 23.8937 428.054 25.087C426.422 24.4241 424.694 24.2157 422.947 24.2157H402.803C400.734 24.3104 398.892 24.8596 397.146 25.731C395.076 24.5376 392.589 24.102 389.969 24.102H375.502C375.185 24.102 374.872 24.1008 374.561 24.0995C371.894 24.089 369.43 24.0793 366.693 24.8596C365.592 25.1817 364.623 25.6174 363.636 26.1667C360.466 24.3293 356.763 24.2157 352.852 24.2157H309.964C306.926 24.2157 304.097 24.9733 301.477 26.2804C298.326 24.3293 294.718 24.2157 290.807 24.2157H250.216C247.159 24.2157 244.444 24.9733 242.052 26.2804C238.578 24.2157 235.084 24.2157 231.059 24.2157H188.513C185.57 24.2157 183.064 24.8596 180.994 26.053C180.766 25.9584 180.672 25.9584 180.558 25.8447C177.393 24.1799 174.602 24.1946 171.267 24.212C170.921 24.2139 170.569 24.2157 170.21 24.2157H158.231C155.838 24.2157 153.541 24.765 151.7 25.6363C150.276 24.8596 148.548 24.4241 146.801 24.2157H128.195C125.252 24.2157 122.746 24.8596 120.791 26.053C117.962 24.765 114.697 24.102 110.785 24.2157H73.4596C70.5169 24.2157 67.8969 24.9733 65.8275 26.1667C63.8719 25.2007 61.8025 24.5376 59.4103 24.3293C58.3613 24.1596 57.3015 24.1799 56.1996 24.2011C55.8259 24.2084 55.4473 24.2157 55.0626 24.2157H13.598C1.73194 24.2157 -3.92577 35.9408 3.023 44.8625C4.76962 47.0219 7.04796 49.2003 9.11737 51.1513L99.0334 137.262L99.8036 138.001H332.956Z" fill="black"/>
<path d="M457.33 24.0068C458.963 24.0068 461.128 24.2152 462.437 25.2001C465.171 27.4733 464.393 31.7163 462.457 34.5386C460.824 36.9254 457.235 38.5543 454.407 38.668H443.623C441.003 38.8764 437.528 44.3128 442.313 44.3128H451.787C453.305 44.4074 453.305 45.0704 452.432 45.8281C451.834 46.4248 451.208 47.0215 450.581 47.6182C449.954 48.2148 449.328 48.8115 448.73 49.4082C447.9 50.2206 447.231 50.2024 446.26 50.1761C446.157 50.1733 446.05 50.1704 445.94 50.1684L445.854 50.167C445.795 50.1663 445.735 50.1658 445.673 50.1658H425.643C424.447 50.1658 423.688 50.0522 423.251 49.7302C422.587 49.1998 422.701 48.3285 423.574 47.4571C425.15 45.8281 426.702 44.1706 428.254 42.5132C429.806 40.8558 431.358 39.1983 432.934 37.5693L433.094 37.4196C434.547 36.0583 435.862 34.8259 438.592 33.8757C440.338 33.3453 441.857 33.2316 443.604 33.2316H451.882C453.951 33.44 455.812 29.4243 453.628 28.6666H440.129C438.402 28.7802 437.851 28.1362 438.611 26.7156C440.034 24.9918 440.908 24.0068 441.667 24.0068H457.33Z" fill="#F8A740"/>
<path d="M234.896 132.473H264.15L287.808 66.4371C287.882 66.2174 287.956 66.0055 288.028 65.7998C288.488 64.4803 288.862 63.4103 288.681 62.0994C288.453 60.243 287.58 58.8413 285.302 58.292C284.354 58.0369 283.335 58.0552 282.3 58.0738L282.295 58.074C282.026 58.0788 281.756 58.0836 281.485 58.0836H265.481C265.337 58.0836 265.201 58.085 265.074 58.0863C264.039 58.0967 263.548 58.1016 263.734 57.326L264.816 53.1966C265.025 52.5525 265.367 52.4389 266.449 52.4389H287.884C289.934 52.4389 291.909 52.1169 292.991 50.1658C293.427 49.2945 293.75 48.4421 294.073 47.4571L296.256 40.9411C298.199 34.9299 295.523 34.9466 291.59 34.971L291.233 34.9731C291.092 34.9738 290.95 34.9743 290.807 34.9743H250.216C247.065 34.9743 244.331 37.5693 244.008 41.3767L242.261 65.5847C241.938 70.2444 244.445 73.7109 249.779 73.5025H264.588C264.265 76.3249 263.506 78.8252 259.69 79.3745H243.248C241.616 79.3745 241.084 80.1322 240.97 81.4392L234.896 132.473Z" fill="#F8A740"/>
<path d="M230.729 132.473L236.053 66.1151C236.061 66.0033 236.069 65.893 236.077 65.784L236.087 65.6614L236.103 65.4632L236.103 65.4601C236.21 64.1228 236.303 62.9707 235.844 61.6637C235.199 59.8263 233.888 58.292 231.382 57.7616C230.253 57.5061 229.206 57.5249 228.168 57.5435H228.166C228.037 57.5459 227.907 57.5482 227.778 57.55C227.638 57.5519 227.498 57.5532 227.357 57.5532H208.96C208.802 57.5532 208.656 57.5546 208.519 57.5559C207.425 57.5663 207.005 57.5704 207.005 56.7956V53.1019C207.005 52.4578 207.328 52.3442 208.429 52.3442H232.578C234.648 52.3442 236.603 52.0222 237.154 49.9575C237.363 48.9725 237.477 48.1201 237.591 47.1351L238.141 41.0547C238.641 34.93 235.786 34.9471 231.736 34.9712C231.477 34.9728 231.214 34.9743 230.946 34.9743H188.494C185.114 34.9743 184.032 37.683 184.678 41.2631L189.253 67.5358C189.27 67.6528 189.286 67.7669 189.301 67.8781L189.328 68.0775C189.479 69.2142 189.593 70.0654 190.449 71.0021C191.437 72.1955 192.955 72.9531 195.348 72.8395H218.643C219.08 75.7755 218.966 78.3706 215.169 78.9199H193.278C191.759 78.9199 191.323 79.7912 191.532 81.0983L200.563 132.473H230.729Z" fill="#F8A740"/>
<path d="M191.69 132.473L175.546 73.2941H181.089C184.032 73.2941 185.114 71.1158 184.678 68.5207C183.707 64.055 182.771 59.5894 181.834 55.1205L181.828 55.0914C181.082 51.5327 180.335 47.9719 179.571 44.4074C177.469 34.9884 176.466 35.0004 171.627 35.0588C171.221 35.0638 170.788 35.069 170.325 35.069H158.345C156.712 35.069 155.838 35.1826 156.275 36.698C157.214 40.196 158.223 43.5873 159.243 47.0164L159.245 47.0249C159.997 49.5537 160.755 52.1031 161.496 54.7309C162.047 56.1515 161.61 56.9092 160.3 56.9092H156.161C155.402 57.1176 154.965 56.4736 154.529 55.2802C153.198 51.9719 152.039 48.6928 150.88 45.4133L150.872 45.3907C149.751 42.2185 148.629 39.0458 147.352 35.8456C147.238 35.2963 146.706 35.088 145.833 34.9743H128.309C124.93 34.9743 125.158 37.4747 126.354 39.975L139.625 67.6683C141.144 70.9264 142.89 73.3131 146.592 73.3131H152.687L176.613 132.473H191.69Z" fill="#F8A740"/>
<path d="M165.406 132.473L123.088 44.3128C118.539 34.6437 114.577 34.7909 110.611 34.9382C110.126 34.9563 109.64 34.9743 109.153 34.9743H73.5737C70.1944 34.9743 69.5488 37.4747 71.5043 40.0697L78.9087 50.2795C80.1422 51.9205 81.763 51.9155 83.7551 51.9093C83.8786 51.9089 84.0035 51.9085 84.1298 51.9085H102.85C102.931 51.9085 103.052 51.9038 103.206 51.8978L103.209 51.8977C104.724 51.8384 109.44 51.6539 111.127 54.5225L123.639 75.3588C125.272 77.9728 123.639 78.2948 121.019 78.2948L120.764 78.2823C118.657 78.1792 117.611 78.1279 116.88 76.7794C114.972 73.957 113.178 71.1063 111.384 68.2555C109.589 65.4047 107.795 62.554 105.887 59.7316C104.463 57.5532 103.704 57.4585 101.312 57.4585C98.8482 57.4585 96.4135 57.4873 93.993 57.5158H93.9722C91.587 57.5441 89.2159 57.5722 86.8447 57.5722C85.6486 57.5722 85.0981 58.4435 85.5347 59.2012C85.9714 60.0726 86.0853 60.2809 86.9586 61.3795L138.489 132.473H165.406Z" fill="#F8A740"/>
<path fill-rule="evenodd" clip-rule="evenodd" d="M135.794 132.473C135.019 131.45 134.233 130.414 133.435 129.363C132.673 128.358 131.632 126.986 130.36 125.309L130.284 125.209C117.289 108.084 80.5753 59.6996 69.2071 44.3128C62.1694 34.8242 60.0138 34.8732 56.3002 34.9574H56.2967C56.035 34.9634 55.7655 34.9696 55.4861 34.9725C55.4261 34.9731 55.3657 34.9736 55.3046 34.9739C55.2559 34.9742 55.207 34.9743 55.1577 34.9743H13.7121C10.3326 34.9743 9.57315 37.4747 11.4337 39.975C12.4043 41.249 14.352 43.2086 15.9898 44.8565C16.1783 45.0461 16.3627 45.2316 16.5409 45.4114L103.582 132.473H135.794ZM54.9868 52.6662C55.8033 52.6662 56.2019 52.742 57.7208 54.5793L75.5294 76.0596C76.5355 77.2719 75.8711 78.0675 75.3015 78.0675C73.9915 78.0864 71.8651 78.1243 70.5741 78.1054C69.1122 78.0864 68.7134 77.7644 67.8022 76.7605L48.0382 54.7687C47.1458 53.7837 47.2597 52.6662 48.8925 52.6472L54.9868 52.6662Z" fill="#F8A740"/>
<path d="M328.634 132.473L379.945 73.2941H386.685C390.71 73.2941 393.653 70.9074 396.69 67.6494L422.815 40.0697C425.435 37.4747 426.745 34.9743 423.042 34.9743H403.772C402.785 35.088 402.025 35.2963 401.703 35.8456C398.931 39.1037 396.292 42.3333 393.653 45.5629C391.014 48.7926 388.375 52.0222 385.603 55.2802C384.521 56.4736 383.856 57.1176 383.097 56.9092H378.521C377.097 56.9092 377.002 56.1515 378.084 54.7309C380.65 51.1691 383.215 47.7514 385.781 44.3337C387.677 41.8079 389.573 39.282 391.469 36.698C392.551 35.1826 391.678 35.069 389.95 35.069H375.483C374.968 35.069 374.489 35.0638 374.041 35.0588C368.702 35.0004 367.669 34.9892 361.434 44.4074C358.628 48.6317 355.854 52.8559 353.078 57.0829L353.035 57.148C350.547 60.936 348.058 64.7262 345.543 68.5207C343.91 71.1347 344.233 73.2941 347.499 73.2941H355.017L312.144 132.473H328.634Z" fill="#F8A740"/>
<path d="M298.303 132.473L332.918 79.0525H317.027C315.508 79.0525 314.748 78.5032 314.748 77.7455L314.539 74.4875C314.438 73.8163 315.634 73.8288 316.739 73.8404H316.744L316.873 73.8418L316.973 73.8427C317.036 73.8431 317.098 73.8434 317.159 73.8434H336.202L342.296 64.505L344.916 60.1672C345.676 58.9739 345.03 57.6669 343.607 57.6669H327.697C326.273 57.6669 325.513 57.1176 325.513 56.3599L325.304 52.9882C325.304 52.4159 326.504 52.4269 327.544 52.4365L327.672 52.4376C327.758 52.4383 327.842 52.4389 327.924 52.4389H345.011C347.195 52.4389 349.359 52.1169 350.992 50.1658C351.65 49.4103 352.152 48.6547 352.694 47.8374L352.853 47.5989L352.947 47.4571L356.972 40.9411C360.644 34.9298 357.806 34.9466 353.659 34.9711C353.389 34.9727 353.113 34.9743 352.834 34.9743H310.059C306.679 34.9743 303.091 37.5883 301.781 41.3767C288.947 78.0865 285.131 88.713 285.131 88.713C284.202 91.0393 283.053 93.8661 281.472 97.7539L281.467 97.7683C278.614 104.786 274.357 115.257 267.459 132.473H298.303Z" fill="#F8A740"/>
<path fill-rule="evenodd" clip-rule="evenodd" d="M86.5286 68C79.0232 58.0489 72.5146 49.3819 68.7643 44.3059C61.7267 34.8174 59.5711 34.8663 55.8575 34.9506L55.8574 34.9506H55.8539L55.8512 34.9506L55.8508 34.9507L55.8506 34.9507C55.59 34.9566 55.3215 34.9627 55.0433 34.9656C54.9833 34.9663 54.9229 34.9668 54.8618 34.9671C54.8132 34.9674 54.7642 34.9675 54.7149 34.9675H13.2693C9.88982 34.9675 9.13037 37.4678 10.991 39.9682C11.9615 41.2422 13.9092 43.2018 15.547 44.8496C15.7355 45.0392 15.9199 45.2247 16.0981 45.4045L38.6883 68H59.4925L47.5954 54.7619C46.703 53.7769 46.817 52.6593 48.4497 52.6404L54.5441 52.6593C55.3605 52.6593 55.7592 52.7351 57.278 54.5725L68.4103 68H86.5286ZM184.123 68H139.342C139.289 67.8883 139.235 67.7754 139.182 67.6615L125.911 39.9682C124.715 37.4678 124.487 34.9675 127.867 34.9675H145.39C146.264 35.0811 146.795 35.2895 146.909 35.8388C148.186 39.038 149.307 42.2096 150.428 45.3809L150.429 45.3839L150.437 45.4064C151.597 48.686 152.756 51.965 154.086 55.2734C154.522 56.4667 154.959 57.1108 155.718 56.9024H159.857C161.167 56.9024 161.604 56.1447 161.053 54.7241C160.312 52.0963 159.554 49.5469 158.802 47.0181L158.8 47.0095C157.78 43.5805 156.772 40.1891 155.832 36.6912C155.396 35.1758 156.269 35.0621 157.902 35.0621H169.882C170.345 35.0621 170.778 35.0569 171.184 35.052C176.023 34.9936 177.026 34.9815 179.128 44.4006C179.893 47.9651 180.639 51.5259 181.385 55.0846L181.391 55.1136C182.292 59.4111 183.192 63.7056 184.123 68ZM235.458 68H188.876L188.859 67.8713C188.843 67.76 188.828 67.646 188.81 67.5289L184.235 41.2562C183.589 37.6762 184.672 34.9675 188.051 34.9675H230.503C230.771 34.9675 231.035 34.9659 231.293 34.9644H231.294C235.343 34.9403 238.198 34.9233 237.698 41.0479L237.148 47.1283C237.034 48.1133 236.92 48.9657 236.711 49.9507C236.161 52.0153 234.205 52.3374 232.136 52.3374H207.986C206.885 52.3374 206.562 52.451 206.562 53.095V56.7887C206.562 57.5635 206.982 57.5595 208.076 57.5491H208.076C208.213 57.5478 208.36 57.5464 208.518 57.5464H226.915C227.055 57.5464 227.195 57.5451 227.335 57.5432L227.459 57.5413L227.66 57.5378L227.722 57.5367L227.723 57.5367H227.725C228.763 57.518 229.81 57.4992 230.94 57.7548C233.446 58.2852 234.756 59.8194 235.401 61.6568C235.86 62.9639 235.767 64.1159 235.66 65.4533L235.66 65.4563L235.644 65.6546L235.634 65.7771C235.626 65.8861 235.618 65.9964 235.61 66.1082L235.458 68ZM286.803 68H241.925C241.795 67.2427 241.759 66.4302 241.818 65.5779L243.565 41.3699C243.888 37.5625 246.622 34.9675 249.773 34.9675H290.365C290.508 34.9675 290.649 34.967 290.79 34.9663L291.148 34.9642C295.08 34.9398 297.756 34.9231 295.813 40.9342L293.63 47.4503C293.307 48.4353 292.985 49.2877 292.548 50.159C291.466 52.11 289.491 52.432 287.441 52.432H266.006C264.924 52.432 264.582 52.5457 264.373 53.1898L263.291 57.3191C263.105 58.0948 263.596 58.0899 264.631 58.0794C264.758 58.0781 264.894 58.0768 265.038 58.0768H281.043C281.313 58.0768 281.583 58.072 281.852 58.0671L281.858 58.067H281.858C282.892 58.0484 283.911 58.03 284.859 58.2852C287.137 58.8345 288.01 60.2362 288.238 62.0925C288.419 63.4035 288.046 64.4734 287.585 65.7929C287.513 65.9987 287.439 66.2105 287.365 66.4302L286.803 68ZM339.568 68H292.006C294.384 61.2342 297.447 52.5012 301.338 41.3699C302.648 37.5815 306.237 34.9675 309.616 34.9675H352.391C352.66 34.9675 352.925 34.9659 353.186 34.9644L353.216 34.9643C357.363 34.9398 360.202 34.923 356.53 40.9342L352.505 47.4503L352.41 47.5921L352.252 47.8305L352.25 47.8332L352.249 47.8341L352.249 47.8347C351.707 48.6504 351.207 49.4047 350.549 50.159C348.916 52.11 346.752 52.432 344.569 52.432H327.482C327.399 52.432 327.315 52.4315 327.229 52.4308L327.101 52.4297C326.061 52.4201 324.862 52.4091 324.862 52.9814L325.07 56.3531C325.07 57.1107 325.83 57.6601 327.254 57.6601H343.164C344.588 57.6601 345.233 58.9671 344.474 60.1604L341.854 64.4982L339.568 68ZM395.911 68H345.441C347.84 64.3772 350.216 60.7582 352.592 57.1411L352.635 57.0761L352.642 57.0652L352.643 57.0649L352.643 57.0647C355.416 52.8415 358.188 48.6211 360.991 44.4006C367.226 34.9824 368.259 34.9936 373.598 35.052C374.046 35.0569 374.525 35.0621 375.041 35.0621H389.508C391.235 35.0621 392.109 35.1758 391.026 36.6912C389.13 39.2752 387.234 41.8011 385.338 44.3269C382.773 47.7446 380.207 51.1623 377.642 54.7241C376.559 56.1447 376.654 56.9024 378.078 56.9024H382.654C383.413 57.1108 384.078 56.4667 385.16 55.2734C387.932 52.0153 390.571 48.7857 393.21 45.5561C395.849 42.3265 398.488 39.0968 401.26 35.8388C401.582 35.2895 402.342 35.0811 403.329 34.9675H422.6C426.302 34.9675 424.992 37.4678 422.372 40.0629L396.248 67.6425C396.135 67.7629 396.023 67.8821 395.911 68ZM456.888 24H441.224C440.465 24 439.592 24.985 438.168 26.7087C437.408 28.1294 437.959 28.7734 439.687 28.6597H453.185C455.369 29.4174 453.508 33.4331 451.439 33.2248H443.161C441.414 33.2248 439.895 33.3385 438.149 33.8688C435.42 34.8191 434.104 36.0514 432.651 37.4128L432.491 37.5625C430.915 39.1915 429.363 40.8489 427.811 42.5064C426.259 44.1638 424.707 45.8212 423.131 47.4503C422.258 48.3216 422.144 49.193 422.808 49.7233C423.245 50.0453 424.004 50.159 425.201 50.159H445.23C445.292 50.159 445.352 50.1594 445.411 50.1602L445.497 50.1616C445.607 50.1636 445.714 50.1664 445.817 50.1692C446.788 50.1955 447.457 50.2137 448.287 49.4013C448.883 48.807 449.507 48.2127 450.131 47.6185L450.133 47.6167L450.135 47.6149L450.136 47.6131L450.138 47.6113L450.14 47.6093L450.141 47.609L450.141 47.6088L450.141 47.6085L450.141 47.6083L450.142 47.608L450.142 47.6078L450.142 47.6075L450.143 47.6073C450.768 47.0119 451.393 46.4166 451.989 45.8213C452.863 45.0636 452.863 44.4006 451.344 44.3059H441.87C437.086 44.3059 440.56 38.8695 443.18 38.6612H453.964C456.793 38.5475 460.381 36.9185 462.014 34.5318C463.95 31.7095 464.729 27.4664 461.995 25.1933C460.685 24.2083 458.52 24 456.888 24ZM134.019 68H118.781L110.685 54.5157C108.997 51.6471 104.281 51.8315 102.766 51.8908L102.763 51.891C102.609 51.897 102.488 51.9017 102.407 51.9017H83.687C83.5607 51.9017 83.4359 51.9021 83.3123 51.9024C81.3203 51.9086 79.6995 51.9136 78.466 50.2727L71.0615 40.0629C69.106 37.4678 69.7516 34.9675 73.1309 34.9675H108.71C109.197 34.9675 109.683 34.9494 110.169 34.9314C114.134 34.7841 118.096 34.6369 122.646 44.3059L134.019 68ZM110.784 68H91.3195L86.5159 61.3727C85.6426 60.2741 85.5286 60.0657 85.0919 59.1944C84.6553 58.4367 85.2058 57.5654 86.4019 57.5654C88.7706 57.5654 91.1392 57.5373 93.5218 57.5091H93.5221H93.5224H93.5226H93.5229H93.5232L93.5294 57.509H93.5502C95.9707 57.4804 98.4054 57.4517 100.869 57.4517C103.261 57.4517 104.021 57.5464 105.445 59.7248C107.297 62.4651 109.042 65.2321 110.784 68Z" fill="#F57E25"/>
<path fill-rule="evenodd" clip-rule="evenodd" d="M234.576 79L235.458 68H188.876L188.885 68.0707V68.0708C189.037 69.2074 189.15 70.0586 190.007 70.9953C190.994 72.1886 192.513 72.9463 194.905 72.8327H218.2C218.637 75.7687 218.523 78.3638 214.726 78.9131H192.835C192.554 78.9131 192.31 78.943 192.1 79H234.576ZM176.661 79L175.103 73.2873H180.647C183.589 73.2873 184.672 71.1089 184.235 68.5139C184.198 68.3426 184.161 68.1713 184.123 68H139.342C140.825 71.0835 142.577 73.3062 146.15 73.3062H152.244L154.547 79H176.661ZM139.299 79L134.019 68H118.781L123.196 75.352C124.829 77.966 123.196 78.288 120.576 78.288L120.321 78.2754C118.215 78.1723 117.168 78.1211 116.437 76.7726C114.529 73.9502 112.735 71.0995 110.941 68.2487C110.889 68.1658 110.836 68.0829 110.784 68H91.3195L99.2926 79H139.299ZM94.8349 79C91.9928 75.2401 89.1977 71.5388 86.5286 68H68.4103L75.0866 76.0528C76.0928 77.2651 75.4283 78.0606 74.8588 78.0606L74.3102 78.0688C73.0101 78.0885 71.2545 78.115 70.1314 78.0985C68.6694 78.0796 68.2707 77.7576 67.3594 76.7537L59.4925 68H38.6883L49.6858 79H94.8349ZM241.925 68C242.507 71.3828 244.978 73.6659 249.337 73.4956H264.146C263.871 75.8995 263.279 78.0699 260.752 79H282.862L286.803 68H241.925ZM292.006 68C290.427 72.4917 289.149 76.1163 288.131 79H315.877C314.829 78.8535 314.305 78.3679 314.305 77.7387L314.097 74.4806C313.996 73.8095 315.191 73.822 316.297 73.8336H316.302L316.431 73.8349L316.53 73.8358C316.593 73.8363 316.655 73.8366 316.717 73.8366H335.759L339.568 68H292.006ZM345.441 68C345.327 68.1713 345.214 68.3426 345.1 68.5139C343.467 71.1279 343.79 73.2873 347.056 73.2873H354.574L350.435 79H374.549L379.502 73.2873H386.242C390.118 73.2873 392.991 71.0737 395.911 68L345.441 68Z" fill="#F57E25"/>
<path fill-rule="evenodd" clip-rule="evenodd" d="M239.508 90H278.921L282.862 79H260.752C260.312 79.1619 259.813 79.2863 259.247 79.3677H242.806C241.173 79.3677 240.641 80.1254 240.527 81.4324L239.508 90ZM233.693 90L234.576 79H192.1C191.177 79.2508 190.919 80.0265 191.089 81.0914L192.655 90H233.693ZM179.662 90L176.661 79H154.547L158.996 90H179.662ZM144.579 90L139.299 79H99.2926L107.266 90H144.579ZM103.156 90C100.386 86.3412 97.5886 82.6431 94.8349 79H49.6858L60.6832 90H103.156ZM288.131 79C285.625 86.0974 284.688 88.7061 284.688 88.7061C284.523 89.1205 284.35 89.5507 284.17 90H325.377L332.475 79.0457H316.584C316.326 79.0457 316.091 79.0299 315.877 79H288.131ZM350.435 79L342.466 90H365.011L374.549 79H350.435Z" fill="#F68E30"/>
<path fill-rule="evenodd" clip-rule="evenodd" d="M238.198 101H274.98L278.921 90H239.508L238.198 101ZM232.811 101L233.693 90H192.655L194.589 101H232.811ZM182.663 101L179.662 90H158.996L163.444 101H182.663ZM149.859 101L144.579 90H107.266L115.239 101H149.859ZM111.487 101C108.791 97.4417 105.988 93.7414 103.156 90H60.6832L71.6806 101H111.487ZM284.17 90C283.336 92.0731 282.329 94.5517 281.03 97.7471L281.024 97.7614C280.615 98.7668 280.178 99.8431 279.708 101H318.249L325.377 90H284.17ZM342.466 90L334.497 101H355.474L365.011 90H342.466Z" fill="#F7A03C"/>
<path fill-rule="evenodd" clip-rule="evenodd" d="M236.889 112H271.04L274.98 101H238.198L236.889 112ZM231.928 112L232.811 101H194.589L196.522 112H231.928ZM185.664 112L182.663 101H163.444L167.893 112H185.664ZM155.139 112L149.859 101H115.239L123.212 112H155.139ZM119.826 112C117.239 108.589 114.426 104.879 111.487 101H71.6806L82.678 112H119.826ZM279.708 101C278.469 104.048 277.005 107.656 275.25 112H311.121L318.249 101H279.708ZM334.497 101L326.528 112H345.936L355.474 101H334.497Z" fill="#F9AE45"/>
<path fill-rule="evenodd" clip-rule="evenodd" d="M235.58 123H267.099L271.04 112H236.889L235.58 123ZM231.046 123L231.928 112H196.523L198.456 123H231.046ZM188.665 123L185.664 112H167.893L172.342 123H188.665ZM160.42 123L155.139 112H123.212L131.185 123H160.42ZM128.17 123C125.857 119.951 123.013 116.203 119.826 112H82.678L93.6755 123H128.17ZM275.25 112C273.942 115.234 272.474 118.876 270.816 123H303.993L311.121 112H275.25ZM326.528 112L318.559 123H336.398L345.936 112H326.528Z" fill="#FAC051"/>
<path fill-rule="evenodd" clip-rule="evenodd" d="M263.708 132.466H234.453L235.58 123H267.099L263.708 132.466ZM270.816 123C269.646 125.908 268.383 129.054 267.016 132.466H297.86L303.993 123H270.816ZM318.559 123L311.701 132.466H328.191L336.398 123H318.559ZM93.6755 123L103.139 132.466H135.351C134.577 131.444 133.79 130.407 132.993 129.356C132.23 128.351 131.189 126.979 129.917 125.302L129.842 125.203C129.321 124.517 128.763 123.782 128.17 123H93.6755ZM131.185 123L138.046 132.466H164.963L160.42 123H131.185ZM172.342 123L176.17 132.466H191.247L188.665 123H172.342ZM198.456 123L200.12 132.466H230.287L231.046 123H198.456Z" fill="#FCD35E"/>
<path fill-rule="evenodd" clip-rule="evenodd" d="M85.7752 0.00170898C81.5155 0.00170898 78.0634 3.45435 78.0634 7.71402C78.0634 11.9737 81.5155 15.4263 85.7752 15.4263C90.0348 15.4263 93.4881 11.9737 93.4881 7.71402C93.4881 3.45493 90.0348 0.00170898 85.7752 0.00170898ZM85.7752 11.6383C85.2599 11.6383 84.7496 11.5368 84.2735 11.3396C83.7974 11.1423 83.3649 10.8533 83.0005 10.4889C82.6361 10.1245 82.3471 9.69184 82.15 9.21573C81.9528 8.73962 81.8514 8.22933 81.8515 7.71402C81.8515 6.93784 82.0816 6.1791 82.5129 5.53375C82.9441 4.88839 83.557 4.38541 84.2741 4.08841C84.9912 3.79141 85.7803 3.71373 86.5415 3.86519C87.3028 4.01666 88.002 4.39047 88.5508 4.93934C89.0996 5.48822 89.4733 6.18751 89.6247 6.94878C89.776 7.71006 89.6982 8.49911 89.4011 9.21617C89.104 9.93323 88.601 10.5461 87.9555 10.9772C87.3101 11.4083 86.5513 11.6384 85.7752 11.6383V11.6383ZM23.728 0.418497H20.7303L15.3496 14.2146V0.418497H10.6904L7.65689 9.01402L4.62334 0.418497H0V15.009H3.61139V7.13617L6.39267 15.0095H8.92053L11.7012 7.10038V15.0095H19.0689L19.7911 12.9146H24.7521L25.461 15.0095H29.5781L23.728 0.418497ZM20.7309 10.0254L22.2116 5.40263L23.7644 10.0254H20.7309V10.0254ZM76.0609 0.418497L72.9904 9.59187L69.8125 0.418497H65.9835L71.004 15.0095H74.7234L79.6001 0.418497H76.0609V0.418497Z" fill="white"/>
<path fill-rule="evenodd" clip-rule="evenodd" d="M99.969 7.92936L104.592 0.417365H100.62L97.9099 4.82366L95.0213 0.417365H91.0485L95.6707 7.42367L91.0121 15.0084H94.9855L97.7298 10.4936L100.728 15.0084H104.7L99.969 7.92936V7.92936ZM63.9619 0.417365H60.9642L55.7272 13.8521V0.417365H51.9715V8.14641L46.5174 0.417365H43.2311V7.21297C43.2039 7.03864 43.171 6.86603 43.1485 6.69747H34.5091V9.59016H38.9529C38.6157 10.2107 38.1169 10.7285 37.5094 11.0888C36.9019 11.449 36.2083 11.6383 35.502 11.6366C34.4612 11.6366 33.4631 11.2231 32.7271 10.4872C31.9912 9.75124 31.5777 8.75309 31.5777 7.71231C31.5777 6.67153 31.9912 5.67337 32.7271 4.93743C33.4631 4.20149 34.4612 3.78804 35.502 3.78804C36.5717 3.78804 37.5415 4.20194 38.2492 4.89639L42.6821 4.8912C41.5558 2.02737 38.7653 0 35.502 0C31.2429 0 27.7897 3.45264 27.7897 7.71231C27.7897 11.972 31.2429 15.4246 35.502 15.4246C39.4759 15.4246 42.8021 12.428 43.2305 8.56724V15.0072H46.9868V7.64073L52.2237 15.0084H59.3392L59.9886 12.9135H64.9866L65.6949 15.0084H69.8125L63.9619 0.417365ZM60.9636 10.0243L62.4437 5.4015L63.9971 10.0243H60.9636ZM107.65 0.684066C107.54 0.571561 107.409 0.482658 107.263 0.422804C107.118 0.362951 106.962 0.333404 106.804 0.335971C106.477 0.335971 106.195 0.452004 105.963 0.684066C105.731 0.917283 105.614 1.19784 105.614 1.52572C105.614 1.85765 105.73 2.13936 105.962 2.37257C106.193 2.60694 106.475 2.72355 106.805 2.72355C107.135 2.72355 107.418 2.60637 107.651 2.37257C107.883 2.1382 108 1.85592 108 1.52572C108 1.19668 107.883 0.916128 107.65 0.684066V0.684066ZM107.531 2.2577C107.331 2.45917 107.09 2.55961 106.804 2.55961C106.519 2.55961 106.277 2.45859 106.077 2.2577C105.981 2.16213 105.905 2.04798 105.854 1.92216C105.803 1.79633 105.778 1.66146 105.78 1.52572C105.78 1.24171 105.88 0.99983 106.079 0.799518C106.173 0.702154 106.286 0.625068 106.411 0.573036C106.535 0.521004 106.669 0.495134 106.804 0.497028C107.088 0.497028 107.33 0.598051 107.531 0.799518C107.73 0.99983 107.831 1.24228 107.831 1.52572C107.831 1.81205 107.73 2.05623 107.531 2.2577Z" fill="white"/>
<path fill-rule="evenodd" clip-rule="evenodd" d="M107.336 2.16118C107.33 2.15079 107.326 2.1277 107.324 2.09306C107.322 2.05843 107.321 2.0261 107.321 1.9955V1.89968C107.321 1.83329 107.297 1.76575 107.25 1.69648C107.202 1.62721 107.127 1.58449 107.023 1.56775C107.09 1.56004 107.155 1.53862 107.213 1.50483C107.299 1.44941 107.342 1.3634 107.342 1.24621C107.342 1.08111 107.274 0.970852 107.139 0.91428C107.063 0.88253 106.944 0.866943 106.781 0.866943H106.322V2.17735H106.553V1.66011H106.735C106.858 1.66011 106.943 1.67397 106.991 1.70225C107.074 1.75074 107.116 1.85119 107.116 2.00301V2.10749L107.12 2.14963L107.124 2.16407L107.127 2.17677H107.342L107.336 2.16118V2.16118ZM106.982 1.47077C106.933 1.4904 106.86 1.49963 106.762 1.49963H106.554V1.02512H106.751C106.879 1.02512 106.972 1.04128 107.03 1.07418C107.088 1.10651 107.117 1.17059 107.117 1.26584C107.117 1.36686 107.072 1.43498 106.982 1.47077V1.47077Z" fill="white"/>
</svg>
