<svg width="475" height="138" viewBox="0 0 475 138" fill="none" xmlns="http://www.w3.org/2000/svg">
<path fill-rule="evenodd" clip-rule="evenodd" d="M85.7752 0.00170898C81.5155 0.00170898 78.0634 3.45435 78.0634 7.71402C78.0634 11.9737 81.5155 15.4263 85.7752 15.4263C90.0348 15.4263 93.4881 11.9737 93.4881 7.71402C93.4881 3.45493 90.0348 0.00170898 85.7752 0.00170898ZM85.7752 11.6383C85.2599 11.6383 84.7496 11.5368 84.2735 11.3396C83.7974 11.1423 83.3649 10.8533 83.0005 10.4889C82.6361 10.1245 82.3471 9.69184 82.15 9.21573C81.9528 8.73962 81.8514 8.22933 81.8515 7.71402C81.8515 6.93784 82.0816 6.1791 82.5129 5.53375C82.9441 4.88839 83.557 4.38541 84.2741 4.08841C84.9912 3.79141 85.7803 3.71373 86.5415 3.86519C87.3028 4.01666 88.002 4.39047 88.5508 4.93934C89.0996 5.48822 89.4733 6.18751 89.6247 6.94878C89.776 7.71006 89.6982 8.49911 89.4011 9.21617C89.104 9.93323 88.601 10.5461 87.9555 10.9772C87.3101 11.4083 86.5513 11.6384 85.7752 11.6383V11.6383ZM23.728 0.418497H20.7303L15.3496 14.2146V0.418497H10.6904L7.65689 9.01402L4.62334 0.418497H0V15.009H3.61139V7.13617L6.39267 15.0095H8.92053L11.7012 7.10038V15.0095H19.0689L19.7911 12.9146H24.7521L25.461 15.0095H29.5781L23.728 0.418497ZM20.7309 10.0254L22.2116 5.40263L23.7644 10.0254H20.7309V10.0254ZM76.0609 0.418497L72.9904 9.59187L69.8125 0.418497H65.9835L71.004 15.0095H74.7234L79.6001 0.418497H76.0609V0.418497Z" fill="white"/>
<path fill-rule="evenodd" clip-rule="evenodd" d="M99.969 7.92936L104.592 0.417365H100.62L97.9099 4.82366L95.0212 0.417365H91.0485L95.6707 7.42367L91.0121 15.0084H94.9855L97.7298 10.4936L100.728 15.0084H104.7L99.969 7.92936V7.92936ZM63.9619 0.417365H60.9641L55.7272 13.8521V0.417365H51.9714V8.14641L46.5174 0.417365H43.231V7.21297C43.2039 7.03864 43.171 6.86603 43.1485 6.69747H34.5091V9.59016H38.9529C38.6156 10.2107 38.1168 10.7285 37.5094 11.0888C36.9019 11.449 36.2083 11.6383 35.502 11.6366C34.4612 11.6366 33.463 11.2231 32.7271 10.4872C31.9912 9.75124 31.5777 8.75309 31.5777 7.71231C31.5777 6.67153 31.9912 5.67337 32.7271 4.93743C33.463 4.20149 34.4612 3.78804 35.502 3.78804C36.5717 3.78804 37.5415 4.20194 38.2492 4.89639L42.682 4.8912C41.5558 2.02737 38.7653 0 35.502 0C31.2429 0 27.7897 3.45264 27.7897 7.71231C27.7897 11.972 31.2429 15.4246 35.502 15.4246C39.4759 15.4246 42.8021 12.428 43.2305 8.56724V15.0072H46.9867V7.64073L52.2237 15.0084H59.3391L59.9886 12.9135H64.9865L65.6949 15.0084H69.8125L63.9619 0.417365ZM60.9636 10.0243L62.4437 5.4015L63.9971 10.0243H60.9636ZM107.65 0.684066C107.54 0.571561 107.409 0.482658 107.263 0.422804C107.118 0.362951 106.962 0.333404 106.804 0.335971C106.477 0.335971 106.195 0.452004 105.963 0.684066C105.731 0.917283 105.614 1.19784 105.614 1.52572C105.614 1.85765 105.73 2.13936 105.962 2.37257C106.193 2.60694 106.475 2.72355 106.805 2.72355C107.135 2.72355 107.418 2.60637 107.651 2.37257C107.883 2.1382 108 1.85592 108 1.52572C108 1.19668 107.883 0.916128 107.65 0.684066V0.684066ZM107.531 2.2577C107.331 2.45917 107.09 2.55961 106.804 2.55961C106.519 2.55961 106.277 2.45859 106.077 2.2577C105.981 2.16213 105.905 2.04798 105.854 1.92216C105.803 1.79633 105.778 1.66146 105.78 1.52572C105.78 1.24171 105.88 0.99983 106.079 0.799518C106.173 0.702154 106.286 0.625068 106.411 0.573036C106.535 0.521004 106.669 0.495134 106.804 0.497028C107.088 0.497028 107.33 0.598051 107.531 0.799518C107.73 0.99983 107.831 1.24228 107.831 1.52572C107.831 1.81205 107.73 2.05623 107.531 2.2577Z" fill="white"/>
<path fill-rule="evenodd" clip-rule="evenodd" d="M107.335 2.1613C107.33 2.15091 107.326 2.12782 107.324 2.09318C107.322 2.05855 107.32 2.02622 107.32 1.99563V1.8998C107.32 1.83341 107.297 1.76587 107.249 1.6966C107.202 1.62733 107.127 1.58461 107.023 1.56787C107.09 1.56016 107.155 1.53874 107.213 1.50495C107.299 1.44953 107.342 1.36352 107.342 1.24633C107.342 1.08124 107.274 0.970974 107.139 0.914402C107.063 0.882652 106.944 0.867065 106.781 0.867065H106.322V2.17747H106.553V1.66023H106.735C106.858 1.66023 106.943 1.67409 106.991 1.70238C107.074 1.75087 107.116 1.85131 107.116 2.00313V2.10762L107.12 2.14976L107.124 2.16419L107.127 2.17689H107.342L107.335 2.1613V2.1613ZM106.982 1.47089C106.933 1.49052 106.86 1.49975 106.762 1.49975H106.554V1.02524H106.751C106.879 1.02524 106.972 1.0414 107.03 1.07431C107.088 1.10663 107.117 1.17071 107.117 1.26596C107.117 1.36698 107.072 1.4351 106.982 1.47089V1.47089Z" fill="white"/>
<path d="M57.7204 54.579C56.2015 52.7416 55.8028 52.6658 54.9864 52.6658L48.8921 52.6469C47.2594 52.6658 47.1454 53.7834 48.0378 54.7684L67.8016 76.76C68.7129 77.7639 69.1117 78.0859 70.5736 78.1048C71.6966 78.1213 73.4517 78.0948 74.7518 78.0751L75.301 78.067C75.8705 78.067 76.535 77.2714 75.5288 76.0591L57.7204 54.579Z" fill="white"/>
<path fill-rule="evenodd" clip-rule="evenodd" d="M384.954 80.5678L332.953 138H99.8028L99.0326 137.261L9.1173 51.151C7.0479 49.2 4.76959 47.0217 3.02298 44.8623C-3.92574 35.9406 1.73193 24.2156 13.5979 24.2156H55.0622C55.4468 24.2156 55.8253 24.2083 56.199 24.2011C57.3009 24.1799 58.3608 24.1595 59.4099 24.3292C61.8021 24.5375 63.8714 25.2006 65.827 26.1666C67.8964 24.9732 70.5164 24.2156 73.4591 24.2156H110.785C114.696 24.102 117.961 24.7649 120.79 26.053C122.745 24.8596 125.252 24.2156 128.194 24.2156H146.8C148.547 24.424 150.274 24.8596 151.698 25.6363C153.54 24.7649 155.837 24.2156 158.229 24.2156H170.209C170.568 24.2156 170.92 24.2138 171.266 24.212C174.6 24.1945 177.391 24.1799 180.556 25.8446C180.635 25.923 180.704 25.9473 180.815 25.9859C180.864 26.0033 180.922 26.0236 180.993 26.053C183.062 24.8596 185.568 24.2156 188.511 24.2156H231.058C235.083 24.2156 238.576 24.2156 242.05 26.2803C244.442 24.9732 247.157 24.2156 250.214 24.2156H290.805C294.716 24.2156 298.323 24.3292 301.475 26.2803C304.095 24.9732 306.924 24.2156 309.961 24.2156H352.85C356.761 24.2156 360.463 24.3292 363.633 26.1666C364.621 25.6173 365.589 25.1816 366.69 24.8596C369.428 24.0792 371.891 24.0889 374.558 24.0994C374.868 24.1007 375.182 24.102 375.499 24.102H389.966C392.586 24.102 395.073 24.5375 397.143 25.7309C398.889 24.8596 400.731 24.3103 402.8 24.2156H422.944C424.691 24.2156 426.418 24.424 428.051 25.0869C428.26 23.8936 428.697 22.7002 429.475 21.6205L430.026 20.7492L430.785 19.9915C433.842 16.6199 437.088 13.7028 442.1 14.0249H457.441C461.693 14.0249 465.927 14.8961 469.193 17.4912C476.274 23.1359 476.046 32.7963 471.148 39.6343C469.307 42.343 466.364 44.5213 463.212 45.923C462.776 48.1013 461.58 50.2607 459.51 52.0034C458.314 53.0831 457.118 54.1817 456.036 55.2614C452.77 58.311 449.827 58.8414 445.689 58.8414H425.659C423.267 58.8414 421.083 58.5194 419.014 57.6481L404.547 72.0818C399.763 76.9688 394.314 80.5489 387.024 80.6625H386.91C386.245 80.5678 385.6 80.5678 384.954 80.5678ZM462.434 25.2C461.124 24.2151 458.96 24.0067 457.327 24.0067H441.664C440.904 24.0067 440.031 24.9917 438.607 26.7154C437.848 28.1361 438.398 28.7801 440.126 28.6664H453.625C455.808 29.4241 453.948 33.4398 451.878 33.2315H443.6C441.854 33.2315 440.335 33.3451 438.588 33.8755C435.859 34.8257 434.544 36.0581 433.091 37.4194L432.931 37.5691C431.355 39.1981 429.803 40.8555 428.251 42.513C426.699 44.1704 425.147 45.8278 423.571 47.4568C422.697 48.3282 422.583 49.1995 423.248 49.7299C423.685 50.0519 424.444 50.1655 425.64 50.1655H445.67C445.731 50.1655 445.791 50.166 445.85 50.1667L445.937 50.1681C446.047 50.1701 446.153 50.173 446.256 50.1758C447.227 50.2021 447.896 50.2203 448.726 49.4079C449.325 48.8112 449.951 48.2145 450.578 47.6179L450.581 47.6149C451.206 47.0192 451.832 46.4235 452.429 45.8279C453.302 45.0702 453.302 44.4072 451.783 44.3125H442.309C437.525 44.3125 440.999 38.8761 443.619 38.6678H454.403C457.232 38.5541 460.82 36.9251 462.453 34.5384C464.39 31.7161 465.168 27.4731 462.434 25.2ZM264.148 132.472H234.894L240.968 81.4387C241.082 80.1317 241.614 79.374 243.247 79.374H259.688C263.504 78.8247 264.263 76.3243 264.586 73.502H249.778C244.443 73.7104 241.937 70.244 242.259 65.5843L244.006 41.3765C244.329 37.5691 247.063 34.9741 250.214 34.9741H290.805C290.948 34.9741 291.09 34.9736 291.23 34.9729L291.588 34.9708C295.521 34.9464 298.197 34.9298 296.254 40.9408L294.071 47.4568C293.748 48.4418 293.425 49.2942 292.989 50.1655C291.906 52.1165 289.932 52.4386 287.881 52.4386H266.447C265.365 52.4386 265.023 52.5522 264.814 53.1963L263.732 57.3256C263.546 58.1013 264.037 58.0964 265.072 58.0859C265.199 58.0846 265.335 58.0832 265.479 58.0832H281.483C281.754 58.0832 282.024 58.0784 282.293 58.0736L282.298 58.0735C283.332 58.0549 284.352 58.0365 285.299 58.2916C287.578 58.841 288.451 60.2426 288.679 62.099C288.859 63.4099 288.486 64.4799 288.026 65.7994C287.954 66.0051 287.88 66.2169 287.806 66.4366L264.148 132.472ZM230.728 132.472L236.051 66.1146C236.059 66.0028 236.067 65.8925 236.075 65.7835L236.085 65.661L236.101 65.4627L236.101 65.4597C236.208 64.1224 236.301 62.9703 235.842 61.6633C235.197 59.8259 233.887 58.2916 231.381 57.7612C230.251 57.5057 229.205 57.5245 228.166 57.5431H228.164C228.035 57.5455 227.906 57.5479 227.776 57.5497C227.636 57.5516 227.496 57.5529 227.356 57.5529H208.959C208.801 57.5529 208.654 57.5543 208.518 57.5556C207.424 57.5659 207.003 57.5699 207.003 56.7952V53.1015C207.003 52.4575 207.326 52.3439 208.427 52.3439H232.577C234.646 52.3439 236.602 52.0219 237.152 49.9572C237.361 48.9722 237.475 48.1198 237.589 47.1348L238.139 41.0545C238.639 34.9298 235.784 34.9469 231.734 34.971C231.476 34.9726 231.212 34.9741 230.944 34.9741H188.492C185.113 34.9741 184.031 37.6828 184.676 41.2628L189.252 67.5353C189.269 67.6524 189.285 67.7664 189.3 67.8777L189.327 68.0771C189.478 69.2137 189.591 70.065 190.448 71.0017C191.435 72.195 192.954 72.9527 195.346 72.839H218.641C219.078 75.775 218.964 78.3701 215.167 78.9194H193.277C191.758 78.9194 191.321 79.7907 191.53 81.0977L200.562 132.472H230.728ZM175.544 73.2936L191.688 132.472H176.611L152.686 73.3126H146.591C142.889 73.3126 141.143 70.9259 139.624 67.6679L126.353 39.9748C125.157 37.4745 124.929 34.9741 128.308 34.9741H145.832C146.705 35.0878 147.237 35.2961 147.351 35.8454C148.628 39.0444 149.749 42.2158 150.869 45.3867L150.87 45.3904L150.879 45.413C152.038 48.6925 153.197 51.9715 154.527 55.2799C154.964 56.4732 155.401 57.1172 156.16 56.9089H160.299C161.609 56.9089 162.046 56.1512 161.495 54.7306C160.754 52.1028 159.996 49.5534 159.244 47.0246L159.241 47.0161C158.222 43.5871 157.213 40.1957 156.274 36.6978C155.837 35.1824 156.711 35.0688 158.343 35.0688H170.323C170.786 35.0688 171.22 35.0636 171.626 35.0587C176.464 35.0002 177.467 34.9882 179.569 44.4072C180.334 47.9716 181.081 51.5324 181.826 55.091L181.833 55.1201C182.769 59.589 183.705 64.0546 184.676 68.5203C185.113 71.1153 184.031 73.2936 181.088 73.2936H175.544ZM165.405 132.472L123.087 44.3125C118.538 34.6435 114.576 34.7907 110.611 34.938C110.125 34.9561 109.639 34.9741 109.152 34.9741H73.5732C70.1938 34.9741 69.5482 37.4745 71.5038 40.0695L78.9081 50.2792C80.1416 51.9201 81.7624 51.9151 83.7545 51.909C83.878 51.9086 84.0028 51.9082 84.1291 51.9082H102.849C102.93 51.9082 103.051 51.9035 103.205 51.8975L103.208 51.8973C104.723 51.838 109.439 51.6536 111.127 54.5222L123.638 75.3583C125.271 77.9723 123.638 78.2943 121.018 78.2943L120.763 78.2818C118.656 78.1786 117.61 78.1274 116.879 76.7789C114.971 73.9566 113.177 71.1058 111.383 68.2551C109.589 65.4043 107.795 62.5536 105.887 59.7312C104.463 57.5529 103.703 57.4582 101.311 57.4582C98.8474 57.4582 96.4127 57.4869 93.9923 57.5155H93.9715L93.9662 57.5155C91.5828 57.5438 89.2134 57.5718 86.844 57.5718C85.6479 57.5718 85.0974 58.4432 85.5341 59.2008C85.9707 60.0722 86.0847 60.2805 86.958 61.3791L138.488 132.472H165.405ZM133.434 129.362C134.232 130.413 135.018 131.449 135.793 132.472H103.581L16.5408 45.4111C16.3625 45.2313 16.1782 45.0458 15.9897 44.8562C14.3518 43.2084 12.4042 41.2488 11.4336 39.9748C9.57308 37.4745 10.3325 34.9741 13.712 34.9741H55.1573C55.2065 34.9741 55.2555 34.974 55.3042 34.9737C55.3652 34.9734 55.4257 34.9729 55.4857 34.9723C55.7637 34.9694 56.0321 34.9633 56.2926 34.9573L56.2936 34.9573L56.2963 34.9572H56.2998C60.0133 34.873 62.169 34.8241 69.2066 44.3125C80.5747 59.6992 117.288 108.083 130.283 125.209L130.359 125.308C131.631 126.985 132.672 128.357 133.434 129.362ZM328.631 132.472L379.942 73.2936H386.682C390.707 73.2936 393.65 70.9069 396.687 67.6489L422.811 40.0695C425.431 37.4745 426.741 34.9741 423.039 34.9741H403.769C402.782 35.0878 402.022 35.2961 401.7 35.8454C398.928 39.1034 396.289 42.3331 393.65 45.5627C391.011 48.7923 388.372 52.0219 385.6 55.2799C384.518 56.4732 383.853 57.1172 383.094 56.9089H378.518C377.094 56.9089 376.999 56.1512 378.082 54.7306C380.647 51.1688 383.213 47.7511 385.778 44.3335C387.674 41.8077 389.57 39.2818 391.466 36.6978C392.548 35.1824 391.675 35.0688 389.947 35.0688H375.48C374.965 35.0688 374.486 35.0636 374.038 35.0587C368.699 35.0002 367.666 34.989 361.431 44.4072C358.629 48.6265 355.858 52.8459 353.085 57.068L353.083 57.0716L353.075 57.0825L353.032 57.1476C350.544 60.9356 348.055 64.7258 345.54 68.5203C343.908 71.1342 344.23 73.2936 347.496 73.2936H355.014L312.142 132.472H328.631ZM332.915 79.052L298.3 132.472H267.457C274.355 115.256 278.612 104.785 281.464 97.7676L281.47 97.7533C283.051 93.8654 284.2 91.0387 285.129 88.7124C285.129 88.7124 288.945 78.0859 301.779 41.3765C303.089 37.5881 306.677 34.9741 310.057 34.9741H352.831C353.099 34.9741 353.364 34.9726 353.624 34.9711L353.656 34.9709C357.803 34.9464 360.642 34.9297 356.97 40.9408L352.945 47.4568L352.85 47.5987L352.692 47.8371L352.69 47.8402C352.148 48.6561 351.647 49.4111 350.989 50.1655C349.356 52.1165 347.192 52.4386 345.009 52.4386H327.922C327.84 52.4386 327.755 52.438 327.669 52.4373L327.541 52.4362C326.501 52.4266 325.302 52.4156 325.302 52.9879L325.511 56.3595C325.511 57.1172 326.27 57.6666 327.694 57.6666H343.604C345.028 57.6666 345.673 58.9735 344.914 60.1669L342.294 64.5046L336.2 73.8429H317.157C317.096 73.8429 317.033 73.8426 316.971 73.8422L316.871 73.8413L316.742 73.8399H316.737C315.631 73.8283 314.436 73.8158 314.537 74.487L314.746 77.745C314.746 78.5027 315.505 79.052 317.024 79.052H332.915Z" fill="white"/>
</svg>
