<?xml version="1.0" encoding="UTF-8"?>
<svg width="480px" height="139px" viewBox="0 0 480 139" version="1.1" xmlns="http://www.w3.org/2000/svg" xmlns:xlink="http://www.w3.org/1999/xlink">
    <title>mainlogo</title>
    <g id="Page-1" stroke="none" stroke-width="1" fill="none" fill-rule="evenodd">
        <g id="mainlogo">
            <g id="Group-14" transform="translate(3.996667, 40.693335)" fill="#EAB82A" stroke="#EAB82A" stroke-width="1.45333338">
                <path d="M27.2587208,0.0285342942 C29.2774009,-0.10989571 30.8786109,0.255254301 32.062351,1.12616433 C33.246091,1.99707435 34.115911,2.95409438 34.6739911,3.99831442 C35.3694111,5.25181445 35.8217611,6.6448345 36.0310411,8.17519454 L36.0310411,8.17519454 L36.0310411,57.6775461 C35.8915211,59.6275561 35.3683211,61.1590062 34.4636211,62.2729862 C33.558921,63.3869662 32.619341,64.2229963 31.643791,64.7799863 C30.4600509,65.4754063 29.1378809,65.9637263 27.6761908,66.2416763 L27.6761908,66.2416763 L-1.15889522e-12,66.2416763 L-1.15889522e-12,0.133174297 Z M17.9642906,11.3078546 L12.3246304,11.3078546 L12.5328204,54.230966 L18.7992306,54.230966 C19.5644106,54.162296 20.2609206,53.8483759 20.8876706,53.2913859 C21.4446607,52.8739159 21.9144507,52.1959359 22.2970407,51.2563559 C22.6807207,50.3156858 22.8365907,48.9760758 22.7679207,47.2342557 L22.7679207,47.2342557 L22.7679207,16.9475148 C22.6970707,15.9730548 22.4888807,15.1043248 22.1411707,14.3369647 C21.7923707,13.6415447 21.3051407,12.9973547 20.6794806,12.4054847 C20.0527306,11.8136147 19.1480306,11.4484646 17.9642906,11.3078546 L17.9642906,11.3078546 Z" id="Combined-Shape"></path>
                <polygon id="Path" points="47.5196415 65.4056463 60.8874019 65.4056463 60.8874019 0.86456432 47.5196415 0.86456432"></polygon>
                <path d="M89.3985327,11.4135846 C90.5114228,11.5531046 91.3648928,11.8136147 91.9567628,12.1972947 C92.5486328,12.5798847 93.0184228,13.0147947 93.3661329,13.5020247 C93.7149329,14.0601047 93.9580029,14.6857647 94.0975229,15.3811848 L94.0975229,18.4102949 L107.674563,26.5558651 L107.465283,8.69839456 C107.533953,6.8879045 107.133923,5.40877446 106.264103,4.25882442 C105.394283,3.11105439 104.437263,2.22270436 103.393043,1.59595434 C102.138453,0.830774319 100.711643,0.343544304 99.110433,0.133174297 L78.8506024,0.133174297 C77.2483024,0.273784302 75.9948023,0.708694315 75.0901023,1.43899434 C74.1854023,2.17038436 73.4888923,2.91921438 73.0016622,3.68439441 C72.4435822,4.65885444 72.0609922,5.70416447 71.8528022,6.8181445 L71.8528022,23.736035 C71.7830422,25.1290551 72.0609922,26.3476751 72.6888322,27.3918951 C73.3144922,28.4361152 74.0110023,29.3408152 74.7772723,30.1070852 C75.6122123,31.0117852 76.6226423,31.8129353 77.8063824,32.5083553 L94.9335529,43.5794856 L94.9335529,50.3669158 C94.9335529,51.6901759 94.6545129,52.7169559 94.0975229,53.4483459 C93.5405329,54.179736 92.9137828,54.719286 92.2183628,55.066996 C91.4520928,55.484466 90.5463028,55.763506 89.5020827,55.901936 C88.1799127,55.763506 87.1705727,55.468116 86.4740626,55.015766 C85.7775526,54.563416 85.2554426,54.0587459 84.9077326,53.5006659 C84.4891726,52.8750059 84.2101326,52.1436159 84.0717026,51.3064959 L84.0717026,47.9656458 L71.8528022,40.6550155 L71.6446122,57.7821861 C71.7132822,59.8008661 72.1492822,61.3497562 72.9493422,62.4288562 C73.7494023,63.5090462 74.6377523,64.3276363 75.6122123,64.8835363 C76.7261923,65.5113763 78.0134824,65.8939663 79.4762624,66.0323963 L99.8418231,66.0323963 C101.859413,65.9637263 103.374513,65.5113763 104.384943,64.6753463 C105.394283,63.8393162 106.142023,62.9346162 106.629253,61.9601562 C107.186243,60.7764162 107.465283,59.4531561 107.465283,57.9903761 L107.465283,42.4306256 C107.533953,41.5945956 107.325763,40.7596555 106.838533,39.9236255 C106.350213,39.0886855 105.794313,38.3572955 105.168653,37.7305454 C104.401293,36.9642754 103.566353,36.2328854 102.661653,35.5374654 L84.0717026,23.526755 L84.0717026,15.7986548 C84.1414626,14.6149147 84.4717326,13.7450947 85.0636026,13.1891947 C85.6554726,12.6322047 86.2647826,12.2136447 86.8915327,11.9346047 C87.6578027,11.6566547 88.4938327,11.4833446 89.3985327,11.4135846 L89.3985327,11.4135846 Z" id="Path"></path>
                <polygon id="Path" points="152.477925 0.759924317 140.363664 0.759924317 140.259024 18.2010149 130.441394 28.2279252 130.023924 0.343544304 117.805024 0.343544304 117.805024 65.3010063 129.920374 65.3010063 129.920374 38.3572955 139.422994 47.3388957 139.422994 65.4056463 152.268645 65.4056463 152.268645 42.3259856 144.018434 32.7176353 152.477925 22.901095"></polygon>
                <path d="M210.858326,11.4135846 C211.971216,11.5531046 212.825777,11.8136147 213.417647,12.1972947 C214.009517,12.5798847 214.478217,13.0147947 214.827017,13.5020247 C215.174727,14.0601047 215.417797,14.6857647 215.557317,15.3811848 L215.557317,18.4102949 L229.134357,26.5558651 L228.925077,8.69839456 C228.994837,6.8879045 228.593717,5.40877446 227.724987,4.25882442 C226.854077,3.11105439 225.897057,2.22270436 224.852837,1.59595434 C223.598247,0.830774319 222.171437,0.343544304 220.570227,0.133174297 L200.310396,0.133174297 C198.708096,0.273784302 197.454596,0.708694315 196.549896,1.43899434 C195.645196,2.17038436 194.948686,2.91921438 194.461456,3.68439441 C193.903376,4.65885444 193.521876,5.70416447 193.312596,6.8181445 L193.312596,23.736035 C193.242836,25.1290551 193.521876,26.3476751 194.148626,27.3918951 C194.774286,28.4361152 195.470796,29.3408152 196.237066,30.1070852 C197.072006,31.0117852 198.082436,31.8129353 199.266176,32.5083553 L216.393347,43.5794856 L216.393347,50.3669158 C216.393347,51.6901759 216.114307,52.7169559 215.557317,53.4483459 C215.000327,54.179736 214.373577,54.719286 213.678157,55.066996 C212.911887,55.484466 212.007186,55.763506 210.962966,55.901936 C209.639706,55.763506 208.630366,55.468116 207.933856,55.015766 C207.238436,54.563416 206.715236,54.0587459 206.367526,53.5006659 C205.948966,52.8750059 205.669926,52.1436159 205.531496,51.3064959 L205.531496,47.9656458 L193.312596,40.6550155 L193.104406,57.7821861 C193.173076,59.8008661 193.609076,61.3497562 194.409136,62.4288562 C195.209196,63.5090462 196.097546,64.3276363 197.072006,64.8835363 C198.185986,65.5113763 199.474366,65.8939663 200.936056,66.0323963 L221.301617,66.0323963 C223.320297,65.9637263 224.834307,65.5113763 225.844737,64.6753463 C226.854077,63.8393162 227.601817,62.9346162 228.089047,61.9601562 C228.646037,60.7764162 228.925077,59.4531561 228.925077,57.9903761 L228.925077,42.4306256 C228.994837,41.5945956 228.785557,40.7596555 228.298327,39.9236255 C227.811097,39.0886855 227.254107,38.3572955 226.628447,37.7305454 C225.862177,36.9642754 225.026147,36.2328854 224.121447,35.5374654 L205.531496,23.526755 L205.531496,15.7986548 C205.601256,14.6149147 205.931526,13.7450947 206.523396,13.1891947 C207.115266,12.6322047 207.724576,12.2136447 208.351326,11.9346047 C209.117596,11.6566547 209.953626,11.4833446 210.858326,11.4135846 L210.858326,11.4135846 Z" id="Path"></path>
                <path d="M276.129708,0.656374313 L263.494428,0.656374313 L263.494428,29.1675052 C263.424668,30.0722052 263.179418,30.8722652 262.763038,31.5687753 C262.413148,32.1955253 261.874688,32.7525153 261.144388,33.2397453 C260.411908,33.7269753 259.352428,34.0060153 257.959408,34.0757753 C256.914098,34.1455353 256.009398,34.0408953 255.243128,33.7618553 C254.546618,33.4839053 253.920958,32.9966753 253.363968,32.3001653 C252.805888,31.6036553 252.493058,30.4907652 252.424388,28.9571352 L252.424388,0.656374313 L240.204397,0.656374313 L240.204397,37.7305454 C240.275247,39.1235655 240.588077,40.3770655 241.146157,41.4910456 C241.633387,42.4655056 242.380037,43.3538556 243.389377,44.1539156 C244.398717,44.9539757 245.877848,45.3540057 247.827858,45.3540057 L263.390878,45.3540057 L263.390878,50.7854758 C263.250268,51.6901759 262.937438,52.4902359 262.449118,53.1867459 C262.032738,53.7448259 261.403808,54.265846 260.569958,54.753076 C259.732838,55.241396 258.619948,55.484466 257.226928,55.484466 L243.234597,55.484466 L243.234597,65.8242063 L269.864388,65.8242063 C271.048128,65.6857763 272.093438,65.3369763 272.998138,64.7799863 C273.762228,64.2916663 274.476178,63.5624562 275.137808,62.5869062 C275.799438,61.6113562 276.129708,60.2891861 276.129708,58.6171261 L276.129708,0.656374313 Z" id="Path"></path>
                <path d="M304.433739,11.4135846 C305.547719,11.5531046 306.401189,11.8136147 306.993059,12.1972947 C307.584929,12.5798847 308.052539,13.0147947 308.402429,13.5020247 C308.749049,14.0601047 308.994299,14.6857647 309.132729,15.3811848 L309.132729,18.4102949 L322.71086,26.5558651 L322.4994,8.69839456 C322.57025,6.8879045 322.17022,5.40877446 321.29931,4.25882442 C320.4284,3.11105439 319.47247,2.22270436 318.42716,1.59595434 C317.17366,0.830774319 315.74685,0.343544304 314.14564,0.133174297 L293.884719,0.133174297 C292.284599,0.273784302 291.030009,0.708694315 290.125309,1.43899434 C289.220609,2.17038436 288.524099,2.91921438 288.036869,3.68439441 C287.478789,4.65885444 287.096199,5.70416447 286.886919,6.8181445 L286.886919,23.736035 C286.817159,25.1290551 287.096199,26.3476751 287.724039,27.3918951 C288.349699,28.4361152 289.046209,29.3408152 289.812479,30.1070852 C290.647419,31.0117852 291.657849,31.8129353 292.841589,32.5083553 L309.968759,43.5794856 L309.968759,50.3669158 C309.968759,51.6901759 309.689719,52.7169559 309.132729,53.4483459 C308.574649,54.179736 307.948989,54.719286 307.252479,55.066996 C306.486209,55.484466 305.581509,55.763506 304.538379,55.901936 C303.214029,55.763506 302.204689,55.468116 301.508179,55.015766 C300.812759,54.563416 300.290649,54.0587459 299.941849,53.5006659 C299.524379,52.8750059 299.245339,52.1436159 299.106909,51.3064959 L299.106909,47.9656458 L286.886919,40.6550155 L286.678729,57.7821861 C286.748489,59.8008661 287.183399,61.3497562 287.983459,62.4288562 C288.784609,63.5090462 289.671869,64.3276363 290.647419,64.8835363 C291.760309,65.5113763 293.048689,65.8939663 294.511469,66.0323963 L314.87594,66.0323963 C316.89462,65.9637263 318.40972,65.5113763 319.41906,64.6753463 C320.4284,63.8393162 321.17723,62.9346162 321.66555,61.9601562 C322.22036,60.7764162 322.4994,59.4531561 322.4994,57.9903761 L322.4994,42.4306256 C322.57025,41.5945956 322.36097,40.7596555 321.87374,39.9236255 C321.38651,39.0886855 320.82843,38.3572955 320.20277,37.7305454 C319.4365,36.9642754 318.60156,36.2328854 317.69686,35.5374654 L299.106909,23.526755 L299.106909,15.7986548 C299.175579,14.6149147 299.506939,13.7450947 300.098809,13.1891947 C300.690679,12.6322047 301.299989,12.2136447 301.925649,11.9346047 C302.691919,11.6566547 303.529039,11.4833446 304.433739,11.4135846 L304.433739,11.4135846 Z" id="Path"></path>
                <polygon id="Path" points="363.753721 0.759924317 332.94378 0.759924317 332.94378 11.8310547 341.71719 11.8310547 341.71719 65.8242063 354.459291 65.8242063 354.459291 12.1438847 363.753721 12.1438847"></polygon>
                <polygon id="Path" points="387.565862 28.1221952 387.565862 11.9346047 401.350002 11.9346047 401.350002 0.86456432 374.928401 0.86456432 374.928401 66.8684263 401.350002 66.8684263 401.350002 55.276276 387.356582 55.276276 387.356582 39.4026055 401.558192 39.4026055 401.558192 28.1221952"></polygon>
                <path d="M472.157494,7.13097451 C472.087734,5.94723448 471.810874,4.90301444 471.322554,3.99831442 C470.903994,3.23204439 470.190044,2.51918437 469.181794,1.85646435 C468.172454,1.19592433 466.760904,0.86456432 464.951504,0.86456432 L450.645254,0.86456432 C449.529094,0.934324322 448.485964,1.21227433 447.511504,1.70059435 C446.674384,2.11806436 445.823094,2.74590438 444.952184,3.5797544 C444.081274,4.41578443 443.402204,5.52976446 442.914974,6.92278451 C442.356894,5.60061446 441.697444,4.45066443 440.931174,3.4762044 C440.163813,2.64126437 439.225323,1.87499435 438.112433,1.17848433 C436.996273,0.481974308 435.533493,0.168054299 433.724093,0.238904301 L414.195653,0.447094307 L414.195653,65.8242063 L425.787803,65.8242063 L425.787803,17.3660748 C425.718043,16.3905248 425.892443,15.5207048 426.309913,14.7544347 C426.658713,14.0590147 427.233143,13.4322647 428.034293,12.8752747 C428.834353,12.3182847 430.034443,12.0392447 431.635653,12.0392447 C432.472773,12.0392447 433.272833,12.2485247 434.039103,12.6659947 C434.595003,13.0147947 435.135643,13.6230147 435.657753,14.4939247 C436.178773,15.3648348 436.440373,16.6346848 436.440373,18.3056549 L436.440373,65.8242063 L448.765004,65.8242063 L448.765004,17.3660748 C448.765004,16.5311348 448.973194,15.7299848 449.390664,14.9637148 C449.738374,14.3369647 450.295364,13.7625347 451.062724,13.2415147 C451.826814,12.7194047 452.975674,12.4578047 454.509304,12.4578047 C455.343154,12.3880447 456.144304,12.4926847 456.910574,12.7706347 C457.536234,13.0496747 458.110664,13.5369047 458.632774,14.2334147 C459.153794,14.9288348 459.416484,16.0439048 459.416484,17.5742648 L459.416484,65.8242063 L472.157494,65.8242063 L472.157494,7.13097451 Z" id="Path"></path>
            </g>
            <g id="Group-10" transform="translate(0.000000, 119.900004)" fill="#FFFFFF">
                <polygon id="path7807" points="45.2527862 4.57110476 67.3788694 7.19705634 67.3788694 2.8204682 45.2527862 2.3140298e-14"></polygon>
                <polygon id="path7807-3" points="45.2284716 10.2614715 67.3545548 12.887423 67.3545548 8.51083491 45.2284716 5.69036671"></polygon>
                <polygon id="path7807-3-9" points="45.2771008 15.8537787 67.403184 18.4797303 67.403184 14.1031422 45.2771008 11.282674"></polygon>
                <rect id="rect7839" fill-rule="nonzero" x="70.3540964" y="0.43765914" width="3.98755816" height="11.038728"></rect>
                <rect id="rect7841" fill-rule="nonzero" x="95.4067774" y="6.95391057" width="21.1048814" height="4.42521697"></rect>
                <rect id="rect7843" fill-rule="nonzero" x="152.174295" y="0.63217576" width="12.7893636" height="4.4738458"></rect>
                <rect id="rect7845" fill-rule="nonzero" x="126.73258" y="0.583543348" width="22.0288259" height="4.66836047"></rect>
                <rect id="rect7845-3" fill-rule="nonzero" x="126.65964" y="12.837996" width="22.0288259" height="4.66836047"></rect>
                <rect id="rect7864" fill-rule="nonzero" x="145.162874" y="3.84167395" width="3.59852784" height="11.3791292"></rect>
                <rect id="rect7866" fill-rule="nonzero" x="220.281172" y="7.2456855" width="21.3480236" height="4.76561812"></rect>
                <path d="M18.9165863,5.30053557 C18.9165863,13.8865841 12.7407341,13.1297644 12.7407341,13.1297644 L2.13966524,13.1297644 L2.13966524,17.65224 L15.4153155,17.7008692 C19.4655623,17.4921142 22.369228,11.7006007 22.369228,8.75317628 L22.4664857,0.486288295 L0,0.486288295 L0,5.34916473 L18.9165863,5.30053557 Z" id="path7870"></path>
                <path d="M196.245564,0.747098452 C197.926242,0.747098452 199.288701,2.10185957 199.288701,3.77304209 C199.288701,5.44422462 197.926242,6.79898574 196.245564,6.79898574 C194.564886,6.79898574 193.202427,5.44422462 193.202427,3.77304209 C193.202427,2.10185957 194.564886,0.747098452 196.245564,0.747098452 Z M196.24459,2.58551666 C195.608401,2.58551666 195.092668,3.11664459 195.092668,3.77182409 C195.092668,4.42700359 195.608401,4.95813151 196.24459,4.95813151 C196.880779,4.95813151 197.396512,4.42700359 197.396512,3.77182409 C197.396512,3.11664459 196.880779,2.58551666 196.24459,2.58551666 Z" id="Combined-Shape" fill-rule="nonzero"></path>
                <polygon id="path7945" points="202.549387 17.5617198 220.429964 17.5617198 220.429964 13.3666606 216.785077 13.3666606 216.785077 4.97654529 204.199902 4.97654529 204.199902 9.48107318 213.965449 9.48107318 213.965449 13.5042044 202.618159 13.5042044"></polygon>
                <rect id="rect7947" fill-rule="nonzero" x="250.64309" y="7.3491576" width="13.891833" height="4.67645859"></rect>
                <path d="M244.522431,6.14565766 C247.459939,6.14565766 247.71293,3.45880891 247.857847,0.850257916 L266.80438,0.850257916 L266.80438,9.92808884 C266.80438,11.8593847 264.070195,17.4241761 260.649337,17.4241761 L246.172947,17.4241761 L246.172947,13.4354325 L258.895665,13.4354325 C261.948923,13.4354325 263.331424,8.7192479 263.331424,5.66425769 L250.50555,5.66425769 C250.50555,6.76249107 247.890378,10.9596607 244.556819,10.9596607 L244.522431,6.14565766 Z" id="path7951"></path>
                <path d="M88.8573401,0.316086252 L88.8573401,6.66213889 C88.8573401,9.46911781 86.7879598,13.0081915 83.7270066,13.0081915 L73.5879091,13.0081915 L73.5879091,17.6279254 L85.0156694,17.6279254 C88.5803799,17.6279254 92.2856662,13.2940132 92.2856662,9.70143829 L92.2613386,0.316086252 L88.8573401,0.316086252 Z" id="path7953"></path>
                <path d="M171.06692,0.85616884 L171.06692,6.72083779 C171.06692,9.52781671 169.203855,13.0325061 166.142902,13.0325061 L152.210763,13.0325061 L152.210763,17.4334121 L167.382936,17.4577071 C170.947646,17.4577071 174.082618,13.5590115 174.082618,9.96643657 L174.127062,0.85616884 L171.06692,0.85616884 Z" id="path7953-8"></path>
                <path d="M199.66695,9.85931695 L180.686029,9.82493264 C180.686029,11.4948289 180.7367,13.3666606 182.9211,13.3666606 L199.495019,13.3666606 L199.495019,17.5273323 L181.304972,17.5273323 C179.362399,17.5273323 177.488157,15.7557942 177.488157,13.4698168 L177.488157,0.815870342 L180.720416,0.815870342 L180.720416,4.77022962 L192.308403,4.77022962 C192.308403,5.78298747 192.778639,6.14565766 193.752603,6.14565766 L199.66695,6.14565766 L199.66695,9.85931695 Z" id="path7998"></path>
                <path d="M24.3527136,17.5549817 L32.2305713,17.5549817 C34.509664,17.5549817 35.2941853,14.8405454 35.2941853,13.9564535 L39.4276276,13.9564535 C41.6332099,13.9564535 43.074785,12.2298091 43.074785,10.1634088 L43.074785,4.42521729 L24.4013421,4.42521729 L24.4013421,8.85043459 L39.0385976,8.75317628 L39.0385976,9.92026623 L32.0360579,9.92026623 L32.0360579,13.4215361 L24.4013424,13.4215361 L24.3527136,17.5549817 Z" id="path8000"></path>
            </g>
            <path d="M23.1026733,57.5832095 C22.9644038,57.0286752 22.7553665,56.5774364 22.4777388,56.2294933 C21.8517156,55.466193 20.773867,55.2574271 19.2441929,55.604283 L19.2441929,91.4424259 C19.8691274,91.6501045 20.460311,91.7196931 21.0166551,91.6501045 C21.5044088,91.5805159 21.9377258,91.3728373 22.3209608,91.0259815 C22.7031072,90.6780384 22.9644038,90.0180337 23.1026733,89.0448803 L23.1026733,57.5832095 Z M24.3558084,53.0523375 C24.9807429,53.6427535 25.4674079,54.285361 25.8158034,54.9790726 C26.1631102,55.7445475 26.3710587,56.6111434 26.4418266,57.5832095 L26.4418266,87.7955469 C26.5104169,89.533088 26.3547277,90.8694071 25.9714926,91.8077662 C25.5893463,92.7450381 25.1201011,93.4213525 24.563757,93.837797 C23.9377338,94.3934187 23.2420315,94.7065675 22.4777388,94.7750688 L16.2185956,94.7750688 L16.010647,51.957404 L21.6437671,51.957404 C22.8261343,52.0976685 23.7297852,52.4619215 24.3558084,53.0523375 L24.3558084,53.0523375 Z M39.6895661,48.8324397 C39.4805288,47.3058392 39.0287034,45.9162413 38.3340898,44.6658206 C37.776657,43.6241659 36.9078457,42.6694969 35.7254784,41.8007264 C34.5431111,40.9319558 32.9437579,40.5677029 30.9274189,40.7057928 L3.70030916,40.8101757 L3.70030916,106.756273 L31.3444047,106.756273 C32.8043997,106.479006 34.1250365,105.991886 35.3074038,105.298174 C36.2818225,104.742552 37.2203129,103.908576 38.1239638,102.797333 C39.0276146,101.686089 39.5502079,100.158401 39.6895661,98.2131819 L39.6895661,48.8324397 Z M37.3934219,39.144398 C39.2018124,40.3948186 40.5583774,41.7485349 41.4631171,43.2066341 C42.4353583,44.9441751 43.0265419,46.8883074 43.236668,49.0401182 L43.236668,97.0671442 C43.236668,99.9855172 42.6977437,102.260195 41.6188063,103.892266 C40.5409577,105.524337 39.3400819,106.825862 38.0205339,107.797928 C36.489771,108.909171 34.7521484,109.673559 32.8054884,110.090003 L0.363333344,110.090003 L0.363333344,37.0600011 L29.6753725,37.0600011 C33.013437,37.2002657 35.5861202,37.8939773 37.3934219,39.144398 L37.3934219,39.144398 Z" id="Fill-1" fill="#1A1919"></path>
            <path d="M51.3171797,106.121374 L64.7415141,106.121374 L64.7415141,41.5990037 L51.3171797,41.5990037 L51.3171797,106.121374 Z M47.9600015,110.090003 L68.3066688,110.090003 L68.3066688,37.4233345 L47.9600015,37.4233345 L47.9600015,110.090003 Z" id="Fill-3" fill="#1A1919"></path>
            <path d="M93.2204359,51.8543286 C94.3320354,51.9935079 95.1845156,52.2533818 95.7756993,52.636125 C96.3668829,53.0177808 96.8361281,53.4516288 97.1834349,53.9376692 C97.5318304,54.4943865 97.7746186,55.1185188 97.9139768,55.8122407 L97.9139768,58.8339544 L111.475272,66.9596349 L111.266235,49.1457684 C111.334825,47.3396992 110.935259,45.8641809 110.066448,44.7170388 C109.197637,43.5720713 108.241726,42.6858905 107.198717,42.0606708 C105.945582,41.2973592 104.520427,40.8113189 102.921074,40.6014626 L82.6847377,40.6014626 C81.0842958,40.7417293 79.8322494,41.1755773 78.9285985,41.9040941 C78.0249477,42.6336982 77.3292454,43.3806998 76.8425804,44.1440114 C76.2851475,45.116092 75.9030012,46.1588496 75.6950526,47.2701095 L75.6950526,64.1466902 C75.6253735,65.5363088 75.9030012,66.7519532 76.5301131,67.7936235 C77.1550476,68.8352938 77.8507499,69.7377847 78.6161313,70.5021837 C79.4501031,71.4046746 80.4593613,72.2038684 81.6417286,72.8975904 L98.7490373,83.9416874 L98.7490373,90.7125442 C98.7490373,92.0325731 98.4703209,93.056846 97.9139768,93.7864501 C97.3576327,94.5160542 96.7316095,95.0542868 96.0369959,95.4011477 C95.2716145,95.8175984 94.3668749,96.095957 93.3238658,96.234049 C92.0032291,96.095957 90.9950595,95.8012883 90.2993572,95.3500428 C89.6036549,94.8987973 89.0821504,94.3953596 88.7348436,93.8386423 C88.316769,93.21451 88.0380526,92.4849059 87.8997831,91.6498299 L87.8997831,88.3171375 L75.6950526,81.0243582 L75.4871041,98.1097079 C75.5556944,100.123459 75.9911888,101.668567 76.790321,102.745032 C77.5894533,103.822584 78.4767731,104.639176 79.4501031,105.193718 C80.5627913,105.820025 81.8485885,106.201681 83.3096722,106.339773 L103.651615,106.339773 C105.666866,106.271271 107.180209,105.820025 108.189467,104.986037 C109.197637,104.152048 109.944509,103.249557 110.431174,102.277476 C110.987519,101.096627 111.266235,99.7765978 111.266235,98.3173896 L111.266235,82.7956326 C111.334825,81.961644 111.126877,81.1287427 110.640212,80.2947541 C110.152458,79.4618528 109.597203,78.7322487 108.972268,78.1070291 C108.205798,77.3426301 107.371826,76.613026 106.468175,75.919304 L87.8997831,63.9379212 L87.8997831,56.2286913 C87.9694622,55.0478417 88.2993492,54.1801456 88.8905329,53.625603 C89.4817165,53.069973 90.0903199,52.6524351 90.7163431,52.3740764 C91.4817245,52.0968051 92.316785,51.9239183 93.2204359,51.8543286 L93.2204359,51.8543286 Z M94.8894682,60.9172949 L94.8894682,57.8955813 C94.9580586,56.50705 94.6455913,55.6730614 93.9509778,55.3957901 C93.6722613,55.2576981 93.2890263,55.2576981 92.80345,55.3957901 C92.2460172,55.3957901 91.8464511,55.517572 91.6025742,55.7611358 C91.3597861,56.0036123 91.2030081,56.2993683 91.1344177,56.6462293 C90.9939708,56.9930903 90.9939708,57.4095409 91.1344177,57.8955813 L91.1344177,61.8545807 L107.198717,72.2723707 C109.213968,73.384718 110.76215,74.5644803 111.839999,75.8149195 C112.918936,77.0653588 113.665809,78.2462084 114.082795,79.3574683 C114.56946,80.6079076 114.813337,81.9268492 114.813337,83.3153804 L114.813337,99.2557627 C114.673979,101.547872 114.082795,103.406134 113.039786,104.82946 C111.996777,106.253873 110.81441,107.347736 109.492684,108.111047 C107.96301,109.013538 106.259138,109.67464 104.382157,110.090003 L83.3096722,110.090003 C80.6662212,110.020414 78.5976228,109.361487 77.1027883,108.111047 C75.6079538,106.861695 74.5126854,105.541666 73.8169831,104.152048 C72.9830113,102.485158 72.460418,100.610586 72.2524694,98.5272459 L72.2524694,74.7732493 L91.2378477,86.3381814 L91.2378477,90.400478 C91.2378477,91.0256977 91.3249465,91.4954279 91.4991443,91.807494 C91.6722533,92.1195602 91.8987104,92.3457266 92.1774268,92.4838186 C92.4550545,92.6925876 92.8023613,92.7969721 93.2204359,92.7969721 C94.263445,92.7273824 94.8546286,92.3109317 94.9939868,91.5465328 C95.0625772,91.2692615 95.0277377,90.8865183 94.8894682,90.400478 L94.8894682,85.6085773 L81.0157054,77.2741278 C78.580203,75.9551862 76.7554815,74.5481702 75.5393634,73.0552545 C74.3210678,71.5623387 73.4348367,70.223825 72.8784926,69.0429754 C72.2524694,67.6544442 71.9400022,66.2659129 71.9400022,64.8762943 L71.9400022,47.7898573 C72.0782717,45.1519742 72.7042949,43.1034285 73.8169831,41.6442202 C74.9296712,40.185012 76.1817176,39.1085468 77.5731222,38.4137376 C79.1713867,37.6504259 80.9449376,37.1991805 82.8926863,37.0600011 L101.565597,37.0600011 C104.763215,37.1991805 107.232468,37.7896053 108.972268,38.8312755 C110.709891,39.8729458 112.031616,41.0537954 112.935267,42.372737 C113.909686,43.9015349 114.53462,45.6032196 114.813337,47.4777912 L114.813337,74.0436451 L94.8894682,60.9172949 Z" id="Fill-4" fill="#1A1919"></path>
            <path d="M156.173141,41.2385652 L144.10145,41.2385652 L143.997177,58.686687 L134.214045,68.7176397 L133.798042,40.8220173 L121.622078,40.8220173 L121.622078,105.805667 L133.694856,105.805667 L133.694856,78.8510936 L143.164085,87.8363148 L143.164085,105.910349 L155.964597,105.910349 L155.964597,82.8213837 L147.743377,73.2091598 L156.173141,63.388662 L156.173141,41.2385652 Z M159.503338,64.5379852 L152.010939,73.2091598 L159.503338,82.4026549 L159.503338,109.881729 L140.250978,109.881729 L140.250978,89.6126407 L137.544242,87.1046299 L137.544242,110.090003 L118.083337,110.090003 L118.083337,37.0600011 L137.544242,37.0600011 L137.544242,60.0442842 L140.250978,56.8067694 L140.250978,37.0600011 L159.503338,37.0600011 L159.503338,64.5379852 Z" id="Fill-5" fill="#1A1919"></path>
            <path d="M214.573773,51.8543286 C215.685372,51.9935079 216.538941,52.2533818 217.130125,52.636125 C217.721309,53.0177808 218.189465,53.4516288 218.537861,53.9376692 C218.885167,54.4943865 219.127956,55.1185188 219.267314,55.8122407 L219.267314,58.8339544 L232.828609,66.9596349 L232.619572,49.1457684 C232.689251,47.3396992 232.288596,45.8641809 231.420874,44.7170388 C230.550974,43.5720713 229.595063,42.6858905 228.552054,42.0606708 C227.298919,41.2973592 225.873764,40.8113189 224.274411,40.6014626 L204.038075,40.6014626 C202.437633,40.7417293 201.185586,41.1755773 200.281936,41.9040941 C199.378285,42.6336982 198.682582,43.3806998 198.195917,44.1440114 C197.638485,45.116092 197.257427,46.1588496 197.04839,47.2701095 L197.04839,64.1466902 C196.978711,65.5363088 197.257427,66.7519532 197.88345,67.7936235 C198.508385,68.8352938 199.204087,69.7377847 199.969468,70.5021837 C200.80344,71.4046746 201.812698,72.2038684 202.995066,72.8975904 L220.102374,83.9416874 L220.102374,90.7125442 C220.102374,92.0325731 219.823658,93.056846 219.267314,93.7864501 C218.71097,94.5160542 218.084947,95.0542868 217.390333,95.4011477 C216.624952,95.8175984 215.721301,96.095957 214.678292,96.234049 C213.356566,96.095957 212.348397,95.8012883 211.652694,95.3500428 C210.958081,94.8987973 210.435487,94.3953596 210.088181,93.8386423 C209.670106,93.21451 209.39139,92.4849059 209.25312,91.6498299 L209.25312,88.3171375 L197.04839,81.0243582 L196.840441,98.1097079 C196.909031,100.123459 197.344526,101.668567 198.143658,102.745032 C198.94279,103.822584 199.83011,104.639176 200.80344,105.193718 C201.916128,105.820025 203.203014,106.201681 204.663009,106.339773 L225.004953,106.339773 C227.021292,106.271271 228.533546,105.820025 229.542804,104.986037 C230.550974,104.152048 231.297847,103.249557 231.784512,102.277476 C232.340856,101.096627 232.619572,99.7765978 232.619572,98.3173896 L232.619572,82.7956326 C232.689251,81.961644 232.480214,81.1287427 231.993549,80.2947541 C231.506884,79.4618528 230.95054,78.7322487 230.325605,78.1070291 C229.560224,77.3426301 228.725163,76.613026 227.821513,75.919304 L209.25312,63.9379212 L209.25312,56.2286913 C209.322799,55.0478417 209.652686,54.1801456 210.24387,53.625603 C210.835054,53.069973 211.443657,52.6524351 212.06968,52.3740764 C212.835062,52.0968051 213.670122,51.9239183 214.573773,51.8543286 L214.573773,51.8543286 Z M216.242805,60.9172949 L216.242805,57.8955813 C216.312484,56.50705 215.998928,55.6730614 215.304315,55.3957901 C215.025598,55.2576981 214.642363,55.2576981 214.156787,55.3957901 C213.599354,55.3957901 213.199788,55.517572 212.957,55.7611358 C212.713123,56.0036123 212.556345,56.2993683 212.487755,56.6462293 C212.347308,56.9930903 212.347308,57.4095409 212.487755,57.8955813 L212.487755,61.8545807 L228.552054,72.2723707 C230.567305,73.384718 232.115487,74.5644803 233.193336,75.8149195 C234.272273,77.0653588 235.019146,78.2462084 235.436132,79.3574683 C235.922797,80.6079076 236.166674,81.9268492 236.166674,83.3153804 L236.166674,99.2557627 C236.027316,101.547872 235.436132,103.406134 234.393123,104.82946 C233.350114,106.253873 232.167747,107.347736 230.846021,108.111047 C229.316347,109.013538 227.612475,109.67464 225.735494,110.090003 L204.663009,110.090003 C202.020647,110.020414 199.95096,109.361487 198.456125,108.111047 C196.961291,106.861695 195.866022,105.541666 195.171409,104.152048 C194.336348,102.485158 193.814844,100.610586 193.605806,98.5272459 L193.605806,74.7732493 L212.592273,86.3381814 L212.592273,90.400478 C212.592273,91.0256977 212.678284,91.4954279 212.852481,91.807494 C213.02559,92.1195602 213.252047,92.3457266 213.530764,92.4838186 C213.808392,92.6925876 214.155698,92.7969721 214.573773,92.7969721 C215.616782,92.7273824 216.207966,92.3109317 216.347324,91.5465328 C216.415914,91.2692615 216.381075,90.8865183 216.242805,90.400478 L216.242805,85.6085773 L202.369042,77.2741278 C199.934629,75.9551862 198.108819,74.5481702 196.8927,73.0552545 C195.674405,71.5623387 194.788174,70.223825 194.23183,69.0429754 C193.605806,67.6544442 193.293339,66.2659129 193.293339,64.8762943 L193.293339,47.7898573 C193.431609,45.1519742 194.057632,43.1034285 195.171409,41.6442202 C196.283008,40.185012 197.535055,39.1085468 198.926459,38.4137376 C200.525812,37.6504259 202.298275,37.1991805 204.247112,37.0600011 L222.918934,37.0600011 C226.116552,37.1991805 228.585805,37.7896053 230.325605,38.8312755 C232.063228,39.8729458 233.384953,41.0537954 234.288604,42.372737 C235.263023,43.9015349 235.887957,45.6032196 236.166674,47.4777912 L236.166674,74.0436451 L216.242805,60.9172949 Z" id="Fill-6" fill="#1A1919"></path>
            <path d="M279.949374,41.2944913 L267.29923,41.2944913 L267.29923,69.8580598 C267.229388,70.7644238 266.983849,71.5659553 266.566979,72.2637463 C266.216678,72.891649 265.677584,73.4496635 264.946425,73.9377896 C264.213083,74.4259157 263.152357,74.7054689 261.757698,74.7753572 C260.711159,74.8452455 259.805394,74.7404131 259.038223,74.4608599 C258.340893,74.1823987 257.714497,73.6942725 257.156852,72.9964815 C256.598116,72.2986905 256.284918,71.1837536 256.216167,69.6473029 L256.216167,41.2944913 L243.981801,41.2944913 L243.981801,78.4368492 C244.052734,79.8324313 244.365932,81.0882368 244.924669,82.2042656 C245.412472,83.1805179 246.160001,84.0705017 247.170528,84.8720332 C248.181055,85.6735647 249.661925,86.0743305 251.614229,86.0743305 L267.195558,86.0743305 L267.195558,91.5157902 C267.054783,92.4221541 266.741585,93.2236856 266.25269,93.9214767 C265.83582,94.4805831 265.20615,95.0025614 264.371319,95.4906875 C263.533215,95.9799056 262.419015,96.2234227 261.024357,96.2234227 L247.015566,96.2234227 L247.015566,106.58218 L273.676683,106.58218 C274.861816,106.443495 275.908356,106.094054 276.81412,105.536039 C277.579109,105.046821 278.293899,104.31627 278.956307,103.338926 C279.618716,102.361581 279.949374,101.03698 279.949374,99.3618444 L279.949374,41.2944913 Z M283.400009,37.4233345 L283.400009,99.5715093 C283.330167,102.013232 282.824903,103.949356 281.885309,105.378791 C280.942441,106.809317 279.881715,107.907874 278.696582,108.674461 C277.370674,109.510937 275.838514,110.103895 274.094645,110.453337 L243.250642,110.453337 L243.250642,92.6667632 L262.906819,92.6667632 L262.906819,89.2127522 L249.523333,89.2127522 C246.944632,89.0751596 244.992328,88.4461648 243.668603,87.330136 C242.342695,86.2141071 241.403101,84.9583016 240.844364,83.5638115 C240.148126,81.9596566 239.800007,80.1818728 239.800007,78.2282763 L239.800007,37.4233345 L259.876328,37.4233345 L259.876328,70.7993679 L263.326962,70.7993679 L263.326962,37.4233345 L283.400009,37.4233345 Z" id="Fill-7" fill="#1A1919"></path>
            <path d="M307.951531,51.8543286 C309.064219,51.9935079 309.9167,52.2533818 310.507883,52.636125 C311.099067,53.0177808 311.566135,53.4516288 311.915619,53.9376692 C312.261837,54.4943865 312.506803,55.1185188 312.645072,55.8122407 L312.645072,58.8339544 L326.207456,66.9596349 L325.996242,49.1457684 C326.067009,47.3396992 325.667443,45.8641809 324.797543,44.7170388 C323.927643,43.5720713 322.972822,42.6858905 321.928724,42.0606708 C320.676678,41.2973592 319.251522,40.8113189 317.652169,40.6014626 L297.414744,40.6014626 C295.81648,40.7417293 294.563345,41.1755773 293.659694,41.9040941 C292.756043,42.6336982 292.060341,43.3806998 291.573676,44.1440114 C291.016243,45.116092 290.634097,46.1588496 290.425059,47.2701095 L290.425059,64.1466902 C290.35538,65.5363088 290.634097,66.7519532 291.261208,67.7936235 C291.886143,68.8352938 292.581845,69.7377847 293.347227,70.5021837 C294.181198,71.4046746 295.190457,72.2038684 296.372824,72.8975904 L313.480133,83.9416874 L313.480133,90.7125442 C313.480133,92.0325731 313.201416,93.056846 312.645072,93.7864501 C312.087639,94.5160542 311.462705,95.0542868 310.767002,95.4011477 C310.001621,95.8175984 309.09797,96.095957 308.05605,96.234049 C306.733236,96.095957 305.725066,95.8012883 305.029364,95.3500428 C304.33475,94.8987973 303.813246,94.3953596 303.46485,93.8386423 C303.047864,93.21451 302.769148,92.4849059 302.630878,91.6498299 L302.630878,88.3171375 L290.425059,81.0243582 L290.217111,98.1097079 C290.28679,100.123459 290.721195,101.668567 291.520328,102.745032 C292.320549,103.822584 293.20678,104.639176 294.181198,105.193718 C295.292798,105.820025 296.579684,106.201681 298.040767,106.339773 L318.381622,106.339773 C320.397961,106.271271 321.911304,105.820025 322.919474,104.986037 C323.927643,104.152048 324.675605,103.249557 325.163359,102.277476 C325.717525,101.096627 325.996242,99.7765978 325.996242,98.3173896 L325.996242,82.7956326 C326.067009,81.961644 325.857972,81.1287427 325.371307,80.2947541 C324.884642,79.4618528 324.327209,78.7322487 323.702275,78.1070291 C322.936893,77.3426301 322.102922,76.613026 321.199271,75.919304 L302.630878,63.9379212 L302.630878,56.2286913 C302.699469,55.0478417 303.030445,54.1801456 303.621628,53.625603 C304.212812,53.069973 304.821415,52.6524351 305.44635,52.3740764 C306.211731,52.0968051 307.04788,51.9239183 307.951531,51.8543286 L307.951531,51.8543286 Z M309.620563,60.9172949 L309.620563,57.8955813 C309.689154,56.50705 309.376687,55.6730614 308.680984,55.3957901 C308.402268,55.2576981 308.020122,55.2576981 307.534545,55.3957901 C306.977113,55.3957901 306.577546,55.517572 306.33367,55.7611358 C306.090881,56.0036123 305.934103,56.2993683 305.865513,56.6462293 C305.725066,56.9930903 305.725066,57.4095409 305.865513,57.8955813 L305.865513,61.8545807 L321.928724,72.2723707 C323.943974,73.384718 325.492157,74.5644803 326.571094,75.8149195 C327.648943,77.0653588 328.396904,78.2462084 328.81389,79.3574683 C329.300555,80.6079076 329.543343,81.9268492 329.543343,83.3153804 L329.543343,99.2557627 C329.405074,101.547872 328.81389,103.406134 327.769792,104.82946 C326.727872,106.253873 325.545505,107.347736 324.222691,108.111047 C322.694105,109.013538 320.991322,109.67464 319.113253,110.090003 L298.040767,110.090003 C295.397316,110.020414 293.327629,109.361487 291.832795,108.111047 C290.33796,106.861695 289.242692,105.541666 288.548078,104.152048 C287.714107,102.485158 287.191513,100.610586 286.982476,98.5272459 L286.982476,74.7732493 L305.970032,86.3381814 L305.970032,90.400478 C305.970032,91.0256977 306.054953,91.4954279 306.229151,91.807494 C306.403349,92.1195602 306.628717,92.3457266 306.907433,92.4838186 C307.18615,92.6925876 307.532368,92.7969721 307.951531,92.7969721 C308.993452,92.7273824 309.584635,92.3109317 309.725082,91.5465328 C309.792584,91.2692615 309.758833,90.8865183 309.620563,90.400478 L309.620563,85.6085773 L295.745712,77.2741278 C293.311298,75.9551862 291.486577,74.5481702 290.270459,73.0552545 C289.052163,71.5623387 288.164843,70.223825 287.609588,69.0429754 C286.982476,67.6544442 286.670009,66.2659129 286.670009,64.8762943 L286.670009,47.7898573 C286.808278,45.1519742 287.43539,43.1034285 288.548078,41.6442202 C289.659678,40.185012 290.912813,39.1085468 292.303129,38.4137376 C293.902482,37.6504259 295.676033,37.1991805 297.623782,37.0600011 L316.295604,37.0600011 C319.49431,37.1991805 321.962475,37.7896053 323.702275,38.8312755 C325.440986,39.8729458 326.761623,41.0537954 327.665274,42.372737 C328.639693,43.9015349 329.264627,45.6032196 329.543343,47.4777912 L329.543343,74.0436451 L309.620563,60.9172949 Z" id="Fill-8" fill="#1A1919"></path>
            <path d="M367.267954,41.2385652 L336.560276,41.2385652 L336.560276,52.3141588 L345.304566,52.3141588 L345.304566,106.329078 L358.004373,106.329078 L358.004373,52.6271149 L367.267954,52.6271149 L367.267954,41.2385652 Z M371.326678,37.4776394 L371.326678,56.4927228 L362.374889,56.4927228 L362.374889,110.090003 L341.349048,110.090003 L341.349048,56.4927228 L332.813344,56.4927228 L332.813344,37.0600011 L371.326678,37.4776394 Z" id="Fill-9" fill="#1A1919"></path>
            <path d="M391.174446,68.6335391 L391.174446,52.4282994 L405.022287,52.4282994 L405.022287,41.3461894 L378.478585,41.3461894 L378.478585,107.422015 L405.022287,107.422015 L405.022287,95.8172259 L390.964199,95.8172259 L390.964199,79.9262485 L405.231439,79.9262485 L405.231439,68.6335391 L391.174446,68.6335391 Z M395.265505,56.2965624 L395.265505,64.765276 L408.695042,64.765276 L408.695042,83.7934203 L394.846106,83.7934203 L394.846106,91.8431176 L408.695042,91.8431176 L408.695042,110.453337 L374.596678,110.24492 L374.596678,37.0600011 L409.113346,37.0600011 L409.113346,56.2965624 L395.265505,56.2965624 Z" id="Fill-10" fill="#1A1919"></path>
            <path d="M475.936887,47.9260495 C475.867171,46.7419233 475.590482,45.6973626 475.102465,44.7923675 C474.684164,44.0258475 473.970657,43.3127549 472.963032,42.6498187 C471.954317,41.9890632 470.543642,41.6575951 468.735363,41.6575951 L454.43798,41.6575951 C453.322512,41.7273779 452.280028,42.0054186 451.306172,42.4938979 C450.469571,42.9115041 449.618809,43.5395489 448.748439,44.3736709 C447.878068,45.2099737 447.199419,46.3243171 446.712491,47.7177915 C446.154757,46.3951902 445.495716,45.244865 444.729921,44.2700871 C443.963036,43.4348747 443.025128,42.6683548 441.912928,41.9716175 C440.797459,41.2748803 439.335586,40.9608579 437.527307,41.031731 L418.010971,41.2399889 L418.010971,106.638427 L429.595936,106.638427 L429.595936,58.1644885 C429.526219,57.1886203 429.700511,56.3185165 430.117723,55.5519965 C430.466306,54.8563496 431.04038,54.2293952 431.841034,53.6722235 C432.640598,53.1150518 433.839944,52.8359207 435.440162,52.8359207 C436.276763,52.8359207 437.076327,53.045269 437.842122,53.4628752 C438.397678,53.811789 438.937983,54.4202074 439.459769,55.2914015 C439.980466,56.1625957 440.241904,57.4328599 440.241904,59.1043751 L440.241904,106.638427 L452.558895,106.638427 L452.558895,58.1644885 C452.558895,57.3292761 452.766956,56.5278648 453.184168,55.7613448 C453.531662,55.1343903 454.088307,54.5597729 454.855191,54.0385829 C455.618808,53.5163026 456.766956,53.2546173 458.299635,53.2546173 C459.132968,53.1848345 459.933622,53.2895087 460.699417,53.5675493 C461.324689,53.8466804 461.898763,54.3340693 462.42055,55.0308065 C462.941247,55.7264534 463.203774,56.8418872 463.203774,58.3727465 L463.203774,106.638427 L475.936887,106.638427 L475.936887,47.9260495 Z M475.728826,40.0395074 C477.119894,41.1876519 478.09375,42.3892237 478.651484,43.6420423 C479.347562,45.1052995 479.660198,46.7081223 479.590482,48.4483298 L479.590482,110.81667 L459.758241,110.81667 L459.758241,58.3727465 C459.688524,57.6073168 459.411836,57.1199279 458.924908,56.9105796 C458.64604,56.8407968 458.367173,56.8059055 458.088306,56.8059055 C457.671095,56.8059055 457.342119,56.9105796 457.097021,57.1199279 C456.854102,57.3281858 456.66347,57.5375341 456.525126,57.745792 C456.313797,58.024923 456.210311,58.3040541 456.210311,58.5820947 L456.210311,110.607322 L436.589399,110.607322 L436.589399,58.6856785 C436.589399,57.9202489 436.310532,57.3281858 435.754977,56.9105796 C435.476109,56.7023217 435.198332,56.5627562 434.919465,56.4929734 C434.431447,56.4929734 434.049094,56.5976475 433.770227,56.8069958 C433.49136,57.0152537 433.283299,57.2594934 433.144955,57.5375341 C432.935805,57.8155747 432.832319,58.1644885 432.832319,58.5820947 L432.832319,110.29439 L413.836679,110.29439 L413.836679,37.4793525 L438.154758,37.4793525 C439.685259,37.3397869 441.025128,37.4608164 442.172187,37.8446216 C443.321424,38.2284268 444.312709,38.69837 445.148221,39.2555417 C446.052361,39.8824962 446.886783,40.6141248 447.652578,41.4493372 C448.069789,40.6828172 448.591576,40.0743988 449.219027,39.6208109 C449.844299,39.1683133 450.469571,38.8030442 451.097022,38.5239131 C451.7931,38.2447821 452.522948,38.0016328 453.288743,37.7922845 L469.67545,37.7922845 C472.318152,38.1411983 474.336679,38.8902726 475.728826,40.0395074 L475.728826,40.0395074 Z" id="Fill-11" fill="#1A1919"></path>
            <polygon id="Fill-12" fill="#FFFFFF" points="0.363333344 0.726666689 13.0800004 0.726666689 13.0800004 5.16632181 4.81898989 5.16632181 4.81898989 10.5516702 13.0800004 10.5516702 13.0800004 15.134645 4.81898989 15.134645 4.81898989 24.7066674 0.363333344 24.7066674"></polygon>
            <polygon id="Stroke-13" points="0.363333344 0.726666689 13.0800004 0.726666689 13.0800004 5.16632181 4.81898989 5.16632181 4.81898989 10.5516702 13.0800004 10.5516702 13.0800004 15.134645 4.81898989 15.134645 4.81898989 24.7066674 0.363333344 24.7066674"></polygon>
            <path d="M23.6372177,16.4418949 L23.6372177,9.44528509 L18.5030525,16.4418949 L23.6372177,16.4418949 Z M27.9766675,24.7066674 L23.6372177,24.7066674 L23.6372177,20.9727535 L15.2308229,20.9727535 L12.7402805,24.7066674 L7.63000023,24.7066674 L24.4417041,0.726666689 L27.9766675,0.726666689 L27.9766675,24.7066674 Z" id="Fill-14" fill="#FFFFFF"></path>
            <path d="M23.6372177,16.4418949 L23.6372177,9.44528509 L18.5030525,16.4418949 L23.6372177,16.4418949 Z M27.9766675,24.7066674 L23.6372177,24.7066674 L23.6372177,20.9727535 L15.2308229,20.9727535 L12.7402805,24.7066674 L7.63000023,24.7066674 L24.4417041,0.726666689 L27.9766675,0.726666689 L27.9766675,24.7066674 Z" id="Stroke-15"></path>
            <polygon id="Fill-16" fill="#FFFFFF" points="29.4300009 0.726666689 34.459445 0.726666689 41.5512216 16.845796 48.6929021 0.726666689 53.773335 0.726666689 53.773335 24.7066674 49.2971731 24.7066674 49.2971731 12.6167775 43.7643506 24.7066674 39.2382848 24.7066674 33.9061628 12.6167775 33.9061628 24.7066674 29.4300009 24.7066674"></polygon>
            <polygon id="Stroke-17" points="29.4300009 0.726666689 34.459445 0.726666689 41.5512216 16.845796 48.6929021 0.726666689 53.773335 0.726666689 53.773335 24.7066674 49.2971731 24.7066674 49.2971731 12.6167775 43.7643506 24.7066674 39.2382848 24.7066674 33.9061628 12.6167775 33.9061628 24.7066674 29.4300009 24.7066674"></polygon>
            <polygon id="Fill-18" fill="#FFFFFF" points="138.066671 0.726666689 143.096976 0.726666689 150.187351 16.845796 157.329798 0.726666689 162.410005 0.726666689 162.410005 24.7066674 157.932958 24.7066674 157.932958 12.6167775 152.400382 24.7066674 147.874518 24.7066674 142.543718 12.6167775 142.543718 24.7066674 138.066671 24.7066674"></polygon>
            <polygon id="Stroke-19" points="138.066671 0.726666689 143.096976 0.726666689 150.187351 16.845796 157.329798 0.726666689 162.410005 0.726666689 162.410005 24.7066674 157.932958 24.7066674 157.932958 12.6167775 152.400382 24.7066674 147.874518 24.7066674 142.543718 12.6167775 142.543718 24.7066674 138.066671 24.7066674"></polygon>
            <polygon id="Fill-20" fill="#FFFFFF" points="55.5900017 24.7066674 60.3133352 24.7066674 60.3133352 0.726666689 55.5900017 0.726666689"></polygon>
            <polygon id="Stroke-21" points="60.3133352 0.726666689 55.5900017 0.726666689 55.5900017 24.7066674 60.3133352 24.7066674"></polygon>
            <polygon id="Fill-22" fill="#FFFFFF" points="61.4033352 0.726666689 66.1357197 0.726666689 66.1357197 20.3343292 72.3033355 20.3343292 72.3033355 24.7066674 61.4033352 24.7066674"></polygon>
            <polygon id="Stroke-23" points="61.4033352 0.726666689 66.1357197 0.726666689 66.1357197 20.3343292 72.3033355 20.3343292 72.3033355 24.7066674 61.4033352 24.7066674"></polygon>
            <polygon id="Fill-24" fill="#FFFFFF" points="66.8533354 0.726666689 72.0387319 0.726666689 76.940057 10.5516702 81.6993464 0.726666689 86.8366693 0.726666689 79.1077407 15.979363 79.1077407 24.7066674 74.5833566 24.7066674 74.5833566 15.979363"></polygon>
            <polygon id="Stroke-25" points="66.8533354 0.726666689 72.0387319 0.726666689 76.940057 10.5516702 81.6993464 0.726666689 86.8366693 0.726666689 79.1077407 15.979363 79.1077407 24.7066674 74.5833566 24.7066674 74.5833566 15.979363"></polygon>
            <path d="M112.226113,7.25012891 C110.167635,3.37251612 106.058361,0.726666689 101.322546,0.726666689 C94.5260593,0.726666689 89.0166694,6.17681264 89.0166694,12.8988764 C89.0166694,19.6220253 94.5260593,25.0700008 101.322546,25.0700008 C106.091279,25.0700008 110.227985,22.3872527 112.270003,18.4640592 L106.69368,18.5096399 C105.318802,19.7641936 103.481972,20.530383 101.464094,20.530383 C97.2033967,20.530383 93.7491925,17.1129179 93.7491925,12.8988764 C93.7491925,8.6848348 97.2033967,5.26845498 101.464094,5.26845498 C103.453443,5.26845498 105.26723,6.01185402 106.635525,7.23493536 L112.226113,7.25012891 Z" id="Fill-26" fill="#FFFFFF"></path>
            <path d="M112.226113,7.25012891 C110.167635,3.37251612 106.058361,0.726666689 101.322546,0.726666689 C94.5260593,0.726666689 89.0166694,6.17681264 89.0166694,12.8988764 C89.0166694,19.6220253 94.5260593,25.0700008 101.322546,25.0700008 C106.091279,25.0700008 110.227985,22.3872527 112.270003,18.4640592 L106.69368,18.5096399 C105.318802,19.7641936 103.481972,20.530383 101.464094,20.530383 C97.2033967,20.530383 93.7491925,17.1129179 93.7491925,12.8988764 C93.7491925,8.6848348 97.2033967,5.26845498 101.464094,5.26845498 C103.453443,5.26845498 105.26723,6.01185402 106.635525,7.23493536 L112.226113,7.25012891 Z" id="Stroke-27"></path>
            <path d="M132.124105,13.0800004 C132.124105,8.76389418 128.623227,5.26411169 124.30712,5.26411169 C119.991014,5.26411169 116.492327,8.76389418 116.492327,13.0800004 C116.492327,17.3961066 119.991014,20.8958891 124.30712,20.8958891 C128.623227,20.8958891 132.124105,17.3961066 132.124105,13.0800004 M124.260004,25.4333341 C117.437948,25.4333341 111.90667,19.9031518 111.90667,13.0800004 C111.90667,6.25794472 117.437948,0.726666689 124.260004,0.726666689 C131.083155,0.726666689 136.613338,6.25794472 136.613338,13.0800004 C136.613338,19.9031518 131.083155,25.4333341 124.260004,25.4333341" id="Fill-28" fill="#FFFFFF"></path>
            <path d="M132.124105,13.0800004 C132.124105,8.76389418 128.623227,5.26411169 124.30712,5.26411169 C119.991014,5.26411169 116.492327,8.76389418 116.492327,13.0800004 C116.492327,17.3961066 119.991014,20.8958891 124.30712,20.8958891 C128.623227,20.8958891 132.124105,17.3961066 132.124105,13.0800004 Z M124.260004,25.4333341 C117.437948,25.4333341 111.90667,19.9031518 111.90667,13.0800004 C111.90667,6.25794472 117.437948,0.726666689 124.260004,0.726666689 C131.083155,0.726666689 136.613338,6.25794472 136.613338,13.0800004 C136.613338,19.9031518 131.083155,25.4333341 124.260004,25.4333341 Z" id="Stroke-29"></path>
            <path d="M168.36116,5.34221424 L168.36116,11.845891 L171.869243,11.8426337 C173.403283,11.55708 174.565764,10.2107429 174.565764,8.5940526 C174.565764,6.97627659 173.403283,5.63102526 171.869243,5.3454715 L168.36116,5.34221424 Z M171.869243,0.729923956 C175.929234,1.05565067 179.123339,4.45189455 179.123339,8.5940526 C179.123339,12.7362107 175.929234,16.1324545 171.869243,16.4581813 L168.36116,16.4418949 L168.36116,24.7066674 L163.863338,24.7066674 L163.863338,0.726666689 L168.36116,0.726666689 L171.869243,0.729923956 Z" id="Fill-30" fill="#FFFFFF"></path>
            <path d="M168.36116,5.34221424 L168.36116,11.845891 L171.869243,11.8426337 C173.403283,11.55708 174.565764,10.2107429 174.565764,8.5940526 C174.565764,6.97627659 173.403283,5.63102526 171.869243,5.3454715 L168.36116,5.34221424 Z M171.869243,0.729923956 C175.929234,1.05565067 179.123339,4.45189455 179.123339,8.5940526 C179.123339,12.7362107 175.929234,16.1324545 171.869243,16.4581813 L168.36116,16.4418949 L168.36116,24.7066674 L163.863338,24.7066674 L163.863338,0.726666689 L168.36116,0.726666689 L171.869243,0.729923956 Z" id="Stroke-31"></path>
            <path d="M233.907037,12.320997 C235.448059,12.0324883 236.613914,10.6722191 236.613914,9.03989603 C236.613914,7.40537898 235.448059,6.04510976 233.907037,5.75660105 L228.645966,5.75660105 L228.645966,12.325385 L233.907037,12.320997 Z M228.645966,25.4333341 L224.176674,25.4333341 L224.176674,1.09987296 L230.386569,1.09000003 L233.907037,1.09329101 C237.982621,1.4223884 241.188995,4.8548742 241.188995,9.03989603 C241.188995,12.4581209 239.048141,15.3750208 236.041347,16.5071159 L241.253341,25.4333341 L236.360894,25.4333341 L229.057124,12.8815596 L228.645966,12.8815596 L228.645966,25.4333341 Z" id="Fill-32" fill="#FFFFFF"></path>
            <path d="M233.907037,12.320997 C235.448059,12.0324883 236.613914,10.6722191 236.613914,9.03989603 C236.613914,7.40537898 235.448059,6.04510976 233.907037,5.75660105 L228.645966,5.75660105 L228.645966,12.325385 L233.907037,12.320997 Z M228.645966,25.4333341 L224.176674,25.4333341 L224.176674,1.09987296 L230.386569,1.09000003 L233.907037,1.09329101 C237.982621,1.4223884 241.188995,4.8548742 241.188995,9.03989603 C241.188995,12.4581209 239.048141,15.3750208 236.041347,16.5071159 L241.253341,25.4333341 L236.360894,25.4333341 L229.057124,12.8815596 L228.645966,12.8815596 L228.645966,25.4333341 Z" id="Stroke-33"></path>
            <path d="M185.158007,14.7054144 L185.160164,18.2016006 C185.444812,19.7319944 186.780721,20.8898083 188.386183,20.8898083 C189.992723,20.8898083 191.329709,19.7319944 191.61328,18.2016006 L191.616514,14.7054144 L191.628375,1.09000003 L196.200006,1.09000003 L196.200006,14.7054144 L196.196771,18.2016006 C195.873307,22.2501583 192.500651,25.4333341 188.386183,25.4333341 C184.273871,25.4333341 180.901215,22.2501583 180.576672,18.2016006 L180.592845,14.7054144 L180.585298,1.09000003 L185.173102,1.09000003 L185.158007,14.7054144 Z" id="Fill-34" fill="#FFFFFF"></path>
            <path d="M185.158007,14.7054144 L185.160164,18.2016006 C185.444812,19.7319944 186.780721,20.8898083 188.386183,20.8898083 C189.992723,20.8898083 191.329709,19.7319944 191.61328,18.2016006 L191.616514,14.7054144 L191.628375,1.09000003 L196.200006,1.09000003 L196.200006,14.7054144 L196.196771,18.2016006 C195.873307,22.2501583 192.500651,25.4333341 188.386183,25.4333341 C184.273871,25.4333341 180.901215,22.2501583 180.576672,18.2016006 L180.592845,14.7054144 L180.585298,1.09000003 L185.173102,1.09000003 L185.158007,14.7054144 Z" id="Stroke-35"></path>
            <polygon id="Fill-36" fill="#FFFFFF" points="200.912937 25.4333341 205.51518 25.4333341 205.51518 5.67728416 209.64334 5.67728416 209.64334 1.09000003 196.926673 1.09000003 196.926673 5.67728416 200.912937 5.67728416"></polygon>
            <polygon id="Stroke-37" points="200.912937 25.4333341 205.51518 25.4333341 205.51518 5.67728416 209.64334 5.67728416 209.64334 1.09000003 196.926673 1.09000003 196.926673 5.67728416 200.912937 5.67728416"></polygon>
            <polygon id="Fill-38" fill="#FFFFFF" points="223.086673 25.4333341 210.73334 25.4333341 210.73334 1.09000003 223.086673 1.09000003 223.086673 5.54559179 215.160596 5.54559179 215.160596 11.3257893 223.086673 11.3257893 223.086673 15.8713708 215.160596 15.8713708 215.160596 20.9360398 223.086673 20.9360398"></polygon>
            <polygon id="Stroke-39" points="223.086673 25.4333341 210.73334 25.4333341 210.73334 1.09000003 223.086673 1.09000003 223.086673 5.54559179 215.160596 5.54559179 215.160596 11.3257893 223.086673 11.3257893 223.086673 15.8713708 215.160596 15.8713708 215.160596 20.9360398 223.086673 20.9360398"></polygon>
            <g id="Group-13" transform="translate(244.160007, 0.000000)" fill="#FFFFFF" fill-rule="nonzero">
                <polygon id="Path" points="1.28517538 0.443765155 1.26919804e-13 0.443765155 1.26919804e-13 1.10365047e-14 3.06192332 1.10365047e-14 3.06192332 0.443765155 1.7874343 0.443765155 1.7874343 3.90052135 1.28517538 3.90052135"></polygon>
                <polygon id="Path" points="5.13901422 3.90052135 4.07431531 0.731171991 4.07431531 3.90052135 3.56024516 3.90052135 3.56024516 1.10365047e-14 4.27116931 1.10365047e-14 5.39604929 3.3161462 6.5198044 1.10365047e-14 7.23072855 1.10365047e-14 7.23072855 3.90052135 6.71890816 3.90052135 6.71890816 0.731171991 5.65308437 3.90052135"></polygon>
            </g>
            <g id="Group-13" transform="translate(269.230008, 119.900004)" fill="#FFFFFF" fill-rule="nonzero">
                <polygon id="Path" points="1.28517538 0.443765155 1.26919804e-13 0.443765155 1.26919804e-13 1.10365047e-14 3.06192332 1.10365047e-14 3.06192332 0.443765155 1.7874343 0.443765155 1.7874343 3.90052135 1.28517538 3.90052135"></polygon>
                <polygon id="Path" points="5.13901422 3.90052135 4.07431531 0.731171991 4.07431531 3.90052135 3.56024516 3.90052135 3.56024516 1.10365047e-14 4.27116931 1.10365047e-14 5.39604929 3.3161462 6.5198044 1.10365047e-14 7.23072855 1.10365047e-14 7.23072855 3.90052135 6.71890816 3.90052135 6.71890816 0.731171991 5.65308437 3.90052135"></polygon>
            </g>
        </g>
    </g>
</svg>