<?xml version="1.0" encoding="UTF-8"?>
<svg width="480px" height="139px" viewBox="0 0 480 139" version="1.1" xmlns="http://www.w3.org/2000/svg" xmlns:xlink="http://www.w3.org/1999/xlink">
    <title>syslogo</title>
    <g id="Page-1" stroke="none" stroke-width="1" fill="none" fill-rule="evenodd">
        <g id="syslogo">
            <g id="Group-10" transform="translate(0.000000, 119.900004)" fill="#FFFFFF">
                <polygon id="path7807" points="45.2527862 4.57110476 67.3788694 7.19705634 67.3788694 2.8204682 45.2527862 2.3140298e-14"></polygon>
                <polygon id="path7807-3" points="45.2284716 10.2614715 67.3545548 12.887423 67.3545548 8.51083491 45.2284716 5.69036671"></polygon>
                <polygon id="path7807-3-9" points="45.2771008 15.8537787 67.403184 18.4797303 67.403184 14.1031422 45.2771008 11.282674"></polygon>
                <rect id="rect7839" fill-rule="nonzero" x="70.3540964" y="0.43765914" width="3.98755816" height="11.038728"></rect>
                <rect id="rect7841" fill-rule="nonzero" x="95.4067774" y="6.95391057" width="21.1048814" height="4.42521697"></rect>
                <rect id="rect7843" fill-rule="nonzero" x="152.174295" y="0.63217576" width="12.7893636" height="4.4738458"></rect>
                <rect id="rect7845" fill-rule="nonzero" x="126.73258" y="0.583543348" width="22.0288259" height="4.66836047"></rect>
                <rect id="rect7845-3" fill-rule="nonzero" x="126.65964" y="12.837996" width="22.0288259" height="4.66836047"></rect>
                <rect id="rect7864" fill-rule="nonzero" x="145.162874" y="3.84167395" width="3.59852784" height="11.3791292"></rect>
                <rect id="rect7866" fill-rule="nonzero" x="220.281172" y="7.2456855" width="21.3480236" height="4.76561812"></rect>
                <path d="M18.9165863,5.30053557 C18.9165863,13.8865841 12.7407341,13.1297644 12.7407341,13.1297644 L2.13966524,13.1297644 L2.13966524,17.65224 L15.4153155,17.7008692 C19.4655623,17.4921142 22.369228,11.7006007 22.369228,8.75317628 L22.4664857,0.486288295 L0,0.486288295 L0,5.34916473 L18.9165863,5.30053557 Z" id="path7870"></path>
                <path d="M196.245564,0.747098452 C197.926242,0.747098452 199.288701,2.10185957 199.288701,3.77304209 C199.288701,5.44422462 197.926242,6.79898574 196.245564,6.79898574 C194.564886,6.79898574 193.202427,5.44422462 193.202427,3.77304209 C193.202427,2.10185957 194.564886,0.747098452 196.245564,0.747098452 Z M196.24459,2.58551666 C195.608401,2.58551666 195.092668,3.11664459 195.092668,3.77182409 C195.092668,4.42700359 195.608401,4.95813151 196.24459,4.95813151 C196.880779,4.95813151 197.396512,4.42700359 197.396512,3.77182409 C197.396512,3.11664459 196.880779,2.58551666 196.24459,2.58551666 Z" id="Combined-Shape" fill-rule="nonzero"></path>
                <polygon id="path7945" points="202.549387 17.5617198 220.429964 17.5617198 220.429964 13.3666606 216.785077 13.3666606 216.785077 4.97654529 204.199902 4.97654529 204.199902 9.48107318 213.965449 9.48107318 213.965449 13.5042044 202.618159 13.5042044"></polygon>
                <rect id="rect7947" fill-rule="nonzero" x="250.64309" y="7.3491576" width="13.891833" height="4.67645859"></rect>
                <path d="M244.522431,6.14565766 C247.459939,6.14565766 247.71293,3.45880891 247.857847,0.850257916 L266.80438,0.850257916 L266.80438,9.92808884 C266.80438,11.8593847 264.070195,17.4241761 260.649337,17.4241761 L246.172947,17.4241761 L246.172947,13.4354325 L258.895665,13.4354325 C261.948923,13.4354325 263.331424,8.7192479 263.331424,5.66425769 L250.50555,5.66425769 C250.50555,6.76249107 247.890378,10.9596607 244.556819,10.9596607 L244.522431,6.14565766 Z" id="path7951"></path>
                <path d="M88.8573401,0.316086252 L88.8573401,6.66213889 C88.8573401,9.46911781 86.7879598,13.0081915 83.7270066,13.0081915 L73.5879091,13.0081915 L73.5879091,17.6279254 L85.0156694,17.6279254 C88.5803799,17.6279254 92.2856662,13.2940132 92.2856662,9.70143829 L92.2613386,0.316086252 L88.8573401,0.316086252 Z" id="path7953"></path>
                <path d="M171.06692,0.85616884 L171.06692,6.72083779 C171.06692,9.52781671 169.203855,13.0325061 166.142902,13.0325061 L152.210763,13.0325061 L152.210763,17.4334121 L167.382936,17.4577071 C170.947646,17.4577071 174.082618,13.5590115 174.082618,9.96643657 L174.127062,0.85616884 L171.06692,0.85616884 Z" id="path7953-8"></path>
                <path d="M199.66695,9.85931695 L180.686029,9.82493264 C180.686029,11.4948289 180.7367,13.3666606 182.9211,13.3666606 L199.495019,13.3666606 L199.495019,17.5273323 L181.304972,17.5273323 C179.362399,17.5273323 177.488157,15.7557942 177.488157,13.4698168 L177.488157,0.815870342 L180.720416,0.815870342 L180.720416,4.77022962 L192.308403,4.77022962 C192.308403,5.78298747 192.778639,6.14565766 193.752603,6.14565766 L199.66695,6.14565766 L199.66695,9.85931695 Z" id="path7998"></path>
                <path d="M24.3527136,17.5549817 L32.2305713,17.5549817 C34.509664,17.5549817 35.2941853,14.8405454 35.2941853,13.9564535 L39.4276276,13.9564535 C41.6332099,13.9564535 43.074785,12.2298091 43.074785,10.1634088 L43.074785,4.42521729 L24.4013421,4.42521729 L24.4013421,8.85043459 L39.0385976,8.75317628 L39.0385976,9.92026623 L32.0360579,9.92026623 L32.0360579,13.4215361 L24.4013424,13.4215361 L24.3527136,17.5549817 Z" id="path8000"></path>
            </g>
            <path d="M23.0971007,57.5748918 C22.9586707,57.0189917 22.7493907,56.5666417 22.4714407,56.2178417 C21.8446907,55.4526617 20.7655906,55.2433817 19.2341406,55.5910917 L19.2341406,91.5174928 C19.8598006,91.7256828 20.4516706,91.7954428 21.0086606,91.7256828 C21.4969807,91.6559228 21.9308007,91.4477328 22.3144807,91.1000228 C22.6970707,90.7512228 22.9586707,90.0895928 23.0971007,89.1140427 L23.0971007,57.5748918 Z M24.3516907,53.0328616 C24.9773508,53.6247316 25.4645808,54.2689217 25.8133808,54.9643417 C26.1610908,55.7317017 26.3692808,56.6004317 26.4401308,57.5748918 L26.4401308,87.8616327 C26.5088008,89.6034527 26.3529308,90.9430628 25.9692508,91.8837328 C25.5866608,92.8233128 25.1168708,93.5012929 24.5598808,93.9187629 C23.9331307,94.4757529 23.2366207,94.7896729 22.4714407,94.8583429 L16.2050305,94.8583429 L15.9968405,51.9352316 L21.6365007,51.9352316 C22.8202407,52.0758416 23.7249407,52.4409916 24.3516907,53.0328616 L24.3516907,53.0328616 Z M39.7032512,48.8025715 C39.4939712,47.2722114 39.0416212,45.8791914 38.3462012,44.6256914 C37.7881212,43.5814713 36.9183011,42.6244513 35.7345611,41.7535413 C34.5508211,40.8826313 32.949611,40.5174812 30.9309309,40.6559112 L3.67221011,40.7605512 L3.67221011,106.869053 L31.348401,106.869053 C32.810091,106.591103 34.132261,106.102783 35.3160011,105.407363 C36.2915511,104.850373 37.2311311,104.014343 38.1358312,102.900363 C39.0405312,101.786383 39.5637312,100.254933 39.7032512,98.304923 L39.7032512,48.8025715 Z M37.4044411,39.0906712 C39.2149312,40.3441712 40.5730712,41.7012213 41.4788613,43.1629113 C42.4522313,44.9047314 43.0441013,46.8536514 43.2544713,49.0107615 L43.2544713,97.156063 C43.2544713,100.081623 42.7149213,102.361903 41.6347313,103.997993 C40.5556312,105.634083 39.3533612,106.938813 38.0322812,107.913273 C36.4997411,109.027253 34.7601011,109.793523 32.811181,110.210993 L0.33136001,110.210993 L0.33136001,37.0011411 L29.6774309,37.0011411 C33.019371,37.1417511 35.5950411,37.8371712 37.4044411,39.0906712 L37.4044411,39.0906712 Z" id="Fill-1" fill="#FFFFFF"></path>
            <path d="M51.1918516,106.033023 L64.559612,106.033023 L64.559612,41.4919413 L51.1918516,41.4919413 L51.1918516,106.033023 Z M47.8488215,110.002803 L68.1097421,110.002803 L68.1097421,37.3150611 L47.8488215,37.3150611 L47.8488215,110.002803 Z" id="Fill-3" fill="#FFFFFF"></path>
            <path d="M93.0707429,52.0409616 C94.1836329,52.1804816 95.0371029,52.4409916 95.6289729,52.8246716 C96.2208429,53.2072616 96.690633,53.6421716 97.038343,54.1294017 C97.387143,54.6874817 97.630213,55.3131417 97.769733,56.0085617 L97.769733,59.0376718 L111.346773,67.1832421 L111.137493,49.3257715 C111.206163,47.5152815 110.806133,46.0361514 109.936313,44.8862014 C109.066493,43.7384313 108.109473,42.8500813 107.065253,42.2233313 C105.810663,41.4581513 104.383853,40.9709213 102.782643,40.7605512 L82.5228125,40.7605512 C80.9205125,40.9011613 79.6670124,41.3360713 78.7623124,42.0663713 C77.8576124,42.7977613 77.1611024,43.5465913 76.6738723,44.3117714 C76.1157923,45.2862314 75.7332023,46.3315414 75.5250123,47.4455215 L75.5250123,64.363412 C75.4552523,65.756432 75.7332023,66.9750521 76.3610423,68.0192721 C76.9867024,69.0634921 77.6832124,69.9681921 78.4494824,70.7344622 C79.2844224,71.6391622 80.2948525,72.4403122 81.4785925,73.1357322 L98.605763,84.2068626 L98.605763,90.9942928 C98.605763,92.3175528 98.326723,93.3443329 97.769733,94.0757229 C97.212743,94.8071129 96.585993,95.3466629 95.8905729,95.6943729 C95.1243029,96.1118429 94.2185129,96.390883 93.1742929,96.529313 C91.8521228,96.390883 90.8427828,96.0954929 90.1462728,95.6431429 C89.4497627,95.1907929 88.9276527,94.6861229 88.5799427,94.1280429 C88.1613827,93.5023829 87.8823427,92.7709928 87.7439127,91.9338728 L87.7439127,88.5930227 L75.5250123,81.2823925 L75.3168223,98.409563 C75.3854923,100.428243 75.8214923,101.977133 76.6215523,103.056233 C77.4216124,104.136423 78.3099624,104.955013 79.2844224,105.510913 C80.3984025,106.138753 81.6856925,106.521343 83.1484725,106.659773 L103.514033,106.659773 C105.531623,106.591103 107.046723,106.138753 108.057153,105.302723 C109.066493,104.466693 109.814233,103.561993 110.301463,102.587533 C110.858453,101.403793 111.137493,100.080533 111.137493,98.617753 L111.137493,83.0580025 C111.206163,82.2219725 110.997973,81.3870325 110.510743,80.5510025 C110.022423,79.7160624 109.466523,78.9846724 108.840863,78.3579224 C108.073503,77.5916524 107.238563,76.8602624 106.333863,76.1648423 L87.7439127,64.154132 L87.7439127,56.4260317 C87.8136727,55.2422917 88.1439427,54.3724717 88.7358127,53.8165716 C89.3276827,53.2595816 89.9369928,52.8410216 90.5637428,52.5619816 C91.3300128,52.2840316 92.1660428,52.1107216 93.0707429,52.0409616 L93.0707429,52.0409616 Z M94.7417129,61.1261119 L94.7417129,58.0970018 C94.8103829,56.7050717 94.4975529,55.8690417 93.8021329,55.5910917 C93.5230929,55.4526617 93.1394129,55.4526617 92.6532728,55.5910917 C92.0951928,55.5910917 91.6951628,55.7131717 91.4510028,55.9573317 C91.2079328,56.2004017 91.0509728,56.4968817 90.9823028,56.8445917 C90.8416928,57.1923018 90.8416928,57.6097718 90.9823028,58.0970018 L90.9823028,62.0656919 L107.065253,72.5089822 C109.082843,73.6240523 110.632823,74.8067023 111.711923,76.0602023 C112.792113,77.3137024 113.539853,78.4974424 113.957323,79.6114224 C114.444554,80.8649225 114.688714,82.1870925 114.688714,83.5790226 L114.688714,99.558423 C114.549194,101.856143 113.957323,103.718953 112.913103,105.145763 C111.868883,106.573663 110.685143,107.670203 109.361883,108.435383 C107.830433,109.340083 106.124583,110.002803 104.245423,110.419183 L83.1484725,110.419183 C80.5019525,110.349423 78.4309524,109.688883 76.9343824,108.435383 C75.4378123,107.182973 74.3412723,105.859713 73.6447623,104.466693 C72.8098222,102.795723 72.2866222,100.916563 72.0784322,98.828123 L72.0784322,75.0159823 L91.0858528,86.6092227 L91.0858528,90.6814628 C91.0858528,91.3082128 91.1730528,91.7790928 91.3474528,92.0919228 C91.5207628,92.4047528 91.7474828,92.6314728 92.0265228,92.7699028 C92.3044728,92.9791828 92.6521828,93.0838229 93.0707429,93.0838229 C94.1149629,93.0140628 94.7068329,92.5965928 94.8463529,91.8303228 C94.9150229,91.5523728 94.8801429,91.1686928 94.7417129,90.6814628 L94.7417129,85.8778326 L80.8518425,77.5229824 C78.4135124,76.2008123 76.5866723,74.7903523 75.3691423,73.2937822 C74.1494323,71.7972122 73.2621722,70.4554222 72.7051822,69.2716821 C72.0784322,67.8797521 71.7656022,66.487822 71.7656022,65.094802 L71.7656022,47.9665415 C71.9040322,45.3222014 72.5307822,43.2686413 73.6447623,41.8058613 C74.7587423,40.3430812 76.0122423,39.2639812 77.4052624,38.5674712 C79.0053824,37.8022912 80.7809925,37.3499411 82.7310025,37.2104211 L101.425593,37.2104211 C104.626923,37.3499411 107.099043,37.9418112 108.840863,38.9860312 C110.580503,40.0302512 111.903763,41.2139913 112.808463,42.5361613 C113.784013,44.0687013 114.409674,45.7745514 114.688714,47.6537115 L114.688714,74.2845923 L94.7417129,61.1261119 Z" id="Fill-4" fill="#FFFFFF"></path>
            <path d="M156.150135,41.3873013 L144.035874,41.3873013 L143.931234,58.8283918 L134.113604,68.8553021 L133.696134,40.9709213 L121.477234,40.9709213 L121.477234,105.928383 L133.592584,105.928383 L133.592584,78.9846724 L143.095204,87.9662727 L143.095204,106.033023 L155.940855,106.033023 L155.940855,82.9533625 L147.690645,73.3450122 L156.150135,63.5284719 L156.150135,41.3873013 Z M159.492075,64.677332 L151.973255,73.3450122 L159.492075,82.5348025 L159.492075,110.002803 L140.171824,110.002803 L140.171824,89.7418827 L137.455544,87.2348827 L137.455544,110.210993 L117.926014,110.210993 L117.926014,37.2104211 L137.455544,37.2104211 L137.455544,60.1854418 L140.171824,56.9492317 L140.171824,37.2104211 L159.492075,37.2104211 L159.492075,64.677332 Z" id="Fill-5" fill="#FFFFFF"></path>
            <path d="M214.530537,52.0409616 C215.643427,52.1804816 216.497987,52.4409916 217.089857,52.8246716 C217.681727,53.2072616 218.150427,53.6421716 218.499227,54.1294017 C218.846937,54.6874817 219.090007,55.3131417 219.229527,56.0085617 L219.229527,59.0376718 L232.806567,67.1832421 L232.597287,49.3257715 C232.667047,47.5152815 232.265927,46.0361514 231.397197,44.8862014 C230.526287,43.7384313 229.569267,42.8500813 228.525047,42.2233313 C227.270457,41.4581513 225.843647,40.9709213 224.242437,40.7605512 L203.982606,40.7605512 C202.380306,40.9011613 201.126806,41.3360713 200.222106,42.0663713 C199.317406,42.7977613 198.620896,43.5465913 198.133666,44.3117714 C197.575586,45.2862314 197.194086,46.3315414 196.984806,47.4455215 L196.984806,64.363412 C196.915046,65.756432 197.194086,66.9750521 197.820836,68.0192721 C198.446496,69.0634921 199.143006,69.9681921 199.909276,70.7344622 C200.744216,71.6391622 201.754646,72.4403122 202.938386,73.1357322 L220.065557,84.2068626 L220.065557,90.9942928 C220.065557,92.3175528 219.786517,93.3443329 219.229527,94.0757229 C218.672537,94.8071129 218.045787,95.3466629 217.350367,95.6943729 C216.584097,96.1118429 215.679397,96.390883 214.635177,96.529313 C213.311917,96.390883 212.302577,96.0954929 211.606066,95.6431429 C210.910646,95.1907929 210.387446,94.6861229 210.039736,94.1280429 C209.621176,93.5023829 209.342136,92.7709928 209.203706,91.9338728 L209.203706,88.5930227 L196.984806,81.2823925 L196.776616,98.409563 C196.845286,100.428243 197.281286,101.977133 198.081346,103.056233 C198.881406,104.136423 199.769756,104.955013 200.744216,105.510913 C201.858196,106.138753 203.146576,106.521343 204.608266,106.659773 L224.973827,106.659773 C226.992507,106.591103 228.506517,106.138753 229.516947,105.302723 C230.526287,104.466693 231.274027,103.561993 231.761257,102.587533 C232.318247,101.403793 232.597287,100.080533 232.597287,98.617753 L232.597287,83.0580025 C232.667047,82.2219725 232.457767,81.3870325 231.970537,80.5510025 C231.483307,79.7160624 230.926317,78.9846724 230.300657,78.3579224 C229.534387,77.5916524 228.698357,76.8602624 227.793657,76.1648423 L209.203706,64.154132 L209.203706,56.4260317 C209.273466,55.2422917 209.603736,54.3724717 210.195606,53.8165716 C210.787476,53.2595816 211.396786,52.8410216 212.023536,52.5619816 C212.789807,52.2840316 213.625837,52.1107216 214.530537,52.0409616 L214.530537,52.0409616 Z M216.201507,61.1261119 L216.201507,58.0970018 C216.271267,56.7050717 215.957347,55.8690417 215.261927,55.5910917 C214.982887,55.4526617 214.599207,55.4526617 214.113067,55.5910917 C213.554987,55.5910917 213.154957,55.7131717 212.911887,55.9573317 C212.667727,56.2004017 212.510767,56.4968817 212.442097,56.8445917 C212.301487,57.1923018 212.301487,57.6097718 212.442097,58.0970018 L212.442097,62.0656919 L228.525047,72.5089822 C230.542637,73.6240523 232.092617,74.8067023 233.171717,76.0602023 C234.251907,77.3137024 234.999647,78.4974424 235.417117,79.6114224 C235.904347,80.8649225 236.148507,82.1870925 236.148507,83.5790226 L236.148507,99.558423 C236.008987,101.856143 235.417117,103.718953 234.372897,105.145763 C233.328677,106.573663 232.144937,107.670203 230.821677,108.435383 C229.290227,109.340083 227.584377,110.002803 225.705217,110.419183 L204.608266,110.419183 C201.962836,110.349423 199.890746,109.688883 198.394176,108.435383 C196.897606,107.182973 195.801066,105.859713 195.105646,104.466693 C194.269616,102.795723 193.747506,100.916563 193.538226,98.828123 L193.538226,75.0159823 L212.546737,86.6092227 L212.546737,90.6814628 C212.546737,91.3082128 212.632847,91.7790928 212.807247,92.0919228 C212.980557,92.4047528 213.207277,92.6314728 213.486317,92.7699028 C213.764267,92.9791828 214.111977,93.0838229 214.530537,93.0838229 C215.574757,93.0140628 216.166627,92.5965928 216.306147,91.8303228 C216.374817,91.5523728 216.339937,91.1686928 216.201507,90.6814628 L216.201507,85.8778326 L202.311636,77.5229824 C199.874396,76.2008123 198.046466,74.7903523 196.828936,73.2937822 C195.609226,71.7972122 194.721966,70.4554222 194.164976,69.2716821 C193.538226,67.8797521 193.225396,66.487822 193.225396,65.094802 L193.225396,47.9665415 C193.363826,45.3222014 193.990576,43.2686413 195.105646,41.8058613 C196.218536,40.3430812 197.472036,39.2639812 198.865056,38.5674712 C200.466266,37.8022912 202.240786,37.3499411 204.191886,37.2104211 L222.885387,37.2104211 C226.086717,37.3499411 228.558837,37.9418112 230.300657,38.9860312 C232.040297,40.0302512 233.363557,41.2139913 234.268257,42.5361613 C235.243807,44.0687013 235.869467,45.7745514 236.148507,47.6537115 L236.148507,74.2845923 L216.201507,61.1261119 Z" id="Fill-6" fill="#FFFFFF"></path>
            <path d="M279.801919,41.2837513 L267.166638,41.2837513 L267.166638,69.7948821 C267.096878,70.6995822 266.851628,71.4996422 266.435248,72.1961522 C266.085358,72.8229022 265.546898,73.3798922 264.816598,73.8671223 C264.084118,74.3543523 263.024638,74.6333923 261.631618,74.7031523 C260.586308,74.7729123 259.681608,74.6682723 258.915338,74.3892323 C258.218828,74.1112823 257.593168,73.6240523 257.036178,72.9275422 C256.478098,72.2310322 256.165268,71.1181422 256.096598,69.5845121 L256.096598,41.2837513 L243.876607,41.2837513 L243.876607,78.3579224 C243.947457,79.7509424 244.260287,81.0044425 244.818367,82.1184225 C245.305598,83.0928825 246.052248,83.9812326 247.061588,84.7812926 C248.070928,85.5813526 249.550058,85.9813826 251.500068,85.9813826 L267.063088,85.9813826 L267.063088,91.4128528 C266.922478,92.3175528 266.609648,93.1176129 266.121328,93.8141229 C265.704948,94.3722029 265.076018,94.8932229 264.242168,95.3804529 C263.405048,95.8687729 262.292158,96.1118429 260.899138,96.1118429 L246.906808,96.1118429 L246.906808,106.451583 L273.536598,106.451583 C274.720338,106.313153 275.765648,105.964353 276.670348,105.407363 C277.434438,104.919043 278.148389,104.189833 278.810019,103.214283 C279.471649,102.238733 279.801919,100.916563 279.801919,99.244503 L279.801919,41.2837513 Z M283.248499,37.4197011 L283.248499,99.453783 C283.178739,101.891023 282.674069,103.823593 281.735579,105.250403 C280.793819,106.678303 279.734339,107.774843 278.550599,108.540023 C277.226248,109.374963 275.695888,109.966833 273.954068,110.315633 L243.146307,110.315633 L243.146307,92.5617128 L262.779388,92.5617128 L262.779388,89.1140427 L249.411628,89.1140427 C246.835958,88.9767027 244.885947,88.3488627 243.563777,87.2348827 C242.239427,86.1209026 241.300937,84.8674026 240.742857,83.4754726 C240.047437,81.8742625 239.699727,80.0997425 239.699727,78.1497324 L239.699727,37.4197011 L259.752458,37.4197011 L259.752458,70.7344622 L263.199038,70.7344622 L263.199038,37.4197011 L283.248499,37.4197011 Z" id="Fill-7" fill="#FFFFFF"></path>
            <path d="M308.105949,52.0409616 C309.219929,52.1804816 310.073399,52.4409916 310.66527,52.8246716 C311.25714,53.2072616 311.72475,53.6421716 312.07464,54.1294017 C312.42126,54.6874817 312.66651,55.3131417 312.80494,56.0085617 L312.80494,59.0376718 L326.38307,67.1832421 L326.17161,49.3257715 C326.24246,47.5152815 325.84243,46.0361514 324.97152,44.8862014 C324.10061,43.7384313 323.14468,42.8500813 322.09937,42.2233313 C320.84587,41.4581513 319.41906,40.9709213 317.81785,40.7605512 L297.556929,40.7605512 C295.956809,40.9011613 294.702219,41.3360713 293.797519,42.0663713 C292.892819,42.7977613 292.196309,43.5465913 291.709079,44.3117714 C291.150999,45.2862314 290.768409,46.3315414 290.559129,47.4455215 L290.559129,64.363412 C290.489369,65.756432 290.768409,66.9750521 291.396249,68.0192721 C292.021909,69.0634921 292.718419,69.9681921 293.484689,70.7344622 C294.319629,71.6391622 295.330059,72.4403122 296.513799,73.1357322 L313.64097,84.2068626 L313.64097,90.9942928 C313.64097,92.3175528 313.36193,93.3443329 312.80494,94.0757229 C312.24686,94.8071129 311.6212,95.3466629 310.92469,95.6943729 C310.158419,96.1118429 309.253719,96.390883 308.210589,96.529313 C306.886239,96.390883 305.876899,96.0954929 305.180389,95.6431429 C304.484969,95.1907929 303.962859,94.6861229 303.614059,94.1280429 C303.196589,93.5023829 302.917549,92.7709928 302.779119,91.9338728 L302.779119,88.5930227 L290.559129,81.2823925 L290.350939,98.409563 C290.420699,100.428243 290.855609,101.977133 291.655669,103.056233 C292.456819,104.136423 293.344079,104.955013 294.319629,105.510913 C295.432519,106.138753 296.720899,106.521343 298.183679,106.659773 L318.54815,106.659773 C320.56683,106.591103 322.08193,106.138753 323.09127,105.302723 C324.10061,104.466693 324.84944,103.561993 325.33776,102.587533 C325.89257,101.403793 326.17161,100.080533 326.17161,98.617753 L326.17161,83.0580025 C326.24246,82.2219725 326.03318,81.3870325 325.54595,80.5510025 C325.05872,79.7160624 324.50064,78.9846724 323.87498,78.3579224 C323.10871,77.5916524 322.27377,76.8602624 321.36907,76.1648423 L302.779119,64.154132 L302.779119,56.4260317 C302.847789,55.2422917 303.179149,54.3724717 303.771019,53.8165716 C304.362889,53.2595816 304.972199,52.8410216 305.597859,52.5619816 C306.364129,52.2840316 307.201249,52.1107216 308.105949,52.0409616 L308.105949,52.0409616 Z M309.776919,61.1261119 L309.776919,58.0970018 C309.845589,56.7050717 309.532759,55.8690417 308.836249,55.5910917 C308.557209,55.4526617 308.174619,55.4526617 307.688479,55.5910917 C307.130399,55.5910917 306.730369,55.7131717 306.486209,55.9573317 C306.243139,56.2004017 306.086179,56.4968817 306.017509,56.8445917 C305.876899,57.1923018 305.876899,57.6097718 306.017509,58.0970018 L306.017509,62.0656919 L322.09937,72.5089822 C324.11696,73.6240523 325.66694,74.8067023 326.74713,76.0602023 C327.82623,77.3137024 328.57506,78.4974424 328.99253,79.6114224 C329.47976,80.8649225 329.72283,82.1870925 329.72283,83.5790226 L329.72283,99.558423 C329.5844,101.856143 328.99253,103.718953 327.94722,105.145763 C326.90409,106.573663 325.72035,107.670203 324.396,108.435383 C322.86564,109.340083 321.16088,110.002803 319.28063,110.419183 L298.183679,110.419183 C295.537159,110.349423 293.465069,109.688883 291.968499,108.435383 C290.471929,107.182973 289.375389,105.859713 288.679969,104.466693 C287.845029,102.795723 287.321829,100.916563 287.112549,98.828123 L287.112549,75.0159823 L306.122149,86.6092227 L306.122149,90.6814628 C306.122149,91.3082128 306.207169,91.7790928 306.381569,92.0919228 C306.555969,92.4047528 306.781599,92.6314728 307.060639,92.7699028 C307.339679,92.9791828 307.686299,93.0838229 308.105949,93.0838229 C309.149079,93.0140628 309.740949,92.5965928 309.881559,91.8303228 C309.949139,91.5523728 309.915349,91.1686928 309.776919,90.6814628 L309.776919,85.8778326 L295.885959,77.5229824 C293.448719,76.2008123 291.621879,74.7903523 290.404349,73.2937822 C289.184639,71.7972122 288.296289,70.4554222 287.740389,69.2716821 C287.112549,67.8797521 286.799719,66.487822 286.799719,65.094802 L286.799719,47.9665415 C286.938149,45.3222014 287.565989,43.2686413 288.679969,41.8058613 C289.792859,40.3430812 291.047449,39.2639812 292.439379,38.5674712 C294.040589,37.8022912 295.816199,37.3499411 297.766209,37.2104211 L316.45971,37.2104211 C319.66213,37.3499411 322.13316,37.9418112 323.87498,38.9860312 C325.61571,40.0302512 326.93788,41.2139913 327.84258,42.5361613 C328.81813,44.0687013 329.44379,45.7745514 329.72283,47.6537115 L329.72283,74.2845923 L309.776919,61.1261119 Z" id="Fill-8" fill="#FFFFFF"></path>
            <path d="M367.425931,41.3873013 L336.61599,41.3873013 L336.61599,52.4584316 L345.389401,52.4584316 L345.389401,106.451583 L358.131501,106.451583 L358.131501,52.7712616 L367.425931,52.7712616 L367.425931,41.3873013 Z M371.498171,37.6278912 L371.498171,56.6353117 L362.516571,56.6353117 L362.516571,110.210993 L341.42071,110.210993 L341.42071,56.6353117 L332.85658,56.6353117 L332.85658,37.2104211 L371.498171,37.6278912 Z" id="Fill-9" fill="#FFFFFF"></path>
            <path d="M391.238072,68.7495721 L391.238072,52.5619816 L405.022212,52.5619816 L405.022212,41.4919413 L378.600612,41.4919413 L378.600612,107.495803 L405.022212,107.495803 L405.022212,95.9036529 L391.028792,95.9036529 L391.028792,80.0299825 L405.230402,80.0299825 L405.230402,68.7495721 L391.238072,68.7495721 Z M395.310312,56.4260317 L395.310312,64.885522 L408.678073,64.885522 L408.678073,83.8929426 L394.892842,83.8929426 L394.892842,91.9338728 L408.678073,91.9338728 L408.678073,110.523823 L374.736561,110.315633 L374.736561,37.2104211 L409.094453,37.2104211 L409.094453,56.4260317 L395.310312,56.4260317 Z" id="Fill-10" fill="#FFFFFF"></path>
            <path d="M475.829705,47.7583515 C475.759945,46.5746114 475.483085,45.5303914 474.994765,44.6256914 C474.576205,43.8594213 473.862255,43.1465613 472.854004,42.4838413 C471.844664,41.8233013 470.433114,41.4919413 468.623714,41.4919413 L454.317464,41.4919413 C453.201304,41.5617013 452.158174,41.8396513 451.183714,42.3279713 C450.346594,42.7454413 449.495304,43.3732813 448.624394,44.2071314 C447.753484,45.0431614 447.074414,46.1571414 446.587184,47.5501615 C446.029104,46.2279914 445.369654,45.0780414 444.603384,44.1035814 C443.836024,43.2686413 442.897534,42.5023713 441.784644,41.8058613 C440.668483,41.1093513 439.205703,40.7954312 437.396303,40.8662813 L417.867863,41.0744713 L417.867863,106.451583 L429.460013,106.451583 L429.460013,57.9934518 C429.390253,57.0179017 429.564653,56.1480817 429.982123,55.3818117 C430.330923,54.6863917 430.905353,54.0596417 431.706503,53.5026516 C432.506563,52.9456616 433.706653,52.6666216 435.307863,52.6666216 C436.144983,52.6666216 436.945043,52.8759016 437.711313,53.2933716 C438.267213,53.6421716 438.807853,54.2503917 439.329963,55.1213017 C439.850983,55.9922117 440.112583,57.2620618 440.112583,58.9330318 L440.112583,106.451583 L452.437214,106.451583 L452.437214,57.9934518 C452.437214,57.1585118 452.645404,56.3573617 453.062874,55.5910917 C453.410584,54.9643417 453.967574,54.3899117 454.734934,53.8688916 C455.499024,53.3467816 456.647884,53.0851816 458.181514,53.0851816 C459.015364,53.0154216 459.816514,53.1200616 460.582784,53.3980116 C461.208444,53.6770516 461.782874,54.1642817 462.304984,54.8607917 C462.826004,55.5562117 463.088694,56.6712817 463.088694,58.2016418 L463.088694,106.451583 L475.829705,106.451583 L475.829705,47.7583515 Z M475.621515,39.8743812 C477.013445,41.0221513 477.987905,42.2233313 478.545985,43.4757413 C479.242495,44.9385214 479.555325,46.5408214 479.485565,48.2804615 L479.485565,110.628463 L459.641024,110.628463 L459.641024,58.2016418 C459.571264,57.4364618 459.294404,56.9492317 458.807174,56.7399517 C458.528134,56.6701917 458.249094,56.6353117 457.970054,56.6353117 C457.552584,56.6353117 457.223404,56.7399517 456.978154,56.9492317 C456.735084,57.1574218 456.544334,57.3667018 456.405904,57.5748918 C456.194444,57.8539318 456.090894,58.1329718 456.090894,58.4109218 L456.090894,110.419183 L436.457813,110.419183 L436.457813,58.5144718 C436.457813,57.7492918 436.178773,57.1574218 435.622873,56.7399517 C435.343833,56.5317617 435.065883,56.3922417 434.786843,56.3224817 C434.298523,56.3224817 433.915933,56.4271217 433.636893,56.6364017 C433.357853,56.8445917 433.149663,57.0887517 433.011233,57.3667018 C432.801953,57.6446518 432.698403,57.9934518 432.698403,58.4109218 L432.698403,110.106353 L413.690983,110.106353 L413.690983,37.3150611 L438.024143,37.3150611 C439.555593,37.1755411 440.896294,37.2965311 442.044064,37.6802112 C443.194014,38.0638912 444.185914,38.5336812 445.021944,39.0906712 C445.926644,39.7174212 446.761584,40.4488112 447.527854,41.2837513 C447.945324,40.5174812 448.467434,39.9092612 449.095274,39.4558212 C449.720934,39.0034712 450.346594,38.6383212 450.974434,38.3592812 C451.670944,38.0802412 452.401244,37.8371712 453.167514,37.6278912 L469.564384,37.6278912 C472.208724,37.9766912 474.228495,38.7255212 475.621515,39.8743812 L475.621515,39.8743812 Z" id="Fill-11" fill="#FFFFFF"></path>
            <polygon id="Fill-12" fill="#FFFFFF" points="0.545000017 0.728120022 13.3339704 0.728120022 13.3339704 5.18513016 5.02599015 5.18513016 5.02599015 10.5915303 13.3339704 10.5915303 13.3339704 15.1924205 5.02599015 15.1924205 5.02599015 24.8018608 0.545000017 24.8018608"></polygon>
            <polygon id="Stroke-13" points="0.545000017 0.728120022 13.3339704 0.728120022 13.3339704 5.18513016 5.02599015 5.18513016 5.02599015 10.5915303 13.3339704 10.5915303 13.3339704 15.1924205 5.02599015 15.1924205 5.02599015 24.8018608 0.545000017 24.8018608"></polygon>
            <path d="M23.5222007,16.5047805 L23.5222007,9.48082029 L18.3675906,16.5047805 L23.5222007,16.5047805 Z M27.8789309,24.8018608 L23.5222007,24.8018608 L23.5222007,21.0533506 L15.0823305,21.0533506 L12.5818704,24.8018608 L7.45124023,24.8018608 L24.3298907,0.728120022 L27.8789309,0.728120022 L27.8789309,24.8018608 Z" id="Fill-14" fill="#FFFFFF"></path>
            <path d="M23.5222007,16.5047805 L23.5222007,9.48082029 L18.3675906,16.5047805 L23.5222007,16.5047805 Z M27.8789309,24.8018608 L23.5222007,24.8018608 L23.5222007,21.0533506 L15.0823305,21.0533506 L12.5818704,24.8018608 L7.45124023,24.8018608 L24.3298907,0.728120022 L27.8789309,0.728120022 L27.8789309,24.8018608 Z" id="Stroke-15"></path>
            <polygon id="Fill-16" fill="#FFFFFF" points="29.5858709 0.728120022 34.6391111 0.728120022 41.7644413 16.9102605 48.9399115 0.728120022 54.0443817 0.728120022 54.0443817 24.8018608 49.5470415 24.8018608 49.5470415 12.6647104 43.9880413 24.8018608 39.4405612 24.8018608 34.083211 12.6647104 34.083211 24.8018608 29.5858709 24.8018608"></polygon>
            <polygon id="Stroke-17" points="29.5858709 0.728120022 34.6391111 0.728120022 41.7644413 16.9102605 48.9399115 0.728120022 54.0443817 0.728120022 54.0443817 24.8018608 49.5470415 24.8018608 49.5470415 12.6647104 43.9880413 24.8018608 39.4405612 24.8018608 34.083211 12.6647104 34.083211 24.8018608 29.5858709 24.8018608"></polygon>
            <polygon id="Fill-18" fill="#FFFFFF" points="137.905714 0.728120022 142.960044 0.728120022 150.084285 16.9102605 157.260845 0.728120022 162.365315 0.728120022 162.365315 24.8018608 157.866885 24.8018608 157.866885 12.6647104 152.307885 24.8018608 147.760405 24.8018608 142.404144 12.6647104 142.404144 24.8018608 137.905714 24.8018608"></polygon>
            <polygon id="Stroke-19" points="137.905714 0.728120022 142.960044 0.728120022 150.084285 16.9102605 157.260845 0.728120022 162.365315 0.728120022 162.365315 24.8018608 157.866885 24.8018608 157.866885 12.6647104 152.307885 24.8018608 147.760405 24.8018608 142.404144 12.6647104 142.404144 24.8018608 137.905714 24.8018608"></polygon>
            <polygon id="Fill-20" fill="#FFFFFF" points="55.4624717 24.8018608 60.1178618 24.8018608 60.1178618 0.728120022 55.4624717 0.728120022"></polygon>
            <polygon id="Stroke-21" points="60.1178618 0.728120022 55.4635617 0.728120022 55.4635617 24.8018608 60.1178618 24.8018608"></polygon>
            <polygon id="Fill-22" fill="#FFFFFF" points="61.4007919 0.728120022 66.055092 0.728120022 66.055092 20.4124306 72.1209422 20.4124306 72.1209422 24.8018608 61.4007919 24.8018608"></polygon>
            <polygon id="Stroke-23" points="61.4007919 0.728120022 66.055092 0.728120022 66.055092 20.4124306 72.1209422 20.4124306 72.1209422 24.8018608 61.4007919 24.8018608"></polygon>
            <polygon id="Fill-24" fill="#FFFFFF" points="66.9478021 0.728120022 72.1209422 0.728120022 77.0106824 10.5915303 81.7587225 0.728120022 86.8839027 0.728120022 79.1732424 16.0404405 79.1732424 24.8018608 74.6595523 24.8018608 74.6595523 16.0404405"></polygon>
            <polygon id="Stroke-25" points="66.9478021 0.728120022 72.1209422 0.728120022 77.0106824 10.5915303 81.7587225 0.728120022 86.8839027 0.728120022 79.1732424 16.0404405 79.1732424 24.8018608 74.6595523 24.8018608 74.6595523 16.0404405"></polygon>
            <path d="M112.184983,7.36731023 C110.140143,3.47274011 106.058093,0.815320025 101.353653,0.815320025 C94.6021929,0.815320025 89.1293027,6.28930019 89.1293027,13.0407604 C89.1293027,19.7933106 94.6021929,25.2651108 101.353653,25.2651108 C106.090793,25.2651108 110.200093,22.5706307 112.228583,18.6302806 L106.689203,18.6760606 C105.323433,19.9361006 103.498773,20.7056406 101.494263,20.7056406 C97.261793,20.7056406 93.8304729,17.2732305 93.8304729,13.0407604 C93.8304729,8.80829027 97.261793,5.37697016 101.494263,5.37697016 C103.470433,5.37697016 105.272203,6.12362019 106.631433,7.35205023 L112.184983,7.36731023 Z" id="Fill-26" fill="#FFFFFF"></path>
            <path d="M112.184983,7.36731023 C110.140143,3.47274011 106.058093,0.815320025 101.353653,0.815320025 C94.6021929,0.815320025 89.1293027,6.28930019 89.1293027,13.0407604 C89.1293027,19.7933106 94.6021929,25.2651108 101.353653,25.2651108 C106.090793,25.2651108 110.200093,22.5706307 112.228583,18.6302806 L106.689203,18.6760606 C105.323433,19.9361006 103.498773,20.7056406 101.494263,20.7056406 C97.261793,20.7056406 93.8304729,17.2732305 93.8304729,13.0407604 C93.8304729,8.80829027 97.261793,5.37697016 101.494263,5.37697016 C103.470433,5.37697016 105.272203,6.12362019 106.631433,7.35205023 L112.184983,7.36731023 Z" id="Stroke-27"></path>
            <path d="M132.104734,13.0407604 C132.104734,8.74725027 128.622184,5.26579016 124.328674,5.26579016 C120.035164,5.26579016 116.554794,8.74725027 116.554794,13.0407604 C116.554794,17.3342705 120.035164,20.8157306 124.328674,20.8157306 C128.622184,20.8157306 132.104734,17.3342705 132.104734,13.0407604 M124.281804,25.3294208 C117.495464,25.3294208 111.993143,19.8281906 111.993143,13.0407604 C111.993143,6.25442019 117.495464,0.752100023 124.281804,0.752100023 C131.069234,0.752100023 136.570464,6.25442019 136.570464,13.0407604 C136.570464,19.8281906 131.069234,25.3294208 124.281804,25.3294208" id="Fill-28" fill="#FFFFFF"></path>
            <path d="M132.104734,13.0407604 C132.104734,8.74725027 128.622184,5.26579016 124.328674,5.26579016 C120.035164,5.26579016 116.554794,8.74725027 116.554794,13.0407604 C116.554794,17.3342705 120.035164,20.8157306 124.328674,20.8157306 C128.622184,20.8157306 132.104734,17.3342705 132.104734,13.0407604 Z M124.281804,25.3294208 C117.495464,25.3294208 111.993143,19.8281906 111.993143,13.0407604 C111.993143,6.25442019 117.495464,0.752100023 124.281804,0.752100023 C131.069234,0.752100023 136.570464,6.25442019 136.570464,13.0407604 C136.570464,19.8281906 131.069234,25.3294208 124.281804,25.3294208 Z" id="Stroke-29"></path>
            <path d="M168.433345,5.36171016 L168.433345,11.8908104 L171.952955,11.8875404 C173.492035,11.6008704 174.658335,10.2492703 174.658335,8.62626026 C174.658335,7.00216021 173.492035,5.65165017 171.952955,5.36498016 L168.433345,5.36171016 Z M171.952955,0.731390022 C176.026285,1.05839003 179.230885,4.46791014 179.230885,8.62626026 C179.230885,12.7846104 176.026285,16.1941305 171.952955,16.5211305 L168.433345,16.5047805 L168.433345,24.8018608 L163.920745,24.8018608 L163.920745,0.728120022 L168.433345,0.728120022 L171.952955,0.731390022 Z" id="Fill-30" fill="#FFFFFF"></path>
            <path d="M168.433345,5.36171016 L168.433345,11.8908104 L171.952955,11.8875404 C173.492035,11.6008704 174.658335,10.2492703 174.658335,8.62626026 C174.658335,7.00216021 173.492035,5.65165017 171.952955,5.36498016 L168.433345,5.36171016 Z M171.952955,0.731390022 C176.026285,1.05839003 179.230885,4.46791014 179.230885,8.62626026 C179.230885,12.7846104 176.026285,16.1941305 171.952955,16.5211305 L168.433345,16.5047805 L168.433345,24.8018608 L163.920745,24.8018608 L163.920745,0.728120022 L168.433345,0.728120022 L171.952955,0.731390022 Z" id="Stroke-31"></path>
            <path d="M234.080777,12.0859204 C235.620947,11.7992504 236.786157,10.4476503 236.786157,8.82573027 C236.786157,7.20163022 235.620947,5.85003018 234.080777,5.56336017 L228.822617,5.56336017 L228.822617,12.0902804 L234.080777,12.0859204 Z M228.822617,25.1146908 L224.355797,25.1146908 L224.355797,0.936310029 L230.562257,0.926500028 L234.080777,0.929770028 C238.154107,1.25677004 241.358707,4.66738014 241.358707,8.82573027 C241.358707,12.2221704 239.219037,15.1204805 236.213907,16.2453605 L241.423017,25.1146908 L236.533277,25.1146908 L229.233547,12.6429104 L228.822617,12.6429104 L228.822617,25.1146908 Z" id="Fill-32" fill="#FFFFFF"></path>
            <path d="M234.080777,12.0859204 C235.620947,11.7992504 236.786157,10.4476503 236.786157,8.82573027 C236.786157,7.20163022 235.620947,5.85003018 234.080777,5.56336017 L228.822617,5.56336017 L228.822617,12.0902804 L234.080777,12.0859204 Z M228.822617,25.1146908 L224.355797,25.1146908 L224.355797,0.936310029 L230.562257,0.926500028 L234.080777,0.929770028 C238.154107,1.25677004 241.358707,4.66738014 241.358707,8.82573027 C241.358707,12.2221704 239.219037,15.1204805 236.213907,16.2453605 L241.423017,25.1146908 L236.533277,25.1146908 L229.233547,12.6429104 L228.822617,12.6429104 L228.822617,25.1146908 Z" id="Stroke-33"></path>
            <path d="M185.113616,14.6387004 L185.115796,18.1572206 C185.403556,19.6973906 186.754066,20.8626006 188.377076,20.8626006 C190.001176,20.8626006 191.352776,19.6973906 191.639446,18.1572206 L191.642716,14.6387004 L191.654706,0.936310029 L196.276306,0.936310029 L196.276306,14.6387004 L196.273036,18.1572206 C195.946036,22.2316407 192.536516,25.4351508 188.377076,25.4351508 C184.219816,25.4351508 180.810296,22.2316407 180.482206,18.1572206 L180.498556,14.6387004 L180.490926,0.936310029 L185.128876,0.936310029 L185.113616,14.6387004 Z" id="Fill-34" fill="#FFFFFF"></path>
            <path d="M185.113616,14.6387004 L185.115796,18.1572206 C185.403556,19.6973906 186.754066,20.8626006 188.377076,20.8626006 C190.001176,20.8626006 191.352776,19.6973906 191.639446,18.1572206 L191.642716,14.6387004 L191.654706,0.936310029 L196.276306,0.936310029 L196.276306,14.6387004 L196.273036,18.1572206 C195.946036,22.2316407 192.536516,25.4351508 188.377076,25.4351508 C184.219816,25.4351508 180.810296,22.2316407 180.482206,18.1572206 L180.498556,14.6387004 L180.490926,0.936310029 L185.128876,0.936310029 L185.113616,14.6387004 Z" id="Stroke-35"></path>
            <polygon id="Fill-36" fill="#FFFFFF" points="200.893546 25.1146908 205.454106 25.1146908 205.454106 5.49251017 209.544876 5.49251017 209.544876 0.936310029 196.943386 0.936310029 196.943386 5.49251017 200.893546 5.49251017"></polygon>
            <polygon id="Stroke-37" points="200.893546 25.1146908 205.454106 25.1146908 205.454106 5.49251017 209.544876 5.49251017 209.544876 0.936310029 196.943386 0.936310029 196.943386 5.49251017 200.893546 5.49251017"></polygon>
            <polygon id="Fill-38" fill="#FFFFFF" points="223.179687 25.1146908 210.649046 25.1146908 210.649046 0.936310029 223.179687 0.936310029 223.179687 5.36171016 215.139847 5.36171016 215.139847 11.1027403 223.179687 11.1027403 223.179687 15.6175205 215.139847 15.6175205 215.139847 20.6478706 223.179687 20.6478706"></polygon>
            <polygon id="Stroke-39" points="223.179687 25.1146908 210.649046 25.1146908 210.649046 0.936310029 223.179687 0.936310029 223.179687 5.36171016 215.139847 5.36171016 215.139847 11.1027403 223.179687 11.1027403 223.179687 15.6175205 215.139847 15.6175205 215.139847 20.6478706 223.179687 20.6478706"></polygon>
            <g id="Group-13" transform="translate(244.160007, 0.000000)" fill="#FFFFFF" fill-rule="nonzero">
                <polygon id="Path" points="1.28517538 0.443765155 1.26919804e-13 0.443765155 1.26919804e-13 1.10365047e-14 3.06192332 1.10365047e-14 3.06192332 0.443765155 1.7874343 0.443765155 1.7874343 3.90052135 1.28517538 3.90052135"></polygon>
                <polygon id="Path" points="5.13901422 3.90052135 4.07431531 0.731171991 4.07431531 3.90052135 3.56024516 3.90052135 3.56024516 1.10365047e-14 4.27116931 1.10365047e-14 5.39604929 3.3161462 6.5198044 1.10365047e-14 7.23072855 1.10365047e-14 7.23072855 3.90052135 6.71890816 3.90052135 6.71890816 0.731171991 5.65308437 3.90052135"></polygon>
            </g>
            <g id="Group-13" transform="translate(269.230008, 119.900004)" fill="#FFFFFF" fill-rule="nonzero">
                <polygon id="Path" points="1.28517538 0.443765155 1.26919804e-13 0.443765155 1.26919804e-13 1.10365047e-14 3.06192332 1.10365047e-14 3.06192332 0.443765155 1.7874343 0.443765155 1.7874343 3.90052135 1.28517538 3.90052135"></polygon>
                <polygon id="Path" points="5.13901422 3.90052135 4.07431531 0.731171991 4.07431531 3.90052135 3.56024516 3.90052135 3.56024516 1.10365047e-14 4.27116931 1.10365047e-14 5.39604929 3.3161462 6.5198044 1.10365047e-14 7.23072855 1.10365047e-14 7.23072855 3.90052135 6.71890816 3.90052135 6.71890816 0.731171991 5.65308437 3.90052135"></polygon>
            </g>
        </g>
    </g>
</svg>