<svg width="516" height="209" viewBox="0 0 516 209" fill="none" xmlns="http://www.w3.org/2000/svg">
<rect x="78.3975" y="0.130005" width="437.432" height="208.163" fill="black"/>
<path d="M108.72 96.6865C108.871 95.2152 109.059 93.7062 109.135 92.2349C110.229 73.7495 112.87 55.5282 119.736 38.1746C121.395 34.0248 123.093 29.875 125.96 26.4043C127.205 24.8953 128.714 23.4617 130.374 22.3677C133.656 20.2551 137.617 20.5191 140.484 23.1222C142.22 24.7066 143.502 26.7438 144.898 28.6678C145.502 29.4978 145.879 30.5163 146.52 31.799C148.331 28.2151 150.029 24.933 151.727 21.6509C151.802 21.6886 151.877 21.6886 151.953 21.7263C151.953 38.7027 151.953 55.6791 151.953 72.6555C151.877 72.6932 151.802 72.6932 151.764 72.7309C151.387 71.2596 151.01 69.8261 150.633 68.3548C147.992 57.6408 145.464 46.9268 142.635 36.2506C141.918 33.4966 140.635 30.7804 139.126 28.4037C136.372 24.0276 132.298 24.2917 129.657 28.781C127.733 32.1008 127.016 35.7979 126.413 39.5327C124.979 48.0209 124.489 56.6222 124.074 65.2236C123.055 86.8402 123.282 108.457 123.47 130.111C123.546 140.221 124.036 150.332 124.564 160.442C124.828 165.686 125.432 170.968 127.13 175.985C127.696 177.645 128.375 179.305 129.318 180.738C131.317 183.719 134.901 183.983 137.051 181.04C138.41 179.192 139.353 176.853 139.956 174.627C141.277 169.723 141.239 164.667 141.239 159.65C141.239 140.297 141.239 120.906 141.277 101.553C141.277 100.27 140.899 99.4782 139.768 98.8368C137.768 97.6296 135.844 96.2338 133.996 94.6493C140.635 94.6493 147.237 94.6493 154.028 94.6493C154.028 125.471 154.028 156.292 154.028 187.114C153.915 187.152 153.764 187.189 153.651 187.265C151.123 179.984 148.558 172.665 145.917 165.082C145.276 168.817 144.785 172.175 144.068 175.495C143.427 178.513 142.22 181.38 140.22 183.794C136.523 188.283 131.166 188.774 127.092 184.624C124.942 182.398 123.093 179.758 121.659 177.004C117.623 169.421 115.435 161.159 113.624 152.784C110.983 140.297 109.474 127.584 109.059 114.757C109.022 114.002 108.833 113.286 108.72 112.569C108.72 107.25 108.72 101.968 108.72 96.6865Z" fill="#E9DE33"/>
<path d="M312.851 98.9123C313.266 93.0271 313.718 81.785 314.85 70.6183C315.982 59.3762 317.981 48.2472 321.905 37.571C323.451 33.3835 325.262 29.3091 328.016 25.7252C332.77 19.5383 338.542 19.3874 343.559 25.3857C347.143 29.6487 349.105 34.7793 350.84 39.9477C353.82 48.7754 355.442 57.9049 356.612 67.1476C358.611 83.0299 359.253 98.95 358.8 114.908C358.272 132.261 356.725 149.502 351.67 166.214C350.123 171.383 348.199 176.438 345.03 180.889C343.823 182.587 342.314 184.247 340.654 185.53C337.221 188.17 333.109 188.133 329.978 185.228C327.978 183.379 326.281 181.116 324.923 178.739C321.15 172.137 319.226 164.856 317.793 157.424C314.397 139.92 313.001 122.151 312.851 98.9123ZM345.143 102.458C344.842 87.4061 344.653 69.3734 344.087 51.3784C343.899 45.2669 342.842 39.1554 341.824 33.1194C341.484 31.0445 340.428 28.9319 339.221 27.1588C337.372 24.518 333.901 24.6689 332.053 27.3097C331.223 28.5169 330.431 29.9505 330.167 31.3463C329.412 35.5338 328.62 39.759 328.356 43.9843C327.79 53.1892 327.299 62.4319 327.224 71.6746C326.998 89.5941 326.998 107.476 327.073 125.395C327.111 140.712 327.148 156.066 329.072 171.307C329.45 174.25 330.317 177.155 331.298 180.022C331.902 181.795 333.373 183.04 335.41 183.115C337.523 183.191 338.843 181.946 339.711 180.248C340.466 178.739 341.145 177.155 341.56 175.532C343.521 168.063 343.861 160.404 344.125 152.746C344.578 137.015 344.766 121.246 345.143 102.458Z" fill="#E9DE33"/>
<path d="M168.023 22.858C177.945 22.858 187.376 22.858 196.808 22.858C196.845 22.9335 196.883 23.0089 196.958 23.1221C194.997 24.4048 193.073 25.8006 191.073 26.9701C189.904 27.6869 189.678 28.4414 189.979 29.7618C194.016 47.3417 197.977 64.9595 201.976 82.5772C202.127 83.143 202.315 83.7466 202.844 84.3503C207.333 65.6008 211.822 46.889 216.312 28.0641C213.859 26.4042 211.483 24.8197 208.729 22.9712C215.783 22.9712 222.423 22.9712 229.44 22.9712C227.931 23.9898 226.686 25.0084 225.328 25.7252C222.8 27.0078 221.593 28.9695 220.952 31.7612C215.859 52.8874 210.54 73.9758 205.334 95.102C205.107 95.9696 205.145 96.9505 205.334 97.8182C211.37 124.792 217.481 151.728 223.555 178.701C223.819 179.946 224.347 180.814 225.479 181.493C227.516 182.7 229.44 184.058 231.326 185.605C221.819 185.605 212.313 185.605 202.353 185.605C204.541 184.171 206.314 182.851 208.238 181.757C209.747 180.927 210.087 180.059 209.672 178.286C205.145 158.48 200.769 138.675 196.317 118.869C196.204 118.341 196.015 117.775 195.563 117.209C195.185 118.567 194.77 119.887 194.431 121.246C189.564 140.259 184.66 159.235 179.793 178.248C179.228 180.474 179.228 180.474 181.227 181.795C183 182.964 184.773 184.134 186.924 185.567C179.907 185.567 173.342 185.567 166.363 185.567C167.872 184.549 169.079 183.53 170.475 182.851C173.154 181.531 174.361 179.493 175.078 176.551C180.85 153.312 186.773 130.149 192.658 106.948C192.846 106.155 192.884 105.212 192.733 104.382C187.188 79.6346 181.717 54.9245 176.285 30.1767C175.946 28.5923 175.229 27.4982 173.833 26.706C171.947 25.612 170.174 24.3293 168.023 22.858Z" fill="#E9DE33"/>
<path d="M248.906 136.788C256.904 98.535 264.826 60.6965 272.749 22.858C277.653 22.858 282.331 22.858 287.273 22.858C275.993 59.0743 264.789 95.1397 253.546 131.356C260.035 131.356 266.298 131.356 272.824 131.356C272.824 130.564 272.824 129.847 272.824 129.13C272.824 120.567 272.862 112.041 272.786 103.477C272.786 102.119 273.239 101.327 274.371 100.61C277.577 98.6481 280.709 96.5355 283.878 94.4984C284.406 94.1588 284.934 93.8947 285.726 93.4043C285.726 106.193 285.726 118.68 285.726 131.356C289.499 131.356 293.045 131.356 296.78 131.356C296.78 133.167 296.78 134.789 296.78 136.638C293.196 136.638 289.612 136.638 285.877 136.638C285.839 137.543 285.726 138.297 285.726 139.014C285.726 152.143 285.764 165.309 285.688 178.437C285.688 179.946 286.179 180.852 287.461 181.606C289.385 182.776 291.234 184.058 293.46 185.567C283.878 185.567 274.673 185.567 265.09 185.567C267.278 184.096 269.202 182.738 271.202 181.568C272.409 180.852 272.862 179.984 272.862 178.55C272.786 165.346 272.824 152.143 272.824 138.939C272.824 138.297 272.824 137.694 272.824 136.788C264.902 136.788 257.093 136.788 248.906 136.788Z" fill="#E9DE33"/>
<path d="M376.154 98.9123C376.569 93.0271 377.022 81.785 378.154 70.6183C379.285 59.3762 381.285 48.2472 385.208 37.571C386.755 33.3835 388.566 29.3091 391.32 25.7252C396.073 19.5383 401.845 19.3874 406.863 25.3857C410.447 29.6487 412.408 34.7793 414.144 39.9477C417.124 48.7754 418.746 57.9049 419.916 67.1476C421.915 83.0299 422.556 98.95 422.104 114.908C421.576 132.261 420.029 149.502 414.974 166.214C413.427 171.383 411.503 176.438 408.334 180.889C407.127 182.587 405.618 184.247 403.958 185.53C400.525 188.17 396.413 188.133 393.282 185.228C391.282 183.379 389.585 181.116 388.226 178.739C384.454 172.137 382.53 164.856 381.096 157.424C377.701 139.92 376.267 122.151 376.154 98.9123ZM408.409 102.458C408.108 87.4061 407.919 69.3734 407.353 51.3784C407.164 45.2669 406.108 39.1554 405.09 33.1194C404.75 31.0445 403.694 28.9319 402.487 27.1588C400.638 24.518 397.167 24.6689 395.319 27.3097C394.489 28.5169 393.697 29.9505 393.432 31.3463C392.678 35.5338 391.886 39.759 391.622 43.9843C391.056 53.1892 390.565 62.4319 390.49 71.6746C390.264 89.5941 390.264 107.476 390.339 125.395C390.377 140.712 390.414 156.066 392.338 171.307C392.716 174.25 393.583 177.155 394.564 180.022C395.168 181.795 396.639 183.04 398.676 183.115C400.789 183.191 402.109 181.946 402.977 180.248C403.731 178.739 404.411 177.155 404.826 175.532C406.787 168.063 407.127 160.404 407.391 152.746C407.844 137.015 408.032 121.246 408.409 102.458Z" fill="#E9DE33"/>
<path d="M439.419 98.9123C439.834 93.0271 440.287 81.785 441.418 70.6183C442.55 59.3762 444.55 48.2472 448.473 37.571C450.02 33.3835 451.831 29.3091 454.585 25.7252C459.338 19.5383 465.11 19.3874 470.127 25.3857C473.711 29.6487 475.673 34.7793 477.408 39.9477C480.389 48.7754 482.011 57.9049 483.18 67.1476C485.18 83.0299 485.821 98.95 485.368 114.908C484.84 132.261 483.293 149.502 478.238 166.214C476.692 171.383 474.768 176.438 471.599 180.889C470.391 182.587 468.882 184.247 467.222 185.53C463.789 188.17 459.677 188.133 456.546 185.228C454.547 183.379 452.849 181.116 451.491 178.739C447.719 172.137 445.795 164.856 444.361 157.424C441.003 139.92 439.57 122.151 439.419 98.9123ZM471.712 102.458C471.41 87.4061 471.221 69.3734 470.656 51.3784C470.467 45.2669 469.411 39.1554 468.392 33.1194C468.052 31.0445 466.996 28.9319 465.789 27.1588C463.94 24.518 460.47 24.6689 458.621 27.3097C457.791 28.5169 456.999 29.9505 456.735 31.3463C455.98 35.5338 455.188 39.759 454.924 43.9843C454.358 53.1892 453.868 62.4319 453.792 71.6746C453.566 89.5941 453.566 107.476 453.641 125.395C453.679 140.712 453.717 156.066 455.641 171.307C456.018 174.25 456.886 177.155 457.867 180.022C458.47 181.795 459.942 183.04 461.979 183.115C464.091 183.191 465.412 181.946 466.279 180.248C467.034 178.739 467.713 177.155 468.128 175.532C470.09 168.063 470.429 160.404 470.693 152.746C471.146 137.015 471.335 121.246 471.712 102.458Z" fill="#E9DE33"/>
<path fill-rule="evenodd" clip-rule="evenodd" d="M54.2841 197.445L43.6093 196.637L43.6093 192.216L54.2841 191.327L54.2841 180.419L0.287001 187.256L0.287001 201.351L54.2841 208.293L54.2841 197.445ZM34.6992 192.855L34.6992 195.998L13.7156 194.405L34.6992 192.855V192.855ZM0.287001 162.619L0.287001 177.815L54.2841 177.815L54.2841 167.42L23.5326 167.42L54.2841 163.119L54.2841 156.37L23.7006 152.24L54.2841 152.24L54.2841 141.844L0.287001 141.844L0.287001 157.063L24.1379 159.89L0.287001 162.619V162.619ZM6.85834 139.952C10.5802 139.958 14.2998 140.001 18.0216 139.972C18.6302 139.951 19.2389 139.915 19.6761 139.879C20.5974 139.802 20.8789 139.728 21.4764 139.575C22.0672 139.418 22.806 139.151 23.4603 138.731C23.7729 138.534 24.07 138.314 24.4294 137.985C24.7888 137.655 25.2105 137.219 25.6032 136.757C26.4233 135.808 27.0575 134.775 27.6049 133.736C28.8589 131.468 30.0973 129.216 31.3679 126.931C31.5626 126.627 31.724 126.301 32.0388 125.979C32.7932 125.195 33.6689 125.196 34.5067 125.208L35.6728 125.163L42.984 125.147C43.5181 125.14 44.0455 125.19 44.6118 125.448C44.9531 125.629 45.214 125.932 45.343 126.296C45.472 126.661 45.4596 127.06 45.3084 127.415C45.2342 127.592 45.1282 127.754 44.9957 127.893C44.4383 128.47 43.6483 128.403 42.9718 128.487L31.9687 128.491L31.9687 139.984L44.2892 139.972C45.8013 139.964 47.2344 139.953 48.7164 139.626C49.4797 139.45 50.2741 139.168 50.984 138.742C51.6961 138.316 52.3236 137.746 52.8143 137.078C53.3039 136.41 53.6566 135.645 53.8647 135.039C54.0739 134.434 54.1406 133.989 54.194 133.543C54.2474 133.098 54.3064 132.654 54.3064 132.208L54.3064 120.531C54.3064 120.003 54.3298 119.473 54.1495 118.82C53.9443 118.081 53.634 117.376 53.2282 116.725C52.8021 116.056 52.2714 115.492 51.7006 115.103C51.1309 114.713 50.5223 114.5 49.9726 114.316C49.4252 114.131 48.9345 113.978 48.2814 113.866C47.6282 113.752 46.8127 113.681 45.9949 113.642C45.1782 113.602 44.3604 113.622 43.5437 113.622L34.8883 113.622C34.7259 113.622 34.5623 113.622 34.1974 113.625C33.8313 113.63 33.2628 113.636 32.613 113.662C31.9632 113.686 31.2322 113.731 30.7604 113.771C30.243 113.805 29.731 113.897 29.2338 114.045C28.9684 114.119 28.71 114.217 28.4616 114.336C27.9965 114.553 27.5486 114.804 27.122 115.089C26.6478 115.41 26.2114 115.784 25.8213 116.203C25.4319 116.622 25.0914 117.084 24.7387 117.598C23.9906 118.699 23.2912 119.831 22.6425 120.993L19.9799 125.872C19.8212 126.167 19.6504 126.455 19.4681 126.736C19.307 126.978 19.1385 127.216 18.9629 127.449C18.7393 127.741 18.7103 127.743 18.5802 127.866C18.5245 127.914 18.4689 127.961 18.3365 128.042C18.0439 128.225 17.5287 128.447 17.0937 128.488C16.86 128.517 16.6241 128.492 16.3882 128.492C14.6892 128.49 12.9346 128.501 11.29 128.485C10.9073 128.495 10.47 128.485 10.0617 128.343C9.86029 128.278 9.66668 128.192 9.50201 128.086C8.76209 127.532 8.65416 126.869 8.96126 126.139C9.15144 125.799 9.4488 125.532 9.80688 125.379C9.9849 125.304 10.1752 125.258 10.4389 125.228C10.9818 125.167 11.7273 125.16 12.3838 125.165L18.8049 125.165L18.8049 113.622C15.4892 113.634 12.1757 113.582 8.85779 113.657C8.09005 113.691 7.32231 113.746 6.81606 113.793C6.48326 113.819 6.15223 113.864 5.82468 113.928C5.58283 113.977 5.34305 114.036 5.10591 114.105C4.80522 114.19 4.51169 114.299 4.22803 114.43C3.70535 114.657 3.20758 114.939 2.74263 115.269C2.23304 115.641 1.78463 116.103 1.42302 116.624C1.06141 117.145 0.784361 117.722 0.606337 118.218C0.271427 119.195 0.214676 119.938 0.106749 120.785C0.0554708 121.2 0.0279833 121.618 0.0244151 122.037L0.104525 132.027C0.132724 133.203 0.305366 134.371 0.618569 135.504C0.729834 135.867 0.870034 136.21 1.04138 136.535C1.39855 137.189 1.78909 137.733 2.48227 138.297C2.88122 138.615 3.31012 138.894 3.76294 139.129C4.73985 139.629 5.80688 139.927 6.85834 139.952V139.952ZM0.287002 111.723L8.99687 111.723L8.99687 105.966L54.2841 105.966L54.2841 94.4241L8.99687 94.4241L8.99687 88.7106L0.287002 88.7106L0.287002 111.723ZM0.287002 73.3204L0.287002 85.6096L54.2841 85.6096L54.2841 74.0859L32.7609 74.0859C32.7888 73.3293 32.6964 72.576 32.9334 71.8105C32.9913 71.648 33.0781 71.4978 33.1893 71.3677C33.6455 70.8347 34.2297 70.877 34.7815 70.7935C35.8897 70.6934 37.0024 70.7713 38.1117 70.7457L54.283 70.7457L54.283 59.2197L37.4029 59.2308C35.7395 59.2508 34.0906 59.3632 32.426 59.726C32.0419 59.8311 31.6665 59.9661 31.3034 60.1298C30.711 60.3854 30.1607 60.729 29.6711 61.149C29.1827 61.5709 28.7603 62.0638 28.4183 62.6111C28.0783 63.1601 27.8233 63.7573 27.6616 64.3824C27.5871 64.082 27.4936 63.7849 27.3779 63.4889C27.0397 62.5939 26.4877 61.7952 25.7699 61.1626C25.0521 60.53 24.1904 60.0826 23.26 59.8595C22.8183 59.736 22.3743 59.6336 21.9281 59.5513C20.1089 59.2798 18.2853 59.1819 16.4572 59.2186L10.8038 59.2186C9.15078 59.169 7.49755 59.3105 5.87698 59.6403C5.47519 59.7223 5.08046 59.8358 4.69645 59.9796C4.34193 60.1166 3.99983 60.2837 3.67392 60.4792C3.34711 60.6739 3.03775 60.8965 2.7493 61.1446C1.49573 62.3143 0.721317 63.9079 0.576295 65.6163C0.279216 68.1788 0.363776 70.7524 0.287002 73.3204V73.3204ZM9.06696 74.0859C9.07141 73.5429 9.07809 73.001 9.08031 72.4558C9.10368 72.1955 9.16932 71.9273 9.28615 71.6692C9.78017 70.9193 10.4066 70.8825 11.0119 70.8147C11.6917 70.7646 12.376 70.7668 13.0581 70.7457C15.4236 70.7546 17.788 70.7156 20.1535 70.7713C20.5766 70.779 20.9988 70.8139 21.4174 70.8759C21.8164 70.9147 22.1841 71.109 22.4411 71.4166C22.756 71.7638 22.7715 72.2289 22.8216 72.6461C22.8661 73.1245 22.8717 73.6041 22.8383 74.0848L9.06696 74.0848L9.06696 74.0859V74.0859ZM54.2841 45.998L43.6093 45.1913L43.6093 40.7708L54.2841 39.8795L54.2841 28.9722L0.287003 35.8094L0.287003 49.9045L54.2841 56.8453L54.2841 45.998V45.998ZM34.6992 41.4083L34.6992 44.5527L13.7156 42.9594L34.6992 41.4083ZM3.61941 1.5263C2.98519 1.92129 2.42108 2.43201 1.96934 3.02617C1.5176 3.62032 1.17713 4.29793 0.97574 4.79973C0.823789 5.17376 0.714793 5.56383 0.650845 5.96246C0.592987 6.29291 0.540689 6.62338 0.502858 6.95384C0.465028 7.2843 0.439439 7.61697 0.40606 8.40584C0.371567 9.19694 0.293676 10.442 0.292563 11.6893L0.287003 26.6322L54.2841 26.6322L54.2552 8.31461C54.2541 7.85842 54.125 7.41225 54.046 6.96496C53.8769 6.0192 53.6967 5.18916 53.2939 4.30015C53.0847 3.83283 52.8054 3.33103 52.4605 2.87484C52.1156 2.41866 51.705 2.00809 51.0719 1.62088C50.4399 1.23145 49.5843 0.866504 48.5395 0.599467C47.4958 0.334655 46.2597 0.127688 45.0235 0.129913L8.16794 0.210031C7.32677 0.212256 6.49562 0.422542 5.72677 0.638397C4.95793 0.854252 4.25362 1.13131 3.61941 1.5263V1.5263ZM9.11369 14.3808C9.11369 14.1327 9.09478 13.8879 9.12371 13.6509C9.15264 13.4117 9.20827 13.1836 9.26724 12.9944C9.32621 12.8075 9.39075 12.6595 9.47865 12.5271C9.56766 12.3947 9.68003 12.279 9.8091 12.1855C10.4088 11.7883 11.26 11.8362 12.0155 11.8005L43.1131 11.8006C43.3423 11.8006 43.5726 11.8028 43.7951 11.8328C44.0094 11.8644 44.2198 11.9185 44.4227 11.9942C44.5995 12.0574 44.7639 12.1508 44.9089 12.2701C45.0447 12.3869 45.1581 12.5327 45.2483 12.6918C45.3384 12.8509 45.4474 13.0178 45.4474 13.2025L45.4474 15.0884L9.11369 15.0884L9.11369 14.3808V14.3808Z" fill="white"/>
</svg>
