<svg width="516" height="209" viewBox="0 0 516 209" fill="none" xmlns="http://www.w3.org/2000/svg">
<rect x="78.8975" y="1.33667" width="436.432" height="207.163" stroke="white"/>
<path d="M108.72 97.3932C108.871 95.9219 109.059 94.4129 109.135 92.9416C110.229 74.4562 112.87 56.2349 119.736 38.8812C121.395 34.7315 123.093 30.5817 125.96 27.1109C127.205 25.6019 128.714 24.1684 130.374 23.0743C133.656 20.9617 137.617 21.2258 140.484 23.8288C142.22 25.4133 143.502 27.4505 144.898 29.3745C145.502 30.2044 145.879 31.223 146.52 32.5057C148.331 28.9218 150.029 25.6397 151.727 22.3576C151.802 22.3953 151.877 22.3953 151.953 22.433C151.953 39.4094 151.953 56.3858 151.953 73.3621C151.877 73.3999 151.802 73.3999 151.764 73.4376C151.387 71.9663 151.01 70.5327 150.633 69.0615C147.992 58.3475 145.464 47.6335 142.635 36.9572C141.918 34.2033 140.635 31.4871 139.126 29.1104C136.372 24.7343 132.298 24.9983 129.657 29.4876C127.733 32.8075 127.016 36.5045 126.413 40.2393C124.979 48.7275 124.489 57.3289 124.074 65.9303C123.055 87.5469 123.282 109.163 123.47 130.818C123.546 140.928 124.036 151.039 124.564 161.149C124.828 166.393 125.432 171.674 127.13 176.692C127.696 178.352 128.375 180.012 129.318 181.445C131.317 184.425 134.901 184.689 137.051 181.747C138.41 179.898 139.353 177.559 139.956 175.334C141.277 170.429 141.239 165.374 141.239 160.357C141.239 141.004 141.239 121.613 141.277 102.26C141.277 100.977 140.899 100.185 139.768 99.5435C137.768 98.3363 135.844 96.9405 133.996 95.356C140.635 95.356 147.237 95.356 154.028 95.356C154.028 126.178 154.028 156.999 154.028 187.821C153.915 187.858 153.764 187.896 153.651 187.972C151.123 180.691 148.558 173.372 145.917 165.789C145.276 169.524 144.785 172.881 144.068 176.201C143.427 179.219 142.22 182.086 140.22 184.501C136.523 188.99 131.166 189.481 127.092 185.331C124.942 183.105 123.093 180.464 121.659 177.71C117.623 170.128 115.435 161.866 113.624 153.491C110.983 141.004 109.474 128.29 109.059 115.464C109.022 114.709 108.833 113.992 108.72 113.276C108.72 107.956 108.72 102.675 108.72 97.3932Z" fill="white"/>
<path d="M312.851 99.6189C313.266 93.7338 313.718 82.4917 314.85 71.325C315.982 60.0828 317.981 48.9539 321.905 38.2776C323.451 34.0901 325.262 30.0158 328.016 26.4319C332.77 20.2449 338.542 20.094 343.559 26.0924C347.143 30.3553 349.105 35.486 350.84 40.6543C353.82 49.482 355.442 58.6116 356.612 67.8543C358.611 83.7366 359.253 99.6567 358.8 115.614C358.272 132.968 356.725 150.209 351.67 166.921C350.123 172.089 348.199 177.144 345.03 181.596C343.823 183.294 342.314 184.954 340.654 186.236C337.221 188.877 333.109 188.839 329.978 185.934C327.978 184.086 326.281 181.822 324.923 179.446C321.15 172.844 319.226 165.563 317.793 158.131C314.397 140.626 313.001 122.858 312.851 99.6189ZM345.143 103.165C344.842 88.1127 344.653 70.08 344.087 52.0851C343.899 45.9736 342.842 39.8621 341.824 33.826C341.484 31.7512 340.428 29.6385 339.221 27.8654C337.372 25.2247 333.901 25.3756 332.053 28.0163C331.223 29.2236 330.431 30.6571 330.167 32.053C329.412 36.2405 328.62 40.4657 328.356 44.6909C327.79 53.8959 327.299 63.1386 327.224 72.3813C326.998 90.3008 326.998 108.183 327.073 126.102C327.111 141.419 327.148 156.773 329.072 172.014C329.45 174.956 330.317 177.861 331.298 180.728C331.902 182.501 333.373 183.746 335.41 183.822C337.523 183.897 338.843 182.652 339.711 180.955C340.466 179.446 341.145 177.861 341.56 176.239C343.521 168.769 343.861 161.111 344.125 153.453C344.578 137.721 344.766 121.952 345.143 103.165Z" fill="white"/>
<path d="M168.023 23.5647C177.945 23.5647 187.376 23.5647 196.808 23.5647C196.845 23.6401 196.883 23.7156 196.958 23.8288C194.997 25.1114 193.073 26.5073 191.073 27.6768C189.904 28.3935 189.678 29.148 189.979 30.4684C194.016 48.0484 197.977 65.6661 201.976 83.2838C202.127 83.8497 202.315 84.4533 202.844 85.0569C207.333 66.3074 211.822 47.5957 216.312 28.7708C213.859 27.1109 211.483 25.5264 208.729 23.6779C215.783 23.6779 222.423 23.6779 229.44 23.6779C227.931 24.6965 226.686 25.715 225.328 26.4318C222.8 27.7145 221.593 29.6762 220.952 32.4679C215.859 53.594 210.54 74.6825 205.334 95.8086C205.107 96.6763 205.145 97.6572 205.334 98.5248C211.37 125.498 217.481 152.434 223.555 179.408C223.819 180.653 224.347 181.52 225.479 182.2C227.516 183.407 229.44 184.765 231.326 186.312C221.819 186.312 212.313 186.312 202.353 186.312C204.541 184.878 206.314 183.558 208.238 182.464C209.747 181.634 210.087 180.766 209.672 178.993C205.145 159.187 200.769 139.381 196.317 119.576C196.204 119.047 196.015 118.482 195.563 117.916C195.185 119.274 194.77 120.594 194.431 121.952C189.564 140.966 184.66 159.942 179.793 178.955C179.228 181.181 179.228 181.181 181.227 182.501C183 183.671 184.773 184.84 186.924 186.274C179.907 186.274 173.342 186.274 166.363 186.274C167.872 185.255 169.079 184.237 170.475 183.558C173.154 182.237 174.361 180.2 175.078 177.258C180.85 154.019 186.773 130.855 192.658 107.654C192.846 106.862 192.884 105.919 192.733 105.089C187.188 80.3413 181.717 55.6312 176.285 30.8834C175.946 29.2989 175.229 28.2049 173.833 27.4127C171.947 26.3186 170.174 25.036 168.023 23.5647Z" fill="white"/>
<path d="M248.906 137.495C256.904 99.2416 264.826 61.4032 272.749 23.5647C277.653 23.5647 282.331 23.5647 287.273 23.5647C275.993 59.781 264.789 95.8464 253.546 132.063C260.035 132.063 266.298 132.063 272.824 132.063C272.824 131.27 272.824 130.554 272.824 129.837C272.824 121.273 272.862 112.747 272.786 104.184C272.786 102.826 273.239 102.033 274.371 101.317C277.577 99.3548 280.709 97.2422 283.878 95.205C284.406 94.8655 284.934 94.6014 285.726 94.111C285.726 106.9 285.726 119.387 285.726 132.063C289.499 132.063 293.045 132.063 296.78 132.063C296.78 133.873 296.78 135.496 296.78 137.344C293.196 137.344 289.612 137.344 285.877 137.344C285.839 138.25 285.726 139.004 285.726 139.721C285.726 152.849 285.764 166.015 285.688 179.144C285.688 180.653 286.179 181.558 287.461 182.313C289.385 183.482 291.234 184.765 293.46 186.274C283.878 186.274 274.673 186.274 265.09 186.274C267.278 184.803 269.202 183.444 271.202 182.275C272.409 181.558 272.862 180.691 272.862 179.257C272.786 166.053 272.824 152.849 272.824 139.645C272.824 139.004 272.824 138.4 272.824 137.495C264.902 137.495 257.093 137.495 248.906 137.495Z" fill="white"/>
<path d="M376.154 99.6189C376.569 93.7338 377.022 82.4917 378.154 71.325C379.285 60.0828 381.285 48.9539 385.208 38.2776C386.755 34.0901 388.566 30.0158 391.32 26.4319C396.073 20.2449 401.845 20.094 406.863 26.0924C410.447 30.3553 412.408 35.486 414.144 40.6543C417.124 49.482 418.746 58.6116 419.916 67.8543C421.915 83.7366 422.556 99.6567 422.104 115.614C421.576 132.968 420.029 150.209 414.974 166.921C413.427 172.089 411.503 177.144 408.334 181.596C407.127 183.294 405.618 184.954 403.958 186.236C400.525 188.877 396.413 188.839 393.282 185.934C391.282 184.086 389.585 181.822 388.226 179.446C384.454 172.844 382.53 165.563 381.096 158.131C377.701 140.626 376.267 122.858 376.154 99.6189ZM408.409 103.165C408.108 88.1127 407.919 70.08 407.353 52.0851C407.164 45.9736 406.108 39.8621 405.09 33.826C404.75 31.7512 403.694 29.6385 402.487 27.8654C400.638 25.2247 397.167 25.3756 395.319 28.0163C394.489 29.2236 393.697 30.6571 393.432 32.053C392.678 36.2405 391.886 40.4657 391.622 44.6909C391.056 53.8959 390.565 63.1386 390.49 72.3813C390.264 90.3008 390.264 108.183 390.339 126.102C390.377 141.419 390.414 156.773 392.338 172.014C392.716 174.956 393.583 177.861 394.564 180.728C395.168 182.501 396.639 183.746 398.676 183.822C400.789 183.897 402.109 182.652 402.977 180.955C403.731 179.446 404.411 177.861 404.826 176.239C406.787 168.769 407.127 161.111 407.391 153.453C407.844 137.721 408.032 121.952 408.409 103.165Z" fill="white"/>
<path d="M439.419 99.6189C439.834 93.7338 440.287 82.4917 441.418 71.325C442.55 60.0828 444.55 48.9539 448.473 38.2776C450.02 34.0901 451.831 30.0158 454.585 26.4319C459.338 20.2449 465.11 20.094 470.127 26.0924C473.711 30.3553 475.673 35.486 477.408 40.6543C480.389 49.482 482.011 58.6116 483.18 67.8543C485.18 83.7366 485.821 99.6567 485.368 115.614C484.84 132.968 483.293 150.209 478.238 166.921C476.692 172.089 474.768 177.144 471.599 181.596C470.391 183.294 468.882 184.954 467.222 186.236C463.789 188.877 459.677 188.839 456.546 185.934C454.547 184.086 452.849 181.822 451.491 179.446C447.719 172.844 445.795 165.563 444.361 158.131C441.003 140.626 439.57 122.858 439.419 99.6189ZM471.712 103.165C471.41 88.1127 471.221 70.08 470.656 52.0851C470.467 45.9736 469.411 39.8621 468.392 33.826C468.052 31.7512 466.996 29.6385 465.789 27.8654C463.94 25.2247 460.47 25.3756 458.621 28.0163C457.791 29.2236 456.999 30.6571 456.735 32.053C455.98 36.2405 455.188 40.4657 454.924 44.6909C454.358 53.8959 453.868 63.1386 453.792 72.3813C453.566 90.3008 453.566 108.183 453.641 126.102C453.679 141.419 453.717 156.773 455.641 172.014C456.018 174.956 456.886 177.861 457.867 180.728C458.47 182.501 459.942 183.746 461.979 183.822C464.091 183.897 465.412 182.652 466.279 180.955C467.034 179.446 467.713 177.861 468.128 176.239C470.09 168.769 470.429 161.111 470.693 153.453C471.146 137.721 471.335 121.952 471.712 103.165Z" fill="white"/>
<path fill-rule="evenodd" clip-rule="evenodd" d="M54.2841 198.151L43.6093 197.344L43.6093 192.923L54.2841 192.034L54.2841 181.126L0.287001 187.963L0.287001 202.058L54.2841 209L54.2841 198.151ZM34.6992 193.562L34.6992 196.705L13.7156 195.112L34.6992 193.562V193.562ZM0.287001 163.325L0.287001 178.522L54.2841 178.522L54.2841 168.126L23.5326 168.126L54.2841 163.826L54.2841 157.077L23.7006 152.947L54.2841 152.947L54.2841 142.551L0.287001 142.551L0.287001 157.77L24.1379 160.597L0.287001 163.325V163.325ZM6.85834 140.658C10.5802 140.665 14.2998 140.707 18.0216 140.678C18.6302 140.657 19.2389 140.622 19.6761 140.586C20.5974 140.508 20.8789 140.435 21.4764 140.281C22.0672 140.124 22.806 139.857 23.4603 139.438C23.7729 139.241 24.07 139.021 24.4294 138.691C24.7888 138.362 25.2105 137.926 25.6032 137.464C26.4233 136.515 27.0575 135.481 27.6049 134.443C28.8589 132.174 30.0973 129.922 31.3679 127.638C31.5626 127.333 31.724 127.007 32.0388 126.686C32.7932 125.901 33.6689 125.902 34.5067 125.915L35.6728 125.87L42.984 125.853C43.5181 125.847 44.0455 125.897 44.6118 126.155C44.9531 126.336 45.214 126.639 45.343 127.003C45.472 127.367 45.4596 127.767 45.3084 128.122C45.2342 128.299 45.1282 128.461 44.9957 128.599C44.4383 129.177 43.6483 129.11 42.9718 129.194L31.9687 129.198L31.9687 140.691L44.2892 140.678C45.8013 140.671 47.2344 140.659 48.7164 140.332C49.4797 140.157 50.2741 139.875 50.984 139.449C51.6961 139.023 52.3236 138.453 52.8143 137.784C53.3039 137.117 53.6566 136.351 53.8647 135.746C54.0739 135.141 54.1406 134.696 54.194 134.249C54.2474 133.804 54.3064 133.36 54.3064 132.914L54.3064 121.238C54.3064 120.71 54.3298 120.18 54.1495 119.527C53.9443 118.788 53.634 118.082 53.2282 117.432C52.8021 116.763 52.2714 116.199 51.7006 115.809C51.1309 115.42 50.5223 115.206 49.9726 115.023C49.4252 114.838 48.9345 114.685 48.2814 114.572C47.6282 114.459 46.8127 114.387 45.9949 114.349C45.1782 114.308 44.3604 114.329 43.5437 114.329L34.8883 114.329C34.7259 114.329 34.5623 114.329 34.1974 114.332C33.8313 114.336 33.2628 114.343 32.613 114.369C31.9632 114.393 31.2322 114.438 30.7604 114.478C30.243 114.512 29.731 114.604 29.2338 114.751C28.9684 114.826 28.71 114.923 28.4616 115.043C27.9965 115.259 27.5486 115.511 27.122 115.796C26.6478 116.117 26.2114 116.491 25.8213 116.91C25.4319 117.328 25.0914 117.791 24.7387 118.305C23.9906 119.405 23.2912 120.538 22.6425 121.7L19.9799 126.579C19.8212 126.874 19.6504 127.162 19.4681 127.442C19.307 127.685 19.1385 127.923 18.9629 128.155C18.7393 128.448 18.7103 128.449 18.5802 128.573C18.5245 128.621 18.4689 128.667 18.3365 128.749C18.0439 128.932 17.5287 129.154 17.0937 129.195C16.86 129.224 16.6241 129.199 16.3882 129.199C14.6892 129.197 12.9346 129.208 11.29 129.191C10.9073 129.201 10.47 129.191 10.0617 129.05C9.86029 128.984 9.66668 128.899 9.50201 128.793C8.76209 128.239 8.65416 127.576 8.96126 126.846C9.15144 126.506 9.4488 126.239 9.80688 126.086C9.9849 126.01 10.1752 125.965 10.4389 125.935C10.9818 125.873 11.7273 125.867 12.3838 125.871L18.8049 125.871L18.8049 114.329C15.4892 114.341 12.1757 114.288 8.85779 114.364C8.09005 114.397 7.32231 114.453 6.81606 114.5C6.48326 114.525 6.15223 114.57 5.82468 114.634C5.58283 114.684 5.34305 114.743 5.10591 114.811C4.80522 114.897 4.51169 115.005 4.22803 115.136C3.70535 115.364 3.20758 115.645 2.74263 115.975C2.23304 116.348 1.78463 116.81 1.42302 117.33C1.06141 117.851 0.784361 118.429 0.606337 118.925C0.271427 119.902 0.214676 120.645 0.106749 121.492C0.0554708 121.907 0.0279833 122.325 0.0244151 122.744L0.104525 132.734C0.132724 133.91 0.305366 135.078 0.618569 136.211C0.729834 136.574 0.870034 136.917 1.04138 137.241C1.39855 137.896 1.78909 138.44 2.48227 139.004C2.88122 139.322 3.31012 139.601 3.76294 139.836C4.73985 140.336 5.80688 140.634 6.85834 140.658V140.658ZM0.287002 112.429L8.99687 112.429L8.99687 106.672L54.2841 106.672L54.2841 95.1308L8.99687 95.1308L8.99687 89.4173L0.287002 89.4173L0.287002 112.429ZM0.287002 74.027L0.287002 86.3163L54.2841 86.3163L54.2841 74.7925L32.7609 74.7925C32.7888 74.0359 32.6964 73.2827 32.9334 72.5172C32.9913 72.3547 33.0781 72.2045 33.1893 72.0743C33.6455 71.5414 34.2297 71.5836 34.7815 71.5002C35.8897 71.4001 37.0024 71.4779 38.1117 71.4523L54.283 71.4523L54.283 59.9264L37.4029 59.9375C35.7395 59.9575 34.0906 60.0699 32.426 60.4326C32.0419 60.5378 31.6665 60.6728 31.3034 60.8365C30.711 61.0921 30.1607 61.4357 29.6711 61.8557C29.1827 62.2776 28.7603 62.7704 28.4183 63.3177C28.0783 63.8667 27.8233 64.4639 27.6616 65.0891C27.5871 64.7887 27.4936 64.4916 27.3779 64.1956C27.0397 63.3006 26.4877 62.5019 25.7699 61.8693C25.0521 61.2366 24.1904 60.7892 23.26 60.5661C22.8183 60.4426 22.3743 60.3403 21.9281 60.2579C20.1089 59.9864 18.2853 59.8885 16.4572 59.9252L10.8038 59.9252C9.15078 59.8757 7.49755 60.0172 5.87698 60.3469C5.47519 60.4289 5.08046 60.5424 4.69645 60.6863C4.34193 60.8232 3.99983 60.9904 3.67392 61.1859C3.34711 61.3806 3.03775 61.6032 2.7493 61.8512C1.49573 63.021 0.721317 64.6146 0.576295 66.323C0.279216 68.8855 0.363776 71.459 0.287002 74.027V74.027ZM9.06696 74.7925C9.07141 74.2496 9.07809 73.7077 9.08031 73.1625C9.10368 72.9021 9.16932 72.634 9.28615 72.3759C9.78017 71.6259 10.4066 71.5892 11.0119 71.5213C11.6917 71.4713 12.376 71.4735 13.0581 71.4523C15.4236 71.4612 17.788 71.4223 20.1535 71.4779C20.5766 71.4856 20.9988 71.5206 21.4174 71.5825C21.8164 71.6214 22.1841 71.8156 22.4411 72.1233C22.756 72.4704 22.7715 72.9355 22.8216 73.3528C22.8661 73.8312 22.8717 74.3108 22.8383 74.7914L9.06696 74.7914L9.06696 74.7925V74.7925ZM54.2841 46.7047L43.6093 45.898L43.6093 41.4774L54.2841 40.5862L54.2841 29.6788L0.287003 36.5161L0.287003 50.6112L54.2841 57.552L54.2841 46.7047V46.7047ZM34.6992 42.115L34.6992 45.2593L13.7156 43.666L34.6992 42.115ZM3.61941 2.23297C2.98519 2.62796 2.42108 3.13867 1.96934 3.73283C1.5176 4.32699 1.17713 5.00459 0.97574 5.5064C0.823789 5.88043 0.714793 6.2705 0.650845 6.66912C0.592987 6.99958 0.540689 7.33004 0.502858 7.6605C0.465028 7.99096 0.439439 8.32364 0.40606 9.11251C0.371567 9.90361 0.293676 11.1487 0.292563 12.396L0.287003 27.3389L54.2841 27.3389L54.2552 9.02127C54.2541 8.56508 54.125 8.11891 54.046 7.67162C53.8769 6.72587 53.6967 5.89582 53.2939 5.00681C53.0847 4.5395 52.8054 4.0377 52.4605 3.58151C52.1156 3.12532 51.705 2.71475 51.0719 2.32755C50.4399 1.93812 49.5843 1.57317 48.5395 1.30613C47.4958 1.04132 46.2597 0.834353 45.0235 0.836578L8.16794 0.916696C7.32677 0.918921 6.49562 1.12921 5.72677 1.34506C4.95793 1.56092 4.25362 1.83797 3.61941 2.23297V2.23297ZM9.11369 15.0875C9.11369 14.8393 9.09478 14.5946 9.12371 14.3576C9.15264 14.1183 9.20827 13.8903 9.26724 13.7011C9.32621 13.5142 9.39075 13.3662 9.47865 13.2338C9.56766 13.1014 9.68003 12.9857 9.8091 12.8922C10.4088 12.495 11.26 12.5428 12.0155 12.5072L43.1131 12.5072C43.3423 12.5072 43.5726 12.5094 43.7951 12.5395C44.0094 12.5711 44.2198 12.6252 44.4227 12.7008C44.5995 12.7641 44.7639 12.8575 44.9089 12.9768C45.0447 13.0936 45.1581 13.2394 45.2483 13.3985C45.3384 13.5576 45.4474 13.7245 45.4474 13.9092L45.4474 15.7951L9.11369 15.7951L9.11369 15.0875V15.0875Z" fill="white"/>
</svg>
