<?xml version="1.0" encoding="UTF-8"?>
<svg width="457px" height="96px" viewBox="0 0 457 96" version="1.1" xmlns="http://www.w3.org/2000/svg" xmlns:xlink="http://www.w3.org/1999/xlink">
    <title>mainlogo</title>
    <g id="Page-1" stroke="none" stroke-width="1" fill="none" fill-rule="evenodd">
        <g id="mainlogo" fill="#FFFFFF" fill-rule="nonzero">
            <polygon id="Path" points="14.9373047 -3.55271368e-14 41.2737304 -3.55271368e-14 31.8398439 55.4239257 6.28925778 55.4239257"></polygon>
            <polygon id="Path" points="4.71757806 63.6809571 30.6604493 63.6809571 29.8746094 69.9676757 51.4947267 69.9676757 48.3488281 92.3723632 -3.55271368e-13 92.3723632"></polygon>
            <polygon id="Path" points="342.768359 4.71757806 366.744727 4.71757806 364.388477 20.4394531 340.40957 20.4394531"></polygon>
            <polygon id="Path" points="339.426953 27.1222656 363.40332 27.1222656 359.081836 56.2110351 335.10293 56.2110351"></polygon>
            <polygon id="Path" points="333.924805 63.6809571 357.901172 63.6809571 353.577148 92.3723632 329.598242 92.3723632"></polygon>
            <polygon id="Path" points="224.253808 63.6809571 248.231445 63.6809571 243.907422 92.3723632 219.929785 92.3723632"></polygon>
            <path d="M77.6318358,63.6809571 C77.4299804,65.5344726 77.2903318,67.895801 77.4985351,70.0184571 C77.7841797,72.608301 78.7896483,74.680176 81.2474608,74.680176 C84.4847656,74.680176 86.4347656,71.8313479 87.5532226,68.469629 C88.1854493,66.717676 88.6374024,65.2704101 88.9649415,63.6200196 L111.309961,63.5590821 L106.757422,92.4536132 L86.8917969,92.4536132 L88.0584962,86.7000976 C83.1365236,92.9614257 79.194629,94.469629 70.9109378,94.469629 C55.0913087,94.469629 52.5636722,76.919629 53.5666019,63.6860351 L77.6318358,63.6809571 L77.6318358,63.6809571 Z" id="Path"></path>
            <path d="M89.9615233,56.2110351 C89.9792967,54.5657226 89.9577149,53.5907226 89.8790038,52.4379882 C89.647949,49.4571288 88.7148436,46.8710936 85.7390622,46.8710936 C82.6325193,46.8710936 80.7739254,49.9776365 79.4726559,53.7329101 C79.2873042,54.3168946 79.1248042,54.8805665 78.3948238,56.200879 L54.1213863,56.1856446 C57.3434571,42.3490233 64.5950196,26.1625 80.3956054,25.8362304 C84.7094726,25.7473632 92.7671875,26.3364257 95.9194335,32.5 L96.6075193,32.6333007 L97.6269528,27.0638672 L117.095215,27.0638672 L112.61123,56.2110351 L89.9615233,56.2110351 L89.9615233,56.2110351 Z" id="Path"></path>
            <path d="M118.51582,56.2110351 C117.066016,53.3165038 116.460449,49.8532226 117.036816,45.7310547 C119.008398,31.6214844 129.615332,24.4600587 145.535254,24.4600587 C152.394531,24.4600587 157.162891,26.0710939 162.647266,29.4353517 L160.03584,47.5528321 C156.05459,44.2215821 148.844922,42.4518554 144.572949,42.4518554 C142.761328,42.4518554 140.510449,42.8796875 139.956934,45.0302733 C139.150781,48.1520507 142.64834,49.8684568 146.902539,51.3715818 C150.42041,52.6157224 153.410156,54.1543943 155.796875,56.1805663 L118.51582,56.2110351 L118.51582,56.2110351 Z" id="Path"></path>
            <path d="M161.235547,63.7418946 C162.318457,66.7125976 162.642187,70.2875976 162.115332,74.0606446 C159.960937,89.4625976 146.743848,95.2567385 132.636817,95.2567385 C123.317187,95.2567385 119.396875,93.5200196 111.986621,89.1172854 L115.300098,68.8454104 C117.823926,72.080176 126.376758,77.239551 132.099805,76.9450198 C134.297363,76.833301 138.735645,75.3200198 139.078418,72.8622073 C139.422461,70.4043948 138.364942,68.5915043 132.84375,66.8344729 C130.260254,66.0168948 127.804981,65.1485354 125.630274,63.8079104 L161.235547,63.7418946 L161.235547,63.7418946 Z" id="Path"></path>
            <path d="M187.480567,63.6911132 C186.525879,69.4700196 186.30752,78.5446288 191.576074,79.1844726 C194.969531,79.600879 198.506445,76.8485351 199.579199,69.8762696 L220.89209,69.8762696 C217.177442,91.783301 204.338672,95.7594726 189.066211,95.647754 C172.426465,95.525879 162.464453,81.9774415 163.685742,63.6606446 L187.480567,63.6911132 L187.480567,63.6911132 Z" id="Path"></path>
            <path d="M411.150391,56.2059571 C414.275976,39.0330078 422.642188,25.0046875 446.565234,24.4600587 C451.259961,24.3534182 454.992383,25.9428712 456.944922,27.0778321 L453.852344,45.6726564 C444.358789,41.8234375 439.194336,49.3796878 437.371289,56.236426 L411.150391,56.2059571 L411.150391,56.2059571 Z" id="Path"></path>
            <path d="M436.822852,63.6911132 C437.462696,67.9719726 439.928125,71.9633788 444.729492,71.9633788 L449.949805,71.5672849 L446.908008,92.3774413 C443.200976,93.3575193 439.664062,93.9465818 434.865234,93.8805663 C416.601758,93.6215818 409.116602,80.1950193 410.17793,63.6657224 L436.822852,63.6911132 L436.822852,63.6911132 Z" id="Path"></path>
            <path d="M301.904688,63.6911132 C299.045703,68.3223632 296.186719,71.7348632 289.701953,71.1458007 L290.82168,63.6708007 L265.570703,63.6860351 L261.005469,92.3723632 L286.556054,92.3723632 C307.698828,92.3723632 322.214648,83.1250976 329.329101,63.6250976 L301.904688,63.6911132 L301.904688,63.6911132 Z" id="Path"></path>
            <path d="M291.773828,56.2262696 L296.77832,23.9789064 C306.998047,23.9789064 309.354297,31.8398439 307.389062,45.9900392 C306.899023,49.5282226 306.210937,53.2606446 305.289258,56.282129 L331.875781,56.3125979 C332.838086,52.3313479 333.25957,47.9121097 333.726758,43.2389651 C337.263672,7.8609375 318.004883,6.03961325e-14 298.743555,6.03961325e-14 L274.764648,6.03961325e-14 L271.423242,25.1570314 C267.492773,25.9428712 257.862109,27.1222658 252.750976,34.0018557 C251.768359,34.9844729 251.179297,34.5909182 251.374804,33.4115236 L252.357422,27.1222658 L229.757226,27.1222658 L225.433203,56.2110354 L249.412109,56.2110354 C250.392187,52.0825198 261.203516,45.9900394 267.886328,49.1346682 L266.764063,56.1856448 L291.773828,56.2262696 L291.773828,56.2262696 Z" id="Path"></path>
            <path d="M364.586523,56.2110351 C363.136719,53.3165038 362.529883,49.8532226 363.10625,45.7310547 C365.079102,31.6214844 375.684766,24.4600587 391.604687,24.4600587 C398.465234,24.4600587 403.233594,26.0710939 408.717969,29.4353517 L406.105274,47.5528321 C402.124024,44.2215821 394.913086,42.4518554 390.642383,42.4518554 C388.832031,42.4518554 386.579883,42.8796875 386.026367,45.0302733 C385.221485,48.1520507 388.717774,49.8684568 392.973242,51.3715818 C396.489844,52.6157224 399.48086,54.1543943 401.865039,56.1805663 L364.586523,56.2110351 L364.586523,56.2110351 Z" id="Path"></path>
            <path d="M407.303711,63.7418946 C408.387891,66.7125976 408.710351,70.2875976 408.184766,74.0606446 C406.031641,89.4625976 392.813281,95.2567385 378.70625,95.2567385 C369.385352,95.2567385 365.465039,93.5200196 358.056055,89.1172854 L361.369531,68.8454104 C363.893359,72.080176 372.444922,77.239551 378.167969,76.9450198 C380.366797,76.833301 384.805078,75.3200198 385.147852,72.8622073 C385.493164,70.4043948 384.434375,68.5915043 378.914453,66.8344729 C376.329688,66.0168948 373.874414,65.1485354 371.700977,63.8079104 L407.303711,63.7418946 L407.303711,63.7418946 Z" id="Path"></path>
            <polygon id="Path" points="443.947461 12.3817382 448.896094 12.3817382 448.896094 13.1117189 446.834375 13.1117189 446.834375 18.4754882 446.00918 18.4754882 446.00918 13.1117189 443.947461 13.1117189"></polygon>
            <path d="M454.675,18.4754882 L454.675,14.8776368 C454.675,14.6986328 454.692773,13.9267578 454.692773,13.3580078 L454.675,13.3580078 L452.961133,18.4754882 L452.146094,18.4754882 L450.432226,13.3668943 L450.416992,13.3668943 C450.416992,13.9267575 450.432226,14.6986325 450.432226,14.8776365 L450.432226,18.4754882 L449.634961,18.4754882 L449.634961,12.3817382 L450.815625,12.3817382 L452.554883,17.5322264 L452.570117,17.5322264 L454.301758,12.3817382 L455.472266,12.3817382 L455.472266,18.4754882 L454.675,18.4754882 L454.675,18.4754882 Z" id="Path"></path>
            <path d="M197.108692,24.4600585 C177.868946,24.5908203 168.400781,38.0922851 164.664551,56.2008788 L222.757031,56.2161132 C223.399414,47.8143554 223.095996,39.6779297 220.556934,35.9848632 C216.128808,29.5419922 210.299121,24.3711915 197.108692,24.4600585 L197.108692,24.4600585 Z M197.483203,39.6284179 C202.01416,39.6284179 202.750488,44.5465821 202.355664,48.2993163 L190.576953,48.2993163 C190.93623,44.8055665 193.2125,39.6284179 197.483203,39.6284179 L197.483203,39.6284179 Z" id="Shape"></path>
        </g>
    </g>
</svg>