<svg width="398" height="141" viewBox="0 0 398 141" fill="none" xmlns="http://www.w3.org/2000/svg">
<path d="M213.052 38.6312H209.319C208.513 38.6312 207.98 38.5008 207.719 38.2401C207.482 37.9794 207.364 37.4462 207.364 36.6404V14.9907C207.364 14.1612 207.494 13.6161 207.755 13.3554C208.016 13.071 208.537 12.9288 209.319 12.9288H213.052V38.6312ZM221.904 22.8472V24.9801C221.904 25.8333 221.821 26.3784 221.655 26.6154C221.489 26.8287 221.015 26.9354 220.233 26.9354H214.474V22.8472H221.904ZM223.326 12.9288V15.9861C223.326 16.7919 223.195 17.3251 222.935 17.5858C222.674 17.8228 222.129 17.9413 221.299 17.9413H214.474V12.9288H223.326Z" fill="white"/>
<path d="M232.354 38.6312H228.621C227.816 38.6312 227.282 38.5008 227.022 38.2401C226.785 37.9794 226.666 37.4344 226.666 36.6049V14.9551C226.666 14.1256 226.785 13.5805 227.022 13.3198C227.282 13.0592 227.816 12.9288 228.621 12.9288H232.354V38.6312Z" fill="white"/>
<path d="M256.945 12.9288V36.6049C256.945 37.4344 256.815 37.9794 256.554 38.2401C256.317 38.5008 255.796 38.6312 254.99 38.6312H249.942C248.543 38.6312 247.619 38.4179 247.169 37.9913C246.742 37.5647 246.363 36.4627 246.031 34.6852C245.368 31.1776 244.408 25.5134 243.152 17.6925C243.057 17.1 242.915 16.7208 242.725 16.5549C242.559 16.389 242.263 16.2942 241.836 16.2705H237.464V12.9288H245.178C245.771 12.9288 246.245 12.9999 246.6 13.1421C246.956 13.2843 247.24 13.5924 247.453 14.0664C247.69 14.5167 247.844 14.9551 247.915 15.3817C248.01 15.8083 248.105 16.306 248.2 16.8748C248.318 17.5621 248.484 18.5693 248.697 19.8965C249.1 22.5746 249.728 26.3547 250.582 31.2369C250.913 33.3224 251.139 34.4956 251.257 34.7563C251.399 34.9933 251.636 35.1355 251.968 35.1829V14.3508C251.968 13.9242 252.087 13.5805 252.324 13.3198C252.561 13.0592 252.869 12.9288 253.248 12.9288H256.945ZM237.464 17.5147H241.161C241.54 17.5147 241.848 17.6451 242.085 17.9058C242.322 18.1665 242.441 18.5101 242.441 18.9367V36.6049C242.441 37.4107 242.334 37.9557 242.121 38.2401C241.907 38.5008 241.481 38.6312 240.841 38.6312H237.464V17.5147Z" fill="white"/>
<path d="M271.605 16.306H268.299C267.92 16.306 267.73 16.4008 267.73 16.5904V38.6312H263.997C263.192 38.6312 262.658 38.5008 262.398 38.2401C262.161 37.9794 262.042 37.4344 262.042 36.6049V14.9551C262.042 14.1256 262.161 13.5805 262.398 13.3198C262.658 13.0592 263.192 12.9288 263.997 12.9288H271.605V16.306ZM273.027 12.9288H276.76C277.566 12.9288 278.087 13.0592 278.324 13.3198C278.585 13.5805 278.715 14.1256 278.715 14.9551V36.5693C278.715 37.3988 278.585 37.9557 278.324 38.2401C278.063 38.5008 277.542 38.6312 276.76 38.6312H273.027V26.7221H269.152V23.3448H273.027V12.9288Z" fill="white"/>
<path d="M294.937 30.8814H299.914C300.175 30.8814 300.305 31.0473 300.305 31.3791V37.6358C300.305 38.2994 299.973 38.6312 299.31 38.6312H290.707V35.254H294.013C294.392 35.254 294.582 35.2184 294.582 35.1473C294.605 35.0525 294.617 34.9459 294.617 34.8274V31.2724C294.617 31.0828 294.641 30.9762 294.688 30.9525C294.736 30.9051 294.819 30.8814 294.937 30.8814ZM289.463 38.6312H285.73C284.924 38.6312 284.391 38.5008 284.13 38.2401C283.893 37.9794 283.775 37.4344 283.775 36.6049V14.9551C283.775 14.1256 283.893 13.5805 284.13 13.3198C284.391 13.0592 284.924 12.9288 285.73 12.9288H289.463V38.6312Z" fill="white"/>
<path d="M319.687 16.306H316.381C316.002 16.306 315.812 16.4008 315.812 16.5904V38.6312H312.08C311.274 38.6312 310.741 38.5127 310.48 38.2757C310.243 38.015 310.124 37.4818 310.124 36.676V14.9551C310.124 14.1256 310.243 13.5805 310.48 13.3198C310.741 13.0592 311.274 12.9288 312.08 12.9288H319.687V16.306ZM321.678 27.4686H325.055C326.027 27.4686 326.655 27.6938 326.939 28.144C327.224 28.5706 327.366 29.2579 327.366 30.2059V35.4673C327.366 37.0315 326.951 37.9913 326.122 38.3468C325.719 38.5364 325.209 38.6312 324.593 38.6312H317.234V35.2895H320.221C321.192 35.2895 321.678 34.9459 321.678 34.2586V27.4686ZM321.216 12.9288H324.593C325.541 12.9288 326.145 13.1421 326.406 13.5687C326.691 13.9953 326.833 14.6944 326.833 15.6661V22.4917C326.833 23.8662 326.584 24.8616 326.086 25.4778C325.612 26.094 324.605 26.4021 323.065 26.4021H317.234V23.0249H319.865C320.458 23.0249 320.825 22.8827 320.967 22.5983C321.133 22.3139 321.216 21.8755 321.216 21.283V12.9288Z" fill="white"/>
<path d="M337.579 12.9288V34.223C337.579 34.6022 337.626 34.8748 337.721 35.0407C337.839 35.1829 338.112 35.254 338.539 35.254H342.378V38.6312H337.152C335.422 38.6312 334.107 38.3349 333.206 37.7425C332.329 37.15 331.891 36.119 331.891 34.6496V14.9551C331.891 14.1256 332.009 13.5805 332.246 13.3198C332.507 13.0592 333.04 12.9288 333.846 12.9288H337.579ZM343.444 12.9288H347.177C347.983 12.9288 348.504 13.0592 348.741 13.3198C349.002 13.5805 349.132 14.1256 349.132 14.9551V34.223C349.132 34.6022 349.18 34.8748 349.275 35.0407C349.393 35.1829 349.666 35.254 350.092 35.254H350.732V38.6312H348.706C346.976 38.6312 345.66 38.3349 344.76 37.7425C343.883 37.15 343.444 36.119 343.444 34.6496V12.9288Z" fill="white"/>
<path d="M360.215 38.6312H356.482C355.676 38.6312 355.143 38.5008 354.882 38.2401C354.645 37.9794 354.527 37.4344 354.527 36.6049V14.3508C354.527 13.9242 354.645 13.5805 354.882 13.3198C355.119 13.0592 355.427 12.9288 355.807 12.9288H360.215V38.6312ZM361.637 12.9288H366.152C367.526 12.9288 368.604 13.0355 369.387 13.2487C370.192 13.462 370.797 13.8886 371.2 14.5285C371.602 15.1447 371.851 15.8439 371.946 16.626C372.065 17.3844 372.124 18.4627 372.124 19.861C372.124 21.2593 372.065 22.3258 371.946 23.0604C371.851 23.7951 371.602 24.4824 371.2 25.1223C370.82 25.7622 370.216 26.2125 369.387 26.4732C368.581 26.7339 367.502 26.8643 366.152 26.8643H361.637V23.487H364.267C364.884 23.487 365.275 23.4041 365.441 23.2382C365.63 23.0723 365.725 22.8116 365.725 22.4561V17.3725C365.725 16.9933 365.63 16.7208 365.441 16.5549C365.275 16.389 364.884 16.306 364.267 16.306H361.637V12.9288ZM365.049 27.9663H369.458C370.169 27.9663 370.678 28.1677 370.986 28.5706C371.294 28.9498 371.448 29.5779 371.448 30.4548V38.6312H366.329C365.95 38.6312 365.642 38.5008 365.405 38.2401C365.168 37.9794 365.049 37.6358 365.049 37.2092V27.9663Z" fill="white"/>
<path d="M396.054 12.9288V36.6049C396.054 37.4344 395.923 37.9794 395.663 38.2401C395.426 38.5008 394.904 38.6312 394.099 38.6312H389.05C387.652 38.6312 386.728 38.4179 386.278 37.9913C385.851 37.5647 385.472 36.4627 385.14 34.6852C384.476 31.1776 383.517 25.5134 382.26 17.6925C382.166 17.1 382.024 16.7208 381.834 16.5549C381.668 16.389 381.372 16.2942 380.945 16.2705H376.573V12.9288H384.287C384.879 12.9288 385.353 12.9999 385.709 13.1421C386.064 13.2843 386.349 13.5924 386.562 14.0664C386.799 14.5167 386.953 14.9551 387.024 15.3817C387.119 15.8083 387.214 16.306 387.309 16.8748C387.427 17.5621 387.593 18.5693 387.806 19.8965C388.209 22.5746 388.837 26.3547 389.69 31.2369C390.022 33.3224 390.247 34.4956 390.366 34.7563C390.508 34.9933 390.745 35.1355 391.077 35.1829V14.3508C391.077 13.9242 391.195 13.5805 391.432 13.3198C391.669 13.0592 391.977 12.9288 392.357 12.9288H396.054ZM376.573 17.5147H380.27C380.649 17.5147 380.957 17.6451 381.194 17.9058C381.431 18.1665 381.55 18.5101 381.55 18.9367V36.6049C381.55 37.4107 381.443 37.9557 381.23 38.2401C381.016 38.5008 380.59 38.6312 379.95 38.6312H376.573V17.5147Z" fill="white"/>
<path d="M265.902 50.2321V121.375C265.902 123.867 265.51 125.505 264.727 126.289C264.014 127.072 262.448 127.464 260.026 127.464H244.858C240.656 127.464 237.879 126.823 236.526 125.541C235.244 124.259 234.105 120.948 233.108 115.606C231.114 105.067 228.229 88.0467 224.455 64.5461C224.17 62.7658 223.743 61.6263 223.173 61.1278C222.675 60.6293 221.785 60.3445 220.503 60.2733H207.364V50.2321H230.544C232.324 50.2321 233.749 50.4457 234.817 50.873C235.885 51.3003 236.74 52.2261 237.38 53.6504C238.093 55.0034 238.555 56.3209 238.769 57.6027C239.054 58.8846 239.339 60.3801 239.624 62.0892C239.98 64.1544 240.478 67.181 241.119 71.169C242.33 79.2162 244.217 90.5748 246.781 105.245C247.778 111.512 248.454 115.037 248.81 115.82C249.238 116.532 249.95 116.96 250.947 117.102V54.5049C250.947 53.2231 251.303 52.1905 252.015 51.4071C252.727 50.6238 253.653 50.2321 254.792 50.2321H265.902ZM207.364 64.012H218.473C219.613 64.012 220.538 64.4037 221.25 65.187C221.963 65.9704 222.319 67.003 222.319 68.2848V121.375C222.319 123.796 221.998 125.434 221.357 126.289C220.716 127.072 219.435 127.464 217.512 127.464H207.364V64.012Z" fill="white"/>
<path d="M298.309 127.464H287.093C284.672 127.464 283.069 127.072 282.286 126.289C281.574 125.505 281.218 123.867 281.218 121.375V56.3209C281.218 53.8284 281.574 52.1905 282.286 51.4071C283.069 50.6238 284.672 50.2321 287.093 50.2321H298.309V127.464ZM331.317 112.509V121.588C331.317 124.01 330.925 125.612 330.142 126.395C329.359 127.108 327.721 127.464 325.228 127.464H302.582V112.509H331.317ZM324.908 80.9965V87.4058C324.908 89.9695 324.658 91.6074 324.16 92.3195C323.661 92.9605 322.237 93.2809 319.887 93.2809H302.582V80.9965H324.908ZM330.249 50.2321V59.3119C330.249 61.7332 329.857 63.3355 329.074 64.1188C328.29 64.831 326.652 65.187 324.16 65.187H302.582V50.2321H330.249Z" fill="white"/>
<path d="M361.451 50.2321V114.218C361.451 115.286 361.7 116.069 362.199 116.568C362.769 117.066 363.979 117.316 365.831 117.316H373.736V127.464H360.169C357.321 127.464 354.935 127.25 353.012 126.823C351.161 126.395 349.523 125.541 348.099 124.259C346.746 122.906 345.677 121.41 344.894 119.773C344.182 118.135 343.612 115.678 343.185 112.402C342.544 107.488 342.223 100.901 342.223 92.64C342.223 84.308 342.259 78.4328 342.33 75.0145C342.473 71.5963 342.758 68.2848 343.185 65.0802C343.612 61.8044 344.182 59.3831 344.894 57.8164C345.677 56.1785 346.746 54.7186 348.099 53.4367C349.523 52.0837 351.161 51.2291 353.012 50.873C354.935 50.4457 357.321 50.2321 360.169 50.2321H361.451ZM365.724 50.3389H379.29C382.139 50.3389 384.489 50.5526 386.34 50.9799C388.263 51.4071 389.901 52.2973 391.254 53.6504C392.679 54.9322 393.747 56.3921 394.459 58.03C395.242 59.6679 395.848 62.1248 396.275 65.4007C396.916 70.3144 397.236 76.9373 397.236 85.2694C397.236 93.5302 397.165 99.3697 397.023 102.788C396.951 106.206 396.702 109.553 396.275 112.829C395.848 116.034 395.242 118.455 394.459 120.093C393.747 121.66 392.679 123.12 391.254 124.473C389.901 125.754 388.263 126.609 386.34 127.036C384.489 127.392 382.139 127.57 379.29 127.57H378.008V63.5847C378.008 62.5165 377.724 61.7332 377.154 61.2347C376.655 60.7362 375.48 60.4869 373.629 60.4869H365.724V50.3389Z" fill="white"/>
<path fill-rule="evenodd" clip-rule="evenodd" d="M110.543 57.2474C110.543 72.0511 110.543 82.2323 110.543 97.0761C115.539 97.0761 120.435 97.0761 125.407 97.0761C125.407 110.14 125.407 127.526 125.407 140.499C98.4785 140.499 71.6244 140.499 44.6858 140.499C44.6858 133.822 44.6858 127.208 44.6858 120.468C51.1993 117.182 57.7578 113.874 64.4121 110.517C64.4121 87.9372 64.4121 65.3947 64.4121 42.6252C79.8756 47.5268 95.1468 52.367 110.543 57.2474Z" fill="#CF8A61"/>
<path fill-rule="evenodd" clip-rule="evenodd" d="M168.592 54.1225L115.051 54.107L0 17.6461C0 17.6461 0 5.92482 0 0.0114859C0.514242 -0.0124742 53.0814 0.00848793 78.8887 0.00848793C98.063 0.00848793 117.238 0.0105872 136.412 0.0075922C143.687 0.0063942 150.001 2.59288 155.498 7.22945C162.193 12.8774 166.234 20.1796 168.465 28.5593C168.568 28.9444 168.59 29.3598 168.59 29.7618C168.598 37.4955 168.592 54.1225 168.592 54.1225V54.1225Z" fill="#CF8A61"/>
<path fill-rule="evenodd" clip-rule="evenodd" d="M115.017 58.6135C132.899 58.6135 150.713 58.6135 168.594 58.6135C168.594 70.0221 168.594 81.3525 168.594 92.7602C150.712 92.7602 132.898 92.7602 115.017 92.7602C115.017 81.3516 115.017 70.0212 115.017 58.6135V58.6135Z" fill="#CF8A61"/>
</svg>
