<svg width="499" height="107" viewBox="0 0 499 107" fill="none" xmlns="http://www.w3.org/2000/svg">
<path d="M0 106.113V92.1429H9.69068V93.8547H1.89249V98.0962H8.74919V99.7604H1.89249V106.113H0Z" fill="white"/>
<path d="M14.1961 99.9887V92.1429H16.1171V100.778C16.1171 101.792 16.3073 102.636 16.6877 103.308C17.252 104.322 18.203 104.829 19.5407 104.829C21.1448 104.829 22.2352 104.281 22.8122 103.184C23.1228 102.588 23.2782 101.786 23.2782 100.778V92.1429H25.1992V99.9887C25.1992 101.707 24.9678 103.029 24.505 103.954C23.6554 105.641 22.0514 106.484 19.6929 106.484C17.3344 106.484 15.7336 105.641 14.8904 103.954C14.4275 103.029 14.1961 101.707 14.1961 99.9887Z" fill="white"/>
<path d="M29.3242 102.604V101.605H31.1026V102.604C31.1026 103.365 31.2706 103.938 31.6066 104.325C31.949 104.706 32.4784 104.896 33.1948 104.896C34.2029 104.896 34.8622 104.55 35.1729 103.859C35.3631 103.434 35.4582 102.632 35.4582 101.453V92.1429H37.3316V101.948C37.3316 103.127 37.1573 104.043 36.8086 104.696C36.1619 105.888 34.932 106.484 33.1187 106.484C32.0726 106.484 31.1787 106.202 30.4369 105.638C29.6951 105.067 29.3242 104.056 29.3242 102.604Z" fill="white"/>
<path d="M42.9783 106.113V92.1429H44.8898V106.113H42.9783Z" fill="white"/>
<path d="M49.1385 93.8072V92.1429H60.4744V93.8072H55.7669V106.113H53.8459V93.8072H49.1385Z" fill="white"/>
<path d="M64.0098 101.605H65.7882C65.8326 102.398 66.0196 103.041 66.3493 103.536C66.9769 104.462 68.0833 104.924 69.6683 104.924C70.3783 104.924 71.025 104.823 71.6083 104.62C72.7368 104.227 73.3011 103.523 73.3011 102.509C73.3011 101.748 73.0633 101.206 72.5878 100.883C72.106 100.566 71.3515 100.29 70.3245 100.055L68.432 99.6273C67.1957 99.3483 66.3207 99.0408 65.8072 98.7048C64.9196 98.1215 64.4758 97.2498 64.4758 96.0896C64.4758 94.8342 64.9101 93.804 65.7787 92.9988C66.6473 92.1936 67.8772 91.791 69.4686 91.791C70.9331 91.791 72.1757 92.1461 73.1965 92.8562C74.2235 93.5599 74.7371 94.6884 74.7371 96.2417H72.9587C72.8636 95.4936 72.6607 94.9198 72.3501 94.5204C71.7731 93.7913 70.7936 93.4268 69.4115 93.4268C68.2957 93.4268 67.4936 93.6613 67.0055 94.1305C66.5173 94.5997 66.2732 95.1449 66.2732 95.7662C66.2732 96.4509 66.5585 96.9518 67.1291 97.2688C67.5032 97.4717 68.3495 97.7253 69.6683 98.0296L71.6273 98.4766C72.572 98.6921 73.3011 98.9869 73.8146 99.361C74.7022 100.014 75.146 100.962 75.146 102.204C75.146 103.751 74.5818 104.858 73.4532 105.523C72.3311 106.189 71.025 106.522 69.5351 106.522C67.798 106.522 66.438 106.078 65.4553 105.191C64.4917 104.328 64.0098 103.162 64.0098 101.691C64.0098 101.666 64.0098 101.637 64.0098 101.605Z" fill="white"/>
<path d="M80.0128 99.9887V92.1429H81.9339V100.778C81.9339 101.792 82.1241 102.636 82.5045 103.308C83.0687 104.322 84.0197 104.829 85.3575 104.829C86.9615 104.829 88.052 104.281 88.6289 103.184C88.9396 102.588 89.0949 101.786 89.0949 100.778V92.1429H91.0159V99.9887C91.0159 101.707 90.7845 103.029 90.3217 103.954C89.4721 105.641 87.8681 106.484 85.5096 106.484C83.1511 106.484 81.5503 105.641 80.7071 103.954C80.2443 103.029 80.0128 101.707 80.0128 99.9887Z" fill="white"/>
<path d="M106.785 106.113V92.1429H116.475V93.8547H108.677V98.0962H115.534V99.7604H108.677V106.113H106.785Z" fill="white"/>
<path d="M120.8 106.113V92.1429H123.51L127.524 103.954L131.508 92.1429H134.19V106.113H132.393V97.8679C132.393 97.5826 132.399 97.1103 132.412 96.4509C132.425 95.7916 132.431 95.0847 132.431 94.3302L128.446 106.113H126.573L122.559 94.3302V94.7582C122.559 95.1005 122.566 95.6236 122.578 96.3273C122.598 97.0247 122.607 97.5382 122.607 97.8679V106.113H120.8Z" fill="white"/>
<path d="M148.373 101.605H150.151C150.196 102.398 150.383 103.041 150.712 103.536C151.34 104.462 152.446 104.924 154.031 104.924C154.741 104.924 155.388 104.823 155.971 104.62C157.1 104.227 157.664 103.523 157.664 102.509C157.664 101.748 157.426 101.206 156.951 100.883C156.469 100.566 155.715 100.29 154.687 100.055L152.795 99.6273C151.559 99.3483 150.684 99.0408 150.17 98.7048C149.283 98.1215 148.839 97.2498 148.839 96.0896C148.839 94.8342 149.273 93.804 150.142 92.9988C151.01 92.1936 152.24 91.791 153.832 91.791C155.296 91.791 156.539 92.1461 157.559 92.8562C158.587 93.5599 159.1 94.6884 159.1 96.2417H157.322C157.227 95.4936 157.024 94.9198 156.713 94.5204C156.136 93.7913 155.157 93.4268 153.775 93.4268C152.659 93.4268 151.857 93.6613 151.368 94.1305C150.88 94.5997 150.636 95.1449 150.636 95.7662C150.636 96.4509 150.922 96.9518 151.492 97.2688C151.866 97.4717 152.713 97.7253 154.031 98.0296L155.99 98.4766C156.935 98.6921 157.664 98.9869 158.178 99.361C159.065 100.014 159.509 100.962 159.509 102.204C159.509 103.751 158.945 104.858 157.816 105.523C156.694 106.189 155.388 106.522 153.898 106.522C152.161 106.522 150.801 106.078 149.818 105.191C148.855 104.328 148.373 103.162 148.373 101.691C148.373 101.666 148.373 101.637 148.373 101.605Z" fill="white"/>
<path d="M164.423 106.113V92.1429H174.609V93.8547H166.268V98.0962H173.981V99.7129H166.268V104.449H174.751V106.113H164.423Z" fill="white"/>
<path d="M179.799 106.113V92.1429H186.266C187.331 92.1429 188.209 92.2982 188.9 92.6089C190.212 93.2049 190.868 94.3048 190.868 95.9089C190.868 96.7457 190.694 97.4305 190.345 97.963C190.003 98.4956 189.521 98.9235 188.9 99.2469C189.445 99.4688 189.854 99.7604 190.127 100.122C190.406 100.483 190.561 101.07 190.593 101.881L190.659 103.755C190.678 104.287 190.723 104.683 190.792 104.943C190.906 105.387 191.109 105.672 191.401 105.799V106.113H189.081C189.017 105.993 188.966 105.837 188.928 105.647C188.89 105.457 188.859 105.089 188.833 104.544L188.719 102.214C188.675 101.301 188.336 100.689 187.702 100.379C187.34 100.207 186.773 100.122 185.999 100.122H181.691V106.113H179.799ZM181.691 98.5431H186.066C186.953 98.5431 187.654 98.3656 188.168 98.0106C188.687 97.6555 188.947 97.0152 188.947 96.0896C188.947 95.0942 188.586 94.4158 187.863 94.0544C187.477 93.8642 186.96 93.7691 186.313 93.7691H181.691V98.5431Z" fill="white"/>
<path d="M196.41 106.113V92.1429H198.322V106.113H196.41Z" fill="white"/>
<path d="M203.921 106.113V92.1429H214.106V93.8547H205.766V98.0962H213.479V99.7129H205.766V104.449H214.249V106.113H203.921Z" fill="white"/>
<path d="M218.526 101.605H220.304C220.349 102.398 220.536 103.041 220.866 103.536C221.493 104.462 222.6 104.924 224.185 104.924C224.895 104.924 225.541 104.823 226.125 104.62C227.253 104.227 227.817 103.523 227.817 102.509C227.817 101.748 227.58 101.206 227.104 100.883C226.622 100.566 225.868 100.29 224.841 100.055L222.948 99.6273C221.712 99.3483 220.837 99.0408 220.324 98.7048C219.436 98.1215 218.992 97.2498 218.992 96.0896C218.992 94.8342 219.426 93.804 220.295 92.9988C221.164 92.1936 222.394 91.791 223.985 91.791C225.449 91.791 226.692 92.1461 227.713 92.8562C228.74 93.5599 229.253 94.6884 229.253 96.2417H227.475C227.38 95.4936 227.177 94.9198 226.866 94.5204C226.289 93.7913 225.31 93.4268 223.928 93.4268C222.812 93.4268 222.01 93.6613 221.522 94.1305C221.034 94.5997 220.789 95.1449 220.789 95.7662C220.789 96.4509 221.075 96.9518 221.645 97.2688C222.019 97.4717 222.866 97.7253 224.185 98.0296L226.144 98.4766C227.088 98.6921 227.817 98.9869 228.331 99.361C229.219 100.014 229.662 100.962 229.662 102.204C229.662 103.751 229.098 104.858 227.97 105.523C226.847 106.189 225.541 106.522 224.051 106.522C222.314 106.522 220.954 106.078 219.972 105.191C219.008 104.328 218.526 103.162 218.526 101.691C218.526 101.666 218.526 101.637 218.526 101.605Z" fill="white"/>
<path d="M243.12 106.113V92.1429H249.406C250.649 92.1429 251.65 92.4948 252.411 93.1985C253.172 93.8959 253.552 94.8786 253.552 96.1466C253.552 97.2371 253.213 98.1881 252.535 98.9996C251.856 99.8048 250.813 100.207 249.406 100.207H245.012V106.113H243.12ZM245.012 98.6097H248.778C249.628 98.6097 250.316 98.429 250.842 98.0676C251.375 97.7063 251.641 97.0691 251.641 96.1561C251.641 95.129 251.26 94.4316 250.5 94.0639C250.081 93.8674 249.507 93.7691 248.778 93.7691H245.012V98.6097Z" fill="white"/>
<path d="M257.863 106.113V92.1429H268.049V93.8547H259.708V98.0962H267.421V99.7129H259.708V104.449H268.191V106.113H257.863Z" fill="white"/>
<path d="M272.654 106.113V92.1429H279.121C280.186 92.1429 281.064 92.2982 281.756 92.6089C283.068 93.2049 283.724 94.3048 283.724 95.9089C283.724 96.7457 283.55 97.4305 283.201 97.963C282.859 98.4956 282.377 98.9235 281.756 99.2469C282.301 99.4688 282.71 99.7604 282.982 100.122C283.261 100.483 283.417 101.07 283.448 101.881L283.515 103.755C283.534 104.287 283.578 104.683 283.648 104.943C283.762 105.387 283.965 105.672 284.257 105.799V106.113H281.936C281.873 105.993 281.822 105.837 281.784 105.647C281.746 105.457 281.714 105.089 281.689 104.544L281.575 102.214C281.53 101.301 281.191 100.689 280.557 100.379C280.196 100.207 279.628 100.122 278.855 100.122H274.547V106.113H272.654ZM274.547 98.5431H278.922C279.809 98.5431 280.51 98.3656 281.023 98.0106C281.543 97.6555 281.803 97.0152 281.803 96.0896C281.803 95.0942 281.442 94.4158 280.719 94.0544C280.332 93.8642 279.815 93.7691 279.169 93.7691H274.547V98.5431Z" fill="white"/>
<path d="M287.712 101.605H289.49C289.535 102.398 289.722 103.041 290.051 103.536C290.679 104.462 291.785 104.924 293.37 104.924C294.08 104.924 294.727 104.823 295.31 104.62C296.439 104.227 297.003 103.523 297.003 102.509C297.003 101.748 296.765 101.206 296.29 100.883C295.808 100.566 295.054 100.29 294.026 100.055L292.134 99.6273C290.898 99.3483 290.023 99.0408 289.509 98.7048C288.622 98.1215 288.178 97.2498 288.178 96.0896C288.178 94.8342 288.612 93.804 289.481 92.9988C290.349 92.1936 291.579 91.791 293.171 91.791C294.635 91.791 295.878 92.1461 296.898 92.8562C297.926 93.5599 298.439 94.6884 298.439 96.2417H296.661C296.566 95.4936 296.363 94.9198 296.052 94.5204C295.475 93.7913 294.496 93.4268 293.113 93.4268C291.998 93.4268 291.196 93.6613 290.707 94.1305C290.219 94.5997 289.975 95.1449 289.975 95.7662C289.975 96.4509 290.26 96.9518 290.831 97.2688C291.205 97.4717 292.052 97.7253 293.37 98.0296L295.329 98.4766C296.274 98.6921 297.003 98.9869 297.517 99.361C298.404 100.014 298.848 100.962 298.848 102.204C298.848 103.751 298.284 104.858 297.155 105.523C296.033 106.189 294.727 106.522 293.237 106.522C291.5 106.522 290.14 106.078 289.157 105.191C288.194 104.328 287.712 103.162 287.712 101.691C287.712 101.666 287.712 101.637 287.712 101.605Z" fill="white"/>
<path d="M302.275 99.1993C302.275 97.31 302.744 95.6933 303.682 94.3492C304.887 92.6248 306.668 91.7625 309.027 91.7625C311.493 91.7625 313.319 92.555 314.504 94.14C315.43 95.3763 315.893 96.9581 315.893 98.8855C315.893 100.971 315.364 102.705 314.305 104.087C313.062 105.71 311.29 106.522 308.989 106.522C306.839 106.522 305.15 105.812 303.92 104.392C302.823 103.022 302.275 101.292 302.275 99.1993ZM304.234 99.323C304.234 100.87 304.624 102.176 305.403 103.241C306.19 104.3 307.461 104.829 309.217 104.829C310.884 104.829 312.089 104.233 312.831 103.041C313.579 101.843 313.953 100.467 313.953 98.914C313.953 97.272 313.522 95.9501 312.66 94.9484C311.804 93.9466 310.631 93.4458 309.141 93.4458C307.695 93.4458 306.516 93.9435 305.603 94.9388C304.69 95.9279 304.234 97.3893 304.234 99.323Z" fill="white"/>
<path d="M319.909 106.113V92.1429H322.144L329.2 103.46V92.1429H330.998V106.113H328.877L321.716 94.8057V106.113H319.909Z" fill="white"/>
<path d="M334.539 106.113L339.798 92.1429H341.937L347.006 106.113H344.933L343.516 101.929H337.991L336.479 106.113H334.539ZM338.533 100.388H342.907L340.787 94.2161L338.533 100.388Z" fill="white"/>
<path d="M350.48 106.113V92.1429H352.373V104.449H359.448V106.113H350.48Z" fill="white"/>
<path d="M373.274 98.9806C373.274 96.9201 373.819 95.2305 374.91 93.9118C376.089 92.4789 377.715 91.7625 379.788 91.7625C381.557 91.7625 382.93 92.2285 383.906 93.1605C384.882 94.0925 385.424 95.1512 385.532 96.3368H383.687C383.478 95.4365 383.06 94.7233 382.432 94.1971C381.811 93.6708 380.936 93.4077 379.807 93.4077C378.431 93.4077 377.319 93.8927 376.469 94.8628C375.626 95.8264 375.204 97.3068 375.204 99.3039C375.204 100.94 375.585 102.268 376.346 103.289C377.113 104.303 378.254 104.81 379.769 104.81C381.164 104.81 382.226 104.274 382.955 103.203C383.342 102.639 383.63 101.897 383.82 100.978H385.665C385.501 102.449 384.955 103.682 384.03 104.677C382.92 105.875 381.424 106.474 379.541 106.474C377.918 106.474 376.555 105.983 375.452 105C374 103.701 373.274 101.694 373.274 98.9806Z" fill="white"/>
<path d="M389.201 99.1993C389.201 97.31 389.67 95.6933 390.609 94.3492C391.813 92.6248 393.595 91.7625 395.953 91.7625C398.42 91.7625 400.245 92.555 401.431 94.14C402.357 95.3763 402.82 96.9581 402.82 98.8855C402.82 100.971 402.29 102.705 401.231 104.087C399.989 105.71 398.217 106.522 395.915 106.522C393.766 106.522 392.076 105.812 390.846 104.392C389.75 103.022 389.201 101.292 389.201 99.1993ZM391.16 99.323C391.16 100.87 391.55 102.176 392.33 103.241C393.116 104.3 394.387 104.829 396.144 104.829C397.811 104.829 399.016 104.233 399.757 103.041C400.505 101.843 400.879 100.467 400.879 98.914C400.879 97.272 400.448 95.9501 399.586 94.9484C398.73 93.9466 397.557 93.4458 396.067 93.4458C394.622 93.4458 393.443 93.9435 392.53 94.9388C391.617 95.9279 391.16 97.3893 391.16 99.323Z" fill="white"/>
<path d="M406.983 106.113V92.1429H409.693L413.707 103.954L417.691 92.1429H420.373V106.113H418.576V97.8679C418.576 97.5826 418.582 97.1103 418.595 96.4509C418.607 95.7916 418.614 95.0847 418.614 94.3302L414.629 106.113H412.756L408.742 94.3302V94.7582C408.742 95.1005 408.749 95.6236 408.761 96.3273C408.78 97.0247 408.79 97.5382 408.79 97.8679V106.113H406.983Z" fill="white"/>
<path d="M425.383 106.113V92.1429H431.669C432.912 92.1429 433.913 92.4948 434.674 93.1985C435.435 93.8959 435.815 94.8786 435.815 96.1466C435.815 97.2371 435.476 98.1881 434.798 98.9996C434.119 99.8048 433.076 100.207 431.669 100.207H427.275V106.113H425.383ZM427.275 98.6097H431.041C431.891 98.6097 432.579 98.429 433.105 98.0676C433.638 97.7063 433.904 97.0691 433.904 96.1561C433.904 95.129 433.523 94.4316 432.763 94.0639C432.344 93.8674 431.77 93.7691 431.041 93.7691H427.275V98.6097Z" fill="white"/>
<path d="M440.274 99.9887V92.1429H442.195V100.778C442.195 101.792 442.385 102.636 442.765 103.308C443.329 104.322 444.28 104.829 445.618 104.829C447.222 104.829 448.313 104.281 448.89 103.184C449.2 102.588 449.356 101.786 449.356 100.778V92.1429H451.277V99.9887C451.277 101.707 451.045 103.029 450.582 103.954C449.733 105.641 448.129 106.484 445.77 106.484C443.412 106.484 441.811 105.641 440.968 103.954C440.505 103.029 440.274 101.707 440.274 99.9887Z" fill="white"/>
<path d="M454.993 93.8072V92.1429H466.329V93.8072H461.622V106.113H459.701V93.8072H454.993Z" fill="white"/>
<path d="M470.198 106.113V92.1429H480.383V93.8547H472.043V98.0962H479.755V99.7129H472.043V104.449H480.526V106.113H470.198Z" fill="white"/>
<path d="M485.184 106.113V92.1429H491.65C492.715 92.1429 493.594 92.2982 494.285 92.6089C495.597 93.2049 496.253 94.3048 496.253 95.9089C496.253 96.7457 496.079 97.4305 495.73 97.963C495.388 98.4956 494.906 98.9235 494.285 99.2469C494.83 99.4688 495.239 99.7604 495.511 100.122C495.79 100.483 495.946 101.07 495.977 101.881L496.044 103.755C496.063 104.287 496.107 104.683 496.177 104.943C496.291 105.387 496.494 105.672 496.786 105.799V106.113H494.465C494.402 105.993 494.351 105.837 494.313 105.647C494.275 105.457 494.243 105.089 494.218 104.544L494.104 102.214C494.06 101.301 493.72 100.689 493.086 100.379C492.725 100.207 492.158 100.122 491.384 100.122H487.076V106.113H485.184ZM487.076 98.5431H491.451C492.338 98.5431 493.039 98.3656 493.552 98.0106C494.072 97.6555 494.332 97.0152 494.332 96.0896C494.332 95.0942 493.971 94.4158 493.248 94.0544C492.861 93.8642 492.345 93.7691 491.698 93.7691H487.076V98.5431Z" fill="white"/>
<path d="M132.157 18.4851H158.36V2.76331H87.5645V18.4851H113.482V39.8167H132.157V18.4851Z" fill="white"/>
<path d="M132.158 41.8177H113.482V78.4186H132.158V41.8177Z" fill="white"/>
<path d="M196.38 16.9604C209.171 16.9604 219.581 27.1249 219.991 39.8164H236.961C236.548 17.7565 218.539 0 196.38 0C174.221 0 156.212 17.7565 155.799 39.8167H172.769C173.179 27.1252 183.589 16.9604 196.38 16.9604Z" fill="white"/>
<path d="M196.379 64.2212C183.74 64.2212 173.419 54.2982 172.781 41.8177H155.809C156.457 63.6675 174.372 81.1816 196.379 81.1816C218.386 81.1816 236.301 63.6672 236.95 41.8174H219.978C219.34 54.2982 209.019 64.2212 196.379 64.2212Z" fill="white"/>
<path d="M285.755 33.2539L287.393 39.8168H303.511L294.522 2.85858H276.704L267.785 39.8168H284.174L285.755 33.2539Z" fill="white"/>
<path d="M253.359 2.85858H236.398L245.265 39.8168H261.921L253.359 2.85858Z" fill="white"/>
<path d="M264.792 52.2155L262.384 41.8177H245.744L254.502 78.3231H274.893L283.691 41.8177H267.302L264.792 52.2155Z" fill="white"/>
<path d="M335.113 2.85858H318.343L309.496 39.8168H326.153L335.113 2.85858Z" fill="white"/>
<path d="M306.526 52.2155L303.997 41.8177H287.891L296.998 78.3231H316.817L325.667 41.8177H309.015L306.526 52.2155Z" fill="white"/>
<path d="M359.886 20.2003H366.938C366.938 20.2003 370.49 29.2283 374.675 39.8168H392.048C386.764 26.5699 380.415 10.5143 379.515 7.81354C377.99 3.23993 373.226 2.85889 371.511 2.85889C369.796 2.85889 342.926 2.85889 342.926 2.85889V39.8171H359.886V20.2003Z" fill="white"/>
<path d="M359.886 41.8177H342.926V78.3234H359.886V41.8177Z" fill="white"/>
<path d="M401.431 60.0286C401.431 60.0286 400.478 60.6001 399.334 57.9322C398.901 56.92 396.162 50.1179 392.847 41.8174H375.467C380.601 54.7987 386.392 69.3748 387.71 72.4154C390.187 78.1324 393.808 78.3231 399.334 78.3231C404.861 78.3231 417.82 78.3231 417.82 78.3231V41.8177H401.431V60.0286V60.0286Z" fill="white"/>
<path d="M417.819 2.85858H401.43V39.8168H417.819V2.85858Z" fill="white"/>
<path d="M473.405 23.8209C456.856 23.8209 447.426 23.8209 445.309 23.8209C443.192 23.8209 442.038 22.8681 442.038 21.7247C442.038 20.5813 442.808 19.2473 444.155 19.2473C445.502 19.2473 493.611 19.2473 493.611 19.2473V2.85858C493.611 2.85858 457.625 2.85858 444.155 2.85858C430.684 2.85858 425.488 14.1019 425.488 21.7247C425.488 29.2052 427.899 39.4378 443.994 39.8168H496.557C492.838 31.3296 484.948 23.8209 473.405 23.8209Z" fill="white"/>
<path d="M481.68 50.6908C481.68 56.9795 475.715 61.5531 470.134 61.5531C464.553 61.5531 425.488 61.5531 425.488 61.5531V78.3231C425.488 78.3231 452.815 78.3231 471.096 78.3231C489.378 78.3231 499 62.5061 499 50.8814C499 47.9966 498.442 44.8774 497.351 41.8174H476.821C479.582 43.7357 481.68 46.9009 481.68 50.6908Z" fill="white"/>
<path d="M47.8691 78.4183H64.5871V70.5268H60.2259V57.5472L69.8831 78.4183H75.6979L83.6937 58.2221V70.5268H80.6822V78.4183H100.619V70.5268H96.0762L96.0504 48.6172H100.619V41.4261H82.6194L74.6076 60.2468L65.9369 41.4175H47.8691V48.6172H52.1263V70.5268H47.8691V78.4183Z" fill="white"/>
<path d="M0 41.4175V49.2052H4.13483V70.8104H0V78.3565H21.6052V70.8229H17.1731V65.2408H29.7719V57.5912H17.3669V49.2178H32.8731V56.4412H43.2106V41.4175H0Z" fill="white"/>
</svg>
