<?xml version="1.0" encoding="UTF-8"?>
<svg width="489px" height="82px" viewBox="0 0 489 82" version="1.1" xmlns="http://www.w3.org/2000/svg" xmlns:xlink="http://www.w3.org/1999/xlink">
    <title>syslogo</title>
    <g id="Page-1" stroke="none" stroke-width="1" fill="none" fill-rule="evenodd">
        <g id="syslogo" fill="#FFFFFF" fill-rule="nonzero">
            <g id="Group" transform="translate(103.200002, 10.320000)">
                <polygon id="Path" points="375.268746 57.560661 373.303646 57.560661 373.303646 56.8821209 377.985486 56.8821209 377.985486 57.560661 376.036726 57.560661 376.036726 62.846221 375.268746 62.846221"></polygon>
                <polygon id="Path" points="381.161466 62.846221 379.533486 58.000121 379.533486 62.846221 378.747446 62.846221 378.747446 56.8821209 379.834486 56.8821209 381.554486 61.952681 383.272766 56.8821209 384.359806 56.8821209 384.359806 62.846221 383.577206 62.846221 383.577206 58.000121 381.947506 62.846221"></polygon>
                <path d="M2.41918004,6.31584011 C2.41918004,4.24410007 2.02530003,1.56090003 1.11026002,0.432580007 C7.10704012,0.432580007 20.0638003,0.472140008 25.6176804,0.472140008 C38.3964206,0.472140008 57.675901,7.56456013 57.675901,31.4768605 C57.675901,49.2229608 44.0655407,62.443741 25.6176804,62.443741 C21.5713804,62.443741 6.1214801,62.393861 0.639840011,62.393861 C1.76300003,60.320401 2.41918004,57.504761 2.41918004,55.2825209 L2.41918004,6.31584011 L2.41918004,6.31584011 Z M11.6100002,56.3669809 C17.5078803,57.134101 22.9525404,57.368881 27.8786205,56.6654009 C32.6447405,55.9834209 48.6605208,52.5331009 48.5607608,31.2704605 C48.4670208,11.1198002 36.0211006,6.51278011 26.4321004,5.9494801 C21.4277604,5.65450009 16.5971403,5.8437001 11.6091402,6.70714011 L11.6100002,56.3669809 L11.6100002,56.3669809 Z" id="Shape"></path>
                <path d="M62.940821,19.4721203 L72.1221812,18.0385003 C72.1221812,19.9184603 72.1221812,25.4310604 72.1221812,26.1225004 C74.4768612,20.3028803 81.8049214,15.6262003 92.2169415,19.6785203 L89.7762615,26.0709004 C80.2457413,21.5473004 72.1221812,25.5153404 72.1221812,36.0993606 L72.1221812,57.938201 C72.1221812,58.977941 72.3492212,61.075481 72.9692812,62.421381 L63.4327411,62.421381 C64.3959411,61.233721 64.8431411,58.977941 64.8431411,57.938201 L64.8431411,26.4364004 C64.8405611,24.1513804 64.3744411,20.6142003 62.940821,19.4721203 L62.940821,19.4721203 Z" id="Path"></path>
                <path d="M353.218346,23.8546804 C353.218346,24.4506604 353.218346,49.8516208 353.218346,51.7479209 C353.218346,60.505301 359.254686,62.846221 363.726686,62.846221 C365.616106,62.938241 368.295866,62.497061 370.166366,62.081681 L371.317046,56.6765809 C369.136946,57.510781 366.603386,57.706001 365.082046,57.706001 C362.278446,57.706001 360.251426,55.8449609 360.251426,52.9338609 C360.251426,50.3220408 360.185206,24.7181204 360.251426,23.8994004 L360.222186,23.8994004 C360.593706,23.8994004 366.410746,23.8787604 366.998126,23.8994004 C368.904746,23.9664804 370.369326,24.0825804 371.630946,24.5899804 L371.637826,19.4996403 C371.637826,19.4996403 360.470726,19.4850203 360.252286,19.4850203 L360.297866,6.42936011 L351.837186,8.76770015 C353.003346,9.85904016 353.382606,13.0522202 353.382606,15.1583603 C353.382606,15.1583603 353.375726,19.0593203 353.375726,19.5297403 C352.996466,19.5297403 348.699046,19.5512403 347.987826,19.5512403 L347.987826,23.8521004 C348.738606,23.8521004 353.218346,23.8546804 353.218346,23.8546804 L353.218346,23.8546804 Z" id="Path"></path>
                <path d="M316.645985,53.3509609 C320.282925,55.9490209 325.990745,58.255541 330.176365,58.255541 C335.983086,58.255541 340.142046,55.4304409 340.142046,50.1122008 C340.142046,40.2961607 317.763125,41.9232807 317.763125,29.4687605 C317.763125,21.0476404 325.293285,17.8794003 332.469126,17.8794003 C334.776506,17.8794003 340.042286,18.3799203 343.388546,19.6750803 L343.361886,25.4267604 C340.387146,22.8854604 335.849786,22.2714204 332.858706,22.2714204 C328.110645,22.2714204 324.544225,24.6278204 324.544225,29.2477405 C324.544225,36.0305606 346.905946,35.6375406 346.905946,49.5618008 C346.905946,58.566861 339.105746,62.766241 330.518645,62.766241 C326.334745,62.766241 321.971105,62.024921 318.341045,60.985181 L316.645985,53.3509609 L316.645985,53.3509609 Z" id="Path"></path>
                <path d="M181.552023,23.9415404 C181.552023,23.4324204 181.570083,18.8718403 181.570083,18.2879003 L172.274343,19.7249603 C173.394923,20.8988603 174.254923,24.5607404 174.254923,27.1785805 L174.254923,57.634621 C174.254923,58.674361 173.808583,61.197601 172.843663,62.382681 L182.977903,62.382681 C182.016423,61.195021 181.570083,58.673501 181.570083,57.634621 L181.570083,34.7199206 C181.570083,26.3349204 186.756743,23.3988804 191.920183,23.3988804 C196.593423,23.3988804 200.816023,25.4216004 200.816023,34.7199206 L200.816023,57.635481 C200.816023,58.675221 200.368823,61.197601 199.408203,62.383541 L209.236283,62.383541 C208.270503,61.195881 207.828463,58.674361 207.828463,57.635481 L207.828463,34.7199206 C207.828463,25.4224604 213.571544,23.3988804 218.254244,23.3988804 C222.924044,23.3988804 227.809704,26.3323404 227.809704,34.7199206 L227.809704,57.635481 C227.809704,58.675221 227.366804,61.197601 226.397584,62.383541 L235.864464,62.383541 C234.895244,61.195881 234.454924,58.674361 234.454924,57.635481 L234.454924,30.3683205 C234.454924,25.7208804 229.711164,18.2741403 218.638664,18.2741403 C212.195544,18.2741403 208.475183,21.1405204 205.650083,23.6061404 C203.248103,20.8025403 199.337683,18.1735189 193.053663,18.1735189 C186.933903,18.1709403 183.319323,21.7597204 181.552023,23.9415404 L181.552023,23.9415404 Z" id="Path"></path>
                <path d="M159.634063,38.2295806 C158.307083,39.4791607 155.529283,40.4475207 152.662043,40.8259207 C145.126722,41.8123407 138.599322,43.0653607 138.599322,50.4037408 C138.599322,54.7579209 143.346522,58.185021 147.105582,58.185021 C157.062663,58.185021 159.635783,51.0014408 159.635783,45.3409208 L159.635783,38.2295806 L159.634063,38.2295806 L159.634063,38.2295806 Z M136.111342,20.2702003 C139.911682,18.7471403 146.043482,18.0488203 149.889402,18.0488203 C159.710603,18.0488203 166.236283,22.9551204 166.236283,34.3458206 L166.236283,53.2417409 C166.236283,56.7410809 166.289603,60.056381 167.536603,62.384401 L159.643523,62.384401 L159.358003,57.413601 C156.371223,61.272421 152.798783,62.999301 146.736642,62.999301 C134.774042,62.999301 132.163082,54.8267209 132.163082,50.8999608 C132.163082,36.8845406 145.503402,36.7228606 151.297223,35.8955406 C154.503303,35.4431806 158.625283,34.5367406 159.247063,31.5319005 C160.268743,26.5611004 156.716943,22.8338604 149.455962,22.8338604 C144.126542,22.8338604 139.761182,24.4549604 136.113922,26.6367804 L136.111342,20.2702003 L136.111342,20.2702003 Z M305.791925,38.2295806 C304.466665,39.4791607 301.687145,40.4475207 298.818185,40.8259207 C291.284585,41.8123407 284.758905,43.0653607 284.758905,50.4037408 C284.758905,54.7579209 289.502665,58.185021 293.261725,58.185021 C303.217085,58.185021 305.791925,51.0014408 305.791925,45.3409208 L305.791925,38.2295806 L305.791925,38.2295806 Z M282.271785,20.2702003 C286.071265,18.7471403 292.209945,18.0488203 296.051565,18.0488203 C305.867605,18.0488203 312.393285,22.9551204 312.393285,34.3458206 L312.393285,53.2417409 C312.393285,56.7410809 311.630465,59.985001 313.690165,62.384401 L305.798805,62.384401 L305.511565,57.413601 C302.520485,61.272421 298.954065,62.999301 292.891925,62.999301 C280.936205,62.999301 278.320945,54.8267209 278.320945,50.8999608 C278.320945,36.8845406 291.661265,36.7228606 297.452505,35.8955406 C300.659445,35.4431806 304.785725,34.5367406 305.400625,31.5319005 C306.424025,26.5611004 302.871365,22.8338604 295.609525,22.8338604 C290.281825,22.8338604 285.916465,24.4549604 282.268345,26.6367804 L282.268345,20.2727803 L282.271785,20.2702003 L282.271785,20.2702003 Z" id="Shape"></path>
                <path d="M273.867865,26.0648804 C270.906885,24.3345604 266.231924,22.9645804 262.971664,22.9645804 C251.523344,22.9645804 246.277344,30.0036805 246.277344,40.1439407 C246.277344,50.1887408 251.407244,57.881441 262.602724,57.881441 C266.440044,57.881441 271.662825,56.1562809 275.717725,53.6657209 L274.068245,61.055701 C269.941104,62.283781 266.464124,62.868581 261.861404,62.868581 C246.127704,62.868581 238.752344,51.7083609 238.752344,40.0966407 C238.752344,27.2645805 248.645784,18.2380203 262.034264,18.2380203 C267.886564,18.2380203 272.157325,19.6725003 273.881625,20.1627003 L273.867865,26.0648804 L273.867865,26.0648804 Z" id="Path"></path>
                <path d="M97.7355616,40.6814407 C97.7424416,39.6202007 97.8834816,38.6088406 98.0021616,37.6284406 L128.447022,37.6284406 C128.447022,27.1631005 123.212202,18.1855603 110.812722,18.1855603 C97.9428216,18.1855603 90.3017215,28.2501405 90.3017215,41.0873607 C90.3017215,52.6956409 98.8079816,63.068961 113.377242,63.068961 C117.983402,63.068961 121.834482,61.934621 125.992582,60.478641 L127.455442,53.0568409 C123.899342,55.9842809 118.152822,57.716321 112.965302,57.716321 C103.642042,57.716321 97.6951416,50.9661808 97.7355616,40.6814407 L97.7355616,40.6814407 Z M98.9662216,32.9861605 C99.9543617,27.8949605 104.666302,22.7074404 110.304462,22.7074404 C118.919942,22.7074404 121.413082,29.4300605 121.413082,32.9861605 C121.411362,32.9861605 98.9662216,33.0025005 98.9662216,32.9861605 L98.9662216,32.9861605 Z" id="Shape"></path>
            </g>
            <path d="M55.9498809,1.10768002 C59.363221,1.62024003 62.852241,2.81392005 64.6711411,3.36948006 C68.3356011,4.48920007 74.2833612,7.97134013 76.3852013,9.63974016 C77.3802213,10.4292202 79.4683013,12.4975202 80.2792813,13.5381202 C81.0679013,14.5520602 82.5729014,16.7485003 83.5326614,18.1030003 C85.0643214,20.3364203 86.8643014,23.6637604 88.3899415,26.7245004 C90.0961815,30.1455805 90.2131415,31.1363005 90.7300015,33.9958006 L91.8574615,39.0371206 C91.9632415,39.9091607 92.0526815,43.1057807 90.1744415,43.5529807 C88.2987815,44.0010407 86.5633014,43.1376007 85.7454414,41.8716807 C84.6136814,40.1207207 84.7710614,37.6353206 83.4896614,34.7904406 C82.4912014,32.4908005 82.0569014,29.1479805 80.4616013,26.7451404 L79.2120213,24.6312604 C76.9992413,21.2256604 74.6944412,18.5226803 73.3201612,16.7596803 C72.1067012,15.2779003 69.8457612,13.2646402 67.7035011,11.8327402 C65.7203411,10.6304602 62.515981,9.25876015 60.205161,8.55356014 C59.469001,8.31362014 56.3145209,7.38654012 54.3571609,7.12596012 C51.6971809,6.82754011 49.9488008,6.40700011 47.4229808,6.2289801 C44.3011807,6.0088201 42.8073607,5.7319001 38.7593406,6.2049001 C37.2259606,6.62114011 34.7990406,6.78626011 32.6129205,7.62132013 C30.8473405,8.34114014 28.3937605,9.50386016 25.9883404,10.9168402 C23.3980204,12.3367002 19.4712603,15.2392003 16.8646003,17.7168603 C14.2381602,20.5230403 12.9240802,22.0289004 11.1137802,25.5858604 C10.3131202,27.3454205 8.76082015,30.0690405 8.13474014,31.9902805 C7.70732013,33.9416206 6.89376011,37.5802806 7.02878012,39.3484407 C7.09156012,42.5141007 6.81378011,43.1668407 7.05200012,45.7554408 C7.06060012,48.0860408 7.82514013,49.7011208 8.14420014,51.6086009 C8.41510014,52.9244009 9.68102016,57.480681 10.4610402,58.541921 C14.0119802,66.1959211 18.7815403,69.5112212 24.0972004,71.9037412 C25.5953204,72.6674212 30.2814605,73.9213012 31.6368205,74.2799212 C33.9502206,74.6970212 36.9920406,74.9765212 39.9212007,75.0324212 C43.0025807,75.0917612 47.2501208,74.6763812 49.8258208,73.7260812 C52.6156609,72.7001012 55.8432409,71.2398212 55.8054009,71.2836812 C57.0988409,70.5681612 59.075121,69.4028612 59.689161,68.8920211 C60.878541,68.1309211 61.595781,67.8359411 62.298401,67.1032211 C63.3166411,66.2148411 63.9306811,65.7022811 64.7012411,64.6006211 C65.1286611,63.9805611 65.8123611,63.029401 66.4719811,62.188321 C67.1857811,61.018721 67.5960011,59.786341 68.2917411,58.263281 C69.1242211,56.0075009 68.9952211,56.1167209 69.1543212,53.7250609 C69.3048212,53.0310409 69.1371212,50.6987208 69.0132811,50.3031208 C68.6374611,48.1514008 68.7699011,46.2533808 68.2771211,44.1635807 C67.6140611,41.3367607 67.0585011,39.2211607 66.2114011,36.5104406 C65.4124611,33.4583006 63.067241,30.6297605 61.307681,28.6087605 C60.217201,27.3557405 56.8348209,24.3990604 52.1418009,22.5517804 C50.8191208,22.1071604 48.6588008,21.6032004 47.2853808,21.3520804 C44.3527807,21.0459204 43.8754807,21.2428604 41.0684407,21.4475404 C40.1018007,21.6161004 37.8597806,22.0744804 37.0333206,22.3643004 C34.6218806,23.2114004 33.7352206,23.7497604 31.2696005,25.2590604 C30.1223605,25.9255604 29.2572005,26.4355404 28.0833005,27.5346205 C27.1467605,28.4015005 26.4768204,29.8738205 25.7200204,30.7381205 C24.6802804,32.1519605 23.5235804,34.0370806 22.7478604,36.0709806 C21.9067804,38.0945606 21.6358804,40.9420207 21.7648804,42.7746807 C21.7648804,44.1687407 22.1441404,46.7289608 22.2946404,47.2862408 C22.4460004,47.8452408 22.8244004,49.5824408 22.9052404,49.9316008 C22.9886604,50.2799008 23.8899404,52.1168609 24.0163604,52.3851809 C24.5263404,53.4696409 25.5007204,55.0245209 27.1407405,56.6155209 C28.3542005,57.939921 30.6951205,59.238521 32.4503805,59.741621 C34.0224606,60.606781 36.6747006,60.751261 38.1435806,60.754701 C38.8651206,60.709121 40.7098207,60.596461 41.6721607,60.366841 C43.6252207,59.898141 43.9838407,59.885241 45.9962408,59.012341 C47.8022408,58.174701 49.0260208,57.872841 50.2842008,56.9457609 C50.2842008,56.9457609 52.0102209,55.5938409 52.7945409,54.6031209 C53.2082009,54.0836809 53.9177009,51.5931209 53.7930009,50.0511408 C53.7336609,47.9415608 54.0415409,46.7444408 53.6089609,45.0089607 C53.1789609,43.2726207 52.4445209,41.2610807 51.6473009,40.0209607 C50.8397608,38.7653606 49.1051408,37.5424406 47.1314408,36.5663406 C46.0237608,36.0193806 43.4050607,35.5137006 42.2922207,35.3829806 C40.1826407,35.1318606 38.4170606,36.0907606 37.3446406,37.1864006 C36.4141206,38.2493606 34.5754406,40.4569807 35.3073006,42.7394207 C35.9703606,44.8034207 36.7718806,47.0041608 39.8687407,46.8416208 C41.9955207,47.2853808 44.4525407,46.6446808 45.2721208,47.0196408 C46.4873008,47.7102208 46.9534208,49.2324208 46.5131008,50.2971008 C46.2043608,52.3464809 44.2401207,52.5915809 42.1477407,52.7498209 C40.2729407,53.0637209 35.5128406,52.1461009 34.4679406,51.3626409 C33.7661806,50.9464008 32.6903205,49.9462208 31.9343805,49.2685408 C31.3900005,48.7800608 30.7768205,47.6964608 30.3545605,46.9173008 C29.8402805,45.9592608 29.5779805,45.2549208 29.4455405,44.6322807 C29.2864405,43.8926807 28.9622205,42.4771207 29.0852005,41.0641407 C29.1703405,40.1112607 29.4240405,39.7036207 29.6768805,38.3095606 C30.1834205,36.7271606 30.8120805,35.5240206 31.8251605,34.1523206 C33.1426806,32.8141605 34.8171006,31.2214405 36.4519606,30.4809805 C37.8933206,29.7190205 40.4191407,29.4395205 42.7024407,29.5728205 C44.5566007,29.7499805 46.7461608,29.9761605 48.1969808,30.4612005 C50.6772208,31.3470005 51.3858609,31.5241605 53.4232009,32.8090005 C55.1423409,33.8728206 56.8735209,35.8327606 57.840161,37.4547206 C59.895561,41.6601207 61.073761,46.3368008 60.217201,52.6363009 C60.147541,53.6992609 59.816441,54.7372809 59.153381,56.1485409 C58.539341,57.448001 57.467781,59.029541 55.8527009,60.218061 C55.2042609,60.819201 54.1791409,61.560521 53.3458009,61.992241 C52.1633009,62.709481 51.3686609,63.083581 50.1354208,63.7027811 C49.0518208,64.2136211 47.7876208,64.7949811 46.1398608,65.2525011 C44.3545007,65.9585611 42.9836607,65.9869411 40.7382007,66.3214811 C38.5297206,66.8770411 32.4804805,66.4823011 28.8770805,64.8921611 C26.4200604,63.8575811 23.6620404,62.036101 21.5627804,59.814721 C20.3983403,58.591801 19.2571203,56.3781609 18.9234403,55.9249409 C17.2550403,52.7180009 16.9291003,49.7045608 16.6607803,49.0681608 C16.2978603,48.2081608 16.1181203,46.2783208 15.8730203,44.9582207 C15.5986803,43.4755807 15.7681003,37.2689606 17.2636403,33.2854406 C18.1073003,31.6987405 18.6009403,30.2840405 19.1702603,29.5418605 C20.1962403,28.0833005 20.6916003,27.1725605 21.5627804,26.1388404 C22.8768604,24.5461204 23.8331804,23.2458004 25.1120004,22.3281804 C28.3739805,19.6768003 31.0967405,18.2767203 34.7827006,16.5266203 C39.3613407,14.6621402 40.7364807,15.0474203 45.0717407,15.1170803 C47.0213608,15.1342803 49.8585008,15.7474603 51.2542809,16.0003003 C53.8446009,16.3451603 55.3289609,16.9695203 57.0790609,17.4580003 C58.952141,17.9808803 60.034021,18.8168003 61.573421,19.7447403 C62.837621,20.5608803 64.3271411,21.6806004 65.3101211,22.5896204 C67.8273411,24.4351804 69.0399411,26.3744804 70.5827812,28.7566805 C70.8640012,29.1557205 72.6940812,33.0584005 72.9856212,34.1454406 C73.1215012,34.6898206 73.5343012,36.2515806 73.8017612,37.1649006 C74.1423212,38.6140006 74.3100212,39.8962607 74.6927212,41.5319807 C75.0332812,43.2150007 75.6146413,46.3927008 75.8657613,49.3640008 C76.2914613,51.9139009 75.6112013,57.117761 75.2121613,58.713061 C74.3220612,61.691241 72.7611612,65.3264611 69.6840812,68.8283811 C68.3777411,70.3798212 66.9879811,71.5795212 65.3815011,72.8850012 C64.1542811,73.9075412 63.099921,74.5069612 61.201041,75.6387213 C58.624481,77.1764013 56.6636809,78.1593813 53.0508209,79.5715013 C51.5802209,80.0436413 49.7260608,80.6645613 47.7291408,81.0765013 C43.8600007,81.4273814 39.8833607,81.7688014 35.5438006,81.2536614 C31.2033805,80.7359413 26.8560804,79.5138813 24.2872604,78.7261213 C22.8691204,78.1946413 20.1240003,77.0448213 18.9741803,76.4213213 C18.2242603,76.0429213 15.7122003,74.3246412 15.2865003,73.9118412 C13.5665002,72.8480212 9.71456016,69.2257012 7.22744012,65.8493411 C6.68306011,64.8027211 4.72398008,61.674901 4.29828007,60.304061 C3.16910005,57.984641 2.38134004,55.1784609 1.91952003,53.9796209 C1.43104002,51.1811809 0.60544001,49.3803408 0.283800005,46.5741608 C0.319920005,45.9136808 0.151360003,44.3579407 0,43.4970807 C0.218440004,41.5749807 -0.0739600012,39.7655407 0.307880005,37.6723006 C0.643280011,35.9067206 1.08532002,35.1697006 1.19196002,33.5735406 C1.29602002,32.8907005 2.17322004,30.8370205 2.40886004,29.9228405 C3.11922005,28.4178405 3.29466005,27.1785805 4.22088007,25.4964204 C5.55302009,22.8751404 6.94880012,19.8599803 9.09020015,17.2258003 C9.70252016,16.4088003 11.4371402,14.4497202 12.0279602,13.7711802 C13.4254602,12.3736802 14.2450402,12.1535202 15.8300203,10.7525802 C15.9934203,10.6493802 17.0417603,9.45570016 18.1391203,9.04548015 C19.9545803,7.64196013 21.5249404,7.12768012 23.2544004,5.8505801 C26.7193404,4.12370007 27.9818205,3.54062006 31.4218205,2.10872004 C33.4110006,1.39922002 36.1810606,1.00792002 37.1786606,0.62092001 C39.0784007,0.503100008 41.0065207,-0.102340002 43.0034407,0.0172000003 C45.2454608,-0.00344000006 47.5046808,0.156520003 49.7587408,0.361200006 C51.2775009,0.448920007 53.2606609,0.522880009 55.9498809,1.10768002 L55.9498809,1.10768002 Z" id="Path"></path>
        </g>
    </g>
</svg>