<?xml version="1.0" encoding="UTF-8"?>
<svg width="419px" height="85px" viewBox="0 0 419 85" version="1.1" xmlns="http://www.w3.org/2000/svg" xmlns:xlink="http://www.w3.org/1999/xlink">
    <title>syslogo</title>
    <g id="Page-1" stroke="none" stroke-width="1" fill="none" fill-rule="evenodd">
        <g id="syslogo">
            <path d="M144.77424,18.17088 L150.78336,18.17088 C151.58208,18.17088 152.23026,17.77152 152.23026,17.01336 C152.23026,16.25598 151.58208,15.81918 150.78336,15.81918 L144.77424,15.81918" id="Fill-1" fill="#FFFFFF"></path>
            <path d="M144.77424,18.17088 L150.78336,18.17088 C151.58208,18.17088 152.23026,17.77152 152.23026,17.01336 C152.23026,16.25598 151.58208,15.81918 150.78336,15.81918 L144.77424,15.81918" id="Stroke-2"></path>
            <path d="M129.46362,0.20826 C128.6649,0.20826 128.0175,0.60684 128.0175,1.365 L128.0253,6.83748 C128.0253,7.6362 127.62672,8.28438 126.86856,8.28438 L125.31246,8.31324 C124.51296,8.31324 123.86634,8.71182 123.86634,9.46998 L123.77742,16.93224 C123.77742,17.6904 124.42638,18.12642 125.22432,18.12642 L136.92822,18.17088 C137.72772,18.17088 138.37512,17.77152 138.37512,17.01336 C138.37512,16.25598 137.72772,15.81918 136.92822,15.81918 L127.74762,15.84336 C126.94812,15.84336 126.29916,15.40656 126.29916,14.64918 L126.3873,11.86068 C126.3873,11.1033 127.03548,10.70394 127.83498,10.70394 L136.92822,10.71642 C137.72772,10.71642 138.37512,10.31862 138.37512,9.55968 C138.37512,8.8023 137.72772,8.3655 136.92822,8.3655 L134.9088,8.34912 C134.1093,8.34912 133.4619,7.9131 133.4619,7.15494 L133.55082,3.73542 C133.55082,2.97726 134.19822,2.57868 134.99772,2.57868 L136.92822,2.56152 C137.72772,2.56152 138.37512,2.16294 138.37512,1.40478 C138.37512,0.64662 137.72772,0.2106 136.92822,0.2106 L129.46362,0.20826" id="Fill-3" fill="#FFFFFF"></path>
            <path d="M129.46362,0.20826 C128.6649,0.20826 128.0175,0.60684 128.0175,1.365 L128.0253,6.83748 C128.0253,7.6362 127.62672,8.28438 126.86856,8.28438 L125.31246,8.31324 C124.51296,8.31324 123.86634,8.71182 123.86634,9.46998 L123.77742,16.93224 C123.77742,17.6904 124.42638,18.12642 125.22432,18.12642 L136.92822,18.17088 C137.72772,18.17088 138.37512,17.77152 138.37512,17.01336 C138.37512,16.25598 137.72772,15.81918 136.92822,15.81918 L127.74762,15.84336 C126.94812,15.84336 126.29916,15.40656 126.29916,14.64918 L126.3873,11.86068 C126.3873,11.1033 127.03548,10.70394 127.83498,10.70394 L136.92822,10.71642 C137.72772,10.71642 138.37512,10.31862 138.37512,9.55968 C138.37512,8.8023 137.72772,8.3655 136.92822,8.3655 L134.9088,8.34912 C134.1093,8.34912 133.4619,7.9131 133.4619,7.15494 L133.55082,3.73542 C133.55082,2.97726 134.19822,2.57868 134.99772,2.57868 L136.92822,2.56152 C137.72772,2.56152 138.37512,2.16294 138.37512,1.40478 C138.37512,0.64662 137.72772,0.2106 136.92822,0.2106 L129.46362,0.20826 Z" id="Stroke-4"></path>
            <path d="M239.80086,10.4442 C239.00214,10.4442 238.35396,10.04562 238.35396,9.28746 L238.26582,1.32054 C238.26582,0.56316 238.91322,0.12558 239.71194,0.12558 L248.25762,0.0819 C249.05712,0.0819 249.7053,0.48048 249.7053,1.23864 C249.7053,1.9968 249.05712,2.43282 248.25762,2.43282 L242.23524,2.40942 C241.43496,2.40942 240.78756,2.84622 240.78756,3.6036 L240.8757,6.89676 C240.8757,7.6557 241.52388,8.0535 242.32338,8.0535 L249.26928,8.04102 C250.06878,8.04102 250.71618,8.4396 250.71618,9.19776 L250.62648,17.01336 C250.62648,17.7723 249.97908,18.17088 249.18114,18.17088 L237.92652,18.16776 C237.12702,18.16776 236.4804,17.73174 236.4804,16.97358 C236.4804,16.21542 237.12702,15.81762 237.92652,15.81762 L243.89976,15.80046 C244.69926,15.80046 245.34666,15.4011 245.34666,14.64372 L245.43402,11.72886 C245.43402,10.97148 244.78662,10.53468 243.9879,10.53468 L239.80086,10.4442" id="Fill-5" fill="#FFFFFF"></path>
            <path d="M239.80086,10.4442 C239.00214,10.4442 238.35396,10.04562 238.35396,9.28746 L238.26582,1.32054 C238.26582,0.56316 238.91322,0.12558 239.71194,0.12558 L248.25762,0.0819 C249.05712,0.0819 249.7053,0.48048 249.7053,1.23864 C249.7053,1.9968 249.05712,2.43282 248.25762,2.43282 L242.23524,2.40942 C241.43496,2.40942 240.78756,2.84622 240.78756,3.6036 L240.8757,6.89676 C240.8757,7.6557 241.52388,8.0535 242.32338,8.0535 L249.26928,8.04102 C250.06878,8.04102 250.71618,8.4396 250.71618,9.19776 L250.62648,17.01336 C250.62648,17.7723 249.97908,18.17088 249.18114,18.17088 L237.92652,18.16776 C237.12702,18.16776 236.4804,17.73174 236.4804,16.97358 C236.4804,16.21542 237.12702,15.81762 237.92652,15.81762 L243.89976,15.80046 C244.69926,15.80046 245.34666,15.4011 245.34666,14.64372 L245.43402,11.72886 C245.43402,10.97148 244.78662,10.53468 243.9879,10.53468 L239.80086,10.4442 Z" id="Stroke-6"></path>
            <path d="M100.43826,0.20826 C99.63954,0.20826 98.99214,0.60684 98.99214,1.365 L98.99994,6.83748 C98.99994,7.6362 98.60214,8.28438 97.8432,8.28438 L96.2871,8.31324 C95.48838,8.31324 94.84098,8.71182 94.84098,9.46998 L94.75206,16.93224 C94.75206,17.6904 95.40024,18.12642 96.19974,18.12642 L107.90208,18.17088 C108.70236,18.17088 109.34976,17.77152 109.34976,17.01336 C109.34976,16.25598 108.70236,15.81918 107.90208,15.81918 L98.72148,15.84336 C97.92276,15.84336 97.27458,15.40656 97.27458,14.64918 L97.36194,11.86068 C97.36194,11.1033 98.01012,10.70394 98.80884,10.70394 L107.90208,10.71642 C108.70236,10.71642 109.34976,10.31862 109.34976,9.55968 C109.34976,8.8023 108.70236,8.3655 107.90208,8.3655 L105.88422,8.34912 C105.08472,8.34912 104.43732,7.9131 104.43732,7.15494 L104.52468,3.73542 C104.52468,2.97726 105.17208,2.57868 105.97158,2.57868 L107.90208,2.56152 C108.70236,2.56152 109.34976,2.16294 109.34976,1.40478 C109.34976,0.64662 108.70236,0.2106 107.90208,0.2106 L100.43826,0.20826" id="Fill-7" fill="#FFFFFF"></path>
            <path d="M100.43826,0.20826 C99.63954,0.20826 98.99214,0.60684 98.99214,1.365 L98.99994,6.83748 C98.99994,7.6362 98.60214,8.28438 97.8432,8.28438 L96.2871,8.31324 C95.48838,8.31324 94.84098,8.71182 94.84098,9.46998 L94.75206,16.93224 C94.75206,17.6904 95.40024,18.12642 96.19974,18.12642 L107.90208,18.17088 C108.70236,18.17088 109.34976,17.77152 109.34976,17.01336 C109.34976,16.25598 108.70236,15.81918 107.90208,15.81918 L98.72148,15.84336 C97.92276,15.84336 97.27458,15.40656 97.27458,14.64918 L97.36194,11.86068 C97.36194,11.1033 98.01012,10.70394 98.80884,10.70394 L107.90208,10.71642 C108.70236,10.71642 109.34976,10.31862 109.34976,9.55968 C109.34976,8.8023 108.70236,8.3655 107.90208,8.3655 L105.88422,8.34912 C105.08472,8.34912 104.43732,7.9131 104.43732,7.15494 L104.52468,3.73542 C104.52468,2.97726 105.17208,2.57868 105.97158,2.57868 L107.90208,2.56152 C108.70236,2.56152 109.34976,2.16294 109.34976,1.40478 C109.34976,0.64662 108.70236,0.2106 107.90208,0.2106 L100.43826,0.20826 Z" id="Stroke-8"></path>
            <path d="M140.87736,16.93224 C140.87736,17.6904 141.52554,18.12642 142.32426,18.12642 L150.78336,18.17088 C151.58208,18.17088 152.22948,17.77152 152.22948,17.01336 C152.22948,16.25598 151.58208,15.81918 150.78336,15.81918 L144.846,15.84336 C144.04728,15.84336 143.3991,15.40656 143.3991,14.64918 L143.48724,6.33594 C143.48724,5.57856 144.13464,5.1792 144.93414,5.1792 L150.87072,5.19168 C151.67022,5.19168 152.31762,4.79388 152.31762,4.03572 L152.31762,1.26828 C152.31762,0.51012 151.67022,0.0741 150.87072,0.0741 L142.41162,0.02184 C141.61212,0.02184 140.96628,0.42042 140.96628,1.17858 L140.87736,16.93224" id="Fill-9" fill="#FFFFFF"></path>
            <path d="M140.87736,16.93224 C140.87736,17.6904 141.52554,18.12642 142.32426,18.12642 L150.78336,18.17088 C151.58208,18.17088 152.22948,17.77152 152.22948,17.01336 C152.22948,16.25598 151.58208,15.81918 150.78336,15.81918 L144.846,15.84336 C144.04728,15.84336 143.3991,15.40656 143.3991,14.64918 L143.48724,6.33594 C143.48724,5.57856 144.13464,5.1792 144.93414,5.1792 L150.87072,5.19168 C151.67022,5.19168 152.31762,4.79388 152.31762,4.03572 L152.31762,1.26828 C152.31762,0.51012 151.67022,0.0741 150.87072,0.0741 L142.41162,0.02184 C141.61212,0.02184 140.96628,0.42042 140.96628,1.17858 L140.87736,16.93224 Z" id="Stroke-10"></path>
            <path d="M224.35998,16.93224 C224.35998,17.6904 225.00738,18.12642 225.80532,18.12642 L234.2652,18.17088 C235.06392,18.17088 235.71054,17.7723 235.71054,17.01336 C235.71054,16.25598 235.06392,15.81918 234.2652,15.81918 L228.32784,15.84336 C227.52912,15.84336 226.88172,15.40656 226.88172,14.64918 L226.9683,6.33594 C226.9683,5.57856 227.61648,5.1792 228.41598,5.1792 L234.35256,5.19168 C235.15206,5.19168 235.79946,4.79388 235.79946,4.03572 L235.79946,1.26828 C235.79946,0.51012 235.15206,0.0741 234.35256,0.0741 L225.89346,0.02184 C225.09474,0.02184 224.44734,0.42042 224.44734,1.17858 L224.35998,16.93224" id="Fill-12" fill="#FFFFFF"></path>
            <path d="M224.35998,16.93224 C224.35998,17.6904 225.00738,18.12642 225.80532,18.12642 L234.2652,18.17088 C235.06392,18.17088 235.71054,17.7723 235.71054,17.01336 C235.71054,16.25598 235.06392,15.81918 234.2652,15.81918 L228.32784,15.84336 C227.52912,15.84336 226.88172,15.40656 226.88172,14.64918 L226.9683,6.33594 C226.9683,5.57856 227.61648,5.1792 228.41598,5.1792 L234.35256,5.19168 C235.15206,5.19168 235.79946,4.79388 235.79946,4.03572 L235.79946,1.26828 C235.79946,0.51012 235.15206,0.0741 234.35256,0.0741 L225.89346,0.02184 C225.09474,0.02184 224.44734,0.42042 224.44734,1.17858 L224.35998,16.93224 Z" id="Stroke-13"></path>
            <path d="M196.78152,1.17858 C196.78152,0.42042 196.13412,0.02184 195.33462,0.02184 L185.46684,0.02184 C184.66812,0.02184 184.01994,0.42042 184.01994,1.17858 L183.9318,16.93224 C183.9318,17.6904 184.57998,18.12642 185.37948,18.12642 L195.42276,18.12642 C196.22148,18.12642 196.87044,17.6904 196.87044,16.93224 L196.78152,1.17858 Z M193.10538,13.27248 L187.69608,13.27248 C186.89736,13.27248 186.24918,12.83568 186.24918,12.0783 L186.33732,3.76506 C186.33732,3.00768 186.9855,2.6091 187.78344,2.6091 L193.01724,2.6091 C193.81596,2.6091 194.46414,3.00768 194.46414,3.76506 L194.55228,12.0783 C194.55228,12.83568 193.9041,13.27248 193.10538,13.27248 L193.10538,13.27248 Z" id="Fill-15" fill="#FFFFFF"></path>
            <path d="M196.78152,1.17858 C196.78152,0.42042 196.13412,0.02184 195.33462,0.02184 L185.46684,0.02184 C184.66812,0.02184 184.01994,0.42042 184.01994,1.17858 L183.9318,16.93224 C183.9318,17.6904 184.57998,18.12642 185.37948,18.12642 L195.42276,18.12642 C196.22148,18.12642 196.87044,17.6904 196.87044,16.93224 L196.78152,1.17858 Z M193.10538,13.27248 L187.69608,13.27248 C186.89736,13.27248 186.24918,12.83568 186.24918,12.0783 L186.33732,3.76506 C186.33732,3.00768 186.9855,2.6091 187.78344,2.6091 L193.01724,2.6091 C193.81596,2.6091 194.46414,3.00768 194.46414,3.76506 L194.55228,12.0783 C194.55228,12.83568 193.9041,13.27248 193.10538,13.27248 Z" id="Stroke-16"></path>
            <path d="M212.59368,1.21602 C212.59368,0.45786 211.9455,0.02184 211.146,0.02184 L201.10272,0.02184 C200.304,0.02184 199.6566,0.45786 199.6566,1.21602 L199.72914,3.5724 L199.6566,16.64676 C199.6566,17.44626 200.0544,18.09366 200.81256,18.09366 C201.56994,18.09366 202.00674,17.44626 202.00674,16.64676 L202.00596,6.36168 C202.00596,5.60352 202.65414,5.1675 203.45208,5.1675 L208.73424,5.1675 C209.53452,5.1675 210.18192,5.60352 210.18192,6.36168 L210.24276,16.61556 C210.24276,17.41506 210.64212,18.06246 211.39872,18.06246 C212.15688,18.06246 212.59368,17.41506 212.59368,16.61556 L212.59056,5.20806 L212.59368,1.21602" id="Fill-18" fill="#FFFFFF"></path>
            <path d="M212.59368,1.21602 C212.59368,0.45786 211.9455,0.02184 211.146,0.02184 L201.10272,0.02184 C200.304,0.02184 199.6566,0.45786 199.6566,1.21602 L199.72914,3.5724 L199.6566,16.64676 C199.6566,17.44626 200.0544,18.09366 200.81256,18.09366 C201.56994,18.09366 202.00674,17.44626 202.00674,16.64676 L202.00596,6.36168 C202.00596,5.60352 202.65414,5.1675 203.45208,5.1675 L208.73424,5.1675 C209.53452,5.1675 210.18192,5.60352 210.18192,6.36168 L210.24276,16.61556 C210.24276,17.41506 210.64212,18.06246 211.39872,18.06246 C212.15688,18.06246 212.59368,17.41506 212.59368,16.61556 L212.59056,5.20806 L212.59368,1.21602 Z" id="Stroke-19"></path>
            <path d="M160.4109,6.33594 C160.4109,5.57856 161.05908,5.1792 161.85702,5.1792 L163.67286,5.19168 C164.47236,5.19168 165.11976,4.79388 165.11976,4.03572 L165.11976,1.26828 C165.11976,0.51012 164.47236,0.0741 163.67286,0.0741 L154.87446,0.0741 C154.07496,0.0741 153.42678,0.51012 153.42678,1.26828 L153.42678,4.03572 C153.42678,4.79388 154.07496,5.19168 154.87446,5.19168 L156.68952,5.1792 C157.48824,5.1792 158.13642,5.57856 158.13642,6.33594 L158.06388,16.73256 C158.06388,17.53206 158.46246,18.17946 159.21984,18.17946 C159.978,18.17946 160.41402,17.53206 160.41402,16.73256 L160.4109,6.33594" id="Fill-21" fill="#FFFFFF"></path>
            <path d="M160.4109,6.33594 C160.4109,5.57856 161.05908,5.1792 161.85702,5.1792 L163.67286,5.19168 C164.47236,5.19168 165.11976,4.79388 165.11976,4.03572 L165.11976,1.26828 C165.11976,0.51012 164.47236,0.0741 163.67286,0.0741 L154.87446,0.0741 C154.07496,0.0741 153.42678,0.51012 153.42678,1.26828 L153.42678,4.03572 C153.42678,4.79388 154.07496,5.19168 154.87446,5.19168 L156.68952,5.1792 C157.48824,5.1792 158.13642,5.57856 158.13642,6.33594 L158.06388,16.73256 C158.06388,17.53206 158.46246,18.17946 159.21984,18.17946 C159.978,18.17946 160.41402,17.53206 160.41402,16.73256 L160.4109,6.33594 Z" id="Stroke-22"></path>
            <path d="M219.98418,11.87472 C219.98418,10.45356 219.98808,1.4781 219.98808,1.4781 C219.98808,0.6786 219.55284,0.0312 218.7939,0.0312 C218.03574,0.0312 217.63716,0.6786 217.63716,1.4781 L217.71048,11.87472 C217.71048,12.63366 217.18944,13.03146 216.38994,13.03146 L215.8377,13.01898 C215.03898,13.01898 214.26444,13.41756 214.26444,14.17572 L214.26444,16.94316 C214.26444,17.70132 215.03898,18.13734 215.8377,18.13734 L220.59492,18.13734 C221.39364,18.13734 222.04104,17.70132 222.04104,16.94316 C222.04104,16.94316 222.04104,16.08048 222.04104,14.17572 C222.04104,12.27018 219.98418,13.8372 219.98418,11.87472" id="Fill-23" fill="#FFFFFF"></path>
            <path d="M219.98418,11.87472 C219.98418,10.45356 219.98808,1.4781 219.98808,1.4781 C219.98808,0.6786 219.55284,0.0312 218.7939,0.0312 C218.03574,0.0312 217.63716,0.6786 217.63716,1.4781 L217.71048,11.87472 C217.71048,12.63366 217.18944,13.03146 216.38994,13.03146 L215.8377,13.01898 C215.03898,13.01898 214.26444,13.41756 214.26444,14.17572 L214.26444,16.94316 C214.26444,17.70132 215.03898,18.13734 215.8377,18.13734 L220.59492,18.13734 C221.39364,18.13734 222.04104,17.70132 222.04104,16.94316 C222.04104,16.94316 222.04104,16.08048 222.04104,14.17572 C222.04104,12.27018 219.98418,13.8372 219.98418,11.87472 Z" id="Stroke-24"></path>
            <path d="M58.60218,0.0741 C59.40246,0.0741 60.04986,0.51012 60.04986,1.26828 L60.04986,4.03572 C60.04986,4.79388 59.40246,5.19168 58.60218,5.19168 L56.78712,5.1792 C55.9884,5.1792 55.33944,5.57856 55.33944,6.33594 L55.41276,16.73256 C55.41276,17.53206 55.01496,18.17946 54.2568,18.17946 C53.49786,18.17946 53.06262,17.53206 53.06262,16.73256 L53.06574,6.33594 C53.06574,5.57856 52.41756,5.1792 51.61884,5.1792 L46.63308,5.1792 C45.8328,5.1792 45.1854,5.57856 45.1854,6.33594 L45.1893,16.73256 C45.1893,17.53206 44.75328,18.17946 43.99512,18.17946 C43.23618,18.17946 42.8376,17.53206 42.8376,16.73256 L42.91092,6.33594 C42.91092,5.57856 42.26352,5.1792 41.4648,5.1792 L39.64896,5.19168 C38.84946,5.19168 38.20206,4.79388 38.20206,4.03572 L38.20206,1.26828 C38.20206,0.51012 38.84946,0.0741 39.64896,0.0741 L58.60218,0.0741" id="Fill-26" fill="#FFFFFF"></path>
            <path d="M58.60218,0.0741 C59.40246,0.0741 60.04986,0.51012 60.04986,1.26828 L60.04986,4.03572 C60.04986,4.79388 59.40246,5.19168 58.60218,5.19168 L56.78712,5.1792 C55.9884,5.1792 55.33944,5.57856 55.33944,6.33594 L55.41276,16.73256 C55.41276,17.53206 55.01496,18.17946 54.2568,18.17946 C53.49786,18.17946 53.06262,17.53206 53.06262,16.73256 L53.06574,6.33594 C53.06574,5.57856 52.41756,5.1792 51.61884,5.1792 L46.63308,5.1792 C45.8328,5.1792 45.1854,5.57856 45.1854,6.33594 L45.1893,16.73256 C45.1893,17.53206 44.75328,18.17946 43.99512,18.17946 C43.23618,18.17946 42.8376,17.53206 42.8376,16.73256 L42.91092,6.33594 C42.91092,5.57856 42.26352,5.1792 41.4648,5.1792 L39.64896,5.19168 C38.84946,5.19168 38.20206,4.79388 38.20206,4.03572 L38.20206,1.26828 C38.20206,0.51012 38.84946,0.0741 39.64896,0.0741 L58.60218,0.0741 Z" id="Stroke-27"></path>
            <path d="M112.0275,17.01336 C112.0275,17.77152 112.6749,18.17088 113.47518,18.17088 L120.61764,18.11784 C121.41792,18.11784 122.06532,17.68182 122.06532,16.92444 L122.06532,14.03064 C122.06532,13.2717 121.41792,12.87312 120.61764,12.87312 L115.99614,12.88638 C115.19742,12.88638 114.54924,12.4878 114.54924,11.72964 L114.53754,1.4469 C114.53754,0.6474 114.13896,-1.687539e-13 113.38002,-1.687539e-13 C112.62264,-1.687539e-13 112.18584,0.6474 112.18584,1.4469 L112.0275,17.01336" id="Fill-28" fill="#FFFFFF"></path>
            <path d="M112.0275,17.01336 C112.0275,17.77152 112.6749,18.17088 113.47518,18.17088 L120.61764,18.11784 C121.41792,18.11784 122.06532,17.68182 122.06532,16.92444 L122.06532,14.03064 C122.06532,13.2717 121.41792,12.87312 120.61764,12.87312 L115.99614,12.88638 C115.19742,12.88638 114.54924,12.4878 114.54924,11.72964 L114.53754,1.4469 C114.53754,0.6474 114.13896,-1.687539e-13 113.38002,-1.687539e-13 C112.62264,-1.687539e-13 112.18584,0.6474 112.18584,1.4469 L112.0275,17.01336 Z" id="Stroke-29"></path>
            <path d="M65.4498,0.20826 C64.6503,0.20826 64.0029,0.60684 64.0029,1.365 L64.0107,6.83748 C64.0107,7.6362 63.6129,8.28438 62.85474,8.28438 L61.29786,8.31324 C60.49992,8.31324 59.85096,8.71182 59.85096,9.46998 L59.7636,16.93224 C59.7636,17.6904 60.41178,18.12642 61.2105,18.12642 L72.9144,18.17088 C73.71312,18.17088 74.3613,17.77152 74.3613,17.01336 C74.3613,16.25598 73.71312,15.81918 72.9144,15.81918 L63.73302,15.84336 C62.93352,15.84336 62.28534,15.40656 62.28534,14.64918 L62.37426,11.86068 C62.37426,11.1033 63.02166,10.70394 63.82038,10.70394 L72.9144,10.71642 C73.71312,10.71642 74.3613,10.31862 74.3613,9.55968 C74.3613,8.8023 73.71312,8.3655 72.9144,8.3655 L70.89576,8.34912 C70.09548,8.34912 69.44808,7.9131 69.44808,7.15494 L69.53622,3.73542 C69.53622,2.97726 70.18362,2.57868 70.98234,2.57868 L72.9144,2.56152 C73.71312,2.56152 74.3613,2.16294 74.3613,1.40478 C74.3613,0.64662 73.71312,0.2106 72.9144,0.2106 L65.4498,0.20826" id="Fill-31" fill="#FFFFFF"></path>
            <path d="M65.4498,0.20826 C64.6503,0.20826 64.0029,0.60684 64.0029,1.365 L64.0107,6.83748 C64.0107,7.6362 63.6129,8.28438 62.85474,8.28438 L61.29786,8.31324 C60.49992,8.31324 59.85096,8.71182 59.85096,9.46998 L59.7636,16.93224 C59.7636,17.6904 60.41178,18.12642 61.2105,18.12642 L72.9144,18.17088 C73.71312,18.17088 74.3613,17.77152 74.3613,17.01336 C74.3613,16.25598 73.71312,15.81918 72.9144,15.81918 L63.73302,15.84336 C62.93352,15.84336 62.28534,15.40656 62.28534,14.64918 L62.37426,11.86068 C62.37426,11.1033 63.02166,10.70394 63.82038,10.70394 L72.9144,10.71642 C73.71312,10.71642 74.3613,10.31862 74.3613,9.55968 C74.3613,8.8023 73.71312,8.3655 72.9144,8.3655 L70.89576,8.34912 C70.09548,8.34912 69.44808,7.9131 69.44808,7.15494 L69.53622,3.73542 C69.53622,2.97726 70.18362,2.57868 70.98234,2.57868 L72.9144,2.56152 C73.71312,2.56152 74.3613,2.16294 74.3613,1.40478 C74.3613,0.64662 73.71312,0.2106 72.9144,0.2106 L65.4498,0.20826 Z" id="Stroke-32"></path>
            <path d="M77.03904,17.01336 C77.03904,17.77152 77.68644,18.17088 78.48672,18.17088 L85.62918,18.11784 C86.4279,18.11784 87.0753,17.68182 87.0753,16.92444 L87.0753,14.03064 C87.0753,13.2717 86.4279,12.87312 85.62918,12.87312 L81.00768,12.88638 C80.20896,12.88638 79.56078,12.4878 79.56078,11.72964 L79.5483,1.4469 C79.5483,0.6474 79.1505,-1.687539e-13 78.39156,-1.687539e-13 C77.63418,-1.687539e-13 77.19738,0.6474 77.19738,1.4469 L77.03904,17.01336" id="Fill-33" fill="#FFFFFF"></path>
            <path d="M77.03904,17.01336 C77.03904,17.77152 77.68644,18.17088 78.48672,18.17088 L85.62918,18.11784 C86.4279,18.11784 87.0753,17.68182 87.0753,16.92444 L87.0753,14.03064 C87.0753,13.2717 86.4279,12.87312 85.62918,12.87312 L81.00768,12.88638 C80.20896,12.88638 79.56078,12.4878 79.56078,11.72964 L79.5483,1.4469 C79.5483,0.6474 79.1505,-1.687539e-13 78.39156,-1.687539e-13 C77.63418,-1.687539e-13 77.19738,0.6474 77.19738,1.4469 L77.03904,17.01336 Z" id="Stroke-34"></path>
            <path d="M181.25952,10.14 C181.25952,8.3226 178.74012,8.4474 178.74012,7.4451 C178.74012,6.44202 178.72686,1.17858 178.72686,1.17858 C178.72686,0.42042 178.07946,0.02184 177.28074,0.02184 L168.17112,0.02184 C167.37084,0.02184 166.72422,0.42042 166.72422,1.17858 C166.72266,1.57326 166.72032,1.96872 166.7172,2.3634 C166.68912,6.8406 166.6002,11.32404 166.66494,15.80124 C166.6743,16.35036 166.4676,16.99386 166.75776,17.48292 C167.13684,18.1233 167.81154,18.28866 168.48234,18.26994 C169.89102,18.23172 171.21624,18.61002 171.86754,17.05782 L172.06176,11.92542 C172.06176,11.16804 172.70916,10.73124 173.50788,10.73124 L177.40086,10.73124 C178.20036,10.73124 178.84932,11.16804 178.84932,11.92542 L178.9086,16.7505 C178.9086,17.55 179.3064,18.1974 180.06456,18.1974 C180.82272,18.1974 181.25952,17.55 181.25952,16.7505 L181.25562,12.54084 C181.25562,12.54084 181.25952,11.95662 181.25952,10.14 Z M174.79644,8.346 L170.65074,8.346 C169.85124,8.346 169.20462,7.90998 169.20462,7.15182 L169.29198,3.76506 C169.29198,3.00768 169.93938,2.6091 170.73888,2.6091 L174.7083,2.6091 C175.5078,2.6091 176.1552,3.00768 176.1552,3.76506 L176.24334,7.15182 C176.24334,7.90998 175.59516,8.346 174.79644,8.346 L174.79644,8.346 Z" id="Fill-36" fill="#FFFFFF"></path>
            <path d="M181.25952,10.14 C181.25952,8.3226 178.74012,8.4474 178.74012,7.4451 C178.74012,6.44202 178.72686,1.17858 178.72686,1.17858 C178.72686,0.42042 178.07946,0.02184 177.28074,0.02184 L168.17112,0.02184 C167.37084,0.02184 166.72422,0.42042 166.72422,1.17858 C166.72266,1.57326 166.72032,1.96872 166.7172,2.3634 C166.68912,6.8406 166.6002,11.32404 166.66494,15.80124 C166.6743,16.35036 166.4676,16.99386 166.75776,17.48292 C167.13684,18.1233 167.81154,18.28866 168.48234,18.26994 C169.89102,18.23172 171.21624,18.61002 171.86754,17.05782 L172.06176,11.92542 C172.06176,11.16804 172.70916,10.73124 173.50788,10.73124 L177.40086,10.73124 C178.20036,10.73124 178.84932,11.16804 178.84932,11.92542 L178.9086,16.7505 C178.9086,17.55 179.3064,18.1974 180.06456,18.1974 C180.82272,18.1974 181.25952,17.55 181.25952,16.7505 L181.25562,12.54084 C181.25562,12.54084 181.25952,11.95662 181.25952,10.14 Z M174.79644,8.346 L170.65074,8.346 C169.85124,8.346 169.20462,7.90998 169.20462,7.15182 L169.29198,3.76506 C169.29198,3.00768 169.93938,2.6091 170.73888,2.6091 L174.7083,2.6091 C175.5078,2.6091 176.1552,3.00768 176.1552,3.76506 L176.24334,7.15182 C176.24334,7.90998 175.59516,8.346 174.79644,8.346 Z" id="Stroke-37"></path>
            <path d="M34.69674,0.02184 L26.97552,0.02184 C26.1768,0.02184 25.75716,0.4134 25.5294,1.17858 C25.5294,1.17858 20.45238,14.01192 20.32446,14.30364 C20.19732,14.59458 19.30656,14.75526 19.30656,14.16558 C19.30656,13.57668 19.27536,1.60602 19.27536,1.60602 C19.27536,0.80652 18.9345,0.07878 18.17634,0.07878 L15.4557,0.07098 C14.69832,0.07098 14.42532,0.58266 13.88322,1.51788 C13.88322,1.51788 10.65402,9.46764 10.46292,9.83346 C10.27026,10.20006 9.6798,10.37712 9.58152,9.86622 C9.48246,9.35454 8.0106,1.21602 8.0106,1.21602 C8.0106,0.45786 7.36242,0.02184 6.56292,0.02184 L1.4469,0.02184 C0.6474,0.02184 1.77635684e-14,0.45786 1.77635684e-14,1.21602 L0.07254,3.5724 L1.77635684e-14,16.64676 C1.77635684e-14,17.44626 0.39858,18.09366 1.15596,18.09366 C1.91412,18.09366 2.35014,17.44626 2.35014,16.64676 L2.34936,6.36168 C2.34936,5.60352 2.99754,5.1675 3.79626,5.1675 L4.78452,5.1675 C5.58324,5.1675 6.23064,5.60352 6.23064,6.36168 L7.20876,11.82402 C7.20876,12.62352 7.60734,13.27092 8.3655,13.27092 L10.91064,13.28262 C11.66802,13.28262 12.051,12.73194 12.47376,11.91216 C12.47376,11.91216 15.40656,4.87812 15.52902,4.61136 C15.79344,4.03728 16.52508,4.14258 16.52508,4.70106 C16.52508,5.05206 16.53288,15.1593 16.53288,15.1593 L16.56252,16.7154 C16.56252,17.5149 16.96032,18.16152 17.71848,18.16152 L20.6544,18.1974 C21.41256,18.1974 21.5631,17.63268 22.06386,16.7505 L24.27204,11.92542 C24.62928,11.22888 25.11444,10.74528 25.71816,10.73124 L29.35842,10.73124 C30.1587,10.73124 30.8061,11.16804 30.8061,11.92542 L30.99876,17.05782 C30.96912,18.4431 32.97528,18.23172 34.38552,18.26994 C35.05554,18.28866 36.11088,17.84796 36.10932,17.10384 L36.14286,1.17858 C36.14286,0.42042 35.49546,0.02184 34.69674,0.02184 Z M32.21634,8.346 L27.43962,8.346 C25.79928,8.3226 26.01924,7.1604 26.1183,6.77274 L27.46926,3.76506 C27.8577,3.10362 28.11744,2.60832 28.91616,2.60832 L32.1282,2.60832 C32.92692,2.60832 33.57588,3.00768 33.57588,3.76506 L33.66246,7.15182 C33.66246,7.90998 33.01506,8.346 32.21634,8.346 L32.21634,8.346 Z" id="Fill-39" fill="#FFFFFF"></path>
            <path d="M34.69674,0.02184 L26.97552,0.02184 C26.1768,0.02184 25.75716,0.4134 25.5294,1.17858 C25.5294,1.17858 20.45238,14.01192 20.32446,14.30364 C20.19732,14.59458 19.30656,14.75526 19.30656,14.16558 C19.30656,13.57668 19.27536,1.60602 19.27536,1.60602 C19.27536,0.80652 18.9345,0.07878 18.17634,0.07878 L15.4557,0.07098 C14.69832,0.07098 14.42532,0.58266 13.88322,1.51788 C13.88322,1.51788 10.65402,9.46764 10.46292,9.83346 C10.27026,10.20006 9.6798,10.37712 9.58152,9.86622 C9.48246,9.35454 8.0106,1.21602 8.0106,1.21602 C8.0106,0.45786 7.36242,0.02184 6.56292,0.02184 L1.4469,0.02184 C0.6474,0.02184 1.77635684e-14,0.45786 1.77635684e-14,1.21602 L0.07254,3.5724 L1.77635684e-14,16.64676 C1.77635684e-14,17.44626 0.39858,18.09366 1.15596,18.09366 C1.91412,18.09366 2.35014,17.44626 2.35014,16.64676 L2.34936,6.36168 C2.34936,5.60352 2.99754,5.1675 3.79626,5.1675 L4.78452,5.1675 C5.58324,5.1675 6.23064,5.60352 6.23064,6.36168 L7.20876,11.82402 C7.20876,12.62352 7.60734,13.27092 8.3655,13.27092 L10.91064,13.28262 C11.66802,13.28262 12.051,12.73194 12.47376,11.91216 C12.47376,11.91216 15.40656,4.87812 15.52902,4.61136 C15.79344,4.03728 16.52508,4.14258 16.52508,4.70106 C16.52508,5.05206 16.53288,15.1593 16.53288,15.1593 L16.56252,16.7154 C16.56252,17.5149 16.96032,18.16152 17.71848,18.16152 L20.6544,18.1974 C21.41256,18.1974 21.5631,17.63268 22.06386,16.7505 L24.27204,11.92542 C24.62928,11.22888 25.11444,10.74528 25.71816,10.73124 L29.35842,10.73124 C30.1587,10.73124 30.8061,11.16804 30.8061,11.92542 L30.99876,17.05782 C30.96912,18.4431 32.97528,18.23172 34.38552,18.26994 C35.05554,18.28866 36.11088,17.84796 36.10932,17.10384 L36.14286,1.17858 C36.14286,0.42042 35.49546,0.02184 34.69674,0.02184 Z M32.21634,8.346 L27.43962,8.346 C25.79928,8.3226 26.01924,7.1604 26.1183,6.77274 L27.46926,3.76506 C27.8577,3.10362 28.11744,2.60832 28.91616,2.60832 L32.1282,2.60832 C32.92692,2.60832 33.57588,3.00768 33.57588,3.76506 L33.66246,7.15182 C33.66246,7.90998 33.01506,8.346 32.21634,8.346 Z" id="Stroke-40"></path>
            <path d="M153.4182,38.68644 L167.75304,38.68644 C167.75304,38.68644 167.75304,70.97142 167.75304,73.18584 C167.75304,75.40026 169.50726,77.02656 171.72168,77.02656 C173.93532,77.02656 177.89148,77.02656 177.89148,77.02656 L177.89148,83.55282 C177.89148,83.55282 169.46904,83.55282 164.45832,83.55282 C158.4297,83.55282 153.31446,79.00776 153.31446,72.28026 C153.31446,69.19224 153.4182,38.68644 153.4182,38.68644" id="Fill-42" fill="#FFFFFF"></path>
            <path d="M153.4182,38.68644 L167.75304,38.68644 C167.75304,38.68644 167.75304,70.97142 167.75304,73.18584 C167.75304,75.40026 169.50726,77.02656 171.72168,77.02656 C173.93532,77.02656 177.89148,77.02656 177.89148,77.02656 L177.89148,83.55282 C177.89148,83.55282 169.46904,83.55282 164.45832,83.55282 C158.4297,83.55282 153.31446,79.00776 153.31446,72.28026 C153.31446,69.19224 153.4182,38.68644 153.4182,38.68644 Z" id="Stroke-43"></path>
            <path d="M127.82562,38.68644 L142.41708,38.68644 C142.41708,38.68644 142.41708,70.97142 142.41708,73.18584 C142.41708,75.40026 144.1713,77.02656 146.38494,77.02656 C148.59936,77.02656 152.29812,77.02656 152.29812,77.02656 L152.29812,83.55282 C152.29812,83.55282 143.87724,83.55282 138.86574,83.55282 C132.83712,83.55282 127.72266,79.00776 127.72266,72.28026 C127.72266,69.19224 127.82562,38.68644 127.82562,38.68644" id="Fill-44" fill="#FFFFFF"></path>
            <path d="M127.82562,38.68644 L142.41708,38.68644 C142.41708,38.68644 142.41708,70.97142 142.41708,73.18584 C142.41708,75.40026 144.1713,77.02656 146.38494,77.02656 C148.59936,77.02656 152.29812,77.02656 152.29812,77.02656 L152.29812,83.55282 C152.29812,83.55282 143.87724,83.55282 138.86574,83.55282 C132.83712,83.55282 127.72266,79.00776 127.72266,72.28026 C127.72266,69.19224 127.82562,38.68644 127.82562,38.68644 Z" id="Stroke-45"></path>
            <path d="M180.258,83.65734 C180.258,80.56932 180.36174,49.05888 180.36174,49.05888 L194.6958,49.05888 C194.6958,49.05888 194.6958,81.41484 194.6958,83.62926 L180.258,83.65734" id="Fill-46" fill="#FFFFFF"></path>
            <path d="M180.258,83.65734 C180.258,80.56932 180.36174,49.05888 180.36174,49.05888 L194.6958,49.05888 C194.6958,49.05888 194.6958,81.41484 194.6958,83.62926 L180.258,83.65734 Z" id="Stroke-47"></path>
            <path d="M-1.95399252e-14,83.65734 C-1.95399252e-14,80.56932 0.10296,28.8171 0.10296,28.8171 L14.43702,28.8171 C14.43702,28.8171 14.43702,81.41484 14.43702,83.62926 L-1.95399252e-14,83.65734" id="Fill-48" fill="#FFFFFF"></path>
            <path d="M-1.95399252e-14,83.65734 C-1.95399252e-14,80.56932 0.10296,28.8171 0.10296,28.8171 L14.43702,28.8171 C14.43702,28.8171 14.43702,81.41484 14.43702,83.62926 L-1.95399252e-14,83.65734 Z" id="Stroke-49"></path>
            <path d="M180.258,46.2501 C180.258,43.1613 180.36174,38.56944 180.36174,38.56944 L194.6958,38.56944 C194.6958,38.56944 194.6958,44.00682 194.6958,46.22046 L180.258,46.2501" id="Fill-51" fill="#FFFFFF"></path>
            <path d="M180.258,46.2501 C180.258,43.1613 180.36174,38.56944 180.36174,38.56944 L194.6958,38.56944 C194.6958,38.56944 194.6958,44.00682 194.6958,46.22046 L180.258,46.2501 Z" id="Stroke-52"></path>
            <path d="M241.62918,83.65734 C241.62918,80.56932 241.73292,49.05888 241.73292,49.05888 L256.06698,49.05888 C256.06698,49.05888 256.06698,81.41484 256.06698,83.62926 L241.62918,83.65734" id="Fill-53" fill="#FFFFFF"></path>
            <path d="M241.62918,83.65734 C241.62918,80.56932 241.73292,49.05888 241.73292,49.05888 L256.06698,49.05888 C256.06698,49.05888 256.06698,81.41484 256.06698,83.62926 L241.62918,83.65734 Z" id="Stroke-54"></path>
            <path d="M241.62918,46.2501 C241.62918,43.1613 241.73292,38.56944 241.73292,38.56944 L256.06698,38.56944 C256.06698,38.56944 256.06698,44.00682 256.06698,46.22046 L241.62918,46.2501" id="Fill-55" fill="#FFFFFF"></path>
            <path d="M241.62918,46.2501 C241.62918,43.1613 241.73292,38.56944 241.73292,38.56944 L256.06698,38.56944 C256.06698,38.56944 256.06698,44.00682 256.06698,46.22046 L241.62918,46.2501 Z" id="Stroke-56"></path>
            <path d="M296.88984,83.65734 C296.88984,80.56932 296.9928,49.05888 296.9928,49.05888 L311.32764,49.05888 C311.32764,49.05888 311.32764,81.41484 311.32764,83.62926 L296.88984,83.65734" id="Fill-57" fill="#FFFFFF"></path>
            <path d="M296.88984,83.65734 C296.88984,80.56932 296.9928,49.05888 296.9928,49.05888 L311.32764,49.05888 C311.32764,49.05888 311.32764,81.41484 311.32764,83.62926 L296.88984,83.65734 Z" id="Stroke-58"></path>
            <path d="M296.88984,46.2501 C296.88984,43.1613 296.9928,38.56944 296.9928,38.56944 L311.32764,38.56944 C311.32764,38.56944 311.32764,44.00682 311.32764,46.22046 L296.88984,46.2501" id="Fill-59" fill="#FFFFFF"></path>
            <path d="M296.88984,46.2501 C296.88984,43.1613 296.9928,38.56944 296.9928,38.56944 L311.32764,38.56944 C311.32764,38.56944 311.32764,44.00682 311.32764,46.22046 L296.88984,46.2501 Z" id="Stroke-60"></path>
            <path d="M107.92626,48.97854 C107.92626,46.76412 109.68048,45.13782 111.8949,45.13782 L124.80078,45.13782 L124.80078,38.61234 L103.15656,38.61234 C97.12794,38.61234 93.48846,43.15662 93.48846,49.88334 L93.48846,71.89572 C93.48846,78.62322 97.12794,83.4249 103.15656,83.4249 C108.16728,83.4249 124.80078,83.4249 124.80078,83.4249 L124.80078,76.89786 C124.80078,76.89786 114.10932,76.89786 111.8949,76.89786 C109.68048,76.89786 107.9715,75.01962 107.99022,72.8013 L107.98086,64.19478 C111.891,64.19478 122.79072,64.19478 122.79072,64.19478 L122.79072,57.66852 L107.95902,57.63264 L107.92626,48.97854" id="Fill-61" fill="#FFFFFF"></path>
            <path d="M107.92626,48.97854 C107.92626,46.76412 109.68048,45.13782 111.8949,45.13782 L124.80078,45.13782 L124.80078,38.61234 L103.15656,38.61234 C97.12794,38.61234 93.48846,43.15662 93.48846,49.88334 L93.48846,71.89572 C93.48846,78.62322 97.12794,83.4249 103.15656,83.4249 C108.16728,83.4249 124.80078,83.4249 124.80078,83.4249 L124.80078,76.89786 C124.80078,76.89786 114.10932,76.89786 111.8949,76.89786 C109.68048,76.89786 107.9715,75.01962 107.99022,72.8013 L107.98086,64.19478 C111.891,64.19478 122.79072,64.19478 122.79072,64.19478 L122.79072,57.66852 L107.95902,57.63264 L107.92626,48.97854 Z" id="Stroke-62"></path>
            <path d="M83.56296,44.37498 C85.75944,44.37498 90.45114,44.32506 90.45114,44.32506 L90.45114,38.69736 C90.45114,38.69736 82.06536,38.69736 81.20658,38.69736 C80.34702,38.69736 79.9071,38.0289 79.9071,37.39866 C79.9071,36.76842 79.9071,28.55658 79.9071,28.55658 L56.4876,43.5084 C56.48682,40.61928 56.48604,38.78706 56.48604,38.78706 L49.03548,38.78706 C49.03548,38.78706 49.03548,58.87596 49.03548,59.39154 C49.03548,59.90634 48.06438,60.84624 47.19858,59.58186 C47.19858,59.58186 37.29102,45.36246 33.69678,41.06232 C30.71172,37.48914 20.2956,37.67244 20.25504,46.13232 C20.22852,51.5034 20.2683,82.953 20.2683,82.953 L27.71808,82.953 C27.71808,82.953 27.71808,58.18488 27.71808,56.95248 C27.71808,55.51338 28.98948,56.0235 29.78196,56.91816 C30.14934,57.33156 46.12218,81.63324 46.84056,82.60434 C48.46764,84.80004 56.4993,86.4123 56.4993,78.10998 C56.4993,72.16092 56.49228,54.5493 56.48838,45.04188 L63.75954,45.04188 C64.5216,45.04188 65.48802,45.90144 65.4888,45.90222 C65.48334,46.62294 65.38506,69.28896 65.38506,72.28026 C65.38506,79.00776 70.94958,83.55282 76.9782,83.55282 C81.9897,83.55282 90.41136,83.55282 90.41136,83.55282 L90.41136,77.02656 C90.41136,77.02656 86.45598,77.02656 84.24156,77.02656 C82.02714,77.02656 80.27292,75.40026 80.27292,73.18584 L80.27292,47.68842 C80.27292,46.31796 81.36726,44.37498 83.56296,44.37498" id="Fill-63" fill="#FFFFFF"></path>
            <path d="M83.56296,44.37498 C85.75944,44.37498 90.45114,44.32506 90.45114,44.32506 L90.45114,38.69736 C90.45114,38.69736 82.06536,38.69736 81.20658,38.69736 C80.34702,38.69736 79.9071,38.0289 79.9071,37.39866 C79.9071,36.76842 79.9071,28.55658 79.9071,28.55658 L56.4876,43.5084 C56.48682,40.61928 56.48604,38.78706 56.48604,38.78706 L49.03548,38.78706 C49.03548,38.78706 49.03548,58.87596 49.03548,59.39154 C49.03548,59.90634 48.06438,60.84624 47.19858,59.58186 C47.19858,59.58186 37.29102,45.36246 33.69678,41.06232 C30.71172,37.48914 20.2956,37.67244 20.25504,46.13232 C20.22852,51.5034 20.2683,82.953 20.2683,82.953 L27.71808,82.953 C27.71808,82.953 27.71808,58.18488 27.71808,56.95248 C27.71808,55.51338 28.98948,56.0235 29.78196,56.91816 C30.14934,57.33156 46.12218,81.63324 46.84056,82.60434 C48.46764,84.80004 56.4993,86.4123 56.4993,78.10998 C56.4993,72.16092 56.49228,54.5493 56.48838,45.04188 L63.75954,45.04188 C64.5216,45.04188 65.48802,45.90144 65.4888,45.90222 C65.48334,46.62294 65.38506,69.28896 65.38506,72.28026 C65.38506,79.00776 70.94958,83.55282 76.9782,83.55282 C81.9897,83.55282 90.41136,83.55282 90.41136,83.55282 L90.41136,77.02656 C90.41136,77.02656 86.45598,77.02656 84.24156,77.02656 C82.02714,77.02656 80.27292,75.40026 80.27292,73.18584 L80.27292,47.68842 C80.27292,46.31796 81.36726,44.37498 83.56296,44.37498 Z" id="Stroke-65"></path>
            <path d="M400.1985,38.78706 L392.7495,38.78706 C392.7495,38.78706 392.7495,58.87596 392.7495,59.39154 C392.7495,59.90634 391.7784,60.84624 390.91182,59.58264 C390.91182,59.58264 381.00426,45.36246 377.41002,41.06232 C374.42418,37.48914 364.00962,37.67244 363.9675,46.13232 C363.94254,51.5034 363.9831,82.953 363.9831,82.953 L371.43132,82.953 C371.43132,82.953 371.43132,58.18488 371.43132,56.95248 C371.43132,55.51338 372.70272,56.0235 373.49598,56.91816 C373.86336,57.33234 389.8362,81.63324 390.55458,82.60434 C392.1801,84.80004 400.21176,86.4123 400.21176,78.10998 C400.21176,69.80844 400.1985,38.78706 400.1985,38.78706" id="Fill-66" fill="#FFFFFF"></path>
            <path d="M400.1985,38.78706 L392.7495,38.78706 C392.7495,38.78706 392.7495,58.87596 392.7495,59.39154 C392.7495,59.90634 391.7784,60.84624 390.91182,59.58264 C390.91182,59.58264 381.00426,45.36246 377.41002,41.06232 C374.42418,37.48914 364.00962,37.67244 363.9675,46.13232 C363.94254,51.5034 363.9831,82.953 363.9831,82.953 L371.43132,82.953 C371.43132,82.953 371.43132,58.18488 371.43132,56.95248 C371.43132,55.51338 372.70272,56.0235 373.49598,56.91816 C373.86336,57.33234 389.8362,81.63324 390.55458,82.60434 C392.1801,84.80004 400.21176,86.4123 400.21176,78.10998 C400.21176,69.80844 400.1985,38.78706 400.1985,38.78706 Z" id="Stroke-67"></path>
            <path d="M235.74252,25.41708 C235.74252,25.41708 224.8155,67.44738 224.523,68.40054 C224.1408,69.64152 222.94662,70.05882 222.32652,68.62518 C221.5629,67.09716 213.28866,38.69892 213.28866,38.69892 L198.19644,38.70126 C198.19644,38.70126 209.46276,75.67794 209.97288,76.77306 C215.32212,88.23438 227.10402,83.64954 229.52514,75.24504 C232.01568,66.59484 242.67906,25.41708 242.67906,25.41708 L235.74252,25.41708" id="Fill-68" fill="#FFFFFF"></path>
            <path d="M235.74252,25.41708 C235.74252,25.41708 224.8155,67.44738 224.523,68.40054 C224.1408,69.64152 222.94662,70.05882 222.32652,68.62518 C221.5629,67.09716 213.28866,38.69892 213.28866,38.69892 L198.19644,38.70126 C198.19644,38.70126 209.46276,75.67794 209.97288,76.77306 C215.32212,88.23438 227.10402,83.64954 229.52514,75.24504 C232.01568,66.59484 242.67906,25.41708 242.67906,25.41708 L235.74252,25.41708 Z" id="Stroke-69"></path>
            <path d="M338.03406,38.18178 C324.95658,38.18178 314.35716,48.44112 314.35716,61.09584 C314.35716,73.75134 324.95658,84.01068 338.03406,84.01068 C351.11154,84.01068 361.71252,73.75134 361.71252,61.09584 C361.71252,48.44112 351.11154,38.18178 338.03406,38.18178 Z M338.03406,78.6637967 C332.1981,78.67704 330.0141,70.79826 330.0141,61.09584 C330.0141,51.39342 331.31436,43.52868 338.03406,43.52868 C343.77252,43.52868 346.05402,51.39342 346.05402,61.09584 C346.05402,70.79826 343.37004,78.65208 338.03406,78.6637967 L338.03406,78.6637967 Z" id="Fill-71" fill="#FFFFFF"></path>
            <path d="M338.03406,38.18178 C324.95658,38.18178 314.35716,48.44112 314.35716,61.09584 C314.35716,73.75134 324.95658,84.01068 338.03406,84.01068 C351.11154,84.01068 361.71252,73.75134 361.71252,61.09584 C361.71252,48.44112 351.11154,38.18178 338.03406,38.18178 Z M338.03406,78.6637967 C332.1981,78.67704 330.0141,70.79826 330.0141,61.09584 C330.0141,51.39342 331.31436,43.52868 338.03406,43.52868 C343.77252,43.52868 346.05402,51.39342 346.05402,61.09584 C346.05402,70.79826 343.37004,78.65208 338.03406,78.6637967 Z" id="Stroke-72"></path>
            <path d="M274.7511,66.11202 C278.08716,66.4638 281.30544,68.77104 281.30544,72.04158 C281.30544,74.67252 279.03096,76.80504 276.58332,76.80504 L261.07692,76.75668 L261.07692,83.28294 L278.2338,83.2767 C286.92222,83.2767 293.96406,76.44702 293.96406,67.94268 C293.96406,57.07104 288.21468,55.69902 278.2338,53.05872 C278.2338,53.05872 273.76362,51.65862 273.76362,48.97074 C273.76362,46.28364 276.26118,44.97714 278.70804,44.97714 L289.2123,45.02628 L289.2123,38.50002 L274.8252,38.50626 C266.13756,38.50626 259.40148,44.72052 259.40148,53.55948 C259.40148,62.66208 269.44788,65.55432 274.7511,66.11202" id="Fill-73" fill="#FFFFFF"></path>
            <path d="M274.7511,66.11202 C278.08716,66.4638 281.30544,68.77104 281.30544,72.04158 C281.30544,74.67252 279.03096,76.80504 276.58332,76.80504 L261.07692,76.75668 L261.07692,83.28294 L278.2338,83.2767 C286.92222,83.2767 293.96406,76.44702 293.96406,67.94268 C293.96406,57.07104 288.21468,55.69902 278.2338,53.05872 C278.2338,53.05872 273.76362,51.65862 273.76362,48.97074 C273.76362,46.28364 276.26118,44.97714 278.70804,44.97714 L289.2123,45.02628 L289.2123,38.50002 L274.8252,38.50626 C266.13756,38.50626 259.40148,44.72052 259.40148,53.55948 C259.40148,62.66208 269.44788,65.55432 274.7511,66.11202 Z" id="Stroke-74"></path>
            <path d="M410.97732,48.31164 L409.92276,48.31164 L409.92276,41.37354 L412.56774,41.37354 C414.20574,41.37354 415.01616,41.9796 415.01616,43.34538 C415.01616,44.58636 414.2385,45.12534 413.21748,45.25638 L415.18698,48.31164 L414.01542,48.31164 L412.18086,45.30318 L410.97732,45.30318 L410.97732,48.31164 Z M412.23468,44.41242 C413.12544,44.41242 413.91636,44.3508 413.91636,43.2822 C413.91636,42.42576 413.1387,42.26508 412.41096,42.26508 L410.97732,42.26508 L410.97732,44.41242 L412.23468,44.41242 L412.23468,44.41242 Z" id="Fill-75" fill="#FFFFFF"></path>
            <path d="M406.1382,44.82504 C406.1382,41.37354 408.94074,38.82684 412.24716,38.82684 C415.52862,38.82684 418.32336,41.37354 418.32336,44.82504 C418.32336,48.31164 415.52862,50.856 412.24716,50.856 C408.94074,50.856 406.1382,48.31164 406.1382,44.82504 Z M412.24716,49.8537 C414.97248,49.8537 417.11202,47.72196 417.11202,44.82504 C417.11202,41.9796 414.97248,39.82758 412.24716,39.82758 C409.49844,39.82758 407.35032,41.9796 407.35032,44.82504 C407.35032,47.72196 409.49844,49.8537 412.24716,49.8537 L412.24716,49.8537 Z" id="Fill-76" fill="#FFFFFF"></path>
        </g>
    </g>
</svg>