<?xml version="1.0" encoding="UTF-8"?>
<svg width="723px" height="85px" viewBox="0 0 723 85" version="1.1" xmlns="http://www.w3.org/2000/svg" xmlns:xlink="http://www.w3.org/1999/xlink">
    <title>gamemeta</title>
    <g id="gamemeta" stroke="none" stroke-width="1" fill="none" fill-rule="evenodd">
        <g id="GAME-DETAILS" transform="translate(45.000000, 0.000000)">
            <g id="ICON-DIVIDERS" opacity="0.351446243" transform="translate(125.000000, 0.000000)" fill="#FFFFFF">
                <rect id="Rectangle" x="0" y="0" width="1" height="73"></rect>
                <rect id="Rectangle" x="191" y="0" width="1" height="73"></rect>
                <rect id="Rectangle" x="382" y="0" width="1" height="73"></rect>
            </g>
            <g id="MD_LBL_PLAYERS-INFO" transform="translate(193.000000, 0.000000)" stroke="#FFFFFF" stroke-width="3">
                <g id="PLAYERS---ICON">
                    <circle id="Oval" cx="14" cy="8" r="6.5"></circle>
                    <path d="M21,19.5 L7,19.5 C5.48121694,19.5 4.10621694,20.1156085 3.1109127,21.1109127 C2.11560847,22.1062169 1.5,23.4812169 1.5,25 L1.5,36.5 L26.5,36.5 L26.5,25 C26.5,23.4812169 25.8843915,22.1062169 24.8890873,21.1109127 C23.8937831,20.1156085 22.5187831,19.5 21,19.5 Z" id="Rectangle"></path>
                    <circle id="Oval" cx="43" cy="8" r="6.5"></circle>
                    <path d="M50,19.5 L36,19.5 C34.4812169,19.5 33.1062169,20.1156085 32.1109127,21.1109127 C31.1156085,22.1062169 30.5,23.4812169 30.5,25 L30.5,36.5 L55.5,36.5 L55.5,25 C55.5,23.4812169 54.8843915,22.1062169 53.8890873,21.1109127 C52.8937831,20.1156085 51.5187831,19.5 50,19.5 Z" id="Rectangle"></path>
                </g>
            </g>
            <g id="Group-20" transform="translate(0.000000, 2.000000)">
                <path d="M16.8750003,16.1500001 L14.3000003,16.1500001 L14.3000003,13.5750001 C14.3000003,12.7047936 13.5952066,12 12.7250002,12 C11.8547938,12 11.1500001,12.7047936 11.1500001,13.5750001 L11.1500001,16.1500001 L8.57500006,16.1500001 C7.70479363,16.1500001 7,16.8547938 7,17.7250002 C7,18.5952066 7.70479363,19.3000003 8.57500006,19.3000003 L11.1500001,19.3000003 L11.1500001,21.8750003 C11.1500001,22.7452067 11.8547938,23.4500004 12.7250002,23.4500004 C13.5952066,23.4500004 14.3000003,22.7452067 14.3000003,21.8750003 L14.3000003,19.3000003 L16.8750003,19.3000003 C17.7452067,19.3000003 18.4500004,18.5952066 18.4500004,17.7250002 C18.4500004,16.8547938 17.7452067,16.1500001 16.8750003,16.1500001 Z" id="Path" fill="#FFFFFF" fill-rule="nonzero"></path>
                <circle id="Oval" stroke="#FFFFFF" stroke-width="2" cx="38.5" cy="19.5" r="2.5"></circle>
                <circle id="Oval" stroke="#FFFFFF" stroke-width="2" cx="13" cy="18" r="8"></circle>
                <circle id="Oval" stroke="#FFFFFF" stroke-width="2" cx="45.5" cy="16.5" r="2.5"></circle>
                <circle id="Oval" stroke="#FFFFFF" stroke-width="2" cx="52.5" cy="13.5" r="2.5"></circle>
                <path d="M44.9332675,7.2513399 L44.9021057,7.25296927 L44.8542565,7.25656578 L44.8230649,7.2596439 L44.790793,7.26346557 L44.7409563,7.27070258 L44.7090271,7.27620032 L44.6816693,7.28145448 L44.653961,7.28718086 L44.6315479,7.29229525 L44.6012424,7.29953918 L44.5705994,7.30755981 L44.5478592,7.31405704 L44.5196982,7.32241317 L44.491831,7.33119327 L44.4626525,7.34105358 L44.4409667,7.34888458 L44.4127361,7.35939751 L44.3856169,7.37009242 L44.3651313,7.37860405 L39.2447963,9.56389825 L39.2198014,9.57475871 L39.1934704,9.58679574 L39.1668874,9.59950939 L39.1463355,9.60986033 L39.1179817,9.62455342 L39.0979053,9.63549058 L39.0642125,9.65425789 L39.0007147,9.69329611 L38.9725667,9.71191366 L38.9480562,9.72870432 L38.9289781,9.74239752 L38.9039487,9.76069674 L38.8847545,9.77544936 L38.8593453,9.79544292 L38.8360339,9.81464051 L38.8194226,9.8288174 L38.794037,9.85098217 L38.7756018,9.86794909 L38.7534146,9.88869013 L38.7360029,9.90578239 L38.7178317,9.92401944 L38.6937217,9.94904698 L38.672939,9.97162819 L38.6524711,9.9947305 L38.6204947,10.0325208 L38.6044484,10.0525787 L38.5825525,10.0805938 L38.5514134,10.1230875 L38.5263086,10.1594462 L38.4644291,10.2591579 L38.4464754,10.29236 L38.4319232,10.3196038 L38.408501,10.366965 L38.3977439,10.3903281 L38.3851941,10.418435 L38.373659,10.4455425 L38.3627236,10.4727849 L38.3525162,10.4995098 L38.3423536,10.5276525 L38.3349736,10.5494911 L38.3253741,10.5784195 L38.3146806,10.6141454 L38.2963255,10.68263 L38.2886136,10.7164264 L38.2832052,10.741778 L38.2773878,10.7710593 L38.2722566,10.8006621 L38.2676593,10.8297784 L38.2609666,10.8794023 L38.2574313,10.9129877 L38.2547768,10.9442292 L38.2509609,11.0054838 L38.2506425,11.1274615 L38.254224,11.1883474 L38.257221,11.2265589 L38.2659502,11.2989325 L38.2725732,11.3427019 L38.2909543,11.4347604 L38.2998902,11.471745 L38.3080305,11.5026366 L38.3221328,11.5514138 L38.3319399,11.5818784 L38.3385736,11.6015089 L38.3492531,11.6320981 L38.3636246,11.6701561 L38.4017671,11.7594189 L38.4280461,11.8129503 L38.4394486,11.8347916 L38.4545654,11.8629509 L38.4695421,11.8895096 L38.484629,11.9150412 L38.4994122,11.9390639 L38.5143121,11.9624012 L38.5294137,11.9852333 L38.5492633,12.0142093 L38.593098,12.0734583 L38.6115484,12.0965213 L38.6305922,12.1199519 L38.6509597,12.1438169 L38.665905,12.1606669 L38.6862078,12.1832024 L38.7095104,12.2078365 L38.7445525,12.2430409 L38.7675209,12.2649747 L38.7839018,12.2800509 L38.8100863,12.3036146 L38.8304433,12.3208397 L38.8513443,12.3383641 L38.8700787,12.3533516 L38.8967582,12.3742036 L38.9169311,12.3891283 L38.9415848,12.4070752 L38.967445,12.4249311 L38.9958926,12.443822 L39.0545731,12.4801409 L39.0858521,12.4982498 L39.1078053,12.5102094 L39.1344745,12.524479 L39.1564355,12.5355397 L39.1938624,12.5538512 L39.2810383,12.5915447 L39.3170098,12.6052838 L39.3429737,12.6146596 L39.3692038,12.6237045 L39.3995259,12.633533 L39.4489906,12.6481706 L39.4798589,12.6563048 L39.5156457,12.6651914 L39.6072739,12.6837915 L39.6433142,12.6895198 L39.670861,12.6935068 L39.7042734,12.6976833 L39.7544047,12.7024499 L39.7783173,12.7041691 L39.8122598,12.706252 L39.8528988,12.7075801 L39.9433862,12.7069887 L39.9845366,12.7051182 L40.0370157,12.7011607 L40.0747559,12.6972141 L40.1547748,12.6863104 L40.2588587,12.6655282 L40.3380706,12.6448798 L40.375162,12.6337015 L40.4250308,12.6173063 L40.4754491,12.5988606 L40.5056251,12.5868324 L40.5256065,12.5784714 L45.6442874,10.3940087 L45.6675946,10.383762 L45.6914719,10.3728561 L45.7186505,10.3600229 L45.7467241,10.3460886 L45.7680072,10.3348953 L45.7962503,10.3196988 L45.8178042,10.3073824 L45.840447,10.2940949 L45.8678288,10.2774864 L45.8964201,10.2593121 L45.9381248,10.2310711 L45.9633728,10.2130945 L45.9882553,10.1946855 L46.0275792,10.1641364 L46.0529215,10.1433041 L46.0700904,10.1286298 L46.0937728,10.1079425 L46.1233407,10.0809912 L46.1918919,10.0125979 L46.2360547,9.9639331 L46.2865924,9.9030816 L46.321075,9.85760185 L46.3357025,9.83722194 L46.3538823,9.81132894 L46.3707546,9.78611981 L46.3874912,9.76010751 L46.4000821,9.73948985 L46.4145983,9.71545125 L46.4266824,9.6943042 L46.4432195,9.66457246 L46.4548514,9.64229156 L46.4691488,9.61440005 L46.4802007,9.59129162 L46.4941969,9.56146203 L46.514742,9.5137498 L46.525951,9.48582561 L46.5361871,9.45921172 L46.5458596,9.43242626 L46.5551503,9.40548343 L46.5638718,9.37839118 L46.5720098,9.35180701 L46.5796199,9.32517163 L46.5870347,9.2977368 L46.5943152,9.26841784 L46.601286,9.23786934 L46.6109286,9.19044679 L46.6164655,9.15948152 L46.6215798,9.12730357 L46.6281936,9.07703903 L46.6308323,9.051806 L46.6337731,9.02067302 L46.6359944,8.9897769 L46.6371769,8.96716219 L46.6384953,8.93559212 L46.6389559,8.91210306 L46.6391,8.8974 L46.6391,8.882 L46.6388359,8.85689692 L46.6384998,8.84220327 L46.6379998,8.82690327 L46.6373769,8.81223781 L46.6365769,8.79693781 L46.6345975,8.765427 L46.6317622,8.73205773 L46.6264422,8.68449008 L46.6222298,8.65247575 L46.6175086,8.62257499 L46.6131306,8.59714893 L46.6080402,8.56987903 L46.6020289,8.54079223 L46.5957431,8.51306044 L46.5892091,8.48619875 L46.5815402,8.45689945 L46.575043,8.43415915 L46.5666868,8.40599823 L46.5579067,8.37813096 L46.5480464,8.34895248 L46.5402154,8.32726665 L46.5262306,8.28971299 L46.487581,8.19888652 L46.4610539,8.14484971 L46.4465822,8.11712928 L46.4330413,8.09227347 L46.4189874,8.06749426 L46.404371,8.04275878 L46.3928437,8.02402693 L46.3753776,7.99636446 L46.3584311,7.97084498 L46.3458727,7.95265696 L46.327254,7.92613092 L46.3112854,7.90478163 L46.2940019,7.88204227 L46.2756529,7.85886459 L46.2570041,7.83617847 L46.2423298,7.81900955 L46.2216425,7.79532724 L46.2013527,7.77306754 L46.1772402,7.74759022 L46.1260358,7.69701216 L46.100017,7.67308415 L46.0834669,7.65840496 L46.0593997,7.63753622 L46.0415758,7.62273328 L46.0156591,7.60170014 L45.9902543,7.58212595 L45.9720689,7.5686717 L45.9474152,7.55072478 L45.9198758,7.53170944 L45.8795114,7.50522035 L45.8515365,7.48778983 L45.830747,7.4755051 L45.8080042,7.46241764 L45.7801288,7.44691299 L45.7540534,7.43310837 L45.7253549,7.41854811 L45.6769056,7.39563529 L45.6280422,7.3744958 L45.5974005,7.36219594 L45.5682155,7.35117506 L45.5217658,7.33478101 L45.4972234,7.3268804 L45.4664299,7.31730945 L45.4309945,7.30725345 L45.3587654,7.28927716 L45.3041468,7.27817137 L45.2731815,7.27263453 L45.2433969,7.26790055 L45.2206434,7.26475698 L45.1891565,7.26074091 L45.165506,7.25826765 L45.134373,7.25532691 L45.1034769,7.25310562 L45.0808622,7.25192315 L45.0428077,7.2503339 L44.9332675,7.2513399 Z" id="Path" stroke="#FFFFFF" stroke-width="1.5" fill="#FFFFFF" stroke-linecap="round" stroke-linejoin="round"></path>
                <path d="M31.3377619,-1.24601229 L30.6730031,-1.24997867 L30.0079969,-1.24617867 L29.3473415,-1.23481235 L28.6906058,-1.21577007 L28.0384699,-1.18926202 L27.3907498,-1.15538533 L26.7474282,-1.11412634 L26.1090058,-1.06570804 L25.4749851,-1.00998456 L24.846261,-0.947320525 L24.222255,-0.877664897 L23.6031951,-0.801001528 L22.9894776,-0.717587986 L22.3810934,-0.627486428 L21.7779181,-0.530673528 L21.1802245,-0.427271052 L20.5881098,-0.317376634 L20.0016707,-0.201087629 L19.4210605,-0.0784918382 L18.8461529,0.0504432785 L18.2774179,0.18543919 L17.7145841,0.32660904 L17.1582105,0.473645376 L16.6077252,0.626802834 L16.0638368,0.785752115 L15.5264516,0.950420257 L14.9956401,1.12075136 L14.4713492,1.29680509 L13.9538575,1.47839931 L13.4434491,1.66534324 L12.9396921,1.85786811 L12.4431795,2.055638 L11.9538875,2.25864794 L11.4719708,2.4667016 L10.9973722,2.67986064 L10.5301463,2.89807316 L10.0708286,3.12093779 L9.61928942,3.34842044 L9.17531729,3.58074457 L8.73972844,3.81719978 L8.3119044,4.05817624 L7.89212801,4.30355518 L7.48100209,4.55275783 L7.07804732,4.80607991 L6.68341647,5.06347959 L6.29755048,5.32449125 L5.91996886,5.58966527 L5.54681801,5.86152048 L5.18734806,6.1334534 L4.83676808,6.4089568 L4.49470865,6.68834143 L4.1626602,6.97014409 L3.83931708,7.25574508 L3.52584419,7.5438864 L3.22160139,7.83536205 L2.92670332,8.13015608 L2.64202771,8.42714682 L2.50280504,8.57744965 L2.36669007,8.72773701 L2.10180357,9.03029052 L1.97291059,9.18295957 L1.84684786,9.33591371 L1.60229853,9.64382965 L1.36815996,9.95423614 L1.25474807,10.1108108 L1.03650112,10.4248937 L0.82870831,10.741939 L0.632511253,11.0599789 L0.537893191,11.2211799 L0.358739023,11.5413491 L0.272967746,11.7026151 L0.110074484,12.0249839 L0.0326406095,12.1866722 L-0.114161145,12.5104446 L-0.250462135,12.8346409 L-0.314514607,12.9959244 L-0.435755662,13.3207128 L-0.547186945,13.6457178 L-0.649068559,13.970168 L-0.741691477,14.2943641 L-0.82548568,14.6182631 L-0.900507017,14.9405994 L-0.967364703,15.2630505 L-1.02620485,15.5847123 L-1.07737438,15.904392 L-1.12122942,16.2235197 L-1.15804791,16.5410024 L-1.18816423,16.8572104 L-1.21156062,17.1657004 L-1.22942744,17.4793038 L-1.23645256,17.6405531 L-1.245645,17.9453548 L-1.24989098,18.2537912 L-1.24919513,18.5603892 L-1.24390075,18.8648179 L-1.23436105,19.166962 L-1.22092608,19.4667197 L-1.20369003,19.7647981 L-1.18329251,20.0594584 L-1.1336215,20.6421631 L-1.10504103,20.9295334 L-1.0416231,21.4927079 L-1.00531372,21.7806011 L-0.967229819,22.0614147 L-0.926229557,22.3420769 L-0.836015926,22.8990548 L-0.786234845,23.1768533 L-0.733368201,23.453225 L-0.677450791,23.7281805 L-0.618036047,24.0027742 L-0.555132071,24.2764537 L-0.488602083,24.5492981 L-0.418328172,24.8212929 L-0.344479533,25.0919386 L-0.266478665,25.3623732 L-0.184656049,25.6314355 L-0.0983554482,25.90045 L-0.00827906585,26.1675789 L0.0863954335,26.4345788 L0.185648107,26.7008927 L0.28915349,26.965817 L0.39734173,27.2301077 L0.510530651,27.4939756 L0.627956094,27.7560496 L0.751107433,28.0186611 L0.87864878,28.2792939 L1.01129849,28.539275 L1.14953189,28.7989972 L1.2928744,29.0575214 L1.44149045,29.3150847 L1.59515286,29.571418 L1.75497646,29.8277773 L1.91916107,30.0818008 L2.08846969,30.3346162 L2.26208043,30.585264 L2.44001729,30.8339839 L2.62262288,31.0810527 L2.80834952,31.3249366 L2.99834213,31.5670006 L3.19186314,31.8063744 L3.38878208,32.0429609 L3.58873797,32.2764827 L3.79159908,32.5068559 L3.99754112,32.7341921 L4.20597673,32.9579573 L4.41681432,33.1780856 L4.62990564,33.3944272 L4.84508498,33.6068092 L5.06227994,33.8151485 L5.28092152,34.0189763 L5.50139304,34.218532 L5.72357755,34.4135522 L5.94623619,34.6031961 L6.17026821,34.7881202 L6.39555414,34.9680227 L6.62169476,35.1425126 L6.84828723,35.311278 L7.07962739,35.4773723 L7.42164322,35.7109405 L7.65067287,35.8592527 L7.99365992,36.0690867 L8.221385,36.2000297 L8.56406795,36.3840269 L8.90494697,36.5516013 L9.13103934,36.6543913 L9.35430879,36.7493616 L9.57855336,36.8381924 L9.90949136,36.9573712 L10.2380359,37.061606 L10.4479016,37.1207039 L10.6702441,37.1772205 L10.9908228,37.2470965 L11.3055119,37.3024008 L11.5119267,37.3313852 L11.7172759,37.3544233 L12.0107583,37.3770628 L12.3135756,37.3880187 L12.5128576,37.3871187 L12.7041245,37.3809986 L12.9893718,37.3611194 L13.2552003,37.3306649 L13.4456859,37.3014072 L13.6221145,37.2685408 L13.8819285,37.2093535 L14.0518029,37.1633374 L14.2992504,37.0851933 L14.4586431,37.0273341 L14.6964513,36.9291634 L14.9244447,36.8201312 L15.1050778,36.7223126 L15.3096271,36.5978527 L15.5738,36.4131 L15.7842475,36.2437678 L15.9582814,36.0870871 L16.1225115,35.9238605 L16.2763812,35.7563202 L16.4224128,35.5830323 L16.6026437,35.3490823 L16.8136818,35.0453459 L16.8903685,34.9271185 L17.0450491,34.6762917 L17.1935536,34.421379 L17.3360049,34.1659765 L18.0733241,32.7818168 L18.2299915,32.4977674 L18.4774493,32.0697186 L18.5649403,31.924953 L18.7455176,31.6383427 L18.9362688,31.3528038 L19.1375805,31.0707643 L19.3458763,30.7990485 L19.62993,30.4588571 L19.933997,30.1309927 L20.1935408,29.8778974 L20.3988275,29.6936969 L20.6140573,29.5143785 L20.8393552,29.3408573 L21.0751545,29.1735571 L21.3218021,29.0130485 L21.4947741,28.90847 L21.763957,28.757682 L21.9523943,28.6598871 L22.1473138,28.5649038 L22.3499923,28.4722702 L22.6672562,28.3385706 L23.0013049,28.2113438 L23.2344163,28.1298066 L23.5979891,28.0136668 L23.9812646,27.9039103 L24.2468291,27.8349471 L24.6622261,27.7373013 L25.1032445,27.6459614 L25.4052299,27.5901621 L25.7162711,27.5379284 L26.0372239,27.4890865 L26.3671676,27.4440316 L26.7073011,27.4025483 L27.0573959,27.3647216 L27.4171966,27.3307183 L27.7869436,27.3006606 L28.1676623,27.2742922 L28.5582066,27.2519416 L28.9593141,27.2335808 L29.3711452,27.2192343 L29.7937885,27.2089232 L30.2270354,27.2027713 L30.671449,27.2007868 L31.1164498,27.2028868 L31.5503686,27.2091714 L31.9733115,27.2196232 L32.3857548,27.2341343 L32.7874859,27.2526808 L33.1786934,27.2752416 L33.5594377,27.3017922 L33.9304302,27.3321584 L34.2907344,27.3664212 L34.6412041,27.4045216 L34.9820989,27.4463483 L35.3131324,27.4918316 L35.6341761,27.5409865 L35.9463289,27.5937284 L36.2486018,27.6499494 L36.6793914,27.7395635 L37.0954673,27.8376771 L37.362849,27.907353 L37.7452296,28.0172555 L38.1110019,28.1345813 L38.5684271,28.3008127 L38.8909483,28.432862 L39.0975762,28.5246362 L39.2960951,28.618716 L39.580738,28.7648097 L39.8502155,28.9165256 L40.1070106,29.0747401 L40.3501602,29.2385129 L40.5810448,29.4078573 L40.8028015,29.583933 L41.0134725,29.7646969 L41.1485374,29.8879541 L41.3448968,30.0779312 L41.5321412,30.271945 L41.6516539,30.4028335 L41.885861,30.6757697 L42.0992475,30.9450315 L42.2065069,31.088109 L42.405952,31.3686592 L42.5950554,31.6525051 L42.7741922,31.9377496 L42.9447457,32.2237017 L43.110665,32.5144442 L43.2665085,32.7975674 L43.9840095,34.1450799 L44.2042443,34.5370787 L44.3535509,34.7871917 L44.5092315,35.0324185 L44.5935286,35.1582209 L44.7633576,35.3958347 L44.8988429,35.5705728 L45.0933188,35.7994202 L45.2486885,35.9648605 L45.3584392,36.0731382 L45.5294016,36.2285115 L45.7477984,36.4056732 L45.8744927,36.4984518 L46.0755979,36.6321485 L46.2536487,36.7378492 L46.3951322,36.8140818 L46.7012249,36.9580125 L46.8498883,37.0185606 L47.0016595,37.0745266 L47.177291,37.132632 L47.3443845,37.1815745 L47.59114,37.2431804 L47.77785,37.2819751 L47.9465219,37.3113606 L48.1383923,37.3389541 L48.3242249,37.359446 L48.6072406,37.3800351 L48.8974424,37.3880187 L49.1930041,37.3831597 L49.4951562,37.3650488 L49.8019412,37.3335687 L49.9053862,37.32001 L50.2190013,37.270071 L50.5367111,37.2060147 L50.6451522,37.1810166 L50.8517596,37.1291529 L51.0764368,37.0665652 L51.2881584,37.0014381 L51.5174914,36.924339 L51.739304,36.8433113 L51.9624132,36.7553418 L52.1868002,36.6602973 L52.525953,36.5042013 L52.7532958,36.3911813 L52.9821484,36.2704044 L53.212115,36.1421297 L53.5556707,35.9375279 L53.8990617,35.718012 L54.2421199,35.4840909 L54.469493,35.3212662 L54.6927128,35.155378 L54.9195336,34.9807366 L55.1452459,34.8009227 L55.3702318,34.6156202 L55.5935386,34.4258877 L55.8158466,34.2310556 L56.0366841,34.0316335 L56.2561785,33.8273763 L56.4736406,33.619037 L56.6887955,33.4071256 L56.9023944,33.1906272 L57.1134857,32.9705856 L57.3222394,32.7467254 L57.7310869,32.2897988 L57.931362,32.0562827 L58.1283299,31.8199063 L58.3217369,31.5810744 L58.5117579,31.3394006 L58.6978417,31.0956104 L58.8800848,30.849372 L59.0582827,30.6007839 L59.2317144,30.3510597 L59.4010303,30.0988162 L59.5655389,29.8449008 L59.7249239,29.5897563 L59.8791488,29.3333484 L60.0280095,29.0760847 L60.1717191,28.8174728 L60.3099681,28.5584972 L60.4432146,28.2983407 L60.5713512,28.0372939 L60.6944718,27.7753794 L60.8126691,27.5126389 L60.9259693,27.2493756 L61.0347583,26.9845077 L61.1387465,26.719217 L61.2382069,26.4529774 L61.3332046,26.1859788 L61.4238352,25.9184047 L61.5103936,25.6492199 L61.5926236,25.38007 L61.6710052,25.1089351 L61.7452589,24.8380798 L61.815843,24.5654488 L61.8826021,24.2925981 L61.9458321,24.0184537 L62.0055384,23.7439241 L62.0619508,23.4674805 L62.1149682,23.191225 L62.21174,22.6345073 L62.2556911,22.3548629 L62.3351685,21.7923659 L62.3709706,21.5090509 L62.4346231,20.9457079 L62.4900812,20.3650079 L62.5341617,19.7793007 L62.5514156,19.4824569 L62.5651061,19.1838595 L62.5748611,18.882462 L62.5804007,18.5792179 L62.5813951,18.2737892 L62.577491,17.9660912 L62.568445,17.6568548 L62.544052,17.18312 L62.5064642,16.7117104 L62.4732479,16.3952024 L62.4542032,16.2367971 L62.3861744,15.758092 L62.3315607,15.4375964 L62.2692647,15.1165505 L62.198707,14.7939994 L62.1197902,14.4708853 L62.0322915,14.1476641 L61.9357964,13.8242132 L61.8294869,13.4991178 L61.7139138,13.1749202 L61.5881866,12.850311 L61.452072,12.5255958 L61.3060994,12.2025197 L61.1490255,11.8792839 L60.9811323,11.5572151 L60.8931794,11.3967288 L60.7081821,11.075726 L60.5120391,10.7566673 L60.3042628,10.438927 L60.0860959,10.124045 L59.85684,9.81133614 L59.7391337,9.65681022 L59.4943452,9.34795809 L59.2389559,9.04136439 L58.9741457,8.73828265 L58.699295,8.43784965 L58.4140229,8.1396858 L58.1196017,7.84505738 L57.8149745,7.552822 L57.5012136,7.26397785 L57.1776837,6.97797558 L56.8452872,6.69550261 L56.6761913,6.55584143 L56.3297206,6.27808596 L55.9742519,6.0037534 L55.6100062,5.73301741 L55.4244632,5.59895096 L55.0516973,5.33687123 L54.66558,5.07517958 L54.2709835,4.81737959 L53.8677527,4.56347991 L53.4561776,4.31368489 L53.036772,4.06815518 L52.608909,3.82674018 L52.1728716,3.58969978 L51.7290761,3.35718875 L51.2772106,3.12922044 L50.8178714,2.90603779 L50.3509501,2.68761824 L49.8759347,2.4740188 L49.3940189,2.26564038 L48.904526,2.06231205 L48.4079205,1.864238 L47.9043878,1.67149869 L47.3933742,1.48411513 L46.876116,1.30232513 L46.3517508,1.12600509 L45.8206599,0.955351362 L45.2831484,0.790420257 L44.7392632,0.631252115 L44.1888748,0.477902834 L43.6319343,0.330530781 L43.0693159,0.18920904 L42.5004315,0.0539509263 L41.9256471,-0.0751567215 L41.3446957,-0.19800108 L40.7583702,-0.314479495 L40.1661902,-0.424576634 L39.5684755,-0.528171052 L38.9652819,-0.625173528 L38.3565764,-0.715490906 L37.74295,-0.799084227 L37.1239799,-0.875904636 L36.4998675,-0.945762381 L35.870819,-1.00862252 L35.2372149,-1.06448456 L34.5983942,-1.11310804 L33.9552718,-1.15452634 L33.3074605,-1.18858479 L32.6552221,-1.21526235 L31.9986942,-1.23447007 L31.3377619,-1.24601229 Z M30.666,1.249 L31.3087969,1.25377867 L31.9406381,1.26481229 L32.5679058,1.28317007 L33.1910779,1.30866235 L33.8096395,1.34118479 L34.4235282,1.38072634 L35.0329058,1.42710804 L35.6370851,1.48038456 L36.236881,1.54032252 L36.8313325,1.60686238 L37.4206201,1.68000464 L38.00475,1.75958423 L38.5837236,1.84549091 L39.1569181,1.93767353 L39.7246245,2.03607105 L40.2867098,2.14057663 L40.8429298,2.2510795 L41.3935043,2.36750108 L41.9377529,2.48975672 L42.4760685,2.61774907 L43.0080841,2.75139096 L43.5340657,2.89056922 L44.0531252,3.03519717 L44.5658368,3.18524789 L45.0720516,3.34057974 L45.5714401,3.50104864 L46.0637492,3.66659491 L46.549084,3.83717487 L47.0277258,4.01268487 L47.4985122,4.19290131 L47.9624795,4.377962 L48.418974,4.56758795 L48.8677811,4.76165962 L49.3092653,4.9601812 L49.7425499,5.16288176 L50.1685286,5.36986221 L50.5865894,5.58077956 L50.9964239,5.79551125 L51.3983284,6.01400022 L51.791691,6.23595982 L52.176828,6.46144482 L52.5539224,6.69031511 L52.9220473,6.92212009 L53.2814165,7.15692041 L53.63212,7.39462042 L54.1371368,7.75304904 L54.4652931,7.99696981 L54.7845259,8.24334138 L55.0945203,8.49185616 L55.3947128,8.74209739 L55.6857163,8.99432442 L55.9667864,9.24792215 L56.2384255,9.503178 L56.4998983,9.75944262 L56.7521771,10.0173142 L56.993705,10.2755503 L57.1114194,10.4056267 L57.3381036,10.6651095 L57.5546479,10.9250863 L57.7614344,11.1859989 L57.95726,11.4463639 L58.1427041,11.706455 L58.3178372,11.966673 L58.4822609,12.2260327 L58.5612113,12.3564211 L58.7104404,12.6154672 L58.8502677,12.8749849 L58.9811745,13.1350161 L59.1030006,13.3950803 L59.216728,13.6563042 L59.3215134,13.916589 L59.4184862,14.1775798 L59.5080131,14.4396822 L59.6283121,14.8336683 L59.6991526,15.0956166 L59.7633389,15.3586015 L59.821082,15.6227025 L59.8723096,15.8869237 L59.9173224,16.1512743 L59.9747579,16.5560915 L60.0044521,16.8153976 L60.0401646,17.214077 L60.057648,17.48128 L60.0703983,17.753208 L60.078155,18.0198452 L60.081509,18.2868088 L60.0806049,18.5534108 L60.0756993,18.8201821 L60.0670389,19.087038 L60.0392844,19.6200431 L59.9992036,20.1520347 L59.9751188,20.4165921 L59.948659,20.6816666 L59.8886769,21.2124921 L59.8213315,21.7245341 L59.7441089,22.2337371 L59.656884,22.7355991 L59.6094318,22.982775 L59.5591492,23.2292195 L59.5061616,23.4727759 L59.4501679,23.7155463 L59.3912979,23.9561019 L59.329357,24.1953512 L59.2643411,24.4324202 L59.1245764,24.90253 L59.0495064,25.1359801 L58.9711648,25.3671953 L58.8890954,25.5978212 L58.8034931,25.8269226 L58.7141535,26.054783 L58.6209417,26.2816923 L58.5239307,26.5070244 L58.4226309,26.7321611 L58.3173282,26.9561206 L58.2078488,27.1791061 L58.0939854,27.4013593 L57.9756319,27.6230028 L57.8526809,27.8442272 L57.7252905,28.0643153 L57.5928512,28.2844516 L57.4555761,28.5041437 L57.3133611,28.7235992 L57.1664697,28.9423838 L57.0149856,29.1604403 L56.8587173,29.3784161 L56.6988152,29.594428 L56.5348583,29.8091896 L56.3670421,30.0225994 L56.0215701,30.4430937 L55.844338,30.6497173 L55.6643131,30.8537012 L55.4816411,31.0550079 L55.2965606,31.2534746 L55.1098143,31.4481144 L54.9211056,31.6393728 L54.7310045,31.8265744 L54.5390594,32.010463 L54.3465215,32.1896237 L54.1533159,32.3640665 L53.9593534,32.5340444 L53.7651614,32.6990123 L53.5705682,32.8592798 L53.3768541,33.0135773 L53.1834664,33.1624634 L52.900007,33.3710338 L52.7090801,33.5052091 L52.3336117,33.7532423 L52.1490293,33.8672721 L51.9671695,33.974198 L51.6997516,34.1212956 L51.4383199,34.2532381 L51.1823393,34.3710087 L51.0140283,34.4422633 L50.8496534,34.5070076 L50.5270244,34.6202471 L50.2935632,34.6903348 L50.0572404,34.7512471 L49.9177889,34.7820853 L49.7007987,34.822729 L49.4231588,34.8609313 L49.2234438,34.8784512 L49.0317959,34.8870403 L48.8470576,34.8872813 L48.7273891,34.883004 L48.4466874,34.8581206 L48.3434501,34.8432284 L48.18965,34.8151249 L47.9153702,34.7441336 L47.7398405,34.6825734 L47.5268678,34.5847182 L47.3877021,34.5039515 L47.2299258,34.3916097 L47.1338984,34.3104885 L47.0027115,34.1825395 L46.8967519,34.0642765 L46.8185571,33.9680272 L46.7100015,33.8226793 L46.5393685,33.5680815 L46.4244491,33.3807083 L46.3057557,33.1763213 L46.1792049,32.9490235 L45.4645905,31.6067201 L45.2908915,31.2912326 L45.106935,30.9688558 L44.9061358,30.632143 L44.6936226,30.2939354 L44.4647688,29.9505962 L44.343848,29.7776408 L44.218374,29.6042125 L44.0181525,29.3395685 L43.8102264,29.0800068 L43.668539,28.9115303 L43.4364461,28.6492665 L43.1954956,28.3941846 L43.0273032,28.2257688 L42.7649626,27.9778459 L42.4873383,27.733915 L42.196431,27.4968802 L41.9944552,27.3427427 L41.7856764,27.1918126 L41.5697061,27.0443357 L41.3466894,26.9006599 L41.1176067,26.761651 L40.7623925,26.561755 L40.393181,26.3723539 L40.1383103,26.2516135 L39.8771966,26.1356673 L39.6099562,26.0244294 L39.3352729,25.9175873 L39.053742,25.8153668 L38.7656981,25.7178187 L38.3219704,25.5804445 L38.016483,25.49435 L37.7030291,25.4126529 L37.2199987,25.2987377 L36.7249445,25.1958386 L36.3818982,25.1320506 L36.0304711,25.0726716 L35.6714239,25.0177135 L35.3035676,24.9671684 L34.9277011,24.9210517 L34.5433959,24.8792784 L34.1500656,24.8418788 L33.7477698,24.8089416 L33.3370623,24.7803078 L32.9166066,24.7560584 L32.4869141,24.7362192 L32.0477452,24.7207657 L31.5989885,24.7096768 L31.1401314,24.7030286 L30.6714502,24.7008132 L30.203351,24.7029132 L29.7451646,24.7094287 L29.2967115,24.7203768 L28.8581548,24.7356657 L28.4290859,24.7553192 L28.0092934,24.7793584 L27.5986377,24.8078078 L27.1975564,24.8404394 L26.8047034,24.8775817 L26.4208041,24.9190784 L26.0456989,24.9648517 L25.6789324,25.0149684 L25.3199761,25.0696135 L24.9697289,25.1284716 L24.6269701,25.1918379 L24.2922555,25.2595386 L23.9596739,25.3329987 L23.6392673,25.4099229 L23.327849,25.490847 L23.022617,25.57659 L22.5778692,25.7138214 L22.148968,25.86117 L22.0089951,25.9127562 L21.7354495,26.0187635 L21.4674483,26.129938 L21.0789897,26.3047135 L20.7049057,26.4899129 L20.3446676,26.6857281 L20.2269155,26.7538744 L19.998617,26.8919802 L19.6671997,27.1077958 L19.4537236,27.2573126 L19.2477448,27.4097427 L19.048569,27.5652802 L18.7611913,27.8048032 L18.5778521,27.9674501 L18.313659,28.2164225 L18.1459389,28.3838201 L17.9038485,28.6395432 L17.67447,28.8979429 L17.4578736,29.1574068 L17.2529475,29.4175685 L17.1254069,29.587291 L16.8777582,29.9343037 L16.64695,30.2797597 L16.4326922,30.6198504 L16.2333507,30.9533814 L16.049765,31.2745558 L15.8752085,31.5910326 L15.1407759,32.9699832 L14.9591464,33.292021 L14.781092,33.5852775 L14.6693844,33.7541702 L14.5594563,33.9072177 L14.4230494,34.0777572 L14.3096469,34.2025944 L14.1824583,34.3238803 L13.9955787,34.4695895 L13.8704249,34.5485676 L13.6619487,34.6530366 L13.4802028,34.7232786 L13.3525298,34.7632336 L13.1214165,34.8192845 L12.9160972,34.8539662 L12.7554249,34.872154 L12.5266755,34.8861014 L12.34,34.8881 L12.1542647,34.88134 L11.9573338,34.8660412 L11.6837611,34.8312389 L11.3968772,34.7786035 L11.0986828,34.707021 L10.8679641,34.640294 L10.6300086,34.5613288 L10.3848466,34.4695076 L10.2199912,34.4016384 L9.96606781,34.2880177 L9.7057958,34.1600187 L9.44093567,34.0177258 L9.17024008,33.8600133 L8.89362713,33.6866473 L8.61275448,33.4986139 L8.32715255,33.2956662 L8.13071277,33.149422 L7.74494586,32.8464773 L7.55153179,32.6867798 L7.35776381,32.5217039 L7.16392245,32.3515478 L6.97130696,32.177168 L6.77917848,31.9980237 L6.58772006,31.8143515 L6.39781502,31.6268908 L6.20939436,31.4355728 L6.02268568,31.2406144 L5.83792327,31.0422427 L5.47570092,30.6366441 L5.29836203,30.4295173 L5.12401792,30.2200391 L4.95303686,30.0085256 L4.78545787,29.7949994 L4.62165048,29.5798634 L4.46117712,29.3627473 L4.30558271,29.1452161 L4.15391957,28.926236 L4.00683031,28.7065838 L3.86473893,28.4866992 L3.72722354,28.2661227 L3.59554714,28.046382 L3.46800955,27.8253153 L3.3454256,27.6041786 L3.22746811,27.3825028 L3.11420151,27.160425 L3.00495122,26.9371061 L2.89979257,26.7128389 L2.79944391,26.4887504 L2.70236935,26.2624244 L2.60975827,26.0360923 L2.52074651,25.808183 L2.43535189,25.5790073 L2.35390457,25.3492212 L2.27597907,25.1180211 L2.13015605,24.6511645 L2.06217867,24.4154268 L1.99757953,24.1785614 L1.93582817,23.9395071 L1.82173207,23.4575463 L1.71915079,22.9685195 L1.6717682,22.720775 L1.58521593,22.2209452 L1.54549106,21.9673371 L1.47342982,21.4554853 L1.44061372,21.1956989 L1.3809231,20.6654921 L1.3311215,20.1394369 L1.30966071,19.8723913 L1.27569003,19.3377019 L1.26372608,19.0705803 L1.25526105,18.802538 L1.25060075,18.5345821 L1.24999513,18.2668108 L1.25369098,17.9991088 L1.261845,17.7313452 L1.28292744,17.3298962 L1.31486423,16.9358896 L1.34294791,16.6695976 L1.39562143,16.2705837 L1.46160485,15.8725877 L1.54141796,15.4761025 L1.60277425,15.2126859 L1.6708436,14.9496863 L1.78636856,14.555132 L1.87248694,14.2930822 L1.96605566,14.0317872 L2.06751461,13.7709756 L2.17745654,13.5095395 L2.29559943,13.2490803 L2.42232552,12.9893161 L2.55823225,12.7295849 L2.70335961,12.4703672 L2.85778875,12.2118211 L3.02309169,11.951961 L3.19809888,11.6929063 L3.38385193,11.4329892 L3.5799979,11.1730301 L3.7862101,10.9134591 L4.00298941,10.6536404 L4.22941481,10.3950912 L4.46679496,10.1359503 L4.71342286,9.8787142 L4.97050172,9.62174262 L5.37375581,9.2395136 L5.65538292,8.98575492 L6.09488719,8.60909739 L6.39997147,8.35992016 L6.71455964,8.11271904 L7.03772775,7.86827908 L7.3703906,7.62584585 L7.71713114,7.38223473 L8.06744952,7.14530875 L8.42698353,6.91082041 L8.79495268,6.67952009 L9.17159791,6.45124217 L9.55687199,6.22604482 L9.9501956,6.00452376 L10.3518716,5.78650022 L10.7618827,5.57195543 L11.1795106,5.36157956 L11.6053714,5.15496221 L12.0390537,4.95242684 L12.4801278,4.75433936 L12.9289292,4.5605984 L13.3853125,4.37125206 L13.8490205,4.186562 L14.3201079,4.00653189 L14.7981509,3.83145676 L15.2836425,3.66110069 L15.7759508,3.49579491 L16.2750599,3.33564864 L16.7811484,3.18057974 L17.2938632,3.03074789 L17.8130748,2.88629717 L18.3384895,2.74745462 L18.8706159,2.61399096 L19.4087821,2.48626081 L19.9532471,2.36415672 L20.5034395,2.24799184 L21.0597293,2.13768763 L21.6217902,2.03337663 L22.1894755,1.93517105 L22.7626819,1.84317353 L23.3413066,1.75748643 L23.9255224,1.67808799 L24.5149049,1.60510153 L25.109245,1.5387649 L25.708739,1.47902053 L26.3133149,1.42588456 L26.9222942,1.37970804 L27.5363718,1.34032634 L28.1548502,1.30798533 L28.7779301,1.28266202 L29.4053942,1.26447007 L30.0369585,1.25361235 L30.666,1.249 Z" id="Path" fill="#FFFFFF" fill-rule="nonzero"></path>
            </g>
            <g id="MD_DEVELOPER-INFO" transform="translate(375.000000, 1.000000)">
                <g id="PROCESSOR---ICON">
                    <g id="Group-51" transform="translate(0.000000, 12.000000)" fill="#FFFFFF">
                        <rect id="Rectangle" x="0" y="0" width="8" height="3" rx="1.5"></rect>
                        <rect id="Rectangle" x="0" y="5" width="8" height="3" rx="1.5"></rect>
                        <rect id="Rectangle" x="0" y="10" width="8" height="3" rx="1.5"></rect>
                    </g>
                    <g id="Group-52" transform="translate(15.000000, 0.000000)" fill="#FFFFFF">
                        <rect id="Rectangle" transform="translate(11.500000, 3.500000) rotate(-270.000000) translate(-11.500000, -3.500000) " x="8" y="2" width="7" height="3" rx="1.5"></rect>
                        <rect id="Rectangle" transform="translate(6.500000, 3.500000) rotate(-270.000000) translate(-6.500000, -3.500000) " x="3" y="2" width="7" height="3" rx="1.5"></rect>
                        <rect id="Rectangle" transform="translate(1.500000, 3.500000) rotate(-270.000000) translate(-1.500000, -3.500000) " x="-2" y="2" width="7" height="3" rx="1.5"></rect>
                        <rect id="Rectangle" transform="translate(26.500000, 3.500000) rotate(-270.000000) translate(-26.500000, -3.500000) " x="23" y="2" width="7" height="3" rx="1.5"></rect>
                        <rect id="Rectangle" transform="translate(21.500000, 3.500000) rotate(-270.000000) translate(-21.500000, -3.500000) " x="18" y="2" width="7" height="3" rx="1.5"></rect>
                        <rect id="Rectangle" transform="translate(16.500000, 3.500000) rotate(-270.000000) translate(-16.500000, -3.500000) " x="13" y="2" width="7" height="3" rx="1.5"></rect>
                        <rect id="Rectangle" transform="translate(41.500000, 3.500000) rotate(-270.000000) translate(-41.500000, -3.500000) " x="38" y="2" width="7" height="3" rx="1.5"></rect>
                        <rect id="Rectangle" transform="translate(31.500000, 3.500000) rotate(-270.000000) translate(-31.500000, -3.500000) " x="28" y="2" width="7" height="3" rx="1.5"></rect>
                        <rect id="Rectangle" transform="translate(36.500000, 3.500000) rotate(-270.000000) translate(-36.500000, -3.500000) " x="33" y="2" width="7" height="3" rx="1.5"></rect>
                    </g>
                    <g id="Group-52" transform="translate(15.000000, 30.000000)" fill="#FFFFFF">
                        <rect id="Rectangle" transform="translate(11.500000, 3.500000) rotate(-270.000000) translate(-11.500000, -3.500000) " x="8" y="2" width="7" height="3" rx="1.5"></rect>
                        <rect id="Rectangle" transform="translate(6.500000, 3.500000) rotate(-270.000000) translate(-6.500000, -3.500000) " x="3" y="2" width="7" height="3" rx="1.5"></rect>
                        <rect id="Rectangle" transform="translate(1.500000, 3.500000) rotate(-270.000000) translate(-1.500000, -3.500000) " x="-2" y="2" width="7" height="3" rx="1.5"></rect>
                        <rect id="Rectangle" transform="translate(26.500000, 3.500000) rotate(-270.000000) translate(-26.500000, -3.500000) " x="23" y="2" width="7" height="3" rx="1.5"></rect>
                        <rect id="Rectangle" transform="translate(21.500000, 3.500000) rotate(-270.000000) translate(-21.500000, -3.500000) " x="18" y="2" width="7" height="3" rx="1.5"></rect>
                        <rect id="Rectangle" transform="translate(16.500000, 3.500000) rotate(-270.000000) translate(-16.500000, -3.500000) " x="13" y="2" width="7" height="3" rx="1.5"></rect>
                        <rect id="Rectangle" transform="translate(41.500000, 3.500000) rotate(-270.000000) translate(-41.500000, -3.500000) " x="38" y="2" width="7" height="3" rx="1.5"></rect>
                        <rect id="Rectangle" transform="translate(31.500000, 3.500000) rotate(-270.000000) translate(-31.500000, -3.500000) " x="28" y="2" width="7" height="3" rx="1.5"></rect>
                        <rect id="Rectangle" transform="translate(36.500000, 3.500000) rotate(-270.000000) translate(-36.500000, -3.500000) " x="33" y="2" width="7" height="3" rx="1.5"></rect>
                    </g>
                    <g id="Group-51" transform="translate(66.000000, 12.000000)" fill="#FFFFFF">
                        <rect id="Rectangle" x="0" y="0" width="8" height="3" rx="1.5"></rect>
                        <rect id="Rectangle" x="0" y="5" width="8" height="3" rx="1.5"></rect>
                        <rect id="Rectangle" x="0" y="10" width="8" height="3" rx="1.5"></rect>
                    </g>
                    <rect id="Rectangle" stroke="#FFFFFF" stroke-width="3" x="6.5" y="6.5" width="60" height="24" rx="2.55555556"></rect>
                    <rect id="Rectangle" stroke="#FFFFFF" stroke-width="2" x="12" y="12" width="49" height="13"></rect>
                </g>
            </g>
            <g id="RELEASEDATE---INFO" transform="translate(575.000000, 0.000000)">
                <g id="RELEASEDATE---ICON">
                    <rect id="Rectangle" fill="#FFFFFF" transform="translate(10.500000, 5.000000) rotate(-270.000000) translate(-10.500000, -5.000000) " x="5.5" y="3.5" width="10" height="3" rx="1.5"></rect>
                    <rect id="Rectangle" fill="#FFFFFF" x="0" y="11" width="57" height="2"></rect>
                    <rect id="Rectangle" fill="#FFFFFF" transform="translate(46.500000, 5.000000) rotate(-270.000000) translate(-46.500000, -5.000000) " x="41.5" y="3.5" width="10" height="3" rx="1.5"></rect>
                    <rect id="Rectangle" stroke="#FFFFFF" stroke-width="3" x="1.5" y="4.5" width="54" height="32" rx="2.55555556"></rect>
                    <circle id="Oval" fill="#FFFFFF" cx="14.5" cy="16.5" r="1.5"></circle>
                    <circle id="Oval" fill="#FFFFFF" cx="21.5" cy="16.5" r="1.5"></circle>
                    <circle id="Oval" fill="#FFFFFF" cx="28.5" cy="16.5" r="1.5"></circle>
                    <circle id="Oval" fill="#FFFFFF" cx="35.5" cy="16.5" r="1.5"></circle>
                    <circle id="Oval" fill="#FFFFFF" cx="42.5" cy="16.5" r="1.5"></circle>
                    <circle id="Oval" fill="#FFFFFF" cx="49.5" cy="16.5" r="1.5"></circle>
                    <circle id="Oval" fill="#FFFFFF" cx="7.5" cy="21.5" r="1.5"></circle>
                    <circle id="Oval" fill="#FFFFFF" cx="14.5" cy="21.5" r="1.5"></circle>
                    <circle id="Oval" fill="#FFFFFF" cx="21.5" cy="21.5" r="1.5"></circle>
                    <circle id="Oval" fill="#FFFFFF" cx="28.5" cy="21.5" r="1.5"></circle>
                    <circle id="Oval" fill="#FFFFFF" cx="35.5" cy="21.5" r="1.5"></circle>
                    <circle id="Oval" fill="#FFFFFF" cx="42.5" cy="21.5" r="1.5"></circle>
                    <circle id="Oval" fill="#FFFFFF" cx="49.5" cy="21.5" r="1.5"></circle>
                    <circle id="Oval" fill="#FFFFFF" cx="7.5" cy="26.5" r="1.5"></circle>
                    <circle id="Oval" fill="#FFFFFF" cx="14.5" cy="26.5" r="1.5"></circle>
                    <circle id="Oval" fill="#FFFFFF" cx="21.5" cy="26.5" r="1.5"></circle>
                    <circle id="Oval" fill="#FFFFFF" cx="28.5" cy="26.5" r="1.5"></circle>
                    <circle id="Oval" fill="#FFFFFF" cx="35.5" cy="26.5" r="1.5"></circle>
                    <circle id="Oval" fill="#FFFFFF" cx="42.5" cy="26.5" r="1.5"></circle>
                    <circle id="Oval" fill="#FFFFFF" cx="49.5" cy="26.5" r="1.5"></circle>
                    <circle id="Oval" fill="#FFFFFF" cx="7.5" cy="31.5" r="1.5"></circle>
                    <circle id="Oval" fill="#FFFFFF" cx="14.5" cy="31.5" r="1.5"></circle>
                    <circle id="Oval" fill="#FFFFFF" cx="21.5" cy="31.5" r="1.5"></circle>
                    <circle id="Oval" fill="#FFFFFF" cx="28.5" cy="31.5" r="1.5"></circle>
                    <circle id="Oval" fill="#FFFFFF" cx="35.5" cy="31.5" r="1.5"></circle>
                    <circle id="Oval" fill="#FFFFFF" cx="42.5" cy="31.5" r="1.5"></circle>
                </g>
            </g>
        </g>
    </g>
</svg>