<?xml version="1.0" encoding="UTF-8"?>
<svg width="479px" height="147px" viewBox="0 0 479 147" version="1.1" xmlns="http://www.w3.org/2000/svg" xmlns:xlink="http://www.w3.org/1999/xlink">
    <title>mainlogo</title>
    <g id="Page-1" stroke="none" stroke-width="1" fill="none" fill-rule="evenodd">
        <g id="mainlogo">
            <g id="Group-25" transform="translate(0.000000, 66.000000)" fill="#FFFFFF">
                <g id="Group-22" transform="translate(464.000000, 1.000000)" fill-rule="nonzero">
                    <polygon id="Path" points="2.5 8 2.5 1.19148936 1.73194792e-14 1.19148936 1.73194792e-14 4.4408921e-16 6.5 4.4408921e-16 6.5 1.19148936 3.66666667 1.19148936 3.66666667 8"></polygon>
                    <polygon id="Path" points="7.16666667 8 7.16666667 8.22037474e-16 9.16666667 8.22037474e-16 11.1666667 6.46808511 13.1666667 4.4408921e-16 15 4.4408921e-16 15 8 13.8333333 8 13.8333333 1.19148936 11.8333333 8 10.6666667 8 8.5 1.19148936 8.5 8"></polygon>
                </g>
                <path d="M261.396509,26.0952918 C260.806179,36.908687 257.548699,44.9947861 245.193442,49.4386558 C243.449182,50.0662204 241.569034,50.1534175 239.716255,50.1556451 C228.109812,50.1671017 216.503687,50.1623281 204.897243,50.1626464 L193.393551,50.1654707 C189.558987,50.1658287 185.724383,50.1640784 181.88962,50.1556451 C179.668003,50.1505533 177.446705,50.0382155 175.224452,50.0289866 C172.567628,50.0177063 170.269306,51.6749075 169.360799,54.1147837 L169.319235,54.2297228 C169.037276,55.0332727 168.966946,55.4517552 170.087461,55.4472998 C186.245338,55.3890624 202.403852,55.3480097 218.562047,55.3406903 C230.162444,55.3355985 241.762523,55.3865165 253.362601,55.4129302 C255.07822,55.4163672 256.795643,55.4759985 258.508143,55.4275717 L259.078785,55.4072019 C260.528326,55.3438664 261.013121,55.9415376 261.024079,57.2871815 L261.024171,57.3688184 C260.991287,62.7335087 261.000834,68.0984199 261.00493,73.4631838 L261.006395,77.0937115 L261.006395,77.0937115 L261.006668,78.7196969 C284.522517,66.2925188 307.385979,53.3424764 330.961656,41.034001 L324.337223,37.3561291 C319.341158,34.5837492 314.350617,31.8012035 309.34516,29.0456932 L306.339932,27.3959288 C305.751192,27.0737133 305.335459,26.7350209 305.326418,26.1648386 L305.3273,26.0952918 L416.147177,26.0952918 C416.169136,27.0471404 415.280935,27.2657697 414.510163,27.6664308 C411.091973,29.444106 407.731702,31.3318914 404.346291,33.1713047 L400.870231,35.0589161 C397.391109,36.9468159 393.899187,38.8381616 390.361976,40.7561795 C391.193531,41.6832056 392.364645,42.0705008 393.385233,42.648102 C407.053538,50.3863674 420.72948,58.1099938 434.423881,65.8027512 C441.259942,69.6432425 448.13833,73.4095844 454.992213,77.2195249 C455.679606,77.60141 456.348541,78.0237113 456.991381,78.4768816 C457.465555,78.8110311 457.591896,79.3240301 457.452826,79.8828553 C457.315666,80.4318151 456.892728,80.6221212 456.381638,80.6488532 C455.535126,80.69277 454.687978,80.7417786 453.841147,80.7420968 C439.373112,80.7478251 424.903167,80.6307136 410.437677,80.8194285 C406.205117,80.8741654 402.529154,79.8777635 398.899018,77.8423158 C390.204478,72.9672052 381.433665,68.2278058 372.686524,63.4464689 L370.063191,62.010632 C367.198098,60.4398112 364.329823,58.8747187 361.501009,57.2418416 C360.900176,56.8949627 360.481376,56.9162846 359.918095,57.2221109 C348.569106,63.382236 337.21598,69.5344052 325.856489,75.6747996 C322.984395,77.2271626 320.082386,78.7260616 317.202654,80.2650586 C316.21739,80.7920601 315.147476,80.7347773 314.102383,80.735732 C297.14382,80.7513257 280.182075,80.9511789 263.226694,80.7070907 C222.032927,80.1133654 180.838565,80.6026812 139.645334,80.4493985 L134.859244,80.4279251 C132.664502,80.4067243 132.663674,80.2420687 132.663674,77.7105655 C132.663356,69.9054702 132.833931,62.0959197 132.62294,54.2962345 C132.323796,43.2072455 140.703947,33.6308398 151.31558,31.0874849 C154.208041,30.3940452 157.219523,30.64959 160.171814,30.591989 C165.893334,30.4812423 171.620277,30.4531998 177.342632,30.550663 L178.773119,30.5776683 C191.682675,30.8448641 204.591946,30.6448263 217.50147,30.7011298 L219.779624,30.713874 C223.292649,30.7380601 224.622882,29.7165174 225.507265,26.206675 L225.523654,26.1502673 L225.523654,26.1502673 L225.540998,26.0952918 L261.396509,26.0952918 Z M127.013079,26.0953873 C127.303312,27.3941149 126.881011,28.6021448 126.879738,29.8528185 C126.87235,37.9836754 126.931367,46.1156299 126.800715,54.243586 L126.737823,57.6807068 C126.670112,60.9536235 126.498158,64.2268654 125.01582,67.3669844 C121.752294,74.2813326 116.389035,78.460747 109.075299,80.3351664 C108.474148,80.4895116 107.810941,80.4261823 107.176694,80.4265006 L83.6530877,80.4333029 C75.8119123,80.4344565 67.9707766,80.4333427 60.1297205,80.4265006 C44.2364804,80.4128618 28.3434741,80.3978202 12.4507017,80.3418958 L4.50433491,80.3103439 C3.03516389,80.3038239 1.42605163,80.5450786 0.0989938847,79.547371 L0,79.4701966 L0,55.7239438 L0.082423537,55.6195619 L0.203035585,55.6765264 C0.456989186,54.699537 1.23794424,54.7930988 1.98548435,54.7937353 C7.12470326,54.7972359 12.2639222,54.7950082 17.4031411,54.7950082 C35.2018515,54.7943718 53.0008802,54.7335884 70.7989541,54.8351062 C75.4359941,54.8618381 80.0765347,55.0187293 84.7167571,55.0117281 C87.5452528,55.0066362 89.5234177,53.5169661 90.1799418,51.2062429 C90.52888,49.9779207 90.076943,49.8464676 89.1557767,49.8376406 L88.9776402,49.8371848 C80.8718104,49.8639167 72.7656624,49.8715544 64.6595144,49.8467319 C55.3386535,49.8190452 46.0181109,49.7458506 36.69725,49.7060709 L33.4831746,49.6922474 C30.8047701,49.6820539 28.1263968,49.6784488 25.4484429,49.7059839 L23.8417241,49.7264381 C22.4538445,49.7476366 21.9106483,49.1928868 22.0000392,47.93176 L22.0064479,47.8520187 C22.4818949,42.5419062 22.1945263,37.2184277 22.3004994,31.9019504 C22.3304138,30.4033696 23.1225071,30.2194283 24.3458124,30.225793 C37.3222686,30.3002606 50.2987247,30.3549975 63.2754991,30.3935042 C70.8517815,30.4154626 78.428064,30.3973231 86.0043464,30.3966866 C89.0018177,30.3966866 90.5003667,29.225731 90.8840189,26.3449007 L90.9082286,26.1595121 L90.9082286,26.1595121 L90.9182531,26.0953873 L127.013079,26.0953873 Z M260.102874,25.7254997 L261.394918,25.7254997 L261.395236,25.7465034 L260.102874,25.7465034 L260.102874,25.7254997 Z M238.827099,0.350718363 C245.299415,0.338700272 250.246737,3.2458007 254.530215,7.66389322 C256.325393,9.51603602 257.93854,11.5263429 259.088969,13.8790734 C259.558687,14.8398327 259.870878,15.8330523 260.102874,16.8428202 C260.514722,18.634302 260.670594,20.4785246 260.980987,22.2905104 L261.062042,22.742786 C261.086228,22.8719905 261.09673,22.9875107 261.098123,23.0947568 C261.099912,23.2487929 261.079142,23.3809213 261.038899,23.4942883 L261.01717,23.5495183 L132.802426,23.5495183 C132.762646,23.4466215 132.733695,23.3258238 132.713179,23.1830736 L132.701863,23.0947568 L132.69382,23.0158046 C132.664075,22.6915846 132.662719,22.2732509 132.662719,21.7312678 C132.661765,16.7715349 132.643307,11.811802 132.676085,6.85238735 C132.686906,5.17463876 132.851434,3.49752663 132.903625,1.8194598 C132.934494,0.82974088 133.407395,0.374979358 134.381839,0.383253535 C135.017678,0.389300049 135.653835,0.380707634 136.289673,0.380707634 C170.468709,0.380389397 204.648063,0.413486106 238.827099,0.350718363 Z M315.492286,0.889134787 C317.713429,0.877514667 319.304837,2.01826514 321.008252,2.95514492 L321.13623,3.02500745 C332.249405,9.04447155 343.316117,15.1492233 354.39715,21.2266067 C354.766624,21.429324 355.118595,21.6673657 355.496343,21.8516253 C356.042558,22.1172609 356.3193,22.4816838 356.294638,23.0230399 L356.289709,23.0946613 L356.27959,23.1850998 C356.271128,23.2463192 356.259317,23.3094717 356.243406,23.3750287 C356.233222,23.4176725 356.221341,23.4572047 356.208517,23.4946624 L356.188669,23.5494229 L299.391532,23.5494229 C299.13185,23.4432588 298.874816,23.3244671 298.618963,23.1943512 L298.342343,23.0509037 L298.257811,23.0061913 C286.592812,16.5765189 274.92113,10.1579849 263.251994,3.73499553 L262.971109,3.58184368 L262.971109,3.58184368 L262.690941,3.42630506 L262.555433,3.34752037 C262.420729,3.26760793 262.2888,3.18371254 262.162062,3.09301483 C261.731168,2.78336965 261.640789,2.31715157 261.719711,1.82006445 C261.803421,1.29122995 262.189216,1.08090596 262.63496,1.00748869 L262.741541,0.991150988 C263.26536,0.93004937 263.798726,0.940869448 264.327637,0.940869448 C281.382308,0.938641785 298.437933,0.98033091 315.492286,0.889134787 Z M458.947811,0.706137398 L459.05145,0.704903639 C459.836397,0.686505351 460.78002,0.485341447 460.975939,1.65384895 C461.15988,2.74572214 460.252267,3.03468188 459.511728,3.43247887 C453.762766,6.51811059 448.018895,9.61074353 442.271524,12.6982847 L429.368781,19.6275665 L429.368781,19.6275665 L422.91886,23.0947886 L422.072316,23.5494229 L365.498264,23.5494229 C365.478851,23.4911854 365.461667,23.4297655 365.448937,23.359435 C365.437693,23.2972726 365.43055,23.2377975 365.426472,23.1800669 L365.422151,23.0946613 C365.408235,22.4570405 365.80635,22.0617894 366.408455,21.7416424 C368.687991,20.5307483 370.946523,19.2797564 373.214285,18.0459492 C380.79534,13.9222265 388.418404,9.87169836 395.937403,5.63754716 C398.591505,4.14310342 401.355717,2.84405756 403.928031,1.20799808 C404.686391,0.725868129 405.50999,0.695953795 406.361276,0.69659027 C415.099762,0.701045597 423.83793,0.699136171 432.576098,0.698817934 C441.366775,0.698181458 450.157452,0.69404437 458.947811,0.706137398 Z M126.481941,23.0916381 C126.393152,23.2769478 126.26544,23.4150852 126.085813,23.516722 L126.023997,23.5492637 L1.34900916,23.5492637 C1.1504289,23.4593086 0.989314246,23.3323907 0.870805884,23.1588993 L0.828372458,23.0916381 L126.481941,23.0916381 Z M104.61835,2.84217094e-14 C106.029415,0.667662473 107.575732,0.311236367 109.056491,0.5900125 C118.185773,2.30881375 125.953634,10.8996376 126.568788,20.1224813 L126.611919,20.7840439 C126.680667,21.8970388 126.692533,22.5992441 126.503721,23.0433476 L126.481909,23.0916381 L0.828340635,23.0916381 C0.685133717,22.8453222 0.61193907,22.5210381 0.614359699,22.1000097 C0.661265897,15.1920263 0.670494788,8.28372458 0.710910962,1.37574112 C0.713456863,0.967548366 0.836697318,0.560109953 0.923505898,0.152755355 L0.954044484,2.84217094e-14 L104.61835,2.84217094e-14 Z" id="Shape"></path>
            </g>
            <g id="SEGA_logo" fill-rule="nonzero">
                <path d="M68.1099223,41.8839522 C70.6480086,44.3487713 74.1090772,45.8726368 77.9263442,45.8726368 L138.239992,45.8795488 L125.214098,7.01936552 C123.434949,2.89105847 119.261023,-5.62499954e-07 114.24798,-5.62499954e-07 C109.256134,-5.62499954e-07 105.019079,2.98552247 103.306285,7.09677992 L98.9641669,19.755416 L98.9471173,0.653874608 L77.8844114,0.643276209 C74.077282,0.643276209 70.6549206,2.12889532 68.1343447,4.58634157 L68.1417175,0.660325808 L46.575818,0.660325808 C42.5590247,0.660325808 38.9058025,2.37311931 36.3506666,5.06511284 L36.3506666,0.643276209 L16.0247798,0.660786608 C7.25022677,0.653413808 0.0525311969,7.51242149 0.0419327975,16.580965 C0.0419327975,20.7793135 1.87683829,24.5869037 4.58265573,27.4079211 L0,27.4005483 L0,45.8726368 L20.4788724,45.8689504 C26.2328816,45.8620384 31.9348205,42.3903714 33.9167212,38.2307301 L33.9761644,38.0597733 C36.2658794,42.6843618 41.0443752,45.8726368 46.5748964,45.8726368 L68.1094615,45.8689504 L68.1094615,41.8839522" id="Path" fill="#FFFFFF"></path>
                <path d="M3.16385261,42.7120098 L20.4332532,42.6944994 C27.4986992,42.6944994 33.2245996,36.9861093 33.2245996,29.9524586 C33.2245996,22.9049838 27.4986992,17.1961329 20.4332532,17.1961329 L15.948287,17.2205553 C15.5948535,17.2205553 15.3082359,16.9307121 15.3082359,16.574053 C15.3082359,16.2173938 15.5948535,15.9270898 15.948287,15.9270898 L33.1863532,15.9307762 L33.1932652,10.5228277 L15.9446006,10.5228277 C12.6097912,10.5228277 9.89660101,13.2318708 9.89660101,16.560229 C9.89660101,19.8918128 12.6093304,22.5902574 15.9446006,22.5902574 L20.4507636,22.6497006 C24.4988913,22.6497006 27.7747183,25.9144684 27.7747183,29.942321 C27.7747183,33.9729383 24.4993521,37.2450789 20.4507636,37.2450789 L3.17076461,37.2450789 L3.16385261,42.7120098" id="Path" fill="#0060A8"></path>
                <path d="M3.17076461,35.975575 L20.4507636,35.975575 C23.7961714,35.975575 26.5019888,33.2771304 26.5019888,29.9418602 C26.5019888,26.6102764 23.7961714,23.9150573 20.4507636,23.9150573 L15.9446006,23.8662125 C11.9033849,23.8662125 8.62433229,20.5977583 8.62433229,16.5597682 C8.62433229,12.5328372 11.9033849,9.26392219 15.9446006,9.26392219 L33.1932652,9.26023579 L33.1863532,3.83155122 L15.948287,3.83155122 C8.89021387,3.83155122 3.15694061,9.53349017 3.15694061,16.574053 C3.15694061,23.6146157 8.89021387,29.3197802 15.948287,29.3197802 L20.4088308,29.3266922 C20.7479796,29.3266922 21.0345971,29.6031722 21.0345971,29.9524586 C21.0345971,30.2952937 20.7479796,30.5713129 20.4088308,30.5713129 L3.16385261,30.5851369 L3.17076461,35.975575" id="Path" fill="#0060A8"></path>
                <path d="M46.6136036,37.2796389 C43.6174822,37.2796389 41.1632615,34.8917735 41.1632615,31.8431208 L41.1632615,14.5916915 C41.1632615,11.6586996 43.6174822,9.24641179 46.6136036,9.24641179 L65.0469849,9.24963739 L65.0469849,3.83155122 L46.6136036,3.83155122 C40.6149096,3.83155122 35.7557739,8.67317662 35.7557739,14.6511347 L35.7557739,31.8435816 C35.7557739,37.8220005 40.6149096,42.6705378 46.6136036,42.6705378 L64.9700313,42.6779106 L64.9663449,37.2731877 L46.6136036,37.2796389" id="Path" fill="#0060A8"></path>
                <path d="M42.4848359,14.6511347 C42.4848359,12.365106 44.3238886,10.5122293 46.6136036,10.5122293 L65.0469849,10.5122293 L65.0469849,15.9376882 L49.1655139,15.9376882 C47.8932451,15.9376882 47.8757347,17.1998193 47.8757347,17.1998193 L61.1251164,17.1998193 L61.1251164,22.6008558 L42.4783847,22.6008558 L42.4848359,14.6511347" id="Path" fill="#0060A8"></path>
                <path d="M46.6136036,35.9654374 C44.3308006,35.9654374 42.4779239,34.1231591 42.4779239,31.8435816 L42.4779239,23.8869485 L61.1246556,23.8869485 L61.1246556,29.2990442 L47.8752739,29.2990442 C47.8927843,30.5713129 49.1650531,30.5777641 49.1650531,30.5777641 L64.9695705,30.5777641 L64.9658841,35.9580646 L46.6136036,35.9654374" id="Path" fill="#0060A8"></path>
                <path d="M77.9645906,37.2658149 C74.9790675,37.2658149 72.5391317,34.8327911 72.5391317,31.8431208 L72.5391317,14.6506739 C72.5391317,11.6582388 74.9615571,9.24595099 77.9503058,9.24595099 L95.8040007,9.24595099 L95.8040007,3.83155122 L77.9088338,3.83155122 C71.9129045,3.83155122 67.0537688,8.67317662 67.0537688,14.6511347 L67.0537688,31.8435816 C67.0537688,37.8220005 71.9548373,42.6705378 77.9503058,42.6705378 L95.8040007,42.6779106 L95.8040007,17.1998193 L80.460744,17.1998193 L80.460744,22.6008558 L90.3817674,22.6008558 L90.3817674,37.2658149 L77.9645906,37.2658149" id="Path" fill="#0060A8"></path>
                <path d="M73.8114004,31.8431208 C73.8114004,34.1337575 75.6642771,35.9967718 77.9503058,35.9967718 L89.1021259,35.9967718 L89.1021259,23.8800365 L80.4741072,23.8800365 L80.4741072,29.2990442 L83.6762062,29.2990442 L83.6863438,30.5713129 L80.4985296,30.5713129 C79.8027216,30.5713129 79.2331729,29.9948522 79.2331729,29.2990442 L79.2046033,17.1961329 C79.2046033,17.1961329 79.2009169,15.9376882 80.4842448,15.9063538 L95.8099911,15.9063538 L95.8030791,10.5085429 L77.9493842,10.5122293 C75.6633555,10.5122293 73.8104788,12.365106 73.8104788,14.6511347 L73.8104788,31.8431208" id="Path" fill="#0060A8"></path>
                <path d="M112.580345,10.4315893 C112.820883,9.74315416 113.474758,9.24687259 114.24752,9.24687259 C115.020742,9.24687259 115.681068,9.74315416 115.915155,10.4315893 L124.581881,36.0350182 L111.891449,36.0350182 L111.905273,30.0119018 L116.146015,30.0119018 L114.236921,24.3380717 L108.017965,42.6733026 L101.620679,42.6733026 L112.580345,10.4315893" id="Path" fill="#0060A8"></path>
                <path d="M126.329234,37.2658149 L111.912646,37.2658149 L111.912646,42.6733026 L133.852254,42.6733026 L122.441926,8.91417501 C121.44199,5.6212984 118.145887,3.19887286 114.243833,3.19887286 C110.335789,3.19887286 107.049824,5.6107 106.042515,8.90081181 L94.5275848,42.6737634 L100.271456,42.6737634 L111.451385,9.84453015 C111.905273,8.75750302 112.975712,7.99165346 114.234156,7.99165346 C115.485689,7.99165346 116.562118,8.75750302 117.020153,9.83761815 L126.329234,37.2658149" id="Path" fill="#0060A8"></path>
                <path d="M129.717035,8.12805025 C130.738168,8.12805025 131.699397,7.72945828 132.419627,7.01291432 C133.139397,6.28945836 133.541675,5.33514162 133.541675,4.31446959 C133.541675,3.30070965 133.139397,2.34961851 132.419627,1.62616255 C131.699397,0.913304993 130.738168,0.514713016 129.717035,0.514713016 C127.616248,0.514713016 125.899768,2.21736891 125.899768,4.31493039 C125.899768,5.33560242 126.29836,6.28991916 127.025042,7.01337512 C127.742047,7.72945828 128.699589,8.12805025 129.717035,8.12805025 M126.438444,4.31400879 C126.438444,3.44355764 126.773906,2.61872569 127.399212,1.99987133 C128.021752,1.38101696 128.846584,1.04555458 129.717035,1.04555458 C130.598085,1.04555458 131.422917,1.38147776 132.045458,1.99987133 C132.664312,2.61872569 133.007147,3.44355764 133.007147,4.31400879 C133.007147,6.12126637 131.531666,7.58937509 129.717035,7.58937509 C128.846124,7.58937509 128.021292,7.25022631 127.399212,6.63137194 C126.773445,6.01297838 126.438444,5.19137203 126.438444,4.31400879 Z" id="Shape" fill="#FFFFFF"></path>
                <path d="M128.738296,4.63564726 L128.738296,6.43230636 L128.185797,6.43230636 L128.185797,2.20953532 L129.755282,2.20953532 C130.346488,2.21644731 130.692549,2.21644731 131.021099,2.4643577 C131.339051,2.69890489 131.472223,3.05187767 131.472223,3.44355764 C131.472223,4.42966958 130.668587,4.55869358 130.464914,4.60062637 L131.653778,6.43230636 L130.986079,6.43230636 L129.82901,4.63564726 L128.738296,4.63564726 M128.738296,4.1707 L129.860344,4.1707 C130.039135,4.1707 130.206866,4.1707 130.374597,4.1287672 C130.766277,4.03430321 130.905899,3.75459762 130.905899,3.44724404 C130.905899,3.33526965 130.895301,3.05233847 130.653842,2.85649848 C130.433119,2.67125689 130.153874,2.67816889 129.82901,2.67816889 L128.738296,2.67816889 L128.738296,4.1707 L128.738296,4.1707 Z" id="Shape" fill="#FFFFFF"></path>
            </g>
        </g>
    </g>
</svg>