<svg width="329" height="133" viewBox="0 0 329 133" fill="none" xmlns="http://www.w3.org/2000/svg">
<path d="M20.3787 0.0456543C10.5232 0.0456543 2.56428 8.03844 2.56428 17.8601C2.56428 27.7156 10.5571 35.6745 20.3787 35.6745C22.2753 35.6745 24.1042 35.3697 25.7975 34.8278V25.9206C24.3074 26.7673 22.5801 27.2753 20.7512 27.2753C15.3324 27.2753 10.9635 23.0418 10.9635 17.8601C10.9635 12.6783 15.3663 8.44486 20.7512 8.44486C22.614 8.44486 24.3412 8.95287 25.7975 9.79957V0.892347C24.1042 0.350464 22.2753 0.0456543 20.3787 0.0456543Z" fill="white"/>
<path d="M33.2822 17.2844H25.9668V11.0866H39.2429L33.2822 17.2844Z" fill="white"/>
<path d="M33.2822 18.5375H25.9668V24.7353H39.2429L33.2822 18.5375Z" fill="white"/>
<path fill-rule="evenodd" clip-rule="evenodd" d="M32.9183 6.74954C32.5374 7.12811 32.0307 7.33817 31.4917 7.33817C30.9551 7.33817 30.4507 7.12811 30.0686 6.74954C29.6843 6.36751 29.4766 5.86082 29.4766 5.32298C29.4766 4.21151 30.3849 3.3078 31.4917 3.3078C32.0307 3.3078 32.5374 3.5167 32.9183 3.89643C33.298 4.2773 33.5081 4.78399 33.5081 5.32298C33.5081 5.86082 33.298 6.36751 32.9183 6.74954ZM30.3068 4.13749C29.9917 4.45374 29.8151 4.87501 29.8151 5.32283C29.8151 5.7718 29.9917 6.19192 30.3068 6.50932C30.6253 6.82441 31.0443 7.001 31.4921 7.001C32.4189 7.001 33.1703 6.24732 33.1703 5.32283C33.1703 4.87501 32.9937 4.45374 32.6786 4.13749C32.3623 3.82126 31.9399 3.64467 31.4921 3.64467C31.0443 3.64467 30.6253 3.82126 30.3068 4.13749Z" fill="white"/>
<path fill-rule="evenodd" clip-rule="evenodd" d="M32.4211 6.16093C32.4338 6.21287 32.4569 6.24749 32.4869 6.25904L32.5156 6.27283V6.40441H32.0827L32.0666 6.37672C32.0571 6.35948 32.0516 6.33968 32.045 6.31634C32.0428 6.30841 32.0404 6.30008 32.0378 6.29131C32.0308 6.25899 32.0262 6.20359 32.0216 6.11587L32.0044 5.75692C31.9997 5.63574 31.957 5.5561 31.8774 5.51686C31.8301 5.49609 31.747 5.48454 31.6362 5.48454H31.0233V6.40442H30.6355V4.16071H31.6777C31.8485 4.16071 31.9882 4.18379 32.1036 4.23577C32.3218 4.33388 32.4337 4.52085 32.4337 4.78631C32.4337 4.92481 32.4038 5.03908 32.3472 5.1291C32.3045 5.19604 32.2445 5.24914 32.1775 5.29299C32.2318 5.32531 32.2791 5.35994 32.3103 5.4038C32.3587 5.46843 32.3876 5.56538 32.3923 5.70157L32.4015 5.99127C32.4038 6.06744 32.4119 6.124 32.4211 6.16093ZM31.9428 5.06897C32.0052 5.0228 32.0375 4.9397 32.0375 4.81389V4.81384C32.0375 4.68227 31.9936 4.59225 31.9013 4.54608C31.8482 4.52068 31.7743 4.50804 31.6855 4.50804H31.023V5.14283H31.6474C31.772 5.14283 31.8713 5.11633 31.9428 5.06897Z" fill="white"/>
<path d="M68.4535 27.031C70.615 27.031 72.3443 26.4258 73.7277 25.3018C75.1111 24.1345 75.8027 22.535 75.846 20.4167C75.8027 18.2983 75.1111 16.6556 73.7277 15.4883C72.3443 14.3211 70.615 13.7591 68.4535 13.7591C66.2919 13.7591 64.5627 14.3643 63.1793 15.4883C61.7959 16.6123 61.1042 18.2983 61.061 20.4167C61.1042 22.535 61.7959 24.1777 63.1793 25.3018C64.5627 26.4258 66.2919 27.031 68.4535 27.031ZM68.4535 23.9616C67.4592 23.9184 66.7243 23.5725 66.2487 22.8808C65.7732 22.1891 65.557 21.3677 65.6003 20.3734C65.6003 19.3791 65.8164 18.5577 66.2487 17.866C66.681 17.1743 67.4159 16.8285 68.4535 16.7853C69.4478 16.8285 70.1827 17.1743 70.6583 17.866C71.1338 18.5577 71.35 19.3791 71.3067 20.3734C71.3067 21.3245 71.0906 22.1891 70.6583 22.8808C70.1827 23.5725 69.4478 23.9184 68.4535 23.9616Z" fill="white"/>
<path d="M77.6184 26.7284H82.028V21.3677C82.028 20.0276 82.2441 18.99 82.6765 18.3416C83.1088 17.6931 83.714 17.3905 84.4922 17.3905C85.0974 17.3905 85.5729 17.6499 85.8323 18.1254C86.0917 18.601 86.2646 19.2062 86.2646 19.9411V26.7716H90.6742V21.411C90.6742 20.0708 90.8903 19.0333 91.3226 18.3848C91.7549 17.7363 92.3602 17.4337 93.1383 17.4337C93.7436 17.4337 94.2191 17.6931 94.4785 18.1687C94.7379 18.6442 94.9108 19.2494 94.9108 19.9843V26.8148H99.3204V19.3359C99.3636 17.6066 99.061 16.2665 98.4557 15.2722C97.8505 14.3211 96.64 13.8023 94.8243 13.8023C93.9165 13.8023 93.0519 13.9752 92.2737 14.3643C91.4956 14.7534 90.8471 15.3586 90.3283 16.2233C89.9825 15.4019 89.4637 14.7966 88.772 14.3643C88.0803 13.9752 87.2589 13.7591 86.3511 13.7591C85.3568 13.7591 84.4057 13.9752 83.6275 14.4076C82.8061 14.8399 82.2009 15.4883 81.7254 16.3962H81.6821V14.0617H77.6617L77.6184 26.7284Z" fill="white"/>
<path d="M101.698 26.7284H106.107V21.3677C106.107 20.0276 106.324 18.99 106.756 18.3416C107.188 17.6931 107.793 17.3905 108.572 17.3905C109.177 17.3905 109.652 17.6499 109.912 18.1254C110.171 18.601 110.344 19.2062 110.344 19.9411V26.7716H114.754V21.411C114.754 20.0708 114.97 19.0333 115.402 18.3848C115.834 17.7363 116.44 17.4337 117.218 17.4337C117.823 17.4337 118.299 17.6931 118.558 18.1687C118.817 18.6442 118.99 19.2494 118.99 19.9843V26.8148H123.4V19.3359C123.443 17.6066 123.14 16.2665 122.535 15.2722C121.93 14.3211 120.72 13.8023 118.904 13.8023C117.996 13.8023 117.131 13.9752 116.353 14.3643C115.575 14.7534 114.927 15.3586 114.408 16.2233C114.062 15.4019 113.543 14.7966 112.852 14.3643C112.16 13.9752 111.338 13.7591 110.431 13.7591C109.436 13.7591 108.485 13.9752 107.707 14.4076C106.886 14.8399 106.28 15.4883 105.805 16.3962H105.762V14.0617H101.741L101.698 26.7284Z" fill="white"/>
<path d="M132.522 27.031C134.683 27.031 136.413 26.4258 137.796 25.3018C139.179 24.1345 139.871 22.535 139.914 20.4167C139.871 18.2983 139.179 16.6556 137.796 15.4883C136.413 14.3211 134.683 13.7591 132.522 13.7591C130.36 13.7591 128.631 14.3643 127.248 15.4883C125.864 16.6123 125.173 18.2983 125.129 20.4167C125.173 22.535 125.864 24.1777 127.248 25.3018C128.631 26.4258 130.403 27.031 132.522 27.031ZM132.522 23.9616C131.527 23.9184 130.793 23.5725 130.317 22.8808C129.841 22.1891 129.625 21.3677 129.669 20.3734C129.669 19.3791 129.885 18.5577 130.317 17.866C130.749 17.1743 131.484 16.8285 132.522 16.7853C133.516 16.8285 134.251 17.1743 134.727 17.866C135.202 18.5577 135.418 19.3791 135.375 20.3734C135.375 21.3245 135.159 22.1891 134.727 22.8808C134.251 23.5725 133.559 23.9184 132.522 23.9616Z" fill="white"/>
<path d="M155.391 8.44183H150.981V15.6614H150.938C150.376 14.9265 149.728 14.4509 148.993 14.1483C148.258 13.8457 147.436 13.716 146.572 13.716C144.799 13.8025 143.459 14.4509 142.551 15.7479C141.643 17.0448 141.168 18.5146 141.168 20.1142C141.168 22.0596 141.687 23.6591 142.638 24.956C143.632 26.253 145.059 26.9447 146.961 26.9879C147.998 26.9879 148.906 26.7285 149.684 26.253C150.463 25.7774 151.025 25.1722 151.327 24.4373H151.37V26.7285H155.434L155.391 8.44183ZM145.621 20.2439C145.621 19.3792 145.837 18.6443 146.312 18.0391C146.788 17.4339 147.436 17.1312 148.301 17.088C149.122 17.088 149.771 17.4339 150.246 18.0391C150.722 18.6443 150.981 19.4225 150.981 20.4168C150.981 21.3679 150.679 22.146 150.203 22.7513C149.728 23.3565 149.079 23.6591 148.301 23.6591C147.48 23.6591 146.831 23.3133 146.356 22.708C145.88 22.1028 145.621 21.2814 145.621 20.2439Z" fill="white"/>
<path d="M164.426 27.031C166.588 27.031 168.317 26.4258 169.7 25.3018C171.084 24.1345 171.776 22.535 171.819 20.4167C171.776 18.2983 171.084 16.6556 169.7 15.4883C168.317 14.3211 166.588 13.7591 164.426 13.7591C162.265 13.7591 160.536 14.3643 159.152 15.4883C157.769 16.6556 157.077 18.2983 157.034 20.4167C157.077 22.535 157.769 24.1777 159.152 25.3018C160.536 26.4258 162.308 27.031 164.426 27.031ZM164.426 23.9616C163.432 23.9184 162.697 23.5725 162.222 22.8808C161.789 22.1891 161.53 21.3677 161.573 20.3734C161.573 19.3791 161.789 18.5577 162.222 17.866C162.654 17.1743 163.389 16.8285 164.426 16.7853C165.421 16.8285 166.156 17.1743 166.631 17.866C167.063 18.5577 167.323 19.3791 167.28 20.3734C167.28 21.3245 167.063 22.1891 166.631 22.8808C166.199 23.5725 165.464 23.9184 164.426 23.9616Z" fill="white"/>
<path d="M182.929 13.8888C182.713 13.8456 182.453 13.8023 182.194 13.8023C181.935 13.7591 181.675 13.7591 181.416 13.7591C180.465 13.7591 179.687 14.0185 179.125 14.494C178.519 14.9696 178.044 15.618 177.655 16.3962H177.611V14.0617H173.591V26.7716H178.001V21.411C178.001 20.1573 178.26 19.163 178.822 18.4713C179.384 17.7796 180.162 17.4337 181.2 17.4337C181.459 17.4337 181.718 17.4337 181.935 17.4337C182.194 17.4337 182.41 17.477 182.669 17.5634L182.929 13.8888Z" fill="white"/>
<path d="M196.72 21.6705V20.8491C196.763 18.9037 196.244 17.2177 195.293 15.8775C194.299 14.4942 192.656 13.8025 190.322 13.716C188.29 13.716 186.69 14.3212 185.436 15.4452C184.183 16.6125 183.534 18.212 183.534 20.3303C183.578 22.4487 184.269 24.0914 185.653 25.2154C187.036 26.3827 188.765 26.9447 190.927 26.9879C191.748 26.9879 192.57 26.9447 193.348 26.815C194.126 26.6853 194.904 26.4691 195.596 26.2097V23.0971C194.947 23.443 194.256 23.7024 193.607 23.832C192.959 24.005 192.31 24.0482 191.705 24.0482C190.624 24.0482 189.76 23.8753 189.111 23.4862C188.463 23.0971 188.074 22.4919 187.944 21.6273L196.72 21.6705ZM187.857 19.1631C187.901 18.4282 188.117 17.7797 188.506 17.3042C188.895 16.7854 189.5 16.526 190.278 16.526C191.143 16.526 191.791 16.7854 192.137 17.3042C192.526 17.8229 192.699 18.4282 192.699 19.1631H187.857Z" fill="white"/>
<path d="M51.6797 26.858C49.7776 26.3392 48.3077 25.4746 47.0973 24.1344C45.8868 22.7942 45.3248 21.5838 44.9789 19.4222C44.3305 15.1856 46.1462 11.2948 49.6479 9.60882C51.4204 8.7442 53.7981 8.31189 56.1758 8.31189C57.6456 8.31189 58.9425 8.57128 60.153 8.78743L59.7639 12.5918C59.7639 12.5918 59.4613 12.5053 58.5967 12.2891C57.7753 12.073 56.9539 11.9865 56.1325 11.9865C54.4897 11.9865 52.8902 12.4188 51.8527 13.2402C49.3885 15.1424 49.3885 20.1139 51.9391 22.189C53.4954 23.4859 56.3054 23.9183 58.8128 23.2698L59.9801 22.9672L60.3259 26.8147C59.591 26.9876 58.0347 27.2903 56.1325 27.2903C53.6251 27.2903 52.847 27.2038 51.6797 26.858Z" fill="white"/>
<path fill-rule="evenodd" clip-rule="evenodd" d="M200.07 15.9779C199.808 16.2386 199.459 16.3832 199.088 16.3832C198.718 16.3832 198.371 16.2386 198.108 15.9779C197.843 15.7148 197.7 15.366 197.7 14.9956C197.7 14.2303 198.325 13.608 199.088 13.608C199.459 13.608 199.808 13.7519 200.07 14.0133C200.331 14.2756 200.476 14.6245 200.476 14.9956C200.476 15.366 200.331 15.7148 200.07 15.9779ZM198.272 14.1792C198.055 14.397 197.933 14.6871 197.933 14.9954C197.933 15.3046 198.055 15.5939 198.272 15.8124C198.491 16.0294 198.779 16.151 199.088 16.151C199.726 16.151 200.243 15.632 200.243 14.9954C200.243 14.6871 200.122 14.397 199.905 14.1792C199.687 13.9615 199.396 13.8399 199.088 13.8399C198.779 13.8399 198.491 13.9615 198.272 14.1792Z" fill="white"/>
<path fill-rule="evenodd" clip-rule="evenodd" d="M199.728 15.5728C199.736 15.6086 199.752 15.6324 199.773 15.6404L199.773 15.6404L199.793 15.6499V15.7405H199.495L199.484 15.7214C199.477 15.7096 199.473 15.6959 199.469 15.6799C199.467 15.6744 199.466 15.6687 199.464 15.6626C199.459 15.6404 199.456 15.6022 199.453 15.5418L199.441 15.2947C199.438 15.2112 199.408 15.1564 199.353 15.1294C199.321 15.1151 199.263 15.1071 199.187 15.1071H198.765V15.7405H198.498V14.1956H199.216C199.333 14.1956 199.43 14.2115 199.509 14.2472C199.659 14.3148 199.736 14.4435 199.736 14.6263C199.736 14.7217 199.716 14.8004 199.677 14.8624C199.647 14.9085 199.606 14.945 199.56 14.9752C199.597 14.9975 199.63 15.0213 199.651 15.0515C199.685 15.096 199.705 15.1628 199.708 15.2565L199.714 15.456C199.716 15.5085 199.721 15.5474 199.728 15.5728ZM199.399 14.8212C199.442 14.7894 199.464 14.7322 199.464 14.6455V14.6455C199.464 14.5549 199.434 14.4929 199.37 14.4611C199.334 14.4436 199.283 14.4349 199.222 14.4349H198.765V14.8721H199.195C199.281 14.8721 199.35 14.8538 199.399 14.8212Z" fill="white"/>
<path d="M0.942001 50.9615H56.5071C71.0974 50.9615 73.5288 51.0831 77.6626 51.5695C93.7122 53.7584 98.2108 60.202 98.2108 81.3582C98.2108 98.9879 95.1707 106.04 85.8093 109.688C80.3379 111.755 74.7448 112.241 56.7503 112.241H25.624V132.06H0.942001V50.9615ZM56.5071 91.9363C67.6925 91.8147 68.1796 91.8147 70.2462 90.721C72.6776 89.3833 73.5288 87.0736 73.5288 81.3589C73.5288 75.6442 72.5559 73.3345 69.5166 72.1184C67.8141 71.3888 67.5709 71.3888 56.5071 71.2672H25.624V91.937H56.5071V91.9363Z" fill="white"/>
<path d="M192.849 50.5377V69.6266H127.435V81.4208H189.566V99.2937H127.435V112.182H193.335V131.636H103.117V50.5377H192.849Z" fill="white"/>
<path d="M297.7 50.9615V71.6313H261.588V132.06H235.69V71.6306H199.58V50.9615H297.7Z" fill="white"/>
<path d="M306.746 63.6623V53.1101H302.541V50.9615H313.802V53.1101H309.607V63.6623H306.746Z" fill="white"/>
<path d="M315.313 63.6623V50.9615H319.595L322.166 59.6249L324.708 50.9615H329V63.6623H326.342V53.6641L323.529 63.6623H320.774L317.971 53.6641V63.6623H315.313Z" fill="white"/>
</svg>
