<svg width="350" height="108" viewBox="0 0 350 108" fill="none" xmlns="http://www.w3.org/2000/svg">
<path d="M0.5 0.5H266.165V107.498H0.5V0.5Z" stroke="white"/>
<path d="M245.568 15.203L220.217 52.231L247.791 92.6845H222.328L207.176 71.0273L191.901 92.7357H166.604C167.291 91.3102 194.294 52.229 194.294 52.229L182.784 36.2161L133.96 36.2713C131.684 36.4513 128.89 35.7601 127.749 38.3287C127.35 39.1794 127.179 40.433 127.637 41.292C128.031 42.2593 128.948 43.1693 129.97 43.4536L131.508 43.5702H151.051C160.106 43.7972 168.485 49.4334 172.412 57.5809C175.89 64.4196 175.377 73.7615 171.501 80.2607C166.606 88.5167 157.885 93.1344 148.431 92.795H94.0772C94.0772 92.795 85.7579 62.7652 85.7006 62.7141L77.324 92.795L57.5012 92.799L49.5254 62.5995L40.8052 92.7357H18.8739C18.8739 92.7357 39.0404 20.1562 40.3512 15.3666H58.8734L67.5895 47.7278L76.4774 15.3666L94.6519 15.3625L110.205 71.7185H146.439C148.94 71.5978 152.419 72.2809 153.446 69.2092C153.844 67.8349 153.505 66.4136 152.536 65.4463C151.621 64.6466 150.482 64.4237 149.288 64.4237L129.803 64.4196C120.571 64.1354 111.401 58.0963 107.982 49.2125C104.278 40.3206 106.444 29.6658 113.223 22.7821C118.009 17.9843 123.704 15.5916 130.375 15.3094L194.296 15.2542L207.176 33.8234L220.501 15.1969L245.568 15.203Z" fill="white"/>
</svg>
