<svg width="331" height="30" viewBox="0 0 331 30" fill="none" xmlns="http://www.w3.org/2000/svg">
<path d="M233.708 0.317581H247.829V29.6105H238.902V7.95764H236.585L227.937 15.2539L223 9.50284L233.708 0.317581V0.317581Z" fill="white"/>
<path d="M264.632 11.2662H255.983C255.983 8.9054 256.077 7.11033 256.263 5.87896C256.607 3.70409 257.592 2.21686 259.223 1.41527C260.311 0.887541 261.836 0.517732 263.795 0.30984C265.756 0.103946 268.716 0 272.68 0C278.645 0 282.465 0.0679644 284.138 0.203894C285.814 0.339824 287.129 0.693642 288.088 1.26535C289.146 1.89502 289.879 2.78856 290.287 3.94796C290.695 5.10736 290.899 6.88045 290.899 9.27122C290.899 10.9863 290.803 12.3436 290.609 13.3371C290.417 14.3306 290.083 15.1722 289.612 15.8578C288.982 16.7893 288.144 17.439 287.101 17.8108C285.326 18.4405 283.173 18.8343 280.642 18.9922C274.517 19.35 270.561 19.6099 268.774 19.7758C266.985 19.9397 265.898 20.1516 265.512 20.4075C265.154 20.6513 264.924 20.9132 264.824 21.1911C264.724 21.4709 264.652 22.0466 264.611 22.9182H291.371V29.6567H256.413C256.355 28.4993 256.327 27.3819 256.327 26.3104C256.327 22.9482 256.435 20.5434 256.649 19.1001C257.078 16.3516 258.66 14.6364 261.392 13.9488C262.45 13.6909 263.419 13.513 264.299 13.4131C265.178 13.3111 267.743 13.0972 271.993 12.7694C276.113 12.4536 278.559 12.2537 279.333 12.1677C280.105 12.0818 280.748 11.9538 281.264 11.7819C281.78 11.61 282.121 11.3621 282.293 11.0403C282.465 10.7185 282.551 10.1648 282.551 9.37716C282.551 8.53359 282.455 7.92591 282.261 7.5541C282.068 7.18229 281.722 6.91643 281.22 6.76051C280.59 6.54462 278.351 6.43868 274.503 6.43868C271.213 6.43868 268.916 6.49065 267.615 6.59859C266.314 6.70654 265.504 6.90244 265.19 7.18829C264.946 7.43216 264.792 7.76799 264.728 8.19777C264.664 8.62755 264.632 9.64902 264.632 11.2662V11.2662Z" fill="white"/>
<path d="M301.89 14.6779C300.387 14.578 299.279 14.2981 298.564 13.8404C297.204 12.9388 296.525 11.0518 296.525 8.17528C296.525 5.68656 296.983 3.8695 297.898 2.72409C298.47 2.02445 299.229 1.49472 300.173 1.13691C301.116 0.779094 302.476 0.521226 304.251 0.363308C306.668 0.135426 309.716 0.0214844 313.392 0.0214844C320.375 0.0214844 324.802 0.407285 326.675 1.17889C328.051 1.7366 329.008 2.61814 329.552 3.81952C330.024 4.90696 330.259 6.35821 330.259 8.17528C330.259 10.4941 329.874 12.1212 329.102 13.0568C328.328 13.9943 326.927 14.534 324.894 14.6779C326.611 14.9778 327.779 15.3356 328.392 15.7514C329.194 16.2811 329.764 17.0247 330.1 17.9822C330.435 18.9417 330.603 20.279 330.603 21.9961C330.603 24.4129 330.195 26.166 329.38 27.2534C328.794 28.027 327.965 28.6087 326.891 29.0025C325.818 29.3963 324.309 29.6722 322.364 29.8281C320.932 29.944 317.942 30 313.392 30C308.786 30 305.666 29.94 304.035 29.8181C302.404 29.6962 301.025 29.4203 299.893 28.9925C298.55 28.4768 297.594 27.6892 297.029 26.6318C296.463 25.5723 296.181 24.0271 296.181 21.9961C296.181 20.1651 296.379 18.7558 296.771 17.7683C297.164 16.7808 297.826 16.0372 298.756 15.5355C299.343 15.2216 300.387 14.9358 301.89 14.6779V14.6779ZM312.491 6.5881C309.158 6.5881 307.079 6.73002 306.258 7.01587C305.434 7.30373 305.022 8.01736 305.022 9.16277C305.022 10.3641 305.402 11.0838 306.16 11.3197C306.919 11.5555 309.222 11.6735 313.07 11.6735C316.475 11.6735 318.521 11.6555 319.207 11.6195C319.895 11.5835 320.46 11.4656 320.904 11.2657C321.476 11.0078 321.762 10.3002 321.762 9.14078C321.762 8.45513 321.634 7.9354 321.376 7.58558C321.118 7.23576 320.702 7.00988 320.131 6.90993C319.071 6.70803 316.527 6.60209 312.491 6.5881V6.5881ZM313.392 17.9622C309.028 17.9622 306.512 18.0762 305.838 18.304C305.408 18.448 305.108 18.7018 304.936 19.0657C304.765 19.4315 304.679 19.9932 304.679 20.7508C304.679 21.5524 304.781 22.1181 304.98 22.4459C305.18 22.7757 305.574 23.0116 306.16 23.1555C306.817 23.3255 308.942 23.4114 312.535 23.4114C316.441 23.4114 319.029 23.3255 320.303 23.1555C320.99 23.0536 321.462 22.8217 321.72 22.4579C321.976 22.0921 322.106 21.4584 322.106 20.5589C322.106 19.8293 322.012 19.2995 321.826 18.9697C321.64 18.6419 321.296 18.412 320.796 18.2841C320.325 18.1401 317.856 18.0322 313.392 17.9622V17.9622Z" fill="white"/>
<path d="M187.252 9.668H183.291V21.032H187.424V15.092C187.424 13.543 188.372 12.767 190.095 12.767C191.816 12.767 192.248 13.284 192.333 14.746H196.209C196.209 10.872 195.692 9.40802 191.559 9.40802C189.061 9.40802 188.2 9.925 187.253 11.819L187.252 9.668ZM24.733 16.495H18.082V21.95H30.037L24.733 16.495ZM30.036 9.92102H18.081V15.375H24.657L30.036 9.92102ZM206.281 18.795C202.322 18.795 201.718 18.45 201.718 16.469H212.57C212.398 10.961 212.398 9.668 205.078 9.668C198.876 9.668 197.498 10.787 197.498 15.695C197.498 20.259 199.308 21.378 204.303 21.465C209.901 21.465 212.571 21.206 212.571 17.504H208.522C208.349 18.364 208.006 18.795 206.281 18.795ZM201.633 14.06C201.805 12.854 202.149 12.423 204.904 12.423C207.92 12.423 208.349 12.596 208.521 14.06H201.633ZM47.66 14.49H51.793C51.449 10.614 50.329 9.668 44.561 9.668C38.016 9.668 36.552 10.699 36.552 15.523C36.552 20.345 37.93 21.464 44.044 21.464C50.502 21.464 51.794 20.603 51.794 16.555H47.661C47.661 17.675 47.231 18.193 44.044 18.193C41.288 18.193 40.686 17.505 40.686 15.265C40.686 13.112 41.288 13.112 44.562 13.112C46.971 13.112 47.401 13.371 47.66 14.49ZM143.677 15.177C143.677 10.528 142.3 9.582 135.668 9.582C128.521 9.582 127.661 10.787 127.661 15.608C127.661 20.431 128.865 21.464 135.668 21.464C142.903 21.465 143.677 20.26 143.677 15.177ZM131.88 15.438C131.88 13.112 132.397 12.855 135.411 12.855C138.769 12.855 139.371 12.94 139.371 15.438C139.371 17.763 138.94 18.194 135.754 18.194C132.31 18.194 131.88 17.848 131.88 15.438ZM180.791 15.177C180.791 10.528 179.499 9.582 172.871 9.582C165.809 9.582 164.948 10.699 164.948 15.523C164.948 20.431 166.153 21.464 172.871 21.464C180.102 21.465 180.791 20.26 180.791 15.177ZM169.081 15.438C169.081 13.112 169.597 12.855 172.611 12.855C175.97 12.855 176.572 12.94 176.572 15.438C176.572 17.763 176.142 18.194 172.956 18.194C169.513 18.194 169.081 17.848 169.081 15.438ZM70.136 15.177C70.136 10.528 68.844 9.582 62.214 9.582C55.067 9.582 54.205 10.699 54.205 15.523C54.205 20.431 55.412 21.464 62.214 21.464C69.448 21.465 70.136 20.26 70.136 15.177ZM58.509 15.438C58.509 13.112 59.026 12.855 61.955 12.855C65.313 12.855 65.916 12.94 65.916 15.438C65.916 17.763 65.484 18.194 62.299 18.194C58.939 18.194 58.509 17.848 58.509 15.438ZM158.058 4.84402V11.475C157.111 10.183 156.25 9.496 152.806 9.496C147.295 9.496 146.261 10.96 146.261 15.437C146.261 20.002 147.726 21.291 153.064 21.291C156.423 21.291 157.456 20.431 158.231 18.967V21.03H162.365V4.84201L158.058 4.84402ZM155.044 12.768C157.368 12.768 158.145 13.112 158.145 14.919C158.145 17.676 157.971 17.937 154.701 17.937C151.428 17.937 150.567 17.848 150.567 15.524C150.567 12.854 151.6 12.768 155.044 12.768ZM17.708 9.54703V2.52402C16.289 2.15002 15.316 2 13.898 2C6.5 2 0 8.20301 0 15.898C0 23.819 6.574 29.722 13.972 29.722C15.317 29.722 16.064 29.572 17.708 29.122V21.95C16.063 22.77 15.243 22.995 13.898 22.995C9.788 22.995 6.648 19.559 6.648 15.748C6.648 11.789 9.712 8.42502 13.822 8.42502C15.243 8.42502 16.438 8.80003 17.708 9.54703ZM76.68 9.668H72.806V21.032H76.939V15.177C76.939 13.456 77.8 12.854 80.126 12.854C82.279 12.854 82.882 13.628 82.882 15.781V21.032H87.101V15.006C87.101 13.37 88.392 12.854 90.372 12.854C92.267 12.854 93.128 13.371 93.128 15.006V21.032H97.261V14.316C97.261 10.96 95.194 9.40802 91.406 9.40802C88.133 9.40802 86.927 10.614 86.496 11.905C85.635 10.441 84.43 9.40802 81.157 9.40802C78.057 9.40802 77.196 10.441 76.679 12.336L76.68 9.668ZM104.495 9.668H100.62V21.032H104.753V15.177C104.753 13.456 105.786 12.854 107.852 12.854C110.006 12.854 110.608 13.543 110.608 15.781V21.032H114.829V15.006C114.829 13.37 116.035 12.854 118.016 12.854C119.91 12.854 120.856 13.456 120.856 15.006V21.032H124.99V14.316C124.99 10.96 122.924 9.40802 119.135 9.40802C115.863 9.40802 114.742 10.527 114.227 11.905C113.365 10.441 112.159 9.40802 108.887 9.40802C105.874 9.40802 105.099 10.441 104.496 12.336L104.495 9.668Z" fill="white"/>
</svg>
