<?xml version="1.0" encoding="UTF-8" standalone="no"?>
<!-- Created with Inkscape (http://www.inkscape.org/) -->

<svg
   xmlns:dc="http://purl.org/dc/elements/1.1/"
   xmlns:cc="http://creativecommons.org/ns#"
   xmlns:rdf="http://www.w3.org/1999/02/22-rdf-syntax-ns#"
   xmlns:svg="http://www.w3.org/2000/svg"
   xmlns="http://www.w3.org/2000/svg"
   xmlns:sodipodi="http://sodipodi.sourceforge.net/DTD/sodipodi-0.dtd"
   xmlns:inkscape="http://www.inkscape.org/namespaces/inkscape"
   width="500"
   height="200"
   viewBox="0 0 132.29166 52.916668"
   version="1.1"
   id="svg8"
   inkscape:version="0.92.5 (2060ec1f9f, 2020-04-08)"
   sodipodi:docname="1990s.svg">
  <defs
     id="defs2">
    <filter
       inkscape:label="Relief Print"
       inkscape:menu="Bumps"
       inkscape:menu-tooltip="Bumps effect with a bevel, color flood and complex lighting"
       style="color-interpolation-filters:sRGB;"
       id="filter1045">
      <feGaussianBlur
         stdDeviation="5"
         result="result8"
         id="feGaussianBlur1011" />
      <feComposite
         result="result6"
         in="SourceGraphic"
         operator="in"
         in2="result8"
         id="feComposite1013" />
      <feComposite
         operator="in"
         result="result11"
         in2="result6"
         id="feComposite1015" />
      <feFlood
         result="result10"
         flood-opacity="1"
         flood-color="rgb(255,255,255)"
         id="feFlood1017" />
      <feBlend
         mode="multiply"
         in="result10"
         in2="result11"
         result="result12"
         id="feBlend1019" />
      <feComposite
         result="fbSourceGraphic"
         operator="in"
         in2="SourceGraphic"
         in="result12"
         id="feComposite1021" />
      <feFlood
         result="result6"
         flood-color="rgb(75,101,154)"
         id="feFlood1023" />
      <feComposite
         k3="0.3"
         k2="0.3"
         k1="0.5"
         operator="arithmetic"
         result="result2"
         in="fbSourceGraphic"
         in2="result6"
         id="feComposite1025" />
      <feColorMatrix
         result="fbSourceGraphicAlpha"
         in="result2"
         values="1 0 0 -1 0 1 0 1 -1 0 1 0 0 -1 0 -0.8 -1 0 3.9 -2.7 "
         type="matrix"
         id="feColorMatrix1027" />
      <feGaussianBlur
         result="result0"
         in="fbSourceGraphicAlpha"
         stdDeviation="0.5"
         id="feGaussianBlur1029" />
      <feDiffuseLighting
         lighting-color="rgb(255,255,255)"
         diffuseConstant="0.7"
         surfaceScale="50"
         result="result13"
         in="result0"
         id="feDiffuseLighting1033">
        <feDistantLight
           elevation="20"
           azimuth="225"
           id="feDistantLight1031" />
      </feDiffuseLighting>
      <feSpecularLighting
         specularExponent="20"
         specularConstant="0.7"
         surfaceScale="10"
         lighting-color="rgb(255,255,255)"
         result="result1"
         in="result0"
         id="feSpecularLighting1037">
        <feDistantLight
           elevation="45"
           azimuth="225"
           id="feDistantLight1035" />
      </feSpecularLighting>
      <feBlend
         mode="screen"
         result="result5"
         in2="SourceGraphic"
         in="result13"
         id="feBlend1039" />
      <feComposite
         in="result1"
         k3="1"
         k2="1"
         operator="arithmetic"
         in2="result5"
         result="result9"
         id="feComposite1041" />
      <feComposite
         in2="SourceGraphic"
         operator="in"
         id="feComposite1043" />
    </filter>
    <filter
       inkscape:label="Relief Print"
       inkscape:menu="Bumps"
       inkscape:menu-tooltip="Bumps effect with a bevel, color flood and complex lighting"
       style="color-interpolation-filters:sRGB;"
       id="filter1141">
      <feGaussianBlur
         stdDeviation="5"
         result="result8"
         id="feGaussianBlur1107" />
      <feComposite
         result="result6"
         in="SourceGraphic"
         operator="in"
         in2="result8"
         id="feComposite1109" />
      <feComposite
         operator="in"
         result="result11"
         in2="result6"
         id="feComposite1111" />
      <feFlood
         result="result10"
         flood-opacity="1"
         flood-color="rgb(255,255,255)"
         id="feFlood1113" />
      <feBlend
         mode="multiply"
         in="result10"
         in2="result11"
         result="result12"
         id="feBlend1115" />
      <feComposite
         result="fbSourceGraphic"
         operator="in"
         in2="SourceGraphic"
         in="result12"
         id="feComposite1117" />
      <feFlood
         result="result6"
         flood-color="rgb(75,101,154)"
         id="feFlood1119" />
      <feComposite
         k3="0.3"
         k2="0.3"
         k1="0.5"
         operator="arithmetic"
         result="result2"
         in="fbSourceGraphic"
         in2="result6"
         id="feComposite1121" />
      <feColorMatrix
         result="fbSourceGraphicAlpha"
         in="result2"
         values="1 0 0 -1 0 1 0 1 -1 0 1 0 0 -1 0 -0.8 -1 0 3.9 -2.7 "
         type="matrix"
         id="feColorMatrix1123" />
      <feGaussianBlur
         result="result0"
         in="fbSourceGraphicAlpha"
         stdDeviation="0.5"
         id="feGaussianBlur1125" />
      <feDiffuseLighting
         lighting-color="rgb(255,255,255)"
         diffuseConstant="0.7"
         surfaceScale="50"
         result="result13"
         in="result0"
         id="feDiffuseLighting1129">
        <feDistantLight
           elevation="20"
           azimuth="225"
           id="feDistantLight1127" />
      </feDiffuseLighting>
      <feSpecularLighting
         specularExponent="20"
         specularConstant="0.7"
         surfaceScale="10"
         lighting-color="rgb(255,255,255)"
         result="result1"
         in="result0"
         id="feSpecularLighting1133">
        <feDistantLight
           elevation="45"
           azimuth="225"
           id="feDistantLight1131" />
      </feSpecularLighting>
      <feBlend
         mode="screen"
         result="result5"
         in2="SourceGraphic"
         in="result13"
         id="feBlend1135" />
      <feComposite
         in="result1"
         k3="1"
         k2="1"
         operator="arithmetic"
         in2="result5"
         result="result9"
         id="feComposite1137" />
      <feComposite
         in2="SourceGraphic"
         operator="in"
         id="feComposite1139" />
    </filter>
  </defs>
  <sodipodi:namedview
     id="base"
     pagecolor="#ffffff"
     bordercolor="#666666"
     borderopacity="1.0"
     inkscape:pageopacity="0.0"
     inkscape:pageshadow="2"
     inkscape:zoom="1.8214355"
     inkscape:cx="400"
     inkscape:cy="59.021526"
     inkscape:document-units="mm"
     inkscape:current-layer="layer1"
     showgrid="false"
     units="px"
     inkscape:pagecheckerboard="true"
     inkscape:window-width="1366"
     inkscape:window-height="739"
     inkscape:window-x="0"
     inkscape:window-y="0"
     inkscape:window-maximized="1" />
  <metadata
     id="metadata5">
    <rdf:RDF>
      <cc:Work
         rdf:about="">
        <dc:format>image/svg+xml</dc:format>
        <dc:type
           rdf:resource="http://purl.org/dc/dcmitype/StillImage" />
        <dc:title />
      </cc:Work>
    </rdf:RDF>
  </metadata>
  <g
     inkscape:label="Layer 1"
     inkscape:groupmode="layer"
     id="layer1"
     transform="translate(0,-244.08332)">
    <g
       aria-label="1990's"
       transform="matrix(1.1714558,0,0,1.1714558,-2.0087984,231.87606)"
       style="font-style:normal;font-weight:normal;font-size:40px;line-height:125%;font-family:sans-serif;letter-spacing:0px;word-spacing:0px;fill:#ffffff;fill-opacity:1;stroke:none;stroke-width:1px;stroke-linecap:butt;stroke-linejoin:miter;stroke-opacity:1;filter:url(#filter1045)"
       id="flowRoot10">
      <path
         d="m 5.8691406,13.390034 q 3.203125,0 9.5703124,0 0,7.265625 0,21.796875 0.742188,0 2.226563,0 0,2.34375 0,6.992187 -3.945313,0 -11.7968754,0 0,-2.265625 0,-6.835937 0.625,0 1.796875,0 0,-5 0,-14.921875 -0.5859375,0 -1.796875,0 0,-1.757813 0,-3.515625 0,-1.757813 0,-3.515625 z"
         style="font-style:normal;font-variant:normal;font-weight:normal;font-stretch:normal;font-family:'Metal Slug Latino';-inkscape-font-specification:'Metal Slug Latino';fill:#ffffff"
         id="path1318" />
      <path
         d="m 27.001953,22.686909 q 0,0.117187 0,0.273437 0,0.07813 0.03906,0.234375 0,0.07813 0.03906,0.195313 0.03906,0.07813 0.117188,0.234375 0.03906,0.07813 0.117187,0.195312 0.07813,0.03906 0.15625,0.15625 0.07813,0.03906 0.195313,0.15625 0.07813,0.03906 0.195312,0.117188 0.07813,0 0.234375,0.07813 1.171875,0 3.476563,0 0.07813,-0.03906 0.234375,-0.07813 0.07813,-0.03906 0.195312,-0.117188 0.07813,-0.03906 0.195313,-0.15625 0.03906,-0.03906 0.15625,-0.15625 0.03906,-0.07813 0.117187,-0.195312 0.03906,-0.07813 0.117188,-0.234375 0.03906,-0.07813 0.07813,-0.195313 0,-0.07813 0.03906,-0.234375 0,-0.07813 0,-0.273437 -0.03906,-0.07813 -0.03906,-0.195313 -0.03906,-0.117187 -0.117188,-0.3125 -0.03906,-0.07813 -0.117187,-0.273437 -0.03906,-0.07813 -0.15625,-0.273438 -0.03906,-0.07813 -0.15625,-0.234375 -0.07813,-0.07813 -0.195313,-0.234375 -0.07813,-0.03906 -0.234375,-0.195312 -0.07813,-0.03906 -0.273437,-0.15625 -0.07813,-0.03906 -0.234375,-0.15625 -0.117188,-0.03906 -0.3125,-0.117188 -0.07813,0 -0.273438,-0.07813 -0.07813,0 -0.3125,-0.03906 -0.07813,0 -0.273437,-0.03906 -0.117188,0 -0.351563,0 -0.07813,0.03906 -0.273437,0.03906 -0.117188,0 -0.3125,0.03906 -0.07813,0.03906 -0.273438,0.07813 -0.117187,0.03906 -0.3125,0.117188 -0.07813,0.03906 -0.234375,0.15625 -0.07813,0.03906 -0.273437,0.15625 -0.07813,0.07813 -0.195313,0.195312 -0.07813,0.07813 -0.234375,0.234375 -0.03906,0.07813 -0.15625,0.234375 -0.07813,0.117188 -0.15625,0.273438 -0.03906,0.07813 -0.117187,0.273437 -0.03906,0.117188 -0.07813,0.3125 -0.03906,0.03906 -0.03906,0.195313 z m 5.625,10.390625 q 0.03906,-0.15625 0.117188,-0.390625 0.03906,-0.15625 0.07813,-0.429688 0,-0.117187 0.03906,-0.390625 0,-0.15625 0,-0.429687 0,-0.117188 0,-0.195313 0,-0.117187 -0.03906,-0.234375 -2.148438,0 -6.484375,0 -0.15625,0 -0.46875,0 -0.15625,-0.03906 -0.507813,-0.07813 -0.15625,0 -0.46875,-0.07813 -0.15625,-0.03906 -0.46875,-0.117187 -0.15625,-0.03906 -0.46875,-0.117188 -0.15625,-0.07813 -0.429687,-0.195312 -0.15625,-0.07813 -0.46875,-0.195313 -0.15625,-0.07813 -0.429688,-0.273437 -0.117187,-0.07813 -0.390625,-0.273438 -0.15625,-0.07813 -0.390625,-0.273437 -0.15625,-0.117188 -0.390625,-0.3125 -0.117187,-0.117188 -0.3125,-0.351563 -0.117187,-0.117187 -0.351562,-0.351562 -0.07813,-0.15625 -0.273438,-0.390625 -0.117187,-0.15625 -0.273437,-0.429688 -0.07813,-0.15625 -0.234375,-0.429687 -0.07813,-0.15625 -0.234375,-0.429688 -0.03906,-0.15625 -0.15625,-0.46875 -0.07813,-0.15625 -0.15625,-0.429687 -0.03906,-0.15625 -0.117188,-0.507813 0,-1.71875 0,-5.234375 0,-0.15625 0.03906,-0.507812 0.03906,-0.15625 0.117187,-0.46875 0.03906,-0.15625 0.117188,-0.507813 0.07813,-0.15625 0.195312,-0.46875 0.03906,-0.15625 0.195313,-0.46875 0.03906,-0.15625 0.195312,-0.429687 0.117188,-0.15625 0.273438,-0.46875 0.07813,-0.117188 0.273437,-0.390625 0.117188,-0.15625 0.351563,-0.390625 0.07813,-0.15625 0.3125,-0.390625 0.117187,-0.117188 0.351562,-0.351563 0.15625,-0.117187 0.429688,-0.3125 0.117187,-0.117187 0.390625,-0.3125 0.15625,-0.07813 0.429687,-0.273437 0.15625,-0.07813 0.429688,-0.195313 0.15625,-0.07813 0.46875,-0.234375 0.15625,-0.03906 0.46875,-0.15625 0.15625,-0.03906 0.507812,-0.15625 0.15625,-0.03906 0.46875,-0.117187 0.195313,0 0.507813,-0.03906 0.15625,-0.03906 0.507812,-0.03906 2.5,0 7.539063,0 0.15625,0.03906 0.46875,0.07813 0.195312,0.03906 0.507812,0.117187 0.15625,0.07813 0.46875,0.15625 0.15625,0.07813 0.46875,0.195313 0.15625,0.07813 0.46875,0.234375 0.15625,0.07813 0.429688,0.234375 0.15625,0.07813 0.429687,0.273437 0.15625,0.117188 0.429688,0.3125 0.117187,0.07813 0.351562,0.3125 0.15625,0.117188 0.390625,0.351563 0.117188,0.117187 0.351563,0.351562 0.07813,0.117188 0.3125,0.390625 0.07813,0.15625 0.273437,0.429688 0.117188,0.117187 0.273438,0.429687 0.07813,0.117188 0.234375,0.429688 0.07813,0.15625 0.234375,0.46875 0.03906,0.15625 0.15625,0.46875 0.07813,0.15625 0.15625,0.46875 0.03906,0.15625 0.117187,0.507812 0.03906,0.15625 0.117188,0.507813 0,5.117187 0,15.351562 -0.03906,0.15625 -0.07813,0.507813 -0.03906,0.15625 -0.117188,0.507812 -0.03906,0.15625 -0.117187,0.46875 -0.07813,0.15625 -0.195313,0.46875 -0.07813,0.15625 -0.195312,0.507813 -0.07813,0.117187 -0.234375,0.429687 -0.117188,0.15625 -0.273438,0.429688 -0.117187,0.117187 -0.273437,0.429687 -0.117188,0.117188 -0.351563,0.390625 -0.117187,0.117188 -0.351562,0.351563 -0.117188,0.117187 -0.351563,0.351562 -0.117187,0.117188 -0.390625,0.3125 -0.15625,0.117188 -0.429687,0.3125 -0.117188,0.07813 -0.429688,0.273438 -0.15625,0.07813 -0.429687,0.234375 -0.15625,0.07813 -0.46875,0.195312 -0.15625,0.07813 -0.46875,0.195313 -0.195313,0.03906 -0.507813,0.15625 -0.15625,0.03906 -0.507812,0.117187 -0.15625,0 -0.46875,0.07813 -2.539063,0 -7.539063,0 -0.15625,-0.03906 -0.507812,-0.03906 -0.15625,-0.03906 -0.507813,-0.07813 -0.15625,-0.03906 -0.46875,-0.117188 -0.15625,-0.03906 -0.507812,-0.117187 -0.15625,-0.07813 -0.46875,-0.195313 -0.15625,-0.07813 -0.46875,-0.195312 -0.15625,-0.07813 -0.429688,-0.234375 -0.15625,-0.07813 -0.429687,-0.273438 -0.15625,-0.117187 -0.390625,-0.3125 -0.15625,-0.07813 -0.429688,-0.3125 -0.117187,-0.117187 -0.351562,-0.351562 -0.117188,-0.117188 -0.3125,-0.351563 -0.117188,-0.15625 -0.351563,-0.390625 -0.07813,-0.15625 -0.273437,-0.429687 -0.07813,-0.15625 -0.273438,-0.429688 -0.07813,-0.15625 -0.195312,-0.46875 -0.07813,-0.15625 -0.195313,-0.46875 -0.07813,-0.15625 -0.195312,-0.46875 -0.03906,-0.15625 -0.117188,-0.46875 -0.03906,-0.195312 -0.117187,-0.507812 0,-0.15625 -0.03906,-0.507813 0,-0.859375 0,-2.578125 2.460938,0 7.382813,0 0,0.742188 0,2.1875 1.054687,0 3.203125,0 0.117187,0 0.351562,0 0.07813,-0.03906 0.3125,-0.07813 0.117188,-0.03906 0.3125,-0.07813 0.07813,-0.03906 0.3125,-0.15625 0.07813,-0.03906 0.273438,-0.15625 0.07813,-0.07813 0.273437,-0.195312 0.07813,-0.07813 0.195313,-0.195313 0.07813,-0.117187 0.234375,-0.273437 0.07813,-0.07813 0.15625,-0.273438 0.07813,-0.07813 0.15625,-0.273437 0.03906,-0.117188 0.117187,-0.3125 z"
         style="font-style:normal;font-variant:normal;font-weight:normal;font-stretch:normal;font-family:'Metal Slug Latino';-inkscape-font-specification:'Metal Slug Latino';fill:#ffffff"
         id="path1320" />
      <path
         d="m 49.423828,22.686909 q 0,0.117187 0,0.273437 0,0.07813 0.03906,0.234375 0,0.07813 0.03906,0.195313 0.03906,0.07813 0.117188,0.234375 0.03906,0.07813 0.117187,0.195312 0.07813,0.03906 0.15625,0.15625 0.07813,0.03906 0.195313,0.15625 0.07813,0.03906 0.195312,0.117188 0.07813,0 0.234375,0.07813 1.171875,0 3.476563,0 0.07813,-0.03906 0.234375,-0.07813 0.07813,-0.03906 0.195312,-0.117188 0.07813,-0.03906 0.195313,-0.15625 0.03906,-0.03906 0.15625,-0.15625 0.03906,-0.07813 0.117187,-0.195312 0.03906,-0.07813 0.117188,-0.234375 0.03906,-0.07813 0.07813,-0.195313 0,-0.07813 0.03906,-0.234375 0,-0.07813 0,-0.273437 -0.03906,-0.07813 -0.03906,-0.195313 -0.03906,-0.117187 -0.117188,-0.3125 -0.03906,-0.07813 -0.117187,-0.273437 -0.03906,-0.07813 -0.15625,-0.273438 -0.03906,-0.07813 -0.15625,-0.234375 -0.07813,-0.07813 -0.195313,-0.234375 -0.07813,-0.03906 -0.234375,-0.195312 -0.07813,-0.03906 -0.273437,-0.15625 -0.07813,-0.03906 -0.234375,-0.15625 -0.117188,-0.03906 -0.3125,-0.117188 -0.07813,0 -0.273438,-0.07813 -0.07813,0 -0.3125,-0.03906 -0.07813,0 -0.273437,-0.03906 -0.117188,0 -0.351563,0 -0.07813,0.03906 -0.273437,0.03906 -0.117188,0 -0.3125,0.03906 -0.07813,0.03906 -0.273438,0.07813 -0.117187,0.03906 -0.3125,0.117188 -0.07813,0.03906 -0.234375,0.15625 -0.07813,0.03906 -0.273437,0.15625 -0.07813,0.07813 -0.195313,0.195312 -0.07813,0.07813 -0.234375,0.234375 -0.03906,0.07813 -0.15625,0.234375 -0.07813,0.117188 -0.15625,0.273438 -0.03906,0.07813 -0.117187,0.273437 -0.03906,0.117188 -0.07813,0.3125 -0.03906,0.03906 -0.03906,0.195313 z m 5.625,10.390625 q 0.03906,-0.15625 0.117188,-0.390625 0.03906,-0.15625 0.07813,-0.429688 0,-0.117187 0.03906,-0.390625 0,-0.15625 0,-0.429687 0,-0.117188 0,-0.195313 0,-0.117187 -0.03906,-0.234375 -2.148438,0 -6.484375,0 -0.15625,0 -0.46875,0 -0.15625,-0.03906 -0.507813,-0.07813 -0.15625,0 -0.46875,-0.07813 -0.15625,-0.03906 -0.46875,-0.117187 -0.15625,-0.03906 -0.46875,-0.117188 -0.15625,-0.07813 -0.429687,-0.195312 -0.15625,-0.07813 -0.46875,-0.195313 -0.15625,-0.07813 -0.429688,-0.273437 -0.117187,-0.07813 -0.390625,-0.273438 -0.15625,-0.07813 -0.390625,-0.273437 -0.15625,-0.117188 -0.390625,-0.3125 -0.117187,-0.117188 -0.3125,-0.351563 -0.117187,-0.117187 -0.351562,-0.351562 -0.07813,-0.15625 -0.273438,-0.390625 -0.117187,-0.15625 -0.273437,-0.429688 -0.07813,-0.15625 -0.234375,-0.429687 -0.07813,-0.15625 -0.234375,-0.429688 -0.03906,-0.15625 -0.15625,-0.46875 -0.07813,-0.15625 -0.15625,-0.429687 -0.03906,-0.15625 -0.117188,-0.507813 0,-1.71875 0,-5.234375 0,-0.15625 0.03906,-0.507812 0.03906,-0.15625 0.117187,-0.46875 0.03906,-0.15625 0.117188,-0.507813 0.07813,-0.15625 0.195312,-0.46875 0.03906,-0.15625 0.195313,-0.46875 0.03906,-0.15625 0.195312,-0.429687 0.117188,-0.15625 0.273438,-0.46875 0.07813,-0.117188 0.273437,-0.390625 0.117188,-0.15625 0.351563,-0.390625 0.07813,-0.15625 0.3125,-0.390625 0.117187,-0.117188 0.351562,-0.351563 0.15625,-0.117187 0.429688,-0.3125 0.117187,-0.117187 0.390625,-0.3125 0.15625,-0.07813 0.429687,-0.273437 0.15625,-0.07813 0.429688,-0.195313 0.15625,-0.07813 0.46875,-0.234375 0.15625,-0.03906 0.46875,-0.15625 0.15625,-0.03906 0.507812,-0.15625 0.15625,-0.03906 0.46875,-0.117187 0.195313,0 0.507813,-0.03906 0.15625,-0.03906 0.507812,-0.03906 2.5,0 7.539063,0 0.15625,0.03906 0.46875,0.07813 0.195312,0.03906 0.507812,0.117187 0.15625,0.07813 0.46875,0.15625 0.15625,0.07813 0.46875,0.195313 0.15625,0.07813 0.46875,0.234375 0.15625,0.07813 0.429688,0.234375 0.15625,0.07813 0.429687,0.273437 0.15625,0.117188 0.429688,0.3125 0.117187,0.07813 0.351562,0.3125 0.15625,0.117188 0.390625,0.351563 0.117188,0.117187 0.351563,0.351562 0.07813,0.117188 0.3125,0.390625 0.07813,0.15625 0.273437,0.429688 0.117188,0.117187 0.273438,0.429687 0.07813,0.117188 0.234375,0.429688 0.07813,0.15625 0.234375,0.46875 0.03906,0.15625 0.15625,0.46875 0.07813,0.15625 0.15625,0.46875 0.03906,0.15625 0.117187,0.507812 0.03906,0.15625 0.117188,0.507813 0,5.117187 0,15.351562 -0.03906,0.15625 -0.07813,0.507813 -0.03906,0.15625 -0.117188,0.507812 -0.03906,0.15625 -0.117187,0.46875 -0.07813,0.15625 -0.195313,0.46875 -0.07813,0.15625 -0.195312,0.507813 -0.07813,0.117187 -0.234375,0.429687 -0.117188,0.15625 -0.273438,0.429688 -0.117187,0.117187 -0.273437,0.429687 -0.117188,0.117188 -0.351563,0.390625 -0.117187,0.117188 -0.351562,0.351563 -0.117188,0.117187 -0.351563,0.351562 -0.117187,0.117188 -0.390625,0.3125 -0.15625,0.117188 -0.429687,0.3125 -0.117188,0.07813 -0.429688,0.273438 -0.15625,0.07813 -0.429687,0.234375 -0.15625,0.07813 -0.46875,0.195312 -0.15625,0.07813 -0.46875,0.195313 -0.195313,0.03906 -0.507813,0.15625 -0.15625,0.03906 -0.507812,0.117187 -0.15625,0 -0.46875,0.07813 -2.539063,0 -7.539063,0 -0.15625,-0.03906 -0.507812,-0.03906 -0.15625,-0.03906 -0.507813,-0.07813 -0.15625,-0.03906 -0.46875,-0.117188 -0.15625,-0.03906 -0.507812,-0.117187 -0.15625,-0.07813 -0.46875,-0.195313 -0.15625,-0.07813 -0.46875,-0.195312 -0.15625,-0.07813 -0.429688,-0.234375 -0.15625,-0.07813 -0.429687,-0.273438 -0.15625,-0.117187 -0.390625,-0.3125 -0.15625,-0.07813 -0.429688,-0.3125 -0.117187,-0.117187 -0.351562,-0.351562 -0.117188,-0.117188 -0.3125,-0.351563 -0.117188,-0.15625 -0.351563,-0.390625 -0.07813,-0.15625 -0.273437,-0.429687 -0.07813,-0.15625 -0.273438,-0.429688 -0.07813,-0.15625 -0.195312,-0.46875 -0.07813,-0.15625 -0.195313,-0.46875 -0.07813,-0.15625 -0.195312,-0.46875 -0.03906,-0.15625 -0.117188,-0.46875 -0.03906,-0.195312 -0.117187,-0.507812 0,-0.15625 -0.03906,-0.507813 0,-0.859375 0,-2.578125 2.460938,0 7.382813,0 0,0.742188 0,2.1875 1.054687,0 3.203125,0 0.117187,0 0.351562,0 0.07813,-0.03906 0.3125,-0.07813 0.117188,-0.03906 0.3125,-0.07813 0.07813,-0.03906 0.3125,-0.15625 0.07813,-0.03906 0.273438,-0.15625 0.07813,-0.07813 0.273437,-0.195312 0.07813,-0.07813 0.195313,-0.195313 0.07813,-0.117187 0.234375,-0.273437 0.07813,-0.07813 0.15625,-0.273438 0.07813,-0.07813 0.15625,-0.273437 0.03906,-0.117188 0.117187,-0.3125 z"
         style="font-style:normal;font-variant:normal;font-weight:normal;font-stretch:normal;font-family:'Metal Slug Latino';-inkscape-font-specification:'Metal Slug Latino';fill:#ffffff"
         id="path1322" />
      <path
         d="m 79.501953,28.468159 q -1.71875,2.03125 -5.195312,6.054687 -0.03906,0 -0.03906,0.03906 0,0 -0.03906,0.03906 0,0 0,0 0,0 0,0 0,0 0.03906,0.03906 0.03906,0 0.117188,0 0.07813,0.03906 0.234375,0.07813 0.07813,0 0.234375,0.03906 0.07813,0 0.234375,0 0.07813,0.03906 0.234375,0.03906 0.07813,0 0.234375,0 0.07813,0 0.234375,0 0.07813,0 0.234375,0 0.07813,-0.03906 0.273437,-0.03906 0.07813,0 0.234375,-0.03906 0.07813,0 0.234375,-0.03906 0.07813,0 0.234375,-0.03906 0.07813,-0.03906 0.195313,-0.07813 0.07813,-0.03906 0.234375,-0.07813 0.07813,-0.03906 0.195312,-0.07813 0.07813,-0.03906 0.195313,-0.07813 0.07813,-0.03906 0.195312,-0.117188 0.03906,-0.03906 0.15625,-0.07813 0.07813,-0.03906 0.195313,-0.117187 0.03906,-0.07813 0.15625,-0.15625 0.07813,-0.03906 0.15625,-0.117188 0.03906,-0.03906 0.15625,-0.15625 0.03906,-0.03906 0.117187,-0.117187 0.03906,-0.07813 0.117188,-0.15625 0.03906,-0.07813 0.117187,-0.15625 0.03906,-0.07813 0.07813,-0.15625 0.03906,-0.07813 0.07813,-0.15625 0.03906,-0.07813 0.07813,-0.195313 0,-0.03906 0.03906,-0.15625 0,-0.03906 0.03906,-0.15625 0,-0.07813 0,-0.195312 0,0 0,-0.07813 0,0 0,-0.03906 0,0 0,-0.03906 0,-0.898438 0,-1.757813 0,-0.898437 0,-1.757812 z m -7.773437,-2.539063 q 0,0 0,0.07813 0,0 0,0.03906 0,0 0,0 0,0 0.03906,-0.03906 0,0 0.07813,-0.07813 0.07813,-0.117187 0.273438,-0.351562 0.195312,-0.195313 0.585937,-0.664063 0.390625,-0.46875 1.171875,-1.367187 0.78125,-0.898438 2.34375,-2.734375 0.117188,-0.117188 0.3125,-0.3125 0.03906,-0.03906 0.07813,-0.117188 0,0 0.03906,-0.03906 0,0 -0.03906,0 -0.03906,0 -0.117187,0 -0.07813,-0.03906 -0.195313,-0.03906 -0.07813,0 -0.234375,-0.03906 -0.07813,0 -0.234375,0 -0.07813,0 -0.234375,0 -0.07813,0 -0.234375,0 -0.07813,0 -0.234375,0 -0.07813,0.03906 -0.234375,0.03906 -0.07813,0 -0.234375,0.03906 -0.07813,0 -0.234375,0.03906 -0.07813,0.03906 -0.234375,0.07813 -0.07813,0 -0.195312,0.03906 -0.07813,0.03906 -0.195313,0.07813 -0.07813,0.03906 -0.234375,0.117187 -0.03906,0 -0.195312,0.07813 -0.03906,0.03906 -0.15625,0.07813 -0.07813,0.03906 -0.15625,0.117188 -0.07813,0.03906 -0.195313,0.117187 -0.03906,0.03906 -0.15625,0.117188 -0.03906,0.03906 -0.15625,0.117187 -0.03906,0.03906 -0.117187,0.15625 -0.03906,0.03906 -0.15625,0.117188 -0.03906,0.03906 -0.117188,0.15625 0,0.03906 -0.07813,0.15625 -0.03906,0.03906 -0.117187,0.15625 0,0.03906 -0.03906,0.15625 -0.03906,0.03906 -0.07813,0.15625 0,0.03906 -0.03906,0.15625 0,0.07813 -0.03906,0.15625 0,0.07813 0,0.195312 -0.03906,0.03906 -0.03906,0.15625 0,0.703125 0,1.445313 0,0.703125 0,1.445312 z m -0.625,-12.539062 q 3.125,0 9.335937,0 0.15625,0 0.46875,0.03906 0.15625,0 0.46875,0.03906 0.15625,0.03906 0.46875,0.07813 0.15625,0.03906 0.46875,0.15625 0.117188,0.03906 0.429688,0.15625 0.15625,0.03906 0.429687,0.15625 0.15625,0.07813 0.429688,0.234375 0.15625,0.07813 0.429687,0.234375 0.117188,0.07813 0.390625,0.273437 0.117188,0.117188 0.351563,0.3125 0.117187,0.117188 0.351562,0.3125 0.117188,0.117188 0.3125,0.351563 0.117188,0.117187 0.3125,0.390625 0.07813,0.117187 0.273438,0.351562 0.07813,0.15625 0.234375,0.429688 0.07813,0.15625 0.195312,0.429687 0.07813,0.15625 0.195313,0.429688 0.03906,0.15625 0.15625,0.46875 0.03906,0.15625 0.117187,0.46875 0.03906,0.117187 0.07813,0.429687 0,0.15625 0.03906,0.507813 0,0.15625 0.03906,0.46875 0,5.117187 0,15.351562 -0.03906,0.195313 -0.07813,0.507813 -0.03906,0.15625 -0.117187,0.46875 -0.03906,0.195312 -0.117188,0.507812 -0.07813,0.15625 -0.195312,0.46875 -0.07813,0.15625 -0.195313,0.46875 -0.07813,0.15625 -0.234375,0.46875 -0.117187,0.117188 -0.273437,0.429688 -0.117188,0.117187 -0.273438,0.390625 -0.117187,0.15625 -0.351562,0.429687 -0.117188,0.117188 -0.351563,0.351563 -0.117187,0.117187 -0.351562,0.351562 -0.117188,0.117188 -0.390625,0.3125 -0.15625,0.117188 -0.429688,0.3125 -0.117187,0.07813 -0.429687,0.273438 -0.15625,0.07813 -0.429688,0.234375 -0.15625,0.07813 -0.46875,0.195312 -0.15625,0.07813 -0.46875,0.195313 -0.15625,0.03906 -0.507812,0.15625 -0.15625,0.03906 -0.46875,0.07813 -0.195313,0.03906 -0.507813,0.117187 -3.125,0 -9.335937,0 -0.15625,0 -0.507813,-0.03906 -0.15625,-0.03906 -0.507812,-0.07813 -0.15625,-0.03906 -0.46875,-0.117188 -0.15625,-0.03906 -0.507813,-0.117187 -0.15625,-0.07813 -0.429687,-0.195313 -0.15625,-0.03906 -0.46875,-0.195312 -0.15625,-0.07813 -0.46875,-0.234375 -0.117188,-0.07813 -0.390625,-0.273438 -0.15625,-0.117187 -0.429688,-0.3125 -0.117187,-0.07813 -0.390625,-0.3125 -0.117187,-0.117187 -0.351562,-0.351562 -0.117188,-0.117188 -0.3125,-0.351563 -0.117188,-0.15625 -0.3125,-0.390625 -0.117188,-0.15625 -0.3125,-0.429687 -0.07813,-0.15625 -0.234375,-0.429688 -0.07813,-0.15625 -0.195313,-0.429687 -0.07813,-0.15625 -0.195312,-0.46875 -0.07813,-0.15625 -0.15625,-0.507813 -0.03906,-0.15625 -0.15625,-0.46875 0,-0.15625 -0.07813,-0.507812 0,-0.15625 -0.03906,-0.46875 0,-5.15625 0,-15.429688 0,-0.15625 0.03906,-0.46875 0.03906,-0.15625 0.07813,-0.507812 0.07813,-0.15625 0.15625,-0.507813 0.03906,-0.15625 0.15625,-0.46875 0.03906,-0.15625 0.195312,-0.46875 0.07813,-0.117187 0.195313,-0.429687 0.07813,-0.15625 0.273437,-0.429688 0.07813,-0.15625 0.273438,-0.429687 0.07813,-0.117188 0.3125,-0.390625 0.117187,-0.117188 0.3125,-0.351563 0.117187,-0.117187 0.390625,-0.351562 0.117187,-0.117188 0.351562,-0.351563 0.15625,-0.07813 0.429688,-0.273437 0.117187,-0.07813 0.429687,-0.273438 0.117188,-0.07813 0.429688,-0.234375 0.15625,-0.07813 0.46875,-0.234375 0.15625,-0.03906 0.429687,-0.15625 0.195313,-0.03906 0.507813,-0.117187 0.15625,-0.03906 0.46875,-0.117188 0.15625,-0.03906 0.507812,-0.07813 0.15625,0 0.507813,-0.03906 z"
         style="font-style:normal;font-variant:normal;font-weight:normal;font-stretch:normal;font-family:'Metal Slug Latino';-inkscape-font-specification:'Metal Slug Latino';fill:#ffffff"
         id="path1324" />
      <path
         d="m 88.017578,13.507221 q 1.09375,0 4.335938,0 0,1.132813 0,4.492188 -1.09375,0 -4.335938,0 0,-1.09375 0,-4.492188 z m 1.757813,3.515625 q 0.664062,0.15625 2.617187,0.585938 -0.351562,0.976562 -1.523437,3.984375 -0.664063,-0.15625 -2.617188,-0.585938 0.390625,-0.976562 1.523438,-3.984375 z"
         style="font-style:normal;font-variant:normal;font-weight:normal;font-stretch:normal;font-family:'Metal Slug Latino';-inkscape-font-specification:'Metal Slug Latino';fill:#ffffff"
         id="path1326" />
      <path
         d="m 95.478516,29.210346 q -0.07813,-0.03906 -0.15625,-0.117187 -0.03906,-0.03906 -0.117188,-0.117188 -0.03906,-0.03906 -0.117187,-0.117187 -0.03906,-0.03906 -0.117188,-0.117188 -0.03906,-0.03906 -0.117187,-0.15625 -0.03906,-0.03906 -0.07813,-0.117187 -0.03906,-0.03906 -0.117188,-0.117188 -0.03906,-0.07813 -0.07813,-0.15625 -0.03906,-0.03906 -0.117187,-0.15625 0,-0.03906 -0.07813,-0.15625 0,-0.03906 -0.07813,-0.117187 0,-0.07813 -0.07813,-0.15625 0,-0.07813 -0.03906,-0.15625 -0.03906,-0.07813 -0.07813,-0.15625 0,-0.07813 -0.03906,-0.195313 -0.03906,-0.03906 -0.03906,-0.15625 -0.03906,-0.03906 -0.07813,-0.15625 0,-0.03906 0,-0.15625 -0.03906,-0.07813 -0.03906,-0.15625 0,-0.820312 0,-2.460937 0,-0.07813 0.03906,-0.195313 0,-0.03906 0,-0.15625 0.03906,-0.07813 0.03906,-0.195312 0.03906,-0.03906 0.07813,-0.15625 0,-0.03906 0.03906,-0.15625 0,-0.07813 0.03906,-0.195313 0.03906,-0.03906 0.07813,-0.15625 0.03906,-0.03906 0.07813,-0.15625 0.03906,-0.03906 0.07813,-0.15625 0.03906,-0.03906 0.07813,-0.15625 0.03906,-0.03906 0.07813,-0.15625 0.03906,-0.03906 0.117187,-0.15625 0,-0.03906 0.07813,-0.117187 0.03906,-0.07813 0.117188,-0.15625 0.03906,-0.03906 0.07813,-0.15625 0.03906,-0.03906 0.117187,-0.117188 0.03906,-0.03906 0.117188,-0.117187 0.03906,-0.03906 0.117187,-0.15625 0.03906,-0.03906 0.15625,-0.117188 0.03906,-0.03906 0.117188,-0.117187 0.03906,-0.03906 0.117187,-0.117188 0.07813,0 0.15625,-0.07813 0.03906,-0.03906 0.15625,-0.117187 0.03906,-0.03906 0.117188,-0.07813 0.07813,-0.03906 0.15625,-0.117188 0.03906,-0.03906 0.15625,-0.07813 0.03906,-0.03906 0.15625,-0.07813 0.03906,-0.03906 0.15625,-0.07813 0.03906,-0.03906 0.15625,-0.07813 0.07813,0 0.15625,-0.03906 0.07813,-0.03906 0.195312,-0.07813 0.03906,0 0.15625,-0.03906 0.03906,-0.03906 0.15625,-0.07813 0.07813,0 0.195313,-0.03906 0.03906,0 0.15625,0 0.03906,-0.03906 0.15625,-0.03906 0.07813,0 0.195312,-0.03906 0.03906,0 0.15625,0 0.07813,0 0.195313,0 0.03906,0 0.15625,0 3.554684,0 10.625004,0 0,2.382812 0,7.109375 -1.99219,0 -5.9375,0 0,-0.625 0,-1.875 -0.97657,0 -2.96875,0 -0.0781,0.195312 -0.15625,0.585937 2.38281,1.914063 7.14843,5.742188 0.0781,0.03906 0.19532,0.15625 0.0391,0.03906 0.15625,0.117187 0.0391,0.07813 0.15625,0.15625 0.0391,0.07813 0.15625,0.15625 0.0391,0.07813 0.15625,0.195313 0.0391,0.03906 0.15625,0.15625 0.0391,0.03906 0.11718,0.15625 0.0781,0.07813 0.15625,0.195312 0.0391,0.03906 0.11719,0.15625 0.0391,0.07813 0.15625,0.195313 0.0391,0.07813 0.11719,0.195312 0.0391,0.03906 0.11719,0.195313 0.0391,0.03906 0.11718,0.195312 0,0.03906 0.0781,0.195313 0.0391,0.03906 0.11719,0.195312 0,0.03906 0.0781,0.195313 0.0391,0.07813 0.0781,0.195312 0.0391,0.07813 0.0781,0.234375 0.0391,0.03906 0.0781,0.195313 0.0391,0.07813 0.0781,0.195312 0.0391,0.07813 0.0781,0.234375 0,1.132813 0,3.359375 -0.0391,0.07813 -0.0391,0.195313 -0.0391,0.03906 -0.0781,0.15625 0,0.07813 -0.0391,0.15625 -0.0391,0.07813 -0.0781,0.195312 -0.0391,0.03906 -0.0781,0.15625 0,0.03906 -0.0781,0.15625 0,0.03906 -0.0781,0.15625 -0.0391,0.03906 -0.0781,0.15625 -0.0391,0.03906 -0.0781,0.15625 -0.0391,0.03906 -0.11719,0.117188 -0.0391,0.07813 -0.11719,0.15625 -0.0391,0.03906 -0.0781,0.15625 -0.0391,0.03906 -0.11719,0.117187 -0.0391,0.03906 -0.15625,0.117188 -0.0391,0.03906 -0.11719,0.15625 -0.0391,0.03906 -0.11719,0.117187 -0.0391,0.03906 -0.11718,0.117188 -0.0781,0.03906 -0.15625,0.117187 -0.0391,0 -0.15625,0.07813 -0.0391,0.03906 -0.11719,0.117188 -0.0781,0.03906 -0.15625,0.07813 -0.0391,0.03906 -0.15625,0.117187 -0.0391,0 -0.15625,0.07813 -0.0391,0 -0.15625,0.07813 -0.0391,0 -0.15625,0.03906 -0.0781,0.03906 -0.15625,0.07813 -0.0781,0.03906 -0.19531,0.07813 -0.0391,0 -0.15625,0.03906 -0.0391,0 -0.15625,0.03906 -0.0781,0.03906 -0.19532,0.03906 -0.0391,0.03906 -0.15625,0.03906 -0.0781,0 -0.19531,0.03906 -4.21875,0 -12.734374,0 0,-2.460937 0,-7.421875 1.914062,0 5.78125,0 0,0.546875 0,1.601563 1.367184,0 4.023434,0 0.0391,0 0.0781,0 0.0391,0 0.11719,-0.03906 0,0 0.0781,-0.03906 0.0391,0 0.0781,-0.03906 0.0391,0 0.0781,-0.03906 0.0391,0 0.0781,-0.03906 0,0 0.0781,-0.03906 0,-0.03906 0.0391,-0.07813 0,-0.15625 0,-0.507813 -2.38281,-1.875 -7.226559,-5.625 -0.07813,-0.07813 -0.273438,-0.195312 -0.07813,-0.03906 -0.234375,-0.15625 -0.07813,-0.07813 -0.273437,-0.195313 -0.07813,-0.03906 -0.234375,-0.15625 z"
         style="font-style:normal;font-variant:normal;font-weight:normal;font-stretch:normal;font-family:'Metal Slug Latino';-inkscape-font-specification:'Metal Slug Latino';fill:#ffffff"
         id="path1328" />
    </g>
    <g
       aria-label="games"
       transform="matrix(0.5235012,0,0,0.51179487,70.200216,273.18761)"
       style="font-style:normal;font-weight:normal;font-size:40px;line-height:125%;font-family:sans-serif;letter-spacing:0px;word-spacing:0px;fill:#ffffff;fill-opacity:1;stroke:none;stroke-width:1px;stroke-linecap:butt;stroke-linejoin:miter;stroke-opacity:1;filter:url(#filter1141)"
       id="flowRoot10-3">
      <path
         d="m 22.197266,19.796284 q -3.710938,0 -11.171875,0 -0.07813,0 -0.195313,0 -0.07813,0 -0.195312,0 -0.03906,0 -0.195313,0 -0.03906,0.03906 -0.15625,0.03906 -0.07813,0 -0.195312,0.03906 -0.07813,0 -0.1953129,0 -0.039063,0.03906 -0.15625,0.03906 -0.078125,0.03906 -0.1953125,0.07813 -0.039063,0 -0.15625,0.03906 -0.078125,0 -0.1953125,0.03906 -0.039063,0.03906 -0.15625,0.07813 -0.078125,0.03906 -0.1953125,0.07813 -0.039063,0 -0.15625,0.07813 -0.039063,0 -0.15625,0.07813 -0.078125,0 -0.15625,0.07813 -0.078125,0.03906 -0.1953125,0.07813 -0.039063,0.03906 -0.15625,0.117188 -0.039063,0.03906 -0.15625,0.07813 -0.039063,0.03906 -0.1171875,0.117187 -0.078125,0.03906 -0.15625,0.117188 -0.039063,0.03906 -0.15625,0.117187 -0.039063,0.03906 -0.1171875,0.117188 -0.078125,0.03906 -0.15625,0.117187 -0.039063,0.03906 -0.1171875,0.15625 -0.039063,0.03906 -0.1171875,0.117188 -0.078125,0.03906 -0.15625,0.117187 -0.039063,0.07813 -0.1171875,0.15625 -0.039063,0.03906 -0.078125,0.15625 -0.039063,0.03906 -0.1171875,0.15625 -0.039063,0.03906 -0.1171875,0.15625 -0.039063,0.03906 -0.078125,0.15625 -0.039063,0.03906 -0.1171875,0.15625 0,0.03906 -0.078125,0.15625 -0.039063,0.03906 -0.078125,0.15625 -0.039063,0.07813 -0.078125,0.15625 -0.039063,0.07813 -0.078125,0.195313 0,0.03906 -0.039063,0.15625 -0.039063,0.07813 -0.078125,0.195312 0,0.03906 -0.039063,0.15625 -0.039063,0.07813 -0.078125,0.195313 0,0.03906 -0.039063,0.195312 0,0.03906 -0.039063,0.15625 0,0.07813 0,0.195313 0,0.03906 -0.039063,0.15625 0,4.179687 0,12.5 0,0.07813 0.039063,0.195312 0,0.03906 0,0.15625 0.039063,0.07813 0.039063,0.195313 0.039063,0.07813 0.039063,0.195312 0.039063,0.03906 0.078125,0.15625 0,0.07813 0.039063,0.195313 0.039063,0.03906 0.078125,0.15625 0,0.07813 0.039063,0.195312 0.039063,0.03906 0.078125,0.15625 0.039063,0.07813 0.078125,0.15625 0.039063,0.07813 0.078125,0.195313 0.039063,0.03906 0.078125,0.15625 0.039063,0.03906 0.1171875,0.15625 0,0.03906 0.078125,0.15625 0.039063,0.03906 0.1171875,0.15625 0.039063,0.03906 0.1171875,0.15625 0,0.03906 0.078125,0.117187 0.039063,0.07813 0.1171875,0.15625 0.039063,0.03906 0.15625,0.15625 0.039063,0.03906 0.1171875,0.117188 0.039063,0.03906 0.1171875,0.117187 0.039063,0.07813 0.15625,0.15625 0.039063,0.03906 0.1171875,0.117188 0.039063,0.03906 0.15625,0.117187 0.039063,0.03906 0.15625,0.117188 0.039063,0.03906 0.1171875,0.07813 0.078125,0.03906 0.15625,0.117187 0.078125,0.03906 0.15625,0.07813 0.078125,0.03906 0.1953125,0.117188 0.039063,0 0.15625,0.07813 0.039063,0.03906 0.15625,0.07813 0.039063,0.03906 0.15625,0.07813 0.078125,0 0.1953125,0.07813 0.039063,0 0.15625,0.03906 0.078125,0.03906 0.1953125,0.07813 0.039063,0 0.15625,0.03906 0.078125,0 0.1953125,0.03906 0.039063,0.03906 0.15625,0.03906 0.078125,0 0.1953129,0.03906 0.07813,0 0.195312,0.03906 0.03906,0 0.15625,0 0.07813,0 0.195313,0.03906 0.07813,0 0.195312,0 0.03906,0 0.195313,0 3.828125,0 11.523437,0 0,-4.257812 0,-12.8125 -3.085937,0 -9.257812,0 0,1.757813 0,5.3125 1.171875,0 3.515625,0 0,0.625 0,1.914063 -1.171875,0 -3.515625,0 -0.03906,0 -0.117188,0 -0.03906,0 -0.117187,0 -0.03906,0 -0.117188,-0.03906 -0.03906,0 -0.117187,0 -0.03906,-0.03906 -0.117188,-0.03906 -0.03906,0 -0.117187,-0.03906 -0.03906,0 -0.117188,-0.03906 -0.03906,0 -0.07813,-0.03906 -0.03906,-0.03906 -0.117187,-0.03906 -0.03906,-0.03906 -0.117188,-0.07813 -0.03906,0 -0.07813,-0.07813 -0.03906,0 -0.117187,-0.03906 0,-0.03906 -0.07813,-0.07813 -0.03906,-0.03906 -0.07813,-0.07813 -0.03906,-0.03906 -0.07813,-0.07813 -0.03906,-0.03906 -0.07813,-0.07813 -0.03906,-0.03906 -0.07813,-0.117187 -0.03906,-0.03906 -0.07813,-0.07813 0,-0.03906 -0.03906,-0.117188 -0.03906,-0.03906 -0.07813,-0.07813 0,-0.03906 -0.03906,-0.117187 -0.03906,-0.03906 -0.03906,-0.117188 -0.03906,-0.03906 -0.03906,-0.07813 -0.03906,-0.03906 -0.03906,-0.117187 -0.03906,-0.03906 -0.03906,-0.117188 0,-0.03906 -0.03906,-0.117187 0,-0.03906 0,-0.117188 0,-0.03906 0,-0.117187 0,-0.03906 0,-0.117188 0,-2.304687 0,-6.914062 0,-0.03906 0,-0.117188 0,-0.03906 0,-0.117187 0,-0.03906 0,-0.117188 0.03906,-0.03906 0.03906,-0.117187 0,-0.03906 0.03906,-0.117188 0,-0.03906 0.03906,-0.117187 0,-0.03906 0.03906,-0.117188 0,-0.03906 0.03906,-0.117187 0,0 0.03906,-0.07813 0.03906,-0.03906 0.07813,-0.117188 0,-0.03906 0.03906,-0.07813 0.03906,-0.03906 0.07813,-0.117187 0,0 0.07813,-0.07813 0,-0.03906 0.07813,-0.07813 0,-0.03906 0.07813,-0.07813 0.03906,-0.03906 0.07813,-0.07813 0.03906,-0.03906 0.07813,-0.07813 0.03906,-0.03906 0.117187,-0.07813 0.03906,0 0.07813,-0.07813 0.03906,0 0.117188,-0.03906 0.03906,0 0.117187,-0.03906 0,-0.03906 0.07813,-0.07813 0.03906,0 0.117188,-0.03906 0.03906,0 0.117187,0 0.03906,-0.03906 0.117188,-0.03906 0.03906,0 0.117187,-0.03906 0.03906,0 0.117188,0 0.03906,0 0.117187,0 0.03906,0 0.117188,0 1.09375,0 3.242187,0 0,0.507813 0,1.5625 1.914063,0 5.664063,0 0,-2.382812 0,-7.148437 z"
         style="font-style:normal;font-variant:normal;font-weight:normal;font-stretch:normal;font-family:'Metal Slug Latino';-inkscape-font-specification:'Metal Slug Latino';fill:#ffffff;stroke:none;stroke-opacity:1"
         id="path1307" />
      <path
         d="m 25.634766,36.475971 q 1.71875,-3.632812 5.234375,-10.9375 -0.625,0 -1.875,0 0.859375,-1.914062 2.65625,-5.742187 4.179687,0 12.5,0 0,1.914062 0,5.820312 -0.546875,0 -1.640625,0 0,3.59375 0,10.78125 0.546875,0 1.601562,0 0,1.953125 0,5.78125 -4.570312,0 -13.789062,0 0.9375,-1.953125 2.734375,-5.820312 1.289062,0 3.828125,0 0,-3.4375 0,-10.3125 -2.617188,5.390625 -7.8125,16.132812 -1.992188,0 -5.976563,0 0,-1.914062 0,-5.703125 0.625,0 1.25,0 0.625,0 1.289063,0 z"
         style="font-style:normal;font-variant:normal;font-weight:normal;font-stretch:normal;font-family:'Metal Slug Latino';-inkscape-font-specification:'Metal Slug Latino';fill:#ffffff;stroke:none;stroke-opacity:1"
         id="path1309" />
      <path
         d="m 71.650391,38.155659 q 0,1.328125 0,3.984375 -2.5,0 -7.578125,0 0,-1.328125 0,-3.984375 0.351562,0 1.054687,0 0,-1.40625 0,-4.21875 -1.289062,2.734375 -3.90625,8.203125 -1.054687,0 -3.164062,0 0,-2.734375 0,-8.203125 -1.328125,2.773437 -3.945313,8.242187 -2.65625,0 -7.96875,0 0.625,-1.367187 1.953125,-4.0625 0.664063,0 2.03125,0 2.34375,-4.765625 7.070313,-14.375 -0.703125,0 -2.070313,0 0.664063,-1.328125 1.953125,-3.945312 2.070313,0 6.25,0 0,1.71875 0,5.234375 0.859375,-1.757813 2.578125,-5.234375 1.914063,0 5.78125,0 0,1.328125 0,3.945312 -0.390625,0 -1.210937,0 0,4.804688 0,14.414063 0.3125,0 0.585937,0 0.3125,0 0.585938,0 z"
         style="font-style:normal;font-variant:normal;font-weight:normal;font-stretch:normal;font-family:'Metal Slug Latino';-inkscape-font-specification:'Metal Slug Latino';fill:#ffffff;stroke:none;stroke-opacity:1"
         id="path1311" />
      <path
         d="m 84.072266,28.233784 q 0,1.835937 0,5.546875 -1.40625,0 -4.257813,0 0,0.898437 0,2.734375 1.40625,0 4.140625,0 0,-0.546875 0,-1.679688 1.835938,0 5.507813,0 0,2.460938 0,7.34375 -5.585938,0 -16.71875,0 0,-1.875 0,-5.664062 0.507812,0 1.5625,0 0,-3.632813 0,-10.9375 -0.546875,0 -1.5625,0 0,-1.914063 0,-5.78125 5.585937,0 16.71875,0 0,2.460937 0,7.421875 -1.835938,0 -5.507813,0 0,-0.546875 0,-1.640625 -1.367187,0 -4.140625,0 0,0.898437 0,2.65625 1.09375,0 2.148438,0 1.054687,0 2.109375,0 z"
         style="font-style:normal;font-variant:normal;font-weight:normal;font-stretch:normal;font-family:'Metal Slug Latino';-inkscape-font-specification:'Metal Slug Latino';fill:#ffffff;stroke:none;stroke-opacity:1"
         id="path1313" />
      <path
         d="m 92.861328,29.210346 q -0.07813,-0.03906 -0.15625,-0.117187 -0.03906,-0.03906 -0.117187,-0.117188 -0.03906,-0.03906 -0.117188,-0.117187 -0.03906,-0.03906 -0.117187,-0.117188 -0.03906,-0.03906 -0.117188,-0.15625 -0.03906,-0.03906 -0.07813,-0.117187 -0.03906,-0.03906 -0.117187,-0.117188 -0.03906,-0.07813 -0.07813,-0.15625 -0.03906,-0.03906 -0.117188,-0.15625 0,-0.03906 -0.07813,-0.15625 0,-0.03906 -0.07813,-0.117187 0,-0.07813 -0.07813,-0.15625 0,-0.07813 -0.03906,-0.15625 -0.03906,-0.07813 -0.07813,-0.15625 0,-0.07813 -0.03906,-0.195313 -0.03906,-0.03906 -0.03906,-0.15625 -0.03906,-0.03906 -0.07813,-0.15625 0,-0.03906 0,-0.15625 -0.03906,-0.07813 -0.03906,-0.15625 0,-0.820312 0,-2.460937 0,-0.07813 0.03906,-0.195313 0,-0.03906 0,-0.15625 0.03906,-0.07813 0.03906,-0.195312 0.03906,-0.03906 0.07813,-0.15625 0,-0.03906 0.03906,-0.15625 0,-0.07813 0.03906,-0.195313 0.03906,-0.03906 0.07813,-0.15625 0.03906,-0.03906 0.07813,-0.15625 0.03906,-0.03906 0.07813,-0.15625 0.03906,-0.03906 0.07813,-0.15625 0.03906,-0.03906 0.07813,-0.15625 0.03906,-0.03906 0.117188,-0.15625 0,-0.03906 0.07813,-0.117187 0.03906,-0.07813 0.117187,-0.15625 0.03906,-0.03906 0.07813,-0.15625 0.03906,-0.03906 0.117188,-0.117188 0.03906,-0.03906 0.117187,-0.117187 0.03906,-0.03906 0.117188,-0.15625 0.03906,-0.03906 0.15625,-0.117188 0.03906,-0.03906 0.117187,-0.117187 0.03906,-0.03906 0.117188,-0.117188 0.07813,0 0.15625,-0.07813 0.03906,-0.03906 0.15625,-0.117187 0.03906,-0.03906 0.117187,-0.07813 0.07813,-0.03906 0.15625,-0.117188 0.03906,-0.03906 0.15625,-0.07813 0.03906,-0.03906 0.15625,-0.07813 0.03906,-0.03906 0.15625,-0.07813 0.03906,-0.03906 0.15625,-0.07813 0.07813,0 0.15625,-0.03906 0.07813,-0.03906 0.195313,-0.07813 0.03906,0 0.15625,-0.03906 0.03906,-0.03906 0.15625,-0.07813 0.07813,0 0.195312,-0.03906 0.03906,0 0.15625,0 0.03906,-0.03906 0.15625,-0.03906 0.07813,0 0.195313,-0.03906 0.03906,0 0.15625,0 0.07813,0 0.195312,0 0.03906,0 0.15625,0 3.554688,0 10.625002,0 0,2.382812 0,7.109375 -1.99219,0 -5.9375,0 0,-0.625 0,-1.875 -0.976564,0 -2.968752,0 -0.07813,0.195312 -0.15625,0.585937 2.382812,1.914063 7.148442,5.742188 0.0781,0.03906 0.19531,0.15625 0.0391,0.03906 0.15625,0.117187 0.0391,0.07813 0.15625,0.15625 0.0391,0.07813 0.15625,0.15625 0.0391,0.07813 0.15625,0.195313 0.0391,0.03906 0.15625,0.15625 0.0391,0.03906 0.11719,0.15625 0.0781,0.07813 0.15625,0.195312 0.0391,0.03906 0.11718,0.15625 0.0391,0.07813 0.15625,0.195313 0.0391,0.07813 0.11719,0.195312 0.0391,0.03906 0.11719,0.195313 0.0391,0.03906 0.11719,0.195312 0,0.03906 0.0781,0.195313 0.0391,0.03906 0.11719,0.195312 0,0.03906 0.0781,0.195313 0.0391,0.07813 0.0781,0.195312 0.0391,0.07813 0.0781,0.234375 0.0391,0.03906 0.0781,0.195313 0.0391,0.07813 0.0781,0.195312 0.0391,0.07813 0.0781,0.234375 0,1.132813 0,3.359375 -0.0391,0.07813 -0.0391,0.195313 -0.0391,0.03906 -0.0781,0.15625 0,0.07813 -0.0391,0.15625 -0.0391,0.07813 -0.0781,0.195312 -0.0391,0.03906 -0.0781,0.15625 0,0.03906 -0.0781,0.15625 0,0.03906 -0.0781,0.15625 -0.0391,0.03906 -0.0781,0.15625 -0.0391,0.03906 -0.0781,0.15625 -0.0391,0.03906 -0.11719,0.117188 -0.0391,0.07813 -0.11719,0.15625 -0.0391,0.03906 -0.0781,0.15625 -0.0391,0.03906 -0.11719,0.117187 -0.0391,0.03906 -0.15625,0.117188 -0.0391,0.03906 -0.11719,0.15625 -0.0391,0.03906 -0.11718,0.117187 -0.0391,0.03906 -0.11719,0.117188 -0.0781,0.03906 -0.15625,0.117187 -0.0391,0 -0.15625,0.07813 -0.0391,0.03906 -0.11719,0.117188 -0.0781,0.03906 -0.15625,0.07813 -0.0391,0.03906 -0.15625,0.117187 -0.0391,0 -0.15625,0.07813 -0.0391,0 -0.15625,0.07813 -0.0391,0 -0.15625,0.03906 -0.0781,0.03906 -0.15625,0.07813 -0.0781,0.03906 -0.19531,0.07813 -0.0391,0 -0.15625,0.03906 -0.0391,0 -0.15625,0.03906 -0.0781,0.03906 -0.19531,0.03906 -0.0391,0.03906 -0.15625,0.03906 -0.0781,0 -0.19532,0.03906 -4.218747,0 -12.734372,0 0,-2.460937 0,-7.421875 1.914063,0 5.78125,0 0,0.546875 0,1.601563 1.367188,0 4.023442,0 0.0391,0 0.0781,0 0.0391,0 0.11719,-0.03906 0,0 0.0781,-0.03906 0.0391,0 0.0781,-0.03906 0.0391,0 0.0781,-0.03906 0.0391,0 0.0781,-0.03906 0,0 0.0781,-0.03906 0,-0.03906 0.0391,-0.07813 0,-0.15625 0,-0.507813 -2.382817,-1.875 -7.226567,-5.625 -0.07813,-0.07813 -0.273437,-0.195312 -0.07813,-0.03906 -0.234375,-0.15625 -0.07813,-0.07813 -0.273438,-0.195313 -0.07813,-0.03906 -0.234375,-0.15625 z"
         style="font-style:normal;font-variant:normal;font-weight:normal;font-stretch:normal;font-family:'Metal Slug Latino';-inkscape-font-specification:'Metal Slug Latino';fill:#ffffff;stroke:none;stroke-opacity:1"
         id="path1315" />
    </g>
  </g>
</svg>
