<?xml version="1.0" encoding="UTF-8" standalone="no"?>
<svg
   xmlns:dc="http://purl.org/dc/elements/1.1/"
   xmlns:cc="http://creativecommons.org/ns#"
   xmlns:rdf="http://www.w3.org/1999/02/22-rdf-syntax-ns#"
   xmlns:svg="http://www.w3.org/2000/svg"
   xmlns="http://www.w3.org/2000/svg"
   xmlns:sodipodi="http://sodipodi.sourceforge.net/DTD/sodipodi-0.dtd"
   xmlns:inkscape="http://www.inkscape.org/namespaces/inkscape"
   width="500"
   height="200"
   viewBox="0 0 500 200"
   version="1.1"
   id="svg27"
   sodipodi:docname="3do.svg"
   style="fill:none"
   inkscape:version="0.92.5 (2060ec1f9f, 2020-04-08)">
  <metadata
     id="metadata31">
    <rdf:RDF>
      <cc:Work
         rdf:about="">
        <dc:format>image/svg+xml</dc:format>
        <dc:type
           rdf:resource="http://purl.org/dc/dcmitype/StillImage" />
        <dc:title />
      </cc:Work>
    </rdf:RDF>
  </metadata>
  <sodipodi:namedview
     pagecolor="#ffffff"
     bordercolor="#666666"
     borderopacity="1"
     objecttolerance="10"
     gridtolerance="10"
     guidetolerance="10"
     inkscape:pageopacity="0"
     inkscape:pageshadow="2"
     inkscape:window-width="1366"
     inkscape:window-height="743"
     id="namedview29"
     showgrid="false"
     inkscape:pagecheckerboard="true"
     inkscape:zoom="1.0307189"
     inkscape:cx="265.38675"
     inkscape:cy="-39.701743"
     inkscape:window-x="0"
     inkscape:window-y="0"
     inkscape:window-maximized="1"
     inkscape:current-layer="svg27" />
  <path
     d="m 189.37001,95.327781 v 0.31844 c 14.29547,0.26614 24.85083,3.10776 31.66139,8.524989 6.81369,5.41254 10.22287,11.9632 10.22287,19.6423 0,8.57025 -3.87279,15.64821 -11.63556,21.21748 -7.74559,5.58598 -18.06992,8.37545 -30.93569,8.37545 -11.12168,0 -19.71192,-2.22877 -25.79693,-6.66711 -6.08487,-4.43834 -9.12738,-9.48718 -9.12738,-15.1729 0,-3.76836 1.36196,-6.82633 4.09071,-9.13814 2.72392,-2.31181 5.99698,-3.4571 9.80484,-3.4571 3.57496,0 6.64822,1.01697 9.19168,3.02237 2.55986,2.02912 3.82207,4.70199 3.82207,8.00939 0,4.4193 -2.95931,8.12351 -8.89213,11.11482 -1.15997,0.58209 -1.75892,1.24504 -1.75892,1.97917 0,1.36148 1.65901,2.55657 5.00108,3.5926 3.32535,1.02868 6.71487,1.52773 10.20413,1.52773 11.42046,0 17.13833,-8.38965 17.13833,-25.17114 0,-16.6154 -6.86832,-24.921699 -20.57779,-24.921699 l -11.38783,0.4608 c -2.29371,0 -3.45602,-0.8434 -3.45602,-2.53753 0,-1.94342 1.2121,-2.92231 3.62242,-2.92231 l 8.29318,0.31594 c 8.46177,0 14.1261,-1.87942 17.00455,-5.65247 2.88782,-3.754 4.31924,-9.10473 4.31924,-16.047357 0,-7.146954 -1.08176,-12.414643 -3.25933,-15.771846 -2.17757,-3.373906 -5.91596,-5.048995 -11.20238,-5.048995 -2.87362,0 -5.58332,0.480002 -8.11243,1.458893 -2.5266,0.964687 -3.80786,1.912671 -3.80786,2.860655 0,0.874306 0.83435,1.79388 2.49586,2.739523 4.35217,2.775113 6.54832,5.783125 6.54832,9.021537 0,3.190959 -1.21211,5.711944 -3.65801,7.61041 -2.44106,1.874583 -5.18652,2.822567 -8.24557,2.822567 -3.52267,0 -6.66727,-1.08098 -9.42458,-3.219368 -2.762,-2.162116 -4.15971,-4.818594 -4.15971,-8.028441 0,-5.448138 3.07826,-10.16683 9.22494,-14.139528 6.15151,-3.986903 14.02869,-5.980276 23.67197,-5.980276 10.65307,0 19.63028,2.257179 26.94036,6.764357 7.33037,4.502496 10.98775,10.264235 10.98775,17.327989 0.0203,13.88774 -12.92961,22.28441 -38.80757,25.1688 z"
     id="path2"
     inkscape:connector-curvature="0"
     style="fill:#ffffff;stroke-width:1.56098163" />
  <path
     d="m 280.97154,51.236762 v 95.535978 h 9.35964 c 14.31264,0 22.95424,-3.75416 25.93103,-11.24797 2.97523,-7.50816 4.4566,-20.336 4.4566,-38.495679 0,-14.20602 -0.91786,-24.425144 -2.74264,-30.626456 -1.8123,-6.208492 -4.58773,-10.297484 -8.2935,-12.23872 -3.71045,-1.94592 -8.42618,-2.924812 -14.12844,-2.924812 H 280.97154 Z M 252.0684,146.77274 V 51.236762 h -14.99167 v -5.170127 h 60.06658 c 17.37372,0 31.13378,4.918184 41.25674,14.771413 10.12141,9.839023 15.19147,22.265373 15.19147,37.269683 0,7.771809 -1.54068,15.104209 -4.63455,21.930389 -3.0923,6.84521 -7.84705,13.07743 -14.26269,18.67277 -6.41719,5.60033 -12.99829,9.20464 -19.74642,10.81792 -6.75124,1.61093 -15.02757,2.41405 -24.87112,2.41405 h -53.00313 v -5.17012 z"
     id="path4"
     inkscape:connector-curvature="0"
     style="fill:#ffffff;stroke-width:1.56098163" />
  <path
     d="m 437.87673,99.434881 c 0,-16.21376 -0.33717,-26.901022 -1.00059,-32.047267 -0.67747,-5.170283 -2.41016,-9.323431 -5.20119,-12.483482 -2.7926,-3.152871 -7.39437,-4.732896 -13.79752,-4.732896 -5.39943,0 -9.70618,1.280629 -12.91712,3.822844 -3.21094,2.556575 -5.20119,6.645723 -5.99885,12.27915 -0.7805,5.628743 -1.17855,16.631941 -1.17855,32.997741 0,16.197059 0.33249,26.931619 1.01152,32.166059 0.66654,5.23428 2.46323,9.40647 5.37446,12.51423 2.90967,3.10776 7.47866,4.6522 13.71322,4.6522 5.16998,0 9.38775,-1.2427 12.64708,-3.7398 3.25933,-2.50897 5.30109,-6.56253 6.11748,-12.19595 0.83045,-5.63811 1.23006,-16.71734 1.23006,-33.232829 z m -72.96965,-0.4491 c 0,-15.836 5.21524,-28.794644 15.69411,-38.880614 10.44921,-10.064742 23.00419,-15.099376 37.62746,-15.099376 13.58366,0 25.73278,4.732897 36.45204,14.206026 10.72707,9.470632 16.07812,22.944864 16.07812,40.410694 0,16.368139 -5.0529,29.490679 -15.19616,39.360619 -10.14014,9.86509 -22.5234,14.80232 -37.14824,14.80232 -15.8065,0 -28.68928,-5.25333 -38.61088,-15.71706 -9.92628,-10.47341 -14.89645,-23.49621 -14.89645,-39.082609 z"
     id="path6"
     inkscape:connector-curvature="0"
     style="fill:#ffffff;stroke-width:1.56098163" />
  <path
     d="m 56.2317,166.5972 c 0,-2.17101 10.030555,-3.93211 22.410232,-3.93211 12.379521,0 22.410078,1.7611 22.410078,3.93211 0,2.17117 -10.030557,3.92774 -22.410078,3.92774 -12.379677,0 -22.410232,-1.75875 -22.410232,-3.92774 z"
     id="path10"
     inkscape:connector-curvature="0"
     style="fill:#ffffff;stroke-width:1.56098163" />
  <path
     d="m 59.592961,129.54231 c 0,-10.54677 8.52577,-19.09081 19.048659,-19.09081 10.52289,0 19.048659,8.54404 19.048659,19.09081 0,10.54224 -8.527955,19.09065 -19.048659,19.09065 -10.525074,-0.002 -19.048659,-8.55043 -19.048659,-19.09065 z"
     id="path12"
     inkscape:connector-curvature="0"
     style="fill:#ffffff;stroke-width:1.56098163" />
  <path
     d="m 60.899191,79.758861 c -2.80243,1.86896 -3.54936,12.72418 -3.54936,12.72418 0,0 0.74693,10.855379 3.54936,12.724349 2.800245,1.87099 17.742429,2.99755 17.742429,2.99755 0,0 14.942341,-1.12438 17.7404,-2.99755 2.80446,-1.86897 3.55139,-12.724349 3.55139,-12.724349 0,0 -0.744745,-10.85522 -3.55139,-12.72418 -2.798059,-1.873333 -17.7404,-2.997552 -17.7404,-2.997552 0,0 -14.942184,1.124219 -17.742429,2.997552 z"
     id="path14"
     inkscape:connector-curvature="0"
     style="fill:#ffffff;stroke-width:1.56098163" />
  <path
     d="M 78.641464,30.81728 100.9546,53.181745 78.641464,75.539841 56.328481,53.181745 Z"
     id="path16"
     inkscape:connector-curvature="0"
     style="fill:#ffffff;stroke-width:1.56098163" />
  <defs
     id="defs25">
    <radialGradient
       id="paint0_radial"
       cx="0"
       cy="0"
       r="1"
       gradientUnits="userSpaceOnUse"
       gradientTransform="matrix(23.001688,0,0,22.992478,81.274995,125.78034)">
      <stop
         offset="0.5225"
         stop-color="#FFE41B"
         id="stop18" />
      <stop
         offset="0.8933"
         stop-color="#716A13"
         id="stop20" />
      <stop
         offset="1"
         stop-color="#49482E"
         id="stop22" />
    </radialGradient>
  </defs>
</svg>
