<?xml version="1.0" encoding="UTF-8" standalone="no"?>
<!-- Created with Inkscape (http://www.inkscape.org/) -->

<svg
   xmlns:dc="http://purl.org/dc/elements/1.1/"
   xmlns:cc="http://creativecommons.org/ns#"
   xmlns:rdf="http://www.w3.org/1999/02/22-rdf-syntax-ns#"
   xmlns:svg="http://www.w3.org/2000/svg"
   xmlns="http://www.w3.org/2000/svg"
   xmlns:sodipodi="http://sodipodi.sourceforge.net/DTD/sodipodi-0.dtd"
   xmlns:inkscape="http://www.inkscape.org/namespaces/inkscape"
   width="500"
   height="200"
   viewBox="0 0 500 200"
   version="1.1"
   id="svg8"
   sodipodi:docname="aof.svg"
   inkscape:version="0.92.5 (2060ec1f9f, 2020-04-08)">
  <defs
     id="defs2" />
  <sodipodi:namedview
     id="base"
     pagecolor="#ffffff"
     bordercolor="#666666"
     borderopacity="1.0"
     inkscape:pageopacity="0.0"
     inkscape:pageshadow="2"
     inkscape:zoom="1.2019728"
     inkscape:cx="180.6939"
     inkscape:cy="44.69583"
     inkscape:document-units="mm"
     inkscape:current-layer="layer1"
     showgrid="false"
     units="px"
     inkscape:pagecheckerboard="true"
     inkscape:window-width="1366"
     inkscape:window-height="743"
     inkscape:window-x="0"
     inkscape:window-y="0"
     inkscape:window-maximized="1" />
  <metadata
     id="metadata5">
    <rdf:RDF>
      <cc:Work
         rdf:about="">
        <dc:format>image/svg+xml</dc:format>
        <dc:type
           rdf:resource="http://purl.org/dc/dcmitype/StillImage" />
        <dc:title />
      </cc:Work>
    </rdf:RDF>
  </metadata>
  <g
     inkscape:label="Layer 1"
     inkscape:groupmode="layer"
     id="layer1"
     transform="translate(-24.917569,-243.3359)">
    <path
       inkscape:connector-curvature="0"
       id="path3291"
       d="m 197.54884,421.21448 c -0.18331,-0.71621 -5.63367,-12.59368 -5.90266,-12.86311 -0.63237,-0.63334 0.31358,5.02507 1.16615,6.97565 0.25259,0.57785 0.40113,1.14286 0.3301,1.25558 -0.27263,0.43261 -0.59483,0.16587 -1.04433,-0.86508 -2.11531,-4.85103 -24.90449,-54.30258 -25.13552,-54.54303 -0.25124,-0.26149 -0.97888,0.0511 -4.58845,1.97106 -2.35943,1.25499 -4.43548,2.28181 -4.61346,2.28181 -0.25677,0 -0.3236,-0.46529 -0.3236,-2.25262 v -2.25265 h -1.03364 c -1.11007,0 -1.20149,-0.10153 -0.68915,-0.7653 0.18144,-0.23493 0.2754,-0.51384 0.20883,-0.61947 -0.22051,-0.34988 -1.9357,-0.19921 -2.83103,0.24881 -0.48466,0.2426 -0.94569,0.37763 -1.0245,0.30033 -0.0788,-0.0773 -0.14328,-0.73183 -0.14328,-1.45456 0,-1.28339 -0.0147,-1.31402 -0.63167,-1.31373 -0.34742,1.8e-4 -1.51027,0.152 -2.58411,0.33758 -1.07384,0.18565 -2.03607,0.33744 -2.13828,0.33761 -0.37728,6.5e-4 0.13504,-0.47609 1.45975,-1.35832 1.49765,-0.99739 2.51612,-1.97383 2.51612,-2.41226 0,-0.17147 -0.30296,-0.28392 -0.76566,-0.28392 -1.04618,0 -1.12276,-0.14551 -0.60269,-1.14526 0.44363,-0.85278 0.58327,-1.55792 0.30853,-1.55792 -0.18428,0 -6.90577,1.09712 -7.72616,1.26113 -1.33361,0.26651 -0.51361,-0.45363 3.33063,-2.92533 8.79449,-5.65449 20.9899,-12.47639 31.78862,-17.78205 l 2.55944,-1.2575 0.14253,-3.44555 c 0.0784,-1.89503 0.44874,-16.67412 0.82301,-32.84244 0.80843,-34.92412 0.91423,-38.32577 1.18675,-38.16061 0.11391,0.0691 0.67035,1.03009 1.23653,2.13565 0.56618,1.10557 1.13175,2.01014 1.25682,2.01014 0.12507,0 0.23185,-0.0266 0.23727,-0.0564 0.52776,-3.00759 1.54592,-7.49005 1.70131,-7.49005 0.11662,0 0.29674,0.35479 0.40028,0.78844 0.43069,1.80395 0.67827,2.48427 0.86327,2.37212 0.10777,-0.0652 0.47541,-1.31 0.81696,-2.76595 0.34156,-1.45599 0.70277,-2.73305 0.8027,-2.83792 0.1757,-0.18446 0.33801,0.40983 0.93054,3.40618 0.46333,2.34299 0.64772,2.16744 1.2478,-1.18812 0.68086,-3.80726 0.71688,-3.81845 1.57516,-0.48869 0.56156,2.17857 0.72724,2.58914 0.9548,2.36599 0.0631,-0.062 0.42079,-1.66288 0.79486,-3.55776 0.37406,-1.89488 0.73345,-3.49755 0.79864,-3.56147 0.20922,-0.20513 0.33024,0.4373 0.79098,4.19971 0.2484,2.02858 0.54747,3.7823 0.66457,3.89714 0.13073,0.12809 0.48531,-0.64323 0.91875,-1.99886 0.6241,-1.95197 2.50543,-8.047 2.7152,-8.7966 0.0871,-0.31134 1.01201,-0.39463 1.01201,-0.0912 0,0.10478 -0.21385,1.74531 -0.47521,3.64571 -0.43078,3.13222 -0.44296,3.53034 -0.13025,4.2585 0.18975,0.4418 0.51106,2.22243 0.71406,3.95697 0.45841,3.91697 0.56163,4.43635 0.86222,4.33807 0.13193,-0.0431 1.03958,-2.63733 2.01701,-5.76493 0.97743,-3.12756 1.84376,-5.75182 1.92517,-5.83165 0.0814,-0.08 0.26114,-0.0342 0.39935,0.10123 0.18199,0.17856 -0.30296,4.32394 -1.7572,15.02167 l -2.00852,14.77517 1.38822,1.64588 c 0.76353,0.90525 3.36981,4.22491 5.79175,7.37709 2.42193,3.15215 4.48001,5.75893 4.57351,5.79284 0.0935,0.034 2.22992,-0.81234 4.74761,-1.88053 10.76115,-4.56581 23.71219,-9.37864 35.98313,-13.37196 3.93018,-1.27899 5.01828,-1.48845 4.6436,-0.89392 -0.0748,0.11864 -0.93851,0.61147 -1.91939,1.09514 -3.03381,1.49591 -12.42318,7.13963 -12.42318,7.46729 0,0.1095 0.62019,0.36845 1.3782,0.57514 0.758,0.20659 1.37819,0.45847 1.37819,0.55952 0,0.10094 -0.42347,0.39564 -0.94105,0.65456 -0.51758,0.25884 -0.89681,0.51422 -0.84273,0.56726 0.16333,0.16026 3.44101,-1.00288 3.85053,-1.36632 0.20971,-0.18623 0.62153,-0.33838 0.91519,-0.33838 0.29367,0 3.5147,-0.96959 7.15786,-2.1546 3.64316,-1.18504 6.73328,-2.08832 6.86693,-2.00733 0.27251,0.16528 -0.13404,0.78297 -0.51528,0.78297 -0.43077,0 -4.5466,2.36962 -4.54685,2.61774 -1.4e-4,0.14314 0.62083,0.31872 1.43536,0.40561 5.3622,0.57186 9.04411,2.44514 10.7988,5.49425 0.37885,0.65834 0.95956,1.35635 1.29045,1.55111 0.33089,0.19479 1.05126,0.64963 1.60084,1.01082 0.54956,0.36119 1.10297,0.62277 1.2298,0.58134 0.12682,-0.0413 0.7884,-1.38967 1.47019,-2.99602 0.68178,-1.60633 1.51277,-3.56153 1.84664,-4.34486 l 0.60703,-1.42426 14.72522,0.13429 c 15.471,0.14108 20.81225,0.2854 20.81225,0.5615 0,0.0915 -0.88614,1.04733 -1.9692,2.12391 -1.08306,1.07661 -1.92757,2.081 -1.87668,2.23202 0.0583,0.17325 0.84963,0.32841 2.14147,0.42025 3.03457,0.21575 7.871,0.30193 8.03289,0.14315 0.0776,-0.0762 -3.02002,-4.60193 -6.88369,-10.05726 -3.86367,-5.45535 -7.02485,-9.97833 -7.02485,-10.05105 0,-0.25618 0.97155,0.39546 12.75966,8.55656 6.5418,4.529 12.00627,8.1979 12.14327,8.15316 0.17224,-0.0564 0.26761,-2.90842 0.3091,-9.24217 0.033,-5.03841 0.13636,-9.16059 0.22969,-9.16038 0.0933,2.3e-4 0.4756,0.48172 0.8495,1.07003 3.92486,6.17531 4.47452,6.78265 4.4849,4.95538 0.002,-0.34071 0.0811,-0.61722 0.17579,-0.61445 0.0947,0.003 1.51233,2.08643 3.15019,4.63041 1.63785,2.54398 3.10822,4.73147 3.26748,4.86109 0.41309,0.3362 0.45559,0.21073 3.06094,-9.04598 2.6598,-9.4501 2.73186,-9.68636 2.95419,-9.68636 0.0911,0 0.71587,2.81298 1.38834,6.25108 0.67244,3.43808 1.30175,6.33593 1.39845,6.43965 0.28073,0.30113 0.45938,-0.15112 1.48117,-3.74898 0.53061,-1.86838 1.06341,-3.42931 1.18403,-3.46871 0.12059,-0.0396 0.66424,2.23556 1.2081,5.05555 0.54386,2.82 1.08308,5.22356 1.19827,5.34126 0.27621,0.28215 -0.0693,0.72309 5.23601,-6.68101 2.5486,-3.55684 4.73428,-6.52786 4.85703,-6.60226 0.31039,-0.18801 0.33699,-0.41872 -0.81047,7.02443 -1.04524,6.78014 -1.17323,7.96235 -0.86137,7.95615 0.12724,-0.003 5.67253,-7.57014 6.99332,-9.54374 0.40514,-0.60542 0.39463,0.25677 -0.0369,3.01771 -0.54613,3.49445 -0.53841,3.37575 -0.21954,3.37575 0.19294,0 13.61162,-10.15176 15.43045,-11.67376 0.2218,-0.18565 0.46037,-0.28157 0.53001,-0.21339 0.0698,0.0682 -1.89491,3.59816 -4.36567,7.84418 -2.47078,4.24602 -4.49232,7.80502 -4.49232,7.90885 0,0.10389 0.0795,0.18889 0.17657,0.18889 0.0971,0 3.27556,-2.38048 7.06324,-5.28993 3.78767,-2.90948 6.96687,-5.29164 7.06486,-5.29371 0.23865,-0.006 -0.11075,0.64051 -3.42701,6.32912 -1.561,2.67776 -2.8382,4.99074 -2.8382,5.13993 0,0.36648 0.1577,0.31011 6.00074,-2.14643 4.97338,-2.09091 5.71393,-2.33602 5.71393,-1.89128 0,0.12455 -3.90203,3.27354 -8.67116,6.99752 -4.76912,3.72395 -8.70558,6.86573 -8.74769,6.98175 -0.0421,0.11599 0.0415,0.21103 0.18587,0.21103 0.26339,0 15.01723,-6.02377 19.52342,-7.97109 2.48903,-1.07564 2.87672,-1.18038 3.09388,-0.83578 0.0707,0.11215 -1.96475,1.8453 -4.52301,3.85171 -2.55825,2.00642 -4.65136,3.76474 -4.65136,3.90738 0,0.30804 -0.10744,0.31264 9.84582,-0.42225 8.33861,-0.61566 8.95486,-0.64161 8.78359,-0.36984 -0.065,0.103 -3.19786,1.4738 -6.96194,3.04595 -7.2404,3.02412 -7.60353,3.19241 -7.37418,3.4173 0.0801,0.0785 4.26323,-0.17029 9.29617,-0.55262 9.92224,-0.75384 10.85013,-0.79717 10.51745,-0.49093 -0.12007,0.11038 -6.19177,2.70823 -13.49276,5.7728 -7.30099,3.06455 -13.23925,5.67583 -13.19609,5.80276 0.043,0.12691 1.67539,0.7738 3.6272,1.43748 1.95178,0.66365 3.80714,1.32535 4.12296,1.47047 0.55552,0.2553 0.54053,0.26946 -0.4594,0.432 -0.5685,0.0924 -2.01559,0.18269 -3.21578,0.20069 -2.42243,0.036 -3.22754,0.21162 -2.72122,0.59311 0.17004,0.12839 2.84181,1.07561 5.937,2.10529 5.78089,1.92313 6.55234,2.2149 6.35859,2.40491 -0.0617,0.0605 -5.41972,0.35479 -11.90658,0.65377 -6.48686,0.29897 -11.82012,0.5453 -11.8517,0.54736 -0.50042,0.0331 3.41296,4.50908 3.94232,4.50908 0.14307,0 1.03306,-0.29042 1.97768,-0.64559 2.50183,-0.94043 2.75114,-1.00267 2.75114,-0.68699 0,0.15111 -0.46515,1.06548 -1.03364,2.03206 -0.5685,0.96661 -1.03365,1.92823 -1.03365,2.13695 0,0.35641 1.59636,2.25673 2.20567,2.62562 0.15288,0.0927 1.19218,-0.17443 2.3094,-0.59355 2.70909,-1.01611 3.06499,-1.11342 3.06499,-0.8379 0,0.22578 -10.46499,18.63509 -10.82052,19.03488 -0.0984,0.11068 -1.1926,0.28629 -2.43152,0.39003 -1.23896,0.10389 -2.71073,0.31987 -3.27059,0.48004 l -1.01796,0.29131 -0.63907,2.51653 c -0.35149,1.38411 -0.79784,2.88921 -0.99191,3.34469 -0.67281,1.57918 -0.63121,1.57897 3.5547,-0.0177 1.7895,-0.68198 3.33772,-1.18903 3.44046,-1.12676 0.23616,0.14315 -0.49698,3.49286 -1.28216,5.85831 -1.76776,5.32561 -5.12552,9.67903 -8.99958,11.66821 -6.08153,3.12266 -13.2265,1.70239 -15.53761,-3.0886 -0.45092,-0.93477 -0.76322,-1.26512 -1.50687,-1.59396 -0.51593,-0.22814 -1.2698,-0.65489 -1.67527,-0.94822 -0.64685,-0.46804 -0.76866,-0.4912 -0.99402,-0.18889 -0.14123,0.18948 -0.8611,1.96675 -1.59964,3.94958 -0.73855,1.98283 -1.45101,3.60412 -1.58325,3.60285 -0.13224,-0.001 -1.15068,-1.47106 -2.26318,-3.2663 -1.11253,-1.79525 -2.16081,-3.2641 -2.32952,-3.2641 -0.16871,0 -0.37161,0.25353 -0.45088,0.56319 -0.0793,0.30972 -0.27136,0.55994 -0.42687,0.55601 -0.1555,-0.003 -1.76562,-2.3913 -3.57803,-5.30527 -1.8124,-2.91397 -3.41389,-5.25932 -3.55887,-5.21195 -0.145,0.0475 -1.46024,3.45838 -2.92279,7.57991 -1.46255,4.12156 -2.78198,7.68657 -2.93206,7.92227 -0.25268,0.39676 -0.59649,0.42851 -4.64242,0.42851 -3.43371,0 -4.39477,-0.0643 -4.4873,-0.30095 -0.0648,-0.16557 0.24717,-1.30224 0.69317,-2.52604 0.44601,-1.22379 0.7248,-2.30952 0.61953,-2.41276 -0.10527,-0.1033 -0.95661,-0.1576 -1.89188,-0.12071 l -1.70049,0.067 -0.91879,2.59052 -0.9188,2.59053 -4.69245,0.0611 c -2.58085,0.0336 -4.78011,-0.0236 -4.88723,-0.12986 -0.10713,-0.10507 0.17293,-1.22695 0.62231,-2.4931 0.4494,-1.26615 0.75614,-2.39877 0.68167,-2.51695 -0.0758,-0.12012 -1.59085,-0.21486 -3.43894,-0.21486 -1.81694,0 -3.35614,-0.0835 -3.42045,-0.18564 -0.0643,-0.10212 1.85233,-5.78013 4.25922,-12.61791 2.40688,-6.83782 4.3172,-12.58303 4.24516,-12.76713 -0.17795,-0.45475 -5.26082,-0.49176 -5.68978,-0.0413 -0.15367,0.16144 -2.61266,7.18112 -5.4644,15.59952 l -5.185,15.30616 -5.12091,0.42187 c -2.81649,0.23198 -5.17721,0.36662 -5.24603,0.29912 -0.0688,-0.0676 0.30111,-1.3131 0.82207,-2.76799 0.58756,-1.64089 0.86566,-2.72523 0.73244,-2.85589 -0.13323,-0.13074 -1.4914,-0.10566 -3.57707,0.0661 -1.84926,0.15229 -3.41306,0.22696 -3.4751,0.16616 -0.0621,-0.0608 1.91676,-5.80146 4.39735,-12.75695 2.48059,-6.95549 4.45075,-12.79815 4.37816,-12.98368 -0.0771,-0.19685 -0.42177,-0.33734 -0.82831,-0.33734 -0.38297,0 -0.69631,-0.0496 -0.69631,-0.11009 0,-0.0605 0.54236,-1.17937 1.20524,-2.48652 1.01687,-2.00517 1.1515,-2.40993 0.86137,-2.58978 -0.50359,-0.31223 -3.06569,-0.2671 -3.49596,0.0614 -0.21344,0.16291 -2.80444,7.67978 -6.15358,17.85217 -3.1817,9.6638 -5.83224,17.61854 -5.89008,17.67716 -0.19095,0.19361 -10.05407,0.90138 -10.22043,0.73353 -0.0896,-0.0903 0.2457,-1.32266 0.74503,-2.73841 0.59462,-1.68596 0.82998,-2.6505 0.68213,-2.7955 -0.14786,-0.14492 -1.34328,-0.12957 -3.46465,0.0449 -1.7814,0.14639 -3.32699,0.21279 -3.43462,0.14757 -0.10765,-0.0652 0.59313,-2.44429 1.55726,-5.28677 0.96414,-2.84249 1.6831,-5.23666 1.5977,-5.32042 -0.46831,-0.45926 -0.98258,0.76223 -3.26668,7.759 -1.7161,5.25688 -2.62175,7.71639 -2.86684,7.78557 -0.664,0.18741 -9.22685,0.85348 -9.35512,0.7277 -0.0698,-0.0685 0.25024,-1.29924 0.71131,-2.73497 0.46108,-1.43574 0.7681,-2.72186 0.68225,-2.8581 -0.10217,-0.16203 -0.66507,-0.20099 -1.63,-0.11274 -1.38599,0.12691 -1.55645,0.20837 -2.85738,1.36277 -5.89234,5.22931 -15.37101,4.78946 -18.18365,-0.84377 -0.52299,-1.04748 -0.82121,-1.33931 -2.05168,-2.00777 -0.96798,-0.52585 -1.52945,-0.71229 -1.71348,-0.56894 -0.15054,0.11717 -0.80895,1.80226 -1.46311,3.74446 -0.65416,1.94216 -1.31611,3.664 -1.47101,3.82633 -0.17786,0.18623 -1.79695,0.44911 -4.39421,0.71311 -2.26192,0.22992 -4.28853,0.48625 -4.50356,0.56962 -0.81902,0.31748 -0.8005,-0.17383 0.11063,-2.9343 0.68301,-2.06928 0.8642,-2.8916 0.67748,-3.07473 -0.18671,-0.18299 -1.59472,0.15672 -5.26454,1.27066 -9.53879,2.89541 -16.17441,5.10069 -16.29798,5.41649 -0.1512,0.38645 5.63942,19.38781 8.43328,27.67293 1.12225,3.32799 2.30162,6.50917 2.62082,7.06926 l 0.58037,1.01832 -0.91897,-0.12101 c -0.50544,-0.0664 -1.60656,-0.43642 -2.44694,-0.82211 -0.84037,-0.38566 -1.58476,-0.6455 -1.65418,-0.57744 -0.171,0.16764 0.32285,1.92325 1.02573,3.64624 0.53593,1.31375 0.56907,2.04841 0.079,1.75139 -0.11376,-0.0691 -0.68273,-0.98155 -1.26438,-2.028 -1.68411,-3.02989 -1.88094,-2.9271 -1.37128,0.71616 0.4264,3.04805 1.14535,6.04073 1.62688,6.77194 0.44078,0.66935 0.41969,0.74003 -0.22078,0.74003 -0.38489,0 -0.58986,-0.15819 -0.68469,-0.52883 z m -7.24198,-14.107 c -0.13888,-1.25216 -0.24647,-2.95688 -0.23904,-3.78832 0.0111,-1.25794 0.0594,-1.44105 0.28714,-1.09078 0.15047,0.23139 0.45726,0.637 0.68172,0.90106 0.40562,0.47722 0.40772,0.47539 0.34455,-0.3016 -0.0828,-1.01838 0.48413,-1.15925 1.00781,-0.25028 0.62572,1.08591 3.11363,2.63462 3.54803,2.20862 0.0654,-0.0641 -0.46292,-1.77423 -1.17399,-3.80021 -2.3764,-6.77091 -9.53243,-29.87464 -9.53243,-30.77612 0,-0.57629 1.0854,-0.97127 11.63337,-4.23344 4.2769,-1.32273 7.81862,-2.44287 7.87048,-2.48924 0.0519,-0.0463 -0.0814,-0.27477 -0.29607,-0.50731 -0.37196,-0.4031 -0.3498,-0.45496 0.47014,-1.10002 l 0.8605,-0.67702 -0.43491,-0.94583 c -0.47925,-1.04225 -0.31035,-1.35168 0.74166,-1.3587 0.59257,-0.003 0.68189,-0.48973 0.16709,-0.90873 -0.31288,-0.25471 -0.31187,-0.3413 0.01,-0.82235 0.4469,-0.6689 0.25358,-1.01935 -0.4648,-0.84254 -0.86198,0.21221 -1.08127,-0.0632 -0.67061,-0.84191 0.47339,-0.89775 0.29863,-1.26104 -0.69448,-1.44373 -0.44882,-0.0826 -0.81603,-0.26946 -0.81603,-0.41511 0,-0.1458 0.51682,-0.76421 1.14849,-1.37438 1.15104,-1.11182 1.3668,-1.46421 0.89654,-1.46421 -0.13859,0 -5.35816,1.87534 -11.59908,4.16739 -6.24091,2.29205 -11.49418,4.16737 -11.67392,4.16737 -0.3617,0 -0.36103,0.002 -2.55241,-7.05185 -0.83928,-2.70153 -1.47747,-5.03585 -1.41818,-5.18734 0.0593,-0.15141 1.28269,-0.84643 2.71869,-1.54432 5.22793,-2.54064 10.82288,-4.66326 26.4996,-10.05329 10.38566,-3.57086 12.06023,-4.20116 13.02588,-4.90289 0.41583,-0.30216 1.45322,-0.87777 2.30532,-1.2791 0.85209,-0.40136 1.5498,-0.85068 1.55047,-0.99852 6.8e-4,-0.14786 -0.22716,-0.42567 -0.50627,-0.6174 -0.62138,-0.42683 -0.44327,-0.62758 1.07137,-1.20759 0.62597,-0.23965 1.17295,-0.53824 1.21549,-0.66341 0.0426,-0.12514 -0.50313,-0.36695 -1.21262,-0.5373 -0.70949,-0.1703 -1.28616,-0.41107 -1.28149,-0.53497 0.005,-0.12396 1.09647,-0.83348 2.42622,-1.57684 1.32975,-0.7434 2.41893,-1.42299 2.4204,-1.51026 0.001,-0.0874 -0.6868,-0.18859 -1.52948,-0.22519 -0.84269,-0.0366 -1.56733,-0.17118 -1.61032,-0.29901 -0.043,-0.12779 1.16733,-0.98381 2.68959,-1.9022 1.52226,-0.91841 2.87122,-1.79211 2.99769,-1.94157 0.17221,-0.20365 -0.0608,-0.31093 -0.92772,-0.42786 -0.63673,-0.0859 -1.15769,-0.23464 -1.15769,-0.33083 0,-0.0962 1.65384,-0.91389 3.67519,-1.8174 2.02135,-0.90351 3.67518,-1.73256 3.67518,-1.84238 0,-0.10979 -0.28425,-0.44085 -0.63167,-0.7357 l -0.63167,-0.53603 0.78824,-0.80136 c 0.43354,-0.44073 0.72164,-0.86668 0.64022,-0.94651 -0.35369,-0.34688 -16.06122,4.79427 -25.51517,8.35123 -21.23005,7.98759 -42.5957,18.26522 -60.29113,29.00212 -4.8294,2.93032 -6.19402,3.87025 -5.74637,3.95802 0.20744,0.0407 1.6511,-0.12897 3.20814,-0.3771 1.55704,-0.24821 2.87976,-0.40325 2.93937,-0.34478 0.0596,0.0584 -0.11785,0.56295 -0.39433,1.12106 -0.72319,1.45982 -0.67074,1.67851 0.40252,1.67851 0.8992,0 1.38311,0.28983 0.9361,0.56089 -0.39122,0.23699 -0.26081,0.73112 0.22595,0.85596 0.41691,0.10684 0.4594,0.30727 0.4594,2.16629 0,1.35295 0.0867,2.04844 0.25541,2.04844 0.14049,0 2.6365,-1.27054 5.54672,-2.82344 2.91021,-1.55294 5.38769,-2.79199 5.50551,-2.75348 0.11782,0.0384 5.92352,12.53569 12.90158,27.77145 6.97805,15.23577 12.81822,27.93818 12.97815,28.22756 0.15992,0.28953 0.34436,0.47358 0.40986,0.40936 0.0655,-0.0643 0.005,-1.14128 -0.13347,-2.3934 z m 21.48173,-38.65226 c 1.87977,-0.19302 3.48362,-0.42116 3.56412,-0.50684 0.37212,-0.39599 11.63346,-33.06648 11.45785,-33.24056 -0.24937,-0.24732 -8.00159,0.62788 -8.3189,0.93908 -0.24582,0.24113 -10.98023,32.37435 -10.98023,32.86912 0,0.36606 0.14148,0.36405 4.27716,-0.0608 z m 38.1732,-0.85283 c 1.77762,-0.17384 2.89466,-0.38339 3.00876,-0.56443 0.0998,-0.15849 0.70571,-1.878 1.34646,-3.82137 0.64075,-1.9434 1.76755,-5.35808 2.50401,-7.58821 l 1.33902,-4.05474 4.70883,0.082 c 2.58986,0.0452 4.7855,0.15082 4.87921,0.23464 0.0937,0.0841 -0.96578,3.49191 -2.35442,7.57318 -1.38863,4.08124 -2.52479,7.59957 -2.52479,7.8185 0,0.47836 0.0535,0.47937 4.7741,0.0879 1.93092,-0.15996 3.59607,-0.38388 3.70034,-0.49733 0.33534,-0.36491 11.94974,-35.98382 11.80717,-36.21007 -0.15692,-0.2491 -7.65907,-0.0118 -7.90854,0.24998 -0.0849,0.0891 -1.09459,3.2452 -2.24371,7.01354 -1.14913,3.76831 -2.13414,6.89543 -2.1889,6.94914 -0.0548,0.0537 -2.43228,0.15347 -5.28336,0.22195 -4.45167,0.10654 -5.18379,0.0776 -5.18379,-0.20513 0,-0.18121 1.08533,-3.31196 2.41184,-6.95755 1.32652,-3.64556 2.41184,-6.81323 2.41184,-7.03922 0,-0.38781 -0.22249,-0.40212 -3.96231,-0.255 -2.17926,0.0856 -4.11735,0.23434 -4.30685,0.33029 -0.21455,0.10862 -2.53468,7.04474 -6.14996,18.38567 -3.19297,10.01614 -5.80292,18.28721 -5.79989,18.38015 0.008,0.23552 1.69926,0.19036 5.01494,-0.13399 z m 39.66701,0.0484 c 1.96539,-0.14757 3.57246,-0.37341 3.74107,-0.52547 0.16258,-0.14668 2.60496,-7.15225 5.42751,-15.56812 l 5.1319,-15.30158 4.48847,-0.11274 c 2.46866,-0.062 4.53728,-0.16321 4.59691,-0.22519 0.37146,-0.38581 4.52255,-6.79113 4.52255,-6.97848 0,-0.37474 -26.74837,-0.31285 -27.06611,0.0626 -0.52055,0.61513 -3.71339,7.1844 -3.58829,7.38291 0.073,0.11599 2.00932,0.20866 4.35388,0.20866 2.32227,0 4.2745,0.0829 4.33828,0.18387 0.0638,0.10123 -2.34882,7.0703 -5.36134,15.4869 -3.01252,8.41657 -5.42989,15.37888 -5.37193,15.47182 0.1422,0.22784 0.76312,0.21692 4.7871,-0.0856 z m -55.02331,-0.75376 c 2.07239,-0.54084 3.99897,-1.6132 5.74266,-3.19644 1.90572,-1.73032 3.11881,-3.39089 4.38217,-5.99856 1.31969,-2.72399 2.46968,-6.91691 1.89708,-6.91691 -0.45184,0 -11.78179,4.37547 -11.78179,4.54995 0,0.11186 0.38761,0.36019 0.86137,0.55159 1.3042,0.52688 1.89501,1.16438 1.89501,2.04472 0,2.57096 -3.40018,4.444 -6.07653,3.34732 -1.05943,-0.43412 -1.49228,-1.16919 -1.75842,-2.98618 -0.90975,-6.21118 4.00418,-11.27208 14.22139,-14.6467 l 2.59641,-0.85756 3.91108,-6.16537 c 2.17128,-3.42276 3.82354,-6.25119 3.71429,-6.35833 -0.24362,-0.23877 -4.74371,1.25095 -8.31783,2.75383 -10.76507,4.52652 -18.42827,10.68413 -21.61942,17.37177 -1.18323,2.4797 -1.62959,4.32424 -1.76584,7.29708 -0.10988,2.39754 -0.0628,2.93655 0.38162,4.37152 0.43238,1.39604 0.70142,1.82753 1.82909,2.93342 1.06595,1.04535 1.60779,1.38529 2.7963,1.75424 1.80304,0.55977 5.24369,0.63284 7.09136,0.15053 z m 88.05593,-18.22036 c 3.39484,-10.14201 6.08501,-18.5258 5.97816,-18.63057 -0.25394,-0.2491 -7.22198,1.08576 -7.61151,1.45805 -0.38096,0.36408 -12.69792,35.2874 -12.53599,35.54435 0.0663,0.10536 1.89277,0.1638 4.05875,0.12986 l 3.93814,-0.0617 z m 7.68406,16.69429 c 0.37272,-1.02213 1.90292,-5.33031 3.40043,-9.5737 1.49751,-4.24342 2.83032,-7.71075 2.9618,-7.7052 0.13149,0.006 2.66813,3.92467 5.63698,8.70909 2.96886,4.78444 5.57672,8.91066 5.79524,9.16938 0.32663,0.38675 0.43504,0.41423 0.60944,0.15436 0.27194,-0.40496 13.57913,-35.73463 13.57913,-36.05164 0,-0.13074 -0.28425,-0.23404 -0.63167,-0.22903 -1.21614,0.0177 -7.65373,0.83321 -7.81709,0.99152 -0.0907,0.088 -1.56037,3.94607 -3.26588,8.57365 -1.70552,4.62755 -3.19533,8.44665 -3.3107,8.48685 -0.11535,0.0401 -2.88553,-3.82964 -6.15592,-8.59959 -3.27039,-4.76995 -6.03163,-8.7023 -6.13609,-8.73848 -0.10446,-0.0363 -0.26173,0.11599 -0.34953,0.33787 -0.55808,1.41168 -12.53043,35.89527 -12.53043,36.09101 0,0.16292 1.23259,0.24231 3.76831,0.24231 h 3.76831 z m 37.94479,1.52607 c 4.22,-1.10134 8.0291,-4.56185 10.33642,-9.39047 0.85288,-1.78485 1.86137,-4.79823 2.20229,-6.58036 0.11972,-0.62588 0.0804,-0.81686 -0.16829,-0.81686 -0.5497,0 -11.98649,4.42009 -12.06962,4.66464 -0.043,0.12632 0.50159,0.50809 1.21017,0.84806 1.59323,0.76444 1.88807,1.29944 1.4881,2.70037 -0.55603,1.94763 -2.79259,3.2612 -5.03865,2.95931 -2.16691,-0.29131 -2.85571,-1.37565 -2.8757,-4.52712 -0.0117,-1.84966 0.0536,-2.16056 0.74508,-3.54719 2.84992,-5.71489 9.03562,-9.75984 16.18275,-10.58221 2.26481,-0.26061 2.2991,-0.2736 2.81758,-1.06407 0.99664,-1.51955 9.06895,-15.75429 9.06895,-15.9922 0,-0.39095 -0.34658,-0.29455 -3.51624,0.97759 -6.44654,2.58745 -11.22614,5.03321 -16.3527,8.36781 -10.98652,7.1463 -16.42347,14.78955 -16.42347,23.08806 0,4.90988 1.68153,7.60427 5.49185,8.79982 1.60727,0.5043 5.14622,0.55294 6.90149,0.0947 z m -126.84082,-1.80374 c 0.6516,-0.68581 1.01244,-1.69339 0.60645,-1.69339 -0.20016,0 -2.71362,2.26581 -2.81935,2.54156 -0.21142,0.55135 1.51011,-0.10831 2.2129,-0.84817 z m 133.84606,-0.33056 c 0.34521,-0.35337 0.59209,-0.82355 0.54863,-1.04485 -0.0654,-0.333 -0.28391,-0.22991 -1.26763,0.59719 -0.65375,0.54978 -1.19625,1.12102 -1.20556,1.26942 -0.0274,0.43908 1.20836,-0.0885 1.92456,-0.82176 z m -127.99429,-7.83916 c 0.44296,-0.49498 2.33689,-6.48636 2.1461,-6.78912 -0.0928,-0.14727 -0.37263,-0.14432 -0.81977,0.009 -0.50395,0.17236 -0.73913,0.44463 -0.91244,1.05657 -0.12842,0.45342 -0.23408,0.94993 -0.23477,1.10332 -0.001,0.24231 -1.19931,3.95209 -1.52872,4.73323 -0.18466,0.4379 0.94102,0.34396 1.34961,-0.11274 z m -60.46269,-1.33494 c 0,-0.91364 -0.0471,-0.99869 -0.51682,-0.93329 -0.59743,0.0832 -0.81548,1.00374 -0.41263,1.74194 0.41967,0.76901 0.92945,0.32548 0.92945,-0.80865 z m 23.51781,-0.10212 c 0.31324,-0.1399 0.67795,-0.5201 0.81046,-0.84475 0.75179,-1.84179 4.37296,-13.24647 4.28077,-13.48208 -0.11099,-0.28362 -4.83599,1.23419 -13.67861,4.39407 -7.65612,2.73594 -7.54522,2.68441 -7.78487,3.61654 -0.41464,1.61285 -0.74966,4.59845 -0.53917,4.80487 0.12484,0.12248 3.28807,-0.92042 7.88402,-2.5992 4.25668,-1.55483 7.71336,-2.70123 7.76044,-2.57373 0.0467,0.12632 -0.75438,1.05727 -1.78017,2.06851 -1.02578,1.01123 -1.86507,1.96846 -1.86507,2.12718 0,0.15879 0.31872,0.39756 0.70827,0.53072 0.70891,0.24231 0.74167,0.37946 0.32686,1.36762 -0.1459,0.34756 -0.0147,0.39419 1.10888,0.39419 0.7009,0 1.33825,0.10153 1.41633,0.22519 0.18599,0.29514 0.64832,0.2851 1.35186,-0.0295 z m -25.60369,-5.20818 c 0.49782,-3.50489 0.66202,-3.79489 1.21973,-2.15407 0.17632,0.5188 0.42725,0.97815 0.55757,1.02074 0.13805,0.0452 0.35134,-0.74812 0.51104,-1.90067 0.15075,-1.08794 0.33342,-2.30754 0.40593,-2.7102 0.10199,-0.5664 0.0513,-0.73212 -0.22376,-0.73212 -0.47487,0 -5.8587,2.36551 -6.5865,2.89395 -0.64448,0.46792 -0.92412,1.61132 -0.39408,1.61132 0.17903,0 0.66685,-0.11658 1.08402,-0.25943 0.64868,-0.22165 0.80066,-0.20276 1.04969,0.13134 0.27152,0.36414 0.30921,0.35753 0.55774,-0.098 0.35837,-0.65668 0.43755,-0.52555 0.69639,1.15349 0.40009,2.59537 0.47039,2.90196 0.66541,2.90196 0.10608,0 0.31165,-0.83628 0.45682,-1.85843 z m 165.50287,-12.61475 c 1.37073,-3.74785 2.67025,-7.16902 2.8878,-7.60266 0.21756,-0.43362 0.72238,-1.82745 1.12188,-3.09737 0.39946,-1.26993 0.80886,-2.30897 0.90974,-2.30897 0.10091,0 1.34431,0.97553 2.76312,2.16783 l 2.57965,2.1678 1.6245,-0.15701 1.62448,-0.15702 -0.14638,0.636 c -0.48421,2.10348 -0.65602,1.78211 2.26692,4.24023 1.47322,1.23897 2.77235,2.28591 2.88697,2.32656 0.29195,0.10359 5.95836,-3.59601 5.95664,-3.88905 0,-0.13164 -0.88043,-2.31153 -1.95483,-4.84392 -1.07439,-2.53235 -1.86945,-4.68663 -1.76679,-4.78733 0.10265,-0.10065 3.7323,0.73309 8.06587,1.85285 8.79538,2.2726 9.2237,2.30442 7.65589,0.56885 -0.47208,-0.5226 -2.5047,-2.76675 -4.51696,-4.98699 -4.82133,-5.31971 -4.4169,-4.8198 -4.06955,-5.03033 0.16116,-0.0977 1.91424,-0.24703 3.89574,-0.33188 14.70125,-0.62956 17.19408,-0.79525 16.79129,-1.1161 -0.0527,-0.0419 -3.35171,-1.17451 -7.33124,-2.51683 -8.10382,-2.73349 -8.72855,-2.96508 -8.72855,-3.23579 0,-0.10507 6.33107,-2.85255 14.06906,-6.10525 7.73797,-3.25273 14.16726,-6.00363 14.28728,-6.11313 0.35533,-0.32427 -0.89202,-0.25765 -15.56917,0.83073 -7.68501,0.56992 -14.03083,0.97927 -14.10179,0.90968 -0.23982,-0.23523 0.43836,-0.80328 8.02405,-6.72126 4.16357,-3.24819 7.47135,-5.93812 7.35066,-5.97755 -0.12068,-0.0396 -4.44256,1.66282 -9.6041,3.78283 -5.16156,2.12005 -9.68295,3.91311 -10.04751,3.98462 -0.81628,0.15996 -1.44281,1.3695 5.30862,-10.24715 2.97175,-5.11328 5.3371,-9.3617 5.25629,-9.44094 -0.0808,-0.0791 -0.32842,0.009 -0.55029,0.19391 -0.55518,0.46525 -15.99839,12.30857 -18.54959,14.22559 -1.85805,1.39618 -2.07482,1.50438 -2.1418,1.06908 -0.041,-0.26621 0.4017,-3.64836 0.98371,-7.51551 0.58201,-3.86715 1.08069,-7.20397 1.10816,-7.41514 0.0274,-0.21132 -0.022,-0.41393 -0.10931,-0.45053 -0.0876,-0.0366 -2.50018,3.17723 -5.36131,7.14187 -6.50124,9.00874 -7.00184,9.66079 -7.23719,9.42627 -0.10512,-0.10477 -0.97698,-4.14381 -1.93744,-8.97574 -0.96047,-4.8319 -1.80215,-9.06405 -1.8704,-9.40476 -0.0683,-0.34071 -0.2013,-0.61947 -0.29571,-0.61947 -0.0944,0 -0.50816,1.19107 -0.91948,2.64684 -1.88928,6.68638 -4.67716,16.1911 -4.82756,16.4585 -0.23206,0.41263 -0.20139,0.45466 -4.81933,-6.60507 -2.2226,-3.39779 -4.5579,-6.96679 -5.18957,-7.93113 l -1.1485,-1.75333 -0.14075,7.32107 c -0.0774,4.02659 -0.15493,7.90392 -0.17227,8.61633 -0.019,0.77816 -0.13302,1.29527 -0.28578,1.29527 -0.29321,0 -1.61237,-0.88901 -13.12579,-8.84579 -4.64285,-3.20861 -8.53282,-5.80005 -8.64438,-5.75879 -0.11157,0.0413 2.4726,3.86084 5.74258,8.48791 3.26998,4.62708 5.94541,8.5671 5.94541,8.75563 0,0.28983 -0.29204,0.32215 -1.89501,0.20926 -1.04226,-0.0735 -3.92182,-0.19863 -6.39903,-0.27832 l -4.504,-0.14462 -1.2403,1.77205 c -1.18407,1.69173 -1.28622,1.77718 -2.25361,1.8847 l -1.01331,0.11274 4.28835,3.78838 c 2.3586,2.08359 4.28836,3.87438 4.28836,3.97954 0,0.20128 -2.52124,0.81163 -15.93802,3.85758 -4.5337,1.02927 -8.38387,2.00946 -8.55593,2.17819 -0.34116,0.33457 -0.66589,1.35643 -0.48685,1.53201 0.0614,0.0602 5.31744,0.97419 11.68018,2.03112 6.36275,1.05695 11.62239,1.97471 11.6881,2.0395 0.18259,0.18003 -0.442,0.62974 -8.77866,6.32099 -4.26412,2.91105 -7.69564,5.38376 -7.62559,5.49491 0.0701,0.11126 1.80094,0.20305 3.84641,0.20394 3.08956,0.002 4.67941,-0.13665 9.39283,-0.81677 3.12058,-0.45027 5.83835,-0.75674 6.0395,-0.68104 0.29108,0.1095 0.31465,0.2311 0.11551,0.59616 -0.37266,0.68289 -0.0957,0.89973 1.14921,0.89973 0.61676,0 1.17374,0.0832 1.23774,0.18476 0.064,0.10152 -0.39479,0.93783 -1.01951,1.85843 -1.03227,1.52115 -1.35516,2.23695 -1.00904,2.23695 0.7566,0 2.40181,-0.63399 2.8581,-1.10137 0.50735,-0.51969 1.11772,-0.68945 5.23932,-1.45705 2.56579,-0.47783 4.72909,-0.80602 4.80732,-0.72932 0.0783,0.0767 -0.0313,0.67938 -0.24338,1.33923 -0.41757,1.29911 -0.56194,6.45378 -0.18075,6.45378 0.11268,0 0.90063,-1.24177 1.75101,-2.75947 2.07576,-3.70473 3.094,-5.35001 3.31103,-5.35001 0.0991,0 1.14207,1.42212 2.31762,3.16029 1.17555,1.73813 2.2498,3.12425 2.38722,3.08025 0.13742,-0.044 0.62753,-1.08603 1.08912,-2.31555 0.46159,-1.22955 0.96126,-2.23553 1.11038,-2.23553 0.14913,0 1.25227,2.63559 2.45143,5.85686 1.19916,3.22127 2.39977,6.43973 2.66802,7.15214 0.26824,0.71238 0.60097,1.29525 0.73937,1.29525 0.13841,0 1.37316,-3.06638 2.7439,-6.81421 z m -7.68113,-13.43004 c 0,-0.10773 0.51244,-1.41832 1.13875,-2.91255 5.14242,-12.26867 11.98129,-20.95822 20.39877,-25.91892 2.84135,-1.6745 7.39954,-3.41075 8.95428,-3.41075 0.66574,0 0.65179,0.15465 -0.11195,1.24298 -0.34625,0.49338 -1.45742,2.49948 -2.46927,4.45799 l -1.83975,3.56094 -1.83759,0.7246 c -2.35453,0.92845 -4.69218,2.42109 -6.69848,4.27719 -1.62682,1.50503 -2.35508,2.49941 -2.05045,2.79972 0.0945,0.093 1.65486,0.21988 3.46758,0.28185 l 3.29581,0.11275 -1.18936,1.36012 c -0.65416,0.74809 -1.58295,1.81245 -2.06398,2.36527 l -0.8746,1.00516 -4.61093,0.11274 -4.61096,0.11274 -2.55392,4.36308 -2.55392,4.36307 -1.82477,0.64904 c -2.07488,0.73802 -1.96526,0.71273 -1.96526,0.45327 z m -12.63344,-3.56537 c -1.81954,-0.90493 -3.5767,-3.31601 -4.24187,-5.82044 -0.87132,-3.28065 -0.0123,-7.33495 2.06743,-9.75899 l 0.60739,-0.70789 h 2.60756 c 1.43416,0 2.65447,0.0761 2.7118,0.16882 0.0573,0.093 -0.60622,1.0306 -1.47457,2.08369 -2.13903,2.59415 -3.19765,4.58439 -3.19275,6.00245 0.0114,3.27873 3.43415,4.88998 6.84111,3.22038 5.46138,-2.67638 8.08751,-12.30306 4.43893,-16.27188 -1.03049,-1.12094 -2.33765,-1.72482 -3.74763,-1.73129 -0.59263,-0.003 -1.13624,-0.0983 -1.20803,-0.2122 -0.22731,-0.36069 1.53603,-0.78203 3.20434,-0.76568 3.13484,0.0307 5.67241,1.59844 6.96314,4.30183 0.5724,1.19885 0.61527,1.50125 0.61393,4.32993 -10e-4,2.60085 -0.0782,3.25299 -0.53158,4.50527 -1.55717,4.30088 -5.25574,8.21886 -9.60747,10.17743 -2.00166,0.90088 -4.76319,1.11914 -6.05173,0.4783 z m -59.76964,23.30277 c 0.36166,-0.42783 3.53881,-10.95258 3.38161,-11.20203 -0.0755,-0.11983 -0.52055,-0.31536 -0.98897,-0.43457 -1.54426,-0.39295 -5.93979,-1.00019 -6.28889,-0.86883 -0.29601,0.11157 -1.5728,3.07335 -1.5697,3.64146 6.8e-4,0.11717 1.5064,0.14904 3.55997,0.0756 1.95738,-0.07 3.5998,-0.0599 3.64983,0.0236 0.05,0.0823 -0.56949,1.95807 -1.37673,4.16822 -0.80723,2.21018 -1.46769,4.2122 -1.46769,4.44899 0,0.49394 0.72587,0.59216 1.10057,0.14904 z m -39.46029,-4.68489 2.41184,-0.26179 2.41184,-1.51695 c 1.32651,-0.83433 3.41877,-2.04845 4.64945,-2.69802 3.11391,-1.64354 3.25896,-1.95783 0.52078,-1.12843 -0.84669,0.25647 -1.58902,0.41768 -1.64961,0.35824 -0.0606,-0.0593 0.46622,-1.54382 1.17069,-3.29869 0.70448,-1.75486 1.28086,-3.349 1.28086,-3.54255 0,-0.48126 -1.35569,-0.29101 -5.05337,0.70957 -1.57918,0.42728 -3.12965,0.82878 -3.44549,0.89221 -0.31583,0.0634 -0.78097,0.26976 -1.03364,0.45873 -0.60409,0.45157 -0.30756,0.6375 1.61412,1.01209 0.82007,0.15997 1.54245,0.37223 1.60528,0.47193 0.0628,0.0998 -0.81671,0.50785 -1.95455,0.90702 -2.05203,0.71985 -2.38805,1.02487 -1.72425,1.56513 0.18951,0.15435 0.34455,0.37196 0.34455,0.48382 0,0.11186 -0.80032,0.56103 -1.7785,0.99819 -0.97817,0.43716 -2.00828,1.00654 -2.28913,1.26529 -0.58194,0.53615 -1.56099,3.19403 -1.31836,3.57904 0.0971,0.15406 0.48997,0.20571 0.99313,0.13074 0.45789,-0.0682 1.91785,-0.24172 3.24436,-0.38574 z m 22.1136,-2.32233 1.22409,-0.5309 0.89255,-2.90437 c 0.49089,-1.59741 0.9803,-3.02046 1.08757,-3.16233 0.12327,-0.16292 1.58784,-0.31819 3.98071,-0.4217 2.08212,-0.09 3.84159,-0.25264 3.90992,-0.36092 0.16576,-0.26297 -1.00236,-2.79181 -1.47848,-3.20061 -0.20684,-0.17767 -0.95406,-0.39097 -1.6605,-0.4742 l -1.28445,-0.15141 -2.15318,-4.27081 c -1.18424,-2.34895 -2.24694,-4.24017 -2.36154,-4.20269 -0.17446,0.057 -4.26212,12.09731 -4.28043,12.60811 -0.0105,0.29543 0.63782,0.18623 3.02366,-0.50873 1.27935,-0.37273 2.38477,-0.62015 2.4565,-0.54979 0.16158,0.15849 -0.2249,0.81913 -2.9021,4.96094 -1.16859,1.8079 -2.12471,3.38005 -2.12471,3.49365 0,0.31828 0.34174,0.25205 1.67039,-0.32433 z m 33.38649,-1.89414 c 0.3984,-0.25589 1.72793,-2.97197 1.57425,-3.21581 -0.15177,-0.24084 -3.21787,-0.0401 -3.79422,0.24851 -0.40374,0.20217 -1.23632,2.57703 -1.02241,2.91647 0.16191,0.25707 2.85604,0.29927 3.24238,0.0511 z m 77.63914,-0.27803 c 0.3138,0 0.54554,-0.13369 0.54554,-0.31456 0,-0.34507 -1.48314,-1.71281 -1.8573,-1.71281 -0.32691,0 -0.95585,1.55737 -0.79499,1.96849 0.0967,0.24704 0.32643,0.30108 0.84695,0.19893 0.39285,-0.077 0.95977,-0.14019 1.2598,-0.14019 z m 26.28692,-2.03531 c 0.24437,-0.12838 0.44429,-0.32013 0.44429,-0.42641 0,-0.37492 -0.68023,-0.44324 -1.027,-0.1033 -0.67828,0.66518 -0.31124,0.99875 0.58271,0.52957 z m -11.02556,-2.70315 c 0.84578,-0.44391 0.32829,-1.10243 -0.87646,-1.11533 -0.36584,-0.003 -0.37358,0.72306 -0.0114,1.07821 0.33419,0.32772 0.33424,0.32772 0.88795,0.0372 z m -98.85053,-0.34277 c 0.39608,-0.0815 0.60543,-0.41727 0.94147,-1.5102 0.23766,-0.773 0.38998,-1.48148 0.33847,-1.57439 -0.13925,-0.25116 -1.72236,-0.19361 -4.42687,0.16115 -1.32434,0.17383 -2.45458,0.27005 -2.51164,0.21427 -0.0571,-0.0561 0.0305,-0.63213 0.1946,-1.28037 0.4172,-1.64815 5.23845,-15.79721 6.76695,-19.85918 0.69594,-1.84944 1.21279,-3.44599 1.14857,-3.5479 -0.0642,-0.10183 -0.26571,-0.18535 -0.44777,-0.18535 -0.50495,0 -0.41645,-0.37533 0.70266,-2.97978 0.5685,-1.32305 1.03364,-2.56234 1.03364,-2.75395 0,-0.42588 -0.54515,-0.43946 -3.66695,-0.0912 -1.42367,0.15879 -2.30522,0.35556 -2.30522,0.51464 0,0.14166 0.21795,0.86228 0.48432,1.60136 1.02246,2.83688 0.50237,6.49805 -1.31995,9.29178 -1.63222,2.50231 -5.10204,5.22503 -8.64595,6.78437 -0.81951,0.3606 -1.54894,0.74912 -1.62096,0.8634 -0.072,0.11422 1.50256,3.44976 3.49906,7.41218 l 3.62999,7.20438 2.84812,-0.0803 c 1.56646,-0.044 3.07732,-0.1272 3.35745,-0.18505 z m -93.33787,-2.76259 c 1.62576,-0.74544 3.03519,-1.43963 3.13207,-1.54264 0.20865,-0.22194 1.60926,-9.73174 1.60788,-10.91722 l -9.2e-4,-0.81834 4.07716,-1.74699 c 17.06761,-7.31319 33.70781,-12.72268 39.13629,-12.72268 0.99963,0 1.13578,-0.32185 0.52369,-1.23796 -0.35334,-0.52886 -0.34049,-0.561 0.40197,-1.00406 0.42185,-0.25176 1.2063,-0.68641 1.74322,-0.96591 0.88875,-0.46263 1.31313,-1.07209 0.74652,-1.07209 -0.55082,0 -0.10958,-0.53243 1.61331,-1.94677 1.01365,-0.83211 1.8062,-1.62146 1.76121,-1.75413 -0.045,-0.13251 -0.38335,-0.29278 -0.75193,-0.35605 -0.36858,-0.0632 -0.67015,-0.24349 -0.67015,-0.40065 0,-0.15731 1.26398,-0.85369 2.80885,-1.54771 1.54487,-0.69405 2.75326,-1.35009 2.68533,-1.4579 -0.0679,-0.10773 -0.58253,-0.30934 -1.14354,-0.44788 -0.561,-0.13842 -1.02001,-0.37636 -1.02001,-0.52847 0,-0.152 1.96478,-1.48323 4.36618,-2.95801 2.4014,-1.47478 4.2278,-2.71088 4.05867,-2.74689 -0.31644,-0.0673 -4.4037,1.34531 -12.44458,4.30121 -17.15802,6.30751 -33.35775,13.39888 -42.83884,18.75256 -2.52064,1.42334 -3.85318,1.88597 -3.73725,1.29755 0.0289,-0.14728 0.41987,-3.18842 0.86853,-6.75792 0.88837,-7.06761 0.95856,-7.50368 1.20785,-7.50368 0.0924,0 1.91551,1.87847 4.05137,4.17439 2.13587,2.29589 3.95821,4.14588 4.04965,4.11105 1.52763,-0.5818 9.17082,-4.41295 9.17442,-4.59868 0.009,-0.47995 -12.96563,-17.44417 -15.02176,-19.64039 l -0.91149,-0.97358 1.42995,-10.51486 c 1.3591,-9.99392 1.5788,-11.98915 1.28887,-11.70481 -0.0696,0.0682 -0.66555,1.86631 -1.32434,3.99568 -0.65879,2.12937 -1.29955,3.8897 -1.42392,3.91187 -0.12441,0.0236 -0.4173,-1.42871 -0.6512,-3.22602 -0.23377,-1.79649 -0.46635,-3.30857 -0.51682,-3.36019 -0.22021,-0.22519 -0.3966,0.32925 -0.86093,2.70654 -0.27188,1.392 -0.60896,2.56836 -0.74907,2.61417 -0.15411,0.0505 -0.47165,-0.82689 -0.80386,-2.2209 -0.30202,-1.26726 -0.6525,-2.30435 -0.77883,-2.30465 -0.12634,-2.6e-4 -0.48811,1.3809 -0.80395,3.0693 -0.31583,1.68837 -0.64233,3.13491 -0.72554,3.21448 -0.20438,0.19538 -0.35209,-0.31391 -0.88186,-3.04046 -0.64785,-3.33425 -0.71682,-3.32791 -1.51598,0.1396 -0.30867,1.33928 -0.65219,2.52429 -0.76339,2.63335 -0.21656,0.2125 -0.27847,0.054 -0.71006,-1.81815 -0.27778,-1.20476 -0.5632,-1.49668 -0.77089,-0.7884 -0.0636,0.21692 -0.34033,1.58619 -0.61501,3.04309 -0.27468,1.45686 -0.58819,2.70268 -0.69667,2.76843 -0.1085,0.0658 -0.62871,-0.72079 -1.15605,-1.74784 -0.7906,-1.5398 -0.98975,-1.78834 -1.13531,-1.41685 -0.19132,0.48825 -1.86452,69.47433 -1.69171,69.74854 0.10409,0.16528 0.69304,-0.0832 6.38287,-2.69214 z m 113.68596,-2.86545 c 2.99371,-2.04933 5.4431,-3.85856 5.4431,-4.02053 0,-0.20896 -1.53284,-0.54306 -5.28599,-1.15178 -2.9073,-0.47152 -5.34998,-0.79455 -5.4282,-0.71787 -0.17476,0.17147 -3.52715,9.11027 -3.52715,9.40485 0,0.11628 0.75491,0.21132 1.67758,0.21132 h 1.67758 z m -62.49174,2.60558 c 1.48367,-0.36783 3.37921,-0.73726 4.21233,-0.82096 1.23498,-0.12425 1.55377,-0.23965 1.726,-0.6259 0.1162,-0.26061 2.16449,-6.51685 4.55178,-13.90292 2.3873,-7.38606 4.50532,-13.74171 4.70671,-14.12365 0.44494,-0.8438 1.65513,-1.78161 2.69749,-2.09032 0.42356,-0.12544 1.82182,-0.2249 3.10724,-0.22106 2.51043,0.009 4.03552,0.40384 4.44569,1.15547 0.42058,0.77066 0.24825,1.91333 -0.42622,2.82601 -0.95405,1.29106 -4.65304,4.49208 -9.05556,7.83651 -1.10543,0.83976 -2.00987,1.68474 -2.00987,1.87774 0,0.32804 7.4246,15.65093 7.84506,16.19065 0.10596,0.13606 1.0975,0.36863 2.20341,0.51691 1.1059,0.14816 2.9128,0.43633 4.01534,0.64013 1.10254,0.20364 2.05944,0.31674 2.12644,0.25087 0.067,-0.0658 -1.74969,-3.84248 -4.03709,-8.39282 -2.28739,-4.55037 -4.12031,-8.31121 -4.07314,-8.35746 0.0472,-0.0463 0.94751,-0.44583 2.00078,-0.88795 6.91727,-2.90355 10.95526,-7.90548 10.5181,-13.02898 -0.33111,-3.88043 -2.83869,-6.3676 -7.68824,-7.62566 -3.14634,-0.81621 -11.76216,-0.86113 -11.76216,-0.0614 0,0.17531 0.10338,0.31869 0.22968,0.31869 0.55788,0 0.15547,0.70016 -0.57424,0.99917 -0.80596,0.33023 -1.00682,0.65338 -0.5705,0.91782 0.36703,0.22254 0.0542,0.52452 -1.177,1.13638 -1.12737,0.56023 -1.30443,1.00137 -0.40194,1.00137 1.0049,0 0.16702,0.60955 -2.29074,1.66648 -1.4111,0.60683 -2.56564,1.22412 -2.56564,1.37175 0,0.14756 0.25843,0.38388 0.57425,0.52499 0.75645,0.33802 0.72478,0.62888 -0.11484,1.05468 -0.83274,0.42231 -0.87477,0.73035 -0.13718,1.00536 0.93059,0.347 0.8773,0.6151 -0.31888,1.60426 -0.63351,0.52387 -1.15185,1.07242 -1.15185,1.21898 0,0.14669 0.26652,0.38557 0.59229,0.53114 0.32576,0.1455 0.55833,0.35039 0.51683,0.45519 -0.0415,0.10477 -0.77318,0.76857 -1.62594,1.47508 -0.85276,0.7065 -1.55047,1.38039 -1.55047,1.49756 0,0.11717 0.77524,0.58919 1.72274,1.04896 0.94751,0.45979 1.72275,0.91386 1.72275,1.00902 0,0.0953 -0.40477,0.42364 -0.89949,0.72991 -0.49472,0.30626 -0.96135,0.65503 -1.03696,0.775 -0.0756,0.11983 0.27937,0.44791 0.78888,0.72873 1.07033,0.58995 1.0757,0.88819 0.0208,1.15627 -0.57928,0.14727 -0.71623,0.27831 -0.59903,0.57348 0.0836,0.21044 0.17009,0.47503 0.19233,0.58789 0.0223,0.11274 -0.60562,0.45829 -1.39521,0.76763 -0.78959,0.30933 -1.43562,0.64662 -1.43562,0.7495 0,0.10301 0.41575,0.25235 0.92389,0.33198 0.50814,0.0797 0.97392,0.2243 1.03508,0.32131 0.0611,0.0971 -0.7939,0.47317 -1.90011,0.83587 -1.9124,0.62699 -2.01137,0.69163 -2.01285,1.31449 -9.1e-4,0.36031 -0.53638,1.71945 -1.19008,3.02037 -1.46507,2.91559 -3.74753,8.37675 -3.59931,8.61195 0.15282,0.24261 0.12501,0.24674 3.12424,-0.49666 z m 43.24221,-1.13992 c 1.38967,-0.13901 2.65051,-0.37143 2.80187,-0.51664 0.15135,-0.14521 2.71338,-6.84927 5.69339,-14.89792 2.98002,-8.04865 5.54366,-14.71207 5.69699,-14.80763 0.15333,-0.0956 3.1213,-0.17856 6.5955,-0.18476 l 6.31672,-0.0118 1.26242,-1.85082 c 0.69433,-1.01793 1.91692,-2.64878 2.71686,-3.6241 0.79994,-0.97531 1.36886,-1.8504 1.26427,-1.94467 -0.10461,-0.0942 -7.47386,-0.20866 -16.37614,-0.25412 l -16.18595,-0.0826 -1.70625,4.0035 c -0.93844,2.20192 -1.64285,4.06566 -1.56537,4.14166 0.0775,0.0758 2.00781,-0.0413 4.28963,-0.2609 2.28182,-0.21959 4.20464,-0.34428 4.27295,-0.27743 0.0683,0.067 -0.85583,2.69099 -2.05362,5.83112 -3.70858,9.72242 -8.18507,22.52311 -8.56708,24.49788 l -0.14846,0.76745 1.58279,-0.13812 c 0.87053,-0.0759 2.7198,-0.25176 4.10948,-0.3908 z m -78.35016,-5.36374 c 2.41291,-0.97201 6.37687,-2.50777 8.80881,-3.41278 2.43194,-0.90502 4.4217,-1.76175 4.4217,-1.90383 0,-0.14226 -0.40987,-0.65087 -0.91083,-1.13059 l -0.91083,-0.87222 -4.08512,1.64779 c -9.484,3.82553 -12.00769,4.98086 -12.12725,5.55171 -0.0617,0.29455 -0.16197,0.77401 -0.22285,1.06537 -0.11457,0.54837 0.0229,0.82184 0.41325,0.82184 0.12432,0 2.20021,-0.79528 4.61312,-1.76729 z m 33.44019,-4.55308 c 0.81907,-0.25176 1.69766,-0.64919 1.95244,-0.88315 0.25478,-0.23404 0.7537,-0.53334 1.10872,-0.66527 0.827,-0.3073 0.62887,-0.61174 -0.52222,-0.80246 -0.78277,-0.12956 -1.27349,0.0118 -3.55913,1.02727 -1.45814,0.64774 -2.65116,1.2557 -2.65116,1.35103 0,0.55565 1.81853,0.54205 3.67135,-0.0266 z m 12.63727,-0.88805 c 0,-0.12396 -0.15505,-0.22519 -0.34455,-0.22519 -0.18951,0 -0.34455,0.10153 -0.34455,0.22519 0,0.12396 0.15505,0.22519 0.34455,0.22519 0.18951,0 0.34455,-0.10123 0.34455,-0.22519 z m -27.84076,-1.4628 c 1.96991,-0.68065 3.67475,-1.32883 3.78852,-1.44039 0.18187,-0.17827 -3.85819,-5.93186 -5.19952,-7.40472 -0.53812,-0.5909 -0.10991,-0.68242 -5.2605,1.12448 -2.27858,0.79935 -3.84746,1.46829 -3.84746,1.64047 0,0.33717 6.41987,7.31768 6.72994,7.31768 0.11403,0 1.8191,-0.55687 3.78902,-1.23752 z m 19.46407,-1.19566 c 1.65027,-0.6633 2.08908,-1.11737 1.28022,-1.32482 -0.72176,-0.18506 -0.58729,-0.45458 0.37777,-0.75701 1.28146,-0.40159 1.41666,-0.62732 0.6891,-1.15048 -0.34742,-0.24969 -0.63167,-0.52845 -0.63167,-0.6192 0,-0.0906 0.41885,-0.39584 0.93079,-0.67803 0.51193,-0.28215 0.89196,-0.63026 0.8445,-0.77358 -0.0475,-0.14315 -0.52773,-0.5015 -1.06727,-0.79597 -0.77462,-0.42281 -1.29113,-0.52883 -2.4554,-0.50406 -3.53121,0.075 -14.36012,2.78531 -14.50392,3.63 -0.0316,0.18594 0.28951,0.73838 0.71366,1.22781 l 0.77118,0.88993 5.37336,-1.61216 c 6.00024,-1.80021 6.63671,-1.969 6.63671,-1.76004 0,0.0803 -0.67068,0.84631 -1.4904,1.70225 -0.81972,0.85593 -1.43711,1.68822 -1.37197,1.84949 0.16486,0.40823 1.51461,1.30696 1.96286,1.30696 0.20365,0 1.07687,-0.28392 1.94048,-0.63109 z m 65.84105,-6.59271 c 3.32606,-0.7518 6.15075,-1.46713 6.27709,-1.58959 0.1524,-0.14757 -0.1704,-0.59742 -0.95915,-1.33621 l -1.18884,-1.11359 h -4.46808 c -3.29982,0 -4.52766,0.0735 -4.69593,0.28156 -0.25466,0.31474 -1.89569,4.56058 -1.89569,4.90477 0,0.37675 0.70804,0.25943 6.9306,-1.14694 z m -63.62689,-2.38484 c 0.64958,-0.57652 0.49681,-0.80399 -0.27655,-0.41181 -0.38313,0.19421 -0.63544,0.45033 -0.56069,0.56894 0.19032,0.30202 0.35465,0.27124 0.83724,-0.15701 z m -41.20139,-3.05121 c 0.3636,-0.35655 0.34793,-0.52765 -0.0874,-0.9546 -0.48059,-0.4713 -0.78543,-0.25293 -0.78543,0.56242 0,0.6957 0.38636,0.86931 0.87285,0.39218 z"
       style="fill:#ffffff;stroke-width:0.22747055" />
    <path
       d="m 38.432526,442.16341 c 1.583327,-0.002 3.147119,-0.35386 4.582523,-1.0326 1.411519,-0.63268 2.663924,-1.58002 3.663584,-2.77327 v 0 l -2.729471,-2.77332 c -0.669866,0.81792 -1.501852,1.48338 -2.441915,1.95379 -0.922167,0.45239 -1.934594,0.68513 -2.959168,0.67858 -0.864601,0.008 -1.722451,-0.15569 -2.523916,-0.48518 -0.801466,-0.32942 -1.530632,-0.81626 -2.145278,-1.43254 -0.591865,-0.6048 -1.059487,-1.32106 -1.375709,-2.11108 -0.339049,-0.8369 -0.509746,-1.73462 -0.502142,-2.63989 -0.0094,-0.9141 0.156626,-1.82114 0.488375,-2.67117 0.309679,-0.79035 0.768583,-1.51185 1.350957,-2.12387 0.584028,-0.60729 1.282546,-1.08897 2.053949,-1.41648 0.803861,-0.34635 1.669053,-0.52204 2.542341,-0.51647 1.053175,-0.003 2.092779,0.24105 3.036204,0.71593 0.975158,0.4968 1.82904,1.20766 2.49969,2.08081 v 0 l 2.816064,-2.86229 c -0.990154,-1.21964 -2.250095,-2.18505 -3.677273,-2.81753 -1.466805,-0.68776 -3.062936,-1.04524 -4.678815,-1.04801 -1.443289,-0.008 -2.87415,0.27074 -4.209704,0.82606 -1.265333,0.52072 -2.420653,1.28242 -3.403529,2.24402 -0.97014,0.96232 -1.741785,2.11079 -2.269939,3.37861 -0.54751,1.32926 -0.830584,2.75507 -0.832946,4.19566 -0.0023,1.44073 0.276023,2.8677 0.819189,4.19858 0.521902,1.26373 1.288672,2.40779 2.254799,3.36499 0.983352,0.96051 2.139164,1.72266 3.404907,2.24225 1.344583,0.55727 2.784889,0.83754 4.237223,0.82442 z m 54.446822,0.0301 c 1.438441,0.008 2.864584,-0.27038 4.194512,-0.82607 1.25977,-0.51794 2.40597,-1.28501 3.37269,-2.25534 0.96655,-0.96867 1.73461,-2.12254 2.2596,-3.39613 0.54974,-1.32107 0.83296,-2.74032 0.83296,-4.17466 0,-1.43434 -0.28324,-2.8541 -0.83296,-4.17551 -0.52499,-1.27221 -1.29289,-2.42644 -2.2596,-3.39613 -0.96656,-0.96979 -2.11275,-1.73593 -3.37269,-2.25432 -2.681488,-1.10115 -5.679986,-1.10115 -8.361474,0 -1.259952,0.51839 -2.406145,1.28453 -3.372691,2.25432 -0.966711,0.96969 -1.734612,2.12392 -2.259601,3.39613 -0.549409,1.32157 -0.832478,2.74132 -0.832478,4.17551 0,1.43418 0.283058,2.85359 0.832478,4.17466 0.524989,1.27359 1.293055,2.42746 2.259601,3.39613 0.966712,0.97033 2.112904,1.7374 3.372691,2.25534 1.321398,0.554 2.738527,0.83427 4.168273,0.82445 z m 0,-3.92388 c -0.844104,0.008 -1.680847,-0.16057 -2.458908,-0.49334 -0.778061,-0.3328 -1.481044,-0.82284 -2.065871,-1.43911 -0.576772,-0.61955 -1.030308,-1.34729 -1.335824,-2.1406 -0.65153,-1.71364 -0.65153,-3.61233 0,-5.32645 0.307985,-0.78772 0.761344,-1.50857 1.335824,-2.12387 0.584827,-0.6176 1.28781,-1.1077 2.065871,-1.44009 0.778061,-0.33205 1.614804,-0.50007 2.458908,-0.49285 0.869031,-0.008 1.729863,0.16922 2.528575,0.51647 0.762656,0.32792 1.451709,0.80986 2.025054,1.41647 0.574493,0.6153 1.027853,1.33615 1.335833,2.12387 0.6512,1.71431 0.6512,3.61266 0,5.32645 -0.30536,0.79331 -0.75889,1.52105 -1.335833,2.1406 -0.573345,0.60646 -1.262398,1.08833 -2.025054,1.41613 -0.798382,0.34597 -1.658883,0.52126 -2.527264,0.51467 z m 63.152322,3.59935 v -3.77639 h -11.00558 v -16.87982 h -4.16305 v 20.65455 z m 52.5234,0 v -3.77635 H 197.5488 V 421.2128 h -4.16486 v 20.65457 z m 52.92347,0 v -3.71735 h -11.4062 v -4.89947 h 7.44294 v -3.60052 h -7.44294 v -4.71686 h 11.29312 v -3.71773 h -15.46124 v 20.65359 z m 46.20334,0.2952 c 1.58333,-0.002 3.147,-0.35424 4.5828,-1.0326 1.41122,-0.63271 2.66347,-1.58006 3.66328,-2.77331 v 0 l -2.73067,-2.77327 c -0.67035,0.81791 -1.50301,1.48499 -2.4422,1.95374 -0.92275,0.45405 -1.93573,0.68517 -2.96009,0.67859 -0.8638,0.008 -1.72104,-0.15418 -2.52253,-0.48353 -0.80151,-0.32942 -1.53086,-0.81623 -2.14387,-1.43416 -0.59338,-0.60318 -1.0605,-1.32107 -1.37684,-2.10946 -0.3392,-0.8374 -0.50974,-1.7351 -0.50319,-2.64038 -0.008,-0.91407 0.15719,-1.82129 0.4901,-2.67114 0.30799,-0.79069 0.76707,-1.51222 1.34894,-2.1239 0.58348,-0.60744 1.28335,-1.08916 2.05373,-1.41648 0.80476,-0.34634 1.67021,-0.52203 2.54219,-0.51647 1.05716,-0.003 2.10123,0.24331 3.04697,0.72153 0.97526,0.49661 1.82919,1.20748 2.49959,2.08078 v 0 l 2.81587,-2.86229 c -0.98999,-1.21961 -2.25041,-2.18502 -3.67802,-2.81753 -1.46533,-0.68743 -3.06177,-1.04491 -4.67624,-1.04803 -1.44401,-0.008 -2.87489,0.27076 -4.21074,0.82608 -1.26534,0.52008 -2.42088,1.28144 -3.40429,2.24274 -0.97033,0.96198 -1.74233,2.11063 -2.27173,3.37856 -0.54746,1.32928 -0.82939,2.75512 -0.83266,4.1957 -0.002,1.44054 0.27528,2.86717 0.81954,4.1981 0.52121,1.26369 1.28832,2.40775 2.25367,3.36499 0.98346,0.96047 2.14064,1.72262 3.40599,2.24221 1.3424,0.554 2.77986,0.83265 4.2304,0.81788 z m 55.10833,-0.2952 v -16.87979 h 6.74963 v -3.7777 h -17.6985 v 3.7777 h 6.78075 v 16.87818 z m 47.72275,0 v -20.65339 h -4.16485 v 20.65339 z m 47.985,0.32604 c 1.43746,0.008 2.86345,-0.27038 4.19434,-0.82607 1.2588,-0.51959 2.40613,-1.28505 3.37154,-2.25534 0.96705,-0.96872 1.73574,-2.12421 2.26026,-3.39613 0.54907,-1.32108 0.83266,-2.74067 0.83266,-4.175 0,-1.4342 -0.28355,-2.85394 -0.83266,-4.17535 -0.52452,-1.27223 -1.29321,-2.42645 -2.26026,-3.39629 -0.96541,-0.96965 -2.11274,-1.73589 -3.37154,-2.25435 -2.68148,-1.10064 -5.67933,-1.10064 -8.36081,0 -1.2588,0.51924 -2.40452,1.28568 -3.37154,2.25533 -0.9654,0.96969 -1.73413,2.12356 -2.25864,3.39531 -0.55073,1.32125 -0.83428,2.741 -0.83428,4.17535 0,1.43433 0.28355,2.85392 0.83428,4.175 0.52451,1.27192 1.29324,2.42581 2.25864,3.39613 0.96702,0.96867 2.11274,1.73575 3.37154,2.25534 1.32107,0.55234 2.73721,0.83261 4.16647,0.8228 z m 0,-3.92388 c -0.86545,0.008 -1.721,-0.16885 -2.51433,-0.51632 -0.75721,-0.33093 -1.44072,-0.81299 -2.01109,-1.4178 -0.57697,-0.61792 -1.03098,-1.34401 -1.3375,-2.13894 -0.65068,-1.71397 -0.65068,-3.61248 0,-5.32663 0.30799,-0.78806 0.76215,-1.50906 1.3375,-2.12403 0.57037,-0.6045 1.25388,-1.08622 2.01109,-1.41647 0.79333,-0.34822 1.64888,-0.52403 2.51433,-0.51632 0.86868,-0.008 1.72755,0.16922 2.52741,0.51632 0.76219,0.32791 1.4522,0.80983 2.02588,1.41647 0.57366,0.6153 1.0277,1.33616 1.33584,2.12403 0.65234,1.71397 0.65234,3.61281 0,5.32663 -0.30497,0.79328 -0.75891,1.52102 -1.33584,2.13894 -0.57368,0.60646 -1.26369,1.08834 -2.02588,1.4178 -0.79986,0.34596 -1.66034,0.51959 -2.52741,0.51301 z m 51.91709,3.59935 v -13.81541 l 10.2572,13.81541 h 3.67806 V 421.2169 h -3.90753 v 13.36633 l -9.99822,-13.36633 h -3.96652 v 20.65359 z"
       id="path4"
       inkscape:connector-curvature="0"
       style="fill:#ffffff;stroke-width:1.63905585" />
  </g>
</svg>
