<?xml version="1.0" encoding="UTF-8" standalone="no"?>
<svg
   xmlns:dc="http://purl.org/dc/elements/1.1/"
   xmlns:cc="http://creativecommons.org/ns#"
   xmlns:rdf="http://www.w3.org/1999/02/22-rdf-syntax-ns#"
   xmlns:svg="http://www.w3.org/2000/svg"
   xmlns="http://www.w3.org/2000/svg"
   xmlns:sodipodi="http://sodipodi.sourceforge.net/DTD/sodipodi-0.dtd"
   xmlns:inkscape="http://www.inkscape.org/namespaces/inkscape"
   width="500"
   height="200"
   viewBox="0 0 500 200"
   version="1.1"
   id="svg90"
   sodipodi:docname="atarist.svg"
   style="fill:none"
   inkscape:version="0.92.5 (2060ec1f9f, 2020-04-08)">
  <metadata
     id="metadata96">
    <rdf:RDF>
      <cc:Work
         rdf:about="">
        <dc:format>image/svg+xml</dc:format>
        <dc:type
           rdf:resource="http://purl.org/dc/dcmitype/StillImage" />
        <dc:title />
      </cc:Work>
    </rdf:RDF>
  </metadata>
  <defs
     id="defs94" />
  <sodipodi:namedview
     pagecolor="#ffffff"
     bordercolor="#666666"
     borderopacity="1"
     objecttolerance="10"
     gridtolerance="10"
     guidetolerance="10"
     inkscape:pageopacity="0"
     inkscape:pageshadow="2"
     inkscape:window-width="1366"
     inkscape:window-height="743"
     id="namedview92"
     showgrid="false"
     inkscape:pagecheckerboard="true"
     inkscape:zoom="1.6665639"
     inkscape:cx="172.75547"
     inkscape:cy="57.386049"
     inkscape:window-x="0"
     inkscape:window-y="0"
     inkscape:window-maximized="1"
     inkscape:current-layer="svg90" />
  <path
     d="m 140.65548,62.703522 c 3.03238,-3.880684 9.30641,-4.541359 13.02674,-1.28928 1.52101,1.28126 2.58659,3.05002 3.1302,4.95264 6.88661,23.695424 13.80369,47.378818 20.68147,71.075838 -4.06509,0.002 -8.13098,-0.005 -12.19448,0.002 -1.91629,-6.529 -3.78768,-13.07645 -5.67991,-19.61348 -7.85758,-0.0233 -15.71436,-0.007 -23.57033,-0.0101 -1.92511,6.53543 -3.82295,13.07726 -5.71359,19.62791 -4.04184,-0.0168 -8.08208,-0.007 -12.12552,-0.009 6.54183,-22.60258 13.09168,-45.205154 19.66559,-67.801318 0.78095,-2.36288 1.0728,-5.00557 2.77983,-6.93549 z m 7.17365,14.51885 c -2.88165,9.81637 -5.70478,19.652784 -8.56878,29.473958 5.71037,0.0256 11.41996,0.0101 17.12873,0.0101 -2.85759,-9.826794 -5.70236,-19.655188 -8.55995,-29.483588 z"
     id="path64"
     inkscape:connector-curvature="0"
     style="fill:#ffffff;stroke-width:0.80179399" />
  <path
     d="m 226.26302,63.213302 c 2.11673,-3.071677 6.21149,-4.564613 9.81476,-3.615289 3.30098,0.760906 5.82583,3.604859 6.69818,6.806389 6.87859,23.678584 13.78124,47.345948 20.65903,71.019718 -4.0683,0.0361 -8.13661,0 -12.20571,0.0176 -1.89064,-6.53702 -3.76362,-13.08608 -5.66949,-19.6207 -7.84475,0.002 -15.6887,-0.0168 -23.53345,0.006 -1.8746,6.54504 -3.80692,13.07165 -5.68312,19.61269 -4.03863,0.002 -8.07566,0 -12.1127,0.002 6.53703,-22.72444 13.15343,-45.431254 19.74417,-68.142068 0.69196,-2.0526 0.95735,-4.31363 2.28833,-6.08639 z m -0.98942,43.492488 c 5.68713,0.008 11.37104,0.002 17.05737,0.002 -2.82712,-9.846854 -5.70156,-19.680848 -8.52387,-29.530088 -2.83996,9.84363 -5.70878,19.680034 -8.5335,29.527668 z"
     id="path66"
     inkscape:connector-curvature="0"
     style="fill:#ffffff;stroke-width:0.80179399" />
  <path
     d="m 168.39434,59.480173 c 14.70089,0 29.40258,0 44.09946,0 0,3.966479 0,7.928969 0,11.894639 -5.4121,0.005 -10.82341,-0.006 -16.23391,0.005 0,22.021284 0.003,44.041748 -0.002,66.063818 -3.87427,0 -7.75495,0 -11.63082,0 0,-22.02126 -0.003,-44.040934 0.004,-66.063818 -5.41291,-0.0104 -10.82342,0 -16.23553,-0.005 -8e-4,-3.96487 -0.004,-7.92896 -8e-4,-11.894639 z"
     id="path68"
     inkscape:connector-curvature="0"
     style="fill:#ffffff;stroke-width:0.80179399" />
  <path
     d="m 276.36071,59.963726 c 1.11609,-0.386464 2.30837,-0.517958 3.4878,-0.489895 4.63517,0.01764 9.26954,0.0024 13.90632,0.0064 7.80546,0.141917 15.25653,4.989571 18.63529,12.014921 2.33884,4.5622 2.58098,9.86928 1.99006,14.87488 -0.40411,5.240524 -2.60424,10.479454 -6.63084,13.950418 -2.12796,1.89945 -4.77869,3.04843 -7.05499,4.7338 -1.25079,0.95493 -1.31012,2.80146 -0.66549,4.12442 6.15217,9.49886 12.54889,18.84457 18.82773,28.26324 -4.59268,0.0101 -9.18615,-0.0121 -13.77883,0.0101 -6.01505,-9.03301 -11.96597,-18.11172 -17.95618,-27.15436 -1.76074,-2.57216 -2.237,-5.98299 -1.18424,-8.92317 0.82183,-2.252234 2.79345,-3.903134 4.98636,-4.751424 4.18776,-1.59718 8.3138,-4.1092 10.63499,-8.059644 1.76233,-2.97225 1.67415,-6.63404 0.88117,-9.88531 -0.93168,-4.21905 -5.04248,-7.54168 -9.3858,-7.39415 -3.00512,0.0201 -6.00704,-0.0176 -9.00655,0.0137 -1.35744,-0.0313 -2.6355,1.14817 -2.61867,2.52806 -0.0152,21.205054 0.008,42.415708 -0.005,63.624758 -3.90634,-0.007 -7.80947,0 -11.71661,-0.007 -0.008,-22.82788 0.006,-45.664574 -0.008,-68.493258 0.0192,-4.00419 2.86641,-7.77021 6.66131,-8.98574 z"
     id="path70"
     inkscape:connector-curvature="0"
     style="fill:#ffffff;stroke-width:0.80179399" />
  <path
     d="m 324.99753,59.480173 c 4.10919,0 8.21598,0 12.32839,0 -0.005,25.990969 0.003,51.975527 -0.008,77.962467 -4.10518,-0.0101 -8.21197,0 -12.32116,-0.002 8e-4,-25.98776 8e-4,-51.971498 8e-4,-77.960072 z"
     id="path72"
     inkscape:connector-curvature="0"
     style="fill:#ffffff;stroke-width:0.80179399" />
  <path
     d="m 347.70273,68.362872 c -0.55885,0.23869 -1.1618,0.35808 -1.80725,0.35808 -0.83947,0 -1.61721,-0.20886 -2.33241,-0.62668 -0.716,-0.41782 -1.28368,-0.98276 -1.70301,-1.69483 -0.41934,-0.71209 -0.62941,-1.49416 -0.62941,-2.3462 0,-0.64213 0.11947,-1.24205 0.3576,-1.7998 0.23894,-0.55775 0.57568,-1.05271 1.01186,-1.484905 0.43618,-0.432197 0.9373,-0.767665 1.50256,-1.006405 0.56608,-0.238734 1.16341,-0.358105 1.79281,-0.358105 0.63343,0 1.23396,0.119371 1.80164,0.358105 0.56767,0.23874 1.06478,0.572141 1.49294,1.000226 0.42816,0.428084 0.7609,0.925114 0.99984,1.491084 0.23813,0.56597 0.3576,1.16591 0.3576,1.7998 0,0.62977 -0.11706,1.22662 -0.35199,1.79055 -0.23412,0.56391 -0.56848,1.06503 -1.00224,1.50336 -0.43377,0.43843 -0.93089,0.77695 -1.49054,1.01572 z m -3.75721,-0.9385 c 0.59654,0.34991 1.2468,0.52486 1.94996,0.52486 0.7072,0 1.35745,-0.17391 1.94997,-0.52174 0.59253,-0.34781 1.06238,-0.82119 1.40956,-1.42013 0.34798,-0.59888 0.52117,-1.25025 0.52117,-1.95412 0,-0.53098 -0.0994,-1.0311 -0.29908,-1.50034 -0.19964,-0.46925 -0.47787,-0.88292 -0.83627,-1.24103 -0.3576,-0.3581 -0.77052,-0.636975 -1.23957,-0.836612 -0.46905,-0.199628 -0.97097,-0.299447 -1.50578,-0.299447 -0.69915,0 -1.347,0.172875 -1.94354,0.518635 -0.59654,0.345764 -1.07039,0.815004 -1.42238,1.407724 -0.35199,0.59274 -0.52758,1.24309 -0.52758,1.95107 0,0.70798 0.17479,1.35937 0.52437,1.95412 0.34959,0.59485 0.82264,1.06711 1.41917,1.41701 z m 0.70879,-0.79032 v -2.12393 h 0.48188 c 0.32874,0 0.5845,0.0896 0.76812,0.26858 0.18281,0.17906 0.42415,0.53613 0.72482,1.07127 l 0.4442,0.78408 h 0.98139 l -0.60456,-0.97552 c -0.25095,-0.39515 -0.45461,-0.68328 -0.61096,-0.86439 -0.15635,-0.18112 -0.33996,-0.31283 -0.54923,-0.39516 0.43137,-0.0371 0.77694,-0.19037 1.03672,-0.45997 0.25898,-0.26961 0.38807,-0.602 0.38807,-0.99714 0,-0.23464 -0.0713,-0.45896 -0.21568,-0.67299 -0.14353,-0.21405 -0.33275,-0.37251 -0.56767,-0.47543 -0.14352,-0.07 -0.32072,-0.11525 -0.53079,-0.13583 -0.20926,-0.0206 -0.48749,-0.0309 -0.83307,-0.0309 h -1.72144 v 5.0073 z m 8e-4,-2.82161 h 0.98701 c 0.26379,0 0.48508,-0.0236 0.66388,-0.0709 0.1788,-0.0473 0.31511,-0.12761 0.40972,-0.24081 0.0946,-0.11319 0.14192,-0.26034 0.14192,-0.44146 0,-0.31283 -0.11306,-0.51555 -0.33915,-0.60816 -0.22611,-0.0926 -0.53882,-0.13892 -0.9373,-0.13892 h -0.92608 z"
     id="path74"
     inkscape:connector-curvature="0"
     style="clip-rule:evenodd;fill:#ffffff;fill-rule:evenodd;stroke-width:0.80179399" />
  <path
     d="m 37.329082,59.336764 c 1.973215,-0.0064 3.94643,0 5.923654,-0.0032 0.0064,4.641588 0,9.284768 0.0024,13.924748 0.01845,3.87508 -0.0898,7.74773 -0.25016,11.6204 -0.264592,5.588504 -0.615778,11.190644 -1.539444,16.713408 -0.636625,3.80772 -1.956378,7.48475 -3.58883,10.97335 -2.665965,5.61897 -6.856942,10.37442 -11.567482,14.37296 -4.212626,3.7099 -9.242279,6.41115 -14.532515,8.23362 -2.9930914,1.03591 -6.0735839,1.82648 -9.2077966,2.27067 0.00241,-3.89351 0.00241,-7.78863 0,-11.68053 3.7756479,-0.56848 7.4045674,-1.90827 10.7737056,-3.68024 3.997744,-2.11432 7.597799,-4.95668 10.628581,-8.31059 3.129402,-3.45974 5.622981,-7.46872 7.515214,-11.72223 2.228988,-4.890144 3.422057,-10.177974 4.233473,-15.468218 1.016674,-6.72705 1.440021,-13.53588 1.597174,-20.33029 0.02486,-2.30274 0.0056,-4.60789 0.01202,-6.913858 z"
     id="path76"
     inkscape:connector-curvature="0"
     style="fill:#ffffff;stroke-width:0.80179399" />
  <path
     d="m 45.633263,59.34483 c 3.634532,-0.02325 7.268262,-0.0024 10.904398,-0.008 8.01e-4,26.033462 8.01e-4,52.07093 0,78.10357 -3.626514,0.0101 -7.253028,-0.016 -10.878741,0.0176 -0.04409,-8.29938 -0.0056,-16.60756 -0.01845,-24.90613 -0.0048,-17.734084 0.0064,-35.468968 -0.0072,-53.207073 z"
     id="path78"
     inkscape:connector-curvature="0"
     style="fill:#ffffff;stroke-width:0.80179399" />
  <path
     d="m 58.963248,59.336676 c 1.964395,-0.0032 3.926385,-0.0064 5.888375,0 -0.06494,7.937756 0.206863,15.893166 1.152178,23.777196 0.774532,6.12652 1.867378,12.299534 4.307237,18.005098 2.312374,5.52035 5.646233,10.65183 9.991155,14.79149 4.150727,3.95686 9.176372,6.99887 14.638994,8.74758 1.52421,0.48509 3.082096,0.86674 4.668045,1.10247 -8.03e-4,3.8919 -0.0032,7.7822 0,11.67412 -3.113367,-0.42416 -6.166598,-1.22755 -9.138046,-2.23701 -3.537515,-1.22995 -6.960374,-2.82472 -10.104048,-4.8725 -2.294734,-1.47049 -4.381002,-3.23845 -6.384685,-5.08017 -3.304193,-3.04922 -6.259606,-6.50897 -8.482179,-10.43294 -1.735883,-3.05323 -3.00352,-6.35181 -3.997744,-9.71374 -0.910037,-3.38036 -1.296501,-6.879394 -1.650093,-10.353564 -0.683128,-7.515224 -0.9389,-15.064914 -0.890793,-22.605784 0.0016,-4.26796 0,-8.5343 0.0016,-12.802246 z"
     id="path80"
     inkscape:connector-curvature="0"
     style="fill:#ffffff;stroke-width:0.80179399" />
  <path
     d="m 45.633263,59.344783 c 0.01282,17.737279 0.0032,35.472973 0.0072,53.205447 0.01202,8.29857 -0.02726,16.60355 0.01845,24.90693 3.625713,-0.0329 7.253028,-0.009 10.878741,-0.0176 8.01e-4,-26.03264 8.01e-4,-52.069308 0,-78.105953 -3.634533,0.0088 -7.269065,-0.01122 -10.904398,0.01122 z"
     id="path82"
     inkscape:connector-curvature="0"
     style="fill:#ffffff;stroke-width:0.80179399" />
  <path
     d="m 58.963408,59.336636 c -0.0016,4.266346 0,8.534256 0,12.800606 -0.04891,7.53846 0.207664,15.08976 0.890793,22.605784 0.353591,3.47417 0.740056,6.973194 1.650092,10.352764 0.992621,3.36273 2.261861,6.6621 3.997745,9.71454 2.221771,3.92397 5.177985,7.38371 8.482179,10.43214 2.005286,1.84493 4.090753,3.61048 6.384685,5.08097 3.143514,2.04697 6.566372,3.64014 10.103887,4.8725 2.970646,1.00865 6.02468,1.81044 9.138046,2.2362 -0.0032,-3.89111 -8.02e-4,-7.78221 0,-11.67332 -1.584345,-0.23251 -3.144636,-0.61819 -4.668044,-1.10247 -5.462622,-1.74871 -10.489069,-4.79071 -14.638834,-8.74757 -4.344922,-4.13405 -7.678781,-9.26954 -9.991155,-14.79149 -2.439859,-5.705574 -3.532704,-11.878588 -4.307238,-18.005098 -0.946117,-7.88404 -1.217123,-15.83944 -1.152177,-23.777159 -1.964395,-0.0048 -3.927187,-0.0016 -5.889979,0.0016 z"
     id="path84"
     inkscape:connector-curvature="0"
     style="fill:#ffffff;stroke-width:0.80179399" />
  <path
     d="m 372.46454,113.79693 c 5.52516,3.80107 11.09201,6.43584 17.3019,7.55884 3.0837,0.60471 6.2099,0.86393 9.2936,-0.25914 3.81174,-1.42535 4.83963,-5.61512 2.1416,-8.72504 -1.54186,-1.77093 -3.59766,-2.76443 -5.69595,-3.6715 -4.19739,-1.81406 -8.52227,-3.2827 -12.46308,-5.61512 -14.77546,-8.811484 -13.61848,-26.304788 -6.85214,-34.554768 4.75384,-5.78792 11.04953,-8.768263 18.20153,-9.934489 9.80754,-1.598159 19.4435,-0.691095 29.03696,1.857312 1.24198,0.345557 1.49936,0.907057 1.49936,2.073297 -0.0433,5.39917 -0.0858,10.79837 0,16.19758 0.0424,1.81405 -0.29987,2.11641 -1.97081,1.25255 -5.65264,-2.93713 -11.64846,-4.57848 -18.07244,-4.49213 -1.75593,0.0433 -3.38356,0.38879 -4.96791,1.12308 -3.85502,1.77092 -4.36898,6.04705 -1.07119,8.72504 2.44146,1.94371 5.31107,3.02357 8.1374,4.232994 4.49646,1.90049 8.77964,4.0602 12.80545,6.86776 13.91834,9.675344 11.90584,31.401624 -3.59765,39.003674 -6.72384,3.28303 -13.87584,4.14656 -21.19943,4.14656 -7.10951,0 -14.04743,-1.03671 -20.77128,-3.49863 -1.28447,-0.47514 -1.75592,-1.03672 -1.71263,-2.41885 0,-6.52219 -0.0433,-13.00124 -0.0433,-19.86902 z"
     id="path86"
     inkscape:connector-curvature="0"
     style="fill:#ffffff;stroke-width:0.80179399" />
  <path
     d="m 466.49252,59.449088 c 10.61335,0 21.1834,0.04297 31.75264,-0.04298 1.80484,0 2.2779,0.515225 2.2346,2.275534 -0.12909,4.63693 -0.12909,9.31684 0,13.95379 0.0433,1.71743 -0.34396,2.31846 -2.1913,2.27556 -5.92927,-0.12884 -11.85934,0.0429 -17.8311,-0.0859 -1.84813,-0.0429 -2.40618,0.38638 -2.40618,2.31846 0.0858,18.461964 0.0424,36.881018 0.0858,55.342888 0,1.88918 -0.38726,2.53343 -2.40618,2.49028 -6.27323,-0.12884 -12.58977,-0.12884 -18.9063,0 -1.89064,0.0432 -2.53448,-0.34348 -2.49198,-2.40441 0.0858,-18.37608 0,-36.752154 0.0858,-55.128228 0,-2.01789 -0.42897,-2.66189 -2.53447,-2.61899 -5.84348,0.17174 -11.73026,0 -17.61702,0.0859 -1.50417,0 -1.93313,-0.42936 -1.93313,-1.93208 0.0858,-4.7228 0.12829,-9.44561 0,-14.16846 -0.0433,-1.846188 0.38646,-2.44728 2.36289,-2.404344 10.61254,0.08587 21.22589,0.04298 31.79594,0.04298 z"
     id="path88"
     inkscape:connector-curvature="0"
     style="fill:#ffffff;stroke-width:0.80179399" />
</svg>
