<?xml version="1.0" encoding="UTF-8" standalone="no"?>
<svg
   xmlns:dc="http://purl.org/dc/elements/1.1/"
   xmlns:cc="http://creativecommons.org/ns#"
   xmlns:rdf="http://www.w3.org/1999/02/22-rdf-syntax-ns#"
   xmlns:svg="http://www.w3.org/2000/svg"
   xmlns="http://www.w3.org/2000/svg"
   xmlns:sodipodi="http://sodipodi.sourceforge.net/DTD/sodipodi-0.dtd"
   xmlns:inkscape="http://www.inkscape.org/namespaces/inkscape"
   width="500"
   height="200"
   viewBox="0 0 500 200"
   version="1.1"
   id="svg25"
   sodipodi:docname="atari2600.svg"
   inkscape:version="0.92.5 (2060ec1f9f, 2020-04-08)">
  <metadata
     id="metadata31">
    <rdf:RDF>
      <cc:Work
         rdf:about="">
        <dc:format>image/svg+xml</dc:format>
        <dc:type
           rdf:resource="http://purl.org/dc/dcmitype/StillImage" />
        <dc:title>mainlogo</dc:title>
      </cc:Work>
    </rdf:RDF>
  </metadata>
  <defs
     id="defs29" />
  <sodipodi:namedview
     pagecolor="#ffffff"
     bordercolor="#666666"
     borderopacity="1"
     objecttolerance="10"
     gridtolerance="10"
     guidetolerance="10"
     inkscape:pageopacity="0"
     inkscape:pageshadow="2"
     inkscape:window-width="1366"
     inkscape:window-height="743"
     id="namedview27"
     showgrid="false"
     inkscape:zoom="0.98816997"
     inkscape:cx="413.40885"
     inkscape:cy="-17.781751"
     inkscape:window-x="0"
     inkscape:window-y="0"
     inkscape:window-maximized="1"
     inkscape:current-layer="svg25"
     inkscape:pagecheckerboard="true" />
  <title
     id="title2">mainlogo</title>
  <g
     id="Group-11"
     style="fill:#ffffff;fill-rule:nonzero;stroke:none;stroke-width:1"
     transform="matrix(1.1403855,0,0,1.1403855,23.616852,26.043423)">
    <g
       id="Group"
       style="fill:#ffffff">
      <path
         d="m 34.678499,5.1007082 c 4.56695,-5.84291652 14.019842,-6.8409498 19.622725,-1.9392166 2.29295,1.9328999 3.897383,4.5953749 4.71855,7.4568244 10.371966,35.695483 20.791307,71.372015 31.150641,107.064344 -6.12085,0.006 -12.248017,-0.009 -18.365708,0.006 -2.886717,-9.83821 -5.707108,-19.698522 -8.555925,-29.549364 -11.840591,-0.03158 -23.671708,-0.0095 -35.509141,-0.01579 -2.896192,9.847683 -5.757642,19.704844 -8.606458,29.565154 -6.089267,-0.0221 -12.1785332,-0.006 -18.26779969,-0.0126 C 10.722541,83.632665 20.589174,49.576357 30.490549,15.542158 c 1.1749,-3.556283 1.620225,-7.5294665 4.18795,-10.4414498 M 45.486316,26.975324 c -4.342709,14.787317 -8.593825,29.5999 -12.908108,44.396691 8.603299,0.04106 17.203441,0.01263 25.803582,0.01263 C 54.076982,56.58154 49.794282,41.775274 45.486316,26.975324 Z"
         id="Shape"
         inkscape:connector-curvature="0"
         style="fill:#ffffff" />
      <path
         d="m 163.64272,5.8681832 c 3.18992,-4.6269582 9.35814,-6.8725332 14.79048,-5.44496654 4.96805,1.14647494 8.77385,5.42917484 10.08455,10.25194934 10.3625,35.667058 20.76289,71.324641 31.12538,106.991694 -6.13033,0.0411 -12.25749,0 -18.38782,0.0253 -2.84881,-9.85084 -5.66921,-19.711157 -8.54329,-29.55884 -11.81848,0.0063 -23.63381,-0.02211 -35.45229,0.0095 -2.82355,9.857158 -5.73553,19.69221 -8.56224,29.54621 -6.08295,0.009 -12.1659,-0.006 -18.24569,0.009 9.85084,-34.23634 19.81538,-68.447406 29.74202,-102.658472 1.04225,-3.095167 1.44652,-6.4998499 3.4489,-9.1717998 m -1.49073,65.5164648 c 8.56856,0.01263 17.1308,0.0032 25.69936,0.0032 -4.2606,-14.828375 -8.59383,-29.647275 -12.84179,-44.481966 -4.27954,14.828375 -8.60014,29.644116 -12.85757,44.478807 z"
         id="path5"
         inkscape:connector-curvature="0"
         style="fill:#ffffff" />
      <path
         d="m 76.466407,0.24634999 c 22.149391,0 44.292463,0 66.435543,0 0,5.97556651 0,11.94165801 0,17.91722501 -8.15482,0.0063 -16.30648,-0.0095 -24.45814,0.0063 0,33.168816 0.003,66.347107 -0.003,99.515915 -5.8366,0 -11.68268,0 -17.51928,0 0,-33.168808 -0.006,-66.343941 0.003,-99.515915 -8.154817,-0.01579 -16.303317,0 -24.461292,-0.0063 0.0032,-5.975567 -0.0032,-11.9448168 0.0032,-17.91722501 z"
         id="Path"
         inkscape:connector-curvature="0"
         style="fill:#ffffff" />
      <path
         d="m 239.11109,0.97592498 c 1.6834,-0.58113332 3.48049,-0.78010832 5.25547,-0.73589165 6.98308,0.0252667 13.96931,0.003158 20.94607,0.009475 11.76163,0.21476666 22.98635,7.51051647 28.07442,18.09724967 3.52154,6.872533 3.88791,14.863116 2.99726,22.402058 -0.60956,7.895833 -3.91949,15.785349 -9.98981,21.018708 -3.20887,2.855133 -7.19784,4.5859 -10.62463,7.128358 -1.88553,1.437041 -1.97712,4.222691 -1.00435,6.2156 9.26655,14.304091 18.89946,28.390258 28.36183,42.574328 -6.91675,0.0126 -13.83982,-0.0158 -20.75972,0.0126 -9.0581,-13.6061 -18.02145,-27.281685 -27.04165,-40.906735 -2.653,-3.878433 -3.3731,-9.013883 -1.78762,-13.438708 1.24123,-3.39205 4.2069,-5.877658 7.51052,-7.1631 6.30719,-2.40665 12.52595,-6.187175 16.01906,-12.137475 2.65932,-4.475358 2.52035,-9.996124 1.32334,-14.891541 -1.39914,-6.357725 -7.59263,-11.357366 -14.13985,-11.136283 -4.52274,0.03158 -9.04863,-0.02527 -13.56504,0.02211 -2.0466,-0.04737 -3.97319,1.730767 -3.94792,3.802633 -0.019,31.946541 0.0126,63.893082 -0.006,95.845939 -5.88397,-0.0126 -11.76479,0 -17.64876,-0.006 -0.0126,-34.394245 0.006,-68.788494 -0.0126,-103.185902 0.0379,-6.0292579 4.32376,-11.6984661 10.04034,-13.52714102 z"
         id="path8"
         inkscape:connector-curvature="0"
         style="fill:#ffffff" />
      <path
         d="m 312.37811,0.24634999 c 6.19349,0 12.38067,0 18.571,0 -0.003,39.15069901 0.0126,78.29192301 -0.009,117.44578001 -6.18401,-0.0158 -12.37119,0 -18.56152,-0.006 0,-39.150695 0,-78.295078 0,-117.43946001 z"
         id="path10"
         inkscape:connector-curvature="0"
         style="fill:#ffffff" />
    </g>
    <path
       d="m 342.00662,10 c 0.69316,0 1.33996,-0.1281202 1.9404,-0.3843605 0.60044,-0.2562403 1.13355,-0.6196156 1.59934,-1.0901259 0.46578,-0.4705103 0.8245,-1.0083941 1.07616,-1.6136514 C 346.87417,6.3066048 347,5.666004 347,4.9900596 347,4.3096974 346.87196,3.6657831 346.61589,3.0583168 346.35982,2.4508505 346.00221,1.9173846 345.54305,1.4579191 345.08388,0.99845372 344.54967,0.64060084 343.9404,0.3843605 343.33113,0.12812017 342.68653,0 342.00662,0 c -0.67549,0 -1.31678,0.12812017 -1.92384,0.3843605 -0.60706,0.25624034 -1.14459,0.6163022 -1.61258,1.0801856 -0.46799,0.4638833 -0.83002,0.9951402 -1.08609,1.5937707 C 337.12803,3.6569472 337,4.3008615 337,4.9900596 c 0,0.914513 0.22517,1.753921 0.6755,2.518224 0.45033,0.7643031 1.0596,1.3706649 1.82781,1.8190855 C 340.27152,9.7757897 341.10596,10 342.00662,10 Z m 0,-0.8283631 c -0.75496,0 -1.45254,-0.1877624 -2.09271,-0.563287 -0.64018,-0.3755246 -1.14791,-0.8824829 -1.52318,-1.5208747 -0.37528,-0.6383919 -0.56292,-1.3375304 -0.56292,-2.0974156 0,-0.7598851 0.18875,-1.4579191 0.56623,-2.094102 0.37748,-0.6361829 0.88631,-1.1398277 1.52649,-1.5109344 0.64018,-0.3711067 1.33554,-0.55666005 2.08609,-0.55666005 0.57395,0 1.11259,0.10713497 1.6159,0.32140495 0.50331,0.2142699 0.94702,0.5135851 1.33112,0.8979456 0.38411,0.3843605 0.68322,0.8283632 0.89735,1.332008 0.21413,0.5036448 0.3212,1.0404241 0.3212,1.6103379 0,0.7554672 -0.18654,1.4546057 -0.55961,2.0974156 -0.37307,0.6428098 -0.87748,1.1508725 -1.51324,1.5241882 -0.63576,0.3733156 -1.33334,0.5599735 -2.09272,0.5599735 z M 340.6755,7.760106 V 5.4804506 h 0.51655 c 0.3532,0 0.62804,0.09609 0.82451,0.2882704 0.19646,0.1921803 0.45585,0.5754363 0.77814,1.1497681 v 0 l 0.47682,0.8416169 h 1.05298 l -0.649,-1.047051 c -0.26932,-0.4241219 -0.48786,-0.7333775 -0.65563,-0.9277667 -0.16777,-0.1943893 -0.36424,-0.3357632 -0.58941,-0.424122 0.46358,-0.039761 0.83444,-0.2043295 1.11259,-0.4937044 0.27814,-0.2893749 0.41721,-0.6461233 0.41721,-1.0702452 0,-0.2518224 -0.0773,-0.4926 -0.23178,-0.7223327 -0.15453,-0.2297327 -0.35762,-0.3998232 -0.60927,-0.5102717 -0.15453,-0.075105 -0.34438,-0.1237022 -0.56954,-0.1457919 -0.22517,-0.02209 -0.52318,-0.033135 -0.89404,-0.033135 v 0 h -1.84768 V 7.760106 Z m 1.0596,-3.0284957 h -1.0596 V 3.1212724 h 0.99337 c 0.42826,0 0.7638,0.049702 1.00663,0.1491053 0.24282,0.099404 0.36423,0.316987 0.36423,0.6527502 0,0.1943892 -0.0508,0.3523305 -0.15231,0.4738237 -0.10155,0.1214933 -0.24835,0.207643 -0.4404,0.2584493 -0.19205,0.050806 -0.42936,0.076209 -0.71192,0.076209 z"
       id="®"
       inkscape:connector-curvature="0"
       style="fill:#ffffff" />
  </g>
  <path
     d="m 467.57239,136.96466 v 19.19287 c 0,0.7739 -0.46434,1.5478 -1.54781,2.32172 -1.08346,0.7739 -2.16694,1.08346 -3.25041,1.08346 -1.70259,0 -3.86953,-1.23825 -6.65558,-3.71474 -2.63129,-2.47651 -5.41734,-4.95301 -8.04863,-7.58428 -2.63129,-2.47651 -4.79821,-3.86953 -6.34604,-3.86953 -0.7739,0 -1.54781,0.30955 -2.32171,1.08346 -0.77391,0.61913 -1.08347,1.54782 -1.08347,2.63128 0,1.08347 0.30956,2.01215 1.08347,2.78606 0.7739,0.7739 1.7026,1.08348 2.94084,1.08348 v 7.42949 c -3.09562,0 -5.7269,-1.08347 -8.04863,-3.40519 -2.16693,-2.32172 -3.40517,-4.953 -3.40517,-8.04862 0,-3.09562 1.08346,-5.7269 3.40517,-7.89384 2.16695,-2.16694 4.79823,-3.2504 7.89386,-3.2504 3.09562,0 6.34603,1.5478 9.28687,4.48865 3.09561,2.94084 6.03647,5.72691 8.82253,8.51297 l 0.15477,-13.00162 h 7.11994 z m -12.07293,-29.56322 c 3.55997,0 6.50081,1.23824 8.97731,3.86952 2.47649,2.63128 3.55996,5.72692 3.55996,9.28688 0,3.40519 -1.39302,6.19126 -4.02431,8.35819 -2.63128,2.16694 -5.7269,3.40518 -9.13208,3.40518 -1.39304,0 -3.86954,-0.7739 -7.58428,-2.4765 -3.71476,-1.70259 -7.4295,-3.40519 -10.98946,-5.26255 -3.55999,-1.85738 -5.41735,-2.78606 -5.41735,-2.78606 v -8.51298 l 13.31118,6.34603 c 0,-3.55997 1.08347,-6.50081 3.25041,-8.82252 2.01215,-2.16695 4.79821,-3.40519 8.04862,-3.40519 z m 0.30956,7.58428 c -1.39303,0 -2.63128,0.46433 -3.55997,1.39302 -0.92868,0.92869 -1.5478,2.16694 -1.5478,3.4052 0,1.23826 0.46433,2.47649 1.5478,3.40518 1.08348,0.92869 2.16694,1.39304 3.40519,1.39304 1.54781,0 2.63128,-0.46435 3.55997,-1.23825 0.7739,-0.92869 1.23824,-2.01216 1.23824,-3.55997 0,-1.54781 -0.46434,-2.63128 -1.39302,-3.55999 -0.92869,-0.7739 -2.01216,-1.23823 -3.25041,-1.23823 z m 11.91816,-29.718006 c 0,5.107777 -1.7026,9.751215 -4.95301,13.465969 -3.2504,3.869537 -7.58428,5.726897 -13.00162,5.726897 -5.26257,0 -9.90599,-1.85736 -13.46595,-5.572115 -3.71477,-3.714754 -5.57214,-8.20341 -5.57214,-13.156408 0,-4.952999 1.85737,-9.286873 5.57214,-13.001622 3.71474,-3.71475 8.04861,-5.572124 12.84683,-5.572124 4.79822,0 9.13209,1.702593 13.00161,5.107781 3.71476,3.250405 5.57214,7.584279 5.57214,13.001622 z M 449.15343,74.74259 c -2.78606,0 -5.26256,1.083469 -7.42951,3.250407 -2.16694,2.166937 -3.25039,4.643436 -3.25039,7.429498 0,3.250406 1.08345,5.881687 3.40518,8.048626 2.32172,2.166936 4.953,3.250408 7.89384,3.250408 3.09563,0 5.72691,-1.083472 7.73907,-3.405193 2.01215,-2.166936 2.94083,-4.952999 2.94083,-8.048622 0,-2.940843 -1.08347,-5.417343 -3.09562,-7.584281 -2.16694,-1.857374 -4.79822,-2.940843 -8.2034,-2.940843 z m 18.57375,-30.027556 c 0,5.10778 -1.7026,9.751216 -4.95301,13.465966 -3.2504,3.869531 -7.58428,5.726906 -13.00162,5.726906 -5.26257,0 -9.90599,-1.857375 -13.46595,-5.572125 -3.71477,-3.714749 -5.57214,-8.203404 -5.57214,-13.156404 0,-4.952999 1.85737,-9.286872 5.57214,-13.001622 3.71474,-3.714748 8.04861,-5.572124 12.84683,-5.572124 4.79822,0 9.13209,1.702593 13.00161,5.10778 3.71476,3.250406 5.57214,7.58428 5.57214,13.001623 z M 449.15343,34.189912 c -2.78606,0 -5.26256,1.083467 -7.42951,3.250404 -2.16694,2.166937 -3.25039,4.643436 -3.25039,7.429498 0,3.250406 1.08345,5.881687 3.40518,8.048625 2.32172,2.166936 4.953,3.250405 7.89384,3.250405 3.09563,0 5.72691,-1.083469 7.73907,-3.405187 2.01215,-2.166937 2.94083,-4.952999 2.94083,-8.048623 0,-2.940843 -1.08347,-5.417343 -3.09562,-7.58428 -2.16694,-1.857375 -4.79822,-2.940842 -8.2034,-2.940842 z"
     id="path19"
     inkscape:connector-curvature="0"
     style="fill:#ffffff;fill-rule:nonzero;stroke:none;stroke-width:1.14038539" />
  <path
     d="m 472.98973,33.318141 v -6.191249 h -2.32172 v -1.083469 h 6.03648 v 1.083469 h -2.63129 v 6.191249 z m 4.33388,0 v -7.274718 h 1.85737 l 1.85738,5.881686 1.85738,-5.881686 h 1.70258 v 7.274718 h -1.08346 v -6.191249 l -1.85738,6.191249 h -1.08346 l -2.01215,-6.191249 v 6.191249 z"
     id="path21"
     inkscape:connector-curvature="0"
     style="fill:#ffffff;fill-rule:nonzero;stroke:none;stroke-width:1.14038539" />
</svg>
