<?xml version="1.0" encoding="UTF-8" standalone="no"?>
<!-- Created with Inkscape (http://www.inkscape.org/) -->

<svg
   xmlns:dc="http://purl.org/dc/elements/1.1/"
   xmlns:cc="http://creativecommons.org/ns#"
   xmlns:rdf="http://www.w3.org/1999/02/22-rdf-syntax-ns#"
   xmlns:svg="http://www.w3.org/2000/svg"
   xmlns="http://www.w3.org/2000/svg"
   xmlns:sodipodi="http://sodipodi.sourceforge.net/DTD/sodipodi-0.dtd"
   xmlns:inkscape="http://www.inkscape.org/namespaces/inkscape"
   width="500"
   height="200"
   viewBox="0 0 500 200"
   version="1.1"
   id="svg8"
   sodipodi:docname="batman.svg"
   inkscape:version="0.92.5 (2060ec1f9f, 2020-04-08)">
  <defs
     id="defs2" />
  <sodipodi:namedview
     id="base"
     pagecolor="#ffffff"
     bordercolor="#666666"
     borderopacity="1.0"
     inkscape:pageopacity="0.0"
     inkscape:pageshadow="2"
     inkscape:zoom="1.123011"
     inkscape:cx="332.84112"
     inkscape:cy="113.38108"
     inkscape:document-units="mm"
     inkscape:current-layer="layer1"
     showgrid="false"
     units="px"
     inkscape:pagecheckerboard="true"
     inkscape:window-width="1366"
     inkscape:window-height="743"
     inkscape:window-x="0"
     inkscape:window-y="0"
     inkscape:window-maximized="1" />
  <metadata
     id="metadata5">
    <rdf:RDF>
      <cc:Work
         rdf:about="">
        <dc:format>image/svg+xml</dc:format>
        <dc:type
           rdf:resource="http://purl.org/dc/dcmitype/StillImage" />
        <dc:title />
      </cc:Work>
    </rdf:RDF>
  </metadata>
  <g
     inkscape:label="Layer 1"
     inkscape:groupmode="layer"
     id="layer1"
     transform="translate(-22.109548,-244.83804)">
    <path
       inkscape:connector-curvature="0"
       id="path2516"
       d="m 266.9943,400.04232 c -8.08887,-0.32164 -11.91995,-0.56219 -19.07755,-1.19746 -36.08686,-3.20261 -69.44569,-12.28417 -93.74112,-25.52 -19.17178,-10.44451 -32.03557,-23.14262 -37.00632,-36.52974 -1.60446,-4.32115 -2.30997,-7.94876 -2.41829,-12.43448 -0.0655,-2.71217 0.0636,-4.42762 0.53861,-7.15413 1.11022,-6.37315 4.21112,-13.08301 8.84288,-19.13428 9.01929,-11.78363 24.02026,-22.33324 43.83821,-30.82984 19.37409,-8.30628 42.35398,-14.2591 67.73868,-17.54726 19.94301,-2.58332 41.47503,-3.34634 62.34267,-2.20907 35.53509,1.93664 67.89217,9.00718 94.19536,20.58333 24.0892,10.60171 41.10398,24.7477 47.83391,39.76873 2.29333,5.11864 3.34489,9.65984 3.46214,14.95132 0.10207,4.60124 -0.45549,8.27835 -1.91469,12.62585 -3.50656,10.44869 -11.36342,20.14323 -23.67247,29.20968 -8.32768,6.13375 -18.83371,11.81929 -30.98928,16.77038 -1.81125,0.73768 -2.2637,0.91482 -5.16683,2.02258 -4.18472,1.59675 -11.3228,3.93793 -16.5837,5.4393 -1.34038,0.3823 -2.79477,0.80072 -3.23197,0.92952 -1.49374,0.44007 -8.73934,2.23304 -11.58277,2.86667 -23.17341,5.16409 -46.23795,7.58891 -71.7679,7.54504 -4.43439,-0.01 -9.67221,-0.078 -11.63958,-0.156 z m 24.92571,-4.81246 c 18.92678,-0.91536 34.19839,-2.85238 49.90822,-6.33025 16.77111,-3.71289 31.99172,-8.86018 44.9117,-15.18826 18.6351,-9.12736 31.73057,-20.18937 38.28615,-32.34108 2.98529,-5.53378 4.49985,-10.96982 4.66002,-16.7258 0.19515,-7.01141 -1.48619,-13.30305 -5.35321,-20.03288 -3.44974,-6.00371 -8.95345,-12.13771 -15.84684,-17.66176 -21.65161,-17.35033 -58.2549,-29.79638 -99.36218,-33.78559 -18.26256,-1.77226 -36.58514,-1.92248 -54.79115,-0.44923 -15.38238,1.24484 -30.29423,3.62709 -44.00326,7.0297 -2.86284,0.71058 -3.23692,0.80977 -7.0973,1.8819 -12.54232,3.48332 -25.55714,8.53662 -35.42972,13.75646 -14.81659,7.83379 -25.65805,16.81097 -32.26923,26.72026 -2.96784,4.44845 -5.05524,9.21205 -6.09969,13.92008 -0.65814,2.96663 -0.79355,4.26331 -0.79355,7.59896 0,3.3252 0.13583,4.63398 0.7843,7.55761 2.95953,13.34253 13.91075,26.11638 31.50799,36.75184 18.98927,11.47682 43.68859,19.65815 73.13057,24.2236 1.52349,0.23641 1.95173,0.29564 6.0637,0.84457 7.78268,1.03857 17.99427,1.88898 26.64065,2.21865 1.78,0.0678 3.67072,0.14011 4.20161,0.16034 2.13832,0.0809 18.61917,-0.0386 20.95122,-0.14878 z M 279.09493,376.3602 c -0.0313,-0.0881 -0.21378,-0.74857 -0.40483,-1.4668 -1.7276,-6.49314 -5.01265,-13.43127 -8.89839,-18.79369 -6.85496,-9.45996 -15.70713,-15.48182 -24.3001,-16.5305 -1.55029,-0.18874 -4.46672,-0.0747 -5.86449,0.22968 -4.42422,0.96426 -8.10447,3.32336 -11.16917,7.15956 -0.91083,1.14011 -2.32795,3.31364 -2.96635,4.54971 -0.28533,0.55237 -0.56211,1.03135 -0.61502,1.06404 -0.053,0.0289 -0.53273,-0.51428 -1.0663,-1.21575 -3.49241,-4.59055 -7.21114,-8.13256 -11.00421,-10.4812 -1.50749,-0.93341 -4.25311,-2.23863 -5.71297,-2.71592 -7.74002,-2.52998 -15.40947,-0.63851 -21.01232,5.18228 -3.40088,3.53316 -5.55709,8.04349 -6.48843,13.57263 -0.16573,0.98383 -0.20699,1.85353 -0.20666,4.35236 5.7e-4,3.49097 0.12369,4.62136 0.80798,7.416 0.44692,1.82518 0.42588,1.66854 0.22375,1.66854 -0.44571,0 -7.26001,-3.35234 -10.65466,-5.24161 -16.42734,-9.14256 -27.14009,-20.18561 -30.8953,-31.8477 -0.99527,-3.09085 -1.42682,-5.58216 -1.52221,-8.78766 -0.21095,-7.08642 1.97226,-13.88416 6.62917,-20.6412 4.19986,-6.09389 10.51239,-11.98141 18.57372,-17.32317 4.0062,-2.65468 7.18627,-4.48144 12.18126,-6.99711 9.6801,-4.87544 20.38322,-8.85642 33.00166,-12.27478 2.68846,-0.72825 3.27973,-0.86341 3.27973,-0.74954 0,0.0241 -0.55094,0.59777 -1.22431,1.27749 -2.90548,2.93283 -4.27016,6.1664 -4.25978,10.09326 0.007,2.58346 0.55172,4.67846 1.88322,7.24041 3.80522,7.32158 12.87441,12.57947 24.60888,14.26703 3.16769,0.45549 4.36406,0.52294 9.14132,0.51432 5.53048,-0.01 8.15721,-0.22629 13.79716,-1.13727 1.6729,-0.27011 1.7247,-0.29564 2.09103,-1.04145 3.66604,-7.46011 6.54319,-16.63278 8.62826,-27.50797 0.28138,-1.46767 0.59474,-3.07738 0.69632,-3.57701 0.10154,-0.4996 0.21123,-1.13838 0.24373,-1.41948 0.0322,-0.28071 0.10135,-0.55539 0.15306,-0.61004 0.0518,-0.0554 0.41518,0.40493 0.80772,1.02205 0.39256,0.61674 1.4236,2.18166 2.29122,3.47764 1.78447,2.66546 1.49878,2.46655 3.14421,2.18893 0.53088,-0.0896 2.16609,-0.22534 3.63381,-0.30141 3.01694,-0.15648 6.55316,-0.0289 8.88427,0.3173 1.31074,0.19596 1.3356,0.195 1.50647,-0.0241 0.0956,-0.12229 0.96341,-1.40454 1.92855,-2.84924 0.96512,-1.4447 1.82332,-2.65304 1.90709,-2.68516 0.0837,-0.0289 0.21335,-0.26192 0.28788,-0.51124 0.12596,-0.42033 0.41784,-0.80182 0.52867,-0.69102 0.0265,0.0241 0.20699,0.99181 0.40123,2.1454 1.3214,7.84626 3.22477,15.5138 5.35508,21.57239 1.38918,3.95084 3.85822,9.69541 4.3384,10.09394 0.29901,0.24796 4.89652,0.93726 8.92939,1.33843 2.52428,0.25086 10.38505,0.28793 12.66158,0.0616 10.40042,-1.04527 18.46833,-4.29858 23.84794,-9.61635 3.6729,-3.63075 5.64189,-7.90255 5.65341,-12.2653 0.0107,-3.92687 -1.3543,-7.16038 -4.25978,-10.09327 -0.67336,-0.67972 -1.22431,-1.25456 -1.22431,-1.27748 0,-0.092 0.38653,-0.0289 1.16636,0.1873 0.45144,0.12567 1.61295,0.43622 2.58101,0.69036 4.85207,1.27209 12.15728,3.60417 17.14708,5.47402 3.94519,1.47835 5.59987,2.15258 9.48199,3.86369 6.26984,2.7635 12.80949,6.3083 18.05553,9.78694 8.29981,5.50359 14.63954,11.4576 18.86147,17.7139 3.70424,5.48919 5.73717,10.90871 6.30426,16.8063 0.15918,1.65641 0.0679,5.19919 -0.17622,6.84789 -2.22449,15.00901 -15.11649,28.83428 -37.18153,39.87313 -4.24792,2.12514 -5.80666,2.81102 -5.80666,2.55477 0,-0.0386 0.13188,-0.58487 0.29313,-1.22071 0.76748,-3.0273 1.0053,-5.24527 0.92604,-8.63628 -0.0634,-2.71246 -0.25355,-4.13025 -0.8709,-6.49353 -2.47701,-9.4824 -10.04031,-16.24142 -18.85111,-16.84645 -3.71628,-0.25519 -7.47064,0.55544 -11.249,2.42814 -4.87644,2.41721 -9.20512,6.21863 -13.48082,11.83879 -0.53358,0.70134 -1.01342,1.2484 -1.06632,1.21576 -0.0528,-0.0289 -0.33602,-0.52415 -0.62914,-1.09144 -0.75975,-1.47099 -2.34665,-3.81433 -3.51977,-5.1976 -2.86579,-3.37912 -6.4708,-5.58399 -10.60161,-6.48428 -1.38363,-0.30141 -4.28615,-0.41745 -5.85431,-0.23352 -7.20001,0.84491 -14.55453,5.18845 -20.97767,12.38919 -5.55131,6.22335 -9.97098,14.49626 -12.1938,22.82492 -0.41312,1.54774 -0.54967,1.87713 -0.65548,1.58034 z"
       style="fill:#ffffff;stroke-width:0.11355682" />
    <path
       d="m 33.551189,442.25519 c 1.580119,0 3.116881,-0.37074 4.610285,-1.11233 1.493408,-0.74159 2.721854,-1.73739 3.685343,-2.98748 v 0 l -2.745943,-2.98748 c -0.712976,0.91107 -1.531942,1.61028 -2.456893,2.09764 -0.924945,0.48727 -1.917338,0.73095 -2.977172,0.73095 -0.944219,0 -1.816178,-0.18537 -2.61587,-0.55617 -0.799696,-0.37074 -1.493408,-0.87404 -2.081135,-1.50965 -0.587732,-0.63562 -1.0502,-1.39309 -1.387424,-2.27237 -0.337233,-0.8793 -0.50583,-1.82744 -0.50583,-2.84449 0,-1.03818 0.163801,-1.99691 0.491381,-2.87621 0.327604,-0.87929 0.780423,-1.64206 1.358515,-2.28827 0.578092,-0.64625 1.266984,-1.15475 2.066681,-1.52554 0.799696,-0.37074 1.652381,-0.55616 2.558062,-0.55616 1.079104,0 2.1004,0.25952 3.063889,0.77865 0.963488,0.5191 1.801723,1.26598 2.514704,2.24061 v 0 l 2.832654,-3.08282 c -0.944219,-1.27127 -2.177485,-2.28296 -3.699792,-3.03514 -1.522317,-0.75218 -3.092797,-1.12827 -4.711455,-1.12827 -1.503042,0 -2.914555,0.29659 -4.234532,0.88993 -1.319976,0.59323 -2.461712,1.39838 -3.425195,2.41537 -0.96349,1.017 -1.724643,2.23001 -2.283466,3.63899 -0.558823,1.40898 -0.838235,2.91858 -0.838235,4.52886 0,1.61029 0.274592,3.11464 0.823781,4.51303 0.549188,1.39838 1.305527,2.6061 2.269016,3.62309 0.963489,1.017 2.105219,1.82214 3.425196,2.41542 1.319982,0.59324 2.741124,0.88984 4.263435,0.88984 z m 54.774272,0.0337 c 1.503038,0 2.90973,-0.29659 4.220078,-0.88988 1.310342,-0.59324 2.442433,-1.40368 3.396292,-2.43126 0.95385,-1.02764 1.710188,-2.24595 2.269011,-3.65492 0.558838,-1.40898 0.838226,-2.90804 0.838226,-4.49709 0,-1.5891 -0.279408,-3.08811 -0.838226,-4.49709 -0.558823,-1.40902 -1.315161,-2.62728 -2.269011,-3.65492 -0.953859,-1.02759 -2.08595,-1.83802 -3.396292,-2.43126 -1.310348,-0.59329 -2.71704,-0.88989 -4.220078,-0.88989 -1.483774,0 -2.880832,0.2966 -4.191179,0.88989 -1.310342,0.59324 -2.442433,1.40367 -3.396292,2.43126 -0.95385,1.02764 -1.710184,2.2459 -2.269007,3.65492 -0.558824,1.40898 -0.83824,2.90799 -0.83824,4.49709 0,1.58905 0.279408,3.08811 0.83824,4.49709 0.558823,1.40897 1.315157,2.62728 2.269007,3.65492 0.953859,1.02758 2.08595,1.83802 3.396292,2.43126 1.310347,0.59329 2.707405,0.88988 4.191179,0.88988 z m 0,-4.22697 c -0.905676,0 -1.748731,-0.18537 -2.529149,-0.55616 -0.780428,-0.37074 -1.454865,-0.87925 -2.023333,-1.5255 -0.568457,-0.64625 -1.016476,-1.41427 -1.344066,-2.30415 -0.327603,-0.88994 -0.491381,-1.84338 -0.491381,-2.86037 0,-1.03818 0.163802,-1.99697 0.491381,-2.87621 0.327604,-0.87935 0.775609,-1.64207 1.344066,-2.28831 0.568468,-0.64621 1.242905,-1.15475 2.023333,-1.5255 0.780418,-0.37074 1.623473,-0.55621 2.529149,-0.55621 0.905677,0 1.753541,0.18537 2.543603,0.55621 0.790062,0.37075 1.46932,0.87929 2.037787,1.5255 0.568448,0.64624 1.016467,1.40896 1.344065,2.28831 0.327556,0.87924 0.491372,1.83803 0.491372,2.87621 0,1.01699 -0.163801,1.97043 -0.491372,2.86037 -0.327603,0.88988 -0.775617,1.6579 -1.344065,2.30415 -0.568467,0.64625 -1.247725,1.15476 -2.037787,1.5255 -0.790062,0.37074 -1.637926,0.55616 -2.543603,0.55616 z m 63.532379,3.87737 v -4.06803 h -11.07046 v -18.17907 h -4.1912 v 22.2471 z m 52.83765,0 v -4.06803 H 193.625 v -18.17907 h -4.19115 v 22.2471 z m 53.24232,0 v -4.00443 h -11.47514 v -5.27579 h 7.48632 v -3.87732 h -7.48632 v -5.08509 h 11.35953 v -4.00447 h -15.55067 v 22.24714 z m 46.47865,0.31777 c 1.58013,0 3.11689,-0.37074 4.61029,-1.11238 1.4934,-0.74153 2.72185,-1.73734 3.68535,-2.98743 v 0 l -2.74595,-2.98748 c -0.71296,0.91107 -1.53194,1.61024 -2.4569,2.0976 -0.92495,0.48731 -1.91734,0.73094 -2.97718,0.73094 -0.94419,0 -1.81616,-0.18537 -2.61585,-0.55616 -0.79971,-0.37075 -1.49341,-0.87399 -2.08113,-1.50961 -0.58774,-0.63565 -1.05022,-1.39308 -1.38742,-2.27237 -0.33723,-0.87929 -0.50585,-1.82749 -0.50585,-2.84448 0,-1.03818 0.1638,-1.99697 0.49139,-2.87621 0.32761,-0.87934 0.78041,-1.64207 1.35851,-2.28831 0.5781,-0.64621 1.26698,-1.15475 2.06669,-1.5255 0.79967,-0.37074 1.65237,-0.55621 2.55805,-0.55621 1.07912,0 2.1004,0.25952 3.06388,0.77866 0.9635,0.51914 1.80174,1.26597 2.51472,2.2406 v 0 l 2.83264,-3.08282 c -0.94421,-1.27126 -2.17748,-2.28297 -3.6998,-3.03515 -1.52229,-0.75213 -3.09277,-1.12822 -4.71144,-1.12822 -1.50304,0 -2.91454,0.2966 -4.23452,0.88989 -1.31999,0.59324 -2.46172,1.39838 -3.4252,2.41538 -0.96348,1.01704 -1.72465,2.23 -2.28346,3.63902 -0.55884,1.40898 -0.83825,2.91858 -0.83825,4.52887 0,1.61024 0.27459,3.1146 0.82378,4.51297 0.54921,1.39844 1.30553,2.6061 2.26903,3.62315 0.96347,1.01699 2.1052,1.82213 3.42518,2.41538 1.31999,0.59324 2.74112,0.88987 4.26344,0.88987 z m 55.43909,-0.31777 v -18.17906 h 6.79257 v -4.06804 h -17.80525 v 4.06804 h 6.8215 v 18.17906 z m 48.01059,0 v -22.2471 h -4.19117 v 22.2471 z m 48.27067,0.34956 c 1.50306,0 2.90977,-0.2966 4.2201,-0.88989 1.31036,-0.59323 2.44243,-1.40368 3.39631,-2.43126 0.95387,-1.02764 1.71018,-2.24594 2.269,-3.65492 0.55882,-1.40898 0.83822,-2.90804 0.83822,-4.49709 0,-1.5891 -0.27926,-3.08811 -0.83822,-4.49708 -0.55882,-1.40903 -1.31513,-2.62729 -2.269,-3.65492 -0.95388,-1.0276 -2.08595,-1.83803 -3.39631,-2.43127 -1.31033,-0.59329 -2.71704,-0.88989 -4.2201,-0.88989 -1.48374,0 -2.88078,0.2966 -4.19114,0.88989 -1.31033,0.59324 -2.44249,1.40367 -3.39631,2.43127 -0.95384,1.02763 -1.7102,2.24589 -2.26901,3.65492 -0.55881,1.40897 -0.83822,2.90798 -0.83822,4.49708 0,1.58905 0.27926,3.08811 0.83822,4.49709 0.55881,1.40898 1.31517,2.62728 2.26901,3.65492 0.95382,1.02758 2.08598,1.83803 3.39631,2.43126 1.31036,0.59329 2.7074,0.88989 4.19114,0.88989 z m 0,-4.22697 c -0.90562,0 -1.74871,-0.18538 -2.52911,-0.55617 -0.78043,-0.37074 -1.4549,-0.87924 -2.02335,-1.52549 -0.56844,-0.64626 -1.01646,-1.41428 -1.34406,-2.30416 -0.32741,-0.88994 -0.49136,-1.84338 -0.49136,-2.86037 0,-1.03818 0.1637,-1.99697 0.49136,-2.87621 0.32741,-0.87934 0.77562,-1.64207 1.34406,-2.28831 0.56845,-0.64621 1.24292,-1.15475 2.02335,-1.5255 0.7804,-0.37074 1.62349,-0.55621 2.52911,-0.55621 0.90568,0 1.75358,0.18537 2.54365,0.55621 0.79007,0.37075 1.46931,0.87929 2.03775,1.5255 0.56845,0.64624 1.01647,1.40897 1.34407,2.28831 0.32742,0.87924 0.49136,1.83803 0.49136,2.87621 0,1.01699 -0.16371,1.97043 -0.49136,2.86037 -0.32741,0.88988 -0.77562,1.6579 -1.34407,2.30416 -0.56844,0.64625 -1.24768,1.15475 -2.03775,1.52549 -0.79007,0.37074 -1.63797,0.55617 -2.54365,0.55617 z m 52.23068,3.87736 v -14.87383 l 10.31894,14.8738 h 3.69979 v -22.2471 h -3.931 v 14.39708 l -10.05884,-14.39708 h -3.98882 v 22.2471 z"
       id="COLLECTION"
       inkscape:connector-curvature="0"
       style="fill:#ffffff;fill-rule:nonzero;stroke:none;stroke-width:1.2952013" />
  </g>
</svg>
