<?xml version="1.0" encoding="UTF-8" standalone="no"?>
<!-- Created with Inkscape (http://www.inkscape.org/) -->

<svg
   xmlns:dc="http://purl.org/dc/elements/1.1/"
   xmlns:cc="http://creativecommons.org/ns#"
   xmlns:rdf="http://www.w3.org/1999/02/22-rdf-syntax-ns#"
   xmlns:svg="http://www.w3.org/2000/svg"
   xmlns="http://www.w3.org/2000/svg"
   xmlns:sodipodi="http://sodipodi.sourceforge.net/DTD/sodipodi-0.dtd"
   xmlns:inkscape="http://www.inkscape.org/namespaces/inkscape"
   width="500"
   height="200"
   viewBox="0 0 132.29167 52.916666"
   version="1.1"
   id="svg8"
   inkscape:version="0.92.5 (2060ec1f9f, 2020-04-08)"
   sodipodi:docname="battletoads-W.svg">
  <defs
     id="defs2" />
  <sodipodi:namedview
     id="base"
     pagecolor="#ffffff"
     bordercolor="#666666"
     borderopacity="1.0"
     inkscape:pageopacity="0.0"
     inkscape:pageshadow="2"
     inkscape:zoom="1.0595553"
     inkscape:cx="97.435772"
     inkscape:cy="85.401015"
     inkscape:document-units="mm"
     inkscape:current-layer="layer1"
     showgrid="false"
     inkscape:pagecheckerboard="true"
     units="px"
     inkscape:window-width="1366"
     inkscape:window-height="743"
     inkscape:window-x="0"
     inkscape:window-y="0"
     inkscape:window-maximized="1" />
  <metadata
     id="metadata5">
    <rdf:RDF>
      <cc:Work
         rdf:about="">
        <dc:format>image/svg+xml</dc:format>
        <dc:type
           rdf:resource="http://purl.org/dc/dcmitype/StillImage" />
        <dc:title></dc:title>
      </cc:Work>
    </rdf:RDF>
  </metadata>
  <g
     inkscape:label="Layer 1"
     inkscape:groupmode="layer"
     id="layer1"
     transform="translate(0,-244.08334)">
    <path
       style="fill:#ffffff;stroke-width:0.03348731"
       d="m 67.066985,244.84039 c -0.345106,4.2e-4 -0.685678,0.0216 -0.882634,0.0641 -0.79657,0.17179 -1.539449,0.52882 -2.180746,1.04748 -0.121764,0.0985 -0.238974,0.1788 -0.260964,0.1788 -0.02198,0 -0.126097,-0.0585 -0.230994,-0.1297 -0.24353,-0.1653 -0.725646,-0.40674 -1.030428,-0.51625 -0.485156,-0.17431 -0.888875,-0.24081 -1.470713,-0.24133 -0.333451,-3.1e-4 -0.605226,0.0166 -0.719852,0.0444 -0.671261,0.16264 -1.261147,0.44663 -1.828313,0.88005 -0.09379,0.0717 -0.186909,0.13023 -0.206705,0.13023 -0.01979,0 -0.191572,-0.0521 -0.381889,-0.11576 -0.563317,-0.18847 -0.88836,-0.23461 -1.652096,-0.23461 -0.935177,0 -1.406366,0.0923 -2.009179,0.39326 -0.478092,0.23867 -0.827101,0.4983 -1.3286,0.98908 l -0.290939,0.28474 -0.51263,-0.2036 c -1.11366,-0.4419 -2.080151,-0.66864 -3.200321,-0.75086 -1.492668,-0.10955 -3.08012,0.26179 -4.376478,1.02474 -0.688342,0.40511 -1.459261,1.07739 -1.875853,1.63504 -0.106633,0.14274 -0.215345,0.25942 -0.241329,0.25942 -0.02598,0 -0.197787,-0.0445 -0.381889,-0.0992 -0.1841,-0.0547 -0.571865,-0.15222 -0.861447,-0.21652 -2.155335,-0.47857 -4.230666,-0.40851 -5.884394,0.19844 -0.820494,0.30112 -1.872387,0.89991 -2.595191,1.47742 -0.403403,0.32231 -1.247267,1.17224 -1.575615,1.58699 -0.153102,0.19339 -0.388346,0.52008 -0.522965,0.72605 -0.134619,0.20597 -0.256227,0.38101 -0.270268,0.38912 -0.01405,0.008 -0.131005,0.001 -0.259932,-0.0145 -0.463102,-0.0584 -1.71394,-0.0894 -2.444812,-0.061 -3.507765,0.13608 -6.279534,1.1137 -9.111072,3.21375 -1.268597,0.94087 -2.439507,2.20811 -3.408577,3.69022 -1.180091,1.80487 -1.809736,3.56793 -2.049488,5.73608 -0.07229,0.65373 -0.04664,1.93539 0.05374,2.67891 0.0373,0.27627 0.0967,0.73942 0.131775,1.02939 0.27074,2.23869 1.058408,4.75216 2.196765,7.00784 3.232698,6.40565 9.020922,10.36173 16.72456,11.43135 1.440267,0.19998 3.287667,0.35164 4.671549,0.38344 0.202597,0.005 0.473618,0.0115 0.602546,0.015 0.788755,0.0222 2.755578,-0.0944 3.84111,-0.22789 5.265013,-0.64734 9.360241,-2.86221 11.465967,-6.20117 1.067525,-1.69274 1.93533,-4.88066 1.788523,-6.57066 -0.03002,-0.34552 -0.08066,-0.60442 -0.185002,-0.94568 -0.02018,-0.066 -0.0071,-0.0754 0.140041,-0.0961 1.844506,-0.25904 3.548719,-1.15695 4.27726,-2.25412 0.580128,-0.87366 0.898556,-2.00827 0.942062,-3.3538 0.0092,-0.28548 0.01687,-0.53591 0.01654,-0.55656 -2.09e-4,-0.0206 0.116676,-0.0791 0.259416,-0.12971 0.578816,-0.20523 1.163408,-0.56141 1.452624,-0.88521 0.198408,-0.22214 0.409223,-0.62723 0.466637,-0.89659 0.02277,-0.10682 0.05782,-0.21226 0.07803,-0.23461 0.0202,-0.0223 0.194702,-0.0713 0.388091,-0.10904 0.788487,-0.15386 1.090329,-0.27873 1.594734,-0.65836 l 0.251148,-0.18862 0.190687,0.0403 c 0.104947,0.0222 0.386366,0.0483 0.625801,0.0579 0.507479,0.0204 0.798708,-0.028 1.153935,-0.19172 l 0.226343,-0.10439 0.179832,0.0538 c 0.329301,0.0978 0.60012,0.10383 0.945163,0.0207 l 0.311092,-0.0755 0.417028,0.15089 c 0.42363,0.15343 0.843907,0.25747 1.043348,0.25787 0.06063,10e-5 0.223575,-0.0167 0.361735,-0.0377 l 0.251148,-0.0388 0.267684,0.19224 c 0.633328,0.45438 1.006751,0.60604 1.589051,0.6444 0.361058,0.0238 0.328398,0.002 0.666625,0.4377 0.117105,0.15085 0.354098,0.40923 0.526582,0.57413 0.382196,0.36539 0.690814,0.53076 1.236102,0.66249 0.202596,0.0489 0.371215,0.0905 0.375171,0.0925 0.0038,0.002 0.01404,0.24401 0.02274,0.53795 0.06481,2.19392 1.038082,3.701 3.253549,5.03742 0.493445,0.29766 1.338183,0.71275 1.873787,0.92087 0.221017,0.0859 0.437658,0.17078 0.481108,0.18862 0.07154,0.0294 0.07681,0.0462 0.05684,0.17932 -0.04715,0.3156 -0.07449,1.46033 -0.04857,2.05517 0.08904,2.04402 0.542809,3.67398 1.362707,4.89634 0.534763,0.79727 1.358294,1.72456 2.149224,2.41949 2.593314,2.27853 6.22913,3.71089 10.465512,4.12378 1.892136,0.18441 4.143996,0.15423 6.161388,-0.0827 3.3148,-0.38922 6.75073,-1.35851 9.73687,-2.74764 1.25033,-0.58164 2.58881,-1.35849 3.67006,-2.1301 2.22564,-1.58831 4.0835,-3.61115 5.31492,-5.78673 1.27679,-2.25576 2.02761,-4.78678 2.19005,-7.38352 0.0438,-0.70141 0.0444,-1.10573 0.002,-1.85881 -0.0186,-0.33152 -0.0497,-0.89486 -0.0687,-1.2516 -0.11051,-2.08353 -0.57272,-3.92745 -1.4149,-5.6441 -0.75968,-1.54851 -1.69107,-2.7745 -3.00654,-3.95738 -1.14309,-1.02788 -2.1982,-1.75463 -3.49746,-2.40915 -1.3128,-0.66135 -2.56001,-1.0807 -3.82716,-1.28623 -0.22635,-0.0367 -0.4253,-0.0745 -0.44183,-0.0847 -0.0165,-0.0102 0.007,-0.10398 0.0532,-0.20774 0.28341,-0.64083 0.33628,-1.64162 0.12867,-2.44171 -0.0896,-0.34536 -0.32533,-0.88498 -0.46819,-1.07229 -0.0455,-0.0597 -0.0982,-0.14898 -0.11679,-0.19792 -0.0631,-0.16586 -0.32397,-0.53821 -0.53898,-0.76894 -0.46981,-0.50413 -1.07618,-0.85612 -1.74511,-1.01338 -0.33521,-0.0788 -0.44788,-0.0889 -0.99736,-0.0904 -0.68541,-0.002 -0.89194,0.0273 -1.42574,0.2005 -1.06679,0.34618 -2.00495,1.11663 -2.29134,1.88206 -0.039,0.1042 -0.0936,0.28784 -0.12144,0.40773 -0.0278,0.11989 -0.0586,0.23046 -0.0682,0.24597 -0.01,0.0155 -0.0887,-0.0385 -0.1757,-0.11988 -0.95334,-0.89175 -2.531582,-1.53464 -4.373371,-1.78232 -0.474583,-0.0638 -1.676125,-0.0736 -2.159558,-0.0176 -0.814279,0.0944 -1.720601,0.28815 -2.423623,0.51884 -0.20034,0.0657 -0.381357,0.11944 -0.402045,0.11885 -0.02068,-6.3e-4 -0.100764,-0.0948 -0.178281,-0.20929 -0.186765,-0.27592 -0.519296,-0.6497 -0.802019,-0.90123 -1.037677,-0.92318 -2.31907,-1.48836 -3.94653,-1.7415 -0.634743,-0.0987 -2.007404,-0.10756 -2.595189,-0.0165 -0.906973,0.14053 -1.62256,0.35109 -2.308387,0.67903 l -0.382923,0.18345 -0.23926,-0.24391 c -0.716169,-0.72992 -1.64138,-1.16781 -2.822051,-1.3348 -0.417166,-0.059 -1.428139,-0.0221 -1.748729,0.0636 -0.290436,0.0776 -0.568701,0.18326 -0.687298,0.26097 -0.07903,0.0518 -0.08824,0.0498 -0.203605,-0.0419 -0.750946,-0.59698 -1.372899,-0.90806 -2.105816,-1.05368 -0.300879,-0.0598 -1.037185,-0.0601 -1.339453,-5.2e-4 -0.574416,0.11333 -1.31567,0.43796 -1.812293,0.79427 -0.138348,0.0993 -0.262503,0.18086 -0.275952,0.18086 -0.01346,0 -0.09152,-0.0698 -0.17363,-0.15502 -0.518266,-0.53778 -1.363634,-0.96421 -2.259296,-1.13999 -0.214199,-0.042 -0.563367,-0.0629 -0.908471,-0.0625 z m 0.09302,2.13527 c 0.250463,1.9e-4 0.513239,0.017 0.714685,0.0496 0.805011,0.13024 1.700723,0.54641 2.356445,1.09503 0.126582,0.1059 0.244176,0.19223 0.260967,0.19223 0.01681,0 0.140816,-0.0747 0.275436,-0.16639 0.362146,-0.24679 1.023448,-0.55378 1.410248,-0.65423 0.586957,-0.15243 1.282332,-0.14496 2.057757,0.0222 0.553387,0.11933 1.192377,0.37985 1.572514,0.64079 l 0.147794,0.10129 0.153995,-0.061 c 0.428231,-0.16993 0.833779,-0.29018 1.130165,-0.33486 0.645882,-0.0974 1.416227,-0.0515 1.989026,0.11833 0.327576,0.0971 0.850805,0.36583 1.153417,0.59221 0.305708,0.22872 0.814181,0.74636 0.987536,1.00511 0.06706,0.1001 0.143082,0.17521 0.17725,0.1757 0.03283,4.7e-4 0.136483,-0.0382 0.230478,-0.0858 0.681152,-0.34517 1.717435,-0.65763 2.673221,-0.80615 0.555096,-0.0863 1.912194,-0.0863 2.427758,0 1.324949,0.22182 2.507991,0.75104 3.716055,1.66243 0.435715,0.32871 0.995595,0.8253 1.241266,1.10071 0.112146,0.12571 0.143962,0.14318 0.232029,0.12815 0.05609,-0.01 0.305326,-0.0554 0.553971,-0.1018 1.211593,-0.22578 2.527356,-0.32093 3.619415,-0.262 1.385396,0.0747 2.308426,0.29639 3.365688,0.8077 1.587159,0.76758 2.784469,2.0129 3.398759,3.53519 l 0.12196,0.30127 0.19688,-0.003 c 0.10847,-0.002 0.6416,-0.0147 1.18494,-0.0295 2.0795,-0.0561 3.82558,0.15266 5.24103,0.62581 1.10974,0.37097 2.41091,0.94968 3.36723,1.4981 3.62441,2.07847 5.7372,5.21414 6.13865,9.11004 0.16476,1.59909 0.0465,3.2082 -0.34727,4.7165 -0.12421,0.47573 -0.26789,0.84 -0.6165,1.5627 -0.77164,1.5997 -1.5395,2.62481 -3.11557,4.1615 -2.98258,2.90808 -6.43236,5.02213 -10.31565,6.32106 -1.97371,0.66019 -3.92942,1.05789 -6.178434,1.25574 -1.101111,0.0969 -3.148597,0.0963 -4.336688,-10e-4 -2.849287,-0.2339 -5.499999,-0.99059 -7.404713,-2.11357 -0.613971,-0.36199 -1.345711,-0.94592 -1.724959,-1.37666 -0.93421,-1.06102 -1.524122,-2.2441 -1.821596,-3.65301 -0.25051,-1.18648 -0.248417,-2.68113 0.0052,-3.88606 0.04596,-0.21838 0.07543,-0.40517 0.06563,-0.41497 -0.0098,-0.01 -0.227095,-0.0444 -0.482659,-0.077 -1.599948,-0.20382 -2.961052,-0.7103 -3.956349,-1.47227 -0.314335,-0.24065 -0.783465,-0.72246 -0.961696,-0.98753 -0.315894,-0.4698 -0.550135,-1.05715 -0.682647,-1.71204 -0.0896,-0.44282 -0.127582,-1.58021 -0.0677,-2.0252 0.02951,-0.21916 0.02847,-0.28615 -0.0047,-0.31626 -0.02314,-0.021 -0.20823,-0.0564 -0.410827,-0.0786 -0.474432,-0.0517 -1.068326,-0.18403 -1.400431,-0.31161 -0.631794,-0.2427 -1.263039,-0.828 -1.61334,-1.49552 l -0.134358,-0.25579 -0.468704,-0.0419 c -1.091686,-0.0977 -1.563399,-0.3453 -2.137338,-1.12138 -0.104069,-0.14073 -0.202041,-0.26398 -0.218075,-0.27388 -0.01602,-0.01 -0.230923,0.0119 -0.477488,0.0481 -0.488188,0.0718 -0.96673,0.0839 -1.198378,0.0305 -0.195648,-0.0451 -0.590311,-0.2292 -0.825791,-0.3855 -0.166915,-0.11079 -0.201091,-0.12192 -0.278534,-0.0899 -0.628457,0.25995 -0.615702,0.25658 -0.911056,0.25683 -0.268989,2.3e-4 -0.30611,-0.009 -0.580843,-0.14056 -0.161427,-0.0774 -0.312803,-0.14107 -0.335896,-0.14107 -0.0231,0 -0.106773,0.0476 -0.186552,0.10542 -0.389573,0.2822 -0.734981,0.43589 -1.070737,0.47697 -0.279699,0.0342 -0.804953,-0.0329 -1.144633,-0.14676 -0.164671,-0.0552 -0.305377,-0.10077 -0.312642,-0.10077 -0.0073,0 -0.07871,0.10202 -0.159163,0.22634 -0.289094,0.44675 -0.722857,0.84023 -1.133782,1.02836 -0.263392,0.12058 -0.623162,0.18761 -1.128096,0.20981 l -0.445968,0.0191 -0.143142,0.30489 c -0.284869,0.60513 -0.763135,1.09177 -1.376143,1.40095 -0.310809,0.15676 -0.882042,0.28359 -1.674318,0.37104 l -0.368453,0.0408 0.0016,0.11627 c 9.9e-4,0.0642 0.0198,0.27196 0.04186,0.46147 0.202787,1.74182 -0.387779,3.41075 -1.563214,4.41679 -0.765112,0.65484 -1.997319,1.24485 -3.131074,1.49913 -0.439089,0.0985 -1.004038,0.18386 -1.226283,0.18552 -0.245613,0.002 -0.2453,0.001 -0.168465,0.4718 0.330856,2.02739 -0.01899,4.24908 -0.925008,5.87303 -0.780161,1.39837 -1.890749,2.48201 -3.410645,3.32745 -1.827504,1.01654 -4.646988,1.7332 -7.651729,1.94561 -0.706655,0.05 -2.232178,0.0685 -2.941939,0.0357 -1.18387,-0.0547 -2.244143,-0.17408 -3.135725,-0.35295 -3.817362,-0.76584 -7.793385,-2.51441 -10.712008,-4.71082 -1.792806,-1.34917 -3.411127,-2.96692 -4.681885,-4.68085 -0.450991,-0.60828 -1.097214,-1.58902 -1.324467,-2.01022 -0.589562,-1.09275 -1.04025,-2.40313 -1.246435,-3.62407 -0.406936,-2.40971 0.08936,-4.88369 1.42937,-7.12462 0.585261,-0.97875 1.029294,-1.52777 2.099613,-2.59674 1.478964,-1.47713 2.327852,-2.11835 3.736207,-2.82257 1.576475,-0.78829 3.179736,-1.25289 5.157307,-1.49448 0.959469,-0.11723 2.656963,-0.16023 3.449402,-0.0873 0.229888,0.0211 0.328455,0.0183 0.356568,-0.009 0.0214,-0.0212 0.07169,-0.14941 0.111621,-0.28525 0.171817,-0.58453 0.666957,-1.37888 1.199926,-1.92495 1.022175,-1.04729 2.540074,-1.8869 3.99614,-2.21072 0.786894,-0.175 1.103021,-0.20371 2.255157,-0.20412 0.925624,-3.3e-4 1.153655,0.0101 1.674318,0.077 0.694468,0.0893 1.373886,0.20937 1.813843,0.32091 0.168582,0.0427 0.319955,0.0682 0.336412,0.0568 0.01646,-0.0114 0.122013,-0.14931 0.234612,-0.30644 0.786844,-1.09803 2.119177,-1.99338 3.609599,-2.42569 0.726998,-0.21088 1.288023,-0.28525 2.142506,-0.28525 0.953354,0 1.724654,0.10314 2.746602,0.36741 0.404852,0.10469 1.21239,0.36624 1.494481,0.48421 0.04066,0.017 0.125994,-0.0648 0.340032,-0.32504 0.359513,-0.43711 0.69361,-0.74738 1.075385,-0.99891 0.3439,-0.22657 0.547381,-0.31066 0.991156,-0.40927 0.271838,-0.0604 0.427934,-0.0708 1.071769,-0.0708 0.884804,-1e-5 1.021897,0.0194 1.975588,0.28215 0.148667,0.041 0.154252,0.0398 0.385506,-0.1018 0.307255,-0.18809 0.759767,-0.37538 1.173572,-0.48576 0.576165,-0.1537 1.494097,-0.15108 2.257227,0.006 0.545015,0.11229 1.288566,0.40004 1.677419,0.64958 0.0853,0.0547 0.177916,0.0997 0.206187,0.0997 0.02828,0 0.14764,-0.0778 0.265102,-0.1726 0.662836,-0.53471 1.461227,-0.93547 2.155938,-1.08262 0.152657,-0.0323 0.390843,-0.0488 0.641305,-0.0486 z m -2.967259,2.81017 -0.04754,0.0754 c -0.06894,0.10936 -0.824757,2.01597 -0.824757,2.08049 0,0.0471 0.05161,0.0543 0.385506,0.0543 0.368451,0 0.387456,0.003 0.417547,0.0755 0.01732,0.0414 0.334944,2.117 0.7059,4.61264 0.370949,2.49564 0.681369,4.54902 0.68988,4.56302 0.0085,0.014 0.689049,0.0213 1.512052,0.0165 l 1.496549,-0.009 0.0093,-0.92036 c 0.0052,-0.5065 0.0014,-0.95488 -0.0088,-0.99632 l -0.01861,-0.0754 -0.828373,-5.2e-4 c -0.455496,-2.7e-4 -0.84618,-0.0118 -0.868164,-0.0258 -0.0438,-0.0278 -0.101137,-1.09262 -0.117822,-2.18384 l -0.0093,-0.6196 0.58601,-0.0186 c 0.322315,-0.0103 0.589923,-0.0218 0.594796,-0.0253 0.0049,-0.003 0.0049,-0.46975 0,-1.03611 l -0.0088,-1.02939 -0.696081,-0.009 c -0.513768,-0.007 -0.70035,-0.0197 -0.711068,-0.0501 -0.02385,-0.0676 -0.116567,-2.14055 -0.09715,-2.17196 0.0098,-0.0159 0.550844,-0.0289 1.20251,-0.0289 0.675654,0 1.193322,-0.0131 1.204061,-0.0305 0.02072,-0.0336 0.152188,-1.83353 0.152445,-2.08773 v -0.15916 h -2.360062 z m 7.150983,0.015 c -0.369461,-0.001 -0.621871,0.004 -0.639236,0.0186 -0.04036,0.0335 -0.207661,0.28965 -1.149284,1.7601 -0.134747,0.21042 -0.235272,0.39737 -0.22376,0.41599 0.01325,0.0214 0.34595,0.0341 0.907439,0.0341 0.77031,0 0.889076,0.007 0.906404,0.0522 0.01095,0.0286 -0.104317,0.47697 -0.255799,0.99632 -1.00135,3.43316 -1.775601,6.12242 -1.775601,6.16655 0,0.0284 0.04379,0.14581 0.09767,0.26097 0.05388,0.11516 0.248719,0.54833 0.43253,0.96273 0.528849,1.1923 0.604171,1.34639 0.650089,1.33118 0.02539,-0.008 0.297574,-1.06261 0.686263,-2.65668 0.354431,-1.45354 0.88283,-3.61485 1.174089,-4.80281 l 0.529685,-2.16007 0.697632,-0.0165 0.69763,-0.0165 0.04548,-0.15089 c 0.120441,-0.39912 0.51952,-2.04802 0.504878,-2.08618 -0.0172,-0.0448 -2.177717,-0.10581 -3.286104,-0.10904 z m -10.639144,0.39481 c -0.794793,-0.007 -1.032597,2.5e-4 -1.058849,0.0331 -0.02376,0.0297 0.04565,0.36241 0.23306,1.11414 0.146929,0.58938 0.769554,3.10327 1.38338,5.58622 0.61382,2.48294 1.133999,4.536 1.156001,4.56251 0.06167,0.0743 2.201281,0.0716 2.229837,-0.003 0.01773,-0.048 -0.13825,-1.90888 -0.174667,-2.08359 -0.01562,-0.075 -0.01842,-0.0749 -0.668692,-0.0749 -0.645578,0 -0.653457,-9.2e-4 -0.684713,-0.0754 -0.0174,-0.0414 -0.243726,-1.48443 -0.502811,-3.20652 -0.481703,-3.20177 -0.692372,-4.59191 -0.817004,-5.3914 l -0.07028,-0.45217 z m 44.558005,0.002 c 1.23192,0.0574 2.15388,0.66411 2.4815,1.63246 0.17597,0.52013 0.18058,1.10352 0.0124,1.55288 -0.26531,0.70912 -1.06781,1.31952 -1.98127,1.5074 -0.30786,0.0633 -0.85889,0.0647 -1.16479,0.003 v -5.2e-4 c -0.30918,-0.0625 -0.50964,-0.13556 -0.85421,-0.3116 -0.24229,-0.12381 -0.36044,-0.21328 -0.60358,-0.45682 -0.4582,-0.45897 -0.67269,-0.9304 -0.709,-1.55857 -0.0327,-0.5667 0.14619,-1.01921 0.58446,-1.47794 0.60673,-0.63506 1.35048,-0.93162 2.23449,-0.89039 z m -46.828149,0.0646 c -0.04698,-0.004 -0.116088,-0.001 -0.219109,0.007 -0.273402,0.0211 -1.495928,0.0846 -3.015319,0.15606 -0.460451,0.0217 -0.861819,0.052 -0.891937,0.0677 -0.06552,0.0341 -0.0621,0.0212 -0.210838,0.80047 -0.06503,0.34074 -0.193638,1.01148 -0.285771,1.49035 -0.09213,0.47887 -0.168161,0.88959 -0.168466,0.91261 -9.5e-4,0.0702 0.135443,0.0492 1.456243,-0.22428 0.961361,-0.19905 1.281973,-0.25409 1.310513,-0.22479 0.02078,0.0213 0.401534,1.60576 0.84646,3.52123 0.682723,2.93921 0.820285,3.49225 0.881084,3.54345 0.03963,0.0334 0.427453,0.31676 0.861446,0.62994 0.433991,0.31319 1.075296,0.77833 1.425237,1.03353 0.591349,0.43125 0.719852,0.51069 0.719852,0.44338 0,-0.0342 -2.022938,-6.02167 -2.868041,-8.48888 -0.280803,-0.81978 -0.322303,-0.96847 -0.27957,-0.99581 0.02763,-0.0177 0.298649,-0.0327 0.602546,-0.0331 0.631728,-9.1e-4 0.904338,-0.0258 0.904338,-0.0822 0,-0.0215 -0.05045,-0.16641 -0.112138,-0.32194 -0.06169,-0.15552 -0.275246,-0.70437 -0.47439,-1.22008 -0.199141,-0.5157 -0.37764,-0.958 -0.396875,-0.98289 -0.01338,-0.0173 -0.03828,-0.0277 -0.08526,-0.0315 z m 19.47323,0.20774 c -0.301048,0.0169 -0.635539,0.0999 -0.999424,0.25218 -0.631065,0.26404 -1.514094,0.93276 -2.113049,1.60093 -0.555596,0.6198 -1.151946,1.49713 -1.52187,2.23708 -0.552818,1.10579 -1.104001,2.82713 -1.258838,3.93309 -0.276333,1.97371 0.201705,3.37692 1.218531,3.57911 0.101296,0.0202 0.214307,0.0435 0.251145,0.0517 0.125929,0.0282 0.587243,-0.0188 0.829408,-0.0847 0.328869,-0.0894 0.845913,-0.35218 1.2299,-0.62477 0.380674,-0.27024 1.197012,-1.06969 1.54719,-1.51515 1.405049,-1.7873 2.411884,-4.19152 2.603977,-6.2172 0.201152,-2.12122 -0.482434,-3.28562 -1.78697,-3.2122 z m 26.038199,0.46199 c -0.0599,0.0115 -0.21153,0.25886 -0.185,0.30178 0.009,0.0151 0.0911,0.0651 0.1819,0.11111 0.0908,0.046 0.16537,0.0974 0.16537,0.11472 0,0.0173 -0.14336,0.24255 -0.31833,0.50023 -0.17497,0.25768 -0.31781,0.49155 -0.31781,0.51986 0,0.0482 0.2719,0.21517 0.35605,0.2186 0.021,8.7e-4 0.13985,-0.16064 0.26407,-0.35864 0.3946,-0.62897 0.45101,-0.71158 0.48627,-0.71158 0.0189,0 0.0937,0.0303 0.16588,0.0672 0.0722,0.0368 0.16082,0.0672 0.19689,0.0672 0.0753,0 0.2157,-0.20439 0.19896,-0.28938 -0.0124,-0.0629 -1.10559,-0.55813 -1.19425,-0.54105 z m -52.676366,0.43563 c -0.0287,-0.011 -0.391613,0.0679 -0.80667,0.17518 -0.415062,0.10731 -1.184542,0.30615 -1.709457,0.44183 -0.524912,0.13567 -1.398669,0.35961 -1.941999,0.49817 -1.234345,0.31474 -1.846398,0.478 -1.865519,0.49712 -0.02972,0.0297 -0.08096,3.17828 -0.05219,3.20704 0.01675,0.0168 0.796009,-0.20086 1.81901,-0.50798 l 1.789554,-0.53692 0.06718,0.077 c 0.03683,0.0425 1.120034,1.52669 2.407089,3.29799 1.28705,1.77131 2.36433,3.23012 2.394167,3.24218 0.108013,0.0437 1.751391,0.63304 2.71663,0.9741 0.543333,0.19198 1.085895,0.38522 1.205611,0.42943 0.254873,0.0941 0.349446,0.10559 0.324012,0.0393 -0.0098,-0.0254 -0.309103,-0.42097 -0.665592,-0.87902 -0.356491,-0.45804 -0.724389,-0.93086 -0.817522,-1.05058 -0.09313,-0.11971 -0.853004,-1.09916 -1.68827,-2.17661 -0.835263,-1.07746 -1.689637,-2.17774 -1.898591,-2.44482 -1.181341,-1.50985 -1.616956,-2.07708 -1.616956,-2.10684 0,-0.0369 0.124867,-0.0745 0.561207,-0.16898 0.37642,-0.0815 1.313207,-0.29893 1.389579,-0.32247 0.03223,-0.01 0.05891,-0.0335 0.05891,-0.0527 0,-0.0192 -0.239541,-0.41392 -0.531752,-0.87694 -0.292213,-0.46304 -0.656037,-1.04309 -0.808736,-1.28881 -0.152696,-0.24572 -0.300992,-0.45563 -0.329694,-0.46664 z m 54.221496,0.1943 c -0.0224,-4.4e-4 -0.0986,0.0785 -0.1695,0.17518 -0.29474,0.40236 -0.87798,1.22925 -0.87798,1.24489 0,0.0248 0.36022,0.28732 0.39429,0.28732 0.0159,0 0.14125,-0.17003 0.27802,-0.37724 l 0.24856,-0.37672 0.01,0.2775 0.0103,0.27751 0.14883,0.0723 0.14883,0.0724 0.0925,-0.0677 c 0.33352,-0.24518 0.4439,-0.31522 0.4439,-0.28112 0,0.0213 -0.10516,0.18765 -0.23409,0.36949 -0.12893,0.18184 -0.23461,0.3534 -0.23461,0.38137 0,0.0479 0.34249,0.28007 0.42168,0.28577 0.0201,0.001 0.0592,-0.0242 0.0873,-0.0563 0.12536,-0.14299 0.96325,-1.41335 0.96325,-1.46037 0,-0.0586 -0.44777,-0.32176 -0.5488,-0.32246 -0.0349,-2.4e-4 -0.2098,0.09 -0.38861,0.2005 -0.17881,0.11051 -0.34177,0.20102 -0.36225,0.20102 -0.0244,0 -0.0407,-0.12355 -0.047,-0.35966 l -0.009,-0.36019 -0.16744,-0.0915 c -0.0921,-0.0503 -0.18582,-0.0916 -0.20825,-0.092 z m -28.215334,0.28887 c 0.213987,-0.003 0.404162,0.061 0.550871,0.20154 0.474551,0.45454 0.260908,1.74433 -0.475938,2.87424 -0.530095,0.81286 -1.403749,1.27692 -2.005047,1.06454 -0.204348,-0.0722 -0.413991,-0.29126 -0.501261,-0.52452 -0.183367,-0.49009 -0.01783,-1.38473 0.381373,-2.06344 0.550648,-0.93616 1.408046,-1.54401 2.050002,-1.55236 z m 6.924125,0.0667 c -0.121134,-0.004 -0.251823,0.0717 -1.364774,0.79324 -0.676859,0.43882 -1.230415,0.81617 -1.230415,0.83871 0,0.0257 0.239056,0.0966 0.64182,0.19017 0.353113,0.082 0.647407,0.16476 0.653709,0.18396 0.0063,0.0192 -0.196077,0.26866 -0.449585,0.55449 -0.253513,0.28584 -0.573966,0.64841 -0.712102,0.80564 -0.138134,0.15723 -0.906513,1.02273 -1.707907,1.9234 -0.801396,0.90066 -1.647227,1.85632 -1.87947,2.12338 -0.232249,0.26706 -1.18482,1.34411 -2.116667,2.39365 -0.931844,1.04955 -1.682509,1.91986 -1.668116,1.93425 0.0318,0.0318 0.554244,0.0448 1.351338,0.0336 l 0.593247,-0.008 0.977201,-1.125 c 0.537604,-0.61863 0.997638,-1.13264 1.02216,-1.14205 0.02452,-0.009 0.274767,0.0294 0.556037,0.0863 0.824606,0.16673 0.9075,0.18777 0.921909,0.231 0.01364,0.0409 -0.587452,1.22847 -0.944647,1.86603 -0.103188,0.18418 -0.2741,0.50363 -0.379304,0.71004 l -0.191204,0.37517 0.401527,0.41186 c 0.220858,0.22645 0.566179,0.58223 0.766878,0.79065 0.29473,0.30608 0.372449,0.37049 0.405144,0.33486 0.02227,-0.0243 1.370697,-2.56054 2.996715,-5.63635 v -5.1e-4 c 1.626024,-3.07581 3.170431,-5.99163 3.431834,-6.47971 0.762979,-1.4246 0.832654,-1.56312 0.813385,-1.61334 -0.01222,-0.0319 -0.182655,-0.0781 -0.515729,-0.13953 -0.273674,-0.0505 -0.889526,-0.16845 -1.368393,-0.262 -0.478867,-0.0935 -0.930915,-0.17172 -1.004591,-0.17415 z m 7.496185,2.11564 -1.428853,0.78186 c -1.226412,0.67093 -1.541438,0.86506 -1.401982,0.86506 0.03429,0 1.306939,0.26504 1.389579,0.28939 0.03326,0.01 0.05578,0.0392 0.05012,0.0651 -0.0057,0.026 -0.749483,0.79666 -1.652611,1.71307 -1.729965,1.75539 -7.660696,7.81166 -8.084262,8.25531 l -0.248047,0.25993 0.05219,0.10852 c 0.136166,0.28195 0.964991,1.27415 1.404049,1.68104 0.315047,0.29198 0.706377,0.57197 0.988052,0.70745 0.277305,0.13338 0.908897,0.27915 1.573033,0.36277 0.493492,0.0621 1.646113,0.0469 2.149739,-0.0284 1.817815,-0.27173 3.661471,-1.10334 5.412589,-2.44171 1.871546,-1.43042 3.602741,-4.12419 4.02766,-6.26732 0.08257,-0.41642 0.08193,-1.64783 -0.001,-2.17351 -0.225206,-1.42846 -0.82853,-2.50299 -1.826247,-3.25199 -0.59227,-0.44464 -1.513059,-0.82008 -2.217436,-0.90434 z m -51.374642,0.31833 c -0.04968,0.0102 -1.190215,0.53654 -2.53473,1.16943 -2.385779,1.12303 -2.444919,1.15259 -2.453595,1.24902 -0.0049,0.0543 0.05925,0.46075 0.142627,0.90279 0.08338,0.44203 0.226816,1.21062 0.318844,1.7079 0.21151,1.14294 0.192296,1.06494 0.25528,1.04077 0.02877,-0.011 0.330674,-0.20307 0.670761,-0.42685 l 0.618567,-0.40669 0.07751,0.0801 c 0.05562,0.0579 9.741448,11.15332 11.083044,12.69586 0.07531,0.0866 0.151596,0.15325 0.170016,0.14831 0.01842,-0.005 0.15671,-0.37733 0.306956,-0.82734 0.421653,-1.26292 0.621099,-1.90753 0.603581,-1.95078 -0.0088,-0.0217 -0.223843,-0.32547 -0.477491,-0.67541 -0.253643,-0.34994 -0.835607,-1.15621 -1.293461,-1.79162 -0.45785,-0.63543 -0.997801,-1.38151 -1.199925,-1.65778 -0.202123,-0.27627 -0.363804,-0.52908 -0.359153,-0.56173 0.01343,-0.0943 1.802828,-1.60384 1.883606,-1.58905 0.03684,0.007 0.997556,0.63268 2.134753,1.39113 1.137201,0.75845 2.094312,1.37925 2.126486,1.37925 0.08877,0 3.317568,-1.06796 3.340364,-1.10485 0.0205,-0.0331 -0.399748,-0.3565 -0.87023,-0.66972 -0.239107,-0.15918 -1.769108,-1.22979 -3.525883,-2.46755 -0.344601,-0.2428 -0.958027,-0.67353 -1.363223,-0.95705 -0.405199,-0.28352 -0.962932,-0.67367 -1.239202,-0.86713 -0.27627,-0.19346 -0.886847,-0.62077 -1.356506,-0.9493 -0.469659,-0.32853 -1.049374,-0.73489 -1.288809,-0.9033 -0.239435,-0.1684 -0.554445,-0.38649 -0.699701,-0.48421 -0.145254,-0.0977 -0.408951,-0.28099 -0.58601,-0.40773 -0.177059,-0.12674 -1.238136,-0.87286 -2.357996,-1.65778 -1.749843,-1.22648 -2.048851,-1.42456 -2.126485,-1.40869 z m 42.348319,2.19676 c 0.0064,0.0191 -0.380267,0.79226 -0.858862,1.71824 -1.112303,2.15206 -1.084421,2.10138 -1.1436,2.10065 -0.02765,-3.4e-4 -0.275471,-0.0942 -0.550355,-0.20878 -0.274875,-0.11462 -0.505357,-0.22529 -0.512111,-0.24597 -0.0068,-0.0207 0.677825,-0.79389 1.520835,-1.71824 0.84301,-0.92436 1.537737,-1.66497 1.544093,-1.6459 z m 9.773565,1.2578 c 0.09401,0.004 0.293277,0.14133 0.473871,0.33228 0.285036,0.30139 0.407083,0.64537 0.407729,1.15135 7.91e-4,0.55897 -0.157684,1.10992 -0.519867,1.80765 -0.465855,0.89746 -1.097616,1.73187 -1.971971,2.60449 -1.422795,1.41996 -2.814564,2.25036 -4.205428,2.50992 -0.354018,0.0661 -0.856308,0.089 -1.122413,0.0512 -0.29406,-0.0418 -0.610822,-0.12898 -0.811321,-0.22376 -0.215106,-0.10169 -0.550476,-0.35019 -0.623734,-0.46198 -0.05115,-0.0781 -0.05,-0.0866 0.02119,-0.15452 0.313243,-0.29887 8.281445,-7.58841 8.318354,-7.60987 0.0088,-0.005 0.02016,-0.007 0.03359,-0.007 z m -51.650595,0.63304 c 0.02294,-0.023 5.248259,3.63468 5.248259,3.67368 0,0.0262 -1.284409,1.03508 -1.317749,1.03508 -0.01011,0 -0.880695,-1.02862 -1.93425,-2.28565 -1.053552,-1.25703 -1.938099,-2.31171 -1.96577,-2.34405 -0.02767,-0.0323 -0.04151,-0.0681 -0.03049,-0.0791 z m 61.209697,2.33267 c -0.24022,0.002 -0.46465,0.0112 -0.65939,0.0295 -1.946396,0.18196 -3.338951,0.99769 -4.039028,2.36626 -0.316333,0.6184 -0.374608,0.9316 -0.369488,1.97973 0.0057,1.17191 0.0987,2.22784 0.37724,4.28191 0.222621,1.6417 0.271672,2.1657 0.272852,2.91093 0.002,1.34966 -0.215318,1.9822 -0.941028,2.73833 -0.782084,0.81488 -1.447919,1.12635 -2.325441,1.08779 -0.652293,-0.0287 -1.125876,-0.23492 -1.596284,-0.69504 -0.634064,-0.6202 -1.003877,-1.48782 -1.139981,-2.67581 -0.05182,-0.45226 -0.02257,-1.7505 0.04857,-2.16318 0.0286,-0.16577 0.08459,-0.44673 0.124539,-0.62476 0.03995,-0.17803 0.06239,-0.34996 0.05013,-0.38189 -0.02025,-0.0528 -0.06799,-0.0559 -0.531752,-0.0377 -0.78486,0.0308 -1.527032,0.1472 -2.510956,0.39429 -0.476645,0.11969 -0.735651,0.21354 -0.802537,0.29094 -0.127495,0.14752 -0.314241,1.26875 -0.362768,2.17765 -0.107561,2.01469 0.319744,3.71636 1.302245,5.18469 0.309761,0.46294 0.791612,1.03665 1.146186,1.36478 1.139152,1.05419 2.640086,1.87122 3.760493,2.0469 0.727533,0.11409 1.524516,0.14391 2.181262,0.0822 1.94464,-0.1828 3.481229,-1.11229 4.467946,-2.7032 0.83339,-1.3437 1.32227,-3.23212 1.20871,-4.66845 -0.0431,-0.54512 -0.1449,-1.18311 -0.36742,-2.30218 -0.36221,-1.8215 -0.4374,-2.40079 -0.4594,-3.5357 -0.0187,-0.96515 0.0158,-1.32767 0.17725,-1.85674 0.20734,-0.67977 0.60132,-1.22049 1.01751,-1.39629 0.0645,-0.0272 0.29108,-0.0922 0.50333,-0.14418 0.99651,-0.24425 1.99932,-0.21637 2.9316,0.0822 0.38338,0.12275 1.08616,0.48334 1.45314,0.74517 0.59535,0.42475 1.26219,1.14761 1.68362,1.82573 0.48233,0.77614 0.76223,1.69057 0.76223,2.4908 0,0.40105 -0.10822,1.11324 -0.20774,1.36736 -0.21555,0.55042 -0.87562,1.12617 -1.65106,1.44074 -0.12894,0.0523 -0.25231,0.11145 -0.27441,0.13126 -0.0308,0.0276 0.0189,0.22006 0.21239,0.82269 0.13901,0.43283 0.32783,1.02822 0.41962,1.32291 0.0918,0.29469 0.19198,0.5557 0.22272,0.57981 0.10527,0.0825 0.73413,-0.0236 1.34824,-0.22737 0.8265,-0.27431 1.55176,-0.71299 2.127,-1.28726 0.72184,-0.72063 1.1035,-1.47764 1.28468,-2.54765 0.25334,-1.49624 -0.0508,-3.09868 -0.83561,-4.40438 -0.93667,-1.55847 -2.18932,-2.96144 -3.55017,-3.97599 -1.27569,-0.95106 -2.83165,-1.65619 -4.27468,-1.93683 -0.60401,-0.11747 -1.46369,-0.18447 -2.18436,-0.17984 z m -72.798653,1.6459 c -0.605997,-0.009 -1.462978,0.0208 -1.764751,0.0734 -1.943225,0.33887 -4.287173,2.05773 -6.894669,5.05602 -0.648914,0.74617 -1.574016,1.91209 -2.043803,2.57555 l -0.160714,0.22686 0.237712,0.39274 c 0.130611,0.21584 0.725201,1.19849 1.321366,2.18385 0.596165,0.98537 1.102446,1.79162 1.125513,1.79162 0.02307,0 0.339469,-0.54988 0.7028,-1.22214 0.363331,-0.67226 0.676742,-1.22215 0.696598,-1.22215 0.01985,0 3.352597,1.77766 7.406266,3.95066 7.321566,3.92478 7.370366,3.95156 7.369059,4.05195 -7.12e-4,0.0556 -0.04273,0.35145 -0.09354,0.65732 -0.05081,0.30586 -0.0866,0.57323 -0.07958,0.59428 0.01584,0.0475 0.177507,0.0478 3.555339,0.003 1.630426,-0.0214 2.63539,-0.0465 2.647902,-0.0667 0.01109,-0.018 0.04472,-0.23211 0.07493,-0.47594 0.03021,-0.24384 0.103704,-0.83291 0.163298,-1.30896 l 0.108519,-0.86558 0.170016,-0.30851 c 0.09365,-0.16951 0.322228,-0.52554 0.507979,-0.79168 1.021284,-1.46326 1.54383,-2.79525 1.651579,-4.21112 0.0579,-0.76081 -0.03214,-1.4776 -0.280603,-2.23242 -0.50667,-1.53932 -1.525982,-2.68957 -3.153813,-3.55947 -1.851959,-0.98967 -3.949033,-1.29488 -5.90093,-0.85886 -0.755224,0.1687 -1.651916,0.52647 -2.295467,0.91519 -0.15485,0.0935 -0.286872,0.17001 -0.293523,0.17001 -0.0067,0 -0.01272,-0.32805 -0.01344,-0.72864 -0.0014,-0.78188 -0.03903,-1.08826 -0.202054,-1.65984 -0.331671,-1.16285 -1.04833,-2.04439 -2.085662,-2.56522 -0.533709,-0.26796 -1.238507,-0.46074 -1.983858,-0.54209 -0.116384,-0.0127 -0.290477,-0.0201 -0.492476,-0.0233 z m -1.339453,3.68918 c 0.240064,0.01 0.485055,0.0628 0.734838,0.15916 0.877496,0.3384 1.389512,1.03061 1.503785,2.03295 0.07171,0.62897 -0.05597,1.3985 -0.320394,1.93167 -0.146518,0.29544 -0.368302,0.62235 -0.434599,0.64027 -0.01842,0.005 -0.888421,-0.37105 -1.933215,-0.83509 -1.044794,-0.46404 -2.020961,-0.89484 -2.16886,-0.95757 -0.147898,-0.0627 -0.282917,-0.13105 -0.30024,-0.15192 -0.04018,-0.0484 0.194203,-0.59573 0.428914,-1.00201 0.38187,-0.66101 0.89299,-1.23776 1.334285,-1.50534 0.369326,-0.22393 0.755377,-0.32837 1.155486,-0.31212 z m 9.147762,4.32222 c 0.76994,0.003 1.715436,0.31323 2.416905,0.8077 0.86192,0.60757 1.263613,1.53809 1.111562,2.57659 -0.02966,0.20259 -0.09365,0.50396 -0.141594,0.66972 -0.12287,0.42485 -0.63105,1.4623 -0.712618,1.45469 -0.01358,-10e-4 -1.343282,-0.65585 -2.954859,-1.45469 -1.611577,-0.79884 -2.943064,-1.47268 -2.958992,-1.49758 -0.03674,-0.0575 0.185039,-0.5073 0.439767,-0.89245 0.352933,-0.53363 0.969986,-1.10333 1.464509,-1.35186 0.258574,-0.12996 0.688279,-0.25452 1.01751,-0.29455 0.1016,-0.0124 0.207817,-0.0181 0.31781,-0.0176 z"
       id="path105"
       inkscape:connector-curvature="0" />
    <path
       d="m 3.3479674,296.97912 c 0.41209,0 0.81287,-0.0909 1.20234,-0.27264 0.38947,-0.18177 0.70985,-0.42585 0.96112,-0.73226 v 0 l -0.71613,-0.73226 c -0.18594,0.22329 -0.39952,0.39469 -0.64074,0.51414 -0.24122,0.11945 -0.50003,0.17916 -0.77643,0.17916 -0.24625,0 -0.47366,-0.0454 -0.68221,-0.13634 -0.20856,-0.0909 -0.38947,-0.21423 -0.54275,-0.37002 -0.15328,-0.1558 -0.27389,-0.34148 -0.36184,-0.55699 -0.0879,-0.21553 -0.13192,-0.44792 -0.13192,-0.6972 0,-0.25449 0.0427,-0.48947 0.12816,-0.70499 0.0854,-0.21554 0.20353,-0.40248 0.35429,-0.56088 0.15076,-0.1584 0.33043,-0.28304 0.53898,-0.37393 0.20856,-0.0909 0.43094,-0.13633 0.66713,-0.13633 0.28143,0 0.54778,0.0636 0.79905,0.19086 0.25128,0.12725 0.46988,0.31032 0.65582,0.5492 v 0 l 0.73875,-0.75563 c -0.24625,-0.31159 -0.56788,-0.55958 -0.96489,-0.74394 -0.39701,-0.18438 -0.80659,-0.27655 -1.22873,-0.27655 -0.39199,0 -0.7601,0.0727 -1.10434,0.21811 -0.34425,0.14543 -0.642,0.34275 -0.89328,0.59204 -0.25127,0.24927 -0.44977996,0.54659 -0.59551996,0.89195 -0.14574,0.34536 -0.2186,0.71538 -0.2186,1.11007 0,0.39469 0.0716,0.76342 0.21483,1.10618 0.14323,0.34275 0.34047996,0.63878 0.59174996,0.88806 0.25127,0.24927 0.54903,0.44662 0.89328,0.59203 0.34424,0.1454 0.71487,0.21812 1.11188,0.21812 z m 14.2848796,0.008 c 0.39199,0 0.75885,-0.0727 1.10058,-0.21811 0.34174,-0.1454 0.63698,-0.34406 0.88574,-0.59593 0.24876,-0.25188 0.44601,-0.5505 0.59175,-0.89585 0.14574,-0.34536 0.2186,-0.71279 0.2186,-1.10228 0,-0.3895 -0.0729,-0.75693 -0.2186,-1.10229 -0.14574,-0.34534 -0.34299,-0.64395 -0.59175,-0.89583 -0.24876,-0.25188 -0.544,-0.45052 -0.88574,-0.59593 -0.34173,-0.14543 -0.70859,-0.21811 -1.10058,-0.21811 -0.38696,0 -0.7513,0.0727 -1.09304,0.21811 -0.34173,0.1454 -0.63697,0.34406 -0.88573,0.59593 -0.24876,0.25188 -0.44601,0.55049 -0.59175,0.89585 -0.14574,0.34535 -0.21861,0.71278 -0.21861,1.10228 0,0.3895 0.0729,0.75693 0.21861,1.10228 0.14574,0.34536 0.34299,0.64397 0.59175,0.89585 0.24876,0.25188 0.544,0.45052 0.88573,0.59593 0.34174,0.14544 0.70608,0.21812 1.09304,0.21812 z m 0,-1.03606 c -0.23619,0 -0.45606,-0.0454 -0.65959,-0.13634 -0.20353,-0.0909 -0.37942,-0.21551 -0.52767,-0.3739 -0.14825,-0.1584 -0.26509,-0.34666 -0.35053,-0.56477 -0.0854,-0.21812 -0.12815,-0.45182 -0.12815,-0.7011 0,-0.25449 0.0427,-0.48947 0.12815,-0.70499 0.0854,-0.21554 0.20228,-0.40249 0.35053,-0.56089 0.14825,-0.1584 0.32414,-0.28303 0.52767,-0.37391 0.20353,-0.0909 0.42339,-0.13634 0.65959,-0.13634 0.2362,0 0.45733,0.0454 0.66337,0.13634 0.20604,0.0909 0.38319,0.2155 0.53144,0.37391 0.14825,0.15841 0.2651,0.34536 0.35052,0.56089 0.0854,0.2155 0.12816,0.45051 0.12816,0.70499 0,0.24927 -0.0427,0.48297 -0.12816,0.7011 -0.0854,0.21811 -0.20228,0.40637 -0.35052,0.56477 -0.14825,0.15841 -0.3254,0.28304 -0.53144,0.37392 -0.20604,0.0909 -0.42717,0.13633 -0.66337,0.13633 z m 16.56896,0.95039 v -0.99722 h -2.88713 v -4.45588 h -1.09304 v 5.45298 z m 13.77983,0 v -0.99722 h -2.88714 v -4.45588 h -1.09303 v 5.45298 z m 13.88535,0 v -0.98154 h -2.99266 v -1.29314 h 1.95239 v -0.95049 h -1.95239 v -1.24639 h 2.96251 v -0.98154 h -4.05555 v 5.45298 z m 12.12142,0.0779 c 0.4121,0 0.81287,-0.0909 1.20235,-0.27264 0.38947,-0.18177 0.70984,-0.42586 0.96112,-0.73226 v 0 l -0.71614,-0.73226 c -0.18595,0.22332 -0.39952,0.39469 -0.64074,0.51414 -0.2412,0.11945 -0.50003,0.17916 -0.77643,0.17916 -0.24625,0 -0.47366,-0.0454 -0.68221,-0.13634 -0.20854,-0.0909 -0.38947,-0.21423 -0.54275,-0.37002 -0.15329,-0.1558 -0.27387,-0.34148 -0.36184,-0.55699 -0.088,-0.21553 -0.1319,-0.44792 -0.1319,-0.6972 0,-0.25449 0.0427,-0.48947 0.12816,-0.70499 0.0854,-0.21554 0.20353,-0.40248 0.3543,-0.56088 0.15075,-0.1584 0.33043,-0.28304 0.53898,-0.37392 0.20857,-0.0909 0.43094,-0.13634 0.66713,-0.13634 0.28143,0 0.54778,0.0636 0.79905,0.19087 0.25126,0.12724 0.46988,0.31028 0.65582,0.54919 v 0 l 0.73875,-0.75562 c -0.24629,-0.31159 -0.56791,-0.55959 -0.96491,-0.74395 -0.39702,-0.18438 -0.8066,-0.27655 -1.22874,-0.27655 -0.39198,0 -0.7601,0.0727 -1.10434,0.21811 -0.34425,0.1454 -0.642,0.34275 -0.89328,0.59204 -0.25126,0.24927 -0.44978,0.54659 -0.59551,0.89195 -0.14574,0.34535 -0.2186,0.71538 -0.2186,1.11007 0,0.3947 0.0716,0.76342 0.21485,1.10618 0.14324,0.34275 0.34049,0.63878 0.59175,0.88806 0.25126,0.24927 0.54904,0.44662 0.89328,0.59203 0.34425,0.1454 0.71487,0.21812 1.11188,0.21812 z m 14.45827,-0.0779 v -4.45589 h 1.77147 v -0.99712 h -4.64353 v 0.99712 h 1.77901 v 4.45587 z m 12.520943,0 v -5.4531 h -1.093043 v 5.45298 z m 12.58879,0.0857 c 0.39199,0 0.75885,-0.0727 1.10058,-0.21812 0.34172,-0.14539 0.63697,-0.34405 0.88574,-0.59593 0.24875,-0.25188 0.44601,-0.55049 0.59175,-0.89585 0.14574,-0.34535 0.21859,-0.71278 0.21859,-1.10228 0,-0.3895 -0.0729,-0.75693 -0.21859,-1.10228 -0.14574,-0.34536 -0.34299,-0.64397 -0.59175,-0.89585 -0.24876,-0.25188 -0.54401,-0.45052 -0.88574,-0.59593 -0.34171,-0.14543 -0.70859,-0.21811 -1.10058,-0.21811 -0.38696,0 -0.75131,0.0727 -1.09303,0.21811 -0.34175,0.1454 -0.63698,0.34406 -0.88574,0.59593 -0.24876,0.25188 -0.44601,0.55049 -0.59175,0.89585 -0.14574,0.34535 -0.21863,0.71278 -0.21863,1.10228 0,0.3895 0.0729,0.75693 0.21863,1.10228 0.14574,0.34536 0.34298,0.64397 0.59175,0.89585 0.24875,0.25188 0.544,0.45052 0.88574,0.59593 0.34172,0.14544 0.70607,0.21812 1.09303,0.21812 z m 0,-1.03607 c -0.2362,0 -0.45606,-0.0454 -0.65959,-0.13634 -0.20353,-0.0909 -0.37942,-0.21554 -0.52767,-0.37391 -0.14825,-0.1584 -0.26509,-0.34666 -0.35053,-0.56478 -0.0854,-0.21811 -0.12817,-0.45182 -0.12817,-0.7011 0,-0.25448 0.0427,-0.48947 0.12817,-0.70499 0.0855,-0.21554 0.20229,-0.40248 0.35053,-0.56088 0.14824,-0.1584 0.32414,-0.28303 0.52767,-0.37392 0.20353,-0.0909 0.4234,-0.13633 0.65959,-0.13633 0.23619,0 0.45732,0.0454 0.66336,0.13633 0.20607,0.0909 0.38319,0.21551 0.53144,0.37392 0.14825,0.15841 0.26509,0.34535 0.35053,0.56088 0.0854,0.21554 0.12813,0.45052 0.12813,0.70499 0,0.24928 -0.0427,0.48298 -0.12813,0.7011 -0.0855,0.21811 -0.20229,0.40638 -0.35053,0.56478 -0.14824,0.1584 -0.32538,0.28304 -0.53144,0.37391 -0.20603,0.0909 -0.42716,0.13634 -0.66336,0.13634 z m 13.62152,0.95038 v -3.64571 l 2.69114,3.64571 h 0.96489 v -5.453 h -1.0252 v 3.52886 l -2.62329,-3.52886 h -1.04027 v 5.45298 z"
       id="COLLECTION"
       inkscape:connector-curvature="0"
       style="fill:#ffffff;fill-rule:nonzero;stroke:none;stroke-width:0.46869686" />
  </g>
</svg>
