<?xml version="1.0" encoding="UTF-8" standalone="no"?>
<!-- Created with Inkscape (http://www.inkscape.org/) -->

<svg
   xmlns:dc="http://purl.org/dc/elements/1.1/"
   xmlns:cc="http://creativecommons.org/ns#"
   xmlns:rdf="http://www.w3.org/1999/02/22-rdf-syntax-ns#"
   xmlns:svg="http://www.w3.org/2000/svg"
   xmlns="http://www.w3.org/2000/svg"
   xmlns:sodipodi="http://sodipodi.sourceforge.net/DTD/sodipodi-0.dtd"
   xmlns:inkscape="http://www.inkscape.org/namespaces/inkscape"
   width="500"
   height="200"
   viewBox="0 0 132.29166 52.916668"
   version="1.1"
   id="svg50"
   inkscape:version="0.92.5 (2060ec1f9f, 2020-04-08)"
   sodipodi:docname="Capcom.svg">
  <defs
     id="defs44" />
  <sodipodi:namedview
     id="base"
     pagecolor="#ffffff"
     bordercolor="#666666"
     borderopacity="1.0"
     inkscape:pageopacity="0.0"
     inkscape:pageshadow="2"
     inkscape:zoom="1.1340553"
     inkscape:cx="339.09218"
     inkscape:cy="-24.112393"
     inkscape:document-units="mm"
     inkscape:current-layer="layer1"
     showgrid="false"
     units="px"
     inkscape:pagecheckerboard="true"
     inkscape:window-width="1366"
     inkscape:window-height="743"
     inkscape:window-x="0"
     inkscape:window-y="0"
     inkscape:window-maximized="1" />
  <metadata
     id="metadata47">
    <rdf:RDF>
      <cc:Work
         rdf:about="">
        <dc:format>image/svg+xml</dc:format>
        <dc:type
           rdf:resource="http://purl.org/dc/dcmitype/StillImage" />
        <dc:title />
      </cc:Work>
    </rdf:RDF>
  </metadata>
  <g
     inkscape:label="Layer 1"
     inkscape:groupmode="layer"
     id="layer1"
     transform="translate(0,-244.08332)">
    <path
       d="m 4.5198823,296.83582 c 0.410307,0 0.809356,-0.0886 1.197146,-0.26595 0.38779,-0.17731 0.706779,-0.4154 0.956966,-0.71429 v 0 l -0.713033,-0.71428 c -0.185139,0.21783 -0.397798,0.385 -0.637978,0.50152 -0.24018,0.11651 -0.497872,0.17477 -0.773078,0.17477 -0.245184,0 -0.471603,-0.0443 -0.679259,-0.13298 -0.207655,-0.0887 -0.38779,-0.20896 -0.540404,-0.36094 -0.152614,-0.15197 -0.272704,-0.33307 -0.36027,-0.54331 -0.08756,-0.21023 -0.131348,-0.43692 -0.131348,-0.68008 0,-0.24823 0.04253,-0.47746 0.127595,-0.68769 0.08506,-0.21023 0.202652,-0.3926 0.352764,-0.54711 0.150113,-0.15451 0.328997,-0.27609 0.536652,-0.36474 0.207655,-0.0886 0.429071,-0.13297 0.664247,-0.13297 0.28021,0 0.545408,0.062 0.795596,0.18616 0.250187,0.12411 0.46785,0.30268 0.652989,0.53571 v 0 l 0.73555,-0.73708 c -0.245184,-0.30394 -0.565423,-0.54584 -0.960719,-0.72567 -0.395296,-0.17984 -0.803101,-0.26976 -1.223416,-0.26976 -0.390292,0 -0.756816,0.0709 -1.099573,0.21277 -0.342756,0.14184 -0.639228,0.33434 -0.889415,0.5775 -0.250187,0.24316 -0.447835,0.53318 -0.592944,0.87005 -0.145109,0.33688 -0.217663,0.69782 -0.217663,1.08283 0,0.385 0.0713,0.74467 0.21391,1.07902 0.142607,0.33434 0.339004,0.62309 0.589191,0.86625 0.250187,0.24316 0.546659,0.43567 0.889416,0.57751 0.342756,0.14184 0.711782,0.21276 1.107078,0.21276 z m 14.2231437,0.008 c 0.390292,0 0.755566,-0.0709 1.095821,-0.21276 0.340254,-0.14184 0.634224,-0.33561 0.881909,-0.58131 0.247686,-0.24569 0.444083,-0.53697 0.589191,-0.87385 0.145109,-0.33688 0.217663,-0.69528 0.217663,-1.07522 0,-0.37994 -0.07255,-0.73834 -0.217663,-1.07522 -0.145108,-0.33688 -0.341505,-0.62816 -0.589191,-0.87386 -0.247685,-0.24569 -0.541655,-0.43946 -0.881909,-0.5813 -0.340255,-0.14184 -0.705529,-0.21276 -1.095821,-0.21276 -0.385288,0 -0.748059,0.0709 -1.088314,0.21276 -0.340255,0.14184 -0.634225,0.33561 -0.88191,0.5813 -0.247686,0.2457 -0.444082,0.53698 -0.589191,0.87386 -0.145109,0.33688 -0.217663,0.69528 -0.217663,1.07522 0,0.37994 0.07255,0.73834 0.217663,1.07522 0.145109,0.33688 0.341505,0.62816 0.589191,0.87385 0.247685,0.2457 0.541655,0.43947 0.88191,0.58131 0.340255,0.14184 0.703026,0.21276 1.088314,0.21276 z m 0,-1.01063 c -0.235176,0 -0.45409,-0.0443 -0.656741,-0.13297 -0.202652,-0.0887 -0.377783,-0.21024 -0.525393,-0.36474 -0.147611,-0.15451 -0.263948,-0.33815 -0.349012,-0.55092 -0.08506,-0.21276 -0.127595,-0.44072 -0.127595,-0.68388 0,-0.24822 0.04253,-0.47745 0.127595,-0.68768 0.08506,-0.21024 0.201401,-0.39261 0.349012,-0.54711 0.14761,-0.15451 0.322741,-0.27609 0.525393,-0.36475 0.202651,-0.0887 0.421565,-0.13297 0.656741,-0.13297 0.235176,0 0.455341,0.0443 0.660494,0.13297 0.205154,0.0887 0.381536,0.21024 0.529146,0.36475 0.147611,0.1545 0.263948,0.33687 0.349012,0.54711 0.08506,0.21023 0.127595,0.43946 0.127595,0.68768 0,0.24316 -0.04253,0.47112 -0.127595,0.68388 -0.08506,0.21277 -0.201401,0.39641 -0.349012,0.55092 -0.14761,0.1545 -0.323992,0.27608 -0.529146,0.36474 -0.205153,0.0887 -0.425318,0.13297 -0.660494,0.13297 z m 16.497345,0.92705 V 295.7876 H 32.36572 v -4.34648 h -1.088316 v 5.31912 z m 13.72027,0 v -0.97264 h -2.87465 v -4.34648 h -1.088316 v 5.31912 z m 13.825344,0 v -0.95744 h -2.979727 v -1.26139 h 1.943952 v -0.92705 h -1.943952 v -1.2158 h 2.949708 v -0.95744 h -4.038023 v 5.31912 z m 12.069033,0.076 c 0.410308,0 0.809357,-0.0887 1.197149,-0.26596 0.387789,-0.1773 0.706776,-0.4154 0.956964,-0.71428 v 0 L 76.2961,295.14172 c -0.18514,0.21783 -0.397799,0.385 -0.637979,0.50151 -0.240179,0.11652 -0.497875,0.17478 -0.773081,0.17478 -0.245182,0 -0.471601,-0.0443 -0.679254,-0.13298 -0.207659,-0.0887 -0.387792,-0.20897 -0.540406,-0.36094 -0.152615,-0.15198 -0.272707,-0.33308 -0.36027,-0.54331 -0.08757,-0.21023 -0.131347,-0.43693 -0.131347,-0.68009 0,-0.24822 0.04253,-0.47745 0.127595,-0.68768 0.08506,-0.21024 0.20265,-0.39261 0.352764,-0.54711 0.150114,-0.15451 0.328993,-0.27609 0.536649,-0.36475 0.207655,-0.0887 0.429072,-0.13297 0.664247,-0.13297 0.280209,0 0.545409,0.0621 0.795594,0.18617 0.25019,0.12411 0.467855,0.30268 0.652989,0.53571 v 0 l 0.735549,-0.73708 c -0.245181,-0.30395 -0.565419,-0.54584 -0.960715,-0.72568 -0.395295,-0.17984 -0.803103,-0.26975 -1.223417,-0.26975 -0.390293,0 -0.756817,0.0709 -1.099572,0.21276 -0.342754,0.14184 -0.639228,0.33434 -0.889415,0.5775 -0.25019,0.24317 -0.447834,0.53318 -0.592945,0.87006 -0.145108,0.33688 -0.217662,0.69782 -0.217662,1.08282 0,0.385 0.0713,0.74468 0.213911,1.07902 0.142607,0.33434 0.339002,0.6231 0.58919,0.86626 0.250187,0.24316 0.546658,0.43566 0.889415,0.5775 0.342757,0.14184 0.711782,0.21277 1.107078,0.21277 z m 14.395778,-0.076 v -4.34648 h 1.76382 v -0.97264 H 86.39115 v 0.97264 h 1.77133 v 4.34648 z m 12.466834,0 v -5.31912 h -1.08832 v 5.31912 z m 12.53438,0.0836 c 0.39029,0 0.75556,-0.0709 1.09582,-0.21276 0.34025,-0.14184 0.63422,-0.33561 0.8819,-0.58131 0.24769,-0.24569 0.44409,-0.53697 0.5892,-0.87385 0.1451,-0.33688 0.21766,-0.69528 0.21766,-1.07522 0,-0.37994 -0.0726,-0.73834 -0.21766,-1.07522 -0.14511,-0.33688 -0.34151,-0.62816 -0.5892,-0.87386 -0.24768,-0.24569 -0.54165,-0.43946 -0.8819,-0.5813 -0.34026,-0.14184 -0.70553,-0.21276 -1.09582,-0.21276 -0.38529,0 -0.74806,0.0709 -1.08832,0.21276 -0.34025,0.14184 -0.63423,0.33561 -0.88191,0.5813 -0.24768,0.2457 -0.44408,0.53698 -0.58919,0.87386 -0.14511,0.33688 -0.21766,0.69528 -0.21766,1.07522 0,0.37994 0.0726,0.73834 0.21766,1.07522 0.14511,0.33688 0.34151,0.62816 0.58919,0.87385 0.24768,0.2457 0.54166,0.43947 0.88191,0.58131 0.34026,0.14184 0.70303,0.21276 1.08832,0.21276 z m 0,-1.01063 c -0.23518,0 -0.4541,-0.0443 -0.65675,-0.13297 -0.20265,-0.0887 -0.37778,-0.21024 -0.52539,-0.36474 -0.14761,-0.15451 -0.26395,-0.33815 -0.34901,-0.55092 -0.0851,-0.21276 -0.1276,-0.44072 -0.1276,-0.68388 0,-0.24822 0.0425,-0.47745 0.1276,-0.68768 0.0851,-0.21024 0.2014,-0.39261 0.34901,-0.54711 0.14761,-0.15451 0.32274,-0.27609 0.52539,-0.36475 0.20265,-0.0887 0.42157,-0.13297 0.65675,-0.13297 0.23517,0 0.45534,0.0443 0.66049,0.13297 0.20515,0.0887 0.38154,0.21024 0.52915,0.36475 0.1476,0.1545 0.26394,0.33687 0.34901,0.54711 0.0851,0.21023 0.12759,0.43946 0.12759,0.68768 0,0.24316 -0.0425,0.47112 -0.12759,0.68388 -0.0851,0.21277 -0.20141,0.39641 -0.34901,0.55092 -0.14761,0.1545 -0.324,0.27608 -0.52915,0.36474 -0.20515,0.0887 -0.42532,0.13297 -0.66049,0.13297 z m 13.56265,0.92705 v -3.55621 l 2.6795,3.55621 h 0.96072 v -5.31912 h -1.02076 v 3.44223 l -2.61196,-3.44223 h -1.03577 v 5.31912 z"
       id="COLLECTION"
       inkscape:connector-curvature="0"
       style="fill:#ffffff;fill-rule:nonzero;stroke:none;stroke-width:0.32272285" />
    <path
       style="fill:#ffffff;fill-rule:nonzero;stroke:none;stroke-width:0.30358225"
       inkscape:connector-curvature="0"
       id="path3950"
       d="m 13.417954,259.40946 c -5.3292003,0.0335 -9.6817335,3.91541 -9.6817335,8.99346 0,5.07805 4.8047991,9.44002 10.6208725,9.30871 l 5.65157,0.0159 v -4.44934 h -1.067412 c -0.335359,0.83891 -1.901682,1.65947 -3.037339,1.65947 -0.598471,0 -2.105094,-0.0813 -2.662431,-0.27655 -0.983998,-0.34464 -2.388044,-0.83937 -3.6088364,-2.89118 -0.3271445,-0.71926 -1.2483181,-2.47202 -1.0424987,-5.02887 0.09968,-1.54101 1.0785218,-3.46467 2.8349941,-4.33581 0.765896,-0.37986 1.536918,-0.44219 2.89069,-0.31934 0.971909,0.0882 1.937623,0.77158 2.274798,1.59178 0.260775,0.63435 0.185839,1.40734 -0.121149,1.84765 -0.0219,0.0314 -0.02237,0.0592 -0.01783,0.0892 0.0035,0.0228 0.03306,0.0609 0.03306,0.0609 l 0.534945,0.41791 c 0,0 0.152296,0.10581 0.330192,0.10107 0.103315,-0.003 0.288004,-0.11483 0.288004,-0.11483 l 3.055049,-3.20606 c -1.888731,-2.54852 -5.245225,-3.46406 -7.27494,-3.46406 z" />
    <path
       style="fill:#ffffff;fill-rule:nonzero;stroke:none;stroke-width:0.30358225"
       inkscape:connector-curvature="0"
       id="path3990"
       d="m 89.764607,259.32341 c -5.649827,0 -10.230018,4.24962 -10.230018,9.49191 0,5.2423 4.580191,9.49191 10.230018,9.49191 5.649824,0 10.230015,-4.24961 10.230015,-9.49191 0,-5.24229 -4.580191,-9.49191 -10.230015,-9.49191 z m 0.06677,2.95095 c 2.908266,0 4.466973,2.08122 5.098813,4.56196 0.180865,0.7101 0.107538,3.07119 -2.34e-4,3.85739 -0.328555,2.39744 -2.288175,4.73377 -5.131621,4.66184 -2.770871,-0.0701 -4.624362,-1.36012 -5.198706,-4.82955 -0.168009,-1.0149 -0.170935,-2.23409 -0.03406,-3.25365 0.39687,-2.95629 2.357513,-4.99799 5.265786,-4.99799 v 0 z" />
    <path
       style="fill:#ffffff;fill-rule:nonzero;stroke:none;stroke-width:0.30358225"
       inkscape:connector-curvature="0"
       id="path4001"
       d="m 30.261321,259.91257 c 0,0 -4.492357,12.15588 -5.297334,14.36957 -0.804976,2.21369 -1.71026,2.14681 -1.71026,2.14681 l 0.06677,1.34121 5.429399,-10e-4 0.0044,-1.28839 c 0,0 -0.348374,-0.0179 -0.603836,-0.25239 -0.495473,-0.45482 -0.181958,-1.36982 -0.181958,-1.36982 l 1.255364,-3.21142 5.575404,0.0117 c 0,0 1.086788,2.71346 1.352948,3.60908 0.347268,1.16852 -0.737368,1.18934 -0.737368,1.18934 v 1.30965 l 6.865989,-0.004 -0.0044,-1.29499 c 0,0 -0.408891,-0.0624 -0.843758,-0.44169 -0.493288,-0.43027 -0.829086,-1.31773 -0.829086,-1.31773 l -5.623096,-14.78338 z m 1.611943,3.73749 1.861406,5.18214 -3.605416,0.0161 z" />
    <path
       style="fill:#ffffff;fill-rule:nonzero;stroke:none;stroke-width:0.30358225"
       inkscape:connector-curvature="0"
       id="rect3593"
       d="m 44.474609,259.8935 -0.02641,1.49015 c 0,0 0.436403,0.12504 0.854032,0.58843 0.221423,0.24568 0.08438,3.36402 0.08438,3.36402 l -0.0073,9.98203 c 0,0 0.142246,0.39343 -0.335301,0.78873 -0.180267,0.14922 -0.33993,0.30738 -0.618512,0.33163 l -0.03301,1.328 6.3634,0.0154 0.01542,-1.35075 c 0,0 -0.225094,-0.0888 -0.578157,-0.4072 -0.199287,-0.17973 -0.322052,-0.43838 -0.319159,-0.69628 0.0053,-0.90175 0.02644,-1.76819 0.02201,-2.64867 2.229014,-0.53689 4.15327,-1.44727 4.903337,-1.72347 2.819459,-1.12504 5.007237,-2.91129 4.879122,-6.0978 -0.0242,-2.25759 -1.169277,-4.10805 -3.622289,-4.52621 -1.118209,-0.32309 -1.631581,-0.37955 -2.072711,-0.40427 z m 7.277598,2.53079 c 0.686375,-0.0132 1.494806,0.14409 2.117192,0.45756 0.775656,0.51496 1.247565,1.04841 1.247565,2.17691 0.03199,0.53054 -0.120455,0.9867 -0.375656,1.45053 -0.265728,0.44353 -1.069556,1.29499 -1.577109,1.78208 -1.483844,1.0608 -2.014839,1.37178 -3.193625,1.91438 l -0.01888,-7.56233 c 0.628218,-0.11849 1.191721,-0.21509 1.80051,-0.21913 z" />
    <path
       style="fill:#ffffff;fill-rule:nonzero;stroke:none;stroke-width:0.30358225"
       inkscape:connector-curvature="0"
       id="path3622"
       d="m 71.375191,259.42132 c -5.329202,0.0335 -9.681733,3.91541 -9.681733,8.99346 0,5.07805 4.804799,9.44002 10.620871,9.3087 l 5.651569,0.0159 v -4.44934 h -1.067411 c -0.335358,0.83891 -1.901681,1.65947 -3.037337,1.65947 -0.598473,0 -2.105097,-0.0813 -2.662435,-0.27656 -0.983995,-0.34463 -2.388042,-0.83936 -3.608834,-2.89117 -0.327146,-0.71927 -1.248318,-2.47203 -1.042498,-5.02888 0.09968,-1.541 1.078521,-3.46466 2.834994,-4.33581 0.765895,-0.37985 1.536918,-0.44218 2.890689,-0.31933 0.971909,0.0882 1.937622,0.77158 2.274799,1.59178 0.260774,0.63435 0.185838,1.40734 -0.12115,1.84764 -0.02189,0.0314 -0.02237,0.0592 -0.01782,0.0892 0.0035,0.0228 0.03306,0.0609 0.03306,0.0609 l 0.534949,0.4179 c 0,0 0.152295,0.10582 0.330191,0.10108 0.103315,-0.003 0.288002,-0.11483 0.288002,-0.11483 l 3.055037,-3.20606 c -1.888731,-2.54852 -5.245225,-3.46406 -7.274939,-3.46406 z" />
    <path
       style="fill:#ffffff;fill-rule:nonzero;stroke:none;stroke-width:0.30358225"
       inkscape:connector-curvature="0"
       id="path3624"
       d="m 102.55158,259.92872 0.006,1.28031 c 0,0 0.55984,0.15071 0.78212,0.32649 0.25413,0.20097 0.19003,0.55762 0.19003,0.55762 0,0 -2.03082,12.62023 -2.07491,12.85447 -0.0474,0.25199 -0.1146,0.84073 -0.46883,1.16805 -0.35223,0.32548 -0.75865,0.39107 -0.75865,0.39107 l -0.006,1.2627 h 5.68619 v -1.17979 c 0,0 -0.4628,-0.0358 -0.77112,-0.34411 -0.30832,-0.30832 -0.21938,-1.15558 -0.21938,-1.15558 l 1.39918,-9.53447 2.84603,8.20573 3.46674,0.0477 2.81595,-8.83671 1.57159,10.16471 c 0,0 0.18957,0.76415 -0.21937,1.15632 -0.31471,0.3018 -0.77039,0.34411 -0.77039,0.34411 v 1.17979 h 6.58718 l -0.006,-1.2627 c 0,0 -0.14745,0.0505 -0.52166,-0.24946 -0.22007,-0.1764 -0.32602,-0.96302 -0.37346,-1.21501 -0.0441,-0.23424 -1.81885,-12.93298 -1.81885,-12.93298 0,0 -0.0309,-0.52435 0.2568,-0.7924 0.20734,-0.19319 0.63172,-0.37639 0.63172,-0.37639 l -0.0103,-1.04552 -6.83884,-0.008 -2.50266,7.20863 -2.38674,-7.20863 -6.49253,-0.006 z" />
    <path
       style="fill:#ffffff;fill-rule:nonzero;stroke:none;stroke-width:0.30358225"
       inkscape:connector-curvature="0"
       id="path3629"
       d="m 128.8498,257.20228 c -1.80894,0 -3.27537,1.46643 -3.27537,3.27536 0,1.80894 1.46643,3.27537 3.27537,3.27537 1.80893,0 3.27537,-1.46643 3.27537,-3.27537 0,-1.80893 -1.46644,-3.27536 -3.27537,-3.27536 z m 0,0.44034 c 1.56573,0 2.83502,1.26929 2.83502,2.83502 0,1.56574 -1.26929,2.83502 -2.83502,2.83502 -1.56573,0 -2.83502,-1.26928 -2.83502,-2.83502 0,-1.56573 1.26929,-2.83502 2.83502,-2.83502 z" />
    <path
       style="fill:#ffffff;fill-rule:nonzero;stroke:none;stroke-width:0.30358225"
       inkscape:connector-curvature="0"
       id="rect3634"
       d="m 127.16363,258.49946 v 3.87762 h 0.81808 v -1.34414 h 1.08661 l 0.89952,1.36102 0.9186,-0.006 -1.09762,-1.44246 c 0.45067,-0.18401 0.76965,-0.63786 0.76965,-1.16952 0,-0.68546 -0.53012,-1.24292 -1.18933,-1.25757 v -0.0161 h -1.38743 v -0.003 h -0.81808 z m 0.81808,0.78286 1.36102,0.007 c 0.27647,0.0469 0.46005,0.0754 0.45259,0.49074 -0.008,0.44451 -0.35025,0.50374 -0.45259,0.5071 l -1.36102,0.0161 z" />
  </g>
</svg>
