<?xml version="1.0" encoding="UTF-8" standalone="no"?>
<svg
   xmlns:dc="http://purl.org/dc/elements/1.1/"
   xmlns:cc="http://creativecommons.org/ns#"
   xmlns:rdf="http://www.w3.org/1999/02/22-rdf-syntax-ns#"
   xmlns:svg="http://www.w3.org/2000/svg"
   xmlns="http://www.w3.org/2000/svg"
   xmlns:sodipodi="http://sodipodi.sourceforge.net/DTD/sodipodi-0.dtd"
   xmlns:inkscape="http://www.inkscape.org/namespaces/inkscape"
   width="500"
   height="200"
   viewBox="0 0 500 200"
   version="1.1"
   id="svg114"
   sodipodi:docname="cps3.svg"
   style="fill:none"
   inkscape:version="0.92.5 (2060ec1f9f, 2020-04-08)">
  <metadata
     id="metadata120">
    <rdf:RDF>
      <cc:Work
         rdf:about="">
        <dc:format>image/svg+xml</dc:format>
        <dc:type
           rdf:resource="http://purl.org/dc/dcmitype/StillImage" />
        <dc:title />
      </cc:Work>
    </rdf:RDF>
  </metadata>
  <defs
     id="defs118" />
  <sodipodi:namedview
     pagecolor="#ffffff"
     bordercolor="#666666"
     borderopacity="1"
     objecttolerance="10"
     gridtolerance="10"
     guidetolerance="10"
     inkscape:pageopacity="0"
     inkscape:pageshadow="2"
     inkscape:window-width="1366"
     inkscape:window-height="743"
     id="namedview116"
     showgrid="false"
     inkscape:pagecheckerboard="true"
     inkscape:zoom="1.8547245"
     inkscape:cx="235.68183"
     inkscape:cy="47.478575"
     inkscape:window-x="0"
     inkscape:window-y="0"
     inkscape:window-maximized="1"
     inkscape:current-layer="svg114" />
  <path
     d="m 31.100457,81.285443 c -12.309638,0.0775 -22.3633518,9.04406 -22.3633518,20.773537 0,11.72957 11.0983348,21.80506 24.5326148,21.5017 l 13.054266,0.0368 v -10.27731 h -2.46554 c -0.774635,1.93779 -4.392613,3.83308 -7.015805,3.83308 -1.382412,0 -4.862476,-0.18784 -6.149818,-0.63876 -2.27292,-0.79605 -5.516016,-1.93884 -8.3359,-6.67819 -0.755604,-1.66142 -2.88344,-5.70996 -2.408001,-11.615909 0.23024,-3.55955 2.49121,-8.002888 6.548422,-10.015118 1.769066,-0.8774 3.550082,-1.02134 6.67704,-0.73754 2.244949,0.20368 4.475645,1.78216 5.254441,3.67675 0.602377,1.465268 0.429232,3.250708 -0.279811,4.267798 -0.05063,0.0725 -0.05169,0.13677 -0.04116,0.20608 0.008,0.0527 0.0763,0.14057 0.0763,0.14057 l 1.235646,0.9653 c 0,0 0.351778,0.24441 0.762686,0.23343 0.238649,-0.006 0.665225,-0.26521 0.665225,-0.26521 l 7.056702,-7.405548 c -4.362693,-5.88665 -12.115602,-8.00148 -16.803959,-8.00148 z"
     id="path72"
     inkscape:connector-curvature="0"
     style="fill:#ffffff;stroke-width:0.88519698" />
  <path
     d="m 183.81978,103.01172 c 0,-12.108877 10.57898,-21.924827 23.62944,-21.924827 13.05046,0 23.63034,9.81595 23.63034,21.924827 0,12.10887 -10.57988,21.92491 -23.63034,21.92491 -13.05046,0 -23.62944,-9.81604 -23.62944,-21.92491 z m 35.5619,-4.571159 c -1.45969,-5.73014 -5.05979,-10.537468 -11.77755,-10.537468 v 0 c -6.71776,0 -11.24642,4.716058 -12.16349,11.544648 -0.31601,2.354979 -0.30893,5.171139 0.0788,7.515409 1.32691,8.01386 5.60773,10.99361 12.00859,11.15552 6.56727,0.16615 11.09417,-5.23046 11.85278,-10.76816 0.24874,-1.81598 0.4187,-7.26977 8.9e-4,-8.909949 z"
     id="path74"
     inkscape:connector-curvature="0"
     style="clip-rule:evenodd;fill:#ffffff;fill-rule:evenodd;stroke-width:0.88519698" />
  <path
     d="M 57.770114,115.63888 C 59.62947,110.52562 70.006191,82.447353 70.006191,82.447353 l 10.900581,0.0289 12.988496,34.147357 c 0,0 0.775432,2.04985 1.914681,3.04375 1.004698,0.87617 1.949203,1.02019 1.949203,1.02019 l 0.01062,2.99126 -15.85972,0.009 v -3.02516 c 0,0 2.505373,-0.0481 1.703207,-2.74712 -0.614769,-2.0688 -3.125099,-8.33643 -3.125099,-8.33643 l -12.878377,-0.0272 -2.89964,7.41786 c 0,0 -0.724179,2.11359 0.420292,3.16414 0.590072,0.54165 1.394716,0.58299 1.394716,0.58299 l -0.01018,2.97594 -12.541028,0.004 -0.154289,-3.09792 c 0,0 2.0911,0.15447 3.950457,-4.95887 z M 78.029617,103.05031 73.730038,91.080413 69.701684,103.08758 Z"
     id="path76"
     inkscape:connector-curvature="0"
     style="clip-rule:evenodd;fill:#ffffff;fill-rule:evenodd;stroke-width:0.88519698" />
  <path
     d="m 102.77556,85.845453 0.0611,-3.442 21.96351,0.0779 c 1.01886,0.0571 2.20503,0.18758 4.78803,0.9338 5.66526,0.96593 8.31023,5.24019 8.36688,10.454878 0.29566,7.360329 -4.75793,11.486319 -11.27032,14.084989 -0.39746,0.14624 -0.93654,0.36939 -1.59424,0.64142 -2.213,0.91511 -5.76352,2.38365 -9.73186,3.33958 0.006,1.24751 -0.01,2.48289 -0.0257,3.73234 -0.01,0.78739 -0.0204,1.58043 -0.0248,2.38561 -0.007,0.59574 0.27618,1.19316 0.73648,1.60831 0.81615,0.73551 1.33576,0.94061 1.33576,0.94061 l -0.0354,3.12006 -14.6987,-0.0356 0.0761,-3.06747 c 0.57892,-0.0504 0.93566,-0.35072 1.3039,-0.66133 0.0416,-0.0349 0.0832,-0.0699 0.12482,-0.10472 1.10296,-0.91308 0.77455,-1.82182 0.77455,-1.82182 l 0.0168,-23.056999 c 0,0 0.3169,-7.202928 -0.19474,-7.770428 -0.96488,-1.07029 -1.97223,-1.35913 -1.97223,-1.35913 z m 21.76169,3.46085 c -1.43756,-0.72409 -3.30533,-1.08737 -4.89071,-1.05692 -1.4057,0.009 -2.70782,0.23245 -4.15866,0.50615 l 0.0434,17.467857 c 2.72286,-1.25335 3.94974,-1.97169 7.37723,-4.42191 1.172,-1.12509 3.02914,-3.091819 3.64258,-4.116349 0.58954,-1.07135 0.94185,-2.125 0.8675,-3.35047 0,-2.606718 -1.08968,-3.838918 -2.88132,-5.028358 z"
     id="path78"
     inkscape:connector-curvature="0"
     style="clip-rule:evenodd;fill:#ffffff;fill-rule:evenodd;stroke-width:0.88519698" />
  <path
     d="m 164.97305,81.312803 c -12.30955,0.0774 -22.36362,9.04405 -22.36362,20.773527 0,11.72957 11.0986,21.80506 24.53323,21.5017 l 13.054,0.0368 v -10.27732 h -2.46527 c -0.77455,1.9377 -4.39323,3.83308 -7.01607,3.83308 -1.38268,0 -4.86239,-0.18792 -6.14946,-0.63875 -2.27319,-0.79606 -5.51655,-1.93885 -8.3359,-6.6782 -0.75596,-1.66142 -2.88398,-5.71005 -2.40862,-11.615899 0.23015,-3.55956 2.49182,-8.002888 6.54868,-10.015118 1.76951,-0.87741 3.54964,-1.02134 6.67704,-0.73755 2.24486,0.20368 4.47556,1.78217 5.25453,3.67675 0.60194,1.465178 0.42932,3.250708 -0.27972,4.267718 -0.0505,0.0726 -0.0522,0.13685 -0.0416,0.20616 0.008,0.0527 0.0761,0.14057 0.0761,0.14057 l 1.23574,0.96522 c 0,0 0.35231,0.24449 0.76304,0.23351 0.239,-0.006 0.66567,-0.26529 0.66567,-0.26529 l 7.0559,-7.405468 c -4.36225,-5.88674 -12.11569,-8.00147 -16.80369,-8.00147 z"
     id="path80"
     inkscape:connector-curvature="0"
     style="fill:#ffffff;stroke-width:0.88519698" />
  <path
     d="m 236.98559,82.484713 0.0133,2.95726 c 0,0 1.29327,0.34815 1.80669,0.75419 0.58688,0.4642 0.43905,1.28796 0.43905,1.28796 0,0 -4.69065,29.150867 -4.79245,29.691897 -0.10977,0.58211 -0.26468,1.94195 -1.08348,2.69808 -0.8135,0.7518 -1.75181,0.90326 -1.75181,0.90326 l -0.0133,2.91663 h 13.13367 v -2.72517 c 0,0 -1.06843,-0.0826 -1.78102,-0.79481 -0.71258,-0.71215 -0.50633,-2.66923 -0.50633,-2.66923 l 3.23186,-22.023169 6.57347,18.954019 8.00749,0.1102 6.50443,-20.411489 3.63019,23.478969 c 0,0 0.43817,1.76499 -0.50633,2.6709 -0.72675,0.6971 -1.78013,0.79482 -1.78013,0.79482 v 2.72517 h 15.21565 l -0.0133,-2.91673 c 0,0 -0.3408,0.11667 -1.20475,-0.57617 -0.50899,-0.40746 -0.75331,-2.22441 -0.86307,-2.80652 -0.1018,-0.54103 -4.20114,-29.873177 -4.20114,-29.873177 0,0 -0.0717,-1.21113 0.59308,-1.83032 0.47889,-0.44623 1.4588,-0.86944 1.4588,-0.86944 l -0.023,-2.415 -15.79723,-0.0186 -5.78033,16.650818 -5.51301,-16.650818 z"
     id="path82"
     inkscape:connector-curvature="0"
     style="fill:#ffffff;stroke-width:0.88519698" />
  <path
     d="m 290.16468,83.752753 c 0,-4.17839 3.38765,-7.5656 7.56578,-7.5656 4.17813,0 7.56578,3.38721 7.56578,7.5656 0,4.1784 -3.38765,7.5656 -7.56578,7.5656 -4.17813,0 -7.56578,-3.3872 -7.56578,-7.5656 z m 14.11447,-9e-5 c 0,-3.61656 -2.93266,-6.54842 -6.54869,-6.54842 -3.61691,0 -6.54868,2.93186 -6.54868,6.54842 0,3.61665 2.93177,6.54851 6.54868,6.54851 3.61603,0 6.54869,-2.93186 6.54869,-6.54851 z"
     id="path84"
     inkscape:connector-curvature="0"
     style="clip-rule:evenodd;fill:#ffffff;fill-rule:evenodd;stroke-width:0.88519698" />
  <path
     d="m 293.83471,88.140413 v -8.95678 h 1.8899 v 0.007 h 3.20441 v 0.0373 c 1.52342,0.0338 2.74765,1.32151 2.74765,2.90477 0,1.22813 -0.73737,2.27638 -1.77836,2.70145 l 2.53609,3.33188 -2.12182,0.0135 -2.07844,-3.14377 h -2.50953 v 3.10482 z m 5.03323,-7.13132 -3.14422,-0.017 v 2.35914 l 3.14422,-0.0374 c 0.23635,-0.008 1.02683,-0.14455 1.04542,-1.17129 0.0168,-0.95318 -0.401,-1.02417 -1.03303,-1.13137 z"
     id="path86"
     inkscape:connector-curvature="0"
     style="clip-rule:evenodd;fill:#ffffff;fill-rule:evenodd;stroke-width:0.88519698" />
  <path
     d="m 358.84092,62.024003 h 98.66317 c 22.37601,0 40.51635,18.13954 40.51635,40.515817 0,22.37619 -18.14034,40.51573 -40.51635,40.51573 h -98.66317 c -22.37601,0 -40.51546,-18.13954 -40.51546,-40.51573 0,-22.376277 18.13945,-40.515817 40.51546,-40.515817 z m 0,7.12777 c -18.43954,0 -33.38786,14.94833 -33.38786,33.388047 0,18.43963 14.94832,33.38795 33.38786,33.38795 h 98.66317 c 18.43954,0 33.38786,-14.94832 33.38786,-33.38795 0,-18.439717 -14.94832,-33.388047 -33.38786,-33.388047 z"
     id="path90"
     inkscape:connector-curvature="0"
     style="clip-rule:evenodd;fill:#ffffff;fill-rule:evenodd;stroke-width:0.88519698" />
  <path
     d="m 389.48024,83.431873 c -0.98699,0.41471 -2.0032,0.54572 -3.02029,0.80765 -2.13863,0.54564 -4.27727,1.02586 -6.41502,1.57149 -0.34434,0.0873 -0.53908,0 -0.71789,-0.48022 -1.0171,-2.90291 -2.69189,-4.49627 -4.84557,-5.10741 -1.9138,-0.54563 -3.82759,-0.50199 -5.68208,0.39285 -2.10854,1.00408 -3.54433,3.07757 -4.23213,6.13336 -0.8073,3.55769 -0.8073,7.159118 0,10.716808 0.74799,3.339499 2.37764,5.413069 4.69597,6.220629 2.24309,0.78579 4.50034,0.76393 6.68412,-0.43649 1.86954,-1.02585 3.09554,-2.9685 3.75324,-5.696769 0.0301,-0.13101 0.0752,-0.26193 0.10445,-0.41471 0.25494,-1.0695 0.25494,-1.04772 0.987,-0.80757 2.60248,0.85121 5.20407,1.68064 7.80655,2.51007 0.22395,0.0654 0.43374,0.15278 0.6577,0.24006 0.70285,0.26193 0.70285,0.28371 0.4187,1.309559 -1.1065,3.99428 -3.05039,6.85364 -5.62277,8.81798 -2.34755,1.78978 -4.88983,2.66285 -7.50647,3.09943 -2.90168,0.48013 -5.81752,0.48013 -8.73336,0 -2.61664,-0.43658 -5.15892,-1.26601 -7.50735,-3.05579 -3.49919,-2.64099 -5.66703,-6.76627 -6.38493,-12.441179 -0.62849,-4.976488 -0.43374,-9.843828 1.1959,-14.449248 1.31629,-3.71048 3.37968,-6.2424 5.93702,-7.96668 2.16873,-1.48421 4.47113,-2.24813 6.83372,-2.64107 2.82643,-0.45836 5.66792,-0.48013 8.5094,0 3.24513,0.54572 6.36988,1.72436 9.1069,4.51813 1.51015,1.54971 2.73615,3.49228 3.63374,5.84956 0.13455,0.39285 0.31424,0.78579 0.34345,1.30956 z"
     id="path94"
     inkscape:connector-curvature="0"
     style="fill:#ffffff;stroke-width:0.88519698" />
  <path
     d="m 393.61943,92.013413 c 0,-6.38112 0,-12.74002 0,-19.12114 0,-0.28902 0,-0.60025 0,-0.88936 -0.0151,-0.42241 0.13366,-0.60025 0.40188,-0.60025 0.14871,0 0.29742,0 0.44613,0 6.17425,0 12.34939,0 18.50859,0 2.82732,0 5.50504,0.95601 7.93048,3.17945 1.68099,1.55636 3.12474,3.53513 3.63019,6.4923 0.74445,4.4467 0.31247,8.53782 -2.15722,11.739478 -1.8899,2.44572 -4.12148,3.77971 -6.54692,4.42448 -1.29416,0.35577 -2.60337,0.44473 -3.92762,0.42251 -2.42544,-0.0223 -4.84999,0 -7.29048,0 -0.75862,0 -0.75862,0 -0.75862,1.17837 0,4.113249 0,8.226489 0,12.339829 0,0.28901 0,0.60025 0,0.88935 0,0.4002 -0.13366,0.60026 -0.41692,0.60026 -0.17793,0 -0.34169,0 -0.5205,0 -2.79722,0 -5.59445,0 -8.40672,0 -0.90732,0 -0.90732,0 -0.90732,-1.31178 0.0151,-6.44786 0.0151,-12.895639 0.0151,-19.343497 z m 14.22334,-12.11746 c -1.14544,0 -2.27584,0.0222 -3.42129,-0.0222 -0.41692,-0.0222 -0.55059,0.20014 -0.55059,0.8227 0.0142,2.69029 0,5.4028 0.0142,8.09309 0,0.84492 0.015,0.86714 0.58069,0.86714 2.15723,0 4.31445,0 6.45752,-0.0222 0.75861,0 1.47296,-0.31132 2.12712,-0.84492 0.93743,-0.77817 1.50307,-1.88989 1.42871,-3.57964 -0.015,-0.4002 -0.015,-0.82262 0,-1.2229 0.0151,-1.24503 -0.35762,-2.20113 -1.02683,-2.91257 -0.74356,-0.80048 -1.59158,-1.17846 -2.49979,-1.20068 -1.02595,0.0222 -2.06782,0.0222 -3.1097,0.0222 z"
     id="path96"
     inkscape:connector-curvature="0"
     style="fill:#ffffff;stroke-width:0.88519698" />
  <path
     d="m 415.38642,127.28435 c 0.48066,-1.59521 0.72055,-3.0765 1.05073,-4.48936 0.25493,-1.11668 0.49482,-2.23336 0.72055,-3.35003 0.1195,-0.59246 0.33018,-0.8659 0.74976,-0.84315 0.75065,0.0456 1.50129,0.0456 2.25106,0 0.39037,-0.0228 0.5258,0.22785 0.5258,0.79765 -0.0151,3.71455 0,7.45194 -0.0151,11.16649 0,0.79765 -0.0752,0.88874 -0.61521,0.93433 -0.33018,0.0228 -0.64531,0.0228 -0.97548,0 -0.54086,-0.0228 -0.60017,-0.0912 -0.60017,-0.93433 -0.015,-1.77756 0,-3.57788 0,-5.35535 0,-0.50138 0,-0.97991 0,-1.57246 -0.34522,0.13676 -0.48066,0.43303 -0.586,0.88873 -0.46473,1.95992 -0.97549,3.89691 -1.41012,5.87957 -0.16553,0.72923 -0.37532,1.07109 -0.90113,1.0255 -1.29061,-0.0912 -1.07994,0.31903 -1.57565,-1.66355 -0.53997,-2.23335 -1.09499,-4.46662 -1.6801,-6.83673 -0.19563,0.50138 -0.13544,0.88883 -0.13544,1.27619 0,2.051 0,4.102 0,6.153 0,1.00275 -0.0301,1.0255 -0.66035,1.04834 -0.30009,0 -0.60017,0.0228 -0.90025,0 -0.63026,-0.0228 -0.66036,-0.0684 -0.66036,-1.07109 0,-3.57787 0,-7.13291 0,-10.71079 0,-0.97992 0.0301,-1.0255 0.67541,-1.04825 0.6754,-0.0228 1.35081,0.0228 2.02533,-0.0228 0.46561,-0.0228 0.72055,0.18235 0.87103,0.91158 0.43464,2.051 0.94539,4.07916 1.42517,6.10741 0.12039,0.54697 0.24077,1.0255 0.42047,1.70914 z"
     id="path98"
     inkscape:connector-curvature="0"
     style="fill:#ffffff;stroke-width:0.88519698" />
  <path
     d="m 398.74914,124.91406 c 0,-1.82306 0.015,-3.64622 0,-5.46928 0,-0.63814 0.15049,-0.86599 0.57095,-0.86599 2.35551,0.0228 4.69686,0.0228 7.05325,0 0.34523,0 0.50988,0.18226 0.47978,0.72923 0,0.0456 0,0.0683 0,0.11392 0,1.93708 0.0301,1.54963 -0.96044,1.57247 -1.34992,0.0228 -2.70073,0 -4.05154,0 -0.67541,0 -0.69046,0.0228 -0.69046,0.97991 0,1.98257 -0.0903,1.73189 1.09588,1.73189 1.17023,0 2.3555,0 3.52662,0 0.60016,0 0.61521,0.0456 0.61521,1.11667 0,1.04834 -0.0151,1.09393 -0.63026,1.09393 -1.32071,0.0228 -2.65647,0 -3.97719,0 -0.61521,0 -0.61521,0.0228 -0.63026,0.95707 0,0.4102 -0.0151,0.84324 0,1.25344 0.015,0.84315 0.0301,0.88874 0.61521,0.88874 1.5013,0.0228 3.00171,0 4.50212,0 0.7055,0 0.7055,0.0228 0.7055,1.07109 0,0.11392 0,0.22785 0,0.34177 -0.0151,0.95717 -0.0151,0.95717 -0.61521,0.98001 -0.0301,0 -0.0451,0 -0.0752,0 -2.28115,0 -4.54725,0 -6.82841,0 -0.69045,0 -0.69045,-0.0228 -0.7055,-1.09393 0,-1.75473 0,-3.57779 0,-5.40094 z"
     id="path100"
     inkscape:connector-curvature="0"
     style="fill:#ffffff;stroke-width:0.88519698" />
  <path
     d="m 381.93394,118.32802 c 0.99054,-0.0456 1.93593,0.2051 2.83706,0.88873 0.63026,0.50138 1.07994,1.2306 1.27557,2.27894 0.13455,0.70639 0.0593,0.88874 -0.42047,0.93433 -0.37533,0.0227 -0.75065,-0.0228 -1.12597,0.0227 -0.40454,0.0228 -0.74977,-0.0227 -0.84006,-0.77481 -0.015,-0.15952 -0.13543,-0.31903 -0.22484,-0.45579 -0.586,-0.84315 -2.44668,-0.93433 -3.06189,-0.15952 -0.47978,0.59256 -0.37533,1.48129 0.23989,1.86874 0.76569,0.47854 1.5907,0.63805 2.40154,0.88874 0.7055,0.22785 1.42605,0.4102 2.08641,0.91158 0.71966,0.54687 1.29061,1.29894 1.36497,2.64346 0.0752,1.45854 -0.36028,2.48404 -1.12509,3.23602 -0.36027,0.36461 -0.75064,0.6153 -1.17111,0.77481 -1.6208,0.59255 -3.22655,0.59255 -4.8022,-0.27344 -0.8551,-0.47854 -1.5305,-1.29894 -1.84563,-2.64346 -0.22484,-0.95717 -0.10534,-1.2306 0.53997,-1.25344 0.19563,0 0.40542,0.0228 0.60016,0 0.57095,-0.0456 1.08083,-0.0683 1.24636,1.07109 0.0744,0.50137 0.46473,0.77481 0.79491,0.95716 0.90024,0.45579 1.81642,0.45579 2.73171,0.0228 0.37533,-0.18226 0.69046,-0.52412 0.71967,-1.18501 0.0301,-0.66089 -0.26999,-1.00275 -0.64531,-1.25335 -0.57007,-0.38745 -1.20033,-0.54697 -1.81554,-0.72932 -0.76569,-0.22785 -1.51546,-0.45578 -2.25105,-0.86599 -0.23989,-0.13667 -0.46562,-0.27343 -0.67541,-0.47853 -1.26052,-1.13943 -1.39595,-3.41828 -0.28503,-4.87682 0.75064,-0.97991 1.66594,-1.34452 2.62638,-1.50404 0.26998,-0.0912 0.55502,-0.0456 0.825,-0.0456 z"
     id="path102"
     inkscape:connector-curvature="0"
     style="fill:#ffffff;stroke-width:0.88519698" />
  <path
     d="m 361.00877,118.30544 c 1.08082,-0.0228 2.05631,0.22785 2.97161,0.95717 0.58511,0.47853 1.04984,1.16217 1.21537,2.18767 0.13544,0.8204 0.0903,0.93442 -0.45056,0.97992 -0.30009,0.0228 -0.60017,-0.0228 -0.90025,0 -0.47978,0.0456 -0.90025,0.0456 -1.03568,-0.86599 -0.0451,-0.2506 -0.19474,-0.43295 -0.36028,-0.54688 -0.88519,-0.63814 -1.78544,-0.68372 -2.68568,-0.15951 -0.33018,0.2051 -0.52581,0.59246 -0.49571,1.16218 0.0301,0.52421 0.26998,0.77481 0.58511,0.93441 0.75065,0.4102 1.54644,0.59246 2.3263,0.84315 0.7356,0.22785 1.4712,0.43295 2.1466,0.93432 1.68011,1.27619 1.81554,4.1476 0.25494,5.76565 -0.28503,0.29618 -0.60016,0.54687 -0.93034,0.70638 -1.75623,0.79765 -3.51158,0.79765 -5.22267,-0.2051 -0.87014,-0.50137 -1.54555,-1.39011 -1.78632,-2.8714 -0.1195,-0.79756 -0.0593,-0.93432 0.49571,-0.95707 0.25493,-0.0228 0.49482,0.0228 0.75064,0 0.55502,-0.0912 1.01975,-0.0228 1.18528,1.04825 0.0752,0.52412 0.45057,0.79765 0.79491,0.97991 0.90113,0.50138 1.81642,0.47863 2.73172,0.0456 0.40542,-0.18226 0.7356,-0.54697 0.75065,-1.25335 0,-0.68373 -0.33018,-0.97992 -0.69046,-1.20785 -0.55502,-0.36462 -1.15607,-0.50138 -1.74118,-0.68364 -0.84005,-0.25069 -1.66594,-0.50138 -2.46085,-0.95716 -1.24547,-0.75198 -1.77128,-2.23327 -1.39595,-3.9425 0.19562,-0.88873 0.61521,-1.45845 1.14101,-1.8914 0.87015,-0.7749 1.84564,-1.07108 2.80608,-1.00275 z"
     id="path104"
     inkscape:connector-curvature="0"
     style="fill:#ffffff;stroke-width:0.88519698" />
  <path
     d="m 366.37306,118.60145 c 0.7055,0 1.42606,0 2.14572,0 0.28503,0 0.45057,0.22794 0.61521,0.54697 0.57095,1.16217 1.14102,2.30169 1.72614,3.44111 0.15048,0.29628 0.26998,0.63805 0.49571,0.84315 0.26998,-0.11392 0.37443,-0.47854 0.52492,-0.77481 0.55502,-1.11668 1.12508,-2.23327 1.66594,-3.37278 0.23989,-0.52412 0.52492,-0.72922 0.94539,-0.70639 0.60016,0.0456 1.20033,0.0228 1.78544,0.0228 0.12039,0.52413 -0.1195,0.77482 -0.25494,1.04834 -1.03568,2.051 -2.05631,4.10192 -3.10615,6.13017 -0.25494,0.50137 -0.39037,1.0255 -0.37532,1.66355 0.0301,1.07109 -0.0151,2.11943 0.015,3.19051 0.015,0.6608 -0.16553,0.8659 -0.57006,0.84315 -0.42047,-0.0456 -0.85599,-0.0228 -1.27557,0 -0.39037,0.0228 -0.54086,-0.2051 -0.54086,-0.79765 0.0151,-1.09383 -0.015,-2.21051 0.0151,-3.30435 0.015,-0.63805 -0.10445,-1.16226 -0.37532,-1.66355 -1.06489,-2.051 -2.11562,-4.14759 -3.1513,-6.22143 -0.16465,-0.2506 -0.34523,-0.43295 -0.28504,-0.88874 z"
     id="path106"
     inkscape:connector-curvature="0"
     style="fill:#ffffff;stroke-width:0.88519698" />
  <path
     d="m 392.01102,118.60154 c 1.27557,0 2.55203,0.0228 3.82759,-0.0228 0.43464,0 0.60017,0.22785 0.55502,0.86599 -0.0151,0.15951 0,0.29619 0,0.4557 -0.0151,1.07109 -0.0151,1.09393 -0.69045,1.09393 -0.52492,0 -1.05073,0 -1.57565,0 -1.06578,0 -0.94539,-0.0228 -0.94539,1.39011 0,2.62071 0,5.24143 0,7.86214 0,1.20776 0,1.2306 -0.7657,1.20776 -0.49482,-0.0227 -1.11003,0.31912 -1.45526,-0.15951 -0.39037,-0.52412 -0.13544,-1.50404 -0.15048,-2.27885 -0.015,-2.32444 0,-4.62613 -0.015,-6.95057 0,-1.04833 -0.0151,-1.04833 -0.72055,-1.07108 -0.64531,0 -1.30567,-0.0228 -1.95098,0 -0.43463,0.0228 -0.60016,-0.25069 -0.55502,-0.86599 0.0151,-0.18235 0,-0.38745 0,-0.56971 0.0151,-0.93433 0.0151,-0.95717 0.63026,-0.97992 1.26053,0 2.53609,0.0228 3.81166,0.0228 z"
     id="path108"
     inkscape:connector-curvature="0"
     style="fill:#ffffff;stroke-width:0.88519698" />
  <path
     d="m 470.34594,72.069155 v 12.00469 h -3.75147 v 37.889705 h 3.75147 v 12.00469 h -38.26441 v -12.00469 h 3.75146 V 84.073845 h -3.75146 v -12.00469 z m -3.00082,3.00117 v 6.00234 h -3.75146 v 43.892055 h 3.75146 v 6.00235 h -32.26277 v -6.00235 h 3.75146 V 81.072665 h -3.75146 v -6.00234 z m -13.13012,6.00234 h 3.37614 V 124.96472 H 454.215 Z m -9.37867,0 h 3.37614 v 43.892055 h -3.37614 z"
     id="path112"
     inkscape:connector-curvature="0"
     style="clip-rule:evenodd;fill:#ffffff;fill-rule:evenodd;stroke-width:0.88519698" />
</svg>
