<?xml version="1.0" encoding="UTF-8" standalone="no"?>
<!-- Created with Inkscape (http://www.inkscape.org/) -->

<svg
   xmlns:dc="http://purl.org/dc/elements/1.1/"
   xmlns:cc="http://creativecommons.org/ns#"
   xmlns:rdf="http://www.w3.org/1999/02/22-rdf-syntax-ns#"
   xmlns:svg="http://www.w3.org/2000/svg"
   xmlns="http://www.w3.org/2000/svg"
   xmlns:sodipodi="http://sodipodi.sourceforge.net/DTD/sodipodi-0.dtd"
   xmlns:inkscape="http://www.inkscape.org/namespaces/inkscape"
   width="500"
   height="200"
   viewBox="0 0 500 200"
   version="1.1"
   id="svg8"
   inkscape:version="0.92.5 (2060ec1f9f, 2020-04-08)"
   sodipodi:docname="crashbandicoot.svg">
  <defs
     id="defs2" />
  <sodipodi:namedview
     id="base"
     pagecolor="#ffffff"
     bordercolor="#666666"
     borderopacity="1.0"
     inkscape:pageopacity="0.0"
     inkscape:pageshadow="2"
     inkscape:zoom="1.452048"
     inkscape:cx="536.93061"
     inkscape:cy="86.395761"
     inkscape:document-units="mm"
     inkscape:current-layer="layer1"
     showgrid="false"
     inkscape:pagecheckerboard="true"
     inkscape:window-width="1366"
     inkscape:window-height="743"
     inkscape:window-x="0"
     inkscape:window-y="0"
     inkscape:window-maximized="1" />
  <metadata
     id="metadata5">
    <rdf:RDF>
      <cc:Work
         rdf:about="">
        <dc:format>image/svg+xml</dc:format>
        <dc:type
           rdf:resource="http://purl.org/dc/dcmitype/StillImage" />
        <dc:title />
      </cc:Work>
    </rdf:RDF>
  </metadata>
  <g
     inkscape:label="Layer 1"
     inkscape:groupmode="layer"
     id="layer1"
     transform="translate(0,-107)">
    <path
       inkscape:connector-curvature="0"
       id="path79"
       d="m 143.02885,262.00853 c 0.85459,-1.79213 0.36576,-2.44703 -1.32683,-1.77763 -3.33588,1.3193 -11.19389,2.76585 -15.10972,2.78148 l -1.84984,0.007 -0.26527,-7.92094 c -0.14587,-4.35666 -0.26529,-9.77077 -0.26529,-12.03147 v -4.11042 l 2.37974,-0.50501 c 3.66904,-0.77861 10.2057,-0.38386 12.83826,0.77535 2.6752,1.17796 4.1202,2.83227 4.1202,4.71697 0,1.40193 -0.25823,1.74434 -2.78662,3.69501 -1.22489,0.94502 -0.92508,1.86588 0.85542,2.62729 1.54747,0.66178 3.33144,2.4833 3.73331,3.8119 0.58275,1.92653 1.62858,0.644 5.85376,-7.17864 l 4.24082,-7.85151 3.2266,-0.11557 3.22665,-0.11557 2.37205,6.96449 c 2.92408,8.58521 3.30318,9.40146 4.07061,8.76455 0.44035,-0.36545 0.59471,-1.99181 0.67995,-7.16351 l 0.11024,-6.69071 2.41729,-0.50213 c 4.74796,-0.9863 4.38621,-1.20786 8.42085,5.1575 3.36185,5.30388 4.34109,6.4546 4.96325,5.83246 0.1407,-0.1407 0.071,-2.74655 -0.15499,-5.79081 -0.22592,-3.04426 -0.36768,-5.59171 -0.31503,-5.66099 0.0527,-0.0693 2.42609,-0.28749 5.27432,-0.48492 2.84822,-0.19741 6.62895,-0.56633 8.40162,-0.81984 5.81203,-0.83115 12.72383,-0.009 16.60271,1.97362 2.18204,1.11558 2.36387,1.10009 4.00568,-0.34144 3.5258,-3.09567 10.09195,-0.0637 7.59189,3.50544 -0.80287,1.1463 -3.14112,1.88008 -5.02902,1.5782 -1.74939,-0.27976 -2.56377,0.35837 -2.35318,1.84386 0.12181,0.85894 0.35067,0.93752 3.04925,1.04696 2.73277,0.11085 2.93364,0.1821 3.17041,1.12544 0.35788,1.4259 1.04117,1.00652 1.79556,-1.10202 1.33021,-3.71797 4.19073,-6.18034 8.87256,-7.63749 2.95827,-0.9207 7.88753,-1.00738 10.61472,-0.18661 2.33389,0.70241 5.17119,2.517 4.95407,3.16838 -0.0872,0.26193 -1.00789,1.08615 -2.04575,1.83166 l -1.88699,1.35542 -1.61427,-0.64592 c -4.60817,-1.84381 -9.25268,0.54544 -9.25268,4.75982 0,4.17061 3.76956,6.10463 8.55524,4.38937 1.79259,-0.6425 1.99404,-0.64262 3.33742,-0.002 0.78635,0.37498 1.80206,0.68178 2.2572,0.68178 0.75789,0 0.7991,-0.14405 0.48993,-1.71225 -1.20749,-6.12459 1.09888,-10.54837 7.0165,-13.45818 6.56366,-3.22749 15.932,-1.61039 20.34282,3.51146 0.94231,1.0942 1.87264,1.98956 2.06741,1.98967 0.19477,1e-4 1.28256,-0.96315 2.41728,-2.14058 2.5755,-2.6724 5.78711,-4.26994 9.72446,-4.83716 5.26017,-0.75781 10.69036,0.74714 14.22804,3.94323 0.91546,0.82706 1.85142,1.36421 2.10451,1.2078 0.28916,-0.17871 0.40518,-1.25878 0.31735,-2.95404 l -0.13842,-2.67231 6.44607,0.10949 c 3.54534,0.0602 8.76634,0.21689 11.60222,0.34818 l 5.15618,0.23869 -0.12014,2.0691 -0.12014,2.0691 -3.82735,0.3297 c -2.24242,0.19316 -4.05675,0.55363 -4.38129,0.87046 -0.46962,0.4585 -0.39178,1.69614 0.51135,8.13079 0.5859,4.17447 1.14926,7.97148 1.25191,8.43774 0.17874,0.81194 -0.0106,0.85959 -4.48727,1.12722 -2.57065,0.1537 -4.76475,0.1886 -4.87575,0.0777 -0.11101,-0.11101 0.12198,-4.02375 0.51755,-8.69496 0.47588,-5.61801 0.58408,-8.62845 0.31963,-8.89287 -0.26443,-0.26444 -1.54859,-0.15452 -3.79344,0.32473 -3.21692,0.68677 -3.3872,0.77653 -3.26891,1.7229 0.43729,3.49882 0.23667,6.7222 -0.51242,8.23287 -1.14864,2.31642 -3.6703,4.59528 -6.66275,6.02126 -2.49597,1.18937 -2.85519,1.24787 -7.66318,1.24787 -4.87425,0 -5.13397,-0.0441 -7.697,-1.30584 -1.59667,-0.78603 -3.40388,-2.10908 -4.54005,-3.32375 -1.03814,-1.10985 -2.0858,-2.01791 -2.32809,-2.01791 -0.24232,0 -1.35882,0.93287 -2.48114,2.07301 -1.21812,1.23748 -3.10433,2.5771 -4.67999,3.32374 -2.51463,1.19163 -2.87758,1.25075 -7.67543,1.25075 -4.58271,0 -5.23709,-0.0943 -7.27021,-1.04792 -1.22882,-0.57638 -2.88441,-1.61883 -3.6791,-2.31655 -1.75751,-1.54314 -2.31145,-1.56935 -4.3702,-0.20692 -2.0602,1.36336 -6.40372,2.56554 -9.2474,2.55942 -6.1008,-0.0137 -12.70418,-3.6441 -14.58265,-8.01851 -0.47006,-1.09464 -0.90767,-1.63477 -1.13792,-1.40453 -0.20577,0.20579 -0.42602,2.36589 -0.48944,4.80026 l -0.11526,4.42611 -4.19526,0.11557 c -2.3074,0.0635 -4.35393,-0.043 -4.54785,-0.23703 -0.20151,-0.20151 0.006,-1.96187 0.48409,-4.10872 0.55456,-2.48967 0.7016,-3.89122 0.4361,-4.15672 -0.2655,-0.26552 -1.29315,0.43437 -3.04776,2.07572 -1.82196,1.70437 -3.80556,3.03815 -6.36311,4.27857 -4.29247,2.0819 -11.12722,4.07889 -11.35847,3.31872 -0.0803,-0.26417 -0.29727,-2.47456 -0.48201,-4.91198 -0.26691,-3.52137 -0.46004,-4.43167 -0.94022,-4.43167 -0.46017,0 -0.78667,1.13881 -1.36875,4.7744 l -0.76445,4.7744 -2.66004,-0.27531 c -1.46302,-0.15135 -2.86667,-0.48693 -3.11923,-0.7456 -0.25255,-0.25867 -2.77415,-3.0991 -5.60353,-6.31206 -2.82939,-3.21295 -5.50648,-5.90339 -5.94908,-5.97873 -0.76979,-0.1311 -0.79364,0.0188 -0.54986,3.45323 0.14024,1.97461 0.37489,4.88191 0.52162,6.46064 0.33997,3.65799 1.23326,3.36701 -10.34183,3.3687 l -3.04366,4.1e-4 -0.58225,-1.93991 c -0.57329,-1.91005 -0.61014,-1.94193 -2.3952,-2.07157 -0.99712,-0.0724 -2.78172,-0.0123 -3.9658,0.13447 -2.13982,0.26447 -2.15886,0.27927 -3.15184,2.44821 l -0.99901,2.18217 h -4.39562 -4.39562 z m 63.02493,-6.91403 c 2.34061,-2.43437 3.18205,-4.08873 3.4203,-6.72445 0.21156,-2.34067 -0.29305,-3.58638 -1.95148,-4.81752 -1.17211,-0.87013 -4.4529,-1.13425 -5.17086,-0.4163 -0.2171,0.21711 -0.60082,3.41401 -0.85271,7.10422 -0.51995,7.61717 -0.34874,8.3966 1.617,7.36144 0.58705,-0.30916 1.90905,-1.4375 2.93775,-2.50739 z m -71.74842,1.60385 c 2.35772,-1.39274 2.4747,-4.38985 0.21158,-5.42099 -1.79686,-0.8187 -2.24744,-0.25751 -2.24744,2.79926 0,3.53938 0.15166,3.73474 2.03586,2.62173 z m 25.34419,-0.10644 c 0.50381,-0.31865 0.4145,-0.97088 -0.61964,-4.52622 -0.98918,-3.40088 -1.3479,-4.15392 -1.97874,-4.15392 -0.62086,0 -1.02246,0.78205 -2.06756,4.02638 -0.9265,2.87618 -1.17705,4.17093 -0.87707,4.53239 0.4899,0.59028 4.65739,0.68154 5.54301,0.12136 z m 109.71882,-0.15967 c 0.71649,-0.29936 1.88908,-1.21216 2.60576,-2.0284 2.32803,-2.65149 1.55996,-6.14644 -1.79748,-8.17889 -2.04858,-1.24013 -5.89555,-1.29161 -8.21193,-0.10994 -2.96825,1.51428 -4.09014,5.15209 -2.429,7.8762 1.56008,2.55839 6.57314,3.80289 9.83265,2.44097 z m 29.41018,0 c 0.71648,-0.29936 1.88908,-1.21216 2.60576,-2.0284 2.32805,-2.65149 1.55995,-6.14644 -1.79748,-8.17889 -2.04857,-1.24013 -5.89555,-1.29161 -8.21194,-0.10994 -2.96824,1.51428 -4.09014,5.15209 -2.42898,7.8762 1.56008,2.55839 6.57312,3.80289 9.83264,2.44097 z M 135.45077,246.28623 c 1.4791,-1.68458 1.55481,-2.43016 0.37441,-3.68665 -1.80811,-1.92462 -3.15281,-0.94193 -3.15281,2.30401 0,3.3263 0.74596,3.6975 2.7784,1.38264 z m 228.27279,4.5743 c -4.43167,-1.52804 -12.04607,-3.95021 -16.92091,-5.38264 -4.87483,-1.43238 -9.24623,-2.76985 -9.71416,-2.97211 -0.79258,-0.3426 -0.82533,-0.52862 -0.47822,-2.71831 1.30458,-8.22988 6.26127,-42.43273 8.13511,-56.13493 3.17315,-23.20339 3.01529,-21.7471 2.42184,-22.34057 -0.63617,-0.63617 -8.10283,-1.83218 -11.43819,-1.83218 -4.39331,0 -6.0749,1.7267 -5.25304,5.39399 0.23615,1.05374 1.71577,5.48341 3.28806,9.84372 6.22664,17.26803 7.19957,21.7759 5.81908,26.96148 -3.3727,12.66909 -16.23133,19.08547 -48.31485,24.10884 -2.1883,0.34264 -3.8221,0.41915 -4.23468,0.19835 -0.38772,-0.2075 -4.67282,-0.22547 -10.13496,-0.0425 -5.20475,0.17438 -9.58977,0.20289 -9.74447,0.0634 -0.15473,-0.13948 -0.8493,-3.78895 -1.54347,-8.10984 -0.69418,-4.32086 -1.48993,-8.09214 -1.76832,-8.38057 -0.41115,-0.42598 -1.9741,-0.43966 -8.32707,-0.0729 -11.73153,0.67741 -14.91096,1.02067 -15.32222,1.65425 -0.19797,0.30498 -1.57338,4.27107 -3.05645,8.81353 -1.48305,4.54247 -2.85215,8.36688 -3.04243,8.49868 -0.19025,0.13187 -3.64406,0.36236 -7.6751,0.51232 -4.03104,0.14999 -10.67152,0.53716 -14.75662,0.86047 -4.08511,0.32332 -7.51343,0.50188 -7.61853,0.39678 -0.10507,-0.10506 0.0192,-0.89314 0.27635,-1.75122 0.60513,-2.01975 0.59873,-2.07096 -0.2593,-2.07096 -0.39968,0 -1.347,0.63997 -2.10512,1.42214 -0.75811,0.78217 -1.59255,1.37138 -1.85432,1.30936 -0.26174,-0.062 -2.69527,-3.28546 -5.40784,-7.16317 -9.10106,-13.01034 -20.80385,-28.3161 -22.00211,-28.77591 -1.00062,-0.38398 -1.43024,0.18371 -1.17374,1.55094 0.13277,0.70794 2.14104,8.42473 4.46278,17.14844 2.32172,8.72371 4.13464,15.94793 4.02868,16.05386 -0.10596,0.10599 -3.95617,1.33077 -8.55609,2.72186 -4.59993,1.39107 -11.53618,3.6106 -15.4139,4.93225 -3.8777,1.32166 -7.112,2.34446 -7.1873,2.27288 -0.0754,-0.0715 -0.89112,-3.72275 -1.81296,-8.11375 -1.23036,-5.8607 -1.83672,-8.01165 -2.28035,-8.08914 -0.33238,-0.058 -1.78274,0.91346 -3.22305,2.15891 -5.91148,5.11175 -15.214,10.16157 -22.15834,12.02855 -10.4874,2.81951 -22.469202,2.15139 -35.65481,-1.98818 -16.151294,-5.07057 -25.571494,-14.11687 -29.51935,-28.34761 -0.975564,-3.51658 -1.08238,-4.56931 -1.09048,-10.74738 -0.0092,-7.53489 0.510546,-10.25868 3.015785,-15.78385 5.998923,-13.23035 21.781532,-25.34006 38.545223,-29.57508 10.585042,-2.67411 21.383712,-2.41207 30.854602,0.74869 2.91241,0.97197 4.47136,1.3144 4.74375,1.04202 0.27241,-0.27241 -0.12791,-2.95592 -1.21808,-8.16572 -0.8931,-4.26798 -1.52531,-7.91937 -1.40492,-8.11416 0.27875,-0.45103 7.03458,-2.62177 11.35323,-3.64793 10.76904,-2.55886 18.6211,-3.36863 29.51336,-3.04371 13.45157,0.40126 21.29134,2.28434 27.73881,6.66272 6.25469,4.24748 10.32254,11.8079 10.32305,19.18621 4.1e-4,6.92524 -2.49495,11.60893 -10.85967,20.38249 -5.15527,5.40727 -5.86918,6.39895 -5.53276,7.68545 0.10093,0.38622 2.4761,2.5594 5.27803,4.8293 2.80191,2.26992 7.88475,6.47601 11.29517,9.34687 4.57473,3.85097 6.35049,5.12408 6.77176,4.85483 0.31404,-0.20073 1.9827,-3.90021 3.70816,-8.2211 6.96926,-17.45251 12.76548,-30.34006 22.05114,-49.02945 l 7.44575,-14.98615 1.68828,-0.23182 c 0.92855,-0.12745 6.94293,-0.27297 13.36532,-0.32325 l 11.67704,-0.0914 3.70305,14.70509 c 4.1228,16.37198 6.75961,27.91593 9.79797,42.89547 1.12235,5.53343 2.20762,10.22774 2.41167,10.43179 0.5746,0.5746 8.30569,1.14441 11.89887,0.87697 4.33428,-0.32259 7.10126,-1.64978 8.70202,-4.1739 1.02447,-1.61544 1.16851,-2.21885 1.16851,-4.89475 0,-5.42576 -2.52195,-12.31211 -9.68043,-26.43286 -5.67425,-11.19303 -6.43473,-13.12136 -6.43473,-16.31661 0,-5.64656 3.59015,-8.55305 11.94688,-9.67189 8.16324,-1.09291 26.01931,1.02996 38.13727,4.5341 3.71318,1.07372 4.43435,1.1767 4.87822,0.69648 0.30619,-0.33128 0.89486,-3.71824 1.42838,-8.21821 0.49911,-4.2101 1.02335,-7.77215 1.16496,-7.91567 0.45089,-0.45704 28.58459,2.26155 29.12141,2.81401 0.30834,0.31731 -1.10789,19.54776 -2.9163,39.59937 -0.712,7.89457 -1.19405,14.61561 -1.07125,14.93563 0.12729,0.33185 1.75517,0.98219 3.78861,1.51362 1.96093,0.51247 6.08904,1.64042 9.17359,2.50656 4.55931,1.28023 5.69927,1.47728 6.09485,1.05354 0.26763,-0.2867 3.63104,-8.0143 7.47422,-17.17246 6.92379,-16.49905 6.99737,-16.64925 8.05179,-16.43836 3.38109,0.67621 34.20994,12.18011 34.20994,12.76556 0,0.17455 -3.00351,6.08794 -6.67448,13.14083 -3.67096,7.05291 -12.93416,25.38528 -20.58484,40.73856 l -13.91038,27.9151 -2.27854,-0.22744 c -4.60773,-0.4599 -14.06106,-1.00476 -17.49987,-1.00862 -2.57967,-0.003 -3.59387,-0.14999 -3.74467,-0.543 -0.11376,-0.29645 2.45232,-8.08472 5.7024,-17.30724 3.25008,-9.22254 5.8095,-17.02817 5.6876,-17.34588 -0.27286,-0.71101 -17.20575,-6.41671 -18.49862,-6.23327 -0.91564,0.12989 -0.91853,0.15239 -1.00083,7.78498 -0.10904,10.10226 -0.86752,34.32921 -1.18261,37.76992 -0.13703,1.4957 -0.36159,2.69362 -0.49914,2.66208 -0.13749,-0.0316 -3.87601,-1.30759 -8.3077,-2.83562 z M 117.0857,209.28339 c 3.8514,-1.91141 7.12424,-4.54893 9.01311,-7.26351 l 0.81571,-1.1723 2.37533,0.61407 c 1.30642,0.33772 4.41476,1.2189 6.90743,1.95819 3.43245,1.018 4.64525,1.23099 4.99841,0.87781 0.71812,-0.71809 -7.30675,-38.92476 -8.21232,-39.09916 -0.42251,-0.0813 -2.03792,1.55467 -4.5733,4.63174 -2.15604,2.61664 -4.1186,4.9776 -4.36127,5.24656 -0.34259,0.37972 -1.34168,0.21716 -4.47001,-0.72728 -7.57629,-2.28728 -13.3817,-1.95226 -19.20612,1.10839 -11.000286,5.78049 -12.781452,21.06739 -3.598578,30.88462 3.571408,3.81814 6.916638,5.149 12.548628,4.99239 3.69022,-0.10263 4.00213,-0.18507 7.76298,-2.05152 z m 141.34258,-10.3201 c 1.87006,-7.9e-4 2.73901,-0.16468 2.8844,-0.54355 0.20721,-0.53996 -3.06071,-15.68344 -5.99055,-27.76004 -1.26386,-5.20957 -1.6665,-6.34536 -2.2495,-6.34536 -0.85312,0 -1.29398,1.32133 -6.61996,19.84118 -3.77611,13.1304 -4.06792,14.38321 -3.49213,14.99118 0.16619,0.17548 3.11224,0.2063 6.54679,0.0686 3.43455,-0.13781 7.44898,-0.25117 8.92095,-0.2519 z m -90.12125,-25.0479 c 6.2407,-6.74051 7.9269,-15.80555 4.11842,-22.14075 -1.93044,-3.21116 -3.91424,-4.08233 -9.81013,-4.30802 -2.85116,-0.10918 -4.77676,-0.0192 -5.03096,0.23503 -0.28054,0.28054 0.63499,4.76066 2.8716,14.05185 1.8059,7.50201 3.37609,13.95729 3.48935,14.34506 0.39288,1.34514 1.70147,0.69015 4.36172,-2.18317 z"
       style="fill:#ffffff;stroke-width:0.40287918" />
    <path
       style="fill:#ffffff;stroke-width:0.26458335"
       d=""
       id="path75"
       inkscape:connector-curvature="0" />
    <path
       d="m 14.471367,303.88153 c 1.55648,0 3.07024,-0.36523 4.5413,-1.09569 1.47106,-0.7305 2.68112,-1.71142 3.63019,-2.94278 v 0 l -2.70485,-2.94277 c -0.70231,0.89744 -1.50902,1.58617 -2.42013,2.06622 -0.9111,0.48001 -1.88864,0.72002 -2.93262,0.72002 -0.93009,0 -1.789,-0.18261 -2.57672,-0.54785 -0.78773,-0.36525 -1.47106,-0.86093 -2.0499997,-1.48704 -0.57893,-0.62612 -1.03448,-1.37225 -1.36666,-2.23837 -0.33217,-0.86615 -0.49826,-1.80011 -0.49826,-2.8019 0,-1.02267 0.16135,-1.96706 0.48403,-2.8332 0.32268,-0.86614 0.76875,-1.61748 1.33819,-2.25404 0.5694397,-0.63655 1.2480197,-1.13745 2.0357497,-1.50268 0.78773,-0.36524 1.62765,-0.54785 2.51978,-0.54785 1.06296,0 2.06897,0.25566 3.01804,0.76699 0.94907,0.51133 1.77476,1.24703 2.47707,2.20707 v 0 l 2.79027,-3.03669 c -0.93009,-1.25222 -2.1449,-2.2488 -3.64443,-2.98971 -1.49953,-0.74092 -3.04651,-1.11136 -4.64095,-1.11136 -1.48055,0 -2.87094,0.29219 -4.17116,0.87658 -1.3002297,0.58436 -2.4248697,1.37745 -3.3739397,2.37924 -0.94907,1.00179 -1.69884,2.19664 -2.2493,3.58454 -0.55046,1.3879 -0.82569,2.87492 -0.82569,4.46111 0,1.58615 0.27049,3.068 0.81146,4.44546 0.54097,1.37746 1.28599,2.56708 2.23506,3.56888 0.94907,1.00179 2.07371,1.79489 3.3739397,2.37926 1.30022,0.58437 2.7001,0.87656 4.19963,0.87656 z m 53.95461,0.0313 c 1.48054,0 2.86619,-0.29218 4.15692,-0.87656 1.29074,-0.58438 2.40588,-1.38267 3.34547,-2.39491 0.93958,-1.01223 1.6846,-2.2123 2.23506,-3.60019 0.55047,-1.3879 0.82568,-2.86452 0.82568,-4.42981 0,-1.5653 -0.27521,-3.0419 -0.82568,-4.42979 -0.55046,-1.38791 -1.29548,-2.58797 -2.23506,-3.60019 -0.93959,-1.01223 -2.05473,-1.81053 -3.34547,-2.39492 -1.29073,-0.5844 -2.67638,-0.87658 -4.15692,-0.87658 -1.46157,0 -2.83773,0.29218 -4.12846,0.87656 -1.29074,0.58439 -2.40589,1.38269 -3.34547,2.39492 -0.93958,1.01222 -1.68459,2.21228 -2.23506,3.60019 -0.55046,1.38789 -0.82569,2.86449 -0.82569,4.42979 0,1.56529 0.27523,3.04191 0.82569,4.42982 0.55047,1.38788 1.29548,2.58795 2.23506,3.60018 0.93958,1.01224 2.05473,1.81053 3.34547,2.39491 1.29073,0.58439 2.66689,0.87657 4.12846,0.87657 z m 0,-4.1637 c -0.89213,0 -1.72257,-0.1826 -2.49131,-0.54785 -0.76875,-0.36523 -1.43309,-0.86612 -1.99305,-1.50268 -0.55995,-0.63656 -1.00127,-1.39312 -1.32395,-2.26969 -0.32268,-0.87659 -0.48403,-1.81576 -0.48403,-2.81755 0,-1.02265 0.16135,-1.96706 0.48403,-2.83318 0.32268,-0.86615 0.764,-1.61749 1.32395,-2.25404 0.55996,-0.63656 1.2243,-1.13746 1.99305,-1.5027 0.76874,-0.36523 1.59918,-0.54785 2.49131,-0.54785 0.89212,0 1.7273,0.18262 2.50554,0.54785 0.77824,0.36524 1.44733,0.86614 2.00729,1.5027 0.55994,0.63655 1.00126,1.38789 1.32395,2.25404 0.32267,0.86612 0.48402,1.81053 0.48402,2.83318 0,1.00179 -0.16135,1.94096 -0.48402,2.81755 -0.32269,0.87657 -0.76401,1.63313 -1.32395,2.26969 -0.55996,0.63656 -1.22905,1.13745 -2.00729,1.50268 -0.77824,0.36525 -1.61342,0.54785 -2.50554,0.54785 z m 62.581643,3.81933 v -4.00716 h -10.9048 v -17.90704 h -4.12847 v 21.9142 z m 52.04696,0 v -4.00716 h -10.90482 v -17.90704 h -4.12843 v 21.9142 z m 52.44558,0 v -3.94453 h -11.30342 v -5.1968 h 7.37429 v -3.81933 h -7.37429 v -5.00896 h 11.18954 v -3.94456 h -15.31797 v 21.91422 z m 45.78312,0.31307 c 1.55649,0 3.07025,-0.36524 4.5413,-1.09571 1.47105,-0.73047 2.68112,-1.71139 3.6302,-2.94277 v 0 l -2.70485,-2.94275 c -0.7023,0.89744 -1.50902,1.58616 -2.42014,2.06619 -0.91111,0.48001 -1.88865,0.72004 -2.93263,0.72004 -0.93006,0 -1.78899,-0.18262 -2.5767,-0.54785 -0.78775,-0.36526 -1.47107,-0.86093 -2.04999,-1.48704 -0.57894,-0.62612 -1.03451,-1.37224 -1.36666,-2.23838 -0.33219,-0.86613 -0.49828,-1.80011 -0.49828,-2.8019 0,-1.02265 0.16134,-1.96706 0.48404,-2.83318 0.32268,-0.86615 0.76873,-1.61749 1.33818,-2.25404 0.56945,-0.63656 1.24802,-1.13746 2.03576,-1.5027 0.78771,-0.36523 1.62764,-0.54785 2.51977,-0.54785 1.06297,0 2.06897,0.25567 3.01803,0.76701 0.94908,0.51133 1.77478,1.247 2.47709,2.20705 v 0 l 2.79025,-3.03667 c -0.93007,-1.25225 -2.14489,-2.24882 -3.64443,-2.98973 -1.49951,-0.74092 -3.0465,-1.11137 -4.64094,-1.11137 -1.48055,0 -2.87093,0.29218 -4.17115,0.87656 -1.30023,0.58439 -2.42488,1.37746 -3.37395,2.37926 -0.94906,1.0018 -1.69883,2.19664 -2.24929,3.58454 -0.55047,1.38788 -0.8257,2.87492 -0.8257,4.4611 0,1.58616 0.27049,3.06799 0.81145,4.44546 0.54099,1.37747 1.286,2.5671 2.23507,3.56889 0.94906,1.0018 2.0737,1.79489 3.37393,2.37925 1.30024,0.58437 2.7001,0.87657 4.19964,0.87657 z m 54.60947,-0.31307 v -17.90704 h 6.69093 v -4.00716 h -17.53881 v 4.00716 h 6.71943 v 17.90704 z m 47.29214,0 v -21.9142 h -4.12845 v 21.9142 z m 47.54838,0.34437 c 1.48055,0 2.86619,-0.29218 4.15692,-0.87656 1.29074,-0.58438 2.4059,-1.38267 3.34547,-2.39491 0.93959,-1.01223 1.68459,-2.2123 2.23506,-3.60019 0.55046,-1.3879 0.82569,-2.86452 0.82569,-4.42981 0,-1.5653 -0.27523,-3.0419 -0.82569,-4.42979 -0.55047,-1.38791 -1.29547,-2.58797 -2.23506,-3.6002 -0.93957,-1.01222 -2.05473,-1.81053 -3.34547,-2.39491 -1.29073,-0.5844 -2.67637,-0.87658 -4.15692,-0.87658 -1.46157,0 -2.83771,0.29218 -4.12847,0.87656 -1.29071,0.58439 -2.4059,1.38269 -3.34545,2.39492 -0.93959,1.01222 -1.68461,2.21228 -2.23506,3.60019 -0.55047,1.38789 -0.8257,2.86449 -0.8257,4.42979 0,1.56529 0.27523,3.04191 0.8257,4.42982 0.55045,1.38788 1.29547,2.58795 2.23506,3.60018 0.93955,1.01224 2.05474,1.81053 3.34545,2.39491 1.29076,0.58439 2.6669,0.87657 4.12847,0.87657 z m 0,-4.1637 c -0.89211,0 -1.72258,-0.1826 -2.4913,-0.54785 -0.76875,-0.36523 -1.4331,-0.86612 -1.99306,-1.50268 -0.55995,-0.63656 -1.00125,-1.39312 -1.32396,-2.26969 -0.32266,-0.87659 -0.48401,-1.81576 -0.48401,-2.81755 0,-1.02265 0.16135,-1.96706 0.48401,-2.83318 0.32271,-0.86615 0.76401,-1.61749 1.32396,-2.25404 0.55996,-0.63656 1.22431,-1.13746 1.99306,-1.5027 0.76872,-0.36523 1.59919,-0.54785 2.4913,-0.54785 0.89211,0 1.72731,0.18262 2.50554,0.54785 0.77825,0.36524 1.44734,0.86614 2.00729,1.5027 0.55994,0.63655 1.00126,1.38789 1.32394,2.25404 0.32268,0.86612 0.48403,1.81053 0.48403,2.83318 0,1.00179 -0.16135,1.94096 -0.48403,2.81755 -0.32268,0.87657 -0.764,1.63313 -1.32394,2.26969 -0.55995,0.63656 -1.22904,1.13745 -2.00729,1.50268 -0.77823,0.36525 -1.61343,0.54785 -2.50554,0.54785 z m 51.44905,3.81933 v -14.65122 l 10.16454,14.65122 h 3.64443 v -21.9142 h -3.8722 v 14.18163 l -9.9083,-14.18163 h -3.92915 v 21.9142 z"
       id="COLLECTION"
       inkscape:connector-curvature="0"
       style="fill:#ffffff;fill-rule:nonzero;stroke:none;stroke-width:1.2758193" />
  </g>
</svg>
