<?xml version="1.0" encoding="UTF-8" standalone="no"?>
<svg
   xmlns:dc="http://purl.org/dc/elements/1.1/"
   xmlns:cc="http://creativecommons.org/ns#"
   xmlns:rdf="http://www.w3.org/1999/02/22-rdf-syntax-ns#"
   xmlns:svg="http://www.w3.org/2000/svg"
   xmlns="http://www.w3.org/2000/svg"
   xmlns:sodipodi="http://sodipodi.sourceforge.net/DTD/sodipodi-0.dtd"
   xmlns:inkscape="http://www.inkscape.org/namespaces/inkscape"
   width="500"
   height="200"
   viewBox="0 0 500 200"
   version="1.1"
   id="svg164"
   sodipodi:docname="daphne.svg"
   inkscape:version="0.92.5 (2060ec1f9f, 2020-04-08)">
  <metadata
     id="metadata170">
    <rdf:RDF>
      <cc:Work
         rdf:about="">
        <dc:format>image/svg+xml</dc:format>
        <dc:type
           rdf:resource="http://purl.org/dc/dcmitype/StillImage" />
        <dc:title>mainlogo</dc:title>
      </cc:Work>
    </rdf:RDF>
  </metadata>
  <defs
     id="defs168" />
  <sodipodi:namedview
     pagecolor="#ffffff"
     bordercolor="#666666"
     borderopacity="1"
     objecttolerance="10"
     gridtolerance="10"
     guidetolerance="10"
     inkscape:pageopacity="0"
     inkscape:pageshadow="2"
     inkscape:window-width="1366"
     inkscape:window-height="743"
     id="namedview166"
     showgrid="false"
     inkscape:pagecheckerboard="true"
     inkscape:zoom="1.0579296"
     inkscape:cx="372.28371"
     inkscape:cy="-13.085906"
     inkscape:window-x="0"
     inkscape:window-y="0"
     inkscape:window-maximized="1"
     inkscape:current-layer="svg164" />
  <title
     id="title122">mainlogo</title>
  <g
     id="Page-1"
     style="fill:none;fill-rule:evenodd;stroke:none;stroke-width:1"
     transform="matrix(1.092467,0,0,1.092467,2.8357273,41.590667)">
    <g
       id="mainlogo"
       style="fill:#ffffff;fill-rule:nonzero">
      <polygon
         id="Path"
         points="41.27373,-3.5527137e-14 31.839844,55.423926 6.2892578,55.423926 14.937305,-3.5527137e-14 " />
      <polygon
         id="polygon125"
         points="51.494727,69.967676 48.348828,92.372363 -3.5527137e-13,92.372363 4.7175781,63.680957 30.660449,63.680957 29.874609,69.967676 " />
      <polygon
         id="polygon127"
         points="366.74473,4.7175781 364.38848,20.439453 340.40957,20.439453 342.76836,4.7175781 " />
      <polygon
         id="polygon129"
         points="363.40332,27.122266 359.08184,56.211035 335.10293,56.211035 339.42695,27.122266 " />
      <polygon
         id="polygon131"
         points="357.90117,63.680957 353.57715,92.372363 329.59824,92.372363 333.9248,63.680957 " />
      <polygon
         id="polygon133"
         points="248.23145,63.680957 243.90742,92.372363 219.92979,92.372363 224.25381,63.680957 " />
      <path
         d="m 77.631836,63.680957 c -0.201856,1.853516 -0.341504,4.214844 -0.133301,6.3375 0.285645,2.589844 1.291113,4.661719 3.748926,4.661719 3.237305,0 5.187305,-2.848828 6.305762,-6.210547 0.632226,-1.751953 1.084179,-3.199219 1.411718,-4.849609 l 22.345019,-0.06094 -4.55254,28.894531 H 86.891797 l 1.166699,-5.753515 c -4.921972,6.261328 -8.863867,7.769531 -17.147558,7.769531 -15.819629,0 -18.347266,-17.55 -17.344336,-30.783594 l 24.065234,-0.0051 z"
         id="path135"
         inkscape:connector-curvature="0" />
      <path
         d="m 89.961523,56.211035 c 0.01777,-1.645312 -0.0038,-2.620312 -0.08252,-3.773047 -0.231055,-2.980859 -1.16416,-5.566894 -4.139942,-5.566894 -3.106543,0 -4.965137,3.106543 -6.266406,6.861816 -0.185352,0.583985 -0.347852,1.147656 -1.077832,2.467969 L 54.121386,56.185645 C 57.343457,42.349023 64.59502,26.1625 80.395605,25.83623 84.709473,25.747363 92.767188,26.336426 95.919433,32.5 l 0.688086,0.133301 1.019434,-5.569434 h 19.468257 l -4.48398,29.147168 z"
         id="path137"
         inkscape:connector-curvature="0" />
      <path
         d="m 118.51582,56.211035 c -1.4498,-2.894531 -2.05537,-6.357812 -1.479,-10.47998 1.97158,-14.109571 12.57851,-21.270996 28.49843,-21.270996 6.85928,0 11.62764,1.611035 17.11202,4.975293 l -2.61143,18.11748 c -3.98125,-3.33125 -11.19092,-5.100977 -15.46289,-5.100977 -1.81162,0 -4.0625,0.427833 -4.61602,2.578418 -0.80615,3.121778 2.69141,4.838184 6.94561,6.341309 3.51787,1.24414 6.50762,2.782812 8.89433,4.808984 l -37.28105,0.03047 z"
         id="path139"
         inkscape:connector-curvature="0" />
      <path
         d="m 161.23555,63.741895 c 1.08291,2.970703 1.40664,6.545703 0.87978,10.31875 -2.15439,15.401953 -15.37148,21.196093 -29.47851,21.196093 -9.31963,0 -13.23995,-1.736718 -20.6502,-6.139453 L 115.3001,68.84541 c 2.52383,3.234766 11.07666,8.394141 16.7997,8.09961 2.19756,-0.111719 6.63584,-1.625 6.97862,-4.082813 0.34404,-2.457812 -0.71348,-4.270703 -6.23467,-6.027734 -2.5835,-0.817578 -5.03877,-1.685938 -7.21348,-3.026563 l 35.60528,-0.06602 z"
         id="path141"
         inkscape:connector-curvature="0" />
      <path
         d="m 187.48057,63.691113 c -0.95469,5.778907 -1.17305,14.853516 4.0955,15.49336 3.39346,0.416406 6.93038,-2.335938 8.00313,-9.308203 h 21.31289 C 217.17744,91.783301 204.33867,95.759473 189.06621,95.647754 172.42646,95.525879 162.46445,81.977441 163.68574,63.660645 l 23.79483,0.03047 z"
         id="path143"
         inkscape:connector-curvature="0" />
      <path
         d="m 411.15039,56.205957 c 3.12559,-17.172949 11.4918,-31.20127 35.41484,-31.745898 4.69473,-0.106641 8.42715,1.482812 10.37969,2.617773 l -3.09258,18.594824 c -9.49355,-3.849219 -14.658,3.707032 -16.48105,10.56377 l -26.2209,-0.03047 z"
         id="path145"
         inkscape:connector-curvature="0" />
      <path
         d="m 436.82285,63.691113 c 0.63985,4.28086 3.10528,8.272266 7.90664,8.272266 l 5.22032,-0.396094 -3.0418,20.810156 c -3.70703,0.980078 -7.24395,1.569141 -12.04278,1.503125 -18.26347,-0.258984 -25.74863,-13.685547 -24.6873,-30.214844 z"
         id="path147"
         inkscape:connector-curvature="0" />
      <path
         d="m 301.90469,63.691113 c -2.85899,4.63125 -5.71797,8.04375 -12.20274,7.454688 l 1.11973,-7.475 -25.25098,0.01523 -4.56523,28.686328 h 25.55058 c 21.14278,0 35.6586,-9.247265 42.77305,-28.747265 l -27.42441,0.06602 z"
         id="path149"
         inkscape:connector-curvature="0" />
      <path
         d="m 291.77383,56.22627 5.00449,-32.247364 c 10.21973,0 12.57598,7.860938 10.61074,22.011133 -0.49004,3.538184 -1.17812,7.270606 -2.0998,10.29209 l 26.58652,0.03047 c 0.96231,-3.98125 1.38379,-8.400488 1.85098,-13.073633 C 337.26367,7.8609375 318.00488,0 298.74356,0 h -23.97891 l -3.34141,25.157031 c -3.93047,0.78584 -13.56113,1.965235 -18.67226,8.844825 -0.98262,0.982617 -1.57168,0.589062 -1.37618,-0.590332 l 0.98262,-6.289258 h -22.60019 l -4.32403,29.088769 h 23.97891 c 0.98008,-4.128515 11.79141,-10.220996 18.47422,-7.076367 l -1.12227,7.050977 25.00977,0.04062 z"
         id="path151"
         inkscape:connector-curvature="0" />
      <path
         d="m 364.58652,56.211035 c -1.4498,-2.894531 -2.05664,-6.357812 -1.48027,-10.47998 1.97285,-14.109571 12.57852,-21.270996 28.49844,-21.270996 6.86054,0 11.6289,1.611035 17.11328,4.975293 l -2.6127,18.11748 c -3.98125,-3.33125 -11.19218,-5.100977 -15.46289,-5.100977 -1.81035,0 -4.0625,0.427833 -4.61601,2.578418 -0.80489,3.121778 2.6914,4.838184 6.94687,6.341309 3.5166,1.24414 6.50762,2.782812 8.8918,4.808984 l -37.27852,0.03047 z"
         id="path153"
         inkscape:connector-curvature="0" />
      <path
         d="m 407.30371,63.741895 c 1.08418,2.970703 1.40664,6.545703 0.88106,10.31875 -2.15313,15.401953 -15.37149,21.196093 -29.47852,21.196093 -9.3209,0 -13.24121,-1.736718 -20.65019,-6.139453 l 3.31347,-20.271875 c 2.52383,3.234766 11.07539,8.394141 16.79844,8.09961 2.19883,-0.111719 6.63711,-1.625 6.97988,-4.082813 0.34531,-2.457812 -0.71348,-4.270703 -6.2334,-6.027734 -2.58476,-0.817578 -5.04004,-1.685938 -7.21347,-3.026563 l 35.60273,-0.06602 z"
         id="path155"
         inkscape:connector-curvature="0" />
      <polygon
         id="polygon157"
         points="448.89609,12.381738 448.89609,13.111719 446.83438,13.111719 446.83438,18.475488 446.00918,18.475488 446.00918,13.111719 443.94746,13.111719 443.94746,12.381738 " />
      <path
         d="m 454.675,18.475488 v -3.597851 c 0,-0.179004 0.0178,-0.950879 0.0178,-1.519629 h -0.0178 l -1.71387,5.11748 h -0.81504 l -1.71386,-5.108594 h -0.0152 c 0,0.559864 0.0152,1.331739 0.0152,1.510743 v 3.597851 h -0.79727 v -6.09375 h 1.18066 l 1.73926,5.150488 h 0.0152 l 1.73164,-5.150488 h 1.17051 v 6.09375 z"
         id="path159"
         inkscape:connector-curvature="0" />
      <path
         d="m 197.10869,24.460058 c -19.23974,0.130762 -28.70791,13.632227 -32.44414,31.740821 l 58.09248,0.01523 c 0.64238,-8.401758 0.33897,-16.538183 -2.2001,-20.23125 -4.42812,-6.442871 -10.25781,-11.613672 -23.44824,-11.524805 z m 0.37451,15.16836 c 4.53096,0 5.26729,4.918164 4.87246,8.670898 h -11.77871 c 0.35928,-3.49375 2.63555,-8.670898 6.90625,-8.670898 z"
         id="Shape"
         inkscape:connector-curvature="0" />
    </g>
  </g>
</svg>
