<?xml version="1.0" encoding="UTF-8" standalone="no"?>
<svg
   xmlns:dc="http://purl.org/dc/elements/1.1/"
   xmlns:cc="http://creativecommons.org/ns#"
   xmlns:rdf="http://www.w3.org/1999/02/22-rdf-syntax-ns#"
   xmlns:svg="http://www.w3.org/2000/svg"
   xmlns="http://www.w3.org/2000/svg"
   xmlns:sodipodi="http://sodipodi.sourceforge.net/DTD/sodipodi-0.dtd"
   xmlns:inkscape="http://www.inkscape.org/namespaces/inkscape"
   width="500"
   height="200"
   viewBox="0 0 500 200"
   version="1.1"
   id="svg180"
   sodipodi:docname="Dataeast.svg"
   style="fill:none"
   inkscape:version="0.92.5 (2060ec1f9f, 2020-04-08)">
  <metadata
     id="metadata186">
    <rdf:RDF>
      <cc:Work
         rdf:about="">
        <dc:format>image/svg+xml</dc:format>
        <dc:type
           rdf:resource="http://purl.org/dc/dcmitype/StillImage" />
        <dc:title />
      </cc:Work>
    </rdf:RDF>
  </metadata>
  <defs
     id="defs184" />
  <sodipodi:namedview
     pagecolor="#ffffff"
     bordercolor="#666666"
     borderopacity="1"
     objecttolerance="10"
     gridtolerance="10"
     guidetolerance="10"
     inkscape:pageopacity="0"
     inkscape:pageshadow="2"
     inkscape:window-width="1366"
     inkscape:window-height="743"
     id="namedview182"
     showgrid="false"
     inkscape:pagecheckerboard="true"
     inkscape:zoom="1.9064791"
     inkscape:cx="203.97686"
     inkscape:cy="84.249052"
     inkscape:window-x="0"
     inkscape:window-y="0"
     inkscape:window-maximized="1"
     inkscape:current-layer="svg180" />
  <path
     d="m 13.4732,198.65383 c 1.562666,-0.001 3.10603,-0.34513 4.522776,-1.00435 1.393019,-0.61476 2.629116,-1.53687 3.615676,-2.69761 v 0 l -2.693827,-2.69895 c -0.661121,0.79539 -1.482266,1.44249 -2.410046,1.90085 -0.910121,0.44084 -1.909325,0.66598 -2.920528,0.65924 -0.85331,0.01 -1.699974,-0.15099 -2.490974,-0.4705 -0.791013,-0.32085 -1.5106439,-0.79403 -2.117273,-1.3953 -0.5841444,-0.58643 -1.0456626,-1.28477 -1.3577667,-2.05186 -0.3346055,-0.81561 -0.5030941,-1.6892 -0.4955848,-2.56952 -0.00905,-0.88977 0.1545903,-1.77144 0.4820087,-2.5992 0.3056345,-0.76843 0.7585508,-1.47081 1.3333251,-2.06667 0.5764044,-0.59048 1.2658097,-1.05829 2.0271377,-1.37779 0.793372,-0.33703 1.647261,-0.50689 2.509146,-0.50151 1.039433,-0.003 2.065466,0.23323 2.996536,0.69565 0.962428,0.48396 1.805277,1.17556 2.467072,2.02489 v 0 l 2.779433,-2.78524 c -0.977258,-1.18635 -2.220769,-2.126 -3.629292,-2.74075 -1.447754,-0.67001 -3.023027,-1.01782 -4.617819,-1.02053 -1.424445,-0.01 -2.836634,0.26424 -4.1547511,0.80485 -1.2488115,0.50553 -2.3890574,1.24701 -3.3591151,2.18261 -0.9574804,0.93696 -1.7190464,2.0532 -2.2403066,3.28673 -0.5403623,1.2942 -0.8197419,2.68142 -0.8220728,4.08214 -0.00232,1.40205 0.2724342,2.79063 0.8084967,4.08482 0.5150875,1.2295 1.2718537,2.34304 2.2253697,3.27458 0.9705169,0.93426 2.1112341,1.67573 3.360476,2.18128 1.3270292,0.54194 2.7485342,0.81561 4.1819032,0.80214 z m 53.736279,0.0309 c 1.419567,0.01 2.827148,-0.26287 4.139694,-0.80482 1.243368,-0.50421 2.374583,-1.24971 3.32866,-2.19341 0.953935,-0.94368 1.711849,-2.06667 2.230071,-3.30426 0.542612,-1.28476 0.82208,-2.66658 0.82208,-4.0619 0,-1.39531 -0.279468,-2.77713 -0.82208,-4.06191 -0.51809,-1.23892 -1.276004,-2.36191 -2.230071,-3.30425 -0.953934,-0.94369 -2.085292,-1.68921 -3.32866,-2.19341 -2.646513,-1.07176 -5.605913,-1.07176 -8.252426,0 -1.243379,0.5042 -2.374594,1.24972 -3.328659,2.19341 -0.954069,0.94234 -1.711851,2.06533 -2.230072,3.30425 -0.542216,1.28478 -0.821548,2.6666 -0.821548,4.06191 0,1.39532 0.279332,2.77714 0.821548,4.0619 0.518221,1.23759 1.276137,2.36058 2.230207,3.30426 0.95393,0.9437 2.085145,1.6892 3.328524,2.19341 1.30418,0.53925 2.702866,0.81157 4.114078,0.80348 z m 0,-3.81924 c -0.833283,0.009 -1.659005,-0.15503 -2.426896,-0.47859 -0.767892,-0.32354 -1.461639,-0.80079 -2.038906,-1.40069 -0.569322,-0.60262 -1.016898,-1.31038 -1.31834,-2.08151 -0.643056,-1.66764 -0.643056,-3.51592 0,-5.18355 0.304002,-0.76574 0.751447,-1.46811 1.31834,-2.06668 0.577267,-0.59992 1.271014,-1.07715 2.038906,-1.4007 0.767891,-0.32355 1.593613,-0.48668 2.426896,-0.47859 0.857541,-0.007 1.707268,0.16448 2.495521,0.5015 0.752782,0.31951 1.432778,0.78866 1.99859,1.37779 0.567014,0.59857 1.01447,1.30094 1.318461,2.06668 0.642659,1.66763 0.642659,3.51591 0,5.18355 -0.301431,0.77113 -0.749151,1.47889 -1.318461,2.08151 -0.565944,0.58913 -1.24594,1.05827 -1.99859,1.37778 -0.787988,0.33703 -1.637163,0.5069 -2.494175,0.50016 z m 62.328071,3.50379 v -3.67365 H 118.67543 V 178.2714 h -4.10855 v 20.09518 z m 51.83858,0 v -3.67365 H 170.51292 V 178.2714 h -4.11044 v 20.09518 z m 52.23317,0 v -3.61703 h -11.2582 v -4.76697 h 7.34593 v -3.50378 h -7.34593 v -4.58902 h 11.14496 v -3.61697 h -15.25811 v 20.09518 z m 45.59904,0.28581 c 1.56249,-0.001 3.10608,-0.34513 4.52161,-1.00438 1.39397,-0.61473 2.6302,-1.5382 3.61568,-2.69759 v 0 l -2.6949,-2.6976 c -0.66058,0.7954 -1.4816,1.44249 -2.4091,1.90085 -0.90998,0.44085 -1.9103,0.66599 -2.92139,0.65925 -0.85337,0.01 -1.69864,-0.151 -2.48999,-0.4705 -0.79136,-0.32086 -1.50991,-0.79405 -2.11657,-1.39531 -0.58374,-0.58644 -1.04614,-1.28477 -1.35755,-2.05186 -0.33569,-0.81562 -0.5042,-1.6892 -0.49746,-2.56952 -0.009,-0.88977 0.15503,-1.77145 0.48396,-2.59919 0.30469,-0.76842 0.75632,-1.47081 1.33196,-2.06668 0.57565,-0.59047 1.2659,-1.05963 2.02623,-1.37779 0.79405,-0.33703 1.64741,-0.50823 2.51022,-0.50149 1.04211,-0.003 2.07206,0.23591 3.00497,0.70101 0.96256,0.48399 1.80649,1.17557 2.46708,2.0249 v 0 l 2.77983,-2.78523 c -0.97739,-1.18635 -2.22036,-2.126 -3.62916,-2.74074 -1.44789,-0.66868 -3.0225,-1.01649 -4.61598,-1.02054 -1.42498,-0.01 -2.83646,0.26423 -4.15493,0.80484 -1.24971,0.50554 -2.39023,1.24566 -3.36088,2.18125 -0.95717,0.93562 -1.7202,2.0532 -2.24194,3.28675 -0.53925,1.29419 -0.81966,2.68142 -0.821,4.08212 -0.002,1.40206 0.27232,2.79063 0.80752,4.08618 0.515,1.22814 1.27264,2.34168 2.22577,3.27324 0.97064,0.93425 2.11116,1.67572 3.36087,2.18127 1.32521,0.53926 2.74344,0.80888 4.17515,0.7954 z m 54.38882,-0.28581 v -16.42423 h 6.66245 v -3.675 h -17.46767 v 3.675 h 6.6921 v 16.42153 z m 47.10086,0 v -20.09513 h -4.11178 v 20.09519 z m 47.35699,0.31681 c 1.41958,0.01 2.82703,-0.26289 4.1401,-0.80483 1.24297,-0.50421 2.37406,-1.24973 3.32853,-2.19341 0.95448,-0.94369 1.71213,-2.06667 2.22981,-3.30426 0.54328,-1.28477 0.82235,-2.66659 0.82235,-4.06191 0,-1.39531 -0.27907,-2.77714 -0.82235,-4.06189 -0.51768,-1.23894 -1.27533,-2.36193 -2.22981,-3.30427 -0.95312,-0.94369 -2.08556,-1.68921 -3.32853,-2.19341 -2.64637,-1.07175 -5.60416,-1.07175 -8.25054,0 -1.24297,0.5042 -2.37405,1.24972 -3.32717,2.19341 -0.95447,0.94369 -1.71212,2.06668 -2.23116,3.30427 -0.54194,1.28475 -0.82234,2.66658 -0.82234,4.06189 0,1.39532 0.2804,2.77714 0.82234,4.06191 0.51904,1.23759 1.27669,2.36057 2.23116,3.30426 0.95312,0.94368 2.0842,1.6892 3.32717,2.19341 1.30364,0.5379 2.70031,0.81156 4.11044,0.80213 z m 0,-3.81924 c -0.85201,0.009 -1.69729,-0.16313 -2.48054,-0.50151 -0.74687,-0.32086 -1.42228,-0.79 -1.98445,-1.37778 -0.57027,-0.60262 -1.01918,-1.30904 -1.31981,-2.08152 -0.64307,-1.66763 -0.64307,-3.51591 0,-5.18355 0.30333,-0.76573 0.75225,-1.46811 1.31981,-2.06667 0.56217,-0.58778 1.23758,-1.05693 1.98445,-1.37778 0.78325,-0.33839 1.62853,-0.50959 2.48054,-0.5015 0.85741,-0.007 1.70674,0.16446 2.49404,0.5015 0.7536,0.3195 1.43441,0.78865 2.00062,1.37778 0.56756,0.59856 1.01379,1.30094 1.31846,2.06667 0.64307,1.66764 0.64307,3.51592 0,5.18355 -0.30198,0.77112 -0.74954,1.4789 -1.31846,2.08152 -0.56621,0.58913 -1.24702,1.05827 -2.00062,1.37778 -0.7873,0.33703 -1.63663,0.5069 -2.49404,0.49881 z m 51.24096,3.50378 v -13.44215 l 10.12309,13.44218 h 3.62915 v -20.09512 h -3.85565 v 13.00538 l -9.86828,-13.00538 h -3.91361 v 20.09519 z"
     id="path172"
     inkscape:connector-curvature="0"
     style="fill:#ffffff;stroke-width:1.34812689" />
  <path
     d="m 236.0905,19.316598 h 32.54359 c 17.89604,0 25.86572,6.60644 25.86572,24.643066 v 13.282825 c 0,17.337495 -5.66266,25.551812 -23.5587,25.551812 H 236.0905 Z m 17.12858,48.761812 h 14.99557 c 6.3264,0 8.63343,-4.159649 8.63343,-10.835921 V 43.959664 c 0,-8.214316 -2.65618,-9.892142 -8.63343,-9.892142 h -14.99557 z m 63.02332,3.810024 -3.18164,10.905867 h -17.8269 l 19.29499,-63.477703 h 26.04202 l 19.50473,63.477703 h -17.47774 l -3.35565,-10.905867 z m 11.63992,-39.848361 h -0.17516 l -7.7945,27.474396 h 15.93933 z m 60.57573,50.754228 H 371.33063 V 34.067522 H 351.51131 V 19.316598 H 409.152 v 14.715893 h -20.69395 z m 33.03219,-10.905867 -3.18049,10.905867 h -17.82691 l 19.295,-63.477703 h 26.04087 l 19.54045,63.477703 h -17.47773 l -3.35565,-10.905867 z m 11.63991,-39.848361 h -0.17401 l -7.79566,27.509429 h 15.93935 z M 254.23199,122.5378 h 29.67654 v 11.78016 h -29.67654 v 12.37396 h 32.08843 v 13.84206 H 237.10457 V 97.05582 h 48.58665 v 13.8771 h -31.45923 z m 57.67525,27.0903 -3.18048,10.90588 h -17.8269 l 19.26042,-63.47816 h 26.04088 l 19.53928,63.47816 h -17.47658 l -3.35564,-10.90588 z m 11.63992,-39.84869 h -0.17401 l -7.79565,27.50931 h 15.93934 z m 65.33034,12.16425 c 19.81932,1.36323 24.74794,3.74007 24.74794,18.28125 0,10.48642 0.45517,20.8334 -29.01164,20.8334 -17.05827,0 -28.41817,-0.35033 -28.41817,-21.14799 h 17.16198 c 0,6.60644 2.51674,7.27019 11.25619,7.27019 8.38913,0 11.15016,-0.5243 11.15016,-5.83665 0,-5.48866 -0.97834,-5.41837 -9.36746,-5.94268 l -3.91571,-0.24431 c -16.53281,-1.08435 -26.1803,-1.01406 -26.1803,-19.22551 0,-18.21132 10.801,-19.36484 28.31331,-19.36484 14.64525,0 27.1598,0.24465 27.1598,17.75695 v 2.62161 h -17.16313 c 0,-6.50155 -2.86592,-6.50155 -9.99667,-6.50155 -9.64749,0 -10.45184,1.85262 -10.45184,5.41799 0,5.0684 2.58702,5.24321 7.34048,5.59273 z m 60.15744,38.59032 H 431.90751 V 111.80676 H 415.47842 V 97.09085 h 50.85909 v 14.71591 H 449.03494 Z M 153.28324,88.561828 h 56.83669 V 46.616185 c -3.74054,-1.01361 -7.69081,-1.572963 -11.74479,-1.572963 -24.36419,0 -44.25301,19.39986 -45.0919,43.518606 z m 45.0919,46.769052 c 4.05398,0 8.00425,-0.55891 11.74479,-1.57297 V 91.812611 h -56.83669 c 0.83889,24.118749 20.72771,43.518269 45.0919,43.518269 z m 0,-117.062921 c -33.80195,0 -62.18476,23.34978 -69.87487,54.77398 -7.68999,-31.4242 -36.03823,-54.77398 -69.874418,-54.77398 -3.984836,0 -7.93472,0.349546 -11.74478,0.978731 v 24.048875 c 3.775108,-0.943777 7.690031,-1.433182 11.74478,-1.433182 26.670399,0 48.377268,21.70687 48.377268,48.377267 0,26.67052 -21.706869,48.30744 -48.377268,48.30744 -4.054749,0 -8.004623,-0.48974 -11.74478,-1.43352 v 24.04959 c 3.81006,0.62919 7.759944,0.97835 11.74478,0.97835 33.801158,0 62.184428,-23.35012 69.874418,-54.77398 7.69011,31.45958 36.03835,54.77398 69.87487,54.77398 4.01942,0 7.93396,-0.34916 11.74479,-0.97835 v -24.04959 c -3.77511,0.94376 -7.69081,1.43352 -11.74479,1.43352 -26.6712,0 -48.37773,-21.70686 -48.37773,-48.37727 0,-26.670515 21.70653,-48.342353 48.37773,-48.342353 4.05398,0 8.00425,0.489289 11.74479,1.433065 V 19.24669 c -3.81083,-0.629185 -7.75995,-0.978731 -11.74479,-0.978731 z m -94.58777,71.936775 c 0,-24.887708 -20.238776,-45.12648 -45.126601,-45.12648 -4.089666,-0.03504 -8.03954,0.524321 -11.779697,1.537931 v 87.141725 c 3.740157,1.01406 7.690031,1.57297 11.74478,1.57297 24.88771,0 45.161518,-20.23843 45.161518,-45.126146 z"
     id="path178"
     inkscape:connector-curvature="0"
     style="fill:#ffffff;stroke-width:1.15235293" />
</svg>
