<?xml version="1.0" encoding="UTF-8" standalone="no"?>
<!-- Created with Inkscape (http://www.inkscape.org/) -->

<svg
   xmlns:dc="http://purl.org/dc/elements/1.1/"
   xmlns:cc="http://creativecommons.org/ns#"
   xmlns:rdf="http://www.w3.org/1999/02/22-rdf-syntax-ns#"
   xmlns:svg="http://www.w3.org/2000/svg"
   xmlns="http://www.w3.org/2000/svg"
   xmlns:xlink="http://www.w3.org/1999/xlink"
   xmlns:sodipodi="http://sodipodi.sourceforge.net/DTD/sodipodi-0.dtd"
   xmlns:inkscape="http://www.inkscape.org/namespaces/inkscape"
   width="500"
   height="200"
   viewBox="0 0 500 200"
   version="1.1"
   id="svg8"
   sodipodi:docname="donkeykong.svg"
   inkscape:version="0.92.5 (2060ec1f9f, 2020-04-08)">
  <defs
     id="defs2">
    <linearGradient
       id="a"
       y2="828.56799"
       xlink:href="#m"
       gradientUnits="userSpaceOnUse"
       x2="620.073"
       gradientTransform="matrix(2.4942725,0,0,2.4942725,-1265.4949,-1694.699)"
       y1="802.30402"
       x1="620.073" />
    <linearGradient
       id="m">
      <stop
         stop-color="#fa020e"
         offset="0"
         id="stop2" />
      <stop
         stop-color="#c60606"
         offset="1"
         id="stop4" />
    </linearGradient>
    <filter
       id="h">
      <feGaussianBlur
         stdDeviation="2.6216153"
         id="feGaussianBlur20" />
    </filter>
    <filter
       id="g">
      <feGaussianBlur
         stdDeviation="2.6216153"
         id="feGaussianBlur23" />
    </filter>
    <filter
       id="c">
      <feGaussianBlur
         stdDeviation="2.6216153"
         id="feGaussianBlur35" />
    </filter>
    <filter
       id="e">
      <feGaussianBlur
         stdDeviation="2.6216153"
         id="feGaussianBlur29" />
    </filter>
    <filter
       id="l">
      <feGaussianBlur
         stdDeviation="2.6216153"
         id="feGaussianBlur8" />
    </filter>
    <filter
       id="k">
      <feGaussianBlur
         stdDeviation="2.6216153"
         id="feGaussianBlur11" />
    </filter>
    <filter
       id="j">
      <feGaussianBlur
         stdDeviation="2.6216153"
         id="feGaussianBlur14" />
    </filter>
    <filter
       id="i">
      <feGaussianBlur
         stdDeviation="2.6216153"
         id="feGaussianBlur17" />
    </filter>
    <filter
       id="d">
      <feGaussianBlur
         stdDeviation="2.6216153"
         id="feGaussianBlur32" />
    </filter>
    <filter
       id="f">
      <feGaussianBlur
         stdDeviation="2.6216153"
         id="feGaussianBlur26" />
    </filter>
  </defs>
  <sodipodi:namedview
     id="base"
     pagecolor="#ffffff"
     bordercolor="#666666"
     borderopacity="1.0"
     inkscape:pageopacity="0.0"
     inkscape:pageshadow="2"
     inkscape:zoom="1.2864866"
     inkscape:cx="163.06345"
     inkscape:cy="14.604517"
     inkscape:document-units="mm"
     inkscape:current-layer="layer1"
     showgrid="false"
     units="px"
     inkscape:pagecheckerboard="true"
     inkscape:window-width="1366"
     inkscape:window-height="743"
     inkscape:window-x="0"
     inkscape:window-y="0"
     inkscape:window-maximized="1" />
  <metadata
     id="metadata5">
    <rdf:RDF>
      <cc:Work
         rdf:about="">
        <dc:format>image/svg+xml</dc:format>
        <dc:type
           rdf:resource="http://purl.org/dc/dcmitype/StillImage" />
        <dc:title />
      </cc:Work>
    </rdf:RDF>
  </metadata>
  <g
     inkscape:label="Layer 1"
     inkscape:groupmode="layer"
     id="layer1"
     transform="translate(-35.186023,-235.92207)">
    <path
       d="m 47.139813,432.52612 c 1.566266,0 3.089558,-0.3674 4.569869,-1.10258 1.480311,-0.73511 2.697988,-1.72218 3.653028,-2.96129 v 0 l -2.721865,-2.9613 c -0.706726,0.9031 -1.518511,1.59618 -2.435351,2.07923 -0.91684,0.48302 -1.900531,0.72457 -2.951076,0.72457 -0.93594,0 -1.800248,-0.1837 -2.592933,-0.55133 -0.792685,-0.3674 -1.480311,-0.86631 -2.06289,-1.49637 -0.582575,-0.63005 -1.040991,-1.3809 -1.375256,-2.25247 -0.334272,-0.8716 -0.501393,-1.81144 -0.501393,-2.81954 0,-1.0291 0.162363,-1.97943 0.48707,-2.85099 0.324726,-0.87161 0.773581,-1.62767 1.346605,-2.26822 0.573022,-0.64055 1.255878,-1.1446 2.048563,-1.51216 0.792681,-0.3674 1.63789,-0.55128 2.535629,-0.55128 1.069646,0 2.08199,0.2571 3.03703,0.7718 0.955041,0.51455 1.785926,1.2549 2.492652,2.22098 v 0 l 2.80782,-3.05581 c -0.93594,-1.26011 -2.15839,-2.26292 -3.667355,-3.00852 -1.508965,-0.74557 -3.065681,-1.11833 -4.670147,-1.11833 -1.489861,0 -2.888998,0.294 -4.197399,0.88206 -1.308406,0.58803 -2.440128,1.38612 -3.395169,2.39422 -0.95504,1.00811 -1.70952,2.21045 -2.263445,3.6071 -0.553925,1.39665 -0.830885,2.89302 -0.830885,4.48915 0,1.59617 0.272202,3.08733 0.816558,4.47345 0.544374,1.38611 1.294082,2.58324 2.249122,3.59134 0.95504,1.00807 2.086759,1.80616 3.395165,2.39422 1.308409,0.58803 2.717092,0.88207 4.226053,0.88207 z m 54.294037,0.0304 c 1.48986,0 2.88422,-0.29399 4.18307,-0.88206 1.29886,-0.58807 2.42102,-1.3914 3.36652,-2.41 0.94549,-1.0186 1.6952,-2.22619 2.24912,-3.62284 0.55394,-1.39661 0.83087,-2.88253 0.83087,-4.45766 0,-1.57518 -0.27691,-3.06106 -0.83087,-4.45767 -0.55392,-1.39665 -1.30363,-2.60423 -2.24912,-3.62284 -0.9455,-1.0186 -2.06766,-1.82193 -3.36652,-2.41 -1.29885,-0.58803 -2.69321,-0.88206 -4.18307,-0.88206 -1.470765,0 -2.855575,0.29399 -4.15443,0.88206 -1.298855,0.58807 -2.421021,1.3914 -3.366518,2.41 -0.945483,1.01861 -1.695187,2.22619 -2.249111,3.62284 -0.553925,1.39661 -0.830889,2.88249 -0.830889,4.45767 0,1.57513 0.276956,3.06105 0.830889,4.45766 0.553924,1.39665 1.303628,2.60424 2.249111,3.62284 0.945497,1.0186 2.067663,1.82193 3.366518,2.41 1.298855,0.58803 2.683665,0.88206 4.15443,0.88206 z m 0,-4.18991 c -0.89774,0 -1.733395,-0.1837 -2.506972,-0.55129 -0.773588,-0.3674 -1.442114,-0.87156 -2.005596,-1.51212 -0.563471,-0.64059 -1.007564,-1.40189 -1.332279,-2.28396 -0.324726,-0.88214 -0.487078,-1.82722 -0.487078,-2.83528 0,-1.0291 0.162363,-1.97943 0.487078,-2.851 0.324726,-0.8716 0.768808,-1.62766 1.332279,-2.26825 0.563482,-0.64056 1.232008,-1.14461 2.005596,-1.51212 0.773577,-0.3674 1.609232,-0.55133 2.506972,-0.55133 0.89773,0 1.73817,0.1837 2.5213,0.55133 0.78314,0.3674 1.45644,0.87156 2.01992,1.51212 0.56346,0.64059 1.00756,1.39665 1.33228,2.26825 0.32469,0.87157 0.48707,1.8219 0.48707,2.851 0,1.00806 -0.16237,1.95314 -0.48707,2.83528 -0.32473,0.88207 -0.76882,1.64337 -1.33228,2.28396 -0.56348,0.64056 -1.23678,1.14461 -2.01992,1.51212 -0.78313,0.3674 -1.62357,0.55129 -2.5213,0.55129 z m 62.97535,3.84335 v -4.03234 h -10.9734 v -18.01971 h -4.15444 v 22.05205 z m 52.37439,0 v -4.03234 h -10.97342 v -18.01971 h -4.15441 v 22.05205 z m 52.77554,0 v -3.96931 h -11.37455 v -5.22951 h 7.42067 v -3.84335 h -7.42067 v -5.04049 h 11.25992 v -3.96935 H 254.0302 V 432.21 Z m 46.07113,0.31492 c 1.56628,0 3.08954,-0.3674 4.56986,-1.10262 1.48028,-0.73506 2.69799,-1.72217 3.65304,-2.96129 v 0 l -2.72188,-2.96125 c -0.70673,0.90309 -1.5185,1.59613 -2.43537,2.07919 -0.91682,0.48302 -1.90051,0.72457 -2.95106,0.72457 -0.93591,0 -1.80025,-0.1837 -2.5929,-0.55129 -0.79272,-0.3674 -1.48036,-0.86636 -2.06291,-1.49641 -0.58259,-0.63006 -1.041,-1.38087 -1.37524,-2.25247 -0.33431,-0.87157 -0.50143,-1.81144 -0.50143,-2.81951 0,-1.02909 0.1624,-1.97943 0.48709,-2.85099 0.3248,-0.87161 0.77356,-1.62766 1.3466,-2.26826 0.57304,-0.64055 1.25585,-1.1446 2.04857,-1.51211 0.79265,-0.3674 1.63786,-0.55133 2.53563,-0.55133 1.06964,0 2.08197,0.25748 3.03701,0.77184 0.95505,0.51455 1.78592,1.25487 2.49265,2.22094 v 0 l 2.80783,-3.05576 c -0.93592,-1.26015 -2.15841,-2.26297 -3.66737,-3.00857 -1.50893,-0.74556 -3.06566,-1.11832 -4.67012,-1.11832 -1.48987,0 -2.88899,0.29399 -4.1974,0.88206 -1.30842,0.58807 -2.44013,1.38615 -3.39518,2.39426 -0.95504,1.0081 -1.70951,2.21044 -2.26346,3.60705 -0.55391,1.39665 -0.83087,2.89302 -0.83087,4.48919 0,1.59614 0.27232,3.0873 0.81654,4.47341 0.5444,1.38615 1.29411,2.58325 2.24916,3.59135 0.95501,1.0081 2.08672,1.80619 3.39513,2.39422 1.30841,0.58806 2.71708,0.8821 4.22608,0.8821 z m 54.953,-0.31492 v -18.01967 h 6.73303 v -4.03238 h -17.64916 v 4.03238 h 6.7617 v 18.01967 z m 47.58965,0 v -22.05205 h -4.15443 v 22.05205 z m 47.84752,0.34649 c 1.48986,0 2.88423,-0.294 4.18306,-0.88207 1.29887,-0.58806 2.42107,-1.3914 3.36653,-2.41 0.9455,-1.0186 1.69517,-2.22619 2.24913,-3.62284 0.55391,-1.39661 0.83087,-2.88252 0.83087,-4.45766 0,-1.57518 -0.27689,-3.06105 -0.83087,-4.45766 -0.55396,-1.39665 -1.30363,-2.60424 -2.24913,-3.62284 -0.94546,-1.0186 -2.06766,-1.82194 -3.36653,-2.41 -1.29883,-0.58803 -2.6932,-0.88207 -4.18306,-0.88207 -1.47074,0 -2.85556,0.294 -4.15443,0.88207 -1.29883,0.58806 -2.42103,1.3914 -3.3665,2.41 -0.9455,1.0186 -1.69521,2.22619 -2.24912,3.62284 -0.55395,1.39661 -0.83091,2.88248 -0.83091,4.45766 0,1.57514 0.27688,3.06105 0.83091,4.45766 0.55391,1.39665 1.30362,2.60424 2.24912,3.62284 0.94547,1.0186 2.06767,1.82194 3.3665,2.41 1.29887,0.58803 2.68369,0.88207 4.15443,0.88207 z m 0,-4.18992 c -0.8977,0 -1.7334,-0.18369 -2.50695,-0.55128 -0.7736,-0.3674 -1.44214,-0.87157 -2.0056,-1.51212 -0.5635,-0.64059 -1.00757,-1.4019 -1.3323,-2.28396 -0.3248,-0.88214 -0.48705,-1.82722 -0.48705,-2.83529 0,-1.0291 0.1624,-1.97943 0.48705,-2.851 0.3248,-0.8716 0.7688,-1.62766 1.3323,-2.26825 0.56346,-0.64055 1.232,-1.1446 2.0056,-1.51212 0.77355,-0.3674 1.60925,-0.55132 2.50695,-0.55132 0.89773,0 1.73818,0.1837 2.52132,0.55132 0.78314,0.3674 1.45644,0.87157 2.0199,1.51212 0.56346,0.64059 1.00757,1.39665 1.33226,2.26825 0.3248,0.87157 0.48709,1.8219 0.48709,2.851 0,1.00807 -0.16241,1.95315 -0.48709,2.83529 -0.32481,0.88206 -0.7688,1.64337 -1.33226,2.28396 -0.56346,0.64055 -1.23676,1.1446 -2.0199,1.51212 -0.78314,0.36739 -1.62359,0.55128 -2.52132,0.55128 z m 51.77271,3.84336 v -14.74336 l 10.22849,14.74336 h 3.66738 v -22.05206 h -3.89656 v 14.27088 l -9.97063,-14.27088 h -3.95388 v 22.05206 z"
       id="COLLECTION"
       inkscape:connector-curvature="0"
       style="fill:#ffffff;fill-rule:nonzero;stroke:none;stroke-width:1.28384566" />
    <path
       id="path40"
       d="m 481.11684,305.80116 c 0.44272,-9.32922 7.7759,-15.10563 15.99457,-14.66136 5.32834,0.44462 13.99285,0.88797 19.32437,1.33258 11.99437,0.88795 14.88146,8.66417 13.99603,21.54708 -0.22451,5.77552 0.66404,6.44057 -4.44298,5.99841 -2.22299,0 -4.22153,-0.22299 -6.44457,-0.4446 -3.55431,-0.22174 -2.88709,-0.88921 -2.66264,-4.44293 0.22149,-2.44441 -1.33445,-7.10901 -6.22008,-7.3319 -2.21992,-0.22174 -4.22158,-0.44462 -6.22013,-0.44462 -4.22153,-0.44305 -8.66444,3.3336 -8.88583,8.22112 -0.44274,8.21834 -1.10994,18.65688 -1.77716,26.878 -0.2215,4.66462 3.10848,9.32894 7.10868,9.55183 1.77715,0.22173 2.66576,0.22173 4.44291,0.44335 4.88569,0.22174 7.5514,-3.77663 7.7759,-7.99667 0.2215,-1.55548 0.2215,-3.10941 0.44272,-4.66458 -0.66722,0 -1.33444,-0.22299 -1.77716,-0.22299 -3.77569,-0.22175 -3.10847,-0.22175 -2.88709,-3.99832 0,-1.55424 0.2215,-3.33112 0.2215,-4.88629 0.22144,-3.33235 0,-2.88774 3.33292,-2.6648 4.66431,0.22297 9.10728,0.66626 13.5502,0.88919 4.21841,0.2205 3.55119,0 3.32986,3.99834 -0.66722,11.10481 -1.33138,22.21213 -1.9986,33.31823 -0.22144,3.99956 0.44589,3.99956 -3.7757,3.77789 -2.44437,-0.22298 -4.88875,-0.22298 -7.55451,-0.4446 -2.88403,-0.2215 -2.44125,0 -2.21992,-2.88869 v -3.33235 h -1.77716 c -0.44584,0.4446 -1.10994,1.11087 -1.55271,1.5555 -4.44291,3.99829 -7.55451,3.77538 -13.32875,3.33203 -1.55581,0 -3.10849,-0.22299 -4.88878,-0.22299 -7.10868,-0.44334 -14.66013,-5.33057 -14.21424,-13.32753 1.10683,-16.88122 1.99853,-32.2098 3.10849,-48.86841"
       inkscape:connector-curvature="0"
       style="fill:#ffffff;fill-rule:evenodd;stroke-width:0.55694497" />
    <path
       id="path42"
       d="m 288.08138,330.90099 c -4.22034,-10.88315 -8.88494,-21.7688 -13.55047,-32.65474 -1.77593,-4.66428 -3.55277,-5.10765 1.99981,-5.33056 2.88742,0 5.77519,-0.22174 8.88712,-0.44335 4.66337,0 3.99707,-0.22174 5.1064,4.44292 1.5555,5.10796 3.3336,10.43854 5.33088,16.88251 0.66755,2.88649 1.55644,4.22031 2.22273,3.99737 0.88796,-0.22174 1.77655,-1.77718 2.8865,-4.44294 2.44439,-6.22007 3.99708,-10.4401 6.22007,-15.99356 1.55581,-3.77666 1.11307,-3.99833 5.11015,-3.55405 2.66576,0.22174 5.11014,0.22174 7.55139,0.44336 4.88566,0.4446 2.88713,1.55642 0.88859,5.55508 -4.88567,10.88437 -10.21715,22.21341 -15.10596,32.6544 -1.10995,2.66481 -1.55269,3.99707 -1.55269,6.88485 -0.22148,8.44128 -0.44585,17.10539 -0.66722,25.54572 -0.22148,3.7754 0.44587,3.7754 -3.33297,3.55373 -2.6642,0 -5.55163,-0.22174 -8.44061,-0.22174 -3.55371,-0.22299 -2.66482,-0.88889 -2.66482,-4.66587 0.22297,-8.21705 0.44459,-16.43661 0.66629,-24.65651 0.22299,-3.33204 0,-4.88628 -1.55518,-7.99662"
       inkscape:connector-curvature="0"
       style="fill:#ffffff;fill-rule:evenodd;stroke-width:0.55694497" />
    <path
       id="path48"
       d="m 240.32391,293.36012 c -3.55529,0.22174 -3.77695,0.22174 -3.55529,4.44293 1.99978,22.21464 3.77696,44.42678 5.77551,66.64014 0.22298,4.66462 1.11185,4.44293 5.33308,4.22002 10.21716,-0.66631 20.43526,-1.10963 30.65247,-1.77561 2.00106,0 4.88753,0.66598 4.88753,-2.22022 -0.22299,-3.7782 -0.66627,-7.55357 -0.88918,-11.33027 -0.22175,-1.11088 -0.22175,-1.77684 -0.22175,-2.22146 -0.22173,-1.33381 -0.66626,-1.5555 -2.66483,-1.33381 -6.88606,0.44458 -13.77336,0.89046 -20.6582,1.11212 -1.99975,0 -2.22145,-0.44585 -2.22145,-2.66729 0,-0.44336 -0.22249,-1.10934 -0.22249,-1.77563 -0.22298,-1.9998 -0.22298,-3.99833 -0.4446,-5.77552 0,-1.11181 -0.22298,-1.77809 -0.22298,-2.22145 0,-0.88766 0,-1.11058 0.89015,-1.33227 0.22174,0 0.88796,0 1.77592,-0.22174 4.88754,-0.22298 9.77472,-0.44585 14.66102,-0.66879 h 2.66606 c 1.11057,0 1.55518,-0.22149 1.55518,-1.55518 v -1.77435 c -0.22299,-2.22272 -0.44461,-4.44418 -0.66596,-6.66563 v -1.77684 c 0,-1.10966 -0.223,-1.55426 -1.77844,-1.33257 h -0.66596 c -5.33089,0.223 -10.66177,0.4446 -15.7719,0.66628 -1.55423,0.22298 -2.44314,0.22298 -3.10944,0.22298 -0.66628,-0.22298 -0.88888,-0.66629 -0.88888,-2.66732 0,-0.22175 -0.22175,-0.44461 -0.22175,-0.66628 -0.22174,-2.66453 -0.44459,-5.10766 -0.66629,-7.77373 0,-1.99853 -0.22174,-2.66481 0.22174,-2.88775 0.44461,-0.22174 1.11058,-0.22174 2.44315,-0.22174 5.77641,-0.4446 11.77326,-0.66724 17.77172,-0.88891 1.11059,-0.22298 1.99978,-0.22298 2.66606,-0.22298 1.99854,0 1.99854,-0.6663 1.55393,-4.22002 -0.22174,-3.10941 -0.44461,-6.22136 -0.66627,-9.1075 -0.22175,-1.11215 -0.22175,-1.77812 -0.22175,-2.44438 -0.22298,-1.10966 -0.44459,-1.33133 -1.77684,-1.33133 -0.4446,0 -1.11182,0 -1.77811,0.22174 -11.32776,0.4446 -22.43508,1.10966 -33.54112,1.55425"
       inkscape:connector-curvature="0"
       style="fill:#ffffff;fill-rule:evenodd;stroke-width:0.55694497" />
    <path
       id="path54"
       d="m 201.89526,291.80569 c 2.8865,0.22174 5.77396,0.44459 8.44,0.6663 1.11214,0.22173 1.99854,0.22173 2.66605,0.44335 0.88796,0.22299 1.10965,0.4446 1.10965,1.55518 -0.22174,0.66752 -0.22174,1.7781 -0.44335,2.88775 -0.44462,5.55348 -0.88922,9.55211 -1.55549,15.10563 -0.66472,5.99813 -0.4443,11.32898 3.77696,3.77542 2.88618,-5.1089 7.33035,-12.43959 10.43977,-17.7705 1.99978,-3.55371 1.55516,-4.44291 5.55379,-3.99829 3.10912,0.22175 6.2198,0.44461 9.32889,0.66752 4.22034,0.44431 2.44441,3.55247 -1.77685,10.44105 -5.33056,8.66294 -8.88583,14.65884 -13.99508,23.10135 -1.33225,2.22023 -1.77562,2.22023 -0.66596,4.66463 4.22124,10.88437 8.4425,21.76875 12.66125,32.43146 1.33351,3.77666 1.55641,4.66461 -0.44337,4.88628 -0.88888,0 -2.22144,-0.22175 -3.99832,-0.44337 -2.88775,-0.22173 -4.88753,-0.44459 -7.33067,-0.44459 -3.99832,-0.44304 -3.55496,-0.66722 -4.8872,-4.44168 -2.44315,-7.10991 -5.10798,-14.43936 -7.5524,-21.54832 -1.7756,-5.3309 -3.77663,-5.10922 -4.44292,0.66626 -0.66627,5.99685 -1.33256,13.32753 -1.99853,19.32566 -0.22174,0.89045 -0.22174,1.55642 -0.22174,1.99978 -0.223,1.77687 -0.44461,2.22019 -1.77813,1.99854 h -2.66481 c -2.66607,-0.44428 -5.55382,-0.66598 -8.21956,-0.88765 -0.88796,0 -1.55424,0 -2.22053,-0.22298 -1.11182,0 -1.55643,-0.4446 -1.55643,-1.11088 0,-0.66596 0.223,-1.77687 0.44461,-3.55371 2.22273,-21.77003 4.44292,-43.31623 6.66441,-65.08515 0.66627,-5.10922 -0.44335,-5.55383 4.66584,-5.10922"
       inkscape:connector-curvature="0"
       style="fill:#ffffff;fill-rule:evenodd;stroke-width:0.55694497" />
    <path
       id="path60"
       d="m 142.58285,293.80456 c 5.33088,-0.22248 10.44138,-0.66597 15.7719,-0.88888 3.99865,-0.22175 3.77696,-0.44335 5.33214,3.33328 3.10943,6.44023 5.11047,10.43887 7.99667,17.10322 2.88775,6.22108 2.88775,3.77663 2.66732,-1.77716 l -0.88891,-16.21495 c -0.22299,-3.7757 -0.4446,-3.33235 3.33081,-3.55404 2.44438,-0.22174 4.88629,-0.4446 7.33068,-0.66627 4.88628,-0.22249 3.77663,0.44461 3.99957,5.33214 1.33133,21.10159 2.4419,42.42573 3.77539,63.75127 0.22299,5.77646 1.77595,6.44146 -4.22124,6.88606 -3.99832,0.22175 -7.9979,0.44431 -11.77326,0.66598 -5.99718,0.4446 -5.33215,0.4446 -7.99572,-5.10891 -2.00102,-4.22031 -3.99832,-8.66322 -5.99936,-13.10614 -2.8865,-6.21851 -2.66359,-1.99854 -2.21895,5.55382 0.22173,4.66459 0.44335,3.55372 0.66598,8.21834 0.22173,4.88753 1.33131,5.3309 -3.77791,5.55384 -2.88775,0.22173 -5.99685,0.44584 -8.88461,0.66722 -4.44418,0.22173 -3.55497,0.22173 -3.77788,-4.22003 -1.33256,-22.65797 -2.66359,-45.09527 -3.99584,-67.75347 -0.22422,-3.33235 -0.89045,-3.55403 2.66328,-3.77571"
       inkscape:connector-curvature="0"
       style="fill:#ffffff;fill-rule:evenodd;stroke-width:0.55694497" />
    <path
       id="path70"
       d="m 432.91492,292.91568 c 5.33151,-0.44336 10.65993,-0.66506 15.99139,-1.10966 3.99709,-0.22174 3.55434,-0.4446 5.33153,3.33235 2.88711,6.6619 4.88565,10.66271 7.99728,17.10295 2.89025,6.22102 2.66575,3.77663 2.44438,-1.77563 l -0.66722,-16.21779 c -0.22148,-3.77414 -0.66722,-3.33078 3.1085,-3.55247 2.44438,-0.22174 5.11015,-0.44461 7.55451,-0.44461 4.88878,-0.4446 3.55434,0.44461 3.99707,5.10922 1.11308,21.3242 2.44439,42.42824 3.55434,63.75238 0.44585,5.99813 1.77718,6.44151 -4.21844,6.88735 -3.77882,0.22049 -7.7759,0.44335 -11.77298,0.66502 -5.99874,0.4446 -5.33151,0.4446 -7.7759,-4.88629 -1.99854,-4.44417 -4.0002,-8.88584 -6.22007,-13.10709 -2.88713,-6.44151 -2.44438,-2.22022 -1.99854,5.33182 0.2215,4.66461 0.2215,3.77569 0.44274,8.21861 0.22448,5.10923 1.5558,5.33184 -3.77571,5.77519 -2.89023,0 -5.77424,0.22299 -8.66138,0.44463 -4.44292,0.22174 -3.77883,0.22174 -4.00019,-4.22126 -1.33132,-22.65674 -2.66576,-45.09182 -3.77571,-67.74846 -0.22449,-3.33331 -0.88859,-3.33331 2.44439,-3.55621"
       inkscape:connector-curvature="0"
       style="fill:#ffffff;fill-rule:evenodd;stroke-width:0.55694497" />
    <path
       id="path76"
       d="m 405.36842,293.02723 c -8.21861,0 -15.55179,4.33148 -20.8802,10.99582 -5.556,6.8873 -8.88583,16.21529 -8.88583,26.65634 v 0.66626 c 0.22148,15.32857 7.7759,28.43321 18.21444,34.65423 1.99855,1.10963 4.0002,2.22021 6.22007,2.88647 2.2199,0.44588 4.44293,0.88891 6.88423,0.88891 h 0.44585 c 8.21861,-0.22173 15.54868,-4.44167 20.88332,-11.10732 5.32839,-6.66318 8.66139,-16.215 8.66139,-26.43339 v -0.88891 c -0.22148,-15.1059 -7.55452,-28.43349 -17.99306,-34.652 -1.99853,-1.11088 -3.99707,-2.00102 -6.22007,-2.66733 -2.21991,-0.66593 -4.33849,-0.88059 -6.88418,-0.99909 -0.29422,0.003 -0.27502,0.004 -0.44596,0 z m 1.99854,12.32926 5.11015,16.21523 h 16.66173 c 1.33133,0 1.99542,1.99981 0.88546,2.88778 l -13.55013,9.99515 5.33151,16.43946 c 0.44584,1.33227 -1.33132,2.66484 -2.66263,1.77562 l -13.32881,-9.99426 -13.55326,9.99426 c -1.10995,0.88922 -2.88712,-0.44335 -2.44439,-1.77562 l 5.11015,-16.43946 -13.32569,-9.99515 c -1.33443,-0.88797 -0.67034,-2.88778 0.88859,-2.88778 h 16.65861 l 5.11015,-16.21523 c 0.44274,-1.33351 2.66264,-1.33351 3.10849,0"
       inkscape:connector-curvature="0"
       style="fill:#ffffff;fill-rule:evenodd;stroke-width:0.55694497" />
    <path
       id="path82"
       d="m 342.72826,294.69233 c 2.88713,-0.22175 5.77424,-0.22175 8.44,-0.4446 h 2.66575 c 1.10995,0.22298 1.33132,0.66751 1.33132,1.77936 v 2.8865 c 0.2215,5.33215 0.44585,10.88566 0.66722,16.43817 0.2215,4.22128 2.88713,6.44146 5.33151,-0.22173 2.22303,-5.55383 4.44294,-11.10732 6.66285,-16.66117 1.55581,-3.77663 0.88859,-4.6646 4.88878,-4.88722 3.10848,0 6.21695,0 9.55305,-0.22173 4.21844,0 2.66263,3.33327 -0.44585,10.43977 -3.99708,9.3305 -6.66596,15.77318 -10.44166,24.65779 -1.10995,2.44315 -1.33131,2.44315 0,4.88753 5.55599,10.21682 11.33027,20.43654 17.10451,30.65342 1.99853,3.55497 2.22303,4.44293 0.22449,4.8875 h -4.00019 c -2.66577,0.22175 -4.88568,0.22175 -7.10868,0.44588 -4.21844,0 -3.77572,-0.22423 -5.55288,-3.7782 -3.55435,-6.88606 -7.10868,-13.77213 -10.66305,-20.65792 -1.5558,-3.10941 -4.44292,-3.33235 -4.22156,2.22147 0.22149,6.2198 0.44586,12.21665 0.66722,18.43644 0,0.8892 0.22449,1.55548 0.22449,2.22144 0,1.55676 -0.22449,1.99979 -1.55581,1.99979 -0.44585,0.22299 -1.33444,0.22299 -2.44438,0.22299 -2.88713,0 -5.55288,0.22175 -8.44,0.22175 h -2.22303 c -1.10995,0 -1.55581,-0.22175 -1.55581,-0.88765 -0.22148,-0.66878 -0.22148,-1.77841 -0.22148,-3.77819 -0.88546,-21.76881 -1.77405,-43.53756 -2.66575,-65.30682 -0.2215,-5.10888 -1.33133,-5.55475 3.77882,-5.55475"
       inkscape:connector-curvature="0"
       style="fill:#ffffff;fill-rule:evenodd;stroke-width:0.55694497" />
    <path
       id="path88"
       d="m 116.8169,293.02723 c -7.99789,0 -15.54901,4.33148 -20.881088,10.99582 -5.33184,6.8873 -8.662945,16.21529 -8.662945,26.65634 v 0.66626 c 0.221742,15.32857 7.552341,28.43321 17.993393,34.65423 1.99728,1.10963 4.21874,2.22021 6.21728,2.88647 2.22273,0.44588 4.44417,0.88891 6.8873,0.88891 h 0.22297 0.22175 c 8.21962,-0.22173 15.54901,-4.44167 20.87993,-11.10732 5.55474,-6.66318 8.88583,-16.215 8.88583,-26.43339 v -0.88891 c -0.22174,-15.1059 -7.5524,-28.43349 -18.21505,-34.652 -1.99729,-1.11088 -3.99707,-2.00102 -6.21857,-2.66733 -2.22144,-0.66593 -4.29523,-1.02231 -6.66441,-0.99909 -0.37174,0.0174 -0.39681,-0.0147 -0.66639,0 z m 1.99862,12.32926 5.11044,16.21523 h 16.65956 c 1.5555,0 2.22024,1.99981 0.88797,2.88778 l -13.32881,9.99515 5.11047,16.43946 c 0.44428,1.33227 -1.33381,2.66484 -2.44439,1.77562 l -13.54924,-9.99426 -13.32881,9.99426 c -1.10963,0.88922 -3.10941,-0.44335 -2.66481,-1.77562 l 5.32965,-16.43946 -13.550472,-9.99515 c -1.109652,-0.88797 -0.443379,-2.88778 0.890131,-2.88778 H 110.5971 l 5.10766,-16.21523 c 0.4446,-1.33351 2.66606,-1.33351 3.11069,0"
       inkscape:connector-curvature="0"
       style="fill:#ffffff;fill-rule:evenodd;stroke-width:0.55694497" />
    <path
       id="path94"
       d="m 43.2907,294.47067 c -0.889229,1.33348 -0.66629,4.21998 -0.444626,9.32916 0.666285,9.55216 1.110565,17.77172 1.553932,25.54668 0.667538,11.32898 1.333845,21.76908 1.999784,34.20739 0,1.11339 0.221747,2.88901 0.889212,3.77698 0.887982,1.11057 2.44314,1.77684 5.995624,1.55515 l 14.662635,-0.44458 h 0.444281 c 5.553794,-0.22173 11.773593,-3.10819 16.438175,-8.88584 4.886284,-5.77396 8.217389,-14.43841 7.77406,-26.21044 0,-0.44337 -0.221742,-0.88797 -0.221742,-1.5555 -0.889212,-17.77045 -8.218614,-30.65342 -17.771724,-36.20722 -1.776844,-0.89016 -3.775702,-1.77812 -5.775463,-2.2224 -1.998536,-0.4446 -3.99832,-0.66629 -5.998131,-0.66629 l -13.772135,0.44459 c -3.553715,0.22175 -5.329635,0.44337 -5.773904,1.33228 z m 14.658513,23.54718 c 0,-0.88921 0,-1.55672 0.222995,-2.00008 0.222979,-0.88764 0.890477,-1.55393 1.778109,-1.7756 0.444614,-0.22298 1.110876,-0.22298 1.778096,-0.22298 l 3.552803,-0.22175 c 0.667509,0 1.333482,0 1.778108,0.22175 h 0.442086 l 0.224248,0.22298 h 0.221731 c 0.444281,0.22174 1.110582,0.44336 1.553932,0.88796 l 0.221742,0.22175 c 0.222984,0 0.222984,0.22298 0.445851,0.22298 2.220211,1.99854 3.99832,5.55225 5.108907,10.66149 0.222978,0.88795 0.222978,1.77811 0.444598,2.88775 0.221742,1.11057 0.221742,2.22144 0.221742,3.11035 v 0.4446 0.223 c 0.222984,3.77538 -0.221742,7.1065 -0.88796,9.55088 -0.221497,0.44306 -0.221497,0.88891 -0.445533,1.33226 -0.222979,0.44461 -0.443351,0.88919 -0.665037,1.33224 -1.111807,2.22273 -2.44437,3.55404 -3.999584,4.44294 -0.222984,0 -0.666262,0.22173 -0.887926,0.22173 -0.444615,0.22299 -0.666301,0.22299 -1.110582,0.22299 h -0.221747 l -3.998319,0.22175 c -0.890449,0.22173 -1.555503,0 -2.22147,-0.22175 -0.666279,-0.4446 -1.110877,-0.88888 -1.333788,-1.55518 -0.221743,-0.4446 -0.44339,-1.10963 -0.44339,-1.55393 -0.222984,-0.44461 -0.222984,-0.66627 -0.222984,-0.88796 l -0.888879,-14.44058 -0.667554,-10.66305 v -2.88619"
       inkscape:connector-curvature="0"
       style="fill:#ffffff;fill-rule:evenodd;stroke-width:0.55694497" />
  </g>
</svg>
