<?xml version="1.0" encoding="UTF-8" standalone="no"?>
<!-- Created with Inkscape (http://www.inkscape.org/) -->

<svg
   xmlns:dc="http://purl.org/dc/elements/1.1/"
   xmlns:cc="http://creativecommons.org/ns#"
   xmlns:rdf="http://www.w3.org/1999/02/22-rdf-syntax-ns#"
   xmlns:svg="http://www.w3.org/2000/svg"
   xmlns="http://www.w3.org/2000/svg"
   xmlns:sodipodi="http://sodipodi.sourceforge.net/DTD/sodipodi-0.dtd"
   xmlns:inkscape="http://www.inkscape.org/namespaces/inkscape"
   width="500"
   height="200"
   viewBox="0 0 132.29166 52.916668"
   version="1.1"
   id="svg50"
   inkscape:version="0.92.5 (2060ec1f9f, 2020-04-08)"
   sodipodi:docname="dreamcast.svg">
  <defs
     id="defs44" />
  <sodipodi:namedview
     id="base"
     pagecolor="#ffffff"
     bordercolor="#666666"
     borderopacity="1.0"
     inkscape:pageopacity="0.0"
     inkscape:pageshadow="2"
     inkscape:zoom="1.1340553"
     inkscape:cx="475.71736"
     inkscape:cy="72.222567"
     inkscape:document-units="mm"
     inkscape:current-layer="layer1"
     showgrid="false"
     units="px"
     inkscape:pagecheckerboard="true"
     inkscape:window-width="1366"
     inkscape:window-height="743"
     inkscape:window-x="0"
     inkscape:window-y="0"
     inkscape:window-maximized="1" />
  <metadata
     id="metadata47">
    <rdf:RDF>
      <cc:Work
         rdf:about="">
        <dc:format>image/svg+xml</dc:format>
        <dc:type
           rdf:resource="http://purl.org/dc/dcmitype/StillImage" />
        <dc:title />
      </cc:Work>
    </rdf:RDF>
  </metadata>
  <g
     inkscape:label="Layer 1"
     inkscape:groupmode="layer"
     id="layer1"
     transform="translate(0,-244.08332)">
    <g
       id="Page-1"
       style="fill:#ffffff;fill-rule:evenodd;stroke:none;stroke-width:1"
       transform="matrix(0.27094413,0,0,0.27094413,0.12285966,259.73681)">
      <g
         id="mainlogo"
         style="fill-rule:nonzero;fill:#ffffff">
        <g
           id="Group"
           transform="translate(103.2,10.32)"
           style="fill:#ffffff">
          <polygon
             id="Path"
             points="373.30365,56.882121 377.98549,56.882121 377.98549,57.560661 376.03673,57.560661 376.03673,62.846221 375.26875,62.846221 375.26875,57.560661 373.30365,57.560661 "
             style="fill:#ffffff" />
          <polygon
             id="polygon5"
             points="379.83449,56.882121 381.55449,61.952681 383.27277,56.882121 384.35981,56.882121 384.35981,62.846221 383.57721,62.846221 383.57721,58.000121 381.94751,62.846221 381.16147,62.846221 379.53349,58.000121 379.53349,62.846221 378.74745,62.846221 378.74745,56.882121 "
             style="fill:#ffffff" />
          <path
             d="m 2.41918,6.3158401 c 0,-2.07174 -0.39388,-4.7549401 -1.30892,-5.88326009 5.9967801,0 18.95354,0.03956 24.50742,0.03956 12.778741,0 32.058221,7.09242009 32.058221,31.00471999 0,17.746101 -13.61036,30.966881 -32.058221,30.966881 -4.0463,0 -19.4961999,-0.04988 -24.97783999,-0.04988 C 1.763,60.320401 2.41918,57.504761 2.41918,55.282521 Z M 11.61,56.366981 c 5.89788,0.76712 11.34254,1.0019 16.26862,0.29842 4.76612,-0.68198 20.781901,-4.1323 20.682141,-25.394941 C 48.467021,11.1198 36.021101,6.5127801 26.4321,5.9494801 c -5.00434,-0.29498 -9.83496,-0.10578 -14.82296,0.75766 z"
             id="Shape"
             inkscape:connector-curvature="0"
             style="fill:#ffffff" />
          <path
             d="m 62.940821,19.47212 9.18136,-1.43362 c 0,1.87996 0,7.39256 0,8.084 2.35468,-5.81962 9.68274,-10.4963 20.094761,-6.44398 l -2.44068,6.39238 C 80.245741,21.5473 72.122181,25.51534 72.122181,36.099361 v 21.83884 c 0,1.03974 0.22704,3.13728 0.8471,4.48318 h -9.53654 c 0.9632,-1.18766 1.4104,-3.44344 1.4104,-4.48318 V 26.4364 c -0.0026,-2.28502 -0.4687,-5.8222 -1.90232,-6.96428 z"
             id="path8"
             inkscape:connector-curvature="0"
             style="fill:#ffffff" />
          <path
             d="m 353.21835,23.85468 c 0,0.59598 0,25.996941 0,27.893241 0,8.75738 6.03634,11.0983 10.50834,11.0983 1.88942,0.09202 4.56918,-0.34916 6.43968,-0.76454 l 1.15068,-5.4051 c -2.1801,0.8342 -4.71366,1.02942 -6.235,1.02942 -2.8036,0 -4.83062,-1.86104 -4.83062,-4.77214 0,-2.61182 -0.0662,-28.215741 0,-29.034461 h -0.0292 c 0.37152,0 6.18856,-0.02064 6.77594,0 1.90662,0.06708 3.3712,0.18318 4.63282,0.69058 l 0.007,-5.09034 c 0,0 -11.1671,-0.01462 -11.38554,-0.01462 l 0.0456,-13.0556599 -8.46068,2.3383401 c 1.16616,1.09134 1.54542,4.2845198 1.54542,6.3906598 0,0 -0.007,3.90096 -0.007,4.37138 -0.37926,0 -4.67668,0.0215 -5.3879,0.0215 v 4.30086 c 0.75078,0 5.23052,0.0026 5.23052,0.0026 z"
             id="path10"
             inkscape:connector-curvature="0"
             style="fill:#ffffff" />
          <path
             d="m 316.64598,53.350961 c 3.63694,2.59806 9.34476,4.90458 13.53038,4.90458 5.80673,0 9.96569,-2.8251 9.96569,-8.14334 0,-9.81604 -22.37893,-8.18892 -22.37893,-20.643441 0,-8.42112 7.53017,-11.58936 14.70601,-11.58936 2.30738,0 7.57316,0.50052 10.91942,1.79568 l -0.0267,5.75168 c -2.97474,-2.5413 -7.5121,-3.15534 -10.50318,-3.15534 -4.74807,0 -8.31449,2.3564 -8.31449,6.97632 0,6.782821 22.36173,6.389801 22.36173,20.314061 0,9.00506 -7.8002,13.20444 -16.38731,13.20444 -4.1839,0 -8.54753,-0.74132 -12.1776,-1.78106 l -1.69506,-7.63422 z"
             id="path12"
             inkscape:connector-curvature="0"
             style="fill:#ffffff" />
          <path
             d="m 181.55202,23.94154 c 0,-0.50912 0.0181,-5.0697 0.0181,-5.65364 l -9.29574,1.43706 c 1.12058,1.1739 1.98058,4.83578 1.98058,7.45362 v 30.456041 c 0,1.03974 -0.44634,3.56298 -1.41126,4.74806 h 10.13424 c -0.96148,-1.18766 -1.40782,-3.70918 -1.40782,-4.74806 v -22.9147 c 0,-8.385001 5.18666,-11.321041 10.3501,-11.321041 4.67324,0 8.89584,2.02272 8.89584,11.321041 v 22.91556 c 0,1.03974 -0.4472,3.56212 -1.40782,4.74806 h 9.82808 c -0.96578,-1.18766 -1.40782,-3.70918 -1.40782,-4.74806 v -22.91556 c 0,-9.297461 5.74308,-11.321041 10.42578,-11.321041 4.6698,0 9.55546,2.93346 9.55546,11.321041 v 22.91556 c 0,1.03974 -0.4429,3.56212 -1.41212,4.74806 h 9.46688 c -0.96922,-1.18766 -1.40954,-3.70918 -1.40954,-4.74806 V 30.36832 c 0,-4.64744 -4.74376,-12.09418 -15.81626,-12.09418 -6.44312,0 -10.16348,2.86638 -12.98858,5.332 -2.40198,-2.8036 -6.3124,-5.432621 -12.59642,-5.432621 -6.11976,-0.0026 -9.73434,3.586201 -11.50164,5.768021 z"
             id="path14"
             inkscape:connector-curvature="0"
             style="fill:#ffffff" />
          <path
             d="m 159.63406,38.229581 c -1.32698,1.24958 -4.10478,2.21794 -6.97202,2.59634 -7.53532,0.98642 -14.06272,2.23944 -14.06272,9.57782 0,4.35418 4.7472,7.78128 8.50626,7.78128 9.95708,0 12.5302,-7.18358 12.5302,-12.8441 v -7.11134 h -0.002 z M 136.11134,20.2702 c 3.80034,-1.52306 9.93214,-2.22138 13.77806,-2.22138 9.8212,0 16.34688,4.9063 16.34688,16.297001 v 18.89592 c 0,3.49934 0.0533,6.81464 1.30032,9.14266 h -7.89308 l -0.28552,-4.9708 c -2.98678,3.85882 -6.55922,5.5857 -12.62136,5.5857 -11.9626,0 -14.57356,-8.17258 -14.57356,-12.09934 0,-14.01542 13.34032,-14.1771 19.13414,-15.00442 3.20608,-0.45236 7.32806,-1.3588 7.94984,-4.363641 1.02168,-4.9708 -2.53012,-8.69804 -9.7911,-8.69804 -5.32942,0 -9.69478,1.6211 -13.34204,3.80292 l -0.003,-6.36658 z m 169.68058,17.959381 c -1.32526,1.24958 -4.10478,2.21794 -6.97373,2.59634 -7.53361,0.98642 -14.05928,2.23944 -14.05928,9.57782 0,4.35418 4.74375,7.78128 8.50282,7.78128 9.95535,0 12.53019,-7.18358 12.53019,-12.8441 z M 282.27179,20.2702 c 3.79947,-1.52306 9.93815,-2.22138 13.77977,-2.22138 9.81605,0 16.34172,4.9063 16.34172,16.297001 v 18.89592 c 0,3.49934 -0.76281,6.74326 1.29688,9.14266 h -7.89135 l -0.28724,-4.9708 c -2.99109,3.85882 -6.5575,5.5857 -12.61964,5.5857 -11.95573,0 -14.57099,-8.17258 -14.57099,-12.09934 0,-14.01542 13.34033,-14.1771 19.13156,-15.00442 3.20694,-0.45236 7.33323,-1.3588 7.94812,-4.363641 1.0234,-4.9708 -2.52925,-8.69804 -9.79109,-8.69804 -5.3277,0 -9.69306,1.6211 -13.34119,3.80292 v -6.364 l 0.003,-0.0026 z"
             id="path16"
             inkscape:connector-curvature="0"
             style="fill:#ffffff" />
          <path
             d="m 273.86786,26.06488 c -2.96098,-1.73032 -7.63594,-3.1003 -10.8962,-3.1003 -11.44832,0 -16.69432,7.039101 -16.69432,17.179361 0,10.0448 5.1299,17.7375 16.32538,17.7375 3.83732,0 9.0601,-1.72516 13.115,-4.21572 l -1.64948,7.38998 c -4.12714,1.22808 -7.60412,1.81288 -12.20684,1.81288 -15.7337,0 -23.10906,-11.16022 -23.10906,-22.77194 0,-12.832061 9.89344,-21.858621 23.28192,-21.858621 5.8523,0 10.12307,1.43448 11.84736,1.92468 l -0.0138,5.90218 z"
             id="path18"
             inkscape:connector-curvature="0"
             style="fill:#ffffff" />
          <path
             d="m 97.735562,40.681441 c 0.0069,-1.06124 0.14792,-2.0726 0.2666,-3.053 h 30.444858 c 0,-10.465341 -5.23482,-19.442881 -17.6343,-19.442881 -12.869898,0 -20.510999,10.06458 -20.510999,22.901801 0,11.60828 8.506261,21.9816 23.075519,21.9816 4.60616,0 8.45724,-1.13434 12.61534,-2.59032 l 1.46286,-7.4218 c -3.5561,2.92744 -9.30262,4.65948 -14.49014,4.65948 -9.32326,0 -15.270158,-6.75014 -15.229738,-17.03488 z m 1.23066,-7.695281 c 0.98814,-5.0912 5.700078,-10.27872 11.338238,-10.27872 8.61548,0 11.10862,6.72262 11.10862,10.27872 -0.002,0 -22.446858,0.01634 -22.446858,0 z"
             id="path20"
             inkscape:connector-curvature="0"
             style="fill:#ffffff" />
        </g>
        <path
           d="m 55.949881,1.10768 c 3.41334,0.51256 6.90236,1.7062401 8.72126,2.2618001 3.66446,1.11972 9.61222,4.60186 11.71406,6.2702601 0.99502,0.7894798 3.0831,2.8577798 3.89408,3.8983798 0.78862,1.01394 2.29362,3.21038 3.25338,4.56488 1.53166,2.23342 3.33164,5.56076 4.857281,8.6215 1.706239,3.42108 1.8232,4.4118 2.340059,7.271301 l 1.12746,5.04132 c 0.10578,0.87204 0.195221,4.06866 -1.68302,4.51586 -1.875659,0.44806 -3.61114,-0.41538 -4.429,-1.6813 -1.13176,-1.75096 -0.97438,-4.23636 -2.25578,-7.08124 -0.99846,-2.299641 -1.43276,-5.642461 -3.02806,-8.045301 l -1.24958,-2.11388 c -2.21278,-3.4056 -4.51758,-6.10858 -5.89186,-7.87158 -1.21346,-1.48178 -3.4744,-3.49504 -5.61666,-4.92694 -1.98316,-1.20228 -5.18752,-2.5739798 -7.49834,-3.2791799 -0.73616,-0.23994 -3.89064,-1.16702 -5.848,-1.4276 -2.65998,-0.29842 -4.40836,-0.71896 -6.93418,-0.89698 -3.1218,-0.22016 -4.61562,-0.49708 -8.66364,-0.02408 -1.53338,0.41624 -3.9603,0.58136 -6.14642,1.41642 -1.76558,0.71982 -4.219161,1.8825401 -6.624581,3.2955199 -2.59032,1.41986 -6.51708,4.32236 -9.12374,6.80002 -2.62644,2.80618 -3.94052,4.31204 -5.75082,7.869 -0.80066,1.75956 -2.3529598,4.48318 -2.9790399,6.40442 -0.42742,1.951341 -1.24098,5.590001 -1.10596,7.358161 0.06278,3.16566 -0.215,3.8184 0.02322,6.407 0.0086,2.3306 0.77314,3.94568 1.0922,5.85316 0.2709,1.3158 1.5368201,5.87208 2.3168399,6.93332 3.55094,7.654 8.3205,10.9693 13.63616,13.36182 1.49812,0.76368 6.184261,2.01756 7.53962,2.37618 2.313401,0.4171 5.355221,0.6966 8.284381,0.7525 3.08138,0.05934 7.32892,-0.35604 9.90462,-1.30634 2.78984,-1.02598 6.01742,-2.48626 5.97958,-2.4424 1.29344,-0.71552 3.26972,-1.88082 3.88376,-2.39166 1.18938,-0.7611 1.90662,-1.05608 2.60924,-1.7888 1.01824,-0.88838 1.63228,-1.40094 2.40284,-2.5026 0.42742,-0.62006 1.11112,-1.57122 1.77074,-2.4123 0.7138,-1.1696 1.12402,-2.40198 1.81976,-3.92504 0.83248,-2.25578 0.70348,-2.14656 0.86258,-4.53822 0.1505,-0.69402 -0.0172,-3.02634 -0.14104,-3.42194 -0.37582,-2.15172 -0.24338,-4.04974 -0.73616,-6.13954 -0.66306,-2.82682 -1.21862,-4.94242 -2.06572,-7.65314 -0.79894,-3.05214 -3.14416,-5.880681 -4.90372,-7.901681 -1.09048,-1.25302 -4.47286,-4.2097 -9.16588,-6.05698 -1.32268,-0.44462 -3.483,-0.94858 -4.85642,-1.1997 -2.9326,-0.30616 -3.4099,-0.10922 -6.21694,0.09546 -0.96664,0.16856 -3.20866,0.62694 -4.03512,0.91676 -2.41144,0.8471 -3.2981,1.38546 -5.763721,2.89476 -1.14724,0.6665 -2.0124,1.17648 -3.1863,2.27556 -0.93654,0.86688 -1.60648,2.3392 -2.36328,3.2035 -1.03974,1.413841 -2.19644,3.298961 -2.97216,5.332861 -0.84108,2.02358 -1.11198,4.87104 -0.98298,6.7037 0,1.39406 0.37926,3.95428 0.52976,4.51156 0.15136,0.559 0.52976,2.2962 0.6106,2.64536 0.08342,0.3483 0.9847,2.18526 1.11112,2.45358 0.50998,1.08446 1.48436,2.63934 3.12438,4.23034 1.21346,1.3244 3.554381,2.623 5.309641,3.1261 1.57208,0.86516 4.22432,1.00964 5.6932,1.01308 0.72154,-0.04558 2.56624,-0.15824 3.52858,-0.38786 1.95306,-0.4687 2.31168,-0.4816 4.32408,-1.3545 1.806,-0.83764 3.02978,-1.1395 4.28796,-2.06658 0,0 1.72602,-1.35192 2.51034,-2.34264 0.41366,-0.51944 1.12316,-3.01 0.99846,-4.55198 -0.05934,-2.10958 0.24854,-3.3067 -0.18404,-5.04218 -0.43,-1.73634 -1.16444,-3.74788 -1.96166,-4.988 -0.80754,-1.2556 -2.54216,-2.47852 -4.51586,-3.45462 -1.10768,-0.54696 -3.72638,-1.05264 -4.83922,-1.18336 -2.10958,-0.25112 -3.87516,0.70778 -4.94758,1.80342 -0.93052,1.06296 -2.7692,3.27058 -2.03734,5.55302 0.66306,2.064 1.46458,4.26474 4.56144,4.1022 2.12678,0.44376 4.5838,-0.19694 5.40338,0.17802 1.21518,0.69058 1.6813,2.21278 1.24098,3.27746 -0.30874,2.04938 -2.27298,2.29448 -4.36536,2.45272 -1.8748,0.3139 -6.6349,-0.60372 -7.6798,-1.38718 -0.70176,-0.41624 -1.777621,-1.41642 -2.533561,-2.0941 -0.54438,-0.48848 -1.15756,-1.57208 -1.579819,-2.35124 -0.514281,-0.95804 -0.776581,-1.66238 -0.909021,-2.28502 -0.1591,-0.7396 -0.48332,-2.15516 -0.36034,-3.56814 0.08514,-0.95288 0.33884,-1.36052 0.59168,-2.75458 0.50654,-1.5824 1.1352,-2.78554 2.14828,-4.15724 1.317521,-1.338161 2.991941,-2.930881 4.626801,-3.671341 1.44136,-0.76196 3.96718,-1.04146 6.25048,-0.90816 1.85416,0.17716 4.04372,0.40334 5.49454,0.88838 2.48024,0.8858 3.18888,1.06296 5.22622,2.347801 1.71914,1.06382 3.45032,3.02376 4.41696,4.64572 2.0554,4.2054 3.2336,8.88208 2.37704,15.18158 -0.06966,1.06296 -0.40076,2.10098 -1.06382,3.51224 -0.61404,1.29946 -1.6856,2.881 -3.30068,4.06952 -0.64844,0.60114 -1.67356,1.34246 -2.5069,1.77418 -1.1825,0.71724 -1.97714,1.09134 -3.21038,1.71054 -1.0836,0.51084 -2.3478,1.0922 -3.99556,1.54972 -1.78536,0.70606 -3.1562,0.73444 -5.40166,1.06898 -2.20848,0.55556 -8.257721,0.16082 -11.86112,-1.42932 -2.457021,-1.03458 -5.215041,-2.85606 -7.314301,-5.07744 -1.16444,-1.22292 -2.30566,-3.43656 -2.63934,-3.88978 -1.6684,-3.20694 -1.99434,-6.22038 -2.26266,-6.85678 -0.36292,-0.86 -0.54266,-2.78984 -0.78776,-4.10994 -0.27434,-1.48264 -0.10492,-7.68926 1.39062,-11.67278 0.84366,-1.586701 1.3373,-3.001401 1.90662,-3.743581 1.02598,-1.45856 1.52134,-2.3693 2.39252,-3.40302 1.31408,-1.59272 2.2704,-2.89304 3.54922,-3.81066 3.26198,-2.65138 5.98474,-4.05146 9.670701,-5.80156 4.57864,-1.86448 5.95378,-1.4792 10.28904,-1.40954 1.94962,0.0172 4.78676,0.63038 6.18254,0.88322 2.59032,0.34486 4.07468,0.96922 5.82478,1.4577 1.87308,0.52288 2.95496,1.3588 4.49436,2.28674 1.2642,0.81614 2.75372,1.93586 3.7367,2.84488 2.51722,1.84556 3.72982,3.78486 5.27266,6.167061 0.28122,0.399039 2.1113,4.301719 2.40284,5.38876 0.13588,0.54438 0.54868,2.10614 0.81614,3.01946 0.34056,1.4491 0.50826,2.73136 0.89096,4.36708 0.34056,1.68302 0.92192,4.86072 1.17304,7.83202 0.4257,2.5499 -0.25456,7.75376 -0.6536,9.34906 -0.8901,2.97818 -2.451,6.6134 -5.52808,10.11532 -1.30634,1.55144 -2.6961,2.75114 -4.30258,4.05662 -1.22722,1.02254 -2.28158,1.62196 -4.18046,2.75372 -2.57656,1.53768 -4.53736,2.52066 -8.15022,3.93278 -1.4706,0.47214 -3.32476,1.09306 -5.32168,1.505 -3.86914,0.35088 -7.84578,0.6923 -12.18534,0.17716 -4.34042,-0.51772 -8.687721,-1.73978 -11.256541,-2.52754 -1.41814,-0.53148 -4.16326,-1.6813 -5.31308,-2.3048 -0.74992,-0.3784 -3.26198,-2.09668 -3.68768,-2.50948 -1.72,-1.06382 -5.5719398,-4.68614 -8.0590599,-8.0625 -0.54438,-1.04662 -2.50346,-4.17444 -2.92916,-5.54528 C 3.1691001,57.984641 2.38134,55.178461 1.91952,53.979621 1.43104,51.181181 0.60544001,49.380341 0.28380001,46.574161 0.31992001,45.913681 0.15136,44.357941 0,43.497081 c 0.21844,-1.9221 -0.07396,-3.73154 0.30788001,-5.82478 0.3354,-1.76558 0.77743999,-2.5026 0.88407999,-4.09876 0.10406,-0.682841 0.98126,-2.73652 1.2169,-3.650701 0.7103601,-1.505 0.8858001,-2.74426 1.8120201,-4.42642 1.33214,-2.62128 2.72792,-5.63644 4.86932,-8.27062 0.6123201,-0.817 2.3469399,-2.77608 2.9377599,-3.45462 1.3975,-1.3975 2.21708,-1.61766 3.80206,-3.0186 0.1634,-0.1032 1.21174,-1.2968798 2.3091,-1.7070998 1.81546,-1.4035201 3.38582,-1.9178001 5.11528,-3.1949001 3.46494,-1.72688 4.727421,-2.30996 8.16742,-3.7418601 1.989181,-0.7095 4.759241,-1.1008 5.756841,-1.48779999 1.89974,-0.11782 3.82786,-0.72326001 5.82478,-0.60372001 2.24202,-0.02064 4.50124,0.13932 6.7553,0.34400001 1.51876,0.08772 3.50192,0.16168 6.19114,0.74647999 z"
           id="path23"
           inkscape:connector-curvature="0"
           style="fill:#ffffff" />
      </g>
    </g>
  </g>
</svg>
