<?xml version="1.0" encoding="UTF-8" standalone="no"?>
<!-- Created with Inkscape (http://www.inkscape.org/) -->

<svg
   xmlns:dc="http://purl.org/dc/elements/1.1/"
   xmlns:cc="http://creativecommons.org/ns#"
   xmlns:rdf="http://www.w3.org/1999/02/22-rdf-syntax-ns#"
   xmlns:svg="http://www.w3.org/2000/svg"
   xmlns="http://www.w3.org/2000/svg"
   xmlns:sodipodi="http://sodipodi.sourceforge.net/DTD/sodipodi-0.dtd"
   xmlns:inkscape="http://www.inkscape.org/namespaces/inkscape"
   width="500"
   height="200"
   viewBox="0 0 132.29166 52.916668"
   version="1.1"
   id="svg8"
   inkscape:version="0.92.5 (2060ec1f9f, 2020-04-08)"
   sodipodi:docname="dukenukem_.svg">
  <defs
     id="defs2" />
  <sodipodi:namedview
     id="base"
     pagecolor="#ffffff"
     bordercolor="#666666"
     borderopacity="1.0"
     inkscape:pageopacity="0.0"
     inkscape:pageshadow="2"
     inkscape:zoom="1.596875"
     inkscape:cx="269.53686"
     inkscape:cy="128.2594"
     inkscape:document-units="mm"
     inkscape:current-layer="layer1"
     showgrid="false"
     units="px"
     inkscape:pagecheckerboard="true"
     inkscape:window-width="1366"
     inkscape:window-height="739"
     inkscape:window-x="0"
     inkscape:window-y="0"
     inkscape:window-maximized="1" />
  <metadata
     id="metadata5">
    <rdf:RDF>
      <cc:Work
         rdf:about="">
        <dc:format>image/svg+xml</dc:format>
        <dc:type
           rdf:resource="http://purl.org/dc/dcmitype/StillImage" />
        <dc:title></dc:title>
      </cc:Work>
    </rdf:RDF>
  </metadata>
  <g
     inkscape:label="Layer 1"
     inkscape:groupmode="layer"
     id="layer1"
     transform="translate(0,-244.08332)">
    <path
       inkscape:connector-curvature="0"
       id="path79"
       style="fill:#ffffff;fill-opacity:1;stroke-width:0.18118283"
       d="m 12.914068,257.80729 c -2.097946,-0.002 -3.2913312,0.005 -4.0075445,0.0396 -0.04946,0.1031 -0.1033397,0.20423 -0.1490501,0.30894 -0.022414,0.0514 -0.034807,0.10634 -0.055826,0.15827 -0.01546,0.0382 -0.1426041,0.31824 -0.1663937,0.38156 -0.013573,0.0362 -0.021987,0.0736 -0.033062,0.11057 -0.056836,0.17079 -0.1513969,0.3218 -0.2509458,0.46992 -0.022708,0.0338 -0.048088,0.0663 -0.068834,0.10135 -0.00661,0.0112 0.032131,-0.0408 0.026016,-0.0293 -0.032261,0.061 -0.070066,0.11891 -0.1051478,0.17832 -0.01206,0.0198 -0.023152,0.04 -0.036314,0.0591 -0.1398608,0.20287 -0.051409,0.0708 -0.2471518,0.28346 -0.00472,0.005 0.022722,-0.0149 0.019511,-0.009 -0.027909,0.0538 -0.076197,0.0837 -0.036856,0.058 -0.1366442,0.23487 0.080858,-0.13921 -0.0542,0.14037 -0.012152,0.0252 -0.0165,0.0318 -0.026016,0.051 0.046081,0.0633 0.014219,0.15844 -0.1322477,0.29973 -0.00447,0.0203 5.272e-4,-0.002 -0.016259,0.0883 -0.00671,0.0363 -0.013586,0.0729 -0.017885,0.10949 -8.602e-4,0.007 0.00457,0.015 0.00272,0.0222 -0.067818,0.26375 -0.059723,0.23363 -0.1257439,0.40975 -0.018912,0.1131 -0.073284,0.21475 -0.1170719,0.31924 -0.013456,0.034 -0.026651,0.068 -0.040108,0.10189 -0.00524,0.0177 -0.0091,0.0359 -0.015718,0.0531 -0.019006,0.0491 -0.040878,0.0967 -0.061246,0.14526 -0.066014,0.15018 -0.1779321,0.27433 -0.2379378,0.42709 -7.77e-4,0.002 0.00325,0.003 0.00325,0.005 -1.093e-4,0.007 -0.00244,0.0156 -0.00379,0.0233 -0.023133,0.0786 -0.054577,0.154 -0.088888,0.22819 0.1761222,0.008 0.3495193,0.0259 0.5105636,0.0938 0.1180692,0.0497 -0.023266,0.25504 -0.034688,0.38265 -0.1796798,0.44737 -0.029536,0.0983 -0.2390217,0.52466 -0.1052253,0.23083 -0.039507,0.0931 -0.149592,0.31219 -0.00912,0.0183 -0.0166,0.0372 -0.027101,0.0547 -0.028339,0.0473 -0.059664,0.0928 -0.08943,0.1393 0.080538,-0.0633 0.022217,-0.004 -0.0542,0.0672 -0.01201,0.0353 -0.024676,0.0701 -0.037398,0.10514 -0.036961,0.10174 -0.075421,0.20323 -0.1132778,0.30461 -0.031448,0.068 -0.066593,0.13421 -0.094308,0.20379 -0.037444,0.094 -0.067776,0.19052 -0.1008119,0.28617 -0.1043547,0.30216 -0.1649529,0.51502 -0.3008096,0.80596 -0.017932,0.0384 -0.041967,0.0735 -0.064498,0.10948 1.291e-4,0.0423 6.106e-4,0.0846 5.551e-4,0.12683 -0.045116,0.12505 -0.088301,0.31908 -0.1772339,0.46341 0.00108,0.003 -9.158e-4,0.0137 -0.00325,0.0201 -0.019314,0.0529 -0.041122,0.1048 -0.061788,0.15718 0.02877,-0.0515 0.042278,-0.0745 -0.013007,0.0331 0.00418,-0.0111 0.00866,-0.022 0.013007,-0.0331 -0.018207,0.0326 -0.027539,0.0482 -0.054742,0.0976 -0.00278,0.13712 -0.012271,0.0895 -0.1642256,0.42493 0.038857,-0.0299 0.1287354,-0.23837 0.036314,-0.0255 -0.00796,0.0183 0.028299,-0.0747 0.023305,-0.0553 -0.027467,0.10666 -0.068764,0.16295 -0.1257439,0.24878 -0.00236,0.005 -0.00519,0.009 -0.00759,0.0136 -0.00348,0.0117 -0.00326,0.0162 -0.00596,0.0238 -0.016373,0.0467 -0.036042,0.0918 -0.053116,0.13821 0.00417,-0.008 0.00835,-0.0162 0.012466,-0.0244 -0.00527,0.0116 -0.02056,0.0466 -0.016259,0.0347 0.00125,-0.003 0.00253,-0.007 0.00379,-0.0103 -0.012837,0.025 -0.025086,0.0503 -0.03794,0.0753 -9.713e-4,0.003 -0.00175,0.005 -0.00272,0.008 0.070151,0.14997 0.1132779,0.34162 0.1132779,0.57669 v 1.1485 c 0.00513,0.18127 -0.00153,0.35243 -0.04336,0.53224 -0.020544,0.0883 -0.052448,0.17382 -0.086178,0.25799 -0.064016,0.15974 -0.1507584,0.30127 -0.2352277,0.45041 -0.0023,0.11772 -0.052286,0.22671 -0.073712,0.34037 -0.00283,0.015 0.0068,0.0304 0.00434,0.0455 -0.034199,0.20924 -0.056551,0.27099 -0.110568,0.46178 -0.1242301,0.26503 -0.085514,0.20557 -0.2189677,0.4168 -0.027897,0.0442 -0.058351,0.0866 -0.085636,0.13116 -0.00119,0.002 -2.092e-4,0.008 0.00164,0.006 0.00564,-0.004 0.015127,-0.0247 0.012466,-0.0179 -0.012404,0.0317 -0.026868,0.0626 -0.04065,0.0938 0.00103,0.10857 0.00722,0.12558 -0.041192,0.28238 0.00111,-8.6e-4 0.00365,-0.004 0.00325,-0.002 -0.065029,0.21644 -0.023641,0.0763 -0.1002699,0.27588 -0.00449,0.0117 -0.014633,0.0481 -0.010298,0.0363 0.036202,-0.0981 0.021396,-0.0787 0.024931,-0.22113 -0.038053,-0.12751 -0.05867,-0.19964 -0.083468,-0.24282 0.00907,0.0698 0.018501,0.13955 0.018429,0.21897 -1.3e-5,0.0144 -4.3e-5,0.0219 0,0.0352 v 0.0921 c 0,0.019 0.018978,0.0559 0,0.0569 -0.00144,0.0829 -0.012096,0.12686 -0.040108,0.14959 0.3057423,0.12825 0.4475395,0.22203 0.00596,0.19024 -0.068026,-0.005 -0.1104173,-0.002 -0.1685619,-0.004 -0.033807,0.12578 -0.083271,0.23103 -0.1436298,0.31598 0.012757,0.15905 -0.017602,0.36062 -0.1078579,0.60704 -0.023632,0.0644 -0.048919,0.12845 -0.071002,0.19349 -0.010015,0.0295 -0.017022,0.06 -0.025475,0.09 -0.01967,0.0592 -0.03849,0.11889 -0.059078,0.17777 -0.042389,0.12124 -0.092133,0.23758 -0.14092,0.3561 -0.023127,0.0466 -0.044115,0.0939 -0.069376,0.13929 -0.1018858,0.18329 -0.08615,0.12798 -0.150676,0.2607 -0.043235,0.0889 -0.070494,0.18506 -0.1035216,0.27805 -0.0228,0.0531 -0.045493,0.10575 -0.068292,0.1588 -0.00445,0.0121 -0.00875,0.0244 -0.013551,0.0363 -0.00941,0.0235 -0.00433,0.074 -0.029268,0.0699 -6.383e-4,-10e-5 7.99e-5,-10e-4 -5.55e-4,-0.002 -0.017597,0.0451 -0.039041,0.10012 -0.04607,0.11599 0.00431,0.10524 -0.0136,0.23173 -0.050948,0.3252 0.00508,-0.036 0.023061,-0.14334 0.015177,-0.10786 -0.055981,0.25189 -0.00631,0.14133 -0.080758,0.32412 -0.00191,0.004 -0.00672,0.007 -0.00867,0.0125 -0.00812,0.0195 -0.00824,0.0438 -0.021681,0.0602 -0.00661,0.008 -0.00142,-0.0211 -0.00216,-0.0314 -0.01453,0.0732 -0.027015,0.14666 -0.04336,0.21951 -0.00244,0.0109 -0.00972,0.0207 -0.013007,0.0314 -0.014022,0.0457 -0.02495,0.0925 -0.039024,0.13821 -0.042752,0.13888 -0.099871,0.27179 -0.1219498,0.4168 -0.010037,-0.0427 -0.00264,-0.0216 -0.017885,0.0634 -0.013123,0.0732 -0.025456,0.14587 -0.043902,0.21788 -0.00662,0.0258 -0.012574,0.0517 -0.01897,0.0775 -0.0084,0.0789 -0.013673,0.15793 -0.025475,0.23631 -0.00638,0.0424 -0.017843,0.0839 -0.029268,0.1252 -0.065145,0.23543 -0.053323,0.21069 -0.1436298,0.39783 -0.049527,0.10268 -0.029269,0.12698 -0.055284,0.0894 -0.036488,0.1103 -0.096106,0.29716 -0.141462,0.38373 -0.031711,0.0605 -0.065441,0.12118 -0.1040639,0.17778 0.091723,-0.0187 0.1645181,0.0679 0.2032499,0.3458 0.031026,0.22275 0.034254,0.3259 -0.028726,0.57397 -0.035226,0.13876 -0.1233696,0.29448 -0.1761499,0.42981 -0.0068,0.0174 -0.00842,0.0365 -0.012465,0.0547 -0.00695,0.022 -0.013431,0.0768 -0.020596,0.0835 -0.0065,0.0283 -0.012432,0.0566 -0.017885,0.0851 -3.33e-4,0.002 0.00269,0.003 0.00216,0.005 -0.029578,0.0939 -0.062504,0.18634 -0.09214,0.28021 0.00189,-0.003 0.00693,-0.0121 0.00596,-0.009 -0.012299,0.0432 -0.025539,0.086 -0.040108,0.12845 -0.016886,0.0492 -0.041008,0.0963 -0.05691,0.1458 -0.00382,0.0119 0.018315,-0.0467 0.015177,-0.0347 -0.010995,0.0423 -0.025611,0.0834 -0.038482,0.1252 0.035278,-0.003 0.014932,-0.003 -0.013551,0.0884 -0.013617,0.0434 -0.065746,0.19496 -0.098644,0.2542 -0.028589,0.0515 -0.061455,0.10092 -0.09214,0.15122 -0.034109,0.0734 -0.074696,0.14262 -0.1214079,0.20758 -0.020466,0.0536 -0.043295,0.10639 -0.05691,0.16314 -0.024171,0.009 -0.021129,0.0995 -0.02439,0.0737 -0.00186,-0.0147 6.105e-4,-0.02 0.00216,-0.0444 -0.00111,0.003 -0.00214,0.005 -0.00325,0.008 -0.00482,0.0846 -0.011106,0.17143 -0.0542,0.24336 -0.03299,0.10352 -0.03711,0.12103 -0.075338,0.21897 -0.026016,0.0667 -0.04831,0.10805 -0.071002,0.17778 -0.026898,0.0826 -0.044863,0.16822 -0.071544,0.25094 -0.059068,0.28241 -0.1231667,0.56373 -0.1772339,0.84715 -0.041035,0.21509 -0.065898,0.43335 -0.1132779,0.64714 -0.047311,0.21348 -0.12467491,0.42086 -0.17831777,0.6336 v 0.0867 h 0.52140347 2.142524 c 0.03354,0 0.022492,8.3e-4 0.050406,10e-4 0.085231,-0.12346 0.2538599,-0.16103 0.5479614,-0.0266 -0.2100185,0.0452 -0.2262272,0.0364 -0.4287217,0.0298 0.026718,0.0183 0.043979,0.0769 0.052574,0.17452 0.062733,0.02 0.1262286,0.0387 0.188074,0.0613 0.030649,0.0112 0.059224,0.0239 0.088888,0.0358 0.04011,-0.0571 0.079018,-0.11382 0.1317058,-0.17507 0.0023,-0.0619 0.00665,-0.12313 0.016259,-0.18211 -0.052768,0.004 -0.1244377,0.0173 0.1040639,-0.0206 0.050062,-0.004 0.100256,-0.006 0.1501339,-0.0125 0.0254,-0.003 0.050137,-0.0107 0.075338,-0.0146 0.036615,-0.006 0.073239,-0.0121 0.110026,-0.0173 0.054494,-0.007 0.1092177,-0.0136 0.1636837,-0.0217 0.058872,-0.008 0.1170716,-0.0216 0.1761499,-0.0287 0.095788,-0.0115 0.1923035,-0.018 0.2883436,-0.0271 0.1005763,-0.009 0.2012976,-0.0101 0.3018939,-0.008 0.1005962,0.002 0.2008172,0.008 0.3013518,0.0114 0.1471234,0.005 0.2940003,0.006 0.4411874,0.005 0.1252405,-0.005 0.2508631,-0.003 0.3761478,-0.002 0.058326,1.1e-4 0.035614,1.5e-4 0.06775,0 0.5223309,-0.002 0.8340722,0.20701 0.9414531,0.45962 0.049362,-0.002 0.079491,-0.004 0.1523018,-0.005 0.2494587,-0.003 0.4990198,-0.004 0.7485015,-0.004 0.2590259,-5.6e-4 0.5180345,0.0147 0.7766852,10e-4 0.1545277,-0.008 0.3064985,-0.0453 0.4596156,-0.0677 0.093661,-0.0213 0.1885162,-0.0371 0.2807562,-0.064 0.01621,-0.004 -0.06537,0.005 -0.05041,-0.003 0.164498,-0.0858 0.320526,-0.1057 0.501891,-0.14309 0.394335,-0.0813 0.170135,-0.0235 0.492678,-0.11599 0.08882,-0.0341 0.184576,-0.0432 0.274794,-0.0721 0.0053,-0.002 -0.022,-10e-4 -0.0168,-0.003 0.04475,-0.0193 0.09181,-0.0329 0.137668,-0.0493 0.02003,-0.007 0.04017,-0.0144 0.06016,-0.0217 0.0355,-0.0126 0.07072,-0.0254 0.106232,-0.0379 0.13411,-0.0387 0.267326,-0.0828 0.402705,-0.11707 0.08538,-0.0216 0.171461,-0.0393 0.256908,-0.0607 0.09744,-0.0406 0.201539,-0.0626 0.299726,-0.10081 0.02508,-0.009 0.0461,-0.0281 0.06992,-0.0406 0.04089,-0.0215 0.0818,-0.0427 0.124118,-0.0613 0.165375,-0.0727 0.228105,-0.0911 0.397285,-0.15013 0.09563,-0.0407 0.198733,-0.0489 0.299184,-0.0677 0.0057,-0.008 0.01231,-0.0156 0.01734,-0.0222 -0.07271,-0.0647 -0.0517,-0.1735 0.149592,-0.36801 0.02578,-0.025 0.05119,-0.0498 0.07696,-0.0748 0.02357,-0.0187 0.118492,-0.0966 0.149591,-0.11165 0.01357,-0.006 -0.04515,0.0399 -0.03306,0.0309 0.08252,-0.0617 0.155513,-0.13241 0.251487,-0.17344 0.01807,-0.0104 0.03458,-0.0246 0.0542,-0.0314 0.08585,-0.10925 0.04685,-0.0616 0.223304,-0.21084 0.02794,-0.0146 0.05587,-0.0297 0.08401,-0.0439 0.06023,-0.055 0.116786,-0.11399 0.173982,-0.17236 0.0125,-0.0923 0.03003,-0.18714 0.04011,-0.24715 0.0951,-0.56596 0.382425,-0.82491 0.662865,-0.82763 0.267103,-0.002 0.527282,0.22839 0.609208,0.64552 0.09593,-0.003 0.164562,-0.001 0.282381,-0.009 0.02153,0.13805 0.07063,0.27451 0.0645,0.41409 -0.0022,0.0508 -0.0186,0.0989 -0.03902,0.14634 0.0018,0.0115 -0.0076,0.03 -0.0233,0.052 -0.01109,0.024 -0.02235,0.0481 -0.03198,0.0721 -0.0089,0.0221 -0.02285,0.0421 -0.03794,0.0607 -0.0056,0.007 0.0063,-0.0164 0.0087,-0.0249 0.0016,-0.005 0.004,-0.015 0.0038,-0.0168 -9.43e-4,0.002 -0.0023,0.003 -0.0033,0.005 -0.02087,0.0489 -0.03984,0.0986 -0.05962,0.14797 0.03965,0.0731 -0.04326,-0.0197 0.06612,0.0959 0.144173,0.14935 0.246124,0.33221 0.381026,0.48889 0.05867,0.0682 0.12997,0.12707 0.199456,0.18373 0.02907,0.0258 0.05649,0.0537 0.08726,0.0775 0.01435,0.0111 0.03209,0.0173 0.0477,0.0266 0.04414,0.0261 0.08613,0.0556 0.131706,0.0791 0.0184,0.009 0.03938,0.0127 0.05908,0.019 0.04551,0.0219 0.09182,0.0426 0.136584,0.0661 0.05311,0.0278 0.104317,0.058 0.156638,0.0873 0.192284,0.082 0.02382,0.0126 0.198372,0.078 0.0882,0.033 0.132681,0.0567 0.220593,0.0764 0.06232,0.014 0.126146,0.0204 0.189158,0.0309 0.0946,0.0368 0.189413,0.0733 0.284008,0.11002 0.01638,0.006 0.0635,0.0285 0.04878,0.019 -0.01999,-0.0131 -0.04469,-0.0168 -0.06504,-0.0293 -0.0055,-0.003 0.01267,-5e-5 0.01897,0.001 0.172011,0.0304 0.107074,0.0183 0.31436,0.0997 0.03453,0.0208 0.06891,0.0417 0.103522,0.0623 0.0059,0.002 0.009,0.002 0.01463,0.004 -0.0031,-0.002 -0.01343,-0.006 -0.0098,-0.005 0.02328,0.004 0.0901,0.0276 0.06667,0.0244 -0.011,-0.001 -0.03472,-0.012 -0.05691,-0.019 0.0066,0.003 0.014,0.007 0.0206,0.0125 6.38e-4,5.6e-4 4.9e-5,10e-4 5.55e-4,0.002 0.03322,0.0124 0.04363,0.0157 0.162058,0.0612 -0.01308,-0.006 -0.02641,-0.0121 -0.03957,-0.0184 -0.0028,-0.001 -0.01169,-0.005 -0.0087,-0.004 0.0283,0.007 0.0574,0.0117 0.08455,0.0222 0.07655,0.0297 0.150051,0.0667 0.225472,0.0992 0.01269,0.008 0.02528,0.0155 0.03794,0.0233 0.01833,0.002 0.03622,0.0109 0.05366,0.0179 0.186389,0.0741 0.175712,0.0759 0.31436,0.17453 -0.0065,-0.005 -0.01271,-0.009 -0.01138,-0.0168 0.0026,-0.0146 0.02775,0.0107 0.04065,0.0179 0.02766,0.0156 0.05468,0.0323 0.08184,0.0488 0.007,-0.0279 0.07547,0.0265 0.111651,0.0374 0.05094,0.0209 0.103338,0.0387 0.152844,0.0629 0.05607,0.0273 0.108788,0.0615 0.163684,0.0911 0.01174,0.005 0.02349,0.0105 0.03523,0.0157 1.14e-4,-0.003 -0.0031,-0.0108 0,-0.009 0.13065,0.0538 0.20371,0.0923 0.318154,0.15014 -0.01764,-0.0114 -0.03763,-0.0199 -0.05257,-0.0347 -0.0163,-0.0161 0.0182,-0.0246 0.04499,-0.0249 0.08267,-8.3e-4 0.165705,5.5e-4 0.248235,0.006 0.08802,0.005 0.175171,0.0201 0.26287,0.0293 0.325907,-0.003 0.651814,-0.0109 0.977767,-0.01 0.36159,0.002 0.722948,0.002 1.084542,0.001 0.0303,-2e-5 0.06076,0 0.09106,0 h 0.0103 c 0.156837,-0.14412 0.384237,-0.13864 0.579398,-0.13822 0.03056,7e-5 0.05983,0.0126 0.08943,0.0211 -5.55e-4,-0.001 0.0014,-0.001 0.0011,-0.003 -0.0047,-0.001 -0.0094,-0.003 -0.01409,-0.004 0.0052,-2.3e-4 0.01049,-8.4e-4 0.01572,-0.001 0.0048,-0.0249 0.08222,-0.0176 0.118698,-0.026 0.04754,-0.0109 0.09564,-0.0178 0.143631,-0.0265 -0.0055,-5.6e-4 -0.02142,2.7e-4 -0.01626,-0.002 0.02423,-0.009 0.04945,-0.0148 0.0748,-0.0201 0.04577,-0.009 0.09164,-0.0195 0.138211,-0.0233 0.02142,-0.002 0.04113,2.8e-4 0.06179,0 0.172635,-0.0802 0.395537,-0.12534 0.673163,-0.10569 l -5.55e-4,-5.5e-4 c 0.03051,0.002 0.06489,0.0207 0.09214,0.006 0.01701,-0.008 -0.06154,-0.0127 -0.05041,-0.0282 0.02947,-0.0411 0.08467,-0.0554 0.128453,-0.0808 0.07744,-0.0449 0.158405,-0.0837 0.235227,-0.12954 0.116432,-0.0695 0.138774,-0.0472 0.10027,-0.0802 -0.0087,0.007 -0.03325,0.0306 -0.026,0.0217 0.02453,-0.0305 0.04862,-0.0498 0.071,-0.0715 0.03016,-0.0758 0.06468,-0.14632 0.119782,-0.21464 0.0101,-0.0125 0.02356,-0.022 0.03469,-0.0336 0.01432,-0.025 0.02928,-0.0493 0.05203,-0.0797 0.0315,-0.042 0.06865,-0.0796 0.102437,-0.11979 0.0029,-0.003 0.01068,-0.0141 0.0076,-0.0109 -0.0099,0.0105 -0.01882,0.0216 -0.02819,0.0325 0.04146,-0.0505 0.0832,-0.10077 0.12466,-0.15122 0.220899,-0.16417 0.163217,-0.12977 0.275878,-0.18048 -0.0053,0.002 -0.01041,0.004 -0.01571,0.005 -0.01793,0.005 0.06839,-0.0301 0.05149,-0.0217 -0.02667,0.0127 -0.01923,0.009 -0.03577,0.0163 0.06662,-0.0214 0.131226,-0.0497 0.199456,-0.065 0.04137,-0.009 0.07839,-0.0121 0.114903,-0.0119 0.03652,1.4e-4 0.07242,0.003 0.112195,0.005 0.338552,0.1143 0.300073,0.0677 0.555548,0.2645 0.174348,0.13428 0.110078,0.11138 0.259078,0.2401 0.03094,0.0267 0.06605,0.0485 0.09864,0.0732 0.0567,0.0429 0.112642,0.0863 0.169103,0.12954 0.02695,0.0177 0.07806,0.0853 0.08076,0.0531 0.0028,-0.0325 -0.06814,-0.0255 -0.08022,-0.0558 -0.0078,-0.0196 0.04127,0.009 0.06233,0.0109 0.02128,0.001 0.04264,-0.003 0.06396,-0.003 0.122687,0.003 0.191741,0.0121 0.316529,0.0244 0.304558,0.0183 0.609468,0.002 0.914353,10e-4 0.205664,10e-4 0.411671,0.002 0.617338,0.002 0.209587,-2.7e-4 0.41913,-2e-5 0.628718,0 0.407581,-3e-5 0.815172,-5.5e-4 1.222751,-5.5e-4 0.469419,1e-5 0.938695,0 1.408115,0 h 0.543083 c 0.0929,-0.0374 0.172094,-0.0482 0.312192,-0.0542 0.10746,-0.004 0.176545,0.0261 0.08401,-0.008 0.177999,-0.0575 0.364343,-0.0688 0.549588,-0.0515 0.03047,0.003 0.06074,0.006 0.09051,0.013 0.05416,0.0128 0.106984,0.0305 0.160431,0.0461 0.315422,0.0914 0.359897,0.19247 0.273169,0.29755 0.04652,-8.3e-4 0.09406,-0.002 0.136584,-0.004 0.105172,-0.004 0.209699,-0.0143 0.314901,-0.0179 0.285493,-0.009 0.571333,-0.0153 0.856901,-0.0228 1.364685,-0.0314 2.729513,-8.3e-4 4.094265,0 0.198041,-0.0276 0.397349,-0.0464 0.59403,-0.0824 1.204211,-0.22023 -0.20121,-0.0311 1.089422,-0.21626 0.371341,-0.0533 0.746662,-0.0785 1.117601,-0.13441 0.114018,-0.0172 0.225697,-0.0451 0.338749,-0.0677 0.422763,-0.0474 0.841206,0.0249 1.26015,0.0677 0.06515,0.006 0.130241,0.0142 0.195663,0.0173 0.03799,0.002 0.07581,-5.6e-4 0.113818,-0.003 0.06498,-0.002 0.130169,-0.007 0.195121,-0.01 0.135383,-0.0153 0.256666,-0.0788 0.387529,-0.11111 0.03977,-0.009 0.08067,-0.0154 0.120866,-0.0233 0.08047,-0.0157 0.146472,-0.0231 0.199997,-0.0233 0.325437,-0.001 0.183891,0.26517 -0.01734,0.5626 0.195488,-8.3e-4 0.390978,-0.003 0.586443,0 0.06041,0.001 0.12062,0.002 0.18103,0.004 0.07653,0.002 0.153226,0.008 0.229806,0.003 0.0051,-2.8e-4 0.0101,-0.002 0.01518,-0.002 0.157419,-0.0977 0.284821,-0.0921 0.463409,-0.0921 h 0.297559 4.653066 3.233568 c 0.03588,0 0.06689,0.005 0.100812,0.006 0.211155,-2.72527 0.792265,-16.27337 0.735493,-17.42853 h -0.01302 -0.30027 -0.648773 -0.330077 -1.17885 -1.732228 c -1.31175,0 -1.31175,-1.32519 0,-1.32519 h 1.732228 1.17885 0.330077 0.648773 0.30027 0.11111 c 0.09204,-0.62556 0.184554,-2.10039 0.243898,-3.99346 l 0.128453,-4.08613 -13.215572,-0.12303 c -15.413107,-0.14186 -23.790005,-0.0131 -24.075085,0.37353 -0.155951,0.21143 -0.31556,0.19298 -0.996737,-0.11599 -0.750407,-0.34033 -1.178712,-0.36762 -5.741943,-0.37181 z m 5.813486,27.01759 c -0.0023,-8.3e-4 -0.0094,-0.004 -0.01138,-0.004 0.004,0.002 0.0079,0.005 0.01192,0.007 8.61e-4,5.5e-4 3.3e-5,-10e-4 -5.55e-4,-0.003 z m -0.01138,-0.004 c -0.0082,-0.005 -0.01624,-0.01 -0.02439,-0.0146 -0.06983,-0.0231 -0.03474,-0.007 0.02439,0.0146 z m -14.9228725,0.2943 c -0.017721,-0.006 -0.035539,-0.0113 -0.053116,-0.0173 -0.070239,-0.0241 -0.1087684,-0.0271 -0.1306219,-0.0303 -0.01559,0.003 -0.026096,0.004 -0.041192,0.008 l -5.55e-4,5.6e-4 c -0.047256,0.21808 0.025156,0.53511 0.13279,0.77777 0.048338,-5.5e-4 0.095018,-5.5e-4 0.1441718,-10e-4 -0.0089,-0.0657 0.00139,-0.14323 0.021681,-0.22601 -0.021401,-0.12791 -0.065632,-0.26585 -0.065582,-0.38428 2.25e-5,-0.0537 -0.00418,-0.0881 -0.00759,-0.12683 z m -0.2249299,-0.0401 c 0.047728,-0.0691 0.091011,-0.11822 0.1268281,-0.1355 -0.033608,-8.4e-4 -0.028362,-0.002 -0.073712,-0.002 -0.026238,0.038 -0.041832,0.0859 -0.053116,0.13766 z M 5.445313,267.44079 c 0.00293,-0.008 0.012282,-0.0301 0.00867,-0.0228 -0.00467,0.009 -0.00784,0.0195 -0.011924,0.0293 0.00114,-0.002 0.00214,-0.004 0.00325,-0.007 z m 74.848507,-9.5018 c -9.106486,-0.002 -16.665271,0.0149 -19.329327,0.0553 0.01457,0.34669 0.0025,0.69423 -0.0017,1.04118 0.0014,0.24238 0.0028,0.48498 0.0022,0.72736 -5.55e-4,0.22326 -7.2e-5,0.44612 0,0.66937 8e-6,0.0963 -8e-6,0.19266 0,0.28889 8e-6,0.0803 0,0.16081 0,0.24119 v 0.39891 0.26937 c 0.02915,0.0622 0.02622,0.18124 0,0.342 v 0.0661 c -0.06223,0.26549 -0.09228,0.39505 -0.09593,0.40866 0.08926,0.11705 0.125065,0.30504 0.27913,0.69864 -0.0085,0.098 0.0095,0.19525 0.01246,0.29322 -0.0106,0.17776 -0.01274,0.30478 -0.05962,0.44228 -0.0049,0.0793 -0.01382,0.14644 -0.05257,0.31056 -0.01213,0.0514 -0.007,0.11518 -0.04499,0.15176 -0.0056,0.005 -0.0082,1.5e-4 -0.0092,-0.009 9.7e-5,0.0496 -5.55e-4,0.095 -5.55e-4,0.1084 0.0025,0.11263 0.01743,0.23277 0.0087,0.34471 -0.0061,0.0791 -0.01768,0.15788 -0.03252,0.23577 -0.0014,0.007 -0.0025,0.0208 -0.0038,0.0314 5.55e-4,0.0202 0.0025,0.0405 0.0022,0.0607 0.0036,10e-4 0.01471,0.003 0,0.004 -10e-5,0.008 0.0014,0.0155 0.0011,0.0233 -0.0025,0.0831 -0.01551,0.1656 -0.02819,0.2477 -0.05344,0.34594 -0.153055,0.68432 -0.170188,1.03576 -0.01648,0.15433 -0.02412,0.3098 -0.04986,0.46286 -0.02489,0.14797 -0.129769,0.45944 -0.167476,0.60488 -0.02059,0.0794 -0.0445,0.15843 -0.05203,0.2401 -0.01154,0.12518 -0.0037,0.25153 -0.0049,0.37723 -0.0014,0.16004 -0.0017,0.32017 -0.0028,0.48021 0.005,1.00051 0.02442,2.00068 0.03902,3.00106 0.0067,0.45831 0.02885,1.12792 -0.0141,1.62057 -0.01504,0.17321 -0.04719,0.34431 -0.071,0.51653 -0.02128,0.0877 -0.04938,0.17438 -0.06396,0.26341 -0.06361,0.38849 -0.0385,0.59319 -0.06883,1.01842 -0.01277,0.17912 -0.03181,0.35769 -0.05691,0.53549 -0.0042,0.0296 -5.55e-4,0.0815 -0.03035,0.084 v 0.0753 c -0.08145,-0.003 -0.164063,-10e-5 -0.246068,5.6e-4 -5.55e-4,0.0441 -0.0033,0.0883 0,0.13224 0.0048,0.0643 0.02478,0.12632 0.03685,0.18971 0.01346,0.0707 0.02203,0.14272 0.03957,0.21246 0.0011,0.005 0.01329,-0.001 0.01462,0.003 0.02617,0.0902 0.04404,0.18299 0.06612,0.27425 0.05042,0.2419 0.0097,0.47893 -0.0065,0.71978 -0.0089,0.13348 -0.0037,0.26802 -0.0011,0.40162 0.0097,0.22977 0.0047,0.46009 0.0038,0.68997 -1.39e-4,0.17225 5.55e-4,0.34428 5.55e-4,0.51652 -1.5e-4,0.14113 -5.55e-4,0.28217 -5.55e-4,0.4233 5e-6,0.0714 0,0.14271 0,0.21409 -3e-6,0.0202 0.0043,0.0409 0,0.0607 -0.02412,0.11253 -0.05307,0.2239 -0.0813,0.33549 -0.02034,0.14968 -0.03458,0.22964 -0.04932,0.28293 -6.1e-5,10e-4 5.55e-4,0.002 5.55e-4,0.003 -0.01435,0.12848 -0.031,0.25655 -0.05095,0.38428 -0.02004,0.12834 -0.09448,0.24246 -0.10569,0.37127 -0.0084,0.072 -0.0301,0.14129 -0.04227,0.21246 -8.32e-4,0.005 0.0169,0.0278 0.0141,0.0488 -0.01759,0.1311 -0.0398,0.26117 -0.06016,0.39187 2.77e-4,0.0118 0.0028,0.0235 0.0028,0.0352 -8.33e-4,0.0947 -0.0082,0.18937 -0.01246,0.28401 -0.01726,0.0698 -0.03458,0.13943 -0.05203,0.20921 -0.129395,0.95643 0.0083,0.1282 -0.0981,0.5485 -0.0034,0.0132 0.01315,-0.0236 0.0179,-0.0363 0.0046,-0.0123 0.01007,-0.0516 0.0098,-0.0385 -0.0033,0.13534 -0.02095,0.20871 -0.0477,0.29539 8.33e-4,0.0199 0.0043,0.0466 0.0049,0.058 10e-5,0.13008 -0.0028,0.26016 -0.0028,0.39024 8.33e-4,0.0634 3.6e-5,0.12683 0,0.19024 3.6e-5,0.12897 1.1e-5,0.25802 0,0.38699 -1.1e-5,0.10058 -2e-6,0.20127 0,0.30189 v 0.37127 0.11382 c 0.146389,-0.007 0.292525,-0.0106 0.43902,-0.006 0.104391,0.003 0.208857,8.3e-4 0.313276,5.5e-4 0.163716,1.3e-4 0.327877,5e-5 0.491593,0 0.122143,-5e-5 0.24425,-1e-5 0.366391,0 0.144324,-1e-5 0.288196,0 0.432517,0 h 0.533867 0.592407 0.610833 1.114893 1.24118 0.999447 0.881832 0.396744 c 0.02481,0 0.04997,-0.005 0.07425,0 0.130831,0.0273 0.26004,0.0624 0.389698,0.0949 -0.0014,-0.002 -0.004,-0.005 0.0017,-0.008 0.0346,-0.0218 0.08054,0.0128 0.120323,0.0222 0.05968,0.0142 0.118075,0.0342 0.177774,0.0482 0.0116,0.003 -0.025,-0.006 -0.03306,-0.0146 -0.0032,-0.003 0.0083,-0.005 0.01246,-0.007 0.145005,0.002 0.28357,0.0466 0.42601,0.0656 0.0169,0.002 0.03448,0.002 0.05149,10e-4 0.0019,-1.3e-4 -0.0057,-0.005 -0.0038,-0.004 0.36436,0.0572 0.246041,0.0252 0.469914,0.0986 -0.02887,-0.0105 -0.116834,-0.0372 -0.08672,-0.0314 0.07282,0.0141 0.143872,0.0351 0.215715,0.0537 0.126028,-0.017 0.253267,-0.01 0.379941,-0.01 0.08127,0.0105 0.163728,0.0117 0.243357,0.0309 0.0826,0.02 0.103812,0.0277 0.153388,0.0412 0.03084,0.006 0.07272,0.0166 0.09485,0.0206 0.08283,0.0163 0.164457,0.0395 0.246609,0.0591 -0.01401,-0.0196 0.01471,0.018 -0.03957,-0.0168 -0.0035,-0.002 0.0073,-0.003 0.01138,-0.004 0.01396,-0.002 0.02829,-0.006 0.04228,-0.004 0.282945,0.0402 0.315882,0.0468 0.491592,0.0818 0.100784,0.0116 0.193803,0.065 0.294307,0.0797 0.0159,0.002 -0.03247,-0.009 -0.04499,-0.0184 -0.0038,-0.003 0.0071,-0.008 0.01193,-0.008 0.06587,0.003 0.131501,0.01 0.197289,0.0146 0.0042,-0.15564 0.0067,-0.31666 0.0017,-0.51056 -0.0011,-0.0333 0.06613,-0.008 0.09918,-0.0119 0.03241,-0.003 0.065,-0.003 0.09756,-0.003 0.0062,-0.0187 0.04386,-0.006 0.0748,-5.5e-4 0.02497,8.3e-4 0.04989,0.002 0.07479,0.004 0.03269,-5e-5 0.06541,4e-5 0.0981,0 0.0225,-0.009 0.04513,-0.0177 0.06775,-0.0266 0.06171,-0.009 0.123634,-0.0182 0.185365,-0.0271 -0.236919,-0.11487 0.04321,-0.0636 0.29268,-0.0114 0.0039,-10e-4 0.0048,-0.002 0.0087,-0.003 0.08258,-0.0214 0.424822,-0.0893 0.494848,-0.0981 0.01723,-0.002 0.03391,0.0132 0.05095,0.01 0.04623,-0.009 0.08936,-0.0315 0.133874,-0.0471 0.266023,-0.11414 0.269808,-0.11671 0.313277,-0.12845 -0.220852,-0.62015 0.105285,-1.12077 0.641186,-1.15988 0.331647,-0.0242 0.742911,0.12828 1.152831,0.5382 v -0.002 c 0.04756,0.0476 0.09499,0.095 0.142548,0.14255 0.0011,2.8e-4 0.0025,-4e-5 0.0038,5.6e-4 0.101275,0.0281 0.189593,0.091 0.283464,0.1382 0.0043,0.002 0.0082,0.005 0.01246,0.007 0.06899,0.005 0.138008,0.0401 0.207046,0.0542 0.60954,0.2476 0.127269,0.0407 0.415712,0.1794 0.0014,5.6e-4 -0.0022,-0.004 -0.0011,-0.004 0.08867,0.053 0.175232,0.109 0.264494,0.16097 0.0094,0.005 -0.01621,-0.0145 -0.02439,-0.0217 0.03155,0.0203 0.06277,0.0409 0.09431,0.0613 -0.0057,-0.005 -0.01163,-0.009 -0.01571,-0.0173 -0.006,-0.0119 0.02639,-0.006 0.03956,-0.005 0.0538,0.005 0.108901,0.006 0.159892,0.0238 0.247264,0.0866 0.322296,0.11952 0.40162,0.16585 0.01715,0.007 0.02148,0.008 0.03252,0.0103 0.0045,10e-4 -0.01635,-0.01 -0.01193,-0.008 0.270386,0.0943 0.264858,0.0885 0.482379,0.20054 -0.03093,-0.0166 -0.126749,-0.0597 -0.09322,-0.0493 0.104078,0.0321 0.345159,0.14185 0.439019,0.20975 0.0032,0.002 0.007,0.004 0.01029,0.006 0.153291,0.0448 0.297823,0.10027 0.447151,0.15989 0.0074,0.002 0.01485,0.003 0.02223,0.005 0.0017,8.3e-4 0.0028,0.002 0.0038,0.004 0.0763,0.0179 0.186272,0.0518 0.239023,0.0753 0.0291,-0.0229 0.07487,0.008 0.112195,0.0114 0.06685,0.012 0.133532,0.0248 0.200538,0.0358 0.01726,0.003 0.03456,0.005 0.05203,0.007 0.0028,1.3e-4 0.01029,-0.002 0.0076,-0.003 -0.0298,-0.003 -0.01887,-8.3e-4 -0.03198,-0.004 0.107152,0.007 0.214255,0.0142 0.321407,0.0212 0.07603,0.022 0.151492,0.0465 0.22818,0.0661 0.0029,8.3e-4 -0.0078,-0.0207 -0.0065,-0.0206 0.259399,0.0399 0.345792,0.0568 0.557177,0.0965 0.03252,0.003 0.06485,0.01 0.09756,0.0109 0.0242,5.5e-4 0.0581,-0.0113 0.08293,-0.0136 0.129622,-0.012 0.259094,-0.0173 0.389155,-0.019 -0.03202,0.0752 0.112219,0.0213 0.222763,-0.008 0.04164,-0.0147 0.137853,-0.0391 0.172355,-0.0434 0.06612,-0.0495 0.145157,-0.0851 0.343086,-0.1626 0.12867,-0.0503 0.248913,-0.0591 0.38265,-0.09 0.01845,-0.004 -0.03773,0.002 -0.05637,0.005 0.238459,-0.0923 0.03001,-0.0168 0.338749,-0.11057 0.01671,-0.005 0.03207,-0.0134 0.04878,-0.0184 0.15735,-0.0478 0.236319,-0.0642 0.413547,-0.0753 0.02929,-0.0142 0.05615,-0.023 0.08401,-0.0352 -0.01682,0.01 -0.03341,0.021 -0.04986,0.0341 0.07137,-0.002 0.143198,0.004 0.214633,0.005 -0.04472,-0.0604 -0.08773,-0.067 -0.129539,-0.0537 0.101541,-0.0419 0.201337,-0.0756 0.324116,-0.0932 0.04008,-0.006 0.08087,-0.005 0.121408,-0.005 -0.0041,2.2e-4 -0.01027,0.002 -0.0076,-0.002 0.01676,-0.0212 0.04615,-0.0288 0.07046,-0.0406 0.06466,-0.0315 0.130688,-0.0592 0.196203,-0.0889 -0.03045,0.0179 -0.07558,0.0437 -0.05582,0.0341 0.07221,-0.0348 0.141174,-0.0762 0.212462,-0.11273 0.0086,-0.008 0.01845,-0.0227 0.02656,-0.0293 0.0955,-0.0779 0.200687,-0.14297 0.301352,-0.21409 -0.04567,0.0137 -0.05883,0.017 0.007,-0.005 -0.0025,0.002 -0.0046,0.004 -0.007,0.005 0.06885,-0.0206 0.222475,-0.0661 0.382109,-0.10406 0.02971,-0.0289 0.06059,-0.0546 0.09431,-0.0705 0.03372,-0.0217 0.06839,-0.0423 0.101353,-0.065 -0.005,0.003 -0.05134,0.0362 -0.08184,0.0569 0.0046,-10e-4 0.0088,-0.004 0.01354,-0.005 0.09058,-0.0206 0.220044,-0.13351 0.272625,-0.0569 0.05192,0.0756 -0.180247,0.0353 -0.267205,0.0645 -0.03624,0.0121 -0.105519,0.0622 -0.108402,0.0602 -0.0072,0.006 -0.0095,0.009 -0.01626,0.0146 0.160691,-0.0379 0.31667,-0.0654 0.366934,-0.0401 0.271493,-0.11066 0.539038,-0.24236 0.81083,-0.17669 0.187066,0.0452 0.306822,0.15808 0.383735,0.29918 0.154997,0.0283 0.223341,0.0713 0.507854,0.19513 8.33e-4,2.7e-4 0.01232,0.005 0.01462,0.006 0.111659,0.005 0.223329,0.0128 0.334955,0.019 0.08204,-0.0111 0.156817,0.0446 0.237396,0.0472 0.01324,5.5e-4 -0.05045,-0.01 -0.03794,-0.0135 0.02815,-0.009 0.05964,-0.003 0.08943,-0.004 0.153155,-0.006 0.174478,-0.006 0.328995,-0.0103 0.459355,-8.3e-4 0.91894,0.003 1.378305,0.002 0.876518,-10e-4 1.752722,-1.5e-4 2.62924,0 h 0.343628 c 0.112322,0 0.2248,-5.6e-4 0.337122,-5.6e-4 0.05415,0 0.108446,10e-6 0.162601,0 8.32e-4,-0.0188 0.03383,-0.003 0.05528,-0.001 0.02029,-0.003 0.05071,-0.0171 0.05095,0.001 0.05283,0 0.105435,0 0.158263,0 h 0.263412 c 0.105849,-0.39482 0.556925,-0.74892 1.360962,-0.76801 0.326236,-0.007 0.602733,0.0378 0.885084,0.24878 0.105266,0.0786 0.178996,0.19136 0.252573,0.30189 0.01476,0.0157 0.02906,0.0335 0.04444,0.0439 0.04086,0.0346 0.03394,0.0318 0.05311,0.0477 0.03557,0.009 0.07119,0.0178 0.106775,0.0266 0.08674,0.0178 0.172244,0.0431 0.26016,0.0537 0.07555,0.009 0.381451,-0.0125 0.428721,-0.0152 0.302085,-0.0174 0.60318,-0.0358 0.905681,-0.0423 0.353029,0.007 0.705975,0.0149 1.059068,0.0114 0.03708,-2.7e-4 0.07432,-0.004 0.11111,-5.5e-4 0.155779,0.0196 0.308603,0.0602 0.465035,0.0737 0.0403,0.003 0.08096,0.005 0.121408,0.005 0.02871,5.6e-4 0.05721,-0.005 0.08564,-0.002 0.128315,0.0181 0.255109,0.0459 0.382652,0.0688 0.221726,0.0318 0.435577,0.10883 0.657987,0.13658 0.0451,0.005 0.18157,-0.01 0.21842,-0.0125 0.0831,-0.006 0.16615,-0.0108 0.24932,-0.0157 0.575,-0.0309 1.15179,-0.008 1.72735,-0.006 0.71961,-0.002 1.43918,-0.002 2.15879,-0.002 0.77193,5.5e-4 1.54349,3e-5 2.31542,0 0.827,4e-5 1.65428,1e-5 2.48127,0 h 2.33711 1.51163 c 0.15565,-0.0607 0.33272,-0.10842 0.53929,-0.13334 v 5.6e-4 c 0.30177,-0.0364 0.60568,-0.0299 0.90893,-0.0255 0.0264,-0.005 0.0525,-0.0114 0.0791,-0.0135 0.0113,-8.3e-4 0.0219,8.4e-4 0.0331,0 0.0199,-0.007 0.0314,-0.0139 0.0537,-0.0206 0.13375,-0.0402 0.27852,-0.0182 0.41788,-0.0271 0.25278,-0.0161 0.39545,0.0105 0.46124,0.0667 0.58138,-8.3e-4 1.16279,-0.002 1.74415,-0.002 1.34934,8.3e-4 2.69886,4e-5 4.0482,0 0.77493,-0.054 0.7731,-0.0218 1.45473,-0.17019 0.18407,-0.0401 0.36099,-0.11228 0.54742,-0.13929 0.26893,-0.039 0.54218,-0.0435 0.81354,-0.058 0.36821,-0.0196 0.62195,-0.0159 0.97776,-0.0163 0.0124,-0.007 0.0229,-0.0184 0.0369,-0.0227 0.0455,-0.014 0.0922,-0.0244 0.13929,-0.0314 0.22144,-0.0331 0.34772,-0.0458 0.56206,-0.0417 0.056,10e-4 0.24749,0.016 0.32195,0.0217 0.21966,0.004 0.43933,-0.004 0.65907,-0.004 0.54252,0.002 1.0851,10e-4 1.62762,10e-4 0.5815,-1.5e-4 1.16266,0 1.74416,0 0.23826,1e-5 0.47663,-2e-5 0.71489,0 h 0.0201 c 0.10092,1e-5 0.19406,0.008 0.284,0.0184 -1.39082,-5.22719 -7.15037,-25.89538 -7.26604,-26.0111 -0.10863,-0.10863 -25.194398,-0.18985 -44.035834,-0.19349 z m -1.295921,27.27233 c -0.0019,-5.5e-4 -0.006,-10e-4 -0.0081,-0.002 0.0033,0.001 0.0065,0.002 0.0097,0.004 8.33e-4,2.8e-4 -0.0011,-0.001 -0.0017,-0.002 z m -0.0081,-0.002 c -0.0061,-0.002 -0.01182,-0.005 -0.0179,-0.007 -0.05803,-0.0136 -0.116311,-0.0257 -0.174522,-0.0385 0.133593,0.0306 0.143019,0.034 0.19241,0.0455 z m -6.103457,-0.53333 c -0.0057,0.002 -0.007,0.003 -0.01246,0.004 0.01363,0.001 0.02536,-5.6e-4 0.03903,0.001 -0.01207,-0.002 -0.01365,-0.003 -0.02656,-0.005 z m -0.01246,0.004 c -0.06874,-0.006 -0.138355,-0.0111 -0.196744,-0.005 -0.02796,0.003 -0.05566,0.008 -0.08347,0.0125 0.02951,0.0143 0.04991,0.0255 0.100271,0.0461 -0.0083,0.005 -0.0071,0.005 -0.01085,0.008 0.0028,-10e-6 0.0054,0 0.0081,0 0.02672,-0.0109 0.0921,-0.0355 0.182653,-0.0607 z M 60.869101,262.44734 c -5.55e-4,-5.8e-4 0.02498,-0.11527 0.08022,-0.36693 0.0096,-0.0438 0.0096,-0.0702 0.01571,-0.10786 v -0.23251 -0.10949 c -0.115364,-0.24599 -0.610997,0.18481 -1.07099,0.54959 0.01582,-0.004 0.03621,-0.01 0.05474,-0.0119 0.05365,-0.007 0.108501,-0.0266 0.162059,-0.0276 0.01784,-3.3e-4 0.03577,10e-4 0.05311,0.006 0.127765,0.0363 0.190878,0.0583 0.277503,0.0846 0.04042,-0.005 0.08116,-0.009 0.121408,-0.0146 -0.01171,-0.0318 -0.01876,-0.0452 0.0022,0 -8.32e-4,1e-4 -0.0014,-10e-5 -0.0022,0 0.0055,0.0148 0.01007,0.0327 0.01843,0.0569 0.150024,0.0516 0.229471,0.0983 0.287258,0.17398 z m -0.975056,-0.2672 -5.55e-4,5.5e-4 c -0.0053,0.004 -0.01093,0.008 -0.01626,0.0125 0.04412,-0.008 0.08882,-0.0153 0.13008,-0.0282 -0.01685,0.001 -0.03426,0.001 -0.05095,0.003 -0.02101,0.003 -0.04159,0.008 -0.06233,0.0119 z m 29.789916,-2.56474 c 0.09965,0 0.181571,0.0814 0.181571,0.18103 0,0.0997 -0.08192,0.18102 -0.181571,0.18102 -0.09957,0 -0.181027,-0.0814 -0.181027,-0.18102 0,-0.0997 0.08145,-0.18103 0.181027,-0.18103 z m 4.096977,0.61246 c 0.02164,-9.5e-4 0.04555,0.006 0.07046,0.0217 0.09965,0.0616 0.181029,0.18861 0.181029,0.28238 0,0.0937 -0.08138,0.17019 -0.181029,0.17019 -0.09964,0 -0.181027,-0.12704 -0.181027,-0.28238 0,-0.11655 0.0456,-0.18901 0.110569,-0.19187 z m -86.8901108,1.98968 c -0.00508,0.0169 -0.017916,0.0722 -0.030894,0.12411 0.0018,8e-5 0.00361,-7e-5 0.00542,0 0.00986,-0.041 0.017011,-0.0827 0.025475,-0.12411 z m -0.030352,0.14742 c -0.00526,0.011 -0.010268,0.0222 -0.015718,0.0331 0.00749,-0.014 0.011971,-0.0195 0.015177,-0.0303 2.598e-4,-8.9e-4 2.384e-4,-0.002 5.55e-4,-0.003 z m 36.7421458,1.66773 c 0.331267,0 0.662324,0.32786 0.662324,0.98373 v 1.83142 0.51002 c 0,0.0971 0.0055,0.19413 0,0.29105 -0.01404,0.25042 -0.05439,0.49043 -0.108943,0.73387 -0.01085,0.0316 -0.02164,0.0632 -0.03252,0.0948 0.0014,0.008 2.78e-4,-5e-4 0.0076,0.0428 0.0022,0.0249 0.0047,0.0494 0.007,0.0743 0.04104,0.43626 -0.110821,0.4401 -0.324116,0.30515 -0.0014,0.0229 -8.33e-4,0.0442 -0.0032,0.0677 -0.01352,0.13358 -0.01121,0.0931 -0.01302,0.27967 -0.0029,0.31001 0.01546,0.25812 -0.04336,0.62222 -0.04571,0.28302 -0.109195,0.49729 -0.182112,0.77451 -0.126669,0.60219 0.01607,-0.0907 -0.09268,0.47805 -0.01937,0.10121 -0.04594,0.20105 -0.06124,0.30297 -0.04647,0.30948 -0.01451,0.22026 -0.02981,0.49648 -0.0051,0.093 -0.0159,0.18572 -0.02384,0.27858 -0.0055,0.0864 -0.01332,0.17259 -0.01679,0.25908 -0.0041,0.10111 5.55e-4,0.20203 -0.006,0.30298 -0.0072,0.11327 -0.02314,0.22584 -0.03469,0.33875 -0.0089,0.0873 -0.01554,0.17476 -0.02656,0.26178 -0.01393,0.11026 -0.03547,0.21969 -0.04824,0.33008 -0.01199,0.10384 -0.01732,0.20806 -0.026,0.31219 -0.04614,0.16818 -0.04234,0.34307 -0.06883,0.51382 -0.01579,0.10173 -0.03778,0.20275 -0.05637,0.30406 -0.01396,0.076 -0.04782,0.29735 -0.08184,0.37073 -0.04226,0.0911 -0.09872,0.17491 -0.15122,0.2607 -0.0017,0.005 -0.0075,0.0229 -0.0087,0.0249 5.55e-4,-0.004 5e-6,-0.007 -0.0011,-0.0103 -0.0038,0.006 -0.0077,0.0126 -0.01138,0.019 -0.01057,0.005 -0.02178,0.01 -0.03252,0.0146 -5.55e-4,0.002 -0.0011,0.004 -0.0017,0.006 -8.32e-4,0.006 -0.0019,0.0115 -0.0028,0.0174 0.02023,-0.0157 0.04307,-0.032 0.04715,-0.0407 -0.005,0.007 -0.01918,0.0333 -0.05311,0.084 -0.0017,0.0121 -0.0032,0.0242 -0.0049,0.0363 0.0025,-0.003 0.0034,-0.006 0.0054,-0.008 0.003,-0.004 -0.0055,0.01 -0.0065,0.0125 -0.0056,0.0416 -0.01052,0.0833 -0.01734,0.12466 -0.0035,0.0208 -0.009,0.0412 -0.01682,0.0607 -0.0084,0.0208 -0.01807,0.0412 -0.02708,0.0618 -0.06303,0.43263 -0.277815,0.49833 -1.08671,0.44932 -0.225009,-0.0136 -0.258193,-0.49263 -0.239564,-0.64932 0.0011,-0.009 0.0048,-0.0176 0.0065,-0.0265 -1.03e-4,-0.005 -5.55e-4,-0.0105 -5.55e-4,-0.0157 -0.007,-0.41856 0.124357,-0.7038 0.306228,-0.85799 0.01815,-0.0338 0.03769,-0.0669 0.06125,-0.0976 0.005,-0.0298 0.01002,-0.0597 0.01571,-0.0894 0.01268,-0.0661 0.03047,-0.13132 0.04065,-0.19784 0.01321,-0.0862 0.01998,-0.17299 0.02981,-0.25961 0.01196,-0.0744 0.02381,-0.14893 0.03577,-0.22331 0.01179,-0.13018 0.02028,-0.26038 0.03523,-0.39024 0.007,-0.0613 0.01776,-0.12219 0.02764,-0.18319 -0.09173,-0.38989 -0.178956,-0.75031 -0.280756,-1.20866 l -0.585358,-2.63683 1.028171,-1.8932 c 0.372274,-0.68522 0.626281,-1.1349 0.829261,-1.4737 v -1.08725 c 0,-0.65588 0.331057,-0.98373 0.662321,-0.98373 z m -0.809745,11.4763 c 2.78e-4,-0.002 8.33e-4,-0.004 0.0011,-0.006 -0.0252,0.0118 -0.05074,0.0231 -0.07642,0.0341 5.55e-4,0.0127 0.0025,0.0239 0.0028,0.0369 0.02675,-0.0169 0.05303,-0.0343 0.06775,-0.0455 0.0017,-0.006 0.0033,-0.0126 0.0049,-0.019 z m 0.0011,-0.006 h 5.55e-4 c 0.0017,-0.007 0.0032,-0.0134 0.0049,-0.0201 8.33e-4,-0.0129 0.0047,-0.0518 0.0028,-0.039 -0.003,0.0197 -0.0054,0.0394 -0.0081,0.0591 z M 60.99433,264.24463 c -5.55e-4,0.001 -3e-5,0.0453 0,0.0813 -5.55e-4,-0.0348 0.01016,-0.1023 0,-0.0813 z m 36.383342,0.11761 c 0.03926,-0.005 0.07817,-0.005 0.116532,0.002 0.394536,0.0635 0.731198,0.71898 0.796739,1.76041 v 5.6e-4 c 0.0075,0.11941 -0.0035,0.24092 0.0065,0.36043 0.108415,0.17687 0.126542,0.20698 0.205961,0.58536 0.0059,0.0281 0.007,0.057 0.01518,0.0845 0.0011,0.004 0.0093,0.002 0.01138,0.005 0.01374,0.0235 0.02503,0.0484 0.03523,0.0737 0.02076,0.0513 0.03868,0.10372 0.05799,0.15555 0.01906,0.0851 0.05305,0.16823 0.05691,0.25528 0.01182,0.26579 0.0014,0.29825 -0.01193,0.33821 0.04111,0.14683 0.05864,0.29736 0.06396,0.45095 0.07059,0.17488 0.09858,0.33544 0.09431,0.52086 0.06719,0.15492 0.102674,0.31753 0.126828,0.48509 0.0066,0.0456 0.0067,0.0923 0.01138,0.13821 0.01246,0.12209 -0.01363,0.13982 0.026,0.10352 0.04507,0.16499 0.07044,0.23382 0.08401,0.42167 0.0074,0.10132 0.0028,0.20355 0.0011,0.30515 -0.0019,0.0875 -0.01088,0.13011 -0.01734,0.16152 0.0926,0.19319 0.125646,0.35383 0.143087,0.57506 0.0065,0.082 -0.0017,0.16441 -0.0054,0.24661 -0.0025,0.0559 -0.01881,0.11172 -0.01354,0.16748 0.0028,0.0289 0.01413,-0.0562 0.02115,-0.0846 0.05511,0.23063 0.08944,0.4605 0.09106,0.6981 5.55e-4,0.0912 -0.0061,0.18287 -0.01354,0.27425 0.0047,0.0249 0.0098,0.053 0.01354,0.0683 0.03619,0.14705 0.05596,0.26802 0.05583,0.42059 -3.6e-5,0.0415 -0.0068,0.0818 -0.01085,0.1225 0.05364,0.0416 0.104256,0.0919 0.151759,0.14146 0.0032,0.003 0.0044,0.005 0.0076,0.008 0.300359,0.30351 0.342187,0.35332 0.131706,0.3626 0.09407,0.17328 0.186536,0.34747 0.274252,0.52411 0.335774,0.0529 0.463554,0.11265 0.09431,0.18862 0.01676,0.0334 0.03347,0.0669 0.05041,0.10027 0.84043,1.6538 -0.831302,2.48935 -1.676412,0.83793 -0.143633,-0.28077 -0.275251,-0.56906 -0.431974,-0.84281 -0.04798,-0.0452 -0.06998,-0.0667 -0.149591,-0.13875 0.02334,0.0317 0.04612,0.0637 0.06287,0.0992 0.0265,0.056 -0.08535,-0.0908 -0.120322,-0.142 -0.146398,-0.2143 -0.136935,-0.2505 -0.236853,-0.50515 -0.0014,-0.0103 -0.0028,-0.0206 -0.0043,-0.0309 -0.0059,-0.0123 -0.0086,-0.0129 -0.01571,-0.0293 -1.75e-4,-2.7e-4 -4.2e-5,-8.3e-4 -5.55e-4,-10e-4 -0.0092,-0.0195 -0.02708,-0.0586 -0.03957,-0.0883 -0.0019,-0.004 -0.0049,-0.011 -0.0065,-0.0141 -0.01018,-0.0241 -0.0202,-0.0485 -0.03035,-0.0726 -0.171681,-0.40728 -0.115159,-0.56605 0.05799,-0.59566 -0.02087,-0.11594 -0.04112,-0.23196 -0.06179,-0.34796 0.0063,-0.0931 0.0079,-0.12788 0.01626,-0.22439 0.0022,-0.0265 0.004,-0.0528 0.0081,-0.0791 0.0014,-0.008 0.0092,-0.0166 0.0087,-0.0255 -0.0011,-0.0153 -0.009,-0.046 -0.01354,-0.0732 -0.677417,-1.2747 -1.390771,-2.71651 -1.390771,-2.90349 0,-0.20503 0.302834,-1.07087 0.615711,-1.85852 -3.3e-5,-0.011 8.33e-4,-0.022 0.0049,-0.0325 -0.04024,-0.0601 -0.0806,-0.11989 -0.112195,-0.18482 -0.0719,-0.14776 -0.104139,-0.50038 -0.110028,-0.65365 -0.01424,-0.37042 0.01748,-0.74064 0.144716,-1.09105 0.242399,-0.6675 0.534414,-0.98741 0.809203,-1.02384 z m -91.4077021,1.55499 c -2.406e-4,4.1e-4 -8.325e-4,6.6e-4 -0.00108,10e-4 v 5.5e-4 c -6.105e-4,0.006 -4.995e-4,0.005 -0.00108,0.0108 0.00186,-0.003 0.00178,-0.008 0.00216,-0.0125 z m 92.3366631,0.62709 c 0.0037,0.0239 0.0057,0.0479 0.01193,0.0715 0.0028,0.0106 0.01129,-0.0218 0.007,-0.032 -0.0056,-0.0135 -0.01299,-0.0262 -0.01898,-0.0396 z m -92.5518367,0.0965 c -0.00155,0.003 -0.00172,0.003 -0.00325,0.006 1.557e-4,7.5e-4 0.00153,8.3e-4 0.00164,0.002 4.995e-4,-10e-4 0.00114,-0.006 0.00164,-0.008 z m -0.00325,0.006 c -2.775e-4,-10e-4 -0.00219,-0.002 -0.00272,-0.003 6.6e-5,2.6e-4 -9.713e-4,0.003 -0.00108,0.003 1.302e-4,0.002 -1.151e-4,0.004 0,0.007 0.00164,-0.003 0.00211,-0.003 0.00379,-0.007 z m -0.00379,0.007 c -0.0023,0.004 -0.00323,0.005 -0.00542,0.009 -0.00365,0.01 -0.00313,0.0126 -0.00596,0.0184 -0.0097,0.0198 -0.020635,0.039 -0.030894,0.0585 0.010492,-0.0142 0.019944,-0.0276 0.027642,-0.0407 0.00272,-0.004 0.011403,-0.0194 0.013551,-0.0233 5.273e-4,-9.4e-4 0.00114,-0.006 0.00164,-0.007 -1.276e-4,-0.005 -2.242e-4,-0.0102 -5.55e-4,-0.0157 z m -0.061246,0.0867 c -0.05227,0.0822 -0.068923,0.10817 -0.030352,0.0672 0.01617,-0.0214 0.030046,-0.0416 0.048238,-0.0661 -0.00216,-1.8e-4 -0.00433,-3.6e-4 -0.0065,-5.5e-4 -0.00114,0.001 -0.017433,0.0318 -0.015718,0.0276 0.00395,-0.01 0.010262,-0.0182 0.014633,-0.0276 -0.00344,-2.8e-4 -0.00686,-2.4e-4 -0.010298,-5.6e-4 z m 0.017885,10e-4 c -0.00606,0.0115 -0.011733,0.0232 -0.017885,0.0347 0.00219,-0.002 0.00253,-0.003 0.00488,-0.005 0.00767,-0.0138 0.011786,-0.0204 0.017344,-0.0293 -0.00125,-10e-5 -0.00253,1.1e-4 -0.00379,0 z m -0.3322458,0.30677 c -0.049224,-0.001 -0.1151782,0.0211 -0.1886156,0.0542 -0.00275,0.01 -0.00485,0.0179 -0.00759,0.0276 0.099349,0.0633 0.1873045,0.16279 0.2541979,0.29593 0.014258,-0.0462 0.020735,-0.081 0.028726,-0.11816 -0.037579,0.0413 -0.052697,0.0533 0.00705,-0.0309 0.029719,-0.16363 -0.010623,-0.22666 -0.093766,-0.22873 z m 0.1490501,0.18754 c -8.603e-4,10e-4 -0.00183,0.002 -0.00272,0.003 -0.00197,0.003 -0.00285,0.004 -0.00488,0.008 0.00194,-0.002 0.00283,-0.003 0.00596,-0.007 5.273e-4,-10e-4 0.00111,-0.002 0.00164,-0.003 z m 97.3149304,0.96909 c 0.1345,0.01 0.25583,0.14176 0.25583,0.3187 0,0.083 -0.077,0.15122 -0.17073,0.15122 -0.2459,0 -0.40743,-0.31994 -0.22005,-0.43577 0.0438,-0.0271 0.0901,-0.0373 0.13495,-0.0342 z m -58.718059,0.28889 c -0.0074,0.0215 -0.01482,0.043 -0.02223,0.0645 0.0037,-0.004 0.0091,-0.006 0.01138,-0.0114 0.0052,-0.0105 0.0088,-0.0221 0.01085,-0.0336 0.0011,-0.006 -9.5e-5,-0.012 0,-0.0195 z m 75.028449,1.33006 c 0.0216,0.004 0.0455,0.0133 0.0705,0.0287 0.0997,0.0616 0.18103,0.14792 0.18103,0.19187 0,0.0439 -0.0814,0.0797 -0.18103,0.0797 -0.0997,0 -0.18102,-0.0864 -0.18102,-0.19187 0,-0.0791 0.0456,-0.11932 0.11056,-0.1084 z m -20.090838,0.76314 c -0.0071,0.0366 -0.0057,0.0525 0.03306,0.10298 -0.0067,-0.0232 -0.02159,-0.0675 -0.03306,-0.10298 z m -46.562093,0.47479 c 0.02137,-0.004 0.04874,-0.001 0.08184,0.01 0.118259,0.0394 0.247714,0.1691 0.287258,0.28726 0.108027,0.32542 -0.266104,0.25704 -0.392407,-0.0721 -0.05079,-0.13235 -0.04083,-0.21197 0.02331,-0.22493 z m 9.403692,0.2103 c 0.04039,0.008 0.06612,0.0431 0.06612,0.0992 0,0.0996 -0.08192,0.23155 -0.18157,0.29322 -0.09965,0.0617 -0.181027,0.0303 -0.181027,-0.0694 0,-0.0997 0.08138,-0.23166 0.181027,-0.29322 0.02492,-0.0154 0.0488,-0.0251 0.07046,-0.0293 0.01623,-0.003 0.03152,-0.003 0.04499,-5.6e-4 z m -57.2118442,0.41951 c -0.00837,0.12736 -0.00496,0.13449 -0.00488,0.18319 0.00756,-0.0327 0.00975,-0.0626 0.00976,-0.1458 1.4e-6,-0.0126 -0.00406,-0.0499 -0.00488,-0.0374 z m -0.018429,0.23089 c -0.00108,0.003 -0.00216,0.005 -0.00325,0.008 -0.00125,0.006 -0.00569,0.023 -0.00379,0.0173 0.00438,-0.0131 0.00382,-0.0151 0.00705,-0.0249 z m 62.3971542,0.24119 c 0.111509,0.0159 0.23723,0.11387 0.293222,0.28184 0.03944,0.11835 -0.05739,0.21517 -0.215174,0.21517 -0.157783,0 -0.287261,-0.12893 -0.287261,-0.28672 0,-0.15996 0.0977,-0.22622 0.209213,-0.21029 z m -24.382934,3.38966 c -0.10012,0.0427 -0.199994,0.0856 -0.286175,0.15068 -0.07733,0.0584 0.190756,-0.0472 0.274251,-0.0965 0.01,-0.006 0.009,-0.007 0.0179,-0.0119 -0.0022,-0.0143 -0.0029,-0.0282 -0.006,-0.0423 z m 0.09214,0.0358 c -0.01163,0.018 -0.0313,0.0522 -0.04932,0.0835 1.36e-4,0.003 2.64e-4,0.007 5.55e-4,0.0103 0.0136,-0.019 0.02806,-0.0377 0.03957,-0.0575 0.003,-0.0121 0.0062,-0.0242 0.0092,-0.0363 z m -0.071,0.12086 c -0.0078,0.014 -0.009,0.0141 -0.0179,0.0304 -0.0051,0.009 0.01657,-0.0238 0.01843,-0.026 -6.7e-5,-10e-4 -5.55e-4,-0.003 -5.55e-4,-0.004 z m 17.338023,4.22489 c -0.0031,0.0122 -0.0058,0.0246 -0.0087,0.0369 8.33e-4,-0.002 0.0019,-0.005 0.0028,-0.007 0.0028,-0.01 0.0028,-0.0137 0.006,-0.0298 z m -0.0542,0.28509 c -0.01096,0.0327 -0.01487,0.0495 -0.03794,0.11544 -0.01215,0.0347 0.02434,-0.0698 0.03631,-0.1046 5.55e-4,-0.004 0.0011,-0.007 0.0017,-0.0109 z m -0.248779,1.43088 c -0.04452,0.11159 -0.0091,0.0462 -0.0043,0.0255 0.0019,-0.008 0.0025,-0.017 0.0043,-0.0255 z m -45.280266,1.34307 c -0.01066,0.006 -0.01321,0.007 -0.01897,0.0119 -0.0099,0.008 -0.03371,0.0379 -0.02385,0.0298 0.01546,-0.0126 0.02803,-0.0284 0.04282,-0.0417 z m -0.302977,0.25149 c 0.0014,10e-4 -0.01407,0.011 -0.01951,0.0179 -0.01515,0.0191 -0.05994,0.0764 -0.04173,0.0602 0.02303,-0.0206 0.03783,-0.0489 0.05691,-0.0732 0.0025,-0.003 0.002,-0.002 0.0043,-0.005 z m 61.241067,0.62384 c 0.09869,0.0138 0.198427,0.0226 0.297015,0.0369 -0.09509,-0.025 -0.196372,-0.0254 -0.297015,-0.0369 z m -61.877375,0.11111 c -0.0042,0.004 -0.0083,0.007 -0.01247,0.0109 0.0068,-0.001 0.01379,-0.002 0.0206,-0.004 -0.0032,-0.002 -0.0052,-0.005 -0.0081,-0.007 z m 71.332014,0.29268 c -0.02103,0.002 -0.04191,0.007 -0.06233,0.0135 -0.04136,0.0367 -0.067,0.0667 -0.01787,0.0607 0.07348,-0.009 0.146474,-0.0286 0.218967,-0.052 -0.04839,-0.0129 -0.09694,-0.0259 -0.138752,-0.0222 z m -0.06829,0.0146 c -0.02686,0.008 -0.05276,0.0191 -0.07751,0.032 -0.049,0.0256 -0.07867,0.0499 -0.116529,0.0764 0.0748,0.009 0.134101,-0.0483 0.194036,-0.1084 z m -10.899068,0.2065 c -0.05533,-8.3e-4 -0.103833,0.067 -0.14363,0.24661 0.104943,2e-5 0.209929,0 0.314903,0 -0.04986,-0.0772 -0.09076,-0.15331 -0.124119,-0.22818 -0.01604,-0.008 -0.03207,-0.0182 -0.04715,-0.0184 z m 10.632404,0.0195 c 0.0019,-5.6e-4 -0.02098,0.002 -0.08076,0.006 -0.01016,0.004 -0.0074,0.002 -0.01682,0.006 0.05224,-0.007 0.09525,-0.0114 0.09756,-0.0119 z m -7.414554,0.005 c 0.0051,0.003 0.01013,0.006 0.01518,0.01 0.02442,-0.006 0.0069,-0.002 -0.01518,-0.01 z m 6.715916,0.29919 c -0.05467,-0.006 -0.02492,-0.005 -0.10569,10e-4 -0.0051,2.7e-4 -0.01382,0.002 -0.02167,0.004 0.04254,-5.6e-4 0.08493,-0.004 0.127368,-0.005 z m -13.974373,0.18753 c 0.0069,0.002 0.01374,0.003 0.02059,0.005 0.01329,0.003 0.02708,0.008 0.04065,0.006 0.0077,-0.001 -0.01354,-0.007 -0.02115,-0.009 -0.01951,-0.003 -0.02802,-5.5e-4 -0.04011,-0.002 z m -50.623297,0.0206 c 0.02332,0.0143 0.04635,0.0289 0.06992,0.0428 0.02138,0.0126 -0.04111,-0.0281 -0.06287,-0.0401 -0.0015,-8.4e-4 -0.005,-0.002 -0.007,-0.003 z m 60.081732,0.28834 c 0.01584,0.007 0.0085,0.004 0.02926,0.0119 0.0028,0.001 -0.0017,-0.007 -0.0043,-0.008 -0.0056,-0.002 -0.01643,-0.003 -0.02492,-0.004 z m 2.473144,0.0878 c 0.0072,5.5e-4 0.0386,0.002 0.05908,0.003 0.01537,-0.001 0.0094,-0.001 0.02708,-0.003 -0.08124,-0.002 -0.101028,-0.002 -0.08618,-5.6e-4 z m -0.366394,0.25473 c -0.0073,0.005 -0.0092,0.006 -0.01679,0.0114 -0.02029,0.0146 -0.04496,0.0463 -0.06775,0.0781 0.03603,-0.037 0.05746,-0.0604 0.08455,-0.0894 z" />
    <path
       inkscape:connector-curvature="0"
       id="path77"
       d="m 20.377239,286.00483 c -1.665314,-0.36196 -2.379506,-0.76175 -3.645494,-2.04058 l -1.143591,-1.1552 -0.632909,0.51122 c -2.540488,2.05201 -3.693609,2.32304 -9.8835332,2.32304 -2.5577189,0 -4.69225726,-0.042 -4.74342112,-0.0931 -0.0891959,-0.0891 7.56456112,-27.39715 7.77353482,-27.73528 0.056689,-0.0918 2.2188585,-0.1644 4.8903225,-0.1644 4.332415,0 4.878591,0.0342 5.731969,0.3584 0.842668,0.32019 0.97539,0.32934 1.244576,0.0858 0.259853,-0.23516 1.632612,-0.27507 9.974955,-0.28996 20.97572,-0.0374 26.992375,0.0385 27.108945,0.34228 0.05864,0.15282 0.02226,2.02893 -0.08087,4.16914 -0.141873,2.94455 -0.248087,3.92968 -0.436557,4.04906 -0.136987,0.0867 -1.166305,0.15901 -2.287374,0.16053 -1.236233,10e-4 -2.038307,0.074 -2.038307,0.18396 0,0.10984 0.802074,0.18228 2.038307,0.18396 1.121069,10e-4 2.144107,0.0699 2.273417,0.15192 0.191969,0.12182 0.165279,1.74191 -0.145472,8.82989 -0.209318,4.7744 -0.418586,8.86419 -0.465039,9.0884 l -0.08446,0.40767 H 41.589873 c -14.08399,0 -14.237379,-0.004 -14.331125,-0.36237 -0.100289,-0.38348 -0.325302,-0.47267 -0.495944,-0.19657 -0.162209,0.26246 -2.440616,1.06388 -3.621148,1.27374 -1.28958,0.22924 -1.341784,0.22769 -2.76442,-0.0815 z m 3.973244,-2.08057 c 0.958624,-0.35866 2.185414,-1.43986 2.983393,-2.62933 0.877989,-1.30875 1.374316,-3.57257 2.681302,-12.22985 0.491109,-3.25304 0.761616,-4.90383 1.179236,-7.19643 0.221806,-1.21765 0.355391,-2.33871 0.296852,-2.49126 -0.08626,-0.22479 -0.468901,-0.27736 -2.018425,-0.27736 -1.810265,0 -1.921285,0.0216 -2.086657,0.40766 -0.09607,0.2242 -0.499676,2.32366 -0.896909,4.66546 -0.397237,2.34179 -0.799116,4.66412 -0.893069,5.16076 -0.238361,1.25997 -0.0033,1.52563 0.714816,0.80759 0.254458,-0.25447 0.554594,-0.35526 0.944136,-0.31708 0.501654,0.0491 0.588539,0.14059 0.714644,0.75191 0.115574,0.56027 0.07277,0.79535 -0.219623,1.20596 -0.444534,0.62429 -0.911739,0.55389 -1.525082,-0.22983 -0.246553,-0.31502 -0.536696,-0.5069 -0.682141,-0.45108 -0.167786,0.0644 -0.423136,1.03535 -0.757553,2.88056 -0.7863,4.33853 -1.170223,5.22938 -2.253667,5.22938 -0.719141,0 -0.942152,-0.30866 -0.942152,-1.30404 0,-0.47806 0.622733,-4.11032 1.383853,-8.07169 2.114972,-11.00777 2.011835,-10.35813 1.678036,-10.56948 -0.139454,-0.0883 -0.753186,-0.16178 -1.363848,-0.16331 -0.94677,-0.003 -1.152854,0.0573 -1.399274,0.40489 -0.284414,0.40121 -0.293366,0.40209 -0.566328,0.0549 -0.180857,-0.22994 -0.339029,-0.29094 -0.454653,-0.17531 -0.09752,0.0974 -0.631876,2.33528 -1.187463,4.97278 -0.555585,2.63752 -1.251186,5.93695 -1.54578,7.33205 -1.389333,6.57945 -1.46759,7.05038 -1.389379,8.3611 0.06145,1.02987 0.183535,1.46294 0.596309,2.1154 0.613608,0.96991 2.255517,1.98247 2.255517,1.39097 0,-0.0996 -0.122298,-0.18117 -0.271775,-0.18117 -0.149476,0 -0.271775,-0.0815 -0.271775,-0.18119 0,-0.0996 0.19902,-0.18118 0.442264,-0.18118 0.472664,0 0.851453,-0.38409 0.49573,-0.50265 -0.442822,-0.14762 -0.191442,-0.40498 0.284991,-0.29179 0.581409,0.13814 1.132394,0.57298 1.132394,0.89373 0,0.12331 0.122298,0.27124 0.271773,0.3286 0.149477,0.0573 0.271775,0.26991 0.271775,0.47234 0,0.30801 0.117085,0.36805 0.717936,0.36805 0.394864,0 1.151132,-0.16208 1.680596,-0.36019 z m -6.112781,-5.73534 c -0.270597,-0.27058 -0.271773,-0.32352 -0.01293,-0.58235 0.258831,-0.25884 0.311674,-0.25776 0.581265,0.0123 0.296117,0.29611 0.232371,0.86819 -0.09673,0.86819 -0.09566,0 -0.307874,-0.13393 -0.471585,-0.29764 z m -6.522582,4.94899 c 1.894706,-0.87677 3.080885,-2.39829 3.767409,-4.83249 0.309012,-1.09567 1.673687,-7.30905 2.38765,-10.87098 0.24968,-1.24563 0.576226,-2.71321 0.725662,-3.26129 0.567135,-2.08006 0.246392,-3.78867 -0.864111,-4.60313 -0.437683,-0.32101 -0.815999,-0.37704 -2.802965,-0.41522 -1.652597,-0.0317 -2.400155,0.0225 -2.664726,0.19366 -0.721412,0.46649 -1.332672,0.50787 -1.723849,0.11665 -0.412305,-0.4123 -1.4879434,-0.49691 -1.7627701,-0.13864 -0.3064848,0.39952 -1.1389143,3.18247 -1.1389143,3.80757 0,0.33233 -0.091154,0.69537 -0.202559,0.80678 -0.1114092,0.11148 -0.3478969,0.80036 -0.5255315,1.53099 -0.1776345,0.73065 -0.7851796,2.99985 -1.3501011,5.0427 -0.5649186,2.04283 -1.2193538,4.48879 -1.4542985,5.43548 -0.2349433,0.94669 -0.5645647,2.1695 -0.7324911,2.71739 -0.5860871,1.9122 -1.2994692,4.8841 -1.1969863,4.9866 0.056814,0.0568 1.9816335,0.0771 4.2773877,0.0451 4.1239832,-0.0575 4.1871482,-0.0643 5.2611942,-0.56122 z m -1.540056,-0.84649 c 0,-0.0996 0.122299,-0.18117 0.271775,-0.18117 0.149477,0 0.271775,0.0815 0.271775,0.18117 0,0.0996 -0.122298,0.18119 -0.271775,0.18119 -0.149474,0 -0.271775,-0.0815 -0.271775,-0.18119 z m -2.2537898,-3.06231 c -0.11989,-0.19398 3.5080188,-14.86284 3.7572468,-15.19185 0.220463,-0.29103 1.976149,-0.29807 2.265148,-0.009 0.119576,0.11964 0.217418,0.41085 0.217418,0.64724 0,0.57401 -0.909436,4.74763 -1.988051,9.12367 -0.929859,3.77249 -1.400228,4.82513 -2.3832604,5.33348 -0.560058,0.28962 -1.7123742,0.34915 -1.8685014,0.0965 z m 1.7102419,-14.96538 c -0.1926098,-0.23207 -0.1396857,-0.27177 0.3623666,-0.27177 0.5020513,0 0.5549753,0.0397 0.3623653,0.27177 -0.124054,0.14948 -0.287119,0.27179 -0.3623653,0.27179 -0.075243,0 -0.2383127,-0.12237 -0.3623666,-0.27179 z m 20.4736629,19.26903 c 0.149475,0.004 1.014871,0.0639 1.9231,0.13189 l 1.651326,0.12373 0.124994,-0.66627 c 0.132315,-0.70531 0.318112,-2.4872 0.322762,-3.09544 0.0015,-0.1993 0.07484,-0.56619 0.16295,-0.81532 0.0881,-0.24912 0.236109,-1.00225 0.328908,-1.67361 0.169261,-1.22453 0.814713,-2.49184 1.115628,-2.19048 0.08229,0.0824 0.366353,1.29129 0.631242,2.68641 0.264887,1.3951 0.560398,2.86268 0.656692,3.26128 0.09628,0.39861 0.230254,1.09163 0.297691,1.54006 l 0.122611,0.81532 2.581855,0.0502 c 2.477226,0.0481 2.581857,0.0356 2.581857,-0.31184 0,-0.19916 -0.31897,-1.68936 -0.70882,-3.31157 -0.389851,-1.6222 -0.92367,-3.88707 -1.186265,-5.03305 -0.262593,-1.14598 -0.684529,-2.96008 -0.937635,-4.03133 l -0.460192,-1.94774 1.08785,-1.94769 c 0.598316,-1.07125 1.824984,-3.24518 2.725925,-4.83098 0.900944,-1.58579 1.596619,-2.95036 1.545948,-3.03233 -0.05068,-0.0819 -0.859247,-0.13682 -1.796835,-0.12183 -1.699721,0.0273 -1.705227,0.0287 -1.88383,0.54109 -0.154916,0.44438 -0.273446,0.51384 -0.876983,0.51384 h -0.697859 l -1.340875,2.35537 c -0.737483,1.29546 -1.406075,2.35538 -1.485761,2.35538 -0.187465,0 -0.181417,-0.55333 0.0208,-1.90243 0.08961,-0.5979 0.211662,-1.42983 0.271206,-1.84873 l 0.108265,-0.76165 -1.00303,0.0557 c -1.580465,0.0877 -1.502197,-0.42432 0.09344,-0.61128 0.583104,-0.0683 0.830421,-0.18502 0.873906,-0.41235 0.05493,-0.28713 -0.136381,-0.31707 -2.025549,-0.31707 -1.147408,0 -2.130314,0.0713 -2.184237,0.15863 -0.05393,0.0873 -0.386671,2.06441 -0.739439,4.39368 -0.352768,2.32928 -0.921399,5.98801 -1.263629,8.13049 -0.342226,2.14248 -0.672847,4.34386 -0.734708,4.89193 -0.06186,0.54808 -0.264707,1.93413 -0.450766,3.08011 -0.186057,1.14598 -0.383733,2.52119 -0.439275,3.05602 -0.09809,0.94449 -0.08927,0.96872 0.306984,0.84304 0.224385,-0.0712 0.530271,-0.12564 0.679747,-0.12114 z m 1.993012,-3.05316 c 0,-0.0996 0.08154,-0.18118 0.181182,-0.18118 0.09965,0 0.181183,0.0815 0.181183,0.18118 0,0.0996 -0.08154,0.18118 -0.181183,0.18118 -0.09965,0 -0.181182,-0.0815 -0.181182,-0.18118 z m 2.235041,-12.24203 c -0.130765,-0.34075 0.189871,-0.71234 0.466915,-0.54111 0.298644,0.18456 0.236159,0.82508 -0.08049,0.82508 -0.152603,0 -0.326494,-0.12782 -0.386423,-0.28397 z m 20.010839,15.18626 c 0.07162,-0.17439 0.130208,-1.377 0.130208,-2.67245 V 278.396 l -2.717743,-0.0906 -2.717742,-0.0906 0.02538,-1.68623 c 0.01396,-0.92743 0.08167,-1.74275 0.15047,-1.81183 0.06879,-0.069 1.361094,-0.16636 2.871769,-0.21619 l 2.746683,-0.0906 0.109395,-0.81532 c 0.06017,-0.44842 0.101736,-1.75294 0.09237,-2.89893 l -0.01703,-2.0836 -2.485878,-0.009 c -1.367234,-0.005 -2.540598,-0.0644 -2.607476,-0.13136 -0.174956,-0.17494 -0.08197,-2.97555 0.116105,-3.4965 0.165656,-0.43573 0.186278,-0.43907 2.697285,-0.43907 1.391695,0 2.571612,-0.0667 2.622038,-0.14835 0.05043,-0.0815 0.148916,-1.30459 0.218864,-2.71775 l 0.127171,-2.56939 -0.978199,-0.0155 c -1.919717,-0.0303 -2.974249,0.0488 -3.205146,0.24041 -0.167946,0.13937 -0.293828,0.13503 -0.444119,-0.0152 -0.245205,-0.2452 -4.952514,-0.29923 -5.101267,-0.0585 -0.08291,0.13421 -0.363086,2.91584 -1.280472,12.71278 -0.144635,1.54459 -0.356284,3.80486 -0.47033,5.02283 -0.11405,1.21798 -0.230383,2.5225 -0.258526,2.89892 -0.02815,0.37644 -0.113329,1.39785 -0.189308,2.26978 l -0.138137,1.58536 h 5.286717 c 4.864581,0 5.297115,-0.0253 5.416918,-0.31707 z m -3.76523,-14.18825 c 0,-0.10549 0.08154,-0.1415 0.181184,-0.0799 0.09965,0.0616 0.181184,0.14793 0.181184,0.19186 0,0.044 -0.08154,0.0799 -0.181184,0.0799 -0.09965,0 -0.181184,-0.0863 -0.181184,-0.19186 z m -7.176506,0.98634 c 0.533638,-5.13659 0.534015,-5.14286 0.306522,-5.14286 -0.218891,0 -2.370341,3.95758 -2.370341,4.36022 0,0.31728 1.013497,4.94027 1.185735,5.40865 0.23967,0.65175 0.43873,-0.39697 0.878084,-4.62601 z m 34.655869,15.31746 c -0.581316,-0.19998 -1.374638,-0.56414 -1.762936,-0.80926 -0.916151,-0.57835 -1.218825,-0.56601 -1.290003,0.0525 l -0.05733,0.49825 -7.816044,0.0472 c -6.158241,0.0371 -7.833178,-0.001 -7.896836,-0.18118 -0.161737,-0.45719 0.751638,-27.01168 0.935422,-27.19546 0.121018,-0.121 5.510586,-0.17081 15.905254,-0.14693 8.647213,0.0198 21.144106,0.0298 27.770869,0.022 18.83788,-0.022 20.3544,-0.004 20.60366,0.24164 0.25772,0.25425 7.67439,26.95365 7.5453,27.1625 -0.0479,0.0774 -8.30431,0.1408 -18.34771,0.1408 -17.912471,0 -18.266817,-0.006 -18.582375,-0.35548 -0.31953,-0.35308 -0.323686,-0.35304 -0.616929,0.005 -0.280923,0.3432 -0.488408,0.35823 -4.281254,0.31017 -3.978338,-0.0503 -3.986135,-0.0513 -4.04392,-0.45816 -0.06054,-0.42626 -0.466261,-0.55101 -0.677967,-0.20846 -0.06771,0.10957 -0.622866,0.43562 -1.233678,0.7246 -1.01951,0.4823 -1.273973,0.52488 -3.103577,0.51944 -1.511432,-0.004 -2.248402,-0.0938 -3.04995,-0.36949 z m 6.017103,-1.85227 c 0.420741,-0.27871 0.813873,-0.6456 0.873629,-0.81532 0.05975,-0.16973 0.249518,-0.47165 0.421699,-0.67094 0.927228,-1.07331 1.024908,-3.02517 0.4443,-8.87797 -0.09193,-0.92669 -0.231732,-2.68816 -0.718994,-9.05915 -0.152428,-1.993 -0.321563,-3.96664 -0.375859,-4.38586 l -0.09873,-0.76219 -1.908384,0.0625 c -1.049611,0.0343 -1.993008,0.14705 -2.096434,0.25047 -0.129948,0.12999 -0.0415,2.41756 0.286249,7.40356 0.769735,11.71002 0.750101,11.1326 0.401405,11.80691 -0.272526,0.527 -0.380132,0.58679 -0.967212,0.53733 -1.123234,-0.0946 -1.303988,-0.63943 -1.502582,-4.52913 -0.404374,-7.9204 -0.562771,-10.21227 -0.716405,-10.36595 -0.08997,-0.09 -0.09635,-0.29384 -0.01417,-0.45296 0.08218,-0.15912 0.09874,-1.2677 0.03682,-2.46351 l -0.112608,-2.17419 -1.811829,-0.005 c -0.996508,-0.003 -1.961661,0.0646 -2.14479,0.15077 -0.311885,0.14662 -0.324987,0.35913 -0.206975,3.35765 0.09143,2.3229 0.194182,3.27289 0.374554,3.46271 0.204195,0.21489 0.206647,0.31193 0.01376,0.54355 -0.327999,0.39382 0.107625,11.59566 0.503671,12.95181 0.511289,1.75069 1.821414,3.37712 3.181028,3.94897 1.495592,0.62906 1.792209,0.68249 3.547052,0.63889 1.656084,-0.0411 1.896931,-0.0924 2.590801,-0.55211 z m -5.503715,-1.39569 c -0.06158,-0.0996 0.01515,-0.18117 0.170491,-0.18117 0.155356,0 0.282469,0.0815 0.282469,0.18117 0,0.0996 -0.07671,0.18119 -0.170492,0.18119 -0.09377,0 -0.220878,-0.0815 -0.282468,-0.18119 z m 19.347643,1.36774 c 0.305642,-0.20026 0.574029,-0.22288 1.126019,-0.0949 0.398602,0.0924 1.152776,0.16995 1.675946,0.17233 1.22167,0.005 1.21883,-0.10535 -0.0621,-2.44165 -0.54639,-0.9965 -1.247077,-2.36217 -1.557079,-3.0348 -0.479929,-1.04135 -0.632059,-1.22299 -1.024257,-1.22299 -0.442985,0 -0.447151,-0.009 -0.108905,-0.26116 0.340388,-0.25276 0.316727,-0.33 -0.735392,-2.40068 -1.034425,-2.03584 -1.116394,-2.14232 -1.691629,-2.19745 -0.442904,-0.0425 -0.684758,-0.19774 -0.904601,-0.58078 -0.165036,-0.28756 -0.46372,-0.60248 -0.663747,-0.69983 -0.276398,-0.13448 -0.294322,-0.17992 -0.0747,-0.18924 0.473051,-0.02 0.837028,-0.5934 0.929099,-1.46351 0.0789,-0.74566 2.170823,-7.50376 2.814643,-9.09291 0.392382,-0.96853 0.228455,-1.224 -0.74848,-1.16645 -0.445965,0.0263 -0.942774,0.15727 -1.104016,0.29108 -0.22206,0.18428 -0.344043,0.19244 -0.502911,0.0337 -0.32443,-0.32444 -1.953678,-0.26176 -2.342492,0.0901 -0.182235,0.16493 -0.331335,0.38835 -0.331335,0.49653 0,0.19209 -0.953679,3.332 -1.31273,4.32203 -0.401005,1.10573 -0.641376,0.45043 -0.780896,-2.1289 -0.12811,-2.36841 -0.169105,-2.52678 -0.718892,-2.77727 -0.553068,-0.252 -3.823718,-0.28691 -3.974811,-0.0425 -0.05773,0.0933 0.02209,1.41831 0.177348,2.94422 0.155264,1.52593 0.363755,3.79357 0.463309,5.0392 0.09955,1.24563 0.343926,3.97696 0.543049,6.06963 0.199124,2.09266 0.445415,4.86477 0.547317,6.16021 0.101894,1.29547 0.24172,2.40277 0.31071,2.46072 0.06898,0.058 0.46351,0.20137 0.876712,0.31872 0.413204,0.11733 0.802397,0.34662 0.864885,0.50944 0.184702,0.48132 -0.04448,0.51692 -0.614551,0.0954 -0.625541,-0.46247 -0.91102,-0.50101 -0.91102,-0.12305 0,0.16765 0.170117,0.27179 0.443952,0.27179 0.244176,0 0.519444,0.13489 0.61171,0.29977 0.107367,0.19183 0.281955,0.25594 0.484926,0.17806 0.17444,-0.067 0.429257,-0.0287 0.566254,0.0851 0.308168,0.25577 2.222335,0.12373 2.401152,-0.16556 0.06944,-0.11229 -0.02285,-1.73129 -0.205118,-3.59761 -0.259373,-2.65603 -0.285653,-3.5037 -0.120951,-3.90134 0.115738,-0.2794 0.28125,-0.508 0.367822,-0.508 0.173931,0 0.699252,1.10352 2.458114,5.16371 1.4259,3.29156 1.835512,3.73902 2.827679,3.08897 z m 15.373865,-0.0668 c 0.13073,-0.13942 -0.76087,-4.71127 -0.98689,-5.06049 -0.10606,-0.16388 -0.86626,-0.22648 -2.75011,-0.22648 -1.963,0 -2.66458,-0.0611 -2.85175,-0.24826 -0.13654,-0.13654 -0.35732,-0.9198 -0.4906,-1.74057 -0.20558,-1.26584 -0.20423,-1.51647 0.008,-1.6514 0.13815,-0.0876 1.36743,-0.16032 2.73174,-0.16184 1.36433,-10e-4 2.51875,-0.0645 2.56539,-0.13999 0.0899,-0.14537 -0.94498,-5.50618 -1.0927,-5.66064 -0.0476,-0.0498 -1.28274,-0.13135 -2.74467,-0.18118 l -2.65803,-0.0906 -0.22627,-0.9059 c -0.12443,-0.49826 -0.24674,-1.35435 -0.27177,-1.90243 l -0.0455,-0.99652 2.44246,-0.0509 c 1.34334,-0.028 2.51138,-0.11977 2.5956,-0.20399 0.15781,-0.15781 -0.31138,-3.03369 -0.61985,-3.79931 -0.15973,-0.39645 -0.241,-0.42042 -1.02756,-0.30325 -1.19172,0.17757 -1.67627,0.16523 -1.88963,-0.0481 -0.12426,-0.12426 0.002,-0.28024 0.39213,-0.48162 1.16715,-0.60355 0.6303,-0.72681 -3.40576,-0.78195 -3.124544,-0.0428 -3.855951,-0.005 -3.933744,0.19659 -0.08163,0.21271 1.955974,13.98052 2.753974,18.60828 0.14607,0.84701 0.31095,1.80503 0.3664,2.12889 0.0581,0.33947 0.20943,0.58884 0.35728,0.58884 0.14103,0 0.33127,0.19686 0.42275,0.43745 0.0915,0.24061 0.33405,0.49069 0.53906,0.55577 0.65829,0.20893 0.30294,0.63743 -0.5286,0.63743 -0.40353,0 -0.51201,0.28649 -0.37732,0.9965 0.0901,0.47495 0.19443,0.55498 0.82677,0.63415 1.03676,0.1297 9.76018,-10e-4 9.8984,-0.14851 z m -10.23655,-3.60086 c -0.20404,-0.20405 -0.12427,-0.41784 0.15591,-0.41784 0.14948,0 0.27178,0.0768 0.27178,0.17049 0,0.22847 -0.28293,0.39209 -0.42769,0.24735 z m 0.1476,-19.63665 c -0.14012,-0.22674 0.70091,-0.53012 1.46957,-0.53012 0.61486,0 0.81422,0.2224 0.41855,0.46694 -0.32395,0.20022 -1.77345,0.24872 -1.88812,0.0631 z m 16.15652,23.33288 c 0.0931,-0.0931 0.008,-0.58372 -0.6499,-3.7517 -0.68734,-3.30924 -0.45111,-3.13708 0.99445,0.72472 0.57818,1.5446 1.13774,2.92043 1.24347,3.05745 0.1493,0.1935 0.51509,0.22219 1.63828,0.12849 0.79533,-0.0663 1.4797,-0.15424 1.52079,-0.19533 0.0411,-0.0411 -0.0574,-1.36465 -0.21875,-2.94121 -0.16141,-1.57656 -0.29348,-3.02351 -0.29348,-3.21543 0,-0.8121 0.37442,0.14352 0.99201,2.53186 0.36076,1.39512 0.7367,2.84232 0.83545,3.21601 l 0.17953,0.67944 1.94073,-0.0181 c 2.30762,-0.0215 2.85364,-0.1426 2.82828,-0.62741 -0.0156,-0.29961 -1.4571,-5.93515 -2.59228,-10.13491 -0.52535,-1.9436 -2.89869,-10.88057 -3.29419,-12.40446 -0.19303,-0.74377 -0.43543,-1.43679 -0.53865,-1.54005 -0.10321,-0.10331 -1.00128,-0.2 -1.99566,-0.21498 -1.37789,-0.0207 -1.8714,0.0362 -2.0746,0.23943 -0.14665,0.14666 -0.26665,0.1882 -0.26665,0.0923 0,-0.22164 -1.25807,-0.37702 -1.38535,-0.17109 -0.0523,0.0846 0.0429,1.85679 0.21152,3.9382 0.16863,2.0814 0.26826,3.89201 0.22139,4.02357 -0.11246,0.31568 -0.45006,-0.44697 -1.65856,-3.74683 -1.70984,-4.66872 -1.42736,-4.21537 -2.71136,-4.35129 -1.41778,-0.15009 -4.23633,-0.0261 -4.44456,0.19552 -0.13957,0.14855 1.95625,11.06735 3.05822,15.93265 0.20313,0.89687 0.53435,2.44598 0.73605,3.44248 1.11557,5.51155 0.97207,5.11128 1.86424,5.19995 0.85315,0.0847 3.75257,0.0177 3.85958,-0.0895 z m 1.6271,-12.37271 c -0.0605,-0.15762 -0.10726,-0.46337 -0.10394,-0.67943 0.006,-0.39157 0.007,-0.39146 0.36237,0.0348 0.19598,0.23524 0.35633,0.54099 0.35633,0.67942 0,0.34558 -0.47919,0.31838 -0.61475,-0.0348 z m -1.67811,-0.35536 c -0.14672,-0.38235 0.0982,-0.58878 0.30692,-0.2587 0.22181,0.35072 0.21736,0.53828 -0.0128,0.53828 -0.10279,0 -0.23515,-0.12577 -0.29416,-0.27958 z m -0.42488,-1.72411 c 0,-0.10548 0.0815,-0.14149 0.18118,-0.0799 0.0996,0.0616 0.18118,0.14793 0.18118,0.19187 0,0.0439 -0.0815,0.0799 -0.18118,0.0799 -0.0996,0 -0.18118,-0.0863 -0.18118,-0.19187 z m -53.491232,9.65868 c 0.02657,-2.61584 0.112294,-4.75605 0.190522,-4.75605 0.07822,0 0.32923,0.42804 0.557805,0.9512 0.259354,0.59363 0.450992,0.84904 0.509759,0.67944 0.119249,-0.34415 0.593142,-0.72473 0.902436,-0.72473 0.150233,0 0.237144,0.23241 0.237144,0.63414 0,0.34878 0.06115,0.63466 0.135882,0.63529 0.07474,5.1e-4 0.281153,0.25633 0.458699,0.56822 0.301255,0.52923 0.3027,0.58932 0.02167,0.89986 -0.203198,0.22453 -0.266923,0.50389 -0.19592,0.8589 0.06465,0.32331 0.0061,0.65698 -0.151789,0.86554 -0.371759,0.49091 -0.323984,0.9595 0.189375,1.85754 0.335364,0.58667 0.402648,0.85475 0.258208,1.02878 -0.142202,0.17135 -0.117043,0.38679 0.09247,0.79195 l 0.28781,0.55655 h 2.287371 2.287369 l -0.120051,-4.66545 c -0.321846,-12.50713 -0.334235,-12.75516 -0.641921,-12.85159 -0.158951,-0.0498 -0.452069,-0.16412 -0.651369,-0.25403 -0.80908,-0.36503 -1.876167,-0.67543 -1.976632,-0.57497 -0.05883,0.0588 -0.106972,0.25164 -0.106972,0.42846 0,0.80408 -0.840519,0.50392 -0.940454,-0.33587 -0.03083,-0.25906 -0.162515,-0.506 -0.292638,-0.54875 -0.179219,-0.059 -0.223154,0.15739 -0.181181,0.89194 0.04745,0.83041 0.107447,0.96967 0.417768,0.96967 0.339194,0 0.363759,0.12809 0.384154,2.00253 0.01909,1.75378 -0.02796,2.09138 -0.378613,2.71775 -0.220221,0.39335 -0.474622,0.71521 -0.565336,0.71521 -0.09072,0 -0.207573,-0.93762 -0.259684,-2.0836 -0.06318,-1.38944 -0.220805,-2.47597 -0.473117,-3.26129 -0.518721,-1.61454 -1.469639,-4.9247 -1.809207,-6.29786 -0.161494,-0.65307 -0.408512,-1.20038 -0.58234,-1.29027 -0.422299,-0.21839 -3.785991,-0.24734 -3.918007,-0.0338 -0.05957,0.0964 -0.126409,1.54674 -0.148515,3.22297 -0.03884,2.94386 -0.02584,3.06611 0.380726,3.58742 0.329478,0.42246 0.64438,0.57998 1.449463,0.72511 0.981221,0.17687 1.031151,0.2123 1.085314,0.77003 0.03814,0.39267 -0.02191,0.58461 -0.182894,0.58461 -0.131827,0 -0.341509,0.16306 -0.465974,0.36238 -0.124463,0.19929 -0.321105,0.36236 -0.436977,0.36236 -0.480098,0 -0.87335,0.6082 -0.87335,1.35071 0,1.05466 -0.640265,1.66896 -0.757994,0.72726 -0.03153,-0.25222 -0.138861,-0.47644 -0.238512,-0.49826 -0.105978,-0.0233 -0.192363,0.50822 -0.208121,1.2803 -0.02559,1.25372 -0.0083,1.31405 0.344477,1.20207 0.297061,-0.0943 0.347794,-0.0563 0.253419,0.18962 -0.0649,0.16913 -0.117998,0.42313 -0.117998,0.56447 0,0.14131 -0.122298,0.25695 -0.271774,0.25695 -0.203124,0 -0.272331,0.2174 -0.273974,0.86062 -0.0013,0.47334 -0.05403,2.67723 -0.117384,4.89754 l -0.115193,4.03694 2.336882,-0.0509 2.336881,-0.0509 z m 1.963599,-4.78399 c -0.196808,-0.281 -0.223288,-0.48408 -0.09449,-0.72474 0.398148,-0.74395 1.424513,-0.0722 1.160525,0.75958 -0.149605,0.47138 -0.724632,0.45257 -1.066035,-0.0348 z m 35.311763,7.4565 c 0.0616,-0.0996 0.0256,-0.18118 -0.0799,-0.18118 -0.10552,0 -0.19187,0.0815 -0.19187,0.18118 0,0.0996 0.036,0.18119 0.0799,0.18119 0.0439,0 0.13028,-0.0815 0.19187,-0.18119 z M 98.422656,270.0192 c -0.717201,-4.60732 -0.696186,-4.51865 -0.995162,-4.19835 -0.323016,0.34605 -1.190571,2.69654 -1.190571,3.22563 0,0.37831 1.914531,4.23702 2.427962,4.8935 0.37382,0.47798 0.32862,-0.25366 -0.242229,-3.92078 z m -25.448101,-4.65414 c 0.05436,-0.14169 0.03141,-1.58887 -0.05098,-3.216 l -0.14983,-2.9584 -0.702162,-0.0576 c -0.679116,-0.0557 -0.698187,-0.0417 -0.581044,0.425 0.141976,0.56567 -0.142553,0.99146 -0.662531,0.99146 -0.277764,0 -0.335478,-0.0838 -0.249588,-0.36236 0.06145,-0.19931 0.161996,-0.52544 0.223445,-0.72474 0.09685,-0.3141 0.02817,-0.36236 -0.515467,-0.36236 -0.393122,0 -0.747297,0.13272 -0.94902,0.35562 -0.321783,0.35556 -0.273681,0.91266 0.0788,0.91266 0.34612,0 0.190544,0.47416 -0.356681,1.0871 -0.457913,0.51289 -0.543547,0.75899 -0.543547,1.56199 0,0.96954 0.193589,1.27984 0.742291,1.18984 0.159132,-0.0261 0.393329,0.0778 0.520437,0.231 0.127104,0.15315 0.40457,0.281 0.61658,0.28412 0.212013,0.003 0.793139,0.20621 1.291392,0.4513 1.057315,0.52012 1.156121,0.53479 1.287911,0.19136 z m -3.545332,-2.49216 c 0.0095,-0.31034 1.039509,-1.51808 1.177206,-1.38037 0.187202,0.18719 -0.541402,1.49626 -0.867781,1.55913 -0.174986,0.0338 -0.313492,-0.0463 -0.309425,-0.17876 z"
       style="fill:#241b12;stroke-width:0.18118285" />
    <path
       d="m 3.2754022,296.82187 c 0.4120904,0 0.8128722,-0.0909 1.2023458,-0.27265 0.3894693,-0.18177 0.7098461,-0.42585 0.9611182,-0.73226 v 0 l -0.7161281,-0.73225 c -0.185942,0.22331 -0.3995266,0.39469 -0.6407457,0.51414 -0.2412232,0.11944 -0.5000328,0.17916 -0.7764322,0.17916 -0.2462495,0 -0.4736535,-0.0454 -0.6822077,-0.13632 -0.208558,-0.0909 -0.3894735,-0.21422 -0.5427502,-0.37002 -0.1532807,-0.1558 -0.2738884,-0.34147 -0.3618349,-0.55699 -0.087947,-0.21552 -0.1319199,-0.44792 -0.1319199,-0.6972 0,-0.25448 0.042698,-0.48947 0.1281531,-0.70499 0.085431,-0.21553 0.2035279,-0.40248 0.3542934,-0.56088 0.1507616,-0.1584 0.3304256,-0.28304 0.5389797,-0.37392 0.2085581,-0.0909 0.4309356,-0.13633 0.6671285,-0.13633 0.2814299,0 0.5477769,0.0636 0.7990528,0.19086 0.2512758,0.12724 0.4698788,0.3103 0.6558203,0.54919 v 0 l 0.738745,-0.75563 c -0.2462459,-0.31159 -0.5678781,-0.55957 -0.9648891,-0.74394 -0.3970113,-0.18436 -0.8065863,-0.27654 -1.228729,-0.27654 -0.3919846,0 -0.7600973,0.0727 -1.1043422,0.21812 -0.3442448,0.14541 -0.6420011,0.34276 -0.893277,0.59204 -0.2512719,0.24927 -0.44977749,0.54659 -0.59551669,0.89195 -0.1457392,0.34535 -0.2186068,0.71538 -0.2186068,1.11007 0,0.39469 0.071612,0.76342 0.214836,1.10618 0.1432281,0.34275 0.34047409,0.63878 0.59174599,0.88806 0.2512759,0.24927 0.5490322,0.44662 0.893281,0.59203 0.344245,0.14541 0.7148728,0.21812 1.1118797,0.21812 z m 14.2848818,0.008 c 0.391989,0 0.75885,-0.0727 1.10058,-0.21811 0.341734,-0.14542 0.636979,-0.34406 0.885739,-0.59594 0.248761,-0.25187 0.446007,-0.55049 0.591747,-0.89584 0.145739,-0.34536 0.218606,-0.71279 0.218606,-1.10228 0,-0.38951 -0.07287,-0.75694 -0.218606,-1.10229 -0.14574,-0.34536 -0.342986,-0.64397 -0.591747,-0.89584 -0.24876,-0.25188 -0.544005,-0.45053 -0.885739,-0.59594 -0.34173,-0.14541 -0.708591,-0.21812 -1.10058,-0.21812 -0.386962,0 -0.751299,0.0727 -1.093037,0.21812 -0.341733,0.14541 -0.636974,0.34406 -0.885735,0.59594 -0.248761,0.25187 -0.446011,0.55048 -0.591746,0.89584 -0.145743,0.34535 -0.218611,0.71278 -0.218611,1.10229 0,0.38949 0.07287,0.75692 0.218611,1.10228 0.145735,0.34535 0.342985,0.64397 0.591746,0.89584 0.248761,0.25188 0.544002,0.45052 0.885735,0.59594 0.341738,0.14541 0.706075,0.21811 1.093037,0.21811 z m 0,-1.03606 c -0.236197,0 -0.456059,-0.0454 -0.659586,-0.13633 -0.203532,-0.0909 -0.379425,-0.21552 -0.527679,-0.37391 -0.148247,-0.1584 -0.265088,-0.34666 -0.350523,-0.56478 -0.08543,-0.21812 -0.128153,-0.45182 -0.128153,-0.70109 0,-0.25448 0.0427,-0.48948 0.128153,-0.705 0.08544,-0.21552 0.202276,-0.40248 0.350523,-0.56088 0.148254,-0.1584 0.324147,-0.28303 0.527679,-0.37391 0.203527,-0.0909 0.423389,-0.13633 0.659586,-0.13633 0.236201,0 0.457323,0.0454 0.663366,0.13633 0.206043,0.0909 0.383188,0.21551 0.531442,0.37391 0.148247,0.1584 0.265096,0.34536 0.350523,0.56088 0.08544,0.21552 0.128153,0.45052 0.128153,0.705 0,0.24927 -0.0427,0.48297 -0.128153,0.70109 -0.08543,0.21812 -0.202276,0.40638 -0.350523,0.56478 -0.148254,0.15839 -0.325399,0.28303 -0.531442,0.37391 -0.206043,0.0909 -0.427165,0.13633 -0.663366,0.13633 z m 16.568958,0.95038 v -0.99712 h -2.887128 v -4.45588 h -1.093041 v 5.45298 z m 13.779823,0 v -0.99712 h -2.887128 v -4.45588 h -1.093039 v 5.45298 z m 13.885357,0 v -0.98154 H 58.80176 v -1.29314 h 1.952395 v -0.95038 H 58.80176 v -1.24639 h 2.962513 v -0.98154 h -4.055549 v 5.45298 z m 12.12142,0.0779 c 0.412094,0 0.812871,-0.0909 1.202343,-0.27265 0.389472,-0.18177 0.709848,-0.42586 0.961123,-0.73226 v 0 l -0.716132,-0.73226 c -0.185941,0.22331 -0.399523,0.39469 -0.640744,0.51414 -0.241223,0.11945 -0.500033,0.17917 -0.776433,0.17917 -0.24625,0 -0.473654,-0.0454 -0.682209,-0.13633 -0.208556,-0.0909 -0.389472,-0.21422 -0.542748,-0.37002 -0.153281,-0.1558 -0.273891,-0.34146 -0.361836,-0.55698 -0.08795,-0.21553 -0.131922,-0.44793 -0.131922,-0.6972 0,-0.25448 0.0427,-0.48948 0.128151,-0.705 0.08544,-0.21552 0.203531,-0.40248 0.354299,-0.56088 0.150762,-0.1584 0.330424,-0.28303 0.538977,-0.37391 0.20856,-0.0909 0.430937,-0.13633 0.667131,-0.13633 0.281429,0 0.54778,0.0636 0.799052,0.19085 0.251275,0.12724 0.469876,0.3103 0.655818,0.5492 v 0 L 76.10946,292.226 c -0.246245,-0.3116 -0.567878,-0.55958 -0.964885,-0.74394 -0.397015,-0.18436 -0.80659,-0.27655 -1.228733,-0.27655 -0.391985,0 -0.760098,0.0727 -1.104342,0.21812 -0.344246,0.14541 -0.642001,0.34276 -0.893278,0.59204 -0.25127,0.24928 -0.449778,0.54659 -0.595519,0.89195 -0.145735,0.34536 -0.218604,0.71538 -0.218604,1.11008 0,0.39469 0.07161,0.76341 0.214839,1.10617 0.143227,0.34276 0.340469,0.63878 0.591749,0.88806 0.251274,0.24928 0.549031,0.44662 0.893275,0.59203 0.344244,0.14542 0.714867,0.21813 1.11188,0.21813 z m 14.458265,-0.0779 v -4.45589 h 1.771472 v -0.99711 h -4.643527 v 0.99711 h 1.779011 v 4.45587 z m 12.520943,0 v -5.453 h -1.093036 v 5.45298 z m 12.58879,0.0857 c 0.39199,0 0.75884,-0.0727 1.10058,-0.21811 0.34173,-0.14542 0.63697,-0.34406 0.88573,-0.59594 0.24876,-0.25187 0.44601,-0.55049 0.59175,-0.89584 0.14574,-0.34536 0.21861,-0.71279 0.21861,-1.10228 0,-0.38951 -0.0729,-0.75694 -0.21861,-1.10229 -0.14574,-0.34536 -0.34299,-0.64397 -0.59175,-0.89584 -0.24876,-0.25188 -0.544,-0.45053 -0.88573,-0.59594 -0.34174,-0.14541 -0.70859,-0.21812 -1.10058,-0.21812 -0.38696,0 -0.75131,0.0727 -1.09304,0.21812 -0.34173,0.14541 -0.63697,0.34406 -0.88574,0.59594 -0.24876,0.25187 -0.44601,0.55048 -0.59175,0.89584 -0.14574,0.34535 -0.21861,0.71278 -0.21861,1.10229 0,0.38949 0.0729,0.75692 0.21861,1.10228 0.14574,0.34535 0.34299,0.64397 0.59175,0.89584 0.24877,0.25188 0.54401,0.45052 0.88574,0.59594 0.34173,0.14541 0.70608,0.21811 1.09304,0.21811 z m 0,-1.03606 c -0.2362,0 -0.45607,-0.0454 -0.65959,-0.13633 -0.20354,-0.0909 -0.37942,-0.21552 -0.52768,-0.37391 -0.14825,-0.1584 -0.26509,-0.34666 -0.35052,-0.56478 -0.0854,-0.21812 -0.12816,-0.45182 -0.12816,-0.70109 0,-0.25448 0.0427,-0.48948 0.12816,-0.705 0.0854,-0.21552 0.20227,-0.40248 0.35052,-0.56088 0.14826,-0.1584 0.32414,-0.28303 0.52768,-0.37391 0.20352,-0.0909 0.42339,-0.13633 0.65959,-0.13633 0.23619,0 0.45732,0.0454 0.66336,0.13633 0.20605,0.0909 0.38318,0.21551 0.53144,0.37391 0.14825,0.1584 0.2651,0.34536 0.35053,0.56088 0.0854,0.21552 0.12815,0.45052 0.12815,0.705 0,0.24927 -0.0427,0.48297 -0.12815,0.70109 -0.0854,0.21812 -0.20228,0.40638 -0.35053,0.56478 -0.14826,0.15839 -0.32539,0.28303 -0.53144,0.37391 -0.20604,0.0909 -0.42717,0.13633 -0.66336,0.13633 z m 13.62152,0.95038 v -3.64571 l 2.69114,3.64571 h 0.96489 v -5.453 h -1.0252 v 3.52886 l -2.62329,-3.52886 h -1.04027 v 5.45298 z"
       id="COLLECTION"
       inkscape:connector-curvature="0"
       style="fill:#ffffff;fill-rule:nonzero;stroke:none;stroke-width:0.46869686" />
  </g>
</svg>
