<?xml version="1.0" encoding="UTF-8" standalone="no"?>
<!-- Created with Inkscape (http://www.inkscape.org/) -->

<svg
   xmlns:dc="http://purl.org/dc/elements/1.1/"
   xmlns:cc="http://creativecommons.org/ns#"
   xmlns:rdf="http://www.w3.org/1999/02/22-rdf-syntax-ns#"
   xmlns:svg="http://www.w3.org/2000/svg"
   xmlns="http://www.w3.org/2000/svg"
   xmlns:sodipodi="http://sodipodi.sourceforge.net/DTD/sodipodi-0.dtd"
   xmlns:inkscape="http://www.inkscape.org/namespaces/inkscape"
   width="500"
   height="200"
   viewBox="0 0 132.29166 52.916668"
   version="1.1"
   id="svg50"
   inkscape:version="0.92.5 (2060ec1f9f, 2020-04-08)"
   sodipodi:docname="Easports.svg">
  <defs
     id="defs44" />
  <sodipodi:namedview
     id="base"
     pagecolor="#ffffff"
     bordercolor="#666666"
     borderopacity="1.0"
     inkscape:pageopacity="0.0"
     inkscape:pageshadow="2"
     inkscape:zoom="2.2681106"
     inkscape:cx="381.32804"
     inkscape:cy="16.611848"
     inkscape:document-units="mm"
     inkscape:current-layer="layer1"
     showgrid="false"
     units="px"
     inkscape:pagecheckerboard="true"
     inkscape:window-width="1366"
     inkscape:window-height="743"
     inkscape:window-x="0"
     inkscape:window-y="0"
     inkscape:window-maximized="1" />
  <metadata
     id="metadata47">
    <rdf:RDF>
      <cc:Work
         rdf:about="">
        <dc:format>image/svg+xml</dc:format>
        <dc:type
           rdf:resource="http://purl.org/dc/dcmitype/StillImage" />
        <dc:title />
      </cc:Work>
    </rdf:RDF>
  </metadata>
  <g
     inkscape:label="Layer 1"
     inkscape:groupmode="layer"
     id="layer1"
     transform="translate(0,-244.08332)">
    <path
       d="m 4.0879149,296.31015 c 0.412425,0 0.813534,-0.0968 1.203325,-0.29033 0.389793,-0.19356 0.710429,-0.45348 0.961907,-0.77975 v 0 l -0.716714,-0.77976 c -0.186095,0.2378 -0.399852,0.42029 -0.641272,0.54749 -0.241419,0.12719 -0.500442,0.19079 -0.777068,0.19079 -0.24645,0 -0.474038,-0.0484 -0.682765,-0.14517 -0.208728,-0.0968 -0.389793,-0.22812 -0.543195,-0.39402 -0.153403,-0.16591 -0.274112,-0.36361 -0.36213,-0.59312 -0.08802,-0.2295 -0.132026,-0.47698 -0.132026,-0.74243 0,-0.27098 0.04275,-0.52122 0.128254,-0.75072 0.0855,-0.2295 0.203698,-0.42859 0.354585,-0.59726 0.150887,-0.16867 0.330695,-0.3014 0.539423,-0.39817 0.208728,-0.0968 0.431286,-0.14517 0.667676,-0.14517 0.281656,0 0.548224,0.0677 0.799703,0.20323 0.251479,0.1355 0.470265,0.33043 0.65636,0.58482 v 0 l 0.739347,-0.80464 c -0.24645,-0.33181 -0.568342,-0.59588 -0.965679,-0.7922 -0.397336,-0.19633 -0.807247,-0.29448 -1.229731,-0.29448 -0.392307,0 -0.760724,0.0774 -1.10525,0.23227 -0.344526,0.15484 -0.642528,0.36499 -0.894007,0.63043 -0.251479,0.26546 -0.450147,0.58206 -0.596005,0.94982 -0.145857,0.36775 -0.218786,0.76178 -0.218786,1.18207 0,0.42029 0.07167,0.81295 0.215014,1.17794 0.143343,0.36499 0.340754,0.68021 0.592232,0.94566 0.25148,0.26544 0.549482,0.4756 0.894008,0.63044 0.344526,0.15484 0.715458,0.23226 1.112794,0.23226 z m 14.2965711,0.008 c 0.392306,0 0.759466,-0.0774 1.101478,-0.23227 0.342011,-0.15485 0.637496,-0.36637 0.886462,-0.63459 0.248963,-0.26821 0.446375,-0.5862 0.592233,-0.95395 0.145861,-0.36776 0.218784,-0.75903 0.218784,-1.17379 0,-0.41477 -0.07292,-0.80603 -0.218784,-1.17378 -0.145858,-0.36776 -0.34327,-0.68575 -0.592233,-0.95396 -0.248966,-0.26822 -0.544451,-0.47975 -0.886462,-0.63459 -0.342012,-0.15485 -0.709172,-0.23227 -1.101478,-0.23227 -0.387278,0 -0.751923,0.0774 -1.093934,0.23227 -0.342012,0.15484 -0.637497,0.36637 -0.886464,0.63459 -0.248962,0.26821 -0.446374,0.5862 -0.592232,0.95396 -0.145855,0.36775 -0.218786,0.75901 -0.218786,1.17378 0,0.41476 0.07294,0.80603 0.218786,1.17378 0.145858,0.36776 0.34327,0.68574 0.592232,0.95396 0.248967,0.26822 0.544452,0.47974 0.886464,0.63459 0.342011,0.15485 0.706656,0.23227 1.093934,0.23227 z m 0,-1.10328 c -0.236388,0 -0.456434,-0.0484 -0.66013,-0.14516 -0.2037,-0.0968 -0.379733,-0.2295 -0.528108,-0.39817 -0.148371,-0.16868 -0.26531,-0.36915 -0.350813,-0.60142 -0.08551,-0.23227 -0.128261,-0.48112 -0.128261,-0.74657 0,-0.27098 0.04275,-0.52122 0.128261,-0.75072 0.0855,-0.22951 0.202442,-0.42859 0.350813,-0.59726 0.148375,-0.16868 0.324408,-0.3014 0.528108,-0.39818 0.203696,-0.0968 0.423742,-0.14517 0.66013,-0.14517 0.23639,0 0.457691,0.0484 0.663905,0.14517 0.20621,0.0968 0.383504,0.2295 0.531879,0.39818 0.148369,0.16867 0.265308,0.36775 0.350813,0.59726 0.0855,0.2295 0.128263,0.47974 0.128263,0.75072 0,0.26545 -0.04275,0.5143 -0.128263,0.74657 -0.08551,0.23227 -0.202444,0.43274 -0.350813,0.60142 -0.148375,0.16867 -0.325669,0.30139 -0.531879,0.39816 -0.206214,0.0968 -0.427515,0.14517 -0.663905,0.14517 z m 16.582513,1.01208 v -1.06184 h -2.889488 v -4.7449 h -1.093936 v 5.80669 z m 13.791096,0 v -1.06184 h -2.889493 v -4.7449 h -1.093928 v 5.80669 z m 13.896719,0 v -1.0453 h -2.995113 v -1.37702 h 1.953993 v -1.01202 h -1.953993 v -1.32724 h 2.964937 v -1.0452 h -4.058864 v 5.80669 z m 12.131339,0.0829 c 0.41243,0 0.813538,-0.0968 1.203327,-0.29034 0.389795,-0.19355 0.71043,-0.45347 0.961912,-0.77975 v 0 L 76.234678,294.46 c -0.186095,0.2378 -0.399855,0.42029 -0.641279,0.54749 -0.241419,0.12719 -0.500441,0.19079 -0.777068,0.19079 -0.246443,0 -0.474038,-0.0484 -0.68276,-0.14517 -0.208732,-0.0968 -0.389795,-0.22812 -0.543195,-0.39403 -0.153402,-0.1659 -0.274119,-0.3636 -0.362127,-0.59311 -0.08803,-0.2295 -0.132038,-0.47698 -0.132038,-0.74243 0,-0.27097 0.04275,-0.52122 0.12826,-0.75072 0.08549,-0.2295 0.203695,-0.42859 0.354584,-0.59726 0.150889,-0.16867 0.330692,-0.3014 0.539422,-0.39818 0.208727,-0.0968 0.431284,-0.14516 0.667673,-0.14516 0.281662,0 0.548225,0.0677 0.799703,0.20324 0.251481,0.13549 0.470271,0.33042 0.656363,0.58481 v 0 l 0.739343,-0.80464 c -0.24644,-0.33181 -0.56834,-0.59588 -0.965678,-0.7922 -0.397333,-0.19632 -0.807244,-0.29448 -1.229731,-0.29448 -0.392306,0 -0.760719,0.0774 -1.105247,0.23226 -0.344524,0.15485 -0.642527,0.365 -0.894008,0.63045 -0.251476,0.26545 -0.450144,0.58205 -0.596003,0.94981 -0.14586,0.36775 -0.218789,0.76178 -0.218789,1.18207 0,0.42029 0.07167,0.81294 0.215013,1.17793 0.143349,0.365 0.340754,0.68022 0.592238,0.94567 0.251474,0.26545 0.549476,0.47559 0.894001,0.63044 0.344532,0.15484 0.715457,0.23226 1.112795,0.23226 z m 14.470094,-0.0829 v -4.7449 h 1.772923 v -1.06179 h -4.647327 v 1.06179 h 1.780474 v 4.7449 z m 12.531193,0 v -5.80669 h -1.09393 v 5.80669 z m 12.59909,0.0913 c 0.39231,0 0.75947,-0.0774 1.10148,-0.23227 0.34201,-0.15484 0.6375,-0.36637 0.88646,-0.63459 0.24897,-0.26821 0.44637,-0.5862 0.59224,-0.95395 0.14585,-0.36776 0.21878,-0.75902 0.21878,-1.17378 0,-0.41477 -0.0729,-0.80603 -0.21878,-1.17379 -0.14587,-0.36775 -0.34327,-0.68574 -0.59224,-0.95395 -0.24896,-0.26822 -0.54445,-0.47975 -0.88646,-0.63459 -0.34201,-0.15485 -0.70917,-0.23227 -1.10148,-0.23227 -0.38728,0 -0.75192,0.0774 -1.09394,0.23227 -0.342,0.15484 -0.6375,0.36637 -0.88645,0.63459 -0.24897,0.26821 -0.44638,0.5862 -0.59224,0.95396 -0.14586,0.36775 -0.21878,0.75901 -0.21878,1.17378 0,0.41476 0.0729,0.80602 0.21878,1.17378 0.14586,0.36775 0.34327,0.68574 0.59224,0.95395 0.24895,0.26822 0.54445,0.47975 0.88645,0.63459 0.34202,0.15485 0.70666,0.23227 1.09394,0.23227 z m 0,-1.10327 c -0.23638,0 -0.45644,-0.0484 -0.66013,-0.14517 -0.2037,-0.0968 -0.37973,-0.2295 -0.52811,-0.39817 -0.14837,-0.16867 -0.2653,-0.36914 -0.35081,-0.60141 -0.0855,-0.23227 -0.12825,-0.48113 -0.12825,-0.74657 0,-0.27098 0.0427,-0.52122 0.12825,-0.75073 0.0855,-0.2295 0.20244,-0.42859 0.35081,-0.59726 0.14838,-0.16867 0.32441,-0.3014 0.52811,-0.39817 0.20369,-0.0968 0.42375,-0.14517 0.66013,-0.14517 0.23639,0 0.4577,0.0484 0.66391,0.14517 0.20621,0.0968 0.38351,0.2295 0.53188,0.39817 0.14836,0.16867 0.2653,0.36776 0.3508,0.59726 0.0855,0.22951 0.12827,0.47975 0.12827,0.75073 0,0.26544 -0.0428,0.5143 -0.12827,0.74657 -0.0855,0.23227 -0.20244,0.43274 -0.3508,0.60141 -0.14837,0.16867 -0.32567,0.3014 -0.53188,0.39817 -0.20621,0.0968 -0.42752,0.14517 -0.66391,0.14517 z m 13.63267,1.01202 v -3.88219 l 2.69333,3.88219 h 0.96569 v -5.80669 h -1.02604 v 3.75776 l -2.62545,-3.75776 h -1.0411 v 5.80669 z"
       id="COLLECTION"
       inkscape:connector-curvature="0"
       style="fill:#ffffff;fill-rule:nonzero;stroke:none;stroke-width:0.33805907" />
    <path
       style="clip-rule:evenodd;fill:#ffffff;fill-rule:evenodd;stroke-width:1.17355084"
       inkscape:connector-curvature="0"
       d="m 10.177542,254.74521 h 23.956863 l -3.681431,5.47696 H 6.6381129 Z m 30.060502,-0.0139 15.706801,26.8438 h -5.332616 l -10.260348,-16.60223 -3.869201,5.62953 h -6.164662 l 2.594719,5.47578 -3.707247,5.41945 H -0.59917405 L 6.2050729,270.82402 H -0.15792005 L 3.2019569,265.55126 H 21.766355 l -3.531215,5.33261 h -5.394811 l -3.5593802,5.33027 H 26.809101 l -4.853804,-10.6711 11.347065,-0.0493 z"
       id="path1045" />
    <path
       style="clip-rule:evenodd;fill:#ffffff;fill-rule:evenodd;stroke-width:0.59737384"
       inkscape:connector-curvature="0"
       d="m 72.992651,269.95645 v 4.28377 h 4.503002 c 0.248518,-0.005 0.473122,-0.0998 0.649943,-0.2736 0.177422,-0.17384 0.276583,-0.39666 0.28674,-0.64457 l 0.01312,-2.22462 c 0.0096,-0.30346 -0.09976,-0.58482 -0.311827,-0.80227 -0.212072,-0.21744 -0.490445,-0.33393 -0.794509,-0.33154 z m -2.726415,-2.28078 h 8.648777 c 0.613505,-0.01 1.176827,0.22402 1.603949,0.66429 0.427122,0.44026 0.642178,1.01075 0.612907,1.62366 l 0.0047,4.26166 c -0.0323,0.6374 -0.30112,1.20729 -0.772446,1.638 -0.471924,0.43071 -1.063921,0.64636 -1.701919,0.62067 h -5.70539 v 5.0281 h -2.690572 z m -9.680443,0.0137 5.428933,-0.005 c 0.718045,-0.004 1.374555,0.26702 1.880534,0.77659 0.505976,0.51015 0.771805,1.16846 0.762248,1.8865 v 1.53943 h -2.446244 v -1.93728 h -5.704325 v 3.22881 l 5.740165,5.3e-4 c 0.674436,0.005 1.287939,0.25986 1.767033,0.73477 0.479094,0.47491 0.738952,1.08602 0.749702,1.76046 v 3.51555 c -0.02162,0.62783 -0.268809,1.19235 -0.71565,1.63321 -0.446839,0.44087 -1.014942,0.68161 -1.642779,0.69415 h -5.95343 c -0.688173,-0.002 -1.314818,-0.27061 -1.792118,-0.76523 -0.477898,-0.49463 -0.722823,-1.13083 -0.70132,-1.81781 l -0.02024,-1.84469 h 2.640394 v 2.08065 h 5.77601 v -3.51615 h -5.604632 c -0.771805,-0.0281 -1.464164,-0.3411 -1.995823,-0.90144 -0.531665,-0.56034 -0.807652,-1.26882 -0.795105,-2.04063 v -2.72697 c 0.234161,-1.27181 1.333934,-2.23358 2.626651,-2.29511 z m 24.641072,2.29631 v 9.20553 h 6.888914 v -9.20553 z m 0.0091,-2.30168 h 6.914603 c 0.687575,0.0114 1.310634,0.28136 1.790329,0.77479 0.479092,0.49403 0.729991,1.12545 0.720431,1.81363 v 8.8262 c 0,0.66487 -0.256862,1.27061 -0.734171,1.73238 -0.4773,0.46296 -1.090803,0.70131 -1.755084,0.68041 h -6.936145 c -0.710872,0.0305 -1.371568,-0.22281 -1.879335,-0.72102 -0.508966,-0.49821 -0.775391,-1.15413 -0.759262,-1.8656 l 0.01667,-8.72465 c 0.03227,-0.68817 0.31183,-1.30406 0.808844,-1.78136 0.497613,-0.47611 1.123659,-0.73059 1.813029,-0.73477 z m 14.203201,2.27957 v 4.25928 l 4.664294,-0.002 c 0.20909,5.3e-4 0.39905,-0.0812 0.54242,-0.23237 0.14337,-0.15114 0.21444,-0.34588 0.2037,-0.55437 l -0.0126,-2.69535 c -0.008,-0.21924 -0.0986,-0.41577 -0.26044,-0.56392 -0.16189,-0.14815 -0.365,-0.22223 -0.58483,-0.21147 z m -2.854378,-2.28614 h 8.603382 c 0.63442,-0.0227 1.22044,0.20012 1.67922,0.6386 0.45879,0.43787 0.70848,1.01374 0.71386,1.64815 v 4.26166 c 5.3e-4,0.63202 -0.24491,1.2073 -0.70072,1.64517 -0.45579,0.43728 -1.04062,0.6595 -1.67205,0.63381 h -1.77541 l 5.56394,5.02332 h -4.00897 l -4.94506,-5.04482 h -0.644581 v 5.03885 h -2.778384 z m 11.819652,0.007 h 11.76826 v 2.27957 h -4.48508 v 11.54669 h -2.72642 v -11.54668 h -4.55676 z m 15.36505,0.0149 5.42953,-0.005 c 0.71805,-0.004 1.37514,0.26702 1.88054,0.77658 0.50537,0.50956 0.7718,1.16847 0.76224,1.88651 v 1.54003 h -2.44624 v -1.93731 h -5.70493 v 3.2288 h 5.74016 c 0.67503,0.005 1.28794,0.26046 1.76644,0.73477 0.47971,0.47432 0.73955,1.08543 0.75029,1.75986 v 3.51615 c -0.0208,0.62784 -0.26879,1.19235 -0.71564,1.63322 -0.44684,0.44086 -1.01434,0.68041 -1.64278,0.69414 h -5.95342 c -0.68818,-0.004 -1.31423,-0.27061 -1.79213,-0.76523 -0.47849,-0.49463 -0.72342,-1.13083 -0.70132,-1.81781 l -0.0202,-1.84474 h 2.6404 v 2.08065 h 5.77653 v -3.51614 h -5.60515 c -0.77122,-0.0281 -1.46417,-0.3411 -1.99584,-0.90144 -0.53165,-0.56033 -0.80764,-1.26882 -0.7945,-2.04063 v -2.72645 c 0.23416,-1.27301 1.33333,-2.23418 2.62606,-2.29571 z"
       id="path1047" />
  </g>
</svg>
