<?xml version="1.0" encoding="UTF-8" standalone="no"?>
<!-- Created with Inkscape (http://www.inkscape.org/) -->

<svg
   xmlns:dc="http://purl.org/dc/elements/1.1/"
   xmlns:cc="http://creativecommons.org/ns#"
   xmlns:rdf="http://www.w3.org/1999/02/22-rdf-syntax-ns#"
   xmlns:svg="http://www.w3.org/2000/svg"
   xmlns="http://www.w3.org/2000/svg"
   xmlns:sodipodi="http://sodipodi.sourceforge.net/DTD/sodipodi-0.dtd"
   xmlns:inkscape="http://www.inkscape.org/namespaces/inkscape"
   width="500"
   height="200"
   viewBox="0 0 132.29166 52.916668"
   version="1.1"
   id="svg8"
   inkscape:version="0.92.5 (2060ec1f9f, 2020-04-08)"
   sodipodi:docname="easyrpg.svg">
  <defs
     id="defs2" />
  <sodipodi:namedview
     id="base"
     pagecolor="#ffffff"
     bordercolor="#666666"
     borderopacity="1.0"
     inkscape:pageopacity="0.0"
     inkscape:pageshadow="2"
     inkscape:zoom="2.2583223"
     inkscape:cx="253.38838"
     inkscape:cy="77.278983"
     inkscape:document-units="mm"
     inkscape:current-layer="layer1"
     showgrid="false"
     units="px"
     inkscape:pagecheckerboard="true"
     inkscape:window-width="1366"
     inkscape:window-height="739"
     inkscape:window-x="0"
     inkscape:window-y="0"
     inkscape:window-maximized="1" />
  <metadata
     id="metadata5">
    <rdf:RDF>
      <cc:Work
         rdf:about="">
        <dc:format>image/svg+xml</dc:format>
        <dc:type
           rdf:resource="http://purl.org/dc/dcmitype/StillImage" />
        <dc:title></dc:title>
      </cc:Work>
    </rdf:RDF>
  </metadata>
  <g
     inkscape:label="Layer 1"
     inkscape:groupmode="layer"
     id="layer1"
     transform="translate(0,-244.08332)">
    <path
       id="path137"
       style="fill:#ffffff;stroke-width:0.15171607"
       d="m 124.31622,262.93633 c -1.26902,-0.009 -2.49697,0.091 -3.23454,0.30468 -2.53744,0.73513 -4.38994,2.30768 -5.16708,4.38645 -0.12013,0.32136 -0.28288,0.58135 -0.36206,0.57599 -0.0791,-0.005 -0.25492,-0.47779 -0.38985,-1.05197 -0.30017,-1.27732 -0.70129,-1.95026 -1.60291,-2.68908 -1.37648,-1.1279 -1.69665,-1.18685 -6.83019,-1.25566 l -4.56705,-0.061 -0.11204,7.89695 c -0.0612,4.34329 -0.0669,7.968 -0.0129,8.05527 0.0825,0.13332 3.95595,0.24851 4.05404,0.12042 0.0159,-0.0208 0.0672,-1.26677 0.11389,-2.76876 l 0.0843,-2.73076 2.42797,-0.0954 c 2.65219,-0.10446 3.49354,-0.30039 4.55315,-1.06025 0.33471,-0.24003 0.7443,-0.61943 0.91026,-0.84266 0.72957,-0.98137 0.81531,-1.05239 0.97879,-0.80841 0.0838,0.12507 0.15335,0.69366 0.15464,1.26306 0.005,2.02885 0.99815,4.12836 2.56502,5.42083 0.98211,0.81012 1.57181,1.1263 2.97524,1.5955 0.8928,0.29837 1.38069,0.35668 3.06229,0.36206 1.19856,0.004 2.42207,-0.082 3.05303,-0.21484 1.49067,-0.31357 3.40647,-0.98591 3.64011,-1.27696 0.30818,-0.38394 0.19626,-7.40753 -0.12133,-7.60801 -0.35969,-0.22702 -5.8461,-0.1892 -6.03474,0.0416 -0.14692,0.17977 -0.24827,1.22186 -0.20556,2.11777 0.0193,0.40551 0.0348,0.41094 1.19545,0.45466 l 1.17603,0.0445 v 1.58622 c 0,1.86662 0.0906,1.78729 -2.08072,1.81219 -2.26968,0.026 -3.55202,-0.67794 -4.45778,-2.44742 -0.64643,-1.26286 -0.82608,-3.96543 -0.3491,-5.25136 0.53545,-1.44354 1.81215,-2.5626 3.39288,-2.97429 1.63834,-0.42676 3.53856,-0.18929 5.58378,0.6982 0.56506,0.24528 1.09438,0.40426 1.17603,0.35372 0.0816,-0.0506 0.14815,-0.70066 0.14815,-1.44456 0,-1.34692 -0.002,-1.35285 -0.45096,-1.5853 -0.24827,-0.1283 -1.05129,-0.38333 -1.78349,-0.56672 -0.90361,-0.22635 -2.2137,-0.34674 -3.48268,-0.35652 z m -37.535481,0.0862 c -0.0014,0.009 -0.0029,0.0179 -0.0046,0.026 0.01505,-0.0125 0.01291,-0.0161 0.02409,-0.026 z m 0.185204,0 c 0.01738,0.18406 0.0081,0.2989 -0.002,0.4806 -0.03931,0.1317 4.73e-4,0.27487 -0.01666,0.40744 -0.0049,0.0366 -0.0071,0.0452 -0.01112,0.0722 0.143282,0.50093 0.143622,2.48007 0.07408,7.39505 -0.05618,3.9697 -0.05507,7.3662 0.0029,7.54783 0.100792,0.31769 0.182936,0.3306 2.142765,0.3306 h 2.038131 v -2.86413 c 0,-3.3542 -0.02405,-3.29785 1.352885,-3.15396 1.677251,0.17525 1.891079,0.40254 3.578073,3.80215 l 1.06212,2.13999 2.039983,0.0426 c 1.12229,0.0233 2.13092,0.007 2.24093,-0.0342 0.14338,-0.055 -0.1712,-0.81861 -1.11028,-2.69743 -1.46663,-2.93435 -2.098563,-3.89209 -2.870609,-4.34758 -0.655479,-0.38676 -0.663123,-0.56817 -0.03518,-0.89731 0.271189,-0.1421 0.773201,-0.53893 1.114904,-0.88154 0.700045,-0.7019 0.971377,-1.50373 0.971377,-2.86691 0,-1.91374 -0.604876,-2.94791 -2.166847,-3.70399 -0.818974,-0.39643 -1.211074,-0.47723 -2.983573,-0.61395 -1.122314,-0.0866 -3.840493,-0.15752 -6.04031,-0.15752 z m -0.590793,1.52883 c -0.002,0.005 -0.0038,0.0125 -0.0056,0.0185 -0.0038,0.0161 -0.0074,0.0322 -0.01201,0.0482 -0.0066,0.0224 -0.01559,0.0442 -0.02224,0.0667 -0.02523,0.0844 -0.05562,0.16718 -0.08334,0.25094 0.05652,-0.12956 0.117353,-0.27185 0.165753,-0.37874 -0.01684,-0.002 -0.02399,-0.004 -0.04258,-0.005 z m 20.56835,1.35475 c 0.12817,-0.005 0.27543,-0.004 0.44355,0.002 0.19214,0.007 0.41206,0.0199 0.66394,0.0341 1.5075,0.086 2.12863,0.3571 2.67616,1.16956 0.70442,1.04532 0.25859,2.75314 -0.85934,3.29379 -0.3596,0.17381 -1.04041,0.28437 -2.00849,0.32594 -1.35486,0.0582 -1.47699,0.04 -1.6307,-0.24725 -0.096,-0.17947 -0.16668,-1.14554 -0.16668,-2.28814 0,-1.8364 -0.0157,-2.24887 0.88156,-2.29 z m -14.343768,0.18335 c 2.113282,-0.0697 2.842824,0.4627 2.842824,2.07702 0,1.03182 -0.23571,1.47241 -0.981561,1.83347 -0.775857,0.37549 -2.816349,0.43764 -3.101176,0.0944 -0.116959,-0.14102 -0.160969,-0.83337 -0.132423,-2.08628 l 0.04258,-1.87515 z"
       inkscape:connector-curvature="0" />
    <path
       inkscape:connector-curvature="0"
       id="path112"
       d="m 15.892053,284.64203 c -0.998887,-0.0652 -1.892496,-0.21696 -2.847899,-0.48355 -0.291025,-0.0812 -0.924501,-0.29618 -1.227473,-0.41655 l -0.270519,-0.10747 -0.257721,0.0153 c -0.673605,0.04 -1.5407915,-0.048 -2.3002025,-0.23356 -1.96457,-0.47993 -3.558363,-1.55335 -4.72263,-3.18071 -0.304481,-0.42558 -0.563519,-0.86762 -0.826861,-1.41098 -0.858349,-1.77105 -1.045189,-3.66735 -0.552149,-5.60393 0.126229,-0.4958 0.251176,-0.79533 0.466317,-1.11787 l 0.08691,-0.13029 0.0086,-0.65824 c 0.0087,-0.66484 0.0276,-0.98262 0.08809,-1.47739 0.186007,-1.5214 0.600573,-2.9103 1.27737,-4.2795 1.259861,-2.54877 3.308569,-4.62073 5.8647175,-5.93127 l 0.214358,-0.1099 0.122489,-0.14879 c 0.176075,-0.21388 0.792578,-0.82711 1.025302,-1.01986 1.29172,-1.06983 2.710945,-1.6645 4.387237,-1.83833 0.751723,-0.0779 1.606122,-0.0583 2.33497,0.0539 1.40651,0.2164 2.677128,0.77487 3.798771,1.66964 0.41329,0.3297 0.895782,0.79452 1.089729,1.04983 0.259207,0.34121 0.430611,0.70648 0.510065,1.08695 0.01705,0.0816 0.0341,0.15347 0.0379,0.15961 0.0038,0.006 0.112033,0.0874 0.240527,0.18062 1.550328,1.12452 2.863457,2.60274 3.796137,4.27341 0.182159,0.3263 0.520112,1.00918 0.638737,1.29067 0.533179,1.26521 0.861924,2.58695 0.988216,3.97319 l 0.02272,0.24942 0.137261,0.18234 c 0.863221,1.14672 1.420369,2.59655 1.588719,4.13422 0.0386,0.35255 0.03874,1.26671 2.44e-4,1.60003 -0.117556,1.01795 -0.388728,1.92768 -0.848896,2.8479 -1.092749,2.18521 -2.818118,3.66726 -5.056038,4.34302 -0.595764,0.1799 -0.835535,0.21901 -1.271265,0.20736 -0.22183,-0.006 -0.336985,-0.0163 -0.448028,-0.0403 -0.396852,-0.0857 -0.755012,-0.25334 -1.082616,-0.50678 l -0.119077,-0.0921 -0.30596,0.15111 c -0.764123,0.37741 -1.638713,0.70105 -2.484591,0.9194 -0.740055,0.19103 -1.394003,0.30159 -2.243102,0.37924 -0.305976,0.028 -1.536403,0.0413 -1.860321,0.0202 z m 2.051711,-1.39897 c 1.61054,-0.1534 3.070447,-0.59767 4.444099,-1.35242 0.237728,-0.13061 0.229318,-0.1171 0.178925,-0.28746 -0.01739,-0.0587 -0.04102,-0.15611 -0.05253,-0.21632 -0.02273,-0.11891 -0.437192,-1.76873 -0.980265,-3.90209 -0.188647,-0.74106 -0.354709,-1.41629 -0.369028,-1.50051 -0.0357,-0.20997 -0.03575,-0.59658 -1.53e-4,-0.77894 0.115676,-0.59152 0.477098,-1.10396 0.989366,-1.40277 0.334254,-0.19497 0.766742,-0.30955 1.171429,-0.31033 0.252361,-4.8e-4 0.43697,0.0283 0.660595,0.10317 0.61504,0.20579 1.033853,0.62808 1.260691,1.27115 0.04235,0.12009 0.174884,0.60646 0.659181,2.41919 0.06075,0.22737 0.115739,0.4192 0.122209,0.42629 0.01629,0.0179 0.2225,-0.29759 0.333718,-0.51051 0.165561,-0.31695 0.281794,-0.65755 0.350078,-1.02585 0.0212,-0.11433 0.02684,-0.22573 0.02639,-0.52059 -5.36e-4,-0.34212 -0.0041,-0.39342 -0.04123,-0.58307 -0.197983,-1.01295 -0.662976,-1.72712 -1.479349,-2.27212 -0.444603,-0.29681 -0.927128,-0.48718 -1.444159,-0.56975 -0.222274,-0.0355 -0.711751,-0.0353 -0.945736,3e-4 -1.058259,0.16116 -1.869973,0.66715 -2.411308,1.50308 -0.04363,0.0674 -0.380925,0.64614 -0.749552,1.28615 -0.776019,1.34733 -0.731142,1.27229 -0.877988,1.46811 l -0.113489,0.15134 -0.06718,0.30035 c -0.292816,1.30907 -0.856868,2.43967 -1.69221,3.39189 -0.196597,0.22411 -0.593119,0.61358 -0.802269,0.78801 -0.553469,0.46158 -1.189983,0.87295 -1.837353,1.18746 -0.340225,0.16529 -0.448556,0.21041 -0.724628,0.30177 -0.112224,0.0371 -0.20524,0.0737 -0.206703,0.0813 -0.0036,0.0186 0.511721,0.17554 0.853828,0.2601 0.612805,0.15145 1.264665,0.25663 1.853612,0.29904 0.126318,0.009 0.257229,0.0191 0.290914,0.0222 0.166895,0.0153 1.365132,-0.005 1.600029,-0.0282 z m -6.652751,-4.51126 c 0.936179,-0.0807 1.88574,-0.59875 2.468034,-1.34655 0.42501,-0.54581 0.693924,-1.30391 0.719897,-2.02948 0.01331,-0.3716 -0.02891,-0.6967 -0.135034,-1.03993 -0.110828,-0.35843 -0.183445,-0.50266 -0.721602,-1.4332 -0.231683,-0.40062 -0.426227,-0.74408 -0.432318,-0.76328 -0.0061,-0.0192 -0.121385,-0.2254 -0.256208,-0.45824 -0.26264,-0.45359 -0.330918,-0.58312 -0.40877,-0.77551 -0.04412,-0.10902 -0.06071,-0.13176 -0.150854,-0.2067 -0.158542,-0.13182 -0.624677,-0.60109 -0.79846,-0.80384 -0.863326,-1.00723 -1.412628,-2.12356 -1.6687865,-3.39145 -0.203415,-1.00683 -0.218312,-2.20156 -0.03923,-3.146 0.02071,-0.10921 0.03766,-0.20791 0.03766,-0.21931 0,-0.0377 -0.04201,-0.0123 -0.209444,0.1268 -0.494819,0.41106 -1.044985,0.959 -1.452993,1.44709 -1.503775,1.79894 -2.406968,3.99515 -2.600558,6.32356 -0.01935,0.2327 -0.03213,0.50743 -0.02609,0.56044 0.0012,0.01 0.0721,0.0241 0.17418,0.0346 0.194116,0.0199 0.404413,0.0697 0.585656,0.13854 0.06737,0.0256 0.5669,0.17127 1.110068,0.32368 0.543167,0.1524 1.638689,0.45973 2.434493,0.68293 0.7958055,0.22319 1.4882575,0.41253 1.5387845,0.42073 0.216829,0.0352 0.558513,0.18047 0.808197,0.34358 0.1995,0.13034 0.448413,0.37612 0.569209,0.56206 0.165105,0.25415 0.272197,0.52649 0.323446,0.82255 0.03334,0.19257 0.02206,0.57063 -0.02336,0.7833 -0.150552,0.70492 -0.576876,1.26435 -1.181938,1.55097 -0.374889,0.17759 -0.83175,0.21841 -1.300136,0.11618 -0.07382,-0.0161 -0.556872,-0.14327 -1.0734535,-0.28258 -1.616237,-0.43584 -1.719951,-0.46274 -1.726032,-0.44757 -0.0033,0.008 0.04061,0.10706 0.09748,0.21986 0.56579,1.12236 1.577289,1.78742 2.8788275,1.89286 0.135442,0.011 0.284702,0.009 0.459339,-0.006 z m -7.0524965,-6.65489 c 0.04722,-0.0396 0.08931,-0.0746 0.09352,-0.0779 0.0042,-0.003 0.0086,-0.2517 0.0098,-0.55205 0.0027,-0.68757 0.0348,-1.1536 0.121239,-1.75919 0.414867,-2.90654 1.843294,-5.55289 4.05661,-7.51539 0.653496,-0.57944 1.456598,-1.14713 2.1971685,-1.5531 0.271637,-0.14891 0.275959,-0.15248 0.409691,-0.3382 0.06869,-0.0954 0.122105,-0.17623 0.118707,-0.17962 -0.0099,-0.01 -0.575127,0.28668 -0.842279,0.442 -0.9787235,0.569 -1.7742995,1.18268 -2.5884595,1.99667 -0.639788,0.63964 -1.088683,1.18483 -1.576517,1.91468 -0.335984,0.50267 -0.542286,0.85978 -0.818291,1.41651 -0.772359,1.5579 -1.196908,3.1998 -1.286637,4.97594 -0.02296,0.45431 -0.01505,1.30146 0.01214,1.30146 0.0041,0 0.0461,-0.0324 0.09332,-0.0719 z m 23.7437725,-2.61908 c -0.0043,-0.0147 -0.02564,-0.10258 -0.04752,-0.19522 -0.133854,-0.56677 -0.397101,-1.3349 -0.656884,-1.91672 -0.08773,-0.19647 -0.328984,-0.67926 -0.417239,-0.83495 -0.03683,-0.065 -0.06696,-0.12853 -0.06696,-0.14122 0,-0.0501 -0.385838,-0.66134 -0.64331,-1.01913 -0.677208,-0.9411 -1.526158,-1.80145 -2.467896,-2.50106 -0.250444,-0.18605 -0.625961,-0.43871 -0.652041,-0.43871 -0.04225,0 -0.288104,0.23462 -2.06765,1.97324 -0.988006,0.96528 -1.883716,1.83659 -1.990467,1.93625 -0.366544,0.3422 -0.71929,0.53859 -1.121441,0.62437 -0.202635,0.0432 -0.54786,0.0474 -0.757786,0.009 -0.304684,-0.0555 -0.62754,-0.19676 -0.879799,-0.38506 -0.179554,-0.13403 -0.433235,-0.40111 -0.555666,-0.58501 -0.21646,-0.32516 -0.323938,-0.6445 -0.354838,-1.05431 -0.03202,-0.42468 0.117717,-0.88813 0.414148,-1.28181 0.03984,-0.0529 0.555052,-0.5799 1.144916,-1.17108 l 1.072481,-1.07489 -0.04504,-0.0176 c -0.0678,-0.0264 -0.596461,-0.0369 -0.810611,-0.0161 -0.794136,0.0773 -1.448926,0.38199 -2.026716,0.94302 -0.317265,0.30807 -0.532537,0.59479 -0.704432,0.93824 -0.227193,0.45394 -0.331175,0.88132 -0.349171,1.43514 -0.03232,0.9947 0.285259,1.83512 0.959353,2.53876 0.467663,0.48816 1.008441,0.81144 1.605951,0.96006 0.398175,0.099 0.33921,0.0961 2.176288,0.10736 1.464103,0.009 1.692386,0.0134 1.801251,0.0353 l 0.124665,0.025 0.189217,-0.0619 c 0.52105,-0.17028 1.242463,-0.32948 1.74331,-0.38469 0.238037,-0.0262 1.14414,-0.0263 1.385671,-10e-6 0.944864,0.10262 1.77494,0.34321 2.654069,0.76926 0.37602,0.18223 0.937968,0.50478 1.030012,0.59121 0.04927,0.0463 0.292167,0.21823 0.309368,0.21902 0.0069,3.2e-4 0.009,-0.0115 0.0048,-0.0262 z m 2.45e-4,-3.45102 c 0.03696,-0.009 0.07072,-0.0226 0.07504,-0.0296 0.01026,-0.0166 -0.175,-0.38577 -0.348377,-0.69422 -0.859367,-1.52888 -2.044566,-2.87967 -3.441878,-3.92277 -0.302563,-0.22587 -0.593856,-0.42806 -0.602465,-0.41819 -0.01154,0.0132 -0.02273,0.22324 -0.01268,0.23787 0.0057,0.008 0.09648,0.0763 0.201741,0.15109 1.250503,0.88886 2.288695,1.95129 3.142417,3.21578 0.277574,0.41113 0.562092,0.89454 0.762523,1.29557 0.0928,0.18569 0.103999,0.20156 0.134007,0.19005 0.01237,-0.005 0.05272,-0.0162 0.08968,-0.0256 z"
       style="fill:#ffffff;stroke-width:0.01531128" />
    <path
       id="path137-3"
       style="fill:#ffffff;stroke-width:0.15171607"
       d="m 40.821441,262.69562 c -1.455144,-0.0235 -2.940373,0.29527 -4.196638,0.93617 -0.911713,0.4651 -2.308418,1.95713 -2.837269,3.03079 -0.916794,1.86127 -1.182124,4.49354 -0.716725,7.12558 0.489678,2.7694 2.489072,4.80558 5.595827,5.69955 0.727658,0.20948 1.316388,0.24413 3.110438,0.18428 1.969499,-0.0658 2.370012,-0.12704 3.648446,-0.5556 0.78997,-0.26482 1.547135,-0.58118 1.681618,-0.70284 0.336023,-0.30412 0.387909,-0.29118 1.186208,0.29446 1.1164,0.819 2.021268,1.04512 3.930876,0.97971 1.490276,-0.0511 1.731124,-0.1023 2.66318,-0.56115 0.563682,-0.2775 1.295074,-0.78529 1.625134,-1.12879 0.701696,-0.73026 0.865625,-0.65622 0.932482,0.42224 l 0.04723,0.7584 1.134352,0.0453 c 0.656125,0.0264 1.272188,-0.0274 1.461229,-0.12866 0.261335,-0.13995 0.595996,-0.10429 1.67236,0.17866 1.152676,0.30307 1.715417,0.35385 3.924394,0.35743 l 2.579839,0.004 1.306589,-0.65006 c 1.972229,-0.98175 2.789264,-2.1946 2.782634,-4.12903 -0.0096,-2.84413 -1.519449,-4.14913 -5.774544,-4.99115 -3.147058,-0.62275 -4.346108,-1.61438 -3.870687,-3.20119 0.60827,-2.03023 4.237783,-2.50718 8.095103,-1.06397 0.746668,0.27937 0.879154,0.39143 1.038975,0.88154 0.10071,0.30884 0.452638,1.17602 0.782472,1.92702 0.329833,0.751 0.723473,1.74122 0.87507,2.20017 0.24451,0.74024 1.736419,4.43837 2.111283,5.23377 0.392147,0.83209 1.225101,3.05351 1.225101,3.26786 0,0.27814 -0.993816,2.62816 -1.327887,3.14007 -0.405979,0.62211 -1.162619,0.95667 -2.417789,1.07045 l -1.185282,0.10751 -0.0463,0.97324 c -0.03161,0.67116 0.01559,1.01399 0.151865,1.10842 0.108626,0.0746 0.867332,0.105 1.685323,0.0658 1.208677,-0.0578 1.641059,-0.1471 2.3113,-0.47503 1.467088,-0.71777 2.10432,-1.79007 4.192008,-7.05799 0.578708,-1.46025 1.222605,-3.04632 1.43067,-3.52437 0.208064,-0.47803 0.506441,-1.2288 0.663019,-1.66865 1.006332,-2.82683 2.871501,-7.50971 3.438245,-8.64607 0.03746,-0.20893 0.01793,-0.11577 0.127781,-0.49171 0.04029,-0.13799 0.04855,-0.23819 0.134268,-0.37225 0.03783,-0.0592 0.07863,-0.11021 0.116672,-0.15555 0.01929,-0.0441 0.04763,-0.0989 0.06112,-0.12865 0.0052,-0.0107 0.01236,-0.0219 0.01755,-0.0334 h -2.696514 l -0.465777,1.02417 c -0.256107,0.56326 -0.587758,1.36626 -0.737099,1.78349 -0.428803,1.19796 -1.322211,3.3858 -1.889971,4.62721 -0.286222,0.62583 -0.796182,1.8587 -1.132498,2.74004 -0.336323,0.88133 -0.708205,1.73482 -0.82692,1.89644 -0.201807,0.27488 -0.245209,0.22883 -0.663016,-0.70096 -0.245801,-0.54698 -0.495543,-1.16093 -0.554677,-1.36494 -0.05913,-0.20401 -0.196612,-0.57567 -0.305579,-0.82598 -0.797184,-1.83154 -1.622379,-3.80525 -1.966828,-4.70318 -0.476193,-1.24134 -1.398122,-3.47565 -1.659394,-4.0207 -0.175052,-0.36518 -0.25244,-0.38286 -2.073317,-0.48429 -5.974271,-0.33247 -6.508713,-0.3273 -7.763597,0.0741 -0.642786,0.20561 -1.440596,0.58934 -1.773291,0.85284 -0.689373,0.54599 -1.531728,2.08566 -1.535311,2.80578 -0.0049,0.97897 -0.23873,0.85469 -0.750987,-0.39817 -0.655535,-1.6033 -1.487144,-2.46491 -2.96413,-3.07342 -0.902851,-0.37192 -1.323695,-0.44837 -2.80671,-0.50464 -1.868307,-0.071 -3.100165,0.0888 -4.896696,0.6343 l -1.09546,0.33337 -0.04538,1.09359 c -0.03986,0.97807 -0.01489,1.0936 0.235204,1.0936 0.153855,0 0.344834,-0.0645 0.424109,-0.14352 0.07928,-0.079 0.851281,-0.32583 1.714955,-0.5482 1.311512,-0.33805 1.812158,-0.39376 3.040988,-0.34449 1.260395,0.0507 1.599901,0.12382 2.367786,0.51023 1.140129,0.57367 1.688275,1.2622 1.918674,2.40946 0.158189,0.78771 0.149936,0.91224 -0.07408,1.07601 -0.168535,0.12329 -1.257147,0.21512 -3.249338,0.27318 -3.144834,0.0917 -4.024948,0.26074 -5.307841,1.01767 -0.281563,0.16612 -0.571864,0.30189 -0.645421,0.30189 -0.07356,0 -0.174195,-0.32501 -0.223169,-0.72135 -0.450356,-3.64499 -1.872602,-5.76832 -4.435546,-6.62185 -0.795385,-0.26489 -1.657675,-0.40255 -2.530761,-0.41671 z m 45.28054,1.30102 c -0.002,0.0192 -0.0038,0.0389 -0.0056,0.0584 0.0034,0.0144 0.0063,0.0305 0.0093,0.0471 0.0088,-0.0347 0.01092,-0.0516 0.01945,-0.0862 -0.0054,-0.004 -0.01806,-0.016 -0.02313,-0.0192 z m 0.06852,0.85655 c 0.0024,0.0588 0.0034,0.1464 0.0056,0.21113 0.02621,-0.0423 0.04638,-0.0887 0.07593,-0.12866 -0.02607,-0.0297 -0.0534,-0.0574 -0.08148,-0.0824 z m -45.252765,0.009 c 0.549239,0.0204 1.074168,0.11182 1.510309,0.27688 1.540437,0.58295 2.815088,2.48127 2.671514,3.9781 l -0.04815,0.50468 -4.665196,0.0398 -4.665195,0.0406 0.0037,-0.64727 c 0.007,-1.36606 1.193007,-3.10265 2.540948,-3.71975 0.753315,-0.34487 1.736671,-0.50734 2.652068,-0.47317 z m 19.301575,4.21981 c 0.103788,0.025 0.284962,0.23861 0.546341,0.64357 0.800137,1.23963 2.38982,2.04039 5.070783,2.5539 1.422688,0.2725 2.643477,0.76503 3.203965,1.29364 0.467355,0.44076 0.513004,0.56198 0.513004,1.35288 0,1.06777 -0.326289,1.58832 -1.291772,2.05571 -0.770674,0.37305 -3.030703,0.53277 -4.415174,0.31206 -0.986349,-0.15732 -2.57254,-0.68454 -3.185446,-1.05842 l -0.473186,-0.28796 -0.07591,-3.31417 c -0.04165,-1.82293 -0.02794,-3.4047 0.02964,-3.51417 0.01755,-0.0334 0.04319,-0.0455 0.07779,-0.037 z m -5.194863,1.98287 c 1.126917,-10e-4 2.106343,0.064 2.217773,0.19815 0.236068,0.28444 -0.03737,2.50577 -0.412996,3.3549 -0.403783,0.91284 -1.47349,2.04308 -2.26963,2.39742 -0.731215,0.32545 -2.550981,0.47975 -3.321566,0.28151 -0.673328,-0.17328 -1.160217,-0.51595 -1.656618,-1.16676 -0.330876,-0.4338 -0.434161,-0.75538 -0.481521,-1.49919 -0.119254,-1.87288 0.801349,-2.96882 2.824304,-3.36047 0.699091,-0.13546 1.973337,-0.20405 3.100254,-0.20556 z m -13.767789,0.6093 c 2.626782,0.007 5.236804,0.048 5.344879,0.11665 0.143226,0.091 0.134247,0.30272 -0.03981,0.94637 -0.130315,0.4819 -0.214771,1.3909 -0.20187,2.17241 0.01638,0.99805 -0.03208,1.37824 -0.187978,1.47697 -0.432152,0.27368 -2.067153,0.74478 -3.092844,0.89083 -3.026195,0.43115 -5.099183,-0.20077 -6.374594,-1.94185 -0.917946,-1.25309 -1.446699,-3.3628 -0.895443,-3.57436 0.17692,-0.068 2.820883,-0.0942 5.447665,-0.0871 z"
       inkscape:connector-curvature="0" />
  </g>
</svg>
