<?xml version="1.0" encoding="UTF-8" standalone="no"?>
<svg
   xmlns:dc="http://purl.org/dc/elements/1.1/"
   xmlns:cc="http://creativecommons.org/ns#"
   xmlns:rdf="http://www.w3.org/1999/02/22-rdf-syntax-ns#"
   xmlns:svg="http://www.w3.org/2000/svg"
   xmlns="http://www.w3.org/2000/svg"
   xmlns:sodipodi="http://sodipodi.sourceforge.net/DTD/sodipodi-0.dtd"
   xmlns:inkscape="http://www.inkscape.org/namespaces/inkscape"
   width="500"
   height="200"
   viewBox="0 0 500 200"
   version="1.1"
   id="svg10"
   sodipodi:docname="finalfantasy.svg"
   inkscape:version="0.92.5 (2060ec1f9f, 2020-04-08)">
  <metadata
     id="metadata16">
    <rdf:RDF>
      <cc:Work
         rdf:about="">
        <dc:format>image/svg+xml</dc:format>
        <dc:type
           rdf:resource="http://purl.org/dc/dcmitype/StillImage" />
        <dc:title />
      </cc:Work>
    </rdf:RDF>
  </metadata>
  <defs
     id="defs14">
    <linearGradient
       id="a"
       gradientUnits="userSpaceOnUse"
       x1="233.709"
       y1="1067.822"
       x2="728.45001"
       y2="704.33899"
       gradientTransform="matrix(0.42918829,0,0,0.42918829,30.578649,-287.05784)">
      <stop
         offset="0"
         stop-color="#edeff3"
         id="stop4" />
      <stop
         offset=".115"
         stop-color="#c3c8d9"
         id="stop6" />
      <stop
         offset=".27"
         stop-color="#809cc7"
         id="stop8" />
      <stop
         offset=".601"
         stop-color="#4a7c75"
         id="stop10" />
      <stop
         offset=".888"
         stop-color="#284b39"
         id="stop12" />
      <stop
         offset="1"
         stop-color="#171212"
         id="stop14" />
    </linearGradient>
  </defs>
  <sodipodi:namedview
     pagecolor="#ffffff"
     bordercolor="#666666"
     borderopacity="1"
     objecttolerance="10"
     gridtolerance="10"
     guidetolerance="10"
     inkscape:pageopacity="0"
     inkscape:pageshadow="2"
     inkscape:window-width="1366"
     inkscape:window-height="743"
     id="namedview12"
     showgrid="false"
     units="px"
     inkscape:pagecheckerboard="true"
     inkscape:zoom="1.3116588"
     inkscape:cx="362.55895"
     inkscape:cy="99.542936"
     inkscape:window-x="0"
     inkscape:window-y="0"
     inkscape:window-maximized="1"
     inkscape:current-layer="svg10" />
  <path
     inkscape:connector-curvature="0"
     id="path2"
     style="stroke-width:0.42918828;fill:#ffffff"
     d="m 72.769325,32.48311 v 3.033115 c 1.824045,0.288843 2.735378,1.733579 2.735378,4.334029 v 90.567936 c 0,4.33393 -0.911333,6.35676 -2.735378,6.06664 v 3.03352 h 15.24113 v -3.03352 c -2.018043,0.21715 -3.061517,-1.80609 -3.126325,-6.06664 V 39.850254 c 0,-2.60045 0.912595,-4.045186 2.73664,-4.334029 l 0.195689,-3.033115 z m 104.183115,0 v 3.249797 c 2.29486,0.144203 3.50291,2.094973 3.62393,5.850378 l -4.2e-4,89.702445 c -0.12103,3.17687 -1.38859,4.91024 -3.80493,5.19952 v 3.03352 h 26.09445 V 95.750941 h -2.35532 c -2.5369,24.267169 -6.08616,36.581019 -10.64632,36.941979 l -0.0454,-91.109635 c 0,-3.755405 1.20848,-5.778217 3.62473,-6.06706 V 32.48311 Z m -75.61318,4.28e-4 v 2.816853 c 2.34466,0.576829 3.33211,2.166106 2.96172,4.766555 l 4.3e-4,91.868844 c 0.12361,3.03351 -0.86342,4.69396 -2.96172,4.98367 l -0.1856,2.38348 h 12.59141 v -2.601 c -2.22191,0.1442 -3.14773,-1.37302 -2.77821,-4.5503 V 71.267703 l 8.88853,68.035227 h 8.70291 V 44.400975 c 0,-5.634813 0.61749,-8.66669 2.22308,-9.100174 v -2.816852 h -11.29553 v 3.033114 c 1.48069,0.288845 2.22182,1.516608 2.22182,3.683152 v 53.734721 l -7.22227,-60.451407 z m 197.60738,0 v 2.816853 c 2.41162,0.577257 3.04658,2.166106 3.04658,4.766555 v 91.868414 c 0,3.03351 -0.88995,4.69395 -3.04658,4.98366 l -0.19019,2.38349 h 12.94364 v -2.601 c -2.28363,0.1442 -2.85498,-1.35801 -2.85498,-4.55031 V 71.267284 l 9.13671,68.035646 h 8.94605 V 44.400975 c -0.12709,-5.633096 0.63454,-8.66669 2.28433,-9.100174 v -2.816852 h -11.61175 v 3.033114 c 1.52279,0.288845 2.28444,1.516608 2.28444,3.683152 v 53.734721 l -7.42385,-60.451407 z m 43.59816,0.196107 -0.021,37.720929 h 2.57335 c 0.85837,-15.599709 2.82033,-24.771686 5.88558,-27.516776 v 88.618622 c 0.2451,3.61077 -1.10337,5.84931 -4.04632,6.71628 v 1.51676 h 17.10309 v -1.51676 c -2.69706,-0.86697 -4.04553,-3.03345 -4.04553,-6.50042 V 42.883788 c 2.81925,2.888863 4.53621,12.060839 5.1491,27.516776 h 3.12633 l 0.0379,-37.720929 z m -308.776751,0.01977 v 2.816851 c 2.244236,0 3.366544,1.155723 3.366544,3.466471 v 92.517633 c 0.125318,3.90046 -0.873052,5.41767 -2.992386,4.55029 l 0.18771,3.25021 h 15.709352 l -0.187281,-3.25021 c -1.745509,1.01159 -2.617811,-0.57639 -2.617811,-4.76614 V 85.134036 c 3.491018,0.866956 5.236443,7.150278 5.236443,18.850384 h 2.618656 V 59.565712 L 52.47062,59.349029 c -0.124462,12.13359 -1.869887,17.549807 -5.236443,16.250219 V 38.765624 c 3.739511,0.144212 6.545306,2.275305 8.414848,6.392082 1.870839,4.117197 3.242721,11.809035 4.115249,23.075654 h 2.617811 V 32.699402 Z m 194.137511,0 v 2.816851 c 2.23691,0 3.35605,1.155723 3.35605,3.466471 v 92.517633 c 0.12361,3.90046 -0.87026,5.41767 -2.98357,4.55029 l 0.18769,3.25021 h 15.65896 l -0.18639,-3.25021 c -1.74042,1.01159 -2.6103,-0.57639 -2.6103,-4.76614 V 85.134036 c 3.48036,0.866956 5.22049,7.150278 5.22049,18.850384 h 2.60939 V 59.565712 l -2.60939,-0.216683 c -0.124,12.13359 -1.86463,17.549807 -5.22049,16.250219 V 38.765624 c 3.72795,0.14464 6.52444,2.275305 8.38887,6.392082 1.86482,4.117197 3.23226,11.809035 4.10182,23.075654 h 2.6102 V 32.699402 Z m -79.60536,9.97e-4 c -3.49403,68.467558 -5.58318,103.099808 -6.2699,103.893368 -0.68627,0.79357 -1.5284,1.26423 -2.52626,1.40799 v 1.51677 h 12.16562 v -1.51677 c -1.62276,-1.73348 -2.05909,-7.94432 -1.31015,-18.63369 h 4.67835 c 0.49959,10.68937 4.3e-4,16.90021 -1.49661,18.63369 v 1.51677 h 14.41054 v -1.51677 c -0.99787,-0.14376 -1.74662,-0.61356 -2.24533,-1.40799 -0.49915,-0.79314 -3.05734,-35.42581 -7.67411,-103.893368 z m 122.25997,0 c -3.5167,68.467558 -5.62092,103.099368 -6.31098,103.893368 -0.69147,0.79357 -1.53746,1.26423 -2.54271,1.40799 v 1.51677 h 12.2433 v -1.51677 c -1.63212,-1.73348 -2.07219,-7.94432 -1.31893,-18.63369 h 4.70983 c 0.50217,10.68937 2.1e-4,16.90021 -1.50751,18.63369 v 1.51677 h 14.50417 v -1.51677 c -1.00474,-0.14376 -1.75791,-0.61356 -2.26047,-1.40799 -0.50217,-0.79314 -3.07682,-35.42581 -7.72235,-103.893368 z m 114.971,0 c -3.3983,68.467558 -5.42993,103.099368 -6.09854,103.893368 -0.6678,0.79357 -1.48614,1.26423 -2.45704,1.40799 v 1.51677 h 11.83138 v -1.51677 c -1.57811,-1.73348 -2.0015,-7.94432 -1.27401,-18.63369 h 4.55109 c 0.4841,10.68937 0,16.90021 -1.4575,18.63369 v 1.51677 h 14.01868 v -1.51677 c -0.97079,-0.14376 -1.69939,-0.61356 -2.1844,-1.40799 -0.4859,-0.79314 -2.97359,-35.42581 -7.46378,-103.893368 z m 42.38626,0.215425 c -6.03045,4.3e-4 -9.72236,3.756112 -11.07553,11.26656 l 0.1852,21.450546 c 0.98457,6.211651 4.92188,15.601034 11.81291,28.167666 1.10816,1.87683 1.84644,5.055806 2.21504,9.533511 1.10777,8.81039 1.10777,17.55094 0,26.21754 -0.24629,2.31075 -1.32272,2.88883 -3.23047,1.73303 -1.90596,-1.15582 -2.24459,-13.00031 -1.01413,-35.533961 l -9.96855,6.067061 v 20.7455 c 0.98418,11.15847 5.04547,16.9543 12.1837,17.38778 7.38291,0.14377 11.38261,-6.35653 11.9985,-19.50043 0.61458,-11.84345 -0.18479,-20.943369 -2.40074,-27.300498 -2.21505,-6.355428 -6.46063,-15.455786 -12.73708,-27.300097 l -0.18439,-21.666814 c 0,-3.46656 0.70683,-5.16367 2.12269,-5.091997 1.41596,0.07247 2.1228,1.914171 2.1228,5.525363 0.12229,7.511216 0.12229,15.600808 0,24.266978 l 9.22986,-6.93337 -0.55467,-13.867139 c -0.3682,-9.966624 -3.93611,-15.022192 -10.70435,-15.167233 v 0 z m 22.51006,1.300504 0.19777,2.383488 c 2.93307,0 3.9435,1.52137 4.35292,6.716267 l 4.33315,54.988607 v 32.161967 c 0,3.61119 -1.87022,5.44121 -3.72216,5.58499 v 3.03353 h 14.29291 v -2.81685 c -2.118,-0.28928 -3.11026,-2.23963 -2.97768,-5.84995 V 98.351111 l 9.13083,-58.284174 c 0.13248,-0.845884 0.36629,-1.519023 0.77982,-2.016891 v -3.833489 h -10.10963 v 2.600169 c 2.13817,0.05661 2.81097,2.707822 2.48002,6.825018 -0.33006,4.116778 -1.20852,13.97545 -2.94155,28.275576 -1.36784,-5.656697 -2.78211,-12.530804 -3.70878,-21.991834 -0.92618,-9.461028 -0.62477,-13.097168 2.58134,-13.10876 v -2.600169 z m -298.00953,40.733456 1.87118,35.100603 h -3.64955 z m 122.28517,0 1.88379,35.100603 h -3.67303 z m 114.83283,0 1.8191,35.100603 h -3.54954 z M 23.368223,149.05161 v 5.20034 H 477.72205 v -5.20034 z" />
  <path
     d="m 13.42983,197.3982 c 1.556474,0 3.070241,-0.36523 4.541298,-1.09569 1.471057,-0.7305 2.681122,-1.71142 3.63019,-2.94278 v 0 l -2.704848,-2.94277 c -0.70231,0.89744 -1.50902,1.58617 -2.420127,2.06622 -0.911106,0.48001 -1.888648,0.72002 -2.932624,0.72002 -0.930089,0 -1.788997,-0.18261 -2.576724,-0.54785 -0.787729,-0.36525 -1.471058,-0.86093 -2.049992,-1.48704 -0.578933,-0.62612 -1.034485,-1.37225 -1.36666,-2.23837 -0.332175,-0.86615 -0.498261,-1.80011 -0.498261,-2.8019 0,-1.02267 0.161342,-1.96706 0.484026,-2.8332 0.322682,-0.86613 0.768747,-1.61748 1.338188,-2.25403 0.56944,-0.63656 1.248025,-1.13746 2.035754,-1.50269 0.787727,-0.36524 1.627652,-0.54784 2.51978,-0.54784 1.062958,0 2.068971,0.25565 3.018041,0.76698 0.94907,0.51133 1.774761,1.24703 2.477071,2.20707 v 0 l 2.790265,-3.03668 c -0.930089,-1.25223 -2.144897,-2.2488 -3.644427,-2.98972 -1.499532,-0.74092 -3.046514,-1.11136 -4.64095,-1.11136 -1.480549,0 -2.870937,0.2922 -4.171161,0.87658 -1.300226,0.58436 -2.424874,1.37745 -3.373942,2.37924 -0.949069,1.0018 -1.698835,2.19664 -2.249295,3.58454 -0.550461,1.3879 -0.82569,2.87492 -0.82569,4.46111 0,1.58615 0.270484,3.068 0.811452,4.44546 0.54097,1.37746 1.285991,2.56708 2.235061,3.56888 0.94907,1.00179 2.073716,1.79489 3.373942,2.37926 1.300226,0.58437 2.700103,0.87656 4.199633,0.87656 z m 53.954605,0.0313 c 1.480548,0 2.866189,-0.29218 4.156924,-0.87656 1.290735,-0.58438 2.405884,-1.38267 3.34547,-2.39491 0.939575,-1.01223 1.684599,-2.2123 2.23506,-3.60018 0.550473,-1.38791 0.82568,-2.86453 0.82568,-4.42982 0,-1.5653 -0.275207,-3.0419 -0.82568,-4.42979 -0.550461,-1.38791 -1.295485,-2.58797 -2.23506,-3.60019 -0.939586,-1.01223 -2.054735,-1.81053 -3.34547,-2.39492 -1.290735,-0.58438 -2.676376,-0.87656 -4.156924,-0.87656 -1.461571,0 -2.837724,0.29218 -4.128459,0.87656 -1.290735,0.58439 -2.405884,1.38269 -3.34547,2.39492 -0.939575,1.01222 -1.684592,2.21228 -2.235053,3.60019 -0.550461,1.38789 -0.825693,2.86449 -0.825693,4.42979 0,1.5653 0.275232,3.04192 0.825693,4.42982 0.550461,1.38789 1.295478,2.58795 2.235053,3.60018 0.939586,1.01224 2.054735,1.81053 3.34547,2.39491 1.290735,0.58439 2.666888,0.87657 4.128459,0.87657 z m 0,-4.1637 c -0.892122,0 -1.722563,-0.1826 -2.491302,-0.54785 -0.76875,-0.36523 -1.433095,-0.86611 -1.993056,-1.50268 -0.559949,-0.63656 -1.001266,-1.39312 -1.323949,-2.26968 -0.322684,-0.8766 -0.484032,-1.81577 -0.484032,-2.81756 0,-1.02265 0.161348,-1.96706 0.484032,-2.83318 0.322683,-0.86615 0.764,-1.61749 1.323949,-2.25404 0.559961,-0.63656 1.224306,-1.13746 1.993056,-1.5027 0.768739,-0.36523 1.59918,-0.54785 2.491302,-0.54785 0.892122,0 1.727302,0.18262 2.50554,0.54785 0.778239,0.36524 1.447333,0.86614 2.007294,1.5027 0.559938,0.63655 1.001255,1.38789 1.32395,2.25404 0.322672,0.86612 0.48402,1.81053 0.48402,2.83318 0,1.00179 -0.161348,1.94096 -0.48402,2.81756 -0.322695,0.87656 -0.764012,1.63312 -1.32395,2.26968 -0.559961,0.63657 -1.229055,1.13745 -2.007294,1.50268 -0.778238,0.36525 -1.613418,0.54785 -2.50554,0.54785 z m 62.581645,3.81933 v -4.00716 h -10.9048 v -17.90704 h -4.12847 v 21.9142 z m 52.04696,0 v -4.00716 h -10.90482 v -17.90704 h -4.12843 v 21.9142 z m 52.44558,0 V 193.1406 H 223.1552 v -5.1968 h 7.37429 v -3.81933 h -7.37429 v -5.00896 h 11.18954 v -3.94456 h -15.31797 v 21.91422 z m 45.78312,0.31307 c 1.55649,0 3.07025,-0.36524 4.5413,-1.09571 1.47105,-0.73047 2.68112,-1.71139 3.6302,-2.94277 v 0 l -2.70485,-2.94275 c -0.7023,0.89744 -1.50902,1.58616 -2.42014,2.06619 -0.91111,0.48001 -1.88865,0.72004 -2.93263,0.72004 -0.93006,0 -1.78899,-0.18262 -2.5767,-0.54785 -0.78775,-0.36526 -1.47107,-0.86093 -2.04999,-1.48704 -0.57894,-0.62612 -1.03451,-1.37224 -1.36666,-2.23838 -0.33219,-0.86613 -0.49828,-1.80011 -0.49828,-2.8019 0,-1.02265 0.16134,-1.96706 0.48404,-2.83318 0.32268,-0.86615 0.76873,-1.61749 1.33818,-2.25404 0.56945,-0.63656 1.24802,-1.13746 2.03576,-1.5027 0.78771,-0.36523 1.62764,-0.54785 2.51977,-0.54785 1.06297,0 2.06897,0.25567 3.01803,0.76701 0.94908,0.51133 1.77478,1.247 2.47709,2.20705 v 0 l 2.79025,-3.03667 c -0.93007,-1.25225 -2.14489,-2.24882 -3.64443,-2.98973 -1.49951,-0.7409 -3.0465,-1.11135 -4.64094,-1.11135 -1.48055,0 -2.87093,0.29218 -4.17115,0.87656 -1.30023,0.58439 -2.42488,1.37747 -3.37395,2.37926 -0.94906,1.0018 -1.69883,2.19664 -2.24929,3.58454 -0.55047,1.38789 -0.8257,2.87492 -0.8257,4.4611 0,1.58616 0.27049,3.06799 0.81145,4.44546 0.54099,1.37747 1.286,2.5671 2.23507,3.56889 0.94906,1.0018 2.0737,1.79489 3.37393,2.37925 1.30024,0.58437 2.7001,0.87657 4.19964,0.87657 z m 54.60947,-0.31307 v -17.90706 h 6.69093 v -4.00716 h -17.53881 v 4.00716 h 6.71943 v 17.90704 z m 47.29214,0 v -21.9142 h -4.12845 v 21.9142 z m 47.54838,0.34437 c 1.48055,0 2.86619,-0.29218 4.15692,-0.87656 1.29074,-0.58438 2.4059,-1.38267 3.34547,-2.39491 0.93959,-1.01223 1.68459,-2.2123 2.23506,-3.60018 0.55046,-1.38791 0.82569,-2.86453 0.82569,-4.42982 0,-1.5653 -0.27523,-3.0419 -0.82569,-4.42979 -0.55047,-1.38791 -1.29547,-2.58797 -2.23506,-3.60019 -0.93957,-1.01223 -2.05473,-1.81053 -3.34547,-2.39492 -1.29073,-0.58438 -2.67637,-0.87656 -4.15692,-0.87656 -1.46157,0 -2.83771,0.29218 -4.12847,0.87656 -1.29071,0.58439 -2.4059,1.38269 -3.34545,2.39492 -0.93959,1.01222 -1.68461,2.21228 -2.23506,3.60019 -0.55047,1.38789 -0.8257,2.86449 -0.8257,4.42979 0,1.5653 0.27523,3.04192 0.8257,4.42982 0.55045,1.38789 1.29547,2.58795 2.23506,3.60018 0.93955,1.01224 2.05474,1.81053 3.34545,2.39491 1.29076,0.58439 2.6669,0.87657 4.12847,0.87657 z m 0,-4.1637 c -0.89211,0 -1.72258,-0.1826 -2.4913,-0.54785 -0.76875,-0.36523 -1.4331,-0.86611 -1.99306,-1.50268 -0.55995,-0.63656 -1.00125,-1.39312 -1.32396,-2.26968 -0.32266,-0.8766 -0.48401,-1.81577 -0.48401,-2.81756 0,-1.02265 0.16135,-1.96706 0.48401,-2.83318 0.32271,-0.86615 0.76401,-1.61749 1.32396,-2.25404 0.55996,-0.63656 1.22431,-1.13746 1.99306,-1.5027 0.76872,-0.36523 1.59919,-0.54785 2.4913,-0.54785 0.89211,0 1.72731,0.18262 2.50554,0.54785 0.77825,0.36524 1.44734,0.86614 2.00729,1.5027 0.55994,0.63655 1.00126,1.38789 1.32394,2.25404 0.32268,0.86612 0.48403,1.81053 0.48403,2.83318 0,1.00179 -0.16135,1.94096 -0.48403,2.81756 -0.32268,0.87656 -0.764,1.63312 -1.32394,2.26968 -0.55995,0.63657 -1.22904,1.13745 -2.00729,1.50268 -0.77823,0.36525 -1.61343,0.54785 -2.50554,0.54785 z m 51.44905,3.81933 v -14.65121 l 10.16454,14.65121 h 3.64443 v -21.9142 h -3.8722 v 14.18163 l -9.9083,-14.18163 h -3.92915 v 21.9142 z"
     id="COLLECTION"
     inkscape:connector-curvature="0"
     style="fill:#ffffff;fill-rule:nonzero;stroke:none;stroke-width:1.2758193" />
</svg>
