<?xml version="1.0" encoding="UTF-8" standalone="no"?>
<svg
   xmlns:dc="http://purl.org/dc/elements/1.1/"
   xmlns:cc="http://creativecommons.org/ns#"
   xmlns:rdf="http://www.w3.org/1999/02/22-rdf-syntax-ns#"
   xmlns:svg="http://www.w3.org/2000/svg"
   xmlns="http://www.w3.org/2000/svg"
   xmlns:sodipodi="http://sodipodi.sourceforge.net/DTD/sodipodi-0.dtd"
   xmlns:inkscape="http://www.inkscape.org/namespaces/inkscape"
   width="500"
   height="200"
   viewBox="0 0 500 200"
   version="1.1"
   id="svg84"
   sodipodi:docname="gamegear.svg"
   inkscape:version="0.92.5 (2060ec1f9f, 2020-04-08)">
  <metadata
     id="metadata90">
    <rdf:RDF>
      <cc:Work
         rdf:about="">
        <dc:format>image/svg+xml</dc:format>
        <dc:type
           rdf:resource="http://purl.org/dc/dcmitype/StillImage" />
        <dc:title>mainlogo</dc:title>
      </cc:Work>
    </rdf:RDF>
  </metadata>
  <defs
     id="defs88" />
  <sodipodi:namedview
     pagecolor="#ffffff"
     bordercolor="#666666"
     borderopacity="1"
     objecttolerance="10"
     gridtolerance="10"
     guidetolerance="10"
     inkscape:pageopacity="0"
     inkscape:pageshadow="2"
     inkscape:window-width="1366"
     inkscape:window-height="743"
     id="namedview86"
     showgrid="false"
     inkscape:pagecheckerboard="true"
     inkscape:zoom="1.6352106"
     inkscape:cx="349.16841"
     inkscape:cy="55.964566"
     inkscape:window-x="0"
     inkscape:window-y="0"
     inkscape:window-maximized="1"
     inkscape:current-layer="svg84" />
  <title
     id="title18">mainlogo</title>
  <path
     style="fill:#ffffff;fill-rule:nonzero;stroke:none;stroke-width:1.03437102"
     inkscape:connector-curvature="0"
     id="path21"
     d="M 4.5816795,79.525281 22.444646,79.50717 c 7.308293,0 13.230999,-5.904593 13.230999,-13.179997 0,-7.289704 -5.922706,-13.194774 -13.230999,-13.194774 l -4.639118,0.02526 c -0.365582,0 -0.662051,-0.299806 -0.662051,-0.668723 0,-0.368918 0.296469,-0.6692 0.662051,-0.6692 l 17.830555,0.0038 0.0071,-5.593824 H 17.801715 c -3.449431,0 -6.255876,2.802155 -6.255876,6.244912 0,3.446094 2.805968,6.237286 6.255876,6.237286 l 4.661044,0.06148 c 4.187265,0 7.575686,3.37698 7.575686,7.543275 0,4.169153 -3.387944,7.553761 -7.575686,7.553761 H 4.5888291 l -0.00715,5.654835" />
  <path
     style="fill:#ffffff;fill-rule:nonzero;stroke:none;stroke-width:1.03437102"
     inkscape:connector-curvature="0"
     id="path23"
     d="M 4.5888291,72.557308 H 22.462759 c 3.460392,0 6.259212,-2.791193 6.259212,-6.241099 0,-3.446094 -2.79882,-6.233951 -6.259212,-6.233951 l -4.661044,-0.05053 c -4.180117,0 -7.571874,-3.380794 -7.571874,-7.557573 0,-4.165341 3.391757,-7.546612 7.571874,-7.546612 l 17.841518,-0.0038 -0.0071,-5.615273 H 17.805528 c -7.300666,0 -13.2309981,5.89792 -13.2309981,13.180473 0,7.282555 5.9303321,13.183811 13.2309981,13.183811 l 4.613857,0.0071 c 0.350806,0 0.647274,0.285983 0.647274,0.647275 0,0.354619 -0.296468,0.640125 -0.647274,0.640125 l -17.8377055,0.0143 0.00715,5.575713" />
  <path
     style="fill:#ffffff;fill-rule:nonzero;stroke:none;stroke-width:1.03437102"
     inkscape:connector-curvature="0"
     id="path25"
     d="m 49.524842,73.906194 c -3.099101,0 -5.637676,-2.469939 -5.637676,-5.623376 V 50.43844 c 0,-3.033802 2.538575,-5.529003 5.637676,-5.529003 l 19.066955,0.0033 V 39.308462 H 49.524842 c -6.204875,0 -11.231024,5.008037 -11.231024,11.191464 v 17.783369 c 0,6.183903 5.026149,11.199089 11.231024,11.199089 l 18.987356,0.0077 -0.0038,-5.590488 -18.983543,0.0067" />
  <path
     style="fill:#ffffff;fill-rule:nonzero;stroke:none;stroke-width:1.03437102"
     inkscape:connector-curvature="0"
     id="path27"
     d="m 45.254164,50.499926 c 0,-2.364602 1.902263,-4.281164 4.270678,-4.281164 h 19.066955 v 5.611937 H 52.164464 c -1.315998,0 -1.33411,1.305512 -1.33411,1.305512 h 13.704775 v 5.586676 H 45.247492 l 0.0067,-8.222961" />
  <path
     style="fill:#ffffff;fill-rule:nonzero;stroke:none;stroke-width:1.03437102"
     inkscape:connector-curvature="0"
     id="path29"
     d="m 49.524842,72.546822 c -2.361265,0 -4.277827,-1.905599 -4.277827,-4.263527 v -8.230112 h 19.287639 v 5.598115 H 50.829877 c 0.01811,1.315999 1.33411,1.322671 1.33411,1.322671 h 16.347735 l -0.0038,5.565228 -18.983066,0.0077" />
  <path
     style="fill:#ffffff;fill-rule:nonzero;stroke:none;stroke-width:1.03437102"
     inkscape:connector-curvature="0"
     id="path31"
     d="m 81.953394,73.891895 c -3.088139,0 -5.611937,-2.516649 -5.611937,-5.609077 V 50.499449 c 0,-3.095288 2.505686,-5.590488 5.597161,-5.590488 H 100.40596 V 39.308462 H 81.895721 c -6.202016,0 -11.228165,5.008037 -11.228165,11.191464 v 17.783369 c 0,6.183903 5.069523,11.199089 11.271062,11.199089 l 18.467342,0.0077 V 53.136211 H 84.535342 v 5.586676 H 94.797361 V 73.891895 H 81.953394" />
  <path
     style="fill:#ffffff;fill-rule:nonzero;stroke:none;stroke-width:1.03437102"
     inkscape:connector-curvature="0"
     id="path33"
     d="m 77.657454,68.282818 c 0,2.369368 1.916562,4.296416 4.281164,4.296416 h 11.535119 v -12.5332 h -8.924572 v 5.605264 h 3.312158 l 0.01049,1.315999 h -3.297384 c -0.719724,0 -1.308849,-0.596275 -1.308849,-1.315999 l -0.02955,-12.5189 c 0,0 -0.0038,-1.301699 1.323624,-1.33411 h 15.852506 l -0.007,-5.583339 -18.46734,0.0038 c -2.364602,0 -4.281164,1.916563 -4.281164,4.281165 v 17.782891" />
  <path
     style="fill:#ffffff;fill-rule:nonzero;stroke:none;stroke-width:1.03437102"
     inkscape:connector-curvature="0"
     id="path35"
     d="m 117.75892,46.13535 c 0.24881,-0.712097 0.92516,-1.225436 1.72448,-1.225436 0.7998,0 1.48283,0.513339 1.72496,1.225436 l 8.96461,26.483445 h -13.12662 l 0.0143,-6.230137 h 4.38651 l -1.97472,-5.868845 -6.4327,18.965431 h -6.61717 L 117.7589,46.13535" />
  <path
     style="fill:#ffffff;fill-rule:nonzero;stroke:none;stroke-width:1.03437102"
     inkscape:connector-curvature="0"
     id="path37"
     d="m 131.98037,73.891895 h -14.91209 v 5.593349 h 22.69369 L 127.95946,44.565781 c -1.03431,-3.406056 -4.4437,-5.911743 -8.47987,-5.911743 -4.04237,0 -7.44128,2.494724 -8.48321,5.897921 L 99.085675,79.48572 h 5.941295 l 11.5642,-33.957606 c 0.46948,-1.12439 1.57671,-1.916562 2.87841,-1.916562 1.29455,0 2.40798,0.792172 2.88175,1.909412 l 9.62904,28.370931" />
  <path
     style="fill:#ffffff;fill-rule:nonzero;stroke:none;stroke-width:1.03437102"
     inkscape:connector-curvature="0"
     id="Shape"
     d="m 135.48462,43.752636 c 1.05623,0 2.0505,-0.412291 2.79549,-1.153464 0.74451,-0.748322 1.1606,-1.735439 1.1606,-2.791193 0,-1.048604 -0.41609,-2.032385 -1.1606,-2.780707 -0.74499,-0.737359 -1.73926,-1.149651 -2.79549,-1.149651 -2.17299,0 -3.94847,1.761178 -3.94847,3.930835 0,1.055753 0.41229,2.042871 1.16395,2.791193 0.74165,0.740696 1.73211,1.152987 2.78452,1.152987 m -3.39128,-3.945133 c 0,-0.90037 0.347,-1.753552 0.99379,-2.393677 0.64394,-0.640125 1.49712,-0.987118 2.39749,-0.987118 0.91133,0 1.76452,0.34747 2.40846,0.987118 0.64012,0.640125 0.99474,1.493307 0.99474,2.393677 0,1.869374 -1.52619,3.387944 -3.4032,3.387944 -0.90085,0 -1.75403,-0.350806 -2.39749,-0.990931 -0.64728,-0.639649 -0.99379,-1.489494 -0.99379,-2.397013 z" />
  <path
     style="fill:#ffffff;fill-rule:nonzero;stroke:none;stroke-width:1.03437102"
     inkscape:connector-curvature="0"
     id="path40"
     d="m 134.47225,40.140196 v 1.858412 h -0.57149 v -4.367912 h 1.62342 c 0.61153,0.0071 0.96949,0.0071 1.30933,0.263581 0.32888,0.242609 0.46662,0.607714 0.46662,1.012856 0,1.020006 -0.83125,1.153464 -1.04193,1.196839 l 1.22973,1.894636 h -0.69065 l -1.19683,-1.858412 h -1.1282 m 0,-0.480928 h 1.1606 c 0.18494,0 0.35844,0 0.53194,-0.04337 0.40514,-0.09771 0.54956,-0.38703 0.54956,-0.704948 0,-0.115823 -0.011,-0.408479 -0.26072,-0.61105 -0.22831,-0.191609 -0.51716,-0.184459 -0.85318,-0.184459 h -1.1282 z" />
  <g
     id="Group-29"
     transform="matrix(1.034371,0,0,1.034371,1.3090821,91.955419)"
     style="fill:#ffffff;fill-rule:nonzero;stroke:none;stroke-width:1">
    <g
       id="Gamegear_eu_logo">
      <g
         id="Document"
         transform="matrix(1,0,0,-1,0,59.239999)">
        <g
           id="Spread">
          <g
             id="Layer-1">
            <polygon
               id="polygon43"
               points="52.812159,44.938239 41.724159,58.115839 22.462719,58.115839 7.5302398,44.938239 0.16,0.33215999 45.779199,0.33215999 51.375359,35.813759 38.196479,35.813759 20.920959,22.63552 32.071679,22.63552 30.636159,13.5104 18.4704,13.5104 23.412479,44.938239 " />
            <polygon
               id="polygon45"
               points="44.342399,48.993279 40.076159,54.061439 22.84224,54.061439 12.26176,43.924479 5.8623999,4.3871999 41.343999,4.3871999 45.672959,31.758719 38.576639,31.758719 31.692159,26.689919 37.774719,26.689919 35.050239,9.4559998 13.76064,9.4559998 20.0128,48.993279 " />
            <polygon
               id="polygon47"
               points="305.23839,44.938239 294.15039,58.115839 274.88831,58.115839 259.95583,44.938239 252.58495,0.33215999 298.20415,0.33215999 303.80159,35.813759 290.62207,35.813759 273.34655,22.63552 284.49727,22.63552 283.06175,13.5104 270.89663,13.5104 275.83807,44.938239 " />
            <polygon
               id="polygon49"
               points="296.76799,48.993279 292.50175,54.061439 275.26847,54.061439 264.68671,43.924479 258.28671,4.3871999 293.76959,4.3871999 298.09791,31.758719 291.00287,31.758719 284.11839,26.689919 290.20095,26.689919 287.47583,9.4559998 266.18623,9.4559998 272.43839,48.993279 " />
            <path
               d="M 98.494718,0.33215999 108.63168,58.115839 H 77.205758 l -16.283519,-13.1776 h 27.371519 l -1.4368,-9.12448 h -14.192 L 56.401919,22.635519 52.874879,0.33215999 H 98.494718 M 84.787198,22.635519 83.351678,13.5104 h -11.152 l 1.4368,9.125119 z"
               id="path51"
               inkscape:connector-curvature="0" />
            <polygon
               id="polygon53"
               points="80.879998,4.3871999 81.683198,9.4559998 66.476158,9.4559998 69.200638,26.689919 90.490238,26.689919 86.963198,4.3871999 94.058878,4.3871999 101.91616,54.061439 78.599678,54.061439 72.727678,48.993279 94.016638,48.993279 91.292158,31.758719 74.058238,31.758719 61.470719,20.60736 58.577919,4.3871999 " />
            <path
               d="m 398.56703,0.33215999 10.1376,57.78367901 h -31.42656 l -16.28352,-13.1776 h 27.37152 l -1.4368,-9.12448 h -14.192 l -16.26304,-13.17824 -3.5264,-22.30335901 h 45.6192 M 384.86015,22.635519 383.42335,13.5104 h -11.15072 l 1.43616,9.125119 z"
               id="path55"
               inkscape:connector-curvature="0" />
            <polygon
               id="polygon57"
               points="380.95231,4.3871999 381.75551,9.4559998 366.54911,9.4559998 369.27295,26.689919 390.56255,26.689919 387.03551,4.3871999 394.13183,4.3871999 401.98847,54.061439 378.67135,54.061439 372.79999,48.993279 394.08959,48.993279 391.36447,31.758719 374.13055,31.758719 361.54303,20.60736 358.64959,4.3871999 " />
            <polygon
               id="polygon59"
               points="232.24704,44.938239 234.33728,58.115839 205.952,58.115839 191.0208,44.938239 183.64928,0.33215999 225.21408,0.33215999 227.30432,13.5104 201.96032,13.5104 203.39712,22.63552 228.74112,22.63552 230.81088,35.813759 205.46687,35.813759 206.90303,44.938239 " />
            <polygon
               id="polygon61"
               points="227.83231,48.993279 228.63551,54.061439 208.36032,54.061439 195.75104,42.910719 189.35232,4.3871999 220.77823,4.3871999 221.58079,9.4559998 197.25056,9.4559998 199.97504,26.689919 224.30527,26.689919 225.10783,31.758719 200.7776,31.758719 203.50207,48.993279 " />
            <polygon
               id="polygon63"
               points="353.89759,44.938239 355.98911,58.115839 327.60383,58.115839 312.67135,44.938239 305.30047,0.33215999 346.86527,0.33215999 348.95551,13.5104 323.61215,13.5104 325.04831,22.63552 350.39231,22.63552 352.46207,35.813759 327.11807,35.813759 328.55295,44.938239 " />
            <polygon
               id="polygon65"
               points="349.48415,48.993279 350.28607,54.061439 330.01215,54.061439 317.40287,42.910719 311.00415,4.3871999 342.43007,4.3871999 343.23263,9.4559998 318.90175,9.4559998 321.62623,26.689919 345.95711,26.689919 346.75903,31.758719 322.42879,31.758719 325.15327,48.993279 " />
            <path
               d="M 438.58879,22.635519 435.06175,0.33215999 h 16.2208 l 3.35744,20.27519901 -6.92672,7.60384 9.33504,8.61632 3.35808,21.28832 h -31.42656 l -15.94688,-13.1776 -7.3696,-44.60607901 h 16.2208 l 3.5264,22.30335901 h 13.17824 m 3.50656,22.30272 -1.4368,-9.12448 h -13.17824 l 1.43552,9.12448 z"
               id="path67"
               inkscape:connector-curvature="0" />
            <path
               d="M 417.76447,42.910719 411.36639,4.3871999 h 7.09568 l 3.52704,22.3027191 h 21.28832 L 439.75039,4.3871999 h 7.09632 l 2.72512,15.2064001 -6.2944,7.096319 0.80256,5.0688 7.90016,6.08256 2.7232,16.22016 h -24.3296 l -12.60928,-11.15072 m 26.31552,-11.152 h -21.28896 l 2.72448,17.23456 h 21.28896 z"
               id="path69"
               inkscape:connector-curvature="0" />
            <polygon
               id="polygon71"
               points="176.5536,0.33215999 185.6768,58.115839 128.90752,58.115839 112.96192,43.924479 105.5904,0.33215999 122.82496,0.33215999 129.85792,44.938239 139.99488,44.938239 132.96192,0.33215999 150.19648,0.33215999 157.22944,44.938239 166.352,44.938239 159.31904,0.33215999 " />
            <polygon
               id="polygon73"
               points="172.11776,4.3871999 179.97504,54.061439 130.30144,54.061439 117.69216,42.910719 111.29344,4.3871999 118.38912,4.3871999 125.4432,48.993279 145.7184,48.993279 138.66496,4.3871999 145.76128,4.3871999 152.81472,48.993279 172.07552,48.993279 165.02208,4.3871999 " />
          </g>
        </g>
      </g>
    </g>
    <path
       d="M 467.03591,7.3791741 V 1.9500898 H 465 V 1 h 5.29336 V 1.9500898 H 467.986 v 5.4290843 z m 3.80036,0 V 1 h 1.62872 L 474.09372,6.1576302 475.72244,1 h 1.493 v 6.3791741 h -0.95009 V 1.9500898 l -1.62873,5.4290843 h -0.95009 l -1.76445,-5.4290843 v 5.4290843 z"
       id="path79"
       inkscape:connector-curvature="0" />
  </g>
</svg>
