<?xml version="1.0" encoding="UTF-8" standalone="no"?>
<svg
   xmlns:dc="http://purl.org/dc/elements/1.1/"
   xmlns:cc="http://creativecommons.org/ns#"
   xmlns:rdf="http://www.w3.org/1999/02/22-rdf-syntax-ns#"
   xmlns:svg="http://www.w3.org/2000/svg"
   xmlns="http://www.w3.org/2000/svg"
   xmlns:sodipodi="http://sodipodi.sourceforge.net/DTD/sodipodi-0.dtd"
   xmlns:inkscape="http://www.inkscape.org/namespaces/inkscape"
   width="500"
   height="200"
   viewBox="0 0 500 200"
   version="1.1"
   id="svg132"
   sodipodi:docname="gb.svg"
   style="fill:none"
   inkscape:version="0.92.5 (2060ec1f9f, 2020-04-08)">
  <metadata
     id="metadata138">
    <rdf:RDF>
      <cc:Work
         rdf:about="">
        <dc:format>image/svg+xml</dc:format>
        <dc:type
           rdf:resource="http://purl.org/dc/dcmitype/StillImage" />
        <dc:title />
      </cc:Work>
    </rdf:RDF>
  </metadata>
  <defs
     id="defs136" />
  <sodipodi:namedview
     pagecolor="#ffffff"
     bordercolor="#666666"
     borderopacity="1"
     objecttolerance="10"
     gridtolerance="10"
     guidetolerance="10"
     inkscape:pageopacity="0"
     inkscape:pageshadow="2"
     inkscape:window-width="1366"
     inkscape:window-height="743"
     id="namedview134"
     showgrid="false"
     inkscape:pagecheckerboard="true"
     inkscape:zoom="0.80749058"
     inkscape:cx="444.32321"
     inkscape:cy="-43.561441"
     inkscape:window-x="0"
     inkscape:window-y="0"
     inkscape:window-maximized="1"
     inkscape:current-layer="svg132" />
  <path
     d="m 430.51295,75.64969 h 21.08856 l 10.41728,23.958294 15.62127,-23.958294 h 21.6038 l -30.46091,47.38959 -4.94586,36.97417 h -19.52633 l 5.72852,-42.18746 z"
     id="path118"
     inkscape:connector-curvature="0"
     style="fill:#ffffff;stroke-width:1.03253829" />
  <path
     d="m 275.32863,160.01345 2.60406,-18.75503 h -29.67722 l 1.8214,-14.57428 h 25.77319 l 2.60716,-18.74626 h -25.51506 l 1.82347,-13.542246 h 29.67515 l 2.86633,-18.745944 h -49.20768 l -11.71725,84.36376 z"
     id="path120"
     inkscape:connector-curvature="0"
     style="fill:#ffffff;stroke-width:1.03253829" />
  <path
     d="M 110.77712,135.01053 H 93.072803 l -9.631414,24.99569 H 63.652895 l 1.300688,-3.90712 c -3.90475,2.08366 -14.84119,5.73058 -24.475289,5.20915 C 23.816016,161.56639 -1.1796882,148.54711 1.943891,121.20961 7.2528418,74.747561 59.22599,70.959591 79.015413,77.727157 L 76.148984,95.692804 C 46.46743,86.059638 21.471741,103.50396 20.691555,122.24939 c -0.780289,18.7478 16.663208,20.309 19.006553,20.309 2.343346,0 8.330726,-0.26123 10.934685,-1.8214 L 51.67545,135.0095 H 36.832505 l 2.345101,-16.66415 h 33.847743 l -3.64579,27.3375 27.860363,-70.036567 H 122.2352 l 8.59382,69.258027 22.91099,-69.258027 h 20.04776 l 6.77036,44.521497 17.4437,-44.521497 h 22.39266 l 5.20812,84.359937 h -18.74573 l -3.12549,-48.42864 -18.74574,48.42864 h -16.92433 l -7.29179,-45.82509 -14.84171,45.82509 h -32.02417 z m -4.16629,-34.10702 -6.50881,17.44288 h 8.5935 z"
     id="path122"
     inkscape:connector-curvature="0"
     style="clip-rule:evenodd;fill:#ffffff;fill-rule:evenodd;stroke-width:1.03253829" />
  <path
     d="m 369.84306,113.66589 c 6.50912,-31.506459 26.03648,-39.317611 39.57719,-38.796283 19.7855,0.781941 34.63031,16.662277 30.46298,46.865573 -4.16526,30.20279 -26.81708,40.35677 -42.96289,38.27414 -16.1427,-2.08263 -33.58537,-14.84068 -27.07728,-46.34343 z m 51.81174,4.68359 c 2.86529,-21.868436 -8.85092,-25.514226 -14.31821,-25.514226 -5.73162,-0.26071 -16.406,5.46781 -19.26923,25.514226 -2.86426,20.04984 7.28869,23.43141 12.23764,23.95284 4.9469,0.52246 18.48554,-2.0816 21.3498,-23.95284 z"
     id="path124"
     inkscape:connector-curvature="0"
     style="clip-rule:evenodd;fill:#ffffff;fill-rule:evenodd;stroke-width:1.03253829" />
  <path
     d="m 312.30176,75.652478 -11.71621,84.358902 37.2323,-0.001 c 16.92433,0 26.55792,-11.45395 28.38241,-23.17326 1.8214,-11.71621 -2.60406,-17.96617 -7.03262,-21.86917 0.37482,-0.27156 0.77028,-0.52143 1.1802,-0.77957 2.72796,-1.71979 6.05583,-3.81719 7.41362,-15.363126 1.5612,-13.278035 -10.93458,-23.172746 -19.52943,-23.172746 z m 14.83861,32.285512 h 10.93665 c 8.07238,0 9.63461,-5.20802 9.89171,-7.289 0.26124,-2.084386 -2.08056,-6.250676 -6.24582,-6.250676 h -12.75805 z m -4.68566,33.32559 h 14.84274 c 8.06825,0 9.89172,-6.24685 10.14985,-8.33155 0.26227,-2.08263 -2.0816,-6.24685 -6.24686,-6.24685 h -16.66103 z"
     id="path126"
     inkscape:connector-curvature="0"
     style="clip-rule:evenodd;fill:#ffffff;fill-rule:evenodd;stroke-width:1.03253829" />
  <path
     d="m 474.39892,147.25024 c -3.21222,0 -5.80596,2.58961 -5.80596,5.78635 0,3.23081 2.59167,5.82248 5.80596,5.82248 3.19571,0 5.78532,-2.59167 5.78532,-5.82248 -0.002,-3.19777 -2.59374,-5.78635 -5.78532,-5.78635 v -0.79609 c 3.64073,0 6.58037,2.9541 6.58037,6.58244 0,3.66241 -2.93964,6.61547 -6.58037,6.61547 -3.66344,-0.001 -6.6165,-2.95306 -6.6165,-6.61547 0,-3.62938 2.95306,-6.5814 6.6165,-6.5814 z"
     id="path128"
     inkscape:connector-curvature="0"
     style="fill:#ffffff;stroke-width:1.03253829" />
  <path
     d="m 472.83669,150.00712 h 2.10845 c 0.91689,0 1.91535,0.13629 1.91535,1.27828 0,1.50131 -1.60456,1.33094 -2.64226,1.33094 l -1.38154,-0.002 v 0.71038 h 1.66136 l 2.10638,3.40325 h 1.07074 l -2.22925,-3.40325 c 1.31339,-0.0341 2.33147,-0.56892 2.33147,-2.02067 0,-0.62366 -0.27466,-1.27829 -0.82706,-1.59114 -0.55241,-0.32732 -1.17607,-0.36139 -1.79869,-0.36139 h -3.20913 v 7.37439 h 0.89522 v -6.71873 z"
     id="path130"
     inkscape:connector-curvature="0"
     style="fill:#ffffff;stroke-width:1.03253829" />
  <g
     transform="translate(4.0532238,7.0576441)"
     style="fill:none"
     id="g1370">
    <path
       style="fill:none;stroke:#ffffff;stroke-width:3.6329999;stroke-miterlimit:4;stroke-dasharray:none;stroke-opacity:1"
       inkscape:connector-curvature="0"
       id="path92"
       d="M 25.254236,54.495055 C 10.11552,54.489892 0,43.761612 0,30.753694 0,17.745879 10.138597,6.894408 25.231107,6.927742 H 167.85356 c 15.09262,-0.03334 25.23111,10.818137 25.23111,23.825952 0,13.007918 -10.11578,23.736198 -25.25382,23.741361 z" />
    <path
       style="clip-rule:evenodd;fill:#ffffff;fill-rule:evenodd;stroke-width:1.03253829"
       inkscape:connector-curvature="0"
       id="path96"
       d="m 171.91763,23.097112 c 0,-1.902658 1.54365,-3.4462 3.44662,-3.4462 1.90193,0 3.44558,1.543542 3.44558,3.4462 0,1.902556 -1.54365,3.4462 -3.44558,3.4462 -1.90297,0 -3.44662,-1.543644 -3.44662,-3.4462 z m 3.44559,2.789816 c 1.53848,0 2.78785,-1.248752 2.78785,-2.787234 0,-1.541064 -1.24937,-2.787234 -2.78785,-2.787234 -1.53849,0 -2.78683,1.248752 -2.78683,2.787234 0,1.538482 1.24834,2.787234 2.78683,2.787234 z" />
    <path
       style="clip-rule:evenodd;fill:#ffffff;fill-rule:evenodd;stroke-width:1.03253829"
       inkscape:connector-curvature="0"
       id="path98"
       d="m 177.07929,22.243203 c 0,-0.730727 -0.54105,-1.099963 -1.63037,-1.099963 h -1.49822 v 3.818017 h 0.93135 v -1.564192 h 0.45329 l 0.73103,1.564192 h 1.03357 l -0.8539,-1.705237 c 0.52039,-0.130719 0.83325,-0.510177 0.83325,-1.012817 z m -1.74395,0.595052 h -0.45329 V 21.72807 h 0.40785 c 0.55861,0 0.83326,0.171711 0.83326,0.569238 0,0.379458 -0.2571,0.540947 -0.78782,0.540947 z" />
    <path
       style="clip-rule:evenodd;fill:#ffffff;fill-rule:evenodd;stroke-width:1.03253829"
       inkscape:connector-curvature="0"
       id="path100"
       d="m 102.59363,37.561426 c 0,-0.83584 -0.005,-0.902542 -0.005,-0.902542 l 6.70778,-0.0052 c -1.17193,3.51538 -5.00988,6.107774 -9.553975,6.107774 -5.476996,0 -9.915466,-3.741092 -9.915466,-8.35912 0,-4.618028 4.43847,-8.361702 9.915466,-8.361702 5.477515,0 9.936015,3.825761 9.936015,8.443789 0,0.0077 -12.684735,0.0026 -12.684735,0.0026 0,0 -0.0052,2.258987 -0.0052,3.074383 0,2.723113 1.823153,3.328284 2.818004,3.328284 0.994951,0 2.787231,-0.605171 2.787231,-3.328284 z M 97.439714,29.24846 c -0.428193,0.743531 -0.456382,1.615406 -0.446159,2.920534 l 5.617935,0.0026 c 0.0102,-1.305232 -0.008,-2.177004 -0.43594,-2.923116 -0.52535,-0.917514 -1.49129,-1.353452 -2.367915,-1.359027 4.13e-4,0 9.29e-4,0 0.0013,0 h -0.0027 c 5.17e-4,0 9.3e-4,0 0.0013,0 -0.876522,0.0056 -1.842565,0.441513 -2.367921,1.359027 z" />
    <path
       style="fill:#ffffff;stroke-width:1.03253829"
       inkscape:connector-curvature="0"
       id="path102"
       d="m 123.77553,26.289515 c 2.51837,-0.07187 7.62633,1.576892 7.59019,7.47186 -0.005,1.046168 -0.002,8.102638 -0.002,8.102638 h -6.69085 c 0,0 0,-8.84875 0,-9.779584 0,-1.297487 -1.24008,-2.741079 -3.07696,-2.741079 -1.83276,0 -3.19674,1.443592 -3.19674,2.741079 0,0.635941 0.007,9.779584 0.007,9.779584 h -6.68465 l 0.005,-14.889926 6.68259,-0.0052 c 0,0 -0.008,1.197538 0,1.566773 1.28655,-1.228307 3.14305,-2.182166 5.3661,-2.246183 z" />
    <path
       style="fill:#ffffff;stroke-width:1.03253829"
       inkscape:connector-curvature="0"
       id="path104"
       d="m 69.052034,26.289515 c 2.517948,-0.07187 7.625709,1.576892 7.58988,7.47186 -0.0052,1.046168 -0.0027,8.102638 -0.0027,8.102638 h -6.689815 c 0,0 0,-8.84875 0,-9.779584 0,-1.297487 -1.241008,-2.741079 -3.076965,-2.741079 -1.833375,0 -3.197461,1.443592 -3.197461,2.741079 0,0.635941 0.0076,9.779584 0.0076,9.779584 h -6.684654 l -0.0027,-14.889926 6.689816,-0.0052 c 0,0 -0.0076,1.197538 0,1.566773 1.287265,-1.228307 3.141085,-2.182166 5.366824,-2.246183 z" />
    <path
       style="clip-rule:evenodd;fill:#ffffff;fill-rule:evenodd;stroke-width:1.03253829"
       inkscape:connector-curvature="0"
       id="path106"
       d="m 152.52553,19.476413 h -6.64645 v 0 c 0,0 0,4.792424 0.005,8.238624 -1.07694,-0.605171 -2.21273,-1.187213 -3.81007,-1.328257 -4.85396,-0.425613 -8.56181,3.866752 -8.56181,7.797523 0,5.182103 3.99696,7.100146 4.60512,7.382133 2.26436,1.056493 5.17199,1.059074 7.74817,-0.558913 0,0.138463 0.003,0.86155 0.003,0.86155 h 6.65677 z m -6.59792,12.210592 v 2.661575 0 c 0,0 0.003,1.684689 0.003,2.641129 0,2.29998 -1.59321,2.902569 -2.64123,2.902569 -1.06971,0 -2.63917,-0.602589 -2.63917,-2.902569 0,-0.79237 0.003,-2.64877 0.003,-2.64877 0,0 -0.003,-1.889752 -0.003,-2.653934 0,-2.30256 1.56946,-2.889765 2.64123,-2.889765 1.04596,0 2.63607,0.587205 2.63607,2.889765 z" />
    <path
       style="clip-rule:evenodd;fill:#ffffff;fill-rule:evenodd;stroke-width:1.03253829"
       inkscape:connector-curvature="0"
       id="path108"
       d="m 154.71761,34.322973 c 0,-4.618028 4.40481,-8.361702 9.84112,-8.361702 5.43529,0 9.84113,3.743674 9.84113,8.361702 0,4.618027 -4.40584,8.361598 -9.84113,8.361598 -5.43321,0 -9.84112,-3.743571 -9.84112,-8.361598 z m 12.54328,3.136025 c 0,-0.902542 0.003,-3.153888 0.003,-3.153888 l 0.002,0.0077 c -0.006,-0.485706 -0.005,-1.679837 -0.005,-2.594563 0,-0.210328 0,-0.405994 0,-0.57471 0,-2.364204 -1.40735,-3.336029 -2.75069,-3.336029 -1.34126,0 -2.75171,0.971825 -2.75171,3.336029 0,0.902541 -0.005,3.105152 -0.005,3.105152 0,0 -0.002,2.307723 -0.002,3.210265 0,2.374425 1.40735,3.353891 2.75894,3.353891 1.3485,0 2.75069,-0.979466 2.75069,-3.353891 z" />
    <path
       style="fill:#ffffff;stroke-width:1.03253829"
       inkscape:connector-curvature="0"
       id="path110"
       d="m 46.538878,24.04839 v -4.577036 h 6.748774 v 4.577036 z" />
    <path
       style="fill:#ffffff;stroke-width:1.03253829"
       inkscape:connector-curvature="0"
       id="path112"
       d="M 46.554469,41.869176 V 26.976669 l 6.733389,0.0027 v 14.889926 z" />
    <path
       style="fill:#ffffff;stroke-width:1.03253829"
       inkscape:connector-curvature="0"
       id="path114"
       d="m 80.337059,41.869279 0.0026,-14.861737 H 76.678072 V 24.79729 l 3.664169,-0.0027 -0.0052,-3.015424 h 6.738552 v 3.012946 h 3.646202 v 2.215415 h -3.646202 l 0.0052,14.861737 z" />
    <path
       style="fill:#ffffff;stroke-width:1.03253829"
       inkscape:connector-curvature="0"
       id="path116"
       d="m 19.151418,41.869073 0.0025,-22.39266 h 6.977068 l 9.651446,15.615594 -0.0052,-15.615594 h 6.92317 v 22.39266 H 35.787469 L 26.08481,26.253479 v 15.615594 z" />
  </g>
</svg>
