<?xml version="1.0" encoding="UTF-8" standalone="no"?>
<svg
   xmlns:dc="http://purl.org/dc/elements/1.1/"
   xmlns:cc="http://creativecommons.org/ns#"
   xmlns:rdf="http://www.w3.org/1999/02/22-rdf-syntax-ns#"
   xmlns:svg="http://www.w3.org/2000/svg"
   xmlns="http://www.w3.org/2000/svg"
   xmlns:sodipodi="http://sodipodi.sourceforge.net/DTD/sodipodi-0.dtd"
   xmlns:inkscape="http://www.inkscape.org/namespaces/inkscape"
   width="500"
   height="200"
   viewBox="0 0 500 200"
   version="1.1"
   id="svg215"
   sodipodi:docname="gba.svg"
   style="fill:none"
   inkscape:version="0.92.5 (2060ec1f9f, 2020-04-08)">
  <metadata
     id="metadata221">
    <rdf:RDF>
      <cc:Work
         rdf:about="">
        <dc:format>image/svg+xml</dc:format>
        <dc:type
           rdf:resource="http://purl.org/dc/dcmitype/StillImage" />
        <dc:title />
      </cc:Work>
    </rdf:RDF>
  </metadata>
  <defs
     id="defs219" />
  <sodipodi:namedview
     pagecolor="#ffffff"
     bordercolor="#666666"
     borderopacity="1"
     objecttolerance="10"
     gridtolerance="10"
     guidetolerance="10"
     inkscape:pageopacity="0"
     inkscape:pageshadow="2"
     inkscape:window-width="1366"
     inkscape:window-height="743"
     id="namedview217"
     showgrid="false"
     inkscape:pagecheckerboard="true"
     inkscape:zoom="1.5151354"
     inkscape:cx="222.37088"
     inkscape:cy="91.559196"
     inkscape:window-x="0"
     inkscape:window-y="0"
     inkscape:window-maximized="1"
     inkscape:current-layer="svg215" />
  <path
     id="Shape"
     d="m 348.88673,111.7714 h 8.89198 l -0.741,1.235 -15.68446,27.16994 -0.247,0.37049 h -5.55749 l -0.247,-0.37049 -11.36197,-18.77196 c 0.3705,1.35849 0.6175,2.84049 0.6175,4.56949 0,9.63298 -6.42199,14.57296 -18.89546,14.57296 h -14.44947 -9.38598 l -0.247,-0.37049 -11.73247,-20.87146 -8.27449,14.94347 h 8.27449 v 6.42198 h -14.07897 -6.29849 l 0.741,-1.23499 16.17846,-27.16994 0.247,-0.3705 h 7.28649 l 0.247,0.3705 14.20246,23.46495 V 111.7714 h 19.14246 c 5.80449,0 10.25048,1.48199 13.21447,4.32249 l -1.85249,-2.964 -0.741,-1.23499 h 9.50948 l 0.247,0.3705 10.74447,18.40146 10.00348,-18.40146 z m -52.24038,22.10645 h 7.65698 c 8.76848,0 11.85597,-1.976 11.85597,-8.15098 0,-5.06349 -2.84049,-7.40999 -8.64498,-7.40999 h -10.86797 z"
     inkscape:connector-curvature="0"
     style="clip-rule:evenodd;fill:#ffffff;fill-rule:evenodd;stroke-width:1.02916443" />
  <path
     id="Path_2"
     d="m 412.98309,111.7714 h -0.8645 v 17.16646 l -21.61245,-16.91946 -0.247,-0.247 h -5.68099 v 23.95895 l -14.20247,-23.46495 -0.247,-0.494 h -7.28648 l -0.247,0.494 -16.17846,27.04644 -0.741,1.35849 h 8.64498 11.85597 v -6.42198 h -8.27448 l 8.27448,-14.94347 11.73248,20.87146 0.247,0.49399 h 9.38598 4.69299 v -17.41346 l 21.61245,17.16646 0.247,0.247 h 5.68099 V 111.7714 Z"
     inkscape:connector-curvature="0"
     style="fill:#ffffff;stroke-width:1.02916443" />
  <path
     id="Path_3"
     d="m 447.19252,111.7714 h -16.91947 c -5.92798,0 -7.90398,1.85249 -7.90398,7.28648 v 14.32597 c 0,5.43399 1.976,7.28648 7.90398,7.28648 h 16.91947 c 5.92798,0 7.90398,-1.85249 7.90398,-7.28648 v -4.07549 h -0.8645 -6.66899 -0.86449 v 4.44599 h -16.17847 v -15.19047 h 16.17847 v 3.95199 h 0.86449 7.53349 v -3.45799 c 0,-5.55749 -1.976,-7.28648 -7.90398,-7.28648 z"
     inkscape:connector-curvature="0"
     style="fill:#ffffff;stroke-width:1.02916443" />
  <path
     id="Path_4"
     d="m 488.07093,133.87785 h -21.98296 v -5.06349 h 13.21447 v -6.29849 h -13.21447 v -4.19899 h 22.47695 v -6.54548 h -30.75143 v 28.89893 h 31.12193 v -6.79248 z"
     inkscape:connector-curvature="0"
     style="fill:#ffffff;stroke-width:1.02916443" />
  <path
     id="Shape_2"
     d="m 93.736294,128.19686 9.632976,-22.60045 h 10.12698 l 1.6055,41.37241 h -8.39799 l -1.11149,-25.44094 -10.991478,25.44094 h -5.680988 l -4.69299,-22.97095 -7.286483,22.97095 H 62.614362 L 60.514867,134.61885 H 50.758388 L 45.2009,146.96882 h -8.89198 l 1.234997,-2.84049 c 0,0 -0.123499,0 -0.246999,0.1235 -13.214471,7.53348 -28.6519576,0 -29.8869549,-11.97948 -0.9879978,-10.37397 2.8404939,-18.03096 10.8679969,-22.97095 5.927987,-3.58149 14.819967,-6.91598 26.181942,-2.96399 -0.617499,4.07549 -1.358497,8.39798 -1.358497,8.39798 -5.927987,-2.71699 -16.178464,-1.85249 -22.106451,3.33449 -7.286484,6.29849 -5.680988,13.21447 -3.951992,16.30197 2.716994,4.93999 9.13898,5.43399 12.843972,3.82849 l 0.740999,-4.07549 h -6.545486 l 1.234997,-7.65698 H 41.00191 l -2.346495,14.94346 15.807965,-35.81492 h 10.373977 l 5.557488,33.34493 10.867976,-33.34493 h 8.397982 z m -36.061921,-9.75648 -3.581492,8.02749 h 5.186988 z"
     inkscape:connector-curvature="0"
     style="clip-rule:evenodd;fill:#ffffff;fill-rule:evenodd;stroke-width:1.02916443" />
  <path
     id="Path_5"
     d="m 115.96624,146.84532 h 23.58845 l 1.3585,-8.89198 h -14.81997 l 1.235,-7.28648 h 12.84397 l 1.3585,-8.89198 h -12.96747 l 1.11149,-7.28649 h 14.81997 l 1.3585,-8.89198 h -23.34145 z"
     inkscape:connector-curvature="0"
     style="fill:#ffffff;stroke-width:1.02916443" />
  <path
     id="Path_6"
     d="M 231.06799,119.05788 225.881,105.59641 h -9.75648 l 10.00348,21.73595 -3.08749,19.51296 h 8.52148 l 2.59349,-17.28996 15.19047,-23.95895 h -9.87998 z"
     inkscape:connector-curvature="0"
     style="fill:#ffffff;stroke-width:1.02916443" />
  <path
     id="Shape_3"
     d="m 186.36109,122.63937 c 2.59349,-11.36197 12.34997,-18.77195 21.73595,-16.67246 9.26248,2.223 14.81997,13.21447 12.22647,24.57645 -2.59349,11.36197 -12.34997,18.89545 -21.73595,16.67246 -9.38598,-2.223 -14.81996,-13.21447 -12.22647,-24.57645 z m 12.72047,16.30197 c 4.44599,1.97599 10.00348,-1.976 12.22647,-8.76848 2.3465,-6.79249 0.6175,-13.95547 -3.95199,-16.05497 -4.44599,-1.97599 -10.00347,1.976 -12.22647,8.76848 -2.22299,6.91599 -0.494,14.07897 3.95199,16.05497 z"
     inkscape:connector-curvature="0"
     style="clip-rule:evenodd;fill:#ffffff;fill-rule:evenodd;stroke-width:1.02916443" />
  <path
     id="Shape_4"
     d="m 158.69715,105.84341 c 0,0 11.23848,-0.1235 15.80797,0 5.68098,0.1235 16.30196,8.76848 5.68098,19.88346 10.37398,9.50948 -1.11149,20.99495 -8.89198,20.99495 h -19.01896 l 6.54549,-40.87841 z m 11.85597,16.30196 h -5.92798 l 1.35849,-7.65698 h 5.43399 c 6.05149,0 4.93999,7.65698 -0.8645,7.65698 z m -0.98799,16.67247 h -7.40999 l 1.3585,-8.15098 h 7.03948 c 6.66899,-0.1235 6.54549,8.15098 -0.98799,8.15098 z"
     inkscape:connector-curvature="0"
     style="clip-rule:evenodd;fill:#ffffff;fill-rule:evenodd;stroke-width:1.02916443" />
  <path
     id="Shape_5"
     d="m 239.83647,147.46282 c 2.3465,0 4.32249,-1.8525 4.32249,-4.32249 0,-2.3465 -1.85249,-4.19899 -4.32249,-4.19899 -2.34649,0 -4.32249,1.85249 -4.32249,4.19899 0,2.46999 1.8525,4.32249 4.32249,4.32249 z m 1.976,-5.43399 c 0,0.988 -0.6175,1.3585 -1.482,1.3585 l 1.482,2.22299 h -0.741 l -1.3585,-2.09949 h -0.988 v 2.09949 h -0.61749 v -4.81649 h 2.09949 c 0.3705,0 0.741,0 1.1115,0.247 0.247,0.1235 0.494,0.6175 0.494,0.988 z m -3.0875,-0.741 v 1.6055 h 0.8645 c 0.0597,0 0.12247,0.001 0.18731,0.002 v 0 c 0.61132,0.0113 1.41819,0.0257 1.41819,-0.86656 0,-0.6175 -0.494,-0.741 -1.1115,-0.741 z m -2.46999,1.8525 c 0,2.09949 1.6055,3.58149 3.58149,3.58149 1.976,0 3.45799,-1.482 3.58149,-3.58149 0,-1.976 -1.60549,-3.58149 -3.58149,-3.58149 -1.97599,0 -3.58149,1.60549 -3.58149,3.58149 z"
     inkscape:connector-curvature="0"
     style="clip-rule:evenodd;fill:#ffffff;fill-rule:evenodd;stroke-width:1.02916443" />
  <g
     transform="translate(4.4387401,39.927267)"
     style="fill:none"
     id="g1370">
    <path
       style="fill:none;stroke:#ffffff;stroke-width:3.6329999;stroke-miterlimit:4;stroke-dasharray:none;stroke-opacity:1"
       inkscape:connector-curvature="0"
       id="path92"
       d="M 25.254236,54.495055 C 10.11552,54.489892 0,43.761612 0,30.753694 0,17.745879 10.138597,6.894408 25.231107,6.927742 H 167.85356 c 15.09262,-0.03334 25.23111,10.818137 25.23111,23.825952 0,13.007918 -10.11578,23.736198 -25.25382,23.741361 z" />
    <path
       style="clip-rule:evenodd;fill:#ffffff;fill-rule:evenodd;stroke-width:1.03253829"
       inkscape:connector-curvature="0"
       id="path96"
       d="m 171.91763,23.097112 c 0,-1.902658 1.54365,-3.4462 3.44662,-3.4462 1.90193,0 3.44558,1.543542 3.44558,3.4462 0,1.902556 -1.54365,3.4462 -3.44558,3.4462 -1.90297,0 -3.44662,-1.543644 -3.44662,-3.4462 z m 3.44559,2.789816 c 1.53848,0 2.78785,-1.248752 2.78785,-2.787234 0,-1.541064 -1.24937,-2.787234 -2.78785,-2.787234 -1.53849,0 -2.78683,1.248752 -2.78683,2.787234 0,1.538482 1.24834,2.787234 2.78683,2.787234 z" />
    <path
       style="clip-rule:evenodd;fill:#ffffff;fill-rule:evenodd;stroke-width:1.03253829"
       inkscape:connector-curvature="0"
       id="path98"
       d="m 177.07929,22.243203 c 0,-0.730727 -0.54105,-1.099963 -1.63037,-1.099963 h -1.49822 v 3.818017 h 0.93135 v -1.564192 h 0.45329 l 0.73103,1.564192 h 1.03357 l -0.8539,-1.705237 c 0.52039,-0.130719 0.83325,-0.510177 0.83325,-1.012817 z m -1.74395,0.595052 h -0.45329 V 21.72807 h 0.40785 c 0.55861,0 0.83326,0.171711 0.83326,0.569238 0,0.379458 -0.2571,0.540947 -0.78782,0.540947 z" />
    <path
       style="clip-rule:evenodd;fill:#ffffff;fill-rule:evenodd;stroke-width:1.03253829"
       inkscape:connector-curvature="0"
       id="path100"
       d="m 102.59363,37.561426 c 0,-0.83584 -0.005,-0.902542 -0.005,-0.902542 l 6.70778,-0.0052 c -1.17193,3.51538 -5.00988,6.107774 -9.553975,6.107774 -5.476996,0 -9.915466,-3.741092 -9.915466,-8.35912 0,-4.618028 4.43847,-8.361702 9.915466,-8.361702 5.477515,0 9.936015,3.825761 9.936015,8.443789 0,0.0077 -12.684735,0.0026 -12.684735,0.0026 0,0 -0.0052,2.258987 -0.0052,3.074383 0,2.723113 1.823153,3.328284 2.818004,3.328284 0.994951,0 2.787231,-0.605171 2.787231,-3.328284 z M 97.439714,29.24846 c -0.428193,0.743531 -0.456382,1.615406 -0.446159,2.920534 l 5.617935,0.0026 c 0.0102,-1.305232 -0.008,-2.177004 -0.43594,-2.923116 -0.52535,-0.917514 -1.49129,-1.353452 -2.367915,-1.359027 4.13e-4,0 9.29e-4,0 0.0013,0 h -0.0027 c 5.17e-4,0 9.3e-4,0 0.0013,0 -0.876522,0.0056 -1.842565,0.441513 -2.367921,1.359027 z" />
    <path
       style="fill:#ffffff;stroke-width:1.03253829"
       inkscape:connector-curvature="0"
       id="path102"
       d="m 123.77553,26.289515 c 2.51837,-0.07187 7.62633,1.576892 7.59019,7.47186 -0.005,1.046168 -0.002,8.102638 -0.002,8.102638 h -6.69085 c 0,0 0,-8.84875 0,-9.779584 0,-1.297487 -1.24008,-2.741079 -3.07696,-2.741079 -1.83276,0 -3.19674,1.443592 -3.19674,2.741079 0,0.635941 0.007,9.779584 0.007,9.779584 h -6.68465 l 0.005,-14.889926 6.68259,-0.0052 c 0,0 -0.008,1.197538 0,1.566773 1.28655,-1.228307 3.14305,-2.182166 5.3661,-2.246183 z" />
    <path
       style="fill:#ffffff;stroke-width:1.03253829"
       inkscape:connector-curvature="0"
       id="path104"
       d="m 69.052034,26.289515 c 2.517948,-0.07187 7.625709,1.576892 7.58988,7.47186 -0.0052,1.046168 -0.0027,8.102638 -0.0027,8.102638 h -6.689815 c 0,0 0,-8.84875 0,-9.779584 0,-1.297487 -1.241008,-2.741079 -3.076965,-2.741079 -1.833375,0 -3.197461,1.443592 -3.197461,2.741079 0,0.635941 0.0076,9.779584 0.0076,9.779584 h -6.684654 l -0.0027,-14.889926 6.689816,-0.0052 c 0,0 -0.0076,1.197538 0,1.566773 1.287265,-1.228307 3.141085,-2.182166 5.366824,-2.246183 z" />
    <path
       style="clip-rule:evenodd;fill:#ffffff;fill-rule:evenodd;stroke-width:1.03253829"
       inkscape:connector-curvature="0"
       id="path106"
       d="m 152.52553,19.476413 h -6.64645 v 0 c 0,0 0,4.792424 0.005,8.238624 -1.07694,-0.605171 -2.21273,-1.187213 -3.81007,-1.328257 -4.85396,-0.425613 -8.56181,3.866752 -8.56181,7.797523 0,5.182103 3.99696,7.100146 4.60512,7.382133 2.26436,1.056493 5.17199,1.059074 7.74817,-0.558913 0,0.138463 0.003,0.86155 0.003,0.86155 h 6.65677 z m -6.59792,12.210592 v 2.661575 0 c 0,0 0.003,1.684689 0.003,2.641129 0,2.29998 -1.59321,2.902569 -2.64123,2.902569 -1.06971,0 -2.63917,-0.602589 -2.63917,-2.902569 0,-0.79237 0.003,-2.64877 0.003,-2.64877 0,0 -0.003,-1.889752 -0.003,-2.653934 0,-2.30256 1.56946,-2.889765 2.64123,-2.889765 1.04596,0 2.63607,0.587205 2.63607,2.889765 z" />
    <path
       style="clip-rule:evenodd;fill:#ffffff;fill-rule:evenodd;stroke-width:1.03253829"
       inkscape:connector-curvature="0"
       id="path108"
       d="m 154.71761,34.322973 c 0,-4.618028 4.40481,-8.361702 9.84112,-8.361702 5.43529,0 9.84113,3.743674 9.84113,8.361702 0,4.618027 -4.40584,8.361598 -9.84113,8.361598 -5.43321,0 -9.84112,-3.743571 -9.84112,-8.361598 z m 12.54328,3.136025 c 0,-0.902542 0.003,-3.153888 0.003,-3.153888 l 0.002,0.0077 c -0.006,-0.485706 -0.005,-1.679837 -0.005,-2.594563 0,-0.210328 0,-0.405994 0,-0.57471 0,-2.364204 -1.40735,-3.336029 -2.75069,-3.336029 -1.34126,0 -2.75171,0.971825 -2.75171,3.336029 0,0.902541 -0.005,3.105152 -0.005,3.105152 0,0 -0.002,2.307723 -0.002,3.210265 0,2.374425 1.40735,3.353891 2.75894,3.353891 1.3485,0 2.75069,-0.979466 2.75069,-3.353891 z" />
    <path
       style="fill:#ffffff;stroke-width:1.03253829"
       inkscape:connector-curvature="0"
       id="path110"
       d="m 46.538878,24.04839 v -4.577036 h 6.748774 v 4.577036 z" />
    <path
       style="fill:#ffffff;stroke-width:1.03253829"
       inkscape:connector-curvature="0"
       id="path112"
       d="M 46.554469,41.869176 V 26.976669 l 6.733389,0.0027 v 14.889926 z" />
    <path
       style="fill:#ffffff;stroke-width:1.03253829"
       inkscape:connector-curvature="0"
       id="path114"
       d="m 80.337059,41.869279 0.0026,-14.861737 H 76.678072 V 24.79729 l 3.664169,-0.0027 -0.0052,-3.015424 h 6.738552 v 3.012946 h 3.646202 v 2.215415 h -3.646202 l 0.0052,14.861737 z" />
    <path
       style="fill:#ffffff;stroke-width:1.03253829"
       inkscape:connector-curvature="0"
       id="path116"
       d="m 19.151418,41.869073 0.0025,-22.39266 h 6.977068 l 9.651446,15.615594 -0.0052,-15.615594 h 6.92317 v 22.39266 H 35.787469 L 26.08481,26.253479 v 15.615594 z" />
  </g>
</svg>
