<?xml version="1.0" encoding="UTF-8" standalone="no"?>
<svg
   xmlns:dc="http://purl.org/dc/elements/1.1/"
   xmlns:cc="http://creativecommons.org/ns#"
   xmlns:rdf="http://www.w3.org/1999/02/22-rdf-syntax-ns#"
   xmlns:svg="http://www.w3.org/2000/svg"
   xmlns="http://www.w3.org/2000/svg"
   xmlns:sodipodi="http://sodipodi.sourceforge.net/DTD/sodipodi-0.dtd"
   xmlns:inkscape="http://www.inkscape.org/namespaces/inkscape"
   width="500"
   height="200"
   viewBox="0 0 500 200"
   version="1.1"
   id="svg95"
   sodipodi:docname="genesis.svg"
   inkscape:version="0.92.5 (2060ec1f9f, 2020-04-08)">
  <metadata
     id="metadata101">
    <rdf:RDF>
      <cc:Work
         rdf:about="">
        <dc:format>image/svg+xml</dc:format>
        <dc:type
           rdf:resource="http://purl.org/dc/dcmitype/StillImage" />
        <dc:title>mainlogo</dc:title>
      </cc:Work>
    </rdf:RDF>
  </metadata>
  <defs
     id="defs99" />
  <sodipodi:namedview
     pagecolor="#ffffff"
     bordercolor="#666666"
     borderopacity="1"
     objecttolerance="10"
     gridtolerance="10"
     guidetolerance="10"
     inkscape:pageopacity="0"
     inkscape:pageshadow="2"
     inkscape:window-width="1366"
     inkscape:window-height="743"
     id="namedview97"
     showgrid="false"
     inkscape:pagecheckerboard="true"
     inkscape:zoom="2.789625"
     inkscape:cx="203.89546"
     inkscape:cy="92.376387"
     inkscape:window-x="0"
     inkscape:window-y="0"
     inkscape:window-maximized="1"
     inkscape:current-layer="svg95" />
  <title
     id="title70">mainlogo</title>
  <path
     d="m 7.6320875,84.603791 17.9494695,-0.0182 c 7.34364,0 13.29502,-5.93319 13.29502,-13.24377 0,-7.32503 -5.95138,-13.25874 -13.29502,-13.25874 l -4.66161,0.0255 c -0.36732,0 -0.6652,-0.30132 -0.6652,-0.67196 0,-0.37074 0.29788,-0.67248 0.6652,-0.67248 l 17.91692,0.004 0.007,-5.62096 h -17.92797 c -3.46612,0 -6.28613,2.81578 -6.28613,6.27515 0,3.4628 2.8196,6.26756 6.28613,6.26756 l 4.68365,0.0617 c 4.20752,0 7.61232,3.39337 7.61232,7.57978 0,4.18932 -3.40428,7.59038 -7.61232,7.59038 H 7.6390675 l -0.007,5.68218"
     id="path4"
     inkscape:connector-curvature="0"
     style="fill:#ffffff;stroke-width:1.03937936" />
  <path
     d="M 7.6392275,77.602121 H 25.599647 c 3.47724,0 6.2896,-2.80477 6.2896,-6.27131 0,-3.46279 -2.81236,-6.26423 -6.2896,-6.26423 l -4.68355,-0.0507 c -4.20034,0 -7.60856,-3.39711 -7.60856,-7.59412 0,-4.18559 3.40822,-7.5832 7.60856,-7.5832 l 17.92784,-0.004 -0.007,-5.64247 h -17.91679 c -7.33606,0 -13.2950995,5.92648 -13.2950995,13.24425 0,7.31785 5.9590395,13.24772 13.2950995,13.24772 l 4.63615,0.007 c 0.35256,0 0.65044,0.28739 0.65044,0.65034 0,0.3564 -0.29788,0.64327 -0.65044,0.64327 l -17.9240695,0.0143 0.007,5.60278"
     id="path6"
     inkscape:connector-curvature="0"
     style="fill:#ffffff;stroke-width:1.03937936" />
  <path
     d="m 52.792827,78.957471 c -3.11409,0 -5.66493,-2.48183 -5.66493,-5.65059 v -17.93075 c 0,-3.0485 2.55084,-5.55579 5.66493,-5.55579 l 19.15929,0.003 v -5.63142 h -19.15929 c -6.23493,0 -11.28538,5.03229 -11.28538,11.24562 v 17.86953 c 0,6.21383 5.05045,11.25326 11.28538,11.25326 l 19.07937,0.007 -0.004,-5.61753 -19.07553,0.006"
     id="path8"
     inkscape:connector-curvature="0"
     style="fill:#ffffff;stroke-width:1.03937936" />
  <path
     d="m 48.501437,55.437871 c 0,-2.37602 1.91152,-4.30189 4.29139,-4.30189 h 19.15929 v 5.63916 h -16.5069 c -1.3223,0 -1.34059,1.3118 -1.34059,1.3118 h 13.77115 v 5.61379 h -19.38099 l 0.007,-8.26286"
     id="path10"
     inkscape:connector-curvature="0"
     style="fill:#ffffff;stroke-width:1.03937936" />
  <path
     d="m 52.792827,77.591621 c -2.3727,0 -4.29856,-1.91485 -4.29856,-4.28422 v -8.26993 h 19.38099 v 5.62523 h -13.77105 c 0.0182,1.3223 1.34049,1.32905 1.34049,1.32905 h 16.42697 l -0.004,5.59218 -19.075,0.007"
     id="path12"
     inkscape:connector-curvature="0"
     style="fill:#ffffff;stroke-width:1.03937936" />
  <path
     d="m 85.378407,78.943121 c -3.10307,0 -5.63915,-2.52881 -5.63915,-5.63624 v -17.86943 c 0,-3.11034 2.51789,-5.61759 5.62429,-5.61759 h 18.556763 v -5.62762 H 85.320407 c -6.23201,0 -11.28246,5.03229 -11.28246,11.24563 v 17.86953 c 0,6.21383 5.094,11.25326 11.3256,11.25326 l 18.556763,0.007 V 58.086641 H 87.972797 v 5.61368 h 10.31179 v 15.2425 h -12.90618"
     id="path14"
     inkscape:connector-curvature="0"
     style="fill:#ffffff;stroke-width:1.03937936" />
  <path
     d="m 81.061657,73.306881 c 0,2.38091 1.92587,4.31727 4.30189,4.31727 h 11.59095 v -12.59395 h -8.96777 v 5.63239 h 3.3282 l 0.0106,1.32241 h -3.31344 c -0.7232,0 -1.31513,-0.5991 -1.31513,-1.32241 l -0.0297,-12.5795 c 0,0 -0.004,-1.30795 1.3301,-1.34049 h 15.929223 l -0.007,-5.61046 -18.556773,0.004 c -2.37603,0 -4.30189,1.92586 -4.30189,4.30188 v 17.86901"
     id="path16"
     inkscape:connector-curvature="0"
     style="fill:#ffffff;stroke-width:1.03937936" />
  <path
     d="m 121.35694,51.052211 c 0.25049,-0.71554 0.93024,-1.23136 1.73368,-1.23136 0.80344,0 1.48943,0.51582 1.73265,1.23136 l 9.0083,26.61164 H 120.6408 l 0.0146,-6.26028 h 4.408 l -1.98417,-5.89723 -6.4639,19.05723 h -6.64891 l 11.39056,-33.51136"
     id="path18"
     inkscape:connector-curvature="0"
     style="fill:#ffffff;stroke-width:1.03937936" />
  <path
     d="m 135.64736,78.943121 h -14.98369 v 5.62045 h 22.80294 L 131.6073,49.475041 c -1.03938,-3.42255 -4.46518,-5.94037 -8.52084,-5.94037 -4.06189,0 -7.47729,2.50681 -8.52395,5.92648 l -11.96886,35.10294 h 5.96957 l 11.62026,-34.12206 c 0.47188,-1.12984 1.58505,-1.92584 2.89259,-1.92584 1.3013,0 2.41968,0.796 2.89571,1.91866 l 9.67558,28.50827"
     id="path20"
     inkscape:connector-curvature="0"
     style="fill:#ffffff;stroke-width:1.03937936" />
  <path
     d="m 141.97822,47.498891 c -0.74939,0.74476 -1.74823,1.15906 -2.80944,1.15906 -1.05705,0 -2.05277,-0.4143 -2.79801,-1.15858 -0.75563,-0.75194 -1.1693,-1.74384 -1.1693,-2.8047 0,-2.18016 1.78357,-3.94987 3.96731,-3.94987 1.06121,0 2.06005,0.41429 2.80944,1.15522 0.74732,0.75194 1.16619,1.74049 1.16619,2.79417 0,1.06086 -0.41887,2.05275 -1.16619,2.8047 z m -5.21872,-5.21045 c -0.64961,0.64322 -0.99884,1.50053 -0.99884,2.40527 0,0.91191 0.34819,1.76587 0.99884,2.40862 0.64649,0.64322 1.50398,0.99572 2.40928,0.99572 1.88647,0 3.41956,-1.52592 3.41956,-3.40434 0,-0.90474 -0.35651,-1.76205 -0.99988,-2.40527 -0.6465,-0.64275 -1.50399,-0.9919 -2.41968,-0.9919 -0.90426,0 -1.76175,0.34867 -2.40928,0.9919 z"
     id="path22"
     inkscape:connector-curvature="0"
     style="clip-rule:evenodd;fill:#ffffff;fill-rule:evenodd;stroke-width:1.03937936" />
  <path
     d="m 138.15123,46.895421 v -1.8674 h 1.13396 l 1.20256,1.8674 h 0.69431 l -1.23582,-1.90381 c 0.006,-10e-4 0.0135,-0.003 0.0218,-0.004 0.24218,-0.0485 1.02483,-0.20572 1.02483,-1.19819 0,-0.4071 -0.13824,-0.77398 -0.46876,-1.01776 -0.33572,-0.25351 -0.68911,-0.25761 -1.28571,-0.26452 -0.0104,-10e-5 -0.0198,-2.2e-4 -0.0301,-3.4e-4 h -1.63079 v 4.38906 z m 1.16618,-2.35066 h -1.16618 v -1.55131 h 1.13396 c 0.0114,0 0.0239,-1e-5 0.0353,-2e-5 0.32221,-2.4e-4 0.60076,-4.4e-4 0.82215,0.18538 0.25049,0.20355 0.26192,0.49762 0.26192,0.614 0,0.31946 -0.14551,0.61018 -0.55191,0.70837 -0.17461,0.0436 -0.34923,0.0436 -0.53528,0.0436 z"
     id="path24"
     inkscape:connector-curvature="0"
     style="clip-rule:evenodd;fill:#ffffff;fill-rule:evenodd;stroke-width:1.03937936" />
  <path
     d="m 320.46252,121.90781 h 48.00582 v 19.10503 l -17.14145,11.5922 h -52.98963 l 17.55407,-11.7585 h 31.02132 v -7.18253 h -48.00581 v -18.69925 l 17.72037,-11.99839 h 52.90441 l -17.47508,11.75299 h -31.59402 z"
     id="path26"
     inkscape:connector-curvature="0"
     style="clip-rule:evenodd;fill:#ffffff;fill-rule:evenodd;stroke-width:1.03937936" />
  <path
     d="m 375.1661,102.96637 h 21.55257 v 49.63868 H 375.1661 Z"
     id="path28"
     inkscape:connector-curvature="0"
     style="clip-rule:evenodd;fill:#ffffff;fill-rule:evenodd;stroke-width:1.03937936" />
  <path
     d="m 426.59771,121.90781 h 48.00685 v 19.10503 l -17.14872,11.5922 h -52.9834 l 17.55408,-11.7585 h 31.02547 v -7.18253 h -48.00685 v -18.69925 l 17.71518,-11.99839 h 52.90752 l -17.47612,11.75299 h -31.59401 z"
     id="path30"
     inkscape:connector-curvature="0"
     style="clip-rule:evenodd;fill:#ffffff;fill-rule:evenodd;stroke-width:1.03937936" />
  <path
     d="m 252.21168,140.84654 v -7.18253 h 20.64935 l 17.55408,-11.7562 h -38.20343 v -7.18845 h 31.10031 l 17.47508,-11.75299 h -51.35365 l -18.77743,11.51404 v 38.12463 h 52.25376 l 17.63203,-11.7585 z"
     id="path32"
     inkscape:connector-curvature="0"
     style="clip-rule:evenodd;fill:#ffffff;fill-rule:evenodd;stroke-width:1.03937936" />
  <path
     d="m 101.33465,140.84654 v -7.18253 h 20.65631 l 17.55096,-11.7562 h -38.20727 v -7.18845 h 31.10311 l 17.47301,-11.75299 H 98.556797 l -18.77472,11.51404 v 38.12463 H 132.0324 l 17.63619,-11.7585 z"
     id="path34"
     inkscape:connector-curvature="0"
     style="clip-rule:evenodd;fill:#ffffff;fill-rule:evenodd;stroke-width:1.03937936" />
  <path
     d="m 203.06047,136.11426 -26.77857,-16.6571 v 33.14789 h -21.55465 v -49.63868 h 21.87894 l 26.45428,14.53084 v -14.53084 h 21.55569 v 49.63868 h -21.55569 z"
     id="path36"
     inkscape:connector-curvature="0"
     style="clip-rule:evenodd;fill:#ffffff;fill-rule:evenodd;stroke-width:1.03937936" />
  <path
     d="m 25.896077,114.71936 v 26.12719 h 26.77784 v -7.18253 h -21.87966 l 17.47228,-11.75621 h 25.96307 v 19.59562 l -16.49391,11.10161 H 4.3436075 V 115.05279 L 22.221767,102.96637 h 58.45698 l -17.39048,11.75299 z"
     id="path38"
     inkscape:connector-curvature="0"
     style="clip-rule:evenodd;fill:#ffffff;fill-rule:evenodd;stroke-width:1.03937936" />
  <path
     d="m 482.9778,116.4783 v -7.07661 h -2.59845 v -1.23842 h 6.75597 v 1.23842 h -2.94456 v 7.07661 z"
     id="path40"
     inkscape:connector-curvature="0"
     style="fill:#ffffff;stroke-width:1.03937936" />
  <path
     d="m 487.82858,116.4783 v -8.31503 h 2.07876 l 2.07876,6.72281 2.07876,-6.72281 h 1.90518 v 8.31503 h -1.21295 v -7.07661 l -2.07876,7.07661 h -1.21192 l -2.25233,-7.07661 v 7.07661 z"
     id="path42"
     inkscape:connector-curvature="0"
     style="fill:#ffffff;stroke-width:1.03937936" />
</svg>
