<?xml version="1.0" encoding="UTF-8" standalone="no"?>
<svg
   xmlns:dc="http://purl.org/dc/elements/1.1/"
   xmlns:cc="http://creativecommons.org/ns#"
   xmlns:rdf="http://www.w3.org/1999/02/22-rdf-syntax-ns#"
   xmlns:svg="http://www.w3.org/2000/svg"
   xmlns="http://www.w3.org/2000/svg"
   xmlns:xlink="http://www.w3.org/1999/xlink"
   xmlns:sodipodi="http://sodipodi.sourceforge.net/DTD/sodipodi-0.dtd"
   xmlns:inkscape="http://www.inkscape.org/namespaces/inkscape"
   width="500"
   height="200"
   viewBox="0 0 500 200"
   version="1.1"
   id="svg14"
   sodipodi:docname="Gt.svg"
   inkscape:version="0.92.5 (2060ec1f9f, 2020-04-08)">
  <metadata
     id="metadata20">
    <rdf:RDF>
      <cc:Work
         rdf:about="">
        <dc:format>image/svg+xml</dc:format>
        <dc:type
           rdf:resource="http://purl.org/dc/dcmitype/StillImage" />
        <dc:title />
      </cc:Work>
    </rdf:RDF>
  </metadata>
  <defs
     id="defs18">
    <linearGradient
       id="linearGradient1708">
      <stop
         offset="0"
         style="stop-color:#fcff01;stop-opacity:1"
         id="stop1698" />
      <stop
         offset="0.24505855"
         style="stop-color:#ff720c;stop-opacity:1"
         id="stop1700" />
      <stop
         offset="0.48089126"
         style="stop-color:#b300e5;stop-opacity:1"
         id="stop1702" />
      <stop
         offset="0.78216583"
         style="stop-color:#31e1fd;stop-opacity:1"
         id="stop1704" />
      <stop
         offset="1"
         style="stop-color:#00bf19;stop-opacity:1"
         id="stop1706" />
    </linearGradient>
    <linearGradient
       x1="287.04117"
       y1="350.87671"
       x2="348.69205"
       y2="275.90128"
       id="linearGradient3545"
       xlink:href="#linearGradient3539"
       gradientUnits="userSpaceOnUse"
       gradientTransform="matrix(0.27391884,0,0,0.27391884,-74.12342,-68.696897)" />
    <linearGradient
       id="linearGradient3539">
      <stop
         id="stop3541"
         style="stop-color:#bf0000;stop-opacity:1"
         offset="0" />
      <stop
         id="stop3547"
         style="stop-color:#bf0000;stop-opacity:1"
         offset="0.3747088" />
      <stop
         id="stop3543"
         style="stop-color:#fbe40a;stop-opacity:1"
         offset="1" />
    </linearGradient>
    <linearGradient
       x1="289.83875"
       y1="355.51709"
       x2="639.31293"
       y2="355.51709"
       id="linearGradient3555"
       xlink:href="#linearGradient3549"
       gradientUnits="userSpaceOnUse"
       gradientTransform="matrix(0.27391884,0,0,0.27391884,-74.12342,-68.696897)" />
    <linearGradient
       id="linearGradient3549">
      <stop
         id="stop3551"
         style="stop-color:#bf0000;stop-opacity:1"
         offset="0" />
      <stop
         id="stop3557"
         style="stop-color:#fff20c;stop-opacity:1"
         offset="0.24505855" />
      <stop
         id="stop3559"
         style="stop-color:#0ce500;stop-opacity:1"
         offset="0.44498077" />
      <stop
         id="stop3561"
         style="stop-color:#31e1fd;stop-opacity:1"
         offset="0.64282119" />
      <stop
         id="stop3553"
         style="stop-color:#0019bf;stop-opacity:1"
         offset="1" />
    </linearGradient>
  </defs>
  <sodipodi:namedview
     pagecolor="#ffffff"
     bordercolor="#666666"
     borderopacity="1"
     objecttolerance="10"
     gridtolerance="10"
     guidetolerance="10"
     inkscape:pageopacity="0"
     inkscape:pageshadow="2"
     inkscape:window-width="1366"
     inkscape:window-height="743"
     id="namedview16"
     showgrid="false"
     inkscape:pagecheckerboard="true"
     inkscape:zoom="1.6391415"
     inkscape:cx="311.85211"
     inkscape:cy="65.247069"
     inkscape:window-x="0"
     inkscape:window-y="0"
     inkscape:window-maximized="1"
     inkscape:current-layer="svg14" />
  <path
     d="m 15.059331,200.42477 c 1.547107,0 3.051769,-0.36308 4.513976,-1.08911 1.462211,-0.7261 2.664996,-1.70112 3.608356,-2.92507 v 0 l -2.688578,-2.92507 c -0.698087,0.89204 -1.499945,1.57663 -2.40557,2.05379 -0.905625,0.4771 -1.877287,0.71569 -2.91498,0.71569 -0.924495,0 -1.778236,-0.18149 -2.561225,-0.54456 -0.782992,-0.36307 -1.462209,-0.85575 -2.037661,-1.47809 -0.575451,-0.62236 -1.028262,-1.364 -1.358439,-2.22492 -0.330173,-0.86093 -0.495261,-1.78927 -0.495261,-2.78504 0,-1.01651 0.160365,-1.95522 0.481112,-2.81616 0.320739,-0.86091 0.764122,-1.60775 1.330139,-2.24047 0.566014,-0.63272 1.240517,-1.1306 2.02351,-1.49364 0.782989,-0.36308 1.617861,-0.54455 2.504622,-0.54455 1.056563,0 2.056527,0.25411 2.999886,0.76237 0.94336,0.50828 1.764083,1.23953 2.46217,2.1938 v 0 l 2.77348,-3.01843 c -0.924495,-1.24469 -2.131997,-2.23527 -3.622505,-2.97172 -1.490508,-0.73647 -3.028188,-1.10468 -4.613031,-1.10468 -1.471643,0 -2.853669,0.2905 -4.146071,0.8713 -1.292404,0.58085 -2.410287,1.36917 -3.3536468,2.36493 -0.9433593,0.99577 -1.6886152,2.18344 -2.2357638,3.56298 -0.5471477,1.37955 -0.8207211,2.85763 -0.8207211,4.43427 0,1.57661 0.2688434,3.04955 0.8065695,4.41873 0.537716,1.36917 1.2782542,2.55163 2.2216149,3.54741 0.9433603,0.99576 2.0612423,1.78409 3.3536473,2.36494 1.292405,0.58087 2.683863,0.8713 4.17437,0.8713 z m 53.630051,0.0311 c 1.47164,0 2.848945,-0.29041 4.13192,-0.87129 1.282965,-0.58087 2.391404,-1.37435 3.325343,-2.38051 0.933917,-1.00613 1.674463,-2.19898 2.22162,-3.57853 0.547157,-1.37955 0.82071,-2.84729 0.82071,-4.40316 0,-1.55589 -0.273539,-3.02361 -0.82071,-4.40315 -0.547152,-1.37957 -1.287698,-2.57241 -2.22162,-3.57854 -0.933939,-1.00614 -2.042378,-1.79964 -3.325343,-2.38051 -1.28297,-0.58087 -2.66028,-0.87129 -4.13192,-0.87129 -1.452787,0 -2.820657,0.29041 -4.103625,0.87129 -1.282975,0.58087 -2.391413,1.37437 -3.325351,2.38051 -0.933922,1.00613 -1.67446,2.19897 -2.221609,3.57854 -0.547146,1.37954 -0.820724,2.84725 -0.820724,4.40315 0,1.55587 0.273599,3.02361 0.820724,4.40315 0.547149,1.37955 1.287687,2.57239 2.221609,3.57853 0.933938,1.00615 2.042376,1.79964 3.32535,2.38051 1.282968,0.58087 2.650839,0.87129 4.103626,0.87129 z m 0,-4.13866 c -0.886754,0 -1.712206,-0.18149 -2.476315,-0.54456 -0.764131,-0.36307 -1.424479,-0.86092 -1.98107,-1.49365 -0.556577,-0.63273 -0.995243,-1.38474 -1.315984,-2.25604 -0.320761,-0.87132 -0.481141,-1.80484 -0.481141,-2.80059 0,-1.01651 0.160378,-1.95523 0.481141,-2.81615 0.320712,-0.86093 0.759408,-1.60775 1.315984,-2.24048 0.556591,-0.63273 1.216939,-1.13062 1.98107,-1.49366 0.764114,-0.36307 1.589566,-0.54456 2.476315,-0.54456 0.886754,0 1.716916,0.18149 2.490472,0.54456 0.773552,0.36308 1.438625,0.86093 1.995215,1.49366 0.556568,0.63273 0.995237,1.37955 1.31599,2.24048 0.32073,0.86092 0.481145,1.79964 0.481145,2.81615 0,0.99575 -0.160365,1.92927 -0.481145,2.80059 -0.320776,0.8713 -0.759422,1.62331 -1.31599,2.25604 -0.55659,0.63273 -1.221663,1.13061 -1.995215,1.49364 -0.773556,0.36307 -1.603718,0.54455 -2.490472,0.54455 z m 62.205198,3.79658 v -3.98327 h -10.8392 V 178.3312 h -4.10364 v 21.78238 z m 51.73387,0 v -3.98327 H 171.78924 V 178.3312 h -4.10361 v 21.78238 z m 52.13009,0 v -3.92103 h -11.23541 v -5.16554 h 7.32992 v -3.79636 h -7.32992 v -4.97882 h 11.12222 v -3.92083 h -15.22583 v 21.78239 z m 45.50772,0.31112 c 1.54713,0 3.05178,-0.36307 4.51397,-1.08912 1.46223,-0.72607 2.66501,-1.70109 3.60837,-2.92506 v 0 l -2.68857,-2.92506 c -0.69808,0.89204 -1.49995,1.57662 -2.40559,2.05376 -0.90562,0.47711 -1.87728,0.7157 -2.91498,0.7157 -0.92447,0 -1.77824,-0.18149 -2.5612,-0.54454 -0.78301,-0.36308 -1.46222,-0.85576 -2.03766,-1.47811 -0.57546,-0.62234 -1.02829,-1.36398 -1.35843,-2.22491 -0.33024,-0.86091 -0.49531,-1.78928 -0.49531,-2.78504 0,-1.0165 0.16036,-1.95522 0.48114,-2.81614 0.32073,-0.86094 0.7641,-1.60775 1.33013,-2.24048 0.56602,-0.63273 1.24051,-1.13062 2.02351,-1.49366 0.78298,-0.36307 1.61786,-0.54455 2.50461,-0.54455 1.05658,0 2.05653,0.2541 2.99988,0.7624 0.94337,0.50827 1.76411,1.23949 2.46219,2.19377 v 0 l 2.77346,-3.01841 c -0.92446,-1.24471 -2.13199,-2.23529 -3.62251,-2.97175 -1.49049,-0.73644 -3.02817,-1.10466 -4.61302,-1.10466 -1.47164,0 -2.85366,0.29046 -4.14606,0.87128 -1.2924,0.58088 -2.41028,1.36918 -3.35365,2.36496 -0.94335,0.99578 -1.6886,2.18341 -2.23575,3.56297 -0.54717,1.37955 -0.82074,2.85763 -0.82074,4.43427 0,1.57662 0.26883,3.04954 0.80657,4.41872 0.53773,1.36918 1.27826,2.55166 2.22163,3.54741 0.94334,0.99578 2.06123,1.78409 3.35363,2.36495 1.29242,0.58085 2.68386,0.87129 4.17437,0.87129 z m 54.28097,-0.31112 v -17.79933 h 6.65068 v -3.98306 h -17.4333 v 3.98306 h 6.67901 v 17.79932 z m 47.00766,0 V 178.3314 h -4.10361 v 21.78239 z m 47.26236,0.34226 c 1.47164,0 2.84895,-0.29041 4.13191,-0.87128 1.28297,-0.58087 2.39143,-1.37436 3.32535,-2.38051 0.93394,-1.00614 1.67445,-2.19898 2.22162,-3.57853 0.54714,-1.37955 0.82072,-2.84728 0.82072,-4.40317 0,-1.55588 -0.27359,-3.0236 -0.82072,-4.40314 -0.54717,-1.37956 -1.28768,-2.5724 -2.22162,-3.57854 -0.93392,-1.00613 -2.04238,-1.79963 -3.32535,-2.3805 -1.28296,-0.58087 -2.66027,-0.87129 -4.13191,-0.87129 -1.45278,0 -2.82064,0.29041 -4.10364,0.87129 -1.28295,0.58087 -2.39142,1.37437 -3.32531,2.3805 -0.93395,1.00614 -1.67449,2.19898 -2.22162,3.57855 -0.54717,1.37953 -0.82073,2.84725 -0.82073,4.40314 0,1.55588 0.27358,3.02361 0.82073,4.40316 0.54713,1.37955 1.28767,2.57239 2.22162,3.57853 0.93389,1.00615 2.04236,1.79964 3.32531,2.38051 1.283,0.58087 2.65086,0.87128 4.10364,0.87128 z m 0,-4.13865 c -0.88675,0 -1.71222,-0.18149 -2.47631,-0.54456 -0.76413,-0.36307 -1.42448,-0.86091 -1.98108,-1.49363 -0.55658,-0.63274 -0.99523,-1.38475 -1.31599,-2.25604 -0.32073,-0.87132 -0.48109,-1.80484 -0.48109,-2.8006 0,-1.0165 0.16037,-1.95522 0.48109,-2.81614 0.32078,-0.86094 0.75941,-1.60776 1.31599,-2.24048 0.55659,-0.63274 1.21695,-1.13062 1.98108,-1.49366 0.7641,-0.36307 1.58957,-0.54456 2.47631,-0.54456 0.88674,0 1.71692,0.18149 2.49047,0.54456 0.77357,0.36308 1.43864,0.86092 1.99521,1.49366 0.55657,0.63272 0.99524,1.37954 1.31598,2.24048 0.32078,0.86092 0.48114,1.79964 0.48114,2.81614 0,0.99576 -0.16036,1.92928 -0.48114,2.8006 -0.32078,0.87129 -0.75941,1.6233 -1.31598,2.25604 -0.55657,0.63272 -1.22164,1.13061 -1.99521,1.49363 -0.77355,0.36308 -1.60373,0.54456 -2.49047,0.54456 z m 51.13957,3.79635 v -14.56307 l 10.1034,14.56308 h 3.6225 v -21.78238 h -3.84889 v 14.09632 l -9.84871,-14.09632 h -3.90549 v 21.78238 z"
     id="COLLECTION"
     inkscape:connector-curvature="0"
     style="fill:#ffffff;fill-rule:nonzero;stroke:none;stroke-width:1.26814473" />
  <path
     inkscape:connector-curvature="0"
     d="m 115.8489,86.270256 c 8.73701,-26.636897 36.57249,-53.675953 59.86993,-62.227671 23.30136,-8.555664 21.24326,8.748857 9.56892,20.423207 -6.19398,6.190037 -17.25326,13.271134 -29.32975,15.262199 0,0 -3.97817,0.88316 -3.97817,-3.098966 -0.88713,-4.865295 -1.77029,-4.423713 -6.63559,3.982126 -5.53949,6.46209 -7.31766,11.548181 -6.19398,11.946388 7.51875,2.653434 15.66039,1.301086 17.69487,0.737282 2.71257,-0.75305 7.60936,-0.256097 11.79655,-0.887105 5.89826,-0.883169 10.61768,0.295517 10.61768,0.295517 0,0 -21.38915,30.666337 -45.71564,43.353947 -27.13365,14.15825 -26.91285,-1.68352 -17.69482,-29.787104 z m -15.48302,35.539514 c -3.623318,37.61732 32.73628,11.20516 45.41997,-1.77027 13.27111,-13.57866 26.83797,-27.133676 26.83797,-27.133676 0,0 -25.95481,49.252236 -29.49143,56.629026 -3.54058,7.37285 -5.01513,11.20516 -5.60654,17.9866 -0.58744,6.7854 0.88713,7.66857 3.54058,7.66857 2.6534,0 4.71942,-1.76633 6.19398,-9.7306 1.47456,-7.96425 22.41423,-50.13934 27.72113,-60.16562 5.31082,-10.026296 20.93967,-36.572505 20.93967,-36.572505 0,0 17.69878,-1.474574 41.88334,-5.306878 24.18453,-3.836253 28.60827,-9.734536 25.06769,-9.438831 -3.54052,0.295518 -45.71564,2.065975 -54.26734,2.653439 0,0 1.17883,-1.47457 2.94913,-3.832308 1.77028,-2.361679 0.59139,-3.540545 -2.65341,-3.836254 -3.24485,-0.291764 -2.94917,-0.291764 -4.42374,1.474575 -1.47456,1.770274 -6.4897,5.310823 -14.15825,7.081097 -7.66854,1.770274 -13.86252,0.883164 -13.86252,0.883164 0,0 20.35223,-17.399148 28.60821,-28.312552 C 222.98786,6.4029341 195.03804,4.4276437 174.98154,12.687606 154.92895,20.943624 135.4993,38.323056 125.32319,53.5892 c -7.66855,11.500864 -21.82284,35.685398 -24.95731,68.22057"
     style="fill:#000000;fill-opacity:1;fill-rule:nonzero;stroke:none;stroke-width:0.56511688"
     id="path3215" />
  <path
     inkscape:connector-curvature="0"
     d="m 210.7468,105.65552 0.25531,-2.73049 h -0.0833 c -2.0218,2.60542 -3.82478,3.42353 -6.92004,3.42353 -6.0758,0 -7.13883,-4.19993 -5.96114,-9.744282 l 2.66273,-12.552911 c 1.41213,-6.64383 5.12741,-9.73907 11.68791,-9.73907 6.11749,0 9.19194,2.605426 7.86313,8.842799 l -0.4796,2.282352 h -7.17529 l 0.3542,-1.672684 c 0.55262,-2.605426 0.50544,-3.908127 -1.40173,-3.949821 -2.23543,-0.04091 -3.02227,1.177661 -3.44957,3.178613 l -3.20986,15.121875 c -0.36452,1.709149 0.19323,2.730479 2.06869,2.730479 2.44911,0 2.94413,-1.954067 3.36097,-3.913349 l 0.5106,-2.407406 h -2.56893 l 1.16723,-5.50265 h 9.7443 l -3.53296,16.633015 h -4.893"
     style="fill:#ffffff;fill-opacity:1;fill-rule:nonzero;stroke:none;stroke-width:0.74688244"
     id="path3217" />
  <path
     inkscape:connector-curvature="0"
     d="m 225.6394,75.047035 h 18.58701 l -1.29748,6.112303 h -5.78926 l -5.19516,24.454492 h -7.17018 l 5.19005,-24.454492 h -5.62252 l 1.29754,-6.112303"
     style="fill:#ffffff;fill-opacity:1;fill-rule:nonzero;stroke:none;stroke-width:0.74688244"
     id="path3219" />
  <path
     inkscape:connector-curvature="0"
     d="m 252.52729,105.61383 6.49276,-30.566795 h 7.17011 l -6.48751,30.566795 h -7.17536"
     style="fill:#ffffff;fill-opacity:1;fill-rule:nonzero;stroke:none;stroke-width:0.74688244"
     id="path3221" />
  <path
     inkscape:connector-curvature="0"
     d="m 275.46546,82.790341 -0.60949,2.850331 h 0.0833 c 0.98484,-1.750848 3.23067,-3.501689 5.26814,-3.501689 3.05872,0 5.43494,1.667471 4.77839,4.767918 l -3.97591,18.706929 h -6.48227 l 3.46516,-16.304731 c 0.14028,-1.057801 -0.073,-1.954064 -1.31312,-1.875903 -1.15157,0.04091 -1.90197,0.693042 -2.15204,1.875903 l -3.46522,16.304731 h -6.47705 l 4.84607,-22.823489 h 6.03411"
     style="fill:#ffffff;fill-opacity:1;fill-rule:nonzero;stroke:none;stroke-width:0.74688244"
     id="path3223" />
  <path
     inkscape:connector-curvature="0"
     d="m 288.12257,87.474885 0.99006,-4.684544 h 2.56895 l 1.38607,-6.523975 h 6.48228 l -1.38608,6.523975 h 3.1005 l -0.99531,4.684544 h -3.10042 l -2.5533,12.026631 c -0.276,1.302704 0.23461,1.589314 1.08902,1.589314 0.76081,-0.12506 0.9953,-0.0834 1.68836,-0.0834 l -0.96925,4.56472 c -1.42777,0.20303 -2.80861,0.37018 -4.23644,0.37018 -3.50167,0 -5.03888,-1.79253 -4.3041,-5.25773 l 2.80343,-13.2095 h -2.56377"
     style="fill:#ffffff;fill-opacity:1;fill-rule:nonzero;stroke:none;stroke-width:0.74688244"
     id="path3225" />
  <path
     inkscape:connector-curvature="0"
     d="m 308.38754,95.259883 -0.84935,3.996719 c -0.27082,1.261018 0.0782,2.324038 1.48509,2.402198 2.38139,0.12506 2.595,-2.037434 3.12131,-3.949818 h 6.44059 c -0.92233,5.867398 -4.66891,8.556208 -10.3123,8.639578 -4.65844,0.0409 -8.32693,-1.87591 -7.21697,-7.091958 l 1.97489,-9.29615 c 1.24536,-5.8674 5.36197,-7.784992 10.38003,-7.821469 4.53337,-0.0409 8.36857,1.667471 7.32123,6.602142 l -1.38091,6.518758 z m 5.38803,-4.278106 0.4796,-2.240652 c 0.1719,-0.818102 -0.0385,-2.324042 -1.70919,-2.324042 -1.83418,0 -2.595,1.469459 -2.93367,3.058764 l -0.31795,1.50593 h 4.48133"
     style="fill:#ffffff;fill-opacity:1;fill-rule:nonzero;stroke:none;stroke-width:0.74688244"
     id="path3227" />
  <path
     inkscape:connector-curvature="0"
     d="m 331.94051,82.790341 -0.73469,3.465208 h 0.0834 c 1.2506,-2.449095 3.19421,-4.116566 5.88823,-4.116566 l -1.55801,7.336864 c -0.63083,-0.125059 -1.27147,-0.166729 -1.92287,-0.166729 -1.83418,0 -2.64709,0.370181 -3.16816,2.245866 l -2.98584,14.058856 h -6.48227 l 4.84606,-22.823484 h 6.03418"
     style="fill:#ffffff;fill-opacity:1;fill-rule:nonzero;stroke:none;stroke-width:0.74688244"
     id="path3229" />
  <path
     inkscape:connector-curvature="0"
     d="m 346.67166,103.57638 c -2.01142,1.79253 -3.60594,2.77218 -6.16966,2.77218 -3.6685,0 -5.42454,-2.48557 -4.65332,-6.11232 1.09948,-5.179587 4.25726,-6.810566 7.31082,-7.748518 3.01182,-0.932752 5.88306,-1.219336 6.40415,-3.668431 0.26571,-1.261036 -0.23462,-2.360523 -1.5372,-2.360523 -2.36574,0 -2.70965,1.630999 -3.24113,3.543383 h -6.4823 c 0.92751,-5.705874 5.22121,-7.863168 10.43731,-7.863168 6.3989,0 8.30606,1.954074 7.24308,6.966891 l -2.97018,13.980696 c -0.18224,0.85458 -0.12022,1.71437 -0.003,2.52727 h -6.32076 l -0.0194,-2.03745 z m 1.67782,-9.051225 c -1.44857,0.698251 -2.67312,1.063015 -3.61633,1.672683 -0.93274,0.573174 -1.80291,1.38608 -2.13118,2.933701 -0.30249,1.427771 0.33869,2.449101 1.88627,2.449101 1.91763,0 2.75135,-1.995755 3.10044,-3.465209 l 0.7608,-3.590276"
     style="fill:#ffffff;fill-opacity:1;fill-rule:nonzero;stroke:none;stroke-width:0.74688244"
     id="path3231" />
  <path
     inkscape:connector-curvature="0"
     d="m 370.43824,91.268386 0.0452,-0.40643 c 0.0582,-0.859795 0.29212,-1.756068 0.30769,-2.610635 -0.0833,-0.937957 -0.46924,-1.427784 -1.44865,-1.427784 -1.66749,0 -2.23027,1.302711 -2.5429,2.772179 l -2.00094,9.415996 c -0.30249,1.427768 -0.1564,2.647098 1.51638,2.647098 2.40736,0 2.75651,-3.585055 3.12125,-5.299418 h 6.27906 c -0.28632,1.349604 -1.05255,4.199938 -1.68306,5.424488 -1.45907,2.85033 -4.18436,4.15825 -7.05552,4.43964 -0.61984,0.0409 -1.20892,0.12506 -2.18851,0.12506 -4.64286,0 -7.6287,-1.8759 -6.52404,-7.09196 l 1.97495,-9.296154 c 1.24538,-5.867399 4.67933,-7.821469 9.69216,-7.821469 6.38324,0.07792 8.32168,2.850327 6.62296,9.129402 h -6.11754"
     style="fill:#ffffff;fill-opacity:1;fill-rule:nonzero;stroke:none;stroke-width:0.74688244"
     id="path3233" />
  <path
     inkscape:connector-curvature="0"
     d="m 380.45347,87.474885 0.99531,-4.684544 h 2.56894 l 1.38609,-6.523975 h 6.48228 l -1.38607,6.523975 h 3.09519 l -0.99524,4.684544 h -3.09526 l -2.5533,12.026631 c -0.27599,1.302704 0.23399,1.589314 1.08909,1.589314 0.76079,-0.12506 0.99522,-0.0834 1.68831,-0.0834 l -0.9692,4.5647 c -1.42777,0.20303 -2.80868,0.37018 -4.23644,0.37018 -3.50691,0 -5.03887,-1.79254 -4.30418,-5.25773 l 2.80343,-13.20948 h -2.56895"
     style="fill:#ffffff;fill-opacity:1;fill-rule:nonzero;stroke:none;stroke-width:0.74688244"
     id="path3235" />
  <path
     inkscape:connector-curvature="0"
     d="m 392.93867,105.61383 4.84605,-22.823489 h 6.47711 l -4.84607,22.823489 z m 5.32028,-25.069368 1.16722,-5.497427 h 6.48228 l -1.16722,5.497427 h -6.48228"
     style="fill:#ffffff;fill-opacity:1;fill-rule:nonzero;stroke:none;stroke-width:0.74688244"
     id="path3237" />
  <path
     inkscape:connector-curvature="0"
     d="m 413.39127,97.542229 h 0.0834 l 5.45576,-14.751888 h 6.31558 l -9.85895,22.823489 h -7.42025 l -0.12534,-22.823489 h 6.52396 l -0.97433,14.751888"
     style="fill:#ffffff;fill-opacity:1;fill-rule:nonzero;stroke:none;stroke-width:0.74688244"
     id="path3239" />
  <path
     inkscape:connector-curvature="0"
     d="m 431.75943,95.259883 -0.84414,3.996719 c -0.2708,1.261018 0.073,2.324038 1.48511,2.402198 2.37614,0.12506 2.59499,-2.037434 3.12124,-3.949818 h 6.44066 c -0.9171,5.867398 -4.66898,8.556208 -10.31231,8.639578 -4.65849,0.0409 -8.32693,-1.87591 -7.21697,-7.091958 l 1.9749,-9.29615 c 1.24536,-5.8674 5.36198,-7.784992 10.38521,-7.821469 4.53343,-0.0409 8.36338,1.667471 7.32122,6.602142 l -1.38607,6.518758 z m 5.39325,-4.278106 0.4796,-2.240652 c 0.17191,-0.818102 -0.0385,-2.324042 -1.70919,-2.324042 -1.83418,0 -2.59499,1.469459 -2.92843,3.058764 l -0.32315,1.50593 h 4.48135"
     style="fill:#ffffff;fill-opacity:1;fill-rule:nonzero;stroke:none;stroke-width:0.74688244"
     id="path3241" />
  <path
     inkscape:connector-curvature="0"
     d="m 198.63159,130.51644 -0.45889,2.1573 c -0.37038,1.75604 -0.12987,3.30366 2.15205,3.30366 1.67274,0 2.72531,-1.50593 3.05358,-3.05876 0.54745,-2.56374 -1.36526,-3.54338 -2.99624,-4.68455 -1.93321,-1.26624 -3.55901,-2.44908 -4.57513,-3.9967 -0.97442,-1.54763 -1.34963,-3.42353 -0.78161,-6.11232 1.21931,-5.74757 5.30987,-8.68127 10.85418,-8.68127 6.23739,0 8.53015,4.15825 6.98256,9.90581 h -6.60219 c 0.3025,-1.79774 0.90153,-4.24163 -1.42776,-4.40317 -1.4434,-0.12506 -2.46994,0.69305 -2.91803,2.03745 -0.59399,1.83422 0.14609,2.77217 1.3652,3.7518 2.32404,1.70918 4.42401,2.76695 5.76322,4.3198 1.34439,1.5476 1.89153,3.58505 1.0995,7.29517 -1.24544,5.86741 -5.19523,9.1294 -11.14602,9.1294 -6.56566,0 -8.5562,-3.66844 -7.7016,-7.70163 l 0.69301,-3.26199 h 6.64385"
     style="fill:#ffffff;fill-opacity:1;fill-rule:nonzero;stroke:none;stroke-width:0.74688244"
     id="path3243" />
  <path
     inkscape:connector-curvature="0"
     d="m 215.38966,125.09717 c 1.25061,-5.87263 5.12741,-7.82668 10.14023,-7.82668 5.71114,0 7.91013,2.68878 6.82104,7.82668 l -1.9749,9.29092 c -1.42776,5.17437 -5.05451,7.09196 -9.98402,7.09196 -4.64803,0 -8.08197,-1.87589 -6.97208,-7.09196 z m 4.42399,9.69738 c -0.1564,1.3027 0.22944,2.00096 1.57366,2.00096 1.34446,0 2.02183,-0.69826 2.41783,-2.00096 l 2.1677,-10.18722 c 0.30763,-1.46943 0.073,-2.6523 -1.43294,-2.6523 -1.51114,0 -2.25107,1.18287 -2.56377,2.6523 l -2.16248,10.18722"
     style="fill:#ffffff;fill-opacity:1;fill-rule:nonzero;stroke:none;stroke-width:0.74688244"
     id="path3245" />
  <path
     inkscape:connector-curvature="0"
     d="m 238.77588,122.64807 h -2.61064 l 0.99531,-4.68453 h 2.56894 l 0.46342,-2.00098 c 1.01093,-4.36147 3.43393,-5.78404 7.62869,-5.78404 h 2.85553 l -0.99531,4.68455 h -1.38608 c -0.73469,0 -1.42776,0.20302 -1.5476,0.77642 l -0.49508,2.32405 h 2.77215 l -0.99524,4.68453 h -2.77221 l -3.8456,18.09725 h -6.47705 l 3.84036,-18.09725"
     style="fill:#ffffff;fill-opacity:1;fill-rule:nonzero;stroke:none;stroke-width:0.74688244"
     id="path3247" />
  <path
     inkscape:connector-curvature="0"
     d="m 250.26581,122.60639 0.9953,-4.68455 h 2.56888 l 1.38614,-6.52398 h 6.48229 l -1.38608,6.52398 h 3.09519 l -0.99524,4.68455 h -3.09526 l -2.5533,12.02663 c -0.276,1.30271 0.23399,1.58929 1.08909,1.58929 0.76081,-0.12505 0.99522,-0.0834 1.6883,-0.0834 l -0.96925,4.56471 c -1.42769,0.20301 -2.8086,0.37018 -4.23638,0.37018 -3.5069,0 -5.03893,-1.79253 -4.30417,-5.25776 l 2.80344,-13.20948 h -2.56895"
     style="fill:#ffffff;fill-opacity:1;fill-rule:nonzero;stroke:none;stroke-width:0.74688244"
     id="path3249" />
  <path
     inkscape:connector-curvature="0"
     d="m 280.80657,132.67374 h 0.0834 l 4.92952,-14.7519 h 6.19045 l -9.24403,22.82348 h -6.93045 l 0.68268,-11.85986 h -0.0783 l -4.47611,11.85986 h -6.93045 l 0.48473,-22.82348 h 6.279 l -1.3027,14.7519 h 0.0833 l 5.49745,-14.7519 h 5.54431 l -0.81289,14.7519"
     style="fill:#ffffff;fill-opacity:1;fill-rule:nonzero;stroke:none;stroke-width:0.74688244"
     id="path3251" />
  <path
     inkscape:connector-curvature="0"
     d="m 301.24871,138.70788 c -2.01142,1.79254 -3.60593,2.77217 -6.16964,2.77217 -3.66844,0 -5.42448,-2.48557 -4.65327,-6.11232 1.09942,-5.17956 4.25718,-6.81057 7.31083,-7.74852 3.01181,-0.93274 5.88298,-1.21933 6.40406,-3.66843 0.26564,-1.26103 -0.23464,-2.36052 -1.53719,-2.36052 -2.36574,0 -2.70966,1.631 -3.24115,3.54338 h -6.48227 c 0.9275,-5.70587 5.21603,-7.86315 10.43731,-7.86315 6.3989,0 8.30611,1.95405 7.24309,6.96689 l -2.97021,13.98068 c -0.18227,0.85458 -0.12024,1.71437 -0.003,2.52726 h -6.32077 l -0.0194,-2.03744 z m 1.67788,-9.04603 c -1.45386,0.69305 -2.66795,1.05781 -3.61632,1.66749 -0.93796,0.57316 -1.80297,1.38608 -2.13125,2.93892 -0.30248,1.42255 0.33869,2.44388 1.88635,2.44388 1.91757,0 2.74611,-1.99575 3.10043,-3.46522 l 0.76079,-3.58507"
     style="fill:#ffffff;fill-opacity:1;fill-rule:nonzero;stroke:none;stroke-width:0.74688244"
     id="path3253" />
  <path
     inkscape:connector-curvature="0"
     d="m 322.08687,117.92184 -0.73476,3.46521 h 0.0834 c 1.2506,-2.4491 3.19428,-4.11656 5.88829,-4.11656 l -1.55807,7.33684 c -0.63082,-0.12505 -1.27142,-0.16677 -1.9228,-0.16677 -1.83425,0 -2.64709,0.37018 -3.16817,2.24587 l -2.98584,14.05885 h -6.4771 l 4.84614,-22.82348 h 6.02894"
     style="fill:#ffffff;fill-opacity:1;fill-rule:nonzero;stroke:none;stroke-width:0.74688244"
     id="path3255" />
  <path
     inkscape:connector-curvature="0"
     d="m 334.10304,130.39139 -0.84934,3.9967 c -0.27149,1.26103 0.0782,2.32405 1.48507,2.40742 2.38138,0.11959 2.595,-2.04265 3.12649,-3.95503 h 6.44058 c -0.92225,5.8674 -4.67407,8.5562 -10.31739,8.63957 -4.65333,0.0409 -8.32178,-1.87589 -7.21187,-7.09196 l 1.96972,-9.29092 c 1.24543,-5.87263 5.36197,-7.79021 10.3852,-7.82668 4.53345,-0.0409 8.36864,1.66746 7.3213,6.60213 l -1.38614,6.51877 z m 5.39325,-4.27811 0.47442,-2.24066 c 0.17191,-0.8181 -0.0385,-2.32404 -1.70919,-2.32404 -1.83418,0 -2.58975,1.46946 -2.92844,3.05875 l -0.32313,1.50595 h 4.48651"
     style="fill:#ffffff;fill-opacity:1;fill-rule:nonzero;stroke:none;stroke-width:0.74688244"
     id="path3257" />
  <path
     inkscape:connector-curvature="0"
     d="m 115.84891,86.270256 c 8.73701,-26.636897 36.57249,-53.675958 59.86993,-62.227672 23.30136,-8.555667 21.24326,8.748854 9.56891,20.423204 -6.19398,6.190041 -17.25326,13.271138 -29.32975,15.262203 0,0 -3.97817,0.88316 -3.97817,-3.098966 -0.88713,-4.865295 -1.77029,-4.423713 -6.63558,3.982126 -5.5395,6.46209 -7.31767,11.548181 -6.19399,11.946388 7.51877,2.653434 15.66039,1.301086 17.69487,0.737282 2.71259,-0.75305 7.60939,-0.256097 11.79656,-0.887105 5.89826,-0.883169 10.61767,0.295517 10.61767,0.295517 0,0 -21.38914,30.666337 -45.71563,43.353957 -27.13365,14.15824 -26.91285,-1.68354 -17.69482,-29.787114 z m -15.48302,35.539514 c -3.623318,37.61732 32.73627,11.20517 45.41996,-1.77027 13.27113,-13.57866 26.838,-27.133676 26.838,-27.133676 0,0 -25.95482,49.252236 -29.49147,56.629026 -3.54055,7.37285 -5.01512,11.20516 -5.60654,17.9866 -0.58741,6.7854 0.88714,7.66856 3.5406,7.66856 2.65339,0 4.71941,-1.76632 6.19398,-9.73059 1.47455,-7.96425 22.41423,-50.13934 27.72113,-60.16562 5.31081,-10.026296 20.93965,-36.572505 20.93965,-36.572505 0,0 17.69879,-1.474574 41.88335,-5.306878 24.18453,-3.836253 28.60826,-9.734536 25.06771,-9.438831 -3.54056,0.295518 -45.71563,2.065975 -54.26736,2.653439 0,0 1.17885,-1.47457 2.94915,-3.832308 1.77026,-2.361679 0.59136,-3.540545 -2.65343,-3.836253 -3.24484,-0.291764 -2.94916,-0.291764 -4.42373,1.474574 -1.47457,1.770274 -6.4897,5.310823 -14.15826,7.081097 -7.66851,1.770274 -13.8625,0.883164 -13.8625,0.883164 0,0 20.35221,-17.399147 28.60821,-28.312555 C 222.98788,6.4029341 195.03803,4.4276411 174.98155,12.687605 154.92894,20.943622 135.49932,38.323051 125.3232,53.5892 c -7.66854,11.500864 -21.82283,35.685398 -24.95731,68.22057"
     style="fill:#ffffff;fill-opacity:1;fill-rule:nonzero;stroke:none;stroke-width:0.56511688;stroke-opacity:1"
     id="path3215-3" />
</svg>
