<?xml version="1.0" encoding="UTF-8" standalone="no"?>
<svg
   xmlns:dc="http://purl.org/dc/elements/1.1/"
   xmlns:cc="http://creativecommons.org/ns#"
   xmlns:rdf="http://www.w3.org/1999/02/22-rdf-syntax-ns#"
   xmlns:svg="http://www.w3.org/2000/svg"
   xmlns="http://www.w3.org/2000/svg"
   xmlns:sodipodi="http://sodipodi.sourceforge.net/DTD/sodipodi-0.dtd"
   xmlns:inkscape="http://www.inkscape.org/namespaces/inkscape"
   width="500"
   height="200"
   viewBox="0 0 500 200"
   version="1.1"
   id="svg10"
   sodipodi:docname="gta.svg"
   inkscape:version="0.92.5 (2060ec1f9f, 2020-04-08)">
  <metadata
     id="metadata16">
    <rdf:RDF>
      <cc:Work
         rdf:about="">
        <dc:format>image/svg+xml</dc:format>
        <dc:type
           rdf:resource="http://purl.org/dc/dcmitype/StillImage" />
        <dc:title />
      </cc:Work>
    </rdf:RDF>
  </metadata>
  <defs
     id="defs14" />
  <sodipodi:namedview
     pagecolor="#ffffff"
     bordercolor="#666666"
     borderopacity="1"
     objecttolerance="10"
     gridtolerance="10"
     guidetolerance="10"
     inkscape:pageopacity="0"
     inkscape:pageshadow="2"
     inkscape:window-width="1366"
     inkscape:window-height="743"
     id="namedview12"
     showgrid="false"
     units="px"
     inkscape:pagecheckerboard="true"
     inkscape:zoom="1.6959685"
     inkscape:cx="199.37187"
     inkscape:cy="125.45922"
     inkscape:window-x="0"
     inkscape:window-y="0"
     inkscape:window-maximized="1"
     inkscape:current-layer="svg10" />
  <path
     style="fill:#ffffff;fill-rule:evenodd;stroke-width:0.4547562"
     inkscape:connector-curvature="0"
     id="path4"
     d="m 206.94659,72.018137 v 2.455683 h 15.12065 v 9.731784 h -15.12065 v 17.235266 h 3.04688 V 86.684025 h 12.07377 v 19.645465 q 0,3.0014 -2.00093,4.41113 -2.00093,1.36427 -4.04733,1.36427 H 200.8756 q -2.00093,0 -3.91091,-1.29605 -0.97772,-0.72761 -1.59164,-2.09188 -0.54571,-1.27331 -0.54571,-2.38747 V 84.205604 h -3.02413 V 74.47382 h 3.02413 v -2.455683 h 12.11925 m 71.44221,0 q 2.18282,0 3.95638,1.296055 2.06914,1.500696 2.06914,3.63805 v 19.53178 h -15.07517 v 4.956848 h 2.93317 v -2.478432 h 12.142 v 7.367052 q 0,3.0014 -2.00093,4.41113 -1.95545,1.36427 -4.02459,1.36427 h -15.16612 q -2.06915,0 -4.07007,-1.36427 -1.97819,-1.43248 -1.97819,-4.41113 V 76.952242 q 0,-2.137354 2.06914,-3.63805 1.77355,-1.296055 3.97912,-1.296055 h 15.16612 m -6.11648,9.799996 h -2.93317 v 4.865892 h 2.93317 v -4.865892 m 43.4747,-9.799996 v 9.799996 h -15.0979 v 2.387471 h 15.0979 v 9.822734 h -15.0979 v 18.076552 h -12.142 V 76.952242 q 0,-2.160092 2.04641,-3.63805 1.79628,-1.296055 3.97912,-1.296055 h 21.21437 m 32.56055,2.455683 v 9.731784 h -15.0979 v 17.235266 h 3.02412 V 86.684025 h 12.07378 V 107.239 q 0,2.09189 -2.00092,3.50162 -1.95546,1.36427 -4.04734,1.36427 h -15.14338 q -1.95546,0 -3.9109,-1.29605 -0.97773,-0.72761 -1.59165,-2.09188 -0.54571,-1.27331 -0.54571,-2.38747 V 84.205604 h -3.02413 V 74.47382 h 3.02413 v -2.455683 h 12.142 v 2.455683 h 15.0979 M 175.56841,29.225575 v 19.622731 h 2.91044 V 29.225575 h -2.91044 m -10.11832,-8.503941 q 1.79628,-1.318793 3.97912,-1.318793 h 21.21438 v 46.521562 q 0,2.000928 -2.1601,3.569837 -1.93271,1.296054 -3.86543,1.296054 h -21.23711 v -9.731783 h 15.0979 V 58.58009 h -9.04964 q -2.06915,0 -4.04734,-1.409744 -2.00092,-1.364268 -2.00092,-3.456148 V 24.359684 q 0,-2.18283 2.06914,-3.63805 m 75.55775,23.16983 h -2.93318 v 4.956842 h 2.93318 v -4.956842 m -13.00603,-23.16983 q 1.77355,-1.318793 3.95637,-1.318793 h 15.18887 q 2.18282,0 3.97911,1.318793 2.06915,1.45522 2.06915,3.63805 V 58.58009 h -21.23713 q -2.06913,0 -4.02459,-1.409744 -1.97819,-1.341531 -1.97819,-3.456148 V 38.957359 q 0,-1.932714 2.11462,-3.478886 1.88724,-1.387006 3.88816,-1.387006 h 9.04966 v -4.865892 h -2.93318 v 2.38747 H 225.9554 v -7.253361 q 0,-2.18283 2.04641,-3.63805 m 50.40972,-1.318793 q 2.20557,0 3.95638,1.318793 2.06915,1.45522 2.06915,3.63805 V 58.58009 H 272.29507 V 29.225575 h -2.93319 V 58.58009 H 257.19716 V 19.402841 h 12.16472 v 2.478421 q 3.04687,-2.478421 9.04965,-2.478421 m 25.14803,9.822734 h -2.95591 v 19.622731 h 2.95591 V 29.225575 m -9.04966,-9.822734 h 9.04966 V 9.6028449 h 12.16472 V 58.58009 H 294.5099 q -2.06913,0 -4.04732,-1.409744 -1.97819,-1.341531 -1.97819,-3.456148 V 24.359684 q 0,-2.18283 2.0464,-3.63805 1.79629,-1.318793 3.97911,-1.318793" />
  <path
     style="fill:#ffffff;fill-rule:evenodd;stroke-width:0.4547562"
     inkscape:connector-curvature="0"
     id="path6"
     d="m 206.81016,34.091467 h 2.95592 v -4.865892 h -2.95592 v 4.865892 m 9.04965,-14.688626 q 2.22831,0 3.97913,1.318793 2.06914,1.45522 2.06914,3.63805 v 12.187467 q 0,1.13689 -0.95499,1.705335 -1.00047,0.704873 -2.0464,0.704873 1.0232,0.09095 2.0464,0.704872 0.95499,0.659396 0.95499,1.750812 v 19.645468 h 16.14385 v 10.959626 h 9.04964 l 1.54617,0.159165 q 1.29606,0.318329 2.43295,1.13689 2.06914,1.500696 2.06914,3.63805 V 112.10489 H 240.9851 V 81.818133 h -2.93317 v 30.286757 h -12.142 V 70.790294 h -10.05012 q -2.00092,0 -3.95637,-1.296054 -2.13736,-1.546172 -2.13736,-3.569837 V 43.891464 h -2.95592 V 58.58009 H 194.66818 V 19.402841 h 21.19163 m -1.61438,97.681629 h 12.14199 v 29.44547 h 2.93319 v -29.44547 h 12.14198 v 34.31136 q 0,2.09189 -1.95544,3.47889 -2.02367,1.387 -4.07008,1.387 h -15.16612 q -2.0464,0 -4.07007,-1.387 -1.95545,-1.387 -1.95545,-3.47889 v -34.31136 m 33.24268,2.47842 v -2.47842 h 12.142 v 2.47842 h 15.0979 v 9.73179 h -15.0979 v 17.23526 h 3.04686 V 131.7731 h 12.05104 v 19.62273 q 0,2.09189 -1.97819,3.47889 -2.02367,1.387 -4.07007,1.387 h -15.14337 q -1.95546,0 -3.91091,-1.31878 -2.13736,-1.52344 -2.13736,-3.54711 v -22.10115 h -3.00139 v -9.73179 h 3.00139 m -52.38791,22.0102 v 4.95685 h 2.97864 v -4.95685 h -2.97864 m 2.97864,-9.79999 v -4.86589 h -2.97864 v 2.38747 h -12.11926 v -7.2761 q 0,-2.13735 2.04641,-3.61531 1.79628,-1.3188 3.97911,-1.3188 h 15.16613 q 2.18282,0 3.95637,1.3188 2.09188,1.52343 2.09188,3.61531 v 34.24314 h -21.21438 q -2.02366,0 -4.04733,-1.387 -1.97819,-1.36427 -1.97819,-3.47889 V 136.639 q 0,-1.95546 2.11462,-3.47889 1.93271,-1.38701 3.9109,-1.38701 h 9.07238 m 95.77167,-4.86589 h -2.93318 v 19.62273 h 2.93318 v -19.62273 m 6.11647,-9.82274 q 2.20557,0 3.97912,1.3188 2.06914,1.50069 2.06914,3.61531 v 29.37725 q 0,2.09189 -2.00093,3.47889 -2.00092,1.387 -4.04733,1.387 h -15.18885 q -2.02367,0 -4.02459,-1.387 -1.9782,-1.36427 -1.9782,-3.47889 v -29.37725 q 0,-2.13735 2.0464,-3.61531 1.77355,-1.3188 3.95639,-1.3188 h 15.18885" />
  <path
     d="m 14.614218,198.91007 c 1.55648,0 3.07024,-0.36523 4.5413,-1.0957 1.47106,-0.73049 2.68112,-1.71141 3.63019,-2.94277 v 0 l -2.70485,-2.94277 c -0.70231,0.89744 -1.50902,1.58617 -2.42012,2.06621 -0.91111,0.48002 -1.88865,0.72003 -2.93263,0.72003 -0.93009,0 -1.789,-0.18261 -2.57672,-0.54786 -0.78773,-0.36525 -1.47106,-0.86092 -2.04999,-1.48703 -0.5789404,-0.62613 -1.0344904,-1.37225 -1.3666604,-2.23838 -0.33218,-0.86614 -0.49826,-1.8001 -0.49826,-2.8019 0,-1.02266 0.16134,-1.96706 0.48402,-2.83319 0.32268,-0.86614 0.76875,-1.61749 1.3381904,-2.25404 0.56944,-0.63655 1.24802,-1.13745 2.03575,-1.50269 0.78773,-0.36523 1.62766,-0.54784 2.51978,-0.54784 1.06296,0 2.06897,0.25565 3.01804,0.76699 0.94907,0.51133 1.77476,1.24703 2.47707,2.20707 v 0 l 2.79027,-3.03669 c -0.93009,-1.25222 -2.1449,-2.2488 -3.64443,-2.98971 -1.49953,-0.74092 -3.04651,-1.11136 -4.64095,-1.11136 -1.48055,0 -2.87093,0.29219 -4.17116,0.87657 -1.3002204,0.58436 -2.4248704,1.37746 -3.3739404,2.37924 -0.9490701,1.0018 -1.6988301,2.19665 -2.2492901,3.58455 -0.5504699,1.3879 -0.8256999,2.87492 -0.8256999,4.4611 0,1.58616 0.27049,3.06801 0.8114599,4.44547 0.54097,1.37746 1.28599,2.56708 2.2350601,3.56888 0.94907,1.00179 2.07371,1.79489 3.3739404,2.37926 1.30023,0.58437 2.7001,0.87656 4.19963,0.87656 z m 53.95461,0.0313 c 1.48055,0 2.86619,-0.29218 4.15692,-0.87656 1.29074,-0.58438 2.40589,-1.38268 3.34547,-2.39491 0.93958,-1.01223 1.6846,-2.2123 2.23506,-3.60019 0.55047,-1.3879 0.82568,-2.86452 0.82568,-4.42981 0,-1.56531 -0.27521,-3.0419 -0.82568,-4.42979 -0.55046,-1.38791 -1.29548,-2.58797 -2.23506,-3.6002 -0.93958,-1.01222 -2.05473,-1.81053 -3.34547,-2.39491 -1.29073,-0.58438 -2.67637,-0.87656 -4.15692,-0.87656 -1.46157,0 -2.83773,0.29218 -4.12846,0.87656 -1.29074,0.58438 -2.40589,1.38269 -3.34547,2.39491 -0.93958,1.01223 -1.68459,2.21229 -2.23505,3.6002 -0.55047,1.38789 -0.8257,2.86448 -0.8257,4.42979 0,1.56529 0.27523,3.04191 0.8257,4.42981 0.55046,1.38789 1.29547,2.58796 2.23505,3.60019 0.93958,1.01223 2.05473,1.81053 3.34547,2.39491 1.29073,0.58438 2.66689,0.87656 4.12846,0.87656 z m 0,-4.1637 c -0.89212,0 -1.72257,-0.18261 -2.4913,-0.54785 -0.76875,-0.36523 -1.4331,-0.86612 -1.99306,-1.50268 -0.55995,-0.63656 -1.00127,-1.39313 -1.32395,-2.26969 -0.32268,-0.8766 -0.48403,-1.81576 -0.48403,-2.81755 0,-1.02265 0.16135,-1.96706 0.48403,-2.83318 0.32268,-0.86615 0.764,-1.61749 1.32395,-2.25404 0.55996,-0.63656 1.22431,-1.13746 1.99306,-1.5027 0.76873,-0.36524 1.59918,-0.54785 2.4913,-0.54785 0.89212,0 1.7273,0.18261 2.50554,0.54785 0.77824,0.36524 1.44733,0.86614 2.00729,1.5027 0.55994,0.63655 1.00126,1.38789 1.32395,2.25404 0.32267,0.86612 0.48402,1.81053 0.48402,2.83318 0,1.00179 -0.16135,1.94095 -0.48402,2.81755 -0.32269,0.87656 -0.76401,1.63313 -1.32395,2.26969 -0.55996,0.63656 -1.22905,1.13745 -2.00729,1.50268 -0.77824,0.36524 -1.61342,0.54785 -2.50554,0.54785 z m 62.581642,3.81933 v -4.00716 h -10.9048 V 176.6828 h -4.12847 v 21.9142 z m 52.04696,0 v -4.00716 H 172.29261 V 176.6828 h -4.12843 v 21.9142 z m 52.44558,0 v -3.94453 h -11.30342 v -5.19681 h 7.37429 v -3.81932 h -7.37429 v -5.00896 h 11.18954 v -3.94456 h -15.31797 v 21.91422 z m 45.78312,0.31307 c 1.55649,0 3.07025,-0.36524 4.5413,-1.09571 1.47105,-0.73047 2.68112,-1.7114 3.6302,-2.94277 v 0 l -2.70485,-2.94275 c -0.7023,0.89743 -1.50902,1.58615 -2.42014,2.06619 -0.91111,0.48001 -1.88865,0.72003 -2.93263,0.72003 -0.93006,0 -1.78899,-0.18261 -2.5767,-0.54784 -0.78775,-0.36526 -1.47107,-0.86093 -2.04999,-1.48705 -0.57894,-0.62611 -1.03451,-1.37223 -1.36666,-2.23837 -0.33219,-0.86614 -0.49828,-1.80011 -0.49828,-2.8019 0,-1.02265 0.16134,-1.96706 0.48404,-2.83318 0.32268,-0.86615 0.76873,-1.61749 1.33818,-2.25404 0.56945,-0.63656 1.24802,-1.13746 2.03576,-1.5027 0.78771,-0.36524 1.62764,-0.54785 2.51977,-0.54785 1.06297,0 2.06897,0.25567 3.01803,0.76701 0.94908,0.51133 1.77478,1.247 2.47709,2.20705 v 0 l 2.79025,-3.03667 c -0.93007,-1.25225 -2.14489,-2.24882 -3.64443,-2.98973 -1.49951,-0.7409 -3.0465,-1.11135 -4.64094,-1.11135 -1.48055,0 -2.87093,0.29218 -4.17115,0.87656 -1.30023,0.58438 -2.42488,1.37746 -3.37395,2.37926 -0.94906,1.0018 -1.69883,2.19663 -2.24929,3.58453 -0.55047,1.38789 -0.8257,2.87493 -0.8257,4.46111 0,1.58616 0.27049,3.06799 0.81145,4.44545 0.54099,1.37748 1.286,2.56711 2.23507,3.5689 0.94906,1.00179 2.0737,1.79488 3.37393,2.37924 1.30024,0.58438 2.7001,0.87658 4.19964,0.87658 z M 336.0356,198.597 v -17.90704 h 6.69093 v -4.00716 h -17.53881 v 4.00716 h 6.71943 V 198.597 Z m 47.29214,0 v -21.9142 h -4.12845 v 21.9142 z m 47.54838,0.34437 c 1.48055,0 2.86619,-0.29218 4.15692,-0.87656 1.29074,-0.58438 2.4059,-1.38268 3.34547,-2.39491 0.93959,-1.01223 1.68459,-2.2123 2.23506,-3.60019 0.55046,-1.3879 0.82569,-2.86452 0.82569,-4.42981 0,-1.56531 -0.27523,-3.0419 -0.82569,-4.42979 -0.55047,-1.38791 -1.29547,-2.58797 -2.23506,-3.6002 -0.93957,-1.01222 -2.05473,-1.81053 -3.34547,-2.39491 -1.29073,-0.58438 -2.67637,-0.87656 -4.15692,-0.87656 -1.46157,0 -2.83771,0.29218 -4.12847,0.87656 -1.29071,0.58438 -2.4059,1.38269 -3.34545,2.39491 -0.93959,1.01223 -1.68461,2.21229 -2.23506,3.6002 -0.55047,1.38789 -0.8257,2.86448 -0.8257,4.42979 0,1.56529 0.27523,3.04191 0.8257,4.42981 0.55045,1.38789 1.29547,2.58796 2.23506,3.60019 0.93955,1.01223 2.05474,1.81053 3.34545,2.39491 1.29076,0.58438 2.6669,0.87656 4.12847,0.87656 z m 0,-4.1637 c -0.89211,0 -1.72258,-0.18261 -2.4913,-0.54785 -0.76875,-0.36523 -1.4331,-0.86612 -1.99306,-1.50268 -0.55995,-0.63656 -1.00125,-1.39313 -1.32396,-2.26969 -0.32266,-0.8766 -0.48401,-1.81576 -0.48401,-2.81755 0,-1.02265 0.16135,-1.96706 0.48401,-2.83318 0.32271,-0.86615 0.76401,-1.61749 1.32396,-2.25404 0.55996,-0.63656 1.22431,-1.13746 1.99306,-1.5027 0.76872,-0.36524 1.59919,-0.54785 2.4913,-0.54785 0.89211,0 1.72731,0.18261 2.50554,0.54785 0.77825,0.36524 1.44734,0.86614 2.00729,1.5027 0.55994,0.63655 1.00126,1.38789 1.32394,2.25404 0.32268,0.86612 0.48403,1.81053 0.48403,2.83318 0,1.00179 -0.16135,1.94095 -0.48403,2.81755 -0.32268,0.87656 -0.764,1.63313 -1.32394,2.26969 -0.55995,0.63656 -1.22904,1.13745 -2.00729,1.50268 -0.77823,0.36524 -1.61343,0.54785 -2.50554,0.54785 z m 51.44905,3.81933 v -14.65122 l 10.16454,14.65122 h 3.64443 v -21.9142 h -3.8722 v 14.18161 l -9.9083,-14.18163 h -3.92915 v 21.9142 z"
     id="COLLECTION"
     inkscape:connector-curvature="0"
     style="fill:#ffffff;fill-rule:nonzero;stroke:none;stroke-width:1.2758193" />
</svg>
