<?xml version="1.0" encoding="UTF-8" standalone="no"?>
<!-- Created with Inkscape (http://www.inkscape.org/) -->

<svg
   xmlns:dc="http://purl.org/dc/elements/1.1/"
   xmlns:cc="http://creativecommons.org/ns#"
   xmlns:rdf="http://www.w3.org/1999/02/22-rdf-syntax-ns#"
   xmlns:svg="http://www.w3.org/2000/svg"
   xmlns="http://www.w3.org/2000/svg"
   xmlns:sodipodi="http://sodipodi.sourceforge.net/DTD/sodipodi-0.dtd"
   xmlns:inkscape="http://www.inkscape.org/namespaces/inkscape"
   width="500"
   height="200"
   viewBox="0 0 132.29166 52.916668"
   version="1.1"
   id="svg8"
   inkscape:version="0.92.5 (2060ec1f9f, 2020-04-08)"
   sodipodi:docname="gx4000.svg">
  <defs
     id="defs2" />
  <sodipodi:namedview
     id="base"
     pagecolor="#ffffff"
     bordercolor="#666666"
     borderopacity="1.0"
     inkscape:pageopacity="0.0"
     inkscape:pageshadow="2"
     inkscape:zoom="2.9381346"
     inkscape:cx="58.579224"
     inkscape:cy="79.040991"
     inkscape:document-units="mm"
     inkscape:current-layer="layer1"
     showgrid="false"
     units="px"
     inkscape:pagecheckerboard="true"
     inkscape:window-width="1366"
     inkscape:window-height="739"
     inkscape:window-x="0"
     inkscape:window-y="0"
     inkscape:window-maximized="1"
     inkscape:snap-others="false"
     inkscape:object-nodes="false" />
  <metadata
     id="metadata5">
    <rdf:RDF>
      <cc:Work
         rdf:about="">
        <dc:format>image/svg+xml</dc:format>
        <dc:type
           rdf:resource="http://purl.org/dc/dcmitype/StillImage" />
        <dc:title></dc:title>
      </cc:Work>
    </rdf:RDF>
  </metadata>
  <g
     inkscape:label="Layer 1"
     inkscape:groupmode="layer"
     id="layer1"
     transform="translate(0,-244.08332)">
    <path
       style="opacity:0.98000004;fill:#ffffff;fill-opacity:1;stroke:none;stroke-width:0.54804552;stroke-linecap:round;stroke-linejoin:bevel;stroke-miterlimit:4;stroke-dasharray:none;stroke-opacity:1"
       d="m 0.61494955,255.84524 v 30.09392 H 16.51062 v -30.09392 z m 8.04757055,1.961 c 2.9115119,-10e-4 5.1110939,0.48386 5.8451209,1.28793 0.303227,0.3321 0.300334,0.63655 -0.0098,0.9763 -0.33627,0.36835 -0.981521,0.6317 -2.128552,0.86876 -2.6955401,0.55715 -6.6447918,0.41831 -8.6800906,-0.30532 -0.661252,-0.23511 -0.9569448,-0.42718 -1.1725382,-0.76122 -0.1535115,-0.23792 -0.1541727,-0.28415 -0.00672,-0.59805 0.4133122,-0.8799 2.8729619,-1.46738 6.1525958,-1.4684 z m 1.7647499,1.13002 c -0.761184,-0.007 -1.6553396,-0.005 -2.6990597,0.005 -3.1573594,0.0317 -4.0833876,0.0708 -4.3904297,0.18571 -0.4923478,0.18429 -0.665194,0.43479 -0.4506185,0.65262 0.3124645,0.31724 1.3527731,0.38936 5.7252319,0.39241 4.246534,0.004 5.248213,-0.0598 5.597591,-0.35412 0.200883,-0.16926 0.165363,-0.36904 -0.09612,-0.54297 -0.318486,-0.2118 -1.403044,-0.3171 -3.686597,-0.3389 z m -2.042769,3.23791 c 0.313862,-3.9e-4 0.6381065,0.004 0.9730674,0.0136 2.7575166,0.0806 4.4490646,0.49012 5.1371536,1.24386 0.329804,0.36128 0.31542,0.66816 -0.04858,1.03769 -0.325128,0.33008 -1.114118,0.63407 -2.297017,0.8845 -1.192425,0.25244 -4.9486342,0.3119 -6.3639526,0.10072 -3.3076823,-0.49354 -4.3812212,-1.63522 -2.3802162,-2.53073 1.106134,-0.49504 2.7825067,-0.74691 4.9795408,-0.74968 z m 0.9420614,1.10274 c -2.6170337,0.002 -5.6698874,0.0817 -5.9887818,0.20198 -0.4926539,0.18586 -0.6650228,0.43548 -0.4506185,0.65314 0.3082285,0.31296 1.3596943,0.38464 5.6756226,0.38769 4.1763983,0.003 5.3119373,-0.0668 5.6430663,-0.34572 v -5.2e-4 c 0.436192,-0.36752 -0.05521,-0.66733 -1.323433,-0.80738 -0.572154,-0.0632 -1.985635,-0.0902 -3.5558556,-0.0892 z m -0.7973674,3.23844 c 1.0118452,-0.009 2.012824,0.0233 2.628263,0.0997 1.593383,0.19776 3.086953,0.73416 3.430282,1.23179 0.23361,0.33859 0.192067,0.571 -0.167432,0.93486 -0.395683,0.40047 -1.15352,0.69802 -2.38435,0.93591 -0.744616,0.14379 -1.448505,0.17987 -3.5227827,0.17784 -2.2866652,-0.002 -2.7098956,-0.0277 -3.5858275,-0.22191 -1.1729109,-0.26008 -2.2313606,-0.76396 -2.4463623,-1.16411 -0.1332712,-0.24797 -0.133311,-0.30842 0.00258,-0.55505 0.3199051,-0.58056 1.5403095,-1.05092 3.352767,-1.29212 0.6586193,-0.0877 1.6810135,-0.13794 2.6928587,-0.14689 z m 1.00614,1.12215 c -2.6972214,0.002 -5.9635548,0.0715 -6.2761026,0.17469 -0.4186552,0.13817 -0.5828977,0.45853 -0.3539833,0.69092 0.2659197,0.26991 1.5750865,0.35156 5.7071449,0.35359 3.987841,0.002 5.288904,-0.0739 5.590357,-0.32788 0.418759,-0.35283 -0.04705,-0.67199 -1.188042,-0.81368 -0.447685,-0.0556 -1.861041,-0.0787 -3.479374,-0.0776 z m 1.221114,3.17443 c 0.09496,0 0.167305,0.12918 0.198955,0.35412 l 0.05013,0.35464 1.622123,0.0278 c 1.378965,0.0236 1.631444,0.005 1.681034,-0.12643 0.03209,-0.0849 0.121014,-0.15476 0.197404,-0.15476 0.107829,0 0.138493,0.19244 0.138493,0.86036 0,0.85467 -0.06075,0.99981 -0.29869,0.70876 -0.100794,-0.12331 -0.421855,-0.15162 -1.707389,-0.15162 H 11.05566 l -0.0015,0.73341 c -8.41e-4,0.40362 -0.03915,0.79357 -0.08475,0.86666 -0.06597,0.10561 -0.915321,-0.0449 -4.1558185,-0.7376 -2.2400218,-0.47882 -4.1312922,-0.9202 -4.2028442,-0.9805 -0.1775217,-0.14952 -0.1699036,-0.88528 0.00982,-0.95532 0.07694,-0.03 1.8589508,0.49214 3.959965,1.15992 2.1010152,0.66775 3.8555097,1.19217 3.8984697,1.16516 0.04296,-0.0269 0.07803,-0.31978 0.07803,-0.65052 V 272.6848 H 9.581844 c -0.7220267,0 -1.0322811,-0.0414 -1.1968263,-0.15843 -0.2776654,-0.19743 -0.5658514,-0.74707 -0.4521686,-0.86246 0.046746,-0.0475 0.6451173,-0.0992 1.3296344,-0.1149 l 1.2443685,-0.0283 0.05013,-0.35464 c 0.03165,-0.22494 0.104521,-0.35412 0.199471,-0.35412 z m 3.73569,4.39626 c 0.109885,-0.005 0.152445,0.26624 0.152445,0.86142 0,0.86933 -0.07897,1.08423 -0.299723,0.8142 -0.06776,-0.0829 -0.241419,-0.14732 -0.385506,-0.14427 -0.472999,0.0113 -3.935164,0.85669 -3.9723678,0.97001 -0.022194,0.0676 0.7815958,0.31825 2.0644738,0.64318 1.952675,0.49459 2.113322,0.52033 2.279964,0.36723 0.09861,-0.0906 0.209686,-0.16473 0.246496,-0.16473 0.03681,0 0.06666,0.25042 0.06666,0.55661 0,0.56788 -0.118403,0.70779 -0.339514,0.40081 -0.06863,-0.0953 -1.178466,-0.43526 -2.852539,-0.87348 l -2.7404015,-0.71715 -2.8411701,0.62954 c -2.2004099,0.48753 -2.8808143,0.67497 -3.0137695,0.83046 -0.2753684,0.32206 -0.3762044,0.12695 -0.3762044,-0.72554 0,-0.81641 0.081994,-1.0244 0.2997234,-0.75807 0.067766,0.0829 0.2187101,0.1484 0.33538,0.14637 0.4076165,-0.008 3.4902542,-0.76805 3.523299,-0.86876 0.028148,-0.0857 -3.2898582,-0.95669 -3.6230345,-0.9506 -0.061833,0.001 -0.1678776,0.0698 -0.2356445,0.15266 -0.1940575,0.23739 -0.2997234,0.0804 -0.2997234,-0.44382 0,-0.59365 0.072429,-0.67956 0.3498495,-0.41497 0.1505304,0.14356 0.9398204,0.38719 2.6313638,0.81105 1.3291867,0.33307 2.4922863,0.60432 2.5843383,0.60331 0.092049,-10e-4 1.509673,-0.31412 3.1501949,-0.69511 2.042193,-0.47427 3.0201,-0.74507 3.10162,-0.85827 0.08009,-0.11119 0.143839,-0.17 0.193787,-0.17208 z m -2.133203,5.59396 c 1.160878,0.004 1.975992,0.0298 2.01383,0.0682 0.05307,0.0539 -0.09684,0.16315 -0.367419,0.26808 -0.251426,0.0975 -0.457337,0.21026 -0.457337,0.25076 0,0.0406 0.201691,0.15241 0.448552,0.24814 0.246861,0.0957 0.516252,0.27123 0.598412,0.39031 0.201452,0.29199 0.188308,0.4991 -0.05219,0.80948 -0.395544,0.5105 -1.894322,1.03989 -3.619417,1.27849 -1.0049136,0.139 -3.6224265,0.13856 -4.6074705,-5.3e-4 -2.2423892,-0.31663 -3.9346435,-1.09924 -3.9346435,-1.81936 0,-0.10514 0.1436633,-0.35713 0.3193603,-0.56029 0.2925368,-0.33824 0.3049227,-0.37974 0.1493448,-0.49523 -0.093444,-0.0694 -0.1700154,-0.15533 -0.1700154,-0.19096 0,-0.0355 0.7048473,-0.065 1.5657959,-0.065 0.9677093,0 1.5287485,0.0363 1.4701946,0.0944 -0.052095,0.0518 -0.6225318,0.22903 -1.267623,0.39398 -1.3308163,0.34026 -1.6956907,0.53032 -1.6495117,0.85827 0.078439,0.55704 0.9195896,0.67734 5.2157024,0.74495 4.8861601,0.0769 6.3985261,-0.0919 6.3122761,-0.70455 -0.06509,-0.46231 -0.428369,-0.52427 -3.305741,-0.56081 l -2.676323,-0.0336 -0.2449462,0.23345 -0.2449462,0.23346 0.029972,-0.70561 0.029972,-0.70561 3.1837854,-0.0267 c 0.447911,-0.004 0.873429,-0.005 1.260389,-0.004 z"
       id="rect1343"
       inkscape:connector-curvature="0" />
    <path
       inkscape:connector-curvature="0"
       id="path1197"
       style="fill:#ffffff;fill-opacity:1;fill-rule:nonzero;stroke:none;stroke-width:0.01557669"
       d="m 123.12118,281.02612 v -20.11451 h 0.0227 c 1.46296,0 1.64209,1.00516 1.64209,2.4577 v 15.1993 c 0,1.45253 -0.17913,2.45751 -1.64209,2.45751 z m -6.65888,4.92546 h 11.27224 c 2.19149,0 3.71052,-1.49816 3.71052,-3.66034 v -22.64477 c 0,-2.16188 -1.51903,-3.6602 -3.71052,-3.6602 H 116.4623 v 29.96531" />
    <path
       inkscape:connector-curvature="0"
       id="path1199"
       style="fill:#ffffff;fill-opacity:1;fill-rule:nonzero;stroke:none;stroke-width:0.01557669"
       d="m 91.490998,260.91161 h 0.02295 c 1.462651,0 1.641629,1.00516 1.641629,2.4577 v 2.71376 c 0,1.45269 -0.20405,2.48013 -1.664525,2.48013 z m 4.613512,10.47346 c 2.191017,0 3.710056,-1.49833 3.710056,-3.66037 v -8.07823 c 0,-2.16188 -1.519039,-3.6602 -3.710056,-3.6602 H 84.831818 v 15.3988 14.56651 h 6.65918 V 274.23 h 0.02295 c 1.462651,0 1.641629,1.00501 1.641629,2.45769 v 9.26389 h 6.659036 v -10.90615 c 0,-2.16204 -1.51905,-3.66036 -3.710055,-3.66036" />
    <path
       inkscape:connector-curvature="0"
       id="path1201"
       style="fill:#ffffff;fill-opacity:1;fill-rule:nonzero;stroke:none;stroke-width:0.01557669"
       d="m 66.970794,285.95158 c 2.19149,0 3.710376,-1.49816 3.710376,-3.66034 v -9.7616 c -0.02479,-2.9404 -8.323718,-6.24283 -8.323718,-6.24283 v -4.99403 c 0,-0.45998 0.372597,-0.83258 0.832421,-0.83258 0.459983,0 0.832421,0.3726 0.832421,0.83258 l 0.0066,4.99403 h 6.652492 v -6.74438 c 0,-2.16206 -1.518885,-3.66037 -3.710376,-3.66037 h -7.561854 c -2.191333,0 -3.710364,1.49831 -3.710364,3.66037 v 8.09708 c 0.0269,2.93853 8.323718,6.24281 8.323718,6.24281 v 6.65935 c 0,0.45952 -0.372438,0.83212 -0.832421,0.83212 -0.459824,0 -0.83242,-0.3726 -0.83242,-0.83212 l -0.0066,-6.65935 h -6.652796 v 8.40892 c 0,2.16218 1.51903,3.66034 3.710363,3.66034 h 7.561854" />
    <path
       inkscape:connector-curvature="0"
       id="path1203"
       style="fill:#ffffff;fill-opacity:1;fill-rule:nonzero;stroke:none;stroke-width:0.01557669"
       d="m 24.985769,275.54686 0.955125,-10.82068 0.955283,10.82068 z m -2.790596,-19.56059 -3.953793,29.96531 h 5.826666 l 0.514068,-5.82641 h 2.717468 l 0.51416,5.82641 h 5.826837 l -3.953832,-29.96531 h -0.20827 -7.075192 -0.208112" />
    <path
       inkscape:connector-curvature="0"
       id="path1205"
       style="fill:#ffffff;fill-opacity:1;fill-rule:nonzero;stroke:none;stroke-width:0.01557669"
       d="m 106.97501,275.54686 0.95533,-10.82068 0.95516,10.82068 z m -2.7904,-19.56059 -3.95383,29.96531 h 5.82677 l 0.51403,-5.82641 h 2.71735 l 0.51418,5.82641 h 5.82693 l -3.95445,-29.96531 h -0.20764 -7.07508 -0.20826" />
    <path
       inkscape:connector-curvature="0"
       id="path1207"
       style="fill:#ffffff;fill-opacity:1;fill-rule:nonzero;stroke:none;stroke-width:0.01557669"
       d="m 74.427049,260.98047 v 24.97111 H 81.0864 v -24.97111 h 2.912997 v -4.9942 H 71.097525 v 4.9942 h 3.329524" />
    <path
       inkscape:connector-curvature="0"
       id="path1209"
       style="fill:#ffffff;fill-opacity:1;fill-rule:nonzero;stroke:none;stroke-width:0.01557669"
       d="m 48.623173,270.96901 v 14.98257 h 5.82693 v -29.96531 h -8.323875 l -1.664841,11.9861 -1.664828,-11.9861 h -8.323717 v 29.96531 h 5.826613 v -14.98257 l 2.080894,14.98257 h 4.161931 l 2.080893,-14.98257" />
  </g>
</svg>
