<?xml version="1.0" encoding="UTF-8" standalone="no"?>
<svg
   xmlns:dc="http://purl.org/dc/elements/1.1/"
   xmlns:cc="http://creativecommons.org/ns#"
   xmlns:rdf="http://www.w3.org/1999/02/22-rdf-syntax-ns#"
   xmlns:svg="http://www.w3.org/2000/svg"
   xmlns="http://www.w3.org/2000/svg"
   xmlns:sodipodi="http://sodipodi.sourceforge.net/DTD/sodipodi-0.dtd"
   xmlns:inkscape="http://www.inkscape.org/namespaces/inkscape"
   width="500"
   height="200"
   viewBox="0 0 38.5512 15.42048"
   version="1.1"
   id="svg18"
   sodipodi:docname="lego-W.svg"
   inkscape:version="0.92.5 (2060ec1f9f, 2020-04-08)">
  <metadata
     id="metadata24">
    <rdf:RDF>
      <cc:Work
         rdf:about="">
        <dc:format>image/svg+xml</dc:format>
        <dc:type
           rdf:resource="http://purl.org/dc/dcmitype/StillImage" />
        <dc:title />
      </cc:Work>
    </rdf:RDF>
  </metadata>
  <defs
     id="defs22" />
  <sodipodi:namedview
     pagecolor="#ffffff"
     bordercolor="#666666"
     borderopacity="1"
     objecttolerance="10"
     gridtolerance="10"
     guidetolerance="10"
     inkscape:pageopacity="0"
     inkscape:pageshadow="2"
     inkscape:window-width="1366"
     inkscape:window-height="743"
     id="namedview20"
     showgrid="false"
     inkscape:pagecheckerboard="true"
     inkscape:zoom="0.86513358"
     inkscape:cx="364.03289"
     inkscape:cy="48.838441"
     inkscape:window-x="0"
     inkscape:window-y="0"
     inkscape:window-maximized="1"
     inkscape:current-layer="svg18" />
  <path
     style="clip-rule:evenodd;fill:#ffffff;fill-rule:evenodd;stroke-width:0.35927045"
     inkscape:connector-curvature="0"
     id="path14"
     d="m 31.431983,1.3743795 v -0.202981 h 0.128127 c 0.127403,0 0.170464,0.040661 0.170464,0.080988 0,0.080976 -0.0431,0.1219942 -0.128126,0.1219942 z M 31.90105,1.7400249 31.81561,1.6180305 c -0.04233,-0.1219943 -0.08467,-0.1626662 -0.128123,-0.1626662 0.128128,0 0.17121,-0.080989 0.17121,-0.2029809 0,-0.080989 -0.0431,-0.1623138 -0.213551,-0.1623138 h -0.34094 v 0.6499589 h 0.128125 V 1.4553646 h 0.04234 c 0.04234,0 0.08544,0.040661 0.128128,0.040661 0,0.040661 0.04234,0.080989 0.08468,0.1219944 l 0.0431,0.1219942 z M 31.56011,0.88708536 c 0.2986,0 0.554487,0.24364634 0.554487,0.52795994 0,0.2843135 -0.255887,0.5279612 -0.554487,0.5279612 -0.298966,0 -0.512146,-0.2436477 -0.512146,-0.5279612 0,-0.2843136 0.212809,-0.52795994 0.512146,-0.52795994 z m 0,-0.1216492 c -0.341677,0 -0.639906,0.28431374 -0.639906,0.64995924 0,0.3652962 0.2986,0.6499601 0.639906,0.6499601 A 0.67414727,0.64189624 0 0 0 32.242726,1.4153955 0.67451545,0.64224683 0 0 0 31.56011,0.76543616 Z M 27.891144,1.4557109 c -1.449914,0 -2.431495,0.5279612 -3.113743,1.2999192 C 24.649274,2.5522992 24.564593,2.4306506 24.436463,2.3090018 23.881975,1.6997089 22.986179,1.4157457 21.791418,1.4157457 c -1.19476,0 -2.13253,0.3652964 -2.815146,0.8932561 -0.384016,-0.5279597 -1.194391,-0.8932561 -2.217944,-0.8932561 -1.322525,0 -2.772438,0.162314 -3.625891,1.5025495 -0.0427,-0.4872943 -0.08507,-0.7309418 -0.341306,-1.0152541 -0.341311,-0.3249808 -0.895795,-0.4466282 -1.450283,-0.4466282 -0.938507,0 -1.70617,0.4063113 -2.2179505,1.2592521 -0.7676649,1.1372541 -2.6019638,4.9956425 -2.559255,6.8231715 0,1.2185855 0.8530873,2.0715265 2.3460753,2.1118415 1.1943952,0.04066 2.1325312,-0.284313 2.7300952,-0.85294 0.51178,0.568627 1.322155,0.893606 2.303369,0.893606 1.066264,0 2.132526,-0.324979 2.772435,-0.974939 0.554487,0.609293 1.40757,0.974939 2.474205,0.974939 1.449914,0 2.687385,-0.649959 3.497759,-1.624547 0.426359,1.137253 1.577673,1.624547 2.815146,1.624547 2.729724,0 3.924118,-1.7872138 4.904963,-4.58968 0.255889,-0.6499588 0.554489,-1.7058799 0.596828,-2.5991364 0.08578,-1.4629342 -0.596459,-3.0468167 -3.113374,-3.0468167 z M 9.8055144,8.5225299 C 11.213087,8.3195491 11.554395,8.766528 11.511687,9.2538225 11.383561,10.594056 10.104113,10.878369 8.9524282,10.837703 8.142054,10.837703 7.4167298,10.472408 7.4167298,9.5788014 7.374021,7.9945699 9.037847,4.3395124 9.8482239,3.1615923 10.231872,2.5929652 10.6586,2.3086516 11.383558,2.3086516 c 0.682614,0 0.853083,0.3249796 0.810376,0.6906263 3.66e-4,1.0559211 -1.791221,4.2643504 -2.3884196,5.523252 z M 14.369539,7.3042942 c -0.08504,0.2439981 -0.255888,0.7312923 -0.383649,1.2592522 0.469069,-0.080989 0.810377,-0.162314 1.407572,-0.162314 0.639907,0 1.108975,0.2843137 1.108975,0.8122748 0,1.2999168 -1.5357,1.6652148 -2.559255,1.6652148 -1.151684,0 -2.132529,-0.608944 -2.132529,-1.787214 0,-1.4215665 0.767664,-3.5334088 1.535698,-4.9143107 0.895796,-1.7461955 1.833931,-1.9898431 3.455052,-1.9898431 0.682615,0 1.535702,0.3249806 1.535702,0.9339235 0,0.8936053 -0.810745,1.2185859 -1.57841,1.2592518 -0.341307,0.040661 -0.853088,0.040661 -1.151686,0.040661 0,0 -0.255886,0.3652963 -0.512145,1.0152552 1.407573,-0.1623139 2.047479,0.1219942 1.791589,0.9342726 -0.341307,1.0552204 -1.322521,1.1365521 -2.516914,0.9335717 z m 7.081309,-3.3304284 c -0.384018,0 -0.639906,0.2436478 -0.811112,0.4872942 -0.42636,0.5686271 -1.321786,2.8024683 -1.449914,3.696075 -0.128127,0.6499587 0.170464,0.7716075 0.469066,0.7716075 0.511778,0 1.066266,-0.5279612 1.279812,-1.3402346 0,0 -0.981579,-0.040661 -0.725691,-0.8122736 0.255889,-0.8122749 0.768034,-0.9745894 1.578409,-1.0152551 1.578412,-0.040661 1.40794,1.0559211 1.279444,1.6652139 -0.426359,1.9088612 -1.833562,3.4524279 -3.881408,3.4524279 -1.407573,0 -2.261028,-0.730943 -2.261028,-2.0711768 0,-0.974588 0.512148,-2.4774877 0.895796,-3.3710941 0.853084,-1.8681947 1.74888,-3.2084295 4.009538,-3.2084295 1.365598,0 2.431494,0.4872942 2.261026,1.7058801 -0.128127,0.8936067 -0.596829,1.3809007 -1.407205,1.4618836 -0.25589,0 -1.236733,0 -0.896163,-0.8932566 0.08578,-0.2850141 0.170464,-0.5286619 -0.34057,-0.5286619 z m 8.573193,1.5838812 c -0.255888,1.1372544 -0.810376,2.4774889 -1.364863,3.4524272 -0.980847,1.6652148 -2.132897,1.8681948 -3.113743,1.8681948 -1.023923,0 -2.175237,-0.365296 -2.175237,-1.8681948 0,-1.055921 0.468698,-2.5588208 0.895426,-3.5334086 0.725692,-1.7872134 1.450281,-3.2490954 3.753648,-3.2084294 2.687017,-3.504e-4 2.218316,2.3148229 2.004769,3.2894108 z m -1.91935,-1.1372528 c -0.04234,0.6902745 -1.108973,3.4520771 -1.45028,4.020703 -0.170465,0.2843133 -0.384019,0.4872951 -0.682617,0.4872951 -0.298598,0 -0.426359,-0.2029808 -0.426359,-0.4063126 -0.04234,-0.6089427 1.151316,-3.6957234 1.578411,-4.2236845 0.170465,-0.2436478 0.383281,-0.2843135 0.596828,-0.2843135 0.341676,3.503e-4 0.384017,0.2439979 0.384017,0.4063125 z" />
  <path
     d="m 0.92257696,15.293411 c 0.12008754,0 0.23687964,-0.02648 0.35037634,-0.07945 0.1134955,-0.05297 0.2068567,-0.124098 0.2800801,-0.213388 v 0 L 1.344346,14.787183 c -0.054185,0.06507 -0.1164263,0.115018 -0.1867201,0.149826 -0.070295,0.03481 -0.1457149,0.05221 -0.22626057,0.05221 -0.0717598,0 -0.13802772,-0.01324 -0.1988026,-0.03973 -0.060776,-0.02648 -0.11349674,-0.06243 -0.15816316,-0.107829 -0.0446677,-0.0454 -0.079814,-0.09951 -0.10544255,-0.162311 -0.0256286,-0.06281 -0.0384429,-0.13053 -0.0384429,-0.203173 0,-0.07416 0.0124425,-0.142637 0.0373452,-0.205442 0.0248956,-0.06281 0.0593102,-0.117287 0.1032449,-0.163446 0.0439335,-0.04616 0.0962895,-0.08248 0.15706437,-0.108965 0.060776,-0.02648 0.12557923,-0.03973 0.19440838,-0.03973 0.0820117,0 0.15962803,0.01854 0.23285243,0.05562 0.073225,0.03708 0.1369277,0.09043 0.1911131,0.160042 v 0 l 0.2152781,-0.220199 c -0.071759,-0.0908 -0.1654857,-0.163067 -0.2811789,-0.216792 -0.1156934,-0.05373 -0.2350479,-0.08059 -0.35806477,-0.08059 -0.11422851,0 -0.22150046,0.02119 -0.32181709,0.06356 -0.10031662,0.04238 -0.18708596,0.09988 -0.26031042,0.172527 -0.0732233,0.07264 -0.13106992,0.159283 -0.17353985,0.259923 -0.04247,0.100641 -0.0637044,0.20847 -0.0637044,0.323487 0,0.115017 0.0208685,0.222469 0.0626055,0.322352 0.0417382,0.09988 0.0992178,0.186147 0.17244106,0.25879 0.0732245,0.07264 0.1599938,0.13015 0.26031158,0.172525 0.10031662,0.04237 0.20832151,0.06356 0.32401358,0.06356 z m 4.16276684,0.0023 c 0.1142297,0 0.221137,-0.02119 0.3207207,-0.06356 0.099585,-0.04237 0.1856224,-0.100262 0.2581138,-0.173661 0.072492,-0.0734 0.1299712,-0.16042 0.1724412,-0.26106 0.04247,-0.100641 0.063704,-0.207713 0.063704,-0.321216 0,-0.113505 -0.021234,-0.220578 -0.063704,-0.321217 -0.04247,-0.100637 -0.09995,-0.187656 -0.1724412,-0.261055 -0.072491,-0.0734 -0.1585291,-0.131287 -0.2581138,-0.173661 -0.099584,-0.04238 -0.206491,-0.06356 -0.3207207,-0.06356 -0.1127649,0 -0.2189369,0.02119 -0.318523,0.06356 -0.099585,0.04237 -0.1856211,0.100262 -0.2581127,0.173661 -0.072491,0.0734 -0.1299723,0.160418 -0.172441,0.261059 -0.042471,0.100639 -0.063706,0.207712 -0.063706,0.321217 0,0.113503 0.021234,0.220575 0.063706,0.321216 0.042469,0.100641 0.09995,0.18766 0.172441,0.26106 0.072492,0.0734 0.1585279,0.131286 0.2581127,0.173661 0.099586,0.04238 0.2057581,0.06356 0.318523,0.06356 z m 0,-0.301921 c -0.06883,0 -0.1329005,-0.01324 -0.1922107,-0.03973 -0.059311,-0.02648 -0.1105684,-0.0628 -0.1537714,-0.108957 -0.043201,-0.04616 -0.077249,-0.10102 -0.102146,-0.164582 -0.024897,-0.06356 -0.037345,-0.131665 -0.037345,-0.204307 0,-0.07416 0.012444,-0.142637 0.037345,-0.205442 0.024897,-0.06281 0.058946,-0.117288 0.102146,-0.163447 0.043203,-0.04616 0.09446,-0.08248 0.1537714,-0.108963 0.05931,-0.02649 0.1233804,-0.03973 0.1922107,-0.03973 0.068831,0 0.1332689,0.01324 0.1933119,0.03973 0.060043,0.02648 0.111665,0.0628 0.1548679,0.108963 0.043201,0.04616 0.077252,0.10064 0.1021461,0.163447 0.024897,0.0628 0.037345,0.131286 0.037345,0.205442 0,0.07264 -0.012444,0.140744 -0.037345,0.204307 -0.024895,0.06356 -0.058946,0.118422 -0.1021461,0.164582 -0.043203,0.04616 -0.094825,0.08248 -0.1548679,0.108962 -0.060043,0.02649 -0.1244804,0.03973 -0.1933119,0.03973 z m 4.8283715,0.276955 V 14.980144 H 9.0723755 V 13.681653 H 8.7538516 v 1.589056 z m 4.0155867,0 v -0.290601 h -0.84134 v -1.298491 h -0.318523 v 1.589056 z m 4.046341,0 V 14.984713 H 17.103549 V 14.60788 h 0.568949 v -0.27695 h -0.568949 v -0.363213 h 0.863308 v -0.28603 h -1.18183 v 1.589056 z m 3.532311,0.0227 c 0.120088,0 0.236879,-0.02649 0.350376,-0.07945 0.113496,-0.05297 0.206857,-0.124099 0.280081,-0.213388 v 0 l -0.208689,-0.213389 c -0.05419,0.06508 -0.116425,0.115018 -0.186719,0.149826 -0.07029,0.03481 -0.145715,0.05221 -0.226261,0.05221 -0.07176,0 -0.138028,-0.01324 -0.198803,-0.03973 -0.06077,-0.02649 -0.113496,-0.06243 -0.158163,-0.10783 -0.04467,-0.0454 -0.07981,-0.09951 -0.105443,-0.16231 -0.02563,-0.06281 -0.03844,-0.13053 -0.03844,-0.203172 0,-0.07416 0.01244,-0.142637 0.03735,-0.205442 0.0249,-0.06281 0.05931,-0.117288 0.103246,-0.163447 0.04393,-0.04616 0.09629,-0.08248 0.157064,-0.108963 0.06078,-0.02649 0.12558,-0.03973 0.194409,-0.03973 0.08201,0 0.159629,0.01854 0.232852,0.05562 0.07322,0.03708 0.136927,0.09042 0.191112,0.160041 v 0 l 0.21528,-0.220198 c -0.07177,-0.0908 -0.165494,-0.163068 -0.281186,-0.216793 -0.115695,-0.05373 -0.235049,-0.08059 -0.358066,-0.08059 -0.114229,0 -0.221501,0.02119 -0.321817,0.06356 -0.100317,0.04237 -0.187086,0.09988 -0.260311,0.172526 -0.07322,0.07264 -0.13107,0.159283 -0.17354,0.259923 -0.04247,0.10064 -0.0637,0.20847 -0.0637,0.323488 0,0.115018 0.02087,0.222467 0.06261,0.322351 0.04174,0.09988 0.09922,0.186146 0.172442,0.25879 0.07322,0.07264 0.159994,0.13015 0.26031,0.172525 0.100317,0.04237 0.20832,0.06356 0.324014,0.06356 z m 4.213292,-0.0227 v -1.298493 h 0.516226 v -0.29057 h -1.353173 v 0.29057 h 0.518422 v 1.298487 z m 3.648736,0 V 13.681653 H 29.05146 v 1.589056 z m 3.668506,0.02497 c 0.114231,0 0.221137,-0.02119 0.320722,-0.06356 0.09958,-0.04237 0.18562,-0.100262 0.258112,-0.173661 0.07249,-0.0734 0.129972,-0.160419 0.172443,-0.26106 0.04247,-0.100641 0.0637,-0.207713 0.0637,-0.321216 0,-0.113505 -0.02123,-0.220578 -0.0637,-0.321217 -0.04247,-0.100641 -0.09995,-0.18766 -0.172443,-0.261059 -0.07249,-0.0734 -0.158529,-0.131287 -0.258112,-0.173661 -0.09958,-0.04238 -0.206491,-0.06356 -0.320722,-0.06356 -0.112764,0 -0.218939,0.02119 -0.318521,0.06356 -0.09959,0.04237 -0.185622,0.100262 -0.258114,0.173661 -0.07249,0.0734 -0.129972,0.160418 -0.172442,0.261059 -0.04247,0.100639 -0.06371,0.207712 -0.06371,0.321217 0,0.113503 0.02123,0.220575 0.06371,0.321216 0.04247,0.100641 0.09995,0.18766 0.172442,0.26106 0.07249,0.0734 0.158529,0.131286 0.258114,0.173661 0.09958,0.04238 0.205757,0.06356 0.318521,0.06356 z m 0,-0.301921 c -0.06883,0 -0.132901,-0.01324 -0.192211,-0.03973 -0.05931,-0.02648 -0.110568,-0.06281 -0.15377,-0.108962 -0.0432,-0.04616 -0.07725,-0.101019 -0.102147,-0.164582 -0.0249,-0.06356 -0.03735,-0.131665 -0.03735,-0.204307 0,-0.07416 0.01244,-0.142637 0.03735,-0.205442 0.0249,-0.06281 0.05895,-0.117287 0.102147,-0.163446 0.0432,-0.04616 0.09446,-0.08248 0.15377,-0.108964 0.05931,-0.02649 0.123382,-0.03973 0.192211,-0.03973 0.06883,0 0.133269,0.01324 0.193311,0.03973 0.06005,0.02648 0.111665,0.0628 0.154868,0.108964 0.0432,0.04616 0.07725,0.100639 0.102147,0.163446 0.0249,0.06281 0.03734,0.131286 0.03734,0.205442 0,0.07264 -0.01244,0.140745 -0.03734,0.204307 -0.0249,0.06356 -0.05895,0.118422 -0.102147,0.164582 -0.0432,0.04616 -0.09482,0.08248 -0.154868,0.108962 -0.06004,0.02648 -0.12448,0.03973 -0.193311,0.03973 z m 3.969457,0.276951 v -1.062399 l 0.784226,1.062399 h 0.28118 v -1.589062 h -0.298754 v 1.028347 l -0.764455,-1.028347 h -0.303146 v 1.589056 z"
     id="COLLECTION"
     inkscape:connector-curvature="0"
     style="fill:#ffffff;fill-rule:nonzero;stroke:none;stroke-width:0.13658325" />
</svg>
