<?xml version="1.0" encoding="UTF-8" standalone="no"?>
<!-- Generator: Adobe Illustrator 22.1.0, SVG Export Plug-In . SVG Version: 6.00 Build 0)  -->

<svg
   xmlns:dc="http://purl.org/dc/elements/1.1/"
   xmlns:cc="http://creativecommons.org/ns#"
   xmlns:rdf="http://www.w3.org/1999/02/22-rdf-syntax-ns#"
   xmlns:svg="http://www.w3.org/2000/svg"
   xmlns="http://www.w3.org/2000/svg"
   xmlns:sodipodi="http://sodipodi.sourceforge.net/DTD/sodipodi-0.dtd"
   xmlns:inkscape="http://www.inkscape.org/namespaces/inkscape"
   version="1.1"
   id="Layer_1"
   width="500"
   height="200"
   enable-background="new 0 0 10883.2 5095.7"
   xml:space="preserve"
   sodipodi:docname="mario.svg"
   inkscape:version="0.92.5 (2060ec1f9f, 2020-04-08)"><metadata
   id="metadata43"><rdf:RDF><cc:Work
       rdf:about=""><dc:format>image/svg+xml</dc:format><dc:type
         rdf:resource="http://purl.org/dc/dcmitype/StillImage" /><dc:title /></cc:Work></rdf:RDF></metadata><defs
   id="defs41">
	
	

		
		
	</defs><sodipodi:namedview
   pagecolor="#ffffff"
   bordercolor="#666666"
   borderopacity="1"
   objecttolerance="10"
   gridtolerance="10"
   guidetolerance="10"
   inkscape:pageopacity="0"
   inkscape:pageshadow="2"
   inkscape:window-width="1366"
   inkscape:window-height="743"
   id="namedview39"
   showgrid="false"
   inkscape:pagecheckerboard="true"
   inkscape:zoom="1.6284991"
   inkscape:cx="399.33266"
   inkscape:cy="42.773483"
   inkscape:window-x="0"
   inkscape:window-y="0"
   inkscape:window-maximized="1"
   inkscape:current-layer="Layer_1" />
<g
   id="g26"
   transform="matrix(0.03144331,0,0,0.03144331,90.694144,6.9949223)"
   style="fill:#ffffff">
			<path
   d="m 9153.2,1803.2 -460.8,-392.6 272.9,-170 c 14.5,-9 24.5,-23.8 27.1,-40.6 l 97.2,-586 c 2.5,-15.9 -4.9,-31.8 -18.8,-40 L 8509.1,243.2 c -15,-8.8 -32.5,-12.1 -49.5,-9.5 l -835.1,127.9 c -5.2,0.8 -9.6,3.4 -13.4,6.5 l 104,18.1 c 18.3,3.1 30.4,20.4 27.5,38.7 l -86,512.4 112.2,1092.9 c 1.6,14.8 14.5,25.6 29.3,24.3 l 406.8,-35.7 c 15,-1.3 26.3,-14 25.9,-29.1 l -16.2,-526.6 19.7,-3.9 372.3,573 c 8.5,13 24.9,18.1 39.3,12 l 503.2,-213 c 11.2,-5 13.6,-20 4.1,-28 z m -628.9,-648.9 -318.3,51.1 -16.4,-555.2 390,137.8 z"
   id="path4"
   inkscape:connector-curvature="0"
   style="fill:#ffffff" />
			<path
   d="m 7464.7,1559.6 -604.1,89.3 -43.2,-296.8 487.7,73.7 c 10.6,1.7 20.3,-5.8 21.8,-16.3 l 42.4,-324.3 c 1.4,-10.3 -6.6,-19.5 -16.9,-19.6 l -501.9,-7.5 76.2,-279 557,168.5 c 9.9,2.9 20.2,-3.4 21.9,-13.6 l 67.2,-401.1 c 1.7,-10.7 -5.4,-20.7 -15.9,-22.6 L 6490.3,324.5 c -10.9,-1.8 -21.5,4.8 -24.6,15.5 l -39.9,140.6 64.8,35 c 17.7,9.5 27.6,29.2 24.8,49.1 l -103.5,702.5 c -3.2,21.4 -13.4,41.3 -29,56.2 l -163.1,156 77.9,481.7 c 1.7,11.1 11.2,19.4 22.6,19.8 l 1215.4,43.1 c 10.1,0.3 18,-8.7 16.6,-18.6 L 7487,1576 c -1.6,-10.7 -11.7,-18.1 -22.3,-16.4 z"
   id="path6"
   inkscape:connector-curvature="0"
   style="fill:#ffffff" />
			<path
   d="M 6333.5,600.7 5767,295.1 c -15.3,-8.1 -33,-11 -50,-7.8 l -829.4,152.8 c -14.8,2.8 -24.9,16.6 -23,31.5 l 12.1,101.3 105.7,14.1 c 18.1,2.4 30.6,19.3 27.6,37.4 l -73.8,438.8 115.5,954.3 c 1.7,14.8 15,25.5 29.8,24 l 416.4,-41.9 c 14.8,-1.5 25.9,-14.5 24.9,-29.4 l -24,-391.1 398.1,-21.9 c 17.2,-0.9 33.6,-8 46.1,-20 l 304.1,-290.9 c 12.6,-12 20.7,-27.9 23.3,-45 L 6352.9,640 c 2.6,-15.9 -5.3,-31.7 -19.4,-39.3 z m -540.2,565.5 -316.3,55.4 -32.8,-531.6 403.2,139.1 z"
   id="path8"
   inkscape:connector-curvature="0"
   style="fill:#ffffff" />
			<path
   d="m 4815.9,715.6 -612.8,-81.3 c -13.7,-1.9 -25.9,9.2 -25.2,23.3 l 36.9,818.3 L 3731,1507.2 3902.1,451 c 2.4,-14.4 -7.9,-27.5 -22.4,-28.9 l -612.4,-57.3 c -14.7,-1.4 -27.4,9.5 -28.4,24.2 l -1.7,28 68.1,52.1 c 17,13.1 28.1,32.5 30.6,53.6 l 3.8,30.6 c 2.7,21.2 -3.3,42.7 -16.6,59.5 l -106.8,135.5 -28.2,450.4 39.8,26.2 c 18,11.8 30.9,30 36.1,50.9 l 6.2,24.4 c 5.4,21 3.5,43.3 -5.2,63.1 l -101.4,229.8 -1.4,20.8 c -1.1,16.9 5.7,33.4 18.3,44.6 l 351.8,316.2 c 12.8,11.5 29.3,18.1 46.5,18.6 L 4350,2013 c 17,0.4 33.3,-6.8 44.5,-19.4 l 271.3,-309.5 c 11.5,-13.1 19.2,-29.3 22.1,-46.5 L 4838,745.5 c 2.5,-14.4 -7.4,-28 -22.1,-29.9 z"
   id="path10"
   inkscape:connector-curvature="0"
   style="fill:#ffffff" />
			<path
   d="m 2415,553.1 474.5,325.4 c 12.3,8.5 29.3,5.9 38.5,-5.8 l 231.2,-293.3 c 9.2,-11.6 6.9,-28.4 -4.7,-37.3 L 2666.2,168 c -13.6,-10.5 -30.9,-15.5 -48,-13.8 l -663.1,63.2 c -16.9,1.7 -32,10.9 -41.5,24.8 l -353.3,527.1 c -8,12.1 -4.4,28.6 8,36.2 l 862.4,525.2 -176.4,239.8 -459.5,-386.9 c -11,-9.4 -27.8,-7.4 -36.4,4.1 l -268.6,357.9 c -9,12.1 -7.1,29 4.3,38.8 l 472.8,402.1 c 13.1,11.2 30,17.2 47.2,16.9 l 784.5,-13.8 c 16.2,-0.3 30.9,-10 37.5,-24.9 l 269.3,-609.8 c 6.3,-14.2 1.4,-30.7 -11.5,-39.3 L 2277.7,778.3 Z"
   id="path12"
   inkscape:connector-curvature="0"
   style="fill:#ffffff" />
			<path
   d="m 10254.9,3264.4 -533,-753.2 c -11.5,-16.2 -29.3,-26.8 -49.1,-29.2 L 8634.1,2355.6 c -19.2,-2.4 -38.3,5.5 -50.3,20.7 l -458.2,579.2 -128.7,728.3 216.9,625.4 c 6.3,18.5 21.1,33 39.8,39 l 867.9,283 c 18.9,6.2 39.7,5 57.9,-3.2 l 825.8,-376.6 c 17.8,-8.2 31.1,-24.1 36,-43.1 l 224.3,-888.2 c 4.7,-19.2 0.9,-39.7 -10.6,-55.7 z m -1219.5,624.3 -348.5,-368.8 250.7,-430.6 464.7,124.7 57.6,463.8 z"
   id="path14"
   inkscape:connector-curvature="0"
   style="fill:#ffffff" />
			<path
   d="m 8003.4,2450.9 -793.1,-189.7 c -15.8,-3.8 -30.9,7.7 -31.5,23.8 l -67.5,1773.3 97.6,81.1 c 18.6,15.5 28.1,39.6 24.8,63.4 l -12.8,91.3 c -3.3,23.9 -18.8,44.6 -40.9,54.4 l -81.4,36.4 -4.9,128.7 c -0.5,16.7 13.4,30.1 30,29.1 l 515.8,-35.4 c 18.3,-1.3 33.4,-14.8 36.6,-32.7 l 352.2,-1985.7 c 3,-17.2 -7.8,-33.9 -24.9,-38 z"
   id="path16"
   inkscape:connector-curvature="0"
   style="fill:#ffffff" />
			<path
   d="m 7007.1,4201.6 -612,-507.7 388.5,-226.8 c 17.2,-9.9 29.2,-26.9 32.8,-46.3 l 135.5,-704.9 c 3.6,-18.3 -4.9,-36.9 -21,-46.4 l -788.7,-460.6 c -17.3,-10.2 -37.9,-14 -57.6,-10.7 L 4970,2378.7 c -17.2,2.8 -29.2,18.6 -27.1,35.9 l 154.9,1334.4 269.6,774 391.5,-35.3 c 17.4,-1.6 30.4,-16.5 29.8,-33.9 l -24.4,-690.7 26,-5.3 499.3,762.1 c 9.8,15 29.2,20.6 45.4,13.3 l 667.6,-298.9 c 13.2,-5.9 15.5,-23.5 4.5,-32.7 z m -847.9,-872.2 -407.4,94.9 -23.5,-656.3 483,130.5 z"
   id="path18"
   inkscape:connector-curvature="0"
   style="fill:#ffffff" />
			<g
   id="g22"
   style="fill:#ffffff">
				<path
   d="m 5126.7,4369.1 -676.1,-1942 c -6.3,-17.8 -22.4,-30.7 -41.3,-32.6 l -925.5,-95 c -17.8,-1.7 -34.5,9.5 -39.6,26.8 l -305.3,1053.7 226.7,1123.7 197.3,37.4 c 16.9,3.2 33,-8 35.8,-24.9 l 71.3,-422.6 619.6,-93.1 105.1,506.7 c 3.5,17 20,28 36.9,24.7 l 674.7,-127.5 c 16.1,-3 25.7,-19.7 20.4,-35.3 z m -1362.6,-833.8 100.8,-598.2 207.1,16.4 124.3,597.2 z"
   id="path20"
   inkscape:connector-curvature="0"
   style="fill:#ffffff" />
			</g>
			<path
   d="m 2761.5,2404.9 c -3.6,-18.2 -18.6,-32.3 -36.9,-34.7 l -507.5,-68.5 c -18.5,-2.5 -36.6,6.9 -45.3,23.4 L 1835.3,2976.3 1603.7,2286 c -6,-18 -21.9,-31.2 -40.7,-33.6 l -469.9,-62.5 c -18.1,-2.4 -36,7.7 -43.2,24.5 L 222.7,4150.3 c -6.9,15.7 0.5,34 16.2,40.9 l 756.2,322.7 c 15.3,6.6 32.8,-1.6 37.7,-17.5 l 356.3,-1162.6 333.6,599.5 c 7.1,13 25.2,14.6 34.7,3 l 458.7,-563.2 72.1,1205.6 c 1,16.4 16.2,28.1 32.3,24.8 l 819.3,-169.3 c 16.9,-3.5 27.6,-20 24.3,-36.8 z"
   id="path24"
   inkscape:connector-curvature="0"
   style="fill:#ffffff" />
		</g>
<path
   d="m 14.601258,197.1697 c 1.557802,0 3.072851,-0.34356 4.545149,-1.03067 1.472282,-0.68713 2.68338,-1.60982 3.633244,-2.76811 v 0 l -2.707127,-2.76809 c -0.702899,0.84416 -1.510305,1.49203 -2.422163,1.94357 -0.911882,0.45152 -1.89024,0.67728 -2.935098,0.67728 -0.930877,0 -1.790517,-0.17177 -2.578904,-0.51533 -0.788395,-0.34355 -1.472296,-0.80982 -2.051718,-1.39877 -0.579436,-0.58896 -1.035361,-1.29082 -1.367819,-2.10553 -0.332459,-0.81474 -0.498688,-1.69326 -0.498688,-2.63559 0,-0.96198 0.161407,-1.85031 0.484449,-2.66503 0.32295,-0.81474 0.769382,-1.52148 1.33931,-2.12026 0.569914,-0.59877 1.249085,-1.06994 2.037471,-1.4135 0.788395,-0.34355 1.629032,-0.51534 2.521894,-0.51534 1.06387,0 2.070729,0.24049 3.02061,0.72148 0.94988,0.48098 1.77625,1.17302 2.479149,2.07608 v 0 l 2.792624,-2.85646 c -0.930862,-1.1779 -2.146704,-2.11532 -3.647503,-2.81227 -1.500791,-0.69693 -3.049079,-1.04539 -4.64488,-1.04539 -1.481788,0 -2.873343,0.27484 -4.174666,0.82454 -1.301324,0.5497 -2.4269122,1.29572 -3.3767929,2.23804 -0.9498655,0.94232 -1.7002627,2.06625 -2.2511908,3.37178 -0.5509281,1.30552 -0.8263842,2.7043 -0.8263842,4.19633 0,1.49202 0.2707104,2.8859 0.8121303,4.18161 0.5414352,1.2957 1.2870699,2.41473 2.2369362,3.35706 0.9498807,0.94231 2.0754684,1.68833 3.3768084,2.23803 1.301323,0.5497 2.702383,0.82454 4.203159,0.82454 z m 54.000159,0.0295 c 1.481804,0 2.86863,-0.27484 4.160446,-0.82454 1.291833,-0.54969 2.407928,-1.30062 3.348295,-2.25276 0.940375,-0.95215 1.68601,-2.08099 2.236937,-3.38651 0.550934,-1.30553 0.826385,-2.6945 0.826385,-4.16687 0,-1.47241 -0.275451,-2.86138 -0.826385,-4.16689 -0.550927,-1.30553 -1.296562,-2.43437 -2.236937,-3.3865 -0.940367,-0.95215 -2.056462,-1.70309 -3.348295,-2.25277 -1.291816,-0.54971 -2.678642,-0.82454 -4.160446,-0.82454 -1.462808,0 -2.840088,0.27483 -4.131937,0.82454 -1.291832,0.54968 -2.407912,1.30062 -3.348287,2.25277 -0.940375,0.95213 -1.686025,2.08097 -2.236936,3.3865 -0.550942,1.30551 -0.826394,2.69448 -0.826394,4.16689 0,1.47237 0.275452,2.86134 0.826394,4.16687 0.550911,1.30552 1.296561,2.43436 2.236936,3.38651 0.940375,0.95214 2.056455,1.70307 3.348287,2.25276 1.291849,0.5497 2.669129,0.82454 4.131937,0.82454 z m 0,-3.91657 c -0.892878,0 -1.724009,-0.17178 -2.493392,-0.51535 -0.769399,-0.34355 -1.434315,-0.81471 -1.994747,-1.41347 -0.560408,-0.59879 -1.002098,-1.31045 -1.325062,-2.13499 -0.322964,-0.82455 -0.484451,-1.70798 -0.484451,-2.6503 0,-0.96197 0.161423,-1.85032 0.484451,-2.66504 0.322964,-0.81475 0.764654,-1.52148 1.325062,-2.12025 0.560432,-0.59879 1.225348,-1.06995 1.994747,-1.4135 0.769383,-0.34357 1.600514,-0.51534 2.493392,-0.51534 0.892894,0 1.728786,0.17177 2.507675,0.51534 0.778889,0.34355 1.448541,0.81471 2.008974,1.4135 0.560408,0.59877 1.002122,1.3055 1.325054,2.12025 0.322972,0.81472 0.48445,1.70307 0.48445,2.66504 0,0.94232 -0.161422,1.82575 -0.48445,2.6503 -0.322932,0.82454 -0.764646,1.5362 -1.325054,2.13499 -0.560433,0.59876 -1.230085,1.06992 -2.008974,1.41347 -0.778889,0.34357 -1.614781,0.51535 -2.507675,0.51535 z m 62.634493,3.59265 v -3.76934 h -10.91402 v -16.84425 h -4.13194 v 20.61352 z m 52.09091,0 v -3.76934 h -10.91401 v -16.84425 h -4.13194 v 20.61352 z m 52.48986,0 v -3.71045 h -11.31296 v -4.88835 h 7.38051 v -3.59265 h -7.38051 v -4.71165 h 11.19899 v -3.71044 h -15.33092 v 20.61352 z m 45.82176,0.29447 c 1.55781,0 3.07284,-0.34356 4.54514,-1.03068 1.47229,-0.68712 2.68339,-1.60982 3.63327,-2.7681 v 0 l -2.70715,-2.7681 c -0.7029,0.84417 -1.51029,1.49202 -2.42216,1.94356 -0.91188,0.45155 -1.89024,0.6773 -2.9351,0.6773 -0.93088,0 -1.79052,-0.17177 -2.57891,-0.51533 -0.78839,-0.34356 -1.47229,-0.80983 -2.05171,-1.39878 -0.57944,-0.58896 -1.03537,-1.2908 -1.36782,-2.10552 -0.33246,-0.81472 -0.49869,-1.69326 -0.49869,-2.63558 0,-0.96197 0.1614,-1.85032 0.48444,-2.66504 0.32296,-0.81475 0.76939,-1.52148 1.33933,-2.12025 0.56991,-0.59879 1.24908,-1.06995 2.03746,-1.4135 0.7884,-0.34357 1.62903,-0.51534 2.5219,-0.51534 1.06387,0 2.07073,0.24049 3.02061,0.72147 0.94987,0.48098 1.77623,1.17301 2.47914,2.07607 v 0 l 2.79264,-2.85643 c -0.93087,-1.17793 -2.14671,-2.11535 -3.6475,-2.81229 -1.5008,-0.69692 -3.04909,-1.04539 -4.64489,-1.04539 -1.48179,0 -2.87335,0.27483 -4.17467,0.82454 -1.30133,0.54968 -2.42691,1.2957 -3.37679,2.23804 -0.94986,0.94232 -1.70027,2.06625 -2.2512,3.37178 -0.55092,1.30552 -0.82638,2.7043 -0.82638,4.19634 0,1.49202 0.27072,2.88588 0.81215,4.18159 0.54142,1.29571 1.28704,2.41472 2.23694,3.35707 0.94988,0.94233 2.07547,1.68833 3.37679,2.23802 1.30132,0.54969 2.70237,0.82455 4.20316,0.82455 z m 54.65558,-0.29447 V 180.031 h 6.69658 v -3.76932 h -17.55361 v 3.76932 h 6.72507 v 16.8442 z m 47.33206,0 v -20.61359 h -4.13193 v 20.61352 z m 47.58852,0.32392 c 1.48181,0 2.86862,-0.27484 4.16045,-0.82454 1.29181,-0.54969 2.4079,-1.30062 3.34828,-2.25276 0.94037,-0.95215 1.68602,-2.08099 2.23696,-3.38651 0.5509,-1.30553 0.82637,-2.6945 0.82637,-4.16687 0,-1.47241 -0.27547,-2.86138 -0.82637,-4.16689 -0.55094,-1.30553 -1.29659,-2.43437 -2.23696,-3.3865 -0.94038,-0.95215 -2.05647,-1.70309 -3.34828,-2.25277 -1.29183,-0.54971 -2.67864,-0.82454 -4.16045,-0.82454 -1.4628,0 -2.84012,0.27483 -4.13193,0.82454 -1.29183,0.54968 -2.40792,1.30062 -3.34829,2.25277 -0.94038,0.95213 -1.68603,2.08097 -2.23695,3.3865 -0.55094,1.30551 -0.82641,2.69448 -0.82641,4.16689 0,1.47237 0.27547,2.86134 0.82641,4.16687 0.55092,1.30552 1.29657,2.43436 2.23695,3.38651 0.94037,0.95214 2.05646,1.70307 3.34829,2.25276 1.29181,0.5497 2.66913,0.82454 4.13193,0.82454 z m 0,-3.91657 c -0.89287,0 -1.72403,-0.17178 -2.49341,-0.51535 -0.76939,-0.34355 -1.43429,-0.81471 -1.99473,-1.41347 -0.56041,-0.59879 -1.00211,-1.31045 -1.32507,-2.13499 -0.32294,-0.82455 -0.48444,-1.70798 -0.48444,-2.6503 0,-0.96197 0.16142,-1.85032 0.48444,-2.66504 0.32296,-0.81475 0.76466,-1.52148 1.32507,-2.12025 0.56044,-0.59879 1.22534,-1.06995 1.99473,-1.4135 0.76938,-0.34357 1.60054,-0.51534 2.49341,-0.51534 0.89288,0 1.72877,0.17177 2.50766,0.51534 0.77891,0.34355 1.44853,0.81471 2.00898,1.4135 0.56042,0.59877 1.00211,1.3055 1.32506,2.12025 0.32296,0.81472 0.48444,1.70307 0.48444,2.66504 0,0.94232 -0.1614,1.82575 -0.48444,2.6503 -0.32295,0.82454 -0.76464,1.5362 -1.32506,2.13499 -0.56045,0.59876 -1.23007,1.06992 -2.00898,1.41347 -0.77889,0.34357 -1.61478,0.51535 -2.50766,0.51535 z m 51.4925,3.59265 v -13.78163 l 10.17311,13.78163 h 3.64751 v -20.61359 h -3.87548 v 13.3399 l -9.91664,-13.3399 h -3.93247 v 20.61352 z"
   id="COLLECTION"
   inkscape:connector-curvature="0"
   style="fill:#ffffff;fill-rule:nonzero;stroke:none;stroke-width:1.7717824" /></svg>