<?xml version="1.0" encoding="UTF-8" standalone="no"?>
<!-- Created with Inkscape (http://www.inkscape.org/) -->

<svg
   xmlns:dc="http://purl.org/dc/elements/1.1/"
   xmlns:cc="http://creativecommons.org/ns#"
   xmlns:rdf="http://www.w3.org/1999/02/22-rdf-syntax-ns#"
   xmlns:svg="http://www.w3.org/2000/svg"
   xmlns="http://www.w3.org/2000/svg"
   xmlns:sodipodi="http://sodipodi.sourceforge.net/DTD/sodipodi-0.dtd"
   xmlns:inkscape="http://www.inkscape.org/namespaces/inkscape"
   version="1.1"
   id="svg2"
   xml:space="preserve"
   width="500"
   height="200"
   viewBox="0 0 500 200"
   sodipodi:docname="megaman.svg"
   inkscape:version="0.92.5 (2060ec1f9f, 2020-04-08)"><metadata
     id="metadata8"><rdf:RDF><cc:Work
         rdf:about=""><dc:format>image/svg+xml</dc:format><dc:type
           rdf:resource="http://purl.org/dc/dcmitype/StillImage" /><dc:title /></cc:Work></rdf:RDF></metadata><defs
     id="defs6"><clipPath
       clipPathUnits="userSpaceOnUse"
       id="clipPath18"><path
         d="M 0,396.85 H 595.28 V 0 H 0 Z"
         id="path16"
         inkscape:connector-curvature="0" /></clipPath><clipPath
       clipPathUnits="userSpaceOnUse"
       id="clipPath34"><path
         d="m 175.135,266.175 c 0,0 -9.999,-16.667 -40.167,-28 v 0 l -4.916,-12.75 -5.334,0.083 c 0,0 -5.749,-10.584 -37.416,-24.833 v 0 h 33.083 c 0,-1 -14.388,-46.875 -33.756,-65.5 v 0 c 0,0 59.756,10.5 77.006,85.249 v 0 l 5.5,16.001 h 38 l 19.25,29.75 z"
         id="path32"
         inkscape:connector-curvature="0" /></clipPath><linearGradient
       x1="0"
       y1="0"
       x2="1"
       y2="0"
       gradientUnits="userSpaceOnUse"
       gradientTransform="matrix(91.663811,158.7664,158.7664,-91.663811,96.746582,129.33301)"
       spreadMethod="pad"
       id="linearGradient50"><stop
         style="stop-opacity:1;stop-color:#295da9"
         offset="0"
         id="stop40" /><stop
         style="stop-opacity:1;stop-color:#295da9"
         offset="0.0052356"
         id="stop42" /><stop
         style="stop-opacity:1;stop-color:#295da9"
         offset="0.33581042"
         id="stop44" /><stop
         style="stop-opacity:1;stop-color:#272e65"
         offset="0.795811"
         id="stop46" /><stop
         style="stop-opacity:1;stop-color:#272e65"
         offset="1"
         id="stop48" /></linearGradient><clipPath
       clipPathUnits="userSpaceOnUse"
       id="clipPath60"><path
         d="M 0,396.85 H 595.28 V 0 H 0 Z"
         id="path58"
         inkscape:connector-curvature="0" /></clipPath><clipPath
       clipPathUnits="userSpaceOnUse"
       id="clipPath72"><path
         d="m 191.189,251.41 -2.814,-6.94 7.784,-0.094 -7.316,-19.037 h 8.722 l 7.315,19.131 h 7.034 l 2.721,6.94 z"
         id="path70"
         inkscape:connector-curvature="0" /></clipPath><linearGradient
       x1="0"
       y1="0"
       x2="1"
       y2="0"
       gradientUnits="userSpaceOnUse"
       gradientTransform="matrix(-1.1e-6,-26.071289,-26.071289,1.1e-6,201.50488,251.41016)"
       spreadMethod="pad"
       id="linearGradient86"><stop
         style="stop-opacity:1;stop-color:#e6342a"
         offset="0"
         id="stop78" /><stop
         style="stop-opacity:1;stop-color:#e6342a"
         offset="0.0104712"
         id="stop80" /><stop
         style="stop-opacity:1;stop-color:#f9b233"
         offset="0.989529"
         id="stop82" /><stop
         style="stop-opacity:1;stop-color:#f9b233"
         offset="1"
         id="stop84" /></linearGradient><clipPath
       clipPathUnits="userSpaceOnUse"
       id="clipPath96"><path
         d="m 239.206,251.41 c -0.281,0 -3.844,-9.471 -3.844,-9.471 v 0 h -10.599 l 3.095,9.471 h -8.44 l -9.754,-26.071 h 8.536 l 3.749,9.66 h 10.973 l -3.562,-9.66 h 8.814 c 0,0 9.566,26.071 9.847,26.071 v 0 c 0.188,0 -3.667,0.001 -6.342,0.001 v 0 c -1.337,0 -2.38,0 -2.473,-0.001"
         id="path94"
         inkscape:connector-curvature="0" /></clipPath><linearGradient
       x1="0"
       y1="0"
       x2="1"
       y2="0"
       gradientUnits="userSpaceOnUse"
       gradientTransform="matrix(-1.1e-6,-26.071777,-26.071777,1.1e-6,228.84619,251.41064)"
       spreadMethod="pad"
       id="linearGradient110"><stop
         style="stop-opacity:1;stop-color:#e6342a"
         offset="0"
         id="stop102" /><stop
         style="stop-opacity:1;stop-color:#e6342a"
         offset="0.0104712"
         id="stop104" /><stop
         style="stop-opacity:1;stop-color:#f9b233"
         offset="0.989529"
         id="stop106" /><stop
         style="stop-opacity:1;stop-color:#f9b233"
         offset="1"
         id="stop108" /></linearGradient><clipPath
       clipPathUnits="userSpaceOnUse"
       id="clipPath120"><path
         d="m 252.526,251.41 -9.755,-26.071 h 23.165 l 2.439,6.847 h -14.35 l 1.031,2.907 h 14.35 l 2.625,6.751 h -14.347 l 1.031,2.627 h 14.255 l 3.001,6.939 z"
         id="path118"
         inkscape:connector-curvature="0" /></clipPath><linearGradient
       x1="0"
       y1="0"
       x2="1"
       y2="0"
       gradientUnits="userSpaceOnUse"
       gradientTransform="matrix(-1.1e-6,-26.071289,-26.071289,1.1e-6,259.37109,251.41016)"
       spreadMethod="pad"
       id="linearGradient134"><stop
         style="stop-opacity:1;stop-color:#e6342a"
         offset="0"
         id="stop126" /><stop
         style="stop-opacity:1;stop-color:#e6342a"
         offset="0.0104712"
         id="stop128" /><stop
         style="stop-opacity:1;stop-color:#f9b233"
         offset="0.989529"
         id="stop130" /><stop
         style="stop-opacity:1;stop-color:#f9b233"
         offset="1"
         id="stop132" /></linearGradient><clipPath
       clipPathUnits="userSpaceOnUse"
       id="clipPath144"><path
         d="m 309.733,251.41 -11.821,-10.502 h -1.026 l 3.751,10.502 h -8.628 l -9.847,-26.071 h 8.722 l 4.97,13.035 4.501,-13.035 h 8.816 l -4.596,14.068 13.504,12.003 z"
         id="path142"
         inkscape:connector-curvature="0" /></clipPath><linearGradient
       x1="0"
       y1="0"
       x2="1"
       y2="0"
       gradientUnits="userSpaceOnUse"
       gradientTransform="matrix(-1.1e-6,-26.071289,-26.071289,1.1e-6,300.12109,251.41016)"
       spreadMethod="pad"
       id="linearGradient158"><stop
         style="stop-opacity:1;stop-color:#e6342a"
         offset="0"
         id="stop150" /><stop
         style="stop-opacity:1;stop-color:#e6342a"
         offset="0.0104712"
         id="stop152" /><stop
         style="stop-opacity:1;stop-color:#f9b233"
         offset="0.989529"
         id="stop154" /><stop
         style="stop-opacity:1;stop-color:#f9b233"
         offset="1"
         id="stop156" /></linearGradient><clipPath
       clipPathUnits="userSpaceOnUse"
       id="clipPath168"><path
         d="m 323.051,251.41 -9.845,-26.071 h 9.002 l 9.566,26.071 z"
         id="path166"
         inkscape:connector-curvature="0" /></clipPath><linearGradient
       x1="0"
       y1="0"
       x2="1"
       y2="0"
       gradientUnits="userSpaceOnUse"
       gradientTransform="matrix(-1.1e-6,-26.071289,-26.071289,1.1e-6,322.49023,251.41016)"
       spreadMethod="pad"
       id="linearGradient182"><stop
         style="stop-opacity:1;stop-color:#e6342a"
         offset="0"
         id="stop174" /><stop
         style="stop-opacity:1;stop-color:#e6342a"
         offset="0.0104712"
         id="stop176" /><stop
         style="stop-opacity:1;stop-color:#f9b233"
         offset="0.989529"
         id="stop178" /><stop
         style="stop-opacity:1;stop-color:#f9b233"
         offset="1"
         id="stop180" /></linearGradient><clipPath
       clipPathUnits="userSpaceOnUse"
       id="clipPath192"><path
         d="m 360.689,251.421 c -2.012,-0.027 -3.922,-0.054 -3.965,-0.011 v 0 c -0.095,0.093 -4.877,-13.036 -4.877,-13.036 v 0 l -7.409,13.036 h -7.691 l -10.035,-26.071 h 8.629 l 5.346,13.881 8.064,-13.881 h 6.848 c 0,0 9.611,25.931 9.751,26.071 v 0 c 0.034,0.034 -0.447,0.046 -1.197,0.046 v 0 c -0.906,0 -2.205,-0.017 -3.464,-0.035"
         id="path190"
         inkscape:connector-curvature="0" /></clipPath><linearGradient
       x1="0"
       y1="0"
       x2="1"
       y2="0"
       gradientUnits="userSpaceOnUse"
       gradientTransform="matrix(-1.1e-6,-26.117188,-26.117188,1.1e-6,346.03223,251.45605)"
       spreadMethod="pad"
       id="linearGradient206"><stop
         style="stop-opacity:1;stop-color:#e6342a"
         offset="0"
         id="stop198" /><stop
         style="stop-opacity:1;stop-color:#e6342a"
         offset="0.0104712"
         id="stop200" /><stop
         style="stop-opacity:1;stop-color:#f9b233"
         offset="0.989529"
         id="stop202" /><stop
         style="stop-opacity:1;stop-color:#f9b233"
         offset="1"
         id="stop204" /></linearGradient><clipPath
       clipPathUnits="userSpaceOnUse"
       id="clipPath216"><path
         d="m 372.73,249.739 c -1.891,-1.032 -3.723,-2.258 -5.258,-3.774 v 0 c -3.106,-3.063 -5.965,-7.91 -4.909,-12.448 v 0 c 0.541,-2.327 2.196,-4.237 4.119,-5.588 v 0 c 1.501,-1.053 3.24,-1.746 5.034,-2.102 v 0 c 4.794,-0.949 9.897,-0.488 14.759,-0.488 v 0 l 6.176,16.891 c 0,0 -9.992,-0.182 -9.931,0 v 0 c 0.06,0.181 -5.994,-6.965 -5.994,-6.965 v 0 h 4.48 l -1.211,-2.725 c -11.445,-0.787 -8.237,6.238 -8.237,6.238 v 0 c 3.27,6.783 9.206,6.056 9.206,6.056 v 0 h 8.539 l 5.929,6.616 c -0.543,-0.027 -8.169,0.006 -8.169,0.006 v 0 c -1.35,0.099 -2.595,0.142 -3.742,0.142 v 0 c -7.551,0 -10.791,-1.859 -10.791,-1.859 m 22.702,1.711 c 0.038,0.002 0.042,0.004 0.006,0.006 v 0 z"
         id="path214"
         inkscape:connector-curvature="0" /></clipPath><linearGradient
       x1="0"
       y1="0"
       x2="1"
       y2="0"
       gradientUnits="userSpaceOnUse"
       gradientTransform="matrix(-1.2e-6,-26.370605,-26.370605,1.2e-6,378.90137,251.59766)"
       spreadMethod="pad"
       id="linearGradient230"><stop
         style="stop-opacity:1;stop-color:#e6342a"
         offset="0"
         id="stop222" /><stop
         style="stop-opacity:1;stop-color:#e6342a"
         offset="0.0104712"
         id="stop224" /><stop
         style="stop-opacity:1;stop-color:#f9b233"
         offset="0.989529"
         id="stop226" /><stop
         style="stop-opacity:1;stop-color:#f9b233"
         offset="1"
         id="stop228" /></linearGradient><clipPath
       clipPathUnits="userSpaceOnUse"
       id="clipPath240"><path
         d="m 413.146,249.066 c -8.706,-5.017 -13.081,-13.743 -9.766,-19.49 v 0 c 3.308,-5.75 13.056,-6.348 21.767,-1.331 v 0 c 8.703,5.016 13.075,13.744 9.762,19.493 v 0 c -1.802,3.131 -5.512,4.733 -9.925,4.733 v 0 c -3.69,0.001 -7.871,-1.12 -11.838,-3.405 m 0.202,-14.591 c -1.597,2.203 -0.335,5.842 2.815,8.126 v 0 c 3.154,2.285 7.006,2.35 8.602,0.146 v 0 c 1.597,-2.204 0.336,-5.843 -2.814,-8.127 v 0 c -1.614,-1.169 -3.411,-1.757 -4.995,-1.757 v 0 c -1.511,0 -2.828,0.535 -3.608,1.612"
         id="path238"
         inkscape:connector-curvature="0" /></clipPath><linearGradient
       x1="0"
       y1="0"
       x2="1"
       y2="0"
       gradientUnits="userSpaceOnUse"
       gradientTransform="matrix(-1.2e-6,-27.631348,-27.631348,1.2e-6,419.14453,252.47119)"
       spreadMethod="pad"
       id="linearGradient254"><stop
         style="stop-opacity:1;stop-color:#e6342a"
         offset="0"
         id="stop246" /><stop
         style="stop-opacity:1;stop-color:#e6342a"
         offset="0.0104712"
         id="stop248" /><stop
         style="stop-opacity:1;stop-color:#f9b233"
         offset="0.989529"
         id="stop250" /><stop
         style="stop-opacity:1;stop-color:#f9b233"
         offset="1"
         id="stop252" /></linearGradient><clipPath
       clipPathUnits="userSpaceOnUse"
       id="clipPath264"><path
         d="m 442.66,251.599 -9.989,-25.957 h 8.994 l 3.447,9.871 h 13.844 l 2.687,6.835 h -13.552 l 0.877,2.627 h 13.902 l 2.57,6.624 z"
         id="path262"
         inkscape:connector-curvature="0" /></clipPath><linearGradient
       x1="0"
       y1="0"
       x2="1"
       y2="0"
       gradientUnits="userSpaceOnUse"
       gradientTransform="matrix(-1.1e-6,-25.957031,-25.957031,1.1e-6,449.05566,251.59863)"
       spreadMethod="pad"
       id="linearGradient278"><stop
         style="stop-opacity:1;stop-color:#e6342a"
         offset="0"
         id="stop270" /><stop
         style="stop-opacity:1;stop-color:#e6342a"
         offset="0.0104712"
         id="stop272" /><stop
         style="stop-opacity:1;stop-color:#f9b233"
         offset="0.989529"
         id="stop274" /><stop
         style="stop-opacity:1;stop-color:#f9b233"
         offset="1"
         id="stop276" /></linearGradient><clipPath
       clipPathUnits="userSpaceOnUse"
       id="clipPath288"><path
         d="M 0,396.85 H 595.28 V 0 H 0 Z"
         id="path286"
         inkscape:connector-curvature="0" /></clipPath><clipPath
       clipPathUnits="userSpaceOnUse"
       id="clipPath332"><path
         d="m 191.189,251.41 -2.814,-6.94 7.784,-0.094 -7.316,-19.037 h 8.722 l 7.315,19.131 h 7.034 l 2.721,6.94 z"
         id="path330"
         inkscape:connector-curvature="0" /></clipPath><linearGradient
       x1="0"
       y1="0"
       x2="1"
       y2="0"
       gradientUnits="userSpaceOnUse"
       gradientTransform="matrix(-1.1e-6,-26.071289,-26.071289,1.1e-6,201.50488,251.41016)"
       spreadMethod="pad"
       id="linearGradient346"><stop
         style="stop-opacity:1;stop-color:#e6342a"
         offset="0"
         id="stop338" /><stop
         style="stop-opacity:1;stop-color:#e6342a"
         offset="0.0104712"
         id="stop340" /><stop
         style="stop-opacity:1;stop-color:#f9b233"
         offset="0.989529"
         id="stop342" /><stop
         style="stop-opacity:1;stop-color:#f9b233"
         offset="1"
         id="stop344" /></linearGradient><clipPath
       clipPathUnits="userSpaceOnUse"
       id="clipPath356"><path
         d="m 239.206,251.41 c -0.281,0 -3.844,-9.471 -3.844,-9.471 v 0 h -10.599 l 3.095,9.471 h -8.44 l -9.754,-26.071 h 8.536 l 3.749,9.66 h 10.973 l -3.562,-9.66 h 8.814 c 0,0 9.566,26.071 9.847,26.071 v 0 c 0.188,0 -3.667,0.001 -6.342,0.001 v 0 c -1.337,0 -2.38,0 -2.473,-0.001"
         id="path354"
         inkscape:connector-curvature="0" /></clipPath><linearGradient
       x1="0"
       y1="0"
       x2="1"
       y2="0"
       gradientUnits="userSpaceOnUse"
       gradientTransform="matrix(-1.1e-6,-26.071777,-26.071777,1.1e-6,228.84619,251.41064)"
       spreadMethod="pad"
       id="linearGradient370"><stop
         style="stop-opacity:1;stop-color:#e6342a"
         offset="0"
         id="stop362" /><stop
         style="stop-opacity:1;stop-color:#e6342a"
         offset="0.0104712"
         id="stop364" /><stop
         style="stop-opacity:1;stop-color:#f9b233"
         offset="0.989529"
         id="stop366" /><stop
         style="stop-opacity:1;stop-color:#f9b233"
         offset="1"
         id="stop368" /></linearGradient><clipPath
       clipPathUnits="userSpaceOnUse"
       id="clipPath380"><path
         d="m 252.526,251.41 -9.755,-26.071 h 23.165 l 2.439,6.847 h -14.35 l 1.031,2.907 h 14.35 l 2.625,6.751 h -14.347 l 1.031,2.627 h 14.255 l 3.001,6.939 z"
         id="path378"
         inkscape:connector-curvature="0" /></clipPath><linearGradient
       x1="0"
       y1="0"
       x2="1"
       y2="0"
       gradientUnits="userSpaceOnUse"
       gradientTransform="matrix(-1.1e-6,-26.071289,-26.071289,1.1e-6,259.37109,251.41016)"
       spreadMethod="pad"
       id="linearGradient394"><stop
         style="stop-opacity:1;stop-color:#e6342a"
         offset="0"
         id="stop386" /><stop
         style="stop-opacity:1;stop-color:#e6342a"
         offset="0.0104712"
         id="stop388" /><stop
         style="stop-opacity:1;stop-color:#f9b233"
         offset="0.989529"
         id="stop390" /><stop
         style="stop-opacity:1;stop-color:#f9b233"
         offset="1"
         id="stop392" /></linearGradient><clipPath
       clipPathUnits="userSpaceOnUse"
       id="clipPath404"><path
         d="m 309.733,251.41 -11.821,-10.502 h -1.026 l 3.751,10.502 h -8.628 l -9.847,-26.071 h 8.722 l 4.97,13.035 4.501,-13.035 h 8.816 l -4.596,14.068 13.504,12.003 z"
         id="path402"
         inkscape:connector-curvature="0" /></clipPath><linearGradient
       x1="0"
       y1="0"
       x2="1"
       y2="0"
       gradientUnits="userSpaceOnUse"
       gradientTransform="matrix(-1.1e-6,-26.071289,-26.071289,1.1e-6,300.12109,251.41016)"
       spreadMethod="pad"
       id="linearGradient418"><stop
         style="stop-opacity:1;stop-color:#e6342a"
         offset="0"
         id="stop410" /><stop
         style="stop-opacity:1;stop-color:#e6342a"
         offset="0.0104712"
         id="stop412" /><stop
         style="stop-opacity:1;stop-color:#f9b233"
         offset="0.989529"
         id="stop414" /><stop
         style="stop-opacity:1;stop-color:#f9b233"
         offset="1"
         id="stop416" /></linearGradient><clipPath
       clipPathUnits="userSpaceOnUse"
       id="clipPath428"><path
         d="m 323.051,251.41 -9.845,-26.071 h 9.002 l 9.566,26.071 z"
         id="path426"
         inkscape:connector-curvature="0" /></clipPath><linearGradient
       x1="0"
       y1="0"
       x2="1"
       y2="0"
       gradientUnits="userSpaceOnUse"
       gradientTransform="matrix(-1.1e-6,-26.071289,-26.071289,1.1e-6,322.49023,251.41016)"
       spreadMethod="pad"
       id="linearGradient442"><stop
         style="stop-opacity:1;stop-color:#e6342a"
         offset="0"
         id="stop434" /><stop
         style="stop-opacity:1;stop-color:#e6342a"
         offset="0.0104712"
         id="stop436" /><stop
         style="stop-opacity:1;stop-color:#f9b233"
         offset="0.989529"
         id="stop438" /><stop
         style="stop-opacity:1;stop-color:#f9b233"
         offset="1"
         id="stop440" /></linearGradient><clipPath
       clipPathUnits="userSpaceOnUse"
       id="clipPath452"><path
         d="m 360.689,251.421 c -2.012,-0.027 -3.922,-0.054 -3.965,-0.011 v 0 c -0.095,0.093 -4.877,-13.036 -4.877,-13.036 v 0 l -7.409,13.036 h -7.691 l -10.035,-26.071 h 8.629 l 5.346,13.881 8.064,-13.881 h 6.848 c 0,0 9.611,25.931 9.751,26.071 v 0 c 0.034,0.034 -0.447,0.046 -1.197,0.046 v 0 c -0.906,0 -2.205,-0.017 -3.464,-0.035"
         id="path450"
         inkscape:connector-curvature="0" /></clipPath><linearGradient
       x1="0"
       y1="0"
       x2="1"
       y2="0"
       gradientUnits="userSpaceOnUse"
       gradientTransform="matrix(-1.1e-6,-26.117188,-26.117188,1.1e-6,346.03223,251.45605)"
       spreadMethod="pad"
       id="linearGradient466"><stop
         style="stop-opacity:1;stop-color:#e6342a"
         offset="0"
         id="stop458" /><stop
         style="stop-opacity:1;stop-color:#e6342a"
         offset="0.0104712"
         id="stop460" /><stop
         style="stop-opacity:1;stop-color:#f9b233"
         offset="0.989529"
         id="stop462" /><stop
         style="stop-opacity:1;stop-color:#f9b233"
         offset="1"
         id="stop464" /></linearGradient><clipPath
       clipPathUnits="userSpaceOnUse"
       id="clipPath476"><path
         d="m 372.73,249.739 c -1.891,-1.032 -3.723,-2.258 -5.258,-3.774 v 0 c -3.106,-3.063 -5.965,-7.91 -4.909,-12.448 v 0 c 0.541,-2.327 2.196,-4.237 4.119,-5.588 v 0 c 1.501,-1.053 3.24,-1.746 5.034,-2.102 v 0 c 4.794,-0.949 9.897,-0.488 14.759,-0.488 v 0 l 6.176,16.891 c 0,0 -9.992,-0.182 -9.931,0 v 0 c 0.06,0.181 -5.994,-6.965 -5.994,-6.965 v 0 h 4.48 l -1.211,-2.725 c -11.445,-0.787 -8.237,6.238 -8.237,6.238 v 0 c 3.27,6.783 9.206,6.056 9.206,6.056 v 0 h 8.539 l 5.929,6.616 c -0.543,-0.027 -8.169,0.006 -8.169,0.006 v 0 c -1.35,0.099 -2.595,0.142 -3.742,0.142 v 0 c -7.551,0 -10.791,-1.859 -10.791,-1.859 m 22.702,1.711 c 0.038,0.002 0.042,0.004 0.006,0.006 v 0 z"
         id="path474"
         inkscape:connector-curvature="0" /></clipPath><linearGradient
       x1="0"
       y1="0"
       x2="1"
       y2="0"
       gradientUnits="userSpaceOnUse"
       gradientTransform="matrix(-1.2e-6,-26.370605,-26.370605,1.2e-6,378.90137,251.59766)"
       spreadMethod="pad"
       id="linearGradient490"><stop
         style="stop-opacity:1;stop-color:#e6342a"
         offset="0"
         id="stop482" /><stop
         style="stop-opacity:1;stop-color:#e6342a"
         offset="0.0104712"
         id="stop484" /><stop
         style="stop-opacity:1;stop-color:#f9b233"
         offset="0.989529"
         id="stop486" /><stop
         style="stop-opacity:1;stop-color:#f9b233"
         offset="1"
         id="stop488" /></linearGradient><clipPath
       clipPathUnits="userSpaceOnUse"
       id="clipPath500"><path
         d="m 413.146,249.066 c -8.706,-5.017 -13.081,-13.743 -9.766,-19.49 v 0 c 3.308,-5.75 13.056,-6.348 21.767,-1.331 v 0 c 8.703,5.016 13.075,13.744 9.762,19.493 v 0 c -1.802,3.131 -5.512,4.733 -9.925,4.733 v 0 c -3.69,0.001 -7.871,-1.12 -11.838,-3.405 m 0.202,-14.591 c -1.597,2.203 -0.335,5.842 2.815,8.126 v 0 c 3.154,2.285 7.006,2.35 8.602,0.146 v 0 c 1.597,-2.204 0.336,-5.843 -2.814,-8.127 v 0 c -1.614,-1.169 -3.411,-1.757 -4.995,-1.757 v 0 c -1.511,0 -2.828,0.535 -3.608,1.612"
         id="path498"
         inkscape:connector-curvature="0" /></clipPath><linearGradient
       x1="0"
       y1="0"
       x2="1"
       y2="0"
       gradientUnits="userSpaceOnUse"
       gradientTransform="matrix(-1.2e-6,-27.631348,-27.631348,1.2e-6,419.14453,252.47119)"
       spreadMethod="pad"
       id="linearGradient514"><stop
         style="stop-opacity:1;stop-color:#e6342a"
         offset="0"
         id="stop506" /><stop
         style="stop-opacity:1;stop-color:#e6342a"
         offset="0.0104712"
         id="stop508" /><stop
         style="stop-opacity:1;stop-color:#f9b233"
         offset="0.989529"
         id="stop510" /><stop
         style="stop-opacity:1;stop-color:#f9b233"
         offset="1"
         id="stop512" /></linearGradient><clipPath
       clipPathUnits="userSpaceOnUse"
       id="clipPath524"><path
         d="m 442.66,251.599 -9.989,-25.957 h 8.994 l 3.447,9.871 h 13.844 l 2.687,6.835 h -13.552 l 0.877,2.627 h 13.902 l 2.57,6.624 z"
         id="path522"
         inkscape:connector-curvature="0" /></clipPath><linearGradient
       x1="0"
       y1="0"
       x2="1"
       y2="0"
       gradientUnits="userSpaceOnUse"
       gradientTransform="matrix(-1.1e-6,-25.957031,-25.957031,1.1e-6,449.05566,251.59863)"
       spreadMethod="pad"
       id="linearGradient538"><stop
         style="stop-opacity:1;stop-color:#e6342a"
         offset="0"
         id="stop530" /><stop
         style="stop-opacity:1;stop-color:#e6342a"
         offset="0.0104712"
         id="stop532" /><stop
         style="stop-opacity:1;stop-color:#f9b233"
         offset="0.989529"
         id="stop534" /><stop
         style="stop-opacity:1;stop-color:#f9b233"
         offset="1"
         id="stop536" /></linearGradient><clipPath
       clipPathUnits="userSpaceOnUse"
       id="clipPath548"><path
         d="M 0,396.85 H 595.28 V 0 H 0 Z"
         id="path546"
         inkscape:connector-curvature="0" /></clipPath><clipPath
       clipPathUnits="userSpaceOnUse"
       id="clipPath588"><path
         d="m 148.96,216.082 -22.375,-59.125 h 16.25 l 9.125,24.25 h 21 l 5.25,14.375 h -20.625 l 2.625,6.625 h 20.375 l 4.875,13.875 z"
         id="path586"
         inkscape:connector-curvature="0" /></clipPath><linearGradient
       x1="0"
       y1="0"
       x2="1"
       y2="0"
       gradientUnits="userSpaceOnUse"
       gradientTransform="matrix(-2.6e-6,-59.125488,-59.125488,2.6e-6,156.02246,216.08203)"
       spreadMethod="pad"
       id="linearGradient602"><stop
         style="stop-opacity:1;stop-color:#ea5b0b"
         offset="0"
         id="stop594" /><stop
         style="stop-opacity:1;stop-color:#fcea12"
         offset="0.48564172"
         id="stop596" /><stop
         style="stop-opacity:1;stop-color:#fcea12"
         offset="0.989529"
         id="stop598" /><stop
         style="stop-opacity:1;stop-color:#fcea12"
         offset="1"
         id="stop600" /></linearGradient><clipPath
       clipPathUnits="userSpaceOnUse"
       id="clipPath612"><path
         d="m 194.085,216.082 -23.25,-59.125 h 16.5 l 22.875,59.125 z"
         id="path610"
         inkscape:connector-curvature="0" /></clipPath><linearGradient
       x1="0"
       y1="0"
       x2="1"
       y2="0"
       gradientUnits="userSpaceOnUse"
       gradientTransform="matrix(-2.6e-6,-59.125488,-59.125488,2.6e-6,190.52246,216.08203)"
       spreadMethod="pad"
       id="linearGradient626"><stop
         style="stop-opacity:1;stop-color:#ea5b0b"
         offset="0"
         id="stop618" /><stop
         style="stop-opacity:1;stop-color:#fcea12"
         offset="0.48564172"
         id="stop620" /><stop
         style="stop-opacity:1;stop-color:#fcea12"
         offset="0.989529"
         id="stop622" /><stop
         style="stop-opacity:1;stop-color:#fcea12"
         offset="1"
         id="stop624" /></linearGradient><clipPath
       clipPathUnits="userSpaceOnUse"
       id="clipPath636"><path
         d="m 241.085,216.082 c -4.824,-0.195 -10.177,-1.072 -14.635,-2.97 v 0 c -6.127,-2.608 -12.083,-7.142 -15.815,-12.678 v 0 c -3.477,-5.157 -6.548,-10.403 -7.111,-16.805 v 0 c -0.247,-2.816 -0.388,-5.62 0.003,-8.43 v 0 c 0.651,-4.683 2.12,-9.931 5.647,-13.273 v 0 c 2.449,-2.317 6.604,-4.969 10.136,-4.969 v 0 h 21.326 l 13.074,34.375 -19,0.125 -11.75,-14.5 h 8.75 l -2.5,-5.75 c -6.924,-0.537 -10.308,5.512 -9.954,11.716 v 0 c 0.169,2.97 1.818,6.758 3.329,9.282 v 0 c 2.778,4.644 7.625,7.383 12.726,8.785 v 0 c 2.477,0.681 5.029,1.039 7.594,1.151 v 0 c 1.278,0.054 2.557,0.047 3.835,0.007 v 0 c 0.497,-0.015 3.6,-0.496 3.845,-0.191 v 0 c 0.007,0.01 11.375,14.125 11.375,14.125 v 0 z"
         id="path634"
         inkscape:connector-curvature="0" /></clipPath><linearGradient
       x1="0"
       y1="0"
       x2="1"
       y2="0"
       gradientUnits="userSpaceOnUse"
       gradientTransform="matrix(-2.6e-6,-59.125488,-59.125488,2.6e-6,232.62158,216.08203)"
       spreadMethod="pad"
       id="linearGradient650"><stop
         style="stop-opacity:1;stop-color:#ea5b0b"
         offset="0"
         id="stop642" /><stop
         style="stop-opacity:1;stop-color:#fcea12"
         offset="0.48564172"
         id="stop644" /><stop
         style="stop-opacity:1;stop-color:#fcea12"
         offset="0.989529"
         id="stop646" /><stop
         style="stop-opacity:1;stop-color:#fcea12"
         offset="1"
         id="stop648" /></linearGradient><clipPath
       clipPathUnits="userSpaceOnUse"
       id="clipPath660"><path
         d="m 301.084,216.082 -8.499,-20.625 h -14.75 l 8.125,20.625 h -16.25 l -23.25,-59.125 h 16.75 l 9.5,24.5 14.25,-0.125 -8.875,-24.375 h 16.5 l 22.499,59.125 z"
         id="path658"
         inkscape:connector-curvature="0" /></clipPath><linearGradient
       x1="0"
       y1="0"
       x2="1"
       y2="0"
       gradientUnits="userSpaceOnUse"
       gradientTransform="matrix(-2.6e-6,-59.125488,-59.125488,2.6e-6,281.77197,216.08203)"
       spreadMethod="pad"
       id="linearGradient674"><stop
         style="stop-opacity:1;stop-color:#ea5b0b"
         offset="0"
         id="stop666" /><stop
         style="stop-opacity:1;stop-color:#fcea12"
         offset="0.48564172"
         id="stop668" /><stop
         style="stop-opacity:1;stop-color:#fcea12"
         offset="0.989529"
         id="stop670" /><stop
         style="stop-opacity:1;stop-color:#fcea12"
         offset="1"
         id="stop672" /></linearGradient><clipPath
       clipPathUnits="userSpaceOnUse"
       id="clipPath684"><path
         d="m 322.959,216.082 -5.25,-13.625 h 12.375 l -17.125,-45.5 h 16.375 l 17.5,45.5 h 11.5 l 5.375,13.625 z"
         id="path682"
         inkscape:connector-curvature="0" /></clipPath><linearGradient
       x1="0"
       y1="0"
       x2="1"
       y2="0"
       gradientUnits="userSpaceOnUse"
       gradientTransform="matrix(-2.6e-6,-59.125488,-59.125488,2.6e-6,338.33398,216.08203)"
       spreadMethod="pad"
       id="linearGradient698"><stop
         style="stop-opacity:1;stop-color:#ea5b0b"
         offset="0"
         id="stop690" /><stop
         style="stop-opacity:1;stop-color:#fcea12"
         offset="0.48564172"
         id="stop692" /><stop
         style="stop-opacity:1;stop-color:#fcea12"
         offset="0.989529"
         id="stop694" /><stop
         style="stop-opacity:1;stop-color:#fcea12"
         offset="1"
         id="stop696" /></linearGradient><clipPath
       clipPathUnits="userSpaceOnUse"
       id="clipPath708"><path
         d="m 370.604,216.082 -22.299,-59.125 h 40.726 l 4.928,14.469 h -24.293 l 4.108,9.975 h 22.181 l 5.047,14.084 h -21.83 l 2.699,7.16 h 22.533 l 5.047,13.437 z"
         id="path706"
         inkscape:connector-curvature="0" /></clipPath><linearGradient
       x1="0"
       y1="0"
       x2="1"
       y2="0"
       gradientUnits="userSpaceOnUse"
       gradientTransform="matrix(-2.6e-6,-59.125488,-59.125488,2.6e-6,378.87793,216.08203)"
       spreadMethod="pad"
       id="linearGradient722"><stop
         style="stop-opacity:1;stop-color:#ea5b0b"
         offset="0"
         id="stop714" /><stop
         style="stop-opacity:1;stop-color:#fcea12"
         offset="0.48564172"
         id="stop716" /><stop
         style="stop-opacity:1;stop-color:#fcea12"
         offset="0.989529"
         id="stop718" /><stop
         style="stop-opacity:1;stop-color:#fcea12"
         offset="1"
         id="stop720" /></linearGradient><clipPath
       clipPathUnits="userSpaceOnUse"
       id="clipPath732"><path
         d="m 417.084,216.082 -22.25,-59.125 h 16.25 l 9.375,24.125 2.5,-24.125 h 16.125 l -1.875,25.875 c 12.375,9.875 13.375,21 13.375,21 v 0 c 1.25,11.5 -5.875,12.25 -5.875,12.25 v 0 z m 7.084,-24.875 c 0,0.001 5.916,15.166 5.916,15.166 v 0 h 3.918 c 0.594,0 1.256,-1.117 1.498,-1.518 v 0 c 0.699,-1.16 0.871,-2.404 0.611,-3.725 v 0 c -0.588,-2.97 -2.081,-5.862 -4.378,-7.862 v 0 c -0.923,-0.804 -1.975,-1.438 -3.155,-1.78 v 0 c -0.416,-0.122 -3.917,-0.284 -4.363,-0.284 v 0 c -0.031,0 -0.047,0.001 -0.047,0.003"
         id="path730"
         inkscape:connector-curvature="0" /></clipPath><linearGradient
       x1="0"
       y1="0"
       x2="1"
       y2="0"
       gradientUnits="userSpaceOnUse"
       gradientTransform="matrix(-2.6e-6,-59.125488,-59.125488,2.6e-6,422.7832,216.08203)"
       spreadMethod="pad"
       id="linearGradient746"><stop
         style="stop-opacity:1;stop-color:#ea5b0b"
         offset="0"
         id="stop738" /><stop
         style="stop-opacity:1;stop-color:#fcea12"
         offset="0.48564172"
         id="stop740" /><stop
         style="stop-opacity:1;stop-color:#fcea12"
         offset="0.989529"
         id="stop742" /><stop
         style="stop-opacity:1;stop-color:#fcea12"
         offset="1"
         id="stop744" /></linearGradient><clipPath
       clipPathUnits="userSpaceOnUse"
       id="clipPath756"><path
         d="m 474.496,215.932 c -1.789,-0.625 -3.612,-1.411 -5.261,-2.348 v 0 c -3.093,-1.756 -6.069,-3.848 -8.342,-6.616 v 0 c -0.995,-1.209 -1.926,-2.552 -2.678,-3.928 v 0 c -1.946,-3.556 -3.424,-7.574 -2.031,-11.582 v 0 c 1.392,-4.004 4.962,-7.476 8.525,-9.626 v 0 c 0,0 7.668,-4.334 6.625,-7.125 v 0 c 0,0 -4.748,-9.792 -23.5,1.125 v 0 c 0,0 -5.998,-14.998 -6,-15 v 0 c -0.24,-0.602 7.772,-3.207 8.174,-3.31 v 0 c 6.6,-1.7 13.812,-1.44 20.23,0.884 v 0 c 4.994,1.806 9.631,4.746 13.141,8.751 v 0 c 1,1.141 1.888,2.381 2.668,3.682 v 0 c 2.523,4.205 4.381,9.526 1.883,14.184 v 0 c -2.157,4.02 -6.723,6.056 -10.379,8.452 v 0 c -2.227,1.46 -7.9,3.987 -5.443,7.533 v 0 c 0.562,0.812 1.617,1.536 2.529,1.896 v 0 c 1.023,0.404 2.246,0.674 3.351,0.687 v 0 c 1.848,0.02 3.826,-0.386 5.596,-0.884 v 0 c 0,0 5.687,-2.562 8.75,-7.5 v 0 c 0,0 5.998,16.744 6,16.75 v 0 c 0.25,0.702 -3.582,2.373 -4.072,2.607 v 0 c -3.717,1.774 -7.695,2.736 -11.694,2.736 v 0 c -2.706,10e-4 -5.42,-0.44 -8.072,-1.368"
         id="path754"
         inkscape:connector-curvature="0" /></clipPath><linearGradient
       x1="0"
       y1="0"
       x2="1"
       y2="0"
       gradientUnits="userSpaceOnUse"
       gradientTransform="matrix(-2.7e-6,-60.876953,-60.876953,2.7e-6,470.08789,217.30029)"
       spreadMethod="pad"
       id="linearGradient770"><stop
         style="stop-opacity:1;stop-color:#ea5b0b"
         offset="0"
         id="stop762" /><stop
         style="stop-opacity:1;stop-color:#fcea12"
         offset="0.48564172"
         id="stop764" /><stop
         style="stop-opacity:1;stop-color:#fcea12"
         offset="0.989529"
         id="stop766" /><stop
         style="stop-opacity:1;stop-color:#fcea12"
         offset="1"
         id="stop768" /></linearGradient></defs><sodipodi:namedview
     pagecolor="#ffffff"
     bordercolor="#666666"
     borderopacity="1"
     objecttolerance="10"
     gridtolerance="10"
     guidetolerance="10"
     inkscape:pageopacity="0"
     inkscape:pageshadow="2"
     inkscape:window-width="1366"
     inkscape:window-height="743"
     id="namedview4"
     showgrid="false"
     inkscape:pagecheckerboard="true"
     inkscape:zoom="1.2224588"
     inkscape:cx="398.81531"
     inkscape:cy="-14.122188"
     inkscape:window-x="0"
     inkscape:window-y="0"
     inkscape:window-maximized="1"
     inkscape:current-layer="g10" /><g
     id="g10"
     inkscape:groupmode="layer"
     inkscape:label="the-king-of-fighters-seeklogo.com"
     transform="matrix(1.3333333,0,0,-1.3333333,0,80.00003)"><path
       inkscape:connector-curvature="0"
       id="path881"
       d="m 1.0250251,-45.54219 c -0.10134003,0.16397 0.0123,0.74339 1.80138,9.18167 1.57027,7.40638 2.80781,13.27395 3.98876,18.91181 0.48918,2.33537 1.05795,5.00903 1.26393,5.94148 0.20597,0.93245 0.8214,3.8275297 1.36761,6.4335097 0.5462,2.60598 1.3303799,6.32881 1.7426199,8.272958 0.41224,1.944131 1.05482,4.990079 1.42797,6.768762 0.37314,1.7787003 0.74118,3.3862703 0.81786,3.5724103 l 0.13942,0.33843 15.30818,-0.002 c 8.4195,-9.9e-4 15.39112,-0.055 15.49247,-0.11939 0.11349,-0.0722 0.56159,-2.65703 1.16643,-6.7288583 0.54018,-3.636487 1.0467,-7.045552 1.12561,-7.575722 0.0789,-0.53018 0.20991,-1.03038 0.29112,-1.11159 0.20885,-0.20885 0.2669,-0.10642 5.65298,9.972425 1.39263,2.6059753 2.6614,4.9242753 2.81951,5.1517953 l 0.28748,0.41364 h 16.15073 c 9.26828,0 16.18599,-0.0571 16.23344,-0.1338 0.084,-0.13583 -0.31006,-2.17298 -1.40986,-7.2894293 -0.33523,-1.55952 -0.57188,-2.896356 -0.52592,-2.970732 0.0492,-0.07952 16.143065,-0.135246 39.032795,-0.135246 h 38.9492 v -0.360803 c 0,-0.3498 -1.50862,-7.6957 -1.82192,-8.87141 -0.10689,-0.40112 -0.10691,-0.63169 -8e-5,-0.73853 0.10685,-0.10685 0.93894,1.42537 2.66521,4.9077 l 2.50985,5.063023 h 15.76301 c 8.66965,0 15.79665,-0.05453 15.83781,-0.121081 0.0411,-0.06658 0.18229,-1.911072 0.3136,-4.098862 0.13132,-2.18779 0.33833,-5.46693 0.46,-7.28697 0.12167,-1.82005 0.32204,-4.9675397 0.44524,-6.9944097 0.5505,-9.05651 0.84372,-13.48763 0.91368,-13.80694 0.0415,-0.18952 0.13433,-0.30821 0.20629,-0.26375 0.14912,0.0922 0.14112,0.0568 1.95502,8.65567 5.74165,27.2187087 7.22186,34.15828 7.31963,34.31646 0.0439,0.071 7.01544,0.12909 15.49239,0.12909 h 15.41261 l 0.12481,-0.33843 c 0.0686,-0.18614 0.4799,-2.74137 0.9139,-5.6782613 1.3594,-9.198939 1.42006,-9.551489 1.64355,-9.551489 0.11265,0 0.9963,1.38759 1.96366,3.08355 0.96737,1.695961 2.8944,5.080342 4.28229,7.52087 1.38788,2.4405103 2.62929,4.5557603 2.75868,4.7005303 0.2212,0.24749 1.16857,0.26323 15.84647,0.26323 8.8354,0 15.64675,-0.0575 15.69308,-0.13247 0.0896,-0.1451 0.0536,-0.3217 -3.60347,-17.6500503 -0.81576,-3.86522 -1.43104,-7.0798297 -1.36732,-7.1435597 0.15756,-0.15756 0.0387,-0.38528 3.86614,7.4024697 l 3.40063,6.919207 15.81406,0.03825 15.81408,0.03825 0.075,-0.339137 c 0.0412,-0.18652 0.24732,-3.11432 0.45783,-6.50624 0.21054,-3.39191 0.42067,-6.7762997 0.46698,-7.5208597 0.0969,-1.55542 0.15935,-1.84014 0.3604,-1.6391 0.0776,0.0776 0.88277,3.6411497 1.78937,7.9190997 0.90661,4.27795 1.69101,7.847121 1.74316,7.931473 0.11164,0.180645 49.80919,0.221036 49.91111,0.04058 0.035,-0.06213 -0.8326,-4.343303 -1.92809,-9.513893 -1.09549,-5.1705897 -2.81691,-13.2931297 -3.82535,-18.0500797 -1.00847,-4.75694 -2.40558,-11.3565 -3.10473,-14.66568 -0.69913,-3.30918 -1.30833,-6.13514 -1.3538,-6.27992 -0.0784,-0.24967 -1.8213,-0.26323 -33.82767,-0.26323 H 295.7908 l -0.0844,1.24094 c -0.0464,0.68252 -0.13712,2.01935 -0.20152,2.97074 l -0.11707,1.7298 -2.66765,0.0411 -2.66765,0.0411 -0.8476,-1.77087 c -0.46618,-0.97397 -1.10449,-2.31809 -1.41847,-2.98693 l -0.57087,-1.21608 -12.30935,-0.1 c -15.5565,-0.12635 -32.99507,-0.12637 -69.73008,-7e-5 l -29.11702,0.1001 -0.0941,1.89293 c -0.0519,1.04111 -0.14254,2.36674 -0.20174,2.94585 l -0.1076,1.05292 h -2.63228 -2.63231 l -1.46901,-2.98003 -1.469,-2.98004 -21.31922,0.0592 c -22.2599,0.0618 -23.81275,0.1045 -26.50861,0.72804 -3.76318,0.87041 -7.75897,4.1593 -9.72278,8.00272 -0.24943,0.48818 -0.45061,0.70856 -0.61748,0.67643 -0.15754,-0.0303 -1.09788,-1.76954 -2.5873,-4.78536 l -2.33979,-4.73769 -51.621725,-0.0378 c -32.91798,-0.0241 -51.6540199,0.0146 -51.7110199,0.10682 z m 102.9708049,1.09287 c 0.1318,0.16639 1.28248,2.3639 2.55709,4.88336 1.27462,2.51946 2.40121,4.65122 2.50357,4.73726 0.32448,0.27275 0.54796,0.0443 1.29603,-1.32473 2.1409,-3.91812 5.38375,-6.70241 9.01251,-7.73814 2.39153,-0.68258 5.27866,-0.77259 27.12018,-0.84547 16.77396,-0.056 20.34575,-0.0329 20.48268,0.13206 0.0913,0.10992 0.7746,1.42512 1.51863,2.92266 0.74402,1.49754 1.46553,2.76608 1.60334,2.81897 0.34884,0.13386 5.82856,0.11665 6.03439,-0.0189 0.27056,-0.17824 0.33615,-0.57965 0.50836,-3.11067 0.0897,-1.31917 0.23645,-2.48678 0.32601,-2.5947 0.13334,-0.16067 10.07235,-0.19621 54.88146,-0.19621 h 54.71861 l 0.34995,0.56407 c 0.19249,0.31023 0.43184,0.76713 0.53192,1.01532 0.10017,0.24818 0.6431,1.33119 1.20669,2.40667 l 1.02472,1.95543 3.02499,0.0407 c 2.67408,0.0359 3.0492,0.0115 3.23356,-0.21064 0.14144,-0.17043 0.26464,-1.06841 0.38286,-2.79093 0.10546,-1.53608 0.24719,-2.62745 0.35871,-2.76182 0.16168,-0.1948 4.18921,-0.21988 32.69227,-0.20354 17.87936,0.0103 32.67086,0.0634 32.87003,0.11802 0.47586,0.1306 0.62925,0.59083 1.45971,4.37929 0.37177,1.69595 0.80338,3.6589 0.95912,4.3621 1.20824,5.45508 1.20505,5.44055 2.10734,9.62671 0.7525,3.49129 1.01345,4.6975 1.74104,8.04732 0.37734,1.73732 0.87941,4.07255 1.11569,5.1894 0.23629,1.11685 0.93908,4.3996997 1.56173,7.2952397 1.67278,7.77902 1.76076,8.24607 1.58612,8.4207 -0.18695,0.18698 -47.45742,0.29195 -48.17126,0.10698 -0.55362,-0.14347 -0.55123,-0.13634 -1.37065,-4.09038 -0.87051,-4.2007 -1.72341,-8.25228 -2.72315,-12.9358797 -0.44111,-2.06648 -0.63254,-2.58921 -0.82133,-2.24271 -0.17923,0.32901 -0.2752,1.52942 -0.67824,8.4850297 -0.48733,8.41041 -0.65006,10.46948 -0.84605,10.70561 -0.12955,0.1561 -3.03522,0.19368 -14.84823,0.19198 -8.07796,-9.9e-4 -14.92408,-0.0506 -15.21364,-0.11003 -0.51865,-0.10631 -0.56,-0.17502 -2.78296,-4.62045 -1.24107,-2.48189 -3.19831,-6.42574 -4.34946,-8.7641097 -1.15113,-2.33837 -2.18325,-4.32653 -2.29363,-4.41812 -0.16015,-0.1329 -0.20066,-0.0697 -0.20066,0.31301 0,0.40562 1.30983,6.8081497 2.78666,13.6212997 0.21519,0.99276 0.49051,2.31266 0.61183,2.93313 0.1213,0.62048 0.35172,1.703479 0.51202,2.406683 0.85774,3.76294 1.82111,8.6165973 1.74802,8.8070473 -0.0724,0.18838 -2.13471,0.21799 -15.18199,0.21799 -14.19064,0 -15.1123,-0.0158 -15.33055,-0.26322 -0.22056,-0.25002 -1.77913,-2.94369 -4.591,-7.9345293 -3.08067,-5.467901 -4.58167,-8.029981 -4.8429,-8.266401 -0.26424,-0.23913 -0.28526,-0.23794 -0.35567,0.0201 -0.17398,0.63737 -0.27411,1.21628 -0.62491,3.61311 -0.20346,1.39006 -0.5036,3.407324 -0.66698,4.482814 -0.16338,1.07547 -0.47324,3.173787 -0.6886,4.662926 -0.21535,1.4891303 -0.46156,2.9274903 -0.54715,3.1963703 l -0.1556,0.48885 h -14.93661 -14.9366 l -0.1682,-0.41364 c -0.0926,-0.22752 -0.23319,-0.7521 -0.31259,-1.16575 -0.12062,-0.62834 -1.03527,-4.9542863 -1.89229,-8.9498103 -0.23375,-1.08984 -2.34237,-11.15643 -3.62333,-17.2979897 -0.94523,-4.5319 -1.79956,-8.65322 -2.90205,-13.99997 -0.78841,-3.82358 -1.05072,-4.80523 -1.2962,-4.85077 -0.23073,-0.0428 -0.33657,1.17889 -0.82533,9.52487 -0.25434,4.3433 -0.52746,8.91222 -0.60691,10.15316 -0.0795,1.24095 -0.24837,3.9822997 -0.37537,6.0918997 -0.46402,7.70837 -0.65665,10.12549 -0.8199,10.28878 -0.22125,0.22128 -29.72126,0.31343 -30.29671,0.0947 -0.33214,-0.12627 -0.91848,-1.21279 -3.69451,-6.84613 -1.81483,-3.68282 -3.37017,-6.6960397 -3.45631,-6.6960397 -0.28217,0 -0.22264,0.3385 1.4127,8.0310397 0.54329,2.55567 0.98781,4.84013 0.98781,5.07659 v 0.42993 h -38.70371 c -32.052235,0 -38.750935,0.0345 -38.978505,0.20093 -0.3184,0.232824 -0.33029,0.147227 0.67198,4.838049 1.15473,5.4043913 1.12126,5.2021413 0.88564,5.3512913 -0.1209,0.0765 -6.84952,0.13531 -15.63882,0.13663 -12.11423,0.002 -15.47883,-0.0381 -15.66974,-0.18573 -0.13371,-0.10342 -0.62677,-0.89578 -1.0957,-1.76084 -1.36543,-2.5189003 -5.45508,-10.1666803 -6.35791,-11.8895103 -0.99772,-1.90394 -1.57316,-2.79666 -1.76761,-2.74226 -0.19717,0.0551 -0.32663,0.58547 -0.59599,2.44142 -0.12607,0.86865 -0.32541,2.22241 -0.44298,3.00834 -0.11757,0.78594 -0.4266,2.85042 -0.68673,4.587731 -0.26013,1.737319 -0.56892,3.8283293 -0.68621,4.6466793 -0.11728,0.81836 -0.28953,1.57985 -0.38278,1.6922 -0.14074,0.16957 -2.67653,0.20388 -14.92961,0.20197 -8.23615,-9.9e-4 -14.85248,-0.0608 -14.96913,-0.13468 -0.11892,-0.0752 -0.39163,-0.99835 -0.63257,-2.14114 -1.25374,-5.9464073 -2.62608,-12.4617403 -3.22704,-15.3207003 -0.3738799,-1.77869 -0.7773199,-3.67395 -0.8965299,-4.21169 -0.11921,-0.53774 -0.46069,-2.1622497 -0.75884,-3.6100097 -0.29815,-1.44777 -0.83928,-4.05375 -1.2025,-5.79107 -1.88484,-9.01546 -4.48309,-21.71194 -4.90971,-23.99159 -0.17805,-0.95139 -0.32909,-1.96671 -0.33564,-2.25626 l -0.0119,-0.52646 50.5402199,-0.0752 c 27.79711,-0.0414 50.675585,-0.0511 50.841035,-0.0216 0.16546,0.0295 0.40868,0.18976 0.54047,0.35615 z m -99.1891449,1.87156 c -0.19217,0.19216 -0.0954,0.80976 0.66061,4.21703 1.63814,7.3828 1.96665,8.88177 2.16903,9.89712 0.11543,0.57911 0.6485,3.04971 1.1846,5.49023 0.5361,2.44052 1.07903,4.94497 1.2065099,5.56544 0.12747,0.62047 0.40722,1.94038 0.62164,2.93314 0.77854,3.60448 1.30657,6.0787397 1.95813,9.1754497 0.36554,1.73732 0.83076,3.93717 1.03383,4.88857 0.20306,0.95138 0.71439,3.3543 1.13628,5.339812 1.03377,4.865168 1.20182,5.5418483 1.40894,5.6735683 0.0976,0.0622 5.79956,0.11392 12.67098,0.11519 9.76888,0.002 12.54603,-0.0387 12.73442,-0.18572 0.2484,-0.19386 0.43253,-1.2351403 1.54745,-8.7509303 0.51073,-3.44293 1.2215,-8.16858 1.64211,-10.91778 0.32354,-2.1147497 0.43333,-2.2918697 0.95463,-1.5401297 0.15777,0.22751 1.37092,2.3089097 2.69589,4.6253397 1.32497,2.31642 3.51335,6.14079 4.86307,8.49856 1.34972,2.357806 2.88661,5.065311 3.41533,6.01669 0.52871,0.9514 1.10009,1.8482603 1.26972,1.9930403 0.28825,0.24601 1.10828,0.26323 12.53198,0.26323 6.72295,0 12.43507,-0.0423 12.69359,-0.094 0.55817,-0.11164 0.59121,-0.36255 0.24503,-1.8614103 -0.12419,-0.537735 -0.7716,-3.583693 -1.43868,-6.76877 -0.66708,-3.18509 -1.48342,-7.07713 -1.81408,-8.64899 -0.33066,-1.57186 -0.96677,-4.6178097 -1.41356,-6.7687797 -0.4468,-2.15097 -1.08959,-5.23076 -1.42843,-6.84399 -0.56211,-2.67622 -1.52557,-7.33731 -2.95371,-14.28964 -0.2974,-1.44777 -0.6637,-3.27534 -0.81401,-4.06127 -0.4804,-2.51184 -0.75606,-3.67068 -0.92024,-3.8685 -0.12716,-0.15322 -2.22256,-0.19276 -10.21423,-0.19276 -9.57014,0 -10.0613,0.0132 -10.20081,0.27385 -0.0925,0.17287 -0.0954,0.49182 -0.008,0.8649 0.0763,0.32508 0.38117,1.70789 0.6774,3.07293 0.29622,1.36504 0.807,3.68581 1.13505,5.15727 1.20111,5.38747 2.39256,11.12556 2.39256,11.52273 0,0.57406 -0.6516,-0.42148 -2.74596,-4.19537 -0.25252,-0.45501 -1.45431,-2.58717 -2.67065,-4.73814 -1.21635,-2.15097 -2.80667,-4.99385 -3.53406,-6.31752 -1.9672,-3.57985 -2.94503,-5.24247 -3.20683,-5.45263 -0.34345,-0.27571 -11.05087,-0.27173 -11.27987,0.004 -0.14319,0.17254 -0.33642,1.45112 -1.38032,9.13366 -1.03117,7.5889 -1.54286,11.05697 -1.68309,11.40755 l -0.16009,0.4002 -0.1919,-0.45125 c -0.10551,-0.24816 -0.46747,-1.80498 -0.80434,-3.45957 -0.33686,-1.65459 -1.02427,-5.00513 -1.52756,-7.44565 -0.5033,-2.44052 -0.98264,-4.8096 -1.06521,-5.26461 -0.40797,-2.24822 -0.78889,-3.86878 -0.98113,-4.17408 l -0.2131,-0.33844 h -10.04942 c -5.5271799,0 -10.0945399,0.0451 -10.1496899,0.10028 z m 8.6594599,1.54997 c 0.3751,0.29506 0.37824,0.29506 0.64526,0 0.25628,-0.28318 0.48261,-0.2965 5.03995,-0.2965 3.63639,0 4.8076,0.0447 4.92282,0.18803 0.0831,0.10341 0.43415,1.54177 0.77997,3.19636 0.34582,1.65459 1.33025,6.35889 2.1876,10.454 3.26715,15.6053 2.90455,14.00541 3.0965,13.6624 0.0693,-0.12375 0.73595,-4.5514 1.48155,-9.83923 2.34141,-16.60549 2.44198,-17.28121 2.60059,-17.47353 0.11776,-0.1428 1.22702,-0.18747 4.61156,-0.18572 2.45107,0.001 4.53394,0.052 4.62859,0.11281 0.0947,0.0608 3.63557,6.20241 7.8687,13.64807 4.23313,7.44565 7.75893,13.60072 7.83512,13.67794 0.47514,0.48158 0.31165,-0.39892 -2.63758,-14.20441 -2.14992,-10.06391 -2.64929,-12.52698 -2.60403,-12.84403 l 0.0453,-0.31748 8.649,-0.036 c 4.75695,-0.0198 8.7387,0.0212 8.84834,0.0911 0.18094,0.11536 0.70288,2.471 3.40391,15.36269 0.37267,1.77868 1.19088,5.67073 1.81825,8.64899 0.62737,2.97827 1.47,7.00569 1.87252,8.9498297 0.40251,1.94415 1.34586,6.50016 2.09632,10.12449 0.75047,3.624312 1.36449,6.75088 1.36449,6.94792 0,0.19703 -0.067,0.39964 -0.14889,0.45026 -0.27638,0.17081 -22.88942,0.0928 -23.09725,-0.0798 -0.10575,-0.0877 -0.62601,-0.917742 -1.15615,-1.844418 -3.14023,-5.489062 -12.31522,-21.4798017 -12.59628,-21.9535617 -0.62638,-1.05585 -0.48173,-1.61671 -1.73597,6.7311797 -1.81581,12.085513 -2.59675,16.94866 -2.74561,17.0975 -0.073,0.073 -5.25373,0.13228 -11.61793,0.13304 -9.63447,9.9e-4 -11.52014,-0.0325 -11.6964,-0.20877 -0.11558,-0.11558 -0.70867,-2.503625 -1.31798,-5.306784 -1.61443,-7.427156 -4.48385,-20.8085857 -5.70528,-26.6063157 -0.6209199,-2.94733 -3.3052799,-15.53035 -3.6343999,-17.0364 -0.13127,-0.60069 -0.2,-1.19296 -0.15273,-1.31615 0.0725,-0.18893 0.60139,-0.22399 3.37957,-0.22399 3.0498099,0 3.3215199,0.022 3.6705599,0.2965 z m 62.3375,-1.54997 c -0.24398,0.24397 -0.12892,0.91406 1.0288,5.99162 0.3018,1.32367 0.70761,3.15124 0.90179,4.06126 0.19418,0.91003 0.73661,3.41448 1.20539,5.56544 0.46879,2.15097 1.01051,4.65542 1.20382,5.56544 0.19331,0.91003 0.56537,2.63606 0.8268,3.83564 0.26144,1.19958 0.59694,2.7564 0.74556,3.4596 2.10407,9.9555697 2.93162,13.6698897 3.10846,13.9517897 l 0.21267,0.33901 18.909075,-0.0382 c 17.41783,-0.0351 18.91283,-0.0577 18.95677,-0.28584 0.0544,-0.28226 -5.74987,-12.1651297 -6.02861,-12.3422797 -0.10007,-0.0636 -3.7849,-0.11675 -8.18833,-0.11802 l -8.00627,-0.002 -0.20874,-0.33844 c -0.11481,-0.18614 -0.32565,-0.89936 -0.46853,-1.58493 -0.204305,-0.98027 -0.221045,-1.29319 -0.07831,-1.46515 0.153355,-0.18477 1.315195,-0.2247 7.497085,-0.25768 7.25762,-0.0387 7.31595,-0.0415 7.35994,-0.3489 0.0339,-0.23675 -4.08933,-9.00239 -4.68316,-9.9561 -0.0906,-0.14545 -1.51037,-0.18803 -6.27,-0.18803 -5.795285,0 -6.161475,-0.0159 -6.299415,-0.27365 -0.23838,-0.44542 -0.69136,-2.86009 -0.56102,-2.99061 0.0659,-0.0661 2.55423,-0.13949 5.529435,-0.16317 4.61592,-0.0367 5.42202,-0.0758 5.49509,-0.26622 0.11186,-0.29148 -0.11548,-0.80407 -2.71982,-6.13267 -1.20604,-2.46758 -2.19279,-4.53573 -2.19279,-4.59588 0,-0.0601 -0.20157,-0.42722 -0.44793,-0.8157 l -0.44796,-0.7063 H 89.043685 c -7.22687,0 -13.18489,0.0451 -13.24004,0.10028 z m 6.06759,1.50348 c 0.39454,0.23306 0.44017,0.23306 0.67323,0 0.22762,-0.22762 1.0752,-0.25001 9.4666,-0.25001 8.590875,0 9.232035,0.0179 9.443895,0.26323 0.12501,0.14478 1.23221,2.31524 2.46046,4.82326 1.82555,3.72771 2.19328,4.58525 2.01469,4.69824 -0.12179,0.077 -2.53183,0.13923 -5.44549,0.14051 -4.876595,0.002 -5.227065,0.02 -5.227915,0.26553 -10e-4,0.45703 1.10135,5.36865 1.24973,5.56544 0.10945,0.14516 1.57457,0.18802 6.426365,0.18802 h 6.28457 l 1.7267,3.51122 c 1.98062,4.02754 2.02084,4.12788 1.70406,4.24944 -0.12597,0.0483 -3.40788,0.0988 -7.2931,0.11207 -3.88524,0.0133 -7.108975,0.0691 -7.163855,0.12399 -0.14249,0.14254 0.96272,5.3978 1.22063,5.80407 l 0.21483,0.33844 h 8.170985 c 9.32241,0 8.33435,-0.1635 9.09181,1.5044697 0.24414,0.53758 1.08606,2.29733 1.87097,3.91055 1.96047,4.02935 2.11174,4.37869 1.96128,4.52916 -0.0727,0.0726 -7.79005,0.13447 -17.33561,0.13895 -14.004065,0.006 -17.241435,-0.0286 -17.402055,-0.18927 -0.21263,-0.21263 -0.32275,-0.68033 -2.22315,-9.4426097 -3.85324,-17.76633 -6.43637,-30.08014 -6.3547,-30.29295 0.13874,-0.36156 3.85065,-0.3547 4.46507,0.008 z m 45.049215,-1.43618 c -4.3751,0.23938 -6.15959,0.4203 -6.99778,0.70945 -3.2865,1.13373 -5.89961,3.5763 -7.73761,7.2326 -0.49648,0.98766 -1.28405,3.11034 -1.28405,3.46086 0,0.0712 2.68081,5.53491 5.95735,12.14155 3.27654,6.60663 6.5638,13.2531197 7.30501,14.7699597 1.29921,2.65871 1.37032,2.76791 1.97716,3.03601 1.21478,0.5367 3.23993,1.03096 4.93498,1.20441 1.85748,0.19008 26.54362,0.36061 28.23925,0.19507 l 0.95709,-0.0935 -0.0775,-0.69205 c -0.14789,-1.32081 -2.15191,-10.5891897 -2.38562,-11.0332397 -0.1299,-0.2468 -0.78405,-0.26323 -10.48044,-0.26323 -11.10365,0 -11.18096,-0.005 -12.79868,-0.78381 -0.97847,-0.47122 -2.49828,-2.0311 -2.95862,-3.03661 -0.4616,-1.00829 -1.84552,-7.32219 -1.97273,-9.0003 -0.1046,-1.38049 0.16058,-2.24962 0.95472,-3.12863 0.82832,-0.91687 1.79416,-1.24393 3.70818,-1.2557 1.84713,-0.0114 1.80785,-0.0353 2.06803,1.26082 0.0914,0.45501 0.49853,2.31643 0.90491,4.13647 0.40634,1.82005 0.97022,4.34648 1.25305,5.61429 0.28282,1.26781 0.55989,2.35081 0.61568,2.40668 0.1308,0.13094 17.3911,0.22571 18.24826,0.10019 0.35643,-0.0522 0.68095,-0.18067 0.7212,-0.2855 0.0401,-0.10484 -0.71651,-1.80921 -1.68161,-3.78751 -2.85509,-5.8524 -4.35377,-8.94196 -7.72786,-15.93111 -1.75727,-3.6401 -3.33137,-6.73682 -3.49794,-6.88159 -0.28088,-0.24409 -0.87331,-0.26163 -8.14554,-0.24117 -4.31345,0.0121 -8.85795,0.0776 -10.09891,0.14552 z m 17.49001,1.52461 c 0.13616,0.16664 1.78902,3.52174 9.46636,19.21581 1.11295,2.27506 2.03493,4.30569 2.04886,4.51252 l 0.0253,0.37604 -7.8533,0.0389 c -7.5893,0.0376 -7.85844,0.0293 -8.00658,-0.24752 -0.0843,-0.15756 -0.52785,-2.00265 -0.98559,-4.10021 -0.45776,-2.09756 -0.89853,-4.0845 -0.97952,-4.41541 -0.0809,-0.33092 -0.33412,-1.51546 -0.56253,-2.63231 l -0.4153,-2.03063 h -2.55677 c -2.4743,0 -2.58347,0.0131 -3.38505,0.40681 -1.74884,0.8589 -2.82144,2.44915 -2.95899,4.38704 -0.0652,0.91994 0.0538,1.68195 0.83828,5.35932 0.67179,3.14955 1.03472,4.5314 1.36795,5.20848 0.57238,1.16305 2.07134,2.69352 3.24852,3.31682 1.84424,0.97649 1.50375,0.95075 12.61188,0.95329 5.54854,0.001 10.17635,0.0582 10.28404,0.12648 0.10767,0.0683 0.28905,0.5241597 0.40303,1.0130197 0.48401,2.0755 1.58224,7.58495 1.58224,7.93747 0,0.32289 -0.0877,0.39982 -0.55555,0.4876 -0.82492,0.15476 -25.30806,-0.0549 -26.97083,-0.23095 -1.68134,-0.17804 -2.97244,-0.49343 -3.91084,-0.95539 -0.77034,-0.37923 -0.33983,0.44135 -10.1384,-19.3234897 -5.27733,-10.64495 -4.92883,-9.58021 -3.87303,-11.83325 1.62764,-3.47327 4.15905,-5.99528 6.94181,-6.91602 1.06391,-0.35201 2.18147,-0.4817 6.39275,-0.7418 0.41364,-0.0256 4.58509,-0.0587 9.26984,-0.0736 6.65868,-0.0212 8.55132,0.0139 8.67141,0.1609 z m 4.27539,-1.51169 c -0.0993,0.0993 -0.18052,0.25624 -0.18052,0.34881 0,0.0926 2.16153,4.49565 4.80338,9.78464 2.64186,5.28899 7.33683,14.73393 10.43328,20.98877 3.09646,6.2548397 5.70266,11.4173897 5.79155,11.4723297 0.26574,0.16422 26.35658,0.1507 26.52104,-0.0138 0.0799,-0.0799 0.27633,-2.20367 0.43645,-4.7194 0.16015,-2.51574 0.39283,-6.0631997 0.51706,-7.8832497 0.12422,-1.82005 0.43177,-6.42282 0.68343,-10.22838 0.42167,-6.37661 1.093,-15.83671 1.30224,-18.35091 0.14481,-1.73973 1.09508,-1.59496 -10.14815,-1.54608 -7.53272,0.0328 -9.68189,0.0836 -9.83066,0.23238 -0.13164,0.1317 -0.21895,1.01703 -0.28288,2.86881 -0.0508,1.47308 -0.14175,2.75805 -0.20197,2.85548 -0.0804,0.13012 -1.42759,0.17714 -5.07551,0.17714 h -4.96604 l -1.43375,-2.97075 c -0.78857,-1.6339 -1.51117,-3.02047 -1.60585,-3.08124 -0.0947,-0.0608 -3.86444,-0.11155 -8.37735,-0.11282 -6.18392,-0.002 -8.24972,0.0422 -8.38575,0.1782 z m 17.45217,4.37131 1.46283,2.97243 6.13324,-0.0393 6.13324,-0.0393 0.1192,-2.48188 c 0.0654,-1.36504 0.15324,-2.70187 0.19485,-2.97074 l 0.0756,-0.48886 h 8.5717 c 7.46408,0 8.58281,0.029 8.65788,0.22466 0.0475,0.12356 -0.0623,2.37418 -0.24382,5.00137 -0.18152,2.6272 -0.39075,5.82588 -0.46496,7.10819 -0.32769,5.6628 -1.78231,26.9655497 -1.86551,27.3203697 -0.0414,0.17625 -0.22819,0.36147 -0.41524,0.41159 -0.18705,0.0501 -5.62371,0.0921 -12.08149,0.0932 -9.162,9.9e-4 -11.79639,-0.0392 -11.99163,-0.18597 -0.13763,-0.10342 -3.77977,-7.29523 -8.09366,-15.9818297 -10.04099,-20.21895 -11.73508,-23.6936 -11.63274,-23.8592 0.0482,-0.0779 3.02986,-0.11877 7.03066,-0.0962 l 6.94698,0.0391 z m 5.11244,12.12148 c -0.14462,0.0918 0.79798,2.12478 3.73001,8.04502 2.15794,4.35723 3.9803,7.92224 4.04968,7.92224 0.18843,0 0.28462,-0.86344 0.61166,-5.49023 0.16372,-2.31643 0.4091,-5.58962 0.54524,-7.27376 0.21044,-2.60292 0.21631,-3.08186 0.0392,-3.19406 -0.26302,-0.16658 -8.71405,-0.17525 -8.97573,-0.009 z m 7.58867,1.41438 c 0.15223,0.24324 0.10214,1.34271 -0.26179,5.75018 -0.16382,1.9837 -0.35666,3.66553 -0.42852,3.7374 -0.17128,0.17127 -0.79714,-0.96858 -3.02372,-5.50674 -1.006,-2.05042 -1.79103,-3.82722 -1.74452,-3.94845 0.0699,-0.18196 0.54301,-0.22041 2.71274,-0.22041 1.93947,0 2.65898,0.0493 2.74581,0.18802 z m 23.22154,-17.79951 c -0.17323,0.32369 -0.11767,0.67773 0.59213,3.7731 0.25609,1.11685 0.53127,2.36908 0.61151,2.78272 0.0802,0.41365 0.37914,1.80125 0.66428,3.08356 0.8439,3.79528 2.00748,9.15945 2.70816,12.48463 0.2179,1.03412 0.55972,2.62478 0.75956,3.53481 0.19986,0.91002 0.52925,2.433 0.73198,3.38439 0.52121,2.44598 1.25113,5.8564497 1.59357,7.4456497 0.16042,0.74457 0.47066,2.19986 0.68941,3.23397 0.21875,1.03412 0.55564,2.62479 0.74864,3.53482 0.87996,4.148862 1.56839,7.450206 1.73812,8.33491 0.32195,1.6780003 -1.07443,1.5174103 13.19389,1.5174103 9.72737,0 12.51217,-0.041 12.71288,-0.18802 0.31258,-0.22869 0.46646,-1.1377903 2.20872,-13.0487003 0.51925,-3.54982 1.18623,-7.7717697 1.30102,-8.2353397 0.19144,-0.77317 0.33891,-0.56772 3.2121,4.4749097 1.34342,2.35779 3.25605,5.70834 4.25026,7.44565 0.99423,1.73733 2.57893,4.512524 3.52156,6.167101 0.94265,1.654599 1.82576,3.0929493 1.96247,3.1963793 0.363,0.27454 25.13765,0.27454 25.5046,0 0.27373,-0.20479 0.24738,-0.36171 -1.15516,-6.8815953 -0.47805,-2.222205 -3.36096,-15.9191447 -4.92308,-23.3898847 -0.32866,-1.57186 -0.72392,-3.50096 -0.87829,-4.28689 -0.15441,-0.78593 -0.5187,-2.54581 -0.80953,-3.91085 -0.29083,-1.36504 -0.66607,-3.19261 -0.83384,-4.06126 -0.28214,-1.46053 -1.58208,-7.76565 -1.97733,-9.59066 -0.10578,-0.48832 -0.27786,-0.84824 -0.44952,-0.94011 -0.30258,-0.16193 -19.6489,-0.21743 -20.06551,-0.0576 -0.27305,0.10477 -0.30567,0.7251 -0.0861,1.63849 0.19209,0.79931 1.10785,4.91187 1.65793,7.44566 0.24249,1.11685 0.71547,3.28286 1.05111,4.81335 0.95816,4.36915 1.35087,6.32607 1.35087,6.73163 0,0.6224 -0.33469,0.19296 -1.59223,-2.04309 -0.63602,-1.13093 -1.46112,-2.59774 -1.83356,-3.25957 -0.37241,-0.66184 -0.93097,-1.64331 -1.24124,-2.18105 -0.31028,-0.53775 -2.03134,-3.61754 -3.82458,-6.84399 -1.79324,-3.22645 -3.39894,-5.98473 -3.5682,-6.12951 -0.28064,-0.24006 -0.7818,-0.26322 -5.69536,-0.26322 -4.32049,0 -5.42779,0.0402 -5.59053,0.20291 -0.11414,0.11414 -0.31925,1.05195 -0.4688,2.14345 -0.14624,1.06729 -0.32768,2.3805 -0.40319,2.91824 -0.0755,0.53774 -0.24493,1.78996 -0.37647,2.78272 -0.47727,3.60191 -1.74383,12.4918 -1.8268,12.82247 -0.27376,1.09077 -0.35061,0.757 -3.89087,-16.89927 -0.36665,-1.82859 -0.70649,-3.42858 -0.75521,-3.55553 -0.0488,-0.12695 -0.29576,-0.27226 -0.54901,-0.32291 -0.25325,-0.0506 -4.81545,-0.0921 -10.13825,-0.0921 -9.38202,0 -9.68255,0.009 -9.83206,0.28816 z m 8.71571,1.40026 c 0.23281,0.1454 0.3339,0.1454 0.47929,0 0.22555,-0.22552 9.98138,-0.26921 10.11976,-0.0453 0.0473,0.0764 0.62975,2.73316 1.29448,5.90387 1.29965,6.19917 2.88165,13.75107 3.61817,17.27186 0.79871,3.81797 0.91296,4.23438 1.10812,4.03921 0.0806,-0.0807 0.0558,0.09 2.25942,-15.54613 0.8744,-6.20471 1.62585,-11.39975 1.66987,-11.54453 0.0739,-0.24326 0.43127,-0.26323 4.70952,-0.26323 4.22249,0 4.64942,0.0232 4.856,0.26323 0.12457,0.14478 1.64908,2.76768 3.38774,5.82867 4.70369,8.28092 9.23657,16.25525 10.68782,18.80216 1.35115,2.37128 1.69099,2.87045 1.68603,2.47652 -0.005,-0.43962 -0.46214,-2.79979 -1.36031,-7.03124 -0.5043,-2.37594 -1.14585,-5.4029 -1.42563,-6.72657 -0.27978,-1.32367 -1.01901,-4.80655 -1.64272,-7.73973 -0.62371,-2.93318 -1.13401,-5.45455 -1.13401,-5.60305 0,-0.25665 0.43799,-0.26999 8.86883,-0.26999 h 8.86882 l 0.14901,0.56407 c 0.082,0.31023 0.58875,2.66239 1.12624,5.227 0.5375,2.56461 1.55893,7.43813 2.26984,10.83004 0.71092,3.39191 1.5922,7.58856 1.95842,9.32588 0.81043,3.84477 2.4045,11.5054997 3.92454,18.8606377 0.68212,3.300564 1.07669,5.527972 0.99387,5.610772 -0.1781,0.17812 -22.83287,0.1715 -23.1514,-0.006 -0.22733,-0.12723 -0.82299,-1.131536 -5.23184,-8.82126 -8.61103,-15.0189297 -8.93247,-15.5681897 -9.11097,-15.5681897 -0.0779,0 -0.14164,0.0419 -0.14164,0.0932 0,0.0877 -0.98939,6.5876197 -2.72183,17.8816997 -0.94613,6.16809 -0.96192,6.25168 -1.21075,6.40933 -0.20358,0.12899 -6.76662,0.18059 -17.42669,0.13698 -4.26299,-0.0174 -5.68739,-0.0687 -5.83197,-0.20981 -0.16132,-0.15748 -1.57788,-6.49897 -3.86824,-17.31697 -0.28024,-1.32367 -0.98237,-4.6065297 -1.56031,-7.2952397 -0.57793,-2.6887 -1.4331,-6.68228 -1.90032,-8.87462 -0.46725,-2.19233 -1.45349,-6.81909 -2.19168,-10.28169 -0.73817,-3.46259 -1.30467,-6.35625 -1.25887,-6.43033 0.13372,-0.21637 6.78154,-0.17019 7.13339,0.0496 z m 62.30455,-1.50792 c -0.0992,0.0993 -0.18049,0.27552 -0.18049,0.39166 0,0.17082 1.46894,7.0351 2.09861,9.80663 0.0846,0.37228 0.45969,2.08031 0.83363,3.79561 l 0.67984,3.11874 4.22582,8.5386 c 2.32422,4.69624 5.13355,10.3754397 6.24298,12.6204497 1.10942,2.24502 2.10098,4.15088 2.20346,4.23526 0.25602,0.21079 26.36244,0.31521 26.56454,0.1062 0.14953,-0.15459 0.22321,-1.08422 0.85222,-10.7548297 0.87628,-13.47232 1.15172,-17.58292 1.57239,-23.46509 0.24554,-3.43328 0.48623,-6.65614 0.53488,-7.16191 0.1479,-1.53769 1.04076,-1.41188 -10.0198,-1.41188 -9.13473,0 -9.62981,0.0138 -9.89258,0.27661 -0.23997,0.23996 -0.2888,0.63164 -0.36866,2.95586 -0.0507,1.47358 -0.15047,2.73764 -0.22186,2.80903 -0.0715,0.0714 -2.35318,0.11193 -5.07065,0.0901 l -4.94082,-0.0397 -0.54051,-1.05292 c -0.29729,-0.57911 -0.93189,-1.88105 -1.41023,-2.89321 -0.47836,-1.01216 -0.99815,-1.90902 -1.15512,-1.99303 -0.43442,-0.23249 -11.77361,-0.20627 -12.00765,0.0278 z m 11.81861,2.37659 c 0.27069,0.53774 0.91434,1.85765 1.43033,2.93314 l 0.93817,1.95542 6.08057,0.0393 c 4.44062,0.0287 6.10929,-0.007 6.18697,-0.1328 0.0586,-0.0947 0.15243,-1.33076 0.20869,-2.74685 0.0563,-1.41609 0.13606,-2.69371 0.17731,-2.83916 0.0706,-0.24896 0.57906,-0.26218 8.67589,-0.22563 l 8.60086,0.0388 -0.0369,1.35376 c -0.037,1.35654 -0.31129,5.81915 -0.72114,11.73255 -0.12043,1.73732 -0.31962,4.78326 -0.44269,6.76877 -0.12307,1.98551 -0.39385,6.11447 -0.60173,9.17546 -0.20788,3.0609897 -0.44819,6.6145997 -0.53403,7.8969097 -0.20012,2.9896 -0.19014,2.94961 -0.7639,3.06436 -0.63499,0.127 -22.59014,0.0994 -23.44825,-0.0296 l -0.67687,-0.10172 -2.58585,-5.1894 c -1.42223,-2.85408 -4.18039,-8.4044797 -6.12925,-12.3341297 l -3.54339,-7.14482 -0.46117,-2.18105 c -0.25363,-1.19958 -0.68911,-3.26406 -0.96768,-4.58773 -0.27859,-1.32367 -0.78501,-3.71112 -1.12536,-5.30545 -0.34035,-1.59432 -0.57732,-2.96593 -0.52659,-3.04802 0.0588,-0.0951 1.84967,-0.13484 4.93304,-0.10957 l 4.84081,0.0397 z m 6.08434,14.11541 c -0.14296,0.0907 0.78788,2.10927 3.632,7.87607 2.10333,4.26474 3.90347,7.80303 4.00029,7.86288 0.0968,0.0598 0.20897,0.0759 0.24919,0.0357 0.0789,-0.0789 0.28744,-2.55951 0.88685,-10.54975 0.30841,-4.11117 0.34537,-5.12626 0.19025,-5.22469 -0.25119,-0.15941 -8.70738,-0.15957 -8.95858,-1.5e-4 z m 7.56271,2.73133 c 0,1.38539 -0.29163,5.68916 -0.49942,7.37044 -0.0562,0.45502 -0.16994,0.82226 -0.25266,0.81609 -0.25749,-0.0192 -4.79973,-9.16289 -4.69165,-9.44449 0.0868,-0.22636 0.38041,-0.24883 2.77043,-0.2121 l 2.6733,0.0411 z m 23.1051,-19.13297 c -0.13866,0.2591 -0.28501,2.38935 -0.61688,8.9798 -0.0834,1.65459 -0.22682,3.96878 -0.31892,5.14263 -0.14319,1.82509 -0.1329,2.29361 0.0709,3.23398 0.55624,2.56529 1.78643,8.27235 2.05278,9.52305 0.15857,0.74456 0.49307,2.30138 0.74333,3.45959 0.25028,1.15822 0.93105,4.3373897 1.51285,7.0648197 0.58178,2.72744 1.1123,5.01349 1.17893,5.08012 0.0667,0.0666 4.70903,0.12908 10.31648,0.1388 7.85199,0.0136 10.22131,-0.0244 10.30828,-0.16507 0.0622,-0.10057 0.18861,-0.70229 0.28109,-1.33733 0.0926,-0.63505 0.44495,-3.04989 0.78323,-5.36631 0.33828,-2.31643 0.67827,-4.6516597 0.75553,-5.1893997 0.22624,-1.57461 0.76416,-4.58226 0.83174,-4.6504 0.19979,-0.20148 0.39101,0.56447 1.94948,7.8091597 1.69437,7.87649 1.865,8.62586 1.99326,8.75411 0.14054,0.14055 14.20307,0.27782 15.42736,0.15061 l 0.73141,-0.076 -0.0763,-0.69154 c -0.0419,-0.38033 -0.34949,-1.97759 -0.68343,-3.54945 -0.33399,-1.57186 -1.28881,-6.1407797 -2.12187,-10.1531697 -0.83305,-4.01238 -1.58851,-7.59983 -1.67877,-7.97211 -0.15475,-0.63827 -0.58143,-2.70797 -1.41091,-6.84399 -0.19909,-0.99275 -0.77684,-3.80179 -1.28387,-6.24232 -0.50704,-2.44051 -1.01032,-4.94496 -1.11842,-5.56543 -0.24666,-1.4156 -0.32733,-1.60403 -0.73337,-1.71293 -0.18041,-0.0484 -4.83325,-0.0889 -10.33965,-0.09 -7.77909,-0.002 -10.067,0.0399 -10.26004,0.18597 -0.19207,0.14536 -0.36811,1.07543 -0.77575,4.09888 -0.82241,6.09958 -1.71585,12.09694 -1.82954,12.28087 -0.14192,0.22965 -0.31009,-0.0982 -0.51954,-1.01301 -0.23499,-1.0263 -1.84951,-8.89719 -2.49644,-12.17037 -0.29432,-1.48913 -0.63152,-2.85981 -0.74931,-3.04595 l -0.21418,-0.33844 h -5.78231 c -5.41502,0 -5.79151,0.0172 -5.92725,0.27086 z m 10.95327,1.79738 c 0.0831,0.31023 0.55924,2.527 1.0583,4.92616 0.49908,2.39916 1.04213,4.97129 1.20679,5.71586 0.23343,1.05551 1.33773,6.24787 2.35997,11.0964 0.11566,0.54863 0.3206,0.65947 0.42271,0.22865 0.0757,-0.31945 0.922,-6.09042 2.56514,-17.49216 0.3696,-2.56462 0.70352,-4.74755 0.74208,-4.85096 0.0939,-0.25188 9.70977,-0.27473 9.96082,-0.0237 0.11887,0.11886 0.24937,0.11886 0.47147,0 0.38776,-0.20753 8.24115,-0.22919 8.36852,-0.0231 0.0481,0.0777 0.7658,3.37748 1.59502,7.33284 6.92822,33.0464697 6.78631,32.3339697 6.47828,32.5243297 -0.16747,0.10354 -2.3247,0.19762 -4.45763,0.19447 -7.82909,-0.0115 -8.43485,-0.0264 -8.67715,-0.21255 -0.1689,-0.12979 -0.43008,-0.9998 -0.78098,-2.60166 -0.28996,-1.32368 -0.83252,-3.79428 -1.20572,-5.49024 -0.37319,-1.6959497 -1.18931,-5.4526197 -1.8136,-8.3481497 -1.29449,-6.00397 -1.41372,-6.47816 -1.58359,-6.29796 -0.0679,0.072 -0.87763,5.17316 -1.79954,11.336 -0.9219,6.1628297 -1.74424,11.2732497 -1.82745,11.3564897 -0.24653,0.24672 -17.89579,0.28946 -18.21609,0.0441 -0.17425,-0.13346 -0.46989,-1.198 -0.95191,-3.42756 -0.38454,-1.77868 -1.19594,-5.5353497 -1.80312,-8.3481597 -0.60716,-2.8128 -1.17689,-5.41878 -1.26609,-5.79106 -0.2462,-1.02774 -1.21228,-5.67135 -1.39256,-6.69357 -0.12647,-0.71719 -0.0632,-2.39484 0.30789,-8.17013 0.25687,-3.9972 0.5061,-7.33083 0.55385,-7.40806 0.0507,-0.0821 2.0477,-0.14042 4.81026,-0.14042 h 4.72346 z"
       style="fill:#ffffff;stroke-width:0.15041728" /><path
       d="m 11.099832,-89.412885 c 1.168131,0 2.304205,0.257625 3.408225,0.77286 1.104007,0.51525 2.012162,1.20714 2.72443,2.075692 v 0 l -2.02997,2.075685 c -0.52708,-0.633 -1.132516,-1.118812 -1.816287,-1.4574 -0.683782,-0.33858 -1.417416,-0.50787 -2.20091,-0.50787 -0.69803,0 -1.3426403,0.128798 -1.9338173,0.386423 -0.591189,0.257617 -1.10402,0.607252 -1.538505,1.048882 -0.434497,0.441638 -0.776376,0.967935 -1.025674,1.578855 -0.249297,0.610943 -0.373946,1.269705 -0.373946,1.976325 0,0.72135 0.121033,1.387478 0.363269,1.998405 0.242168,0.610935 0.576929,1.140893 1.004296,1.589895 0.427356,0.448995 0.936639,0.802305 1.527817,1.05993 0.591188,0.25761 1.2215493,0.38643 1.8910723,0.38643 0.797755,0 1.552754,-0.180337 2.265032,-0.541005 0.712278,-0.360675 1.33194,-0.8796 1.859018,-1.556775 v 0 l 2.094081,2.141948 c -0.69802,0.88326 -1.609734,1.586197 -2.735119,2.108805 -1.125386,0.5226 -2.286386,0.7839 -3.483012,0.7839 -1.1111373,0 -2.1546063,-0.206093 -3.1304183,-0.618285 -0.975812,-0.4122 -1.819846,-0.97161 -2.532124,-1.678223 -0.712267,-0.706612 -1.27496,-1.549402 -1.688079,-2.528362 -0.413119,-0.97896 -0.619673,-2.02785 -0.619673,-3.146663 0,-1.118805 0.202995,-2.16402 0.608984,-3.135622 0.406001,-0.971595 0.965123,-1.81071 1.67739,-2.51733 0.712278,-0.706605 1.556312,-1.266015 2.532135,-1.678208 0.975813,-0.4122 2.026412,-0.618292 3.1517853,-0.618292 z m 40.492582,-0.02213 c 1.111149,0 2.151071,0.206092 3.119754,0.618292 0.968693,0.412193 1.805609,0.975278 2.510757,1.689255 0.705149,0.713985 1.264272,1.56045 1.677391,2.53941 0.413118,0.978968 0.619672,2.020493 0.619672,3.124575 0,1.104098 -0.206554,2.14563 -0.619672,3.124583 -0.413119,0.978967 -0.972242,1.825432 -1.677391,2.539402 -0.705148,0.713978 -1.542064,1.277078 -2.510757,1.689263 -0.968683,0.4122 -2.008605,0.618292 -3.119754,0.618292 -1.096901,0 -2.12967,-0.206092 -3.098376,-0.618292 -0.968694,-0.412185 -1.805597,-0.975285 -2.510746,-1.689263 -0.705149,-0.71397 -1.264283,-1.560435 -1.67739,-2.539402 -0.41313,-0.978953 -0.619684,-2.020485 -0.619684,-3.124583 0,-1.104082 0.206554,-2.145607 0.619684,-3.124575 0.413107,-0.97896 0.972241,-1.825425 1.67739,-2.53941 0.705149,-0.713977 1.542052,-1.277062 2.510746,-1.689255 0.968706,-0.4122 2.001475,-0.618292 3.098376,-0.618292 z m 0,2.93688 c -0.669534,0 -1.292766,0.128812 -1.869696,0.386445 -0.57694,0.25761 -1.075535,0.61092 -1.495784,1.059907 -0.420226,0.44901 -0.751429,0.98265 -0.993607,1.600943 -0.24218,0.618292 -0.36327,1.280745 -0.36327,1.987357 0,0.721343 0.121044,1.387478 0.36327,1.998405 0.242178,0.610943 0.573381,1.140893 0.993607,1.589895 0.420249,0.449003 0.918844,0.802305 1.495784,1.059923 0.57693,0.257632 1.200162,0.386437 1.869696,0.386437 0.669546,0 1.296349,-0.128805 1.880407,-0.386437 0.58406,-0.257618 1.086202,-0.61092 1.506451,-1.059923 0.420226,-0.449002 0.751451,-0.978952 0.993608,-1.589895 0.242179,-0.610927 0.363268,-1.277062 0.363268,-1.998405 0,-0.706612 -0.121044,-1.369065 -0.363268,-1.987357 -0.242157,-0.618293 -0.573382,-1.151933 -0.993608,-1.600943 -0.420249,-0.448987 -0.922391,-0.802297 -1.506451,-1.059907 -0.584058,-0.257633 -1.210861,-0.386445 -1.880407,-0.386445 z M 98.55954,-89.19212 v 2.82648 H 90.375555 V -73.7348 H 87.27717 v -15.457263 z m 39.06092,0 v 2.82648 h -8.18399 v 12.63084 h -3.09837 v -15.457263 z m 39.36007,0 v 2.78232 h -8.48314 v 3.66558 h 5.53435 v 2.693985 h -5.53435 v 3.533085 h 8.39767 v 2.782312 H 165.39902 V -89.1921 Z m 34.35993,-0.220815 c 1.16814,0 2.3042,0.257625 3.40822,0.772867 1.10401,0.515243 2.01216,1.207148 2.72444,2.075693 v 0 l -2.02998,2.075692 c -0.52708,-0.633015 -1.13251,-1.118812 -1.81628,-1.4574 -0.68379,-0.338602 -1.41742,-0.507885 -2.20092,-0.507885 -0.69803,0 -1.34264,0.128805 -1.93382,0.38643 -0.59118,0.257625 -1.10401,0.607253 -1.5385,1.04889 -0.43449,0.441638 -0.77638,0.967913 -1.02567,1.578848 -0.2493,0.610927 -0.37395,1.269705 -0.37395,1.976317 0,0.721343 0.12103,1.387478 0.36326,1.998405 0.24218,0.610943 0.57694,1.140893 1.00431,1.589895 0.42736,0.449003 0.93664,0.802305 1.52781,1.059923 0.59119,0.257632 1.22155,0.386437 1.89108,0.386437 0.79775,0 1.55276,-0.180337 2.26503,-0.541005 0.71227,-0.360667 1.33193,-0.879592 1.85901,-1.556767 v 0 l 2.09409,2.141932 c -0.69802,0.883275 -1.60973,1.586213 -2.73511,2.10882 -1.1254,0.522593 -2.2864,0.7839 -3.48302,0.7839 -1.11114,0 -2.15461,-0.206092 -3.13042,-0.618292 -0.97582,-0.412185 -1.81984,-0.971595 -2.53213,-1.678223 -0.71226,-0.706605 -1.27496,-1.549395 -1.68808,-2.528355 -0.41311,-0.97896 -0.61967,-2.02785 -0.61967,-3.14667 0,-1.118812 0.203,-2.164012 0.609,-3.135615 0.40599,-0.971602 0.9651,-1.810702 1.67739,-2.51733 0.71228,-0.70662 1.55631,-1.266015 2.53212,-1.678207 0.97581,-0.412193 2.0264,-0.6183 3.15179,-0.6183 z m 40.98406,0.220815 v 12.630855 h 5.02149 v 2.826472 h -13.16275 v -2.826472 h 5.04286 v -12.63079 z m 35.49243,0 v 15.45732 h -3.09837 v -15.457263 z m 35.68475,-0.242895 c 1.11116,0 2.15107,0.206092 3.11976,0.618292 0.96868,0.412193 1.8056,0.975278 2.51075,1.689255 0.70515,0.713985 1.26428,1.56045 1.6774,2.53941 0.4131,0.978968 0.61967,2.020493 0.61967,3.124575 0,1.104098 -0.20657,2.14563 -0.61967,3.124583 -0.41312,0.978967 -0.97225,1.825432 -1.6774,2.539402 -0.70515,0.713978 -1.54207,1.277078 -2.51075,1.689263 -0.96869,0.4122 -2.0086,0.618292 -3.11976,0.618292 -1.09689,0 -2.12969,-0.206092 -3.09836,-0.618292 -0.96869,-0.412185 -1.8056,-0.975285 -2.51075,-1.689263 -0.70515,-0.71397 -1.26429,-1.560435 -1.67741,-2.539402 -0.41312,-0.978953 -0.61969,-2.020485 -0.61969,-3.124583 0,-1.104082 0.20657,-2.145607 0.61969,-3.124575 0.41312,-0.97896 0.97226,-1.825425 1.67741,-2.53941 0.70515,-0.713977 1.54206,-1.277062 2.51075,-1.689255 0.96867,-0.4122 2.00147,-0.618292 3.09836,-0.618292 z m 0,2.93688 c -0.66952,0 -1.29277,0.128812 -1.8697,0.386445 -0.57694,0.25761 -1.07553,0.61092 -1.49577,1.059907 -0.42024,0.44901 -0.75144,0.98265 -0.99362,1.600943 -0.24217,0.618292 -0.36326,1.280745 -0.36326,1.987357 0,0.721343 0.12103,1.387478 0.36326,1.998405 0.24218,0.610943 0.57338,1.140893 0.99362,1.589895 0.42024,0.449003 0.91883,0.802305 1.49577,1.059923 0.57693,0.257632 1.20018,0.386437 1.8697,0.386437 0.66954,0 1.29635,-0.128805 1.8804,-0.386437 0.58407,-0.257618 1.0862,-0.61092 1.50645,-1.059923 0.42024,-0.449002 0.75145,-0.978952 0.99362,-1.589895 0.24217,-0.610927 0.36326,-1.277062 0.36326,-1.998405 0,-0.706612 -0.12103,-1.369065 -0.36326,-1.987357 -0.24217,-0.618293 -0.57338,-1.151933 -0.99362,-1.600943 -0.42025,-0.448987 -0.92238,-0.802297 -1.50645,-1.059907 -0.58405,-0.257633 -1.21086,-0.386445 -1.8804,-0.386445 z m 38.61219,-2.693985 v 10.334295 l 7.62842,-10.334295 h 2.73513 v 15.45732 h -2.90607 v -10.00306 l -7.4361,10.003065 h -2.94881 v -15.457268 z"
       id="COLLECTION"
       inkscape:connector-curvature="0"
       style="fill:#ffffff;fill-rule:nonzero;stroke:none;stroke-width:1.32858956" /></g></svg>