<?xml version="1.0" encoding="UTF-8" standalone="no"?>
<svg
   xmlns:dc="http://purl.org/dc/elements/1.1/"
   xmlns:cc="http://creativecommons.org/ns#"
   xmlns:rdf="http://www.w3.org/1999/02/22-rdf-syntax-ns#"
   xmlns:svg="http://www.w3.org/2000/svg"
   xmlns="http://www.w3.org/2000/svg"
   xmlns:sodipodi="http://sodipodi.sourceforge.net/DTD/sodipodi-0.dtd"
   xmlns:inkscape="http://www.inkscape.org/namespaces/inkscape"
   width="500"
   height="200"
   viewBox="0 0 500 200"
   version="1.1"
   id="svg95"
   sodipodi:docname="Midway.svg"
   inkscape:version="0.92.5 (2060ec1f9f, 2020-04-08)">
  <metadata
     id="metadata101">
    <rdf:RDF>
      <cc:Work
         rdf:about="">
        <dc:format>image/svg+xml</dc:format>
        <dc:type
           rdf:resource="http://purl.org/dc/dcmitype/StillImage" />
        <dc:title>mainlogo</dc:title>
      </cc:Work>
    </rdf:RDF>
  </metadata>
  <defs
     id="defs99">
    <clipPath
       clipPathUnits="userSpaceOnUse"
       id="clipPath909">
      <g
         style="fill:#aa8800;stroke:none"
         id="use911"
         inkscape:label="Clip">
        <g
           id="g1939"
           transform="matrix(2.0794317,0,0,2.0794317,186.00321,-131.99158)"
           style="fill:#aa8800;stroke:none">
          <path
             d="m -146.65192,109.06017 v 4.30384 h -1.16463 v -4.30384 h -1.77166 v -0.88128 h 4.77092 v 0.88128 z"
             style="font-style:normal;font-variant:normal;font-weight:normal;font-stretch:normal;font-size:medium;line-height:1.25;font-family:Eurostile;-inkscape-font-specification:Eurostile;letter-spacing:0px;word-spacing:0px;fill:#aa8800;fill-opacity:1;stroke:none;stroke-width:0.35733205;stroke-miterlimit:4;stroke-dasharray:none;stroke-opacity:1"
             id="path1925"
             inkscape:connector-curvature="0" />
          <path
             d="m -141.67415,108.13331 q 1.67275,0 2.15389,0.47103 0.48114,0.46723 0.48114,2.09684 0,1.78155 -0.48564,2.24498 -0.48114,0.46344 -2.33824,0.46344 -1.67275,0 -2.16288,-0.45584 -0.49014,-0.45963 -0.49014,-2.01707 0,-1.85373 0.48114,-2.32856 0.48114,-0.47482 2.36073,-0.47482 z m -0.0899,0.84329 q -1.17362,0 -1.37147,0.25451 -0.19785,0.25451 -0.19785,1.76256 0,1.1168 0.22933,1.34471 0.23382,0.22792 1.36697,0.22792 1.08369,0 1.29953,-0.25451 0.21584,-0.2583 0.21584,-1.55743 0,-1.30293 -0.20685,-1.53845 -0.20235,-0.23931 -1.3355,-0.23931 z"
             style="font-style:normal;font-variant:normal;font-weight:normal;font-stretch:normal;font-size:medium;line-height:1.25;font-family:Eurostile;-inkscape-font-specification:Eurostile;letter-spacing:0px;word-spacing:0px;fill:#aa8800;fill-opacity:1;stroke:none;stroke-width:0.35733205;stroke-miterlimit:4;stroke-dasharray:none;stroke-opacity:1"
             id="path1927"
             inkscape:connector-curvature="0" />
          <path
             d="m -134.53799,112.36877 h -2.64852 l -0.38221,0.99524 h -1.23208 l 2.04147,-5.18512 h 1.74919 l 2.07294,5.18512 h -1.20959 z m -0.2698,-0.72554 -1.06121,-2.70082 -1.04322,2.70082 z"
             style="font-style:normal;font-variant:normal;font-weight:normal;font-stretch:normal;font-size:medium;line-height:1.25;font-family:Eurostile;-inkscape-font-specification:Eurostile;letter-spacing:0px;word-spacing:0px;fill:#aa8800;fill-opacity:1;stroke:none;stroke-width:0.35733205;stroke-miterlimit:4;stroke-dasharray:none;stroke-opacity:1"
             id="path1929"
             inkscape:connector-curvature="0" />
          <path
             d="m -132.40659,113.36401 v -5.18512 h 2.47314 0.30577 q 1.24557,0 1.67725,0.36847 0.43617,0.36466 0.43617,1.41309 0,1.04082 -0.41369,1.38269 -0.41369,0.34188 -1.67274,0.34188 l -0.2698,0.004 h -1.37148 v 1.67519 z m 1.16462,-2.50329 h 1.32651 q 0.79141,0 1.00275,-0.15195 0.21584,-0.15574 0.21584,-0.72933 0,-0.65716 -0.17987,-0.81291 -0.17537,-0.15954 -0.92181,-0.15954 h -1.44342 z"
             style="font-style:normal;font-variant:normal;font-weight:normal;font-stretch:normal;font-size:medium;line-height:1.25;font-family:Eurostile;-inkscape-font-specification:Eurostile;letter-spacing:0px;word-spacing:0px;fill:#aa8800;fill-opacity:1;stroke:none;stroke-width:0.35733205;stroke-miterlimit:4;stroke-dasharray:none;stroke-opacity:1"
             id="path1931"
             inkscape:connector-curvature="0" />
          <path
             d="m -125.61218,108.17889 v 4.30384 h 2.87784 v 0.88128 h -4.04247 v -5.18512 z"
             style="font-style:normal;font-variant:normal;font-weight:normal;font-stretch:normal;font-size:medium;line-height:1.25;font-family:Eurostile;-inkscape-font-specification:Eurostile;letter-spacing:0px;word-spacing:0px;fill:#aa8800;fill-opacity:1;stroke:none;stroke-width:0.35733205;stroke-miterlimit:4;stroke-dasharray:none;stroke-opacity:1"
             id="path1933"
             inkscape:connector-curvature="0" />
          <path
             d="m -117.78215,112.36877 h -2.64851 l -0.38222,0.99524 h -1.23208 l 2.04147,-5.18512 h 1.74919 l 2.07295,5.18512 h -1.20959 z m -0.2698,-0.72554 -1.0612,-2.70082 -1.04322,2.70082 z"
             style="font-style:normal;font-variant:normal;font-weight:normal;font-stretch:normal;font-size:medium;line-height:1.25;font-family:Eurostile;-inkscape-font-specification:Eurostile;letter-spacing:0px;word-spacing:0px;fill:#aa8800;fill-opacity:1;stroke:none;stroke-width:0.35733205;stroke-miterlimit:4;stroke-dasharray:none;stroke-opacity:1"
             id="path1935"
             inkscape:connector-curvature="0" />
          <path
             d="m -109.66276,108.17889 v 5.18512 h -1.97402 l -1.75368,-2.84517 q -0.1304,-0.21272 -0.4092,-0.74453 l -0.19785,-0.37226 -0.19335,-0.37227 h -0.045 l 0.018,0.34188 0.0135,0.33808 0.009,0.67995 v 2.97432 h -1.16463 v -5.18512 h 1.97403 l 1.5963,2.62865 q 0.21134,0.34947 0.49013,0.84709 l 0.23383,0.42165 0.23382,0.42544 h 0.0405 l -0.0135,-0.33428 -0.0135,-0.33427 -0.009,-0.66856 v -2.98572 z"
             style="font-style:normal;font-variant:normal;font-weight:normal;font-stretch:normal;font-size:medium;line-height:1.25;font-family:Eurostile;-inkscape-font-specification:Eurostile;letter-spacing:0px;word-spacing:0px;fill:#aa8800;fill-opacity:1;stroke:none;stroke-width:0.35733205;stroke-miterlimit:4;stroke-dasharray:none;stroke-opacity:1"
             id="path1937"
             inkscape:connector-curvature="0" />
        </g>
      </g>
    </clipPath>
    <linearGradient
       id="SVGID_2_"
       gradientUnits="userSpaceOnUse"
       x1="730.24628"
       y1="285.81149"
       x2="730.24628"
       y2="33.963799"
       gradientTransform="matrix(0.43499454,0,0,-0.43499454,9.1046148,160.45593)">
      <stop
         offset="0"
         style="stop-color:#ECEFEB"
         id="stop155" />
      <stop
         offset="0.1746"
         style="stop-color:#EAECE9"
         id="stop157" />
      <stop
         offset="0.2796"
         style="stop-color:#E1E4E0"
         id="stop159" />
      <stop
         offset="0.3661"
         style="stop-color:#D3D6D3"
         id="stop161" />
      <stop
         offset="0.4427"
         style="stop-color:#C0C1BF"
         id="stop163" />
      <stop
         offset="0.5127"
         style="stop-color:#A6A7A6"
         id="stop165" />
      <stop
         offset="0.5769"
         style="stop-color:#878787"
         id="stop167" />
      <stop
         offset="0.6"
         style="stop-color:#7A7A7A"
         id="stop169" />
      <stop
         offset="1"
         style="stop-color:#343732"
         id="stop171" />
    </linearGradient>
    <linearGradient
       id="SVGID_1_"
       gradientUnits="userSpaceOnUse"
       x1="954.83661"
       y1="279.914"
       x2="954.83661"
       y2="15.5362"
       gradientTransform="matrix(0.43499454,0,0,-0.43499454,9.1046148,160.45593)">
      <stop
         offset="0"
         style="stop-color:#ECEFEB"
         id="stop132" />
      <stop
         offset="0.1746"
         style="stop-color:#EAECE9"
         id="stop134" />
      <stop
         offset="0.2796"
         style="stop-color:#E1E4E0"
         id="stop136" />
      <stop
         offset="0.3661"
         style="stop-color:#D3D6D3"
         id="stop138" />
      <stop
         offset="0.4427"
         style="stop-color:#C0C1BF"
         id="stop140" />
      <stop
         offset="0.5127"
         style="stop-color:#A6A7A6"
         id="stop142" />
      <stop
         offset="0.5769"
         style="stop-color:#878787"
         id="stop144" />
      <stop
         offset="0.6"
         style="stop-color:#7A7A7A"
         id="stop146" />
      <stop
         offset="1"
         style="stop-color:#343732"
         id="stop148" />
    </linearGradient>
    <radialGradient
       id="SVGID_1_-3"
       cx="-19.067499"
       cy="480.04959"
       r="1"
       gradientTransform="matrix(-7.2191342,25.86842,25.86842,7.2191342,-12511.769,-2887.2055)"
       gradientUnits="userSpaceOnUse">
      <stop
         offset="1.562500e-02"
         style="stop-color:#FEFEFE"
         id="stop108" />
      <stop
         offset="1"
         style="stop-color:#0549A0"
         id="stop110" />
    </radialGradient>
  </defs>
  <sodipodi:namedview
     pagecolor="#ffffff"
     bordercolor="#666666"
     borderopacity="1"
     objecttolerance="10"
     gridtolerance="10"
     guidetolerance="10"
     inkscape:pageopacity="0"
     inkscape:pageshadow="2"
     inkscape:window-width="1366"
     inkscape:window-height="743"
     id="namedview97"
     showgrid="false"
     inkscape:pagecheckerboard="true"
     inkscape:zoom="1.3948125"
     inkscape:cx="294.81764"
     inkscape:cy="64.429926"
     inkscape:window-x="0"
     inkscape:window-y="0"
     inkscape:window-maximized="1"
     inkscape:current-layer="svg95" />
  <title
     id="title70">mainlogo</title>
  <path
     style="fill:#ffffff;stroke-width:1.2490871"
     inkscape:connector-curvature="0"
     id="path2999"
     class="st0"
     d="M 118.61054,59.377009 79.639026,107.21704 91.505354,60.376276 33.048077,114.71156 C 23.05538,109.71522 17.059761,102.97014 17.059761,95.350713 c 0,-17.986856 33.225718,-34.47481 73.82105,-36.848077 9.742879,-0.499626 19.111029,-0.124933 27.729729,0.874373 z m 2.62308,59.831271 15.11395,-56.208924 c 17.23742,4.996348 28.22938,13.739958 28.22938,24.107381 0.1249,13.115413 -17.73704,25.606283 -43.34333,32.101543 z M 47.537487,159.05415 64.400164,97.59907 30.300085,132.32369 C 11.189051,125.3288 -0.55236775,114.21193 -0.42745875,101.34633 c 0,-23.607746 40.59533175,-44.71732 90.43390875,-46.84076 10.99196,-0.49964 21.6092,0 31.47699,1.373986 L 146.715,24.902193 137.59667,58.877369 c 25.7312,6.495254 42.9686,19.235941 42.9686,34.724621 0,22.73338 -37.47262,43.0935 -84.688111,46.46604 L 111.24093,85.233106 47.537487,159.05415" />
  <path
     style="fill:#ffffff;stroke-width:1.2490871"
     inkscape:connector-curvature="0"
     id="path3001"
     class="st1"
     d="m 219.28698,66.871529 h -20.85976 l -16.86268,57.832731 h 15.98832 l 6.62016,-22.60848 2.74799,-13.240321 -1.62382,35.848801 h 12.36598 l 19.11102,-35.224257 -4.99634,12.615777 -6.62016,22.60848 h 15.8634 l 16.86268,-57.832731 h -20.73484 l -19.36086,35.099341 1.49891,-35.099341" />
  <path
     style="fill:#ffffff;stroke-width:1.2490871"
     inkscape:connector-curvature="0"
     id="path3003"
     class="st1"
     d="m 264.75375,66.871529 -16.86268,57.832731 h 17.2374 l 16.86268,-57.832731 h -17.2374" />
  <path
     style="fill:#ffffff;stroke-width:1.2490871"
     inkscape:connector-curvature="0"
     id="path3005"
     class="st1"
     d="m 301.97654,80.611484 c 4.37181,-0.124907 7.61944,0.874361 9.8678,2.872901 2.24835,1.998538 2.49817,5.870709 0.99927,11.491601 -0.99927,3.372536 -2.12346,5.995614 -3.49746,8.119064 -1.37398,2.12345 -2.87289,3.74726 -4.62161,4.99635 -1.74872,1.24909 -3.49745,1.99854 -5.49599,2.37327 -1.99853,0.37472 -3.99708,0.49963 -6.24544,0.37472 z M 289.11095,66.871529 272.24827,124.70426 h 22.48356 c 3.99708,0 7.86926,-0.49964 11.61652,-1.62381 3.62235,-1.12418 7.1198,-2.748 10.1176,-5.24617 3.12272,-2.37327 5.87071,-5.49598 8.24397,-9.36815 2.37327,-3.87217 4.24691,-8.493795 5.7458,-13.989779 1.49891,-5.495982 1.62382,-10.117605 0.62455,-13.615049 -0.99927,-3.622353 -2.62308,-6.370345 -4.87144,-8.493793 -2.24836,-2.123448 -4.87144,-3.497444 -7.74433,-4.371805 -2.87291,-0.749452 -5.49599,-1.249081 -7.86925,-1.249081 h -21.4843 v 0.124933" />
  <path
     style="fill:#ffffff;stroke-width:1.2490871"
     inkscape:connector-curvature="0"
     id="path3007"
     class="st1"
     d="m 337.70043,66.871529 -3.49744,57.832731 h 16.73777 l 15.36378,-33.225718 -3.49746,33.225718 h 16.73778 L 408.7735,66.871529 h -16.11323 l -15.98832,35.099341 4.62163,-35.099341 h -15.61359 l -15.11396,35.099341 4.37181,-35.099341 h -17.23741" />
  <path
     style="fill:#ffffff;stroke-width:1.2490871"
     inkscape:connector-curvature="0"
     id="path3009"
     class="st1"
     d="M 414.39439,105.2185 424.88672,86.357285 424.51199,105.2185 Z M 421.764,66.871529 386.28992,124.70426 h 17.36232 l 3.87216,-7.49452 h 16.73778 l -0.49964,7.49452 h 17.36232 L 439.50104,66.871529 H 421.764" />
  <path
     style="fill:#ffffff;stroke-width:1.2490871"
     inkscape:connector-curvature="0"
     id="path3011"
     class="st1"
     d="m 443.62303,66.871529 8.36888,36.972981 -6.12052,20.85975 h 16.73776 l 6.12053,-20.85975 30.47772,-36.972981 h -19.73557 l -13.86487,18.736304 -2.99781,-18.736304 h -18.98612" />
  <path
     d="m 11.744584,198.57809 c 1.569845,0 3.096616,-0.33502 4.58031,-1.00508 1.483696,-0.67005 2.704155,-1.56984 3.661378,-2.69937 v 0 l -2.728086,-2.69936 c -0.708344,0.82321 -1.521984,1.45497 -2.440917,1.8953 -0.918934,0.44032 -1.904874,0.66048 -2.957819,0.66048 -0.938078,0 -1.804364,-0.16751 -2.5988587,-0.50254 -0.794495,-0.33503 -1.483695,-0.78971 -2.067601,-1.36404 -0.583906,-0.57434 -1.043373,-1.25875 -1.378401,-2.05325 -0.335028,-0.79449 -0.502542,-1.65121 -0.502542,-2.57014 0,-0.93808 0.162728,-1.80436 0.488184,-2.59886 0.325455,-0.79449 0.77535,-1.4837 1.349684,-2.0676 0.574333,-0.58391 1.258748,-1.04337 2.053242,-1.3784 0.794495,-0.33503 1.6416367,-0.50254 2.5414267,-0.50254 1.072089,0 2.086745,0.23452 3.043968,0.70355 0.957222,0.46904 1.790006,1.14389 2.498352,2.02453 v 0 l 2.814234,-2.78552 c -0.938078,-1.14866 -2.163324,-2.06281 -3.675736,-2.74244 -1.512412,-0.67963 -3.072683,-1.01944 -4.680818,-1.01944 -1.493268,0 -2.8955987,0.26802 -4.2069937,0.80406 -1.311395,0.53605 -2.445704,1.26354 -3.402927,2.18247 -0.957223,0.91894 -1.713429,2.01496 -2.268618,3.28806 -0.555189,1.27311 -0.832783,2.63715 -0.832783,4.09213 0,1.45498 0.272808,2.81423 0.818425,4.07777 0.545617,1.26353 1.297037,2.35477 2.25426,3.2737 0.957222,0.91894 2.091531,1.64642 3.402926,2.18247 1.311395,0.53604 2.7232987,0.80406 4.2357107,0.80406 z m 54.41812,0.0287 c 1.493268,0 2.890813,-0.26802 4.192636,-0.80406 1.301822,-0.53605 2.42656,-1.26832 3.374209,-2.19683 0.947651,-0.9285 1.699072,-2.02931 2.254261,-3.30242 0.55519,-1.2731 0.832784,-2.62757 0.832784,-4.06341 0,-1.43583 -0.277594,-2.7903 -0.832784,-4.06341 -0.555189,-1.2731 -1.30661,-2.37391 -2.254261,-3.30242 -0.947649,-0.9285 -2.072387,-1.66078 -3.374209,-2.19682 -1.301823,-0.53605 -2.699368,-0.80407 -4.192636,-0.80407 -1.474123,0 -2.862096,0.26802 -4.163919,0.80407 -1.301822,0.53604 -2.42656,1.26832 -3.37421,2.19682 -0.947651,0.92851 -1.699071,2.02932 -2.254259,3.30242 -0.555189,1.27311 -0.832784,2.62758 -0.832784,4.06341 0,1.43584 0.277595,2.79031 0.832784,4.06341 0.555188,1.27311 1.306608,2.37392 2.254259,3.30242 0.94765,0.92851 2.072388,1.66078 3.37421,2.19683 1.301823,0.53604 2.689796,0.80406 4.163919,0.80406 z m 0,-3.81931 c -0.899789,0 -1.737359,-0.16752 -2.512709,-0.50255 -0.775351,-0.33502 -1.445407,-0.79449 -2.010168,-1.3784 -0.564762,-0.5839 -1.009871,-1.27789 -1.335326,-2.08196 -0.325456,-0.80406 -0.488184,-1.66556 -0.488184,-2.5845 0,-0.93808 0.162728,-1.80436 0.488184,-2.59886 0.325455,-0.79449 0.770564,-1.48369 1.335326,-2.0676 0.564761,-0.5839 1.234817,-1.04337 2.010168,-1.3784 0.77535,-0.33503 1.61292,-0.50254 2.512709,-0.50254 0.899789,0 1.742145,0.16751 2.527068,0.50254 0.784922,0.33503 1.459765,0.7945 2.024526,1.3784 0.564762,0.58391 1.00987,1.27311 1.335326,2.0676 0.325456,0.7945 0.488184,1.66078 0.488184,2.59886 0,0.91894 -0.162728,1.78044 -0.488184,2.5845 -0.325456,0.80407 -0.770564,1.49806 -1.335326,2.08196 -0.564761,0.58391 -1.239604,1.04338 -2.024526,1.3784 -0.784923,0.33503 -1.627279,0.50255 -2.527068,0.50255 z m 63.119266,3.50343 v -3.67573 h -10.99849 v -16.42595 h -4.16391 v 20.10168 z m 52.49409,0 v -3.67573 h -10.9985 v -16.42595 h -4.16392 v 20.10168 z m 52.89613,0 v -3.6183 h -11.40053 v -4.76697 h 7.43763 v -3.50343 h -7.43763 v -4.59467 h 11.28567 v -3.61831 h -15.44958 v 20.10168 z m 46.17643,0.28717 c 1.56984,0 3.09661,-0.33503 4.58031,-1.00508 1.48369,-0.67006 2.70414,-1.56985 3.66137,-2.69937 v 0 l -2.72808,-2.69937 c -0.70835,0.82321 -1.52199,1.45498 -2.44092,1.8953 -0.91893,0.44032 -1.90488,0.66048 -2.95781,0.66048 -0.93808,0 -1.80438,-0.16751 -2.59887,-0.50254 -0.79449,-0.33503 -1.48369,-0.78971 -2.0676,-1.36404 -0.58391,-0.57434 -1.04337,-1.25875 -1.3784,-2.05324 -0.33503,-0.7945 -0.50255,-1.65121 -0.50255,-2.57015 0,-0.93808 0.16274,-1.80436 0.48819,-2.59886 0.32545,-0.79449 0.77535,-1.48369 1.34968,-2.0676 0.57433,-0.5839 1.25876,-1.04337 2.05325,-1.3784 0.7945,-0.33503 1.64163,-0.50254 2.54143,-0.50254 1.07208,0 2.08675,0.23452 3.04396,0.70356 0.95723,0.46904 1.79001,1.14388 2.49836,2.02452 v 0 l 2.81423,-2.78551 c -0.93808,-1.14867 -2.16332,-2.06282 -3.67574,-2.74245 -1.51241,-0.67963 -3.07268,-1.01944 -4.68081,-1.01944 -1.49327,0 -2.8956,0.26802 -4.207,0.80407 -1.3114,0.53604 -2.44571,1.26353 -3.40292,2.18247 -0.95723,0.91893 -1.71344,2.01495 -2.26863,3.28806 -0.55518,1.2731 -0.83278,2.63714 -0.83278,4.09212 0,1.45498 0.27281,2.81424 0.81842,4.07777 0.54563,1.26354 1.29704,2.35477 2.25427,3.2737 0.95723,0.91894 2.09153,1.64643 3.40292,2.18247 1.3114,0.53605 2.72331,0.80407 4.23572,0.80407 z m 55.07861,-0.28717 v -16.42592 h 6.74841 v -3.67574 h -17.68945 v 3.67574 h 6.77712 v 16.42594 z m 47.6984,0 v -20.10168 h -4.16392 v 20.10168 z m 47.95687,0.31588 c 1.49326,0 2.89081,-0.26802 4.19262,-0.80406 1.30183,-0.53605 2.42656,-1.26832 3.37422,-2.19683 0.94765,-0.9285 1.69908,-2.02931 2.25426,-3.30242 0.55519,-1.2731 0.83279,-2.62757 0.83279,-4.06341 0,-1.43583 -0.2776,-2.7903 -0.83279,-4.06341 -0.55518,-1.2731 -1.30661,-2.37391 -2.25426,-3.30242 -0.94766,-0.9285 -2.07239,-1.66078 -3.37422,-2.19682 -1.30181,-0.53605 -2.69936,-0.80407 -4.19262,-0.80407 -1.47412,0 -2.8621,0.26802 -4.16392,0.80407 -1.30183,0.53604 -2.42656,1.26832 -3.37422,2.19682 -0.94765,0.92851 -1.69906,2.02932 -2.25425,3.30242 -0.5552,1.27311 -0.83279,2.62758 -0.83279,4.06341 0,1.43584 0.27759,2.79031 0.83279,4.06341 0.55519,1.27311 1.3066,2.37392 2.25425,3.30242 0.94766,0.92851 2.07239,1.66078 3.37422,2.19683 1.30182,0.53604 2.6898,0.80406 4.16392,0.80406 z m 0,-3.81931 c -0.89979,0 -1.73736,-0.16752 -2.51271,-0.50255 -0.77536,-0.33502 -1.44541,-0.79449 -2.01017,-1.3784 -0.56476,-0.5839 -1.00987,-1.27789 -1.33532,-2.08196 -0.32547,-0.80406 -0.48819,-1.66556 -0.48819,-2.5845 0,-0.93808 0.16272,-1.80436 0.48819,-2.59886 0.32545,-0.79449 0.77056,-1.48369 1.33532,-2.0676 0.56476,-0.5839 1.23481,-1.04337 2.01017,-1.3784 0.77535,-0.33503 1.61292,-0.50254 2.51271,-0.50254 0.89978,0 1.74214,0.16751 2.52706,0.50254 0.78492,0.33503 1.45976,0.7945 2.02452,1.3784 0.56476,0.58391 1.00988,1.27311 1.33534,2.0676 0.32545,0.7945 0.48818,1.66078 0.48818,2.59886 0,0.91894 -0.16273,1.78044 -0.48818,2.5845 -0.32546,0.80407 -0.77058,1.49806 -1.33534,2.08196 -0.56476,0.58391 -1.2396,1.04338 -2.02452,1.3784 -0.78492,0.33503 -1.62728,0.50255 -2.52706,0.50255 z m 51.89103,3.50343 V 184.8515 l 10.25186,13.43941 h 3.67574 v -20.10168 h -3.90548 v 13.00866 l -9.9934,-13.00866 h -3.9629 v 20.10168 z"
     id="COLLECTION"
     inkscape:connector-curvature="0"
     style="fill:#ffffff;fill-rule:nonzero;stroke:none;stroke-width:1.19652843" />
</svg>
