<?xml version="1.0" encoding="UTF-8" standalone="no"?>
<svg
   xmlns:dc="http://purl.org/dc/elements/1.1/"
   xmlns:cc="http://creativecommons.org/ns#"
   xmlns:rdf="http://www.w3.org/1999/02/22-rdf-syntax-ns#"
   xmlns:svg="http://www.w3.org/2000/svg"
   xmlns="http://www.w3.org/2000/svg"
   xmlns:sodipodi="http://sodipodi.sourceforge.net/DTD/sodipodi-0.dtd"
   xmlns:inkscape="http://www.inkscape.org/namespaces/inkscape"
   width="500"
   height="200"
   viewBox="0 0 500 200"
   version="1.1"
   id="svg32"
   sodipodi:docname="msx2.svg"
   style="fill:none"
   inkscape:version="0.92.5 (2060ec1f9f, 2020-04-08)">
  <metadata
     id="metadata38">
    <rdf:RDF>
      <cc:Work
         rdf:about="">
        <dc:format>image/svg+xml</dc:format>
        <dc:type
           rdf:resource="http://purl.org/dc/dcmitype/StillImage" />
        <dc:title />
      </cc:Work>
    </rdf:RDF>
  </metadata>
  <defs
     id="defs36" />
  <sodipodi:namedview
     pagecolor="#ffffff"
     bordercolor="#666666"
     borderopacity="1"
     objecttolerance="10"
     gridtolerance="10"
     guidetolerance="10"
     inkscape:pageopacity="0"
     inkscape:pageshadow="2"
     inkscape:window-width="1366"
     inkscape:window-height="743"
     id="namedview34"
     showgrid="false"
     inkscape:pagecheckerboard="true"
     inkscape:zoom="1.4784803"
     inkscape:cx="360.00854"
     inkscape:cy="62.315732"
     inkscape:window-x="0"
     inkscape:window-y="0"
     inkscape:window-maximized="1"
     inkscape:current-layer="svg32" />
  <path
     style="fill:#ffffff;stroke-width:1.30309236"
     d="M 43 22.523438 L 43 163.25391 L 390.48828 163.25391 L 390.48828 22.523438 L 43 22.523438 z M 330.33203 42.326172 L 362.99609 42.333984 L 329.96289 90.585938 L 365.89453 143.30078 L 332.71289 143.30078 L 312.96875 115.07812 L 293.06445 143.36719 L 260.09961 143.36719 C 260.99483 141.50976 296.18164 90.582031 296.18164 90.582031 L 281.18359 69.716797 L 217.56055 69.789062 C 214.59471 70.023618 210.95558 69.121627 209.46875 72.46875 C 208.95012 73.577421 208.72546 75.210852 209.32227 76.330078 C 209.837 77.59056 211.02957 78.777969 212.36133 79.148438 L 214.36523 79.298828 L 239.83203 79.298828 C 251.63153 79.59463 262.55072 86.939565 267.66797 97.556641 C 272.20012 106.46809 271.53191 118.64226 266.48242 127.11133 C 260.10248 137.86953 248.7374 143.88576 236.41797 143.44336 L 165.58984 143.44336 C 165.58984 143.44336 154.75032 104.31268 154.67578 104.24609 L 143.75977 143.44336 L 117.92773 143.44922 L 107.53516 104.0957 L 96.171875 143.36523 L 67.59375 143.36523 C 67.59375 143.36523 93.871855 48.788036 95.580078 42.546875 L 119.7168 42.546875 L 131.07422 84.716797 L 142.65625 42.546875 L 166.33984 42.542969 L 186.60547 115.97852 L 233.82227 115.97852 C 237.0813 115.82124 241.61484 116.71156 242.95312 112.70898 C 243.47176 110.91814 243.0303 109.06712 241.76758 107.80664 C 240.57525 106.76468 239.09105 106.47266 237.53516 106.47266 L 212.14453 106.46875 C 200.11438 106.09828 188.16426 98.228756 183.70898 86.652344 C 178.88233 75.065249 181.7054 61.181035 190.53906 52.210938 C 196.77566 45.959091 204.19769 42.840519 212.89062 42.472656 L 296.18555 42.400391 L 312.96875 66.597656 L 330.33203 42.326172 z "
     id="path26" />
  <path
     d="m 395.8661,163.25471 c 0.68673,-6.33172 1.15584,-12.69563 2.1097,-18.98749 1.64972,-10.88355 8.09091,-18.97159 15.97983,-26.10016 5.75576,-5.20195 11.66919,-10.23332 17.26076,-15.60571 3.81545,-3.666897 4.61816,-9.026125 2.53582,-12.847574 -1.61453,-2.963363 -4.26112,-4.2559 -7.43936,-3.573601 -3.1209,0.668878 -4.77583,2.686195 -4.93351,5.814789 -0.12509,2.531648 -0.0261,5.076588 -0.0261,7.853478 -8.48313,0 -16.80728,0 -25.13013,0 -2.81208,-15.805599 9.16986,-32.514629 25.35035,-35.499232 5.76749,-1.063323 11.43855,-0.786156 17.04315,0.77547 17.1904,4.791471 25.40118,20.690369 20.21618,39.00363 -2.04195,7.21119 -6.01508,12.91678 -12.19825,17.34325 -6.37473,4.56501 -12.36244,9.66831 -18.48828,14.57979 -1.37346,1.12183 -1.52983,1.49491 -2.10058,2.88075 11.44636,0 21.68997,0 33.02427,0 0,8.29848 0,16.33035 0,24.36522 -21.0671,-0.003 -42.13549,-0.003 -63.20389,-0.003 z"
     id="path30"
     inkscape:connector-curvature="0"
     style="fill:#ffffff;stroke-width:1.30309236" />
</svg>
