<?xml version="1.0" encoding="UTF-8" standalone="no"?>
<svg
   xmlns:dc="http://purl.org/dc/elements/1.1/"
   xmlns:cc="http://creativecommons.org/ns#"
   xmlns:rdf="http://www.w3.org/1999/02/22-rdf-syntax-ns#"
   xmlns:svg="http://www.w3.org/2000/svg"
   xmlns="http://www.w3.org/2000/svg"
   xmlns:sodipodi="http://sodipodi.sourceforge.net/DTD/sodipodi-0.dtd"
   xmlns:inkscape="http://www.inkscape.org/namespaces/inkscape"
   width="500"
   height="200"
   viewBox="0 0 500 200"
   version="1.1"
   id="svg48"
   sodipodi:docname="msx2+.svg"
   style="fill:none"
   inkscape:version="0.92.5 (2060ec1f9f, 2020-04-08)">
  <metadata
     id="metadata54">
    <rdf:RDF>
      <cc:Work
         rdf:about="">
        <dc:format>image/svg+xml</dc:format>
        <dc:type
           rdf:resource="http://purl.org/dc/dcmitype/StillImage" />
        <dc:title />
      </cc:Work>
    </rdf:RDF>
  </metadata>
  <defs
     id="defs52" />
  <sodipodi:namedview
     pagecolor="#ffffff"
     bordercolor="#666666"
     borderopacity="1"
     objecttolerance="10"
     gridtolerance="10"
     guidetolerance="10"
     inkscape:pageopacity="0"
     inkscape:pageshadow="2"
     inkscape:window-width="1366"
     inkscape:window-height="743"
     id="namedview50"
     showgrid="false"
     inkscape:pagecheckerboard="true"
     inkscape:zoom="1.8249635"
     inkscape:cx="235.41684"
     inkscape:cy="64.107788"
     inkscape:window-x="0"
     inkscape:window-y="0"
     inkscape:window-maximized="1"
     inkscape:current-layer="svg48" />
  <path
     style="fill:#ffffff;stroke-width:1.17835271"
     d="M 10.783203 29.859375 L 10.783203 157.11914 L 325.00781 157.11914 L 325.00781 29.859375 L 10.783203 29.859375 z M 270.60938 47.765625 L 300.14844 47.773438 L 270.27539 91.40625 L 302.76758 139.07422 L 272.76367 139.07422 L 254.9082 113.55469 L 236.91016 139.13477 L 207.10156 139.13477 C 207.91109 137.45515 239.72852 91.402344 239.72852 91.402344 L 226.16602 72.535156 L 168.63477 72.599609 C 165.95283 72.811713 162.66209 71.996721 161.31641 75.023438 C 160.84742 76.02598 160.64391 77.503537 161.18359 78.515625 C 161.64904 79.655445 162.72931 80.727495 163.93359 81.0625 L 165.74609 81.199219 L 188.77344 81.199219 C 199.44342 81.466705 209.31792 88.108238 213.94531 97.708984 C 218.04362 105.7674 217.43917 116.77524 212.87305 124.43359 C 207.10384 134.16195 196.82569 139.60513 185.68555 139.20508 L 121.63867 139.20508 C 121.63867 139.20508 111.8351 103.81802 111.76758 103.75781 L 101.89648 139.20508 L 78.539062 139.20898 L 69.140625 103.62305 L 58.865234 139.13477 L 33.023438 139.13477 C 33.023438 139.13477 56.785376 53.610517 58.330078 47.966797 L 80.15625 47.966797 L 90.427734 86.099609 L 100.90039 47.966797 L 122.31641 47.960938 L 140.64258 114.36914 L 183.33984 114.36914 C 186.2869 114.22691 190.38553 115.03154 191.5957 111.41211 C 192.06468 109.7927 191.66525 108.11834 190.52344 106.97852 C 189.44525 106.03631 188.10422 105.77344 186.69727 105.77344 L 163.73633 105.76758 C 152.85778 105.43258 142.05223 98.317864 138.02344 87.849609 C 133.65882 77.371697 136.21116 64.816504 144.19922 56.705078 C 149.83881 51.051695 156.54937 48.231087 164.41016 47.898438 L 239.73242 47.833984 L 254.9082 69.714844 L 270.60938 47.765625 z "
     id="path40" />
  <path
     d="m 329.87086,157.11864 c 0.62099,-5.72561 1.0452,-11.48033 1.90893,-17.16989 1.49062,-9.84172 7.31521,-17.15552 14.44896,-23.6017 5.20478,-4.70398 10.55215,-9.25372 15.60846,-14.11183 3.45022,-3.315894 4.17608,-8.162103 2.29425,-11.61774 -1.46115,-2.679692 -3.85321,-3.8485 -6.72839,-3.231514 -2.82216,0.604848 -4.31866,2.429056 -4.46124,5.258163 -0.11313,2.289303 -0.0236,4.590626 -0.0236,7.101697 -7.67108,0 -15.19839,0 -22.72453,0 -2.54289,-14.292594 8.29207,-29.402139 22.92485,-32.101038 5.21421,-0.961536 10.3424,-0.710901 15.4105,0.701237 15.546,4.332803 22.96962,18.709766 18.28096,35.269985 -1.84648,6.52089 -5.43928,11.6803 -11.03056,15.68305 -5.76332,4.12801 -11.17903,8.74279 -16.71847,13.18412 -1.2408,1.01444 -1.38338,1.3518 -1.8995,2.60498 10.35065,0 19.61368,0 29.86299,0 0,7.5041 0,14.76712 0,22.03284 -19.05043,-0.002 -38.10203,-0.002 -57.15364,-0.002 z"
     id="path44"
     inkscape:connector-curvature="0"
     style="fill:#ffffff;stroke-width:1.17835271" />
  <path
     d="M 433.07334,103.79359 V 67.069516 h 15.90894 v 36.724074 h 33.55242 v 16.60287 H 448.98228 V 157.121 h -15.90894 v -36.72454 h -33.55359 v -16.60287 z"
     id="path46"
     inkscape:connector-curvature="0"
     style="fill:#ffffff;stroke-width:1.17835271" />
</svg>
