<?xml version="1.0" encoding="UTF-8" standalone="no"?>
<svg
   xmlns:dc="http://purl.org/dc/elements/1.1/"
   xmlns:cc="http://creativecommons.org/ns#"
   xmlns:rdf="http://www.w3.org/1999/02/22-rdf-syntax-ns#"
   xmlns:svg="http://www.w3.org/2000/svg"
   xmlns="http://www.w3.org/2000/svg"
   xmlns:sodipodi="http://sodipodi.sourceforge.net/DTD/sodipodi-0.dtd"
   xmlns:inkscape="http://www.inkscape.org/namespaces/inkscape"
   width="500"
   height="200"
   viewBox="0 0 500 200"
   version="1.1"
   id="svg28"
   sodipodi:docname="nds.svg"
   style="fill:none"
   inkscape:version="0.92.5 (2060ec1f9f, 2020-04-08)">
  <metadata
     id="metadata34">
    <rdf:RDF>
      <cc:Work
         rdf:about="">
        <dc:format>image/svg+xml</dc:format>
        <dc:type
           rdf:resource="http://purl.org/dc/dcmitype/StillImage" />
        <dc:title />
      </cc:Work>
    </rdf:RDF>
  </metadata>
  <defs
     id="defs32" />
  <sodipodi:namedview
     pagecolor="#ffffff"
     bordercolor="#666666"
     borderopacity="1"
     objecttolerance="10"
     gridtolerance="10"
     guidetolerance="10"
     inkscape:pageopacity="0"
     inkscape:pageshadow="2"
     inkscape:window-width="1366"
     inkscape:window-height="743"
     id="namedview30"
     showgrid="false"
     inkscape:pagecheckerboard="true"
     inkscape:zoom="0.99295849"
     inkscape:cx="457.66899"
     inkscape:cy="-38.117537"
     inkscape:window-x="0"
     inkscape:window-y="0"
     inkscape:window-maximized="1"
     inkscape:current-layer="svg28" />
  <path
     d="m 473.41305,110.27837 c 0,1.0792 -0.885,2.0505 -1.975,2.0505 h -37.797 c -1.101,0 -1.986,-0.9713 -1.986,-2.0505 V 82.972272 c 0,-1.0792 0.885,-1.9427 1.986,-1.9427 h 37.797 c 1.09,0 1.975,0.8635 1.975,1.9427 z m -1.641,-37.451298 h -38.476 c -5.57,0 -10.113,4.533 -10.113,10.1452 v 27.413898 c 0,5.5044 4.543,10.14541 10.113,10.14541 h 38.476 c 5.58,0 10.113,-4.64101 10.113,-10.14541 V 82.972272 c 0,-5.6122 -4.533,-10.1452 -10.113,-10.1452 z"
     id="path2"
     inkscape:connector-curvature="0"
     style="fill:#ffffff" />
  <path
     d="m 30.386631,31.814072 c 0,0 0,34.753 0,35.2927 -0.4641,0 -8.353691,0 -8.82858,0 0,-0.5397 0,-47.164899 0,-47.704526 0.496468,0 7.31758,0 7.54422,0 l 35.75678,34.753026 c 0,0 0,-34.213399 0,-34.753026 0.4857,0 7.0694,0 7.0694,0 0,0 1.2519,0 1.6405,0 0,0.539627 0,47.164826 0,47.704526 -0.4749,0 -6.6592,0 -6.8967,0 z"
     id="path4"
     inkscape:connector-curvature="0"
     style="fill:#ffffff" />
  <path
     d="m 118.89905,31.814072 c 0,0 0,34.753 0,35.2927 -0.4749,0 -8.3429,0 -8.8286,0 0,-0.5397 0,-47.164899 0,-47.704526 0.4965,0 7.3068,0 7.5334,0 l 35.7572,34.753026 c 0,0 0,-34.213399 0,-34.753026 0.485,0 7.08,0 7.08,0 0,0 1.263,0 1.64,0 0,0.539627 0,47.164826 0,47.704526 -0.485,0 -6.659,0 -6.896,0 z"
     id="path6"
     inkscape:connector-curvature="0"
     style="fill:#ffffff" />
  <path
     d="m 302.34605,31.814072 c 0,0 0,34.753 0,35.2927 -0.486,0 -8.343,0 -8.829,0 0,-0.5397 0,-47.164899 0,-47.704526 0.496,0 7.318,0 7.533,0 l 35.757,34.753026 c 0,0 0,-34.213399 0,-34.753026 0.486,0 7.08,0 7.08,0 0,0 1.263,0 1.641,0 0,0.539627 0,47.164826 0,47.704526 -0.486,0 -6.659,0 -6.886,0 z"
     id="path8"
     inkscape:connector-curvature="0"
     style="fill:#ffffff" />
  <path
     d="m 94.593451,19.402246 c 0,0 1.252,0 1.6298,0 0,0.539627 0,47.164826 0,47.704526 -0.4641,0 -8.3537,0 -8.8286,0 0,-0.5397 0,-47.164899 0,-47.704526 0.4857,0 7.1988,0 7.1988,0 z"
     id="path10"
     inkscape:connector-curvature="0"
     style="fill:#ffffff" />
  <path
     d="m 222.20805,19.402246 c 0,0 1.231,0 1.619,0 0,0.43169 0,7.770857 0,8.202547 -0.518,0 -21.283,0 -21.283,0 0,0 0,38.962279 0,39.501979 -0.475,0 -8.699,0 -9.174,0 0,-0.5397 0,-39.501979 0,-39.501979 0,0 -20.766,0 -21.284,0 0,-0.43169 0,-7.770857 0,-8.202547 0.529,0 50.122,0 50.122,0 z"
     id="path12"
     inkscape:connector-curvature="0"
     style="fill:#ffffff" />
  <path
     d="m 278.76305,19.402246 c 0,0 1.274,0 1.651,0 0,0.43169 0,7.770857 0,8.202547 -0.507,0 -37.839,0 -37.839,0 v 10.684979 c 0,0 28.773,0 29.27,0 0,0.5396 0,7.6629 0,8.2026 -0.497,0 -29.27,0 -29.27,0 v 12.4118 c 0,0 37.332,0 37.839,0 0,0.4317 0,7.6629 0,8.2026 -0.507,0 -46.074,0 -46.582,0 0,-0.5397 0,-47.164899 0,-47.704526 0.508,0 44.931,0 44.931,0 z"
     id="path14"
     inkscape:connector-curvature="0"
     style="fill:#ffffff" />
  <path
     d="m 394.61405,58.904172 h -27.112 V 27.604793 h 27.112 c 8.483,0 11.494,8.418379 11.494,15.649679 0,7.1233 -3.011,15.6497 -11.494,15.6497 z m 14.484,-32.486579 c -3.454,-4.64095 -8.559,-7.015347 -14.732,-7.015347 0,0 -34.861,0 -35.379,0 0,0.539627 0,47.164826 0,47.704526 0.518,0 35.379,0 35.379,0 6.173,0 11.278,-2.4824 14.732,-7.0154 3.238,-4.2092 4.954,-10.0374 4.954,-16.8369 0,-6.7995 -1.716,-12.6276 -4.954,-16.836879 z"
     id="path16"
     inkscape:connector-curvature="0"
     style="fill:#ffffff" />
  <path
     d="m 473.41305,56.961472 c 0,0.9713 -0.885,1.9427 -1.975,1.9427 h -37.797 c -1.101,0 -1.986,-0.9714 -1.986,-1.9427 v -27.414 c 0,-1.079209 0.885,-1.942679 1.986,-1.942679 h 37.797 c 1.09,0 1.975,0.86347 1.975,1.942679 z m -1.641,-37.559226 h -38.476 c -5.57,0 -10.113,4.533017 -10.113,10.145226 v 27.414 c 0,5.6123 4.543,10.1453 10.113,10.1453 h 38.476 c 5.58,0 10.113,-4.533 10.113,-10.1453 v -27.414 c 0,-5.612209 -4.533,-10.145226 -10.113,-10.145226 z"
     id="path18"
     inkscape:connector-curvature="0"
     style="fill:#ffffff" />
  <path
     d="m 160.69005,158.37726 c 9.152,3.6695 28.482,6.5836 43.57,6.5836 16.513,0 23.345,-5.6123 23.345,-12.7356 0,-6.4757 -6.346,-10.1454 -24.575,-16.8369 -24.381,-8.9581 -42.265,-16.08141 -42.265,-32.16281 0,-16.513058 21.521,-26.334598 54.321,-26.334598 17.614,0 23.658,1.07925 34.839,3.12991 l 0.086,15.75759 c -10.987,-2.0506 -20.722,-5.6123 -35.843,-5.6123 -16.211,0 -23.118,5.1805 -23.118,10.469098 0,7.663 10.642,11.3325 29.303,18.0241 25.978,9.28191 40.43,16.40521 40.43,32.05481 0,16.1894 -18.1,27.8458 -58.919,27.8458 -16.761,0 -28.32,-1.079 -41.174,-3.2379 z"
     id="path20"
     inkscape:connector-curvature="0"
     style="fill:#ffffff" />
  <path
     d="m 73.807051,90.813752 h -19.427 v 73.607508 h 19.427 c 29.820999,0 48.632999,-12.8436 48.632999,-36.6959 0,-23.85221 -18.812,-36.911607 -48.632999,-36.911608 z m 52.139999,80.406908 c -9.605,4.3172 -27.780999,7.1233 -43.667999,7.1233 h -60.721 V 77.106772 h 60.721 c 15.887,0 34.062999,2.80615 43.689999,7.12326 23.388,10.57702 31.008,27.521918 31.008,43.495328 0,15.9735 -7.555,32.9183 -31.03,43.4953 z"
     id="path22"
     inkscape:connector-curvature="0"
     style="fill:#ffffff" />
  <path
     d="m 266.88105,163.23386 h -3.896 v -1.4031 h 9.486 v 1.4031 h -3.917 v 11.3325 h -1.673 z"
     id="path24"
     inkscape:connector-curvature="0"
     style="fill:#ffffff" />
  <path
     d="m 284.63505,168.95416 c -0.097,-1.7269 -0.205,-3.8854 -0.205,-5.5044 h -0.043 c -0.454,1.511 -0.972,3.1299 -1.619,4.8568 l -2.256,6.2598 h -1.252 l -2.094,-6.1519 c -0.604,-1.8348 -1.101,-3.4537 -1.457,-4.9647 h -0.043 c -0.032,1.619 -0.129,3.7775 -0.237,5.6123 l -0.346,5.5043 h -1.575 l 0.895,-12.7356 h 2.105 l 2.18,6.152 c 0.529,1.619 0.95,3.022 1.295,4.3172 h 0.033 c 0.345,-1.2952 0.798,-2.6982 1.37,-4.3172 l 2.278,-6.152 h 2.104 l 0.799,12.7356 h -1.63 z"
     id="path26"
     inkscape:connector-curvature="0"
     style="fill:#ffffff" />
</svg>
