<?xml version="1.0" encoding="UTF-8" standalone="no"?>
<!-- Created with Inkscape (http://www.inkscape.org/) -->

<svg
   xmlns:dc="http://purl.org/dc/elements/1.1/"
   xmlns:cc="http://creativecommons.org/ns#"
   xmlns:rdf="http://www.w3.org/1999/02/22-rdf-syntax-ns#"
   xmlns:svg="http://www.w3.org/2000/svg"
   xmlns="http://www.w3.org/2000/svg"
   xmlns:sodipodi="http://sodipodi.sourceforge.net/DTD/sodipodi-0.dtd"
   xmlns:inkscape="http://www.inkscape.org/namespaces/inkscape"
   width="500"
   height="200"
   viewBox="0 0 500 200"
   version="1.1"
   id="svg8"
   inkscape:version="0.92.5 (2060ec1f9f, 2020-04-08)"
   sodipodi:docname="pc88.svg">
  <defs
     id="defs2" />
  <sodipodi:namedview
     id="base"
     pagecolor="#ffffff"
     bordercolor="#666666"
     borderopacity="1.0"
     inkscape:pageopacity="0.0"
     inkscape:pageshadow="2"
     inkscape:zoom="1.356658"
     inkscape:cx="308.69553"
     inkscape:cy="42.005844"
     inkscape:document-units="mm"
     inkscape:current-layer="layer1"
     showgrid="false"
     units="px"
     inkscape:pagecheckerboard="true"
     inkscape:window-width="1366"
     inkscape:window-height="743"
     inkscape:window-x="0"
     inkscape:window-y="0"
     inkscape:window-maximized="1" />
  <metadata
     id="metadata5">
    <rdf:RDF>
      <cc:Work
         rdf:about="">
        <dc:format>image/svg+xml</dc:format>
        <dc:type
           rdf:resource="http://purl.org/dc/dcmitype/StillImage" />
        <dc:title />
      </cc:Work>
    </rdf:RDF>
  </metadata>
  <g
     inkscape:label="Layer 1"
     inkscape:groupmode="layer"
     id="layer1"
     transform="translate(-2.2285497,-253.22133)">
    <g
       id="g744"
       transform="matrix(4.0643316,0,0,4.0643316,-19.383255,-754.50358)"
       style="fill:#ffffff">
      <path
         style="fill:#ffffff;stroke-width:0.15854824"
         d="m 112.22126,283.55548 c -1.03146,-0.2431 -2.07269,-0.87351 -2.91671,-1.76594 -0.97236,-1.02813 -1.48886,-1.99882 -2.06425,-3.87946 -0.39931,-1.30512 -0.42794,-1.59853 -0.43795,-4.4881 -0.0121,-3.47902 0.13242,-4.30381 1.10114,-6.28559 0.69446,-1.42073 2.04016,-2.7217 3.36164,-3.24992 0.77999,-0.31177 1.20164,-0.36659 2.81972,-0.36659 2.28301,0 3.25095,0.31013 4.51503,1.44664 1.26679,1.13897 2.03019,2.74109 2.55577,5.36377 0.31703,1.58198 0.28141,5.6837 -0.0626,7.20836 -0.55434,2.45681 -1.91193,4.54218 -3.47148,5.33246 -1.54147,0.78112 -3.78399,1.06531 -5.40031,0.68437 z m 2.71839,-4.20299 c 0.57089,-0.33724 1.04798,-1.06045 1.45751,-2.20939 0.48003,-1.34673 0.60371,-4.50188 0.23988,-6.11915 -0.7134,-3.17115 -2.65043,-4.42897 -4.05748,-2.63475 -0.93178,1.18816 -1.4531,4.24408 -1.14295,6.69972 0.43476,3.44222 1.89167,5.21543 3.50304,4.26357 z m -71.329248,-0.42096 c 1.33e-4,-2.55065 0.04757,-7.16338 0.105415,-10.25053 l 0.105172,-5.61298 3.190422,0.0951 c 4.704622,0.14023 6.641647,0.63343 8.060568,2.05235 1.960162,1.96017 1.782255,6.68799 -0.321163,8.53481 -1.182589,1.03833 -3.234684,1.72434 -5.175281,1.73007 l -0.931471,0.003 0.09909,-0.49546 c 0.0545,-0.2725 0.09909,-1.20001 0.09909,-2.06113 v -1.56566 h 0.600599 c 0.956163,0 1.967965,-0.59915 2.239714,-1.32627 0.307009,-0.82147 -0.0029,-1.78033 -0.707839,-2.19001 -0.501615,-0.29151 -2.682815,-0.67651 -2.938282,-0.51862 -0.0852,0.0527 -0.145481,3.43678 -0.145481,8.16651 v 8.0766 h -2.140401 -2.140401 l 3.17e-4,-4.63753 z m 20.6903,4.35145 c -2.813448,-0.83762 -4.82565,-2.88438 -5.877151,-5.97809 -0.350176,-1.03029 -0.443999,-1.63697 -0.502411,-3.24872 -0.09048,-2.49657 0.173834,-3.84775 1.13266,-5.79025 1.102459,-2.23349 2.82377,-3.79953 5.005671,-4.55415 0.881414,-0.30484 1.361476,-0.35761 3.253647,-0.35761 1.220822,0 2.415879,0.0549 2.655683,0.12194 l 0.436008,0.12193 v 2.07507 c 0,1.91561 -0.02132,2.06598 -0.277459,1.9568 -0.626406,-0.26701 -2.992877,-0.27246 -3.899228,-0.009 -2.564145,0.74542 -4.304318,3.8708 -3.798706,6.82254 0.366078,2.13715 1.477054,3.70189 3.195487,4.50064 0.727906,0.33834 1.132824,0.41691 2.16386,0.41983 0.697612,0.002 1.535936,-0.0531 1.862942,-0.12249 l 0.594556,-0.1261 v 2.04982 c 0,2.44576 0.247579,2.24306 -2.853868,2.33653 -1.73197,0.0522 -2.321927,0.0105 -3.091691,-0.21871 z m 17.87862,0.0515 c -1.325244,-0.37254 -2.422658,-1.00818 -3.310357,-1.91741 -1.096034,-1.12263 -1.523319,-2.23157 -1.530376,-3.9718 -0.006,-1.48457 0.309245,-2.31121 1.33223,-3.49318 0.33698,-0.38935 0.612691,-0.73345 0.612691,-0.76467 0,-0.0312 -0.303224,-0.64044 -0.67383,-1.35382 -0.656586,-1.26388 -0.67383,-1.33623 -0.67383,-2.82711 0,-1.35093 0.05142,-1.63473 0.439253,-2.42448 0.832973,-1.69619 2.520327,-2.83754 4.638956,-3.13787 3.013451,-0.42718 5.733141,0.8612 6.923927,3.28003 0.455796,0.92585 0.519101,1.2098 0.519524,2.33024 6.35e-4,1.46867 -0.2004,2.14986 -0.959988,3.25411 -0.298414,0.43382 -0.54257,0.84783 -0.54257,0.92003 0,0.0722 0.255786,0.37714 0.568413,0.67765 0.92638,0.89048 1.339449,1.73674 1.441192,2.95261 0.233309,2.78815 -1.26449,5.175 -3.9189,6.24505 -1.125347,0.45365 -3.647713,0.57318 -4.866335,0.23062 z m 3.081686,-4.03976 c 1.45661,-0.88815 1.234171,-3.06942 -0.370895,-3.63706 -2.089862,-0.73911 -3.735683,1.66731 -2.241239,3.277 0.679688,0.7321 1.75816,0.88076 2.612134,0.36006 z m -0.158025,-8.75949 c 0.570409,-0.27991 0.883421,-1.11794 0.688264,-1.8427 -0.283514,-1.05289 -1.211202,-1.56942 -2.217997,-1.23497 -1.537489,0.51075 -1.533498,2.68374 0.0059,3.21915 0.553652,0.19256 0.910655,0.15941 1.523822,-0.14148 z m 11.79597,12.78297 c -1.875471,-0.50434 -3.560092,-1.80237 -4.304173,-3.31643 -0.314401,-0.63975 -0.400098,-1.09081 -0.444039,-2.3372 -0.04778,-1.35527 -0.0097,-1.63689 0.310765,-2.29895 0.20087,-0.41497 0.647343,-1.06058 0.992162,-1.43468 l 0.626942,-0.6802 -0.699887,-1.36317 c -0.687193,-1.33845 -0.699756,-1.39083 -0.692599,-2.88715 0.0063,-1.32597 0.06344,-1.64019 0.439486,-2.41863 0.816428,-1.69004 2.509148,-2.8368 4.631435,-3.13765 2.973785,-0.42156 5.738845,0.86664 6.886425,3.20829 0.92269,1.88276 0.80827,3.86229 -0.321,5.55339 l -0.63638,0.95298 0.48691,0.56761 c 1.43713,1.67538 1.79135,2.81799 1.46609,4.72926 -0.53739,3.1578 -3.12879,5.13409 -6.691273,5.103 -0.65749,-0.006 -1.580381,-0.11395 -2.050864,-0.24047 z m 3.010712,-3.95832 c 0.261135,-0.13504 0.614055,-0.47393 0.784275,-0.75311 1.27738,-2.09497 -1.634869,-4.23509 -3.296199,-2.42227 -0.435965,0.47572 -0.515377,0.68301 -0.515377,1.34528 0,1.60325 1.597939,2.56925 3.027301,1.8301 z m 0.102905,-8.91358 c 0.19559,-0.12664 0.43444,-0.49335 0.53079,-0.81493 0.51828,-1.72987 -1.61184,-3.03935 -2.880451,-1.77074 -0.373124,0.37313 -0.463449,0.60071 -0.463449,1.16773 0,1.5059 1.505338,2.26465 2.81311,1.41794 z m 22.8717,3.05499 v -10.06781 h 2.06113 2.06113 v 10.06781 10.06781 h -2.06113 -2.06113 z M 5.5138704,276.6301 c -0.033198,-0.064 0.2927059,-2.13859 0.7242303,-4.61012 L 7.0226904,267.5263 6.3477203,266.83855 5.67275,266.15081 7.1495173,264.5543 c 0.8122221,-0.87808 1.517838,-1.5926 1.5680355,-1.58782 0.050197,0.005 1.4084602,1.61824 3.0183622,3.58548 1.609901,1.96724 2.944326,3.51512 2.965387,3.43974 0.02106,-0.0754 0.367152,-1.66954 0.769091,-3.54257 0.401938,-1.87303 0.754518,-3.42923 0.78351,-3.45823 0.07524,-0.0752 2.761573,1.39222 2.870123,1.56786 0.04964,0.0803 -0.134958,0.27021 -0.410209,0.422 -0.275251,0.15179 -0.802936,0.46298 -1.172634,0.69154 l -0.672179,0.41555 -1.000867,5.05436 c -0.550477,2.7799 -1.051495,5.1117 -1.113374,5.18177 -0.06188,0.0701 -1.599124,-1.52468 -3.416102,-3.5439 -2.6602722,-2.95638 -3.3241965,-3.61412 -3.4093813,-3.37765 -0.058182,0.16152 -0.2363837,1.13377 -0.3960045,2.16056 l -0.2902196,1.8669 0.7432456,0.7546 c 0.4087851,0.41502 0.7432456,0.805 0.7432456,0.86661 0,0.16867 -3.1459779,1.71344 -3.2156764,1.579 z m 28.6626676,0.0148 c -2.554501,-0.5621 -4.161249,-2.9769 -4.019569,-6.04104 0.07103,-1.53609 0.588703,-2.66377 1.846512,-4.02236 1.560787,-1.68583 3.403459,-2.73811 5.801652,-3.31309 1.984344,-0.47576 1.8472,-0.54704 2.529063,1.31447 0.327399,0.89382 0.609816,1.68929 0.627594,1.76772 0.03129,0.13803 -0.62289,0.41011 -1.507649,0.62704 -0.396884,0.0973 -0.492229,0.0135 -1.233501,-1.08507 l -0.803368,-1.19054 -0.959842,0.48452 c -1.781027,0.89906 -2.947475,2.36998 -3.227701,4.07022 -0.274941,1.66817 0.9639,3.267 2.798023,3.61108 0.712864,0.13374 2.265821,-0.25099 3.497496,-0.86647 0.502669,-0.25119 0.913945,-0.3895 0.913945,-0.30737 0,0.0821 -0.471013,1.13927 -1.046696,2.3492 l -1.046695,2.19987 -0.905921,0.25419 c -0.838985,0.23541 -2.519035,0.31141 -3.263343,0.14763 z m -16.631117,-0.75115 c 0.04717,-0.12293 0.256917,-0.26646 0.466093,-0.31896 0.534318,-0.13411 0.70693,-0.53216 1.208568,-2.78704 l 0.440899,-1.98185 -0.431757,-0.38317 c -0.295437,-0.2622 -0.365839,-0.40515 -0.222982,-0.45277 0.114827,-0.0383 0.382704,-0.22258 0.595282,-0.40957 0.31502,-0.27709 0.470917,-0.74154 0.842885,-2.51113 0.404533,-1.9245 0.43044,-2.20818 0.228051,-2.49713 -0.142458,-0.20339 -0.403819,-0.32598 -0.694978,-0.32598 -0.309106,0 -0.466655,-0.0803 -0.466655,-0.23782 0,-0.20675 0.705845,-0.23782 5.401324,-0.23782 5.069611,0 5.396295,0.017 5.319444,0.27745 -0.04503,0.15261 -0.236074,0.95526 -0.424532,1.78367 -0.359576,1.5806 -0.623718,2.14565 -0.626282,1.33973 -0.002,-0.63636 -0.87103,-2.11037 -1.351978,-2.29322 -0.213541,-0.0812 -1.046127,-0.16742 -1.85019,-0.19162 l -1.461932,-0.044 -0.429886,1.98185 c -0.710069,3.27356 -0.71417,2.90929 0.03162,2.80926 0.902344,-0.12103 2.272055,-0.82653 2.52603,-1.30109 0.11725,-0.21908 0.276683,-0.39833 0.354295,-0.39833 0.07761,0 0.110272,0.0535 0.07258,0.11891 -0.03769,0.0654 -0.264583,1.17162 -0.504199,2.45827 l -0.435663,2.33935 -0.446507,-0.70406 c -0.522055,-0.8232 -1.009486,-1.17948 -1.78607,-1.3055 -0.639865,-0.10383 -0.586549,-0.21862 -1.212085,2.60945 -0.43287,1.95702 -0.362164,2.0939 1.081635,2.0939 2.096956,0 3.557954,-0.76983 4.169761,-2.19711 0.165417,-0.3859 0.342745,-0.65965 0.394064,-0.60834 0.08329,0.0833 -0.311336,2.61754 -0.5171,3.32073 -0.07516,0.25687 -0.462443,0.27746 -5.218346,0.27746 -4.355063,0 -5.124099,-0.034 -5.051388,-0.22352 z m 53.176484,-2.7889 v -1.42693 h 2.457498 2.457498 v 1.42693 1.42694 H 73.179403 70.721905 Z M 43.768706,258.0986 v -3.74935 l 1.387297,0.0907 c 2.151779,0.14066 2.973217,0.59652 3.158081,1.75259 l 0.100036,0.62559 0.232903,-0.45785 c 0.281909,-0.55421 0.951454,-1.29412 1.384338,-1.52983 0.496722,-0.27047 1.528218,-0.42447 2.180038,-0.32547 0.593559,0.0901 0.594556,0.0916 0.594556,0.86466 v 0.77435 l -0.594556,-0.0885 c -1.139364,-0.16964 -2.259312,0.85479 -2.259312,2.06663 0,1.2178 1.121997,2.2363 2.259312,2.0509 l 0.594556,-0.0969 v 0.78868 0.78867 l -0.70487,0.10571 c -2.004351,0.30057 -3.538875,-0.98512 -3.826708,-3.20617 -0.101344,-0.78202 -0.123536,-0.81611 -0.334876,-0.51438 -0.297078,0.42414 -0.920467,0.72858 -1.752934,0.85608 l -0.67383,0.1032 v -0.75986 c 0,-0.69856 0.03834,-0.77433 0.475283,-0.93925 0.875413,-0.33044 0.767741,-1.00781 -0.197824,-1.24454 l -0.436008,-0.10689 v 2.95033 2.95033 h -0.792741 -0.792741 z m 14.507163,3.51488 c -1.38405,-0.49734 -1.955626,-1.76443 -1.346293,-2.9845 0.279876,-0.5604 0.314896,-0.76713 0.174411,-1.02963 -0.275429,-0.51464 -0.208954,-1.6406 0.12964,-2.19589 0.378919,-0.62142 1.198799,-0.91211 2.279641,-0.80825 0.671685,0.0645 0.890512,0.17159 1.329175,0.65026 0.442686,0.48305 0.525117,0.69305 0.525117,1.33776 0,0.42062 -0.100209,0.90181 -0.222688,1.06931 -0.194897,0.26654 -0.185003,0.35747 0.07927,0.72861 0.16608,0.23324 0.301962,0.50224 0.301962,0.59778 0,0.0955 0.07135,0.17371 0.158548,0.17371 0.0872,0 0.158548,-0.0782 0.158548,-0.17371 0,-0.0955 0.135883,-0.36454 0.301962,-0.59778 0.264278,-0.37114 0.274171,-0.46207 0.07927,-0.72861 -0.289848,-0.39639 -0.285382,-1.56538 0.0081,-2.13301 0.584755,-1.13079 2.783069,-1.31356 3.718782,-0.30919 0.529009,0.56782 0.671119,1.32717 0.398595,2.12987 -0.217769,0.64142 -0.211758,0.73024 0.08717,1.28797 0.387435,0.72287 0.396499,0.9637 0.06724,1.78659 -0.748642,1.87104 -3.817068,1.78194 -4.617636,-0.13409 l -0.235134,-0.56276 -0.218912,0.62901 c -0.120401,0.34596 -0.219986,0.64103 -0.221298,0.65572 -0.0013,0.0147 -0.234265,0.16767 -0.51767,0.33997 -0.723585,0.4399 -1.656583,0.54442 -2.41786,0.27086 z m 1.340418,-1.5801 c 0.104572,-0.126 0.166818,-0.39355 0.138324,-0.59456 -0.04283,-0.3021 -0.148012,-0.36546 -0.606727,-0.36546 -0.458714,0 -0.5639,0.0634 -0.606726,0.36546 -0.06202,0.43752 0.222417,0.82365 0.606726,0.82365 0.153049,0 0.363829,-0.10309 0.468403,-0.22909 z m 5.073543,0 c 0.104572,-0.126 0.166818,-0.39355 0.138324,-0.59456 -0.04283,-0.3021 -0.148011,-0.36546 -0.606726,-0.36546 -0.458715,0 -0.563901,0.0634 -0.606726,0.36546 -0.06202,0.43752 0.222416,0.82365 0.606726,0.82365 0.153048,0 0.363828,-0.10309 0.468402,-0.22909 z m -5.098286,-3.35212 c 0.02601,-0.18203 -0.05413,-0.41514 -0.17809,-0.51801 -0.457774,-0.37992 -1.098106,0.26041 -0.718187,0.71818 0.268779,0.32386 0.839619,0.19638 0.896277,-0.20017 z m 5.056463,0.15088 c 0.105934,-0.27606 -0.100463,-0.71534 -0.379866,-0.80847 -0.09265,-0.0309 -0.283616,0.059 -0.424367,0.19976 -0.194082,0.19408 -0.216333,0.32986 -0.0921,0.56199 0.199838,0.3734 0.759771,0.40258 0.896331,0.0467 z m 4.016031,4.84749 c -0.568586,-0.23933 -0.942845,-0.61768 -1.323396,-1.33788 -0.484089,-0.91615 -0.493873,-3.52065 -0.01664,-4.43036 0.460565,-0.87796 1.010572,-1.23739 2.021798,-1.32124 1.285325,-0.10659 1.946767,0.26446 2.460516,1.38028 0.577754,1.25484 0.586717,3.23462 0.01977,4.36712 -0.21489,0.42925 -0.581597,0.91899 -0.814906,1.0883 -0.491701,0.35682 -1.773148,0.49538 -2.347137,0.25378 z m 1.328886,-1.66211 c 0.856746,-0.85675 0.559722,-3.8773 -0.381273,-3.8773 -0.818271,0 -1.229393,2.09922 -0.662228,3.38139 0.341856,0.77282 0.629762,0.90965 1.043501,0.49591 z m 4.377872,1.67288 c -1.223342,-0.29833 -2.00248,-1.98353 -1.870181,-4.04502 0.134474,-2.09539 0.986646,-3.09116 2.64445,-3.09005 1.555949,0.001 2.226959,0.70282 2.578112,2.69635 0.195556,1.11019 -0.0083,2.60195 -0.461726,3.37827 -0.517876,0.88673 -1.749796,1.33866 -2.890655,1.06045 z m 1.335731,-1.96483 c 0.25498,-0.34152 0.325845,-0.67014 0.322654,-1.49621 -0.005,-1.30427 -0.310489,-2.00987 -0.870061,-2.00987 -1.045933,0 -1.302439,2.72233 -0.355135,3.76909 0.314098,0.34708 0.484016,0.29756 0.902542,-0.26301 z m 2.784242,1.1711 v -0.79274 h 1.909785 c 1.816276,0 1.92884,-0.0191 2.298949,-0.38917 0.371827,-0.37182 0.389164,-0.47778 0.389164,-2.37822 v -1.98906 h 0.792742 0.792741 l -0.0038,1.86294 c -0.0047,2.30623 -0.147112,2.94476 -0.809234,3.62789 -0.684867,0.70661 -1.272926,0.84915 -3.507422,0.85021 l -1.862935,8.9e-4 z m 6.764725,0.68704 c -0.05813,-0.0581 -0.1057,-0.41487 -0.1057,-0.79274 v -0.68704 h 1.560909 c 2.127037,0 2.085701,0.056 2.085701,-2.82672 v -2.24683 h 0.792741 0.792741 v 2.38454 c 0,2.09431 -0.03973,2.46241 -0.326398,3.02433 -0.4786,0.93814 -1.253131,1.24227 -3.174875,1.24668 -0.835682,0.002 -1.566986,-0.0441 -1.625119,-0.10222 z m 10.834128,-0.60777 c 0,-0.68955 0.0162,-0.71347 0.483306,-0.71347 0.404988,0 0.738155,-0.26334 2.055979,-1.62512 0.86497,-0.89381 1.574993,-1.74997 1.577823,-1.90257 0.005,-0.25029 -0.19674,-0.27746 -2.055981,-0.27746 h -2.061127 v -0.71347 -0.71347 h 2.227549 c 2.544889,0 2.961989,0.12798 3.395679,1.04193 0.3551,0.74831 0.22429,1.4148 -0.4051,2.06417 l -0.48343,0.49877 0.80362,1.40151 c 0.44199,0.77084 0.80361,1.45802 0.80361,1.52708 0,0.0691 -0.38375,0.12557 -0.85278,0.12557 -0.78174,0 -0.86789,-0.0365 -1.03418,-0.43794 -0.0998,-0.24087 -0.35459,-0.65112 -0.566253,-0.91166 l -0.384853,-0.47371 -0.849775,0.91166 c -0.842143,0.90346 -0.857879,0.91165 -1.751931,0.91165 h -0.902156 z m -5.232091,-2.61604 v -0.79275 h 2.853868 2.853868 v 0.79275 0.79274 h -2.853868 -2.853868 z m -38.210124,-0.15855 v -0.6342 h 1.823305 1.823304 v 0.6342 0.63419 h -1.823304 -1.823305 z m 25.843362,-0.39637 v -0.71347 h 1.664756 1.664757 v 0.71347 0.71346 h -1.664757 -1.664756 z m 6.764725,0.44922 c -0.05813,-0.0581 -0.1057,-0.80728 -0.1057,-1.66476 v -1.55906 h 0.792742 0.792741 v 1.66476 1.66476 h -0.687042 c -0.377874,0 -0.734608,-0.0476 -0.792741,-0.1057 z m -6.764725,-2.51035 v -0.71347 h 1.664756 1.664757 v 0.71347 0.71347 h -1.664757 -1.664756 z m 23.783941,0.31915 c -0.1143,-0.13772 -0.15307,-0.40545 -0.0932,-0.64383 0.0872,-0.34754 0.17804,-0.40076 0.61227,-0.35879 0.43036,0.0416 0.518,0.12074 0.56217,0.50772 0.0771,0.67576 -0.65352,1.01021 -1.08119,0.4949 z m 1.39852,-0.15591 c -0.23217,-0.50955 0.0515,-0.87671 0.67729,-0.87671 0.35182,0 0.47559,0.0891 0.55321,0.39843 0.20759,0.82711 -0.87911,1.24949 -1.2305,0.47828 z"
         id="path754"
         inkscape:connector-curvature="0" />
      <path
         style="fill:#ffffff;stroke-width:0.15854824"
         d="m 112.10684,283.47345 c -1.79121,-0.48135 -3.06382,-1.59901 -4.04962,-3.55655 -1.03017,-2.04564 -1.24106,-3.15165 -1.25357,-6.5742 -0.01,-2.70676 0.0268,-3.14486 0.36188,-4.31778 0.68794,-2.40837 1.89436,-3.97388 3.78342,-4.90955 1.00345,-0.49703 1.33044,-0.5768 2.64654,-0.64564 3.83712,-0.2007 6.14775,1.57387 7.21965,5.54474 1.2711,4.70882 0.53115,10.15235 -1.72483,12.68878 -1.47596,1.65944 -4.52217,2.43161 -6.98347,1.7702 z m 2.85664,-4.10934 c 0.63555,-0.32865 1.3609,-1.65648 1.67555,-3.06722 0.3958,-1.77463 0.2444,-4.95109 -0.30706,-6.44225 -0.99798,-2.69856 -3.11574,-3.09576 -4.17457,-0.78297 -1.37253,2.99801 -0.98295,8.20243 0.744,9.93913 0.6618,0.66553 1.26009,0.76804 2.06208,0.35331 z m -71.247623,4.09926 c -0.135437,-0.13544 -0.135571,-7.24824 -3.17e-4,-14.63753 l 0.105422,-5.75782 3.184454,0.10444 c 3.551155,0.11647 5.073362,0.35631 6.50066,1.02422 1.728634,0.80892 2.502688,1.88298 2.817809,3.90993 0.456733,2.93781 -0.633719,5.37179 -2.904331,6.48269 -1.548721,0.75772 -4.685401,1.17431 -4.640765,0.61635 0.0087,-0.10901 0.02656,-1.01868 0.03964,-2.02149 l 0.02382,-1.82331 h 0.639286 c 0.775293,0 1.549636,-0.30848 1.97676,-0.7875 0.232708,-0.26099 0.317097,-0.57987 0.317097,-1.19822 0,-1.36141 -0.635428,-1.81374 -2.893506,-2.05972 l -0.990926,-0.10795 v 8.1808 8.1808 h -2.034702 c -1.119087,0 -2.082268,-0.0476 -2.140401,-0.10569 z m 20.855298,-0.1411 c -2.418528,-0.65098 -4.438635,-2.35146 -5.545671,-4.6682 -0.91845,-1.92208 -1.207418,-3.41012 -1.105021,-5.69028 0.140248,-3.12305 1.146703,-5.50481 3.097664,-7.33059 1.924288,-1.80082 3.836046,-2.43925 6.929184,-2.31397 1.046419,0.0424 2.027436,0.12872 2.180039,0.19187 0.242753,0.10045 0.277459,0.35611 0.277459,2.04393 v 1.92912 l -2.100764,-0.004 c -2.035155,-0.004 -2.127247,0.0108 -2.948736,0.46583 -1.768845,0.97976 -2.822025,2.71778 -2.992372,4.93817 -0.205119,2.67365 1.121681,5.1481 3.285425,6.12724 0.772434,0.34955 2.871001,0.47007 4.003343,0.22992 l 0.594556,-0.1261 v 2.05204 2.05203 l -1.003913,0.17483 c -1.365293,0.23775 -3.651341,0.20253 -4.671193,-0.072 z m 17.724771,-0.006 c -2.732501,-0.72588 -4.512812,-2.51813 -4.889389,-4.9222 -0.276245,-1.76353 0.268366,-3.48033 1.475059,-4.6499 l 0.514369,-0.49855 -0.787466,-1.53708 c -0.786718,-1.53562 -0.787402,-1.53831 -0.719638,-2.82997 0.120903,-2.3045 1.164281,-3.87431 3.210443,-4.83024 3.007509,-1.40505 6.849076,-0.47676 8.468093,2.04626 1.3109,2.04286 1.210627,4.5173 -0.261365,6.44964 l -0.478955,0.62875 0.752441,0.82329 c 1.141504,1.24898 1.351457,1.78968 1.346791,3.46841 -0.0047,1.69826 -0.414542,2.77241 -1.512025,3.96304 -1.68517,1.82819 -4.517173,2.57954 -7.118358,1.88855 z m 3.26819,-4.23192 c 1.405172,-1.28774 0.498141,-3.59905 -1.413121,-3.60093 -1.568916,-0.002 -2.503125,1.38551 -1.918038,2.84779 0.341948,0.85461 1.000792,1.27249 2.007514,1.27328 0.633307,4.7e-4 0.84729,-0.0836 1.323645,-0.52014 z m -0.310255,-8.59746 c 0.197156,-0.12918 0.43974,-0.50614 0.539075,-0.83769 0.522711,-1.74466 -1.619967,-3.09272 -2.892732,-1.81995 -0.391465,0.39146 -0.472155,0.60101 -0.472155,1.22617 0,0.60459 0.08549,0.84325 0.431424,1.20432 0.634077,0.66183 1.592246,0.75273 2.394388,0.22715 z m 11.819682,12.8351 c -2.020994,-0.54398 -3.6273,-1.74246 -4.43228,-3.30697 -0.334777,-0.65065 -0.428265,-1.09047 -0.484253,-2.27821 -0.0656,-1.39154 -0.04288,-1.52569 0.416119,-2.45749 0.267025,-0.54209 0.731654,-1.22398 1.032509,-1.51532 l 0.547009,-0.52972 -0.735907,-1.37286 c -0.719666,-1.34257 -0.735905,-1.40442 -0.735905,-2.80313 0,-1.29508 0.04901,-1.52983 0.518539,-2.48357 0.285196,-0.57932 0.781245,-1.28396 1.102329,-1.56588 0.825288,-0.72461 2.32558,-1.38393 3.53195,-1.55214 5.487747,-0.76519 9.319587,4.46223 6.429827,8.77161 l -0.67974,1.01368 0.54261,0.52586 c 0.29843,0.28922 0.7705,0.88096 1.04902,1.31498 0.47966,0.74742 0.50626,0.86889 0.50336,2.29895 -0.003,1.32067 -0.0598,1.63343 -0.4557,2.49638 -0.49774,1.08486 -1.68684,2.33466 -2.72384,2.86289 -1.60706,0.81859 -3.707246,1.04346 -5.425647,0.58094 z m 3.259577,-4.25965 c 0.55903,-0.51231 0.59222,-0.59657 0.59222,-1.50316 0,-0.86449 -0.0495,-1.00996 -0.49599,-1.45642 -0.934042,-0.93404 -2.751972,-0.74614 -3.315,0.34264 -0.801798,1.5505 0.146738,3.15091 1.871107,3.15701 0.641017,0.002 0.845127,-0.0795 1.347663,-0.54007 z m -0.681601,-8.40275 c 1.445111,-0.6038 1.272711,-2.66301 -0.271953,-3.24821 -1.071413,-0.40592 -2.180106,0.42156 -2.180106,1.62713 0,0.79056 0.332872,1.32334 1.011268,1.61859 0.633584,0.27575 0.786154,0.27602 1.440791,0.002 z m 23.338451,12.8035 c -0.0581,-0.0581 -0.1057,-4.58865 -0.1057,-10.06782 v -9.96211 h 2.06113 2.06113 v 10.06781 10.06781 h -1.95543 c -1.07549,0 -2.00299,-0.0476 -2.06113,-0.10569 z m -88.934805,-6.8752 c -1.560496,-0.39166 -2.849166,-1.55937 -3.468438,-3.14287 -0.27364,-0.69971 -0.352741,-1.24177 -0.362021,-2.48082 -0.01091,-1.45703 0.02666,-1.66255 0.463771,-2.53677 1.290101,-2.5802 5.247485,-5.14345 8.245011,-5.34039 l 0.764779,-0.0502 0.598348,1.50621 c 0.329091,0.82841 0.60282,1.62228 0.608285,1.76415 0.0072,0.18541 -0.255864,0.3249 -0.935263,0.49604 l -0.9452,0.2381 -0.67992,-1.03534 c -0.373955,-0.56944 -0.725326,-1.10482 -0.780826,-1.18974 -0.170111,-0.26028 -1.814532,0.60325 -2.666694,1.40035 -1.945449,1.81973 -2.255988,4.24432 -0.731407,5.71056 1.267078,1.21859 2.783292,1.28113 5.141085,0.21205 0.563208,-0.25537 1.04981,-0.43851 1.081339,-0.40698 0.03153,0.0315 -0.425648,1.04885 -1.015949,2.26071 -1.028718,2.11192 -1.0996,2.21241 -1.707466,2.42076 -0.798688,0.27376 -2.823476,0.37149 -3.609434,0.17423 z M 5.5585822,276.34876 c 0,-0.1343 0.3303547,-2.17335 0.7341216,-4.53122 l 0.7341214,-4.28703 -0.6677494,-0.68039 -0.6677495,-0.68038 1.2249968,-1.32852 c 0.6737482,-0.73068 1.3474732,-1.45934 1.4971668,-1.61926 0.260653,-0.27844 0.39871,-0.13789 3.2625401,3.32139 l 2.990371,3.61214 0.264947,-1.18099 c 0.145721,-0.64954 0.496596,-2.26742 0.779721,-3.59529 l 0.514775,-2.4143 1.224834,0.63723 c 2.011969,1.04674 1.979438,0.95839 0.627735,1.7048 l -1.172015,0.64719 -1.056214,5.16749 c -0.580918,2.84212 -1.086719,5.19799 -1.124003,5.23527 -0.03728,0.0373 -1.562309,-1.59848 -3.388945,-3.63503 -1.8266358,-2.03656 -3.3422097,-3.68402 -3.3679418,-3.66103 -0.025732,0.023 -0.2103099,1.00994 -0.4101731,2.19324 l -0.3633877,2.15145 0.7669067,0.75537 c 0.4217987,0.41546 0.7669067,0.79546 0.7669067,0.84446 0,0.0842 -2.9296863,1.58759 -3.0937872,1.58759 -0.042448,0 -0.077177,-0.10988 -0.077177,-0.24418 z m 12.0496658,-0.46928 c 0,-0.13081 0.09912,-0.23783 0.220258,-0.23783 0.121141,0 0.382013,-0.13098 0.579713,-0.29107 0.286227,-0.23177 0.450435,-0.72434 0.80604,-2.41786 l 0.446586,-2.12679 -0.392106,-0.34913 c -0.438069,-0.39005 -0.486385,-0.52121 -0.19392,-0.52641 0.109002,-0.002 0.355911,-0.1268 0.548686,-0.27746 0.278179,-0.21741 0.447544,-0.73193 0.820822,-2.49361 0.420603,-1.98502 0.446017,-2.25739 0.240402,-2.57641 -0.156069,-0.24214 -0.385777,-0.35673 -0.715126,-0.35673 -0.317667,0 -0.462409,-0.0684 -0.41919,-0.19819 0.05061,-0.15194 1.264831,-0.20795 5.204377,-0.24006 2.826103,-0.023 5.221724,-0.01 5.323603,0.0292 0.133529,0.0512 0.07692,0.50548 -0.202826,1.62737 -0.529822,2.12483 -0.539031,2.14075 -0.756848,1.30876 -0.204397,-0.78074 -0.74804,-1.64841 -1.17648,-1.8777 -0.146678,-0.0785 -0.982216,-0.19346 -1.856752,-0.25546 l -1.590064,-0.11273 -0.434773,2.11872 c -0.239124,1.1653 -0.477146,2.27925 -0.528936,2.47546 -0.08393,0.31796 -0.03616,0.35672 0.439609,0.35661 0.783237,-1.6e-4 2.442543,-0.83421 2.73568,-1.37504 l 0.242894,-0.44814 -0.0011,0.39637 c -6.34e-4,0.218 -0.201516,1.35955 -0.446416,2.53677 -0.353889,1.70113 -0.469571,2.05169 -0.563668,1.70817 -0.247411,-0.90324 -2.181887,-2.09598 -2.609799,-1.60913 -0.06709,0.0763 -0.323145,1.04491 -0.569018,2.1524 -0.571985,2.57639 -0.578719,2.56473 1.429399,2.4769 1.246776,-0.0545 1.554577,-0.12787 2.296944,-0.54728 0.6823,-0.38547 0.963597,-0.67547 1.378396,-1.42103 0.608924,-1.09448 0.635173,-0.95248 0.207839,1.1244 -0.174403,0.84761 -0.317096,1.56893 -0.317096,1.60294 0,0.034 -2.283095,0.0618 -5.073544,0.0618 -4.404117,0 -5.073543,-0.0314 -5.073543,-0.23782 z m 53.180509,-1.56069 c -0.04496,-0.11716 -0.06056,-0.74144 -0.03466,-1.38729 l 0.04708,-1.17428 2.41786,-0.0438 2.417861,-0.0438 v 1.43106 1.43107 h -2.383199 c -1.848833,0 -2.401529,-0.0478 -2.464945,-0.21303 z m -26.983358,-16.14827 0.04258,-3.69506 1.30476,0.0263 c 2.145616,0.0432 2.946159,0.50365 3.155885,1.81521 l 0.09669,0.60466 0.337378,-0.65896 c 0.639813,-1.24967 1.97028,-1.91755 3.470896,-1.74237 l 0.592365,0.0692 v 0.78258 0.78258 l -0.529288,-0.0993 c -0.671184,-0.12591 -1.576635,0.23958 -1.930155,0.77911 -0.628712,0.95954 -0.383866,2.48184 0.491422,3.05535 0.24851,0.16283 0.749548,0.29164 1.162717,0.29892 0.724389,0.0128 0.726144,0.0142 0.776483,0.61911 0.02775,0.33348 -0.02338,0.68015 -0.113626,0.7704 -0.09024,0.0902 -0.585816,0.16408 -1.10127,0.16408 -1.893645,0 -3.240239,-1.42599 -3.263804,-3.45625 l -0.0111,-0.95668 -0.237823,0.47565 c -0.267296,0.53459 -1.071586,0.98215 -1.902579,1.05871 l -0.554918,0.0511 -0.04832,-0.7531 c -0.04245,-0.66154 -0.0101,-0.7531 0.266134,-0.7531 0.172952,0 0.426576,-0.11212 0.563606,-0.24915 0.470044,-0.47005 0.244662,-0.96465 -0.508189,-1.11522 l -0.503749,-0.10075 -0.04329,2.9126 -0.04329,2.91259 -0.756048,0.0485 -0.756047,0.0484 z m 14.751901,3.52505 c -1.606185,-0.38649 -2.369503,-1.99513 -1.502901,-3.16727 0.335601,-0.45392 0.342904,-0.51392 0.115982,-0.95274 -0.133195,-0.25756 -0.242172,-0.74761 -0.242172,-1.08899 0,-1.93643 2.838323,-2.65606 4.108254,-1.0416 0.408554,0.51939 0.449301,1.72432 0.07632,2.25683 -0.238309,0.34023 -0.233185,0.38672 0.07927,0.71932 0.183729,0.19557 0.334052,0.47584 0.334052,0.62282 0,0.14699 0.07135,0.26724 0.158548,0.26724 0.0872,0 0.158548,-0.0974 0.158548,-0.21644 0,-0.11904 0.145854,-0.40186 0.324117,-0.62849 0.302206,-0.38419 0.307567,-0.44405 0.07927,-0.88552 -0.134663,-0.26041 -0.244843,-0.75278 -0.244843,-1.09416 0,-1.93643 2.838322,-2.65606 4.108254,-1.0416 0.408553,0.51939 0.4493,1.72432 0.07632,2.25683 -0.239323,0.34168 -0.232911,0.38702 0.105699,0.74745 0.47697,0.50771 0.497098,1.64207 0.04002,2.2553 -1.000133,1.34182 -3.138424,1.39048 -4.157743,0.0946 -0.182104,-0.23151 -0.331097,-0.55399 -0.331097,-0.71664 0,-0.16264 -0.07135,-0.29571 -0.158548,-0.29571 -0.0872,0 -0.158548,0.13307 -0.158548,0.29571 0,0.9858 -1.711324,1.9156 -2.968808,1.61303 z m 0.973987,-1.52933 c 0.369859,-0.14193 0.323377,-0.9636 -0.06631,-1.17215 -0.430617,-0.23046 -0.951289,0.059 -0.951289,0.52879 0,0.60229 0.424772,0.87084 1.017595,0.64336 z m 5.073544,0 c 0.369858,-0.14193 0.323376,-0.9636 -0.06631,-1.17215 -0.430617,-0.23046 -0.951289,0.059 -0.951289,0.52879 0,0.60229 0.424773,0.87084 1.017596,0.64336 z m -4.981302,-3.14104 c 0,-0.0365 0.03978,-0.16996 0.08839,-0.29665 0.10105,-0.26333 -0.31917,-0.74688 -0.649056,-0.74688 -0.289018,0 -0.574321,0.54273 -0.452369,0.86053 0.08222,0.21426 1.013033,0.38241 1.013033,0.183 z m 5.073544,0 c 0,-0.0365 0.03978,-0.16996 0.08839,-0.29665 0.101049,-0.26333 -0.31917,-0.74688 -0.649057,-0.74688 -0.289018,0 -0.57432,0.54273 -0.452368,0.86053 0.08222,0.21426 1.013033,0.38241 1.013033,0.183 z m 3.870985,4.60669 c -2.068351,-0.93987 -2.220232,-5.74185 -0.213982,-6.76536 1.219901,-0.62235 2.647767,-0.26779 3.310535,0.82205 0.168088,0.27639 0.386572,0.98251 0.485521,1.56914 0.296304,1.75669 -0.152091,3.42429 -1.113378,4.1407 -0.531671,0.39623 -1.838521,0.51982 -2.468696,0.23347 z m 1.634911,-1.79845 c 0.399011,-0.60897 0.39502,-2.66131 -0.0064,-3.2739 -0.701541,-1.07069 -1.602141,0.0399 -1.48804,1.83496 0.1077,1.6944 0.855335,2.41428 1.494406,1.43894 z m 4.086272,1.77566 c -1.232718,-0.43622 -1.741906,-1.50194 -1.741816,-3.64558 6.8e-5,-1.65494 0.36311,-2.56696 1.23293,-3.09731 0.695318,-0.42396 2.038897,-0.42061 2.730467,0.007 1.292842,0.79902 1.686935,3.86345 0.73325,5.70166 -0.512677,0.98818 -1.806032,1.44096 -2.954831,1.03443 z m 1.251085,-1.5898 c 1.066711,-1.06671 0.436204,-4.48511 -0.713742,-3.86967 -0.787074,0.42123 -0.799373,3.4883 -0.01582,3.94509 0.36813,0.21461 0.447767,0.20638 0.729562,-0.0754 z m 3.056142,1.56441 c -0.05814,-0.0581 -0.105699,-0.4092 -0.105699,-0.78014 v -0.67444 l 2.053653,-0.0522 c 1.410703,-0.0359 2.118041,-0.11662 2.259312,-0.2579 0.142432,-0.14243 0.221668,-0.86391 0.257733,-2.34676 l 0.05207,-2.14111 0.740667,0.0478 0.740668,0.0478 0.04965,1.42694 c 0.09858,2.83349 -0.242289,3.8178 -1.551092,4.47898 -0.611606,0.30898 -0.952829,0.35674 -2.548704,0.35674 -1.013408,0 -1.890125,-0.0476 -1.948258,-0.1057 z m 6.623161,-0.0996 c -0.0507,-0.13212 -0.06931,-0.47888 -0.04137,-0.77059 l 0.05081,-0.53037 1.500798,-0.046 c 2.110578,-0.0648 2.066537,-0.004 2.066537,-2.8324 v -2.27438 h 0.803651 0.803651 l -0.05055,2.52575 c -0.04519,2.25786 -0.08522,2.57213 -0.37744,2.96299 -0.705491,0.94362 -1.059002,1.08186 -2.930265,1.14591 -1.439974,0.0493 -1.749262,0.0186 -1.825825,-0.18087 z m 10.900514,-0.46858 c 0.04547,-0.62845 0.08256,-0.67711 0.550738,-0.72252 0.408152,-0.0396 0.802972,-0.37237 2.112214,-1.78028 0.885627,-0.95238 1.565195,-1.80446 1.510145,-1.89353 -0.0598,-0.0967 -0.926411,-0.16193 -2.151848,-0.16193 h -2.05177 v -0.71347 -0.71347 h 2.277568 c 2.09629,0 2.31235,0.0274 2.71453,0.34372 0.53624,0.4218 0.92551,1.30365 0.78073,1.76868 -0.0591,0.18981 -0.31194,0.60508 -0.56191,0.92283 -0.24996,0.31776 -0.45447,0.61422 -0.45447,0.65881 0,0.0446 0.32106,0.60181 0.71347,1.23828 0.94733,1.53653 0.9386,1.72671 -0.0793,1.72671 -0.49665,0 -0.79274,-0.0688 -0.79274,-0.18431 0,-0.10136 -0.22313,-0.53202 -0.49585,-0.95702 l -0.495847,-0.77271 -0.996636,0.95702 c -0.955099,0.91713 -1.030627,0.95702 -1.812216,0.95702 h -0.815582 z m -5.262612,-2.65568 v -0.80006 l 2.814231,0.0433 2.814231,0.0433 v 0.71347 0.71346 l -2.814231,0.0433 -2.814231,0.0433 z m -38.148365,0.24935 c -0.04776,-0.12446 -0.06336,-0.39201 -0.03466,-0.59456 0.05062,-0.35727 0.105414,-0.3696 1.835843,-0.41309 l 1.783667,-0.0448 v 0.63938 0.63939 h -1.749005 c -1.368806,0 -1.767885,-0.0492 -1.835845,-0.22629 z m 25.781603,-0.80427 v -0.71347 h 1.664756 1.664757 v 0.71347 0.71346 h -1.664757 -1.664756 z m 6.764725,0.44922 c -0.05813,-0.0581 -0.1057,-0.80728 -0.1057,-1.66476 v -1.55906 h 0.792742 0.792741 v 1.66476 1.66476 h -0.687042 c -0.377874,0 -0.734608,-0.0476 -0.792741,-0.1057 z m -6.764725,-2.51035 v -0.71347 h 1.664756 1.664757 v 0.71347 0.71347 h -1.664757 -1.664756 z m 23.872831,0.30577 c -0.31055,-0.31055 -0.3175,-0.60658 -0.0201,-0.85345 0.36501,-0.30293 0.95229,-0.14103 1.01182,0.27895 0.0994,0.70126 -0.51126,1.05501 -0.99177,0.5745 z m 1.5583,0.12781 c -0.26726,-0.17849 -0.35321,-0.56189 -0.19496,-0.86959 0.19201,-0.37333 0.87169,-0.3549 1.07726,0.0292 0.21226,0.39661 0.20973,0.41781 -0.085,0.71256 -0.2701,0.27009 -0.52343,0.31071 -0.79728,0.12781 z"
         id="path752"
         inkscape:connector-curvature="0" />
      <path
         style="fill:#ffffff;stroke-width:0.15854824"
         d="m 112.44098,283.55676 c -2.48087,-0.48756 -4.39068,-2.69865 -5.26173,-6.0918 -0.41866,-1.63088 -0.57161,-4.76602 -0.32312,-6.62313 0.61185,-4.57272 2.9514,-7.11805 6.77109,-7.36666 3.48528,-0.22685 5.81394,1.39795 6.94071,4.84278 0.62375,1.90699 0.79274,3.10136 0.78945,5.57967 -0.002,1.82248 -0.075,2.59091 -0.35002,3.70763 -0.87499,3.55239 -2.44907,5.26938 -5.4053,5.89606 -1.15268,0.24435 -2.11407,0.26121 -3.16108,0.0555 z m 2.99961,-4.57496 c 1.80137,-1.89363 2.01828,-7.46992 0.39811,-10.23453 -0.68404,-1.16723 -1.96453,-1.55343 -2.84756,-0.85884 -1.37024,1.07783 -2.06268,4.93711 -1.45536,8.11131 0.47918,2.50448 1.28903,3.58726 2.69253,3.6 0.51789,0.005 0.71608,-0.0963 1.21228,-0.61794 z m -71.671884,-5.55982 v -10.14709 l 3.131328,0.002 c 4.773313,0.003 6.854306,0.55157 8.2923,2.18522 0.997345,1.13304 1.418252,3.045 1.103747,5.01373 -0.309474,1.93722 -1.286405,3.29013 -2.989671,4.14027 -0.852186,0.42534 -2.76486,0.85111 -3.869605,0.86138 l -0.594556,0.006 v -1.97213 -1.97214 l 0.753105,-0.10958 c 1.484033,-0.21593 2.259312,-0.91947 2.259312,-2.05025 0,-1.26979 -0.857088,-1.89721 -2.843912,-2.08186 l -1.119794,-0.10408 v 8.188 8.188 h -2.061127 -2.061127 z m 20.870351,9.89555 c -2.975863,-0.7203 -5.510546,-3.36351 -6.372468,-6.64531 -0.40418,-1.53894 -0.473531,-3.91667 -0.159447,-5.46674 1.068117,-5.27137 4.705341,-8.16574 9.904029,-7.88126 2.590533,0.14176 2.393638,-0.046 2.393638,2.28299 v 1.97824 l -0.832378,-0.13379 c -2.454639,-0.39454 -4.293567,0.13647 -5.663483,1.63537 -1.146235,1.25417 -1.500763,2.27822 -1.500763,4.33495 0,1.36024 0.06589,1.83011 0.360224,2.56874 0.477042,1.19713 1.560178,2.37836 2.689281,2.93282 0.797622,0.39169 1.081586,0.444 2.410347,0.444 0.828415,0 1.684575,-0.0357 1.902579,-0.0793 l 0.396371,-0.0793 v 1.98185 1.98185 l -0.872016,0.1829 c -1.201152,0.25193 -3.536727,0.23284 -4.655914,-0.0381 z m 17.757402,0 c -2.12602,-0.51459 -4.038609,-2.06431 -4.687238,-3.79792 -0.228519,-0.61077 -0.32829,-1.25165 -0.32829,-2.10874 0,-1.41728 0.38275,-2.37627 1.41075,-3.53468 l 0.599669,-0.67574 -0.727751,-1.40847 c -0.702137,-1.35889 -0.727638,-1.45694 -0.724589,-2.78585 0.0027,-1.19152 0.06465,-1.50306 0.45884,-2.30876 0.598513,-1.22332 1.473501,-2.07487 2.741821,-2.66839 2.125935,-0.99484 5.211662,-0.71997 6.968047,0.62071 0.95202,0.72669 1.229476,1.04842 1.734086,2.01075 0.928536,1.7708 0.807567,3.82231 -0.323372,5.48407 l -0.695188,1.02148 0.636757,0.72255 c 1.219875,1.38423 1.451171,1.94119 1.443921,3.47689 -0.0089,1.88036 -0.433824,2.97068 -1.618021,4.15149 -1.794963,1.78983 -4.265904,2.43564 -6.889442,1.80061 z m 2.917073,-3.95268 c 1.085239,-0.5612 1.273689,-2.35895 0.344665,-3.28797 -0.682519,-0.68252 -1.919298,-0.79404 -2.728078,-0.246 -1.710061,1.15878 -0.864305,3.77448 1.220432,3.77448 0.383842,0 0.907184,-0.10823 1.162981,-0.24051 z m -0.199422,-8.79741 c 0.980315,-0.59769 1.071895,-1.89016 0.195996,-2.76606 -0.924967,-0.92497 -2.500835,-0.54113 -2.872593,0.6997 -0.264528,0.88291 0.062,1.72825 0.813636,2.10642 0.716849,0.36066 1.223591,0.34977 1.862961,-0.0401 z m 12.049306,12.75509 c -1.990397,-0.4825 -3.739511,-1.78783 -4.51238,-3.36751 -0.340985,-0.69695 -0.443871,-1.16855 -0.496896,-2.27759 -0.06053,-1.26604 -0.0271,-1.47993 0.352579,-2.25597 0.230698,-0.47153 0.692411,-1.16491 1.026029,-1.54086 l 0.606582,-0.68353 -0.676807,-1.29388 c -0.813372,-1.55496 -0.971329,-2.42861 -0.706758,-3.90905 0.492229,-2.75435 2.911956,-4.55347 6.131387,-4.55882 5.007988,-0.008 7.969128,4.79265 5.380148,8.72295 l -0.68194,1.03524 0.70203,0.77541 c 1.13413,1.25269 1.37461,1.85314 1.36843,3.41676 -0.007,1.74235 -0.42059,2.85338 -1.50385,4.03863 -1.64862,1.80386 -4.350432,2.53772 -6.988554,1.89822 z m 2.895104,-3.95768 c 0.60616,-0.31346 0.9461,-0.9941 0.9461,-1.89435 0,-0.5992 -0.091,-0.82291 -0.5288,-1.30068 -0.45741,-0.49913 -0.644691,-0.58633 -1.387296,-0.64599 -1.099665,-0.0883 -1.859168,0.36986 -2.190948,1.32178 -0.640955,1.83898 1.372803,3.44393 3.160944,2.51924 z m -0.199424,-8.79741 c 0.952064,-0.58047 1.070794,-1.86246 0.251684,-2.71743 -0.857576,-0.89512 -2.384962,-0.67533 -2.837752,0.40835 -0.127665,0.30554 -0.232116,0.6719 -0.232116,0.81412 0,0.52061 0.51122,1.31482 1.00218,1.55694 0.678659,0.33469 1.194279,0.31709 1.816004,-0.062 z m 23.183724,2.93869 v -10.07269 h 1.98304 1.98303 l -0.0408,10.02817 -0.0408,10.02818 -1.94221,0.0445 -1.94222,0.0445 z m -89.060724,3.0176 c -2.176828,-0.52748 -3.575267,-2.46204 -3.800084,-5.25692 -0.110916,-1.37888 0.173281,-2.34346 1.098817,-3.72946 1.492467,-2.23499 4.981051,-4.22892 7.78872,-4.4517 l 0.612208,-0.0486 0.515263,1.34766 c 0.804177,2.10331 0.794167,2.03995 0.349019,2.20919 -0.214548,0.0816 -0.642219,0.19561 -0.95038,0.25342 -0.552575,0.10367 -0.570592,0.0896 -1.308573,-1.0202 -0.411556,-0.61892 -0.811197,-1.12532 -0.888092,-1.12532 -0.371221,0 -2.037416,0.99235 -2.627164,1.56468 -1.256151,1.21906 -1.889274,3.10231 -1.470023,4.37265 0.421553,1.27732 1.795533,2.29663 3.105267,2.3037 0.784108,0.004 2.099724,-0.372 3.136231,-0.89687 0.422879,-0.21415 0.79024,-0.36672 0.816357,-0.33906 0.02612,0.0277 -0.401753,1.01348 -0.950825,2.1907 -1.087707,2.33207 -1.175189,2.42203 -2.622194,2.69645 -1.053613,0.19981 -1.763112,0.18202 -2.804547,-0.0703 z M 5.5597047,276.39476 c 6.183e-4,-0.10901 0.3216775,-2.03936 0.713467,-4.28967 0.3917895,-2.25032 0.7123445,-4.20965 0.7123445,-4.35408 0,-0.14442 -0.2848084,-0.55279 -0.6329075,-0.90747 l -0.6329078,-0.64489 1.3860119,-1.52816 c 0.7623064,-0.84048 1.4577587,-1.534 1.5454495,-1.54115 0.087691,-0.007 1.4789517,1.58991 3.0916907,3.54902 l 2.932252,3.56203 0.260595,-1.14416 c 0.143327,-0.62929 0.492588,-2.2322 0.776134,-3.56203 0.283547,-1.32982 0.583377,-2.41786 0.66629,-2.41786 0.162176,0 2.815606,1.41805 2.815606,1.50472 0,0.0287 -0.52121,0.33816 -1.158245,0.68779 l -1.158246,0.63568 -0.991591,4.8882 c -0.545375,2.68851 -1.040855,5.04391 -1.101067,5.23422 -0.09544,0.30168 -0.535598,-0.12899 -3.434487,-3.36044 -1.8287561,-2.03855 -3.3556924,-3.67578 -3.3931914,-3.63828 -0.037499,0.0375 -0.2339793,1.0498 -0.4366225,2.24955 l -0.3684422,2.18137 0.7881054,0.79802 0.7881055,0.79802 -1.5075558,0.74887 c -1.676048,0.83258 -1.6623592,0.82804 -1.6607883,0.5507 z m 12.0485433,-0.43993 c 0,-0.0894 0.174636,-0.22887 0.388078,-0.31003 0.603853,-0.22958 0.825773,-0.72473 1.266382,-2.82557 0.411897,-1.96394 0.394195,-2.40048 -0.106798,-2.63367 -0.157638,-0.0734 -0.158472,-0.11254 -0.0039,-0.18487 0.713548,-0.33402 0.857451,-0.64673 1.332095,-2.89468 0.456746,-2.16319 0.466471,-2.28582 0.204242,-2.57558 -0.151442,-0.16734 -0.442654,-0.30425 -0.647143,-0.30425 -0.224788,0 -0.371797,-0.094 -0.371797,-0.23782 0,-0.2066 0.687042,-0.23782 5.232091,-0.23782 4.415846,0 5.232092,0.0351 5.232092,0.2253 0,0.12392 -0.148449,0.85522 -0.329886,1.62512 -0.337591,1.4325 -0.619228,2.02493 -0.624011,1.31261 -0.0035,-0.51782 -0.607931,-1.5507 -1.137086,-1.94303 -0.337562,-0.25028 -0.758078,-0.332 -2.02149,-0.39284 -0.892685,-0.043 -1.595263,-0.0142 -1.595263,0.0654 0,0.0782 -0.21404,1.13917 -0.475645,2.35768 -0.261605,1.21852 -0.475645,2.26994 -0.475645,2.33649 0,0.52674 2.735905,-0.46117 3.229744,-1.16623 0.161197,-0.23014 0.2555,-0.28102 0.250826,-0.13533 -0.01148,0.3577 -0.909636,4.54109 -0.927829,4.32159 -0.02481,-0.29931 -0.964438,-1.30393 -1.458564,-1.55946 -0.244331,-0.12635 -0.645057,-0.22972 -0.890506,-0.22972 -0.44309,0 -0.449558,0.0148 -0.908594,2.07717 -0.337538,1.51651 -0.417999,2.14773 -0.298099,2.33859 0.123257,0.1962 0.456736,0.27344 1.33673,0.30964 2.107447,0.0867 3.414675,-0.55276 4.092892,-2.00211 0.21099,-0.45088 0.412227,-0.79118 0.447194,-0.75622 0.03496,0.035 -0.09416,0.85525 -0.286943,1.82285 l -0.350516,1.75927 H 22.65959 c -3.343178,0 -5.05131,-0.0549 -5.05131,-0.16247 z m 53.272206,-2.84995 v -1.42693 h 2.378223 2.378224 v 1.42693 1.42694 h -2.378224 -2.378223 z m -1.981853,-11.36634 c -1.451612,-0.39442 -2.288646,-2.64332 -1.821453,-4.89377 0.613618,-2.95579 4.269179,-3.0891 4.920332,-0.17944 0.103909,0.46432 0.161667,1.37444 0.128348,2.0225 -0.07035,1.36828 -0.477847,2.30435 -1.182372,2.71604 -0.509363,0.29764 -1.552696,0.4684 -2.044855,0.33467 z m 1.387051,-2.11026 c 0.620878,-1.24286 0.183057,-3.35589 -0.716768,-3.4593 -0.377575,-0.0434 -0.474847,0.034 -0.689843,0.54852 -0.327989,0.78499 -0.243313,2.52768 0.152143,3.13123 0.386112,0.58928 0.894602,0.49992 1.254468,-0.22045 z m -26.516946,-1.50621 v -3.56733 l 1.387297,0.003 c 1.549276,0.004 2.56877,0.34103 2.899403,0.95883 0.275416,0.51462 0.248583,1.73372 -0.05076,2.30618 -0.304239,0.58183 -1.121275,1.01231 -1.921314,1.01231 -0.559675,0 -0.570594,-0.0121 -0.570594,-0.63207 0,-0.57249 0.0523,-0.65391 0.554918,-0.86392 0.928641,-0.38801 0.652978,-1.35788 -0.385947,-1.35788 -0.318863,0 -0.32752,0.0754 -0.32752,2.85387 v 2.85387 h -0.792741 -0.792741 z m 6.421203,3.34262 c -1.120457,-0.50013 -1.823304,-1.747 -1.823304,-3.23459 0,-2.3589 1.321388,-3.75466 3.449469,-3.64361 l 0.910607,0.0475 v 0.68875 0.68875 l -0.81855,0.0273 c -0.564966,0.0188 -0.926099,0.1246 -1.165706,0.34144 -0.974737,0.88212 -1.056794,2.42059 -0.176082,3.3013 0.426119,0.42612 0.615424,0.49959 1.289753,0.50055 l 0.79033,0.001 4.75e-4,0.7531 4.76e-4,0.75311 -0.990927,-0.006 c -0.545009,-0.003 -1.204966,-0.10174 -1.466571,-0.21851 z m 7.768864,-0.0187 c -0.261605,-0.13278 -0.63582,-0.43556 -0.83159,-0.67285 -0.474382,-0.57498 -0.491035,-1.72514 -0.03341,-2.30693 0.308876,-0.39267 0.311774,-0.43591 0.06162,-0.91967 -0.326169,-0.63073 -0.230179,-1.75562 0.190072,-2.22742 0.962637,-1.08072 2.981931,-0.96234 3.700933,0.21696 0.384516,0.63069 0.415214,1.58155 0.06816,2.11122 -0.236378,0.36076 -0.23117,0.41388 0.07927,0.80855 0.657918,0.8364 0.31926,2.32188 -0.66635,2.92284 -0.619627,0.37781 -1.891311,0.41113 -2.568711,0.0673 z m 1.828995,-1.51128 c 0.221563,-0.414 -0.177322,-1.09921 -0.639884,-1.09921 -0.170382,0 -0.423521,0.17358 -0.562532,0.38574 -0.350201,0.53447 -0.07643,1.04119 0.562532,1.04119 0.307245,0 0.523866,-0.11094 0.639884,-0.32772 z m -0.254838,-2.93384 c 0.294755,-0.29476 0.297284,-0.31595 0.08502,-0.71256 -0.267388,-0.49962 -1.104259,-0.29604 -1.104259,0.26863 0,0.22253 0.430567,0.69308 0.634192,0.69308 0.07475,0 0.248016,-0.11212 0.385047,-0.24915 z m 3.439374,4.41739 c -1.06763,-0.52595 -1.491279,-2.07956 -0.804983,-2.95205 0.308876,-0.39267 0.311774,-0.43591 0.06162,-0.91967 -0.399979,-0.77347 -0.228646,-1.83588 0.384408,-2.38364 0.946625,-0.84581 2.441583,-0.78701 3.306482,0.13005 0.428941,0.45481 0.521275,0.67808 0.521275,1.26047 0,0.38926 -0.11385,0.88151 -0.253,1.09388 -0.236378,0.36076 -0.23117,0.41388 0.07927,0.80855 0.701679,0.89204 0.297944,2.43953 -0.78219,2.99809 -0.601554,0.31107 -1.844843,0.29342 -2.512883,-0.0357 z m 1.889007,-1.48355 c 0.237523,-0.44382 -0.199676,-1.14014 -0.671371,-1.06929 -0.46368,0.0697 -0.764453,0.59753 -0.592732,1.04028 0.185947,0.47944 1.012885,0.49841 1.264103,0.029 z m -0.254838,-2.93384 c 0.294756,-0.29476 0.297285,-0.31595 0.08502,-0.71256 -0.267389,-0.49962 -1.10426,-0.29604 -1.10426,0.26863 0,0.22253 0.430568,0.69308 0.634193,0.69308 0.07474,0 0.248015,-0.11212 0.385045,-0.24915 z m 9.23976,4.40682 c -0.243654,-0.15028 -0.636061,-0.66565 -0.872015,-1.14526 -0.36459,-0.74107 -0.429008,-1.075 -0.429008,-2.2239 0,-2.41536 0.940283,-3.56591 2.814393,-3.44374 0.738467,0.0481 1.000855,0.14475 1.380175,0.50816 0.650339,0.62306 0.95825,1.64319 0.95825,3.17474 0,1.60447 -0.487642,2.75512 -1.338767,3.15901 -0.700118,0.33223 -1.950759,0.31779 -2.513028,-0.029 z m 1.905924,-1.57416 c 0.429607,-0.65546 0.396615,-2.72133 -0.05309,-3.32442 -0.776609,-1.0415 -1.539573,-0.10843 -1.456143,1.78081 0.07774,1.76052 0.84963,2.54999 1.509236,1.54361 z m 20.443165,1.75014 c -0.05814,-0.0581 -0.1057,-0.34029 -0.1057,-0.62701 0,-0.47099 0.05396,-0.53143 0.55908,-0.62619 0.445431,-0.0836 0.880871,-0.44656 2.142111,-1.78572 0.870668,-0.92447 1.558657,-1.7545 1.528867,-1.84452 -0.0316,-0.0956 -0.905648,-0.19663 -2.102473,-0.24295 l -2.04831,-0.0793 -0.04875,-0.67383 -0.04875,-0.67383 h 2.157392 c 2.304231,0 2.834261,0.132 3.321131,0.82712 0.1361,0.1943 0.24745,0.63762 0.24745,0.98514 0,0.51193 -0.10871,0.7432 -0.57269,1.21836 l -0.57269,0.58648 0.47172,0.68859 c 0.54286,0.79244 1.1493,1.94721 1.1493,2.18847 0,0.0907 -0.31922,0.16487 -0.70939,0.16487 -0.64066,0 -0.7349,-0.0499 -0.9726,-0.51528 -0.14476,-0.28341 -0.40397,-0.71543 -0.57603,-0.96006 l -0.31283,-0.44478 -0.999801,0.96006 c -0.915143,0.87877 -1.059137,0.96006 -1.700566,0.96006 -0.385421,0 -0.74833,-0.0476 -0.806463,-0.1057 z m -17.704553,-0.76632 v -0.71346 h 1.981853 c 2.67234,0 2.616045,0.058 2.616045,-2.69532 v -2.06113 h 0.713468 0.713467 v 2.22755 c 0,2.52638 -0.114176,2.90603 -1.069088,3.55491 -0.560509,0.38088 -0.699126,0.40092 -2.772874,0.40092 h -2.182871 z m 6.817574,0 v -0.71346 h 1.579904 c 1.399737,0 1.59862,-0.035 1.744031,-0.30668 0.09082,-0.1697 0.164126,-1.3027 0.164126,-2.53677 v -2.2301 h 0.792741 0.792741 v 2.34106 c 0,2.63278 -0.150293,3.14777 -1.109757,3.80269 -0.462834,0.31592 -0.719442,0.35673 -2.243202,0.35673 h -1.720584 z m 5.549188,-2.45749 v -0.6342 h 2.853868 2.853868 v 0.6342 0.63419 h -2.853868 -2.853868 z m -38.051576,-0.15855 v -0.6342 h 1.744031 1.74403 v 0.6342 0.63419 h -1.74403 -1.744031 z m 25.749505,0.0984 c -0.04859,-0.12661 -0.06518,-0.43244 -0.03688,-0.67961 l 0.05146,-0.4494 h 1.585482 1.585482 v 0.6342 0.63419 l -1.548605,0.0454 c -1.237659,0.0363 -1.566342,-8.1e-4 -1.636942,-0.18479 z m 6.752883,-1.68393 v -1.58548 h 0.713467 0.713467 v 1.58548 1.58549 H 86.02181 85.308343 Z m -6.706518,-0.25888 c -0.06108,-0.0611 -0.111056,-0.38456 -0.111056,-0.71883 v -0.60777 h 1.673873 1.673873 l -0.04875,0.67383 -0.04875,0.67383 -1.514062,0.045 c -0.832735,0.0247 -1.564039,-0.005 -1.62512,-0.0661 z m 23.761775,-0.30736 c -0.31055,-0.31055 -0.3175,-0.60658 -0.0201,-0.85345 0.36501,-0.30293 0.95229,-0.14103 1.01182,0.27895 0.0994,0.70126 -0.51126,1.05501 -0.99177,0.5745 z m 1.50213,0.02 c -0.10457,-0.126 -0.16682,-0.39355 -0.13833,-0.59455 0.0409,-0.28886 0.15151,-0.36546 0.52746,-0.36546 0.37594,0 0.4865,0.0766 0.52745,0.36546 0.0568,0.40043 -0.21426,0.82365 -0.52745,0.82365 -0.10945,0 -0.28456,-0.10309 -0.38913,-0.2291 z"
         id="path750"
         inkscape:connector-curvature="0" />
      <path
         style="fill:#ffffff;stroke-width:0.15854824"
         d="m 112.75633,283.55047 c -1.75999,-0.2956 -3.02078,-1.10147 -4.01596,-2.56693 -1.4,-2.0616 -1.91625,-4.13867 -1.9188,-7.72011 -0.002,-3.51244 0.48264,-5.39966 1.87597,-7.29776 1.91664,-2.61098 6.35871,-3.3038 9.22013,-1.43805 1.02295,0.667 1.37229,1.0856 2.08616,2.49978 0.89881,1.78054 1.32499,4.02531 1.31761,6.94007 -0.0102,4.02454 -1.21351,7.22113 -3.19755,8.49428 -1.45089,0.93104 -3.65026,1.37714 -5.36756,1.08872 z m 1.93557,-4.00283 c 2.29663,-0.95959 3.08426,-6.95446 1.37705,-10.4811 -0.50248,-1.03797 -1.13312,-1.51085 -2.01492,-1.51085 -0.62129,0 -0.80191,0.082 -1.31794,0.59799 -0.87298,0.87298 -1.28872,2.29426 -1.38626,4.73921 -0.0887,2.22314 0.11718,3.70318 0.69053,4.96414 0.47332,1.04096 0.7787,1.40572 1.41029,1.68451 0.60184,0.26566 0.61984,0.26575 1.24125,0.006 z m -70.923194,-6.12566 v -10.14709 l 2.814231,0.003 c 1.547827,0.002 3.313658,0.0727 3.924069,0.1577 2.749852,0.38296 4.402191,1.30693 5.229276,2.92417 0.457258,0.89409 0.47846,1.02387 0.47846,2.92861 0,1.85849 -0.02976,2.05366 -0.440729,2.89054 -0.946354,1.92708 -2.757258,2.92351 -5.861563,3.22527 l -1.070201,0.10402 v -1.97292 -1.97292 l 0.726522,-0.0996 c 1.531865,-0.20997 2.285895,-0.89137 2.285895,-2.06573 0,-1.35109 -0.812362,-1.96603 -2.795315,-2.116 l -1.168391,-0.0884 v 8.18812 8.18811 h -2.061127 -2.061127 z m 21.086915,9.89931 c -3.198435,-0.69073 -5.648536,-3.2423 -6.613037,-6.8869 -0.426508,-1.61166 -0.362148,-4.62986 0.133589,-6.26466 1.38305,-4.5609 5.004261,-7.14422 9.571138,-6.8279 0.784814,0.0544 1.623138,0.1412 1.862942,0.19298 l 0.436008,0.0941 v 1.96639 1.96639 l -0.436008,-0.12193 c -0.239804,-0.0671 -1.078128,-0.12027 -1.862942,-0.11824 -1.20216,0.003 -1.567991,0.0692 -2.322408,0.41983 -1.180561,0.54862 -2.113411,1.50733 -2.727155,2.80274 -0.470371,0.9928 -0.499625,1.1613 -0.499625,2.87785 0,1.66493 0.03857,1.90593 0.444054,2.77459 0.72403,1.55108 2.17056,2.79723 3.666009,3.15819 0.587598,0.14183 2.265943,0.14464 3.010083,0.005 l 0.569443,-0.10684 v 1.98023 1.98022 l -1.195588,0.17782 c -1.539115,0.22892 -2.74977,0.20794 -4.036503,-0.07 z m 18.129465,0.0825 c -3.570366,-0.63253 -5.822048,-3.21022 -5.568069,-6.37425 0.09155,-1.14049 0.507448,-2.06822 1.415842,-3.15827 l 0.616573,-0.73988 -0.482034,-0.81753 c -0.848507,-1.43907 -0.993836,-1.91039 -1.002721,-3.25191 -0.01116,-1.68637 0.522929,-2.92572 1.740337,-4.03836 1.261,-1.15249 2.264393,-1.49351 4.422439,-1.50307 1.713529,-0.008 1.778953,0.005 2.960353,0.58932 2.158515,1.06679 3.295028,2.79155 3.293195,4.9977 -0.0011,1.40759 -0.189,2.01919 -0.956692,3.11511 l -0.639839,0.9134 0.743677,0.87048 c 1.138148,1.33222 1.329384,1.81089 1.329384,3.32751 0,2.75967 -1.398556,4.75641 -4.017931,5.73644 -1.019575,0.38147 -2.741946,0.53041 -3.854514,0.33331 z m 2.438868,-4.04943 c 0.482626,-0.31077 0.878919,-1.12692 0.878919,-1.81008 0,-1.25708 -0.878779,-2.08755 -2.208983,-2.08755 -1.970884,0 -2.837915,2.38071 -1.355587,3.7222 0.660115,0.5974 1.904159,0.67866 2.685651,0.17543 z m 0.07743,-9.09021 c 0.751011,-0.84053 0.491924,-2.26949 -0.504949,-2.785 -1.628494,-0.84212 -3.3026,0.8306 -2.460694,2.45867 0.553428,1.07021 2.144547,1.24529 2.965643,0.32633 z m 12.228687,13.13139 c -3.506588,-0.58584 -5.793078,-3.17911 -5.567956,-6.31502 0.08504,-1.18464 0.486593,-2.09235 1.410125,-3.1876 l 0.608355,-0.72148 -0.660749,-1.26097 c -0.783315,-1.49487 -0.979152,-2.49025 -0.745628,-3.78982 0.234401,-1.30445 0.778124,-2.29509 1.728819,-3.14985 1.227282,-1.10343 2.243898,-1.44087 4.369401,-1.45028 1.713532,-0.008 1.778952,0.005 2.960352,0.58932 2.15852,1.06679 3.29503,2.79155 3.2932,4.9977 -0.001,1.39412 -0.191,2.02607 -0.94028,3.13006 l -0.61885,0.91182 0.80316,0.9651 c 1.1408,1.37081 1.27871,1.78151 1.20358,3.58429 -0.0561,1.34666 -0.12063,1.61787 -0.59557,2.50406 -0.6501,1.21301 -1.47821,1.98558 -2.78265,2.596 -1.48827,0.69645 -2.810519,0.87314 -4.465309,0.59667 z m 2.439959,-4.04189 c 1.24043,-0.79879 1.15862,-2.97318 -0.13706,-3.6432 -0.634241,-0.32798 -1.788775,-0.32499 -2.293827,0.006 -1.9516,1.27873 -0.790764,4.29092 1.521443,3.94789 0.305205,-0.0453 0.714455,-0.18506 0.909444,-0.31062 z m -0.0216,-9.00746 c 0.61198,-0.61198 0.71482,-1.35648 0.29855,-2.16144 -0.834942,-1.61461 -3.406099,-0.95244 -3.406099,0.8772 0,1.0254 0.840512,1.80534 1.958071,1.81696 0.487434,0.005 0.719013,-0.10226 1.149478,-0.53272 z m 22.89436,3.15511 v -10.06781 h 1.90258 1.90258 v 10.06781 10.06781 h -1.90258 -1.90258 z m -88.610283,3.07131 c -1.030871,-0.17112 -2.274615,-0.82063 -2.831229,-1.47852 -0.930417,-1.09972 -1.592539,-3.40638 -1.398909,-4.87344 0.43219,-3.27453 4.228752,-6.39102 8.633985,-7.08739 l 0.800989,-0.12662 0.422719,1.12507 c 0.232497,0.6188 0.521564,1.36959 0.642371,1.66844 0.120807,0.29884 0.164503,0.59004 0.0971,0.6471 -0.135422,0.11465 -1.336732,0.4743 -1.584253,0.4743 -0.08609,0 -0.492952,-0.50593 -0.904136,-1.1243 -0.845656,-1.27175 -0.937633,-1.29196 -2.311333,-0.50793 -2.27372,1.29771 -3.433627,3.9811 -2.528791,5.85024 0.883862,1.82582 2.966025,2.27605 5.534741,1.19679 0.646357,-0.27157 1.198541,-0.47042 1.227075,-0.44188 0.02853,0.0285 -0.388036,0.98824 -0.925711,2.13269 l -0.977591,2.08081 -0.728854,0.22891 c -1.011,0.31752 -2.160324,0.40303 -3.168173,0.23573 z m -28.7962669,-0.4949 c 0.050632,-0.2834 0.3994789,-2.31316 0.7752162,-4.51057 l 0.6831586,-3.9953 -0.6094836,-0.59514 c -0.335216,-0.32733 -0.6086516,-0.66985 -0.6076345,-0.76116 0.00348,-0.31289 2.834895,-3.18548 2.9649557,-3.00808 0.068687,0.0937 1.4061395,1.72065 2.9721175,3.61546 2.21097,2.67524 2.869616,3.3812 2.9474,3.15916 0.05509,-0.15726 0.414813,-1.76795 0.799378,-3.57929 0.384565,-1.81135 0.770556,-3.27396 0.857757,-3.25024 0.0872,0.0237 0.748416,0.36075 1.469365,0.74897 l 1.310815,0.70586 -0.914445,0.5087 c -0.502945,0.27979 -1.046213,0.60541 -1.207263,0.72359 -0.229212,0.16821 -0.512949,1.31315 -1.306227,5.27091 -0.557375,2.78081 -1.042083,5.0847 -1.077128,5.11974 -0.03505,0.035 -1.546312,-1.58343 -3.358371,-3.59661 -1.8120579,-2.01318 -3.3432656,-3.60473 -3.4026838,-3.53677 -0.059418,0.068 -0.2638463,1.08168 -0.4542849,2.25273 l -0.3462519,2.12916 0.7191686,0.73015 c 0.3955426,0.40158 0.7191686,0.78049 0.7191686,0.84202 0,0.10405 -2.7389634,1.54199 -2.9371585,1.54199 -0.049295,0 -0.048201,-0.23187 0.00243,-0.51528 z m 11.9719769,-0.10823 c 0,-0.0813 0.131408,-0.18957 0.292019,-0.24054 0.684196,-0.21716 0.949299,-0.77315 1.393352,-2.92223 l 0.43836,-2.12152 -0.388036,-0.31933 c -0.270684,-0.22275 -0.324881,-0.34142 -0.179207,-0.39237 0.693433,-0.24255 0.941924,-0.76227 1.373424,-2.87252 0.498349,-2.43717 0.439025,-2.87474 -0.389741,-2.87474 -0.263474,0 -0.479044,-0.0713 -0.479044,-0.15855 0,-0.10251 1.855892,-0.15855 5.250583,-0.15855 h 5.250583 l -0.09594,0.35674 c -0.05277,0.1962 -0.215308,0.90675 -0.361198,1.57901 -0.269792,1.24319 -0.414426,1.40469 -0.599081,0.66897 -0.202326,-0.80613 -0.893754,-1.64135 -1.49764,-1.80909 -0.509682,-0.14157 -3.190856,-0.23656 -3.190856,-0.11305 0,0.0266 -0.21404,1.02767 -0.475645,2.22457 -0.261605,1.1969 -0.475645,2.281 -0.475645,2.40911 0,0.60596 2.148348,0.027 3.031599,-0.81704 l 0.415554,-0.3971 -0.374835,1.95229 c -0.20616,1.07375 -0.375323,2.05317 -0.375918,2.17648 -6.34e-4,0.12332 -0.254928,-0.10162 -0.565188,-0.49985 -0.577748,-0.74156 -1.056689,-1.02102 -1.892249,-1.1041 l -0.474505,-0.0472 -0.461434,1.9932 c -0.560462,2.42096 -0.514694,2.77065 0.382455,2.92222 1.366812,0.23093 3.387227,-0.33281 4.162469,-1.16141 0.218442,-0.23348 0.55208,-0.70989 0.74142,-1.05869 0.189338,-0.34881 0.314434,-0.52718 0.27799,-0.39638 -0.03644,0.13081 -0.196413,0.93346 -0.355486,1.78367 l -0.289223,1.54585 h -5.044466 c -3.014281,0 -5.044467,-0.0595 -5.044467,-0.14787 z m 53.272206,-2.78527 v -1.34766 h 2.378223 2.378224 v 1.34766 1.34766 H 73.258677 70.880454 Z M 43.768706,258.10363 v -3.58577 l 1.545845,0.0635 c 2.283843,0.0938 2.893505,0.55293 2.893505,2.17916 0,1.17758 -0.923535,2.07505 -2.135308,2.07505 -0.370109,0 -0.401463,-0.0557 -0.401463,-0.71347 0,-0.58134 0.05285,-0.71346 0.285387,-0.71346 0.389107,0 0.665902,-0.30743 0.665902,-0.7396 0,-0.40604 -0.417499,-0.68734 -1.02014,-0.68734 H 45.19564 v 2.85387 2.85387 h -0.713467 -0.713467 z m 6.402798,3.28613 c -1.240964,-0.57052 -1.899619,-1.91505 -1.764255,-3.60141 0.09795,-1.22021 0.654707,-2.25683 1.489083,-2.7725 0.442421,-0.27343 0.830891,-0.36193 1.626521,-0.37053 l 1.04528,-0.0113 0.04875,0.67383 0.04875,0.67383 h -0.658484 c -1.269722,0 -2.055841,0.82854 -2.054024,2.16487 0.0018,1.32071 0.751067,2.0998 2.029562,2.11032 l 0.682946,0.006 -0.04875,0.67383 -0.04875,0.67383 -0.872015,0.0398 c -0.590713,0.027 -1.082536,-0.057 -1.524614,-0.2602 z m 7.782103,-0.0171 c -1.143702,-0.56613 -1.540992,-1.90748 -0.851691,-2.87551 0.31463,-0.44186 0.318834,-0.49489 0.07927,-0.99973 -0.888772,-1.87295 0.970208,-3.53859 2.964673,-2.65634 1.131204,0.50038 1.55816,1.71118 0.960295,2.72329 -0.248339,0.4204 -0.244378,0.46642 0.07927,0.92095 0.206977,0.29067 0.340443,0.71772 0.340083,1.08815 -0.0016,1.68515 -1.885406,2.63402 -3.571908,1.79919 z m 1.634644,-1.19846 c 0.418887,-0.2934 0.449598,-0.65135 0.08998,-1.04873 -0.325592,-0.35977 -0.656293,-0.36859 -1.033143,-0.0275 -0.373912,0.33838 -0.366519,0.61231 0.02715,1.00599 0.381706,0.3817 0.462539,0.3879 0.916011,0.0703 z m 0.02896,-3.15436 c 0.421177,-0.50748 -0.197429,-1.28706 -0.746783,-0.9411 -0.352251,0.22183 -0.438343,0.64411 -0.191864,0.9411 0.244895,0.29508 0.693752,0.29508 0.938647,0 z m 3.409943,4.35282 c -1.143702,-0.56613 -1.540992,-1.90748 -0.851691,-2.87551 0.314629,-0.44186 0.318834,-0.49489 0.07927,-0.99973 -0.888772,-1.87295 0.970207,-3.53859 2.964673,-2.65634 1.131203,0.50038 1.558159,1.71118 0.960294,2.72329 -0.248338,0.4204 -0.244378,0.46642 0.07928,0.92095 0.206976,0.29067 0.340442,0.71772 0.340082,1.08815 -0.0016,1.68515 -1.885406,2.63402 -3.571908,1.79919 z m 1.634643,-1.19846 c 0.418888,-0.2934 0.449598,-0.65135 0.08998,-1.04873 -0.325591,-0.35977 -0.656293,-0.36859 -1.033143,-0.0275 -0.373912,0.33838 -0.366519,0.61231 0.02715,1.00599 0.381707,0.3817 0.462539,0.3879 0.916011,0.0703 z m 0.02896,-3.15436 c 0.421177,-0.50748 -0.197429,-1.28706 -0.746783,-0.9411 -0.352251,0.22183 -0.438343,0.64411 -0.191863,0.9411 0.244895,0.29508 0.693751,0.29508 0.938646,0 z m 3.607916,4.38788 c -0.242761,-0.15028 -0.617331,-0.62615 -0.832378,-1.05747 -0.330274,-0.66245 -0.390452,-1.00716 -0.387511,-2.21968 0.0026,-1.05557 0.08159,-1.60742 0.298621,-2.08532 0.582006,-1.28154 1.933229,-1.77897 3.250086,-1.19646 1.089721,0.48204 1.44208,1.32057 1.44208,3.43182 0,1.38586 -0.04818,1.6696 -0.3827,2.25357 -0.217436,0.37958 -0.604356,0.77327 -0.895977,0.91165 -0.683349,0.32427 -1.937827,0.30509 -2.492221,-0.0381 z m 2.072479,-1.79657 c 0.130284,-0.24201 0.187272,-0.82296 0.157489,-1.60545 -0.04073,-1.0701 -0.09827,-1.27781 -0.451983,-1.63152 -0.771391,-0.77139 -1.415874,0.0159 -1.415874,1.72969 0,1.11824 0.143028,1.64478 0.560069,2.06182 0.235907,0.23591 0.311728,0.24179 0.607834,0.0471 0.186068,-0.12233 0.430178,-0.39307 0.542465,-0.60166 z m 3.530297,1.7351 c -0.742176,-0.50452 -1.083711,-1.1466 -1.25546,-2.36028 -0.36344,-2.56825 0.50962,-4.22815 2.305277,-4.38289 1.034469,-0.0891 1.757875,0.29963 2.270157,1.22003 0.349707,0.62831 0.397121,0.90272 0.397222,2.29895 1.59e-4,2.42933 -0.636144,3.3921 -2.331897,3.52823 -0.688597,0.0553 -0.936868,8e-4 -1.385299,-0.30404 z m 1.933397,-1.71798 c 0.338654,-0.67791 0.366511,-2.17586 0.05436,-2.92296 -0.291808,-0.69839 -0.810186,-0.87042 -1.261857,-0.41875 -0.296975,0.29698 -0.338099,0.51875 -0.338099,1.82326 0,1.24862 0.04911,1.53943 0.308349,1.82588 0.428898,0.47393 0.906159,0.35534 1.23725,-0.30743 z m 20.413331,1.44711 c 0,-0.56295 0.0474,-0.65437 0.339306,-0.65437 0.333885,0 3.311676,-2.75775 3.648907,-3.37928 0.32532,-0.59956 -0.081,-0.74297 -2.105047,-0.74297 h -1.883166 v -0.63419 -0.6342 h 1.986945 c 2.267668,0 2.928488,0.18564 3.313898,0.93093 0.40845,0.78987 0.31731,1.37005 -0.32732,2.08358 l -0.57568,0.6372 0.55156,0.83071 c 0.64577,0.97259 1.07543,1.77572 1.07543,2.01019 0,0.0915 -0.31961,0.16642 -0.71024,0.16642 -0.67674,0 -0.72623,-0.0318 -1.04904,-0.67383 -0.678783,-1.35004 -0.717395,-1.35757 -1.74554,-0.34015 -0.816736,0.80821 -0.990781,0.90738 -1.714512,0.97692 l -0.805501,0.0774 z m -17.598854,-0.24601 v -0.72545 h 1.957279 c 2.567691,0 2.482071,0.092 2.482071,-2.66817 v -2.08828 h 0.713468 0.713467 v 2.15608 c 0,2.42056 -0.159316,2.98728 -1.010474,3.59441 -0.444367,0.31697 -0.721628,0.35896 -2.675773,0.40524 l -2.180038,0.0516 z m 6.659026,0.0673 v -0.6342 h 1.40937 c 2.132283,0 2.144899,-0.0167 2.209298,-2.91877 l 0.05134,-2.31332 h 0.715999 0.716001 l -0.056,2.41786 c -0.06255,2.70079 -0.216623,3.21525 -1.129632,3.77194 -0.420116,0.25616 -0.801287,0.3096 -2.211978,0.31009 l -1.704393,5.9e-4 z m 5.549188,-2.53677 v -0.6342 h 2.853868 2.853868 v 0.6342 0.63419 h -2.853868 -2.853868 z m -38.051576,-0.15855 v -0.47565 h 1.744031 1.74403 v 0.47565 0.47564 h -1.74403 -1.744031 z m 25.843362,-0.39637 v -0.71347 h 1.506208 1.506208 v 0.71347 0.71346 h -1.506208 -1.506208 z m 6.659026,-1.18912 v -1.58548 h 0.713467 0.713467 v 1.58548 1.58549 H 86.02181 85.308343 Z m -6.659026,-0.87201 v -0.71347 h 1.506208 1.506208 v 0.71347 0.71347 h -1.506208 -1.506208 z m 23.684577,0.16781 c -0.16888,-0.4401 0.0115,-0.802 0.39965,-0.802 0.43656,0 0.7444,0.39551 0.60024,0.77119 -0.12342,0.3216 -0.87936,0.3449 -0.99989,0.0308 z m 1.47903,0.13014 c -0.39046,-0.39045 0.13271,-1.10577 0.68137,-0.93163 0.50558,0.16046 0.37674,0.93439 -0.16609,0.99769 -0.22127,0.0258 -0.45315,-0.004 -0.51528,-0.0661 z"
         id="path748"
         inkscape:connector-curvature="0" />
      <path
         style="fill:#ffffff;stroke-width:0.15854824"
         d="m 65.481981,283.40086 c -4.470793,-0.65824 -7.505254,-4.67385 -7.480797,-9.89961 0.01486,-3.17514 0.973896,-5.65211 2.952238,-7.62494 1.212171,-1.2088 2.473993,-1.92123 4.060747,-2.2927 1.00841,-0.23608 3.004502,-0.28063 4.320439,-0.0964 l 0.911653,0.12761 v 1.9536 1.95359 l -0.67383,-0.1566 c -1.144519,-0.26599 -3.170778,-0.0637 -4.147175,0.41398 -2.246861,1.09929 -3.58238,3.98569 -3.111401,6.72456 0.520008,3.02399 2.537839,4.94002 5.263123,4.99759 0.639691,0.0135 1.466298,-0.0298 1.836904,-0.0962 l 0.67383,-0.12079 v 1.89377 c 0,2.15849 0.143445,1.96672 -1.664756,2.2256 -1.259664,0.18035 -1.698527,0.1799 -2.940975,-0.003 z m 46.541739,-0.0541 c -1.14207,-0.36214 -1.92629,-0.85842 -2.67845,-1.695 -1.86409,-2.07332 -2.78385,-5.78665 -2.46211,-9.94024 0.23105,-2.98281 1.09335,-5.12601 2.62602,-6.52678 1.91698,-1.75202 5.09736,-2.18749 7.61585,-1.0428 2.59392,1.17896 3.95418,4.16215 4.12302,9.04222 0.0981,2.83452 -0.22876,4.79716 -1.10672,6.6459 -0.91508,1.9269 -1.9335,2.81709 -3.93588,3.4403 -1.11815,0.348 -3.20493,0.38613 -4.18173,0.0764 z m 3.03955,-3.89061 c 1.0535,-0.64237 1.75665,-2.49918 1.90612,-5.03345 0.25788,-4.37247 -1.38256,-7.57201 -3.52049,-6.86643 -1.0964,0.36185 -1.86327,1.97659 -2.14695,4.52067 -0.32872,2.94798 0.32486,5.95035 1.53963,7.07263 0.75484,0.69737 1.42836,0.79032 2.22169,0.30658 z M 43.768706,273.3427 v -10.06781 h 2.501293 c 7.664128,0 10.23771,1.65562 9.988211,6.42557 -0.08889,1.69937 -0.533807,2.85363 -1.455061,3.77488 -1.090794,1.09079 -3.144484,1.84198 -5.049247,1.84687 l -0.911653,0.002 v -1.90258 -1.90258 l 0.594556,-0.003 c 0.750116,-0.004 1.821177,-0.48357 2.159031,-0.96593 0.335837,-0.47947 0.342559,-1.85291 0.01138,-2.32573 -0.399058,-0.56973 -1.143896,-0.85466 -2.472219,-0.9457 l -1.244041,-0.0853 v 8.10862 8.10862 h -2.061127 -2.061127 z m 38.015379,9.69608 c -4.297351,-1.46455 -5.75854,-6.02484 -2.917931,-9.10671 l 0.625866,-0.67903 -0.758898,-1.47893 -0.758897,-1.47892 0.07075,-1.40939 c 0.114462,-2.28007 0.993459,-3.71985 2.831833,-4.6385 4.01187,-2.00475 8.896137,0.13672 9.444997,4.1411 0.215617,1.57309 -0.04649,2.438 -1.36457,4.50291 -0.20071,0.31443 -0.158496,0.4074 0.535395,1.17918 1.028934,1.14442 1.24543,1.62321 1.331098,2.94376 0.186878,2.88073 -1.541411,5.29584 -4.394689,6.14114 -1.289324,0.38197 -3.332486,0.33068 -4.644956,-0.11661 z m 3.540449,-3.63477 c 0.720275,-0.48117 1.130479,-1.29767 1.036951,-2.064 -0.149576,-1.22559 -0.9604,-1.92587 -2.226639,-1.92306 -1.359089,0.003 -2.156016,0.79414 -2.156016,2.14033 0,1.7366 1.922277,2.79764 3.345704,1.84673 z m -0.171565,-8.75827 c 0.604119,-0.3124 0.789567,-0.68568 0.789567,-1.58927 0,-0.62988 -0.08006,-0.8198 -0.539064,-1.27881 -0.460128,-0.46013 -0.648184,-0.53906 -1.284241,-0.53906 -0.636057,0 -0.824113,0.0789 -1.284241,0.53906 -0.460127,0.46013 -0.539064,0.64818 -0.539064,1.28424 0,0.63606 0.07894,0.82411 0.539064,1.28424 0.439846,0.43985 0.660159,0.53907 1.196986,0.53907 0.361856,0 0.866302,-0.10776 1.120993,-0.23947 z m 11.376102,12.40155 c -2.224887,-0.77601 -3.674966,-2.24348 -4.178793,-4.22892 -0.462835,-1.8239 -0.07215,-3.35568 1.234463,-4.84007 l 0.651251,-0.73986 -0.757253,-1.49542 -0.757253,-1.49542 0.06635,-1.38786 c 0.04986,-1.04288 0.160975,-1.58333 0.447012,-2.1742 1.685469,-3.48171 6.930282,-4.30481 10.106522,-1.58606 0.92036,0.78779 1.6752,2.36347 1.75843,3.67061 0.0852,1.33841 -0.18205,2.31484 -0.93598,3.41934 -0.34233,0.50152 -0.62243,0.9557 -0.62243,1.00927 0,0.0536 0.33185,0.46463 0.73744,0.91345 1.13087,1.25141 1.38011,1.94546 1.28674,3.58313 -0.1023,1.79407 -0.58833,2.84248 -1.86626,4.02562 -1.29286,1.19695 -2.29456,1.56732 -4.438727,1.64114 -1.432039,0.0493 -1.813879,0.005 -2.731516,-0.31475 z m 3.540449,-3.64328 c 1.96087,-1.30994 0.91267,-4.30349 -1.404689,-4.01165 -1.258898,0.15854 -1.941016,0.91934 -1.941016,2.16492 0,1.7366 1.922277,2.79764 3.345705,1.84673 z m -0.171566,-8.75827 c 0.604116,-0.3124 0.789566,-0.68568 0.789566,-1.58927 0,-0.62988 -0.0801,-0.8198 -0.53906,-1.27881 -0.46013,-0.46013 -0.648186,-0.53906 -1.284243,-0.53906 -0.636058,0 -0.824114,0.0789 -1.284241,0.53906 -0.460128,0.46013 -0.539064,0.64818 -0.539064,1.28424 0,0.63606 0.07894,0.82411 0.539064,1.28424 0.439846,0.43985 0.660158,0.53907 1.196985,0.53907 0.361856,0 0.866303,-0.10776 1.120993,-0.23947 z m 23.144866,2.77624 v -9.98854 h 1.90258 1.90258 v 9.98854 9.98854 h -1.90258 -1.90258 z M 5.6328211,276.23976 c 0.045136,-0.19816 0.4067571,-2.24509 0.8036023,-4.54873 l 0.7215369,-4.18845 -0.648181,-0.66045 -0.6481809,-0.66045 1.3943371,-1.53948 1.3943372,-1.53947 0.3963706,0.45015 c 0.2180038,0.24759 1.5649627,1.86631 2.9932417,3.59715 1.834004,2.22252 2.632029,3.08201 2.716553,2.9258 0.06583,-0.12165 0.383627,-1.46976 0.706226,-2.99578 0.3226,-1.52603 0.654771,-3.04244 0.738157,-3.3698 l 0.151613,-0.59521 1.222463,0.65983 c 0.672354,0.36291 1.281975,0.71167 1.354712,0.77502 0.07274,0.0634 -0.373127,0.38816 -0.99081,0.72179 -0.617685,0.33362 -1.154674,0.71646 -1.193309,0.85074 -0.03863,0.13429 -0.513814,2.47823 -1.055954,5.20875 -0.937118,4.71987 -0.999176,4.95042 -1.258946,4.67717 -0.150281,-0.15808 -1.649164,-1.82137 -3.330851,-3.6962 -1.6816881,-1.87483 -3.1027031,-3.42781 -3.1578118,-3.45106 -0.055109,-0.0233 -0.2672243,0.99862 -0.471368,2.27083 l -0.3711706,2.31309 0.7658832,0.77758 c 0.4212359,0.42766 0.7345115,0.80665 0.696168,0.84219 -0.038343,0.0355 -0.7314334,0.39552 -1.5401998,0.79995 -1.3767953,0.68849 -1.4652558,0.71238 -1.3884189,0.37504 z m 27.9743889,0.10688 c -0.94909,-0.29237 -2.116072,-1.33225 -2.627344,-2.3412 -0.223887,-0.44182 -0.504181,-1.35959 -0.622877,-2.0395 -0.257982,-1.47775 -0.117232,-2.46359 0.52447,-3.67347 0.542671,-1.02317 2.391077,-2.8667 3.578715,-3.56928 1.073039,-0.63479 3.201484,-1.3899 4.331067,-1.53655 l 0.809547,-0.10509 0.638931,1.64251 0.63893,1.64252 -0.882744,0.27982 c -0.48551,0.15389 -0.923285,0.21821 -0.972833,0.14293 -0.04955,-0.0753 -0.400388,-0.60945 -0.779645,-1.18703 l -0.689558,-1.05014 -0.578828,0.24171 c -1.05443,0.44031 -1.857294,0.98654 -2.542254,1.72963 -2.48596,2.69695 -1.301754,6.42283 2.041386,6.42283 0.969534,0 2.599619,-0.44219 3.304946,-0.89652 0.203769,-0.13126 0.393301,-0.21511 0.421182,-0.18635 0.02788,0.0288 -0.396479,0.98757 -0.94302,2.13066 l -0.99371,2.07836 -0.763737,0.26023 c -0.935273,0.31868 -2.880721,0.32564 -3.892624,0.0139 z m -15.998962,-0.38566 c 0,-0.0884 0.103042,-0.16078 0.228981,-0.16078 0.12594,0 0.411677,-0.16053 0.634972,-0.35673 0.338901,-0.29779 0.481439,-0.71566 0.862555,-2.52876 0.446305,-2.12323 0.44985,-2.17811 0.157769,-2.44244 -0.392668,-0.35536 -0.379705,-0.42219 0.14163,-0.73015 0.406606,-0.24019 0.476358,-0.43791 0.908359,-2.57489 0.519582,-2.57021 0.497726,-2.7318 -0.412699,-3.05101 -0.438981,-0.15392 0.447375,-0.19091 4.748977,-0.19819 4.168005,-0.007 5.272872,0.0331 5.214037,0.18924 -0.04106,0.109 -0.204432,0.75112 -0.363049,1.42693 -0.158616,0.67581 -0.328859,1.22848 -0.378315,1.22816 -0.04946,-3.2e-4 -0.217925,-0.31191 -0.374372,-0.6924 -0.156447,-0.38049 -0.465217,-0.86181 -0.686156,-1.06961 -0.373393,-0.35117 -0.525625,-0.3778 -2.159824,-0.3778 h -1.758116 l -0.513113,2.37822 c -0.293478,1.36024 -0.454103,2.44043 -0.375252,2.52355 0.223488,0.2356 1.778626,-0.19176 2.605084,-0.71589 0.739115,-0.46873 0.751506,-0.47082 0.665966,-0.11207 -0.04794,0.20105 -0.21015,1.00766 -0.360471,1.79248 -0.150319,0.78481 -0.292647,1.45111 -0.316283,1.48067 -0.02364,0.0295 -0.305258,-0.23658 -0.625828,-0.59142 -0.537396,-0.59483 -1.302505,-0.96526 -1.99866,-0.96764 -0.250974,-8e-4 -0.636608,1.33072 -1.072295,3.7026 -0.193342,1.05256 0.113109,1.37005 1.322406,1.37005 2.03203,0 3.584327,-0.71325 4.182545,-1.92181 0.405679,-0.81958 0.406684,-0.79631 0.04537,1.0498 l -0.279277,1.42693 -5.022469,0.0419 c -3.316519,0.0276 -5.022468,-0.0127 -5.022468,-0.11891 z m 53.272206,-2.8561 v -1.26838 h 2.378223 2.378224 v 1.26838 1.26839 H 73.258677 70.880454 Z M 43.768706,258.85767 c 0,-1.55746 0.04664,-3.17203 0.103648,-3.58794 l 0.103649,-0.7562 1.392482,0.0794 c 2.065016,0.11774 2.83183,0.67732 2.837234,2.07045 0.0045,1.16798 -0.628004,1.8498 -1.945358,2.09694 l -0.589076,0.11051 v -0.66009 c 0,-0.58797 0.05095,-0.67784 0.466384,-0.82266 0.697975,-0.24332 0.775251,-1.18032 0.109227,-1.32441 -1.053886,-0.22799 -0.967514,-0.46045 -1.015196,2.73223 l -0.04321,2.89351 H 44.4786 43.76871 Z m 6.699677,2.65462 c -1.254942,-0.36242 -2.221427,-2.10585 -2.055991,-3.70876 0.199018,-1.9283 1.540245,-3.24421 3.310395,-3.24791 0.75459,-0.002 0.92462,0.14716 0.92462,0.80882 v 0.61723 h -0.780576 c -0.607206,0 -0.888257,0.0906 -1.265392,0.40795 -0.965029,0.81202 -1.006437,2.43525 -0.08565,3.35757 0.446,0.44674 0.621982,0.51528 1.323022,0.51528 h 0.808596 v 0.61723 c 0,0.41658 -0.08153,0.64852 -0.25079,0.71347 -0.352814,0.13539 -1.319827,0.0948 -1.928234,-0.0809 z m 7.612577,-0.13424 c -1.199342,-0.54444 -1.668167,-1.88751 -0.969098,-2.77624 0.336612,-0.42793 0.337678,-0.44761 0.06524,-1.20523 -0.342552,-0.9526 -0.159354,-1.67089 0.586144,-2.29819 0.448267,-0.37719 0.596353,-0.41167 1.516533,-0.35307 0.904049,0.0576 1.070391,0.1216 1.465994,0.56436 0.632094,0.70743 0.743328,1.47036 0.319188,2.18923 l -0.336929,0.57105 0.399036,0.47423 c 0.743153,0.88319 0.321978,2.26738 -0.872509,2.86751 -0.708945,0.35619 -1.336217,0.34648 -2.173602,-0.0337 z m 1.610518,-1.20618 c 0.295701,-0.29569 0.325687,-0.87928 0.05889,-1.14607 -0.245262,-0.24526 -0.959705,-0.24526 -1.204967,0 -0.268495,0.26849 -0.236111,0.76467 0.07214,1.10528 0.322032,0.35584 0.742905,0.37183 1.073939,0.0408 z m -0.09489,-3.06035 c 0.119776,-0.0759 0.188271,-0.33174 0.158548,-0.59213 -0.0466,-0.40827 -0.113069,-0.45844 -0.607253,-0.45844 -0.458714,0 -0.5639,0.0634 -0.606726,0.36546 -0.09199,0.64889 0.503158,1.03521 1.055431,0.68511 z m 3.557914,4.26653 c -1.199341,-0.54444 -1.668167,-1.88751 -0.969098,-2.77624 0.336613,-0.42793 0.337678,-0.44761 0.06524,-1.20523 -0.339986,-0.94547 -0.159985,-1.67036 0.566594,-2.28173 0.377334,-0.31751 0.648911,-0.40107 1.29744,-0.39923 1.004479,0.003 1.493558,0.23561 1.964928,0.93507 0.445892,0.66166 0.457137,1.20272 0.03924,1.88816 l -0.321063,0.52661 0.40093,0.47648 c 0.745067,0.88546 0.325374,2.26888 -0.870615,2.86976 -0.708946,0.35619 -1.336218,0.34648 -2.173603,-0.0337 z m 1.610519,-1.20618 c 0.2957,-0.29569 0.325686,-0.87928 0.05889,-1.14607 -0.245261,-0.24526 -0.959705,-0.24526 -1.204966,0 -0.268495,0.26849 -0.236112,0.76467 0.07214,1.10528 0.322033,0.35584 0.742905,0.37183 1.07394,0.0408 z m -0.09489,-3.06035 c 0.119777,-0.0759 0.188271,-0.33174 0.158548,-0.59213 -0.0466,-0.40827 -0.113068,-0.45844 -0.607252,-0.45844 -0.458715,0 -0.563901,0.0634 -0.606726,0.36546 -0.09199,0.64889 0.503157,1.03521 1.05543,0.68511 z m 3.719583,4.26642 c -0.279889,-0.17066 -0.671672,-0.61631 -0.870633,-0.99034 -0.488219,-0.91781 -0.529312,-3.51952 -0.07017,-4.44307 0.453937,-0.91308 1.180857,-1.28307 2.354148,-1.1982 0.839818,0.0608 1.024313,0.13515 1.412574,0.56969 1.41908,1.58823 1.118861,5.28844 -0.494575,6.09568 -0.730117,0.3653 -1.699896,0.35125 -2.331341,-0.0338 z m 1.453072,-1.0554 c 0.767756,-0.29462 1.06253,-2.69409 0.458398,-3.73138 -0.893792,-1.53464 -2.123944,0.32457 -1.640901,2.48 0.165901,0.74028 0.529356,1.34986 0.804841,1.34986 0.06655,0 0.236502,-0.0443 0.377662,-0.0985 z m 4.209481,1.08916 c -0.849961,-0.42525 -1.315094,-1.41352 -1.395982,-2.96604 -0.114553,-2.19868 0.438975,-3.32213 1.844277,-3.74317 0.818635,-0.24527 1.784288,-0.003 2.328078,0.58353 0.884751,0.95467 1.096096,3.50486 0.417581,5.03876 -0.527853,1.1933 -1.988106,1.69024 -3.193954,1.08692 z m 1.796017,-1.58523 c 0.331294,-0.65799 0.42564,-1.56691 0.255673,-2.46314 -0.175926,-0.92766 -0.518473,-1.38166 -1.042478,-1.38166 -0.568037,0 -0.912574,0.8081 -0.912574,2.1404 0,1.42924 0.336364,2.1404 1.01235,2.1404 0.351084,0 0.522169,-0.10857 0.687029,-0.436 z m 2.801032,1.00321 v -0.72575 h 1.970528 c 1.579992,0 2.019906,-0.0494 2.219675,-0.24915 0.200803,-0.2008 0.249147,-0.64689 0.249147,-2.29895 v -2.0498 h 0.725451 0.725451 l -0.05162,2.20868 c -0.04523,1.93544 -0.09206,2.26278 -0.378514,2.64589 -0.741062,0.99113 -1.019132,1.08654 -3.330702,1.14291 l -2.129415,0.0519 z m 6.659026,0.067 v -0.6342 h 1.4947 c 1.425907,0 1.509825,-0.0192 1.823305,-0.41775 0.296554,-0.377 0.328604,-0.63216 0.328604,-2.61604 v -2.1983 h 0.634193 0.634193 l -6.34e-4,2.41786 c -4.76e-4,2.13294 -0.03772,2.47875 -0.315648,2.93459 -0.564634,0.92608 -1.136556,1.14677 -2.973635,1.14744 l -1.625078,5.9e-4 z m 10.939828,0.0793 c 0,-0.4994 0.04354,-0.55492 0.435143,-0.55492 0.346696,0 0.765565,-0.34644 2.060732,-1.70439 2.179655,-2.28532 2.171785,-2.32488 -0.474385,-2.38296 l -2.02149,-0.0444 v -0.62945 -0.62946 l 1.783667,8.9e-4 c 0.981017,4.9e-4 2.038683,0.0717 2.350363,0.15831 0.72245,0.20069 1.24531,0.75721 1.3559,1.44319 0.072,0.44663 -0.01,0.66432 -0.48192,1.28161 -0.31276,0.40897 -0.56866,0.78852 -0.56866,0.84344 0,0.0549 0.20428,0.3981 0.45395,0.76262 0.24967,0.36452 0.60785,0.96598 0.79596,1.33659 l 0.34202,0.67383 h -0.70156 c -0.68372,0 -0.71387,-0.0218 -1.1863,-0.85893 -0.26662,-0.47242 -0.546548,-0.89713 -0.62207,-0.9438 -0.07552,-0.0467 -0.557592,0.33984 -1.071266,0.85893 -0.881584,0.89088 -0.976453,0.9438 -1.692018,0.9438 H 96.24817 Z m -5.39064,-2.61604 v -0.6342 h 2.774594 2.774594 v 0.6342 0.63419 H 93.632124 90.85753 Z m -38.051576,-0.15855 v -0.47565 h 1.744031 1.74403 v 0.47565 0.47564 h -1.74403 -1.744031 z m 25.843362,-0.39637 v -0.55492 h 1.506208 1.506208 v 0.55492 0.55492 h -1.506208 -1.506208 z m 6.659026,-1.18912 v -1.58548 h 0.713467 0.713467 v 1.58548 1.58549 H 86.02181 85.308343 Z m -6.659026,-0.95128 v -0.6342 h 1.506208 1.506208 v 0.6342 0.63419 h -1.506208 -1.506208 z m 23.729384,0.36994 c -0.17918,-0.17918 -0.11707,-0.63878 0.11203,-0.82891 0.44648,-0.37055 1.08743,0.2704 0.71689,0.71688 -0.19014,0.2291 -0.64973,0.29122 -0.82892,0.11203 z m 1.39783,-0.21986 c -0.15134,-0.47682 0.29546,-0.92727 0.67949,-0.68504 0.15096,0.0952 0.27448,0.34373 0.27448,0.55223 0,0.53122 -0.79251,0.64155 -0.95397,0.13281 z"
         id="path746"
         inkscape:connector-curvature="0" />
    </g>
  </g>
</svg>
