<?xml version="1.0" encoding="UTF-8" standalone="no"?>
<!-- Created with Inkscape (http://www.inkscape.org/) -->

<svg
   xmlns:dc="http://purl.org/dc/elements/1.1/"
   xmlns:cc="http://creativecommons.org/ns#"
   xmlns:rdf="http://www.w3.org/1999/02/22-rdf-syntax-ns#"
   xmlns:svg="http://www.w3.org/2000/svg"
   xmlns="http://www.w3.org/2000/svg"
   xmlns:sodipodi="http://sodipodi.sourceforge.net/DTD/sodipodi-0.dtd"
   xmlns:inkscape="http://www.inkscape.org/namespaces/inkscape"
   width="500"
   height="200"
   viewBox="0 0 500 200"
   version="1.1"
   id="svg8"
   inkscape:version="0.92.5 (2060ec1f9f, 2020-04-08)"
   sodipodi:docname="pcfx.svg">
  <defs
     id="defs2" />
  <sodipodi:namedview
     id="base"
     pagecolor="#ffffff"
     bordercolor="#666666"
     borderopacity="1.0"
     inkscape:pageopacity="0.0"
     inkscape:pageshadow="2"
     inkscape:zoom="1.9664415"
     inkscape:cx="290.89362"
     inkscape:cy="62.965207"
     inkscape:document-units="mm"
     inkscape:current-layer="layer1"
     showgrid="false"
     units="px"
     inkscape:pagecheckerboard="true"
     inkscape:window-width="1366"
     inkscape:window-height="743"
     inkscape:window-x="0"
     inkscape:window-y="0"
     inkscape:window-maximized="1" />
  <metadata
     id="metadata5">
    <rdf:RDF>
      <cc:Work
         rdf:about="">
        <dc:format>image/svg+xml</dc:format>
        <dc:type
           rdf:resource="http://purl.org/dc/dcmitype/StillImage" />
        <dc:title />
      </cc:Work>
    </rdf:RDF>
  </metadata>
  <g
     inkscape:label="Layer 1"
     inkscape:groupmode="layer"
     id="layer1"
     transform="translate(1.0909515,-248.58921)">
    <path
       id="path79"
       style="fill:#ffffff;stroke-width:0.311795"
       d="m 72.735664,267.71116 c -2.54511,-0.02 -4.9869,1.93437 -4.9869,4.63551 0,1.51704 1.36685,3.72244 2.5843,4.16854 1.21754,0.446 2.73302,0.41096 3.93576,-0.0917 1.41319,-0.59047 2.97172,-2.76133 2.97172,-4.14 0,-1.21086 -1.07311,-3.26371 -2.01218,-3.85015 -0.78455,-0.48997 -1.64433,-0.71589 -2.4927,-0.72229 z m 10.20656,2.64736 c -0.26582,0.007 -0.46894,0.0267 -0.58864,0.0647 -1.30762,0.41953 -1.95767,1.08981 -2.17436,2.24493 -0.41405,2.20713 1.06481,3.107 6.88196,4.18355 2.05785,0.38082 4.02225,0.80749 4.36523,0.949 0.34297,0.14168 1.67656,0.49227 2.96271,0.77936 1.28615,0.28702 2.89994,0.78352 3.58588,1.10218 0.68595,0.31869 2.00681,0.87553 2.935676,1.23736 3.69071,1.43757 7.02249,3.2484 11.14658,6.06055 0.48606,0.33135 2.26416,2.00244 3.95228,3.71354 2.41347,2.44624 3.34089,3.65083 4.3397,5.63408 l 1.27037,2.52125 0.0257,3.89823 c 0.024,3.66957 -0.0358,4.06713 -1.0196,6.79637 -1.35314,3.75391 -2.69752,6.01271 -5.62359,9.44219 -1.01036,1.18426 -1.08396,1.21559 -1.64728,0.70579 -0.32423,-0.29336 -1.03525,-1.31443 -1.57971,-2.26897 -1.27544,-2.2361 -6.75236,-7.72144 -8.96772,-8.98123 -3.040796,-1.72916 -7.904116,-4.04817 -9.665966,-4.60847 -0.94318,-0.30003 -1.85422,-0.64972 -2.02569,-0.77786 -0.38346,-0.28669 -5.35753,-1.43614 -7.48411,-1.72986 -0.85744,-0.11835 -1.69953,-0.32203 -1.87103,-0.452 -0.63212,-0.47904 -6.97026,-0.97978 -12.0896,-0.95654 -5.23699,0.0233 -9.98444,0.40256 -12.07308,0.96254 -0.6002,0.16101 -2.35483,0.5236 -3.89822,0.80489 -1.54338,0.28135 -3.64864,0.8315 -4.67757,1.22382 -1.02892,0.3923 -2.40838,0.88237 -3.06632,1.08868 -1.17907,0.36983 -5.29035,2.52366 -7.33544,3.84266 -1.62903,1.05064 -5.40901,4.90786 -6.32486,6.45397 -1.14418,1.93165 -1.50861,3.47543 -1.51063,6.39394 -0.002,2.54856 0.6532,5.81767 1.33945,6.68223 0.20815,0.26235 0.65859,1.03591 1.00008,1.71936 0.68455,1.3701 5.11938,5.98014 6.58764,6.84744 0.87063,0.51431 0.95272,0.73279 1.28839,3.39219 0.48817,3.86742 1.67788,6.20652 4.67607,9.19744 2.12505,2.11993 2.30372,2.40041 2.47618,3.89822 0.10219,0.8875 0.51904,2.32294 0.92651,3.19097 0.8875,1.89064 3.46189,4.49667 5.39985,5.46441 0.77169,0.38536 1.61379,0.87326 1.87102,1.08568 0.25722,0.21235 1.73016,0.76182 3.27355,1.21932 1.54338,0.4575 3.03419,0.95217 3.31259,1.09918 1.54799,0.81743 14.3842,1.17669 16.2521,0.455 0.89123,-0.34432 0.6511,0.57471 -0.41595,1.59022 -1.85904,1.7693 -1.90795,2.84378 -0.17868,3.89822 1.20511,0.73496 0.88523,0.74489 3.51231,-0.11567 2.60309,-0.85267 4.43172,-1.93755 7.24385,-4.29765 2.81629,-2.36358 4.73394,-4.68262 6.07408,-7.34448 0.61673,-1.22496 1.60399,-2.62749 2.19237,-3.11736 1.34487,-1.11979 3.190456,-3.5394 3.982316,-5.21816 1.74995,-3.70997 2.83689,-5.42096 5.10102,-8.03219 1.36915,-1.57905 2.84992,-3.44239 3.29007,-4.14151 0.93641,-1.48741 4.04238,-7.78474 4.04238,-8.19587 0,-0.15468 0.99505,-1.32583 2.21039,-2.60233 6.602,-6.93414 10.42217,-13.55333 11.08651,-19.20578 0.1089,-0.92667 0.31819,-1.75907 0.4655,-1.85001 0.34928,-0.21601 0.34928,-5.838 0,-6.22426 -0.14731,-0.16301 -0.42959,-1.13705 -0.62768,-2.16383 -0.38133,-1.97657 -2.67971,-6.79866 -4.05289,-8.50222 -2.49619,-3.0968 -6.54331,-6.6936 -9.73504,-8.65088 -4.57394,-2.80487 -6.48605,-3.86105 -7.60875,-4.20604 -0.68594,-0.21068 -1.52805,-0.55854 -1.87102,-0.77183 -0.34298,-0.21335 -1.72974,-0.76979 -3.08134,-1.23585 -1.351606,-0.46607 -2.685196,-0.97031 -2.962706,-1.12172 -0.27752,-0.15134 -1.83662,-0.56734 -3.46576,-0.9235 -1.62912,-0.35616 -3.2429,-0.78593 -3.58588,-0.95504 -1.05766,-0.52184 -6.00025,-1.22946 -7.86102,-1.19229 z m -13.73688,35.97749 c 6.84767,-0.0167 14.32375,0.40633 15.03428,1.10669 0.16292,0.16067 0.56536,0.29268 0.89347,0.29268 1.13883,0 5.93897,1.29377 7.04864,1.89955 0.61366,0.33505 1.74653,0.88793 2.51822,1.22835 5.736756,2.53046 11.101526,7.17463 12.412446,10.74713 0.18878,0.51444 0.49943,1.54788 0.69075,2.296 0.31742,1.24126 0.28662,1.42434 -0.35589,2.10826 -0.38722,0.41216 -1.34418,1.11702 -2.1263,1.56622 -0.78211,0.4492 -1.70538,1.07241 -2.05122,1.3845 -0.34584,0.31202 -1.30103,0.92403 -2.1218,1.36047 -1.837486,0.9769 -2.713466,0.9991 -3.851666,0.093 -2.56681,-2.04308 -7.38528,-4.4916 -10.54593,-5.35779 -1.02892,-0.28202 -2.15123,-0.63732 -2.4942,-0.78986 -3.5474,-1.57812 -15.79283,-2.19116 -22.56945,-1.12925 -5.6415,0.8841 -11.88686,3.30151 -15.9653,6.17769 l -1.75239,1.23586 -1.21482,-0.62768 c -3.95586,-2.04099 -6.41806,-7.136 -5.43288,-11.2427 0.48425,-2.01858 2.77632,-4.44306 5.93592,-6.2798 4.62774,-2.6901 9.54863,-4.39979 15.89923,-5.52448 2.0581,-0.36449 5.94028,-0.53457 10.04889,-0.54507 z m 2.36356,22.49887 c 4.82034,0.072 10.33064,0.70578 12.53107,1.56318 0.25722,0.10034 1.53241,0.55994 2.83507,1.02261 3.30293,1.17312 5.44532,2.91162 4.39076,3.56336 -0.14158,0.0877 -2.42139,0.51391 -5.06649,0.94754 -2.6451,0.43357 -5.23076,0.91927 -5.74522,1.07965 -1.3619,0.4248 -6.49043,0.62111 -9.19747,0.35289 -11.00204,-1.09021 -17.29544,-2.04998 -19.46108,-2.97022 l -1.22082,-0.51807 0.90848,-0.73729 c 0.49968,-0.40513 1.75059,-1.03631 2.77951,-1.4025 1.02893,-0.36623 2.33304,-0.86593 2.89664,-1.10972 1.38757,-0.60008 5.3903,-1.27169 9.90623,-1.66379 1.30528,-0.11334 2.83653,-0.15168 4.44332,-0.12767 z m 25.15675,10.84023 c 0.084,10e-4 0.14335,0.01 0.17418,0.03 0.41526,0.25668 0.36786,2.13862 -0.0781,3.11736 -0.20528,0.45053 -0.87132,1.06911 -1.4806,1.374 -2.14138,1.07155 -2.64592,1.05305 -4.23009,-0.15634 -0.80042,-0.61098 -1.78916,-1.2634 -2.19688,-1.44908 -0.40772,-0.18568 -0.67589,-0.44526 -0.59464,-0.57661 0.30429,-0.49237 7.14572,-2.35927 8.40611,-2.33954 z m -48.54459,0.48504 c 1.31634,-0.003 7.54567,1.34493 7.54567,1.63375 0,0.14235 -0.23261,0.34753 -0.51656,0.45651 -0.28395,0.109 -1.29268,0.66574 -2.24192,1.23732 -0.94925,0.57161 -1.84262,1.03914 -1.98515,1.03914 -0.5406,0 -3.01683,-2.56765 -3.3231,-3.44622 -0.30276,-0.86843 -0.27453,-0.9183 0.52106,-0.9205 z m 24.20923,5.40733 c 0.60237,-0.007 1.12138,0.01 1.52265,0.0557 5.94653,0.66559 10.43994,1.89885 9.67498,2.6564 -0.14695,0.14535 -1.45701,0.41303 -2.91016,0.59465 -3.05834,0.38189 -15.00371,0.37346 -18.33186,-0.0133 -2.43881,-0.28369 -3.74951,-0.78086 -3.28556,-1.24482 0.79865,-0.79866 9.11336,-2.00079 13.32995,-2.04822 z m 57.419196,0.66975 c -0.4673,-0.062 -1.64685,0.52344 -2.97022,1.49561 -0.41538,0.30503 -1.3264,0.83913 -2.0257,1.18779 -2.00686,1.00064 -3.95078,2.08989 -4.66705,2.61433 -0.36216,0.26502 -1.42939,0.89206 -2.37257,1.3935 -0.94318,0.50151 -2.55696,1.3592 -3.58588,1.90708 -1.02892,0.5479 -1.94145,1.10104 -2.0272,1.22832 -0.0857,0.12734 -0.99677,0.67355 -2.02569,1.21482 -2.79236,1.46895 -4.55006,2.47449 -5.04247,2.88312 -0.24188,0.20068 -1.10102,0.69808 -1.90856,1.10671 -0.80754,0.4086 -2.52047,1.3635 -3.806626,2.12179 -1.28615,0.75829 -2.79503,1.59705 -3.35313,1.86354 -0.5581,0.26635 -1.75083,0.9441 -2.65037,1.50611 -0.89954,0.56201 -1.9859,1.20329 -2.41462,1.42354 -0.42871,0.22035 -1.57072,0.845 -2.53775,1.389 -0.96702,0.54408 -2.72165,1.52342 -3.89822,2.17586 -1.17657,0.65245 -2.98042,1.66493 -4.00934,2.24944 -1.02893,0.58454 -2.52286,1.41337 -3.3201,1.8425 -0.79724,0.42913 -2.08057,1.20652 -2.85159,1.72686 -0.77102,0.52037 -1.56209,0.94604 -1.7584,0.94604 -0.3715,0 -1.3838,-0.51997 -4.54242,-2.33354 -1.02893,-0.59078 -2.64121,-1.50371 -3.58439,-2.02868 -0.94318,-0.52501 -2.69781,-1.57735 -3.89822,-2.33954 -1.20041,-0.76219 -2.46357,-1.51785 -2.80654,-1.67883 -0.34297,-0.16101 -1.81591,-1.00381 -3.27355,-1.8725 -1.45764,-0.8687 -3.5614,-2.08046 -4.67606,-2.69244 -6.16623,-3.38535 -11.02499,-6.11762 -15.06282,-8.47369 -1.23345,-0.71969 -2.95889,-1.70266 -3.83365,-2.18336 -0.87477,-0.48067 -2.55748,-1.40614 -3.74056,-2.05722 -1.18307,-0.65105 -2.92351,-1.66719 -3.86668,-2.25693 -0.94319,-0.58975 -2.4486,-1.43331 -3.34563,-1.87554 -0.89703,-0.44224 -1.71322,-0.93767 -1.81396,-1.10068 -0.22015,-0.35623 -2.22482,-1.22233 -2.82907,-1.22233 -0.35886,0 -0.42947,2.41335 -0.42947,14.64985 v 14.64839 l 1.48061,0.79886 c 0.81456,0.43933 2.32271,1.29933 3.35163,1.91157 2.49105,1.48214 4.56253,2.66783 7.0156,4.01533 1.11467,0.61235 3.00865,1.68526 4.20906,2.38461 1.20041,0.69935 2.95504,1.67916 3.89822,2.17736 0.94318,0.49821 2.48654,1.38597 3.42972,1.97161 0.94318,0.58565 2.53465,1.52632 3.53633,2.09179 1.00168,0.56548 2.19441,1.24499 2.65037,1.50911 0.45596,0.26402 2.19958,1.2455 3.8757,2.18187 7.11372,3.97419 12.72815,7.17166 13.94561,7.94212 1.17777,0.74532 3.37325,1.99398 5.61308,3.19247 0.77169,0.41293 2.09847,1.15008 2.94919,1.63825 1.47309,0.8453 1.59831,0.86553 2.63836,0.43097 0.60064,-0.25102 1.3087,-0.64565 1.5722,-0.87694 0.26352,-0.23135 1.32113,-0.86966 2.35005,-1.41753 1.02892,-0.54794 2.51308,-1.37011 3.29907,-1.82751 0.786,-0.45736 2.04915,-1.17475 2.80654,-1.59471 0.75739,-0.41997 1.74994,-0.98198 2.20589,-1.24786 0.45597,-0.26602 1.64869,-0.94677 2.65038,-1.51365 1.00168,-0.56684 2.52272,-1.44244 3.38016,-1.94611 0.85744,-0.50364 2.47122,-1.4172 3.58588,-2.02868 1.11467,-0.61148 2.93823,-1.65616 4.05289,-2.32301 1.114666,-0.66688 2.869296,-1.65219 3.898226,-2.18939 1.02892,-0.53718 2.6412,-1.44568 3.58438,-2.01819 2.37408,-1.44104 6.14522,-3.57046 7.63877,-4.31415 0.68595,-0.34156 1.471,-0.81019 1.74339,-1.04064 0.27239,-0.23035 1.21188,-0.80326 2.08876,-1.27336 4.56887,-2.44932 5.55081,-2.99652 6.28281,-3.49579 1.66344,-1.13466 2.6565,-1.74947 4.04387,-2.50472 l 1.43106,-0.77936 0.0811,-14.47867 c 0.0477,-8.51637 -0.037,-14.59818 -0.20571,-14.76699 -0.0361,-0.036 -0.0879,-0.0587 -0.15468,-0.0677 z M 88.412654,354.349 c 0.29555,0.29569 -3.13985,2.09786 -5.09202,2.6714 -1.20041,0.35272 -2.74377,0.86039 -3.42972,1.12771 -1.41394,0.55078 -11.40935,0.86154 -13.87503,0.43097 -3.95321,-0.69028 -9.35363,-2.88668 -9.35363,-3.80361 0,-0.3429 -0.17252,-0.3515 3.54534,0.19068 8.38131,1.22222 16.89397,1.17028 24.66572,-0.15002 1.88328,-0.32002 3.47596,-0.53037 3.53934,-0.46703 z"
       inkscape:connector-curvature="0" />
    <path
       id="path77"
       style="fill:#ffffff;stroke-width:0.311795"
       d="m 276.975,291.1682 c -3.73233,10e-4 -7.46391,0.12601 -7.97771,0.37383 -0.41181,0.19868 -2.25922,0.64821 -4.10686,1.00087 -1.84763,0.35263 -3.81206,0.85336 -4.36526,1.11285 -0.55317,0.25935 -1.90968,0.76086 -3.01467,1.11111 -1.105,0.3503 -2.22927,0.82187 -2.49616,1.04912 -0.26689,0.22701 -1.11464,0.65614 -1.88633,0.95437 -0.77169,0.29802 -1.61361,0.71978 -1.87083,0.93713 -0.25725,0.21735 -1.10085,0.72979 -1.87254,1.13869 -0.7717,0.40883 -1.84885,1.09684 -2.39453,1.52801 -0.54568,0.4312 -1.66393,1.27406 -2.4841,1.87427 -1.78631,1.30723 -7.95688,7.47685 -9.39546,9.39376 -0.56273,0.74983 -1.34862,1.78527 -1.74852,2.29977 -0.3999,0.51444 -1.04727,1.56599 -1.43671,2.33768 -0.38945,0.77172 -0.81223,1.47327 -0.94058,1.55901 -0.46436,0.31036 -2.56964,4.56437 -3.14905,6.36357 -0.32629,1.01324 -0.74453,2.02292 -0.92852,2.24464 -0.38579,0.46486 -1.36473,4.22904 -1.69512,6.51514 -0.12394,0.8574 -0.34767,1.711 -0.49613,1.89841 -0.39965,0.50441 -0.88624,5.72689 -0.89234,9.57118 -0.006,3.6675 0.51991,9.23091 0.91991,9.72965 0.13795,0.17201 0.352,0.9441 0.47373,1.71579 0.31802,2.01619 1.3976,6.00525 1.73646,6.41354 0.15867,0.19135 0.57213,1.23373 0.91819,2.31698 0.34605,1.08321 0.79031,2.16432 0.98709,2.40141 0.19678,0.23701 0.69558,1.15882 1.10768,2.04828 0.4121,0.8895 0.86089,1.69003 0.99915,1.7795 0.13824,0.0897 0.55946,0.76749 0.93369,1.50561 0.64627,1.27463 1.97036,3.21144 3.52631,5.15255 0.99209,1.23769 7.7798,7.98392 9.06128,9.00613 1.54054,1.22883 4.21785,3.00309 5.83297,3.86569 0.7717,0.41216 1.61533,0.87896 1.87256,1.03878 1.02538,0.63721 5.86367,2.82347 6.24986,2.82347 0.22655,0 0.98238,0.27269 1.67961,0.60465 1.73161,0.82449 4.44258,1.47724 7.97254,1.9242 1.62913,0.20635 3.09296,0.49471 3.25585,0.63912 v -0.002 c 0.39854,0.3537 10.6381,0.33626 11.32315,-0.0167 0.29779,-0.15435 1.8055,-0.44157 3.34888,-0.63742 2.95768,-0.37516 6.64421,-1.18222 7.16977,-1.57108 0.17148,-0.12701 1.15371,-0.48614 2.18263,-0.79759 1.02893,-0.31136 2.20605,-0.82116 2.61503,-1.13352 0.40897,-0.31236 0.97023,-0.57081 1.24721,-0.57364 0.27699,-0.003 1.06429,-0.34569 1.75023,-0.76142 0.68596,-0.41577 1.98308,-1.12472 2.88377,-1.57625 0.9007,-0.45147 1.8184,-0.99831 2.0362,-1.21623 0.21778,-0.21768 0.95269,-0.77292 1.63482,-1.23342 4.93666,-3.33262 7.67343,-6.02288 12.62032,-12.40325 1.87829,-2.42262 5.92428,-9.8652 5.92428,-10.89764 0,-0.55681 -0.29642,-0.59088 -5.00265,-0.59088 h -5.00438 l -0.52886,0.9595 c -0.93335,1.68923 -3.12872,5.09028 -3.86913,5.99491 -1.16032,1.41768 -8.10927,8.32225 -8.37564,8.32225 -0.13428,0 -0.64016,0.32903 -1.12491,0.73216 -0.48474,0.40299 -1.56508,1.11231 -2.39968,1.57451 -0.83461,0.46224 -1.7213,1.04268 -1.97075,1.292 -0.24945,0.24968 -0.58411,0.4548 -0.74419,0.4548 -0.16008,0 -1.02649,0.36299 -1.92595,0.80619 -0.89946,0.44324 -2.82838,1.15069 -4.28602,1.57109 -1.45763,0.42043 -2.93011,0.89393 -3.27308,1.05257 -2.37084,1.09728 -11.44725,1.53608 -16.87533,0.81653 -2.07913,-0.27569 -4.18562,-0.71095 -4.67878,-0.96814 -0.49317,-0.25702 -1.06747,-0.46937 -1.27822,-0.4703 -0.71948,-0.003 -4.60567,-1.35033 -5.09912,-1.76746 -0.27076,-0.22902 -0.63405,-0.41687 -0.80794,-0.41687 -0.17388,0 -0.93415,-0.34992 -1.68994,-0.77865 -0.7558,-0.4287 -1.79565,-0.98014 -2.31011,-1.22483 -0.51447,-0.24435 -1.69752,-1.01714 -2.6288,-1.71579 -0.93129,-0.69865 -1.78542,-1.2696 -1.89839,-1.2696 -0.11298,0 -1.80555,-1.60885 -3.76232,-3.57456 -3.28743,-3.30245 -6.20852,-6.86328 -6.20852,-7.56943 0,-0.16268 -0.26455,-0.5347 -0.58744,-0.82689 -0.32289,-0.29202 -0.83273,-1.19212 -1.13352,-1.99828 -0.30079,-0.80616 -0.73925,-1.68589 -0.97331,-1.95698 -0.23405,-0.27102 -0.78779,-1.53562 -1.23171,-2.80794 -0.44391,-1.27233 -0.92284,-2.45222 -1.0629,-2.62366 -0.14007,-0.17168 -0.57191,-2.13593 -0.96125,-4.36526 -0.95571,-5.47234 -0.96076,-12.43719 -0.0103,-17.74355 0.36582,-2.04241 0.79714,-3.87058 0.95609,-4.06206 0.15894,-0.19168 0.64283,-1.39724 1.07667,-2.67877 1.38164,-4.08137 3.67113,-8.09906 6.77873,-11.89678 1.97971,-2.41934 5.92654,-6.27473 7.5591,-7.38338 5.06061,-3.43662 8.50741,-5.26165 11.88301,-6.29123 1.20041,-0.36613 2.4249,-0.79313 2.72182,-0.9492 2.54369,-1.3374 14.01407,-1.7918 20.03816,-0.79413 1.88635,0.31236 3.58099,0.69242 3.76577,0.8441 0.18478,0.15167 1.238,0.55304 2.33939,0.89406 2.2923,0.70976 10.02929,4.64495 10.73055,5.45744 0.17291,0.20035 0.83626,0.70779 1.47461,1.12662 0.63834,0.41879 2.53348,2.17469 4.21022,3.90359 3.0571,3.15213 3.80025,4.02743 5.15079,6.05521 l 0.72697,1.09218 4.96303,0.0843 c 2.73035,0.0473 5.1419,0.02 5.35752,-0.062 0.51677,-0.19835 -0.015,-1.48275 -1.82259,-4.398 -1.84909,-2.98265 -2.26178,-3.54222 -4.89068,-6.64092 -3.72759,-4.39383 -8.71937,-8.66348 -12.82876,-10.97001 -4.27933,-2.40188 -6.52753,-3.5148 -8.26195,-4.08961 -1.02892,-0.34102 -2.2247,-0.81006 -2.65464,-1.04224 -0.42994,-0.23235 -2.39438,-0.72975 -4.36526,-1.10595 -1.97088,-0.37623 -3.92073,-0.84433 -4.33253,-1.04047 -0.51994,-0.24702 -4.25227,-0.3682 -7.9846,-0.36696 z m 139.76754,2.03622 -36.83082,0.0793 -36.83251,0.081 -0.0792,50.97567 c -0.0439,28.03818 -0.012,51.15685 0.0706,51.37364 0.12061,0.30802 2.21043,0.37796 9.58842,0.31335 l 9.44027,-0.0827 0.15501,-21.67127 0.15667,-21.66954 14.96491,-0.15501 14.96658,-0.15668 v -9.82102 -9.82096 l -14.96658,-0.15668 -14.96491,-0.15668 v -9.19738 -9.19735 l 15.747,-0.15667 15.7435,-0.15502 0.0827,-9.27658 c 0.0913,-10.25429 0.21435,-10.78253 1.77607,-7.63837 0.44723,0.9003 1.43561,2.68983 2.19469,3.97596 0.75906,1.28616 1.59746,2.79418 1.86394,3.35232 0.26669,0.55807 0.93884,1.75276 1.49355,2.65463 1.20135,1.95321 1.79046,2.97852 2.90614,5.06124 0.45931,0.85743 0.93937,1.62835 1.06635,1.71406 0.12701,0.0857 0.66875,0.99864 1.20589,2.02758 1.00241,1.92018 1.81473,3.36598 4.0362,7.1715 0.70075,1.20039 1.70366,3.01642 2.22743,4.03623 0.52377,1.01981 1.06525,1.93111 1.20416,2.02585 0.13867,0.0947 0.58341,0.87383 0.9871,1.7313 0.40363,0.85743 0.99431,1.8999 1.31267,2.31527 0.31835,0.41539 0.85679,1.3266 1.19725,2.02588 0.34046,0.69929 1.09405,2.04395 1.67446,2.98712 0.58037,0.94317 1.4334,2.43035 1.89494,3.30581 l 0.83893,1.59175 -0.88547,1.63999 c -0.48707,0.90154 -1.26999,2.35928 -1.73989,3.24034 -0.46991,0.88103 -1.07942,1.91088 -1.35574,2.2877 -0.27602,0.37683 -0.73365,1.10575 -1.01637,1.62106 -0.28302,0.51534 -1.12962,2.03238 -1.88118,3.36955 -0.75152,1.3372 -1.69369,3.04339 -2.09478,3.79161 -0.40107,0.74826 -0.8863,1.54822 -1.07838,1.77953 -0.19202,0.23135 -0.8225,1.30413 -1.39881,2.38245 -0.57631,1.07831 -1.50844,2.78133 -2.07412,3.78301 -0.56567,1.00167 -1.26672,2.2446 -1.55558,2.76487 -0.28902,0.52027 -1.02517,1.75716 -1.63652,2.74767 -0.61134,0.99044 -1.11112,1.94424 -1.11112,2.12062 0,0.17635 -0.19634,0.51821 -0.43583,0.75796 -0.23968,0.23968 -0.87986,1.26676 -1.42124,2.28257 -0.54137,1.01574 -1.55308,2.82891 -2.24806,4.02933 -1.75367,3.02889 -2.67103,4.66004 -3.94666,7.01472 -0.60388,1.11468 -1.19556,2.09692 -1.3144,2.18263 -0.11901,0.0857 -0.5347,0.78399 -0.92337,1.55041 -0.38869,0.76643 -0.9882,1.77327 -1.3316,2.23777 -0.34352,0.46447 -0.5393,1.06541 -0.43586,1.33506 0.16634,0.43327 1.49298,0.48924 11.40068,0.48924 h 11.21289 l 0.96814,-1.43497 c 0.53251,-0.78903 1.32293,-2.08656 1.7554,-2.88378 0.4324,-0.79723 1.35806,-2.43102 2.05688,-3.63141 2.28617,-3.92722 3.04229,-5.27412 4.0328,-7.17149 0.53707,-1.02888 1.08201,-1.94185 1.20929,-2.02759 0.12734,-0.0857 0.67865,-0.99694 1.22656,-2.02585 2.35281,-4.41869 2.82387,-5.25062 3.24897,-5.72962 0.24702,-0.27835 0.68025,-0.99847 0.96124,-1.59865 1.01124,-2.1599 3.1433,-5.72829 3.48842,-5.83813 0.30936,-0.0983 1.02341,0.97874 2.93716,4.43589 0.28468,0.51447 1.09548,1.91761 1.80193,3.11803 0.70645,1.20039 1.60628,2.82024 2.00001,3.6004 0.39373,0.78016 1.03011,1.81694 1.41261,2.30321 0.38249,0.48623 0.69422,1.04417 0.69422,1.23859 0,0.19434 0.36362,0.88786 0.80796,1.54181 0.44436,0.65392 1.22305,1.98225 1.73126,2.95439 0.50823,0.97213 1.39783,2.54178 1.97421,3.48495 0.57638,0.94317 1.49051,2.58903 2.03275,3.65897 0.54224,1.06995 1.11752,2.02642 1.27823,2.1258 0.16068,0.0993 0.50734,0.69571 0.77002,1.32473 0.26269,0.62898 0.77573,1.46024 1.14042,1.84843 l 0.66322,0.70629 h 11.11815 c 6.11509,0 11.20076,-0.0827 11.30074,-0.18268 0.19768,-0.19768 -1.00148,-2.94632 -1.59862,-3.66584 -0.20335,-0.24502 -0.69399,-1.05884 -1.09218,-1.8071 -0.39823,-0.74819 -1.37187,-2.48345 -2.16196,-3.85532 -0.79009,-1.3719 -1.71056,-3.07309 -2.04655,-3.78301 -0.33603,-0.70995 -0.75359,-1.3803 -0.92851,-1.48838 -0.17501,-0.10801 -0.74278,-1.09455 -1.26099,-2.19126 -0.51817,-1.09675 -1.08378,-2.08055 -1.25756,-2.1878 -0.17368,-0.10734 -0.60501,-0.85226 -0.95954,-1.65375 -0.35452,-0.80146 -0.75552,-1.53095 -0.89063,-1.62275 -0.13534,-0.0917 -0.73979,-1.08002 -1.34366,-2.1947 -1.27567,-2.35467 -2.19473,-3.98586 -3.9484,-7.01475 -0.69498,-1.20042 -1.70672,-3.01356 -2.24806,-4.02933 -0.54134,-1.01578 -1.17979,-2.04456 -1.41951,-2.28427 -0.23968,-0.23969 -0.43583,-0.58185 -0.43583,-0.76143 0,-0.17968 -0.52661,-1.18492 -1.16969,-2.23429 -0.64308,-1.04938 -1.34796,-2.26184 -1.56765,-2.69254 -0.22001,-0.4307 -0.95373,-1.69332 -1.62965,-2.80797 -0.67592,-1.11468 -1.66642,-2.90432 -2.20156,-3.97593 -0.53514,-1.07161 -1.10038,-2.02615 -1.25583,-2.12232 -0.38503,-0.23802 -0.35833,-1.61329 0.0363,-1.85707 0.17534,-0.10835 0.73892,-0.99371 1.25236,-1.96728 0.51347,-0.97357 1.4228,-2.6111 2.02071,-3.64001 0.59795,-1.02894 1.51565,-2.64346 2.03965,-3.58663 0.52404,-0.94317 1.49865,-2.62696 2.1654,-3.74164 0.66675,-1.11468 1.65005,-2.90072 2.18436,-3.96903 0.5343,-1.06834 1.11531,-2.02975 1.29026,-2.13786 0.17501,-0.108 0.59008,-0.77842 0.9251,-1.48837 0.33503,-0.70992 1.3068,-2.48385 2.1585,-3.94149 0.85169,-1.45768 1.83353,-3.24044 2.18092,-3.96216 0.3474,-0.72172 0.76973,-1.39757 0.93884,-1.50218 0.16935,-0.10468 0.51694,-0.63785 0.77176,-1.18346 0.25502,-0.5456 1.15918,-2.18239 2.01208,-3.64003 0.85293,-1.45764 1.83187,-3.22324 2.17403,-3.92253 0.34219,-0.69928 0.88229,-1.61045 1.20072,-2.02585 0.31836,-0.41536 0.909,-1.45784 1.31266,-2.31527 0.40367,-0.85746 0.83123,-1.63005 0.94921,-1.71579 0.118,-0.0857 0.58801,-0.8946 1.04391,-1.79847 0.61628,-1.22159 0.72442,-1.68112 0.42723,-1.79503 -0.22002,-0.083 -5.44744,-0.11734 -11.61773,-0.0723 l -11.21806,0.0827 -1.15245,2.02585 c -0.63375,1.11469 -1.53782,2.79851 -2.00692,3.74168 -0.46907,0.94317 -0.9682,1.79333 -1.10941,1.88804 -0.14135,0.0947 -0.68469,1.00434 -1.20759,2.02415 -0.52291,1.01981 -1.57639,2.90682 -2.34284,4.19298 -0.76646,1.28613 -1.60052,2.78604 -1.85361,3.33164 -0.25302,0.54561 -0.59207,1.07205 -0.75279,1.17142 -0.16068,0.0993 -0.73748,1.05762 -1.28169,2.12753 -0.54417,1.06998 -1.53615,2.85608 -2.2033,3.97076 -0.66718,1.11465 -1.38363,2.41388 -1.59518,2.88548 -0.21135,0.4716 -0.55508,0.85616 -0.76316,0.85616 -0.40046,0 -1.25369,-1.09911 -2.05342,-2.64946 -0.64691,-1.25413 -2.51082,-4.52904 -3.99489,-7.01645 -0.66505,-1.11469 -1.48385,-2.60623 -1.81914,-3.31615 -0.33526,-0.70995 -0.75189,-1.38033 -0.9268,-1.48841 -0.17501,-0.10801 -0.75599,-1.06951 -1.29026,-2.13782 -0.53434,-1.06832 -1.51985,-2.85438 -2.19126,-3.96906 -0.67145,-1.11469 -1.61306,-2.79991 -2.09306,-3.74508 -0.48,-0.94517 -1.27453,-2.24367 -1.76403,-2.88548 z m -244.80766,0.15834 -15.6195,0.002 -0.081,50.97568 c -0.0441,28.03817 -0.0127,51.15855 0.0706,51.37706 0.11584,0.30603 1.33864,0.37743 5.2266,0.31169 l 5.07156,-0.0843 0.15674,-14.34469 0.15678,-14.34129 10.13277,-0.19802 c 9.72084,-0.18968 15.34457,-0.70035 16.34991,-1.48494 0.18185,-0.14201 1.17266,-0.50981 2.20158,-0.81826 1.02893,-0.30836 2.08217,-0.73509 2.33939,-0.94574 0.25722,-0.21068 1.23772,-0.70532 2.18091,-1.09908 0.94318,-0.39373 2.11133,-1.03988 2.59607,-1.43671 0.48474,-0.39686 1.0068,-0.72008 1.15936,-0.72008 0.26368,0 0.69457,-0.35566 3.97766,-3.27481 1.43326,-1.2744 4.77791,-5.29323 5.7434,-6.90101 0.29519,-0.49157 0.67864,-1.10379 0.851,-1.36094 0.57382,-0.85649 3.1334,-6.50608 3.13527,-6.91998 7.7e-4,-0.22435 0.21591,-0.81682 0.47717,-1.31783 1.79294,-3.43812 1.99133,-15.92911 0.31699,-19.97961 -0.21264,-0.51447 -0.64476,-1.7773 -0.95952,-2.80624 -0.31479,-1.02891 -0.73274,-2.08222 -0.93025,-2.33937 -0.19752,-0.25736 -0.66151,-1.18576 -1.02844,-2.06379 -1.19769,-2.86594 -3.6213,-6.32223 -6.60991,-9.42646 -1.84071,-1.91198 -6.68316,-5.65726 -7.31447,-5.65726 -0.21058,0 -0.70705,-0.28235 -1.10251,-0.62534 -0.39546,-0.34286 -0.83757,-0.62361 -0.98365,-0.62361 -0.14608,0 -1.00236,-0.3638 -1.90183,-0.80793 -2.06179,-1.01801 -5.00133,-1.88814 -7.32139,-2.16886 -0.98752,-0.11934 -1.99205,-0.37523 -2.23259,-0.56848 -0.31129,-0.25002 -4.94183,-0.35142 -16.05878,-0.35142 z m 4.4445,9.55914 v 0.002 c 6.03579,0.02 11.63064,0.38136 13.60914,0.913 0.68594,0.18435 1.97806,0.67492 2.86997,1.09045 0.89191,0.41549 1.94344,0.89833 2.33768,1.07151 2.51168,1.10411 5.05248,2.95478 7.31964,5.33513 1.54927,1.62658 4.14642,5.23198 4.15164,5.76236 0.002,0.19134 0.26719,0.68411 0.59089,1.09561 0.69229,0.88013 1.78568,4.41239 2.08787,6.7477 0.11701,0.90417 0.33518,1.71843 0.48408,1.81053 0.35624,0.22002 0.34964,6.59119 -0.007,6.81148 -0.15145,0.0937 -0.37094,0.94627 -0.48924,1.8932 -0.26619,2.13043 -1.26189,5.67415 -1.76402,6.27917 -0.20575,0.24801 -0.70451,1.11151 -1.10768,1.91904 -1.27938,2.56252 -3.7452,5.58615 -6.02764,7.39201 -2.82852,2.2379 -3.2616,2.53222 -4.36698,2.95782 -0.60022,0.23102 -1.3153,0.61165 -1.59175,0.84586 -0.80552,0.68232 -5.32138,1.93318 -7.04231,1.95351 -0.54575,0.007 -1.07722,0.15102 -1.1852,0.32203 -0.30579,0.49484 -19.15445,0.42103 -19.34391,-0.0757 -0.0818,-0.21435 -0.11321,-12.45833 -0.0689,-27.20622 l 0.081,-26.81341 6.85796,-0.093 c 0.87102,-0.0133 1.74243,-0.0133 2.60468,-0.0133 z m 147.80726,29.63173 c -2.65825,0.01 -4.59723,0.077 -4.70118,0.18101 -0.13885,0.13868 -0.0435,1.43814 0.21188,2.88891 0.25538,1.45078 0.46489,3.15697 0.46513,3.78992 2.2e-4,0.63294 0.14207,1.23759 0.31352,1.34366 0.38481,0.23769 0.41929,7.08386 0.0379,7.49883 -0.33042,0.35939 -0.68821,3.75284 -0.42377,4.01726 0.10354,0.10367 3.35356,0.15101 7.22317,0.10501 l 7.03713,-0.0843 v -9.8227 -9.82096 l -7.3059,-0.0827 c -1.00453,-0.01 -1.97183,-0.0167 -2.85791,-0.0133 z"
       inkscape:connector-curvature="0" />
  </g>
</svg>
