<?xml version="1.0" encoding="UTF-8" standalone="no"?>
<svg
   xmlns:dc="http://purl.org/dc/elements/1.1/"
   xmlns:cc="http://creativecommons.org/ns#"
   xmlns:rdf="http://www.w3.org/1999/02/22-rdf-syntax-ns#"
   xmlns:svg="http://www.w3.org/2000/svg"
   xmlns="http://www.w3.org/2000/svg"
   xmlns:sodipodi="http://sodipodi.sourceforge.net/DTD/sodipodi-0.dtd"
   xmlns:inkscape="http://www.inkscape.org/namespaces/inkscape"
   xml:space="preserve"
   enable-background="new 0 0 280 103"
   viewBox="0 0 499.99999 200"
   height="200"
   width="500"
   y="0px"
   x="0px"
   id="Layer_1"
   version="1.1"
   inkscape:version="0.92.5 (2060ec1f9f, 2020-04-08)"
   sodipodi:docname="pokemon-W.svg"><metadata
     id="metadata105"><rdf:RDF><cc:Work
         rdf:about=""><dc:format>image/svg+xml</dc:format><dc:type
           rdf:resource="http://purl.org/dc/dcmitype/StillImage" /><dc:title></dc:title></cc:Work></rdf:RDF></metadata><sodipodi:namedview
     pagecolor="#ffffff"
     bordercolor="#666666"
     borderopacity="1"
     objecttolerance="10"
     gridtolerance="10"
     guidetolerance="10"
     inkscape:pageopacity="0"
     inkscape:pageshadow="2"
     inkscape:window-width="1366"
     inkscape:window-height="743"
     id="namedview103"
     showgrid="false"
     inkscape:zoom="1.1121409"
     inkscape:cx="19.169581"
     inkscape:cy="53.15162"
     inkscape:window-x="0"
     inkscape:window-y="0"
     inkscape:window-maximized="1"
     inkscape:current-layer="Layer_1"
     inkscape:pagecheckerboard="true" /><defs
     id="defs202" /><linearGradient
     gradientTransform="translate(-408,-677.5)"
     y2="714.04132"
     x2="416.7337"
     y1="732.71002"
     x1="426.75101"
     gradientUnits="userSpaceOnUse"
     id="SVGID_1_"><stop
       id="stop12"
       style="stop-color:#0070B6"
       offset="0" /><stop
       id="stop14"
       style="stop-color:#1D2C5E"
       offset="1" /></linearGradient><linearGradient
     gradientTransform="translate(-408,-677.5)"
     y2="680.94922"
     x2="561.64203"
     y1="694.57318"
     x1="548.92682"
     gradientUnits="userSpaceOnUse"
     id="SVGID_2_"><stop
       id="stop21"
       style="stop-color:#0070B6"
       offset="0" /><stop
       id="stop23"
       style="stop-color:#1D2C5E"
       offset="1" /></linearGradient><linearGradient
     gradientTransform="translate(-408,-677.5)"
     y2="704.54773"
     x2="491.9368"
     y1="717.28607"
     x1="493.45309"
     gradientUnits="userSpaceOnUse"
     id="SVGID_3_"><stop
       id="stop32"
       style="stop-color:#0070B6"
       offset="0" /><stop
       id="stop34"
       style="stop-color:#1D2C5E"
       offset="1" /></linearGradient><linearGradient
     gradientTransform="translate(-408,-677.5)"
     y2="703.336"
     x2="631.74219"
     y1="714.83398"
     x1="632.34772"
     gradientUnits="userSpaceOnUse"
     id="SVGID_4_"><stop
       id="stop39"
       style="stop-color:#125D9E"
       offset="0" /><stop
       id="stop41"
       style="stop-color:#1D2C5E"
       offset="1" /></linearGradient><linearGradient
     gradientTransform="translate(-408,-677.5)"
     y2="719.48871"
     x2="576.56763"
     y1="698.26068"
     x1="589.91107"
     gradientUnits="userSpaceOnUse"
     id="SVGID_5_"><stop
       id="stop52"
       style="stop-color:#125D9E"
       offset="0" /><stop
       id="stop54"
       style="stop-color:#1D2C5E"
       offset="1" /></linearGradient><linearGradient
     gradientTransform="matrix(1.577268,0,0,1.577268,-612.55968,-1066.2238)"
     y2="750.20251"
     x2="480.91931"
     y1="732.30957"
     x1="471.82129"
     gradientUnits="userSpaceOnUse"
     id="SVGID_6_"><stop
       id="stop65"
       style="stop-color:#105FA1"
       offset="0" /><stop
       id="stop67"
       style="stop-color:#1D2C5E"
       offset="1" /></linearGradient><linearGradient
     gradientTransform="translate(-408,-677.5)"
     y2="750.61151"
     x2="448.0217"
     y1="726.20209"
     x1="437.49219"
     gradientUnits="userSpaceOnUse"
     id="SVGID_7_"><stop
       id="stop74"
       style="stop-color:#105FA1"
       offset="0" /><stop
       id="stop76"
       style="stop-color:#1D2C5E"
       offset="1" /></linearGradient><path
     style="fill:#ffffff;stroke-width:1.65847433"
     id="path88"
     d="m 270.49105,83.034024 c -0.10942,0.09619 -0.21064,0.218919 -0.29687,0.344963 0.11443,-0.104476 0.22556,-0.195701 0.3433,-0.291891 z"
     inkscape:connector-curvature="0" /><path
     style="fill:#ffffff;stroke-width:1.65847433"
     id="path94"
     d="m 209.58689,83.846677 0.0862,0.03649 z"
     inkscape:connector-curvature="0" /><path
     style="fill:#ffffff;stroke-width:1.65847433"
     id="path96"
     d="m 241.03488,89.107357 c 0.45442,0.459397 0.0348,0.12936 0.54399,0.477641 l 3.4745,-2.449566 c -0.51579,-0.364865 -1.0266,-0.756265 -1.49594,-1.194102 -5.04176,-4.593974 -3.73157,-14.926268 -0.46106,-20.581665 -8.60914,6.94569 -8.16135,17.637873 -2.06149,23.747692"
     inkscape:connector-curvature="0" /><path
     style="fill:#ffffff;stroke-width:1.65847433"
     id="path110"
     d="m 146.29122,89.601583 c -0.0348,0.05473 3.59392,-3.595572 3.55246,-3.595572 -4.53925,-0.172482 -6.4581,4.108039 -6.61566,4.44471 0.93206,-0.451105 1.96032,-0.744654 3.0632,-0.849138"
     inkscape:connector-curvature="0" /><path
     style="fill:#ffffff;stroke-width:1.65847433"
     id="path112"
     d="m 154.84066,94.834069 c 0.18409,0.615293 0.28028,1.227271 0.28028,1.897293 0,0.945332 -0.21063,1.852517 -0.59374,2.688389 0.72642,-0.379791 5.97549,-2.925549 3.94054,-8.318908 0.10943,0.165848 -3.7581,3.716642 -3.62708,3.733226"
     inkscape:connector-curvature="0" /><path
     style="fill:#ffffff;stroke-width:1.65847433"
     id="path114"
     d="m 134.19265,97.835908 c 0,-2.219039 3.79958,-7.602447 4.98373,-9.398574 -6.00037,3.81449 -8.58427,8.962395 -8.58427,13.017366 0,6.94735 6.10484,12.53474 13.40378,12.53474 3.45295,0 9.77671,-1.82598 13.91295,-8.51957 -2.16764,1.42628 -7.67708,4.83941 -10.56781,4.83941 -7.29727,-0.002 -13.14838,-5.48788 -13.14838,-12.473372"
     inkscape:connector-curvature="0" /><path
     style="fill:#ffffff;stroke-width:1.65847433"
     id="path140"
     d="m 371.85367,83.183286 c 0.0696,0.157556 3.57402,-3.65196 3.64533,-3.65196 -4.42978,0.182433 -6.55761,2.320207 -6.33869,3.306999 -0.26536,0.383107 -0.48095,0.762899 -0.65012,1.182492 0.94533,-0.471007 2.69336,-0.832554 3.34348,-0.837531"
     inkscape:connector-curvature="0" /><path
     style="fill:#ffffff;stroke-width:1.65847433"
     id="path142"
     d="m 380.18253,88.750786 c 0.15922,0.593733 0.23551,1.215661 0.22223,1.884026 -0.0397,0.855773 -0.26203,1.640231 -0.58709,2.371618 0.67334,-0.3035 6.04182,-1.970267 3.99195,-7.877753 0.0531,0.167507 -3.68514,3.625425 -3.62709,3.622109"
     inkscape:connector-curvature="0" /><path
     style="fill:#ffffff;stroke-width:1.65847433"
     id="path144"
     d="m 368.42229,107.50813 c 5.01025,0.21394 10.55121,-2.86419 14.52492,-8.303981 -10.1963,2.091331 -20.91501,-14.888124 -19.84033,-16.549915 -3.85263,2.792871 -7.26246,8.179594 -7.41836,11.944331 -0.26535,6.980515 5.41825,12.617675 12.73377,12.909565"
     inkscape:connector-curvature="0" /><path
     style="fill:#ffffff;stroke-width:1.65847433"
     id="path154"
     d="m 103.49595,89.883524 c -2.5043,2.656875 -8.055204,7.819705 -11.217914,9.856312 l -1.920517,-6.166207 -4.205889,-13.519882 -2.673465,-9.15312 -2.608775,3.348459 2.663515,9.166387 4.205889,13.509932 1.912221,6.184445 c 4.33028,-2.78955 10.629165,-8.025351 13.844935,-13.226326"
     inkscape:connector-curvature="0" /><path
     style="fill:#ffffff;stroke-width:1.65847433"
     id="path156"
     d="m 257.32276,66.610154 c -3.42641,-1.318487 -8.2791,-0.922113 -10.8995,1.94539 -0.60865,0.665049 -1.7928,2.361667 -2.16761,3.119591 2.5358,-2.016705 7.05182,-2.452884 10.0122,-1.384827 z"
     inkscape:connector-curvature="0" /><path
     style="fill:#ffffff;stroke-width:1.65847433"
     id="path158"
     d="m 100.36311,78.823159 c -0.384784,-2.023338 -2.366655,-3.630401 -3.338511,-4.076531 -1.738095,-0.839187 -4.744912,-0.970206 -6.940729,-0.570514 0.394727,1.363265 0.847486,2.962035 1.039866,3.617132 0.890598,0.124386 2.353372,0.389741 3.12125,0.73968 0.963582,0.464372 2.648587,1.558966 3.039981,3.595572 0.524082,2.718238 0.386432,5.259021 -0.746312,7.322164 3.106319,-3.048276 4.613875,-6.363566 3.824455,-10.627503"
     inkscape:connector-curvature="0" /><g
     transform="matrix(1.6584743,0,0,1.6584743,8.6378609,1.1120291)"
     id="g160"
     style="fill:#ffffff"><g
       id="g162"
       style="fill:#ffffff"><path
         style="fill:#ffffff"
         id="path164"
         d="M 58.588,46.145 C 57.689,41.321 51.381,38.662 45.127,42.073 l 1.612,5.521 2.536,8.159 1.157,3.716 c 4.692,-3.017 9.408,-6.642 8.156,-13.324 z m -6.212,7.418 c -0.683,-2.229 -2.181,-7.042 -2.181,-7.042 0.007,0.022 -0.295,-1.03 -0.653,-2.234 1.326,-0.237 2.6,-0.141 3.648,0.363 0.586,0.279 1.616,0.93 1.841,2.164 0.518,2.774 -0.417,4.754 -2.655,6.749 z"
         inkscape:connector-curvature="0" /></g></g><g
     transform="matrix(1.6584743,0,0,1.6584743,8.6361933,2.2364712)"
     id="g166"
     style="fill:#ffffff"><g
       id="g168"
       style="fill:#ffffff"><path
         style="fill:#ffffff"
         id="path170"
         d="m 153.223,38.491 c -3.496,-3.207 -8.93,-2.958 -12.119,0.535 -3.208,3.487 -2.956,8.924 0.545,12.118 0.285,0.275 0.593,0.5 0.903,0.721 l 11.277,-12.771 c -0.199,-0.208 -0.399,-0.415 -0.606,-0.603 z m -10.648,8.983 c -1.103,-2.025 -0.88,-4.596 0.769,-6.398 1.586,-1.728 4.016,-2.22 6.088,-1.421 z"
         inkscape:connector-curvature="0" /></g></g><path
     style="fill:#ffffff;stroke-width:1.65847433"
     id="path174"
     d="m 383.78142,85.128677 c 0.15755,0.628563 0.23882,1.25049 0.21892,1.912221 -0.17248,3.957119 -3.89243,7.012029 -8.3272,6.80472 -4.43144,-0.152579 -7.91257,-3.515965 -7.73844,-7.463134 0.14926,-3.700056 3.44631,-6.628922 7.51786,-6.816329 -0.77284,-0.174139 -1.58052,-0.265355 -2.42303,-0.295208 -7.41836,-0.320086 -13.48173,4.933961 -13.73714,11.474983 -0.28525,6.995444 5.32205,12.69894 12.62265,13.01571 7.42831,0.29686 13.48837,-4.975428 13.78358,-11.937702 0.0862,-2.41308 -0.6269,-4.726652 -1.9172,-6.695261"
     inkscape:connector-curvature="0" /><linearGradient
     gradientTransform="matrix(1.577268,0,0,-1.577268,-858.61348,-1456.5977)"
     y2="-982.76947"
     x2="655.63483"
     y1="-982.76947"
     x1="639.70612"
     gradientUnits="userSpaceOnUse"
     id="SVGID_8_"><stop
       id="stop177"
       style="stop-color:#3C5AA6"
       offset="0" /><stop
       id="stop179"
       style="stop-color:#2B73B9"
       offset="0.9331" /><stop
       id="stop181"
       style="stop-color:#2A75BB"
       offset="1" /></linearGradient><path
     style="fill:#ffffff;stroke-width:1.65847433"
     id="path183"
     d="m 158.73476,93.117548 c 0,3.973704 -3.61382,7.157972 -8.04029,7.157972 -4.43807,0 -8.03862,-3.185926 -8.03862,-7.157972 0,-3.703374 3.16769,-6.756624 7.22762,-7.111537 -0.77781,-0.140971 -1.58715,-0.222236 -2.42302,-0.222236 -7.41669,0 -13.2678,5.501159 -13.2678,12.052133 0,6.990472 5.85276,12.473372 13.14838,12.473372 7.42334,0 13.26947,-5.48622 13.26947,-12.473372 0,-2.419715 -0.79939,-4.700117 -2.17426,-6.577509 0.18574,0.565539 0.29852,1.192442 0.29852,1.859149"
     inkscape:connector-curvature="0" /><g
     transform="matrix(1.6584743,0,0,1.6584743,8.7224172,2.271303)"
     id="g185"
     style="fill:#ffffff"><g
       id="g187"
       style="fill:#ffffff"><linearGradient
         gradientTransform="matrix(1,0,0,-1,-564,-925)"
         y2="-974.57031"
         x2="838.9209"
         y1="-974.57031"
         x1="573.17767"
         gradientUnits="userSpaceOnUse"
         id="SVGID_9_"><stop
           id="stop190"
           style="stop-color:#3C5AA6"
           offset="0" /><stop
           id="stop192"
           style="stop-color:#2B73B9"
           offset="0.9331" /><stop
           id="stop194"
           style="stop-color:#2A75BB"
           offset="1" /></linearGradient><path
         style="fill:#ffffff"
         id="path196"
         d="m 254.02,30.598 -1.986,8.185 -1.834,-9.063 -24.559,-5.406 0.172,13.656 3.701,0.83 -0.267,2.463 c -0.048,-0.019 -0.078,-0.048 -0.104,-0.069 -4.588,-2.421 -10.276,-2.669 -15.629,-0.647 -1.796,0.687 -3.463,1.59 -4.975,2.688 l -3.705,-23.388 h -16.333 l -0.45,2.689 H 170.86 l -1.963,12.023 -1.426,-1.761 c -4.166,-5.118 -10.205,-7.937 -16.895,-8.077 l 14.596,-7.845 -10.178,-15.189 -18.389,21.189 3.174,3.87 c -2.875,1.175 -5.387,2.795 -7.468,4.752 l -15.767,-13.989 -5.513,10.566 0.212,-10.154 -24.651,7.875 0.632,13.244 4.194,-1.088 0.62,6.712 c -4.792,-2.152 -10.552,-2.099 -15.894,0.158 -1.583,0.69 -3.059,1.538 -4.419,2.524 0.924,-4.089 0.705,-8.12 -0.853,-11.715 -1.84,-4.248 -5.078,-7.759 -9.048,-9.974 -2.783,-1.854 -6.1,-3.009 -9.571,-3.402 -8.53,-1.491 -18.773,0.04 -28.854,4.335 -3.706,1.581 -7.163,3.375 -10.281,5.361 l -3.941,2.499 2.38,4.019 7.386,12.483 c 0,0 2.26,3.825 2.275,3.823 l 3.994,-1.963 0.557,-0.256 18.353,40.961 1.77,3.937 4.098,-1.32 9.93,-3.181 4.352,-1.383 -1.148,-4.43 -5.274,-20.245 c 1.517,-1.123 2.933,-2.314 4.24,-3.561 -0.295,2.419 -0.14,4.868 0.526,7.212 1.379,4.908 4.593,8.785 9.053,10.933 4.817,2.315 10.694,2.321 16.131,0.015 2.727,-1.157 5.152,-2.845 7.207,-4.854 l 0.749,8.063 17.39,-2.561 -0.027,-15.593 36.337,17.959 V 67.119 c 1.458,-0.122 2.946,-0.352 4.442,-0.719 4.002,-0.967 7.427,-2.293 10.47,-4.116 l -1.526,9.339 19.592,3.083 1.075,-7.05 5.117,9.453 3.128,-6.027 1.143,9.896 22.213,3.916 -1.178,-7.473 c 3.041,0.344 6.246,-0.064 9.342,-1.232 0.733,-0.271 1.457,-0.601 2.15,-0.955 l -0.885,7.951 14.784,2.086 0.11,6.063 15.416,4.839 20.071,-60.495 z m -86.793,8.99 1.019,-1.083 -1.231,7.627 -3.211,-2.892 z m -13.018,-31.156 5.382,7.311 -15.387,7.628 -1.063,-1.615 z M 52.32,64.809 58.459,88.364 48.523,91.538 28.134,46.004 c -1.109,0.583 -3.157,1.561 -5.038,2.483 L 15.713,36.015 c 2.936,-1.875 6.156,-3.537 9.581,-4.984 9.612,-4.088 18.783,-5.308 26.118,-4.012 2.595,0.292 5.342,1.057 7.748,2.654 3.301,1.859 5.826,4.505 7.282,7.875 3.551,8.206 -2.381,20.015 -14.122,27.261 z m 45.681,-4.192 c -0.114,3.507 -1.402,7.021 -3.558,9.994 -2.051,2.875 -4.916,5.248 -8.287,6.699 -8.62,3.652 -17.24,0 -19.543,-8.184 -2.231,-7.913 2.96,-17.333 11.312,-20.931 5.334,-2.252 10.686,-1.718 14.52,0.887 2.368,1.606 4.174,4.021 5.017,7.047 0.106,0.321 0.176,0.658 0.247,0.988 0.241,1.153 0.338,2.335 0.292,3.5 z m 46.901,16.653 -36.055,-18.033 0.064,18.894 -9.327,1.272 -0.65,-7.788 c 2.88,-4.938 3.933,-10.757 2.43,-16.093 -0.825,-2.933 -2.349,-5.479 -4.42,-7.519 l -1.338,-15.879 -4.188,1.086 -0.185,-4.015 14.978,-4.46 0.918,15.448 11.034,-15.503 10.787,10.273 -15.085,15.892 14.172,5.606 c 1.583,3 3.998,5.549 7.028,7.427 2.929,1.808 6.285,2.877 9.835,3.228 z m -18.721,-26.126 -5.015,-1.935 4.675,-4.544 c -0.2,2.086 -0.097,4.267 0.34,6.479 z m 39.237,4.724 c -3.46,2.862 -7.404,4.728 -12.615,5.987 -1.139,0.261 -2.255,0.451 -3.347,0.547 -8.271,0.813 -15.21,-2.985 -17.843,-9.145 -0.328,-0.746 -0.581,-1.501 -0.772,-2.307 -1.218,-5.188 -0.178,-9.825 2.385,-13.458 0.738,-1.06 1.614,-2.026 2.598,-2.896 2.414,-2.154 5.496,-3.72 9,-4.562 7.879,-1.9 14.818,0.505 19.072,5.725 L 148.882,51.74 c 1.018,0.192 2.637,-0.075 3.832,-0.361 3.576,-0.872 5.577,-2.77 7.34,-4.838 l 6,5.398 1.818,1.642 c -0.788,0.815 -1.616,1.584 -2.454,2.287 z m 31.853,21.327 -3.266,-21.635 -4.619,11.935 -6.916,-14.917 h -0.078 l -2.733,17.275 -11.527,-2.006 1.621,-9.64 c 0.435,-0.409 0.863,-0.819 1.284,-1.252 l 3.736,-3.847 -3.631,-3.252 L 175,26.899 h 11.63 l 2.911,15.892 3.262,-18.417 h 8.319 l 3.452,22.438 c -4.393,5.004 -6.527,11.731 -5.059,17.885 1.135,4.771 4.067,8.613 8.27,10.857 0.423,0.213 0.861,0.424 1.313,0.606 l 0.44,2.909 z m 28.725,-7.049 c -1.271,0.905 -2.67,1.674 -4.174,2.229 -2.969,1.131 -5.922,1.366 -8.553,0.843 -1.834,-0.362 -3.506,-1.077 -4.961,-2.112 -2.314,-1.674 -4.018,-4.146 -4.769,-7.25 -0.876,-3.729 -0.069,-7.711 1.937,-11.199 1,-1.705 2.283,-3.307 3.801,-4.688 1.693,-1.518 3.656,-2.761 5.84,-3.601 5.083,-1.896 10.096,-1.242 13.625,1.295 1.298,0.92 2.375,2.091 3.224,3.452 0.644,1.075 1.144,2.26 1.447,3.554 1.081,4.478 -0.206,9.274 -3.031,13.138 -1.21,1.647 -2.685,3.127 -4.386,4.339 z m 25.955,20.392 -8.524,-2.539 -0.743,-31.426 -4.287,24.243 -9.299,-1.484 0.666,-6.98 c 6.072,-5.131 9.291,-13.225 7.527,-20.56 -0.775,-3.248 -2.445,-6.076 -4.799,-8.226 l 0.785,-8.232 -3.516,-0.936 0.235,-4.395 16.021,3.22 5.387,25.546 5.525,-22.903 12.188,2.693 z"
         inkscape:connector-curvature="0" /></g></g><path
     d="m 11.216366,198.91008 c 1.557507,0 3.072273,-0.3435 4.544299,-1.03048 1.47201,-0.687 2.682883,-1.60952 3.632573,-2.76759 v 0 l -2.706626,-2.76758 c -0.702773,0.844 -1.510022,1.49175 -2.421716,1.9432 -0.91171,0.45144 -1.889888,0.67716 -2.934547,0.67716 -0.930707,0 -1.7901867,-0.17173 -2.5784227,-0.51523 -0.788251,-0.34349 -1.472026,-0.80967 -2.051339,-1.39851 -0.579329,-0.58885 -1.035169,-1.29058 -1.367565,-2.10514 -0.332397,-0.81459 -0.498595,-1.69294 -0.498595,-2.6351 0,-0.9618 0.161377,-1.84997 0.484358,-2.66454 0.32289,-0.81458 0.769239,-1.52119 1.339062,-2.11986 0.569807,-0.59866 1.248852,-1.06974 2.037088,-1.41324 0.788251,-0.34348 1.6287327,-0.51524 2.5214307,-0.51524 1.063672,0 2.070338,0.24045 3.020042,0.72134 0.949704,0.4809 1.77592,1.1728 2.478691,2.0757 v 0 l 2.792107,-2.85593 c -0.930693,-1.17768 -2.146311,-2.11493 -3.646825,-2.81174 -1.500515,-0.6968 -3.048515,-1.0452 -4.644015,-1.0452 -1.4815167,0 -2.8728087,0.27479 -4.1738917,0.82438 -1.301083,0.5496 -2.426461,1.29548 -3.376165,2.23763 -0.949689,0.94215 -1.699946,2.06587 -2.250771,3.37115 -0.55082605,1.30528 -0.82623105,2.7038 -0.82623105,4.19555 0,1.49174 0.27066,2.88536 0.81197905,4.18083 0.541335,1.29546 1.286831,2.41428 2.23652,3.35644 0.949704,0.94214 2.075082,1.68802 3.37618,2.23761 1.301083,0.5496 2.701881,0.82439 4.2023797,0.82439 z m 53.990107,0.0295 c 1.481533,0 2.868095,-0.27479 4.159672,-0.82439 1.291591,-0.54959 2.407479,-1.30037 3.347676,-2.25234 0.940199,-0.95198 1.685696,-2.0806 2.236521,-3.38588 0.550825,-1.30529 0.82623,-2.69399 0.82623,-4.1661 0,-1.47213 -0.275405,-2.86084 -0.82623,-4.16611 -0.550825,-1.30529 -1.296322,-2.43391 -2.236521,-3.38587 -0.940197,-0.95197 -2.056085,-1.70277 -3.347676,-2.25235 -1.291577,-0.5496 -2.678139,-0.82439 -4.159672,-0.82439 -1.462534,0 -2.83956,0.27479 -4.131168,0.82439 -1.291591,0.54958 -2.407462,1.30038 -3.347661,2.25235 -0.940198,0.95196 -1.68571,2.08058 -2.23652,3.38587 -0.55084,1.30527 -0.826245,2.69398 -0.826245,4.16611 0,1.47211 0.275405,2.86081 0.826245,4.1661 0.55081,1.30528 1.296322,2.4339 2.23652,3.38588 0.940199,0.95197 2.05607,1.70275 3.347661,2.25234 1.291608,0.5496 2.668634,0.82439 4.131168,0.82439 z m 0,-3.91584 c -0.892712,0 -1.723688,-0.17175 -2.492927,-0.51526 -0.769254,-0.34348 -1.434047,-0.81456 -1.994379,-1.41321 -0.560301,-0.59868 -1.001905,-1.3102 -1.32481,-2.13459 -0.322906,-0.82439 -0.484359,-1.70766 -0.484359,-2.64981 0,-0.96179 0.161392,-1.84997 0.484359,-2.66454 0.322905,-0.81459 0.764509,-1.52119 1.32481,-2.11986 0.560332,-0.59867 1.225125,-1.06974 1.994379,-1.41323 0.769239,-0.34351 1.600215,-0.51525 2.492927,-0.51525 0.892728,0 1.728466,0.17174 2.50721,0.51525 0.778746,0.34349 1.448269,0.81456 2.008601,1.41323 0.560301,0.59867 1.001935,1.30527 1.32481,2.11986 0.322906,0.81457 0.484358,1.70275 0.484358,2.66454 0,0.94215 -0.161392,1.82542 -0.484358,2.64981 -0.322875,0.82439 -0.764509,1.53591 -1.32481,2.13459 -0.560332,0.59865 -1.229855,1.06973 -2.008601,1.41321 -0.778744,0.34351 -1.614482,0.51526 -2.50721,0.51526 z m 62.622847,3.59198 v -3.76864 h -10.91198 v -16.84112 h -4.13118 v 20.60969 z m 52.08122,0 v -3.76864 h -10.91198 v -16.84112 h -4.13117 v 20.60969 z m 52.48009,0 v -3.70976 h -11.31085 v -4.88744 h 7.37913 v -3.59198 h -7.37913 v -4.71078 h 11.1969 v -3.70975 h -15.32806 v 20.60969 z m 45.81324,0.29442 c 1.55752,0 3.07227,-0.3435 4.54429,-1.03049 1.47202,-0.68699 2.68289,-1.60953 3.63259,-2.76759 v 0 l -2.70664,-2.76759 c -0.70277,0.84402 -1.51001,1.49175 -2.42171,1.9432 -0.91171,0.45147 -1.88989,0.67718 -2.93455,0.67718 -0.93071,0 -1.79019,-0.17174 -2.57843,-0.51524 -0.78824,-0.3435 -1.47202,-0.80967 -2.05133,-1.39852 -0.57933,-0.58885 -1.03518,-1.29055 -1.36757,-2.10513 -0.3324,-0.81457 -0.4986,-1.69294 -0.4986,-2.63509 0,-0.96179 0.16138,-1.84997 0.48435,-2.66454 0.32291,-0.81459 0.76925,-1.52119 1.33908,-2.11986 0.56981,-0.59867 1.24885,-1.06974 2.03708,-1.41323 0.78826,-0.34351 1.62874,-0.51525 2.52144,-0.51525 1.06367,0 2.07035,0.24045 3.02004,0.72134 0.9497,0.48089 1.77591,1.17279 2.47868,2.07569 v 0 l 2.79212,-2.85591 c -0.93069,-1.1777 -2.14631,-2.11495 -3.64681,-2.81176 -1.50053,-0.69679 -3.04853,-1.0452 -4.64403,-1.0452 -1.48152,0 -2.87281,0.27479 -4.17389,0.82439 -1.30109,0.54958 -2.42646,1.29546 -3.37617,2.23763 -0.94968,0.94214 -1.69995,2.06586 -2.25078,3.37114 -0.55081,1.30528 -0.82622,2.7038 -0.82622,4.19556 0,1.49175 0.27066,2.88535 0.81199,4.18082 0.54133,1.29547 1.28681,2.41427 2.23653,3.35644 0.9497,0.94216 2.07508,1.68802 3.37616,2.23761 1.30108,0.54959 2.70186,0.8244 4.20238,0.8244 z m 54.64541,-0.29442 v -16.84114 h 6.69533 v -3.76863 h -17.55034 v 3.76863 h 6.72382 v 16.84106 z m 47.32325,0 v -20.60976 h -4.13116 v 20.60969 z m 47.57966,0.32386 c 1.48154,0 2.86809,-0.27479 4.15968,-0.82439 1.29157,-0.54959 2.40746,-1.30037 3.34766,-2.25234 0.9402,-0.95198 1.68571,-2.0806 2.23654,-3.38588 0.5508,-1.30529 0.82622,-2.69399 0.82622,-4.1661 0,-1.47213 -0.27542,-2.86084 -0.82622,-4.16611 -0.55083,-1.30529 -1.29634,-2.43391 -2.23654,-3.38587 -0.9402,-0.95197 -2.05609,-1.70277 -3.34766,-2.25235 -1.29159,-0.5496 -2.67814,-0.82439 -4.15968,-0.82439 -1.46252,0 -2.83959,0.27479 -4.13115,0.82439 -1.29159,0.54958 -2.40747,1.30038 -3.34767,2.25235 -0.9402,0.95196 -1.68571,2.08058 -2.23654,3.38587 -0.55083,1.30527 -0.82625,2.69398 -0.82625,4.16611 0,1.47211 0.27542,2.86081 0.82625,4.1661 0.55083,1.30528 1.29634,2.4339 2.23654,3.38588 0.9402,0.95197 2.05608,1.70275 3.34767,2.25234 1.29156,0.5496 2.66863,0.82439 4.13115,0.82439 z m 0,-3.91584 c -0.8927,0 -1.7237,-0.17175 -2.49294,-0.51526 -0.76925,-0.34348 -1.43403,-0.81456 -1.99436,-1.41321 -0.56031,-0.59868 -1.00192,-1.3102 -1.32482,-2.13459 -0.32289,-0.82439 -0.48435,-1.70766 -0.48435,-2.64981 0,-0.96179 0.16138,-1.84997 0.48435,-2.66454 0.3229,-0.81459 0.76451,-1.52119 1.32482,-2.11986 0.56033,-0.59867 1.22511,-1.06974 1.99436,-1.41323 0.76924,-0.34351 1.60024,-0.51525 2.49294,-0.51525 0.89272,0 1.72846,0.17174 2.5072,0.51525 0.77876,0.34349 1.44826,0.81456 2.0086,1.41323 0.56032,0.59867 1.00193,1.30527 1.32482,2.11986 0.3229,0.81457 0.48435,1.70275 0.48435,2.66454 0,0.94215 -0.16137,1.82542 -0.48435,2.64981 -0.32289,0.82439 -0.7645,1.53591 -1.32482,2.13459 -0.56034,0.59865 -1.22984,1.06973 -2.0086,1.41321 -0.77874,0.34351 -1.61448,0.51526 -2.5072,0.51526 z m 51.48292,3.59198 v -13.77906 l 10.17123,13.77906 h 3.64683 v -20.60976 h -3.87476 v 13.33742 l -9.9148,-13.33742 h -3.93174 v 20.60969 z"
     id="COLLECTION"
     inkscape:connector-curvature="0"
     style="fill:#ffffff;fill-rule:nonzero;stroke:none;stroke-width:1.77145267" /></svg>