<?xml version="1.0" encoding="UTF-8" standalone="no"?>
<!-- Created with Inkscape (http://www.inkscape.org/) -->

<svg
   xmlns:dc="http://purl.org/dc/elements/1.1/"
   xmlns:cc="http://creativecommons.org/ns#"
   xmlns:rdf="http://www.w3.org/1999/02/22-rdf-syntax-ns#"
   xmlns:svg="http://www.w3.org/2000/svg"
   xmlns="http://www.w3.org/2000/svg"
   xmlns:sodipodi="http://sodipodi.sourceforge.net/DTD/sodipodi-0.dtd"
   xmlns:inkscape="http://www.inkscape.org/namespaces/inkscape"
   width="500"
   height="200"
   viewBox="0 0 500 200"
   version="1.1"
   id="svg8"
   sodipodi:docname="residentevil.svg"
   inkscape:version="0.92.5 (2060ec1f9f, 2020-04-08)">
  <defs
     id="defs2" />
  <sodipodi:namedview
     id="base"
     pagecolor="#ffffff"
     bordercolor="#666666"
     borderopacity="1.0"
     inkscape:pageopacity="0.0"
     inkscape:pageshadow="2"
     inkscape:zoom="1.4838448"
     inkscape:cx="333.58424"
     inkscape:cy="133.75382"
     inkscape:document-units="mm"
     inkscape:current-layer="layer1"
     showgrid="false"
     units="px"
     inkscape:pagecheckerboard="true"
     inkscape:window-width="1366"
     inkscape:window-height="743"
     inkscape:window-x="0"
     inkscape:window-y="0"
     inkscape:window-maximized="1" />
  <metadata
     id="metadata5">
    <rdf:RDF>
      <cc:Work
         rdf:about="">
        <dc:format>image/svg+xml</dc:format>
        <dc:type
           rdf:resource="http://purl.org/dc/dcmitype/StillImage" />
        <dc:title />
      </cc:Work>
    </rdf:RDF>
  </metadata>
  <g
     inkscape:label="Layer 1"
     inkscape:groupmode="layer"
     id="layer1"
     transform="translate(-4.6112195,-250.43682)">
    <g
       id="#ffffffff"
       transform="matrix(0.46666539,0,0,0.46666539,10.966135,266.35309)" />
    <g
       id="#fe0000ff"
       transform="matrix(0.46666539,0,0,0.46666539,10.966135,266.35309)"
       style="fill:#ffffff">
      <path
         style="opacity:1;fill:#ffffff"
         inkscape:connector-curvature="0"
         d="m 213.15,33.06 c 11.68,-3.08 23.88,-2.04 35.83,-2.21 7.53,0.23 15.83,0.36 22.19,4.96 6.19,5.19 8.76,13.25 10.84,20.77 1.63,20.54 0.96,41.18 1.01,61.76 -4.28,0.08 -8.6,0.31 -12.82,-0.49 -5.96,-1.62 -11.85,1.03 -17.81,1.31 -2.61,0.28 -5.24,0.32 -7.86,0.43 -0.13,-10.07 0.11,-20.13 -0.17,-30.2 0.09,-5.43 1.32,-11.85 -2.43,-16.38 -2.09,-2.8 -5.98,-0.75 -7.04,1.9 -2.18,5.28 -0.42,11.38 -3.1,16.55 3.23,7.07 0.63,14.98 2.45,22.32 0.97,4.13 4.38,6.98 7.58,9.46 3.51,2.71 7.04,5.4 10.62,8.02 1.57,1.15 3.14,2.31 4.66,3.53 6.62,5.72 14.01,10.88 18.84,18.33 2.95,4.37 4.27,9.53 5.89,14.48 1.41,13.41 1.24,26.93 1.25,40.4 -0.04,14.34 0.21,28.7 -0.5,43.03 -0.34,5.7 -1.03,11.6 -3.9,16.66 -2.2,3.71 -3.74,8.01 -7.19,10.79 -4,3.12 -9.13,4.25 -14.06,4.84 -12.9,1.13 -25.93,1.51 -38.81,-0.07 -4.17,-0.55 -8.12,-2.1 -11.78,-4.12 -7.72,-6.28 -10.16,-16.63 -10.87,-26.11 -0.8,-11.99 -0.44,-24.02 -0.53,-36.02 0.13,-5.5 -0.55,-11.12 1,-16.48 1.08,-2.66 -1.22,-4.94 -1.39,-7.51 -0.29,-4.5 0.03,-9.01 0.48,-13.48 11.39,-0.15 22.78,0.18 34.16,-0.19 1.34,0.16 3.16,-0.24 3.95,1.2 -0.09,4.92 -0.14,9.84 -0.13,14.77 0.04,11.56 -0.06,23.13 0.02,34.69 0.24,3.7 0.17,7.87 2.58,10.93 1.69,1.97 4.29,1.14 6.24,0.13 2.56,-4.24 2.16,-9.33 2.18,-14.07 -0.12,-12.14 0.19,-24.28 -0.28,-36.42 -0.09,-4.01 -0.22,-8.53 -3.22,-11.57 -3.77,-3.96 -8.81,-6.43 -12.54,-10.45 -2.87,-3.31 -7.07,-4.88 -10.47,-7.53 -3.79,-2.91 -7.31,-6.16 -11.06,-9.12 -7.12,-6.6 -10.1,-16.39 -10.86,-25.82 -1.09,-14.33 -0.52,-28.72 -0.66,-43.08 0.1,-10.49 -0.28,-21.14 2.05,-31.44 1.82,-8.15 7.23,-16.24 15.66,-18.5 z"
         id="path1698" />
      <path
         style="opacity:1;fill:#ffffff"
         inkscape:connector-curvature="0"
         d="m 16.85,32.11 c 17.71,0.2 35.43,-0.36 53.13,0.53 7.87,0.14 16.34,0.75 22.99,5.42 4.83,3.45 7.17,9.18 8.91,14.64 2.12,9.27 2.39,18.83 2.38,28.3 -0.1,12.66 0.14,25.33 -0.13,37.99 -0.66,10.33 -0.76,21.2 -5.5,30.66 -2.16,4.53 -6.43,7.43 -10.7,9.75 6.02,3.38 10.62,8.81 12.92,15.32 0.3,0.67 0.56,1.36 0.78,2.06 2.83,11.16 2.52,22.79 2.62,34.22 -0.02,24.13 0.02,48.26 -0.02,72.39 -8.29,0.05 -16.59,0.07 -24.87,-0.05 -0.04,0.32 -0.11,0.97 -0.14,1.3 -3.62,-0.27 -7.24,-0.16 -10.86,-0.26 -0.52,-0.24 -1.55,-0.73 -2.07,-0.97 -0.15,-20.13 0.02,-40.27 -0.09,-60.41 -0.11,-6.01 0.91,-12.04 -0.04,-18.02 -0.96,-6.27 -1.25,-12.99 -4.68,-18.52 -1.31,-2.23 -3.98,-2.9 -6.18,-3.92 -0.33,4.15 -0.46,8.31 -0.43,12.46 0.08,29.47 -0.06,58.93 0.07,88.4 -7.87,0.04 -15.74,0.06 -23.61,-0.07 -0.05,0.33 -0.15,0.99 -0.2,1.32 -4.68,-0.35 -9.37,-0.2 -14.06,-0.13 -1.21,-15.47 0.86,-31.14 -1.32,-46.53 0,-2.83 3.34,-4.29 3.51,-7.03 -0.33,-3.11 -2.9,-5.64 -2.55,-8.9 C 16.83,158.75 16.56,95.43 16.85,32.11 M 55.09,73.1 c -0.34,21.39 -0.31,42.81 -0.01,64.21 3.35,-0.29 8.18,0.35 9.66,-3.55 1.46,-4.4 1.31,-9.17 1.5,-13.76 -0.05,-13.61 0.28,-27.23 -0.75,-40.81 -0.22,-2.12 -1.05,-4.55 -3.15,-5.46 -2.36,-0.62 -4.83,-0.49 -7.25,-0.63 z"
         id="path1700" />
      <path
         style="opacity:1;fill:#ffffff"
         inkscape:connector-curvature="0"
         d="m 122.75,32.79 c 1.95,-0.87 4.14,-0.61 6.22,-0.68 6.04,0.15 12.13,-0.35 18.13,0.61 11.32,-1.22 22.75,-0.28 34.12,-0.59 0.12,5.57 0.49,11.14 0.47,16.72 0.11,7.83 -0.1,15.66 -0.08,23.49 -7.09,0.1 -14.18,0.17 -21.27,0.03 -0.02,7.38 0.39,14.81 -0.57,22.16 -0.46,3.82 0.52,7.62 0.56,11.44 0.16,6.1 0,12.21 -0.01,18.31 3.42,0.04 6.83,0.06 10.24,0.19 3.6,0.16 7.21,0.06 10.81,0.07 -0.05,5.41 -0.14,10.82 0.08,16.23 0.23,8.27 0.02,16.54 0.14,24.81 -7.1,-0.17 -14.19,-0.08 -21.28,0.01 0.11,25.29 0.05,50.58 0.03,75.87 3.43,-0.03 6.89,0.04 10.26,0.75 3.56,0.41 7.11,-0.89 10.72,-0.56 0.05,5.54 -0.11,11.08 0.12,16.62 0.25,8.37 0.1,16.76 0.08,25.14 -16.01,0.02 -32.01,0.06 -48.02,-0.05 -0.01,0.3 -0.04,0.89 -0.05,1.18 -3.72,-0.14 -7.44,-0.08 -11.16,-0.1 -1.11,-18.13 0.28,-36.32 -0.39,-54.44 0.03,-40.67 0,-81.33 0.01,-122 0.02,-6.79 -0.14,-13.59 0.31,-20.37 -0.62,-15.87 -0.16,-31.76 -0.33,-47.64 0.14,-2.39 -0.3,-5.01 0.86,-7.2 z"
         id="path1702" />
      <path
         style="opacity:1;fill:#ffffff"
         inkscape:connector-curvature="0"
         d="m 299.76,32.15 c 12.67,0.07 25.34,-0.25 38.01,-0.01 0.22,5.54 -0.01,11.09 0.18,16.63 0.46,30.4 0.07,60.82 0.2,91.23 -0.09,47.79 0.17,95.59 -0.13,143.38 -10.55,0.07 -21.11,0.1 -31.66,-0.06 -0.04,0.32 -0.11,0.97 -0.15,1.3 -2.06,-0.14 -4.12,-0.17 -6.18,-0.17 -0.18,-1.8 -0.31,-3.61 -0.32,-5.41 0.02,-69.03 -0.01,-138.06 0.02,-207.09 -0.09,-3.94 2.42,-7.76 0.93,-11.68 -1.43,-4.28 -0.88,-8.83 -0.93,-13.26 0.18,-4.95 -0.21,-9.91 0.03,-14.86 z"
         id="path1704" />
      <path
         style="opacity:1;fill:#ffffff"
         inkscape:connector-curvature="0"
         d="m 357,32.16 c 20.66,0.17 41.36,-0.59 62.01,0.77 6.38,0.46 13.49,2.22 17.12,8.01 6.37,8.23 7.46,18.88 8.32,28.9 1.03,27.71 0.51,55.44 0.63,83.16 -0.15,30.69 0.41,61.38 -0.48,92.06 -0.35,10.4 -1.63,21.7 -8.6,29.95 -5.89,6.8 -15.52,7.75 -23.95,7.81 -16.37,1.09 -32.79,0.16 -49.15,0.86 -0.33,0.11 -1,0.34 -1.33,0.45 -1.4,0.49 -2.91,0.28 -4.36,0.35 -0.78,-24.16 0.02,-48.36 -0.26,-72.54 -0.3,-2.61 0.69,-4.98 1.86,-7.23 1.5,-3.75 -2.34,-6.88 -1.85,-10.63 0.07,-31.04 -0.14,-62.08 -0.05,-93.13 -0.25,-1.98 0.73,-3.62 1.98,-5.05 -0.98,-1.48 -2.31,-2.93 -2.08,-4.85 -0.09,-19.63 -0.09,-39.26 0.19,-58.89 m 38.33,41.18 c -0.13,56.26 0,112.53 -0.07,168.8 1.23,0.11 2.45,0.23 3.69,0.36 2.27,-0.49 5.13,-0.96 5.99,-3.51 1.58,-5.06 0.58,-10.48 1.42,-15.67 0.49,-2.76 -0.28,-5.51 -0.3,-8.27 -0.12,-41.76 0.13,-83.53 -0.13,-125.29 0.24,-4.53 0.44,-9.31 -1.17,-13.62 -1.59,-3.77 -6.2,-2.68 -9.43,-2.8 z"
         id="path1706" />
      <path
         style="opacity:1;fill:#ffffff"
         inkscape:connector-curvature="0"
         d="m 462.73,32.16 c 11.74,0.07 23.49,-0.27 35.23,-0.02 2.25,-0.03 4.21,2.47 6.45,1.27 5.51,-2.37 11.67,-0.86 17.48,-1.27 0.02,6.34 -0.11,12.69 0.37,19.03 0.39,7.06 -0.53,14.13 -0.04,21.19 -7.01,0.1 -14.02,0.11 -21.02,0.02 -0.7,12.53 -0.27,25.08 -0.41,37.62 0.01,4.81 -0.41,9.72 0.85,14.43 6.75,0.34 13.52,0.01 20.28,0.14 -0.04,5.14 -0.06,10.27 0.17,15.4 0.16,8.49 0.04,16.99 0.03,25.48 -6.97,0.08 -13.94,0.13 -20.9,-0.02 -0.75,14.18 -0.29,28.38 -0.42,42.57 0.12,11.17 -0.25,22.36 0.19,33.52 l 0.83,0.09 c 6.69,0.29 13.4,0.04 20.1,0.1 -0.06,5.08 -0.04,10.16 0.2,15.23 0.1,8.81 0.02,17.62 0,26.43 -19.39,0.24 -38.78,-0.22 -58.17,0.24 l -1.2,0.06 c -0.36,-13.22 -0.05,-26.46 -0.17,-39.69 -0.15,-2.78 0.55,-5.47 1.13,-8.16 0.2,-2.97 -1.18,-5.81 -1.1,-8.79 -0.04,-62.01 0,-124.02 -0.02,-186.03 -0.01,-2.95 0.02,-5.89 0.14,-8.84 z"
         id="path1708" />
      <path
         style="opacity:1;fill:#ffffff"
         inkscape:connector-curvature="0"
         d="m 538.27,32.22 c 12.34,-0.19 24.7,0.01 37.05,-0.11 3.48,24.03 6.72,48.1 10.15,72.14 1.95,12.7 3.15,25.54 5.75,38.13 0.28,4.8 1.11,9.53 1.69,14.29 0.1,0 0.31,0.01 0.41,0.01 -0.19,-28.28 0.1,-56.57 -0.15,-84.85 -0.06,-1.07 -0.1,-2.15 -0.12,-3.23 0.02,-4.1 0.35,-8.2 1.36,-12.18 0.8,-2.75 -0.55,-5.42 -1.14,-8.05 -0.25,-5.16 -0.05,-10.34 0.19,-15.5 1.46,-0.38 2.93,-0.84 4.48,-0.83 9.4,0.15 18.8,0.12 28.2,0.06 0.01,82.32 0,164.64 0.01,246.96 -0.04,1.83 -0.33,3.64 -0.67,5.43 -0.45,-0.14 -1.35,-0.41 -1.8,-0.55 -2.85,-0.65 -5.79,-0.53 -8.69,-0.56 -9.29,0.07 -18.59,0.09 -27.88,-0.03 -5.37,-39.19 -10.93,-78.37 -16.42,-117.54 -0.41,8.29 -0.32,16.6 -0.03,24.89 -0.98,30.93 -0.13,61.88 -0.49,92.82 l -0.84,-0.02 c -10.32,-0.17 -20.63,-0.02 -30.95,-0.1 -0.23,-17.9 0.1,-35.79 -0.17,-53.69 0.08,-4.7 -0.22,-9.42 0.09,-14.11 0.92,-2.47 2.36,-4.88 2.29,-7.58 -0.31,-2.36 -1.47,-4.49 -2.32,-6.68 -0.54,-38.14 -0.02,-76.35 -0.21,-114.5 0.11,-0.73 0.32,-2.17 0.43,-2.89 0.92,-2.21 0.97,-4.67 0,-6.88 -1.15,-7.94 0.07,-16.06 -0.42,-24.07 -0.42,-4.56 1.19,-9.05 0.51,-13.59 -0.34,-2.39 -0.37,-4.79 -0.31,-7.19 z"
         id="path1710" />
      <path
         style="opacity:1;fill:#ffffff"
         inkscape:connector-curvature="0"
         d="m 636.85,32.11 c 14.4,0.07 28.81,0.01 43.22,0.02 2.36,-0.08 4.62,0.7 6.85,1.42 1.33,-0.51 2.63,-1.27 4.1,-1.37 7.38,-0.38 14.78,0 22.17,0.09 0.18,11.58 -0.07,23.17 -0.03,34.75 -0.08,2.18 0.19,4.58 -1.14,6.46 -1.25,0.01 -2.49,-0.08 -3.71,-0.28 -4.6,-0.73 -9.27,-0.7 -13.9,-0.42 -0.04,5.39 0.05,10.79 -0.15,16.17 -0.28,56.35 -0.04,112.7 -0.12,169.05 -0.22,8.77 0.5,17.58 -0.49,26.31 -1.37,0.12 -2.74,0.24 -4.09,0.39 -0.02,-0.34 -0.05,-1 -0.07,-1.33 -11.21,0.06 -22.42,0.09 -33.63,0.02 -0.04,-70.18 -0.05,-140.37 0.01,-210.56 -6.41,-0.01 -12.82,-0.07 -19.23,0.02 -0.04,-8 -0.12,-16.01 0,-24.02 0.15,-5.57 -0.05,-11.15 0.21,-16.72 z"
         id="path1712" />
      <path
         style="opacity:1;fill:#ffffff"
         inkscape:connector-curvature="0"
         d="m 744.05,32.19 c 19.72,-0.12 39.44,0.01 59.16,-0.07 0,5.57 -0.14,11.15 0.11,16.73 0.19,5.86 0.24,11.73 0.63,17.59 -0.39,2.11 -0.64,4.23 -0.89,6.36 -2.34,0.61 -4.8,0.9 -7.19,0.55 -0.25,-0.21 -0.75,-0.62 -1,-0.82 -4.19,-0.28 -8.38,-0.06 -12.56,-0.15 0,5.45 0.07,10.91 -0.14,16.36 -0.16,11.93 -0.13,23.87 -0.03,35.8 7.02,0.04 14.04,0.02 21.06,0 -0.01,9.15 -0.02,18.31 -0.01,27.46 -0.03,4.79 0.27,9.62 -0.52,14.37 -2.35,0.05 -4.7,0.07 -7.03,0.23 -0.03,-0.29 -0.09,-0.88 -0.12,-1.17 -4.41,0.03 -8.81,0.11 -13.21,0.02 0,5.24 0.07,10.48 -0.11,15.71 -0.27,4.63 -0.01,9.27 -0.17,13.89 -0.04,2.39 -1.58,4.39 -1.95,6.71 0.73,1.7 2.1,3.23 1.94,5.2 0.17,11.58 -0.02,23.16 0.08,34.74 7.01,0.1 14.03,-0.1 21.04,0.18 0.14,11.37 -0.02,22.74 0.08,34.11 0.05,2.82 -0.14,5.65 -0.66,8.43 -2.31,0.03 -4.63,0.04 -6.92,0.18 -0.03,-0.31 -0.08,-0.93 -0.11,-1.23 -5.05,0 -10.42,0.78 -15.01,-1.84 -3.05,1.1 -6.2,2.09 -9.48,1.95 -9.09,-0.07 -18.17,-0.04 -27.26,-0.1 -0.01,-60.48 0.03,-120.97 -0.02,-181.45 -0.08,-3.37 1.38,-6.44 2.42,-9.56 1.67,-4.32 -2.63,-7.97 -2.38,-12.29 -0.09,-10.41 0,-20.84 0.02,-31.26 0.15,-5.54 -0.08,-11.09 0.23,-16.63 z"
         id="path1714" />
      <path
         style="opacity:1;fill:#ffffff"
         inkscape:connector-curvature="0"
         d="m 811.07,32.18 c 12.02,-0.06 24.05,-0.07 36.08,0 0.65,15.7 1.58,31.39 2.24,47.08 0.18,4.33 0.82,8.71 -0.04,13.02 -0.58,2.33 0.73,4.5 1.03,6.77 0.4,3.2 0.29,6.44 0.36,9.66 0.18,-0.14 0.52,-0.43 0.69,-0.57 -0.01,18.29 1.74,36.53 2.27,54.8 0.98,10.39 0.53,20.87 1.76,31.24 2.73,-48.42 5.14,-96.86 7.74,-145.29 0.45,-5.56 0.74,-11.12 0.94,-16.69 11.99,-0.13 23.99,-0.04 35.99,-0.05 -7.96,78.57 -15.7,157.18 -23.77,235.74 -0.58,5.53 -0.93,11.09 -1.96,16.56 -2.62,0 -5.23,-0.01 -7.83,0.09 0,-0.29 0.01,-0.87 0.01,-1.17 -11.57,0.05 -23.14,0.11 -34.71,0 -3.35,-42.66 -7.1,-85.29 -10.65,-127.94 -0.4,-4.78 -1.05,-9.55 -0.94,-14.35 0.03,-3.17 1.31,-6.4 0.28,-9.53 -0.99,-3.01 -2.01,-6.05 -2.21,-9.24 -1.94,-24.5 -4.11,-48.98 -6.17,-73.48 -0.47,-5.54 -1.15,-11.08 -1.11,-16.65 z"
         id="path1716" />
      <path
         style="opacity:1;fill:#ffffff"
         inkscape:connector-curvature="0"
         d="m 910.75,32.13 c 12.69,0.04 25.38,-0.02 38.08,0.03 0.06,82.3 -0.01,164.6 0.03,246.9 0.01,1.84 -0.28,3.67 -0.7,5.46 -3.76,-0.09 -7.53,-0.18 -11.27,0.11 -0.07,-0.32 -0.2,-0.97 -0.27,-1.3 -8.69,0.13 -17.37,0.1 -26.06,0.08 -0.12,-18.48 0,-36.96 -0.08,-55.44 -0.26,-4.15 1.76,-7.93 2.2,-11.96 -0.51,-3.7 -2.33,-7.17 -2.19,-10.97 0.05,-52.07 -0.01,-104.14 0.04,-156.21 0.11,-5.57 -0.1,-11.14 0.22,-16.7 z"
         id="path1718" />
      <path
         style="opacity:1;fill:#ffffff"
         inkscape:connector-curvature="0"
         d="m 967.83,32.17 c 12.68,-0.07 25.37,0 38.06,-0.04 0.01,69.72 0.01,139.44 0,209.15 7.39,0.15 14.78,-0.03 22.18,0.14 1.16,3.41 0.83,7.04 0.85,10.59 -0.06,8.67 -0.07,17.34 -0.01,26.02 -0.02,2.11 0.06,4.29 -0.65,6.32 -4.66,1.48 -8.42,-2.76 -12.99,-1.74 -6.69,1.2 -13.51,0.78 -20.27,0.81 -9.12,0 -18.24,0.03 -27.35,-0.03 0,-78.19 -0.08,-156.37 0.04,-234.56 0.14,-5.55 0.01,-11.1 0.14,-16.66 z"
         id="path1720" />
    </g>
    <path
       d="m 18.57971,448.77378 c 1.557506,0 3.072272,-0.3435 4.544298,-1.03048 1.47201,-0.687 2.682883,-1.60952 3.632573,-2.76759 v 0 l -2.706626,-2.76758 c -0.702773,0.844 -1.510022,1.49175 -2.421716,1.9432 -0.91171,0.45144 -1.889888,0.67716 -2.934547,0.67716 -0.930706,0 -1.790186,-0.17173 -2.578422,-0.51523 -0.788251,-0.34349 -1.472026,-0.80967 -2.05134,-1.39851 -0.579328,-0.58885 -1.035168,-1.29058 -1.367565,-2.10514 -0.332396,-0.81459 -0.498594,-1.69294 -0.498594,-2.6351 0,-0.9618 0.161376,-1.84997 0.484358,-2.66454 0.32289,-0.81458 0.769239,-1.52119 1.339061,-2.11986 0.569808,-0.59866 1.248853,-1.06974 2.037089,-1.41324 0.788251,-0.34348 1.628733,-0.51524 2.521431,-0.51524 1.063671,0 2.070337,0.24045 3.020041,0.72134 0.949704,0.4809 1.77592,1.1728 2.478692,2.0757 v 0 l 2.792106,-2.85593 c -0.930693,-1.17768 -2.14631,-2.11493 -3.646825,-2.81174 -1.500515,-0.6968 -3.048515,-1.0452 -4.644014,-1.0452 -1.481517,0 -2.872809,0.27479 -4.173892,0.82438 -1.301083,0.5496 -2.426461,1.29548 -3.376165,2.23763 -0.949689,0.94215 -1.6999465,2.06587 -2.2507715,3.37115 -0.550825,1.30528 -0.826231,2.7038 -0.826231,4.19555 0,1.49174 0.27066,2.88536 0.811979,4.18083 0.541335,1.29546 1.2868305,2.41428 2.2365195,3.35644 0.949705,0.94214 2.075083,1.68802 3.376181,2.23761 1.301083,0.5496 2.701881,0.82439 4.20238,0.82439 z m 53.990103,0.0295 c 1.48154,0 2.8681,-0.27479 4.15968,-0.82439 1.29159,-0.54959 2.40747,-1.30037 3.34767,-2.25234 0.9402,-0.95198 1.6857,-2.0806 2.23652,-3.38588 0.55083,-1.30529 0.82623,-2.69399 0.82623,-4.1661 0,-1.47213 -0.2754,-2.86084 -0.82623,-4.16611 -0.55082,-1.30529 -1.29632,-2.43391 -2.23652,-3.38587 -0.9402,-0.95197 -2.05608,-1.70277 -3.34767,-2.25235 -1.29158,-0.5496 -2.67814,-0.82439 -4.15968,-0.82439 -1.46253,0 -2.83956,0.27479 -4.13117,0.82439 -1.29159,0.54958 -2.40746,1.30038 -3.34766,2.25235 -0.94019,0.95196 -1.68571,2.08058 -2.23652,3.38587 -0.55084,1.30527 -0.82624,2.69398 -0.82624,4.16611 0,1.47211 0.2754,2.86081 0.82624,4.1661 0.55081,1.30528 1.29633,2.4339 2.23652,3.38588 0.9402,0.95197 2.05607,1.70275 3.34766,2.25234 1.29161,0.5496 2.66864,0.82439 4.13117,0.82439 z m 0,-3.91584 c -0.89271,0 -1.72369,-0.17175 -2.49292,-0.51526 -0.76926,-0.34348 -1.43405,-0.81456 -1.99438,-1.41321 -0.5603,-0.59868 -1.00191,-1.3102 -1.32481,-2.13459 -0.32291,-0.82439 -0.48436,-1.70766 -0.48436,-2.64981 0,-0.96179 0.16139,-1.84997 0.48436,-2.66454 0.3229,-0.81459 0.76451,-1.52119 1.32481,-2.11986 0.56033,-0.59867 1.22512,-1.06974 1.99438,-1.41323 0.76923,-0.34351 1.60021,-0.51525 2.49292,-0.51525 0.89273,0 1.72847,0.17174 2.50721,0.51525 0.77875,0.34349 1.44827,0.81456 2.0086,1.41323 0.5603,0.59867 1.00194,1.30527 1.32481,2.11986 0.32291,0.81457 0.48436,1.70275 0.48436,2.66454 0,0.94215 -0.16139,1.82542 -0.48436,2.64981 -0.32287,0.82439 -0.76451,1.53591 -1.32481,2.13459 -0.56033,0.59865 -1.22985,1.06973 -2.0086,1.41321 -0.77874,0.34351 -1.61448,0.51526 -2.50721,0.51526 z m 62.622837,3.59198 v -3.76864 h -10.91198 v -16.84112 h -4.13118 v 20.60969 z m 52.08122,0 v -3.76864 h -10.91198 v -16.84112 h -4.13117 v 20.60969 z m 52.48009,0 v -3.70976 h -11.31085 v -4.88744 h 7.37913 v -3.59198 h -7.37913 v -4.71078 h 11.1969 v -3.70975 h -15.32806 v 20.60969 z m 45.81324,0.29442 c 1.55752,0 3.07227,-0.3435 4.54429,-1.03049 1.47202,-0.68699 2.68289,-1.60953 3.63259,-2.76759 v 0 l -2.70664,-2.76759 c -0.70277,0.84402 -1.51001,1.49175 -2.42171,1.9432 -0.91171,0.45147 -1.88989,0.67718 -2.93455,0.67718 -0.93071,0 -1.79019,-0.17174 -2.57843,-0.51524 -0.78824,-0.3435 -1.47202,-0.80967 -2.05133,-1.39852 -0.57933,-0.58885 -1.03518,-1.29055 -1.36757,-2.10513 -0.3324,-0.81457 -0.4986,-1.69294 -0.4986,-2.63509 0,-0.96179 0.16138,-1.84997 0.48435,-2.66454 0.32291,-0.81459 0.76925,-1.52119 1.33908,-2.11986 0.56981,-0.59867 1.24885,-1.06974 2.03708,-1.41323 0.78826,-0.34351 1.62874,-0.51525 2.52144,-0.51525 1.06367,0 2.07035,0.24045 3.02004,0.72134 0.9497,0.48089 1.77591,1.17279 2.47868,2.07569 v 0 l 2.79212,-2.85591 c -0.93069,-1.1777 -2.14631,-2.11495 -3.64681,-2.81176 -1.50053,-0.69679 -3.04853,-1.0452 -4.64403,-1.0452 -1.48152,0 -2.87281,0.27479 -4.17389,0.82439 -1.30109,0.54958 -2.42646,1.29546 -3.37617,2.23763 -0.94968,0.94214 -1.69995,2.06586 -2.25078,3.37114 -0.55081,1.30528 -0.82622,2.7038 -0.82622,4.19556 0,1.49175 0.27066,2.88535 0.81199,4.18082 0.54133,1.29547 1.28681,2.41427 2.23653,3.35644 0.9497,0.94216 2.07508,1.68802 3.37616,2.23761 1.30108,0.54959 2.70186,0.8244 4.20238,0.8244 z m 54.64541,-0.29442 v -16.84114 h 6.69533 v -3.76863 H 329.3576 v 3.76863 h 6.72382 v 16.84106 z m 47.32325,0 v -20.60976 h -4.13116 v 20.60969 z m 47.57966,0.32386 c 1.48154,0 2.86809,-0.27479 4.15968,-0.82439 1.29157,-0.54959 2.40746,-1.30037 3.34766,-2.25234 0.9402,-0.95198 1.68571,-2.0806 2.23654,-3.38588 0.5508,-1.30529 0.82622,-2.69399 0.82622,-4.1661 0,-1.47213 -0.27542,-2.86084 -0.82622,-4.16611 -0.55083,-1.30529 -1.29634,-2.43391 -2.23654,-3.38587 -0.9402,-0.95197 -2.05609,-1.70277 -3.34766,-2.25235 -1.29159,-0.5496 -2.67814,-0.82439 -4.15968,-0.82439 -1.46252,0 -2.83959,0.27479 -4.13115,0.82439 -1.29159,0.54958 -2.40747,1.30038 -3.34767,2.25235 -0.9402,0.95196 -1.68571,2.08058 -2.23654,3.38587 -0.55083,1.30527 -0.82625,2.69398 -0.82625,4.16611 0,1.47211 0.27542,2.86081 0.82625,4.1661 0.55083,1.30528 1.29634,2.4339 2.23654,3.38588 0.9402,0.95197 2.05608,1.70275 3.34767,2.25234 1.29156,0.5496 2.66863,0.82439 4.13115,0.82439 z m 0,-3.91584 c -0.8927,0 -1.7237,-0.17175 -2.49294,-0.51526 -0.76925,-0.34348 -1.43403,-0.81456 -1.99436,-1.41321 -0.56031,-0.59868 -1.00192,-1.3102 -1.32482,-2.13459 -0.32289,-0.82439 -0.48435,-1.70766 -0.48435,-2.64981 0,-0.96179 0.16138,-1.84997 0.48435,-2.66454 0.3229,-0.81459 0.76451,-1.52119 1.32482,-2.11986 0.56033,-0.59867 1.22511,-1.06974 1.99436,-1.41323 0.76924,-0.34351 1.60024,-0.51525 2.49294,-0.51525 0.89272,0 1.72846,0.17174 2.5072,0.51525 0.77876,0.34349 1.44826,0.81456 2.0086,1.41323 0.56032,0.59867 1.00193,1.30527 1.32482,2.11986 0.3229,0.81457 0.48435,1.70275 0.48435,2.66454 0,0.94215 -0.16137,1.82542 -0.48435,2.64981 -0.32289,0.82439 -0.7645,1.53591 -1.32482,2.13459 -0.56034,0.59865 -1.22984,1.06973 -2.0086,1.41321 -0.77874,0.34351 -1.61448,0.51526 -2.5072,0.51526 z m 51.48292,3.59198 v -13.77906 l 10.17123,13.77906 h 3.64683 v -20.60976 h -3.87476 v 13.33742 l -9.9148,-13.33742 h -3.93174 v 20.60969 z"
       id="COLLECTION"
       inkscape:connector-curvature="0"
       style="fill:#ffffff;fill-rule:nonzero;stroke:none;stroke-width:1.77145267" />
  </g>
</svg>
