<?xml version="1.0" encoding="UTF-8" standalone="no"?>
<svg
   xmlns:dc="http://purl.org/dc/elements/1.1/"
   xmlns:cc="http://creativecommons.org/ns#"
   xmlns:rdf="http://www.w3.org/1999/02/22-rdf-syntax-ns#"
   xmlns:svg="http://www.w3.org/2000/svg"
   xmlns="http://www.w3.org/2000/svg"
   xmlns:sodipodi="http://sodipodi.sourceforge.net/DTD/sodipodi-0.dtd"
   xmlns:inkscape="http://www.inkscape.org/namespaces/inkscape"
   width="500"
   height="200"
   viewBox="0 0 500 200"
   version="1.1"
   id="svg296"
   sodipodi:docname="segacd.svg"
   inkscape:version="0.92.5 (2060ec1f9f, 2020-04-08)">
  <metadata
     id="metadata302">
    <rdf:RDF>
      <cc:Work
         rdf:about="">
        <dc:format>image/svg+xml</dc:format>
        <dc:type
           rdf:resource="http://purl.org/dc/dcmitype/StillImage" />
        <dc:title>mainlogo</dc:title>
      </cc:Work>
    </rdf:RDF>
  </metadata>
  <defs
     id="defs300" />
  <sodipodi:namedview
     pagecolor="#ffffff"
     bordercolor="#666666"
     borderopacity="1"
     objecttolerance="10"
     gridtolerance="10"
     guidetolerance="10"
     inkscape:pageopacity="0"
     inkscape:pageshadow="2"
     inkscape:window-width="1366"
     inkscape:window-height="743"
     id="namedview298"
     showgrid="false"
     inkscape:pagecheckerboard="true"
     inkscape:zoom="2.2256692"
     inkscape:cx="313.88545"
     inkscape:cy="123.11856"
     inkscape:window-x="0"
     inkscape:window-y="0"
     inkscape:window-maximized="1"
     inkscape:current-layer="svg296"
     showguides="true"
     inkscape:guide-bbox="true">
    <sodipodi:guide
       position="74.021545,138.34228"
       orientation="0,1"
       id="guide299"
       inkscape:locked="false" />
  </sodipodi:namedview>
  <title
     id="title268">mainlogo</title>
  <path
     d="m 314.17135,113.96923 c 6.25231,-0.028 12.50461,-0.028 18.77093,0 0,4.14952 0,8.28501 -0.014,12.4205 -6.23828,0.22431 -12.47657,0.11215 -18.71486,0.14019 -0.07,-4.19297 -0.07,-8.37052 -0.0421,-12.56069 z M 416.56337,90.992712 c 17.21487,-0.01402 34.41571,-0.08411 51.63058,0.01402 3.79905,-0.308409 7.13548,2.242979 8.90183,5.439226 4.0654,6.546692 8.69155,12.742932 12.51862,19.443832 1.44393,3.92521 1.3458,8.85976 -1.48596,12.18218 -4.09344,5.83174 -7.51398,12.11209 -11.71957,17.85972 -2.15887,3.05606 -6.15418,3.49695 -9.61678,3.41283 -16.75225,-0.0561 -33.51852,0.21029 -50.2848,0 0.12617,-19.45784 0.0141,-38.89536 0.0561,-58.351807 z m 21.93914,13.091988 c 0.028,10.87846 -0.042,21.9055 0.028,32.78395 h 18.40645 c 2.00466,-0.19626 4.62615,0.15981 5.73361,-2.02709 3.29438,-4.54203 6.42054,-9.23827 9.21024,-14.10273 -1.13551,-4.20559 -4.21961,-7.51398 -6.44856,-11.17284 -1.78037,-2.28504 -3.53271,-5.66353 -6.89717,-5.45325 -6.68689,-0.11075 -13.35975,0.0435 -20.03261,-0.028 z M 351.3207,95.100169 c 1.73831,-2.467278 4.47194,-4.415866 7.62613,-4.107457 17.41113,-0.05607 34.82225,0 52.23338,-0.01402 0,4.303717 0.0141,8.607434 -0.028,12.911148 -12.77096,0.11215 -25.55594,-0.18224 -38.32692,0.12617 -4.13549,0.0701 -6.12614,4.17755 -8.15884,7.12146 -1.99064,3.3084 -5.28501,7.20557 -2.55138,11.10275 3.14017,4.96259 5.81773,13.42283 12.28032,14.62843 h 36.78486 c 0,4.6682 0.014,7.80767 0,12.47587 -16.94852,-0.014 -33.91105,0.0421 -50.85957,0 -6.92519,-0.014 -9.92518,-7.40814 -13.28965,-12.30063 -2.77569,-5.43923 -8.0607,-9.85509 -8.31304,-16.3317 -0.2243,-3.53269 0.36448,-7.34576 2.55138,-10.24761 3.40654,-5.07475 6.56073,-10.33173 10.05137,-15.364413 z m -103.24715,-4.0654 c 10.79433,-0.140187 21.60269,-0.02804 32.39703,-0.08411 5.78969,-0.574764 9.98126,4.359791 12.81302,8.74762 10.20556,16.696181 20.88775,32.879991 30.96713,49.646241 -7.35977,-0.028 -15.73402,0.0421 -23.09379,0 l -7.78922,-12.47586 h -19.54197 l -5.74764,-7.7593 c 0.18225,6.78501 0.11216,13.45017 0.11216,20.23516 -6.71492,0 -13.41582,0.12617 -20.11672,0 -0.014,-19.45783 -0.014,-38.8519 0,-58.309749 z m 20.52326,12.602741 c -0.11215,7.31772 0.028,15.17332 -0.11215,22.49104 h 17.71954 l -11.24523,-18.45368 c 0,0 -1.6909,-2.80646 -3.06317,-3.55972 -0.97405,-0.53466 -3.29899,-0.47764 -3.29899,-0.47764 z m -85.38743,-6.94062 c 1.79438,-2.551389 3.89717,-5.929877 7.49996,-5.70558 16.02329,-0.07009 32.04657,0 48.05584,-0.01402 0.028,4.37381 -0.042,8.74762 -0.21028,13.10741 -10.41583,0.0701 -20.81766,-0.0981 -31.21948,0.0701 -1.97083,0 -3.82085,-0.17617 -4.64602,1.11341 l -7.05952,11.75569 v 19.84476 h 28.35967 v -10.7401 H 210.4756 l 7.10743,-11.98479 h 24.30129 v 35.20076 h -58.22634 c -5.3453,0 -7.94857,-4.42403 -7.94857,-8.90953 0.14019,-10.6121 -0.23831,-21.25223 0.16823,-31.85031 2.0327,-4.19017 4.83642,-7.96118 7.33174,-11.887793 z m -67.31743,2.692978 c 2.69158,-3.462601 5.00465,-8.929863 10.26164,-8.397156 14.91581,-0.04205 30.16807,-0.04205 45.08388,0.01402 v 12.981248 c -11.11676,0.33644 -22.68212,-0.15421 -33.78488,0.23831 l -7.58407,9.91748 h 41.36895 c -2.76166,3.75699 -4.94857,8.12966 -7.57005,11.98478 H 129.7003 c 0.0561,3.65886 0.0701,7.06722 0.0841,10.7401 h 41.45307 v 12.47587 h -62.45296 c -0.028,-11.9018 -0.0421,-23.59965 -0.0141,-35.51547 -0.47663,-5.86119 4.26166,-9.91117 7.12146,-14.439183 z M 33.308247,96.781001 c 1.962608,-2.915873 4.878481,-5.873802 8.677527,-5.747634 7.191553,-0.196261 14.383107,0 21.588679,-0.05607 -0.05607,2.411203 -0.112149,4.822406 -0.196261,7.233609 2.929892,-3.238302 6.084083,-7.345758 10.934526,-7.177534 9.953222,-0.182242 19.906443,0 29.859662,-0.05607 0,19.457848 0.014,38.895368 0,58.367228 -6.728935,0.0141 -13.471893,0 -20.200831,0 -0.02803,-13.92049 0.01402,-27.80663 -0.02803,-41.72712 -3.785028,-0.33645 -5.59343,3.26634 -7.303703,5.97193 -7.31772,11.94387 -15.056,23.60106 -22.009237,35.75519 -7.079405,0.14019 -14.14479,0.14019 -21.224195,0 8.49528,-14.32702 17.607385,-28.24121 26.326969,-42.44208 -4.457923,0.26636 -10.191539,-1.21962 -13.499934,2.63551 -8.411174,13.20554 -16.541974,26.55898 -24.883055,39.80657 -7.12146,-0.028 -14.2289017,0.0421 -21.350362,0 11.08873,-17.53729 22.233535,-35.01221 33.308247,-52.563521 z"
     id="path4895"
     inkscape:connector-curvature="0"
     style="fill:#ffffff;fill-rule:nonzero;stroke:none;stroke-width:1.05659115" />
  <path
     style="fill:#ffffff;fill-rule:nonzero;stroke:none;stroke-width:1.05659115"
     inkscape:connector-curvature="0"
     id="path272"
     d="m 3.3428985,73.12913 18.2466945,-0.0185 c 7.465288,0 13.515224,-6.031434 13.515224,-13.463126 0,-7.4463 -6.049936,-13.478221 -13.515224,-13.478221 l -4.738775,0.0258 c -0.373435,0 -0.676272,-0.306245 -0.676272,-0.683088 0,-0.376843 0.302837,-0.683576 0.676272,-0.683576 l 18.213587,0.0039 0.0073,-5.71399 H 16.846924 c -3.523531,0 -6.390263,2.862351 -6.390263,6.379064 0,3.520122 2.866245,6.371274 6.390263,6.371274 l 4.761171,0.0628 c 4.277215,0 7.738425,3.449524 7.738425,7.705317 0,4.258714 -3.460723,7.716029 -7.738425,7.716029 H 3.3502017 l -0.0073,5.776311" />
  <path
     style="fill:#ffffff;fill-rule:nonzero;stroke:none;stroke-width:1.05659115"
     inkscape:connector-curvature="0"
     id="path274"
     d="M 3.3502017,66.011472 H 21.608095 c 3.534727,0 6.393671,-2.851153 6.393671,-6.375169 0,-3.520122 -2.858944,-6.367867 -6.393671,-6.367867 l -4.761171,-0.05161 c -4.269913,0 -7.7345312,-3.45342 -7.7345312,-7.719924 0,-4.254819 3.4646182,-7.708726 7.7345312,-7.708726 l 18.224784,-0.0039 -0.0073,-5.7359 h -18.2136 c -7.4574971,0 -13.5152227,6.024618 -13.5152227,13.463613 0,7.438997 6.0577256,13.467022 13.5152227,13.467022 l 4.712971,0.0073 c 0.358342,0 0.661179,0.292126 0.661179,0.661179 0,0.362237 -0.302837,0.653876 -0.661179,0.653876 l -18.2208905,0.0146 0.0073,5.695489" />
  <path
     style="fill:#ffffff;fill-rule:nonzero;stroke:none;stroke-width:1.05659115"
     inkscape:connector-curvature="0"
     id="path276"
     d="m 49.251519,67.389335 c -3.165676,0 -5.758784,-2.522998 -5.758784,-5.744177 V 43.417452 c 0,-3.098973 2.593108,-5.647776 5.758784,-5.647776 l 19.476546,0.0034 V 32.048383 H 49.251519 c -6.338167,0 -11.472286,5.115618 -11.472286,11.431876 v 18.165386 c 0,6.316745 5.134119,11.439666 11.472286,11.439666 l 19.395238,0.0078 -0.0039,-5.710582 -19.391343,0.0069" />
  <path
     style="fill:#ffffff;fill-rule:nonzero;stroke:none;stroke-width:1.05659115"
     inkscape:connector-curvature="0"
     id="path278"
     d="m 44.8891,43.480259 c 0,-2.415398 1.943127,-4.373131 4.362419,-4.373131 h 19.476546 v 5.732491 h -16.78022 c -1.344269,0 -1.362769,1.333557 -1.362769,1.333557 h 13.999178 v 5.706687 h -19.70197 l 0.0069,-8.399604" />
  <path
     style="fill:#ffffff;fill-rule:nonzero;stroke:none;stroke-width:1.05659115"
     inkscape:connector-curvature="0"
     id="path280"
     d="m 49.251519,66.000761 c -2.411989,0 -4.369723,-1.946535 -4.369723,-4.355116 v -8.406908 h 19.701972 v 5.718372 h -13.99918 c 0.0185,1.344268 1.362769,1.351084 1.362769,1.351084 H 68.64627 l -0.0039,5.684778 -19.390856,0.0078" />
  <path
     style="fill:#ffffff;fill-rule:nonzero;stroke:none;stroke-width:1.05659115"
     inkscape:connector-curvature="0"
     id="path282"
     d="m 82.376693,67.374728 c -3.154478,0 -5.732492,-2.570711 -5.732492,-5.72957 V 43.479772 c 0,-3.16178 2.559513,-5.710582 5.717399,-5.710582 h 18.86405 V 32.048383 H 82.317781 c -6.335247,0 -11.469365,5.115618 -11.469365,11.431876 v 18.165386 c 0,6.316745 5.178424,11.439666 11.513184,11.439666 l 18.86405,0.0078 V 46.173176 H 85.014106 v 5.706687 H 95.496571 V 67.374728 H 82.376693" />
  <path
     style="fill:#ffffff;fill-rule:nonzero;stroke:none;stroke-width:1.05659115"
     inkscape:connector-curvature="0"
     id="path284"
     d="m 77.988468,61.645158 c 0,2.420267 1.957734,4.388711 4.373132,4.388711 H 94.144513 V 53.231434 h -9.116288 v 5.725675 h 3.38331 l 0.01071,1.344268 H 85.05403 c -0.735184,0 -1.336965,-0.609083 -1.336965,-1.344268 l -0.03019,-12.787828 c 0,0 -0.0039,-1.329662 1.352058,-1.362769 h 16.193047 l -0.007,-5.703279 -18.864056,0.0039 c -2.415398,0 -4.37313,1.957734 -4.37313,4.373132 v 18.164899" />
  <path
     style="fill:#ffffff;fill-rule:nonzero;stroke:none;stroke-width:1.05659115"
     inkscape:connector-curvature="0"
     id="path286"
     d="m 118.95139,39.021924 c 0.25415,-0.727394 0.94503,-1.251761 1.76152,-1.251761 0.81698,0 1.51468,0.524367 1.76202,1.251761 l 9.15718,27.052355 h -13.4086 l 0.0146,-6.36397 h 4.48074 l -2.01714,-5.994919 -6.57089,19.372842 h -6.75932 l 11.57988,-34.066308" />
  <path
     style="fill:#ffffff;fill-rule:nonzero;stroke:none;stroke-width:1.05659115"
     inkscape:connector-curvature="0"
     id="path288"
     d="m 133.47834,67.374728 h -15.23243 v 5.713504 H 141.4271 L 129.37105,37.418638 c -1.05652,-3.479224 -4.53915,-6.038737 -8.66204,-6.038737 -4.1292,0 -7.60112,2.548315 -8.66544,6.024618 L 99.877005,73.088718 h 6.068925 l 11.81262,-34.687075 c 0.47956,-1.148543 1.61058,-1.957733 2.94025,-1.957733 1.32235,0 2.4597,0.80919 2.94365,1.95043 l 9.83589,28.980388" />
  <path
     style="fill:#ffffff;fill-rule:nonzero;stroke:none;stroke-width:1.05659115"
     inkscape:connector-curvature="0"
     id="Shape"
     d="m 137.05786,36.588026 c 1.07893,0 2.09455,-0.421149 2.85554,-1.178243 0.76051,-0.764397 1.18554,-1.77272 1.18554,-2.851153 0,-1.07113 -0.42503,-2.076044 -1.18554,-2.840441 -0.76099,-0.753199 -1.77661,-1.174348 -2.85554,-1.174348 -2.21967,0 -4.03328,1.799011 -4.03328,4.015276 0,1.078433 0.42114,2.086756 1.18895,2.851153 0.75758,0.756607 1.76931,1.177756 2.84433,1.177756 m -3.46413,-4.029883 c 0,-0.919711 0.35446,-1.791221 1.01514,-2.445097 0.65777,-0.653876 1.52928,-1.008322 2.44899,-1.008322 0.93091,0 1.80243,0.354933 2.4602,1.008322 0.65387,0.653876 1.01611,1.525386 1.01611,2.445097 0,1.909533 -1.55898,3.460723 -3.47631,3.460723 -0.9202,0 -1.7917,-0.358341 -2.44899,-1.012217 -0.66118,-0.65339 -1.01514,-1.521492 -1.01514,-2.448506 z" />
  <path
     style="fill:#ffffff;fill-rule:nonzero;stroke:none;stroke-width:1.05659115"
     inkscape:connector-curvature="0"
     id="path291"
     d="m 136.02374,32.897984 v 1.898334 h -0.58376 v -4.461743 h 1.65829 c 0.62467,0.0073 0.99032,0.0073 1.33746,0.269243 0.33594,0.247821 0.47665,0.620769 0.47665,1.034614 0,1.041917 -0.84911,1.178243 -1.06432,1.222549 l 1.25615,1.935337 h -0.70548 l -1.22255,-1.898334 h -1.15244 m 0,-0.491259 h 1.18554 c 0.18891,0 0.36614,0 0.54336,-0.04431 0.41385,-0.09981 0.56137,-0.395344 0.56137,-0.720091 0,-0.118311 -0.0112,-0.417254 -0.26633,-0.624176 -0.23321,-0.195725 -0.52826,-0.188422 -0.8715,-0.188422 h -1.15244 z" />
</svg>
