<?xml version="1.0" encoding="UTF-8" standalone="no"?>
<svg
   xmlns:dc="http://purl.org/dc/elements/1.1/"
   xmlns:cc="http://creativecommons.org/ns#"
   xmlns:rdf="http://www.w3.org/1999/02/22-rdf-syntax-ns#"
   xmlns:svg="http://www.w3.org/2000/svg"
   xmlns="http://www.w3.org/2000/svg"
   xmlns:sodipodi="http://sodipodi.sourceforge.net/DTD/sodipodi-0.dtd"
   xmlns:inkscape="http://www.inkscape.org/namespaces/inkscape"
   width="500"
   height="200"
   viewBox="0 0 500 200"
   version="1.1"
   id="svg217"
   sodipodi:docname="Sega.svg"
   style="fill:none"
   inkscape:version="0.92.5 (2060ec1f9f, 2020-04-08)">
  <metadata
     id="metadata223">
    <rdf:RDF>
      <cc:Work
         rdf:about="">
        <dc:format>image/svg+xml</dc:format>
        <dc:type
           rdf:resource="http://purl.org/dc/dcmitype/StillImage" />
        <dc:title />
      </cc:Work>
    </rdf:RDF>
  </metadata>
  <defs
     id="defs221" />
  <sodipodi:namedview
     pagecolor="#ffffff"
     bordercolor="#666666"
     borderopacity="1"
     objecttolerance="10"
     gridtolerance="10"
     guidetolerance="10"
     inkscape:pageopacity="0"
     inkscape:pageshadow="2"
     inkscape:window-width="1366"
     inkscape:window-height="743"
     id="namedview219"
     showgrid="false"
     inkscape:pagecheckerboard="true"
     inkscape:zoom="1.1579271"
     inkscape:cx="434.9794"
     inkscape:cy="96.877617"
     inkscape:window-x="0"
     inkscape:window-y="0"
     inkscape:window-maximized="1"
     inkscape:current-layer="svg217" />
  <path
     d="m 14.359358,196.0838 c 1.575263,-0.003 3.131117,-0.34765 4.559229,-1.01284 1.404297,-0.62003 2.650371,-1.54938 3.644876,-2.71963 l -2.715522,-2.721 c -0.666562,0.80207 -1.494221,1.45494 -2.42946,1.9162 -0.917529,0.44483 -1.92479,0.67204 -2.944151,0.66519 -0.860194,0.01 -1.71368,-0.15192 -2.511063,-0.47494 -0.797384,-0.32302 -1.522827,-0.8007 -2.1343399,-1.40567 -0.5888466,-0.59265 -1.0540986,-1.29616 -1.3687103,-2.06949 -0.337305,-0.82122 -0.5071482,-1.7013 -0.4995793,-2.5896 -0.00917,-0.8965 0.1558277,-1.78616 0.4858922,-2.61971 0.3080967,-0.77469 0.764671,-1.48231 1.3440735,-2.08317 0.5810588,-0.59539 1.2760078,-1.0676 2.0434848,-1.38925 0.799764,-0.33944 1.660533,-0.51189 2.529376,-0.50642 1.047817,-0.004 2.082124,0.23679 3.020744,0.70215 0.970197,0.48726 1.819755,1.18393 2.487001,2.04075 l 2.80175,-2.80723 c -0.985197,-1.19625 -2.238662,-2.1434 -3.658562,-2.76342 -1.459456,-0.67478 -3.047393,-1.02517 -4.655039,-1.0279 -1.435941,-0.01 -2.859509,0.26552 -4.188253,0.81027 -1.2588853,0.51053 -2.4083145,1.25785 -3.3861896,2.20089 -0.9652008,0.94441 -1.7329104,2.07086 -2.2583719,3.31365 -0.5447194,1.30438 -0.826352,2.70183 -0.8287008,4.11571 -0.00233,1.41251 0.2746318,2.81133 0.8150136,4.11708 0.5192422,1.23868 1.2820983,2.36102 2.2433162,3.29996 0.9783404,0.94304 2.1282487,1.68899 3.3875575,2.19952 1.337737,0.54611 2.770708,0.82122 4.215628,0.8089 z m 54.169499,0.0301 c 1.431124,0.0109 2.849929,-0.26417 4.173198,-0.81028 1.253328,-0.50779 2.393738,-1.25921 3.355393,-2.21047 0.961656,-0.95125 1.72567,-2.08318 2.248107,-3.33144 0.546937,-1.29617 0.828754,-2.68815 0.828754,-4.09518 0,-1.40703 -0.281817,-2.79901 -0.828754,-4.09518 -0.5223,-1.2469 -1.286314,-2.38019 -2.248107,-3.33007 -0.961655,-0.95126 -2.102065,-1.70268 -3.355393,-2.21184 -2.66789,-1.07991 -5.651131,-1.07991 -8.319021,0 -1.253465,0.50916 -2.393874,1.26058 -3.35553,2.21184 -0.961656,0.94988 -1.72567,2.08317 -2.24797,3.33007 -0.546663,1.29617 -0.828207,2.68815 -0.828207,4.09518 0,1.40703 0.281544,2.79901 0.828207,4.09518 0.5223,1.24826 1.286314,2.38019 2.24797,3.33144 0.961793,0.95126 2.102065,1.70268 3.35553,2.21047 1.314646,0.54338 2.724692,0.81849 4.147192,0.80891 z m 0,-3.84882 c -0.839977,0.007 -1.672427,-0.1574 -2.446432,-0.48315 -0.774143,-0.32576 -1.473417,-0.80617 -2.055256,-1.41251 -0.574037,-0.60771 -1.025301,-1.31944 -1.329017,-2.09823 -0.648222,-1.68078 -0.648222,-3.5436 0,-5.22437 0.306317,-0.77195 0.757444,-1.47958 1.329017,-2.08318 0.581839,-0.60497 1.281113,-1.08676 2.055256,-1.41251 0.774005,-0.32575 1.606455,-0.49 2.446432,-0.48315 0.864478,-0.007 1.721017,0.16561 2.51569,0.50642 0.758813,0.32165 1.444263,0.79522 2.014741,1.38924 0.571437,0.6036 1.022564,1.31123 1.329018,2.08318 0.647948,1.68077 0.647948,3.54359 0,5.22437 -0.303854,0.77879 -0.755117,1.49052 -1.329018,2.09823 -0.570478,0.59539 -1.255928,1.06759 -2.014741,1.38924 -0.7944,0.33944 -1.650391,0.5119 -2.514321,0.50505 z m 62.830643,3.53127 v -3.70373 H 120.40982 V 175.5367 h -4.14172 v 20.25692 z m 52.256,0 v -3.70373 H 172.66581 V 175.5367 h -4.14445 v 20.25692 z m 52.65428,0 v -3.64624 H 224.9218 v -4.80554 h 7.40473 v -3.53127 h -7.40473 v -4.62625 h 11.23438 v -3.64624 h -15.38157 v 20.25691 z m 45.96677,0.2888 c 1.57538,-0.001 3.13161,-0.34765 4.55917,-1.01284 1.4043,-0.62003 2.64982,-1.54938 3.64488,-2.71963 l -2.71689,-2.71963 c -0.66657,0.80207 -1.49463,1.45494 -2.42946,1.9162 -0.91704,0.44483 -1.92441,0.67203 -2.9441,0.66519 -0.85955,0.01 -1.71363,-0.15193 -2.51021,-0.47494 -0.79796,-0.32302 -1.52201,-0.8007 -2.13382,-1.40567 -0.58855,-0.59265 -1.05391,-1.29617 -1.36871,-2.06949 -0.33808,-0.82122 -0.5078,-1.70131 -0.50095,-2.5896 -0.01,-0.8965 0.15603,-1.78617 0.48726,-2.61971 0.30659,-0.77469 0.76374,-1.48368 1.3427,-2.08318 0.58034,-0.59539 1.27564,-1.06759 2.04349,-1.38924 0.79932,-0.33944 1.66024,-0.5119 2.52937,-0.50642 1.05117,-0.004 2.08866,0.23816 3.03033,0.70762 0.97041,0.48726 1.82038,1.18394 2.48695,2.04075 l 2.80175,-2.80723 c -0.98548,-1.19625 -2.23921,-2.1434 -3.65857,-2.76342 -1.45904,-0.67341 -3.04675,-1.02517 -4.65361,-1.0279 -1.43578,-0.01 -2.85924,0.26553 -4.18826,0.81027 -1.25921,0.51053 -2.40893,1.25648 -3.38755,2.19952 -0.96631,0.94441 -1.73416,2.07086 -2.25974,3.31365 -0.54475,1.30438 -0.82671,2.70183 -0.82807,4.11571 -0.003,1.41251 0.27374,2.81133 0.81438,4.11708 0.51874,1.23868 1.28248,2.36103 2.24332,3.29996 0.97862,0.94304 2.12834,1.68899 3.38755,2.19952 1.33586,0.54338 2.76617,0.81575 4.20879,0.80206 z m 54.82779,-0.2888 v -16.5559 h 6.71627 v -3.70509 h -17.60846 v 3.70509 h 6.74637 v 16.55319 z m 47.48056,0 v -20.25691 h -4.14445 v 20.25691 z m 47.73925,0.31891 c 1.43167,0.011 2.84965,-0.26416 4.1732,-0.81027 1.25374,-0.50779 2.39387,-1.25922 3.35471,-2.21047 0.9622,-0.95125 1.72594,-2.08318 2.24879,-3.33144 0.54611,-1.29617 0.82807,-2.68815 0.82807,-4.09518 0,-1.40704 -0.28196,-2.79901 -0.82807,-4.09518 -0.52285,-1.2469 -1.28659,-2.38019 -2.24742,-3.33008 -0.96221,-0.95125 -2.10234,-1.70267 -3.35608,-2.21183 -2.66762,-1.07991 -5.65004,-1.07991 -8.31765,0 -1.25237,0.50916 -2.39251,1.26058 -3.35471,2.21183 -0.96084,0.95126 -1.72458,2.08318 -2.24743,3.33008 -0.54748,1.29617 -0.82943,2.68814 -0.82943,4.09518 0,1.40703 0.28195,2.79901 0.82943,4.09518 0.52285,1.24689 1.28659,2.37882 2.24743,3.33007 0.9622,0.95126 2.10234,1.70268 3.35471,2.21184 1.31396,0.54201 2.72236,0.81712 4.14445,0.80754 z m 0,-3.84881 c -0.85955,0.008 -1.71226,-0.16424 -2.50063,-0.50642 -0.75416,-0.32302 -1.43441,-0.79659 -2.00106,-1.38924 -0.57486,-0.60634 -1.02653,-1.31944 -1.33038,-2.09824 -0.64877,-1.68077 -0.64877,-3.54359 0,-5.22436 0.30659,-0.77332 0.75826,-1.47958 1.33038,-2.08318 0.56665,-0.59265 1.2469,-1.06486 2.00106,-1.38924 0.78837,-0.34081 1.64108,-0.51327 2.50063,-0.50642 0.86366,-0.007 1.72047,0.16561 2.51432,0.50642 0.75963,0.32165 1.44536,0.79522 2.01611,1.38924 0.57212,0.6036 1.02243,1.31122 1.32902,2.08318 0.64877,1.68077 0.64877,3.54359 0,5.22436 -0.30386,0.7788 -0.75553,1.49053 -1.32902,2.09824 -0.57075,0.59539 -1.25648,1.06759 -2.01611,1.38924 -0.79385,0.33944 -1.65066,0.5119 -2.51432,0.50368 z m 51.65376,3.53127 v -13.55023 l 10.2051,13.55023 h 3.65856 v -20.25691 h -3.88713 v 13.10951 l -9.94779,-13.10951 h -3.94599 v 20.25691 z"
     id="path191"
     inkscape:connector-curvature="0"
     style="fill:#ffffff;stroke-width:1.36871028" />
  <path
     style="fill:#ffffff;stroke-width:1.07419157"
     d="M 385.41992 22.53125 C 378.93181 22.55391 372.58726 24.445382 367.14648 27.978516 C 361.70463 31.511661 357.3971 36.537679 354.73633 42.455078 L 342.54688 77.996094 L 342.49805 24.367188 L 283.36523 24.337891 C 273.14108 24.291071 263.30958 28.267192 255.99219 35.408203 L 256.01758 24.386719 L 195.4668 24.386719 C 190.09369 24.393319 184.77575 25.493251 179.83984 27.619141 C 174.90501 29.74503 170.45421 32.851563 166.75781 36.751953 L 166.75781 24.337891 L 109.69336 24.386719 C 100.92737 24.22989 92.313808 26.69002 84.953125 31.453125 C 77.59255 36.216284 71.819389 43.066219 68.371094 51.126953 C 64.922807 59.187686 63.955205 68.094163 65.59375 76.707031 C 67.2323 85.3199 71.40107 93.248979 77.568359 99.480469 L 64.703125 99.458984 L 64.703125 151.32031 L 122.19922 151.30859 C 138.35399 151.28929 154.36147 141.54255 159.92578 129.86523 L 160.0918 129.38477 C 163.35584 135.97579 168.39804 141.52168 174.64844 145.39844 C 180.89916 149.27412 188.1079 151.32569 195.46289 151.32031 L 255.92188 151.30859 L 255.92188 140.12109 C 263.29512 147.3085 273.18629 151.32783 283.48242 151.32031 L 452.8125 151.33984 L 416.24414 42.240234 C 413.54254 36.341633 409.1979 31.344652 403.73242 27.849609 C 398.26586 24.354566 391.90804 22.508587 385.41992 22.53125 z M 385.44336 31.513672 C 396.39797 31.513672 405.65105 38.313906 408.45898 47.560547 L 440.49414 142.33984 L 378.89844 142.33984 L 378.89844 127.1582 L 419.37305 127.1582 L 393.23438 50.152344 C 392.58341 48.61625 391.49371 47.305133 390.10156 46.384766 C 388.71048 45.464398 387.07838 44.974562 385.41016 44.976562 C 383.74194 44.978711 382.11159 45.472679 380.72266 46.396484 C 379.33265 47.320289 378.24628 48.63417 377.59961 50.171875 L 346.21094 142.33594 L 333.67383 142.33594 L 333.67383 142.35352 L 283.54883 142.33203 C 275.46447 142.34707 267.70473 139.15561 261.9707 133.45703 C 256.23559 127.75844 252.99353 120.01817 252.95703 111.93359 L 252.95703 63.666016 C 252.9624 59.670239 253.75707 55.714702 255.29102 52.025391 C 256.82604 48.336188 259.07292 44.98489 261.90234 42.164062 C 264.73283 39.343236 268.09101 37.10665 271.78516 35.583984 C 275.4793 34.06121 279.4376 33.281762 283.43359 33.289062 L 333.67383 33.289062 L 333.67383 48.490234 L 283.54883 48.490234 C 281.55406 48.487226 279.57964 48.877392 277.73633 49.638672 C 275.89302 50.399952 274.21813 51.516442 272.80664 52.925781 C 271.39623 54.335228 270.27742 56.009217 269.51367 57.851562 C 268.74992 59.694016 268.35642 61.669719 268.35742 63.664062 L 268.35742 111.93359 C 268.36494 115.9703 269.97205 119.83967 272.82617 122.69336 C 275.68138 125.54706 279.55303 127.1532 283.58984 127.1582 L 318.45312 127.1582 L 318.45312 85.984375 L 290.59766 85.984375 L 290.59766 70.820312 L 333.67383 70.820312 L 333.67383 131.81445 L 362.41797 47.519531 C 365.24846 38.281483 374.47157 31.513672 385.44336 31.513672 z M 109.47852 33.289062 L 157.875 33.289062 L 157.89453 48.529297 L 109.46875 48.541016 C 104.03226 48.541016 98.818711 50.700713 94.974609 54.544922 C 91.1304 58.389131 88.970703 63.60258 88.970703 69.039062 C 88.970703 74.475545 91.1304 79.689101 94.974609 83.533203 C 98.818711 87.377412 104.03226 89.537109 109.46875 89.537109 L 122.11914 89.673828 C 124.35378 89.655997 126.56903 90.081017 128.63867 90.923828 C 130.70832 91.766638 132.59136 93.012025 134.17773 94.585938 C 135.7642 96.159738 137.02356 98.03087 137.88281 100.09375 C 138.74205 102.15663 139.18359 104.36877 139.18359 106.60352 C 139.18359 108.83816 138.74205 111.05235 137.88281 113.11523 C 137.02356 115.17811 135.7642 117.04914 134.17773 118.62305 C 132.59136 120.19685 130.70832 121.44235 128.63867 122.28516 C 126.56903 123.12797 124.35378 123.5509 122.11914 123.5332 L 73.605469 123.5332 L 73.585938 108.39844 L 122 108.35938 C 122.2331 108.36507 122.46661 108.32553 122.68359 108.24023 C 122.90069 108.15505 123.09873 108.02612 123.26562 107.86328 C 123.43256 107.70043 123.5637 107.50586 123.6543 107.29102 C 123.74489 107.07619 123.79102 106.84638 123.79102 106.61328 C 123.79102 106.38008 123.7449 106.14843 123.6543 105.93359 C 123.56375 105.71876 123.43257 105.52418 123.26562 105.36133 C 123.0987 105.19859 122.90069 105.07153 122.68359 104.98633 C 122.46661 104.90112 122.2331 104.86023 122 104.86523 L 109.47852 104.8457 C 104.78 104.8457 100.12607 103.92114 95.785156 102.12305 C 91.44424 100.32507 87.500209 97.68955 84.177734 94.367188 C 80.855367 91.044719 78.219857 87.100682 76.421875 82.759766 C 74.623764 78.418851 73.699219 73.76492 73.699219 69.066406 C 73.699219 64.367784 74.623764 59.716023 76.421875 55.375 C 78.219857 51.034084 80.855367 47.090053 84.177734 43.767578 C 87.500209 40.445211 91.44424 37.809808 95.785156 36.011719 C 100.12607 34.21363 104.78 33.289062 109.47852 33.289062 z M 195.57031 33.289062 L 247.32422 33.289062 L 247.32422 48.5 L 195.57031 48.492188 C 191.55605 48.469414 187.69603 50.033021 184.83008 52.84375 C 181.96414 55.654587 180.32533 59.484115 180.26953 63.498047 L 180.26953 111.93164 C 180.26523 113.9407 180.65773 115.93048 181.42578 117.78711 C 182.19275 119.64364 183.31996 121.33121 184.74219 122.75 C 186.16442 124.16879 187.85453 125.2917 189.71289 126.05469 C 191.57124 126.81769 193.56157 127.20531 195.57031 127.19531 L 195.57031 127.19727 L 247.09766 127.17969 L 247.10742 142.35352 L 195.57031 142.33203 C 191.57324 142.33848 187.61318 141.55748 183.91797 140.0332 C 180.22167 138.50785 176.8637 136.27025 174.0332 133.44727 C 171.2026 130.6243 168.95462 127.27143 167.41992 123.58008 C 165.88512 119.88862 165.09289 115.9313 165.08789 111.93359 L 165.08789 63.666016 C 165.0938 59.669594 165.88654 55.713178 167.42188 52.023438 C 168.95721 48.333697 171.20456 44.982936 174.03516 42.162109 C 176.86673 39.341174 180.22578 37.104375 183.91992 35.582031 C 187.61514 34.059794 191.57431 33.280862 195.57031 33.289062 z M 385.45508 48.492188 C 386.48415 48.492188 387.48723 48.812241 388.32617 49.408203 C 389.16511 50.004164 389.79835 50.846645 390.13672 51.818359 L 414.4668 123.70117 L 378.83984 123.70117 L 378.87109 110.18555 L 367.96484 142.33789 L 350.00781 142.33789 L 380.77344 51.818359 C 381.11181 50.846645 381.74504 50.004164 382.58398 49.408203 C 383.42293 48.812241 384.426 48.492188 385.45508 48.492188 z M 333.67578 52.035156 L 333.69531 67.189453 L 290.66797 67.189453 C 290.19318 67.186553 289.72254 67.27766 289.2832 67.458984 C 288.84385 67.640307 288.4454 67.908905 288.11133 68.246094 C 287.77618 68.583283 287.51318 68.983302 287.33594 69.423828 C 287.15758 69.864246 287.06822 70.335539 287.07422 70.810547 L 287.15625 104.78906 C 287.15839 105.73231 287.53235 106.63784 288.19727 107.30664 C 288.8622 107.97543 289.76389 108.35333 290.70703 108.36133 L 299.6582 108.36133 L 299.62891 104.78906 L 290.63477 104.78906 L 290.63477 89.576172 L 314.85742 89.576172 L 314.85742 123.59375 L 283.54883 123.59375 C 280.46161 123.58687 277.50571 122.35459 275.32617 120.16797 C 273.14771 117.98135 271.92569 115.01855 271.92969 111.93164 L 271.93164 111.93164 L 271.93164 63.666016 C 271.93164 62.14002 272.23205 60.62852 272.81641 59.21875 C 273.3997 57.808874 274.25638 56.528137 275.33594 55.449219 C 276.41443 54.370193 277.69613 53.513511 279.10547 52.929688 C 280.51588 52.345757 282.02543 52.044815 283.55078 52.044922 L 333.67578 52.035156 z M 195.57031 52.044922 L 247.32422 52.044922 L 247.32422 67.277344 L 202.73633 67.277344 C 202.26368 67.265954 201.79481 67.350279 201.35547 67.523438 C 200.91612 67.696596 200.51503 67.954735 200.17773 68.285156 C 199.84044 68.615577 199.57216 69.011574 199.39062 69.447266 C 199.20801 69.882958 199.11415 70.349944 199.11523 70.822266 L 236.31445 70.822266 L 236.31445 85.984375 L 183.96289 85.984375 L 183.98047 63.666016 C 183.97647 62.141309 184.27238 60.630472 184.85352 59.220703 C 185.43466 57.810934 186.28694 56.528674 187.36328 55.449219 C 188.44069 54.369764 189.72064 53.513832 191.12891 52.929688 C 192.53717 52.345543 194.04603 52.044492 195.57031 52.044922 z M 109.46875 52.072266 L 157.89453 52.072266 L 157.875 67.257812 L 109.47852 67.248047 C 108.99696 67.248047 108.53388 67.438671 108.19336 67.779297 C 107.85274 68.119816 107.66211 68.582893 107.66211 69.064453 C 107.66211 69.546121 107.85274 70.007137 108.19336 70.347656 C 108.53388 70.688174 108.99696 70.878906 109.47852 70.878906 L 122.07031 70.810547 C 131.56326 70.810547 140.66639 74.582407 147.37891 81.294922 C 154.09143 88.007438 157.86328 97.110648 157.86328 106.60352 C 157.86328 116.09648 154.09143 125.20122 147.37891 131.91406 C 140.66639 138.62668 131.56326 142.39648 122.07031 142.39648 L 73.585938 142.44531 L 73.605469 127.09961 L 122.11914 127.09961 C 127.55294 127.09961 132.76319 124.94188 136.60547 121.09961 C 140.44775 117.25733 142.60742 112.04707 142.60742 106.61328 C 142.60742 101.17959 140.44775 95.967276 136.60547 92.125 C 132.76319 88.282724 127.55294 86.125 122.11914 86.125 L 109.46875 85.951172 C 107.23292 85.969004 105.01614 85.544519 102.94531 84.701172 C 100.87449 83.857824 98.989677 82.611874 97.402344 81.037109 C 95.815011 79.462344 94.555102 77.58945 93.695312 75.525391 C 92.835532 73.46144 92.392578 71.247649 92.392578 69.011719 C 92.392578 66.775789 92.83553 64.562106 93.695312 62.498047 C 94.555098 60.433988 95.815011 58.561092 97.402344 56.986328 C 98.989677 55.41167 100.87449 54.165506 102.94531 53.322266 C 105.01614 52.478918 107.23292 52.054546 109.46875 52.072266 z M 183.96094 89.589844 L 236.31055 89.589844 L 236.31055 104.78906 L 199.11328 104.78906 C 199.11128 105.26364 199.20408 105.73348 199.38672 106.17188 C 199.56826 106.61033 199.83458 107.00956 200.17188 107.34375 C 200.50916 107.67782 200.91027 107.94125 201.34961 108.11914 C 201.79003 108.29703 202.25959 108.38493 202.73438 108.37891 L 247.10156 108.37891 L 247.0918 123.48438 L 195.57031 123.50586 C 194.04818 123.50886 192.54107 123.21287 191.13281 122.63281 C 189.72562 122.05264 188.44568 121.19983 187.36719 120.125 C 186.28871 119.05027 185.43309 117.77287 184.84766 116.36719 C 184.2633 114.9615 183.96309 113.45604 183.96094 111.93359 L 183.96094 89.589844 z M 385.42578 90.861328 L 380.02148 106.79102 L 390.7832 106.79102 L 385.42578 90.861328 z "
     id="path193" />
  <path
     d="m 428.88447,45.351268 c 2.48568,0.0044 4.89509,-0.853767 6.81897,-2.427995 1.9228,-1.574228 3.24084,-3.767082 3.72745,-6.204423 0.4866,-2.437233 0.11279,-4.967986 -1.05808,-7.160368 -1.17087,-2.192371 -3.06575,-3.910573 -5.36237,-4.861426 -2.29662,-0.950863 -4.85105,-1.07548 -7.22931,-0.352592 -2.37826,0.722898 -4.43104,2.248508 -5.8103,4.316553 -1.37819,2.068033 -1.99692,4.550361 -1.74986,7.023494 0.24814,2.473111 1.34596,4.783697 3.10656,6.537637 2.00552,2.002401 4.72322,3.127724 7.55694,3.12912 z M 419.6808,34.643727 c -0.005,-1.207929 0.22988,-2.404868 0.69285,-3.520502 0.46405,-1.115634 1.14509,-2.127501 2.00444,-2.976198 1.28581,-1.285357 2.92288,-2.160694 4.70604,-2.515327 1.78316,-0.354623 3.63076,-0.172623 5.30973,0.523013 1.68003,0.695625 3.11515,1.873626 4.12489,3.385046 1.00974,1.51142 1.54899,3.288358 1.54899,5.106116 0,1.817747 -0.53925,3.594675 -1.54899,5.10617 -1.00974,1.511387 -2.44486,2.689346 -4.12489,3.384992 -1.67897,0.695647 -3.52657,0.877615 -5.30973,0.523024 -1.78316,-0.354591 -3.42023,-1.229949 -4.70604,-2.515327 -0.86042,-0.848611 -1.54254,-1.861037 -2.00659,-2.977552 -0.46297,-1.116622 -0.69822,-2.314668 -0.6907,-3.523455 z"
     id="path213"
     inkscape:connector-curvature="0"
     style="fill:#ffffff;stroke-width:1.07419157" />
  <path
     d="m 426.13669,35.547122 v 5.0487 h -1.55113 V 28.735651 h 4.40418 c 1.6607,0.01934 2.63177,0.01934 3.5545,0.715412 0.41786,0.32113 0.75194,0.739108 0.97322,1.217951 0.22128,0.478853 0.32226,1.004218 0.2954,1.530905 0.0451,0.803227 -0.22558,1.592188 -0.75408,2.198892 -0.5285,0.606703 -1.27292,0.983207 -2.07426,1.049485 l 3.33751,5.142155 h -1.87446 l -3.24836,-5.0487 h -3.06252 z m 0,-1.310514 h 3.14738 c 0.48446,0.02052 0.96892,-0.01923 1.44371,-0.118161 0.44042,-0.07874 0.8368,-0.317531 1.11287,-0.670725 0.27499,-0.353162 0.41034,-0.795654 0.37919,-1.242432 0.015,-0.311967 -0.0408,-0.623289 -0.16328,-0.910549 -0.12246,-0.28726 -0.30937,-0.543004 -0.54462,-0.748003 -0.6864,-0.438162 -1.50709,-0.613997 -2.31273,-0.495202 h -3.06252 v 4.189369 z"
     id="path215"
     inkscape:connector-curvature="0"
     style="fill:#ffffff;stroke-width:1.07419157" />
</svg>
