<?xml version="1.0" encoding="UTF-8" standalone="no"?>
<svg
   xmlns:dc="http://purl.org/dc/elements/1.1/"
   xmlns:cc="http://creativecommons.org/ns#"
   xmlns:rdf="http://www.w3.org/1999/02/22-rdf-syntax-ns#"
   xmlns:svg="http://www.w3.org/2000/svg"
   xmlns="http://www.w3.org/2000/svg"
   xmlns:sodipodi="http://sodipodi.sourceforge.net/DTD/sodipodi-0.dtd"
   xmlns:inkscape="http://www.inkscape.org/namespaces/inkscape"
   width="500"
   height="200"
   viewBox="0 0 500 200"
   version="1.1"
   id="svg44"
   sodipodi:docname="sg-1000.svg"
   inkscape:version="0.92.5 (2060ec1f9f, 2020-04-08)">
  <metadata
     id="metadata50">
    <rdf:RDF>
      <cc:Work
         rdf:about="">
        <dc:format>image/svg+xml</dc:format>
        <dc:type
           rdf:resource="http://purl.org/dc/dcmitype/StillImage" />
        <dc:title>mainlogo</dc:title>
      </cc:Work>
    </rdf:RDF>
  </metadata>
  <defs
     id="defs48" />
  <sodipodi:namedview
     pagecolor="#ffffff"
     bordercolor="#666666"
     borderopacity="1"
     objecttolerance="10"
     gridtolerance="10"
     guidetolerance="10"
     inkscape:pageopacity="0"
     inkscape:pageshadow="2"
     inkscape:window-width="1366"
     inkscape:window-height="743"
     id="namedview46"
     showgrid="false"
     inkscape:pagecheckerboard="true"
     inkscape:zoom="1.1057011"
     inkscape:cx="361.44526"
     inkscape:cy="66.332218"
     inkscape:window-x="0"
     inkscape:window-y="0"
     inkscape:window-maximized="1"
     inkscape:current-layer="svg44" />
  <title
     id="title2">mainlogo</title>
  <g
     id="SG-1000_logo"
     transform="matrix(1.0685806,0,0,1.0685806,-1.3689509,93.163171)"
     style="fill:#ffffff;fill-rule:nonzero;stroke:none;stroke-width:1">
    <path
       d="m 0,22.62368 v -9.405 C 0,4.8586799 4.17924,0.67867999 12.54,0.67867999 H 68.969999 V 13.21868 H 12.54 v 9.405 h 43.889999 c 8.36,0 12.54,4.18 12.54,12.54 v 9.404999 c 0,8.36076 -4.18,12.54 -12.54,12.54 H 0 v -12.54 H 56.429999 V 35.16368 H 12.54 C 4.17924,35.16368 0,30.98444 0,22.62368 Z"
       id="Path"
       inkscape:connector-curvature="0"
       style="fill:#ffffff" />
    <path
       d="M 75.239999,44.568679 V 13.21868 c 0,-8.3600001 4.17924,-12.54000001 12.54,-12.54000001 H 144.21 V 13.21868 H 87.779999 V 44.568679 H 131.67 V 35.16368 h -25.08 v -12.54 h 37.62 V 57.108679 H 87.779999 c -8.36076,0 -12.54,-4.17924 -12.54,-12.54 z"
       id="path5"
       inkscape:connector-curvature="0"
       style="fill:#ffffff" />
    <polygon
       id="polygon7"
       points="150.48,35.16368 150.48,22.62368 172.425,22.62368 172.425,35.16368 "
       style="fill:#ffffff" />
    <polygon
       id="polygon9"
       points="213.18,0.67867999 213.18,44.568679 231.99,44.568679 231.99,57.108679 178.695,57.108679 178.695,44.568679 197.505,44.568679 197.505,13.21868 178.695,13.21868 178.695,0.67867999 "
       style="fill:#ffffff" />
    <path
       d="m 310.365,44.568679 c 0,8.36076 -4.18,12.54 -12.54,12.54 H 250.8 c -8.36076,0 -12.54,-4.17924 -12.54,-12.54 V 13.21868 c 0,-8.3600001 4.17924,-12.54000001 12.54,-12.54000001 h 47.025 c 8.36,0 12.54,4.17999991 12.54,12.54000001 z m -12.54,0 V 13.21868 H 250.8 v 31.349999 z"
       id="Shape"
       inkscape:connector-curvature="0"
       style="fill:#ffffff" />
    <path
       d="m 388.74,44.568679 c 0,8.36076 -4.18,12.54 -12.54001,12.54 H 329.175 c -8.36,0 -12.54,-4.17924 -12.54,-12.54 V 13.21868 c 0,-8.3600001 4.18,-12.54000001 12.54,-12.54000001 h 47.02499 c 8.36001,0 12.54001,4.17999991 12.54001,12.54000001 z m -12.54001,0 V 13.21868 H 329.175 v 31.349999 z"
       id="path12"
       inkscape:connector-curvature="0"
       style="fill:#ffffff" />
    <path
       d="m 467.11499,44.568679 c 0,8.36076 -4.18,12.54 -12.54,12.54 H 407.55 c -8.36001,0 -12.54001,-4.17924 -12.54001,-12.54 V 13.21868 c 0,-8.3600001 4.18,-12.54000001 12.54001,-12.54000001 h 47.02499 c 8.36,0 12.54,4.17999991 12.54,12.54000001 z m -12.54,0 V 13.21868 H 407.55 v 31.349999 z"
       id="path14"
       inkscape:connector-curvature="0"
       style="fill:#ffffff" />
  </g>
  <path
     style="fill:#ffffff;fill-rule:nonzero;stroke:none;stroke-width:1.06858063"
     inkscape:connector-curvature="0"
     id="path19"
     d="m 2.0118806,75.758144 18.4537464,-0.01871 c 7.549998,0 13.668585,-6.099874 13.668585,-13.615896 0,-7.530795 -6.118587,-13.631163 -13.668585,-13.631163 l -4.792548,0.0261 c -0.377673,0 -0.683946,-0.309721 -0.683946,-0.69084 0,-0.381118 0.306273,-0.691332 0.683946,-0.691332 l 18.420263,0.004 0.0074,-5.778828 H 15.66914 c -3.563513,0 -6.4627751,2.894831 -6.4627751,6.451449 0,3.560066 2.8987701,6.443571 6.4627751,6.443571 l 4.815199,0.06352 c 4.32575,0 7.826235,3.488666 7.826235,7.792752 0,4.307039 -3.499993,7.803585 -7.826235,7.803585 H 2.0192666 l -0.00738,5.841857" />
  <path
     style="fill:#ffffff;fill-rule:nonzero;stroke:none;stroke-width:1.06858063"
     inkscape:connector-curvature="0"
     id="path21"
     d="M 2.0192666,68.559721 H 20.484339 c 3.574837,0 6.466221,-2.883506 6.466221,-6.447511 0,-3.560066 -2.891384,-6.440125 -6.466221,-6.440125 l -4.815199,-0.0522 c -4.318365,0 -7.8222967,-3.492607 -7.8222967,-7.807525 0,-4.3031 3.5039317,-7.796199 7.8222967,-7.796199 l 18.431588,-0.0039 -0.0074,-5.800987 H 15.673079 c -7.5421198,0 -13.6685844,6.092981 -13.6685844,13.61639 0,7.523409 6.1264646,13.619836 13.6685844,13.619836 l 4.766451,0.0074 c 0.362408,0 0.668681,0.295441 0.668681,0.668682 0,0.366347 -0.306273,0.661296 -0.668681,0.661296 l -18.4276494,0.01477 0.00738,5.760118" />
  <path
     style="fill:#ffffff;fill-rule:nonzero;stroke:none;stroke-width:1.06858063"
     inkscape:connector-curvature="0"
     id="path23"
     d="m 48.441442,69.953218 c -3.201598,0 -5.824131,-2.551627 -5.824131,-5.809358 V 45.709318 c 0,-3.134138 2.622533,-5.711863 5.824131,-5.711863 l 19.697553,0.0035 V 34.21124 H 48.441442 c -6.410088,0 -11.602466,5.173667 -11.602466,11.561598 v 18.371515 c 0,6.388423 5.192378,11.569475 11.602466,11.569475 l 19.615322,0.0079 -0.004,-5.775383 -19.611383,0.0069" />
  <path
     style="fill:#ffffff;fill-rule:nonzero;stroke:none;stroke-width:1.06858063"
     inkscape:connector-curvature="0"
     id="path25"
     d="m 44.029521,45.772838 c 0,-2.442807 1.965176,-4.422755 4.411921,-4.422755 h 19.697553 v 5.79754 H 51.168364 c -1.359522,0 -1.378233,1.348689 -1.378233,1.348689 h 14.158031 v 5.771443 H 44.022627 l 0.0069,-8.494917" />
  <path
     style="fill:#ffffff;fill-rule:nonzero;stroke:none;stroke-width:1.06858063"
     inkscape:connector-curvature="0"
     id="path27"
     d="m 48.441442,68.548887 c -2.439359,0 -4.419307,-1.968622 -4.419307,-4.404534 v -8.502305 h 19.925536 v 5.783261 H 49.789638 c 0.01871,1.359522 1.378233,1.366415 1.378233,1.366415 h 16.888401 l -0.004,5.749286 -19.610891,0.0079" />
  <path
     style="fill:#ffffff;fill-rule:nonzero;stroke:none;stroke-width:1.06858063"
     inkscape:connector-curvature="0"
     id="path29"
     d="m 81.942499,69.938446 c -3.190273,0 -5.797541,-2.599882 -5.797541,-5.794586 V 45.772345 c 0,-3.197658 2.588557,-5.775382 5.782276,-5.775382 H 101.00535 V 34.21124 H 81.882918 c -6.407135,0 -11.599512,5.173667 -11.599512,11.561598 v 18.371515 c 0,6.388423 5.237186,11.569475 11.643828,11.569475 l 19.078116,0.0079 V 48.496312 H 84.609839 v 5.771443 H 95.211252 V 69.938446 H 81.942499" />
  <path
     style="fill:#ffffff;fill-rule:nonzero;stroke:none;stroke-width:1.06858063"
     inkscape:connector-curvature="0"
     id="path31"
     d="m 77.504479,64.14386 c 0,2.447731 1.979949,4.438511 4.422755,4.438511 H 93.843852 V 55.634662 h -9.219733 v 5.790647 h 3.421701 l 0.01084,1.359522 h -3.406438 c -0.743527,0 -1.352136,-0.615995 -1.352136,-1.359522 l -0.03053,-12.932936 c 0,0 -0.004,-1.34475 1.367401,-1.378233 h 16.376793 l -0.007,-5.767996 -19.078104,0.004 c -2.442806,0 -4.422753,1.979948 -4.422753,4.422755 v 18.371022" />
  <path
     style="fill:#ffffff;fill-rule:nonzero;stroke:none;stroke-width:1.06858063"
     inkscape:connector-curvature="0"
     id="path33"
     d="m 118.93222,41.263913 c 0.25703,-0.735648 0.95576,-1.265965 1.78151,-1.265965 0.82625,0 1.53187,0.530317 1.78201,1.265965 l 9.26109,27.359327 h -13.56075 l 0.0148,-6.436185 h 4.53158 l -2.04003,-6.062944 -6.64545,19.592672 h -6.83602 l 11.71128,-34.45287" />
  <path
     style="fill:#ffffff;fill-rule:nonzero;stroke:none;stroke-width:1.06858063"
     inkscape:connector-curvature="0"
     id="path35"
     d="m 133.62401,69.938446 h -15.40527 v 5.778337 h 23.44423 l -12.19285,-36.07435 c -1.06852,-3.518704 -4.59066,-6.10726 -8.76033,-6.10726 -4.17606,0 -7.68738,2.577231 -8.76377,6.092981 l -12.304627,36.08912 h 6.137797 l 11.94665,-35.080681 c 0.48501,-1.161576 1.62886,-1.979948 2.97362,-1.979948 1.33736,0 2.48761,0.818372 2.97705,1.972562 l 9.9475,29.309239" />
  <path
     style="fill:#ffffff;fill-rule:nonzero;stroke:none;stroke-width:1.06858063"
     inkscape:connector-curvature="0"
     id="path37"
     d="m 137.24415,38.802396 c 1.09117,0 2.11832,-0.425928 2.88795,-1.191613 0.76913,-0.773071 1.19899,-1.792835 1.19899,-2.883505 0,-1.083285 -0.42986,-2.099602 -1.19899,-2.872673 -0.76963,-0.761746 -1.79678,-1.187674 -2.88795,-1.187674 -2.24485,0 -4.07905,1.819425 -4.07905,4.060839 0,1.09067 0.42593,2.110435 1.20244,2.883506 0.76619,0.765192 1.78939,1.19112 2.87661,1.19112 m -3.50344,-4.075611 c 0,-0.930147 0.35848,-1.811547 1.02666,-2.472842 0.66524,-0.661296 1.54663,-1.019765 2.47678,-1.019765 0.94147,0 1.82288,0.358961 2.48812,1.019765 0.66129,0.661295 1.02764,1.542695 1.02764,2.472842 0,1.931201 -1.57667,3.499993 -3.51576,3.499993 -0.93064,0 -1.81203,-0.362408 -2.47678,-1.023704 -0.66868,-0.660803 -1.02666,-1.538756 -1.02666,-2.476289 z" />
  <path
     style="fill:#ffffff;fill-rule:nonzero;stroke:none;stroke-width:1.06858063"
     inkscape:connector-curvature="0"
     id="path39"
     d="m 136.1983,35.070482 v 1.919875 h -0.59039 v -4.512371 h 1.67711 c 0.63176,0.0074 1.00155,0.0074 1.35263,0.272298 0.33976,0.250632 0.48206,0.627812 0.48206,1.046354 0,1.05374 -0.85874,1.191613 -1.07639,1.236421 l 1.2704,1.957298 h -0.71349 l -1.23642,-1.919875 h -1.16551 m 0,-0.496834 h 1.19899 c 0.19105,0 0.37029,0 0.54953,-0.04481 0.41854,-0.100942 0.56773,-0.39983 0.56773,-0.728262 0,-0.119654 -0.0113,-0.421989 -0.26934,-0.631259 -0.23586,-0.197946 -0.53426,-0.19056 -0.8814,-0.19056 h -1.16551 z" />
</svg>
