<?xml version="1.0" encoding="UTF-8" standalone="no"?>
<!-- Created with Inkscape (http://www.inkscape.org/) -->

<svg
   xmlns:dc="http://purl.org/dc/elements/1.1/"
   xmlns:cc="http://creativecommons.org/ns#"
   xmlns:rdf="http://www.w3.org/1999/02/22-rdf-syntax-ns#"
   xmlns:svg="http://www.w3.org/2000/svg"
   xmlns="http://www.w3.org/2000/svg"
   xmlns:xlink="http://www.w3.org/1999/xlink"
   xmlns:sodipodi="http://sodipodi.sourceforge.net/DTD/sodipodi-0.dtd"
   xmlns:inkscape="http://www.inkscape.org/namespaces/inkscape"
   version="1.1"
   width="500"
   height="200"
   id="svg2"
   sodipodi:docname="simpsons.svg"
   inkscape:version="0.92.5 (2060ec1f9f, 2020-04-08)">
  <sodipodi:namedview
     pagecolor="#ffffff"
     bordercolor="#666666"
     borderopacity="1"
     objecttolerance="10"
     gridtolerance="10"
     guidetolerance="10"
     inkscape:pageopacity="0"
     inkscape:pageshadow="2"
     inkscape:window-width="1366"
     inkscape:window-height="743"
     id="namedview54"
     showgrid="false"
     inkscape:pagecheckerboard="true"
     inkscape:zoom="0.48207514"
     inkscape:cx="-260.17692"
     inkscape:cy="50.581931"
     inkscape:window-x="0"
     inkscape:window-y="0"
     inkscape:window-maximized="1"
     inkscape:current-layer="svg2" />
  <title
     id="title3095">The Simpsons Logo</title>
  <defs
     id="defs4" />
  <metadata
     id="metadata7">
    <rdf:RDF>
      <cc:Work
         rdf:about="">
        <dc:format>image/svg+xml</dc:format>
        <dc:type
           rdf:resource="http://purl.org/dc/dcmitype/StillImage" />
        <dc:title>The Simpsons Logo</dc:title>
      </cc:Work>
    </rdf:RDF>
  </metadata>
  <g
     transform="translate(-246.99831,-178.35736)"
     id="layer1"
     style="display:none">
    <image
       xlink:href="file:///C:/Documents%20and%20Settings/admin/Desktop/The_Simpsons_Logo_2009.jpg"
       x="233.21429"
       y="290.93362"
       width="185"
       height="100"
       id="image2993" />
    <image
       xlink:href="file:///C:/Documents%20and%20Settings/admin/Desktop/The_Simpsons_Logo_2009.jpg"
       x="233.21429"
       y="290.93362"
       width="185"
       height="100"
       id="image3000" />
  </g>
  <path
     inkscape:connector-curvature="0"
     style="display:inline;fill:#ffffff;fill-opacity:1;stroke:none;stroke-width:2.52273226"
     id="path3930"
     d="m 89.289935,163.91262 c -27.224574,-6.70871 -36.916808,-12.83598 -30.482379,-19.2704 3.259294,-3.25932 5.658235,-3.29933 18.376868,-0.3067 22.394273,5.26931 56.253326,4.23754 56.253326,-1.71417 0,-1.16807 -14.6488,-11.75296 -32.55288,-23.52193 C 82.980808,107.33044 65.330483,93.766117 61.661976,88.956431 49.424455,72.912204 50.859613,56.554933 65.72239,42.678014 74.281113,34.687006 98.041218,24.41994 115.48094,21.17669 c 12.81356,-2.382924 16.77991,-2.15121 26.46074,1.545929 9.23522,3.526957 11.94524,6.038136 14.33684,13.284709 2.46675,7.474403 2.30115,9.583533 -1.01263,12.897344 -3.60039,3.600367 -4.19303,3.353114 -6.49886,-2.711635 -3.17502,-8.350925 -10.77232,-10.373904 -32.56078,-8.670151 -18.882901,1.476555 -38.66279,9.316399 -44.487981,17.633041 -6.327543,9.033829 -4.849121,20.774953 3.865785,30.700674 4.255549,4.846791 21.147007,17.900969 37.536566,29.009299 16.38959,11.10832 30.47338,21.9537 31.29732,24.10085 2.21513,5.77259 -3.47789,16.36285 -10.84063,20.16584 -7.02549,3.62877 -36.18673,6.77622 -44.287375,4.78003 z" />
  <path
     inkscape:connector-curvature="0"
     style="display:inline;fill:#ffffff;fill-opacity:1;stroke:none;stroke-width:2.52273226"
     id="path3928"
     d="m 125.65933,158.32213 c 6.62513,-0.69493 0.005,-4.01649 -9.39193,-4.71221 -25.277017,-1.87147 -32.376138,-2.7367 -36.437712,-4.44094 -2.739538,-1.14954 -4.414783,-0.73626 -4.414783,1.08906 0,1.61783 1.310634,2.13151 2.912521,1.14149 1.868135,-1.15458 2.22495,-0.68757 0.995118,1.30239 -1.415279,2.28996 -3.173727,1.75392 -6.714683,-2.04684 -4.545384,-4.87892 -13.897052,-4.85357 -10.879183,0.0295 0.781669,1.26474 2.381029,1.70633 3.554152,0.98129 1.17312,-0.72504 2.513701,-0.20862 2.979094,1.14726 0.465368,1.35603 3.371152,2.84749 6.457287,3.31437 3.086133,0.46686 6.145706,1.38339 6.799043,2.03675 1.043302,1.04328 34.557116,1.16318 44.141076,0.15792 z" />
  <path
     inkscape:connector-curvature="0"
     style="display:inline;fill:#ffffff;fill-opacity:1;stroke:none;stroke-width:2.52273226"
     id="path3926"
     d="m 136.02516,149.66815 c 2.11683,-1.69025 3.67777,-4.49222 3.46877,-6.2266 -0.20915,-1.73438 -0.52193,-4.35565 -0.69538,-5.82504 -0.17356,-1.4694 -1.33162,-2.04351 -2.57374,-1.27585 -1.24209,0.76766 -2.88084,-0.22629 -3.64159,-2.20883 -1.64668,-4.2912 -11.75913,-10.17365 -11.75913,-6.84034 0,1.27449 1.98665,2.83843 4.41478,3.47545 2.42813,0.63698 6.03271,4.18829 8.0102,7.89179 3.25707,6.09991 3.13836,7.07939 -1.26136,10.4081 -2.67124,2.02097 -3.72156,3.67449 -2.33406,3.67449 1.3875,0 4.25468,-1.38294 6.37151,-3.07317 z" />
  <path
     inkscape:connector-curvature="0"
     style="display:inline;fill:#ffffff;fill-opacity:1;stroke:none;stroke-width:2.52273226"
     id="path3924"
     d="M 106.94099,116.12688 C 90.654632,104.46681 85.505836,101.69204 85.505836,104.57507 c 0,1.26797 3.135732,3.60428 6.968292,5.19178 3.83256,1.5875 10.360132,5.65771 14.505712,9.04491 4.14558,3.38719 8.66902,6.19935 10.05208,6.24925 1.38306,0.0499 -3.15786,-3.97045 -10.09093,-8.93413 z" />
  <path
     inkscape:connector-curvature="0"
     style="display:inline;fill:#ffffff;fill-opacity:1;stroke:none;stroke-width:2.52273226"
     id="path3922"
     d="M 75.414905,92.356215 C 71.019219,86.806209 66.193687,82.265289 64.691526,82.265289 c -1.502161,0 -2.078127,-0.653062 -1.279934,-1.451256 0.798193,-0.798193 0.499022,-4.771497 -0.664816,-8.829564 -1.163837,-4.058067 -1.301654,-7.37831 -0.306284,-7.37831 0.995394,0 1.984407,-2.318064 2.197829,-5.151269 0.213424,-2.833205 2.909745,-7.193219 5.991818,-9.688957 3.416461,-2.76648 4.568819,-5.177329 2.952227,-6.176431 -3.676429,-2.27215 -15.98663,14.529854 -16.808687,22.941879 -0.87496,8.953505 2.059204,14.858944 13.144645,26.455512 11.975187,12.527367 15.589481,12.112647 5.496581,-0.630678 z" />
  <path
     inkscape:connector-curvature="0"
     style="display:inline;fill:#ffffff;fill-opacity:1;stroke:none;stroke-width:2.52273226"
     id="path3920"
     d="m 70.369439,91.094849 c 0,-0.69376 0.567615,-1.261366 1.261367,-1.261366 0.693751,0 1.261366,0.567606 1.261366,1.261366 0,0.693751 -0.567615,1.261366 -1.261366,1.261366 -0.693752,0 -1.261367,-0.567615 -1.261367,-1.261366 z" />
  <path
     inkscape:connector-curvature="0"
     style="display:inline;fill:#ffffff;fill-opacity:1;stroke:none;stroke-width:2.52273226"
     id="path3918"
     d="m 60.27851,78.481186 c 0,-0.693751 0.567615,-1.261366 1.261367,-1.261366 0.693751,0 1.261366,0.567615 1.261366,1.261366 0,0.693751 -0.567615,1.261366 -1.261366,1.261366 -0.693752,0 -1.261367,-0.567615 -1.261367,-1.261366 z" />
  <path
     inkscape:connector-curvature="0"
     style="display:inline;fill:#ffffff;fill-opacity:1;stroke:none;stroke-width:2.52273226"
     id="path3916"
     d="m 69.108073,46.947031 c 0.857527,-1.387503 2.12674,-2.522732 2.820491,-2.522732 0.693751,0 0.559769,1.135229 -0.297758,2.522732 -0.857527,1.387503 -2.126739,2.522733 -2.82049,2.522733 -0.693752,0 -0.55977,-1.13523 0.297757,-2.522733 z" />
  <path
     inkscape:connector-curvature="0"
     style="display:inline;fill:#ffffff;fill-opacity:1;stroke:none;stroke-width:2.52273226"
     id="path3914"
     d="m 152.7787,42.742469 c -0.92501,-0.924985 -1.68183,-0.168266 -1.68183,1.68183 0,1.849995 0.75682,2.606815 1.68183,1.68183 0.92498,-0.92501 0.92498,-2.438649 0,-3.36366 z" />
  <path
     inkscape:connector-curvature="0"
     style="display:inline;fill:#ffffff;fill-opacity:1;stroke:none;stroke-width:2.52273226"
     id="path3912"
     d="m 89.663224,38.055762 c 2.569705,-0.622888 10.915936,-2.861409 18.547206,-4.9745 7.63126,-2.113091 15.57787,-3.092718 17.65912,-2.176967 2.08126,0.915752 6.05739,1.87159 8.83581,2.12409 2.77847,0.252526 7.70042,1.876636 10.9377,3.609173 3.23726,1.732536 6.54552,2.490466 7.35169,1.684301 0.80617,-0.806164 0.14128,-1.465757 -1.47741,-1.465757 -1.61877,0 -2.65939,-1.19189 -2.31252,-2.648643 0.34689,-1.456751 -3.10357,-4.258851 -7.66766,-6.226859 -5.92711,-2.555755 -7.7711,-2.700005 -6.45326,-0.504774 1.39137,2.317634 0.88901,2.299673 -2.04283,-0.07317 -4.67865,-3.786546 -27.60623,-1.743762 -30.44057,2.712166 -1.03455,1.62643 -1.8984,1.966721 -1.91965,0.756189 -0.0202,-1.210509 -1.741464,-0.787699 -3.822717,0.939591 -2.081256,1.727289 -3.7841,2.294904 -3.7841,1.261366 0,-1.033538 -1.523478,-0.614765 -3.385532,0.930586 -1.862028,1.545349 -4.132488,2.062763 -5.045464,1.14981 -0.912953,-0.912977 -1.659933,-0.335498 -1.659933,1.283239 0,1.618762 -0.851422,2.80876 -1.892049,2.644455 -4.240641,-0.669585 -5.883494,0.44506 -4.339078,2.943977 1.132812,1.832892 2.648897,1.803628 4.936965,-0.09536 1.816166,-1.507282 5.404601,-3.250163 7.974282,-3.87305 z" />
  <path
     inkscape:connector-curvature="0"
     style="display:inline;fill:#ffffff;fill-opacity:1;stroke:none;stroke-width:2.52273226"
     id="path3910"
     d="m 90.551301,35.594736 c 0,-0.693752 0.567614,-1.261366 1.261366,-1.261366 0.693752,0 1.261366,0.567614 1.261366,1.261366 0,0.693752 -0.567614,1.261366 -1.261366,1.261366 -0.693752,0 -1.261366,-0.567614 -1.261366,-1.261366 z" />
  <path
     inkscape:connector-curvature="0"
     style="display:inline;fill:#ffffff;fill-opacity:1;stroke:none;stroke-width:2.52273226"
     id="path3908"
     d="m 146.05141,33.072004 c 0,-0.693752 0.56761,-1.261367 1.26137,-1.261367 0.69375,0 1.26136,0.567615 1.26136,1.261367 0,0.69375 -0.56761,1.261366 -1.26136,1.261366 -0.69376,0 -1.26137,-0.567616 -1.26137,-1.261366 z" />
  <path
     inkscape:connector-curvature="0"
     style="display:inline;fill:#ffffff;fill-opacity:1;stroke:none;stroke-width:2.52273226"
     id="path3906"
     d="m 455.64327,75.327795 c -1.1206,0.04014 -2.33073,0.205629 -3.62643,0.394178 -15.53181,2.260116 -28.45958,16.750362 -28.45958,31.928327 0,6.37558 2.28012,10.31477 10.40628,17.8168 11.96153,11.04283 11.00363,14.92436 -4.96663,20.02419 -11.12696,3.55319 -14.16578,6.03733 -11.90414,9.69676 2.43724,3.94353 8.78342,3.3413 20.65487,-2.04972 10.32776,-4.69001 18.60515,-13.52236 18.60515,-19.78769 0,-1.80353 -4.54093,-8.16933 -10.09094,-14.19037 -11.7223,-12.7172 -12.43772,-17.12558 -3.94176,-25.621503 7.79544,-7.795471 15.46606,-8.112479 17.42261,-0.630688 1.97109,7.537561 7.3317,2.48419 7.3317,-6.937499 0,-7.492575 -3.58702,-10.923731 -11.43113,-10.642785 z" />
  <path
     inkscape:connector-curvature="0"
     style="display:inline;fill:#ffffff;fill-opacity:1;stroke:none;stroke-width:2.52273226"
     id="path3884"
     d="m 157.00605,141.42288 c -0.8713,-2.27055 -0.26698,-11.68514 1.34292,-20.92132 1.60993,-9.23618 3.19105,-21.333972 3.51367,-26.883979 0.40845,-7.027194 1.73543,-10.090932 4.37063,-10.090932 4.93695,0 5.96542,9.759266 3.79193,35.982891 -1.40137,16.9083 -2.6447,21.33723 -6.58139,23.44406 -3.77828,2.0221 -5.20458,1.68296 -6.43776,-1.53072 z" />
  <path
     inkscape:connector-curvature="0"
     style="display:inline;fill:#ffffff;fill-opacity:1;stroke:none;stroke-width:2.52273226"
     id="path3882"
     d="m 164.85752,122.43935 c 0.93649,-10.78704 0.69643,-12.12832 -1.1335,-6.33333 -1.27688,4.04361 -1.79519,8.20378 -1.15182,9.24478 0.64337,1.04101 -0.17685,2.34158 -1.82254,2.89017 -1.78443,0.59482 -2.27598,2.86419 -1.2177,5.62202 2.62039,6.82863 3.9974,3.87486 5.32556,-11.42364 z" />
  <path
     inkscape:connector-curvature="0"
     style="display:inline;fill:#ffffff;fill-opacity:1;stroke:none;stroke-width:2.52273226"
     id="path3880"
     d="m 166.8912,102.72641 c 0.68552,-2.62143 0.26769,-6.310911 -0.92851,-8.198885 -1.47868,-2.333857 -2.18727,-0.80813 -2.21354,4.766199 -0.0432,9.178686 1.26554,10.608526 3.14205,3.432686 z" />
  <path
     inkscape:connector-curvature="0"
     style="display:inline;fill:#ffffff;fill-opacity:1;stroke:none;stroke-width:2.52273226"
     id="path3878"
     d="m 228.63098,140.51893 c -0.69248,-2.64806 -0.42124,-9.39637 0.60276,-14.99622 1.15011,-6.28955 0.84391,-11.19949 -0.80108,-12.84445 -3.8631,-3.86312 1.60944,-3.39374 5.71865,0.49049 2.7326,2.58298 2.92392,2.24072 1.0577,-1.89204 -1.25311,-2.77502 -2.12692,-8.31546 -1.94175,-12.312103 l 0.33664,-7.266626 -4.48393,5.94447 c -2.46616,3.269449 -4.2856,6.965159 -4.04321,8.212649 0.24243,1.24752 -1.04194,2.80972 -2.85407,3.47159 -2.52937,0.92379 -2.38285,-0.97928 0.63069,-8.19164 2.159,-5.167242 3.92546,-9.902937 3.92546,-10.523732 0,-0.620824 2.55428,-0.765974 5.67615,-0.322611 5.36257,0.761617 5.71642,2.109255 6.40486,24.395483 0.47032,15.22466 -0.31014,24.84109 -2.20096,27.11939 -4.0095,4.83117 -6.53424,4.42718 -8.02791,-1.28465 z" />
  <path
     inkscape:connector-curvature="0"
     style="display:inline;fill:#ffffff;fill-opacity:1;stroke:none;stroke-width:2.52273226"
     id="path3876"
     d="m 235.07801,132.71993 c 0.72566,-2.77501 0.29046,-5.04546 -0.96714,-5.04546 -1.25762,0 -2.28656,2.27045 -2.28656,5.04546 0,2.77501 0.43522,5.04547 0.96713,5.04547 0.53192,0 1.56087,-2.27046 2.28657,-5.04547 z" />
  <path
     inkscape:connector-curvature="0"
     style="display:inline;fill:#ffffff;fill-opacity:1;stroke:none;stroke-width:2.52273226"
     id="path3874"
     d="m 236.86978,123.89037 c 0,-0.69375 -0.56762,-1.26137 -1.26138,-1.26137 -0.69375,0 -1.26136,0.56762 -1.26136,1.26137 0,0.69375 0.56761,1.26137 1.26136,1.26137 0.69376,0 1.26138,-0.56762 1.26138,-1.26137 z" />
  <path
     inkscape:connector-curvature="0"
     style="display:inline;fill:#ffffff;fill-opacity:1;stroke:none;stroke-width:2.52273226"
     id="path3872"
     d="m 295.83492,141.62816 c -6.89286,-5.04017 -2.52751,-11.43096 7.8081,-11.43096 10.70302,0 11.20405,-3.0191 2.6019,-15.67831 -9.33866,-13.74308 -8.33517,-20.661726 4.32731,-29.834383 7.4355,-5.386234 12.9369,-7.47773 18.28982,-6.953328 10.01483,0.981139 10.06754,7.51423 0.0875,10.840928 -16.09543,5.365155 -17.92827,11.420314 -7.56818,25.003093 7.95822,10.43379 8.24052,20.45507 0.69004,24.49595 -9.9601,5.33049 -21.64462,6.91461 -26.23645,3.55701 z" />
  <path
     inkscape:connector-curvature="0"
     style="display:inline;fill:#ffffff;fill-opacity:1;stroke:none;stroke-width:2.52273226"
     id="path3870"
     d="m 307.14492,137.48867 c -4.45514,-2.8229 -9.72957,-2.84384 -9.72957,-0.0385 0,1.21406 2.95927,2.20739 6.57615,2.20739 4.64101,0 5.56897,-0.6382 3.15342,-2.16876 z" />
  <path
     inkscape:connector-curvature="0"
     style="display:inline;fill:#ffffff;fill-opacity:1;stroke:none;stroke-width:2.52273226"
     id="path3868"
     d="m 320.85865,128.4835 c -1.12799,-2.93951 -0.65667,-3.57884 1.607,-2.17981 2.54294,1.57164 2.59728,0.84761 0.26368,-3.51275 -1.6167,-3.02082 -4.56801,-6.11735 -6.55849,-6.88119 -1.99052,-0.76381 -3.61909,-2.97014 -3.61909,-4.90296 0,-1.93281 -1.09961,-3.51418 -2.44358,-3.51418 -1.34394,0 -1.85988,-1.52096 -1.14655,-3.37994 0.71335,-1.85895 -0.45749,-4.83602 -2.6019,-6.615711 -3.27364,-2.716877 -3.89891,-2.500018 -3.89891,1.35227 0,6.383421 12.66655,24.044871 15.83863,22.084401 1.67121,-1.03286 1.80873,-0.34113 0.38491,1.93627 -1.21832,1.94875 -2.24515,5.24604 -2.28184,7.3273 -0.0411,2.33232 -2.00239,3.50178 -5.11214,3.04822 -3.99991,-0.58337 -4.28947,-0.22781 -1.39729,1.71604 5.18059,3.48182 13.01213,-1.14469 10.96557,-6.47796 z" />
  <path
     inkscape:connector-curvature="0"
     style="display:inline;fill:#ffffff;fill-opacity:1;stroke:none;stroke-width:2.52273226"
     id="path3866"
     d="m 319.16627,101.26529 c 1.91203,0 3.47641,-1.20224 3.47641,-2.671633 0,-1.469388 -1.41904,-1.864327 -3.15341,-0.877632 -6.24021,3.550035 -11.98045,9.429975 -11.85068,12.139125 0.0729,1.51933 1.9141,0.20814 4.0918,-2.91372 2.17773,-3.12188 5.52388,-5.67614 7.43588,-5.67614 z" />
  <path
     inkscape:connector-curvature="0"
     style="display:inline;fill:#ffffff;fill-opacity:1;stroke:none;stroke-width:2.52273226"
     id="path3864"
     d="m 330.21087,96.219822 c 0,-1.387511 -0.50061,-2.522741 -1.11248,-2.522741 -0.61185,0 -1.81409,1.13523 -2.67162,2.522741 -0.85753,1.387502 -0.35691,2.522733 1.11247,2.522733 1.46939,0 2.67163,-1.135231 2.67163,-2.522733 z" />
  <path
     inkscape:connector-curvature="0"
     style="display:inline;fill:#ffffff;fill-opacity:1;stroke:none;stroke-width:2.52273226"
     id="path3862"
     d="m 350.5557,103.31436 c -3.59891,0.25988 -5.80573,3.84556 -10.0121,12.53483 -5.89686,12.1813 -6.49416,17.47052 -2.68041,24.59664 3.50744,6.55368 22.64339,6.87792 28.14423,0.47301 9.89999,-11.52702 6.5904,-28.50064 -6.77983,-34.84525 -3.90322,-1.8522 -6.51254,-2.91517 -8.67189,-2.75923 z m 4.49362,14.50571 c 5.4024,-0.34348 8.07813,4.89739 5.04545,10.56394 -1.60198,5.2675 -4.36082,6.74407 -7.56819,7.3317 -5.86076,1.12034 -6.18791,0.67881 -4.80896,-7.80471 0.98548,-6.06272 3.05644,-9.32248 6.228,-9.93326 0.38322,-0.0739 0.74351,-0.13477 1.1037,-0.15767 z" />
  <path
     inkscape:connector-curvature="0"
     style="display:inline;fill:#ffffff;fill-opacity:1;stroke:none;stroke-width:2.52273226"
     id="path3858"
     d="m 340.3018,132.71996 c 0,-1.85 0.75682,-2.60681 1.68183,-1.68183 0.92499,0.92501 0.92499,2.43865 0,3.36367 -0.92501,0.92497 -1.68183,0.16825 -1.68183,-1.68184 z" />
  <path
     inkscape:connector-curvature="0"
     style="display:inline;fill:#ffffff;fill-opacity:1;stroke:none;stroke-width:2.52273226"
     id="path3852"
     d="m 403.1389,87.310771 c -4.60759,0 -5.17854,1.020222 -3.7841,6.937517 5.69513,24.167192 3.63276,38.081702 -3.62642,24.517802 -2.09658,-3.9175 -5.47063,-6.228 -9.22374,-6.228 -6.74613,0 -7.38636,1.17704 -9.53909,19.55118 -1.28618,10.97788 -0.8164,13.24435 2.4439,13.24435 2.16337,0 4.98802,-2.83808 6.30683,-6.30683 2.82394,-7.42752 4.35164,-7.75059 10.56394,-2.12855 4.35401,3.94032 4.9858,3.8811 10.87928,-1.65555 5.28241,-4.96256 6.30684,-8.19525 6.30684,-20.41837 0,-18.700205 -3.3015,-27.513549 -10.32744,-27.513549 z" />
  <path
     inkscape:connector-curvature="0"
     style="display:inline;fill:#ffffff;fill-opacity:1;stroke:none;stroke-width:2.52273226"
     id="path3840"
     d="m 184.96963,134.4112 c -0.7826,-2.03945 0.35769,-9.70412 2.53403,-17.03258 2.17631,-7.32847 3.95693,-15.78055 3.95693,-18.782433 0,-3.001897 2.3369,-7.572838 5.19314,-10.157673 7.0871,-6.413751 12.49524,-2.638318 18.22347,12.721646 5.38244,14.43281 3.79982,18.24303 -2.28099,5.49147 -2.45213,-5.1422 -5.48728,-8.328402 -7.04563,-7.396248 -1.50575,0.900668 -1.26353,-0.182151 0.53823,-2.406184 4.29326,-5.299582 -0.1713,-8.179709 -7.00788,-4.520852 -8.98222,4.807099 -6.06555,11.665584 4.38138,10.302834 2.97282,-0.38781 9.48273,11.42525 8.58752,15.58306 -0.67953,3.15605 2.71528,2.13111 7.60833,-2.29704 6.27026,-5.67452 9.08736,-2.16544 3.35058,4.17362 -5.18202,5.72609 -10.98344,6.60213 -12.63198,1.90753 -7.51824,-21.40998 -9.41086,-21.37724 -11.33385,0.19601 -1.1112,12.46649 -2.00805,14.41365 -6.96291,15.11725 -3.27741,0.46539 -6.29039,-0.76366 -7.11037,-2.90049 z" />
  <path
     inkscape:connector-curvature="0"
     style="display:inline;fill:#ffffff;fill-opacity:1;stroke:none;stroke-width:2.52273226"
     id="path3838"
     d="m 194.55164,129.56654 c 0.6095,-1.73437 0.2765,-5.99148 -0.74,-9.46024 -1.78982,-6.10792 -2.33245,-5.0593 -3.58994,6.93751 -0.63162,6.02581 2.46496,7.82993 4.32994,2.52273 z" />
  <path
     inkscape:connector-curvature="0"
     style="display:inline;fill:#ffffff;fill-opacity:1;stroke:none;stroke-width:2.52273226"
     id="path3836"
     d="m 193.98332,111.27673 c 0,-0.69376 -0.56761,-1.26137 -1.26136,-1.26137 -0.69375,0 -1.26137,0.56761 -1.26137,1.26137 0,0.69376 0.56762,1.26136 1.26137,1.26136 0.69375,0 1.26136,-0.5676 1.26136,-1.26136 z" />
  <path
     inkscape:connector-curvature="0"
     style="display:inline;fill:#ffffff;fill-opacity:1;stroke:none;stroke-width:2.52273226"
     id="path3834"
     d="m 203.22735,112.90984 c 0,-2.93689 -2.32951,-5.33982 -5.17669,-5.33982 -2.84717,0 -5.17668,2.40293 -5.17668,5.33982 0,2.9369 2.32951,5.33983 5.17668,5.33983 2.84718,0 5.17669,-2.40293 5.17669,-5.33983 z" />
  <path
     inkscape:connector-curvature="0"
     style="display:inline;fill:#ffffff;fill-opacity:1;stroke:none;stroke-width:2.52273226"
     id="path3832"
     d="m 276.60811,80.057919 c -7.33209,0.457028 -14.34938,7.020973 -16.63428,19.866512 -1.19988,6.745739 -3.23749,11.110269 -5.04546,10.721619 -5.01779,-1.07872 -6.35956,6.81822 -1.97089,11.66764 2.24952,2.4857 4.09945,6.48778 4.09945,8.9084 0,7.19422 8.73965,3.68474 9.61791,-3.86295 0.68773,-5.91035 1.73711,-6.54043 10.64278,-6.30683 13.87939,0.36394 21.3544,-7.26011 19.07817,-19.3935 -2.7796,-14.816542 -11.478,-22.118858 -19.78768,-21.600891 z m 1.18252,10.16977 c 1.51309,0.129817 3.2722,1.883569 5.59732,5.203132 6.80728,9.718799 5.1301,14.584539 -5.04547,14.584539 -2.15843,0 -3.94427,0.2131 -5.28197,0.55185 l -4.57245,-3.15341 c 1.21729,-2.72656 2.58271,-6.14048 3.78409,-9.381414 2.01474,-5.435152 3.57309,-7.971629 5.51848,-7.804697 z" />
  <path
     inkscape:connector-curvature="0"
     style="display:inline;fill:#ffffff;fill-opacity:1;stroke:none;stroke-width:2.52273226"
     id="path3810"
     d="m 197.57581,97.695356 c -2.73464,-4.779154 -1.1382,-8.68936 3.54764,-8.68936 4.68584,0 8.51972,3.910206 8.51972,8.68936 0,4.779134 -1.59643,8.689344 -3.54765,8.689344 -1.9512,0 -5.78509,-3.91021 -8.51971,-8.689344 z" />
  <path
     inkscape:connector-curvature="0"
     style="display:inline;fill:#ffffff;fill-opacity:1;stroke:none;stroke-width:2.52273226"
     id="path3808"
     d="m 204.07425,107.57214 c 0,-0.69375 0.56762,-1.26137 1.26137,-1.26137 0.69375,0 1.26136,0.56762 1.26136,1.26137 0,0.69376 -0.56761,1.26136 -1.26136,1.26136 -0.69375,0 -1.26137,-0.5676 -1.26137,-1.26136 z" />
  <path
     inkscape:connector-curvature="0"
     style="display:inline;fill:#ffffff;fill-opacity:1;stroke:none;stroke-width:2.52273226"
     id="path3806"
     d="m 220.55614,8.0030468 c -2.00497,-0.01615 -4.3524,2.1326412 -5.43964,6.4645012 -1.52895,6.091842 -2.46584,6.460263 -14.50571,5.676147 -10.66327,-0.694457 -13.00494,-0.114935 -13.71736,3.547592 -0.93195,4.791199 0.82296,5.668481 15.53057,8.120046 l 9.69676,1.655542 -0.55185,14.348042 c -0.28835,7.892242 -0.40226,15.199462 -0.23651,16.240089 0.45066,2.830531 2.07293,2.341878 6.4645,-2.04972 2.63023,-2.630201 3.94177,-8.572925 3.94177,-17.659126 0,-13.32757 0.1992,-13.717358 7.09519,-13.717358 8.6437,0 17.04416,-5.668302 14.50571,-9.775588 -1.18057,-1.910213 -4.95665,-2.377348 -10.48511,-1.340202 -8.03813,1.507964 -8.59305,1.167143 -8.59305,-4.966629 0,-4.340562 -1.70028,-6.5272842 -3.70527,-6.5433362 z" />
  <path
     inkscape:connector-curvature="0"
     style="display:inline;fill:#ffffff;fill-opacity:1;stroke:none;stroke-width:2.52273226"
     id="path3800"
     d="m 275.26788,3.1940878 c -2.33094,0.01211 -3.07458,2.157365 -3.07458,8.0412092 0,17.134575 -2.70386,24.795256 -8.51421,23.965958 -4.83129,-0.689539 -5.27267,-2.157138 -4.57245,-15.294065 0.60035,-11.2636222 -0.034,-14.5057112 -2.83809,-14.5057112 -3.48056,0 -6.77983,10.0849252 -6.77983,20.8125412 0,2.795465 -1.98665,6.632567 -4.41478,8.435387 -3.7121,2.756161 -3.91286,4.092579 -1.26136,8.435386 1.73438,2.840673 3.15341,8.348251 3.15341,12.298321 0,3.950095 0.78046,7.954477 1.73439,8.908399 3.60171,3.601704 7.08847,-0.338325 7.33167,-8.277716 0.24598,-8.030513 4.77782,-13.487587 9.85443,-11.904144 1.38749,0.4328 3.09034,5.152025 3.7841,10.485107 0.69375,5.333107 2.58357,10.118401 4.17826,10.642777 3.63148,1.194185 6.79612,-19.440832 6.70101,-43.438299 -0.0568,-14.3461212 -0.80458,-17.7848592 -4.17827,-18.4474802 -0.40125,-0.07881 -0.7707,-0.15941 -1.1037,-0.15767 z" />
  <path
     inkscape:connector-curvature="0"
     style="display:inline;fill:#ffffff;fill-opacity:1;stroke:none;stroke-width:2.52273226"
     id="path3786"
     d="m 315.94697,2.8787468 c -14.52328,0 -28.61725,18.6656952 -28.61725,37.9198202 0,8.115075 1.56964,11.975941 7.33169,17.737962 4.06546,4.065484 10.008,7.392741 13.24434,7.331691 14.64825,-0.276315 37.72949,-13.277014 32.63785,-18.368645 -1.51507,-1.515078 -5.6301,-0.39458 -11.11579,2.995744 -7.02215,4.339932 -12.96905,5.932344 -18.60514,4.887795 -2.02268,-0.374868 -4.0191,-1.072962 -5.9915,-2.128555 -7.27765,-3.894873 -5.91442,-9.207621 2.83808,-10.95812 4.25257,-0.850513 11.21698,-4.988956 15.45174,-9.22374 6.39815,-6.398154 7.37616,-9.001286 6.07032,-15.530571 C 327.10536,7.1123948 323.32675,2.8787468 315.94697,2.8787468 Z m -0.47301,11.4311302 c 0.31755,-0.02322 0.64899,-0.03627 0.94601,0 2.16029,0.263769 3.70527,2.132529 3.70527,6.149159 0,2.735699 -6.97652,10.255111 -12.85017,15.057561 l -3.7841,-4.651289 c 0.0227,-0.295152 0.0654,-0.557884 0.0788,-0.867189 0.37202,-8.498265 7.14062,-15.341767 11.90414,-15.688242 z" />
  <path
     inkscape:connector-curvature="0"
     style="display:inline;fill:#ffffff;fill-opacity:1;stroke:none;stroke-width:2.52273226"
     id="path3834-1"
     d="m 218.4848,115.83265 c 0,-2.66771 -2.25609,-4.85041 -5.01355,-4.85041 -2.75745,0 -5.01353,2.1827 -5.01353,4.85041 0,2.66772 2.25608,4.85041 5.01353,4.85041 2.75746,0 5.01355,-2.18269 5.01355,-4.85041 z" />
  <path
     inkscape:connector-curvature="0"
     style="display:inline;fill:#ffffff;fill-opacity:1;stroke:none;stroke-width:2.52273226"
     id="path3834-7"
     d="m 216.52715,107.02319 c 0,-3.42142 -2.5057,-6.22077 -5.56822,-6.22077 -3.06251,0 -5.56821,2.79935 -5.56821,6.22077 0,3.42142 2.5057,6.22076 5.56821,6.22076 3.06252,0 5.56822,-2.79934 5.56822,-6.22076 z" />
  <rect
     style="display:inline;fill:#ffffff;fill-opacity:1;stroke:none;stroke-width:2.52273226"
     id="rect3981-8"
     y="91.654854"
     x="227.21548"
     height="18.918394"
     width="7.7519274" />
  <rect
     style="display:inline;fill:#ffffff;fill-opacity:1;stroke:none;stroke-width:2.52273226"
     id="rect3981-82"
     y="108.81985"
     x="229.98404"
     height="8.7670603"
     width="7.7519274" />
  <rect
     style="display:inline;fill:#ffffff;fill-opacity:1;stroke:none;stroke-width:2.52273226"
     id="rect3981-45"
     y="100.12732"
     x="223.46205"
     height="8.7670603"
     width="7.7519274" />
  <rect
     style="display:inline;fill:#ffffff;fill-opacity:1;stroke:none;stroke-width:2.52273226"
     id="rect3981-5"
     transform="matrix(0.87620877,0.48193173,-0.48417118,0.8749733,0,0)"
     y="-14.702257"
     x="244.97137"
     height="9.5752993"
     width="8.4802437" />
  <rect
     style="display:inline;fill:#ffffff;fill-opacity:1;stroke:none;stroke-width:2.52273226"
     id="rect3981-1"
     y="112.13431"
     x="213.93478"
     height="8.7670603"
     width="7.7519274" />
  <path
     d="m 15.393347,200.22741 c 1.5575,0 3.07227,-0.3435 4.5443,-1.03048 1.47201,-0.687 2.68288,-1.60952 3.63257,-2.76759 v 0 l -2.70663,-2.76758 c -0.70277,0.844 -1.51002,1.49175 -2.42171,1.9432 -0.91171,0.45144 -1.88989,0.67716 -2.93455,0.67716 -0.93071,0 -1.79019,-0.17173 -2.57842,-0.51523 -0.78825,-0.34349 -1.47203,-0.80967 -2.05134,-1.39851 -0.57933,-0.58885 -1.0351696,-1.29058 -1.3675696,-2.10514 -0.33239,-0.81459 -0.49859,-1.69294 -0.49859,-2.6351 0,-0.9618 0.16138,-1.84997 0.48436,-2.66454 0.32289,-0.81458 0.7692396,-1.52119 1.3390596,-2.11986 0.56981,-0.59866 1.24885,-1.06974 2.03709,-1.41324 0.78825,-0.34348 1.62873,-0.51524 2.52143,-0.51524 1.06367,0 2.07034,0.24045 3.02004,0.72134 0.9497,0.4809 1.77592,1.1728 2.47869,2.0757 v 0 l 2.79211,-2.85593 c -0.9307,-1.17768 -2.14631,-2.11493 -3.64683,-2.81174 -1.50051,-0.6968 -3.04851,-1.0452 -4.64401,-1.0452 -1.48152,0 -2.87281,0.27479 -4.17389,0.82438 -1.3010896,0.5496 -2.4264696,1.29548 -3.3761696,2.23763 -0.94969,0.94215 -1.69995,2.06587 -2.25077,3.37115 -0.55083,1.30528 -0.82623,2.7038 -0.82623,4.19555 0,1.49174 0.27066,2.88536 0.81198,4.18083 0.54133,1.29546 1.28683,2.41428 2.23652,3.35644 0.9497,0.94214 2.07508,1.68802 3.3761796,2.23761 1.30108,0.5496 2.70188,0.82439 4.20238,0.82439 z m 53.9901,0.0295 c 1.48154,0 2.8681,-0.27479 4.15968,-0.82439 1.29159,-0.54959 2.40748,-1.30037 3.34767,-2.25234 0.9402,-0.95198 1.6857,-2.0806 2.23652,-3.38588 0.55083,-1.30529 0.82623,-2.69399 0.82623,-4.1661 0,-1.47213 -0.2754,-2.86084 -0.82623,-4.16611 -0.55082,-1.30529 -1.29632,-2.43391 -2.23652,-3.38587 -0.94019,-0.95197 -2.05608,-1.70277 -3.34767,-2.25235 -1.29158,-0.5496 -2.67814,-0.82439 -4.15968,-0.82439 -1.46253,0 -2.83956,0.27479 -4.13116,0.82439 -1.29159,0.54958 -2.40747,1.30038 -3.34766,2.25235 -0.9402,0.95196 -1.68571,2.08058 -2.23652,3.38587 -0.55084,1.30527 -0.82625,2.69398 -0.82625,4.16611 0,1.47211 0.27541,2.86081 0.82625,4.1661 0.55081,1.30528 1.29632,2.4339 2.23652,3.38588 0.94019,0.95197 2.05607,1.70275 3.34766,2.25234 1.2916,0.5496 2.66863,0.82439 4.13116,0.82439 z m 0,-3.91584 c -0.89271,0 -1.72368,-0.17175 -2.49292,-0.51526 -0.76926,-0.34348 -1.43405,-0.81456 -1.99438,-1.41321 -0.5603,-0.59868 -1.00191,-1.3102 -1.32481,-2.13459 -0.32291,-0.82439 -0.48436,-1.70766 -0.48436,-2.64981 0,-0.96179 0.16139,-1.84997 0.48436,-2.66454 0.3229,-0.81459 0.76451,-1.52119 1.32481,-2.11986 0.56033,-0.59867 1.22512,-1.06974 1.99438,-1.41323 0.76924,-0.34351 1.60021,-0.51525 2.49292,-0.51525 0.89273,0 1.72847,0.17174 2.50721,0.51525 0.77875,0.34349 1.44827,0.81456 2.00861,1.41323 0.5603,0.59867 1.00193,1.30527 1.32481,2.11986 0.3229,0.81457 0.48435,1.70275 0.48435,2.66454 0,0.94215 -0.16139,1.82542 -0.48435,2.64981 -0.32288,0.82439 -0.76451,1.53591 -1.32481,2.13459 -0.56034,0.59865 -1.22986,1.06973 -2.00861,1.41321 -0.77874,0.34351 -1.61448,0.51526 -2.50721,0.51526 z m 62.622853,3.59198 v -3.76864 h -10.91198 v -16.84112 h -4.13118 v 20.60969 z m 52.08122,0 v -3.76864 h -10.91198 v -16.84112 h -4.13117 v 20.60969 z m 52.48009,0 v -3.70976 h -11.31085 v -4.88744 h 7.37913 v -3.59198 h -7.37913 v -4.71078 h 11.1969 v -3.70975 H 221.1256 v 20.60969 z m 45.81324,0.29442 c 1.55752,0 3.07227,-0.3435 4.54429,-1.03049 1.47202,-0.68699 2.68289,-1.60953 3.63259,-2.76759 v 0 l -2.70664,-2.76759 c -0.70277,0.84402 -1.51001,1.49175 -2.42171,1.9432 -0.91171,0.45147 -1.88989,0.67718 -2.93455,0.67718 -0.93071,0 -1.79019,-0.17174 -2.57843,-0.51524 -0.78824,-0.3435 -1.47202,-0.80967 -2.05133,-1.39852 -0.57933,-0.58885 -1.03518,-1.29055 -1.36757,-2.10513 -0.3324,-0.81457 -0.4986,-1.69294 -0.4986,-2.63509 0,-0.96179 0.16138,-1.84997 0.48435,-2.66454 0.32291,-0.81459 0.76925,-1.52119 1.33908,-2.11986 0.56981,-0.59867 1.24885,-1.06974 2.03708,-1.41323 0.78826,-0.34351 1.62874,-0.51525 2.52144,-0.51525 1.06367,0 2.07035,0.24045 3.02004,0.72134 0.9497,0.48089 1.77591,1.17279 2.47868,2.07569 v 0 l 2.79212,-2.85591 c -0.93069,-1.1777 -2.14631,-2.11495 -3.64681,-2.81176 -1.50053,-0.69679 -3.04853,-1.0452 -4.64403,-1.0452 -1.48152,0 -2.87281,0.27479 -4.17389,0.82439 -1.30109,0.54958 -2.42646,1.29546 -3.37617,2.23763 -0.94968,0.94214 -1.69995,2.06586 -2.25078,3.37114 -0.55081,1.30528 -0.82622,2.7038 -0.82622,4.19556 0,1.49175 0.27066,2.88535 0.81199,4.18082 0.54133,1.29547 1.28681,2.41427 2.23653,3.35644 0.9497,0.94216 2.07508,1.68802 3.37616,2.23761 1.30108,0.54959 2.70186,0.8244 4.20238,0.8244 z m 54.64541,-0.29442 v -16.84114 h 6.69533 v -3.76863 h -17.55034 v 3.76863 h 6.72382 v 16.84106 z m 47.32325,0 v -20.60976 h -4.13116 v 20.60969 z m 47.57966,0.32386 c 1.48154,0 2.86809,-0.27479 4.15968,-0.82439 1.29157,-0.54959 2.40746,-1.30037 3.34766,-2.25234 0.9402,-0.95198 1.68571,-2.0806 2.23654,-3.38588 0.5508,-1.30529 0.82622,-2.69399 0.82622,-4.1661 0,-1.47213 -0.27542,-2.86084 -0.82622,-4.16611 -0.55083,-1.30529 -1.29634,-2.43391 -2.23654,-3.38587 -0.9402,-0.95197 -2.05609,-1.70277 -3.34766,-2.25235 -1.29159,-0.5496 -2.67814,-0.82439 -4.15968,-0.82439 -1.46252,0 -2.83959,0.27479 -4.13115,0.82439 -1.29159,0.54958 -2.40747,1.30038 -3.34767,2.25235 -0.9402,0.95196 -1.68571,2.08058 -2.23654,3.38587 -0.55083,1.30527 -0.82625,2.69398 -0.82625,4.16611 0,1.47211 0.27542,2.86081 0.82625,4.1661 0.55083,1.30528 1.29634,2.4339 2.23654,3.38588 0.9402,0.95197 2.05608,1.70275 3.34767,2.25234 1.29156,0.5496 2.66863,0.82439 4.13115,0.82439 z m 0,-3.91584 c -0.8927,0 -1.7237,-0.17175 -2.49294,-0.51526 -0.76925,-0.34348 -1.43403,-0.81456 -1.99436,-1.41321 -0.56031,-0.59868 -1.00192,-1.3102 -1.32482,-2.13459 -0.32289,-0.82439 -0.48435,-1.70766 -0.48435,-2.64981 0,-0.96179 0.16138,-1.84997 0.48435,-2.66454 0.3229,-0.81459 0.76451,-1.52119 1.32482,-2.11986 0.56033,-0.59867 1.22511,-1.06974 1.99436,-1.41323 0.76924,-0.34351 1.60024,-0.51525 2.49294,-0.51525 0.89272,0 1.72846,0.17174 2.5072,0.51525 0.77876,0.34349 1.44826,0.81456 2.0086,1.41323 0.56032,0.59867 1.00193,1.30527 1.32482,2.11986 0.3229,0.81457 0.48435,1.70275 0.48435,2.66454 0,0.94215 -0.16137,1.82542 -0.48435,2.64981 -0.32289,0.82439 -0.7645,1.53591 -1.32482,2.13459 -0.56034,0.59865 -1.22984,1.06973 -2.0086,1.41321 -0.77874,0.34351 -1.61448,0.51526 -2.5072,0.51526 z m 51.48292,3.59198 v -13.77906 l 10.17123,13.77906 h 3.64683 v -20.60976 h -3.87476 v 13.33742 l -9.9148,-13.33742 h -3.93174 v 20.60969 z"
     id="COLLECTION"
     inkscape:connector-curvature="0"
     style="fill:#ffffff;fill-rule:nonzero;stroke:none;stroke-width:1.77145267" />
</svg>
