<?xml version="1.0" encoding="UTF-8" standalone="no"?>
<svg
   xmlns:dc="http://purl.org/dc/elements/1.1/"
   xmlns:cc="http://creativecommons.org/ns#"
   xmlns:rdf="http://www.w3.org/1999/02/22-rdf-syntax-ns#"
   xmlns:svg="http://www.w3.org/2000/svg"
   xmlns="http://www.w3.org/2000/svg"
   xmlns:sodipodi="http://sodipodi.sourceforge.net/DTD/sodipodi-0.dtd"
   xmlns:inkscape="http://www.inkscape.org/namespaces/inkscape"
   width="500"
   height="200"
   viewBox="0 0 500 200"
   version="1.1"
   id="svg32"
   sodipodi:docname="snes.svg"
   inkscape:version="0.92.5 (2060ec1f9f, 2020-04-08)"
   style="fill:none">
  <metadata
     id="metadata38">
    <rdf:RDF>
      <cc:Work
         rdf:about="">
        <dc:format>image/svg+xml</dc:format>
        <dc:type
           rdf:resource="http://purl.org/dc/dcmitype/StillImage" />
        <dc:title />
      </cc:Work>
    </rdf:RDF>
  </metadata>
  <defs
     id="defs36" />
  <sodipodi:namedview
     pagecolor="#ffffff"
     bordercolor="#666666"
     borderopacity="1"
     objecttolerance="10"
     gridtolerance="10"
     guidetolerance="10"
     inkscape:pageopacity="0"
     inkscape:pageshadow="2"
     inkscape:window-width="1366"
     inkscape:window-height="743"
     id="namedview34"
     showgrid="false"
     inkscape:pagecheckerboard="true"
     inkscape:zoom="1.7719614"
     inkscape:cx="190.95268"
     inkscape:cy="130.87163"
     inkscape:window-x="0"
     inkscape:window-y="0"
     inkscape:window-maximized="1"
     inkscape:current-layer="svg32" />
  <path
     d="m 26.95459,66.81653 c 1.719649,2.86608 9.973964,16.9672 11.005753,19.37471 1.261076,2.17822 2.063579,6.07609 1.261076,9.85932 l -3.095368,16.9672 c -0.917146,4.47108 -4.815017,7.91038 -9.744677,7.91038 H 11.707035 c -4.3564435,0 -7.5664548,-3.55394 -7.5664548,-7.91038 0,-0.45858 0,-1.03179 0,-1.37572 L 7.9238078,89.28661 H 18.127059 l -3.324655,18.91613 c 0,0.22929 0,0.34393 0,0.34393 0,1.37572 1.146433,2.63679 2.522152,2.63679 h 5.61752 c 1.834292,0 3.439298,-1.26107 3.783227,-3.09536 L 28.903525,95.70663 C 29.362098,93.29912 29.018169,92.03804 26.839947,88.25482 25.120298,85.15945 18.127059,71.97547 16.06348,68.0776 13.426685,62.918655 13.197398,60.62579 13.999901,56.269346 l 2.751439,-15.13291 c 0.917146,-4.585731 4.92966,-7.910388 9.630034,-7.910388 h 14.78898 c 4.241801,0 7.910385,3.553944 7.910385,7.910388 0,0.458573 0,0.917146 -0.114643,1.375719 L 45.182868,64.065088 H 34.864975 l 3.210011,-18.228279 c 0.114643,-0.229286 0.114643,-0.343929 0.114643,-0.343929 0,-1.37572 -1.261075,-2.522152 -2.636795,-2.522152 h -5.617519 c -1.834292,0 -3.324655,1.261076 -3.668585,2.866081 l -1.834292,9.744678 c -0.917146,5.158946 0.229287,7.566455 2.522152,11.235043 z"
     id="path2"
     style="fill:#ffffff;stroke-width:1.14643264"
     inkscape:connector-curvature="0" />
  <path
     d="m 53.437298,108.20263 c 0,0.22928 0,0.34392 0,0.34392 0,1.37572 1.146432,2.6368 2.522152,2.6368 h 5.617519 c 1.834292,0 3.324655,-1.26108 3.783228,-3.09537 L 79.002745,33.111293 H 89.435282 L 74.760944,113.01764 c -0.917146,4.47109 -4.92966,7.91039 -9.630034,7.91039 H 50.34193 c -4.241801,0 -7.681099,-3.55394 -7.681099,-7.91039 0,-0.45857 0,-1.03179 0,-1.49036 L 56.761952,33.111293 h 10.203251 z"
     id="path4"
     style="fill:#ffffff;stroke-width:1.14643264"
     inkscape:connector-curvature="0" />
  <path
     d="m 133.45818,33.111293 h 23.73115 l -1.605,9.973963 h -13.29862 l -4.92966,27.743674 h 13.06933 l -1.71965,9.74467 h -13.18397 l -5.38824,30.60975 h 12.95469 l -1.83429,9.74468 h -23.73127 z"
     id="path6"
     style="fill:#ffffff;stroke-width:1.14643264"
     inkscape:connector-curvature="0" />
  <path
     d="m 202.01485,120.92803 15.93541,-87.816737 h 10.54718 c 4.58573,46.889097 4.70037,58.353417 4.81502,67.066307 0.34393,-9.17146 1.49036,-22.12615 9.51539,-67.066307 h 10.54718 L 237.43961,120.92803 H 226.89243 C 222.42135,74.15358 222.3067,64.179616 222.19206,55.466729 221.84813,66.01391 220.7017,76.10252 212.67667,120.92803 Z"
     id="path8"
     style="fill:#ffffff;stroke-width:1.14643264"
     inkscape:connector-curvature="0" />
  <path
     d="M 256.01182,120.92803 H 245.35 l 15.93541,-87.816737 h 10.66183 z"
     id="path10"
     style="fill:#ffffff;stroke-width:1.14643264"
     inkscape:connector-curvature="0" />
  <path
     d="m 342.91141,43.085256 h -7.22252 L 321.58777,120.92803 H 310.8113 l 14.21577,-77.842774 h -7.56646 l 1.83429,-9.973963 h 25.56545 z"
     id="path12"
     style="fill:#ffffff;stroke-width:1.14643264"
     inkscape:connector-curvature="0" />
  <path
     d="m 349.21679,33.111293 h 23.8458 l -1.71965,9.973963 h -13.18397 l -4.92966,27.743674 h 13.06933 l -1.83429,9.74467 h -13.06933 l -5.50288,30.60975 h 13.06933 l -1.83429,9.74468 h -23.8458 z"
     id="path14"
     style="fill:#ffffff;stroke-width:1.14643264"
     inkscape:connector-curvature="0" />
  <path
     d="m 264.03685,120.92803 15.93541,-87.816737 h 10.54718 c 4.58574,46.889097 4.70038,58.353417 4.81502,67.066307 0.34393,-9.17146 1.49036,-22.12615 9.51539,-67.066307 h 10.54718 l -15.93541,87.816737 h -10.54718 c -4.47109,-46.77445 -4.58573,-56.748414 -4.70037,-65.461301 -0.45858,10.547181 -1.49037,20.635791 -9.5154,65.461301 z"
     id="path16"
     style="fill:#ffffff;stroke-width:1.14643264"
     inkscape:connector-curvature="0" />
  <path
     d="m 364.12042,120.92803 15.93541,-87.816737 h 10.54718 c 4.58573,46.889097 4.70037,58.353417 4.81502,67.066307 0.34393,-9.17146 1.49036,-22.12615 9.51539,-67.066307 h 10.54718 l -15.82077,87.816737 h -10.54718 c -4.47109,-46.77445 -4.58573,-56.748414 -4.70037,-65.461301 -0.34393,10.547181 -1.49037,20.635791 -9.5154,65.461301 z"
     id="path18"
     style="fill:#ffffff;stroke-width:1.14643264"
     inkscape:connector-curvature="0" />
  <path
     d="M 80.03442,120.92803 95.969833,33.111293 h 23.043297 c 4.35644,0 7.91038,3.553941 7.91038,7.910385 0,0.458573 -0.11464,0.917146 -0.22928,1.375719 l -5.61752,31.182963 c -0.80251,4.58573 -4.70037,8.02503 -9.51539,8.02503 H 97.804125 L 90.5816,120.92803 Z m 27.97296,-49.18196 c 1.83429,0 3.32465,-1.26107 3.66858,-2.86608 l 4.35645,-22.814009 c 0,-0.114643 0,-0.34393 0,-0.34393 0,-1.375719 -1.14644,-2.522151 -2.52216,-2.522151 h -8.71288 l -5.388239,28.66082 h 8.598249 z m 67.98345,13.29862 c 0,-0.11464 0,-0.22929 0,-0.34393 0,-1.37572 -1.14644,-2.52215 -2.52215,-2.52215 h -8.48361 l -6.87859,38.74942 h -10.66182 l 15.70612,-87.816737 h 23.50187 c 4.35644,0 7.91039,3.553941 8.02503,7.910385 0,0.458573 -0.11464,0.917146 -0.22929,1.490362 l -4.92966,27.62903 c -0.68786,3.66858 -3.21001,6.30538 -6.76395,7.33717 2.98072,1.14643 4.35644,4.01251 4.01251,7.22252 0,0.34393 0,0.91715 -0.11464,1.37572 l -6.30538,34.62226 H 169.5708 Z m -0.57322,-13.29862 c 1.83429,0 3.32466,-1.26107 3.66859,-2.98072 l 4.12715,-22.699369 c 0,-0.229286 0,-0.34393 0,-0.34393 0,-1.375719 -1.14643,-2.522151 -2.63679,-2.522151 h -8.4836 l -5.15895,28.66082 h 8.4836 z M 423.39098,33.111293 h 23.8458 c 4.35645,0 7.91039,3.553941 7.91039,7.910385 0,0.458573 -0.11465,0.917146 -0.22929,1.375719 l -12.84004,70.620243 c -0.80251,4.47109 -4.70038,7.91039 -9.5154,7.91039 h -25.22151 z m 5.73217,78.072057 c 1.83429,0 3.32465,-1.26108 3.66858,-3.09537 l 11.34968,-62.136642 c 0.11465,-0.229287 0.11465,-0.34393 0.11465,-0.34393 0,-1.375719 -1.14644,-2.522152 -2.6368,-2.522152 h -9.51539 L 419.7224,111.18335 Z m 42.64729,-78.072057 h 14.78898 c 4.2418,0 7.79574,3.553941 7.79574,7.910385 0,0.458573 0,0.917146 -0.11464,1.375719 L 481.62976,112.903 c -0.91715,4.47109 -4.92966,7.91038 -9.74468,7.91038 h -14.67433 c -4.35645,0 -7.79575,-3.55394 -7.79575,-7.91038 0,-0.45857 0,-1.03179 0,-1.49036 l 12.61076,-70.390962 c 1.14644,-4.471087 5.15895,-7.910385 9.74468,-7.910385 z m -11.34968,75.435257 c 0,1.37572 1.14643,2.6368 2.52215,2.6368 h 5.61752 c 1.94893,0 3.32465,-1.26108 3.78323,-3.09537 L 483.5787,45.951338 c 0,-0.229287 0,-0.34393 0,-0.34393 0,-1.375719 -1.14644,-2.522152 -2.52216,-2.522152 h -5.73216 c -1.71965,0 -3.32465,1.261076 -3.66858,2.866082 l -11.23504,62.251292 c 0,0.22928 0,0.34392 0,0.34392 z"
     id="path20"
     style="fill:#ffffff;stroke-width:1.14643264"
     inkscape:connector-curvature="0" />
  <path
     d="m 165.78758,148.44241 0.68786,-5.96156 c 0.11464,-0.91715 0.34393,-1.94894 0.45857,-2.86609 0.11464,-0.45857 0.22929,-1.60489 0.22929,-1.94882 -0.11465,0.45858 -0.45858,1.49025 -0.68786,1.94882 -0.34393,0.91715 -0.68786,1.94894 -1.14644,2.86609 l -2.63679,5.96156 z"
     id="path22"
     style="fill:#ffffff;stroke-width:1.14643264"
     inkscape:connector-curvature="0" />
  <path
     d="m 119.81563,139.04155 h -2.6368 l -1.49035,5.73216 h 2.75143 c 1.14643,-0.11464 2.29287,-0.91715 2.86608,-2.98072 0.57322,-2.29287 -0.11464,-2.75144 -1.49036,-2.75144 z"
     id="path24"
     style="fill:#ffffff;stroke-width:1.14643264"
     inkscape:connector-curvature="0" />
  <path
     d="m 5.0577825,129.29687 v 34.27845 H 495.15766 v -34.27845 z m 22.3553805,9.74468 h -6.305379 l -1.375719,5.27359 h 5.84692 l -0.802617,3.09537 h -5.846806 l -1.719649,6.42013 h 6.420022 l -0.802502,3.09537 h -9.859264 l 5.388176,-20.75054 h 9.859321 z m 22.470194,17.76982 h -3.668585 l -0.802617,-7.45181 c -0.229287,-2.40763 -0.343815,-5.04442 -0.343815,-8.25443 -0.34393,1.71965 -0.68786,3.78322 -1.146433,5.96145 -0.458573,2.06369 -0.917261,4.12727 -1.375834,5.84692 l -1.031789,3.89787 h -3.439298 l 5.388233,-20.75055 h 3.668585 l 0.687859,7.56646 c 0.229287,2.40751 0.344045,4.92977 0.344045,8.25443 0.34393,-1.83429 0.802503,-3.89787 1.146432,-5.96157 0.458573,-1.94893 0.917032,-4.01251 1.375605,-5.8468 l 1.031789,-4.01252 h 3.439298 z m 28.431414,-17.76982 h -4.0124 l -4.58573,17.76982 h -3.439298 l 4.58573,-17.76982 h -4.127272 l 0.802503,-2.98073 h 11.693613 z m 22.240789,0 h -6.305376 l -1.375719,5.27359 h 5.846806 l -0.802503,3.09537 h -5.846806 l -1.719649,6.42013 h 6.305379 l -0.802502,3.09537 h -9.859321 l 5.388233,-20.75054 h 9.859318 z m 24.6483,1.94893 c -0.57321,2.29287 -1.71965,4.70038 -4.12715,5.04431 1.94893,0.34393 2.17822,1.8344 1.71964,3.78334 -0.22928,0.91714 -1.605,5.96145 -0.91714,6.53466 l -0.11465,0.34393 h -3.89787 c -0.11464,-1.37571 0.68786,-3.89787 1.03179,-5.27359 0.34393,-1.26107 0.80251,-2.98072 -0.34393,-3.43929 -0.91714,-0.34405 -1.94893,-0.2294 -2.86607,-0.2294 h -0.57322 l -2.29286,8.94228 h -3.4393 l 5.38823,-20.75054 h 6.64931 c 2.75143,0.11464 4.70037,1.26108 3.78322,5.0443 z m 23.73116,-1.94893 h -4.01252 l -4.58573,17.76982 h -3.43929 l 4.58573,-17.76982 h -4.12716 l 0.8025,-2.98073 h 11.57897 z m 19.83328,17.76982 h -3.78323 l 0.45858,-5.27359 h -4.12716 l -2.29287,5.27359 h -3.78322 l 9.85932,-20.75055 h 4.70037 z m 17.88435,0 h -3.4393 l 5.38824,-20.75055 h 3.43929 z m 27.74367,0 h -3.66858 l -0.80251,-7.45181 c -0.22928,-2.40763 -0.34393,-5.04442 -0.34393,-8.25443 -0.34393,1.71965 -0.68786,3.78322 -1.14643,5.96145 -0.45857,2.06369 -0.91715,4.12727 -1.37572,5.84692 l -1.03179,3.89787 h -3.4393 l 5.38824,-20.75055 h 3.55394 l 0.68786,7.56646 c 0.22928,2.40751 0.34393,4.92977 0.34393,8.25443 0.34393,-1.83429 0.8025,-3.89787 1.14643,-5.96157 0.45857,-1.94893 0.91715,-4.01251 1.37572,-5.8468 l 1.03179,-4.01252 h 3.55394 z m 31.5269,0 h -3.4393 l 1.71965,-6.53467 c 1.03179,-4.12727 2.17822,-8.25443 3.55394,-12.38159 l -8.71289,18.91626 h -2.17822 l 1.26107,-18.91626 h -0.11464 c -0.8025,4.12716 -1.83429,8.25432 -2.98072,12.38159 l -1.71965,6.53467 h -3.4393 l 5.38823,-20.75055 h 5.61752 l -0.68786,9.63004 c -0.11464,1.605 -0.57321,4.12727 -0.91714,5.73227 0.68786,-2.06357 1.49036,-4.35655 2.06358,-5.73227 l 4.35644,-9.63004 h 5.50288 z m 29.11938,-17.76982 h -6.30537 l -1.37572,5.27359 h 5.8468 l -0.8025,3.09537 H 266.559 l -1.71965,6.42013 h 6.30538 l -0.8025,3.09537 h -9.85932 l 5.38823,-20.75054 h 9.85932 z m 19.94793,17.76982 h -3.66858 l -0.80251,-7.45181 c -0.22928,-2.40763 -0.34393,-5.04442 -0.34393,-8.25443 -0.34392,1.71965 -0.68785,3.78322 -1.14643,5.96145 -0.45857,2.06369 -0.91714,4.12727 -1.37572,5.84692 l -1.03179,3.89787 h -3.43929 l 5.38823,-20.75055 h 3.55394 l 0.8025,7.56646 c 0.22929,2.40751 0.34393,4.92977 0.34393,8.25443 0.34393,-1.83429 0.80251,-3.89787 1.14644,-5.96157 0.45857,-1.94893 0.91714,-4.01251 1.37571,-5.8468 l 1.03179,-4.01252 h 3.55395 z m 28.8901,-17.76982 h -4.01251 l -4.58573,17.76982 h -3.55394 l 4.58573,-17.76982 h -4.12716 l 0.8025,-2.98073 h 11.69362 z m 38.17621,3.32465 h -3.32466 c 0.45858,-1.83429 0.80251,-3.66858 -1.03178,-3.66858 -1.14644,0 -2.06358,0.57321 -2.40751,1.94893 -0.45858,1.60501 0.34393,2.17823 1.26107,2.98073 0.91715,0.8025 2.6368,2.29286 3.32466,3.4393 0.91714,1.26119 0.91714,2.52226 0.45857,4.35655 -1.03179,3.89788 -3.89787,5.96145 -7.33717,5.96145 -4.2418,0 -5.0443,-2.63679 -4.01251,-6.30538 l 0.34393,-1.49036 h 3.4393 l -0.34393,1.26108 c -0.57322,2.06358 -0.45858,3.4393 1.26107,3.4393 1.49036,0 2.40751,-0.80251 2.75144,-2.40751 0.34393,-1.26108 0,-2.06358 -0.68786,-2.75144 -1.37572,-1.60512 -3.4393,-2.75155 -4.2418,-4.81513 -0.34393,-0.91715 -0.34393,-2.06358 -0.11464,-3.21001 0.91714,-3.55394 3.21001,-5.50288 6.87859,-5.50288 5.73216,-0.11464 4.2418,4.70037 3.78323,6.76395 z m 19.37471,5.61764 -2.29286,8.82753 h -3.4393 l 2.29286,-8.82753 -1.71965,-11.92302 h 3.78323 l 0.57322,5.50288 c 0.11464,1.03179 0.11464,2.06358 0,3.21001 0.68786,-1.60501 1.49036,-2.75144 2.17822,-3.89787 l 2.86608,-4.70037 h 3.78323 z m 29.34868,-5.61764 h -3.32466 c 0.45857,-1.83429 0.8025,-3.66858 -1.03179,-3.66858 -1.14643,0 -2.06358,0.57321 -2.40751,1.94893 -0.45857,1.60501 0.34393,2.17823 1.26108,2.98073 0.91714,0.8025 2.63679,2.29286 3.32465,3.4393 0.80251,1.26119 0.91715,2.52226 0.45858,4.35655 -1.03179,3.89788 -3.89787,5.96145 -7.33717,5.96145 -4.2418,0 -5.04431,-2.63679 -4.01252,-6.30538 l 0.34393,-1.49036 h 3.55394 l -0.34393,1.26108 c -0.57321,2.06358 -0.45857,3.4393 1.26108,3.4393 1.49036,0 2.40751,-0.80251 2.86608,-2.40751 0.34393,-1.26108 0,-2.06358 -0.68786,-2.75144 -1.37572,-1.60512 -3.32465,-2.75155 -4.2418,-4.81513 -0.34393,-0.91715 -0.34393,-2.06358 -0.11464,-3.21001 0.91714,-3.55394 3.21001,-5.50288 6.87859,-5.50288 5.38824,-0.11464 4.01252,4.70037 3.55395,6.76395 z m 23.50186,-3.32465 h -4.01251 l -4.58573,17.76982 h -3.4393 l 4.58573,-17.76982 h -4.12716 l 0.80251,-2.98073 h 11.69361 z m 23.38723,0 h -6.42002 l -1.37572,5.27359 h 5.8468 l -0.8025,3.09537 h -5.84681 l -1.71964,6.42013 h 6.30537 l -0.8025,3.09537 h -9.85932 l 5.38823,-20.75054 h 9.85932 z m 26.13866,17.76982 h -3.4393 l 1.71965,-6.53467 c 1.03179,-4.12727 2.17823,-8.25443 3.55394,-12.38159 l -8.71288,18.91626 h -2.17823 l 1.26108,-18.91626 h -0.11464 c -0.80251,4.12716 -1.8343,8.25432 -2.98073,12.38159 l -1.71965,6.53467 h -3.43929 l 5.38823,-20.75055 h 5.61752 l -0.68786,9.63004 c -0.11464,1.605 -0.57322,4.12727 -0.91715,5.73227 0.68786,-2.06357 1.49037,-4.35655 2.06358,-5.73227 l 4.35645,-9.63004 h 5.50287 z"
     id="path26"
     style="fill:#ffffff;stroke-width:1.14643264"
     inkscape:connector-curvature="0" />
  <path
     d="m 490.228,120.92791 h -0.8025 v -7.45181 h -2.75144 v -0.8025 h 6.42003 v 0.8025 H 490.228 Z"
     id="path28"
     style="fill:#ffffff;stroke-width:1.14643264"
     inkscape:connector-curvature="0" />
  <path
     d="m 498.36768,119.43755 2.75143,-6.76395 h 1.26108 v 8.25431 h -0.8025 v -7.10788 l -2.98073,7.10788 h -0.45857 l -2.98073,-7.10788 v 7.10788 h -0.8025 v -8.25431 h 1.26108 z"
     id="path30"
     style="fill:#ffffff;stroke-width:1.14643264"
     inkscape:connector-curvature="0" />
</svg>
