<?xml version="1.0" encoding="UTF-8" standalone="no"?>
<!-- Created with Inkscape (http://www.inkscape.org/) -->

<svg
   xmlns:dc="http://purl.org/dc/elements/1.1/"
   xmlns:cc="http://creativecommons.org/ns#"
   xmlns:rdf="http://www.w3.org/1999/02/22-rdf-syntax-ns#"
   xmlns:svg="http://www.w3.org/2000/svg"
   xmlns="http://www.w3.org/2000/svg"
   xmlns:sodipodi="http://sodipodi.sourceforge.net/DTD/sodipodi-0.dtd"
   xmlns:inkscape="http://www.inkscape.org/namespaces/inkscape"
   version="1.1"
   id="svg2"
   xml:space="preserve"
   width="500"
   height="200"
   viewBox="0 0 500 200"
   sodipodi:docname="sonic.svg"
   inkscape:version="0.92.5 (2060ec1f9f, 2020-04-08)"><metadata
     id="metadata8"><rdf:RDF><cc:Work
         rdf:about=""><dc:format>image/svg+xml</dc:format><dc:type
           rdf:resource="http://purl.org/dc/dcmitype/StillImage" /><dc:title /></cc:Work></rdf:RDF></metadata><defs
     id="defs6"><clipPath
   clipPathUnits="userSpaceOnUse"
   id="clipPath18"><path
     d="M 0,396.85 H 595.28 V 0 H 0 Z"
     id="path16"
     inkscape:connector-curvature="0" /></clipPath><clipPath
   clipPathUnits="userSpaceOnUse"
   id="clipPath34"><path
     d="m 175.135,266.175 c 0,0 -9.999,-16.667 -40.167,-28 v 0 l -4.916,-12.75 -5.334,0.083 c 0,0 -5.749,-10.584 -37.416,-24.833 v 0 h 33.083 c 0,-1 -14.388,-46.875 -33.756,-65.5 v 0 c 0,0 59.756,10.5 77.006,85.249 v 0 l 5.5,16.001 h 38 l 19.25,29.75 z"
     id="path32"
     inkscape:connector-curvature="0" /></clipPath><linearGradient
   x1="0"
   y1="0"
   x2="1"
   y2="0"
   gradientUnits="userSpaceOnUse"
   gradientTransform="matrix(91.663811,158.7664,158.7664,-91.663811,96.746582,129.33301)"
   spreadMethod="pad"
   id="linearGradient50"><stop
     style="stop-opacity:1;stop-color:#295da9"
     offset="0"
     id="stop40" /><stop
     style="stop-opacity:1;stop-color:#295da9"
     offset="0.0052356"
     id="stop42" /><stop
     style="stop-opacity:1;stop-color:#295da9"
     offset="0.33581042"
     id="stop44" /><stop
     style="stop-opacity:1;stop-color:#272e65"
     offset="0.795811"
     id="stop46" /><stop
     style="stop-opacity:1;stop-color:#272e65"
     offset="1"
     id="stop48" /></linearGradient><clipPath
   clipPathUnits="userSpaceOnUse"
   id="clipPath60"><path
     d="M 0,396.85 H 595.28 V 0 H 0 Z"
     id="path58"
     inkscape:connector-curvature="0" /></clipPath><clipPath
   clipPathUnits="userSpaceOnUse"
   id="clipPath72"><path
     d="m 191.189,251.41 -2.814,-6.94 7.784,-0.094 -7.316,-19.037 h 8.722 l 7.315,19.131 h 7.034 l 2.721,6.94 z"
     id="path70"
     inkscape:connector-curvature="0" /></clipPath><linearGradient
   x1="0"
   y1="0"
   x2="1"
   y2="0"
   gradientUnits="userSpaceOnUse"
   gradientTransform="matrix(-1.1e-6,-26.071289,-26.071289,1.1e-6,201.50488,251.41016)"
   spreadMethod="pad"
   id="linearGradient86"><stop
     style="stop-opacity:1;stop-color:#e6342a"
     offset="0"
     id="stop78" /><stop
     style="stop-opacity:1;stop-color:#e6342a"
     offset="0.0104712"
     id="stop80" /><stop
     style="stop-opacity:1;stop-color:#f9b233"
     offset="0.989529"
     id="stop82" /><stop
     style="stop-opacity:1;stop-color:#f9b233"
     offset="1"
     id="stop84" /></linearGradient><clipPath
   clipPathUnits="userSpaceOnUse"
   id="clipPath96"><path
     d="m 239.206,251.41 c -0.281,0 -3.844,-9.471 -3.844,-9.471 v 0 h -10.599 l 3.095,9.471 h -8.44 l -9.754,-26.071 h 8.536 l 3.749,9.66 h 10.973 l -3.562,-9.66 h 8.814 c 0,0 9.566,26.071 9.847,26.071 v 0 c 0.188,0 -3.667,0.001 -6.342,0.001 v 0 c -1.337,0 -2.38,0 -2.473,-0.001"
     id="path94"
     inkscape:connector-curvature="0" /></clipPath><linearGradient
   x1="0"
   y1="0"
   x2="1"
   y2="0"
   gradientUnits="userSpaceOnUse"
   gradientTransform="matrix(-1.1e-6,-26.071777,-26.071777,1.1e-6,228.84619,251.41064)"
   spreadMethod="pad"
   id="linearGradient110"><stop
     style="stop-opacity:1;stop-color:#e6342a"
     offset="0"
     id="stop102" /><stop
     style="stop-opacity:1;stop-color:#e6342a"
     offset="0.0104712"
     id="stop104" /><stop
     style="stop-opacity:1;stop-color:#f9b233"
     offset="0.989529"
     id="stop106" /><stop
     style="stop-opacity:1;stop-color:#f9b233"
     offset="1"
     id="stop108" /></linearGradient><clipPath
   clipPathUnits="userSpaceOnUse"
   id="clipPath120"><path
     d="m 252.526,251.41 -9.755,-26.071 h 23.165 l 2.439,6.847 h -14.35 l 1.031,2.907 h 14.35 l 2.625,6.751 h -14.347 l 1.031,2.627 h 14.255 l 3.001,6.939 z"
     id="path118"
     inkscape:connector-curvature="0" /></clipPath><linearGradient
   x1="0"
   y1="0"
   x2="1"
   y2="0"
   gradientUnits="userSpaceOnUse"
   gradientTransform="matrix(-1.1e-6,-26.071289,-26.071289,1.1e-6,259.37109,251.41016)"
   spreadMethod="pad"
   id="linearGradient134"><stop
     style="stop-opacity:1;stop-color:#e6342a"
     offset="0"
     id="stop126" /><stop
     style="stop-opacity:1;stop-color:#e6342a"
     offset="0.0104712"
     id="stop128" /><stop
     style="stop-opacity:1;stop-color:#f9b233"
     offset="0.989529"
     id="stop130" /><stop
     style="stop-opacity:1;stop-color:#f9b233"
     offset="1"
     id="stop132" /></linearGradient><clipPath
   clipPathUnits="userSpaceOnUse"
   id="clipPath144"><path
     d="m 309.733,251.41 -11.821,-10.502 h -1.026 l 3.751,10.502 h -8.628 l -9.847,-26.071 h 8.722 l 4.97,13.035 4.501,-13.035 h 8.816 l -4.596,14.068 13.504,12.003 z"
     id="path142"
     inkscape:connector-curvature="0" /></clipPath><linearGradient
   x1="0"
   y1="0"
   x2="1"
   y2="0"
   gradientUnits="userSpaceOnUse"
   gradientTransform="matrix(-1.1e-6,-26.071289,-26.071289,1.1e-6,300.12109,251.41016)"
   spreadMethod="pad"
   id="linearGradient158"><stop
     style="stop-opacity:1;stop-color:#e6342a"
     offset="0"
     id="stop150" /><stop
     style="stop-opacity:1;stop-color:#e6342a"
     offset="0.0104712"
     id="stop152" /><stop
     style="stop-opacity:1;stop-color:#f9b233"
     offset="0.989529"
     id="stop154" /><stop
     style="stop-opacity:1;stop-color:#f9b233"
     offset="1"
     id="stop156" /></linearGradient><clipPath
   clipPathUnits="userSpaceOnUse"
   id="clipPath168"><path
     d="m 323.051,251.41 -9.845,-26.071 h 9.002 l 9.566,26.071 z"
     id="path166"
     inkscape:connector-curvature="0" /></clipPath><linearGradient
   x1="0"
   y1="0"
   x2="1"
   y2="0"
   gradientUnits="userSpaceOnUse"
   gradientTransform="matrix(-1.1e-6,-26.071289,-26.071289,1.1e-6,322.49023,251.41016)"
   spreadMethod="pad"
   id="linearGradient182"><stop
     style="stop-opacity:1;stop-color:#e6342a"
     offset="0"
     id="stop174" /><stop
     style="stop-opacity:1;stop-color:#e6342a"
     offset="0.0104712"
     id="stop176" /><stop
     style="stop-opacity:1;stop-color:#f9b233"
     offset="0.989529"
     id="stop178" /><stop
     style="stop-opacity:1;stop-color:#f9b233"
     offset="1"
     id="stop180" /></linearGradient><clipPath
   clipPathUnits="userSpaceOnUse"
   id="clipPath192"><path
     d="m 360.689,251.421 c -2.012,-0.027 -3.922,-0.054 -3.965,-0.011 v 0 c -0.095,0.093 -4.877,-13.036 -4.877,-13.036 v 0 l -7.409,13.036 h -7.691 l -10.035,-26.071 h 8.629 l 5.346,13.881 8.064,-13.881 h 6.848 c 0,0 9.611,25.931 9.751,26.071 v 0 c 0.034,0.034 -0.447,0.046 -1.197,0.046 v 0 c -0.906,0 -2.205,-0.017 -3.464,-0.035"
     id="path190"
     inkscape:connector-curvature="0" /></clipPath><linearGradient
   x1="0"
   y1="0"
   x2="1"
   y2="0"
   gradientUnits="userSpaceOnUse"
   gradientTransform="matrix(-1.1e-6,-26.117188,-26.117188,1.1e-6,346.03223,251.45605)"
   spreadMethod="pad"
   id="linearGradient206"><stop
     style="stop-opacity:1;stop-color:#e6342a"
     offset="0"
     id="stop198" /><stop
     style="stop-opacity:1;stop-color:#e6342a"
     offset="0.0104712"
     id="stop200" /><stop
     style="stop-opacity:1;stop-color:#f9b233"
     offset="0.989529"
     id="stop202" /><stop
     style="stop-opacity:1;stop-color:#f9b233"
     offset="1"
     id="stop204" /></linearGradient><clipPath
   clipPathUnits="userSpaceOnUse"
   id="clipPath216"><path
     d="m 372.73,249.739 c -1.891,-1.032 -3.723,-2.258 -5.258,-3.774 v 0 c -3.106,-3.063 -5.965,-7.91 -4.909,-12.448 v 0 c 0.541,-2.327 2.196,-4.237 4.119,-5.588 v 0 c 1.501,-1.053 3.24,-1.746 5.034,-2.102 v 0 c 4.794,-0.949 9.897,-0.488 14.759,-0.488 v 0 l 6.176,16.891 c 0,0 -9.992,-0.182 -9.931,0 v 0 c 0.06,0.181 -5.994,-6.965 -5.994,-6.965 v 0 h 4.48 l -1.211,-2.725 c -11.445,-0.787 -8.237,6.238 -8.237,6.238 v 0 c 3.27,6.783 9.206,6.056 9.206,6.056 v 0 h 8.539 l 5.929,6.616 c -0.543,-0.027 -8.169,0.006 -8.169,0.006 v 0 c -1.35,0.099 -2.595,0.142 -3.742,0.142 v 0 c -7.551,0 -10.791,-1.859 -10.791,-1.859 m 22.702,1.711 c 0.038,0.002 0.042,0.004 0.006,0.006 v 0 z"
     id="path214"
     inkscape:connector-curvature="0" /></clipPath><linearGradient
   x1="0"
   y1="0"
   x2="1"
   y2="0"
   gradientUnits="userSpaceOnUse"
   gradientTransform="matrix(-1.2e-6,-26.370605,-26.370605,1.2e-6,378.90137,251.59766)"
   spreadMethod="pad"
   id="linearGradient230"><stop
     style="stop-opacity:1;stop-color:#e6342a"
     offset="0"
     id="stop222" /><stop
     style="stop-opacity:1;stop-color:#e6342a"
     offset="0.0104712"
     id="stop224" /><stop
     style="stop-opacity:1;stop-color:#f9b233"
     offset="0.989529"
     id="stop226" /><stop
     style="stop-opacity:1;stop-color:#f9b233"
     offset="1"
     id="stop228" /></linearGradient><clipPath
   clipPathUnits="userSpaceOnUse"
   id="clipPath240"><path
     d="m 413.146,249.066 c -8.706,-5.017 -13.081,-13.743 -9.766,-19.49 v 0 c 3.308,-5.75 13.056,-6.348 21.767,-1.331 v 0 c 8.703,5.016 13.075,13.744 9.762,19.493 v 0 c -1.802,3.131 -5.512,4.733 -9.925,4.733 v 0 c -3.69,0.001 -7.871,-1.12 -11.838,-3.405 m 0.202,-14.591 c -1.597,2.203 -0.335,5.842 2.815,8.126 v 0 c 3.154,2.285 7.006,2.35 8.602,0.146 v 0 c 1.597,-2.204 0.336,-5.843 -2.814,-8.127 v 0 c -1.614,-1.169 -3.411,-1.757 -4.995,-1.757 v 0 c -1.511,0 -2.828,0.535 -3.608,1.612"
     id="path238"
     inkscape:connector-curvature="0" /></clipPath><linearGradient
   x1="0"
   y1="0"
   x2="1"
   y2="0"
   gradientUnits="userSpaceOnUse"
   gradientTransform="matrix(-1.2e-6,-27.631348,-27.631348,1.2e-6,419.14453,252.47119)"
   spreadMethod="pad"
   id="linearGradient254"><stop
     style="stop-opacity:1;stop-color:#e6342a"
     offset="0"
     id="stop246" /><stop
     style="stop-opacity:1;stop-color:#e6342a"
     offset="0.0104712"
     id="stop248" /><stop
     style="stop-opacity:1;stop-color:#f9b233"
     offset="0.989529"
     id="stop250" /><stop
     style="stop-opacity:1;stop-color:#f9b233"
     offset="1"
     id="stop252" /></linearGradient><clipPath
   clipPathUnits="userSpaceOnUse"
   id="clipPath264"><path
     d="m 442.66,251.599 -9.989,-25.957 h 8.994 l 3.447,9.871 h 13.844 l 2.687,6.835 h -13.552 l 0.877,2.627 h 13.902 l 2.57,6.624 z"
     id="path262"
     inkscape:connector-curvature="0" /></clipPath><linearGradient
   x1="0"
   y1="0"
   x2="1"
   y2="0"
   gradientUnits="userSpaceOnUse"
   gradientTransform="matrix(-1.1e-6,-25.957031,-25.957031,1.1e-6,449.05566,251.59863)"
   spreadMethod="pad"
   id="linearGradient278"><stop
     style="stop-opacity:1;stop-color:#e6342a"
     offset="0"
     id="stop270" /><stop
     style="stop-opacity:1;stop-color:#e6342a"
     offset="0.0104712"
     id="stop272" /><stop
     style="stop-opacity:1;stop-color:#f9b233"
     offset="0.989529"
     id="stop274" /><stop
     style="stop-opacity:1;stop-color:#f9b233"
     offset="1"
     id="stop276" /></linearGradient><clipPath
   clipPathUnits="userSpaceOnUse"
   id="clipPath288"><path
     d="M 0,396.85 H 595.28 V 0 H 0 Z"
     id="path286"
     inkscape:connector-curvature="0" /></clipPath><clipPath
   clipPathUnits="userSpaceOnUse"
   id="clipPath332"><path
     d="m 191.189,251.41 -2.814,-6.94 7.784,-0.094 -7.316,-19.037 h 8.722 l 7.315,19.131 h 7.034 l 2.721,6.94 z"
     id="path330"
     inkscape:connector-curvature="0" /></clipPath><linearGradient
   x1="0"
   y1="0"
   x2="1"
   y2="0"
   gradientUnits="userSpaceOnUse"
   gradientTransform="matrix(-1.1e-6,-26.071289,-26.071289,1.1e-6,201.50488,251.41016)"
   spreadMethod="pad"
   id="linearGradient346"><stop
     style="stop-opacity:1;stop-color:#e6342a"
     offset="0"
     id="stop338" /><stop
     style="stop-opacity:1;stop-color:#e6342a"
     offset="0.0104712"
     id="stop340" /><stop
     style="stop-opacity:1;stop-color:#f9b233"
     offset="0.989529"
     id="stop342" /><stop
     style="stop-opacity:1;stop-color:#f9b233"
     offset="1"
     id="stop344" /></linearGradient><clipPath
   clipPathUnits="userSpaceOnUse"
   id="clipPath356"><path
     d="m 239.206,251.41 c -0.281,0 -3.844,-9.471 -3.844,-9.471 v 0 h -10.599 l 3.095,9.471 h -8.44 l -9.754,-26.071 h 8.536 l 3.749,9.66 h 10.973 l -3.562,-9.66 h 8.814 c 0,0 9.566,26.071 9.847,26.071 v 0 c 0.188,0 -3.667,0.001 -6.342,0.001 v 0 c -1.337,0 -2.38,0 -2.473,-0.001"
     id="path354"
     inkscape:connector-curvature="0" /></clipPath><linearGradient
   x1="0"
   y1="0"
   x2="1"
   y2="0"
   gradientUnits="userSpaceOnUse"
   gradientTransform="matrix(-1.1e-6,-26.071777,-26.071777,1.1e-6,228.84619,251.41064)"
   spreadMethod="pad"
   id="linearGradient370"><stop
     style="stop-opacity:1;stop-color:#e6342a"
     offset="0"
     id="stop362" /><stop
     style="stop-opacity:1;stop-color:#e6342a"
     offset="0.0104712"
     id="stop364" /><stop
     style="stop-opacity:1;stop-color:#f9b233"
     offset="0.989529"
     id="stop366" /><stop
     style="stop-opacity:1;stop-color:#f9b233"
     offset="1"
     id="stop368" /></linearGradient><clipPath
   clipPathUnits="userSpaceOnUse"
   id="clipPath380"><path
     d="m 252.526,251.41 -9.755,-26.071 h 23.165 l 2.439,6.847 h -14.35 l 1.031,2.907 h 14.35 l 2.625,6.751 h -14.347 l 1.031,2.627 h 14.255 l 3.001,6.939 z"
     id="path378"
     inkscape:connector-curvature="0" /></clipPath><linearGradient
   x1="0"
   y1="0"
   x2="1"
   y2="0"
   gradientUnits="userSpaceOnUse"
   gradientTransform="matrix(-1.1e-6,-26.071289,-26.071289,1.1e-6,259.37109,251.41016)"
   spreadMethod="pad"
   id="linearGradient394"><stop
     style="stop-opacity:1;stop-color:#e6342a"
     offset="0"
     id="stop386" /><stop
     style="stop-opacity:1;stop-color:#e6342a"
     offset="0.0104712"
     id="stop388" /><stop
     style="stop-opacity:1;stop-color:#f9b233"
     offset="0.989529"
     id="stop390" /><stop
     style="stop-opacity:1;stop-color:#f9b233"
     offset="1"
     id="stop392" /></linearGradient><clipPath
   clipPathUnits="userSpaceOnUse"
   id="clipPath404"><path
     d="m 309.733,251.41 -11.821,-10.502 h -1.026 l 3.751,10.502 h -8.628 l -9.847,-26.071 h 8.722 l 4.97,13.035 4.501,-13.035 h 8.816 l -4.596,14.068 13.504,12.003 z"
     id="path402"
     inkscape:connector-curvature="0" /></clipPath><linearGradient
   x1="0"
   y1="0"
   x2="1"
   y2="0"
   gradientUnits="userSpaceOnUse"
   gradientTransform="matrix(-1.1e-6,-26.071289,-26.071289,1.1e-6,300.12109,251.41016)"
   spreadMethod="pad"
   id="linearGradient418"><stop
     style="stop-opacity:1;stop-color:#e6342a"
     offset="0"
     id="stop410" /><stop
     style="stop-opacity:1;stop-color:#e6342a"
     offset="0.0104712"
     id="stop412" /><stop
     style="stop-opacity:1;stop-color:#f9b233"
     offset="0.989529"
     id="stop414" /><stop
     style="stop-opacity:1;stop-color:#f9b233"
     offset="1"
     id="stop416" /></linearGradient><clipPath
   clipPathUnits="userSpaceOnUse"
   id="clipPath428"><path
     d="m 323.051,251.41 -9.845,-26.071 h 9.002 l 9.566,26.071 z"
     id="path426"
     inkscape:connector-curvature="0" /></clipPath><linearGradient
   x1="0"
   y1="0"
   x2="1"
   y2="0"
   gradientUnits="userSpaceOnUse"
   gradientTransform="matrix(-1.1e-6,-26.071289,-26.071289,1.1e-6,322.49023,251.41016)"
   spreadMethod="pad"
   id="linearGradient442"><stop
     style="stop-opacity:1;stop-color:#e6342a"
     offset="0"
     id="stop434" /><stop
     style="stop-opacity:1;stop-color:#e6342a"
     offset="0.0104712"
     id="stop436" /><stop
     style="stop-opacity:1;stop-color:#f9b233"
     offset="0.989529"
     id="stop438" /><stop
     style="stop-opacity:1;stop-color:#f9b233"
     offset="1"
     id="stop440" /></linearGradient><clipPath
   clipPathUnits="userSpaceOnUse"
   id="clipPath452"><path
     d="m 360.689,251.421 c -2.012,-0.027 -3.922,-0.054 -3.965,-0.011 v 0 c -0.095,0.093 -4.877,-13.036 -4.877,-13.036 v 0 l -7.409,13.036 h -7.691 l -10.035,-26.071 h 8.629 l 5.346,13.881 8.064,-13.881 h 6.848 c 0,0 9.611,25.931 9.751,26.071 v 0 c 0.034,0.034 -0.447,0.046 -1.197,0.046 v 0 c -0.906,0 -2.205,-0.017 -3.464,-0.035"
     id="path450"
     inkscape:connector-curvature="0" /></clipPath><linearGradient
   x1="0"
   y1="0"
   x2="1"
   y2="0"
   gradientUnits="userSpaceOnUse"
   gradientTransform="matrix(-1.1e-6,-26.117188,-26.117188,1.1e-6,346.03223,251.45605)"
   spreadMethod="pad"
   id="linearGradient466"><stop
     style="stop-opacity:1;stop-color:#e6342a"
     offset="0"
     id="stop458" /><stop
     style="stop-opacity:1;stop-color:#e6342a"
     offset="0.0104712"
     id="stop460" /><stop
     style="stop-opacity:1;stop-color:#f9b233"
     offset="0.989529"
     id="stop462" /><stop
     style="stop-opacity:1;stop-color:#f9b233"
     offset="1"
     id="stop464" /></linearGradient><clipPath
   clipPathUnits="userSpaceOnUse"
   id="clipPath476"><path
     d="m 372.73,249.739 c -1.891,-1.032 -3.723,-2.258 -5.258,-3.774 v 0 c -3.106,-3.063 -5.965,-7.91 -4.909,-12.448 v 0 c 0.541,-2.327 2.196,-4.237 4.119,-5.588 v 0 c 1.501,-1.053 3.24,-1.746 5.034,-2.102 v 0 c 4.794,-0.949 9.897,-0.488 14.759,-0.488 v 0 l 6.176,16.891 c 0,0 -9.992,-0.182 -9.931,0 v 0 c 0.06,0.181 -5.994,-6.965 -5.994,-6.965 v 0 h 4.48 l -1.211,-2.725 c -11.445,-0.787 -8.237,6.238 -8.237,6.238 v 0 c 3.27,6.783 9.206,6.056 9.206,6.056 v 0 h 8.539 l 5.929,6.616 c -0.543,-0.027 -8.169,0.006 -8.169,0.006 v 0 c -1.35,0.099 -2.595,0.142 -3.742,0.142 v 0 c -7.551,0 -10.791,-1.859 -10.791,-1.859 m 22.702,1.711 c 0.038,0.002 0.042,0.004 0.006,0.006 v 0 z"
     id="path474"
     inkscape:connector-curvature="0" /></clipPath><linearGradient
   x1="0"
   y1="0"
   x2="1"
   y2="0"
   gradientUnits="userSpaceOnUse"
   gradientTransform="matrix(-1.2e-6,-26.370605,-26.370605,1.2e-6,378.90137,251.59766)"
   spreadMethod="pad"
   id="linearGradient490"><stop
     style="stop-opacity:1;stop-color:#e6342a"
     offset="0"
     id="stop482" /><stop
     style="stop-opacity:1;stop-color:#e6342a"
     offset="0.0104712"
     id="stop484" /><stop
     style="stop-opacity:1;stop-color:#f9b233"
     offset="0.989529"
     id="stop486" /><stop
     style="stop-opacity:1;stop-color:#f9b233"
     offset="1"
     id="stop488" /></linearGradient><clipPath
   clipPathUnits="userSpaceOnUse"
   id="clipPath500"><path
     d="m 413.146,249.066 c -8.706,-5.017 -13.081,-13.743 -9.766,-19.49 v 0 c 3.308,-5.75 13.056,-6.348 21.767,-1.331 v 0 c 8.703,5.016 13.075,13.744 9.762,19.493 v 0 c -1.802,3.131 -5.512,4.733 -9.925,4.733 v 0 c -3.69,0.001 -7.871,-1.12 -11.838,-3.405 m 0.202,-14.591 c -1.597,2.203 -0.335,5.842 2.815,8.126 v 0 c 3.154,2.285 7.006,2.35 8.602,0.146 v 0 c 1.597,-2.204 0.336,-5.843 -2.814,-8.127 v 0 c -1.614,-1.169 -3.411,-1.757 -4.995,-1.757 v 0 c -1.511,0 -2.828,0.535 -3.608,1.612"
     id="path498"
     inkscape:connector-curvature="0" /></clipPath><linearGradient
   x1="0"
   y1="0"
   x2="1"
   y2="0"
   gradientUnits="userSpaceOnUse"
   gradientTransform="matrix(-1.2e-6,-27.631348,-27.631348,1.2e-6,419.14453,252.47119)"
   spreadMethod="pad"
   id="linearGradient514"><stop
     style="stop-opacity:1;stop-color:#e6342a"
     offset="0"
     id="stop506" /><stop
     style="stop-opacity:1;stop-color:#e6342a"
     offset="0.0104712"
     id="stop508" /><stop
     style="stop-opacity:1;stop-color:#f9b233"
     offset="0.989529"
     id="stop510" /><stop
     style="stop-opacity:1;stop-color:#f9b233"
     offset="1"
     id="stop512" /></linearGradient><clipPath
   clipPathUnits="userSpaceOnUse"
   id="clipPath524"><path
     d="m 442.66,251.599 -9.989,-25.957 h 8.994 l 3.447,9.871 h 13.844 l 2.687,6.835 h -13.552 l 0.877,2.627 h 13.902 l 2.57,6.624 z"
     id="path522"
     inkscape:connector-curvature="0" /></clipPath><linearGradient
   x1="0"
   y1="0"
   x2="1"
   y2="0"
   gradientUnits="userSpaceOnUse"
   gradientTransform="matrix(-1.1e-6,-25.957031,-25.957031,1.1e-6,449.05566,251.59863)"
   spreadMethod="pad"
   id="linearGradient538"><stop
     style="stop-opacity:1;stop-color:#e6342a"
     offset="0"
     id="stop530" /><stop
     style="stop-opacity:1;stop-color:#e6342a"
     offset="0.0104712"
     id="stop532" /><stop
     style="stop-opacity:1;stop-color:#f9b233"
     offset="0.989529"
     id="stop534" /><stop
     style="stop-opacity:1;stop-color:#f9b233"
     offset="1"
     id="stop536" /></linearGradient><clipPath
   clipPathUnits="userSpaceOnUse"
   id="clipPath548"><path
     d="M 0,396.85 H 595.28 V 0 H 0 Z"
     id="path546"
     inkscape:connector-curvature="0" /></clipPath><clipPath
   clipPathUnits="userSpaceOnUse"
   id="clipPath588"><path
     d="m 148.96,216.082 -22.375,-59.125 h 16.25 l 9.125,24.25 h 21 l 5.25,14.375 h -20.625 l 2.625,6.625 h 20.375 l 4.875,13.875 z"
     id="path586"
     inkscape:connector-curvature="0" /></clipPath><linearGradient
   x1="0"
   y1="0"
   x2="1"
   y2="0"
   gradientUnits="userSpaceOnUse"
   gradientTransform="matrix(-2.6e-6,-59.125488,-59.125488,2.6e-6,156.02246,216.08203)"
   spreadMethod="pad"
   id="linearGradient602"><stop
     style="stop-opacity:1;stop-color:#ea5b0b"
     offset="0"
     id="stop594" /><stop
     style="stop-opacity:1;stop-color:#fcea12"
     offset="0.48564172"
     id="stop596" /><stop
     style="stop-opacity:1;stop-color:#fcea12"
     offset="0.989529"
     id="stop598" /><stop
     style="stop-opacity:1;stop-color:#fcea12"
     offset="1"
     id="stop600" /></linearGradient><clipPath
   clipPathUnits="userSpaceOnUse"
   id="clipPath612"><path
     d="m 194.085,216.082 -23.25,-59.125 h 16.5 l 22.875,59.125 z"
     id="path610"
     inkscape:connector-curvature="0" /></clipPath><linearGradient
   x1="0"
   y1="0"
   x2="1"
   y2="0"
   gradientUnits="userSpaceOnUse"
   gradientTransform="matrix(-2.6e-6,-59.125488,-59.125488,2.6e-6,190.52246,216.08203)"
   spreadMethod="pad"
   id="linearGradient626"><stop
     style="stop-opacity:1;stop-color:#ea5b0b"
     offset="0"
     id="stop618" /><stop
     style="stop-opacity:1;stop-color:#fcea12"
     offset="0.48564172"
     id="stop620" /><stop
     style="stop-opacity:1;stop-color:#fcea12"
     offset="0.989529"
     id="stop622" /><stop
     style="stop-opacity:1;stop-color:#fcea12"
     offset="1"
     id="stop624" /></linearGradient><clipPath
   clipPathUnits="userSpaceOnUse"
   id="clipPath636"><path
     d="m 241.085,216.082 c -4.824,-0.195 -10.177,-1.072 -14.635,-2.97 v 0 c -6.127,-2.608 -12.083,-7.142 -15.815,-12.678 v 0 c -3.477,-5.157 -6.548,-10.403 -7.111,-16.805 v 0 c -0.247,-2.816 -0.388,-5.62 0.003,-8.43 v 0 c 0.651,-4.683 2.12,-9.931 5.647,-13.273 v 0 c 2.449,-2.317 6.604,-4.969 10.136,-4.969 v 0 h 21.326 l 13.074,34.375 -19,0.125 -11.75,-14.5 h 8.75 l -2.5,-5.75 c -6.924,-0.537 -10.308,5.512 -9.954,11.716 v 0 c 0.169,2.97 1.818,6.758 3.329,9.282 v 0 c 2.778,4.644 7.625,7.383 12.726,8.785 v 0 c 2.477,0.681 5.029,1.039 7.594,1.151 v 0 c 1.278,0.054 2.557,0.047 3.835,0.007 v 0 c 0.497,-0.015 3.6,-0.496 3.845,-0.191 v 0 c 0.007,0.01 11.375,14.125 11.375,14.125 v 0 z"
     id="path634"
     inkscape:connector-curvature="0" /></clipPath><linearGradient
   x1="0"
   y1="0"
   x2="1"
   y2="0"
   gradientUnits="userSpaceOnUse"
   gradientTransform="matrix(-2.6e-6,-59.125488,-59.125488,2.6e-6,232.62158,216.08203)"
   spreadMethod="pad"
   id="linearGradient650"><stop
     style="stop-opacity:1;stop-color:#ea5b0b"
     offset="0"
     id="stop642" /><stop
     style="stop-opacity:1;stop-color:#fcea12"
     offset="0.48564172"
     id="stop644" /><stop
     style="stop-opacity:1;stop-color:#fcea12"
     offset="0.989529"
     id="stop646" /><stop
     style="stop-opacity:1;stop-color:#fcea12"
     offset="1"
     id="stop648" /></linearGradient><clipPath
   clipPathUnits="userSpaceOnUse"
   id="clipPath660"><path
     d="m 301.084,216.082 -8.499,-20.625 h -14.75 l 8.125,20.625 h -16.25 l -23.25,-59.125 h 16.75 l 9.5,24.5 14.25,-0.125 -8.875,-24.375 h 16.5 l 22.499,59.125 z"
     id="path658"
     inkscape:connector-curvature="0" /></clipPath><linearGradient
   x1="0"
   y1="0"
   x2="1"
   y2="0"
   gradientUnits="userSpaceOnUse"
   gradientTransform="matrix(-2.6e-6,-59.125488,-59.125488,2.6e-6,281.77197,216.08203)"
   spreadMethod="pad"
   id="linearGradient674"><stop
     style="stop-opacity:1;stop-color:#ea5b0b"
     offset="0"
     id="stop666" /><stop
     style="stop-opacity:1;stop-color:#fcea12"
     offset="0.48564172"
     id="stop668" /><stop
     style="stop-opacity:1;stop-color:#fcea12"
     offset="0.989529"
     id="stop670" /><stop
     style="stop-opacity:1;stop-color:#fcea12"
     offset="1"
     id="stop672" /></linearGradient><clipPath
   clipPathUnits="userSpaceOnUse"
   id="clipPath684"><path
     d="m 322.959,216.082 -5.25,-13.625 h 12.375 l -17.125,-45.5 h 16.375 l 17.5,45.5 h 11.5 l 5.375,13.625 z"
     id="path682"
     inkscape:connector-curvature="0" /></clipPath><linearGradient
   x1="0"
   y1="0"
   x2="1"
   y2="0"
   gradientUnits="userSpaceOnUse"
   gradientTransform="matrix(-2.6e-6,-59.125488,-59.125488,2.6e-6,338.33398,216.08203)"
   spreadMethod="pad"
   id="linearGradient698"><stop
     style="stop-opacity:1;stop-color:#ea5b0b"
     offset="0"
     id="stop690" /><stop
     style="stop-opacity:1;stop-color:#fcea12"
     offset="0.48564172"
     id="stop692" /><stop
     style="stop-opacity:1;stop-color:#fcea12"
     offset="0.989529"
     id="stop694" /><stop
     style="stop-opacity:1;stop-color:#fcea12"
     offset="1"
     id="stop696" /></linearGradient><clipPath
   clipPathUnits="userSpaceOnUse"
   id="clipPath708"><path
     d="m 370.604,216.082 -22.299,-59.125 h 40.726 l 4.928,14.469 h -24.293 l 4.108,9.975 h 22.181 l 5.047,14.084 h -21.83 l 2.699,7.16 h 22.533 l 5.047,13.437 z"
     id="path706"
     inkscape:connector-curvature="0" /></clipPath><linearGradient
   x1="0"
   y1="0"
   x2="1"
   y2="0"
   gradientUnits="userSpaceOnUse"
   gradientTransform="matrix(-2.6e-6,-59.125488,-59.125488,2.6e-6,378.87793,216.08203)"
   spreadMethod="pad"
   id="linearGradient722"><stop
     style="stop-opacity:1;stop-color:#ea5b0b"
     offset="0"
     id="stop714" /><stop
     style="stop-opacity:1;stop-color:#fcea12"
     offset="0.48564172"
     id="stop716" /><stop
     style="stop-opacity:1;stop-color:#fcea12"
     offset="0.989529"
     id="stop718" /><stop
     style="stop-opacity:1;stop-color:#fcea12"
     offset="1"
     id="stop720" /></linearGradient><clipPath
   clipPathUnits="userSpaceOnUse"
   id="clipPath732"><path
     d="m 417.084,216.082 -22.25,-59.125 h 16.25 l 9.375,24.125 2.5,-24.125 h 16.125 l -1.875,25.875 c 12.375,9.875 13.375,21 13.375,21 v 0 c 1.25,11.5 -5.875,12.25 -5.875,12.25 v 0 z m 7.084,-24.875 c 0,0.001 5.916,15.166 5.916,15.166 v 0 h 3.918 c 0.594,0 1.256,-1.117 1.498,-1.518 v 0 c 0.699,-1.16 0.871,-2.404 0.611,-3.725 v 0 c -0.588,-2.97 -2.081,-5.862 -4.378,-7.862 v 0 c -0.923,-0.804 -1.975,-1.438 -3.155,-1.78 v 0 c -0.416,-0.122 -3.917,-0.284 -4.363,-0.284 v 0 c -0.031,0 -0.047,0.001 -0.047,0.003"
     id="path730"
     inkscape:connector-curvature="0" /></clipPath><linearGradient
   x1="0"
   y1="0"
   x2="1"
   y2="0"
   gradientUnits="userSpaceOnUse"
   gradientTransform="matrix(-2.6e-6,-59.125488,-59.125488,2.6e-6,422.7832,216.08203)"
   spreadMethod="pad"
   id="linearGradient746"><stop
     style="stop-opacity:1;stop-color:#ea5b0b"
     offset="0"
     id="stop738" /><stop
     style="stop-opacity:1;stop-color:#fcea12"
     offset="0.48564172"
     id="stop740" /><stop
     style="stop-opacity:1;stop-color:#fcea12"
     offset="0.989529"
     id="stop742" /><stop
     style="stop-opacity:1;stop-color:#fcea12"
     offset="1"
     id="stop744" /></linearGradient><clipPath
   clipPathUnits="userSpaceOnUse"
   id="clipPath756"><path
     d="m 474.496,215.932 c -1.789,-0.625 -3.612,-1.411 -5.261,-2.348 v 0 c -3.093,-1.756 -6.069,-3.848 -8.342,-6.616 v 0 c -0.995,-1.209 -1.926,-2.552 -2.678,-3.928 v 0 c -1.946,-3.556 -3.424,-7.574 -2.031,-11.582 v 0 c 1.392,-4.004 4.962,-7.476 8.525,-9.626 v 0 c 0,0 7.668,-4.334 6.625,-7.125 v 0 c 0,0 -4.748,-9.792 -23.5,1.125 v 0 c 0,0 -5.998,-14.998 -6,-15 v 0 c -0.24,-0.602 7.772,-3.207 8.174,-3.31 v 0 c 6.6,-1.7 13.812,-1.44 20.23,0.884 v 0 c 4.994,1.806 9.631,4.746 13.141,8.751 v 0 c 1,1.141 1.888,2.381 2.668,3.682 v 0 c 2.523,4.205 4.381,9.526 1.883,14.184 v 0 c -2.157,4.02 -6.723,6.056 -10.379,8.452 v 0 c -2.227,1.46 -7.9,3.987 -5.443,7.533 v 0 c 0.562,0.812 1.617,1.536 2.529,1.896 v 0 c 1.023,0.404 2.246,0.674 3.351,0.687 v 0 c 1.848,0.02 3.826,-0.386 5.596,-0.884 v 0 c 0,0 5.687,-2.562 8.75,-7.5 v 0 c 0,0 5.998,16.744 6,16.75 v 0 c 0.25,0.702 -3.582,2.373 -4.072,2.607 v 0 c -3.717,1.774 -7.695,2.736 -11.694,2.736 v 0 c -2.706,10e-4 -5.42,-0.44 -8.072,-1.368"
     id="path754"
     inkscape:connector-curvature="0" /></clipPath><linearGradient
   x1="0"
   y1="0"
   x2="1"
   y2="0"
   gradientUnits="userSpaceOnUse"
   gradientTransform="matrix(-2.7e-6,-60.876953,-60.876953,2.7e-6,470.08789,217.30029)"
   spreadMethod="pad"
   id="linearGradient770"><stop
     style="stop-opacity:1;stop-color:#ea5b0b"
     offset="0"
     id="stop762" /><stop
     style="stop-opacity:1;stop-color:#fcea12"
     offset="0.48564172"
     id="stop764" /><stop
     style="stop-opacity:1;stop-color:#fcea12"
     offset="0.989529"
     id="stop766" /><stop
     style="stop-opacity:1;stop-color:#fcea12"
     offset="1"
     id="stop768" /></linearGradient>
	
	

	
	
	
	
	

	
	
</defs><sodipodi:namedview
     pagecolor="#ffffff"
     bordercolor="#666666"
     borderopacity="1"
     objecttolerance="10"
     gridtolerance="10"
     guidetolerance="10"
     inkscape:pageopacity="0"
     inkscape:pageshadow="2"
     inkscape:window-width="1366"
     inkscape:window-height="743"
     id="namedview4"
     showgrid="false"
     inkscape:pagecheckerboard="true"
     inkscape:zoom="1.7288178"
     inkscape:cx="252.82548"
     inkscape:cy="91.941617"
     inkscape:window-x="0"
     inkscape:window-y="0"
     inkscape:window-maximized="1"
     inkscape:current-layer="g10" /><g
     id="g10"
     inkscape:groupmode="layer"
     inkscape:label="the-king-of-fighters-seeklogo.com"
     transform="matrix(1.3333333,0,0,-1.3333333,0,200.00003)"><path
       style="fill:#ffffff;stroke-width:0.67972809"
       d="M 65.994141 118.26562 L 65.994141 159.72852 L 445.48633 159.72852 L 445.48633 118.26562 L 65.994141 118.26562 z M 294.79102 124.85938 C 297.30602 124.85938 299.41161 125.26636 301.04297 126.08203 C 302.67432 126.8977 303.83083 127.91829 304.30664 129.00586 C 305.05433 130.22937 305.25781 131.86003 305.25781 134.03516 L 305.25781 135.18945 L 296.625 135.18945 L 296.625 132.81055 C 296.625 131.31515 296.55741 130.36487 296.35352 129.95703 C 296.21757 129.5492 295.80903 129.3457 295.19727 129.3457 C 294.65348 129.3457 294.31523 129.48045 294.11133 129.82031 C 293.90741 130.16018 293.83789 130.97648 293.83789 132.33594 L 293.83789 145.04688 C 293.83789 146.20241 293.90743 147.01794 294.11133 147.42578 C 294.31523 147.76565 294.65387 147.96875 295.26562 147.96875 C 295.87742 147.96875 296.35272 147.76487 296.55664 147.28906 C 296.76056 146.88123 296.89648 146.06687 296.89648 144.77539 L 296.89648 141.64844 L 295.13086 141.64844 L 295.13086 137.63672 L 305.18945 137.63672 L 305.18945 151.84375 L 299.75195 151.84375 L 298.9375 149.94141 C 298.32574 150.75708 297.57701 151.36755 296.69336 151.77539 C 295.80972 152.18323 294.72194 152.38672 293.56641 152.38672 C 292.13898 152.38672 290.77976 152.11605 289.48828 151.57227 C 288.1968 151.02848 287.24456 150.34849 286.63281 149.46484 C 285.95308 148.64917 285.54609 147.76451 285.41016 146.88086 C 285.27421 145.99721 285.13867 144.57003 285.13867 142.80273 L 285.13867 134.91797 C 285.13867 132.40297 285.27343 130.56765 285.61328 129.41211 C 285.95315 128.25657 286.90576 127.23677 288.53711 126.28516 C 290.16846 125.33354 292.20806 124.85934 294.79102 124.85938 z M 393.69141 124.85938 C 395.4587 124.85936 397.02178 125.06325 398.44922 125.53906 C 399.87665 126.01487 400.964 126.69291 401.84766 127.64453 C 402.66332 128.59615 403.2078 129.61751 403.34375 130.70508 C 403.54764 131.79264 403.61523 133.69476 403.61523 136.3457 L 403.61523 140.90039 C 403.61523 143.55133 403.5461 145.45345 403.41016 146.54102 C 403.20624 147.69655 402.73168 148.71792 401.91602 149.60156 C 401.10034 150.48521 400.01142 151.23122 398.58398 151.70703 C 397.22453 152.18284 395.52667 152.45508 393.69141 152.45508 C 391.92411 152.45508 390.36102 152.2512 388.93359 151.77539 C 387.50617 151.29958 386.41684 150.61959 385.5332 149.66797 C 384.71752 148.78432 384.17501 147.7653 384.03906 146.67773 C 383.83517 145.59017 383.76758 143.68766 383.76758 140.96875 L 383.76758 136.41406 C 383.76758 133.76312 383.83476 131.85905 383.9707 130.77148 C 384.17462 129.61595 384.65112 128.59654 385.4668 127.71289 C 386.28248 126.82924 387.36944 126.08128 388.79688 125.60547 C 390.15633 125.12966 391.78817 124.85938 393.69141 124.85938 z M 427.33789 124.85938 C 429.85288 124.85938 431.9585 125.26636 433.58984 126.08203 C 435.22119 126.8977 436.30974 127.91829 436.85352 129.00586 C 437.46528 130.22937 437.73633 131.86003 437.73633 134.03516 L 437.73633 135.18945 L 429.10547 135.18945 L 429.10547 132.81055 C 429.10547 131.31515 429.03592 130.36487 428.83203 129.95703 C 428.69608 129.5492 428.28948 129.3457 427.67773 129.3457 C 427.13395 129.3457 426.79376 129.48045 426.58984 129.82031 C 426.38592 130.16018 426.31836 130.97648 426.31836 132.33594 L 426.31836 145.04688 C 426.31836 146.20241 426.38595 147.01794 426.58984 147.42578 C 426.79376 147.76565 427.13433 147.96875 427.74609 147.96875 C 428.35784 147.96875 428.83319 147.76487 429.03711 147.28906 C 429.24103 146.88123 429.37695 146.06687 429.37695 144.77539 L 429.37695 141.64844 L 427.60938 141.64844 L 427.60938 137.63672 L 437.66992 137.63672 L 437.66992 151.84375 L 432.23047 151.84375 L 431.41602 149.94141 C 430.80426 150.75708 430.05551 151.36755 429.17188 151.77539 C 428.28822 152.18323 427.20046 152.38672 426.04492 152.38672 C 424.61748 152.38672 423.25828 152.11605 421.9668 151.57227 C 420.74329 151.02848 419.72503 150.34849 419.11328 149.46484 C 418.43355 148.64917 418.02462 147.76451 417.88867 146.88086 C 417.75273 145.99721 417.61719 144.57003 417.61719 142.80273 L 417.61719 134.91797 C 417.61719 132.40297 417.82029 130.56765 418.16016 129.41211 C 418.50002 128.25657 419.45262 127.23677 421.08398 126.28516 C 422.71533 125.33354 424.82289 124.85938 427.33789 124.85938 z M 73.199219 125.4707 L 92.027344 125.4707 L 92.027344 130.77148 L 86.929688 130.77148 L 86.929688 151.91211 L 78.296875 151.91211 L 78.296875 130.77148 L 73.199219 130.77148 L 73.199219 125.4707 z M 105.55469 125.4707 L 114.11914 125.4707 L 114.11914 134.91797 L 116.70117 134.91797 L 116.70117 125.4707 L 125.33398 125.4707 L 125.33398 151.91211 L 116.70117 151.91211 L 116.70117 140.83203 L 114.11914 140.83203 L 114.11914 151.91211 L 105.55469 151.91211 L 105.55469 125.4707 z M 140.42383 125.4707 L 154.76562 125.4707 L 154.76562 130.77148 L 149.05664 130.77148 L 149.05664 135.80273 L 154.42578 135.80273 L 154.42578 140.83203 L 149.05664 140.83203 L 149.05664 146.60938 L 155.37891 146.60938 L 155.37891 151.91211 L 140.42383 151.91211 L 140.42383 125.4707 z M 187.05273 125.4707 L 195.68555 125.4707 L 195.68555 134.91797 L 198.26953 134.91797 L 198.26953 125.4707 L 206.83398 125.4707 L 206.83398 151.91211 L 198.26953 151.91211 L 198.26953 140.83203 L 195.68555 140.83203 L 195.68555 151.91211 L 187.05273 151.91211 L 187.05273 125.4707 z M 221.92383 125.4707 L 236.33398 125.4707 L 236.33398 130.77148 L 230.55664 130.77148 L 230.55664 135.80273 L 235.92578 135.80273 L 235.92578 140.83203 L 230.55664 140.83203 L 230.55664 146.60938 L 236.87695 146.60938 L 236.87695 151.91211 L 221.92383 151.91211 L 221.92383 125.4707 z M 251.28711 125.4707 L 257.74414 125.4707 C 261.89049 125.4707 264.67841 125.67342 266.17383 125.94531 C 267.60125 126.2172 268.7562 126.76168 269.50391 127.44141 C 270.2516 128.12113 270.72772 128.86831 270.93164 129.75195 C 271.13553 130.56763 271.20312 132.26821 271.20312 134.7832 L 271.20312 144.02734 C 271.20312 146.40639 271.06877 147.96948 270.79688 148.78516 C 270.45696 149.60083 269.9805 150.21169 269.30078 150.6875 C 268.62105 151.16331 267.7364 151.43671 266.7168 151.64062 C 265.69721 151.84459 264.13489 151.91211 262.0957 151.91211 L 262.0957 151.98047 L 251.28711 151.98047 L 251.28711 125.4707 z M 320.2793 125.4707 L 334.62305 125.4707 L 334.62305 130.77148 L 328.84375 130.77148 L 328.84375 135.80273 L 334.2832 135.80273 L 334.2832 140.83203 L 328.84375 140.83203 L 328.84375 146.60938 L 335.16602 146.60938 L 335.16602 151.91211 L 320.2793 151.91211 L 320.2793 125.4707 z M 349.50781 125.4707 L 358.14062 125.4707 L 358.14062 134.91797 L 360.72461 134.91797 L 360.72461 125.4707 L 369.35742 125.4707 L 369.35742 151.91211 L 360.72461 151.91211 L 360.72461 140.83203 L 358.14062 140.83203 L 358.14062 151.91211 L 349.50781 151.91211 L 349.50781 125.4707 z M 393.69141 129.3457 C 393.28357 129.3457 392.94377 129.48006 392.67188 129.75195 C 392.46795 130.02384 392.33203 130.83976 392.33203 132.19922 L 392.33203 144.57031 C 392.33203 146.13369 392.39921 147.08592 392.53516 147.42578 C 392.6711 147.76565 393.07927 147.96875 393.62305 147.96875 C 394.23481 147.96875 394.6414 147.76526 394.77734 147.35742 C 394.91329 146.94959 394.98278 145.99892 395.05078 144.43555 L 395.05078 132.26758 C 395.05078 131.04407 394.98126 130.22854 394.77734 129.88867 C 394.57342 129.54881 394.23519 129.3457 393.69141 129.3457 z M 260.47461 130.00781 C 260.28131 130.0025 260.07248 130.0084 259.85156 130.02539 L 259.85156 147.42578 C 261.07508 147.42578 261.89217 147.22229 262.16406 146.81445 C 262.43596 146.40662 262.57031 145.31807 262.57031 143.55078 L 262.57031 133.28711 C 262.57031 132.0636 262.50355 131.31643 262.43555 130.97656 C 262.2996 130.6367 262.09573 130.36446 261.75586 130.22852 C 261.50096 130.12656 261.0545 130.02374 260.47461 130.00781 z "
       transform="matrix(0.75000002,0,0,-0.75000002,0,150.00003)"
       id="rect2986" /><path
       style="fill:#ffffff;stroke-width:0.67972809"
       d="M 279.02148 14.607422 L 279.02148 23.783203 C 278.0019 21.744017 274.39844 14.673828 274.39844 14.673828 L 226.3418 14.673828 L 226.3418 30.171875 C 216.41776 19.092315 201.39636 13.6554 183.85938 14.878906 C 171.01247 15.83052 158.63995 21.947885 150.2793 31.328125 C 150.89106 29.153005 152.93164 21.744141 152.93164 21.744141 L 143.21094 19.160156 C 142.66716 19.024223 137.70425 17.733249 132.0625 16.849609 C 125.40116 15.830009 116.63373 14.741756 107.86523 15.353516 C 96.921628 16.169182 83.326277 18.548938 75.101562 29.900391 C 70.955221 35.61011 68.916016 42.474921 68.916016 50.427734 L 69.121094 54.710938 C 69.868794 63.003617 72.722351 69.25637 77.820312 73.810547 C 77.684366 74.150411 76.460934 78.296875 76.460938 78.296875 L 68.373047 107.86523 L 79.519531 109.49609 C 80.403178 109.63207 88.017966 110.72066 94.611328 111.40039 C 101.88442 112.14809 109.0198 112.14691 117.65234 111.53516 C 128.79988 110.71948 138.79334 105.62274 145.04688 97.669922 C 146.13445 96.310466 147.08587 94.747375 148.10547 92.912109 C 157.28179 104.73938 172.30256 111.73946 188.41211 111.60352 C 203.02627 111.46757 217.16586 105.28147 226.41016 95.017578 L 226.41016 111.60352 L 270.66016 111.60352 L 270.66016 103.85547 C 271.67974 105.82668 274.60156 111.60352 274.60156 111.60352 L 367.04492 111.60352 L 367.04492 95.970703 C 373.57031 103.51569 382.54272 108.68111 393.14648 110.99219 C 404.0901 113.37124 414.83107 111.46729 424.2793 109.83594 L 443.10742 106.98242 C 443.10742 107.0504 429.71641 65.246889 429.64844 65.042969 C 429.71644 64.839049 442.76758 18.617183 442.76758 18.617188 L 431.89062 16.986328 L 425.63867 16.033203 C 424.27922 15.897256 412.24638 14.742132 400.96289 15.761719 C 387.23238 16.985239 375.26963 23.170496 367.04492 33.230469 L 367.04492 14.673828 L 279.02148 14.607422 z M 236.60547 24.734375 L 268.62109 24.802734 C 268.62109 24.802734 287.99368 62.799839 289.28516 65.382812 L 289.28516 24.802734 L 313.6875 24.802734 L 313.6875 101.81641 L 280.99219 101.88281 C 280.99219 101.88281 262.29929 65.247036 261.00781 62.664062 L 261.00781 101.81641 L 236.60547 101.81641 L 236.60547 25.074219 L 236.60547 24.734375 z M 329.11719 24.802734 L 357.39258 24.802734 L 357.32617 101.81641 L 329.11719 101.81641 L 329.11719 24.802734 z M 188.95898 24.910156 C 208.86568 24.778725 221.31684 34.921522 226.47852 49.068359 C 228.85757 55.729693 229.19698 65.381981 227.42969 72.791016 C 218.32133 111.12768 159.25213 111.67138 149.66797 74.150391 C 146.8131 63.002847 149.66771 51.040295 154.08594 43.359375 C 159.52376 33.911149 171.21637 26.093805 184.87891 25.074219 C 186.27235 24.97226 187.63187 24.918918 188.95898 24.910156 z M 114.74219 25.410156 C 120.56661 25.512116 126.2007 26.264806 130.83984 26.978516 C 136.14172 27.794196 140.96875 29.083984 140.96875 29.083984 L 136.07422 46.486328 C 136.07422 46.486328 130.84047 45.806664 126.83008 45.466797 C 121.05239 44.990997 114.18577 44.786668 110.44727 45.738281 C 109.15578 46.078148 108.27268 46.554269 107.79688 47.166016 C 106.30143 49.001282 107.04919 50.700331 107.45703 51.583984 C 107.93284 52.467624 108.54407 52.73903 109.76758 53.214844 C 112.9623 54.64227 128.86841 54.981784 134.57812 58.992188 C 138.31667 61.575147 140.96831 65.654362 141.91992 71.160156 C 144.9787 89.17295 132.60717 100.6593 117.10938 101.88281 C 108.40882 102.49457 101.88318 102.3598 95.765625 101.74805 C 89.10429 101.06832 81.083984 99.912109 81.083984 99.912109 L 86.181641 81.220703 C 86.181641 81.220703 91.484152 81.899597 95.222656 82.103516 C 100.66048 82.375406 106.84548 82.375447 110.58398 81.423828 C 112.07939 81.015991 112.96246 80.336365 113.57422 79.724609 C 114.52584 78.705017 114.73092 76.597737 113.7793 75.238281 C 112.89565 74.014771 112.01184 73.606262 109.97266 73.402344 C 108.00144 73.198425 105.82591 73.131266 103.71875 72.859375 C 90.396078 71.160055 80.607504 69.665388 79.248047 54.099609 C 78.568319 46.41869 80.200196 40.503778 83.462891 36.017578 C 88.628824 28.812458 97.397345 26.366448 108.88477 25.550781 C 110.83898 25.414835 112.80071 25.37617 114.74219 25.410156 z M 412.66992 25.527344 C 418.25246 25.577122 422.97889 25.949684 424.89062 26.162109 C 427.33767 26.366029 430.39648 26.978516 430.39648 26.978516 L 422.64648 54.439453 C 422.64648 54.439453 421.83167 53.282454 421.42383 52.806641 C 415.10236 45.397601 405.99455 48.524646 399.19727 54.574219 C 391.24445 61.711365 387.70845 72.723898 396.88477 78.09375 C 402.11867 81.152526 408.37349 80.675638 413.94727 76.529297 C 416.05441 74.897949 418.2288 72.92747 419.99609 70.820312 C 420.26799 70.480449 420.8125 69.732422 420.8125 69.732422 L 430.19141 99.029297 C 430.19141 99.029297 429.17269 99.16445 428.62891 99.232422 C 418.50096 100.72782 406.60616 103.85561 395.39062 101.47656 C 352.63573 92.232264 357.59696 29.765065 402.11914 25.890625 C 405.66223 25.584745 409.3204 25.497477 412.66992 25.527344 z M 192.52344 47.904297 C 192.00032 47.920842 191.46727 47.968111 190.92773 48.048828 C 181.41153 49.476255 165.30136 65.789252 175.36133 75.78125 C 178.21618 78.636109 182.09145 80.133259 187.86914 79.181641 C 194.80237 78.026102 203.57142 69.392991 204.79492 62.595703 C 206.19686 54.438966 200.37026 47.656121 192.52344 47.904297 z "
       transform="matrix(0.75000002,0,0,-0.75000002,0,150.00003)"
       id="path3012" /><path
       d="m 9.1298729,1.9004108 c 1.1681301,0 2.3042101,0.25763 3.4082301,0.77286 1.104,0.51525 2.01216,1.20714 2.72443,2.07569 v 0 l -2.02997,2.07569 c -0.52708,-0.633 -1.13252,-1.11881 -1.81629,-1.4574 -0.68378,-0.33858 -1.4174201,-0.50787 -2.2009101,-0.50787 -0.69803,0 -1.34264,0.1288 -1.933819,0.38642 -0.591188,0.25762 -1.104019,0.60725 -1.538504,1.04888 -0.434497,0.44164 -0.776377,0.96794 -1.025674,1.57886 -0.249297,0.61094 -0.373946,1.2697 -0.373946,1.97632 0,0.7213502 0.121032,1.3874802 0.363269,1.9984102 0.242167,0.61093 0.576929,1.14089 1.004296,1.58989 0.427355,0.449 0.936639,0.80231 1.527816,1.05993 0.591192,0.25761 1.221552,0.38643 1.891072,0.38643 0.79776,0 1.5527501,-0.18033 2.2650301,-0.541 0.71228,-0.36068 1.33194,-0.8796 1.85902,-1.55678 v 0 l 2.09408,2.14195 c -0.69802,0.88326 -1.60973,1.5862 -2.73512,2.10881 -1.12538,0.5226 -2.28638,0.7839 -3.4830101,0.7839 -1.11114,0 -2.154605,-0.2061 -3.130418,-0.61829 -0.975812,-0.4122 -1.819845,-0.97161 -2.532124,-1.67822 -0.712266,-0.70661 -1.274959,-1.5494 -1.688078,-2.52836 -0.413119,-0.97896 -0.619673,-2.02785 -0.619673,-3.1466702 0,-1.1188 0.202994,-2.16402 0.608984,-3.13562 0.406001,-0.97159 0.965123,-1.81071 1.67739,-2.51733 0.712278,-0.7066 1.556312,-1.26601 2.532135,-1.67821 0.975813,-0.4122 2.026414,-0.61829 3.151784,-0.61829 z m 40.4925801,-0.0221 c 1.11115,0 2.15107,0.20609 3.11976,0.61829 0.96869,0.41219 1.80561,0.97528 2.51075,1.68925 0.70515,0.71399 1.26428,1.56045 1.67739,2.53941 0.41312,0.97897 0.61968,2.0205 0.61968,3.12458 0,1.1041002 -0.20656,2.1456302 -0.61968,3.1245802 -0.41311,0.97897 -0.97224,1.82543 -1.67739,2.5394 -0.70514,0.71398 -1.54206,1.27708 -2.51075,1.68927 -0.96869,0.4122 -2.00861,0.61829 -3.11976,0.61829 -1.0969,0 -2.12967,-0.20609 -3.09837,-0.61829 -0.9687,-0.41219 -1.8056,-0.97529 -2.51075,-1.68927 -0.70515,-0.71397 -1.26428,-1.56043 -1.67739,-2.5394 -0.41313,-0.97895 -0.61968,-2.02048 -0.61968,-3.1245802 0,-1.10408 0.20655,-2.14561 0.61968,-3.12458 0.41311,-0.97896 0.97224,-1.82542 1.67739,-2.53941 0.70515,-0.71397 1.54205,-1.27706 2.51075,-1.68925 0.9687,-0.4122 2.00147,-0.61829 3.09837,-0.61829 z m 0,2.93688 c -0.66953,0 -1.29276,0.12881 -1.86969,0.38644 -0.57694,0.25761 -1.07554,0.61092 -1.49579,1.05991 -0.42022,0.44901 -0.75143,0.98265 -0.9936,1.60094 -0.24218,0.61829 -0.36327,1.28075 -0.36327,1.98736 0,0.7213402 0.12104,1.3874802 0.36327,1.9984002 0.24217,0.61095 0.57338,1.1409 0.9936,1.5899 0.42025,0.449 0.91885,0.8023 1.49579,1.05992 0.57693,0.25763 1.20016,0.38644 1.86969,0.38644 0.66955,0 1.29635,-0.12881 1.88041,-0.38644 0.58406,-0.25762 1.0862,-0.61092 1.50645,-1.05992 0.42023,-0.449 0.75145,-0.97895 0.99361,-1.5899 0.24218,-0.61092 0.36327,-1.27706 0.36327,-1.9984002 0,-0.70661 -0.12105,-1.36907 -0.36327,-1.98736 -0.24216,-0.61829 -0.57338,-1.15193 -0.99361,-1.60094 -0.42025,-0.44899 -0.92239,-0.8023 -1.50645,-1.05991 -0.58406,-0.25763 -1.21086,-0.38644 -1.88041,-0.38644 z m 46.96713,-2.69399 v 2.82648 h -8.18399 V 17.578521 h -3.09838 V 2.1212508 Z m 39.060917,0 v 2.82648 h -8.18399 V 17.578521 h -3.09837 V 2.1212508 Z m 39.36007,0 v 2.78232 h -8.48314 v 3.66558 h 5.53435 v 2.6939902 h -5.53435 v 3.53308 h 8.39767 v 2.78231 H 163.42906 V 2.1212208 Z m 34.35993,-0.22081 c 1.16814,0 2.3042,0.25762 3.40822,0.77286 1.10401,0.51525 2.01216,1.20715 2.72444,2.0757 v 0 l -2.02998,2.07569 c -0.52708,-0.63302 -1.13251,-1.11881 -1.81628,-1.4574 -0.68379,-0.3386 -1.41742,-0.50789 -2.20092,-0.50789 -0.69803,0 -1.34264,0.12881 -1.93382,0.38643 -0.59118,0.25763 -1.10401,0.60726 -1.5385,1.04889 -0.43449,0.44164 -0.77638,0.96792 -1.02567,1.57885 -0.2493,0.61093 -0.37395,1.26971 -0.37395,1.97632 0,0.7213402 0.12103,1.3874802 0.36326,1.9984002 0.24218,0.61095 0.57694,1.1409 1.00431,1.5899 0.42736,0.449 0.93664,0.8023 1.52781,1.05992 0.59119,0.25763 1.22155,0.38644 1.89108,0.38644 0.79775,0 1.55276,-0.18034 2.26503,-0.54101 0.71227,-0.36066 1.33193,-0.87959 1.85901,-1.55676 v 0 l 2.09409,2.14193 c -0.69802,0.88327 -1.60973,1.58621 -2.73511,2.10882 -1.1254,0.52259 -2.2864,0.7839 -3.48302,0.7839 -1.11114,0 -2.15461,-0.20609 -3.13042,-0.61829 -0.97582,-0.41219 -1.81984,-0.9716 -2.53213,-1.67823 -0.71226,-0.7066 -1.27496,-1.54939 -1.68808,-2.52835 -0.41311,-0.97896 -0.61967,-2.02785 -0.61967,-3.1466702 0,-1.11881 0.203,-2.16401 0.609,-3.13562 0.40599,-0.9716 0.9651,-1.8107 1.67739,-2.51733 0.71228,-0.70662 1.55631,-1.26601 2.53212,-1.6782 0.97581,-0.4122 2.0264,-0.6183 3.15179,-0.6183 z m 40.98406,0.22081 V 14.752061 h 5.02149 v 2.82647 H 242.2133 v -2.82647 h 5.04286 V 2.1212608 Z m 35.49243,0 V 17.578521 h -3.09837 V 2.1212508 Z m 35.68475,-0.24289 c 1.11116,0 2.15107,0.20609 3.11976,0.61829 0.96868,0.41219 1.8056,0.97528 2.51075,1.68925 0.70515,0.71399 1.26428,1.56045 1.6774,2.53941 0.4131,0.97897 0.61967,2.0205 0.61967,3.12458 0,1.1041002 -0.20657,2.1456302 -0.61967,3.1245802 -0.41312,0.97897 -0.97225,1.82543 -1.6774,2.5394 -0.70515,0.71398 -1.54207,1.27708 -2.51075,1.68927 -0.96869,0.4122 -2.0086,0.61829 -3.11976,0.61829 -1.09689,0 -2.12969,-0.20609 -3.09836,-0.61829 -0.96869,-0.41219 -1.8056,-0.97529 -2.51075,-1.68927 -0.70515,-0.71397 -1.26429,-1.56043 -1.67741,-2.5394 -0.41312,-0.97895 -0.61969,-2.02048 -0.61969,-3.1245802 0,-1.10408 0.20657,-2.14561 0.61969,-3.12458 0.41312,-0.97896 0.97226,-1.82542 1.67741,-2.53941 0.70515,-0.71397 1.54206,-1.27706 2.51075,-1.68925 0.96867,-0.4122 2.00147,-0.61829 3.09836,-0.61829 z m 0,2.93688 c -0.66952,0 -1.29277,0.12881 -1.8697,0.38644 -0.57694,0.25761 -1.07553,0.61092 -1.49577,1.05991 -0.42024,0.44901 -0.75144,0.98265 -0.99362,1.60094 -0.24217,0.61829 -0.36326,1.28075 -0.36326,1.98736 0,0.7213402 0.12103,1.3874802 0.36326,1.9984002 0.24218,0.61095 0.57338,1.1409 0.99362,1.5899 0.42024,0.449 0.91883,0.8023 1.49577,1.05992 0.57693,0.25763 1.20018,0.38644 1.8697,0.38644 0.66954,0 1.29635,-0.12881 1.8804,-0.38644 0.58407,-0.25762 1.0862,-0.61092 1.50645,-1.05992 0.42024,-0.449 0.75145,-0.97895 0.99362,-1.5899 0.24217,-0.61092 0.36326,-1.27706 0.36326,-1.9984002 0,-0.70661 -0.12103,-1.36907 -0.36326,-1.98736 -0.24217,-0.61829 -0.57338,-1.15193 -0.99362,-1.60094 -0.42025,-0.44899 -0.92238,-0.8023 -1.50645,-1.05991 -0.58405,-0.25763 -1.21086,-0.38644 -1.8804,-0.38644 z m 38.61219,-2.69399 V 12.455501 l 7.62842,-10.3343002 h 2.73513 V 17.578521 h -2.90607 V 7.5754608 l -7.4361,10.0030602 H 357.2165 V 2.1212508 Z"
       id="COLLECTION"
       inkscape:connector-curvature="0"
       style="fill:#ffffff;fill-rule:nonzero;stroke:none;stroke-width:1.32858956" /></g><style
     id="style1420">.st0{fill:#d82b46}.st1{fill:#231f20}</style><style
     id="style2984"
     type="text/css">
	.st0{fill:#D80B24;}
	.st1{fill:#FFFFFF;}
	.st2{fill:#0069AC;}
	.st3{fill:#F39700;}
</style></svg>