<?xml version="1.0" encoding="UTF-8" standalone="no"?>
<svg
   xmlns:dc="http://purl.org/dc/elements/1.1/"
   xmlns:cc="http://creativecommons.org/ns#"
   xmlns:rdf="http://www.w3.org/1999/02/22-rdf-syntax-ns#"
   xmlns:svg="http://www.w3.org/2000/svg"
   xmlns="http://www.w3.org/2000/svg"
   xmlns:sodipodi="http://sodipodi.sourceforge.net/DTD/sodipodi-0.dtd"
   xmlns:inkscape="http://www.inkscape.org/namespaces/inkscape"
   width="500"
   height="200"
   viewBox="0 0 500 200"
   version="1.1"
   id="svg42"
   sodipodi:docname="supergrafx.svg"
   inkscape:version="0.92.5 (2060ec1f9f, 2020-04-08)">
  <metadata
     id="metadata48">
    <rdf:RDF>
      <cc:Work
         rdf:about="">
        <dc:format>image/svg+xml</dc:format>
        <dc:type
           rdf:resource="http://purl.org/dc/dcmitype/StillImage" />
        <dc:title>mainlogo</dc:title>
      </cc:Work>
    </rdf:RDF>
  </metadata>
  <defs
     id="defs46" />
  <sodipodi:namedview
     pagecolor="#ffffff"
     bordercolor="#666666"
     borderopacity="1"
     objecttolerance="10"
     gridtolerance="10"
     guidetolerance="10"
     inkscape:pageopacity="0"
     inkscape:pageshadow="2"
     inkscape:window-width="1366"
     inkscape:window-height="743"
     id="namedview44"
     showgrid="false"
     inkscape:zoom="2.0212568"
     inkscape:cx="189.60283"
     inkscape:cy="81.381886"
     inkscape:window-x="0"
     inkscape:window-y="0"
     inkscape:window-maximized="1"
     inkscape:current-layer="svg42"
     inkscape:pagecheckerboard="true" />
  <title
     id="title2">mainlogo</title>
  <g
     id="Group-56"
     transform="matrix(1.0943766,0,0,1.049562,121.09403,23.214846)"
     style="fill:#ffffff;fill-rule:nonzero;stroke:none;stroke-width:1">
    <polygon
       id="Path"
       points="29.589,64.488 29.589,42.992 23.727,42.992 23.727,19.542 39.36,19.542 39.36,35.176 60.856,35.176 60.856,15.634 45.223,0 13.956,0 0.277,15.634 0.277,48.855 15.91,64.488 "
       style="fill:#ffffff" />
    <polygon
       id="polygon5"
       points="33.498,42.992 33.498,64.488 39.36,64.488 39.36,87.938 23.727,87.938 23.727,72.304 0.277,72.304 0.277,93.801 15.91,109.434 49.131,109.434 62.81,93.801 62.81,58.626 47.177,42.992 "
       style="fill:#ffffff" />
    <polygon
       id="polygon7"
       points="90.168,89.893 90.168,4.2632564e-14 66.718,4.2632564e-14 66.718,93.801 83.329,109.434 96.031,109.434 96.031,89.893 "
       style="fill:#ffffff" />
    <polygon
       id="polygon9"
       points="105.801,89.893 105.801,4.2632564e-14 129.251,4.2632564e-14 129.251,93.801 112.642,109.434 99.939,109.434 99.939,89.893 "
       style="fill:#ffffff" />
    <polygon
       id="polygon11"
       points="193.739,16.611 177.129,7.1054274e-15 162.473,7.1054274e-15 162.473,19.542 170.289,19.542 170.289,52.763 162.473,52.763 162.473,74.259 178.105,74.259 193.739,58.626 "
       style="fill:#ffffff" />
    <rect
       id="Rectangle"
       x="135.114"
       y="-7.1054274e-15"
       width="23.450001"
       height="109.433"
       style="fill:#ffffff" />
    <polygon
       id="polygon14"
       points="248.456,4.2632564e-14 201.556,4.2632564e-14 201.556,109.434 248.456,109.434 248.456,89.893 223.051,89.893 223.051,21.497 248.456,21.497 "
       style="fill:#ffffff" />
    <rect
       id="rect16"
       x="226.96001"
       y="42.992001"
       width="15.634"
       height="19.542"
       style="fill:#ffffff" />
    <polygon
       id="polygon18"
       points="306.104,55.694 316.852,66.442 316.852,109.434 295.355,109.434 295.355,66.442 283.631,66.442 283.631,44.946 293.401,44.946 293.401,19.542 283.631,19.542 283.631,4.2632564e-14 301.219,4.2632564e-14 316.852,15.634 316.852,44.946 "
       style="fill:#ffffff" />
    <rect
       id="rect20"
       x="256.27301"
       y="-7.1054274e-15"
       width="23.448"
       height="109.433"
       style="fill:#ffffff" />
    <polygon
       id="polygon22"
       points="42.015,154.868 42.015,134.838 22.474,134.838 22.474,140.701 36.152,140.701 36.152,148.518 8.794,148.518 8.794,127.021 42.015,127.021 42.015,121.158 4.886,121.158 -2.9487524e-13,126.044 -2.9487524e-13,148.518 6.351,154.868 "
       style="fill:#ffffff" />
    <path
       d="m 88.915,135.815 v -8.794 l -5.862,-5.863 H 49.832 v 33.221 h 7.816 v -13.678 h 13.679 l 9.771,13.678 h 7.817 l -9.771,-13.678 h 3.909 z m -7.817,-0.977 h -23.45 v -7.816 h 23.45 z"
       id="Shape"
       inkscape:connector-curvature="0"
       style="fill:#ffffff" />
    <polygon
       id="polygon25"
       points="124.09,121.158 141.678,154.379 131.906,154.379 118.228,128.976 114.319,128.976 102.594,154.379 92.823,154.379 108.457,121.158 "
       style="fill:#ffffff" />
    <polygon
       id="polygon27"
       points="180.76,127.021 180.76,121.158 143.631,121.158 143.631,154.379 151.448,154.379 151.448,140.701 176.852,140.701 176.852,134.838 151.448,134.838 151.448,127.021 "
       style="fill:#ffffff" />
    <polygon
       id="polygon29"
       points="229.614,154.379 212.027,136.792 229.614,121.158 217.89,121.158 206.165,132.884 194.439,121.158 184.669,121.158 200.303,136.792 182.715,154.379 194.439,154.379 206.165,142.654 217.89,154.379 "
       style="fill:#ffffff" />
  </g>
  <path
     style="fill:none;fill-rule:evenodd;stroke:#ffffff;stroke-width:1.35173655;stroke-linecap:round;stroke-linejoin:round;stroke-opacity:1"
     inkscape:connector-curvature="0"
     id="path22"
     d="m 52.274472,48.060754 c 4.459136,-8.811338 9.829463,-13.939327 15.461061,-13.725914 9.283458,0.34749 16.886902,15.108422 20.417101,36.665305" />
  <path
     style="fill:none;fill-rule:evenodd;stroke:#ffffff;stroke-width:1.35173655;stroke-linecap:round;stroke-linejoin:round;stroke-opacity:1"
     inkscape:connector-curvature="0"
     id="path24"
     d="m 90.031607,108.40725 c -0.385693,7.72685 -1.203616,15.1133 -2.375879,21.95871" />
  <path
     style="fill:none;fill-rule:evenodd;stroke:#ffffff;stroke-width:1.35173655;stroke-linecap:round;stroke-linejoin:round;stroke-opacity:1"
     inkscape:connector-curvature="0"
     id="path26"
     d="M 86.232446,137.27604 C 81.351143,159.34935 72.616639,174.22418 63.123579,173.939 50.147262,173.55189 40.41365,144.98549 40.514392,108.97572" />
  <polyline
     style="fill:#ffffff;fill-rule:nonzero;stroke:none;stroke-width:1"
     points="44.476614 79.3289537 61.1274071 92.0213726 41.5703108 84.2148944 36.0744607 89.9354289 37.8267111 82.0085905 21.1757378 69.3163517 40.7331945 77.124992 46.2288644 71.4042774 44.476614 79.3289537"
     transform="matrix(0,1.049562,1.0943766,0,-11.057362,74.836533)"
     id="path28" />
  <path
     style="fill:#ffffff;fill-rule:nonzero;stroke:none;stroke-width:1.07173514"
     inkscape:connector-curvature="0"
     id="path30"
     d="m 82.97397,80.454136 7.699474,1.37275 0.851443,5.147766 c 0.11141,0.675123 -0.289861,1.020248 -1.032656,0.88617 l -5.269368,-0.938365 c -0.745161,-0.134079 -1.286039,-0.645244 -1.397449,-1.320366 z m -22.063003,58.519924 7.872799,1.40471 c 2.489655,0.4446 4.935337,3.01101 5.297763,5.1975 l 1.563084,9.4591 c 0.26403,1.59363 -1.591676,2.70068 -3.408536,2.37541 l -2.533627,-0.46427 c -1.816663,-0.32508 -3.747694,-2.1046 -4.011527,-3.69805 l -1.625197,-9.81897 -0.918684,-0.14164 c -1.04567,-0.18609 -1.86103,0.4792 -1.708211,1.39752 l 1.822184,10.97557 -4.151528,-0.73961 -2.047172,-12.38047 c -0.362229,-2.18668 1.356237,-4.00875 3.848652,-3.5668 z m 8.020293,-24.53306 0.65209,3.95429 -17.019017,-3.03578 -0.667825,-4.04299 17.016612,3.03295 0.01814,0.0915 z m -20.867689,-26.292354 -0.667273,-4.04582 11.050845,1.970906 c 1.384632,0.248112 1.834608,-0.153936 1.622634,-1.43459 l -1.167531,-7.049267 -12.965885,-2.310736 -0.67019,-4.04582 17.018977,3.033136 0.01557,0.09437 2.2203,13.420385 c 0.336595,2.030475 -0.947078,3.132419 -3.185716,2.73283 z M 49.176659,68.7191 44.71989,67.924649 41.922271,51.009472 l 29.581461,5.271859 2.311006,13.974099 -4.052739,-0.7224 -1.643535,-9.928279 -8.509508,-1.516473 1.338096,8.089183 -4.050569,-0.722401 -1.337899,-8.088993 -8.511914,-1.518933 z m 3.242763,0.578299 -1.581027,-9.561027 2.02349,0.359876 1.278743,7.721743 10.535779,1.878997 -1.278546,-7.721742 2.026468,0.359876 1.581423,9.560838 z m -7.109358,21.216637 0.354557,0.06222 c -0.02049,0.263052 -0.126789,0.615365 -0.07765,0.923046 l 1.29927,7.950187 c -1.654049,-0.295391 -2.068137,-2.390163 -2.595607,-5.587068 l -0.603346,-3.638668 -10.939436,-1.951047 0.789354,4.780512 c 1.211066,11.769832 7.554105,16.247962 15.116752,17.684622 l 2.373158,14.34136 12.96624,2.31073 0.194029,1.16681 c 0.212171,1.27838 0.452933,1.08965 -0.931895,0.844 l -11.863582,-2.11501 1.703046,10.29591 0.786767,0.14127 c -0.357102,0.77705 -0.484089,1.68553 -0.325947,2.64621 l 2.945152,17.80604 9.319346,1.66058 0.856966,-1.15414 c 1.234375,1.00039 2.745797,1.77952 4.013892,2.00551 l 1.470012,0.28045 c 5.496921,0.88863 6.956679,-3.97131 6.589127,-6.19033 l -1.690071,-10.21856 c -0.300115,-1.8096 -1.614746,-3.80244 -3.356676,-5.25197 1.384631,-1.34041 1.922945,-3.41041 1.72379,-4.61428 l -1.881538,-11.37535 -2.934898,1.27328 1.695198,10.26092 c 0.245692,1.47922 -0.370116,2.46694 -1.591676,2.73775 -0.323581,-0.10912 -14.925309,-2.73775 -14.925309,-2.73775 l -0.608315,-3.67857 11.053586,1.97109 c 1.384434,0.24566 1.832438,-0.15639 1.620267,-1.43477 l -1.167333,-7.04927 -12.966082,-2.31301 -0.670427,-4.04355 14.845251,2.64603 4.094344,-3.32853 -4.516319,-11.98333 0.939586,5.67916 0.01282,0.0915 -20.258999,-3.61124 C 43.019565,106.8783 38.099648,101.61139 37.325855,96.939996 l -0.789508,-4.780324 4.053153,0.724859 0.600408,3.636208 c 0.530466,3.196905 3.866201,6.795861 7.355228,7.416331 l 2.194666,0.39221 -1.565844,-9.469117 c -0.336436,-2.030285 0.9498,-3.132419 3.186072,-2.732641 l 9.524044,1.697642 c 1.692436,0.300307 3.097773,1.312991 3.827553,2.668343 l 0.253974,0.02213 3.811977,4.750633 -0.486653,-2.774812 c -0.243326,-1.47676 -1.397448,-4.214695 -3.711214,-5.954508 1.635451,-1.31545 2.277484,-3.616352 2.06275,-4.911945 l -1.690071,-10.206459 9.322107,1.663223 1.232011,7.446209 c 0.654652,3.963746 5.302889,8.349588 9.668757,9.128909 l 6.281321,1.119533 c 4.368628,0.779322 7.802994,-2.166823 7.148145,-6.13076 L 96.913159,74.373113 77.461473,70.90578 74.982072,55.921455 c -0.209607,-1.268172 -1.513985,-2.501927 -2.91163,-2.750039 L 40.66443,47.571735 c -1.397468,-0.248208 -2.362667,0.578336 -2.153238,1.846697 l 4.731054,28.591079 12.966259,2.313194 0.19403,1.164162 c 0.209607,1.280653 0.450173,1.09211 -0.934459,0.843809 L 43.607195,80.215858 Z m 22.984487,53.669814 -0.491779,-0.0868 1.265531,7.64951 c 0.101154,0.60326 0.737669,1.19177 1.426041,1.31582 0.688372,0.1216 1.16477,-0.26815 1.063812,-0.87123 l -0.323581,-1.96618 -0.520173,-3.13431 -0.129353,-0.79445 c -0.152818,-0.91851 -1.244828,-1.92627 -2.290498,-2.11236 z M 60.271892,97.106413 55.188665,96.200387 c -1.386997,-0.248113 -1.834804,0.153935 -1.622633,1.434777 l 1.226489,7.416146 8.91354,1.58871 -1.22432,-7.416331 C 62.26957,97.942846 61.658889,97.352256 60.271892,97.106413 Z m -1.85334,2.524241 c 1.286433,0.25076 1.099896,0.707456 1.306743,1.958426 l 0.191861,1.16416 -2.023904,-0.36234 -0.19403,-1.16435 c -0.207242,-1.25077 -0.556653,-1.801837 0.71933,-1.595896" />
  <path
     style="fill:#ffffff;fill-rule:nonzero;stroke:none;stroke-width:1.07173514"
     inkscape:connector-curvature="0"
     id="path32"
     d="m 79.371405,113.3591 4.513559,-1.0923 -0.07769,-0.61555 -1.112911,-0.19819 c -0.771189,-0.13654 -1.400011,-0.73243 -1.516548,-1.43005 l -0.698823,-4.22907 c -0.116339,-0.69763 0.349411,-1.09741 1.120601,-0.96049 l 11.954326,2.13184 c 0.768627,0.13653 1.397646,0.73204 1.513985,1.42967 l 0.698823,4.22945 c 0.116536,0.69724 -0.349411,1.09721 -1.118235,0.9603 l -1.521675,-0.27289 1.415787,8.55099 1.821988,0.32508 c 4.598938,0.81885 8.095418,-2.1793 7.406848,-6.35429 l -1.35347,-8.18071 c -0.69094,-4.17252 -5.421993,-8.640249 -10.020737,-9.459285 l -12.764361,-2.27594 c -4.59894,-0.819225 -8.09542,2.179116 -7.404485,6.354095 l 0.45037,2.7351 6.692648,8.35224" />
  <path
     style="fill:#ffffff;fill-rule:nonzero;stroke:none;stroke-width:1.07173514"
     inkscape:connector-curvature="0"
     id="path34"
     d="m 82.093935,119.42008 c 0.626456,0.22371 0.864458,0.37746 1.506294,0.49187 l 1.622634,0.29029 -0.564146,-3.40323 -2.564782,2.62107" />
</svg>
