<?xml version="1.0" encoding="UTF-8" standalone="no"?>
<!-- Created with Inkscape (http://www.inkscape.org/) -->

<svg
   xmlns:dc="http://purl.org/dc/elements/1.1/"
   xmlns:cc="http://creativecommons.org/ns#"
   xmlns:rdf="http://www.w3.org/1999/02/22-rdf-syntax-ns#"
   xmlns:svg="http://www.w3.org/2000/svg"
   xmlns="http://www.w3.org/2000/svg"
   xmlns:sodipodi="http://sodipodi.sourceforge.net/DTD/sodipodi-0.dtd"
   xmlns:inkscape="http://www.inkscape.org/namespaces/inkscape"
   width="500"
   height="200"
   viewBox="0 0 500 200"
   version="1.1"
   id="svg8"
   inkscape:version="0.92.5 (2060ec1f9f, 2020-04-08)"
   sodipodi:docname="tekken.svg">
  <defs
     id="defs2" />
  <sodipodi:namedview
     id="base"
     pagecolor="#ffffff"
     bordercolor="#666666"
     borderopacity="1.0"
     inkscape:pageopacity="0.0"
     inkscape:pageshadow="2"
     inkscape:zoom="1.3904842"
     inkscape:cx="165.84036"
     inkscape:cy="175.09091"
     inkscape:document-units="mm"
     inkscape:current-layer="layer1"
     showgrid="false"
     units="px"
     inkscape:pagecheckerboard="true"
     inkscape:window-width="1366"
     inkscape:window-height="743"
     inkscape:window-x="0"
     inkscape:window-y="0"
     inkscape:window-maximized="1" />
  <metadata
     id="metadata5">
    <rdf:RDF>
      <cc:Work
         rdf:about="">
        <dc:format>image/svg+xml</dc:format>
        <dc:type
           rdf:resource="http://purl.org/dc/dcmitype/StillImage" />
        <dc:title />
      </cc:Work>
    </rdf:RDF>
  </metadata>
  <g
     inkscape:label="Layer 1"
     inkscape:groupmode="layer"
     id="layer1"
     transform="translate(-0.187026,-225.50254)">
    <path
       inkscape:connector-curvature="0"
       id="path96"
       style="fill:#ffffff;fill-opacity:1;stroke-width:0.23226312"
       d="m 279.94141,236.54569 c -2.19122,-0.026 -2.82443,0.39582 -3.744,1.56597 -0.44189,0.56234 -0.92053,1.02408 -1.06387,1.02605 -0.14335,0.001 -1.01139,-0.55525 -1.92886,-1.23915 l -1.66801,-1.24377 -5.03467,0.87341 c -5.95252,1.03254 -10.89672,2.06211 -12.31354,2.56385 -1.06959,0.37878 -1.32721,0.80131 -1.39285,2.28212 -0.0244,0.55108 -0.27708,0.89459 -1.10338,1.50143 l -1.07136,0.78682 v 2.44707 c 0,1.34609 -0.077,3.00473 -0.17165,3.6857 -0.157,1.12983 -0.22752,1.23812 -0.80369,1.23812 h -0.63137 v -3.80248 c 0,-2.80378 -0.0883,-3.85349 -0.3351,-3.99717 -1.09204,-0.63554 -4.45139,-0.8762 -7.85918,-0.56296 l -1.36492,0.12555 -0.16823,-1.77343 c -0.29388,-3.10401 -1.43379,-4.59067 -3.90337,-5.09083 -0.66394,-0.13451 -4.28497,-0.19291 -9.84593,-0.1593 l -8.79569,0.0528 -0.40933,0.97431 c -0.2255,0.53593 -0.62612,1.06528 -0.88952,1.17615 -0.30586,0.12881 -2.15214,0.14952 -5.10959,0.0574 l -4.63078,-0.14398 -0.42365,-0.53941 c -0.23296,-0.29663 -0.74794,-0.78383 -1.14491,-1.08242 l -0.72197,-0.54247 -8.86857,0.004 c -4.87764,0.001 -9.0031,0.0698 -9.16823,0.15115 -0.16512,0.0814 -0.91472,0.91885 -1.66528,1.86054 -3.06668,3.84754 -6.66031,6.5923 -10.80561,8.25351 -2.43678,0.97651 -2.45279,1.00181 -2.3205,3.70463 0.0885,1.80775 0.13713,1.94247 0.96239,2.67706 2.38799,2.12568 2.74439,3.17378 1.69458,4.98634 -0.58375,1.00778 -0.63601,2.19484 -0.61572,14.02973 6.8e-4,0.39481 0.31621,1.18463 0.70085,1.75551 0.8443,1.25313 0.85517,1.40453 0.14099,1.9763 -0.84072,0.67296 -1.01177,2.39722 -0.8466,8.55214 0.14629,5.45228 0.14957,5.47243 0.80982,6.06259 0.8431,0.7536 2.282,1.30511 4.35561,1.66894 l 1.63532,0.28685 14.21653,-2.007 c 7.81892,-1.10412 14.32349,-2.05744 14.45423,-2.11819 0.13076,-0.0609 0.42014,0.004 0.64364,0.14283 0.30937,0.19308 0.38923,0.60565 0.33375,1.72681 -0.0969,1.95787 0.0948,2.06777 3.61865,2.07669 l 2.64198,0.005 5.59999,-3.53868 c 3.08023,-1.94635 5.76445,-3.50993 5.96437,-3.47465 0.19988,0.0352 2.31216,1.71868 4.69411,3.74052 2.87131,2.43721 4.51009,3.67596 4.86235,3.67596 0.76691,0 5.14119,-0.83159 5.51075,-1.04756 0.25821,-0.151 3.02494,-3.60256 7.47504,-9.32618 l 0.78258,-1.00711 0.0708,0.90669 c 0.11767,1.50976 0.27663,1.74448 1.60125,2.37178 l 1.27433,0.60342 8.03423,0.13681 c 5.62941,0.0957 8.12676,0.20816 8.34275,0.37549 0.16954,0.13143 0.747,1.30439 1.2825,2.60688 1.32569,3.22443 2.23474,4.00596 5.239,4.50429 v 5.2e-4 c 0.81014,0.13435 1.85558,0.25232 2.32322,0.26125 1.55328,0.0309 10.90831,-0.78886 12.51039,-1.09623 2.23287,-0.42842 4.58074,-1.42785 5.79818,-2.46807 0.95672,-0.81747 2.13251,-2.67489 2.13251,-3.36861 0,-0.64237 1.0388,-0.70436 11.77207,-0.70436 h 10.73548 l 0.99916,-0.47742 c 2.02871,-0.96956 2.45562,-1.81218 2.46353,-4.86031 0.006,-2.24941 -0.3462,-3.95773 -1.24572,-6.05284 l -0.69609,-1.62079 1.84576,-2.50853 1.84512,-2.50801 -0.0852,-7.45285 -0.0858,-7.45286 -0.94335,-0.61982 c -0.93803,-0.61617 -0.94729,-0.63762 -1.45073,-3.52486 -0.518,-2.97093 -0.79853,-3.76807 -1.6101,-4.57038 -0.31988,-0.31621 -0.5213,-1.04526 -0.65318,-2.36818 -0.18189,-1.82544 -0.23367,-1.94838 -1.16534,-2.73799 l -0.97603,-0.82628 -3.2107,-0.29352 c -1.95019,-0.17806 -6.09503,-0.30781 -10.55701,-0.33041 l -7.34563,-0.0369 -0.22408,0.6444 c -0.12314,0.35459 -0.32109,0.68981 -0.43931,0.74484 -0.11827,0.055 -1.11007,-0.0758 -2.20471,-0.29046 -3.69053,-0.72363 -8.20609,-1.38835 -11.52756,-1.69762 -1.81321,-0.16883 -3.13144,-0.27343 -4.12745,-0.28532 z m 0.44816,3.24516 c 0.37799,-0.006 1.44574,0.13126 2.57251,0.33603 2.40071,0.4365 6.08567,0.89394 9.17096,1.13825 0.95744,0.0758 1.82314,0.17486 1.9241,0.21976 0.10091,0.0448 -0.29865,0.89853 -0.88815,1.89741 -0.58951,0.99885 -1.09407,2.06228 -1.12108,2.36304 l -0.0489,0.5471 2.65285,0.0579 c 2.58418,0.0565 2.67356,0.0435 3.43819,-0.50355 0.43172,-0.30887 1.74311,-1.53632 2.91441,-2.72726 l 2.12979,-2.16533 1.12789,0.0175 c 0.6204,0.01 3.77946,0.16806 7.02007,0.35243 l 5.89149,0.33502 0.0817,0.63059 c 0.0668,0.51553 -0.16976,0.84591 -1.29751,1.81288 -1.4824,1.27109 -2.25119,2.21139 -1.92954,2.35947 0.10996,0.0505 0.92249,0.15197 1.80628,0.22539 0.88379,0.0734 1.94127,0.18082 2.34977,0.23872 l 0.74309,0.10501 -0.0735,3.45774 -0.0728,3.45775 -6.5617,0.10043 c -6.33835,0.0973 -6.56169,0.11441 -6.56169,0.50356 0,0.37667 0.23536,0.41117 3.61595,0.53019 1.98855,0.0699 5.63368,0.13812 8.10096,0.15115 l 4.48641,0.0236 v 3.61911 3.61859 l -2.72372,0.0574 c -1.76411,0.0371 -2.75932,0.13942 -2.82588,0.29045 -0.0567,0.12833 1.19923,0.88589 2.79045,1.6838 1.59126,0.79789 3.0362,1.53826 3.2114,1.64485 0.23291,0.1417 -0.42355,1.01516 -2.44241,3.2508 -1.5185,1.68149 -2.96061,3.35177 -3.20457,3.71182 -0.25448,0.37551 -0.65094,0.65467 -0.92972,0.65467 -0.2673,0 -1.48805,-0.45317 -2.7135,-1.0071 -3.09796,-1.40036 -3.2129,-1.38076 -3.21816,0.55375 -0.002,0.8586 -0.0927,1.66376 -0.20094,1.78932 -0.13538,0.15702 -2.38833,0.25347 -7.22167,0.30839 -4.46164,0.0506 -7.12876,0.15801 -7.30953,0.29403 -0.40236,0.30263 5.44767,0.47713 16.01531,0.47794 l 8.64449,0.001 -0.0741,3.07148 -0.0741,3.07204 -12.18552,0.0507 c -11.07669,0.0463 -12.21628,0.0824 -12.5206,0.39135 -0.20023,0.20342 -0.33442,0.96807 -0.33442,1.90357 v 1.56393 l -1.40646,1.07573 c -1.11984,0.8567 -1.81457,1.18717 -3.41434,1.6218 -1.67611,0.4554 -2.38519,0.53795 -4.28478,0.50048 -1.25206,-0.0248 -3.85448,-0.0727 -5.78319,-0.10718 l -3.50698,-0.0625 -0.46314,-1.25197 c -0.25459,-0.68872 -0.89217,-2.00362 -1.41667,-2.92192 -0.52453,-0.91827 -0.86718,-1.73449 -0.76148,-1.81391 0.10561,-0.0795 1.77877,-0.14447 3.71811,-0.14447 2.95576,0 3.52605,-0.0489 3.52605,-0.30223 0,-0.26371 -1.66071,-0.30888 -13.06276,-0.35447 l -13.06277,-0.0522 0.0736,-3.17037 0.0735,-3.17089 h 12.9892 c 11.36739,0 12.98919,-0.0374 12.98919,-0.30171 0,-0.2619 -1.07095,-0.30224 -8.03422,-0.30224 h -8.03502 l -0.13348,-1.69609 c -0.0737,-0.9329 -0.26185,-1.728 -0.41819,-1.76677 -0.15633,-0.0388 -1.44158,0.47535 -2.85583,1.14232 -1.41428,0.667 -2.63264,1.21253 -2.70737,1.21253 -0.0747,0 -1.18612,-1.05167 -2.46965,-2.33693 -1.28354,-1.28525 -2.9701,-2.90122 -3.74809,-3.59093 -0.77797,-0.68972 -1.33424,-1.34561 -1.23619,-1.45788 0.098,-0.11237 1.8657,-1.04723 3.92789,-2.07773 2.0622,-1.03048 3.79905,-1.90641 3.86046,-1.94606 0.37472,-0.24194 -0.66227,-0.38625 -3.41298,-0.47486 l -3.12623,-0.10043 -0.0735,-3.51 c -0.0559,-2.6733 0.008,-3.54932 0.26835,-3.67341 0.18771,-0.0896 4.21925,-0.164 8.95915,-0.16596 7.4738,-0.004 8.67386,-0.0447 9.03884,-0.31915 0.23146,-0.17409 0.42091,-0.4462 0.42091,-0.60446 0,-0.24305 -1.26212,-0.28789 -8.12753,-0.28789 h -8.12753 l -0.15597,-3.46644 c -0.0858,-1.90653 -0.0972,-3.53815 -0.0252,-3.62577 0.072,-0.0875 1.27257,-0.15932 2.66786,-0.15932 2.01143,0 2.56844,-0.0625 2.691,-0.30275 0.0863,-0.16914 -0.33124,-0.88668 -0.94535,-1.62334 -0.60522,-0.726 -1.10066,-1.39264 -1.10066,-1.48146 0,-0.3322 10.65074,-2.62956 12.21139,-2.63351 0.45112,-0.001 0.94448,0.55271 2.5112,2.821 2.09056,3.02671 2.19961,3.10454 4.18399,2.98237 1.031,-0.0634 1.05388,-0.0825 1.62033,-1.37337 0.316,-0.7201 0.79267,-2.15802 1.05911,-3.19495 0.27506,-1.07056 0.63538,-1.92883 0.83365,-1.98603 0.024,-0.006 0.0638,-0.01 0.11779,-0.0109 z m -78.55703,0.5594 1.53382,1.31393 c 1.40865,1.20673 4.87082,3.31841 5.43993,3.31841 0.31507,0 0.5614,-0.7199 0.56667,-1.64947 0.002,-0.40891 0.12249,-0.79852 0.26699,-0.86572 0.25007,-0.11623 9.1443,0.97323 10.02847,1.22839 0.36023,0.10404 0.42161,-0.0963 0.42161,-1.37901 v -1.5009 l 6.70403,-0.13991 c 3.68733,-0.0769 6.80135,-0.0949 6.92062,-0.0395 0.11924,0.0555 0.29654,1.48103 0.39368,3.16831 0.12127,2.10745 0.28112,3.11805 0.51082,3.22774 0.18394,0.0879 2.21752,0.16094 4.51908,0.1629 2.30156,10e-4 4.56361,0.06 5.02649,0.12963 l 0.84116,0.12653 -0.0715,4.85879 -0.0715,4.85878 -5.07621,0.0547 c -3.65069,0.0395 -5.13518,0.12441 -5.28531,0.30223 -0.34616,0.40981 -0.24638,2.09324 0.13825,2.33334 0.22526,0.14055 2.30751,0.24143 5.69125,0.27611 l 5.3357,0.0549 0.0722,4.51811 c 0.0418,2.61861 -0.0332,4.59731 -0.17845,4.70664 -0.13795,0.10369 -2.52073,0.24639 -5.29484,0.31657 l -5.04421,0.12751 -0.0858,0.56554 c -0.0661,0.43332 0.40432,1.11186 2.00856,2.89681 1.6568,1.84341 2.83873,2.85946 5.65311,4.85878 2.12562,1.51001 3.50368,2.63642 3.42182,2.79692 -0.36779,0.72085 -7.83694,8.2983 -8.1895,8.30833 -0.72125,0.0204 -7.05245,-4.99926 -8.7957,-6.97338 -0.89768,-1.01662 -1.75918,-1.90762 -1.91455,-1.97989 -0.15539,-0.0722 -2.05674,1.22426 -4.22484,2.88095 -2.16811,1.65671 -5.08218,3.74873 -6.47588,4.64875 -2.0544,1.32672 -2.70034,1.63615 -3.4116,1.63615 -0.81625,0 -0.94146,-0.0961 -1.80423,-1.38463 -1.12989,-1.68748 -2.51483,-2.8451 -3.40344,-2.8451 -0.35472,0 -6.96867,0.90508 -14.69808,2.01165 -7.72938,1.10657 -14.30592,2.01322 -14.61429,2.0142 -0.53805,0.001 -0.5677,-0.12538 -0.73558,-3.16984 -0.0962,-1.74489 -0.17521,-3.95608 -0.17573,-4.91359 -6.7e-4,-1.88913 0.0773,-1.98552 1.61216,-1.98552 0.42116,0 0.83942,-0.0901 0.92971,-0.19978 0.0902,-0.10972 -0.50532,-1.77615 -1.32337,-3.70312 -0.81805,-1.92697 -1.48753,-3.60146 -1.48752,-3.72104 0,-0.11948 1.14522,-0.82965 2.54457,-1.57776 1.39935,-0.7481 2.5439,-1.42725 2.5439,-1.50963 0,-0.0825 -1.0541,-0.17647 -2.34298,-0.20848 l -2.34365,-0.0579 -0.0722,-4.38135 c -0.0564,-3.42892 10e-4,-4.3841 0.26769,-4.39568 0.35273,-0.0147 6.86144,0.0568 8.50825,0.0943 0.86922,0.0197 0.93787,-0.0224 0.93787,-0.58295 v -0.60446 l -2.94642,-0.15312 c -1.62031,-0.0843 -3.0889,-0.19278 -3.26382,-0.24075 -0.37442,-0.10273 -6.24362,-7.4794 -6.24362,-7.84729 0,-0.1381 0.57261,-0.55794 1.27229,-0.93333 2.06244,-1.10659 6.41305,-4.3696 8.71668,-6.53694 1.81166,-1.70449 2.28971,-2.03551 3.10648,-2.15355 0.53089,-0.0768 3.81749,-0.14511 7.30341,-0.15115 z m 18.10559,4.23739 c -0.0397,0.004 -0.0817,0.0702 -0.13076,0.19362 -0.10996,0.27697 -0.2122,1.07795 -0.22681,1.7796 -0.0195,0.93771 0.0625,1.25315 0.30854,1.19151 0.47616,-0.11924 0.5513,-0.62379 0.32011,-2.14381 -0.10923,-0.71796 -0.18391,-1.02666 -0.27108,-1.02092 z m -24.48747,4.34446 -0.93719,0.68336 c -0.51554,0.37581 -0.93787,0.80169 -0.93787,0.94612 0,0.19087 0.51254,0.2628 1.87506,0.2628 2.19597,0 2.34002,-0.18632 0.93719,-1.20892 z m 12.25226,0.89901 c -1.57094,0.0369 -1.60588,0.10043 -1.55631,2.80308 0.0252,1.37143 0.11622,2.57951 0.20227,2.68422 0.25958,0.31592 0.56248,-0.29405 1.27638,-2.5664 0.84916,-2.70278 0.85545,-2.93914 0.0777,-2.9209 z m 80.69089,4.0822 c -0.83822,0.0353 -1.79786,0.55634 -1.50998,0.90669 0.12288,0.14952 1.05682,0.2341 2.5868,0.2341 2.37572,0 2.39475,-0.004 2.39475,-0.50355 -2e-5,-0.46044 -0.10091,-0.50356 -1.17217,-0.50356 -0.64444,0 -1.52235,-0.0528 -1.95135,-0.11719 -0.1108,-0.0166 -0.22829,-0.0216 -0.34805,-0.0164 z m -70.71487,3.37066 c -0.63688,0.0287 -0.64717,0.31304 -0.9406,1.67713 -0.11755,0.54666 -0.0615,0.83615 0.18526,0.95382 0.45605,0.2172 2.39193,0.21876 2.84631,0.001 0.23947,-0.11429 0.32354,-0.54087 0.26767,-1.35645 l -0.0817,-1.18998 -1.39761,-0.0605 c -0.38505,-0.0168 -0.66701,-0.0357 -0.8793,-0.026 z m -10.85532,0.43592 -2.97231,0.14952 c -1.63502,0.0822 -3.09541,0.20623 -3.24474,0.27561 -0.40834,0.18982 -0.57004,1.11158 -0.2309,1.31598 0.16354,0.0985 1.74345,0.24481 3.51106,0.3253 1.90492,0.0868 3.29428,0.23992 3.41093,0.376 0.10826,0.1262 0.19829,1.92913 0.20092,4.00636 l 0.004,3.77689 h -1.47322 c -1.00225,0 -1.47107,0.0803 -1.46844,0.25152 0.002,0.13845 1.08716,0.73971 2.4104,1.33596 1.32324,0.59625 2.40564,1.20306 2.40564,1.34828 0,0.14512 -0.90613,1.23788 -2.014,2.4281 -1.1079,1.1902 -1.97179,2.26054 -1.91933,2.37841 0.0571,0.12833 0.69125,0.18737 1.57945,0.14709 l 1.48343,-0.0676 0.19479,1.57825 c 0.1073,0.86793 0.25117,1.64699 0.31945,1.73146 0.19217,0.2377 0.57675,-0.0109 3.19367,-2.06698 5.48573,-4.30962 7.44673,-6.58333 6.20138,-7.18954 -0.18413,-0.0896 -2.26309,-0.16291 -4.61988,-0.16291 h -4.28431 l -0.0374,-5.08518 -0.0374,-5.08571 -1.30634,-0.88365 z m 87.25123,4.70254 c -1.64993,5.1e-4 -3.88001,0.0147 -6.29129,0.0409 -9.14212,0.10079 -9.87598,0.17448 -9.48019,0.95025 0.17389,0.34078 0.68115,0.35271 9.21591,0.2136 8.84169,-0.14414 9.70224,-0.21699 9.70224,-0.82114 0,-0.14072 -0.15099,-0.29695 -0.3351,-0.3473 -0.092,-0.0253 -1.16165,-0.0374 -2.81157,-0.0364 z m 6.83481,3.50897 c -0.41639,0 -0.18389,0.53062 0.7349,1.67662 0.51722,0.64512 0.86517,1.26437 0.77304,1.37643 -0.1038,0.12622 -1.52347,0.17929 -3.73445,0.13942 -3.46208,-0.0626 -4.41059,0.0536 -3.59619,0.44106 0.62885,0.29911 10.43713,0.24859 10.43713,-0.0538 0,-0.26646 -4.27098,-3.57967 -4.61443,-3.57967 z m -99.41632,1.94812 c -0.5425,-0.004 -1.01888,0.0295 -1.15512,0.11273 -0.34741,0.21189 -0.48638,2.79378 -0.16349,3.03664 0.0942,0.0708 0.27748,0.0792 0.40731,0.0189 0.33115,-0.15393 2.90283,-2.72754 2.90283,-2.90502 0,-0.14936 -1.08732,-0.25741 -1.99153,-0.26328 z m 69.76,0.13109 c -0.73038,0.0603 -3.28998,1.49818 -3.15075,1.81341 0.0729,0.16511 1.67355,0.26878 5.30506,0.34372 2.86029,0.0591 5.54006,0.12703 5.95482,0.15116 0.41477,0.0241 0.9867,-0.0498 1.27162,-0.16445 0.62493,-0.25155 0.68277,-0.90959 0.0946,-1.07932 -0.233,-0.0672 -2.34189,-0.12246 -4.68663,-0.12246 -4.10659,0 -4.26367,-0.0147 -4.26367,-0.40928 0,-0.22505 -0.18192,-0.46185 -0.40458,-0.52609 -0.0311,-0.01 -0.0718,-0.0109 -0.12056,-0.006 z m -85.20862,0.15524 c -1.21176,0.005 -1.14488,0.38569 -0.10152,1.99526 0.57452,0.88625 1.19131,1.61155 1.37104,1.61155 0.34484,0 0.76441,-2.13444 0.59596,-3.03206 -0.0798,-0.42548 -0.25292,-0.50168 -1.26684,-0.55631 -0.22616,-0.0109 -0.42558,-0.019 -0.59868,-0.0184 z m 63.52863,2.59972 c 0.12339,0 0.72782,0.55798 1.3438,1.24018 l 1.1204,1.24069 -0.84456,0.52198 -0.84455,0.522 0.002,2.36714 h -6.9e-4 c 0.001,1.70651 -0.0872,2.36664 -0.31876,2.36664 -0.64164,0 -7.27714,-5.71686 -7.10043,-6.1174 0.0552,-0.12523 0.87378,-0.29238 1.81921,-0.37139 0.94543,-0.0791 2.29701,-0.24783 3.00364,-0.37496 1.10217,-0.19828 1.30709,-0.31377 1.43983,-0.81295 0.0851,-0.32005 0.25602,-0.58193 0.37938,-0.58193 z m -49.3482,2.94189 c -0.26331,0.12246 -0.30088,2.36985 -0.0429,2.56386 0.27212,0.20472 1.83834,0.15996 2.66308,-0.0758 l 0.73422,-0.21003 -1.56651,-1.19049 c -0.86151,-0.65477 -1.66598,-1.14423 -1.78789,-1.08752 z m -13.37879,2.29646 c -0.43573,0.001 -4.33334,2.29897 -4.48638,2.64428 -0.12924,0.29161 3.945,0.0834 4.35153,-0.22231 0.14144,-0.10633 0.31244,-0.6951 0.38005,-1.30833 0.0944,-0.85655 0.0375,-1.11462 -0.2452,-1.11364 z" />
    <path
       inkscape:connector-curvature="0"
       id="path77"
       d="m 69.315773,381.10637 c 0.024,-0.18441 6.764,-13.209 14.97779,-28.94393 8.21378,-15.73487 14.95249,-28.74608 14.9749,-28.9137 0.0342,-0.25559 -3.34514,-0.30463 -20.95418,-0.30463 h -20.99494 l -8.44153,-6.66476 c -4.64285,-3.66557 -8.44153,-6.75079 -8.44153,-6.85598 0,-0.10534 20.33124,-0.19075 45.18056,-0.19075 36.060987,0 45.180327,0.0569 45.179457,0.28091 -6.3e-4,0.15468 -1.27754,3.28828 -2.83766,6.96391 l -2.83659,6.68292 -2.66944,0.061 -2.66944,0.061 -6.77651,14.16146 c -3.72709,7.78884 -6.7783,14.30008 -6.78049,14.46942 -0.003,0.2578 0.67735,0.28089 4.18641,0.14329 2.30471,-0.0902 4.22807,-0.20435 4.27414,-0.25274 0.0461,-0.0509 4.60129,-9.64688 10.12274,-21.32928 l 10.03897,-21.24087 h 29.35511 c 19.14003,0 29.3551,0.0769 29.3551,0.22049 0,0.21162 -4.96888,11.843 -5.39981,12.64027 -0.19374,0.35827 -1.71007,0.40961 -21.6329,0.73037 -11.7835,0.18948 -21.7478,0.3453 -22.14289,0.3453 l -0.71836,1.3e-4 -1.7704,3.87754 c -0.97371,2.13267 -1.77051,3.98724 -1.77065,4.12136 0,0.23061 21.71529,0.54276 37.76559,0.54276 4.40407,0 5.5873,0.0598 5.5873,0.28279 0,0.15563 -1.38813,3.39245 -3.08477,7.19309 l -3.08474,6.91048 h -22.18159 -22.18158 l -1.8924,4.21354 c -1.04082,2.31745 -1.8924,4.35324 -1.8924,4.52409 0,0.2635 3.26491,0.285 21.61356,0.14266 18.30011,-0.14203 21.61355,-0.12084 21.61355,0.14108 0,0.17051 -1.41833,3.46985 -3.15185,7.3329 l -3.15189,7.02384 -7.78093,-7e-5 c -22.15309,-2.2e-4 -51.07107,-0.31032 -51.07107,-0.54784 0,-0.13697 0.85075,-2.1684 1.89058,-4.51467 1.26387,-2.85187 1.82868,-4.28983 1.70387,-4.33779 -0.10271,-0.0396 -7.40444,4.67886 -16.226107,10.48524 l -16.03941,10.55711 -4.6436,0.16258 c -4.08096,0.14266 -4.63831,0.12179 -4.59997,-0.17271 z M 392.75049,353.7393 c -4.42579,-13.72323 -8.11663,-25.05461 -8.20189,-25.18088 -0.11577,-0.17145 -1.58423,2.97189 -5.77868,12.36703 -5.82308,13.04309 -5.97267,13.38975 -5.86246,13.58631 0.0364,0.0649 3.68659,0.27015 8.11128,0.45589 4.42467,0.18569 8.07423,0.38988 8.11007,0.45362 0.0358,0.0638 0.0379,0.16481 0.006,0.22395 -0.0333,0.0592 -5.29038,3.24575 -11.68244,7.08078 l -11.6219,6.97275 h -2.1178 c -1.16478,0 -4.68152,-0.067 -7.81499,-0.14961 -4.69014,-0.12305 -5.69063,-0.20308 -5.66033,-0.45305 0.019,-0.16766 6.32652,-13.70605 14.01412,-30.0862 l 13.97738,-29.7822 7.88183,0.0582 7.88187,0.0582 4.37869,13.01681 c 2.4083,7.15923 4.45876,13.15962 4.55663,13.33414 0.15343,0.27361 1.07542,-1.54217 6.64056,-13.07298 l 6.4627,-13.39035 h 20.47275 c 16.3211,0 20.46255,0.0569 20.42241,0.28089 -0.0285,0.15468 -2.40013,3.23357 -5.2721,6.84232 l -5.22174,6.56123 -9.52654,0.0126 -9.52654,0.0126 -12.59112,27.24583 c -7.64516,16.54315 -12.7892,27.48943 -13.09525,27.86599 -0.27742,0.34135 -0.59192,0.62348 -0.69918,0.62759 -0.12811,0.003 -2.95219,-8.54156 -8.242,-24.94391 z m -217.27666,15.73373 c -2.21808,-0.0892 -4.53324,-0.17588 -5.14483,-0.19296 -0.9168,-0.0285 -1.10484,-0.0898 -1.07123,-0.36785 0.0225,-0.1857 6.38639,-13.68939 14.14217,-30.00883 l 14.1014,-29.67174 h 7.4732 c 4.11028,0 7.50315,0.0863 7.53973,0.19232 0.0365,0.10565 -2.51211,5.74207 -5.66378,12.52555 -3.15164,6.78351 -5.73026,12.42413 -5.73026,12.53472 0,0.11071 0.0994,0.14962 0.22058,0.087 0.12121,-0.0626 7.39364,-5.78987 16.16073,-12.72664 l 15.94018,-12.61228 h 10.4939 c 5.77164,0 10.49389,0.0794 10.49389,0.17777 0,0.23915 1.31509,-0.87337 -22.2437,18.81786 -11.50622,9.61734 -20.99387,17.58843 -21.08367,17.71357 -0.0897,0.12527 -0.13935,0.33739 -0.11006,0.47225 0.0294,0.13475 2.01571,5.29933 4.41447,11.47694 2.39874,6.17762 4.3165,11.31203 4.26171,11.40974 -0.0549,0.098 -3.40906,0.15184 -7.45392,0.11958 l -7.3543,-0.0583 -4.23945,-12.31079 c -2.33171,-6.77096 -4.32635,-12.46583 -4.43255,-12.65524 -0.17338,-0.30906 -0.76352,0.9213 -5.79571,12.08601 -4.94838,10.97889 -5.66088,12.46774 -6.1016,12.75013 -0.61746,0.39551 -3.21056,0.46661 -8.81676,0.24041 z m 52.99419,-0.0563 c 0,-0.22554 23.13048,-51.39573 26.41841,-58.44404 l 0.81269,-1.74211 h 7.43089 c 4.81513,0 7.43091,0.0785 7.43091,0.22238 0,0.12242 -2.38191,5.7916 -5.29313,12.59849 -2.91122,6.80682 -5.29312,12.47253 -5.29312,12.59039 0,0.11799 0.0425,0.2151 0.0944,0.2151 0.0519,2.2e-4 7.44474,-5.76556 16.42836,-12.81277 l 16.33386,-12.81308 h 10.75737 c 9.13724,0 10.72959,0.0452 10.57285,0.30905 -0.10136,0.16987 -10.02407,8.32772 -22.05017,18.12792 -12.02609,9.80023 -21.94565,17.95033 -22.0435,18.11119 -0.15104,0.24894 -0.0822,0.53937 0.45873,1.93418 0.3501,0.9029 2.37097,6.09009 4.49079,11.52719 2.11979,5.43706 3.81324,9.95519 3.76317,10.04034 -0.05,0.0851 -3.34739,0.18917 -7.32739,0.23029 l -7.23633,0.0749 -4.35809,-12.40594 c -2.39696,-6.82333 -4.42566,-12.45716 -4.50821,-12.51966 -0.0862,-0.0649 -2.58636,5.22398 -5.86446,12.40598 l -5.71436,12.51962 -7.6519,0.0583 c -6.10763,0.0452 -7.65189,4.7e-4 -7.65189,-0.22681 z m 58.6246,-0.28564 c 0.0225,-0.18853 6.32606,-13.74327 14.00809,-30.12182 l 13.96727,-29.77913 h 29.35435 c 24.11088,0 29.35442,0.0509 29.35442,0.2945 0,0.16196 -1.15245,3.12063 -2.56096,6.57496 l -2.56091,6.28064 -6.35542,0.062 c -3.49552,0.0339 -13.55327,0.13538 -22.35053,0.22523 l -15.99506,0.16259 -1.86922,4.26633 c -1.0281,2.34646 -1.86925,4.39484 -1.86925,4.55192 0,0.23029 4.20759,0.28533 21.55055,0.28533 17.86434,0 21.55059,0.0509 21.55059,0.29956 0,0.16481 -1.3208,3.32564 -2.93511,7.02455 l -2.93516,6.72509 -22.07933,0.0563 -22.07933,0.0563 -1.82781,4.10172 c -1.0053,2.25595 -1.82846,4.22817 -1.82923,4.38268 -10e-4,0.22397 4.37936,0.28091 21.48614,0.28091 17.47144,0 21.48752,0.0563 21.48752,0.29007 0,0.15974 -1.37805,3.42184 -3.06229,7.24933 l -3.06237,6.9591 -29.7139,0.0563 c -26.56686,0.0509 -29.70954,0.0222 -29.67305,-0.28596 z"
       style="fill:#ffffff;fill-opacity:1;stroke:#f9f9f9;stroke-width:0;stroke-miterlimit:4;stroke-dasharray:none;stroke-opacity:0.96825406" />
    <path
       d="m 16.28743,423.78593 c 1.557507,0 3.072273,-0.3435 4.544299,-1.03048 1.47201,-0.687 2.682883,-1.60952 3.632573,-2.76759 v 0 l -2.706626,-2.76758 c -0.702773,0.844 -1.510022,1.49175 -2.421716,1.9432 -0.91171,0.45144 -1.889888,0.67716 -2.934547,0.67716 -0.930707,0 -1.790187,-0.17173 -2.578423,-0.51523 -0.788251,-0.34349 -1.472026,-0.80967 -2.051339,-1.39851 -0.579329,-0.58885 -1.035169,-1.29058 -1.367565,-2.10514 -0.332397,-0.81459 -0.498595,-1.69294 -0.498595,-2.6351 0,-0.9618 0.161377,-1.84997 0.484358,-2.66454 0.322891,-0.81458 0.769239,-1.52119 1.339062,-2.11986 0.569807,-0.59866 1.248852,-1.06974 2.037088,-1.41324 0.788251,-0.34348 1.628733,-0.51524 2.521431,-0.51524 1.063672,0 2.070338,0.24045 3.020042,0.72134 0.949704,0.4809 1.77592,1.1728 2.478691,2.0757 v 0 l 2.792107,-2.85593 c -0.930693,-1.17768 -2.146311,-2.11493 -3.646825,-2.81174 -1.500515,-0.6968 -3.048515,-1.0452 -4.644015,-1.0452 -1.481517,0 -2.872809,0.27479 -4.173892,0.82438 -1.301083,0.5496 -2.426461,1.29548 -3.376165,2.23763 -0.949689,0.94215 -1.699946,2.06587 -2.250772,3.37115 -0.550825,1.30528 -0.82623,2.7038 -0.82623,4.19555 0,1.49174 0.270659,2.88536 0.811979,4.18083 0.541334,1.29546 1.286831,2.41428 2.23652,3.35644 0.949704,0.94214 2.075082,1.68802 3.37618,2.23761 1.301083,0.5496 2.701881,0.82439 4.20238,0.82439 z m 53.990107,0.0295 c 1.481533,0 2.868095,-0.27479 4.159672,-0.82439 1.291591,-0.54959 2.407479,-1.30037 3.347676,-2.25234 0.940199,-0.95198 1.685696,-2.0806 2.236521,-3.38588 0.550825,-1.30529 0.82623,-2.69399 0.82623,-4.1661 0,-1.47213 -0.275405,-2.86084 -0.82623,-4.16611 -0.550825,-1.30529 -1.296322,-2.43391 -2.236521,-3.38587 -0.940197,-0.95197 -2.056085,-1.70277 -3.347676,-2.25235 -1.291577,-0.5496 -2.678139,-0.82439 -4.159672,-0.82439 -1.462534,0 -2.83956,0.27479 -4.131168,0.82439 -1.291591,0.54958 -2.407462,1.30038 -3.347661,2.25235 -0.940198,0.95196 -1.68571,2.08058 -2.23652,3.38587 -0.55084,1.30527 -0.826245,2.69398 -0.826245,4.16611 0,1.47211 0.275405,2.86081 0.826245,4.1661 0.55081,1.30528 1.296322,2.4339 2.23652,3.38588 0.940199,0.95197 2.05607,1.70275 3.347661,2.25234 1.291608,0.5496 2.668634,0.82439 4.131168,0.82439 z m 0,-3.91584 c -0.892712,0 -1.723688,-0.17175 -2.492927,-0.51526 -0.769254,-0.34348 -1.434047,-0.81456 -1.994379,-1.41321 -0.560301,-0.59868 -1.001905,-1.3102 -1.32481,-2.13459 -0.322906,-0.82439 -0.484359,-1.70766 -0.484359,-2.64981 0,-0.96179 0.161392,-1.84997 0.484359,-2.66454 0.322905,-0.81459 0.764509,-1.52119 1.32481,-2.11986 0.560332,-0.59867 1.225125,-1.06974 1.994379,-1.41323 0.769239,-0.34351 1.600215,-0.51525 2.492927,-0.51525 0.892728,0 1.728466,0.17174 2.50721,0.51525 0.778746,0.34349 1.448269,0.81456 2.008601,1.41323 0.560301,0.59867 1.001935,1.30527 1.32481,2.11986 0.322906,0.81457 0.484358,1.70275 0.484358,2.66454 0,0.94215 -0.161392,1.82542 -0.484358,2.64981 -0.322875,0.82439 -0.764509,1.53591 -1.32481,2.13459 -0.560332,0.59865 -1.229855,1.06973 -2.008601,1.41321 -0.778744,0.34351 -1.614482,0.51526 -2.50721,0.51526 z m 62.622843,3.59198 v -3.76864 H 121.9884 v -16.84112 h -4.13118 v 20.60969 z m 52.08122,0 v -3.76864 h -10.91198 v -16.84112 h -4.13117 v 20.60969 z m 52.48009,0 v -3.70976 h -11.31085 v -4.88744 h 7.37913 v -3.59198 h -7.37913 v -4.71078 h 11.1969 v -3.70975 h -15.32806 v 20.60969 z m 45.81324,0.29442 c 1.55752,0 3.07227,-0.3435 4.54429,-1.03049 1.47202,-0.68699 2.68289,-1.60953 3.63259,-2.76759 v 0 l -2.70664,-2.76759 c -0.70277,0.84402 -1.51001,1.49175 -2.42171,1.9432 -0.91171,0.45147 -1.88989,0.67718 -2.93455,0.67718 -0.93071,0 -1.79019,-0.17174 -2.57843,-0.51524 -0.78824,-0.3435 -1.47202,-0.80967 -2.05133,-1.39852 -0.57933,-0.58885 -1.03518,-1.29055 -1.36757,-2.10513 -0.3324,-0.81457 -0.4986,-1.69294 -0.4986,-2.63509 0,-0.96179 0.16138,-1.84997 0.48435,-2.66454 0.32291,-0.81459 0.76925,-1.52119 1.33908,-2.11986 0.56981,-0.59867 1.24885,-1.06974 2.03708,-1.41323 0.78826,-0.34351 1.62874,-0.51525 2.52144,-0.51525 1.06367,0 2.07035,0.24045 3.02004,0.72134 0.9497,0.48089 1.77591,1.17279 2.47868,2.07569 v 0 l 2.79212,-2.85591 c -0.93069,-1.1777 -2.14631,-2.11495 -3.64681,-2.81176 -1.50053,-0.69679 -3.04853,-1.0452 -4.64403,-1.0452 -1.48152,0 -2.87281,0.27479 -4.17389,0.82439 -1.30109,0.54958 -2.42646,1.29546 -3.37617,2.23763 -0.94968,0.94214 -1.69995,2.06586 -2.25078,3.37114 -0.55081,1.30528 -0.82622,2.7038 -0.82622,4.19556 0,1.49175 0.27066,2.88535 0.81199,4.18082 0.54133,1.29547 1.28681,2.41427 2.23653,3.35644 0.9497,0.94216 2.07508,1.68802 3.37616,2.23761 1.30108,0.54959 2.70186,0.8244 4.20238,0.8244 z m 54.64541,-0.29442 v -16.84114 h 6.69533 v -3.76863 h -17.55034 v 3.76863 h 6.72382 v 16.84106 z m 47.32325,0 v -20.60976 h -4.13116 v 20.60969 z m 47.57966,0.32386 c 1.48154,0 2.86809,-0.27479 4.15968,-0.82439 1.29157,-0.54959 2.40746,-1.30037 3.34766,-2.25234 0.9402,-0.95198 1.68571,-2.0806 2.23654,-3.38588 0.5508,-1.30529 0.82622,-2.69399 0.82622,-4.1661 0,-1.47213 -0.27542,-2.86084 -0.82622,-4.16611 -0.55083,-1.30529 -1.29634,-2.43391 -2.23654,-3.38587 -0.9402,-0.95197 -2.05609,-1.70277 -3.34766,-2.25235 -1.29159,-0.5496 -2.67814,-0.82439 -4.15968,-0.82439 -1.46252,0 -2.83959,0.27479 -4.13115,0.82439 -1.29159,0.54958 -2.40747,1.30038 -3.34767,2.25235 -0.9402,0.95196 -1.68571,2.08058 -2.23654,3.38587 -0.55083,1.30527 -0.82625,2.69398 -0.82625,4.16611 0,1.47211 0.27542,2.86081 0.82625,4.1661 0.55083,1.30528 1.29634,2.4339 2.23654,3.38588 0.9402,0.95197 2.05608,1.70275 3.34767,2.25234 1.29156,0.5496 2.66863,0.82439 4.13115,0.82439 z m 0,-3.91584 c -0.8927,0 -1.7237,-0.17175 -2.49294,-0.51526 -0.76925,-0.34348 -1.43403,-0.81456 -1.99436,-1.41321 -0.56031,-0.59868 -1.00192,-1.3102 -1.32482,-2.13459 -0.32289,-0.82439 -0.48435,-1.70766 -0.48435,-2.64981 0,-0.96179 0.16138,-1.84997 0.48435,-2.66454 0.3229,-0.81459 0.76451,-1.52119 1.32482,-2.11986 0.56033,-0.59867 1.22511,-1.06974 1.99436,-1.41323 0.76924,-0.34351 1.60024,-0.51525 2.49294,-0.51525 0.89272,0 1.72846,0.17174 2.5072,0.51525 0.77876,0.34349 1.44826,0.81456 2.0086,1.41323 0.56032,0.59867 1.00193,1.30527 1.32482,2.11986 0.3229,0.81457 0.48435,1.70275 0.48435,2.66454 0,0.94215 -0.16137,1.82542 -0.48435,2.64981 -0.32289,0.82439 -0.7645,1.53591 -1.32482,2.13459 -0.56034,0.59865 -1.22984,1.06973 -2.0086,1.41321 -0.77874,0.34351 -1.61448,0.51526 -2.5072,0.51526 z m 51.48292,3.59198 v -13.77906 l 10.17123,13.77906 h 3.64683 v -20.60976 h -3.87476 v 13.33742 l -9.9148,-13.33742 h -3.93174 v 20.60969 z"
       id="COLLECTION"
       inkscape:connector-curvature="0"
       style="fill:#ffffff;fill-rule:nonzero;stroke:none;stroke-width:1.77145267" />
  </g>
</svg>
