<?xml version="1.0" encoding="UTF-8" standalone="no"?>
<svg
   xmlns:dc="http://purl.org/dc/elements/1.1/"
   xmlns:cc="http://creativecommons.org/ns#"
   xmlns:rdf="http://www.w3.org/1999/02/22-rdf-syntax-ns#"
   xmlns:svg="http://www.w3.org/2000/svg"
   xmlns="http://www.w3.org/2000/svg"
   xmlns:sodipodi="http://sodipodi.sourceforge.net/DTD/sodipodi-0.dtd"
   xmlns:inkscape="http://www.inkscape.org/namespaces/inkscape"
   width="500"
   height="200"
   viewBox="0 0 500 200"
   version="1.1"
   id="svg95"
   sodipodi:docname="template_collection.svg"
   inkscape:version="0.92.5 (2060ec1f9f, 2020-04-08)">
  <metadata
     id="metadata101">
    <rdf:RDF>
      <cc:Work
         rdf:about="">
        <dc:format>image/svg+xml</dc:format>
        <dc:type
           rdf:resource="http://purl.org/dc/dcmitype/StillImage" />
        <dc:title>mainlogo</dc:title>
      </cc:Work>
    </rdf:RDF>
  </metadata>
  <defs
     id="defs99" />
  <sodipodi:namedview
     pagecolor="#ffffff"
     bordercolor="#666666"
     borderopacity="1"
     objecttolerance="10"
     gridtolerance="10"
     guidetolerance="10"
     inkscape:pageopacity="0"
     inkscape:pageshadow="2"
     inkscape:window-width="1366"
     inkscape:window-height="743"
     id="namedview97"
     showgrid="false"
     inkscape:pagecheckerboard="true"
     inkscape:zoom="1.3031825"
     inkscape:cx="86.036173"
     inkscape:cy="92.376387"
     inkscape:window-x="0"
     inkscape:window-y="0"
     inkscape:window-maximized="1"
     inkscape:current-layer="svg95" />
  <title
     id="title70">mainlogo</title>
  <path
     d="m 13.488176,196.99872 c 1.557507,0 3.072273,-0.3435 4.544299,-1.03048 1.47201,-0.687 2.682883,-1.60952 3.632573,-2.76759 v 0 l -2.706626,-2.76758 c -0.702773,0.844 -1.510022,1.49175 -2.421716,1.9432 -0.91171,0.45144 -1.889888,0.67716 -2.934547,0.67716 -0.930707,0 -1.790187,-0.17173 -2.578423,-0.51523 -0.788251,-0.34349 -1.4720262,-0.80967 -2.0513396,-1.39851 -0.5793287,-0.58885 -1.0351685,-1.29058 -1.367565,-2.10514 -0.3323964,-0.81459 -0.4985947,-1.69294 -0.4985947,-2.6351 0,-0.9618 0.1613767,-1.84997 0.4843582,-2.66454 0.3228904,-0.81458 0.7692392,-1.52119 1.3390617,-2.11986 0.5698073,-0.59866 1.2488524,-1.06974 2.0370884,-1.41324 0.788251,-0.34348 1.628733,-0.51524 2.521431,-0.51524 1.063672,0 2.070338,0.24045 3.020042,0.72134 0.949704,0.4809 1.77592,1.1728 2.478691,2.0757 v 0 l 2.792107,-2.85593 c -0.930693,-1.17768 -2.146311,-2.11493 -3.646825,-2.81174 -1.500515,-0.6968 -3.048515,-1.0452 -4.644015,-1.0452 -1.481517,0 -2.872809,0.27479 -4.1738922,0.82438 -1.3010826,0.5496 -2.4264609,1.29548 -3.376165,2.23763 -0.9496891,0.94215 -1.6999463,2.06587 -2.2507717,3.37115 -0.5508254,1.30528 -0.8262305,2.7038 -0.8262305,4.19555 0,1.49174 0.2706596,2.88536 0.8119788,4.18083 0.5413345,1.29546 1.286831,2.41428 2.23652,3.35644 0.9497043,0.94214 2.0750825,1.68802 3.3761803,2.23761 1.3010833,0.5496 2.7018813,0.82439 4.2023803,0.82439 z m 53.990107,0.0295 c 1.481533,0 2.868095,-0.27479 4.159672,-0.82439 1.291591,-0.54959 2.407479,-1.30037 3.347676,-2.25234 0.940199,-0.95198 1.685696,-2.0806 2.236521,-3.38588 0.550825,-1.30529 0.82623,-2.69399 0.82623,-4.1661 0,-1.47213 -0.275405,-2.86084 -0.82623,-4.16611 -0.550825,-1.30529 -1.296322,-2.43391 -2.236521,-3.38587 -0.940197,-0.95197 -2.056085,-1.70277 -3.347676,-2.25235 -1.291577,-0.5496 -2.678139,-0.82439 -4.159672,-0.82439 -1.462534,0 -2.83956,0.27479 -4.131168,0.82439 -1.291591,0.54958 -2.407462,1.30038 -3.347661,2.25235 -0.940198,0.95196 -1.68571,2.08058 -2.23652,3.38587 -0.55084,1.30527 -0.826245,2.69398 -0.826245,4.16611 0,1.47211 0.275405,2.86081 0.826245,4.1661 0.55081,1.30528 1.296322,2.4339 2.23652,3.38588 0.940199,0.95197 2.05607,1.70275 3.347661,2.25234 1.291608,0.5496 2.668634,0.82439 4.131168,0.82439 z m 0,-3.91584 c -0.892712,0 -1.723688,-0.17175 -2.492927,-0.51526 -0.769254,-0.34348 -1.434047,-0.81456 -1.994379,-1.41321 -0.560301,-0.59868 -1.001905,-1.3102 -1.32481,-2.13459 -0.322906,-0.82439 -0.484359,-1.70766 -0.484359,-2.64981 0,-0.96179 0.161392,-1.84997 0.484359,-2.66454 0.322905,-0.81459 0.764509,-1.52119 1.32481,-2.11986 0.560332,-0.59867 1.225125,-1.06974 1.994379,-1.41323 0.769239,-0.34351 1.600215,-0.51525 2.492927,-0.51525 0.892728,0 1.728466,0.17174 2.50721,0.51525 0.778746,0.34349 1.448269,0.81456 2.008601,1.41323 0.560301,0.59867 1.001935,1.30527 1.32481,2.11986 0.322906,0.81457 0.484358,1.70275 0.484358,2.66454 0,0.94215 -0.161392,1.82542 -0.484358,2.64981 -0.322875,0.82439 -0.764509,1.53591 -1.32481,2.13459 -0.560332,0.59865 -1.229855,1.06973 -2.008601,1.41321 -0.778744,0.34351 -1.614482,0.51526 -2.50721,0.51526 z m 62.622837,3.59198 v -3.76864 H 119.18914 V 176.0946 h -4.13118 v 20.60969 z m 52.08122,0 v -3.76864 H 171.27036 V 176.0946 h -4.13117 v 20.60969 z m 52.48009,0 v -3.70976 h -11.31085 v -4.88744 h 7.37913 v -3.59198 h -7.37913 v -4.71078 h 11.1969 v -3.70975 h -15.32806 v 20.60969 z m 45.81324,0.29442 c 1.55752,0 3.07227,-0.3435 4.54429,-1.03049 1.47202,-0.68699 2.68289,-1.60953 3.63259,-2.76759 v 0 l -2.70664,-2.76759 c -0.70277,0.84402 -1.51001,1.49175 -2.42171,1.9432 -0.91171,0.45147 -1.88989,0.67718 -2.93455,0.67718 -0.93071,0 -1.79019,-0.17174 -2.57843,-0.51524 -0.78824,-0.3435 -1.47202,-0.80967 -2.05133,-1.39852 -0.57933,-0.58885 -1.03518,-1.29055 -1.36757,-2.10513 -0.3324,-0.81457 -0.4986,-1.69294 -0.4986,-2.63509 0,-0.96179 0.16138,-1.84997 0.48435,-2.66454 0.32291,-0.81459 0.76925,-1.52119 1.33908,-2.11986 0.56981,-0.59867 1.24885,-1.06974 2.03708,-1.41323 0.78826,-0.34351 1.62874,-0.51525 2.52144,-0.51525 1.06367,0 2.07035,0.24045 3.02004,0.72134 0.9497,0.48089 1.77591,1.17279 2.47868,2.07569 v 0 l 2.79212,-2.85591 c -0.93069,-1.1777 -2.14631,-2.11495 -3.64681,-2.81176 -1.50053,-0.69679 -3.04853,-1.0452 -4.64403,-1.0452 -1.48152,0 -2.87281,0.27479 -4.17389,0.82439 -1.30109,0.54958 -2.42646,1.29546 -3.37617,2.23763 -0.94968,0.94214 -1.69995,2.06586 -2.25078,3.37114 -0.55081,1.30528 -0.82622,2.7038 -0.82622,4.19556 0,1.49175 0.27066,2.88535 0.81199,4.18082 0.54133,1.29547 1.28681,2.41427 2.23653,3.35644 0.9497,0.94216 2.07508,1.68802 3.37616,2.23761 1.30108,0.54959 2.70186,0.8244 4.20238,0.8244 z m 54.64541,-0.29442 v -16.84114 h 6.69533 v -3.76863 h -17.55034 v 3.76863 h 6.72382 v 16.84106 z m 47.32325,0 V 176.0946 h -4.13116 v 20.60969 z m 47.57966,0.32386 c 1.48154,0 2.86809,-0.27479 4.15968,-0.82439 1.29157,-0.54959 2.40746,-1.30037 3.34766,-2.25234 0.9402,-0.95198 1.68571,-2.0806 2.23654,-3.38588 0.5508,-1.30529 0.82622,-2.69399 0.82622,-4.1661 0,-1.47213 -0.27542,-2.86084 -0.82622,-4.16611 -0.55083,-1.30529 -1.29634,-2.43391 -2.23654,-3.38587 -0.9402,-0.95197 -2.05609,-1.70277 -3.34766,-2.25235 -1.29159,-0.5496 -2.67814,-0.82439 -4.15968,-0.82439 -1.46252,0 -2.83959,0.27479 -4.13115,0.82439 -1.29159,0.54958 -2.40747,1.30038 -3.34767,2.25235 -0.9402,0.95196 -1.68571,2.08058 -2.23654,3.38587 -0.55083,1.30527 -0.82625,2.69398 -0.82625,4.16611 0,1.47211 0.27542,2.86081 0.82625,4.1661 0.55083,1.30528 1.29634,2.4339 2.23654,3.38588 0.9402,0.95197 2.05608,1.70275 3.34767,2.25234 1.29156,0.5496 2.66863,0.82439 4.13115,0.82439 z m 0,-3.91584 c -0.8927,0 -1.7237,-0.17175 -2.49294,-0.51526 -0.76925,-0.34348 -1.43403,-0.81456 -1.99436,-1.41321 -0.56031,-0.59868 -1.00192,-1.3102 -1.32482,-2.13459 -0.32289,-0.82439 -0.48435,-1.70766 -0.48435,-2.64981 0,-0.96179 0.16138,-1.84997 0.48435,-2.66454 0.3229,-0.81459 0.76451,-1.52119 1.32482,-2.11986 0.56033,-0.59867 1.22511,-1.06974 1.99436,-1.41323 0.76924,-0.34351 1.60024,-0.51525 2.49294,-0.51525 0.89272,0 1.72846,0.17174 2.5072,0.51525 0.77876,0.34349 1.44826,0.81456 2.0086,1.41323 0.56032,0.59867 1.00193,1.30527 1.32482,2.11986 0.3229,0.81457 0.48435,1.70275 0.48435,2.66454 0,0.94215 -0.16137,1.82542 -0.48435,2.64981 -0.32289,0.82439 -0.7645,1.53591 -1.32482,2.13459 -0.56034,0.59865 -1.22984,1.06973 -2.0086,1.41321 -0.77874,0.34351 -1.61448,0.51526 -2.5072,0.51526 z m 51.48292,3.59198 V 182.9253 l 10.17123,13.77906 h 3.64683 V 176.0946 h -3.87476 v 13.33742 l -9.9148,-13.33742 h -3.93174 v 20.60969 z"
     id="COLLECTION"
     inkscape:connector-curvature="0"
     style="fill:#ffffff;fill-rule:nonzero;stroke:none;stroke-width:1.77145267" />
  <g
     id="g48"
     transform="matrix(1.0597354,0,0,1.0597354,19.661949,-126.14557)">
    <path
       d="m 98.368707,123.56449 -3.911684,9.67624 h 7.837657 z m -1.627486,-2.59162 h 3.269259 l 8.12318,19.44364 h -2.99801 l -1.94157,-4.98788 h -9.607908 l -1.941568,4.98788 h -3.040839 z"
       style="font-style:normal;font-weight:normal;font-size:40px;line-height:125%;font-family:sans-serif;letter-spacing:0px;word-spacing:0px;fill:#ffffff;fill-opacity:1;stroke:#ffffff;stroke-width:0.69800001;stroke-linecap:butt;stroke-linejoin:miter;stroke-miterlimit:4;stroke-dasharray:none;stroke-opacity:1"
       id="path36"
       inkscape:connector-curvature="0" />
    <path
       d="m 149.94112,131.30027 q 0.92796,0.28651 1.79881,1.22418 0.88512,0.93767 1.77025,2.5786 l 2.92663,5.31346 h -3.09794 l -2.72677,-4.98788 q -1.05644,-1.95348 -2.05577,-2.59162 -0.98506,-0.63814 -2.69821,-0.63814 h -3.14077 v 8.21764 h -2.88381 v -19.44364 h 6.50997 q 3.65472,0 5.45352,1.39348 1.79881,1.39349 1.79881,4.2065 0,1.83627 -0.94223,3.04743 -0.92796,1.21115 -2.71249,1.67999 z m -7.22378,-8.16555 v 6.9023 h 3.62617 q 2.08433,0 3.14077,-0.87256 1.07072,-0.88557 1.07072,-2.59161 0,-1.70604 -1.07072,-2.56557 -1.05644,-0.87256 -3.14077,-0.87256 z"
       style="font-style:normal;font-weight:normal;font-size:40px;line-height:125%;font-family:sans-serif;letter-spacing:0px;word-spacing:0px;fill:#ffffff;fill-opacity:1;stroke:#ffffff;stroke-width:0.69800001;stroke-linecap:butt;stroke-linejoin:miter;stroke-miterlimit:4;stroke-dasharray:none;stroke-opacity:1"
       id="path38"
       inkscape:connector-curvature="0" />
    <path
       d="m 200.69712,122.47054 v 2.77394 q -1.45617,-1.2372 -3.11221,-1.84929 -1.64177,-0.61209 -3.49768,-0.61209 -3.65472,0 -5.59629,2.04464 -1.94157,2.03162 -1.94157,5.88649 0,3.84184 1.94157,5.88649 1.94157,2.03161 5.59629,2.03161 1.85591,0 3.49768,-0.61209 1.65604,-0.61209 3.11221,-1.84929 v 2.74789 q -1.51328,0.93768 -3.21215,1.40651 -1.6846,0.46884 -3.56906,0.46884 -4.83964,0 -7.62351,-2.69581 -2.78386,-2.70882 -2.78386,-7.38415 0,-4.68836 2.78386,-7.38416 2.78387,-2.70883 7.62351,-2.70883 1.91302,0 3.59761,0.46884 1.69888,0.45581 3.1836,1.38046 z"
       style="font-style:normal;font-weight:normal;font-size:40px;line-height:125%;font-family:sans-serif;letter-spacing:0px;word-spacing:0px;fill:#ffffff;fill-opacity:1;stroke:#ffffff;stroke-width:0.69800001;stroke-linecap:butt;stroke-linejoin:miter;stroke-miterlimit:4;stroke-dasharray:none;stroke-opacity:1"
       id="path40-3"
       inkscape:connector-curvature="0" />
    <path
       d="m 238.86281,123.56449 -3.91168,9.67624 h 7.83765 z m -1.62749,-2.59162 h 3.26926 l 8.12318,19.44364 h -2.998 l -1.94157,-4.98788 h -9.60792 l -1.94157,4.98788 h -3.04083 z"
       style="font-style:normal;font-weight:normal;font-size:40px;line-height:125%;font-family:sans-serif;letter-spacing:0px;word-spacing:0px;fill:#ffffff;fill-opacity:1;stroke:#ffffff;stroke-width:0.69800001;stroke-linecap:butt;stroke-linejoin:miter;stroke-miterlimit:4;stroke-dasharray:none;stroke-opacity:1"
       id="path42"
       inkscape:connector-curvature="0" />
    <path
       d="m 277.21144,123.13472 v 15.11994 h 3.48341 q 4.41135,0 6.45285,-1.82325 2.05578,-1.82325 2.05578,-5.75625 0,-3.90696 -2.05578,-5.71719 -2.0415,-1.82325 -6.45285,-1.82325 z m -2.8838,-2.16185 h 5.92464 q 6.19589,0 9.09396,2.3572 2.89808,2.34418 2.89808,7.34509 0,5.02695 -2.91235,7.38415 -2.91235,2.3572 -9.07969,2.3572 h -5.92464 z"
       style="font-style:normal;font-weight:normal;font-size:40px;line-height:125%;font-family:sans-serif;letter-spacing:0px;word-spacing:0px;fill:#ffffff;fill-opacity:1;stroke:#ffffff;stroke-width:0.69800001;stroke-linecap:butt;stroke-linejoin:miter;stroke-miterlimit:4;stroke-dasharray:none;stroke-opacity:1"
       id="path44"
       inkscape:connector-curvature="0" />
    <path
       d="m 321.42893,120.97287 h 13.47677 v 2.21394 h -10.59297 v 5.75626 h 10.15041 v 2.21394 h -10.15041 v 7.04556 h 10.84994 v 2.21394 h -13.73374 z"
       style="font-style:normal;font-weight:normal;font-size:40px;line-height:125%;font-family:sans-serif;letter-spacing:0px;word-spacing:0px;fill:#ffffff;fill-opacity:1;stroke:#ffffff;stroke-width:0.69800001;stroke-linecap:butt;stroke-linejoin:miter;stroke-miterlimit:4;stroke-dasharray:none;stroke-opacity:1"
       id="path46"
       inkscape:connector-curvature="0" />
  </g>
</svg>
