<?xml version="1.0" encoding="UTF-8" standalone="no"?>
<!-- Created with Inkscape (http://www.inkscape.org/) -->

<svg
   xmlns:dc="http://purl.org/dc/elements/1.1/"
   xmlns:cc="http://creativecommons.org/ns#"
   xmlns:rdf="http://www.w3.org/1999/02/22-rdf-syntax-ns#"
   xmlns:svg="http://www.w3.org/2000/svg"
   xmlns="http://www.w3.org/2000/svg"
   xmlns:xlink="http://www.w3.org/1999/xlink"
   xmlns:sodipodi="http://sodipodi.sourceforge.net/DTD/sodipodi-0.dtd"
   xmlns:inkscape="http://www.inkscape.org/namespaces/inkscape"
   width="500"
   height="200"
   viewBox="0 0 132.29166 52.916668"
   version="1.1"
   id="svg8"
   inkscape:version="0.92.5 (2060ec1f9f, 2020-04-08)"
   sodipodi:docname="tux_.svg">
  <defs
     id="defs2">
    <linearGradient
       inkscape:collect="always"
       id="linearGradient827">
      <stop
         style="stop-color:#0000ff;stop-opacity:1;"
         offset="0"
         id="stop823" />
      <stop
         style="stop-color:#dedeff;stop-opacity:0.99290782"
         offset="1"
         id="stop825" />
    </linearGradient>
    <radialGradient
       inkscape:collect="always"
       xlink:href="#linearGradient827"
       id="radialGradient833"
       cx="99.298828"
       cy="40.805569"
       fx="99.298828"
       fy="40.805569"
       r="83.017578"
       gradientTransform="matrix(1,0,0,0.22538525,0,31.608595)"
       gradientUnits="userSpaceOnUse" />
    <radialGradient
       inkscape:collect="always"
       xlink:href="#linearGradient827"
       id="radialGradient845"
       gradientUnits="userSpaceOnUse"
       gradientTransform="matrix(1,0,0,0.22538525,0,31.608595)"
       cx="99.298828"
       cy="40.805569"
       fx="99.298828"
       fy="40.805569"
       r="83.017578" />
  </defs>
  <sodipodi:namedview
     id="base"
     pagecolor="#ffffff"
     bordercolor="#666666"
     borderopacity="1.0"
     inkscape:pageopacity="0.0"
     inkscape:pageshadow="2"
     inkscape:zoom="1.596875"
     inkscape:cx="354.83561"
     inkscape:cy="141.46007"
     inkscape:document-units="mm"
     inkscape:current-layer="layer1"
     showgrid="false"
     units="px"
     inkscape:pagecheckerboard="true"
     inkscape:window-width="1366"
     inkscape:window-height="739"
     inkscape:window-x="0"
     inkscape:window-y="0"
     inkscape:window-maximized="1" />
  <metadata
     id="metadata5">
    <rdf:RDF>
      <cc:Work
         rdf:about="">
        <dc:format>image/svg+xml</dc:format>
        <dc:type
           rdf:resource="http://purl.org/dc/dcmitype/StillImage" />
        <dc:title></dc:title>
      </cc:Work>
    </rdf:RDF>
  </metadata>
  <g
     inkscape:label="Layer 1"
     inkscape:groupmode="layer"
     id="layer1"
     transform="translate(0,-244.08332)">
    <g
       aria-label="SuperTux"
       transform="matrix(0.76845606,0,0,0.76845606,-10.848713,239.92925)"
       style="font-style:normal;font-weight:normal;font-size:40px;line-height:125%;font-family:sans-serif;letter-spacing:0px;word-spacing:0px;fill:#ffffff;fill-opacity:1;stroke:#ffffff;stroke-width:0.46190161;stroke-linecap:butt;stroke-linejoin:miter;stroke-miterlimit:4;stroke-dasharray:none;stroke-opacity:0.99215686"
       id="flowRoot10">
      <path
         d="m 28.078125,22.211818 q 4.550781,0 8.027344,7.148437 l 2.011718,0.253906 v 0.507813 q -0.253906,0.761719 -1.503906,0.761719 h -2.265625 l -2.5,0.253906 -0.253906,-0.253906 V 30.37588 l 1.25,-1.523437 q -2.109375,-3.828125 -5.273438,-4.609375 h -2.246093 q -4.082032,1.738281 -4.277344,4.21875 v 1.035156 q 1.757812,2.695312 6.777344,3.945312 9.179687,5.078125 9.179687,9.628907 -0.332031,5.195312 -3.515625,7.441406 Q 30.5,51.840724 27.355469,51.879786 l -1.367188,0.136719 -1.621094,-0.332031 q -5.078125,-2.050781 -5.078125,-3.691406 -0.9375,-1.171875 -1.25,-3.847657 L 17.785156,43.891505 H 17.53125 l -0.996094,0.253906 -0.253906,-0.253906 v -0.507812 q 0.800781,-1.523438 2.753906,-1.523438 l 3.847656,0.761719 v 0.253906 l -1.25,1.523438 v 0.78125 q 2.109375,4.003906 5.195313,4.003906 h 0.253906 q 5.058594,-0.390625 6.777344,-4.277344 v -2.03125 q -2.519531,-5.605469 -11.308594,-8.125 -4.121094,-1.621094 -4.257812,-5.644531 0.195312,-4.6875 6.269531,-6.777344 z"
         style="font-style:normal;font-variant:normal;font-weight:normal;font-stretch:normal;font-family:'Layne Hansom';-inkscape-font-specification:'Layne Hansom';fill:#ffffff;fill-opacity:1;stroke:#ffffff;stroke-width:0.46190161;stroke-miterlimit:4;stroke-dasharray:none;stroke-opacity:0.99215686"
         id="path847" />
      <path
         d="m 40.070312,30.84463 q 2.1875,0.566406 3.574219,2.558594 -0.976562,4.84375 -0.976562,9.257812 v 0.957032 q 0,5.117187 2.285156,5.117187 4.882812,-2.207031 4.882812,-12.460937 0,-5.429688 5.839844,-5.429688 l 1.308594,0.957031 v 0.3125 q 0,0.507813 -2.929688,1.289063 l -0.3125,2.226562 q 0,11.503907 1.621094,11.503907 l 1.289063,0.332031 2.285156,-0.332031 v 0.957031 q 0,1.40625 -5.527344,2.246094 -0.644531,0 -2.597656,-2.246094 -0.9375,0 -4.550781,2.558594 l -2.285157,0.644531 h -0.644531 q -3.964844,0 -4.882812,-7.03125 h 0.332031 l -0.332031,-0.3125 v -3.203125 l 0.976562,-6.699219 -1.953125,-1.933594 q 0,-0.878906 2.597656,-1.269531 z"
         style="font-style:normal;font-variant:normal;font-weight:normal;font-stretch:normal;font-family:'Layne Hansom';-inkscape-font-specification:'Layne Hansom';fill:#ffffff;fill-opacity:1;stroke:#ffffff;stroke-width:0.46190161;stroke-miterlimit:4;stroke-dasharray:none;stroke-opacity:0.99215686"
         id="path849" />
      <path
         d="m 67.472656,29.653224 q 11.796875,0 11.992188,6.796875 l 0.15625,2.910156 q -1.074219,6.015625 -6.796875,6.601563 l -2.148438,0.175781 -2.5,-0.03906 v 0.371094 l -1.777344,9.746094 1.074219,0.371094 v 1.835937 l -8.59375,1.09375 -0.722656,-1.09375 q 0,-0.878906 4.296875,-2.597656 1.425781,-6.464844 1.425781,-9.355469 l -2.5,-1.09375 q 0,-2.207031 2.871094,-2.207031 l 0.351562,-2.832031 V 32.582911 H 64.25 L 61.027344,33.34463 H 60.65625 l -0.703125,-0.761719 q 2.695312,-2.929687 7.519531,-2.929687 z m 1.074219,3.691406 v 4.394531 l -0.371094,5.429688 2.128906,0.371094 q 5.019532,0 5.214844,-4.121094 v -1.113281 q -0.195312,-5.253907 -5.566406,-6.074219 z"
         style="font-style:normal;font-variant:normal;font-weight:normal;font-stretch:normal;font-family:'Layne Hansom';-inkscape-font-specification:'Layne Hansom';fill:#ffffff;fill-opacity:1;stroke:#ffffff;stroke-width:0.46190161;stroke-miterlimit:4;stroke-dasharray:none;stroke-opacity:0.99215686"
         id="path851" />
      <path
         d="m 90.558594,31.196193 q 7.890625,1.71875 7.890625,8.554687 0,2.246094 -4.082032,2.246094 h -9.355468 l -0.585938,0.742187 q 0,4.023438 2.636719,5.957032 h 3.203125 q 2.34375,0 3.808594,-2.988282 h 0.878906 l 2.03125,0.742188 v 1.113281 q 0,2.128906 -7.871094,3.730469 -8.769531,0 -8.769531,-11.542969 2.773437,-6.464844 5.253906,-6.699219 0,-0.839843 4.960938,-1.855468 z m -5.839844,7.441406 v 0.742187 l 1.464844,0.371094 H 91.4375 l 3.515625,-0.371094 v -0.742187 q 0,-4.257813 -4.980469,-4.84375 -4.375,0 -5.253906,4.84375 z"
         style="font-style:normal;font-variant:normal;font-weight:normal;font-stretch:normal;font-family:'Layne Hansom';-inkscape-font-specification:'Layne Hansom';fill:#ffffff;fill-opacity:1;stroke:#ffffff;stroke-width:0.46190161;stroke-miterlimit:4;stroke-dasharray:none;stroke-opacity:0.99215686"
         id="path853" />
      <path
         d="m 100.75391,30.356349 q 3.45703,0 4.12109,2.949219 h 0.58594 q 3.3789,-2.304688 5.89844,-2.304688 1.38671,0 2.07031,3.925781 h 1.46484 v 0.976563 q -1.21094,1.972656 -3.53515,1.972656 -0.60547,0 -1.77735,-4.257812 h -0.29297 q -3.125,0 -5.29297,8.496093 v 2.285157 l -0.29296,2.949218 1.17187,2.285157 v 0.644531 l -0.87891,0.976562 -0.29296,-0.3125 h -0.29297 q -1.48438,0.07813 -1.48438,0.644532 L 99.875,51.254786 h -1.777344 v -0.644531 q 2.363284,-2.265625 2.363284,-3.59375 V 38.18838 l 0.29297,-3.59375 q -0.52735,-1.464844 -2.070316,-2.597656 0.46875,-1.640625 2.070316,-1.640625 z"
         style="font-style:normal;font-variant:normal;font-weight:normal;font-stretch:normal;font-family:'Layne Hansom';-inkscape-font-specification:'Layne Hansom';fill:#ffffff;fill-opacity:1;stroke:#ffffff;stroke-width:0.46190161;stroke-miterlimit:4;stroke-dasharray:none;stroke-opacity:0.99215686"
         id="path855" />
      <path
         d="m 128.19531,22.09463 q 11.75781,0.976563 12.61719,1.582031 l 0.46875,1.308594 q -0.33203,1.09375 -1.19141,1.582031 h -0.70312 q -0.625,0 -0.95703,-1.835937 h -0.23438 l -8.08594,-0.527344 -0.23437,0.253906 v 1.835938 l 0.23437,1.328125 q -1.91406,17.03125 -2.85156,21.5625 l 0.23438,0.273437 h 1.42578 l 0.95703,-0.273437 0.9375,0.273437 v 1.054688 l -2.38281,0.78125 -4.04297,-0.527344 -1.42578,0.273438 -0.9375,-0.273438 v -1.054687 q 2.1289,0 2.1289,-2.617188 l 1.91407,-19.746094 v -3.144531 h -0.25391 l -8.55469,0.253906 v 1.328125 l -0.46875,0.507813 h -0.48828 q -1.89453,-1.230469 -1.89453,-2.363281 0,-1.054688 3.08594,-1.582032 l 0.23437,0.273438 h 0.25391 z"
         style="font-style:normal;font-variant:normal;font-weight:normal;font-stretch:normal;font-family:'Layne Hansom';-inkscape-font-specification:'Layne Hansom';fill:#ffffff;fill-opacity:1;stroke:#ffffff;stroke-width:0.46190161;stroke-miterlimit:4;stroke-dasharray:none;stroke-opacity:0.99215686"
         id="path857" />
      <path
         d="m 143.37109,30.84463 q 2.1875,0.566406 3.57422,2.558594 -0.97656,4.84375 -0.97656,9.257812 v 0.957032 q 0,5.117187 2.28516,5.117187 4.88281,-2.207031 4.88281,-12.460937 0,-5.429688 5.83984,-5.429688 l 1.3086,0.957031 v 0.3125 q 0,0.507813 -2.92969,1.289063 l -0.3125,2.226562 q 0,11.503907 1.62109,11.503907 l 1.28906,0.332031 2.28516,-0.332031 v 0.957031 q 0,1.40625 -5.52734,2.246094 -0.64453,0 -2.59766,-2.246094 -0.9375,0 -4.55078,2.558594 l -2.28516,0.644531 h -0.64453 q -3.96484,0 -4.88281,-7.03125 h 0.33203 l -0.33203,-0.3125 v -3.203125 l 0.97656,-6.699219 -1.95312,-1.933594 q 0,-0.878906 2.59765,-1.269531 z"
         style="font-style:normal;font-variant:normal;font-weight:normal;font-stretch:normal;font-family:'Layne Hansom';-inkscape-font-specification:'Layne Hansom';fill:#ffffff;fill-opacity:1;stroke:#ffffff;stroke-width:0.46190161;stroke-miterlimit:4;stroke-dasharray:none;stroke-opacity:0.99215686"
         id="path859" />
      <path
         d="m 179.60156,30.004786 q 1.64063,0.527344 1.64063,1.210938 v 0.800781 q -6.77735,6.289063 -6.77735,7.636719 3.4961,8.027344 5.13672,8.027344 2.71485,0 2.71485,1.210937 v 0.800781 q 0,1.074219 -4.0625,1.601563 -1.09375,0 -6.23047,-8.828125 -6.95313,8.828125 -9.21875,8.828125 l -1.34766,-0.410156 v -0.390625 q 1.17188,-2.539063 4.60938,-4.824219 4.0625,-4.511719 4.0625,-6.425781 -4.0625,-5.625 -7.32422,-5.625 v -0.390625 q 0.41015,-2.011719 3.53515,-2.011719 1.3086,0.01953 5.95703,6.015625 0.78125,0 5.6836,-6.425781 1.62109,-0.292969 1.62109,-0.800782 z"
         style="font-style:normal;font-variant:normal;font-weight:normal;font-stretch:normal;font-family:'Layne Hansom';-inkscape-font-specification:'Layne Hansom';fill:#ffffff;fill-opacity:1;stroke:#ffffff;stroke-width:0.46190161;stroke-miterlimit:4;stroke-dasharray:none;stroke-opacity:0.99215686"
         id="path861" />
    </g>
    <path
       d="m 2.9129925,296.33077 c 0.418922,-5.3e-4 0.8326753,-0.0936 1.2124592,-0.27321 0.3734644,-0.1674 0.7048299,-0.41805 0.9693233,-0.73376 v 0 l -0.7221725,-0.73378 c -0.1772354,0.21641 -0.397365,0.39248 -0.64609,0.51694 -0.2439901,0.1197 -0.5118614,0.18128 -0.7829466,0.17954 -0.228759,0.002 -0.4557318,-0.0412 -0.6677861,-0.12837 -0.2120545,-0.0872 -0.4049797,-0.21597 -0.5676048,-0.37902 -0.1565976,-0.16002 -0.2803226,-0.34953 -0.3639896,-0.55856 -0.089707,-0.22143 -0.1348703,-0.45895 -0.1328584,-0.69847 -0.00249,-0.24186 0.041441,-0.48184 0.1292158,-0.70675 0.081936,-0.20911 0.2033543,-0.40001 0.3574408,-0.56194 0.154524,-0.16068 0.3393402,-0.28812 0.5434406,-0.37478 0.2126882,-0.0916 0.4416036,-0.13812 0.6726611,-0.13664 0.2786525,-8e-4 0.5537144,0.0638 0.8033289,0.18942 0.2580106,0.13144 0.4839335,0.31953 0.6613763,0.55055 v 0 l 0.7450836,-0.75732 c -0.2619782,-0.32269 -0.5953376,-0.57813 -0.9729451,-0.74547 -0.3880922,-0.18197 -0.8104018,-0.27655 -1.2379365,-0.27729 -0.3818702,-0.002 -0.7604521,0.0716 -1.1138175,0.21857 -0.334786,0.13777 -0.6404644,0.3393 -0.90051725,0.59373 -0.256683,0.25461 -0.460847,0.55848 -0.600588,0.89392 -0.144862,0.3517 -0.219758,0.72895 -0.220383,1.1101 -6.09e-4,0.38119 0.07303,0.75875 0.216743,1.11088 0.138087,0.33436 0.340962,0.63706 0.596583,0.89032 0.26017815,0.25413 0.56598675,0.45578 0.90088125,0.59326 0.3557542,0.14744 0.7368352,0.2216 1.1210985,0.21813 z m 14.4057225,0.008 c 0.380587,0.002 0.757921,-0.0715 1.109798,-0.21856 0.333314,-0.13704 0.636579,-0.34 0.892357,-0.59673 0.255733,-0.25629 0.458949,-0.56159 0.597853,-0.89856 0.145452,-0.34953 0.220387,-0.72504 0.220387,-1.10454 0,-0.37951 -0.07494,-0.75515 -0.220387,-1.10477 -0.138904,-0.33661 -0.342078,-0.642 -0.597853,-0.89856 -0.255736,-0.25659 -0.558998,-0.4593 -0.892357,-0.59646 -0.709477,-0.29135 -1.50283,-0.29135 -2.212307,0 -0.333362,0.13716 -0.636626,0.33987 -0.892358,0.59646 -0.255776,0.25656 -0.458949,0.56195 -0.597853,0.89856 -0.145364,0.34966 -0.22026,0.7253 -0.22026,1.10477 0,0.37946 0.07489,0.75501 0.22026,1.10454 0.138904,0.33697 0.342121,0.64227 0.597853,0.89856 0.255776,0.25673 0.559039,0.45969 0.892358,0.59673 0.34962,0.14657 0.724568,0.22073 1.102855,0.21813 z m 0,-1.03819 c -0.223336,0.002 -0.444725,-0.0425 -0.650586,-0.13053 -0.205862,-0.0881 -0.39186,-0.21771 -0.546596,-0.38077 -0.152604,-0.16392 -0.272602,-0.35647 -0.353436,-0.56636 -0.172384,-0.4534 -0.172384,-0.95577 0,-1.40929 0.08149,-0.20842 0.201439,-0.39915 0.353436,-0.56194 0.154736,-0.16341 0.340734,-0.29308 0.546596,-0.38103 0.205861,-0.0879 0.42725,-0.13231 0.650586,-0.1304 0.229931,-0.002 0.457692,0.0448 0.669018,0.13665 0.201786,0.0868 0.384098,0.21428 0.535796,0.37478 0.152001,0.16279 0.271953,0.35352 0.353439,0.56194 0.172297,0.45357 0.172297,0.95585 0,1.40929 -0.08079,0.20989 -0.20079,0.40244 -0.353439,0.56636 -0.151698,0.16046 -0.33401,0.28796 -0.535796,0.37469 -0.211238,0.0915 -0.438912,0.13791 -0.668672,0.13617 z m 16.709052,0.95232 v -0.99917 h -2.911893 v -4.46611 h -1.101473 v 5.46485 z m 13.896817,0 v -0.99915 h -2.912076 v -4.46613 h -1.101952 v 5.46486 z m 14.002668,0 v -0.98354 h -3.017891 v -1.29632 h 1.969278 v -0.95264 h -1.969278 v -1.248 h 2.987972 v -0.98365 h -4.090787 v 5.46459 z m 12.224634,0.0781 c 0.418922,-5.3e-4 0.832643,-0.0937 1.212532,-0.27321 0.373385,-0.1674 0.70471,-0.41806 0.969243,-0.73377 v 0 l -0.72249,-0.73376 c -0.177363,0.2164 -0.397671,0.3929 -0.646165,0.51693 -0.244145,0.12013 -0.512162,0.18128 -0.783191,0.17954 -0.228547,0.002 -0.455358,-0.0408 -0.667419,-0.12793 -0.212066,-0.0872 -0.40504,-0.21597 -0.567232,-0.37946 -0.156999,-0.15959 -0.280591,-0.34953 -0.364289,-0.55813 -0.08975,-0.22156 -0.134869,-0.45908 -0.133136,-0.6986 -0.0021,-0.24185 0.04159,-0.48188 0.129672,-0.70674 0.08149,-0.2092 0.202954,-0.40011 0.356907,-0.56195 0.154379,-0.16071 0.339553,-0.28817 0.543383,-0.37477 0.212926,-0.0916 0.44191,-0.13812 0.672621,-0.13665 0.279707,-8e-4 0.555951,0.0644 0.806178,0.1909 0.258037,0.1314 0.483973,0.31948 0.661349,0.55054 v 0 l 0.745033,-0.75731 c -0.261935,-0.32269 -0.595421,-0.57812 -0.973143,-0.74547 -0.387702,-0.18189 -0.810093,-0.27647 -1.237255,-0.27729 -0.382061,-0.002 -0.760648,0.0716 -1.114092,0.21856 -0.334788,0.13761 -0.640524,0.33905 -0.900718,0.59339 -0.256733,0.25453 -0.460992,0.55844 -0.601062,0.89391 -0.144849,0.35171 -0.219443,0.72896 -0.220308,1.11012 -5.29e-4,0.38114 0.07283,0.7586 0.216837,1.11074 0.137903,0.33436 0.340868,0.63705 0.596283,0.89032 0.260207,0.25413 0.566378,0.45578 0.901168,0.59326 0.355177,0.14658 0.735505,0.2203 1.119294,0.21639 z m 14.580745,-0.0781 v -4.46611 h 1.78584 v -0.99951 h -4.682728 v 0.99951 h 1.794073 v 4.46569 z m 12.626639,0 v -5.46454 h -1.10195 v 5.46454 z m 12.69603,0.0863 c 0.38033,0.002 0.75762,-0.0715 1.10976,-0.21856 0.33305,-0.13748 0.63662,-0.34001 0.89205,-0.59673 0.25586,-0.25631 0.45925,-0.56203 0.59803,-0.89856 0.14527,-0.34954 0.2203,-0.72514 0.2203,-1.10463 0,-0.37947 -0.075,-0.75511 -0.2203,-1.10473 -0.13878,-0.33661 -0.34217,-0.642 -0.59803,-0.8986 -0.25543,-0.25656 -0.559,-0.45929 -0.89205,-0.59647 -0.70948,-0.29121 -1.50266,-0.29121 -2.21213,0 -0.33306,0.13738 -0.6362,0.34017 -0.89206,0.59672 -0.25543,0.25657 -0.45882,0.56186 -0.5976,0.89835 -0.14571,0.34958 -0.22073,0.72522 -0.22073,1.10473 0,0.37949 0.075,0.75509 0.22073,1.10463 0.13878,0.33653 0.34217,0.64183 0.5976,0.89856 0.25586,0.25629 0.559,0.45925 0.89206,0.59673 0.34953,0.14614 0.72422,0.22029 1.10237,0.21769 z m 0,-1.03819 c -0.22898,0.002 -0.45534,-0.0447 -0.66525,-0.13661 -0.20034,-0.0876 -0.38119,-0.21511 -0.5321,-0.37513 -0.15265,-0.16349 -0.27278,-0.3556 -0.35388,-0.56593 -0.17216,-0.45349 -0.17216,-0.9558 0,-1.40933 0.0815,-0.20851 0.20166,-0.39928 0.35388,-0.56199 0.15091,-0.15994 0.33176,-0.28739 0.5321,-0.37477 0.20991,-0.0921 0.43627,-0.13865 0.66525,-0.13661 0.22984,-0.002 0.45708,0.0448 0.66871,0.13661 0.20167,0.0868 0.38423,0.21427 0.53602,0.37477 0.15178,0.1628 0.27191,0.35353 0.35344,0.56199 0.1726,0.45348 0.1726,0.95588 0,1.40933 -0.0807,0.20989 -0.2008,0.40244 -0.35344,0.56593 -0.15179,0.16046 -0.33435,0.28796 -0.53602,0.37513 -0.21163,0.0915 -0.43929,0.13747 -0.66871,0.13573 z m 13.7364,0.95232 v -3.65532 l 2.71388,3.65532 h 0.97316 v -5.46459 h -1.03387 v 3.53651 l -2.64536,-3.53651 h -1.04948 v 5.46459 z"
       id="path4"
       inkscape:connector-curvature="0"
       style="fill:#ffffff;stroke-width:0.43366686" />
  </g>
</svg>
