<?xml version="1.0" encoding="UTF-8" standalone="no"?>
<!-- Created with Inkscape (http://www.inkscape.org/) -->

<svg
   xmlns:dc="http://purl.org/dc/elements/1.1/"
   xmlns:cc="http://creativecommons.org/ns#"
   xmlns:rdf="http://www.w3.org/1999/02/22-rdf-syntax-ns#"
   xmlns:svg="http://www.w3.org/2000/svg"
   xmlns="http://www.w3.org/2000/svg"
   xmlns:sodipodi="http://sodipodi.sourceforge.net/DTD/sodipodi-0.dtd"
   xmlns:inkscape="http://www.inkscape.org/namespaces/inkscape"
   width="500"
   height="200"
   viewBox="0 0 500 200"
   version="1.1"
   id="svg8"
   inkscape:version="0.92.5 (2060ec1f9f, 2020-04-08)"
   sodipodi:docname="uzebox.svg">
  <defs
     id="defs2" />
  <sodipodi:namedview
     id="base"
     pagecolor="#ffffff"
     bordercolor="#666666"
     borderopacity="1.0"
     inkscape:pageopacity="0.0"
     inkscape:pageshadow="2"
     inkscape:zoom="0.67832898"
     inkscape:cx="110.93808"
     inkscape:cy="147.94116"
     inkscape:document-units="mm"
     inkscape:current-layer="layer1"
     showgrid="false"
     units="px"
     inkscape:pagecheckerboard="true"
     inkscape:window-width="1366"
     inkscape:window-height="743"
     inkscape:window-x="0"
     inkscape:window-y="0"
     inkscape:window-maximized="1" />
  <metadata
     id="metadata5">
    <rdf:RDF>
      <cc:Work
         rdf:about="">
        <dc:format>image/svg+xml</dc:format>
        <dc:type
           rdf:resource="http://purl.org/dc/dcmitype/StillImage" />
        <dc:title />
      </cc:Work>
    </rdf:RDF>
  </metadata>
  <g
     inkscape:label="Layer 1"
     inkscape:groupmode="layer"
     id="layer1"
     transform="translate(-0.21026093,-247.90142)">
    <path
       inkscape:connector-curvature="0"
       id="path151"
       d="m 60.285877,417.63998 c -1.52208,-1.0661 -2.76741,-2.45066 -2.76741,-3.07682 0,-0.62611 5.75159,-8.42946 12.78131,-17.34073 16.36131,-20.74057 42.421653,-54.67969 43.667893,-56.86997 0.87385,-1.5358 -6.04529,1.18544 -21.037693,8.27394 l -5.11459,2.41824 -2.90579,13.38306 c -1.59819,7.36071 -3.50511,13.79539 -4.23759,14.29925 -0.73248,0.50386 -15.21978,0.92472 -32.19398,0.93523 -29.21334,0.0188 -30.99544,-0.11405 -33.35611,-2.47484 -2.85815,-2.85815 -2.84008,-2.71794 -1.20548,-9.35216 0.67592,-2.74334 3.71869,-16.15237 6.76171,-29.79784 3.04302,-13.64548 5.98368,-25.24174 6.53479,-25.76939 0.83513,-0.7996 15.49434,-1.77178 19.71818,-1.30765 0.6923,0.0759 1.95868,1.25906 2.81416,2.62891 1.29611,2.07542 0.81284,5.81535 -2.89871,22.43279 -2.44978,10.96821 -4.10389,20.50893 -3.67579,21.20159 0.92931,1.50366 16.41665,1.70881 17.33088,0.22952 0.35007,-0.5664 2.69424,-10.52647 5.20929,-22.13347 2.51506,-11.60705 5.13613,-21.80513 5.82461,-22.66241 0.80738,-1.00536 4.68473,-1.5587 10.92206,-1.5587 11.42883,0 13.13478,1.22955 12.12733,8.74066 -0.7934,5.91522 -0.26661,6.02739 8.624133,1.83648 3.66302,-1.72672 9.61082,-4.49051 13.21734,-6.14182 33.63238,-15.39929 39.72544,-18.15182 40.18075,-18.15182 0.28744,0 6.86803,-3.0279 14.62352,-6.72862 22.41952,-10.69807 31.12567,-14.46967 33.40106,-14.46967 1.1667,0 2.74726,1.37386 3.51233,3.05302 1.27003,2.78741 0.47668,4.24143 -9.119,16.71316 -8.16351,10.61036 -10.07705,13.82636 -8.57065,14.4044 1.06667,0.40955 15.04826,0.74421 31.0702,0.74421 28.04729,0 29.19807,0.0961 30.93909,2.58169 1.51278,2.15978 1.55997,3.64982 0.28871,9.11849 -0.83574,3.59524 -1.93133,7.20307 -2.43463,8.01746 -0.64996,1.05164 -7.23788,1.48065 -22.73685,1.48065 -14.23032,0 -21.55366,0.43359 -21.0511,1.24694 0.42459,0.68701 5.98902,1.24699 12.39048,1.24699 13.95049,0 15.11187,0.82467 14.02967,9.9621 -1.31683,11.11856 -1.49596,11.23615 -17.11184,11.23615 -8.74703,0 -13.67266,0.47327 -13.67266,1.31372 0,0.8873 5.86205,1.12026 18.05915,0.71778 16.06491,-0.53021 18.36455,-0.34876 20.8247,1.64339 2.63908,2.13702 2.69871,2.59874 1.30415,10.09764 -0.80377,4.32202 -2.17877,8.31886 -3.05555,8.88191 -0.87679,0.563 -15.60045,0.88654 -32.71924,0.719 l -31.12508,-0.30446 -2.57333,-3.81976 c -3.1017,-4.60409 4.08479,-7.23041 -57.58025,21.0429 -26.172473,12.00002 -48.634913,22.15106 -49.916543,22.55783 -1.28163,0.40672 -3.57558,-0.13291 -5.09765,-1.19878 z M 226.16945,368.8256 c -1.54311,-0.29739 -4.0682,-0.29739 -5.61131,0 -1.54311,0.29738 -0.28056,0.54038 2.80565,0.54038 3.08622,0 4.34877,-0.24319 2.80566,-0.54038 z M 167.3171,350.19598 c 9.87336,-4.51322 9.9581,-4.59211 11.71861,-10.91085 2.50144,-8.9781 4.7478,-20.79808 4.0796,-21.46627 -0.58327,-0.58332 -28.33417,34.8473 -28.33417,36.1753 0,1.50158 2.79375,0.6551 12.53596,-3.79818 z m 56.04669,-5.31088 c 0,-1.01625 -9.86244,-0.41615 -11.1187,0.6764 -0.28575,0.24837 2.09905,0.45196 5.29957,0.45196 3.20052,0 5.81913,-0.50776 5.81913,-1.12831 z m 22.48944,31.45174 c -1.48108,-1.8829 -2.29339,-4.19882 -1.85882,-5.29957 0.78296,-1.98319 9.09571,-38.40574 11.75389,-51.49999 0.79813,-3.93151 1.87751,-7.41176 2.39863,-7.73384 0.52111,-0.32189 13.44548,-0.67149 28.72081,-0.7765 l 27.77333,-0.19087 4.86314,4.74873 c 5.32869,5.20333 5.86325,7.89511 3.46185,17.43192 -0.98766,3.92237 -2.55193,6.35856 -5.29957,8.25358 -2.14405,1.47877 -4.08798,2.82624 -4.31983,2.99439 -0.23183,0.16825 0.82998,1.99856 2.3596,4.06748 2.63485,3.56385 2.69972,4.17573 1.23318,11.6324 -2.02377,10.28998 -2.88785,11.71484 -9.73881,16.05962 l -5.76678,3.65717 H 274.9589 248.48395 Z m 41.10539,-19.03718 c 5.09054,-0.90578 4.68551,-1.01116 -4.36435,-1.13544 -6.85257,-0.0942 -9.39007,0.2413 -8.10522,1.07181 2.19024,1.41543 4.79769,1.42872 12.46957,0.0636 z m 9.35218,-23.75585 c 0.4862,-0.78668 -2.50549,-1.24694 -8.10522,-1.24694 -5.59972,0 -8.59143,0.46045 -8.10522,1.24694 0.42388,0.68582 4.07121,1.24699 8.10522,1.24699 4.03401,0 7.68136,-0.56117 8.10522,-1.24699 z m 22.6385,43.85707 c -1.13504,-1.2542 -2.0637,-3.31242 -2.0637,-4.57383 0,-2.23633 10.16755,-49.9183 12.23215,-57.36408 l 1.03729,-3.74087 31.08575,-0.62352 c 17.09715,-0.3431 32.05486,-0.18993 33.23933,0.34027 4.60109,2.05912 4.50876,4.73789 -1.01988,29.58666 -5.75019,25.84461 -6.37884,29.85807 -3.92099,25.03229 0.84717,-1.66333 6.117,-6.9941 11.71072,-11.84609 5.59373,-4.85199 10.22306,-9.48365 10.28739,-10.29252 0.0641,-0.80888 -2.76039,-5.99134 -6.27721,-11.51661 -5.38789,-8.4649 -6.26982,-10.66777 -5.6039,-13.99744 1.32907,-6.64534 2.59701,-7.30661 14.0106,-7.30661 h 10.43574 l 3.87058,6.85828 c 2.12882,3.77207 4.22159,6.85827 4.6506,6.85827 0.42888,0 3.8825,-3.02413 7.67446,-6.72028 6.81727,-6.64511 6.99386,-6.72688 15.7833,-7.30445 4.88884,-0.32142 9.82811,-0.0584 10.97613,0.58403 1.36401,0.76335 2.6749,0.6805 3.78296,-0.23895 1.0629,-0.88211 5.80781,-1.26301 12.71599,-1.02067 10.76504,0.3775 11.02901,0.45998 11.39195,3.56414 0.20454,1.74769 -0.19935,4.6794 -0.89724,6.51489 -1.24543,3.27575 -1.46468,3.33452 -11.90589,3.19224 l -10.63714,-0.14516 -0.12347,-3.889 c -0.11971,-3.76684 -0.17485,-3.72541 -1.76433,1.3175 -1.11983,3.55292 -3.91388,7.31509 -8.79759,11.84608 -12.73485,11.81508 -14.25391,13.39197 -14.25391,14.79623 0,0.76029 2.52508,5.28577 5.61128,10.05655 4.20684,6.50311 5.61134,9.89061 5.61134,13.53411 0,7.02393 -2.36556,8.77888 -11.83318,8.77888 -10.32537,0 -11.25264,-0.4449 -16.18126,-7.76348 l -4.16927,-6.19102 -7.58948,6.97722 -7.58953,6.97728 h -9.16975 c -10.05948,0 -13.19326,-1.7714 -13.40962,-7.57996 -0.0907,-2.43342 -0.35502,-2.17284 -1.36289,1.34322 -0.68773,2.3993 -1.89966,4.77555 -2.69319,5.28049 -0.79353,0.50494 -15.24379,0.92665 -32.11169,0.93716 -28.14209,0.0188 -30.83897,-0.16872 -32.73264,-2.2613 z m 42.38794,-19.6706 c 2.19894,-0.58997 3.14788,-2.69334 5.29956,-11.74679 1.44156,-6.06547 2.62101,-11.62628 2.62101,-12.35739 0,-0.82009 -3.50075,-1.32923 -9.13982,-1.32923 h -9.13983 l -2.15561,10.28739 c -1.18558,5.65808 -2.42863,11.22968 -2.7623,12.38138 -0.4449,1.53546 0.32279,2.23392 2.87847,2.61877 5.72111,0.86166 9.56226,0.90681 12.39852,0.14563 z"
       style="fill:#e7e7e7;stroke-width:1.24695742" />
    <path
       inkscape:connector-curvature="0"
       id="path145"
       d="m 59.776206,415.40446 c 0,-1.15876 3.128717,-3.38382 7.79348,-5.54257 40.113004,-18.56311 99.380934,-45.26306 101.627034,-45.78252 1.9412,-0.44914 2.80565,-0.0782 2.80565,1.20264 0,1.17299 -6.74065,4.9388 -18.39262,10.27541 -68.867243,31.54153 -91.571446,41.78297 -92.62825,41.78297 -0.662913,0 -1.205294,-0.87114 -1.205294,-1.93593 z M 14.189677,377.32034 c -1.801962,-2.91565 3.053046,-3.36092 29.376881,-2.69419 22.3413,0.56584 27.253556,0.38175 28.180303,-1.05569 0.617315,-0.95752 2.525224,-7.34012 4.23979,-14.18359 2.604599,-10.39588 3.630189,-12.70379 6.234788,-14.0302 9.992741,-5.08876 39.049861,-17.81866 39.544251,-17.32428 1.9239,1.92391 -3.87382,5.74415 -20.24471,13.33971 -10.173825,4.72035 -18.931076,9.28339 -19.460557,10.14011 -0.529477,0.85671 -1.867849,5.77788 -2.974157,10.93593 -1.106309,5.15809 -2.443046,10.78115 -2.970529,12.49571 l -0.959053,3.1174 -30.048302,0.33368 c -21.308375,0.23658 -30.30147,-0.0759 -30.918705,-1.07464 z m 159.890963,0.53307 c -2.43233,-2.43233 1.61345,-2.89184 28.16044,-3.19832 l 28.99177,-0.33462 1.39272,-4.30901 c 2.0226,-6.2578 4.61943,-6.62602 3.51204,-0.49801 -1.76044,9.74182 0.24074,9.17137 -32.17388,9.17137 -15.97848,0 -29.42588,-0.37421 -29.88309,-0.83131 z m 72.32352,0 c -2.45022,-2.45019 1.31011,-2.90956 23.81839,-2.90956 24.28811,0 24.71749,-0.0471 29.27235,-3.1412 5.41262,-3.67796 6.58098,-5.59696 7.76714,-12.75752 0.57544,-3.4737 1.51869,-5.29957 2.7378,-5.29957 1.4363,0 1.67201,0.92307 1.03489,4.05263 -2.7055,13.28975 -3.70529,14.93432 -11.46904,18.86573 -3.27094,1.65635 -8.34985,2.0208 -28.16045,2.0208 -13.29338,0 -24.54387,-0.3742 -25.00108,-0.83131 z m 72.32353,0 c -2.46788,-2.46787 1.53426,-2.90956 26.36343,-2.90956 19.89362,0 27.71365,-0.41851 29.12759,-1.5587 1.80097,-1.45233 3.95716,-9.76901 11.15338,-43.02001 1.82761,-8.44468 3.33084,-12.78131 4.43047,-12.78131 0.91536,0 1.66431,0.80727 1.66431,1.79392 0,2.87549 -11.15159,53.41334 -12.46748,56.50133 -1.19119,2.79532 -1.30253,2.80564 -30.31798,2.80564 -16.01733,0 -29.49651,-0.3742 -29.95372,-0.83131 z m 70.86874,-0.41568 c -1.55006,-2.50807 0.92441,-3.74087 7.50858,-3.74087 6.56878,0 6.92974,-0.18946 14.38007,-7.54777 4.20316,-4.15132 8.29241,-7.33131 9.08719,-7.06668 3.29041,1.09547 1.38871,4.44065 -6.71321,11.80881 -8.50741,7.73685 -8.62382,7.79346 -16.0308,7.79346 -4.10363,0 -7.80796,-0.56112 -8.23183,-1.24695 z m 43.33182,0.42087 c -0.85728,-0.34593 -1.5587,-1.42387 -1.5587,-2.39548 0,-1.32716 1.85495,-1.76649 7.45799,-1.76649 6.94928,0 7.51228,-0.21633 8.254,-3.1717 1.01083,-4.02732 3.49048,-3.31072 4.01766,1.16107 0.6321,5.36141 -1.66215,7.01131 -9.59496,6.89999 -3.8595,-0.0542 -7.71871,-0.38128 -8.57599,-0.72739 z M 134.9049,364.70845 c 0.62004,-1.61582 49.02342,-64.51026 59.059,-76.74017 4.38396,-5.34251 6.71849,-6.63352 6.71849,-3.71528 0,2.71859 -61.58736,81.27785 -64.09762,81.7613 -1.61667,0.31152 -2.14334,-0.098 -1.67987,-1.30585 z M 31.915675,360.29212 c -1.049136,-1.70744 8.52556,-41.87463 10.107387,-42.40191 0.897672,-0.29927 1.542695,0.57578 1.542695,2.09277 0,2.35236 -6.618084,33.75212 -8.233076,39.06215 -0.685955,2.25541 -2.410635,2.88482 -3.417006,1.24699 z M 191.99319,358.0476 c -0.0633,-6.09691 1.62077,-6.79592 16.37228,-6.79592 h 13.41907 l 1.34308,-4.98786 c 1.83096,-6.7996 4.31849,-6.6067 3.22208,0.24978 -1.30151,8.13924 -1.95698,8.47885 -16.36381,8.47885 -12.55178,0 -12.89308,0.0759 -15.39477,3.42912 l -2.55842,3.42916 -0.0396,-3.80323 z m 71.57052,1.52434 c -0.34937,-0.91049 -0.0651,-3.15501 0.63176,-4.98786 1.25696,-3.30606 1.36588,-3.3324 13.76742,-3.3324 10.28019,0 12.50043,0.33226 12.50043,1.87041 0,1.52444 -2.08169,1.87046 -11.25348,1.87046 -10.85634,0 -11.2953,0.10981 -12.43871,3.1174 -1.32607,3.48784 -2.26567,3.91614 -3.20742,1.46199 z m 71.83497,-0.42275 c 0.0639,-3.2496 5.69349,-28.53063 6.72497,-30.19957 0.54289,-0.87844 5.65073,-1.39002 13.87853,-1.39002 10.74154,0 13.01946,0.32707 13.01946,1.87046 0,1.52212 -2.0613,1.87041 -11.06994,1.87041 -7.4449,0 -11.5016,0.52016 -12.38813,1.58834 -0.72502,0.87359 -2.61739,7.4234 -4.2053,14.55516 -1.5879,7.13172 -3.5885,13.19728 -4.44578,13.47907 -0.87501,0.28749 -1.53901,-0.49052 -1.51381,-1.77385 z M 435.4785,345.42454 c -0.58591,-1.52684 2.24311,-4.95482 10.54806,-12.78132 6.24182,-5.88218 11.97861,-11.97319 12.74842,-13.53547 1.77724,-3.60679 3.76849,-2.45001 3.76849,2.18928 0,2.90405 -2.25419,5.66761 -12.14541,14.88988 -6.67998,6.2282 -12.58945,11.32404 -13.13219,11.32404 -0.54274,0 -1.34704,-0.93891 -1.78737,-2.08641 z M 301.68594,343.7582 c 0,-0.69233 2.23942,-2.7966 4.9765,-4.67606 3.67762,-2.52536 5.4153,-4.86443 6.65769,-8.96174 2.4136,-7.95996 5.17932,-8.43493 4.0179,-0.68997 -1.23781,8.25429 -1.51269,8.74056 -6.99025,12.36541 -5.03427,3.33155 -8.66184,4.15339 -8.66184,1.96236 z m -105.24843,-7.27659 c -0.48614,-0.78659 -0.14379,-2.9755 0.76077,-4.86434 l 1.64465,-3.43416 21.45435,-0.34121 21.45434,-0.34122 1.3352,-4.95854 c 0.73436,-2.72722 1.8747,-4.95855 2.53409,-4.95855 1.55145,0 1.51138,3.18909 -0.11358,9.04045 l -1.29862,4.67605 h -21.03566 -21.03566 l -2.40798,3.30564 c -1.58567,2.17679 -2.70983,2.81728 -3.29186,1.8755 z m 72.32303,-8.1e-4 c -1.47879,-2.39269 0.69884,-7.67554 3.44806,-8.36475 4.41892,-1.10782 23.86603,-0.0377 23.86603,1.31401 0,0.70745 -4.58592,1.39073 -10.59914,1.57929 -9.69383,0.30398 -10.82536,0.60844 -13.24766,3.56433 -1.60881,1.96316 -2.96996,2.71185 -3.46729,1.90712 z M 83.061539,327.24774 c 1.200656,-6.2562 2.701289,-9.66391 4.25564,-9.66391 0.952983,0 1.145374,1.53033 0.587855,4.67605 -1.322046,7.4596 -1.99809,9.04045 -3.866014,9.04045 -1.308497,0 -1.557282,-1.03142 -0.977481,-4.05259 z m 396.939351,-9.74898 c 0,-0.63907 1.77691,-1.16192 3.94871,-1.16192 4.50196,0 3.88183,1.4889 -0.82933,1.9912 -1.71569,0.18286 -3.11938,-0.1904 -3.11938,-0.82928 z"
       style="fill:#1a1a1a;stroke-width:1.24695742" />
  </g>
</svg>
