<?xml version="1.0" encoding="UTF-8" standalone="no"?>
<svg
   xmlns:dc="http://purl.org/dc/elements/1.1/"
   xmlns:cc="http://creativecommons.org/ns#"
   xmlns:rdf="http://www.w3.org/1999/02/22-rdf-syntax-ns#"
   xmlns:svg="http://www.w3.org/2000/svg"
   xmlns="http://www.w3.org/2000/svg"
   xmlns:sodipodi="http://sodipodi.sourceforge.net/DTD/sodipodi-0.dtd"
   xmlns:inkscape="http://www.inkscape.org/namespaces/inkscape"
   width="500"
   height="200"
   viewBox="0 0 500 200"
   version="1.1"
   id="svg87"
   sodipodi:docname="vectrex.svg"
   inkscape:version="0.92.5 (2060ec1f9f, 2020-04-08)">
  <metadata
     id="metadata93">
    <rdf:RDF>
      <cc:Work
         rdf:about="">
        <dc:format>image/svg+xml</dc:format>
        <dc:type
           rdf:resource="http://purl.org/dc/dcmitype/StillImage" />
        <dc:title>mainlogo</dc:title>
      </cc:Work>
    </rdf:RDF>
  </metadata>
  <defs
     id="defs91" />
  <sodipodi:namedview
     pagecolor="#ffffff"
     bordercolor="#666666"
     borderopacity="1"
     objecttolerance="10"
     gridtolerance="10"
     guidetolerance="10"
     inkscape:pageopacity="0"
     inkscape:pageshadow="2"
     inkscape:window-width="1366"
     inkscape:window-height="743"
     id="namedview89"
     showgrid="false"
     inkscape:pagecheckerboard="true"
     inkscape:zoom="1.4754243"
     inkscape:cx="225.59324"
     inkscape:cy="157.12533"
     inkscape:window-x="0"
     inkscape:window-y="0"
     inkscape:window-maximized="1"
     inkscape:current-layer="svg87" />
  <title
     id="title57">mainlogo</title>
  <polygon
     id="path855-6"
     points="37.975081,60.75122 0.012190429,2.9528865 26.278041,2.9528865 37.975081,18.324678 49.672125,2.9528865 75.937976,2.9528865 "
     style="fill:#ffffff;fill-rule:nonzero;stroke:#ffffff;stroke-width:4.04926968;stroke-linecap:round;stroke-linejoin:round"
     transform="matrix(1.0352334,0,0,1.0352334,12.398992,67.696618)" />
  <polygon
     id="path872-4-6"
     points="133.33567,18.324683 129.96533,2.6625476 80.704344,2.6625476 80.704344,31.607756 80.704344,60.552965 129.96533,60.552965 133.33567,44.89083 103.99395,44.89083 103.99395,38.546677 115.69098,38.546677 115.69098,31.607756 115.69098,24.668835 103.99395,24.668835 103.99395,18.324683 "
     style="fill:#ffffff;fill-rule:nonzero;stroke:#ffffff;stroke-width:4.04926968;stroke-linecap:round;stroke-linejoin:round"
     transform="matrix(1.0352334,0,0,1.0352334,12.398992,67.696618)" />
  <g
     id="g1027"
     transform="matrix(1.0352334,0,0,1.0352334,154.76682,67.696618)"
     style="fill:#ffffff;fill-rule:evenodd;stroke:#ffffff;stroke-width:4.04926968;stroke-linecap:round;stroke-linejoin:round">
    <path
       d="M 54.48739,11.063637 C 46.085717,1.2484209 32.446891,-2.2722241 20.344203,2.2501137 8.2415145,6.7724516 0.25342135,18.374293 0.34694899,31.293961 0.44048083,44.213633 8.5956976,55.698612 20.762591,60.045254 32.929484,64.391899 46.515909,60.674166 54.774607,50.738349 L 40.796133,35.4302 c -3.327421,3.873951 -8.241221,6.481626 -12.707234,5.188474 -4.466013,-1.293156 -7.482295,-5.455495 -7.320626,-10.102148 0.161677,-4.646652 3.459943,-8.58929 8.005033,-9.568928 4.545089,-0.979638 8.053141,0.833701 11.93702,5.421754 z"
       id="path898-4"
       inkscape:connector-curvature="0"
       style="fill:#ffffff;fill-rule:nonzero" />
    <path
       d="M 54.487394,11.063637 C 46.085717,1.2484209 32.446895,-2.2722241 20.344207,2.2501137 8.2415187,6.7724516 0.25342554,18.374293 0.34695319,31.293961 0.44048502,44.213633 8.5957018,55.698612 20.762595,60.045258 32.929489,64.391903 46.515909,60.67417 54.774607,50.738349 L 40.796133,35.4302 c -3.327417,3.873951 -8.241216,6.481626 -12.70723,5.188474 -4.466013,-1.293156 -7.482295,-5.455495 -7.320626,-10.102148 0.161677,-4.646652 3.459943,-8.58929 8.005033,-9.568928 4.545089,-0.979638 8.053141,0.833701 11.937021,5.421754 z"
       id="path898-1"
       inkscape:connector-curvature="0"
       style="fill:#ffffff" />
  </g>
  <polygon
     id="path904-8-6"
     points="195.79632,22.931971 199.12383,2.7224852 225.66153,2.7224852 249.1372,2.7224852 251.2036,22.931971 236.68489,22.931971 236.68489,60.493032 225.66153,60.493032 212.18855,60.493032 212.18855,22.931971 "
     style="fill:#ffffff;fill-rule:nonzero;stroke:#ffffff;stroke-width:4.04926968;stroke-linecap:round;stroke-linejoin:round"
     transform="matrix(1.0352334,0,0,1.0352334,12.398992,67.696618)" />
  <g
     id="g1023"
     transform="matrix(1.0352334,0,0,1.0352334,277.87343,70.56539)"
     style="fill:#ffffff;fill-rule:evenodd;stroke:#ffffff;stroke-width:4.04926968;stroke-linecap:round;stroke-linejoin:round">
    <path
       d="m 57.828217,13.927491 c 1.55946,8.081625 -2.833721,16.133449 -10.155405,19.947295 L 63.278777,57.641549 H 37.666579 l -7.90464,-8.452534 V 22.763674 h 2.201003 c 1.055105,0 2.030073,-0.562891 2.557632,-1.476645 0.527546,-0.913755 0.527546,-2.039544 0,-2.953294 -0.527559,-0.913755 -1.502527,-1.476649 -2.557632,-1.476649 H 22.253661 V 57.641549 H 0.48529024 V 0.00670608 H 27.389247 40.964431 c 8.230705,0 15.304326,5.83916032 16.863786,13.92078492 z"
       id="path944-0"
       inkscape:connector-curvature="0"
       style="fill:#ffffff;fill-rule:nonzero" />
    <path
       d="M 57.828217,13.927491 C 59.387672,22.009116 54.9945,30.06094 47.672812,33.874786 L 63.278773,57.641554 H 37.666575 l -7.90464,-8.452539 V 22.763674 h 2.201007 c 1.055109,0 2.030073,-0.562891 2.557627,-1.476645 0.527555,-0.913755 0.527555,-2.039544 0,-2.953294 -0.527554,-0.913755 -1.502518,-1.476649 -2.557627,-1.476649 h -9.709281 l 9e-6,40.784468 H 0.48528604 V 0.00670608 H 27.389247 40.964431 c 8.230709,0 15.30433,5.83916032 16.863786,13.92078492 z"
       id="path944-7"
       inkscape:connector-curvature="0"
       style="fill:#ffffff" />
  </g>
  <polygon
     id="path872-4-3-7"
     points="378.38318,18.324683 375.01284,2.6625476 325.75185,2.6625476 325.75185,31.607756 325.75185,60.552965 375.01284,60.552965 378.38318,44.89083 349.04146,44.89083 349.04146,38.546677 360.7385,38.546677 360.7385,31.607756 360.7385,24.668835 349.04146,24.668835 349.04146,18.324683 "
     style="fill:#ffffff;fill-rule:nonzero;stroke:#ffffff;stroke-width:4.04926968;stroke-linecap:round;stroke-linejoin:round"
     transform="matrix(1.0352334,0,0,1.0352334,12.398992,67.696618)" />
  <polygon
     id="path965-5"
     points="418.10797,15.274915 426.73564,2.6476471 453.92827,2.6476471 435.91993,31.69533 453.92823,60.742999 426.7356,60.742999 418.10797,48.11574 409.48034,60.743004 382.28773,60.743004 400.29605,31.69533 382.28769,2.6476513 409.4803,2.6476513 "
     style="fill:#ffffff;fill-rule:nonzero;stroke:#ffffff;stroke-width:4.01947927;stroke-linecap:round;stroke-linejoin:round"
     transform="matrix(1.0352334,0,0,1.0352334,12.398992,67.696618)" />
</svg>
