<?xml version="1.0" encoding="UTF-8" standalone="no"?>
<!-- Created with Inkscape (http://www.inkscape.org/) -->

<svg
   xmlns:dc="http://purl.org/dc/elements/1.1/"
   xmlns:cc="http://creativecommons.org/ns#"
   xmlns:rdf="http://www.w3.org/1999/02/22-rdf-syntax-ns#"
   xmlns:svg="http://www.w3.org/2000/svg"
   xmlns="http://www.w3.org/2000/svg"
   xmlns:sodipodi="http://sodipodi.sourceforge.net/DTD/sodipodi-0.dtd"
   xmlns:inkscape="http://www.inkscape.org/namespaces/inkscape"
   width="500"
   height="200"
   viewBox="0 0 132.29166 52.916668"
   version="1.1"
   id="svg8"
   inkscape:version="0.92.5 (2060ec1f9f, 2020-04-08)"
   sodipodi:docname="vic20.svg">
  <defs
     id="defs2" />
  <sodipodi:namedview
     id="base"
     pagecolor="#ffffff"
     bordercolor="#666666"
     borderopacity="1.0"
     inkscape:pageopacity="0.0"
     inkscape:pageshadow="2"
     inkscape:zoom="0.5549131"
     inkscape:cx="462.96968"
     inkscape:cy="49.121201"
     inkscape:document-units="mm"
     inkscape:current-layer="layer1"
     showgrid="false"
     units="px"
     inkscape:pagecheckerboard="true"
     inkscape:window-width="1366"
     inkscape:window-height="743"
     inkscape:window-x="0"
     inkscape:window-y="0"
     inkscape:window-maximized="1" />
  <metadata
     id="metadata5">
    <rdf:RDF>
      <cc:Work
         rdf:about="">
        <dc:format>image/svg+xml</dc:format>
        <dc:type
           rdf:resource="http://purl.org/dc/dcmitype/StillImage" />
        <dc:title></dc:title>
      </cc:Work>
    </rdf:RDF>
  </metadata>
  <g
     inkscape:label="Layer 1"
     inkscape:groupmode="layer"
     id="layer1"
     transform="translate(0,-244.08332)">
    <path
       inkscape:connector-curvature="0"
       id="path358"
       d="m 63.783488,289.96321 c -0.03608,-0.032 -0.723253,-0.10477 -1.527061,-0.16167 -6.270057,-0.44389 -12.668826,-5.79152 -14.805799,-12.37362 -1.067677,-3.28855 -1.070908,-7.75399 -0.0079,-10.9165 1.866996,-5.55443 6.198342,-9.97682 11.631317,-11.87581 1.527602,-0.53394 2.088607,-0.61725 5.0374,-0.74804 1.442845,-0.064 2.729303,-0.0207 4.006871,0.13483 2.766402,0.33678 2.604717,0.012 2.604717,5.23244 v 4.16281 h 7.248418 7.248419 l 0.386391,0.3864 c 0.212515,0.21251 0.386392,0.5404 0.386392,0.72863 0,0.23221 -1.095726,1.4764 -3.408165,3.86996 l -3.408167,3.52771 0.455507,0.50557 c 0.250529,0.27806 1.784205,1.85898 3.408167,3.51316 3.205019,3.26464 3.332231,3.47486 2.566266,4.24083 l -0.386391,0.38639 h -7.248419 -7.248418 v 3.97915 c 0,4.33445 -0.03498,4.52042 -0.913062,4.85427 -0.867739,0.32991 -5.770981,0.78024 -6.026481,0.55349 z m 3.800585,-10.78418 c 1.565246,-0.59832 1.421028,0.153 1.420019,-7.3978 -6.3e-4,-4.49651 -0.05562,-6.73018 -0.169154,-6.86697 -0.284524,-0.34284 -1.646005,-0.85309 -2.807811,-1.05232 -2.460989,-0.42201 -5.040832,0.45967 -6.77764,2.31633 -1.52446,1.62965 -2.221888,3.36636 -2.221888,5.53287 0,2.20656 0.751794,3.98997 2.344033,5.56051 1.798602,1.77409 3.380294,2.39698 5.841742,2.30053 1.027973,-0.0403 1.769083,-0.16318 2.370699,-0.39315 z m 50.101987,10.68845 c -2.1722,-0.19261 -3.46671,-0.70114 -4.8176,-1.89251 -0.89098,-0.78577 -1.89072,-2.72048 -2.15023,-4.16114 -0.10894,-0.60479 -0.16729,-4.76681 -0.16552,-11.80641 0.002,-8.75576 0.046,-11.07653 0.22504,-11.92123 0.63322,-2.98765 2.51114,-4.92153 5.54073,-5.70584 1.33544,-0.34572 6.20636,-0.35185 7.53966,-0.009 2.6254,0.67416 4.80987,2.6538 5.20589,4.71777 0.0665,0.34632 0.14803,5.87172 0.1813,12.27866 0.068,13.08795 0.034,13.68907 -0.85902,15.2186 -0.94503,1.61856 -2.81921,2.84486 -4.76908,3.12048 -1.56777,0.2216 -4.38571,0.29814 -5.93117,0.1611 z m 3.46011,-6.91866 c 0.22286,-0.0847 0.45878,-0.3593 0.56122,-0.65317 0.12334,-0.3538 0.17673,-3.45029 0.17673,-10.24851 0,-11.01355 0.0326,-10.68526 -1.09235,-10.98819 -0.76134,-0.20501 -1.61533,-0.0762 -2.10084,0.31683 l -0.34873,0.28231 -0.048,9.97072 c -0.0319,6.63115 0.007,10.16022 0.11704,10.53652 0.094,0.32212 0.31806,0.63957 0.52029,0.73708 0.44407,0.21412 1.70411,0.24053 2.21467,0.0464 z m -105.579857,6.46344 c -0.23163,-0.25595 -1.204081,-2.76883 -2.1401,-5.53017 -0.161416,-0.47619 -0.513388,-1.48505 -0.782159,-2.2419 -0.268771,-0.75686 -0.693399,-1.96111 -0.943617,-2.67612 -0.250219,-0.71501 -0.786646,-2.22092 -1.192061,-3.34646 -0.405414,-1.12555 -0.7924964,-2.22354 -0.8601817,-2.43999 -0.067685,-0.21645 -1.4362291,-4.11257 -3.0412083,-8.65803 -1.6049793,-4.54547 -2.9707834,-8.54784 -3.0351204,-8.89416 -0.1740651,-0.93698 -0.1366897,-1.51192 0.1083757,-1.66711 0.1201889,-0.0761 2.2020016,-0.13722 4.6262505,-0.13579 3.4478662,0.002 4.4685532,0.0487 4.6870492,0.21452 0.282787,0.21456 0.496562,0.7929 1.343562,3.63482 0.9633,3.23214 2.276832,7.59472 2.630552,8.73674 0.201124,0.64935 0.73907,2.43802 1.195434,3.97482 0.456364,1.5368 0.884683,2.79419 0.951819,2.79419 0.06714,0 0.306383,-0.61984 0.531655,-1.37742 0.225274,-0.75757 0.539673,-1.80244 0.698664,-2.32192 0.158991,-0.51949 0.542692,-1.79458 0.852667,-2.83354 3.251812,-10.89929 3.730352,-12.41228 3.987577,-12.60744 0.218775,-0.16598 1.241471,-0.21327 4.697063,-0.21718 4.231591,-0.005 4.431888,0.008 4.761918,0.31596 0.189486,0.17653 0.34452,0.44332 0.34452,0.59285 0,0.14954 -0.357674,1.26249 -0.794831,2.47322 -0.437157,1.21073 -0.962576,2.69719 -1.1676,3.30326 -0.205022,0.60606 -0.51648,1.49154 -0.692126,1.96773 -0.175648,0.47619 -0.530897,1.46793 -0.789443,2.20386 -6.412176,18.25181 -8.593419,24.38446 -8.77648,24.67539 -0.219761,0.34927 -0.269524,0.3542 -3.579337,0.3542 -3.078604,0 -3.378528,-0.0244 -3.622842,-0.29433 z m 20.31286,0.006 c -0.239114,-0.26422 -0.260526,-1.71772 -0.260526,-17.68521 0,-16.65434 0.01229,-17.40846 0.287878,-17.65786 0.253175,-0.22912 0.798751,-0.25993 4.525789,-0.25552 3.531525,0.004 4.290391,0.0447 4.552749,0.24288 0.310969,0.23496 0.315378,0.44822 0.358751,17.35041 0.02415,9.4119 0.0063,17.26697 -0.03959,17.45572 -0.201762,0.8292 -0.249816,0.83746 -4.871151,0.83746 -3.95943,0 -4.313638,-0.0224 -4.5539,-0.28788 z m 56.503738,-0.0664 c -0.338181,-0.19478 -0.763211,-0.55425 -0.944512,-0.79884 -0.317175,-0.42789 -0.329638,-0.62132 -0.329638,-5.11611 v -4.67141 l 0.644142,-1.33805 c 0.922991,-1.91731 1.842844,-2.99298 5.529711,-6.46638 1.799199,-1.69504 3.483786,-3.38355 3.743526,-3.75226 l 0.47226,-0.6699 v -2.59776 c 0,-2.54016 -0.008,-2.60443 -0.37163,-2.89869 -0.49477,-0.40064 -1.593341,-0.40239 -2.086164,-0.003 -0.350954,0.28419 -0.371378,0.41439 -0.453102,2.88856 -0.08148,2.46671 -0.105536,2.62112 -0.501676,3.21972 -0.627921,0.94886 -1.201746,1.15023 -3.277726,1.15023 -2.077571,0 -2.64949,-0.20117 -3.280488,-1.15386 -0.406767,-0.61415 -0.420368,-0.71129 -0.471313,-3.36653 -0.08379,-4.36724 0.356105,-5.94898 2.116335,-7.60975 1.74728,-1.64855 3.075816,-2.03755 6.958704,-2.03755 3.0661,0 4.06534,0.17597 5.58531,0.98359 1.81296,0.9633 2.95425,2.60971 3.35117,4.83433 0.25282,1.41701 0.28847,5.9627 0.0579,7.38364 -0.0894,0.55089 -0.41552,1.54263 -0.72474,2.20387 -0.53015,1.13367 -0.80306,1.4402 -4.78451,5.37384 -4.78939,4.7319 -5.026022,5.05968 -5.02878,6.96578 l -0.0015,1.06258 h 3.9069 c 3.02686,0 4.08729,0.0536 4.70774,0.23783 1.46419,0.43481 2.19947,1.73576 2.0494,3.62604 -0.0922,1.16138 -0.40757,1.80599 -1.16699,2.38539 l -0.57807,0.44104 -7.25367,0.0393 -7.253676,0.0393 -0.614875,-0.35413 z"
       style="fill:#ffffff;stroke-width:0.15741876" />
    <path
       inkscape:connector-curvature="0"
       id="path356"
       d="m 62.852368,289.85466 c -7.578924,-0.94573 -13.953007,-6.59568 -15.60336,-13.83074 -0.40881,-1.7922 -0.550674,-4.79159 -0.305832,-6.46608 0.589908,-4.03441 2.275925,-7.34392 5.263413,-10.33164 4.263662,-4.264 9.857417,-6.11207 15.654396,-5.17191 1.231161,0.19967 2.448291,0.54717 2.580194,0.73665 0.01814,0.0261 0.07127,1.99545 0.118064,4.37641 l 0.08508,4.32901 7.264225,0.0787 c 6.861248,0.0743 7.282602,0.0953 7.595456,0.37859 0.182176,0.16494 0.331229,0.43502 0.331229,0.6002 0,0.17848 -1.37299,1.70898 -3.384503,3.77277 -1.861477,1.90985 -3.384504,3.54125 -3.384504,3.62532 0,0.0841 1.489785,1.68339 3.310634,3.55403 1.820847,1.87064 3.35317,3.57066 3.405163,3.77781 0.06644,0.26473 -0.0064,0.47762 -0.245218,0.71651 -0.335891,0.33601 -0.422384,0.34076 -7.616116,0.41858 l -7.276366,0.0787 -0.07871,4.14516 c -0.07236,3.81053 -0.102393,4.16246 -0.372089,4.35946 -0.911143,0.66553 -5.017662,1.14238 -7.341155,0.85245 z m 5.115835,-10.62972 1.101931,-0.46725 0.10682,-3.30165 c 0.05875,-1.8159 0.105253,-3.4079 0.103336,-3.53777 -0.0019,-0.12987 -0.04999,-1.79458 -0.10682,-3.69934 l -0.103336,-3.46322 -0.748791,-0.35772 c -2.639431,-1.26093 -5.862107,-0.99586 -8.12241,0.66808 -1.504901,1.10785 -2.450438,2.44545 -3.007674,4.25479 -0.873507,2.83627 -0.100058,5.95348 2.000764,8.06361 1.799703,1.80768 3.386693,2.42814 6.021351,2.35415 1.417684,-0.0398 1.809707,-0.11292 2.754829,-0.51368 z m 50.106147,10.63495 c -3.80916,-0.43063 -6.0282,-2.10134 -6.99886,-5.26941 -0.26971,-0.8803 -0.28939,-1.73116 -0.28939,-12.51479 0,-10.78574 0.0196,-11.63387 0.28937,-12.50807 0.45269,-1.4671 0.9443,-2.30232 1.87103,-3.17878 1.74818,-1.65336 3.44935,-2.17045 7.12731,-2.16644 2.80237,0.003 3.85561,0.19674 5.54396,1.0195 1.7287,0.84242 3.08924,2.60561 3.49051,4.52352 0.11857,0.56676 0.17453,4.52951 0.17453,12.36078 0,10.68729 -0.021,11.60224 -0.28815,12.56573 -0.73367,2.64582 -2.64264,4.34958 -5.53635,4.94119 -1.39896,0.28602 -3.92048,0.39222 -5.38396,0.22677 z m 3.30519,-6.87075 c 0.19867,-0.12399 0.4304,-0.40741 0.51496,-0.62982 0.0959,-0.25228 0.13768,-4.21496 0.11104,-10.53531 l -0.0427,-10.13094 -0.43648,-0.43641 c -0.38683,-0.38678 -0.55203,-0.43642 -1.45254,-0.43642 -0.90056,0 -1.06568,0.0496 -1.45255,0.43648 l -0.43648,0.43648 v 10.38169 10.38169 l 0.33521,0.33521 c 0.59873,0.59873 2.05537,0.69926 2.85955,0.19735 z m -105.809896,6.20895 c -0.124068,-0.19652 -2.328954,-6.34315 -4.899746,-13.65919 -2.5707922,-7.31604 -4.8404513,-13.76234 -5.0436871,-14.32511 -2.3313227,-6.45557 -2.4638148,-7.01562 -1.7266285,-7.2985 0.1435841,-0.0551 2.1543669,-0.10018 4.4684063,-0.10018 3.1184903,0 4.2764623,0.0509 4.4744183,0.19677 0.223642,0.16478 2.995885,9.07255 5.718677,18.37526 0.410695,1.40319 0.469195,1.53202 0.624916,1.3763 0.05298,-0.053 0.938535,-2.91603 1.967906,-6.36234 1.029371,-3.44631 2.011928,-6.72647 2.183461,-7.28924 0.171533,-0.56277 0.625412,-2.07304 1.00862,-3.35616 0.383208,-1.28312 0.821452,-2.47075 0.973876,-2.63917 0.263791,-0.29149 0.489687,-0.30422 4.691679,-0.26447 l 4.414545,0.0418 0.228674,0.40755 c 0.214551,0.38238 0.150006,0.63027 -1.045185,4.01417 -0.700624,1.98365 -2.558881,7.25482 -4.129463,11.7137 -1.570582,4.45889 -3.021931,8.56752 -3.22522,9.13029 -0.203289,0.56277 -0.986533,2.79418 -1.740543,4.95869 -0.754011,2.16451 -1.521508,4.25424 -1.705549,4.64385 l -0.334621,0.70839 -3.339478,0.0425 c -3.322138,0.0422 -3.340652,0.0406 -3.565058,-0.31484 z m 20.456299,0.10621 c -0.225202,-0.2252 -0.249877,-1.96404 -0.249877,-17.60901 0,-16.61732 0.0123,-17.37026 0.287878,-17.61965 0.252323,-0.22835 0.792983,-0.26053 4.377638,-0.26053 3.283413,0 4.150007,0.044 4.39533,0.22341 0.298842,0.2185 0.306419,0.60233 0.344103,17.43413 0.03065,13.69016 -0.0025,17.29122 -0.16199,17.60426 l -0.200523,0.39355 -4.271341,0.0419 c -3.728168,0.0365 -4.303116,0.0101 -4.521218,-0.20802 z m 56.487577,-0.073 c -0.406564,-0.20124 -0.771128,-0.54795 -0.994959,-0.9462 -0.346581,-0.61666 -0.352238,-0.71131 -0.298549,-4.99512 0.05173,-4.12739 0.07468,-4.4166 0.41911,-5.28016 0.828903,-2.07828 1.563966,-2.92263 7.708707,-8.85481 0.981691,-0.94774 1.920301,-1.98598 2.085791,-2.30721 0.25582,-0.49654 0.3009,-0.92815 0.3009,-2.88071 0,-3.01332 -0.19417,-3.41444 -1.65289,-3.41444 -1.418969,0 -1.554039,0.27272 -1.652897,3.33728 -0.06663,2.06559 -0.127019,2.52201 -0.393547,2.9745 -0.586056,0.99497 -1.020807,1.1908 -2.77856,1.2516 -1.995183,0.069 -2.529312,-0.0348 -3.19721,-0.62119 -0.787766,-0.69167 -0.934639,-1.55696 -0.829929,-4.88943 0.05783,-1.84068 0.167641,-2.99261 0.337162,-3.53708 0.971432,-3.12004 3.333897,-4.62746 7.638965,-4.87422 5.143176,-0.2948 8.360066,1.33685 9.480096,4.80845 0.27285,0.84569 0.34607,1.55328 0.40811,3.94362 0.0906,3.49061 -0.0806,4.84235 -0.80743,6.3747 -0.7485,1.57807 -1.4351,2.3681 -4.76776,5.48599 -3.08722,2.88827 -4.350748,4.27056 -4.810286,5.26245 -0.370183,0.79902 -0.391496,2.94908 -0.03061,3.08757 0.136951,0.0525 2.103826,0.0956 4.370826,0.0956 4.58805,0 4.85658,0.0524 5.5627,1.08651 0.7313,1.07094 0.61507,3.43542 -0.21274,4.32819 -0.81277,0.87653 -0.86515,0.88206 -8.35119,0.88192 -6.595266,-1.1e-4 -6.919768,-0.0138 -7.533813,-0.31776 z"
       style="fill:#ffffff;stroke-width:0.15741876" />
    <path
       inkscape:connector-curvature="0"
       id="path354"
       d="m 62.852368,289.85466 c -7.578924,-0.94573 -13.953007,-6.59568 -15.60336,-13.83074 -0.40881,-1.7922 -0.550674,-4.79159 -0.305832,-6.46608 0.589908,-4.03441 2.275925,-7.34392 5.263413,-10.33164 4.263662,-4.264 9.857417,-6.11207 15.654396,-5.17191 1.231161,0.19967 2.448291,0.54717 2.580194,0.73665 0.01814,0.0261 0.07127,1.99545 0.118064,4.37641 l 0.08508,4.32901 7.264225,0.0787 c 6.861248,0.0743 7.282602,0.0953 7.595456,0.37859 0.182176,0.16494 0.331229,0.43502 0.331229,0.6002 0,0.17848 -1.37299,1.70898 -3.384503,3.77277 -1.861477,1.90985 -3.384504,3.54125 -3.384504,3.62532 0,0.0841 1.489785,1.68339 3.310634,3.55403 1.820847,1.87064 3.35317,3.57066 3.405163,3.77781 0.06644,0.26473 -0.0064,0.47762 -0.245218,0.71651 -0.335891,0.33601 -0.422384,0.34076 -7.616116,0.41858 l -7.276366,0.0787 -0.07871,4.14516 c -0.07236,3.81053 -0.102393,4.16246 -0.372089,4.35946 -0.911143,0.66553 -5.017662,1.14238 -7.341155,0.85245 z m 5.115835,-10.62972 1.101931,-0.46725 0.10682,-3.30165 c 0.05875,-1.8159 0.105253,-3.4079 0.103336,-3.53777 -0.0019,-0.12987 -0.04999,-1.79458 -0.10682,-3.69934 l -0.103336,-3.46322 -0.748791,-0.35772 c -2.639431,-1.26093 -5.862107,-0.99586 -8.12241,0.66808 -1.504901,1.10785 -2.450438,2.44545 -3.007674,4.25479 -0.873507,2.83627 -0.100058,5.95348 2.000764,8.06361 1.799703,1.80768 3.386693,2.42814 6.021351,2.35415 1.417684,-0.0398 1.809707,-0.11292 2.754829,-0.51368 z m -15.179808,-3.05915 2.901144,-3.30859 0.08909,-1.53204 c 0.112581,-1.93593 0.565347,-3.31481 1.592922,-4.85116 1.469858,-2.19762 3.767234,-3.61382 6.372697,-3.92839 0.504987,-0.061 0.996071,-0.15535 1.091298,-0.20973 0.332865,-0.19008 4.33947,-4.82471 4.483149,-5.18587 0.210801,-0.52989 0.177493,-1.38034 -0.06184,-1.57897 -0.113752,-0.0944 -0.875265,-0.28842 -1.692251,-0.43113 -4.937525,-0.86248 -10.468916,0.9043 -14.29838,4.56704 -4.576275,4.37705 -6.336553,10.44976 -4.794497,16.54033 0.279856,1.10533 1.135271,3.22709 1.301046,3.22709 0.06296,0 1.419993,-1.48886 3.015622,-3.30858 z m 65.285955,13.6941 c -3.80916,-0.43063 -6.0282,-2.10134 -6.99886,-5.26941 -0.26971,-0.8803 -0.28939,-1.73116 -0.28939,-12.51479 0,-10.78574 0.0196,-11.63387 0.28937,-12.50807 0.45269,-1.4671 0.9443,-2.30232 1.87103,-3.17878 1.74818,-1.65336 3.44935,-2.17045 7.12731,-2.16644 2.80237,0.003 3.85561,0.19674 5.54396,1.0195 1.7287,0.84242 3.08924,2.60561 3.49051,4.52352 0.11857,0.56676 0.17453,4.52951 0.17453,12.36078 0,10.68729 -0.021,11.60224 -0.28815,12.56573 -0.73367,2.64582 -2.64264,4.34958 -5.53635,4.94119 -1.39896,0.28602 -3.92048,0.39222 -5.38396,0.22677 z m 3.30519,-6.87075 c 0.19867,-0.12399 0.4304,-0.40741 0.51496,-0.62982 0.0959,-0.25228 0.13768,-4.21496 0.11104,-10.53531 l -0.0427,-10.13094 -0.43648,-0.43641 c -0.38683,-0.38678 -0.55203,-0.43642 -1.45254,-0.43642 -0.90056,0 -1.06568,0.0496 -1.45255,0.43648 l -0.43648,0.43648 v 10.38169 10.38169 l 0.33521,0.33521 c 0.59873,0.59873 2.05537,0.69926 2.85955,0.19735 z m -105.809896,6.20895 c -0.124068,-0.19652 -2.328954,-6.34315 -4.899746,-13.65919 -2.5707922,-7.31604 -4.8404513,-13.76234 -5.0436871,-14.32511 -2.3313227,-6.45557 -2.4638148,-7.01562 -1.7266285,-7.2985 0.1435841,-0.0551 2.1543669,-0.10018 4.4684063,-0.10018 3.1184903,0 4.2764623,0.0509 4.4744183,0.19677 0.223642,0.16478 2.995885,9.07255 5.718677,18.37526 0.410695,1.40319 0.469195,1.53202 0.624916,1.3763 0.05298,-0.053 0.938535,-2.91603 1.967906,-6.36234 1.029371,-3.44631 2.011928,-6.72647 2.183461,-7.28924 0.171533,-0.56277 0.625412,-2.07304 1.00862,-3.35616 0.383208,-1.28312 0.821452,-2.47075 0.973876,-2.63917 0.263791,-0.29149 0.489687,-0.30422 4.691679,-0.26447 l 4.414545,0.0418 0.228674,0.40755 c 0.214551,0.38238 0.150006,0.63027 -1.045185,4.01417 -0.700624,1.98365 -2.558881,7.25482 -4.129463,11.7137 -1.570582,4.45889 -3.021931,8.56752 -3.22522,9.13029 -0.203289,0.56277 -0.986533,2.79418 -1.740543,4.95869 -0.754011,2.16451 -1.521508,4.25424 -1.705549,4.64385 l -0.334621,0.70839 -3.339478,0.0425 c -3.322138,0.0422 -3.340652,0.0406 -3.565058,-0.31484 z m 20.456299,0.10621 c -0.225202,-0.2252 -0.249877,-1.96404 -0.249877,-17.60901 0,-16.61732 0.0123,-17.37026 0.287878,-17.61965 0.252323,-0.22835 0.792983,-0.26053 4.377638,-0.26053 3.283413,0 4.150007,0.044 4.39533,0.22341 0.298842,0.2185 0.306419,0.60233 0.344103,17.43413 0.03065,13.69016 -0.0025,17.29122 -0.16199,17.60426 l -0.200523,0.39355 -4.271341,0.0419 c -3.728168,0.0365 -4.303116,0.0101 -4.521218,-0.20802 z m 6.080745,-1.05384 c 0.138307,-0.10822 0.647714,-0.6567 1.132019,-1.21883 l 0.880553,-1.02207 v -9.10521 c 0,-5.00786 -0.06021,-9.08159 -0.133809,-9.05273 -0.199122,0.0781 -6.878671,7.73205 -7.086361,8.12012 -0.195332,0.36498 -0.265585,12.17853 -0.07356,12.37055 0.202092,0.20209 5.012438,0.11845 5.281163,-0.0918 z m 50.406832,0.98082 c -0.406564,-0.20124 -0.771128,-0.54795 -0.994959,-0.9462 -0.346581,-0.61666 -0.352238,-0.71131 -0.298549,-4.99512 0.05173,-4.12739 0.07468,-4.4166 0.41911,-5.28016 0.828903,-2.07828 1.563966,-2.92263 7.708707,-8.85481 0.981691,-0.94774 1.920301,-1.98598 2.085791,-2.30721 0.25582,-0.49654 0.3009,-0.92815 0.3009,-2.88071 0,-3.01332 -0.19417,-3.41444 -1.65289,-3.41444 -1.418969,0 -1.554039,0.27272 -1.652897,3.33728 -0.06663,2.06559 -0.127019,2.52201 -0.393547,2.9745 -0.586056,0.99497 -1.020807,1.1908 -2.77856,1.2516 -1.995183,0.069 -2.529312,-0.0348 -3.19721,-0.62119 -0.787766,-0.69167 -0.934639,-1.55696 -0.829929,-4.88943 0.05783,-1.84068 0.167641,-2.99261 0.337162,-3.53708 0.971432,-3.12004 3.333897,-4.62746 7.638965,-4.87422 5.143176,-0.2948 8.360066,1.33685 9.480096,4.80845 0.27285,0.84569 0.34607,1.55328 0.40811,3.94362 0.0906,3.49061 -0.0806,4.84235 -0.80743,6.3747 -0.7485,1.57807 -1.4351,2.3681 -4.76776,5.48599 -3.08722,2.88827 -4.350748,4.27056 -4.810286,5.26245 -0.370183,0.79902 -0.391496,2.94908 -0.03061,3.08757 0.136951,0.0525 2.103826,0.0956 4.370826,0.0956 4.58805,0 4.85658,0.0524 5.5627,1.08651 0.7313,1.07094 0.61507,3.43542 -0.21274,4.32819 -0.81277,0.87653 -0.86515,0.88206 -8.35119,0.88192 -6.595266,-1.1e-4 -6.919768,-0.0138 -7.533813,-0.31776 z"
       style="fill:#ffffff;stroke-width:0.15741876" />
    <path
       inkscape:connector-curvature="0"
       id="path352"
       d="m 62.852368,289.85466 c -7.578924,-0.94573 -13.953007,-6.59568 -15.60336,-13.83074 -0.40881,-1.7922 -0.550674,-4.79159 -0.305832,-6.46608 0.589908,-4.03441 2.275925,-7.34392 5.263413,-10.33164 4.263662,-4.264 9.857417,-6.11207 15.654396,-5.17191 1.231161,0.19967 2.448291,0.54717 2.580194,0.73665 0.01814,0.0261 0.07127,1.99545 0.118064,4.37641 l 0.08508,4.32901 7.264225,0.0787 c 6.861248,0.0743 7.282602,0.0953 7.595456,0.37859 0.182176,0.16494 0.331229,0.43502 0.331229,0.6002 0,0.17848 -1.37299,1.70898 -3.384503,3.77277 -1.861477,1.90985 -3.384504,3.54125 -3.384504,3.62532 0,0.0841 1.489785,1.68339 3.310634,3.55403 1.820847,1.87064 3.35317,3.57066 3.405163,3.77781 0.06644,0.26473 -0.0064,0.47762 -0.245218,0.71651 -0.335891,0.33601 -0.422384,0.34076 -7.616116,0.41858 l -7.276366,0.0787 -0.07871,4.14516 c -0.07236,3.81053 -0.102393,4.16246 -0.372089,4.35946 -0.911143,0.66553 -5.017662,1.14238 -7.341155,0.85245 z m 5.115835,-10.62972 1.101931,-0.46725 0.10682,-3.30165 c 0.05875,-1.8159 0.105253,-3.4079 0.103336,-3.53777 -0.0019,-0.12987 -0.04999,-1.79458 -0.10682,-3.69934 l -0.103336,-3.46322 -0.748791,-0.35772 c -2.639431,-1.26093 -5.862107,-0.99586 -8.12241,0.66808 -1.504901,1.10785 -2.450438,2.44545 -3.007674,4.25479 -0.873507,2.83627 -0.100058,5.95348 2.000764,8.06361 1.799703,1.80768 3.386693,2.42814 6.021351,2.35415 1.417684,-0.0398 1.809707,-0.11292 2.754829,-0.51368 z m -15.507129,-2.68529 c 1.418024,-1.6141 2.759948,-3.15058 2.982054,-3.4144 0.350855,-0.41675 0.416496,-0.6771 0.50038,-1.98462 0.15611,-2.4333 0.987437,-4.27853 2.707481,-6.00955 1.192139,-1.19974 2.985253,-2.09767 4.801354,-2.40434 0.71975,-0.12154 1.332936,-0.24603 1.362636,-0.27665 0.0297,-0.0306 1.023763,-1.15365 2.209031,-2.49565 2.199168,-2.48997 2.594072,-3.08384 2.512277,-3.77805 -0.0255,-0.21645 -0.05227,-0.47642 -0.05949,-0.5777 -0.0072,-0.10129 -0.491278,-0.29191 -1.075695,-0.42362 -5.344406,-1.20441 -11.36741,0.59135 -15.410201,4.59455 -4.442263,4.39876 -6.140454,10.35395 -4.676354,16.39895 0.330625,1.36509 1.139194,3.3058 1.377315,3.3058 0.105042,0 1.351187,-1.32063 2.76921,-2.93472 z m 65.613276,13.32024 c -3.80916,-0.43063 -6.0282,-2.10134 -6.99886,-5.26941 -0.26971,-0.8803 -0.28939,-1.73116 -0.28939,-12.51479 0,-10.78574 0.0196,-11.63387 0.28937,-12.50807 0.45269,-1.4671 0.9443,-2.30232 1.87103,-3.17878 1.74818,-1.65336 3.44935,-2.17045 7.12731,-2.16644 2.80237,0.003 3.85561,0.19674 5.54396,1.0195 1.7287,0.84242 3.08924,2.60561 3.49051,4.52352 0.11857,0.56676 0.17453,4.52951 0.17453,12.36078 0,10.68729 -0.021,11.60224 -0.28815,12.56573 -0.73367,2.64582 -2.64264,4.34958 -5.53635,4.94119 -1.39896,0.28602 -3.92048,0.39222 -5.38396,0.22677 z m 3.30519,-6.87075 c 0.19867,-0.12399 0.4304,-0.40741 0.51496,-0.62982 0.0959,-0.25228 0.13768,-4.21496 0.11104,-10.53531 l -0.0427,-10.13094 -0.43648,-0.43641 c -0.38683,-0.38678 -0.55203,-0.43642 -1.45254,-0.43642 -0.90056,0 -1.06568,0.0496 -1.45255,0.43648 l -0.43648,0.43648 v 10.38169 10.38169 l 0.33521,0.33521 c 0.59873,0.59873 2.05537,0.69926 2.85955,0.19735 z m -105.809896,6.20895 c -0.124068,-0.19652 -2.328954,-6.34315 -4.899746,-13.65919 -2.5707922,-7.31604 -4.8404513,-13.76234 -5.0436871,-14.32511 -2.3313227,-6.45557 -2.4638148,-7.01562 -1.7266285,-7.2985 0.1435841,-0.0551 2.1543669,-0.10018 4.4684063,-0.10018 3.1184903,0 4.2764623,0.0509 4.4744183,0.19677 0.223642,0.16478 2.995885,9.07255 5.718677,18.37526 0.410695,1.40319 0.469195,1.53202 0.624916,1.3763 0.05298,-0.053 0.938535,-2.91603 1.967906,-6.36234 1.029371,-3.44631 2.011928,-6.72647 2.183461,-7.28924 0.171533,-0.56277 0.625412,-2.07304 1.00862,-3.35616 0.383208,-1.28312 0.821452,-2.47075 0.973876,-2.63917 0.263791,-0.29149 0.489687,-0.30422 4.691679,-0.26447 l 4.414545,0.0418 0.228674,0.40755 c 0.214551,0.38238 0.150006,0.63027 -1.045185,4.01417 -0.700624,1.98365 -2.558881,7.25482 -4.129463,11.7137 -1.570582,4.45889 -3.021931,8.56752 -3.22522,9.13029 -0.203289,0.56277 -0.986533,2.79418 -1.740543,4.95869 -0.754011,2.16451 -1.521508,4.25424 -1.705549,4.64385 l -0.334621,0.70839 -3.339478,0.0425 c -3.322138,0.0422 -3.340652,0.0406 -3.565058,-0.31484 z m 7.487785,-3.82052 c 0.581882,-1.64503 1.409004,-3.98269 1.838047,-5.19482 0.429045,-1.21212 1.716068,-4.8603 2.860053,-8.10706 1.143985,-3.24677 2.117376,-6.00142 2.163092,-6.12146 0.04572,-0.12004 0.01168,-0.19088 -0.07564,-0.15742 -0.08732,0.0335 -2.468188,2.71728 -5.290818,5.96404 -2.822632,3.24676 -5.376647,6.15114 -5.675592,6.45417 -1.32371,1.3418 -4.352035,4.94898 -4.352035,5.18391 0,0.21786 0.981097,3.12683 1.557824,4.61897 l 0.168697,0.43646 2.874204,-0.0429 2.874204,-0.0429 z m 12.968514,3.92673 c -0.225202,-0.2252 -0.249877,-1.96404 -0.249877,-17.60901 0,-16.61732 0.0123,-17.37026 0.287878,-17.61965 0.252323,-0.22835 0.792983,-0.26053 4.377638,-0.26053 3.283413,0 4.150007,0.044 4.39533,0.22341 0.298842,0.2185 0.306419,0.60233 0.344103,17.43413 0.03065,13.69016 -0.0025,17.29122 -0.16199,17.60426 l -0.200523,0.39355 -4.271341,0.0419 c -3.728168,0.0365 -4.303116,0.0101 -4.521218,-0.20802 z m 6.406191,-1.36867 c 0.344187,-0.36797 0.900361,-1.01232 1.235942,-1.43189 l 0.610149,-0.76285 -0.04013,-15.37257 -0.04013,-15.37257 -2.457214,-0.0432 -2.457216,-0.0432 -1.163416,1.35448 c -0.63988,0.74497 -1.216943,1.44952 -1.282365,1.56568 -0.13807,0.24514 -0.170698,30.40386 -0.03314,30.62644 0.05138,0.0831 1.175038,0.14879 2.546836,0.14879 h 2.454881 z m 50.081386,1.29565 c -0.406564,-0.20124 -0.771128,-0.54795 -0.994959,-0.9462 -0.346581,-0.61666 -0.352238,-0.71131 -0.298549,-4.99512 0.05173,-4.12739 0.07468,-4.4166 0.41911,-5.28016 0.828903,-2.07828 1.563966,-2.92263 7.708707,-8.85481 0.981691,-0.94774 1.920301,-1.98598 2.085791,-2.30721 0.25582,-0.49654 0.3009,-0.92815 0.3009,-2.88071 0,-3.01332 -0.19417,-3.41444 -1.65289,-3.41444 -1.418969,0 -1.554039,0.27272 -1.652897,3.33728 -0.06663,2.06559 -0.127019,2.52201 -0.393547,2.9745 -0.586056,0.99497 -1.020807,1.1908 -2.77856,1.2516 -1.995183,0.069 -2.529312,-0.0348 -3.19721,-0.62119 -0.787766,-0.69167 -0.934639,-1.55696 -0.829929,-4.88943 0.05783,-1.84068 0.167641,-2.99261 0.337162,-3.53708 0.971432,-3.12004 3.333897,-4.62746 7.638965,-4.87422 5.143176,-0.2948 8.360066,1.33685 9.480096,4.80845 0.27285,0.84569 0.34607,1.55328 0.40811,3.94362 0.0906,3.49061 -0.0806,4.84235 -0.80743,6.3747 -0.7485,1.57807 -1.4351,2.3681 -4.76776,5.48599 -3.08722,2.88827 -4.350748,4.27056 -4.810286,5.26245 -0.370183,0.79902 -0.391496,2.94908 -0.03061,3.08757 0.136951,0.0525 2.103826,0.0956 4.370826,0.0956 4.58805,0 4.85658,0.0524 5.5627,1.08651 0.7313,1.07094 0.61507,3.43542 -0.21274,4.32819 -0.81277,0.87653 -0.86515,0.88206 -8.35119,0.88192 -6.595266,-1.1e-4 -6.919768,-0.0138 -7.533813,-0.31776 z"
       style="fill:#ffffff;stroke-width:0.15741876" />
    <path
       inkscape:connector-curvature="0"
       id="path350"
       d="m 62.852368,289.85466 c -7.578924,-0.94573 -13.953007,-6.59568 -15.60336,-13.83074 -0.40881,-1.7922 -0.550674,-4.79159 -0.305832,-6.46608 0.589908,-4.03441 2.275925,-7.34392 5.263413,-10.33164 4.263662,-4.264 9.857417,-6.11207 15.654396,-5.17191 1.231161,0.19967 2.448291,0.54717 2.580194,0.73665 0.01814,0.0261 0.07127,1.99545 0.118064,4.37641 l 0.08508,4.32901 7.264225,0.0787 c 6.861248,0.0743 7.282602,0.0953 7.595456,0.37859 0.182176,0.16494 0.331229,0.43502 0.331229,0.6002 0,0.17848 -1.37299,1.70898 -3.384503,3.77277 -1.861477,1.90985 -3.384504,3.54125 -3.384504,3.62532 0,0.0841 1.489785,1.68339 3.310634,3.55403 1.820847,1.87064 3.35317,3.57066 3.405163,3.77781 0.06644,0.26473 -0.0064,0.47762 -0.245218,0.71651 -0.335891,0.33601 -0.422384,0.34076 -7.616116,0.41858 l -7.276366,0.0787 -0.07871,4.14516 c -0.07236,3.81053 -0.102393,4.16246 -0.372089,4.35946 -0.911143,0.66553 -5.017662,1.14238 -7.341155,0.85245 z m 5.115835,-10.62972 1.101931,-0.46725 0.10682,-3.30165 c 0.05875,-1.8159 0.105253,-3.4079 0.103336,-3.53777 -0.0019,-0.12987 -0.04999,-1.79458 -0.10682,-3.69934 l -0.103336,-3.46322 -0.748791,-0.35772 c -2.639431,-1.26093 -5.862107,-0.99586 -8.12241,0.66808 -1.504901,1.10785 -2.450438,2.44545 -3.007674,4.25479 -0.873507,2.83627 -0.100058,5.95348 2.000764,8.06361 1.799703,1.80768 3.386693,2.42814 6.021351,2.35415 1.417684,-0.0398 1.809707,-0.11292 2.754829,-0.51368 z m -15.507129,-2.68529 c 1.418024,-1.6141 2.759948,-3.15058 2.982054,-3.4144 0.350855,-0.41675 0.416496,-0.6771 0.50038,-1.98462 0.15611,-2.4333 0.987437,-4.27853 2.707481,-6.00955 1.192139,-1.19974 2.985253,-2.09767 4.801354,-2.40434 0.71975,-0.12154 1.332936,-0.24603 1.362636,-0.27665 0.0297,-0.0306 1.023763,-1.15365 2.209031,-2.49565 2.199168,-2.48997 2.594072,-3.08384 2.512277,-3.77805 -0.0255,-0.21645 -0.05227,-0.47642 -0.05949,-0.5777 -0.0072,-0.10129 -0.491278,-0.29191 -1.075695,-0.42362 -5.344406,-1.20441 -11.36741,0.59135 -15.410201,4.59455 -4.442263,4.39876 -6.140454,10.35395 -4.676354,16.39895 0.330625,1.36509 1.139194,3.3058 1.377315,3.3058 0.105042,0 1.351187,-1.32063 2.76921,-2.93472 z m 65.613276,13.32024 c -3.80916,-0.43063 -6.0282,-2.10134 -6.99886,-5.26941 -0.26971,-0.8803 -0.28939,-1.73116 -0.28939,-12.51479 0,-10.78574 0.0196,-11.63387 0.28937,-12.50807 0.45269,-1.4671 0.9443,-2.30232 1.87103,-3.17878 1.74818,-1.65336 3.44935,-2.17045 7.12731,-2.16644 2.80237,0.003 3.85561,0.19674 5.54396,1.0195 1.7287,0.84242 3.08924,2.60561 3.49051,4.52352 0.11857,0.56676 0.17453,4.52951 0.17453,12.36078 0,10.68729 -0.021,11.60224 -0.28815,12.56573 -0.73367,2.64582 -2.64264,4.34958 -5.53635,4.94119 -1.39896,0.28602 -3.92048,0.39222 -5.38396,0.22677 z m 3.30519,-6.87075 c 0.19867,-0.12399 0.4304,-0.40741 0.51496,-0.62982 0.0959,-0.25228 0.13768,-4.21496 0.11104,-10.53531 l -0.0427,-10.13094 -0.43648,-0.43641 c -0.38683,-0.38678 -0.55203,-0.43642 -1.45254,-0.43642 -0.90056,0 -1.06568,0.0496 -1.45255,0.43648 l -0.43648,0.43648 v 10.38169 10.38169 l 0.33521,0.33521 c 0.59873,0.59873 2.05537,0.69926 2.85955,0.19735 z m -105.809896,6.20895 c -0.124068,-0.19652 -2.328954,-6.34315 -4.899746,-13.65919 -2.5707922,-7.31604 -4.8404513,-13.76234 -5.0436871,-14.32511 -2.3313227,-6.45557 -2.4638148,-7.01562 -1.7266285,-7.2985 0.1435841,-0.0551 2.1543669,-0.10018 4.4684063,-0.10018 3.1184903,0 4.2764623,0.0509 4.4744183,0.19677 0.223642,0.16478 2.995885,9.07255 5.718677,18.37526 0.410695,1.40319 0.469195,1.53202 0.624916,1.3763 0.05298,-0.053 0.938535,-2.91603 1.967906,-6.36234 1.029371,-3.44631 2.011928,-6.72647 2.183461,-7.28924 0.171533,-0.56277 0.625412,-2.07304 1.00862,-3.35616 0.383208,-1.28312 0.821452,-2.47075 0.973876,-2.63917 0.263791,-0.29149 0.489687,-0.30422 4.691679,-0.26447 l 4.414545,0.0418 0.228674,0.40755 c 0.214551,0.38238 0.150006,0.63027 -1.045185,4.01417 -0.700624,1.98365 -2.558881,7.25482 -4.129463,11.7137 -1.570582,4.45889 -3.021931,8.56752 -3.22522,9.13029 -0.203289,0.56277 -0.986533,2.79418 -1.740543,4.95869 -0.754011,2.16451 -1.521508,4.25424 -1.705549,4.64385 l -0.334621,0.70839 -3.339478,0.0425 c -3.322138,0.0422 -3.340652,0.0406 -3.565058,-0.31484 z m 7.487785,-3.82052 c 0.581882,-1.64503 1.409004,-3.98269 1.838047,-5.19482 0.429045,-1.21212 1.716068,-4.8603 2.860053,-8.10706 1.143985,-3.24677 2.117376,-6.00142 2.163092,-6.12146 0.04572,-0.12004 0.01168,-0.19088 -0.07564,-0.15742 -0.08732,0.0335 -2.468188,2.71728 -5.290818,5.96404 -2.822632,3.24676 -5.376647,6.15114 -5.675592,6.45417 -1.32371,1.3418 -4.352035,4.94898 -4.352035,5.18391 0,0.21786 0.981097,3.12683 1.557824,4.61897 l 0.168697,0.43646 2.874204,-0.0429 2.874204,-0.0429 z m -6.426595,-4.88988 c 1.488811,-1.70122 2.144005,-2.56637 2.144005,-2.83103 0,-1.36481 -3.203756,-12.74353 -3.588027,-12.74353 -0.264651,0 -5.2605545,5.74689 -5.180113,5.95879 0.08928,0.23517 3.702648,10.52322 4.00273,11.39663 0.126424,0.36797 0.285558,0.66903 0.353631,0.66903 0.06807,0 1.088571,-1.10245 2.267774,-2.44989 z m 8.422555,-9.57186 5.255326,-6.01743 1.710454,-4.86056 c 0.940749,-2.67331 1.710453,-4.92034 1.710453,-4.99339 0,-0.073 -1.779841,-0.11389 -3.955202,-0.0908 l -3.955203,0.0421 -2.662822,8.89416 c -3.140472,10.48958 -3.834495,13.0827 -3.493917,13.05455 0.07457,-0.006 2.500481,-2.71904 5.390911,-6.02863 z m 10.972554,18.38847 c -0.225202,-0.2252 -0.249877,-1.96404 -0.249877,-17.60901 0,-16.61732 0.0123,-17.37026 0.287878,-17.61965 0.252323,-0.22835 0.792983,-0.26053 4.377638,-0.26053 3.283413,0 4.150007,0.044 4.39533,0.22341 0.298842,0.2185 0.306419,0.60233 0.344103,17.43413 0.03065,13.69016 -0.0025,17.29122 -0.16199,17.60426 l -0.200523,0.39355 -4.271341,0.0419 c -3.728168,0.0365 -4.303116,0.0101 -4.521218,-0.20802 z m 6.406191,-1.36867 c 0.344187,-0.36797 0.900361,-1.01232 1.235942,-1.43189 l 0.610149,-0.76285 -0.04013,-15.37257 -0.04013,-15.37257 -2.457214,-0.0432 -2.457216,-0.0432 -1.163416,1.35448 c -0.63988,0.74497 -1.216943,1.44952 -1.282365,1.56568 -0.13807,0.24514 -0.170698,30.40386 -0.03314,30.62644 0.05138,0.0831 1.175038,0.14879 2.546836,0.14879 h 2.454881 z m -3.513096,-32.90052 c 0.003,-0.0649 -0.490466,-0.11807 -1.096528,-0.11807 h -1.101932 l 0.0054,1.29871 0.0054,1.2987 1.091133,-1.18064 c 0.600119,-0.64935 1.093556,-1.23377 1.096528,-1.2987 z m 53.594482,34.19617 c -0.406564,-0.20124 -0.771128,-0.54795 -0.994959,-0.9462 -0.346581,-0.61666 -0.352238,-0.71131 -0.298549,-4.99512 0.05173,-4.12739 0.07468,-4.4166 0.41911,-5.28016 0.828903,-2.07828 1.563966,-2.92263 7.708707,-8.85481 0.981691,-0.94774 1.920301,-1.98598 2.085791,-2.30721 0.25582,-0.49654 0.3009,-0.92815 0.3009,-2.88071 0,-3.01332 -0.19417,-3.41444 -1.65289,-3.41444 -1.418969,0 -1.554039,0.27272 -1.652897,3.33728 -0.06663,2.06559 -0.127019,2.52201 -0.393547,2.9745 -0.586056,0.99497 -1.020807,1.1908 -2.77856,1.2516 -1.995183,0.069 -2.529312,-0.0348 -3.19721,-0.62119 -0.787766,-0.69167 -0.934639,-1.55696 -0.829929,-4.88943 0.05783,-1.84068 0.167641,-2.99261 0.337162,-3.53708 0.971432,-3.12004 3.333897,-4.62746 7.638965,-4.87422 5.143176,-0.2948 8.360066,1.33685 9.480096,4.80845 0.27285,0.84569 0.34607,1.55328 0.40811,3.94362 0.0906,3.49061 -0.0806,4.84235 -0.80743,6.3747 -0.7485,1.57807 -1.4351,2.3681 -4.76776,5.48599 -3.08722,2.88827 -4.350748,4.27056 -4.810286,5.26245 -0.370183,0.79902 -0.391496,2.94908 -0.03061,3.08757 0.136951,0.0525 2.103826,0.0956 4.370826,0.0956 4.58805,0 4.85658,0.0524 5.5627,1.08651 0.7313,1.07094 0.61507,3.43542 -0.21274,4.32819 -0.81277,0.87653 -0.86515,0.88206 -8.35119,0.88192 -6.595266,-1.1e-4 -6.919768,-0.0138 -7.533813,-0.31776 z"
       style="fill:#ffffff;stroke-width:0.15741876" />
    <path
       inkscape:connector-curvature="0"
       id="path348"
       d="m 62.852368,289.85466 c -7.578924,-0.94573 -13.953007,-6.59568 -15.60336,-13.83074 -0.40881,-1.7922 -0.550674,-4.79159 -0.305832,-6.46608 0.589908,-4.03441 2.275925,-7.34392 5.263413,-10.33164 4.263662,-4.264 9.857417,-6.11207 15.654396,-5.17191 1.231161,0.19967 2.448291,0.54717 2.580194,0.73665 0.01814,0.0261 0.07127,1.99545 0.118064,4.37641 l 0.08508,4.32901 7.264225,0.0787 c 6.861248,0.0743 7.282602,0.0953 7.595456,0.37859 0.182176,0.16494 0.331229,0.43502 0.331229,0.6002 0,0.17848 -1.37299,1.70898 -3.384503,3.77277 -1.861477,1.90985 -3.384504,3.54125 -3.384504,3.62532 0,0.0841 1.489785,1.68339 3.310634,3.55403 1.820847,1.87064 3.35317,3.57066 3.405163,3.77781 0.06644,0.26473 -0.0064,0.47762 -0.245218,0.71651 -0.335891,0.33601 -0.422384,0.34076 -7.616116,0.41858 l -7.276366,0.0787 -0.07871,4.14516 c -0.07236,3.81053 -0.102393,4.16246 -0.372089,4.35946 -0.911143,0.66553 -5.017662,1.14238 -7.341155,0.85245 z m 5.115835,-10.62972 1.101931,-0.46725 0.10682,-3.30165 c 0.05875,-1.8159 0.105253,-3.4079 0.103336,-3.53777 -0.0019,-0.12987 -0.04999,-1.79458 -0.10682,-3.69934 l -0.103336,-3.46322 -0.748791,-0.35772 c -2.639431,-1.26093 -5.862107,-0.99586 -8.12241,0.66808 -1.504901,1.10785 -2.450438,2.44545 -3.007674,4.25479 -0.873507,2.83627 -0.100058,5.95348 2.000764,8.06361 1.799703,1.80768 3.386693,2.42814 6.021351,2.35415 1.417684,-0.0398 1.809707,-0.11292 2.754829,-0.51368 z m -15.507129,-2.68529 c 1.418024,-1.6141 2.759948,-3.15058 2.982054,-3.4144 0.350855,-0.41675 0.416496,-0.6771 0.50038,-1.98462 0.15611,-2.4333 0.987437,-4.27853 2.707481,-6.00955 1.192139,-1.19974 2.985253,-2.09767 4.801354,-2.40434 0.71975,-0.12154 1.332936,-0.24603 1.362636,-0.27665 0.0297,-0.0306 1.023763,-1.15365 2.209031,-2.49565 2.199168,-2.48997 2.594072,-3.08384 2.512277,-3.77805 -0.0255,-0.21645 -0.05227,-0.47642 -0.05949,-0.5777 -0.0072,-0.10129 -0.491278,-0.29191 -1.075695,-0.42362 -5.344406,-1.20441 -11.36741,0.59135 -15.410201,4.59455 -4.442263,4.39876 -6.140454,10.35395 -4.676354,16.39895 0.330625,1.36509 1.139194,3.3058 1.377315,3.3058 0.105042,0 1.351187,-1.32063 2.76921,-2.93472 z m 31.945298,2.7881 c 0.172238,-0.10901 -0.480436,-0.86368 -2.822877,-3.26403 -1.675803,-1.71722 -3.136158,-3.17658 -3.245235,-3.24302 -0.109076,-0.0664 -1.991093,-0.10185 -4.182258,-0.0787 l -3.983937,0.0421 -0.04489,2.67612 c -0.04938,2.9435 -0.01302,3.24789 0.442444,3.70334 0.299768,0.29977 0.54758,0.31075 6.961776,0.30843 3.669834,-0.001 6.751361,-0.066 6.874979,-0.14421 z m 33.667978,10.53214 c -3.80916,-0.43063 -6.0282,-2.10134 -6.99886,-5.26941 -0.26971,-0.8803 -0.28939,-1.73116 -0.28939,-12.51479 0,-10.78574 0.0196,-11.63387 0.28937,-12.50807 0.45269,-1.4671 0.9443,-2.30232 1.87103,-3.17878 1.74818,-1.65336 3.44935,-2.17045 7.12731,-2.16644 2.80237,0.003 3.85561,0.19674 5.54396,1.0195 1.7287,0.84242 3.08924,2.60561 3.49051,4.52352 0.11857,0.56676 0.17453,4.52951 0.17453,12.36078 0,10.68729 -0.021,11.60224 -0.28815,12.56573 -0.73367,2.64582 -2.64264,4.34958 -5.53635,4.94119 -1.39896,0.28602 -3.92048,0.39222 -5.38396,0.22677 z m 3.30519,-6.87075 c 0.19867,-0.12399 0.4304,-0.40741 0.51496,-0.62982 0.0959,-0.25228 0.13768,-4.21496 0.11104,-10.53531 l -0.0427,-10.13094 -0.43648,-0.43641 c -0.38683,-0.38678 -0.55203,-0.43642 -1.45254,-0.43642 -0.90056,0 -1.06568,0.0496 -1.45255,0.43648 l -0.43648,0.43648 v 10.38169 10.38169 l 0.33521,0.33521 c 0.59873,0.59873 2.05537,0.69926 2.85955,0.19735 z m -105.809896,6.20895 c -0.124068,-0.19652 -2.328954,-6.34315 -4.899746,-13.65919 -2.5707922,-7.31604 -4.8404513,-13.76234 -5.0436871,-14.32511 -2.3313227,-6.45557 -2.4638148,-7.01562 -1.7266285,-7.2985 0.1435841,-0.0551 2.1543669,-0.10018 4.4684063,-0.10018 3.1184903,0 4.2764623,0.0509 4.4744183,0.19677 0.223642,0.16478 2.995885,9.07255 5.718677,18.37526 0.410695,1.40319 0.469195,1.53202 0.624916,1.3763 0.05298,-0.053 0.938535,-2.91603 1.967906,-6.36234 1.029371,-3.44631 2.011928,-6.72647 2.183461,-7.28924 0.171533,-0.56277 0.625412,-2.07304 1.00862,-3.35616 0.383208,-1.28312 0.821452,-2.47075 0.973876,-2.63917 0.263791,-0.29149 0.489687,-0.30422 4.691679,-0.26447 l 4.414545,0.0418 0.228674,0.40755 c 0.214551,0.38238 0.150006,0.63027 -1.045185,4.01417 -0.700624,1.98365 -2.558881,7.25482 -4.129463,11.7137 -1.570582,4.45889 -3.021931,8.56752 -3.22522,9.13029 -0.203289,0.56277 -0.986533,2.79418 -1.740543,4.95869 -0.754011,2.16451 -1.521508,4.25424 -1.705549,4.64385 l -0.334621,0.70839 -3.339478,0.0425 c -3.322138,0.0422 -3.340652,0.0406 -3.565058,-0.31484 z m 6.472028,-0.79021 c 0.140361,-0.17591 2.874895,-7.87383 9.630378,-27.11025 1.215227,-3.46039 2.152802,-6.34833 2.0835,-6.41763 -0.0693,-0.0693 -1.890659,-0.10703 -4.047458,-0.0838 l -3.921454,0.0422 -2.872024,9.60255 c -1.579612,5.2814 -3.044357,10.40463 -3.254988,11.38496 -0.367538,1.71061 -0.484194,2.05515 -0.642307,1.89704 -0.0398,-0.0398 -0.252899,-0.92745 -0.473561,-1.97256 -0.355864,-1.68546 -2.983609,-10.71985 -3.173091,-10.90933 -0.04078,-0.0408 -0.174034,-0.006 -0.296124,0.0777 -0.378239,0.25874 -5.1151542,5.73718 -5.1151542,5.91589 0,0.0928 1.1269812,3.36748 2.5044022,7.27712 1.377421,3.90965 2.734807,7.78141 3.016413,8.60392 0.281607,0.82251 0.580069,1.58403 0.663249,1.69225 0.110946,0.14435 0.895839,0.19678 2.946224,0.19678 2.047307,0 2.836988,-0.0526 2.951995,-0.19678 z m 13.984271,0.89642 c -0.225202,-0.2252 -0.249877,-1.96404 -0.249877,-17.60901 0,-16.61732 0.0123,-17.37026 0.287878,-17.61965 0.252323,-0.22835 0.792983,-0.26053 4.377638,-0.26053 3.283413,0 4.150007,0.044 4.39533,0.22341 0.298842,0.2185 0.306419,0.60233 0.344103,17.43413 0.03065,13.69016 -0.0025,17.29122 -0.16199,17.60426 l -0.200523,0.39355 -4.271341,0.0419 c -3.728168,0.0365 -4.303116,0.0101 -4.521218,-0.20802 z m 6.621436,-1.6048 c 0.463505,-0.49784 1.020059,-1.1574 1.236787,-1.4657 l 0.394051,-0.56053 0.0025,-15.32767 c 0.0013,-8.43022 -0.05701,-15.38712 -0.129679,-15.45979 -0.07267,-0.0727 -1.791953,-0.11308 -3.820627,-0.0898 l -3.688498,0.0423 0.03873,16.68639 c 0.0213,9.17751 0.07221,16.77494 0.113124,16.88316 0.05516,0.14589 0.712672,0.19678 2.542659,0.19678 h 2.468263 z m 49.866141,1.53178 c -0.406564,-0.20124 -0.771128,-0.54795 -0.994959,-0.9462 -0.346581,-0.61666 -0.352238,-0.71131 -0.298549,-4.99512 0.05173,-4.12739 0.07468,-4.4166 0.41911,-5.28016 0.828903,-2.07828 1.563966,-2.92263 7.708707,-8.85481 0.981691,-0.94774 1.920301,-1.98598 2.085791,-2.30721 0.25582,-0.49654 0.3009,-0.92815 0.3009,-2.88071 0,-3.01332 -0.19417,-3.41444 -1.65289,-3.41444 -1.418969,0 -1.554039,0.27272 -1.652897,3.33728 -0.06663,2.06559 -0.127019,2.52201 -0.393547,2.9745 -0.586056,0.99497 -1.020807,1.1908 -2.77856,1.2516 -1.995183,0.069 -2.529312,-0.0348 -3.19721,-0.62119 -0.787766,-0.69167 -0.934639,-1.55696 -0.829929,-4.88943 0.05783,-1.84068 0.167641,-2.99261 0.337162,-3.53708 0.971432,-3.12004 3.333897,-4.62746 7.638965,-4.87422 5.143176,-0.2948 8.360066,1.33685 9.480096,4.80845 0.27285,0.84569 0.34607,1.55328 0.40811,3.94362 0.0906,3.49061 -0.0806,4.84235 -0.80743,6.3747 -0.7485,1.57807 -1.4351,2.3681 -4.76776,5.48599 -3.08722,2.88827 -4.350748,4.27056 -4.810286,5.26245 -0.370183,0.79902 -0.391496,2.94908 -0.03061,3.08757 0.136951,0.0525 2.103826,0.0956 4.370826,0.0956 4.58805,0 4.85658,0.0524 5.5627,1.08651 0.7313,1.07094 0.61507,3.43542 -0.21274,4.32819 -0.81277,0.87653 -0.86515,0.88206 -8.35119,0.88192 -6.595266,-1.1e-4 -6.919768,-0.0138 -7.533813,-0.31776 z"
       style="fill:#ffffff;stroke-width:0.15741876" />
    <path
       inkscape:connector-curvature="0"
       id="path346"
       d="m 63.560477,289.858 c -6.90611,-0.73896 -12.752656,-5.01279 -15.318473,-11.19783 -0.752879,-1.81485 -1.131594,-3.59039 -1.238626,-5.80707 -0.252984,-5.23945 1.528214,-9.80521 5.282237,-13.53999 2.942903,-2.92782 6.459917,-4.67684 10.802606,-5.37218 1.036159,-0.1659 4.586558,-0.047 4.863749,0.16292 0.09551,0.0723 0.580999,0.21913 1.078868,0.32623 0.497868,0.1071 1.011447,0.30096 1.141286,0.4308 0.197636,0.19763 0.23607,0.89849 0.23607,4.30484 0,2.23782 0.043,4.18082 0.09555,4.31777 0.08522,0.22209 0.882249,0.249 7.374284,0.249 6.851598,0 7.29402,0.0169 7.539258,0.28788 0.14329,0.15833 0.260526,0.41615 0.260526,0.57292 0,0.16002 -1.484444,1.78791 -3.384503,3.71155 -1.861477,1.88457 -3.384503,3.50964 -3.384503,3.61126 0,0.10161 1.469897,1.70105 3.266439,3.55431 1.796542,1.85326 3.333635,3.54884 3.415762,3.76795 0.115758,0.30882 0.08798,0.45974 -0.123567,0.67138 -0.248812,0.24892 -0.921728,0.27996 -7.626714,0.35172 l -7.353824,0.0787 -0.08518,4.25031 c -0.04685,2.33767 -0.09998,4.26597 -0.118064,4.28513 -0.03573,0.0378 -1.97666,0.60108 -2.866418,0.83181 -0.82423,0.21373 -2.613627,0.2836 -3.85676,0.15058 z m 3.179982,-10.08066 c 0.415518,-0.0931 1.145099,-0.35875 1.621291,-0.59032 l 0.865803,-0.42104 0.103071,-3.30579 c 0.122522,-3.92963 0.122617,-2.89928 -6.29e-4,-7.16255 l -0.102442,-3.54193 -1.023222,-0.51179 c -5.273031,-2.63746 -11.49157,1.43268 -11.49157,7.52143 0,3.64429 2.696573,7.10958 6.192125,7.95733 1.026519,0.24895 2.852365,0.27497 3.835573,0.0547 z m -13.96297,-3.60046 c 1.589629,-1.81361 2.959019,-3.42039 3.043087,-3.57061 0.08407,-0.15022 0.138674,-0.71109 0.121343,-1.24637 -0.01733,-0.53528 0.05133,-1.31931 0.152567,-1.74227 0.269331,-1.12523 1.1715,-2.94812 1.776566,-3.58968 0.289559,-0.30702 0.498375,-0.58632 0.464032,-0.62066 -0.03434,-0.0343 0.312683,-0.36407 0.771162,-0.73273 1.187995,-0.95525 2.810773,-1.68129 4.346097,-1.94448 0.71975,-0.12338 1.332936,-0.24937 1.362636,-0.27999 0.0297,-0.0306 1.023763,-1.15365 2.209031,-2.49565 2.199168,-2.48997 2.594072,-3.08384 2.512277,-3.77805 -0.0255,-0.21645 -0.05227,-0.47642 -0.05949,-0.5777 -0.0072,-0.10129 -0.491278,-0.29191 -1.075695,-0.42362 -6.335086,-1.42767 -13.233995,1.27369 -17.302392,6.77498 -1.440318,1.9476 -2.63132,4.62426 -2.9645,6.66242 -0.06369,0.38961 -0.147458,0.76189 -0.186148,0.82727 -0.06069,0.10257 -0.202014,1.58615 -0.243595,2.55724 -0.02323,0.54259 0.351143,3.10249 0.61008,4.17159 0.331927,1.37047 1.139545,3.3058 1.379516,3.3058 0.106253,0 1.493793,-1.48387 3.083424,-3.29749 z m 31.628883,3.15087 c 0.172238,-0.10901 -0.480436,-0.86368 -2.822877,-3.26403 -1.675803,-1.71722 -3.136158,-3.17658 -3.245235,-3.24302 -0.109076,-0.0664 -1.991093,-0.10185 -4.182258,-0.0787 l -3.983937,0.0421 -0.04489,2.67612 c -0.04938,2.9435 -0.01302,3.24789 0.442444,3.70334 0.299768,0.29977 0.54758,0.31075 6.961776,0.30843 3.669834,-0.001 6.751361,-0.066 6.874979,-0.14421 z m 32.983448,10.40521 c -0.0822,-0.0721 -0.52487,-0.21329 -0.98359,-0.31382 -2.02967,-0.44479 -3.78536,-1.73784 -4.59311,-3.3828 -0.92682,-1.88746 -0.94257,-2.12021 -0.94558,-13.9711 -0.002,-7.0303 0.0563,-11.1193 0.16661,-11.72769 0.26666,-1.47092 1.10535,-3.0552 2.0973,-3.96179 1.69939,-1.55314 3.22406,-1.99115 6.94236,-1.99439 2.14828,-0.002 2.87794,0.0557 3.69934,0.29176 2.77372,0.79723 3.87011,1.82873 5.26238,4.95095 0.2355,0.52812 0.2355,24.37509 0,24.90321 -1.24119,2.78342 -2.14129,3.76147 -4.18813,4.55081 -0.67183,0.25909 -1.39671,0.47107 -1.61085,0.47107 -0.21413,0 -0.43311,0.0708 -0.48662,0.15742 -0.11856,0.19183 -5.14307,0.21655 -5.36011,0.0264 z m 3.31366,-0.81347 c 0.0595,-0.0963 -0.18511,-0.15742 -0.62967,-0.15742 -0.44456,0 -0.68917,0.0612 -0.62968,0.15742 0.0535,0.0866 0.33687,0.15742 0.62968,0.15742 0.29281,0 0.57616,-0.0708 0.62967,-0.15742 z m -0.39354,-4.56514 c 0,-0.0866 -0.10626,-0.15742 -0.23613,-0.15742 -0.12987,0 -0.23613,0.0708 -0.23613,0.15742 0,0.0866 0.10626,0.15742 0.23613,0.15742 0.12987,0 0.23613,-0.0708 0.23613,-0.15742 z m 1.38156,-1.46734 0.42875,-0.42868 0.048,-10.03195 c 0.0323,-6.75308 -0.007,-10.21921 -0.11918,-10.60489 -0.22777,-0.78055 -0.80774,-1.12936 -1.89052,-1.13701 -1.17078,-0.008 -1.83051,0.35146 -2.05511,1.12055 -0.11889,0.40712 -0.15727,3.68786 -0.12411,10.60841 0.0468,9.76229 0.0561,10.02798 0.36285,10.36887 0.46619,0.51803 0.83756,0.62927 1.93253,0.57885 0.83208,-0.0383 1.05568,-0.11314 1.41677,-0.47415 z m 1.60939,-10.74191 c 0,-6.13313 -0.0542,-9.35712 -0.15742,-9.35712 -0.10319,0 -0.15741,3.25642 -0.15741,9.45442 0,6.26285 0.0531,9.42157 0.15741,9.35712 0.10209,-0.0631 0.15742,-3.38614 0.15742,-9.45442 z m -4.2503,-16.91322 c 0,-0.0866 -0.0708,-0.15742 -0.15742,-0.15742 -0.0866,0 -0.15742,0.0708 -0.15742,0.15742 0,0.0866 0.0708,0.15742 0.15742,0.15742 0.0866,0 0.15742,-0.0708 0.15742,-0.15742 z m 2.36128,0 c 0,-0.0866 -0.0708,-0.15742 -0.15742,-0.15742 -0.0866,0 -0.15742,0.0708 -0.15742,0.15742 0,0.0866 0.0708,0.15742 0.15742,0.15742 0.0866,0 0.15742,-0.0708 0.15742,-0.15742 z M 15.555121,288.88014 C 15.340813,288.36465 5.2330216,259.74635 4.2823747,256.96349 4.001398,256.14097 3.7115931,255.40071 3.6383638,255.31846 c -0.2596923,-0.29169 -0.1474441,-1.16978 0.1713443,-1.34039 0.3495909,-0.1871 8.6404729,-0.22655 8.9273279,-0.0425 0.09913,0.0636 1.357359,4.04719 2.796063,8.8524 3.164981,10.5709 3.263217,10.88781 3.454404,11.14405 0.08349,0.11189 0.202709,0.14731 0.264934,0.0787 0.06222,-0.0686 0.692992,-2.0728 1.401704,-4.45375 1.264357,-4.24768 1.784527,-5.98252 2.690403,-8.97287 0.249166,-0.82252 0.74571,-2.48468 1.103431,-3.69371 0.35772,-1.20902 0.752451,-2.39557 0.877179,-2.63676 l 0.226777,-0.43854 4.285619,0.002 c 2.357091,0.001 4.36855,0.0552 4.469912,0.11964 0.52978,0.337 0.370282,0.92561 -2.291738,8.45727 -1.468861,4.15586 -4.098617,11.62931 -5.843901,16.60768 -1.745285,4.97837 -3.304962,9.35264 -3.465947,9.72061 l -0.292702,0.66903 h -3.322678 -3.322678 z m 6.404084,-0.31484 c 0.13947,-0.10822 2.073638,-5.36798 4.29815,-11.68834 2.224511,-6.32037 4.851218,-13.77507 5.837127,-16.56601 0.985907,-2.79094 1.792559,-5.18174 1.792559,-5.31288 0,-0.20672 -0.531585,-0.23845 -3.994904,-0.23845 -4.184105,0 -4.200645,0.003 -4.397645,0.70839 -0.04834,0.17316 -1.327674,4.4943 -2.842973,9.60254 -1.515297,5.10824 -2.907002,9.97838 -3.092677,10.82254 -0.185676,0.84416 -0.393381,1.53483 -0.461568,1.53483 -0.06819,0 -0.283676,-0.76151 -0.478865,-1.69225 -0.394121,-1.87932 -3.039887,-10.85474 -3.266572,-11.08142 -0.08702,-0.087 -1.21802,1.0782 -2.858998,2.9455 l -2.7150245,3.08948 3.1003705,8.83965 c 1.705204,4.86181 3.211785,8.9282 3.347959,9.03642 0.175641,0.13959 1.007771,0.19677 2.863533,0.19677 1.852565,0 2.689945,-0.0574 2.869528,-0.19677 z m 14.163182,0.63755 c -0.250672,-0.25068 -0.276087,-34.61586 -0.02595,-35.08325 0.154803,-0.28925 0.369497,-0.30437 4.289662,-0.30208 2.324828,0.001 4.229807,0.0676 4.362832,0.15166 0.207121,0.13091 0.241296,2.26531 0.278194,17.37498 0.02716,11.12002 -0.01332,17.3714 -0.114168,17.63667 l -0.156234,0.41092 h -4.222718 c -3.074446,0 -4.274087,-0.0514 -4.411622,-0.1889 z m 6.524992,-1.50335 c 0.463505,-0.49784 1.012218,-1.1531 1.219364,-1.45613 l 0.376628,-0.55096 0.05601,-15.42704 0.05601,-15.42704 -3.922098,-0.0422 -3.922097,-0.0422 0.106084,16.78519 c 0.05835,9.23185 0.145058,16.84825 0.192693,16.92532 0.04763,0.0771 1.190922,0.14014 2.54064,0.14014 h 2.454032 z m 49.837357,1.37826 c -0.282178,-0.17204 -0.656088,-0.54368 -0.830914,-0.82586 -0.3022,-0.48776 -0.315622,-0.73026 -0.272351,-4.92077 0.04316,-4.17976 0.06429,-4.45443 0.408471,-5.31061 0.784387,-1.95121 1.706347,-3.0129 7.47754,-8.6108 1.109998,-1.07666 2.154598,-2.22497 2.321318,-2.55178 0.25824,-0.50619 0.30314,-0.9344 0.30314,-2.89087 0,-3.07844 -0.24916,-3.54037 -1.909616,-3.54037 -1.425655,0 -1.709642,0.57933 -1.714466,3.49751 -0.004,2.41563 -0.240168,3.1982 -1.128677,3.73991 -0.440907,0.26881 -0.793531,0.31759 -2.299542,0.31809 -1.99673,6.6e-4 -2.454318,-0.14653 -3.049438,-0.9809 -0.355221,-0.49803 -0.366603,-0.61418 -0.366603,-3.74107 0,-3.5246 0.107045,-4.19127 0.902073,-5.61805 0.81031,-1.45421 2.179551,-2.41943 4.225277,-2.97854 1.437564,-0.39289 5.631172,-0.40092 7.072602,-0.0135 2.9886,0.80319 4.62906,2.49121 5.12528,5.27387 0.29297,1.64288 0.29061,6.23718 -0.004,7.62706 -0.12397,0.58505 -0.49354,1.57679 -0.82125,2.20386 -0.63101,1.20743 -1.17656,1.79188 -6.28073,6.72851 -3.032989,2.93344 -3.371616,3.47449 -3.371616,5.38704 0,1.17799 0.01781,1.23911 0.403795,1.38586 0.224092,0.0852 2.192611,0.15353 4.423281,0.15353 4.51972,0 4.80615,0.0568 5.44201,1.07933 0.29915,0.48105 0.35668,0.79387 0.35668,1.93943 0,1.5184 -0.18804,1.93449 -1.17904,2.60896 l -0.52042,0.35419 -7.09991,-6.3e-4 c -6.806957,-6.3e-4 -7.121094,-0.0135 -7.612974,-0.3134 z m 4.999485,-6.76986 c 0,-0.94451 -0.06297,-1.57418 -0.157419,-1.57418 -0.09445,0 -0.157419,0.62967 -0.157419,1.57418 0,0.94452 0.06297,1.57419 0.157419,1.57419 0.09445,0 0.157419,-0.62967 0.157419,-1.57419 z M 92.44682,263.49636 c 0,-1.31182 -0.06025,-2.12515 -0.157418,-2.12515 -0.09717,0 -0.157419,0.81333 -0.157419,2.12515 0,1.31183 0.06025,2.12516 0.157419,2.12516 0.09717,0 0.157418,-0.81333 0.157418,-2.12516 z m 5.037401,0.14813 c 0,-1.27793 -0.05566,-1.94262 -0.157419,-1.87973 -0.09073,0.0561 -0.157419,0.89367 -0.157419,1.97702 0,1.14821 0.06126,1.87974 0.157419,1.87974 0.09659,0 0.157419,-0.76396 0.157419,-1.97703 z m 5.509649,-1.5556 c 0,-0.0382 -0.0708,-0.1132 -0.15742,-0.16671 -0.0866,-0.0535 -0.15741,-0.0223 -0.15741,0.0694 0,0.0917 0.0708,0.16671 0.15741,0.16671 0.0866,0 0.15742,-0.0312 0.15742,-0.0694 z m -2.75482,-2.6067 c -0.0535,-0.0866 -0.19937,-0.15742 -0.324129,-0.15742 -0.124761,0 -0.226838,0.0708 -0.226838,0.15742 0,0.0866 0.145858,0.15741 0.324127,0.15741 0.17827,0 0.28035,-0.0708 0.22684,-0.15741 z m -1.023223,-4.25031 c 0,-0.0866 -0.07084,-0.15742 -0.157419,-0.15742 -0.08658,0 -0.157418,0.0708 -0.157418,0.15742 0,0.0866 0.07084,0.15742 0.157418,0.15742 0.08658,0 0.157419,-0.0708 0.157419,-0.15742 z"
       style="fill:#ffffff;stroke-width:0.15741876" />
    <path
       inkscape:connector-curvature="0"
       id="path344"
       d="m 63.560477,289.858 c -6.90611,-0.73896 -12.752656,-5.01279 -15.318473,-11.19783 -0.752879,-1.81485 -1.131594,-3.59039 -1.238626,-5.80707 -0.252984,-5.23945 1.528214,-9.80521 5.282237,-13.53999 2.942903,-2.92782 6.459917,-4.67684 10.802606,-5.37218 1.036159,-0.1659 4.586558,-0.047 4.863749,0.16292 0.09551,0.0723 0.580999,0.21913 1.078868,0.32623 0.497868,0.1071 1.011447,0.30096 1.141286,0.4308 0.197636,0.19763 0.23607,0.89849 0.23607,4.30484 0,2.23782 0.043,4.18082 0.09555,4.31777 0.08522,0.22209 0.882249,0.249 7.374284,0.249 6.851598,0 7.29402,0.0169 7.539258,0.28788 0.14329,0.15833 0.260526,0.41615 0.260526,0.57292 0,0.16002 -1.484444,1.78791 -3.384503,3.71155 -1.861477,1.88457 -3.384503,3.50964 -3.384503,3.61126 0,0.10161 1.469897,1.70105 3.266439,3.55431 1.796542,1.85326 3.333635,3.54884 3.415762,3.76795 0.115758,0.30882 0.08798,0.45974 -0.123567,0.67138 -0.248812,0.24892 -0.921728,0.27996 -7.626714,0.35172 l -7.353824,0.0787 -0.08518,4.25031 c -0.04685,2.33767 -0.09998,4.26597 -0.118064,4.28513 -0.03573,0.0378 -1.97666,0.60108 -2.866418,0.83181 -0.82423,0.21373 -2.613627,0.2836 -3.85676,0.15058 z m -1.819093,-5.46677 c 1.563274,-1.78308 2.842315,-3.32742 2.842315,-3.43187 0,-0.10688 -0.326891,-0.23574 -0.747739,-0.29477 -2.616882,-0.36705 -4.861142,-1.77001 -6.319612,-3.9506 -1.069176,-1.59856 -1.452039,-2.86989 -1.467936,-4.87443 -0.01437,-1.81274 0.25024,-2.91897 1.075162,-4.49467 1.341403,-2.56226 3.796153,-4.18481 6.91871,-4.57315 1.485342,-0.18473 2.991969,0.0606 4.438063,0.72264 0.484581,0.22184 0.940689,0.34372 1.013574,0.27084 0.07288,-0.0729 0.113608,-2.00499 0.09049,-4.29358 l -0.04202,-4.16105 -0.787093,-0.2127 c -1.31207,-0.35456 -5.270677,-0.41816 -6.906339,-0.11095 -7.02968,1.32027 -12.667093,7.0139 -13.950089,14.0892 -0.260723,1.4378 -0.219691,4.57507 0.08022,6.13374 0.985158,5.1199 4.5859,9.7566 9.349606,12.03955 0.628648,0.30127 1.239156,0.51086 1.356683,0.46577 0.117529,-0.0451 1.49273,-1.54089 3.056004,-3.32397 z m 4.999075,-4.61389 c 0.415518,-0.0931 1.145099,-0.35875 1.621291,-0.59032 l 0.865803,-0.42104 0.103071,-3.30579 c 0.122522,-3.92963 0.122617,-2.89928 -6.29e-4,-7.16255 l -0.102442,-3.54193 -1.023222,-0.51179 c -5.273031,-2.63746 -11.49157,1.43268 -11.49157,7.52143 0,3.64429 2.696573,7.10958 6.192125,7.95733 1.026519,0.24895 2.852365,0.27497 3.835573,0.0547 z m 17.665913,-0.44959 c 0.172238,-0.10901 -0.480436,-0.86368 -2.822877,-3.26403 -1.675803,-1.71722 -3.136158,-3.17658 -3.245235,-3.24302 -0.109076,-0.0664 -1.991093,-0.10185 -4.182258,-0.0787 l -3.983937,0.0421 -0.04489,2.67612 c -0.04938,2.9435 -0.01302,3.24789 0.442444,3.70334 0.299768,0.29977 0.54758,0.31075 6.961776,0.30843 3.669834,-0.001 6.751361,-0.066 6.874979,-0.14421 z m 32.983448,10.40521 c -0.0822,-0.0721 -0.52487,-0.21329 -0.98359,-0.31382 -2.02967,-0.44479 -3.78536,-1.73784 -4.59311,-3.3828 -0.92682,-1.88746 -0.94257,-2.12021 -0.94558,-13.9711 -0.002,-7.0303 0.0563,-11.1193 0.16661,-11.72769 0.26666,-1.47092 1.10535,-3.0552 2.0973,-3.96179 1.69939,-1.55314 3.22406,-1.99115 6.94236,-1.99439 2.14828,-0.002 2.87794,0.0557 3.69934,0.29176 2.77372,0.79723 3.87011,1.82873 5.26238,4.95095 0.2355,0.52812 0.2355,24.37509 0,24.90321 -1.24119,2.78342 -2.14129,3.76147 -4.18813,4.55081 -0.67183,0.25909 -1.39671,0.47107 -1.61085,0.47107 -0.21413,0 -0.43311,0.0708 -0.48662,0.15742 -0.11856,0.19183 -5.14307,0.21655 -5.36011,0.0264 z m 3.31366,-0.81347 c 0.0595,-0.0963 -0.18511,-0.15742 -0.62967,-0.15742 -0.44456,0 -0.68917,0.0612 -0.62968,0.15742 0.0535,0.0866 0.33687,0.15742 0.62968,0.15742 0.29281,0 0.57616,-0.0708 0.62967,-0.15742 z m -0.39354,-4.56514 c 0,-0.0866 -0.10626,-0.15742 -0.23613,-0.15742 -0.12987,0 -0.23613,0.0708 -0.23613,0.15742 0,0.0866 0.10626,0.15742 0.23613,0.15742 0.12987,0 0.23613,-0.0708 0.23613,-0.15742 z m 1.38156,-1.46734 0.42875,-0.42868 0.048,-10.03195 c 0.0323,-6.75308 -0.007,-10.21921 -0.11918,-10.60489 -0.22777,-0.78055 -0.80774,-1.12936 -1.89052,-1.13701 -1.17078,-0.008 -1.83051,0.35146 -2.05511,1.12055 -0.11889,0.40712 -0.15727,3.68786 -0.12411,10.60841 0.0468,9.76229 0.0561,10.02798 0.36285,10.36887 0.46619,0.51803 0.83756,0.62927 1.93253,0.57885 0.83208,-0.0383 1.05568,-0.11314 1.41677,-0.47415 z m 1.60939,-10.74191 c 0,-6.13313 -0.0542,-9.35712 -0.15742,-9.35712 -0.10319,0 -0.15741,3.25642 -0.15741,9.45442 0,6.26285 0.0531,9.42157 0.15741,9.35712 0.10209,-0.0631 0.15742,-3.38614 0.15742,-9.45442 z m -4.2503,-16.91322 c 0,-0.0866 -0.0708,-0.15742 -0.15742,-0.15742 -0.0866,0 -0.15742,0.0708 -0.15742,0.15742 0,0.0866 0.0708,0.15742 0.15742,0.15742 0.0866,0 0.15742,-0.0708 0.15742,-0.15742 z m 2.36128,0 c 0,-0.0866 -0.0708,-0.15742 -0.15742,-0.15742 -0.0866,0 -0.15742,0.0708 -0.15742,0.15742 0,0.0866 0.0708,0.15742 0.15742,0.15742 0.0866,0 0.15742,-0.0708 0.15742,-0.15742 z M 15.555121,288.88014 C 15.340813,288.36465 5.2330216,259.74635 4.2823747,256.96349 4.001398,256.14097 3.7115931,255.40071 3.6383638,255.31846 c -0.2596923,-0.29169 -0.1474441,-1.16978 0.1713443,-1.34039 0.3495909,-0.1871 8.6404729,-0.22655 8.9273279,-0.0425 0.09913,0.0636 1.357359,4.04719 2.796063,8.8524 3.164981,10.5709 3.263217,10.88781 3.454404,11.14405 0.08349,0.11189 0.202709,0.14731 0.264934,0.0787 0.06222,-0.0686 0.692992,-2.0728 1.401704,-4.45375 1.264357,-4.24768 1.784527,-5.98252 2.690403,-8.97287 0.249166,-0.82252 0.74571,-2.48468 1.103431,-3.69371 0.35772,-1.20902 0.752451,-2.39557 0.877179,-2.63676 l 0.226777,-0.43854 4.285619,0.002 c 2.357091,0.001 4.36855,0.0552 4.469912,0.11964 0.52978,0.337 0.370282,0.92561 -2.291738,8.45727 -1.468861,4.15586 -4.098617,11.62931 -5.843901,16.60768 -1.745285,4.97837 -3.304962,9.35264 -3.465947,9.72061 l -0.292702,0.66903 h -3.322678 -3.322678 z m 6.404084,-0.31484 c 0.13947,-0.10822 2.073638,-5.36798 4.29815,-11.68834 2.224511,-6.32037 4.851218,-13.77507 5.837127,-16.56601 0.985907,-2.79094 1.792559,-5.18174 1.792559,-5.31288 0,-0.20672 -0.531585,-0.23845 -3.994904,-0.23845 -4.184105,0 -4.200645,0.003 -4.397645,0.70839 -0.04834,0.17316 -1.327674,4.4943 -2.842973,9.60254 -1.515297,5.10824 -2.907002,9.97838 -3.092677,10.82254 -0.185676,0.84416 -0.393381,1.53483 -0.461568,1.53483 -0.06819,0 -0.283676,-0.76151 -0.478865,-1.69225 -0.394121,-1.87932 -3.039887,-10.85474 -3.266572,-11.08142 -0.08702,-0.087 -1.21802,1.0782 -2.858998,2.9455 l -2.7150245,3.08948 3.1003705,8.83965 c 1.705204,4.86181 3.211785,8.9282 3.347959,9.03642 0.175641,0.13959 1.007771,0.19677 2.863533,0.19677 1.852565,0 2.689945,-0.0574 2.869528,-0.19677 z m 14.163182,0.63755 c -0.250672,-0.25068 -0.276087,-34.61586 -0.02595,-35.08325 0.154803,-0.28925 0.369497,-0.30437 4.289662,-0.30208 2.324828,0.001 4.229807,0.0676 4.362832,0.15166 0.207121,0.13091 0.241296,2.26531 0.278194,17.37498 0.02716,11.12002 -0.01332,17.3714 -0.114168,17.63667 l -0.156234,0.41092 h -4.222718 c -3.074446,0 -4.274087,-0.0514 -4.411622,-0.1889 z m 8.183078,-0.72143 c 0.07154,-0.0715 0.112038,-7.6705 0.09,-16.88658 l -0.04007,-16.75651 -3.896114,-0.0421 -3.896114,-0.0421 v 16.91373 c 0,15.97129 0.01535,16.91841 0.275482,16.99789 0.430613,0.13158 7.321017,-0.0385 7.466823,-0.18432 z m 48.179271,0.59634 c -0.282178,-0.17204 -0.656088,-0.54368 -0.830914,-0.82586 -0.3022,-0.48776 -0.315622,-0.73026 -0.272351,-4.92077 0.04316,-4.17976 0.06429,-4.45443 0.408471,-5.31061 0.784387,-1.95121 1.706347,-3.0129 7.47754,-8.6108 1.109998,-1.07666 2.154598,-2.22497 2.321318,-2.55178 0.25824,-0.50619 0.30314,-0.9344 0.30314,-2.89087 0,-3.07844 -0.24916,-3.54037 -1.909616,-3.54037 -1.425655,0 -1.709642,0.57933 -1.714466,3.49751 -0.004,2.41563 -0.240168,3.1982 -1.128677,3.73991 -0.440907,0.26881 -0.793531,0.31759 -2.299542,0.31809 -1.99673,6.6e-4 -2.454318,-0.14653 -3.049438,-0.9809 -0.355221,-0.49803 -0.366603,-0.61418 -0.366603,-3.74107 0,-3.5246 0.107045,-4.19127 0.902073,-5.61805 0.81031,-1.45421 2.179551,-2.41943 4.225277,-2.97854 1.437564,-0.39289 5.631172,-0.40092 7.072602,-0.0135 2.9886,0.80319 4.62906,2.49121 5.12528,5.27387 0.29297,1.64288 0.29061,6.23718 -0.004,7.62706 -0.12397,0.58505 -0.49354,1.57679 -0.82125,2.20386 -0.63101,1.20743 -1.17656,1.79188 -6.28073,6.72851 -3.032989,2.93344 -3.371616,3.47449 -3.371616,5.38704 0,1.17799 0.01781,1.23911 0.403795,1.38586 0.224092,0.0852 2.192611,0.15353 4.423281,0.15353 4.51972,0 4.80615,0.0568 5.44201,1.07933 0.29915,0.48105 0.35668,0.79387 0.35668,1.93943 0,1.5184 -0.18804,1.93449 -1.17904,2.60896 l -0.52042,0.35419 -7.09991,-6.3e-4 c -6.806957,-6.3e-4 -7.121094,-0.0135 -7.612974,-0.3134 z m 4.999485,-6.76986 c 0,-0.94451 -0.06297,-1.57418 -0.157419,-1.57418 -0.09445,0 -0.157419,0.62967 -0.157419,1.57418 0,0.94452 0.06297,1.57419 0.157419,1.57419 0.09445,0 0.157419,-0.62967 0.157419,-1.57419 z M 92.44682,263.49636 c 0,-1.31182 -0.06025,-2.12515 -0.157418,-2.12515 -0.09717,0 -0.157419,0.81333 -0.157419,2.12515 0,1.31183 0.06025,2.12516 0.157419,2.12516 0.09717,0 0.157418,-0.81333 0.157418,-2.12516 z m 5.037401,0.14813 c 0,-1.27793 -0.05566,-1.94262 -0.157419,-1.87973 -0.09073,0.0561 -0.157419,0.89367 -0.157419,1.97702 0,1.14821 0.06126,1.87974 0.157419,1.87974 0.09659,0 0.157419,-0.76396 0.157419,-1.97703 z m 5.509649,-1.5556 c 0,-0.0382 -0.0708,-0.1132 -0.15742,-0.16671 -0.0866,-0.0535 -0.15741,-0.0223 -0.15741,0.0694 0,0.0917 0.0708,0.16671 0.15741,0.16671 0.0866,0 0.15742,-0.0312 0.15742,-0.0694 z m -2.75482,-2.6067 c -0.0535,-0.0866 -0.19937,-0.15742 -0.324129,-0.15742 -0.124761,0 -0.226838,0.0708 -0.226838,0.15742 0,0.0866 0.145858,0.15741 0.324127,0.15741 0.17827,0 0.28035,-0.0708 0.22684,-0.15741 z m -1.023223,-4.25031 c 0,-0.0866 -0.07084,-0.15742 -0.157419,-0.15742 -0.08658,0 -0.157418,0.0708 -0.157418,0.15742 0,0.0866 0.07084,0.15742 0.157418,0.15742 0.08658,0 0.157419,-0.0708 0.157419,-0.15742 z"
       style="fill:#ffffff;stroke-width:0.15741876" />
    <path
       id="path342"
       style="fill:#ffffff;stroke-width:0.15741876"
       d="m 100.32201,254.52155 c -1.408273,0.003 -2.815883,0.10276 -3.534666,0.2992 -2.045724,0.55911 -3.414755,1.52442 -4.225065,2.97863 -0.795028,1.42678 -0.902269,2.09366 -0.902269,5.61826 0,3.12689 0.01117,3.24283 0.366385,3.74086 0.595119,0.83437 1.052697,0.98148 3.049426,0.98082 1.506011,-5e-4 1.858695,-0.049 2.299602,-0.31781 0.888508,-0.54171 1.124614,-1.32419 1.128612,-3.73982 0.0048,-2.91818 0.288967,-3.49747 1.714625,-3.49747 1.66045,0 1.90944,0.46192 1.90944,3.54036 0,1.95647 -0.0446,2.38459 -0.30282,2.89078 -0.16672,0.32681 -1.21131,1.47512 -2.321305,2.55178 -5.771198,5.5979 -6.693194,6.65963 -7.47758,8.61084 -0.344181,0.85618 -0.365599,1.13051 -0.40876,5.31027 -0.04327,4.19051 -0.02987,4.43339 0.272335,4.92115 0.174826,0.28218 0.548778,0.65375 0.830956,0.82579 0.491882,0.2999 0.806019,0.31253 7.612974,0.31316 l 7.09982,5.3e-4 0.52038,-0.35399 c 0.991,-0.67447 1.17926,-1.09074 1.17926,-2.60914 0,-1.14556 -0.0574,-1.45837 -0.35657,-1.93942 -0.63585,-1.02253 -0.92232,-1.079 -5.44204,-1.079 -2.23067,0 -4.199417,-0.0683 -4.423503,-0.15348 -0.385984,-0.14675 -0.403593,-0.20797 -0.403593,-1.38596 0,-1.91255 0.338384,-2.45383 3.371366,-5.38727 5.10417,-4.93663 5.64975,-5.52084 6.28076,-6.72827 0.3277,-0.62707 0.69768,-1.61895 0.82165,-2.204 0.29461,-1.38988 0.29658,-5.98404 0.004,-7.62692 -0.49622,-2.78266 -2.13667,-4.47091 -5.12527,-5.2741 -0.72072,-0.19371 -2.1295,-0.28846 -3.53777,-0.28577 z m 19.98793,0.0171 c -3.7183,0.003 -5.24282,0.44157 -6.94221,1.99471 -0.99195,0.90659 -1.83037,2.4906 -2.09703,3.96152 -0.11031,0.60839 -0.16892,4.69766 -0.16692,11.72796 0.003,11.85089 0.0189,12.08327 0.94568,13.97073 0.80775,1.64496 2.56333,2.93795 4.593,3.38274 0.45872,0.10053 0.90172,0.24209 0.98392,0.31419 0.21704,0.19015 5.24132,0.16547 5.35988,-0.0264 0.0535,-0.0866 0.27266,-0.15761 0.48679,-0.15761 0.21415,0 0.93893,-0.2122 1.61076,-0.47129 2.04684,-0.78934 2.94667,-1.7672 4.18786,-4.55062 0.2355,-0.52812 0.2355,-24.37527 0,-24.90339 -1.39227,-3.12222 -2.4885,-4.15338 -5.26221,-4.9506 -0.8214,-0.23607 -1.55124,-0.29398 -3.69952,-0.29198 z m -21.015253,0.69298 c 0.08662,0 0.157612,0.071 0.157612,0.15762 0,0.0866 -0.07101,0.15761 -0.157612,0.15761 -0.08662,0 -0.157097,-0.071 -0.157097,-0.15761 0,-0.0866 0.0705,-0.15762 0.157097,-0.15762 z m 19.834963,0 c 0.0866,0 0.1571,0.071 0.1571,0.15762 0,0.0866 -0.0705,0.15761 -0.1571,0.15761 -0.0866,0 -0.15761,-0.071 -0.15761,-0.15761 0,-0.0866 0.071,-0.15762 0.15761,-0.15762 z m 2.3611,0 c 0.0866,0 0.15761,0.071 0.15761,0.15762 0,0.0866 -0.071,0.15761 -0.15761,0.15761 -0.0866,0 -0.1571,-0.071 -0.1571,-0.15761 0,-0.0866 0.0705,-0.15762 0.1571,-0.15762 z m -21.33927,4.25039 c 0.12476,0 0.27051,0.071 0.32401,0.15761 0.0535,0.0866 -0.0486,0.1571 -0.22686,0.1571 -0.17827,0 -0.32401,-0.0705 -0.324007,-0.1571 0,-0.0866 0.102097,-0.15761 0.226857,-0.15761 z m 20.24321,1.35961 c 1.08278,0.008 1.66307,0.35685 1.89084,1.13739 0.11218,0.38569 0.15115,3.85145 0.11886,10.60453 l -0.0476,10.03194 -0.42891,0.42892 c -0.36109,0.36101 -0.58489,0.43557 -1.41697,0.47387 -1.09497,0.0504 -1.46599,-0.0607 -1.93218,-0.57878 -0.30675,-0.34089 -0.31648,-0.60658 -0.36329,-10.36887 -0.0332,-6.92055 0.006,-10.20102 0.12455,-10.60814 0.22459,-0.76909 0.88387,-1.12886 2.05465,-1.12086 z m -27.869101,0.68678 c 0.09717,0 0.157613,0.81363 0.157613,2.12545 0,1.31183 -0.06044,2.12493 -0.157613,2.12493 -0.09717,0 -0.157096,-0.8131 -0.157096,-2.12493 0,-1.31182 0.05993,-2.12545 0.157096,-2.12545 z m 5.056024,0.39067 c 0.08996,0.0259 0.139009,0.68451 0.139009,1.88257 0,1.21307 -0.06102,1.97714 -0.157615,1.97714 -0.09616,0 -0.157096,-0.73126 -0.157096,-1.87947 0,-1.08335 0.06637,-1.92104 0.157096,-1.97714 0.0063,-0.004 0.01262,-0.005 0.0186,-0.003 z m 5.430157,0.13591 c 0.0188,0.003 0.0393,0.0114 0.061,0.0248 0.0866,0.0535 0.15761,0.1282 0.15761,0.1664 0,0.0382 -0.071,0.0693 -0.15761,0.0693 -0.0866,0 -0.1571,-0.0747 -0.1571,-0.1664 0,-0.0688 0.0397,-0.10355 0.0961,-0.094 z m 20.36827,0.89038 c 0.10322,0 0.15709,3.22393 0.15709,9.35706 0,6.06828 -0.055,9.3911 -0.15709,9.4542 -0.10431,0.0644 -0.15762,-3.0942 -0.15762,-9.35705 0,-6.198 0.0544,-9.45421 0.15762,-9.45421 z M 97.563007,280.891 c 0.09445,0 0.157615,0.62955 0.157615,1.57406 0,0.94452 -0.06316,1.57458 -0.157615,1.57458 -0.09445,0 -0.157096,-0.63006 -0.157096,-1.57458 0,-0.94451 0.06265,-1.57406 0.157096,-1.57406 z m 22.746933,3.46335 c 0.12987,0 0.23616,0.0705 0.23616,0.1571 0,0.0866 -0.10629,0.15761 -0.23616,0.15761 -0.12987,0 -0.23565,-0.071 -0.23565,-0.15761 0,-0.0866 0.10578,-0.1571 0.23565,-0.1571 z m 0,4.5651 c 0.44456,0 0.68944,0.0608 0.62994,0.15709 -0.0535,0.0866 -0.33713,0.15762 -0.62994,0.15762 -0.29281,0 -0.57592,-0.071 -0.62942,-0.15762 -0.0595,-0.0962 0.18486,-0.15709 0.62942,-0.15709 z"
       inkscape:connector-curvature="0" />
    <path
       inkscape:connector-curvature="0"
       id="path340"
       d="m 62.458546,289.70659 c -0.05351,-0.0866 -0.262282,-0.15742 -0.463937,-0.15742 -0.201655,0 -0.992914,-0.18149 -1.758352,-0.4033 -5.59739,-1.62206 -9.941327,-5.468 -12.009201,-10.63243 -0.919735,-2.297 -1.174025,-3.7182 -1.180056,-6.59517 -0.0049,-2.34778 0.03546,-2.74545 0.420154,-4.13772 1.097633,-3.97248 2.901126,-6.89357 5.799758,-9.39377 2.115092,-1.82436 4.980372,-3.30542 7.530235,-3.89236 0.567447,-0.13062 1.201859,-0.31919 1.409801,-0.41904 0.49739,-0.23886 5.239182,-0.24408 5.542986,-0.006 0.120047,0.094 0.660231,0.26193 1.200409,0.37309 0.540176,0.11117 1.071465,0.30961 1.180641,0.44096 0.144354,0.17369 0.21997,1.40243 0.27721,4.50465 l 0.07871,4.26581 7.372127,0.0787 c 7.067367,0.0755 7.381358,0.0913 7.595455,0.38428 0.122831,0.16806 0.223328,0.37117 0.223328,0.45135 0,0.0802 -1.523026,1.72223 -3.384503,3.64901 -1.861477,1.92677 -3.384503,3.62103 -3.384503,3.76502 0,0.14398 1.523026,1.81211 3.384503,3.70695 1.861477,1.89483 3.384503,3.54356 3.384503,3.66383 0,0.12028 -0.100497,0.35619 -0.223328,0.52425 -0.214097,0.29294 -0.528088,0.30883 -7.595455,0.38428 l -7.372127,0.0787 -0.04193,4.11017 c -0.03746,3.67281 -0.07097,4.13508 -0.314838,4.34424 -0.296523,0.25433 -1.971476,0.75459 -2.526456,0.75459 -0.189126,0 -0.343866,0.0708 -0.343866,0.15742 0,0.0979 -0.888942,0.15742 -2.35199,0.15742 -1.398189,0 -2.391446,-0.0638 -2.449282,-0.15742 z m 5.981913,-1.04881 1.101931,-0.28925 0.04184,-4.36837 c 0.03296,-3.44121 -4.72e-4,-4.36822 -0.157418,-4.36765 -0.109595,4.7e-4 -0.765972,0.22651 -1.458614,0.50247 -1.140002,0.4542 -1.423455,0.50255 -2.990957,0.51015 -1.820382,0.009 -2.653219,-0.17922 -4.181382,-0.94407 -1.892943,-0.94743 -3.757699,-3.16221 -4.404851,-5.23167 -0.433593,-1.38654 -0.471712,-3.80174 -0.08126,-5.14853 0.629393,-2.17097 2.009526,-4.06425 3.79554,-5.20675 1.844174,-1.17971 4.352608,-1.67809 6.349943,-1.26164 0.62923,0.1312 1.540529,0.42006 2.025109,0.64191 0.484581,0.22184 0.940689,0.34372 1.013574,0.27084 0.07288,-0.0729 0.113608,-2.00499 0.09049,-4.29358 l -0.04202,-4.16105 -0.787093,-0.2127 c -1.31207,-0.35456 -5.270677,-0.41816 -6.906339,-0.11095 -7.02968,1.32027 -12.667093,7.0139 -13.950089,14.0892 -0.260723,1.4378 -0.219691,4.57507 0.08022,6.13374 0.524962,2.72824 1.730487,5.23245 3.632573,7.54586 2.634073,3.20368 6.694035,5.50531 10.860223,6.15676 1.41661,0.22151 4.685842,0.082 5.968572,-0.25472 z m -1.170675,-9.00511 c 0.470711,-0.16347 1.117529,-0.42337 1.437375,-0.57756 l 0.581537,-0.28035 0.07768,-3.24148 c 0.09666,-4.0333 0.09665,-3.26341 9.8e-5,-7.37665 l -0.08229,-3.50551 -0.773413,-0.39192 c -2.344111,-1.18785 -5.218987,-1.14553 -7.577503,0.11155 -1.08627,0.57897 -2.78489,2.31015 -3.338326,3.4023 -1.937381,3.82324 -0.80633,8.32474 2.704339,10.76309 2.080133,1.44476 4.755771,1.86566 6.970498,1.09653 z m 17.136588,-0.32492 c 0.172238,-0.10901 -0.480436,-0.86368 -2.822877,-3.26403 -1.675803,-1.71722 -3.136158,-3.17658 -3.245235,-3.24302 -0.109076,-0.0664 -1.991093,-0.10185 -4.182258,-0.0787 l -3.983937,0.0421 -0.04489,2.67612 c -0.04938,2.9435 -0.01302,3.24789 0.442444,3.70334 0.299768,0.29977 0.54758,0.31075 6.961776,0.30843 3.669834,-0.001 6.751361,-0.066 6.874979,-0.14421 z m -3.028707,-11.29311 c 1.747484,-1.79532 3.142362,-3.32066 3.09973,-3.38964 -0.04263,-0.069 -3.185163,-0.12541 -6.983404,-0.12541 -6.068191,0 -6.935897,0.03 -7.153262,0.24737 -0.207762,0.20776 -0.247373,0.73292 -0.247373,3.27956 0,1.6677 0.04723,3.07941 0.104946,3.13713 0.05772,0.0577 1.881809,0.10725 4.053534,0.11008 l 3.948586,0.005 3.177243,-3.26422 z m 36.169575,21.69686 c -0.0823,-0.0729 -0.54315,-0.21657 -1.02421,-0.3193 -1.14951,-0.2455 -2.58502,-0.94488 -3.40669,-1.65977 -0.76584,-0.66631 -1.67182,-2.35832 -1.93085,-3.60607 -0.12143,-0.58491 -0.16097,-4.43886 -0.12964,-12.63484 l 0.0451,-11.79321 0.45079,-1.06545 c 0.83761,-1.97968 2.41259,-3.27872 4.74692,-3.91523 1.86461,-0.50844 5.74528,-0.50248 7.59647,0.0117 1.34789,0.37435 2.76585,1.17675 3.52734,1.99605 0.5082,0.54679 1.38809,2.18367 1.38809,2.5823 0,0.15716 0.0885,0.31525 0.19677,0.35133 0.26661,0.0889 0.29059,24.6258 0.0242,24.79919 -0.0949,0.0618 -0.21955,0.30452 -0.27702,0.53943 -0.18841,0.77009 -1.19508,2.29988 -1.88599,2.86603 -0.79356,0.65026 -2.06587,1.25891 -3.17411,1.51843 -0.4329,0.10138 -0.9101,0.24679 -1.06044,0.32314 -0.34889,0.17719 -4.88755,0.18283 -5.08676,0.006 z m 4.27013,-0.73642 c 3.07244,-0.42745 4.37393,-1.07331 5.54506,-2.75171 1.05621,-1.51368 1.05457,-1.49188 1.05457,-14.08897 0,-12.36996 -0.007,-12.47374 -0.89943,-13.98944 -0.56715,-0.96289 -0.91876,-1.32716 -1.83403,-1.90004 -1.80037,-1.1269 -4.94832,-1.55395 -7.9394,-1.07704 -2.16917,0.34585 -3.39368,0.89016 -4.38896,1.95093 -0.6516,0.69448 -1.38908,2.33857 -1.55076,3.45715 -0.19637,1.3586 -0.1895,21.49175 0.008,22.8562 0.196,1.35546 0.88735,2.88531 1.62968,3.60626 1.15878,1.12539 2.33649,1.57688 5.21513,1.9993 1.34997,0.19809 1.27568,0.19957 3.16033,-0.0626 z m -3.06241,-5.02736 c -0.67302,-0.22717 -1.22031,-0.85889 -1.43507,-1.65644 -0.11213,-0.41643 -0.15284,-3.93594 -0.12346,-10.67427 l 0.0438,-10.053 0.39355,-0.5778 c 0.70048,-1.02844 2.56559,-1.3394 4.12519,-0.68776 0.46927,0.19608 0.61231,0.37607 0.85589,1.07699 0.27669,0.79623 0.28821,1.39436 0.21374,11.10175 -0.0775,10.09846 -0.0839,10.26718 -0.40771,10.70447 -0.18094,0.24437 -0.52824,0.5419 -0.77177,0.66118 -0.56713,0.2778 -2.20597,0.33718 -2.8942,0.10488 z m 2.57657,-0.71468 c 0.865,-0.32888 0.86743,-0.36045 0.86743,-11.25882 0,-8.77759 -0.0303,-10.06763 -0.24658,-10.48581 -0.43377,-0.83881 -1.8475,-1.17171 -2.9751,-0.70057 -1.06265,0.444 -1.02862,0.0713 -1.02862,11.26785 0,8.73687 0.0322,10.15273 0.24017,10.55487 0.13209,0.25544 0.25606,0.46551 0.27548,0.46681 0.0194,10e-4 0.31867,0.10765 0.66499,0.23634 0.63803,0.23707 1.44417,0.20754 2.20223,-0.0807 z m -105.608769,5.78452 c -0.124189,-0.19481 -2.823616,-7.72139 -5.9987263,-16.72575 -3.1751106,-9.00435 -5.8732529,-16.57724 -5.9958717,-16.82863 -0.2624846,-0.53816 -0.2934115,-1.19581 -0.056234,-1.19581 0.09169,0 0.1275161,-0.0634 0.079614,-0.14093 -0.047903,-0.0775 0.024549,-0.18376 0.1610033,-0.23613 0.3564837,-0.13679 8.6133467,-0.11309 8.8016717,0.0253 0.08658,0.0636 0.185123,0.22192 0.218984,0.35179 0.03386,0.12987 0.621483,2.07792 1.305827,4.32901 0.684344,2.25109 1.518483,5.01379 1.853642,6.13933 2.141011,7.19003 2.744897,9.1471 2.863445,9.27984 0.08423,0.0943 0.190097,0.093 0.286636,-0.004 0.08419,-0.0842 1.461536,-4.52293 3.060767,-9.86388 1.599233,-5.34094 2.98503,-9.8553 3.07955,-10.03192 0.166563,-0.31122 0.303796,-0.32104 4.455977,-0.3187 2.494052,0.001 4.382788,0.0662 4.520252,0.15501 0.12987,0.0839 0.180507,0.15368 0.112526,0.15501 -0.06798,10e-4 -0.05228,0.13567 0.03489,0.29855 0.162717,0.30404 -0.114607,1.22058 -1.720391,5.68577 -0.973613,2.70732 -1.566988,4.38695 -1.890827,5.35224 -0.159753,0.47619 -0.655128,1.89296 -1.100833,3.14837 -0.767018,2.16046 -1.567185,4.43104 -5.353393,15.19091 -0.883516,2.51083 -1.701643,4.79537 -1.818062,5.07676 l -0.21167,0.51161 H 19.18005 c -3.179324,0 -3.235133,-0.006 -3.457287,-0.35419 z m 6.236444,-0.47226 c 0.13947,-0.10822 2.073638,-5.36798 4.29815,-11.68834 2.224511,-6.32037 4.851218,-13.77507 5.837127,-16.56601 0.985907,-2.79094 1.792559,-5.18174 1.792559,-5.31288 0,-0.20672 -0.531585,-0.23845 -3.994904,-0.23845 -4.184105,0 -4.200645,0.003 -4.397645,0.70839 -0.04834,0.17316 -1.327674,4.4943 -2.842973,9.60254 -1.515297,5.10824 -2.907002,9.97838 -3.092677,10.82254 -0.185676,0.84416 -0.393381,1.53483 -0.461568,1.53483 -0.06819,0 -0.283671,-0.76151 -0.478855,-1.69225 -0.30201,-1.44014 -2.145093,-7.85988 -3.152302,-10.97996 -0.167697,-0.51948 -0.841281,-2.75089 -1.496853,-4.95869 -0.655572,-2.2078 -1.264769,-4.2444 -1.35377,-4.52579 l -0.161821,-0.51161 H 8.3729931 c -2.79415,0 -4.0806797,0.0531 -4.0806797,0.16848 0,0.0927 1.3390709,3.97107 2.9757131,8.61868 1.6366423,4.64761 4.2659455,12.1338 5.8428965,16.63597 1.576951,4.50218 2.978699,8.27433 3.114997,8.38255 0.175788,0.13958 1.008114,0.19677 2.863757,0.19677 1.852565,0 2.689945,-0.0574 2.869528,-0.19677 z m 14.16569,0.64005 c -0.244209,-0.2442 -0.281138,-34.34665 -0.03789,-34.98645 l 0.153523,-0.40379 4.136138,0.002 c 2.274876,10e-4 4.206978,0.0545 4.293558,0.11806 0.08658,0.0636 0.192838,0.22192 0.236128,0.35179 0.04329,0.12987 0.09605,7.88668 0.117255,17.23735 0.03066,13.52098 -0.0025,17.08179 -0.161987,17.39477 l -0.200534,0.39355 -4.172392,0.0419 c -3.113197,0.0312 -4.220983,-0.007 -4.363801,-0.14955 z m 8.18057,-0.72393 c 0.07154,-0.0715 0.112038,-7.6705 0.09,-16.88658 l -0.04007,-16.75651 -3.896114,-0.0421 -3.896114,-0.0421 v 16.91373 c 0,15.97129 0.01535,16.91841 0.275482,16.99789 0.430613,0.13158 7.321017,-0.0385 7.466823,-0.18432 z m 48.220065,0.55376 c -1.114582,-0.63114 -1.180118,-0.92336 -1.180397,-5.2634 -3.15e-4,-4.23026 0.09931,-4.96989 0.878102,-6.52224 0.809884,-1.61431 2.156283,-3.15449 5.347627,-6.1173 3.186168,-2.958 4.099548,-3.98564 4.248578,-4.78009 0.0532,-0.28342 0.0735,-1.54829 0.0452,-2.81081 -0.0447,-1.99386 -0.0909,-2.33906 -0.35193,-2.62703 -0.68699,-0.75797 -2.528532,-0.73971 -2.959158,0.0294 -0.120305,0.21485 -0.229708,1.31908 -0.284826,2.87478 -0.100879,2.8473 -0.295988,3.42439 -1.322428,3.91147 -0.801351,0.38027 -3.606604,0.35418 -4.344555,-0.0404 -1.068045,-0.57108 -1.178185,-0.97778 -1.178185,-4.35057 0,-4.10467 0.355716,-5.37923 1.915403,-6.86303 1.678136,-1.59648 3.259062,-2.08673 6.742629,-2.0909 2.62345,-0.003 3.71795,0.20127 5.35934,1.00092 1.26516,0.61635 2.05017,1.42313 2.68378,2.7582 0.69864,1.47207 0.91113,3.1748 0.81458,6.52717 -0.0804,2.79304 -0.30346,3.81208 -1.17258,5.35794 -0.23144,0.41165 -2.13277,2.42287 -4.53892,4.80127 -4.788726,4.7335 -4.956516,4.96981 -4.956516,6.98063 0,0.82813 0.06838,1.30206 0.204129,1.41472 0.131688,0.10929 1.747757,0.18596 4.553947,0.21605 4.13755,0.0444 4.37149,0.0628 4.79391,0.37793 0.79502,0.59307 1.07422,1.26758 1.06983,2.5845 -0.004,1.3165 -0.28478,1.99187 -1.07001,2.57741 -0.43434,0.32388 -0.60345,0.33217 -7.55609,0.37063 l -7.111825,0.0393 z m 14.90859,-0.62172 c 0.55204,-0.36197 0.80284,-1.20099 0.72489,-2.42508 -0.075,-1.1786 -0.36846,-1.57727 -1.32397,-1.79891 -0.33774,-0.0784 -2.54443,-0.14414 -4.90374,-0.1462 l -4.289661,-0.004 v -2.0285 -2.02851 l 0.62253,-0.9231 c 0.342391,-0.5077 1.564354,-1.85183 2.715471,-2.98697 1.15112,-1.13512 2.84002,-2.79983 3.75311,-3.69934 1.82103,-1.79393 2.4816,-2.66013 3.00429,-3.93947 0.30312,-0.7419 0.3536,-1.21732 0.41599,-3.91761 0.0827,-3.57676 -0.0829,-4.96887 -0.74758,-6.28555 -0.45026,-0.89197 -1.38685,-1.85693 -2.2324,-2.30006 -0.97817,-0.51262 -2.78443,-0.86831 -4.48884,-0.88393 -3.115095,-0.0286 -4.899895,0.37256 -6.256498,1.4061 -1.736634,1.32306 -2.303652,2.88608 -2.412528,6.65025 -0.106881,3.69522 0.212053,4.17159 2.792918,4.17159 2.512894,0 2.800956,-0.40145 2.823881,-3.93547 0.01529,-2.35712 0.111816,-2.74434 0.814022,-3.26551 0.583317,-0.43293 2.219855,-0.4828 3.009795,-0.0917 1.00184,0.49599 1.13159,0.94139 1.13849,3.90819 0.006,2.44235 -0.0169,2.6444 -0.37903,3.3845 -0.40642,0.83076 -1.63335,2.12409 -4.101506,4.32345 -2.34882,2.09302 -3.761891,3.60067 -4.652863,4.96426 -1.246509,1.90773 -1.360057,2.41142 -1.446853,6.41809 -0.04083,1.88492 -0.0276,3.73817 0.02941,4.11833 0.13074,0.87184 0.695259,1.46523 1.47867,1.55429 0.317678,0.0361 3.485219,0.0578 7.038982,0.0481 5.81943,-0.0158 6.50228,-0.0444 6.87302,-0.28747 z"
       style="fill:#ffffff;stroke-width:0.15741876" />
  </g>
</svg>
