<?xml version="1.0" encoding="UTF-8" standalone="no"?>
<svg
   xmlns:dc="http://purl.org/dc/elements/1.1/"
   xmlns:cc="http://creativecommons.org/ns#"
   xmlns:rdf="http://www.w3.org/1999/02/22-rdf-syntax-ns#"
   xmlns:svg="http://www.w3.org/2000/svg"
   xmlns="http://www.w3.org/2000/svg"
   xmlns:sodipodi="http://sodipodi.sourceforge.net/DTD/sodipodi-0.dtd"
   xmlns:inkscape="http://www.inkscape.org/namespaces/inkscape"
   width="500"
   height="200"
   viewBox="0 0 500 200"
   version="1.1"
   id="svg52"
   sodipodi:docname="virtualboy.svg"
   inkscape:version="0.92.5 (2060ec1f9f, 2020-04-08)"
   style="fill:none">
  <metadata
     id="metadata58">
    <rdf:RDF>
      <cc:Work
         rdf:about="">
        <dc:format>image/svg+xml</dc:format>
        <dc:type
           rdf:resource="http://purl.org/dc/dcmitype/StillImage" />
        <dc:title />
      </cc:Work>
    </rdf:RDF>
  </metadata>
  <defs
     id="defs56" />
  <sodipodi:namedview
     pagecolor="#ffffff"
     bordercolor="#666666"
     borderopacity="1"
     objecttolerance="10"
     gridtolerance="10"
     guidetolerance="10"
     inkscape:pageopacity="0"
     inkscape:pageshadow="2"
     inkscape:window-width="1366"
     inkscape:window-height="743"
     id="namedview54"
     showgrid="false"
     inkscape:zoom="1.2250665"
     inkscape:cx="361.99401"
     inkscape:cy="157.56109"
     inkscape:window-x="0"
     inkscape:window-y="0"
     inkscape:window-maximized="1"
     inkscape:current-layer="svg52"
     inkscape:pagecheckerboard="true" />
  <path
     style="fill:#ffffff;stroke-width:0.81931919"
     d="M 44.201172 15.666016 C 30.842226 15.688356 22.642578 23.444725 22.642578 33.041016 C 22.642578 42.634864 30.790801 50.456291 44.201172 50.414062 L 203.02148 50.414062 C 216.4315 50.453854 224.58398 42.634864 224.58398 33.041016 C 224.58398 23.447246 216.38442 15.69032 203.02539 15.667969 L 44.201172 15.666016 z M 67.875 22.146484 L 75.398438 22.146484 L 75.398438 26.578125 L 67.875 26.578125 L 67.875 22.146484 z M 37.349609 22.150391 L 45.126953 22.150391 L 55.884766 37.271484 L 55.878906 22.150391 L 63.595703 22.150391 L 63.595703 43.833984 L 55.890625 43.833984 L 45.076172 28.712891 L 45.076172 43.833984 L 37.347656 43.833984 L 37.349609 22.150391 z M 178.60547 22.150391 L 186.01367 22.150391 L 186.01172 43.833984 L 178.59375 43.833984 C 178.59375 43.833984 178.58984 43.134095 178.58984 43 C 175.71796 44.566684 172.4769 44.563989 169.95312 43.541016 C 169.27537 43.267939 164.82031 41.41046 164.82031 36.392578 C 164.82031 32.586364 168.95268 28.429659 174.36328 28.841797 C 176.14337 28.978412 177.41141 29.542964 178.61133 30.128906 C 178.60633 26.791948 178.60547 22.150391 178.60547 22.150391 z M 211.4707 22.320312 C 213.591 22.320312 215.3125 23.813965 215.3125 25.65625 C 215.3125 27.498533 213.591 28.994141 211.4707 28.994141 C 209.34954 28.994141 207.62891 27.498533 207.62891 25.65625 C 207.62891 23.813965 209.34954 22.320312 211.4707 22.320312 z M 211.4707 22.960938 C 209.75566 22.960938 208.36328 24.170446 208.36328 25.660156 C 208.36328 27.149942 209.75566 28.357422 211.4707 28.357422 C 213.18574 28.357422 214.57812 27.149942 214.57812 25.660156 C 214.57812 24.168002 213.18574 22.960938 211.4707 22.960938 z M 209.89648 23.765625 L 211.56641 23.765625 C 212.7804 23.765625 213.38281 24.122414 213.38281 24.830078 C 213.38281 25.316671 213.03526 25.68386 212.45508 25.810547 L 213.40625 27.462891 L 212.25391 27.462891 L 211.43945 25.947266 L 210.93359 25.947266 L 210.93359 27.462891 L 209.89648 27.462891 L 209.89648 23.765625 z M 210.93359 24.332031 L 210.93359 25.40625 L 211.43945 25.40625 C 212.03194 25.40625 212.31641 25.250276 212.31641 24.882812 C 212.31641 24.497939 212.01193 24.332031 211.38867 24.332031 L 210.93359 24.332031 z M 105.54883 24.380859 L 113.05859 24.380859 L 113.05859 27.298828 L 117.12305 27.298828 L 117.12305 29.443359 L 113.05859 29.443359 L 113.06445 43.833984 L 105.54883 43.833984 L 105.55078 29.443359 L 101.46875 29.443359 L 101.46875 27.302734 L 105.55273 27.300781 L 105.54883 24.380859 z M 199.42578 28.429688 C 205.48512 28.429688 210.39648 32.055693 210.39648 36.527344 C 210.39648 40.998994 205.48512 44.623047 199.42578 44.623047 C 193.36907 44.623047 188.45703 40.998994 188.45703 36.527344 C 188.45703 32.055693 193.36644 28.429688 199.42578 28.429688 z M 127.17969 28.507812 C 133.28474 28.507812 138.25391 32.211943 138.25391 36.683594 C 138.25391 36.691094 124.11523 36.685547 124.11523 36.685547 C 124.11523 36.685547 124.10935 38.872505 124.10938 39.662109 C 124.10938 42.298885 126.14151 42.884766 127.25 42.884766 C 128.35937 42.884766 130.35742 42.298885 130.35742 39.662109 C 130.35742 38.85265 130.35156 38.789062 130.35156 38.789062 L 137.82812 38.783203 C 136.52273 42.187207 132.24394 44.697266 127.17969 44.697266 C 121.07464 44.697266 116.12695 41.075166 116.12695 36.603516 C 116.12695 32.131865 121.07464 28.507812 127.17969 28.507812 z M 92.96875 28.748047 C 95.775401 28.678477 101.46979 30.274362 101.42969 35.982422 C 101.42469 36.995468 101.42578 43.830078 101.42578 43.830078 L 93.96875 43.830078 L 93.96875 34.359375 C 93.96875 33.10311 92.585515 31.705078 90.539062 31.705078 C 88.495525 31.705078 86.976562 33.10311 86.976562 34.359375 C 86.976562 34.975174 86.984375 43.830078 86.984375 43.830078 L 79.533203 43.830078 L 79.529297 29.412109 L 86.986328 29.40625 C 86.986328 29.40625 86.977728 30.566291 86.986328 30.923828 C 88.421125 29.734458 90.487881 28.810055 92.96875 28.748047 z M 153.96875 28.748047 C 156.77558 28.678477 162.46729 30.274362 162.42773 35.982422 C 162.42173 36.995468 162.42578 43.830078 162.42578 43.830078 L 154.96875 43.830078 L 154.96875 34.359375 C 154.96875 33.10311 153.5855 31.705078 151.53906 31.705078 C 149.49524 31.705078 147.97461 33.10311 147.97461 34.359375 C 147.97461 34.975174 147.98438 43.830078 147.98438 43.830078 L 140.5332 43.830078 L 140.53906 29.412109 L 147.98828 29.40625 C 147.98828 29.40625 147.97828 30.566291 147.98828 30.923828 C 149.42291 29.734458 151.49068 28.810055 153.96875 28.748047 z M 67.892578 29.414062 L 75.398438 29.416016 L 75.398438 43.833984 L 67.892578 43.833984 L 67.892578 29.414062 z M 199.37305 30.21875 C 197.87865 30.21875 196.30664 31.160053 196.30664 33.449219 C 196.30664 34.323205 196.30078 36.455078 196.30078 36.455078 C 196.30078 36.455078 196.29883 38.690465 196.29883 39.564453 C 196.29883 41.863545 197.86635 42.810547 199.37305 42.810547 C 200.87625 42.810547 202.44141 41.863545 202.44141 39.564453 L 202.43945 39.564453 C 202.43945 38.690466 202.44141 36.509766 202.44141 36.509766 L 202.44531 36.517578 C 202.43731 36.047252 202.43845 34.89153 202.43945 34.005859 L 202.43945 33.449219 C 202.43945 31.160053 200.87096 30.21875 199.37305 30.21875 z M 127.25 30.296875 C 126.273 30.302812 125.1964 30.725438 124.61133 31.613281 C 124.13402 32.333317 124.10379 33.177657 124.11523 34.441406 L 130.37695 34.443359 C 130.38835 33.179534 130.36675 32.335837 129.89062 31.613281 C 129.30517 30.724861 128.22858 30.302296 127.25195 30.296875 L 127.25 30.296875 z M 175.7207 31.175781 C 174.52606 31.175781 172.77734 31.745008 172.77734 33.974609 C 172.77734 34.714502 172.78125 36.544922 172.78125 36.544922 C 172.78125 36.544922 172.77734 38.342221 172.77734 39.109375 C 172.77734 41.336533 174.52675 41.919922 175.71875 41.919922 C 176.88789 41.919922 178.66211 41.336533 178.66211 39.109375 C 178.66211 38.183308 178.66016 36.552734 178.66016 36.552734 L 178.66016 33.974609 C 178.66016 31.745008 176.8872 31.175781 175.7207 31.175781 z "
     id="path4" />
  <path
     d="M 16,65.951607 40.638451,184.08527 65.149259,65.951607 H 51.883043 L 40.638451,132.34707 29.267031,65.951607 Z"
     id="path28"
     inkscape:connector-curvature="0"
     style="fill:#ffffff;stroke-width:1.01706707" />
  <path
     d="M 70.581923,65.952116 H 83.848038 V 184.08629 H 70.581923 Z"
     id="path30"
     inkscape:connector-curvature="0"
     style="fill:#ffffff;stroke-width:1.01706707" />
  <path
     d="m 95.71711,65.93869 v 118.15166 h 13.2711 v -61.04639 l 18.45488,61.04538 h 12.23531 l -14.76475,-55.86139 c 8.20264,-4.92057 10.61716,-11.36267 10.61716,-11.36267 V 79.333261 C 130.09561,67.267285 120.72435,65.93869 120.72435,65.93869 Z m 13.2711,12.026209 h 13.27089 v 41.056561 h -13.27089 z"
     id="path32"
     inkscape:connector-curvature="0"
     style="fill:#ffffff;stroke-width:1.01706707" />
  <path
     d="m 139.69367,65.952116 h 39.67375 V 77.954321 H 166.09977 V 184.08527 h -13.2656 V 77.955135 h -13.1405 z"
     id="path34"
     inkscape:connector-curvature="0"
     style="fill:#ffffff;stroke-width:1.01706707" />
  <path
     d="m 252.77017,65.93869 -25.63112,118.02657 v 0.12408 h 13.14662 l 2.77863,-15.92422 h 18.53808 l 2.65352,15.92422 h 13.27069 z m 0,50.92556 6.0546,40.68269 h -13.10593 z"
     id="path36"
     inkscape:connector-curvature="0"
     style="fill:#ffffff;stroke-width:1.01706707" />
  <path
     d="m 282.84382,65.952116 h 13.26765 V 172.08185 h 19.83789 v 12.00342 h -33.10351 z"
     id="path38"
     inkscape:connector-curvature="0"
     style="fill:#ffffff;stroke-width:1.01706707" />
  <path
     d="m 424.73283,65.952116 h 12.12852 l 12.38177,50.919264 11.2447,-50.919264 h 13.3907 l -18.57164,69.489894 v 48.64326 h -13.26663 v -48.64224 z"
     id="path40"
     inkscape:connector-curvature="0"
     style="fill:#ffffff;stroke-width:1.01706707" />
  <path
     d="m 400.9243,65.951811 c -15.07802,0 -19.92537,13.382162 -19.92537,13.382162 0.12408,0.189785 0,88.834197 0,91.361607 1.99956,14.35997 19.92537,13.38969 19.92537,13.38969 19.89179,0 19.88569,-13.38969 19.88569,-13.38969 V 79.333159 C 415.66668,65.289598 400.9243,65.951811 400.9243,65.951811 Z m -6.65569,13.381348 h 13.27171 v 92.729361 h -13.27171 z"
     id="path42"
     inkscape:connector-curvature="0"
     style="fill:#ffffff;stroke-width:1.01706707" />
  <path
     d="m 184.54633,65.952116 h 13.39375 V 170.69355 h 13.39274 V 65.952116 h 13.13949 V 170.69355 c 0,0 -4.2961,13.39274 -19.33037,13.39274 -15.03531,0 -20.59561,-13.39274 -20.59561,-13.39274 z"
     id="path44"
     inkscape:connector-curvature="0"
     style="fill:#ffffff;stroke-width:1.01706707" />
  <path
     d="m 330.61139,65.93869 v 118.15166 h 26.66548 c 12.37669,-3.22308 13.14558,-12.02783 13.14558,-12.02783 0,0 -0.0203,-31.55756 -0.0203,-39.71545 -0.92858,-5.14942 -5.16264,-5.32231 -5.16264,-5.32231 0,0 -0.0173,-1.4361 0,-2.57115 4.67852,-0.358 5.18399,-5.43317 5.18399,-5.43317 0,0 -0.0193,-31.527046 0,-39.687992 C 368.39853,69.695737 357.2769,65.93869 357.2769,65.93869 Z m 13.31139,13.476648 h 13.35306 v 39.605102 h -13.35306 z m -0.0406,51.592262 h 13.39375 v 41.05492 h -13.39375 z"
     id="path46"
     inkscape:connector-curvature="0"
     style="fill:#ffffff;stroke-width:1.01706707" />
  <path
     d="m 463.33255,172.08286 h 9.22073 v 1.37203 h -3.91571 v 10.63038 h -1.32829 v -10.63038 h -3.97876 v -1.37203 z"
     id="path48"
     inkscape:connector-curvature="0"
     style="fill:#ffffff;stroke-width:1.01706707" />
  <path
     d="m 473.88157,184.08527 v -12.00241 h 1.32728 l 4.73851,10.70769 4.54731,-10.70769 h 1.39033 v 12.00241 h -1.39033 v -9.28989 l -3.92079,9.28989 h -1.3405 l -4.0225,-9.28989 v 9.28989 z"
     id="path50"
     inkscape:connector-curvature="0"
     style="fill:#ffffff;stroke-width:1.01706707" />
</svg>
