<?xml version="1.0" encoding="UTF-8" standalone="no"?>
<svg
   xmlns:dc="http://purl.org/dc/elements/1.1/"
   xmlns:cc="http://creativecommons.org/ns#"
   xmlns:rdf="http://www.w3.org/1999/02/22-rdf-syntax-ns#"
   xmlns:svg="http://www.w3.org/2000/svg"
   xmlns="http://www.w3.org/2000/svg"
   xmlns:sodipodi="http://sodipodi.sourceforge.net/DTD/sodipodi-0.dtd"
   xmlns:inkscape="http://www.inkscape.org/namespaces/inkscape"
   width="500"
   height="200"
   viewBox="0 0 500 200"
   version="1.1"
   id="svg152"
   sodipodi:docname="wonderswan.svg"
   style="fill:none"
   inkscape:version="0.92.5 (2060ec1f9f, 2020-04-08)">
  <metadata
     id="metadata158">
    <rdf:RDF>
      <cc:Work
         rdf:about="">
        <dc:format>image/svg+xml</dc:format>
        <dc:type
           rdf:resource="http://purl.org/dc/dcmitype/StillImage" />
        <dc:title />
      </cc:Work>
    </rdf:RDF>
  </metadata>
  <defs
     id="defs156" />
  <sodipodi:namedview
     pagecolor="#ffffff"
     bordercolor="#666666"
     borderopacity="1"
     objecttolerance="10"
     gridtolerance="10"
     guidetolerance="10"
     inkscape:pageopacity="0"
     inkscape:pageshadow="2"
     inkscape:window-width="1366"
     inkscape:window-height="743"
     id="namedview154"
     showgrid="false"
     inkscape:pagecheckerboard="true"
     inkscape:zoom="1.6223955"
     inkscape:cx="238.67523"
     inkscape:cy="74.459302"
     inkscape:window-x="0"
     inkscape:window-y="0"
     inkscape:window-maximized="1"
     inkscape:current-layer="svg152" />
  <path
     d="m 178.11558,110.81339 c -0.30208,0.41419 -0.63773,0.80597 -0.89534,1.24257 -1.65642,2.78739 -3.28012,5.59718 -4.93655,8.38458 -0.22404,0.38062 -0.49256,0.78357 -0.83996,1.04109 -1.91403,1.35451 -3.85073,2.66421 -5.79833,3.97391 -0.23495,0.15675 -0.54878,0.2911 -0.82821,0.2911 -5.52981,0.0112 -11.04871,0.0112 -16.88144,0.0112 0.89535,-0.8507 1.61195,-1.52242 2.38479,-2.26118 3.17859,0 6.40333,-0.0672 9.61548,0.0223 2.48548,0.0672 4.14191,-1.32086 5.48534,-3.03359 1.64552,-2.1046 2.97804,-4.4554 4.4893,-6.6607 1.47769,-2.16048 3.36907,-3.71646 6.16754,-3.77243 0.68304,-0.0112 1.35518,-0.0896 2.03738,-0.14559 0,0.30225 0,0.6045 0,0.90676 z"
     id="path124"
     inkscape:connector-curvature="0"
     style="fill:#ffffff;stroke-width:0.8391211" />
  <path
     d="m 72.987637,125.67951 c -2.473981,0 -4.891909,0 -7.578606,0 2.05979,-2.58584 4.041207,-5.05982 6.123318,-7.6793 -3.447865,0 -6.716577,0 -10.164442,0 -2.171729,2.30607 -5.115785,1.83591 -8.250238,1.75753 2.854606,-3.39189 5.574785,-6.60463 8.059926,-9.55993 6.257661,0 12.246636,0 18.481809,0 -0.514884,1.67916 -0.917914,2.98886 -1.354509,4.39934 1.074663,0 2.04863,0 3.34717,0 -2.977705,3.82849 -5.821067,7.45542 -8.664428,11.08236 z m -6.828516,-13.14215 c -0.873189,0.97397 -1.70157,1.91429 -2.664293,3.00011 3.36949,0 6.470294,0 9.86219,0 0.06721,-0.64923 0.380625,-1.43288 0.123183,-1.92545 -0.268687,-0.51488 -1.074663,-0.98504 -1.679166,-1.02985 -1.835913,-0.1231 -3.694146,-0.0448 -5.641914,-0.0448 z"
     id="path126"
     inkscape:connector-curvature="0"
     style="fill:#ffffff;stroke-width:0.8391211" />
  <path
     d="m 126.74459,125.74664 c 1.06317,-0.88435 1.85865,-1.55599 2.59708,-2.18289 0.15691,-0.0336 0.23495,-0.0784 0.30208,-0.0671 2.14983,0.35822 3.63843,-0.61575 4.99277,-2.18289 1.77978,-2.04863 3.7836,-3.91803 5.59694,-5.93301 0.35831,-0.40303 0.63857,-1.24257 0.44809,-1.668 -0.22404,-0.50373 -0.97422,-1.06342 -1.51126,-1.08583 -3.62668,-0.0895 -7.26511,-0.0448 -11.02605,-0.0448 0.17874,1.11948 0.34656,2.13817 0.52613,3.30237 -0.33649,0.6269 -0.72835,1.3545 -1.14204,2.11576 -1.47769,0 -2.94448,0 -4.4893,0 -0.38012,-2.6643 -0.76108,-5.30619 -1.15295,-8.09358 0.38096,0 0.7057,0 1.01869,0 7.11994,0.10078 14.23905,0.17915 21.3699,0.30225 0.8173,0.0112 1.69083,0.0896 2.45191,0.36947 2.31681,0.85078 2.83203,3.43662 1.08582,5.13819 -2.75399,2.69786 -5.52981,5.37323 -8.27289,8.09349 -1.34344,1.3321 -2.89917,1.98141 -4.79054,1.94777 -2.55261,-0.0336 -5.10522,-0.0112 -8.00438,-0.0112 z"
     id="path128"
     inkscape:connector-curvature="0"
     style="fill:#ffffff;stroke-width:0.8391211" />
  <path
     d="m 5.59648,112.59333 c 0.3582124,1.97017 1.0298785,3.87321 -0.7724109,5.41804 -1.3321215,0 -2.7649963,0 -4.29862442,0 -0.38060347,-2.67546 -0.75001562,-5.31735 -1.1418172,-8.04877 0.33582968,-0.0223 0.6156883187,-0.056 0.90673746,-0.056 7.19795556,0.0896 14.39589406,0.17915 21.59387406,0.30225 0.783572,0.0112 1.611952,0.10078 2.328394,0.36947 2.317232,0.86194 2.832201,3.42546 1.074662,5.13819 -2.753828,2.69786 -5.529976,5.37323 -8.272643,8.09349 -1.343265,1.3321 -2.899331,1.97017 -4.79113,1.94777 -2.5522695,-0.0336 -5.1158101,-0.0112 -8.0039474,-0.0112 1.0522663,-0.88435 1.847065,-1.55599 2.5970882,-2.18289 0.1455204,-0.0336 0.2238859,-0.0671 0.2910491,-0.056 2.14935,0.35822 3.6381181,-0.60451 5.0038711,-2.18289 1.77986,-2.04855 3.772437,-3.91803 5.59719,-5.93301 0.358221,-0.40303 0.649228,-1.23132 0.458915,-1.65676 -0.212717,-0.50372 -0.962723,-1.08582 -1.500013,-1.09707 -3.615772,-0.10069 -7.2539495,-0.0447 -11.071195,-0.0447 z"
     id="path130"
     inkscape:connector-curvature="0"
     style="fill:#ffffff;stroke-width:0.8391211" />
  <path
     d="m 111.77719,118.79502 c 3.03342,2.30599 5.89902,4.48888 9.02223,6.86208 -2.74225,0 -5.1606,0 -7.73502,0 -1.836,-1.41048 -3.81716,-2.92173 -5.83189,-4.46656 -2.56352,1.35451 -5.08256,2.72027 -7.646073,4.01881 -0.582355,0.291 -1.276308,0.47016 -1.925787,0.49256 -2.08186,0.056 -4.163719,0.0224 -6.358021,-0.20156 6.963027,-3.5374 13.936961,-7.08595 20.877331,-10.61219 0.39187,-1.54482 -0.23495,-2.33964 -1.93669,-2.36196 -3.60402,-0.0336 -7.19798,-0.0224 -10.802003,-0.0336 -0.448093,0 -0.896184,0 -1.523007,0 0.291175,-0.90667 0.537876,-1.67908 0.806395,-2.51871 0.828212,0.0336 1.611955,0.10078 2.395695,0.10078 4.9248,0.0336 9.85044,0.0448 14.78699,0.10078 0.8173,0.0112 1.66817,0.15667 2.441,0.41419 0.96248,0.32457 1.60021,1.07458 1.60021,2.12692 0.0117,1.05226 -0.33565,1.97017 -1.39882,2.50746 -2.23877,1.13064 -4.42217,2.32848 -6.77254,3.57105 z"
     id="path132"
     inkscape:connector-curvature="0"
     style="fill:#ffffff;stroke-width:0.8391211" />
  <path
     d="m 55.222436,109.86191 c -0.257526,0.49256 -0.41419,0.82838 -0.604503,1.14179 -1.791104,3.05608 -3.559803,6.13448 -5.406876,9.16815 -0.41419,0.68288 -1.018693,1.29854 -1.668005,1.7687 -1.802264,1.30978 -3.537399,3.00011 -5.574701,3.62702 -2.04863,0.62682 -4.432993,0.16791 -6.660692,0.17907 -3.067239,0.0112 -6.145639,0 -9.212878,0 -0.358221,0 -0.727686,0 -1.410478,0 0.962723,-0.88435 1.690325,-1.55599 2.451492,-2.26127 3.223987,0 6.447974,-0.0671 9.660717,0.0224 2.406767,0.0672 4.029963,-1.2873 5.328503,-2.91049 1.71273,-2.14933 3.044918,-4.58966 4.623305,-6.85093 1.466448,-2.10459 3.335842,-3.66058 6.100914,-3.7053 0.727602,-0.0112 1.466448,-0.10078 2.373202,-0.17915 z"
     id="path134"
     inkscape:connector-curvature="0"
     style="fill:#ffffff;stroke-width:0.8391211" />
  <path
     d="m 93.215825,120.55248 c -4.030298,0 -7.948155,0 -12.067904,0 0.727686,-1.3097 1.376914,-2.4739 2.037386,-3.63818 3.996398,0 7.926002,0 12.045248,0 -0.693953,1.26497 -1.343433,2.42917 -2.01473,3.63818 z"
     id="path136"
     inkscape:connector-curvature="0"
     style="fill:#ffffff;stroke-width:0.8391211" />
  <path
     d="m 40.278277,113.26505 c -3.90678,0 -7.6793,0 -11.686859,0 0.88435,-1.13064 1.656761,-2.12693 2.429172,-3.11205 3.850894,0 7.634575,0 11.675698,0 -0.873189,1.13063 -1.634356,2.11576 -2.418011,3.11205 z"
     id="path138"
     inkscape:connector-curvature="0"
     style="fill:#ffffff;stroke-width:0.8391211" />
  <path
     d="m 163.49641,113.26505 c -3.89603,0 -7.67963,0 -11.68727,0 0.88443,-1.13064 1.66817,-2.12693 2.42925,-3.10089 3.83982,0 7.63516,0 11.67553,0 -0.87268,1.11947 -1.64551,2.1046 -2.41751,3.10089 z"
     id="path140"
     inkscape:connector-curvature="0"
     style="fill:#ffffff;stroke-width:0.8391211" />
  <path
     d="m 84.170939,109.5709 c 0.771991,0 1.410563,0 2.216119,0 -0.448091,1.42164 -0.873525,2.75383 -1.309868,4.13074 -0.71661,0 -1.387907,0 -2.205127,0 0.43626,-1.38816 0.861694,-2.72026 1.298876,-4.13074 z"
     id="path142"
     inkscape:connector-curvature="0"
     style="fill:#ffffff;stroke-width:0.8391211" />
  <path
     d="m 79.682732,113.6904 c 0.447839,-1.41048 0.873189,-2.75375 1.29854,-4.08594 0.761251,0 1.410479,0 2.205294,0 -0.447755,1.41048 -0.861945,2.72027 -1.287296,4.08594 -0.705281,0 -1.399318,0 -2.216538,0 z"
     id="path144"
     inkscape:connector-curvature="0"
     style="fill:#ffffff;stroke-width:0.8391211" />
  <path
     d="m 193.03012,71.951592 9.16488,-10.80851 h -13.52495 l -3.37411,5.43293 -4.7318,4.46035 h -14.38338 l -11.9516,7.36295 -3.28851,12.28146 c -0.7292,2.70306 1.6581,4.88948 5.31835,4.88948 h 23.2898 l 9.92177,0.24343 5.24702,-19.85881 c 0.4439,-1.62915 -0.25509,-3.08822 -1.68663,-3.98784 z m -15.8124,19.82893 -5.01878,0.12126 h -6.61899 c -0.90037,0 -1.50119,-0.57153 -1.33,-1.21581 l 3.23145,-12.28154 5.97622,-3.67585 h 6.69115 c 0.88611,0 1.50119,0.51471 1.31491,1.21588 l -4.24596,15.84034 z m 246.324,3.76103 -8.19234,-0.0431 5.57596,-20.80181 h -4.99025 c -4.54636,0 -9.07846,2.75987 -9.96457,6.11854 l -1.33,4.88955 c -0.84248,3.40432 2.14479,6.16217 6.69115,6.16217 h 3.90359 l -4.8753,3.67569 h -8.27792 c -7.33476,0 -12.19579,-4.4178 -10.75166,-9.8366 l 1.3728,-4.88947 c 1.51545,-5.40419 8.62113,-9.79338 15.94078,-9.79338 h 13.26818 l 13.43853,-0.49853 -6.63409,24.81911 -5.1757,0.20273 z m -94.33064,-32.01337 h -18.37172 c -1.81585,0 -3.80289,1.64541 -4.36091,3.73247 l -0.52864,1.92914 c -0.52781,2.08715 0.47242,3.73241 2.31681,3.73241 h 14.99761 c 4.56062,0 7.20553,4.21768 5.76141,9.46453 l -1.04303,3.71639 c -1.42986,5.23284 -6.39075,9.45043 -10.95137,9.45043 h -50.65438 l 6.5485,-5.64737 h 37.37193 c 1.83013,0 3.7601,-1.73052 4.33155,-3.80139 l 0.51522,-1.87241 c 0.57144,-2.08698 -0.47243,-3.78914 -2.30255,-3.78914 h -15.01104 c -4.56062,0 -7.06204,-4.21775 -5.70434,-9.37877 l 1.04302,-3.80139 c 1.41644,-5.16098 6.31942,-9.37867 10.95221,-9.37867 h 18.1997 l 14.0687,-0.85889 -7.177,6.50539 z m -83.00586,32.01144 h -8.32072 l 4.58915,-17.14241 11.95244,-7.37713 h 19.94339 c 5.49037,0 9.02139,3.30295 7.93473,7.37713 l -0.0319,0.0862 -5.9049,3.67569 h -8.33499 l 1.01534,-3.77303 c 0.60081,-2.07095 -1.28637,-3.70413 -4.00345,-3.70413 h -3.34474 l -5.97622,3.70413 -4.47503,16.94261 -5.04731,0.20257 z m -106.2151,0.003 h -8.33499 l 4.58915,-17.14241 c 0.55801,-2.07095 -1.27211,-3.70413 -3.98834,-3.70413 h -8.33499 l -3.94639,14.96807 -6.56193,5.87628 h -8.33583 l 6.71969,-25.07755 13.05336,0.55969 h 16.71278 c 5.49037,0 9.03565,3.30295 7.93473,7.37714 l -4.45993,16.94252 -5.04731,0.20274 z m 328.34472,0.003 h -8.35009 l 4.60425,-17.1424 c 0.55718,-2.07078 -1.27294,-3.70413 -3.98918,-3.70413 h -8.34925 l -3.93128,14.96799 -6.57704,5.87645 h -8.32072 l 6.70542,-25.07756 13.06763,0.55961 h 16.71277 c 5.50464,0 9.03566,3.30295 7.949,7.37697 l -4.4742,16.94252 -5.04731,0.20265 z m -259.46379,-4.88998 1.17309,-4.46068 h 16.59865 l 11.95244,-7.36295 0.71494,-2.91788 c 0.72919,-2.70314 -1.65811,-4.88947 -5.31835,-4.88947 h -23.23275 l -11.9516,7.37705 -1.12946,4.21759 c -0.0428,0.12117 -0.0537,0.24334 -0.0864,0.3646 l -2.0441,7.66319 c -0.72919,2.68686 1.65811,4.88947 5.31835,4.88947 h 22.58998 l 5.97622,-3.67569 h -19.24443 c -0.88611,0 -1.50119,-0.55969 -1.3149,-1.21588 z m 3.20292,-12.25276 5.97622,-3.70405 h 8.82084 c 0.87185,0 1.50119,0.51464 1.31491,1.21572 l -0.80052,2.91796 -5.96196,3.67569 h -10.45125 l 1.10092,-4.1033 z M 90.49036,95.544912 H 67.186541 c -3.659911,0 -6.033281,-2.2006 -5.318517,-4.88956 l 3.288347,-12.25277 11.952189,-7.37713 h 23.23225 c 3.66024,0 6.03328,2.1886 5.31834,4.88964 l -3.23145,12.26594 z m -1.371963,-7.36329 3.273411,-12.26594 c 0.198872,-0.70125 -0.414526,-1.2158 -1.314902,-1.2158 h -6.691152 l -5.961871,3.70413 -3.231204,12.25285 c -0.170509,0.65619 0.428875,1.21563 1.315574,1.21563 h 6.619407 l 5.990737,-3.68777 z m 286.041273,7.36387 h -44.92066 l 5.60448,-20.97416 5.77568,-3.55821 8.17807,-0.54258 -5.74714,21.51624 h 3.15929 l 5.77567,-3.54613 3.71731,-13.86823 5.7614,-3.5583 8.19234,-0.54249 -4.81823,17.97054 -2.30171,3.54604 h 4.51783 l 5.81846,-3.54604 3.66025,-13.86715 5.77567,-3.5583 8.19234,-0.54366 -4.8325,17.97171 -11.50855,7.10584 z m -329.253995,0.005 H -0.61637252 l 7.54875852,-33.84069 5.99046,-4.43201 8.449446,-0.57152 -7.69172,34.42721 h 3.288348 l 5.97622,-4.43199 5.590057,-24.99144 5.976136,-4.43201 8.463795,-0.57149 -6.705332,29.99469 -2.373287,4.4319 h 4.675164 l 6.033196,-4.4319 5.518564,-24.99139 5.976137,-4.43201 8.463794,-0.57154 -6.705332,29.99469 -11.952105,8.84996"
     id="path146"
     inkscape:connector-curvature="0"
     style="fill:#ffffff;stroke-width:0.8391211" />
  <path
     d="m 481.03913,86.075512 h 7.63852 v 1.44001 h -2.99985 v 8.31746 h -1.62958 v -8.31746 h -3.00909 z"
     id="path148"
     inkscape:connector-curvature="0"
     style="fill:#ffffff;stroke-width:0.8391211" />
  <path
     d="m 489.84571,86.075512 h 2.34366 l 2.35038,7.80701 2.38982,-7.80701 h 2.36213 v 9.75747 h -1.54986 v -8.0627 l -2.4259,8.0627 h -1.59265 l -2.38311,-8.0627 v 8.0627 h -1.49447 z"
     id="path150"
     inkscape:connector-curvature="0"
     style="fill:#ffffff;stroke-width:0.8391211" />
</svg>
