<?xml version="1.0" encoding="UTF-8" standalone="no"?>
<!-- Created with Inkscape (http://www.inkscape.org/) -->

<svg
   xmlns:dc="http://purl.org/dc/elements/1.1/"
   xmlns:cc="http://creativecommons.org/ns#"
   xmlns:rdf="http://www.w3.org/1999/02/22-rdf-syntax-ns#"
   xmlns:svg="http://www.w3.org/2000/svg"
   xmlns="http://www.w3.org/2000/svg"
   xmlns:sodipodi="http://sodipodi.sourceforge.net/DTD/sodipodi-0.dtd"
   xmlns:inkscape="http://www.inkscape.org/namespaces/inkscape"
   version="1.1"
   id="svg2"
   xml:space="preserve"
   width="500"
   height="200"
   viewBox="0 0 500 200"
   sodipodi:docname="zelda.svg"
   inkscape:version="0.92.5 (2060ec1f9f, 2020-04-08)"><metadata
     id="metadata8"><rdf:RDF><cc:Work
         rdf:about=""><dc:format>image/svg+xml</dc:format><dc:type
           rdf:resource="http://purl.org/dc/dcmitype/StillImage" /><dc:title /></cc:Work></rdf:RDF></metadata><defs
     id="defs6"><clipPath
   clipPathUnits="userSpaceOnUse"
   id="clipPath18"><path
     d="M 0,396.85 H 595.28 V 0 H 0 Z"
     id="path16"
     inkscape:connector-curvature="0" /></clipPath><clipPath
   clipPathUnits="userSpaceOnUse"
   id="clipPath34"><path
     d="m 175.135,266.175 c 0,0 -9.999,-16.667 -40.167,-28 v 0 l -4.916,-12.75 -5.334,0.083 c 0,0 -5.749,-10.584 -37.416,-24.833 v 0 h 33.083 c 0,-1 -14.388,-46.875 -33.756,-65.5 v 0 c 0,0 59.756,10.5 77.006,85.249 v 0 l 5.5,16.001 h 38 l 19.25,29.75 z"
     id="path32"
     inkscape:connector-curvature="0" /></clipPath><linearGradient
   x1="0"
   y1="0"
   x2="1"
   y2="0"
   gradientUnits="userSpaceOnUse"
   gradientTransform="matrix(91.663811,158.7664,158.7664,-91.663811,96.746582,129.33301)"
   spreadMethod="pad"
   id="linearGradient50"><stop
     style="stop-opacity:1;stop-color:#295da9"
     offset="0"
     id="stop40" /><stop
     style="stop-opacity:1;stop-color:#295da9"
     offset="0.0052356"
     id="stop42" /><stop
     style="stop-opacity:1;stop-color:#295da9"
     offset="0.33581042"
     id="stop44" /><stop
     style="stop-opacity:1;stop-color:#272e65"
     offset="0.795811"
     id="stop46" /><stop
     style="stop-opacity:1;stop-color:#272e65"
     offset="1"
     id="stop48" /></linearGradient><clipPath
   clipPathUnits="userSpaceOnUse"
   id="clipPath60"><path
     d="M 0,396.85 H 595.28 V 0 H 0 Z"
     id="path58"
     inkscape:connector-curvature="0" /></clipPath><clipPath
   clipPathUnits="userSpaceOnUse"
   id="clipPath72"><path
     d="m 191.189,251.41 -2.814,-6.94 7.784,-0.094 -7.316,-19.037 h 8.722 l 7.315,19.131 h 7.034 l 2.721,6.94 z"
     id="path70"
     inkscape:connector-curvature="0" /></clipPath><linearGradient
   x1="0"
   y1="0"
   x2="1"
   y2="0"
   gradientUnits="userSpaceOnUse"
   gradientTransform="matrix(-1.1e-6,-26.071289,-26.071289,1.1e-6,201.50488,251.41016)"
   spreadMethod="pad"
   id="linearGradient86"><stop
     style="stop-opacity:1;stop-color:#e6342a"
     offset="0"
     id="stop78" /><stop
     style="stop-opacity:1;stop-color:#e6342a"
     offset="0.0104712"
     id="stop80" /><stop
     style="stop-opacity:1;stop-color:#f9b233"
     offset="0.989529"
     id="stop82" /><stop
     style="stop-opacity:1;stop-color:#f9b233"
     offset="1"
     id="stop84" /></linearGradient><clipPath
   clipPathUnits="userSpaceOnUse"
   id="clipPath96"><path
     d="m 239.206,251.41 c -0.281,0 -3.844,-9.471 -3.844,-9.471 v 0 h -10.599 l 3.095,9.471 h -8.44 l -9.754,-26.071 h 8.536 l 3.749,9.66 h 10.973 l -3.562,-9.66 h 8.814 c 0,0 9.566,26.071 9.847,26.071 v 0 c 0.188,0 -3.667,0.001 -6.342,0.001 v 0 c -1.337,0 -2.38,0 -2.473,-0.001"
     id="path94"
     inkscape:connector-curvature="0" /></clipPath><linearGradient
   x1="0"
   y1="0"
   x2="1"
   y2="0"
   gradientUnits="userSpaceOnUse"
   gradientTransform="matrix(-1.1e-6,-26.071777,-26.071777,1.1e-6,228.84619,251.41064)"
   spreadMethod="pad"
   id="linearGradient110"><stop
     style="stop-opacity:1;stop-color:#e6342a"
     offset="0"
     id="stop102" /><stop
     style="stop-opacity:1;stop-color:#e6342a"
     offset="0.0104712"
     id="stop104" /><stop
     style="stop-opacity:1;stop-color:#f9b233"
     offset="0.989529"
     id="stop106" /><stop
     style="stop-opacity:1;stop-color:#f9b233"
     offset="1"
     id="stop108" /></linearGradient><clipPath
   clipPathUnits="userSpaceOnUse"
   id="clipPath120"><path
     d="m 252.526,251.41 -9.755,-26.071 h 23.165 l 2.439,6.847 h -14.35 l 1.031,2.907 h 14.35 l 2.625,6.751 h -14.347 l 1.031,2.627 h 14.255 l 3.001,6.939 z"
     id="path118"
     inkscape:connector-curvature="0" /></clipPath><linearGradient
   x1="0"
   y1="0"
   x2="1"
   y2="0"
   gradientUnits="userSpaceOnUse"
   gradientTransform="matrix(-1.1e-6,-26.071289,-26.071289,1.1e-6,259.37109,251.41016)"
   spreadMethod="pad"
   id="linearGradient134"><stop
     style="stop-opacity:1;stop-color:#e6342a"
     offset="0"
     id="stop126" /><stop
     style="stop-opacity:1;stop-color:#e6342a"
     offset="0.0104712"
     id="stop128" /><stop
     style="stop-opacity:1;stop-color:#f9b233"
     offset="0.989529"
     id="stop130" /><stop
     style="stop-opacity:1;stop-color:#f9b233"
     offset="1"
     id="stop132" /></linearGradient><clipPath
   clipPathUnits="userSpaceOnUse"
   id="clipPath144"><path
     d="m 309.733,251.41 -11.821,-10.502 h -1.026 l 3.751,10.502 h -8.628 l -9.847,-26.071 h 8.722 l 4.97,13.035 4.501,-13.035 h 8.816 l -4.596,14.068 13.504,12.003 z"
     id="path142"
     inkscape:connector-curvature="0" /></clipPath><linearGradient
   x1="0"
   y1="0"
   x2="1"
   y2="0"
   gradientUnits="userSpaceOnUse"
   gradientTransform="matrix(-1.1e-6,-26.071289,-26.071289,1.1e-6,300.12109,251.41016)"
   spreadMethod="pad"
   id="linearGradient158"><stop
     style="stop-opacity:1;stop-color:#e6342a"
     offset="0"
     id="stop150" /><stop
     style="stop-opacity:1;stop-color:#e6342a"
     offset="0.0104712"
     id="stop152" /><stop
     style="stop-opacity:1;stop-color:#f9b233"
     offset="0.989529"
     id="stop154" /><stop
     style="stop-opacity:1;stop-color:#f9b233"
     offset="1"
     id="stop156" /></linearGradient><clipPath
   clipPathUnits="userSpaceOnUse"
   id="clipPath168"><path
     d="m 323.051,251.41 -9.845,-26.071 h 9.002 l 9.566,26.071 z"
     id="path166"
     inkscape:connector-curvature="0" /></clipPath><linearGradient
   x1="0"
   y1="0"
   x2="1"
   y2="0"
   gradientUnits="userSpaceOnUse"
   gradientTransform="matrix(-1.1e-6,-26.071289,-26.071289,1.1e-6,322.49023,251.41016)"
   spreadMethod="pad"
   id="linearGradient182"><stop
     style="stop-opacity:1;stop-color:#e6342a"
     offset="0"
     id="stop174" /><stop
     style="stop-opacity:1;stop-color:#e6342a"
     offset="0.0104712"
     id="stop176" /><stop
     style="stop-opacity:1;stop-color:#f9b233"
     offset="0.989529"
     id="stop178" /><stop
     style="stop-opacity:1;stop-color:#f9b233"
     offset="1"
     id="stop180" /></linearGradient><clipPath
   clipPathUnits="userSpaceOnUse"
   id="clipPath192"><path
     d="m 360.689,251.421 c -2.012,-0.027 -3.922,-0.054 -3.965,-0.011 v 0 c -0.095,0.093 -4.877,-13.036 -4.877,-13.036 v 0 l -7.409,13.036 h -7.691 l -10.035,-26.071 h 8.629 l 5.346,13.881 8.064,-13.881 h 6.848 c 0,0 9.611,25.931 9.751,26.071 v 0 c 0.034,0.034 -0.447,0.046 -1.197,0.046 v 0 c -0.906,0 -2.205,-0.017 -3.464,-0.035"
     id="path190"
     inkscape:connector-curvature="0" /></clipPath><linearGradient
   x1="0"
   y1="0"
   x2="1"
   y2="0"
   gradientUnits="userSpaceOnUse"
   gradientTransform="matrix(-1.1e-6,-26.117188,-26.117188,1.1e-6,346.03223,251.45605)"
   spreadMethod="pad"
   id="linearGradient206"><stop
     style="stop-opacity:1;stop-color:#e6342a"
     offset="0"
     id="stop198" /><stop
     style="stop-opacity:1;stop-color:#e6342a"
     offset="0.0104712"
     id="stop200" /><stop
     style="stop-opacity:1;stop-color:#f9b233"
     offset="0.989529"
     id="stop202" /><stop
     style="stop-opacity:1;stop-color:#f9b233"
     offset="1"
     id="stop204" /></linearGradient><clipPath
   clipPathUnits="userSpaceOnUse"
   id="clipPath216"><path
     d="m 372.73,249.739 c -1.891,-1.032 -3.723,-2.258 -5.258,-3.774 v 0 c -3.106,-3.063 -5.965,-7.91 -4.909,-12.448 v 0 c 0.541,-2.327 2.196,-4.237 4.119,-5.588 v 0 c 1.501,-1.053 3.24,-1.746 5.034,-2.102 v 0 c 4.794,-0.949 9.897,-0.488 14.759,-0.488 v 0 l 6.176,16.891 c 0,0 -9.992,-0.182 -9.931,0 v 0 c 0.06,0.181 -5.994,-6.965 -5.994,-6.965 v 0 h 4.48 l -1.211,-2.725 c -11.445,-0.787 -8.237,6.238 -8.237,6.238 v 0 c 3.27,6.783 9.206,6.056 9.206,6.056 v 0 h 8.539 l 5.929,6.616 c -0.543,-0.027 -8.169,0.006 -8.169,0.006 v 0 c -1.35,0.099 -2.595,0.142 -3.742,0.142 v 0 c -7.551,0 -10.791,-1.859 -10.791,-1.859 m 22.702,1.711 c 0.038,0.002 0.042,0.004 0.006,0.006 v 0 z"
     id="path214"
     inkscape:connector-curvature="0" /></clipPath><linearGradient
   x1="0"
   y1="0"
   x2="1"
   y2="0"
   gradientUnits="userSpaceOnUse"
   gradientTransform="matrix(-1.2e-6,-26.370605,-26.370605,1.2e-6,378.90137,251.59766)"
   spreadMethod="pad"
   id="linearGradient230"><stop
     style="stop-opacity:1;stop-color:#e6342a"
     offset="0"
     id="stop222" /><stop
     style="stop-opacity:1;stop-color:#e6342a"
     offset="0.0104712"
     id="stop224" /><stop
     style="stop-opacity:1;stop-color:#f9b233"
     offset="0.989529"
     id="stop226" /><stop
     style="stop-opacity:1;stop-color:#f9b233"
     offset="1"
     id="stop228" /></linearGradient><clipPath
   clipPathUnits="userSpaceOnUse"
   id="clipPath240"><path
     d="m 413.146,249.066 c -8.706,-5.017 -13.081,-13.743 -9.766,-19.49 v 0 c 3.308,-5.75 13.056,-6.348 21.767,-1.331 v 0 c 8.703,5.016 13.075,13.744 9.762,19.493 v 0 c -1.802,3.131 -5.512,4.733 -9.925,4.733 v 0 c -3.69,0.001 -7.871,-1.12 -11.838,-3.405 m 0.202,-14.591 c -1.597,2.203 -0.335,5.842 2.815,8.126 v 0 c 3.154,2.285 7.006,2.35 8.602,0.146 v 0 c 1.597,-2.204 0.336,-5.843 -2.814,-8.127 v 0 c -1.614,-1.169 -3.411,-1.757 -4.995,-1.757 v 0 c -1.511,0 -2.828,0.535 -3.608,1.612"
     id="path238"
     inkscape:connector-curvature="0" /></clipPath><linearGradient
   x1="0"
   y1="0"
   x2="1"
   y2="0"
   gradientUnits="userSpaceOnUse"
   gradientTransform="matrix(-1.2e-6,-27.631348,-27.631348,1.2e-6,419.14453,252.47119)"
   spreadMethod="pad"
   id="linearGradient254"><stop
     style="stop-opacity:1;stop-color:#e6342a"
     offset="0"
     id="stop246" /><stop
     style="stop-opacity:1;stop-color:#e6342a"
     offset="0.0104712"
     id="stop248" /><stop
     style="stop-opacity:1;stop-color:#f9b233"
     offset="0.989529"
     id="stop250" /><stop
     style="stop-opacity:1;stop-color:#f9b233"
     offset="1"
     id="stop252" /></linearGradient><clipPath
   clipPathUnits="userSpaceOnUse"
   id="clipPath264"><path
     d="m 442.66,251.599 -9.989,-25.957 h 8.994 l 3.447,9.871 h 13.844 l 2.687,6.835 h -13.552 l 0.877,2.627 h 13.902 l 2.57,6.624 z"
     id="path262"
     inkscape:connector-curvature="0" /></clipPath><linearGradient
   x1="0"
   y1="0"
   x2="1"
   y2="0"
   gradientUnits="userSpaceOnUse"
   gradientTransform="matrix(-1.1e-6,-25.957031,-25.957031,1.1e-6,449.05566,251.59863)"
   spreadMethod="pad"
   id="linearGradient278"><stop
     style="stop-opacity:1;stop-color:#e6342a"
     offset="0"
     id="stop270" /><stop
     style="stop-opacity:1;stop-color:#e6342a"
     offset="0.0104712"
     id="stop272" /><stop
     style="stop-opacity:1;stop-color:#f9b233"
     offset="0.989529"
     id="stop274" /><stop
     style="stop-opacity:1;stop-color:#f9b233"
     offset="1"
     id="stop276" /></linearGradient><clipPath
   clipPathUnits="userSpaceOnUse"
   id="clipPath288"><path
     d="M 0,396.85 H 595.28 V 0 H 0 Z"
     id="path286"
     inkscape:connector-curvature="0" /></clipPath><clipPath
   clipPathUnits="userSpaceOnUse"
   id="clipPath332"><path
     d="m 191.189,251.41 -2.814,-6.94 7.784,-0.094 -7.316,-19.037 h 8.722 l 7.315,19.131 h 7.034 l 2.721,6.94 z"
     id="path330"
     inkscape:connector-curvature="0" /></clipPath><linearGradient
   x1="0"
   y1="0"
   x2="1"
   y2="0"
   gradientUnits="userSpaceOnUse"
   gradientTransform="matrix(-1.1e-6,-26.071289,-26.071289,1.1e-6,201.50488,251.41016)"
   spreadMethod="pad"
   id="linearGradient346"><stop
     style="stop-opacity:1;stop-color:#e6342a"
     offset="0"
     id="stop338" /><stop
     style="stop-opacity:1;stop-color:#e6342a"
     offset="0.0104712"
     id="stop340" /><stop
     style="stop-opacity:1;stop-color:#f9b233"
     offset="0.989529"
     id="stop342" /><stop
     style="stop-opacity:1;stop-color:#f9b233"
     offset="1"
     id="stop344" /></linearGradient><clipPath
   clipPathUnits="userSpaceOnUse"
   id="clipPath356"><path
     d="m 239.206,251.41 c -0.281,0 -3.844,-9.471 -3.844,-9.471 v 0 h -10.599 l 3.095,9.471 h -8.44 l -9.754,-26.071 h 8.536 l 3.749,9.66 h 10.973 l -3.562,-9.66 h 8.814 c 0,0 9.566,26.071 9.847,26.071 v 0 c 0.188,0 -3.667,0.001 -6.342,0.001 v 0 c -1.337,0 -2.38,0 -2.473,-0.001"
     id="path354"
     inkscape:connector-curvature="0" /></clipPath><linearGradient
   x1="0"
   y1="0"
   x2="1"
   y2="0"
   gradientUnits="userSpaceOnUse"
   gradientTransform="matrix(-1.1e-6,-26.071777,-26.071777,1.1e-6,228.84619,251.41064)"
   spreadMethod="pad"
   id="linearGradient370"><stop
     style="stop-opacity:1;stop-color:#e6342a"
     offset="0"
     id="stop362" /><stop
     style="stop-opacity:1;stop-color:#e6342a"
     offset="0.0104712"
     id="stop364" /><stop
     style="stop-opacity:1;stop-color:#f9b233"
     offset="0.989529"
     id="stop366" /><stop
     style="stop-opacity:1;stop-color:#f9b233"
     offset="1"
     id="stop368" /></linearGradient><clipPath
   clipPathUnits="userSpaceOnUse"
   id="clipPath380"><path
     d="m 252.526,251.41 -9.755,-26.071 h 23.165 l 2.439,6.847 h -14.35 l 1.031,2.907 h 14.35 l 2.625,6.751 h -14.347 l 1.031,2.627 h 14.255 l 3.001,6.939 z"
     id="path378"
     inkscape:connector-curvature="0" /></clipPath><linearGradient
   x1="0"
   y1="0"
   x2="1"
   y2="0"
   gradientUnits="userSpaceOnUse"
   gradientTransform="matrix(-1.1e-6,-26.071289,-26.071289,1.1e-6,259.37109,251.41016)"
   spreadMethod="pad"
   id="linearGradient394"><stop
     style="stop-opacity:1;stop-color:#e6342a"
     offset="0"
     id="stop386" /><stop
     style="stop-opacity:1;stop-color:#e6342a"
     offset="0.0104712"
     id="stop388" /><stop
     style="stop-opacity:1;stop-color:#f9b233"
     offset="0.989529"
     id="stop390" /><stop
     style="stop-opacity:1;stop-color:#f9b233"
     offset="1"
     id="stop392" /></linearGradient><clipPath
   clipPathUnits="userSpaceOnUse"
   id="clipPath404"><path
     d="m 309.733,251.41 -11.821,-10.502 h -1.026 l 3.751,10.502 h -8.628 l -9.847,-26.071 h 8.722 l 4.97,13.035 4.501,-13.035 h 8.816 l -4.596,14.068 13.504,12.003 z"
     id="path402"
     inkscape:connector-curvature="0" /></clipPath><linearGradient
   x1="0"
   y1="0"
   x2="1"
   y2="0"
   gradientUnits="userSpaceOnUse"
   gradientTransform="matrix(-1.1e-6,-26.071289,-26.071289,1.1e-6,300.12109,251.41016)"
   spreadMethod="pad"
   id="linearGradient418"><stop
     style="stop-opacity:1;stop-color:#e6342a"
     offset="0"
     id="stop410" /><stop
     style="stop-opacity:1;stop-color:#e6342a"
     offset="0.0104712"
     id="stop412" /><stop
     style="stop-opacity:1;stop-color:#f9b233"
     offset="0.989529"
     id="stop414" /><stop
     style="stop-opacity:1;stop-color:#f9b233"
     offset="1"
     id="stop416" /></linearGradient><clipPath
   clipPathUnits="userSpaceOnUse"
   id="clipPath428"><path
     d="m 323.051,251.41 -9.845,-26.071 h 9.002 l 9.566,26.071 z"
     id="path426"
     inkscape:connector-curvature="0" /></clipPath><linearGradient
   x1="0"
   y1="0"
   x2="1"
   y2="0"
   gradientUnits="userSpaceOnUse"
   gradientTransform="matrix(-1.1e-6,-26.071289,-26.071289,1.1e-6,322.49023,251.41016)"
   spreadMethod="pad"
   id="linearGradient442"><stop
     style="stop-opacity:1;stop-color:#e6342a"
     offset="0"
     id="stop434" /><stop
     style="stop-opacity:1;stop-color:#e6342a"
     offset="0.0104712"
     id="stop436" /><stop
     style="stop-opacity:1;stop-color:#f9b233"
     offset="0.989529"
     id="stop438" /><stop
     style="stop-opacity:1;stop-color:#f9b233"
     offset="1"
     id="stop440" /></linearGradient><clipPath
   clipPathUnits="userSpaceOnUse"
   id="clipPath452"><path
     d="m 360.689,251.421 c -2.012,-0.027 -3.922,-0.054 -3.965,-0.011 v 0 c -0.095,0.093 -4.877,-13.036 -4.877,-13.036 v 0 l -7.409,13.036 h -7.691 l -10.035,-26.071 h 8.629 l 5.346,13.881 8.064,-13.881 h 6.848 c 0,0 9.611,25.931 9.751,26.071 v 0 c 0.034,0.034 -0.447,0.046 -1.197,0.046 v 0 c -0.906,0 -2.205,-0.017 -3.464,-0.035"
     id="path450"
     inkscape:connector-curvature="0" /></clipPath><linearGradient
   x1="0"
   y1="0"
   x2="1"
   y2="0"
   gradientUnits="userSpaceOnUse"
   gradientTransform="matrix(-1.1e-6,-26.117188,-26.117188,1.1e-6,346.03223,251.45605)"
   spreadMethod="pad"
   id="linearGradient466"><stop
     style="stop-opacity:1;stop-color:#e6342a"
     offset="0"
     id="stop458" /><stop
     style="stop-opacity:1;stop-color:#e6342a"
     offset="0.0104712"
     id="stop460" /><stop
     style="stop-opacity:1;stop-color:#f9b233"
     offset="0.989529"
     id="stop462" /><stop
     style="stop-opacity:1;stop-color:#f9b233"
     offset="1"
     id="stop464" /></linearGradient><clipPath
   clipPathUnits="userSpaceOnUse"
   id="clipPath476"><path
     d="m 372.73,249.739 c -1.891,-1.032 -3.723,-2.258 -5.258,-3.774 v 0 c -3.106,-3.063 -5.965,-7.91 -4.909,-12.448 v 0 c 0.541,-2.327 2.196,-4.237 4.119,-5.588 v 0 c 1.501,-1.053 3.24,-1.746 5.034,-2.102 v 0 c 4.794,-0.949 9.897,-0.488 14.759,-0.488 v 0 l 6.176,16.891 c 0,0 -9.992,-0.182 -9.931,0 v 0 c 0.06,0.181 -5.994,-6.965 -5.994,-6.965 v 0 h 4.48 l -1.211,-2.725 c -11.445,-0.787 -8.237,6.238 -8.237,6.238 v 0 c 3.27,6.783 9.206,6.056 9.206,6.056 v 0 h 8.539 l 5.929,6.616 c -0.543,-0.027 -8.169,0.006 -8.169,0.006 v 0 c -1.35,0.099 -2.595,0.142 -3.742,0.142 v 0 c -7.551,0 -10.791,-1.859 -10.791,-1.859 m 22.702,1.711 c 0.038,0.002 0.042,0.004 0.006,0.006 v 0 z"
     id="path474"
     inkscape:connector-curvature="0" /></clipPath><linearGradient
   x1="0"
   y1="0"
   x2="1"
   y2="0"
   gradientUnits="userSpaceOnUse"
   gradientTransform="matrix(-1.2e-6,-26.370605,-26.370605,1.2e-6,378.90137,251.59766)"
   spreadMethod="pad"
   id="linearGradient490"><stop
     style="stop-opacity:1;stop-color:#e6342a"
     offset="0"
     id="stop482" /><stop
     style="stop-opacity:1;stop-color:#e6342a"
     offset="0.0104712"
     id="stop484" /><stop
     style="stop-opacity:1;stop-color:#f9b233"
     offset="0.989529"
     id="stop486" /><stop
     style="stop-opacity:1;stop-color:#f9b233"
     offset="1"
     id="stop488" /></linearGradient><clipPath
   clipPathUnits="userSpaceOnUse"
   id="clipPath500"><path
     d="m 413.146,249.066 c -8.706,-5.017 -13.081,-13.743 -9.766,-19.49 v 0 c 3.308,-5.75 13.056,-6.348 21.767,-1.331 v 0 c 8.703,5.016 13.075,13.744 9.762,19.493 v 0 c -1.802,3.131 -5.512,4.733 -9.925,4.733 v 0 c -3.69,0.001 -7.871,-1.12 -11.838,-3.405 m 0.202,-14.591 c -1.597,2.203 -0.335,5.842 2.815,8.126 v 0 c 3.154,2.285 7.006,2.35 8.602,0.146 v 0 c 1.597,-2.204 0.336,-5.843 -2.814,-8.127 v 0 c -1.614,-1.169 -3.411,-1.757 -4.995,-1.757 v 0 c -1.511,0 -2.828,0.535 -3.608,1.612"
     id="path498"
     inkscape:connector-curvature="0" /></clipPath><linearGradient
   x1="0"
   y1="0"
   x2="1"
   y2="0"
   gradientUnits="userSpaceOnUse"
   gradientTransform="matrix(-1.2e-6,-27.631348,-27.631348,1.2e-6,419.14453,252.47119)"
   spreadMethod="pad"
   id="linearGradient514"><stop
     style="stop-opacity:1;stop-color:#e6342a"
     offset="0"
     id="stop506" /><stop
     style="stop-opacity:1;stop-color:#e6342a"
     offset="0.0104712"
     id="stop508" /><stop
     style="stop-opacity:1;stop-color:#f9b233"
     offset="0.989529"
     id="stop510" /><stop
     style="stop-opacity:1;stop-color:#f9b233"
     offset="1"
     id="stop512" /></linearGradient><clipPath
   clipPathUnits="userSpaceOnUse"
   id="clipPath524"><path
     d="m 442.66,251.599 -9.989,-25.957 h 8.994 l 3.447,9.871 h 13.844 l 2.687,6.835 h -13.552 l 0.877,2.627 h 13.902 l 2.57,6.624 z"
     id="path522"
     inkscape:connector-curvature="0" /></clipPath><linearGradient
   x1="0"
   y1="0"
   x2="1"
   y2="0"
   gradientUnits="userSpaceOnUse"
   gradientTransform="matrix(-1.1e-6,-25.957031,-25.957031,1.1e-6,449.05566,251.59863)"
   spreadMethod="pad"
   id="linearGradient538"><stop
     style="stop-opacity:1;stop-color:#e6342a"
     offset="0"
     id="stop530" /><stop
     style="stop-opacity:1;stop-color:#e6342a"
     offset="0.0104712"
     id="stop532" /><stop
     style="stop-opacity:1;stop-color:#f9b233"
     offset="0.989529"
     id="stop534" /><stop
     style="stop-opacity:1;stop-color:#f9b233"
     offset="1"
     id="stop536" /></linearGradient><clipPath
   clipPathUnits="userSpaceOnUse"
   id="clipPath548"><path
     d="M 0,396.85 H 595.28 V 0 H 0 Z"
     id="path546"
     inkscape:connector-curvature="0" /></clipPath><clipPath
   clipPathUnits="userSpaceOnUse"
   id="clipPath588"><path
     d="m 148.96,216.082 -22.375,-59.125 h 16.25 l 9.125,24.25 h 21 l 5.25,14.375 h -20.625 l 2.625,6.625 h 20.375 l 4.875,13.875 z"
     id="path586"
     inkscape:connector-curvature="0" /></clipPath><linearGradient
   x1="0"
   y1="0"
   x2="1"
   y2="0"
   gradientUnits="userSpaceOnUse"
   gradientTransform="matrix(-2.6e-6,-59.125488,-59.125488,2.6e-6,156.02246,216.08203)"
   spreadMethod="pad"
   id="linearGradient602"><stop
     style="stop-opacity:1;stop-color:#ea5b0b"
     offset="0"
     id="stop594" /><stop
     style="stop-opacity:1;stop-color:#fcea12"
     offset="0.48564172"
     id="stop596" /><stop
     style="stop-opacity:1;stop-color:#fcea12"
     offset="0.989529"
     id="stop598" /><stop
     style="stop-opacity:1;stop-color:#fcea12"
     offset="1"
     id="stop600" /></linearGradient><clipPath
   clipPathUnits="userSpaceOnUse"
   id="clipPath612"><path
     d="m 194.085,216.082 -23.25,-59.125 h 16.5 l 22.875,59.125 z"
     id="path610"
     inkscape:connector-curvature="0" /></clipPath><linearGradient
   x1="0"
   y1="0"
   x2="1"
   y2="0"
   gradientUnits="userSpaceOnUse"
   gradientTransform="matrix(-2.6e-6,-59.125488,-59.125488,2.6e-6,190.52246,216.08203)"
   spreadMethod="pad"
   id="linearGradient626"><stop
     style="stop-opacity:1;stop-color:#ea5b0b"
     offset="0"
     id="stop618" /><stop
     style="stop-opacity:1;stop-color:#fcea12"
     offset="0.48564172"
     id="stop620" /><stop
     style="stop-opacity:1;stop-color:#fcea12"
     offset="0.989529"
     id="stop622" /><stop
     style="stop-opacity:1;stop-color:#fcea12"
     offset="1"
     id="stop624" /></linearGradient><clipPath
   clipPathUnits="userSpaceOnUse"
   id="clipPath636"><path
     d="m 241.085,216.082 c -4.824,-0.195 -10.177,-1.072 -14.635,-2.97 v 0 c -6.127,-2.608 -12.083,-7.142 -15.815,-12.678 v 0 c -3.477,-5.157 -6.548,-10.403 -7.111,-16.805 v 0 c -0.247,-2.816 -0.388,-5.62 0.003,-8.43 v 0 c 0.651,-4.683 2.12,-9.931 5.647,-13.273 v 0 c 2.449,-2.317 6.604,-4.969 10.136,-4.969 v 0 h 21.326 l 13.074,34.375 -19,0.125 -11.75,-14.5 h 8.75 l -2.5,-5.75 c -6.924,-0.537 -10.308,5.512 -9.954,11.716 v 0 c 0.169,2.97 1.818,6.758 3.329,9.282 v 0 c 2.778,4.644 7.625,7.383 12.726,8.785 v 0 c 2.477,0.681 5.029,1.039 7.594,1.151 v 0 c 1.278,0.054 2.557,0.047 3.835,0.007 v 0 c 0.497,-0.015 3.6,-0.496 3.845,-0.191 v 0 c 0.007,0.01 11.375,14.125 11.375,14.125 v 0 z"
     id="path634"
     inkscape:connector-curvature="0" /></clipPath><linearGradient
   x1="0"
   y1="0"
   x2="1"
   y2="0"
   gradientUnits="userSpaceOnUse"
   gradientTransform="matrix(-2.6e-6,-59.125488,-59.125488,2.6e-6,232.62158,216.08203)"
   spreadMethod="pad"
   id="linearGradient650"><stop
     style="stop-opacity:1;stop-color:#ea5b0b"
     offset="0"
     id="stop642" /><stop
     style="stop-opacity:1;stop-color:#fcea12"
     offset="0.48564172"
     id="stop644" /><stop
     style="stop-opacity:1;stop-color:#fcea12"
     offset="0.989529"
     id="stop646" /><stop
     style="stop-opacity:1;stop-color:#fcea12"
     offset="1"
     id="stop648" /></linearGradient><clipPath
   clipPathUnits="userSpaceOnUse"
   id="clipPath660"><path
     d="m 301.084,216.082 -8.499,-20.625 h -14.75 l 8.125,20.625 h -16.25 l -23.25,-59.125 h 16.75 l 9.5,24.5 14.25,-0.125 -8.875,-24.375 h 16.5 l 22.499,59.125 z"
     id="path658"
     inkscape:connector-curvature="0" /></clipPath><linearGradient
   x1="0"
   y1="0"
   x2="1"
   y2="0"
   gradientUnits="userSpaceOnUse"
   gradientTransform="matrix(-2.6e-6,-59.125488,-59.125488,2.6e-6,281.77197,216.08203)"
   spreadMethod="pad"
   id="linearGradient674"><stop
     style="stop-opacity:1;stop-color:#ea5b0b"
     offset="0"
     id="stop666" /><stop
     style="stop-opacity:1;stop-color:#fcea12"
     offset="0.48564172"
     id="stop668" /><stop
     style="stop-opacity:1;stop-color:#fcea12"
     offset="0.989529"
     id="stop670" /><stop
     style="stop-opacity:1;stop-color:#fcea12"
     offset="1"
     id="stop672" /></linearGradient><clipPath
   clipPathUnits="userSpaceOnUse"
   id="clipPath684"><path
     d="m 322.959,216.082 -5.25,-13.625 h 12.375 l -17.125,-45.5 h 16.375 l 17.5,45.5 h 11.5 l 5.375,13.625 z"
     id="path682"
     inkscape:connector-curvature="0" /></clipPath><linearGradient
   x1="0"
   y1="0"
   x2="1"
   y2="0"
   gradientUnits="userSpaceOnUse"
   gradientTransform="matrix(-2.6e-6,-59.125488,-59.125488,2.6e-6,338.33398,216.08203)"
   spreadMethod="pad"
   id="linearGradient698"><stop
     style="stop-opacity:1;stop-color:#ea5b0b"
     offset="0"
     id="stop690" /><stop
     style="stop-opacity:1;stop-color:#fcea12"
     offset="0.48564172"
     id="stop692" /><stop
     style="stop-opacity:1;stop-color:#fcea12"
     offset="0.989529"
     id="stop694" /><stop
     style="stop-opacity:1;stop-color:#fcea12"
     offset="1"
     id="stop696" /></linearGradient><clipPath
   clipPathUnits="userSpaceOnUse"
   id="clipPath708"><path
     d="m 370.604,216.082 -22.299,-59.125 h 40.726 l 4.928,14.469 h -24.293 l 4.108,9.975 h 22.181 l 5.047,14.084 h -21.83 l 2.699,7.16 h 22.533 l 5.047,13.437 z"
     id="path706"
     inkscape:connector-curvature="0" /></clipPath><linearGradient
   x1="0"
   y1="0"
   x2="1"
   y2="0"
   gradientUnits="userSpaceOnUse"
   gradientTransform="matrix(-2.6e-6,-59.125488,-59.125488,2.6e-6,378.87793,216.08203)"
   spreadMethod="pad"
   id="linearGradient722"><stop
     style="stop-opacity:1;stop-color:#ea5b0b"
     offset="0"
     id="stop714" /><stop
     style="stop-opacity:1;stop-color:#fcea12"
     offset="0.48564172"
     id="stop716" /><stop
     style="stop-opacity:1;stop-color:#fcea12"
     offset="0.989529"
     id="stop718" /><stop
     style="stop-opacity:1;stop-color:#fcea12"
     offset="1"
     id="stop720" /></linearGradient><clipPath
   clipPathUnits="userSpaceOnUse"
   id="clipPath732"><path
     d="m 417.084,216.082 -22.25,-59.125 h 16.25 l 9.375,24.125 2.5,-24.125 h 16.125 l -1.875,25.875 c 12.375,9.875 13.375,21 13.375,21 v 0 c 1.25,11.5 -5.875,12.25 -5.875,12.25 v 0 z m 7.084,-24.875 c 0,0.001 5.916,15.166 5.916,15.166 v 0 h 3.918 c 0.594,0 1.256,-1.117 1.498,-1.518 v 0 c 0.699,-1.16 0.871,-2.404 0.611,-3.725 v 0 c -0.588,-2.97 -2.081,-5.862 -4.378,-7.862 v 0 c -0.923,-0.804 -1.975,-1.438 -3.155,-1.78 v 0 c -0.416,-0.122 -3.917,-0.284 -4.363,-0.284 v 0 c -0.031,0 -0.047,0.001 -0.047,0.003"
     id="path730"
     inkscape:connector-curvature="0" /></clipPath><linearGradient
   x1="0"
   y1="0"
   x2="1"
   y2="0"
   gradientUnits="userSpaceOnUse"
   gradientTransform="matrix(-2.6e-6,-59.125488,-59.125488,2.6e-6,422.7832,216.08203)"
   spreadMethod="pad"
   id="linearGradient746"><stop
     style="stop-opacity:1;stop-color:#ea5b0b"
     offset="0"
     id="stop738" /><stop
     style="stop-opacity:1;stop-color:#fcea12"
     offset="0.48564172"
     id="stop740" /><stop
     style="stop-opacity:1;stop-color:#fcea12"
     offset="0.989529"
     id="stop742" /><stop
     style="stop-opacity:1;stop-color:#fcea12"
     offset="1"
     id="stop744" /></linearGradient><clipPath
   clipPathUnits="userSpaceOnUse"
   id="clipPath756"><path
     d="m 474.496,215.932 c -1.789,-0.625 -3.612,-1.411 -5.261,-2.348 v 0 c -3.093,-1.756 -6.069,-3.848 -8.342,-6.616 v 0 c -0.995,-1.209 -1.926,-2.552 -2.678,-3.928 v 0 c -1.946,-3.556 -3.424,-7.574 -2.031,-11.582 v 0 c 1.392,-4.004 4.962,-7.476 8.525,-9.626 v 0 c 0,0 7.668,-4.334 6.625,-7.125 v 0 c 0,0 -4.748,-9.792 -23.5,1.125 v 0 c 0,0 -5.998,-14.998 -6,-15 v 0 c -0.24,-0.602 7.772,-3.207 8.174,-3.31 v 0 c 6.6,-1.7 13.812,-1.44 20.23,0.884 v 0 c 4.994,1.806 9.631,4.746 13.141,8.751 v 0 c 1,1.141 1.888,2.381 2.668,3.682 v 0 c 2.523,4.205 4.381,9.526 1.883,14.184 v 0 c -2.157,4.02 -6.723,6.056 -10.379,8.452 v 0 c -2.227,1.46 -7.9,3.987 -5.443,7.533 v 0 c 0.562,0.812 1.617,1.536 2.529,1.896 v 0 c 1.023,0.404 2.246,0.674 3.351,0.687 v 0 c 1.848,0.02 3.826,-0.386 5.596,-0.884 v 0 c 0,0 5.687,-2.562 8.75,-7.5 v 0 c 0,0 5.998,16.744 6,16.75 v 0 c 0.25,0.702 -3.582,2.373 -4.072,2.607 v 0 c -3.717,1.774 -7.695,2.736 -11.694,2.736 v 0 c -2.706,10e-4 -5.42,-0.44 -8.072,-1.368"
     id="path754"
     inkscape:connector-curvature="0" /></clipPath><linearGradient
   x1="0"
   y1="0"
   x2="1"
   y2="0"
   gradientUnits="userSpaceOnUse"
   gradientTransform="matrix(-2.7e-6,-60.876953,-60.876953,2.7e-6,470.08789,217.30029)"
   spreadMethod="pad"
   id="linearGradient770"><stop
     style="stop-opacity:1;stop-color:#ea5b0b"
     offset="0"
     id="stop762" /><stop
     style="stop-opacity:1;stop-color:#fcea12"
     offset="0.48564172"
     id="stop764" /><stop
     style="stop-opacity:1;stop-color:#fcea12"
     offset="0.989529"
     id="stop766" /><stop
     style="stop-opacity:1;stop-color:#fcea12"
     offset="1"
     id="stop768" /></linearGradient>
	
	
	
	
	




</defs><sodipodi:namedview
     pagecolor="#ffffff"
     bordercolor="#666666"
     borderopacity="1"
     objecttolerance="10"
     gridtolerance="10"
     guidetolerance="10"
     inkscape:pageopacity="0"
     inkscape:pageshadow="2"
     inkscape:window-width="1366"
     inkscape:window-height="743"
     id="namedview4"
     showgrid="false"
     inkscape:pagecheckerboard="true"
     inkscape:zoom="1.7288178"
     inkscape:cx="353.88648"
     inkscape:cy="99.905577"
     inkscape:window-x="0"
     inkscape:window-y="0"
     inkscape:window-maximized="1"
     inkscape:current-layer="g10" /><g
     id="g10"
     inkscape:groupmode="layer"
     inkscape:label="the-king-of-fighters-seeklogo.com"
     transform="matrix(1.3333333,0,0,-1.3333333,-4.0496598,208.86945)"><text
   style="font-size:10.11603642px;font-family:ArialMT;fill:#ffffff;stroke-width:0.45756117;"
   transform="scale(1.00005,-0.99995)"
   class="st0 st1 st2"
   id="text3310"
   x="312.2229"
   y="-113.43534">®</text>


<path
   style="fill:#ffffff;stroke-width:0.45753828"
   inkscape:connector-curvature="0"
   id="path4"
   class="st0"
   d="m 285.35906,125.96987 6.49704,-6.81732 -16.10535,-57.055019 -8.4187,-6.863074 23.70048,0.320277 -5.53621,5.26169 3.75181,17.111932 12.67381,-0.09151 3.43154,-16.745902 -5.39895,-5.85649 29.09944,0.228769 -7.22912,6.863074 -16.97466,63.414813 z m 10.43187,-25.21036 4.48388,-15.830819 -8.46446,0.274524 z" /><path
   style="fill:#ffffff;stroke-width:0.45753828"
   inkscape:connector-curvature="0"
   id="path6"
   class="st0"
   d="m 248.2527,124.87178 -17.61522,0.64056 6.72581,-6.5428 0.0915,-57.787085 -9.05925,-7.137598 23.42595,1.006585 c 40.99543,7.732397 34.13236,71.192958 -3.5688,69.820338 z m 3.15701,-5.67348 c 13.81767,-0.45753 21.64157,-47.446711 0.5033,-57.878584 z" /><path
   style="fill:#ffffff;stroke-width:0.45753828"
   inkscape:connector-curvature="0"
   id="path8"
   class="st0"
   d="m 73.793359,137.77436 -8.052674,-21.91609 21.092515,16.5629 41.68174,-0.41179 -62.316716,-94.756177 75.768336,-1.1896 6.72582,18.393039 40.17186,0.457539 -0.45755,31.936171 -9.83707,-25.164605 -12.35353,0.04575 0.0915,25.164605 6.90882,0.686308 6.68007,-7.595136 -0.0458,22.236366 -6.81732,-7.183356 -6.68006,0.137261 v 24.066515 l 12.03325,0.73206 10.38612,-21.412791 0.32028,27.315031 -42.96285,-0.36602 5.58197,-6.95459 0.22877,-57.649823 L 131.90065,43.018185 86.512856,42.789416 148.73806,137.7286 Z" /><path
   style="fill:#ffffff;stroke-width:0.45753828"
   inkscape:connector-curvature="0"
   id="path10"
   class="st0"
   d="m 189.64205,125.23781 30.15177,0.5033 -7.04609,-6.17677 0.32028,-57.649824 6.6343,0.183015 9.56256,25.896667 0.41178,-32.530972 -40.49214,0.137262 8.83049,6.22252 -0.45753,57.878592 z" /><path
   style="fill:#ffffff;stroke-width:0.45753828"
   inkscape:connector-curvature="0"
   id="path12"
   class="st0"
   d="m 46.112293,154.79479 h 0.04575 z" /><path
   style="fill:#ffffff;stroke-width:0.45753828"
   inkscape:connector-curvature="0"
   id="path36"
   class="st4"
   d="m 134.27992,127.75427 -14.73274,-28.1386 -5.94799,-2.88249 z" /><path
   style="fill:#ffffff;stroke-width:0.45753828"
   inkscape:connector-curvature="0"
   id="path38"
   class="st5"
   d="m 134.32567,127.80002 -20.45196,-30.609303 -0.54904,5.856493 z" /><path
   style="fill:#ffffff;stroke-width:0.45753828"
   inkscape:connector-curvature="0"
   id="path40"
   class="st4"
   d="m 191.15193,127.57125 c 9.97433,-0.59479 19.94866,-0.0458 29.923,-0.27451 -0.96083,-0.96084 -1.96741,-1.96742 -3.29428,-2.3792 -8.60171,0.13725 -17.24919,0.0915 -25.85091,0.0458 -0.18302,0.0458 -0.50329,0.18301 -0.64055,0.27452 z" /><path
   style="fill:#ffffff;stroke-width:0.45753828"
   inkscape:connector-curvature="0"
   id="path42"
   class="st5"
   d="m 221.39521,127.61701 0.77781,-2.69947 -7.59514,-5.71924 0.27453,-56.2772 -2.92825,-1.921661 -0.36602,59.983261 6.22251,3.93484 z" /><path
   style="fill:#ffffff;stroke-width:0.45753828"
   inkscape:connector-curvature="0"
   id="path44"
   class="st4"
   d="m 229.21911,127.34249 c 11.3927,-0.22877 22.78541,1.18959 33.67482,-2.92825 l -2.05892,-2.19618 c -8.96775,3.93483 -18.98784,2.42495 -28.45888,2.74523 l -5.21594,-0.0458 z" /><path
   style="fill:#ffffff;stroke-width:0.45753828"
   inkscape:connector-curvature="0"
   id="path46"
   class="st4"
   d="m 284.35247,127.29674 h 21.87033 l -2.28769,-2.01318 h -21.22977 z" /><path
   style="fill:#ffffff;stroke-width:0.45753828"
   inkscape:connector-curvature="0"
   id="path48"
   class="st5"
   d="m 306.2228,127.29674 0.32028,0.36602 16.28836,-63.780829 8.46446,-8.189936 -0.18302,-2.333445 -32.80549,-0.228769 -0.73206,2.653722 4.2551,0.183015 25.21036,0.09151 -6.40553,5.398952 -16.70015,63.73508 z" /><path
   style="fill:#ffffff;stroke-width:0.45753828"
   inkscape:connector-curvature="0"
   id="path50"
   class="st5"
   d="m 191.15193,127.57125 0.13726,-2.33344 7.2291,-5.03292 -3.15701,-0.54904 -4.11785,2.4707 V 97.282225 l -5.26169,-0.04575 2.2877,1.92166 -0.0458,25.850905 z" /><path
   style="fill:#ffffff;stroke-width:0.45753828"
   inkscape:connector-curvature="0"
   id="path52"
   class="st5"
   d="m 227.16019,124.91754 c 1.73864,0 3.47729,0.0458 5.21594,0.0458 1.8759,-1.96742 4.16359,-3.47729 6.17677,-5.30744 -1.05234,-0.68631 -2.15044,-1.23536 -3.38579,-1.50988 -2.60797,2.3792 -5.30745,4.52962 -8.00692,6.77157 z" /><path
   style="fill:#ffffff;stroke-width:0.45753828"
   inkscape:connector-curvature="0"
   id="path54"
   class="st5"
   d="m 282.97986,125.28356 h 4.11785 l 5.94799,-5.99375 -3.01975,-0.18301 z" /><path
   style="fill:#ffffff;stroke-width:0.45753828"
   inkscape:connector-curvature="0"
   id="path56"
   class="st4"
   d="m 290.11745,118.96954 2.92825,0.32027 -16.24261,-57.878586 -7.09184,-5.26169 -4.39237,-3.019753 -0.50329,2.699476 9.88283,7.549382 z" /><path
   style="fill:#ffffff;stroke-width:0.45753828"
   inkscape:connector-curvature="0"
   id="path58-5"
   class="st5"
   d="m 260.83501,122.21806 2.05892,2.15043 c 14.36671,-6.03951 19.07935,-23.05992 17.79823,-37.380876 -0.32027,-7.091844 -1.78439,-14.320949 -5.71922,-20.360454 -5.85649,-9.837073 -18.02701,-13.588887 -28.91642,-13.405871 -31.98192,-0.183016 -63.96385,0.04575 -95.99153,-0.09151 L 143.6137,34.736742 H 64.368071 l -1.601384,2.653722 78.101783,-0.411785 7.27485,19.262362 40.17187,-0.137261 v 29.968758 l 3.06551,2.104676 -0.13727,-29.373959 -0.6863,-2.790983 38.43321,0.04575 V 85.79801 l 3.0655,2.836738 v -28.36737 l -1.2811,-4.346613 22.23636,0.36603 c 10.0201,0.869323 19.44538,7.778151 22.19061,17.615224 5.07867,16.517132 3.70606,40.400621 -14.3667,48.316041 z" /><path
   style="fill:#ffffff;stroke-width:0.45753828"
   inkscape:connector-curvature="0"
   id="path60"
   class="st5"
   d="m 165.07224,120.93695 h 14.36671 l -2.19618,-2.24194 h -9.10501 l -0.0915,-0.36603 V 96.046872 l -2.83675,-2.104676 z" /><path
   style="fill:#ffffff;stroke-width:0.45753828"
   inkscape:connector-curvature="0"
   id="path62"
   class="st4"
   d="m 179.25593,120.9827 9.01351,-21.824568 -2.2877,-1.92166 -0.13726,-0.09151 -8.60171,21.550048 z" /><path
   style="fill:#ffffff;stroke-width:0.45753828"
   inkscape:connector-curvature="0"
   id="path64"
   class="st4"
   d="m 249.44231,120.93695 c 13.95491,-2.19618 17.29494,-19.35387 17.29494,-31.112599 -0.32028,-11.346949 -3.47729,-27.864081 -16.83741,-30.014512 l 2.92825,3.385784 c 3.88907,1.281108 5.76498,5.398952 7.32061,8.876242 4.71264,12.628057 4.71264,27.543805 -1.28111,39.760075 -1.41837,2.42495 -3.15701,5.17018 -6.08525,5.90224 z" /><path
   style="fill:#ffffff;stroke-width:0.45753828"
   inkscape:connector-curvature="0"
   id="path68"
   class="st5"
   d="m 249.67107,120.70819 3.11127,-2.97401 0.0458,-54.538557 -2.65372,-3.065506 z" /><path
   style="fill:#ffffff;stroke-width:0.45753828"
   inkscape:connector-curvature="0"
   id="path70-6"
   class="st4"
   d="m 198.51829,120.20489 0.45754,-58.747912 -8.28144,-5.49046 0.54904,2.836737 4.66689,3.568799 -0.54904,57.283796 z" /><path
   style="fill:#ffffff;stroke-width:0.45753828"
   inkscape:connector-curvature="0"
   id="path74"
   class="st4"
   d="m 235.16711,118.14597 3.38579,1.50988 -0.0458,-59.388472 -7.7324,-4.346613 1.28111,4.346613 3.47729,1.738645 z" /><path
   style="fill:#ffffff;stroke-width:0.45753828"
   inkscape:connector-curvature="0"
   id="path76"
   class="st4"
   d="m 150.38527,118.60351 2.92824,0.73206 -0.0458,-59.113945 -21.36704,-17.20344 -45.387795,-0.228769 0.137261,0.503292 5.032921,2.379199 39.439803,-0.09151 19.35387,16.288363 z" /><path
   style="fill:#ffffff;stroke-width:0.45753828"
   inkscape:connector-curvature="0"
   id="path82"
   class="st4"
   d="m 296.15696,105.70092 5.71923,-21.916074 h -12.17052 l 3.70606,2.607968 4.98717,-0.274523 -2.47071,9.150766 z" /><path
   style="fill:#ffffff;stroke-width:0.45753828"
   inkscape:connector-curvature="0"
   id="path84"
   class="st5"
   d="m 296.15696,105.19763 -0.22877,-9.928573 -2.51646,-8.876243 -3.52304,-2.607968 z" /><path
   style="fill:#ffffff;stroke-width:0.45753828"
   inkscape:connector-curvature="0"
   id="path86"
   class="st4"
   d="m 179.4847,104.51133 3.01975,-1.00659 -3.38578,-3.20276 -5.49046,-6.634307 -8.4187,0.274523 2.83674,2.104676 4.43811,-0.04575 z" /><path
   style="fill:#ffffff;stroke-width:0.45753828"
   inkscape:connector-curvature="0"
   id="path88"
   class="st5"
   d="m 179.11867,100.30198 c 1.00658,1.18959 2.19618,2.19618 3.38578,3.20276 0,-8.327191 0.0458,-16.654388 0,-24.981584 -0.0458,-0.137262 -0.18301,-0.366031 -0.22876,-0.503292 -0.41179,-0.137262 -0.86933,-0.274523 -1.32687,-0.411785 -0.77781,-0.228769 -1.55563,-0.36603 -2.33344,-0.549046 -2.05892,3.019753 -4.1636,5.993752 -6.22253,9.013505 -1.37261,0.04575 -2.69947,0.04575 -4.07209,0.04575 h -0.50329 c 0,-7.686643 0.0915,-15.373286 0,-23.059929 -0.96083,-0.777815 -1.92166,-1.509876 -2.83674,-2.287692 -0.0458,9.425289 -0.0458,18.850577 -0.0458,28.230112 2.79099,-0.04575 5.58197,-0.04575 8.37295,0 2.2877,-2.241938 3.84333,-5.032921 5.85649,-7.457873 0.0458,6.268274 0.0915,12.536548 -0.0458,18.759074 z" /><path
   style="fill:#ffffff;stroke-width:0.45753828"
   inkscape:connector-curvature="0"
   id="path90"
   class="st5"
   d="m 104.08239,89.45832 6.13102,2.424953 0.50329,-5.490459 -5.71923,-2.333445 z" /><path
   style="fill:#ffffff;stroke-width:0.45753828"
   inkscape:connector-curvature="0"
   id="path92"
   class="st4"
   d="m 226.83992,88.451736 5.12443,0.137262 -2.97401,-2.790984 -8.87624,-25.073097 -8.37295,-0.04575 3.11126,2.241937 3.24852,0.183015 z" /><path
   style="fill:#ffffff;stroke-width:0.45753828"
   inkscape:connector-curvature="0"
   id="path94-2"
   class="st4"
   d="m 186.07325,87.994198 5.17018,0.04576 -2.92824,-1.967414 -8.83049,-25.347621 h -14.50397 v 0.04575 l 2.83674,2.287692 9.97434,0.137261 z" /><path
   style="fill:#ffffff;stroke-width:0.45753828"
   inkscape:connector-curvature="0"
   id="path96"
   class="st4"
   d="m 104.99747,84.059369 2.3792,3.660306 3.15701,-1.464123 -5.71923,-2.470706 z" /><path
   style="fill:#ffffff;stroke-width:0.45753828"
   inkscape:connector-curvature="0"
   id="path98"
   class="st5"
   d="m 288.56183,78.93494 14.27519,-0.09151 -2.33344,-2.3792 -9.74557,-0.137261 -3.93483,-15.236025 6.35979,-5.398952 -0.77782,-2.287691 -27.08627,-0.274523 4.39237,3.019753 19.39962,-0.09151 -5.26169,4.026337 z" /><path
   style="fill:#ffffff;stroke-width:0.45753828"
   inkscape:connector-curvature="0"
   id="path100"
   class="st4"
   d="m 302.83702,78.843433 0.0915,-0.366031 3.88907,-18.118516 -5.12443,-4.392368 -4.11784,-0.183015 6.22252,5.444706 -3.29427,15.236024 z" /><path
   style="fill:#ffffff;stroke-width:0.45753828"
   inkscape:connector-curvature="0"
   id="path102"
   class="st5"
   d="m 95.297658,75.411896 6.268272,2.241937 V 72.666665 L 80.198895,47.364799 Z" /><path
   style="fill:#ffffff;stroke-width:0.45753828"
   inkscape:connector-curvature="0"
   id="path104"
   class="st4"
   d="M 98.408919,74.039281 101.65744,72.48365 80.793695,47.776583 Z" /><path
   style="fill:#ffffff;stroke-width:0.45753828"
   inkscape:connector-curvature="0"
   id="path106"
   class="st4"
   d="m 71.505668,140.88563 c 26.903251,0.22876 53.898002,-0.22878 80.755502,0.27451 l -0.36603,-0.32027 c -1.05234,-1.00658 -2.01317,-2.15043 -3.15701,-3.11127 -24.9816,0.13727 -49.96318,0.0458 -74.944771,0.0458 -2.607968,-7.32061 -5.444705,-14.54971 -8.052674,-21.91609 -1.464122,-1.41836 -3.11126,-2.56221 -4.712644,-3.75181 3.385784,9.65406 7.183351,19.1251 10.477627,28.77916 z" /><path
   style="fill:#ffffff;stroke-width:0.45753828"
   inkscape:connector-curvature="0"
   id="path108"
   class="st5"
   d="m 148.73813,137.7286 3.15701,3.11127 1.14385,-2.974 -7.68664,-11.3927 7.9154,-7.18336 -2.88248,-0.64055 -6.4513,5.49046 -52.250864,-78.467813 -5.032921,-2.379199 z" /><path
   style="fill:#ffffff;stroke-width:0.45753828"
   inkscape:connector-curvature="0"
   id="path110"
   class="st5"
   d="m 86.8332,132.42117 41.68174,-0.41179 -5.03292,-2.24194 -35.825251,0.0458 -24.569805,-19.71991 -2.058923,2.01317 z" /><path
   style="fill:#ffffff;stroke-width:0.45753828"
   inkscape:connector-curvature="0"
   id="path112"
   class="st4"
   d="M 128.92672,132.14664 66.198224,37.253203 h -3.431537 l 60.715333,92.514237 z" /><path
   style="fill:#ffffff;stroke-width:0.45753828"
   inkscape:connector-curvature="0"
   id="path114"
   class="st4"
   d="m 144.8948,125.74111 c 0.41179,0.59479 0.86933,1.18959 1.28112,1.78439 14.86999,-0.50329 29.78573,0 44.65573,-0.22876 -0.86932,-0.77782 -1.73864,-1.55563 -2.60796,-2.2877 -13.6804,-0.0458 -27.3608,0.0458 -41.04119,-0.0458 -0.77782,0.22877 -1.55564,0.50329 -2.2877,0.77782 z" /><path
   d="m 11.976578,8.0691425 c 1.176374,0 2.32047,0.2510555 3.432287,0.7531665 1.111818,0.502111 2.026377,1.1763744 2.743678,2.022789 v 0 l -2.044309,2.02279 c -0.530803,-0.616879 -1.140509,-1.090298 -1.829118,-1.420256 -0.68861,-0.329959 -1.42743,-0.494938 -2.216462,-0.494938 -0.702955,0 -1.352113,0.125527 -1.947473,0.376583 -0.5953606,0.251055 -1.1118177,0.591774 -1.5493715,1.022154 -0.4375539,0.430381 -0.7818586,0.943252 -1.0329141,1.538612 -0.2510555,0.59536 -0.3765832,1.237345 -0.3765832,1.925954 0,0.702956 0.1219412,1.352114 0.3658237,1.947474 0.2438825,0.59536 0.5810142,1.111817 1.011395,1.549371 0.4303809,0.437554 0.9432514,0.781858 1.5386111,1.032914 0.595361,0.251055 1.230173,0.376583 1.904436,0.376583 0.803378,0 1.563717,-0.175739 2.281019,-0.527216 0.717301,-0.351478 1.341353,-0.857176 1.872156,-1.517093 v 0 l 2.108866,2.087347 c -0.702955,0.860762 -1.621101,1.545785 -2.754437,2.055069 -1.133336,0.509284 -2.302538,0.763926 -3.507604,0.763926 -1.11899,0 -2.1698371,-0.200845 -3.15254,-0.602533 C 7.841335,22.58015 6.9913328,22.035001 6.2740314,21.346391 5.55673,20.657782 4.9900619,19.836472 4.574027,18.882461 4.1579922,17.92845 3.9499748,16.906296 3.9499748,15.815997 c 0,-1.090298 0.2044309,-2.108866 0.6132927,-3.055704 C 4.9721293,11.813455 5.535211,10.995732 6.2525124,10.307123 6.9698138,9.6185136 7.819816,9.0733645 8.8025189,8.6716757 9.7852219,8.2699869 10.843242,8.0691425 11.976578,8.0691425 Z m 40.778587,-0.021519 c 1.118991,0 2.166251,0.2008444 3.141781,0.6025332 0.975529,0.4016888 1.818359,0.9504244 2.528487,1.6462063 0.710128,0.695782 1.27321,1.520679 1.689245,2.47469 0.416035,0.954011 0.624052,1.968992 0.624052,3.044944 0,1.075952 -0.208017,2.090934 -0.624052,3.044945 -0.416035,0.954011 -0.979117,1.778907 -1.689245,2.47469 -0.710128,0.695782 -1.552958,1.244518 -2.528487,1.646207 -0.97553,0.401688 -2.02279,0.602533 -3.141781,0.602533 -1.104644,0 -2.144731,-0.200845 -3.120261,-0.602533 -0.97553,-0.401689 -1.818359,-0.950425 -2.528487,-1.646207 -0.710129,-0.695783 -1.27321,-1.520679 -1.689245,-2.47469 -0.416035,-0.954011 -0.624053,-1.968993 -0.624053,-3.044945 0,-1.075952 0.208018,-2.090933 0.624053,-3.044944 0.416035,-0.954011 0.979116,-1.778908 1.689245,-2.47469 0.710128,-0.6957819 1.552957,-1.2445175 2.528487,-1.6462063 0.97553,-0.4016888 2.015617,-0.6025332 3.120261,-0.6025332 z m 0,2.8620325 c -0.674263,0 -1.301902,0.125527 -1.882916,0.376583 -0.581014,0.251055 -1.083125,0.59536 -1.506333,1.032914 -0.423208,0.437554 -0.756753,0.957597 -1.000635,1.56013 -0.243883,0.602534 -0.365824,1.248105 -0.365824,1.936714 0,0.702956 0.121941,1.352114 0.365824,1.947474 0.243882,0.59536 0.577427,1.111817 1.000635,1.549371 0.423208,0.437554 0.925319,0.781858 1.506333,1.032914 0.581014,0.251055 1.208653,0.376583 1.882916,0.376583 0.674264,0 1.305489,-0.125528 1.893676,-0.376583 0.588187,-0.251056 1.093885,-0.59536 1.517093,-1.032914 0.423207,-0.437554 0.756753,-0.954011 1.000635,-1.549371 0.243883,-0.59536 0.365824,-1.244518 0.365824,-1.947474 0,-0.688609 -0.121941,-1.33418 -0.365824,-1.936714 -0.243882,-0.602533 -0.577428,-1.122576 -1.000635,-1.56013 -0.423208,-0.437554 -0.928906,-0.781859 -1.517093,-1.032914 -0.588187,-0.251056 -1.219412,-0.376583 -1.893676,-0.376583 z M 100.05402,8.284333 V 11.03877 H 91.81223 V 23.347662 H 88.691969 V 8.284333 Z m 39.33682,0 v 2.754437 h -8.2418 v 12.308892 h -3.12026 V 8.284333 Z m 39.63807,0 v 2.711399 h -8.54306 v 3.572161 h 5.57344 v 2.625323 h -5.57344 v 3.443047 h 8.45699 v 2.711399 H 167.36559 V 8.284333 Z m 34.60262,-0.2151905 c 1.17638,0 2.32047,0.2510555 3.43229,0.7531665 1.11182,0.502111 2.02638,1.1763744 2.74368,2.022789 v 0 l -2.04431,2.02279 c -0.5308,-0.616879 -1.14051,-1.090298 -1.82912,-1.420256 -0.68861,-0.329959 -1.42743,-0.494938 -2.21646,-0.494938 -0.70296,0 -1.35211,0.125527 -1.94747,0.376583 -0.59536,0.251055 -1.11182,0.591774 -1.54937,1.022154 -0.43756,0.430381 -0.78186,0.943252 -1.03292,1.538612 -0.25105,0.59536 -0.37658,1.237345 -0.37658,1.925954 0,0.702956 0.12194,1.352114 0.36582,1.947474 0.24388,0.59536 0.58102,1.111817 1.0114,1.549371 0.43038,0.437554 0.94325,0.781858 1.53861,1.032914 0.59536,0.251055 1.23017,0.376583 1.90443,0.376583 0.80338,0 1.56372,-0.175739 2.28102,-0.527216 0.7173,-0.351478 1.34136,-0.857176 1.87216,-1.517093 v 0 l 2.10887,2.087347 c -0.70296,0.860762 -1.62111,1.545785 -2.75444,2.055069 -1.13334,0.509284 -2.30254,0.763926 -3.50761,0.763926 -1.11899,0 -2.16983,-0.200845 -3.15254,-0.602533 -0.9827,-0.401689 -1.8327,-0.946838 -2.55,-1.635448 -0.7173,-0.688609 -1.28397,-1.509919 -1.70001,-2.46393 -0.41603,-0.954011 -0.62405,-1.976165 -0.62405,-3.066464 0,-1.090298 0.20443,-2.108866 0.61329,-3.055704 0.40887,-0.946838 0.97195,-1.764561 1.68925,-2.45317 0.7173,-0.6886094 1.5673,-1.2337585 2.55001,-1.6354473 0.9827,-0.4016888 2.04072,-0.6025332 3.17405,-0.6025332 z m 41.27353,0.2151905 v 12.308892 h 5.05697 v 2.754437 H 246.7063 v -2.754437 h 5.0785 V 8.284333 Z m 35.74313,0 v 15.063329 h -3.12026 V 8.284333 Z m 35.9368,-0.2367095 c 1.11899,0 2.16625,0.2008444 3.14178,0.6025332 0.97553,0.4016888 1.81836,0.9504244 2.52849,1.6462063 0.71013,0.695782 1.27321,1.520679 1.68924,2.47469 0.41604,0.954011 0.62405,1.968992 0.62405,3.044944 0,1.075952 -0.20801,2.090934 -0.62405,3.044945 -0.41603,0.954011 -0.97911,1.778907 -1.68924,2.47469 -0.71013,0.695782 -1.55296,1.244518 -2.52849,1.646207 -0.97553,0.401688 -2.02279,0.602533 -3.14178,0.602533 -1.10464,0 -2.14473,-0.200845 -3.12026,-0.602533 -0.97553,-0.401689 -1.81836,-0.950425 -2.52849,-1.646207 -0.71013,-0.695783 -1.27321,-1.520679 -1.68924,-2.47469 -0.41604,-0.954011 -0.62406,-1.968993 -0.62406,-3.044945 0,-1.075952 0.20802,-2.090933 0.62406,-3.044944 0.41603,-0.954011 0.97911,-1.778908 1.68924,-2.47469 0.71013,-0.6957819 1.55296,-1.2445175 2.52849,-1.6462063 0.97553,-0.4016888 2.01562,-0.6025332 3.12026,-0.6025332 z m 0,2.8620325 c -0.67426,0 -1.3019,0.125527 -1.88292,0.376583 -0.58101,0.251055 -1.08312,0.59536 -1.50633,1.032914 -0.42321,0.437554 -0.75675,0.957597 -1.00064,1.56013 -0.24388,0.602534 -0.36582,1.248105 -0.36582,1.936714 0,0.702956 0.12194,1.352114 0.36582,1.947474 0.24389,0.59536 0.57743,1.111817 1.00064,1.549371 0.42321,0.437554 0.92532,0.781858 1.50633,1.032914 0.58102,0.251055 1.20866,0.376583 1.88292,0.376583 0.67426,0 1.30549,-0.125528 1.89368,-0.376583 0.58818,-0.251056 1.09388,-0.59536 1.51709,-1.032914 0.42321,-0.437554 0.75675,-0.954011 1.00063,-1.549371 0.24389,-0.59536 0.36583,-1.244518 0.36583,-1.947474 0,-0.688609 -0.12194,-1.33418 -0.36583,-1.936714 -0.24388,-0.602533 -0.57742,-1.122576 -1.00063,-1.56013 -0.42321,-0.437554 -0.92891,-0.781859 -1.51709,-1.032914 -0.58819,-0.251056 -1.21942,-0.376583 -1.89368,-0.376583 z M 365.4699,8.284333 v 10.070911 l 7.6823,-10.070911 h 2.75444 v 15.063329 h -2.92659 v -9.748126 l -7.48863,9.748126 h -2.96963 V 8.284333 Z"
   id="COLLECTION"
   inkscape:connector-curvature="0"
   style="fill:#ffffff;fill-rule:nonzero;stroke:none;stroke-width:0.89662677" /></g><style
     id="style1420">.st0{fill:#d82b46}.st1{fill:#231f20}</style><style
     id="style2984"
     type="text/css">
	.st0{fill:#D80B24;}
	.st1{fill:#FFFFFF;}
	.st2{fill:#0069AC;}
	.st3{fill:#F39700;}
</style><style
     id="style3308">.st0{fill:#ca010c}.st1{font-family:'ArialMT'}.st2{font-size:22.1086px}.st3{fill:none;stroke:#ca010c}.st4{fill:#ef9fa1}.st5{fill:#7d0609}</style></svg>