<?xml version="1.0" encoding="UTF-8" standalone="no"?>
<svg
   xmlns:dc="http://purl.org/dc/elements/1.1/"
   xmlns:cc="http://creativecommons.org/ns#"
   xmlns:rdf="http://www.w3.org/1999/02/22-rdf-syntax-ns#"
   xmlns:svg="http://www.w3.org/2000/svg"
   xmlns="http://www.w3.org/2000/svg"
   xmlns:sodipodi="http://sodipodi.sourceforge.net/DTD/sodipodi-0.dtd"
   xmlns:inkscape="http://www.inkscape.org/namespaces/inkscape"
   width="500"
   height="200"
   viewBox="0 0 500 200"
   version="1.1"
   id="svg42"
   sodipodi:docname="zx81.svg"
   inkscape:version="0.92.5 (2060ec1f9f, 2020-04-08)"
   style="fill:none">
  <metadata
     id="metadata48">
    <rdf:RDF>
      <cc:Work
         rdf:about="">
        <dc:format>image/svg+xml</dc:format>
        <dc:type
           rdf:resource="http://purl.org/dc/dcmitype/StillImage" />
        <dc:title />
      </cc:Work>
    </rdf:RDF>
  </metadata>
  <defs
     id="defs46" />
  <sodipodi:namedview
     pagecolor="#ffffff"
     bordercolor="#666666"
     borderopacity="1"
     objecttolerance="10"
     gridtolerance="10"
     guidetolerance="10"
     inkscape:pageopacity="0"
     inkscape:pageshadow="2"
     inkscape:window-width="1366"
     inkscape:window-height="743"
     id="namedview44"
     showgrid="false"
     inkscape:pagecheckerboard="true"
     showguides="true"
     inkscape:guide-bbox="true"
     inkscape:zoom="0.84254493"
     inkscape:cx="4.6381253"
     inkscape:cy="-82.47668"
     inkscape:window-x="0"
     inkscape:window-y="0"
     inkscape:window-maximized="1"
     inkscape:current-layer="svg42">
    <sodipodi:guide
       position="64.420401,37.388449"
       orientation="0,1"
       id="guide58"
       inkscape:locked="false" />
    <sodipodi:guide
       position="83.329901,-15.776851"
       orientation="0,1"
       id="guide60"
       inkscape:locked="false" />
  </sodipodi:namedview>
  <path
     d="M 114.18832,17.810999 H 98.353445 v 13.997565 h 15.834875 z"
     id="path2"
     inkscape:connector-curvature="0"
     style="fill:#ffffff;stroke-width:1.29756224" />
  <path
     d="M 94.569614,53.881754 H 27.661108 v -5.56306 H 94.492584 V 34.321129 H 11.935488 l -0.02171,32.840426 h 66.820325 v 5.383618 H 11.913776 v 14.356444 h 82.655838 z"
     id="path4"
     inkscape:connector-curvature="0"
     style="fill:#ffffff;stroke-width:1.29756224" />
  <path
     d="m 304.16923,19.546031 h -15.8341 v 67.475395 h 15.8341 z"
     id="path6"
     inkscape:connector-curvature="0"
     style="fill:#ffffff;stroke-width:1.29756224" />
  <path
     d="m 408.17521,34.490061 h -15.83409 v 52.412615 h 15.83409 z"
     id="path8"
     inkscape:connector-curvature="0"
     style="fill:#ffffff;stroke-width:1.29756224" />
  <path
     d="M 114.18832,34.490061 H 98.353445 v 52.412615 h 15.834875 z"
     id="path10"
     inkscape:connector-curvature="0"
     style="fill:#ffffff;stroke-width:1.29756224" />
  <path
     d="m 199.72234,34.490061 h -82.02101 v 52.472252 h 15.83486 V 48.487626 h 50.35076 v 38.41505 h 15.83539 z"
     id="path12"
     inkscape:connector-curvature="0"
     style="fill:#ffffff;stroke-width:1.29756224" />
  <path
     d="M 284.96554,86.902676 V 72.546225 H 218.98371 V 48.487626 h 65.98183 l 0.0218,-13.997565 h -81.83773 v 52.412615 z"
     id="path14"
     inkscape:connector-curvature="0"
     style="fill:#ffffff;stroke-width:1.29756224" />
  <path
     d="M 388.99972,86.902676 V 34.490061 h -81.38913 v 13.997565 h 65.55504 v 5.434587 H 307.61059 V 86.902676 Z M 373.16563,72.546225 h -49.71965 v -5.383751 h 49.71965 z"
     id="path16"
     inkscape:connector-curvature="0"
     style="fill:#ffffff;stroke-width:1.29756224" />
  <path
     d="m 408.17521,17.810999 h -15.83409 v 13.937926 h 15.83409 z"
     id="path18"
     inkscape:connector-curvature="0"
     style="fill:#ffffff;stroke-width:1.29756224" />
  <path
     d="m 412.12669,34.490061 v 52.412615 h 15.83539 v -38.40349 h 64.20156 V 34.490061 Z"
     id="path20"
     inkscape:connector-curvature="0"
     style="fill:#ffffff;stroke-width:1.29756224" />
  <path
     d="M 11.913776,170.21797 H 71.013021 V 154.54908 H 33.959503 L 69.75465,114.47073 V 100.37885 H 14.011147 v 15.62053 h 32.858905 l -34.956276,39.36153 z"
     id="path22"
     style="fill:#ffffff;stroke-width:1.29756224"
     inkscape:connector-curvature="0" />
  <path
     d="m 71.59658,170.21797 h 20.414508 l 13.935912,-23.26425 12.77059,23.26425 h 21.58008 l -24.0503,-36.68724 22.04572,-33.15188 H 118.06507 L 105.947,122.0661 94.481306,100.37885 H 73.600771 l 22.232213,33.15188 z"
     id="path24"
     style="fill:#ffffff;stroke-width:1.29756224"
     inkscape:connector-curvature="0" />
  <g
     aria-label="81"
     transform="matrix(1.9178851,0,0,2.6059551,-50.99557,-102.18303)"
     style="font-style:normal;font-weight:normal;font-size:40px;line-height:125%;font-family:sans-serif;letter-spacing:0px;word-spacing:0px;fill:#ffffff;fill-opacity:1;stroke:none;stroke-width:1px;stroke-linecap:butt;stroke-linejoin:miter;stroke-opacity:1"
     id="flowRoot50">
    <path
       d="m 109.36352,104.99688 q -2.4,0 -4.12,-0.32 -1.68,-0.36001 -2.72,-1.08001 -1.04,-0.75999 -1.52,-1.92 -0.48,-1.15999 -0.48,-2.799995 v -2.2 q 0,-1.48 0.24,-2.48 0.28,-1 0.72,-1.64 0.44,-0.68 1.04,-1 0.64,-0.36 1.36,-0.56 -1.28,-0.36 -2.16,-1.4 -0.84,-1.04 -0.84,-3.44 v -2.04 q 0,-1.72 0.48,-2.92 0.48,-1.24 1.52,-2 1.08,-0.76 2.8,-1.12 1.72,-0.36 4.2,-0.36 h 13.52 q 2.44,0 4.16,0.36 1.72,0.36 2.76,1.12 1.08,0.76 1.56,2 0.48,1.2 0.48,2.92 v 2.04 q 0,2.4 -0.84,3.44 -0.84,1.04 -2.12,1.4 0.72,0.2 1.32,0.56 0.6,0.32 1.04,1 0.48,0.64 0.72,1.64 0.24,1 0.24,2.48 v 2.2 q 0,1.640005 -0.48,2.799995 -0.44,1.16001 -1.52,1.92 -1.04,0.72 -2.72,1.08001 -1.68,0.32 -4.08,0.32 z m -0.12,-11.680005 q -1.68,0 -2.36,0.6 -0.64,0.6 -0.64,2.28 v 1.6 q 0,1.4 0.88,1.76 0.88,0.36 2.8,0.36 h 13.44 q 1.88,0 2.76,-0.36 0.92,-0.36 0.92,-1.76 v -1.6 q 0,-1.68 -0.68,-2.28 -0.64,-0.6 -2.32,-0.6 z m 1.24,-10.52 q -2.16,0 -3.04,0.36 -0.84,0.36 -0.84,1.72 v 1.68 q 0,1.36 0.6,1.92 0.6,0.56 2.2,0.56 h 14.48 q 1.56,0 2.16,-0.56 0.64,-0.56 0.64,-1.92 v -1.68 q 0,-1.36 -0.88,-1.72 -0.88,-0.36 -3,-0.36 z"
       style="font-style:normal;font-variant:normal;font-weight:normal;font-stretch:normal;font-family:Neuropolitical;-inkscape-font-specification:Neuropolitical;fill:#ffffff"
       id="path62"
       inkscape:connector-curvature="0" />
    <path
       d="M 137.04346,104.99688 V 77.716875 h 6.08 v 27.280005 z"
       style="font-style:normal;font-variant:normal;font-weight:normal;font-stretch:normal;font-family:Neuropolitical;-inkscape-font-specification:Neuropolitical;fill:#ffffff"
       id="path64"
       inkscape:connector-curvature="0" />
  </g>
</svg>
