<?xml version="1.0" encoding="UTF-8"?>
<svg width="476px" height="67px" viewBox="0 0 476 67" version="1.1" xmlns="http://www.w3.org/2000/svg" xmlns:xlink="http://www.w3.org/1999/xlink">
    <title>syslogo</title>
    <g id="Page-1" stroke="none" stroke-width="1" fill="none" fill-rule="evenodd">
        <g id="syslogo" transform="translate(0.036191, 0.788372)" fill-rule="nonzero">
            <polygon id="path855-6-5" points="2.02800153 4.67533862 28.2938524 4.67533862 39.9908921 20.0471305 51.6879359 4.67533862 77.9537868 4.67533862 39.9908921 62.4736717"></polygon>
            <polygon id="path872-4-6-7" points="117.706794 26.3912873 106.009763 26.3912873 106.009763 20.0471347 135.351481 20.0471347 131.981138 4.38499968 1.77581091 4.38499968 84.8449936 19.0243437 82.720155 33.3302083 82.720155 62.2754169 131.981142 62.2754169 135.351481 46.6132819 106.009763 46.6132819 106.009763 40.2691294 117.706794 40.2691294 117.706794 33.3302083"></polygon>
            <path d="M194.02564,12.786089 C185.623967,2.97087297 171.985141,-0.549772003 159.882453,3.97256581 C147.779765,8.49490363 139.791671,20.0967456 139.885199,33.016413 C139.978731,45.9360846 148.133948,57.4210642 160.300841,61.7677056 C172.467735,66.1143513 186.054159,62.3966181 194.312857,52.460801 L180.334383,37.1526519 C177.006962,41.026603 172.093162,43.6342782 167.627149,42.341126 C163.161136,41.0479697 160.144854,36.8856309 160.306523,32.2389784 C160.4682,27.5923259 163.766466,23.6496882 168.311556,22.6700503 C172.856645,21.6904123 176.364697,23.5037509 180.248576,28.0918043 L194.02564,12.786089 Z" id="path898-4-5"></path>
            <path d="M194.025644,12.786089 C185.623967,2.97087297 171.985146,-0.549772003 159.882457,3.97256581 C147.779769,8.49490363 139.791676,20.0967456 139.885203,33.016413 C139.978735,45.9360846 148.133952,57.4210642 160.300845,61.7677098 C172.467739,66.1143555 186.054159,62.3966223 194.312857,52.460801 L180.334383,37.1526519 C177.006966,41.026603 172.093167,43.6342782 167.627154,42.341126 C163.16114,41.0479697 160.144858,36.8856309 160.306527,32.2389784 C160.468204,27.5923259 163.766471,23.6496882 168.31156,22.6700503 C172.856649,21.6904123 176.364702,23.5037509 180.248581,28.0918043 L194.025644,12.786089 Z" id="path898-1-5"></path>
            <polygon id="path904-8-6-1" points="251.153007 4.44493726 255.43987 24.6544233 238.700697 24.6544233 435.36951 62.2154836 227.677342 62.2154836 214.204356 62.2154836 214.204356 24.6544233 197.465182 24.6544233 201.139636 4.44493726 227.677342 4.44493726"></polygon>
            <path d="M316.283233,18.421078 C317.842693,26.502703 313.449512,34.5545271 306.127828,38.3683727 L321.733794,62.135136 L296.121596,62.135136 L288.216955,53.6826021 L288.216955,27.2572603 L290.417958,27.2572603 C291.473064,27.2572603 292.448031,26.6943699 292.97559,25.7806154 C293.503137,24.866861 293.503137,23.7410716 292.97559,22.8273214 C292.448031,21.9135669 291.473064,21.3506723 290.417958,21.3506723 L282.243741,21.3506723 L282.243741,62.135136 L258.940307,62.135136 L258.940307,4.50029267 L285.844264,4.50029267 L299.419447,4.50029267 C307.650152,4.50029267 314.723774,10.339453 316.283233,18.421078 Z" id="path944-0-2"></path>
            <path d="M316.283233,18.421078 C317.842689,26.502703 313.449517,34.5545271 306.127828,38.3683727 L321.73379,62.1351402 L296.121592,62.1351402 L288.216951,53.6826021 L288.216951,27.2572603 L290.417958,27.2572603 C291.473068,27.2572603 292.448031,26.6943699 292.975586,25.7806154 C293.503141,24.866861 293.503141,23.7410716 292.975586,22.8273214 C292.448031,21.9135669 291.473068,21.3506723 290.417958,21.3506723 L282.24375,21.3506723 L282.24375,62.1351402 L258.940303,62.1351402 L225.038721,4.50029267 L285.844264,4.50029267 L299.419447,4.50029267 C307.650157,4.50029267 314.723778,10.339453 316.283233,18.421078 Z" id="path944-7-0"></path>
            <polygon id="path872-4-3-7-9" points="362.754307 26.3912873 351.057271 26.3912873 351.057271 20.0471347 380.398994 20.0471347 377.02865 4.38499968 327.767663 4.38499968 327.767663 33.3302083 327.767663 62.2754169 377.028654 62.2754169 380.398994 46.6132819 351.057271 46.6132819 351.057271 40.2691294 362.754307 40.2691294 362.754307 33.3302083"></polygon>
            <polygon id="path965-5-7" points="411.496148 43.9607249 384.303543 59.2411459 196.516109 36.2776361 173.12923 33.4177816 372.011701 4.3701034 411.496106 4.3701034 420.123778 16.9973673 326.055431 4.3700992 455.944081 4.3700992 437.93574 33.4177816 455.944039 62.4654515 213.984369 62.4654515 420.123778 49.8381917"></polygon>
            <path d="M28.2938524,2.65070378 L2.02800153,2.65070378 C0.417210779,2.65070378 -0.548554069,4.44048902 0.33574956,5.78683739 L38.2986401,63.5851705 C39.0983237,64.8026852 40.8834603,64.8026853 41.683144,63.5851706 L79.6460387,5.78683747 C80.5303424,4.44048911 79.5645776,2.65070378 77.9537868,2.65070378 L51.6879359,2.65070378 L51.5165215,2.65796214 C50.9490262,2.7061318 50.4248197,2.99185792 50.0767298,3.44930398 L39.9908088,16.7026278 L29.9050588,3.44930426 C29.5221598,2.94611343 28.9261598,2.65070378 28.2938524,2.65070378 Z M74.2008088,6.69962776 L39.9908088,58.7846278 L5.77980884,6.69962776 L27.2898088,6.69962776 L38.3796857,21.2731649 L38.4849758,21.4007191 C39.322055,22.3361168 40.8256072,22.2935988 41.6020982,21.2731651 L52.6908088,6.69962776 L74.2008088,6.69962776 Z" id="path855-6" fill="#FFFFFF"></path>
            <path d="M131.981138,2.36036484 L82.720155,2.36036484 C81.6019801,2.36036484 80.6955202,3.26682473 80.6955202,4.38499968 L80.6955202,62.2754169 C80.6955202,63.3935919 81.6019801,64.3000518 82.720155,64.3000518 L131.981142,64.3000518 C132.935177,64.3000518 133.759762,63.6340334 133.960467,62.7013485 L137.330807,47.0392135 L137.356695,46.8941126 C137.527718,45.6886284 136.591567,44.5886471 135.351481,44.5886471 L108.033809,44.5886278 L108.033809,42.2936278 L117.706794,42.2937642 C118.824969,42.2937642 119.731429,41.3873043 119.731429,40.2691294 L119.731429,26.3912873 L119.725876,26.2401864 C119.648586,25.1925797 118.774143,24.3666524 117.706794,24.3666524 L108.033809,24.3666278 L108.033809,22.0716278 L135.351481,22.0717695 C136.64117,22.0717695 137.602125,20.8820294 137.330807,19.6212026 L133.960463,3.95906759 C133.759758,3.02638299 132.935173,2.36036484 131.981138,2.36036484 Z M130.345809,6.40962776 L132.844809,18.0216278 L106.009763,18.0224999 C104.891588,18.0224999 103.985128,18.9289598 103.985128,20.0471347 L103.985128,26.3912873 L103.990682,26.5423881 C104.067971,27.5899948 104.942414,28.4159221 106.009763,28.4159221 L115.681809,28.4156278 L115.681809,38.2436278 L106.009763,38.2444945 C104.891588,38.2444945 103.985128,39.1509544 103.985128,40.2691294 L103.985128,46.6132819 L103.990682,46.7643828 C104.067971,47.8119895 104.942414,48.6379168 106.009763,48.6379168 L132.844809,48.6376278 L130.345809,60.2506278 L84.7438088,60.2506278 L84.7438088,6.40962776 L130.345809,6.40962776 Z" id="path872-4-6" fill="#FFFFFF"></path>
            <path d="M159.173778,2.07600935 C146.27468,6.89593672 137.760935,19.2612305 137.860617,33.0310693 C137.960304,46.8009158 146.652174,59.041655 159.619699,63.6743235 C172.587226,68.306997 187.067697,64.3446216 195.869853,53.7549836 C196.51617,52.9774176 196.489746,51.8422245 195.807949,51.0955735 L181.829475,35.7874244 C181.010066,34.8900702 179.590294,34.9116356 178.798517,35.8334626 C175.638277,39.5127721 171.484922,41.3503588 168.19026,40.3963759 C164.615116,39.3611753 162.200514,36.0291288 162.329933,32.3093779 C162.459359,28.5896251 165.099699,25.433456 168.738144,24.649234 C172.330784,23.8748849 175.140319,25.1909838 178.703277,29.3999312 C179.495938,30.3363073 180.932613,30.3581565 181.753382,29.4463179 L195.530445,14.1406026 C196.21067,13.3849027 196.224916,12.2419203 195.563737,11.4695015 C186.609198,1.00840167 172.072878,-2.74391865 159.173778,2.07600935 Z M191.294809,12.7926278 L180.238809,25.0746278 L180.135801,24.9684619 C176.280275,21.0894934 172.477803,19.7009374 167.884967,20.6908665 C162.43324,21.8659191 158.47704,26.5950204 158.283112,32.1685752 C158.089194,37.7421329 161.707157,42.7347641 167.064037,44.2858757 L167.367462,44.3687754 C171.625346,45.463098 176.290445,43.7819817 180.063861,40.3367718 L180.299809,40.1176278 L191.590809,52.4826278 L191.326565,52.7620098 C183.534322,60.8353862 171.671679,63.6800018 160.981984,59.861088 C149.615729,55.8004758 141.997158,45.0712606 141.909781,33.001756 C141.822408,20.9322599 149.28485,10.0938703 160.591128,5.86912228 C171.216306,1.8988767 183.108846,4.56435152 191.017203,12.5099447 L191.294809,12.7926278 Z" id="path898-4" fill="#FFFFFF"></path>
            <path d="M159.173782,2.07600935 C146.274684,6.89593672 137.760939,19.2612305 137.860621,33.0310693 C137.960308,46.8009151 146.652177,59.0416544 159.619703,63.6743275 C172.587231,68.3070014 187.067697,64.3446253 195.869854,53.7549833 C196.51617,52.9774172 196.489745,51.8422244 195.807949,51.0955735 L181.829475,35.7874244 C181.010066,34.8900699 179.590293,34.9116356 178.798516,35.8334635 C175.638282,39.5127717 171.484927,41.3503588 168.190264,40.3963759 C164.61512,39.3611753 162.200518,36.0291288 162.329937,32.3093779 C162.459364,28.5896251 165.099703,25.433456 168.738149,24.649234 C172.330788,23.8748849 175.140323,25.1909838 178.703281,29.3999312 C179.495942,30.3363073 180.932617,30.3581565 181.753386,29.4463179 L195.53045,14.1406026 C196.210674,13.3849025 196.22492,12.2419199 195.563741,11.4695011 C186.609198,1.00840115 172.072882,-2.7439184 159.173782,2.07600935 Z M191.294809,12.7926278 L180.238809,25.0746278 L180.135805,24.9684619 C176.280279,21.0894934 172.477807,19.7009374 167.884971,20.6908665 C162.433244,21.8659191 158.477045,26.5950204 158.283117,32.1685752 C158.089199,37.7421329 161.707161,42.7347641 167.064042,44.2858757 L167.367466,44.3687754 C171.625351,45.4630981 176.29045,43.7819811 180.063864,40.3367709 L180.299809,40.1176278 L191.590809,52.4826278 L191.326565,52.7620107 C183.534323,60.8353901 171.671683,63.6800061 160.981988,59.8610922 C149.615733,55.800476 141.997162,45.0712602 141.909785,33.001756 C141.822412,20.9322599 149.284854,10.0938703 160.591132,5.86912228 C171.21631,1.8988769 183.108846,4.56435112 191.017207,12.5099449 L191.294809,12.7926278 Z" id="path898-1" fill="#FFFFFF"></path>
            <path d="M251.153007,2.42030242 L201.139636,2.42030242 C200.148413,2.42030242 199.302937,3.13795389 199.1419,4.11600818 L195.81439,24.3254942 L195.795516,24.4728382 C195.68797,25.6462483 196.612613,26.6790581 197.812127,26.6790581 L212.178809,26.6786278 L212.179721,62.2154836 C212.179721,63.3336585 213.086181,64.2401184 214.204356,64.2401184 L238.700697,64.2401184 L238.851798,64.2345651 C239.899404,64.1572755 240.725332,63.2828324 240.725332,62.2154836 L240.724809,26.6786278 L253.219414,26.6790581 C254.419032,26.6790581 255.355572,25.6418745 255.233548,24.4484794 L253.16714,4.23899337 C253.061512,3.20594589 252.191441,2.42030242 251.153007,2.42030242 Z M249.324809,6.46862776 L250.976809,22.6296278 L238.700697,22.6297884 L238.549596,22.6353417 C237.501989,22.7126313 236.676062,23.5870744 236.676062,24.6544233 L236.675809,60.1906278 L216.228809,60.1906278 L216.228991,24.6544233 L216.223437,24.5033224 C216.146148,23.4557157 215.271705,22.6297884 214.204356,22.6297884 L200.196809,22.6296278 L202.857809,6.46862776 L249.324809,6.46862776 Z" id="path904-8-6" fill="#FFFFFF"></path>
            <path d="M282.733313,62.135136 L282.732809,23.3746278 L290.417958,23.3753071 C290.749734,23.3753071 291.056316,23.5523116 291.222207,23.8396426 C291.388088,24.1269601 291.388088,24.4809754 291.222197,24.7683123 C291.056317,25.0556226 290.749737,25.2326255 290.417958,25.2326255 L288.216955,25.2326255 C287.098781,25.2326255 286.192321,26.1390854 286.192321,27.2572603 L286.192321,53.6826021 C286.192321,54.196116 286.387448,54.6904447 286.738198,55.0655061 L294.642839,63.51804 C295.02568,63.9274173 295.561099,64.1597708 296.121596,64.1597708 L321.733794,64.1597708 L321.882868,64.1545961 C323.403021,64.0483568 324.282626,62.3281478 323.426191,61.0238578 L308.986809,39.0336278 L309.073858,38.9781163 C316.046649,34.3529628 319.832585,26.1290974 318.271196,18.0374736 C316.527901,9.00315888 308.620417,2.47565783 299.419447,2.47565783 L258.940307,2.47565783 C257.822132,2.47565783 256.915672,3.38211772 256.915672,4.50029267 L256.915672,62.135136 C256.915672,63.2533109 257.822132,64.1597708 258.940307,64.1597708 L280.708678,64.1597708 C281.826853,64.1597708 282.733313,63.2533109 282.733313,62.135136 Z M260.964809,60.1096278 L260.964809,6.52462776 L299.419447,6.52462776 C306.679888,6.52462776 312.919646,11.6757477 314.295271,18.8046825 C315.651973,25.8355485 311.883967,33.0871698 305.192489,36.5727427 L305.057877,36.6494033 C304.100659,37.2433576 303.806082,38.5211965 304.435432,39.479651 L317.981809,60.1096278 L296.999809,60.1096278 L290.240809,52.8836278 L290.240809,29.2816278 L290.417958,29.2818952 C292.196397,29.2818952 293.839749,28.3331111 294.728973,26.7929366 C295.618186,25.2527466 295.618186,23.3551832 294.728982,21.8150148 C293.839749,20.2748255 292.196396,19.3260374 290.417958,19.3260374 L280.708678,19.3260374 L280.557577,19.3315907 C279.50997,19.4088803 278.684043,20.2833235 278.684043,21.3506723 L278.683809,60.1096278 L260.964809,60.1096278 Z" id="path944-0" fill="#FFFFFF"></path>
            <path d="M282.733321,62.1351398 L282.732809,23.3746278 L290.417958,23.3753071 C290.749736,23.3753071 291.056311,23.5523087 291.2222,23.8396366 C291.38809,24.126966 291.38809,24.4809694 291.2222,24.7683002 C291.056313,25.0556255 290.749739,25.2326255 290.417958,25.2326255 L288.216951,25.2326255 C287.098776,25.2326255 286.192316,26.1390854 286.192316,27.2572603 L286.192316,53.6826021 C286.192316,54.1961158 286.387444,54.6904444 286.738194,55.0655057 L294.642834,63.5180438 C295.025676,63.9274213 295.561094,64.159775 296.121592,64.159775 L321.73379,64.159775 L321.882864,64.1546003 C323.403016,64.048361 324.282622,62.3281524 323.426187,61.0238623 L308.986809,39.0336278 L309.073857,38.9781171 C316.046649,34.3529656 319.832581,26.1291015 318.271196,18.0374746 C316.527906,9.0031592 308.620422,2.47565783 299.419447,2.47565783 L258.940303,2.47565783 C257.822128,2.47565783 256.915668,3.38211772 256.915668,4.50029267 L256.915668,62.1351402 C256.915668,63.2533151 257.822128,64.159775 258.940303,64.159775 L280.708686,64.159775 C281.826861,64.159775 282.733321,63.2533149 282.733321,62.1351398 Z M260.964809,60.1096278 L260.964809,6.52462776 L299.419447,6.52462776 C306.679892,6.52462776 312.91965,11.6757473 314.295271,18.8046815 C315.65197,25.8355522 311.883967,33.0871717 305.19249,36.5727425 L305.057877,36.649403 C304.100659,37.2433572 303.806082,38.521196 304.435431,39.4796506 L317.981809,60.1096278 L296.999809,60.1096278 L290.240809,52.8836278 L290.240809,29.2816278 L290.417958,29.2818952 C292.196402,29.2818952 293.839752,28.3331097 294.728973,26.7929306 C295.618192,25.2527525 295.618192,23.3551772 294.72897,21.8150027 C293.839752,20.2748269 292.196402,19.3260374 290.417958,19.3260374 L280.708678,19.3260374 L280.557577,19.3315907 C279.50997,19.4088803 278.684043,20.2833237 278.684043,21.3506727 L278.683809,60.1096278 L260.964809,60.1096278 Z" id="path944-7" fill="#FFFFFF"></path>
            <path d="M377.02865,2.36036484 L327.767663,2.36036484 C326.649488,2.36036484 325.743028,3.26682473 325.743028,4.38499968 L325.743028,62.2754169 C325.743028,63.3935919 326.649488,64.3000518 327.767663,64.3000518 L377.028654,64.3000518 C377.98269,64.3000518 378.807275,63.6340334 379.00798,62.7013485 L382.378319,47.0392135 L382.404208,46.8941126 C382.575231,45.6886284 381.639079,44.5886471 380.398994,44.5886471 L353.081809,44.5886278 L353.081809,42.2936278 L362.754307,42.2937642 C363.872482,42.2937642 364.778942,41.3873043 364.778942,40.2691294 L364.778942,26.3912873 L364.773388,26.2401864 C364.696099,25.1925797 363.821656,24.3666524 362.754307,24.3666524 L353.081809,24.3666278 L353.081809,22.0716278 L380.398994,22.0717695 C381.688683,22.0717695 382.649637,20.8820294 382.378319,19.6212026 L379.007975,3.95906759 C378.80727,3.02638299 377.982685,2.36036484 377.02865,2.36036484 Z M375.392809,6.40962776 L377.891809,18.0216278 L351.057271,18.0224999 C349.939097,18.0224999 349.032637,18.9289598 349.032637,20.0471347 L349.032637,26.3912873 L349.03819,26.5423881 C349.11548,27.5899948 349.989923,28.4159221 351.057271,28.4159221 L360.728809,28.4156278 L360.728809,38.2436278 L351.057271,38.2444945 C349.939097,38.2444945 349.032637,39.1509544 349.032637,40.2691294 L349.032637,46.6132819 L349.03819,46.7643828 C349.11548,47.8119895 349.989923,48.6379168 351.057271,48.6379168 L377.891809,48.6376278 L375.392809,60.2506278 L329.791809,60.2506278 L329.791809,6.40962776 L375.392809,6.40962776 Z" id="path872-4-3-7" fill="#FFFFFF"></path>
            <path d="M384.303501,2.36035949 L384.153009,2.36568852 C382.668001,2.47155717 381.792143,4.1334187 382.595386,5.42905957 L399.945809,33.4176278 L382.595386,61.4064951 C381.765368,62.745324 382.728257,64.4751954 384.303501,64.4751954 L411.496148,64.4751954 L411.661102,64.4684279 C412.261795,64.419028 412.812239,64.1016928 413.15554,63.5992421 L420.123809,53.4006278 L427.092016,63.5992421 C427.466527,64.1473701 428.087554,64.4751954 428.751409,64.4751954 L455.944081,64.4751954 L456.094572,64.4698664 C457.57958,64.3639978 458.455439,62.7021367 457.652196,61.4064958 L440.300809,33.4176278 L457.652196,5.42905886 C458.482214,4.09022993 457.519324,2.36035949 455.944081,2.36035949 L428.75145,2.36035949 L428.586497,2.36712693 C427.985805,2.41652666 427.435363,2.73386043 427.092061,3.23630923 L420.123809,13.4336278 L413.155496,3.23630923 C412.780985,2.68818327 412.159959,2.36035949 411.496106,2.36035949 L384.303501,2.36035949 Z M452.332809,6.37962776 L436.227625,32.358822 L436.141956,32.5114154 C435.827838,33.1327381 435.856395,33.8779429 436.227625,34.4767415 L452.333809,60.4556278 L429.811809,60.4556278 L421.78317,48.7044053 L421.687095,48.5748264 C420.854018,47.5381953 419.231692,47.5813883 418.464386,48.7044053 L410.434809,60.4556278 L387.912809,60.4556278 L404.019973,34.4767422 L404.105642,34.3241488 C404.41976,33.7028257 404.391204,32.9576203 404.019974,32.3588213 L387.913809,6.37962776 L410.434809,6.37962776 L418.464389,18.1311573 L418.560464,18.2607357 C419.393541,19.2973626 421.015862,19.2541698 421.783168,18.1311573 L429.811809,6.37962776 L452.332809,6.37962776 Z" id="path965-5" fill="#FFFFFF"></path>
            <path d="M463.999715,64.5908019 L463.999715,59.1617175 L461.963809,59.1617175 L461.963809,58.2116278 L467.257166,58.2116278 L467.257166,59.1617175 L464.949805,59.1617175 L464.949805,64.5908019 L463.999715,64.5908019 Z M467.800075,64.5908019 L467.800075,58.2116278 L469.4288,58.2116278 L471.057525,63.3692579 L472.68625,58.2116278 L474.179249,58.2116278 L474.179249,64.5908019 L473.229159,64.5908019 L473.229159,59.1617175 L471.600434,64.5908019 L470.650344,64.5908019 L468.885891,59.1617175 L468.885891,64.5908019 L467.800075,64.5908019 Z" id="Shape" fill="#FFFFFF"></path>
        </g>
    </g>
</svg>