<svg width="579" height="111" viewBox="0 0 579 111" fill="none" xmlns="http://www.w3.org/2000/svg">
<path d="M47.9533 67.8906C44.1122 62.4446 37.7764 58.8928 30.6084 58.8928C18.8769 58.8928 9.37691 68.3976 9.37691 80.1219C9.37691 91.8438 18.8769 101.349 30.6084 101.349C39.1182 101.349 46.4608 96.3331 49.8499 89.1005H31.1107V79.4475H61.0385C61.0481 79.6747 61.0557 79.8971 61.0557 80.1219C61.0557 83.2431 60.5893 86.2615 59.7139 89.1005C55.8848 101.535 44.3041 110.586 30.609 110.586C13.7879 110.586 0.150146 96.9406 0.150146 80.1219C0.150146 63.2984 13.7879 49.6655 30.609 49.6655C43.0747 49.6655 53.7849 57.1636 58.499 67.8906H47.9539H47.9533Z" fill="white"/>
<path d="M93.3653 50.2683V50.2702L54.8821 108.222H66.7953L75.0158 95.8448H93.3653V108.246H103.291V50.2678H93.3653V50.2683ZM81.6051 85.9172L93.3653 68.2135V85.9172H81.6051Z" fill="white"/>
<path d="M181.015 50.2682V50.2701L154.477 90.2193V50.2677H144.551V50.2696L106.065 108.221H117.991L144.551 68.2124V108.245H154.477V108.176L181.015 68.2126V108.245H190.939V50.2673H181.015V50.2682Z" fill="white"/>
<path d="M229.118 60.1964V50.2683H198.968V108.261L208.891 108.223H229.118V98.2945H208.891V84.7811H229.118V74.8577H208.891V60.1964H229.118V60.1964Z" fill="white"/>
<path d="M292.313 89.1709C295.494 82.0101 300.273 71.2448 300.273 71.2448H290.536L285.411 82.7993L277.779 75.7509C281.273 72.943 284.341 69.3912 284.341 63.4669C284.341 60.2883 283.083 57.2843 280.818 55.0073C278.226 52.4218 274.578 50.939 270.797 50.939C264.246 50.939 257.463 55.6244 257.463 63.4669C257.463 68.9296 260.472 72.4598 263.459 75.074C257.927 78.9917 253.11 83.1629 253.11 91.766C253.11 96.6475 254.878 101.089 258.083 104.294C261.314 107.53 265.827 109.312 270.797 109.312C280.206 109.312 284.875 104.758 288.45 97.7166L299.993 108.386L306.039 101.852L292.313 89.1709V89.1709ZM267.298 61.1995C268.137 60.3576 269.484 59.841 270.797 59.841C272.196 59.841 273.619 60.4007 274.521 61.3C275.145 61.9218 275.449 62.6274 275.449 63.4669C275.449 65.9663 274.251 67.3272 270.976 69.7476C268.113 67.4563 266.363 65.8586 266.363 63.4669C266.363 62.5772 266.669 61.8309 267.298 61.1995V61.1995ZM281.416 91.7899C278.345 98.6326 276.164 100.405 270.797 100.405C268.161 100.405 265.947 99.5702 264.373 98.0084C262.825 96.4562 262.012 94.2988 262.012 91.766C262.012 87.0877 264.416 85.2341 270.335 81.1323C270.367 81.1132 270.4 81.0867 270.422 81.0676L281.593 91.388L281.416 91.7898V91.7899Z" fill="white"/>
<path d="M419.358 51.6973L380.877 109.651H392.79L401.011 97.2766H419.358V109.68H429.288V51.6973H419.358V51.6973ZM407.598 87.3533L419.358 69.652V87.3533H407.598Z" fill="white"/>
<path d="M338.158 109.68V109.678L364.685 69.7171V109.681H374.611V109.679L413.096 51.7245H401.178L374.611 91.7264V51.6982H364.685V51.7748L338.158 91.7264V51.6982H328.228V109.681H338.158V109.68Z" fill="white"/>
<path d="M550.875 51.6973V75.0406H532.954V51.6973H523.03V109.671H532.954V84.9735H550.875V109.671H560.803V51.6973H550.875Z" fill="white"/>
<path d="M465.566 51.6973H433.168V61.6206H444.407V109.671H454.335V61.6206H465.566V51.6973Z" fill="white"/>
<path d="M509.003 94.0455C505.19 98.2812 499.677 100.938 493.53 100.938C482.026 100.938 472.703 91.6179 472.703 80.1232C472.703 68.6237 482.026 59.3031 493.53 59.3031C499.579 59.3031 505.03 62.0225 508.828 66.2009H520.457C515.374 56.5334 505.221 49.7026 493.53 49.7026C476.731 49.7026 463.112 63.3236 463.112 80.1232C463.112 96.9203 476.731 110.548 493.53 110.548C505.305 110.548 515.513 103.832 520.569 94.0455H509.003V94.0455Z" fill="white"/>
<path d="M568.547 52.6882H566.678V51.6814H571.28V52.6882H569.554V57.1467H568.547V52.6882Z" fill="white"/>
<path d="M575.163 55.7085L576.602 51.6814H578.04V57.1467H577.033V52.9758L575.595 57.1467H574.588L573.15 52.9758V57.1467H572.143V51.6814H573.725L575.163 55.7085Z" fill="white"/>
<path fill-rule="evenodd" clip-rule="evenodd" d="M32.2278 5.57415V0.268066H40.1323V5.57415H32.2278ZM148.579 0.274012H156.364V26.2337H148.567C148.567 26.2337 148.564 25.3954 148.564 25.2349C145.546 27.1106 142.14 27.1076 139.489 25.8829C138.777 25.5559 134.095 23.3324 134.095 17.3248C134.095 12.7678 138.437 7.7917 144.123 8.28516C145.994 8.44865 147.324 9.12343 148.585 9.82496C148.579 5.82979 148.579 0.274012 148.579 0.274012ZM179.077 4.47132C179.077 2.26565 180.885 0.476148 183.114 0.476148C185.342 0.476148 187.15 2.26565 187.15 4.47132C187.15 6.67698 185.342 8.46648 183.114 8.46648C180.885 8.46648 179.077 6.67698 179.077 4.47132ZM185.123 3.48144C185.123 2.63425 184.489 2.2062 183.213 2.2062H181.459V6.63239H182.549V4.81911H183.081L183.937 6.63239H185.147L184.147 4.65562C184.757 4.50401 185.123 4.06407 185.123 3.48144ZM186.378 4.47429C186.378 6.25784 184.916 7.7055 183.114 7.7055C181.312 7.7055 179.849 6.25784 179.849 4.47429C179.849 2.69073 181.312 1.24308 183.114 1.24308C184.916 1.24308 186.378 2.68776 186.378 4.47429ZM183.081 4.17108H182.549V2.88395H183.027C183.681 2.88395 184.003 3.08311 184.003 3.54386C184.003 3.98381 183.702 4.17108 183.081 4.17108ZM91.3226 14.9884C91.3106 13.4753 91.3437 12.4646 91.8452 11.6026C92.4606 10.5389 93.5919 10.0336 94.6186 10.0271C95.6453 10.0336 96.7767 10.5389 97.3921 11.6026C97.8936 12.4676 97.9147 13.4783 97.9026 14.9913L91.3226 14.9884ZM94.6186 10.0271L94.6171 10.0271H94.6202L94.6186 10.0271ZM97.8817 21.2397C97.8817 20.2707 97.8757 20.1934 97.8757 20.1934L105.732 20.1873C104.36 24.2628 99.8639 27.2681 94.5421 27.2681C88.1272 27.2681 82.9286 22.931 82.9286 17.5774C82.9286 12.2238 88.1272 7.88377 94.5421 7.88377C100.957 7.88377 106.18 12.3189 106.18 17.6725C106.18 17.6815 91.3226 17.6756 91.3226 17.6756C91.3226 17.6756 91.3166 20.2944 91.3166 21.2397C91.3166 24.3966 93.4519 25.0982 94.6172 25.0982C95.7824 25.0982 97.8817 24.3966 97.8817 21.2397ZM122.692 8.1722C125.641 8.08896 131.623 10.0003 131.581 16.8343C131.575 18.0472 131.578 26.2277 131.578 26.2277H123.743V14.8903C123.743 13.3861 122.289 11.7126 120.139 11.7126C117.991 11.7126 116.394 13.3861 116.394 14.8903C116.394 15.6275 116.403 26.2277 116.403 26.2277H108.573L108.579 8.96588L116.406 8.95993C116.406 8.95993 116.397 10.3481 116.406 10.7762C117.913 9.35231 120.088 8.24651 122.691 8.17219L122.692 8.1722ZM67.4859 16.8343C67.5279 10.0003 61.5455 8.08896 58.5963 8.1722L58.5961 8.17219C55.9893 8.24651 53.8179 9.35231 52.3103 10.7762C52.3013 10.3481 52.3103 8.95993 52.3103 8.95993L44.4748 8.96588L44.4779 26.2277H52.3074C52.3074 26.2277 52.2984 15.6275 52.2984 14.8903C52.2984 13.3861 53.8961 11.7126 56.0434 11.7126C58.1938 11.7126 59.6473 13.3861 59.6473 14.8903V26.2277H67.4828C67.4828 26.2277 67.4799 18.0472 67.4859 16.8343ZM148.637 14.4295V17.5151L148.637 17.7186V17.728C148.638 18.2642 148.64 19.6903 148.64 20.5768C148.64 23.2433 146.775 23.9418 145.546 23.9418C144.294 23.9418 142.456 23.2433 142.456 20.5768C142.456 19.6583 142.459 17.5061 142.459 17.5061C142.459 17.5061 142.456 15.3153 142.456 14.4295C142.456 11.7601 144.294 11.0794 145.549 11.0794C146.775 11.0794 148.637 11.7601 148.637 14.4295ZM173.627 17.4645C173.627 17.4645 173.623 20.0745 173.623 21.1208C173.623 23.8734 171.981 25.009 170.401 25.009C168.818 25.009 167.169 23.8734 167.169 21.1208C167.169 20.0745 167.173 17.3991 167.173 17.3991C167.173 17.3991 167.179 14.8457 167.179 13.7993C167.179 11.0586 168.83 9.93197 170.401 9.93197C171.975 9.93197 173.624 11.0586 173.624 13.7993L173.623 14.4646C173.623 15.5251 173.622 16.9102 173.63 17.4735L173.627 17.4645ZM158.932 17.4853C158.932 12.1317 164.091 7.7917 170.458 7.7917C176.825 7.7917 181.985 12.1317 181.985 17.4853C181.985 22.839 176.825 27.179 170.458 27.179C164.094 27.179 158.932 22.839 158.932 17.4853ZM32.2458 8.96885V26.2337L40.1323 26.2338V8.97191L32.2458 8.96885ZM71.8136 26.2337L71.8167 9.00452H67.528V6.44215L71.8197 6.43909L71.8137 2.94332H79.7062V6.43611H83.9768V9.00444H79.7062L79.7122 26.2336L71.8136 26.2337ZM0.15315 0.274012L0.150146 26.2337H8.27092V8.13058L19.6352 26.2337H27.7319V0.274012H19.6232L19.6292 18.3771L8.32498 0.274012H0.15315Z" fill="white"/>
</svg>
