<svg width="460" height="98" viewBox="0 0 460 98" fill="none" xmlns="http://www.w3.org/2000/svg">
<path d="M69.1099 41.884C71.648 44.3488 75.1091 45.8726 78.9263 45.8726L139.24 45.8796L126.214 7.01937C124.435 2.89106 120.261 0 115.248 0C110.256 0 106.019 2.98552 104.306 7.09678L99.9642 19.7554L99.9471 0.653875L78.8844 0.643277C75.0773 0.643277 71.6549 2.1289 69.1343 4.58634L69.1417 0.660326H47.5758C43.559 0.660326 39.9058 2.37312 37.3507 5.06511V0.643277L17.0248 0.660787C8.25023 0.653414 1.05253 7.51242 1.04193 16.581C1.04193 20.7793 2.87684 24.5869 5.58266 27.4079L1 27.4005V45.8726L21.4789 45.8689C27.2329 45.862 32.9348 42.3904 34.9167 38.2307L34.9762 38.0598C37.2659 42.6844 42.0444 45.8726 47.5749 45.8726L69.1095 45.8689V41.884" fill="white"/>
<path d="M4.16388 42.712L21.4333 42.6945C28.4987 42.6945 34.2246 36.9861 34.2246 29.9525C34.2246 22.905 28.4987 17.1961 21.4333 17.1961L16.9483 17.2206C16.5949 17.2206 16.3083 16.9307 16.3083 16.5741C16.3083 16.2174 16.5949 15.9271 16.9483 15.9271L34.1864 15.9308L34.1933 10.5228H16.9446C13.6098 10.5228 10.8966 13.2319 10.8966 16.5602C10.8966 19.8918 13.6094 22.5903 16.9446 22.5903L21.4508 22.6497C25.4989 22.6497 28.7747 25.9145 28.7747 29.9423C28.7747 33.9729 25.4994 37.2451 21.4508 37.2451H4.17079L4.16388 42.712" fill="#0060A8"/>
<path d="M4.17075 35.9756H21.4507C24.7962 35.9756 27.502 33.2771 27.502 29.9419C27.502 26.6103 24.7962 23.915 21.4507 23.915L16.9446 23.8662C12.9034 23.8662 9.62431 20.5978 9.62431 16.5598C9.62431 12.5328 12.9034 9.26391 16.9446 9.26391L34.1932 9.26023L34.1863 3.83154H16.9483C9.89019 3.83154 4.15692 9.53348 4.15692 16.574C4.15692 23.6146 9.89019 29.3198 16.9483 29.3198L21.4088 29.3267C21.748 29.3267 22.0346 29.6032 22.0346 29.9524C22.0346 30.2953 21.748 30.5713 21.4088 30.5713L4.16383 30.5851L4.17075 35.9756" fill="#0060A8"/>
<path d="M47.6136 37.2796C44.6175 37.2796 42.1633 34.8918 42.1633 31.8431V14.5917C42.1633 11.6587 44.6175 9.2464 47.6136 9.2464L66.047 9.24963V3.83154H47.6136C41.6149 3.83154 36.7558 8.67317 36.7558 14.6511V31.8436C36.7558 37.822 41.6149 42.6705 47.6136 42.6705L65.9701 42.6779L65.9664 37.2732L47.6136 37.2796" fill="#0060A8"/>
<path d="M43.4848 14.6511C43.4848 12.3651 45.3239 10.5122 47.6136 10.5122H66.047V15.9377H50.1655C48.8933 15.9377 48.8757 17.1998 48.8757 17.1998H62.1251V22.6008H43.4784L43.4848 14.6511" fill="#0060A8"/>
<path d="M47.6136 35.9655C45.3308 35.9655 43.4779 34.1232 43.4779 31.8436V23.887H62.1246V29.2991H48.8753C48.8928 30.5713 50.165 30.5778 50.165 30.5778H65.9696L65.9659 35.9581L47.6136 35.9655" fill="#0060A8"/>
<path d="M78.9646 37.2658C75.9791 37.2658 73.5391 34.8328 73.5391 31.8431V14.6507C73.5391 11.6582 75.9616 9.24594 78.9503 9.24594H96.804V3.83154H78.9088C72.9129 3.83154 68.0538 8.67317 68.0538 14.6511V31.8436C68.0538 37.822 72.9548 42.6705 78.9503 42.6705L96.804 42.6779V17.1998H81.4607V22.6008H91.3818V37.2658H78.9646" fill="#0060A8"/>
<path d="M74.8114 31.8431C74.8114 34.1338 76.6643 35.9968 78.9503 35.9968H90.1021V23.88H81.4741V29.299H84.6762L84.6864 30.5713H81.4985C80.8027 30.5713 80.2332 29.9949 80.2332 29.299L80.2046 17.1961C80.2046 17.1961 80.2009 15.9377 81.4843 15.9064H96.81L96.8031 10.5085L78.9494 10.5122C76.6634 10.5122 74.8105 12.3651 74.8105 14.6511V31.8431" fill="#0060A8"/>
<path d="M113.58 10.4316C113.821 9.74317 114.475 9.24689 115.248 9.24689C116.021 9.24689 116.681 9.74317 116.915 10.4316L125.582 36.035H112.891L112.905 30.0119H117.146L115.237 24.3381L109.018 42.6733H102.621L113.58 10.4316" fill="#0060A8"/>
<path d="M127.329 37.2658H112.913V42.6733H134.852L123.442 8.91415C122.442 5.62128 119.146 3.19885 115.244 3.19885C111.336 3.19885 108.05 5.61068 107.043 8.90079L95.5276 42.6737H101.271L112.451 9.84451C112.905 8.75748 113.976 7.99163 115.234 7.99163C116.486 7.99163 117.562 8.75748 118.02 9.8376L127.329 37.2658" fill="#0060A8"/>
<path fill-rule="evenodd" clip-rule="evenodd" d="M133.42 7.01291C132.699 7.72945 131.738 8.12805 130.717 8.12805C129.7 8.12805 128.742 7.72945 128.025 7.01337C127.298 6.28992 126.9 5.3356 126.9 4.31493C126.9 2.21737 128.616 0.514709 130.717 0.514709C131.738 0.514709 132.699 0.913301 133.42 1.62616C134.139 2.34961 134.542 3.30071 134.542 4.31447C134.542 5.33514 134.139 6.28945 133.42 7.01291ZM128.399 1.99987C127.774 2.61872 127.438 3.44355 127.438 4.31401C127.438 5.19137 127.773 6.01297 128.399 6.63137C129.021 7.25022 129.846 7.58937 130.717 7.58937C132.532 7.58937 134.007 6.12126 134.007 4.31401C134.007 3.44355 133.664 2.61872 133.045 1.99987C132.423 1.38147 131.598 1.04555 130.717 1.04555C129.847 1.04555 129.022 1.38101 128.399 1.99987Z" fill="white"/>
<path fill-rule="evenodd" clip-rule="evenodd" d="M129.738 6.4323V4.63565H130.829L131.986 6.4323H132.654L131.465 4.60062C131.471 4.5993 131.478 4.59788 131.486 4.59635C131.719 4.54966 132.472 4.39843 132.472 3.44356C132.472 3.05188 132.339 2.6989 132.021 2.46436C131.698 2.22045 131.358 2.21651 130.784 2.20986C130.774 2.20976 130.765 2.20965 130.755 2.20953H129.186V6.4323H129.738ZM130.86 4.1707H129.738V2.67817H130.829C130.84 2.67817 130.852 2.67816 130.863 2.67815C131.173 2.67792 131.441 2.67772 131.654 2.8565C131.895 3.05234 131.906 3.33527 131.906 3.44724C131.906 3.7546 131.766 4.0343 131.375 4.12877C131.207 4.1707 131.039 4.1707 130.86 4.1707Z" fill="white"/>
<path fill-rule="evenodd" clip-rule="evenodd" d="M133.42 7.01291C132.699 7.72945 131.738 8.12805 130.717 8.12805C129.7 8.12805 128.742 7.72945 128.025 7.01337C127.298 6.28992 126.9 5.3356 126.9 4.31493C126.9 2.21737 128.616 0.514709 130.717 0.514709C131.738 0.514709 132.699 0.913301 133.42 1.62616C134.139 2.34961 134.542 3.30071 134.542 4.31447C134.542 5.33514 134.139 6.28945 133.42 7.01291ZM128.399 1.99987C127.774 2.61872 127.438 3.44355 127.438 4.31401C127.438 5.19137 127.773 6.01297 128.399 6.63137C129.021 7.25022 129.846 7.58937 130.717 7.58937C132.532 7.58937 134.007 6.12126 134.007 4.31401C134.007 3.44355 133.664 2.61872 133.045 1.99987C132.423 1.38147 131.598 1.04555 130.717 1.04555C129.847 1.04555 129.022 1.38101 128.399 1.99987Z" fill="white"/>
<path fill-rule="evenodd" clip-rule="evenodd" d="M129.738 6.4323V4.63565H130.829L131.986 6.4323H132.654L131.465 4.60062C131.471 4.5993 131.478 4.59788 131.486 4.59635C131.719 4.54966 132.472 4.39843 132.472 3.44356C132.472 3.05188 132.339 2.6989 132.021 2.46436C131.698 2.22045 131.358 2.21651 130.784 2.20986C130.774 2.20976 130.765 2.20965 130.755 2.20953H129.186V6.4323H129.738ZM130.86 4.1707H129.738V2.67817H130.829C130.84 2.67817 130.852 2.67816 130.863 2.67815C131.173 2.67792 131.441 2.67772 131.654 2.8565C131.895 3.05234 131.906 3.33527 131.906 3.44724C131.906 3.7546 131.766 4.0343 131.375 4.12877C131.207 4.1707 131.039 4.1707 130.86 4.1707Z" fill="white"/>
<path d="M363.991 70.0158L368.633 77.0118H381.294L376.651 70.0158H363.991ZM402.395 70.0158L397.752 77.0118H410.413L415.055 70.0158H402.395ZM0 70V76.36H61.7202C61.7202 72.862 59.1881 70.106 56.1284 70H0ZM68.156 70V76.36H108.775V70H68.156ZM120.275 70C117.11 70 114.578 72.862 114.578 76.36H162.583V70H120.275ZM173.977 70C170.812 70 168.385 72.862 168.385 76.36H213.858C213.858 72.862 211.326 70 208.161 70H173.977ZM240.445 70V76.36H287.922C287.922 72.862 285.39 70 282.33 70H240.445ZM300.688 70C297.734 70.318 295.413 72.968 295.413 76.36H341.835C341.835 72.862 339.303 70 336.243 70H300.688ZM348.587 70V76.36H359.982V70H348.587ZM419.381 70V76.36H460V70H419.381ZM0 78.4801V97.3482H11.289V78.4801H0ZM25.1101 78.4801V97.3482H36.3991V78.4801H25.1101ZM50.2202 78.4801V97.3482H61.6147V78.4801H50.2202ZM68.156 78.4801V90.5641C68.2615 94.3802 71.7431 97.3482 75.9633 97.3482H108.775V90.9882H82.0826C80.711 90.9882 79.5505 89.8221 79.5505 88.4441V86.8541H106.771V81.0241H82.0826C80.711 81.0241 79.5505 79.8581 79.5505 78.4801H68.156ZM114.578 78.4801V90.7762C114.789 94.2742 117.849 97.0302 121.647 97.3482H154.986C159.206 97.0302 162.583 93.5322 162.583 89.1861C162.583 84.6281 158.995 81.0241 154.459 81.0241H134.835V86.8541H148.867C150.028 86.8541 150.872 87.8081 150.872 88.9741C150.872 90.1401 149.922 90.9882 148.867 90.9882H127.977C126.817 90.9882 125.972 90.0341 125.972 88.9741V78.4801H114.578ZM168.28 78.4801V97.3482H179.674V78.4801H168.28ZM202.358 78.4801V84.0981H181.679V91.5182H202.358V97.3482H213.752V78.4801H202.358ZM240.445 78.4801V97.3482H251.839V78.4801H240.445ZM276.528 78.4801V88.9741C276.528 90.1401 275.578 90.9882 274.523 90.9882H253.422V97.3482H280.748C284.757 97.0302 287.922 94.0622 287.922 90.3521V78.4801H276.528ZM295.413 78.4801V97.3482H306.807V78.4801H295.413ZM330.44 78.4801V82.1901C330.44 83.2501 329.491 84.2041 328.436 84.2041H309.339V91.6242H325.271L331.073 97.4542H344.578L336.771 89.5041C339.725 88.3381 341.835 85.3701 341.835 81.9781V78.5861H330.44V78.4801ZM348.587 78.4801V97.3482H359.982V78.4801H348.587ZM370.005 79.1319L382.56 98H396.486L408.936 79.1319H396.275L389.417 89.5199L382.56 79.1319H370.005ZM419.381 78.4801V90.5641C419.486 94.3802 422.968 97.3482 427.188 97.3482H460V90.9882H433.307C431.936 90.9882 430.775 89.8221 430.775 88.4441V86.8541H457.995V81.0241H433.307C431.936 81.0241 430.775 79.8581 430.775 78.4801H419.381Z" fill="white"/>
</svg>
