<svg width="473" height="118" viewBox="0 0 473 118" fill="none" xmlns="http://www.w3.org/2000/svg">
<path d="M68.1099 41.884C70.648 44.3488 74.1091 45.8726 77.9263 45.8726L138.24 45.8796L125.214 7.01937C123.435 2.89106 119.261 0 114.248 0C109.256 0 105.019 2.98552 103.306 7.09678L98.9642 19.7554L98.9471 0.653875L77.8844 0.643277C74.0773 0.643277 70.6549 2.1289 68.1343 4.58634L68.1417 0.660326H46.5758C42.559 0.660326 38.9058 2.37312 36.3507 5.06511V0.643277L16.0248 0.660787C7.25023 0.653414 0.0525312 7.51242 0.0419328 16.581C0.0419328 20.7793 1.87684 24.5869 4.58266 27.4079L0 27.4005V45.8726L20.4789 45.8689C26.2329 45.862 31.9348 42.3904 33.9167 38.2307L33.9762 38.0598C36.2659 42.6844 41.0444 45.8726 46.5749 45.8726L68.1095 45.8689V41.884" fill="white"/>
<path d="M3.16388 42.712L20.4333 42.6945C27.4987 42.6945 33.2246 36.9861 33.2246 29.9525C33.2246 22.905 27.4987 17.1961 20.4333 17.1961L15.9483 17.2206C15.5949 17.2206 15.3083 16.9307 15.3083 16.5741C15.3083 16.2174 15.5949 15.9271 15.9483 15.9271L33.1864 15.9308L33.1933 10.5228H15.9446C12.6098 10.5228 9.89663 13.2319 9.89663 16.5602C9.89663 19.8918 12.6094 22.5903 15.9446 22.5903L20.4508 22.6497C24.4989 22.6497 27.7747 25.9145 27.7747 29.9423C27.7747 33.9729 24.4994 37.2451 20.4508 37.2451H3.17079L3.16388 42.712" fill="#0060A8"/>
<path d="M3.17075 35.9756H20.4507C23.7962 35.9756 26.502 33.2771 26.502 29.9419C26.502 26.6103 23.7962 23.915 20.4507 23.915L15.9446 23.8662C11.9034 23.8662 8.62431 20.5978 8.62431 16.5598C8.62431 12.5328 11.9034 9.26391 15.9446 9.26391L33.1932 9.26023L33.1863 3.83154H15.9483C8.89019 3.83154 3.15692 9.53348 3.15692 16.574C3.15692 23.6146 8.89019 29.3198 15.9483 29.3198L20.4088 29.3267C20.748 29.3267 21.0346 29.6032 21.0346 29.9524C21.0346 30.2953 20.748 30.5713 20.4088 30.5713L3.16383 30.5851L3.17075 35.9756" fill="#0060A8"/>
<path d="M46.6136 37.2796C43.6175 37.2796 41.1633 34.8918 41.1633 31.8431V14.5917C41.1633 11.6587 43.6175 9.2464 46.6136 9.2464L65.047 9.24963V3.83154H46.6136C40.6149 3.83154 35.7558 8.67317 35.7558 14.6511V31.8436C35.7558 37.822 40.6149 42.6705 46.6136 42.6705L64.9701 42.6779L64.9664 37.2732L46.6136 37.2796" fill="#0060A8"/>
<path d="M42.4848 14.6511C42.4848 12.3651 44.3239 10.5122 46.6136 10.5122H65.047V15.9377H49.1655C47.8933 15.9377 47.8757 17.1998 47.8757 17.1998H61.1251V22.6009H42.4784L42.4848 14.6511" fill="#0060A8"/>
<path d="M46.6136 35.9655C44.3308 35.9655 42.4779 34.1232 42.4779 31.8436V23.887H61.1246V29.2991H47.8753C47.8928 30.5713 49.165 30.5778 49.165 30.5778H64.9696L64.9659 35.9581L46.6136 35.9655" fill="#0060A8"/>
<path d="M77.9646 37.2658C74.9791 37.2658 72.5391 34.8328 72.5391 31.8431V14.6507C72.5391 11.6582 74.9616 9.24594 77.9503 9.24594H95.804V3.83154H77.9088C71.9129 3.83154 67.0538 8.67317 67.0538 14.6511V31.8436C67.0538 37.822 71.9548 42.6705 77.9503 42.6705L95.804 42.6779V17.1998H80.4607V22.6008H90.3818V37.2658H77.9646" fill="#0060A8"/>
<path d="M73.8114 31.8431C73.8114 34.1338 75.6643 35.9968 77.9503 35.9968H89.1021V23.88H80.4741V29.299H83.6762L83.6864 30.5713H80.4985C79.8027 30.5713 79.2332 29.9949 79.2332 29.299L79.2046 17.1961C79.2046 17.1961 79.2009 15.9377 80.4843 15.9064H95.81L95.8031 10.5085L77.9494 10.5122C75.6634 10.5122 73.8105 12.3651 73.8105 14.6511V31.8431" fill="#0060A8"/>
<path d="M112.58 10.4316C112.821 9.74317 113.475 9.24689 114.248 9.24689C115.021 9.24689 115.681 9.74317 115.915 10.4316L124.582 36.035H111.891L111.905 30.0119H116.146L114.237 24.3381L108.018 42.6733H101.621L112.58 10.4316" fill="#0060A8"/>
<path d="M126.329 37.2658H111.913V42.6733H133.852L122.442 8.91419C121.442 5.62131 118.146 3.19888 114.244 3.19888C110.336 3.19888 107.05 5.61071 106.043 8.90082L94.5276 42.6738H100.271L111.451 9.84454C111.905 8.75751 112.976 7.99166 114.234 7.99166C115.486 7.99166 116.562 8.75751 117.02 9.83763L126.329 37.2658" fill="#0060A8"/>
<path fill-rule="evenodd" clip-rule="evenodd" d="M132.42 7.01291C131.699 7.72945 130.738 8.12805 129.717 8.12805C128.7 8.12805 127.742 7.72945 127.025 7.01337C126.298 6.28992 125.9 5.3356 125.9 4.31493C125.9 2.21737 127.616 0.514709 129.717 0.514709C130.738 0.514709 131.699 0.913301 132.42 1.62616C133.139 2.34961 133.542 3.30071 133.542 4.31447C133.542 5.33514 133.139 6.28945 132.42 7.01291ZM127.399 1.99987C126.774 2.61872 126.438 3.44355 126.438 4.31401C126.438 5.19137 126.773 6.01297 127.399 6.63137C128.021 7.25022 128.846 7.58937 129.717 7.58937C131.532 7.58937 133.007 6.12126 133.007 4.31401C133.007 3.44355 132.664 2.61872 132.045 1.99987C131.423 1.38147 130.598 1.04555 129.717 1.04555C128.847 1.04555 128.022 1.38101 127.399 1.99987Z" fill="white"/>
<path fill-rule="evenodd" clip-rule="evenodd" d="M128.738 6.4323V4.63565H129.829L130.986 6.4323H131.654L130.465 4.60062C130.471 4.5993 130.478 4.59788 130.486 4.59635C130.719 4.54966 131.472 4.39843 131.472 3.44356C131.472 3.05188 131.339 2.6989 131.021 2.46436C130.698 2.22045 130.358 2.21651 129.784 2.20986C129.774 2.20976 129.765 2.20965 129.755 2.20953H128.186V6.4323H128.738ZM129.86 4.1707H128.738V2.67817H129.829C129.84 2.67817 129.852 2.67816 129.863 2.67815C130.173 2.67792 130.441 2.67772 130.654 2.8565C130.895 3.05234 130.906 3.33527 130.906 3.44724C130.906 3.7546 130.766 4.0343 130.375 4.12877C130.207 4.1707 130.039 4.1707 129.86 4.1707Z" fill="white"/>
<path fill-rule="evenodd" clip-rule="evenodd" d="M304.142 88.2238H350.329V106.605L333.837 117.758H282.855L299.744 106.445H329.59V99.5346H283.403V81.5438L300.452 70H351.352L334.539 81.3077H304.142V88.2238Z" fill="white"/>
<path fill-rule="evenodd" clip-rule="evenodd" d="M356.773 70H377.509V117.758H356.773V70Z" fill="white"/>
<path fill-rule="evenodd" clip-rule="evenodd" d="M406.256 88.2238H452.444V106.605L435.945 117.758H384.969L401.858 106.445H431.708V99.5346H385.52V81.5438L402.564 70H453.467L436.653 81.3077H406.256V88.2238Z" fill="white"/>
<path fill-rule="evenodd" clip-rule="evenodd" d="M238.477 106.445V99.5346H258.344L275.233 88.2238H238.477V81.3077H268.399L285.212 70H235.804L217.738 81.0778V117.758H268.012L284.976 106.445H238.477Z" fill="white"/>
<path fill-rule="evenodd" clip-rule="evenodd" d="M93.3163 106.445V99.5346H113.19L130.076 88.2238H93.3163V81.3077H123.241L140.052 70H90.6437L72.5803 81.0778V117.758H122.851L139.819 106.445H93.3163Z" fill="white"/>
<path fill-rule="evenodd" clip-rule="evenodd" d="M191.188 101.892L165.424 85.866V117.758H144.686V70H165.736L191.188 83.9803V70H211.927V117.758H191.188V101.892Z" fill="white"/>
<path fill-rule="evenodd" clip-rule="evenodd" d="M20.7359 81.3077V106.445H46.4992V99.5346H25.4485L42.2588 88.2238H67.2382V107.077L51.3692 117.758H0V81.6285L17.2008 70H73.443L56.7114 81.3077H20.7359Z" fill="white"/>
<path d="M460.5 83V76.1915H458V75H464.5V76.1915H461.667V83H460.5Z" fill="white"/>
<path d="M465.167 83V75H467.167L469.167 81.4681L471.167 75H473V83H471.833V76.1915L469.833 83H468.667L466.5 76.1915V83H465.167Z" fill="white"/>
</svg>
