<svg width="460" height="98" viewBox="0 0 460 98" fill="none" xmlns="http://www.w3.org/2000/svg">
<path fill-rule="evenodd" clip-rule="evenodd" d="M115.248 0C120.152 0 124.253 2.76673 126.095 6.7519L126.214 7.01937L139.24 45.8796L78.9263 45.8726C75.2407 45.8726 71.8871 44.4521 69.3758 42.1356L69.1095 41.884V45.8689L47.5749 45.8726C42.1596 45.8726 37.4653 42.8158 35.1225 38.3469L34.9762 38.0598L34.9167 38.2307C32.9737 42.3088 27.4551 45.7256 21.8173 45.8646L21.4789 45.8689L1 45.8726V27.4005L5.58266 27.4079C2.87684 24.5869 1.04193 20.7793 1.04193 16.581C1.0524 7.62168 8.07783 0.819012 16.7083 0.663503L17.0248 0.660787L37.3507 0.643277V5.06511C39.8234 2.45996 43.3245 0.771848 47.1883 0.665649L47.5758 0.660326H69.1417L69.1343 4.58634C71.568 2.21364 74.8423 0.746889 78.492 0.648555L78.8844 0.643277L99.9471 0.653875L99.9642 19.7554L104.306 7.09678C106.019 2.98552 110.256 0 115.248 0ZM34.1933 10.5228H16.9446L16.7182 10.527C13.4879 10.6463 10.8966 13.3075 10.8966 16.5602C10.8966 19.8161 13.4874 22.4673 16.7182 22.5861L21.6927 22.6536C25.6286 22.7806 28.7747 25.995 28.7747 29.9423C28.7747 33.8923 25.6291 37.1139 21.6927 37.2412L21.4508 37.2451H4.17076L4.16385 42.712L21.4333 42.6945L21.7396 42.6909C28.6635 42.5288 34.2246 36.8842 34.2246 29.9525C34.2246 23.0071 28.6635 17.3619 21.7396 17.1997L21.4333 17.1961L16.9483 17.2206L16.8537 17.2135C16.5451 17.1673 16.3082 16.8983 16.3082 16.5741C16.3082 16.2498 16.5451 15.9804 16.8537 15.9341L16.9483 15.9271L34.1864 15.9308L34.1933 10.5228ZM47.6136 3.83155H66.047V9.24964L47.6136 9.24641L47.3898 9.25091C44.5686 9.36451 42.2803 11.6152 42.1676 14.378L42.1633 14.5917V31.8431L42.1678 32.0706C42.2834 34.9362 44.5735 37.1657 47.3954 37.2754L47.6136 37.2796L65.9663 37.2732L65.97 42.6779L47.6136 42.6705L47.3242 42.6668C41.5556 42.5163 36.9103 37.8813 36.7596 32.132L36.7558 31.8436V14.6511L36.7596 14.3628C36.9103 8.61407 41.5556 3.98553 47.3242 3.83531L47.6136 3.83155ZM115.244 3.19887L114.959 3.20316C111.274 3.31413 108.187 5.57069 107.122 8.65557L107.043 8.90081L96.8039 38.9279L96.804 17.1998H81.4607V22.6009H91.3818V37.2658H78.9646L78.7471 37.2615C75.9355 37.1497 73.6586 34.8808 73.5437 32.0664L73.5391 31.8431V14.6507L73.5434 14.4328C73.6547 11.6161 75.9141 9.36409 78.7271 9.25045L78.9503 9.24595H96.804V3.83155H78.9088L78.6196 3.83531C72.8535 3.98553 68.2083 8.61407 68.0575 14.3628L68.0538 14.6511V31.8436L68.0576 32.132C68.2096 37.8813 72.8941 42.5163 78.6611 42.6668L78.9503 42.6705L96.804 42.6779L96.8039 42.6729L101.271 42.6738L112.451 9.84453L112.528 9.67563C113.018 8.67901 114.042 7.99165 115.234 7.99165C116.42 7.99165 117.448 8.67901 117.943 9.66975L118.02 9.83762L127.329 37.2658H112.913V42.6733H134.852L123.442 8.91418L123.365 8.67481C122.309 5.58586 119.215 3.31768 115.536 3.2034L115.244 3.19887ZM113.634 10.2966C113.909 9.67919 114.526 9.24687 115.248 9.24687C116.021 9.24687 116.681 9.74315 116.915 10.4316L125.582 36.035H112.891L112.902 31.2199L113.312 30.0119L117.146 30.0119L115.237 24.3381L113.312 30.0119L112.905 30.0119L112.902 31.2199L109.018 42.6733H102.621L113.58 10.4316L113.634 10.2966ZM96.8031 10.5085L78.9494 10.5122L78.7428 10.5173C76.6212 10.6216 74.9198 12.323 74.8155 14.4445L74.8105 14.6511L74.8114 31.8431L74.8165 32.0501C74.9207 34.1764 76.6221 35.8869 78.7437 35.9917L78.9503 35.9968H90.1021V23.88H81.4741V29.299H84.6762L84.6863 30.5713H81.4985L81.3697 30.5647C80.7761 30.5032 80.3005 30.0222 80.2397 29.428L80.2332 29.299L80.2046 17.1961C80.2068 17.0896 80.2544 16.0432 81.3171 15.918L81.4842 15.9064H96.81L96.8031 10.5085ZM16.9483 3.83155H34.1864L34.1933 9.26024L16.9446 9.26392L16.7031 9.26783C12.7735 9.39498 9.62433 12.6134 9.62433 16.5598C9.62433 20.517 12.7735 23.7352 16.7031 23.8623L21.6778 23.9192C24.9178 24.0379 27.502 26.686 27.502 29.9419C27.502 33.2013 24.9178 35.8526 21.6778 35.9714L21.4508 35.9756H4.17076L4.16385 30.5851L21.4088 30.5713L21.4998 30.5646C21.7977 30.5206 22.0346 30.2641 22.0346 29.9525C22.0346 29.6349 21.7977 29.3776 21.4998 29.3334L21.4088 29.3267L16.9483 29.3198L16.6423 29.3162C9.72524 29.1541 4.15694 23.5126 4.15694 16.5741C4.15694 9.63553 9.72524 3.99711 16.6423 3.83513L16.9483 3.83155ZM62.1247 23.8869H43.4779V31.8436C43.4779 34.0541 45.2202 35.8534 47.4073 35.9604L47.6136 35.9654L65.9659 35.9581L65.9696 30.5778L50.1574 30.5776C50.057 30.5747 49.0001 30.5192 48.8852 29.4648L48.8753 29.299H62.1247V23.8869ZM47.6136 10.5122H66.047V15.9377H50.1655L49.9997 15.9453C49.1027 16.0299 48.9214 16.7997 48.8849 17.0898L48.8757 17.1998H62.1251V22.6009H43.4784L43.4848 14.6511L43.4899 14.4445C43.5967 12.2545 45.3933 10.5122 47.6136 10.5122Z" fill="white"/>
<path fill-rule="evenodd" clip-rule="evenodd" d="M133.42 7.01291C132.699 7.72945 131.738 8.12805 130.717 8.12805C129.7 8.12805 128.742 7.72945 128.025 7.01337C127.298 6.28992 126.9 5.3356 126.9 4.31493C126.9 2.21737 128.616 0.514709 130.717 0.514709C131.738 0.514709 132.699 0.913301 133.42 1.62616C134.139 2.34961 134.542 3.30071 134.542 4.31447C134.542 5.33514 134.139 6.28945 133.42 7.01291ZM128.399 1.99987C127.774 2.61872 127.438 3.44355 127.438 4.31401C127.438 5.19137 127.773 6.01297 128.399 6.63137C129.021 7.25022 129.846 7.58937 130.717 7.58937C132.532 7.58937 134.007 6.12126 134.007 4.31401C134.007 3.44355 133.664 2.61872 133.045 1.99987C132.423 1.38147 131.598 1.04555 130.717 1.04555C129.847 1.04555 129.022 1.38101 128.399 1.99987Z" fill="white"/>
<path fill-rule="evenodd" clip-rule="evenodd" d="M129.738 6.4323V4.63565H130.829L131.986 6.4323H132.654L131.465 4.60062C131.471 4.5993 131.478 4.59788 131.486 4.59635C131.719 4.54966 132.472 4.39843 132.472 3.44356C132.472 3.05188 132.339 2.6989 132.021 2.46436C131.698 2.22045 131.358 2.21651 130.784 2.20986C130.774 2.20976 130.765 2.20965 130.755 2.20953H129.186V6.4323H129.738ZM130.86 4.1707H129.738V2.67817H130.829C130.84 2.67817 130.852 2.67816 130.863 2.67815C131.173 2.67792 131.441 2.67772 131.654 2.8565C131.895 3.05234 131.906 3.33527 131.906 3.44724C131.906 3.7546 131.766 4.0343 131.375 4.12877C131.207 4.1707 131.039 4.1707 130.86 4.1707Z" fill="white"/>
<path d="M363.991 70.0158L368.633 77.0118H381.294L376.651 70.0158H363.991ZM402.395 70.0158L397.752 77.0118H410.413L415.055 70.0158H402.395ZM0 70V76.36H61.7202C61.7202 72.862 59.1881 70.106 56.1284 70H0ZM68.156 70V76.36H108.775V70H68.156ZM120.275 70C117.11 70 114.578 72.862 114.578 76.36H162.583V70H120.275ZM173.977 70C170.812 70 168.385 72.862 168.385 76.36H213.858C213.858 72.862 211.326 70 208.161 70H173.977ZM240.445 70V76.36H287.922C287.922 72.862 285.39 70 282.33 70H240.445ZM300.688 70C297.734 70.318 295.413 72.968 295.413 76.36H341.835C341.835 72.862 339.303 70 336.243 70H300.688ZM348.587 70V76.36H359.982V70H348.587ZM419.381 70V76.36H460V70H419.381ZM0 78.4801V97.3482H11.289V78.4801H0ZM25.1101 78.4801V97.3482H36.3991V78.4801H25.1101ZM50.2202 78.4801V97.3482H61.6147V78.4801H50.2202ZM68.156 78.4801V90.5641C68.2615 94.3802 71.7431 97.3482 75.9633 97.3482H108.775V90.9882H82.0826C80.711 90.9882 79.5505 89.8221 79.5505 88.4441V86.8541H106.771V81.0241H82.0826C80.711 81.0241 79.5505 79.8581 79.5505 78.4801H68.156ZM114.578 78.4801V90.7762C114.789 94.2742 117.849 97.0302 121.647 97.3482H154.986C159.206 97.0302 162.583 93.5322 162.583 89.1861C162.583 84.6281 158.995 81.0241 154.459 81.0241H134.835V86.8541H148.867C150.028 86.8541 150.872 87.8081 150.872 88.9741C150.872 90.1401 149.922 90.9882 148.867 90.9882H127.977C126.817 90.9882 125.972 90.0341 125.972 88.9741V78.4801H114.578ZM168.28 78.4801V97.3482H179.674V78.4801H168.28ZM202.358 78.4801V84.0981H181.679V91.5182H202.358V97.3482H213.752V78.4801H202.358ZM240.445 78.4801V97.3482H251.839V78.4801H240.445ZM276.528 78.4801V88.9741C276.528 90.1401 275.578 90.9882 274.523 90.9882H253.422V97.3482H280.748C284.757 97.0302 287.922 94.0622 287.922 90.3521V78.4801H276.528ZM295.413 78.4801V97.3482H306.807V78.4801H295.413ZM330.44 78.4801V82.1901C330.44 83.2501 329.491 84.2041 328.436 84.2041H309.339V91.6242H325.271L331.073 97.4542H344.578L336.771 89.5041C339.725 88.3381 341.835 85.3701 341.835 81.9781V78.5861H330.44V78.4801ZM348.587 78.4801V97.3482H359.982V78.4801H348.587ZM370.005 79.1319L382.56 98H396.486L408.936 79.1319H396.275L389.417 89.5199L382.56 79.1319H370.005ZM419.381 78.4801V90.5641C419.486 94.3802 422.968 97.3482 427.188 97.3482H460V90.9882H433.307C431.936 90.9882 430.775 89.8221 430.775 88.4441V86.8541H457.995V81.0241H433.307C431.936 81.0241 430.775 79.8581 430.775 78.4801H419.381Z" fill="white"/>
</svg>
