<svg width="350" height="108" viewBox="0 0 350 108" fill="none" xmlns="http://www.w3.org/2000/svg">
<path d="M266.665 0H0V107.998H266.665V0Z" fill="#DA0B17"/>
<path d="M245.568 15.2031L220.217 52.2311L247.791 92.6846H222.328L207.176 71.0273L191.901 92.7357H166.604C167.291 91.3103 194.294 52.2291 194.294 52.2291L182.784 36.2162L133.96 36.2714C131.684 36.4514 128.89 35.7601 127.749 38.3287C127.351 39.1795 127.179 40.4331 127.637 41.292C128.032 42.2593 128.948 43.1694 129.97 43.4537L131.508 43.5702H151.051C160.106 43.7972 168.485 49.4334 172.412 57.581C175.89 64.4197 175.377 73.7616 171.502 80.2608C166.606 88.5167 157.885 93.1345 148.431 92.795H94.0773C94.0773 92.795 85.7579 62.7652 85.7007 62.7141L77.3241 92.795L57.5012 92.7991L49.5254 62.5996L40.8053 92.7357H18.874C18.874 92.7357 39.0404 20.1562 40.3513 15.3667H58.8735L67.5895 47.7279L76.4774 15.3667L94.6519 15.3626L110.205 71.7186H146.439C148.94 71.5979 152.419 72.2809 153.446 69.2093C153.844 67.835 153.505 66.4136 152.536 65.4463C151.621 64.6467 150.482 64.4238 149.288 64.4238L129.803 64.4197C120.571 64.1354 111.401 58.0964 107.982 49.2126C104.278 40.3206 106.444 29.6658 113.223 22.7821C118.009 17.9844 123.704 15.5917 130.375 15.3094L194.296 15.2542L207.176 33.8234L220.501 15.197L245.568 15.2031Z" fill="white"/>
<path d="M270.792 107.998C271.319 103.139 271.679 98.2553 272.411 93.4269C273.677 85.0748 278.62 78.868 284.674 73.3975C289.091 69.4055 293.629 65.5444 297.92 61.4216C300.848 58.6076 301.464 54.4949 299.866 51.5623C298.627 49.2882 296.596 48.2963 294.157 48.8199C291.762 49.3332 290.492 50.8813 290.371 53.2822C290.275 55.225 290.351 57.178 290.351 59.309C283.841 59.309 277.453 59.309 271.066 59.309C268.908 47.1797 278.103 34.3571 290.52 32.0667C294.946 31.2507 299.298 31.4634 303.599 32.6618C316.791 36.3388 323.092 48.5397 319.113 62.5934C317.546 68.1273 314.497 72.5058 309.752 75.9027C304.86 79.4059 300.265 83.3222 295.564 87.0913C294.51 87.9522 294.39 88.2385 293.952 89.302C302.736 89.302 310.597 89.302 319.295 89.302C319.295 95.6703 319.295 101.834 319.295 108C303.128 107.998 286.96 107.998 270.792 107.998Z" fill="#DA0B17"/>
</svg>
