<?xml version="1.0" encoding="UTF-8" standalone="no"?>
<svg
   xmlns:dc="http://purl.org/dc/elements/1.1/"
   xmlns:cc="http://creativecommons.org/ns#"
   xmlns:rdf="http://www.w3.org/1999/02/22-rdf-syntax-ns#"
   xmlns:svg="http://www.w3.org/2000/svg"
   xmlns="http://www.w3.org/2000/svg"
   xmlns:sodipodi="http://sodipodi.sourceforge.net/DTD/sodipodi-0.dtd"
   xmlns:inkscape="http://www.inkscape.org/namespaces/inkscape"
   width="500"
   height="200"
   viewBox="0 0 500 200"
   version="1.1"
   id="svg32"
   sodipodi:docname="atarijaguar.svg"
   style="fill:none"
   inkscape:version="0.92.5 (2060ec1f9f, 2020-04-08)">
  <metadata
     id="metadata38">
    <rdf:RDF>
      <cc:Work
         rdf:about="">
        <dc:format>image/svg+xml</dc:format>
        <dc:type
           rdf:resource="http://purl.org/dc/dcmitype/StillImage" />
        <dc:title />
      </cc:Work>
    </rdf:RDF>
  </metadata>
  <defs
     id="defs36" />
  <sodipodi:namedview
     pagecolor="#ffffff"
     bordercolor="#666666"
     borderopacity="1"
     objecttolerance="10"
     gridtolerance="10"
     guidetolerance="10"
     inkscape:pageopacity="0"
     inkscape:pageshadow="2"
     inkscape:window-width="1366"
     inkscape:window-height="743"
     id="namedview34"
     showgrid="false"
     inkscape:pagecheckerboard="true"
     inkscape:zoom="1.0307189"
     inkscape:cx="214.37832"
     inkscape:cy="41.457239"
     inkscape:window-x="0"
     inkscape:window-y="0"
     inkscape:window-maximized="1"
     inkscape:current-layer="svg32" />
  <path
     d="m 92.764949,102.2408 c 2.301826,-6.868051 4.360623,-13.817934 6.50848,-20.738901 0.529821,-1.706619 1.026431,-3.422604 1.539151,-5.135138 0.0654,-0.370739 1.95478,-6.978811 2.67455,-9.950644 0.86112,-3.555221 1.78797,-7.125069 2.21688,-10.744053 0.26622,-2.241528 1.25388,-3.399597 3.18974,-3.995804 1.12898,-0.347732 1.75345,-0.925041 2.92352,-1.010167 0.96136,-0.0705 1.63021,-0.311249 2.0739,-1.194714 0.37468,-0.747395 1.34591,-1.21082 1.84878,-1.876705 0.37139,-0.49399 0.84305,-1.080831 1.38698,-1.245659 1.55132,-0.468683 3.20617,-0.617406 4.74107,-1.125858 1.93586,-0.640414 4.1741,-1.10203 5.58246,-2.400605 1.44121,-1.328204 2.7789,-2.050983 4.63916,-2.193 1.72223,-0.131797 3.22097,-0.797616 3.77642,-2.602031 0.34511,-1.1182 1.19964,-1.621607 2.06405,-2.177716 0.79045,-0.159898 1.22922,-0.477048 1.32618,-1.426016 0.097,-0.94813 -3.46582,-0.419219 -3.70083,-0.657324 -1.0961,-1.113944 -0.99093,-1.335024 0.45193,-1.88009 0.93999,-0.354601 1.97202,-0.466842 2.96296,-0.688776 0.59982,-0.142856 1.20129,-0.286568 1.80111,-0.430278 1.42314,-0.185371 2.843,-0.386056 4.26942,-0.552725 2.46831,-0.292515 4.94319,-0.542502 7.40657,-0.86054 0.57682,-0.07482 1.19472,-0.251695 1.66964,-0.568878 0.43714,-0.291662 1.03532,-1.318022 1.0501,-1.819721 0.0147,-0.5017 -0.9745,-0.784864 -1.44778,-0.769558 -1.97038,0.06633 -3.94733,0.203231 -5.89963,0.479592 -3.0369,0.431973 -6.06067,0.961732 -9.07786,1.517851 -2.51597,0.464296 -5.0155,1.024662 -7.5216,1.541676 -0.35168,0.04166 -4.87254,1.095226 -5.19628,1.187911 -0.96957,0.230447 -1.93751,0.460893 -2.90708,0.690486 l -0.21528,0.03056 c -0.94822,0.167523 -1.89479,0.335884 -2.843,0.503407 -2.94159,0.609699 -5.87825,1.248305 -8.82643,1.820585 -1.59733,0.30867 -3.2341,0.707478 -4.82323,1.046764 -2.26781,0.484689 -4.49127,0.908164 -6.766482,1.353741 -5.03145,0.986389 -10.081624,1.871594 -15.125058,2.797605 -0.484628,0.01792 -17.90889,3.111403 -27.178536,3.383508 -2.148679,0.06294 -4.306888,0.02629 -6.461643,0.0082 -0.74493,-0.0065 -1.340961,0.118157 -1.579082,0.975344 -0.305339,1.097757 -0.05435,1.455843 1.220166,1.961666 0.573203,0.228755 1.045992,0.711734 1.564638,1.079187 -0.596869,0.400485 -1.152978,0.896283 -1.804403,1.166614 -0.444672,0.186192 -1.026259,0.01643 -1.534868,0.08841 -0.407226,0.05784 -0.866542,0.153161 -1.179435,0.392104 -1.36398,1.038268 -0.946405,2.263549 1.049436,3.174293 2.649561,1.209999 2.806839,1.776297 1.154621,4.17 -0.318809,0.218564 -0.956595,0.422668 -0.955773,0.655696 8.21e-4,0.231219 0.569748,0.544112 0.90565,0.640248 0.284953,0.08168 0.644511,-0.09614 0.97105,-0.159897 0.434494,0.481337 1.019535,0.896282 1.271296,1.458308 0.534086,1.193071 1.310402,1.666684 2.62508,1.564633 3.670914,-0.286601 7.381766,-0.259321 11.014384,-0.785686 3.798437,-0.550194 7.484633,-1.754275 11.350287,-2.096092 3.154743,-0.278054 6.280553,-0.892832 9.420003,-1.356256 0.847808,-0.125059 1.33687,0.198188 1.307127,1.102851 -0.03916,1.202439 0.06966,2.482116 -0.145439,3.604687 -0.214298,1.1206 -0.873275,4.847716 -1.470301,7.476089 -0.789966,3.483079 -1.939647,7.406411 -1.961669,7.612322 -0.348721,1.200632 -0.695629,2.399619 -1.043359,3.60025 -1.172694,3.664177 -3.93287,12.821413 -4.156531,13.732972 -1.028077,4.182819 -5.486323,14.916688 -6.131008,16.305318 -1.48295,3.19467 -2.973473,6.40725 -4.767849,9.43019 -1.769552,2.98136 -3.913965,5.74071 -5.901269,8.59193 -1.528144,2.19123 -5.414999,6.02797 -5.465122,6.08499 -5.795104,6.61053 -12.374075,8.01871 -12.524606,8.06966 -4.310341,1.49232 -8.425124,1.45749 -12.650502,-0.68018 -1.903163,-0.96349 -3.928592,-1.81212 -5.580814,-3.11316 -1.768738,-1.3929 -3.685376,-3.18531 -5.309498,-4.63441 -0.486432,-0.4345 -0.832521,-1.05783 -1.501693,-1.40901 -0.989789,-0.51699 -1.677694,-0.0705 -1.726995,1.07311 -0.02136,0.4976 0.0161,1.08428 0.259321,1.49332 1.859613,3.12317 3.929412,6.12837 7.055227,8.0994 3.033951,1.91417 7.613965,4.09868 10.658928,5.32231 3.045125,1.22282 5.474488,2.04762 7.825793,2.52715 2.351139,0.4787 6.325577,1.15051 9.646122,0.16499 3.320708,-0.98125 7.000996,-2.49822 12.130215,-6.68285 5.129218,-4.18609 15.421686,-15.93621 19.385931,-23.23712 1.7058,-3.13945 3.24414,-6.37077 4.789219,-9.59354 1.293308,-2.69722 2.726968,-5.36388 3.673379,-8.18716 z"
     id="path2"
     inkscape:connector-curvature="0"
     style="fill:#f50005;stroke-width:1.64334917" />
  <path
     d="m 245.72394,110.47645 -0.008,0.007 -0.008,0.008 z"
     id="path4"
     inkscape:connector-curvature="0"
     style="fill:#f50005;stroke-width:1.64334917" />
  <path
     d="m 157.12113,48.742553 c -0.52258,-0.131797 -1.04352,-0.263593 -1.56611,-0.395389 l -0.0592,-0.01479 c -0.10522,-1.443025 -0.16598,-2.890323 -0.33196,-4.326446 -0.0887,-0.778947 0.20049,-1.839351 -1.07639,-2.017063 l -0.0101,0.01479 c -0.81182,-0.674314 -2.57021,-0.132618 -2.57021,-0.132618 0,0 -1.7633,0.327389 -2.12156,1.25427 -1.09775,0.141985 -2.19222,0.391939 -3.28998,0.403936 -3.71561,0.0424 -3.70576,0.01479 -5.06645,3.449718 -0.17419,0.437953 -0.53244,0.801133 -0.80687,1.198988 -0.30895,-0.3571 -0.81511,-0.677717 -0.89234,-1.079845 -0.26129,-1.342781 -1.12405,-1.603745 -2.27111,-1.505965 -1.13226,0.09696 -1.14542,0.9303 -1.38205,1.813765 -0.57189,2.136025 -1.1372,4.379197 -3.02705,5.797571 -2.28098,1.714342 -3.19139,4.150608 -3.94075,6.724586 -0.56532,1.947204 -0.77238,4.065481 -2.65894,5.390185 -0.26458,0.187177 -0.51601,1.456665 -0.43221,1.623301 -1.60883,2.148021 -6.54382,9.442191 -7.26524,10.887845 -0.78882,1.582382 -1.73703,3.164105 -2.10349,4.856256 -0.30073,1.394555 -0.69514,2.576443 -1.67951,3.573133 -1.91285,1.046656 -1.45272,2.920076 -1.59404,4.583306 -0.32209,0.516182 -0.6442,1.036629 -0.96629,1.553621 -0.23993,0.342643 -0.47986,0.687909 -0.71978,1.031374 -0.11997,0.129324 -0.24158,0.261123 -0.36318,0.39029 -0.3254,0.37682 -0.37141,0.852895 -0.97617,1.13441 -0.60474,0.280682 -2.72631,1.046813 -4.12645,1.443844 -2.12485,0.599491 -2.58334,0.890368 -2.51432,2.034951 0.0936,1.562005 1.26045,1.612133 2.41736,1.685263 0.96958,0.0604 1.17007,0.65569 0.81018,1.43036 -1.12241,2.40554 -2.2251,4.82571 -3.45432,7.17602 -2.89855,5.54252 -8.958063,17.04662 -9.034643,17.28392 -0.553487,1.39964 -1.107131,2.79928 -1.659785,4.19992 -0.0045,0.17928 -0.009,0.35873 -0.01283,0.53819 -0.221028,0.30353 -0.442225,0.60804 -0.663253,0.91075 -0.12408,0.20147 -0.248317,0.40475 -0.372386,0.60623 -0.03669,0.17173 -0.07315,0.34263 -0.109721,0.51354 -0.611329,1.12258 -1.517801,2.1855 -1.756745,3.38366 -0.266221,1.32898 -0.753459,2.47094 -1.601279,3.40978 -1.794208,1.98813 -1.141961,4.15307 -0.645337,6.32229 0.160721,0.70155 0.773851,0.77632 1.152978,0.32309 0.645506,-0.77123 1.197338,-1.64714 1.65139,-2.5467 0.494159,-0.98043 0.778128,-2.06799 1.270475,-3.0494 0.14446,-0.28742 0.717651,-0.54921 1.038272,-0.49563 0.22958,0.0399 0.580765,0.68872 0.503353,0.95906 -0.274594,0.96513 -0.740653,1.87505 -1.061274,2.82918 -0.08147,0.24223 -0.0458,0.79752 0.168452,0.86819 0.214287,0.0704 0.720274,-0.15826 0.819697,-0.36318 0.632689,-1.30778 1.166617,-2.66322 1.778104,-3.98218 1.074756,-2.31547 2.169227,-4.62158 3.295085,-6.91241 0.117327,-0.23796 0.567936,-0.52882 0.754123,-0.4667 0.238122,0.0799 0.414125,0.47607 0.524724,0.76776 0.08496,0.22712 0.06887,0.51372 0.02813,0.76187 -0.442225,2.66764 -0.901374,5.33003 -1.341787,7.99406 -0.02386,0.14297 0.07315,0.43631 0.121446,0.43878 0.228748,0.008 0.586831,0.0147 0.665054,-0.11899 0.244862,-0.41576 0.392766,-0.89119 0.562849,-1.34951 0.763667,-2.05698 0.924388,-4.41321 3.032648,-5.79757 0.37632,-0.24748 0.72799,-0.85881 0.72636,-1.29857 -0.0101,-1.91747 4.45841,-11.47699 4.99085,-12.49899 l 0.0101,-0.0115 c 0.42069,-1.0552 5.45427,-11.3963 6.44192,-14.04669 0.12162,-0.32736 1.72553,-3.841 1.83562,-3.98381 0.70829,-1.54853 1.41657,-3.09869 2.12487,-4.646407 1.0698,-0.525376 2.10512,-1.132598 3.21273,-1.562827 5.64162,-2.191407 18.88866,-7.630893 19.54764,-7.471973 0.007,0.16762 0.0132,1.438747 0.0181,1.608009 0.0132,0.34692 0.0263,0.693007 0.0395,1.040737 -0.0101,2.390412 -0.0641,4.780667 -0.0147,7.170101 0.0394,1.88607 0.51766,8.02726 0.37632,9.18714 -0.22349,1.82232 -0.2958,3.5263 0.52588,5.28567 0.76416,1.63348 1.08789,3.44561 0.57681,5.28238 l -0.0361,0.0536 c -0.0101,0.69727 -0.0214,1.39865 -0.0313,2.09773 v 0.005 c 0.12325,1.26948 0.11504,2.53306 1.14542,3.56804 0.70828,0.71174 1.24895,0.93868 1.84055,0.0525 0.42562,-0.6368 0.6787,-0.53902 1.13227,-0.033 1.15034,1.28822 1.79125,2.67175 1.46258,4.47188 -0.10679,0.58585 0.16105,1.3035 0.43548,1.87506 0.15119,0.31717 0.4092,0.90039 1.0271,0.67854 0.61953,-0.22366 0.56038,-0.81461 0.61132,-1.24829 0.0986,-0.8478 -0.0312,-1.72207 0.0542,-2.57233 0.0756,-0.74657 0.22679,-1.51188 0.51437,-2.19897 0.16762,-0.40048 0.62776,-0.76531 1.04189,-0.92439 0.14954,-0.056 0.60475,0.49745 0.81839,0.83598 0.26951,0.42941 0.35495,0.98978 0.66226,1.37745 0.7428,0.93458 1.76825,0.76367 2.10842,-0.36893 0.21857,-0.72619 0.31388,-1.52042 0.29416,-2.28063 -0.0854,-3.17857 -0.36483,-6.35878 -0.33196,-9.53488 0.0642,-6.3665 0.29253,-12.73464 0.44042,-19.101139 0.14626,-6.283186 0.24815,-12.566362 0.42562,-18.84856 0.0526,-1.881799 0.40591,-3.757682 0.42235,-5.637838 0.0559,-6.119833 0.60639,-12.188721 1.57597,-18.228687 0.28759,-1.796838 -0.0231,-3.500827 -0.99094,-5.063816 z m -18.59285,33.736483 c -1.03202,0.421687 -2.13472,0.677713 -3.16838,1.097758 -0.43549,0.176824 -1.41822,0.869819 -1.41822,0.869819 0,0 -0.41083,0.489062 -0.5308,0.648792 -0.74443,0.356283 -1.49051,1.011984 -2.23494,1.010341 -1.85865,-0.0079 -3.12074,0.785679 -4.06894,2.272095 -0.23171,0.363012 -0.39769,0.79324 -0.7017,1.078199 -0.21365,0.199826 -0.64749,0.340167 -0.91371,0.265231 -0.23829,-0.06966 -0.55381,-0.487249 -0.53244,-0.722738 0.0707,-0.753482 0.15283,-1.550178 0.46178,-2.225426 1.25059,-2.727801 2.51432,-5.45477 3.90952,-8.109601 2.1988,-4.181996 4.50607,-8.306144 6.76732,-12.454122 0.37304,-0.682812 0.6491,-1.409007 1.73537,-1.114684 0.36811,0.09942 0.90055,-0.249296 1.30318,-0.486431 0.38617,-0.227933 0.70169,-0.576487 1.0468,-0.870811 0.0871,0.500071 0.24652,0.999978 0.24815,1.50087 0.0181,4.745829 -0.0443,9.492315 0.0345,14.236335 0.0263,1.539983 -0.62283,2.466832 -1.93751,3.004373 z"
     id="path6"
     inkscape:connector-curvature="0"
     style="fill:#f50005;stroke-width:1.64334917" />
  <path
     d="m 255.34082,44.649956 c -0.51765,-0.195558 -1.03531,-0.393746 -1.55132,-0.589305 -0.003,-0.127524 -0.0428,-0.238121 -0.12325,-0.329163 -0.023,-0.02547 1.54803,-1.927648 0.65569,-2.851966 -0.23992,-0.188772 -1.58254,-0.652213 -1.82248,-0.839292 -0.1216,-0.751684 -0.26293,-1.500838 -0.35989,-2.255085 -0.16105,-1.215997 -0.9022,-1.51701 -1.98845,-1.314631 -0.35003,0.249148 -0.70171,0.497442 -1.05339,0.746591 l -0.15447,-0.0033 -1.64006,-0.129168 c -1.17993,0.350346 -0.70828,0.977892 -1.88657,1.329075 -0.2695,0.196429 -0.53737,0.392859 -0.80523,0.588434 -0.80689,0.684537 -1.37385,1.073978 -2.36151,2.443036 -0.98765,1.368154 -2.1232,3.600316 -2.81176,4.841044 -0.68692,1.239743 -3.51513,8.601947 -3.56112,8.692989 -0.22679,0.20739 -4.94977,10.658928 -6.50932,14.161561 -1.21443,2.724509 -2.81177,5.993131 -3.99826,9.2772 -1.1865,3.283905 -2.32699,8.293324 -2.59321,8.60277 -0.0888,0.227926 -0.17912,0.45422 -0.26786,0.681989 -0.11832,0.34872 -0.23501,0.697272 -0.35168,1.045992 -0.0476,0.34181 -0.0921,0.686266 -0.13968,1.028898 -0.33525,1.882625 -0.84141,4.457425 -1.20129,5.606284 -0.36154,1.14887 -1.13556,2.445632 -1.57434,3.721858 -0.3566,2.435453 -0.77401,4.865633 -1.05338,7.310443 -0.21364,1.87325 -0.25143,3.76705 -0.36811,5.65132 0.0739,0.68281 0.1479,1.36398 0.2235,2.04843 0.34345,1.21854 0.42234,1.79683 1.03202,3.65563 0.60968,1.85797 3.17824,3.60041 3.17824,3.60041 3.03198,1.70235 8.1428,1.69807 10.44513,0.1198 2.30233,-1.5781 3.88323,-2.63347 4.8758,-3.50411 0.99258,-0.86999 6.00974,-4.85298 8.38272,-7.5009 2.37465,-2.64876 3.26699,-3.92087 3.97033,-4.62159 0.35497,1.22281 0.0101,2.28491 -0.751,3.25169 -0.16104,0.46425 -0.32374,0.92849 -0.48807,1.3929 -0.12654,2.11303 -0.35167,4.22522 -0.35824,6.33758 -0.0115,2.84184 1.12404,8.80013 4.08865,9.3163 2.96459,0.51519 3.45103,0.53393 5.20119,-0.35462 1.35741,-0.69137 2.91038,-1.04682 4.41405,-1.39028 1.08624,-0.24667 1.45599,0.2746 0.97942,1.30942 -0.54065,1.17006 -1.16513,2.30709 -1.81753,3.41932 -2.60307,4.45149 -5.18806,8.91073 -7.84699,13.33248 -1.05833,1.75839 -0.45522,1.99996 0.97614,2.02033 0.25636,0.005 -0.25801,1.4353 -0.21528,1.91073 0.13476,1.51616 0.87591,1.97185 2.13143,1.0943 0.73622,-0.51436 1.2966,-1.33242 1.8159,-2.0951 0.52587,-0.77221 0.86275,-1.67523 1.38698,-2.44991 0.097,-0.14625 0.88905,-0.0875 1.02217,0.10983 0.33195,0.47789 -0.17749,1.63169 0.93013,1.42939 0.52258,-0.0943 0.94164,-0.85208 1.37549,-1.33588 0.28594,-0.32143 0.493,-0.70746 0.76908,-1.03909 0.46178,-0.55874 0.89728,-0.76613 1.37385,0.0415 0.48642,0.83088 1.20129,0.64798 1.70579,0.0808 0.79867,-0.89628 1.60391,-1.82658 2.17087,-2.87159 1.51024,-2.79089 2.93009,-5.63355 4.31543,-8.48987 0.50122,-1.03482 1.04517,-1.80686 2.33027,-1.47095 1.07803,0.28215 1.54146,-0.21858 1.88656,-1.18716 0.48643,-1.37763 1.02216,-2.75507 1.72223,-4.03229 2.30234,-4.21174 4.69341,-8.37582 7.04175,-12.56208 1.88822,-3.36558 3.75998,-6.74152 5.63505,-10.11301 1.01066,-1.816389 1.79947,-3.781513 3.02048,-5.475476 1.59898,-2.222793 4.69012,-2.68704 5.65147,-2.585805 0.95972,0.10038 1.98517,-0.47953 2.42558,-0.926852 0.44207,-0.445679 0.54889,-0.387837 1.175,-0.791766 0.62612,-0.403772 1.02874,-0.738032 1.32947,-0.956595 0.29745,-0.218564 4.89718,-2.034794 5.86511,-2.980383 1.86521,-1.824772 4.74764,-2.885224 7.32276,-3.088506 0.24322,1.184521 0.30567,2.469457 0.31882,3.677812 0.0247,2.711697 -0.0313,5.427659 -0.0525,8.140335 -0.0181,0.356282 -0.0378,0.713375 -0.0542,1.068836 -0.70335,1.743095 0.0443,3.31891 0.50287,4.95322 0.21692,0.77385 0.44207,1.75674 0.15447,2.42509 -0.94985,2.19059 -0.50122,4.41749 -0.45521,6.63009 0.0181,0.87673 0.3599,1.77038 1.54147,1.6514 0.9745,-0.0978 1.12405,0.41577 1.18979,1.22281 0.12653,1.54163 0.36152,3.07307 0.5538,4.60795 0.18077,1.44648 0.32702,2.8997 0.57024,4.33598 0.12819,0.76187 0.44207,1.36136 1.33605,1.70399 1.45271,0.55792 1.49709,0.79505 0.78059,2.25254 -0.40591,0.8248 -0.82496,1.55099 0.007,2.31384 1.38039,1.26274 1.43956,2.62919 0.40096,4.13252 -0.62283,0.90483 -0.51271,1.64812 0.67048,1.91335 1.00244,0.22531 1.06654,1.04599 1.17172,1.7832 0.0871,0.58503 -0.0296,1.19636 -0.0739,1.79585 -0.0542,0.80869 0.21199,1.36644 1.1109,1.38436 0.78717,0.0179 0.99259,-0.48725 1.0271,-1.18108 0.19063,-3.77378 0.34182,-7.54757 0.61955,-11.31298 0.11667,-1.60801 0.79866,-5.41154 0.82167,-5.72181 0.15941,-1.57498 0.63433,-5.45164 0.71485,-5.81646 0.15941,-4.13516 0.53245,-14.71159 0.76581,-18.601892 0.23499,-3.889478 1.46586,-22.133613 1.54803,-24.877513 -0.0936,-0.17781 2.27768,-17.336842 3.0747,-21.229607 0.79868,-3.893753 0.74938,-7.398852 0.65406,-7.800157 -0.097,-0.401471 -1.79783,-0.868182 -2.74275,-1.023807 -1.89971,-0.310429 -3.83065,-0.426121 -5.75008,-0.620792 -1.25059,-0.154803 -0.99423,-1.68537 -1.0994,-1.955783 -0.10353,-0.269558 -4.16917,-1.434512 -4.98428,-1.009345 -0.81345,0.425168 -1.00737,4.350406 -1.20456,6.164992 -0.5078,0.868182 -1.01067,1.737185 -1.51517,2.605366 -0.37304,0.33853 -0.74608,0.679525 -1.11912,1.018712 -0.1479,0.152174 -0.29909,0.303527 -0.44699,0.455865 -1.00244,0.627431 -2.0016,1.255848 -3.00404,1.883443 -1.42972,1.525521 -2.85779,3.05022 -4.28914,4.575742 -0.0953,0.102878 -0.82661,1.021177 -1.03531,1.29841 -0.77731,1.072285 -2.60471,3.397132 -2.62114,3.58168 -0.28595,0.39276 -0.57353,0.785685 -0.86113,1.177623 0,0 -0.64583,0.248311 -0.74279,0.426943 -1.22593,2.23216 -2.42229,4.482071 -3.62358,6.728693 0,0 -0.86605,0.418397 -1.32783,0.642878 -0.39933,0.308621 -0.79867,0.618228 -1.19635,0.926028 -0.15941,0.05358 -2.63265,3.289163 -3.9539,4.670891 -0.26951,0.284793 -0.76088,1.297589 -0.75594,1.460116 -1.77154,0.735399 -1.54968,3.522848 -1.80933,3.853654 -0.25965,0.330806 -1.45601,0.886916 -1.7666,1.467679 -0.90056,1.683609 -1.98353,4.667604 -2.39765,5.210896 -0.41084,0.545092 -1.03696,1.088383 -1.43136,1.457483 -0.26293,0.105445 -0.52258,0.210022 -0.78716,0.315523 -1.13391,0.117339 -1.65979,1.574823 -1.8077,1.879992 -0.14953,0.306982 -0.5423,0.364824 -0.81181,0.546735 -0.19392,0.133612 -0.39111,0.266233 -0.58666,0.402298 l 0.0329,-0.0314 c -0.39768,0.17337 -0.79374,0.346087 -1.18813,0.518635 -2.48804,1.505963 -4.97772,2.998298 -7.44767,4.539923 -0.20871,0.131789 -0.40591,0.672616 -0.30238,0.865713 0.86769,1.667505 0.32704,2.983823 -0.90385,4.179363 -0.10522,0.10128 -0.18239,0.41922 -0.14462,0.44387 0.19721,0.13098 0.47823,0.32818 0.65571,0.26951 1.05995,-0.34938 2.08705,-0.80096 3.15194,-1.13604 0.3714,-0.11553 1.07968,-0.13263 1.17664,0.0503 0.20213,0.37666 0.21693,0.95233 0.0887,1.38338 -0.13311,0.47114 -0.51108,0.87507 -0.79208,1.30283 -0.98437,1.50417 -3.53815,4.8801 -3.72712,5.14024 -1.40999,1.93537 -2.77561,3.90558 -4.19218,5.83504 -0.83318,1.1344 -1.74853,1.7339 -3.04842,0.74065 -0.94,-0.71945 -1.83398,-1.50004 -2.74932,-2.25007 -0.0625,-0.52537 -0.12655,-1.04927 -0.19227,-1.57646 0.36811,-2.00259 0.47164,-3.99991 1.41985,-5.94893 1.33276,-2.7365 2.14457,-5.72789 3.15194,-8.620841 1.0994,-3.154732 2.1725,-6.318838 3.25055,-9.4795 0.54887,-1.613928 1.08789,-3.235588 1.61213,-4.860533 1.81918,-3.625059 3.65973,-7.237306 5.43784,-10.880118 0.9367,-1.914173 1.75837,-3.882576 2.63265,-5.828137 0.1479,-0.04256 0.20706,-0.1387 0.18239,-0.289231 1.60393,-3.101986 3.33929,-6.147112 4.74107,-9.336688 0.51438,-1.172694 0.44372,-2.724509 0.23665,-4.039188 -0.097,-0.622337 -1.12242,-1.128324 -1.77482,-1.630039 -0.69186,-0.533924 -0.68362,-1.007701 -0.21364,-1.738991 0.95314,-1.493148 0.81346,-2.414081 -0.212,-3.646264 -0.81509,-0.980422 -1.88821,-1.129145 -3.03197,-1.083295 -1.44122,0.05538 -2.81177,0.03746 -4.27435,-0.377478 -1.20293,-0.341817 -2.90709,-0.890367 -3.98348,0.690371 l -0.10353,0.103857 c -0.40755,0.727839 -6.81333,11.851999 -7.16665,12.425036 l -1.81261,2.78071 c -0.46343,0.695466 0.60146,1.809492 0.3714,2.365602 -0.23006,0.556931 -0.79209,-0.270331 -1.67293,0.610504 -0.0558,0.01792 -0.7773,2.566419 -1.37055,4.903919 -0.051,0.198188 0.72472,0.403935 0.67213,0.610504 -0.0443,0.168443 -0.9137,0.891188 -0.95808,1.064726 -0.44205,1.738992 -0.9367,3.144548 -1.40669,4.954863 -0.0871,0.331627 0.10353,0.382736 0.0181,0.701545 -0.0822,0.314702 -0.43878,0.07066 -0.51765,0.369096 -0.44864,1.686241 -0.84304,3.909857 -1.09612,4.627507 -0.0724,0.20657 0.13312,0.412481 0.0608,0.619872 -0.10027,0.285778 -0.47657,0.572378 -0.57681,0.859798 -1.19143,3.442166 -2.32369,6.89796 -3.36394,10.389427 -0.0936,0.233845 -0.18897,0.470155 -0.28429,0.704001 -0.84139,1.130133 -1.68444,2.260267 -2.52748,3.3904 -0.48478,0.430229 -0.97121,0.858814 -1.45435,1.2874 10e-4,0.0943 0,0.18783 -0.008,0.274605 0.008,-0.08845 0.0101,-0.180279 0.008,-0.274605 -0.37469,0.428586 -0.74774,0.856181 -1.11255,1.285588 -0.24486,0.199016 -0.493,0.399664 -0.73952,0.599487 -0.16761,0.0417 -0.27115,0.14808 -0.30566,0.3198 -0.19392,0.20148 -0.38781,0.40394 -0.58503,0.60623 -0.001,-0.0212 0.003,-0.0382 -0.001,-0.0595 -0.57516,0.57912 -1.15198,1.15643 -1.73044,1.73473 0.13803,-0.005 0.26786,-0.0164 0.39604,-0.0332 -0.12653,0.0179 -0.25801,0.0281 -0.39604,0.0332 -0.23664,0.21001 -0.47329,0.41921 -0.71158,0.62841 -0.28921,0.30188 -0.57844,0.60459 -0.86603,0.90565 -0.15448,0.0568 -0.91207,0.77714 -1.24402,0.99998 -0.15283,0.0764 -0.31881,0.13344 -0.45193,0.23302 -3.82407,2.88606 -7.64486,5.77457 -11.46563,8.66489 -0.30402,0.10038 -0.29745,0.12408 -0.90877,0.30434 -0.61297,0.18028 -2.3648,-0.0713 -2.42066,-0.81707 -0.0558,-0.74575 0.57516,-5.02716 1.24402,-7.53837 1.34918,-5.06037 3.13058,-9.902984 5.51506,-14.546596 0.92521,-1.800285 1.83235,-4.268762 2.62937,-5.474485 0.79866,-1.205891 2.40586,-3.352105 2.97775,-4.500974 0.57188,-1.150509 0.87918,-3.325646 1.64663,-4.817971 1.40506,-2.733055 3.00076,-5.375067 4.64739,-7.974517 1.06654,-1.687884 1.96545,-3.338464 2.17087,-5.40892 0.13475,-1.392902 0.71158,-2.789092 1.03366,-3.263691 0.32209,-0.475257 1.13063,-1.169243 1.28839,-1.477864 1.04517,-2.04597 2.01474,-4.131708 3.00897,-6.204137 0,0 2.06569,-3.31447 2.86436,-5.075648 0.81017,-1.789114 0.728,-1.827404 -1.2851,-2.756718 z m -5.22913,54.095109 c -0.005,0.01789 -0.007,0.03995 -0.0101,0.05705 0.003,-0.01711 0.005,-0.03826 0.0101,-0.05705 z m 15.96349,-40.70477 0.0854,0.116348 -0.0822,-0.101888 c -0.003,-0.005 -0.003,-0.0099 -0.003,-0.01479 z m 51.68826,8.643688 c -0.48971,1.323061 -0.93835,2.527143 -0.82004,3.954063 0.0543,0.653889 -0.16597,1.346067 -0.34016,1.999134 -0.22842,0.852077 -0.77567,1.279677 -1.71895,1.194715 -2.48145,-0.226289 -4.19875,1.125036 -5.75172,2.825575 -0.34017,0.372547 -0.73622,0.776482 -1.18979,0.945583 -0.94657,0.352992 -1.94901,0.558738 -2.92516,0.824961 0.2087,-0.877549 0.31716,-1.796016 0.6557,-2.623279 0.47821,-1.177788 0.97944,-2.391237 1.72059,-3.408305 2.77233,-3.807805 5.64655,-7.540673 8.50432,-11.28225 1.26211,-1.652224 1.04517,-0.02466 1.64336,0.118156 0.16598,0.0401 0.62776,-0.78815 0.79045,-0.736384 0.21035,0.06886 0.27772,0.279862 0.37304,0.456686 0.0871,0.164992 0.15776,0.338366 0.2087,0.51782 0.12489,0.424312 0.15941,0.875904 0.13641,1.3155 -0.046,0.897105 -0.38784,1.722724 -0.72637,2.542591 -0.18898,0.451428 -0.39276,0.898747 -0.56038,1.355434 z"
     id="path8"
     inkscape:connector-curvature="0"
     style="fill:#f50005;stroke-width:1.64334917" />
  <path
     d="m 380.53938,93.881246 c 0.78388,0.258502 2.57842,0.727847 3.87994,1.052733 1.61377,0.405583 3.03198,1.080663 4.1774,2.36642 1.47409,1.657321 3.06978,3.206671 4.60138,4.816331 0.34511,0.36219 0.73786,0.73211 0.93506,1.17779 1.30647,2.95392 2.95475,5.53217 6.2546,6.636 0.69184,0.23041 1.25716,0.85882 1.86026,1.32898 0.45193,0.35727 0.83154,0.81806 1.31633,1.12932 2.0131,1.30268 4.09194,2.51021 6.06889,3.86646 1.40341,0.96169 2.68194,2.1081 4.01634,3.17002 0.18406,0.14116 0.36647,0.27986 0.54888,0.41922 1.19965,1.05964 2.40094,2.1191 3.60223,3.17955 7.11898,7.10535 13.97668,14.52031 22.8179,19.62668 0.6902,0.42431 1.38205,0.84863 2.07062,1.27376 0.47986,0.28562 0.9515,0.57057 1.42807,0.85619 0.40262,0.30188 0.80031,0.60294 1.19964,0.90482 2.05747,1.54426 4.16424,3.03149 6.16257,4.64789 3.33927,2.70249 6.59969,5.50013 9.9176,8.22546 0.99587,0.81707 10.48951,7.21841 11.54782,7.95398 0.10184,0.0715 2.91859,0.83679 0.69678,-1.04502 -1.42971,-1.21344 -8.21675,-5.3486 -8.28248,-5.40562 -1.94079,-1.68116 -4.44033,-3.04596 -6.35977,-4.75175 -2.56526,-2.27719 -5.08616,-4.59776 -7.62348,-6.90815 -3.03033,-2.76099 -5.59397,-6.07136 -9.41147,-7.9022 -0.44371,-0.21085 -0.87919,-0.60969 -1.11748,-1.03482 -1.80111,-3.23132 -4.70984,-5.44557 -7.36548,-7.84601 -1.82412,-1.6514 -4.1281,-2.76444 -6.10505,-4.26613 -2.52748,-1.9168 -4.94156,-3.98217 -7.40494,-5.98048 -0.22184,-0.2322 -0.44368,-0.46605 -0.66884,-0.69809 -1.09612,-0.99998 -2.19058,-2.00013 -3.28669,-2.99747 -1.92272,-1.4192 -3.82736,-2.86403 -5.77802,-4.24494 -0.83154,-0.5893 -1.77482,-1.02627 -2.63922,-1.57745 -0.28923,-0.18537 -0.94656,-0.4999 -0.16927,-0.86308 1.2473,-0.58503 0.48644,-0.92175 -0.0871,-1.35955 -3.47569,-2.65745 -6.86921,-5.38361 -9.77136,-8.71172 -1.08461,-1.243355 -2.74768,-1.978754 -4.13959,-2.958362 -0.47986,-0.339346 -1.00409,-0.659966 -1.38864,-1.093638 -1.92436,-2.168237 -3.01554,-5.014356 -5.51014,-6.727055 -0.2498,-0.17337 -0.38948,-0.572212 -0.47986,-0.895297 -0.0838,-0.287423 -0.023,-0.613952 -0.0279,-0.922576 0.30567,0.02971 0.72143,-0.05784 0.9055,0.10792 0.90383,0.795052 1.72057,1.681966 2.61127,2.488857 0.49136,0.444689 1.03038,1.056998 1.61377,1.139496 1.13555,0.160721 1.88328,0.512727 2.32206,1.658143 0.18405,0.471967 0.90548,0.748373 1.40176,1.082475 1.42151,0.958396 2.89066,1.846131 4.2645,2.869942 0.77073,0.577311 1.35248,1.340977 2.46502,0.648792 0.21692,-0.134421 0.83811,0.07484 1.06819,0.319799 2.79369,3.021954 5.53643,6.092554 8.32192,9.121574 1.2588,1.3648 2.28589,2.96427 4.09193,3.78644 0.97451,0.44305 1.9408,1.04517 2.69509,1.79175 1.33605,1.32485 2.58828,2.75507 3.7337,4.25248 1.30646,1.71172 2.90543,2.8946 5.00234,3.39451 0.55546,0.40656 1.1142,0.81215 1.66965,1.21953 0.75102,0.56285 1.50202,1.1275 2.25139,1.68871 1.98681,1.48048 3.97526,2.95999 5.96042,4.44213 0.3484,0.29596 0.69679,0.5893 1.04682,0.88527 0.19392,0.16072 0.38619,0.32391 0.58175,0.48545 0.32045,0.25439 0.64255,0.50862 0.963,0.76202 0.16762,0.10286 0.33524,0.20493 0.50287,0.30697 2.40586,1.92765 4.83802,3.82227 7.20608,5.78903 3.17331,2.63527 6.27267,5.3588 9.45748,7.97451 2.3763,1.95329 5.05331,3.54257 7.07954,5.92083 0.27116,0.31733 0.67049,0.65914 1.05175,0.71946 0.62776,0.0943 1.51847,0.22103 1.8915,-0.11816 0.6327,-0.57402 0.046,-1.20671 -0.47,-1.72026 -0.9022,-0.90991 -2.02624,-1.73209 -2.56854,-2.8333 -0.51603,-1.05108 -1.18651,-1.65222 -2.17745,-1.98811 -4.05413,-1.37763 -6.93164,-4.36655 -9.94883,-7.16747 -2.57513,-2.39042 -5.15026,-4.77984 -7.72539,-7.17092 -0.72472,-0.67953 -1.44615,-1.35972 -2.17086,-2.03743 -0.16598,-0.16154 -0.33196,-0.32488 -0.49629,-0.48643 -0.39934,-0.40048 -0.79703,-0.80179 -1.19308,-1.20408 -0.28101,-0.3129 -0.56201,-0.62678 -0.84139,-0.93967 -1.01066,-0.90811 -1.95887,-1.90136 -3.04513,-2.70396 -1.64828,-1.21346 -3.49047,-2.17695 -5.0763,-3.45925 -1.57268,-1.27376 -3.18974,-2.63347 -4.31708,-4.2755 -1.36727,-1.99569 -2.74603,-3.69047 -5.23078,-4.19974 -0.47823,-0.0979 -0.88083,-0.51619 -1.33276,-0.76203 -2.39436,-1.30531 -3.98347,-3.48801 -5.7435,-5.44376 -1.71073,-1.90135 -3.16837,-4.03064 -4.73613,-6.059515 -0.19556,-0.192275 -0.38948,-0.384382 -0.58504,-0.576658 -0.86275,-1.153788 -1.59733,-2.442178 -2.6195,-3.432791 -1.40506,-1.362168 -3.02705,-2.500021 -4.55865,-3.729578 -1.40013,-1.121592 -1.41656,-1.713352 0.12161,-2.688684 0.85783,-0.546904 1.90957,-0.784046 2.77233,-1.328317 5.31295,-3.354569 10.41884,-6.962545 14.08351,-12.223564 1.10104,-1.803576 2.4075,-3.516274 3.25876,-5.430283 1.55954,-3.501649 1.77317,-7.18801 1.47408,-11.049387 -0.30074,-3.878304 -1.70086,-7.064594 -4.13631,-9.937005 -0.0214,-0.170086 -1.27852,-1.39964 -1.40835,-1.53916 -0.48643,-0.488075 -1.61049,-1.443026 -4.7575,-3.849382 -3.14537,-2.407374 -7.61034,-4.791727 -11.53138,-5.30363 -3.91938,-0.513596 -9.32765,0.28402 -11.68422,0.498297 -0.39604,0.03566 -0.89562,0.248309 -1.12568,0.547629 -1.09612,1.426017 -2.75919,1.651353 -4.29407,2.160708 -1.27854,-0.0281 -2.56034,-0.113884 -3.83723,-0.07148 -1.33275,0.04585 -2.66551,0.213437 -3.99662,0.329079 -0.47986,0.02892 -1.73866,0.190481 -1.88821,0.240653 -0.61297,0.101236 -2.7937,0.619905 -3.18974,0.751701 -2.34178,1.066385 -8.97762,3.563784 -10.35146,4.104609 -1.37219,0.541649 -1.94901,0.53146 -3.84214,0.932765 -0.80854,0.172716 -1.7436,0.769582 -2.585,1.284935 l -0.27444,0.204926 c -0.91206,0.465889 -1.82411,0.932766 -2.73945,1.398819 -0.49466,0.299254 -0.98931,0.596865 -1.48396,0.896283 -0.8759,0.379121 -1.75345,0.760213 -2.62935,1.140155 -0.32375,0.134427 -1.06324,0.277233 -1.52175,0.551179 -0.46014,0.275426 -1.668,1.435302 -1.80932,2.03989 -0.13968,0.60541 -0.23007,1.019534 -0.34511,1.530615 -0.11832,0.407223 -0.23665,0.815431 -0.35661,1.222817 0,0 -0.0854,0.195558 -0.0854,0.197202 -0.2728,0.636961 -1.25387,0.917482 -1.82577,1.159875 -0.78552,0.334258 -1.78796,0.618229 -2.46172,1.155603 -0.61956,0.494978 -0.73293,1.292495 -1.01394,1.989768 -0.21528,0.528994 -0.15942,1.358063 0.0772,1.870788 0.22844,0.500072 1.20951,1.424292 1.74031,1.505144 0.6064,0.09186 1.52503,0.153818 1.81753,0.275426 0.29253,0.121608 1.17665,1.097922 1.12243,1.505965 -0.0559,0.408208 0.26621,1.457486 1.09775,1.748359 0.5949,0.09778 1.19307,0.195558 1.7896,0.295968 0.60311,0.02547 1.20622,0.05094 1.80933,0.07641 0.14297,0.162528 0.28594,0.324891 0.43056,0.487253 0.25965,0.792588 0.68363,1.340974 1.63678,1.101209 0.69512,0.0017 2.00488,0.279862 3.38858,-0.0082 1.38369,-0.288243 2.06568,-0.761856 3.03034,-1.270309 1.03531,-0.546742 1.98845,-1.245823 2.9761,-1.878512 0.57354,-0.45833 1.23086,-0.656353 1.17828,0.353813 -0.10849,2.061253 -0.6179,4.046748 -1.76167,5.815485 -0.0789,0.186191 -0.15611,0.372382 -0.23171,0.558739 -0.52916,2.773809 -6.71144,18.158026 -7.5364,21.255894 -0.82661,3.099365 -1.62856,6.304384 -1.86356,6.856224 -0.0526,0.2253 -0.10185,0.44896 -0.15612,0.67345 -0.33524,1.06127 -0.73951,2.10709 -0.9745,3.1871 -0.15283,0.70829 -0.55217,2.42428 -0.0147,2.17005 1.69265,-0.79341 0.59982,1.03071 -0.91863,2.06125 -0.91207,0.0595 -3.39845,5.64802 -3.70083,8.54936 -0.18733,1.78566 -1.38369,4.39711 -0.92849,5.1233 0.0936,0.1479 0.41741,0.45915 0.235,0.53475 -1.23416,0.49925 -2.11499,5.5749 -2.11499,5.5749 0,0 0.40755,0.22185 0.20377,0.42678 -0.20377,0.20492 -0.22842,0.25686 -0.36975,0.38109 -0.24814,0.24569 -1.62856,3.10543 -1.88492,3.76524 -0.10848,0.19047 -1.39848,2.80947 -1.5579,3.11908 -0.90055,1.26866 -1.20457,4.52282 -0.86768,6.12148 0.22349,1.05617 0.44534,-0.20066 0.46671,0.88527 0.005,0.25768 -0.0608,0.40902 -0.0592,0.65471 10e-4,0.5137 0.31224,3.48981 0.74772,3.68965 0.81181,0.37254 0.86934,-0.50337 1.13392,-0.98979 0.0789,-0.14626 0.21034,-0.26196 0.3188,-0.39195 -0.0493,-0.18635 0.73622,-1.02133 0.90384,-1.11139 0.17091,0.0553 -0.75758,2.63691 -0.11667,2.46173 0.6409,-0.17272 2.53239,-6.52639 2.74767,-6.99408 0.3714,-0.70747 0.74115,-1.41328 1.11256,-2.11993 0.31881,-0.0952 0.63761,-0.19211 0.95478,-0.28907 0.32702,0.0978 0.65569,0.19556 0.9778,0.29252 0.11339,0.17255 0.22349,0.34609 0.33688,0.51864 0.008,0.50352 -0.0493,1.01789 0.0476,1.5035 0.0493,0.24996 0.36318,0.44814 0.5538,0.66999 0.20214,-0.22529 0.40591,-0.44731 0.60969,-0.67426 0.1594,-0.3852 0.30895,-0.77123 0.47328,-1.15479 1.71895,-4.06547 3.44118,-8.13095 5.15684,-12.19479 0.37304,-0.88938 0.59489,-1.83579 0.98765,-2.71843 0.064,-0.14544 1.40671,-2.28146 1.64006,-1.91845 0.17912,0.27477 0.47986,0.53754 0.5078,0.82661 0.046,0.49826 -0.16105,1.02462 -0.0986,1.51697 0.046,0.35629 0.32045,0.90993 0.56696,0.95413 0.30566,0.0536 0.7888,-0.24912 1.01558,-0.54 0.36647,-0.46261 0.70006,-1.01017 0.85125,-1.57565 0.34018,-1.29348 2.52912,-12.68287 5.11411,-23.79931 2.53241,-10.900497 6.00316,-22.565482 6.35812,-22.566304 0.79538,-8.21e-4 1.17006,-0.380928 1.31796,-1.097757 0.35168,-1.559538 0.70664,-3.119898 1.05996,-4.679436 0.18406,-0.633512 0.36811,-1.267023 0.54889,-1.900534 0.18076,-0.405578 0.36153,-0.810336 0.5423,-1.216901 0.52915,-0.9796 1.02217,-1.983851 1.60062,-2.933542 0.46178,-0.759392 0.99916,-1.039254 1.34754,0.11043 0.25965,0.858814 0.83318,1.006879 1.22266,0.261128 0.85947,-1.653045 1.81096,-3.340108 2.2103,-5.127579 0.29417,-1.31205 0.90877,-1.951477 1.95558,-2.442181 6.21844,-2.911521 12.31527,-2.647929 18.27734,0.743286 2.46174,1.402107 3.51677,3.357856 2.92516,5.710804 -0.54231,2.164948 -1.34755,4.223572 -2.75425,6.041609 -1.94408,2.516133 -3.7797,5.120019 -5.60054,7.728836 -1.50531,2.15476 -5.21928,2.512686 -7.13049,0.65471 -0.92521,-0.899734 -1.87177,-1.788293 -2.8923,-2.568883 -0.88082,-0.674267 -2.10841,-0.416589 -2.39599,0.494977 -0.27774,0.873276 -0.54067,1.849424 0.39275,2.608817 0.94,0.761856 1.95065,1.468504 2.72796,2.373322 0.44042,0.510927 0.72472,1.420842 0.59819,2.055995 -0.0871,0.443868 -0.9663,0.986507 -1.52667,1.032353 -1.09448,0.08845 -2.21525,-0.190464 -3.32779,-0.214287 -0.56203,-0.01317 -1.39685,0.0079 -1.64499,0.34872 -0.5538,0.760212 -1.41656,1.776292 -1.46259,2.755067 -0.064,1.250759 3.02048,3.955715 3.70411,4.181998 z"
     id="path10"
     inkscape:connector-curvature="0"
     style="fill:#f50005;stroke-width:1.64334917" />
  <path
     d="m 465.60736,167.22803 c -2.72138,-1.62576 -5.48385,-3.1853 -8.20852,-4.80532 -1.7436,-1.03728 -3.67618,-1.89445 -5.12725,-3.25498 -6.63913,-6.23224 -13.09421,-12.66168 -19.71199,-18.91758 -2.54226,-2.40306 -5.17325,-4.73892 -8.66538,-5.82912 -1.54146,-0.482 -3.00568,-1.28132 -4.41238,-2.102 -0.85125,-0.49663 -1.74689,-1.17599 -2.22838,-2.00161 -1.86684,-3.21011 -4.92185,-5.13858 -7.65636,-7.42267 -3.22097,-2.4481 -5.16999,-6.27465 -8.88724,-8.1921 -0.29416,-0.15234 -0.55218,-0.42185 -0.75923,-0.69053 -2.44858,-3.19304 -5.07467,-6.21006 -8.09842,-8.89119 -3.11415,-2.76262 -5.71393,-6.092707 -9.33424,-8.308602 -0.85289,-0.521269 -1.51187,-1.379261 -2.20207,-2.138652 -0.0756,-0.08418 -1.58583,-1.533905 -2.54884,-2.077365 -0.96464,-0.545092 -3.20946,-1.11484 -4.83638,-1.612285 -2.00983,-0.61807 -2.84465,-0.03826 -3.15359,2.108087 -0.11174,0.763498 -0.16927,1.543268 -0.16599,2.317119 0.007,1.602101 0.27117,1.846964 1.94245,2.074901 0.67212,0.09183 1.54803,0.02116 1.9638,0.414114 1.03531,0.983715 2.1873,0.94641 3.37873,0.754135 1.19142,-0.192107 1.86355,0.287423 2.58498,1.21181 1.36563,1.744908 2.72468,3.604518 4.46334,4.914108 2.22838,1.67851 3.97854,3.76278 5.91771,5.69043 2.2448,2.23298 4.12808,4.81467 7.12063,6.28054 1.11747,0.54938 1.81753,1.95674 2.70659,2.97545 0.89563,1.02628 1.64171,2.24991 2.70824,3.03823 1.71894,1.27129 3.64496,2.25599 5.48221,3.36311 0.66392,0.53064 1.34427,1.04336 1.9901,1.59602 1.36233,1.17187 2.9038,2.20751 3.99333,3.59449 0.94823,1.20228 1.86357,2.00752 3.36888,2.47786 1.52174,0.47705 3.02705,1.32732 4.25298,2.35293 3.83229,3.19895 7.54297,6.5407 11.27502,9.86043 2.56364,2.28228 4.95634,4.77048 8.48133,5.65312 0.76581,0.1921 1.42314,0.90137 2.07884,1.43284 1.45436,1.18107 2.87586,2.39797 4.30885,3.59943 0.40921,0.31289 0.82004,0.62677 1.22758,0.94048 0.11175,0.12917 0.20542,0.28234 0.33689,0.38866 4.1166,3.37659 8.84452,5.92591 12.75733,9.59436 0.74443,0.69645 2.28754,0.38339 3.09606,1.1377 12.51411,11.71001 12.78033,9.03315 13.21089,8.83333 -0.235,-0.32901 -12.33005,-10.16921 -12.6505,-10.35968 z"
     id="path12"
     inkscape:connector-curvature="0"
     style="fill:#f50005;stroke-width:1.64334917" />
  <path
     d="m 446.00877,164.9321 c -0.40919,-1.23628 -1.26866,-1.78813 -2.1265,-2.39189 -1.11418,-0.78322 -2.37134,-1.35461 -3.55127,-2.04515 -1.68608,-0.99144 -3.47404,-1.83677 -4.1889,-3.9345 -0.19226,-0.56285 -0.88741,-1.2483 -1.43957,-1.3418 -2.36642,-0.40739 -3.63345,-2.93617 -6.12805,-3.05876 -0.30895,-0.0148 -0.58338,-0.58405 -0.88576,-0.88084 -0.60969,-0.6013 -1.27689,-1.15051 -1.83069,-1.79684 -1.24402,-1.45666 -3.3738,-2.0366 -4.01964,-4.11905 -0.0921,-0.2958 -0.82332,-0.45488 -1.2851,-0.55694 -2.47324,-0.54937 -4.48141,-1.76101 -5.40826,-4.1999 -0.66884,-1.75839 -1.95722,-2.95408 -3.15523,-4.28651 -1.01724,-1.12833 -2.14292,-1.63858 -3.63016,-1.4473 -1.22593,0.15826 -2.15607,-0.20656 -2.7411,-1.4123 -0.24815,-0.5137 -0.79374,-0.88362 -1.20293,-1.31976 -0.56368,-0.64552 -1.12569,-1.29003 -1.68935,-1.93374 -0.14298,-0.19473 -0.28431,-0.39111 -0.42728,-0.58585 -0.0101,-0.16844 -0.0756,-0.31043 -0.1972,-0.42777 -0.23829,-1.4915 -0.95315,-2.65976 -2.29904,-3.40041 -2.11171,-1.75182 -4.34173,-3.37757 -6.30225,-5.28484 -2.64415,-2.5748 -5.19298,-5.24492 -6.06725,-9.10121 -0.26293,-1.1505 -1.19307,-2.31301 -2.1232,-3.10806 -1.55625,-1.32815 -3.27685,-2.51531 -5.07632,-3.48981 -2.69837,-1.46258 -5.31622,-3.17167 -8.43366,-3.70658 -0.98437,-0.16746 -1.9901,-0.56038 -2.67373,0.50763 -0.44205,0.68873 0.1068,1.16415 0.68035,1.57746 0.34182,0.24485 0.75923,0.53737 1.14541,0.54165 1.80934,0.0204 2.5817,1.24663 3.04677,2.67092 0.63762,1.95149 1.86192,2.84858 3.90789,3.12747 1.67293,0.23056 3.46746,0.83761 4.05907,2.70757 1.03859,3.26863 3.26533,5.58065 5.85362,7.57814 2.3927,1.85042 4.4814,3.95407 6.25786,6.38869 0.3484,0.47788 0.67871,0.99997 1.12899,1.36382 1.78139,1.4473 3.60879,2.84102 5.41811,4.25348 0.18406,0.16926 0.36483,0.33836 0.54725,0.50845 0.52094,0.52044 1.04517,1.04336 1.56611,1.56462 1.36891,2.50168 3.46746,4.02128 6.24472,4.62587 0.3599,0.14034 0.72143,0.28068 1.08133,0.42004 0.61954,0.53327 1.30317,1.01016 1.85205,1.61146 0.96629,1.05784 1.7896,2.24663 2.78054,3.27635 0.70665,0.73557 1.58091,1.3086 2.39272,1.94211 2.7789,2.17613 5.51015,4.42012 8.35808,6.50093 2.89886,2.11894 5.93741,4.05184 8.87902,6.11556 1.33111,0.93457 2.63921,1.92272 3.83721,3.01538 2.02954,1.85025 4.018,3.71085 6.50766,4.96587 1.0156,0.51289 1.87014,1.34098 2.79699,2.02724 0.16105,0.0196 12.05396,8.05356 13.18787,9.02379 0.66392,0.56893 5.49208,3.65727 9.88639,7.05014 3.1158,2.40652 5.78295,5.16587 7.61857,6.40183 8.30714,5.59068 5.1667,1.50531 5.43128,1.53981 -0.23829,-0.36318 -30.8013,-22.57173 -31.03795,-22.93392 -0.83975,-0.85717 -6.20857,-3.52547 -6.54547,-4.54255 z"
     id="path14"
     inkscape:connector-curvature="0"
     style="fill:#f50005;stroke-width:1.64334917" />
  <path
     d="m 355.30904,129.38794 c -0.65077,0 -1.33276,0.47197 -1.93093,0.86309 -0.23665,0.15481 -0.33031,0.59522 -0.40427,0.92438 -0.21855,0.99833 -0.38453,2.00769 -0.5916,3.00848 -0.2876,1.38009 -0.0871,2.9158 -1.52338,3.9005 -0.64749,0.44469 -0.26294,1.08591 0.1709,1.55098 0.5423,0.57829 1.18321,0.44223 1.53324,-0.11651 0.67377,-1.08067 1.28346,-2.2218 1.77482,-3.39877 0.68199,-1.63349 1.61541,-4.15735 1.89807,-5.17935 0.28594,-1.02299 -0.61625,-1.5528 -0.92685,-1.5528 z"
     id="path16"
     inkscape:connector-curvature="0"
     style="fill:#f50005;stroke-width:1.64334917" />
  <path
     d="m 182.2808,125.91259 c 3.6844,1.53143 7.84864,1.98632 11.95865,1.13769 1.69266,-0.34855 2.08213,-0.46507 4.82981,-2.07982 2.74603,-1.61574 4.62273,-5.50522 5.18476,-5.70752 0.5604,-0.20328 2.31713,-0.30106 2.85615,0.15398 0.31881,0.26606 1.16349,1.36726 2.22673,2.19125 1.06161,0.82479 0.008,0.74657 0.81346,1.86487 0.8036,1.11813 1.9523,-0.10714 1.97202,0.45143 0.0214,0.55693 0.43714,1.00605 1.34919,1.00261 0.9137,-0.003 0.72307,-3.55441 0.5308,-5.60712 -0.18734,-1.18452 -0.60804,-5.78573 -0.52095,-6.7908 0.0854,-1.00508 0.36647,-2.72714 0.55054,-4.09276 -0.0674,-1.75856 1.47736,-7.5604 1.72715,-8.813784 -0.11339,-0.17337 1.09611,-3.504274 1.80111,-6.74398 0.705,-3.238052 1.23581,-7.085948 1.27361,-8.285762 0.069,-1.873252 0.42234,-5.027169 0.21034,-5.621568 -0.21034,-0.5944 -1.36561,-0.350362 -1.80112,-0.107965 -0.43548,0.243216 -0.22513,0.402127 -0.33852,0.603767 l -0.0197,0.08758 c -0.0838,-0.01314 -0.1594,0.0082 -0.21528,0.08924 -1.61212,0.28315 -2.44859,-1.328154 -3.08456,-1.566275 -0.63762,-0.238121 -1.09447,-0.291695 -1.87012,-0.169265 -0.77402,0.121608 -3.64496,2.98728 -5.02208,3.631801 -1.37549,0.644522 -6.00644,2.713492 -7.60707,2.476192 -0.13311,0.132621 -0.29416,0.178636 -0.47821,0.137719 -0.6179,0.639429 -1.18486,1.765286 -1.86357,1.836768 -3.32941,0.352828 -5.2357,2.825739 -7.56597,4.674345 -0.40919,0.52981 -0.98601,1.00162 -1.19471,1.601932 -0.62611,1.792565 -1.30318,2.945711 -3.11086,3.89803 -0.0986,0.05278 -0.18733,0.328171 -0.13476,0.407384 0.0756,0.117339 0.27608,0.207389 0.42728,0.213308 1.14377,0.03747 2.49953,-0.938679 2.49953,-0.938679 0,0 5.6219,-2.41409 8.42053,-3.648902 1.2095,-0.533918 2.34835,-0.840899 3.67288,-0.20147 0.50452,0.242398 1.28181,-0.07742 1.93423,-0.141163 0.25636,-0.147903 0.51108,-0.295964 0.76744,-0.443867 0.26294,-0.06887 0.52423,-0.136898 0.78717,-0.205746 l 0.48807,-0.04929 c 0.35661,0.05683 0.71322,0.117328 1.06981,0.174191 -0.64747,1.940468 -0.94821,5.369153 -1.04352,5.98639 -0.0936,0.616585 -0.32046,0.96005 -0.46013,1.453219 -0.20379,0.730469 -0.43386,1.46439 -0.5456,2.21343 -0.36154,2.4269 -0.84304,4.85544 -0.94164,7.29679 -0.0608,1.51024 0.83975,3.83756 1.31139,4.3912 0.47164,0.55447 0.99751,1.32732 0.17913,2.00767 -0.81675,0.68118 -1.45436,1.31041 -2.18073,1.96677 -0.90876,0.3377 -2.70002,1.7219 -5.33431,2.13011 -2.63428,0.40738 -4.90868,0.30352 -8.63415,-1.35972 -3.72547,-1.6624 -6.75252,-4.68699 -8.80835,-6.54759 -2.05585,-1.86141 -5.06153,-8.99996 -5.27351,-12.232103 -0.21199,-3.232133 0.0953,-6.511113 0.19391,-7.822179 0.10026,-1.312213 0.83153,-5.726245 2.01311,-8.775643 1.17993,-3.048411 4.6063,-7.277078 5.08287,-7.81281 1.77646,-1.718615 3.55292,-3.436243 5.33103,-5.154858 2.01968,-1.535709 5.21271,-4.302616 9.76971,-6.831567 1.03203,-0.505166 6.74267,-3.767049 11.07454,-4.108867 1.26209,-0.09942 2.49459,-0.599493 3.70081,-1.026271 1.09611,-0.388652 1.72716,-1.162505 1.2095,-2.39551 -0.35495,-0.850269 -0.34674,-1.675066 0.60805,-1.911544 1.20129,-0.298432 0.11832,-2.148843 -0.45029,-2.017047 -0.61296,0.142971 -1.22264,0.407386 -2.09691,-0.159733 -0.95478,-0.620858 -1.75673,-1.854684 -2.07718,-3.439695 -0.13148,-0.655531 0.89398,-0.620693 0.24649,-1.493147 -0.64747,-0.870811 -1.90464,-0.330806 -2.44529,-0.771224 -0.17914,-0.06376 -0.35661,-0.126702 -0.53574,-0.19145 -0.67048,-0.08414 -1.33933,-0.168279 -2.00982,-0.252418 -0.10353,-0.09268 -0.21034,-0.18537 -0.31388,-0.278055 -0.67213,-0.795217 -1.45108,-0.889545 -2.50939,-0.801133 -3.12237,0.256856 -5.98836,1.454036 -8.98255,2.167578 -1.06982,0.375012 -2.13964,0.750846 -3.20946,1.126681 -0.46671,0.365645 -0.91699,0.752489 -1.40013,1.091018 -1.25716,0.880836 -2.52911,1.740636 -3.79449,2.609639 -0.15448,0.162363 -0.31059,0.32489 -0.46507,0.488076 l -0.0493,0.0613 c -0.39934,0.511903 -0.79868,1.022985 -1.19964,1.534889 -0.11997,0.158911 -0.23994,0.317165 -0.3599,0.475256 -0.34511,0.337544 -0.69185,0.676074 -1.0386,1.01444 -0.18405,0.165813 -0.36811,0.331627 -0.55216,0.497442 -0.31223,0.198188 -0.62611,0.395389 -0.93999,0.593577 l -0.0296,0.0332 c -0.1972,0.33508 -0.39605,0.669172 -0.59489,1.005074 l -0.0329,0.202295 c -0.27115,0.281506 -0.54394,0.563012 -0.8151,0.844518 -0.23828,0.277233 -0.47657,0.555288 -0.71485,0.832356 -0.17749,0.219387 -0.35661,0.438775 -0.53409,0.658162 -0.16434,0.145436 -0.33032,0.290872 -0.49465,0.436309 -0.2991,0.390296 -0.59653,0.781413 -0.89563,1.172529 l -0.0608,0.06722 c -0.38948,0.470326 -0.7773,0.938846 -1.16678,1.409829 -0.13146,0.216922 -0.26458,0.43368 -0.39769,0.650602 -0.61461,1.022985 -1.22923,2.04597 -1.84383,3.068791 -0.17256,0.0723 -0.26622,0.200817 -0.28266,0.388651 -0.16434,0.390296 -0.33031,0.780591 -0.49465,1.170887 -0.17584,0.308785 -0.35168,0.619872 -0.52751,0.929479 v 8.21e-4 c -1.75017,1.353791 -2.69017,3.209132 -3.26041,5.289941 -0.11996,0.148888 -0.23992,0.298432 -0.3599,0.446499 -0.20541,0.542468 -0.41083,1.085924 -0.61624,1.629216 -0.31553,0.841066 -0.62941,1.681968 -0.94329,2.522047 -1.90793,3.44479 -2.39272,7.277247 -2.64579,11.074863 -0.32867,4.970309 -0.26458,9.970193 0.93178,14.865569 0.39604,1.6233 3.17824,7.88364 4.55865,9.97119 1.37876,2.08409 5.07959,6.19805 7.43779,7.8128 2.36149,1.61492 4.50606,2.8453 8.19046,4.37592 z"
     id="path18"
     inkscape:connector-curvature="0"
     style="fill:#f50005;stroke-width:1.64334917" />
  <path
     d="m 477.39346,157.9339 c -2.34671,-1.73554 -4.72463,-3.42786 -7.10256,-5.12001 -0.48972,-0.34773 -0.83647,-1.38518 -1.56119,-0.71256 -0.25141,0.23138 0.0888,1.26192 0.35333,1.84351 0.19884,0.43877 0.66556,0.79095 1.07968,1.09102 2.50611,1.81967 5.00893,3.65399 7.57256,5.38772 0.68199,0.45668 1.5809,0.59785 2.39599,0.82907 0.13969,0.0392 0.35825,-0.2023 0.59819,-0.34938 -0.24322,-0.28315 -0.3829,-0.49662 -0.57025,-0.6557 -0.91041,-0.78223 -1.79946,-1.59946 -2.76575,-2.31367 z"
     id="path20"
     inkscape:connector-curvature="0"
     style="fill:#f50005;stroke-width:1.64334917" />
  <path
     d="m 494.12768,168.43293 c -0.1364,-0.16318 -3.50525,-1.98287 -3.66302,-2.09264 -0.70665,-0.4999 -1.14378,-0.30697 -1.85041,-0.81378 -1.34755,-0.97106 -2.62937,-2.02971 -3.93419,-3.05269 -0.68363,-0.53902 -1.72387,-0.94295 -1.8389,0.12424 -0.0724,0.68708 0.0953,1.52453 0.73786,1.89199 0.23008,0.13179 0.46014,0.26605 0.69186,0.39703 1.32125,0.68281 2.63593,1.3717 3.95553,2.05107 0.58176,0.29842 9.12388,6.28909 10.51744,6.02895 1.39849,-0.26277 0.1742,-1.83086 0.1742,-1.83086 0,0 -4.56358,-2.4269 -4.79037,-2.70331 z"
     id="path22"
     inkscape:connector-curvature="0"
     style="fill:#f50005;stroke-width:1.64334917" />
  <path
     d="m 476.94976,169.04442 c 0,0 6.0163,4.09687 8.28248,5.1445 2.26618,1.04517 3.57593,1.91764 2.7904,0.69646 -0.78552,-1.22183 0,-0.96005 -2.5324,-2.4412 -2.52747,-1.48131 -3.91938,-2.00439 -5.0533,-3.13863 -1.13391,-1.13358 -3.40174,-2.09182 -3.49047,-1.30794 -0.0838,0.78487 0.003,1.04681 0.003,1.04681 z"
     id="path24"
     inkscape:connector-curvature="0"
     style="fill:#f50005;stroke-width:1.64334917" />
  <path
     d="m 482.00798,182.38628 c 2.52748,1.48033 3.75012,2.61391 2.87915,0.34692 -0.87097,-2.26701 -2.26782,-1.82987 -4.18561,-2.78828 -1.91943,-0.96004 -1.99339,-0.0164 -1.55789,0.50927 z"
     id="path26"
     inkscape:connector-curvature="0"
     style="fill:#f50005;stroke-width:1.64334917" />
  <path
     d="m 434.03204,46.561007 v 4.616497 h 0.80854 v -4.616497 h 1.96215 v -0.80787 h -4.50113 v 0.80787 z m 3.23247,-0.80787 v 5.424367 h 0.92191 v -4.616497 l 1.50039,4.616497 h 0.80853 l 1.38534,-4.616497 v 4.616497 h 0.80689 v -5.424367 h -1.26867 l -1.38534,4.38577 -1.38535,-4.38577 z"
     id="path28"
     inkscape:connector-curvature="0"
     style="clip-rule:evenodd;fill:#f50005;fill-rule:evenodd;stroke-width:1.64334917" />
  <path
     d="m 30.48136,13.259515 h 3.83282 l 0.0139,13.650125 c 0.0104,10.772573 -7.98025,19.740901 -18.44688,21.451262 l 0.0139,-6.024603 c 8.38369,-2.092213 14.58597,-9.569574 14.58597,-18.473881 z m 11.11893,2.6e-5 h 3.83268 v 10.602877 c 0,8.904307 6.20225,16.381668 14.58604,18.473881 l 0.0139,6.024856 C 49.56733,46.650541 41.57654,37.682213 41.58718,26.90964 Z m 128.45351,2.333471 c -0.44663,-0.750621 -1.2703,-1.2052 -2.1537,-1.188701 -1.33053,0.0253 -2.39613,1.093909 -2.39613,2.404098 0,1.310215 1.0656,2.379273 2.39613,2.404122 0.8834,0.01771 1.70707,-0.43808 2.1537,-1.188701 0.44664,-0.750621 0.44664,-1.680197 0,-2.430818 z m -4.03006,1.215776 c 0,-1.020246 0.84012,-1.847313 1.87661,-1.847313 1.03624,4.82e-4 1.87662,0.826993 1.87814,1.847313 0,1.019259 -0.84114,1.847312 -1.87814,1.847312 -1.03649,0 -1.87661,-0.827067 -1.87661,-1.847312 z m 0.82089,1.351538 h 0.5643 v -1.068578 h 0.66274 c 0.19586,0 0.33124,0.08907 0.3401,0.270814 -0.009,0.196366 -0.009,0.411864 0,0.545119 0.006,0.08883 0.0314,0.175111 0.0754,0.252543 h 0.60555 c -0.0158,-0.03644 -0.0304,-0.06554 -0.0438,-0.0916 v -1.26e-4 c -0.0365,-0.07212 -0.0607,-0.119688 -0.0607,-0.231035 l -0.004,-0.129808 c -0.005,-0.164221 -0.012,-0.390707 -0.0233,-0.475 -0.0246,-0.207752 -0.15916,-0.28726 -0.2576,-0.345158 -0.0175,-0.01005 -0.0337,-0.02024 -0.0481,-0.02961 0.18549,-0.107298 0.30568,-0.193077 0.37426,-0.426591 0.0668,-0.233565 0.0106,-0.425706 -0.0271,-0.545094 -0.0792,-0.29245 -0.3568,-0.418797 -0.63187,-0.430033 h -1.52593 z m 1.328,-2.239337 h -0.7637 v 0.70778 h 0.77256 c 0.10021,-0.0076 0.19308,-0.05365 0.25659,-0.130328 0.0635,-0.07668 0.0919,-0.175616 0.0782,-0.273723 0,-0.192824 -0.0896,-0.30371 -0.34364,-0.30371 z M 35.21079,13.259541 h 5.47984 v 35.11452 h -5.47984 z m 83.45422,10.563908 3.39516,10.909976 -6.42974,-0.01771 z m -4.56906,16.360158 -2.26935,8.145411 h -6.2779 l 8.76867,-31.289221 c 0.56506,-1.862369 2.30502,-3.138472 4.27932,-3.138271 1.97707,-0.0014 3.72084,1.274307 4.28969,3.138271 l 9.61766,31.334264 -6.2311,-0.0458 -2.51986,-8.131746 z m -33.88738,-16.360158 3.394397,10.909976 -6.429229,-0.01771 z m -4.570339,16.360158 -2.269351,8.145411 h -6.27689 l 8.767664,-31.289221 c 0.565062,-1.862369 2.305028,-3.138472 4.279325,-3.138271 1.976568,-0.0015 3.719825,1.274384 4.28818,3.138271 l 9.618406,31.334264 -6.230333,-0.0458 -2.519866,-8.131746 z M 154.86805,24.536288 c 0,4.429379 -2.81493,8.210446 -6.77869,9.707235 l 0.0289,0.01265 c -0.06,0.01265 -0.11792,0.03265 -0.17131,0.06224 -0.14019,0.083 -0.24116,0.217622 -0.28038,0.374006 -0.0392,0.156129 -0.0137,0.321626 0.0714,0.459285 l 8.16565,13.221839 h -6.31738 l -7.50857,-12.216473 c -1.25386,-2.048689 -0.58379,-4.710265 1.49678,-5.945146 0.39122,-0.231794 0.81204,-0.353004 1.23387,-0.454984 2.5973,-0.45144 4.41167,-2.78405 4.17709,-5.370216 -0.23483,-2.586166 -2.44066,-4.565217 -5.07794,-4.556031 h -3.68517 v 28.347252 h -5.9788 V 20.008067 c 0,-3.934287 2.19191,-5.901873 5.9788,-5.884565 l 4.087,0.01771 c 5.83128,0 10.55875,4.653328 10.55875,10.393352 z M 89.239906,19.997289 v -5.825732 h 20.862914 v 5.825732 h -7.42042 l -0.022,28.377784 H 96.683105 V 20.027577 Z m 74.394034,-5.854327 h -5.97729 V 48.37482 h 5.97729 z"
     id="path30"
     inkscape:connector-curvature="0"
     style="clip-rule:evenodd;fill:#ffffff;fill-rule:evenodd;stroke-width:2.53049541" />
</svg>
