<?xml version="1.0" encoding="UTF-8" standalone="no"?>
<svg
   xmlns:dc="http://purl.org/dc/elements/1.1/"
   xmlns:cc="http://creativecommons.org/ns#"
   xmlns:rdf="http://www.w3.org/1999/02/22-rdf-syntax-ns#"
   xmlns:svg="http://www.w3.org/2000/svg"
   xmlns="http://www.w3.org/2000/svg"
   xmlns:sodipodi="http://sodipodi.sourceforge.net/DTD/sodipodi-0.dtd"
   xmlns:inkscape="http://www.inkscape.org/namespaces/inkscape"
   width="500"
   height="200"
   viewBox="0 0 500 200"
   version="1.1"
   id="svg115"
   sodipodi:docname="atari7800.svg"
   inkscape:version="0.92.5 (2060ec1f9f, 2020-04-08)">
  <metadata
     id="metadata121">
    <rdf:RDF>
      <cc:Work
         rdf:about="">
        <dc:format>image/svg+xml</dc:format>
        <dc:type
           rdf:resource="http://purl.org/dc/dcmitype/StillImage" />
        <dc:title>mainlogo</dc:title>
      </cc:Work>
    </rdf:RDF>
  </metadata>
  <defs
     id="defs119" />
  <sodipodi:namedview
     pagecolor="#ffffff"
     bordercolor="#666666"
     borderopacity="1"
     objecttolerance="10"
     gridtolerance="10"
     guidetolerance="10"
     inkscape:pageopacity="0"
     inkscape:pageshadow="2"
     inkscape:window-width="1366"
     inkscape:window-height="743"
     id="namedview117"
     showgrid="false"
     inkscape:pagecheckerboard="true"
     inkscape:zoom="0.54470328"
     inkscape:cx="668.69485"
     inkscape:cy="5.2493234"
     inkscape:window-x="0"
     inkscape:window-y="0"
     inkscape:window-maximized="1"
     inkscape:current-layer="svg115" />
  <title
     id="title91">mainlogo</title>
  <g
     id="Group"
     transform="matrix(0,-1.0394123,1.0394123,0,26.392261,164.1647)"
     style="fill:#ffffff;fill-rule:nonzero;stroke:none;stroke-width:1">
    <path
       d="m 12.225684,1.7982222 c 1.610049,-2.05988301 4.942606,-2.4117333 6.917866,-0.6836585 0.808365,0.6814316 1.373998,1.6200702 1.663495,2.6288561 3.656571,12.5842152 7.329843,25.1617492 10.98196,37.7448502 -2.157867,0.0022 -4.31796,-0.0033 -6.474713,0.0022 -1.017694,-3.468397 -2.012005,-6.944589 -3.016337,-10.41744 -4.174325,-0.01113 -8.34531,-0.0033 -12.5185213,-0.0056 -1.0210339,3.471738 -2.0298198,6.946817 -3.034152,10.423008 -2.1467321,-0.0078 -4.2934642,-0.0022 -6.44019633,-0.0045 C 3.7801637,29.484163 7.2585823,17.477829 10.749249,5.4792888 c 0.414203,-1.253745 0.5712,-2.6544655 1.476435,-3.6810666 m 3.810227,7.7117565 C 14.504917,14.723153 13.006213,19.945235 11.48524,25.161749 c 3.033038,0.01448 6.064963,0.0045 9.096888,0.0045 C 19.064495,19.947461 17.554657,14.727607 16.035911,9.5099787 Z"
       id="Shape"
       inkscape:connector-curvature="0" />
    <path
       d="m 57.691199,2.0687906 c 1.124585,-1.63120464 3.299153,-2.42286779 5.214287,-1.91958826 1.751458,0.40418244 3.093165,1.91402106 3.555247,3.61425956 3.65323,12.5741941 7.319822,25.1450471 10.973052,37.7192411 -2.161207,0.01447 -4.3213,0 -6.482507,0.0089 -1.004332,-3.472852 -1.998643,-6.949043 -3.011883,-10.420781 -4.166531,0.0022 -8.331948,-0.0078 -12.498479,0.0033 -0.995425,3.475078 -2.022026,6.942362 -3.018564,10.416327 -2.144505,0.0033 -4.28901,-0.0022 -6.432402,0.0033 C 49.462801,29.424037 52.975737,17.363143 56.475311,5.3022502 56.84275,4.2110689 56.985271,3.0107695 57.691199,2.0687906 M 57.16565,25.166203 c 3.020791,0.0045 6.039354,0.0011 9.060145,0.0011 C 64.723751,19.939667 63.196097,14.715359 61.698506,9.4854828 60.189781,14.713132 58.666581,19.936327 57.16565,25.166203 Z"
       id="path94"
       inkscape:connector-curvature="0" />
    <path
       d="m 26.957744,0.08684912 c 7.808627,0 15.615027,0 23.421427,0 0,2.10664788 0,4.20995548 0,6.31660338 -2.874929,0.00223 -5.748744,-0.00334 -8.622559,0.00223 0,11.6934545 0.0011,23.3902495 -0.0011,35.0837045 -2.057657,0 -4.118653,0 -6.176309,0 0,-11.693455 -0.0022,-23.389137 0.0011,-35.0837045 -2.874928,-0.00557 -5.74763,0 -8.623672,-0.00223 0.0011,-2.1066479 -0.0011,-4.2110689 0.0011,-6.31660338 z"
       id="Path"
       inkscape:connector-curvature="0" />
    <path
       d="m 84.297093,0.34405613 c 0.593469,-0.20487485 1.227022,-0.27502221 1.852781,-0.25943391 2.461839,0.0089076 4.924791,0.0011135 7.384402,0.0033404 4.146489,0.07571462 8.103694,2.64778478 9.897464,6.38006998 1.24149,2.4228679 1.37065,5.2398974 1.05666,7.8977024 -0.2149,2.783626 -1.38179,5.565025 -3.52184,7.410012 -1.131269,1.006559 -2.537556,1.61673 -3.74565,2.513057 -0.66473,0.50662 -0.69702,1.488683 -0.354077,2.19127 3.266867,5.042816 6.662887,10.008805 9.998787,15.00931 -2.43846,0.0045 -4.87914,-0.0056 -7.318712,0.0045 -3.193376,-4.796744 -6.353347,-9.617984 -9.533361,-14.421408 -0.935299,-1.367317 -1.189165,-3.177787 -0.630213,-4.737731 0.437586,-1.195846 1.483115,-2.072131 2.647784,-2.525305 2.223561,-0.848449 4.415944,-2.181249 5.64742,-4.27899 0.937525,-1.577759 0.888533,-3.52407 0.466536,-5.249918 -0.493259,-2.2413751 -2.676735,-4.0039668 -4.984917,-3.9260253 -1.594461,0.011134 -3.190035,-0.00891 -4.782269,0.00779 -0.721516,-0.016702 -1.40072,0.6101708 -1.391813,1.3405941 -0.0067,11.2625492 0.0045,22.5250992 -0.0022,33.7898752 -2.074357,-0.0045 -4.147602,0 -6.22196,-0.0022 -0.0045,-12.125473 0.0022,-24.250947 -0.0045,-36.3775335 0.01336,-2.1255765 1.524313,-4.12421971 3.539658,-4.76890742 z"
       id="path97"
       inkscape:connector-curvature="0" />
    <path
       d="m 110.12691,0.08684912 c 2.18348,0 4.36473,0 6.54709,0 -0.001,13.80232988 0.004,27.60131888 -0.003,41.40476188 -2.18014,-0.0056 -4.36138,0 -6.54375,-0.0022 0,-13.80233 0,-27.602432 0,-41.40253488 z"
       id="path99"
       inkscape:connector-curvature="0" />
  </g>
  <path
     d="m 251.01568,100.30673 c 8.6109,-5.087306 13.98192,-13.700741 13.98192,-23.262325 0,-22.580643 -23.78965,-32.864782 -45.89332,-32.864782 -22.10692,0 -45.89331,10.284139 -45.89331,32.864782 0,9.564854 5.36938,18.175019 13.97865,23.262325 -12.24702,5.68726 -19.09858,15.37144 -19.09858,27.43745 0,22.74411 25.65827,34.64337 51.00672,34.64337 25.34844,0 51.00834,-11.89926 51.00834,-34.64337 0.008,-12.06601 -6.84503,-21.7551 -19.09042,-27.43745 z M 219.1059,89.231535 c -7.27945,-0.288117 -10.22514,-6.88404 -10.22514,-11.369762 0,-4.485721 1.3264,-13.349945 10.22514,-12.990683 8.89875,0.359261 10.22516,8.504962 10.22516,12.990683 -0.003,4.485722 -2.94569,11.657879 -10.22516,11.369762 z m 0,24.117875 c 6.27598,0 11.37958,5.81566 11.37958,10.9847 0,5.00884 -0.86153,13.76414 -11.37958,13.94864 -10.51803,0.18451 -11.37956,-8.93162 -11.37956,-13.94864 0,-5.16904 5.1036,-10.9847 11.37956,-10.9847 z"
     id="path102"
     inkscape:connector-curvature="0"
     style="fill:#a7061c;fill-rule:nonzero;stroke:none;stroke-width:1.16343701" />
  <path
     d="m 357.27108,63.352044 c -8.89426,-12.540513 -21.96146,-19.172421 -37.78443,-19.172421 -15.82296,0 -28.89016,6.62865 -37.78442,19.172421 -7.47709,10.549799 -11.59612,24.730777 -11.59612,39.933176 0,29.41758 15.26843,59.10233 49.38671,59.10233 34.11826,0 49.38978,-29.68638 49.38978,-59.10233 -0.009,-15.204029 -4.12981,-29.385006 -11.61152,-39.933176 z m -36.96706,66.649776 c -11.34201,0 -9.62269,-17.57354 -9.62269,-26.05479 0,-8.400698 -1.71344,-25.762386 9.62269,-25.762386 11.34201,0 9.62124,17.361688 9.62124,25.762386 0.003,8.48125 1.72077,26.05479 -9.62124,26.05479 z"
     id="path104"
     inkscape:connector-curvature="0"
     style="fill:#a7061c;fill-rule:nonzero;stroke:none;stroke-width:1.16343701" />
  <path
     d="m 459.28614,63.352044 c -8.89425,-12.540513 -21.96146,-19.172421 -37.78442,-19.172421 -15.82298,0 -28.89018,6.62865 -37.78443,19.172421 -7.4771,10.549799 -11.59611,24.730777 -11.59611,39.933176 0,29.41758 15.26842,59.10233 49.3867,59.10233 34.11827,0 49.38978,-29.68638 49.38978,-59.10233 -0.009,-15.204029 -4.12981,-29.385006 -11.61152,-39.933176 z m -36.96705,66.649776 c -11.34201,0 -9.6227,-17.57354 -9.6227,-26.05479 0,-8.400698 -1.71342,-25.762386 9.6227,-25.762386 11.34201,0 9.62123,17.361688 9.62123,25.762386 0.003,8.48125 1.72078,26.05479 -9.62123,26.05479 z"
     id="path106"
     inkscape:connector-curvature="0"
     style="fill:#a7061c;fill-rule:nonzero;stroke:none;stroke-width:1.16343701" />
  <polygon
     id="polygon108"
     points="136.02651,100.21053 171.82563,100.21053 214.33918,0 125.26316,0 125.26316,30.977309 167.64597,30.977309 "
     style="fill:#a7061c;fill-rule:nonzero;stroke:none;stroke-width:1"
     transform="matrix(1.1634371,0,0,1.1634371,-68.324812,44.179623)" />
  <path
     d="m 467.71722,54.509335 v -8.791244 h -3.2967 v -1.538468 h 8.57147 v 1.538468 h -3.73629 v 8.791244 z m 6.15388,0 V 44.179623 h 2.63737 l 2.63738,8.351682 2.63737,-8.351682 h 2.4176 v 10.329712 h -1.53847 v -8.791244 l -2.63737,8.791244 h -1.53848 l -2.85715,-8.791244 v 8.791244 z"
     id="path110"
     inkscape:connector-curvature="0"
     style="fill:#ffffff;fill-rule:nonzero;stroke:none;stroke-width:1.16343701" />
  <path
     d="m 42.305605,33.230761 c 0,-1.10304 -0.203883,-2.13232 -0.611647,-3.08782 -0.407763,-0.9555 -0.986015,-1.80386 -1.734754,-2.54508 -0.74874,-0.74122 -1.604693,-1.31206 -2.567859,-1.71253 -0.963167,-0.40046 -1.982577,-0.6007 -3.05823,-0.6007 -1.082683,0 -2.107366,0.20375 -3.074049,0.61124 -0.966681,0.40749 -1.815604,0.97658 -2.546767,1.70726 -0.731163,0.73068 -1.300627,1.5808 -1.70839,2.55035 -0.407765,0.96955 -0.611647,1.99532 -0.611647,3.07728 0,1.07494 0.203882,2.09543 0.611647,3.06148 0.407763,0.96604 0.980742,1.82142 1.718936,2.56615 0.738193,0.74473 1.583601,1.32084 2.536221,1.72834 0.952622,0.4075 1.977304,0.61124 3.074049,0.61124 1.455295,0 2.791074,-0.35831 4.007335,-1.07494 1.216262,-0.71663 2.181186,-1.68618 2.894774,-2.90867 0.713587,-1.22248 1.070381,-2.55034 1.070381,-3.9836 z m -1.318203,0 c 0,1.20141 -0.298793,2.31148 -0.896378,3.33021 -0.597585,1.01874 -1.404326,1.82669 -2.42022,2.42389 -1.015895,0.59718 -2.128458,0.89578 -3.337689,0.89578 -1.209231,0 -2.320036,-0.30035 -3.332416,-0.90105 -1.01238,-0.6007 -1.813847,-1.41042 -2.404401,-2.42916 -0.590556,-1.01873 -0.885833,-2.12529 -0.885833,-3.31967 0,-0.91335 0.170487,-1.77049 0.511462,-2.57143 0.340976,-0.80093 0.817286,-1.50702 1.428933,-2.11826 0.611646,-0.61125 1.318202,-1.08724 2.119669,-1.42799 0.801468,-0.34075 1.655663,-0.51113 2.562586,-0.51113 1.202201,0 2.314764,0.29685 3.337689,0.89052 1.022925,0.59368 1.831422,1.39637 2.425492,2.40808 0.59407,1.01171 0.891106,2.12178 0.891106,3.33021 z m -2.246218,2.11826 h -3.627693 v -0.82201 c 0,-0.56206 0.152911,-0.99941 0.458734,-1.31206 0.305823,-0.31264 0.915712,-0.72541 1.829665,-1.23829 v 0 l 1.339294,-0.75878 v -1.67564 l -1.666208,1.03278 c -0.674919,0.42857 -1.167049,0.77635 -1.476386,1.04332 -0.309339,0.26699 -0.534312,0.57963 -0.67492,0.93795 -0.06328,-0.7377 -0.325157,-1.32787 -0.785649,-1.77049 -0.460492,-0.44263 -1.028198,-0.66394 -1.703117,-0.66394 -0.400734,0 -0.783892,0.12295 -1.149473,0.36886 -0.365582,0.2459 -0.636252,0.56909 -0.812013,0.96955 -0.119518,0.2459 -0.196852,0.54801 -0.232004,0.90633 -0.03515,0.3583 -0.05273,0.83254 -0.05273,1.4227 v 0 2.94029 h 8.552498 z m -4.819348,-1.68617 v 1.68617 H 31.35925 v -1.58079 c 0,-0.6815 0.07909,-1.21545 0.237276,-1.60188 0.158185,-0.38641 0.504433,-0.57961 1.038744,-0.57961 0.309338,0 0.560676,0.0808 0.754012,0.24238 0.193336,0.16159 0.33043,0.3952 0.411279,0.70082 0.08085,0.30562 0.121275,0.68326 0.121275,1.13291 z"
     id="®"
     inkscape:connector-curvature="0"
     style="fill:#ffffff;fill-rule:nonzero;stroke:none;stroke-width:1.03941226" />
</svg>
