<?xml version="1.0" encoding="UTF-8" standalone="no"?>
<!-- Created with Inkscape (http://www.inkscape.org/) -->

<svg
   xmlns:dc="http://purl.org/dc/elements/1.1/"
   xmlns:cc="http://creativecommons.org/ns#"
   xmlns:rdf="http://www.w3.org/1999/02/22-rdf-syntax-ns#"
   xmlns:svg="http://www.w3.org/2000/svg"
   xmlns="http://www.w3.org/2000/svg"
   xmlns:sodipodi="http://sodipodi.sourceforge.net/DTD/sodipodi-0.dtd"
   xmlns:inkscape="http://www.inkscape.org/namespaces/inkscape"
   width="500"
   height="200"
   viewBox="0 0 132.29167 52.916666"
   version="1.1"
   id="svg8"
   inkscape:version="0.92.5 (2060ec1f9f, 2020-04-08)"
   sodipodi:docname="battletoads-C.svg">
  <defs
     id="defs2" />
  <sodipodi:namedview
     id="base"
     pagecolor="#ffffff"
     bordercolor="#666666"
     borderopacity="1.0"
     inkscape:pageopacity="0.0"
     inkscape:pageshadow="2"
     inkscape:zoom="1.0595553"
     inkscape:cx="233.60551"
     inkscape:cy="114.01784"
     inkscape:document-units="mm"
     inkscape:current-layer="layer1"
     showgrid="false"
     inkscape:pagecheckerboard="true"
     units="px"
     inkscape:window-width="1366"
     inkscape:window-height="743"
     inkscape:window-x="0"
     inkscape:window-y="0"
     inkscape:window-maximized="1" />
  <metadata
     id="metadata5">
    <rdf:RDF>
      <cc:Work
         rdf:about="">
        <dc:format>image/svg+xml</dc:format>
        <dc:type
           rdf:resource="http://purl.org/dc/dcmitype/StillImage" />
        <dc:title></dc:title>
      </cc:Work>
    </rdf:RDF>
  </metadata>
  <g
     inkscape:label="Layer 1"
     inkscape:groupmode="layer"
     id="layer1"
     transform="translate(0,-244.08334)">
    <g
       id="g163"
       transform="matrix(0.39551934,0,0,0.39551934,20.106028,224.54888)">
      <path
         d="m 446.39844,190.04492 c -3.29777,0.004 -6.55346,0.20935 -8.43555,0.61524 -7.61193,1.64158 -14.70781,5.04959 -20.83594,10.00586 -1.16356,0.94108 -2.2879,1.71093 -2.49804,1.71093 -0.21007,0 -1.20271,-0.55789 -2.20508,-1.23828 -2.32713,-1.57964 -6.93519,-3.88908 -9.84766,-4.93555 -4.63608,-1.66568 -8.49474,-2.29782 -14.05469,-2.30273 -3.18644,-0.003 -5.78356,0.15648 -6.8789,0.42188 -6.41448,1.55419 -12.05095,4.26645 -17.4707,8.4082 -0.89626,0.68491 -1.7835,1.24609 -1.97266,1.24609 -0.18915,0 -1.83177,-0.49894 -3.65039,-1.10742 -5.38298,-1.80107 -8.48897,-2.24219 -15.78711,-2.24219 -8.93645,0 -13.43884,0.88216 -19.19922,3.75782 -4.56858,2.28069 -7.90501,4.76515 -12.69727,9.45507 l -2.77734,2.71875 -4.90234,-1.94726 c -10.64199,-4.22271 -19.87785,-6.38821 -30.58203,-7.17383 -14.26372,-1.04688 -29.4286,2.50431 -41.81641,9.79492 -6.57771,3.87119 -13.9488,10.29424 -17.92969,15.62305 -1.01896,1.364 -2.05637,2.48047 -2.30469,2.48047 -0.24823,0 -1.88918,-0.42659 -3.64843,-0.94922 -1.75922,-0.52263 -5.46329,-1.45394 -8.23047,-2.06836 -20.59608,-4.57312 -40.42961,-3.90525 -56.23242,1.89453 -7.84052,2.87754 -17.89182,8.60053 -24.79883,14.11914 -3.85486,3.07995 -11.91704,11.20075 -15.05469,15.16406 -1.46302,1.84802 -3.711646,4.97123 -4.998046,6.93946 -1.2864,1.96822 -2.449811,3.64127 -2.583985,3.71875 -0.134248,0.0775 -1.252362,0.0143 -2.484375,-0.14063 -4.425335,-0.55827 -16.375261,-0.85497 -23.359375,-0.58398 -33.519717,1.30034 -60.0105715,10.64515 -87.068359,30.71289 -12.122532,8.99081 -23.308063,21.10076 -32.568359,35.26367 -11.276788,17.24704 -17.296855,34.09205 -19.587891,54.81055 -0.690784,6.24695 -0.443619,18.49462 0.515625,25.59961 0.356409,2.64 0.922568,7.06704 1.257813,9.83789 2.587157,21.39269 10.116168,45.40798 20.99414,66.96289 30.891213,61.21156 86.201515,99.01708 159.816402,109.23828 13.763,1.91097 31.41644,3.36019 44.64063,3.66406 1.93599,0.0442 4.52775,0.11052 5.75977,0.14453 7.53723,0.21181 26.33186,-0.90433 36.70507,-2.17968 50.31172,-6.18588 89.44244,-27.34921 109.56446,-59.25586 10.20111,-16.17555 18.49272,-46.63964 17.08984,-62.78907 -0.28682,-3.30179 -0.77049,-5.77805 -1.76758,-9.03906 -0.19286,-0.63084 -0.0681,-0.71677 1.33789,-0.91406 17.62583,-2.47529 33.91122,-11.05864 40.87305,-21.54297 5.54362,-8.3486 8.59015,-19.18915 9.00586,-32.04688 0.0882,-2.72798 0.15945,-5.12106 0.15625,-5.31836 -0.002,-0.19712 1.11256,-0.75465 2.47656,-1.23828 5.53108,-1.96116 11.11911,-5.36675 13.88281,-8.46093 1.89597,-2.12262 3.91035,-5.99248 4.45899,-8.56641 0.21755,-1.02077 0.55296,-2.0306 0.74609,-2.24414 0.19302,-0.21343 1.86294,-0.6824 3.71094,-1.04297 7.53468,-1.4702 10.41825,-2.6614 15.23828,-6.28906 l 2.39649,-1.80078 1.82226,0.38476 c 1.00286,0.21215 3.69636,0.46089 5.98438,0.55274 4.84939,0.19472 7.62893,-0.26739 11.02343,-1.83203 l 2.16407,-0.9961 1.71875,0.50977 c 3.14675,0.93449 5.73406,0.99149 9.03125,0.19726 l 2.9746,-0.71679 3.98438,1.4414 c 4.04814,1.46616 8.06292,2.45911 9.96875,2.46289 0.5794,10e-4 2.13485,-0.16259 3.45508,-0.36328 l 2.40039,-0.36719 2.55859,1.8379 c 6.05201,4.34206 9.62313,5.78968 15.1875,6.15624 3.45022,0.22727 3.13513,0.0203 6.36719,4.1836 1.11904,1.44151 3.383,3.90861 5.03125,5.48437 3.6522,3.49153 6.60377,5.07324 11.81445,6.33203 1.93599,0.46772 3.54815,0.86587 3.58594,0.88477 0.0367,0.0187 0.13365,2.33179 0.2168,5.14063 0.61935,20.96473 9.9172,35.3622 31.08789,48.13281 4.7153,2.84439 12.79004,6.81199 17.9082,8.80078 2.112,0.82065 4.18049,1.63228 4.5957,1.80273 0.68365,0.28075 0.73579,0.44213 0.54493,1.71485 -0.4506,3.01591 -0.71045,13.95633 -0.46289,19.64062 0.85088,19.53234 5.18468,35.10633 13.01953,46.78711 5.11011,7.61858 12.98106,16.47851 20.53906,23.11914 24.78134,21.77333 59.52165,35.46268 100.00391,39.40821 18.08099,1.7622 39.60301,1.47453 58.88085,-0.78907 31.67577,-3.71932 64.50781,-12.98546 93.04297,-26.25976 11.94807,-5.5581 24.74014,-12.98203 35.07227,-20.35547 21.26793,-15.17768 39.01794,-34.50544 50.78516,-55.29492 12.20088,-21.55574 19.37552,-45.74456 20.92773,-70.5586 0.41877,-6.70257 0.42375,-10.56347 0.0195,-17.75976 -0.1779,-3.168 -0.4713,-8.55 -0.65234,-11.95899 -1.05615,-19.90991 -5.47378,-37.5295 -13.52149,-53.93359 -7.25941,-14.7973 -16.16002,-26.51301 -28.73047,-37.81641 -10.92325,-9.82227 -21.00819,-16.76881 -33.42382,-23.02343 -12.54486,-6.31964 -24.46357,-10.32511 -36.57227,-12.28907 -2.16291,-0.35077 -4.06272,-0.71694 -4.2207,-0.81445 -0.15787,-0.0976 0.0713,-0.98895 0.50976,-1.98047 2.70822,-6.1237 3.21247,-15.68846 1.22852,-23.33398 -0.85644,-3.30019 -3.10945,-8.46014 -4.47461,-10.25 -0.43502,-0.57032 -0.93564,-1.41906 -1.11328,-1.88672 -0.60257,-1.5849 -3.09772,-5.14289 -5.15235,-7.34766 -4.48936,-4.81744 -10.28162,-8.1828 -16.67382,-9.68554 -3.20308,-0.75305 -4.28055,-0.85088 -9.53125,-0.86524 -6.54977,-0.0177 -8.52603,0.26069 -13.62696,1.91602 -10.19406,3.30812 -19.15785,10.67193 -21.89453,17.98632 -0.37251,0.99566 -0.89445,2.74691 -1.16015,3.89258 -0.26574,1.14569 -0.55893,2.20525 -0.6504,2.35352 -0.0916,0.14824 -0.84631,-0.36687 -1.67773,-1.14453 -9.11006,-8.52144 -24.19113,-14.6683 -41.79101,-17.03516 -4.53506,-0.60989 -16.01907,-0.70342 -20.63868,-0.16797 -7.78114,0.9019 -16.44411,2.75646 -23.16211,4.96094 -1.9144,0.6282 -3.64217,1.13848 -3.83984,1.13281 -0.19759,-0.006 -0.96433,-0.90557 -1.70508,-2 -1.78469,-2.63662 -4.96238,-6.20583 -7.66406,-8.60937 -9.91589,-8.8218 -22.15721,-14.22556 -37.70899,-16.64453 -6.06552,-0.94347 -19.18398,-1.02461 -24.80078,-0.1543 -8.66691,1.34291 -15.50688,3.35453 -22.06054,6.48828 l -3.65821,1.75 -2.28711,-2.33008 C 576.55286,206.85116 567.712,202.67 556.42966,201.07422 c -3.98638,-0.56383 -13.6435,-0.21512 -16.70703,0.60351 -2.77535,0.74163 -5.43898,1.75355 -6.57227,2.4961 -0.75515,0.49479 -0.84095,0.47598 -1.94336,-0.40039 -7.17592,-5.70462 -13.12135,-8.67875 -20.125,-10.07032 -2.87516,-0.5712 -9.9104,-0.57325 -12.79883,-0.004 -5.48904,1.08292 -12.57075,4.18695 -17.3164,7.5918 -1.32204,0.94851 -2.50822,1.7246 -2.63672,1.7246 -0.12862,0 -0.87553,-0.66628 -1.66016,-1.48046 -4.95246,-5.13891 -13.02907,-9.21283 -21.58789,-10.89258 -2.04686,-0.40173 -5.38583,-0.60116 -8.68359,-0.59766 z"
         style="fill:#f3ab38;stroke-width:0.32000002"
         transform="scale(0.26458333)"
         id="path105"
         inkscape:connector-curvature="0" />
      <path
         style="fill:#b15d26;stroke-width:0.08466667"
         d="m 39.817775,161.20628 c -0.256117,-0.0165 -1.151467,-0.0712 -1.989667,-0.12152 -9.951694,-0.59733 -17.976142,-2.3872 -25.251141,-5.63232 -12.803209,-5.71106 -22.412354,-16.17323 -27.56396,-30.01086 -1.181974,-3.17488 -2.44186,-7.87565 -2.631773,-9.81943 l -0.0455,-0.46567 0.12692,0.42334 c 0.06981,0.23283 0.338818,1.09008 0.597804,1.905 3.477245,10.94135 12.239624,21.19017 23.991313,28.06116 1.82232,1.06548 5.464262,2.88722 7.493,3.74809 9.424451,3.99913 20.31364,6.14036 29.421668,5.78545 5.419977,-0.21121 9.624402,-0.69571 13.673667,-1.57569 14.493842,-3.14979 22.724839,-10.65088 24.10168,-21.96435 0.139522,-1.14642 0.142223,-4.44272 0.0046,-5.588 -0.05876,-0.48895 -0.186521,-1.3019 -0.283913,-1.80657 -0.09809,-0.50833 -0.144492,-0.94732 -0.104038,-0.98428 0.04017,-0.0367 0.454033,-0.13324 0.9197,-0.21455 2.912525,-0.50853 6.331602,-1.615 8.471349,-2.74147 3.349761,-1.76348 5.199025,-4.32925 5.960508,-8.26994 0.20083,-1.03932 0.364676,-3.07595 0.327753,-4.07412 l -0.02761,-0.74631 0.635,-0.0612 c 1.002131,-0.0966 2.150863,-0.39176 2.816665,-0.72364 1.16233,-0.57939 2.56674,-2.22376 2.91002,-3.40722 0.25068,-0.86425 0.0923,-0.7807 1.51607,-0.79968 1.4269,-0.019 2.0077,-0.15481 2.99073,-0.6992 0.66389,-0.36765 1.63321,-1.28049 2.08552,-1.964 0.18626,-0.28148 0.38155,-0.51283 0.43396,-0.51412 0.0524,-10e-4 0.31448,0.0946 0.58237,0.21307 1.66757,0.73748 3.09689,0.5794 4.52713,-0.50071 0.53427,-0.40348 0.55354,-0.41049 0.762,-0.27708 0.46367,0.29672 1.07978,0.55291 1.46263,0.6082 0.74652,0.10779 1.63704,-0.1609 2.44475,-0.73765 0.11302,-0.0807 0.21111,-0.0369 0.55034,0.24568 0.51874,0.43211 1.28766,0.81769 1.90418,0.95487 0.75088,0.16707 1.86829,0.0764 2.5303,-0.20533 0.92317,-0.39286 0.86761,-0.40428 1.53002,0.31461 1.56319,1.69647 2.90371,2.31578 5.2404,2.421 l 1.14008,0.0513 0.0732,0.29633 c 0.34805,1.40847 0.85521,2.33014 1.71641,3.11927 0.99351,0.91037 2.3342,1.41204 4.03703,1.51059 0.50059,0.029 0.91016,0.0854 0.91016,0.12532 0,0.04 -0.061,0.44371 -0.1356,0.89724 -0.27596,1.67809 -0.0313,4.07402 0.58132,5.69292 0.82537,2.18108 2.37984,4.30216 4.25328,5.80362 2.54791,2.04199 6.0764,3.34753 9.63382,3.5645 0.50223,0.0306 0.93378,0.0891 0.95898,0.12987 0.0252,0.0408 -0.0314,0.40646 -0.12579,0.81259 -0.33787,1.45362 -0.46197,2.68244 -0.46367,4.59075 -0.002,1.92505 0.0873,2.88947 0.41601,4.5098 0.93812,4.62383 3.18461,8.61193 6.8418,12.14601 5.22429,5.04843 11.49875,7.91323 19.7858,9.03384 6.85511,0.92697 14.1206,0.97146 20.86506,0.12777 12.27179,-1.53513 24.3315,-6.28909 33.147,-13.06664 4.86257,-3.73844 9.30927,-8.11121 12.40675,-12.20045 4.42037,-5.83572 6.73739,-11.8224 7.09438,-18.33033 0.014,-0.25612 0.0326,0.55864 0.0412,1.81057 0.009,1.25193 -0.0221,2.50923 -0.0682,2.794 -0.0462,0.28477 -0.14352,1.08926 -0.21637,1.78776 -0.36596,3.5085 -1.36619,7.55078 -2.72352,11.00667 -0.6652,1.69367 -2.14161,4.68073 -3.11031,6.29277 -4.01187,6.67621 -9.75578,12.18659 -17.26525,16.5633 -8.82596,5.14399 -20.42669,8.70488 -31.71864,9.73614 -3.54059,0.32335 -8.61081,0.38021 -11.64167,0.13057 -10.01959,-0.82529 -17.98747,-3.37634 -24.65421,-7.89345 -3.53705,-2.39656 -7.08716,-5.96156 -9.12771,-9.16599 -1.43341,-2.25099 -2.54056,-5.76524 -2.97415,-9.44034 -0.14768,-1.25168 -0.20933,-5.06434 -0.11627,-7.18984 l 0.0423,-0.96684 -0.93134,-0.3545 c -2.89715,-1.10275 -5.94361,-2.7853 -7.95866,-4.39553 -0.87259,-0.69729 -2.18813,-2.02234 -2.75588,-2.77579 -1.74113,-2.31067 -2.60773,-4.96403 -2.64837,-8.10883 l -0.017,-1.31234 -0.33739,-0.0727 c -0.92131,-0.19854 -1.87589,-0.50438 -2.39047,-0.7659 -0.94566,-0.48061 -2.09488,-1.57762 -3.13815,-2.99561 -0.21537,-0.29272 -0.46894,-0.54658 -0.56351,-0.56415 -0.0946,-0.0176 -0.55389,-0.0719 -1.02073,-0.12083 -1.46173,-0.15308 -2.40024,-0.55647 -3.8586,-1.65849 -0.5052,-0.38177 -0.6676,-0.46288 -0.83826,-0.41864 -0.47862,0.12406 -1.34723,0.17456 -1.88134,0.10937 -0.31295,-0.0382 -1.07495,-0.24547 -1.69333,-0.46061 -0.61838,-0.21514 -1.22443,-0.41046 -1.34677,-0.43405 -0.12234,-0.0236 -0.55866,0.0413 -0.96961,0.1443 -0.81265,0.20358 -1.14074,0.19512 -2.21338,-0.0571 l -0.61144,-0.14377 -0.46439,0.22739 c -0.77714,0.38053 -1.42962,0.51325 -2.54608,0.51789 -0.5588,0.002 -1.36351,-0.0482 -1.78826,-0.11233 l -0.77225,-0.11655 -0.54708,0.41932 c -1.30819,1.00266 -1.87943,1.25035 -3.76025,1.63044 -0.68518,0.13847 -1.28404,0.29003 -1.33081,0.33679 -0.0468,0.0468 -0.15179,0.34792 -0.23339,0.66923 -0.51473,2.02687 -1.94513,3.36198 -4.73362,4.41829 l -0.804339,0.3047 -0.05179,1.64583 c -0.134984,4.28986 -1.289643,7.49541 -3.49383,9.69952 -1.932703,1.93263 -5.577603,3.65938 -8.735771,4.13853 -1.416795,0.21495 -1.332417,0.18541 -1.280109,0.44816 0.02507,0.12593 0.127397,0.53375 0.227397,0.90629 0.263576,0.98198 0.323698,3.2211 0.129574,4.826 -0.309346,2.55749 -0.985825,5.2587 -2.126361,8.49074 -3.111077,8.81612 -11.335529,15.55369 -22.915916,18.77299 -3.582984,0.99605 -7.169443,1.5944 -11.960529,1.99543 -1.046875,0.0876 -8.371999,0.17477 -9.355667,0.1113 z m -1.354667,-10.54112 c -4.156938,-0.27232 -7.575344,-0.87454 -11.698202,-2.06085 -12.073926,-3.47414 -22.222357,-9.46965 -29.816705,-17.61516 -2.144957,-2.30063 -3.411815,-3.88507 -5.652609,-7.06967 -2.03133,-2.8869 -3.5613,-6.17149 -4.47621,-9.60966 -0.948508,-3.56444 -1.13988,-7.43965 -0.54355,-11.00667 0.725587,-4.34019 2.796527,-8.94691 5.68391,-12.643644 1.75758,-2.25024 5.455813,-5.887936 7.726032,-7.599568 1.515387,-1.142525 3.695973,-2.535188 4.704034,-3.004299 2.522326,-1.173788 3.318041,-1.500421 5.032633,-2.065839 1.04775,-0.345515 2.4384,-0.748307 3.090333,-0.895093 0.651933,-0.146784 1.356784,-0.318721 1.566334,-0.38208 0.467416,-0.141326 1.052626,-0.232876 2.963333,-0.46358 0.814917,-0.0984 1.672167,-0.215534 1.905,-0.260306 0.232833,-0.04477 1.099442,-0.09731 1.925798,-0.116759 0.826356,-0.01945 1.626456,-0.0581 1.778,-0.08591 0.151545,-0.02781 1.263319,0.0094 2.470611,0.08279 1.207293,0.07334 2.222776,0.103854 2.256631,0.06782 0.03385,-0.03604 0.121184,-0.301999 0.194066,-0.591024 0.07288,-0.289025 0.309703,-0.879575 0.526271,-1.312334 1.607946,-3.213088 4.262716,-5.70132 8.094911,-7.587106 2.839722,-1.397399 4.88037,-1.930177 8.534713,-2.228271 1.566463,-0.12778 2.139865,-0.128181 3.598333,-0.0025 0.651934,0.05617 1.566334,0.119307 2.032001,0.140297 0.465666,0.02099 1.037166,0.07801 1.27,0.126706 0.232833,0.0487 0.937683,0.185478 1.566333,0.303957 0.62865,0.118479 1.54305,0.310499 2.032,0.426713 l 0.889,0.211298 0.169333,-0.22872 c 1.09381,-1.47742 2.335344,-2.756119 3.578427,-3.685546 0.453332,-0.338946 0.99569,-0.745674 1.20524,-0.903839 0.939554,-0.709157 4.000771,-1.984524 5.842,-2.433898 1.737572,-0.424075 5.159774,-0.543215 7.408334,-0.257913 2.24674,0.285072 5.164836,0.993206 6.97733,1.69319 0.432663,0.167096 0.830461,0.302278 0.884004,0.300406 0.05353,-0.0019 0.268783,-0.23493 0.478333,-0.517906 0.532299,-0.718813 1.792461,-1.984798 2.497667,-2.509198 0.840824,-0.625253 1.820858,-1.088886 2.711865,-1.282929 2.253124,-0.490687 5.001472,-0.372663 7.471943,0.320872 l 0.856819,0.240533 0.575682,-0.336284 c 0.746947,-0.436318 1.429428,-0.742182 2.269025,-1.016887 1.269549,-0.415381 1.991909,-0.517673 3.682999,-0.521544 1.70707,-0.0039 1.73055,-1.7e-4 4.064,0.647385 1.38978,0.385675 2.03921,0.656799 2.78277,1.161734 0.28372,0.192674 0.56956,0.370926 0.63521,0.396115 0.0691,0.02651 0.33583,-0.147365 0.63351,-0.412981 0.57217,-0.510536 1.69312,-1.278738 2.34084,-1.604206 0.7999,-0.401935 2.37145,-0.984803 3.048,-1.130465 0.91732,-0.197498 2.69595,-0.195073 3.76767,0.0051 2.11746,0.395567 4.13663,1.35191 5.87262,2.781468 0.34551,0.284527 0.6212,0.453105 0.68027,0.415981 0.0546,-0.03433 0.39264,-0.263179 0.75114,-0.508552 0.868,-0.594084 1.64411,-0.975147 2.70127,-1.326286 1.18689,-0.394228 2.03743,-0.503565 3.48861,-0.448463 2.31739,0.08799 4.38183,0.675291 6.17728,1.757323 l 0.66881,0.403064 0.45726,-0.202223 c 1.01698,-0.449759 2.22472,-0.762089 3.79841,-0.982302 1.02369,-0.143249 2.49028,0.01735 3.70317,0.405514 2.4217,0.775025 4.24321,2.096584 5.67908,4.120339 0.18999,0.267758 0.37099,0.486833 0.40224,0.486833 0.0312,0 0.39522,-0.174891 0.80883,-0.388645 1.35637,-0.700981 4.33837,-1.569396 6.34001,-1.846339 0.5588,-0.07731 1.19988,-0.177571 1.42463,-0.222793 0.22474,-0.04522 0.77719,-0.08165 1.22767,-0.08094 1.23315,0.0019 4.25541,0.226806 4.54437,0.338125 0.1397,0.05382 0.5969,0.187519 1.016,0.297113 2.79521,0.730942 5.76628,2.309996 8.42332,4.476799 0.34869,0.284356 1.09504,0.961319 1.65855,1.504361 l 1.02457,0.987348 0.54588,-0.114426 c 0.30024,-0.06293 1.02073,-0.194318 1.60111,-0.291964 0.58039,-0.09765 1.17147,-0.214686 1.31353,-0.260088 0.14206,-0.0454 0.61831,-0.10026 1.05833,-0.121905 0.44003,-0.02165 1.33344,-0.07814 1.98538,-0.125542 2.48303,-0.180537 5.21801,-0.118316 7.06967,0.160835 0.75208,0.113383 2.78755,0.653245 3.64862,0.967715 2.47911,0.905391 4.24248,1.914357 6.00071,3.433489 1.44677,1.250031 1.94481,1.802325 3.20467,3.553849 0.34036,0.473161 1.17086,2.109802 1.49556,2.947219 0.12993,0.335066 0.27865,0.625054 0.3305,0.644416 0.0519,0.01936 0.53242,8.5e-5 1.06794,-0.04279 1.20514,-0.09654 5.4308,-0.120503 6.858,-0.03889 2.29738,0.131369 4.86436,0.488327 6.858,0.953662 0.64664,0.150933 3.47204,1.136372 4.99068,1.740645 1.43119,0.569472 4.0505,1.832755 5.29632,2.554392 4.10154,2.375809 7.29146,5.074158 9.81357,8.301276 2.9854,3.819901 4.90635,8.317255 5.67514,13.286785 0.33058,2.13689 0.41379,3.49737 0.35825,5.85797 -0.0691,2.93631 -0.39916,5.3891 -1.04094,7.73543 -0.79104,2.89205 -3.04421,7.16193 -5.21884,9.89002 -2.14011,2.68478 -5.88463,6.33055 -9.37552,9.1283 -2.11728,1.69689 -5.00036,3.74122 -6.68866,4.74283 -0.30269,0.17957 -0.83609,0.50466 -1.18534,0.72241 -1.23029,0.76708 -3.53635,1.99223 -5.588,2.96878 -3.27502,1.55883 -5.9929,2.606 -9.28502,3.57743 -6.45956,1.90604 -11.62929,2.70344 -18.27398,2.81863 -3.87644,0.0672 -8.00466,-0.19345 -10.87967,-0.68693 -3.28843,-0.56444 -5.32367,-1.0598 -7.91335,-1.92605 -3.69736,-1.23677 -6.56578,-2.69335 -8.91662,-4.52789 -2.61236,-2.03861 -4.92938,-5.39532 -6.06671,-8.78896 -1.25033,-3.73079 -1.47826,-8.13874 -0.636,-12.29963 0.098,-0.48437 0.16568,-0.89292 0.15031,-0.90787 -0.0154,-0.015 -0.40896,-0.0711 -0.87463,-0.12472 -4.7508,-0.54725 -9.08016,-2.39292 -11.58622,-4.93937 -2.41653,-2.45547 -3.54451,-6.34535 -3.09314,-10.66682 0.0525,-0.50255 0.0778,-0.93142 0.0561,-0.95304 -0.0216,-0.0216 -0.47403,-0.094 -1.00537,-0.16079 -2.36692,-0.29764 -3.83015,-0.78862 -5.06738,-1.70035 -1.14798,-0.84595 -2.02946,-1.8339 -2.61115,-2.92654 l -0.33372,-0.62687 -0.92853,-0.0545 c -2.75079,-0.16139 -4.11065,-0.8584 -5.64046,-2.89105 -0.35127,-0.46671 -0.54428,-0.65275 -0.67708,-0.65259 -0.10215,8e-5 -0.7001,0.0755 -1.32875,0.16757 -1.43911,0.21071 -1.92886,0.21198 -2.73,0.007 -0.72972,-0.18664 -1.33213,-0.47091 -2.02836,-0.95716 l -0.48271,-0.33712 -0.70263,0.30039 c -1.46198,0.62505 -2.22704,0.64003 -3.42131,0.067 l -0.73268,-0.35156 -0.79972,0.51806 c -0.43985,0.28494 -1.03489,0.61424 -1.32232,0.73179 -0.96355,0.39405 -2.64224,0.34794 -4.01689,-0.11035 -0.33858,-0.11288 -0.64483,-0.20524 -0.68054,-0.20524 -0.0357,0 -0.22855,0.24887 -0.42854,0.55306 -0.48648,0.73994 -1.19673,1.49494 -1.83435,1.94994 -1.10732,0.79016 -2.01861,1.05841 -4.01861,1.18293 l -0.97367,0.0606 -0.39898,0.81489 c -0.79617,1.62608 -2.219649,2.95251 -3.895414,3.6298 -0.658377,0.26609 -2.130764,0.57053 -3.571384,0.73844 -0.600854,0.07 -1.100515,0.13737 -1.11037,0.14966 -0.0099,0.0123 0.03725,0.38427 0.104657,0.82666 0.178553,1.17176 0.102362,3.98404 -0.13799,5.09342 -0.831808,3.83937 -2.932777,6.55687 -6.621298,8.56431 -2.270218,1.23555 -5.401208,2.16679 -8.054721,2.39569 -0.360892,0.0311 -0.655964,0.0799 -0.65571,0.10842 0,0.0285 0.08396,0.58523 0.18603,1.23716 0.159131,1.01649 0.18575,1.53508 0.186868,3.64067 0.0014,2.7087 -0.110787,3.76407 -0.621233,5.842 -1.941805,7.90468 -7.712922,13.41943 -16.957451,16.20415 -4.21726,1.27035 -8.699276,2.05578 -13.571005,2.37818 -1.481665,0.0981 -6.719262,0.0936 -8.255001,-0.007 z m 12.257405,-10.20328 c 3.644888,-0.0301 6.645612,-0.0847 6.668274,-0.1214 0.02266,-0.0367 0.115793,-0.65076 0.206958,-1.36466 0.698899,-5.473 0.650113,-5.18114 0.973397,-5.8231 0.165371,-0.32838 0.65264,-1.11287 1.082821,-1.7433 1.77384,-2.59956 2.464034,-3.84255 3.274284,-5.89673 1.73203,-4.39112 1.67586,-8.72588 -0.163003,-12.57949 -1.775891,-3.72164 -5.212093,-6.63376 -9.927395,-8.41331 -6.044869,-2.28131 -12.692722,-1.76461 -17.920296,1.39287 -0.437739,0.2644 -0.837789,0.48073 -0.889,0.48074 -0.06514,1e-5 -0.09311,-0.61668 -0.09311,-2.05317 0,-1.79105 -0.02418,-2.17234 -0.18939,-2.98651 -1.247447,-6.14755 -5.863344,-9.23309 -13.441944,-8.985405 -2.412584,0.07885 -3.555332,0.281023 -5.253866,0.929508 -4.509509,1.721687 -9.938783,6.255637 -15.83601,13.224527 -1.145543,1.35372 -3.822163,4.81235 -4.307017,5.56537 -0.192771,0.29939 -0.148136,0.40952 0.701271,1.73024 0.357658,0.55611 1.792995,2.90242 3.189638,5.21402 1.702997,2.81865 2.56745,4.17492 2.624667,4.11795 0.04692,-0.0467 0.80952,-1.42577 1.694658,-3.06455 1.004681,-1.86011 1.662649,-2.98987 1.751222,-3.00693 0.118964,-0.0229 37.014899,19.67887 37.453135,19.99932 0.138539,0.1013 0.131675,0.2011 -0.119474,1.73717 -0.146552,0.89634 -0.242374,1.66867 -0.212938,1.71629 0.03456,0.0559 0.417143,0.0687 1.079783,0.0359 0.564446,-0.0279 4.008447,-0.0753 7.653336,-0.10538 z M 41.02922,122.88824 c -4.153356,-2.06383 -7.573358,-3.80453 -7.600004,-3.86823 -0.02664,-0.0637 0.126715,-0.46374 0.340802,-0.889 1.113135,-2.2111 2.822639,-4.02484 4.667979,-4.95259 1.820125,-0.91508 4.15324,-1.00535 6.413589,-0.24816 3.355445,1.12404 5.442123,3.13105 5.935311,5.70871 0.251218,1.313 0.09298,3.01145 -0.425234,4.56417 -0.279563,0.83766 -1.232024,2.78243 -1.546571,3.15785 l -0.234317,0.27966 z m -21.065779,-10.1537 c -1.2573,-0.56315 -2.57175,-1.14869 -2.921,-1.30119 -0.34925,-0.1525 -0.92075,-0.41006 -1.27,-0.57235 -0.34925,-0.1623 -1.2827,-0.57112 -2.074333,-0.90851 -2.403029,-1.02413 -2.582334,-1.11327 -2.582334,-1.28381 0,-0.24166 0.703736,-1.76965 1.215634,-2.63944 1.298889,-2.207 2.750811,-3.60711 4.425757,-4.26783 0.524536,-0.20691 0.689618,-0.22976 1.682276,-0.23284 0.94133,-0.003 1.186464,0.0257 1.693333,0.19757 1.759806,0.59678 3.008609,1.65008 3.704282,3.12437 0.786665,1.66713 0.862905,4.13937 0.193045,6.25986 -0.305472,0.96699 -1.349013,2.6497 -1.642542,2.6486 -0.07597,-2.6e-4 -1.166818,-0.46128 -2.424118,-1.02443 z M 192.4658,139.25175 c 3.72732,-0.71053 6.75869,-2.59091 8.9273,-5.53764 2.04782,-2.7826 3.39096,-6.55935 3.71184,-10.43724 0.16986,-2.05282 0.0199,-3.37198 -0.9471,-8.33205 -0.8019,-4.11316 -0.96265,-5.22609 -1.11154,-7.69534 -0.23236,-3.8536 0.27142,-6.36184 1.64289,-8.1797 0.73729,-0.97726 1.45339,-1.34851 3.335,-1.72895 3.67474,-0.743 7.15291,-0.0593 10.23217,2.01118 2.39195,1.60838 4.49464,4.14069 5.6355,6.78694 0.65781,1.5258 1.08656,3.75925 0.97435,5.07558 -0.0796,0.93382 -0.35154,2.34999 -0.55635,2.8974 -0.34125,0.91207 -1.34763,2.0276 -2.55081,2.82748 -0.47209,0.31384 -1.84418,1.0042 -2.30976,1.16214 -0.0658,0.0223 0.554,2.10651 1.08821,3.65893 0.11216,0.32597 0.37942,1.15465 0.5939,1.8415 l 0.38997,1.24884 h 0.40952 c 0.59681,0 1.69269,-0.22514 2.75656,-0.56632 4.08399,-1.3097 7.1171,-4.12556 8.23625,-7.64635 1.05228,-3.31039 0.90286,-7.20899 -0.40722,-10.62567 -0.67037,-1.7483 -2.12344,-4.1015 -3.94019,-6.38102 -3.78363,-4.74739 -8.24145,-8.08161 -13.21612,-9.884976 -2.74641,-0.995598 -5.0592,-1.429308 -8.15639,-1.529544 -4.8531,-0.157063 -8.69383,1.099475 -11.16338,3.652235 -0.84918,0.877775 -1.38776,1.652028 -1.87812,2.699945 -0.5634,1.20396 -0.68221,1.81526 -0.73487,3.78103 -0.0708,2.64145 0.17622,5.90843 0.7905,10.45633 0.79947,5.91897 0.92715,7.31962 0.84896,9.31334 -0.12258,3.12589 -0.76083,4.6672 -2.7417,6.62108 -2.2347,2.20425 -4.84279,2.97104 -7.30247,2.14697 -1.04854,-0.35129 -1.67411,-0.74221 -2.51006,-1.56852 -1.84533,-1.82404 -2.84121,-4.57105 -2.97014,-8.19281 -0.066,-1.85332 0.17634,-4.33354 0.57608,-5.89649 0.0888,-0.34717 0.13869,-0.6535 0.11088,-0.68073 -0.0882,-0.0864 -1.8961,-0.0157 -3.10835,0.12169 -1.81782,0.20596 -5.20325,0.93921 -6.04159,1.30854 -0.43382,0.19113 -0.47578,0.26821 -0.69222,1.27193 -0.67516,3.13107 -0.78943,6.87428 -0.29981,9.82134 1.05762,6.36588 5.10855,11.68523 11.23417,14.75178 2.70788,1.35559 4.31059,1.68302 8.01745,1.6379 1.78783,-0.0218 2.32538,-0.058 3.12669,-0.21075 z M 71.313776,117.60682 c 0,-0.026 0.47625,-1.49516 1.058334,-3.26473 0.582083,-1.76957 1.058333,-3.30259 1.058333,-3.40671 0,-0.10647 -0.436694,-0.79896 -0.997898,-1.58244 -0.548852,-0.76622 -1.46172,-2.04082 -2.028605,-2.83246 -0.993089,-1.3868 -2.34481,-3.25025 -4.445331,-6.12822 -0.547158,-0.74967 -0.994833,-1.4139 -0.994833,-1.47606 0,-0.12126 4.675717,-4.14688 4.867157,-4.19044 0.06298,-0.0143 2.518926,1.57718 5.457647,3.53671 l 5.343136,3.56276 1.62753,-0.51792 c 3.26749,-1.03981 6.749864,-2.21076 6.749864,-2.26966 0,-0.0332 -0.581025,-0.4546 -1.291166,-0.93641 -1.446598,-0.98147 -7.350718,-5.121167 -9.647793,-6.764581 -0.824238,-0.589697 -2.15469,-1.529375 -2.956543,-2.088175 -0.801861,-0.5588 -2.089633,-1.460185 -2.861717,-2.003078 -0.772075,-0.542893 -1.994331,-1.397784 -2.716115,-1.899759 -0.721783,-0.501974 -2.074333,-1.451276 -3.005667,-2.109556 -0.931333,-0.658282 -2.417233,-1.685045 -3.302,-2.281697 -0.884766,-0.596651 -2.027766,-1.396179 -2.54,-1.776729 -1.952204,-1.450338 -10.27606,-7.243515 -10.407755,-7.243515 -0.07594,0 -0.365655,0.114883 -0.643811,0.255295 -0.278154,0.140412 -0.686643,0.326842 -0.907752,0.414289 -0.221108,0.08745 -1.316416,0.595691 -2.434016,1.129432 -1.1176,0.533742 -3.527425,1.671229 -5.355166,2.52775 -2.965448,1.389675 -3.323167,1.578355 -3.323167,1.752822 0,0.215146 0.554254,3.262034 0.682682,3.752893 0.04425,0.169115 0.285108,1.418604 0.535247,2.776642 0.250138,1.358038 0.477258,2.49162 0.504712,2.519074 0.02745,0.02745 0.756592,-0.415089 1.62031,-0.983425 0.863717,-0.568336 1.625656,-1.021136 1.693197,-1.006222 0.06754,0.01492 2.305312,2.525346 4.972826,5.578736 16.318964,18.679624 21.240351,24.316054 22.333694,25.578604 1.104349,1.27527 1.354666,1.52967 1.354666,1.37678 z M 56.080895,88.133804 c -2.797916,-3.337223 -5.087119,-6.118523 -5.087119,-6.180667 0,-0.06214 0.03301,-0.112986 0.07335,-0.112986 0.04034,0 3.116918,2.134362 6.836834,4.743028 4.236576,2.970986 6.773013,4.801262 6.788994,4.898896 0.01882,0.114943 -0.408442,0.492401 -1.627308,1.437638 -0.909052,0.704974 -1.707904,1.281771 -1.775228,1.281771 -0.06732,0 -2.411609,-2.730456 -5.209523,-6.06768 z M 165.23186,109.18447 c 3.12931,-0.21289 6.03556,-1.01594 9.18162,-2.53706 1.65178,-0.79863 2.61723,-1.35742 4.29997,-2.48878 1.81079,-1.21745 2.79622,-2.02111 4.15072,-3.3851 3.07975,-3.10132 5.72067,-7.272948 7.16213,-11.313379 1.31334,-3.68136 1.02388,-8.643791 -0.70871,-12.149667 -0.77107,-1.560265 -2.18308,-3.148853 -3.67966,-4.139829 -0.88793,-0.587944 -2.51252,-1.337163 -3.49275,-1.610763 -0.70573,-0.196983 -1.92815,-0.377605 -2.15484,-0.318397 -0.14581,0.03809 -6.87355,3.6916 -6.98484,3.793135 -0.0933,0.0851 0.20081,0.167148 1.82832,0.510066 0.96559,0.203452 1.79362,0.407914 1.84007,0.45436 0.0562,0.05615 -0.33979,0.517994 -1.18166,1.378369 -0.69637,0.711657 -1.75746,1.806878 -2.358,2.433823 -0.96859,1.01118 -8.92103,9.118836 -16.98444,17.315942 -4.01887,4.08549 -4.68733,4.8156 -4.62647,5.05305 0.11959,0.4666 2.29702,3.08886 3.48995,4.20293 1.35092,1.26161 2.42538,1.9129 3.65107,2.2131 1.45977,0.35753 3.28411,0.59819 5.02077,0.66232 0.16299,0.006 0.85902,-0.0273 1.54675,-0.0741 z m -1.54675,-7.20456 c -0.44238,-0.0925 -1.07103,-0.29731 -1.397,-0.45508 -0.8932,-0.43231 -1.81033,-1.24931 -1.70641,-1.52013 0.025,-0.0652 1.82888,-1.75188 4.0086,-3.74828 14.71562,-13.477956 17.23824,-15.770936 17.35031,-15.770936 0.40527,0 1.41349,0.870917 1.80493,1.559124 0.38662,0.679712 0.54285,1.337736 0.54447,2.293209 8.5e-4,0.465667 -0.0465,1.075267 -0.105,1.354667 -0.64242,3.066601 -3.15059,6.976147 -6.61974,10.318336 -4.78166,4.60668 -9.89019,6.80357 -13.88016,5.96909 z m -5.75564,-15.080926 c 4.34226,-8.207375 7.9419,-14.97965 7.9992,-15.0495 0.18236,-0.222266 2.41311,-4.470261 2.41311,-4.595238 0,-0.08432 -0.2197,-0.158516 -0.74083,-0.250184 -1.1052,-0.194404 -4.76684,-0.890808 -5.74565,-1.092761 -0.47088,-0.09715 -0.92808,-0.152919 -1.016,-0.123924 -0.25003,0.08246 -6.0708,3.891945 -6.10398,3.994833 -0.0347,0.107492 0.25989,0.200609 1.58379,0.500676 1.45353,0.329448 1.60867,0.377618 1.60867,0.499479 0,0.06143 -0.33337,0.492452 -0.74083,0.957833 -0.40746,0.465379 -1.15986,1.33578 -1.67199,1.934222 -0.51214,0.598441 -1.38844,1.585333 -1.94734,2.193091 -0.92057,1.001056 -1.95494,2.161359 -4.14884,4.653975 -0.4191,0.476163 -1.20015,1.358812 -1.73567,1.961441 -0.53551,0.60263 -1.18321,1.342529 -1.43933,1.64422 -0.25612,0.301691 -2.55377,2.903805 -5.10589,5.782476 -2.55212,2.878671 -4.66122,5.288677 -4.68689,5.355567 -0.0393,0.10248 0.15803,0.12157 1.25355,0.12128 0.71513,-1.7e-4 1.7885,-0.0252 2.38528,-0.0557 l 1.08507,-0.0553 2.4532,-2.817079 c 1.34927,-1.549391 2.49754,-2.831848 2.55171,-2.849906 0.19543,-0.06514 3.80568,0.686498 3.93934,0.820157 0.0837,0.08373 -0.52774,1.284655 -3.08499,6.058848 -0.38662,0.72179 -0.70356,1.3626 -0.70432,1.42403 -10e-4,0.1058 3.53699,3.88869 3.65079,3.90314 0.0296,0.004 3.6066,-6.70829 7.94884,-14.915666 z m -6.90202,-0.10729 c -1.26718,-0.521064 -1.69334,-0.740348 -1.69334,-0.871312 0,-0.124178 7.98541,-8.906232 8.09832,-8.906232 0.0396,0 0.072,0.06087 0.072,0.13526 0,0.137345 -3.64237,7.282 -4.60273,9.028438 -0.4307,0.783238 -0.56202,0.957803 -0.73376,0.975391 -0.11505,0.01178 -0.62828,-0.150913 -1.14051,-0.361545 z m -57.375787,7.328309 c -0.02431,-0.0702 -2.593831,-3.435058 -3.584219,-4.693644 -0.319321,-0.405794 -3.223023,-4.153563 -6.664825,-8.602208 -0.846641,-1.094317 -2.054953,-2.637367 -2.685136,-3.429001 -1.69418,-2.128228 -3.824817,-4.878234 -3.86925,-4.994014 -0.07049,-0.183704 0.168716,-0.279758 1.238877,-0.497472 0.900836,-0.183266 2.137698,-0.475702 3.500924,-0.827745 0.261332,-0.06748 0.31756,-0.116194 0.283676,-0.245743 -0.02323,-0.08887 -0.646151,-1.114775 -1.384258,-2.279796 -0.738107,-1.165022 -1.551559,-2.456654 -1.807675,-2.870295 -0.256117,-0.41364 -0.56217,-0.875959 -0.680119,-1.027374 l -0.214444,-0.2753 -0.801556,0.191824 c -0.440851,0.105503 -1.144448,0.286823 -1.563548,0.402934 -0.4191,0.11611 -1.143,0.298903 -1.608667,0.406207 -0.465667,0.107303 -1.437217,0.353983 -2.159,0.548179 -0.721783,0.194195 -1.921933,0.502046 -2.667,0.684114 -0.745067,0.182068 -1.754717,0.442783 -2.243667,0.579368 -0.48895,0.136585 -1.1557,0.313919 -1.481667,0.394077 -0.325966,0.08016 -1.202266,0.301132 -1.947333,0.491055 l -1.354667,0.345315 -0.05583,0.719666 c -0.105853,1.364597 -0.135161,7.281261 -0.03607,7.282263 0.05054,5.08e-4 2.080219,-0.595039 4.510396,-1.323441 2.43017,-0.728403 4.469486,-1.304802 4.5318,-1.280887 0.06232,0.02392 2.79461,3.734139 6.071752,8.244941 3.277142,4.510802 6.005508,8.252905 6.063039,8.315785 0.09777,0.106848 0.851874,0.385603 6.897244,2.54957 1.280583,0.458391 2.575983,0.928022 2.878666,1.043625 0.59414,0.22692 0.877325,0.27726 0.832553,0.147997 z m 8.094767,-4.749783 c -2.632243,-7.806349 -4.84587,-14.322797 -6.293704,-18.527329 -0.659172,-1.914248 -0.834771,-2.514845 -0.761187,-2.6035 0.07479,-0.09011 0.461391,-0.115241 1.77309,-0.115241 0.922604,0 1.772928,-0.0363 1.889616,-0.08066 l 0.212157,-0.08066 -0.291312,-0.722446 c -0.160223,-0.397345 -0.291313,-0.761469 -0.291313,-0.809164 0,-0.122329 -1.705483,-4.507256 -1.803095,-4.635898 -0.109288,-0.144032 -1.314467,-0.135918 -4.208238,0.02833 -1.280584,0.07268 -3.253723,0.177008 -4.38476,0.231828 -1.654353,0.08019 -2.071658,0.124363 -2.134294,0.225945 -0.04283,0.06945 -0.102117,0.336149 -0.131759,0.592667 -0.02963,0.256517 -0.14329,0.866446 -0.25256,1.355396 -0.109271,0.48895 -0.295589,1.4605 -0.414037,2.159 -0.118441,0.6985 -0.324468,1.83329 -0.457827,2.521757 -0.13335,0.688467 -0.212335,1.270379 -0.175514,1.293137 0.03683,0.02276 1.578085,-0.267948 3.425029,-0.646014 2.484849,-0.508645 3.383297,-0.662741 3.455061,-0.592589 0.05335,0.05214 1.030444,4.082204 2.171327,8.955692 l 2.074334,8.860886 2.201333,1.592963 c 1.210734,0.87613 2.887023,2.088779 3.725093,2.694777 0.83808,0.605998 1.53419,1.070551 1.54692,1.032339 0.0127,-0.03821 -0.38072,-1.267256 -0.87436,-2.731212 z m 34.01386,1.901037 c 3.97399,-0.903862 8.56577,-5.891136 11.45054,-12.436773 0.43258,-0.981522 1.5966,-4.211068 1.69586,-4.705111 0.0321,-0.159623 0.14911,-0.709323 0.26008,-1.221556 0.40293,-1.8598 0.57387,-3.438947 0.51784,-4.783667 -0.0619,-1.484907 -0.15194,-2.060616 -0.48509,-3.100619 -0.43256,-1.350367 -1.18847,-2.238012 -2.27841,-2.675498 -0.39108,-0.156976 -0.62839,-0.186651 -1.48166,-0.185285 -0.88463,0.0014 -1.10359,0.0317 -1.69334,0.234173 -1.36758,0.469523 -3.1625,1.483708 -4.27566,2.415874 -0.88152,0.73818 -2.72569,2.67811 -3.4296,3.607689 -0.3879,0.512233 -0.95963,1.369483 -1.27054,1.905 -0.3109,0.535516 -0.61467,1.030816 -0.67503,1.100666 -0.35289,0.408358 -1.63878,3.379639 -2.27177,5.249334 -1.13125,3.34145 -1.58197,5.679624 -1.58139,8.203848 0,1.597749 0.1253,2.638279 0.42801,3.564819 0.49944,1.528661 1.3992,2.499088 2.6217,2.827605 0.62083,0.166834 1.73375,0.166609 2.46846,-5.08e-4 z m 2.82116,-15.201523 c -0.52826,-0.272864 -0.88843,-0.658605 -1.17359,-1.256917 -0.2447,-0.513426 -0.26163,-0.609952 -0.25259,-1.439333 0.0221,-2.026376 0.95979,-4.119847 2.58057,-5.761358 1.66564,-1.686952 3.23394,-2.387567 4.53134,-2.024318 0.54579,0.152814 1.05685,0.66503 1.28775,1.290685 0.33892,0.918311 0.19013,2.410964 -0.40141,4.027007 -0.28448,0.777191 -1.10598,2.245372 -1.6682,2.98137 -0.75819,0.992565 -2.05693,1.971774 -2.98607,2.251406 -0.58054,0.174718 -1.51125,0.141454 -1.9178,-0.06854 z m -12.57301,14.361947 c 0,-0.05175 2.7335,-11.28094 4.58526,-18.836197 0.70191,-2.86385 1.30717,-5.24044 1.34502,-5.281311 0.0379,-0.04087 0.83954,-0.07897 1.78154,-0.08467 l 1.71271,-0.01036 0.32386,-1.185333 c 0.65677,-2.403843 1.08895,-4.092833 1.08895,-4.255665 0,-0.161959 -0.0856,-0.16901 -2.68817,-0.221339 -1.47849,-0.02973 -3.67973,-0.07754 -4.89164,-0.106256 l -2.20348,-0.05221 -1.02402,1.555733 c -0.56321,0.855652 -1.19389,1.841482 -1.40149,2.190732 -0.20761,0.34925 -0.5364,0.860391 -0.73067,1.135869 -0.19426,0.275479 -0.3532,0.532654 -0.3532,0.5715 0,0.03885 1.04895,0.07063 2.33099,0.07063 1.80446,0 2.3403,0.02425 2.37219,0.107368 0.037,0.09649 -1.21314,4.522266 -1.51227,5.353632 -0.067,0.186267 -0.93148,3.163168 -1.92102,6.615336 l -1.79916,6.276671 0.29834,0.623663 c 0.1641,0.343015 0.66052,1.442814 1.10318,2.443997 1.19128,2.694356 1.40063,3.132667 1.49629,3.132667 0.0477,0 0.0868,-0.02001 0.0868,-0.04447 z m -14.44145,-0.53882 c 0.0425,-0.06878 -0.32193,-4.426597 -0.42384,-5.06821 l -0.0437,-0.275167 h -1.68379 c -1.92547,0 -1.71706,0.106414 -1.85886,-0.949083 -0.10808,-0.804479 -0.46872,-3.216068 -0.64308,-4.30025 -0.0711,-0.442384 -0.45322,-2.995084 -0.84904,-5.672667 -0.39583,-2.677584 -0.79293,-5.287434 -0.88245,-5.799667 -0.14604,-0.835657 -0.32314,-2.03391 -0.72575,-4.910667 -0.0717,-0.512233 -0.15192,-1.055158 -0.17828,-1.2065 l -0.0479,-0.275166 h -2.56791 c -1.41235,0 -2.586508,0.03009 -2.609233,0.06686 -0.02272,0.03677 0.221692,1.113098 0.543162,2.391833 1.434681,5.706953 3.670641,14.656244 5.012591,20.062641 l 1.46057,5.884334 2.11667,0.04457 c 1.16417,0.02451 2.39064,0.05309 2.72551,0.0635 0.33485,0.01041 0.62977,-0.01495 0.65537,-0.05636 z m 9.85222,-2.885262 c 0.0145,-1.232487 0.005,-2.327862 -0.0221,-2.434167 l -0.0485,-0.193281 -2.09389,-0.0013 c -1.15164,-6.77e-4 -2.13763,-0.02929 -2.1911,-0.0635 -0.11701,-0.07487 -0.25548,-2.220106 -0.33542,-5.196348 l -0.056,-2.086144 0.1963,-0.0623 c 0.10795,-0.03427 0.78941,-0.048 1.51433,-0.03052 l 1.31804,0.03178 v -2.54 -2.54 l -1.74843,-0.02286 c -1.56633,-0.02048 -1.75437,-0.03811 -1.80549,-0.169333 -0.0996,-0.255506 -0.32718,-5.527912 -0.24233,-5.612766 0.059,-0.05897 3.21862,-0.121709 6.1297,-0.121709 0.0283,0 0.38235,-5.434587 0.35716,-5.482166 -0.0185,-0.03493 -2.6937,-0.0635 -5.94491,-0.0635 -4.62837,0 -5.9293,0.02297 -5.99423,0.105833 -0.0456,0.05821 -0.45231,1.058333 -0.90377,2.2225 -0.45146,1.164167 -0.8947,2.30186 -0.98497,2.528207 -0.0903,0.226348 -0.14321,0.445423 -0.11761,0.486833 0.0256,0.04141 0.45872,0.07529 0.96251,0.07529 0.63202,0 0.94172,0.03281 0.99905,0.105834 0.0457,0.05821 0.37226,2.048933 0.7257,4.423833 0.35343,2.3749 1.12376,7.5565 1.71183,11.514667 0.58807,3.958167 1.08427,7.244693 1.10268,7.303392 0.0264,0.08416 0.81684,0.102062 3.73933,0.08467 l 3.70584,-0.02206 z M -18.588859,105.71615 c 0,-0.11642 0.01922,-0.16404 0.0427,-0.10583 0.02349,0.0582 0.02349,0.15346 0,0.21166 -0.02349,0.0582 -0.0427,0.0106 -0.0427,-0.10583 z M 213.21512,73.401792 c -1.78453,-0.280729 -3.15346,-0.958239 -4.318,-2.137066 -1.19849,-1.213186 -1.778,-2.581166 -1.778,-4.197085 0,-1.431748 0.46831,-2.466643 1.6483,-3.642491 1.64272,-1.636935 3.72275,-2.385727 5.98291,-2.153791 2.71924,0.279048 4.72027,1.510601 5.69734,3.506487 0.38408,0.784559 0.54862,1.437061 0.60897,2.414971 0.10149,1.644524 -0.37694,2.882279 -1.57085,4.064 -1.06733,1.056435 -2.32986,1.726569 -3.83992,2.038194 -0.71008,0.146536 -1.8576,0.196946 -2.43075,0.106781 z m 4.7728,-4.604035 c 0.68416,-1.026516 1.22082,-1.903765 1.19259,-1.949441 -0.0592,-0.09578 -1.17767,-0.671499 -1.30455,-0.671499 -0.0466,0 -0.46757,0.24765 -0.93551,0.550333 -0.46794,0.302684 -0.90701,0.550334 -0.97572,0.550334 -0.10257,0 -0.12495,-0.166612 -0.12495,-0.930132 V 65.41722 l -0.3175,-0.206755 c -0.52318,-0.340691 -0.60359,-0.320138 -1.03248,0.26387 -0.72593,0.988487 -1.96744,2.760821 -2.00801,2.866548 -0.0399,0.103911 0.63681,0.629934 0.81036,0.629934 0.0489,0 0.16248,-0.142875 0.25245,-0.3175 0.28889,-0.560662 1.03353,-1.55655 1.13682,-1.520392 0.0687,0.02407 0.0921,0.249388 0.0746,0.720402 l -0.0255,0.685383 0.25407,0.131387 c 0.13974,0.07226 0.31258,0.131387 0.38409,0.131387 0.0715,0 0.44211,-0.2286 0.82354,-0.508 0.38143,-0.2794 0.72486,-0.508 0.76318,-0.508 0.17912,0 0.0198,0.333694 -0.55941,1.171322 -0.34599,0.500408 -0.64126,0.95511 -0.65616,1.010448 -0.0223,0.08288 0.78597,0.667504 0.95419,0.690168 0.0275,0.0037 0.6097,-0.833149 1.29386,-1.859665 z m -6.63131,-2.134107 c 0.29608,-0.477308 0.6271,-1.012004 0.73562,-1.188213 0.10852,-0.17621 0.27265,-0.39571 0.36471,-0.48778 0.16675,-0.166756 0.16901,-0.166581 0.58697,0.04521 0.23077,0.116938 0.45584,0.212614 0.50015,0.212614 0.12816,0 0.46319,-0.59664 0.38029,-0.677253 -0.0702,-0.06826 -2.78919,-1.270081 -2.87342,-1.270081 -0.0504,0 -0.37508,0.529526 -0.3755,0.612407 0,0.03414 0.19019,0.158608 0.42302,0.276593 0.2634,0.133476 0.42333,0.270128 0.42333,0.361713 0,0.08096 -0.36195,0.689322 -0.80433,1.351925 -0.44238,0.662602 -0.80433,1.223463 -0.80433,1.246357 0,0.0682 0.6239,0.376548 0.77009,0.380596 0.0818,0.0023 0.3474,-0.338508 0.6734,-0.864091 z m 10.97391,6.536833 c -0.50468,-0.0372 -0.93949,-0.08953 -0.96625,-0.116297 -0.0268,-0.02676 0.18194,-0.28882 0.46379,-0.582343 0.95382,-0.993304 1.65218,-2.301547 1.94621,-3.645859 0.23955,-1.095263 0.12933,-3.389361 -0.20467,-4.25976 -0.0332,-0.0866 -0.02,-0.119559 0.0345,-0.08589 0.13039,0.08058 0.5135,0.924019 0.75305,1.65784 0.66732,2.044284 0.57581,5.028891 -0.20275,6.612646 -0.2661,0.541333 -0.24356,0.536144 -1.82384,0.419666 z"
         id="path99"
         inkscape:connector-curvature="0" />
      <path
         style="fill:#149044;stroke-width:0.08466667"
         d="m 39.745342,150.58924 c -2.993211,-0.13816 -5.674359,-0.43983 -7.928567,-0.89207 -9.651517,-1.93627 -19.704267,-6.35711 -27.083484,-11.91033 -4.53279,-3.41114 -8.624245,-7.50198 -11.837131,-11.83536 -1.140249,-1.53791 -2.773394,-4.0168 -3.347963,-5.08175 -1.490601,-2.76281 -2.630154,-6.07613 -3.151455,-9.16305 -1.028866,-6.09252 0.226083,-12.34741 3.61407,-18.013196 1.479729,-2.474575 2.602106,-3.862801 5.308217,-6.565531 3.739296,-3.734625 5.885975,-5.356421 9.446745,-7.136928 3.985836,-1.993056 8.038729,-3.167513 13.038667,-3.778378 2.425846,-0.296376 6.717127,-0.404994 8.720667,-0.220731 0.581231,0.05345 0.831617,0.04697 0.902697,-0.0234 0.0541,-0.05355 0.180963,-0.378374 0.281916,-0.721824 0.434409,-1.477897 1.686544,-3.48654 3.034061,-4.867167 2.584384,-2.647885 6.421441,-4.770775 10.102839,-5.589498 1.989528,-0.44246 2.789182,-0.514801 5.702154,-0.515848 2.340272,-8.46e-4 2.916931,0.02572 4.233334,0.194956 1.755838,0.225734 3.472615,0.52965 4.584968,0.811663 0.426232,0.108062 0.809012,0.172897 0.850622,0.144079 0.04161,-0.02882 0.308582,-0.377443 0.59327,-0.77472 1.989392,-2.776159 5.35821,-5.040026 9.126474,-6.13305 1.838088,-0.533157 3.256559,-0.722294 5.416965,-0.722294 2.410392,0 4.360562,0.260913 6.944369,0.929086 1.023603,0.264705 3.064823,0.926353 3.778038,1.22463 0.102811,0.043 0.319337,-0.163776 0.860493,-0.821739 0.908964,-1.105156 1.754098,-1.890266 2.719349,-2.526215 0.869485,-0.572859 1.383784,-0.785183 2.505787,-1.034498 0.687298,-0.152721 1.081515,-0.178732 2.709333,-0.178764 2.237071,-4.4e-5 2.584094,0.04955 4.995334,0.713886 0.375877,0.10356 0.388975,0.100091 0.973666,-0.257838 0.776834,-0.47555 1.921062,-0.949198 2.967296,-1.228293 1.456727,-0.388598 3.777707,-0.382482 5.707147,0.01504 1.37797,0.283901 3.2578,1.012215 4.24094,1.643091 0.21566,0.138389 0.45059,0.251616 0.52207,0.251616 0.0715,0 0.37294,-0.196014 0.66992,-0.435587 1.67587,-1.351928 3.69489,-2.366034 5.45135,-2.738088 0.77192,-0.163507 2.40963,-0.162318 3.42828,0.0025 2.03532,0.329292 4.30031,1.381931 5.95819,2.76902 0.32004,0.267758 0.61661,0.486833 0.65906,0.486833 0.0425,0 0.35565,-0.189774 0.69601,-0.421719 0.91562,-0.623967 2.58845,-1.399564 3.56641,-1.653532 1.48401,-0.385389 3.24168,-0.366306 5.2022,0.05648 1.39914,0.301725 3.01526,0.960066 3.97637,1.619815 l 0.37324,0.256208 0.38876,-0.154262 c 1.0827,-0.429623 2.10908,-0.733589 2.85844,-0.846538 1.633,-0.246141 3.58008,-0.130327 5.0283,0.299086 0.82822,0.245577 2.15092,0.924614 2.91602,1.496997 0.77293,0.578243 2.05937,1.88724 2.49767,2.541447 0.16956,0.253089 0.36092,0.443251 0.44731,0.4445 0.083,0.0012 0.34543,-0.09635 0.58308,-0.216777 1.72217,-0.872688 4.3424,-1.66293 6.75894,-2.038444 1.40346,-0.218088 4.83481,-0.217906 6.13833,3.22e-4 3.34989,0.560824 6.3407,1.898837 9.39507,4.203119 1.10163,0.831102 2.51709,2.08606 3.13823,2.782394 0.28354,0.31787 0.36353,0.362094 0.58619,0.324082 0.14182,-0.02421 0.7722,-0.139871 1.40085,-0.257022 3.0633,-0.570861 6.38984,-0.811808 9.15092,-0.662817 3.50272,0.189013 5.83683,0.749036 8.50993,2.04179 4.01286,1.940682 7.0403,5.089717 8.5934,8.938534 l 0.30749,0.762 0.49863,-0.0072 c 0.27425,-0.0039 1.62258,-0.03748 2.9963,-0.07452 5.25762,-0.141766 9.67163,0.384996 13.25033,1.581274 2.80579,0.937914 6.09584,2.401952 8.51372,3.78852 9.16367,5.255058 14.5058,13.1828 15.52078,23.0329 0.41661,4.04301 0.11679,8.11068 -0.87889,11.92416 -0.31404,1.20279 -0.67758,2.12424 -1.55898,3.95146 -1.95097,4.04456 -3.89148,6.63696 -7.87629,10.52223 -7.54091,7.35254 -16.26346,12.69721 -26.08167,15.98133 -4.99017,1.66918 -9.93477,2.67389 -15.621,3.17411 -2.78396,0.2449 -7.96047,0.24339 -10.96434,-0.003 -7.20392,-0.59137 -13.90597,-2.50428 -18.7217,-5.34355 -1.55231,-0.91523 -3.40201,-2.39153 -4.36088,-3.48058 -2.36198,-2.68261 -3.85348,-5.67358 -4.60559,-9.23576 -0.63337,-2.9998 -0.6285,-6.77866 0.0127,-9.8251 0.11621,-0.55215 0.19102,-1.02416 0.16625,-1.04893 -0.0248,-0.0248 -0.5737,-0.11238 -1.21985,-0.19469 -4.04518,-0.51531 -7.48767,-1.79639 -10.0041,-3.72289 -0.79474,-0.60844 -1.98074,-1.82609 -2.43137,-2.49626 -0.79868,-1.18781 -1.3909,-2.67324 -1.72593,-4.32902 -0.22654,-1.1196 -0.32278,-3.99533 -0.17137,-5.12041 0.0746,-0.55411 0.0721,-0.72393 -0.0117,-0.80006 -0.0585,-0.0532 -0.52549,-0.14235 -1.03772,-0.1982 -1.19952,-0.1308 -2.70117,-0.46465 -3.54084,-0.78721 -1.59738,-0.61364 -3.19436,-2.09375 -4.08003,-3.78144 l -0.33953,-0.647 -1.18447,-0.10596 c -2.76013,-0.24692 -3.95263,-0.87248 -5.40373,-2.83465 -0.26312,-0.3558 -0.51157,-0.6674 -0.55211,-0.69245 -0.0405,-0.0251 -0.58377,0.0295 -1.20717,0.1212 -1.23429,0.18159 -2.44421,0.21255 -3.02989,0.0775 -0.49466,-0.11403 -1.49259,-0.58022 -2.08795,-0.9754 -0.42202,-0.280122 -0.50758,-0.307697 -0.70338,-0.22671 -1.58894,0.65723 -1.55738,0.64834 -2.30413,0.64897 -0.68009,5.9e-4 -0.77402,-0.0222 -1.46863,-0.35546 -0.40814,-0.19582 -0.78985,-0.35605 -0.84824,-0.35605 -0.0584,0 -0.2712,0.11955 -0.47291,0.26567 -0.98496,0.7135 -1.85776,1.10251 -2.70666,1.20637 -0.70717,0.0865 -2.03451,-0.084 -2.89333,-0.37176 -0.41634,-0.13949 -0.77201,-0.25361 -0.79038,-0.25361 -0.0184,0 -0.19984,0.25717 -0.40324,0.5715 -0.73092,1.12952 -1.82798,2.12449 -2.86693,2.60014 -0.66594,0.30487 -1.57504,0.47382 -2.85167,0.52995 l -1.12722,0.0495 -0.3626,0.77027 c -0.72024,1.52997 -1.929083,2.76095 -3.478966,3.54266 -0.785825,0.39635 -2.230205,0.71612 -4.233334,0.93722 l -0.931333,0.1028 0.0044,0.29512 c 0.0025,0.16232 0.05005,0.68714 0.105833,1.16627 0.512716,4.40389 -0.98105,8.62399 -3.952926,11.16758 -1.934447,1.65566 -5.049258,3.14695 -7.915758,3.78986 -1.110158,0.24898 -2.538654,0.46529 -3.100561,0.46949 -0.620988,0.005 -0.619895,0.002 -0.425628,1.19202 0.836507,5.12589 -0.04839,10.74348 -2.339094,14.84937 -1.972497,3.53552 -4.780162,6.27452 -8.622945,8.41206 -4.620523,2.57016 -11.749389,4.38321 -19.346334,4.92026 -1.786647,0.12631 -5.643935,0.17313 -7.438434,0.0903 z m 11.076022,-9.99411 c 4.122241,-0.0541 6.6626,-0.11849 6.694233,-0.16967 0.02804,-0.0454 0.11347,-0.5869 0.189849,-1.2034 0.07638,-0.6165 0.26215,-2.10567 0.412822,-3.30928 l 0.273951,-2.18837 0.430526,-0.77921 c 0.236789,-0.42856 0.814775,-1.32974 1.284415,-2.00263 2.582131,-3.69959 3.902372,-7.06632 4.174798,-10.64611 0.146385,-1.92356 -0.08155,-3.73651 -0.709725,-5.64496 -1.281027,-3.89189 -3.857028,-6.79943 -7.972704,-8.99881 -4.682347,-2.5022 -9.984589,-3.27394 -14.919613,-2.17153 -1.909442,0.42653 -4.17705,1.3302 -5.804158,2.31302 -0.391508,0.23649 -0.725592,0.42997 -0.742408,0.42997 -0.01682,0 -0.03206,-0.82867 -0.03388,-1.8415 -0.0036,-1.97683 -0.09775,-2.75227 -0.509932,-4.1974 -0.838568,-2.94008 -2.65091,-5.16902 -5.273619,-6.485826 -1.349388,-0.677501 -3.131752,-1.164277 -5.016238,-1.369969 -1.177023,-0.128472 -4.689602,-0.05015 -5.706908,0.127259 -4.9131,0.856774 -10.838618,5.202106 -17.431205,12.782746 -1.640664,1.88656 -3.980112,4.83439 -5.167885,6.51183 l -0.406542,0.57414 0.600413,0.99219 c 0.330227,0.54571 1.833654,3.03055 3.34095,5.52186 1.507295,2.49132 2.788255,4.52967 2.846577,4.52967 0.05832,0 0.857636,-1.39065 1.776254,-3.09033 0.918618,-1.69969 1.711288,-3.09034 1.761489,-3.09034 0.0502,0 8.476802,4.49513 18.72578,9.98916 18.511272,9.92311 18.634482,9.99085 18.631174,10.24467 -0.0018,0.14053 -0.108426,0.88822 -0.236876,1.66155 -0.12845,0.77332 -0.219026,1.4496 -0.201281,1.50283 0.04005,0.12014 0.449497,0.12052 8.989742,0.008 z m -9.733589,-17.81952 c -4.074583,-2.01973 -7.441283,-3.72375 -7.481556,-3.78672 -0.09289,-0.14524 0.467174,-1.28238 1.111203,-2.25616 0.892329,-1.3492 2.453043,-2.7897 3.703353,-3.41808 0.65376,-0.32857 1.739475,-0.64254 2.571881,-0.74375 2.05506,-0.24987 4.887853,0.56826 6.914757,1.99704 2.179207,1.53614 3.194114,3.88956 2.809674,6.51521 -0.075,0.51223 -0.235537,1.27423 -0.356748,1.69333 -0.310658,1.07414 -1.595562,3.69642 -1.801792,3.67718 -0.03434,-0.003 -3.396188,-1.65833 -7.470772,-3.67805 z M 17.531244,111.53232 c -2.641576,-1.17324 -5.108812,-2.26293 -5.482748,-2.42153 -0.373935,-0.15859 -0.715719,-0.33153 -0.759518,-0.38431 -0.101598,-0.12242 0.490355,-1.50608 1.083781,-2.5333 0.96549,-1.67124 2.258716,-3.1301 3.374452,-3.80662 1.494038,-0.90591 3.095355,-1.03513 4.779443,-0.38567 2.218594,0.85558 3.512464,2.60473 3.801383,5.13899 0.181292,1.59023 -0.141347,3.53591 -0.809873,4.88394 -0.370445,0.74697 -0.931768,1.57349 -1.099389,1.61879 -0.04657,0.0126 -2.245956,-0.93705 -4.887531,-2.11029 z M 190.90545,139.5798 c 4.91668,-0.46217 8.80076,-2.81235 11.29549,-6.83468 2.10708,-3.39732 3.34338,-8.17191 3.05627,-11.80343 -0.10896,-1.37824 -0.36656,-2.99215 -0.92917,-5.82154 -0.91577,-4.60533 -1.10597,-6.06892 -1.16159,-8.93833 -0.0473,-2.44022 0.0403,-3.35733 0.44829,-4.695 0.52423,-1.71867 1.52077,-3.08606 2.57304,-3.53054 0.16299,-0.0688 0.7354,-0.23279 1.27203,-0.36433 2.5195,-0.61756 5.05573,-0.54623 7.41283,0.20848 0.96931,0.31036 2.74585,1.22088 3.67369,1.88285 1.50524,1.07392 3.19126,2.90271 4.25675,4.61722 1.2195,1.96232 1.9267,4.27357 1.9267,6.29679 0,1.014 -0.27345,2.81425 -0.52507,3.45676 -0.54496,1.39162 -2.21337,2.84788 -4.17393,3.64321 -0.32596,0.13223 -0.63839,0.2814 -0.69428,0.33149 -0.0778,0.0697 0.048,0.55709 0.53738,2.08073 0.35145,1.09432 0.82889,2.59927 1.06096,3.34434 0.23209,0.74506 0.48557,1.40453 0.56329,1.46547 0.26616,0.2087 1.85631,-0.0594 3.40898,-0.5747 2.08966,-0.69355 3.92214,-1.8029 5.37652,-3.25484 1.82506,-1.82198 2.79027,-3.73595 3.24834,-6.44127 0.64053,-3.78298 -0.12778,-7.83417 -2.11186,-11.13538 -2.36819,-3.94032 -5.53565,-7.4876 -8.97633,-10.052718 -3.22533,-2.404571 -7.15935,-4.186863 -10.80781,-4.896432 -2.03617,-0.396005 -5.22113,-0.564484 -7.19057,-0.380369 -4.92111,0.460054 -8.44148,2.522593 -10.2115,5.982799 -0.79979,1.56349 -0.94765,2.35529 -0.9347,5.0053 0.0145,2.96297 0.24975,5.63308 0.95399,10.82643 0.56286,4.15074 0.68707,5.47553 0.69005,7.35971 0.005,3.41238 -0.54413,5.01161 -2.37896,6.92337 -1.97736,2.06027 -3.6606,2.84764 -5.87926,2.75015 -1.64921,-0.0725 -2.8468,-0.59386 -4.03614,-1.75719 -1.60312,-1.56806 -2.5377,-3.76225 -2.88182,-6.76586 -0.13102,-1.14347 -0.0576,-4.42508 0.12228,-5.46847 0.0723,-0.4191 0.21403,-1.13028 0.31504,-1.5804 0.101,-0.45012 0.15829,-0.88445 0.12731,-0.96517 -0.0512,-0.13352 -0.17275,-0.14221 -1.34529,-0.0961 -1.98438,0.078 -3.86061,0.37278 -6.34829,0.99751 -1.20511,0.30263 -1.86003,0.54012 -2.02914,0.73581 -0.32235,0.37299 -0.79462,3.2074 -0.91731,5.50537 -0.27195,5.0938 0.80878,9.39608 3.29286,13.10851 0.78317,1.17044 2.00168,2.6214 2.89815,3.45101 2.88015,2.66535 6.6746,4.7307 9.50735,5.17489 1.83944,0.28844 3.85497,0.36467 5.51543,0.20859 z M 72.046786,115.70117 c 1.066072,-3.19307 1.570339,-4.82288 1.526049,-4.93222 -0.02224,-0.0549 -0.565133,-0.8237 -1.206432,-1.70847 -0.641291,-0.88476 -2.113119,-2.92311 -3.270716,-4.52966 -1.157596,-1.60655 -2.522838,-3.4925 -3.03387,-4.191 -0.51103,-0.6985 -0.919522,-1.33754 -0.90776,-1.42009 0.03396,-0.23831 4.558486,-4.05508 4.762719,-4.0177 0.09313,0.017 2.52178,1.59994 5.396984,3.51756 2.875204,1.91761 5.294207,3.48656 5.375555,3.48656 0.224434,0 8.388248,-2.69927 8.445889,-2.79254 0.05182,-0.0838 -1.010894,-0.9019 -2.200427,-1.69382 -0.604537,-0.40247 -4.472856,-3.109966 -8.914545,-6.239428 -0.871263,-0.613869 -2.422322,-1.702629 -3.446789,-2.419467 -1.024467,-0.716839 -2.434167,-1.703539 -3.132667,-2.192668 -0.6985,-0.489129 -2.24155,-1.568927 -3.429,-2.399552 -1.18745,-0.830625 -2.6543,-1.858595 -3.259667,-2.284378 -0.605366,-0.425783 -1.401145,-0.97628 -1.768397,-1.223326 -0.367252,-0.247047 -1.034002,-0.711354 -1.481667,-1.031796 -0.447664,-0.320441 -3.130506,-2.206325 -5.961872,-4.190852 -4.424166,-3.100936 -5.180046,-3.601667 -5.376333,-3.561537 -0.125618,0.02568 -3.009698,1.3559 -6.409065,2.95604 -6.032017,2.839375 -6.181208,2.915355 -6.203147,3.159169 -0.01237,0.137402 0.149996,1.164222 0.360802,2.281822 0.210807,1.1176 0.573655,3.0607 0.80633,4.318 0.534768,2.889717 0.486443,2.692755 0.645684,2.631649 0.07274,-0.02791 0.835758,-0.513666 1.695606,-1.079456 l 1.563361,-1.028709 0.195747,0.203925 c 0.140612,0.146485 24.629424,28.197964 28.021408,32.097994 0.190415,0.21894 0.38431,0.38785 0.430877,0.37535 0.04657,-0.0125 0.395469,-0.95362 0.775343,-2.0914 z M 56.402806,88.338317 c -2.663723,-3.178175 -4.900376,-5.845408 -4.97034,-5.927185 -0.06996,-0.08178 -0.104419,-0.171475 -0.07657,-0.199328 0.05801,-0.05801 13.269209,9.189383 13.269209,9.287996 0,0.06619 -3.24839,2.617017 -3.332682,2.617017 -0.02557,0 -2.225899,-2.600325 -4.889621,-5.7785 z M 166.88581,109.15144 c 4.59602,-0.68701 9.25699,-2.78979 13.68438,-6.17363 4.73187,-3.61656 9.10879,-10.427488 10.18312,-15.845993 0.20875,-1.052865 0.20774,-4.166421 -0.002,-5.495484 -0.56939,-3.611601 -2.09475,-6.327568 -4.6173,-8.221298 -1.49745,-1.124165 -3.82564,-2.073814 -5.60653,-2.28686 l -0.47176,-0.05644 -3.61263,1.976373 c -3.10076,1.696337 -3.89734,2.188039 -3.54475,2.188039 0.0867,0 3.3036,0.669832 3.51254,0.731393 0.0841,0.02479 0.14128,0.09875 0.127,0.164349 -0.0143,0.0656 -1.89422,2.014971 -4.17762,4.331933 -4.37391,4.438206 -19.36888,19.750088 -20.43979,20.871778 l -0.62736,0.65712 0.13242,0.27421 c 0.34427,0.71287 2.43872,3.22106 3.5488,4.24982 0.79654,0.7382 1.7862,1.44712 2.49837,1.78966 0.70111,0.33722 2.29793,0.70528 3.97708,0.9167 1.24771,0.1571 4.16248,0.11867 5.43581,-0.0717 z m -2.4834,-7.15842 c -0.74348,-0.1056 -1.54331,-0.32645 -2.05023,-0.56609 -0.54386,-0.25711 -1.3928,-0.88564 -1.57802,-1.16832 -0.12931,-0.19736 -0.12638,-0.2187 0.0536,-0.3904 0.79198,-0.75563 20.93908,-19.18638 21.0324,-19.240641 0.17731,-0.103096 0.76123,0.271616 1.28306,0.823377 0.72066,0.761991 1.02861,1.632298 1.03024,2.911608 0.002,1.413253 -0.39858,2.805263 -1.31429,4.569367 -1.17783,2.269076 -2.77541,4.37906 -4.98606,6.585319 -3.59728,3.59012 -7.11543,5.69016 -10.63198,6.34639 -0.89507,0.16703 -2.1659,0.22496 -2.8387,0.12939 z m -6.72904,-14.353203 c 4.11111,-7.776633 8.0155,-15.148983 8.67641,-16.383 1.92906,-3.601833 2.10543,-3.951586 2.05671,-4.078551 -0.0309,-0.08065 -0.46219,-0.197237 -1.30431,-0.352607 -0.69193,-0.127663 -2.24867,-0.425627 -3.4594,-0.662142 -1.21073,-0.236516 -2.35373,-0.435055 -2.54,-0.441197 -0.30627,-0.0101 -0.63627,0.18177 -3.45017,2.006074 -1.71132,1.109484 -3.1115,2.063868 -3.1115,2.120855 0,0.065 0.60493,0.244037 1.62325,0.480423 0.89278,0.207246 1.63628,0.416543 1.65221,0.465105 0.0159,0.04856 -0.49546,0.679576 -1.13641,1.402255 -0.64096,0.72268 -1.45113,1.639209 -1.80038,2.036733 -0.34925,0.397523 -2.29279,2.585908 -4.31897,4.863077 -2.02619,2.27717 -4.16441,4.692759 -4.7516,5.367975 -0.5872,0.675217 -2.99526,3.398778 -5.35127,6.052357 -2.356,2.653581 -4.25387,4.854466 -4.21748,4.890856 0.0804,0.0804 1.40167,0.11307 3.41698,0.0846 l 1.49932,-0.0212 2.47134,-2.843782 c 1.35924,-1.564082 2.52206,-2.863248 2.58406,-2.887038 0.062,-0.02379 0.69453,0.07438 1.40567,0.21816 2.08487,0.421527 2.2945,0.473982 2.33093,0.583272 0.0345,0.103431 -1.48582,3.105773 -2.38892,4.717728 -0.26089,0.46566 -0.69198,1.27365 -0.95797,1.79552 l -0.48363,0.94885 1.01527,1.04094 c 0.5584,0.57252 1.43043,1.47209 1.93786,1.99904 0.74517,0.77385 0.94226,0.93664 1.02492,0.84654 0.0563,-0.0614 3.46598,-6.47426 7.57708,-14.250893 z m -6.89353,-1.081757 c -0.69498,-0.2898 -1.27757,-0.569707 -1.29465,-0.622014 -0.0171,-0.05231 1.71283,-2.007242 3.84423,-4.344301 2.1314,-2.337058 3.88842,-4.209753 3.90449,-4.161542 0.0161,0.04821 -0.96081,2.003144 -2.17085,4.3443 -2.81226,5.441097 -2.74299,5.313893 -2.89261,5.31204 -0.0699,-8.64e-4 -0.69562,-0.238682 -1.39061,-0.528483 z m -56.886801,7.695879 c -0.02466,-0.06428 -0.782294,-1.064408 -1.683613,-2.2225 -0.901328,-1.158092 -1.831433,-2.353272 -2.0669,-2.655955 -0.235458,-0.302683 -2.155961,-2.779183 -4.267776,-5.503333 -2.111815,-2.72415 -4.271916,-5.50545 -4.800219,-6.180667 -2.986812,-3.817394 -4.088088,-5.252669 -4.088088,-5.327918 0,-0.09335 0.314664,-0.188078 1.417871,-0.426865 0.951712,-0.205997 3.320872,-0.755457 3.513963,-0.814965 0.08149,-0.02511 0.148166,-0.08537 0.148166,-0.1339 0,-0.04853 -0.604477,-1.046088 -1.343279,-2.216795 -0.73881,-1.170706 -1.659153,-2.636861 -2.045225,-3.258122 -0.386063,-0.62126 -0.761305,-1.152346 -0.833873,-1.180192 -0.07257,-0.02784 -0.990541,0.171353 -2.039942,0.442664 -1.04941,0.271312 -2.993864,0.773953 -4.321014,1.116981 -1.32715,0.343028 -3.536951,0.910288 -4.910667,1.260577 -3.120819,0.795789 -4.667432,1.207745 -4.715781,1.256094 -0.07514,0.07514 -0.204931,8.036263 -0.132205,8.108989 0.04236,0.04236 2.012401,-0.507796 4.59888,-1.284285 l 4.524773,-1.358387 0.169333,0.195313 c 0.09313,0.107423 2.831761,3.859476 6.085849,8.337897 3.254078,4.478421 5.978229,8.167545 6.053667,8.198054 0.273092,0.110452 4.427711,1.599816 6.868151,2.462127 1.373717,0.485391 2.745317,0.973967 3.048,1.085725 0.644398,0.237924 0.884234,0.267014 0.819929,0.09946 z m 8.916741,-1.981238 c 0,-0.08643 -5.114462,-15.224592 -7.251152,-21.462519 -0.709956,-2.072653 -0.815561,-2.448427 -0.707518,-2.517537 0.06985,-0.04468 0.755651,-0.08215 1.524001,-0.08327 1.597211,-0.0023 2.286,-0.06486 2.286,-0.207567 0,-0.05432 -0.127618,-0.420483 -0.2836,-0.813706 -0.155973,-0.393225 -0.695545,-1.781754 -1.199041,-3.08562 -0.503496,-1.303867 -0.955243,-2.422144 -1.003876,-2.485059 -0.06764,-0.0875 -0.248513,-0.102041 -0.76945,-0.06185 -0.691244,0.05333 -3.782187,0.212926 -7.6237,0.393633 -1.164167,0.05476 -2.178956,0.132022 -2.255097,0.171688 -0.165651,0.0863 -0.157023,0.05357 -0.533087,2.02392 -0.164423,0.861483 -0.489543,2.556933 -0.722486,3.767667 -0.232943,1.210733 -0.424163,2.248958 -0.424934,2.307166 -0.0024,0.177391 0.342198,0.124319 3.681604,-0.567113 2.430636,-0.503269 3.240684,-0.642181 3.312845,-0.568105 0.05254,0.05393 1.015899,4.060452 2.140814,8.903385 1.726142,7.431266 2.073732,8.829266 2.227453,8.958697 0.100186,0.08435 1.079915,0.801227 2.177187,1.59306 1.097271,0.791833 2.718937,1.967611 3.603697,2.61284 1.49512,1.090333 1.82034,1.290482 1.82034,1.120287 z m 33.2974,-0.958883 c 0.83149,-0.226097 2.13843,-0.889813 3.10927,-1.579008 0.96247,-0.683258 3.02646,-2.704409 3.91183,-3.830659 3.55241,-4.518867 6.09867,-10.597778 6.58434,-15.719348 0.62594,-6.600788 -2.13829,-9.537445 -7.04502,-7.48447 -1.59554,0.667577 -3.82787,2.359411 -5.34222,4.048757 -1.40473,1.567061 -2.91371,3.784002 -3.849,5.654838 -1.3977,2.795781 -2.79021,7.147998 -3.18169,9.944223 -0.69866,4.990182 0.5089,8.538536 3.07976,9.049737 0.25611,0.05093 0.54186,0.109659 0.635,0.130512 0.31838,0.07129 1.48546,-0.0481 2.09773,-0.214582 z m 2.60851,-15.291716 c -0.51666,-0.182486 -1.04554,-0.736416 -1.26619,-1.326181 -0.46361,-1.239106 -0.046,-3.500199 0.96332,-5.216201 1.85629,-3.155877 5.09227,-4.836595 6.57598,-3.415458 1.19981,1.149207 0.65997,4.410116 -1.20302,7.266888 -1.34025,2.055186 -3.54982,3.227918 -5.07009,2.690952 z m -11.03565,7.970229 c 0.89611,-3.675016 2.23178,-9.139297 2.96818,-12.142847 l 1.3389,-5.461 1.76392,-0.04233 1.76392,-0.04233 0.11496,-0.381 c 0.30451,-1.009118 1.31323,-5.178761 1.27621,-5.275253 -0.058,-0.151107 -9.74884,-0.373462 -9.92446,-0.227716 -0.10203,0.08468 -0.52425,0.731312 -2.90498,4.44909 -0.34068,0.532012 -0.59561,1.005826 -0.5665,1.052921 0.0335,0.05423 0.87462,0.08563 2.29424,0.08563 1.94759,0 2.24794,0.01722 2.29175,0.131406 0.0277,0.07227 -0.26292,1.205748 -0.64591,2.518833 -2.53174,8.680137 -4.48983,15.479802 -4.48983,15.59138 0,0.07183 0.11147,0.368822 0.24771,0.659988 0.13622,0.291166 0.62793,1.386643 1.09267,2.434393 1.3371,3.014501 1.52747,3.404365 1.64357,3.365918 0.0642,-0.02125 0.75292,-2.686741 1.73565,-6.717071 z m -16.01018,5.931639 c 0.0452,-0.117771 -0.3495,-4.826731 -0.44161,-5.268653 -0.0395,-0.189686 -0.0468,-0.1905 -1.6909,-0.1905 -1.63223,0 -1.65212,-0.0022 -1.73114,-0.1905 -0.044,-0.104775 -0.61589,-3.75285 -1.27094,-8.106833 -1.2179,-8.095118 -1.75053,-11.609952 -2.06564,-13.631334 l -0.17819,-1.143 -2.59212,-0.02237 c -2.009492,-0.01735 -2.611388,0.0017 -2.677766,0.08467 -0.06007,0.07509 0.115984,0.915763 0.589813,2.816374 0.371483,1.490133 1.945213,7.845618 3.497153,14.123299 1.55194,6.277682 2.86722,11.468807 2.92285,11.535834 0.15592,0.187872 5.5663,0.181174 5.6385,-0.007 z m 9.83268,-2.919153 c 0.0131,-1.280583 0.003,-2.414058 -0.0228,-2.518833 l -0.0465,-0.1905 -2.09389,-0.0013 c -1.15164,-6.78e-4 -2.13935,-0.0302 -2.19493,-0.06553 -0.11073,-0.0704 -0.25618,-2.762231 -0.29836,-5.521169 l -0.0239,-1.566334 1.48167,-0.04742 c 0.81492,-0.02608 1.49174,-0.05466 1.50406,-0.0635 0.0123,-0.0088 0.0123,-1.187656 0,-2.619581 l -0.0224,-2.6035 -1.76015,-0.02289 c -1.29897,-0.0169 -1.76977,-0.05017 -1.79687,-0.127 -0.0603,-0.17101 -0.295,-5.41245 -0.2459,-5.491885 0.0249,-0.04027 1.3933,-0.07322 3.04092,-0.07322 1.70827,0 3.01614,-0.03311 3.04329,-0.07705 0.0524,-0.08488 0.38465,-4.635422 0.3853,-5.27812 v -0.402167 h -5.96704 -5.96705 l -0.12008,0.1905 c -0.17429,0.276525 -2.08516,5.096704 -2.08516,5.259845 0,0.119131 0.13128,0.137655 0.97548,0.137655 0.93156,0 0.97907,0.0086 1.05515,0.1905 0.0438,0.104775 0.84703,5.35305 1.78493,11.662834 0.93788,6.309783 1.72286,11.501298 1.74438,11.536701 0.0215,0.0354 1.74161,0.05445 3.82243,0.04233 l 3.78371,-0.02203 z M 212.70712,73.2463 c -0.7817,-0.158051 -1.28783,-0.342753 -2.159,-0.787878 -0.61258,-0.312995 -0.91196,-0.539544 -1.5267,-1.155308 -1.15847,-1.16041 -1.70084,-2.352762 -1.79264,-3.940964 -0.0828,-1.432808 0.3695,-2.576576 1.47759,-3.736396 1.534,-1.605623 3.41444,-2.354686 5.64949,-2.250452 3.1147,0.145258 5.44586,1.678599 6.27418,4.126906 0.44491,1.315054 0.45684,2.789361 0.0317,3.925497 -0.67079,1.792878 -2.69939,3.336535 -5.00893,3.811555 -0.77836,0.160089 -2.17231,0.163419 -2.94574,0.007 z m 4.16764,-2.64565 c 0.31694,-0.361563 2.43636,-3.574255 2.43636,-3.693127 0,-0.148066 -1.13272,-0.812472 -1.38819,-0.814253 -0.0883,-5.93e-4 -0.5304,0.22748 -0.98248,0.50688 -0.45208,0.2794 -0.86433,0.508 -0.91612,0.508 -0.0618,0 -0.10242,-0.313055 -0.11819,-0.910025 l -0.024,-0.910026 -0.42334,-0.230996 c -0.23283,-0.127048 -0.46972,-0.231887 -0.52642,-0.232975 -0.0567,-0.0011 -0.24962,0.198047 -0.4287,0.442522 -0.7452,1.017296 -2.21988,3.108648 -2.21988,3.148177 0,0.06263 0.91134,0.725323 0.99747,0.725323 0.0403,0 0.3563,-0.428625 0.70211,-0.9525 l 0.62876,-0.9525 0.0246,0.701286 0.0246,0.701286 0.37676,0.183043 0.37676,0.183042 0.23361,-0.171728 c 0.84326,-0.619893 1.12261,-0.796689 1.12261,-0.710487 0,0.05389 -0.2667,0.474147 -0.59267,0.933892 -0.32597,0.459745 -0.59267,0.893777 -0.59267,0.964515 0,0.121163 0.86617,0.707722 1.06638,0.722141 0.051,0.0037 0.15115,-0.06 0.2226,-0.14149 z m -5.47767,-3.81 c 0.99768,-1.590245 1.14046,-1.799166 1.2296,-1.799166 0.0479,0 0.23653,0.0762 0.41909,0.169333 0.18256,0.09313 0.40653,0.169333 0.49772,0.169333 0.19036,0 0.5458,-0.515937 0.50349,-0.730843 -0.0313,-0.158907 -2.79552,-1.411403 -3.01968,-1.368235 -0.15148,0.02917 -0.53474,0.654527 -0.46766,0.763065 0.0235,0.03808 0.23059,0.1644 0.46013,0.280716 0.22953,0.116316 0.41734,0.24716 0.41734,0.290765 0,0.0436 -0.36195,0.612319 -0.80434,1.263809 -0.44238,0.651491 -0.80433,1.243091 -0.80433,1.314669 0,0.121859 0.68821,0.5441 0.90098,0.552779 0.0531,0.0022 0.3536,-0.405633 0.66766,-0.906225 z"
         id="path97"
         inkscape:connector-curvature="0" />
      <path
         style="fill:#020301;stroke-width:0.08466667"
         d="m 40.794608,145.61143 c -0.02175,-0.0217 -0.005,-0.10415 0.03729,-0.1831 0.08517,-0.15915 0.219981,-1.01338 0.180936,-1.14651 -0.01366,-0.0466 0.04054,-0.49229 0.120445,-0.9905 0.0799,-0.4982 0.123257,-0.96321 0.09635,-1.03334 -0.02691,-0.0701 -0.212712,-0.20974 -0.41289,-0.31023 -0.200177,-0.10049 -0.440158,-0.24967 -0.533291,-0.33151 -0.16962,-0.14905 -0.384143,-0.26181 -2.114616,-1.11147 -0.511104,-0.25096 -1.202231,-0.63587 -1.535835,-0.85537 -0.333605,-0.2195 -0.753628,-0.46096 -0.933385,-0.53658 -0.757091,-0.3185 -1.731823,-0.82486 -2.003598,-1.04084 -0.160554,-0.12759 -0.458562,-0.29978 -0.662241,-0.38266 -0.692879,-0.28191 -1.427833,-0.66435 -1.714453,-0.89213 -0.157239,-0.12496 -0.452535,-0.29466 -0.656214,-0.3771 -0.622584,-0.25204 -2.205951,-1.0765 -2.698659,-1.40521 -0.605208,-0.40376 -2.774652,-1.57143 -3.048,-1.64054 -0.116416,-0.0294 -0.668866,-0.30791 -1.227667,-0.61883 -0.5588,-0.31092 -1.560017,-0.84608 -2.224928,-1.18923 -0.66491,-0.34315 -1.451978,-0.79031 -1.74904,-0.99369 -0.297063,-0.20338 -0.751134,-0.44873 -1.009049,-0.54523 -0.594733,-0.22251 -1.856038,-0.90082 -2.299125,-1.23642 -0.186712,-0.14142 -0.510563,-0.32592 -0.719667,-0.41 -0.644323,-0.2591 -2.133873,-1.02263 -2.363671,-1.21161 -0.258153,-0.21229 -1.174957,-0.70966 -1.309272,-0.71028 -0.136905,-6.8e-4 -4.042542,-2.10008 -4.242581,-2.28057 -0.195309,-0.17622 -3.371424,-1.88164 -3.663082,-1.96689 -0.145437,-0.0425 -0.24495,-0.003 -0.393648,0.15772 -0.219913,0.23716 -0.921668,1.51756 -1.203983,2.19674 -0.2624,0.63127 -1.114285,2.21221 -1.43088,2.65543 -0.149679,0.20955 -0.353903,0.54293 -0.45383,0.74084 -0.09993,0.19791 -0.201789,0.35983 -0.22636,0.35983 -0.154465,0 -0.970959,-1.19432 -1.095398,-1.60229 -0.08118,-0.26613 -1.958389,-3.37028 -2.205522,-3.64704 -0.250694,-0.28075 -0.714964,-1.04935 -0.714964,-1.18362 0,-0.1382 -0.562963,-1.08278 -0.808394,-1.35638 -0.260376,-0.29027 -0.761984,-1.12954 -1.373755,-2.29852 l -0.513494,-0.98119 0.162641,-0.26745 c 0.385515,-0.63393 1.793745,-2.42184 1.907535,-2.42184 0.07404,0 1.214151,1.80398 2.80921,4.445 1.631464,2.70129 2.734407,4.445 2.811581,4.445 0.08007,0 0.73871,-1.13312 1.782519,-3.06663 0.910541,-1.68665 1.679459,-3.09056 1.708707,-3.11981 0.06189,-0.0619 37.039287,19.73085 37.243065,19.93494 0.125713,0.12591 0.117619,0.25168 -0.101434,1.57616 -0.260296,1.57386 -0.286128,1.87073 -0.169073,1.94308 0.04278,0.0264 3.475013,0.005 7.627194,-0.0471 4.247676,-0.0535 7.581345,-0.0631 7.622416,-0.0219 0.06913,0.0694 -0.09883,1.53044 -0.383135,3.33291 -0.06978,0.44238 -0.136553,0.95673 -0.148391,1.143 l -0.02152,0.33866 -0.635,0.0157 c -3.993918,0.0987 -15.045666,0.19275 -15.109834,0.12859 z m 144.988502,-1.0412 c -0.25611,-0.0322 -0.61806,-0.0998 -0.80433,-0.15024 -0.18627,-0.0505 -0.52153,-0.0927 -0.74504,-0.0938 -0.2235,-0.001 -0.50925,-0.0541 -0.635,-0.11783 -0.12574,-0.0637 -0.43818,-0.16285 -0.69429,-0.22037 -1.35364,-0.30399 -3.96597,-1.57625 -4.89693,-2.3849 -0.20199,-0.17545 -0.53763,-0.40149 -0.74588,-0.5023 -0.51361,-0.24863 -1.84262,-1.339 -2.15109,-1.76482 -0.13778,-0.1902 -0.28261,-0.34581 -0.32185,-0.34581 -0.0392,0 -0.44858,-0.42678 -0.90963,-0.94839 -0.46107,-0.52162 -0.98317,-1.09658 -1.16025,-1.27769 -0.61317,-0.62714 -1.83717,-2.64935 -2.10687,-3.48084 -0.0921,-0.28384 -0.29263,-0.74468 -0.44568,-1.02408 -0.42331,-0.77278 -1.22165,-3.45141 -1.11303,-3.73448 0.0429,-0.11193 -0.13359,-1.14066 -0.23925,-1.3941 -0.24044,-0.57678 -0.13292,-5.19676 0.17031,-7.31742 0.17125,-1.19767 0.46335,-2.58233 0.54476,-2.58233 0.0348,0 0.0816,1.03822 0.10403,2.30716 0.0459,2.60406 0.21278,3.84987 0.7774,5.80485 1.47747,5.11568 4.97352,9.41496 9.86929,12.13681 2.75825,1.53347 4.28826,1.99022 7.37093,2.2004 1.73192,0.11809 3.57903,0.007 5.13115,-0.30918 4.99452,-1.01676 8.71699,-4.19042 10.82549,-9.22948 0.57524,-1.37473 0.64517,-1.387 0.4189,-0.0735 -0.31691,1.83965 -1.0453,4.28639 -1.59096,5.34421 -0.14804,0.28701 -0.39846,0.78085 -0.55647,1.09744 -0.15802,0.31658 -0.34563,0.68991 -0.41693,0.82961 -0.0713,0.1397 -0.26738,0.41218 -0.43573,0.60552 -0.16835,0.19334 -0.38078,0.49814 -0.47207,0.67733 -0.44251,0.86868 -2.07898,2.5757 -2.92552,3.05168 -0.26045,0.14644 -0.58778,0.38048 -0.72739,0.52011 -0.13962,0.13961 -0.6294,0.42933 -1.0884,0.64383 -0.459,0.21449 -0.89367,0.44278 -0.96594,0.50731 -0.34863,0.3113 -3.1013,1.07545 -4.28006,1.18816 -0.78897,0.0754 -4.26357,0.10241 -4.78367,0.0371 z M 58.021109,137.28369 c 0,-0.10586 0.09752,-0.93273 0.216721,-1.83749 0.262087,-1.98937 0.289274,-2.05244 1.934017,-4.48691 1.243219,-1.84015 1.964602,-3.09515 2.513531,-4.37281 0.200068,-0.46566 0.413554,-0.92181 0.474412,-1.01367 0.110139,-0.16623 0.11065,-0.16623 0.110153,0 -0.0022,0.73994 -0.612684,3.50026 -0.896347,4.05293 -0.146783,0.28598 -0.838313,1.93725 -1.211055,2.8918 -0.278368,0.71288 -1.057795,2.06011 -1.493711,2.58187 -0.488574,0.58479 -1.014005,1.35162 -1.254995,1.83158 -0.253666,0.50522 -0.392726,0.6301 -0.392726,0.3527 z m 162.408551,-7.37404 c -0.10595,-0.12813 -0.77988,-2.30009 -0.77988,-2.51343 0,-0.0832 -0.28575,-1.05594 -0.635,-2.1616 -0.34925,-1.10567 -0.635,-2.04388 -0.635,-2.08492 0,-0.041 0.12383,-0.13215 0.27517,-0.20248 0.15134,-0.0703 0.59886,-0.29769 0.99449,-0.50524 0.39563,-0.20756 0.74632,-0.35038 0.7793,-0.3174 0.033,0.033 0.23759,0.63131 0.45468,1.3296 0.21708,0.6983 0.42972,1.33631 0.47251,1.4178 0.17058,0.32483 1.7952,0.11659 3.54319,-0.45416 3.19727,-1.04396 5.95283,-3.21586 7.39422,-5.82803 0.35199,-0.63788 0.35284,-0.63865 0.38078,-0.34432 0.11401,1.2006 -1.01011,4.9818 -1.71199,5.75868 -0.23778,0.26318 -0.73002,0.97722 -0.89744,1.30182 -0.20504,0.39752 -1.66408,1.71694 -2.55314,2.3088 -0.45483,0.3028 -1.23535,0.71929 -1.73447,0.92554 -0.49912,0.20625 -0.96753,0.42708 -1.0409,0.49075 -0.20517,0.17803 -1.65165,0.62928 -2.61714,0.81644 -0.99552,0.19298 -1.5639,0.21389 -1.68938,0.0622 z M 49.577223,123.38368 c -0.307596,-1.24598 -0.701516,-1.92829 -1.670341,-2.8932 -0.894654,-0.89103 -1.664226,-1.41333 -2.84447,-1.93053 -0.346667,-0.15191 -0.725553,-0.33821 -0.84197,-0.41401 -0.865411,-0.56343 -4.375531,-0.75617 -5.793748,-0.31813 -0.302004,0.0933 -0.56994,0.20332 -0.595412,0.24454 -0.02547,0.0412 -0.327686,0.22936 -0.671583,0.41811 -0.343898,0.18874 -0.886641,0.55355 -1.206096,0.81069 -0.319455,0.25714 -0.629214,0.46801 -0.688353,0.4686 -0.199146,0.002 -1.628142,-0.76156 -1.628142,-0.86995 0,-0.18071 0.663137,-1.41663 1.168063,-2.17698 0.565868,-0.85212 1.686994,-2.04227 2.472103,-2.6243 0.709972,-0.52632 1.794069,-1.04681 2.667501,-1.28069 0.887823,-0.23773 2.645702,-0.25859 3.620973,-0.043 3.087111,0.68256 5.548595,2.33942 6.531654,4.39655 0.481778,1.00816 0.593677,1.5556 0.5919,2.89573 -0.0013,0.99204 -0.03775,1.3307 -0.223402,2.07677 -0.216438,0.86977 -0.520195,1.75136 -0.649122,1.88394 -0.03532,0.0363 -0.143122,-0.25356 -0.239555,-0.64418 z m 20.22295,-1.02899 c -0.235492,-0.22028 -0.521462,-0.5597 -0.635491,-0.75427 -0.11402,-0.19457 -0.391498,-0.5263 -0.61661,-0.73718 -0.567716,-0.53183 -1.484427,-1.57997 -1.711232,-1.95657 -0.103937,-0.1726 -0.370349,-0.4774 -0.592023,-0.67733 -0.478196,-0.43132 -2.054305,-2.2248 -2.206846,-2.51122 -0.05869,-0.1102 -0.236632,-0.6055 -0.395423,-1.10067 -1.192657,-3.71912 -3.978816,-6.87767 -7.92161,-8.9804 -0.662217,-0.35317 -0.912688,-0.54491 -1.311764,-1.00421 -0.271294,-0.31223 -0.760217,-0.85614 -1.086496,-1.20869 -0.32628,-0.35254 -0.700958,-0.78283 -0.83262,-0.95618 -0.131661,-0.17336 -0.931761,-1.09788 -1.778,-2.05449 -0.846238,-0.95662 -1.862466,-2.11429 -2.258283,-2.5726 -0.395816,-0.45831 -1.100693,-1.26464 -1.566391,-1.79184 -0.465698,-0.52721 -1.035581,-1.18716 -1.266407,-1.46656 -0.230826,-0.279396 -0.751263,-0.850896 -1.156526,-1.269996 -0.405263,-0.4191 -0.88313,-0.957119 -1.061925,-1.195598 -0.178796,-0.23848 -0.659747,-0.784719 -1.068778,-1.213865 l -0.743695,-0.780266 -0.90408,0.576343 c -0.497244,0.316989 -1.072687,0.705043 -1.278763,0.862344 -0.979818,0.747913 -1.136658,0.768242 -1.261712,0.163542 -0.21858,-1.056954 -0.441775,-2.271357 -0.532959,-2.899833 -0.05405,-0.372534 -0.131601,-0.73995 -0.172336,-0.81648 -0.04073,-0.07653 -0.113312,-0.47658 -0.161281,-0.889 -0.04797,-0.41242 -0.222704,-1.435654 -0.388299,-2.273854 -0.165595,-0.8382 -0.321544,-1.645225 -0.346553,-1.793388 -0.04301,-0.254795 -0.02125,-0.281661 0.401584,-0.495929 0.636335,-0.322455 1.112188,-0.478149 1.198275,-0.392063 0.04046,0.04046 0.278904,1.184077 0.529872,2.541365 0.250969,1.35729 0.481536,2.50862 0.512372,2.558513 0.08039,0.130077 0.110611,0.113335 1.854277,-1.027268 1.342871,-0.878426 1.599699,-1.017316 1.695486,-0.916902 0.06209,0.06509 6.462783,7.395439 14.223768,16.289675 7.760985,8.89423 14.16668,16.20943 14.234887,16.256 0.171391,0.11702 0.211802,0.0353 0.634416,-1.28288 0.19928,-0.62157 0.406087,-1.13012 0.459579,-1.13012 0.05348,0 0.14699,0.093 0.207789,0.20655 0.09591,0.17922 0.08017,0.30531 -0.118906,0.9525 -0.126196,0.41027 -0.301633,0.89835 -0.389856,1.08461 -0.236796,0.49992 -0.504503,1.31142 -0.504503,1.5293 0,0.29767 -0.976359,3.25102 -1.123366,3.39802 -0.118745,0.11875 -0.172602,0.0928 -0.559571,-0.26911 z M 193.8881,120.46932 c -0.0427,-1.60147 -0.23285,-3.46781 -0.39889,-3.91584 -0.10743,-0.28989 -0.65032,-4.6713 -0.76583,-6.18066 -0.0517,-0.67522 -0.15394,-1.62772 -0.22725,-2.11667 -0.17288,-1.15293 -0.20418,-5.74968 -0.0454,-6.66347 0.12762,-0.73433 0.59919,-2.07615 0.70637,-2.00991 0.0422,0.0261 0.0768,0.35945 0.077,0.74088 8.5e-4,1.38799 0.35192,5.25853 0.72369,7.97483 0.87417,6.38729 1.05348,8.48464 0.89177,10.43143 -0.12891,1.55209 -0.58603,3.41157 -0.83868,3.41157 -0.0436,0 -0.0979,-0.73854 -0.12281,-1.67216 z m 29.82491,-6.0433 c -8.4e-4,-0.32431 -0.33667,-1.8507 -0.54711,-2.48687 -0.077,-0.23283 -0.36386,-0.88053 -0.63743,-1.43933 -1.00524,-2.0533 -3.117,-4.50611 -5.08291,-5.90381 -0.85869,-0.6105 -2.48612,-1.45646 -3.38378,-1.75892 -2.43747,-0.82129 -5.45845,-0.90224 -7.874,-0.211 -1.26732,0.36267 -1.72083,0.63783 -2.41821,1.46725 l -0.50279,0.59796 -0.0272,-0.39774 c -0.0334,-0.48735 0.11001,-1.53166 0.3302,-2.40511 0.4389,-1.74099 1.4456,-3.28708 2.4588,-3.77619 0.98207,-0.47409 3.18138,-0.86278 4.88186,-0.86278 4.4762,0 8.69654,2.39781 11.46113,6.51168 1.95112,2.90341 2.6617,5.88303 2.11001,8.84778 -0.20093,1.07975 -0.44369,1.83365 -0.64396,1.99986 -0.10444,0.0867 -0.12392,0.0581 -0.12457,-0.18278 z m -62.27156,-0.16945 c -0.4191,-0.0386 -1.1811,-0.134 -1.69334,-0.21204 -0.51223,-0.078 -1.14088,-0.1665 -1.397,-0.19657 -0.45649,-0.0536 -1.70233,-0.46173 -2.28346,-0.74806 -1.08913,-0.53661 -3.47156,-2.82935 -4.50536,-4.33575 -0.20772,-0.30268 -0.55796,-0.80621 -0.77829,-1.11894 -0.35779,-0.50784 -0.38962,-0.58928 -0.29786,-0.762 0.1397,-0.26295 2.28219,-2.43706 2.40161,-2.43706 0.0525,0 0.3221,0.27226 0.5992,0.60503 1.24103,1.4903 3.18957,3.04975 4.36026,3.48961 1.0871,0.40845 3.41192,0.79198 5.28757,0.87229 4.89808,0.20974 10.30646,-1.51306 15.40933,-4.90853 3.09038,-2.05635 5.2904,-4.16351 7.46735,-7.15215 1.27021,-1.74382 2.77021,-4.381819 3.57292,-6.283583 0.24687,-0.584871 0.30423,-0.446352 0.18529,0.447433 -0.45906,3.44968 -2.71551,8.15473 -5.75425,11.99857 -1.3384,1.693 -3.90247,4.20823 -4.73831,4.64806 -0.12375,0.0651 -0.51736,0.35087 -0.87469,0.635 -1.11837,0.88928 -2.66887,1.80959 -3.28985,1.95271 -4.47539,1.03141 -4.56496,1.06659 -4.77089,1.87383 -0.10235,0.40122 -0.10423,0.40285 -0.69143,0.59882 -0.32384,0.10808 -0.665,0.23368 -0.75814,0.27911 -0.28952,0.14125 -1.487,0.41431 -2.58729,0.58998 -1.19662,0.19104 -3.6662,0.27445 -4.86337,0.16424 z M 23.307305,111.51201 c -0.13522,-0.65334 -0.673216,-1.8985 -1.067883,-2.47154 -0.500931,-0.72732 -1.169449,-1.27558 -2.106648,-1.72767 -1.130626,-0.5454 -1.666628,-0.67685 -2.762869,-0.67753 -1.54071,-9.7e-4 -2.476628,0.4312 -3.932856,1.81602 l -0.872945,0.83015 -0.639498,-0.29547 c -0.351724,-0.16251 -0.639499,-0.31509 -0.639499,-0.33908 0,-0.14036 0.751048,-1.7377 1.138422,-2.42119 0.934865,-1.64952 2.285937,-3.15546 3.440586,-3.83496 1.882535,-1.10785 4.151438,-0.9269 6.136183,0.48939 1.774371,1.26616 2.614062,3.76265 2.202854,6.5493 -0.147144,0.99717 -0.4634,2.13808 -0.671589,2.42279 -0.110626,0.15129 -0.127986,0.12496 -0.224258,-0.34021 z m 54.31385,-5.92107 c -1.070872,-0.7208 -2.156595,-1.4619 -2.412712,-1.64688 -0.256117,-0.18498 -0.495012,-0.33818 -0.530868,-0.34045 -0.03587,-0.002 -0.740715,-0.4602 -1.566334,-1.01762 -0.825627,-0.55742 -1.844031,-1.24209 -2.263131,-1.52149 -0.4191,-0.2794 -1.005807,-0.68057 -1.303791,-0.8915 -0.297993,-0.21094 -0.597205,-0.38352 -0.66493,-0.38352 -0.125535,0 -1.251136,0.90394 -1.623204,1.30355 -0.112894,0.12125 -0.25273,0.22045 -0.310752,0.22045 -0.05802,0 -0.494072,-0.53733 -0.968994,-1.19406 -0.836197,-1.15631 -0.858493,-1.19874 -0.705247,-1.34191 0.08704,-0.0813 1.072651,-0.92221 2.190251,-1.86866 1.1176,-0.94645 2.113127,-1.79272 2.212289,-1.88059 0.179663,-0.15922 0.19884,-0.14742 5.526956,3.40139 2.940659,1.95864 5.394477,3.56117 5.452923,3.56117 0.05844,0 0.732324,-0.20955 1.497499,-0.46567 0.765175,-0.25612 1.472447,-0.46567 1.571718,-0.46567 0.217162,0 4.312616,2.83476 4.312616,2.98507 0,0.0623 -0.7265,0.34097 -1.778001,0.68211 -1.917903,0.62224 -1.909834,0.61953 -4.607653,1.54958 -0.997509,0.34388 -1.873936,0.62524 -1.947621,0.62524 -0.07368,0 -1.010133,-0.58974 -2.081014,-1.31054 z m 69.667315,-0.40813 c -2.11405,-2.22873 -2.03009,-2.11788 -1.89567,-2.50295 0.17779,-0.50934 1.72841,-3.39838 1.824,-3.39838 0.0488,0 0.65738,0.60008 1.35239,1.3335 0.81152,0.85638 1.32428,1.3335 1.4331,1.3335 0.13894,0 1.59485,-2.69203 8.09029,-14.959365 4.35648,-8.227653 7.94773,-14.985515 7.98056,-15.017472 0.0955,-0.09293 1.17724,0.142131 1.22483,0.266147 0.0238,0.06191 -0.31633,0.790437 -0.75575,1.618958 -0.43941,0.828521 -0.90227,1.735002 -1.02858,2.014402 -0.1263,0.2794 -0.33839,0.67945 -0.47131,0.889 -0.2221,0.350147 -3.94094,7.364537 -7.0923,13.377334 -0.71997,1.373717 -1.45515,2.745317 -1.63372,3.048 -0.17857,0.302683 -0.3736,0.664633 -0.4334,0.804333 -0.0598,0.1397 -0.38103,0.749593 -0.71385,1.355313 -0.33281,0.60572 -1.0718,2.01542 -1.64219,3.13266 -1.17789,2.30714 -1.21302,2.36458 -1.84768,3.02032 -0.45029,0.46526 -0.46205,0.48926 -0.36022,0.7351 0.1,0.24136 0.0639,0.3337 -0.71745,1.83475 -0.45249,0.86932 -0.95255,1.77678 -1.11123,2.01656 -0.15867,0.23978 -0.31049,0.52169 -0.33735,0.62646 -0.0269,0.10478 -0.0923,0.18862 -0.1455,0.18633 -0.0532,-0.002 -0.8267,-0.77383 -1.71897,-1.7145 z m 15.23171,-3.73961 c -0.55776,-0.25968 -1.1257,-0.64799 -1.51044,-1.03274 -0.253,-0.25299 -0.28048,-0.31648 -0.18651,-0.43077 0.15549,-0.18909 20.89522,-19.182714 21.03873,-19.267454 0.1712,-0.101079 0.7623,0.272176 1.24029,0.783183 0.456,0.487508 0.76947,1.10042 0.91094,1.781121 0.13946,0.671062 0.0508,2.271216 -0.17051,3.077955 -0.21367,0.778828 -0.59112,1.750989 -0.67984,1.750989 -0.0342,0 -0.1051,-0.143014 -0.15747,-0.317809 -0.20503,-0.684322 -1.61353,-2.222191 -2.03525,-2.222191 -0.0812,0 -0.72931,0.542925 -1.44035,1.2065 -0.71105,0.663575 -1.48266,1.37795 -1.71469,1.5875 -0.23203,0.20955 -1.11543,1.010234 -1.96309,1.779299 -0.84766,0.769064 -2.0701,1.87176 -2.71653,2.450436 -0.64643,0.578676 -1.65222,1.504827 -2.23506,2.058111 -0.58285,0.55329 -1.53695,1.43179 -2.12023,1.95223 -1.40693,1.25537 -3.09866,2.79107 -3.57106,3.24171 -1.00017,0.95411 -2.00195,1.8108 -2.11659,1.81005 -0.0699,-4.2e-4 -0.32744,-0.0941 -0.57234,-0.20812 z m -27.03324,-1.09915 c -0.0443,-0.0442 -0.0787,-0.12044 -0.0765,-0.16933 0.002,-0.0489 0.9078,-1.09855 2.0124,-2.33257 l 2.00833,-2.24367 0.71812,-0.0212 c 0.39496,-0.0117 0.80213,-0.0406 0.90481,-0.0642 0.11125,-0.0256 1.18366,-1.188744 2.65398,-2.878596 1.35702,-1.559622 2.52487,-2.835677 2.59523,-2.835677 0.0704,0 0.65725,0.101374 1.30418,0.225276 1.17623,0.225272 1.32917,0.304412 1.04463,0.540561 -0.0724,0.06008 -0.16941,0.179845 -0.2156,0.266144 -0.0735,0.137272 -0.0148,0.187961 0.46907,0.405044 0.45922,0.206034 0.54248,0.2741 0.49076,0.401165 -0.22534,0.553689 -1.75142,3.346433 -1.84911,3.383913 -0.099,0.038 -1.1378,-0.13636 -2.15983,-0.36248 -0.19056,-0.0422 -0.27885,0.019 -0.635,0.43974 -0.22752,0.26878 -0.76677,0.89136 -1.19834,1.3835 -0.43158,0.49214 -1.02213,1.17983 -1.31234,1.52818 -0.29021,0.34836 -0.77531,0.90273 -1.07799,1.23192 -0.30268,0.32919 -0.6727,0.74152 -0.82226,0.91628 l -0.27192,0.31775 -2.25108,-0.0257 c -1.27105,-0.0145 -2.28612,-0.0607 -2.33158,-0.1061 z M 90.91411,98.68013 c -0.884766,-0.32452 -2.123016,-0.76453 -2.751666,-0.97779 -0.62865,-0.21326 -1.299067,-0.46907 -1.489821,-0.56847 -0.748402,-0.38997 -6.757407,-4.677351 -7.07655,-5.049053 -0.179908,-0.20955 -0.545406,-0.690984 -0.812207,-1.069854 -0.266802,-0.378869 -0.770839,-1.078953 -1.120089,-1.555742 -0.34925,-0.476788 -0.958851,-1.315749 -1.354667,-1.864356 -0.395817,-0.548607 -1.021224,-1.410623 -1.389804,-1.915591 -1.681835,-2.304228 -2.048188,-2.809169 -3.307528,-4.55879 -1.555132,-2.160576 -1.624237,-2.243993 -1.857926,-2.242678 -0.169435,9.57e-4 -1.955791,0.525419 -4.869663,1.429709 -0.765556,0.237584 -1.459619,0.431969 -1.542363,0.431969 -0.135956,0 -2.417929,-1.539989 -2.532159,-1.708827 -0.0751,-0.111001 -0.01383,-5.502594 0.06339,-5.578278 0.03798,-0.03722 0.221454,-0.07973 0.407721,-0.09445 l 0.338667,-0.02678 -0.03243,1.617875 c -0.02283,1.138964 -0.0042,1.635299 0.06282,1.676743 0.05239,0.03238 2.140036,-0.554827 4.639216,-1.304902 3.700915,-1.11075 4.563059,-1.343297 4.646896,-1.25341 0.05662,0.0607 2.759574,3.767961 6.006567,8.238361 3.246992,4.4704 5.970829,8.187195 6.052964,8.259545 0.08213,0.07235 1.059231,0.449355 2.171319,0.837791 1.112088,0.388436 2.10881,0.78459 2.214931,0.880343 0.106112,0.09575 0.589813,0.690297 1.074869,1.321209 1.163667,1.513556 1.463065,1.899476 2.972206,3.831056 0.702175,0.89873 1.304502,1.68168 1.338495,1.73989 0.112675,0.19293 -0.215248,0.10525 -1.853184,-0.49552 z m 10.13987,-1.875 c -0.33699,-0.24455 -1.147431,-0.82565 -1.80099,-1.29131 -0.653559,-0.46567 -1.640154,-1.170519 -2.192427,-1.566336 -1.927098,-1.381158 -2.254097,-1.614443 -2.593661,-1.850346 L 94.125035,91.859629 93.772559,90.427056 C 93.578697,89.639141 93.074118,87.489534 92.651276,85.650151 91.42349,80.309204 91.289785,79.742226 90.98407,78.580484 90.547919,76.923079 90.0509,74.822192 89.985537,74.359686 c -0.0557,-0.394158 -0.06723,-0.408476 -0.284412,-0.353482 -0.124494,0.03152 -0.454948,0.09518 -0.734348,0.141468 -1.446623,0.239643 -4.48277,0.8589 -4.741859,0.967155 -0.360239,0.150517 -1.311808,0.261393 -1.311808,0.152851 0,-0.04249 0.153086,-0.865307 0.340191,-1.828474 0.187105,-0.963168 0.358588,-1.991103 0.381067,-2.2843 0.04082,-0.532183 0.167632,-0.744754 0.444306,-0.744754 0.06446,0 1.50031,-0.283576 3.190782,-0.630169 1.690463,-0.346593 3.181739,-0.641868 3.313946,-0.656166 l 0.240377,-0.026 2.077162,8.889281 2.077169,8.889282 2.016904,1.448475 c 1.109295,0.796661 2.089024,1.520885 2.17717,1.609385 0.153916,0.154535 2.566946,7.098202 2.517886,7.245382 -0.0129,0.0386 -0.2991,-0.12993 -0.63609,-0.37449 z m 31.25909,-0.47155 c -1.43871,-0.36634 -2.33135,-1.46309 -2.8723,-3.529096 -0.42551,-1.625128 -0.35854,-4.277396 0.17314,-6.857728 0.30386,-1.474655 0.33921,-1.503841 0.40995,-0.338523 0.11263,1.855224 0.47262,3.268091 1.06984,4.19877 0.40165,0.625916 1.18126,1.303082 1.74161,1.51273 1.84338,0.689697 4.07061,0.144443 6.50223,-1.591825 0.83649,-0.597282 2.57132,-2.260278 3.42745,-3.28551 0.85583,-1.024887 1.89478,-2.480751 2.58946,-3.628581 0.80508,-1.330249 2.0652,-3.906251 2.58895,-5.292473 0.2732,-0.723063 0.47894,-1.156506 0.52642,-1.109025 0.10449,0.104498 -0.074,1.153155 -0.33202,1.950508 -0.11195,0.345956 -0.2255,0.784106 -0.25235,0.973667 -0.0614,0.433457 -0.61613,2.234741 -0.75802,2.461323 -0.0583,0.09313 -0.26309,0.574427 -0.45503,1.069541 -0.41308,1.06546 0.15685,0.371271 -6.00346,7.312459 -2.521,2.840567 -4.57144,5.202763 -4.55651,5.249333 0.0149,0.0466 0.15746,0.10475 0.31675,0.12929 0.27474,0.0423 0.28033,0.0498 0.10891,0.1459 -0.0994,0.0557 -0.55657,0.23937 -1.016,0.40816 -0.71704,0.26345 -0.96118,0.31157 -1.72431,0.33984 -0.66445,0.0246 -1.03947,-0.005 -1.48471,-0.11876 z m -7.91339,-1.64526 c -0.22717,-0.477311 -0.85394,-1.891585 -1.39284,-3.142833 l -0.97979,-2.274996 0.37898,-1.36567 c 0.6853,-2.469481 0.7515,-2.682864 0.82474,-2.658451 0.0399,0.01329 0.50373,0.995408 1.03077,2.182476 1.29075,2.907145 1.53793,3.385971 1.74797,3.385971 0.2074,0 0.21183,-0.06197 -0.0756,1.058334 -0.39416,1.536503 -0.58723,2.335407 -0.73148,3.026829 -0.0969,0.46437 -0.17385,0.65617 -0.26332,0.65617 -0.077,0 -0.28779,-0.33904 -0.53946,-0.86783 z m -19.46562,-0.0423 c -0.046,-0.17462 -0.14505,-0.584196 -0.22019,-0.910163 -0.14975,-0.649643 -0.31138,-1.303605 -0.50742,-2.053166 -0.07,-0.267759 -0.35594,-1.439334 -0.63534,-2.6035 -0.27941,-1.164167 -0.6817,-2.764367 -0.89397,-3.556 -0.21228,-0.791634 -0.49805,-1.858434 -0.63504,-2.370667 -0.13699,-0.512233 -0.29065,-1.198033 -0.34146,-1.524 -0.0508,-0.325967 -0.1441,-0.706967 -0.20727,-0.846667 -0.13076,-0.289151 -0.62605,-2.332467 -0.84143,-3.471333 -0.0793,-0.4191 -0.19613,-0.8763 -0.25969,-1.016 -0.14605,-0.32096 -0.969309,-3.610482 -0.96864,-3.870406 0,-0.106476 -0.217195,-1.07895 -0.483277,-2.161052 -0.467978,-1.90324 -0.478545,-1.971277 -0.323757,-2.084462 0.155025,-0.113359 0.151435,-0.139729 -0.115248,-0.84632 -0.151393,-0.401122 -0.251325,-0.76804 -0.222073,-0.81537 0.03027,-0.04898 0.416594,-0.08606 0.896671,-0.08606 0.7937,0 0.848374,0.01124 0.926444,0.1905 0.0456,0.104775 1.34105,5.2959 2.87872,11.535834 1.53768,6.239933 2.83466,11.465141 2.88218,11.611572 0.0519,0.15992 0.16104,0.286247 0.27329,0.316343 0.10278,0.02756 1.05293,0.05063 2.11143,0.05126 l 1.92456,0.0012 0.0417,0.1905 c 0.049,0.223544 0.2687,2.621684 0.34912,3.81 l 0.0559,0.825497 h -2.80079 -2.80081 l -0.0836,-0.3175 z m 7.95049,-0.488293 c -0.0463,-0.121675 -0.0849,-0.323521 -0.0859,-0.448548 -10e-4,-0.125026 -0.13502,-1.084572 -0.29789,-2.132322 -0.16286,-1.04775 -0.65774,-4.3434 -1.09972,-7.323666 -0.44198,-2.980267 -0.84132,-5.506157 -0.88742,-5.613089 -0.0461,-0.106931 -0.12003,-0.602231 -0.16429,-1.100667 -0.10484,-1.180704 -0.32349,-2.616738 -0.4282,-2.812402 -0.0455,-0.08502 -0.10149,-0.491251 -0.12443,-0.902737 -0.0229,-0.411487 -0.0791,-0.919371 -0.12474,-1.128631 -0.0457,-0.209261 -0.14195,-0.663491 -0.21394,-1.009398 -0.072,-0.345908 -0.14813,-0.646152 -0.16918,-0.667206 -0.0211,-0.02106 -0.47782,-0.05768 -1.01502,-0.08139 -1.1362,-0.05014 -1.13265,-0.04598 -0.71488,-0.836387 0.31113,-0.588641 1.03265,-2.370616 1.17716,-2.90728 0.0562,-0.208623 0.19417,-0.560928 0.30665,-0.7829 l 0.20452,-0.403584 h 0.50496 c 0.45377,0 0.50955,0.01931 0.55035,0.1905 0.0456,0.191273 1.71201,11.309133 2.83316,18.901833 0.33005,2.2352 0.63188,4.12115 0.67073,4.191 0.0602,0.10828 0.54978,0.13324 3.32112,0.169334 l 3.25049,0.04233 0.0225,2.38989 0.0225,2.389891 -0.19182,0.0478 c -0.1055,0.02629 -1.06811,0.02991 -2.13915,0.0081 -2.42801,-0.04956 -2.12154,-0.04951 -3.74706,-5.93e-4 l -1.37638,0.04145 -0.0841,-0.221244 z M 56.419139,88.263574 C 53.758,85.090858 51.598305,82.477398 51.619816,82.455888 c 0.02151,-0.02151 1.499177,0.985662 3.283702,2.238163 1.784525,1.2525 4.682509,3.284933 6.439964,4.516519 1.757455,1.231586 3.19573,2.262742 3.196167,2.291459 8.46e-4,0.05369 -3.173632,2.530122 -3.243273,2.530122 -0.02134,0 -2.216099,-2.595859 -4.877237,-5.768577 z m 94.248471,-1.824241 c -0.617,-0.260296 -1.12183,-0.502296 -1.12183,-0.537778 0,-0.08171 7.3621,-8.156313 7.47674,-8.200346 0.0467,-0.01793 -0.35408,0.820266 -0.89063,1.862667 -0.53654,1.042401 -1.49541,2.904925 -2.13082,4.138941 -0.83845,1.628327 -1.27304,2.377184 -1.58464,2.7305 -0.23614,0.267759 -0.47381,0.485134 -0.52816,0.483058 -0.0544,-0.0021 -0.60365,-0.216746 -1.22066,-0.477042 z m -33.22443,-4.40533 -0.39492,-0.03321 -0.0472,-0.694156 c -0.0259,-0.381786 -0.07,-1.465682 -0.0979,-2.408657 l -0.0508,-1.7145 h 0.92975 0.92975 l 0.0428,0.6985 c 0.0235,0.384175 0.0365,1.47955 0.0288,2.434167 l -0.014,1.735666 -0.46567,0.0077 c -0.25612,0.0042 -0.64338,-0.0072 -0.86059,-0.02551 z m 10.85126,-0.09602 c 0,-0.196209 0.27684,-1.240297 0.35033,-1.321268 0.10777,-0.118733 0.0915,0.05479 -0.0657,0.698033 -0.12941,0.529832 -0.28468,0.869759 -0.28468,0.623235 z m 43.81016,-1.741912 c -0.0903,-0.06604 -0.14523,-0.133474 -0.12202,-0.149847 0.6853,-0.483419 1.34992,-0.86358 1.40809,-0.805416 0.0546,0.05458 -0.92737,1.075341 -1.03446,1.075341 -0.0481,0 -0.16129,-0.05404 -0.25161,-0.120078 z m -43.04816,-1.349106 c 0,-0.238995 0.28349,-1.240148 0.35116,-1.240148 0.046,0 0.0637,0.06668 0.0394,0.148167 -0.0243,0.08149 -0.0892,0.338667 -0.14421,0.5715 -0.0869,0.367944 -0.24632,0.704755 -0.24632,0.520481 z m 0.64146,-2.734647 c 0.0785,-0.429517 0.1978,-0.742464 0.25946,-0.680814 0.0272,0.02723 0.003,0.24218 -0.0532,0.477671 -0.12345,0.51457 -0.2939,0.682458 -0.20625,0.203143 z M 79.893389,76.06165 c -0.545897,-0.609664 -2.823879,-3.633084 -2.784873,-3.696186 0.06217,-0.100606 1.29302,-0.371623 1.396712,-0.307539 0.04471,0.02764 0.359452,0.496463 0.699423,1.041841 0.33997,0.545377 0.71937,1.107302 0.843102,1.248722 0.188646,0.2156 0.918024,1.494108 0.918024,1.609177 0,0.07931 -0.511988,0.294485 -0.700702,0.294485 -0.110617,0 -0.277876,-0.08572 -0.371686,-0.1905 z m 73.906891,-1.050906 c -0.22013,-0.08882 -0.0883,-0.274146 0.43989,-0.618262 0.30016,-0.195557 0.59058,-0.409582 0.64538,-0.475612 0.18398,-0.221685 0.26173,-0.12274 0.0886,0.11278 -0.2745,0.373467 -0.91617,1.037767 -0.99539,1.030483 -0.04,-0.0037 -0.1203,-0.0259 -0.17851,-0.04939 z M 137.37371,73.20415 c 0.0343,-0.934489 0.0759,-1.170962 0.35559,-2.020832 0.24873,-0.755779 0.38677,-1.038448 0.64271,-1.316121 0.33315,-0.361421 1.60276,-1.319713 1.74846,-1.319713 0.0444,0 0.40206,-0.167549 0.79484,-0.372331 0.89663,-0.467477 1.96764,-0.845386 2.78345,-0.982143 0.66961,-0.11225 1.56181,-0.06398 1.75319,0.09485 0.15545,0.129012 0.1491,1.058505 -0.0131,1.913403 -0.13276,0.699823 -0.52159,1.935169 -0.74079,2.353527 l -0.12678,0.241968 -0.13021,-0.248804 c -0.31357,-0.599182 -1.02936,-1.053137 -1.66057,-1.053137 -0.43162,0 -1.58692,0.275467 -1.96184,0.467777 -0.82243,0.421848 -1.83746,1.26237 -2.24686,1.860556 -0.15935,0.232834 -0.50285,0.651934 -0.76335,0.931334 l -0.47361,0.508 z M 96.369895,72.981077 c -0.392379,-1.022273 -1.514737,-4.491353 -1.481294,-4.578507 0.02636,-0.06868 0.197129,-0.109086 0.461027,-0.109086 h 0.419168 l 0.739411,1.883833 c 0.406687,1.036108 0.84869,2.090694 0.982243,2.343522 0.165574,0.313464 0.215257,0.487251 0.156168,0.546335 -0.04765,0.04766 -0.33346,0.102364 -0.635127,0.121572 -0.53843,0.03428 -0.55019,0.03048 -0.641596,-0.207669 z m 34.156195,-0.288316 c 0.11473,-0.573648 0.24779,-0.967143 0.28841,-0.852925 0.058,0.163004 -0.14056,1.010199 -0.25302,1.079702 -0.0633,0.03914 -0.0744,-0.03175 -0.0354,-0.226777 z m 84.61634,-1.291085 c -0.26713,-0.149522 -0.4862,-0.320921 -0.48683,-0.380886 -8.5e-4,-0.05996 0.2846,-0.512411 0.63385,-1.005436 0.34925,-0.493026 0.635,-0.934182 0.635,-0.980349 0,-0.04617 -0.0762,-0.06401 -0.16933,-0.03966 -0.0931,0.02435 -0.16934,0.03343 -0.16934,0.02017 0,-0.06132 0.94041,-0.741182 0.976,-0.705594 0.0222,0.0222 -0.20737,0.384312 -0.51015,0.8047 -0.30279,0.420388 -0.55051,0.827059 -0.55051,0.903716 0,0.07666 0.1905,0.25659 0.42333,0.399853 0.23283,0.143264 0.42333,0.276848 0.42333,0.296854 0,0.07448 -0.61862,0.964974 -0.66815,0.961793 -0.0283,-0.0018 -0.27007,-0.125643 -0.5372,-0.275166 z m -84.2823,-0.114694 c 0.0235,-0.08644 0.30292,-1.21444 0.62084,-2.506665 l 0.57803,-2.3495 h 1.71106 c 1.8515,0 1.7801,0.01841 1.93272,-0.498332 0.0466,-0.157665 0.12277,-0.279759 0.16933,-0.271319 0.10821,0.01961 0.0639,0.316664 -0.0958,0.642651 -0.0684,0.1397 -0.31402,1.009074 -0.5457,1.931943 -0.35878,1.429115 -0.47877,1.776964 -0.80923,2.345694 -0.37754,0.649757 -0.39837,0.669308 -0.77317,0.725514 -0.21186,0.03177 -0.86851,0.03816 -1.45923,0.0142 -0.63406,-0.02572 -1.13498,-0.0095 -1.22282,0.03971 -0.12217,0.06837 -0.14114,0.05515 -0.10599,-0.07389 z m -14.22403,-0.25687 c -0.34653,-0.03569 -0.35642,-0.04539 -0.39887,-0.391777 -0.0239,-0.195352 -0.0647,-0.945735 -0.0905,-1.667518 -0.0258,-0.721783 -0.0703,-1.645708 -0.0989,-2.053167 l -0.052,-0.740833 h 2.67793 2.67792 l -0.004,0.1905 c -0.0105,0.535815 -0.30915,4.552904 -0.34063,4.58211 -0.0548,0.05088 -3.96066,0.122972 -4.37131,0.08069 z m 6.30318,-0.09591 c -0.17463,-0.01445 -0.3175,-0.06738 -0.3175,-0.11762 0,-0.05024 0.67189,-1.133788 1.49309,-2.407889 l 1.49308,-2.316547 h 1.21625 c 1.05414,0 1.21624,0.0179 1.21624,0.134326 0,0.214189 -1.26351,4.539513 -1.36007,4.655855 -0.0649,0.0782 -0.51561,0.101739 -1.75546,0.09168 -0.91747,-0.0074 -1.81101,-0.02535 -1.98563,-0.03981 z m 88.81075,-1.199525 c -0.21867,-0.138673 -0.39573,-0.281548 -0.39346,-0.3175 0.002,-0.03595 0.14515,-0.261615 0.3175,-0.501479 0.17236,-0.239862 0.70917,-1.001862 1.19291,-1.693333 1.02456,-1.464509 0.92852,-1.34006 0.98816,-1.280417 0.026,0.02605 -0.32018,0.552301 -0.76939,1.169452 -0.44921,0.617151 -0.83565,1.171344 -0.85875,1.231539 -0.0231,0.06019 0.0425,0.178467 0.14573,0.262827 0.10325,0.08436 0.27896,0.22958 0.39047,0.322714 l 0.20274,0.169333 -0.301,0.4445 c -0.16555,0.244475 -0.34967,0.4445 -0.40917,0.4445 -0.0595,0 -0.28707,-0.113461 -0.50574,-0.252136 z m 2.21844,-0.027 c -0.27091,-0.183126 -0.28609,-0.218937 -0.2603,-0.613834 0.0217,-0.332354 0.10954,-0.542325 0.42334,-1.012028 l 0.39594,-0.592667 0.0423,0.58365 0.0423,0.583651 0.45579,0.232659 0.45579,0.232661 -0.53623,0.39019 c -0.29493,0.214604 -0.58013,0.390189 -0.63377,0.390189 -0.0537,0 -0.227,-0.08751 -0.38523,-0.194471 z m -4.72136,-1.289691 c -0.52254,-0.242094 -0.56649,-0.08495 0.46824,-1.674043 0.38817,-0.59613 0.70577,-1.134363 0.70577,-1.196074 0,-0.06171 -0.1905,-0.194153 -0.42334,-0.294314 -0.25639,-0.110295 -0.42333,-0.235676 -0.42333,-0.317933 0,-0.226634 0.34249,-0.70614 0.50437,-0.70614 0.27232,0 1.1043,0.415164 1.1043,0.551055 0,0.07142 -0.32385,0.601233 -0.71967,1.177359 -0.39582,0.576126 -0.71967,1.104957 -0.71967,1.175181 0,0.07022 0.13335,0.206357 0.29634,0.30252 0.16298,0.09616 0.29633,0.216886 0.29633,0.268274 0,0.100815 -0.46618,0.807765 -0.57838,0.877113 -0.0375,0.02318 -0.26743,-0.05017 -0.51096,-0.162998 z m 3.01551,-2.205133 c -0.12806,-0.06936 -0.23284,-0.173201 -0.23284,-0.230754 0,-0.112434 0.40074,-0.736617 0.47293,-0.736617 0.13861,0 0.54307,0.276045 0.54307,0.370653 0,0.139665 -0.35079,0.666026 -0.46566,0.698728 -0.0466,0.01326 -0.18945,-0.03265 -0.3175,-0.10201 z"
         id="path93"
         inkscape:connector-curvature="0" />
    </g>
    <path
       d="m 3.3479674,296.97912 c 0.41209,0 0.81287,-0.0909 1.20234,-0.27264 0.38947,-0.18177 0.70985,-0.42585 0.96112,-0.73226 v 0 l -0.71613,-0.73226 c -0.18594,0.22329 -0.39952,0.39469 -0.64074,0.51414 -0.24122,0.11945 -0.50003,0.17916 -0.77643,0.17916 -0.24625,0 -0.47366,-0.0454 -0.68221,-0.13634 -0.20856,-0.0909 -0.38947,-0.21423 -0.54275,-0.37002 -0.15328,-0.1558 -0.27389,-0.34148 -0.36184,-0.55699 -0.0879,-0.21553 -0.13192,-0.44792 -0.13192,-0.6972 0,-0.25449 0.0427,-0.48947 0.12816,-0.70499 0.0854,-0.21554 0.20353,-0.40248 0.35429,-0.56088 0.15076,-0.1584 0.33043,-0.28304 0.53898,-0.37393 0.20856,-0.0909 0.43094,-0.13633 0.66713,-0.13633 0.28143,0 0.54778,0.0636 0.79905,0.19086 0.25128,0.12725 0.46988,0.31032 0.65582,0.5492 v 0 l 0.73875,-0.75563 c -0.24625,-0.31159 -0.56788,-0.55958 -0.96489,-0.74394 -0.39701,-0.18438 -0.80659,-0.27655 -1.22873,-0.27655 -0.39199,0 -0.7601,0.0727 -1.10434,0.21811 -0.34425,0.14543 -0.642,0.34275 -0.89328,0.59204 -0.25127,0.24927 -0.44977996,0.54659 -0.59551996,0.89195 -0.14574,0.34536 -0.2186,0.71538 -0.2186,1.11007 0,0.39469 0.0716,0.76342 0.21483,1.10618 0.14323,0.34275 0.34047996,0.63878 0.59174996,0.88806 0.25127,0.24927 0.54903,0.44662 0.89328,0.59203 0.34424,0.1454 0.71487,0.21812 1.11188,0.21812 z m 14.2848796,0.008 c 0.39199,0 0.75885,-0.0727 1.10058,-0.21811 0.34174,-0.1454 0.63698,-0.34406 0.88574,-0.59593 0.24876,-0.25188 0.44601,-0.5505 0.59175,-0.89585 0.14574,-0.34536 0.2186,-0.71279 0.2186,-1.10228 0,-0.3895 -0.0729,-0.75693 -0.2186,-1.10229 -0.14574,-0.34534 -0.34299,-0.64395 -0.59175,-0.89583 -0.24876,-0.25188 -0.544,-0.45052 -0.88574,-0.59593 -0.34173,-0.14543 -0.70859,-0.21811 -1.10058,-0.21811 -0.38696,0 -0.7513,0.0727 -1.09304,0.21811 -0.34173,0.1454 -0.63697,0.34406 -0.88573,0.59593 -0.24876,0.25188 -0.44601,0.55049 -0.59175,0.89585 -0.14574,0.34535 -0.21861,0.71278 -0.21861,1.10228 0,0.3895 0.0729,0.75693 0.21861,1.10228 0.14574,0.34536 0.34299,0.64397 0.59175,0.89585 0.24876,0.25188 0.544,0.45052 0.88573,0.59593 0.34174,0.14544 0.70608,0.21812 1.09304,0.21812 z m 0,-1.03606 c -0.23619,0 -0.45606,-0.0454 -0.65959,-0.13634 -0.20353,-0.0909 -0.37942,-0.21551 -0.52767,-0.3739 -0.14825,-0.1584 -0.26509,-0.34666 -0.35053,-0.56477 -0.0854,-0.21812 -0.12815,-0.45182 -0.12815,-0.7011 0,-0.25449 0.0427,-0.48947 0.12815,-0.70499 0.0854,-0.21554 0.20228,-0.40249 0.35053,-0.56089 0.14825,-0.1584 0.32414,-0.28303 0.52767,-0.37391 0.20353,-0.0909 0.42339,-0.13634 0.65959,-0.13634 0.2362,0 0.45733,0.0454 0.66337,0.13634 0.20604,0.0909 0.38319,0.2155 0.53144,0.37391 0.14825,0.15841 0.2651,0.34536 0.35052,0.56089 0.0854,0.2155 0.12816,0.45051 0.12816,0.70499 0,0.24927 -0.0427,0.48297 -0.12816,0.7011 -0.0854,0.21811 -0.20228,0.40637 -0.35052,0.56477 -0.14825,0.15841 -0.3254,0.28304 -0.53144,0.37392 -0.20604,0.0909 -0.42717,0.13633 -0.66337,0.13633 z m 16.56896,0.95039 v -0.99722 h -2.88713 v -4.45588 h -1.09304 v 5.45298 z m 13.77983,0 v -0.99722 h -2.88714 v -4.45588 h -1.09303 v 5.45298 z m 13.88535,0 v -0.98154 h -2.99266 v -1.29314 h 1.95239 v -0.95049 h -1.95239 v -1.24639 h 2.96251 v -0.98154 h -4.05555 v 5.45298 z m 12.12142,0.0779 c 0.4121,0 0.81287,-0.0909 1.20235,-0.27264 0.38947,-0.18177 0.70984,-0.42586 0.96112,-0.73226 v 0 l -0.71614,-0.73226 c -0.18595,0.22332 -0.39952,0.39469 -0.64074,0.51414 -0.2412,0.11945 -0.50003,0.17916 -0.77643,0.17916 -0.24625,0 -0.47366,-0.0454 -0.68221,-0.13634 -0.20854,-0.0909 -0.38947,-0.21423 -0.54275,-0.37002 -0.15329,-0.1558 -0.27387,-0.34148 -0.36184,-0.55699 -0.088,-0.21553 -0.1319,-0.44792 -0.1319,-0.6972 0,-0.25449 0.0427,-0.48947 0.12816,-0.70499 0.0854,-0.21554 0.20353,-0.40248 0.3543,-0.56088 0.15075,-0.1584 0.33043,-0.28304 0.53898,-0.37392 0.20857,-0.0909 0.43094,-0.13634 0.66713,-0.13634 0.28143,0 0.54778,0.0636 0.79905,0.19087 0.25126,0.12724 0.46988,0.31028 0.65582,0.54919 v 0 l 0.73875,-0.75562 c -0.24629,-0.31159 -0.56791,-0.55959 -0.96491,-0.74395 -0.39702,-0.18438 -0.8066,-0.27655 -1.22874,-0.27655 -0.39198,0 -0.7601,0.0727 -1.10434,0.21811 -0.34425,0.1454 -0.642,0.34275 -0.89328,0.59204 -0.25126,0.24927 -0.44978,0.54659 -0.59551,0.89195 -0.14574,0.34535 -0.2186,0.71538 -0.2186,1.11007 0,0.3947 0.0716,0.76342 0.21485,1.10618 0.14324,0.34275 0.34049,0.63878 0.59175,0.88806 0.25126,0.24927 0.54904,0.44662 0.89328,0.59203 0.34425,0.1454 0.71487,0.21812 1.11188,0.21812 z m 14.45827,-0.0779 v -4.45589 h 1.77147 v -0.99712 h -4.64353 v 0.99712 h 1.77901 v 4.45587 z m 12.520943,0 v -5.4531 h -1.093043 v 5.45298 z m 12.58879,0.0857 c 0.39199,0 0.75885,-0.0727 1.10058,-0.21812 0.34172,-0.14539 0.63697,-0.34405 0.88574,-0.59593 0.24875,-0.25188 0.44601,-0.55049 0.59175,-0.89585 0.14574,-0.34535 0.21859,-0.71278 0.21859,-1.10228 0,-0.3895 -0.0729,-0.75693 -0.21859,-1.10228 -0.14574,-0.34536 -0.34299,-0.64397 -0.59175,-0.89585 -0.24876,-0.25188 -0.54401,-0.45052 -0.88574,-0.59593 -0.34171,-0.14543 -0.70859,-0.21811 -1.10058,-0.21811 -0.38696,0 -0.75131,0.0727 -1.09303,0.21811 -0.34175,0.1454 -0.63698,0.34406 -0.88574,0.59593 -0.24876,0.25188 -0.44601,0.55049 -0.59175,0.89585 -0.14574,0.34535 -0.21863,0.71278 -0.21863,1.10228 0,0.3895 0.0729,0.75693 0.21863,1.10228 0.14574,0.34536 0.34298,0.64397 0.59175,0.89585 0.24875,0.25188 0.544,0.45052 0.88574,0.59593 0.34172,0.14544 0.70607,0.21812 1.09303,0.21812 z m 0,-1.03607 c -0.2362,0 -0.45606,-0.0454 -0.65959,-0.13634 -0.20353,-0.0909 -0.37942,-0.21554 -0.52767,-0.37391 -0.14825,-0.1584 -0.26509,-0.34666 -0.35053,-0.56478 -0.0854,-0.21811 -0.12817,-0.45182 -0.12817,-0.7011 0,-0.25448 0.0427,-0.48947 0.12817,-0.70499 0.0855,-0.21554 0.20229,-0.40248 0.35053,-0.56088 0.14824,-0.1584 0.32414,-0.28303 0.52767,-0.37392 0.20353,-0.0909 0.4234,-0.13633 0.65959,-0.13633 0.23619,0 0.45732,0.0454 0.66336,0.13633 0.20607,0.0909 0.38319,0.21551 0.53144,0.37392 0.14825,0.15841 0.26509,0.34535 0.35053,0.56088 0.0854,0.21554 0.12813,0.45052 0.12813,0.70499 0,0.24928 -0.0427,0.48298 -0.12813,0.7011 -0.0855,0.21811 -0.20229,0.40638 -0.35053,0.56478 -0.14824,0.1584 -0.32538,0.28304 -0.53144,0.37391 -0.20603,0.0909 -0.42716,0.13634 -0.66336,0.13634 z m 13.62152,0.95038 v -3.64571 l 2.69114,3.64571 h 0.96489 v -5.453 h -1.0252 v 3.52886 l -2.62329,-3.52886 h -1.04027 v 5.45298 z"
       id="COLLECTION"
       inkscape:connector-curvature="0"
       style="fill:#ffffff;fill-rule:nonzero;stroke:none;stroke-width:0.46869686" />
  </g>
</svg>
