<?xml version="1.0" encoding="UTF-8" standalone="no"?>
<!-- Created with Inkscape (http://www.inkscape.org/) -->

<svg
   xmlns:dc="http://purl.org/dc/elements/1.1/"
   xmlns:cc="http://creativecommons.org/ns#"
   xmlns:rdf="http://www.w3.org/1999/02/22-rdf-syntax-ns#"
   xmlns:svg="http://www.w3.org/2000/svg"
   xmlns="http://www.w3.org/2000/svg"
   xmlns:sodipodi="http://sodipodi.sourceforge.net/DTD/sodipodi-0.dtd"
   xmlns:inkscape="http://www.inkscape.org/namespaces/inkscape"
   width="500"
   height="200"
   viewBox="0 0 500 200"
   version="1.1"
   id="svg8"
   inkscape:version="0.92.5 (2060ec1f9f, 2020-04-08)"
   sodipodi:docname="c128.svg">
  <defs
     id="defs2" />
  <sodipodi:namedview
     id="base"
     pagecolor="#ffffff"
     bordercolor="#666666"
     borderopacity="1.0"
     inkscape:pageopacity="0.0"
     inkscape:pageshadow="2"
     inkscape:zoom="0.9803087"
     inkscape:cx="215.75491"
     inkscape:cy="210.94541"
     inkscape:document-units="mm"
     inkscape:current-layer="layer1"
     showgrid="false"
     units="px"
     inkscape:pagecheckerboard="true"
     inkscape:window-width="1366"
     inkscape:window-height="743"
     inkscape:window-x="0"
     inkscape:window-y="0"
     inkscape:window-maximized="1" />
  <metadata
     id="metadata5">
    <rdf:RDF>
      <cc:Work
         rdf:about="">
        <dc:format>image/svg+xml</dc:format>
        <dc:type
           rdf:resource="http://purl.org/dc/dcmitype/StillImage" />
        <dc:title />
      </cc:Work>
    </rdf:RDF>
  </metadata>
  <g
     inkscape:label="Layer 1"
     inkscape:groupmode="layer"
     id="layer1"
     transform="translate(-1.1483507,-258.34757)">
    <g
       id="g20"
       style="stroke:#fefefe;stroke-width:0.40000001;stroke-miterlimit:4;stroke-dasharray:none;stroke-opacity:1"
       transform="matrix(3.8642074,0,0,3.8642074,-3.2891145,-676.71562)">
      <path
         style="fill:#fe0a0a;stroke:#fefefe;stroke-width:0.40000001;stroke-miterlimit:4;stroke-dasharray:none;stroke-opacity:1"
         d="m 9.9395019,278.88997 c -1.830549,-0.41875 -2.854809,-0.8305 -4.058818,-1.63162 -0.993397,-0.66098 -2.194545,-1.86131 -2.842476,-2.84054 -3.69203495,-5.57982 -1.070762,-13.2264 5.253989,-15.32652 1.8410991,-0.61133 3.6824761,-0.70756 5.5184731,-0.28837 l 0.796198,0.18177 v 2.40725 c 0,1.32398 -0.03706,2.40662 -0.08236,2.40585 -0.0453,-7.8e-4 -0.467247,-0.12432 -0.937658,-0.27456 -3.6941601,-1.17977 -7.5378721,1.48076 -7.5446621,5.22226 -0.0027,1.49234 0.529385,2.74583 1.633968,3.84925 1.780688,1.77881 4.2280231,2.19429 6.7406651,1.14435 0.183007,-0.0764 0.192598,0.0618 0.164732,2.37486 l -0.02959,2.45608 -0.549102,0.15084 c -0.531823,0.14611 -3.604845,0.27399 -4.0633531,0.1691 z m 19.3283841,-3.88155 c -3.714597,-0.61088 -5.849825,-3.25723 -5.610539,-6.95357 0.209004,-3.22857 2.251059,-5.33699 5.720397,-5.90632 1.444271,-0.23701 4.380652,-0.10761 4.695164,0.2069 0.09109,0.0911 -0.08922,2.15457 -0.204629,2.34168 -0.02519,0.0408 -0.205756,0.0273 -0.401244,-0.0301 -1.949883,-0.57254 -4.268429,-0.20032 -5.32336,0.85462 -0.586244,0.58623 -0.855875,1.16255 -1.026073,2.19314 -0.251202,1.52108 0.366798,3.26713 1.436451,4.05842 1.087065,0.80418 2.756643,1.08918 4.432447,0.75662 0.758753,-0.15058 0.991476,-0.16339 1.056501,-0.0581 0.09783,0.15828 0.261693,2.19638 0.182926,2.27515 -0.248399,0.2484 -3.874838,0.43975 -4.958041,0.26162 z m 9.18149,-0.29117 c -1.322812,-0.35572 -2.449516,-1.23486 -2.931297,-2.2872 -0.811355,-1.77224 -0.547212,-3.78447 0.669261,-5.09841 1.029825,-1.11233 2.490115,-1.62424 4.337133,-1.52039 2.191696,0.12323 3.688369,1.05972 4.363019,2.72998 0.519677,1.28659 0.435921,2.84459 -0.2193,4.07939 -0.543264,1.0238 -1.549669,1.75436 -2.902013,2.10661 -0.792503,0.20642 -2.531547,0.20119 -3.316803,-0.0102 z m 2.6214,-1.99533 c 0.921846,-0.46389 1.393343,-1.89028 1.057791,-3.20006 -0.223076,-0.87075 -0.524906,-1.29914 -1.099038,-1.55989 -0.604544,-0.27454 -1.233422,-0.26152 -1.827085,0.0379 -1.526101,0.76957 -1.49415,4.08647 0.04582,4.7567 0.483616,0.21049 1.368893,0.19369 1.822513,-0.0346 z m 42.558189,2.0148 c -1.365537,-0.33733 -2.560019,-1.23818 -3.069352,-2.31482 -0.825609,-1.74519 -0.458964,-4.06808 0.832827,-5.2764 1.332169,-1.24609 3.752818,-1.70638 5.77178,-1.09752 0.858467,0.25889 1.887642,1.00063 2.365352,1.70474 0.785163,1.15727 0.963092,3.01223 0.423488,4.41496 -0.462317,1.20182 -1.648166,2.16563 -3.143867,2.55521 -0.766418,0.19962 -2.399367,0.20672 -3.180228,0.0138 z m 2.326534,-1.93958 c 1.056282,-0.40021 1.617169,-1.99101 1.203596,-3.41366 -0.221464,-0.76181 -0.532778,-1.16241 -1.105449,-1.4225 -0.817468,-0.37128 -1.597953,-0.24293 -2.230032,0.36673 -0.508582,0.49055 -0.726631,1.23648 -0.666264,2.27926 0.08487,1.46608 0.792551,2.2913 1.974496,2.30246 0.282975,0.003 0.653618,-0.0479 0.823653,-0.11229 z m 7.958328,1.88108 c -1.618795,-0.59999 -2.544114,-2.2032 -2.551394,-4.42052 -0.0048,-1.46477 0.365351,-2.50192 1.226283,-3.43592 0.658891,-0.71482 1.367749,-0.98731 2.571388,-0.98846 1.170766,-0.001 1.623376,0.13856 2.375734,0.73326 0.439159,0.34714 0.581163,0.41059 0.655675,0.29298 0.05231,-0.0826 0.09586,-1.20029 0.09679,-2.48382 l 0.002,-2.33368 h 1.42766 1.427657 v 6.31467 6.31467 h -1.317837 -1.31784 v -0.59753 c 0,-0.32863 -0.0528,-0.63013 -0.11726,-0.67 -0.0645,-0.0398 -0.292421,0.13218 -0.506507,0.38229 -0.60671,0.70879 -1.33321,1.02648 -2.451205,1.07187 -0.729158,0.0296 -1.062032,-0.0102 -1.520828,-0.17981 z m 3.146131,-2.13788 c 0.756401,-0.39356 1.164268,-1.17036 1.158708,-2.20684 -0.005,-0.88219 -0.257905,-1.49767 -0.805663,-1.95858 -0.611951,-0.51493 -1.594421,-0.52788 -2.247653,-0.0297 -1.186931,0.90532 -1.066761,3.36641 0.202156,4.14017 0.409108,0.24948 1.265121,0.27723 1.692452,0.0548 z m 8.929802,2.17713 c -1.41198,-0.37972 -2.5136,-1.25643 -3.06961,-2.44288 -0.26365,-0.5626 -0.29189,-0.74614 -0.29023,-1.88618 0.002,-1.06248 0.0424,-1.36398 0.25682,-1.89954 0.31396,-0.78389 1.16991,-1.69208 1.98313,-2.10417 2.13055,-1.07963 5.28436,-0.65834 6.71846,0.89747 1.29297,1.40271 1.50894,3.88138 0.48117,5.52229 -0.57687,0.92101 -1.77683,1.70795 -2.99507,1.96418 -0.79656,0.16754 -2.36838,0.14147 -3.08467,-0.0512 z m 2.62298,-2.02265 c 0.65578,-0.33455 1.01482,-1.03124 1.07599,-2.08785 0.0643,-1.11078 -0.1605,-1.81788 -0.74616,-2.34699 -0.47924,-0.43296 -0.97688,-0.56685 -1.70243,-0.45806 -0.58861,0.0883 -1.07169,0.46437 -1.4004,1.09028 -0.34381,0.65466 -0.34949,2.23867 -0.0103,2.86896 0.27458,0.51022 0.63806,0.87482 1.02658,1.02974 0.46624,0.18592 1.29253,0.14073 1.75671,-0.0961 z m 15.95336,2.03373 c -2.02125,-0.56826 -3.25448,-1.99345 -3.40097,-3.93036 -0.1523,-2.01387 0.67121,-3.70131 2.1879,-4.48319 0.54368,-0.28028 1.65668,-0.53542 2.34442,-0.53742 1.88722,-0.005 3.22792,0.73124 3.94485,2.16776 0.34901,0.69933 0.6278,1.9678 0.58323,2.65351 l -0.0327,0.5034 -3.01863,0.055 c -3.33868,0.0607 -3.28498,0.0469 -2.91841,0.75568 0.23698,0.45829 0.78706,0.85041 1.41406,1.00801 0.73921,0.18581 2.28508,0.0774 3.04041,-0.21332 0.33221,-0.12782 0.61636,-0.23244 0.63147,-0.23248 0.0151,-3e-5 0.0274,0.43784 0.0274,0.97302 v 0.97309 l -0.63147,0.19063 c -0.88304,0.2666 -3.38913,0.33674 -4.17158,0.11676 z m 2.87221,-5.17555 c 0.23922,-0.0918 0.21774,-0.54178 -0.0525,-1.10009 -0.37556,-0.77581 -1.38025,-1.12337 -2.22592,-0.77003 -0.46788,0.19549 -0.92527,0.74775 -1.01488,1.22536 -0.13164,0.70179 -0.11014,0.71143 1.58767,0.71143 0.84257,0 1.61011,-0.03 1.70566,-0.0666 z m -80.763896,0.78369 v -4.34109 h 1.312603 1.312605 l 0.03269,0.67766 c 0.01845,0.38235 0.08723,0.69565 0.157855,0.71894 0.06884,0.0227 0.2294,-0.12738 0.35681,-0.33353 0.501935,-0.81215 1.821019,-1.34782 3.094618,-1.2567 0.972077,0.0696 1.677779,0.41463 2.114219,1.03381 0.387688,0.55002 0.545955,0.58884 0.802767,0.1969 0.101183,-0.15443 0.389384,-0.42211 0.640454,-0.59485 1.43631,-0.9882 3.871018,-0.82357 4.619171,0.31236 0.518954,0.78793 0.601592,1.44927 0.601592,4.81441 v 3.1068 h -1.419215 -1.419215 l -0.03591,-2.71805 c -0.03104,-2.34926 -0.06229,-2.76634 -0.230376,-3.07393 -0.300605,-0.55011 -0.646206,-0.72428 -1.310533,-0.66045 -0.475026,0.0456 -0.626329,0.11827 -0.924684,0.44383 -0.589327,0.64307 -0.700192,1.24164 -0.700192,3.78041 v 2.23456 l -1.45512,-0.0306 -1.455119,-0.0306 -0.05491,-2.80041 c -0.05971,-3.04527 -0.09404,-3.21187 -0.72054,-3.49733 -0.770303,-0.35097 -1.633102,0.003 -2.044632,0.83833 -0.237506,0.48221 -0.258633,0.686 -0.309798,2.98846 l -0.05491,2.47095 -1.455119,0.0306 -1.45512,0.0306 z m 16.938513,0.0274 0.02873,-4.31364 1.29039,-0.0309 1.290389,-0.0309 v 0.65594 c 0,0.70775 0.158069,0.94432 0.40311,0.60329 0.617441,-0.8593 1.517823,-1.35644 2.616372,-1.44462 1.251759,-0.10048 2.448948,0.39377 2.854787,1.17858 0.216537,0.41874 0.423501,0.41986 0.730977,0.004 1.09998,-1.4878 4.286544,-1.62214 5.214545,-0.21984 0.519187,0.78454 0.587196,1.33317 0.588606,4.74812 l 0.0013,3.15733 h -1.427664 -1.427665 l -6.59e-4,-2.49841 c -6.59e-4,-2.74107 -0.06923,-3.18916 -0.563599,-3.68353 -0.298885,-0.29888 -0.371481,-0.31991 -0.941214,-0.27267 -0.536161,0.0445 -0.664596,0.10275 -0.976623,0.44323 -0.592004,0.64604 -0.702695,1.24195 -0.702695,3.78319 v 2.23457 l -1.45512,-0.0306 -1.45512,-0.0306 -0.05491,-2.80042 c -0.04923,-2.51099 -0.07638,-2.8321 -0.262649,-3.10689 -0.273985,-0.40419 -0.506104,-0.51718 -1.062468,-0.51718 -0.630492,0 -1.129408,0.33435 -1.440055,0.96507 -0.237506,0.48221 -0.258633,0.686 -0.309798,2.98846 l -0.05491,2.47096 -1.456397,0.0307 -1.456398,0.0306 z m 50.601013,-0.0342 v -4.34139 l 1.29039,0.0309 1.29039,0.0309 0.0328,0.69371 c 0.0182,0.3842 0.0803,0.67792 0.13918,0.65829 0.0584,-0.0194 0.29074,-0.27806 0.5162,-0.57461 0.57474,-0.75594 1.08548,-0.99704 2.11215,-0.99704 h 0.82365 l 0.0354,0.60401 c 0.0194,0.33221 0.003,0.86347 -0.0354,1.18057 l -0.0707,0.57656 h -0.76522 c -1.1465,0 -1.8337,0.4182 -2.25821,1.37425 -0.1611,0.36283 -0.20123,0.83738 -0.23431,2.77146 l -0.0399,2.33369 h -1.41822 -1.41823 z m -99.33912,2.2223 c -0.03003,-0.0783 -0.04084,-0.85663 -0.02401,-1.72967 l 0.03061,-1.58735 2.102971,-0.0298 2.102971,-0.0298 1.576011,1.65634 c 0.866807,0.91098 1.592485,1.70273 1.612618,1.75945 0.02235,0.0629 -1.400989,0.10313 -3.654973,0.10313 -2.921817,0 -3.70297,-0.0297 -3.746196,-0.14233 z m 0.0861,-5.92525 0.03032,-1.67476 3.50719,-0.0291 c 1.928955,-0.016 3.544162,0.009 3.589349,0.0549 0.04519,0.0462 -0.618793,0.81486 -1.475514,1.70822 l -1.557672,1.62429 -2.061992,-0.004 -2.061992,-0.004 z"
         id="path509"
         inkscape:connector-curvature="0" />
      <path
         style="fill:#0000ff;stroke:#fefefe;stroke-width:0.40000001;stroke-miterlimit:4;stroke-dasharray:none;stroke-opacity:1"
         d="m 9.9395079,278.88997 c -1.8305487,-0.41875 -2.8548091,-0.8305 -4.0588178,-1.63162 -0.9933977,-0.66098 -2.1945454,-1.86131 -2.8424769,-2.84054 -3.69203425,-5.57982 -1.0707618,-13.2264 5.2539887,-15.32652 1.8411001,-0.61133 3.6824771,-0.70756 5.5184741,-0.28837 l 0.796198,0.18177 v 2.40725 c 0,1.32398 -0.03706,2.40662 -0.08236,2.40585 -0.0453,-7.8e-4 -0.467247,-0.12432 -0.937658,-0.27456 -3.6941601,-1.17977 -7.5378724,1.48076 -7.5446626,5.22226 -0.00271,1.49234 0.5293857,2.74583 1.6339688,3.84925 1.7806867,1.77881 4.2280228,2.19429 6.7406648,1.14435 0.183007,-0.0764 0.192598,0.0618 0.164732,2.37486 l -0.02959,2.45608 -0.549102,0.15084 c -0.531823,0.14611 -3.604845,0.27399 -4.0633531,0.1691 z m 19.3283841,-3.88155 c -3.714597,-0.61088 -5.849825,-3.25723 -5.610539,-6.95357 0.209004,-3.22857 2.251059,-5.33699 5.720397,-5.90632 1.444271,-0.23701 4.380652,-0.10761 4.695164,0.2069 0.09109,0.0911 -0.08922,2.15457 -0.204629,2.34168 -0.02519,0.0408 -0.205756,0.0273 -0.401244,-0.0301 -1.949883,-0.57254 -4.268429,-0.20032 -5.32336,0.85462 -0.586244,0.58623 -0.855875,1.16255 -1.026073,2.19314 -0.251202,1.52108 0.366798,3.26713 1.436451,4.05842 1.087065,0.80418 2.756643,1.08918 4.432447,0.75662 0.758753,-0.15058 0.991476,-0.16339 1.056501,-0.0581 0.09783,0.15828 0.261693,2.19638 0.182926,2.27515 -0.248399,0.2484 -3.874838,0.43975 -4.958041,0.26162 z m 9.18149,-0.29117 c -1.322812,-0.35572 -2.449516,-1.23486 -2.931297,-2.2872 -0.811355,-1.77224 -0.547212,-3.78447 0.669261,-5.09841 1.029825,-1.11233 2.490115,-1.62424 4.337133,-1.52039 2.191696,0.12323 3.688369,1.05972 4.363019,2.72998 0.519677,1.28659 0.435921,2.84459 -0.2193,4.07939 -0.543264,1.0238 -1.549669,1.75436 -2.902013,2.10661 -0.792503,0.20642 -2.531547,0.20119 -3.316803,-0.0102 z m 2.6214,-1.99533 c 0.921846,-0.46389 1.393343,-1.89028 1.057791,-3.20006 -0.223076,-0.87075 -0.524906,-1.29914 -1.099038,-1.55989 -0.604544,-0.27454 -1.233422,-0.26152 -1.827085,0.0379 -1.526101,0.76957 -1.49415,4.08647 0.04582,4.7567 0.483616,0.21049 1.368893,0.19369 1.822513,-0.0346 z m 42.558189,2.0148 c -1.365537,-0.33733 -2.560019,-1.23818 -3.069352,-2.31482 -0.825609,-1.74519 -0.458964,-4.06808 0.832827,-5.2764 1.332169,-1.24609 3.752818,-1.70638 5.77178,-1.09752 0.858467,0.25889 1.887642,1.00063 2.365352,1.70474 0.785163,1.15727 0.963092,3.01223 0.423488,4.41496 -0.462317,1.20182 -1.648166,2.16563 -3.143867,2.55521 -0.766418,0.19962 -2.399367,0.20672 -3.180228,0.0138 z m 2.326534,-1.93958 c 1.056282,-0.40021 1.617169,-1.99101 1.203596,-3.41366 -0.221464,-0.76181 -0.532778,-1.16241 -1.105449,-1.4225 -0.817468,-0.37128 -1.597953,-0.24293 -2.230032,0.36673 -0.508582,0.49055 -0.726631,1.23648 -0.666264,2.27926 0.08487,1.46608 0.792551,2.2913 1.974496,2.30246 0.282975,0.003 0.653618,-0.0479 0.823653,-0.11229 z m 7.958328,1.88108 c -1.618795,-0.59999 -2.544114,-2.2032 -2.551394,-4.42052 -0.0048,-1.46477 0.365351,-2.50192 1.226283,-3.43592 0.658891,-0.71482 1.367749,-0.98731 2.571388,-0.98846 1.170766,-0.001 1.623376,0.13856 2.375734,0.73326 0.439159,0.34714 0.581163,0.41059 0.655675,0.29298 0.05231,-0.0826 0.09586,-1.20029 0.09679,-2.48382 l 0.002,-2.33368 h 1.42767 1.427661 v 6.31467 6.31467 h -1.317841 -1.31785 v -0.59753 c 0,-0.32863 -0.0528,-0.63013 -0.11725,-0.67 -0.0645,-0.0398 -0.292425,0.13218 -0.506511,0.38229 -0.60671,0.70879 -1.33321,1.02648 -2.451205,1.07187 -0.729158,0.0296 -1.062032,-0.0102 -1.520828,-0.17981 z m 3.146131,-2.13788 c 0.756401,-0.39356 1.164272,-1.17036 1.158712,-2.20684 -0.005,-0.88219 -0.257909,-1.49767 -0.805667,-1.95858 -0.611951,-0.51493 -1.594421,-0.52788 -2.247653,-0.0297 -1.186931,0.90532 -1.066761,3.36641 0.202156,4.14017 0.409108,0.24948 1.265121,0.27723 1.692452,0.0548 z m 8.929806,2.17713 c -1.41198,-0.37972 -2.5136,-1.25643 -3.06961,-2.44288 -0.26365,-0.5626 -0.29189,-0.74614 -0.29023,-1.88618 0.002,-1.06248 0.0424,-1.36398 0.25682,-1.89954 0.31396,-0.78389 1.16991,-1.69208 1.98313,-2.10417 2.13054,-1.07963 5.28436,-0.65834 6.71846,0.89747 1.29297,1.40271 1.50894,3.88138 0.48117,5.52229 -0.57687,0.92101 -1.77683,1.70795 -2.99507,1.96418 -0.79657,0.16754 -2.36838,0.14147 -3.08467,-0.0512 z m 2.62298,-2.02265 c 0.65578,-0.33455 1.01482,-1.03124 1.07599,-2.08785 0.0643,-1.11078 -0.1605,-1.81788 -0.74616,-2.34699 -0.47925,-0.43296 -0.97689,-0.56685 -1.70244,-0.45806 -0.5886,0.0883 -1.07168,0.46437 -1.40039,1.09028 -0.34381,0.65466 -0.34949,2.23867 -0.0103,2.86896 0.27458,0.51022 0.63806,0.87482 1.02658,1.02974 0.46623,0.18592 1.29252,0.14073 1.75671,-0.0961 z m 15.95336,2.03373 c -2.02125,-0.56826 -3.25448,-1.99345 -3.40097,-3.93036 -0.1523,-2.01387 0.67121,-3.70131 2.1879,-4.48319 0.54368,-0.28028 1.65668,-0.53542 2.34442,-0.53742 1.88722,-0.005 3.22792,0.73124 3.94485,2.16776 0.34901,0.69933 0.6278,1.9678 0.58323,2.65351 l -0.0327,0.5034 -3.01863,0.055 c -3.33868,0.0607 -3.28498,0.0469 -2.91841,0.75568 0.23698,0.45829 0.78706,0.85041 1.41406,1.00801 0.73921,0.18581 2.28508,0.0774 3.04041,-0.21332 0.33221,-0.12782 0.61636,-0.23244 0.63147,-0.23248 0.0151,-3e-5 0.0274,0.43784 0.0274,0.97302 v 0.97309 l -0.63147,0.19063 c -0.88304,0.2666 -3.38913,0.33674 -4.17158,0.11676 z m 2.87221,-5.17555 c 0.23922,-0.0918 0.21774,-0.54178 -0.0525,-1.10009 -0.37556,-0.77581 -1.38025,-1.12337 -2.22592,-0.77003 -0.46788,0.19549 -0.92527,0.74775 -1.01488,1.22536 -0.13164,0.70179 -0.11014,0.71143 1.58767,0.71143 0.84257,0 1.61011,-0.03 1.70566,-0.0666 z m -80.7639,0.78369 v -4.34109 h 1.312603 1.312605 l 0.03269,0.67766 c 0.01845,0.38235 0.08723,0.69565 0.157855,0.71894 0.06884,0.0227 0.2294,-0.12738 0.35681,-0.33353 0.501935,-0.81215 1.821019,-1.34782 3.094618,-1.2567 0.972077,0.0696 1.677779,0.41463 2.114219,1.03381 0.387688,0.55002 0.545955,0.58884 0.802767,0.1969 0.101183,-0.15443 0.389384,-0.42211 0.640454,-0.59485 1.43631,-0.9882 3.871018,-0.82357 4.619171,0.31236 0.518954,0.78793 0.601592,1.44927 0.601592,4.81441 v 3.1068 h -1.419215 -1.419215 l -0.03591,-2.71805 c -0.03104,-2.34926 -0.06229,-2.76634 -0.230376,-3.07393 -0.300605,-0.55011 -0.646206,-0.72428 -1.310533,-0.66045 -0.475026,0.0456 -0.626329,0.11827 -0.924684,0.44383 -0.589327,0.64307 -0.700192,1.24164 -0.700192,3.78041 v 2.23456 l -1.45512,-0.0306 -1.455119,-0.0306 -0.05491,-2.80041 c -0.05971,-3.04527 -0.09404,-3.21187 -0.72054,-3.49733 -0.770303,-0.35097 -1.633102,0.003 -2.044632,0.83833 -0.237506,0.48221 -0.258633,0.686 -0.309798,2.98846 l -0.05491,2.47095 -1.455119,0.0306 -1.45512,0.0306 z m 16.938513,0.0274 0.02873,-4.31364 1.29039,-0.0309 1.290389,-0.0309 v 0.65594 c 0,0.70775 0.158069,0.94432 0.40311,0.60329 0.617441,-0.8593 1.517823,-1.35644 2.616372,-1.44462 1.251759,-0.10048 2.448948,0.39377 2.854787,1.17858 0.216537,0.41874 0.423501,0.41986 0.730977,0.004 1.09998,-1.4878 4.286544,-1.62214 5.214545,-0.21984 0.519187,0.78454 0.587196,1.33317 0.588606,4.74812 l 0.0013,3.15733 H 77.204475 75.77681 l -6.59e-4,-2.49841 c -6.59e-4,-2.74107 -0.06923,-3.18916 -0.563599,-3.68353 -0.298885,-0.29888 -0.371481,-0.31991 -0.941214,-0.27267 -0.536161,0.0445 -0.664596,0.10275 -0.976623,0.44323 -0.592004,0.64604 -0.702695,1.24195 -0.702695,3.78319 v 2.23457 l -1.45512,-0.0306 -1.45512,-0.0306 -0.05491,-2.80042 c -0.04923,-2.51099 -0.07638,-2.8321 -0.262649,-3.10689 -0.273985,-0.40419 -0.506104,-0.51718 -1.062468,-0.51718 -0.630492,0 -1.129408,0.33435 -1.440055,0.96507 -0.237506,0.48221 -0.258633,0.686 -0.309798,2.98846 l -0.05491,2.47096 -1.456397,0.0307 -1.456398,0.0306 z m 50.601017,-0.0342 v -4.34139 l 1.29039,0.0309 1.29039,0.0309 0.0328,0.69371 c 0.0182,0.3842 0.0803,0.67792 0.13918,0.65829 0.0584,-0.0194 0.29074,-0.27806 0.5162,-0.57461 0.57474,-0.75594 1.08548,-0.99704 2.11215,-0.99704 h 0.82365 l 0.0354,0.60401 c 0.0194,0.33221 0.003,0.86347 -0.0354,1.18057 l -0.0707,0.57656 h -0.76522 c -1.1465,0 -1.8337,0.4182 -2.25821,1.37425 -0.1611,0.36283 -0.20123,0.83738 -0.23431,2.77146 l -0.0399,2.33369 h -1.41822 -1.41823 z m -99.253021,-3.70295 0.03032,-1.67476 3.50719,-0.0291 c 1.928955,-0.016 3.544162,0.009 3.589349,0.0549 0.04519,0.0462 -0.618793,0.81486 -1.475514,1.70822 l -1.557672,1.62429 -2.061992,-0.004 -2.061992,-0.004 z"
         id="path507"
         inkscape:connector-curvature="0" />
    </g>
  </g>
</svg>
