<?xml version="1.0" encoding="UTF-8" standalone="no"?>
<svg
   xmlns:dc="http://purl.org/dc/elements/1.1/"
   xmlns:cc="http://creativecommons.org/ns#"
   xmlns:rdf="http://www.w3.org/1999/02/22-rdf-syntax-ns#"
   xmlns:svg="http://www.w3.org/2000/svg"
   xmlns="http://www.w3.org/2000/svg"
   xmlns:sodipodi="http://sodipodi.sourceforge.net/DTD/sodipodi-0.dtd"
   xmlns:inkscape="http://www.inkscape.org/namespaces/inkscape"
   width="500"
   height="200"
   viewBox="0 0 500 200"
   version="1.1"
   id="svg14"
   sodipodi:docname="c64.svg"
   style="fill:none"
   inkscape:version="0.92.5 (2060ec1f9f, 2020-04-08)">
  <metadata
     id="metadata20">
    <rdf:RDF>
      <cc:Work
         rdf:about="">
        <dc:format>image/svg+xml</dc:format>
        <dc:type
           rdf:resource="http://purl.org/dc/dcmitype/StillImage" />
        <dc:title />
      </cc:Work>
    </rdf:RDF>
  </metadata>
  <defs
     id="defs18" />
  <sodipodi:namedview
     pagecolor="#ffffff"
     bordercolor="#666666"
     borderopacity="1"
     objecttolerance="10"
     gridtolerance="10"
     guidetolerance="10"
     inkscape:pageopacity="0"
     inkscape:pageshadow="2"
     inkscape:window-width="1366"
     inkscape:window-height="743"
     id="namedview16"
     showgrid="false"
     inkscape:pagecheckerboard="true"
     inkscape:zoom="1.7047612"
     inkscape:cx="292.73489"
     inkscape:cy="141.90302"
     inkscape:window-x="0"
     inkscape:window-y="0"
     inkscape:window-maximized="1"
     inkscape:current-layer="svg14"
     showguides="true"
     inkscape:guide-bbox="true" />
  <g
     id="g27"
     transform="matrix(4.6183066,0,0,3.9115557,-747.28954,-241.73345)">
    <path
       style="fill:#e2001a"
       inkscape:connector-curvature="0"
       id="path2"
       d="m 223.033,72.051025 h 44.969 v 3.069005 h -44.969 z" />
    <path
       style="fill:#e95e38"
       inkscape:connector-curvature="0"
       id="path4"
       d="m 223.033,78.18896 h 44.969 v 3.06901 h -44.969 z" />
    <path
       style="fill:#ffcc00"
       inkscape:connector-curvature="0"
       id="path6"
       d="m 223.033,84.3259 h 44.969 v 3.07 h -44.969 z" />
    <path
       style="fill:#57ab27"
       inkscape:connector-curvature="0"
       id="path8"
       d="m 223.033,90.4641 h 44.969 v 3.068 h -44.969 z" />
    <path
       style="fill:#009ee0"
       inkscape:connector-curvature="0"
       id="path10"
       d="m 223.033,96.603 h 44.969 v 3.068 h -44.969 z" />
  </g>
  <path
     d="m 357.17073,78.707331 h -7.30718 v 25.761479 h 7.62448 V 91.0032 c 0,-3.51149 1.74886,-5.270629 4.92741,-5.270629 3.17487,0 3.97182,1.172009 4.12863,4.486269 h 7.15036 c 0,-8.782109 -0.95375,-12.100869 -8.57822,-12.100869 -4.60827,0 -6.19662,1.17197 -7.94362,5.46555 z M 57.358811,94.18371 H 45.089174 v 12.36614 H 67.143528 Z M 67.141684,79.280911 H 45.08733 V 91.64474 H 57.218608 Z M 392.27506,99.39767 c -7.30347,0 -8.41772,-0.7821 -8.41772,-5.27289 h 20.01955 c -0.3173,-12.486249 -0.3173,-15.417449 -13.82109,-15.417449 -11.44133,0 -13.98344,2.53673 -13.98344,13.662829 0,10.34631 3.33905,12.88301 12.55374,13.08023 10.32707,0 15.25264,-0.58714 15.25264,-8.97933 h -7.46952 c -0.31915,1.94956 -0.9519,2.92661 -4.13416,2.92661 z m -8.57453,-10.73394 c 0.3173,-2.733939 0.9519,-3.710989 6.03427,-3.710989 5.56386,0 6.35527,0.39218 6.67257,3.710989 z M 99.6541,89.63851 h 7.62448 c -0.63461,-8.786599 -2.70076,-10.931179 -13.341455,-10.931179 -12.074091,0 -14.774851,2.33724 -14.774851,13.272919 0,10.93118 2.542109,13.46787 13.821098,13.46787 11.913588,0 14.297048,-1.95182 14.297048,-11.12839 h -7.624476 c 0,2.53897 -0.793255,3.71324 -6.672572,3.71324 -5.084215,0 -6.194773,-1.55965 -6.194773,-6.63759 0,-4.88071 1.110558,-4.88071 7.15037,-4.88071 4.444077,0 5.237333,0.58714 5.715131,3.12384 z m 177.13032,1.55738 c 0,-10.538989 -2.54027,-12.683509 -14.77486,-12.683509 -13.18465,0 -14.77116,2.73165 -14.77116,13.660559 0,10.93344 2.22112,13.27518 14.77116,13.27518 13.347,0.003 14.77486,-2.72939 14.77486,-14.25223 z m -21.76289,0.59168 c 0,-5.2729 0.95376,-5.855509 6.51392,-5.855509 6.19477,0 7.30533,0.192699 7.30533,5.855509 0,5.27062 -0.79509,6.24767 -6.67256,6.24767 -6.35343,0 -7.14669,-0.78435 -7.14669,-6.24767 z m 90.23008,-0.59168 c 0,-10.538989 -2.38346,-12.683509 -14.61067,-12.683509 -13.02784,0 -14.61619,2.53219 -14.61619,13.467869 0,11.12613 2.22296,13.46787 14.61619,13.46787 13.33961,0.003 14.61067,-2.72939 14.61067,-14.25223 z m -21.60239,0.59168 c 0,-5.2729 0.95191,-5.855509 6.51208,-5.855509 6.19662,0 7.30717,0.192699 7.30717,5.855509 0,5.27062 -0.79325,6.24767 -6.67072,6.24767 -6.35158,0 -7.14853,-0.78435 -7.14853,-6.24767 z M 141.1174,91.19589 c 0,-10.538989 -2.38345,-12.683509 -14.61435,-12.683509 -13.18465,0 -14.77486,2.53219 -14.77486,13.467869 0,11.12613 2.22666,13.46787 14.77486,13.46787 13.34514,0.003 14.61435,-2.72939 14.61435,-14.25223 z m -21.44927,0.59168 c 0,-5.2729 0.95375,-5.855509 6.35712,-5.855509 6.19478,0 7.30717,0.192699 7.30717,5.855509 0,5.27062 -0.79694,6.24767 -6.67257,6.24767 -6.19846,0 -6.99172,-0.78435 -6.99172,-6.24767 z M 303.3142,67.771671 v 15.03204 c -1.747,-2.92888 -3.33535,-4.48628 -9.68878,-4.48628 -10.1666,0 -12.07409,3.31882 -12.07409,13.467869 0,10.34857 2.70261,13.27065 12.55003,13.27065 6.19663,0 8.10228,-1.94957 9.532,-5.26837 v 4.67669 h 7.62632 V 67.767121 Z m -5.56016,17.96317 c 4.28727,0 5.72066,0.779829 5.72066,4.876179 0,6.24995 -0.32099,6.84161 -6.35343,6.84161 -6.03796,0 -7.62632,-0.20174 -7.62632,-5.47011 0,-6.052729 1.90566,-6.247679 8.25909,-6.247679 z M 44.399225,78.433101 v -15.92073 c -2.617744,-0.84784 -4.412714,-1.18791 -7.028614,-1.18791 -13.647688,0 -25.638763,14.06184 -25.638763,31.505889 0,17.95641 12.127589,31.33814 25.775277,31.33814 2.48123,0 3.859282,-0.34003 6.8921,-1.36016 v -16.25848 c -3.034664,1.85889 -4.547383,2.36896 -7.028614,2.36896 -7.582049,0 -13.374661,-7.78919 -13.374661,-16.4285 0,-8.974749 5.652408,-16.600729 13.234459,-16.600729 2.621433,0 4.825945,0.85012 7.168816,2.54352 z m 108.790415,0.27423 h -7.14667 v 25.761479 h 7.62447 V 91.19589 c 0,-3.9014 1.58836,-5.266099 5.87932,-5.266099 3.97181,0 5.08421,1.754619 5.08421,6.635329 v 11.90369 h 7.78314 V 90.80825 c 0,-3.70871 2.3816,-4.878459 6.03427,-4.878459 3.49586,0 5.08421,1.172019 5.08421,4.878459 v 13.66056 h 7.62447 V 89.24406 c 0,-7.607809 -3.81315,-11.126089 -10.80118,-11.126089 -6.03796,0 -8.26276,2.73389 -9.05787,5.6605 -1.58836,-3.31879 -3.81132,-5.6605 -9.84928,-5.6605 -5.71883,0 -7.30718,2.34171 -8.26093,6.63755 z m 51.31257,0 h -7.14853 v 25.761479 h 7.62449 V 91.19589 c 0,-3.9014 1.90566,-5.266099 5.71697,-5.266099 3.97366,0 5.08422,1.561919 5.08422,6.635329 v 11.90369 h 7.78682 V 90.80825 c 0,-3.70871 2.2248,-4.878459 5.87931,-4.878459 3.49401,0 5.23917,1.364699 5.23917,4.878459 v 13.66056 H 242.311 V 89.24406 c 0,-7.607809 -3.81133,-11.126089 -10.8012,-11.126089 -6.03612,0 -8.10411,2.53666 -9.05418,5.6605 -1.59021,-3.31879 -3.81501,-5.6605 -9.85113,-5.6605 -5.55833,0 -6.98803,2.34171 -8.10043,6.63755 z"
     id="path12"
     inkscape:connector-curvature="0"
     style="fill:#ffffff;stroke-width:2.04499435"
     sodipodi:nodetypes="ccccssccsccccccccccccsccsscccscsccccsssccssscssscssssssssscssssssssscssssssccssscccccsssssccsssccssscccccsssccsssccsscsccccccsssccsssccsscscc" />
  <path
     d="m 447.76619,110.25016 c 0,12.03249 -4.89708,18.04719 -14.69698,18.04719 h -5.01457 c -5.52176,0 -9.34859,-2.0606 -11.48766,-6.1663 -2.14051,-4.115 -3.20646,-11.23734 -3.20646,-21.36702 V 87.138142 c 0,-10.067749 1.06595,-17.156049 3.20646,-21.271049 2.13764,-4.11499 5.9659,-6.16945 11.48766,-6.16945 h 5.01457 c 4.55036,0 7.97173,1.31812 10.2641,3.96038 2.29524,2.64226 3.44143,6.50664 3.44143,11.60243 v 4.8822 h -11.78137 v -1.7481 c 0,-1.59649 -0.21205,-2.64216 -0.64043,-3.1341 -0.42839,-0.48885 -1.28373,-0.7395 -2.56603,-0.7395 h -2.80099 c -1.59177,0 -2.61331,0.27846 -3.05889,0.83231 -0.44988,0.55073 -0.67196,1.86874 -0.67196,3.95717 v 9.387069 c 1.70639,-2.023459 3.82827,-3.032099 6.35848,-3.032099 h 4.13916 c 4.16067,0 7.20236,1.519149 9.12795,4.554339 1.92273,3.03829 2.88553,7.72257 2.88553,14.043578 z m 42.65965,4.69357 h -5.01457 v 12.52443 h -11.7785 v -12.52443 h -21.28613 l 0.0588,-18.229718 16.85468,-36.187189 h 16.15118 v 39.593657 h 5.01457 z M 473.6342,100.12048 V 77.933583 l -10.20536,22.186897 z m -37.64651,9.11486 v -4.87611 c 0,-1.72645 -0.26363,-2.81243 -0.78944,-3.27343 -0.52295,-0.45482 -1.66197,-0.69305 -3.41134,-0.69305 h -2.27232 c -1.75223,0 -2.89842,0.21348 -3.44142,0.64973 -0.54587,0.42388 -0.81666,1.52843 -0.81666,3.31056 v 4.87611 c 0,1.8471 0.27079,2.99807 0.81666,3.44979 0.543,0.45791 1.69062,0.69615 3.44142,0.69615 h 2.27232 c 1.78805,0 2.93567,-0.23206 3.44143,-0.69615 0.50432,-0.44553 0.75935,-1.59649 0.75935,-3.4436 z"
     id="path12-3"
     inkscape:connector-curvature="0"
     style="fill:#ffffff;stroke-width:2.10543323"
     sodipodi:nodetypes="ssscsscsscsccscsscscsscssccccccccccccccccsscsscsscsscs" />
</svg>
