<?xml version="1.0" encoding="UTF-8" standalone="no"?>
<svg
   xmlns:dc="http://purl.org/dc/elements/1.1/"
   xmlns:cc="http://creativecommons.org/ns#"
   xmlns:rdf="http://www.w3.org/1999/02/22-rdf-syntax-ns#"
   xmlns:svg="http://www.w3.org/2000/svg"
   xmlns="http://www.w3.org/2000/svg"
   xmlns:sodipodi="http://sodipodi.sourceforge.net/DTD/sodipodi-0.dtd"
   xmlns:inkscape="http://www.inkscape.org/namespaces/inkscape"
   width="500"
   height="200"
   viewBox="0 0 500 200"
   version="1.1"
   id="svg66"
   sodipodi:docname="colecovision.svg"
   inkscape:version="0.92.5 (2060ec1f9f, 2020-04-08)">
  <metadata
     id="metadata70">
    <rdf:RDF>
      <cc:Work
         rdf:about="">
        <dc:format>image/svg+xml</dc:format>
        <dc:type
           rdf:resource="http://purl.org/dc/dcmitype/StillImage" />
        <dc:title>mainlogo</dc:title>
      </cc:Work>
    </rdf:RDF>
  </metadata>
  <sodipodi:namedview
     pagecolor="#ffffff"
     bordercolor="#666666"
     borderopacity="1"
     objecttolerance="10"
     gridtolerance="10"
     guidetolerance="10"
     inkscape:pageopacity="0"
     inkscape:pageshadow="2"
     inkscape:window-width="1366"
     inkscape:window-height="743"
     id="namedview68"
     showgrid="false"
     inkscape:pagecheckerboard="true"
     inkscape:zoom="1.28404"
     inkscape:cx="119.43531"
     inkscape:cy="57.533025"
     inkscape:window-x="0"
     inkscape:window-y="0"
     inkscape:window-maximized="1"
     inkscape:current-layer="svg66" />
  <title
     id="title37">mainlogo</title>
  <defs
     id="defs52">
    <linearGradient
       x1="4.352488"
       y1="116.71485"
       x2="208.37537"
       y2="116.71485"
       id="linearGradient-1"
       gradientTransform="scale(1.8380291,0.54406103)"
       gradientUnits="userSpaceOnUse">
      <stop
         stop-color="#F090A7"
         offset="0%"
         id="stop39" />
      <stop
         stop-color="#EF7B75"
         offset="14.947076%"
         id="stop41" />
      <stop
         stop-color="#EE6E5E"
         offset="25.638369%"
         id="stop43" />
      <stop
         stop-color="#FCE72C"
         offset="58.937144%"
         id="stop45" />
      <stop
         stop-color="#ACDEE4"
         offset="81.312746%"
         id="stop47" />
      <stop
         stop-color="#A3DDF2"
         offset="100%"
         id="stop49" />
    </linearGradient>
  </defs>
  <g
     id="Page-1"
     style="fill:none;fill-rule:evenodd;stroke:none;stroke-width:1"
     transform="matrix(1.1054761,0,0,1.1054761,35.011237,28.347251)">
    <g
       id="mainlogo"
       style="fill-rule:nonzero">
      <g
         id="COLECO_VISION_LOGO">
        <path
           d="m 70.59375,65.609375 c 1.859225,1.297855 3.893235,2.456995 6.25,3.140625 L 65.296875,85.734375 56.53125,69.5 H 64.5 c 1.629285,0 3.432045,-0.387455 4.75,-1.703125 0.64639,-0.64527 1.07463,-1.39341 1.34375,-2.1875 z M 22,0 C 14.244317,0 8.5061185,3.204645 4.984375,7.375 1.4626317,11.545355 0,16.470499 0,20.5 V 48 48.01563 c 0.013339,4.950235 1.8662361,10.010855 5.125,14.015625 2.9209115,3.589575 7.13874,6.32595 12.125,6.859375 l 34.1875,56.65626 0.875,1.45327 H 54 76 77.65625 l 0.890625,-1.4064 L 101,89.90625 V 119 v 0.0156 c 0.0136,1.82923 0.39515,3.76385 1.6875,5.39063 1.29236,1.62679 3.50715,2.59392 5.8125,2.59392 H 182 c 2.66846,0.007 5.24432,-0.82801 7.5625,-1.93765 0.67407,-0.32265 1.24561,-0.71578 1.85937,-1.07812 1.06563,1.57952 3.12673,3.01577 5.57813,3.01577 h 18.96875 c 0.0106,0 0.0206,0 0.0312,0 2.42946,0.0141 4.63987,-0.99888 6.01562,-2.56265 0.20399,-0.23187 0.36069,-0.48702 0.53125,-0.73437 3.18617,1.8699 7.07525,3.29702 10.95313,3.29702 h 42 0.1875 l 0.17187,-0.0158 c 6.88847,-0.847 9.60364,-2.16405 11.4375,-3.29688 1.3939,1.96994 3.32779,3.31263 5.70313,3.31263 h 19 c 1.71296,0 3.09973,-0.51177 4.70312,-1.60952 C 318.30652,124.29287 320,122.21989 320,119.5 v -31 h 12.5 c 0.77591,0.0015 1.79862,0.340575 2.46875,0.890625 C 335.63888,89.940675 336,90.522795 336,91.5 v 28 0.0156 c 0.0145,1.86752 0.70486,3.23736 1.875,4.67188 1.17014,1.43451 3.12761,2.81267 5.625,2.81267 H 363 c 2.18355,0 3.79296,-1.03734 5.09375,-2.31267 C 369.39454,123.41217 370.5,121.74017 370.5,119.5 V 81 80.8125 l -0.0312,-0.1875 c -0.35602,-2.82174 -0.59032,-6.50038 -3.4063,-11.125 h 2.28125 c 0.0532,0.003 0.10314,-0.0025 0.15625,0 5.72741,0.24685 10.75984,-2.87933 14.375,-6.765625 C 387.52368,58.812045 390,54.09402 390,49.5 v -29 -0.01563 C 389.98798,15.884051 388.05523,10.930213 384.42187,6.9375 380.78852,2.9447871 375.29525,0 368.5,0 H 326 C 321.38804,0 317.39237,1.7236589 314.15625,3.90625 313.94784,3.4761622 313.77476,3.0431955 313.46875,2.625 312.48608,1.2821063 310.68511,0 308.5,0 h -43 c -3.92409,0 -7.08763,1.1430998 -9.5,2.484375 V 0 h -3 -68.5 -3 v 3 35.5 h -9.5 -0.0156 -0.0156 c -0.58641,0.0073 -1.78805,-0.257871 -2.48438,-0.71875 C 168.78805,37.320371 168.5,37.013958 168.5,36 V 7 c 0,-4.2355826 -3.7145,-7 -7.5,-7 h -19 c -2.24607,0 -4.11083,1.1285472 -5.34375,2.484375 -0.18714,0.2057966 -0.28775,0.454543 -0.45313,0.671875 C 133.47941,1.5203485 130.33985,0 126.5,0 h -45 C 77.0245,0 73.408475,1.8671076 70.578125,3.90625 70.281755,3.2313803 69.839795,2.634781 69.28125,2.046875 68.213585,0.92308585 66.500045,0 64.5,0 Z"
           id="Shape"
           inkscape:connector-curvature="0"
           style="fill:#ffffff" />
        <path
           d="M 68,10 C 70.51948,7.551501 75.40619,3 81.5,3 h 45 c 4.13003,0 7.576,2.354538 11,4.5 C 137.65327,5.493301 139.51264,3 142,3 h 19 c 2.27066,0 4.5,1.719851 4.5,4 v 29 c 0,4.039364 4.06248,5.530407 6.5,5.5 h 12.5 V 3 H 253 V 8.5 C 254.51908,7.030786 258.45616,3 265.5,3 h 43 c 2.22733,0 3.40064,2.3864555 3.5,4 V 9.5 C 314.99936,6.358254 320.20035,3 326,3 h 42.5 c 11.89934,0 18.48057,10.061849 18.5,17.5 v 29 c 0,6.684015 -8.36848,17.49264 -17.5,17 H 361 c 6.13477,6.64486 5.98541,10.420875 6.5,14.5 v 38.5 c 0,2.13354 -2.50349,4.5003 -4.5,4.5003 h -19.5 c -2.8158,0 -4.48886,-3.06809 -4.5,-4.5003 v -28 c 0,-3.79423 -3.49035,-5.994465 -6.5,-6 H 317 v 34 c 0,3.09162 -3.6298,4.5003 -5,4.5003 h -19 c -1.76209,0 -3.63777,-1.58699 -4.5,-4.5003 -3.26561,1.55209 -3.03503,3.27472 -13,4.5003 h -42 c -4.19987,0 -9.68783,-2.61684 -12.5,-5.0003 0,2.49756 -1.62881,5.03229 -5,5.0003 h -19 c -3.26881,0 -4,-3.23829 -4,-5.0003 -1.8825,2.26341 -7.06613,5.01 -11,5.0003 h -73.5 c -3.25225,0 -4.47929,-2.20932 -4.5,-5.0003 V 79.5 L 76,124.0003 H 54 L 19,66 C 9.5219005,66 3.0224997,56.34996 3,48 V 20.5 C 3,14.000409 8.067765,3 22,3 H 64.5 C 66.7894,3 68,4.958223 68,6 Z m 14,56.5 c -5.96799,0 -10.726445,-3.47527 -14,-7 V 63 c -0.0617,2.470245 -1.099315,3.5 -3.5,3.5 h -13 l 13.5,25 z"
           id="path55"
           inkscape:connector-curvature="0"
           style="fill:#000000" />
        <path
           d="m 192.5,65 v 15.5 h -44 c -5.02897,0 -4.74789,5 0,5 0,0 19.33333,0 29,0 22.59359,0 22.58743,33.5 0,33.5 -15.16667,0 -45.5,0 -45.5,0 v -15 c 0,0 29,0 43.5,0 5.20622,0 4.85252,-5 0,-5 -9,0 -27,0 -27,0 -23.21762,0 -23.13547,-34 0,-34 14.66666,0 44,0 44,0 z m 101,0 H 345 c 9.24333,0 17.47868,7.17654 17.5,17 v 37 H 344 V 87 c 0,-5.340605 -3.17642,-6.42353 -7,-6.5 H 312 V 119 H 293.5 Z M 245,80.060425 c -4.9152,0.029 -7,3.11505 -7,6.939575 v 10 c 0,4.15412 3.57185,7 7,7 h 20.5 c 2.43069,0 6.5,-1.64566 6.5,-7 V 87 c 0,-3.363285 -2.04902,-7.086665 -6.5,-7.060563 z M 238,65 h 34.5 c 10.95058,0 18,7.458175 18,16.5 v 20 c 0,14.18216 -12.25313,17.5 -18,17.5 H 238 c -12.9589,0 -18.5,-10.42654 -18.5,-17.5 v -20 C 219.5,69.98456 229.80535,65 238,65 Z m -40.5,0 H 216 v 54 h -18.5 z m -89,0 H 127 v 54 h -18.5 z m -84,0 H 45 l 20,35 23.5,-35 h 17 l -32,54 H 56.691275 Z M 189.5,8 H 248 v 13.5 h -40.5 v 5 H 248 V 40 h -40.5 c 0,4.963599 3.64575,7 7.5,7 h 33 v 14.5 h -42.5 c -9.52193,0 -16.06964,-7.90448 -16.0476,-16.5 z m -47,0 h 18 v 32 c 0,4.597141 3.46464,7.047719 7.5,7 h 19.5 v 14.5 h -28 c -7.94967,0 -17,-3.57341 -17,-16.5 z m 166,-9e-4 H 268 c -11.65265,0 -16.47337,10.718704 -16.5,16.5 v 20 c 0,12.970635 10.67016,17.57585 16.5,17.5 h 40.5 v -15 h -31 c -2.20583,0 -7.5,-1.633451 -7.5,-6.5 v -10.5 c 0,-5.001803 3.76537,-7 7.5,-7 h 31 z m 29,15.061345 c -4.91521,0.02897 -7,3.115052 -7,6.939575 v 10 c 0,4.154126 3.57186,7 7,7 H 358 c 2.43069,0 6.5,-1.645665 6.5,-7 v -10 c 0,-3.363286 -2.04902,-7.086664 -6.5,-7.060563 z m -7,-15.0604465 H 365 c 10.95058,0 18,7.4581995 18,16.5000215 v 20 c 0,14.182145 -12.25313,17.499978 -18,17.499978 h -34.5 c -12.95889,0 -18.5,-10.426538 -18.5,-17.5 v -20 C 312,12.984557 322.30536,7.9999985 330.5,7.9999985 Z M 93.5,23.060425 c -4.915205,0.02898 -7,3.115052 -7,6.939575 v 10 c 0,4.154126 3.571855,7 7,7 H 114 c 2.43069,0 6.5,-1.645665 6.5,-7 V 30 c 0,-3.363286 -2.04901,-7.086664 -6.5,-7.060563 z M 86.5,8 H 121 c 10.95058,0 18,7.458178 18,16.5 v 20 C 139,58.682165 126.74687,62 121,62 H 86.5 c -12.958895,0 -18,-10.42654 -18,-17.5 v -20 C 68.5,12.984559 78.305355,8 86.5,8 Z M 65,8 H 24.5 C 12.847353,8 8.026633,18.718704 8,24.5 v 20 C 8,57.470635 18.670156,62.07585 24.5,62 H 65 V 47 H 33.5 C 31.294166,47 26,45.366549 26,40.5 V 30 c 0,-5.001803 3.765369,-7 7.5,-7 H 65 Z"
           id="path57"
           inkscape:connector-curvature="0"
           style="fill:url(#linearGradient-1)" />
      </g>
      <g
         id="Group-9"
         transform="translate(390)"
         style="fill:#ffffff">
        <polygon
           id="Path"
           points="0,0 5.5,0 5.5,0.96808511 3.1025641,0.96808511 3.1025641,6.5 2.1153846,6.5 2.1153846,0.96808511 0,0.96808511 " />
        <polygon
           id="polygon61"
           points="7.606383,0.96808511 7.606383,6.5 6.5,6.5 6.5,3.0708296e-16 8.1595745,3.0708296e-16 9.8191489,5.2553192 11.478723,0 13,0 13,6.5 12.031915,6.5 12.031915,0.96808511 10.37234,6.5 9.4042553,6.5 " />
      </g>
    </g>
  </g>
</svg>
