<?xml version="1.0" encoding="UTF-8" standalone="no"?>
<svg
   xmlns:dc="http://purl.org/dc/elements/1.1/"
   xmlns:cc="http://creativecommons.org/ns#"
   xmlns:rdf="http://www.w3.org/1999/02/22-rdf-syntax-ns#"
   xmlns:svg="http://www.w3.org/2000/svg"
   xmlns="http://www.w3.org/2000/svg"
   xmlns:sodipodi="http://sodipodi.sourceforge.net/DTD/sodipodi-0.dtd"
   xmlns:inkscape="http://www.inkscape.org/namespaces/inkscape"
   width="500"
   height="200"
   viewBox="0 0 500 200"
   version="1.1"
   id="svg26"
   sodipodi:docname="cps1.svg"
   style="fill:none"
   inkscape:version="0.92.5 (2060ec1f9f, 2020-04-08)">
  <metadata
     id="metadata32">
    <rdf:RDF>
      <cc:Work
         rdf:about="">
        <dc:format>image/svg+xml</dc:format>
        <dc:type
           rdf:resource="http://purl.org/dc/dcmitype/StillImage" />
        <dc:title />
      </cc:Work>
    </rdf:RDF>
  </metadata>
  <defs
     id="defs30" />
  <sodipodi:namedview
     pagecolor="#ffffff"
     bordercolor="#666666"
     borderopacity="1"
     objecttolerance="10"
     gridtolerance="10"
     guidetolerance="10"
     inkscape:pageopacity="0"
     inkscape:pageshadow="2"
     inkscape:window-width="1366"
     inkscape:window-height="743"
     id="namedview28"
     showgrid="false"
     inkscape:pagecheckerboard="true"
     inkscape:zoom="0.86180718"
     inkscape:cx="322.29142"
     inkscape:cy="14.068274"
     inkscape:window-x="0"
     inkscape:window-y="0"
     inkscape:window-maximized="1"
     inkscape:current-layer="svg26" />
  <path
     d="m 124.45828,35.876839 c 3.537,-4.1144 8.977,-6.749134 15.077,-6.749134 0.255,0 0.508,0.0046 0.761,0.01372 0.238,-0.0094 0.477,-0.01372 0.718,-0.01372 5.903,0 11.086,2.855744 14.039,7.160894 l 1.075,1.46398 v -7.73847 h 15.741 l 0.004,-0.104076 0.044,0.104076 h 0.078 v 0.18414 l 1.655,3.8944 1.151,-3.86923 v -0.20931 h 12.495 2.354 1.464 v 7.37247 c 0,0 -0.801,0.2614 -1.046,0.5753 -0.297,0.38151 -0.366,1.40333 -0.366,1.40333 l 2.3,15.2745 c 0,0 0.383,0.8663 0.753,1.1243 0.273,0.1908 0.972,0.2356 0.972,0.2356 v 8.3138 h -16.364 v -6.2745 l -5.368,-0.0469 v 0.0697 l -4,-0.0522 -0.078,6.3267 h -15.344 l 0.026,-4.1354 c -3.21,2.7493 -7.765,4.9726 -12.842,4.9726 -6.215,0 -12.371,-3.3625 -15.531,-6.8704 l 0.037,5.9795 h -12.151 c 0,0 -0.279,0.0106 -0.419,0.006 -0.525,-0.0185 -1.008,-0.0672 -1.569,-0.1315 -8.591,-0.9853 -15.698003,-6.8861 -17.066703,-14.9726 -2.0453,1.9359 -4.9265,3.6878 -8.3503,4.9192 -1.2832,0.4615 -2.5652,0.8212 -3.8224,1.0843 -0.0831,0.0173 -0.3029,0.0969 -0.3968,0.2138 -0.0959,0.1193 -0.1326,0.2591 -0.1247,0.4415 0,0 0.0418,0.4729 0.4827,0.7732 0.4198,0.2859 1.4399,0.4986 1.4399,0.4986 v 7.1529 h -1.9043 v 0.0194 l -12.1738,0.0172 v 0.002 h -32.3801 v 0.007 h -13.9077 l -1.3073,-0.0526 c -10.3392,-0.7844 -18.24705,-8.0562 -18.24705,-17.6719 0,-9.61573 8.16925,-17.410979 18.24705,-17.410979 6.6564,0 12.4806,3.400849 15.6679,8.480739 l -9.1361,9.55924 -5.9154,-4.0751 c 0.6064,-0.7145 1.2196,-1.719 0.8007,-2.5482 -0.2881,-0.5701 -0.8195,-0.9569 -1.4572,-0.9539 -0.2898,0.0014 -1.2951,0.2148 -1.6549,0.4816 -1.6231,1.2035 -2.5097,2.2436 -2.6809,5.1616 0.0497,1.4755 0.4799,3.1431 1.0419,4.5051 0.7144,1.4718 1.5818,2.3002 2.7427,2.9977 0.8908,0.5353 1.9901,0.7778 3.0183,0.7778 1.9511,0 3.5687,-1.0729 4.1448,-2.6615 h 7.3165 v 5.6889 l 10.1666,-26.57791 11.7003,-0.008 9.2276,23.879921 c 0,0 0.4957,0.9629 0.8452,1.3702 0.1878,0.2188 0.6588,0.5604 0.6588,0.5604 l 0.0423,-16.7076 c 0,0 -0.161,-0.73219 -0.4026,-0.99732 -0.2895,-0.31779 -1.146,-0.59131 -1.146,-0.59131 l -0.0041,-7.50628 h 18.0098 c 7.432,0.3697 9.3482,2.59508 11.4842,6.85664 2.5286,-4.16993 8.019103,-7.878708 14.884103,-7.693853 4.056,0.109192 7.85,0.774044 10.777,2.958823 1.394,0.99156 2.67,2.40014 3.714,3.74113 z m -90.160903,22.30277 0.0012,-0.0755 c -0.0087,0.009 -0.0173,0.0188 -0.026,0.0282 -0.0145,0.0158 -0.0291,0.0316 -0.0438,0.0473 z"
     id="path2"
     inkscape:connector-curvature="0"
     style="clip-rule:evenodd;fill:#0c4da2;fill-rule:evenodd" />
  <path
     d="m 20.600577,32.449479 c -8.3074,0.05229 -15.09228,6.10353 -15.09228,14.01943 0,7.9159 7.48998,14.7155 16.55628,14.5108 l 8.8099,0.0248 v -6.9358 h -1.6639 c -0.5228,1.3077 -2.9644,2.5869 -4.7347,2.5869 -0.933,0 -3.2816,-0.1269 -4.1504,-0.4312 -1.5339,-0.5372 -3.7225,-1.3084 -5.6256,-4.5068 -0.5099,-1.1213 -1.9459,-3.8535 -1.6251,-7.8393 0.1554,-2.4022 1.6813,-5.40085 4.4193,-6.75883 1.194,-0.59213 2.3959,-0.68929 4.5062,-0.49779 1.515,0.13749 3.0204,1.20278 3.546,2.48132 0.4065,0.9889 0.2897,2.1938 -0.1888,2.8802 -0.0342,0.049 -0.0349,0.0923 -0.0278,0.1391 0.0054,0.0356 0.0515,0.0949 0.0515,0.0949 l 0.8339,0.6514 c 0,0 0.2374,0.1649 0.5147,0.1576 0.1611,-0.0043 0.449,-0.179 0.449,-0.179 l 4.7623,-4.99779 c -2.9442,-3.97275 -8.1765,-5.39994 -11.3405,-5.39994 z"
     id="path4"
     inkscape:connector-curvature="0"
     style="fill:#ffcb08" />
  <path
     d="m 123.66628,47.111809 c 0,-8.17187 7.14,-14.79636 15.947,-14.79636 8.807,0 15.947,6.62449 15.947,14.79636 0,8.172 -7.14,14.7965 -15.947,14.7965 -8.807,0 -15.947,-6.6245 -15.947,-14.7965 z m 23.999,-3.0849 c -0.985,-3.8671 -3.414,-7.11137 -7.948,-7.11137 v 0 c -4.533,0 -7.59,3.18267 -8.208,7.79107 -0.214,1.5893 -0.209,3.4899 0.053,5.0719 0.895,5.4083 3.784,7.4193 8.104,7.5286 4.432,0.1121 7.487,-3.5299 7.999,-7.2671 0.168,-1.2256 0.282,-4.9062 0,-6.0131 z"
     id="path6"
     inkscape:connector-curvature="0"
     style="clip-rule:evenodd;fill:#ffcb08;fill-rule:evenodd" />
  <path
     d="m 38.599177,55.633609 c 1.2548,-3.4508 8.2577,-22.39995 8.2577,-22.39995 l 7.3564,0.01945 8.7656,23.045 c 0,0 0.5234,1.3834 1.2924,2.0541 0.6779,0.5913 1.3153,0.6885 1.3153,0.6885 l 0.0068,2.0187 -10.703,0.006 v -2.0415 c 0,0 1.6908,-0.0325 1.1495,-1.854 -0.4149,-1.3961 -2.1091,-5.626 -2.1091,-5.626 l -8.6912,-0.0183 -1.9569,5.0061 c 0,0 -0.4887,1.4263 0.2837,2.1353 0.3982,0.3656 0.9413,0.3935 0.9413,0.3935 l -0.0069,2.0084 -8.4636,0.002 -0.1041,-2.0907 c 0,0 1.4112,0.1043 2.6661,-3.3465 z m 13.6726,-8.4957 -2.9017,-8.0781 -2.7186,8.1033 z"
     id="path8"
     inkscape:connector-curvature="0"
     style="clip-rule:evenodd;fill:#ffcb08;fill-rule:evenodd" />
  <path
     d="m 68.971677,35.526909 0.0412,-2.32291 14.8227,0.05261 c 0.6876,0.03854 1.4879,0.12655 3.231,0.6302 3.8239,0.65185 5.6089,3.53643 5.6466,7.0557 0.1997,4.9672 -3.2107,7.7517 -7.6058,9.5055 -0.2679,0.0986 -0.632,0.2492 -1.076,0.4329 -1.4931,0.6175 -3.8891,1.6086 -6.5675,2.2537 0.0042,0.8419 -0.0065,1.6756 -0.0174,2.5188 -0.0068,0.5314 -0.0137,1.0666 -0.0169,1.61 -0.0045,0.4021 0.1868,0.8053 0.4975,1.0854 0.5504,0.4964 0.9013,0.6348 0.9013,0.6348 l -0.0241,2.1056 -9.9195,-0.024 0.0515,-2.0701 c 0.3903,-0.034 0.6309,-0.2367 0.8797,-0.4463 0.028,-0.0236 0.056,-0.0472 0.0844,-0.0707 0.7444,-0.6162 0.5227,-1.2295 0.5227,-1.2295 l 0.0114,-15.5604 c 0,0 0.2137,-4.86105 -0.1315,-5.24403 -0.651,-0.72234 -1.3313,-0.91727 -1.3313,-0.91727 z m 14.6865,2.33561 c -0.9702,-0.48865 -2.2304,-0.73381 -3.3004,-0.71326 -0.949,0.0063 -1.8274,0.15687 -2.8067,0.34158 l 0.0294,11.78847 c 1.8376,-0.8458 2.6653,-1.3306 4.9784,-2.9842 0.7912,-0.7593 2.0442,-2.0866 2.4585,-2.778 0.3978,-0.723 0.6354,-1.4341 0.5856,-2.2611 0,-1.7592 -0.7357,-2.59075 -1.9448,-3.39349 z"
     id="path10"
     inkscape:connector-curvature="0"
     style="clip-rule:evenodd;fill:#ffcb08;fill-rule:evenodd" />
  <path
     d="m 110.94728,32.467919 c -8.308,0.05228 -15.092503,6.10352 -15.092503,14.01939 0,7.9159 7.489503,14.7155 16.556503,14.5108 l 8.81,0.0249 v -6.9359 h -1.664 c -0.523,1.3078 -2.965,2.5869 -4.735,2.5869 -0.933,0 -3.282,-0.1268 -4.15,-0.4311 -1.534,-0.5373 -3.723,-1.3085 -5.626,-4.5069 -0.51,-1.1212 -1.946,-3.8535 -1.625,-7.8392 0.155,-2.4022 1.681,-5.40092 4.419,-6.75889 1.194,-0.59214 2.396,-0.6893 4.506,-0.49779 1.515,0.13748 3.021,1.20277 3.546,2.48128 0.407,0.9889 0.29,2.1939 -0.188,2.8802 -0.035,0.049 -0.035,0.0924 -0.028,0.1391 0.005,0.0356 0.051,0.0949 0.051,0.0949 l 0.834,0.6514 c 0,0 0.238,0.165 0.515,0.1576 0.161,-0.0043 0.449,-0.179 0.449,-0.179 l 4.762,-4.99776 c -2.944,-3.97275 -8.176,-5.39993 -11.34,-5.39993 z"
     id="path12"
     inkscape:connector-curvature="0"
     style="fill:#ffcb08" />
  <path
     d="m 159.54628,33.258809 0.009,1.99581 c 0,0 0.873,0.23493 1.219,0.50895 0.396,0.31328 0.296,0.86924 0.296,0.86924 0,0 -3.165,19.673 -3.234,20.0381 -0.074,0.3928 -0.179,1.3106 -0.731,1.8208 -0.549,0.5074 -1.183,0.6096 -1.183,0.6096 l -0.009,1.9684 h 8.864 v -1.8391 c 0,0 -0.721,-0.0558 -1.202,-0.5364 -0.48,-0.4807 -0.342,-1.8014 -0.342,-1.8014 l 2.181,-14.8628 4.437,12.7915 5.404,0.0743 4.39,-13.775 2.449,15.8452 c 0,0 0.296,1.1912 -0.342,1.8025 -0.49,0.4705 -1.201,0.5364 -1.201,0.5364 v 1.8391 h 10.269 l -0.009,-1.9683 c 0,0 -0.23,0.0787 -0.813,-0.3889 -0.344,-0.275 -0.509,-1.5012 -0.583,-1.894 -0.068,-0.3651 -2.835,-20.1605 -2.835,-20.1605 0,0 -0.048,-0.81738 0.4,-1.23522 0.324,-0.30116 0.985,-0.58674 0.985,-0.58674 l -0.016,-1.62981 -10.661,-0.01258 -3.901,11.23715 -3.72,-11.23715 z"
     id="path14"
     inkscape:connector-curvature="0"
     style="fill:#ffcb08" />
  <path
     d="m 195.43528,34.114599 c 0,-2.81985 2.286,-5.10579 5.106,-5.10579 2.819,0 5.105,2.28594 5.105,5.10579 0,2.81985 -2.286,5.10581 -5.105,5.10581 -2.82,0 -5.106,-2.28596 -5.106,-5.10581 z m 9.525,0 c 0,-2.44074 -1.979,-4.419356 -4.42,-4.419356 -2.44,0 -4.419,1.978616 -4.419,4.419356 0,2.44073 1.979,4.41935 4.419,4.41935 2.441,0 4.42,-1.97862 4.42,-4.41935 z"
     id="path16"
     inkscape:connector-curvature="0"
     style="clip-rule:evenodd;fill:#0c4da2;fill-rule:evenodd" />
  <path
     d="m 197.91228,37.075629 v -6.0446 h 1.275 v 0.0046 h 2.163 v 0.02516 c 1.027,0.02284 1.854,0.89183 1.854,1.96035 0,0.82879 -0.498,1.53627 -1.2,1.82311 l 1.711,2.24856 -1.432,0.0092 -1.402,-2.12161 h -1.694 v 2.09531 z m 3.396,-4.81271 -2.121,-0.01144 v 1.59207 l 2.121,-0.02516 c 0.16,-0.0052 0.693,-0.09757 0.706,-0.79048 0.011,-0.64329 -0.271,-0.69121 -0.697,-0.76356 z"
     id="path18"
     inkscape:connector-curvature="0"
     style="clip-rule:evenodd;fill:#0c4da2;fill-rule:evenodd" />
  <path
     d="m 107.48028,100.66211 c 0,-3.173201 -2.573,-5.745801 -5.746,-5.745801 H 82.806677 v 15.209501 h 18.927603 c 3.173,0 5.746,-2.5726 5.746,-5.7458 z M 86.186577,98.296209 h 15.547703 c 1.306,0 2.366,1.0593 2.366,2.365901 v 3.7179 c 0,1.3066 -1.06,2.3659 -2.366,2.3659 H 86.186577 Z"
     id="path20"
     inkscape:connector-curvature="0"
     style="clip-rule:evenodd;fill:#ffffff;fill-rule:evenodd" />
  <path
     d="m 63.879377,87.785109 c -4.0127,-7.0454 -11.591,-11.7961 -20.279,-11.7961 h -20.2792 C 10.441177,75.989009 0,86.430209 0,99.310209 v 30.756601 c 0,12.88 10.441177,23.321 23.321177,23.321 h 20.2792 c 8.688,0 16.2663,-4.75 20.279,-11.796 v 11.796 h 22.3072 v -24.335 h 19.265703 c 11.2,0 20.279,-9.0791 20.279,-20.279 V 96.268309 c 0,-11.2 -9.079,-20.2793 -20.279,-20.2793 H 63.879377 Z m 0,23.354601 h -19.265 v -9.8016 c 0,-1.680001 -1.362,-3.041901 -3.0419,-3.041901 h -16.2234 c -1.68,0 -3.0419,1.3619 -3.0419,3.041901 v 26.701 c 0,1.6797 1.3619,3.0417 3.0419,3.0417 h 16.2234 c 1.6799,0 3.0419,-1.362 3.0419,-3.0417 v -11.1536 h 19.265 z m -0.3377,-11.829501 c 0,-11.0133 -8.928,-19.9413 -19.9413,-19.9413 h -20.2792 c -11.0134,0 -19.9413,8.928 -19.9413,19.9413 v 30.756601 c 0,11.014 8.9279,19.941 19.9413,19.941 h 20.2792 c 11.0133,0 19.9413,-8.927 19.9413,-19.941 v -9.8014 h -15.5475 v 7.7737 c 0,3.5467 -2.8752,6.4217 -6.4217,6.4217 h -16.2234 c -3.5466,0 -6.4218,-2.875 -6.4218,-6.4217 v -26.701 c 0,-3.546701 2.8752,-6.421801 6.4218,-6.421801 h 16.2234 c 3.5465,0 6.4217,2.8751 6.4217,6.421801 v 6.4217 h 15.5475 z m 3.7176,50.697601 h 15.5474 v -24.3346 h 22.645603 c 9.333,0 16.899,-7.5661 16.899,-16.8994 V 96.268309 c 0,-9.3333 -7.566,-16.8994 -16.899,-16.8994 H 67.259277 Z"
     id="path22"
     inkscape:connector-curvature="0"
     style="clip-rule:evenodd;fill:#ffffff;fill-rule:evenodd" />
  <path
     d="m 373.81428,98.296209 h -16.9 v 55.091601 h -22.307 V 98.296209 h -16.899 v 6.421801 h -10.452 c 3.318,1.3207 6.177,3.5393 8.289,6.3541 l 0.004,0.006 c 2.409,3.226 3.849,7.2076 3.849,11.5537 v 11.4915 c 0,10.654 -8.611,19.265 -19.266,19.265 h -22.645 c -10.654,0 -19.265,-8.611 -19.265,-19.265 v -10.4775 h 10.659 c -3.309,-1.6538 -6.073,-4.2285 -7.952,-7.3948 -1.726,-2.88 -2.707,-6.2482 -2.707,-9.8426 V 95.254809 c 0,-0.2483 0.005,-0.4956 0.014,-0.7416 l -14.547,23.896601 v 34.979 h -22.308 v -34.979 l -14.196,-23.321001 c 0,0.0551 0.001,0.1103 0.001,0.1655 v 9.463701 h -10.452 c 3.318,1.3207 6.177,3.5393 8.289,6.3541 l 0.004,0.006 c 2.409,3.226 3.849,7.2076 3.849,11.5537 v 11.4915 c 0,10.654 -8.611,19.265 -19.266,19.265 h -22.645 c -10.654,0 -19.265,-8.611 -19.265,-19.265 v -10.4775 h 10.659 c -3.309,-1.6538 -6.073,-4.2285 -7.952,-7.3948 -1.726,-2.88 -2.707,-6.2482 -2.707,-9.8426 V 95.254809 c 0,-10.6543 8.611,-19.2653 19.265,-19.2653 h 20.955 c 3.247,0 6.304,0.7996 8.985,2.2129 l -1.141,-1.8749 h 24.488 l 12.283,20.4529 12.283,-20.4529 h 24.488 l -1.309,2.1512 c 2.8,-1.5849 6.038,-2.4892 9.49,-2.4892 h 20.955 c 7.049,0 13.203,3.7689 16.562,9.405 v -9.405 h 143.397 l 5.317,27.783101 5.318,-27.783101 h 29.495 v 77.398301 h -22.307 v -18.953 l -3.628,18.953 h -17.756 l -3.627,-18.953 v 18.953 h -77.399 z m 22.307,0 h 32.784 v 32.446601 h -32.784 v -5.0696 h 31.095 v -22.3072 h -31.095 z m -58.134,-3.3799 v 55.091501 h 15.547 V 94.916309 h 19.941 v -15.5474 h -55.091 v 15.5474 z m -97.678,55.092501 v -32.5468 l 22.983,-37.755101 h -16.561 l -14.196,23.638001 -14.195,-23.638001 h -16.562 l 22.983,37.755101 v 32.5468 z m 152.432,-15.886 v -11.8295 h 31.095 v -15.5474 h -31.095 V 94.916309 h 35.827 v -15.5474 h -51.374 v 70.638901 h 51.374 v -15.885 z m -206.173,-30.7568 v -4.393801 c 0,-0.3641 -0.311,-0.676 -0.676,-0.676 h -15.209 c -0.364,0 -0.676,0.3119 -0.676,0.676 v 3.717801 c 0,0.3641 0.312,0.676 0.676,0.676 z m -33.257,11.1536 c -1.42,-2.3659 -2.231,-5.1374 -2.231,-8.1117 V 95.254309 c 0,-8.7877 7.098,-15.8854 15.885,-15.8854 h 20.955 c 8.788,0 15.886,7.0977 15.886,15.8854 v 6.083801 h -13.858 v -2.365901 c 0,-2.2307 -1.825,-4.0559 -4.056,-4.0559 h -15.209 c -2.231,0 -4.056,1.8252 -4.056,4.0559 v 3.717801 c 0,2.2307 1.825,4.0559 4.056,4.0559 h 19.265 c 5.07,0.1014 9.532,2.5687 12.371,6.3541 1.994,2.6701 3.177,5.9486 3.177,9.5313 v 11.4915 c 0,8.788 -7.098,15.885 -15.886,15.885 h -22.645 c -8.787,0 -15.885,-7.097 -15.885,-15.885 v -7.0977 h 15.547 v 3.3797 c 0,2.231 1.825,4.056 4.056,4.056 h 15.209 c 2.231,0 4.056,-1.825 4.056,-4.056 v -4.0556 c 0,-2.2308 -1.825,-4.0559 -4.056,-4.0559 h -19.265 c -5.678,-0.1352 -10.613,-3.2109 -13.316,-7.7737 z m 32.581,11.1536 h -15.885 v 4.7316 c 0,0.364 0.312,0.676 0.676,0.676 h 15.209 c 0.365,0 0.676,-0.312 0.676,-0.676 v -4.0556 c 0,-0.3641 -0.311,-0.676 -0.676,-0.676 z m 111.198,-26.701001 v 4.393801 h -15.885 c -0.364,0 -0.676,-0.3119 -0.676,-0.676 v -3.717801 c 0,-0.3641 0.312,-0.676 0.676,-0.676 h 15.209 c 0.365,0 0.676,0.3119 0.676,0.676 z m -35.488,7.435701 c 0,2.9743 0.811,5.7458 2.23,8.1117 2.704,4.5628 7.639,7.6385 13.317,7.7737 h 19.265 c 2.231,0 4.056,1.8251 4.056,4.0559 v 4.0556 c 0,2.231 -1.825,4.056 -4.056,4.056 h -15.209 c -2.231,0 -4.056,-1.825 -4.056,-4.056 v -3.3797 h -15.547 v 7.0977 c 0,8.788 7.097,15.885 15.885,15.885 h 22.645 c 8.788,0 15.886,-7.097 15.886,-15.885 v -11.4915 c 0,-3.5827 -1.183,-6.8612 -3.177,-9.5313 -2.839,-3.7854 -7.301,-6.2527 -12.371,-6.3541 h -19.265 c -2.231,0 -4.056,-1.8252 -4.056,-4.0559 v -3.717801 c 0,-2.2307 1.825,-4.0559 4.056,-4.0559 h 15.209 c 2.231,0 4.056,1.8252 4.056,4.0559 v 2.365901 h 13.858 v -6.083801 c 0,-8.7877 -7.098,-15.8854 -15.886,-15.8854 h -20.955 c -8.788,0 -15.885,7.0977 -15.885,15.8854 z m 19.603,24.6729 c -0.364,0 -0.676,-0.312 -0.676,-0.676 v -4.7316 h 15.885 c 0.365,0 0.676,0.3119 0.676,0.676 v 4.0556 c 0,0.364 -0.311,0.676 -0.676,0.676 z m 174.402,-51.711901 8.111,42.383601 8.112,-42.383601 h 23.321 v 70.638901 h -15.547 V 98.794809 l -9.802,51.213001 h -12.168 l -9.801,-51.213001 v 51.213001 h -15.548 V 79.368909 Z"
     id="path24"
     inkscape:connector-curvature="0"
     style="clip-rule:evenodd;fill:#ffffff;fill-rule:evenodd" />
</svg>
