<?xml version="1.0" encoding="UTF-8" standalone="no"?>
<!-- Created with Inkscape (http://www.inkscape.org/) -->

<svg
   xmlns:dc="http://purl.org/dc/elements/1.1/"
   xmlns:cc="http://creativecommons.org/ns#"
   xmlns:rdf="http://www.w3.org/1999/02/22-rdf-syntax-ns#"
   xmlns:svg="http://www.w3.org/2000/svg"
   xmlns="http://www.w3.org/2000/svg"
   xmlns:sodipodi="http://sodipodi.sourceforge.net/DTD/sodipodi-0.dtd"
   xmlns:inkscape="http://www.inkscape.org/namespaces/inkscape"
   width="500"
   height="200"
   viewBox="0 0 500 200"
   version="1.1"
   id="svg8"
   sodipodi:docname="dbz.svg"
   inkscape:version="0.92.5 (2060ec1f9f, 2020-04-08)">
  <defs
     id="defs2" />
  <sodipodi:namedview
     id="base"
     pagecolor="#ffffff"
     bordercolor="#666666"
     borderopacity="1.0"
     inkscape:pageopacity="0.0"
     inkscape:pageshadow="2"
     inkscape:zoom="1.4838448"
     inkscape:cx="249.85568"
     inkscape:cy="27.143927"
     inkscape:document-units="mm"
     inkscape:current-layer="layer1"
     showgrid="false"
     units="px"
     inkscape:pagecheckerboard="true"
     inkscape:window-width="1366"
     inkscape:window-height="743"
     inkscape:window-x="0"
     inkscape:window-y="0"
     inkscape:window-maximized="1" />
  <metadata
     id="metadata5">
    <rdf:RDF>
      <cc:Work
         rdf:about="">
        <dc:format>image/svg+xml</dc:format>
        <dc:type
           rdf:resource="http://purl.org/dc/dcmitype/StillImage" />
        <dc:title />
      </cc:Work>
    </rdf:RDF>
  </metadata>
  <g
     inkscape:label="Layer 1"
     inkscape:groupmode="layer"
     id="layer1"
     transform="translate(-3.1487651,-252.21538)">
    <g
       id="g2386"
       transform="matrix(4.8230082,0,0,4.8230082,-59.459517,-944.11424)">
      <path
         style="fill:#f4e809;stroke-width:0.0919235"
         d="m 84.126907,280.65275 c 0,-0.15013 1.418483,-1.89487 7.70685,-9.47952 1.145651,-1.38181 2.152737,-2.60405 2.237967,-2.71609 0.148473,-0.19518 0.139374,-0.23915 -0.217243,-1.04965 -0.204715,-0.46526 -0.401579,-0.84594 -0.437478,-0.84594 -0.0359,0 -1.489347,1.28181 -3.229888,2.84847 -1.74054,1.56666 -3.216324,2.84899 -3.279522,2.84963 -0.0632,6.4e-4 -0.114904,-0.094 -0.114904,-0.21039 0,-0.11635 0.354087,-1.6779 0.78686,-3.47011 0.432773,-1.79221 1.338362,-5.55435 2.012419,-8.36032 0.674057,-2.80596 1.271653,-5.27266 1.327992,-5.48154 l 0.102433,-0.37979 0.849681,-0.054 c 0.467324,-0.0297 6.226627,-0.0656 12.798446,-0.0798 10.81088,-0.0233 11.95143,-0.012 11.97667,0.11889 0.0153,0.0796 -0.62653,0.94826 -1.42639,1.9304 -0.79984,0.98213 -3.20733,3.93671 -5.34995,6.56572 -2.14263,2.62901 -3.93432,4.83034 -3.98153,4.89184 -0.051,0.0665 -0.0532,0.20984 -0.005,0.35343 0.0788,0.23637 0.17582,0.16358 4.4601,-3.34549 2.40875,-1.97291 4.48564,-3.65662 4.6153,-3.74158 0.20468,-0.13411 0.24267,-0.13646 0.2882,-0.0178 0.0288,0.0752 -0.38822,1.55846 -0.9268,3.29622 -0.53859,1.73777 -1.26137,4.06962 -1.60618,5.18189 -0.34482,1.11228 -1.12985,3.65626 -1.74453,5.6533 -0.61469,1.99704 -1.2495,4.04463 -1.41071,4.55021 l -0.29311,0.91924 -0.96435,0.0569 c -0.53039,0.0313 -6.18675,0.0849 -12.569689,0.11917 -11.137795,0.0597 -11.605314,0.0556 -11.605314,-0.10324 z m 14.20218,-17.2166 0.638538,-0.64346 -0.870812,9e-5 -0.870807,9e-5 -0.689427,0.63894 -0.689426,0.63894 0.9217,0.004 0.921701,0.004 z m -70.563824,15.94873 -0.29277,-0.32173 h -2.417967 c -2.759736,0 -2.608284,0.0483 -2.608284,-0.8311 0,-0.41511 -0.02043,-0.46765 -0.160867,-0.41372 -1.326485,0.50944 -3.955314,1.19022 -4.213476,1.09115 -0.174819,-0.0671 -0.152602,0.0526 -0.7311,-3.93693 -0.278586,-1.9212 -0.589775,-4.05152 -0.691533,-4.73406 -0.101756,-0.68253 -0.307361,-2.08228 -0.456901,-3.11054 -0.14954,-1.02827 -0.295194,-1.90729 -0.323678,-1.95338 -0.02848,-0.0461 -0.275401,-0.0838 -0.548707,-0.0838 -0.379196,0 -0.517305,-0.0381 -0.582964,-0.16087 -0.04732,-0.0885 -0.300824,-1.48456 -0.563333,-3.10242 -0.262509,-1.61785 -0.65747,-4.02952 -0.87769,-5.35926 -0.22022,-1.32975 -0.377405,-2.47764 -0.349301,-2.55088 0.07016,-0.18284 0.549994,-0.17033 2.099708,0.0547 2.388458,0.34687 4.983905,1.13341 7.275604,2.20485 0.837932,0.39176 0.947218,0.42182 1.073725,0.29531 0.122811,-0.12281 0.26428,-0.12695 1.105069,-0.0323 2.626414,0.29554 5.845104,1.474 7.965105,2.91627 l 0.781349,0.53156 2.517895,0.52051 c 2.034507,0.42058 2.546286,0.55638 2.665782,0.70736 0.14775,0.18669 0.148648,0.1867 0.975198,0.0104 1.672433,-0.35681 3.64823,-0.32778 5.101754,0.075 0.684784,0.18974 1.987388,0.77754 2.620342,1.18244 0.556098,0.35573 0.74887,0.36161 0.796678,0.0243 0.02957,-0.20865 0.05562,-0.21348 1.454925,-0.27006 0.783648,-0.0317 2.851926,-0.0864 4.596175,-0.12162 2.586196,-0.0522 3.337611,-0.0971 4.072378,-0.24323 2.549194,-0.50706 5.470332,-0.44805 7.481114,0.15113 0.174006,0.0519 0.209178,0.016 0.262405,-0.26776 0.03381,-0.1802 0.109434,-0.36745 0.168064,-0.4161 0.135695,-0.11262 3.505497,-0.3931 4.640364,-0.38623 0.472696,0.003 0.927717,-0.0311 1.011159,-0.0756 0.08344,-0.0444 1.458977,-0.25922 3.056746,-0.47734 2.843007,-0.38812 2.907941,-0.40165 3.041139,-0.63373 0.124859,-0.21756 0.455307,-0.32226 4.000257,-1.26755 2.125285,-0.56672 3.931581,-1.0304 4.013991,-1.0304 0.198981,0 0.193672,0.26025 -0.03504,1.71759 -0.10168,0.6479 -0.453964,2.99809 -0.782853,5.22264 -0.328888,2.22455 -0.621272,4.15839 -0.649742,4.29742 -0.04836,0.23616 -0.03163,0.25247 0.254292,0.24795 0.168331,-0.003 0.597733,-0.0571 0.954228,-0.12099 0.356495,-0.0639 0.697761,-0.0996 0.758369,-0.0794 0.06061,0.0202 0.109034,0.16773 0.107614,0.32783 -0.0046,0.51745 -1.434179,8.88869 -1.535211,8.98972 -0.05912,0.0591 -2.028315,0.20709 -4.981208,0.37431 -3.875363,0.21946 -4.911495,0.25326 -5.01936,0.16374 -0.07719,-0.0641 -0.135923,-0.26684 -0.135923,-0.46924 0,-0.22481 -0.04243,-0.35579 -0.114904,-0.35468 -0.0632,9.6e-4 -1.226676,0.10271 -2.585507,0.2261 -2.000205,0.18163 -2.504171,0.25472 -2.646906,0.3839 -0.1638,0.14823 -0.299242,0.15152 -1.909778,0.0463 l -1.733475,-0.1132 -0.321566,0.21822 c -0.305018,0.20699 -0.422143,0.22135 -2.275913,0.27908 -1.074891,0.0335 -2.378566,0.0609 -2.897056,0.0609 -0.894006,0 -0.951414,0.0117 -1.111241,0.22575 l -0.168533,0.22575 -5.885791,0.0641 c -4.475071,0.0487 -5.93472,0.0379 -6.089932,-0.0451 -0.182916,-0.0979 -0.204141,-0.1806 -0.204141,-0.79545 0,-0.3774 -0.02548,-0.68619 -0.05663,-0.68619 -0.03115,0 -0.248315,0.13959 -0.482599,0.31019 -1.20251,0.87566 -2.543566,1.2629 -4.378682,1.26439 -1.141309,9.1e-4 -1.960463,-0.12941 -2.931542,-0.46643 -0.529148,-0.18364 -0.581558,-0.18481 -2.292021,-0.051 -1.552606,0.12141 -1.774192,0.12135 -1.96015,-4.6e-4 -0.16563,-0.10856 -0.543997,-0.1374 -1.801706,-0.1374 h -1.592047 l -1.510473,0.50557 c -0.830761,0.27807 -1.541904,0.50558 -1.580319,0.50558 -0.03842,0 -0.201593,-0.14478 -0.362616,-0.32173 z"
         id="path2400"
         inkscape:connector-curvature="0" />
      <path
         style="fill:#9f9fa0;stroke-width:0.0919235"
         d="m 84.126907,280.65275 c 0,-0.15013 1.418483,-1.89487 7.70685,-9.47952 1.145651,-1.38181 2.152737,-2.60405 2.237967,-2.71609 0.148473,-0.19518 0.139374,-0.23915 -0.217243,-1.04965 -0.204715,-0.46526 -0.401579,-0.84594 -0.437478,-0.84594 -0.0359,0 -1.489347,1.28181 -3.229888,2.84847 -1.74054,1.56666 -3.216324,2.84899 -3.279522,2.84963 -0.0632,6.4e-4 -0.114904,-0.094 -0.114904,-0.21039 0,-0.11635 0.354087,-1.6779 0.78686,-3.47011 0.432773,-1.79221 1.338362,-5.55435 2.012419,-8.36032 0.674057,-2.80596 1.271653,-5.27266 1.327992,-5.48154 l 0.102433,-0.37979 0.849681,-0.054 c 0.467324,-0.0297 6.226627,-0.0656 12.798446,-0.0798 10.81088,-0.0233 11.95143,-0.012 11.97667,0.11889 0.0153,0.0796 -0.62653,0.94826 -1.42639,1.9304 -0.79984,0.98213 -3.20733,3.93671 -5.34995,6.56572 -2.14263,2.62901 -3.93432,4.83034 -3.98153,4.89184 -0.051,0.0665 -0.0532,0.20984 -0.005,0.35343 0.0788,0.23637 0.17582,0.16358 4.4601,-3.34549 2.40875,-1.97291 4.48564,-3.65662 4.6153,-3.74158 0.20468,-0.13411 0.24267,-0.13646 0.2882,-0.0178 0.0288,0.0752 -0.38822,1.55846 -0.9268,3.29622 -0.53859,1.73777 -1.26137,4.06962 -1.60618,5.18189 -0.34482,1.11228 -1.12985,3.65626 -1.74453,5.6533 -0.61469,1.99704 -1.2495,4.04463 -1.41071,4.55021 l -0.29311,0.91924 -0.96435,0.0569 c -0.53039,0.0313 -6.18675,0.0849 -12.569689,0.11917 -11.137795,0.0597 -11.605314,0.0556 -11.605314,-0.10324 z m 14.20218,-17.2166 0.638538,-0.64346 -0.870812,9e-5 -0.870807,9e-5 -0.689427,0.63894 -0.689426,0.63894 0.9217,0.004 0.921701,0.004 z m -70.563824,15.94873 -0.29277,-0.32173 h -2.417967 c -2.759736,0 -2.608284,0.0483 -2.608284,-0.8311 0,-0.41511 -0.02043,-0.46765 -0.160867,-0.41372 -1.326485,0.50944 -3.955314,1.19022 -4.213476,1.09115 -0.174819,-0.0671 -0.152602,0.0526 -0.7311,-3.93693 -0.278586,-1.9212 -0.589775,-4.05152 -0.691533,-4.73406 -0.101756,-0.68253 -0.307361,-2.08228 -0.456901,-3.11054 -0.14954,-1.02827 -0.295194,-1.90729 -0.323678,-1.95338 -0.02848,-0.0461 -0.275401,-0.0838 -0.548707,-0.0838 -0.379196,0 -0.517305,-0.0381 -0.582964,-0.16087 -0.04732,-0.0885 -0.300824,-1.48456 -0.563333,-3.10242 -0.262509,-1.61785 -0.65747,-4.02952 -0.87769,-5.35926 -0.22022,-1.32975 -0.377405,-2.47764 -0.349301,-2.55088 0.07016,-0.18284 0.549994,-0.17033 2.099708,0.0547 2.388458,0.34687 4.983905,1.13341 7.275604,2.20485 0.837932,0.39176 0.947218,0.42182 1.073725,0.29531 0.122811,-0.12281 0.26428,-0.12695 1.105069,-0.0323 2.626414,0.29554 5.845104,1.474 7.965105,2.91627 l 0.781349,0.53156 2.517895,0.52051 c 2.034507,0.42058 2.546286,0.55638 2.665782,0.70736 0.14775,0.18669 0.148648,0.1867 0.975198,0.0104 1.672433,-0.35681 3.64823,-0.32778 5.101754,0.075 0.684784,0.18974 1.987388,0.77754 2.620342,1.18244 0.556098,0.35573 0.74887,0.36161 0.796678,0.0243 0.02957,-0.20865 0.05562,-0.21348 1.454925,-0.27006 0.783648,-0.0317 2.851926,-0.0864 4.596175,-0.12162 2.586196,-0.0522 3.337611,-0.0971 4.072378,-0.24323 2.549194,-0.50706 5.470332,-0.44805 7.481114,0.15113 0.174006,0.0519 0.209178,0.016 0.262405,-0.26776 0.03381,-0.1802 0.109434,-0.36745 0.168064,-0.4161 0.135695,-0.11262 3.505497,-0.3931 4.640364,-0.38623 0.472696,0.003 0.927717,-0.0311 1.011159,-0.0756 0.08344,-0.0444 1.458977,-0.25922 3.056746,-0.47734 2.843007,-0.38812 2.907941,-0.40165 3.041139,-0.63373 0.124859,-0.21756 0.455307,-0.32226 4.000257,-1.26755 2.125285,-0.56672 3.931581,-1.0304 4.013991,-1.0304 0.198981,0 0.193672,0.26025 -0.03504,1.71759 -0.10168,0.6479 -0.453964,2.99809 -0.782853,5.22264 -0.328888,2.22455 -0.621272,4.15839 -0.649742,4.29742 -0.04836,0.23616 -0.03163,0.25247 0.254292,0.24795 0.168331,-0.003 0.597733,-0.0571 0.954228,-0.12099 0.356495,-0.0639 0.697761,-0.0996 0.758369,-0.0794 0.06061,0.0202 0.109034,0.16773 0.107614,0.32783 -0.0046,0.51745 -1.434179,8.88869 -1.535211,8.98972 -0.05912,0.0591 -2.028315,0.20709 -4.981208,0.37431 -3.875363,0.21946 -4.911495,0.25326 -5.01936,0.16374 -0.07719,-0.0641 -0.135923,-0.26684 -0.135923,-0.46924 0,-0.22481 -0.04243,-0.35579 -0.114904,-0.35468 -0.0632,9.6e-4 -1.226676,0.10271 -2.585507,0.2261 -2.000205,0.18163 -2.504171,0.25472 -2.646906,0.3839 -0.1638,0.14823 -0.299242,0.15152 -1.909778,0.0463 l -1.733475,-0.1132 -0.321566,0.21822 c -0.305018,0.20699 -0.422143,0.22135 -2.275913,0.27908 -1.074891,0.0335 -2.378566,0.0609 -2.897056,0.0609 -0.894006,0 -0.951414,0.0117 -1.111241,0.22575 l -0.168533,0.22575 -5.885791,0.0641 c -4.475071,0.0487 -5.93472,0.0379 -6.089932,-0.0451 -0.182916,-0.0979 -0.204141,-0.1806 -0.204141,-0.79545 0,-0.3774 -0.02548,-0.68619 -0.05663,-0.68619 -0.03115,0 -0.248315,0.13959 -0.482599,0.31019 -1.20251,0.87566 -2.543566,1.2629 -4.378682,1.26439 -1.141309,9.1e-4 -1.960463,-0.12941 -2.931542,-0.46643 -0.529148,-0.18364 -0.581558,-0.18481 -2.292021,-0.051 -1.552606,0.12141 -1.774192,0.12135 -1.96015,-4.6e-4 -0.16563,-0.10856 -0.543997,-0.1374 -1.801706,-0.1374 h -1.592047 l -1.510473,0.50557 c -0.830761,0.27807 -1.541904,0.50558 -1.580319,0.50558 -0.03842,0 -0.201593,-0.14478 -0.362616,-0.32173 z m 17.866229,-2.0405 c 0.66968,-0.31596 1.54217,-1.05949 1.54217,-1.31422 0,-0.0938 -0.2193,-0.29356 -0.53907,-0.49093 -0.728277,-0.44952 -1.591144,-1.39241 -1.936555,-2.11616 -0.155144,-0.32507 -0.28208,-0.65245 -0.28208,-0.72751 0,-0.21604 -0.186451,-0.30836 -0.830473,-0.41119 -1.19388,-0.19063 -2.016249,-0.81871 -2.325433,-1.77605 -0.483697,-1.49768 0.295224,-3.51255 1.611473,-4.16846 0.909705,-0.45333 1.658902,-0.25002 2.468643,0.66989 0.272548,0.30963 0.527609,0.56296 0.566802,0.56296 0.03919,0 0.275496,-0.14673 0.525115,-0.32606 0.24962,-0.17933 0.777127,-0.44372 1.172238,-0.58752 l 0.718384,-0.26146 0.05985,-0.49258 c 0.03292,-0.27092 0.06394,-0.72628 0.06894,-1.01192 0.009,-0.51495 0.0049,-0.5231 -0.483156,-0.96519 -1.765035,-1.59871 -4.306843,-2.17496 -6.448141,-1.46185 -0.801359,0.26688 -1.953201,0.88182 -2.256544,1.20471 l -0.191123,0.20344 0.502624,2.14797 c 0.773365,3.30498 2.557652,11.04046 2.597746,11.2621 0.0524,0.28966 0.551097,0.39338 1.783434,0.3709 0.975321,-0.0178 1.104943,-0.0418 1.675152,-0.31087 z m 8.383601,0.16718 c 0.02747,-0.0444 0.08748,-0.58461 0.133352,-1.20036 0.04587,-0.61576 0.109262,-1.14541 0.14086,-1.17701 0.09103,-0.091 0.190823,0.0501 0.795464,1.12529 0.31276,0.55614 0.631983,1.08355 0.709386,1.17203 0.121673,0.13908 0.316213,0.16067 1.436396,0.15946 0.712614,-7.4e-4 1.354032,-0.0384 1.425372,-0.0835 0.143094,-0.0906 0.148533,0.26353 -0.13848,-9.0155 -0.08366,-2.70485 -0.177965,-4.94476 -0.209559,-4.97757 -0.114537,-0.11896 -2.38441,-0.16377 -2.477286,-0.0489 -0.04828,0.0597 -0.114714,0.83246 -0.147637,1.71722 -0.06662,1.7902 -0.120515,2.29809 -0.243881,2.29809 -0.0459,0 -0.559509,-0.95141 -1.141347,-2.11424 l -1.057887,-2.11424 -1.079718,0.001 c -0.593845,7.4e-4 -1.14084,0.0401 -1.215546,0.0873 -0.102512,0.0648 -0.163044,0.4529 -0.246779,1.5821 -0.111708,1.50642 -0.08591,1.73037 0.199372,1.73037 0.06379,0 0.462041,0.17237 0.884998,0.38305 1.343398,0.66916 2.193981,1.71893 2.56353,3.16385 0.215413,0.84226 0.224259,1.24765 0.04562,2.09076 -0.190181,0.89759 -0.555064,1.56669 -1.265079,2.31982 -0.671564,0.71234 -1.549728,1.23219 -2.413527,1.42874 -0.843094,0.19184 -0.847048,0.19531 -0.917921,0.80596 -0.0353,0.30418 -0.03726,0.59663 -0.0043,0.64988 0.074,0.11974 4.150989,0.1352 4.224643,0.016 z M 32.9848,276.8074 c 1.572686,-0.57956 1.871113,-0.71851 1.871113,-0.87121 0,-0.039 -0.765263,-1.21558 -1.700584,-2.61456 -0.935322,-1.39897 -1.700585,-2.62011 -1.700585,-2.71363 0,-0.0935 0.190664,-0.33786 0.423698,-0.54299 1.357749,-1.19514 2.33531,-3.2179 2.333313,-4.82807 -0.0032,-2.57725 -1.460554,-4.85624 -3.971561,-6.21066 -0.95729,-0.51635 -2.538864,-1.01748 -3.284721,-1.04076 l -0.602483,-0.0188 -0.02663,0.80895 -0.02663,0.80896 0.412503,0.66184 c 0.87271,1.4002 1.506288,3.01246 1.762777,4.48571 0.219218,1.25916 0.137606,3.38418 -0.178228,4.64076 -0.402125,1.5999 -1.050969,3.05102 -2.142492,4.79161 l -0.588553,0.93854 0.02593,1.08378 0.02593,1.08378 1.780651,0.025 c 1.216207,0.0171 1.820071,-0.008 1.905008,-0.0782 0.09179,-0.0762 0.131007,-0.45392 0.149742,-1.44227 0.01647,-0.86855 0.06081,-1.35083 0.126195,-1.37255 0.08312,-0.0276 0.575219,1.00299 1.292629,2.70716 0.08036,0.1909 0.190027,0.29875 0.303769,0.29875 0.0979,0 0.912043,-0.27051 1.809204,-0.60113 z m -3.032565,-9.21171 c -0.07753,-0.12552 0.110531,-2.16086 0.208733,-2.25906 0.127132,-0.12714 0.538235,0.24875 0.708121,0.64745 0.232803,0.54637 0.146849,1.01698 -0.269167,1.47373 -0.181663,0.19945 -0.559923,0.27997 -0.647687,0.13788 z m 9.94315,9.35964 c 0.57244,-0.0412 1.079669,-0.11376 1.127176,-0.16127 0.05389,-0.0539 -0.36067,-2.00323 -1.102122,-5.18242 -0.653674,-2.80283 -1.423039,-6.1095 -1.7097,-7.34817 -0.286661,-1.23867 -0.572007,-2.30506 -0.634102,-2.36975 -0.154478,-0.16093 -3.089598,-0.69932 -3.201645,-0.58727 -0.05399,0.054 0.01682,0.32337 0.188576,0.7174 0.151268,0.34703 0.344223,0.85847 0.42879,1.13653 0.209723,0.6896 0.286542,2.32157 0.143669,3.05213 -0.230135,1.17676 -0.98791,2.75415 -1.889916,3.93406 -0.640237,0.83749 -0.675949,0.70927 0.726283,2.60761 0.684377,0.92651 1.305036,1.73495 1.379242,1.79654 0.186065,0.15442 0.293058,-0.0684 0.37407,-0.77916 0.08448,-0.74117 0.126157,-0.79297 0.610094,-0.75834 l 0.404545,0.0289 0.472636,1.86112 c 0.259949,1.02361 0.496503,1.92331 0.525674,1.99933 0.06126,0.15965 0.516138,0.17077 2.15673,0.0527 z m -4.16307,-7.35524 c -0.07216,-0.11675 0.139093,-2.16287 0.239344,-2.31821 0.06473,-0.10031 0.09341,-0.10092 0.156466,-0.003 0.109475,0.16944 0.405301,2.20507 0.336604,2.31623 -0.07223,0.11687 -0.660827,0.12114 -0.732414,0.005 z m -13.442401,6.75816 c 3.34036,-1.70446 5.421595,-5.33908 5.425494,-9.47496 0.0017,-1.77926 -0.234236,-3.00449 -0.871238,-4.52486 -0.604486,-1.44275 -1.214017,-2.34217 -2.340363,-3.45339 -1.175205,-1.15944 -2.77203,-2.09295 -4.609951,-2.69501 -1.184813,-0.38811 -2.827043,-0.6682 -2.985978,-0.50927 -0.117374,0.11738 -0.119241,0.10148 0.487323,4.15038 0.54519,3.63922 0.622332,4.06765 0.756598,4.20191 0.06766,0.0677 0.337663,0.14845 0.600001,0.17952 0.824504,0.0976 0.576202,-1.04288 1.997964,9.17728 0.399168,2.86937 0.497545,3.35521 0.679394,3.35521 0.03492,0 0.422258,-0.18307 0.860756,-0.40681 z m 0.213241,-7.29704 c -0.02522,-0.0408 -0.131975,-0.89915 -0.237224,-1.90741 -0.10525,-1.00827 -0.21299,-1.94038 -0.239422,-2.07136 -0.08193,-0.40597 0.135228,-0.48636 0.721377,-0.26705 1.771114,0.66265 2.30951,2.1419 1.227132,3.37155 -0.558751,0.63477 -1.334937,1.09582 -1.471863,0.87427 z m 21.614596,1.65271 c 0.0635,-0.0403 0.179118,-0.31774 0.256936,-0.6165 0.07782,-0.29875 0.263717,-0.76887 0.41311,-1.0447 0.149394,-0.27582 0.271625,-0.55267 0.271625,-0.61522 0,-0.1332 -1.060811,-0.25176 -1.83847,-0.20546 l -0.50558,0.0301 -0.02598,1.09004 c -0.01676,0.70309 0.01037,1.13385 0.07643,1.21344 0.05633,0.0679 0.316213,0.13848 0.577525,0.1569 0.261313,0.0184 0.51648,0.0405 0.567038,0.0491 0.05056,0.009 0.143876,-0.0174 0.207373,-0.0577 z"
         id="path2398"
         inkscape:connector-curvature="0" />
      <path
         style="fill:#f25c08;stroke-width:0.0919235"
         d="m 84.32221,280.5487 c 0.01898,-0.0552 2.262553,-2.79349 4.985722,-6.08513 2.723169,-3.29164 4.972522,-6.06627 4.998563,-6.16585 0.06171,-0.236 -0.697052,-1.92001 -0.865099,-1.92001 -0.06973,0 -0.385123,0.23785 -0.70088,0.52856 -1.305207,1.20166 -5.607443,5.03509 -5.682687,5.06345 -0.04471,0.0168 -0.08129,-0.0265 -0.08129,-0.0963 0,-0.10939 1.320252,-5.63639 3.548559,-14.85542 0.33387,-1.3813 0.65446,-2.52579 0.712422,-2.54331 0.237222,-0.0717 25.24646,-0.14024 25.24646,-0.0692 0,0.0731 -1.17907,1.52909 -7.88616,9.73852 -2.48278,3.0389 -2.8687,3.55231 -2.86748,3.81482 9.1e-4,0.16684 0.0386,0.36212 0.0841,0.43396 0.0708,0.1119 0.11341,0.11003 0.29734,-0.0131 0.11807,-0.079 2.15885,-1.73779 4.53508,-3.68611 3.06609,-2.51397 4.32805,-3.4976 4.34674,-3.38808 0.0145,0.0849 -0.88744,3.11197 -2.00428,6.72686 -1.11684,3.61489 -2.42515,7.85486 -2.90734,9.42216 -0.4822,1.56729 -0.92465,2.89745 -0.98324,2.95589 -0.14839,0.14805 -24.827235,0.28583 -24.776507,0.13832 z m 14.121782,-16.9905 c 0.366545,-0.38823 0.666445,-0.76065 0.666445,-0.82761 0,-0.0933 -0.224362,-0.12175 -0.959088,-0.12175 H 97.19226 l -0.786979,0.74494 c -0.432838,0.40972 -0.76407,0.78201 -0.736071,0.82732 0.028,0.0453 0.51383,0.0825 1.079622,0.0827 l 1.028714,2.7e-4 z m -70.588799,15.6888 -0.203886,-0.27577 h -2.365206 c -1.300863,0 -2.430637,-0.0251 -2.510609,-0.0558 -0.111412,-0.0428 -0.145403,-0.19191 -0.145403,-0.63804 0,-0.32023 -0.03594,-0.60446 -0.07987,-0.63161 -0.04393,-0.0272 -0.509292,0.0958 -1.034139,0.27332 -1.614328,0.54587 -3.335014,0.94008 -3.43031,0.78589 -0.04917,-0.0796 -1.981417,-13.14397 -1.982001,-13.40082 -5.43e-4,-0.2387 -0.294584,-0.39724 -0.736776,-0.39724 -0.246194,0 -0.474243,-0.0431 -0.506776,-0.0957 -0.04735,-0.0766 -1.781478,-10.52455 -1.788289,-10.77424 -0.0054,-0.19899 1.9547,0.027 3.858906,0.44485 1.45005,0.31822 3.824603,1.13365 5.215385,1.79099 1.085883,0.51323 1.167009,0.53743 1.324312,0.39508 0.344746,-0.31199 2.665583,0.0791 4.812855,0.81106 1.440892,0.49117 3.52034,1.55562 4.597789,2.35358 0.209548,0.15519 0.883973,0.33 2.757705,0.7148 2.094074,0.43006 2.511433,0.54254 2.680114,0.7223 l 0.199795,0.21293 0.811364,-0.17956 c 1.042205,-0.23064 3.106985,-0.31789 4.055954,-0.17139 1.25833,0.19426 2.547452,0.68997 3.760554,1.44606 0.372691,0.23229 0.705594,0.39437 0.739783,0.36018 0.03419,-0.0342 0.10497,-0.19459 0.15729,-0.35646 l 0.09513,-0.29429 4.458289,-0.0732 c 4.274775,-0.0702 4.505587,-0.083 5.607333,-0.30929 2.092428,-0.42984 5.015959,-0.40669 6.819294,0.054 0.755673,0.19305 0.853046,0.16018 0.942792,-0.3182 0.03286,-0.17515 0.06821,-0.31903 0.07856,-0.31973 0.01035,-7.4e-4 0.954107,-0.08 2.09724,-0.1763 1.143133,-0.0963 2.325539,-0.15261 2.627568,-0.12522 0.331615,0.0301 0.626539,0.008 0.744523,-0.0548 0.172043,-0.0921 4.005829,-0.65145 5.626266,-0.82092 0.527322,-0.0551 0.600956,-0.0868 0.626903,-0.26951 0.01617,-0.11387 0.0989,-0.24194 0.183847,-0.28459 0.326058,-0.16375 7.650001,-2.06313 7.712882,-2.00025 0.07781,0.0778 -0.192702,2.00168 -1.306835,9.29421 -0.189716,1.24177 -0.276163,2.05596 -0.223978,2.10949 0.05348,0.0549 0.434303,0.031 1.027354,-0.0642 0.518302,-0.0833 0.96942,-0.1225 1.002484,-0.0872 0.03306,0.0353 -0.272546,2.08145 -0.679133,4.54694 -0.691045,4.1904 -0.751908,4.48543 -0.933389,4.52464 -0.205688,0.0444 -8.776471,0.50906 -9.36351,0.5076 -0.338921,-8.3e-4 -0.344713,-0.007 -0.344713,-0.3573 0,-0.19604 -0.05332,-0.40069 -0.118489,-0.45478 -0.08486,-0.0704 -0.848024,-0.0323 -2.688762,0.13425 -2.043742,0.18493 -2.61747,0.26585 -2.800664,0.395 -0.215414,0.15187 -0.337911,0.1546 -1.884432,0.0421 -0.909722,-0.0662 -1.681891,-0.12203 -1.71593,-0.12408 -0.03404,-0.002 -0.184252,0.0992 -0.333805,0.22508 l -0.271916,0.2288 -2.942917,0.071 -2.942919,0.071 -0.185236,0.2288 -0.185236,0.22879 -5.92382,0.0314 -5.923822,0.0314 -0.05835,-0.35316 c -0.03209,-0.19423 -0.0588,-0.5472 -0.05936,-0.78436 -5.51e-4,-0.23717 -0.03845,-0.45435 -0.0842,-0.48263 -0.04576,-0.0283 -0.262925,0.0996 -0.482598,0.28421 -0.547533,0.4601 -1.72975,1.01274 -2.559609,1.19653 -0.835641,0.18507 -2.746598,0.20814 -3.539054,0.0427 -0.303348,-0.0633 -0.8411,-0.21099 -1.195006,-0.32814 l -0.643464,-0.21301 -1.724895,0.13633 c -1.573096,0.12433 -1.744717,0.12334 -1.95014,-0.0113 -0.184165,-0.12067 -0.506227,-0.14759 -1.765856,-0.14759 H 31.32155 l -1.579483,0.50558 c -0.868715,0.27807 -1.602769,0.50558 -1.631232,0.50558 -0.02846,0 -0.143498,-0.1241 -0.255635,-0.27577 z m 16.842805,-1.60898 c 0.640526,-0.0792 1.505726,-0.53581 2.113388,-1.11542 0.300368,-0.2865 0.546123,-0.54588 0.546123,-0.5764 0,-0.0305 -0.208166,-0.15099 -0.462591,-0.26771 -0.556535,-0.25531 -1.530085,-1.14386 -1.921353,-1.7536 -0.156095,-0.24326 -0.377189,-0.70313 -0.491317,-1.02195 l -0.207507,-0.57966 -0.488432,-0.0247 c -1.562606,-0.079 -2.682006,-1.2229 -2.678507,-2.73709 0.0031,-1.34429 0.755944,-2.71943 1.763722,-3.22163 0.564523,-0.28131 1.072741,-0.30238 1.590395,-0.0659 0.35108,0.16036 0.941377,0.72754 1.245336,1.19655 l 0.142255,0.21951 0.498324,-0.37717 c 0.447917,-0.33902 1.56888,-0.84319 1.874718,-0.84319 0.08201,0 0.137667,-0.21919 0.178588,-0.7033 0.109324,-1.29329 0.09235,-1.41443 -0.2393,-1.70766 -0.684936,-0.60561 -1.814826,-1.26952 -2.65303,-1.55889 -0.801165,-0.27659 -0.948725,-0.29792 -2.05805,-0.29754 -1.066004,3.6e-4 -1.27439,0.0278 -1.930393,0.25458 -0.810888,0.28026 -1.959826,0.898 -2.255433,1.21266 l -0.189847,0.20209 0.413814,1.78163 c 0.227597,0.97989 0.91423,3.91195 1.525849,6.51569 0.743886,3.1668 1.094897,4.828 1.060265,5.01781 l -0.05177,0.28375 0.621834,0.10734 c 1.065691,0.18395 1.054598,0.18362 2.052919,0.0602 z m 9.317095,-0.12646 c 0.02747,-0.0444 0.08748,-0.58461 0.133352,-1.20036 0.04587,-0.61576 0.111954,-1.14811 0.146845,-1.183 0.08839,-0.0884 0.245049,0.14385 0.933628,1.38407 l 0.599678,1.0801 h 1.458289 c 0.802058,0 1.473174,-0.031 1.491369,-0.0689 0.0182,-0.0379 0.004,-0.87557 -0.03164,-1.86145 -0.0356,-0.98588 -0.135754,-4.10898 -0.222569,-6.94022 -0.08682,-2.83125 -0.183891,-5.17525 -0.215722,-5.20889 -0.03183,-0.0337 -0.616312,-0.075 -1.298844,-0.0919 l -1.240967,-0.0307 -0.106349,2.02232 c -0.05849,1.11227 -0.110199,2.03266 -0.114905,2.0453 -0.06603,0.17738 -0.36374,-0.32098 -1.250851,-2.09392 l -1.059215,-2.11689 -1.216275,0.0256 -1.216274,0.0256 -0.110392,1.5627 c -0.06072,0.85948 -0.09304,1.61441 -0.07183,1.6776 0.02121,0.0632 0.117805,0.11491 0.214652,0.11491 0.09685,0 0.522144,0.17237 0.945101,0.38305 1.343398,0.66916 2.193981,1.71893 2.56353,3.16386 0.215413,0.84225 0.224259,1.24765 0.04562,2.09075 -0.184397,0.87029 -0.544887,1.53917 -1.228864,2.28015 -0.788854,0.85459 -1.797588,1.39555 -2.965712,1.59043 -0.322377,0.0538 -0.333817,0.0695 -0.389876,0.5362 -0.03176,0.26444 -0.05811,0.57387 -0.05855,0.68763 l -7.99e-4,0.20682 h 2.108815 c 1.159848,0 2.131289,-0.0364 2.158758,-0.0808 z m -22.601714,-0.0916 c 0.04803,-0.0443 0.500983,-0.22669 1.006562,-0.40532 0.505579,-0.17863 1.237453,-0.4481 1.626387,-0.59882 0.388933,-0.15072 0.729225,-0.25197 0.756205,-0.22499 0.124911,0.12491 0.151402,-0.27807 0.02743,-0.41732 -0.369416,-0.41495 -3.375223,-5.01361 -3.375223,-5.16385 0,-0.0944 0.190664,-0.33947 0.423698,-0.5446 1.024702,-0.90198 1.821477,-2.22598 2.163678,-3.59538 0.441121,-1.76525 -0.0364,-3.81211 -1.237704,-5.30537 -1.094455,-1.36044 -2.313552,-2.19001 -4.09155,-2.78422 -0.861243,-0.28782 -2.305892,-0.58988 -2.395012,-0.50076 -0.02625,0.0263 -0.03577,0.42895 -0.02115,0.89489 0.02575,0.82068 0.0391,0.86727 0.42731,1.49064 0.861426,1.38325 1.495878,3.00193 1.751005,4.46736 0.219218,1.25916 0.137606,3.38418 -0.178228,4.64076 -0.401755,1.59843 -1.051069,3.05117 -2.139543,4.78691 l -0.585605,0.93384 v 1.10604 c 0,0.60832 0.03102,1.11882 0.06894,1.13444 0.03792,0.0156 0.91167,0.008 1.941669,-0.0176 l 1.872726,-0.046 0.0117,-1.41694 c 0.0077,-0.93189 0.04604,-1.42846 0.112008,-1.45059 0.08027,-0.0269 1.14877,2.28184 1.359005,2.93647 0.05455,0.16988 0.32844,0.21613 0.475683,0.0803 z m -1.461144,-9.82422 c -0.07753,-0.12552 0.110531,-2.16086 0.208733,-2.25906 0.127132,-0.12714 0.538235,0.24875 0.708121,0.64745 0.232803,0.54637 0.146849,1.01698 -0.269167,1.47373 -0.181663,0.19945 -0.559923,0.27997 -0.647687,0.13788 z m 10.901687,9.332 c 0.154173,0.008 0.252789,-0.0332 0.252789,-0.10662 0,-0.0662 -0.168012,-0.84018 -0.373361,-1.71986 -0.205349,-0.87969 -0.951044,-4.08109 -1.6571,-7.11422 -0.706056,-3.03313 -1.324425,-5.66588 -1.374153,-5.85055 l -0.09041,-0.33578 -1.125095,-0.20079 c -0.618804,-0.11043 -1.369118,-0.26024 -1.667367,-0.33291 -0.298248,-0.0727 -0.56374,-0.11064 -0.58998,-0.0844 -0.04669,0.0467 0.02571,0.22564 0.353907,0.87474 0.569043,1.12546 0.802486,3.1159 0.510763,4.355 -0.289072,1.22784 -1.074473,2.77289 -1.980269,3.8956 -0.255142,0.31624 -0.463893,0.59397 -0.463893,0.61717 0,0.0232 0.589459,0.8444 1.309909,1.82489 0.720451,0.98049 1.356765,1.861 1.414034,1.95669 0.121745,0.20343 0.221649,0.1403 0.257344,-0.16262 0.192748,-1.63568 0.162337,-1.56962 0.704763,-1.53081 l 0.404545,0.0289 0.472636,1.86112 c 0.259949,1.02361 0.498291,1.92797 0.529648,2.00969 0.0508,0.13238 0.209677,0.14053 1.457758,0.0747 0.77041,-0.0406 1.5145,-0.0676 1.653535,-0.06 z m -5.121607,-7.3276 c -0.07216,-0.11675 0.139093,-2.16287 0.239344,-2.31821 0.06473,-0.10031 0.09341,-0.10092 0.156466,-0.003 0.109475,0.16944 0.405301,2.20507 0.336604,2.31623 -0.07223,0.11687 -0.660827,0.12114 -0.732414,0.005 z m -13.014397,6.54277 c 3.062611,-1.76036 4.993794,-5.33855 4.99749,-9.25957 0.0017,-1.77926 -0.234236,-3.00449 -0.871238,-4.52486 -1.017421,-2.42833 -2.671585,-4.17353 -5.118853,-5.40056 -1.409348,-0.70663 -3.631196,-1.33328 -4.732847,-1.33484 -0.235541,-3.7e-4 -0.25502,0.0235 -0.206347,0.25242 0.06668,0.31362 1.200326,7.81962 1.241457,8.21983 0.0035,0.0339 0.273668,0.0903 0.60041,0.12525 0.326743,0.035 0.657594,0.11067 0.735227,0.16818 0.144122,0.10677 0.316893,1.23797 1.384841,9.06711 0.237927,1.74424 0.446619,3.22161 0.46376,3.28303 0.03401,0.12185 0.750496,-0.16167 1.5061,-0.59599 z m -0.214763,-7.08165 c -0.02522,-0.0408 -0.131975,-0.89915 -0.237224,-1.90741 -0.10525,-1.00827 -0.21299,-1.94038 -0.239422,-2.07136 -0.07955,-0.39419 0.137212,-0.48818 0.66291,-0.28742 1.836422,0.70131 2.383478,2.14466 1.285599,3.39192 -0.558751,0.63477 -1.334937,1.09582 -1.471863,0.87427 z m 21.835167,1.24903 c 0.07139,-0.50286 0.463239,-1.40593 0.736042,-1.69631 0.205745,-0.21901 0.151724,-0.43157 -0.09162,-0.36052 -0.08422,0.0246 -0.608152,0.0125 -1.164289,-0.0269 -0.556137,-0.0394 -1.038866,-0.0475 -1.07273,-0.018 -0.03387,0.0295 -0.07414,0.59135 -0.08951,1.2486 l -0.02794,1.19501 0.595087,0.0549 c 1.044471,0.0964 1.044947,0.0963 1.114956,-0.39685 z"
         id="path2396"
         inkscape:connector-curvature="0" />
      <path
         style="fill:#e20e0e;stroke-width:0.0919235"
         d="m 84.32221,280.5487 c 0.01898,-0.0552 2.262553,-2.79349 4.985722,-6.08513 2.723169,-3.29164 4.972522,-6.06627 4.998563,-6.16585 0.06171,-0.236 -0.697052,-1.92001 -0.865099,-1.92001 -0.06973,0 -0.385123,0.23785 -0.70088,0.52856 -1.305207,1.20166 -5.607443,5.03509 -5.682687,5.06345 -0.04471,0.0168 -0.08129,-0.0265 -0.08129,-0.0963 0,-0.10939 1.320252,-5.63639 3.548559,-14.85542 0.33387,-1.3813 0.65446,-2.52579 0.712422,-2.54331 0.237222,-0.0717 25.24646,-0.14024 25.24646,-0.0692 0,0.0731 -1.17907,1.52909 -7.88616,9.73852 -2.48278,3.0389 -2.8687,3.55231 -2.86748,3.81482 9.1e-4,0.16684 0.0386,0.36212 0.0841,0.43396 0.0708,0.1119 0.11341,0.11003 0.29734,-0.0131 0.11807,-0.079 2.15885,-1.73779 4.53508,-3.68611 3.06609,-2.51397 4.32805,-3.4976 4.34674,-3.38808 0.0145,0.0849 -0.88744,3.11197 -2.00428,6.72686 -1.11684,3.61489 -2.42515,7.85486 -2.90734,9.42216 -0.4822,1.56729 -0.92465,2.89745 -0.98324,2.95589 -0.14839,0.14805 -24.827235,0.28583 -24.776507,0.13832 z m 14.121782,-16.9905 c 0.366545,-0.38823 0.666445,-0.76065 0.666445,-0.82761 0,-0.0933 -0.224362,-0.12175 -0.959088,-0.12175 H 97.19226 l -0.786979,0.74494 c -0.432838,0.40972 -0.76407,0.78201 -0.736071,0.82732 0.028,0.0453 0.51383,0.0825 1.079622,0.0827 l 1.028714,2.7e-4 z m -70.588799,15.6888 -0.203886,-0.27577 h -2.365206 c -1.300863,0 -2.430637,-0.0251 -2.510609,-0.0558 -0.111412,-0.0428 -0.145403,-0.19191 -0.145403,-0.63804 0,-0.32023 -0.03594,-0.60446 -0.07987,-0.63161 -0.04393,-0.0272 -0.509292,0.0958 -1.034139,0.27332 -1.614328,0.54587 -3.335014,0.94008 -3.43031,0.78589 -0.04917,-0.0796 -1.981417,-13.14397 -1.982001,-13.40082 -5.43e-4,-0.2387 -0.294584,-0.39724 -0.736776,-0.39724 -0.246194,0 -0.474243,-0.0431 -0.506776,-0.0957 -0.04735,-0.0766 -1.781478,-10.52455 -1.788289,-10.77424 -0.0054,-0.19899 1.9547,0.027 3.858906,0.44485 1.45005,0.31822 3.824603,1.13365 5.215385,1.79099 1.085883,0.51323 1.167009,0.53743 1.324312,0.39508 0.344746,-0.31199 2.665583,0.0791 4.812855,0.81106 1.440892,0.49117 3.52034,1.55562 4.597789,2.35358 0.209548,0.15519 0.883973,0.33 2.757705,0.7148 2.094074,0.43006 2.511433,0.54254 2.680114,0.7223 l 0.199795,0.21293 0.811364,-0.17956 c 1.042205,-0.23064 3.106985,-0.31789 4.055954,-0.17139 1.25833,0.19426 2.547452,0.68997 3.760554,1.44606 0.372691,0.23229 0.705594,0.39437 0.739783,0.36018 0.03419,-0.0342 0.10497,-0.19459 0.15729,-0.35646 l 0.09513,-0.29429 4.458289,-0.0732 c 4.274775,-0.0702 4.505587,-0.083 5.607333,-0.30929 2.092428,-0.42984 5.015959,-0.40669 6.819294,0.054 0.755673,0.19305 0.853046,0.16018 0.942792,-0.3182 0.03286,-0.17515 0.06821,-0.31903 0.07856,-0.31973 0.01035,-7.4e-4 0.954107,-0.08 2.09724,-0.1763 1.143133,-0.0963 2.325539,-0.15261 2.627568,-0.12522 0.331615,0.0301 0.626539,0.008 0.744523,-0.0548 0.172043,-0.0921 4.005829,-0.65145 5.626266,-0.82092 0.527322,-0.0551 0.600956,-0.0868 0.626903,-0.26951 0.01617,-0.11387 0.0989,-0.24194 0.183847,-0.28459 0.326058,-0.16375 7.650001,-2.06313 7.712882,-2.00025 0.07781,0.0778 -0.192702,2.00168 -1.306835,9.29421 -0.189716,1.24177 -0.276163,2.05596 -0.223978,2.10949 0.05348,0.0549 0.434303,0.031 1.027354,-0.0642 0.518302,-0.0833 0.96942,-0.1225 1.002484,-0.0872 0.03306,0.0353 -0.272546,2.08145 -0.679133,4.54694 -0.691045,4.1904 -0.751908,4.48543 -0.933389,4.52464 -0.205688,0.0444 -8.776471,0.50906 -9.36351,0.5076 -0.338921,-8.3e-4 -0.344713,-0.007 -0.344713,-0.3573 0,-0.19604 -0.05332,-0.40069 -0.118489,-0.45478 -0.08486,-0.0704 -0.848024,-0.0323 -2.688762,0.13425 -2.043742,0.18493 -2.61747,0.26585 -2.800664,0.395 -0.215414,0.15187 -0.337911,0.1546 -1.884432,0.0421 -0.909722,-0.0662 -1.681891,-0.12203 -1.71593,-0.12408 -0.03404,-0.002 -0.184252,0.0992 -0.333805,0.22508 l -0.271916,0.2288 -2.942917,0.071 -2.942919,0.071 -0.185236,0.2288 -0.185236,0.22879 -5.92382,0.0314 -5.923822,0.0314 -0.05835,-0.35316 c -0.03209,-0.19423 -0.0588,-0.5472 -0.05936,-0.78436 -5.51e-4,-0.23717 -0.03845,-0.45435 -0.0842,-0.48263 -0.04576,-0.0283 -0.262925,0.0996 -0.482598,0.28421 -0.547533,0.4601 -1.72975,1.01274 -2.559609,1.19653 -0.835641,0.18507 -2.746598,0.20814 -3.539054,0.0427 -0.303348,-0.0633 -0.8411,-0.21099 -1.195006,-0.32814 l -0.643464,-0.21301 -1.724895,0.13633 c -1.573096,0.12433 -1.744717,0.12334 -1.95014,-0.0113 -0.184165,-0.12067 -0.506227,-0.14759 -1.765856,-0.14759 H 31.32155 l -1.579483,0.50558 c -0.868715,0.27807 -1.602769,0.50558 -1.631232,0.50558 -0.02846,0 -0.143498,-0.1241 -0.255635,-0.27577 z m 17.434037,-1.71258 c 0.634862,-0.21379 1.32468,-0.66911 1.728555,-1.14095 0.186848,-0.21829 0.339276,-0.42047 0.338728,-0.44928 -5.51e-4,-0.0288 -0.25686,-0.19718 -0.569582,-0.37413 -0.887968,-0.50246 -1.552139,-1.22285 -2.004646,-2.17436 -0.212692,-0.44724 -0.41751,-0.87521 -0.455151,-0.95104 -0.04219,-0.085 -0.258895,-0.15877 -0.565026,-0.19235 -1.169899,-0.1283 -1.862702,-0.54889 -2.280132,-1.38424 -0.244489,-0.48927 -0.283341,-0.66624 -0.283341,-1.29062 0,-1.09491 0.31729,-1.94105 1.004577,-2.67897 0.457992,-0.49174 0.966819,-0.73855 1.523319,-0.73891 0.684978,-4.6e-4 1.160161,0.30402 1.847467,1.18373 l 0.284768,0.36449 0.335725,-0.25607 c 0.420249,-0.32054 1.297131,-0.75624 1.692524,-0.84097 0.522397,-0.11194 0.573576,-0.23079 0.573576,-1.332 v -0.99389 l -0.348305,-0.31467 c -2.069603,-1.86977 -4.925146,-2.3653 -7.334601,-1.2728 -0.313209,0.14202 -0.827166,0.43321 -1.142128,0.6471 -0.572157,0.38854 -0.572612,0.38921 -0.523018,0.76883 0.0273,0.20898 0.298891,1.43478 0.603533,2.724 1.823724,7.71788 2.393268,10.25145 2.346448,10.438 -0.04786,0.19067 -0.0066,0.21783 0.484118,0.31886 0.295035,0.0607 0.577794,0.12615 0.628352,0.14534 0.213077,0.0809 1.690676,-0.0625 2.11424,-0.2051 z m 8.800133,-0.0655 c 0.03722,-0.0585 0.07193,-0.37522 0.07713,-0.70385 0.01295,-0.81799 0.112559,-1.47687 0.223163,-1.47618 0.05056,2.8e-4 0.38349,0.50839 0.739848,1.12905 l 0.647923,1.12848 1.491305,0.0253 c 1.241106,0.021 1.499972,0.003 1.542965,-0.10936 0.02841,-0.074 0.0081,-1.32638 -0.04504,-2.78297 -0.05319,-1.45659 -0.143493,-4.19956 -0.200683,-6.09548 -0.05719,-1.89592 -0.130896,-3.8401 -0.163793,-4.3204 l -0.05981,-0.87328 -1.233594,-0.0258 c -0.678478,-0.0142 -1.265181,0.007 -1.303787,0.046 -0.0386,0.0394 -0.117746,0.91971 -0.175867,1.95615 -0.05812,1.03644 -0.140933,1.92105 -0.184025,1.96581 -0.04402,0.0457 -0.532527,-0.82805 -1.114952,-1.99427 -0.772147,-1.5461 -1.084394,-2.08575 -1.223932,-2.11527 -0.103031,-0.0218 -0.663034,-0.0137 -1.24445,0.0179 l -1.05712,0.0575 -0.05969,0.55154 c -0.03283,0.30335 -0.08904,1.03642 -0.124907,1.62906 l -0.06521,1.07751 0.262792,0.1014 c 2.385429,0.92041 3.613494,2.51286 3.616908,4.69009 0.0035,2.21821 -1.707857,4.27156 -3.911972,4.69379 -0.299874,0.0574 -0.596933,0.16888 -0.660131,0.24765 -0.123729,0.15419 -0.160339,1.22502 -0.04596,1.34434 0.111891,0.11673 4.193943,-0.0407 4.272901,-0.16474 z M 33.064,276.82111 c 1.007131,-0.37363 1.845421,-0.72215 1.862866,-0.77448 0.01744,-0.0523 -0.756647,-1.27663 -1.720203,-2.72065 -0.963555,-1.44402 -1.751919,-2.65146 -1.751919,-2.68321 0,-0.0317 0.332493,-0.40898 0.738873,-0.83829 0.827357,-0.87405 1.468435,-1.88972 1.756778,-2.78331 0.276408,-0.8566 0.337425,-2.45355 0.127437,-3.33529 -0.585959,-2.46043 -2.603892,-4.45995 -5.434552,-5.38497 -0.871076,-0.28465 -2.178492,-0.52363 -2.335126,-0.42682 -0.05118,0.0316 -0.09305,0.41127 -0.09305,0.84364 0,0.78184 0.0025,0.79036 0.464985,1.55595 0.846137,1.40082 1.396408,2.75091 1.708734,4.19238 0.228431,1.05427 0.229424,3.22754 0.002,4.30166 -0.373314,1.76288 -1.173141,3.64069 -2.31005,5.42348 l -0.615518,0.9652 0.04547,1.03039 c 0.02501,0.56671 0.07545,1.0789 0.112097,1.1382 0.04964,0.0803 0.537941,0.0907 1.915157,0.0409 1.016687,-0.0368 1.879547,-0.0861 1.917466,-0.10948 0.03792,-0.0234 0.06894,-0.66945 0.06894,-1.43567 0,-1.19199 0.01843,-1.37369 0.127643,-1.25852 0.110618,0.11665 0.322282,0.57804 1.168705,2.5476 0.09234,0.21487 0.222852,0.39067 0.290023,0.39067 0.06717,0 0.946146,-0.3057 1.953278,-0.67934 z m -3.036172,-9.2518 c -0.0789,-0.12766 0.05251,-2.10273 0.143645,-2.15906 0.285864,-0.17667 0.73173,0.49223 0.73173,1.09778 0,0.52353 -0.180918,0.90003 -0.503011,1.04679 -0.292766,0.13339 -0.298737,0.13362 -0.372364,0.0145 z m 9.998782,9.41469 c 1.048851,-0.0583 1.080101,-0.0662 1.080101,-0.27182 0,-0.15675 -1.976623,-8.77447 -3.356797,-14.63502 -0.02719,-0.11548 -0.141375,-0.24898 -0.253736,-0.29666 -0.287123,-0.12187 -3.211115,-0.65376 -3.270031,-0.59485 -0.02665,0.0267 0.04557,0.26469 0.160478,0.52899 0.828764,1.90621 1.003639,3.35821 0.597706,4.96281 -0.255909,1.01158 -1.055329,2.52637 -1.941996,3.67982 -0.225107,0.29283 -0.387362,0.58956 -0.360567,0.65939 0.04389,0.11436 2.546619,3.55928 2.73594,3.76592 0.136426,0.1489 0.200052,-0.0166 0.321063,-0.83503 0.06473,-0.43783 0.171792,-0.83037 0.237905,-0.8723 0.181639,-0.1152 0.591627,-0.094 0.692888,0.0359 0.04929,0.0632 0.280454,0.88411 0.513703,1.82425 0.597577,2.40862 0.499188,2.2298 1.190447,2.16359 0.315037,-0.0302 1.058841,-0.0819 1.652896,-0.11494 z m -4.22368,-7.44916 c -0.06382,-0.16632 0.107214,-2.03584 0.194213,-2.12284 0.02958,-0.0296 0.07363,-0.0339 0.0979,-0.01 0.08984,0.0898 0.353068,1.98324 0.296291,2.1312 -0.07696,0.20055 -0.511572,0.20151 -0.588399,10e-4 z m -12.857235,6.52024 c 0.852657,-0.50487 2.290942,-1.87547 2.872328,-2.73715 1.203193,-1.78327 1.844438,-3.77011 1.935873,-5.99811 0.135093,-3.29184 -0.941173,-6.15843 -3.136182,-8.35309 -1.598306,-1.59805 -3.834274,-2.74889 -6.220185,-3.20149 -1.046645,-0.19855 -1.651051,-0.19185 -1.648889,0.0183 0.0031,0.29936 1.249885,8.29135 1.301569,8.34304 0.0282,0.0282 0.315295,0.0934 0.637977,0.14494 0.322682,0.0515 0.634397,0.14317 0.692699,0.20368 0.0583,0.0605 0.194047,0.75118 0.301654,1.53483 1.043136,7.59661 1.481398,10.68817 1.525218,10.75907 0.07602,0.12301 0.887112,-0.21021 1.737938,-0.714 z m -0.403017,-7.12416 c -0.152033,-0.37152 -0.490682,-4.03421 -0.382958,-4.14193 0.241195,-0.2412 1.455059,0.41135 1.974721,1.06157 0.355395,0.44468 0.442174,1.23685 0.193011,1.76192 -0.205901,0.4339 -0.879753,1.10955 -1.341579,1.34516 l -0.357601,0.18243 z m 28.178466,6.31105 c 1.979287,-0.54217 3.339117,-2.64732 2.938925,-4.54974 -0.170829,-0.81208 -0.354477,-1.2258 -0.801079,-1.80468 -0.766506,-0.99354 -2.077171,-1.60751 -3.435244,-1.60923 -2.16803,-0.003 -3.919571,1.42683 -4.284165,3.49666 -0.128467,0.72932 0.01468,1.59052 0.386959,2.328 0.93986,1.86185 3.043731,2.72817 5.194604,2.13899 z m -2.582054,-2.2454 c -0.03129,-0.0506 0.0077,-0.34407 0.08659,-0.65209 0.150236,-0.58643 0.131406,-0.69027 -0.163675,-0.90269 -0.469356,-0.33788 -0.799527,-0.68542 -0.723444,-0.7615 0.04533,-0.0453 0.38214,-0.10754 0.748471,-0.13825 0.608583,-0.051 0.674066,-0.0764 0.758843,-0.2946 0.233003,-0.59957 0.44615,-1.0201 0.517043,-1.0201 0.04257,0 0.175523,0.21716 0.295445,0.48259 0.332579,0.73612 0.414777,0.80433 0.969159,0.80433 0.916252,0 0.992178,0.16401 0.315003,0.68043 -0.252789,0.19278 -0.459617,0.40873 -0.459617,0.47989 0,0.0712 0.06915,0.37812 0.153677,0.68214 0.205701,0.73986 0.10849,0.81601 -0.525837,0.41189 -0.595776,-0.37955 -0.719632,-0.39106 -1.169385,-0.10863 -0.596394,0.37451 -0.741272,0.43529 -0.802273,0.33659 z m -3.755348,-2.78013 c 0.122832,-0.54255 0.377164,-1.11406 0.698986,-1.57071 0.102171,-0.14497 0.147667,-0.29306 0.102901,-0.33493 -0.111441,-0.10424 -2.391896,-0.22175 -2.449808,-0.12624 -0.02587,0.0427 -0.06174,0.61533 -0.0797,1.27258 l -0.03267,1.19501 0.321732,0.0588 c 0.176953,0.0323 0.546142,0.053 0.820419,0.046 l 0.498686,-0.0128 z"
         id="path2394"
         inkscape:connector-curvature="0" />
      <path
         style="fill:#a11315;stroke-width:0.0919235"
         d="m 84.32221,280.5487 c 0.01898,-0.0552 2.262553,-2.79349 4.985722,-6.08513 2.723169,-3.29164 4.972522,-6.06627 4.998563,-6.16585 0.06171,-0.236 -0.697052,-1.92001 -0.865099,-1.92001 -0.06973,0 -0.385123,0.23785 -0.70088,0.52856 -1.305207,1.20166 -5.607443,5.03509 -5.682687,5.06345 -0.04471,0.0168 -0.08129,-0.0265 -0.08129,-0.0963 0,-0.10939 1.320252,-5.63639 3.548559,-14.85542 0.33387,-1.3813 0.65446,-2.52579 0.712422,-2.54331 0.237222,-0.0717 25.24646,-0.14024 25.24646,-0.0692 0,0.0731 -1.17907,1.52909 -7.88616,9.73852 -2.48278,3.0389 -2.8687,3.55231 -2.86748,3.81482 9.1e-4,0.16684 0.0386,0.36212 0.0841,0.43396 0.0708,0.1119 0.11341,0.11003 0.29734,-0.0131 0.11807,-0.079 2.15885,-1.73779 4.53508,-3.68611 3.06609,-2.51397 4.32805,-3.4976 4.34674,-3.38808 0.0145,0.0849 -0.88744,3.11197 -2.00428,6.72686 -1.11684,3.61489 -2.42515,7.85486 -2.90734,9.42216 -0.4822,1.56729 -0.92465,2.89745 -0.98324,2.95589 -0.14839,0.14805 -24.827235,0.28583 -24.776507,0.13832 z m 17.77574,-2.02695 4.96387,-0.0561 0.29026,-0.87328 c 0.15964,-0.4803 0.40071,-1.24556 0.53571,-1.70058 0.27875,-0.93953 1.06378,-3.49306 1.32823,-4.32041 0.097,-0.30334 0.28059,-0.90314 0.40808,-1.33289 0.12747,-0.42974 0.42009,-1.39249 0.65023,-2.13945 0.23016,-0.74695 0.41847,-1.39846 0.41847,-1.44779 0,-0.24577 -0.14207,-0.13577 -3.86079,2.98918 -0.98588,0.82846 -2.33,1.95345 -2.98695,2.49998 l -1.19445,0.99367 -1.62504,0.0303 c -1.56746,0.0292 -1.628662,0.0236 -1.727361,-0.16086 -0.123076,-0.22998 -0.04155,-0.40361 0.367327,-0.7823 0.159965,-0.14815 0.400414,-0.43293 0.534324,-0.63284 0.1339,-0.19991 0.30827,-0.45998 0.38749,-0.57794 0.0792,-0.11796 0.3093,-0.39608 0.51129,-0.61804 0.32784,-0.36022 0.4407,-0.41918 1.05099,-0.54904 0.37604,-0.08 0.86985,-0.17344 1.09736,-0.2076 0.22752,-0.0342 0.48605,-0.10012 0.57453,-0.14658 0.20049,-0.1053 0.20898,-0.55628 0.0248,-1.31899 -0.22817,-0.94491 -0.22831,-0.94451 0.80639,-2.22777 1.072,-1.32953 4.03102,-4.97591 4.51551,-5.56445 1.59661,-1.93947 3.6388,-4.5086 3.6388,-4.5777 0,-0.0941 -9.5752,-0.0962 -16.130089,-0.004 l -3.950224,0.0558 -0.215192,0.82731 c -0.118356,0.45502 -0.289446,1.09618 -0.380199,1.42481 -0.09075,0.32863 -0.394522,1.48686 -0.67504,2.57386 -0.280518,1.08699 -0.782737,2.99336 -1.116044,4.23637 -0.609898,2.27452 -0.677688,2.60689 -0.520226,2.55065 0.11291,-0.0403 3.539288,-3.27911 5.510704,-5.20899 1.1036,-1.08034 0.819228,-0.99567 3.543516,-1.05511 2.972364,-0.0648 3.090964,-0.0224 2.317284,0.82864 -0.22047,0.24252 -0.82515,0.91665 -1.343747,1.49807 -1.425879,1.59861 -1.174012,1.46978 -2.874567,1.47032 -1.666283,5.5e-4 -1.627004,-0.0271 -1.157424,0.81353 0.527274,0.94391 0.720013,1.34522 0.720402,1.49999 1.84e-4,0.0841 -0.444295,0.71178 -0.987792,1.3949 -1.479628,1.85973 -1.793816,2.25693 -3.173392,4.01185 -0.69629,0.88573 -1.384026,1.7552 -1.528304,1.93215 -0.24169,0.29643 -0.663405,0.82706 -2.334993,2.93806 -0.338768,0.42782 -0.615942,0.83113 -0.615942,0.89625 0,0.1311 4.756906,0.14337 14.202179,0.0366 z M 98.443992,263.5582 c 0.366545,-0.38823 0.666445,-0.76065 0.666445,-0.82761 0,-0.0933 -0.224362,-0.12175 -0.959088,-0.12175 H 97.19226 l -0.786979,0.74494 c -0.432838,0.40972 -0.76407,0.78201 -0.736071,0.82732 0.028,0.0453 0.51383,0.0825 1.079622,0.0827 l 1.028714,2.7e-4 z m -70.588799,15.6888 -0.203886,-0.27577 h -2.365206 c -1.300863,0 -2.430637,-0.0251 -2.510609,-0.0558 -0.111412,-0.0428 -0.145403,-0.19191 -0.145403,-0.63804 0,-0.32023 -0.03594,-0.60446 -0.07987,-0.63161 -0.04393,-0.0272 -0.509292,0.0958 -1.034139,0.27332 -1.614328,0.54587 -3.335014,0.94008 -3.43031,0.78589 -0.04917,-0.0796 -1.981417,-13.14397 -1.982001,-13.40082 -5.43e-4,-0.2387 -0.294584,-0.39724 -0.736776,-0.39724 -0.246194,0 -0.474243,-0.0431 -0.506776,-0.0957 -0.04735,-0.0766 -1.781478,-10.52455 -1.788289,-10.77424 -0.0054,-0.19899 1.9547,0.027 3.858906,0.44485 1.45005,0.31822 3.824603,1.13365 5.215385,1.79099 1.085883,0.51323 1.167009,0.53743 1.324312,0.39508 0.344746,-0.31199 2.665583,0.0791 4.812855,0.81106 1.440892,0.49117 3.52034,1.55562 4.597789,2.35358 0.209548,0.15519 0.883973,0.33 2.757705,0.7148 2.094074,0.43006 2.511433,0.54254 2.680114,0.7223 l 0.199795,0.21293 0.811364,-0.17956 c 1.042205,-0.23064 3.106985,-0.31789 4.055954,-0.17139 1.25833,0.19426 2.547452,0.68997 3.760554,1.44606 0.372691,0.23229 0.705594,0.39437 0.739783,0.36018 0.03419,-0.0342 0.10497,-0.19459 0.15729,-0.35646 l 0.09513,-0.29429 4.458289,-0.0732 c 4.274775,-0.0702 4.505587,-0.083 5.607333,-0.30929 2.092428,-0.42984 5.015959,-0.40669 6.819294,0.054 0.755673,0.19305 0.853046,0.16018 0.942792,-0.3182 0.03286,-0.17515 0.06821,-0.31903 0.07856,-0.31973 0.01035,-7.4e-4 0.954107,-0.08 2.09724,-0.1763 1.143133,-0.0963 2.325539,-0.15261 2.627568,-0.12522 0.331615,0.0301 0.626539,0.008 0.744523,-0.0548 0.172043,-0.0921 4.005829,-0.65145 5.626266,-0.82092 0.527322,-0.0551 0.600956,-0.0868 0.626903,-0.26951 0.01617,-0.11387 0.0989,-0.24194 0.183847,-0.28459 0.326058,-0.16375 7.650001,-2.06313 7.712882,-2.00025 0.07781,0.0778 -0.192702,2.00168 -1.306835,9.29421 -0.189716,1.24177 -0.276163,2.05596 -0.223978,2.10949 0.05348,0.0549 0.434303,0.031 1.027354,-0.0642 0.518302,-0.0833 0.96942,-0.1225 1.002484,-0.0872 0.03306,0.0353 -0.272546,2.08145 -0.679133,4.54694 -0.691045,4.1904 -0.751908,4.48543 -0.933389,4.52464 -0.205688,0.0444 -8.776471,0.50906 -9.36351,0.5076 -0.338921,-8.3e-4 -0.344713,-0.007 -0.344713,-0.3573 0,-0.19604 -0.05332,-0.40069 -0.118489,-0.45478 -0.08486,-0.0704 -0.848024,-0.0323 -2.688762,0.13425 -2.043742,0.18493 -2.61747,0.26585 -2.800664,0.395 -0.215414,0.15187 -0.337911,0.1546 -1.884432,0.0421 -0.909722,-0.0662 -1.681891,-0.12203 -1.71593,-0.12408 -0.03404,-0.002 -0.184252,0.0992 -0.333805,0.22508 l -0.271916,0.2288 -2.942917,0.071 -2.942919,0.071 -0.185236,0.2288 -0.185236,0.22879 -5.92382,0.0314 -5.923822,0.0314 -0.05835,-0.35316 c -0.03209,-0.19423 -0.0588,-0.5472 -0.05936,-0.78436 -5.51e-4,-0.23717 -0.03845,-0.45435 -0.0842,-0.48263 -0.04576,-0.0283 -0.262925,0.0996 -0.482598,0.28421 -0.547533,0.4601 -1.72975,1.01274 -2.559609,1.19653 -0.835641,0.18507 -2.746598,0.20814 -3.539054,0.0427 -0.303348,-0.0633 -0.8411,-0.21099 -1.195006,-0.32814 l -0.643464,-0.21301 -1.724895,0.13633 c -1.573096,0.12433 -1.744717,0.12334 -1.95014,-0.0113 -0.184165,-0.12067 -0.506227,-0.14759 -1.765856,-0.14759 H 31.32155 l -1.579483,0.50558 c -0.868715,0.27807 -1.602769,0.50558 -1.631232,0.50558 -0.02846,0 -0.143498,-0.1241 -0.255635,-0.27577 z m 17.434037,-1.71258 c 0.634862,-0.21379 1.32468,-0.66911 1.728555,-1.14095 0.186848,-0.21829 0.339276,-0.42047 0.338728,-0.44928 -5.51e-4,-0.0288 -0.25686,-0.19718 -0.569582,-0.37413 -0.887968,-0.50246 -1.552139,-1.22285 -2.004646,-2.17436 -0.212692,-0.44724 -0.41751,-0.87521 -0.455151,-0.95104 -0.04219,-0.085 -0.258895,-0.15877 -0.565026,-0.19235 -1.169899,-0.1283 -1.862702,-0.54889 -2.280132,-1.38424 -0.244489,-0.48927 -0.283341,-0.66624 -0.283341,-1.29062 0,-1.09491 0.31729,-1.94105 1.004577,-2.67897 0.457992,-0.49174 0.966819,-0.73855 1.523319,-0.73891 0.684978,-4.6e-4 1.160161,0.30402 1.847467,1.18373 l 0.284768,0.36449 0.335725,-0.25607 c 0.420249,-0.32054 1.297131,-0.75624 1.692524,-0.84097 0.522397,-0.11194 0.573576,-0.23079 0.573576,-1.332 v -0.99389 l -0.348305,-0.31467 c -2.069603,-1.86977 -4.925146,-2.3653 -7.334601,-1.2728 -0.313209,0.14202 -0.827166,0.43321 -1.142128,0.6471 -0.572157,0.38854 -0.572612,0.38921 -0.523018,0.76883 0.0273,0.20898 0.298891,1.43478 0.603533,2.724 1.823724,7.71788 2.393268,10.25145 2.346448,10.438 -0.04786,0.19067 -0.0066,0.21783 0.484118,0.31886 0.295035,0.0607 0.577794,0.12615 0.628352,0.14534 0.213077,0.0809 1.690676,-0.0625 2.11424,-0.2051 z m 8.800133,-0.0655 c 0.03722,-0.0585 0.07193,-0.37522 0.07713,-0.70385 0.01295,-0.81799 0.112559,-1.47687 0.223163,-1.47618 0.05056,2.8e-4 0.38349,0.50839 0.739848,1.12905 l 0.647923,1.12848 1.491305,0.0253 c 1.241106,0.021 1.499972,0.003 1.542965,-0.10936 0.02841,-0.074 0.0081,-1.32638 -0.04504,-2.78297 -0.05319,-1.45659 -0.143493,-4.19956 -0.200683,-6.09548 -0.05719,-1.89592 -0.130896,-3.8401 -0.163793,-4.3204 l -0.05981,-0.87328 -1.233594,-0.0258 c -0.678478,-0.0142 -1.265181,0.007 -1.303787,0.046 -0.0386,0.0394 -0.117746,0.91971 -0.175867,1.95615 -0.05812,1.03644 -0.140933,1.92105 -0.184025,1.96581 -0.04402,0.0457 -0.532527,-0.82805 -1.114952,-1.99427 -0.772147,-1.5461 -1.084394,-2.08575 -1.223932,-2.11527 -0.103031,-0.0218 -0.663034,-0.0137 -1.24445,0.0179 l -1.05712,0.0575 -0.05969,0.55154 c -0.03283,0.30335 -0.08904,1.03642 -0.124907,1.62906 l -0.06521,1.07751 0.262792,0.1014 c 2.385429,0.92041 3.613494,2.51286 3.616908,4.69009 0.0035,2.21821 -1.707857,4.27156 -3.911972,4.69379 -0.299874,0.0574 -0.596933,0.16888 -0.660131,0.24765 -0.123729,0.15419 -0.160339,1.22502 -0.04596,1.34434 0.111891,0.11673 4.193943,-0.0407 4.272901,-0.16474 z M 33.064,276.82111 c 1.007131,-0.37363 1.845421,-0.72215 1.862866,-0.77448 0.01744,-0.0523 -0.756647,-1.27663 -1.720203,-2.72065 -0.963555,-1.44402 -1.751919,-2.65146 -1.751919,-2.68321 0,-0.0317 0.332493,-0.40898 0.738873,-0.83829 0.827357,-0.87405 1.468435,-1.88972 1.756778,-2.78331 0.276408,-0.8566 0.337425,-2.45355 0.127437,-3.33529 -0.585959,-2.46043 -2.603892,-4.45995 -5.434552,-5.38497 -0.871076,-0.28465 -2.178492,-0.52363 -2.335126,-0.42682 -0.05118,0.0316 -0.09305,0.41127 -0.09305,0.84364 0,0.78184 0.0025,0.79036 0.464985,1.55595 0.846137,1.40082 1.396408,2.75091 1.708734,4.19238 0.228431,1.05427 0.229424,3.22754 0.002,4.30166 -0.373314,1.76288 -1.173141,3.64069 -2.31005,5.42348 l -0.615518,0.9652 0.04547,1.03039 c 0.02501,0.56671 0.07545,1.0789 0.112097,1.1382 0.04964,0.0803 0.537941,0.0907 1.915157,0.0409 1.016687,-0.0368 1.879547,-0.0861 1.917466,-0.10948 0.03792,-0.0234 0.06894,-0.66945 0.06894,-1.43567 0,-1.19199 0.01843,-1.37369 0.127643,-1.25852 0.110618,0.11665 0.322282,0.57804 1.168705,2.5476 0.09234,0.21487 0.222852,0.39067 0.290023,0.39067 0.06717,0 0.946146,-0.3057 1.953278,-0.67934 z m -3.036172,-9.2518 c -0.0789,-0.12766 0.05251,-2.10273 0.143645,-2.15906 0.285864,-0.17667 0.73173,0.49223 0.73173,1.09778 0,0.52353 -0.180918,0.90003 -0.503011,1.04679 -0.292766,0.13339 -0.298737,0.13362 -0.372364,0.0145 z m 9.998782,9.41469 c 1.048851,-0.0583 1.080101,-0.0662 1.080101,-0.27182 0,-0.15675 -1.976623,-8.77447 -3.356797,-14.63502 -0.02719,-0.11548 -0.141375,-0.24898 -0.253736,-0.29666 -0.287123,-0.12187 -3.211115,-0.65376 -3.270031,-0.59485 -0.02665,0.0267 0.04557,0.26469 0.160478,0.52899 0.828764,1.90621 1.003639,3.35821 0.597706,4.96281 -0.255909,1.01158 -1.055329,2.52637 -1.941996,3.67982 -0.225107,0.29283 -0.387362,0.58956 -0.360567,0.65939 0.04389,0.11436 2.546619,3.55928 2.73594,3.76592 0.136426,0.1489 0.200052,-0.0166 0.321063,-0.83503 0.06473,-0.43783 0.171792,-0.83037 0.237905,-0.8723 0.181639,-0.1152 0.591627,-0.094 0.692888,0.0359 0.04929,0.0632 0.280454,0.88411 0.513703,1.82425 0.597577,2.40862 0.499188,2.2298 1.190447,2.16359 0.315037,-0.0302 1.058841,-0.0819 1.652896,-0.11494 z m -4.22368,-7.44916 c -0.06382,-0.16632 0.107214,-2.03584 0.194213,-2.12284 0.02958,-0.0296 0.07363,-0.0339 0.0979,-0.01 0.08984,0.0898 0.353068,1.98324 0.296291,2.1312 -0.07696,0.20055 -0.511572,0.20151 -0.588399,10e-4 z m 42.542429,7.41607 c 0.626676,-0.0495 2.070137,-0.15371 3.20769,-0.23167 1.137554,-0.0779 2.137794,-0.16346 2.222757,-0.19001 0.175976,-0.055 0.17181,-0.0381 0.496084,-2.01629 0.44365,-2.7065 0.667274,-4.41162 0.589245,-4.49295 -0.04426,-0.0461 -0.325939,-0.0379 -0.658575,0.0192 -1.204188,0.20678 -1.604149,0.22038 -1.764521,0.06 -0.08228,-0.0823 -0.149546,-0.15699 -0.149478,-0.16601 3.67e-4,-0.0534 1.039227,-7.27595 1.10635,-7.69203 0.204125,-1.26532 0.305327,-2.39376 0.222026,-2.47568 -0.05452,-0.0536 -0.538185,0.0168 -1.282538,0.18657 -0.657253,0.14995 -1.496078,0.34001 -1.864055,0.42235 -0.367977,0.0823 -0.729994,0.19478 -0.804481,0.24987 -0.09657,0.0714 -0.254861,0.93104 -0.551634,2.99574 -0.449179,3.12502 -0.684659,4.85203 -0.685837,5.02994 -5.51e-4,0.0832 0.182843,0.0979 0.713441,0.0569 0.569638,-0.0439 0.737185,-0.0274 0.827836,0.0819 0.112599,0.13567 0.07357,0.66903 -0.344867,4.71302 -0.05231,0.50558 -0.09488,1.04909 -0.09459,1.2078 9.66e-4,0.53555 -0.213349,0.67101 -1.281024,0.80966 -0.716143,0.093 -0.990353,0.16641 -1.080101,0.28915 -0.172643,0.2361 -0.156821,1.23244 0.01957,1.23244 0.0095,0 0.530027,-0.0405 1.156704,-0.0899 z m -14.073927,-0.086 c 1.233454,-0.0954 1.817251,-0.33037 2.259323,-0.90934 0.982266,-1.28643 0.679447,-3.30165 -0.683524,-4.54874 -0.209436,-0.19163 -0.380793,-0.38794 -0.380793,-0.43624 0,-0.0483 0.376664,-0.46485 0.837031,-0.92565 1.09655,-1.0976 1.303966,-1.52712 1.349204,-2.79394 0.03795,-1.0626 -0.124471,-1.66688 -0.668184,-2.48602 -0.967824,-1.45809 -2.494797,-2.00169 -5.011144,-1.78396 -1.576201,0.13639 -2.567079,0.25627 -2.676344,0.3238 -0.06713,0.0415 -0.07749,0.79159 -0.03336,2.41683 l 0.06399,2.35666 0.358691,0.37222 0.358689,0.37222 0.131179,2.10972 c 0.07215,1.16034 0.179349,2.9577 0.238224,3.99414 0.06858,1.20736 0.144935,1.9087 0.212505,1.95197 0.13928,0.0892 2.425555,0.0806 3.644516,-0.0137 z m -1.363709,-2.00724 c -0.141883,-0.27417 -0.219603,-1.46733 -0.109036,-1.67392 0.176033,-0.32893 0.665812,-0.22483 0.878643,0.18674 0.260404,0.50356 0.121636,1.30306 -0.273843,1.5777 -0.171165,0.11886 -0.409973,0.0753 -0.495764,-0.0905 z m -0.545747,-6.20484 c -0.05142,-0.0632 -0.132895,-0.65265 -0.181048,-1.30991 -0.09552,-1.30375 -0.02762,-1.60866 0.358204,-1.60866 0.319482,0 0.792804,0.58348 0.865257,1.06662 0.145926,0.97311 -0.210432,1.96338 -0.707382,1.96572 -0.132843,6.4e-4 -0.283607,-0.0506 -0.335031,-0.11377 z m -39.416281,7.40227 c 0.852657,-0.50487 2.290942,-1.87547 2.872328,-2.73715 1.203193,-1.78327 1.844438,-3.77011 1.935873,-5.99811 0.135093,-3.29184 -0.941173,-6.15843 -3.136182,-8.35309 -1.598306,-1.59805 -3.834274,-2.74889 -6.220185,-3.20149 -1.046645,-0.19855 -1.651051,-0.19185 -1.648889,0.0183 0.0031,0.29936 1.249885,8.29135 1.301569,8.34304 0.0282,0.0282 0.315295,0.0934 0.637977,0.14494 0.322682,0.0515 0.634397,0.14317 0.692699,0.20368 0.0583,0.0605 0.194047,0.75118 0.301654,1.53483 1.043136,7.59661 1.481398,10.68817 1.525218,10.75907 0.07602,0.12301 0.887112,-0.21021 1.737938,-0.714 z m -0.403017,-7.12416 c -0.152033,-0.37152 -0.490682,-4.03421 -0.382958,-4.14193 0.241195,-0.2412 1.455059,0.41135 1.974721,1.06157 0.355395,0.44468 0.442174,1.23685 0.193011,1.76192 -0.205901,0.4339 -0.879753,1.10955 -1.341579,1.34516 l -0.357601,0.18243 z m 45.914002,7.81116 c 0.05609,-0.15017 0.294803,-1.68741 0.460347,-2.96453 0.148166,-1.14306 0.214388,-1.24097 0.839304,-1.24097 0.307653,0 0.423265,0.0453 0.527695,0.20683 0.07641,0.11818 0.217119,0.87657 0.328305,1.76953 0.229271,1.84135 0.231601,1.85096 0.463275,1.91154 0.221722,0.058 2.627708,-0.0858 2.755299,-0.16464 0.17296,-0.1069 0.109582,-0.47484 -0.680932,-3.95307 -0.218621,-0.96192 -0.353282,-1.57897 -0.66201,-3.03347 -0.07512,-0.35391 -0.219197,-0.99508 -0.320174,-1.42482 -0.16918,-0.72 -0.924567,-4.17498 -1.09228,-4.99585 -0.121366,-0.59403 -0.156636,-0.60456 -1.626469,-0.48561 -0.71665,0.058 -1.326764,0.1292 -1.35581,0.15825 -0.02905,0.029 -0.113626,0.45793 -0.187956,0.95308 -0.134323,0.8948 -0.133798,0.90313 0.08652,1.37125 0.121915,0.25904 0.291535,0.78013 0.376932,1.15797 0.36383,1.60979 -0.115902,3.19137 -1.382598,4.55816 -0.128018,0.13813 -0.232756,0.29682 -0.232749,0.35263 7e-6,0.0558 0.208118,0.42628 0.46247,0.82326 0.602915,0.941 0.869162,1.86434 0.779367,2.70283 -0.07475,0.69798 -0.327496,1.48057 -0.603239,1.86781 -0.297986,0.41848 -0.190343,0.54473 0.464472,0.54473 0.361675,0 0.572377,-0.0403 0.600231,-0.11491 z m 0.653218,-7.26444 c -0.152499,-0.11151 -0.15117,-0.19037 0.02654,-1.57403 0.259271,-2.01872 0.472401,-2.22648 0.703714,-0.686 0.159955,1.06526 0.169348,2.11799 0.02023,2.26711 -0.14472,0.14472 -0.548088,0.14091 -0.750483,-0.007 z m -18.388754,5.76433 c 1.979287,-0.54217 3.339117,-2.64732 2.938925,-4.54974 -0.170829,-0.81208 -0.354477,-1.2258 -0.801079,-1.80468 -0.766506,-0.99354 -2.077171,-1.60751 -3.435244,-1.60923 -2.16803,-0.003 -3.919571,1.42683 -4.284165,3.49666 -0.128467,0.72932 0.01468,1.59052 0.386959,2.328 0.93986,1.86185 3.043731,2.72817 5.194604,2.13899 z m 26.505395,-0.5459 c 0.729731,-0.0742 1.353005,-0.17739 1.385052,-0.22925 0.103114,-0.16684 0.373542,-4.62685 0.285861,-4.71453 -0.049,-0.049 -0.492871,-0.004 -1.089058,0.10982 -0.553491,0.1059 -1.111224,0.19254 -1.239409,0.19254 -0.449373,0 -0.470182,-0.11644 -0.406969,-2.2772 0.08851,-3.02526 0.08869,-6.00359 3.68e-4,-6.09078 -0.04334,-0.0428 -0.471765,-0.0186 -0.952065,0.0539 -0.4803,0.0724 -0.987028,0.13193 -1.126063,0.13229 -0.139034,3.6e-4 -0.335521,0.0834 -0.436636,0.18449 -0.176968,0.17697 -0.183847,0.30641 -0.183847,3.45905 0,3.57592 -0.0394,3.19742 0.644653,6.19292 0.09814,0.42974 0.288162,1.27774 0.422281,1.88443 0.134118,0.6067 0.261607,1.13411 0.28331,1.17203 0.0602,0.10518 0.944901,0.0796 2.412512,-0.0697 z m -32.842797,-4.47963 c 0.122832,-0.54255 0.377164,-1.11406 0.698986,-1.57071 0.102171,-0.14497 0.147667,-0.29306 0.102901,-0.33493 -0.111441,-0.10424 -2.391896,-0.22175 -2.449808,-0.12624 -0.02587,0.0427 -0.06174,0.61533 -0.0797,1.27258 l -0.03267,1.19501 0.321732,0.0588 c 0.176953,0.0323 0.546142,0.053 0.820419,0.046 l 0.498686,-0.0128 z"
         id="path2392"
         inkscape:connector-curvature="0" />
      <path
         style="fill:#5c0d0a;stroke-width:0.0919235"
         d="m 84.32221,280.5487 c 0.01898,-0.0552 2.262553,-2.79349 4.985722,-6.08513 2.723169,-3.29164 4.972522,-6.06627 4.998563,-6.16585 0.06171,-0.236 -0.697052,-1.92001 -0.865099,-1.92001 -0.06973,0 -0.385123,0.23785 -0.70088,0.52856 -1.305207,1.20166 -5.607443,5.03509 -5.682687,5.06345 -0.04471,0.0168 -0.08129,-0.0265 -0.08129,-0.0963 0,-0.10939 1.320252,-5.63639 3.548559,-14.85542 0.33387,-1.3813 0.65446,-2.52579 0.712422,-2.54331 0.237222,-0.0717 25.24646,-0.14024 25.24646,-0.0692 0,0.0731 -1.17907,1.52909 -7.88616,9.73852 -2.48278,3.0389 -2.8687,3.55231 -2.86748,3.81482 9.1e-4,0.16684 0.0386,0.36212 0.0841,0.43396 0.0708,0.1119 0.11341,0.11003 0.29734,-0.0131 0.11807,-0.079 2.15885,-1.73779 4.53508,-3.68611 3.06609,-2.51397 4.32805,-3.4976 4.34674,-3.38808 0.0145,0.0849 -0.88744,3.11197 -2.00428,6.72686 -1.11684,3.61489 -2.42515,7.85486 -2.90734,9.42216 -0.4822,1.56729 -0.92465,2.89745 -0.98324,2.95589 -0.14839,0.14805 -24.827235,0.28583 -24.776507,0.13832 z m 22.65782,-1.9033 c 0.24649,-0.0495 0.28097,-0.14702 1.73668,-4.91381 0.64074,-2.09816 1.40954,-4.59776 1.70842,-5.55468 0.5406,-1.73075 0.61727,-2.07497 0.46218,-2.07497 -0.0447,0 -1.85443,1.47993 -4.02166,3.28873 -2.16721,1.8088 -4.04266,3.36001 -4.16767,3.44713 -0.19244,0.13412 -0.45663,0.1584 -1.72356,0.1584 -1.171826,0 -1.496289,-0.0261 -1.496289,-0.12035 0,-0.13299 1.531469,-2.17497 1.916989,-2.55601 0.20624,-0.20384 0.4243,-0.2712 1.4344,-0.44306 0.65516,-0.11147 1.22394,-0.2229 1.26395,-0.24763 0.112,-0.0692 0.0806,-0.75047 -0.0651,-1.41297 -0.0723,-0.32863 -0.13287,-0.70595 -0.13465,-0.83849 -0.003,-0.22968 0.57947,-0.97696 4.82832,-6.19366 3.41245,-4.18977 4.3608,-5.38999 4.3608,-5.51899 0,-0.13825 -0.79629,-0.14499 -10.13457,-0.0859 -8.057371,0.051 -10.160211,0.0884 -10.2597,0.18225 -0.138412,0.13061 -0.435916,1.21059 -2.342089,8.50206 -0.918835,3.51471 -0.934594,3.58501 -0.803626,3.58501 0.13871,0 0.529695,-0.35618 3.481195,-3.17136 1.431167,-1.36506 2.80202,-2.65885 3.04634,-2.87508 l 0.444218,-0.39314 2.401012,-0.0582 c 2.259,-0.0548 2.40101,-0.0486 2.40101,0.10476 0,0.14978 -2.270233,2.83166 -2.70597,3.19663 -0.162894,0.13643 -0.407033,0.15911 -1.732222,0.16086 -1.275401,0.002 -1.551641,0.0256 -1.594779,0.13801 -0.0287,0.0748 0.20278,0.59346 0.51439,1.15261 0.311611,0.55916 0.553557,1.09593 0.537658,1.19282 -0.0159,0.0969 -0.466446,0.72611 -1.001215,1.39826 -0.836081,1.05088 -6.761318,8.55495 -7.558655,9.57274 -0.224063,0.28601 -0.252124,0.36861 -0.147347,0.43372 0.125518,0.078 18.95531,0.0238 19.35157,-0.0557 z m -8.536038,-15.0872 c 0.366545,-0.38823 0.666445,-0.76065 0.666445,-0.82761 0,-0.0933 -0.224362,-0.12175 -0.959088,-0.12175 H 97.19226 l -0.786979,0.74494 c -0.432838,0.40972 -0.76407,0.78201 -0.736071,0.82732 0.028,0.0453 0.51383,0.0825 1.079622,0.0827 l 1.028714,2.7e-4 z m -70.588799,15.6888 -0.203886,-0.27577 h -2.365206 c -1.300863,0 -2.430637,-0.0251 -2.510609,-0.0558 -0.111412,-0.0428 -0.145403,-0.19191 -0.145403,-0.63804 0,-0.32023 -0.03594,-0.60446 -0.07987,-0.63161 -0.04393,-0.0272 -0.509292,0.0958 -1.034139,0.27332 -1.614328,0.54587 -3.335014,0.94008 -3.43031,0.78589 -0.04917,-0.0796 -1.981417,-13.14397 -1.982001,-13.40082 -5.43e-4,-0.2387 -0.294584,-0.39724 -0.736776,-0.39724 -0.246194,0 -0.474243,-0.0431 -0.506776,-0.0957 -0.04735,-0.0766 -1.781478,-10.52455 -1.788289,-10.77424 -0.0054,-0.19899 1.9547,0.027 3.858906,0.44485 1.45005,0.31822 3.824603,1.13365 5.215385,1.79099 1.085883,0.51323 1.167009,0.53743 1.324312,0.39508 0.344746,-0.31199 2.665583,0.0791 4.812855,0.81106 1.440892,0.49117 3.52034,1.55562 4.597789,2.35358 0.209548,0.15519 0.883973,0.33 2.757705,0.7148 2.094074,0.43006 2.511433,0.54254 2.680114,0.7223 l 0.199795,0.21293 0.811364,-0.17956 c 1.042205,-0.23064 3.106985,-0.31789 4.055954,-0.17139 1.25833,0.19426 2.547452,0.68997 3.760554,1.44606 0.372691,0.23229 0.705594,0.39437 0.739783,0.36018 0.03419,-0.0342 0.10497,-0.19459 0.15729,-0.35646 l 0.09513,-0.29429 4.458289,-0.0732 c 4.274775,-0.0702 4.505587,-0.083 5.607333,-0.30929 2.092428,-0.42984 5.015959,-0.40669 6.819294,0.054 0.755673,0.19305 0.853046,0.16018 0.942792,-0.3182 0.03286,-0.17515 0.06821,-0.31903 0.07856,-0.31973 0.01035,-7.4e-4 0.954107,-0.08 2.09724,-0.1763 1.143133,-0.0963 2.325539,-0.15261 2.627568,-0.12522 0.331615,0.0301 0.626539,0.008 0.744523,-0.0548 0.172043,-0.0921 4.005829,-0.65145 5.626266,-0.82092 0.527322,-0.0551 0.600956,-0.0868 0.626903,-0.26951 0.01617,-0.11387 0.0989,-0.24194 0.183847,-0.28459 0.326058,-0.16375 7.650001,-2.06313 7.712882,-2.00025 0.07781,0.0778 -0.192702,2.00168 -1.306835,9.29421 -0.189716,1.24177 -0.276163,2.05596 -0.223978,2.10949 0.05348,0.0549 0.434303,0.031 1.027354,-0.0642 0.518302,-0.0833 0.96942,-0.1225 1.002484,-0.0872 0.03306,0.0353 -0.272546,2.08145 -0.679133,4.54694 -0.691045,4.1904 -0.751908,4.48543 -0.933389,4.52464 -0.205688,0.0444 -8.776471,0.50906 -9.36351,0.5076 -0.338921,-8.3e-4 -0.344713,-0.007 -0.344713,-0.3573 0,-0.19604 -0.05332,-0.40069 -0.118489,-0.45478 -0.08486,-0.0704 -0.848024,-0.0323 -2.688762,0.13425 -2.043742,0.18493 -2.61747,0.26585 -2.800664,0.395 -0.215414,0.15187 -0.337911,0.1546 -1.884432,0.0421 -0.909722,-0.0662 -1.681891,-0.12203 -1.71593,-0.12408 -0.03404,-0.002 -0.184252,0.0992 -0.333805,0.22508 l -0.271916,0.2288 -2.942917,0.071 -2.942919,0.071 -0.185236,0.2288 -0.185236,0.22879 -5.92382,0.0314 -5.923822,0.0314 -0.05835,-0.35316 c -0.03209,-0.19423 -0.0588,-0.5472 -0.05936,-0.78436 -5.51e-4,-0.23717 -0.03845,-0.45435 -0.0842,-0.48263 -0.04576,-0.0283 -0.262925,0.0996 -0.482598,0.28421 -0.547533,0.4601 -1.72975,1.01274 -2.559609,1.19653 -0.835641,0.18507 -2.746598,0.20814 -3.539054,0.0427 -0.303348,-0.0633 -0.8411,-0.21099 -1.195006,-0.32814 l -0.643464,-0.21301 -1.724895,0.13633 c -1.573096,0.12433 -1.744717,0.12334 -1.95014,-0.0113 -0.184165,-0.12067 -0.506227,-0.14759 -1.765856,-0.14759 H 31.32155 l -1.579483,0.50558 c -0.868715,0.27807 -1.602769,0.50558 -1.631232,0.50558 -0.02846,0 -0.143498,-0.1241 -0.255635,-0.27577 z m 17.155053,-1.61169 c 0.297545,-0.0775 0.742033,-0.25033 0.987751,-0.38407 0.482534,-0.26263 1.359512,-1.08308 1.359512,-1.27188 0,-0.0638 -0.232931,-0.24744 -0.517626,-0.40811 -1.028981,-0.58072 -1.959432,-1.67462 -2.292974,-2.69576 -0.08566,-0.26224 -0.16822,-0.49141 -0.183475,-0.50926 -0.01525,-0.0179 -0.330261,-0.0852 -0.700014,-0.1496 -0.863274,-0.1504 -1.252522,-0.31728 -1.715314,-0.73538 -1.23939,-1.11972 -0.852304,-3.8659 0.698554,-4.95588 0.523198,-0.36772 1.294163,-0.43696 1.82875,-0.16423 0.365645,0.18654 0.936212,0.74718 1.1312,1.11152 0.119952,0.22413 0.392507,0.25096 0.555409,0.0547 0.180002,-0.21688 1.009958,-0.65899 1.563184,-0.83268 0.278069,-0.0873 0.552291,-0.20467 0.609384,-0.26082 0.05709,-0.0562 0.131005,-0.55013 0.164251,-1.09775 l 0.06045,-0.99566 -0.348098,-0.32307 c -1.542229,-1.43135 -3.752124,-2.1671 -5.631543,-1.87492 -1.248712,0.19413 -2.472762,0.72871 -3.278006,1.43161 l -0.315924,0.27577 0.649518,2.75771 c 2.229071,9.46411 2.45727,10.48467 2.37827,10.63628 -0.06029,0.11571 -0.03459,0.18228 0.09771,0.25309 0.54378,0.29102 2.039058,0.36242 2.899035,0.13842 z m 8.735946,-0.0265 0.367694,-0.0649 0.09192,-1.08107 c 0.05056,-0.59459 0.133289,-1.0904 0.183847,-1.1018 0.05056,-0.0114 0.377776,0.48291 0.727151,1.09846 0.385279,0.67882 0.70397,1.13718 0.809933,1.16489 0.09609,0.0251 0.79267,0.0219 1.547957,-0.007 l 1.373249,-0.0528 0.0027,-0.33076 c 0.0064,-0.78037 -0.389059,-13.49504 -0.425576,-13.68264 -0.03952,-0.20302 -0.06456,-0.20683 -1.360964,-0.20683 h -1.320701 l -0.05205,0.39068 c -0.02863,0.21487 -0.07942,1.05252 -0.112878,1.86145 -0.03345,0.80892 -0.09295,1.52997 -0.132216,1.60231 -0.04835,0.0891 -0.408306,-0.53378 -1.115547,-1.93039 l -1.044161,-2.06193 -1.168281,8.2e-4 c -0.772361,5.5e-4 -1.204948,0.0375 -1.276475,0.10905 -0.06369,0.0637 -0.153633,0.7251 -0.218648,1.60781 -0.126157,1.71281 -0.128991,1.70311 0.557194,1.90572 0.237803,0.0702 0.734163,0.32951 1.103022,0.57622 2.131792,1.42583 2.770861,4.1723 1.46937,6.31478 -0.692665,1.14025 -2.07493,2.09664 -3.356547,2.32239 -0.614311,0.10821 -0.590172,0.0741 -0.692661,0.9777 -0.03029,0.26708 -0.03035,0.52561 -9.2e-5,0.57452 0.0633,0.10243 3.474533,0.11373 4.042775,0.0134 z m -20.590863,-0.78624 c 1.451652,-0.55282 1.745713,-0.69531 1.741616,-0.8439 -0.0027,-0.0983 -0.749932,-1.29565 -1.66049,-2.66071 -0.910558,-1.36506 -1.686874,-2.53443 -1.725147,-2.5986 -0.04533,-0.076 0.152745,-0.33767 0.568223,-0.75068 2.555173,-2.54001 2.90409,-5.7711 0.933739,-8.64674 -1.15481,-1.68539 -3.428261,-3.01043 -5.849323,-3.40917 -0.94568,-0.15575 -0.948842,-0.15299 -0.948842,0.83065 0,0.79177 0.01442,0.85095 0.326079,1.33815 2.120493,3.31487 2.567708,7.0268 1.276386,10.59413 -0.403982,1.11602 -1.046523,2.39328 -1.776765,3.53191 l -0.561088,0.87487 v 1.01763 c 0,0.5597 0.02511,1.08307 0.0558,1.16304 0.04833,0.12595 0.304184,0.14541 1.912008,0.14541 1.321156,0 1.888009,-0.0318 1.966521,-0.11031 0.0752,-0.0752 0.110308,-0.51648 0.110308,-1.38651 0,-1.50351 0.07056,-1.56554 0.537405,-0.47245 0.779845,1.82593 0.909893,2.06154 1.134217,2.0548 0.117045,-0.004 0.998755,-0.3057 1.959356,-0.67152 z m -3.130088,-10.05416 c 0.07397,-1.02978 0.133061,-1.40183 0.22264,-1.40183 0.09585,0 0.423092,0.36432 0.551912,0.61444 0.05688,0.11043 0.10341,0.38647 0.10341,0.61343 0,0.50276 -0.343099,0.97829 -0.705849,0.97829 h -0.22989 z m 50.746459,10.1779 c 1.617853,-0.10306 3.02791,-0.22342 3.13346,-0.26746 0.200738,-0.0837 0.223235,-0.17726 0.543186,-2.25781 0.06997,-0.45502 0.256549,-1.65047 0.414609,-2.65656 0.304438,-1.9378 0.296927,-2.04334 -0.138545,-1.94654 -0.614673,0.13663 -2.093592,0.24819 -2.177524,0.16426 -0.08853,-0.0885 0.327577,-3.30397 0.986784,-7.62522 0.314506,-2.06165 0.377897,-2.87351 0.224369,-2.87351 -0.156138,0 -3.211188,0.70444 -3.832088,0.88362 -0.283116,0.0817 -0.497657,0.20142 -0.526127,0.29361 -0.02644,0.0856 -0.172204,1.04502 -0.323922,2.13202 -0.151717,1.087 -0.317473,2.24523 -0.368347,2.57386 -0.303541,1.96076 -0.473117,3.3361 -0.426358,3.45795 0.04467,0.1164 0.174688,0.12922 0.777364,0.0766 0.465534,-0.0406 0.74462,-0.0293 0.782292,0.0316 0.104392,0.16891 -0.497245,6.02645 -0.633524,6.16799 -0.06804,0.0707 -0.526751,0.18404 -1.021935,0.25258 -0.494168,0.0684 -0.967515,0.14626 -1.051882,0.17303 -0.253748,0.0805 -0.379684,1.36656 -0.155752,1.59049 0.07012,0.0701 0.252744,0.0946 0.482598,0.0648 0.203384,-0.0264 1.693488,-0.13233 3.311342,-0.23539 z m -41.061067,0.0875 c 0.742564,-0.0545 1.381715,-0.12948 1.420335,-0.16674 0.03862,-0.0373 -0.15566,-1.0372 -0.431732,-2.22208 -0.276074,-1.18488 -1.044026,-4.49149 -1.706561,-7.34801 -0.662535,-2.85652 -1.225672,-5.26514 -1.251415,-5.35249 -0.02604,-0.0884 -0.197251,-0.19726 -0.385975,-0.24548 -0.70844,-0.18101 -3.06907,-0.57339 -3.123315,-0.51914 -0.03121,0.0312 0.02032,0.25174 0.114493,0.49009 0.6079,1.53844 0.722098,1.99079 0.7654,3.03185 0.02589,0.6224 -0.0015,1.26445 -0.06857,1.60866 -0.217062,1.1137 -0.958002,2.60262 -1.950138,3.91879 -0.243875,0.32353 -0.440844,0.65445 -0.437709,0.73539 0.0083,0.21527 2.699911,3.8241 2.852126,3.8241 0.09058,0 0.162064,-0.21654 0.239713,-0.72613 0.06085,-0.39937 0.132085,-0.782 0.158291,-0.85029 0.06026,-0.15704 0.643122,-0.1641 0.764289,-0.009 0.04946,0.0632 0.287998,0.92153 0.530094,1.90741 0.242095,0.98588 0.480636,1.84421 0.530093,1.90741 0.10959,0.14004 0.270054,0.14133 1.980577,0.0159 z m -3.904641,-7.49095 c -0.03042,-0.0793 -0.01043,-0.5392 0.04441,-1.02205 0.148904,-1.31085 0.224142,-1.3016 0.446817,0.0549 0.133529,0.81346 0.13668,0.95331 0.0231,1.02519 -0.204043,0.12912 -0.453296,0.10097 -0.514334,-0.0581 z m 28.191724,7.50506 c 1.51112,-0.0922 2.011546,-0.27144 2.606917,-0.93363 0.64615,-0.71868 0.843416,-1.70256 0.559731,-2.7917 -0.202229,-0.77641 -0.3614,-1.06753 -0.922969,-1.68808 -0.274552,-0.30339 -0.499187,-0.60447 -0.499187,-0.66907 0,-0.0646 0.351325,-0.47647 0.780723,-0.91528 0.992164,-1.01391 1.247463,-1.53206 1.31193,-2.66271 0.07822,-1.37193 -0.357376,-2.48446 -1.339595,-3.42134 -0.935991,-0.89278 -1.762113,-1.17338 -3.454621,-1.17338 -1.296899,0 -3.741068,0.25108 -3.879616,0.39854 -0.06986,0.0743 -0.08751,0.849 -0.05779,2.53677 l 0.04279,2.42974 0.354929,0.31862 c 0.221344,0.19871 0.372044,0.42594 0.400402,0.60375 0.02501,0.15681 0.131264,1.93973 0.236122,3.96205 0.104857,2.02232 0.22901,3.77001 0.275896,3.88377 0.08202,0.19899 0.127981,0.20666 1.21328,0.20231 0.620418,-0.002 1.687394,-0.0386 2.371055,-0.0804 z m -0.949198,-2.27706 c -0.02478,-0.0407 -0.07481,-0.39407 -0.11118,-0.78523 -0.05546,-0.59642 -0.04331,-0.71995 0.07526,-0.76545 0.2387,-0.0916 0.51159,0.12881 0.623991,0.50397 0.09154,0.30552 0.08203,0.4084 -0.0657,0.7109 -0.162781,0.33333 -0.422338,0.50019 -0.522367,0.33581 z m -0.561452,-6.2657 c -0.03023,-0.0489 -0.07745,-0.4752 -0.104936,-0.9473 -0.02749,-0.47211 -0.0666,-0.96704 -0.08693,-1.09984 -0.04948,-0.32331 0.14415,-0.57943 0.381192,-0.50419 0.100903,0.032 0.278039,0.2265 0.393634,0.43218 0.388384,0.69104 0.143538,2.07585 -0.385444,2.18001 -0.07841,0.0154 -0.167286,-0.012 -0.197515,-0.0609 z m 6.089456,8.37485 c 0.04569,-0.0885 0.198275,-0.9675 0.339074,-1.95338 0.140797,-0.98588 0.289989,-1.88558 0.331536,-1.99933 0.06072,-0.16625 0.145922,-0.20683 0.434255,-0.20683 0.197293,0 0.403479,0.0539 0.458192,0.11986 0.05471,0.0659 0.186906,0.77948 0.293765,1.58568 0.272607,2.05671 0.280204,2.08576 0.565382,2.16203 0.226711,0.0606 2.452561,-0.0545 2.901692,-0.15011 0.251414,-0.0535 0.269114,-0.33187 0.07444,-1.17067 -0.329499,-1.41974 -1.501159,-6.7339 -2.456498,-11.14164 -0.208201,-0.9606 -0.432444,-1.80479 -0.498317,-1.87597 -0.09985,-0.1079 -0.357293,-0.1151 -1.547839,-0.0433 -0.785437,0.0474 -1.467692,0.1263 -1.516122,0.17539 -0.04843,0.0491 -0.138786,0.52803 -0.200792,1.06431 -0.110648,0.95699 -0.108426,0.98596 0.119843,1.5627 0.379607,0.95911 0.471663,1.49856 0.412241,2.41574 -0.0474,0.73158 -0.09986,0.92629 -0.428026,1.58856 -0.205705,0.41513 -0.580069,0.98024 -0.831919,1.2558 -0.25185,0.27557 -0.457909,0.55216 -0.457909,0.61466 0,0.0625 0.209876,0.45587 0.466391,0.87416 1.01386,1.65327 1.072481,2.86018 0.215467,4.43606 -0.172791,0.31773 -0.314164,0.59828 -0.314164,0.62345 0,0.11095 0.459078,0.21249 0.984943,0.21786 0.454988,0.005 0.5882,-0.0269 0.654365,-0.15504 z m 0.599923,-7.60713 c -0.0693,-0.1806 0.215306,-2.26104 0.324214,-2.36995 0.05037,-0.0504 0.105856,0.0206 0.139241,0.17814 0.107912,0.50914 0.235813,2.0473 0.181916,2.18775 -0.07127,0.18572 -0.574446,0.18889 -0.645371,0.004 z m -46.812057,7.11789 c 3.283873,-1.6437 5.451183,-5.44127 5.433676,-9.5209 -0.0081,-1.89464 -0.307449,-3.30265 -1.038442,-4.88488 -1.643201,-3.5567 -5.043037,-5.86639 -9.437712,-6.41154 -0.603622,-0.0749 -0.641662,-0.002 -0.498797,0.95681 0.92349,6.19725 1.143457,7.51166 1.274032,7.61301 0.07765,0.0603 0.366131,0.13768 0.641076,0.17203 0.274945,0.0344 0.551073,0.11364 0.613618,0.17618 0.06255,0.0625 0.18805,0.66766 0.2789,1.34471 0.09085,0.67704 0.283166,2.07898 0.42737,3.11541 0.144203,1.03644 0.433047,3.14609 0.641876,4.6881 0.208828,1.54202 0.418624,2.89942 0.466214,3.01646 0.104146,0.25612 0.197695,0.23539 1.198189,-0.26539 z m 0.172663,-7.37022 c -6.44e-4,-0.0126 -0.101446,-0.95371 -0.224074,-2.09126 -0.122628,-1.13756 -0.19327,-2.09848 -0.156984,-2.1354 0.218659,-0.22243 1.583793,0.53348 1.977146,1.09479 0.654107,0.93342 0.30083,2.04907 -0.913388,2.88447 -0.322722,0.22204 -0.677693,0.35067 -0.6827,0.2474 z m 27.670086,6.45472 c 2.318074,-0.36249 4.003968,-2.66891 3.548297,-4.85432 -0.527097,-2.52796 -3.180197,-4.04194 -5.708499,-3.25752 -0.746343,0.23156 -1.157597,0.47803 -1.75527,1.05194 -2.571845,2.46961 -1.120921,6.52737 2.53662,7.09408 0.43601,0.0676 0.783314,0.0589 1.378852,-0.0342 z m 26.875906,-0.60169 c 0.929582,-0.0909 1.529439,-0.19049 1.608367,-0.26704 0.135514,-0.13142 0.5146,-4.63138 0.416608,-4.94536 -0.05609,-0.17971 -0.06618,-0.17914 -1.480755,0.0829 -0.414935,0.0769 -0.869956,0.12648 -1.011159,0.11027 l -0.256732,-0.0295 0.03183,-4.15954 0.03182,-4.15954 h -0.348385 c -0.777101,0 -2.564625,0.29376 -2.679798,0.44039 -0.08718,0.11099 -0.114434,0.94606 -0.112954,3.46095 l 0.0019,3.31466 0.678467,3.05065 c 0.373157,1.67787 0.705646,3.09464 0.738863,3.14838 0.08277,0.13393 0.642751,0.12282 2.381877,-0.0473 z m -32.8424,-4.1809 c 0.0372,-0.0728 0.152858,-0.40931 0.257027,-0.74773 0.104168,-0.33842 0.319891,-0.82739 0.479383,-1.0866 0.175244,-0.28481 0.256723,-0.50455 0.205922,-0.55535 -0.04623,-0.0462 -0.624295,-0.1114 -1.284578,-0.14482 l -1.200516,-0.0608 -0.05894,0.22026 c -0.109403,0.40884 -0.07012,2.27234 0.04946,2.34624 0.106529,0.0658 1.223297,0.20622 1.399264,0.17589 0.04695,-0.008 0.115788,-0.0743 0.152985,-0.14713 z"
         id="path2390"
         inkscape:connector-curvature="0" />
      <path
         style="fill:#090504;stroke-width:0.0919235"
         d="m 84.46749,280.56285 c -0.02492,-0.0412 1.341376,-1.75019 3.036205,-3.79779 7.045017,-8.51139 6.939018,-8.37849 6.886761,-8.63424 -0.09897,-0.48439 -0.792328,-1.84504 -0.940187,-1.84504 -0.08046,0 -0.753001,0.54924 -1.494527,1.22054 -1.157161,1.04757 -2.997645,2.70478 -4.407114,3.96827 -0.216207,0.19381 -0.413554,0.33194 -0.438549,0.30694 -0.04274,-0.0427 0.123299,-0.76819 1.236763,-5.40382 2.514752,-10.46954 2.830849,-11.76989 2.869807,-11.80577 0.01888,-0.0174 5.700327,-0.062 12.625441,-0.0992 10.66352,-0.0572 12.57639,-0.0482 12.49505,0.0586 -0.13451,0.17662 -1.65292,2.04044 -7.72067,9.47696 -2.48151,3.04127 -2.97946,3.69906 -2.97946,3.93577 0,0.31814 0.14221,0.63981 0.28285,0.63981 0.0509,0 2.08668,-1.63399 4.52397,-3.63108 2.43728,-1.9971 4.44438,-3.59219 4.46023,-3.54465 0.0158,0.0475 -0.38417,1.42299 -0.88893,3.05656 -0.50475,1.63357 -1.52423,4.93499 -2.26549,7.33649 -0.74127,2.4015 -1.63547,5.29659 -1.98713,6.43352 -0.35164,1.13694 -0.66881,2.09573 -0.70483,2.13066 -0.036,0.0349 -4.90524,0.0876 -10.820516,0.11697 -5.915277,0.0294 -11.423146,0.0764 -12.239709,0.10443 -0.816564,0.028 -1.505048,0.0173 -1.529965,-0.0239 z m 22.75422,-1.84749 c 0.0782,-0.0649 0.24896,-0.45786 0.37952,-0.87327 0.13056,-0.41541 0.38775,-1.231 0.57152,-1.81242 0.35474,-1.12234 0.70491,-2.26083 0.90474,-2.94155 0.15007,-0.51121 1.44376,-4.69071 1.96941,-6.36254 0.19738,-0.62777 0.18558,-0.89941 -0.0391,-0.89941 -0.0687,0 -0.50302,0.32058 -0.96515,0.7124 -0.46212,0.39183 -1.09861,0.91924 -1.41443,1.17203 -0.52381,0.41929 -1.15588,0.95063 -2.384,2.0041 -0.24743,0.21225 -0.53699,0.44614 -0.64346,0.51976 -0.10647,0.0736 -0.62792,0.50959 -1.15878,0.96882 -1.79665,1.55426 -1.87836,1.60699 -2.51692,1.62446 -0.30939,0.008 -0.79003,0.028 -1.0681,0.0433 -0.59388,0.0328 -1.103078,-0.0345 -1.103078,-0.14577 0,-0.11555 1.241418,-1.70227 1.686148,-2.15515 0.37891,-0.38585 0.39141,-0.39052 1.48521,-0.555 0.6067,-0.0912 1.17547,-0.20386 1.26395,-0.25027 0.20038,-0.10511 0.20588,-0.44 0.023,-1.39591 -0.21178,-1.10679 -0.20145,-1.15634 0.3907,-1.87342 0.55454,-0.67155 2.3636,-2.89462 5.18257,-6.36863 0.92306,-1.13755 2.01156,-2.47405 2.41888,-2.96999 1.11114,-1.35285 1.20396,-1.50149 1.05203,-1.68457 -0.11428,-0.1377 -0.39664,-0.14637 -3.02241,-0.0929 -1.59299,0.0325 -6.01945,0.0668 -9.83657,0.0763 -3.817127,0.01 -7.137522,0.0345 -7.378661,0.0555 -0.32216,0.0281 -0.464993,0.0879 -0.538587,0.22537 -0.101625,0.18989 -0.302485,0.90387 -0.86011,3.05735 -0.17019,0.65725 -0.391691,1.50525 -0.492223,1.88443 -0.100533,0.37918 -0.328975,1.24786 -0.507649,1.93039 -0.178673,0.68253 -0.454995,1.73736 -0.614049,2.34405 -0.785172,2.99496 -0.809006,3.11259 -0.650494,3.21056 0.122532,0.0757 0.632695,-0.36144 2.446922,-2.09683 3.075059,-2.94142 4.564933,-4.33056 4.764834,-4.4427 0.139742,-0.0784 0.83572,-0.11262 2.336256,-0.1149 1.175471,-0.002 2.137221,0.0178 2.137221,0.0435 0,0.15366 -1.314312,1.70323 -2.357837,2.77989 l -0.289559,0.29875 h -1.428022 c -1.48655,0 -1.899609,0.0727 -1.899609,0.33452 0,0.0854 0.221463,0.55175 0.492141,1.03641 0.624664,1.11848 0.664292,1.2457 0.477046,1.53147 -0.08203,0.12519 -0.736965,0.96773 -1.455418,1.87232 -0.718452,0.90459 -1.54512,1.94803 -1.837039,2.31876 -0.29192,0.37073 -1.015818,1.29023 -1.608662,2.04333 -0.592844,0.7531 -1.689633,2.13598 -2.437311,3.07307 -0.747676,0.93709 -1.34726,1.7669 -1.332408,1.84402 0.01485,0.0771 0.122211,0.16272 0.238574,0.19021 0.116362,0.0275 4.546257,0.0293 9.844209,0.004 7.651235,-0.0365 9.661875,-0.0702 9.774775,-0.16394 z m -8.681793,-15.13955 c 0.423976,-0.42878 0.753457,-0.83209 0.732186,-0.89626 -0.05067,-0.15281 -1.75626,-0.2098 -2.093858,-0.07 -0.336153,0.13924 -1.689916,1.51949 -1.612766,1.64432 0.03994,0.0646 0.451509,0.10148 1.133144,0.10148 h 1.070429 z m -70.669127,15.58075 -0.195304,-0.27427 -2.453756,-0.0245 -2.453756,-0.0245 -0.02717,-0.56674 c -0.03803,-0.79338 -0.112232,-0.82875 -1.029239,-0.49064 -0.805082,0.29684 -2.549184,0.7748 -3.189552,0.87408 -0.379999,0.0589 -0.385884,0.0556 -0.438509,-0.24619 -0.06518,-0.37378 -1.233148,-8.37841 -1.620628,-11.10691 -0.154368,-1.08699 -0.316167,-2.06503 -0.359554,-2.17341 -0.06375,-0.15926 -0.186005,-0.20949 -0.637378,-0.26188 -0.469761,-0.0545 -0.565385,-0.0962 -0.60187,-0.26256 -0.02386,-0.10875 -0.170314,-0.98368 -0.32546,-1.94429 -0.155145,-0.9606 -0.529188,-3.27279 -0.831205,-5.13821 -0.302017,-1.86542 -0.526647,-3.41415 -0.499177,-3.44162 0.08786,-0.0879 0.977488,-0.0136 2.159895,0.18042 2.393286,0.3926 4.735936,1.12755 6.927137,2.17321 1.038527,0.49559 1.095909,0.51207 1.215256,0.34885 0.110791,-0.15152 0.210364,-0.16474 0.861983,-0.11449 2.574336,0.19852 6.191377,1.58259 8.50705,3.25526 0.202664,0.14639 0.933731,0.3335 2.757705,0.70582 2.058582,0.4202 2.503447,0.53861 2.608051,0.69417 0.150261,0.22346 0.312517,0.23072 1.160847,0.052 2.924795,-0.61624 5.318268,-0.21519 7.747771,1.29821 0.726765,0.45272 0.90007,0.44488 0.956489,-0.0433 l 0.02844,-0.24607 1.654623,-0.0218 c 0.910042,-0.012 2.999004,-0.0621 4.642136,-0.11149 2.468806,-0.0742 3.139136,-0.1234 3.860787,-0.28365 1.098037,-0.24384 4.130321,-0.35206 5.34193,-0.19065 0.727182,0.0969 1.563632,0.27984 1.931154,0.42243 0.197815,0.0768 0.44849,-0.18421 0.44849,-0.46688 0,-0.14847 0.07048,-0.25258 0.206827,-0.30553 0.308929,-0.11997 4.006563,-0.38077 4.463899,-0.31485 0.250589,0.0361 0.588548,0.003 0.919235,-0.0902 0.610341,-0.17191 5.122602,-0.79765 5.751957,-0.79765 0.403283,0 0.432187,-0.0165 0.484203,-0.27659 0.04795,-0.23975 0.11804,-0.29428 0.526262,-0.40941 1.536545,-0.43335 7.053545,-1.88786 7.160704,-1.88786 0.135456,0 0.155952,-0.15564 -1.026833,7.79735 -0.258087,1.73536 -0.469249,3.27623 -0.469249,3.42415 0,0.32242 0.06652,0.32978 1.191314,0.13183 0.427711,-0.0753 0.80717,-0.10623 0.84324,-0.0688 0.07804,0.081 -1.344792,8.74574 -1.453785,8.85326 -0.06768,0.0668 -8.185701,0.54548 -9.244559,0.54515 -0.435971,-1.8e-4 -0.436636,-6.4e-4 -0.436636,-0.3153 0,-0.37609 -0.212635,-0.62036 -0.489247,-0.56203 -0.110099,0.0232 -1.275684,0.13169 -2.59019,0.24104 -1.961989,0.16322 -2.434196,0.22944 -2.636732,0.36979 -0.226837,0.15719 -0.341671,0.16386 -1.424814,0.0827 -2.137329,-0.16011 -2.293727,-0.15556 -2.537913,0.0738 -0.210781,0.19802 -0.310644,0.20743 -3.192592,0.3008 l -2.975004,0.0964 -0.208226,0.22468 -0.208226,0.22468 -5.86388,-0.0237 -5.863881,-0.0237 -0.0267,-0.75837 c -0.02489,-0.70699 -0.04012,-0.75837 -0.224779,-0.75837 -0.108944,0 -0.303758,0.1004 -0.432919,0.22311 -0.129162,0.12271 -0.486058,0.36452 -0.793104,0.53736 -1.75968,0.99054 -4.119396,1.16229 -6.332206,0.46088 l -0.739179,-0.2343 -1.746546,0.11397 c -1.566672,0.10224 -1.774948,0.0988 -2.022317,-0.0333 -0.220517,-0.1178 -0.576755,-0.14743 -1.777976,-0.14788 l -1.502205,-5.5e-4 -1.537726,0.50558 c -0.84575,0.27807 -1.583712,0.50558 -1.639916,0.50558 -0.0562,0 -0.190075,-0.12343 -0.297492,-0.27428 z m 17.389677,-1.47006 c 0.703808,-0.21739 1.299877,-0.59625 1.811713,-1.15152 0.522861,-0.56724 0.49756,-0.70639 -0.195352,-1.07444 -0.804254,-0.42718 -1.566639,-1.238 -1.967404,-2.09238 -0.178964,-0.38153 -0.374205,-0.79545 -0.433868,-0.91982 -0.09262,-0.19306 -0.209637,-0.24177 -0.800319,-0.3331 -1.188517,-0.18376 -1.857806,-0.6593 -2.194506,-1.55921 -0.776548,-2.07551 1.073364,-4.83378 2.801304,-4.17682 0.348334,0.13244 0.809896,0.53236 1.139414,0.98724 0.32724,0.45175 0.471518,0.47729 0.890571,0.15766 0.386397,-0.29472 1.368428,-0.76166 1.754621,-0.83429 0.162512,-0.0306 0.335492,-0.10379 0.3844,-0.16272 0.04891,-0.0589 0.117719,-0.56222 0.152914,-1.11841 0.06388,-1.00956 0.06357,-1.01176 -0.188243,-1.31102 -0.560463,-0.66607 -1.954744,-1.48747 -3.175683,-1.87086 -0.574102,-0.18027 -0.873878,-0.21437 -1.83523,-0.20875 -0.989357,0.006 -1.251244,0.0409 -1.884432,0.2523 -0.805482,0.26899 -1.844722,0.81822 -2.336956,1.23505 l -0.31464,0.26645 0.943033,4.03765 c 0.518668,2.2207 1.208535,5.17386 1.533037,6.56258 0.398666,1.7061 0.572128,2.62021 0.534885,2.81873 -0.04412,0.23519 -0.01779,0.31377 0.131984,0.39393 0.608514,0.32567 2.347456,0.38013 3.248757,0.10175 z m 8.831997,-0.0252 c 0.115067,-0.0872 0.166821,-0.34266 0.214751,-1.05994 0.03473,-0.51977 0.09093,-0.9622 0.124887,-0.98319 0.03396,-0.021 0.28649,0.36291 0.561187,0.8531 0.769827,1.37372 0.648331,1.30519 2.31076,1.30352 0.773307,-7.3e-4 1.466012,-0.0394 1.539346,-0.0858 0.116258,-0.0735 0.106618,-0.98273 -0.07528,-7.09968 -0.114737,-3.85843 -0.2277,-7.08289 -0.251029,-7.16547 -0.04168,-0.14754 -0.568424,-0.21005 -2.170606,-0.25757 -0.738863,-0.0219 -0.771942,0.056 -0.850742,2.00442 -0.03708,0.91692 -0.104865,1.69027 -0.150623,1.71855 -0.04576,0.0283 -0.497163,-0.7867 -1.00312,-1.81108 -0.505958,-1.02437 -0.971093,-1.895 -1.033634,-1.93472 -0.205116,-0.13028 -2.312206,-0.0886 -2.501039,0.0495 -0.14525,0.10621 -0.188207,0.35899 -0.291644,1.71619 -0.08096,1.06233 -0.0908,1.62838 -0.02959,1.70213 0.05044,0.0608 0.332411,0.19827 0.626601,0.30554 3.646068,1.32942 4.328602,5.99001 1.199084,8.18779 -0.617972,0.43398 -1.389344,0.75219 -2.118377,0.87387 -0.441311,0.0737 -0.503854,0.16901 -0.577684,0.88064 -0.101975,0.98292 -0.259479,0.91704 2.192355,0.91704 1.564101,0 2.173221,-0.0306 2.2844,-0.1149 z m -21.096313,-0.677 c 1.048149,-0.38499 1.959314,-0.74323 2.024812,-0.79608 0.0655,-0.0529 0.0986,-0.14948 0.07357,-0.21472 -0.02503,-0.0652 -0.812864,-1.2756 -1.75073,-2.68967 -0.937865,-1.41408 -1.705209,-2.59917 -1.705209,-2.63353 0,-0.0344 0.349734,-0.434 0.777187,-0.88808 1.363849,-1.44882 2.072226,-3.26954 1.950609,-5.01361 -0.190548,-2.7326 -1.981656,-5.0529 -4.839095,-6.26885 -0.857895,-0.36507 -2.472948,-0.76067 -2.961755,-0.72547 l -0.396394,0.0286 -0.02648,0.91079 -0.02649,0.91079 0.465444,0.75899 c 0.692179,1.12871 1.17149,2.23275 1.488695,3.42906 0.364218,1.3736 0.456973,3.32744 0.222178,4.68007 -0.315953,1.8202 -1.216362,3.991 -2.38207,5.74295 l -0.522627,0.78546 v 1.10434 c 0,0.60738 0.02511,1.16976 0.0558,1.24974 0.04845,0.12626 0.312286,0.1454 2.003932,0.1454 1.392652,0 1.979588,-0.0315 2.058444,-0.11031 0.07448,-0.0745 0.110308,-0.49843 0.110308,-1.30531 0,-0.74481 0.03248,-1.16211 0.08623,-1.10768 0.04743,0.048 0.298095,0.58371 0.557047,1.19041 0.453116,1.06161 0.688779,1.51674 0.785349,1.51674 0.02504,0 0.903107,-0.31499 1.951255,-0.69998 z m -2.858136,-9.57247 c -0.05199,-0.0882 0.08804,-1.76649 0.152784,-1.83123 0.160597,-0.1606 0.520481,0.53829 0.520481,1.01075 0,0.4397 -0.522409,1.07633 -0.673265,0.82048 z m 51.407478,9.64203 c 2.840777,-0.19483 2.706698,-0.14893 2.810841,-0.96237 0.03348,-0.26152 0.162155,-1.11666 0.285943,-1.90031 0.572919,-3.62689 0.646699,-4.15767 0.605473,-4.35589 -0.03818,-0.18356 -0.271813,-0.18351 -2.017097,4.6e-4 -0.51646,0.0544 -0.574522,0.0437 -0.574522,-0.10672 0,-0.18753 1.132843,-8.23047 1.282739,-9.10716 0.137397,-0.80359 0.123224,-1.2003 -0.04519,-1.26493 -0.250853,-0.0963 -4.322866,0.87432 -4.527755,1.07921 -0.116747,0.11674 -0.726544,3.97862 -1.218976,7.71984 -0.118939,0.90364 -0.05068,1.02094 0.552906,0.95008 0.229473,-0.0269 0.499954,-0.0733 0.60107,-0.10295 0.101116,-0.0297 0.241652,-0.0162 0.312303,0.03 0.135879,0.0888 0.102131,0.63418 -0.226468,3.65994 -0.07249,0.66747 -0.132406,1.37069 -0.133152,1.5627 -0.0027,0.69782 -0.11529,0.78613 -1.211832,0.95058 -0.539297,0.0809 -1.039714,0.19615 -1.112036,0.25618 -0.170091,0.14116 -0.293186,1.41524 -0.160659,1.66287 0.122293,0.2285 0.316085,0.25223 1.3828,0.16927 0.4803,-0.0374 2.007426,-0.1457 3.393613,-0.24077 z m -17.917525,0.17453 c 1.781728,-0.0997 2.230501,-0.23035 2.922974,-0.85082 0.883013,-0.7912 1.116782,-1.7705 0.764792,-3.20384 -0.168032,-0.68424 -0.642658,-1.46294 -1.19545,-1.96133 -0.106826,-0.0963 -0.194229,-0.20809 -0.194229,-0.24841 0,-0.1486 0.956269,-1.02807 0.99418,-0.91434 0.02106,0.0632 -0.09061,0.23258 -0.248138,0.37647 -0.157534,0.14388 -0.286424,0.33365 -0.286424,0.4217 0,0.0881 0.231193,0.56488 0.513762,1.0596 1.011171,1.77037 1.036389,2.51121 0.146062,4.29081 -0.328207,0.65602 -0.332489,0.67765 -0.159249,0.80433 0.09792,0.0716 0.351096,0.13018 0.562624,0.13018 0.211528,0 0.505067,0.0241 0.652311,0.0535 0.18644,0.0373 0.332747,9.2e-4 0.481933,-0.11992 0.192219,-0.15565 0.241678,-0.36646 0.481626,-2.05288 0.147074,-1.03368 0.285685,-1.93112 0.308022,-1.99432 0.02234,-0.0632 0.166896,-0.1149 0.32124,-0.1149 0.37513,0 0.410521,0.10627 0.642847,1.93039 0.106247,0.8342 0.23428,1.61503 0.284519,1.73517 l 0.09134,0.21844 1.450638,-0.0657 c 1.888468,-0.0856 2.073622,-0.12408 2.110423,-0.43876 0.01575,-0.13471 -0.102569,-0.83645 -0.262942,-1.55943 -0.160371,-0.72297 -0.454296,-2.05908 -0.653165,-2.96912 -0.19887,-0.91004 -0.4186,-1.90282 -0.48829,-2.20616 -0.291138,-1.26727 -0.535679,-2.37027 -0.784628,-3.53906 -0.145378,-0.68253 -0.350203,-1.61325 -0.455166,-2.06828 -0.104964,-0.45502 -0.23235,-1.03341 -0.283079,-1.28532 -0.148072,-0.73528 -0.129488,-0.72908 -1.824818,-0.6083 -0.812381,0.0579 -1.538505,0.1288 -1.61361,0.15762 -0.173954,0.0667 -0.197857,0.16049 -0.329446,1.29184 -0.101745,0.87477 -0.09632,0.96782 0.08455,1.45125 0.27434,0.73324 0.231847,0.8391 -0.07543,0.18792 -0.5156,-1.09264 -1.61114,-2.0085 -2.810737,-2.34974 -0.824521,-0.23455 -5.13485,-0.0769 -5.682708,0.20786 -0.156787,0.0815 -0.165451,0.2475 -0.137885,2.64206 l 0.02941,2.55511 0.381169,0.41336 c 0.440939,0.47818 0.370779,-0.0705 0.66723,5.21812 0.09494,1.69369 0.201288,3.14942 0.236333,3.23495 0.106271,0.25936 0.974424,0.30331 3.357405,0.16995 z m -0.489695,-2.76947 c -0.113886,-0.42566 -0.07197,-1.00312 0.07281,-1.00312 0.324699,0 0.428759,0.67876 0.155749,1.01592 l -0.169218,0.20897 z m 3.984632,-4.72825 c 0.06395,-0.0771 0.135208,-0.12117 0.158345,-0.098 0.06375,0.0637 -0.06578,0.23815 -0.17687,0.23815 -0.06095,0 -0.05398,-0.0527 0.01852,-0.14011 z m 2.242395,-1.12384 c 0.08524,-0.83337 0.200699,-0.90383 0.279243,-0.17041 0.06892,0.64355 0.03211,0.7909 -0.197552,0.7909 -0.124189,0 -0.135988,-0.0896 -0.08169,-0.62049 z m -6.785028,-0.68942 c -0.168016,-1.37317 -0.157235,-1.81549 0.04425,-1.81549 0.133378,0 0.373539,0.43299 0.46436,0.8372 0.06376,0.28377 0.04895,0.50765 -0.05788,0.87514 -0.177629,0.61102 -0.382841,0.65798 -0.45073,0.10315 z m 5.375357,-1.77719 c 0.0044,-0.10709 0.02619,-0.12887 0.05554,-0.0555 0.02655,0.0664 0.02329,0.14564 -0.0073,0.17619 -0.03055,0.0305 -0.05227,-0.0238 -0.04828,-0.12065 z m -28.089885,10.98672 c 0.707811,-0.0533 1.323895,-0.13357 1.369076,-0.1783 0.104344,-0.10329 0.159147,0.15061 -1.497971,-6.93998 -0.768023,-3.28626 -1.504722,-6.45073 -1.637112,-7.03214 -0.132389,-0.58142 -0.306266,-1.12832 -0.386394,-1.21533 -0.202648,-0.22007 -3.451151,-0.80158 -3.607039,-0.64569 -0.08111,0.0811 -0.02579,0.28401 0.23004,0.84367 0.185259,0.40528 0.40258,0.97579 0.482936,1.26779 0.202021,0.73411 0.270721,2.27985 0.132867,2.98949 -0.22701,1.16859 -0.910553,2.56989 -1.902513,3.90027 -0.461654,0.61915 -0.611978,1.04779 -0.411014,1.172 0.04444,0.0275 0.688083,0.87789 1.430325,1.88985 0.742242,1.01196 1.383352,1.83993 1.424688,1.83993 0.168256,0 0.270603,-0.26623 0.365834,-0.95162 0.05516,-0.39699 0.123244,-0.75894 0.151297,-0.80433 0.02805,-0.0454 0.167836,-0.0825 0.31063,-0.0825 0.190826,0 0.274944,0.0548 0.317437,0.20682 0.0318,0.11376 0.245527,0.94767 0.474952,1.85314 0.229427,0.90547 0.457884,1.72244 0.507683,1.81549 0.108465,0.20266 0.38584,0.2115 2.244278,0.0715 z m -3.951524,-8.19838 c 0.08733,-0.76955 0.18591,-0.92817 0.263616,-0.42418 0.03402,0.22066 0.08604,0.53564 0.115586,0.69995 0.04977,0.27677 0.0354,0.29876 -0.195337,0.29876 h -0.249064 z m -13.536862,7.57238 c 1.071431,-0.5455 1.776003,-1.07716 2.598354,-1.96069 2.108435,-2.26531 3.188245,-5.5159 2.89417,-8.71243 -0.378065,-4.10948 -2.546079,-7.29707 -6.209835,-9.1302 -1.114668,-0.55771 -2.948501,-1.07479 -4.329499,-1.22076 -0.494515,-0.0523 -0.576745,-0.0382 -0.655244,0.11195 -0.13221,0.25291 1.135742,8.49529 1.330092,8.64633 0.07755,0.0603 0.35753,0.13662 0.622177,0.16969 0.264647,0.0331 0.532525,0.0918 0.595284,0.13064 0.110474,0.0683 0.454864,2.35658 1.384014,9.1961 0.209482,1.54201 0.418593,2.89674 0.464689,3.01049 0.120699,0.29786 0.319149,0.26122 1.305798,-0.24112 z m 0.225072,-7.89411 c -0.139006,-0.93669 -0.366439,-3.61223 -0.311708,-3.66696 0.110486,-0.11049 0.779783,0.14714 1.184808,0.45607 1.027307,0.78355 1.16386,1.77183 0.367142,2.65715 -0.334061,0.37121 -0.992902,0.89845 -1.122703,0.89845 -0.03651,0 -0.0894,-0.15512 -0.117539,-0.34471 z m 28.104256,6.89967 c 1.126446,-0.31408 2.198706,-1.17596 2.798983,-2.24982 0.857973,-1.53485 0.4605,-3.71234 -0.909103,-4.98035 -2.279576,-2.11048 -5.942907,-1.4613 -7.320107,1.2972 -0.350161,0.70137 -0.354923,0.72509 -0.354923,1.76803 0,0.99902 0.0162,1.09131 0.294723,1.67931 0.641228,1.35371 1.769353,2.23781 3.290294,2.57857 0.46058,0.1032 1.6817,0.0516 2.200133,-0.0929 z m 26.318526,-0.47184 c 1.181983,-0.11235 1.716643,-0.19932 1.811304,-0.29461 0.09973,-0.1004 0.170806,-0.65585 0.27608,-2.15753 0.181518,-2.58927 0.182989,-3.1361 0.0086,-3.20301 -0.07356,-0.0282 -0.600975,0.0291 -1.172025,0.12744 -0.57105,0.0983 -1.138044,0.17904 -1.259988,0.17937 l -0.221716,6.5e-4 0.05769,-4.08197 c 0.05015,-3.54851 0.03982,-4.09679 -0.07901,-4.19541 -0.144526,-0.11994 -0.363432,-0.10644 -2.140194,0.13196 -0.522676,0.0701 -0.99838,0.17566 -1.05712,0.2345 -0.07767,0.0778 -0.10467,1.06478 -0.09899,3.61828 0.0077,3.43903 0.01275,3.53304 0.247669,4.56841 0.131919,0.58141 0.327805,1.47077 0.435302,1.97635 0.107497,0.50558 0.27156,1.22948 0.364585,1.60866 0.09302,0.37919 0.195148,0.84322 0.226939,1.03119 0.03179,0.18796 0.121181,0.40513 0.198643,0.4826 0.173375,0.17337 0.312069,0.17182 2.402211,-0.0268 z m -32.727617,-4.1757 c 0.0484,-0.0632 0.161334,-0.39362 0.250967,-0.73426 0.08963,-0.34065 0.303294,-0.85239 0.4748,-1.1372 0.457154,-0.75918 0.434427,-0.8251 -0.308654,-0.89528 -0.341266,-0.0322 -0.957324,-0.0589 -1.369017,-0.0593 -0.598177,-5.5e-4 -0.759742,0.0286 -0.804331,0.14475 -0.112367,0.29283 -0.06173,2.50574 0.05911,2.58293 0.10587,0.0676 0.788403,0.1673 1.367597,0.19971 0.132844,0.007 0.281133,-0.0382 0.32953,-0.10139 z"
         id="path2388"
         inkscape:connector-curvature="0" />
    </g>
    <path
       d="m 18.538014,449.28809 c 1.556985,0 3.071253,-0.3652 4.542799,-1.09604 1.471542,-0.73075 2.682007,-1.71199 3.631389,-2.94376 v 0 l -2.705744,-2.94373 c -0.70254,0.89774 -1.509517,1.5867 -2.420927,2.06689 -0.911406,0.48019 -1.88927,0.72025 -2.933591,0.72025 -0.930396,0 -1.789587,-0.1828 -2.577575,-0.54804 -0.787991,-0.3652 -1.471545,-0.86117 -2.050671,-1.48752 -0.579126,-0.62632 -1.034829,-1.3727 -1.367113,-2.2391 -0.332288,-0.86645 -0.498425,-1.80071 -0.498425,-2.80284 0,-1.023 0.161386,-1.96768 0.484186,-2.83413 0.322772,-0.86641 0.769002,-1.61802 1.33863,-2.25476 0.569629,-0.63678 1.248437,-1.13783 2.036429,-1.50319 0.787987,-0.3652 1.628189,-0.54804 2.520613,-0.54804 1.063307,0 2.069653,0.25576 3.019038,0.76724 0.949382,0.51151 1.775348,1.24747 2.477888,2.20781 v 0 l 2.791187,-3.0377 c -0.930395,-1.25263 -2.145603,-2.24953 -3.645632,-2.99068 -1.500028,-0.74118 -3.04752,-1.11173 -4.642481,-1.11173 -1.481039,0 -2.871887,0.29223 -4.172543,0.87687 -1.300655,0.58456 -2.425673,1.37789 -3.375055,2.38003 -0.949385,1.0021 -1.6993969,2.19734 -2.25004,3.5857 -0.5506431,1.38835 -0.8259627,2.87588 -0.8259627,4.46258 0,1.58669 0.2705891,3.06902 0.8117195,4.44695 0.5411503,1.37793 1.2864162,2.56794 2.2358012,3.57004 0.949385,1.00214 2.074404,1.79551 3.375059,2.38006 1.300655,0.58456 2.700993,0.87684 4.201021,0.87684 z m 53.972436,0.0317 c 1.481039,0 2.867138,-0.29224 4.1583,-0.87687 1.291163,-0.58456 2.40668,-1.38312 3.346577,-2.39569 0.939884,-1.01257 1.685154,-2.21305 2.235797,-3.60141 0.550655,-1.38835 0.825955,-2.86545 0.825955,-4.43125 0,-1.56584 -0.275308,-3.04289 -0.825955,-4.43125 -0.550643,-1.38839 -1.295913,-2.58884 -2.235797,-3.6014 -0.939897,-1.01257 -2.055414,-1.81113 -3.346577,-2.39569 -1.291162,-0.5846 -2.677261,-0.87688 -4.1583,-0.87688 -1.462053,0 -2.838658,0.29224 -4.129821,0.87688 -1.291162,0.58456 -2.40668,1.38312 -3.346576,2.39569 -0.939885,1.01256 -1.68515,2.21301 -2.235793,3.6014 -0.550644,1.38836 -0.825967,2.86541 -0.825967,4.43125 0,1.5658 0.275308,3.0429 0.825967,4.43125 0.550643,1.38836 1.295908,2.58884 2.235793,3.60141 0.939896,1.01257 2.055414,1.81113 3.346576,2.39569 1.291163,0.58459 2.667768,0.87687 4.129821,0.87687 z m 0,-4.1651 c -0.892416,0 -1.723129,-0.1828 -2.492123,-0.54804 -0.769006,-0.3652 -1.43357,-0.86641 -1.993714,-1.50315 -0.560136,-0.63678 -1.0016,-1.39359 -1.324388,-2.27046 -0.322811,-0.87688 -0.484193,-1.81637 -0.484193,-2.81847 0,-1.02299 0.161386,-1.96772 0.484193,-2.83412 0.322772,-0.86645 0.764252,-1.61803 1.324388,-2.25477 0.560144,-0.63678 1.224708,-1.13787 1.993714,-1.50323 0.768994,-0.3652 1.599707,-0.54803 2.492123,-0.54803 0.892417,0 1.727876,0.18279 2.506371,0.54803 0.778495,0.3652 1.44781,0.86645 2.007958,1.50323 0.560124,0.63674 1.001583,1.38832 1.324387,2.25477 0.322772,0.8664 0.484177,1.81113 0.484177,2.83412 0,1.0021 -0.161385,1.94159 -0.484177,2.81847 -0.322812,0.87687 -0.764263,1.63368 -1.324387,2.27046 -0.560148,0.63674 -1.229463,1.13783 -2.007958,1.50315 -0.778495,0.3652 -1.613954,0.54804 -2.506371,0.54804 z m 62.60234,3.8206 v -4.00848 h -10.90841 v -17.91294 h -4.12983 v 21.92144 z m 52.06416,0 v -4.00848 h -10.90842 v -17.91294 h -4.1298 v 21.92144 z m 52.46292,0 v -3.94582 h -11.30716 v -5.19853 h 7.37673 v -3.82061 h -7.37673 v -5.01061 h 11.19324 v -3.94587 h -15.32303 v 21.92148 z m 45.79825,0.31326 c 1.55701,0 3.07127,-0.3652 4.5428,-1.09608 1.47154,-0.73072 2.68201,-1.71196 3.6314,-2.94373 v 0 l -2.70574,-2.94372 c -0.70253,0.89773 -1.50952,1.58666 -2.42094,2.06685 -0.91141,0.48019 -1.88927,0.72029 -2.9336,0.72029 -0.93037,0 -1.78958,-0.1828 -2.57755,-0.54804 -0.78801,-0.3652 -1.47156,-0.86122 -2.05067,-1.48753 -0.57913,-0.62631 -1.03485,-1.37269 -1.36711,-2.23914 -0.33229,-0.86641 -0.49844,-1.8007 -0.49844,-2.8028 0,-1.02299 0.16138,-1.96772 0.48419,-2.83412 0.32277,-0.86645 0.76899,-1.61803 1.33863,-2.25477 0.56964,-0.63678 1.24843,-1.13787 2.03643,-1.50323 0.78797,-0.3652 1.62818,-0.54803 2.5206,-0.54803 1.06332,0 2.06966,0.25575 3.01903,0.76727 0.94939,0.51152 1.77537,1.24743 2.47791,2.20778 v 0 l 2.79117,-3.03767 c -0.93038,-1.25266 -2.1456,-2.24956 -3.64563,-2.99071 -1.50001,-0.74115 -3.04751,-1.11174 -4.64248,-1.11174 -1.48104,0 -2.87188,0.29224 -4.17253,0.87688 -1.30066,0.58456 -2.42568,1.37792 -3.37506,2.38002 -0.94937,1.00214 -1.69939,2.19739 -2.25004,3.58574 -0.55065,1.38836 -0.82597,2.87588 -0.82597,4.46258 0,1.58666 0.27059,3.06899 0.81172,4.44692 0.54117,1.37792 1.28643,2.56794 2.23581,3.57007 0.94937,1.00214 2.07438,1.79547 3.37504,2.38003 1.30067,0.58456 2.701,0.87688 4.20103,0.87688 z m 54.62752,-0.31326 v -17.91296 h 6.69315 v -4.00848 h -17.54461 v 4.00848 h 6.72165 v 17.91296 z m 47.3078,0 v -21.92142 h -4.12982 v 21.92144 z m 47.56411,0.34458 c 1.48103,0 2.86712,-0.29224 4.15829,-0.87687 1.29116,-0.58456 2.40671,-1.38313 3.34655,-2.39569 0.93993,-1.01257 1.68516,-2.21305 2.23581,-3.60141 0.55066,-1.38835 0.82596,-2.86545 0.82596,-4.43125 0,-1.56584 -0.27518,-3.0429 -0.82596,-4.43125 -0.55065,-1.38839 -1.29588,-2.58884 -2.23581,-3.6014 -0.93984,-1.01257 -2.05539,-1.81113 -3.34655,-2.39569 -1.29117,-0.5846 -2.67726,-0.87688 -4.15829,-0.87688 -1.46207,0 -2.83864,0.29224 -4.12985,0.87688 -1.29113,0.58456 -2.40667,1.38312 -3.34656,2.39569 -0.93988,1.01256 -1.68515,2.21301 -2.23581,3.6014 -0.55065,1.38835 -0.82596,2.86541 -0.82596,4.43125 0,1.5658 0.27519,3.0429 0.82596,4.43125 0.55066,1.38836 1.29593,2.58884 2.23581,3.60141 0.93989,1.01256 2.05543,1.81113 3.34656,2.39569 1.29121,0.58459 2.66778,0.87687 4.12985,0.87687 z m 0,-4.1651 c -0.89242,0 -1.72318,-0.1828 -2.49212,-0.54804 -0.76902,-0.3652 -1.4336,-0.86641 -1.99373,-1.50315 -0.56013,-0.63678 -1.00158,-1.39359 -1.3244,-2.27046 -0.32277,-0.87688 -0.48415,-1.81637 -0.48415,-2.81847 0,-1.02299 0.16138,-1.96772 0.48415,-2.83412 0.32278,-0.86645 0.76427,-1.61803 1.3244,-2.25477 0.56013,-0.63678 1.22471,-1.13787 1.99373,-1.50323 0.76894,-0.3652 1.5997,-0.54803 2.49212,-0.54803 0.89238,0 1.72786,0.18279 2.50636,0.54803 0.7785,0.3652 1.44783,0.86645 2.00797,1.50323 0.56009,0.63674 1.00158,1.38832 1.32435,2.25477 0.32277,0.8664 0.4842,1.81113 0.4842,2.83412 0,1.0021 -0.16139,1.94159 -0.4842,2.81847 -0.32277,0.87687 -0.76426,1.63368 -1.32435,2.27046 -0.56014,0.63674 -1.22947,1.13783 -2.00797,1.50315 -0.7785,0.3652 -1.61398,0.54804 -2.50636,0.54804 z m 51.46604,3.8206 v -14.65606 l 10.16791,14.65606 h 3.64561 v -21.92144 h -3.87346 v 14.1863 l -9.91159,-14.1863 h -3.93044 v 21.92144 z"
       id="COLLECTION"
       inkscape:connector-curvature="0"
       style="fill:#ffffff;fill-rule:nonzero;stroke:none;stroke-width:1.27624106" />
  </g>
</svg>
