<?xml version="1.0" encoding="UTF-8" standalone="no"?>
<!-- Created with Inkscape (http://www.inkscape.org/) -->

<svg
   xmlns:dc="http://purl.org/dc/elements/1.1/"
   xmlns:cc="http://creativecommons.org/ns#"
   xmlns:rdf="http://www.w3.org/1999/02/22-rdf-syntax-ns#"
   xmlns:svg="http://www.w3.org/2000/svg"
   xmlns="http://www.w3.org/2000/svg"
   xmlns:sodipodi="http://sodipodi.sourceforge.net/DTD/sodipodi-0.dtd"
   xmlns:inkscape="http://www.inkscape.org/namespaces/inkscape"
   width="500"
   height="200"
   viewBox="0 0 132.29166 52.916668"
   version="1.1"
   id="svg8"
   inkscape:version="0.92.5 (2060ec1f9f, 2020-04-08)"
   sodipodi:docname="ddr.svg">
  <defs
     id="defs2" />
  <sodipodi:namedview
     id="base"
     pagecolor="#ffffff"
     bordercolor="#666666"
     borderopacity="1.0"
     inkscape:pageopacity="0.0"
     inkscape:pageshadow="2"
     inkscape:zoom="1.596875"
     inkscape:cx="314.79506"
     inkscape:cy="147.64777"
     inkscape:document-units="mm"
     inkscape:current-layer="layer1"
     showgrid="false"
     units="px"
     inkscape:pagecheckerboard="true"
     inkscape:window-width="1366"
     inkscape:window-height="739"
     inkscape:window-x="0"
     inkscape:window-y="0"
     inkscape:window-maximized="1" />
  <metadata
     id="metadata5">
    <rdf:RDF>
      <cc:Work
         rdf:about="">
        <dc:format>image/svg+xml</dc:format>
        <dc:type
           rdf:resource="http://purl.org/dc/dcmitype/StillImage" />
        <dc:title></dc:title>
      </cc:Work>
    </rdf:RDF>
  </metadata>
  <g
     inkscape:label="Layer 1"
     inkscape:groupmode="layer"
     id="layer1"
     transform="translate(0,-244.08332)">
    <path
       id="path186"
       style="fill:#2482c3;stroke-width:0.12616596"
       d="m 26.154843,254.17757 c -0.177832,5e-4 -0.233378,0.0465 -0.176534,0.1385 0.06347,0.10267 -0.04027,0.11929 -0.364284,0.0585 -0.285427,-0.0535 -0.608499,-0.0203 -0.87292,0.0902 -0.426205,0.17809 -0.678819,0.38312 -4.408976,3.58189 -1.156409,0.99168 -2.162624,1.80338 -2.23643,1.80338 -0.07381,0 -0.90352,-0.50946 -1.84386,-1.13187 -0.940339,-0.6224 -1.930687,-1.19126 -2.200831,-1.26402 -0.518705,-0.13966 -1.674317,-0.0663 -2.387606,0.15118 -0.24741,0.0754 -0.909831,0.58564 -1.582472,1.21867 -0.6364463,0.59897 -1.85241,1.73467 -2.7021497,2.52367 -0.8497388,0.789 -1.6484788,1.64026 -1.7746113,1.89213 -0.2884717,0.57605 -0.4217157,1.84927 -0.2565116,2.44759 0.081111,0.29376 0.5500894,0.92549 1.3201082,1.77705 0.6570848,0.72668 1.1947778,1.40717 1.1947778,1.51225 0,0.10507 -0.155903,0.31337 -0.3467291,0.4628 -1.134495,0.88841 -5.7462663,5.38061 -5.9660891,5.8115 -0.3432433,0.67281 -0.3842247,2.35965 -0.074613,3.07862 0.3633731,0.8438 2.8912887,5.10645 3.3414782,5.63448 0.9264158,1.08662 2.2866769,1.34328 3.5989648,0.67932 0.6445318,-0.3261 2.8711168,-2.24157 6.1904158,-5.32481 0.620944,-0.5768 1.165567,-1.04848 1.210384,-1.04848 0.04481,0 1.522471,1.59495 3.283445,3.54434 3.112656,3.4457 3.548544,3.84611 4.533819,4.16613 0.173478,0.0563 0.745015,0.0903 1.270366,0.0756 1.548887,-0.0435 1.771675,-0.20822 6.836084,-5.04001 1.887763,-1.80107 3.375918,-3.27201 4.16368,-4.10468 0.0034,-0.024 0.0086,-0.0477 0.01755,-0.0707 0.0099,0.0247 0.01151,0.0244 0.01658,0.0356 0.0052,-0.006 0.01393,-0.0145 0.01902,-0.02 0.0023,-0.0769 0.0062,-0.2499 0.08095,-0.51741 0.08382,-0.30006 0.04487,-0.0583 0.113137,-0.18873 0.032,-0.0611 0.05531,-0.12631 0.08583,-0.18824 0.01079,-0.0219 0.02503,-0.0421 0.03755,-0.0629 0.08025,-0.13991 0.07081,-0.61431 0.08095,-0.71297 0.04581,-0.44567 0.172114,-0.88012 0.168244,-1.33133 -4.5e-5,-0.0239 -4.99e-4,-0.0478 -4.99e-4,-0.0717 -0.384357,-0.33836 -0.339499,-0.78853 -0.252124,-1.24501 -0.253345,-0.3304 -0.602329,-0.64594 -1.061158,-0.95485 -0.312922,-0.21068 -0.577728,-0.40845 -0.724669,-0.53497 -0.132692,-0.0141 -0.26462,-0.037 -0.39696,-0.0546 -0.159963,-0.0982 -0.341364,-0.16787 -0.479861,-0.29454 -0.122905,-0.11241 -0.203943,-0.23288 -0.252611,-0.3599 -1.370362,-0.89012 -4.751267,-3.23022 -4.771312,-3.32831 -0.02222,-0.10875 3.080318,-3.06619 4.539183,-4.36948 0.07459,-0.10141 0.149254,-0.20292 0.223839,-0.3043 0.05689,-0.0467 0.113804,-0.0932 0.170682,-0.13996 -0.0068,0.008 -0.01054,0.0144 -0.0039,0.0214 0.01883,0.0202 0.03979,-0.0377 0.05901,-0.0576 0.109285,-0.1124 0.203521,-0.23789 0.305767,-0.35649 0.07586,-0.0707 0.151875,-0.14099 0.227739,-0.21164 0.008,-9.4e-4 0.01748,0.002 0.02389,-0.003 0.149177,-0.11661 0.262845,-0.28087 0.411589,-0.39842 0.185995,-0.18615 0.484001,-0.53233 0.575445,-0.61543 0.129205,-0.2069 0.23572,-0.43376 0.386719,-0.62665 v -5e-4 c -1.3e-5,-0.011 1.4e-5,-0.0221 0,-0.0331 -5e-4,-0.0185 -5e-4,-0.0371 -10e-4,-0.0556 -0.0015,-0.0692 -0.0037,-0.13856 -0.0054,-0.20774 -1.55e-4,-0.11821 2.07e-4,-0.19092 0.0063,-0.26675 -0.03158,-0.0634 -0.06078,-0.12766 -0.08241,-0.19409 -0.0679,-0.20847 -0.07484,-0.40451 -0.07168,-0.61251 l -0.358435,-0.003 -0.321371,-0.42184 c -0.176856,-0.23186 -0.532713,-0.55942 -0.790503,-0.72807 -0.851361,-0.55699 -6.133087,-2.96999 -6.814626,-3.11326 -0.432452,-0.0911 -0.732633,-0.13604 -0.91047,-0.13557 z m 9.349508,5.772 c 0.0098,-0.0127 -0.04439,0.0558 -0.01902,0.0683 0.0094,-0.0226 0.01071,-0.0233 0.0195,-0.0448 -1.2e-5,-0.008 -4.99e-4,-0.0156 -4.99e-4,-0.0234 z m -1.299626,1.9136 c -0.02864,0.006 -0.08106,0.0258 -0.09168,0.0585 0.01311,-0.007 0.02352,-0.013 0.03755,-0.0205 0.02125,-0.0143 0.03792,-0.0268 0.05413,-0.038 z m -15.709629,2.21351 c 0.250277,0 4.50638,2.75481 4.506996,2.9172 2.5e-4,0.0779 -0.269245,0.38664 -0.598853,0.68615 -0.329608,0.29951 -1.888072,1.75441 -3.463393,3.23322 -1.575319,1.47881 -2.909625,2.68794 -2.965001,2.68606 -0.102622,-0.003 -3.303791,-3.54484 -3.474611,-3.84475 -0.06383,-0.11207 0.851789,-1.0445 2.867956,-2.92111 1.629017,-1.51626 3.03617,-2.75677 3.126906,-2.75677 z m 17.266743,16.84198 c -0.01066,0.0284 -0.01658,0.0498 -0.01658,0.0629 0,0.0442 0.04128,0.0777 0.158492,0.1029 -0.04305,-0.0488 -0.09507,-0.11117 -0.14191,-0.1658 z"
       inkscape:connector-curvature="0" />
    <path
       id="path184"
       style="fill:#c81978;stroke-width:0.12616596"
       d="m 26.388924,255.02318 c -0.769543,-0.0175 -1.633971,0.0866 -1.939442,0.28675 -0.356243,0.23337 -2.608103,2.12077 -4.892252,4.10029 -0.693912,0.60138 -1.346714,1.1208 -1.450803,1.1543 -0.104079,0.0334 -0.865235,-0.39165 -1.691708,-0.9446 -1.978169,-1.32352 -2.435398,-1.51939 -3.506796,-1.49957 -0.468702,0.008 -1.055201,0.10078 -1.303041,0.20433 -0.247831,0.10355 -0.945957,0.65829 -1.551748,1.23281 -0.6057919,0.57453 -1.797799,1.69029 -2.6485061,2.47929 -0.8506966,0.789 -1.6583535,1.65385 -1.7950959,1.92189 -0.3060652,0.59995 -0.3509335,1.88868 -0.087782,2.51391 0.1013899,0.24091 0.6975114,1.00311 1.3244991,1.69415 0.81042,0.8932 1.1166678,1.31735 1.0592075,1.46689 -0.044448,0.11568 -0.5352857,0.62753 -1.0904181,1.13772 -3.0618845,2.81404 -5.0304205,4.75672 -5.243858,5.1751 -0.3002753,0.5886 -0.3360352,1.8342 -0.077052,2.66557 0.1907737,0.61242 2.548173,4.79849 3.2410194,5.75494 0.9995739,1.37987 2.6041231,1.61075 4.1168655,0.59202 0.58688,-0.39524 2.8241136,-2.36732 5.7086016,-5.03173 0.651617,-0.6019 1.228926,-1.09431 1.283046,-1.09431 0.05407,0 1.439958,1.4902 3.079602,3.31172 3.030026,3.36613 3.824268,4.13063 4.529429,4.35778 v 5e-4 c 0.524539,0.16894 1.921985,0.18334 2.490991,0.0254 0.250738,-0.0696 0.684818,-0.28236 0.964601,-0.47254 0.483508,-0.32867 7.67581,-7.1072 8.850137,-8.34102 1.113637,-1.17005 1.375771,-2.63153 0.714917,-3.98227 -0.39602,-0.80948 -0.353683,-0.77669 -4.772286,-3.71456 -1.786828,-1.18803 -3.248334,-2.23583 -3.248334,-2.3286 0,-0.11714 1.899961,-1.92971 3.468271,-3.36391 -0.0057,-0.41118 0.294998,-0.92398 0.988496,-1.32254 0.175413,-0.10081 0.372583,-0.15268 0.553499,-0.2409 -0.01845,0.003 -0.03665,0.006 -0.0551,0.009 2.5e-4,-0.002 -2.72e-4,-0.004 9.43e-4,-0.005 0.211136,-0.14185 0.241275,-0.0598 0.204332,-0.14728 0.210417,-0.18011 0.43852,-0.34483 0.643228,-0.43597 0.06732,-0.03 0.138611,-0.0496 0.209696,-0.0697 0.102338,-0.11017 0.22875,-0.20299 0.340878,-0.30235 0.08791,-0.12276 0.275233,-0.2306 0.336488,-0.37014 0.0081,-0.0107 0.01635,-0.0214 0.02438,-0.0322 3e-6,-0.0245 0,-0.0491 0,-0.0736 -6.2e-5,-0.002 -4.86e-4,-0.01 -4.86e-4,-0.0103 -0.002,-0.139 -2.62e-4,-0.27793 4.86e-4,-0.41695 6e-6,-0.18645 1.8e-5,-0.37289 0,-0.55935 -4e-5,-0.0202 3.3e-5,-0.0296 0,-0.0459 -1.67e-4,-0.0879 3e-5,-0.13721 0,-0.24773 -2e-6,-0.0134 -0.01338,-0.0405 0,-0.04 0.0017,7e-5 0.0031,-6e-5 0.0049,0 0.0012,-0.0142 0.002,-0.0296 0.0039,-0.0414 -0.06151,-0.12914 -0.148489,-0.30911 -0.168731,-0.36673 -0.04216,-0.11999 -0.07947,-0.24189 -0.112651,-0.36477 l -0.229202,-0.28869 c -0.191063,-0.24095 -0.546174,-0.56864 -0.789042,-0.72809 -0.411467,-0.27014 -5.276417,-2.59571 -6.346467,-3.03376 -0.252341,-0.1033 -0.679897,-0.15776 -1.141624,-0.16825 z m -0.641767,0.8461 c 0.664632,0.0341 1.582157,0.48053 3.494117,1.37815 2.960956,1.39009 3.752579,1.89526 3.752579,2.39346 0,0.15013 -0.241031,0.53686 -0.535943,0.85925 -1.104398,1.2073 -5.830358,5.46981 -6.335739,5.71446 -1.045617,0.50618 -1.251928,0.42621 -4.79862,-1.85313 -2.739587,-1.76063 -2.991587,-2.01231 -2.706051,-2.70166 0.14745,-0.35598 2.167127,-2.19568 5.152665,-4.69279 0.900836,-0.75346 1.312362,-1.13179 1.976992,-1.09774 z m 2.509523,2.14622 c -0.230619,0 -5.539584,0.97939 -5.900255,1.08847 -0.292858,0.0885 -0.469175,0.55008 -0.31942,0.83585 0.14209,0.27121 0.64514,0.27957 1.683906,0.0288 0.884556,-0.21356 1.324497,-0.23544 1.324497,-0.0653 0,0.0668 -0.645641,0.66322 -1.435198,1.32497 -1.488925,1.24789 -1.891029,1.79017 -1.592712,2.14963 0.216994,0.26147 0.871184,0.236 1.324985,-0.0517 0.208179,-0.13195 1.003019,-0.78457 1.766321,-1.44983 0.763312,-0.66526 1.444321,-1.18969 1.513711,-1.166 0.07578,0.0259 0.10953,0.48073 0.08339,1.13821 -0.05681,1.4255 0.173469,1.71732 1.043114,1.32108 0.452518,-0.20619 0.544957,-0.64759 0.635427,-3.04058 0.0721,-1.90746 0.05954,-2.11355 -0.127281,-2.11355 z m 6.328911,4.04907 c -0.02502,-0.0103 -0.06988,0.018 -0.104361,0.0439 0.02197,-0.007 0.04413,-0.0126 0.06583,-0.0195 0.01286,-0.008 0.05266,-0.0186 0.03852,-0.0243 z m -16.090495,2.51148 c 0.281749,0 4.528989,2.85331 4.530405,3.04352 7.48e-4,0.11259 -0.268266,0.45002 -0.597877,0.74953 -0.329601,0.29951 -1.888066,1.75441 -3.463395,3.23322 -1.575319,1.47881 -2.941884,2.68898 -3.036687,2.68898 -0.149915,0 -3.497996,-3.63798 -3.599452,-3.91107 -0.04445,-0.11972 5.995293,-5.80418 6.167006,-5.80418 z m -9.1446868,5.55304 c 0.2948829,0.0155 0.5964915,0.15248 0.8894998,0.40865 0.257948,0.22553 1.282718,1.31468 2.277394,2.42077 2.749625,3.05762 2.746816,3.11154 -0.319908,5.9227 -3.3492829,3.07016 -4.6527086,4.19548 -5.1087744,4.41189 -0.6169752,0.29278 -1.0133396,0.2595 -1.4683598,-0.12337 -0.369802,-0.31118 -2.067001,-3.04265 -2.9942611,-4.8191 -0.5621841,-1.07706 -0.5673077,-1.73418 -0.017553,-2.3603 0.5112436,-0.58228 5.6191453,-5.36558 6.031926,-5.64862 0.1868287,-0.1281 0.3831527,-0.19849 0.5837338,-0.21165 0.041786,-0.003 0.084177,-0.003 0.1263042,-9.4e-4 z m 26.0939598,1.16357 c -0.03247,0.0191 -0.06275,0.0417 -0.09656,0.0585 0.02968,0.005 0.06097,0.003 0.09168,0.004 0.0015,-0.0207 0.003,-0.0413 0.0049,-0.0619 z m -24.879675,1.90676 c -0.403707,0.0205 -1.0997578,0.52547 -2.2291153,1.57808 -0.7550633,0.70376 -1.4278019,1.27963 -1.4946925,1.27963 -0.1315388,0 -0.067389,-0.49217 0.2194501,-1.68097 0.1646643,-0.68246 0.1609961,-0.75138 -0.056083,-0.96851 -0.2611649,-0.26116 -0.6348156,-0.21837 -0.9290011,0.1068 -0.1759904,0.19451 -1.4678717,5.05444 -1.4678717,5.52183 0,0.19547 0.2275672,0.20704 2.7796886,0.1424 3.1664069,-0.0802 3.4024359,-0.14342 3.4024359,-0.91242 0,-0.62903 -0.302261,-0.74776 -1.6580585,-0.65152 -0.7849235,0.0558 -1.1317102,0.036 -1.1967303,-0.0693 -0.05681,-0.0919 0.4386104,-0.65916 1.3049912,-1.49322 1.4666806,-1.41196 1.8701316,-1.97767 1.7502276,-2.4554 -0.06021,-0.24005 -0.171024,-0.37471 -0.348192,-0.39599 h -4.99e-4 c -0.02436,-0.003 -0.04965,-0.004 -0.07656,-0.002 z"
       inkscape:connector-curvature="0" />
    <path
       inkscape:connector-curvature="0"
       id="path182"
       d="m 23.452758,286.50155 c -0.705162,-0.22715 -1.499616,-0.99141 -4.529649,-4.35755 -1.63964,-1.82152 -3.025447,-3.31185 -3.079568,-3.31185 -0.05407,0 -0.631535,0.49246 -1.283162,1.09436 -2.884478,2.6644 -5.121615,4.63619 -5.7085045,5.03143 -1.532607,1.03212 -3.1167017,0.78967 -4.1455592,-0.63447 -0.2280518,-0.31567 -1.0391711,-1.66262 -1.8024746,-2.99321 l -1.3878262,-2.41927 -0.020478,-1.20646 c -0.015477,-0.9096 0.034161,-1.33162 0.2015247,-1.71512 0.1581339,-0.36236 0.9624113,-1.20215 2.796122,-2.91957 1.4157793,-1.32599 2.8038133,-2.60161 3.0845323,-2.83472 0.2807097,-0.23312 0.5361945,-0.45742 0.567742,-0.49846 0.031519,-0.041 -0.525644,-0.71932 -1.2382139,-1.50727 -0.8810089,-0.97422 -1.3437466,-1.59343 -1.446118,-1.93511 -0.100852,-0.33662 -0.107656,-0.51677 -0.020572,-0.54579 0.07172,-0.0239 0.114007,-0.31046 0.094378,-0.63975 -0.056527,-0.94851 0.2942988,-1.49077 1.9516237,-3.01636 0.8103172,-0.74589 1.9274936,-1.78905 2.4826184,-2.31813 1.3777573,-1.3131 1.5622863,-1.41757 2.5648513,-1.45204 0.462898,-0.0159 0.936856,-0.0677 1.053232,-0.11508 0.116999,-0.0477 0.460482,0.024 0.768314,0.16012 0.581623,0.25727 3.550628,2.20052 3.678696,2.40774 0.04058,0.0656 0.428303,-0.21272 0.861701,-0.61848 1.474816,-1.38081 5.454842,-4.69692 5.803082,-4.83508 0.190833,-0.0757 0.346956,-0.18197 0.346956,-0.23614 0,-0.15519 0.437825,-0.11489 0.608746,0.0561 0.121953,0.12196 0.206743,0.12196 0.40202,0 0.337624,-0.21085 0.880792,-0.19397 1.465606,0.0455 1.078315,0.4416 5.9422,2.76623 6.355252,3.03741 0.242868,0.15945 0.597921,0.48703 0.788999,0.72796 l 0.347419,0.43805 4.320726,0.0378 4.320717,0.0376 0.604602,0.3554 c 0.332537,0.19546 0.776533,0.59288 0.986655,0.88316 l 0.382043,0.52776 3.366071,0.093 c 1.851348,0.0512 5.612447,0.13631 8.358015,0.18925 l 4.991943,0.0962 0.74122,0.38845 0.741211,0.38844 0.753234,-0.38844 0.753224,-0.38845 h 7.61267 c 5.97253,0 7.612671,-0.0337 7.612661,-0.15642 0,-0.0861 -0.256107,-0.55596 -0.569129,-1.04429 -0.411958,-0.6427 -0.522511,-0.90577 -0.400341,-0.95265 0.09286,-0.0357 2.634118,-0.0483 5.647307,-0.0281 l 5.478531,0.0367 0.604602,0.3554 c 0.332537,0.19546 0.776543,0.59288 0.986683,0.88316 l 0.382071,0.52776 3.239882,0.0908 c 1.781929,0.0499 5.539254,0.13668 8.349594,0.19281 5.26946,0.10526 5.42239,0.12168 6.18417,0.66412 l 0.34758,0.24749 0.79165,-0.40834 0.79165,-0.40835 7.13971,-0.0315 c 4.59509,-0.0203 7.37016,0.0155 7.78632,0.1003 1.02076,0.20813 1.68674,0.7074 2.19427,1.64499 l 0.43824,0.80958 0.0442,2.30253 c 0.03,1.5661 9.4e-4,2.30252 -0.0897,2.30252 -0.0832,0 -0.14738,0.48868 -0.16976,1.29321 l -0.036,1.2932 -3.97423,-9.4e-4 c -2.18582,-7.6e-4 -4.17294,-0.009 -4.4158,-0.0194 -1.1151,-0.0454 -15.3305,0.0815 -15.47806,0.13819 -0.0916,0.0351 -0.16653,0.24246 -0.16653,0.46068 0,0.38117 0.0161,0.3934 0.41004,0.31082 0.85056,-0.17831 5.56227,-0.22713 6.63431,-0.0687 0.77387,0.11434 1.08863,0.11817 1.19226,0.0145 0.0978,-0.0978 1.37885,-0.14081 4.19307,-0.14081 4.64577,0 5.01545,0.056 5.92827,0.89737 0.97753,0.90105 1.11659,1.36082 1.17366,3.8805 l 0.0496,2.19146 0.99656,1.31134 c 0.54811,0.72124 0.99657,1.36833 0.99657,1.43799 0,0.0838 -2.27202,0.10915 -6.71834,0.0749 -3.69509,-0.0284 -6.83189,-0.0558 -6.97067,-0.0607 -0.13879,-0.005 -1.61492,0.0198 -3.28032,0.0551 -2.41803,0.0511 -3.16776,0.0268 -3.7219,-0.12091 -0.61154,-0.16299 -0.71853,-0.16275 -0.90141,0.002 -0.17808,0.16045 -0.96521,0.18079 -5.5513,0.14343 -5.584149,-0.0455 -5.757429,-0.0619 -6.561848,-0.62165 -0.50075,-0.34845 -0.715213,-0.29857 -0.761067,0.17699 l -0.03954,0.41005 -4.100409,0.0329 c -3.143565,0.0252 -4.254947,-0.008 -4.76268,-0.1392 -0.556701,-0.14468 -0.684873,-0.1449 -0.803985,-9.5e-4 -0.185039,0.22296 -6.035078,0.25197 -6.256024,0.031 -0.102173,-0.10217 -0.371672,-0.0987 -1.003018,0.0128 -1.354609,0.23928 -6.233328,0.11306 -7.025045,-0.18175 -0.607283,-0.22614 -1.287314,-0.7986 -1.806504,-1.52074 l -0.272131,-0.37849 -0.326733,0.75699 c -0.179707,0.41635 -0.400077,0.89894 -0.489709,1.07242 l -0.162975,0.31541 h -2.833897 -2.833897 l -0.34572,-0.72546 c -0.190144,-0.399 -0.400219,-0.72545 -0.466824,-0.72545 -0.06662,0 -0.138128,0.32645 -0.158946,0.72545 l -0.03784,0.72546 -0.693913,0.0429 c -0.381646,0.0237 -3.66053,0.003 -7.286399,-0.0466 l -6.592487,-0.0896 -0.157398,-0.32261 c -0.234582,-0.48085 -0.472797,-0.49916 -0.472797,-0.0363 v 0.38901 H 39.87044 c -2.623162,0 -3.974222,-0.0439 -3.974222,-0.12898 0,-0.071 0.369029,-0.68083 0.820075,-1.35532 l 0.820084,-1.22635 v -3.25854 -3.25854 l -0.381552,-0.55456 -0.381543,-0.55456 -1.290154,-0.036 -1.290155,-0.036 -0.03322,-4.3932 c -0.02831,-3.74486 -0.06002,-4.38723 -0.214717,-4.35273 -0.274274,0.0611 -5.492646,4.91431 -5.492646,5.10824 0,0.0928 1.461944,1.14061 3.248771,2.32863 4.418605,2.93787 4.376243,2.9049 4.772262,3.71433 0.660856,1.35073 0.398331,2.81232 -0.715306,3.98237 -1.174327,1.23382 -8.36665,8.01241 -8.850168,8.34107 -0.279784,0.19018 -0.713853,0.40276 -0.964582,0.47242 -0.569016,0.15806 -1.966128,0.14412 -2.490677,-0.0248 z m 2.870965,-1.9604 c 0.156936,-0.2001 0.152472,-0.20456 -0.04766,-0.0477 -0.21016,0.16482 -0.276992,0.26843 -0.173158,0.26843 0.02623,0 0.125558,-0.0994 0.220795,-0.2208 z m -1.025421,-0.0812 c 0.306887,-0.16234 0.581869,-0.41447 3.562066,-3.26613 0.781817,-0.74811 2.002658,-1.91199 2.712982,-2.58641 3.478002,-3.30223 3.603315,-3.48796 3.158158,-4.68129 -0.202327,-0.54238 -0.358639,-0.73491 -0.835287,-1.02885 -0.322506,-0.1989 -0.756706,-0.4805 -0.964875,-0.62579 -0.208177,-0.1453 -0.657402,-0.44604 -0.99829,-0.66829 -0.340889,-0.22227 -0.828087,-0.54606 -1.082675,-0.71954 -0.254579,-0.17348 -1.416996,-0.95413 -2.58315,-1.73478 l -2.12028,-1.41937 -0.771276,7.6e-4 c -1.122367,9.4e-4 -1.31269,0.12724 -3.958737,2.62308 -0.536817,0.50636 -1.373444,1.29152 -1.859189,1.74482 -1.821763,1.7001 -3.034922,2.89584 -3.247941,3.20129 -0.140364,0.20128 -0.220257,0.55358 -0.220785,0.97358 -8.87e-4,0.70889 0.160757,0.95498 1.731216,2.63555 0.331112,0.35433 0.829115,0.909 1.106682,1.2326 0.532231,0.62052 1.635422,1.81933 2.452553,2.66515 0.268158,0.27756 0.553945,0.63622 0.635083,0.79701 0.08116,0.16078 0.410099,0.45885 0.731019,0.66236 0.495531,0.31426 0.708107,0.36936 1.41039,0.36557 0.454811,-0.003 0.968857,-0.0795 1.142336,-0.17132 z m -4.636635,-5.40506 c -0.184926,-0.19685 -0.283834,-0.4591 -0.283834,-0.75261 0,-0.58304 0.394321,-0.8578 1.224597,-0.8533 0.332641,0.002 1.053156,-0.0411 1.601137,-0.0953 1.335414,-0.13219 1.434794,-0.29329 0.710626,-1.15211 -0.298507,-0.35401 -0.646974,-0.67673 -0.774381,-0.71717 -0.127408,-0.0404 -0.430001,-0.30526 -0.672435,-0.58848 -0.242424,-0.28322 -0.610161,-0.61796 -0.817168,-0.74386 -0.508328,-0.30912 -0.731463,-1.08837 -0.461275,-1.61087 0.228438,-0.44174 0.449894,-0.53978 0.988146,-0.43749 0.53895,0.10244 0.954862,0.32383 1.424205,0.75809 0.211585,0.19577 0.679984,0.58053 1.04086,0.85501 0.360886,0.27448 0.656157,0.53407 0.656157,0.57687 0,0.0428 0.240508,0.2353 0.534467,0.42776 0.383883,0.25133 0.588277,0.31625 0.725451,0.2304 0.310351,-0.19421 0.443572,-1.32267 0.250946,-2.1256 -0.235715,-0.98259 -0.08918,-1.34073 0.608972,-1.4881 0.477478,-0.10079 0.572177,-0.08 0.857954,0.18849 0.311937,0.29305 0.321317,0.34925 0.323988,1.9427 0.0019,0.90251 0.01047,2.49254 0.01982,3.53341 l 0.01708,1.89249 -0.439221,0.0392 c -0.628355,0.0561 -3.220187,0.17541 -4.918109,0.22644 -0.798002,0.024 -1.649634,0.078 -1.89253,0.11991 -0.360971,0.0624 -0.493446,0.0211 -0.725451,-0.22584 z m -14.1281524,5.24576 c -0.085404,-0.0345 -0.2557397,-0.0366 -0.3784947,-0.005 -0.122755,0.032 -0.052847,0.0603 0.1553029,0.0628 0.2081777,0.003 0.3086145,-0.0236 0.2231918,-0.0581 z m 15.3583064,0.0351 c 0,-0.0262 -0.09935,-0.12555 -0.220785,-0.22079 -0.200109,-0.15694 -0.204573,-0.15247 -0.04766,0.0477 0.164815,0.21016 0.268422,0.27699 0.268422,0.17315 z M 7.435898,283.2834 c 1.099067,-0.71082 6.727585,-5.91215 7.021799,-6.48886 0.240263,-0.47095 0.304783,-1.23361 0.139175,-1.64497 -0.109996,-0.27324 -3.371875,-3.93848 -4.112982,-4.62161 -0.6894215,-0.63548 -1.0942545,-0.7549 -1.654145,-0.4879 -0.4094948,0.19528 -5.9516576,5.29297 -6.4676855,5.949 -0.3516654,0.44707 -0.4466287,0.95627 -0.2881268,1.54491 0.160663,0.59666 2.7837984,5.12326 3.2620787,5.62919 0.6344796,0.67116 1.1981637,0.70343 2.0998866,0.12024 z m -2.6555692,-4.41314 c 0.037559,-0.12505 0.3297258,-1.2777 0.6493154,-2.56143 0.6141997,-2.46717 0.7943877,-2.90182 1.2029671,-2.90182 0.3967456,0 0.4204416,0.29522 0.120962,1.50726 -0.4497243,1.82007 -0.2727543,1.829 1.5973158,0.0806 1.4789583,-1.38276 1.7592429,-1.58782 2.1702579,-1.58782 0.813535,0 0.349127,0.8279 -1.418808,2.52933 -1.1999474,1.15481 -1.4952559,1.50539 -1.4241584,1.69067 0.082101,0.21404 0.1991655,0.22705 1.388468,0.15428 1.3860424,-0.0848 1.5964004,-0.0204 1.5964004,0.48878 0,0.58987 -0.259118,0.65 -3.1962735,0.74162 -2.6169063,0.0816 -2.7512876,0.0745 -2.6864467,-0.14143 z m 15.8498372,4.07773 c 0,-0.0262 -0.09936,-0.12556 -0.220795,-0.2208 -0.200109,-0.15693 -0.204563,-0.15247 -0.04766,0.0477 0.164825,0.21016 0.268423,0.27699 0.268423,0.17316 z m 7.893305,-0.48857 0.370558,-0.41004 -0.410033,0.37056 c -0.382212,0.34541 -0.468031,0.44951 -0.370558,0.44951 0.02171,0 0.206224,-0.18452 0.410033,-0.41003 z M 9.9221496,282.01783 c 0.1569354,-0.2001 0.1524714,-0.20456 -0.047656,-0.0477 -0.1214338,0.0952 -0.2207948,0.19459 -0.2207948,0.22079 0,0.10384 0.1036076,0.037 0.2684322,-0.17316 z m 9.5725234,-0.33151 c 0,-0.0262 -0.09936,-0.12555 -0.220795,-0.22078 -0.200109,-0.15694 -0.204563,-0.15247 -0.04766,0.0477 0.164824,0.21016 0.268422,0.27699 0.268422,0.17315 z M 11.2308,280.8508 c 0.125596,-0.13878 0.199968,-0.25233 0.165278,-0.25233 -0.03473,0 -0.165844,0.11355 -0.291449,0.25233 -0.125595,0.13878 -0.199967,0.25233 -0.165268,0.25233 0.03473,0 0.165844,-0.11355 0.291439,-0.25233 z m 7.002208,-0.55229 c 0,-0.0262 -0.09935,-0.12556 -0.220785,-0.2208 -0.200109,-0.15693 -0.204573,-0.15247 -0.04766,0.0477 0.164815,0.21016 0.268422,0.27699 0.268422,0.17315 z m 13.121265,-0.52012 c 0.235393,-0.24287 0.399605,-0.44158 0.364915,-0.44158 -0.03473,0 -0.255683,0.19871 -0.491087,0.44158 -0.235393,0.24287 -0.399604,0.44158 -0.364914,0.44158 0.03473,0 0.255683,-0.19871 0.491086,-0.44158 z m -18.735646,-0.18925 c 0.125595,-0.13878 0.199967,-0.25233 0.165268,-0.25233 -0.03473,0 -0.165844,0.11355 -0.291439,0.25233 -0.125596,0.13878 -0.199968,0.25233 -0.165269,0.25233 0.03473,0 0.165844,-0.11355 0.29144,-0.25233 z m 44.214325,-0.0548 c 0.08257,-0.0995 0.127048,-0.36923 0.09873,-0.59929 l -0.05152,-0.41828 -0.0202,0.47312 c -0.01114,0.26022 -0.03435,0.48467 -0.05171,0.4988 -0.01736,0.0141 -1.365754,0.0588 -2.996448,0.0992 l -2.9649,0.0735 2.917914,0.027 c 2.40466,0.0223 2.944337,-0.005 3.06813,-0.15403 z m 6.220512,0.0876 c -0.433691,-0.0246 -1.143373,-0.0246 -1.577073,0 -0.433691,0.0246 -0.07889,0.0448 0.788536,0.0448 0.867392,0 1.222238,-0.0202 0.788537,-0.0448 z m 10.036186,-2.5e-4 c -0.534486,-0.0236 -1.442881,-0.0237 -2.018654,-2.5e-4 -0.575773,0.0234 -0.138467,0.0427 0.971792,0.0429 1.110268,1.2e-4 1.581348,-0.0191 1.046862,-0.0426 z m 6.870054,6.3e-4 c -0.364302,-0.0255 -0.96044,-0.0255 -1.324741,0 -0.364302,0.0255 -0.06625,0.0463 0.662375,0.0463 0.728603,0 1.026677,-0.0209 0.662366,-0.0463 z m 17.983613,-7e-5 c -0.396283,-0.025 -1.077579,-0.0252 -1.513997,-5.1e-4 -0.436409,0.0247 -0.112186,0.0451 0.720516,0.0454 0.832692,2.6e-4 1.189755,-0.0199 0.793481,-0.0449 z m 4.667423,5e-4 c -0.32729,-0.0259 -0.89503,-0.0261 -1.26166,-6.3e-4 -0.36663,0.0256 -0.0988,0.0468 0.59506,0.0471 0.69392,3.8e-4 0.99388,-0.0206 0.6666,-0.0464 z m 7.69788,-9.4e-4 c -0.53449,-0.0236 -1.44288,-0.0237 -2.01865,-2.6e-4 -0.57578,0.0234 -0.13847,0.0427 0.9718,0.0429 1.11026,1.3e-4 1.58134,-0.019 1.04685,-0.0426 z m -19.656336,-3.31275 c 0,-1.72659 -0.04256,-3.16557 -0.09462,-3.19773 -0.052,-0.0322 -0.09462,1.40681 -0.09462,3.19773 0,1.79093 0.04256,3.22991 0.09462,3.19774 0.05209,-0.0322 0.09462,-1.47114 0.09462,-3.19774 z m 24.286956,0.0121 c 0,-1.79754 -0.0426,-3.24194 -0.0946,-3.20978 -0.19179,0.11852 -0.10922,6.47805 0.0841,6.47805 0.006,0 0.0105,-1.47072 0.0105,-3.26827 z m -72.447393,-0.54955 0.785102,-0.0447 -0.851613,-0.0244 -0.851623,-0.0243 0.02775,1.86095 0.02774,1.86094 0.03869,-1.79193 0.03869,-1.79193 z m 63.048023,3.51785 c 0,-0.0262 -0.0994,-0.12556 -0.2208,-0.22079 -0.20009,-0.15693 -0.20456,-0.15248 -0.0476,0.0476 0.16481,0.21016 0.26842,0.277 0.26842,0.17316 z m -88.442355,-0.25233 c 0,-0.0262 -0.09935,-0.12556 -0.220786,-0.2208 -0.200109,-0.15692 -0.204572,-0.15246 -0.04766,0.0477 0.164815,0.21016 0.268423,0.277 0.268423,0.17316 z m 105.947025,-3.27042 c -0.0233,-0.56907 -0.0423,-0.0695 -0.0422,1.11014 1.2e-4,1.17966 0.0192,1.64526 0.0424,1.03468 0.0232,-0.61058 0.023,-1.57575 -2.6e-4,-2.14482 z m -108.722678,2.24565 c 0.235403,-0.24288 0.399615,-0.44159 0.364915,-0.44159 -0.03473,0 -0.255683,0.19871 -0.491077,0.44159 -0.235403,0.24287 -0.399614,0.44158 -0.364915,0.44158 0.03473,0 0.255683,-0.19871 0.491077,-0.44158 z m 58.380678,0.36535 c -0.0419,-0.0419 -0.150745,-0.0464 -0.241821,-0.01 -0.100644,0.0403 -0.07078,0.0702 0.07625,0.0763 0.132994,0.006 0.207517,-0.0244 0.165589,-0.0663 z m 14.259381,-0.0157 c -0.260222,-0.0272 -0.686034,-0.0272 -0.946246,0 -0.260222,0.0273 -0.04728,0.0496 0.473118,0.0496 0.520435,0 0.733341,-0.0223 0.473128,-0.0496 z m 21.697929,0.0157 c -0.0419,-0.0419 -0.15075,-0.0464 -0.24182,-0.01 -0.10065,0.0403 -0.0708,0.0702 0.0763,0.0763 0.13299,0.006 0.20751,-0.0244 0.16558,-0.0663 z m 1.26166,0 c -0.0419,-0.0419 -0.15074,-0.0464 -0.24182,-0.01 -0.10064,0.0403 -0.0708,0.0702 0.0763,0.0763 0.133,0.006 0.20752,-0.0244 0.1656,-0.0663 z M 67.65758,275.3944 c -0.02397,-0.50308 -0.0435,-0.0914 -0.0435,0.91471 0,1.00617 0.01963,1.41779 0.0435,0.9147 0.02397,-0.50308 0.02397,-1.32632 0,-1.82941 z m 14.823282,-0.49286 c 0.0185,-1.01703 -0.0085,-1.82272 -0.06087,-1.79042 -0.052,0.0323 -0.08408,1.1483 -0.07125,2.47999 0.02491,2.58893 0.07748,2.31523 0.132201,-0.68957 z m -9.272251,0.61904 c -0.02463,-0.4337 -0.04483,-0.0789 -0.04483,0.78853 0,0.86739 0.0202,1.22223 0.04483,0.78854 0.02463,-0.43369 0.02463,-1.14338 0,-1.57707 z m -39.204857,1.73478 c 0.235403,-0.24287 0.399615,-0.44158 0.364915,-0.44158 -0.03473,0 -0.255683,0.19871 -0.491077,0.44158 -0.235403,0.24287 -0.399614,0.44158 -0.364915,0.44158 0.03473,0 0.255683,-0.19871 0.491077,-0.44158 z m 65.333477,-0.0478 c 0.09276,-0.0588 0.149584,-0.24248 0.126171,-0.40811 -0.03765,-0.2665 -0.107911,-0.30115 -0.610331,-0.30115 -0.50242,0 -0.57264,0.0346 -0.610321,0.30115 -0.0486,0.34381 0.154302,0.51507 0.610321,0.51507 0.173478,0 0.391348,-0.0481 0.48416,-0.10696 z m -83.883707,-0.88799 c -0.0038,-0.45954 -0.123387,-0.3837 -0.298149,0.18924 -0.05671,0.18595 -0.02425,0.26285 0.110902,0.26285 0.135826,0 0.189974,-0.13073 0.187247,-0.45209 z m 31.356076,-0.5152 c 0.04294,-0.0694 -0.01057,-0.12616 -0.118716,-0.12616 -0.108184,0 -0.196702,0.0568 -0.196702,0.12616 0,0.0694 0.05341,0.12617 0.118725,0.12617 0.0653,0 0.153802,-0.0568 0.196693,-0.12617 z m 7.507166,-0.0946 c 1.23e-4,-0.0521 -0.519038,-0.0761 -1.153763,-0.0537 -0.856482,0.0304 -1.181385,-0.002 -1.260023,-0.12616 -0.05832,-0.0919 -0.106835,-0.10563 -0.107891,-0.0305 -9.44e-4,0.0752 0.03595,0.17453 0.0822,0.22079 0.116451,0.11645 2.439142,0.10644 2.439501,-0.0105 z m -38.85941,-0.33951 c 0,-0.0306 -0.05681,-0.0907 -0.126162,-0.1336 -0.06936,-0.0429 -0.126171,-0.0178 -0.126171,0.0556 0,0.0735 0.05681,0.13362 0.126171,0.13362 0.06936,0 0.126162,-0.025 0.126162,-0.0557 z m 20.14395,-0.98523 c -0.03501,-0.0867 -0.06361,-0.0158 -0.06361,0.15771 0,0.17348 0.02859,0.24445 0.06361,0.15771 0.03501,-0.0867 0.03501,-0.22868 0,-0.31542 z m 16.278035,0.13405 c -0.04029,-0.10064 -0.07021,-0.0708 -0.07625,0.0763 -0.0057,0.13301 0.02435,0.20752 0.06625,0.1656 0.0419,-0.0419 0.04643,-0.15074 0.0099,-0.24182 z M 20.81545,269.99996 c 0.626704,-0.59026 1.460585,-1.36186 1.853065,-1.71467 l 0.713617,-0.64147 -2.38824,-1.53412 c -1.31352,-0.84375 -2.439095,-1.5341 -2.501256,-1.5341 -0.170883,0 -6.208141,5.68594 -6.164363,5.80565 0.02095,0.0572 0.852443,1.01654 1.847846,2.13189 l 1.809815,2.0279 1.845035,-1.73395 c 1.014767,-0.95366 2.357787,-2.21688 2.984481,-2.80713 z m 27.032585,2.86724 c -0.02642,-0.29281 -0.04775,-0.0214 -0.04737,0.6031 3.77e-4,0.62452 0.02199,0.8641 0.04813,0.5324 0.02605,-0.3317 0.02576,-0.84268 -7.55e-4,-1.1355 z m -3.877173,1.46773 c -1.044701,-0.0928 -2.369263,-0.10018 -2.315001,-0.013 0.03237,0.052 0.665886,0.0851 1.407748,0.0734 0.741862,-0.0117 1.15013,-0.0389 0.907253,-0.0604 z m 49.015495,-0.0445 c -0.04284,-0.0694 -0.145593,-0.1253 -0.228241,-0.12424 -0.09031,9.5e-4 -0.07474,0.0508 0.03897,0.12424 0.242386,0.15663 0.28606,0.15663 0.189256,0 z m 3.283649,-0.10181 c -0.03888,-0.0389 -0.140647,-7e-5 -0.22623,0.0862 -0.12367,0.12461 -0.109185,0.13909 0.07059,0.0706 0.124425,-0.0474 0.194456,-0.11792 0.155605,-0.15677 z m -42.742069,0.01 c -0.260213,-0.0273 -0.686024,-0.0273 -0.946246,0 -0.260213,0.0272 -0.04728,0.0495 0.473128,0.0495 0.520434,0 0.73334,-0.0223 0.473118,-0.0495 z m 18.737382,0.003 c -0.15518,-0.0299 -0.439051,-0.0308 -0.630827,-0.002 -0.191786,0.029 -0.06483,0.0535 0.282134,0.0545 0.346957,8.8e-4 0.503864,-0.0228 0.348693,-0.0528 z m 37.218971,0 c -0.15518,-0.0299 -0.43905,-0.0308 -0.63083,-0.002 -0.19178,0.029 -0.0648,0.0535 0.28214,0.0545 0.34695,8.8e-4 0.50387,-0.0228 0.34869,-0.0528 z m 9.9023,-0.003 c -0.26023,-0.0273 -0.68604,-0.0273 -0.94625,0 -0.26022,0.0272 -0.0473,0.0495 0.47312,0.0495 0.52043,0 0.73334,-0.0223 0.47313,-0.0495 z M 14.321862,273.73787 c 0,-0.0262 -0.09935,-0.12555 -0.220785,-0.22079 -0.200109,-0.15693 -0.204573,-0.15247 -0.04766,0.0477 0.164816,0.21017 0.268423,0.277 0.268423,0.17316 z m 50.069592,-0.83552 0.341606,-0.82009 5.071581,-0.0329 c 3.989831,-0.026 5.253798,0.005 5.925856,0.14568 0.469843,0.0983 0.901289,0.1342 0.958759,0.0798 0.05747,-0.0544 0.08588,-0.26182 0.06304,-0.4611 l -0.04143,-0.36233 -1.261665,-0.10195 c -0.693913,-0.0561 -1.346823,-0.0922 -1.450902,-0.0803 -0.104089,0.0119 -5.578531,0.044 -12.165431,0.0713 -6.58689,0.0274 -12.005249,0.0788 -12.040797,0.1143 -0.03558,0.0356 -0.0094,0.21965 0.05889,0.40912 0.09748,0.27185 0.188898,0.33429 0.43353,0.29611 0.170506,-0.0266 3.068744,-0.0717 6.440534,-0.10017 4.914693,-0.0415 6.155445,-0.0194 6.256127,0.11146 0.06908,0.0898 0.256118,0.49239 0.415629,0.89468 0.188747,0.47599 0.353412,0.71832 0.471514,0.69391 0.09981,-0.0207 0.335199,-0.40654 0.523078,-0.85758 z m 11.625566,0.83552 c 0,-0.0262 -0.09935,-0.12555 -0.220786,-0.22079 -0.200109,-0.15693 -0.204573,-0.15247 -0.04766,0.0477 0.164815,0.21017 0.268423,0.277 0.268423,0.17316 z m 46.55525,-0.12616 c 0,-0.0262 -0.0994,-0.12556 -0.22078,-0.2208 -0.20011,-0.15693 -0.20458,-0.15247 -0.0477,0.0477 0.16481,0.21016 0.26842,0.27699 0.26842,0.17316 z m -87.559184,-0.63083 c 0,-0.0262 -0.09936,-0.12556 -0.220795,-0.2208 -0.200109,-0.15693 -0.204563,-0.15247 -0.04766,0.0477 0.164824,0.21016 0.268422,0.27699 0.268422,0.17316 z m 57.972374,-0.0771 c 0.04416,-0.0715 -0.0066,-0.0927 -0.118716,-0.0495 -0.218577,0.0839 -0.258561,0.1743 -0.0771,0.1743 0.0653,0 0.153406,-0.0562 0.195806,-0.12472 z m 3.344291,0.0751 c 0,-0.0273 -0.08814,-0.0834 -0.195796,-0.12472 -0.11228,-0.0431 -0.162919,-0.022 -0.118726,0.0495 0.07408,0.11989 0.314522,0.17732 0.314522,0.0751 z m -51.389542,-0.35257 c -0.0403,-0.10065 -0.07021,-0.0708 -0.07625,0.0763 -0.0057,0.13299 0.02435,0.20751 0.06625,0.16559 0.0419,-0.0419 0.04643,-0.15075 0.0099,-0.24183 z m -31.75384,-0.15014 c 0,-0.0262 -0.09935,-0.12556 -0.220786,-0.2208 -0.200109,-0.15694 -0.204572,-0.15247 -0.04766,0.0477 0.164815,0.21016 0.268423,0.27699 0.268423,0.17315 z m 89.424371,-0.17111 c -0.32729,-0.0258 -0.89503,-0.0261 -1.26166,-6.2e-4 -0.36663,0.0256 -0.0988,0.0467 0.59506,0.0471 0.69392,3.8e-4 0.99388,-0.0206 0.6666,-0.0465 z M 92.01516,271.2937 c 0.02397,-0.41567 -0.01283,-0.66237 -0.09881,-0.66237 -0.07531,0 -0.433134,0.15613 -0.795133,0.34696 l -0.658176,0.34695 -3.59574,0.0396 c -1.97766,0.0218 -3.645856,0.089 -3.707111,0.14922 -0.06124,0.0603 -0.07691,0.19928 -0.03482,0.30894 0.06804,0.17731 0.561778,0.19569 4.464097,0.16618 l 4.387621,-0.0332 z m 7.405662,0.41004 c 0,-0.2021 -0.09749,-0.26033 -0.489755,-0.29248 -0.543253,-0.0445 -0.783054,0.10632 -0.663649,0.41748 0.05917,0.15425 0.211782,0.19541 0.61604,0.16618 0.440297,-0.0318 0.537364,-0.0845 0.537364,-0.29118 z m -87.369947,-0.48919 c 0,-0.0262 -0.09935,-0.12555 -0.220785,-0.22079 -0.200109,-0.15693 -0.204573,-0.15247 -0.04766,0.0477 0.164815,0.21016 0.268422,0.27699 0.268422,0.17315 z m 30.290491,-0.48953 3.837407,-0.0362 -3.963757,0.003 c -3.409736,0.003 -3.972495,0.0293 -4.026286,0.19209 -0.05105,0.15453 -0.02784,0.16066 0.126351,0.0334 0.138477,-0.11424 1.213102,-0.16551 4.026285,-0.19209 z M 10.58042,269.67967 c -0.04105,-0.10708 -0.101768,-0.16763 -0.134835,-0.13456 -0.03303,0.0331 -0.02274,0.12069 0.02303,0.19469 0.124407,0.2013 0.197118,0.16219 0.111809,-0.0601 z m 52.16643,-3.06153 c -0.02472,-2.56013 -0.07955,-2.30127 -0.132861,0.62648 -0.0185,1.01703 0.0085,1.82273 0.06096,1.79042 0.052,-0.0323 0.08437,-1.11991 0.07191,-2.4169 z m 17.786654,1.8529 c -0.04284,-0.41559 -0.04539,-0.41297 -0.106835,0.10683 -0.03463,0.2931 -0.01491,0.48484 0.04388,0.42609 0.05879,-0.0588 0.0871,-0.29858 0.06294,-0.53292 z m 19.683536,-2.10523 c -0.0254,-2.77817 -0.0769,-2.48413 -0.13185,0.75264 -0.0184,1.08642 0.009,1.94889 0.0611,1.91658 0.052,-0.0323 0.0839,-1.23344 0.0708,-2.66922 z m 4.164,0.18925 c -0.0249,-2.58895 -0.0774,-2.31524 -0.1322,0.68956 -0.0185,1.01703 0.008,1.82273 0.0609,1.79042 0.0521,-0.0323 0.0841,-1.1483 0.0712,-2.47998 z m -94.06089,2.26272 c 0.223296,-0.0954 0.746637,-0.49334 1.162983,-0.88434 0.416346,-0.39101 1.166985,-1.09361 1.668074,-1.56136 0.501099,-0.46774 1.267553,-1.19661 1.703245,-1.61969 0.435682,-0.42309 0.949417,-0.86514 1.141618,-0.98234 0.57263,-0.34917 1.101445,-1.1825 1.101445,-1.73571 v -0.48455 l -1.986503,-1.32594 c -2.193887,-1.46435 -2.455676,-1.5466 -3.377414,-1.06108 -0.276539,0.14566 -0.827521,0.58566 -1.224408,0.97778 -0.396887,0.39212 -1.0925461,1.05359 -1.545913,1.46994 -1.6437547,1.50955 -2.6909849,2.64272 -2.8146459,3.04565 -0.145932,0.4755 -0.030481,0.76111 0.5792456,1.43325 0.2203324,0.24286 0.6707173,0.73962 1.0008573,1.10389 1.1290952,1.24585 1.7302721,1.79792 1.9578332,1.79792 0.1251803,0 0.4102878,-0.078 0.6335828,-0.17342 z m -1.4592538,-2.63377 c -0.1934939,-0.14516 -0.1703547,-0.3083 0.2908354,-2.0502 0.275576,-1.04087 0.5012686,-1.90061 0.5015234,-1.91053 0.00189,-0.0565 0.582596,-0.21096 2.297608,-0.6107 1.69964,-0.39615 1.938582,-0.4255 2.105464,-0.25862 0.333415,0.33342 -0.220512,0.75648 -1.243093,0.94943 -1.15667,0.21825 -1.239384,0.27508 -1.013852,0.69649 0.09814,0.18337 0.293723,0.39509 0.434635,0.47051 0.468777,0.25088 0.936932,0.81388 0.976425,1.17424 0.0301,0.27508 -0.0369,0.39926 -0.295063,0.54681 -0.303896,0.17364 -0.38209,0.16924 -0.865315,-0.0487 -0.292176,-0.13176 -0.614889,-0.36722 -0.717138,-0.52327 -0.102239,-0.15604 -0.376352,-0.3961 -0.609132,-0.53343 -0.513829,-0.30317 -0.597779,-0.22653 -0.8122326,0.74165 -0.2296089,1.0366 -0.2580516,1.11769 -0.4643609,1.324 -0.2309394,0.23094 -0.3153052,0.23559 -0.5863043,0.0323 z m 45.7379948,-1.18675 c 0.01812,-1.32927 -0.0095,-2.39044 -0.06162,-2.35816 -0.052,0.0323 -0.08352,1.4889 -0.06993,3.23694 0.02642,3.39577 0.07785,3.052 0.131532,-0.87878 z m 16.963125,3.26849 c -0.03171,-0.12144 -0.05766,-0.0221 -0.05766,0.22078 0,0.24287 0.02595,0.34223 0.05766,0.2208 0.03171,-0.12144 0.03171,-0.32015 0,-0.44158 z m 38.235194,-2.46024 c -0.0234,-0.57248 -0.0425,-0.10408 -0.0425,1.04086 0,1.14496 0.0192,1.61335 0.0425,1.04087 0.0234,-0.57247 0.0234,-1.50926 0,-2.08173 z M 8.2659005,268.69123 c 0,-0.0262 -0.099361,-0.12555 -0.2207948,-0.22079 -0.2000998,-0.15693 -0.2045634,-0.15247 -0.047656,0.0477 0.1648246,0.21016 0.2684322,0.27699 0.2684322,0.17315 z m 41.2219165,-0.80144 c -0.26177,-0.0273 -0.659195,-0.0269 -0.88317,9.5e-4 -0.223966,0.0278 -0.0098,0.0502 0.47594,0.0496 0.485735,-5e-4 0.66899,-0.0233 0.40723,-0.0507 z m 47.062729,1.3e-4 c -0.260222,-0.0272 -0.686024,-0.0272 -0.946246,0 -0.260213,0.0272 -0.04728,0.0494 0.473118,0.0494 0.520435,0 0.733341,-0.0223 0.473128,-0.0494 z m -4.544219,-1.57975 c -0.02652,-0.29491 -0.04832,-0.0536 -0.04832,0.5362 0,0.58984 0.0217,0.83113 0.04832,0.53622 0.02661,-0.29491 0.02661,-0.77751 0,-1.07242 z m -78.94612,1.10396 c 0.162975,-0.17348 0.267932,-0.31542 0.233233,-0.31542 -0.03473,0 -0.196429,0.14194 -0.359404,0.31542 -0.162975,0.17347 -0.267923,0.31541 -0.233233,0.31541 0.03473,0 0.196429,-0.14194 0.359404,-0.31541 z m 31.885731,-1.04087 c -0.02718,-0.26022 -0.04945,-0.0473 -0.04945,0.47311 0,0.52044 0.02227,0.73334 0.04945,0.47313 0.02718,-0.26022 0.02718,-0.68602 0,-0.94624 z m 68.964422,1.03542 c -0.041,-0.10708 -0.10177,-0.16763 -0.13484,-0.13456 -0.033,0.0331 -0.0228,0.12069 0.023,0.19469 0.12441,0.2013 0.19712,0.16219 0.11181,-0.0601 z m -106.7799529,0.0209 c 0,-0.0262 -0.099361,-0.12556 -0.2207949,-0.2208 -0.2000997,-0.15692 -0.2045633,-0.15247 -0.047656,0.0477 0.1648246,0.21016 0.2684322,0.277 0.2684322,0.17316 z m 59.6437479,-2.38106 c -0.02463,-0.4337 -0.04482,-0.0789 -0.04482,0.78853 0,0.8674 0.0202,1.22223 0.04482,0.78854 0.02463,-0.4337 0.02463,-1.14338 0,-1.57707 z m -42.485176,2.05019 c 0,-0.0694 -0.05681,-0.12616 -0.126171,-0.12616 -0.06936,0 -0.126162,0.0568 -0.126162,0.12616 0,0.0694 0.05681,0.12617 0.126162,0.12617 0.06936,0 0.126171,-0.0568 0.126171,-0.12617 z m 16.747879,-3.63398 c -0.02265,-0.67287 -0.04105,-0.088 -0.04096,1.29992 1.13e-4,1.38781 0.01859,1.93835 0.04115,1.2234 0.02255,-0.71495 0.02246,-1.85045 -2.55e-4,-2.52332 z m 78.600972,1.58873 c -0.0247,-0.43642 -0.0451,-0.11218 -0.0454,0.72051 -2.4e-4,0.8327 0.02,1.18976 0.0449,0.79348 0.0249,-0.39628 0.0252,-1.07758 5e-4,-1.51399 z m -75.699365,-1.39897 c -0.02331,-0.56906 -0.04228,-0.0695 -0.04218,1.11016 1.23e-4,1.17965 0.01925,1.64525 0.04237,1.03467 0.02322,-0.61058 0.02303,-1.57576 -2.55e-4,-2.14483 z m 27.599666,2.75031 v -0.3785 h -1.259937 c -1.115129,0 -1.264977,0.0262 -1.303866,0.22817 -0.104835,0.54436 0.03341,0.60303 1.331488,0.56496 l 1.232315,-0.0361 z m 47.059919,0 v -0.3785 h -1.25994 c -1.11513,0 -1.26498,0.0262 -1.30387,0.22817 -0.10483,0.54436 0.0334,0.60303 1.33149,0.56496 l 1.23232,-0.0361 z m -30.501394,-2.74411 c -0.0234,-0.57248 -0.04247,-0.10409 -0.04247,1.04087 0,1.14496 0.01916,1.61335 0.04247,1.04087 0.0234,-0.57248 0.0234,-1.50926 0,-2.08174 z m -61.656019,2.57385 c 0.59357,-0.38045 3.557517,-3.06035 5.512925,-4.98461 1.057762,-1.04092 1.167032,-1.19247 1.167032,-1.61868 0,-0.67533 -0.360159,-0.91553 -3.796082,-2.53172 -3.158017,-1.48547 -3.704903,-1.64449 -4.36373,-1.26878 -0.453688,0.25871 -4.913768,4.04993 -5.93315,5.04336 -0.568403,0.55394 -0.668453,0.72104 -0.668453,1.11641 0,0.61999 0.259817,0.84878 2.795244,2.46141 3.414879,2.172 3.357965,2.14212 4.080217,2.14212 0.493861,0 0.77659,-0.0843 1.205997,-0.35951 z m -4.237832,-2.92798 c -0.20782,-0.33626 0.157124,-0.79935 1.580348,-2.00533 2.040311,-1.72885 2.031554,-1.94391 -0.06191,-1.52015 -0.727981,0.14737 -1.380636,0.23269 -1.450336,0.18961 -0.165184,-0.10209 -0.163476,-0.5305 0.0028,-0.63309 0.143761,-0.0889 5.904886,-1.17638 5.95694,-1.12449 0.110968,0.11063 -0.194692,4.5554 -0.322251,4.68591 -0.08229,0.0842 -0.348268,0.16934 -0.591136,0.18925 l -0.44159,0.0362 0.04652,-1.29321 c 0.04643,-1.29017 0.04586,-1.29319 -0.252333,-1.2896 -0.195522,0.002 -0.800672,0.44289 -1.749797,1.27382 -1.678699,1.46963 -2.463924,1.90056 -2.717002,1.49106 z m 28.013275,2.65666 c -0.04322,-0.0698 -0.510941,-0.11584 -1.048315,-0.10303 l -0.970339,0.0231 1.009323,0.0799 c 0.555134,0.044 1.026874,0.0903 1.048325,0.10304 0.02142,0.0127 0.0038,-0.0336 -0.03898,-0.10304 z m 47.059917,0 c -0.04322,-0.0698 -0.510941,-0.11584 -1.048315,-0.10303 l -0.970338,0.0231 1.009331,0.0799 c 0.555125,0.044 1.026866,0.0903 1.048316,0.10304 0.02142,0.0127 0.0038,-0.0336 -0.03898,-0.10304 z M 14.952699,265.6478 c 0.162975,-0.17347 0.267923,-0.31541 0.233233,-0.31541 -0.03473,0 -0.196429,0.14194 -0.359404,0.31541 -0.162975,0.17348 -0.267932,0.31541 -0.233233,0.31541 0.03473,0 0.196429,-0.14193 0.359404,-0.31541 z m 13.263516,-0.0315 c 0.156936,-0.2001 0.152472,-0.20457 -0.04766,-0.0477 -0.210159,0.16481 -0.276992,0.26842 -0.173157,0.26842 0.02623,0 0.125557,-0.0994 0.220794,-0.22079 z m 1.497898,-1.35628 c 0.162975,-0.17348 0.267933,-0.31542 0.233233,-0.31542 -0.03473,0 -0.196429,0.14194 -0.359404,0.31542 -0.162975,0.17348 -0.267922,0.31541 -0.233232,0.31541 0.03473,0 0.196428,-0.14193 0.359403,-0.31541 z m 67.600604,-0.004 c -0.03888,-0.0389 -0.109392,0.0311 -0.156775,0.15561 -0.06851,0.17981 -0.05398,0.1943 0.07059,0.0706 0.08625,-0.0856 0.124991,-0.18738 0.08616,-0.22623 z m -80.398513,-0.46979 0.370558,-0.41003 -0.410033,0.37056 c -0.382222,0.34542 -0.468031,0.44952 -0.370567,0.44952 0.02171,0 0.206233,-0.18452 0.410042,-0.41005 z m 59.769457,0.007 1.034603,-0.0254 -0.98975,-0.0432 c -0.973198,-0.0425 -1.349267,0.0679 -1.340491,0.39332 0.0019,0.0782 0.06172,0.0429 0.132438,-0.0785 0.103758,-0.17814 0.328422,-0.22569 1.1632,-0.24618 z m 48.160129,0.0915 c -0.12265,-0.14779 -0.39695,-0.18636 -1.18501,-0.16662 l -1.02542,0.0257 1.04682,0.0426 c 0.78629,0.032 1.06492,0.0897 1.11954,0.23209 0.04,0.10422 0.10218,0.16003 0.13819,0.12402 0.0361,-0.036 -0.007,-0.15201 -0.0941,-0.25777 z m -65.766548,-0.15804 c -0.260222,-0.0272 -0.686033,-0.0272 -0.946246,0 -0.260222,0.0272 -0.04728,0.0495 0.473118,0.0495 0.520435,0 0.733341,-0.0223 0.473128,-0.0495 z m 12.389472,-0.0897 c 0.08295,-0.0999 0.126747,-0.34118 0.09744,-0.5362 -0.05134,-0.34138 -0.05398,-0.33941 -0.07219,0.053 -0.02397,0.51619 -0.08625,0.53102 -2.41606,0.57482 l -1.829406,0.0344 2.034753,0.0277 c 1.641773,0.0225 2.063857,-0.008 2.185479,-0.15383 z m 34.670446,0.0897 c -0.26022,-0.0272 -0.68603,-0.0272 -0.94625,0 -0.26022,0.0272 -0.0473,0.0495 0.47312,0.0495 0.52044,0 0.73334,-0.0223 0.47313,-0.0495 z m 12.31348,-0.003 c 0.0323,-0.052 -0.65984,-0.0793 -1.53809,-0.0605 -2.54208,0.0544 -2.77406,0.10917 -0.5634,0.13303 1.12351,0.0122 2.06918,-0.0206 2.10149,-0.0726 z m -25.970949,-0.7765 c 0,-0.34033 -0.04256,-0.59246 -0.09462,-0.56029 -0.174176,0.10764 -0.09775,1.17908 0.08408,1.17908 0.0057,0 0.01047,-0.27846 0.01047,-0.61879 z m -47.162194,-0.23278 c -0.03171,-0.12143 -0.05766,-0.0221 -0.05766,0.2208 0,0.24287 0.02595,0.34222 0.05766,0.22078 0.03171,-0.12143 0.03171,-0.32014 0,-0.44158 z m 16.94543,0.42549 c 0,-0.0262 -0.09935,-0.12555 -0.220785,-0.22079 -0.200109,-0.15694 -0.204573,-0.15247 -0.04766,0.0476 0.164815,0.21016 0.268423,0.277 0.268423,0.17316 z m 37.597476,-0.12206 c 0,-0.024 -0.127747,-0.15168 -0.283881,-0.28387 l -0.283871,-0.24034 0.240348,0.28387 c 0.225863,0.26677 0.327404,0.3413 0.327404,0.24034 z M 31.417349,262.6829 c 0.125605,-0.13878 0.199977,-0.25233 0.165277,-0.25233 -0.03473,0 -0.165843,0.11355 -0.291439,0.25233 -0.125595,0.13878 -0.199968,0.25234 -0.165278,0.25234 0.03473,0 0.165844,-0.11356 0.29144,-0.25234 z m -13.500646,-1.38638 c 0.04416,-0.0715 -0.0066,-0.0927 -0.118716,-0.0495 -0.218578,0.0839 -0.258571,0.1743 -0.0771,0.1743 0.0653,0 0.153406,-0.0562 0.195797,-0.12472 z m 20.700386,-0.98108 c -2.007792,-0.0185 -3.694059,0.01 -3.747265,0.063 -0.05322,0.0531 1.589521,0.0682 3.650528,0.0336 l 3.747274,-0.0629 z m 47.059905,0 c -2.007792,-0.0185 -3.69406,0.01 -3.747274,0.063 -0.05322,0.0531 1.58953,0.0682 3.650537,0.0336 l 3.747289,-0.0629 z"
       style="fill:#ffffff;stroke-width:0.12616596" />
    <path
       inkscape:connector-curvature="0"
       id="path180"
       d="m 23.608895,286.52657 c -0.705163,-0.22715 -1.499614,-0.99141 -4.529643,-4.35755 -1.639642,-1.82153 -3.025447,-3.31186 -3.079566,-3.31186 -0.05412,0 -0.631543,0.49247 -1.283162,1.09437 -2.884482,2.6644 -5.1216211,4.63619 -5.7085067,5.03143 -1.5326071,1.03212 -3.1167074,0.78967 -4.1455635,-0.63447 -0.2280528,-0.31568 -1.0295597,-1.64591 -1.7811247,-2.95609 -0.9900436,-1.7259 -1.3836759,-2.53356 -1.4288947,-2.9318 l -0.062406,-0.54968 0.5928649,1.00933 c 2.8969325,4.93189 3.1205961,5.23897 3.9482344,5.42075 0.5519116,0.12122 1.3027594,-0.12491 2.0141232,-0.66025 1.3427426,-1.01049 6.6641741,-5.95799 6.9442141,-6.45624 0.158318,-0.2817 0.311517,-0.51217 0.340444,-0.51217 0.02892,0 0.181423,0.25079 0.338883,0.55732 0.15746,0.30653 1.72233,2.14578 3.477487,4.08723 2.721868,3.01076 3.281963,3.56895 3.808368,3.7954 0.893747,0.38448 1.826453,0.35561 2.631786,-0.0814 0.960539,-0.5213 9.399369,-8.61116 9.760247,-9.35662 0.387363,-0.8002 0.363694,-1.58554 -0.0701,-2.32575 -0.308252,-0.52599 -0.801006,-0.89346 -4.534696,-3.38176 -2.303875,-1.5354 -4.205443,-2.83354 -4.225707,-2.88474 -0.02026,-0.0512 0.23777,-0.2904 0.573404,-0.53153 1.243685,-0.8935 6.257245,-5.6289 6.541724,-6.17878 0.09694,-0.18738 0.176257,-0.57144 0.176257,-0.85347 0,-0.89158 -0.431002,-1.2065 -3.911145,-2.85773 -1.700086,-0.80665 -3.233003,-1.51171 -3.406481,-1.5668 -0.284153,-0.0902 -0.27005,-0.10124 0.142299,-0.11101 0.55365,-0.0131 0.718945,0.0531 4.147343,1.66301 3.031737,1.42358 3.445396,1.66399 3.943152,2.29159 l 0.347422,0.43805 4.320719,0.0377 4.320719,0.0377 0.604607,0.35539 c 0.332534,0.19547 0.776526,0.59288 0.986649,0.88316 l 0.382042,0.52777 3.366076,0.093 c 1.851342,0.0512 5.612449,0.13632 8.358016,0.18926 l 4.991939,0.0962 0.741218,0.38845 0.741218,0.38844 0.753229,-0.38844 0.753228,-0.38845 h 7.612668 c 5.972533,0 7.612668,-0.0337 7.612661,-0.15642 -4e-6,-0.0861 -0.256112,-0.55597 -0.569128,-1.0443 -0.41196,-0.6427 -0.522512,-0.90577 -0.400339,-0.95265 0.09283,-0.0357 2.634114,-0.0483 5.647299,-0.0281 l 5.478519,0.0367 0.604612,0.35539 c 0.332537,0.19547 0.776542,0.59288 0.986673,0.88316 l 0.382072,0.52777 3.239881,0.0908 c 1.781939,0.0499 5.53927,0.13669 8.34961,0.19282 5.26945,0.10526 5.42239,0.12168 6.18417,0.66412 l 0.34758,0.24749 0.79164,-0.40834 0.79165,-0.40836 7.13971,-0.0315 c 4.5951,-0.0203 7.37017,0.0155 7.78632,0.10031 1.02076,0.20813 1.68674,0.7074 2.19428,1.64499 l 0.43824,0.80957 0.0442,2.30253 c 0.03,1.5661 9.5e-4,2.30253 -0.0896,2.30253 -0.0832,0 -0.14737,0.48868 -0.16975,1.2932 l -0.0359,1.29321 -3.97424,-9.5e-4 c -2.18581,-7.5e-4 -4.17293,-0.009 -4.4158,-0.0193 -1.1151,-0.0454 -15.33049,0.0815 -15.47805,0.13818 -0.0916,0.0351 -0.16653,0.24246 -0.16653,0.46068 0,0.38118 0.0161,0.39341 0.41004,0.31082 0.85056,-0.17831 5.56226,-0.22712 6.6343,-0.0687 0.77387,0.11434 1.08864,0.11817 1.19227,0.0145 0.0978,-0.0978 1.37885,-0.14081 4.19307,-0.14081 4.64577,0 5.01544,0.056 5.92826,0.89736 0.97753,0.90105 1.11659,1.36083 1.17367,3.88051 l 0.0496,2.19146 0.99656,1.31134 c 0.5481,0.72123 0.99656,1.36833 0.99656,1.43798 0,0.0838 -2.27201,0.10916 -6.71833,0.0749 -3.69509,-0.0284 -6.8319,-0.0558 -6.97067,-0.0607 -0.13879,-0.005 -1.61493,0.0198 -3.28032,0.0551 -2.41804,0.0512 -3.16777,0.0268 -3.7219,-0.1209 -0.61155,-0.163 -0.71854,-0.16275 -0.90141,0.002 -0.17809,0.16046 -0.96522,0.1808 -5.55131,0.14344 -5.584146,-0.0455 -5.757426,-0.0619 -6.561854,-0.62166 -0.50074,-0.34845 -0.715213,-0.29856 -0.761066,0.177 l -0.03954,0.41004 -4.100397,0.0329 c -3.143557,0.0252 -4.254939,-0.008 -4.762674,-0.13921 -0.556698,-0.14467 -0.684872,-0.14489 -0.803986,-9.4e-4 -0.185036,0.22295 -6.03508,0.25196 -6.25602,0.031 -0.102173,-0.10218 -0.371678,-0.0987 -1.003019,0.0128 -1.354616,0.23928 -6.233332,0.11306 -7.025046,-0.18174 -0.607285,-0.22614 -1.287319,-0.7986 -1.80651,-1.52074 l -0.272125,-0.3785 -0.326735,0.75699 c -0.179704,0.41635 -0.400073,0.89894 -0.489709,1.07242 l -0.162974,0.31541 H 63.0471 60.213203 l -0.345721,-0.72545 c -0.190147,-0.399 -0.400219,-0.72545 -0.466827,-0.72545 -0.06661,0 -0.138132,0.32645 -0.158943,0.72545 l -0.03784,0.72545 -0.693912,0.0429 c -0.381652,0.0237 -3.660534,0.003 -7.286403,-0.0466 l -6.59249,-0.0896 -0.15739,-0.32261 c -0.234585,-0.48084 -0.472803,-0.49916 -0.472803,-0.0363 v 0.38901 h -3.974232 c -2.623161,0 -3.974227,-0.0439 -3.974227,-0.12897 0,-0.071 0.369036,-0.68084 0.820079,-1.35533 l 0.820079,-1.22634 v -3.25855 -3.25854 l -0.381547,-0.55456 -0.381544,-0.55455 -1.290154,-0.036 -1.290154,-0.036 -0.03319,-4.39321 c -0.02829,-3.74485 -0.05997,-4.38722 -0.214716,-4.35272 -0.274279,0.0611 -5.492648,4.9143 -5.492648,5.10823 0,0.0928 1.461947,1.14061 3.248773,2.32864 4.418605,2.93786 4.376245,2.90489 4.772259,3.71432 0.660857,1.35074 0.398329,2.81232 -0.715306,3.98238 -1.174328,1.23381 -8.366652,8.0124 -8.850163,8.34106 -0.279791,0.19018 -0.713855,0.40277 -0.964587,0.47242 -0.569012,0.15806 -1.966132,0.14412 -2.490675,-0.0248 z m 33.361806,-6.93764 c 0.08327,-0.0832 0.1514,-0.32741 0.1514,-0.54252 0,-0.65971 -0.116679,-0.69391 -2.367598,-0.69391 -1.135641,0 -2.16683,-0.0546 -2.291534,-0.12134 -0.124704,-0.0667 -0.298205,-0.2939 -0.385556,-0.50478 -0.2941,-0.71002 -0.153613,-0.75226 2.629264,-0.79062 l 2.478506,-0.0342 v -1.41057 c 0,-1.23496 -0.03292,-1.45487 -0.264494,-1.76633 -0.471668,-0.63439 -0.654383,-0.66732 -3.709733,-0.66883 -2.556808,-9.4e-4 -2.877328,0.0222 -3.227331,0.23559 -0.680285,0.41483 -0.80998,0.89316 -0.80998,2.9873 0,1.75199 0.01843,1.89379 0.311112,2.39321 0.289803,0.49452 0.761624,0.82604 1.392128,0.9782 0.138783,0.0335 1.532601,0.0675 3.097374,0.0755 2.06163,0.0107 2.886732,-0.0271 2.996442,-0.13676 z m -4.96706,-4.19124 c -0.04344,-0.17307 -0.0263,-0.47325 0.03809,-0.66705 0.113159,-0.34061 0.149781,-0.35361 1.096689,-0.38943 1.183075,-0.0447 1.361749,0.0622 1.308904,0.78314 l -0.03778,0.51558 -1.163454,0.0362 c -1.147917,0.0358 -1.164511,0.032 -1.242437,-0.27847 z m 12.113383,4.17432 c 0.277133,-0.20265 2.851759,-6.28594 2.72166,-6.4307 -0.05016,-0.0558 -0.424326,-0.0842 -0.831487,-0.063 l -0.740293,0.0384 -0.889009,2.14482 c -0.538679,1.29961 -0.957136,2.14482 -1.06189,2.14482 -0.106764,0 -0.473716,-0.77879 -0.959515,-2.0364 -0.432648,-1.12002 -0.825561,-2.09938 -0.873137,-2.17636 -0.118189,-0.19124 -3.604257,-0.19474 -3.604257,-0.004 0,0.33707 2.72864,6.42248 2.900802,6.46937 0.104645,0.0285 0.846515,0.0584 1.6486,0.0664 1.036342,0.0104 1.524945,-0.0341 1.688526,-0.15368 z m 10.59296,0.0478 c 0.724861,-0.0934 0.93642,-0.17767 1.26166,-0.50264 l 0.390766,-0.39044 0.03564,-2.17426 c 0.04049,-2.47024 -0.05839,-2.84869 -0.853756,-3.26751 -0.391123,-0.20596 -0.773818,-0.23144 -3.469564,-0.23102 -2.815888,3.7e-4 -3.059439,0.0184 -3.447326,0.25493 -0.708552,0.432 -0.901501,1.06425 -0.903894,2.96183 -0.0025,1.90922 0.104959,2.40129 0.634719,2.90899 0.314677,0.30158 0.534047,0.38548 1.167833,0.44671 1.24026,0.11981 4.23229,0.11601 5.183917,-0.007 z m -3.204965,-1.22415 c -0.552024,-0.10688 -0.630829,-0.35608 -0.630829,-1.99484 0,-1.97966 0.06323,-2.08569 1.24358,-2.08569 0.493493,0 0.914355,0.0636 1.002174,0.1514 0.226595,0.22659 0.209676,3.55431 -0.01903,3.74413 -0.198317,0.16459 -1.138455,0.27357 -1.595888,0.185 z m 9.306423,1.23956 c 0.124437,-0.079 0.152105,-1.05387 0.126167,-4.44541 l -0.03323,-4.34425 H 79.45347 78.002562 l -0.03323,4.34425 c -0.02594,3.39154 0.0017,4.36643 0.126165,4.44541 0.08767,0.0557 0.698751,0.10118 1.357967,0.10118 0.659218,0 1.270303,-0.0455 1.357967,-0.10118 z m 18.063853,-0.0749 c 0.0821,-0.099 0.131654,-0.42541 0.110072,-0.72545 l -0.03926,-0.54553 -1.198569,-0.0334 c -1.633563,-0.0456 -1.640159,-0.0544 -1.640159,-2.18101 0,-1.15644 0.04501,-1.64789 0.157709,-1.7208 0.08673,-0.0562 0.725451,-0.13046 1.419364,-0.16516 l 1.261655,-0.063 v -0.50466 -0.50467 l -1.261655,-0.0631 c -0.693913,-0.0347 -1.33263,-0.10902 -1.419364,-0.16516 -0.104363,-0.0676 -0.157709,-0.44098 -0.157709,-1.10394 v -1.00189 h -1.450912 -1.450903 v 1.0049 c 0,0.89205 -0.02982,1.02082 -0.265233,1.14682 -0.145875,0.0781 -0.370889,0.11432 -0.500023,0.0806 -0.326743,-0.0854 -0.520982,0.19819 -0.473477,0.69139 0.03558,0.36902 0.09126,0.42506 0.486019,0.48861 0.763472,0.12292 0.752667,0.0908 0.753186,2.24109 3.77e-4,1.73766 0.03039,2.02881 0.245576,2.38166 0.134815,0.22109 0.37589,0.47265 0.535732,0.55902 0.643964,0.34797 4.627396,0.49776 4.887949,0.18381 z m 4.476315,0.10335 c 0.17486,-0.0671 0.19956,-0.48088 0.19956,-3.3434 v -3.26682 h -1.4509 -1.45092 v 3.2698 c 0,2.4978 0.0373,3.28482 0.15771,3.33344 0.22782,0.0919 2.3083,0.0976 2.54455,0.007 z m 9.42837,-0.25555 c 0.73802,-0.42618 0.86407,-0.86546 0.86407,-3.01127 0,-2.14029 -0.1179,-2.55466 -0.86988,-3.05701 -0.41621,-0.27805 -0.51766,-0.28639 -3.48245,-0.28639 -2.96478,0 -3.06624,0.008 -3.48245,0.28639 -0.75036,0.50128 -0.86986,0.91851 -0.87008,3.03794 -3.7e-4,3.27955 0.14276,3.37417 5.00205,3.30762 2.1218,-0.0291 2.46732,-0.0628 2.83874,-0.27728 z m -4.11909,-1.01393 c -0.5351,-0.14615 -0.56775,-0.26138 -0.56775,-2.00377 0,-2.03062 0.0258,-2.07531 1.19858,-2.07531 1.17277,0 1.19858,0.0446 1.19858,2.07531 0,1.28166 -0.0416,1.7133 -0.17589,1.82475 -0.20028,0.16621 -1.27455,0.28252 -1.65352,0.17902 z m -66.95627,1.06856 c 0.103174,-0.10318 0.151399,-0.70781 0.151399,-1.89825 v -1.74686 l 0.828225,0.0373 0.828226,0.0373 0.780391,1.8294 0.78039,1.82941 1.671699,0.0352 c 1.437898,0.0303 1.671699,0.008 1.671699,-0.1595 0,-0.1071 -0.366862,-0.92683 -0.815249,-1.82163 -0.835288,-1.66692 -0.846907,-1.743 -0.296055,-1.93885 0.516029,-0.18347 0.669723,-0.70014 0.669723,-2.2514 0,-1.60955 -0.08601,-1.85074 -0.86842,-2.43531 -0.33219,-0.2482 -0.536679,-0.26195 -4.45677,-0.29968 -2.47923,-0.0239 -4.156071,0.008 -4.228293,0.0801 -0.07547,0.0755 -0.04581,0.26255 0.0803,0.50641 0.295819,0.57204 0.298811,7.39348 0.0034,7.81519 -0.108108,0.15435 -0.161531,0.3373 -0.11872,0.40658 0.115552,0.18696 3.128722,0.16384 3.318028,-0.0255 z m 0.109344,-5.23168 c -0.04626,-0.0462 -0.08411,-0.52777 -0.08411,-1.07001 0,-0.94312 0.01351,-0.98929 0.311517,-1.06408 0.171333,-0.043 0.822277,-0.0583 1.446541,-0.034 1.397859,0.0545 1.568916,0.17994 1.578624,1.15784 0.01027,1.03497 -0.08482,1.0943 -1.754028,1.0943 -0.777938,0 -1.452283,-0.0378 -1.498543,-0.0841 z m 48.931359,2.10276 v -3.21723 h -1.38782 -1.387826 l -0.03434,2.45068 c -0.02169,1.54733 -0.08551,2.51234 -0.173157,2.61795 -0.09344,0.11259 -0.458614,0.16726 -1.117243,0.16726 -0.658629,0 -1.023802,-0.0546 -1.117244,-0.16726 -0.08764,-0.10561 -0.151472,-1.07062 -0.173156,-2.61795 l -0.03434,-2.45068 h -1.387825 -1.387826 v 2.58641 c 0,2.49272 0.0107,2.6036 0.295409,3.06153 0.520499,0.83717 0.562521,0.84488 4.435814,0.8141 l 3.469564,-0.0276 z m 27.033857,0.76655 c 0.0217,-1.54733 0.0855,-2.51233 0.17316,-2.61794 0.0934,-0.11259 0.45861,-0.16726 1.11724,-0.16726 0.65863,0 1.02381,0.0546 1.11724,0.16726 0.0877,0.10561 0.15148,1.07061 0.17316,2.61794 l 0.0344,2.45069 1.54554,0.0354 c 1.22009,0.0279 1.54553,7e-5 1.54553,-0.13247 0,-0.0924 -0.0526,-0.22183 -0.11695,-0.28776 -0.0644,-0.0659 -0.13529,-1.1418 -0.1577,-2.39084 -0.0456,-2.5377 -0.17533,-3.03264 -0.91383,-3.48511 -0.35971,-0.2204 -0.64639,-0.2357 -3.85816,-0.2059 l -3.46956,0.0322 -0.0339,3.08869 c -0.0186,1.69877 -0.006,3.16266 0.0292,3.25306 0.0477,0.12416 0.39548,0.15562 1.42167,0.12855 l 1.3586,-0.0359 z m -18.285826,0.13196 c 0.09276,-0.0588 0.149584,-0.24248 0.126172,-0.40811 -0.03765,-0.2665 -0.107911,-0.30115 -0.610331,-0.30115 -0.50242,0 -0.57264,0.0346 -0.610321,0.30115 -0.0486,0.34381 0.154302,0.51507 0.610321,0.51507 0.173478,0 0.391348,-0.0481 0.484159,-0.10696 z m -34.945756,-4.30499 0.341598,-0.82008 5.071583,-0.0329 c 3.98983,-0.026 5.253797,0.005 5.925856,0.14569 0.469849,0.0983 0.901291,0.1342 0.95876,0.0798 0.05747,-0.0544 0.08586,-0.26182 0.06309,-0.4611 l -0.0414,-0.36233 -1.26166,-0.10195 c -0.693913,-0.0561 -1.346822,-0.0922 -1.450909,-0.0803 -0.104087,0.0119 -5.578527,0.044 -12.165424,0.0713 -6.586896,0.0274 -12.005255,0.0788 -12.040797,0.1143 -0.03554,0.0356 -0.0091,0.21964 0.05891,0.40912 0.09748,0.27185 0.188899,0.33429 0.433528,0.29611 0.170501,-0.0266 3.068742,-0.0717 6.440536,-0.10017 4.914689,-0.0415 6.155442,-0.0194 6.256128,0.11145 0.06908,0.0898 0.256111,0.4924 0.415628,0.89469 0.188747,0.47598 0.353411,0.71831 0.471512,0.69391 0.09981,-0.0207 0.335198,-0.40654 0.523077,-0.85759 z m 38.804012,-0.58124 c 0.15073,-0.0578 0.19956,-0.2585 0.19956,-0.82008 v -0.7435 h -1.4509 -1.45092 v 0.74648 c 0,0.47914 0.0564,0.76928 0.15771,0.81012 0.22782,0.0919 2.3083,0.0976 2.54455,0.007 z m -11.180327,-1.02738 c 0.02397,-0.41567 -0.01283,-0.66236 -0.09881,-0.66236 -0.07531,0 -0.433135,0.15613 -0.795133,0.34695 l -0.658176,0.34696 -3.595728,0.0396 c -1.977651,0.0218 -3.645849,0.089 -3.707107,0.14923 -0.06126,0.0603 -0.07695,0.19928 -0.03487,0.30893 0.06804,0.17731 0.561774,0.1957 4.464102,0.16619 l 4.387599,-0.0332 z m 7.405663,0.41004 c 0,-0.2021 -0.09749,-0.26032 -0.489755,-0.29247 -0.543253,-0.0446 -0.783054,0.10631 -0.663649,0.41747 0.05917,0.15425 0.211782,0.19541 0.61604,0.16619 0.440297,-0.0318 0.537364,-0.0845 0.537364,-0.29119 z m -56.30174,-2.99505 c 0.703373,-0.53677 0.788718,-0.94989 0.788718,-3.81791 0,-1.38782 -0.04538,-2.73743 -0.100848,-2.99913 -0.133227,-0.6286 -0.751876,-1.31572 -1.328899,-1.47599 -0.263671,-0.0732 -1.997765,-0.12883 -4.030891,-0.12923 -3.855839,-7.5e-4 -3.953177,0.0174 -3.508398,0.65235 0.172864,0.2468 0.200501,0.83093 0.200501,4.23771 v 3.95146 l 3.763501,-0.0368 3.7635,-0.0369 z m -4.926601,-1.13057 c -0.108222,-0.10823 -0.151398,-0.91337 -0.151398,-2.82328 0,-2.19978 0.03285,-2.69915 0.18591,-2.82618 0.277801,-0.23056 2.433716,-0.12795 2.592489,0.12338 0.06576,0.10409 0.120423,1.33573 0.121486,2.73697 0.0019,2.49076 -0.0043,2.55209 -0.278474,2.7441 -0.347917,0.2437 -2.236908,0.27812 -2.470013,0.045 z m 14.958797,-1.17335 c 0.03737,-2.96759 -0.0262,-3.25189 -0.853378,-3.81651 -0.404109,-0.27584 -0.50568,-0.28388 -3.589218,-0.28388 -3.39235,0 -3.47614,0.0152 -3.47614,0.63083 0,0.5945 0.145303,0.63083 2.523319,0.63083 2.287476,0 2.523319,0.0487 2.523319,0.52089 0,0.53785 -0.293392,0.61461 -2.349347,0.61461 -2.310686,0 -2.56331,0.0823 -2.891749,0.94233 -0.249428,0.6531 -0.208238,2.15236 0.07573,2.75666 0.32257,0.68644 0.483696,0.71134 4.408366,0.68128 l 3.59573,-0.0276 z m -5.264812,1.20688 c -0.180826,-0.33788 -0.163663,-1.17652 0.02949,-1.44067 0.134305,-0.18367 0.332431,-0.21295 1.230118,-0.18182 l 1.070027,0.0371 0.038,0.65859 c 0.0611,1.05881 -0.05721,1.17081 -1.23658,1.17081 -0.85999,0 -1.018787,-0.0343 -1.131055,-0.24403 z m 9.429267,-1.00807 c 0.02169,-1.54733 0.08551,-2.51235 0.173157,-2.61795 0.09344,-0.11259 0.458614,-0.16725 1.117244,-0.16725 0.658629,0 1.023802,0.0546 1.117243,0.16725 0.08764,0.1056 0.151473,1.07062 0.173157,2.61795 l 0.03434,2.45068 h 1.387825 1.387826 v -2.52332 c 0,-2.37849 -0.01636,-2.55395 -0.285111,-3.05693 -0.485694,-0.909 -0.570818,-0.92589 -4.475318,-0.88779 l -3.440359,0.0336 -0.03385,3.08868 c -0.01862,1.69877 -0.0055,3.16265 0.02923,3.25306 0.04765,0.12416 0.39548,0.15562 1.421676,0.12855 l 1.358597,-0.0359 z m 14.233686,2.19835 c 0.04354,-0.17348 0.04354,-0.45735 0,-0.63083 l -0.07917,-0.31542 -1.984711,-0.002 c -2.744188,-0.003 -2.606619,0.1 -2.650656,-1.97619 -0.0293,-1.38145 -0.0017,-1.68901 0.16672,-1.85743 0.16842,-0.16842 0.540809,-0.20183 2.249329,-0.20183 2.159986,0 2.35029,-0.0472 2.35029,-0.58266 0,-0.70031 0.104194,-0.67905 -3.325355,-0.67854 -4.420178,6.6e-4 -4.370767,-0.0364 -4.370767,3.27985 0,2.26619 0.08805,2.60224 0.794662,3.03309 0.372368,0.22704 0.65252,0.24632 3.587201,0.24675 l 3.183287,5.1e-4 z m 8.986658,-0.16595 c 0.07153,-0.74526 -0.0325,-0.77986 -2.358126,-0.78431 -1.449842,-0.003 -2.159666,-0.0515 -2.298015,-0.15771 -0.309927,-0.23795 -0.51584,-0.70535 -0.429956,-0.97595 0.07311,-0.23034 0.230023,-0.24702 2.624934,-0.27911 l 2.54718,-0.0342 0.03938,-1.13549 c 0.04737,-1.36593 -0.105549,-1.95574 -0.619084,-2.38785 l -0.385899,-0.32472 -2.923679,4.7e-4 c -2.709908,4.5e-4 -2.954214,0.0191 -3.34131,0.25509 -0.660652,0.4028 -0.780945,0.86521 -0.780945,3.00205 0,1.74434 0.0204,1.90815 0.286877,2.30358 0.15778,0.23413 0.47983,0.55573 0.715664,0.71465 0.422753,0.28489 0.474233,0.28849 3.655812,0.25534 l 3.22702,-0.0336 z m -5.061362,-3.50949 c -0.132503,-0.13251 -0.106644,-0.78616 0.0421,-1.06408 0.113301,-0.2117 0.271804,-0.24403 1.196174,-0.24403 1.016955,0 1.069006,0.0137 1.140906,0.30016 0.04144,0.16509 0.05672,0.46317 0.03394,0.66238 l -0.04139,0.3622 -1.14161,0.036 c -0.627886,0.0198 -1.181439,-0.004 -1.230118,-0.0526 z m 14.423904,3.73683 c 0.320493,-0.16351 0.588463,-0.43148 0.751967,-0.75197 0.232392,-0.45554 0.254031,-0.74058 0.254031,-3.34673 0,-3.18819 -0.07427,-3.52392 -0.911846,-4.12131 -0.407551,-0.29069 -0.462301,-0.295 -4.230754,-0.33287 -4.176187,-0.042 -4.136376,-0.0492 -3.757453,0.67749 0.161024,0.3088 0.193178,1.01382 0.193828,4.24981 l 7.76e-4,3.8796 h 3.600757 c 3.359797,0 3.634078,-0.017 4.098694,-0.25402 z M 85.39622,267.5809 c -0.100759,-0.1214 -0.133876,-1.00394 -0.110073,-2.93335 l 0.03405,-2.75971 1.118282,-0.0366 c 1.792667,-0.0588 1.720453,-0.18193 1.720453,2.93424 0,2.51929 -0.0062,2.58069 -0.280405,2.77274 -0.372883,0.26118 -2.269995,0.27857 -2.482303,0.0227 z m 14.9719,-1.06384 c 0.0309,-2.31234 0.0101,-2.61658 -0.21221,-3.11925 -0.14829,-0.33523 -0.413063,-0.65908 -0.665009,-0.8134 -0.396519,-0.24286 -0.591797,-0.25469 -3.698939,-0.22415 l -3.280309,0.0323 v 0.56775 0.56775 l 2.383625,0.0631 c 2.032857,0.0538 2.402915,0.0937 2.514638,0.27113 0.09678,0.15368 0.07484,0.29381 -0.08399,0.5362 l -0.21501,0.32816 H 95.06016 c -2.285293,0 -2.491829,0.0611 -2.814146,0.83251 -0.240631,0.57591 -0.224815,2.06816 0.02859,2.70157 0.346164,0.86513 0.410042,0.87724 4.4636,0.84619 l 3.595736,-0.0276 z m -5.265626,1.11963 c -0.18083,-0.33788 -0.163664,-1.17652 0.02944,-1.44067 0.134305,-0.18367 0.332433,-0.21295 1.230117,-0.18182 l 1.07003,0.0371 0.03803,0.65859 c 0.06106,1.05881 -0.05719,1.17081 -1.236581,1.17081 -0.859993,0 -1.018788,-0.0343 -1.131058,-0.24403 z m 9.429266,-1.00807 c 0.0217,-1.54733 0.0855,-2.51235 0.17315,-2.61795 0.18677,-0.22503 2.06903,-0.23315 2.21375,-0.01 0.0562,0.0867 0.13046,1.26481 0.16516,2.61795 l 0.063,2.46023 1.35282,0.0358 1.35282,0.0358 0.0832,-0.33161 c 0.0458,-0.18239 0.0568,-1.33774 0.0245,-2.56747 -0.0535,-2.03959 -0.0842,-2.28126 -0.3494,-2.75314 -0.51348,-0.91362 -0.61881,-0.93457 -4.48268,-0.89164 l -3.40648,0.0378 -0.0339,3.08868 c -0.0186,1.69877 -0.006,3.16265 0.0292,3.25307 0.0477,0.12416 0.39547,0.15561 1.42167,0.12854 l 1.3586,-0.0359 z m 14.1347,1.91448 -0.0384,-0.59929 -2.12477,-0.0631 c -2.72418,-0.0809 -2.64512,-0.0146 -2.58488,-2.16515 0.0279,-0.99687 0.0951,-1.5353 0.20511,-1.64541 0.11598,-0.11602 0.79555,-0.18204 2.33407,-0.22675 l 2.17047,-0.063 0.0384,-0.59929 0.0385,-0.59929 -3.1926,4.7e-4 c -4.44377,6.6e-4 -4.39119,-0.0386 -4.39119,3.27985 0,2.26619 0.088,2.60224 0.79467,3.03309 0.37245,0.2271 0.65259,0.24632 3.59652,0.24675 l 3.1926,5.1e-4 -0.0385,-0.59929 z m 8.95779,0 -0.0385,-0.59929 -2.23534,-0.0631 c -2.48498,-0.0701 -2.62755,-0.11822 -2.66481,-0.89889 l -0.0203,-0.42585 2.58639,-0.0631 2.58641,-0.063 v -1.41029 c 0,-1.2346 -0.0329,-1.45467 -0.2645,-1.76633 -0.47151,-0.63467 -0.65411,-0.66761 -3.70973,-0.66911 -2.59485,-9.4e-4 -2.87343,0.0197 -3.24265,0.2449 -0.73866,0.45039 -0.85774,0.85395 -0.85774,2.90692 0,2.14385 0.1403,2.58066 0.9931,3.09186 0.51742,0.31016 0.54214,0.31224 3.7135,0.31343 l 3.1926,9.5e-4 -0.0384,-0.59929 z m -4.93351,-3.39157 c -0.10868,-0.10869 -0.11651,-0.83602 -0.0119,-1.10855 0.0613,-0.15995 0.2859,-0.19956 1.13106,-0.19956 1.18332,0 1.36801,0.13161 1.29169,0.92053 l -0.0391,0.40421 -1.14161,0.036 c -0.62788,0.0198 -1.18144,-0.004 -1.23011,-0.0526 z m -50.996471,1.27828 v -0.37849 h -1.259931 c -1.115131,0 -1.264983,0.0262 -1.303872,0.22816 -0.104836,0.54437 0.03343,0.60304 1.331488,0.56497 l 1.232315,-0.0361 z m 47.059901,0 v -0.37849 h -1.25994 c -1.11512,0 -1.26497,0.0262 -1.30386,0.22816 -0.10484,0.54437 0.0334,0.60304 1.33149,0.56497 l 1.23231,-0.0361 z m -103.508495,8.42158 c -0.247548,-0.47458 -0.966751,-1.30853 -3.334817,-3.86689 l -1.272836,-1.37512 0.311376,-0.20145 c 0.287995,-0.18632 1.045718,-0.87615 4.893136,-4.4547 0.785185,-0.73031 1.572055,-1.54041 1.748598,-1.80022 l 0.320986,-0.47237 0.44093,0.45396 c 0.24251,0.24967 1.655661,1.22729 3.140333,2.17247 1.484671,0.94517 2.699403,1.78825 2.699403,1.87349 0,0.0852 -0.145181,0.22115 -0.322625,0.30199 -0.393677,0.17938 -0.2531,0.25068 -2.974287,-1.50869 -1.168357,-0.7554 -2.17735,-1.37346 -2.242208,-1.37346 -0.126915,0 -6.194314,5.64241 -6.194314,5.76044 0,0.0665 0.784817,0.96733 2.817638,3.23416 l 0.862066,0.9613 -0.226897,0.38411 c -0.124793,0.21126 -0.270276,0.3841 -0.323296,0.3841 -0.05302,0 -0.207453,-0.2129 -0.343186,-0.47312 z m -8.1523303,-6.56062 c -1.1611165,-1.27867 -1.5731234,-1.89993 -1.5731234,-2.37208 0,-0.1121 0.047458,-0.18489 0.1054619,-0.16176 0.1392743,0.0556 3.0981432,3.36844 3.1586902,3.53664 0.043806,0.12169 -0.1995335,0.34721 -0.379343,0.35155 -0.044051,9.4e-4 -0.6343098,-0.6084 -1.3116857,-1.35435 z m 10.5033533,-7.22493 c -0.119735,-0.13984 -1.073317,-0.82131 -2.119069,-1.51439 -1.242692,-0.82359 -1.835775,-1.2853 -1.71202,-1.33279 0.104139,-0.0399 0.439868,0.0381 0.746063,0.1736 0.607377,0.26868 3.553193,2.20468 3.689012,2.42443 0.08239,0.13332 -0.140808,0.50341 -0.303606,0.50341 -0.04548,0 -0.180645,-0.11442 -0.30038,-0.25426 z"
       style="fill:#003399;stroke-width:0.12616596" />
    <path
       d="m 3.3003436,296.32084 c 0.417445,-5.3e-4 0.829739,-0.0933 1.208183,-0.27225 0.372149,-0.16681 0.702345,-0.41658 0.965906,-0.73118 v 0 l -0.719626,-0.73118 c -0.17661,0.21564 -0.395964,0.39109 -0.643812,0.51511 -0.243129,0.11927 -0.510056,0.18064 -0.780186,0.17891 -0.227952,0.002 -0.454125,-0.041 -0.665431,-0.12791 -0.211307,-0.0869 -0.403552,-0.21521 -0.565604,-0.37769 -0.156045,-0.15946 -0.279334,-0.34831 -0.362706,-0.55659 -0.08939,-0.22065 -0.134395,-0.45733 -0.13239,-0.696 -0.0024,-0.24101 0.0413,-0.48015 0.12876,-0.70426 0.08165,-0.20838 0.202638,-0.3986 0.356181,-0.55997 0.153979,-0.1601 0.338144,-0.28711 0.541525,-0.37345 0.211937,-0.0913 0.440046,-0.13763 0.670289,-0.13616 0.27767,-8e-4 0.551762,0.0636 0.800496,0.18875 0.2571,0.13098 0.482227,0.3184 0.659044,0.5486 v 0 l 0.742456,-0.75464 c -0.261054,-0.32155 -0.593238,-0.57608 -0.969514,-0.74284 -0.386724,-0.18133 -0.807544,-0.27558 -1.233571,-0.27631 -0.380524,-0.002 -0.757771,0.0714 -1.10989,0.21779 -0.333606,0.13729 -0.638207,0.33811 -0.897343,0.59164 -0.255778,0.25371 -0.45922203,0.55651 -0.59846903,0.89077 -0.144352,0.35046 -0.218984,0.72638 -0.219607,1.10619 -6.16e-4,0.37985 0.07278,0.75606 0.215979,1.10696 0.1376,0.33318 0.33975903,0.63481 0.59447903,0.88718 0.259261,0.25323 0.563991,0.45418 0.897705,0.59116 0.3545,0.14693 0.734237,0.22082 1.117146,0.21737 z m 14.3549284,0.008 c 0.379244,0.002 0.755247,-0.0713 1.105884,-0.2178 0.332141,-0.13655 0.634335,-0.33879 0.88921,-0.59462 0.254831,-0.25539 0.457331,-0.55962 0.595745,-0.89539 0.144939,-0.3483 0.219612,-0.72249 0.219612,-1.10065 0,-0.37817 -0.07467,-0.75248 -0.219612,-1.10087 -0.138414,-0.33543 -0.34087,-0.63974 -0.595745,-0.89539 -0.254832,-0.2557 -0.557026,-0.45768 -0.88921,-0.59436 -0.706977,-0.29032 -1.49753,-0.29032 -2.204507,0 -0.332185,0.13668 -0.634379,0.33866 -0.889211,0.59436 -0.254874,0.25565 -0.457331,0.55996 -0.595744,0.89539 -0.144853,0.34843 -0.219483,0.72274 -0.219483,1.10087 0,0.37812 0.07463,0.75235 0.219483,1.10065 0.138413,0.33577 0.340913,0.64 0.595744,0.89539 0.254875,0.25583 0.557069,0.45807 0.889211,0.59462 0.348389,0.14606 0.722015,0.21996 1.098969,0.21737 z m 0,-1.03454 c -0.222551,0.002 -0.443157,-0.0423 -0.648293,-0.13007 -0.205136,-0.0877 -0.39048,-0.21694 -0.544666,-0.37942 -0.15207,-0.16334 -0.271642,-0.35521 -0.352192,-0.56437 -0.171775,-0.4518 -0.171775,-0.95239 0,-1.40432 0.0812,-0.20768 0.200728,-0.39774 0.352192,-0.55996 0.154186,-0.16283 0.33953,-0.29204 0.544666,-0.37968 0.205136,-0.0876 0.425742,-0.13184 0.648293,-0.12994 0.22912,-0.002 0.456078,0.0446 0.666659,0.13617 0.201074,0.0865 0.382745,0.21351 0.533906,0.37345 0.151465,0.16222 0.270994,0.35228 0.352192,0.55996 0.171689,0.45198 0.171689,0.95248 0,1.40432 -0.08051,0.20916 -0.200079,0.40103 -0.352192,0.56437 -0.151161,0.15989 -0.332832,0.28694 -0.533906,0.37337 -0.210494,0.0912 -0.437366,0.13742 -0.666313,0.13569 z m 16.650138,0.94898 v -0.99566 h -2.901632 v -4.45037 h -1.097587 v 5.44558 z m 13.847813,0 v -0.99565 h -2.901807 v -4.45037 h -1.098061 v 5.44558 z m 13.953294,0 v -0.98009 h -3.007246 v -1.29175 h 1.962338 v -0.94928 h -1.962338 v -1.2436 h 2.977427 v -0.98018 h -4.076356 v 5.44533 z m 12.181528,0.0778 c 0.417446,-5.3e-4 0.829704,-0.0933 1.208262,-0.27225 0.37207,-0.1668 0.702223,-0.41658 0.965824,-0.73118 v 0 l -0.719939,-0.73117 c -0.176744,0.21564 -0.396272,0.39152 -0.643885,0.51511 -0.243292,0.1197 -0.510354,0.18063 -0.780441,0.1789 -0.227737,0.002 -0.453745,-0.0406 -0.665062,-0.12748 -0.211315,-0.0869 -0.403617,-0.2152 -0.565235,-0.37812 -0.156435,-0.15902 -0.279593,-0.3483 -0.362995,-0.55616 -0.08945,-0.22078 -0.134395,-0.45746 -0.132667,-0.69613 -0.0024,-0.241 0.04149,-0.48019 0.129209,-0.70425 0.08124,-0.20847 0.202242,-0.3987 0.35565,-0.55997 0.153842,-0.16015 0.338365,-0.28715 0.541468,-0.37345 0.21218,-0.0913 0.440348,-0.13764 0.670247,-0.13617 0.278728,-7.9e-4 0.554001,0.0641 0.803342,0.19023 0.257124,0.13094 0.482266,0.31835 0.65901,0.5486 v 0 l 0.742413,-0.75464 c -0.261011,-0.32156 -0.593325,-0.57609 -0.969716,-0.74285 -0.386331,-0.18124 -0.807236,-0.27549 -1.23289,-0.27631 -0.380714,-0.002 -0.75797,0.0714 -1.110162,0.2178 -0.333608,0.13712 -0.638265,0.33784 -0.897549,0.59129 -0.255825,0.25363 -0.459362,0.55647 -0.598942,0.89077 -0.144336,0.35046 -0.218663,0.72638 -0.219528,1.10618 -5.29e-4,0.37981 0.0726,0.75595 0.216069,1.10684 0.137422,0.33318 0.339662,0.63481 0.594188,0.88718 0.259284,0.25323 0.564375,0.45417 0.897983,0.59116 0.353923,0.14607 0.732909,0.21953 1.115346,0.21564 z m 14.52934,-0.0778 v -4.45037 h 1.779542 v -0.99599 h -4.666223 v 0.99599 h 1.787755 v 4.44993 z m 12.582125,0 v -5.44529 h -1.09807 v 5.44528 z m 12.65126,0.086 c 0.37898,0.002 0.75495,-0.0713 1.10584,-0.21779 0.33188,-0.13699 0.63438,-0.3388 0.88891,-0.59463 0.25496,-0.25539 0.45763,-0.56005 0.59592,-0.89538 0.14476,-0.34831 0.21952,-0.72258 0.21952,-1.10075 0,-0.37812 -0.0748,-0.75244 -0.21952,-1.10083 -0.13829,-0.33542 -0.34096,-0.63973 -0.59592,-0.89543 -0.25453,-0.25565 -0.55703,-0.45767 -0.88891,-0.59436 -0.70698,-0.29018 -1.49736,-0.29018 -2.20433,0 -0.33188,0.1369 -0.63395,0.33897 -0.88891,0.59462 -0.25453,0.25565 -0.4572,0.55988 -0.59549,0.89517 -0.1452,0.34835 -0.21995,0.72267 -0.21995,1.10083 0,0.37817 0.0747,0.75244 0.21995,1.10075 0.13829,0.33533 0.34096,0.63956 0.59549,0.89538 0.25496,0.2554 0.55703,0.45764 0.88891,0.59463 0.3483,0.14562 0.72167,0.21952 1.09849,0.21693 z m 0,-1.03453 c -0.22817,0.002 -0.45374,-0.0445 -0.6629,-0.13613 -0.19965,-0.0873 -0.37985,-0.21434 -0.53023,-0.3738 -0.15211,-0.16292 -0.27182,-0.35435 -0.35263,-0.56394 -0.17156,-0.45188 -0.17156,-0.95243 0,-1.40436 0.0813,-0.20777 0.20095,-0.39787 0.35263,-0.56001 0.15038,-0.15937 0.33058,-0.28638 0.53023,-0.37345 0.20916,-0.0918 0.43473,-0.13816 0.6629,-0.13612 0.22903,-0.002 0.45548,0.0446 0.66636,0.13612 0.20094,0.0865 0.38287,0.21352 0.53412,0.37345 0.15125,0.16223 0.27095,0.35228 0.35219,0.56001 0.17199,0.45189 0.17199,0.95252 0,1.40436 -0.0804,0.20916 -0.20008,0.40102 -0.35219,0.56394 -0.15125,0.15989 -0.33318,0.28694 -0.53412,0.3738 -0.21088,0.0912 -0.43776,0.13699 -0.66636,0.13526 z m 13.68796,0.94897 v -3.64246 l 2.70432,3.64245 h 0.96972 v -5.44533 h -1.03022 v 3.52404 l -2.63604,-3.52404 h -1.04577 v 5.44533 z"
       id="path4"
       inkscape:connector-curvature="0"
       style="fill:#ffffff;stroke-width:0.43213776" />
  </g>
</svg>
