<?xml version="1.0" encoding="UTF-8" standalone="no"?>
<svg
   xmlns:dc="http://purl.org/dc/elements/1.1/"
   xmlns:cc="http://creativecommons.org/ns#"
   xmlns:rdf="http://www.w3.org/1999/02/22-rdf-syntax-ns#"
   xmlns:svg="http://www.w3.org/2000/svg"
   xmlns="http://www.w3.org/2000/svg"
   xmlns:sodipodi="http://sodipodi.sourceforge.net/DTD/sodipodi-0.dtd"
   xmlns:inkscape="http://www.inkscape.org/namespaces/inkscape"
   width="500"
   height="200"
   viewBox="0 0 500 200"
   version="1.1"
   id="svg10"
   sodipodi:docname="doubledragon.svg"
   inkscape:version="0.92.5 (2060ec1f9f, 2020-04-08)">
  <metadata
     id="metadata16">
    <rdf:RDF>
      <cc:Work
         rdf:about="">
        <dc:format>image/svg+xml</dc:format>
        <dc:type
           rdf:resource="http://purl.org/dc/dcmitype/StillImage" />
        <dc:title />
      </cc:Work>
    </rdf:RDF>
  </metadata>
  <defs
     id="defs14" />
  <sodipodi:namedview
     pagecolor="#ffffff"
     bordercolor="#666666"
     borderopacity="1"
     objecttolerance="10"
     gridtolerance="10"
     guidetolerance="10"
     inkscape:pageopacity="0"
     inkscape:pageshadow="2"
     inkscape:window-width="1366"
     inkscape:window-height="743"
     id="namedview12"
     showgrid="false"
     units="px"
     inkscape:pagecheckerboard="true"
     inkscape:zoom="1.4038848"
     inkscape:cx="287.31086"
     inkscape:cy="46.01499"
     inkscape:window-x="0"
     inkscape:window-y="0"
     inkscape:window-maximized="1"
     inkscape:current-layer="svg10" />
  <rect
     style="fill:#ffffff;fill-opacity:1;fill-rule:nonzero;stroke:none;stroke-width:1.4714098;stroke-linecap:round;stroke-linejoin:round;stroke-miterlimit:4;stroke-dasharray:none;stroke-opacity:1"
     id="rect626"
     width="6.2760372"
     height="54.130821"
     x="379.3349"
     y="83.063377" />
  <rect
     style="fill:#ffffff;fill-opacity:1;fill-rule:nonzero;stroke:none;stroke-width:1.4714098;stroke-linecap:round;stroke-linejoin:round;stroke-miterlimit:4;stroke-dasharray:none;stroke-opacity:1"
     id="rect624"
     width="4.0794244"
     height="4.550127"
     x="361.91891"
     y="148.64795" />
  <rect
     style="fill:#ffffff;fill-opacity:1;fill-rule:nonzero;stroke:none;stroke-width:1.4714098;stroke-linecap:round;stroke-linejoin:round;stroke-miterlimit:4;stroke-dasharray:none;stroke-opacity:1"
     id="rect622"
     width="8.7825327"
     height="55.615788"
     x="354.85834"
     y="99.224152" />
  <rect
     style="fill:#ffffff;fill-opacity:1;fill-rule:nonzero;stroke:none;stroke-width:1.4714098;stroke-linecap:round;stroke-linejoin:round;stroke-miterlimit:4;stroke-dasharray:none;stroke-opacity:1"
     id="rect618"
     width="6.589839"
     height="16.003893"
     x="339.48206"
     y="118.83681" />
  <rect
     style="fill:#ffffff;fill-opacity:1;fill-rule:nonzero;stroke:none;stroke-width:1.4714098;stroke-linecap:round;stroke-linejoin:round;stroke-miterlimit:4;stroke-dasharray:none;stroke-opacity:1"
     id="rect620"
     width="4.3932257"
     height="7.8450451"
     x="336.65784"
     y="128.09395" />
  <rect
     style="fill:#ffffff;fill-opacity:1;fill-rule:nonzero;stroke:none;stroke-width:1.4714098;stroke-linecap:round;stroke-linejoin:round;stroke-miterlimit:4;stroke-dasharray:none;stroke-opacity:1"
     id="rect616"
     width="3.1380186"
     height="8.9433527"
     x="310.6123"
     y="98.753471" />
  <rect
     style="fill:#ffffff;fill-opacity:1;fill-rule:nonzero;stroke:none;stroke-width:1.4714098;stroke-linecap:round;stroke-linejoin:round;stroke-miterlimit:4;stroke-dasharray:none;stroke-opacity:1"
     id="rect614"
     width="4.8639288"
     height="10.19856"
     x="312.65198"
     y="95.144745" />
  <rect
     style="fill:#ffffff;fill-opacity:1;fill-rule:nonzero;stroke:none;stroke-width:1.4714098;stroke-linecap:round;stroke-linejoin:round;stroke-miterlimit:4;stroke-dasharray:none;stroke-opacity:1"
     id="rect612"
     width="5.6484327"
     height="5.334631"
     x="314.8486"
     y="92.163635" />
  <rect
     style="fill:#ffffff;fill-opacity:1;fill-rule:nonzero;stroke:none;stroke-width:1.4714098;stroke-linecap:round;stroke-linejoin:round;stroke-miterlimit:4;stroke-dasharray:none;stroke-opacity:1"
     id="rect610"
     width="10.669262"
     height="4.2363248"
     x="316.73145"
     y="88.868706" />
  <rect
     style="fill:#ffffff;fill-opacity:1;fill-rule:nonzero;stroke:none;stroke-width:1.4714098;stroke-linecap:round;stroke-linejoin:round;stroke-miterlimit:4;stroke-dasharray:none;stroke-opacity:1"
     id="rect608"
     width="6.7467499"
     height="3.7656193"
     x="266.36624"
     y="96.086143" />
  <rect
     style="fill:#ffffff;fill-opacity:1;fill-rule:nonzero;stroke:none;stroke-width:1.4714098;stroke-linecap:round;stroke-linejoin:round;stroke-miterlimit:4;stroke-dasharray:none;stroke-opacity:1"
     id="rect606"
     width="7.6881456"
     height="6.1191359"
     x="269.19049"
     y="93.732643" />
  <rect
     style="fill:#ffffff;fill-opacity:1;fill-rule:nonzero;stroke:none;stroke-width:1.4714098;stroke-linecap:round;stroke-linejoin:round;stroke-miterlimit:4;stroke-dasharray:none;stroke-opacity:1"
     id="rect604"
     width="6.589839"
     height="7.3743429"
     x="266.36624"
     y="99.851776" />
  <rect
     style="fill:#ffffff;fill-opacity:1;fill-rule:nonzero;stroke:none;stroke-width:1.4714098;stroke-linecap:round;stroke-linejoin:round;stroke-miterlimit:4;stroke-dasharray:none;stroke-opacity:1"
     id="rect602"
     width="5.962234"
     height="3.2949195"
     x="274.99579"
     y="88.554909" />
  <rect
     style="fill:#ffffff;fill-opacity:1;fill-rule:nonzero;stroke:none;stroke-width:1.4714098;stroke-linecap:round;stroke-linejoin:round;stroke-miterlimit:4;stroke-dasharray:none;stroke-opacity:1"
     id="rect600"
     width="8.7864513"
     height="6.2760372"
     x="271.54398"
     y="90.28083" />
  <rect
     style="fill:#ffffff;fill-opacity:1;fill-rule:nonzero;stroke:none;stroke-width:1.4714098;stroke-linecap:round;stroke-linejoin:round;stroke-miterlimit:4;stroke-dasharray:none;stroke-opacity:1"
     id="rect598"
     width="5.962234"
     height="4.7070274"
     x="293.82388"
     y="96.086143" />
  <rect
     style="fill:#ffffff;fill-opacity:1;fill-rule:nonzero;stroke:none;stroke-width:1.4714098;stroke-linecap:round;stroke-linejoin:round;stroke-miterlimit:4;stroke-dasharray:none;stroke-opacity:1"
     id="rect596"
     width="8.7864513"
     height="25.417948"
     x="292.72556"
     y="117.58158" />
  <rect
     style="fill:#ffffff;fill-opacity:1;fill-rule:nonzero;stroke:none;stroke-width:1.4714098;stroke-linecap:round;stroke-linejoin:round;stroke-miterlimit:4;stroke-dasharray:none;stroke-opacity:1"
     id="rect594"
     width="11.139966"
     height="7.217442"
     x="249.10716"
     y="141.90121" />
  <rect
     style="fill:#ffffff;fill-opacity:1;fill-rule:nonzero;stroke:none;stroke-width:1.4714098;stroke-linecap:round;stroke-linejoin:round;stroke-miterlimit:4;stroke-dasharray:none;stroke-opacity:1"
     id="rect592"
     width="4.3932257"
     height="6.9036407"
     x="234.82915"
     y="89.653214" />
  <rect
     style="fill:#ffffff;fill-opacity:1;fill-rule:nonzero;stroke:none;stroke-width:1.4714098;stroke-linecap:round;stroke-linejoin:round;stroke-miterlimit:4;stroke-dasharray:none;stroke-opacity:1"
     id="rect590"
     width="9.5709562"
     height="4.550127"
     x="238.90855"
     y="122.75929" />
  <rect
     style="fill:#ffffff;fill-opacity:1;fill-rule:nonzero;stroke:none;stroke-width:1.4714098;stroke-linecap:round;stroke-linejoin:round;stroke-miterlimit:4;stroke-dasharray:none;stroke-opacity:1"
     id="rect588"
     width="4.2363248"
     height="6.9036407"
     x="225.4151"
     y="119.46439" />
  <rect
     style="fill:#ffffff;fill-opacity:1;fill-rule:nonzero;stroke:none;stroke-width:1.4714098;stroke-linecap:round;stroke-linejoin:round;stroke-miterlimit:4;stroke-dasharray:none;stroke-opacity:1"
     id="rect586"
     width="9.4140549"
     height="8.4726496"
     x="219.92357"
     y="124.01451" />
  <rect
     style="fill:#ffffff;fill-opacity:1;fill-rule:nonzero;stroke:none;stroke-width:1.4714098;stroke-linecap:round;stroke-linejoin:round;stroke-miterlimit:4;stroke-dasharray:none;stroke-opacity:1"
     id="rect584"
     width="6.9036407"
     height="11.610668"
     x="205.01796"
     y="130.13365" />
  <rect
     style="fill:#ffffff;fill-opacity:1;fill-rule:nonzero;stroke:none;stroke-width:1.4714098;stroke-linecap:round;stroke-linejoin:round;stroke-miterlimit:4;stroke-dasharray:none;stroke-opacity:1"
     id="rect582"
     width="7.8450422"
     height="14.434883"
     x="201.72304"
     y="119.3075" />
  <rect
     style="fill:#ffffff;fill-opacity:1;fill-rule:nonzero;stroke:none;stroke-width:1.4714098;stroke-linecap:round;stroke-linejoin:round;stroke-miterlimit:4;stroke-dasharray:none;stroke-opacity:1"
     id="rect580"
     width="10.983065"
     height="2.3535137"
     x="201.72304"
     y="116.95399" />
  <rect
     style="fill:#ffffff;fill-opacity:1;fill-rule:nonzero;stroke:none;stroke-width:1.4714098;stroke-linecap:round;stroke-linejoin:round;stroke-miterlimit:4;stroke-dasharray:none;stroke-opacity:1"
     id="rect578"
     width="4.8639288"
     height="5.0208292"
     x="209.56805"
     y="111.61935" />
  <rect
     style="fill:#ffffff;fill-opacity:1;fill-rule:nonzero;stroke:none;stroke-width:1.4714098;stroke-linecap:round;stroke-linejoin:round;stroke-miterlimit:4;stroke-dasharray:none;stroke-opacity:1"
     id="rect576"
     width="5.8053341"
     height="22.593731"
     x="190.42619"
     y="126.21114" />
  <rect
     style="fill:#ffffff;fill-opacity:1;fill-rule:nonzero;stroke:none;stroke-width:1.4714098;stroke-linecap:round;stroke-linejoin:round;stroke-miterlimit:4;stroke-dasharray:none;stroke-opacity:1"
     id="rect574"
     width="7.217442"
     height="21.809229"
     x="186.97437"
     y="98.282768" />
  <rect
     style="fill:#ffffff;fill-opacity:1;fill-rule:nonzero;stroke:none;stroke-width:1.4714098;stroke-linecap:round;stroke-linejoin:round;stroke-miterlimit:4;stroke-dasharray:none;stroke-opacity:1"
     id="rect572"
     width="7.217442"
     height="32.792294"
     x="169.40146"
     y="101.89149" />
  <rect
     style="fill:#ffffff;fill-opacity:1;fill-rule:nonzero;stroke:none;stroke-width:1.4714098;stroke-linecap:round;stroke-linejoin:round;stroke-miterlimit:4;stroke-dasharray:none;stroke-opacity:1"
     id="rect570"
     width="4.8815866"
     height="2.4408057"
     x="298.52972"
     y="19.359175" />
  <rect
     style="fill:#ffffff;fill-opacity:1;fill-rule:nonzero;stroke:none;stroke-width:1.4714098;stroke-linecap:round;stroke-linejoin:round;stroke-miterlimit:4;stroke-dasharray:none;stroke-opacity:1"
     id="rect568"
     width="10.872679"
     height="5.3253937"
     x="301.19247"
     y="16.030802" />
  <rect
     style="fill:#ffffff;fill-opacity:1;fill-rule:nonzero;stroke:none;stroke-width:1.4714098;stroke-linecap:round;stroke-linejoin:round;stroke-miterlimit:4;stroke-dasharray:none;stroke-opacity:1"
     id="rect566"
     width="6.8786335"
     height="6.8786335"
     x="296.53268"
     y="21.79998" />
  <rect
     style="fill:#ffffff;fill-opacity:1;fill-rule:nonzero;stroke:none;stroke-width:1.4714098;stroke-linecap:round;stroke-linejoin:round;stroke-miterlimit:4;stroke-dasharray:none;stroke-opacity:1"
     id="rect564"
     width="5.3253937"
     height="13.757267"
     x="266.79932"
     y="53.752342" />
  <rect
     style="fill:#ffffff;fill-opacity:1;fill-rule:nonzero;stroke:none;stroke-width:1.4714098;stroke-linecap:round;stroke-linejoin:round;stroke-miterlimit:4;stroke-dasharray:none;stroke-opacity:1"
     id="rect562"
     width="9.3194389"
     height="5.7691765"
     x="265.24606"
     y="18.915392" />
  <rect
     style="fill:#ffffff;fill-opacity:1;fill-rule:nonzero;stroke:none;stroke-width:1.4714098;stroke-linecap:round;stroke-linejoin:round;stroke-miterlimit:4;stroke-dasharray:none;stroke-opacity:1"
     id="rect560"
     width="11.316462"
     height="5.1035023"
     x="215.9861"
     y="21.578087" />
  <rect
     style="fill:#ffffff;fill-opacity:1;fill-rule:nonzero;stroke:none;stroke-width:1.4714098;stroke-linecap:round;stroke-linejoin:round;stroke-miterlimit:4;stroke-dasharray:none;stroke-opacity:1"
     id="rect558"
     width="6.8786335"
     height="21.745358"
     x="243.94444"
     y="24.906462" />
  <rect
     style="fill:#ffffff;fill-opacity:1;fill-rule:nonzero;stroke:none;stroke-width:1.4714098;stroke-linecap:round;stroke-linejoin:round;stroke-miterlimit:4;stroke-dasharray:none;stroke-opacity:1"
     id="rect556"
     width="5.1035023"
     height="15.976181"
     x="208.88556"
     y="49.758301" />
  <rect
     style="fill:#ffffff;fill-opacity:1;fill-rule:nonzero;stroke:none;stroke-width:1.4714098;stroke-linecap:round;stroke-linejoin:round;stroke-miterlimit:4;stroke-dasharray:none;stroke-opacity:1"
     id="rect554"
     width="8.4318714"
     height="4.2159362"
     x="186.25266"
     y="17.140257" />
  <rect
     style="fill:#ffffff;fill-opacity:1;fill-rule:nonzero;stroke:none;stroke-width:1.4714098;stroke-linecap:round;stroke-linejoin:round;stroke-miterlimit:4;stroke-dasharray:none;stroke-opacity:1"
     id="rect552"
     width="9.5413284"
     height="7.3224168"
     x="185.1432"
     y="21.356197" />
  <rect
     style="fill:#ffffff;fill-opacity:1;fill-rule:nonzero;stroke:none;stroke-width:1.4714098;stroke-linecap:round;stroke-linejoin:round;stroke-miterlimit:4;stroke-dasharray:none;stroke-opacity:1"
     id="rect550"
     width="7.544313"
     height="19.970224"
     x="168.05754"
     y="48.870731" />
  <rect
     style="fill:#ffffff;fill-opacity:1;fill-rule:nonzero;stroke:none;stroke-width:1.4714098;stroke-linecap:round;stroke-linejoin:round;stroke-miterlimit:4;stroke-dasharray:none;stroke-opacity:1"
     id="rect548"
     width="6.2129593"
     height="7.9880905"
     x="144.31517"
     y="21.79998" />
  <rect
     style="fill:#ffffff;fill-opacity:1;fill-rule:nonzero;stroke:none;stroke-width:1.4714098;stroke-linecap:round;stroke-linejoin:round;stroke-miterlimit:4;stroke-dasharray:none;stroke-opacity:1"
     id="rect546"
     width="4.2159367"
     height="7.7661996"
     x="148.75301"
     y="18.693499" />
  <rect
     style="fill:#ffffff;fill-opacity:1;fill-rule:nonzero;stroke:none;stroke-width:1.4714098;stroke-linecap:round;stroke-linejoin:round;stroke-miterlimit:4;stroke-dasharray:none;stroke-opacity:1"
     id="rect544"
     width="5.7691765"
     height="8.8756571"
     x="140.76492"
     y="27.347265" />
  <rect
     style="fill:#ffffff;fill-opacity:1;fill-rule:nonzero;stroke:none;stroke-width:1.4714098;stroke-linecap:round;stroke-linejoin:round;stroke-miterlimit:4;stroke-dasharray:none;stroke-opacity:1"
     id="rect542"
     width="8.2099819"
     height="16.419964"
     x="168.05754"
     y="48.870731" />
  <rect
     style="fill:#ffffff;fill-opacity:1;fill-rule:nonzero;stroke:none;stroke-width:1.4714098;stroke-linecap:round;stroke-linejoin:round;stroke-miterlimit:4;stroke-dasharray:none;stroke-opacity:1"
     id="rect540"
     width="6.8786335"
     height="23.298595"
     x="122.34795"
     y="38.885616" />
  <path
     inkscape:connector-curvature="0"
     id="path536"
     d="m 221.51726,156.51241 c -5.35695,-3.09969 -12.9047,-10.51565 -17.48365,-17.17842 l -3.40049,-4.94803 -0.21578,5.12932 c -0.42489,10.10034 -0.61075,10.49049 -5.94911,12.48783 -2.63865,0.98725 -5.3206,1.79499 -5.95991,1.79499 -0.82246,0 -1.34281,-2.06855 -1.77941,-7.07365 -0.51906,-5.9504 -0.883,-7.14318 -2.29198,-7.51164 -1.04603,-0.27355 -1.67491,-1.19882 -1.67491,-2.46428 0,-3.28539 -1.34411,-3.16135 -2.98291,0.27525 -4.86809,10.20847 -10.30058,13.59342 -26.32558,16.40332 -6.53469,1.14584 -12.22472,1.87105 -12.64453,1.61158 -0.98147,-0.60658 -0.986,-3.26313 -0.008,-4.33534 0.41574,-0.45549 1.39647,-2.76143 2.17941,-5.12433 1.14692,-3.46136 1.42353,-8.09711 1.42353,-23.85713 v -19.56094 l -2.1794,0.53749 c -1.19868,0.29565 -3.14206,0.77594 -4.31861,1.06734 -2.59205,0.64199 -3.3445,-1.41339 -2.92772,-7.997558 0.26978,-4.262214 0.31552,-4.322656 5.06692,-6.696892 2.63708,-1.31772 7.82006,-3.050726 11.51772,-3.851121 5.70198,-1.234241 7.45589,-1.29125 11.54839,-0.375388 11.7481,2.629107 20.52194,17.279009 20.52194,34.265999 0,5.59793 0.91561,7.59062 2.08614,4.54024 0.29103,-0.75843 0.52914,-4.89698 0.52914,-9.1968 0,-8.12778 -1.18009,-12.07202 -4.10094,-13.7066 -1.86492,-1.043667 -0.83819,-3.643031 3.30106,-8.357395 8.16614,-9.300711 23.8952,-10.645278 32.82379,-2.805873 4.05618,3.561384 5.46374,7.133984 5.45329,13.841508 -0.0103,6.59082 -2.69589,13.03374 -7.38939,17.72723 -2.39356,2.39356 -3.00277,3.5881 -2.56694,5.03322 0.88469,2.93343 1.99121,3.69304 2.65502,1.82265 2.0447,-5.76135 3.01693,-7.32221 4.85504,-7.79451 1.52835,-0.39271 3.11012,-2.78329 6.50974,-9.83834 4.44018,-9.21448 4.47213,-9.33989 2.83323,-11.119307 -0.91168,-0.98983 -1.65761,-2.282158 -1.65761,-2.871832 0,-1.698323 6.31355,-12.222311 7.63711,-12.730201 1.94644,-0.746918 10.56287,8.151392 14.65398,15.133403 2.07842,3.547087 4.84267,9.365787 6.14276,12.930437 2.59652,7.11918 3.27195,6.99327 4.13857,-0.77154 0.80792,-7.23895 3.81904,-14.249191 8.22565,-19.150408 8.61283,-9.579515 18.41756,-10.717749 28.30104,-3.285472 2.51059,1.887941 5.83965,3.894539 7.39792,4.459116 1.55827,0.564576 2.83324,1.490871 2.83324,2.058441 0,1.492431 -12.39596,13.408513 -13.94819,13.408223 -0.75279,-1.3e-4 -2.19226,-2.0434 -3.39242,-4.81536 -2.42721,-5.606047 -4.24221,-6.94408 -7.44191,-5.486197 -5.28761,2.409197 -8.15375,15.876127 -5.39705,25.358847 1.57519,5.41844 5.58951,9.65584 8.72369,9.20848 1.54499,-0.22053 1.8851,-0.95598 2.11377,-4.57085 0.16002,-2.52942 -0.31638,-5.85011 -1.15391,-8.04313 -0.78454,-2.05432 -1.17825,-4.1367 -0.87491,-4.62752 0.73449,-1.18842 14.03469,-1.14758 16.27233,0.05 0.96847,0.51831 1.90203,0.80123 2.07455,0.6287 0.17254,-0.17252 0.7364,-2.95978 1.25306,-6.19392 1.94622,-12.182767 7.1513,-20.968964 14.36285,-24.244559 4.57633,-2.078623 12.06958,-2.086673 16.61212,-0.01787 4.52226,2.059602 9.72083,7.876672 12.07811,13.515162 l 1.87008,4.473097 0.43587,-12.569771 c 0.28679,-8.270486 0.77525,-12.682244 1.42811,-12.898628 0.5457,-0.180877 2.45713,2.337176 4.24759,5.595672 2.91684,5.308413 15.41029,19.436837 17.18757,19.436837 0.37086,0 0.67428,-2.29901 0.67428,-5.108907 0,-4.011941 -0.46796,-5.798508 -2.17941,-8.320457 -1.19867,-1.766337 -2.1794,-3.362015 -2.1794,-3.545942 0,-0.18392 4.37004,-2.74005 9.71116,-5.680288 6.06518,-3.338812 10.01902,-5.038033 10.53114,-4.525915 0.5121,0.512118 0.30306,2.342503 -0.55686,4.875278 -1.09741,3.232374 -1.48954,10.108601 -1.93232,33.885101 -0.31296,16.80466 -0.92086,30.29348 -1.3922,30.89174 -0.46016,0.58409 -2.61877,2.05801 -4.79692,3.27539 -4.84211,2.70632 -6.33344,1.9024 -6.33344,-3.41409 0,-5.35423 -2.26508,-12.09881 -5.47085,-16.29011 -4.68516,-6.12551 -4.99026,-5.72207 -4.99026,6.59817 0,10.92186 0.0137,10.99646 2.17939,11.81984 2.69498,1.02464 2.74077,2.39619 0.2056,6.15814 -3.49954,5.19298 -11.02718,5.19618 -14.0584,0.007 -1.26319,-2.16284 -1.80471,-5.26845 -2.1939,-12.5817 l -0.51675,-9.71012 -2.26756,4.83446 c -6.16709,13.1484 -16.75377,17.94614 -27.63497,12.52382 -5.38762,-2.68476 -10.03443,-7.82635 -12.06411,-13.34865 -2.13712,-5.81459 -2.6724,-5.99387 -3.34279,-1.11957 -0.4027,2.92795 -0.14685,6.12806 0.77878,9.74114 0.75816,2.9594 1.37848,5.64803 1.37848,5.97473 0,0.32672 -6.34833,0.65876 -14.10739,0.73786 -12.42572,0.12669 -14.50314,-0.058 -17.42738,-1.5499 l -3.31999,-1.69374 0.21009,1.97518 c 0.20969,1.97134 0.18262,1.97565 -13.95602,2.21471 -7.79137,0.13175 -14.16721,-0.0643 -14.16853,-0.43588 -0.002,-0.37148 0.86999,-2.32257 1.93627,-4.33574 1.78285,-3.3661 1.84916,-3.99508 0.82484,-7.82489 -0.61262,-2.29052 -1.58202,-4.47132 -2.15421,-4.84621 -0.5722,-0.37491 -3.58655,-0.58048 -6.69853,-0.45685 -5.32708,0.21166 -5.73333,0.37784 -6.94245,2.8401 -0.88739,1.80707 -1.29405,5.5787 -1.31591,12.20466 l -0.0316,9.58937 -2.61528,0.2319 c -1.64008,0.14543 -4.25487,-0.7168 -7.01221,-2.31227 z m 143.44281,-5.63037 c 0,-0.64489 -0.78459,-1.88257 -1.74352,-2.75039 -1.37529,-1.24461 -1.74352,-2.68499 -1.74352,-6.81985 0,-2.88309 -0.48225,-7.82402 -1.07163,-10.97986 l -1.07164,-5.73784 -0.57582,7.40997 c -0.6214,7.99658 -0.13037,16.07817 1.12558,18.52492 0.91934,1.79102 5.08055,2.08019 5.08055,0.35305 z m -108.75218,-3.62216 c -0.32383,-1.29525 -4.80588,-1.05616 -5.2513,0.28015 -0.2785,0.83547 0.41995,1.07495 2.54261,0.87176 1.60964,-0.15408 2.82854,-0.67243 2.70869,-1.15191 z m -59.96061,-0.39214 c 0.51698,-0.8365 -2.84806,-3.12569 -3.5552,-2.41853 -0.20996,0.20994 -0.13439,1.02631 0.16794,1.81414 0.60119,1.56671 2.57485,1.91887 3.38726,0.60439 z m 63.2297,-2.65902 c 0,-0.47946 -0.39229,-0.87176 -0.87175,-0.87176 -0.47948,0 -0.87178,0.3923 -0.87178,0.87176 0,0.47947 0.3923,0.87177 0.87178,0.87177 0.47946,0 0.87175,-0.3923 0.87175,-0.87177 z m -51.53046,-11.47913 c -3.19984,-6.28753 -3.46143,-10.79808 -0.73694,-12.70639 1.98727,-1.39194 2.23596,-2.83908 0.48793,-2.83908 -0.66953,0 -2.43888,1.39127 -3.9319,3.09172 -2.1094,2.40247 -2.5282,3.43995 -1.8786,4.65374 0.4598,0.85913 0.61386,2.41145 0.34239,3.44959 -0.3533,1.35103 0.45634,3.0637 2.84841,6.02533 5.99313,7.42012 7.15277,6.74307 2.86871,-1.67491 z m 88.72177,2.54357 c -0.24182,-0.59932 -0.43971,-0.10896 -0.43971,1.08971 0,1.19868 0.19789,1.68904 0.43971,1.08971 0.24184,-0.59934 0.24184,-1.58007 0,-2.17942 z m -78.50914,-1.28947 c -0.88618,-0.88614 -1.61734,0.44799 -0.89026,1.62442 0.54923,0.88869 0.75457,0.88939 1.04985,0.004 0.20191,-0.6057 0.13009,-1.33827 -0.15959,-1.62795 z m 124.94561,-6.65294 c -0.0337,-1.98462 -0.39841,-4.393 -0.81048,-5.35193 -0.68887,-1.60308 -0.75665,-1.56799 -0.84138,0.43587 -0.0507,1.19868 -0.6528,3.16014 -1.33803,4.3588 -1.34489,2.35267 -1.70308,6.28805 -0.66668,7.32448 1.30629,1.30629 3.71788,-3.15683 3.65657,-6.76722 z M 174.8018,118.05589 c -0.10727,-8.64714 -0.76545,-12.35437 -2.28297,-12.8592 -0.80387,-0.26741 -1.08971,1.27033 -1.08971,5.86249 0,3.42374 -0.44384,8.91258 -0.98632,12.19737 -0.54248,3.28484 -0.68956,7.0872 -0.32685,8.44969 0.65824,2.47258 0.66336,2.46905 2.71863,-1.88157 1.69577,-3.5896 2.04294,-5.66648 1.96722,-11.76878 z m 54.16354,5.57746 c 0,-1.14973 -0.39229,-2.0904 -0.87175,-2.0904 -0.47948,0 -0.87177,0.99302 -0.87177,2.20674 0,1.21373 -0.49036,2.39693 -1.0897,2.62935 -0.59934,0.23243 -1.16531,1.86713 -1.25772,3.63269 l -0.16803,3.2101 2.1295,-3.74903 c 1.17121,-2.06196 2.12947,-4.68972 2.12947,-5.83945 z m 104.4013,7.28102 c 2.5448,-2.71662 3.60474,-5.89374 4.23746,-12.70152 0.77143,-8.30023 -0.8445,-15.25485 -4.46158,-19.201777 -2.59597,-2.832678 -3.1297,-3.060406 -5.36517,-2.289085 -3.90996,1.349105 -5.9062,6.360022 -6.26202,15.718752 -0.35744,9.40109 0.73918,14.09841 4.1417,17.74082 2.9853,3.19575 5.20481,3.40672 7.70961,0.73281 z m -169.37959,-0.97836 c 6.10863,-6.10862 5.0721,-25.38665 -1.60003,-29.75841 -1.21777,-0.797897 -2.62366,-1.197637 -3.1242,-0.888257 -1.00748,0.62264 -1.3199,31.142587 -0.32894,32.133557 1.11836,1.11835 3.00227,0.56402 5.05317,-1.48689 z m 30.0945,-2.50869 c 0.008,-0.3596 -0.5751,-0.65383 -1.29429,-0.65383 -1.33488,0 -1.7861,1.84625 -0.71337,2.91897 0.58537,0.58538 1.98163,-0.98996 2.00766,-2.26514 z m 189.878,-9.58937 c -0.13417,-9.29783 -0.25306,-10.45612 -0.47259,-4.60482 -0.20652,5.50409 -0.69282,8.2592 -1.64316,9.3093 -1.15568,1.27703 -1.1879,1.9393 -0.22404,4.60483 0.61918,1.71231 1.43927,3.11329 1.82242,3.11329 0.38315,0 0.61596,-5.59016 0.51737,-12.4226 z m -161.13903,7.57671 c -1.28532,-1.54872 -2.57279,-0.82764 -2.57279,1.44096 0,1.47057 0.26347,1.58175 1.79982,0.75952 1.43259,-0.7667 1.5903,-1.21566 0.77297,-2.20048 z m 22.70828,0.48709 c 0,-0.47948 -0.76143,-0.87177 -1.69206,-0.87177 -0.93064,0 -1.93454,0.39229 -2.23086,0.87177 -0.30557,0.49442 0.42683,0.87174 1.69208,0.87174 1.22697,0 2.23084,-0.39227 2.23084,-0.87174 z m 53.89057,-5.66645 c 0.93821,-2.05915 0.84973,-2.17941 -1.6036,-2.17941 -2.72399,0 -3.406,1.45716 -1.55048,3.31269 1.50673,1.50673 2.03822,1.31576 3.15408,-1.13328 z m -57.98945,-0.98639 c 0.30277,-0.30277 0.12984,-1.33651 -0.38429,-2.29716 -0.75289,-1.40678 -1.08361,-1.51171 -1.69951,-0.53921 -1.12891,1.78253 -0.95319,3.38688 0.37094,3.38688 0.63929,0 1.41007,-0.24774 1.71286,-0.55051 z m -49.2678,-20.820937 c -0.13565,-0.11876 -1.53611,-0.0196 -3.11217,0.22031 -2.70355,0.41157 -2.79641,0.54173 -1.64275,2.302457 1.43892,2.19606 3.20066,9.87548 3.20066,13.9516 0,1.57463 0.29422,3.15841 0.65382,3.51952 0.35961,0.36111 0.76479,-3.9412 0.90044,-9.56069 0.13564,-5.6195 0.13564,-10.314427 0,-10.433197 z m 12.70634,14.899307 c 1.82142,-2.77984 1.83166,-6.05836 0.0236,-7.55892 -1.21231,-1.00611 -1.6959,-0.83282 -3.48707,1.24952 -1.98951,2.31296 -2.92499,8.15845 -1.52904,9.5544 0.84546,0.84546 3.40045,-0.81524 4.9925,-3.245 z m 7.53343,0.26692 c 0,-0.47947 -0.3923,-0.62933 -0.87176,-0.33299 -0.47948,0.29632 -0.87177,0.93105 -0.87177,1.41053 0,0.47947 0.39229,0.62931 0.87177,0.33299 0.47946,-0.29633 0.87176,-0.93108 0.87176,-1.41053 z m 149.94289,-7.46607 c 0,-0.21533 -0.41197,-1.1613 -0.9155,-2.10214 -1.13867,-2.12762 -2.57154,-1.37026 -2.57154,1.3592 0,1.61715 0.36568,1.95072 1.74351,1.59039 0.95895,-0.25076 1.74353,-0.63212 1.74353,-0.84745 z m -90.28952,-4.85364 c 1.63199,-2.517207 4.20662,-5.908317 5.7214,-7.535796 3.11769,-3.349621 2.30278,-4.856529 -1.84446,-3.410792 -4.63924,1.617242 -11.20935,13.021098 -8.49323,14.741808 0.65532,0.41515 1.29445,0.76084 1.42026,0.76817 0.12583,0.008 1.56404,-2.04619 3.19603,-4.56339 z m 44.52207,-3.058647 c 5.3921,-8.180391 5.80595,-8.928065 4.94182,-8.928065 -1.67929,0 -6.33065,4.587399 -8.03121,7.920775 -1.93492,3.792757 -2.42202,9.481657 -0.56433,6.590877 0.57114,-0.88875 2.21532,-3.40137 3.65372,-5.583587 z m -17.15337,0.37113 c 0.16684,-0.86023 -0.27787,-1.453352 -1.08969,-1.453352 -0.80867,0 -1.37157,0.745362 -1.37157,1.816172 0,2.124527 2.0371,1.824217 2.46126,-0.36282 z m -159.37824,-3.19687 c 0,-0.479466 -0.39229,-0.871762 -0.87175,-0.871762 -0.47947,0 -0.87177,0.392296 -0.87177,0.871762 0,0.479467 0.3923,0.871764 0.87177,0.871764 0.47946,0 0.87175,-0.392297 0.87175,-0.871764 z m 96.75214,-2.833219 c -0.0105,-1.531427 -0.18895,-1.6839 -0.81425,-0.695446 -0.44049,0.696308 -0.60748,1.578966 -0.37109,1.961456 0.75614,1.223457 1.19904,0.750394 1.18534,-1.26601 z m 146.94091,-7.68591 c 1.01615,-1.644148 -0.29932,-1.905135 -2.35285,-0.4668 l -1.99387,1.39656 h 1.88606 c 1.03733,0 2.14462,-0.41839 2.46066,-0.92976 z M 95.920815,82.800786 c -0.24989,-0.651231 0.16095,-3.256045 0.91301,-5.788484 1.07082,-3.605848 1.36737,-9.001951 1.36737,-24.881145 0,-11.712798 -0.34605,-20.490586 -0.81935,-20.783099 -0.45065,-0.278514 -2.11789,0.285307 -3.70498,1.252935 -4.84305,2.95272 -5.16475,2.595218 -4.88236,-5.425599 l 0.2532,-7.191438 4.33657,-2.33926 c 7.814345,-4.215266 17.766175,-4.718608 25.921595,-1.311062 7.01508,2.931098 12.83485,10.623203 15.45749,20.43054 1.26494,4.730233 2.31848,4.709584 3.03363,-0.05946 1.40922,-9.397295 8.91082,-19.508166 15.91726,-21.45375 8.0502,-2.235406 17.1724,0.543421 21.83005,6.649909 1.88419,2.470297 2.49701,2.814993 3.24474,1.825066 1.91499,-2.535338 19.78139,-14.0003917 20.57719,-13.2046 0.493,0.493004 0.13397,2.573296 -0.9252,5.360826 -1.53967,4.052067 -1.73084,6.713634 -1.73084,24.097195 v 19.542003 l 2.18977,1.722469 c 2.42482,1.907372 4.80313,1.663262 6.95433,-0.713799 1.22979,-1.358901 1.37712,-4.074131 1.14618,-21.123574 l -0.26502,-19.564236 -2.39735,-3.140662 c -1.31854,-1.727366 -2.39735,-3.528953 -2.39735,-4.003531 0,-0.474578 1.20706,-2.069922 2.68234,-3.5452097 5.39539,-5.3953817 12.98368,-2.7283589 14.29337,5.0236217 0.33702,1.994812 0.72702,3.62693 0.86666,3.62693 0.13967,0 2.44306,-1.002225 5.1187,-2.227169 2.99396,-1.370686 7.20885,-2.423685 10.96025,-2.738189 5.44645,-0.456611 6.61059,-0.258996 10.93342,1.855971 7.74455,3.789059 11.2264,11.202731 9.20965,19.609518 -1.03013,4.293947 -0.99269,4.473627 1.61842,7.770422 3.4322,4.333513 4.56034,7.234847 5.23237,13.456711 0.29919,2.769924 0.93627,5.026448 1.41575,5.014499 0.9556,-0.02382 1.72132,-26.931569 0.86516,-30.402606 -0.27741,-1.124697 -1.75005,-3.182626 -3.27251,-4.573177 -3.43383,-3.136333 -3.6371,-2.913224 10.18732,-11.182121 6.42694,-3.844196 10.70552,-5.9075357 11.20801,-5.4050507 0.50248,0.502485 0.0417,2.7573137 -1.20691,5.9066697 -1.86522,4.704355 -2.04438,6.644002 -2.34271,25.36237 l -0.32301,20.268447 h 2.45841 c 1.35213,0 4.0317,-0.651124 5.95461,-1.446942 l 3.49621,-1.446944 0.0496,-10.539771 c 0.0792,-16.863957 3.47214,-28.194241 9.69949,-32.39086 2.39967,-1.617137 4.4424,-1.917243 16.09952,-2.365254 7.34313,-0.282213 13.51561,-0.348642 13.71663,-0.147619 0.20102,0.201022 -0.33418,2.950315 -1.18933,6.10954 -1.86927,6.905709 -2.67546,7.357407 -13.13141,7.357407 -6.80812,0 -7.43273,0.151996 -8.7242,2.123056 -0.7651,1.167682 -1.26451,3.227217 -1.1098,4.576746 l 0.28128,2.453689 7.84587,-0.226744 c 10.19103,-0.294518 10.57924,-0.02567 9.283,6.428759 -0.55871,2.782042 -1.35545,5.397877 -1.77056,5.812967 -0.41509,0.41509 -4.23666,1.019869 -8.49239,1.343953 -7.57589,0.576922 -7.74333,0.638158 -8.00794,2.928703 -0.3713,3.214047 2.06341,7.582088 4.80774,8.625486 1.36089,0.517408 5.77041,0.62402 10.97724,0.265406 l 8.70266,-0.599386 -0.52536,2.966247 c -0.28895,1.631435 -0.97403,5.622767 -1.52242,8.869624 -0.76124,4.507189 -1.43899,6.148212 -2.86571,6.938574 -1.14289,0.633132 -5.97886,1.048987 -12.45127,1.070709 l -10.58261,0.03552 -3.5002,-2.807354 -3.5002,-2.807355 -1.45675,2.223282 c -2.52493,3.853529 -5.82585,4.616398 -17.59254,4.065782 -6.80233,-0.318312 -12.53129,-0.116289 -15.98809,0.563797 -4.7532,0.935133 -5.50924,0.892947 -6.42434,-0.358517 -0.84048,-1.149448 -1.49753,-1.24334 -3.46531,-0.495188 -2.96835,1.128561 -30.78283,1.242079 -31.47108,0.128442 -0.27015,-0.437113 0.93376,-3.599643 2.67538,-7.027845 l 3.16657,-6.233094 -0.38802,-16.931469 c -0.21341,-9.312306 -0.67471,-17.218163 -1.02512,-17.56857 -0.35042,-0.350407 -1.3048,-0.21703 -2.12089,0.296393 -1.2889,0.810895 -1.54499,3.211178 -1.9499,18.276148 -0.37885,14.095295 -0.76302,18.034323 -2.05168,21.036539 -4.04026,9.412729 -15.34427,13.254415 -23.82502,8.096962 -5.91905,-3.599587 -8.89842,-10.272865 -8.94218,-20.028991 -0.0252,-5.61832 -0.86958,-5.015653 -2.99242,2.135816 -3.83881,12.93223 -11.09519,19.641852 -21.19224,19.59548 -5.23466,-0.02406 -10.19886,-2.281937 -14.42237,-6.559797 -3.611,-3.657487 -7.12406,-10.372547 -8.06998,-15.425399 -0.56784,-3.033262 -2.1629,-3.82868 -2.1629,-1.078583 0,3.147118 -4.07794,11.559795 -7.30973,15.07977 -4.27393,4.655047 -12.11328,8.605202 -18.3096,9.226002 -13.218525,1.324327 -13.689045,1.32885 -14.146775,0.136005 z M 173.63254,60.410328 c 0.30728,-1.399106 0.28803,-4.146027 -0.0428,-6.104272 l -0.60153,-3.560442 -1.91663,5.540846 c -1.05414,3.047464 -1.74832,6.440053 -1.54263,7.539086 0.35063,1.873471 0.47297,1.908652 1.95943,0.563426 0.872,-0.789148 1.83688,-2.579538 2.14418,-3.978644 z m 97.51995,3.96096 c 0.84636,-2.205596 0.61042,-9.953954 -0.30312,-9.953954 -0.45772,0 -1.06761,1.4711 -1.35527,3.269106 -0.28765,1.798007 -0.93003,4.008189 -1.42748,4.911518 -0.66874,1.21433 -0.59952,1.8357 0.26556,2.383994 1.67954,1.064492 2.22261,0.946905 2.82031,-0.610664 z m -58.65778,-2.11268 c 0.89125,-3.203044 0.86752,-8.094941 -0.0462,-9.539326 -0.61606,-0.9738 -0.92565,-0.675034 -1.35498,1.30764 -0.30607,1.413398 -1.06097,4.228326 -1.67754,6.255397 -0.61658,2.02707 -0.90261,3.904019 -0.63564,4.171 1.07494,1.074943 3.14498,-0.148159 3.71444,-2.194711 z m 113.23611,1.748099 c 0,-0.479469 -0.36914,-0.87176 -0.8203,-0.87176 -0.45118,0 -1.06277,0.392291 -1.3591,0.87176 -0.29633,0.479469 0.0728,0.871761 0.8203,0.871761 0.74751,0 1.3591,-0.392292 1.3591,-0.871761 z M 164.1957,61.173484 c 2.73677,-3.002104 3.95605,-7.985946 3.99518,-16.330517 0.0399,-8.501988 -2.10714,-14.599337 -6.0506,-17.183197 -9.3838,-6.148504 -14.90813,22.603857 -6.23986,32.476476 3.0694,3.495854 5.74857,3.830854 8.29528,1.037238 z M 116.86945,60.6021 c 3.50175,-3.869385 5.13259,-16.446861 3.08741,-23.810854 -1.02798,-3.701409 -4.75014,-8.526743 -6.57735,-8.526743 -1.01326,0 -1.23014,2.754115 -1.23014,15.6204 0,8.59122 0.23812,16.240923 0.52915,16.999342 0.71009,1.850492 2.36154,1.739311 4.19093,-0.282145 z m 128.26311,-1.350453 c 1.17686,-1.176878 2.13976,-2.960025 2.13976,-3.962552 0,-2.738382 -3.82265,-6.102326 -6.93446,-6.102326 h -2.65491 v 5.521153 c 0,3.036635 0.26153,5.782683 0.58118,6.102328 1.27453,1.274524 4.84567,0.464151 6.86843,-1.558603 z M 126.89707,55.246188 c 1.18363,-5.519061 1.21933,-11.888688 0.0707,-12.598634 -1.13748,-0.703003 -2.13791,2.080041 -3.41807,9.508516 -0.8408,4.878891 -0.82158,6.157427 0.10138,6.742798 1.95216,1.238112 2.27514,0.874662 3.24609,-3.65268 z M 250.2799,42.27437 c -1.23494,-1.207957 -5.62285,-2.123526 -5.62285,-1.173249 0,1.421972 1.07742,1.983321 3.80669,1.983321 1.64163,0 2.3303,-0.307172 1.81616,-0.810072 z M 182.10643,29.350836 c -2.87406,-5.538181 -3.51406,-3.982885 -1.17281,2.850069 2.13653,6.235441 2.27973,6.430564 2.53823,3.458568 0.1626,-1.869538 -0.39236,-4.433607 -1.36542,-6.308637 z m 67.78118,2.423398 c 0,-1.372453 -0.24122,-3.123958 -0.53603,-3.892231 -0.46863,-1.221276 -0.72871,-1.17469 -2.06896,0.370615 -1.67852,1.935355 -3.01512,8.265712 -2.06857,9.797225 0.95224,1.540767 4.67356,-3.456179 4.67356,-6.275609 z M 151.31877,20.543995 c -1.39131,-0.46377 -6.06537,4.220992 -7.45748,7.474569 -0.66015,1.542871 -1.20029,3.888049 -1.20029,5.211502 0,2.024693 0.76195,1.234771 4.80488,-4.98123 2.64268,-4.06313 4.37648,-7.530308 3.85289,-7.704841 z m 90.72299,10.479472 c 0,-2.577476 -1.37905,-4.502486 -3.22551,-4.502486 -1.17278,0 -1.67689,7.011655 -0.5828,8.105764 1.20067,1.200665 3.80831,-1.26659 3.80831,-3.603278 z m -18.5387,-7.145382 1.92154,-2.207014 -2.17663,0.09529 c -2.91692,0.127692 -4.17629,1.550793 -3.43612,3.882866 0.335,1.055466 0.87021,1.585322 1.18937,1.177455 0.31915,-0.407866 1.44498,-1.73473 2.50184,-2.948589 z m 77.70722,-1.287269 c 0.99246,-1.682123 2.79654,-3.510407 4.00902,-4.062856 2.75843,-1.256819 2.84534,-2.468113 0.17709,-2.468113 -2.07776,0 -4.83947,2.445226 -6.58122,5.827077 -2.34136,4.546051 -0.23676,5.164568 2.39511,0.703892 z m -109.54164,-1.771273 2.36844,-3.902804 -2.80432,1.417049 c -1.54235,0.779377 -3.706,2.242009 -4.80805,3.250294 -1.85426,1.696461 -1.88678,1.879415 -0.4359,2.452041 2.72702,1.076263 3.25677,0.776246 5.67983,-3.21658 z m 81.75652,-1.00339 c 0,-1.657732 -2.71173,-1.363045 -5.22488,0.567797 -2.23179,1.714674 -2.25124,1.682047 1.73784,2.916517 1.41316,0.437325 3.48704,-1.634926 3.48704,-3.484314 z"
     style="fill:#ff7f2a;stroke-width:0.87176108" />
  <path
     inkscape:connector-curvature="0"
     id="path534"
     d="m 221.06465,157.15114 c -4.98727,-2.89914 -14.68248,-12.64194 -18.29617,-18.38597 -2.39729,-3.81055 -2.46532,-3.84803 -3.23044,-1.77972 -0.42987,1.16203 -0.6989,4.40377 -0.59787,7.20384 0.2088,5.78597 -0.36725,6.63009 -6.00746,8.80301 -5.43069,2.09221 -6.30138,1.89917 -6.3102,-1.39905 -0.006,-1.55829 -0.25495,-4.89277 -0.5573,-7.40998 -0.44255,-3.6844 -0.866,-4.57675 -2.17184,-4.57675 -1.13859,0 -1.62208,-0.63427 -1.62208,-2.12795 0,-3.51143 -1.39844,-3.28067 -3.10918,0.51308 -1.91869,4.25489 -7.74228,10.45971 -11.77371,12.54445 -3.116,1.61136 -25.80617,5.91211 -27.07012,5.13096 -1.20734,-0.74619 -0.90948,-2.36824 1.19818,-6.52536 1.84664,-3.64225 1.97751,-5.10625 2.23554,-25.00892 0.29916,-23.07536 0.49718,-22.2189 -4.68216,-20.24971 -3.56586,1.35573 -4.74541,-0.18731 -4.74541,-6.207717 0,-6.024526 0.63739,-6.631617 10.63711,-10.131516 8.45706,-2.959974 17.10412,-3.157064 22.11338,-0.504032 9.55627,5.061229 16.06813,18.313155 16.06813,32.699375 0,5.59793 0.91559,7.59062 2.08612,4.54023 0.29105,-0.75841 0.52916,-4.89697 0.52916,-9.19679 0,-8.1588 -1.17781,-12.06541 -4.14086,-13.73458 -1.44258,-0.81264 -1.43344,-1.03156 0.16815,-4.023567 5.13176,-9.586972 18.808,-14.672437 29.5465,-10.986738 4.27966,1.468884 9.22502,5.809333 10.73415,9.421172 3.17513,7.599193 0.33933,19.463133 -6.22014,26.022583 -2.39357,2.39356 -3.00278,3.5881 -2.56695,5.0332 0.99138,3.28718 2.00855,3.60391 3.04125,0.94707 0.54285,-1.39661 1.32814,-3.411 1.74509,-4.47641 0.41693,-1.06542 1.6546,-2.17123 2.75036,-2.45738 1.48673,-0.38823 3.14167,-2.8816 6.52177,-9.82576 4.50751,-9.26032 4.52128,-9.31429 2.83325,-11.111107 -0.93296,-0.99309 -1.69627,-2.28806 -1.69627,-2.87773 0,-1.704671 6.31595,-12.223235 7.64599,-12.733617 1.9811,-0.760212 10.89248,8.540255 14.7647,15.409367 1.9702,3.495027 4.66514,9.180927 5.98877,12.635337 2.56237,6.68731 3.84232,7.40286 3.877,2.16749 0.0747,-11.28292 7.41329,-24.107933 16.10626,-28.147623 3.88808,-1.806821 11.20424,-2.161673 14.97898,-0.726518 1.34857,0.512717 4.41437,2.443746 6.8129,4.29117 2.39853,1.847409 5.43977,3.628049 6.75829,3.956964 1.31855,0.328907 2.39735,1.055675 2.39735,1.615031 0,1.489922 -12.45623,13.616516 -13.96868,13.599046 -0.72281,-0.008 -2.21074,-2.14771 -3.39376,-4.87952 -2.51454,-5.806627 -4.8989,-7.314893 -8.17271,-5.169807 -4.86186,3.185597 -7.25467,16.113017 -4.6444,25.091957 1.57518,5.41844 5.5895,9.65587 8.72369,9.20849 1.54498,-0.22054 1.8851,-0.95599 2.11378,-4.57086 0.16001,-2.52941 -0.3164,-5.85011 -1.15393,-8.04313 -0.78453,-2.0543 -1.17825,-4.1367 -0.8749,-4.62752 0.73448,-1.18841 14.03468,-1.14756 16.27231,0.05 0.96849,0.51832 1.92021,0.78306 2.11496,0.58833 0.19473,-0.19475 0.90516,-3.51082 1.57872,-7.36907 2.83311,-16.228378 10.45216,-24.634965 22.32719,-24.634965 8.83195,0 15.25852,4.6597 19.78536,14.345758 l 2.44454,5.230577 0.43588,-12.569772 c 0.28604,-8.248421 0.77602,-12.682494 1.42527,-12.897675 0.54417,-0.180364 2.56445,2.533835 4.48952,6.031553 3.15301,5.72877 14.0617,17.948354 16.86311,18.889524 0.67067,0.22534 0.86136,-1.57131 0.62005,-5.841937 -0.27487,-4.864654 -0.75727,-6.602465 -2.28384,-8.227436 -1.06445,-1.133048 -1.93537,-2.300796 -1.93537,-2.594979 0,-1.194995 19.45307,-11.195917 20.2423,-10.406666 0.51211,0.512116 0.29287,2.372508 -0.58398,4.955197 -1.13364,3.339045 -1.5056,9.863162 -1.93196,33.885091 -0.33155,18.68096 -0.869,30.18061 -1.44451,30.90757 -0.50408,0.63674 -2.74809,2.08585 -4.98667,3.22021 -4.87338,2.46954 -6.06461,1.77767 -6.06461,-3.52228 0,-5.2911 -2.27927,-12.04973 -5.47085,-16.22248 -4.68516,-6.12551 -4.99028,-5.72208 -4.99028,6.59817 0,10.92184 0.0138,10.99646 2.1794,11.81984 2.62023,0.9962 2.71571,2.16092 0.47797,5.83089 -3.2475,5.32603 -11.74535,5.45551 -14.45263,0.22021 -0.70463,-1.36261 -1.31995,-4.94879 -1.36737,-7.96927 -0.0474,-3.02049 -0.34163,-7.6494 -0.65382,-10.28649 l -0.56761,-4.79469 -2.03288,4.93918 c -5.60663,13.62195 -17.0101,18.92972 -28.15775,13.10613 -5.09683,-2.66262 -10.53756,-8.9643 -12.19294,-14.12237 -1.53184,-4.77308 -2.32355,-4.90384 -2.985,-0.493 -0.40737,2.71648 -0.1389,6.02291 0.80486,9.91248 0.77885,3.20998 1.41507,6.04194 1.41382,6.29323 -7.8e-4,0.25131 -6.57318,0.44285 -14.60427,0.42569 -12.24571,-0.0262 -15.05807,-0.2788 -17.42827,-1.56541 -2.81475,-1.52792 -2.82542,-1.52608 -2.61528,0.44609 0.21074,1.97794 0.19448,1.98054 -13.95514,2.21979 -7.79136,0.13176 -14.16719,-0.0645 -14.16853,-0.43587 -0.002,-0.37149 0.86998,-2.32258 1.93627,-4.33575 1.78286,-3.3661 1.84916,-3.99507 0.82485,-7.82489 -0.61263,-2.29052 -1.58202,-4.47132 -2.15422,-4.84622 -0.5722,-0.37491 -3.58654,-0.58048 -6.69852,-0.45684 -5.32709,0.21166 -5.73333,0.37785 -6.94246,2.8401 -0.88738,1.80708 -1.29405,5.5787 -1.31591,12.20466 l -0.0316,9.58936 -2.61529,0.23191 c -1.64101,0.14551 -4.23905,-0.71201 -6.97408,-2.3019 z m 6.66854,-6.83867 c -0.4125,-8.4553 0.5701,-14.89342 2.5798,-16.90312 2.33354,-2.33354 15.50471,-2.42587 17.56006,-0.12309 2.06972,2.31891 3.48776,8.78594 2.85366,13.01444 l -0.5649,3.76697 h 8.28371 c 4.55603,0 8.48995,-0.33376 8.74205,-0.74165 0.2521,-0.40793 -0.51627,-2.06272 -1.7075,-3.67735 -1.19124,-1.61462 -2.74657,-4.90958 -3.45631,-7.32213 -5.51685,-18.75302 -8.05938,-26.22831 -10.98014,-32.28282 -3.63667,-7.538497 -11.40974,-17.871095 -13.44416,-17.871095 -1.36618,0 -5.6378,6.180858 -5.6378,8.157662 0,0.670019 0.58844,1.706586 1.30764,2.303466 0.71921,0.59689 1.30765,1.628557 1.30765,2.292587 0,0.66404 -2.19667,5.74202 -4.88148,11.28438 -3.46971,7.16269 -5.50339,10.36042 -7.03185,11.05684 -1.18271,0.53887 -2.72002,2.34311 -3.41625,4.00942 -1.18488,2.83581 -1.14427,3.15909 0.63502,5.05304 1.73801,1.85001 1.80988,2.32708 0.83893,5.56779 -1.22751,4.09706 -3.14498,5.25161 -4.8498,2.92014 -1.32892,-1.81744 -5.72986,-14.0705 -5.71406,-15.90913 0.006,-0.65199 1.89336,-3.24591 4.19502,-5.76429 4.67694,-5.11735 6.27629,-9.28167 6.27629,-16.34214 0,-5.944461 -2.36827,-9.811354 -7.8686,-12.847784 -7.93542,-4.3807 -20.45439,-1.912091 -26.45241,5.216132 -2.78281,3.307185 -2.79088,3.467515 -0.33149,6.589832 1.7421,2.21169 1.99333,3.66541 2.24633,12.9983 0.2637,9.72701 0.15031,10.62989 -1.52558,12.14654 -2.47786,2.24243 -2.58426,8.85098 -0.15493,9.62202 1.3686,0.43438 1.76203,1.7287 2.27014,7.46872 0.33804,3.8188 0.90753,6.94327 1.26554,6.94327 0.35803,0 1.86186,-0.42212 3.34187,-0.93806 2.43038,-0.84723 2.73915,-1.37479 3.18908,-5.4485 0.27399,-2.48074 0.5927,-6.47192 0.70827,-8.86925 0.3127,-6.48702 2.5541,-5.98998 7.8624,1.74351 5.14024,7.48866 10.15432,12.74955 15.88526,16.66715 6.26515,4.28277 7.04054,3.84305 6.66854,-3.7818 z m 7.12628,-28.66232 c -0.88255,-2.2999 2.55364,-9.50411 4.5332,-9.50411 1.98418,0 4.6675,4.82005 4.73177,8.49967 0.0403,2.30319 -0.1304,2.39735 -4.34428,2.39735 -3.21398,0 -4.52902,-0.37226 -4.92069,-1.39291 z m 6.69156,-1.71555 c 0,-0.27126 -0.43446,-1.30499 -0.96546,-2.29718 -0.77437,-1.44694 -1.11681,-1.56501 -1.73017,-0.59652 -1.27473,2.0128 -0.88843,3.38687 0.9521,3.38687 0.95895,0 1.74353,-0.22192 1.74353,-0.49317 z m -44.75039,0.78377 c -0.31965,-0.31965 -0.58119,-3.29202 -0.58119,-6.60526 0,-5.49587 0.22346,-6.24755 2.54823,-8.57232 6.16531,-6.165307 12.58677,0.58931 8.3497,8.7829 -2.27071,4.39108 -8.47483,8.2366 -10.31674,6.39468 z m 6.75129,-5.58805 c 2.70003,-3.20878 3.10002,-8.14065 0.73387,-9.04863 -2.3426,-0.89893 -5.45106,3.2498 -5.45106,7.27533 0,5.27636 1.34433,5.78173 4.71719,1.7733 z m 160.08893,39.70964 c 3.01071,-1.55689 3.24381,-3.02233 0.82848,-5.20817 -1.59923,-1.44729 -1.74353,-2.685 -1.74353,-14.95506 0,-12.41931 0.11513,-13.37717 1.60771,-13.37717 2.25813,0 8.59275,6.60205 11.16943,11.64099 1.18997,2.32707 2.51684,6.4016 2.9486,9.0545 0.43177,2.6529 0.94235,4.98077 1.13461,5.17303 0.19226,0.19226 1.33333,-0.0986 2.53569,-0.64649 2.96329,-1.35016 3.26356,-4.15365 3.29829,-30.79222 0.0156,-12.03967 0.38135,-24.630272 0.8126,-27.979141 0.43124,-3.34886 0.61651,-6.256394 0.41172,-6.461187 -0.43341,-0.433409 -9.00889,4.017935 -10.64189,5.523958 -0.89235,0.82297 -0.84334,1.550326 0.25254,3.747036 1.73027,3.468412 2.1954,16.215354 0.64857,17.773924 -0.85868,0.8652 -2.54219,-0.32129 -8.27598,-5.83261 -3.95892,-3.805317 -8.57365,-8.646796 -10.25494,-10.758852 l -3.0569,-3.840094 -0.44724,16.044746 c -0.43997,15.78388 -0.44987,18.42877 -0.14253,38.09633 0.1436,9.18908 0.29684,9.98991 2.29366,11.98673 2.50473,2.50473 3.18298,2.58767 6.62111,0.80975 z m -207.95828,-3.9886 c 7.9745,-1.18714 12.09434,-2.98692 16.17241,-7.06498 8.62902,-8.62902 10.9535,-28.80661 4.85015,-42.10145 -5.84023,-12.721677 -15.4964,-16.520439 -30.17606,-11.871305 -7.77966,2.463866 -9.58937,3.881246 -9.58937,7.510468 0,3.717567 1.01324,4.347367 4.27799,2.6591 4.67276,-2.41637 5.29876,-1.37823 5.41919,8.987027 0.28321,24.37665 -0.0636,33.77898 -1.38425,37.52199 -1.94797,5.52109 -1.78636,6.41625 1.0585,5.86331 1.31855,-0.25624 5.53568,-0.93314 9.37144,-1.50416 z m 0.51627,-16.3252 c -1.24737,-2.3307 -1.2908,-34.50251 -0.0497,-36.821477 2.14145,-4.001324 8.70268,-0.27967 11.92825,6.765947 2.58277,5.64147 3.11173,14.6146 1.24032,21.03982 -2.16929,7.44794 -10.78798,13.37099 -13.11885,9.01571 z m 7.65256,-4.12759 c 2.93233,-3.72787 3.82819,-7.91374 3.43844,-16.06586 -0.38881,-8.13226 -1.54853,-11.00737 -5.47874,-13.58256 -1.1709,-0.767197 -2.53847,-1.141817 -3.03903,-0.832447 -0.57905,0.357877 -0.9101,6.410077 -0.9101,16.638607 v 16.07613 h 2.11614 c 1.23262,0 2.84974,-0.93265 3.87329,-2.23387 z m 134.34677,17.92556 h 4.95021 l -0.39075,-14.16611 c -0.21491,-7.79136 -0.78441,-14.65649 -1.26553,-15.25582 -0.52015,-0.64791 -2.94263,-1.0897 -5.97527,-1.0897 h -5.10047 l 0.54939,8.36362 c 0.60625,9.22946 0.29729,9.90817 -4.51902,9.92675 -8.42704,0.0326 -14.58812,-12.38718 -12.71306,-25.62743 1.83341,-12.946257 9.39051,-19.255716 15.75736,-13.155877 1.37249,1.31492 2.96384,3.521567 3.53631,4.903647 0.57249,1.38208 1.50003,2.51287 2.06124,2.51287 0.56121,0 2.69157,-1.70282 4.73415,-3.78405 l 3.71375,-3.784047 -4.62708,-3.493485 c -6.64363,-5.015987 -9.66787,-6.373629 -14.19764,-6.373629 -7.79127,0 -15.24993,6.182372 -18.84758,15.622511 -2.36021,6.1931 -3.18091,18.92511 -1.64109,25.45925 2.11812,8.98819 6.82896,15.76533 13.50601,19.43008 2.02937,1.11385 4.06072,1.33193 9.06708,0.97343 3.5485,-0.2541 8.6794,-0.46201 11.40199,-0.46201 z m 37.07465,-0.75405 c 13.89847,-6.31394 19.03984,-32.29255 9.74858,-49.258237 -3.80555,-6.948896 -8.39645,-10.282762 -14.90284,-10.822327 -12.89878,-1.069659 -21.61768,11.035047 -21.66193,30.073924 -0.0245,10.53361 2.47179,18.65078 7.48833,24.34986 6.0149,6.8333 12.53654,8.74201 19.32786,5.65678 z m -11.80675,-14.86449 c -3.79062,-3.9848 -5.45648,-9.5962 -5.45648,-18.38014 0,-11.60169 4.29265,-20.922255 9.63586,-20.922255 6.12442,0 11.43983,8.286105 12.17025,18.972035 0.65002,9.50948 -0.87746,16.07695 -4.73138,20.34277 -4.1821,4.62911 -7.20595,4.62588 -11.61825,-0.0125 z m 9.90056,-1.79122 c 5.72658,-6.80567 5.23136,-25.65903 -0.83327,-31.723687 -6.21381,-6.21381 -11.54404,0.73529 -11.60896,15.134767 -0.0408,9.06759 1.10408,13.48598 4.3308,16.71271 3.15308,3.15306 5.38277,3.11903 8.11143,-0.12379 z m -115.26267,4.07513 c -1.11889,-1.1189 -2.25354,-0.25411 -1.42518,1.0862 0.32087,0.5192 0.98277,0.69716 1.47088,0.39549 0.59542,-0.368 0.5804,-0.85561 -0.0457,-1.48169 z M 95.379885,83.298312 c -0.25259,-0.658213 0.16847,-3.038992 0.93567,-5.29061 1.12472,-3.300879 1.39492,-8.10637 1.39492,-24.809365 0,-13.117341 -0.32559,-20.916743 -0.88766,-21.264126 -0.48822,-0.301734 -2.20176,0.263553 -3.8079,1.256193 -4.715,2.914036 -4.99221,2.597028 -4.71114,-5.387233 l 0.25321,-7.192029 5.23056,-2.615283 c 6.584645,-3.292323 16.190245,-4.039126 22.973465,-1.786107 8.24701,2.739214 14.65109,10.485876 17.51162,21.182792 0.54492,2.037741 1.3234,3.704983 1.72994,3.704983 0.40654,0 1.00079,-1.744519 1.32052,-3.876708 1.41725,-9.450885 9.16928,-19.514678 16.56969,-21.510984 7.50001,-2.023173 16.88649,1.11841 21.3149,7.13392 1.74685,2.372916 2.24767,2.629714 3.05116,1.564509 1.9402,-2.572141 19.81062,-14.064605 20.61666,-13.258559 0.493,0.493004 0.12767,2.589875 -0.94144,5.40355 -1.59097,4.18711 -1.72614,6.356891 -1.51289,24.285057 l 0.23418,19.687144 2.39733,1.789141 2.39734,1.789143 2.39734,-1.788982 2.39735,-1.788982 0.25506,-17.777914 c 0.29186,-20.343341 0.0556,-22.423458 -2.9539,-25.99997 -1.87979,-2.234008 -2.0473,-2.892388 -1.17093,-4.602408 1.65137,-3.2222087 4.5086,-5.0065046 8.05026,-5.0272533 4.26567,-0.024994 7.1726,2.7860916 8.01066,7.7465563 0.50605,2.995275 0.89282,3.567275 2.06172,3.049188 14.74262,-6.534226 24.51734,-6.010831 31.2648,1.674103 4.07868,4.645364 5.11939,8.892194 3.75482,15.322334 l -1.10764,5.219509 3.02013,3.528362 c 3.47566,4.060509 5.04362,8.53546 5.04362,14.394433 0,2.902043 0.32069,4.005689 1.08969,3.749894 0.80629,-0.268201 1.15143,-4.465806 1.32708,-16.13939 l 0.23736,-15.776916 -3.23125,-3.13815 c -3.94328,-3.829669 -4.32745,-3.363315 9.66472,-11.732556 6.72923,-4.025005 10.69406,-5.9190187 11.24247,-5.3705987 0.54842,0.5484217 0.11901,2.4777687 -1.21762,5.4707887 -1.94701,4.359789 -2.08322,5.804902 -2.38728,25.327919 l -0.32246,20.704324 2.47771,-0.01312 c 1.36276,-0.0072 3.99724,-0.542116 5.85443,-1.188661 l 3.37669,-1.175535 0.21507,-11.233934 c 0.33926,-17.723707 4.18408,-29.603168 10.63499,-32.85931 3.33073,-1.681206 29.04121,-2.765222 29.0239,-1.223719 -0.007,0.580288 -0.71248,3.39573 -1.56882,6.256542 -1.82671,6.102475 -2.32541,6.351051 -13.00123,6.480402 -6.58994,0.07984 -7.28482,0.259179 -8.56302,2.209953 -0.7651,1.167681 -1.26449,3.227216 -1.1098,4.576745 l 0.28129,2.453693 h 8.42207 c 4.63216,0 8.7088,0.284504 9.05924,0.632231 0.88334,0.876449 -1.4062,11.214681 -2.57943,11.647353 -0.52454,0.193439 -4.28819,0.648035 -8.36368,1.010211 l -7.40997,0.658501 0.0793,3.760022 c 0.0558,2.640711 0.65006,4.327523 1.99655,5.666388 1.76697,1.756965 2.66242,1.890047 11.42606,1.698123 5.22987,-0.114535 9.71586,0.126726 9.96889,0.536133 0.25303,0.40941 -0.18803,4.351218 -0.98013,8.759572 -1.08955,6.06375 -1.84731,8.233074 -3.11232,8.910084 -2.13913,1.144834 -16.85006,2.040117 -20.9338,1.274002 -1.71289,-0.321345 -4.35276,-1.74111 -5.86637,-3.15504 l -2.75204,-2.570788 -2.86185,3.034447 c -1.57402,1.668954 -3.60013,3.070127 -4.50245,3.113732 -0.90232,0.04358 -8.11341,0.176137 -16.02465,0.294537 -7.91122,0.118393 -15.26672,0.520771 -16.3455,0.89416 -1.54079,0.533294 -1.96147,0.354838 -1.96147,-0.832046 0,-1.231531 -0.44334,-1.385536 -2.39734,-0.83278 -3.42205,0.968026 -31.7213,1.497359 -32.60872,0.609935 -0.40724,-0.407233 0.65417,-3.465886 2.35869,-6.797018 l 3.09907,-6.056599 -0.26373,-17.144947 c -0.14507,-9.429722 -0.57678,-17.457843 -0.95938,-17.840268 -0.38259,-0.382428 -1.36333,-0.275247 -2.1794,0.238175 -1.28956,0.811309 -1.54333,3.203515 -1.9389,18.276148 -0.36789,14.019119 -0.75176,18.008628 -2.00306,20.817801 -3.14353,7.057219 -8.01519,10.318734 -15.41292,10.318734 -10.43527,0 -16.33365,-6.728069 -17.21871,-19.640781 -0.2596,-3.787749 -0.72126,-6.571632 -1.02586,-6.186406 -0.3046,0.385226 -1.47064,3.501456 -2.59118,6.924953 -1.12055,3.423499 -3.4618,8.102508 -5.2028,10.397797 -11.63102,15.334115 -32.43434,8.203152 -37.65238,-12.906526 -0.92406,-3.738241 -2.5629,-4.987435 -2.5629,-1.953545 0,3.139873 -4.07302,11.552931 -7.27472,15.026374 -5.85649,6.353547 -13.33462,9.240027 -26.13406,10.087481 -4.516255,0.299027 -6.058855,0.105725 -6.407525,-0.802916 z M 116.37212,78.54642 c 6.68862,-2.512475 11.89613,-7.68069 14.35147,-14.243192 1.49797,-4.003694 1.85241,-6.855257 1.8319,-14.738734 -0.0224,-8.643356 -0.30628,-10.467254 -2.45224,-15.759421 -3.10286,-7.65198 -8.13796,-12.9619 -14.20046,-14.975535 -6.23459,-2.070803 -15.70077,-1.420144 -20.890945,1.435943 -3.60958,1.986303 -3.8555,2.360218 -4.10529,6.241892 -0.14614,2.270961 -0.0613,4.12902 0.18836,4.12902 0.24974,0 1.82156,-0.65211 3.49294,-1.449135 2.53841,-1.210481 3.26749,-1.259394 4.4271,-0.297008 1.221475,1.013737 1.351725,3.988877 1.084415,24.768743 -0.167095,12.989141 -0.638595,24.560572 -1.047765,25.714296 l -0.74396,2.097666 6.457545,-0.495127 c 3.55166,-0.272323 8.77479,-1.365561 11.60693,-2.429408 z M 109.9458,64.692386 c -0.54217,-1.01304 -0.90244,-9.202557 -0.90244,-20.513745 0,-16.409479 0.17813,-18.895885 1.38688,-19.359729 2.67321,-1.025811 6.84524,1.950407 9.53061,6.798909 2.43737,4.400764 2.59481,5.266837 2.59481,14.274391 0,8.240852 -0.27241,10.098803 -1.93714,13.211953 -3.41139,6.379515 -8.75253,9.176132 -10.67272,5.588221 z m 6.43293,-3.461919 c 3.50174,-3.869382 5.13258,-16.446859 3.08739,-23.810852 -1.02796,-3.70141 -4.75012,-8.526744 -6.57733,-8.526744 -1.01547,0 -1.23015,2.865093 -1.23015,16.418167 0,9.029993 0.26153,16.679695 0.58118,16.99934 1.0309,1.030902 2.5989,0.621786 4.13891,-1.079911 z M 208.86,77.698512 c 5.64881,-3.477723 6.01306,-5.092012 6.68504,-29.626897 0.69076,-25.219957 0.25806,-34.584726 -1.70181,-36.831904 -1.75707,-2.0146537 -5.64328,-1.9425847 -7.52762,0.139598 -1.43668,1.587505 -1.39594,1.832955 0.87323,5.261894 l 2.38019,3.596718 -0.18602,19.801236 c -0.19962,21.246369 -0.37879,22.161459 -4.9214,25.137897 -3.07017,2.011648 -7.19152,0.703076 -9.75196,-3.096339 -1.89274,-2.808652 -1.97702,-3.68297 -1.97236,-20.458287 0.003,-9.728856 0.41873,-19.014817 0.93529,-20.875092 0.51176,-1.842968 0.73593,-3.545361 0.4982,-3.783092 -0.46544,-0.465454 -10.60229,6.176172 -11.40245,7.470844 -0.26554,0.429684 0.37183,2.68727 1.41643,5.016857 1.66589,3.715129 1.96814,6.3781 2.45976,21.670834 0.49264,15.324162 0.78185,17.864495 2.38873,20.980585 2.18873,4.244483 3.50949,5.425969 7.83177,7.005846 3.82595,1.398452 8.28367,0.874192 11.99498,-1.410698 z m -43.42686,0.831275 c 9.64598,-3.63668 16.49635,-20.435794 14.49984,-35.557892 -2.2806,-17.273783 -12.17706,-27.377977 -24.12392,-24.630282 -5.67355,1.304879 -8.82373,3.713394 -11.90814,9.104563 -7.32488,12.802961 -6.54883,32.98795 1.68565,43.84356 5.21329,6.872753 13.14553,9.766444 19.84657,7.240051 z m -11.31897,-15.08536 c -3.78311,-3.783097 -5.41011,-9.477103 -5.38903,-18.859854 0.0203,-9.025786 2.04143,-15.572839 5.77819,-18.717129 3.6829,-3.09895 5.72781,-2.773911 9.89229,1.572358 4.47599,4.67142 6.12187,9.916411 6.06394,19.324172 -0.0516,8.376058 -1.43237,12.986234 -5.02615,16.781401 -3.69462,3.901661 -7.34923,3.869067 -11.31924,-0.100946 z m 10.15573,-2.300539 c 3.96429,-4.7113 4.88558,-19.865377 1.65211,-27.175194 -3.65356,-8.259458 -9.14459,-8.663146 -12.65529,-0.930392 -1.4653,3.227509 -1.88505,5.860122 -1.91043,11.98215 -0.0364,8.775624 1.15566,13.155071 4.48751,16.486936 2.98422,2.984206 5.70807,2.866699 8.4261,-0.3635 z m 84.72769,16.31877 c 7.57095,-4.503174 9.74917,-7.665218 10.54851,-15.312884 0.77935,-7.456344 -0.84907,-13.170905 -5.14342,-18.049516 -3.36393,-3.821639 -3.49935,-4.187463 -2.53621,-6.850972 2.857,-7.900932 0.0668,-16.110692 -6.55722,-19.292515 -6.79735,-3.265166 -20.5369,-1.098241 -25.11552,3.961079 -1.83856,2.031595 -1.4974,7.57463 0.43504,7.068236 3.89421,-1.020473 4.72927,-0.560362 5.3684,2.957949 0.3484,1.917874 0.65604,10.654177 0.68368,19.414006 0.047,14.88928 -0.0869,16.264401 -2.05426,21.106161 l -2.10449,5.179202 7.11713,0.292484 c 15.01735,0.617147 17.63268,0.553212 19.35836,-0.47323 z M 235.62306,63.588963 c -1.0905,-1.090494 -1.48947,-13.347624 -0.51696,-15.881929 0.78523,-2.046268 5.6851,-1.716871 9.14925,0.615065 5.8247,3.920982 6.475,9.943612 1.52352,14.110008 -2.85193,2.399742 -8.29312,3.019549 -10.15581,1.156856 z m 9.01876,-3.708949 c 1.17688,-1.176876 2.13978,-2.960023 2.13978,-3.96255 0,-2.738383 -3.82266,-6.102326 -6.93447,-6.102326 h -2.65489 v 5.521153 c 0,3.036635 0.26152,5.782682 0.58117,6.102327 1.27452,1.274524 4.84565,0.46415 6.86841,-1.558604 z m -10.0342,-23.083982 c -0.99337,-1.856121 -1.17602,-7.22919 -0.35047,-10.310038 0.62991,-2.350808 3.80356,-3.353342 6.33191,-2.000212 2.56429,1.372369 4.59917,5.684709 3.93366,8.33628 -1.17871,4.696395 -8.05377,7.451912 -9.9151,3.97397 z m 6.94341,-5.144197 c 0,-2.577474 -1.37904,-4.502484 -3.22551,-4.502484 -1.17278,0 -1.67689,7.011655 -0.5828,8.105764 1.20068,1.200664 3.80831,-1.266591 3.80831,-3.60328 z m 27.0246,45.71042 c 2.63707,-0.01376 8.30274,0.106861 12.5904,0.267984 7.27583,0.273409 7.90461,0.158418 9.42918,-1.72434 1.00931,-1.246452 1.43191,-2.702607 1.10592,-3.810826 -0.29016,-0.986453 -0.76289,-3.166572 -1.05049,-4.844714 -0.72665,-4.239891 -1.79215,-5.416263 -3.88924,-4.293934 -0.92492,0.495 -3.5317,0.780974 -5.79286,0.635503 l -4.11119,-0.264493 -0.2617,-18.742862 c -0.15866,-11.363653 0.1226,-20.749741 0.71436,-23.840242 0.53684,-2.803555 0.78272,-5.290741 0.54638,-5.527077 -0.45917,-0.459169 -12.51915,6.465685 -13.21162,7.586129 -0.22679,0.366966 0.60051,2.479423 1.83844,4.694348 2.16839,3.879649 2.24345,4.497761 2.04976,16.877258 -0.27225,17.400499 -0.45482,18.354523 -3.90135,20.38803 -2.89329,1.70709 -6.51712,8.378866 -6.51712,11.998584 0,1.543044 0.37448,1.701899 2.83322,1.201836 1.55827,-0.316922 4.99083,-0.58746 7.62791,-0.601184 z m 53.80976,-1.053526 c 2.02867,-0.557234 3.04694,-3.706586 3.21041,-9.929397 l 0.0802,-3.051897 -7.01634,0.303048 c -11.18152,0.482952 -15.20199,-2.161543 -16.55721,-10.89061 -0.82531,-5.315882 0.49657,-6.290767 9.44723,-6.967306 8.19909,-0.619735 9.77013,-1.610949 9.16842,-5.78464 -0.25905,-1.796934 -0.64715,-1.878319 -7.76889,-1.629134 -10.00945,0.350222 -11.6479,-1.115788 -9.52394,-8.521567 0.46802,-1.631884 1.71328,-3.884977 2.76724,-5.006872 1.75519,-1.868298 2.63158,-2.03981 10.42321,-2.03981 9.22263,0 8.38206,0.440077 9.99078,-5.230566 0.47712,-1.681804 0.0783,-1.743522 -11.26583,-1.743522 h -11.76046 l -2.62235,2.622351 c -4.84182,4.841811 -6.48419,10.978052 -6.90654,25.804217 -0.32672,11.468341 -0.13087,14.116343 1.5151,20.486384 1.9631,7.597341 4.62066,11.620427 8.21768,12.440171 2.24241,0.511028 15.90953,-0.121475 18.60132,-0.86085 z M 181.67221,29.994371 c -2.81271,-5.670411 -3.55614,-3.955964 -1.22932,2.834903 2.12803,6.210625 2.28068,6.420005 2.53697,3.479653 0.15578,-1.787315 -0.40483,-4.494482 -1.30765,-6.314556 z"
     style="fill:#000000;stroke-width:0.87176108" />
  <path
     d="m 14.689487,196.17557 c 1.55648,0 3.07024,-0.36524 4.5413,-1.0957 1.47106,-0.7305 2.68112,-1.71142 3.63019,-2.94278 v 0 l -2.70485,-2.94277 c -0.70231,0.89744 -1.50902,1.58617 -2.42012,2.06622 -0.91111,0.48001 -1.88865,0.72002 -2.93263,0.72002 -0.93009,0 -1.78899,-0.1826 -2.57672,-0.54785 -0.78773,-0.36525 -1.47106,-0.86092 -2.04999,-1.48704 -0.57894,-0.62612 -1.03449,-1.37225 -1.36666,-2.23837 -0.33218,-0.86615 -0.49826,-1.8001 -0.49826,-2.8019 0,-1.02267 0.16134,-1.96706 0.48402,-2.8332 0.32268,-0.86613 0.76875,-1.61748 1.33819,-2.25403 0.56944,-0.63655 1.24802,-1.13745 2.03575,-1.50269 0.78773,-0.36524 1.62766,-0.54784 2.51978,-0.54784 1.06296,0 2.06897,0.25565 3.01804,0.76699 0.94907,0.51132 1.77477,1.24702 2.47708,2.20707 v 0 l 2.79026,-3.03669 c -0.93009,-1.25223 -2.1449,-2.2488 -3.64443,-2.98971 -1.49953,-0.74093 -3.04651,-1.11136 -4.64095,-1.11136 -1.48055,0 -2.87093,0.29219 -4.17116,0.87657 -1.30022,0.58436 -2.42487,1.37745 -3.37394,2.37924 -0.94907,1.0018 -1.69883,2.19664 -2.24929,3.58454 -0.55047,1.3879 -0.82569,2.87493 -0.82569,4.46111 0,1.58616 0.27048,3.068 0.81145,4.44546 0.54097,1.37747 1.28599,2.56709 2.23506,3.56888 0.94907,1.00179 2.07372,1.79489 3.37394,2.37927 1.30023,0.58437 2.7001,0.87656 4.19963,0.87656 z m 53.95461,0.0313 c 1.48055,0 2.86619,-0.29218 4.15692,-0.87657 1.29074,-0.58438 2.40589,-1.38267 3.34547,-2.39491 0.93958,-1.01222 1.6846,-2.21229 2.23506,-3.60018 0.55048,-1.3879 0.82568,-2.86452 0.82568,-4.42982 0,-1.5653 -0.2752,-3.0419 -0.82568,-4.42979 -0.55046,-1.38791 -1.29548,-2.58797 -2.23506,-3.60019 -0.93958,-1.01223 -2.05473,-1.81053 -3.34547,-2.39491 -1.29073,-0.58439 -2.67637,-0.87657 -4.15692,-0.87657 -1.46157,0 -2.83773,0.29218 -4.12846,0.87657 -1.29074,0.58438 -2.40588,1.38268 -3.34547,2.39491 -0.93958,1.01222 -1.68459,2.21228 -2.23505,3.60019 -0.55046,1.38789 -0.8257,2.86449 -0.8257,4.42979 0,1.5653 0.27524,3.04192 0.8257,4.42982 0.55046,1.38789 1.29547,2.58796 2.23505,3.60018 0.93959,1.01224 2.05473,1.81053 3.34547,2.39492 1.29073,0.58438 2.66689,0.87656 4.12846,0.87656 z m 0,-4.1637 c -0.89212,0 -1.72256,-0.18261 -2.4913,-0.54786 -0.76875,-0.36522 -1.4331,-0.86611 -1.99306,-1.50267 -0.55995,-0.63657 -1.00127,-1.39313 -1.32395,-2.26969 -0.32268,-0.8766 -0.48403,-1.81577 -0.48403,-2.81756 0,-1.02265 0.16135,-1.96705 0.48403,-2.83318 0.32268,-0.86615 0.764,-1.61748 1.32395,-2.25404 0.55996,-0.63656 1.22431,-1.13746 1.99306,-1.50269 0.76874,-0.36524 1.59918,-0.54786 2.4913,-0.54786 0.89212,0 1.7273,0.18262 2.50554,0.54786 0.77824,0.36523 1.44733,0.86613 2.00729,1.50269 0.55994,0.63656 1.00126,1.38789 1.32395,2.25404 0.32267,0.86613 0.48402,1.81053 0.48402,2.83318 0,1.00179 -0.16135,1.94096 -0.48402,2.81756 -0.32269,0.87656 -0.76401,1.63312 -1.32395,2.26969 -0.55996,0.63656 -1.22905,1.13745 -2.00729,1.50267 -0.77824,0.36525 -1.61342,0.54786 -2.50554,0.54786 z m 62.581653,3.81933 v -4.00717 h -10.9048 v -17.90706 h -4.12847 v 21.91421 z m 52.04696,0 v -4.00716 h -10.90482 v -17.90707 h -4.12843 v 21.91421 z m 52.44558,0 v -3.94454 h -11.30342 v -5.1968 h 7.37429 v -3.81933 h -7.37429 v -5.00896 h 11.18954 v -3.94457 h -15.31797 v 21.91421 z m 45.78312,0.31306 c 1.55649,0 3.07025,-0.36523 4.5413,-1.09571 1.47105,-0.73047 2.68112,-1.71139 3.6302,-2.94276 v 0 l -2.70485,-2.94276 c -0.7023,0.89744 -1.50902,1.58616 -2.42014,2.06619 -0.91111,0.48002 -1.88865,0.72004 -2.93263,0.72004 -0.93006,0 -1.78899,-0.18262 -2.5767,-0.54784 -0.78775,-0.36526 -1.47107,-0.86094 -2.04999,-1.48705 -0.57894,-0.62611 -1.03451,-1.37224 -1.36666,-2.23837 -0.33219,-0.86614 -0.49828,-1.80012 -0.49828,-2.80191 0,-1.02265 0.16134,-1.96705 0.48404,-2.83318 0.32268,-0.86615 0.76873,-1.61748 1.33818,-2.25404 0.56945,-0.63656 1.24802,-1.13746 2.03576,-1.50269 0.78771,-0.36524 1.62764,-0.54786 2.51977,-0.54786 1.06297,0 2.06897,0.25568 3.01803,0.76701 0.94908,0.51133 1.77478,1.247 2.47709,2.20705 v 0 l 2.79025,-3.03666 c -0.93007,-1.25225 -2.14489,-2.24883 -3.64443,-2.98974 -1.49951,-0.7409 -3.0465,-1.11135 -4.64094,-1.11135 -1.48055,0 -2.87093,0.29218 -4.17115,0.87657 -1.30023,0.58438 -2.42488,1.37746 -3.37395,2.37926 -0.94906,1.0018 -1.69883,2.19663 -2.24929,3.58453 -0.55047,1.38789 -0.8257,2.87492 -0.8257,4.4611 0,1.58616 0.27049,3.068 0.81145,4.44546 0.54099,1.37747 1.286,2.5671 2.23507,3.56889 0.94906,1.0018 2.0737,1.79489 3.37393,2.37925 1.30024,0.58437 2.7001,0.87657 4.19964,0.87657 z m 54.60947,-0.31306 v -17.90705 h 6.69093 v -4.00716 H 325.263 v 4.00716 h 6.71943 v 17.90705 z m 47.29214,0 v -21.91423 h -4.12845 v 21.91421 z m 47.54838,0.34437 c 1.48055,0 2.86619,-0.29218 4.15692,-0.87657 1.29074,-0.58438 2.4059,-1.38267 3.34547,-2.39491 0.93959,-1.01222 1.68459,-2.21229 2.23506,-3.60018 0.55046,-1.3879 0.82569,-2.86452 0.82569,-4.42982 0,-1.5653 -0.27523,-3.0419 -0.82569,-4.42979 -0.55047,-1.38791 -1.29547,-2.58797 -2.23506,-3.60019 -0.93957,-1.01223 -2.05473,-1.81053 -3.34547,-2.39492 -1.29073,-0.58438 -2.67637,-0.87656 -4.15692,-0.87656 -1.46157,0 -2.83771,0.29218 -4.12847,0.87657 -1.29071,0.58438 -2.4059,1.38268 -3.34545,2.39491 -0.93959,1.01222 -1.68461,2.21228 -2.23506,3.60019 -0.55047,1.38789 -0.8257,2.86449 -0.8257,4.42979 0,1.5653 0.27523,3.04192 0.8257,4.42982 0.55045,1.38789 1.29547,2.58796 2.23506,3.60018 0.93955,1.01224 2.05474,1.81053 3.34545,2.39492 1.29076,0.58438 2.6669,0.87656 4.12847,0.87656 z m 0,-4.1637 c -0.89211,0 -1.72258,-0.18261 -2.4913,-0.54786 -0.76875,-0.36522 -1.4331,-0.86611 -1.99306,-1.50267 -0.55995,-0.63657 -1.00125,-1.39313 -1.32396,-2.26969 -0.32266,-0.8766 -0.48401,-1.81577 -0.48401,-2.81756 0,-1.02265 0.16135,-1.96705 0.48401,-2.83318 0.32271,-0.86615 0.76401,-1.61748 1.32396,-2.25404 0.55996,-0.63656 1.22431,-1.13746 1.99306,-1.50269 0.76872,-0.36524 1.59919,-0.54786 2.4913,-0.54786 0.89211,0 1.72731,0.18262 2.50554,0.54786 0.77825,0.36523 1.44734,0.86613 2.00729,1.50269 0.55994,0.63656 1.00126,1.38789 1.32394,2.25404 0.32268,0.86613 0.48403,1.81053 0.48403,2.83318 0,1.00179 -0.16135,1.94096 -0.48403,2.81756 -0.32268,0.87656 -0.764,1.63312 -1.32394,2.26969 -0.55995,0.63656 -1.22904,1.13745 -2.00729,1.50267 -0.77823,0.36525 -1.61343,0.54786 -2.50554,0.54786 z m 51.44905,3.81933 v -14.65122 l 10.16454,14.65122 h 3.64443 v -21.91423 h -3.8722 v 14.18164 l -9.9083,-14.18164 h -3.92915 v 21.91421 z"
     id="COLLECTION"
     inkscape:connector-curvature="0"
     style="fill:#ffffff;fill-rule:nonzero;stroke:none;stroke-width:1.2758193" />
</svg>
