<?xml version="1.0" encoding="UTF-8" standalone="no"?>
<!-- Created with Inkscape (http://www.inkscape.org/) -->

<svg
   xmlns:dc="http://purl.org/dc/elements/1.1/"
   xmlns:cc="http://creativecommons.org/ns#"
   xmlns:rdf="http://www.w3.org/1999/02/22-rdf-syntax-ns#"
   xmlns:svg="http://www.w3.org/2000/svg"
   xmlns="http://www.w3.org/2000/svg"
   xmlns:xlink="http://www.w3.org/1999/xlink"
   xmlns:sodipodi="http://sodipodi.sourceforge.net/DTD/sodipodi-0.dtd"
   xmlns:inkscape="http://www.inkscape.org/namespaces/inkscape"
   width="500"
   height="200"
   viewBox="0 0 132.29166 52.916668"
   version="1.1"
   id="svg8"
   inkscape:version="0.92.5 (2060ec1f9f, 2020-04-08)"
   sodipodi:docname="dukenukem.svg">
  <defs
     id="defs2">
    <linearGradient
       inkscape:collect="always"
       id="linearGradient960">
      <stop
         style="stop-color:#f49301;stop-opacity:1;"
         offset="0"
         id="stop956" />
      <stop
         style="stop-color:#fe9a03;stop-opacity:1"
         offset="1"
         id="stop958" />
    </linearGradient>
    <linearGradient
       inkscape:collect="always"
       xlink:href="#linearGradient960"
       id="linearGradient962"
       x1="57.916695"
       y1="268.92905"
       x2="57.474579"
       y2="296.22559"
       gradientUnits="userSpaceOnUse"
       gradientTransform="matrix(3.7795276,0,0,3.7795276,0.13503496,-971.68481)" />
  </defs>
  <sodipodi:namedview
     id="base"
     pagecolor="#ffffff"
     bordercolor="#666666"
     borderopacity="1.0"
     inkscape:pageopacity="0.0"
     inkscape:pageshadow="2"
     inkscape:zoom="1.596875"
     inkscape:cx="269.53686"
     inkscape:cy="128.2594"
     inkscape:document-units="mm"
     inkscape:current-layer="layer1"
     showgrid="false"
     units="px"
     inkscape:pagecheckerboard="true"
     inkscape:window-width="1366"
     inkscape:window-height="739"
     inkscape:window-x="0"
     inkscape:window-y="0"
     inkscape:window-maximized="1" />
  <metadata
     id="metadata5">
    <rdf:RDF>
      <cc:Work
         rdf:about="">
        <dc:format>image/svg+xml</dc:format>
        <dc:type
           rdf:resource="http://purl.org/dc/dcmitype/StillImage" />
        <dc:title></dc:title>
      </cc:Work>
    </rdf:RDF>
  </metadata>
  <g
     inkscape:label="Layer 1"
     inkscape:groupmode="layer"
     id="layer1"
     transform="translate(0,-244.08332)">
    <g
       id="g1173"
       transform="matrix(1.0488331,0,0,1.0488331,-3.8391372,-10.373569)">
      <path
         d="m 60.371094,43.884766 c -7.560062,-0.0061 -11.860492,0.01703 -14.441406,0.142578 -0.178232,0.371532 -0.37239,0.735945 -0.53711,1.113281 -0.08077,0.185197 -0.12543,0.383188 -0.201172,0.570313 -0.05571,0.137571 -0.513882,1.146792 -0.599609,1.375 -0.04891,0.13039 -0.07923,0.265246 -0.119141,0.398437 -0.204812,0.615458 -0.545567,1.159614 -0.904297,1.693359 -0.08183,0.121701 -0.173287,0.238999 -0.248047,0.365235 -0.02381,0.04044 0.115785,-0.147044 0.09375,-0.105469 -0.116255,0.219969 -0.252488,0.428506 -0.378906,0.642578 -0.04346,0.07143 -0.08343,0.144103 -0.130859,0.212891 -0.503996,0.731074 -0.185256,0.255072 -0.890625,1.021484 -0.01701,0.0189 0.08188,-0.05355 0.07031,-0.03125 -0.100573,0.19389 -0.274582,0.30158 -0.132812,0.208985 -0.492405,0.846384 0.291377,-0.50165 -0.195313,0.505859 -0.04379,0.09065 -0.05946,0.114606 -0.09375,0.183594 0.166056,0.228176 0.05124,0.570948 -0.476562,1.080078 -0.0161,0.073 0.0019,-0.008 -0.05859,0.318359 -0.02419,0.130772 -0.04896,0.262512 -0.06445,0.394531 -0.0031,0.02646 0.01648,0.054 0.0098,0.08008 -0.244385,0.950433 -0.215215,0.841904 -0.453125,1.476562 -0.06815,0.407546 -0.264084,0.773874 -0.421875,1.150391 -0.04849,0.122456 -0.09604,0.245108 -0.144532,0.367187 -0.0189,0.06387 -0.03279,0.129422 -0.05664,0.191406 -0.06849,0.176882 -0.147305,0.348559 -0.220703,0.523438 -0.237884,0.54119 -0.641188,0.988574 -0.857422,1.539062 -0.0028,0.0076 0.01172,0.01002 0.01172,0.01758 -3.94e-4,0.02646 -0.0088,0.0564 -0.01367,0.08398 -0.08336,0.283173 -0.196671,0.554931 -0.320313,0.822265 0.634666,0.02818 1.259512,0.09343 1.839844,0.337891 0.425469,0.17915 -0.08384,0.919051 -0.125,1.378906 -0.647486,1.61212 -0.106436,0.354021 -0.861328,1.890625 -0.379185,0.831799 -0.142364,0.335306 -0.539063,1.125 -0.03288,0.06576 -0.05982,0.134148 -0.09766,0.197266 -0.102123,0.170457 -0.215003,0.334558 -0.322266,0.501953 0.290225,-0.228053 0.08006,-0.01477 -0.195312,0.242188 -0.04328,0.127125 -0.08892,0.252729 -0.134766,0.378906 -0.13319,0.366614 -0.271785,0.732327 -0.408203,1.097656 -0.113325,0.244914 -0.23997,0.483641 -0.339844,0.734375 -0.134933,0.338646 -0.244233,0.686557 -0.363281,1.03125 -0.376048,1.088844 -0.594417,1.855894 -1.083984,2.904297 -0.06462,0.138351 -0.15123,0.264849 -0.232422,0.394531 4.65e-4,0.152353 0.0022,0.304662 0.002,0.457032 -0.162577,0.450643 -0.318197,1.149827 -0.638672,1.669921 0.0039,0.0105 -0.0033,0.04921 -0.01172,0.07227 -0.0696,0.19048 -0.148187,0.377638 -0.222656,0.566406 0.103675,-0.185549 0.152352,-0.268589 -0.04687,0.119141 0.01507,-0.03993 0.03122,-0.07943 0.04687,-0.119141 -0.06561,0.11743 -0.09924,0.173797 -0.197266,0.351563 -0.01003,0.494089 -0.04422,0.322394 -0.591796,1.53125 0.140024,-0.107717 0.463905,-0.858994 0.130859,-0.0918 -0.02869,0.06614 0.101976,-0.26914 0.08398,-0.199219 -0.09898,0.38434 -0.247796,0.587177 -0.453125,0.896484 -0.0085,0.01667 -0.01869,0.03225 -0.02734,0.04883 -0.01255,0.0423 -0.01176,0.05834 -0.02148,0.08594 -0.059,0.168196 -0.129881,0.330774 -0.191406,0.498047 0.01502,-0.02929 0.03009,-0.05852 0.04492,-0.08789 -0.019,0.04195 -0.07409,0.168087 -0.05859,0.125 0.0045,-0.01244 0.0091,-0.02471 0.01367,-0.03711 -0.04626,0.0902 -0.0904,0.181266 -0.136719,0.271484 -0.0035,0.0091 -0.0063,0.01829 -0.0098,0.02734 0.252793,0.540422 0.408203,1.231048 0.408203,2.078125 v 4.138672 c 0.01848,0.653216 -0.0055,1.270007 -0.15625,1.917969 -0.07403,0.318236 -0.189001,0.62638 -0.310547,0.929687 -0.230684,0.575622 -0.543266,1.085636 -0.847656,1.623047 -0.0083,0.424214 -0.188417,0.816975 -0.265625,1.226563 -0.0102,0.05405 0.0245,0.109637 0.01563,0.164062 -0.123239,0.754016 -0.203784,0.976529 -0.398438,1.664063 -0.44767,0.955048 -0.308156,0.740756 -0.789062,1.501953 -0.100528,0.159118 -0.21027,0.312102 -0.308594,0.472656 -0.0043,0.0076 -7.54e-4,0.02904 0.0059,0.02148 0.02033,-0.01512 0.05451,-0.08902 0.04492,-0.06445 -0.0447,0.114148 -0.09682,0.225639 -0.146484,0.337891 0.0037,0.391252 0.02601,0.452546 -0.148438,1.017578 0.004,-0.0031 0.01316,-0.01543 0.01172,-0.0078 -0.234334,0.779936 -0.08519,0.274896 -0.361328,0.99414 -0.01618,0.04233 -0.05273,0.173183 -0.03711,0.13086 0.130455,-0.353386 0.0771,-0.283767 0.08984,-0.796876 -0.137126,-0.459502 -0.211421,-0.719398 -0.300781,-0.875 0.03267,0.251362 0.06667,0.502859 0.06641,0.789063 -4.7e-5,0.05198 -1.55e-4,0.07877 0,0.126953 v 0.332031 c 0,0.06841 0.06839,0.201299 0,0.205079 -0.0052,0.298622 -0.04359,0.457129 -0.144531,0.539062 1.101759,0.462142 1.612733,0.800082 0.02148,0.685547 -0.245135,-0.01763 -0.397895,-0.0084 -0.607422,-0.01563 -0.121826,0.453281 -0.300073,0.832527 -0.517578,1.138672 0.04597,0.573126 -0.06343,1.299501 -0.388672,2.187491 -0.08516,0.23224 -0.176281,0.46287 -0.255859,0.69727 -0.03609,0.1062 -0.06134,0.21612 -0.0918,0.32422 -0.07088,0.21316 -0.138702,0.42844 -0.21289,0.64062 -0.15275,0.43688 -0.332005,0.85612 -0.507813,1.28321 -0.08334,0.16781 -0.15897,0.33833 -0.25,0.50195 -0.367151,0.66051 -0.310448,0.46119 -0.542969,0.93945 -0.155799,0.32051 -0.25403,0.66686 -0.373046,1.00196 -0.08216,0.19124 -0.163935,0.38109 -0.246094,0.57226 -0.01602,0.0435 -0.03153,0.0878 -0.04883,0.13086 -0.0339,0.0847 -0.01561,0.26669 -0.105469,0.25195 -0.0023,-3.9e-4 2.88e-4,-0.005 -0.002,-0.006 -0.06341,0.16244 -0.140687,0.3608 -0.166016,0.41797 0.01552,0.37925 -0.04901,0.83505 -0.183594,1.17188 0.01829,-0.12964 0.0831,-0.51654 0.05469,-0.38867 -0.201729,0.90769 -0.02274,0.50927 -0.291016,1.16797 -0.0069,0.0151 -0.02422,0.0264 -0.03125,0.0449 -0.02925,0.0703 -0.0297,0.15783 -0.07813,0.21679 -0.02381,0.0302 -0.0051,-0.0759 -0.0078,-0.11328 -0.05236,0.26381 -0.09735,0.52849 -0.15625,0.79102 -0.0088,0.0393 -0.03501,0.0747 -0.04687,0.11328 -0.05053,0.16479 -0.08991,0.33318 -0.140625,0.49805 -0.154061,0.50048 -0.359891,0.97943 -0.439453,1.50195 -0.03617,-0.15383 -0.0095,-0.078 -0.06445,0.22851 -0.04729,0.26382 -0.09173,0.52566 -0.158203,0.78516 -0.02385,0.093 -0.04531,0.18632 -0.06836,0.2793 -0.03027,0.28422 -0.04927,0.56912 -0.0918,0.85156 -0.02298,0.15269 -0.0643,0.30222 -0.105469,0.45117 -0.234754,0.84839 -0.192151,0.75922 -0.517578,1.4336 -0.178473,0.37001 -0.105472,0.45757 -0.199218,0.32226 -0.131486,0.39749 -0.346324,1.07085 -0.509766,1.38281 -0.114274,0.21801 -0.23582,0.43667 -0.375,0.64063 0.33053,-0.0673 0.59285,0.24469 0.732422,1.24609 0.111805,0.80272 0.123438,1.1744 -0.103516,2.06836 -0.126939,0.5 -0.444569,1.06116 -0.634766,1.54883 -0.02449,0.0627 -0.03034,0.1315 -0.04492,0.19727 -0.02506,0.0793 -0.0484,0.27667 -0.07422,0.30078 -0.02341,0.10181 -0.0448,0.20411 -0.06445,0.30664 -0.0012,0.008 0.0097,0.012 0.0078,0.0195 -0.106586,0.33827 -0.225237,0.6715 -0.332031,1.00977 0.0068,-0.0113 0.02496,-0.0438 0.02148,-0.0332 -0.04432,0.15572 -0.09203,0.3099 -0.144531,0.46289 -0.06085,0.17726 -0.147773,0.34704 -0.205078,0.52539 -0.01376,0.0427 0.066,-0.16846 0.05469,-0.125 -0.03962,0.15232 -0.09229,0.30069 -0.138671,0.45117 0.127128,-0.0113 0.05381,-0.01 -0.04883,0.31836 -0.04907,0.15648 -0.23692,0.70255 -0.355468,0.91602 -0.103023,0.18557 -0.221458,0.36369 -0.332032,0.54492 -0.122914,0.26437 -0.269171,0.51395 -0.4375,0.74805 -0.07375,0.19304 -0.156018,0.38338 -0.205078,0.58789 -0.0871,0.034 -0.07614,0.3586 -0.08789,0.26562 -0.0067,-0.0531 0.0022,-0.072 0.0078,-0.16015 -0.004,0.01 -0.0077,0.0196 -0.01172,0.0293 -0.01736,0.30485 -0.04002,0.61773 -0.195313,0.87696 -0.118881,0.37304 -0.133728,0.43613 -0.271484,0.78906 -0.09375,0.24038 -0.174086,0.38937 -0.25586,0.64063 -0.09693,0.29782 -0.161665,0.6062 -0.257812,0.90429 -0.212856,1.01768 -0.443838,2.03143 -0.638672,3.05274 -0.14787,0.7751 -0.237467,1.56161 -0.408203,2.33203 -0.170487,0.76926 -0.449273,1.51657 -0.642578,2.2832 v 0.3125 h 1.878906 7.720703 c 0.120862,0 0.08105,0.003 0.181641,0.004 0.307133,-0.4449 0.914798,-0.58027 1.974609,-0.0957 -0.756813,0.16285 -0.815222,0.13107 -1.544922,0.10743 0.09628,0.066 0.158479,0.27723 0.189453,0.6289 0.226063,0.0721 0.454872,0.13937 0.677735,0.22071 0.110447,0.0403 0.213419,0.0862 0.320312,0.1289 0.144538,-0.20558 0.284745,-0.41013 0.474609,-0.63086 0.0083,-0.22317 0.02397,-0.4437 0.05859,-0.65625 -0.190151,0.0157 -0.448418,0.0625 0.375,-0.0742 0.180401,-0.0151 0.361278,-0.023 0.541016,-0.0449 0.09153,-0.0113 0.18067,-0.0384 0.271484,-0.0527 0.131944,-0.0227 0.263921,-0.0436 0.396485,-0.0625 0.196373,-0.0265 0.393572,-0.049 0.589843,-0.0781 0.212149,-0.0302 0.421874,-0.0778 0.634766,-0.10351 0.345177,-0.0416 0.692976,-0.0648 1.039062,-0.0977 0.362432,-0.0338 0.725387,-0.0363 1.087891,-0.0273 0.362504,0.009 0.723656,0.0278 1.085938,0.041 0.530167,0.0189 1.059446,0.0233 1.589843,0.0195 0.451311,-0.0189 0.903999,-0.01 1.355469,-0.008 0.21018,3.8e-4 0.128336,5.3e-4 0.244141,0 1.882248,-0.009 3.005625,0.74595 3.392578,1.65625 0.17788,-0.006 0.286451,-0.0159 0.548828,-0.0195 0.898938,-0.0113 1.798245,-0.0156 2.697266,-0.0156 0.933414,-0.002 1.866766,0.0529 2.798828,0.004 0.556849,-0.0302 1.104484,-0.16326 1.65625,-0.24414 0.337512,-0.0767 0.679329,-0.13371 1.011718,-0.23047 0.05843,-0.0151 -0.235574,0.0185 -0.18164,-0.0117 0.592777,-0.30916 1.155034,-0.38088 1.808594,-0.51562 1.421007,-0.29292 0.613091,-0.0847 1.77539,-0.41797 0.320088,-0.12284 0.665131,-0.15583 0.990235,-0.25977 0.01928,-0.008 -0.07926,-0.004 -0.06055,-0.0117 0.161272,-0.0695 0.330841,-0.1184 0.496094,-0.17774 0.07219,-0.0265 0.144759,-0.052 0.216796,-0.0781 0.127937,-0.0454 0.254853,-0.0914 0.382813,-0.13672 0.483273,-0.13947 0.963325,-0.29833 1.451172,-0.42188 0.307653,-0.0779 0.61787,-0.14165 0.925781,-0.21875 0.351118,-0.14627 0.726258,-0.2257 1.080078,-0.36328 0.09037,-0.034 0.16612,-0.10113 0.251953,-0.14648 0.147364,-0.0775 0.294777,-0.15381 0.447266,-0.22071 0.595941,-0.26192 0.821991,-0.32815 1.431641,-0.54101 0.344607,-0.1468 0.716144,-0.17616 1.078124,-0.24414 0.02051,-0.0276 0.04436,-0.0561 0.0625,-0.0801 -0.262011,-0.23299 -0.186289,-0.62523 0.539063,-1.32617 0.0929,-0.09 0.184481,-0.17958 0.277344,-0.26953 0.08493,-0.0673 0.426995,-0.348 0.539062,-0.40235 0.04891,-0.0227 -0.162718,0.14383 -0.11914,0.11133 0.297373,-0.22224 0.5604,-0.47714 0.90625,-0.625 0.06511,-0.0375 0.12461,-0.0885 0.195312,-0.11328 0.309363,-0.39368 0.168816,-0.22204 0.804688,-0.75977 0.100678,-0.0527 0.20134,-0.10687 0.302734,-0.1582 0.21705,-0.19833 0.420845,-0.41076 0.626953,-0.62109 0.04505,-0.33253 0.108206,-0.67439 0.144531,-0.89063 0.34271,-2.03945 1.37809,-2.9726 2.388672,-2.98242 0.962521,-0.009 1.900091,0.82304 2.195313,2.32617 0.345692,-0.0117 0.59301,-0.005 1.017578,-0.0332 0.07759,0.49746 0.254532,0.98921 0.232422,1.49219 -0.0081,0.18316 -0.06704,0.35652 -0.140625,0.52734 0.0066,0.0416 -0.02742,0.10799 -0.08398,0.1875 -0.03997,0.0863 -0.08053,0.17319 -0.115234,0.25976 -0.03213,0.0797 -0.08233,0.15186 -0.136719,0.21876 -0.02003,0.0264 0.02256,-0.0592 0.03125,-0.0898 0.0059,-0.0186 0.01447,-0.054 0.01367,-0.0606 -0.0034,0.007 -0.0083,0.0108 -0.01172,0.0176 -0.0752,0.17634 -0.143569,0.35528 -0.214843,0.53321 0.142881,0.26328 -0.15589,-0.0711 0.238281,0.3457 0.519534,0.53817 0.88692,1.19713 1.373047,1.76172 0.211427,0.24567 0.468356,0.4579 0.71875,0.66211 0.104768,0.093 0.203562,0.1935 0.314453,0.27929 0.0517,0.0401 0.115636,0.0624 0.171875,0.0957 0.159042,0.0941 0.310362,0.20049 0.474609,0.28515 0.06629,0.034 0.141911,0.0457 0.212891,0.0684 0.163994,0.079 0.330885,0.15362 0.492187,0.23828 0.191396,0.10016 0.375912,0.20901 0.564454,0.31446 0.692906,0.29556 0.08584,0.0454 0.714843,0.28125 0.317821,0.11905 0.478126,0.20433 0.794922,0.27539 0.22458,0.0506 0.454574,0.0735 0.681641,0.11133 0.340875,0.13266 0.682558,0.26397 1.023437,0.39648 0.05904,0.0227 0.228808,0.10265 0.175781,0.0684 -0.07204,-0.0472 -0.161027,-0.0605 -0.234374,-0.10547 -0.01965,-0.0113 0.04564,-1.6e-4 0.06836,0.004 0.61985,0.1096 0.385845,0.0661 1.132812,0.35937 0.124417,0.0748 0.248333,0.15032 0.373047,0.22461 0.02129,0.007 0.0324,0.009 0.05273,0.0156 -0.01108,-0.006 -0.04841,-0.0219 -0.03516,-0.0195 0.08391,0.0151 0.324669,0.0996 0.240235,0.0879 -0.03965,-0.005 -0.12512,-0.0431 -0.205078,-0.0684 0.02391,0.0125 0.05046,0.0268 0.07422,0.0449 0.0023,0.002 1.75e-4,0.004 0.002,0.008 0.119702,0.0446 0.157236,0.0567 0.583985,0.22069 -0.04714,-0.0232 -0.09516,-0.0438 -0.142578,-0.0664 -0.0102,-0.004 -0.04214,-0.0194 -0.03125,-0.0156 0.101971,0.0265 0.206835,0.0423 0.304687,0.0801 0.275868,0.10696 0.540718,0.24026 0.8125,0.35742 0.04574,0.0278 0.0911,0.056 0.136719,0.084 0.06605,0.009 0.13053,0.0394 0.193359,0.0644 0.671664,0.26708 0.63319,0.27334 1.132813,0.62891 -0.02357,-0.017 -0.04581,-0.0342 -0.04102,-0.0605 0.0094,-0.0525 0.1,0.0384 0.146485,0.0644 0.09969,0.0561 0.197051,0.11645 0.294922,0.17578 0.02539,-0.10046 0.271951,0.0954 0.402343,0.13478 0.183572,0.0752 0.372382,0.13963 0.550781,0.22656 0.202054,0.0983 0.392024,0.22154 0.589844,0.32812 0.04229,0.0189 0.08466,0.0377 0.126953,0.0566 4.12e-4,-0.0113 -0.01107,-0.0389 0,-0.0332 0.470805,0.19389 0.734082,0.33253 1.146485,0.54102 -0.06357,-0.0412 -0.135595,-0.0717 -0.189453,-0.125 -0.05873,-0.0582 0.06558,-0.0887 0.162109,-0.0898 0.297902,-0.003 0.597128,0.002 0.894531,0.0215 0.317178,0.0189 0.631237,0.0726 0.947266,0.10547 1.174424,-0.0113 2.348847,-0.0393 3.523437,-0.0352 1.303008,0.008 2.605181,0.008 3.908204,0.004 0.109177,-7e-5 0.218947,0 0.328124,0 h 0.03711 c 0.565169,-0.51932 1.384618,-0.49959 2.08789,-0.49805 0.110134,2.5e-4 0.215603,0.0455 0.322266,0.0762 -0.002,-0.005 0.005,-0.005 0.0039,-0.01 -0.01677,-0.005 -0.03403,-0.011 -0.05078,-0.0156 0.01885,-8.3e-4 0.03779,-0.003 0.05664,-0.004 0.01745,-0.0898 0.296294,-0.0634 0.427734,-0.0937 0.171324,-0.0393 0.344634,-0.064 0.517584,-0.0957 -0.0197,-0.002 -0.0772,0.001 -0.0586,-0.008 0.0873,-0.034 0.17818,-0.0534 0.26953,-0.0723 0.16494,-0.034 0.33021,-0.0704 0.49805,-0.084 0.0772,-0.007 0.1482,0.001 0.22266,0 0.6221,-0.28885 1.42534,-0.4517 2.42578,-0.38086 l -0.002,-0.002 c 0.10995,0.008 0.23383,0.0745 0.33203,0.0234 0.0613,-0.0302 -0.22175,-0.0456 -0.18164,-0.10157 0.1062,-0.14815 0.30511,-0.19955 0.46289,-0.29101 0.27904,-0.16177 0.57082,-0.30156 0.84765,-0.4668 0.41957,-0.25058 0.50008,-0.17001 0.36133,-0.28906 -0.0314,0.0265 -0.1198,0.11013 -0.0937,0.0781 0.0884,-0.10981 0.17521,-0.17947 0.25586,-0.25781 0.10867,-0.27309 0.23308,-0.52726 0.43164,-0.77344 0.0364,-0.0452 0.0849,-0.0792 0.125,-0.12109 0.0516,-0.0902 0.10552,-0.17783 0.1875,-0.28711 0.1135,-0.15118 0.2474,-0.28692 0.36914,-0.43164 0.0106,-0.0113 0.0385,-0.0508 0.0273,-0.0391 -0.0355,0.0378 -0.0678,0.0779 -0.10157,0.11719 0.14941,-0.1818 0.29983,-0.36313 0.44922,-0.54493 0.79602,-0.59162 0.58816,-0.46764 0.99414,-0.65039 -0.019,0.006 -0.0375,0.0138 -0.0566,0.0195 -0.0646,0.0193 0.24644,-0.10862 0.18555,-0.0781 -0.0961,0.0456 -0.0693,0.0318 -0.12891,0.0586 0.24007,-0.077 0.47288,-0.17904 0.71875,-0.23437 0.14907,-0.0335 0.28248,-0.0435 0.41406,-0.043 0.13159,5.2e-4 0.26098,0.0108 0.4043,0.0195 1.21999,0.41189 1.08133,0.24412 2.00195,0.95313 0.62827,0.48389 0.39667,0.40137 0.9336,0.86523 0.11149,0.0964 0.238,0.17485 0.35547,0.26367 0.20432,0.15458 0.40591,0.31108 0.60937,0.4668 0.0971,0.0639 0.2813,0.3073 0.29102,0.19141 0.01,-0.11717 -0.24556,-0.0919 -0.28907,-0.20118 -0.028,-0.0707 0.14872,0.0315 0.22461,0.0391 0.0767,0.004 0.15367,-0.0117 0.23047,-0.0117 0.44211,0.0113 0.69095,0.0437 1.14063,0.0879 1.09749,0.0658 2.19625,0.009 3.29492,0.004 0.74112,0.004 1.48348,0.008 2.22461,0.008 0.75526,-0.001 1.51036,-8e-5 2.26562,0 1.46874,-1.2e-4 2.93752,-0.002 4.40625,-0.002 1.69158,4e-5 3.38264,0 5.07422,0 h 1.95703 c 0.33477,-0.13495 0.62015,-0.17368 1.125,-0.19531 0.38724,-0.0151 0.63619,0.0939 0.30274,-0.0293 0.64143,-0.20711 1.31293,-0.24791 1.98047,-0.18554 0.10979,0.0113 0.21887,0.0234 0.32617,0.0469 0.19517,0.0461 0.38552,0.11008 0.57812,0.16602 1.13664,0.32937 1.29691,0.69358 0.98438,1.07226 0.16763,-0.003 0.33894,-0.007 0.49219,-0.0137 0.37899,-0.0151 0.75566,-0.0516 1.13476,-0.0644 1.02879,-0.034 2.05883,-0.0552 3.08789,-0.082 4.91772,-0.11301 9.83595,-0.003 14.75391,0 0.71365,-0.0994 1.43187,-0.16724 2.14062,-0.29688 4.33944,-0.79359 -0.72507,-0.11202 3.92579,-0.77929 1.33815,-0.19201 2.69064,-0.2827 4.02734,-0.48438 0.41087,-0.062 0.81331,-0.1625 1.2207,-0.24414 1.52345,-0.17084 3.03133,0.0896 4.54102,0.24414 0.23478,0.0227 0.46933,0.0512 0.70508,0.0625 0.13689,0.008 0.27319,-0.002 0.41015,-0.01 0.23414,-0.008 0.46907,-0.0239 0.70313,-0.0351 0.48786,-0.0552 0.92491,-0.28413 1.39648,-0.40039 0.14332,-0.034 0.2907,-0.0556 0.43555,-0.084 0.28997,-0.0566 0.52782,-0.0832 0.7207,-0.084 1.17273,-0.005 0.66266,0.95553 -0.0625,2.02734 0.70445,-0.003 1.40891,-0.01 2.11328,0 0.2177,0.004 0.43466,0.006 0.65235,0.0137 0.27579,0.008 0.55216,0.0306 0.82812,0.0117 0.0184,-10e-4 0.0364,-0.006 0.0547,-0.008 0.56727,-0.35197 1.02637,-0.33203 1.66992,-0.33203 h 1.07227 16.76758 11.65234 c 0.1293,0 0.24105,0.0165 0.36328,0.0234 0.76091,-9.82067 2.85497,-58.641988 2.65039,-62.804686 h -0.0469 -1.08204 -2.33789 -1.18945 -4.24805 -6.24218 c -4.72696,0 -4.72696,-4.77539 0,-4.77539 h 6.24218 4.24805 1.18945 2.33789 1.08204 0.40039 c 0.33166,-2.254242 0.66505,-7.568865 0.8789,-14.390625 l 0.46289,-14.72461 -47.62304,-0.443359 C 115.86821,43.785341 85.681599,44.249331 84.654297,45.642578 84.092319,46.404493 83.51716,46.33802 81.0625,45.224609 78.358369,43.998228 76.814949,43.899884 60.371094,43.884766 Z m 20.949218,97.359374 c -0.0084,-0.003 -0.03378,-0.0129 -0.04102,-0.0156 0.0144,0.008 0.02851,0.0171 0.04297,0.0254 0.0031,0.002 1.17e-4,-0.004 -0.002,-0.01 z m -0.04102,-0.0156 c -0.02957,-0.0172 -0.05854,-0.0352 -0.08789,-0.0527 -0.251629,-0.0831 -0.125196,-0.0262 0.08789,0.0527 z m -53.775391,1.06054 c -0.06386,-0.0204 -0.128067,-0.0406 -0.191406,-0.0625 -0.25311,-0.0868 -0.391953,-0.0978 -0.470703,-0.10937 -0.05618,0.0121 -0.09404,0.0161 -0.148438,0.0273 l -0.002,0.002 c -0.170289,0.78585 0.09065,1.9283 0.478516,2.80274 0.174187,-0.002 0.342403,-0.002 0.519531,-0.004 -0.03207,-0.2368 0.005,-0.51614 0.07813,-0.81445 -0.07712,-0.46093 -0.236508,-0.95799 -0.236328,-1.38477 8.1e-5,-0.19362 -0.01506,-0.31756 -0.02734,-0.45703 z m -0.810547,-0.14453 c 0.171991,-0.24882 0.327963,-0.426 0.457032,-0.48828 -0.12111,-0.003 -0.102203,-0.006 -0.265625,-0.008 -0.09455,0.13696 -0.150745,0.30956 -0.191407,0.49609 z m 6.763672,-63.544921 c 0.01056,-0.02739 0.04426,-0.108365 0.03125,-0.08203 -0.01684,0.03406 -0.02825,0.07029 -0.04297,0.105469 0.0041,-0.0077 0.0077,-0.01567 0.01172,-0.02344 z M 303.17773,44.359375 c -32.81572,-0.0064 -60.05422,0.05384 -69.65429,0.199219 0.0525,1.249338 0.009,2.50172 -0.006,3.751953 0.005,0.873449 0.01,1.747645 0.008,2.621094 -0.002,0.80451 -2.6e-4,1.607599 0,2.412109 3e-5,0.346961 -3e-5,0.694244 0,1.041016 3e-5,0.289511 0,0.579515 0,0.86914 v 1.4375 0.970703 c 0.10505,0.223992 0.0945,0.653094 0,1.232422 v 0.238281 c -0.22426,0.956704 -0.33255,1.423609 -0.3457,1.472657 0.32167,0.421787 0.45068,1.09921 1.00586,2.517578 -0.0306,0.353008 0.0342,0.703595 0.0449,1.056641 -0.0382,0.640562 -0.0459,1.09826 -0.21485,1.59375 -0.0176,0.285627 -0.0498,0.527738 -0.18945,1.11914 -0.0437,0.185197 -0.0253,0.415045 -0.16211,0.546875 -0.0203,0.01963 -0.0296,5.3e-4 -0.0332,-0.0332 3.5e-4,0.178607 -0.002,0.34242 -0.002,0.390625 0.009,0.405883 0.0628,0.838825 0.0312,1.242187 -0.0219,0.284977 -0.0637,0.568942 -0.11719,0.84961 -0.005,0.02644 -0.009,0.07491 -0.0137,0.113281 0.002,0.07296 0.009,0.145786 0.008,0.21875 0.0131,0.0052 0.053,0.01 0,0.01563 -3.6e-4,0.02802 0.005,0.05598 0.004,0.08398 -0.009,0.299339 -0.0559,0.596755 -0.10157,0.892579 -0.19256,1.246639 -0.55154,2.466003 -0.61328,3.732421 -0.0594,0.556158 -0.0869,1.116385 -0.17969,1.667969 -0.0897,0.533216 -0.46763,1.655618 -0.60351,2.179688 -0.0742,0.28611 -0.16036,0.570922 -0.1875,0.865234 -0.0416,0.451087 -0.0134,0.906399 -0.0176,1.359375 -0.005,0.576718 -0.006,1.153751 -0.01,1.730469 0.0181,3.605367 0.088,7.20954 0.14063,10.814453 0.0242,1.651578 0.10396,4.064524 -0.0508,5.839844 -0.0542,0.624142 -0.17007,1.240722 -0.25586,1.861322 -0.0767,0.31597 -0.17793,0.62838 -0.23047,0.94922 -0.22923,1.39994 -0.13874,2.13759 -0.24805,3.66992 -0.046,0.64547 -0.11463,1.28895 -0.20507,1.92969 -0.0151,0.10658 -0.002,0.29366 -0.10938,0.30273 v 0.27149 c -0.29351,-0.0117 -0.59121,-3.7e-4 -0.88672,0.002 -0.002,0.15898 -0.0118,0.31826 0,0.47656 0.0174,0.23169 0.0893,0.4552 0.13281,0.6836 0.0485,0.25474 0.0794,0.51432 0.14258,0.76562 0.004,0.0189 0.0479,-0.005 0.0527,0.01 0.0943,0.32504 0.15872,0.65942 0.23828,0.98828 0.18168,0.87167 0.0348,1.72582 -0.0234,2.59375 -0.0321,0.48102 -0.0133,0.96583 -0.004,1.44727 0.0348,0.82798 0.0171,1.65796 0.0137,2.48632 -5e-4,0.62072 0.002,1.24066 0.002,1.86133 -5.4e-4,0.50858 -0.002,1.01682 -0.002,1.52539 2e-5,0.25739 0,0.51425 0,0.77149 -1e-5,0.0729 0.0155,0.14731 0,0.21875 -0.0869,0.40551 -0.19124,0.80686 -0.29297,1.20898 -0.0733,0.53936 -0.12461,0.82752 -0.17774,1.01953 -2.2e-4,0.004 0.002,0.006 0.002,0.01 -0.0517,0.46299 -0.11171,0.92449 -0.1836,1.38476 -0.0722,0.4625 -0.34047,0.87373 -0.38086,1.33789 -0.0302,0.25928 -0.10846,0.50915 -0.15234,0.76563 -0.003,0.0189 0.0609,0.10019 0.0508,0.17578 -0.0634,0.4724 -0.14343,0.94114 -0.2168,1.41211 0.001,0.0425 0.01,0.0847 0.01,0.12695 -0.003,0.34129 -0.0295,0.68241 -0.0449,1.02344 -0.0622,0.25152 -0.12463,0.50246 -0.1875,0.75391 -0.46628,3.44655 0.0299,0.46198 -0.35352,1.97656 -0.0121,0.0476 0.0474,-0.0851 0.0645,-0.13086 0.0166,-0.0442 0.0363,-0.18592 0.0352,-0.13867 -0.0118,0.48773 -0.0755,0.75212 -0.17187,1.06445 0.003,0.0719 0.0154,0.16787 0.0176,0.20899 3.6e-4,0.46873 -0.01,0.93751 -0.01,1.40625 0.003,0.22866 1.3e-4,0.45703 0,0.68554 1.3e-4,0.46473 4e-5,0.9298 0,1.39453 -4e-5,0.36246 -1e-5,0.72529 0,1.08789 v 1.33789 0.41016 c 0.52752,-0.0249 1.05413,-0.0381 1.58203,-0.0234 0.37618,0.0113 0.75263,0.003 1.12891,0.002 0.58996,4.5e-4 1.18152,1.5e-4 1.77148,0 0.44015,-1.9e-4 0.88017,-4e-5 1.32031,0 0.52008,-4e-5 1.03853,0 1.5586,0 h 1.92382 2.13477 2.20117 4.01758 4.47266 3.60156 3.17773 1.42969 c 0.0894,0 0.18005,-0.0189 0.26758,0 0.47146,0.0983 0.93707,0.22479 1.4043,0.34179 -0.005,-0.009 -0.0144,-0.018 0.006,-0.0293 0.12468,-0.0786 0.29022,0.0461 0.43359,0.0801 0.21505,0.051 0.42549,0.12318 0.64062,0.17382 0.0418,0.0113 -0.0901,-0.0229 -0.11914,-0.0527 -0.0117,-0.0113 0.03,-0.0178 0.0449,-0.0254 0.52253,0.008 1.02186,0.16792 1.53515,0.23633 0.0609,0.008 0.12424,0.008 0.18555,0.004 0.007,-4.9e-4 -0.0205,-0.0194 -0.0137,-0.0156 1.31299,0.20598 0.88662,0.0909 1.69336,0.35547 -0.10405,-0.0378 -0.42102,-0.13407 -0.3125,-0.11328 0.26241,0.0508 0.51845,0.12653 0.77734,0.19335 0.45415,-0.0613 0.91266,-0.035 1.36914,-0.0351 0.29284,0.0378 0.59,0.0422 0.87695,0.11133 0.29765,0.0719 0.37409,0.0999 0.55274,0.14843 0.11114,0.0205 0.26206,0.0597 0.3418,0.0742 0.29849,0.0586 0.59263,0.14222 0.88867,0.21289 -0.0505,-0.0707 0.053,0.0649 -0.14258,-0.0605 -0.0125,-0.008 0.0263,-0.0118 0.041,-0.0156 0.0503,-0.008 0.10193,-0.0212 0.15235,-0.0137 1.01961,0.14476 1.1383,0.16869 1.77148,0.29492 0.36318,0.0419 0.69838,0.2342 1.06055,0.28711 0.0573,0.008 -0.11702,-0.032 -0.16211,-0.0664 -0.0136,-0.0113 0.0255,-0.0293 0.043,-0.0293 0.23736,0.0115 0.47387,0.0355 0.71094,0.0527 0.0152,-0.56086 0.024,-1.1411 0.006,-1.83984 -0.004,-0.11981 0.23829,-0.0305 0.35742,-0.043 0.11678,-0.0113 0.23423,-0.01 0.35156,-0.0117 0.0223,-0.0674 0.15805,-0.0219 0.26953,-0.002 0.09,0.003 0.17979,0.008 0.26953,0.0137 0.11781,-1.7e-4 0.23571,1.5e-4 0.35352,0 0.0811,-0.033 0.16262,-0.0638 0.24414,-0.0957 0.22239,-0.0323 0.44552,-0.0657 0.66797,-0.0977 -0.85375,-0.41395 0.15572,-0.22917 1.05469,-0.041 0.0142,-0.004 0.0172,-0.006 0.0312,-0.01 0.29757,-0.0771 1.53087,-0.32177 1.78321,-0.35352 0.0621,-0.008 0.12221,0.0476 0.18359,0.0352 0.1666,-0.034 0.322,-0.11361 0.48242,-0.16992 0.95863,-0.41132 0.97227,-0.42056 1.12891,-0.46289 -0.79585,-2.23474 0.3794,-4.03874 2.31055,-4.17969 1.19511,-0.0872 2.67712,0.46228 4.15429,1.93945 v -0.006 c 0.1714,0.17138 0.34229,0.34251 0.51368,0.51367 0.004,0.001 0.009,-1.5e-4 0.0137,0.002 0.36495,0.10129 0.68321,0.32801 1.02148,0.49804 0.0154,0.008 0.0297,0.0173 0.0449,0.0254 0.2486,0.0168 0.49732,0.14435 0.7461,0.19531 2.19651,0.89223 0.45862,0.14653 1.49804,0.64648 0.005,0.002 -0.008,-0.0137 -0.004,-0.0137 0.31952,0.19087 0.63146,0.39277 0.95312,0.58008 0.034,0.0189 -0.0584,-0.0521 -0.0879,-0.0781 0.11369,0.0732 0.22618,0.14738 0.33985,0.22071 -0.0204,-0.0176 -0.0419,-0.033 -0.0566,-0.0625 -0.0215,-0.0427 0.0951,-0.0214 0.14257,-0.0176 0.19386,0.0189 0.39243,0.0221 0.57618,0.0859 0.89103,0.31194 1.16141,0.43069 1.44726,0.59765 0.0618,0.0237 0.0774,0.0272 0.11719,0.0371 0.0162,0.004 -0.0589,-0.0349 -0.043,-0.0273 0.97435,0.33978 0.95443,0.31889 1.73828,0.72265 -0.11146,-0.0597 -0.45675,-0.21515 -0.33594,-0.17773 0.37505,0.11565 1.2438,0.51117 1.58203,0.75586 0.0114,0.008 0.0254,0.0154 0.0371,0.0234 0.55239,0.16157 1.07322,0.36133 1.61133,0.57617 0.0266,0.006 0.0535,0.0111 0.0801,0.0176 0.006,0.003 0.0102,0.008 0.0137,0.0137 0.27495,0.0646 0.67124,0.18655 0.86133,0.27148 0.10487,-0.0824 0.2698,0.0283 0.4043,0.041 0.2409,0.0431 0.48119,0.0892 0.72265,0.1289 0.0622,0.0113 0.12454,0.0197 0.1875,0.0234 0.0102,4.9e-4 0.0371,-0.008 0.0274,-0.0117 -0.10738,-0.0113 -0.068,-0.003 -0.11524,-0.0156 0.38613,0.0265 0.77208,0.0512 1.15821,0.0762 0.27397,0.0794 0.54591,0.1676 0.82226,0.23828 0.0106,0.003 -0.028,-0.0746 -0.0234,-0.0742 0.93476,0.14363 1.24608,0.20479 2.00782,0.34766 0.1172,0.0113 0.23368,0.0345 0.35156,0.0391 0.0872,0.002 0.20937,-0.0409 0.29883,-0.0488 0.4671,-0.0431 0.93366,-0.0623 1.40234,-0.0684 -0.11538,0.27092 0.40439,0.0768 0.80274,-0.0273 0.15006,-0.0528 0.49676,-0.14079 0.62109,-0.15625 0.23827,-0.17826 0.52308,-0.30656 1.23633,-0.58594 0.46367,-0.18141 0.89697,-0.2131 1.3789,-0.32422 0.0665,-0.0151 -0.13596,0.008 -0.20312,0.0195 0.8593,-0.3326 0.10816,-0.0606 1.2207,-0.39844 0.0602,-0.0189 0.11558,-0.0483 0.17578,-0.0664 0.56702,-0.17216 0.85159,-0.23116 1.49024,-0.27148 0.10556,-0.0512 0.20235,-0.083 0.30273,-0.12696 -0.0606,0.0358 -0.1204,0.0756 -0.17969,0.12305 0.25719,-0.008 0.51602,0.0141 0.77344,0.0176 -0.16115,-0.21775 -0.31615,-0.24151 -0.4668,-0.19336 0.36591,-0.15084 0.72553,-0.27227 1.16797,-0.33594 0.14443,-0.0208 0.29143,-0.0165 0.4375,-0.0195 -0.0147,7.8e-4 -0.037,0.007 -0.0273,-0.006 0.0604,-0.0763 0.1663,-0.10377 0.25391,-0.14648 0.23299,-0.11358 0.47094,-0.2132 0.70703,-0.32032 -0.10972,0.0645 -0.27236,0.15732 -0.20117,0.12305 0.26021,-0.12547 0.50873,-0.27454 0.76562,-0.40625 0.0311,-0.0305 0.0665,-0.0817 0.0957,-0.10547 0.34414,-0.28087 0.72319,-0.51518 1.08594,-0.77148 -0.16458,0.0493 -0.21199,0.0614 0.0254,-0.0195 -0.009,0.006 -0.0167,0.0134 -0.0254,0.0195 0.24811,-0.0744 0.8017,-0.23817 1.37695,-0.375 0.10706,-0.104 0.21835,-0.19655 0.33985,-0.25391 0.12151,-0.0783 0.24643,-0.15262 0.36523,-0.23437 -0.0181,0.0121 -0.185,0.13049 -0.29492,0.20508 0.0166,-0.005 0.0318,-0.0157 0.0488,-0.0195 0.3264,-0.0741 0.79294,-0.48109 0.98242,-0.20507 0.18709,0.2725 -0.64953,0.12735 -0.96289,0.23242 -0.13059,0.0437 -0.38024,0.224 -0.39063,0.2168 -0.0259,0.0199 -0.0344,0.0333 -0.0586,0.0527 0.57906,-0.13648 1.14114,-0.23571 1.32227,-0.14453 0.97834,-0.39877 1.94245,-0.87338 2.92187,-0.63672 0.6741,0.16288 1.10565,0.56963 1.38281,1.07812 0.55854,0.10183 0.80482,0.25694 1.83008,0.70313 0.003,0.001 0.0444,0.018 0.0527,0.0215 0.40237,0.0195 0.80478,0.0461 1.20703,0.0684 0.29563,-0.0401 0.5651,0.16085 0.85547,0.16993 0.0477,0.002 -0.18181,-0.0345 -0.13672,-0.0488 0.10144,-0.034 0.21493,-0.0119 0.32226,-0.0156 0.5519,-0.0227 0.62874,-0.0212 1.18555,-0.0371 1.65531,-0.003 3.31145,0.01 4.9668,0.006 3.15858,-0.004 6.31603,-5.3e-4 9.47461,0 h 1.23828 c 0.40476,0 0.81008,-0.002 1.21484,-0.002 0.19514,0 0.39079,3e-5 0.58594,0 0.003,-0.0679 0.12192,-0.0117 0.19922,-0.004 0.0731,-0.01 0.18273,-0.0615 0.18359,0.004 0.19038,-1e-5 0.37994,0 0.57031,0 h 0.94922 c 0.38143,-1.42276 2.00691,-2.69878 4.9043,-2.76758 1.17561,-0.0265 2.17198,0.13607 3.18945,0.89648 0.37933,0.28342 0.64502,0.68959 0.91016,1.0879 0.0532,0.0566 0.10472,0.1206 0.16016,0.1582 0.14724,0.12452 0.12229,0.11454 0.1914,0.17187 0.12819,0.0322 0.25654,0.064 0.38477,0.0957 0.31256,0.0642 0.62069,0.15518 0.9375,0.19336 0.27224,0.034 1.37458,-0.0449 1.54492,-0.0547 1.08858,-0.0627 2.17359,-0.12891 3.26367,-0.15235 1.27216,0.0265 2.54402,0.0539 3.81641,0.041 0.1336,-0.001 0.26781,-0.0159 0.40039,-0.002 0.56136,0.0707 1.11207,0.21687 1.67578,0.26562 0.14521,0.0113 0.29175,0.0195 0.4375,0.0195 0.10345,0.002 0.20617,-0.0187 0.30859,-0.008 0.46239,0.0654 0.9193,0.16528 1.37891,0.24805 0.799,0.11452 1.56964,0.39218 2.37109,0.49219 0.16245,0.0189 0.65433,-0.0343 0.78711,-0.0449 0.29957,-0.0227 0.59873,-0.0389 0.89844,-0.0566 2.07205,-0.11149 4.15052,-0.029 6.22461,-0.0215 2.59313,-0.008 5.18616,-0.008 7.7793,-0.008 2.78169,0.002 5.56205,1.1e-4 8.34375,0 2.98015,1.5e-4 5.96128,3e-5 8.9414,0 h 8.42188 5.44726 c 0.56087,-0.21885 1.19898,-0.39068 1.94336,-0.48047 v 0.002 c 1.08744,-0.13131 2.18259,-0.10758 3.27539,-0.0918 0.095,-0.0165 0.18901,-0.0412 0.28516,-0.0488 0.0406,-0.003 0.0788,0.003 0.11914,0 0.0717,-0.0241 0.1132,-0.0502 0.19336,-0.0742 0.482,-0.14476 1.00367,-0.0655 1.50586,-0.0977 0.91092,-0.0582 1.42501,0.0379 1.66211,0.24023 2.09503,-0.003 4.19018,-0.009 6.28515,-0.006 4.8624,0.003 9.72549,1.5e-4 14.5879,0 2.79249,-0.19465 2.78591,-0.0787 5.24218,-0.61329 0.66331,-0.14437 1.30085,-0.40459 1.97266,-0.50195 0.96911,-0.1406 1.9538,-0.15683 2.93164,-0.20898 1.32688,-0.0707 2.24123,-0.0575 3.52344,-0.0586 0.0446,-0.0264 0.0825,-0.0665 0.13281,-0.082 0.16403,-0.0506 0.3324,-0.088 0.50195,-0.11328 0.79797,-0.11943 1.25301,-0.16513 2.02539,-0.15039 0.20183,0.004 0.89185,0.0577 1.16016,0.0781 0.79158,0.0151 1.58315,-0.0156 2.375,-0.0156 1.955,0.008 3.91024,0.004 5.86523,0.004 2.09545,-5.3e-4 4.18971,0 6.28516,0 0.8586,3e-5 1.71758,-8e-5 2.57617,0 h 0.0723 c 0.36367,2e-5 0.69933,0.0286 1.02344,0.0664 -5.01191,-18.83647 -25.76676,-93.315414 -26.1836,-93.732415 -0.39144,-0.391465 -90.7894,-0.684151 -158.68555,-0.697266 z m -4.66992,98.277345 c -0.007,-0.002 -0.0218,-0.004 -0.0293,-0.006 0.0119,0.005 0.0233,0.009 0.0351,0.0137 0.003,0.001 -0.004,-0.005 -0.006,-0.008 z m -0.0293,-0.006 c -0.0219,-0.009 -0.0426,-0.0167 -0.0645,-0.0254 -0.20911,-0.0489 -0.41913,-0.0927 -0.6289,-0.13867 0.48141,0.11033 0.51538,0.12256 0.69336,0.16406 z m -21.99414,-1.92188 c -0.0206,0.006 -0.0251,0.0101 -0.0449,0.0156 0.0491,0.004 0.0914,-0.002 0.14063,0.004 -0.0435,-0.009 -0.0492,-0.01 -0.0957,-0.0195 z m -0.0449,0.0156 c -0.24769,-0.022 -0.49857,-0.0399 -0.70898,-0.0195 -0.10077,0.01 -0.20057,0.0305 -0.30078,0.0449 0.10634,0.0516 0.17984,0.0918 0.36133,0.16602 -0.0299,0.0186 -0.0257,0.0186 -0.0391,0.0273 0.01,-1e-5 0.0195,1e-5 0.0293,0 0.0963,-0.0392 0.33187,-0.12779 0.6582,-0.21875 z M 233.17969,60.605469 c -0.002,-0.0021 0.09,-0.415388 0.28906,-1.322266 0.0347,-0.157991 0.0345,-0.253076 0.0566,-0.388672 v -0.83789 -0.394532 c -0.41572,-0.886438 -2.20176,0.66596 -3.85937,1.980469 0.057,-0.0151 0.1305,-0.03453 0.19726,-0.04297 0.19332,-0.02551 0.39099,-0.096 0.58399,-0.09961 0.0643,-0.0012 0.12889,0.0037 0.1914,0.02148 0.46041,0.13079 0.68784,0.210103 1,0.304688 0.14564,-0.01839 0.29245,-0.03173 0.4375,-0.05273 -0.0422,-0.11455 -0.0676,-0.162901 0.008,0 -0.003,3.44e-4 -0.005,-3.71e-4 -0.008,0 0.0197,0.05351 0.0363,0.117825 0.0664,0.205078 0.54062,0.185848 0.82691,0.354325 1.03515,0.626953 z m -3.51367,-0.962891 -0.002,0.002 c -0.0192,0.01525 -0.0394,0.02974 -0.0586,0.04492 0.15898,-0.02938 0.32008,-0.05504 0.46875,-0.101562 -0.0607,0.0038 -0.12346,0.004 -0.1836,0.01172 -0.0757,0.01093 -0.14987,0.02914 -0.2246,0.04297 z m 107.3496,-9.242187 c 0.35909,0 0.6543,0.293288 0.6543,0.652343 0,0.359244 -0.2952,0.652344 -0.6543,0.652344 -0.35881,0 -0.65234,-0.293289 -0.65234,-0.652344 0,-0.359206 0.2935,-0.652343 0.65234,-0.652343 z m 14.76368,2.207031 c 0.078,-0.0034 0.16413,0.02257 0.2539,0.07813 0.35909,0.221896 0.65235,0.679688 0.65235,1.017578 0,0.337739 -0.29325,0.613281 -0.65235,0.613281 -0.35906,0 -0.65234,-0.457792 -0.65234,-1.017578 0,-0.419981 0.16431,-0.681102 0.39844,-0.691406 z M 38.666016,59.777344 c -0.01829,0.06105 -0.06456,0.260003 -0.111328,0.447265 0.0065,2.68e-4 0.01301,-2.77e-4 0.01953,0 0.03552,-0.147789 0.0613,-0.298176 0.0918,-0.447265 z m -0.109375,0.53125 c -0.01895,0.03966 -0.037,0.0798 -0.05664,0.11914 0.02699,-0.05065 0.04314,-0.07029 0.05469,-0.109375 9.36e-4,-0.0032 8.59e-4,-0.0066 0.002,-0.0098 z m 132.402339,6.009765 c 1.19374,0 2.38672,1.181432 2.38672,3.544922 v 6.59961 1.83789 c 0,0.349985 0.0197,0.699562 0,1.048828 -0.0506,0.9024 -0.196,1.767265 -0.39258,2.644532 -0.0391,0.11403 -0.078,0.227845 -0.11718,0.341797 0.005,0.02759 0.001,-0.0018 0.0273,0.154296 0.008,0.08957 0.0171,0.178005 0.0254,0.267578 0.14791,1.572065 -0.39935,1.585908 -1.16797,1.09961 -0.005,0.08263 -0.003,0.159102 -0.0117,0.24414 -0.0487,0.481361 -0.0404,0.335435 -0.0469,1.007813 -0.0106,1.117153 0.0557,0.930164 -0.15625,2.242187 -0.16471,1.019906 -0.39349,1.792011 -0.65625,2.791016 -0.45646,2.170016 0.0579,-0.326868 -0.33399,1.722656 -0.0698,0.364725 -0.16555,0.724503 -0.2207,1.091797 -0.16747,1.115225 -0.0523,0.793686 -0.10742,1.789063 -0.0185,0.335244 -0.0573,0.669267 -0.0859,1.003906 -0.02,0.311433 -0.048,0.621934 -0.0605,0.933594 -0.0147,0.364346 0.002,0.728017 -0.0215,1.091797 -0.0261,0.408189 -0.0834,0.813837 -0.125,1.220703 -0.0321,0.314456 -0.056,0.629772 -0.0957,0.943359 -0.0502,0.397307 -0.12783,0.791657 -0.17383,1.189457 -0.0432,0.37417 -0.0624,0.74976 -0.0937,1.125 -0.16626,0.60604 -0.15258,1.23625 -0.24805,1.85156 -0.0569,0.36661 -0.13615,0.73064 -0.20312,1.0957 -0.0503,0.27402 -0.17232,1.07152 -0.29492,1.33594 -0.1523,0.32837 -0.35575,0.63031 -0.54493,0.93945 -0.006,0.0167 -0.0271,0.0827 -0.0312,0.0898 0.002,-0.0134 2e-5,-0.0256 -0.004,-0.0371 -0.0137,0.0227 -0.0276,0.0455 -0.041,0.0684 -0.0381,0.019 -0.0785,0.0345 -0.11718,0.0527 -0.002,0.008 -0.004,0.0156 -0.006,0.0234 -0.003,0.0209 -0.007,0.0416 -0.01,0.0625 0.0729,-0.0564 0.1552,-0.11526 0.16992,-0.14649 -0.018,0.0243 -0.0691,0.12 -0.1914,0.30274 -0.006,0.0436 -0.0117,0.0873 -0.0176,0.13086 0.009,-0.0113 0.0121,-0.0202 0.0195,-0.0293 0.0107,-0.013 -0.0199,0.0353 -0.0234,0.0449 -0.0201,0.14981 -0.0379,0.3001 -0.0625,0.44922 -0.0125,0.0748 -0.0324,0.14845 -0.0606,0.21875 -0.0301,0.0751 -0.0651,0.14858 -0.0976,0.22266 -0.22713,1.559 -1.00112,1.79576 -3.91602,1.61914 -0.81083,-0.0491 -0.93041,-1.77522 -0.86328,-2.33985 0.004,-0.0326 0.0173,-0.0635 0.0234,-0.0957 -3.7e-4,-0.0189 -0.002,-0.0378 -0.002,-0.0566 -0.0251,-1.50829 0.44813,-2.53617 1.10351,-3.0918 0.0654,-0.12166 0.13581,-0.24124 0.2207,-0.35156 0.018,-0.10748 0.0361,-0.21526 0.0566,-0.32226 0.0457,-0.23811 0.10979,-0.4732 0.14649,-0.7129 0.0476,-0.31065 0.072,-0.62339 0.10742,-0.93554 0.0431,-0.26797 0.0858,-0.53668 0.12891,-0.80469 0.0425,-0.46911 0.0731,-0.93831 0.12695,-1.40625 0.0253,-0.22078 0.064,-0.440312 0.0996,-0.660156 -0.33057,-1.40499 -0.64488,-2.703789 -1.01172,-4.355468 l -2.10937,-9.501954 3.70507,-6.822265 c 1.34151,-2.469207 2.25684,-4.089647 2.98829,-5.310547 v -3.917969 c 0,-2.36349 1.19298,-3.544922 2.38671,-3.544922 z m -2.91796,41.355471 c 0.001,-0.008 0.003,-0.0156 0.004,-0.0234 -0.0908,0.0426 -0.18286,0.0832 -0.27539,0.12305 0.002,0.0457 0.009,0.0861 0.01,0.13281 0.0964,-0.061 0.1911,-0.12343 0.24414,-0.16406 0.006,-0.0228 0.012,-0.0455 0.0176,-0.0684 z m 0.004,-0.0234 h 0.002 c 0.006,-0.0241 0.0117,-0.0482 0.0176,-0.0723 0.003,-0.0465 0.0168,-0.18673 0.01,-0.14062 -0.0108,0.0708 -0.0195,0.14195 -0.0293,0.21289 z m 65.58594,-40.568359 c -0.002,0.0046 -1.1e-4,0.163165 0,0.292969 -0.002,-0.125522 0.0366,-0.368625 0,-0.292969 z m 131.10937,0.423828 c 0.14147,-0.01875 0.2817,-0.01712 0.41993,0.0059 1.42173,0.228947 2.63491,2.590899 2.87109,6.34375 v 0.002 c 0.0271,0.430329 -0.0125,0.86818 0.0234,1.298828 0.39068,0.63736 0.456,0.745892 0.74219,2.109375 0.0212,0.101291 0.0254,0.205305 0.0547,0.304687 0.004,0.01512 0.0334,0.0082 0.041,0.01953 0.0495,0.08466 0.0902,0.174538 0.12695,0.265625 0.0748,0.184819 0.1394,0.373762 0.20899,0.560547 0.0687,0.306519 0.19117,0.606221 0.20507,0.919922 0.0426,0.957774 0.005,1.074755 -0.043,1.21875 0.14814,0.529092 0.21133,1.071537 0.23047,1.625 0.25436,0.630209 0.35525,1.208807 0.33985,1.876953 0.24212,0.558287 0.36999,1.144241 0.45703,1.748047 0.0238,0.16439 0.0243,0.332768 0.041,0.498046 0.0449,0.439975 -0.0491,0.503857 0.0937,0.373047 0.16241,0.594558 0.25383,0.842599 0.30274,1.519531 0.0265,0.365103 0.01,0.733487 0.004,1.09961 -0.007,0.315408 -0.0392,0.468847 -0.0625,0.582031 0.33367,0.696173 0.45277,1.275043 0.51562,2.072266 0.0234,0.295559 -0.006,0.59247 -0.0195,0.888672 -0.009,0.201448 -0.0678,0.402596 -0.0488,0.603515 0.01,0.104315 0.0509,-0.20264 0.0762,-0.304687 0.19858,0.83108 0.32231,1.659411 0.32813,2.515625 0.002,0.32852 -0.0219,0.658969 -0.0488,0.988281 0.017,0.08972 0.0352,0.190865 0.0488,0.246094 0.13043,0.52989 0.20166,0.965817 0.20117,1.515625 -1.3e-4,0.14955 -0.0245,0.294664 -0.0391,0.441406 0.1933,0.149879 0.37569,0.331299 0.54687,0.509766 0.0116,0.01174 0.0159,0.01776 0.0274,0.0293 1.08236,1.093729 1.23309,1.273209 0.47461,1.306639 0.33899,0.62445 0.67219,1.25213 0.98828,1.88867 1.20997,0.19077 1.67045,0.40593 0.33984,0.67969 0.0604,0.1205 0.12061,0.24123 0.18164,0.36133 3.02855,5.95956 -2.99562,8.97051 -6.04102,3.01953 -0.51759,-1.01177 -0.99188,-2.05061 -1.55664,-3.03711 -0.17289,-0.16288 -0.25218,-0.24045 -0.53906,-0.5 0.0841,0.11406 0.16618,0.2297 0.22656,0.35742 0.0955,0.20183 -0.30758,-0.32724 -0.43359,-0.51171 -0.52755,-0.77224 -0.49345,-0.90269 -0.85351,-1.82032 -0.005,-0.0371 -0.0102,-0.0742 -0.0156,-0.11133 -0.0214,-0.0442 -0.031,-0.0465 -0.0566,-0.10546 -6.3e-4,-0.001 -1.5e-4,-0.003 -0.002,-0.004 -0.0333,-0.0701 -0.0976,-0.21134 -0.14258,-0.31836 -0.007,-0.0135 -0.0175,-0.0397 -0.0234,-0.0508 -0.0367,-0.0869 -0.0728,-0.17479 -0.10937,-0.26172 -0.61866,-1.467673 -0.41498,-2.039815 0.20898,-2.146485 -0.0752,-0.417808 -0.14817,-0.835915 -0.22266,-1.253906 0.0227,-0.335622 0.0283,-0.460839 0.0586,-0.808594 0.008,-0.09562 0.0145,-0.19029 0.0293,-0.285156 0.005,-0.03024 0.0331,-0.05967 0.0312,-0.0918 -0.004,-0.055 -0.0325,-0.165763 -0.0488,-0.263672 -2.44111,-4.593455 -5.01172,-9.789073 -5.01172,-10.46289 0,-0.738826 1.09128,-3.858921 2.21875,-6.697266 -1.2e-4,-0.03976 0.003,-0.07929 0.0176,-0.117187 -0.145,-0.216428 -0.29043,-0.43201 -0.4043,-0.666016 -0.25909,-0.53246 -0.37527,-1.803129 -0.39649,-2.355469 -0.0513,-1.334816 0.063,-2.668938 0.52149,-3.931641 0.8735,-2.40537 1.92579,-3.558194 2.91601,-3.689453 z M 35.347656,73.109375 c -8.67e-4,0.0015 -0.003,0.0024 -0.0039,0.0039 v 0.002 c -0.0022,0.02219 -0.0018,0.01802 -0.0039,0.03906 0.0067,-0.01174 0.0064,-0.02914 0.0078,-0.04492 z m 332.740234,2.259766 c 0.0132,0.08609 0.0204,0.172729 0.043,0.257812 0.0102,0.03817 0.0407,-0.07857 0.0254,-0.115234 -0.0202,-0.04871 -0.0468,-0.09448 -0.0684,-0.142578 z M 34.572266,75.716797 c -0.0056,0.01011 -0.0062,0.01165 -0.01172,0.02148 5.61e-4,0.0027 0.0055,0.003 0.0059,0.0059 0.0018,-0.0046 0.0041,-0.02236 0.0059,-0.02734 z m -0.01172,0.02148 c -0.001,-0.005 -0.0079,-0.0072 -0.0098,-0.01172 2.38e-4,9.37e-4 -0.0035,0.0093 -0.0039,0.01172 4.69e-4,0.0083 -4.15e-4,0.01521 0,0.02344 0.0059,-0.01052 0.0076,-0.01253 0.01367,-0.02344 z m -0.01367,0.02344 c -0.0083,0.01493 -0.01165,0.01917 -0.01953,0.0332 -0.01316,0.03542 -0.01127,0.04544 -0.02148,0.06641 -0.03497,0.07129 -0.07436,0.140628 -0.111328,0.210938 0.03781,-0.05114 0.07187,-0.09947 0.09961,-0.146485 0.0098,-0.01489 0.04109,-0.06996 0.04883,-0.08398 0.0019,-0.0034 0.0041,-0.02 0.0059,-0.02344 -4.6e-4,-0.01916 -8.08e-4,-0.03676 -0.002,-0.05664 z m -0.220703,0.3125 c -0.188358,0.296113 -0.248367,0.389791 -0.109375,0.242187 0.05827,-0.07702 0.108274,-0.150035 0.173828,-0.238281 -0.0078,-6.52e-4 -0.01561,-0.0013 -0.02344,-0.002 -0.0041,0.0045 -0.06282,0.11473 -0.05664,0.09961 0.01422,-0.03475 0.03698,-0.06548 0.05273,-0.09961 -0.01238,-10e-4 -0.02471,-8.48e-4 -0.03711,-0.002 z m 0.06445,0.0039 c -0.02182,0.04144 -0.04228,0.08373 -0.06445,0.125 0.0079,-0.0085 0.0091,-0.01038 0.01758,-0.01953 0.02764,-0.04958 0.04247,-0.07354 0.0625,-0.105469 -0.0045,-3.86e-4 -0.0091,3.8e-4 -0.01367,0 z m -1.197266,1.105469 c -0.17738,-0.0044 -0.415051,0.07595 -0.679687,0.195312 -0.0099,0.03509 -0.01747,0.06449 -0.02734,0.09961 0.358011,0.228021 0.674962,0.586634 0.916016,1.066406 0.05138,-0.166474 0.07472,-0.291782 0.103515,-0.425781 -0.135417,0.148742 -0.189897,0.192014 0.02539,-0.111329 0.107096,-0.589649 -0.03828,-0.81679 -0.337891,-0.824218 z m 0.53711,0.675781 c -0.0031,0.0039 -0.0066,0.0058 -0.0098,0.0098 -0.0071,0.01136 -0.01028,0.01559 -0.01758,0.02734 0.007,-0.0087 0.0102,-0.01122 0.02148,-0.02539 0.0019,-0.0039 0.004,-0.0078 0.0059,-0.01172 z m 350.679693,3.492187 c 0.48465,0.03426 0.92187,0.510841 0.92187,1.148438 0,0.299187 -0.27734,0.544922 -0.61523,0.544922 -0.88611,0 -1.46818,-1.152902 -0.79297,-1.570313 0.15784,-0.09755 0.32477,-0.134441 0.48633,-0.123047 z M 172.81641,82.39257 c -0.0266,0.07753 -0.0534,0.154883 -0.0801,0.232422 0.0132,-0.01512 0.0327,-0.02325 0.041,-0.04102 0.0189,-0.0378 0.0316,-0.07952 0.0391,-0.121093 0.004,-0.02012 -3.4e-4,-0.04337 0,-0.07031 z m 270.36914,4.792969 c 0.078,0.01312 0.16414,0.04796 0.2539,0.103515 0.35921,0.22201 0.65235,0.533045 0.65235,0.691407 0,0.158362 -0.29329,0.287109 -0.65235,0.287109 -0.35924,0 -0.65234,-0.311299 -0.65234,-0.691406 0,-0.285165 0.16431,-0.429991 0.39844,-0.390625 z m -72.39844,2.75 c -0.0256,0.131883 -0.0206,0.189019 0.11914,0.371094 -0.024,-0.08354 -0.0778,-0.243122 -0.11914,-0.371094 z m -167.78906,1.710937 c 0.077,-0.01557 0.17564,-0.0045 0.29492,0.03516 0.42615,0.142089 0.89265,0.60936 1.03515,1.035156 0.38928,1.172679 -0.95892,0.92626 -1.41406,-0.259766 -0.18301,-0.476929 -0.14714,-0.763837 0.084,-0.810547 z m 33.88672,0.757813 c 0.14553,0.03048 0.23828,0.155455 0.23828,0.357422 0,0.359093 -0.29521,0.834404 -0.6543,1.05664 -0.35908,0.222274 -0.65234,0.109055 -0.65234,-0.25 0,-0.35913 0.29325,-0.834782 0.65234,-1.05664 0.0898,-0.05557 0.17586,-0.09035 0.25391,-0.105469 0.0585,-0.01134 0.11359,-0.01091 0.16211,-0.002 z M 30.71875,93.916016 c -0.03016,0.458966 -0.01787,0.48467 -0.01758,0.660156 0.02726,-0.11792 0.03512,-0.225439 0.03516,-0.525391 5e-6,-0.04535 -0.01463,-0.179742 -0.01758,-0.134765 z m -0.06641,0.832031 c -0.0039,0.0091 -0.0078,0.01823 -0.01172,0.02734 -0.0045,0.02268 -0.02051,0.08291 -0.01367,0.0625 0.01579,-0.0471 0.01377,-0.05456 0.02539,-0.08984 z m 224.85157,0.869141 c 0.40183,0.05741 0.85487,0.410339 1.05664,1.015624 0.14214,0.426482 -0.20682,0.775391 -0.77539,0.775391 -0.56858,0 -1.03516,-0.464611 -1.03516,-1.033203 0,-0.576435 0.35208,-0.815224 0.75391,-0.757812 z m -87.86524,12.214842 c -0.36079,0.15369 -0.72069,0.3083 -1.03125,0.54297 -0.27866,0.21052 0.6874,-0.17002 0.98828,-0.34766 0.0359,-0.0212 0.0325,-0.0237 0.0645,-0.043 -0.008,-0.0515 -0.0106,-0.10158 -0.0215,-0.15235 z m 0.33203,0.12891 c -0.0419,0.0649 -0.1128,0.18813 -0.17773,0.30078 4.9e-4,0.0124 9.5e-4,0.0247 0.002,0.0371 0.049,-0.0685 0.10113,-0.13576 0.14258,-0.20703 0.0107,-0.0437 0.0225,-0.0872 0.0332,-0.13086 z m -0.25586,0.43554 c -0.028,0.0503 -0.0326,0.0507 -0.0645,0.10938 -0.0183,0.0338 0.0597,-0.0859 0.0664,-0.0937 -2.4e-4,-0.005 -0.002,-0.0106 -0.002,-0.0156 z m 62.47852,15.22461 c -0.011,0.0441 -0.0209,0.0887 -0.0312,0.13282 0.003,-0.009 0.007,-0.0167 0.01,-0.0254 0.0101,-0.0351 0.01,-0.0492 0.0215,-0.10743 z m -0.19531,1.02735 c -0.0395,0.11779 -0.0536,0.17828 -0.13672,0.41601 -0.0438,0.12511 0.0877,-0.25147 0.13086,-0.37695 0.002,-0.013 0.004,-0.026 0.006,-0.0391 z m -0.89649,5.15625 c -0.16043,0.40214 -0.0327,0.16641 -0.0156,0.0918 0.007,-0.0303 0.009,-0.0613 0.0156,-0.0918 z m -163.169923,4.83984 c -0.03841,0.0219 -0.04759,0.0261 -0.06836,0.043 -0.03553,0.0302 -0.12147,0.13652 -0.08594,0.10742 0.0557,-0.0455 0.100991,-0.10224 0.154297,-0.15039 z m -1.091797,0.90625 c 0.005,0.004 -0.0507,0.0397 -0.07031,0.0644 -0.05458,0.0688 -0.216003,0.27538 -0.15039,0.2168 0.083,-0.0741 0.136328,-0.17636 0.205078,-0.26367 0.0091,-0.0115 0.0072,-0.007 0.01563,-0.0176 z m 220.68555,2.24805 c 0.35562,0.0496 0.71504,0.0815 1.07031,0.13281 -0.34265,-0.0901 -0.70764,-0.0914 -1.07031,-0.13281 z m -222.978519,0.40039 c -0.01505,0.013 -0.03005,0.0259 -0.04492,0.0391 0.02464,-0.005 0.04971,-0.008 0.07422,-0.0137 -0.01151,-0.007 -0.01868,-0.0176 -0.0293,-0.0254 z m 257.048829,1.05469 c -0.0758,0.006 -0.15103,0.0269 -0.22461,0.0488 -0.14906,0.13237 -0.24144,0.24037 -0.0644,0.21875 0.26478,-0.0325 0.52783,-0.1031 0.78906,-0.1875 -0.17436,-0.0463 -0.34931,-0.0934 -0.5,-0.0801 z m -0.24609,0.0527 c -0.0968,0.0306 -0.19014,0.0687 -0.2793,0.11524 -0.17658,0.0923 -0.28348,0.17985 -0.41992,0.27539 0.26953,0.0341 0.48324,-0.17403 0.69922,-0.39063 z m -39.27539,0.74414 c -0.19939,-0.003 -0.37417,0.24145 -0.51758,0.88867 0.37817,7e-5 0.75649,10e-6 1.13477,0 -0.17966,-0.27803 -0.32704,-0.55245 -0.44727,-0.82226 -0.0578,-0.0298 -0.11555,-0.0656 -0.16992,-0.0664 z m 38.31445,0.0703 c 0.007,-0.002 -0.0756,0.006 -0.29101,0.0215 -0.0366,0.0135 -0.0267,0.009 -0.0606,0.0215 0.18826,-0.0242 0.34323,-0.0411 0.35156,-0.043 z m -26.71875,0.0176 c 0.0182,0.0118 0.0365,0.0234 0.0547,0.0352 0.088,-0.0215 0.0249,-0.007 -0.0547,-0.0352 z m 24.20117,1.07813 c -0.19699,-0.0227 -0.0898,-0.0172 -0.38086,0.004 -0.0185,0.001 -0.0498,0.009 -0.0781,0.0156 0.1533,-0.002 0.30605,-0.0131 0.45898,-0.0195 z m -50.35742,0.67578 c 0.0247,0.006 0.0495,0.0117 0.0742,0.0176 0.0479,0.0113 0.0976,0.029 0.14649,0.0215 0.0276,-0.004 -0.0488,-0.0256 -0.0762,-0.0332 -0.0703,-0.0116 -0.10096,-0.002 -0.14453,-0.006 z m -182.42383,0.0742 c 0.08404,0.0515 0.167018,0.1043 0.251953,0.15429 0.07703,0.0454 -0.148137,-0.10144 -0.226563,-0.14453 -0.0055,-0.003 -0.01796,-0.007 -0.02539,-0.01 z m 216.50782,1.03906 c 0.0571,0.0235 0.0306,0.0133 0.10546,0.043 0.0102,0.004 -0.006,-0.0236 -0.0156,-0.0274 -0.0202,-0.008 -0.0592,-0.01 -0.0898,-0.0156 z m 8.91211,0.31641 c 0.026,0.002 0.1391,0.008 0.21289,0.0117 0.0554,-0.005 0.0337,-0.004 0.0976,-0.01 -0.29274,-0.007 -0.36406,-0.006 -0.31054,-0.002 z m -1.32032,0.91796 c -0.0263,0.0188 -0.0331,0.0213 -0.0605,0.041 -0.0731,0.0525 -0.16203,0.16678 -0.24414,0.28125 0.12984,-0.13319 0.20706,-0.21778 0.30468,-0.32227 z"
         style="fill:url(#linearGradient962);fill-opacity:1;stroke-width:0.65290231"
         transform="matrix(0.26458333,0,0,0.26458333,0,244.08332)"
         id="path79"
         inkscape:connector-curvature="0" />
      <path
         style="fill:#241b12;stroke-width:0.17274708"
         d="m 23.088875,282.57918 c -1.587778,-0.34511 -2.268718,-0.72628 -3.475762,-1.94557 l -1.090346,-1.10141 -0.603441,0.48741 c -2.422204,1.95647 -3.521637,2.21488 -9.4233613,2.21488 -2.4386329,0 -4.4737883,-0.04 -4.52257,-0.0888 -0.085043,-0.085 7.2123593,-26.12155 7.4116033,-26.44394 0.05405,-0.0875 2.11555,-0.15675 4.662632,-0.15675 4.1307,0 4.651446,0.0326 5.465091,0.34172 0.803434,0.30528 0.929977,0.314 1.18663,0.0818 0.247754,-0.22421 1.556598,-0.26226 9.510526,-0.27646 19.999102,-0.0357 25.735625,0.0367 25.846767,0.32635 0.05591,0.1457 0.02122,1.93446 -0.0771,3.97502 -0.135267,2.80746 -0.236536,3.74672 -0.416231,3.86054 -0.130609,0.0827 -1.112002,0.15161 -2.180875,0.15306 -1.178675,0.001 -1.943404,0.0706 -1.943404,0.17539 0,0.10473 0.764729,0.1738 1.943404,0.1754 1.068873,10e-4 2.044279,0.0666 2.167568,0.14484 0.183031,0.11615 0.157584,1.66081 -0.138699,8.41878 -0.199572,4.55211 -0.399097,8.45148 -0.443387,8.66525 l -0.08053,0.38869 H 43.31386 c -13.428247,0 -13.574494,-0.004 -13.663875,-0.3455 -0.09562,-0.36563 -0.310157,-0.45066 -0.472854,-0.18742 -0.154656,0.25024 -2.326982,1.01435 -3.452549,1.21444 -1.229538,0.21856 -1.279311,0.21709 -2.63571,-0.0777 z m 3.788252,-1.9837 c 0.913991,-0.34196 2.083662,-1.37282 2.844488,-2.50691 0.83711,-1.24781 1.310328,-3.40623 2.556462,-11.66043 0.468243,-3.10158 0.726155,-4.67551 1.124331,-6.86137 0.211479,-1.16096 0.338844,-2.22982 0.283031,-2.37527 -0.08224,-0.21432 -0.447069,-0.26445 -1.924448,-0.26445 -1.72598,0 -1.831831,0.0206 -1.989504,0.38868 -0.0916,0.21377 -0.476411,2.21548 -0.855149,4.44824 -0.378742,2.23276 -0.76191,4.44696 -0.851488,4.92048 -0.227263,1.20131 -0.0031,1.4546 0.681534,0.76999 0.242611,-0.24262 0.528773,-0.33872 0.900178,-0.30232 0.478297,0.0468 0.561137,0.13405 0.68137,0.7169 0.110193,0.53419 0.06938,0.75832 -0.209397,1.14982 -0.423837,0.59522 -0.869289,0.5281 -1.454075,-0.21913 -0.235074,-0.30036 -0.511708,-0.4833 -0.650381,-0.43008 -0.159974,0.0614 -0.403435,0.98714 -0.722282,2.74644 -0.74969,4.13653 -1.115738,4.9859 -2.148737,4.9859 -0.685659,0 -0.898286,-0.29429 -0.898286,-1.24332 0,-0.4558 0.593739,-3.91895 1.319421,-7.69588 2.0165,-10.49525 1.918165,-9.87586 1.599908,-10.07737 -0.132961,-0.0842 -0.718118,-0.15425 -1.300348,-0.1557 -0.902689,-0.003 -1.099178,0.0546 -1.334125,0.38603 -0.271172,0.38253 -0.279707,0.38337 -0.53996,0.0524 -0.172436,-0.21924 -0.323244,-0.2774 -0.433484,-0.16715 -0.09298,0.0929 -0.602457,2.22655 -1.132176,4.74125 -0.529717,2.51472 -1.192931,5.66053 -1.473809,6.99067 -1.324646,6.27312 -1.39926,6.72212 -1.32469,7.97181 0.05859,0.98192 0.174989,1.39483 0.568545,2.01691 0.585039,0.92475 2.150501,1.89017 2.150501,1.32621 0,-0.095 -0.116604,-0.17274 -0.259121,-0.17274 -0.142517,0 -0.259121,-0.0777 -0.259121,-0.17275 0,-0.095 0.189753,-0.17274 0.421672,-0.17274 0.450657,0 0.81181,-0.36621 0.472649,-0.47925 -0.422204,-0.14075 -0.182528,-0.38613 0.271722,-0.27821 0.554339,0.13171 1.07967,0.54631 1.07967,0.85212 0,0.11757 0.116604,0.25861 0.25912,0.3133 0.142517,0.0546 0.259121,0.25735 0.259121,0.45035 0,0.29367 0.111634,0.35092 0.684509,0.35092 0.37648,0 1.097536,-0.15454 1.602349,-0.34342 z m -5.828173,-5.4683 c -0.257999,-0.25799 -0.25912,-0.30846 -0.01233,-0.55524 0.24678,-0.24679 0.297162,-0.24576 0.554201,0.0117 0.28233,0.28232 0.221552,0.82777 -0.09223,0.82777 -0.09121,0 -0.293539,-0.1277 -0.449628,-0.28379 z m -6.218895,4.71856 c 1.80649,-0.83594 2.937441,-2.28662 3.592001,-4.60749 0.294624,-1.04465 1.595761,-6.96874 2.276482,-10.36483 0.238055,-1.18764 0.549397,-2.58689 0.691876,-3.10945 0.540729,-1.98321 0.23492,-3.61227 -0.823879,-4.38881 -0.417304,-0.30606 -0.778006,-0.35948 -2.67246,-0.39589 -1.575653,-0.0302 -2.288405,0.0215 -2.540658,0.18465 -0.687823,0.44477 -1.270623,0.48422 -1.643587,0.11122 -0.393109,-0.39311 -1.418666,-0.47378 -1.680697,-0.13219 -0.292215,0.38092 -1.085887,3.0343 -1.085887,3.63029 0,0.31686 -0.08691,0.663 -0.193128,0.76922 -0.106222,0.10629 -0.331699,0.7631 -0.501063,1.45971 -0.169364,0.69663 -0.7486221,2.86018 -1.2872411,4.80791 -0.5386163,1.94772 -1.1625814,4.2798 -1.3865872,5.18241 -0.2240045,0.90261 -0.5382789,2.06849 -0.6983867,2.59087 -0.5587992,1.82317 -1.2389666,4.6567 -1.1412553,4.75443 0.054169,0.0541 1.8893697,0.0735 4.0782349,0.043 3.9319724,-0.0548 3.9921964,-0.0613 5.0162354,-0.53509 z m -1.468351,-0.80707 c 0,-0.095 0.116604,-0.17274 0.259121,-0.17274 0.142517,0 0.259121,0.0777 0.259121,0.17274 0,0.095 -0.116604,0.17275 -0.259121,0.17275 -0.142515,0 -0.259121,-0.0777 -0.259121,-0.17275 z m -2.148855,-2.91973 c -0.114308,-0.18495 3.344687,-14.17084 3.582311,-14.48453 0.210199,-0.27748 1.884141,-0.28419 2.159684,-0.009 0.114009,0.11407 0.207296,0.39172 0.207296,0.6171 0,0.54729 -0.867094,4.52659 -1.895489,8.69888 -0.886565,3.59685 -1.335034,4.60048 -2.272297,5.08516 -0.533982,0.27613 -1.632647,0.33289 -1.781505,0.092 z m 1.630614,-14.2686 c -0.183642,-0.22127 -0.133182,-0.25912 0.345495,-0.25912 0.478676,0 0.529136,0.0379 0.345494,0.25912 -0.118278,0.14252 -0.273751,0.25913 -0.345494,0.25913 -0.07174,0 -0.227217,-0.11667 -0.345495,-0.25913 z m 19.52042,18.37187 c 0.142516,0.004 0.967619,0.0609 1.833562,0.12575 l 1.574441,0.11797 0.119174,-0.63525 c 0.126155,-0.67247 0.303301,-2.3714 0.307735,-2.95132 0.0014,-0.19002 0.07136,-0.53983 0.155363,-0.77736 0.084,-0.23752 0.225116,-0.95558 0.313594,-1.59569 0.16138,-1.16751 0.77678,-2.37582 1.063685,-2.08849 0.07846,0.0786 0.349296,1.23117 0.601852,2.56133 0.252554,1.33015 0.534306,2.7294 0.626116,3.10944 0.0918,0.38005 0.219534,1.04081 0.283831,1.46836 l 0.116902,0.77736 2.461646,0.0479 c 2.361887,0.0459 2.461647,0.0339 2.461647,-0.29732 0,-0.18989 -0.304119,-1.61071 -0.675818,-3.15739 -0.3717,-1.54667 -0.880664,-3.70609 -1.131033,-4.79871 -0.250367,-1.09263 -0.652658,-2.82226 -0.893979,-3.84364 l -0.438766,-1.85705 1.0372,-1.85701 c 0.570459,-1.02137 1.740014,-3.09408 2.599008,-4.60605 0.858996,-1.51196 1.522281,-2.81299 1.473969,-2.89115 -0.04832,-0.0781 -0.819241,-0.13045 -1.713175,-0.11615 -1.620583,0.026 -1.625833,0.0274 -1.79612,0.51589 -0.147703,0.42369 -0.260715,0.48992 -0.836151,0.48992 h -0.665367 l -1.278445,2.2457 c -0.703146,1.23515 -1.340609,2.24572 -1.416585,2.24572 -0.178736,0 -0.17297,-0.52757 0.01983,-1.81385 0.08544,-0.57007 0.201807,-1.36326 0.258579,-1.76266 l 0.103224,-0.72619 -0.956329,0.0531 c -1.50688,0.0836 -1.432256,-0.40456 0.08909,-0.58282 0.555955,-0.0651 0.791757,-0.1764 0.833217,-0.39315 0.05237,-0.27376 -0.130031,-0.30231 -1.93124,-0.30231 -1.093985,0 -2.031128,0.068 -2.08254,0.15125 -0.05142,0.0832 -0.368668,1.96829 -0.705011,4.18911 -0.336344,2.22083 -0.878499,5.70921 -1.204795,7.75194 -0.326293,2.04273 -0.64152,4.14161 -0.700501,4.66416 -0.05898,0.52256 -0.252382,1.84408 -0.429778,2.9367 -0.177395,1.09263 -0.365867,2.40381 -0.418823,2.91374 -0.09352,0.90051 -0.08511,0.92361 0.292691,0.80379 0.213938,-0.0679 0.505582,-0.11979 0.648098,-0.1155 z m 1.900219,-2.91101 c 0,-0.095 0.07774,-0.17274 0.172746,-0.17274 0.09501,0 0.172747,0.0777 0.172747,0.17274 0,0.095 -0.07774,0.17275 -0.172747,0.17275 -0.09501,0 -0.172746,-0.0777 -0.172746,-0.17275 z m 2.130978,-11.67204 c -0.124676,-0.32489 0.181031,-0.67918 0.445176,-0.51592 0.284739,0.17597 0.225164,0.78666 -0.07674,0.78666 -0.145498,0 -0.311293,-0.12186 -0.368432,-0.27074 z m 19.079146,14.47919 c 0.06828,-0.16627 0.124145,-1.31289 0.124145,-2.54802 v -2.24572 l -2.591206,-0.0864 -2.591206,-0.0864 0.0242,-1.60772 c 0.01331,-0.88425 0.07787,-1.66161 0.143464,-1.72747 0.06559,-0.0658 1.297722,-0.15861 2.738061,-0.20612 l 2.618799,-0.0864 0.104301,-0.77736 c 0.05737,-0.42755 0.097,-1.67133 0.08807,-2.76396 l -0.01624,-1.98659 -2.370137,-0.009 c -1.303576,-0.005 -2.422309,-0.0614 -2.486073,-0.12524 -0.166811,-0.1668 -0.07815,-2.83701 0.110699,-3.33371 0.157943,-0.41544 0.177605,-0.41863 2.571701,-0.41863 1.326898,0 2.451879,-0.0636 2.499957,-0.14144 0.04808,-0.0777 0.141983,-1.24385 0.208674,-2.59121 l 0.12125,-2.44976 -0.932655,-0.0148 c -1.830336,-0.0289 -2.835769,0.0465 -3.055916,0.22922 -0.160126,0.13288 -0.280147,0.12874 -0.423441,-0.0145 -0.233788,-0.23378 -4.721928,-0.28529 -4.863755,-0.0558 -0.07905,0.12796 -0.346181,2.78008 -1.220854,12.12088 -0.137901,1.47267 -0.339695,3.62771 -0.448431,4.78897 -0.10874,1.16127 -0.219657,2.40505 -0.24649,2.76395 -0.02684,0.35891 -0.108052,1.33276 -0.180493,2.1641 l -0.131706,1.51154 h 5.04057 c 4.638089,0 5.050485,-0.0241 5.16471,-0.3023 z M 51.884307,266.5907 c 0,-0.10058 0.07774,-0.13491 0.172748,-0.0762 0.09501,0.0587 0.172748,0.14104 0.172748,0.18293 0,0.0419 -0.07774,0.0762 -0.172748,0.0762 -0.09501,0 -0.172748,-0.0823 -0.172748,-0.18293 z m -6.842372,0.94042 c 0.508792,-4.89744 0.509151,-4.90342 0.29225,-4.90342 -0.208699,0 -2.259979,3.77332 -2.259979,4.15721 0,0.30251 0.966309,4.71026 1.130528,5.15683 0.228511,0.62141 0.418303,-0.37849 0.837201,-4.41062 z m 33.04231,14.60428 c -0.55425,-0.19067 -1.310635,-0.53787 -1.680854,-0.77158 -0.873496,-0.55142 -1.162077,-0.53966 -1.229941,0.0501 l -0.05466,0.47506 -7.452133,0.045 c -5.871517,0.0354 -7.46847,-9.9e-4 -7.529164,-0.17275 -0.154207,-0.4359 0.716642,-25.75403 0.891869,-25.92925 0.115384,-0.11537 5.254016,-0.16286 15.164714,-0.14009 8.244604,0.0189 20.159648,0.0284 26.477874,0.021 17.9608,-0.021 19.40671,-0.004 19.64436,0.23039 0.24572,0.24241 7.31708,25.6987 7.194,25.89782 -0.0457,0.0738 -7.91767,0.13425 -17.49345,0.13425 -17.078478,0 -17.416326,-0.006 -17.717192,-0.33893 -0.304653,-0.33664 -0.308615,-0.3366 -0.588205,0.005 -0.267843,0.32722 -0.465668,0.34155 -4.081921,0.29572 -3.793109,-0.048 -3.800543,-0.0489 -3.855637,-0.43682 -0.05772,-0.40642 -0.444553,-0.52536 -0.646402,-0.19876 -0.06456,0.10447 -0.593865,0.41534 -1.176238,0.69086 -0.972042,0.45985 -1.214658,0.50045 -2.959076,0.49526 -1.441061,-0.004 -2.143718,-0.0894 -2.907946,-0.35229 z m 5.73695,-1.76603 c 0.401152,-0.26573 0.77598,-0.61554 0.832954,-0.77736 0.05697,-0.16182 0.2379,-0.44969 0.402065,-0.6397 0.884056,-1.02333 0.977188,-2.88432 0.423613,-8.46461 -0.08765,-0.88355 -0.220942,-2.563 -0.685518,-8.63736 -0.145331,-1.90021 -0.306591,-3.78196 -0.358359,-4.18166 l -0.09413,-0.7267 -1.819531,0.0596 c -1.000742,0.0327 -1.900215,0.1402 -1.998825,0.2388 -0.123898,0.12394 -0.03957,2.305 0.272921,7.05886 0.733897,11.16481 0.715177,10.61427 0.382716,11.25718 -0.259837,0.50247 -0.362433,0.55947 -0.922179,0.51232 -1.070937,-0.0902 -1.243275,-0.60966 -1.432623,-4.31826 -0.385546,-7.55163 -0.536568,-9.73679 -0.683049,-9.88332 -0.08578,-0.0858 -0.09186,-0.28016 -0.01351,-0.43187 0.07835,-0.15171 0.09414,-1.20867 0.03511,-2.34881 l -0.107365,-2.07296 -1.727471,-0.005 c -0.950111,-0.003 -1.870327,0.0616 -2.04493,0.14375 -0.297364,0.13979 -0.309856,0.34241 -0.197338,3.20132 0.08717,2.21474 0.185141,3.1205 0.357115,3.30148 0.194687,0.20489 0.197025,0.29741 0.01312,0.51825 -0.312728,0.37548 0.102614,11.05577 0.48022,12.34878 0.487484,1.66918 1.73661,3.21988 3.032921,3.76511 1.425958,0.59977 1.708765,0.65071 3.381903,0.60914 1.578978,-0.0392 1.808611,-0.0881 2.470175,-0.5264 z m -5.247465,-1.3307 c -0.05871,-0.095 0.01444,-0.17274 0.162553,-0.17274 0.148123,0 0.269318,0.0777 0.269318,0.17274 0,0.095 -0.07314,0.17275 -0.162554,0.17275 -0.0894,0 -0.210594,-0.0777 -0.269317,-0.17275 z m 18.446828,1.30405 c 0.291411,-0.19093 0.547302,-0.2125 1.073592,-0.0905 0.380043,0.0881 1.099104,0.16204 1.597913,0.16431 1.164787,0.005 1.162087,-0.10044 -0.05924,-2.32797 -0.520948,-0.9501 -1.189009,-2.25219 -1.484578,-2.8935 -0.457584,-0.99286 -0.602631,-1.16605 -0.976568,-1.16605 -0.42236,0 -0.426332,-0.009 -0.103834,-0.249 0.324539,-0.24099 0.30198,-0.31463 -0.701153,-2.2889 -0.986263,-1.94106 -1.064415,-2.04258 -1.612868,-2.09514 -0.422282,-0.0405 -0.652876,-0.18853 -0.862483,-0.55374 -0.157352,-0.27417 -0.442129,-0.57443 -0.632843,-0.66725 -0.263529,-0.12822 -0.280619,-0.17154 -0.07122,-0.18043 0.451026,-0.0191 0.798056,-0.56577 0.88584,-1.39537 0.07523,-0.71094 2.069751,-7.15438 2.683595,-8.66954 0.374113,-0.92344 0.217818,-1.16702 -0.713631,-1.11215 -0.425201,0.0251 -0.898879,0.14995 -1.052614,0.27753 -0.211721,0.1757 -0.328024,0.18348 -0.479495,0.0321 -0.309325,-0.30933 -1.862716,-0.24957 -2.233427,0.0859 -0.173751,0.15725 -0.315909,0.37027 -0.315909,0.47341 0,0.18315 -0.909276,3.17687 -1.25161,4.1208 -0.382334,1.05425 -0.611513,0.42946 -0.744537,-2.02978 -0.122146,-2.25814 -0.161232,-2.40913 -0.685421,-2.64796 -0.527318,-0.24027 -3.645688,-0.27355 -3.789746,-0.0405 -0.05504,0.089 0.02106,1.35227 0.169091,2.80714 0.148035,1.45488 0.346818,3.61694 0.441737,4.80457 0.09492,1.18764 0.327913,3.7918 0.517765,5.78703 0.189853,1.99523 0.424677,4.63827 0.521834,5.8734 0.09715,1.23515 0.230466,2.2909 0.296244,2.34615 0.06577,0.0553 0.441929,0.19199 0.835893,0.30388 0.393965,0.11187 0.765037,0.33048 0.824616,0.48572 0.176102,0.45891 -0.04241,0.49285 -0.585938,0.091 -0.596416,-0.44094 -0.868603,-0.47769 -0.868603,-0.11732 0,0.15984 0.162196,0.25913 0.423282,0.25913 0.232807,0 0.495259,0.12861 0.583229,0.28581 0.102368,0.1829 0.268827,0.24403 0.462348,0.16977 0.166318,-0.0639 0.409271,-0.0274 0.539889,0.0811 0.29382,0.24386 2.118865,0.11797 2.289356,-0.15785 0.06621,-0.10706 -0.02179,-1.65068 -0.195568,-3.43011 -0.247297,-2.53236 -0.272353,-3.34057 -0.115319,-3.71969 0.110349,-0.26639 0.268155,-0.48435 0.350696,-0.48435 0.165833,0 0.666695,1.05214 2.343666,4.92329 1.35951,3.13831 1.750051,3.56493 2.696023,2.94515 z m 14.658062,-0.0637 c 0.12465,-0.13293 -0.72544,-4.49192 -0.94094,-4.82488 -0.10112,-0.15625 -0.82592,-0.21594 -2.62206,-0.21594 -1.87161,0 -2.54052,-0.0583 -2.71898,-0.2367 -0.13018,-0.13018 -0.34068,-0.87697 -0.46776,-1.65953 -0.196,-1.2069 -0.19472,-1.44586 0.008,-1.57451 0.13172,-0.0835 1.30377,-0.15285 2.60456,-0.1543 1.3008,-10e-4 2.40147,-0.0615 2.44594,-0.13348 0.0857,-0.1386 -0.90098,-5.24981 -1.04182,-5.39708 -0.0454,-0.0475 -1.22302,-0.12523 -2.61688,-0.17274 l -2.53428,-0.0864 -0.21573,-0.86373 c -0.11864,-0.47506 -0.23525,-1.29129 -0.25912,-1.81385 l -0.0434,-0.95012 2.32874,-0.0485 c 1.2808,-0.0267 2.39445,-0.1142 2.47475,-0.1945 0.15047,-0.15046 -0.29688,-2.89244 -0.59099,-3.62241 -0.15229,-0.37799 -0.22978,-0.40085 -0.97971,-0.28913 -1.13624,0.1693 -1.59823,0.15753 -1.80165,-0.0459 -0.11848,-0.11848 0.002,-0.26719 0.37387,-0.4592 1.11281,-0.57545 0.60095,-0.69297 -3.24719,-0.74554 -2.979068,-0.0408 -3.676421,-0.005 -3.750592,0.18744 -0.07783,0.2028 1.864909,13.32959 2.625752,17.74188 0.13927,0.80758 0.29647,1.72099 0.34934,2.02977 0.0554,0.32367 0.19968,0.56143 0.34064,0.56143 0.13447,0 0.31585,0.18769 0.40307,0.41708 0.0872,0.22941 0.3185,0.46784 0.51396,0.52989 0.62764,0.19921 0.28884,0.60776 -0.50399,0.60776 -0.38474,0 -0.48817,0.27315 -0.35975,0.9501 0.0859,0.45284 0.18538,0.52914 0.78828,0.60462 0.98849,0.12367 9.30575,-9.9e-4 9.43753,-0.14159 z m -9.75994,-3.43321 c -0.19454,-0.19455 -0.11848,-0.39839 0.14865,-0.39839 0.14252,0 0.25913,0.0732 0.25913,0.16256 0,0.21783 -0.26976,0.37383 -0.40778,0.23583 z m 0.14073,-18.72238 c -0.1336,-0.21618 0.66828,-0.50544 1.40115,-0.50544 0.58623,0 0.77631,0.21205 0.39906,0.4452 -0.30887,0.1909 -1.69088,0.23714 -1.80021,0.0602 z m 15.40428,22.24652 c 0.0888,-0.0888 0.008,-0.55655 -0.61964,-3.57703 -0.65534,-3.15516 -0.43011,-2.99102 0.94815,0.69098 0.55126,1.47268 1.08477,2.78446 1.18557,2.9151 0.14235,0.18449 0.49111,0.21184 1.56201,0.1225 0.7583,-0.0632 1.4108,-0.14705 1.44998,-0.18623 0.0392,-0.0392 -0.0547,-1.30111 -0.20857,-2.80427 -0.15389,-1.50316 -0.27981,-2.88274 -0.27981,-3.06572 0,-0.77429 0.35699,0.13684 0.94582,2.41398 0.34396,1.33016 0.7024,2.70998 0.79655,3.06627 l 0.17117,0.64781 1.85037,-0.0173 c 2.20018,-0.0205 2.72078,-0.13596 2.6966,-0.5982 -0.0149,-0.28566 -1.38926,-5.65881 -2.47158,-9.66303 -0.50089,-1.85311 -2.76373,-10.37398 -3.14082,-11.82692 -0.18404,-0.70914 -0.41515,-1.36989 -0.51357,-1.46834 -0.0984,-0.0985 -0.95466,-0.19069 -1.90274,-0.20497 -1.31374,-0.0197 -1.78427,0.0345 -1.97801,0.22828 -0.13982,0.13983 -0.25423,0.17944 -0.25423,0.088 0,-0.21132 -1.1995,-0.35946 -1.32085,-0.16312 -0.0499,0.0807 0.0409,1.77034 0.20167,3.75484 0.16078,1.98449 0.25577,3.7108 0.21108,3.83623 -0.10722,0.30098 -0.4291,-0.42616 -1.58134,-3.57238 -1.63023,-4.45134 -1.3609,-4.0191 -2.58512,-4.14869 -1.35177,-0.14311 -4.03909,-0.0249 -4.23762,0.18641 -0.13307,0.14164 1.86517,10.55206 2.91583,15.19084 0.19367,0.85511 0.50947,2.33209 0.70178,3.2822 1.06363,5.25493 0.92681,4.8733 1.77744,4.95784 0.81343,0.0808 3.57785,0.0169 3.67988,-0.0853 z m 1.55134,-11.79665 c -0.0577,-0.15028 -0.10226,-0.44179 -0.0991,-0.64779 0.006,-0.37334 0.007,-0.37324 0.3455,0.0332 0.18686,0.22429 0.33974,0.51581 0.33974,0.64779 0,0.32949 -0.45688,0.30356 -0.58613,-0.0332 z m -1.59997,-0.33881 c -0.13989,-0.36455 0.0936,-0.56137 0.29263,-0.24666 0.21148,0.33439 0.20724,0.51322 -0.0122,0.51322 -0.098,0 -0.2242,-0.11991 -0.28046,-0.26656 z m -0.4051,-1.64384 c 0,-0.10057 0.0777,-0.1349 0.17274,-0.0762 0.095,0.0587 0.17275,0.14104 0.17275,0.18294 0,0.0419 -0.0777,0.0762 -0.17275,0.0762 -0.095,0 -0.17274,-0.0823 -0.17274,-0.18294 z m -51.000711,9.20898 c 0.02533,-2.49405 0.107066,-4.53461 0.181651,-4.53461 0.07458,0 0.313902,0.40811 0.531834,0.90691 0.247279,0.56599 0.429994,0.80951 0.486025,0.64781 0.113697,-0.32813 0.565526,-0.69099 0.860419,-0.69099 0.143238,0 0.226103,0.22159 0.226103,0.60461 0,0.33254 0.0583,0.60511 0.129555,0.60571 0.07126,4.9e-4 0.268063,0.2444 0.437343,0.54177 0.287228,0.50459 0.288606,0.56188 0.02066,0.85796 -0.193738,0.21408 -0.254496,0.48043 -0.186798,0.81891 0.06164,0.30826 0.0058,0.62639 -0.144722,0.82524 -0.35445,0.46806 -0.3089,0.91483 0.180558,1.77106 0.319749,0.55935 0.383901,0.81495 0.246186,0.98088 -0.135582,0.16337 -0.111594,0.36878 0.08816,0.75507 l 0.27441,0.53064 h 2.180872 2.180871 l -0.114462,-4.44823 c -0.306861,-11.9248 -0.318673,-12.16128 -0.612033,-12.25322 -0.151551,-0.0475 -0.431021,-0.15648 -0.621042,-0.24221 -0.77141,-0.34803 -1.788814,-0.64398 -1.884601,-0.5482 -0.05609,0.0561 -0.101991,0.23993 -0.101991,0.40851 0,0.76665 -0.801385,0.48046 -0.896667,-0.32023 -0.02939,-0.247 -0.154949,-0.48244 -0.279013,-0.5232 -0.170875,-0.0562 -0.212764,0.15006 -0.172746,0.85041 0.04524,0.79175 0.102445,0.92453 0.398317,0.92453 0.323402,0 0.346823,0.12212 0.366268,1.90929 0.0182,1.67212 -0.02666,1.99401 -0.360985,2.59121 -0.209967,0.37504 -0.452524,0.68191 -0.539014,0.68191 -0.0865,0 -0.197908,-0.89396 -0.247593,-1.98659 -0.06024,-1.32474 -0.210525,-2.36069 -0.451089,-3.10944 -0.49457,-1.53937 -1.401214,-4.69541 -1.724971,-6.00464 -0.153975,-0.62266 -0.389492,-1.14449 -0.555227,-1.23019 -0.402637,-0.20822 -3.609717,-0.23583 -3.735587,-0.0322 -0.0568,0.0919 -0.120523,1.47472 -0.1416,3.07291 -0.03703,2.8068 -0.02464,2.92335 0.363,3.42039 0.314137,0.40279 0.614378,0.55298 1.381976,0.69135 0.935536,0.16864 0.983142,0.20242 1.034783,0.73418 0.03636,0.37439 -0.02089,0.55739 -0.174379,0.55739 -0.125689,0 -0.325608,0.15547 -0.444278,0.34551 -0.118668,0.19001 -0.306155,0.34549 -0.416632,0.34549 -0.457745,0 -0.832687,0.57988 -0.832687,1.28782 0,1.00555 -0.610455,1.59125 -0.722702,0.6934 -0.03006,-0.24048 -0.132396,-0.45426 -0.227407,-0.47506 -0.101044,-0.0222 -0.183407,0.48455 -0.198431,1.22069 -0.0244,1.19534 -0.0079,1.25286 0.328438,1.1461 0.28323,-0.0899 0.331601,-0.0537 0.24162,0.18079 -0.06188,0.16125 -0.112504,0.40343 -0.112504,0.53819 0,0.13473 -0.116604,0.24498 -0.25912,0.24498 -0.193667,0 -0.259652,0.20728 -0.261218,0.82055 -0.0012,0.45131 -0.05152,2.55258 -0.111919,4.66952 l -0.10983,3.84898 2.228078,-0.0485 2.228077,-0.0485 z m 1.872175,-4.56125 c -0.187645,-0.26792 -0.212892,-0.46154 -0.09009,-0.691 0.379611,-0.70931 1.358189,-0.0688 1.106492,0.72422 -0.14264,0.44943 -0.690894,0.43149 -1.016401,-0.0332 z m 33.667666,7.10933 c 0.0587,-0.095 0.0244,-0.17275 -0.0762,-0.17275 -0.10061,0 -0.18294,0.0777 -0.18294,0.17275 0,0.095 0.0343,0.17275 0.0762,0.17275 0.0419,0 0.12422,-0.0777 0.18294,-0.17275 z m -4.04855,-11.0099 c -0.683809,-4.3928 -0.663772,-4.30826 -0.948828,-4.00287 -0.307977,0.32994 -1.135139,2.57099 -1.135139,3.07544 0,0.3607 1.825392,4.03975 2.314918,4.66567 0.356415,0.45572 0.313319,-0.24185 -0.230951,-3.73824 z m -24.263252,-4.43744 c 0.05183,-0.13509 0.02995,-1.51489 -0.04861,-3.06627 l -0.142854,-2.82065 -0.66947,-0.0549 c -0.647496,-0.0531 -0.665679,-0.0398 -0.55399,0.40521 0.135365,0.53933 -0.135916,0.9453 -0.631684,0.9453 -0.264832,0 -0.319859,-0.0799 -0.237968,-0.34549 0.05859,-0.19003 0.154454,-0.50098 0.213042,-0.691 0.09234,-0.29947 0.02686,-0.34549 -0.491467,-0.34549 -0.374819,0 -0.712504,0.12654 -0.904834,0.33907 -0.306801,0.339 -0.260939,0.87016 0.07513,0.87016 0.330005,0 0.181672,0.45209 -0.340074,1.03649 -0.436593,0.48901 -0.51824,0.72365 -0.51824,1.48926 0,0.9244 0.184575,1.22025 0.70773,1.13444 0.151723,-0.0249 0.375016,0.0742 0.496206,0.22025 0.121186,0.14602 0.385733,0.26792 0.587872,0.27089 0.202142,0.003 0.756211,0.19661 1.231266,0.43029 1.008087,0.4959 1.102292,0.50989 1.227946,0.18245 z m -3.380263,-2.37613 c 0.0091,-0.29589 0.99111,-1.4474 1.122396,-1.3161 0.178486,0.17848 -0.516195,1.4266 -0.827378,1.48654 -0.166838,0.0322 -0.298896,-0.0441 -0.295018,-0.17044 z"
         id="path77"
         inkscape:connector-curvature="0" />
    </g>
    <path
       d="m 3.2754022,296.82187 c 0.4120904,0 0.8128722,-0.0909 1.2023458,-0.27265 0.3894693,-0.18177 0.7098461,-0.42585 0.9611182,-0.73226 v 0 l -0.7161281,-0.73225 c -0.185942,0.22331 -0.3995266,0.39469 -0.6407457,0.51414 -0.2412232,0.11944 -0.5000328,0.17916 -0.7764322,0.17916 -0.2462495,0 -0.4736535,-0.0454 -0.6822077,-0.13632 -0.208558,-0.0909 -0.3894735,-0.21422 -0.5427502,-0.37002 -0.1532807,-0.1558 -0.2738884,-0.34147 -0.3618349,-0.55699 -0.087947,-0.21552 -0.1319199,-0.44792 -0.1319199,-0.6972 0,-0.25448 0.042698,-0.48947 0.1281531,-0.70499 0.085431,-0.21553 0.2035279,-0.40248 0.3542934,-0.56088 0.1507616,-0.1584 0.3304256,-0.28304 0.5389797,-0.37392 0.2085581,-0.0909 0.4309356,-0.13633 0.6671285,-0.13633 0.2814299,0 0.5477769,0.0636 0.7990528,0.19086 0.2512758,0.12724 0.4698788,0.3103 0.6558203,0.54919 v 0 l 0.738745,-0.75563 c -0.2462459,-0.31159 -0.5678781,-0.55957 -0.9648891,-0.74394 -0.3970113,-0.18436 -0.8065863,-0.27654 -1.228729,-0.27654 -0.3919846,0 -0.7600973,0.0727 -1.1043422,0.21812 -0.3442448,0.14541 -0.6420011,0.34276 -0.893277,0.59204 -0.2512719,0.24927 -0.44977749,0.54659 -0.59551669,0.89195 -0.1457392,0.34535 -0.2186068,0.71538 -0.2186068,1.11007 0,0.39469 0.071612,0.76342 0.214836,1.10618 0.1432281,0.34275 0.34047409,0.63878 0.59174599,0.88806 0.2512759,0.24927 0.5490322,0.44662 0.893281,0.59203 0.344245,0.14541 0.7148728,0.21812 1.1118797,0.21812 z m 14.2848818,0.008 c 0.391989,0 0.75885,-0.0727 1.10058,-0.21811 0.341734,-0.14542 0.636979,-0.34406 0.885739,-0.59594 0.248761,-0.25187 0.446007,-0.55049 0.591747,-0.89584 0.145739,-0.34536 0.218606,-0.71279 0.218606,-1.10228 0,-0.38951 -0.07287,-0.75694 -0.218606,-1.10229 -0.14574,-0.34536 -0.342986,-0.64397 -0.591747,-0.89584 -0.24876,-0.25188 -0.544005,-0.45053 -0.885739,-0.59594 -0.34173,-0.14541 -0.708591,-0.21812 -1.10058,-0.21812 -0.386962,0 -0.751299,0.0727 -1.093037,0.21812 -0.341733,0.14541 -0.636974,0.34406 -0.885735,0.59594 -0.248761,0.25187 -0.446011,0.55048 -0.591746,0.89584 -0.145743,0.34535 -0.218611,0.71278 -0.218611,1.10229 0,0.38949 0.07287,0.75692 0.218611,1.10228 0.145735,0.34535 0.342985,0.64397 0.591746,0.89584 0.248761,0.25188 0.544002,0.45052 0.885735,0.59594 0.341738,0.14541 0.706075,0.21811 1.093037,0.21811 z m 0,-1.03606 c -0.236197,0 -0.456059,-0.0454 -0.659586,-0.13633 -0.203532,-0.0909 -0.379425,-0.21552 -0.527679,-0.37391 -0.148247,-0.1584 -0.265088,-0.34666 -0.350523,-0.56478 -0.08543,-0.21812 -0.128153,-0.45182 -0.128153,-0.70109 0,-0.25448 0.0427,-0.48948 0.128153,-0.705 0.08544,-0.21552 0.202276,-0.40248 0.350523,-0.56088 0.148254,-0.1584 0.324147,-0.28303 0.527679,-0.37391 0.203527,-0.0909 0.423389,-0.13633 0.659586,-0.13633 0.236201,0 0.457323,0.0454 0.663366,0.13633 0.206043,0.0909 0.383188,0.21551 0.531442,0.37391 0.148247,0.1584 0.265096,0.34536 0.350523,0.56088 0.08544,0.21552 0.128153,0.45052 0.128153,0.705 0,0.24927 -0.0427,0.48297 -0.128153,0.70109 -0.08543,0.21812 -0.202276,0.40638 -0.350523,0.56478 -0.148254,0.15839 -0.325399,0.28303 -0.531442,0.37391 -0.206043,0.0909 -0.427165,0.13633 -0.663366,0.13633 z m 16.568958,0.95038 v -0.99712 h -2.887128 v -4.45588 h -1.093041 v 5.45298 z m 13.779823,0 v -0.99712 h -2.887128 v -4.45588 h -1.093039 v 5.45298 z m 13.885357,0 v -0.98154 H 58.80176 v -1.29314 h 1.952395 v -0.95038 H 58.80176 v -1.24639 h 2.962513 v -0.98154 h -4.055549 v 5.45298 z m 12.12142,0.0779 c 0.412094,0 0.812871,-0.0909 1.202343,-0.27265 0.389472,-0.18177 0.709848,-0.42586 0.961123,-0.73226 v 0 l -0.716132,-0.73226 c -0.185941,0.22331 -0.399523,0.39469 -0.640744,0.51414 -0.241223,0.11945 -0.500033,0.17917 -0.776433,0.17917 -0.24625,0 -0.473654,-0.0454 -0.682209,-0.13633 -0.208556,-0.0909 -0.389472,-0.21422 -0.542748,-0.37002 -0.153281,-0.1558 -0.273891,-0.34146 -0.361836,-0.55698 -0.08795,-0.21553 -0.131922,-0.44793 -0.131922,-0.6972 0,-0.25448 0.0427,-0.48948 0.128151,-0.705 0.08544,-0.21552 0.203531,-0.40248 0.354299,-0.56088 0.150762,-0.1584 0.330424,-0.28303 0.538977,-0.37391 0.20856,-0.0909 0.430937,-0.13633 0.667131,-0.13633 0.281429,0 0.54778,0.0636 0.799052,0.19085 0.251275,0.12724 0.469876,0.3103 0.655818,0.5492 v 0 L 76.10946,292.226 c -0.246245,-0.3116 -0.567878,-0.55958 -0.964885,-0.74394 -0.397015,-0.18436 -0.80659,-0.27655 -1.228733,-0.27655 -0.391985,0 -0.760098,0.0727 -1.104342,0.21812 -0.344246,0.14541 -0.642001,0.34276 -0.893278,0.59204 -0.25127,0.24928 -0.449778,0.54659 -0.595519,0.89195 -0.145735,0.34536 -0.218604,0.71538 -0.218604,1.11008 0,0.39469 0.07161,0.76341 0.214839,1.10617 0.143227,0.34276 0.340469,0.63878 0.591749,0.88806 0.251274,0.24928 0.549031,0.44662 0.893275,0.59203 0.344244,0.14542 0.714867,0.21813 1.11188,0.21813 z m 14.458265,-0.0779 v -4.45589 h 1.771472 v -0.99711 h -4.643527 v 0.99711 h 1.779011 v 4.45587 z m 12.520943,0 v -5.453 h -1.093036 v 5.45298 z m 12.58879,0.0857 c 0.39199,0 0.75884,-0.0727 1.10058,-0.21811 0.34173,-0.14542 0.63697,-0.34406 0.88573,-0.59594 0.24876,-0.25187 0.44601,-0.55049 0.59175,-0.89584 0.14574,-0.34536 0.21861,-0.71279 0.21861,-1.10228 0,-0.38951 -0.0729,-0.75694 -0.21861,-1.10229 -0.14574,-0.34536 -0.34299,-0.64397 -0.59175,-0.89584 -0.24876,-0.25188 -0.544,-0.45053 -0.88573,-0.59594 -0.34174,-0.14541 -0.70859,-0.21812 -1.10058,-0.21812 -0.38696,0 -0.75131,0.0727 -1.09304,0.21812 -0.34173,0.14541 -0.63697,0.34406 -0.88574,0.59594 -0.24876,0.25187 -0.44601,0.55048 -0.59175,0.89584 -0.14574,0.34535 -0.21861,0.71278 -0.21861,1.10229 0,0.38949 0.0729,0.75692 0.21861,1.10228 0.14574,0.34535 0.34299,0.64397 0.59175,0.89584 0.24877,0.25188 0.54401,0.45052 0.88574,0.59594 0.34173,0.14541 0.70608,0.21811 1.09304,0.21811 z m 0,-1.03606 c -0.2362,0 -0.45607,-0.0454 -0.65959,-0.13633 -0.20354,-0.0909 -0.37942,-0.21552 -0.52768,-0.37391 -0.14825,-0.1584 -0.26509,-0.34666 -0.35052,-0.56478 -0.0854,-0.21812 -0.12816,-0.45182 -0.12816,-0.70109 0,-0.25448 0.0427,-0.48948 0.12816,-0.705 0.0854,-0.21552 0.20227,-0.40248 0.35052,-0.56088 0.14826,-0.1584 0.32414,-0.28303 0.52768,-0.37391 0.20352,-0.0909 0.42339,-0.13633 0.65959,-0.13633 0.23619,0 0.45732,0.0454 0.66336,0.13633 0.20605,0.0909 0.38318,0.21551 0.53144,0.37391 0.14825,0.1584 0.2651,0.34536 0.35053,0.56088 0.0854,0.21552 0.12815,0.45052 0.12815,0.705 0,0.24927 -0.0427,0.48297 -0.12815,0.70109 -0.0854,0.21812 -0.20228,0.40638 -0.35053,0.56478 -0.14826,0.15839 -0.32539,0.28303 -0.53144,0.37391 -0.20604,0.0909 -0.42717,0.13633 -0.66336,0.13633 z m 13.62152,0.95038 v -3.64571 l 2.69114,3.64571 h 0.96489 v -5.453 h -1.0252 v 3.52886 l -2.62329,-3.52886 h -1.04027 v 5.45298 z"
       id="COLLECTION"
       inkscape:connector-curvature="0"
       style="fill:#ffffff;fill-rule:nonzero;stroke:none;stroke-width:0.46869686" />
  </g>
</svg>
