<?xml version="1.0" encoding="UTF-8" standalone="no"?>
<svg
   xmlns:dc="http://purl.org/dc/elements/1.1/"
   xmlns:cc="http://creativecommons.org/ns#"
   xmlns:rdf="http://www.w3.org/1999/02/22-rdf-syntax-ns#"
   xmlns:svg="http://www.w3.org/2000/svg"
   xmlns="http://www.w3.org/2000/svg"
   xmlns:xlink="http://www.w3.org/1999/xlink"
   xmlns:sodipodi="http://sodipodi.sourceforge.net/DTD/sodipodi-0.dtd"
   xmlns:inkscape="http://www.inkscape.org/namespaces/inkscape"
   width="500"
   height="200"
   viewBox="0 0 500 200"
   version="1.1"
   id="svg14"
   sodipodi:docname="Ea.svg"
   inkscape:version="0.92.5 (2060ec1f9f, 2020-04-08)">
  <metadata
     id="metadata20">
    <rdf:RDF>
      <cc:Work
         rdf:about="">
        <dc:format>image/svg+xml</dc:format>
        <dc:type
           rdf:resource="http://purl.org/dc/dcmitype/StillImage" />
        <dc:title />
      </cc:Work>
    </rdf:RDF>
  </metadata>
  <defs
     id="defs18">
    <linearGradient
       x1="287.04117"
       y1="350.87671"
       x2="348.69205"
       y2="275.90128"
       id="linearGradient3545"
       xlink:href="#linearGradient3539"
       gradientUnits="userSpaceOnUse"
       gradientTransform="matrix(0.27391884,0,0,0.27391884,-74.12342,-68.696897)" />
    <linearGradient
       id="linearGradient3539">
      <stop
         id="stop3541"
         style="stop-color:#bf0000;stop-opacity:1"
         offset="0" />
      <stop
         id="stop3547"
         style="stop-color:#bf0000;stop-opacity:1"
         offset="0.3747088" />
      <stop
         id="stop3543"
         style="stop-color:#fbe40a;stop-opacity:1"
         offset="1" />
    </linearGradient>
    <linearGradient
       x1="289.83875"
       y1="355.51709"
       x2="639.31293"
       y2="355.51709"
       id="linearGradient3555"
       xlink:href="#linearGradient3549"
       gradientUnits="userSpaceOnUse"
       gradientTransform="matrix(0.27391884,0,0,0.27391884,-74.12342,-68.696897)" />
    <linearGradient
       id="linearGradient3549">
      <stop
         id="stop3551"
         style="stop-color:#bf0000;stop-opacity:1"
         offset="0" />
      <stop
         id="stop3557"
         style="stop-color:#fff20c;stop-opacity:1"
         offset="0.24505855" />
      <stop
         id="stop3559"
         style="stop-color:#0ce500;stop-opacity:1"
         offset="0.44498077" />
      <stop
         id="stop3561"
         style="stop-color:#31e1fd;stop-opacity:1"
         offset="0.64282119" />
      <stop
         id="stop3553"
         style="stop-color:#0019bf;stop-opacity:1"
         offset="1" />
    </linearGradient>
  </defs>
  <sodipodi:namedview
     pagecolor="#ffffff"
     bordercolor="#666666"
     borderopacity="1"
     objecttolerance="10"
     gridtolerance="10"
     guidetolerance="10"
     inkscape:pageopacity="0"
     inkscape:pageshadow="2"
     inkscape:window-width="1366"
     inkscape:window-height="743"
     id="namedview16"
     showgrid="false"
     inkscape:pagecheckerboard="true"
     inkscape:zoom="1.1590481"
     inkscape:cx="346.70988"
     inkscape:cy="0.52777055"
     inkscape:window-x="0"
     inkscape:window-y="0"
     inkscape:window-maximized="1"
     inkscape:current-layer="svg14" />
  <path
     d="m 11.380521,197.91562 c 1.565391,0 3.087834,-0.36735 4.56732,-1.10197 1.479491,-0.73468 2.696489,-1.72123 3.650997,-2.95964 v 0 l -2.720349,-2.95964 c -0.706337,0.90258 -1.517671,1.59526 -2.433999,2.07806 -0.916326,0.48275 -1.899471,0.72415 -2.949427,0.72415 -0.93542,0 -1.7992504,-0.18368 -2.5914921,-0.55099 C 8.111327,192.77825 7.4240826,192.27973 6.8418306,191.65003 6.25958,191.02031 5.8014173,190.26992 5.4673383,189.39882 5.1332626,188.52772 4.966224,187.5884 4.966224,186.58087 c 0,-1.02853 0.1622635,-1.97833 0.4867979,-2.84944 0.3245316,-0.87109 0.7731525,-1.62675 1.3458572,-2.26695 0.5727033,-0.64019 1.2551771,-1.14396 2.0474234,-1.51129 0.7922417,-0.36736 1.6369795,-0.55098 2.5342195,-0.55098 1.069049,0 2.08083,0.25711 3.035337,0.77137 0.954508,0.51429 1.78493,1.25418 2.491267,2.21973 v 0 l 2.806254,-3.0541 c -0.935419,-1.2594 -2.15719,-2.26169 -3.665313,-3.00684 -1.508123,-0.74517 -3.063974,-1.11773 -4.667545,-1.11773 -1.4890348,0 -2.8873922,0.29392 -4.1950669,0.8816 -1.307677,0.5877 -2.4387695,1.38534 -3.3932765,2.39287 -0.9545079,1.00754 -1.7085708,2.20923 -2.2621853,3.60508 -0.55361332,1.39586 -0.83042024,2.89141 -0.83042024,4.48668 0,1.59524 0.27202073,3.08559 0.81610094,4.47094 0.5440703,1.38535 1.2933602,2.58179 2.247869,3.58933 0.9545084,1.00753 2.0855995,1.80518 3.3932769,2.3929 1.3076779,0.58772 2.7155795,0.88158 4.2237011,0.88158 z m 54.26381,0.0313 c 1.489032,0 2.882614,-0.29383 4.180749,-0.88159 1.298131,-0.58773 2.419666,-1.39059 3.364642,-2.40863 0.944957,-1.01803 1.694252,-2.22498 2.247869,-3.62082 0.553626,-1.39585 0.830412,-2.88094 0.830412,-4.4552 0,-1.57428 -0.276804,-3.05934 -0.830412,-4.45518 -0.553617,-1.39587 -1.302912,-2.60281 -2.247869,-3.62083 -0.944976,-1.01803 -2.066511,-1.82091 -3.364642,-2.40864 -1.298135,-0.58773 -2.691717,-0.88159 -4.180749,-0.88159 -1.469946,0 -2.853985,0.29383 -4.152116,0.88159 -1.298136,0.58773 -2.419671,1.39061 -3.364646,2.40864 -0.944958,1.01802 -1.694247,2.22496 -2.24786,3.62083 -0.553613,1.39584 -0.830426,2.88089 -0.830426,4.45517 0,1.57426 0.27685,3.05934 0.830426,4.4552 0.553613,1.39584 1.302902,2.60279 2.24786,3.62081 0.944975,1.01804 2.06651,1.82091 3.364646,2.40864 1.298131,0.58774 2.68217,0.88159 4.152116,0.88159 z m 0,-4.18756 c -0.89723,0 -1.732432,-0.18368 -2.505578,-0.551 -0.773156,-0.36735 -1.441309,-0.87109 -2.004479,-1.51129 -0.56315,-0.64021 -1.007003,-1.40111 -1.331535,-2.2827 -0.324564,-0.88162 -0.486827,-1.82617 -0.486827,-2.8337 0,-1.02851 0.162282,-1.97833 0.486827,-2.84942 0.324518,-0.87111 0.768385,-1.62675 1.331535,-2.26696 0.56317,-0.64021 1.231323,-1.14398 2.004479,-1.51131 0.773146,-0.36735 1.608348,-0.55099 2.505578,-0.55099 0.897235,0 1.737203,0.18368 2.519902,0.55099 0.782694,0.36736 1.455627,0.8711 2.018797,1.51131 0.563141,0.64021 1.006994,1.39585 1.33154,2.26696 0.324517,0.87109 0.486827,1.82091 0.486827,2.84942 0,1.00753 -0.162282,1.95208 -0.486827,2.8337 -0.324564,0.88159 -0.768399,1.64249 -1.33154,2.2827 -0.56317,0.6402 -1.236103,1.14396 -2.018797,1.51129 -0.782699,0.36735 -1.622667,0.55099 -2.519902,0.55099 z m 62.940289,3.84143 v -4.03016 h -10.96728 v -18.00966 h -4.15213 v 22.03978 z m 52.34525,0 v -4.03016 h -10.96732 v -18.00966 h -4.15209 v 22.03978 z m 52.74613,0 v -3.96734 h -11.3682 v -5.22659 h 7.41654 v -3.84122 h -7.41654 v -5.03766 h 11.25367 v -3.96717 h -15.40576 v 22.03981 z m 46.04549,0.31481 c 1.56542,0 3.08785,-0.36735 4.56732,-1.10199 1.47951,-0.73465 2.6965,-1.7212 3.65101,-2.95962 v 0 l -2.72034,-2.95963 c -0.70633,0.90258 -1.51768,1.59524 -2.43402,2.07803 -0.91632,0.48275 -1.89947,0.72416 -2.94943,0.72416 -0.9354,0 -1.79924,-0.18368 -2.59147,-0.55099 -0.79226,-0.36735 -1.4795,-0.86586 -2.06174,-1.49556 -0.58226,-0.6297 -1.04044,-1.3801 -1.37448,-2.25121 -0.33414,-0.87109 -0.50116,-1.81042 -0.50116,-2.81795 0,-1.02852 0.16228,-1.97833 0.48682,-2.84942 0.32452,-0.87111 0.77313,-1.62676 1.34585,-2.26695 0.57271,-0.64022 1.25517,-1.14398 2.04742,-1.51132 0.79224,-0.36735 1.63698,-0.55099 2.53422,-0.55099 1.06906,0 2.08082,0.25712 3.03533,0.77141 0.95451,0.51428 1.78494,1.25415 2.49128,2.21969 v 0 l 2.80623,-3.05407 c -0.93538,-1.25942 -2.15718,-2.2617 -3.66531,-3.00686 -1.5081,-0.74515 -3.06396,-1.11772 -4.66753,-1.11772 -1.48904,0 -2.88739,0.29387 -4.19506,0.88158 -1.30768,0.58774 -2.43877,1.38536 -3.39329,2.3929 -0.9545,1.00754 -1.70855,2.20922 -2.26217,3.60508 -0.55363,1.39584 -0.83044,2.89139 -0.83044,4.48667 0,1.59524 0.27202,3.08557 0.8161,4.47093 0.5441,1.38536 1.29337,2.58181 2.24788,3.58934 0.9545,1.00754 2.08559,1.80517 3.39327,2.39289 1.3077,0.58772 2.71557,0.88159 4.22371,0.88159 z m 54.92243,-0.31481 v -18.00966 h 6.72928 V 175.561 h -17.63932 v 4.03012 h 6.75794 v 18.00966 z m 47.56317,0 V 175.561 h -4.15211 v 22.03979 z m 47.82087,0.34633 c 1.48903,0 2.88262,-0.29383 4.18075,-0.88158 1.29813,-0.58773 2.41968,-1.3906 3.36464,-2.40864 0.94497,-1.01803 1.69425,-2.22497 2.24787,-3.62082 0.55362,-1.39585 0.83042,-2.88093 0.83042,-4.4552 0,-1.57428 -0.27685,-3.05933 -0.83042,-4.45517 -0.55362,-1.39587 -1.3029,-2.60281 -2.24787,-3.62083 -0.94496,-1.01803 -2.06651,-1.82091 -3.36464,-2.40864 -1.29813,-0.58773 -2.69172,-0.88158 -4.18075,-0.88158 -1.46994,0 -2.85397,0.29382 -4.15212,0.88158 -1.29812,0.58773 -2.41969,1.39061 -3.36462,2.40864 -0.94498,1.01802 -1.69427,2.22496 -2.24788,3.62083 -0.55362,1.39584 -0.83043,2.8809 -0.83043,4.45518 0,1.57426 0.27685,3.05934 0.83043,4.45519 0.55361,1.39585 1.3029,2.60279 2.24788,3.62082 0.94493,1.01804 2.0665,1.82091 3.36462,2.40864 1.29815,0.58773 2.68218,0.88158 4.15212,0.88158 z m 0,-4.18756 c -0.89722,0 -1.73244,-0.18368 -2.50557,-0.551 -0.77316,-0.36735 -1.44131,-0.87107 -2.00449,-1.51128 -0.56315,-0.64021 -1.00698,-1.4011 -1.33154,-2.28269 -0.32452,-0.88163 -0.48678,-1.82618 -0.48678,-2.8337 0,-1.02852 0.16228,-1.97833 0.48678,-2.84942 0.32456,-0.87111 0.76839,-1.62676 1.33154,-2.26696 0.56318,-0.64021 1.23133,-1.14398 2.00449,-1.51131 0.77313,-0.36735 1.60835,-0.55099 2.50557,-0.55099 0.89723,0 1.73721,0.18367 2.5199,0.55099 0.78272,0.36735 1.45564,0.8711 2.0188,1.51131 0.56314,0.6402 1.00699,1.39585 1.33153,2.26696 0.32456,0.87109 0.48682,1.8209 0.48682,2.84942 0,1.00752 -0.16228,1.95207 -0.48682,2.8337 -0.32457,0.88159 -0.76839,1.64248 -1.33153,2.28269 -0.56316,0.64021 -1.23608,1.14397 -2.0188,1.51129 -0.78269,0.36735 -1.62267,0.55099 -2.5199,0.55099 z m 51.74395,3.84122 V 182.8656 l 10.2228,14.73518 h 3.66535 v -22.03963 h -3.89444 v 14.26291 l -9.96509,-14.26291 h -3.95163 v 22.0398 z"
     id="COLLECTION"
     inkscape:connector-curvature="0"
     style="fill:#ffffff;fill-rule:nonzero;stroke:none;stroke-width:1.28313088" />
  <polygon
     style="clip-rule:evenodd;overflow:visible;fill:#008080;fill-rule:evenodd"
     id="polygon7"
     points="328.029,26.258 212.094,26.258 212.094,28.651 163.875,28.651 164.217,23.18 328.029,23.18 "
     transform="matrix(0.59593228,0,0,0.59593228,34.192351,2.5077111)" />
  <polygon
     style="clip-rule:evenodd;overflow:visible;fill:#008080;fill-rule:evenodd"
     id="polygon9"
     points="327.687,40.618 212.094,40.618 212.094,43.015 163.875,43.015 163.875,36.173 327.687,36.173 "
     transform="matrix(0.59593228,0,0,0.59593228,34.192351,2.5077111)" />
  <path
     style="clip-rule:evenodd;overflow:visible;fill:#008080;fill-rule:evenodd;stroke-width:0.42961529"
     inkscape:connector-curvature="0"
     id="path11"
     d="m 131.85076,32.422318 h 95.78656 l 1.83427,1.426661 0.20364,-1.224635 h 74.38662 l 1.83433,2.242491 h -48.09711 c 0,0 -22.21455,4.278792 -24.66084,3.870576 -1.83192,-0.201437 -9.57546,-0.201437 -9.57546,-0.201437 0,0 1.01782,-2.242492 2.24011,-3.669152 H 160.58581 V 36.7017 h -28.73522 z" />
  <path
     style="clip-rule:evenodd;overflow:visible;fill:#008080;fill-rule:evenodd;stroke-width:0.42961529"
     inkscape:connector-curvature="0"
     id="path13"
     d="m 131.85076,40.571691 h 90.69196 c 0,0 2.24011,1.224642 5.70726,1.426664 1.62986,0 1.42602,-1.426664 1.42602,-1.426664 h 118.20558 l 3.46411,5.503437 h -13.24815 l -0.40619,-2.242491 H 310.9912 l 0.40904,1.224638 c 0,0 -6.72572,-2.446303 -10.39424,-1.630471 -0.20365,0 -40.35181,0 -40.35181,0 -4.68698,0 -12.63676,1.017853 -22.62218,3.464753 h -18.34396 l 1.22464,-3.05892 h -60.32625 v 1.834279 h -28.73522 z" />
  <path
     style="clip-rule:evenodd;overflow:visible;fill:#008080;fill-rule:evenodd;stroke-width:0.42961529"
     inkscape:connector-curvature="0"
     id="path15"
     d="m 240.68227,21.416046 c 0,0 5.50044,-4.076773 10.59567,-4.891414 h 29.75608 l 3.66859,1.630472 c 0,0 -15.4889,-0.40819 -18.74981,0.408189 -4.48502,1.21987 -15.08064,2.444511 -15.08064,2.444511 z" />
  <path
     style="clip-rule:evenodd;overflow:visible;fill:#008080;fill-rule:evenodd;stroke-width:0.42961529"
     inkscape:connector-curvature="0"
     id="path17"
     d="m 229.47159,30.790062 c 0,0 1.83432,-2.648327 6.52129,-6.317479 h 59.91744 l 2.44629,2.240106 -40.15037,0.408189 c -6.11546,0 -9.78158,2.446301 -18.34156,3.260347 -0.81524,6e-4 -10.39309,0.40882 -10.39309,0.40882 z" />
  <path
     style="clip-rule:evenodd;overflow:visible;fill:#008080;fill-rule:evenodd;stroke-width:0.42961529"
     inkscape:connector-curvature="0"
     id="path19"
     d="m 353.38145,49.541662 3.66853,5.909265 h -16.71113 l -0.61203,-2.24249 h -25.88074 c 0,0 0.40564,1.629872 0.20139,1.629872 -4.48206,-1.017853 -8.9652,-1.222253 -8.9652,-1.222253 l 1.01782,-1.629878 h -41.37141 c 0,0 -9.1696,0.609637 -17.11755,2.242495 -8.15355,1.628083 -16.1015,1.834278 -16.1015,1.834278 h -13.85841 l 0.40848,-3.058919 h -57.47354 v 2.24249 h -28.73522 v -6.113073 h 87.0228 c 0,0 2.24245,1.628088 8.35556,1.426664 3.05655,0 2.24246,-1.017853 2.24246,-1.017853 h 123.90986 v -6.03e-4 z" />
  <path
     style="clip-rule:evenodd;overflow:visible;fill:#008080;fill-rule:evenodd;stroke-width:0.42961529"
     inkscape:connector-curvature="0"
     id="path21"
     d="M 217.03924,64.826735 H 238.233 c 0,0 6.11545,-0.614407 14.06517,-2.040477 8.35556,-1.628092 13.45079,-1.628092 13.45079,-1.628092 h 35.05275 l -1.22224,2.036309 c 0,0 4.07438,-0.408213 15.08065,1.426065 0.20425,0 0,-2.242495 0,-2.242495 h 27.10537 l 0.61204,2.040469 h 20.1753 l -3.66859,-6.113073 H 229.67542 c 0,0 0.20365,1.017853 -2.0381,1.017853 -9.17195,0.405866 -10.1904,-1.632849 -10.1904,-1.632849 h -85.59616 v 6.52128 h 28.73523 v -2.240102 h 56.45325 z" />
  <path
     style="clip-rule:evenodd;overflow:visible;fill:#008080;fill-rule:evenodd;stroke-width:0.42961529"
     inkscape:connector-curvature="0"
     id="path23"
     d="m 363.97947,66.86303 3.66859,6.319273 H 344.4162 l -0.61203,-1.834283 h -29.75665 l -0.20139,1.426659 c 0,0 -5.91168,0.408213 -8.55998,-0.204382 -5.91104,-1.428449 -10.59808,-0.61202 -10.59808,-0.61202 l 1.01788,-1.834282 h -22.62217 c 0,0 -6.5213,-0.201438 -13.65463,1.224646 -8.35557,1.628083 -16.71113,2.0363 -16.71113,2.0363 h -24.45707 l -0.40794,-2.242499 H 160.58576 V 72.7753 h -28.73528 v -6.115455 h 85.18853 c 0,0 0.81404,2.038678 10.80186,1.428448 2.0381,0 1.63049,-1.224637 1.63049,-1.224637 h 134.50846 v -4.37e-4 z" />
  <polygon
     style="clip-rule:evenodd;overflow:visible;fill:#008080;fill-rule:evenodd"
     id="polygon25"
     points="474.742,50.537 472.007,54.985 505.863,54.985 506.548,57.721 522.962,57.721 518.515,50.537 "
     transform="matrix(0.59593228,0,0,0.59593228,34.192351,2.5077111)" />
  <polygon
     style="clip-rule:evenodd;overflow:visible;fill:#008080;fill-rule:evenodd"
     id="polygon27"
     points="482.265,37.54 480.214,41.303 502.442,41.303 503.127,43.696 514.07,43.696 510.649,37.54 "
     transform="matrix(0.59593228,0,0,0.59593228,34.192351,2.5077111)" />
  <polygon
     style="clip-rule:evenodd;overflow:visible;fill:#008080;fill-rule:evenodd"
     id="polygon29"
     points="488.079,26.597 499.021,26.597 500.049,28.99 505.521,29.675 496.629,13.945 498.68,23.865 490.13,23.865 "
     transform="matrix(0.59593228,0,0,0.59593228,34.192351,2.5077111)" />
  <path
     style="clip-rule:evenodd;overflow:visible;fill:#008080;fill-rule:evenodd;stroke-width:0.42961529"
     inkscape:connector-curvature="0"
     id="path31"
     d="m 229.67542,75.422405 h 139.60369 l 4.28113,6.929506 h -27.10537 l -0.40793,-1.834282 h -34.64688 l -0.60963,2.038085 c -5.70726,-1.017849 -11.41452,-1.224637 -11.41452,-1.224637 h -9.98605 l 1.01788,-1.834278 c 0,0 -6.11311,-0.405866 -14.87687,0.816424 -7.54152,1.017854 -29.95992,1.834876 -29.95992,1.834876 H 221.1163 l -0.81638,-1.63047 h -59.71365 v 1.834282 H 131.85105 V 75.01658 h 86.41077 c 0,0 2.44629,2.240098 9.78398,1.628083 1.83432,0.408259 1.62991,-1.222258 1.62991,-1.222258 z" />
  <path
     style="clip-rule:evenodd;overflow:visible;fill:#008080;fill-rule:evenodd;stroke-width:0.42961529"
     inkscape:connector-curvature="0"
     id="path33"
     d="m 226.61646,91.929728 h 23.84687 c 0,0 16.71113,-0.609632 19.15565,-0.814042 8.76376,-0.612019 14.87922,-1.834282 14.87922,-1.834282 l -1.02023,1.834282 c 0,0 9.37579,-0.612019 16.1015,0.814042 0.20425,0 5.70721,0 5.70721,0 l 1.01788,-1.426061 h 41.98401 l 0.40619,1.426061 h 30.57017 L 374.5779,84.594401 H 229.6752 c 0,0 0.20365,1.017849 -1.01788,1.017849 -6.31924,0 -6.72749,-1.426066 -6.72749,-1.426066 h -90.0793 v 7.337719 h 28.73523 v -1.222258 h 64.81122 z" />
  <path
     style="clip-rule:evenodd;overflow:visible;fill:#008080;fill-rule:evenodd;stroke-width:0.42961529"
     inkscape:connector-curvature="0"
     id="path35"
     d="m 380.28539,93.562586 4.6864,7.743544 h -34.2387 l -0.20365,-1.01785 h -52.98853 l -0.81409,0.60964 h -18.74918 l 0.81404,-1.426068 c 0,0 -7.33775,1.222248 -15.28506,1.630458 -0.20365,0 -28.32766,0 -28.32766,0 l -4.48497,-4.278782 -1.01788,3.260942 H 160.5861 v 1.01784 h -28.73522 v -7.743535 h 95.17452 l 2.65071,1.832492 V 93.563184 H 380.2855 v -4.37e-4 z" />
  <path
     style="clip-rule:evenodd;overflow:visible;fill:#008080;fill-rule:evenodd;stroke-width:0.42961529"
     inkscape:connector-curvature="0"
     id="path37"
     d="m 238.03099,103.14041 c 0,0 9.5802,8.76378 28.53144,8.76378 9.98605,0 13.65457,-2.24249 13.65457,-2.24249 h 109.64561 l -3.66916,-6.52129 z" />
  <polygon
     style="clip-rule:evenodd;overflow:visible;fill:#008080;fill-rule:evenodd"
     id="polygon39"
     points="163.875,180.494 163.875,168.866 328.029,168.866 328.029,180.494 "
     transform="matrix(0.59593228,0,0,0.59593228,34.192351,2.5077111)" />
  <polygon
     style="clip-rule:evenodd;overflow:visible;fill:#008080;fill-rule:evenodd"
     id="polygon41"
     points="329.738,163.737 328.029,163.737 328.029,156.553 330.765,159.631 "
     transform="matrix(0.59593228,0,0,0.59593228,34.192351,2.5077111)" />
  <path
     style="clip-rule:evenodd;overflow:visible;fill:#008080;fill-rule:evenodd;stroke-width:0.42961529"
     inkscape:connector-curvature="0"
     id="path43"
     d="m 56.443288,130.13975 c 0,-2.85451 0.203646,-2.85451 5.095228,-2.85451 7.94972,0 4.688751,4.68879 6.725083,4.68879 1.017876,0 0.816443,-1.22226 0.612033,-1.83428 v -4.07677 c 0,-0.40587 -0.408488,-0.81404 -0.814041,-0.81404 -3.669159,0 -6.523705,0.20438 -9.5802,0.20438 -6.317519,0 -9.17201,-0.20438 -10.80249,-0.20438 -0.612034,0 -1.017826,0.40881 -1.017826,0.60963 0,1.83667 4.686979,0.40881 4.686979,4.07737 v 19.56565 c 0,5.09522 -3.05655,2.85273 -3.05655,4.687 0,0.40822 0.204245,0.61203 0.609683,0.61203 2.446867,0 4.076722,-0.20438 5.301414,-0.20438 2.036272,0 4.686979,0.20438 10.800033,0.20438 3.464174,0 5.911101,-3.46713 5.911101,-6.72747 0,-0.81405 -0.203646,-0.81405 -0.408488,-0.81405 -1.63048,0 -1.017821,5.29903 -11.208278,5.29903 -3.058901,0 -2.855117,-1.42607 -2.855117,-4.07677 v -5.29903 c 0,-2.44511 -0.203646,-2.85273 1.63048,-2.85273 h 3.058901 c 4.278785,0 3.260334,4.27879 4.482625,4.27879 1.017821,0 0.814041,-1.42606 0.814041,-2.0363 l -0.40789,-7.33771 c 0,-1.22227 -0.405636,-1.01786 -0.814097,-1.01786 -0.814041,0 -0.814041,3.87058 -4.482569,3.87058 H 58.27705 c -1.834324,0 -1.834324,-0.40642 -1.834324,-2.2407 v -5.70665 h 6.31e-4 z" />
  <path
     style="clip-rule:evenodd;overflow:visible;fill:#008080;fill-rule:evenodd;stroke-width:0.42961529"
     inkscape:connector-curvature="0"
     id="path45"
     d="m 83.956853,130.9538 c 0,-2.85214 2.852775,-1.42667 2.852775,-3.05654 0,-0.40587 -0.201944,-0.40587 -1.017881,-0.40587 -0.610202,0 -1.017826,0.20378 -4.27879,0.20378 -1.428476,0 -3.668528,-0.20378 -5.301414,-0.20378 -0.814037,0 -1.219889,0.40587 -1.219889,0.60964 0,1.42606 4.27879,0.40821 4.27879,3.66855 v 18.1378 c 0,4.6888 -2.852716,2.65011 -2.852716,4.48439 0,0.20438 0.201392,0.40881 0.814042,0.40881 2.038674,0 3.668583,-0.20438 4.891449,-0.20438 1.834264,0 4.076777,0.20438 9.987763,0.20438 3.054148,0 5.296666,-3.26333 5.296666,-6.31927 0,-0.60963 -0.203646,-0.81405 -0.407936,-0.81405 -1.426705,0 -1.017881,5.09523 -10.391895,5.09523 -2.650707,0 -2.650707,-1.42846 -2.650707,-3.66856 z" />
  <path
     style="clip-rule:evenodd;overflow:visible;fill:#008080;fill-rule:evenodd;stroke-width:0.42961529"
     inkscape:connector-curvature="0"
     id="path47"
     d="m 110.24818,131.97403 c 0,-2.65011 0.20195,-2.65011 4.88905,-2.65011 7.33774,0 4.28119,4.48439 6.11546,4.48439 0.81403,0 0.61202,-1.22225 0.61202,-1.83428 l -0.20424,-3.66856 c 0,-0.40821 -0.20365,-0.81345 -0.61203,-0.81345 -3.46412,0 -6.11305,0.20383 -8.76376,0.20383 -5.90927,0 -8.55758,-0.20383 -10.19046,-0.20383 -0.40793,0 -0.81404,0.40587 -0.81404,0.60964 0,1.62988 4.28119,0.40817 4.28119,3.87237 v 17.93398 c 0,4.6888 -2.85511,2.65012 -2.85511,4.4844 0,0.20438 0.20424,0.40881 0.81403,0.40881 2.04045,0 3.66859,-0.20438 4.89322,-0.20438 1.83427,0 4.07678,0.20438 9.98605,0.20438 3.0565,0 5.29901,-3.26333 5.29901,-6.31927 0,-0.60964 -0.20424,-0.81404 -0.40844,-0.81404 -1.42601,0 -1.01782,5.09522 -10.39361,5.09522 -2.64836,0 -2.64836,-1.42845 -2.64836,-3.66856 v -5.09522 c 0,-2.24249 0,-2.65071 1.63048,-2.65071 h 2.85271 c 3.873,0 2.85278,4.07737 4.07444,4.07737 1.02022,0 0.81638,-1.42666 0.61197,-1.83428 l -0.20424,-6.9295 c 0,-1.01785 -0.40844,-0.81405 -0.60969,-0.81405 -0.81639,0 -1.02022,3.46475 -4.27878,3.46475 h -2.4463 c -1.63048,0 -1.63048,-0.20438 -1.63048,-1.83427 z" />
  <path
     style="clip-rule:evenodd;overflow:visible;fill:#008080;fill-rule:evenodd;stroke-width:0.42961529"
     inkscape:connector-curvature="0"
     id="path49"
     d="m 152.63867,128.50987 c 0,-0.20438 -0.20424,-0.20438 -0.40844,-0.20438 -0.61197,0 -0.61197,1.22225 -1.42607,1.22225 -1.02023,0 -4.07438,-2.44451 -8.55992,-2.44451 -9.58026,0 -13.65464,8.55997 -13.65464,15.08126 0,3.05654 1.83433,12.83817 12.8382,12.83817 8.15412,0 12.23033,-5.90866 12.23033,-7.33533 0,-0.20379 -0.40844,-0.40817 -0.61203,-0.40817 -0.81644,0 -3.46418,5.09523 -9.37585,5.09523 -7.33768,0 -10.39184,-7.74594 -10.39184,-13.04258 0,-5.29963 3.05416,-10.59806 8.76142,-10.59806 4.48257,0 7.74353,3.26034 9.57779,6.9295 0.40794,0.60963 0.61204,1.42607 1.22464,1.42607 0.60963,0 0.40844,-1.02024 0.40844,-1.22226 z" />
  <path
     style="clip-rule:evenodd;overflow:visible;fill:#008080;fill-rule:evenodd;stroke-width:0.42961529"
     inkscape:connector-curvature="0"
     id="path51"
     d="m 169.75799,149.70599 c 0,4.4826 -4.28119,2.64833 -4.28119,4.2788 0,0.81643 0.61203,0.81643 1.22407,0.81643 1.63048,0 2.85271,-0.20438 5.29723,-0.20438 2.65071,0 3.873,0.20438 5.30142,0.20438 1.21988,0 2.03633,0 2.03633,-0.81643 0,-1.22226 -4.89082,0 -4.89082,-4.68642 v -17.52755 c 0,-1.83428 0.20364,-2.03868 1.83427,-2.03868 h 3.26033 c 4.48262,0 3.26096,4.28117 4.68938,4.28117 1.01788,0 0.60963,-1.62988 0.40564,-2.03868 l -0.40564,-3.46416 c 0,-0.40821 0,-1.01785 -0.61438,-1.01785 -3.4624,0 -6.1131,0.20378 -11.6159,0.20378 -5.50107,0 -8.15178,-0.20378 -11.61653,-0.20378 -0.60963,0 -0.60963,0.60964 -0.60963,1.01785 l -0.61203,4.89082 c 0,0.61202 -0.20364,1.42666 0.40794,1.42666 1.83249,0 0.61203,-5.09523 4.89145,-5.09523 h 3.26034 c 1.63048,0 2.03867,0.20439 2.03867,2.03869 v 17.93458 0 z" />
  <path
     style="clip-rule:evenodd;overflow:visible;fill:#008080;fill-rule:evenodd;stroke-width:0.42961529"
     inkscape:connector-curvature="0"
     id="path53"
     d="m 197.88124,131.36201 c 0,-2.24249 1.22464,-2.24249 2.65071,-2.24249 3.87059,0 5.91104,2.85451 5.91104,6.72748 0,2.2407 -0.20594,4.27879 -5.91104,4.27879 -1.22464,0 -2.65071,0 -2.65071,-0.81345 z m -4.68704,17.93636 c 0,4.89082 -3.05649,3.46416 -3.05649,4.68642 0,0.81643 0.81404,0.81643 1.22223,0.81643 1.83426,0 3.873,-0.20438 5.91104,-0.20438 1.4267,0 2.64837,0.20438 3.26097,0.20438 0.81644,0 1.01782,-0.20438 1.01782,-0.61203 0,-1.42666 -3.66916,0.20383 -3.66916,-3.87296 v -6.7251 c 0,-1.42666 -0.20139,-1.63047 1.83489,-1.63047 1.83427,0 2.4463,0.40881 3.46418,2.03868 l 3.05656,6.11308 c 1.224,2.24309 2.44629,4.68939 5.50279,4.68939 1.42607,0 4.07678,-0.81643 4.07678,-2.03868 0,-0.40822 -0.20425,-0.61202 -0.61021,-0.61202 -0.40844,0 -0.81644,0.20438 -1.22406,0.20438 -0.20424,0 -1.01787,0 -1.22228,-0.61202 -2.8545,-4.89082 -6.11546,-10.39426 -6.11546,-10.59568 0,-0.40886 1.22469,-0.81643 2.24251,-1.63047 1.22464,-1.02025 2.24252,-2.44631 2.24252,-4.89321 0,-1.62986 -0.81644,-7.13092 -9.17201,-7.13092 -2.44452,0 -5.0946,0.20379 -7.53912,0.20379 -2.4463,0 -2.85455,-0.20379 -4.48503,-0.20379 -0.40845,0 -0.81638,0.20379 -0.81638,0.60964 0,1.42606 4.07677,0 4.07677,4.28118 v 16.91434 0 z" />
  <path
     style="clip-rule:evenodd;overflow:visible;fill:#008080;fill-rule:evenodd;stroke-width:0.42961529"
     inkscape:connector-curvature="0"
     id="path55"
     d="m 220.29964,141.96007 c 0,7.94794 5.09757,13.04257 12.83813,13.04257 12.2309,0 14.47342,-9.37342 14.47342,-14.87685 0,-8.15176 -5.70961,-13.04258 -13.04495,-13.04258 -9.16903,0.20199 -14.2666,6.52188 -14.2666,14.87686 z m 4.68938,-2.24249 c 0,-5.50046 1.83426,-10.80008 8.35556,-11.00389 4.88899,0 9.5778,4.48259 9.5778,13.04257 0,6.31747 -2.24011,11.4115 -8.76199,11.61591 -6.72748,4.3e-4 -9.17137,-7.94675 -9.17137,-13.65459 z" />
  <path
     style="clip-rule:evenodd;overflow:visible;fill:#008080;fill-rule:evenodd;stroke-width:0.42961529"
     inkscape:connector-curvature="0"
     id="path57"
     d="m 256.57696,149.50159 c 0,3.87058 -3.66911,3.26094 -3.66911,4.687 0,0.81346 0.81639,0.61203 1.22464,0.61203 1.01782,0 2.03627,-0.20438 3.26091,-0.20438 1.22229,0 2.64836,0.20438 4.48262,0.20438 0.40564,0 1.42607,0 1.42607,-0.61203 0,-1.83427 -4.89081,0.81346 -4.89081,-6.52128 v -13.04496 c 0,-0.40587 0,-0.60963 0.40793,-0.60963 0,0 0.40845,0.20438 0.61026,0.40821 l 18.34156,19.97208 c 0.20595,0.40881 0.41019,0.60963 1.02028,0.60963 0.40793,0 0.40793,-0.40587 0.40793,-1.22225 v -21.60195 c 0,-3.87297 3.26034,-3.05892 3.26034,-4.28118 0,0 0,-0.40587 -0.81639,-0.40587 -0.40563,0 -1.63048,0.20379 -4.07443,0.20379 -2.65071,0 -3.66853,-0.20379 -4.28119,-0.20379 -0.60963,0 -0.60963,0.40587 -0.60963,0.60964 0,1.22225 4.68703,0.61202 4.68703,4.07677 v 12.83877 c 0,1.02023 -0.20424,1.42607 -0.40793,1.42607 -0.20365,0 -0.60969,-0.40587 -1.22229,-1.01786 l -15.28506,-16.91554 c -0.61203,-0.81404 -0.20364,-1.01785 -1.42847,-1.01785 -2.03628,0 -3.05416,0.20379 -3.87054,0.20379 -0.81644,0 -1.42607,-0.20379 -2.24252,-0.20379 -0.40793,0 -0.60962,0.40587 -0.60962,0.60964 0,1.83428 4.27879,-0.60964 4.27879,6.72509 v 14.67543 h -4.1e-4 z" />
  <path
     style="clip-rule:evenodd;overflow:visible;fill:#008080;fill-rule:evenodd;stroke-width:0.42961529"
     inkscape:connector-curvature="0"
     id="path59"
     d="m 296.52292,131.56641 c 0,-3.66856 2.85272,-2.24249 2.85272,-3.46415 0,-0.60964 -0.20365,-0.60964 -1.22223,-0.60964 -2.24252,0 -3.66859,0.20378 -4.89083,0.20378 -1.42847,0 -2.85511,-0.20378 -4.48497,-0.20378 -0.20364,0 -1.22229,-0.20682 -1.22229,0.60964 0,1.22226 4.27879,0.20379 4.27879,3.66856 v 18.54541 c 0,3.66856 -2.6483,2.65071 -2.6483,3.87296 0,0.20383 0,0.61203 0.40793,0.61203 1.01788,0 2.64836,-0.20438 4.27879,-0.20438 2.85455,0 4.28119,0.20438 5.70726,0.20438 0.81404,0 1.22229,-0.20438 1.22229,-0.61203 0,-1.22225 -4.27879,0.40817 -4.27879,-4.28118 v -18.3416 h -4.6e-4 z" />
  <path
     style="clip-rule:evenodd;overflow:visible;fill:#008080;fill-rule:evenodd;stroke-width:0.42961529"
     inkscape:connector-curvature="0"
     id="path61"
     d="m 329.74077,128.50987 c 0,-0.20438 -0.40794,-0.20438 -0.60963,-0.20438 -0.40794,0 -0.40794,1.22225 -1.22464,1.22225 -1.22229,0 -4.07437,-2.44451 -8.76381,-2.44451 -9.57723,0 -13.45016,8.55997 -13.45016,15.08126 0,3.05654 1.83426,12.83817 12.84059,12.83817 8.15172,0 12.22908,-5.90866 12.22908,-7.33533 0,-0.20379 -0.40845,-0.40817 -0.61198,-0.40817 -1.01845,0 -3.4648,5.09523 -9.37584,5.09523 -7.33592,0 -10.39424,-7.74594 -10.39424,-13.04258 0,-5.29963 3.05889,-10.59806 8.76375,-10.59806 4.28119,0 7.74594,3.26034 9.5802,6.9295 0.40844,0.60963 0.60969,1.42607 1.22229,1.42607 0.61261,0 0.40844,-1.02024 0.40844,-1.22226 z" />
  <path
     style="clip-rule:evenodd;overflow:visible;fill:#008080;fill-rule:evenodd;stroke-width:0.42961529"
     inkscape:connector-curvature="0"
     id="path63"
     d="m 360.71914,142.16447 c -0.81347,0 -1.42607,0.20438 -1.42607,-0.20438 0,-0.61203 0.40793,-1.22226 0.61203,-1.62987 l 3.05649,-7.33772 c 0.20365,-0.40642 0.40849,-0.60964 0.40849,-0.60964 0.20425,0 0.20425,0 0.40619,0.40586 l 3.46417,7.54153 c 0.20425,0.40822 0.40845,1.01785 0.40845,1.62988 0,0.40881 -0.61204,0.20438 -1.42608,0.20438 z m 6.92949,2.2425 c 1.01845,0 1.22223,0.40641 2.65071,3.66676 0.40563,1.22464 0.60963,2.0381 0.60963,2.85453 0,2.64832 -2.85215,2.03868 -2.85215,3.26093 0,0.61203 0.60969,0.61203 1.22229,0.61203 1.22464,0 2.85449,-0.20438 4.48257,-0.20438 2.85454,0 3.87237,0.20438 5.50285,0.20438 1.02028,0 1.42607,0 1.42607,-0.61203 0,-1.42666 -2.24011,0.20383 -3.66618,-2.85511 l -11.00627,-25.47491 c -0.61203,-1.22226 -0.61203,-1.22226 -1.01845,-1.22226 -0.61198,0 -0.81582,0.81643 -1.02023,1.42666 l -11.20828,25.27051 c -1.02022,2.24309 -3.05655,2.03869 -3.05655,2.85511 0,0.61203 0.60963,0.61203 1.22229,0.61203 1.22223,0 2.24245,-0.20438 3.66853,-0.20438 1.22229,0 2.44452,0.20438 3.87059,0.20438 0.81644,0 2.03868,0.20144 2.03868,-0.61203 0,-1.22225 -4.48263,-0.40881 -4.48263,-3.46475 0,-1.01785 0.60969,-2.4463 0.81644,-3.26034 1.01788,-2.85511 1.83192,-3.05713 2.64773,-3.05713 z" />
  <path
     style="clip-rule:evenodd;overflow:visible;fill:#008080;fill-rule:evenodd;stroke-width:0.42961529"
     inkscape:connector-curvature="0"
     id="path65"
     d="m 393.32793,131.36201 c 0,-2.24249 1.22229,-2.24249 2.64836,-2.24249 3.66853,0 5.91104,2.85451 5.91104,6.72748 0,2.2407 -0.20364,4.27879 -6.11311,4.27879 -1.02022,0 -2.44629,0 -2.44629,-0.81345 z m -4.68756,17.93636 c 0,4.89082 -3.05655,3.46416 -3.05655,4.68642 0,0.81643 0.81404,0.81643 1.22224,0.81643 1.83431,0 3.66858,-0.20438 5.70726,-0.20438 1.63048,0 2.6483,0.20438 3.46297,0.20438 0.81582,0 1.02023,-0.20438 1.02023,-0.61203 0,-1.42666 -3.66859,0.20383 -3.66859,-3.87296 v -6.7251 c 0,-1.42666 -0.20424,-1.63047 1.83432,-1.63047 1.83427,0 2.4463,0.40881 3.46412,2.03868 l 3.05713,6.11308 c 1.22463,2.24309 2.44629,4.68939 5.50285,4.68939 1.42606,0 4.07437,-0.81643 4.07437,-2.03868 0,-0.40822 -0.20194,-0.61202 -0.60963,-0.61202 -0.40734,0 -0.81639,0.20438 -1.22223,0.20438 -0.20424,0 -1.02023,0 -1.22464,-0.61202 -2.85214,-4.89082 -6.1131,-10.39426 -6.1131,-10.59568 0,-0.40886 1.22229,-0.81643 2.24251,-1.63047 1.01845,-1.02025 2.24074,-2.44631 2.24074,-4.89321 0,-1.62986 -0.8141,-7.13092 -9.17023,-7.13092 -2.4463,0 -5.09466,0.20379 -7.74531,0.20379 -2.24252,0 -2.64836,-0.20379 -4.27884,-0.20379 -0.61203,0 -1.0208,0.20379 -1.0208,0.60964 0,1.42606 4.28118,0 4.28118,4.28118 z" />
  <path
     style="clip-rule:evenodd;overflow:visible;fill:#008080;fill-rule:evenodd;stroke-width:0.42961529"
     inkscape:connector-curvature="0"
     id="path67"
     d="m 423.48985,149.70599 c 0,4.4826 -4.27935,2.64833 -4.27935,4.2788 0,0.81643 0.60963,0.81643 1.22223,0.81643 1.63048,0 2.85512,-0.20438 5.29964,-0.20438 2.6483,0 3.87294,0.20438 5.29901,0.20438 1.22229,0 2.03867,0 2.03867,-0.81643 0,-1.22226 -4.89075,0 -4.89075,-4.68642 v -17.52755 c 0,-1.83428 0.40563,-2.03868 1.83426,-2.03868 h 3.2609 c 4.48263,0 3.2604,4.28117 4.68641,4.28117 1.01845,0 0.61204,-1.62988 0.40849,-2.03868 l -0.40849,-3.46416 c 0,-0.40821 0,-1.01785 -0.61203,-1.01785 -3.46411,0 -5.90864,0.20378 -11.61584,0.20378 -5.50291,0 -8.15178,-0.20378 -11.61596,-0.20378 -0.61203,0 -0.61203,0.60964 -0.61203,1.01785 l -0.6102,4.89082 c 0,0.61202 -0.20364,1.42666 0.6102,1.42666 1.62991,0 0.40844,-5.09523 4.68881,-5.09523 h 3.26096 c 1.62986,0 2.03628,0.20439 2.03628,2.03869 v 17.93458 0 z" />
  <path
     style="clip-rule:evenodd;overflow:visible;fill:#008080;fill-rule:evenodd;stroke-width:0.42961529"
     inkscape:connector-curvature="0"
     id="path69"
     d="m 445.70385,152.15051 c 0.20429,0.81643 0.20429,1.22226 1.22463,1.42666 2.24011,0.40821 4.07435,1.42607 6.31745,1.42607 5.09463,0 8.55942,-3.46416 8.55942,-8.55938 0,-4.89081 -2.44628,-6.52069 -6.5213,-8.35557 -5.09461,-2.2407 -7.33766,-2.64832 -7.33766,-5.29962 0,-2.44451 1.8342,-4.07439 4.28108,-4.07439 6.5213,0 7.1316,7.33533 7.94738,7.33533 1.01846,0 1.01846,-0.60964 1.01846,-1.42666 l -0.40628,-5.09522 c -0.20383,-1.01786 0,-1.42607 -0.61205,-1.42607 -0.40766,0 -1.42607,0.61203 -1.83428,0.61203 -1.22218,0 -2.85213,-1.63048 -5.91101,-1.63048 -4.48265,0 -7.53914,3.26095 -7.53914,7.74355 0,4.07677 2.24245,5.50284 5.50282,6.9295 6.1131,2.85213 8.55937,3.26094 8.55937,6.52069 0,3.05654 -2.24248,4.89081 -5.29901,4.89081 -4.28117,0 -6.52128,-3.46237 -7.74536,-7.13092 -0.20429,-0.40817 -0.20429,-0.81643 -0.81399,-0.81643 -1.0209,0 -0.61204,1.02024 -0.61204,1.63047 z" />
</svg>
