<?xml version="1.0" encoding="UTF-8" standalone="no"?>
<!-- Created with Inkscape (http://www.inkscape.org/) -->

<svg
   xmlns:dc="http://purl.org/dc/elements/1.1/"
   xmlns:cc="http://creativecommons.org/ns#"
   xmlns:rdf="http://www.w3.org/1999/02/22-rdf-syntax-ns#"
   xmlns:svg="http://www.w3.org/2000/svg"
   xmlns="http://www.w3.org/2000/svg"
   xmlns:sodipodi="http://sodipodi.sourceforge.net/DTD/sodipodi-0.dtd"
   xmlns:inkscape="http://www.inkscape.org/namespaces/inkscape"
   width="500"
   height="200"
   viewBox="0 0 132.29166 52.916668"
   version="1.1"
   id="svg8"
   inkscape:version="0.92.5 (2060ec1f9f, 2020-04-08)"
   sodipodi:docname="easyrpg.svg">
  <defs
     id="defs2" />
  <sodipodi:namedview
     id="base"
     pagecolor="#ffffff"
     bordercolor="#666666"
     borderopacity="1.0"
     inkscape:pageopacity="0.0"
     inkscape:pageshadow="2"
     inkscape:zoom="2.2583223"
     inkscape:cx="253.38838"
     inkscape:cy="77.278983"
     inkscape:document-units="mm"
     inkscape:current-layer="layer1"
     showgrid="false"
     units="px"
     inkscape:pagecheckerboard="true"
     inkscape:window-width="1366"
     inkscape:window-height="739"
     inkscape:window-x="0"
     inkscape:window-y="0"
     inkscape:window-maximized="1" />
  <metadata
     id="metadata5">
    <rdf:RDF>
      <cc:Work
         rdf:about="">
        <dc:format>image/svg+xml</dc:format>
        <dc:type
           rdf:resource="http://purl.org/dc/dcmitype/StillImage" />
        <dc:title></dc:title>
      </cc:Work>
    </rdf:RDF>
  </metadata>
  <g
     inkscape:label="Layer 1"
     inkscape:groupmode="layer"
     id="layer1"
     transform="translate(0,-244.08332)">
    <path
       id="path137"
       style="fill:#596054;stroke-width:0.15171607"
       d="m 124.31622,262.93633 c -1.26902,-0.009 -2.49697,0.091 -3.23454,0.30468 -2.53744,0.73513 -4.38994,2.30768 -5.16708,4.38645 -0.12013,0.32136 -0.28288,0.58135 -0.36206,0.57599 -0.0791,-0.005 -0.25492,-0.47779 -0.38985,-1.05197 -0.30017,-1.27732 -0.70129,-1.95026 -1.60291,-2.68908 -1.37648,-1.1279 -1.69665,-1.18685 -6.83019,-1.25566 l -4.56705,-0.061 -0.11204,7.89695 c -0.0612,4.34329 -0.0669,7.968 -0.0129,8.05527 0.0825,0.13332 3.95595,0.24851 4.05404,0.12042 0.0159,-0.0208 0.0672,-1.26677 0.11389,-2.76876 l 0.0843,-2.73076 2.42797,-0.0954 c 2.65219,-0.10446 3.49354,-0.30039 4.55315,-1.06025 0.33471,-0.24003 0.7443,-0.61943 0.91026,-0.84266 0.72957,-0.98137 0.81531,-1.05239 0.97879,-0.80841 0.0838,0.12507 0.15335,0.69366 0.15464,1.26306 0.005,2.02885 0.99815,4.12836 2.56502,5.42083 0.98211,0.81012 1.57181,1.1263 2.97524,1.5955 0.8928,0.29837 1.38069,0.35668 3.06229,0.36206 1.19856,0.004 2.42207,-0.082 3.05303,-0.21484 1.49067,-0.31357 3.40647,-0.98591 3.64011,-1.27696 0.30818,-0.38394 0.19626,-7.40753 -0.12133,-7.60801 -0.35969,-0.22702 -5.8461,-0.1892 -6.03474,0.0416 -0.14692,0.17977 -0.24827,1.22186 -0.20556,2.11777 0.0193,0.40551 0.0348,0.41094 1.19545,0.45466 l 1.17603,0.0445 v 1.58622 c 0,1.86662 0.0906,1.78729 -2.08072,1.81219 -2.26968,0.026 -3.55202,-0.67794 -4.45778,-2.44742 -0.64643,-1.26286 -0.82608,-3.96543 -0.3491,-5.25136 0.53545,-1.44354 1.81215,-2.5626 3.39288,-2.97429 1.63834,-0.42676 3.53856,-0.18929 5.58378,0.6982 0.56506,0.24528 1.09438,0.40426 1.17603,0.35372 0.0816,-0.0506 0.14815,-0.70066 0.14815,-1.44456 0,-1.34692 -0.002,-1.35285 -0.45096,-1.5853 -0.24827,-0.1283 -1.05129,-0.38333 -1.78349,-0.56672 -0.90361,-0.22635 -2.2137,-0.34674 -3.48268,-0.35652 z m -37.535481,0.0862 c -0.0014,0.009 -0.0029,0.0179 -0.0046,0.026 0.01505,-0.0125 0.01291,-0.0161 0.02409,-0.026 z m 0.185204,0 c 0.01738,0.18406 0.0081,0.2989 -0.002,0.4806 -0.03931,0.1317 4.73e-4,0.27487 -0.01666,0.40744 -0.0049,0.0366 -0.0071,0.0452 -0.01112,0.0722 0.143282,0.50093 0.143622,2.48007 0.07408,7.39505 -0.05618,3.9697 -0.05507,7.3662 0.0029,7.54783 0.100792,0.31769 0.182936,0.3306 2.142765,0.3306 h 2.038131 v -2.86413 c 0,-3.3542 -0.02405,-3.29785 1.352885,-3.15396 1.677251,0.17525 1.891079,0.40254 3.578073,3.80215 l 1.06212,2.13999 2.039983,0.0426 c 1.12229,0.0233 2.13092,0.007 2.24093,-0.0342 0.14338,-0.055 -0.1712,-0.81861 -1.11028,-2.69743 -1.46663,-2.93435 -2.098563,-3.89209 -2.870609,-4.34758 -0.655479,-0.38676 -0.663123,-0.56817 -0.03518,-0.89731 0.271189,-0.1421 0.773201,-0.53893 1.114904,-0.88154 0.700045,-0.7019 0.971377,-1.50373 0.971377,-2.86691 0,-1.91374 -0.604876,-2.94791 -2.166847,-3.70399 -0.818974,-0.39643 -1.211074,-0.47723 -2.983573,-0.61395 -1.122314,-0.0866 -3.840493,-0.15752 -6.04031,-0.15752 z m -0.590793,1.52883 c -0.002,0.005 -0.0038,0.0125 -0.0056,0.0185 -0.0038,0.0161 -0.0074,0.0322 -0.01201,0.0482 -0.0066,0.0224 -0.01559,0.0442 -0.02224,0.0667 -0.02523,0.0844 -0.05562,0.16718 -0.08334,0.25094 0.05652,-0.12956 0.117353,-0.27185 0.165753,-0.37874 -0.01684,-0.002 -0.02399,-0.004 -0.04258,-0.005 z m 20.56835,1.35475 c 0.12817,-0.005 0.27543,-0.004 0.44355,0.002 0.19214,0.007 0.41206,0.0199 0.66394,0.0341 1.5075,0.086 2.12863,0.3571 2.67616,1.16956 0.70442,1.04532 0.25859,2.75314 -0.85934,3.29379 -0.3596,0.17381 -1.04041,0.28437 -2.00849,0.32594 -1.35486,0.0582 -1.47699,0.04 -1.6307,-0.24725 -0.096,-0.17947 -0.16668,-1.14554 -0.16668,-2.28814 0,-1.8364 -0.0157,-2.24887 0.88156,-2.29 z m -14.343768,0.18335 c 2.113282,-0.0697 2.842824,0.4627 2.842824,2.07702 0,1.03182 -0.23571,1.47241 -0.981561,1.83347 -0.775857,0.37549 -2.816349,0.43764 -3.101176,0.0944 -0.116959,-0.14102 -0.160969,-0.83337 -0.132423,-2.08628 l 0.04258,-1.87515 z"
       inkscape:connector-curvature="0" />
    <g
       id="g135"
       transform="matrix(0.77998636,0,0,0.77998636,36.106228,57.054951)">
      <path
         style="fill:#c4dab6;stroke-width:0.01963019"
         d="m -26.573768,291.02209 c -1.576491,-0.0313 -3.289923,-0.32326 -4.838842,-0.82462 -0.261404,-0.0846 -0.973882,-0.34487 -1.209374,-0.44176 -0.10121,-0.0417 -0.12811,-0.0442 -0.333714,-0.0322 -2.177609,0.12733 -4.578492,-0.52495 -6.42148,-1.74461 -0.883993,-0.58502 -1.748791,-1.39049 -2.426445,-2.26 -1.159763,-1.48809 -1.974315,-3.28705 -2.259106,-4.98927 -0.07896,-0.47198 -0.09489,-0.63667 -0.119585,-1.23671 -0.01741,-0.42306 -0.01584,-0.63017 0.0084,-1.1091 0.03152,-0.62246 0.06753,-0.91951 0.179662,-1.48208 0.18737,-0.94002 0.39609,-1.51836 0.725023,-2.00895 l 0.129508,-0.19316 -0.01296,-0.38593 c -0.02118,-0.6306 0.03226,-1.62178 0.129832,-2.40784 0.361235,-2.91032 1.483116,-5.68519 3.25744,-8.05698 0.48538,-0.64882 0.978421,-1.21532 1.590061,-1.82696 1.28283,-1.28283 2.680398,-2.30234 4.289328,-3.12901 l 0.294452,-0.15129 0.157042,-0.19022 c 0.227205,-0.27521 1.017613,-1.06109 1.314512,-1.30699 1.054768,-0.87358 2.101266,-1.46251 3.318213,-1.86736 0.843426,-0.2806 1.582583,-0.43222 2.551925,-0.52347 0.367462,-0.0346 1.635854,-0.0346 2.002279,-6e-5 1.42863,0.13479 2.603586,0.45972 3.776195,1.0443 1.063776,0.53032 1.922726,1.15188 2.791727,2.02019 0.370453,0.37016 0.529627,0.56096 0.709871,0.85092 0.205047,0.32987 0.38966,0.7957 0.448281,1.13114 l 0.02539,0.14531 0.138642,0.10004 c 1.298335,0.93684 2.399651,1.96409 3.349851,3.12457 1.314353,1.60521 2.319821,3.42383 2.972945,5.37725 0.419915,1.25592 0.684479,2.52142 0.804361,3.84752 0.02879,0.31841 0.03287,0.33732 0.08912,0.41224 0.03242,0.0432 0.147774,0.20194 0.256341,0.3528 0.948894,1.31849 1.584217,2.93052 1.844945,4.68125 0.104786,0.7036 0.103999,2.23352 -0.0015,2.9254 -0.272181,1.78491 -1.037703,3.56333 -2.192989,5.09462 -0.328741,0.43574 -0.584807,0.7295 -0.975982,1.11967 -0.839985,0.83781 -1.696017,1.4448 -2.769401,1.96369 -0.7542,0.36459 -1.668602,0.68411 -2.355686,0.82315 -1.035681,0.20958 -2.000819,0 -2.809638,-0.60998 -0.09207,-0.0694 -0.17421,-0.12625 -0.182543,-0.12625 -0.0083,0 -0.186524,0.0831 -0.395982,0.18475 -1.900485,0.92198 -3.872283,1.46542 -5.985253,1.64958 -0.353395,0.0308 -1.319582,0.0726 -1.511525,0.0654 -0.05938,-0.002 -0.218386,-0.006 -0.353343,-0.009 z"
         id="path116"
         inkscape:connector-curvature="0" />
      <path
         style="fill:#b1cd9e;stroke-width:0.01963019"
         d="m -26.950147,290.99582 c -1.491138,-0.078 -2.882126,-0.32348 -4.273143,-0.75426 -0.396766,-0.12288 -1.130559,-0.38643 -1.366901,-0.49096 l -0.108366,-0.0479 -0.544653,0.0114 c -1.128087,0.0237 -2.118128,-0.10531 -3.214118,-0.41879 -1.43253,-0.40973 -2.676163,-1.06084 -3.798683,-1.98881 -0.309667,-0.256 -1.027891,-0.97462 -1.294606,-1.29531 -1.104921,-1.32856 -1.939716,-2.94978 -2.335497,-4.53567 -0.217542,-0.87168 -0.29584,-1.52371 -0.29584,-2.46358 0,-0.74382 0.04597,-1.25226 0.178127,-1.96995 0.178101,-0.96722 0.408796,-1.62816 0.742461,-2.12715 l 0.138656,-0.20735 -0.01194,-0.3997 c -0.0129,-0.43205 0.01632,-1.26032 0.06246,-1.77008 0.249621,-2.75798 1.112562,-5.29266 2.601029,-7.63988 1.590364,-2.50791 3.899611,-4.60629 6.587509,-5.98597 l 0.296817,-0.15235 0.174308,-0.20908 c 0.228104,-0.27361 0.916205,-0.96415 1.214707,-1.219 1.950999,-1.66573 4.258246,-2.49369 6.949087,-2.49369 0.982168,0 1.812205,0.0967 2.690322,0.3134 1.299271,0.32064 2.469101,0.86401 3.551792,1.64976 0.669875,0.48616 1.43451,1.18603 1.780325,1.62955 0.341358,0.4378 0.582923,0.94868 0.679917,1.43794 l 0.03584,0.18078 0.204737,0.15185 c 0.945074,0.70095 1.452285,1.13375 2.167964,1.84992 1.306078,1.30698 2.348533,2.75573 3.192612,4.43693 0.939695,1.87165 1.524945,3.95294 1.706996,6.07049 l 0.02403,0.27958 0.146398,0.19155 c 0.195827,0.25621 0.558703,0.80597 0.715984,1.08471 0.688782,1.22072 1.13668,2.58381 1.321728,4.02244 0.0608,0.47269 0.08483,1.43378 0.04973,1.98906 -0.110265,1.74444 -0.75216,3.56531 -1.842054,5.22538 -1.332201,2.02913 -3.152654,3.43352 -5.444932,4.20049 -0.474122,0.15864 -0.901619,0.2746 -1.195747,0.32435 -1.014202,0.17156 -1.940675,-0.0559 -2.723267,-0.66854 -0.06725,-0.0526 -0.130027,-0.0957 -0.139512,-0.0957 -0.0095,0 -0.215053,0.0961 -0.456822,0.21366 -1.956003,0.95073 -4.01577,1.49419 -6.259933,1.65165 -0.401185,0.0281 -1.51826,0.0392 -1.907533,0.0188 z m 3.862591,-9.81452 c 0.905354,-0.38681 1.784197,-1.0066 2.420738,-1.70718 0.159142,-0.17515 0.176406,-0.20186 0.186414,-0.28834 0.06782,-0.58606 0.184469,-0.91758 0.479033,-1.36145 0.129165,-0.19464 0.516068,-0.58699 0.689697,-0.69941 l 0.115928,-0.0751 0.08005,-0.26547 c 0.102576,-0.34018 0.165962,-0.60092 0.214859,-0.88382 0.04943,-0.28601 0.09009,-0.64525 0.07476,-0.66058 -0.01702,-0.017 -0.30043,0.0609 -0.520541,0.14317 -0.678714,0.25356 -1.281459,0.6942 -1.741583,1.27317 -0.241051,0.30332 -0.231495,0.28731 -1.687221,2.82675 -0.485285,0.84656 -0.521609,0.90593 -0.678786,1.10944 l -0.113965,0.14756 -0.06631,0.33673 -0.06631,0.33673 0.211058,-0.0753 c 0.116083,-0.0414 0.297068,-0.11204 0.40219,-0.15695 z m -6.15546,-0.83893 c 0.281108,-0.79643 0.320207,-1.68883 0.108367,-2.47333 -0.134724,-0.49892 -0.256746,-0.74842 -0.951718,-1.94602 -0.302968,-0.52208 -0.550851,-0.95817 -0.550851,-0.96908 0,-0.0109 -0.149278,-0.27785 -0.331729,-0.59319 -0.361691,-0.62513 -0.435804,-0.76528 -0.53002,-1.00229 -0.0567,-0.14263 -0.07532,-0.16785 -0.202888,-0.27482 -0.381694,-0.32006 -0.999204,-0.9787 -1.400785,-1.49408 -1.096402,-1.40711 -1.792244,-3.21217 -1.951527,-5.06241 -0.01208,-0.14035 -0.02803,-0.29876 -0.03544,-0.35202 l -0.01347,-0.0968 -0.213716,0.24406 c -1.082414,1.23608 -1.889338,2.5945 -2.436286,4.10139 -0.44519,1.22653 -0.709715,2.57801 -0.749587,3.82971 l -0.01225,0.38461 0.09624,0.0236 c 0.05293,0.013 0.233165,0.067 0.400512,0.12004 0.167348,0.053 0.860784,0.25506 1.54097,0.44896 2.828502,0.80628 3.613672,1.02324 3.703015,1.02324 0.128785,0 0.266844,0.0516 0.665553,0.24879 0.893137,0.4417 1.46057,1.30625 1.505184,2.29332 0.01092,0.24158 -0.02771,0.64815 -0.08115,0.85418 l -0.02537,0.0978 0.173103,0.15591 c 0.272431,0.24536 0.515211,0.43419 0.830815,0.64619 l 0.292018,0.19615 0.0561,-0.11862 c 0.03085,-0.0652 0.08257,-0.19362 0.114916,-0.28527 z m -10.76963,-6.19379 c 0.0056,-0.0459 0.01542,-0.19385 0.0218,-0.32881 0.03525,-0.74629 0.186862,-1.72756 0.39547,-2.55952 0.455812,-1.81786 1.281254,-3.54838 2.407457,-5.04718 0.580968,-0.77318 1.231784,-1.47835 1.981776,-2.14731 0.137657,-0.12278 0.250285,-0.22432 0.250285,-0.22563 0,-10e-4 0.01755,-0.0945 0.039,-0.20709 0.02145,-0.11258 0.03563,-0.20807 0.0315,-0.2122 -0.01078,-0.0108 -0.433624,0.34436 -0.698667,0.58679 -1.632813,1.49352 -2.896007,3.31589 -3.706838,5.34775 -0.537871,1.34785 -0.884818,2.84964 -0.983753,4.25827 -0.01138,0.16195 -0.02563,0.36216 -0.03169,0.44492 -0.0126,0.17226 -0.01758,0.1673 0.171778,0.17116 l 0.11167,0.002 z m 19.181933,-4.15717 c 0.382926,-0.12958 1.039666,-0.29517 1.686972,-0.42535 0.03239,-0.007 0.394567,-0.13758 0.804838,-0.29125 0.743224,-0.27839 1.375707,-0.50821 2.367255,-0.86015 0.287111,-0.10191 0.547702,-0.19828 0.579091,-0.21417 0.03139,-0.0159 0.118908,-0.0488 0.194484,-0.0732 0.07558,-0.0244 0.145173,-0.0515 0.15466,-0.0602 0.02012,-0.0184 -0.313105,-0.52781 -0.57719,-0.88232 -0.908067,-1.21901 -1.995982,-2.24616 -3.248316,-3.06688 -0.172745,-0.11321 -0.350824,-0.22669 -0.39573,-0.25218 l -0.08165,-0.0464 -0.159421,0.14664 c -0.08768,0.0806 -0.236444,0.21692 -0.330586,0.30281 -0.203557,0.18573 -1.487117,1.42393 -2.58691,2.4955 -0.833879,0.81247 -1.003674,0.96703 -1.227014,1.11687 -0.599938,0.40252 -1.236367,0.55191 -1.919224,0.45051 -0.581842,-0.0864 -1.064416,-0.34014 -1.525305,-0.80204 -0.58384,-0.58513 -0.853125,-1.20545 -0.853125,-1.96526 0,-0.30387 0.03467,-0.52606 0.119698,-0.76707 0.172028,-0.48763 0.344869,-0.72683 1.027293,-1.42173 0.706552,-0.71946 1.287153,-1.32585 1.287153,-1.34432 0,-0.022 -0.907407,0.006 -1.315223,0.0404 -0.359403,0.0305 -1.020404,0.11583 -1.138876,0.14711 -0.0852,0.0225 -0.62377,0.55924 -0.787412,0.78475 -0.424385,0.58484 -0.681331,1.23607 -0.770645,1.95321 -0.06133,0.49245 -0.03357,1.14324 0.06894,1.61642 0.331374,1.52947 1.636308,2.89289 3.12856,3.26876 0.562564,0.1417 0.768997,0.15195 3.013234,0.14958 1.552695,-0.002 1.899971,0.003 2.02191,0.0262 0.218447,0.0418 0.270125,0.0388 0.462534,-0.0263 z m 7.514873,-2.40649 c 0.07193,-0.0245 0.09027,-0.039 0.08077,-0.0638 -0.02737,-0.0715 -0.307377,-0.52433 -0.529873,-0.85699 -0.903482,-1.35078 -2.04143,-2.55269 -3.347077,-3.53518 -0.340924,-0.25655 -0.870576,-0.61617 -0.907489,-0.61617 -0.01453,0 -0.0685,0.0427 -0.119918,0.0949 -0.07275,0.0739 -0.08783,0.0994 -0.06797,0.11518 0.01404,0.0111 0.153616,0.10647 0.310167,0.21185 1.711884,1.15229 3.205512,2.72048 4.248957,4.46106 0.148139,0.24711 0.153425,0.25012 0.332427,0.18913 z"
         id="path114"
         inkscape:connector-curvature="0" />
      <path
         style="fill:#849f73;stroke-width:0.01963019"
         d="m -27.162674,290.97557 c -1.280646,-0.0836 -2.426319,-0.27815 -3.651216,-0.61994 -0.373115,-0.10411 -1.185278,-0.37973 -1.573711,-0.53405 l -0.346825,-0.13779 -0.330417,0.0196 c -0.863612,0.0513 -1.975408,-0.0616 -2.949029,-0.29945 -2.518724,-0.6153 -4.562084,-1.99151 -6.05476,-4.0779 -0.390367,-0.54563 -0.722473,-1.11235 -1.060096,-1.80898 -1.100467,-2.27062 -1.34001,-4.70182 -0.707896,-7.18465 0.161835,-0.63565 0.322026,-1.01967 0.597852,-1.43319 l 0.111424,-0.16705 0.01098,-0.84391 c 0.01109,-0.85237 0.03538,-1.25979 0.112933,-1.89412 0.238475,-1.95055 0.769979,-3.73122 1.637683,-5.48664 1.615235,-3.26771 4.24183,-5.92411 7.518999,-7.60432 l 0.274823,-0.1409 0.157041,-0.19076 c 0.225741,-0.27421 1.016143,-1.06042 1.314512,-1.30753 1.65608,-1.3716 3.475631,-2.13402 5.624761,-2.35688 0.963765,-0.0999 2.059167,-0.0747 2.993604,0.0691 1.803249,0.27745 3.432276,0.99344 4.870305,2.1406 0.529868,0.4227 1.148458,1.01864 1.397112,1.34596 0.332323,0.43746 0.552076,0.90576 0.653941,1.39356 0.02186,0.10467 0.04372,0.19675 0.04859,0.20463 0.0049,0.008 0.143634,0.11208 0.308373,0.23157 1.987635,1.44171 3.671163,3.3369 4.866927,5.47882 0.233542,0.41834 0.666822,1.29385 0.818908,1.65474 0.683575,1.62209 1.105051,3.31666 1.266966,5.09392 l 0.02913,0.31977 0.175979,0.23378 c 1.106713,1.47017 1.821018,3.32896 2.036854,5.30037 0.04949,0.452 0.04967,1.62402 3.14e-4,2.05136 -0.150716,1.30509 -0.498379,2.47143 -1.088348,3.65121 -1.400984,2.8016 -3.613035,4.7017 -6.482213,5.56808 -0.763813,0.23064 -1.071218,0.28078 -1.629856,0.26585 -0.284402,-0.008 -0.432039,-0.0209 -0.574405,-0.0516 -0.508793,-0.10986 -0.96798,-0.32481 -1.387993,-0.64973 l -0.152666,-0.1181 -0.392263,0.19374 c -0.979662,0.48387 -2.10095,0.89879 -3.185428,1.17873 -0.948806,0.24492 -1.787215,0.38667 -2.875823,0.48622 -0.392284,0.0359 -1.969782,0.053 -2.385068,0.0259 z m 2.630445,-1.79358 c 2.064831,-0.19667 3.936539,-0.76626 5.697663,-1.7339 0.304784,-0.16745 0.294002,-0.15013 0.229395,-0.36855 -0.02229,-0.0753 -0.05259,-0.20014 -0.06735,-0.27733 -0.02914,-0.15245 -0.560513,-2.26764 -1.256772,-5.00277 -0.24186,-0.9501 -0.454763,-1.81579 -0.473121,-1.92376 -0.04577,-0.2692 -0.04583,-0.76486 -1.97e-4,-0.99866 0.148306,-0.75838 0.611675,-1.41536 1.26844,-1.79846 0.428539,-0.24997 0.98302,-0.39686 1.501859,-0.39786 0.323545,-6.2e-4 0.560228,0.0363 0.846931,0.13227 0.788527,0.26383 1.325476,0.80524 1.616299,1.62971 0.0543,0.15396 0.224214,0.77752 0.845119,3.10157 0.07788,0.29151 0.148386,0.53745 0.15668,0.54654 0.02089,0.0229 0.285262,-0.38153 0.427852,-0.65451 0.212261,-0.40635 0.36128,-0.84303 0.448825,-1.31522 0.02718,-0.14658 0.03441,-0.2894 0.03383,-0.66743 -6.87e-4,-0.43863 -0.0053,-0.50439 -0.05286,-0.74754 -0.25383,-1.29867 -0.849985,-2.2143 -1.896635,-2.91302 -0.570014,-0.38054 -1.188646,-0.6246 -1.851518,-0.73046 -0.284972,-0.0455 -0.912517,-0.0453 -1.212504,3.8e-4 -1.356766,0.20662 -2.397443,0.85533 -3.091474,1.92706 -0.05593,0.0864 -0.488374,0.8284 -0.960981,1.64894 -0.994913,1.72737 -0.937378,1.63117 -1.125646,1.88222 l -0.145501,0.19403 -0.08613,0.38507 c -0.375412,1.67833 -1.098569,3.12784 -2.169538,4.34866 -0.252053,0.28732 -0.760423,0.78665 -1.028568,1.01028 -0.709589,0.59178 -1.525647,1.11919 -2.355622,1.52241 -0.436194,0.21192 -0.575082,0.26976 -0.929027,0.3869 -0.14388,0.0476 -0.263133,0.0945 -0.265008,0.10423 -0.0046,0.0238 0.656063,0.22505 1.09467,0.33346 0.785661,0.19418 1.621394,0.32902 2.376467,0.3834 0.161949,0.0117 0.329787,0.0245 0.372973,0.0284 0.213972,0.0196 1.7502,-0.007 2.051355,-0.0361 z m -8.529317,-5.78376 c 1.200251,-0.10344 2.417658,-0.76765 3.164202,-1.72638 0.544894,-0.69977 0.889661,-1.67171 0.922961,-2.60194 0.01706,-0.47642 -0.03707,-0.89323 -0.173124,-1.33327 -0.14209,-0.45954 -0.23519,-0.64445 -0.925147,-1.83747 -0.297035,-0.51362 -0.546454,-0.95397 -0.554263,-0.97858 -0.0078,-0.0246 -0.155625,-0.28898 -0.328478,-0.5875 -0.336724,-0.58153 -0.424261,-0.7476 -0.524074,-0.99426 -0.05656,-0.13977 -0.07783,-0.16892 -0.193405,-0.26501 -0.203263,-0.169 -0.800882,-0.77064 -1.023685,-1.03058 -1.106848,-1.29134 -1.811093,-2.72256 -2.139506,-4.34809 -0.260794,-1.29083 -0.279892,-2.82256 -0.05029,-4.0334 0.02655,-0.14002 0.04828,-0.26655 0.04828,-0.28117 0,-0.0484 -0.05386,-0.0158 -0.268523,0.16257 -0.634394,0.52701 -1.339748,1.2295 -1.862844,1.85527 -1.927951,2.30637 -3.085911,5.12208 -3.334107,8.10727 -0.02481,0.29834 -0.0412,0.65057 -0.03345,0.71853 0.0015,0.0128 0.09244,0.0309 0.223311,0.0443 0.248871,0.0255 0.518487,0.0893 0.750855,0.17762 0.08637,0.0328 0.726807,0.21958 1.423188,0.41498 0.696381,0.1954 2.100921,0.58941 3.1212,0.87557 1.02028,0.28615 1.908055,0.52889 1.972835,0.53941 0.277991,0.0451 0.716055,0.23137 1.036168,0.4405 0.255774,0.1671 0.574899,0.48221 0.729768,0.7206 0.211676,0.32583 0.348976,0.675 0.414681,1.05456 0.04274,0.24689 0.02828,0.7316 -0.02995,1.00426 -0.193019,0.90375 -0.739598,1.62098 -1.515332,1.98845 -0.480635,0.22768 -1.066364,0.28002 -1.66687,0.14896 -0.09464,-0.0207 -0.713951,-0.18369 -1.376246,-0.36229 -2.072135,-0.55879 -2.205104,-0.59327 -2.212901,-0.57382 -0.0042,0.0104 0.05207,0.13726 0.124976,0.28188 0.725385,1.43894 2.022201,2.2916 3.690869,2.42678 0.173647,0.0141 0.365008,0.0115 0.588906,-0.008 z m -9.04182,-8.53207 c 0.06054,-0.0507 0.1145,-0.0956 0.119898,-0.0998 0.0054,-0.004 0.01104,-0.3227 0.01255,-0.70778 0.0034,-0.88151 0.04462,-1.479 0.155438,-2.25541 0.53189,-3.7264 2.363239,-7.11921 5.200872,-9.63528 0.837831,-0.74289 1.867466,-1.4707 2.816932,-1.99119 0.348259,-0.19091 0.3538,-0.19549 0.525255,-0.4336 0.08806,-0.1223 0.156547,-0.22593 0.152191,-0.23028 -0.01271,-0.0127 -0.737356,0.36755 -1.079865,0.56667 -1.254795,0.7295 -2.274782,1.51629 -3.318595,2.55988 -0.820255,0.82007 -1.395772,1.51904 -2.021211,2.45476 -0.430756,0.64446 -0.695251,1.10231 -1.049109,1.81607 -0.990222,1.99735 -1.534524,4.10239 -1.649564,6.37953 -0.02943,0.58246 -0.01929,1.66857 0.01557,1.66857 0.0053,0 0.0591,-0.0415 0.119645,-0.0922 z m 30.441266,-3.35785 c -0.0055,-0.0189 -0.03287,-0.13152 -0.06092,-0.25028 -0.171611,-0.72665 -0.509113,-1.71144 -0.842174,-2.45738 -0.112471,-0.25189 -0.421782,-0.87086 -0.534931,-1.07047 -0.04722,-0.0833 -0.08585,-0.16478 -0.08585,-0.18106 0,-0.0642 -0.494673,-0.84788 -0.824771,-1.3066 -0.868231,-1.20655 -1.956647,-2.30959 -3.164025,-3.20654 -0.321087,-0.23853 -0.802528,-0.56246 -0.835964,-0.56246 -0.05417,0 -0.369371,0.30081 -2.65088,2.52984 -1.266697,1.23756 -2.415063,2.35465 -2.551925,2.48242 -0.469937,0.43872 -0.922183,0.69051 -1.43777,0.80049 -0.259793,0.0554 -0.702397,0.0608 -0.971538,0.0118 -0.390627,-0.0711 -0.804553,-0.25225 -1.127967,-0.49367 -0.230202,-0.17184 -0.555439,-0.51425 -0.712405,-0.75003 -0.277518,-0.41687 -0.415313,-0.82629 -0.454929,-1.3517 -0.04105,-0.54447 0.150922,-1.13865 0.530969,-1.64338 0.05108,-0.0678 0.711618,-0.74347 1.467867,-1.50141 l 1.374999,-1.37808 -0.05775,-0.0225 c -0.08692,-0.0339 -0.764707,-0.0473 -1.039263,-0.0206 -1.01814,0.0991 -1.85763,0.48975 -2.598399,1.20903 -0.406757,0.39496 -0.682752,0.76256 -0.903133,1.20289 -0.291279,0.58199 -0.424591,1.12992 -0.447664,1.83996 -0.04144,1.27527 0.365723,2.35276 1.229962,3.25487 0.599578,0.62586 1.292895,1.04033 2.058947,1.23087 0.51049,0.12697 0.434892,0.12324 2.790162,0.13765 1.877088,0.0115 2.169763,0.0172 2.309337,0.0453 l 0.159829,0.0321 0.24259,-0.0793 c 0.668025,-0.21832 1.592929,-0.42242 2.235052,-0.4932 0.305181,-0.0336 1.466872,-0.0337 1.776533,-2e-5 1.211385,0.13157 2.275604,0.44002 3.402711,0.98625 0.482086,0.23363 1.202545,0.64716 1.320552,0.75797 0.06317,0.0593 0.374579,0.27979 0.396632,0.28081 0.0088,4.1e-4 0.01158,-0.0147 0.0061,-0.0336 z m 3.14e-4,-4.42446 c 0.04738,-0.0119 0.09067,-0.029 0.09621,-0.038 0.01315,-0.0213 -0.224363,-0.49459 -0.446646,-0.89004 -1.101772,-1.96014 -2.621284,-3.69195 -4.412741,-5.02928 -0.387908,-0.28958 -0.761367,-0.54881 -0.772405,-0.53616 -0.01479,0.017 -0.02914,0.28622 -0.01626,0.30497 0.0073,0.0106 0.123689,0.0978 0.258647,0.19371 1.603237,1.13959 2.934276,2.5017 4.02881,4.12287 0.35587,0.5271 0.720644,1.14687 0.977611,1.66102 0.118981,0.23806 0.133334,0.25841 0.171807,0.24365 0.01586,-0.006 0.06759,-0.0208 0.114971,-0.0328 z"
         id="path112"
         inkscape:connector-curvature="0" />
      <path
         style="fill:#72925f;stroke-width:0.01963019"
         d="m -26.956557,290.97652 c -1.917323,-0.1025 -3.743685,-0.49453 -5.417933,-1.16297 l -0.294453,-0.11756 -0.775392,-0.004 c -0.933999,-0.004 -1.399647,-0.0493 -2.178159,-0.21054 -1.565622,-0.32423 -2.967967,-0.94371 -4.192746,-1.85212 -0.72794,-0.53991 -1.494076,-1.30634 -2.066586,-2.06738 -0.29701,-0.39482 -0.749438,-1.07551 -0.749438,-1.12755 0,-0.009 -0.05462,-0.11132 -0.121377,-0.22682 -0.171981,-0.29754 -0.541541,-1.06316 -0.669879,-1.3878 -0.292862,-0.7408 -0.492115,-1.45445 -0.611222,-2.18915 -0.05647,-0.34831 -0.109047,-0.82869 -0.109047,-0.99627 0,-0.0629 -0.0091,-0.12356 -0.02034,-0.13475 -0.02133,-0.0213 -0.01436,-0.85001 0.0087,-1.03773 0.0066,-0.054 0.02132,-0.21299 0.03262,-0.35334 0.06008,-0.746 0.282016,-1.8439 0.480897,-2.37896 0.125827,-0.33852 0.310835,-0.69325 0.473041,-0.90702 l 0.06545,-0.0863 v -0.65261 c 0,-0.35893 0.009,-0.81039 0.02003,-1.00322 0.164832,-2.88509 1.030361,-5.60475 2.564937,-8.05953 1.595015,-2.55145 3.943823,-4.70566 6.61825,-6.06991 l 0.32724,-0.16693 0.166856,-0.20193 c 0.214813,-0.25997 0.945368,-0.99301 1.236702,-1.24091 1.458706,-1.24124 3.146,-2.02455 5.015531,-2.32842 1.347313,-0.21898 2.84235,-0.19664 4.13968,0.0619 1.836334,0.36592 3.491651,1.20993 4.935692,2.51661 0.914478,0.82749 1.309023,1.42047 1.495274,2.24732 0.0299,0.13276 0.05764,0.24372 0.06164,0.24658 1.495104,1.06817 2.567712,2.0716 3.622646,3.389 1.058976,1.32244 2.029754,3.01909 2.617024,4.57383 0.522487,1.38324 0.855633,2.82294 1.008417,4.35791 l 0.04396,0.44168 0.197742,0.265 c 0.789368,1.05788 1.380445,2.31635 1.72106,3.66433 0.34692,1.37292 0.428672,2.61596 0.25735,3.91293 -0.180712,1.36802 -0.650174,2.72267 -1.387802,4.00456 -1.206108,2.09602 -2.832183,3.57795 -4.932307,4.49506 -0.676739,0.29553 -1.541443,0.57098 -2.103511,0.67007 -0.33182,0.0585 -0.895861,0.0627 -1.194361,0.009 -0.538327,-0.097 -1.035544,-0.31661 -1.47335,-0.65065 -0.09098,-0.0694 -0.174438,-0.12621 -0.185468,-0.12621 -0.01103,0 -0.15024,0.0651 -0.309354,0.14478 -1.733352,0.86746 -3.73048,1.44884 -5.705068,1.66077 -0.717422,0.077 -1.95145,0.11427 -2.61298,0.0789 z m 1.590045,-0.78573 c 2.0645,-0.10084 3.963927,-0.54789 5.823528,-1.37062 0.496086,-0.21948 1.390567,-0.67966 1.390567,-0.71541 0,-0.0212 -0.112139,-0.18471 -0.137421,-0.20033 -0.01052,-0.007 -0.07962,0.0235 -0.153539,0.0667 -0.193046,0.11274 -0.916634,0.47175 -1.234215,0.61235 -1.554313,0.68815 -3.182602,1.11412 -4.903712,1.28286 -0.984096,0.0965 -2.230815,0.0892 -3.219351,-0.0188 -1.34739,-0.14723 -2.777879,-0.48752 -3.919156,-0.93229 l -0.194515,-0.0758 -0.24491,0.0328 c -0.134701,0.018 -0.242335,0.0405 -0.239187,0.0499 0.0174,0.0522 1.191264,0.47675 1.820096,0.65827 1.651186,0.47664 3.505077,0.69377 5.211815,0.61041 z m 0.471125,-0.96291 c 2.008714,-0.118 4.092374,-0.70173 5.839982,-1.63604 0.47189,-0.25228 0.508512,-0.27332 0.517942,-0.29749 0.0045,-0.0117 -0.01738,-0.1263 -0.04872,-0.25479 -0.03134,-0.12848 -0.05698,-0.2484 -0.05698,-0.26649 0,-0.0181 -0.371918,-1.48907 -0.826484,-3.26884 -0.454565,-1.77977 -0.84722,-3.3287 -0.872566,-3.44206 -0.226109,-1.01135 0.02953,-1.91669 0.732585,-2.59444 0.364275,-0.35116 0.809186,-0.57882 1.381767,-0.70704 0.275158,-0.0616 0.899041,-0.0664 1.145298,-0.009 0.942675,0.22071 1.572851,0.79006 1.893041,1.71032 0.03381,0.0972 0.270973,0.96657 0.527033,1.932 0.256061,0.96543 0.476015,1.75879 0.48879,1.76301 0.03667,0.0121 0.367462,-0.50482 0.517281,-0.80837 0.465837,-0.94382 0.567857,-1.94988 0.302957,-2.9876 -0.32964,-1.29135 -1.127809,-2.2723 -2.346022,-2.88326 -0.932375,-0.4676 -1.834851,-0.5873 -2.871706,-0.38089 -1.018729,0.20279 -1.901706,0.72322 -2.512062,1.48061 -0.240278,0.29816 -0.333065,0.44972 -1.279796,2.09039 -0.938145,1.6258 -0.985503,1.70437 -1.152239,1.91159 -0.09578,0.11903 -0.111384,0.15122 -0.133213,0.27482 -0.03507,0.19861 -0.161861,0.70688 -0.245479,0.98409 -0.170481,0.56519 -0.349683,1.02124 -0.609359,1.55079 -0.87068,1.77553 -2.258441,3.19766 -4.151224,4.25401 -0.53122,0.29648 -1.050242,0.5344 -1.555692,0.71315 -0.148454,0.0525 -0.269915,0.10546 -0.269915,0.11769 0,0.0244 0.0045,0.026 0.466927,0.1669 1.627467,0.49601 3.332908,0.6915 5.117862,0.58664 z m -17.039562,-5.55319 0.09612,-0.0976 -0.20815,-0.42752 c -0.511488,-1.05055 -0.796403,-2.00375 -0.928707,-3.10704 -0.04312,-0.3596 -0.05955,-1.26208 -0.03001,-1.64894 0.06441,-0.84353 0.264302,-1.83959 0.474715,-2.36543 0.227683,-0.56901 0.579961,-0.95676 1.106974,-1.21845 0.340677,-0.16916 0.556337,-0.22478 0.922619,-0.23798 0.354436,-0.0128 0.573174,0.0221 0.96188,0.1535 0.161949,0.0547 0.674297,0.20859 1.138551,0.34191 0.464254,0.13333 1.122356,0.32341 1.462449,0.42242 0.340093,0.099 0.636201,0.18404 0.658018,0.18897 0.08352,0.0189 0.12294,0.0762 0.186358,0.27111 0.08056,0.24758 0.24538,0.67361 0.375057,0.96944 0.122647,0.27979 0.452067,0.92487 0.472298,0.92487 0.0081,0 0.107823,-0.0662 0.221574,-0.14723 0.113752,-0.081 0.212011,-0.14722 0.218355,-0.14722 0.0063,0 0.368012,-0.2363 0.803709,-0.52511 0.917229,-0.608 1.072451,-0.70674 1.136204,-0.72274 0.07089,-0.0178 0.487502,0.12951 0.761726,0.26932 0.7242,0.36921 1.185361,0.94891 1.384879,1.74082 0.04836,0.19194 0.05273,0.24132 0.05251,0.59219 -2.24e-4,0.34992 -0.005,0.40301 -0.05534,0.61835 -0.119823,0.51232 -0.304788,0.89636 -0.608764,1.26398 -0.295689,0.3576 -0.766637,0.67117 -1.194038,0.79503 -0.263503,0.0764 -0.455177,0.0966 -0.807175,0.0853 -0.351035,-0.0113 -0.497044,-0.037 -1.015716,-0.17889 -0.177303,-0.0485 -0.931886,-0.25263 -1.676851,-0.45359 -0.744966,-0.20097 -1.379176,-0.37348 -1.409355,-0.38336 -0.04275,-0.014 -0.05741,-0.0113 -0.06636,0.012 -0.01681,0.0438 0.114589,0.32526 0.28582,0.61223 0.69643,1.1672 1.724747,1.86515 3.103842,2.10668 0.293725,0.0514 0.823892,0.0698 1.120203,0.0389 0.787272,-0.0823 1.584433,-0.40312 2.27582,-0.91593 0.253133,-0.18775 0.693298,-0.62448 0.869023,-0.86224 0.541533,-0.7327 0.856416,-1.64142 0.891403,-2.57249 0.02435,-0.64789 -0.09342,-1.23742 -0.373285,-1.86863 -0.09086,-0.20494 -0.171893,-0.3502 -0.844975,-1.5148 -0.233412,-0.40386 -0.424356,-0.74837 -0.424321,-0.76558 4e-5,-0.0187 0.06537,-0.0682 0.16195,-0.12285 1.311562,-0.74188 2.056815,-1.14111 3.234009,-1.73246 2.146013,-1.07802 4.332745,-2.05986 6.546669,-2.93944 1.067337,-0.42404 1.248184,-0.48009 1.759845,-0.54538 1.104043,-0.1409 2.213158,-0.0874 3.294929,0.15884 1.253421,0.28536 2.605829,0.90128 3.739552,1.7031 0.107966,0.0764 0.202927,0.13892 0.211024,0.13903 0.02627,3.4e-4 0.01611,-0.0573 -0.0721,-0.40921 -0.285328,-1.13828 -0.708165,-2.2353 -1.259999,-3.26901 -0.155226,-0.29078 -0.182947,-0.35548 -0.161342,-0.37659 0.01434,-0.014 0.30733,-0.1105 0.651076,-0.21439 0.567336,-0.17148 0.628904,-0.18633 0.667427,-0.16098 0.02547,0.0168 0.100506,0.15651 0.1877,0.34956 0.717648,1.58891 1.181933,3.32801 1.339299,5.01668 l 0.0241,0.25863 0.127123,0.14379 c 0.06992,0.0791 0.135963,0.14718 0.146765,0.15134 0.01281,0.005 0.01506,-0.0565 0.0065,-0.17668 -0.114245,-1.59702 -0.485032,-3.24008 -1.06267,-4.70898 -0.15471,-0.39341 -0.314631,-0.76716 -0.405966,-0.94879 -0.03167,-0.063 -0.06168,-0.14649 -0.06669,-0.18559 -0.01504,-0.11749 -0.417823,-0.87081 -0.789408,-1.47643 -0.665737,-1.08504 -1.396296,-2.00445 -2.348307,-2.95537 -0.801762,-0.80083 -1.516097,-1.39415 -2.36894,-1.96759 l -0.208008,-0.13987 -0.0121,-0.18246 c -0.02964,-0.44689 -0.215845,-0.90946 -0.541229,-1.34455 -0.220852,-0.29532 -0.850887,-0.89194 -1.366648,-1.29418 -1.141877,-0.89055 -2.487191,-1.5123 -3.896593,-1.80088 -0.62341,-0.12764 -1.161324,-0.18532 -1.884499,-0.20207 -2.34095,-0.0542 -4.399754,0.57312 -6.134434,1.86923 -0.642207,0.47984 -1.344972,1.15393 -1.814525,1.7405 -0.07523,0.094 -0.125992,0.13841 -0.176162,0.15423 -0.09864,0.0311 -0.695034,0.34169 -1.081438,0.5632 -2.259528,1.29529 -4.202795,3.15124 -5.615856,5.36351 -0.398197,0.62341 -0.90893,1.58231 -1.186637,2.2279 -0.699132,1.62531 -1.12276,3.30085 -1.274921,5.04261 -0.04866,0.55698 -0.07063,1.37956 -0.05119,1.91642 l 0.01742,0.48094 -0.05202,0.0643 c -0.253931,0.31412 -0.432964,0.63201 -0.549711,0.97605 -0.0786,0.23162 -0.201814,0.72872 -0.274909,1.1091 -0.369312,1.92186 -0.163695,3.81436 0.608913,5.60442 0.13249,0.30697 0.464549,0.9717 0.485403,0.9717 0.0074,0 0.05672,-0.0439 0.109588,-0.0976 z m 7.242674,-17.74103 c -0.021,-0.16807 0.0052,-1.21501 0.03856,-1.54094 0.192432,-1.88007 0.821343,-3.44207 1.956168,-4.85845 0.908478,-1.13387 2.050453,-2.05331 3.28722,-2.64664 0.981989,-0.4711 1.948377,-0.73688 3.150646,-0.8665 0.464432,-0.0501 1.680256,-0.0498 2.13969,5.4e-4 2.056873,0.22523 3.758224,0.97495 5.290337,2.33124 0.310292,0.27468 0.69153,0.66864 0.83318,0.86098 0.154654,0.21 0.318949,0.54561 0.384889,0.78623 0.0985,0.35941 0.08599,0.84426 -0.03204,1.24167 -0.117227,0.39474 -0.392686,0.80362 -0.737219,1.09432 -0.08318,0.0702 -0.283511,0.25126 -0.445191,0.40242 -0.366204,0.34236 -0.435655,0.40242 -0.465366,0.40242 -0.013,0 -0.126432,-0.0649 -0.252071,-0.14414 -1.378053,-0.86949 -2.872599,-1.42101 -4.453835,-1.64356 -0.09683,-0.0136 -0.161949,-0.032 -0.161949,-0.0456 0,-0.0125 0.06183,-0.0842 0.137411,-0.15917 0.149482,-0.14833 0.168657,-0.19833 0.08343,-0.21753 -0.02969,-0.007 -0.0849,-0.0197 -0.122689,-0.029 -0.383242,-0.0937 -0.95882,-0.14124 -1.40474,-0.116 -0.727943,0.0412 -1.347971,0.21005 -1.987802,0.54134 -0.216875,0.1123 -0.322346,0.15466 -0.461309,0.18531 -0.552191,0.12175 -1.132091,0.30184 -1.721123,0.53449 -0.421587,0.16652 -1.199557,0.54725 -1.550785,0.75895 -1.315766,0.79307 -2.346159,1.71923 -3.259368,2.92968 l -0.232298,0.30791 -0.01375,-0.11002 z"
         id="path110"
         inkscape:connector-curvature="0" />
      <path
         style="fill:#5c744d;stroke-width:0.01963019"
         d="m -26.554138,290.98361 c -0.968908,-0.0226 -2.033347,-0.14199 -2.973974,-0.33369 -1.024174,-0.20873 -1.883866,-0.46439 -2.944529,-0.87567 l -0.274822,-0.10657 -0.225748,0.0148 c -0.86015,0.0564 -1.948217,-0.0402 -2.875823,-0.25527 -2.546195,-0.59047 -4.564159,-1.90025 -6.096407,-3.95693 -0.260842,-0.35012 -0.554359,-0.8016 -0.681061,-1.04759 -0.05811,-0.11281 -0.143664,-0.27219 -0.190122,-0.35416 -0.785625,-1.38616 -1.266805,-3.06942 -1.322038,-4.62472 -0.01285,-0.36171 -0.0148,-0.37716 -0.02486,-0.1963 -0.0073,0.13084 -0.01099,0.0556 -0.01112,-0.22575 -1.13e-4,-0.23588 0.0047,-0.35278 0.01092,-0.26501 0.0094,0.13311 0.01325,0.10171 0.02507,-0.20611 0.02238,-0.583 0.100827,-1.17789 0.24202,-1.83543 0.179846,-0.83754 0.359238,-1.3121 0.67898,-1.79616 l 0.136149,-0.20612 -0.01264,-0.3926 c -0.02063,-0.64081 0.03262,-1.62835 0.130201,-2.41451 0.533687,-4.29968 2.712629,-8.22608 6.109649,-11.00943 0.868241,-0.7114 1.90329,-1.38939 2.93292,-1.92116 l 0.357235,-0.18451 0.190061,-0.22468 c 0.25279,-0.29884 0.980141,-1.02158 1.275172,-1.26708 1.525134,-1.26909 3.201514,-2.02042 5.141265,-2.30423 0.590372,-0.0864 0.915047,-0.10708 1.689289,-0.10769 0.761398,-6.1e-4 1.007775,0.0133 1.590046,0.09 2.205935,0.29062 4.197166,1.26757 5.856787,2.87351 0.365035,0.35323 0.540494,0.55448 0.727371,0.83428 0.255725,0.38289 0.424882,0.78057 0.510361,1.19983 0.04337,0.21269 0.01204,0.17802 0.443474,0.49085 2.118765,1.53634 3.939188,3.69303 5.132368,6.08042 0.08836,0.17679 0.181737,0.35346 0.207509,0.3926 0.06983,0.10605 0.361661,0.79236 0.537965,1.26515 0.519054,1.39191 0.859901,2.89678 0.994083,4.38895 l 0.03072,0.34168 0.191997,0.25704 c 0.367,0.49135 0.616885,0.89637 0.90496,1.4668 0.727393,1.44034 1.129168,3.05138 1.171516,4.69754 0.0063,0.24461 0.0014,0.51069 -0.01199,0.65761 -0.05306,0.58047 -0.06519,0.69215 -0.102531,0.94365 -0.160959,1.08413 -0.493864,2.12135 -1.020669,3.18009 -0.43966,0.8836 -0.868556,1.54956 -1.481624,2.30058 -0.259131,0.31744 -0.974545,1.03868 -1.283607,1.29405 -0.850282,0.70259 -1.664652,1.19363 -2.687381,1.62042 -0.55692,0.23241 -1.459216,0.51438 -1.871277,0.58479 -1.033324,0.17656 -1.967731,-0.0488 -2.752112,-0.6637 -0.06397,-0.0502 -0.128552,-0.0912 -0.143522,-0.0912 -0.01497,0 -0.171197,0.0703 -0.34717,0.15629 -2.285046,1.1162 -4.671174,1.69026 -7.205819,1.73359 -0.237525,0.004 -0.542284,0.005 -0.677241,0.002 z m 1.58023,-0.79203 c 2.009335,-0.15755 3.76777,-0.60081 5.535714,-1.39544 0.475141,-0.21356 1.283439,-0.63417 1.314131,-0.68382 0.01301,-0.0211 -0.141675,-0.25696 -0.168499,-0.25696 -0.01051,0 -0.161215,0.0763 -0.334893,0.16956 -2.864966,1.53838 -6.156358,2.15044 -9.418578,1.75144 -1.175344,-0.14376 -2.262585,-0.40213 -3.421856,-0.81318 -0.22638,-0.0803 -0.43464,-0.14604 -0.462799,-0.14615 -0.122082,-4.9e-4 -0.551885,0.0686 -0.545706,0.0877 0.0083,0.0257 0.435537,0.20423 0.847851,0.35433 1.415992,0.51547 2.952256,0.83751 4.446239,0.93204 0.178144,0.0113 0.381316,0.0237 0.451494,0.0277 0.228673,0.0129 1.495122,-0.007 1.756902,-0.0272 z m -0.166857,-0.92377 c 1.926425,-0.0933 3.727252,-0.53496 5.476824,-1.34324 0.423735,-0.19576 1.092141,-0.55312 1.138084,-0.60848 0.01619,-0.0195 0.0094,-0.0756 -0.02641,-0.2195 -0.02649,-0.10631 -0.05404,-0.23305 -0.06124,-0.28163 -0.01485,-0.10032 -0.0074,-0.0708 -0.990137,-3.90918 -0.399834,-1.56163 -0.741986,-2.92642 -0.760338,-3.03286 -0.05009,-0.29051 -0.04532,-0.78162 0.01012,-1.04222 0.05485,-0.25782 0.120086,-0.43948 0.242606,-0.67554 0.464267,-0.89451 1.408112,-1.43433 2.506015,-1.4333 0.675497,6.5e-4 1.319997,0.2592 1.769185,0.70977 0.280052,0.28091 0.497054,0.64319 0.636265,1.06223 0.03728,0.1122 0.272946,0.98137 0.523708,1.93147 0.25076,0.9501 0.463605,1.73609 0.472986,1.74664 0.03102,0.0349 0.08149,-0.0177 0.236571,-0.24655 0.70061,-1.03385 0.935338,-2.22778 0.670703,-3.41147 -0.15585,-0.6971 -0.475903,-1.37113 -0.890526,-1.87545 -0.124045,-0.15088 -0.459026,-0.48261 -0.623193,-0.61715 -0.204494,-0.16759 -0.611398,-0.42285 -0.908733,-0.57006 -0.437722,-0.21673 -0.852506,-0.35039 -1.325038,-0.42698 -0.295601,-0.0479 -0.91365,-0.0482 -1.226887,-4.5e-4 -1.33192,0.20277 -2.376309,0.84197 -3.080301,1.88524 -0.05414,0.0802 -0.510728,0.86004 -1.014645,1.73291 -0.940683,1.62942 -0.995044,1.71952 -1.165592,1.93203 -0.05487,0.0684 -0.103688,0.14238 -0.108482,0.16447 -0.16315,0.75177 -0.284153,1.1904 -0.46086,1.67062 -0.392588,1.0669 -0.911341,1.97111 -1.626684,2.83542 -0.246301,0.29759 -0.872959,0.92283 -1.18072,1.17804 -1.011094,0.83847 -2.173238,1.50873 -3.352717,1.93366 -0.19139,0.0689 -0.259424,0.1019 -0.255192,0.1236 0.0069,0.0352 0.195178,0.10148 0.71106,0.25028 1.461698,0.42161 3.117791,0.61255 4.663566,0.53769 z m -16.782021,-5.57617 c 0.200848,-0.2268 1.402253,-1.42185 1.774741,-1.76534 1.989051,-1.83423 4.061835,-3.46319 6.419072,-5.04462 0.344543,-0.23114 0.878423,-0.56888 0.899273,-0.56888 0.04613,0 0.306197,0.0875 0.494579,0.16646 0.769127,0.32223 1.281339,0.85973 1.531343,1.60693 0.107197,0.32039 0.133522,0.51768 0.120909,0.90613 -0.01144,0.35216 -0.04319,0.53869 -0.143679,0.8441 -0.315615,0.9592 -1.087066,1.64764 -2.013185,1.79656 -0.09899,0.0159 -0.264967,0.0208 -0.480939,0.0142 -0.364936,-0.0112 -0.503131,-0.0353 -1.028182,-0.17906 -2.105347,-0.57644 -3.166945,-0.8561 -3.184222,-0.83882 -0.03704,0.037 0.176054,0.47248 0.399741,0.81684 0.635161,0.97782 1.495073,1.58655 2.659816,1.88288 0.42707,0.10865 1.055411,0.15581 1.48196,0.11122 1.307348,-0.13665 2.611811,-0.93196 3.323289,-2.02616 0.532712,-0.81927 0.812307,-1.93481 0.718378,-2.86622 -0.05083,-0.50407 -0.184601,-0.97387 -0.410017,-1.43999 -0.0731,-0.15116 -0.377568,-0.69799 -0.676603,-1.21518 -0.299035,-0.5172 -0.539512,-0.95128 -0.534394,-0.96462 0.0051,-0.0133 0.07842,-0.0619 0.162892,-0.10802 0.08447,-0.0461 0.332303,-0.1841 0.550737,-0.30672 0.809473,-0.45441 1.591838,-0.86632 2.547376,-1.34117 0.539831,-0.26826 1.000386,-0.49316 1.023456,-0.49976 0.03503,-0.01 0.05164,0.005 0.100746,0.0917 0.168671,0.29739 0.499464,0.46022 0.805076,0.39628 0.241035,-0.0504 0.434414,-0.20416 0.549334,-0.43668 0.06738,-0.13635 0.07331,-0.16192 0.07331,-0.31622 0,-0.14076 -0.0084,-0.18586 -0.05223,-0.27929 -0.04836,-0.10316 -0.04981,-0.11354 -0.01963,-0.14012 0.04317,-0.038 0.95747,-0.46055 1.740426,-0.80432 1.319624,-0.57941 3.215832,-1.35063 3.651216,-1.485 0.148067,-0.0457 0.500205,-0.10185 0.893174,-0.14242 0.378784,-0.0391 1.408236,-0.033 1.796162,0.0107 0.744715,0.0839 1.469045,0.24536 2.131071,0.47515 0.8762,0.30413 1.878951,0.81484 2.647977,1.34863 0.287147,0.19932 0.340938,0.22859 0.360831,0.19641 0.01376,-0.0223 -0.09703,-0.48436 -0.214727,-0.89555 -0.262652,-0.9176 -0.675418,-1.93909 -1.118369,-2.76768 -0.103351,-0.19333 -0.180635,-0.3582 -0.171741,-0.36638 0.0089,-0.008 0.25468,-0.0864 0.546189,-0.17377 0.291508,-0.0874 0.572277,-0.17157 0.623932,-0.18705 0.116077,-0.0348 0.101582,-0.0535 0.296873,0.38373 0.688809,1.54229 1.128846,3.18698 1.299061,4.85538 0.01762,0.17275 0.04138,0.33175 0.05278,0.35334 0.02782,0.0527 0.292387,0.34353 0.312469,0.34353 0.04719,0 -0.03929,-0.92991 -0.151529,-1.6293 -0.229147,-1.42791 -0.640463,-2.7998 -1.229158,-4.09971 -0.08482,-0.18729 -0.154215,-0.35878 -0.154215,-0.38109 0,-0.0806 -0.487746,-0.98209 -0.820387,-1.51623 -1.179186,-1.89348 -2.782746,-3.56828 -4.622084,-4.82742 l -0.250284,-0.17134 v -0.082 c -1.97e-4,-0.14873 -0.05943,-0.45168 -0.129204,-0.66028 -0.171659,-0.51317 -0.458473,-0.90592 -1.08648,-1.48779 -1.361246,-1.26117 -2.932029,-2.08005 -4.653743,-2.42605 -1.751611,-0.35201 -3.732544,-0.24452 -5.349227,0.29026 -0.441588,0.14607 -0.730743,0.26306 -1.138552,0.46064 -0.782972,0.37934 -1.44384,0.81817 -2.129742,1.41419 -0.312623,0.27166 -0.889691,0.85976 -1.138269,1.16003 l -0.186071,0.22476 -0.304683,0.15095 c -2.262418,1.12085 -4.273691,2.80774 -5.799993,4.86457 -2.16899,2.9229 -3.294977,6.51704 -3.172984,10.12812 l 0.01621,0.47989 -0.09908,0.11883 c -0.199241,0.23898 -0.387931,0.57765 -0.503684,0.90405 -0.178009,0.50194 -0.360867,1.42468 -0.435691,2.19858 -0.03645,0.37696 -0.0302,1.3221 0.01128,1.70782 0.13366,1.2428 0.480247,2.39429 1.054671,3.50399 0.159095,0.30735 0.186734,0.35335 0.212335,0.35335 0.0078,0 0.06189,-0.054 0.120285,-0.1199 z"
         id="path108"
         inkscape:connector-curvature="0" />
      <path
         style="fill:#486932;stroke-width:0.01963019"
         d="m -27.025263,290.95636 c -1.862417,-0.10484 -3.647203,-0.4888 -5.309966,-1.14232 l -0.372974,-0.14659 -0.588906,0.009 c -1.028065,0.0159 -1.815758,-0.0745 -2.800273,-0.32124 -2.384876,-0.59781 -4.349589,-1.8995 -5.80387,-3.84528 -0.313862,-0.41993 -0.710382,-1.02522 -0.710382,-1.08439 0,-0.0399 0.534144,-0.59659 0.566405,-0.59027 0.01573,0.003 0.1094,0.1381 0.208154,0.30004 0.724385,1.18793 1.52629,2.09227 2.533128,2.85671 1.369446,1.03975 3.169119,1.71912 5.014284,1.89286 0.343091,0.0323 1.249566,0.0395 1.552015,0.0122 0.141644,-0.0127 0.175755,-0.01 0.225747,0.0194 0.08805,0.0514 0.542951,0.23371 0.942249,0.37759 2.953805,1.06434 6.250655,1.23641 9.316214,0.48624 1.346268,-0.32945 2.626539,-0.82332 3.849559,-1.485 l 0.307999,-0.16663 0.222016,0.22353 c 0.518131,0.52165 1.11841,0.77863 1.819359,0.77888 0.399276,2e-4 0.821785,-0.0851 1.474783,-0.29761 2.615715,-0.85115 4.564811,-2.57277 5.830116,-5.14969 0.587737,-1.19699 0.903446,-2.32116 1.002698,-3.57041 0.03052,-0.3842 0.01302,-1.36228 -0.03079,-1.71993 -0.230947,-1.88566 -0.92544,-3.61782 -1.989212,-4.96138 l -0.174734,-0.22069 -0.01358,-0.2308 c -0.110753,-1.88189 -0.646334,-3.99079 -1.44703,-5.69782 -0.07691,-0.16397 -0.0964,-0.22291 -0.07935,-0.23996 0.01243,-0.0124 0.163796,-0.0639 0.336365,-0.11432 0.28605,-0.0836 0.316213,-0.0889 0.341538,-0.0601 0.03807,0.0433 0.241147,0.50604 0.414476,0.94441 0.584252,1.47766 0.959879,3.05736 1.106254,4.65236 l 0.03513,0.38279 0.18322,0.24537 c 0.765152,1.02473 1.337719,2.20735 1.689043,3.48867 0.315292,1.14991 0.458606,2.46593 0.375765,3.4506 -0.125367,1.49019 -0.448896,2.65998 -1.102108,3.98493 -1.249112,2.53366 -3.104079,4.2892 -5.584628,5.28529 -0.575122,0.23094 -1.327299,0.45976 -1.757161,0.53453 -1.013499,0.1763 -1.969301,-0.0571 -2.740936,-0.66938 -0.06631,-0.0526 -0.129705,-0.0957 -0.140875,-0.0957 -0.01117,0 -0.196135,0.0868 -0.411028,0.19298 -1.875594,0.92639 -3.950089,1.4891 -6.130192,1.66282 -0.452054,0.036 -1.72394,0.0526 -2.158523,0.0281 z m 10.615721,-2.1303 c -0.453342,-0.0706 -0.887389,-0.29475 -1.233426,-0.63699 -0.366403,-0.36238 -0.573176,-0.78545 -0.685989,-1.40356 -0.02168,-0.11876 -0.163331,-0.70178 -0.314786,-1.29559 -0.663166,-2.60006 -1.17724,-4.6923 -1.17724,-4.79127 0,-0.0525 0.01863,-0.073 0.149618,-0.16446 1.056418,-0.73759 2.130749,-1.91852 2.795641,-3.07302 0.0684,-0.11876 0.126952,-0.21943 0.130123,-0.22372 0.0116,-0.0156 0.228197,0.0781 0.36489,0.15793 0.267098,0.15599 0.582529,0.50825 0.747806,0.83511 0.145723,0.28818 0.147148,0.2931 0.855326,2.9479 0.237206,0.88923 0.437122,1.62242 0.444255,1.6293 0.03068,0.0296 0.405635,-0.42079 0.630045,-0.75683 0.647543,-0.96965 0.914099,-2.09026 0.761632,-3.20194 -0.219833,-1.60286 -1.08904,-2.84387 -2.550879,-3.64203 -0.129559,-0.0707 -0.260854,-0.14252 -0.291765,-0.15951 -0.04287,-0.0236 -0.05382,-0.0413 -0.04616,-0.0747 0.0055,-0.0241 0.04194,-0.18184 0.08092,-0.35054 0.28854,-1.24879 0.33156,-2.51253 0.128719,-3.7813 -0.03564,-0.22294 -0.122443,-0.65265 -0.149292,-0.73906 -0.01058,-0.0341 -0.0037,-0.0363 0.07814,-0.025 0.166482,0.0228 0.641807,0.14988 0.967784,0.25871 0.455175,0.15197 0.758513,0.27747 1.233929,0.51054 2.974904,1.45843 4.82183,3.89356 5.359271,7.06608 0.09547,0.56357 0.1164,0.83908 0.11636,1.53174 0,0.68882 -0.0169,0.90347 -0.117987,1.50171 -0.273121,1.61644 -1.098176,3.36646 -2.235013,4.74069 -0.234104,0.28299 -0.751124,0.81286 -1.022201,1.04762 -0.615245,0.5328 -1.232754,0.94131 -1.963019,1.29863 -0.461887,0.22599 -0.765236,0.35041 -1.241668,0.50927 -0.856366,0.28554 -1.330356,0.35979 -1.815039,0.28432 z m -17.584439,-0.197 c -0.03779,-0.004 -0.176608,-0.017 -0.30849,-0.0284 -1.335576,-0.11543 -2.81315,-0.58444 -3.961076,-1.25733 -0.715254,-0.41926 -1.212448,-0.80526 -1.816632,-1.41032 -0.604868,-0.60575 -1.036086,-1.15768 -1.505073,-1.92638 -0.195861,-0.32102 -0.226404,-0.38486 -0.204097,-0.42654 0.02765,-0.0517 1.130587,-1.13557 1.602585,-1.57493 1.590275,-1.48031 3.369552,-2.92299 5.122938,-4.15381 0.526279,-0.36942 0.742713,-0.5133 0.78387,-0.52107 0.02564,-0.005 0.07587,0.062 0.199287,0.26539 0.604878,0.99662 1.39556,1.89778 2.299992,2.62135 0.143055,0.11444 0.260101,0.21839 0.260101,0.23099 0,0.031 -0.142811,0.2103 -0.264119,0.33153 -0.142704,0.14263 -0.486879,0.36535 -0.679494,0.43971 -0.289485,0.11177 -0.493251,0.14386 -0.842735,0.13274 -0.365646,-0.0116 -0.417719,-0.0221 -1.334853,-0.26931 -0.394076,-0.1062 -1.295102,-0.34877 -2.002279,-0.53905 -0.707178,-0.19027 -1.301237,-0.35052 -1.320131,-0.35611 -0.05209,-0.0154 -0.04401,0.0386 0.04387,0.29349 0.251776,0.73017 0.62411,1.33874 1.145793,1.87274 0.612049,0.62651 1.312519,1.01954 2.226426,1.24922 1.290101,0.32423 2.576492,0.10083 3.744021,-0.6502 0.426053,-0.27407 0.887871,-0.68746 1.190253,-1.06545 0.202426,-0.25304 0.197608,-0.24964 0.298259,-0.2108 1.099931,0.42444 1.909615,0.621 2.987172,0.72517 0.331362,0.032 1.304412,0.0316 1.616522,-6.9e-4 0.133325,-0.0138 0.247647,-0.0199 0.254051,-0.0135 0.02898,0.029 -0.206875,0.60477 -0.418478,1.02161 -0.461776,0.90965 -1.018579,1.66184 -1.758553,2.37567 -1.416342,1.36629 -3.437811,2.40806 -5.288146,2.72526 -0.540761,0.0927 -0.792761,0.11421 -1.413374,0.12063 -0.323898,0.003 -0.619823,0.003 -0.657612,-0.002 z"
         id="path106"
         inkscape:connector-curvature="0" />
      <path
         style="fill:#2d3c24;stroke-width:0.01963019"
         d="m -26.740625,290.95673 c -1.948922,-0.0686 -3.85808,-0.46499 -5.64368,-1.17185 -0.178144,-0.0705 -0.341565,-0.12832 -0.363158,-0.12845 -0.02159,-2e-4 -0.242433,0.006 -0.490755,0.0146 -1.762681,0.0578 -3.743922,-0.41624 -5.333013,-1.27612 -0.879569,-0.47595 -1.573117,-0.99559 -2.304075,-1.72634 -0.4508,-0.45067 -0.709017,-0.74595 -1.030283,-1.17815 -0.30694,-0.41293 -0.686415,-0.99587 -0.686415,-1.05445 0,-0.0154 0.121995,-0.15524 0.2711,-0.31067 l 0.2711,-0.2826 0.134527,0.2249 c 1.063406,1.77776 2.37919,3.02066 4.083594,3.85739 1.095978,0.53804 2.257988,0.8657 3.523619,0.99357 0.242636,0.0245 1.142719,0.0346 1.560601,0.0174 l 0.215932,-0.009 0.274822,0.11873 c 1.158138,0.50033 2.695181,0.90701 4.104275,1.08592 2.837264,0.36027 5.754143,-0.041 8.370712,-1.15167 0.393141,-0.16687 1.073257,-0.49521 1.414402,-0.68283 0.127838,-0.0703 0.240328,-0.12783 0.249981,-0.12783 0.0097,0 0.118336,0.10023 0.24152,0.22273 0.402209,0.4 0.821541,0.62786 1.349132,0.73313 0.230048,0.0459 0.728288,0.0455 0.985086,-7.3e-4 0.631389,-0.11373 1.690548,-0.4839 2.392576,-0.8362 0.64581,-0.32408 1.344046,-0.78677 1.897359,-1.2573 0.292244,-0.24852 0.838906,-0.80084 1.087125,-1.09839 1.114234,-1.33565 1.928476,-2.97438 2.268002,-4.56454 0.153942,-0.721 0.197631,-1.16174 0.195613,-1.9734 -0.0013,-0.52525 -0.0091,-0.70046 -0.04412,-0.99154 -0.229473,-1.90756 -0.935324,-3.66158 -2.020808,-5.02164 l -0.153899,-0.19283 -0.03265,-0.41571 c -0.14887,-1.89576 -0.654204,-3.83568 -1.43002,-5.48967 -0.05596,-0.1193 -0.09676,-0.22189 -0.09067,-0.22797 0.01635,-0.0164 0.598564,-0.1847 0.638749,-0.1847 0.07722,0 0.602853,1.30978 0.854741,2.12987 0.378315,1.23171 0.58117,2.29185 0.71047,3.71295 0.01251,0.13748 0.0157,0.14409 0.161115,0.33372 0.19318,0.25191 0.555293,0.80089 0.716751,1.08663 0.771798,1.36587 1.249654,2.94638 1.370409,4.53263 0.0305,0.40064 0.01364,1.45208 -0.02898,1.80738 -0.158681,1.32282 -0.51852,2.49259 -1.138431,3.70083 -1.360582,2.65185 -3.396151,4.4334 -6.098694,5.33764 -0.442883,0.14818 -0.895431,0.27291 -1.146672,0.31602 -1.004762,0.17243 -1.890857,-0.0307 -2.666534,-0.61136 -0.106223,-0.0795 -0.210121,-0.14457 -0.230886,-0.14457 -0.02077,0 -0.17678,0.0696 -0.346701,0.1546 -2.430133,1.21602 -5.280929,1.82759 -8.062869,1.72971 z m 19.765778,-11.54236 c 0,-0.17814 0.003,-0.25102 0.0066,-0.16195 0.0036,0.0891 0.0036,0.23483 0,0.3239 -0.0036,0.0891 -0.0066,0.0162 -0.0066,-0.16195 z"
         id="path104"
         inkscape:connector-curvature="0" />
    </g>
    <path
       id="path137-3"
       style="fill:#ac9393;stroke-width:0.15171607"
       d="m 40.821441,262.69562 c -1.455144,-0.0235 -2.940373,0.29527 -4.196638,0.93617 -0.911713,0.4651 -2.308418,1.95713 -2.837269,3.03079 -0.916794,1.86127 -1.182124,4.49354 -0.716725,7.12558 0.489678,2.7694 2.489072,4.80558 5.595827,5.69955 0.727658,0.20948 1.316388,0.24413 3.110438,0.18428 1.969499,-0.0658 2.370012,-0.12704 3.648446,-0.5556 0.78997,-0.26482 1.547135,-0.58118 1.681618,-0.70284 0.336023,-0.30412 0.387909,-0.29118 1.186208,0.29446 1.1164,0.819 2.021268,1.04512 3.930876,0.97971 1.490276,-0.0511 1.731124,-0.1023 2.66318,-0.56115 0.563682,-0.2775 1.295074,-0.78529 1.625134,-1.12879 0.701696,-0.73026 0.865625,-0.65622 0.932482,0.42224 l 0.04723,0.7584 1.134352,0.0453 c 0.656125,0.0264 1.272188,-0.0274 1.461229,-0.12866 0.261335,-0.13995 0.595996,-0.10429 1.67236,0.17866 1.152676,0.30307 1.715417,0.35385 3.924394,0.35743 l 2.579839,0.004 1.306589,-0.65006 c 1.972229,-0.98175 2.789264,-2.1946 2.782634,-4.12903 -0.0096,-2.84413 -1.519449,-4.14913 -5.774544,-4.99115 -3.147058,-0.62275 -4.346108,-1.61438 -3.870687,-3.20119 0.60827,-2.03023 4.237783,-2.50718 8.095103,-1.06397 0.746668,0.27937 0.879154,0.39143 1.038975,0.88154 0.10071,0.30884 0.452638,1.17602 0.782472,1.92702 0.329833,0.751 0.723473,1.74122 0.87507,2.20017 0.24451,0.74024 1.736419,4.43837 2.111283,5.23377 0.392147,0.83209 1.225101,3.05351 1.225101,3.26786 0,0.27814 -0.993816,2.62816 -1.327887,3.14007 -0.405979,0.62211 -1.162619,0.95667 -2.417789,1.07045 l -1.185282,0.10751 -0.0463,0.97324 c -0.03161,0.67116 0.01559,1.01399 0.151865,1.10842 0.108626,0.0746 0.867332,0.105 1.685323,0.0658 1.208677,-0.0578 1.641059,-0.1471 2.3113,-0.47503 1.467088,-0.71777 2.10432,-1.79007 4.192008,-7.05799 0.578708,-1.46025 1.222605,-3.04632 1.43067,-3.52437 0.208064,-0.47803 0.506441,-1.2288 0.663019,-1.66865 1.006332,-2.82683 2.871501,-7.50971 3.438245,-8.64607 0.03746,-0.20893 0.01793,-0.11577 0.127781,-0.49171 0.04029,-0.13799 0.04855,-0.23819 0.134268,-0.37225 0.03783,-0.0592 0.07863,-0.11021 0.116672,-0.15555 0.01929,-0.0441 0.04763,-0.0989 0.06112,-0.12865 0.0052,-0.0107 0.01236,-0.0219 0.01755,-0.0334 h -2.696514 l -0.465777,1.02417 c -0.256107,0.56326 -0.587758,1.36626 -0.737099,1.78349 -0.428803,1.19796 -1.322211,3.3858 -1.889971,4.62721 -0.286222,0.62583 -0.796182,1.8587 -1.132498,2.74004 -0.336323,0.88133 -0.708205,1.73482 -0.82692,1.89644 -0.201807,0.27488 -0.245209,0.22883 -0.663016,-0.70096 -0.245801,-0.54698 -0.495543,-1.16093 -0.554677,-1.36494 -0.05913,-0.20401 -0.196612,-0.57567 -0.305579,-0.82598 -0.797184,-1.83154 -1.622379,-3.80525 -1.966828,-4.70318 -0.476193,-1.24134 -1.398122,-3.47565 -1.659394,-4.0207 -0.175052,-0.36518 -0.25244,-0.38286 -2.073317,-0.48429 -5.974271,-0.33247 -6.508713,-0.3273 -7.763597,0.0741 -0.642786,0.20561 -1.440596,0.58934 -1.773291,0.85284 -0.689373,0.54599 -1.531728,2.08566 -1.535311,2.80578 -0.0049,0.97897 -0.23873,0.85469 -0.750987,-0.39817 -0.655535,-1.6033 -1.487144,-2.46491 -2.96413,-3.07342 -0.902851,-0.37192 -1.323695,-0.44837 -2.80671,-0.50464 -1.868307,-0.071 -3.100165,0.0888 -4.896696,0.6343 l -1.09546,0.33337 -0.04538,1.09359 c -0.03986,0.97807 -0.01489,1.0936 0.235204,1.0936 0.153855,0 0.344834,-0.0645 0.424109,-0.14352 0.07928,-0.079 0.851281,-0.32583 1.714955,-0.5482 1.311512,-0.33805 1.812158,-0.39376 3.040988,-0.34449 1.260395,0.0507 1.599901,0.12382 2.367786,0.51023 1.140129,0.57367 1.688275,1.2622 1.918674,2.40946 0.158189,0.78771 0.149936,0.91224 -0.07408,1.07601 -0.168535,0.12329 -1.257147,0.21512 -3.249338,0.27318 -3.144834,0.0917 -4.024948,0.26074 -5.307841,1.01767 -0.281563,0.16612 -0.571864,0.30189 -0.645421,0.30189 -0.07356,0 -0.174195,-0.32501 -0.223169,-0.72135 -0.450356,-3.64499 -1.872602,-5.76832 -4.435546,-6.62185 -0.795385,-0.26489 -1.657675,-0.40255 -2.530761,-0.41671 z m 45.28054,1.30102 c -0.002,0.0192 -0.0038,0.0389 -0.0056,0.0584 0.0034,0.0144 0.0063,0.0305 0.0093,0.0471 0.0088,-0.0347 0.01092,-0.0516 0.01945,-0.0862 -0.0054,-0.004 -0.01806,-0.016 -0.02313,-0.0192 z m 0.06852,0.85655 c 0.0024,0.0588 0.0034,0.1464 0.0056,0.21113 0.02621,-0.0423 0.04638,-0.0887 0.07593,-0.12866 -0.02607,-0.0297 -0.0534,-0.0574 -0.08148,-0.0824 z m -45.252765,0.009 c 0.549239,0.0204 1.074168,0.11182 1.510309,0.27688 1.540437,0.58295 2.815088,2.48127 2.671514,3.9781 l -0.04815,0.50468 -4.665196,0.0398 -4.665195,0.0406 0.0037,-0.64727 c 0.007,-1.36606 1.193007,-3.10265 2.540948,-3.71975 0.753315,-0.34487 1.736671,-0.50734 2.652068,-0.47317 z m 19.301575,4.21981 c 0.103788,0.025 0.284962,0.23861 0.546341,0.64357 0.800137,1.23963 2.38982,2.04039 5.070783,2.5539 1.422688,0.2725 2.643477,0.76503 3.203965,1.29364 0.467355,0.44076 0.513004,0.56198 0.513004,1.35288 0,1.06777 -0.326289,1.58832 -1.291772,2.05571 -0.770674,0.37305 -3.030703,0.53277 -4.415174,0.31206 -0.986349,-0.15732 -2.57254,-0.68454 -3.185446,-1.05842 l -0.473186,-0.28796 -0.07591,-3.31417 c -0.04165,-1.82293 -0.02794,-3.4047 0.02964,-3.51417 0.01755,-0.0334 0.04319,-0.0455 0.07779,-0.037 z m -5.194863,1.98287 c 1.126917,-10e-4 2.106343,0.064 2.217773,0.19815 0.236068,0.28444 -0.03737,2.50577 -0.412996,3.3549 -0.403783,0.91284 -1.47349,2.04308 -2.26963,2.39742 -0.731215,0.32545 -2.550981,0.47975 -3.321566,0.28151 -0.673328,-0.17328 -1.160217,-0.51595 -1.656618,-1.16676 -0.330876,-0.4338 -0.434161,-0.75538 -0.481521,-1.49919 -0.119254,-1.87288 0.801349,-2.96882 2.824304,-3.36047 0.699091,-0.13546 1.973337,-0.20405 3.100254,-0.20556 z m -13.767789,0.6093 c 2.626782,0.007 5.236804,0.048 5.344879,0.11665 0.143226,0.091 0.134247,0.30272 -0.03981,0.94637 -0.130315,0.4819 -0.214771,1.3909 -0.20187,2.17241 0.01638,0.99805 -0.03208,1.37824 -0.187978,1.47697 -0.432152,0.27368 -2.067153,0.74478 -3.092844,0.89083 -3.026195,0.43115 -5.099183,-0.20077 -6.374594,-1.94185 -0.917946,-1.25309 -1.446699,-3.3628 -0.895443,-3.57436 0.17692,-0.068 2.820883,-0.0942 5.447665,-0.0871 z"
       inkscape:connector-curvature="0" />
  </g>
</svg>
