<?xml version="1.0" encoding="UTF-8" standalone="no"?>
<!-- Created with Inkscape (http://www.inkscape.org/) -->

<svg
   xmlns:dc="http://purl.org/dc/elements/1.1/"
   xmlns:cc="http://creativecommons.org/ns#"
   xmlns:rdf="http://www.w3.org/1999/02/22-rdf-syntax-ns#"
   xmlns:svg="http://www.w3.org/2000/svg"
   xmlns="http://www.w3.org/2000/svg"
   xmlns:sodipodi="http://sodipodi.sourceforge.net/DTD/sodipodi-0.dtd"
   xmlns:inkscape="http://www.inkscape.org/namespaces/inkscape"
   width="500"
   height="200"
   viewBox="0 0 500 200"
   version="1.1"
   id="svg8"
   inkscape:version="0.92.5 (2060ec1f9f, 2020-04-08)"
   sodipodi:docname="famicom.svg">
  <defs
     id="defs2" />
  <sodipodi:namedview
     id="base"
     pagecolor="#ffffff"
     bordercolor="#666666"
     borderopacity="1.0"
     inkscape:pageopacity="0.0"
     inkscape:pageshadow="2"
     inkscape:zoom="1.2675345"
     inkscape:cx="297.74572"
     inkscape:cy="55.5713"
     inkscape:document-units="mm"
     inkscape:current-layer="layer1"
     showgrid="false"
     units="px"
     inkscape:pagecheckerboard="true"
     inkscape:window-width="1366"
     inkscape:window-height="743"
     inkscape:window-x="0"
     inkscape:window-y="0"
     inkscape:window-maximized="1" />
  <metadata
     id="metadata5">
    <rdf:RDF>
      <cc:Work
         rdf:about="">
        <dc:format>image/svg+xml</dc:format>
        <dc:type
           rdf:resource="http://purl.org/dc/dcmitype/StillImage" />
        <dc:title />
      </cc:Work>
    </rdf:RDF>
  </metadata>
  <g
     inkscape:label="Layer 1"
     inkscape:groupmode="layer"
     id="layer1"
     transform="translate(0.35755625,-258.06518)">
    <path
       inkscape:connector-curvature="0"
       id="path259"
       d="m 7.2216836,400.25207 c 0.275034,-1.46845 1.762205,-1.84415 8.9611594,-2.26371 9.928131,-0.57859 12.697816,-2.32177 12.973198,-8.16502 L 29.316519,386.4185 16.93908,385.91541 C 5.3868033,385.44593 4.5616413,385.27822 4.5616413,383.40027 c 0,-1.90106 0.7519631,-2.02768 13.6151817,-2.2921 10.491878,-0.21555 13.640552,0.0149 13.725783,1.00607 0.804459,9.35393 -1.164937,16.77351 -5.006728,18.86254 -1.047775,0.56976 -5.9773,1.03593 -10.954503,1.03593 -8.0840294,0 -9.0142724,-0.188 -8.7196765,-1.76064 z m 28.5310874,0.30936 c 0,-0.98817 1.342995,-1.55005 4.20833,-1.76068 3.249252,-0.23863 4.43108,-0.82523 5.185774,-2.57307 0.760531,-1.76131 1.79136,-2.26366 4.644988,-2.26366 2.017146,0 3.929108,-0.43002 4.248808,-0.9556 1.101495,-1.81082 -3.323932,-3.06871 -10.796348,-3.06871 -5.999023,0 -7.491552,-0.3008 -7.491552,-1.50913 0,-1.25394 1.92538,-1.5091 11.387241,-1.5091 h 11.38724 v 3.08439 c 0,4.83806 -1.484031,6.63858 -6.088214,7.38667 -2.450617,0.39811 -4.741739,1.49424 -5.538195,2.6496 -1.716141,2.48941 -11.148072,2.92877 -11.148072,0.51929 z m 35.233601,0.34398 c -8.05724,-0.86286 -10.732439,-2.05567 -8.865217,-3.95283 0.699068,-0.7103 4.106204,-0.69791 10.84264,0.0395 14.797715,1.61952 16.259506,1.9393 16.259506,3.55718 0,1.66738 -5.069141,1.76645 -18.236929,0.35626 z m 26.344169,-0.65342 c 0.274963,-1.46308 1.616881,-1.81012 7.940379,-2.05348 7.09883,-0.27287 7.77922,-0.49784 10.13877,-3.34698 1.96271,-2.36995 2.52927,-4.16358 2.52927,-8.00726 0,-2.72428 0.44559,-4.95321 0.9902,-4.95321 1.56486,0 1.16956,11.82041 -0.50535,15.11133 -2.14114,4.20691 -4.28405,5.01024 -13.36489,5.01024 -7.141422,0 -8.021588,-0.20028 -7.728379,-1.76064 z m 66.403109,0.50306 c 0.28941,-0.88613 3.75056,-1.33822 11.7173,-1.53054 9.19531,-0.22225 11.53768,-0.58663 12.54431,-1.95296 1.36662,-1.85491 1.64287,-8.14474 0.44204,-10.06483 -0.5137,-0.82139 -4.66021,-1.3176 -12.60983,-1.50909 -9.74347,-0.23454 -11.84444,-0.55302 -11.84444,-1.79441 0,-1.25472 2.29537,-1.55634 13.61518,-1.78905 l 13.61518,-0.27995 v 10.08917 10.08917 h -13.94524 c -10.71514,0 -13.85011,-0.29112 -13.5345,-1.25759 z m 31.68409,0 c 0.27332,-0.8412 3.57292,-1.42522 9.96507,-1.76381 8.71225,-0.46151 9.79107,-0.74455 12.21211,-3.20444 2.06751,-2.10068 2.75683,-3.93813 3.11259,-8.297 0.61231,-7.50222 2.19212,-7.15076 2.19212,0.48768 0,6.54797 -1.79465,11.31277 -4.89613,12.99926 -2.88502,1.56877 -23.10302,1.37031 -22.58576,-0.22188 z m 32.4677,-0.68845 c -1.25156,-2.37609 -1.37516,-18.17554 -0.14217,-18.17554 0.48557,0 1.16243,1.13183 1.50415,2.51518 0.6611,2.67625 1.14699,2.74699 20.38748,2.96722 3.77903,0.0432 4.4559,0.35665 4.4559,2.0632 0,1.87229 -0.82518,2.04711 -11.87134,2.51517 -10.73843,0.45503 -11.90628,0.68875 -12.23757,2.44868 -0.66917,3.55509 2.47424,4.59389 13.9011,4.59389 8.85356,0 10.7029,0.26097 10.7029,1.5091 0,1.26384 -2.08654,1.50913 -12.83772,1.50913 -11.67882,0 -12.93021,-0.17571 -13.86273,-1.94603 z m 30.66121,0.4369 c 0,-1.17144 1.31125,-1.5091 5.86019,-1.5091 7.40073,0 8.99274,-0.63618 8.99274,-3.5935 0,-3.04951 -2.6579,-4.45515 -8.42415,-4.45515 -3.84187,0 -4.53898,-0.28814 -4.25987,-1.76064 0.27996,-1.47641 1.4504,-1.76061 7.25153,-1.76061 h 6.9178 l 0.3024,4.79213 c 0.23841,3.77913 0.81407,5.13283 2.72302,6.40371 1.33139,0.88632 2.42071,2.01223 2.42071,2.50192 0,0.48969 -4.90148,0.89037 -10.89216,0.89037 -9.02178,0 -10.89212,-0.25947 -10.89212,-1.50913 z m 53.47053,0 c 0,-1.2058 1.4763,-1.5091 7.3455,-1.5091 8.20997,0 10.47801,-0.56775 10.47801,-2.62287 0,-1.04219 -1.52307,-1.40147 -5.94117,-1.40147 -5.28103,0 -5.94117,-0.22374 -5.94117,-2.01212 0,-1.81194 0.66519,-2.01371 6.68383,-2.0276 7.34362,-0.0149 9.7665,-0.95001 8.83956,-3.40432 -0.48686,-1.28904 -2.1728,-1.61069 -8.44342,-1.61069 -7.79077,0 -7.85005,0.0186 -10.4785,3.52133 -3.12017,4.15631 -4.52304,4.46836 -4.52304,1.00607 0,-1.38337 0.46878,-2.51521 1.04172,-2.51521 0.57293,0 1.51248,-1.37213 2.08788,-3.04924 l 1.04617,-3.0492 11.52729,0.28256 11.5273,0.28255 -0.0797,6.80938 c -0.0707,6.06305 -0.38963,7.13822 -2.90827,9.80926 -2.76284,2.93011 -3.05483,2.99992 -12.54539,2.99992 -7.97693,0 -9.71669,-0.27028 -9.71669,-1.50914 z M 72.670237,393.58236 c -5.019625,-0.6201 -9.661411,-1.67855 -10.315076,-2.35211 -2.199695,-2.26657 1.799066,-2.59257 14.277298,-1.16392 10.066545,1.15249 12.130418,1.67535 12.405761,3.14309 0.390384,2.08098 -2.085838,2.13742 -16.367983,0.37302 z m 207.358793,0.74556 c -0.37856,-0.3846 -0.68828,-1.30293 -0.68828,-2.04071 0,-1.05201 2.90019,-1.34146 13.44021,-1.34146 12.2667,0 13.41126,0.15375 13.10797,1.76065 -0.2919,1.54695 -1.8395,1.79463 -12.75198,2.04074 -6.83079,0.15412 -12.72937,-0.0335 -13.10792,-0.41922 z M 93.381806,387.77671 c 0.368479,-7.9163 2.277758,-8.07098 2.277758,-0.18427 0,3.78426 -0.432909,5.84771 -1.287566,6.13716 -0.986208,0.33393 -1.217965,-1.05916 -0.990192,-5.95263 z m 30.993424,5.18123 c -1.47134,-2.4189 1.19481,-3.01826 13.42607,-3.01826 12.15396,0 12.8141,0.10386 12.8141,2.01215 0,1.90851 -0.66014,2.01215 -12.8141,2.01215 -7.47462,0 -13.0691,-0.41922 -13.42607,-1.00604 z m -50.814665,-6.53177 c -10.015907,-1.22609 -13.441985,-2.55329 -11.51812,-4.46203 0.913231,-0.90604 24.453125,1.35133 26.320649,2.52403 0.473111,0.29708 0.860207,1.19255 0.860207,1.9899 0,1.69955 -1.392361,1.69493 -15.662736,-0.0517 z m 122.312985,-1.14136 c -0.38466,-0.39082 -0.69938,-1.31421 -0.69938,-2.05203 0,-1.00708 1.99249,-1.34142 7.99416,-1.34142 7.07933,0 7.95633,0.2014 7.66352,1.76061 -0.27106,1.44335 -1.58574,1.81317 -7.29478,2.05206 -3.83027,0.16008 -7.27885,-0.0261 -7.66352,-0.41922 z M 4.2550283,370.06969 c 0.3165381,-1.67011 12.5758717,-1.7739 238.4620617,-2.01844 130.97059,-0.14184 238.73552,-0.0223 239.47761,0.26357 1.07953,0.41706 1.10477,0.82053 0.1262,2.01844 -1.07658,1.31797 -29.78396,1.49722 -239.81133,1.49722 -226.69401,0 -238.5717239,-0.0879 -238.2546544,-1.76064 z M 381.45245,359.67168 c -4.4002,-0.94555 -7.91039,-3.70073 -10.18633,-7.99531 -1.64178,-3.09804 -1.81943,-5.51773 -1.58572,-21.59831 l 0.26309,-18.10942 3.63059,-0.30713 3.63059,-0.30713 0.33021,17.55875 c 0.29261,15.57306 0.54345,17.79797 2.21646,19.67424 2.29277,2.57139 7.68601,2.82662 9.62725,0.45571 0.99174,-1.21128 1.49279,-6.44507 1.85408,-19.36704 l 0.49509,-17.70718 h 3.96076 3.9608 l 0.27958,17.10334 c 0.2256,13.79872 -0.0298,17.92704 -1.31488,21.36647 -2.57671,6.88945 -9.85248,10.80394 -17.16171,9.23323 z m 50.07887,0.45216 c -0.37991,-0.38601 -0.69076,-11.49202 -0.69076,-24.68005 v -23.97821 h 11.88236 11.88231 v 4.48329 4.48325 l -7.1789,0.29559 -7.1789,0.29558 v 5.03042 5.03035 l 7.1789,0.29559 7.1789,0.29558 v 4.43921 4.43921 l -7.1789,0.29559 -7.1789,0.29559 -0.3116,4.42767 c -0.38664,5.49059 0.46457,6.10082 8.53782,6.12074 l 6.24568,0.0149 -0.30452,4.27585 -0.30452,4.27582 -10.94407,0.28256 c -6.01922,0.15561 -11.25484,-0.0335 -11.63475,-0.41919 z m 27.74177,0.0149 c -0.38888,-0.3951 -0.70703,-11.55624 -0.70703,-24.80258 v -24.08419 l 11.80995,0.35739 c 10.09263,0.30526 12.21651,0.66354 14.6054,2.46216 4.81141,3.62251 7.25127,8.22831 7.25127,13.6883 0,5.50805 -1.53545,9.18141 -5.35199,12.80414 -3.3815,3.20973 -3.2509,4.80628 0.9837,12.02903 1.95431,3.33337 3.26479,6.53494 2.91217,7.11465 -0.88337,1.45225 -5.72732,1.32508 -7.75529,-0.20364 -0.91759,-0.69168 -4.23714,-5.55856 -7.37673,-10.81533 -3.1396,-5.2568 -6.37289,-9.55775 -7.18508,-9.55775 -1.18366,0 -1.57503,2.09652 -1.97188,10.56379 l -0.49509,10.56386 -3.00617,0.29931 c -1.65339,0.16455 -3.32435,-0.0223 -3.71323,-0.41922 z m 22.06742,-27.54715 c 2.59529,-2.6369 2.51618,-6.45702 -0.18688,-9.01556 -1.65581,-1.56732 -3.49981,-2.05132 -7.81564,-2.05132 -6.21024,0 -6.85059,0.61124 -6.85059,6.53952 0,5.96081 0.62274,6.53948 7.03732,6.53948 4.51497,0 6.28328,-0.45522 7.81561,-2.01212 z M 4.7266618,359.08639 C 4.3636048,358.71746 4.0665313,347.85179 4.0665313,334.94047 V 311.46529 H 16.44397 28.821405 v 4.0243 4.02431 h -7.450968 c -7.165691,0 -7.489512,0.10312 -8.457554,2.69003 -0.55362,1.47946 -0.733974,3.95104 -0.400785,5.49234 0.59131,2.73541 0.787651,2.80942 8.210005,3.09499 l 7.604207,0.29261 0.304488,4.27582 0.304489,4.27585 -6.740752,0.0149 c -3.707414,0.007 -7.409132,0.44412 -8.226042,0.96814 -1.091281,0.69995 -1.53296,3.09372 -1.664976,9.02379 -0.0988,4.4391 -0.459317,8.53082 -0.801086,9.0927 -0.691788,1.13727 -5.7442491,1.3989 -6.7757595,0.35105 z M 19.375992,358.6879 c -0.357779,-0.5882 0.172904,-1.99384 1.179305,-3.12366 1.006414,-1.12978 4.05778,-5.39558 6.780816,-9.4796 2.723039,-4.08395 9.359663,-13.56739 14.748056,-21.0743 9.69489,-13.50656 9.83433,-13.64576 13.36763,-13.34533 l 3.570551,0.30378 0.266847,22.51009 c 0.283712,23.93555 0.051,25.27865 -4.37992,25.27865 -2.422323,0 -2.685627,-0.37154 -3.744623,-5.28194 -0.5926,-2.74784 -0.652771,-2.76668 -8.83202,-2.76668 h -8.23538 l -3.555664,4.02431 c -2.868187,3.24621 -4.228459,4.02431 -7.035363,4.02431 -1.913836,0 -3.772439,-0.48128 -4.130235,-1.06948 z m 31.194859,-16.97379 c 1.479099,-2.80804 1.259768,-8.67657 -0.375824,-10.05574 -1.134508,-0.95667 -2.075868,-0.28293 -4.950977,3.54277 -4.965094,6.60686 -4.738274,8.45897 1.035959,8.45897 2.215391,0 3.595504,-0.62591 4.290842,-1.946 z m 12.62444,17.42045 C 62.8063,358.73931 62.48803,347.85209 62.48803,334.94077 v -23.47519 h 5.299524 5.299524 l 6.390782,14.83968 c 5.081489,11.79941 6.785137,14.83968 8.315658,14.83968 1.528429,0 3.250494,-3.05609 8.361147,-14.83823 l 6.436265,-14.83815 4.72135,-0.001 4.72135,-10e-4 -0.26543,23.89437 -0.26547,23.89441 h -3.46569 -3.46568 l -0.28107,-10.81537 c -0.21339,-8.2119 -0.59959,-10.81538 -1.60433,-10.81538 -0.72779,0 -3.482799,4.76976 -6.122238,10.59942 -5.009681,11.06476 -6.502017,12.50643 -11.548744,11.1566 -1.693916,-0.4531 -3.215424,-2.95104 -6.347757,-10.42139 -2.287646,-5.45586 -4.709638,-9.82549 -5.446071,-9.82549 -0.986782,0 -1.452976,2.57518 -1.821347,10.0608 l -0.495101,10.06081 -3.501073,0.29931 c -1.925588,0.16454 -3.819339,-0.0223 -4.208327,-0.41922 z m 53.470339,-2.3e-4 c -0.38888,-0.39509 -0.70706,-11.28224 -0.70706,-24.19356 v -23.47519 h 3.9787 3.9787 l -0.26547,23.89437 -0.26551,23.89441 -3.00617,0.29931 c -1.6534,0.16454 -3.32435,-0.0223 -3.71323,-0.41922 z m 11.86887,-0.0149 c -0.38147,-0.38757 -0.69359,-11.26858 -0.69359,-24.1799 v -23.47514 h 4.4345 4.43449 l 0.26893,19.36701 0.26893,19.36704 5.44607,0.50302 5.44607,0.50302 v 4.0243 4.02435 l -9.4559,0.28553 c -5.20075,0.1571 -9.76803,-0.0298 -10.1495,-0.41918 z m 26.74893,0.0149 c -0.38899,-0.3952 -0.70726,-4.56466 -0.70726,-9.26543 v -8.54679 l -7.42646,-14.49101 c -4.08455,-7.97006 -7.42646,-14.71262 -7.42646,-14.98345 0,-0.27064 2.08609,-0.35441 4.63575,-0.18577 l 4.63576,0.30639 3.7082,7.04253 c 4.84304,9.1978 5.68061,10.14811 7.39576,8.39108 0.72404,-0.74165 3.0156,-4.51765 5.09234,-8.39108 l 3.7759,-7.04253 4.7979,-0.3116 4.79789,-0.31159 -7.28986,13.89331 -7.28986,13.89332 -0.4951,10.06076 -0.4951,10.06084 -3.50107,0.29931 c -1.92559,0.16455 -3.81934,-0.0223 -4.20833,-0.41918 z m 42.0452,-1.99264 c -8.57801,-4.34316 -13.76865,-14.13142 -12.75992,-24.06201 2.13048,-20.97348 26.1598,-29.94251 41.05396,-15.32352 1.76997,1.73726 3.21813,3.74897 3.21813,4.4704 0,2.08643 -8.34751,1.62294 -12.61391,-0.70036 -4.68603,-2.55188 -10.1665,-2.56323 -15.05122,-0.0298 -10.37133,5.37597 -10.8374,20.98849 -0.81203,27.20171 5.44768,3.37617 8.90481,3.51239 15.17091,0.59765 6.04844,-2.81352 13.30625,-3.52866 13.30625,-1.31116 0,2.02984 -7.01899,8.48515 -11.10789,10.21586 -5.81482,2.46123 -14.32607,2.02023 -20.40428,-1.05727 z m 46.64013,0.051 c -23.38843,-11.84189 -12.8594,-49.16534 13.10168,-46.44296 11.24144,1.17885 18.86133,8.17098 22.14625,20.32175 1.80177,6.66479 -1.02656,14.86964 -7.34288,21.3012 -7.83606,7.97889 -18.14809,9.76008 -27.90505,4.82005 z m 17.15133,-7.4013 c 10.75758,-4.96386 12.50572,-20.64804 3.06287,-27.4798 -1.97385,-1.42805 -4.95372,-2.32963 -8.54215,-2.58445 -7.04441,-0.50023 -11.41947,2.22111 -14.83967,9.23048 -2.20155,4.51176 -2.2981,5.29291 -1.18132,9.55629 1.92528,7.34952 8.34964,12.78025 15.46116,13.06973 1.08921,0.0447 3.8068,-0.76216 6.03911,-1.79225 z m 22.87999,9.26782 c -0.57278,-0.97313 -1.04979,-21.72538 -0.84538,-36.77855 l 0.14671,-10.81537 h 4.33464 c 2.38403,0 4.78512,0.56589 5.33575,1.25762 0.55063,0.69165 3.775,7.95871 7.16523,16.14897 4.70922,11.37677 6.54647,14.81701 7.78429,14.57622 1.46982,-0.28591 4.12563,-5.89183 12.67477,-26.75393 2.14096,-5.22453 2.14653,-5.22888 6.68379,-5.22888 h 4.54108 v 24.20663 24.20663 l -3.71324,-0.31234 -3.7132,-0.31234 -0.26309,-10.0608 c -0.14482,-5.53344 -0.49535,-10.70711 -0.77903,-11.49705 -0.88117,-2.45337 -2.76198,0.563 -7.35658,11.79829 l -4.23752,10.36209 -4.41402,-0.30117 -4.41398,-0.30117 -4.28629,-10.56386 c -2.41509,-5.9521 -4.86247,-10.56379 -5.60606,-10.56379 -0.98435,0 -1.44561,2.68493 -1.81488,10.56379 l -0.49509,10.56386 -3.12518,0.30824 c -1.71888,0.16976 -3.34012,-0.0566 -3.60273,-0.50305 z m 51.78178,-23.44801 v -24.14591 h 9.50475 c 10.89373,0 15.40449,1.57312 18.27837,6.37467 6.45505,10.78473 -0.23691,23.8077 -12.23368,23.8077 -6.5037,0 -7.62786,1.56747 -7.62786,10.63567 v 7.47375 h -3.96081 -3.96077 z m 20.05144,-5.11124 c 2.27475,-2.82789 2.19208,-5.48907 -0.24737,-7.96783 -2.24163,-2.27759 -8.76165,-2.76828 -10.69411,-0.80483 -1.7612,1.78946 -1.46121,8.4324 0.46938,10.39396 2.19047,2.22562 8.11577,1.30825 10.47229,-1.6213 z m 55.20339,10.76783 c 0,-19.67819 -0.12955,-20.22529 -4.95097,-20.90294 -2.17086,-0.3049 -2.47549,-0.84313 -2.47549,-4.37224 v -4.02427 l 11.63475,-0.2833 11.63482,-0.2833 v 4.55934 c 0,4.32276 -0.14369,4.55927 -2.77252,4.55927 -4.90746,0 -5.14907,0.977 -5.14907,20.8258 v 18.41126 h -3.96076 -3.96076 z"
       style="fill:#fd322e;stroke-width:0.99810547" />
    <path
       inkscape:connector-curvature="0"
       id="path257"
       d="m 7.3888808,399.39572 c 0,-1.06706 2.0489251,-1.49138 8.5024072,-1.76065 7.930555,-0.33095 8.66669,-0.54884 10.944967,-3.23999 1.821579,-2.15168 2.366194,-3.81423 2.142189,-6.53948 l -0.300371,-3.6543 -12.129889,-0.28256 C 6.6652833,383.68867 4.4182943,383.36241 4.4182943,382.1581 c 0,-1.22714 2.2698847,-1.47816 13.3676327,-1.47816 H 31.15356 v 5.06273 c 0,6.65746 -2.102269,11.53271 -5.813991,13.48292 -4.003868,2.10369 -17.9506897,2.23581 -17.9506882,0.17013 z m 28.2205582,0.39979 c -0.358115,-0.58872 0.671546,-1.00608 2.482146,-1.00608 3.817016,0 6.924707,-1.59617 6.924707,-3.55665 0,-1.04089 1.127732,-1.47373 3.839534,-1.47373 3.897636,0 6.771449,-2.04473 5.594126,-3.98023 -0.366655,-0.60279 -4.410306,-1.05016 -9.4921,-1.05016 -7.209485,0 -8.853316,-0.28032 -8.853316,-1.50913 0,-1.24564 1.815356,-1.5091 10.397049,-1.5091 h 10.397047 v 3.98891 c 0,4.46817 -1.783452,6.07186 -6.752388,6.07186 -2.023921,0 -3.420244,0.77296 -4.5438,2.51521 -1.2733,1.97448 -2.456033,2.51521 -5.50152,2.51521 -2.133727,0 -4.154899,-0.45276 -4.491485,-1.00611 z m 37.864997,-0.4493 c -10.282067,-1.2041 -12.644112,-1.86868 -11.342492,-3.19116 0.96236,-0.97778 25.496704,2.01264 25.74011,3.13744 0.313568,1.44912 -2.395621,1.45924 -14.397618,0.0536 z m 24.022192,-0.0536 c 0,-1.19739 1.42854,-1.5091 6.915742,-1.5091 6.16033,0 7.24196,-0.30229 9.90219,-2.76676 2.27376,-2.10645 3.19506,-4.08718 3.86064,-8.30012 l 0.8742,-5.53344 0.11422,5.03038 c 0.13543,5.96543 -2.29141,11.50837 -5.82387,13.30173 -1.36152,0.69125 -5.48321,1.26343 -9.15931,1.27159 -5.287534,0.0112 -6.683815,-0.30043 -6.683812,-1.49428 z m 66.343072,0.53224 c 0,-0.64579 4.0265,-1.0353 10.70288,-1.0353 13.5213,0 14.27042,-0.46371 13.86042,-8.57974 l -0.30352,-6.00839 -12.12989,-0.28256 c -9.99196,-0.23267 -12.12988,-0.54814 -12.12988,-1.78986 0,-1.27736 2.00181,-1.4645 13.12008,-1.22662 l 13.12009,0.2807 v 9.55771 9.55778 l -13.12009,0.2807 c -8.5123,0.18204 -13.12008,-0.083 -13.12008,-0.75457 z m 31.68624,-0.0298 c 0,-0.58165 3.14622,-1.00604 7.45827,-1.00604 7.77679,0 12.8274,-1.47712 15.26611,-4.46478 0.78936,-0.96707 1.97738,-4.31956 2.64006,-7.44996 l 1.20485,-5.69166 0.083,4.81119 c 0.0456,2.64618 -0.53832,6.32203 -1.29771,8.16867 -2.306,5.6076 -4.74026,6.63869 -15.67294,6.63869 -5.79428,0 -9.68162,-0.40395 -9.68162,-1.00611 z m 33.24226,-0.57487 c -1.18291,-1.20186 -1.52847,-3.55405 -1.44116,-9.80926 0.0632,-4.52557 0.32924,-7.32282 0.59122,-6.21616 0.26197,1.10671 0.77451,2.33641 1.13893,2.73277 0.36446,0.39629 5.89103,0.83197 12.28133,0.96815 8.69005,0.18502 11.61873,0.57416 11.61873,1.54308 0,0.98076 -2.73748,1.29552 -11.26601,1.29552 -11.83585,0 -14.05736,0.78506 -13.31432,4.70531 0.59789,3.15434 4.75698,4.319 15.47947,4.33457 6.54965,0.0112 9.98862,0.37532 9.59596,1.02089 -0.3499,0.57528 -5.43278,1.00611 -11.87006,1.00611 -8.91434,0 -11.582,-0.32946 -12.81409,-1.58098 z m 29.70382,0.68785 c -0.29879,-0.49125 2.59739,-1.07345 6.43598,-1.29384 4.69588,-0.26953 7.28419,-0.88256 7.91131,-1.87356 0.6289,-0.99386 1.17357,-1.12181 1.67468,-0.39346 0.40845,0.59375 1.52243,1.37181 2.47549,1.72908 0.95306,0.35738 1.73284,1.11653 1.73284,1.68727 0,1.28915 -19.44951,1.42809 -20.2303,0.14444 z m 53.89693,-0.007 c 0,-0.49476 3.49647,-1.06091 7.76992,-1.25807 7.95926,-0.36744 11.37447,-1.83261 10.38389,-4.45548 -0.39236,-1.03887 -2.3142,-1.43553 -6.95502,-1.43553 -4.68786,0 -6.30305,-0.3384 -6.00463,-1.25763 0.26122,-0.80482 3.23199,-1.4387 8.25162,-1.76064 7.05025,-0.45213 7.8737,-0.71864 8.14292,-2.63553 0.37097,-2.6413 -1.89622,-3.36832 -10.56301,-3.38719 -5.94572,-0.0112 -6.48252,0.18539 -9.47715,3.50755 -1.74595,1.93673 -3.477,3.52125 -3.84678,3.52125 -1.16504,0 -0.73131,-1.80852 0.80911,-3.37361 0.81479,-0.8279 1.92348,-2.68657 2.46376,-4.13037 l 0.98231,-2.62514 10.65632,0.28554 10.65633,0.28553 0.29257,6.2009 c 0.26997,5.7224 0.052,6.47932 -2.82561,9.80929 l -3.11818,3.60836 h -8.80919 c -4.84505,0 -8.80918,-0.40481 -8.80918,-0.89953 z M 69.97082,391.49966 c -5.39209,-0.63745 -8.086797,-1.36748 -7.838273,-2.12346 0.4116,-1.25208 2.466271,-1.18607 16.055279,0.51586 4.901464,0.61389 9.335062,1.50839 9.852437,1.98781 1.173925,1.08775 -7.130145,0.91304 -18.069443,-0.38028 z m 209.7217,-0.25761 c 0,-1.35427 1.72949,-1.53069 12.62498,-1.28767 16.56398,0.36967 16.3906,2.19699 -0.24432,2.57533 -10.67416,0.24273 -12.38067,0.0655 -12.38066,-1.28766 z M 92.545651,386.7741 c 0,-2.73407 0.445589,-5.25085 0.990192,-5.59286 0.614773,-0.38601 0.990199,1.49868 0.990199,4.97101 0,3.07608 -0.445589,5.59286 -0.990199,5.59286 -0.544603,0 -0.990192,-2.23698 -0.990192,-4.97101 z m 31.686249,3.96489 c 0,-0.61701 4.78593,-1.00608 12.37743,-1.00608 7.5915,0 12.37744,0.38907 12.37744,1.00608 0,0.61709 -4.78594,1.00612 -12.37744,1.00612 -7.5915,0 -12.37743,-0.38903 -12.37743,-1.00612 z m 147.98464,0.0577 c -0.51737,-0.52167 -3.28587,-1.08756 -6.1522,-1.25762 -7.3485,-0.4359 -6.4825,-2.26225 1.24177,-2.61878 6.32231,-0.29149 6.44523,-0.24868 6.44523,2.26367 0,2.83 -0.16037,2.9985 -1.5348,1.61273 z M 71.829871,384.31026 c -5.738203,-0.68696 -9.485711,-1.60082 -9.736916,-2.37441 -0.503686,-1.55105 0.506538,-1.53828 13.958787,0.17646 5.90505,0.75267 11.229822,1.86979 11.832831,2.48245 1.35069,1.37236 -2.835163,1.2982 -16.054702,-0.28442 z m 123.696069,-2.12059 c 0,-1.19769 1.43028,-1.50914 6.93137,-1.50914 5.50108,0 6.93136,0.3116 6.93136,1.50914 0,1.19772 -1.43028,1.50909 -6.93136,1.50909 -5.50109,0 -6.93137,-0.31122 -6.93137,-1.50909 z M 4.1151506,369.97636 c -0.3482668,-0.35403 -0.3962329,-1.03292 -0.1065932,-1.5091 0.2919052,-0.4799 106.9711526,-0.85147 239.3527326,-0.83375 210.20786,0.0261 238.59582,0.20922 236.90405,1.50914 -1.67759,1.28919 -32.04558,1.47712 -238.71955,1.47712 -130.23859,0 -237.0823728,-0.28926 -237.4306394,-0.64341 z m 197.1742694,-12.833 c -12.66016,-3.46362 -19.44892,-17.00882 -15.59402,-31.11381 1.34215,-4.91088 7.21266,-11.54064 12.30603,-13.89752 5.26337,-2.43558 14.59892,-2.41935 19.8039,0.0335 2.17843,1.02692 5.49635,3.50703 7.37316,5.51129 l 3.41237,3.64414 h -4.52424 c -2.48834,0 -6.65165,-0.95612 -9.25179,-2.12477 -11.72486,-5.26965 -24.21809,3.60356 -23.01314,16.34486 0.51717,5.46871 4.12127,11.05438 8.67723,13.44815 4.11956,2.16449 11.70167,1.91793 15.6175,-0.50786 3.27784,-2.03054 11.11576,-2.79758 11.11576,-1.08783 0,0.50633 -2.03263,2.73847 -4.51695,4.96036 -3.11333,2.78444 -6.05162,4.37417 -9.4556,5.1159 -5.90716,1.28718 -6.0646,1.28282 -11.95021,-0.32761 z m 176.70042,-0.52494 c -7.48292,-3.53596 -8.18161,-5.8402 -8.18587,-26.99636 l -0.004,-18.36097 h 3.46569 3.46569 v 17.14906 c 0,16.86624 0.0401,17.18982 2.43046,19.61855 1.33681,1.35821 3.58502,2.46946 4.99602,2.46946 1.41104,0 3.65922,-1.11125 4.99599,-2.46946 2.39038,-2.42873 2.43048,-2.75231 2.43048,-19.61855 v -17.14906 h 3.46567 3.4657 v 17.63871 c 0,19.52969 -0.71317,22.84634 -5.68585,26.44405 -4.3843,3.17198 -9.83427,3.64001 -14.84027,1.27457 z m 52.87246,1.25766 c -0.36296,-0.36893 -0.66012,-11.00817 -0.66012,-23.64286 v -22.97213 h 11.38723 11.38726 v 3.52125 3.52129 h -5.51114 c -7.79148,0 -9.34179,1.08526 -9.34179,6.53955 0,5.45422 1.55031,6.53952 9.34179,6.53952 h 5.51114 v 3.98023 3.98023 l -7.1789,0.29559 -7.17894,0.29558 v 5.03035 5.03042 l 7.17894,0.29559 7.1789,0.29559 v 3.98026 3.98023 h -10.7271 c -5.89995,0 -11.02418,-0.30192 -11.38727,-0.67073 z m 27.77237,0.0476 c -0.38888,-0.3951 -0.70702,-11.05586 -0.70702,-23.69055 V 311.261 h 10.42887 c 11.7636,0 15.56417,1.13887 19.44727,5.82777 5.1481,6.2163 4.44889,15.32475 -1.63645,21.31754 -1.91663,1.88748 -3.48365,4.13525 -3.48228,4.99506 9.7e-4,0.85981 1.56096,4.18915 3.46567,7.39862 1.90475,3.20943 3.46314,6.29273 3.46314,6.85178 0,0.55931 -1.66985,0.87596 -3.71323,0.70416 -3.573,-0.30043 -3.95626,-0.72039 -10.14948,-11.12187 -8.94212,-15.01818 -11.16438,-14.66214 -10.79933,1.73046 l 0.20215,9.07918 -2.90614,0.29931 c -1.59837,0.16455 -3.22432,-0.0223 -3.6132,-0.41918 z m 20.48629,-24.66762 c 4.98951,-2.30983 4.99874,-10.48755 0.0149,-12.79499 -2.8914,-1.33856 -10.21463,-1.50463 -12.12355,-0.27474 -1.78991,1.15301 -2.55698,8.06008 -1.27136,11.44798 0.95049,2.50482 1.51643,2.76676 5.97875,2.76676 2.71092,0 6.04167,-0.5152 7.40171,-1.14479 z M 3.8721857,356.25947 C 3.60601,355.55467 3.5085972,345.02856 3.6557137,332.86808 l 0.2674854,-22.1099 H 15.80554 27.68788 l 0.310285,3.26971 0.310288,3.26977 h -7.367958 c -8.783366,0 -9.831285,0.86048 -9.400681,7.71893 l 0.304943,4.85705 7.674012,0.2941 7.674011,0.2941 v 3.93969 3.93965 l -7.674011,0.2941 -7.674012,0.29372 -0.28471,9.30624 -0.284709,9.30624 H 7.8157435 c -1.9027811,0 -3.6773822,-0.57662 -3.9435578,-1.28138 z m 15.3990353,0.79823 c 0,-0.54181 7.563039,-11.54611 17.300163,-25.17187 3.558825,-4.98009 8.499267,-11.91195 10.978761,-15.40408 3.849349,-5.42154 4.898029,-6.30368 7.175879,-6.03654 l 2.667702,0.31309 0.265806,23.39131 0.265805,23.39131 H 54.50118 c -3.242042,0 -3.44051,-0.20066 -3.731485,-3.77276 l -0.307351,-3.7728 -8.555409,-0.28889 -8.555404,-0.28888 -3.42192,4.06187 c -2.838814,3.36977 -4.038481,4.0619 -7.040165,4.0619 -1.990034,0 -3.618243,-0.21741 -3.618243,-0.48314 z m 29.146291,-14.58314 c 2.331537,-0.90068 2.539948,-1.46971 2.539948,-6.93491 0,-8.98951 -2.424531,-8.84383 -8.749751,0.5258 -2.742114,4.06191 -2.715602,6.13206 0.08555,6.68024 1.225366,0.23975 2.533124,0.4977 2.906126,0.57304 0.37301,0.0752 1.821165,-0.30452 3.218135,-0.84417 z m 14.422289,-8.63171 v -23.69799 l 4.50451,0.30638 4.504513,0.30639 6.601386,14.95456 c 3.630762,8.22507 7.208129,15.19118 7.949707,15.48029 2.197398,0.85676 3.653702,-1.52198 10.193468,-16.65006 l 6.218715,-14.38543 4.02609,0.30043 4.02607,0.30043 v 23.13984 23.1398 l -3.18402,0.31271 -3.18402,0.31271 -0.28166,-10.86458 c -0.2437,-9.40143 -0.51439,-10.90986 -2.00965,-11.20083 -1.33853,-0.26059 -2.878131,2.17435 -6.83121,10.80342 l -5.103215,11.13884 H 86.615119 82.959753 L 78.69436,347.39028 c -6.312258,-15.02004 -8.88258,-14.77672 -8.908029,0.84328 l -0.01526,9.3062 h -3.46568 -3.465684 z m 53.450729,23.25871 c -0.0108,-0.31197 -0.0287,-10.86652 -0.0396,-23.45508 l -0.0197,-22.8883 h 3.25774 3.25774 v 23.1398 23.13981 l -3.21813,0.31531 c -1.76997,0.17348 -3.22704,0.0599 -3.23794,-0.25128 z m 11.88234,-0.0261 c -0.0108,-0.29671 -0.0313,-10.8392 -0.0454,-23.42776 l -0.0253,-22.88829 3.51111,-0.31234 3.51112,-0.31234 v 19.05306 c 0,14.21738 0.32049,19.32334 1.26288,20.11796 0.69459,0.58571 3.47952,1.20703 6.18872,1.38078 4.74393,0.30415 4.92583,0.42733 4.92583,3.3341 v 3.01827 l -9.6544,0.28777 c -5.30992,0.15859 -9.66331,0.0451 -9.6742,-0.25129 z m 26.50657,-8.83959 c -0.51156,-9.18462 -0.61038,-9.48508 -7.56137,-22.98974 -3.87369,-7.52594 -7.04305,-14.00473 -7.04305,-14.39737 0,-0.39261 1.67095,-0.57335 3.71323,-0.40162 3.55015,0.29857 3.90272,0.6739 8.02791,8.54624 2.37307,4.52867 4.93188,8.47461 5.68625,8.76874 1.77993,0.694 2.65872,-0.39029 7.66476,-9.45715 3.91339,-7.08781 4.38996,-7.56451 7.85559,-7.85783 2.02921,-0.17199 3.68947,-0.0261 3.68947,0.3224 0,0.34919 -3.21063,6.60146 -7.13475,13.89428 l -7.13474,13.2597 -0.3845,9.80925 -0.38451,9.80926 h -3.23797 -3.23797 z m 88.21279,6.7685 c -7.30883,-3.86731 -11.79426,-11.55892 -11.90361,-20.41228 -0.20951,-16.96295 14.53876,-27.95728 31.19802,-23.2571 4.20622,1.18678 10.95629,6.88059 13.06218,11.01826 0.7531,1.47968 1.88124,4.7562 2.50698,7.28109 2.27333,9.173 -3.74427,21.14135 -13.05677,25.96843 -5.55398,2.87889 -15.7646,2.59867 -21.8068,-0.5984 z m 21.26705,-7.81441 c 9.58012,-7.42431 8.01297,-22.56765 -2.89048,-27.93059 -11.18717,-5.5025 -23.16448,2.45896 -23.16448,15.39768 0,5.27587 2.807,10.09621 7.94513,13.64389 4.76834,3.29238 13.08636,2.7821 18.10983,-1.11098 z m 18.50382,-12.78769 v -23.13984 h 4.71145 4.71144 l 6.46867,15.84575 c 8.43391,20.65981 8.6389,20.71335 15.56146,4.06604 2.82826,-6.80141 5.82609,-14.06396 6.66182,-16.13896 1.43773,-3.56968 1.75874,-3.77283 5.96213,-3.77283 h 4.44259 v 23.13984 23.1398 h -3.46569 -3.46568 v -11.0075 c 0,-16.39327 -2.24906,-16.27053 -9.02459,0.49244 l -4.25014,10.51506 h -4.08381 -4.08382 l -4.26632,-10.58895 c -2.34646,-5.82393 -4.71894,-10.87319 -5.27215,-11.2206 -2.31563,-1.45407 -3.67599,3.1511 -3.67599,12.44408 v 9.36547 h -3.46569 -3.46568 z m 52.92401,21.85731 c -0.2664,-0.70535 -0.36382,-11.00509 -0.21647,-22.88829 l 0.26789,-21.6058 9.63469,-0.28777 c 7.29078,-0.21778 10.37282,0.10014 12.66877,1.30639 9.30071,4.88676 9.16154,20.30953 -0.22783,25.2483 -1.79406,0.94364 -5.71265,1.98431 -8.70799,2.31254 l -5.44607,0.59676 -0.28762,8.30012 -0.28759,8.30016 h -3.45672 c -1.90119,0 -3.67467,-0.5771 -3.94107,-1.28249 z m 19.41556,-25.72485 c 2.53299,-2.08393 3.05571,-7.11804 1.0004,-9.63429 -1.72468,-2.1114 -7.628,-3.0846 -10.53836,-1.7373 -2.1046,0.97432 -2.39971,1.77345 -2.39971,6.49823 0,2.96302 0.29704,5.68917 0.66013,6.05805 1.41684,1.4396 9.06434,0.63622 11.27754,-1.18469 z m 55.39564,7.99955 c 0,-20.31639 0.0223,-20.22927 -5.03198,-20.22927 -1.51062,0 -1.89943,-0.72077 -1.89943,-3.52125 v -3.52129 h 11.38726 11.38727 v 3.52129 c 0,3.05356 -0.31793,3.52125 -2.39452,3.52125 -5.62126,0 -5.52708,-0.34473 -5.52708,20.22927 v 19.00783 h -3.96076 -3.96076 z"
       style="fill:#fd1610;stroke-width:0.99810547" />
  </g>
</svg>
