<?xml version="1.0" encoding="UTF-8" standalone="no"?>
<svg
   xmlns:dc="http://purl.org/dc/elements/1.1/"
   xmlns:cc="http://creativecommons.org/ns#"
   xmlns:rdf="http://www.w3.org/1999/02/22-rdf-syntax-ns#"
   xmlns:svg="http://www.w3.org/2000/svg"
   xmlns="http://www.w3.org/2000/svg"
   xmlns:sodipodi="http://sodipodi.sourceforge.net/DTD/sodipodi-0.dtd"
   xmlns:inkscape="http://www.inkscape.org/namespaces/inkscape"
   width="500"
   height="200"
   viewBox="0 0 500 200"
   version="1.1"
   id="svg334"
   sodipodi:docname="fds.svg"
   inkscape:version="0.92.5 (2060ec1f9f, 2020-04-08)">
  <metadata
     id="metadata340">
    <rdf:RDF>
      <cc:Work
         rdf:about="">
        <dc:format>image/svg+xml</dc:format>
        <dc:type
           rdf:resource="http://purl.org/dc/dcmitype/StillImage" />
        <dc:title>mainlogo</dc:title>
      </cc:Work>
    </rdf:RDF>
  </metadata>
  <defs
     id="defs338" />
  <sodipodi:namedview
     pagecolor="#ffffff"
     bordercolor="#666666"
     borderopacity="1"
     objecttolerance="10"
     gridtolerance="10"
     guidetolerance="10"
     inkscape:pageopacity="0"
     inkscape:pageshadow="2"
     inkscape:window-width="1366"
     inkscape:window-height="743"
     id="namedview336"
     showgrid="false"
     inkscape:pagecheckerboard="true"
     inkscape:zoom="1.3023529"
     inkscape:cx="267.02403"
     inkscape:cy="83.225934"
     inkscape:window-x="0"
     inkscape:window-y="0"
     inkscape:window-maximized="1"
     inkscape:current-layer="svg334" />
  <title
     id="title241">mainlogo</title>
  <g
     id="Page-1"
     transform="translate(8.4462512,28.410118)"
     style="fill:none;fill-rule:evenodd;stroke:none;stroke-width:1">
    <g
       id="mainlogo">
      <g
         id="Group-14"
         transform="translate(3.996667,40.693335)"
         style="fill:#eab82a;stroke:#eab82a;stroke-width:1.45333338">
        <path
           d="m 27.258721,0.02853429 c 2.01868,-0.13843 3.61989,0.22672001 4.80363,1.09763001 1.18374,0.87091 2.05356,1.8279301 2.61164,2.8721501 0.69542,1.2535001 1.14777,2.6465201 1.35705,4.1768801 v 0 49.5023515 c -0.13952,1.95001 -0.66272,3.48146 -1.56742,4.59544 -0.9047,1.11398 -1.84428,1.95001 -2.81983,2.507 -1.18374,0.69542 -2.50591,1.18374 -3.9676,1.46169 v 0 H 0 V 0.1331743 Z M 17.964291,11.307855 H 12.32463 l 0.20819,42.923111 h 6.266411 c 0.76518,-0.06867 1.46169,-0.38259 2.08844,-0.93958 0.55699,-0.41747 1.02678,-1.09545 1.40937,-2.03503 0.38368,-0.94067 0.53955,-2.28028 0.47088,-4.0221 v 0 -30.286741 c -0.07085,-0.97446 -0.27904,-1.84319 -0.62675,-2.61055 -0.3488,-0.69542 -0.83603,-1.33961 -1.46169,-1.93148 -0.62675,-0.59187 -1.53145,-0.95702 -2.71519,-1.09763 z"
           id="Combined-Shape"
           inkscape:connector-curvature="0" />
        <polygon
           id="Path"
           points="60.887402,65.405646 60.887402,0.86456432 47.519641,0.86456432 47.519641,65.405646 " />
        <path
           d="m 89.398533,11.413585 c 1.11289,0.13952 1.96636,0.40003 2.55823,0.78371 0.59187,0.38259 1.06166,0.8175 1.40937,1.30473 0.3488,0.55808 0.59187,1.18374 0.73139,1.87916 v 3.02911 l 13.577037,8.14557 -0.20928,-17.8574704 c 0.0687,-1.8104901 -0.33136,-3.2896201 -1.20118,-4.4395702 -0.86982,-1.14777 -1.82684,-2.03612 -2.87106,-2.6628701 -1.25459,-0.76517998 -2.6814,-1.25241 -4.282607,-1.46278 H 78.850602 c -1.6023,0.14061 -2.8558,0.57552002 -3.7605,1.30582 -0.9047,0.7313901 -1.60121,1.4802201 -2.08844,2.2454001 -0.55808,0.97446 -0.94067,2.0197701 -1.14886,3.1337501 V 23.736035 c -0.06976,1.39302 0.20819,2.61164 0.83603,3.65586 0.62566,1.04422 1.32217,1.94892 2.08844,2.71519 0.83494,0.9047 1.84537,1.70585 3.02911,2.40127 l 17.127171,11.071131 v 6.78743 c 0,1.32326 -0.27904,2.35004 -0.83603,3.08143 -0.55699,0.73139 -1.18374,1.27094 -1.87916,1.61865 -0.76627,0.41747 -1.67206,0.69651 -2.71628,0.83494 -1.32217,-0.13843 -2.33151,-0.43382 -3.02802,-0.88617 -0.69651,-0.45235 -1.21862,-0.95702 -1.56633,-1.5151 -0.41856,-0.62566 -0.6976,-1.35705 -0.83603,-2.19417 v -3.34085 l -12.218901,-7.310631 -0.20819,17.127171 c 0.06867,2.01868 0.50467,3.56757 1.30473,4.64667 0.80006,1.08019 1.68841,1.89878 2.66287,2.45468 1.11398,0.62784 2.40127,1.01043 3.86405,1.14886 h 20.365561 c 2.017587,-0.06867 3.532687,-0.52102 4.543117,-1.35705 1.00934,-0.83603 1.75708,-1.74073 2.24431,-2.71519 0.55699,-1.18374 0.83603,-2.507 0.83603,-3.96978 v -15.55975 c 0.0687,-0.83603 -0.13952,-1.670971 -0.62675,-2.507001 -0.48832,-0.83494 -1.04422,-1.56633 -1.66988,-2.19308 -0.76736,-0.76627 -1.6023,-1.49766 -2.507,-2.19308 L 84.071703,23.526755 v -7.7281 c 0.06976,-1.18374 0.40003,-2.05356 0.9919,-2.60946 0.59187,-0.55699 1.20118,-0.97555 1.82793,-1.25459 0.76627,-0.27795 1.6023,-0.45126 2.507,-0.52102 z"
           id="path245"
           inkscape:connector-curvature="0" />
        <polygon
           id="polygon247"
           points="140.36366,0.75992432 140.25902,18.201015 130.44139,28.227925 130.02392,0.3435443 117.80502,0.3435443 117.80502,65.301006 129.92037,65.301006 129.92037,38.357295 139.42299,47.338896 139.42299,65.405646 152.26864,65.405646 152.26864,42.325986 144.01843,32.717635 152.47792,22.901095 152.47792,0.75992432 " />
        <path
           d="m 210.85833,11.413585 c 1.11289,0.13952 1.96745,0.40003 2.55932,0.78371 0.59187,0.38259 1.06057,0.8175 1.40937,1.30473 0.34771,0.55808 0.59078,1.18374 0.7303,1.87916 v 3.02911 l 13.57704,8.14557 -0.20928,-17.8574704 c 0.0698,-1.8104901 -0.33136,-3.2896201 -1.20009,-4.4395702 -0.87091,-1.14777 -1.82793,-2.03612 -2.87215,-2.6628701 -1.25459,-0.76517998 -2.6814,-1.25241 -4.28261,-1.46278 H 200.3104 c -1.6023,0.14061 -2.8558,0.57552002 -3.7605,1.30582 -0.9047,0.7313901 -1.60121,1.4802201 -2.08844,2.2454001 -0.55808,0.97446 -0.93958,2.0197701 -1.14886,3.1337501 V 23.736035 c -0.0698,1.39302 0.20928,2.61164 0.83603,3.65586 0.62566,1.04422 1.32217,1.94892 2.08844,2.71519 0.83494,0.9047 1.84537,1.70585 3.02911,2.40127 l 17.12717,11.071131 v 6.78743 c 0,1.32326 -0.27904,2.35004 -0.83603,3.08143 -0.55699,0.73139 -1.18374,1.27094 -1.87916,1.61865 -0.76627,0.41747 -1.67097,0.69651 -2.71519,0.83494 -1.32326,-0.13843 -2.3326,-0.43382 -3.02911,-0.88617 -0.69542,-0.45235 -1.21862,-0.95702 -1.56633,-1.5151 -0.41856,-0.62566 -0.6976,-1.35705 -0.83603,-2.19417 v -3.34085 l -12.2189,-7.310631 -0.20819,17.127171 c 0.0687,2.01868 0.50467,3.56757 1.30473,4.64667 0.80006,1.08019 1.68841,1.89878 2.66287,2.45468 1.11398,0.62784 2.40236,1.01043 3.86405,1.14886 h 20.36556 c 2.01868,-0.06867 3.53269,-0.52102 4.54312,-1.35705 1.00934,-0.83603 1.75708,-1.74073 2.24431,-2.71519 0.55699,-1.18374 0.83603,-2.507 0.83603,-3.96978 v -15.55975 c 0.0698,-0.83603 -0.13952,-1.670971 -0.62675,-2.507001 -0.48723,-0.83494 -1.04422,-1.56633 -1.66988,-2.19308 -0.76627,-0.76627 -1.6023,-1.49766 -2.507,-2.19308 L 205.5315,23.526755 v -7.7281 c 0.0698,-1.18374 0.40003,-2.05356 0.9919,-2.60946 0.59187,-0.55699 1.20118,-0.97555 1.82793,-1.25459 0.76627,-0.27795 1.6023,-0.45126 2.507,-0.52102 z"
           id="path249"
           inkscape:connector-curvature="0" />
        <path
           d="M 276.12971,0.65637431 H 263.49443 V 29.167505 c -0.0698,0.9047 -0.31501,1.70476 -0.73139,2.40127 -0.34989,0.62675 -0.88835,1.18374 -1.61865,1.67097 -0.73248,0.48723 -1.79196,0.76627 -3.18498,0.83603 -1.04531,0.06976 -1.95001,-0.03488 -2.71628,-0.31392 -0.69651,-0.27795 -1.32217,-0.76518 -1.87916,-1.46169 -0.55808,-0.69651 -0.87091,-1.8094 -0.93958,-3.34303 V 0.65637431 H 240.2044 V 37.730545 c 0.0709,1.39302 0.38368,2.64652 0.94176,3.760501 0.48723,0.97446 1.23388,1.86281 2.24322,2.66287 1.00934,0.80006 2.48847,1.20009 4.43848,1.20009 h 15.56302 v 5.43147 c -0.14061,0.9047 -0.45344,1.70476 -0.94176,2.40127 -0.41638,0.55808 -1.04531,1.0791 -1.87916,1.56633 -0.83712,0.48832 -1.95001,0.73139 -3.34303,0.73139 H 243.2346 v 10.33974 h 26.62979 c 1.18374,-0.13843 2.22905,-0.48723 3.13375,-1.04422 0.76409,-0.48832 1.47804,-1.21753 2.13967,-2.19308 0.66163,-0.97555 0.9919,-2.29772 0.9919,-3.96978 z"
           id="path251"
           inkscape:connector-curvature="0" />
        <path
           d="m 304.43374,11.413585 c 1.11398,0.13952 1.96745,0.40003 2.55932,0.78371 0.59187,0.38259 1.05948,0.8175 1.40937,1.30473 0.34662,0.55808 0.59187,1.18374 0.7303,1.87916 v 3.02911 l 13.57813,8.14557 -0.21146,-17.8574704 c 0.0709,-1.8104901 -0.32918,-3.2896201 -1.20009,-4.4395702 -0.87091,-1.14777 -1.82684,-2.03612 -2.87215,-2.6628701 -1.2535,-0.76517998 -2.68031,-1.25241 -4.28152,-1.46278 h -20.26092 c -1.60012,0.14061 -2.85471,0.57552002 -3.75941,1.30582 -0.9047,0.7313901 -1.60121,1.4802201 -2.08844,2.2454001 -0.55808,0.97446 -0.94067,2.0197701 -1.14995,3.1337501 V 23.736035 c -0.0698,1.39302 0.20928,2.61164 0.83712,3.65586 0.62566,1.04422 1.32217,1.94892 2.08844,2.71519 0.83494,0.9047 1.84537,1.70585 3.02911,2.40127 l 17.12717,11.071131 v 6.78743 c 0,1.32326 -0.27904,2.35004 -0.83603,3.08143 -0.55808,0.73139 -1.18374,1.27094 -1.88025,1.61865 -0.76627,0.41747 -1.67097,0.69651 -2.7141,0.83494 -1.32435,-0.13843 -2.33369,-0.43382 -3.0302,-0.88617 -0.69542,-0.45235 -1.21753,-0.95702 -1.56633,-1.5151 -0.41747,-0.62566 -0.69651,-1.35705 -0.83494,-2.19417 v -3.34085 l -12.21999,-7.310631 -0.20819,17.127171 c 0.0698,2.01868 0.50467,3.56757 1.30473,4.64667 0.80115,1.08019 1.68841,1.89878 2.66396,2.45468 1.11289,0.62784 2.40127,1.01043 3.86405,1.14886 h 20.36447 c 2.01868,-0.06867 3.53378,-0.52102 4.54312,-1.35705 1.00934,-0.83603 1.75817,-1.74073 2.24649,-2.71519 0.55481,-1.18374 0.83385,-2.507 0.83385,-3.96978 v -15.55975 c 0.0709,-0.83603 -0.13843,-1.670971 -0.62566,-2.507001 -0.48723,-0.83494 -1.04531,-1.56633 -1.67097,-2.19308 -0.76627,-0.76627 -1.60121,-1.49766 -2.50591,-2.19308 l -18.58995,-12.01071 v -7.7281 c 0.0687,-1.18374 0.40003,-2.05356 0.9919,-2.60946 0.59187,-0.55699 1.20118,-0.97555 1.82684,-1.25459 0.76627,-0.27795 1.60339,-0.45126 2.50809,-0.52102 z"
           id="path253"
           inkscape:connector-curvature="0" />
        <polygon
           id="polygon255"
           points="332.94378,0.75992432 332.94378,11.831055 341.71719,11.831055 341.71719,65.824206 354.45929,65.824206 354.45929,12.143885 363.75372,12.143885 363.75372,0.75992432 " />
        <polygon
           id="polygon257"
           points="387.56586,11.934605 401.35,11.934605 401.35,0.86456432 374.9284,0.86456432 374.9284,66.868426 401.35,66.868426 401.35,55.276276 387.35658,55.276276 387.35658,39.402605 401.55819,39.402605 401.55819,28.122195 387.56586,28.122195 " />
        <path
           d="m 472.15749,7.1309745 c -0.0698,-1.18374 -0.34662,-2.2279601 -0.83494,-3.1326601 -0.41856,-0.76627 -1.13251,-1.47913 -2.14076,-2.1418501 -1.00934,-0.66054 -2.42089,-0.99189998 -4.23029,-0.99189998 h -14.30625 c -1.11616,0.06976 -2.15929,0.34770998 -3.13375,0.83602998 -0.83712,0.4174701 -1.68841,1.0453101 -2.55932,1.8791601 -0.87091,0.83603 -1.54998,1.9500101 -2.03721,3.3430301 -0.55808,-1.32217 -1.21753,-2.4721201 -1.9838,-3.4465801 -0.76736,-0.83494 -1.70585,-1.6012101 -2.81874,-2.2977201 -1.11616,-0.69650999 -2.57894,-1.01043 -4.38834,-0.93958 L 414.19565,0.44709431 V 65.824206 H 425.7878 V 17.366075 c -0.0698,-0.97555 0.10464,-1.84537 0.52211,-2.61164 0.3488,-0.69542 0.92323,-1.32217 1.72438,-1.87916 0.80006,-0.55699 2.00015,-0.83603 3.60136,-0.83603 0.83712,0 1.63718,0.20928 2.40345,0.62675 0.5559,0.3488 1.09654,0.95702 1.61865,1.82793 0.52102,0.87091 0.78262,2.14076 0.78262,3.81173 V 65.824206 H 448.765 V 17.366075 c 0,-0.83494 0.20819,-1.63609 0.62566,-2.40236 0.34771,-0.62675 0.9047,-1.20118 1.67206,-1.7222 0.76409,-0.52211 1.91295,-0.78371 3.44658,-0.78371 0.83385,-0.06976 1.635,0.03488 2.40127,0.31283 0.62566,0.27904 1.20009,0.76627 1.7222,1.46278 0.52102,0.69542 0.78371,1.81049 0.78371,3.34085 v 48.249941 h 12.74101 z"
           id="path259"
           inkscape:connector-curvature="0" />
      </g>
      <g
         id="Group-10"
         transform="translate(0,119.9)"
         style="fill:#ffffff">
        <polygon
           id="path7807"
           points="67.378869,7.1970563 67.378869,2.8204682 45.252786,2.3140298e-14 45.252786,4.5711048 " />
        <polygon
           id="path7807-3"
           points="67.354555,12.887423 67.354555,8.5108349 45.228472,5.6903667 45.228472,10.261472 " />
        <polygon
           id="path7807-3-9"
           points="67.403184,18.47973 67.403184,14.103142 45.277101,11.282674 45.277101,15.853779 " />
        <rect
           id="rect7839"
           x="70.354095"
           y="0.43765914"
           width="3.9875581"
           height="11.038728"
           style="fill-rule:nonzero" />
        <rect
           id="rect7841"
           x="95.406776"
           y="6.9539104"
           width="21.104881"
           height="4.4252172"
           style="fill-rule:nonzero" />
        <rect
           id="rect7843"
           x="152.1743"
           y="0.63217574"
           width="12.789364"
           height="4.473846"
           style="fill-rule:nonzero" />
        <rect
           id="rect7845"
           x="126.73258"
           y="0.58354336"
           width="22.028826"
           height="4.6683602"
           style="fill-rule:nonzero" />
        <rect
           id="rect7845-3"
           x="126.65964"
           y="12.837996"
           width="22.028826"
           height="4.6683602"
           style="fill-rule:nonzero" />
        <rect
           id="rect7864"
           x="145.16287"
           y="3.8416739"
           width="3.5985279"
           height="11.379129"
           style="fill-rule:nonzero" />
        <rect
           id="rect7866"
           x="220.28117"
           y="7.2456856"
           width="21.348024"
           height="4.7656183"
           style="fill-rule:nonzero" />
        <path
           d="m 18.916586,5.3005356 c 0,8.5860484 -6.175852,7.8292284 -6.175852,7.8292284 H 2.1396652 v 4.522476 l 13.2756508,0.04863 c 4.050246,-0.208755 6.953912,-6.000268 6.953912,-8.9476927 l 0.09726,-8.266888 H 0 v 4.8628764 z"
           id="path7870"
           inkscape:connector-curvature="0" />
        <path
           d="m 196.24556,0.74709845 c 1.68068,0 3.04314,1.35476115 3.04314,3.02594365 0,1.6711825 -1.36246,3.0259436 -3.04314,3.0259436 -1.68067,0 -3.04313,-1.3547611 -3.04313,-3.0259436 0,-1.6711825 1.36246,-3.02594365 3.04313,-3.02594365 z m -9.7e-4,1.83841825 c -0.63619,0 -1.15192,0.5311279 -1.15192,1.1863074 0,0.6551795 0.51573,1.1863074 1.15192,1.1863074 0.63619,0 1.15192,-0.5311279 1.15192,-1.1863074 0,-0.6551795 -0.51573,-1.1863074 -1.15192,-1.1863074 z"
           id="path273"
           inkscape:connector-curvature="0"
           style="fill-rule:nonzero" />
        <polygon
           id="path7945"
           points="220.42996,17.56172 220.42996,13.366661 216.78508,13.366661 216.78508,4.9765453 204.1999,4.9765453 204.1999,9.4810732 213.96545,9.4810732 213.96545,13.504204 202.61816,13.504204 202.54939,17.56172 " />
        <rect
           id="rect7947"
           x="250.6431"
           y="7.3491578"
           width="13.891833"
           height="4.6764584"
           style="fill-rule:nonzero" />
        <path
           d="m 244.52243,6.1456577 c 2.93751,0 3.1905,-2.6868488 3.33542,-5.29539978 h 18.94653 V 9.9280888 c 0,1.9312962 -2.73419,7.4960872 -6.15504,7.4960872 h -14.47639 v -3.988744 h 12.72271 c 3.05326,0 4.43576,-4.7161841 4.43576,-7.7711743 h -12.82587 c 0,1.0982334 -2.61517,5.2954033 -5.94873,5.2954033 z"
           id="path7951"
           inkscape:connector-curvature="0" />
        <path
           d="M 88.85734,0.31608625 V 6.6621389 c 0,2.8069789 -2.06938,6.3460531 -5.130333,6.3460531 H 73.587909 v 4.619733 h 11.42776 c 3.564711,0 7.269997,-4.333912 7.269997,-7.9264867 l -0.02433,-9.38535205 z"
           id="path7953"
           inkscape:connector-curvature="0" />
        <path
           d="M 171.06692,0.85616884 V 6.7208378 c 0,2.8069789 -1.86307,6.3116682 -4.92402,6.3116682 h -13.93214 v 4.400906 l 15.17218,0.02429 c 3.56471,0 6.69968,-3.898695 6.69968,-7.4912704 l 0.0444,-9.11026776 z"
           id="path7953-8"
           inkscape:connector-curvature="0" />
        <path
           d="m 199.66695,9.859317 -18.98092,-0.034384 c 0,1.6698964 0.0507,3.5417284 2.23507,3.5417284 h 16.57392 v 4.160671 h -18.19005 c -1.94257,0 -3.81681,-1.771538 -3.81681,-4.057515 V 0.81587034 h 3.23226 V 4.7702296 h 11.58798 c 0,1.0127579 0.47024,1.3754281 1.4442,1.3754281 h 5.91435 z"
           id="path7998"
           inkscape:connector-curvature="0" />
        <path
           d="m 24.352714,17.554982 h 7.877857 c 2.279093,0 3.063614,-2.714437 3.063614,-3.598528 h 4.133443 c 2.205582,0 3.647157,-1.726645 3.647157,-3.793045 V 4.4252173 H 24.401342 v 4.4252173 l 14.637256,-0.097258 v 1.1670899 h -7.00254 v 3.5012698 h -7.634716 z"
           id="path8000"
           inkscape:connector-curvature="0" />
      </g>
      <path
         d="m 23.102673,57.58321 c -0.138269,-0.554535 -0.347307,-1.005774 -0.624934,-1.353717 -0.626023,-0.7633 -1.703872,-0.972066 -3.233546,-0.62521 v 35.838143 c 0.624934,0.207678 1.216118,0.277267 1.772462,0.207678 0.487754,-0.06959 0.921071,-0.277267 1.304306,-0.624123 0.382146,-0.347943 0.643443,-1.007947 0.781712,-1.981101 z m 1.253135,-4.530873 c 0.624935,0.590416 1.1116,1.233024 1.459995,1.926736 0.347307,0.765475 0.555256,1.63207 0.626024,2.604137 v 30.212337 c 0.06859,1.737541 -0.0871,3.07386 -0.470334,4.012219 -0.382147,0.937272 -0.851392,1.613586 -1.407736,2.030031 -0.626023,0.555622 -1.321726,0.868771 -2.086018,0.937272 H 16.218596 L 16.010647,51.957404 h 5.63312 c 1.182367,0.140264 2.086018,0.504518 2.712041,1.094933 z M 39.689566,48.83244 c -0.209037,-1.526601 -0.660863,-2.916199 -1.355476,-4.166619 -0.557433,-1.041655 -1.426244,-1.996324 -2.608612,-2.865095 -1.182367,-0.86877 -2.78172,-1.233023 -4.798059,-1.094933 L 3.7003092,40.810176 V 106.75627 H 31.344405 c 1.459995,-0.27726 2.780631,-0.76438 3.962999,-1.4581 0.974418,-0.55562 1.912909,-1.38959 2.81656,-2.50084 0.903651,-1.11124 1.426244,-2.63893 1.565602,-4.584148 z m -2.296144,-9.688042 c 1.80839,1.250421 3.164955,2.604137 4.069695,4.062236 0.972241,1.737541 1.563425,3.681673 1.773551,5.833484 v 48.027026 c 0,2.918373 -0.538924,5.193046 -1.617862,6.825126 -1.077848,1.63207 -2.278724,2.93359 -3.598272,3.90566 -1.530763,1.11124 -3.268386,1.87563 -5.215046,2.29207 H 0.36333334 V 37.060001 H 29.675373 c 3.338064,0.140265 5.910747,0.833976 7.718049,2.084397 z"
         id="Fill-1"
         inkscape:connector-curvature="0"
         style="fill:#1a1919" />
      <path
         d="M 51.31718,106.12137 H 64.741514 V 41.599004 H 51.31718 Z M 47.960001,110.09 H 68.306669 V 37.423335 H 47.960001 Z"
         id="Fill-3"
         inkscape:connector-curvature="0"
         style="fill:#1a1919" />
      <path
         d="m 93.220436,51.854329 c 1.111599,0.139179 1.96408,0.399053 2.555263,0.781796 0.591184,0.381656 1.060429,0.815504 1.407736,1.301544 0.348395,0.556717 0.591184,1.18085 0.730542,1.874572 v 3.021713 l 13.561293,8.125681 -0.20904,-17.813867 c 0.0686,-1.806069 -0.33097,-3.281587 -1.19978,-4.428729 -0.86881,-1.144968 -1.82472,-2.031149 -2.86773,-2.656368 -1.25314,-0.763312 -2.67829,-1.249352 -4.27765,-1.459208 H 82.684738 c -1.600442,0.140266 -2.852489,0.574114 -3.756139,1.302631 -0.903651,0.729604 -1.599354,1.476606 -2.086019,2.239917 -0.557433,0.972081 -0.939579,2.014839 -1.147527,3.126098 V 64.14669 c -0.06968,1.389619 0.207948,2.605263 0.83506,3.646933 0.624935,1.041671 1.320637,1.944162 2.086018,2.708561 0.833972,0.902491 1.84323,1.701684 3.025598,2.395406 l 17.107308,11.044097 v 6.770857 c 0,1.320029 -0.278716,2.344302 -0.83506,3.073906 -0.556344,0.729604 -1.182367,1.267837 -1.876981,1.614698 -0.765382,0.41645 -1.670121,0.694809 -2.71313,0.832901 C 92.003229,96.095957 90.995059,95.801288 90.299357,95.350043 89.603655,94.898797 89.08215,94.39536 88.734844,93.838642 88.316769,93.21451 88.038053,92.484906 87.899783,91.64983 v -3.332693 l -12.20473,-7.292779 -0.207949,17.08535 c 0.06859,2.013752 0.504085,3.558862 1.303217,4.635322 0.799132,1.07755 1.686452,1.89415 2.659782,2.44869 1.112688,0.62631 2.398486,1.00796 3.859569,1.14605 h 20.341948 c 2.01525,-0.0685 3.52859,-0.51974 4.53785,-1.35373 1.00817,-0.83399 1.75504,-1.73648 2.2417,-2.70856 0.55635,-1.18085 0.83506,-2.500882 0.83506,-3.96009 V 82.795633 c 0.0686,-0.833989 -0.13935,-1.66689 -0.62602,-2.500879 -0.48775,-0.832901 -1.04301,-1.562505 -1.66794,-2.187725 -0.76647,-0.764399 -1.60044,-1.494003 -2.50409,-2.187725 L 87.899783,63.937921 v -7.70923 c 0.06968,-1.180849 0.399566,-2.048545 0.99075,-2.603088 0.591184,-0.55563 1.199787,-0.973168 1.82581,-1.251527 0.765381,-0.277271 1.600442,-0.450158 2.504093,-0.519747 z m 1.669032,9.062966 v -3.021714 c 0.06859,-1.388531 -0.243877,-2.22252 -0.93849,-2.499791 -0.278717,-0.138092 -0.661952,-0.138092 -1.147528,0 -0.557433,0 -0.956999,0.121782 -1.200876,0.365346 -0.242788,0.242476 -0.399566,0.538232 -0.468156,0.885093 -0.140447,0.346861 -0.140447,0.763312 0,1.249352 v 3.959 l 16.064302,10.41779 c 2.01525,1.112347 3.56343,2.292109 4.64128,3.542549 1.07894,1.250439 1.82581,2.431288 2.2428,3.542548 0.48666,1.25044 0.73054,2.569381 0.73054,3.957912 v 15.940383 c -0.13936,2.292107 -0.73054,4.150367 -1.77355,5.573697 -1.04301,1.42441 -2.22538,2.51828 -3.54711,3.28159 -1.52967,0.90249 -3.23354,1.56359 -5.11052,1.97895 H 83.309672 c -2.643451,-0.0696 -4.712049,-0.72851 -6.206884,-1.97895 -1.494834,-1.24936 -2.590103,-2.56938 -3.285805,-3.959 -0.833972,-1.66689 -1.356565,-3.54146 -1.564514,-5.624804 V 74.773249 l 18.985379,11.564932 v 4.062297 c 0,0.62522 0.0871,1.09495 0.261296,1.407016 0.173109,0.312066 0.399566,0.538233 0.678283,0.676325 0.277628,0.208769 0.624934,0.313153 1.043009,0.313153 1.043009,-0.06959 1.634193,-0.48604 1.773551,-1.250439 0.06859,-0.277272 0.03375,-0.660015 -0.104519,-1.146055 V 85.608577 L 81.015705,77.274128 c -2.435502,-1.318942 -4.260223,-2.725958 -5.476342,-4.218873 -1.218295,-1.492916 -2.104526,-2.83143 -2.66087,-4.01228 -0.626024,-1.388531 -0.938491,-2.777062 -0.938491,-4.166681 V 47.789857 c 0.13827,-2.637883 0.764293,-4.686429 1.876981,-6.145637 1.112688,-1.459208 2.364735,-2.535673 3.756139,-3.230482 1.598265,-0.763312 3.371816,-1.214558 5.319564,-1.353737 H 101.5656 c 3.19762,0.139179 5.66687,0.729604 7.40667,1.771274 1.73762,1.041671 3.05935,2.22252 3.963,3.541462 0.97442,1.528798 1.59935,3.230483 1.87807,5.105054 v 26.565854 z"
         id="Fill-4"
         inkscape:connector-curvature="0"
         style="fill:#1a1919" />
      <path
         d="m 156.17314,41.238565 h -12.07169 l -0.10427,17.448122 -9.78314,10.030953 -0.416,-27.895623 h -12.17596 v 64.983653 h 12.07278 V 78.851094 l 9.46922,8.985221 V 105.91035 H 155.9646 V 82.821384 l -8.22122,-9.612224 8.42976,-9.820498 z m 3.3302,23.29942 -7.4924,8.671175 7.4924,9.193495 V 109.88173 H 140.25098 V 89.612641 L 137.54424,87.10463 V 110.09 h -19.4609 V 37.060001 h 19.4609 v 22.984283 l 2.70674,-3.237515 V 37.060001 h 19.25236 z"
         id="Fill-5"
         inkscape:connector-curvature="0"
         style="fill:#1a1919" />
      <path
         d="m 214.57377,51.854329 c 1.1116,0.139179 1.96517,0.399053 2.55635,0.781796 0.59119,0.381656 1.05935,0.815504 1.40774,1.301544 0.34731,0.556717 0.5901,1.18085 0.72945,1.874572 v 3.021713 l 13.5613,8.125681 -0.20904,-17.813867 c 0.0697,-1.806069 -0.33097,-3.281587 -1.1987,-4.428729 -0.8699,-1.144968 -1.82581,-2.031149 -2.86882,-2.656368 -1.25313,-0.763312 -2.67829,-1.249352 -4.27764,-1.459208 h -20.23634 c -1.60044,0.140266 -2.85248,0.574114 -3.75613,1.302631 -0.90366,0.729604 -1.59936,1.476606 -2.08602,2.239917 -0.55744,0.972081 -0.93849,2.014839 -1.14753,3.126098 V 64.14669 c -0.0697,1.389619 0.20904,2.605263 0.83506,3.646933 0.62493,1.041671 1.32064,1.944162 2.08602,2.708561 0.83397,0.902491 1.84323,1.701684 3.0256,2.395406 l 17.1073,11.044097 v 6.770857 c 0,1.320029 -0.27871,2.344302 -0.83506,3.073906 -0.55634,0.729604 -1.18236,1.267837 -1.87698,1.614698 -0.76538,0.41645 -1.66903,0.694809 -2.71204,0.832901 -1.32172,-0.138092 -2.32989,-0.432761 -3.0256,-0.884006 -0.69461,-0.451246 -1.2172,-0.954683 -1.56451,-1.511401 -0.41807,-0.624132 -0.69679,-1.353736 -0.83506,-2.188812 v -3.332693 l -12.20473,-7.292779 -0.20795,17.08535 c 0.0686,2.013752 0.50409,3.558862 1.30322,4.635322 0.79913,1.07755 1.68645,1.89415 2.65978,2.44869 1.11269,0.62631 2.39957,1.00796 3.85957,1.14605 h 20.34194 c 2.01634,-0.0685 3.5286,-0.51974 4.53785,-1.35373 1.00817,-0.83399 1.75505,-1.73648 2.24171,-2.70856 0.55635,-1.18085 0.83506,-2.500882 0.83506,-3.96009 V 82.795633 c 0.0697,-0.833989 -0.13936,-1.66689 -0.62602,-2.500879 -0.48667,-0.832901 -1.04301,-1.562505 -1.66795,-2.187725 -0.76538,-0.764399 -1.60044,-1.494003 -2.50409,-2.187725 L 209.25312,63.937921 v -7.70923 c 0.0697,-1.180849 0.39957,-2.048545 0.99075,-2.603088 0.59118,-0.55563 1.19979,-0.973168 1.82581,-1.251527 0.76538,-0.277271 1.60044,-0.450158 2.50409,-0.519747 z m 1.66903,9.062966 v -3.021714 c 0.0697,-1.388531 -0.24387,-2.22252 -0.93849,-2.499791 -0.27871,-0.138092 -0.66195,-0.138092 -1.14752,0 -0.55744,0 -0.957,0.121782 -1.19979,0.365346 -0.24388,0.242476 -0.40066,0.538232 -0.46925,0.885093 -0.14044,0.346861 -0.14044,0.763312 0,1.249352 v 3.959 l 16.0643,10.41779 c 2.01525,1.112347 3.56344,2.292109 4.64129,3.542549 1.07893,1.250439 1.82581,2.431288 2.24279,3.542548 0.48667,1.25044 0.73054,2.569381 0.73054,3.957912 v 15.940383 c -0.13935,2.292107 -0.73054,4.150367 -1.77355,5.573697 -1.04301,1.42441 -2.22537,2.51828 -3.5471,3.28159 -1.52967,0.90249 -3.23355,1.56359 -5.11053,1.97895 h -21.07248 c -2.64236,-0.0696 -4.71205,-0.72851 -6.20689,-1.97895 -1.49483,-1.24936 -2.5901,-2.56938 -3.28471,-3.959 -0.83506,-1.66689 -1.35657,-3.54146 -1.5656,-5.624804 V 74.773249 l 18.98646,11.564932 v 4.062297 c 0,0.62522 0.086,1.09495 0.26021,1.407016 0.17311,0.312066 0.39957,0.538233 0.67828,0.676325 0.27763,0.208769 0.62494,0.313153 1.04301,0.313153 1.04301,-0.06959 1.6342,-0.48604 1.77355,-1.250439 0.0686,-0.277272 0.0337,-0.660015 -0.10452,-1.146055 v -4.791901 l -13.87376,-8.334449 c -2.43441,-1.318942 -4.26022,-2.725958 -5.47634,-4.218873 -1.2183,-1.492916 -2.10453,-2.83143 -2.66087,-4.01228 -0.62602,-1.388531 -0.93849,-2.777062 -0.93849,-4.166681 V 47.789857 c 0.13827,-2.637883 0.76429,-4.686429 1.87807,-6.145637 1.1116,-1.459208 2.36364,-2.535673 3.75505,-3.230482 1.59935,-0.763312 3.37181,-1.214558 5.32065,-1.353737 h 18.67182 c 3.19762,0.139179 5.66687,0.729604 7.40667,1.771274 1.73763,1.041671 3.05935,2.22252 3.963,3.541462 0.97442,1.528798 1.59936,3.230483 1.87807,5.105054 v 26.565854 z"
         id="Fill-6"
         inkscape:connector-curvature="0"
         style="fill:#1a1919" />
      <path
         d="M 279.94937,41.294491 H 267.29923 V 69.85806 c -0.0698,0.906364 -0.31538,1.707895 -0.73225,2.405686 -0.3503,0.627903 -0.8894,1.185917 -1.62056,1.674044 -0.73334,0.488126 -1.79406,0.767679 -3.18872,0.837567 -1.04654,0.06989 -1.95231,-0.03494 -2.71948,-0.314497 -0.69733,-0.278461 -1.32372,-0.766588 -1.88137,-1.464378 -0.55873,-0.697791 -0.87193,-1.812728 -0.94068,-3.349179 V 41.294491 H 243.9818 v 37.142358 c 0.0709,1.395582 0.38413,2.651388 0.94287,3.767417 0.4878,0.976252 1.23533,1.866236 2.24586,2.667767 1.01052,0.801532 2.49139,1.202298 4.4437,1.202298 h 15.58133 v 5.441459 c -0.14078,0.906364 -0.45398,1.707896 -0.94287,2.405687 -0.41687,0.559106 -1.04654,1.081084 -1.88137,1.569211 -0.83811,0.489218 -1.95231,0.732735 -3.34696,0.732735 h -14.00879 v 10.358757 h 26.66111 c 1.18514,-0.13868 2.23168,-0.48813 3.13744,-1.04614 0.76499,-0.48922 1.47978,-1.21977 2.14219,-2.19711 0.66241,-0.97735 0.99306,-2.30195 0.99306,-3.977086 z m 3.45064,-3.871156 v 62.148174 c -0.0698,2.441721 -0.57511,4.377851 -1.5147,5.807281 -0.94287,1.43053 -2.0036,2.52908 -3.18873,3.29567 -1.32591,0.83648 -2.85807,1.42943 -4.60193,1.77888 H 243.25064 V 92.666763 h 19.65618 v -3.454011 h -13.38349 c -2.5787,-0.137592 -4.531,-0.766587 -5.85473,-1.882616 -1.32591,-1.116029 -2.2655,-2.371834 -2.82424,-3.766325 -0.69623,-1.604154 -1.04435,-3.381938 -1.04435,-5.335535 V 37.423335 h 20.07632 v 33.376033 h 3.45063 V 37.423335 Z"
         id="Fill-7"
         inkscape:connector-curvature="0"
         style="fill:#1a1919" />
      <path
         d="m 307.95153,51.854329 c 1.11269,0.139179 1.96517,0.399053 2.55635,0.781796 0.59119,0.381656 1.05825,0.815504 1.40774,1.301544 0.34622,0.556717 0.59118,1.18085 0.72945,1.874572 v 3.021713 l 13.56239,8.125681 -0.21122,-17.813867 c 0.0708,-1.806069 -0.3288,-3.281587 -1.1987,-4.428729 -0.8699,-1.144968 -1.82472,-2.031149 -2.86882,-2.656368 -1.25204,-0.763312 -2.6772,-1.249352 -4.27655,-1.459208 h -20.23743 c -1.59826,0.140266 -2.85139,0.574114 -3.75505,1.302631 -0.90365,0.729604 -1.59935,1.476606 -2.08601,2.239917 -0.55744,0.972081 -0.93958,2.014839 -1.14862,3.126098 V 64.14669 c -0.0697,1.389619 0.20904,2.605263 0.83615,3.646933 0.62493,1.041671 1.32063,1.944162 2.08602,2.708561 0.83397,0.902491 1.84323,1.701684 3.02559,2.395406 l 17.10731,11.044097 v 6.770857 c 0,1.320029 -0.27871,2.344302 -0.83506,3.073906 -0.55743,0.729604 -1.18236,1.267837 -1.87807,1.614698 -0.76538,0.41645 -1.66903,0.694809 -2.71095,0.832901 -1.32281,-0.138092 -2.33098,-0.432761 -3.02669,-0.884006 -0.69461,-0.451246 -1.21611,-0.954683 -1.56451,-1.511401 -0.41699,-0.624132 -0.6957,-1.353736 -0.83397,-2.188812 v -3.332693 l -12.20582,-7.292779 -0.20795,17.08535 c 0.0697,2.013752 0.50409,3.558862 1.30322,4.635322 0.80022,1.07755 1.68645,1.89415 2.66087,2.44869 1.1116,0.62631 2.39848,1.00796 3.85957,1.14605 h 20.34085 c 2.01634,-0.0685 3.52968,-0.51974 4.53785,-1.35373 1.00817,-0.83399 1.75614,-1.73648 2.24389,-2.70856 0.55417,-1.18085 0.83288,-2.500882 0.83288,-3.96009 V 82.795633 c 0.0708,-0.833989 -0.13827,-1.66689 -0.62493,-2.500879 -0.48667,-0.832901 -1.0441,-1.562505 -1.66904,-2.187725 -0.76538,-0.764399 -1.59935,-1.494003 -2.503,-2.187725 L 302.63088,63.937921 v -7.70923 c 0.0686,-1.180849 0.39956,-2.048545 0.99075,-2.603088 0.59118,-0.55563 1.19978,-0.973168 1.82472,-1.251527 0.76538,-0.277271 1.60153,-0.450158 2.50518,-0.519747 z m 1.66903,9.062966 v -3.021714 c 0.0686,-1.388531 -0.24387,-2.22252 -0.93958,-2.499791 -0.27871,-0.138092 -0.66086,-0.138092 -1.14644,0 -0.55743,0 -0.95699,0.121782 -1.20087,0.365346 -0.24279,0.242476 -0.39957,0.538232 -0.46816,0.885093 -0.14044,0.346861 -0.14044,0.763312 0,1.249352 v 3.959 l 16.06321,10.41779 c 2.01525,1.112347 3.56344,2.292109 4.64237,3.542549 1.07785,1.250439 1.82581,2.431288 2.2428,3.542548 0.48666,1.25044 0.72945,2.569381 0.72945,3.957912 v 15.940383 c -0.13827,2.292107 -0.72945,4.150367 -1.77355,5.573697 -1.04192,1.42441 -2.22429,2.51828 -3.5471,3.28159 -1.52859,0.90249 -3.23137,1.56359 -5.10944,1.97895 h -21.07248 c -2.64345,-0.0696 -4.71314,-0.72851 -6.20798,-1.97895 -1.49483,-1.24936 -2.5901,-2.56938 -3.28471,-3.959 -0.83397,-1.66689 -1.35657,-3.54146 -1.5656,-5.624804 V 74.773249 l 18.98755,11.564932 v 4.062297 c 0,0.62522 0.0849,1.09495 0.25912,1.407016 0.1742,0.312066 0.39957,0.538233 0.67828,0.676325 0.27872,0.208769 0.62494,0.313153 1.0441,0.313153 1.04192,-0.06959 1.6331,-0.48604 1.77355,-1.250439 0.0675,-0.277272 0.0337,-0.660015 -0.10452,-1.146055 v -4.791901 l -13.87485,-8.334449 c -2.43441,-1.318942 -4.25913,-2.725958 -5.47525,-4.218873 -1.2183,-1.492916 -2.10562,-2.83143 -2.66087,-4.01228 -0.62711,-1.388531 -0.93958,-2.777062 -0.93958,-4.166681 V 47.789857 c 0.13827,-2.637883 0.76538,-4.686429 1.87807,-6.145637 1.1116,-1.459208 2.36473,-2.535673 3.75505,-3.230482 1.59935,-0.763312 3.3729,-1.214558 5.32065,-1.353737 h 18.67182 c 3.19871,0.139179 5.66687,0.729604 7.40667,1.771274 1.73872,1.041671 3.05935,2.22252 3.963,3.541462 0.97442,1.528798 1.59936,3.230483 1.87807,5.105054 v 26.565854 z"
         id="Fill-8"
         inkscape:connector-curvature="0"
         style="fill:#1a1919" />
      <path
         d="m 367.26795,41.238565 h -30.70767 v 11.075594 h 8.74429 v 54.014921 h 12.6998 V 52.627115 h 9.26358 z m 4.05873,-3.760926 v 19.015084 h -8.95179 V 110.09 H 341.34905 V 56.492723 h -8.53571 V 37.060001 Z"
         id="Fill-9"
         inkscape:connector-curvature="0"
         style="fill:#1a1919" />
      <path
         d="m 391.17445,68.633539 v -16.20524 h 13.84784 v -11.08211 h -26.54371 v 66.075831 h 26.54371 V 95.817226 H 390.9642 V 79.926248 h 14.26724 V 68.633539 Z m 4.09106,-12.336977 v 8.468714 h 13.42953 V 83.79342 h -13.84893 v 8.049698 h 13.84893 v 18.610222 l -34.09836,-0.20842 V 37.060001 h 34.51667 v 19.236561 z"
         id="Fill-10"
         inkscape:connector-curvature="0"
         style="fill:#1a1919" />
      <path
         d="m 475.93689,47.926049 c -0.0697,-1.184126 -0.34641,-2.228686 -0.83443,-3.133682 -0.4183,-0.76652 -1.1318,-1.479612 -2.13943,-2.142548 -1.00871,-0.660756 -2.41939,-0.992224 -4.22767,-0.992224 h -14.29738 c -1.11547,0.06978 -2.15795,0.347824 -3.13181,0.836303 -0.8366,0.417606 -1.68736,1.045651 -2.55773,1.879773 -0.87037,0.836303 -1.54902,1.950646 -2.03595,3.34412 -0.55773,-1.322601 -1.21677,-2.472926 -1.98257,-3.447704 -0.76688,-0.835212 -1.70479,-1.601732 -2.81699,-2.29847 -1.11547,-0.696737 -2.57734,-1.010759 -4.38562,-0.939886 l -19.51634,0.208258 v 65.398441 h 11.58497 V 58.164488 c -0.0697,-0.975868 0.10457,-1.845972 0.52178,-2.612491 0.34859,-0.695647 0.92266,-1.322602 1.72331,-1.879774 0.79957,-0.557171 1.99891,-0.836302 3.59913,-0.836302 0.8366,0 1.63617,0.209348 2.40196,0.626954 0.55556,0.348914 1.09586,0.957332 1.61765,1.828526 0.5207,0.871195 0.78213,2.141459 0.78213,3.812974 v 47.534055 h 12.31699 V 58.164488 c 0,-0.835212 0.20807,-1.636623 0.62528,-2.403143 0.34749,-0.626955 0.90414,-1.201572 1.67102,-1.722762 0.76362,-0.52228 1.91177,-0.783966 3.44445,-0.783966 0.83333,-0.06978 1.63398,0.03489 2.39978,0.312932 0.62527,0.279131 1.19934,0.76652 1.72113,1.463257 0.5207,0.695647 0.78322,1.811081 0.78322,3.34194 v 48.265684 h 12.73312 z m -0.20806,-7.886542 c 1.39106,1.148145 2.36492,2.349717 2.92265,3.602535 0.69608,1.463257 1.00872,3.06608 0.939,4.806288 v 62.36834 H 459.75824 V 58.372746 c -0.0697,-0.765429 -0.3464,-1.252818 -0.83333,-1.462166 -0.27887,-0.06978 -0.55774,-0.104674 -0.8366,-0.104674 -0.41722,0 -0.74619,0.104674 -0.99129,0.314022 -0.24292,0.208258 -0.43355,0.417606 -0.57189,0.625864 -0.21133,0.279131 -0.31482,0.558262 -0.31482,0.836303 V 110.60732 H 436.5894 V 58.685679 c 0,-0.76543 -0.27887,-1.357493 -0.83442,-1.775099 -0.27887,-0.208258 -0.55665,-0.347824 -0.83552,-0.417607 -0.48801,0 -0.87037,0.104674 -1.14923,0.314023 -0.27887,0.208258 -0.48693,0.452497 -0.62528,0.730538 -0.20914,0.278041 -0.31263,0.626954 -0.31263,1.044561 V 110.29439 H 413.83668 V 37.479352 h 24.31808 c 1.5305,-0.139565 2.87037,-0.01854 4.01743,0.36527 1.14923,0.383805 2.14052,0.853748 2.97603,1.41092 0.90414,0.626954 1.73856,1.358583 2.50436,2.193795 0.41721,-0.76652 0.939,-1.374938 1.56645,-1.828526 0.62527,-0.452498 1.25054,-0.817767 1.87799,-1.096898 0.69608,-0.279131 1.42593,-0.52228 2.19172,-0.731629 h 16.38671 c 2.6427,0.348914 4.66123,1.097989 6.05338,2.247223 z"
         id="Fill-11"
         inkscape:connector-curvature="0"
         style="fill:#1a1919" />
      <polygon
         id="Fill-12"
         points="13.08,0.72666669 13.08,5.1663218 4.8189899,5.1663218 4.8189899,10.55167 13.08,10.55167 13.08,15.134645 4.8189899,15.134645 4.8189899,24.706667 0.36333334,24.706667 0.36333334,0.72666669 "
         style="fill:#ffffff" />
      <polygon
         id="Stroke-13"
         points="13.08,0.72666669 13.08,5.1663218 4.8189899,5.1663218 4.8189899,10.55167 13.08,10.55167 13.08,15.134645 4.8189899,15.134645 4.8189899,24.706667 0.36333334,24.706667 0.36333334,0.72666669 " />
      <path
         d="M 23.637218,16.441895 V 9.4452851 l -5.134166,6.9966099 z m 4.33945,8.264772 h -4.33945 v -3.733914 h -8.406395 l -2.490542,3.733914 H 7.6300002 L 24.441704,0.72666669 h 3.534964 z"
         id="Fill-14"
         inkscape:connector-curvature="0"
         style="fill:#ffffff" />
      <path
         d="M 23.637218,16.441895 V 9.4452851 l -5.134166,6.9966099 z m 4.33945,8.264772 h -4.33945 v -3.733914 h -8.406395 l -2.490542,3.733914 H 7.6300002 L 24.441704,0.72666669 h 3.534964 z"
         id="Stroke-15"
         inkscape:connector-curvature="0" />
      <polygon
         id="Fill-16"
         points="34.459445,0.72666669 41.551222,16.845796 48.692902,0.72666669 53.773335,0.72666669 53.773335,24.706667 49.297173,24.706667 49.297173,12.616777 43.764351,24.706667 39.238285,24.706667 33.906163,12.616777 33.906163,24.706667 29.430001,24.706667 29.430001,0.72666669 "
         style="fill:#ffffff" />
      <polygon
         id="Stroke-17"
         points="34.459445,0.72666669 41.551222,16.845796 48.692902,0.72666669 53.773335,0.72666669 53.773335,24.706667 49.297173,24.706667 49.297173,12.616777 43.764351,24.706667 39.238285,24.706667 33.906163,12.616777 33.906163,24.706667 29.430001,24.706667 29.430001,0.72666669 " />
      <polygon
         id="Fill-18"
         points="143.09698,0.72666669 150.18735,16.845796 157.3298,0.72666669 162.41001,0.72666669 162.41001,24.706667 157.93296,24.706667 157.93296,12.616777 152.40038,24.706667 147.87452,24.706667 142.54372,12.616777 142.54372,24.706667 138.06667,24.706667 138.06667,0.72666669 "
         style="fill:#ffffff" />
      <polygon
         id="Stroke-19"
         points="143.09698,0.72666669 150.18735,16.845796 157.3298,0.72666669 162.41001,0.72666669 162.41001,24.706667 157.93296,24.706667 157.93296,12.616777 152.40038,24.706667 147.87452,24.706667 142.54372,12.616777 142.54372,24.706667 138.06667,24.706667 138.06667,0.72666669 " />
      <polygon
         id="Fill-20"
         points="60.313335,24.706667 60.313335,0.72666669 55.590002,0.72666669 55.590002,24.706667 "
         style="fill:#ffffff" />
      <polygon
         id="Stroke-21"
         points="55.590002,0.72666669 55.590002,24.706667 60.313335,24.706667 60.313335,0.72666669 " />
      <polygon
         id="Fill-22"
         points="66.13572,0.72666669 66.13572,20.334329 72.303336,20.334329 72.303336,24.706667 61.403335,24.706667 61.403335,0.72666669 "
         style="fill:#ffffff" />
      <polygon
         id="Stroke-23"
         points="66.13572,0.72666669 66.13572,20.334329 72.303336,20.334329 72.303336,24.706667 61.403335,24.706667 61.403335,0.72666669 " />
      <polygon
         id="Fill-24"
         points="72.038732,0.72666669 76.940057,10.55167 81.699346,0.72666669 86.836669,0.72666669 79.107741,15.979363 79.107741,24.706667 74.583357,24.706667 74.583357,15.979363 66.853335,0.72666669 "
         style="fill:#ffffff" />
      <polygon
         id="Stroke-25"
         points="72.038732,0.72666669 76.940057,10.55167 81.699346,0.72666669 86.836669,0.72666669 79.107741,15.979363 79.107741,24.706667 74.583357,24.706667 74.583357,15.979363 66.853335,0.72666669 " />
      <path
         d="m 112.22611,7.2501289 c -2.05847,-3.8776128 -6.16775,-6.52346221 -10.90356,-6.52346221 -6.796491,0 -12.305881,5.45014591 -12.305881,12.17220931 0,6.723149 5.50939,12.171125 12.305881,12.171125 4.76873,0 8.90544,-2.682748 10.94745,-6.605942 l -5.57632,0.04558 c -1.37488,1.254554 -3.21171,2.020743 -5.22959,2.020743 -4.260693,0 -7.714897,-3.417465 -7.714897,-7.631507 0,-4.2140412 3.454204,-7.630421 7.714897,-7.630421 1.98935,0 3.80314,0.743399 5.17144,1.9664804 z"
         id="Fill-26"
         inkscape:connector-curvature="0"
         style="fill:#ffffff" />
      <path
         d="m 112.22611,7.2501289 c -2.05847,-3.8776128 -6.16775,-6.52346221 -10.90356,-6.52346221 -6.796491,0 -12.305881,5.45014591 -12.305881,12.17220931 0,6.723149 5.50939,12.171125 12.305881,12.171125 4.76873,0 8.90544,-2.682748 10.94745,-6.605942 l -5.57632,0.04558 c -1.37488,1.254554 -3.21171,2.020743 -5.22959,2.020743 -4.260693,0 -7.714897,-3.417465 -7.714897,-7.631507 0,-4.2140412 3.454204,-7.630421 7.714897,-7.630421 1.98935,0 3.80314,0.743399 5.17144,1.9664804 z"
         id="Stroke-27"
         inkscape:connector-curvature="0" />
      <path
         d="m 132.1241,13.08 c 0,-4.3161058 -3.50087,-7.8158883 -7.81698,-7.8158883 -4.31611,0 -7.81479,3.4997825 -7.81479,7.8158883 0,4.316107 3.49868,7.815889 7.81479,7.815889 4.31611,0 7.81698,-3.499782 7.81698,-7.815889 M 124.26,25.433334 c -6.82205,0 -12.35333,-5.530182 -12.35333,-12.353334 0,-6.8220553 5.53128,-12.35333331 12.35333,-12.35333331 6.82315,0 12.35334,5.53127801 12.35334,12.35333331 0,6.823152 -5.53019,12.353334 -12.35334,12.353334"
         id="Fill-28"
         inkscape:connector-curvature="0"
         style="fill:#ffffff" />
      <path
         d="m 132.1241,13.08 c 0,-4.3161058 -3.50087,-7.8158883 -7.81698,-7.8158883 -4.31611,0 -7.81479,3.4997825 -7.81479,7.8158883 0,4.316107 3.49868,7.815889 7.81479,7.815889 4.31611,0 7.81698,-3.499782 7.81698,-7.815889 z M 124.26,25.433334 c -6.82205,0 -12.35333,-5.530182 -12.35333,-12.353334 0,-6.8220553 5.53128,-12.35333331 12.35333,-12.35333331 6.82315,0 12.35334,5.53127801 12.35334,12.35333331 0,6.823152 -5.53019,12.353334 -12.35334,12.353334 z"
         id="Stroke-29"
         inkscape:connector-curvature="0" />
      <path
         d="m 168.36116,5.3422142 v 6.5036768 l 3.50808,-0.0033 c 1.53404,-0.285554 2.69652,-1.631891 2.69652,-3.2485814 0,-1.617776 -1.16248,-2.9630273 -2.69652,-3.2485811 z m 3.50808,-4.61229024 c 4.05999,0.32572674 7.2541,3.72197054 7.2541,7.86412864 0,4.1421584 -3.19411,7.5384024 -7.2541,7.8641284 l -3.50808,-0.01629 v 8.264772 h -4.49782 V 0.72666669 h 4.49782 z"
         id="Fill-30"
         inkscape:connector-curvature="0"
         style="fill:#ffffff" />
      <path
         d="m 168.36116,5.3422142 v 6.5036768 l 3.50808,-0.0033 c 1.53404,-0.285554 2.69652,-1.631891 2.69652,-3.2485814 0,-1.617776 -1.16248,-2.9630273 -2.69652,-3.2485811 z m 3.50808,-4.61229024 c 4.05999,0.32572674 7.2541,3.72197054 7.2541,7.86412864 0,4.1421584 -3.19411,7.5384024 -7.2541,7.8641284 l -3.50808,-0.01629 v 8.264772 h -4.49782 V 0.72666669 h 4.49782 z"
         id="Stroke-31"
         inkscape:connector-curvature="0" />
      <path
         d="m 233.90704,12.320997 c 1.54102,-0.288509 2.70687,-1.648778 2.70687,-3.281101 0,-1.634517 -1.16585,-2.9947862 -2.70687,-3.2832949 h -5.26107 v 6.5687839 z m -5.26107,13.112337 h -4.4693 V 1.099873 l 6.2099,-0.00987 3.52047,0.00329 c 4.07558,0.3290974 7.28195,3.7615832 7.28195,7.946605 0,3.418225 -2.14085,6.335125 -5.14764,7.46722 l 5.21199,8.926218 h -4.89245 L 229.05712,12.88156 h -0.41115 z"
         id="Fill-32"
         inkscape:connector-curvature="0"
         style="fill:#ffffff" />
      <path
         d="m 233.90704,12.320997 c 1.54102,-0.288509 2.70687,-1.648778 2.70687,-3.281101 0,-1.634517 -1.16585,-2.9947862 -2.70687,-3.2832949 h -5.26107 v 6.5687839 z m -5.26107,13.112337 h -4.4693 V 1.099873 l 6.2099,-0.00987 3.52047,0.00329 c 4.07558,0.3290974 7.28195,3.7615832 7.28195,7.946605 0,3.418225 -2.14085,6.335125 -5.14764,7.46722 l 5.21199,8.926218 h -4.89245 L 229.05712,12.88156 h -0.41115 z"
         id="Stroke-33"
         inkscape:connector-curvature="0" />
      <path
         d="m 185.15801,14.705414 0.002,3.496187 c 0.28465,1.530393 1.62056,2.688207 3.22602,2.688207 1.60654,0 2.94353,-1.157814 3.2271,-2.688207 l 0.003,-3.496187 L 191.62837,1.09 h 4.57164 v 13.615414 l -0.003,3.496187 c -0.32346,4.048557 -3.69612,7.231733 -7.81059,7.231733 -4.11231,0 -7.48497,-3.183176 -7.80951,-7.231733 l 0.0162,-3.496187 L 180.5853,1.09 h 4.5878 z"
         id="Fill-34"
         inkscape:connector-curvature="0"
         style="fill:#ffffff" />
      <path
         d="m 185.15801,14.705414 0.002,3.496187 c 0.28465,1.530393 1.62056,2.688207 3.22602,2.688207 1.60654,0 2.94353,-1.157814 3.2271,-2.688207 l 0.003,-3.496187 L 191.62837,1.09 h 4.57164 v 13.615414 l -0.003,3.496187 c -0.32346,4.048557 -3.69612,7.231733 -7.81059,7.231733 -4.11231,0 -7.48497,-3.183176 -7.80951,-7.231733 l 0.0162,-3.496187 L 180.5853,1.09 h 4.5878 z"
         id="Stroke-35"
         inkscape:connector-curvature="0" />
      <polygon
         id="Fill-36"
         points="205.51518,25.433334 205.51518,5.6772842 209.64334,5.6772842 209.64334,1.09 196.92667,1.09 196.92667,5.6772842 200.91294,5.6772842 200.91294,25.433334 "
         style="fill:#ffffff" />
      <polygon
         id="Stroke-37"
         points="205.51518,25.433334 205.51518,5.6772842 209.64334,5.6772842 209.64334,1.09 196.92667,1.09 196.92667,5.6772842 200.91294,5.6772842 200.91294,25.433334 " />
      <polygon
         id="Fill-38"
         points="210.73334,25.433334 210.73334,1.09 223.08667,1.09 223.08667,5.5455918 215.1606,5.5455918 215.1606,11.325789 223.08667,11.325789 223.08667,15.871371 215.1606,15.871371 215.1606,20.93604 223.08667,20.93604 223.08667,25.433334 "
         style="fill:#ffffff" />
      <polygon
         id="Stroke-39"
         points="210.73334,25.433334 210.73334,1.09 223.08667,1.09 223.08667,5.5455918 215.1606,5.5455918 215.1606,11.325789 223.08667,11.325789 223.08667,15.871371 215.1606,15.871371 215.1606,20.93604 223.08667,20.93604 223.08667,25.433334 " />
      <g
         id="Group-13"
         transform="translate(244.16001)"
         style="fill:#ffffff;fill-rule:nonzero">
        <polygon
           id="polygon321"
           points="1.269198e-13,0.44376516 1.269198e-13,1.1036505e-14 3.0619233,1.1036505e-14 3.0619233,0.44376516 1.7874343,0.44376516 1.7874343,3.9005213 1.2851754,3.9005213 1.2851754,0.44376516 " />
        <polygon
           id="polygon323"
           points="4.0743153,0.73117199 4.0743153,3.9005213 3.5602452,3.9005213 3.5602452,1.1036505e-14 4.2711693,1.1036505e-14 5.3960493,3.3161462 6.5198044,1.1036505e-14 7.2307286,1.1036505e-14 7.2307286,3.9005213 6.7189082,3.9005213 6.7189082,0.73117199 5.6530844,3.9005213 5.1390142,3.9005213 " />
      </g>
      <g
         id="g330"
         transform="translate(269.23001,119.9)"
         style="fill:#ffffff;fill-rule:nonzero">
        <polygon
           id="polygon326"
           points="1.269198e-13,0.44376516 1.269198e-13,1.1036505e-14 3.0619233,1.1036505e-14 3.0619233,0.44376516 1.7874343,0.44376516 1.7874343,3.9005213 1.2851754,3.9005213 1.2851754,0.44376516 " />
        <polygon
           id="polygon328"
           points="4.0743153,0.73117199 4.0743153,3.9005213 3.5602452,3.9005213 3.5602452,1.1036505e-14 4.2711693,1.1036505e-14 5.3960493,3.3161462 6.5198044,1.1036505e-14 7.2307286,1.1036505e-14 7.2307286,3.9005213 6.7189082,3.9005213 6.7189082,0.73117199 5.6530844,3.9005213 5.1390142,3.9005213 " />
      </g>
    </g>
  </g>
</svg>
