<?xml version="1.0" encoding="UTF-8" standalone="no"?>
<svg
   xmlns:dc="http://purl.org/dc/elements/1.1/"
   xmlns:cc="http://creativecommons.org/ns#"
   xmlns:rdf="http://www.w3.org/1999/02/22-rdf-syntax-ns#"
   xmlns:svg="http://www.w3.org/2000/svg"
   xmlns="http://www.w3.org/2000/svg"
   xmlns:sodipodi="http://sodipodi.sourceforge.net/DTD/sodipodi-0.dtd"
   xmlns:inkscape="http://www.inkscape.org/namespaces/inkscape"
   width="500"
   height="200"
   viewBox="0 0 500 200"
   version="1.1"
   id="svg10"
   sodipodi:docname="finalfantasy.svg"
   inkscape:version="0.92.5 (2060ec1f9f, 2020-04-08)">
  <metadata
     id="metadata16">
    <rdf:RDF>
      <cc:Work
         rdf:about="">
        <dc:format>image/svg+xml</dc:format>
        <dc:type
           rdf:resource="http://purl.org/dc/dcmitype/StillImage" />
        <dc:title />
      </cc:Work>
    </rdf:RDF>
  </metadata>
  <defs
     id="defs14">
    <linearGradient
       id="a"
       gradientUnits="userSpaceOnUse"
       x1="233.709"
       y1="1067.822"
       x2="728.45001"
       y2="704.33899"
       gradientTransform="matrix(0.42918829,0,0,0.42918829,30.578649,-287.05784)">
      <stop
         offset="0"
         stop-color="#edeff3"
         id="stop4" />
      <stop
         offset=".115"
         stop-color="#c3c8d9"
         id="stop6" />
      <stop
         offset=".27"
         stop-color="#809cc7"
         id="stop8" />
      <stop
         offset=".601"
         stop-color="#4a7c75"
         id="stop10" />
      <stop
         offset=".888"
         stop-color="#284b39"
         id="stop12" />
      <stop
         offset="1"
         stop-color="#171212"
         id="stop14" />
    </linearGradient>
  </defs>
  <sodipodi:namedview
     pagecolor="#ffffff"
     bordercolor="#666666"
     borderopacity="1"
     objecttolerance="10"
     gridtolerance="10"
     guidetolerance="10"
     inkscape:pageopacity="0"
     inkscape:pageshadow="2"
     inkscape:window-width="1366"
     inkscape:window-height="743"
     id="namedview12"
     showgrid="false"
     units="px"
     inkscape:pagecheckerboard="true"
     inkscape:zoom="1.7331066"
     inkscape:cx="330.4498"
     inkscape:cy="81.773311"
     inkscape:window-x="0"
     inkscape:window-y="0"
     inkscape:window-maximized="1"
     inkscape:current-layer="svg10" />
  <path
     inkscape:connector-curvature="0"
     id="path2"
     style="stroke-width:0.42918828;fill:#ffffff"
     d="m 72.769325,32.48311 v 3.033115 c 1.824045,0.288843 2.735378,1.733579 2.735378,4.334029 v 90.567936 c 0,4.33393 -0.911333,6.35676 -2.735378,6.06664 v 3.03352 h 15.24113 v -3.03352 c -2.018043,0.21715 -3.061517,-1.80609 -3.126325,-6.06664 V 39.850254 c 0,-2.60045 0.912595,-4.045186 2.73664,-4.334029 l 0.195689,-3.033115 z m 104.183115,0 v 3.249797 c 2.29486,0.144203 3.50291,2.094973 3.62393,5.850378 l -4.2e-4,89.702445 c -0.12103,3.17687 -1.38859,4.91024 -3.80493,5.19952 v 3.03352 h 26.09445 V 95.750941 h -2.35532 c -2.5369,24.267169 -6.08616,36.581019 -10.64632,36.941979 l -0.0454,-91.109635 c 0,-3.755405 1.20848,-5.778217 3.62473,-6.06706 V 32.48311 Z m -75.61318,4.28e-4 v 2.816853 c 2.34466,0.576829 3.33211,2.166106 2.96172,4.766555 l 4.3e-4,91.868844 c 0.12361,3.03351 -0.86342,4.69396 -2.96172,4.98367 l -0.1856,2.38348 h 12.59141 v -2.601 c -2.22191,0.1442 -3.14773,-1.37302 -2.77821,-4.5503 V 71.267703 l 8.88853,68.035227 h 8.70291 V 44.400975 c 0,-5.634813 0.61749,-8.66669 2.22308,-9.100174 v -2.816852 h -11.29553 v 3.033114 c 1.48069,0.288845 2.22182,1.516608 2.22182,3.683152 v 53.734721 l -7.22227,-60.451407 z m 197.60738,0 v 2.816853 c 2.41162,0.577257 3.04658,2.166106 3.04658,4.766555 v 91.868414 c 0,3.03351 -0.88995,4.69395 -3.04658,4.98366 l -0.19019,2.38349 h 12.94364 v -2.601 c -2.28363,0.1442 -2.85498,-1.35801 -2.85498,-4.55031 V 71.267284 l 9.13671,68.035646 h 8.94605 V 44.400975 c -0.12709,-5.633096 0.63454,-8.66669 2.28433,-9.100174 v -2.816852 h -11.61175 v 3.033114 c 1.52279,0.288845 2.28444,1.516608 2.28444,3.683152 v 53.734721 l -7.42385,-60.451407 z m 43.59816,0.196107 -0.021,37.720929 h 2.57335 c 0.85837,-15.599709 2.82033,-24.771686 5.88558,-27.516776 v 88.618622 c 0.2451,3.61077 -1.10337,5.84931 -4.04632,6.71628 v 1.51676 h 17.10309 v -1.51676 c -2.69706,-0.86697 -4.04553,-3.03345 -4.04553,-6.50042 V 42.883788 c 2.81925,2.888863 4.53621,12.060839 5.1491,27.516776 h 3.12633 l 0.0379,-37.720929 z m -308.776751,0.01977 v 2.816851 c 2.244236,0 3.366544,1.155723 3.366544,3.466471 v 92.517633 c 0.125318,3.90046 -0.873052,5.41767 -2.992386,4.55029 l 0.18771,3.25021 h 15.709352 l -0.187281,-3.25021 c -1.745509,1.01159 -2.617811,-0.57639 -2.617811,-4.76614 V 85.134036 c 3.491018,0.866956 5.236443,7.150278 5.236443,18.850384 h 2.618656 V 59.565712 L 52.47062,59.349029 c -0.124462,12.13359 -1.869887,17.549807 -5.236443,16.250219 V 38.765624 c 3.739511,0.144212 6.545306,2.275305 8.414848,6.392082 1.870839,4.117197 3.242721,11.809035 4.115249,23.075654 h 2.617811 V 32.699402 Z m 194.137511,0 v 2.816851 c 2.23691,0 3.35605,1.155723 3.35605,3.466471 v 92.517633 c 0.12361,3.90046 -0.87026,5.41767 -2.98357,4.55029 l 0.18769,3.25021 h 15.65896 l -0.18639,-3.25021 c -1.74042,1.01159 -2.6103,-0.57639 -2.6103,-4.76614 V 85.134036 c 3.48036,0.866956 5.22049,7.150278 5.22049,18.850384 h 2.60939 V 59.565712 l -2.60939,-0.216683 c -0.124,12.13359 -1.86463,17.549807 -5.22049,16.250219 V 38.765624 c 3.72795,0.14464 6.52444,2.275305 8.38887,6.392082 1.86482,4.117197 3.23226,11.809035 4.10182,23.075654 h 2.6102 V 32.699402 Z m -79.60536,9.97e-4 c -3.49403,68.467558 -5.58318,103.099808 -6.2699,103.893368 -0.68627,0.79357 -1.5284,1.26423 -2.52626,1.40799 v 1.51677 h 12.16562 v -1.51677 c -1.62276,-1.73348 -2.05909,-7.94432 -1.31015,-18.63369 h 4.67835 c 0.49959,10.68937 4.3e-4,16.90021 -1.49661,18.63369 v 1.51677 h 14.41054 v -1.51677 c -0.99787,-0.14376 -1.74662,-0.61356 -2.24533,-1.40799 -0.49915,-0.79314 -3.05734,-35.42581 -7.67411,-103.893368 z m 122.25997,0 c -3.5167,68.467558 -5.62092,103.099368 -6.31098,103.893368 -0.69147,0.79357 -1.53746,1.26423 -2.54271,1.40799 v 1.51677 h 12.2433 v -1.51677 c -1.63212,-1.73348 -2.07219,-7.94432 -1.31893,-18.63369 h 4.70983 c 0.50217,10.68937 2.1e-4,16.90021 -1.50751,18.63369 v 1.51677 h 14.50417 v -1.51677 c -1.00474,-0.14376 -1.75791,-0.61356 -2.26047,-1.40799 -0.50217,-0.79314 -3.07682,-35.42581 -7.72235,-103.893368 z m 114.971,0 c -3.3983,68.467558 -5.42993,103.099368 -6.09854,103.893368 -0.6678,0.79357 -1.48614,1.26423 -2.45704,1.40799 v 1.51677 h 11.83138 v -1.51677 c -1.57811,-1.73348 -2.0015,-7.94432 -1.27401,-18.63369 h 4.55109 c 0.4841,10.68937 0,16.90021 -1.4575,18.63369 v 1.51677 h 14.01868 v -1.51677 c -0.97079,-0.14376 -1.69939,-0.61356 -2.1844,-1.40799 -0.4859,-0.79314 -2.97359,-35.42581 -7.46378,-103.893368 z m 42.38626,0.215425 c -6.03045,4.3e-4 -9.72236,3.756112 -11.07553,11.26656 l 0.1852,21.450546 c 0.98457,6.211651 4.92188,15.601034 11.81291,28.167666 1.10816,1.87683 1.84644,5.055806 2.21504,9.533511 1.10777,8.81039 1.10777,17.55094 0,26.21754 -0.24629,2.31075 -1.32272,2.88883 -3.23047,1.73303 -1.90596,-1.15582 -2.24459,-13.00031 -1.01413,-35.533961 l -9.96855,6.067061 v 20.7455 c 0.98418,11.15847 5.04547,16.9543 12.1837,17.38778 7.38291,0.14377 11.38261,-6.35653 11.9985,-19.50043 0.61458,-11.84345 -0.18479,-20.943369 -2.40074,-27.300498 -2.21505,-6.355428 -6.46063,-15.455786 -12.73708,-27.300097 l -0.18439,-21.666814 c 0,-3.46656 0.70683,-5.16367 2.12269,-5.091997 1.41596,0.07247 2.1228,1.914171 2.1228,5.525363 0.12229,7.511216 0.12229,15.600808 0,24.266978 l 9.22986,-6.93337 -0.55467,-13.867139 c -0.3682,-9.966624 -3.93611,-15.022192 -10.70435,-15.167233 v 0 z m 22.51006,1.300504 0.19777,2.383488 c 2.93307,0 3.9435,1.52137 4.35292,6.716267 l 4.33315,54.988607 v 32.161967 c 0,3.61119 -1.87022,5.44121 -3.72216,5.58499 v 3.03353 h 14.29291 v -2.81685 c -2.118,-0.28928 -3.11026,-2.23963 -2.97768,-5.84995 V 98.351111 l 9.13083,-58.284174 c 0.13248,-0.845884 0.36629,-1.519023 0.77982,-2.016891 v -3.833489 h -10.10963 v 2.600169 c 2.13817,0.05661 2.81097,2.707822 2.48002,6.825018 -0.33006,4.116778 -1.20852,13.97545 -2.94155,28.275576 -1.36784,-5.656697 -2.78211,-12.530804 -3.70878,-21.991834 -0.92618,-9.461028 -0.62477,-13.097168 2.58134,-13.10876 v -2.600169 z m -298.00953,40.733456 1.87118,35.100603 h -3.64955 z m 122.28517,0 1.88379,35.100603 h -3.67303 z m 114.83283,0 1.8191,35.100603 h -3.54954 z M 23.368223,149.05161 v 5.20034 H 477.72205 v -5.20034 z" />
  <path
     inkscape:connector-curvature="0"
     style="fill:url(#a);stroke-width:0.42918834"
     d="m 493.16427,-69.298438 c -2.07948,0.246784 -1.97904,1.020617 -4.38766,0.445505 -2.13129,-0.570818 -2.56397,0.712015 -3.46659,1.233914 -1.46088,0.84293 -2.56565,0.921041 -3.46697,1.733491 -0.53732,0.483701 -1.05277,1.8777 -1.73305,2.60003 -0.89142,0.9455 -1.35365,-0.482415 -2.6004,0.867387 -0.94164,1.019749 -2.05321,0.590986 -3.46658,0.866961 -1.1549,0.224888 -1.49703,2.726202 -2.60001,3.46655 -1.10388,0.741636 -2.92408,0.969969 -4.33394,1.733489 -3.24296,1.756242 -4.22962,3.804752 -9.04599,4.387591 -3.95546,0 -7.10827,3.699604 -9.15459,2.546378 -1.19363,-1.193571 3.04038,-4.997903 6.93357,-5.695763 3.68241,-0.656655 6.59312,-2.098296 6.12099,-2.917186 -0.72141,-1.24808 -9.30943,2.546369 -10.23871,1.679408 -0.95492,-0.89056 13.08642,-7.129675 11.99971,-8.612518 -0.77552,-1.057096 -6.29012,2.281566 -11.34767,4.279869 -2.68847,1.061808 -2.17562,0 -3.01773,0 -0.70125,0 -1.2163,2.003015 -3.45659,3.466979 -1.32621,0.86653 -2.10523,0.634772 -3.92543,1.733489 -0.80687,0.486278 -0.86737,-0.867388 -1.73344,-0.867388 -2.67688,0 -6.16663,4.402186 -7.80013,3.466979 -0.88883,-0.508581 3.46658,-3.466979 2.60001,-4.333509 -0.86777,-0.867818 -3.67983,1.024898 -5.84206,2.162252 -3.18933,1.676833 -7.00175,4.238237 -10.34564,6.283741 -1.95836,1.198292 -5.10048,0.507303 -8.2927,2.32706 -2.32756,1.326192 -3.44602,3.164838 -5.25763,4.486737 -1.06564,0.777686 -3.19402,0.33906 -4.0618,1.207308 -0.70254,0.702151 -1.26782,1.348934 -2.13697,2.217181 -1.31973,1.320621 -3.41117,1.071692 -4.74298,1.737793 -5.24674,2.184995 -4.38756,2.978566 -6.98757,4.712055 -2.60001,1.73349 -6.42749,2.243798 -11.26701,5.20005 -3.31253,2.023622 -6.44686,4.809056 -10.39924,6.933529 -6.45973,3.471282 -14.58344,6.620666 -16.46712,8.666172 -0.72271,0.784126 -2.38237,0.324035 -3.46659,0.867389 -3.46647,1.7334887 -7.05106,7.1623007 -9.53356,5.2000495 -2.19358,-1.73349 5.20011,-3.46698 7.80012,-6.0674385 3.8202,-3.820208 8.70135,-6.250268 13.00016,-9.53356 2.63345,-2.012031 4.00859,-5.319363 5.25452,-6.445974 3.41247,-3.087587 6.47134,-2.78801 9.47907,-4.821075 3.52617,-2.383288 5.66744,-5.599191 5.20002,-6.06658 -0.86738,-0.867389 -4.33356,5.20005 -6.0666,4.333519 -0.53262,-0.265672 1.73304,-1.73349 0.86658,-2.60003 -0.47213,-0.472959 -4.14815,2.512474 -8.66621,5.20005 -3.77766,2.245515 -8.20266,3.998753 -11.26661,6.06658 -4.33435,3.46698 -8.53232,3.385005 -13.00055,6.066999 -9.05764,5.433525 -16.46662,10.4000901 -17.33409,8.6666 -0.99397,-1.98757 6.06699,-6.067428 13.00015,-10.400089 5.67643,-3.549384 12.13358,-5.201756 11.26621,-6.934827 -0.5481,-1.096572 -4.88723,1.107742 -9.06445,3.466989 -3.06873,1.73349 -5.66915,2.126631 -9.13533,4.333939 -9.13911,5.818509 -18.67229,11.1412961 -19.06753,10.3996603 -0.91329,-1.7077323 5.20001,-3.0455153 5.20001,-5.6451053 0,-1.288425 3.46659,-4.754555 4.33356,-3.888454 0.88544,0.885419 -2.62836,2.626636 -1.73355,3.52107 0.83953,0.839913 4.67261,-2.633076 6.0675,-4.387601 1.8816,-3.069126 10.90311,-7.296631 9.53356,-8.6666 -0.48889,-0.487984 -14.73359,8.6666 -17.33409,8.6666 -4.35452,0 -20.34303,13.4619282 -21.66665,12.1335899 -2.13568,-2.1429436 5.20002,-5.2000499 10.40004,-8.6670299 5.64897,-3.765696 12.26146,-6.81208 11.75421,-7.691489 -0.29402,-0.507302 -12.47093,5.883313 -24.75425,12.025858 -10.40014,5.20005 -19.93371,13.00011941 -20.80069,12.13358827 -0.86697,-0.86653963 6.88464,-5.69962417 6.06699,-6.51851347 -0.56866,-0.5686816 -9.24984,5.79661548 -18.20057,10.8515943 -6.185,3.4935951 -12.75036,5.7185039 -15.60015,6.5541359 -1.20472,0.352798 -2.51635,0.362232 -18.68768,0.378974 -23.78005,0.02537 -48.91375,2.60045 -66.24738,19.933649 h 2.60045 c 15.60057,-13.867069 36.29256,-16.467098 50.26782,-16.467098 7.6919,0 13.69629,0.752796 20.80058,3.033074 8.09973,2.600019 11.75888,4.779445 11.2667,5.633525 -0.6078,1.052373 -4.76403,-0.859233 -8.61259,-0.893994 -4.25318,-0.03774 -4.38756,0.003 -4.38756,0.406009 0,0.487985 3.46697,1.354086 -1.73355,1.354086 -4.27554,0 -11.26659,-0.865242 -11.26659,-1.73349 0,-2.600019 13.86711,0.435631 13.86711,-2.600019 0,-0.867389 -12.56666,-0.867389 -18.19978,-0.867389 -6.60779,0 -19.06752,-0.866959 -19.06752,1.78757 0,0.812879 1.69011,0.338192 4.03693,0.812879 1.67125,0.337772 3.86234,1.609025 5.16698,1.733488 3.53527,0.337344 6.63834,-1.388418 8.99626,0.866961 3.05795,2.924924 -6.06699,1.733489 -14.73359,1.733489 -2.02107,0 -1.21201,1.760965 0.3588,1.760965 0.84461,0 7.45072,-0.671252 9.17476,1.706454 2.28153,3.148096 5.20003,2.034783 5.20003,3.466979 0,0.86696 -4.07518,1.508601 -1.30006,2.762692 3.0336,1.370828 3.47008,1.894435 0.43398,2.438216 -6.99925,1.251945 -13.86751,10.399661 -18.20019,12.133581 V 64.11905 c 0.59014,0 0.86696,0.255367 0.86696,0.812448 0,0.92104 -0.86696,0.979415 -0.86696,1.787571 0,2.60002 3.90687,-1.798732 3.90687,1.73349 0,2.675995 -3.90687,0.657515 -3.90687,2.65453 0,0.812889 0.86696,0.93306 0.86696,1.733488 0,0.81289 -0.49744,0.81289 -0.92102,0.785415 l 0.0541,3.494453 c 1.73343,-1.733483 3.46656,-5.200039 4.33343,-4.333937 0.95374,0.953226 -2.46562,5.294896 -4.33343,6.933103 v 2.600462 c 6.06657,0 18.30188,-16.099291 28.60069,-12.133596 3.46648,1.335207 -2.6001,2.60046 -4.33355,3.466561 -4.43178,2.215899 -9.86143,7.179463 -13.86752,10.819411 -3.44252,3.127062 -5.19961,8.248141 -10.39962,10.847294 v 2.600446 c 0.36481,0.866974 1.73343,-0.866953 1.73343,0.866974 0,0.861812 -1.73343,2.600877 0,2.600877 2.6,0 1.73184,-1.29658 4.95461,-1.733478 l 0.57036,-5.200065 h 5.74163 v 3.466551 c 0.56149,0.06964 1.31204,0.07993 1.73355,0 0.41291,0.682423 -1.36186,2.019774 -1.73355,3.466992 1.73355,-0.86738 3.74902,-3.466992 6.93356,-3.466992 3.46619,0 14.50577,-8.825392 18.19977,-9.533546 V 39.853599 c 0,-2.139501 -2.3588,-2.60045 -3.46697,-2.60045 v -6.068726 h 4.82105 c 3.40987,0 -8.35712,-2.848949 0.37897,-2.848949 2.60051,0 5.46059,1.530914 6.93356,2.848949 h 19.93361 V 70.18519 h -6.0683 l -1.07762,-8.666601 -0.0579,44.200831 h -6.15075 c 0,0 -0.0809,-3.48029 -0.0809,-5.52538 0,-0.351939 0.0988,-1.40817 -0.4875,-0.568682 -1.02881,1.454522 -0.6661,2.906462 -1.00175,4.360552 l -0.10812,29.46722 c 0,1.07683 1.1549,0.87511 2.4918,1.191 l 0.18928,6.39234 -18.8503,-0.0807 -0.10823,-0.56825 c -2.16393,0 -2.4824,1.46997 -4.22494,2.81678 -1.66055,1.28283 -4.01327,1.51674 -4.33393,4.27942 l 61.53445,-0.16265 c 0,-1.93651 2.60001,-2.2511 3.46699,-6.06702 l -23.40019,-0.0541 v -5.14596 c 3.54555,-0.49014 3.28288,-3.88201 3.46659,-7.20392 l 5.3867,-97.664384 h 13.1434 l 6.87867,97.935624 c 0.99954,1.3468 3.19232,-2.60088 3.19232,0 0,1.73306 -3.46697,2.60002 -3.46697,4.27943 0,1.90346 1.56482,2.3425 2.6,2.65411 v 5.14597 l -6.93356,0.0541 c 0.86738,3.076 -1.99141,4.0833 -2.60001,6.067 h 3.46699 c 2.60001,-2.27942 4.25498,-6.52879 5.20002,-5.1996 0.86656,1.21888 -0.86737,4.69058 -2.60042,5.1996 h 15.60096 c 1.73265,-1.23733 2.60001,-4.72106 4.33355,-6.067 h -4.33355 c -1.66784,0.80087 -1.73344,4.33352 -3.46697,4.33352 -2.26737,0 1.37982,-2.40816 1.73353,-4.38759 l -4.5443,0.0541 0.45925,-6.06656 c 1.57509,0.0601 2.70214,-0.8674 3.21759,-2.22106 0,-0.36095 -0.14457,-0.37983 -0.86697,-0.37983 -2.11711,0 -5.78456,7.58205 -6.93306,6.93353 -1.32321,-0.74636 4.63226,-7.17044 7.36653,-10.45417 V 39.85274 c 0,-1.248939 -0.96729,-2.500884 -3.03298,-2.600449 v -6.067439 h 16.46702 l 4.33356,32.067237 V 39.85231 c 0,-1.877701 -0.86699,-2.600449 -2.13908,-2.600449 l -0.028,-6.066579 15.22118,0.05411 -0.054,6.0125 c -2.33394,1.527909 -2.60051,2.595726 -2.60051,5.20004 V 57.18554 c 1.98842,-0.384555 8.96232,-6.067009 12.13358,-9.533558 v -3.466979 c -1.73344,0 -4.33395,4.333509 -4.33395,1.303867 0,-1.788429 3.46657,-1.303867 4.33395,-3.903898 V 31.184887 h 15.60057 c 6.93315,-6.06701 21.87191,-15.32116 37.26731,-26.8671883 3.46657,-2.6004489 3.34557,-3.5429532 5.20001,-5.20004977 2.65411,-2.37383263 5.19962,-3.46655033 4.33355,-4.33393823 -2.01338,-2.012031 -15.71178,11.0451645 -16.46713,9.533988 -1.73304,-3.466979 10.40014,-7.4077865 19.06714,-14.3460487 2.95282,-2.362252 7.23995,-2.941655 9.53397,-5.588459 3.00304,-3.46656 5.19961,-2.031349 6.93316,-4.333519 1.68322,-2.457106 3.71457,-2.683282 6.06739,-3.46655 2.60001,-0.86739 0.86567,0.92104 3.08591,0.92104 1.12315,0 2.97978,-0.626617 2.97978,-1.280697 0,-0.901732 -1.72955,-0.506874 -1.73305,-1.373403 -0.01,-1.652374 2.84122,-1.181991 5.20012,-2.600461 1.72576,-1.037777 2.70515,-2.859681 3.77897,-3.466549 1.71887,-0.972116 5.19832,-2.213758 4.02107,-3.466551 -1.17297,-1.247222 -4.71333,2.600021 -6.06699,3.466551 -3.00435,1.922337 -3.9396,0.04811 -7.80053,3.466549 -1.38931,1.23049 -3.46618,0 -4.82025,1.733501 -1.42355,1.822333 -3.33989,2.374691 -3.84595,1.218888 -1.02831,-2.346368 5.20002,-3.470413 7.80014,-4.685449 3.72234,-1.740358 7.34636,-3.724065 6.93354,-4.333509 -0.86018,-1.267828 -3.8125,1.769969 -4.33395,0.867389 -0.53781,-0.930055 2.91929,-4.28545 5.25324,-4.279869 2.11891,0.0059 3.41337,-2.654529 4.28024,-1.78757 0.70823,0.708591 -2.64295,2.941656 -1.73304,3.46655 1.06145,0.612889 5.25283,-2.599161 5.25283,-4.278999 0,-0.646364 -0.86697,-0.828763 -0.86697,-1.300015 0,-1.178975 2.69275,-1.881555 6.01388,-3.087146 4.38586,-1.594011 3.82358,-3.466561 7.80002,-3.466561 1.4605,0 1.20861,-2.227054 2.60092,-2.600449 1.76049,-0.472111 4.64163,-0.766535 6.06658,-1.733489 2.2481,-1.52706 4.0592,-4.675156 6.93347,-5.687605 0.93436,-0.150652 0.48839,0.487985 1.73354,0.487985 1.55702,0 1.59866,-2.122338 2.60001,-2.600449 0.86736,-0.413738 0.96141,0.008 1.73343,0 1.18075,-0.01119 0.5442,-0.827904 1.73314,-2.017192 1.23946,-1.239924 2.71842,-2.485859 4.38667,-3.129207 1.79743,-0.691858 5.17905,-0.936914 6.88034,-1.78757 1.73354,-0.866959 2.60001,-2.484142 3.5198,-2.54595 0.81375,-0.05411 0.303,0.81289 1.28149,0.81289 0.89152,0 0.69445,-0.790567 1.7516,-0.81289 1.43213,-0.03044 2.54809,-1.353655 2.11372,-2.6541 -0.13608,-0.407298 -2.80298,-0.0571 -5.20002,0.866969 -1.50522,0.578116 -3.04259,1.639495 -4.28074,1.785844 z M 337.97444,-45.95145 c 0,4.384165 2.60091,6.933109 6.06698,6.933109 3.54765,0 6.06749,-2.60002 6.06749,-6.933109 0,-4.33394 -1.73353,-6.93353 -6.06749,-6.93353 -4.16353,0 -6.06698,2.59959 -6.06698,6.93353 z m 6.06619,-6.067429 c 1.73344,0 0.84201,1.937782 0,2.139499 -1.34678,0.322748 -3.50482,2.091439 -3.98074,3.927071 -0.21853,0.838206 -1.21888,2.600029 -1.21888,0 0,-3.466121 1.73344,-6.06657 5.19962,-6.06657 z m 15.60096,83.202013 4.41461,-0.02745 c 7.79024,-5.741257 24.2393,-15.710867 23.31913,-17.305736 -0.81845,-1.418039 -19.095,10.426706 -27.73374,17.3332 z m 8.72021,-0.02745 1.67943,0.02705 c 0.37727,-0.871681 0.86746,-1.733489 0,-1.733489 -0.63696,4.28e-4 -0.83692,0.247212 -1.67943,1.706455 z m -222.08689,7.827105 c -7.6374,7.800069 -15.07394,21.667138 -16.46709,26.000658 v 1.73349 c 3.62921,-2.324486 5.9348,-10.40009 16.08725,-24.267169 z m 96.73263,1.733489 -0.0829,32.067238 c 1.44811,-3.46699 2.31548,-9.964897 2.31548,-15.246912 l 5.44852,0.171667 c -0.83861,-6.799199 -2.8493,-15.023729 -7.68112,-16.99199 z m 97.56691,10.40052 c -4.68117,1.78757 -8.07169,6.626236 -12.13359,9.533558 v 3.46699 l 12.1873,-10.40009 z m 7.82758,3.494024 -0.37947,2.572985 h 1.21899 v -3.466979 z m -202.80438,-0.86653 c -5.04984,-0.005 -8.69364,7.891917 -8.69364,12.106543 0,2.600021 -4.71849,2.269116 -5.20003,6.5816 -0.0992,0.887996 0,2.951959 -1.73351,3.845956 v 23.427247 c 0.50087,0.936482 1.03264,2.464822 1.76053,1.272972 1.82233,-2.984141 2.71935,0.47254 3.43995,-1.327055 1.73349,-4.333938 5.55413,-4.244239 6.12109,-6.906922 1.38326,-6.504775 1.10473,-11.423701 3.1687,-19.960687 z m 33.17797,2.572125 c -1.47769,0 -2.13649,1.525334 -3.27728,2.843798 -0.94207,1.087995 -2.19359,1.237359 -2.19359,2.356252 0,1.404303 -1.97683,2.188858 -1.97683,3.46698 0,0.416742 1.97683,-1.435631 2.84381,-2.302172 1.7395,-1.739499 3.03221,-3.880287 4.60431,-4.577287 v -1.787571 z m 149.66524,13.00054 v 4.333518 c 4.30091,-2.512903 7.51341,-6.67774 12.1877,-9.506093 l -0.0539,-4.360556 c -4.94165,2.60003 -8.07089,6.662298 -12.13359,9.533131 z M 177.99022,61.273534 c -1.92063,-0.08715 -4.33738,2.922778 -5.95843,4.306055 -1.71718,1.465673 -1.14336,3.737364 -0.46052,3.737364 0.86739,0 0.83906,-1.733491 2.60046,-1.733491 2.60002,0 -0.73564,3.281147 -2.95196,6.662298 -1.96183,2.993145 -3.79661,5.945109 -3.11505,6.337818 0.5545,0.319744 2.64036,-3.119765 5.20003,-6.607782 1.73821,-2.369979 3.68331,-5.525374 5.47087,-6.338253 -0.15751,-1.081985 -0.86439,-1.105156 -1.08325,-1.760535 l 1.08325,-1.760525 v -2.600459 a 1.631774,1.631774 0 0 0 -0.7854,-0.24249 z m 150.45064,14.110428 v 2.60045 l 12.13359,-10.821555 v -1.312455 c -4.28504,2.69702 -7.74163,6.96401 -12.13359,9.53356 z m -149.66524,-5.20005 c -2.66524,1.389717 -3.05968,3.943383 -4.60433,6.364865 -1.15795,1.814604 -2.47986,1.414179 -2.08542,4.36013 0.34893,2.613762 3.42964,-4.658418 6.68975,-3.73737 z m 0,13.866226 c -3.72579,3.006461 -2.61289,3.839077 -3.73737,6.338249 -0.93433,2.074695 -2.56097,3.748961 -2.57299,4.928791 -0.027,2.600456 4.48889,-2.212023 6.31078,-3.466545 z m 25.72944,23.401062 c 0.0359,10.06704 0.0629,20.26756 0,30.33417 4.33345,-2.60002 9.8172,-4.75325 14.73359,-8.66661 3.62024,-2.88285 6.3129,-6.22752 10.39965,-9.53355 v -1.73349 c -1.67164,-0.48584 -0.9717,-1.73306 -2.60002,-1.73306 -0.86736,0 -2.6005,1.68198 -2.6005,0 0,-0.60731 0.88892,-1.21805 1.73353,-2.17986 1.05406,-1.20085 2.20987,-2.73393 3.46699,-3.01976 v -4.33394 c -1.53217,0 -4.6661,7.46787 -5.52539,6.82494 -0.63305,-0.47383 1.76999,-3.36183 1.24036,-3.93822 -1.29057,-1.40774 -10.44897,12.71297 -12.1821,11.84688 -2.79569,-1.39744 12.15634,-12.13744 12.13358,-16.46709 -0.01,-1.64466 0.86656,-1.48714 0.86656,-3.03266 0,-1.30515 -1.89357,-3.033493 -3.46608,-3.033493 -1.60823,0 -1.73353,-0.866953 -3.46698,-0.866953 -2.59961,-8.7e-4 -9.53316,6.932246 -14.73319,9.532696 z m 106.1181,-10.40054 -0.0799,15.60058 c 1.02921,0.18799 1.63172,-0.29914 2.18371,-0.86696 z m -83.58397,6.93398 c 0,0.86697 1.76049,-0.28068 2.62706,-0.8674 l -0.0269,-4.333501 c -0.95582,1.678551 -2.60001,3.337361 -2.60001,5.200901 z m -29.98184,4.33267 c -2.08506,0 -4.1151,3.46697 -5.55243,3.46697 v 17.33363 c 2.60001,-1.73349 4.8541,-16.82375 5.55243,-20.8006 z m 113.45161,7.80049 0.031,5.20004 c 2.02366,0 1.56743,-2.60045 2.99526,-2.60045 l -0.83081,-5.20005 c -0.73051,4.2e-4 -1.47128,1.89573 -2.1958,2.60046 z m 0,7.80051 0.0409,6.06698 c 2.28972,0 2.28972,-3.78845 4.02276,-4.3335 l -0.86696,-5.20004 c -1.3974,1.15537 -2.09226,2.60001 -3.19614,3.46656 z m -36.38657,-2.60047 c -0.22313,4.33996 -0.18588,8.53914 0.0868,13.00012 h 1.07503 c 0.86658,-4.16313 0.56567,-8.66617 0.42111,-13.00012 z m -44.48409,1.73348 c -13.41686,10.71685 -20.04014,14.97654 -34.6668,24.26719 h 7.80002 c 0.86698,-3.46657 6.06699,-3.46657 8.667,-5.20005 2.83822,-1.89187 2.60011,0.86739 0,1.73348 -1.99571,0.66569 -3.00293,2.56525 -3.41247,3.41247 2.57387,0.17598 5.8834,0.17168 8.6121,0.0541 -0.60811,-2.60003 1.21888,-3.16871 2.08546,-4.03481 2.3022,-2.30216 3.59446,-4.63137 7.96276,-5.49876 l -0.13477,-3.14166 c 1.92661,-0.72533 3.09398,0.13864 3.0871,-1.19099 -0.018,-3.29274 -4e-4,-10.40096 -4e-4,-10.40096 z m 80.87235,10.40053 c 1.46268,0 3.19623,-1.0734 3.19623,-2.60045 0,-2.20431 -2.42021,0.72318 -3.19623,0.86696 z m -189.18016,7.80007 c 0,2.15196 1.25194,4.36055 1.70645,6.06702 h 0.86739 c 0,-1.7335 -0.57038,-4.13095 -0.86739,-6.06702 z m 5.173,14.73359 c -0.012,4.04081 2.87341,7.93271 5.20006,10.37351 -0.69571,-3.58372 -3.07256,-6.74771 -3.46699,-10.37351 z m 23.42768,0 v 0.86698 c 0,0.80773 0.83991,0.68457 0.83991,1.24593 0,0.53991 -0.58412,0.49099 -0.86695,0.48756 -2.10045,-0.027 -2.88801,-1.70645 -5.17345,-1.70645 -1.19915,0 -2.62747,0.44164 -2.60002,1.29958 0.0185,0.58884 1.7335,-0.088 1.7335,0.86696 0,0.95494 -3.11291,0.19484 -4.33352,1.7335 0,1.27295 2.57257,1.27126 2.57257,2.13949 0,0.86698 -1.73349,1.39271 -1.73349,2.05839 0,1.41846 0.049,1.39571 0.027,2.24722 -0.0227,0.88201 4.82366,3.95112 5.17301,4.87516 0.57211,1.5146 2.60045,3.60689 2.60045,4.27943 0,0.42277 -0.86739,0.52234 -0.86739,0.86741 0,1.50986 1.488,1.27295 2.78972,1.27295 3.27729,0 3.27729,1.73307 4.14382,1.73307 3.46699,0 3.46699,0.86696 3.95411,0.86696 0.36224,0 0.47382,-0.0897 0.37941,-0.86696 -0.18198,-1.49358 -2.60775,-1.54679 -2.60002,-2.05837 0.008,-0.53135 0.12531,-1.62494 0.48756,-1.38114 1.24678,0.83906 4.7142,2.60001 9.6417,2.60001 1.13908,0 1.02791,-0.89357 2.00432,-0.89357 0.97039,0 0.91375,1.09702 2.00387,2.0039 0.85667,0.71374 4.06313,1.48626 4.06313,1.89614 0,0.86181 -2.57298,0.38454 -2.57298,1.3541 0,0.8133 6.06701,1.22491 6.06701,2.03048 0,0.51546 -3.49232,0.89572 -3.46699,1.84164 0.0339,1.27297 7.77302,-0.0497 7.77302,1.70646 0,2.19658 -8.6666,0.73434 -8.6666,3.03348 0,2.60047 6.99878,0.51246 6.96059,2.81678 -0.0253,1.51762 -4.32494,1.78028 -4.33352,2.84381 -0.0172,2.13995 30.75349,1.37984 30.25261,3.03308 -0.93176,3.07642 -6.87734,2.62705 -10.99625,2.62705 -3.26609,0 -9.66872,-1.78928 -9.66872,-0.027 0,1.70774 7.81119,2.4099 14.19196,6.09317 4.05671,2.34296 8.70484,3.41248 13.46018,3.41248 6.06699,0 11.54685,-1.79743 15.68173,-3.35797 5.09009,-1.92147 8.58544,-2.70861 10.31897,-6.17558 0.45236,-0.90301 1.76739,-2.54594 2.92487,-2.54594 1.41078,0 2.77134,1.6794 4.00819,1.6794 3.46697,0 11.57909,-8.30952 12.91948,-6.90694 1.43474,1.50132 -9.934,7.51037 -13.29806,9.50611 -0.69993,0.4146 -1.92273,1.73348 -0.48748,1.73348 3.94419,0 11.10946,-6.24381 14.81474,-10.1842 1.17806,-1.2528 -1.25023,-2.77642 1.65238,-2.81676 1.97685,-0.027 7.80044,-6.06658 10.40004,-8.66661 1.31592,-1.31632 5.49403,-5.72407 10.39965,-11.26617 6.16921,-6.9709 13.83965,-14.65765 13.83965,-18.14609 l -17.30623,-0.0545 c 0,0 -0.433,0.75535 -0.433,1.27295 0,1.23263 2.16653,-0.75838 2.16653,0.97469 0,0.8674 -4.33396,2.44252 -4.33396,5.55285 0,1.73306 2.39017,-1.67428 3.14173,-1.43565 1.80941,0.57642 -3.04778,4.28117 -3.14173,5.76831 -0.0839,1.32361 0.90302,0.55408 0.89404,1.97683 -0.01,1.488 -6.96062,3.84767 -6.96062,7.55586 0,2.60047 2.7872,-1.25881 3.46698,-0.86696 2.15495,1.24336 -2.59572,5.2275 -3.84596,5.2275 -1.05964,0 -2.21674,-4.33393 -3.89997,-4.33393 -1.42703,0 -3.22457,4.30604 -6.12109,4.30604 -4.33394,0 -5.97824,4.23095 -6.93356,3.46655 -3.37772,-2.70258 19.07353,-18.20143 22.69636,-29.44017 l -75.56423,-0.027 c -1.59226,0.86694 -5.21159,2.27424 -7.3945,2.73563 -5.33646,1.12747 0.46054,-1.69529 0.46054,-2.73563 h -43.30506 z m 36.45482,8.04387 c 0.57554,-0.049 0.78541,0.25149 0.78541,1.48972 0,1.5472 -2.58585,3.50774 -4.71249,3.49403 -1.30173,-0.01 -3.25453,-0.91762 -3.08758,-1.76054 0.34337,-1.73694 2.4378,-2.34039 4.06314,-2.57299 1.43477,-0.20515 2.37598,-0.60172 2.95152,-0.65022 z"
     id="path17" />
  <path
     d="m 13.42983,197.3982 c 1.556474,0 3.070241,-0.36523 4.541298,-1.09569 1.471057,-0.7305 2.681122,-1.71142 3.63019,-2.94278 v 0 l -2.704848,-2.94277 c -0.70231,0.89744 -1.50902,1.58617 -2.420127,2.06622 -0.911106,0.48001 -1.888648,0.72002 -2.932624,0.72002 -0.930089,0 -1.788997,-0.18261 -2.576724,-0.54785 -0.787729,-0.36525 -1.471058,-0.86093 -2.049992,-1.48704 -0.578933,-0.62612 -1.034485,-1.37225 -1.36666,-2.23837 -0.332175,-0.86615 -0.498261,-1.80011 -0.498261,-2.8019 0,-1.02267 0.161342,-1.96706 0.484026,-2.8332 0.322682,-0.86613 0.768747,-1.61748 1.338188,-2.25403 0.56944,-0.63656 1.248025,-1.13746 2.035754,-1.50269 0.787727,-0.36524 1.627652,-0.54784 2.51978,-0.54784 1.062958,0 2.068971,0.25565 3.018041,0.76698 0.94907,0.51133 1.774761,1.24703 2.477071,2.20707 v 0 l 2.790265,-3.03668 c -0.930089,-1.25223 -2.144897,-2.2488 -3.644427,-2.98972 -1.499532,-0.74092 -3.046514,-1.11136 -4.64095,-1.11136 -1.480549,0 -2.870937,0.2922 -4.171161,0.87658 -1.300226,0.58436 -2.424874,1.37745 -3.373942,2.37924 -0.949069,1.0018 -1.698835,2.19664 -2.249295,3.58454 -0.550461,1.3879 -0.82569,2.87492 -0.82569,4.46111 0,1.58615 0.270484,3.068 0.811452,4.44546 0.54097,1.37746 1.285991,2.56708 2.235061,3.56888 0.94907,1.00179 2.073716,1.79489 3.373942,2.37926 1.300226,0.58437 2.700103,0.87656 4.199633,0.87656 z m 53.954605,0.0313 c 1.480548,0 2.866189,-0.29218 4.156924,-0.87656 1.290735,-0.58438 2.405884,-1.38267 3.34547,-2.39491 0.939575,-1.01223 1.684599,-2.2123 2.23506,-3.60018 0.550473,-1.38791 0.82568,-2.86453 0.82568,-4.42982 0,-1.5653 -0.275207,-3.0419 -0.82568,-4.42979 -0.550461,-1.38791 -1.295485,-2.58797 -2.23506,-3.60019 -0.939586,-1.01223 -2.054735,-1.81053 -3.34547,-2.39492 -1.290735,-0.58438 -2.676376,-0.87656 -4.156924,-0.87656 -1.461571,0 -2.837724,0.29218 -4.128459,0.87656 -1.290735,0.58439 -2.405884,1.38269 -3.34547,2.39492 -0.939575,1.01222 -1.684592,2.21228 -2.235053,3.60019 -0.550461,1.38789 -0.825693,2.86449 -0.825693,4.42979 0,1.5653 0.275232,3.04192 0.825693,4.42982 0.550461,1.38789 1.295478,2.58795 2.235053,3.60018 0.939586,1.01224 2.054735,1.81053 3.34547,2.39491 1.290735,0.58439 2.666888,0.87657 4.128459,0.87657 z m 0,-4.1637 c -0.892122,0 -1.722563,-0.1826 -2.491302,-0.54785 -0.76875,-0.36523 -1.433095,-0.86611 -1.993056,-1.50268 -0.559949,-0.63656 -1.001266,-1.39312 -1.323949,-2.26968 -0.322684,-0.8766 -0.484032,-1.81577 -0.484032,-2.81756 0,-1.02265 0.161348,-1.96706 0.484032,-2.83318 0.322683,-0.86615 0.764,-1.61749 1.323949,-2.25404 0.559961,-0.63656 1.224306,-1.13746 1.993056,-1.5027 0.768739,-0.36523 1.59918,-0.54785 2.491302,-0.54785 0.892122,0 1.727302,0.18262 2.50554,0.54785 0.778239,0.36524 1.447333,0.86614 2.007294,1.5027 0.559938,0.63655 1.001255,1.38789 1.32395,2.25404 0.322672,0.86612 0.48402,1.81053 0.48402,2.83318 0,1.00179 -0.161348,1.94096 -0.48402,2.81756 -0.322695,0.87656 -0.764012,1.63312 -1.32395,2.26968 -0.559961,0.63657 -1.229055,1.13745 -2.007294,1.50268 -0.778238,0.36525 -1.613418,0.54785 -2.50554,0.54785 z m 62.581645,3.81933 v -4.00716 h -10.9048 v -17.90704 h -4.12847 v 21.9142 z m 52.04696,0 v -4.00716 h -10.90482 v -17.90704 h -4.12843 v 21.9142 z m 52.44558,0 V 193.1406 H 223.1552 v -5.1968 h 7.37429 v -3.81933 h -7.37429 v -5.00896 h 11.18954 v -3.94456 h -15.31797 v 21.91422 z m 45.78312,0.31307 c 1.55649,0 3.07025,-0.36524 4.5413,-1.09571 1.47105,-0.73047 2.68112,-1.71139 3.6302,-2.94277 v 0 l -2.70485,-2.94275 c -0.7023,0.89744 -1.50902,1.58616 -2.42014,2.06619 -0.91111,0.48001 -1.88865,0.72004 -2.93263,0.72004 -0.93006,0 -1.78899,-0.18262 -2.5767,-0.54785 -0.78775,-0.36526 -1.47107,-0.86093 -2.04999,-1.48704 -0.57894,-0.62612 -1.03451,-1.37224 -1.36666,-2.23838 -0.33219,-0.86613 -0.49828,-1.80011 -0.49828,-2.8019 0,-1.02265 0.16134,-1.96706 0.48404,-2.83318 0.32268,-0.86615 0.76873,-1.61749 1.33818,-2.25404 0.56945,-0.63656 1.24802,-1.13746 2.03576,-1.5027 0.78771,-0.36523 1.62764,-0.54785 2.51977,-0.54785 1.06297,0 2.06897,0.25567 3.01803,0.76701 0.94908,0.51133 1.77478,1.247 2.47709,2.20705 v 0 l 2.79025,-3.03667 c -0.93007,-1.25225 -2.14489,-2.24882 -3.64443,-2.98973 -1.49951,-0.7409 -3.0465,-1.11135 -4.64094,-1.11135 -1.48055,0 -2.87093,0.29218 -4.17115,0.87656 -1.30023,0.58439 -2.42488,1.37747 -3.37395,2.37926 -0.94906,1.0018 -1.69883,2.19664 -2.24929,3.58454 -0.55047,1.38789 -0.8257,2.87492 -0.8257,4.4611 0,1.58616 0.27049,3.06799 0.81145,4.44546 0.54099,1.37747 1.286,2.5671 2.23507,3.56889 0.94906,1.0018 2.0737,1.79489 3.37393,2.37925 1.30024,0.58437 2.7001,0.87657 4.19964,0.87657 z m 54.60947,-0.31307 v -17.90706 h 6.69093 v -4.00716 h -17.53881 v 4.00716 h 6.71943 v 17.90704 z m 47.29214,0 v -21.9142 h -4.12845 v 21.9142 z m 47.54838,0.34437 c 1.48055,0 2.86619,-0.29218 4.15692,-0.87656 1.29074,-0.58438 2.4059,-1.38267 3.34547,-2.39491 0.93959,-1.01223 1.68459,-2.2123 2.23506,-3.60018 0.55046,-1.38791 0.82569,-2.86453 0.82569,-4.42982 0,-1.5653 -0.27523,-3.0419 -0.82569,-4.42979 -0.55047,-1.38791 -1.29547,-2.58797 -2.23506,-3.60019 -0.93957,-1.01223 -2.05473,-1.81053 -3.34547,-2.39492 -1.29073,-0.58438 -2.67637,-0.87656 -4.15692,-0.87656 -1.46157,0 -2.83771,0.29218 -4.12847,0.87656 -1.29071,0.58439 -2.4059,1.38269 -3.34545,2.39492 -0.93959,1.01222 -1.68461,2.21228 -2.23506,3.60019 -0.55047,1.38789 -0.8257,2.86449 -0.8257,4.42979 0,1.5653 0.27523,3.04192 0.8257,4.42982 0.55045,1.38789 1.29547,2.58795 2.23506,3.60018 0.93955,1.01224 2.05474,1.81053 3.34545,2.39491 1.29076,0.58439 2.6669,0.87657 4.12847,0.87657 z m 0,-4.1637 c -0.89211,0 -1.72258,-0.1826 -2.4913,-0.54785 -0.76875,-0.36523 -1.4331,-0.86611 -1.99306,-1.50268 -0.55995,-0.63656 -1.00125,-1.39312 -1.32396,-2.26968 -0.32266,-0.8766 -0.48401,-1.81577 -0.48401,-2.81756 0,-1.02265 0.16135,-1.96706 0.48401,-2.83318 0.32271,-0.86615 0.76401,-1.61749 1.32396,-2.25404 0.55996,-0.63656 1.22431,-1.13746 1.99306,-1.5027 0.76872,-0.36523 1.59919,-0.54785 2.4913,-0.54785 0.89211,0 1.72731,0.18262 2.50554,0.54785 0.77825,0.36524 1.44734,0.86614 2.00729,1.5027 0.55994,0.63655 1.00126,1.38789 1.32394,2.25404 0.32268,0.86612 0.48403,1.81053 0.48403,2.83318 0,1.00179 -0.16135,1.94096 -0.48403,2.81756 -0.32268,0.87656 -0.764,1.63312 -1.32394,2.26968 -0.55995,0.63657 -1.22904,1.13745 -2.00729,1.50268 -0.77823,0.36525 -1.61343,0.54785 -2.50554,0.54785 z m 51.44905,3.81933 v -14.65121 l 10.16454,14.65121 h 3.64443 v -21.9142 h -3.8722 v 14.18163 l -9.9083,-14.18163 h -3.92915 v 21.9142 z"
     id="COLLECTION"
     inkscape:connector-curvature="0"
     style="fill:#ffffff;fill-rule:nonzero;stroke:none;stroke-width:1.2758193" />
</svg>
