<?xml version="1.0" encoding="UTF-8" standalone="no"?>
<!-- Created with Inkscape (http://www.inkscape.org/) -->

<svg
   xmlns:dc="http://purl.org/dc/elements/1.1/"
   xmlns:cc="http://creativecommons.org/ns#"
   xmlns:rdf="http://www.w3.org/1999/02/22-rdf-syntax-ns#"
   xmlns:svg="http://www.w3.org/2000/svg"
   xmlns="http://www.w3.org/2000/svg"
   xmlns:sodipodi="http://sodipodi.sourceforge.net/DTD/sodipodi-0.dtd"
   xmlns:inkscape="http://www.inkscape.org/namespaces/inkscape"
   width="500"
   height="200"
   viewBox="0 0 132.29166 52.916668"
   version="1.1"
   id="svg8"
   sodipodi:docname="freej2me.svg"
   inkscape:export-filename="/home/dim/Nextcloud/GIT-Local/wip/color.png"
   inkscape:export-xdpi="173.59"
   inkscape:export-ydpi="173.59"
   inkscape:version="0.92.5 (2060ec1f9f, 2020-04-08)">
  <defs
     id="defs2" />
  <sodipodi:namedview
     id="base"
     pagecolor="#ffffff"
     bordercolor="#666666"
     borderopacity="1.0"
     inkscape:pageopacity="0.0"
     inkscape:pageshadow="2"
     inkscape:zoom="1.1291611"
     inkscape:cx="199.54772"
     inkscape:cy="215.28688"
     inkscape:document-units="mm"
     inkscape:current-layer="layer1"
     showgrid="false"
     units="px"
     inkscape:pagecheckerboard="true"
     inkscape:snap-others="false"
     inkscape:object-nodes="false"
     inkscape:window-width="1366"
     inkscape:window-height="739"
     inkscape:window-x="0"
     inkscape:window-y="0"
     inkscape:window-maximized="1" />
  <metadata
     id="metadata5">
    <rdf:RDF>
      <cc:Work
         rdf:about="">
        <dc:format>image/svg+xml</dc:format>
        <dc:type
           rdf:resource="http://purl.org/dc/dcmitype/StillImage" />
        <dc:title></dc:title>
      </cc:Work>
    </rdf:RDF>
  </metadata>
  <g
     inkscape:label="Layer 1"
     inkscape:groupmode="layer"
     id="layer1"
     transform="translate(0,-244.08332)">
    <path
       style="opacity:0.98000004;fill:#04c800;fill-opacity:1;stroke:none;stroke-width:1.77950799;stroke-linecap:round;stroke-linejoin:bevel;stroke-miterlimit:4;stroke-dasharray:none;stroke-opacity:1"
       d="m 59.605946,260.76407 a 13.5628,34.31978 63.375793 0 0 -23.484263,27.26078 13.5628,34.31978 63.375793 0 0 22.840416,1.90437 13.91661,15.685671 63.375793 0 1 -2.806717,-3.51165 13.91661,15.685671 63.375793 0 1 7.202759,-19.50307 13.91661,15.685671 63.375793 0 1 20.425918,4.65402 l 0.279536,0.52561 a 13.91661,15.685671 63.375793 0 1 1.264028,4.62363 13.5628,34.31978 63.375793 0 0 12.018307,-19.70873 l -0.287915,-0.50455 a 13.5628,34.31978 63.375793 0 0 -37.452069,4.25959 z"
       id="path3713"
       inkscape:connector-curvature="0"
       inkscape:export-xdpi="173.59"
       inkscape:export-ydpi="173.59" />
    <rect
       style="opacity:0.98000004;fill:#005ce0;fill-opacity:1;stroke:none;stroke-width:2.28874779;stroke-linecap:round;stroke-linejoin:bevel;stroke-miterlimit:4;stroke-dasharray:none;stroke-opacity:1"
       id="rect3720"
       width="20.629486"
       height="46.719719"
       x="-89.36882"
       y="243.23819"
       transform="rotate(-30.022287)"
       inkscape:export-xdpi="173.59"
       inkscape:export-ydpi="173.59" />
    <rect
       style="opacity:0.98000004;fill:#ffffff;fill-opacity:1;stroke:none;stroke-width:2.28874779;stroke-linecap:round;stroke-linejoin:bevel;stroke-miterlimit:4;stroke-dasharray:none;stroke-opacity:1"
       id="rect3722"
       width="16.078865"
       height="20.326111"
       x="-86.941818"
       y="245.84624"
       transform="rotate(-30.022287)"
       inkscape:export-xdpi="173.59"
       inkscape:export-ydpi="173.59" />
    <g
       aria-label="FR"
       transform="matrix(0.34281335,-0.19810122,0.3366456,0.58256385,21.727431,367.73933)"
       style="font-style:normal;font-weight:normal;font-size:40px;line-height:125%;font-family:sans-serif;letter-spacing:0px;word-spacing:0px;fill:#005ce0;fill-opacity:1;stroke:none;stroke-width:1px;stroke-linecap:butt;stroke-linejoin:miter;stroke-opacity:1"
       id="flowRoot3724">
      <path
         d="m 206.63867,-110.2793 h -7.5 v -12.5 h 17.5 v 2.5 h -10 v 2.5 h 7.5 v 2.5 h -7.5 z"
         style="font-style:normal;font-variant:normal;font-weight:normal;font-stretch:normal;font-family:'8-bit Arcade In';-inkscape-font-specification:'8-bit Arcade In';fill:#005ce0"
         id="path3885" />
      <path
         d="m 236.63867,-110.2793 h -7.5 v -2.5 h -2.5 v 2.5 h -7.5 v -12.5 h 15 v 2.5 h 2.5 v 5 h -2.5 v 2.5 h 2.5 z m -7.5,-5 v -5 h -2.5 v 5 z"
         style="font-style:normal;font-variant:normal;font-weight:normal;font-stretch:normal;font-family:'8-bit Arcade In';-inkscape-font-specification:'8-bit Arcade In';fill:#005ce0"
         id="path3887" />
    </g>
    <g
       aria-label="ee"
       transform="matrix(0.34281334,-0.19810122,0.33664559,0.58256384,26.725936,376.67449)"
       style="font-style:normal;font-weight:normal;font-size:40px;line-height:125%;font-family:sans-serif;letter-spacing:0px;word-spacing:0px;fill:#005ce0;fill-opacity:1;stroke:none;stroke-width:1px;stroke-linecap:butt;stroke-linejoin:miter;stroke-opacity:1"
       id="flowRoot3724-7">
      <path
         d="m 206.63867,-112.7793 h 10 v 2.5 h -17.5 v -12.5 h 17.5 v 2.5 h -10 v 2.5 h 7.5 v 2.5 h -7.5 z"
         style="font-style:normal;font-variant:normal;font-weight:normal;font-stretch:normal;font-family:'8-bit Arcade In';-inkscape-font-specification:'8-bit Arcade In';fill:#005ce0"
         id="path3890" />
      <path
         d="m 226.63867,-112.7793 h 10 v 2.5 h -17.5 v -12.5 h 17.5 v 2.5 h -10 v 2.5 h 7.5 v 2.5 h -7.5 z"
         style="font-style:normal;font-variant:normal;font-weight:normal;font-stretch:normal;font-family:'8-bit Arcade In';-inkscape-font-specification:'8-bit Arcade In';fill:#005ce0"
         id="path3892" />
    </g>
    <g
       aria-label="j2"
       transform="matrix(0.34281334,-0.19810122,0.33664559,0.58256384,32.276781,386.50105)"
       style="font-style:normal;font-weight:normal;font-size:40px;line-height:125%;font-family:sans-serif;letter-spacing:0px;word-spacing:0px;fill:#ffffff;fill-opacity:1;stroke:none;stroke-width:1px;stroke-linecap:butt;stroke-linejoin:miter;stroke-opacity:1"
       id="flowRoot3724-72">
      <path
         d="m 216.63867,-110.2793 h -15 v -2.5 h -2.5 v -2.5 h 7.5 v 2.5 h 2.5 v -10 h 7.5 z"
         style="font-style:normal;font-variant:normal;font-weight:normal;font-stretch:normal;font-family:'8-bit Arcade In';-inkscape-font-specification:'8-bit Arcade In';fill:#ffffff"
         id="path3895" />
      <path
         d="m 229.13867,-112.7793 h 7.5 v 2.5 h -17.5 v -2.5 h 2.5 v -2.5 h 5 v -2.5 h -7.5 v -2.5 h 2.5 v -2.5 h 12.5 v 2.5 h 2.5 v 2.5 h -2.5 v 2.5 h -5 z m 0,-5 v -2.5 h -2.5 v 2.5 z"
         style="font-style:normal;font-variant:normal;font-weight:normal;font-stretch:normal;font-family:'8-bit Arcade In';-inkscape-font-specification:'8-bit Arcade In';fill:#ffffff"
         id="path3897" />
    </g>
    <g
       aria-label="me"
       transform="matrix(0.34281334,-0.19810122,0.33664559,0.58256384,37.275288,395.43621)"
       style="font-style:normal;font-weight:normal;font-size:40px;line-height:125%;font-family:sans-serif;letter-spacing:0px;word-spacing:0px;fill:#ffffff;fill-opacity:1;stroke:none;stroke-width:1px;stroke-linecap:butt;stroke-linejoin:miter;stroke-opacity:1"
       id="flowRoot3724-7-0">
      <path
         d="m 206.63867,-112.7793 v -2.5 h -2.5 v 5 h -5 v -12.5 h 5 v 2.5 h 2.5 v 2.5 h 2.5 v -2.5 h 2.5 v -2.5 h 5 v 12.5 h -5 v -5 h -2.5 v 2.5 z"
         style="font-style:normal;font-variant:normal;font-weight:normal;font-stretch:normal;font-family:'8-bit Arcade In';-inkscape-font-specification:'8-bit Arcade In';fill:#ffffff"
         id="path3900" />
      <path
         d="m 226.63867,-112.7793 h 10 v 2.5 h -17.5 v -12.5 h 17.5 v 2.5 h -10 v 2.5 h 7.5 v 2.5 h -7.5 z"
         style="font-style:normal;font-variant:normal;font-weight:normal;font-stretch:normal;font-family:'8-bit Arcade In';-inkscape-font-specification:'8-bit Arcade In';fill:#ffffff"
         id="path3902" />
    </g>
  </g>
</svg>
