<?xml version="1.0" encoding="UTF-8" standalone="no"?>
<svg
   xmlns:dc="http://purl.org/dc/elements/1.1/"
   xmlns:cc="http://creativecommons.org/ns#"
   xmlns:rdf="http://www.w3.org/1999/02/22-rdf-syntax-ns#"
   xmlns:svg="http://www.w3.org/2000/svg"
   xmlns="http://www.w3.org/2000/svg"
   xmlns:sodipodi="http://sodipodi.sourceforge.net/DTD/sodipodi-0.dtd"
   xmlns:inkscape="http://www.inkscape.org/namespaces/inkscape"
   width="500"
   height="200"
   viewBox="0 0 500 200"
   version="1.1"
   id="svg180"
   sodipodi:docname="gb2players.svg"
   style="fill:none"
   inkscape:version="0.92.5 (2060ec1f9f, 2020-04-08)">
  <metadata
     id="metadata186">
    <rdf:RDF>
      <cc:Work
         rdf:about="">
        <dc:format>image/svg+xml</dc:format>
        <dc:type
           rdf:resource="http://purl.org/dc/dcmitype/StillImage" />
        <dc:title />
      </cc:Work>
    </rdf:RDF>
  </metadata>
  <defs
     id="defs184" />
  <sodipodi:namedview
     pagecolor="#ffffff"
     bordercolor="#666666"
     borderopacity="1"
     objecttolerance="10"
     gridtolerance="10"
     guidetolerance="10"
     inkscape:pageopacity="0"
     inkscape:pageshadow="2"
     inkscape:window-width="1366"
     inkscape:window-height="743"
     id="namedview182"
     showgrid="false"
     inkscape:pagecheckerboard="true"
     inkscape:zoom="0.99685333"
     inkscape:cx="297.06224"
     inkscape:cy="30.445253"
     inkscape:window-x="0"
     inkscape:window-y="0"
     inkscape:window-maximized="1"
     inkscape:current-layer="svg180" />
  <path
     d="M 25.96419,47.01513 C 11.001234,47.010028 1.0031566,36.406303 1.0031566,23.549408 1.0031566,10.692614 11.024045,-0.03287128 25.94133,7.5718286e-5 H 166.90794 C 181.82532,-0.03287428 191.84611,10.692614 191.84611,23.549408 c 0,12.856895 -9.99833,23.46062 -24.96063,23.465722 z"
     id="path140"
     inkscape:connector-curvature="0"
     style="fill:#e60012;stroke-width:1.02055049" />
  <path
     d="M 26.010013,5.7834497 C 14.164381,5.8062597 6.8932436,13.723649 6.8932436,23.518995 c 0,9.792795 7.2255184,17.776052 19.1167694,17.732882 H 166.83956 c 11.89146,0.04062 19.11899,-7.940087 19.11899,-17.732882 0,-9.792794 -7.2704,-17.7102053 -19.11593,-17.7330143 z"
     id="path142"
     inkscape:connector-curvature="0"
     style="fill:#ffffff;stroke-width:1.02055049" />
  <path
     d="m 170.92482,15.981719 c 0,-1.880568 1.52573,-3.406189 3.4066,-3.406189 1.87986,0 3.40558,1.525621 3.40558,3.406189 0,1.880467 -1.52572,3.40619 -3.40558,3.40619 -1.88087,0 -3.4066,-1.525723 -3.4066,-3.40619 z m 3.40558,2.757426 c 1.52062,0 2.75549,-1.234254 2.75549,-2.754874 0,-1.523172 -1.23487,-2.754874 -2.75549,-2.754874 -1.52062,0 -2.75446,1.234254 -2.75446,2.754874 0,1.52062 1.23384,2.754874 2.75446,2.754874 z"
     id="path144"
     inkscape:connector-curvature="0"
     style="clip-rule:evenodd;fill:#e60012;fill-rule:evenodd;stroke-width:1.02055049" />
  <path
     d="m 176.02656,15.137724 c 0,-0.722243 -0.53477,-1.087192 -1.61145,-1.087192 h -1.48082 v 3.773689 h 0.92053 v -1.546032 h 0.44803 l 0.72255,1.546032 h 1.02157 l -0.844,-1.685439 c 0.51436,-0.129201 0.82359,-0.504254 0.82359,-1.001058 z m -1.72371,0.588143 h -0.44803 v -1.097295 h 0.40312 c 0.55212,0 0.82359,0.169717 0.82359,0.562629 0,0.375052 -0.25412,0.534666 -0.77868,0.534666 z"
     id="path146"
     inkscape:connector-curvature="0"
     style="clip-rule:evenodd;fill:#e60012;fill-rule:evenodd;stroke-width:1.02055049" />
  <path
     d="m 102.40567,30.278102 c 0,-0.826136 -0.005,-0.892064 -0.005,-0.892064 l 6.62991,-0.0051 c -1.15833,3.474566 -4.95172,6.036862 -9.443064,6.036862 -5.413404,0 -9.800343,-3.697658 -9.800343,-8.262071 0,-4.564412 4.386939,-8.264622 9.800343,-8.264622 5.413924,0 9.820664,3.781344 9.820664,8.345756 0,0.0077 -12.537467,0.0026 -12.537467,0.0026 0,0 -0.0051,2.232761 -0.0051,3.03869 0,2.691498 1.801986,3.289642 2.785283,3.289642 0.983404,0 2.754874,-0.598144 2.754874,-3.289642 z m -5.094078,-8.216453 c -0.423222,0.734899 -0.451083,1.596652 -0.440979,2.886627 l 5.552717,0.0026 c 0.0102,-1.290078 -0.007,-2.151729 -0.43088,-2.889179 -0.51925,-0.906861 -1.47398,-1.337737 -2.340434,-1.343248 4.1e-4,0 9.2e-4,0 10e-4,0 h -0.003 c 5.1e-4,0 9.2e-4,0 0.001,0 -0.86634,0.0055 -1.821167,0.436387 -2.340424,1.343248 z"
     id="path148"
     inkscape:connector-curvature="0"
     style="clip-rule:evenodd;fill:#e60012;fill-rule:evenodd;stroke-width:1.02055049" />
  <path
     d="m 123.34166,19.137058 c 2.48912,-0.07103 7.53778,1.558584 7.50206,7.385112 -0.005,1.034021 -0.002,8.008566 -0.002,8.008566 h -6.61317 c 0,0 0,-8.746016 0,-9.666043 0,-1.282423 -1.22568,-2.709255 -3.04124,-2.709255 -1.81147,0 -3.15962,1.426832 -3.15962,2.709255 0,0.628557 0.007,9.666043 0.007,9.666043 h -6.60704 l 0.005,-14.717053 6.605,-0.0051 c 0,0 -0.008,1.183634 0,1.548583 1.27161,-1.214047 3.10656,-2.156831 5.30381,-2.220105 z"
     id="path150"
     inkscape:connector-curvature="0"
     style="fill:#e60012;stroke-width:1.02055049" />
  <path
     d="m 69.253495,19.137058 c 2.488714,-0.07103 7.537173,1.558584 7.50176,7.385112 -0.0051,1.034021 -0.0027,8.008566 -0.0027,8.008566 h -6.612147 c 0,0 0,-8.746016 0,-9.666043 0,-1.282423 -1.2266,-2.709255 -3.041241,-2.709255 -1.812089,0 -3.160338,1.426832 -3.160338,2.709255 0,0.628557 0.0076,9.666043 0.0076,9.666043 h -6.607045 l -0.0027,-14.717053 6.612147,-0.0051 c 0,0 -0.0076,1.183634 0,1.548583 1.27232,-1.214047 3.104617,-2.156831 5.304515,-2.220105 z"
     id="path152"
     inkscape:connector-curvature="0"
     style="fill:#e60012;stroke-width:1.02055049" />
  <path
     d="m 151.75786,12.403057 h -6.56928 v 0 c 0,0 0,4.736783 0.005,8.142973 -1.06443,-0.598145 -2.18704,-1.173429 -3.76583,-1.312837 -4.79761,-0.42067 -8.4624,3.82186 -8.4624,7.706994 0,5.121939 3.95055,7.017714 4.55165,7.296426 2.23807,1.044227 5.11194,1.046779 7.65821,-0.552424 0,0.136856 0.003,0.851547 0.003,0.851547 h 6.57948 z m -6.52131,12.068826 v 2.630674 0 c 0,0 0.003,1.66513 0.003,2.610466 0,2.273276 -1.57471,2.868869 -2.61057,2.868869 -1.05729,0 -2.60853,-0.595593 -2.60853,-2.868869 0,-0.783171 0.003,-2.618018 0.003,-2.618018 0,0 -0.003,-1.867812 -0.003,-2.623122 0,-2.275827 1.55124,-2.856214 2.61057,-2.856214 1.03382,0 2.60547,0.580387 2.60547,2.856214 z"
     id="path154"
     inkscape:connector-curvature="0"
     style="clip-rule:evenodd;fill:#e60012;fill-rule:evenodd;stroke-width:1.02055049" />
  <path
     d="m 153.92449,27.077247 c 0,-4.564412 4.35367,-8.264622 9.72687,-8.264622 5.37218,0 9.72687,3.70021 9.72687,8.264622 0,4.564412 -4.35469,8.26452 -9.72687,8.26452 -5.37014,0 -9.72687,-3.700108 -9.72687,-8.26452 z m 12.39765,3.099616 c 0,-0.892063 0.003,-3.117272 0.003,-3.117272 l 0.002,0.0077 c -0.006,-0.480067 -0.005,-1.660334 -0.005,-2.56444 0,-0.207886 0,-0.40128 0,-0.568038 0,-2.336755 -1.39101,-3.297297 -2.71875,-3.297297 -1.32569,0 -2.71976,0.960542 -2.71976,3.297297 0,0.892063 -0.005,3.069101 -0.005,3.069101 0,0 -0.002,2.280931 -0.002,3.172994 0,2.346858 1.39101,3.314952 2.72691,3.314952 1.33284,0 2.71875,-0.968094 2.71875,-3.314952 z"
     id="path156"
     inkscape:connector-curvature="0"
     style="clip-rule:evenodd;fill:#e60012;fill-rule:evenodd;stroke-width:1.02055049" />
  <path
     d="m 47.001717,16.921953 v -4.523897 h 6.67042 v 4.523897 z"
     id="path158"
     inkscape:connector-curvature="0"
     style="fill:#e60012;stroke-width:1.02055049" />
  <path
     d="M 47.017127,34.535838 V 19.816234 l 6.655214,0.0027 v 14.717054 z"
     id="path160"
     inkscape:connector-curvature="0"
     style="fill:#e60012;stroke-width:1.02055049" />
  <path
     d="m 80.4075,34.535941 0.0026,-14.689193 h -3.619076 v -2.18459 l 3.621627,-0.0027 -0.0051,-2.980416 h 6.660316 v 2.977966 h 3.603871 v 2.189693 h -3.603922 l 0.0051,14.689193 z"
     id="path162"
     inkscape:connector-curvature="0"
     style="fill:#e60012;stroke-width:1.02055049" />
  <path
     d="m 19.932226,34.535736 0.0025,-22.132679 h 6.896064 l 9.539392,15.434296 -0.0051,-15.434296 h 6.842791 V 34.535736 H 36.375132 L 26.785121,19.10144 v 15.434296 z"
     id="path164"
     inkscape:connector-curvature="0"
     style="fill:#e60012;stroke-width:1.02055049" />
  <path
     d="m 427.9219,65.089489 h 20.84372 l 10.29634,23.680138 15.43991,-23.680138 h 21.35298 l -30.10726,46.839391 -4.88844,36.5449 h -19.29963 l 5.66201,-41.69766 z"
     id="path166"
     inkscape:connector-curvature="0"
     style="fill:#ffffff;stroke-width:1.02055049" />
  <path
     d="m 274.53928,148.47378 2.57383,-18.53728 h -29.33267 l 1.80025,-14.40507 h 25.47397 l 2.57689,-18.528614 h -25.21883 l 1.80229,-13.385028 h 29.33063 l 2.83305,-18.528299 H 237.74231 L 226.1611,148.47378 Z"
     id="path168"
     inkscape:connector-curvature="0"
     style="fill:#ffffff;stroke-width:1.02055049" />
  <path
     d="M 111.89822,123.76114 H 94.399451 l -9.519593,24.70549 H 65.321109 l 1.285588,-3.86176 c -3.859416,2.05947 -14.668883,5.66405 -24.19113,5.14868 C 25.946739,150.00868 1.2412347,137.14056 4.3285491,110.12047 9.5758624,64.197834 60.945601,60.453842 80.505268,67.142836 l -2.83315,17.757069 c -29.33695,-9.521328 -54.042437,7.720461 -54.813565,26.248255 -0.77123,18.53014 16.469746,20.07321 18.785886,20.07321 2.316139,0 8.234006,-0.2582 10.807732,-1.80025 l 1.030552,-5.661 H 38.812105 l 2.317874,-16.47066 h 33.454769 l -3.603461,27.0201 27.536902,-69.223439 h 24.705081 l 8.49404,68.453939 22.645,-68.453939 h 19.81501 l 6.69175,44.004609 17.24118,-44.004609 h 22.13268 l 5.14766,83.380509 h -18.5281 l -3.08921,-47.86637 -18.52809,47.86637 h -16.72784 l -7.20713,-45.29305 -14.6694,45.29305 h -31.65237 z m -4.11792,-33.711024 -6.43324,17.240364 h 8.49373 z"
     id="path170"
     inkscape:connector-curvature="0"
     style="clip-rule:evenodd;fill:#ffffff;fill-rule:evenodd;stroke-width:1.02055049" />
  <path
     d="m 367.95639,102.66432 c 6.43355,-31.140669 25.7342,-38.861133 39.1177,-38.345857 19.55579,0.772863 34.22825,16.468828 30.10931,46.321467 -4.1169,29.85212 -26.50574,39.88821 -42.46409,37.82976 -15.95529,-2.05845 -33.19545,-14.66837 -26.76292,-45.80537 z m 51.21021,4.62922 c 2.83203,-21.614546 -8.74816,-25.218008 -14.15198,-25.218008 -5.66507,-0.257689 -16.21552,5.404325 -19.04551,25.218008 -2.83101,19.81705 7.20407,23.15935 12.09556,23.67473 4.88946,0.5164 18.27092,-2.05743 21.10193,-23.67473 z"
     id="path172"
     inkscape:connector-curvature="0"
     style="clip-rule:evenodd;fill:#ffffff;fill-rule:evenodd;stroke-width:1.02055049" />
  <path
     d="m 311.08315,65.092244 -11.58018,83.379486 36.80003,-0.001 c 16.72784,0 26.24958,-11.32096 28.05289,-22.90421 1.80025,-11.58019 -2.57383,-17.75758 -6.95097,-21.61526 0.37046,-0.26841 0.76133,-0.51538 1.16649,-0.77052 2.69629,-1.69983 5.98553,-3.772874 7.32755,-15.184771 1.54307,-13.123871 -10.80763,-22.903705 -19.30269,-22.903705 z m 14.66633,31.910672 h 10.80968 c 7.97866,0 9.52275,-5.14755 9.77687,-7.20437 0.2582,-2.060184 -2.05641,-6.178105 -6.17331,-6.178105 H 327.5528 Z m -4.63125,32.938684 h 14.67041 c 7.97458,0 9.77687,-6.17433 10.03201,-8.23482 0.25922,-2.05845 -2.05743,-6.17433 -6.17433,-6.17433 h -16.4676 z"
     id="path174"
     inkscape:connector-curvature="0"
     style="clip-rule:evenodd;fill:#ffffff;fill-rule:evenodd;stroke-width:1.02055049" />
  <path
     d="m 471.29836,135.85875 c -3.17493,0 -5.73856,2.55954 -5.73856,5.71917 0,3.1933 2.56159,5.75488 5.73856,5.75488 3.1586,0 5.71814,-2.56158 5.71814,-5.75488 -0.002,-3.16065 -2.56362,-5.71917 -5.71814,-5.71917 v -0.78684 c 3.59846,0 6.50397,2.91979 6.50397,6.50601 0,3.61989 -2.90551,6.53866 -6.50397,6.53866 -3.62091,-0.001 -6.53969,-2.91877 -6.53969,-6.53866 0,-3.58724 2.91878,-6.50499 6.53969,-6.50499 z"
     id="path176"
     inkscape:connector-curvature="0"
     style="fill:#ffffff;stroke-width:1.02055049" />
  <path
     d="m 469.75427,138.58362 h 2.08396 c 0.90625,0 1.89312,0.13471 1.89312,1.26344 0,1.48388 -1.58593,1.31549 -2.61159,1.31549 l -1.36549,-0.002 v 0.70214 h 1.64206 l 2.08193,3.36373 h 1.05831 l -2.20337,-3.36373 c 1.29814,-0.0337 2.3044,-0.56232 2.3044,-1.99722 0,-0.61641 -0.27147,-1.26344 -0.81746,-1.57267 -0.54599,-0.32351 -1.16241,-0.35719 -1.7778,-0.35719 h -3.17187 v 7.28877 h 0.88482 v -6.64072 z"
     id="path178"
     inkscape:connector-curvature="0"
     style="fill:#ffffff;stroke-width:1.02055049" />
</svg>
