<?xml version="1.0" encoding="UTF-8" standalone="no"?>
<svg
   xmlns:dc="http://purl.org/dc/elements/1.1/"
   xmlns:cc="http://creativecommons.org/ns#"
   xmlns:rdf="http://www.w3.org/1999/02/22-rdf-syntax-ns#"
   xmlns:svg="http://www.w3.org/2000/svg"
   xmlns="http://www.w3.org/2000/svg"
   xmlns:sodipodi="http://sodipodi.sourceforge.net/DTD/sodipodi-0.dtd"
   xmlns:inkscape="http://www.inkscape.org/namespaces/inkscape"
   width="500"
   height="200"
   viewBox="0 0 500 200"
   version="1.1"
   id="svg215"
   sodipodi:docname="gba.svg"
   style="fill:none"
   inkscape:version="0.92.5 (2060ec1f9f, 2020-04-08)">
  <metadata
     id="metadata221">
    <rdf:RDF>
      <cc:Work
         rdf:about="">
        <dc:format>image/svg+xml</dc:format>
        <dc:type
           rdf:resource="http://purl.org/dc/dcmitype/StillImage" />
        <dc:title />
      </cc:Work>
    </rdf:RDF>
  </metadata>
  <defs
     id="defs219" />
  <sodipodi:namedview
     pagecolor="#ffffff"
     bordercolor="#666666"
     borderopacity="1"
     objecttolerance="10"
     gridtolerance="10"
     guidetolerance="10"
     inkscape:pageopacity="0"
     inkscape:pageshadow="2"
     inkscape:window-width="1366"
     inkscape:window-height="743"
     id="namedview217"
     showgrid="false"
     inkscape:pagecheckerboard="true"
     inkscape:zoom="1.415601"
     inkscape:cx="209.58103"
     inkscape:cy="65.787346"
     inkscape:window-x="0"
     inkscape:window-y="0"
     inkscape:window-maximized="1"
     inkscape:current-layer="svg215" />
  <g
     id="Gameboy_advance_logo"
     transform="matrix(1.0291644,0,0,1.0291644,0,16.017942)">
    <path
       style="fill:#1f00cc"
       inkscape:connector-curvature="0"
       d="m 169.32,80.08 c 6.12,0 9.84,2.64 13.44,6.96 1.32,-1.2 2.64,-2.28 4.2,-3.24 3.72,-2.4 7.92,-3.6 12.12,-3.6 h 56.4 l -3.72,5.88 70.8,-0.12 6.48,11.16 5.76,-11.04 h 47.04 l 11.64,9.12 v -9.12 h 88.56 v 42.36 h -81.72 l -11.88,-9.24 v 9.24 H 322.2 l -4.44,-7.32 c -3.6,4.08 -10.08,7.32 -20.76,7.32 h -58.8 c -1.92,1.92 -3.96,2.16 -6.36,2.04 l -0.6,3.84 h -22.68 l 0.48,-3.24 c -0.24,0.12 -0.48,0.36 -0.72,0.48 -5.28,3.24 -11.28,4.32 -16.92,3 -4.32,-0.96 -8.16,-3.36 -11.04,-6.48 -3.84,3.72 -9,6.24 -13.92,6.24 l -111.48,0.12 -1.8,-10.2 -4.56,10.2 H 30 C 24.12,135.4 18.24,134.56 12.96,131.92 5.75997,128.08 0.959969,121.36 0.239969,113.8 -1.08003,101.2 3.83997,91.12 14.16,84.76 24.12,78.64 34.68,77.32 45.6,81.16 l 2.04,0.72 0.72,-1.68 h 20.88 l 1.56,9.36 3.12,-9.48 z"
       id="Path" />
    <path
       style="clip-rule:evenodd;fill:#ffffff;fill-rule:evenodd"
       inkscape:connector-curvature="0"
       d="m 339,93.04 h 8.64 l -0.72,1.2 -15.24,26.4 -0.24,0.36 h -5.4 l -0.24,-0.36 -11.04,-18.24 c 0.36,1.32 0.6,2.76 0.6,4.44 0,9.36 -6.24,14.16 -18.36,14.16 h -14.04 -9.12 l -0.24,-0.36 -11.4,-20.28 -8.04,14.52 h 8.04 v 6.24 h -13.68 -6.12 l 0.72,-1.2 15.72,-26.4 0.24,-0.36 h 7.08 l 0.24,0.36 13.8,22.8 V 93.04 h 18.6 c 5.64,0 9.96,1.44 12.84,4.2 l -1.8,-2.88 -0.72,-1.2 h 9.24 l 0.24,0.36 10.44,17.88 9.72,-17.88 z m -50.76,21.48 h 7.44 c 8.52,0 11.52,-1.92 11.52,-7.92 0,-4.92 -2.76,-7.2 -8.4,-7.2 h -10.56 z"
       id="Shape" />
    <path
       style="fill:#ffffff"
       inkscape:connector-curvature="0"
       d="m 401.28,93.04 h -0.84 v 16.68 l -21,-16.44 -0.24,-0.24 h -5.52 v 23.28 l -13.8,-22.8 -0.24,-0.48 h -7.08 l -0.24,0.48 -15.72,26.28 -0.72,1.32 h 8.4 11.52 v -6.24 h -8.04 l 8.04,-14.52 11.4,20.28 0.24,0.48 h 9.12 4.56 V 104.2 l 21,16.68 0.24,0.24 h 5.52 V 93.04 Z"
       id="Path_2" />
    <path
       style="fill:#ffffff"
       inkscape:connector-curvature="0"
       d="m 434.52,93.04 h -16.44 c -5.76,0 -7.68,1.8 -7.68,7.08 v 13.92 c 0,5.28 1.92,7.08 7.68,7.08 h 16.44 c 5.76,0 7.68,-1.8 7.68,-7.08 v -3.96 h -0.84 -6.48 -0.84 v 4.32 H 418.32 V 99.64 h 15.72 v 3.84 h 0.84 7.32 v -3.36 c 0,-5.4 -1.92,-7.08 -7.68,-7.08 z"
       id="Path_3" />
    <path
       style="fill:#ffffff"
       inkscape:connector-curvature="0"
       d="m 474.24,114.52 h -21.36 v -4.92 h 12.84 v -6.12 H 452.88 V 99.4 h 21.84 v -6.36 h -29.88 v 28.08 h 30.24 v -6.6 z"
       id="Path_4" />
    <path
       style="clip-rule:evenodd;fill:#ffffff;fill-rule:evenodd"
       inkscape:connector-curvature="0"
       d="m 91.08,109 9.36,-21.96 h 9.84 l 1.56,40.2 h -8.16 L 102.6,102.52 91.92,127.24 H 86.4 l -4.56,-22.32 -7.08,22.32 H 60.84 l -2.04,-12 h -9.48 l -5.4,12 h -8.64 l 1.2,-2.76 c 0,0 -0.12,0 -0.24,0.12 -12.84,7.32 -27.84002,0 -29.04002,-11.64 -0.96,-10.08 2.76,-17.52 10.56002,-22.32 5.76,-3.48 14.4,-6.72 25.44,-2.88 -0.6,3.96 -1.32,8.16 -1.32,8.16 -5.76,-2.64 -15.72,-1.8 -21.48,3.24 -7.08,6.12 -5.52,12.84 -3.84,15.84 2.64,4.8 8.88,5.28 12.48,3.72 l 0.72,-3.96 H 23.4 l 1.2,-7.44 h 15.24 l -2.28,14.52 15.36,-34.8 H 63 l 5.4,32.4 10.56,-32.4 h 8.16 z m -35.04,-9.48 -3.48,7.8 h 5.04 z"
       id="Shape_2" />
    <path
       style="fill:#ffffff"
       inkscape:connector-curvature="0"
       d="m 112.68,127.12 h 22.92 l 1.32,-8.64 h -14.4 l 1.2,-7.08 h 12.48 l 1.32,-8.64 h -12.6 L 126,95.68 h 14.4 l 1.32,-8.64 h -22.68 z"
       id="Path_5" />
    <path
       style="fill:#ffffff"
       inkscape:connector-curvature="0"
       d="M 224.52,100.12 219.48,87.04 H 210 l 9.72,21.12 -3,18.96 H 225 l 2.52,-16.8 14.76,-23.28 h -9.6 z"
       id="Path_6" />
    <path
       style="clip-rule:evenodd;fill:#ffffff;fill-rule:evenodd"
       inkscape:connector-curvature="0"
       d="m 181.08,103.6 c 2.52,-11.04 12,-18.24 21.12,-16.2 9,2.16 14.4,12.84 11.88,23.88 -2.52,11.04 -12,18.36 -21.12,16.2 -9.12,-2.16 -14.4,-12.84 -11.88,-23.88 z m 12.36,15.84 c 4.32,1.92 9.72,-1.92 11.88,-8.52 2.28,-6.6 0.6,-13.56 -3.84,-15.6 -4.32,-1.92 -9.72,1.92 -11.88,8.52 -2.16,6.72 -0.48,13.68 3.84,15.6 z"
       id="Shape_3" />
    <path
       style="clip-rule:evenodd;fill:#ffffff;fill-rule:evenodd"
       inkscape:connector-curvature="0"
       d="m 154.2,87.28 c 0,0 10.92,-0.12 15.36,0 5.52,0.12 15.84,8.52 5.52,19.32 10.08,9.24 -1.08,20.4 -8.64,20.4 h -18.48 l 6.36,-39.72 z m 11.52,15.84 h -5.76 l 1.32,-7.44 h 5.28 c 5.88,0 4.8,7.44 -0.84,7.44 z m -0.96,16.2 h -7.2 l 1.32,-7.92 h 6.84 c 6.48,-0.12 6.36,7.92 -0.96,7.92 z"
       id="Shape_4" />
    <path
       style="clip-rule:evenodd;fill:#ffffff;fill-rule:evenodd"
       inkscape:connector-curvature="0"
       d="m 233.04,127.72 c 2.28,0 4.2,-1.8 4.2,-4.2 0,-2.28 -1.8,-4.08 -4.2,-4.08 -2.28,0 -4.2,1.8 -4.2,4.08 0,2.4 1.8,4.2 4.2,4.2 z m 1.92,-5.28 c 0,0.96 -0.6,1.32 -1.44,1.32 l 1.44,2.16 h -0.72 l -1.32,-2.04 h -0.96 v 2.04 h -0.6 v -4.68 h 2.04 c 0.36,0 0.72,0 1.08,0.24 0.24,0.12 0.48,0.6 0.48,0.96 z m -3,-0.72 v 1.56 h 0.84 c 0.058,0 0.119,0.001 0.182,0.002 v 0 c 0.594,0.011 1.378,0.025 1.378,-0.842 0,-0.6 -0.48,-0.72 -1.08,-0.72 z m -2.4,1.8 c 0,2.04 1.56,3.48 3.48,3.48 1.92,0 3.36,-1.44 3.48,-3.48 0,-1.92 -1.56,-3.48 -3.48,-3.48 -1.92,0 -3.48,1.56 -3.48,3.48 z"
       id="Shape_5" />
  </g>
  <g
     id="Group 119"
     transform="matrix(1.0291644,0,0,1.0291644,0,24.017942)">
    <path
       style="fill:#e60012"
       inkscape:connector-curvature="0"
       d="M 32.0227,60.3163 C 12.8266,60.3098 0,46.7061 0,30.2119 0,13.7177 12.8559,-0.0420482 31.9934,2.19212e-4 H 212.841 C 231.978,-0.042053 244.834,13.7177 244.834,30.2119 c 0,16.4942 -12.826,30.0979 -32.022,30.1044 z"
       id="path29-path" />
    <path
       style="fill:#ffffff"
       inkscape:connector-curvature="0"
       d="M 32.0812,7.4198 C 16.8843,7.44907 7.55615,17.6063 7.55615,30.1728 c 0,12.5633 9.26965,22.8051 24.52505,22.7499 H 212.753 c 15.255,0.052 24.528,-10.1866 24.528,-22.7499 0,-12.5632 -9.328,-22.72049 -24.525,-22.74975 z"
       id="path29-path_2" />
    <path
       style="clip-rule:evenodd;fill:#e60012;fill-rule:evenodd"
       inkscape:connector-curvature="0"
       d="m 217.994,20.5033 c 0,-2.4125 1.958,-4.3698 4.37,-4.3698 2.413,0 4.37,1.9573 4.37,4.3698 0,2.4125 -1.957,4.3699 -4.37,4.3699 -2.412,0 -4.37,-1.9574 -4.37,-4.3699 z m 4.37,3.5375 c 1.951,0 3.534,-1.5835 3.534,-3.5343 0,-1.954 -1.583,-3.5342 -3.534,-3.5342 -1.951,0 -3.534,1.5834 -3.534,3.5342 0,1.9508 1.583,3.5343 3.534,3.5343 z"
       id="Subtract" />
    <path
       style="clip-rule:evenodd;fill:#e60012;fill-rule:evenodd"
       inkscape:connector-curvature="0"
       d="m 224.539,19.4206 c 0,-0.9266 -0.686,-1.3948 -2.068,-1.3948 h -1.898 v 4.8412 h 1.18 v -1.9833 h 0.575 l 0.927,1.9833 h 1.31 l -1.082,-2.1621 c 0.66,-0.1658 1.056,-0.647 1.056,-1.2843 z m -2.211,0.7543 h -0.575 v -1.4078 h 0.517 c 0.709,0 1.057,0.2178 1.057,0.7218 0,0.4812 -0.326,0.686 -0.999,0.686 z"
       id="Subtract_2" />
    <path
       style="clip-rule:evenodd;fill:#e60012;fill-rule:evenodd"
       inkscape:connector-curvature="0"
       d="m 130.09,38.8443 c 0,-1.06 -0.006,-1.1445 -0.006,-1.1445 l 8.505,-0.0066 c -1.485,4.4576 -6.353,7.7447 -12.114,7.7447 -6.945,0 -12.573,-4.7437 -12.573,-10.5994 0,-5.8557 5.628,-10.6027 12.573,-10.6027 6.945,0 12.599,4.851 12.599,10.7067 0,0.0099 -16.085,0.0034 -16.085,0.0034 0,0 -0.006,2.8644 -0.006,3.8984 0,3.4529 2.312,4.2202 3.573,4.2202 1.262,0 3.534,-0.7673 3.534,-4.2202 z m -6.535,-10.541 c -0.543,0.9429 -0.579,2.0484 -0.566,3.7033 l 7.124,0.0033 c 0.013,-1.655 -0.01,-2.7605 -0.553,-3.7066 -0.666,-1.1634 -1.891,-1.7162 -3.002,-1.7232 0,0 10e-4,0 10e-4,0 h -0.003 c 0.001,0 0.001,0 0.002,0 -1.112,0.007 -2.337,0.5598 -3.003,1.7232 z"
       id="Subtract_3" />
    <path
       style="fill:#e60012"
       inkscape:connector-curvature="0"
       d="m 156.95,24.5512 c 3.193,-0.091 9.669,1.9996 9.624,9.4745 -0.007,1.3266 -0.003,10.2743 -0.003,10.2743 h -8.483 c 0,0 0,-11.2204 0,-12.4007 0,-1.6452 -1.574,-3.4757 -3.902,-3.4757 -2.325,0 -4.054,1.8305 -4.054,3.4757 0,0.8063 0.009,12.4007 0.009,12.4007 h -8.476 l 0.007,-18.8807 8.473,-0.0065 c 0,0 -0.01,1.5184 0,1.9866 1.632,-1.5574 3.986,-2.7669 6.805,-2.8482 z"
       id="path29-path_3" />
    <path
       style="fill:#e60012"
       inkscape:connector-curvature="0"
       d="m 87.5593,24.5512 c 3.1929,-0.091 9.6696,1.9996 9.6241,9.4745 C 97.1769,35.3523 97.18,44.3 97.18,44.3 h -8.4828 c 0,0 0,-11.2204 0,-12.4007 0,-1.6452 -1.5736,-3.4757 -3.9016,-3.4757 -2.3247,0 -4.0545,1.8305 -4.0545,3.4757 0,0.8063 0.0098,12.4007 0.0098,12.4007 h -8.4763 l -0.0034,-18.8807 8.4829,-0.0065 c 0,0 -0.0098,1.5184 0,1.9866 1.6321,-1.5574 3.9829,-2.7669 6.8051,-2.8482 z"
       id="path29-path_4" />
    <path
       style="clip-rule:evenodd;fill:#e60012;fill-rule:evenodd"
       inkscape:connector-curvature="0"
       d="m 193.404,15.9124 h -8.427 v 0 c 0,0 0,6.0768 0.006,10.4466 -1.366,-0.7673 -2.806,-1.5054 -4.832,-1.6842 -6.154,-0.5397 -10.856,4.903 -10.856,9.8874 0,6.571 5.069,9.003 5.84,9.3607 2.871,1.3395 6.558,1.3428 9.825,-0.7088 0,0.1755 0.004,1.0924 0.004,1.0924 h 8.44 z m -8.366,15.483 v 3.3749 0 c 0,0 0.004,2.1361 0.004,3.3489 0,2.9165 -2.019,3.6805 -3.349,3.6805 -1.356,0 -3.346,-0.764 -3.346,-3.6805 0,-1.0047 0.003,-3.3587 0.003,-3.3587 0,0 -0.003,-2.3962 -0.003,-3.3651 0,-2.9198 1.99,-3.6643 3.349,-3.6643 1.327,0 3.342,0.7445 3.342,3.6643 z"
       id="Subtract_4" />
    <path
       style="clip-rule:evenodd;fill:#e60012;fill-rule:evenodd"
       inkscape:connector-curvature="0"
       d="m 196.184,34.7378 c 0,-5.8557 5.586,-10.6027 12.479,-10.6027 6.893,0 12.479,4.747 12.479,10.6027 0,5.8557 -5.586,10.6027 -12.479,10.6027 -6.89,0 -12.479,-4.747 -12.479,-10.6027 z m 15.906,3.9764 c 0,-1.1445 0.003,-3.9992 0.003,-3.9992 l 0.003,0.0098 c -0.008,-0.6159 -0.007,-2.13 -0.006,-3.2898 0,-0.2668 0,-0.5149 0,-0.7289 0,-2.9978 -1.785,-4.23 -3.489,-4.23 -1.7,0 -3.489,1.2322 -3.489,4.23 0,1.1445 -0.006,3.9374 -0.006,3.9374 0,0 -0.004,2.9262 -0.004,4.0707 0,3.0108 1.785,4.2528 3.499,4.2528 1.71,0 3.489,-1.242 3.489,-4.2528 z"
       id="Subtract_5" />
    <path
       style="fill:#e60012"
       inkscape:connector-curvature="0"
       d="m 59.0122,21.7096 v -5.8037 h 8.5576 v 5.8037 z"
       id="path29-path_5" />
    <path
       style="fill:#e60012"
       inkscape:connector-curvature="0"
       d="M 59.0317,44.3065 V 25.4226 l 8.5381,0.0034 v 18.8806 z"
       id="path29-path_6" />
    <path
       style="fill:#e60012"
       inkscape:connector-curvature="0"
       d="m 101.869,44.3066 0.003,-18.8449 H 97.229 V 22.659 l 4.646,-0.0034 -0.006,-3.8236 h 8.544 v 3.8204 h 4.624 v 2.8092 h -4.624 l 0.007,18.8449 z"
       id="path29-path_7" />
    <path
       style="fill:#e60012"
       inkscape:connector-curvature="0"
       d="m 24.2844,44.3065 0.0033,-28.3941 h 8.8469 L 45.3728,35.7132 45.3663,15.9124 H 54.145 V 44.3065 H 45.3793 L 33.0761,24.5057 v 19.8008 z"
       id="path29-path_8" />
  </g>
</svg>
