<?xml version="1.0" encoding="UTF-8" standalone="no"?>
<svg
   xmlns:dc="http://purl.org/dc/elements/1.1/"
   xmlns:cc="http://creativecommons.org/ns#"
   xmlns:rdf="http://www.w3.org/1999/02/22-rdf-syntax-ns#"
   xmlns:svg="http://www.w3.org/2000/svg"
   xmlns="http://www.w3.org/2000/svg"
   xmlns:sodipodi="http://sodipodi.sourceforge.net/DTD/sodipodi-0.dtd"
   xmlns:inkscape="http://www.inkscape.org/namespaces/inkscape"
   width="500"
   height="200"
   viewBox="0 0 500 200"
   version="1.1"
   id="svg273"
   sodipodi:docname="gbc.svg"
   style="fill:none"
   inkscape:version="0.92.5 (2060ec1f9f, 2020-04-08)">
  <metadata
     id="metadata279">
    <rdf:RDF>
      <cc:Work
         rdf:about="">
        <dc:format>image/svg+xml</dc:format>
        <dc:type
           rdf:resource="http://purl.org/dc/dcmitype/StillImage" />
        <dc:title />
      </cc:Work>
    </rdf:RDF>
  </metadata>
  <defs
     id="defs277" />
  <sodipodi:namedview
     pagecolor="#ffffff"
     bordercolor="#666666"
     borderopacity="1"
     objecttolerance="10"
     gridtolerance="10"
     guidetolerance="10"
     inkscape:pageopacity="0"
     inkscape:pageshadow="2"
     inkscape:window-width="1366"
     inkscape:window-height="743"
     id="namedview275"
     showgrid="false"
     inkscape:pagecheckerboard="true"
     inkscape:zoom="1.2302133"
     inkscape:cx="363.38773"
     inkscape:cy="104.54342"
     inkscape:window-x="0"
     inkscape:window-y="0"
     inkscape:window-maximized="1"
     inkscape:current-layer="svg273" />
  <path
     d="M 16.430223,74.123624 C 7.0683594,74.120431 0.81286714,67.486005 0.81286714,59.441838 c 0,-8.044103 6.26976326,-14.754711 15.60305286,-14.734098 h 88.1985 c 9.33335,-0.02062 15.60305,6.689995 15.60305,14.734098 0,8.044167 -6.25565,14.678593 -15.6171,14.681786 z"
     id="path223"
     inkscape:connector-curvature="0"
     style="fill:#e60012;stroke-width:0.63852727" />
  <path
     d="m 16.458893,48.326221 c -7.4114502,0.01427 -11.9607784,4.96794 -11.9607784,11.096589 0,6.127052 4.520786,11.121932 11.9607784,11.094922 h 88.112747 c 7.44012,0.02541 11.96217,-4.96787 11.96217,-11.094922 0,-6.127053 -4.54887,-11.080735 -11.96025,-11.095006 z"
     id="path225"
     inkscape:connector-curvature="0"
     style="fill:#ffffff;stroke-width:0.63852727" />
  <path
     d="m 107.12766,54.706966 c 0,-1.176614 0.9546,-2.131148 2.13141,-2.131148 1.17617,0 2.13076,0.954534 2.13076,2.131148 0,1.176551 -0.95459,2.131149 -2.13076,2.131149 -1.17681,0 -2.13141,-0.954598 -2.13141,-2.131149 z m 2.13077,1.725237 c 0.95141,0 1.72402,-0.772235 1.72402,-1.72364 0,-0.953002 -0.77261,-1.723641 -1.72402,-1.723641 -0.95141,0 -1.72339,0.772235 -1.72339,1.723641 0,0.951405 0.77198,1.72364 1.72339,1.72364 z"
     id="path227"
     inkscape:connector-curvature="0"
     style="clip-rule:evenodd;fill:#e60012;fill-rule:evenodd;stroke-width:0.63852727" />
  <path
     d="m 110.31966,54.178904 c 0,-0.451885 -0.33459,-0.680223 -1.00823,-0.680223 h -0.92651 v 2.361083 h 0.57596 v -0.967305 h 0.28031 l 0.45208,0.967305 h 0.63916 l -0.52806,-1.054528 c 0.32182,-0.08084 0.51529,-0.315496 0.51529,-0.626332 z m -1.07847,0.367984 h -0.28031 v -0.686545 h 0.25221 c 0.34545,0 0.5153,0.106187 0.5153,0.35202 0,0.234659 -0.159,0.334525 -0.4872,0.334525 z"
     id="path229"
     inkscape:connector-curvature="0"
     style="clip-rule:evenodd;fill:#e60012;fill-rule:evenodd;stroke-width:0.63852727" />
  <path
     d="m 64.257322,63.651776 c 0,-0.516888 -0.0032,-0.558137 -0.0032,-0.558137 l 4.148129,-0.0032 c -0.724728,2.17393 -3.098134,3.77708 -5.908229,3.77708 -3.387004,0 -6.131778,-2.313512 -6.131778,-5.169325 0,-2.855813 2.744774,-5.170922 6.131778,-5.170922 3.387323,0 6.144484,2.365871 6.144484,5.221685 0,0.0048 -7.844308,0.0016 -7.844308,0.0016 0,0 -0.0032,1.39697 -0.0032,1.901215 0,1.683988 1.127447,2.058229 1.742668,2.058229 0.615285,0 1.723641,-0.374241 1.723641,-2.058229 z m -3.187209,-5.140783 c -0.264797,0.459803 -0.282229,0.998976 -0.275908,1.806074 l 3.474164,0.0016 c 0.0063,-0.807163 -0.0047,-1.346271 -0.269587,-1.807671 -0.324882,-0.567396 -0.922225,-0.836982 -1.464334,-0.84043 2.55e-4,0 5.74e-4,0 8.3e-4,0 h -0.0017 c 3.19e-4,0 5.74e-4,0 8.3e-4,0 -0.542046,0.0034 -1.139452,0.273034 -1.464335,0.84043 z"
     id="path231"
     inkscape:connector-curvature="0"
     style="clip-rule:evenodd;fill:#e60012;fill-rule:evenodd;stroke-width:0.63852727" />
  <path
     d="m 77.356326,56.681165 c 1.557368,-0.04444 4.716163,0.975159 4.693814,4.620639 -0.0032,0.646956 -0.0013,5.010715 -0.0013,5.010715 h -4.137633 c 0,0 0,-5.472115 0,-6.047747 0,-0.802373 -0.766872,-1.695098 -1.902812,-1.695098 -1.133386,0 -1.97688,0.892725 -1.97688,1.695098 0,0.393269 0.0045,6.047747 0.0045,6.047747 H 69.90219 l 0.0032,-9.20801 4.132549,-0.0032 c 0,0 -0.0051,0.740564 0,0.968901 0.795605,-0.759592 1.943677,-1.349463 3.318426,-1.389052 z"
     id="path233"
     inkscape:connector-curvature="0"
     style="fill:#e60012;stroke-width:0.63852727" />
  <path
     d="m 43.515018,56.681165 c 1.557113,-0.04444 4.71578,0.975159 4.693623,4.620639 -0.0032,0.646956 -0.0017,5.010715 -0.0017,5.010715 h -4.137019 c 0,0 0,-5.472115 0,-6.047747 0,-0.802373 -0.767446,-1.695098 -1.902811,-1.695098 -1.133769,0 -1.977327,0.892725 -1.977327,1.695098 0,0.393269 0.0047,6.047747 0.0047,6.047747 h -4.133826 l -0.0017,-9.20801 4.137018,-0.0032 c 0,0 -0.0047,0.740564 0,0.968901 0.796052,-0.759592 1.942464,-1.349463 3.318873,-1.389052 z"
     id="path235"
     inkscape:connector-curvature="0"
     style="fill:#e60012;stroke-width:0.63852727" />
  <path
     d="m 95.13548,52.467907 h -4.1102 v 0 c 0,0 0,2.96366 0.0032,5.094809 -0.665984,-0.374241 -1.368364,-0.734179 -2.356166,-0.821402 -3.001717,-0.2632 -5.294668,2.391221 -5.294668,4.822031 0,3.204641 2.471739,4.390769 2.847831,4.565151 1.400291,0.653341 3.198384,0.654937 4.791509,-0.345635 0,0.08563 0.0019,0.532787 0.0019,0.532787 h 4.116585 z m -4.080189,7.551096 v 1.645932 0 c 0,0 0.0019,1.041821 0.0019,1.633289 0,1.422319 -0.985247,1.794964 -1.633352,1.794964 -0.661515,0 -1.632076,-0.372645 -1.632076,-1.794964 0,-0.490006 0.0019,-1.638015 0.0019,-1.638015 0,0 -0.0019,-1.168632 -0.0019,-1.641206 0,-1.423916 0.970561,-1.787047 1.633353,-1.787047 0.646828,0 1.63016,0.363131 1.63016,1.787047 z"
     id="path237"
     inkscape:connector-curvature="0"
     style="clip-rule:evenodd;fill:#e60012;fill-rule:evenodd;stroke-width:0.63852727" />
  <path
     d="m 96.491074,61.649099 c 0,-2.855813 2.723957,-5.170922 6.085806,-5.170922 3.36121,0 6.0858,2.315109 6.0858,5.170922 0,2.855813 -2.72459,5.170858 -6.0858,5.170858 -3.359933,0 -6.085806,-2.315045 -6.085806,-5.170858 z m 7.756836,1.939335 c 0,-0.558137 0.002,-1.950381 0.002,-1.950381 l 0.001,0.0048 c -0.004,-0.300364 -0.003,-1.038821 -0.003,-1.604492 0,-0.130068 0,-0.251069 0,-0.355404 0,-1.462036 -0.87032,-2.063018 -1.70104,-2.063018 -0.82945,0 -1.70168,0.600982 -1.70168,2.063018 0,0.558137 -0.003,1.920243 -0.003,1.920243 0,0 -0.001,1.427108 -0.001,1.985245 0,1.468358 0.87032,2.074065 1.70615,2.074065 0.83392,0 1.70104,-0.605707 1.70104,-2.074065 z"
     id="path239"
     inkscape:connector-curvature="0"
     style="clip-rule:evenodd;fill:#e60012;fill-rule:evenodd;stroke-width:0.63852727" />
  <path
     d="m 29.592761,55.295242 v -2.830464 h 4.173478 v 2.830464 z"
     id="path241"
     inkscape:connector-curvature="0"
     style="fill:#e60012;stroke-width:0.63852727" />
  <path
     d="m 29.602402,66.315712 v -9.209607 l 4.163965,0.0017 v 9.208011 z"
     id="path243"
     inkscape:connector-curvature="0"
     style="fill:#e60012;stroke-width:0.63852727" />
  <path
     d="m 50.493738,66.315776 0.0016,-9.190579 h -2.264346 v -1.366831 l 2.265942,-0.0017 -0.0032,-1.864755 h 4.167157 v 1.863223 h 2.254832 v 1.370024 h -2.254832 l 0.0032,9.190579 z"
     id="path245"
     inkscape:connector-curvature="0"
     style="fill:#e60012;stroke-width:0.63852727" />
  <path
     d="m 12.656207,66.315648 0.0015,-13.847741 h 4.314656 l 5.968507,9.656767 -0.0032,-9.656767 h 4.281326 v 13.847741 h -4.275005 l -6.000177,-9.656767 v 9.656767 z"
     id="path247"
     inkscape:connector-curvature="0"
     style="fill:#e60012;stroke-width:0.63852727" />
  <path
     d="m 267.92288,85.432197 h 13.04192 l 6.44147,14.815933 9.66028,-14.815933 h 13.3599 l -18.83719,29.305973 -3.05791,22.86502 h -12.07519 l 3.54191,-26.08894 z"
     id="path249"
     inkscape:connector-curvature="0"
     style="fill:#ffffff;stroke-width:0.63852727" />
  <path
     d="m 171.95606,137.60319 1.61037,-11.59821 h -18.35255 l 1.12636,-9.01281 h 15.93828 l 1.61228,-11.59278 h -15.77865 l 1.12764,-8.374607 h 18.35128 l 1.77255,-11.592586 h -30.4303 l -7.246,52.170993 z"
     id="path251"
     inkscape:connector-curvature="0"
     style="fill:#ffffff;stroke-width:0.63852727" />
  <path
     d="M 70.19652,122.14126 H 59.248075 l -5.956118,15.45747 H 41.054645 l 0.804353,-2.41619 c -2.414719,1.28855 -9.177872,3.54382 -15.135651,3.22137 C 16.419304,138.56354 0.96182534,130.51235 2.8934636,113.6067 6.1765474,84.874316 38.317023,82.531815 50.554909,86.716914 L 48.782294,97.826973 C 30.42706,91.869763 14.969592,102.65743 14.487121,114.2497 c -0.482536,11.59374 10.304617,12.55919 11.753755,12.55919 1.449137,0 5.151765,-0.16155 6.762067,-1.12636 l 0.644785,-3.54191 h -9.178957 l 1.450223,-10.30519 h 20.931627 l -2.254576,16.90564 17.228999,-43.31098 h 15.457213 l 5.314463,42.82953 14.168282,-42.82953 h 12.397648 l 4.18682,27.53234 10.78728,-27.53234 h 13.84775 l 3.22073,52.16864 h -11.59247 l -1.93282,-29.94853 -11.59246,29.94853 h -10.4661 l -4.50928,-28.33848 -9.178196,28.33848 H 72.12998 Z m -2.576458,-21.09196 -4.025084,10.78676 h 5.314271 z"
     id="path253"
     inkscape:connector-curvature="0"
     style="clip-rule:evenodd;fill:#ffffff;fill-rule:evenodd;stroke-width:0.63852727" />
  <path
     d="m 230.4043,108.94162 c 4.02527,-19.483763 16.1011,-24.314222 24.47475,-23.99183 12.23482,0.483557 21.41493,10.304043 18.83847,28.98192 -2.57646,18.67756 -16.58383,24.95684 -26.56848,23.66893 -9.98274,-1.28791 -20.77002,-9.17755 -16.74474,-28.65902 z m 32.04066,2.89636 c 1.77127,-13.523557 -5.47346,-15.778137 -8.85446,-15.778137 -3.54446,-0.16122 -10.14556,3.38132 -11.9162,15.778137 -1.77127,12.39892 4.50737,14.4901 7.56783,14.81256 3.05918,0.32309 11.43092,-1.28727 13.20283,-14.81256 z"
     id="path255"
     inkscape:connector-curvature="0"
     style="clip-rule:evenodd;fill:#ffffff;fill-rule:evenodd;stroke-width:0.63852727" />
  <path
     d="m 194.82045,85.433922 -7.24537,52.167998 23.02466,-6.4e-4 c 10.4661,0 16.42356,-7.08318 17.55183,-14.33047 1.12637,-7.24537 -1.61036,-11.11037 -4.34901,-13.52401 0.23179,-0.16793 0.47635,-0.32245 0.72984,-0.48209 1.68699,-1.06353 3.74496,-2.36057 4.58463,-9.500637 0.96545,-8.211208 -6.76201,-14.330151 -12.07711,-14.330151 z m 9.17627,19.965528 h 6.76329 c 4.992,0 5.95809,-3.22066 6.11709,-4.50755 0.16154,-1.288997 -1.28664,-3.865447 -3.86245,-3.865447 H 205.125 Z m -2.89763,20.60873 h 9.17883 c 4.98945,0 6.11709,-3.86309 6.27672,-5.15228 0.16219,-1.28791 -1.28727,-3.86309 -3.86309,-3.86309 h -10.30328 z"
     id="path257"
     inkscape:connector-curvature="0"
     style="clip-rule:evenodd;fill:#ffffff;fill-rule:evenodd;stroke-width:0.63852727" />
  <path
     d="m 295.06221,129.71036 c -1.98646,0 -3.5898,1.60143 -3.5898,3.57831 0,1.99795 1.6027,3.60065 3.5898,3.60065 1.97624,0 3.57831,-1.6027 3.57831,-3.60065 -0.002,-1.97752 -1.60462,-3.57831 -3.57831,-3.57831 v -0.49231 c 2.25145,0 4.06997,1.82683 4.06997,4.07062 0,2.26485 -1.81852,4.09104 -4.06997,4.09104 -2.26549,-6.4e-4 -4.09168,-1.82619 -4.09168,-4.09104 0,-2.24443 1.82619,-4.06998 4.09168,-4.06998 z"
     id="path259"
     inkscape:connector-curvature="0"
     style="fill:#ffffff;stroke-width:0.63852727" />
  <path
     d="m 294.09612,131.41523 h 1.30387 c 0.56701,0 1.18447,0.0843 1.18447,0.79049 0,0.92842 -0.99227,0.82307 -1.63399,0.82307 l -0.85435,-10e-4 v 0.4393 h 1.02739 l 1.30259,2.10459 h 0.66216 l -1.37858,-2.10459 c 0.8122,-0.0211 1.44179,-0.35182 1.44179,-1.24959 0,-0.38567 -0.16985,-0.7905 -0.51146,-0.98397 -0.34161,-0.20242 -0.72728,-0.22349 -1.11231,-0.22349 h -1.98455 v 4.56036 h 0.55361 v -4.15489 z"
     id="path261"
     inkscape:connector-curvature="0"
     style="fill:#ffffff;stroke-width:0.63852727" />
  <path
     d="m 362.49516,91.695576 c -1.82363,-10.031903 -11.85553,-10.031903 -19.60726,-7.295941 -10.48781,3.64797 -15.50408,11.399888 -19.15198,21.431715 -3.64791,9.576 -2.27955,20.97563 5.92808,28.27144 7.75173,6.8399 19.15135,6.8399 28.27144,4.56036 6.8399,-1.36836 4.10381,-12.31208 -2.73609,-10.48845 -11.39963,2.73609 -24.16762,-1.36772 -21.88744,-15.04753 0.91182,-5.01589 3.64791,-12.31177 8.20763,-15.503697 1.82427,-0.91201 10.0319,-5.01595 10.48781,-2.73596 0.91246,6.839897 11.85618,3.64797 10.48781,-3.191937 z"
     id="path263"
     inkscape:connector-curvature="0"
     style="fill:#e30613;stroke-width:0.63852727" />
  <path
     d="m 370.24752,96.256253 c -11.85617,3.19194 -15.50408,16.415647 -11.39963,26.903457 5.47154,12.76799 19.60726,15.50408 30.55098,8.66417 21.88808,-13.6798 -3.192,-53.807347 -22.79925,-34.655617 -4.56037,4.559917 3.19199,11.855727 7.75172,7.295877 8.20763,-7.751907 18.23953,11.85566 9.57599,18.23966 -13.67981,10.0319 -23.2558,-12.76799 -11.39963,-15.95967 6.83991,-2.27999 4.10382,-12.311827 -2.28018,-10.487877 z"
     id="path265"
     inkscape:connector-curvature="0"
     style="fill:#5c2768;stroke-width:0.63852727" />
  <path
     d="m 445.02992,101.7276 c 0.37865,0.10102 0.75091,0.21321 1.11487,0.33625 6.21223,2.09935 10.20941,7.36369 8.91704,14.25531 -1.36773,5.47218 -7.75173,10.48782 -13.67981,8.66418 -4.10382,-0.91182 -5.92809,-6.38399 -6.384,-10.0319 -0.45591,-5.92809 3.192,-10.0319 9.12009,-11.85586 0.79816,-0.24953 1.47116,-0.60277 2.02668,-1.03173 4.52141,-3.490567 1.27897,-11.992496 -5.21868,-10.368147 -10.48781,3.64797 -17.78363,12.311827 -17.32772,23.711647 0,9.57599 6.384,18.69544 15.95999,21.43153 11.85554,3.192 23.71108,-6.384 26.90307,-17.32772 4.10446,-13.22364 -5.47154,-25.991437 -18.23953,-29.183438 -7.29581,-1.36798 -10.48781,9.575871 -3.192,11.399878 z"
     id="path267"
     inkscape:connector-curvature="0"
     style="fill:#ffd600;stroke-width:0.63852727" />
  <path
     d="m 485.34334,116.52285 c 7.47524,-5.58392 14.39049,-12.56947 11.67037,-22.090607 -2.73609,-11.399823 -19.15199,-10.487878 -27.81553,-8.663797 -2.28018,0.455972 -4.10381,2.735898 -4.10381,5.01576 0.16793,2.690497 0.38247,5.396447 0.5983,8.112237 0.95268,12.013117 1.92069,24.217927 -1.05485,36.119437 -0.91182,6.83991 9.12008,9.57536 10.94436,3.192 1.29046,-4.87516 1.94942,-9.75031 2.21824,-14.64015 5.33617,5.4179 10.63595,11.16848 15.56538,16.91969 4.55972,5.01563 11.85554,-2.28018 7.29581,-7.29581 -4.85344,-5.66182 -10.0651,-11.32428 -15.31827,-16.66876 z m -8.26892,-16.706357 c 0.23114,3.171117 0.46101,6.327487 0.62767,9.472487 3.88288,-2.5944 7.73384,-5.6753 9.27971,-9.384877 1.95198,-4.55449 -5.14844,-4.69912 -10.20558,-4.24238 0.0639,0.92459 0.13026,1.8479 0.19731,2.77 z"
     id="path269"
     inkscape:connector-curvature="0"
     style="clip-rule:evenodd;fill:#008191;fill-rule:evenodd;stroke-width:0.63852727" />
  <path
     d="m 394.41514,89.416033 c 6.83991,12.311757 5.92809,27.359677 5.92809,41.495397 0,3.192 3.192,6.38399 6.8399,5.01563 5.92809,-1.82363 11.85554,-2.73545 18.23954,-4.10381 6.8399,-1.36773 3.6479,-11.85554 -2.73609,-10.03191 -3.6875,0.85116 -7.55187,1.52608 -11.37345,2.35298 0.0498,-13.77431 -0.27074,-27.600467 -7.32199,-39.744238 -3.64791,-5.927896 -13.22391,-0.912009 -9.576,5.015951 z"
     id="path271"
     inkscape:connector-curvature="0"
     style="fill:#49ad33;stroke-width:0.63852727" />
</svg>
