<?xml version="1.0" encoding="UTF-8" standalone="no"?>
<svg
   xmlns:dc="http://purl.org/dc/elements/1.1/"
   xmlns:cc="http://creativecommons.org/ns#"
   xmlns:rdf="http://www.w3.org/1999/02/22-rdf-syntax-ns#"
   xmlns:svg="http://www.w3.org/2000/svg"
   xmlns="http://www.w3.org/2000/svg"
   xmlns:sodipodi="http://sodipodi.sourceforge.net/DTD/sodipodi-0.dtd"
   xmlns:inkscape="http://www.inkscape.org/namespaces/inkscape"
   width="500"
   height="200"
   viewBox="0 0 500 200"
   version="1.1"
   id="svg126"
   sodipodi:docname="hgp.svg"
   style="fill:none"
   inkscape:version="0.92.5 (2060ec1f9f, 2020-04-08)">
  <metadata
     id="metadata132">
    <rdf:RDF>
      <cc:Work
         rdf:about="">
        <dc:format>image/svg+xml</dc:format>
        <dc:type
           rdf:resource="http://purl.org/dc/dcmitype/StillImage" />
        <dc:title />
      </cc:Work>
    </rdf:RDF>
  </metadata>
  <defs
     id="defs130" />
  <sodipodi:namedview
     pagecolor="#ffffff"
     bordercolor="#666666"
     borderopacity="1"
     objecttolerance="10"
     gridtolerance="10"
     guidetolerance="10"
     inkscape:pageopacity="0"
     inkscape:pageshadow="2"
     inkscape:window-width="1366"
     inkscape:window-height="743"
     id="namedview128"
     showgrid="false"
     inkscape:pagecheckerboard="true"
     inkscape:zoom="1.3044748"
     inkscape:cx="298.55817"
     inkscape:cy="10.710205"
     inkscape:window-x="0"
     inkscape:window-y="0"
     inkscape:window-maximized="1"
     inkscape:current-layer="svg126" />
  <path
     d="M 36.102614,140.14142 H 31.440329 L 7.081624,105.11434 v 35.02708 H 2.2997761 V 97.941525 H 8.1575519 L 31.349579,131.41489 V 97.941525 h 4.753035 z"
     id="path76"
     inkscape:connector-curvature="0"
     style="fill:#ffffff;stroke-width:0.8776561" />
  <path
     d="M 64.196123,140.14142 H 40.64545 L 40.5547,97.941525 h 23.550673 v 4.769705 H 45.291937 v 13.35617 h 17.582699 v 4.73382 H 45.291937 v 15.38461 h 18.850649 z"
     id="path78"
     inkscape:connector-curvature="0"
     style="fill:#ffffff;stroke-width:0.8776561" />
  <path
     d="m 88.313937,96.739845 c -2.928738,0 -5.828689,0.57688 -8.534503,1.69765 -2.705726,1.12076 -5.164217,2.763465 -7.235134,4.834385 -2.070917,2.07083 -3.713626,4.52941 -4.834393,7.23513 -1.120767,2.70573 -1.697563,5.60577 -1.697563,8.53442 0,2.92874 0.576796,5.82869 1.697563,8.5345 1.120767,2.7059 2.763476,5.16422 4.834393,7.23549 2.070917,2.07039 4.529408,3.71336 7.235134,4.83413 2.705814,1.12076 5.605765,1.69738 8.534503,1.69738 2.928388,0 5.829041,-0.57662 8.533978,-1.69738 2.705813,-1.12077 5.165005,-2.76374 7.235405,-4.83413 2.07126,-2.07127 3.71424,-4.52959 4.835,-7.23549 1.12077,-2.70581 1.69739,-5.60576 1.69739,-8.5345 0,-2.92865 -0.57662,-5.82869 -1.69739,-8.53442 -1.12076,-2.70572 -2.76374,-5.1643 -4.835,-7.23513 -2.0704,-2.07092 -4.529592,-3.713625 -7.235405,-4.834385 -2.704937,-1.12077 -5.60559,-1.69765 -8.533978,-1.69765 z m 0.05915,4.906705 c 2.292614,0 4.562233,0.45146 6.680017,1.32859 2.117784,0.87722 4.041604,2.1629 5.662636,3.78375 1.62104,1.62086 2.90681,3.54512 3.78358,5.66291 0.87766,2.11769 1.32878,4.38749 1.32878,6.67975 0,4.6292 -1.83957,9.06864 -5.11236,12.3423 -3.273656,3.27278 -7.713719,5.11147 -12.342653,5.11147 -4.629109,0 -9.068469,-1.83869 -12.341775,-5.11235 -3.273219,-3.27278 -5.112172,-7.71231 -5.11226,-12.34142 -1.75e-4,-4.6292 1.83869,-9.06891 5.111996,-12.3423 3.273219,-3.27349 7.712842,-5.11253 12.342039,-5.1127 z"
     id="path80"
     inkscape:connector-curvature="0"
     style="fill:#ffffff;stroke-width:0.8776561" />
  <path
     d="m 207.86089,96.739845 c -2.92874,0 -5.8294,0.57688 -8.53521,1.69765 -2.70494,1.12076 -5.16413,2.763465 -7.23452,4.834385 -2.07127,2.07083 -3.71424,4.52932 -4.83501,7.23513 -1.12076,2.70573 -1.69738,5.60577 -1.69738,8.53442 0,2.92874 0.57662,5.82869 1.69738,8.5345 1.12077,2.7059 2.76374,5.16422 4.83501,7.23549 2.07039,2.07039 4.52958,3.71336 7.23452,4.83413 2.70581,1.12076 5.60647,1.69738 8.53521,1.69738 2.92873,0 5.82851,-0.57662 8.53432,-1.69738 2.70582,-1.12077 5.16413,-2.76374 7.23452,-4.83413 2.07127,-2.07127 3.71424,-4.52959 4.83501,-7.23549 1.12077,-2.70581 1.69739,-5.60576 1.69739,-8.5345 0,-2.92865 -0.57662,-5.82869 -1.69739,-8.53442 -1.12077,-2.70572 -2.76374,-5.1643 -4.83501,-7.23513 -2.07039,-2.07092 -4.5287,-3.713625 -7.23452,-4.834385 -2.70581,-1.12077 -5.60559,-1.69765 -8.53432,-1.69765 z m 0.0588,4.906705 c 2.29244,0 4.56206,0.45146 6.67984,1.32859 2.11778,0.87722 4.04161,2.1629 5.66264,3.78375 1.62103,1.62086 2.90679,3.54512 3.78357,5.66291 0.87766,2.11769 1.32877,4.38749 1.32877,6.67975 0,4.6292 -1.83869,9.06864 -5.11234,12.3423 -3.27366,3.27278 -7.71285,5.11147 -12.34248,5.11147 -4.62876,0 -9.06882,-1.83869 -12.3416,-5.11235 -3.27366,-3.27278 -5.11235,-7.7124 -5.11235,-12.34142 0,-4.6292 1.83869,-9.06891 5.11235,-12.3423 3.27278,-3.27349 7.71284,-5.11253 12.3416,-5.1127 z"
     id="path82"
     inkscape:connector-curvature="0"
     style="fill:#ffffff;stroke-width:0.8776561" />
  <path
     d="m 135.60434,96.513405 c -2.38284,0.0343 -4.79464,0.45226 -7.14851,1.28796 -10.75831,3.820435 -16.96422,15.180285 -14.4041,26.333625 2.561,11.15299 13.10429,18.64292 24.44448,17.34661 11.33932,-1.29542 19.93157,-11.89838 19.93157,-21.6523 h -5.29051 c 0,7.37214 -6.54292,15.40251 -15.24225,16.39602 -8.69933,0.99439 -16.71409,-4.69107 -18.68442,-13.27472 -1.97034,-8.58322 2.76198,-17.23129 11.01809,-20.16301 7.38197,-2.62156 15.41866,0.0858 19.78149,6.34809 h 6.11902 c -3.75373,-7.68301 -11.39285,-12.359415 -19.50678,-12.613935 -0.33878,-0.0106 -0.67843,-0.0132 -1.01808,-0.009 z"
     id="path84"
     inkscape:connector-curvature="0"
     style="fill:#ffffff;stroke-width:0.8776561" />
  <path
     d="m 158.42778,119.82895 h -29.53313 v 4.7762 h 25.86629 z"
     id="path86"
     inkscape:connector-curvature="0"
     style="fill:#ffffff;stroke-width:0.8776561" />
  <path
     d="m 184.69954,140.14142 h -23.55102 l -0.0904,-42.199895 h 23.55014 v 4.769705 h -18.81343 v 13.35617 h 17.58296 v 4.73382 h -17.58296 v 15.38461 H 184.646 Z"
     id="path88"
     inkscape:connector-curvature="0"
     style="fill:#ffffff;stroke-width:0.8776561" />
  <path
     d="m 305.88893,96.739845 c -2.92874,0 -5.82851,0.57688 -8.53433,1.69765 -2.70581,1.12076 -5.16413,2.763465 -7.23539,4.834385 -2.07127,2.07083 -3.71337,4.52932 -4.83413,7.23513 -1.12077,2.70573 -1.69827,5.60577 -1.69827,8.53442 0,2.92874 0.5775,5.82869 1.69827,8.5345 1.12076,2.7059 2.76286,5.16422 4.83413,7.23549 2.07126,2.07039 4.52958,3.71336 7.23539,4.83413 2.70582,1.12076 5.60559,1.69738 8.53433,1.69738 2.92874,0 5.82852,-0.57662 8.53433,-1.69738 2.70581,-1.12077 5.16413,-2.76374 7.2354,-4.83413 2.07039,-2.07127 3.71336,-4.52959 4.83413,-7.23549 1.12076,-2.70581 1.69738,-5.60576 1.69738,-8.5345 0,-2.92865 -0.57662,-5.82869 -1.69738,-8.53442 -1.12077,-2.70572 -2.76374,-5.1643 -4.83413,-7.23513 -2.07127,-2.07092 -4.52959,-3.713625 -7.2354,-4.834385 -2.70581,-1.12077 -5.60559,-1.69765 -8.53433,-1.69765 z m 0.0588,4.906705 c 2.29244,0 4.56206,0.45146 6.67984,1.32859 2.11779,0.87722 4.04249,2.1629 5.66264,3.78375 1.62103,1.62086 2.9068,3.54512 3.78446,5.66291 0.87677,2.11769 1.32877,4.38749 1.32789,6.67975 0,4.6292 -1.83869,9.06864 -5.11235,12.3423 -3.27366,3.27278 -7.71284,5.11147 -12.34248,5.11147 -4.62875,0 -9.06794,-1.83869 -12.3416,-5.11235 -3.27278,-3.27278 -5.11234,-7.7124 -5.11234,-12.34142 0,-4.6292 1.83869,-9.06891 5.11234,-12.3423 3.27278,-3.27349 7.71285,-5.11253 12.3416,-5.1127 z"
     id="path90"
     inkscape:connector-curvature="0"
     style="fill:#ffffff;stroke-width:0.8776561" />
  <path
     d="m 355.09121,96.512615 v 8.8e-4 c -2.38196,0.0343 -4.79376,0.45217 -7.14763,1.28796 -10.75831,3.820435 -16.96422,15.180285 -14.40409,26.333625 2.561,11.15369 13.10428,18.64274 24.44448,17.34644 7.89539,-0.90223 14.45499,-6.31737 17.71373,-12.81642 h -6.04881 c -2.72863,3.92049 -7.11954,6.9721 -12.26612,7.56101 -8.69933,0.99351 -16.71408,-4.69195 -18.68442,-13.27543 -1.97034,-8.58321 2.76198,-17.23137 11.01809,-20.16309 7.38197,-2.62147 15.41867,0.0859 19.7815,6.34817 h 6.11901 c -3.75373,-7.683 -11.39285,-12.359405 -19.50678,-12.613925 -0.33878,-0.0108 -0.67843,-0.0128 -1.01896,-0.009 z"
     id="path92"
     inkscape:connector-curvature="0"
     style="fill:#ffffff;stroke-width:0.8776561" />
  <path
     d="m 447.22316,140.14142 h -23.55014 l -0.0913,-42.199895 h 23.55102 v 4.769705 h -18.81343 v 13.35617 h 17.58296 v 4.73382 h -17.58296 v 15.38461 h 18.85029 z"
     id="path94"
     inkscape:connector-curvature="0"
     style="fill:#ffffff;stroke-width:0.8776561" />
  <path
     d="m 381.11459,97.941525 h 4.81044 v 42.199895 h -4.81044 z"
     id="path96"
     inkscape:connector-curvature="0"
     style="fill:#ffffff;stroke-width:0.8776561" />
  <path
     d="m 409.71477,140.14142 h 6.3358 l -21.87733,-22.71365 -3.94419,2.98868 z"
     id="path98"
     inkscape:connector-curvature="0"
     style="fill:#ffffff;stroke-width:0.8776561" />
  <path
     d="m 409.59541,97.941525 h 6.21644 l -32.3978,33.592725 1.31561,-8.72706 z"
     id="path100"
     inkscape:connector-curvature="0"
     style="fill:#ffffff;stroke-width:0.8776561" />
  <path
     d="m 454.66393,97.941525 h 34.42957 v 4.769705 h -34.42957 z"
     id="path102"
     inkscape:connector-curvature="0"
     style="fill:#ffffff;stroke-width:0.8776561" />
  <path
     d="m 469.36818,97.941525 h 4.87275 v 42.199895 h -4.87275 z"
     id="path104"
     inkscape:connector-curvature="0"
     style="fill:#ffffff;stroke-width:0.8776561" />
  <path
     d="m 244.5276,99.384655 6.04003,-17.410851 16.03917,0.0482 0.13691,7.80596 -10.58541,-0.0851 -2.16254,8.012911 10.86889,7.862395 c 5.35634,-2.20055 9.17941,-6.987455 9.96579,-12.477635 0.7855,-5.490091 -1.59119,-10.805001 -6.19538,-13.853891 -4.60418,-3.0488 -10.67669,-3.24926 -15.86539,-0.6743 l -17.45482,8.66211 26.30511,53.007446 -6.85362,3.40093 -29.86576,-60.182036 24.84381,-12.32887 c 8.13851,-4.03853 17.82256,-3.05942 24.74113,2.50123 6.91856,5.56074 9.78411,14.66853 7.31965,23.267541 -2.46358,8.599005 -10.11938,14.981505 -18.25964,17.544785 z"
     id="path106"
     inkscape:connector-curvature="0"
     style="fill:#e81a2e;stroke-width:0.8776561" />
  <path
     d="m 264.56888,40.326473 -2.79007,20.710401 5.24136,1.0144 7.35388,-20.287753 z"
     id="path108"
     inkscape:connector-curvature="0"
     style="fill:#e81a2e;stroke-width:0.8776561" />
  <path
     d="m 285.10954,46.835398 -10.31245,17.920806 4.56468,3.04319 13.01828,-15.807556 z"
     id="path110"
     inkscape:connector-curvature="0"
     style="fill:#e81a2e;stroke-width:0.8776561" />
  <path
     d="m 298.88875,59.261463 -14.96229,13.356091 3.46587,5.1564 16.48326,-10.3129 z"
     id="path112"
     inkscape:connector-curvature="0"
     style="fill:#e81a2e;stroke-width:0.8776561" />
  <path
     d="m 488.72401,134.73331 v 5.42918 h 0.90486 v -4.62086 l 1.47095,4.62086 h 0.79165 l 1.35773,-4.62086 v 4.62086 h 0.79165 v -5.42918 h -1.24452 l -1.35685,4.39003 -1.35774,-4.39003 z m -3.16658,0.80919 v 4.61999 h 0.79164 v -4.61999 h 1.92295 v -0.80919 h -4.4111 v 0.80919 z"
     id="path114"
     inkscape:connector-curvature="0"
     style="clip-rule:evenodd;fill:#ffffff;fill-rule:evenodd;stroke-width:0.8776561" />
  <path
     d="m 2.7896469,70.098414 c 0,3.58057 2.3870421,6.47921 5.342444,6.47921 H 22.965857 c 0.341057,0 0.682026,0.34097 0.682026,0.79568 0,0.45463 -0.284185,0.7956 -0.682026,0.7956 H 2.7328353 v 5.74039 H 25.352906 c 2.955419,0 5.342468,-2.95542 5.342468,-6.53599 0,-3.58057 -2.387049,-6.5359 -5.342468,-6.5359 H 10.575942 c -0.341013,0 -0.6820001,-0.34106 -0.6820001,-0.79569 0,-0.45471 0.2841761,-0.79568 0.6820001,-0.79568 H 30.63859 v -5.62674 H 8.1330469 c -2.9554013,0 -5.3424451,2.89855 -5.3424451,6.47912 z"
     id="path116"
     inkscape:connector-curvature="0"
     style="fill:#0097e0;stroke-width:0.8776561" />
  <path
     d="m 32.287355,63.619294 v 20.17661 h 7.104451 v -12.67432 l 13.526875,12.67432 h 7.388635 v -20.17661 h -7.10445 v 12.61745 L 39.675991,63.619294 Z"
     id="path118"
     inkscape:connector-curvature="0"
     style="fill:#0097e0;stroke-width:0.8776561" />
  <path
     d="m 69.059918,72.485634 v -8.86634 H 61.84181 v 20.17661 h 7.218108 v -8.92322 l 11.480795,8.92322 H 89.8049 L 76.732738,73.736034 89.8049,63.619294 h -9.264187 z"
     id="path120"
     inkscape:connector-curvature="0"
     style="fill:#0097e0;stroke-width:0.8776561" />
  <path
     d="m 91.905833,63.619294 c 0.567843,0 1.078639,0.22731 1.477973,0.62515 v 0 c 0.398456,0.39784 0.567843,0.85256 0.624891,1.47771 0,0.5682 -0.226435,1.07978 -0.624891,1.47771 -0.397578,0.39784 -0.909252,0.62516 -1.477973,0.62516 -0.567844,0 -1.079517,-0.22732 -1.477973,-0.62516 -0.397403,-0.39784 -0.624803,-0.90934 -0.624803,-1.47771 0,-0.56837 0.227313,-1.07987 0.624803,-1.47771 0.399334,-0.39784 0.910129,-0.62515 1.477973,-0.62515 z m 0,3.86493 c 0.511673,0 0.909252,-0.17044 1.25066,-0.5115 0.34053,-0.34097 0.510796,-0.79568 0.510796,-1.2503 0,-0.45472 -0.170266,-0.90934 -0.510796,-1.2504 -0.341408,-0.34097 -0.738987,-0.5115 -1.25066,-0.5115 -0.454626,0 -0.909252,0.17053 -1.25066,0.5115 -0.340531,0.34106 -0.511674,0.73881 -0.511674,1.2504 0,0.45462 0.171143,0.90933 0.511674,1.2503 0.341408,0.34106 0.738986,0.5115 1.25066,0.5115 z"
     id="path122"
     inkscape:connector-curvature="0"
     style="clip-rule:evenodd;fill:#0097e0;fill-rule:evenodd;stroke-width:0.8776561" />
  <path
     d="m 92.87301,65.324134 v 0.0569 0 c 0,0.22731 -0.114095,0.39784 -0.284361,0.45471 0.0158,0.0312 0.03511,0.0625 0.05617,0.0949 0.05441,0.0856 0.114096,0.1793 0.114096,0.30296 l 0.05705,0.5115 h -0.341408 l -0.05705,-0.5115 c 0,-0.11374 -0.113217,-0.2274 -0.283482,-0.2274 h -0.738987 v 0.79568 H 91.05363 v -2.10286 h 1.193612 c 0.341408,0 0.625769,0.28419 0.625769,0.62515 z m -0.625769,-0.28427 h -0.852204 v 0 0.68203 h 0.852204 c 0.170265,0 0.284361,-0.11366 0.284361,-0.28419 v -0.11365 c 0,-0.17053 -0.114096,-0.28419 -0.284361,-0.28419 z"
     id="path124"
     inkscape:connector-curvature="0"
     style="clip-rule:evenodd;fill:#0097e0;fill-rule:evenodd;stroke-width:0.8776561" />
</svg>
