<?xml version="1.0" encoding="UTF-8" standalone="no"?>
<!-- Created with Inkscape (http://www.inkscape.org/) -->

<svg
   xmlns:dc="http://purl.org/dc/elements/1.1/"
   xmlns:cc="http://creativecommons.org/ns#"
   xmlns:rdf="http://www.w3.org/1999/02/22-rdf-syntax-ns#"
   xmlns:svg="http://www.w3.org/2000/svg"
   xmlns="http://www.w3.org/2000/svg"
   xmlns:sodipodi="http://sodipodi.sourceforge.net/DTD/sodipodi-0.dtd"
   xmlns:inkscape="http://www.inkscape.org/namespaces/inkscape"
   version="1.1"
   id="svg2"
   xml:space="preserve"
   width="500"
   height="200"
   viewBox="0 0 500 200"
   sodipodi:docname="kof.svg"
   inkscape:version="0.92.5 (2060ec1f9f, 2020-04-08)"><metadata
     id="metadata8"><rdf:RDF><cc:Work
         rdf:about=""><dc:format>image/svg+xml</dc:format><dc:type
           rdf:resource="http://purl.org/dc/dcmitype/StillImage" /><dc:title /></cc:Work></rdf:RDF></metadata><defs
     id="defs6"><clipPath
       clipPathUnits="userSpaceOnUse"
       id="clipPath18"><path
         d="M 0,396.85 H 595.28 V 0 H 0 Z"
         id="path16"
         inkscape:connector-curvature="0" /></clipPath><clipPath
       clipPathUnits="userSpaceOnUse"
       id="clipPath34"><path
         d="m 175.135,266.175 c 0,0 -9.999,-16.667 -40.167,-28 v 0 l -4.916,-12.75 -5.334,0.083 c 0,0 -5.749,-10.584 -37.416,-24.833 v 0 h 33.083 c 0,-1 -14.388,-46.875 -33.756,-65.5 v 0 c 0,0 59.756,10.5 77.006,85.249 v 0 l 5.5,16.001 h 38 l 19.25,29.75 z"
         id="path32"
         inkscape:connector-curvature="0" /></clipPath><linearGradient
       x1="0"
       y1="0"
       x2="1"
       y2="0"
       gradientUnits="userSpaceOnUse"
       gradientTransform="matrix(91.663811,158.7664,158.7664,-91.663811,96.746582,129.33301)"
       spreadMethod="pad"
       id="linearGradient50"><stop
         style="stop-opacity:1;stop-color:#295da9"
         offset="0"
         id="stop40" /><stop
         style="stop-opacity:1;stop-color:#295da9"
         offset="0.0052356"
         id="stop42" /><stop
         style="stop-opacity:1;stop-color:#295da9"
         offset="0.33581042"
         id="stop44" /><stop
         style="stop-opacity:1;stop-color:#272e65"
         offset="0.795811"
         id="stop46" /><stop
         style="stop-opacity:1;stop-color:#272e65"
         offset="1"
         id="stop48" /></linearGradient><clipPath
       clipPathUnits="userSpaceOnUse"
       id="clipPath60"><path
         d="M 0,396.85 H 595.28 V 0 H 0 Z"
         id="path58"
         inkscape:connector-curvature="0" /></clipPath><clipPath
       clipPathUnits="userSpaceOnUse"
       id="clipPath72"><path
         d="m 191.189,251.41 -2.814,-6.94 7.784,-0.094 -7.316,-19.037 h 8.722 l 7.315,19.131 h 7.034 l 2.721,6.94 z"
         id="path70"
         inkscape:connector-curvature="0" /></clipPath><linearGradient
       x1="0"
       y1="0"
       x2="1"
       y2="0"
       gradientUnits="userSpaceOnUse"
       gradientTransform="matrix(-1.1e-6,-26.071289,-26.071289,1.1e-6,201.50488,251.41016)"
       spreadMethod="pad"
       id="linearGradient86"><stop
         style="stop-opacity:1;stop-color:#e6342a"
         offset="0"
         id="stop78" /><stop
         style="stop-opacity:1;stop-color:#e6342a"
         offset="0.0104712"
         id="stop80" /><stop
         style="stop-opacity:1;stop-color:#f9b233"
         offset="0.989529"
         id="stop82" /><stop
         style="stop-opacity:1;stop-color:#f9b233"
         offset="1"
         id="stop84" /></linearGradient><clipPath
       clipPathUnits="userSpaceOnUse"
       id="clipPath96"><path
         d="m 239.206,251.41 c -0.281,0 -3.844,-9.471 -3.844,-9.471 v 0 h -10.599 l 3.095,9.471 h -8.44 l -9.754,-26.071 h 8.536 l 3.749,9.66 h 10.973 l -3.562,-9.66 h 8.814 c 0,0 9.566,26.071 9.847,26.071 v 0 c 0.188,0 -3.667,0.001 -6.342,0.001 v 0 c -1.337,0 -2.38,0 -2.473,-0.001"
         id="path94"
         inkscape:connector-curvature="0" /></clipPath><linearGradient
       x1="0"
       y1="0"
       x2="1"
       y2="0"
       gradientUnits="userSpaceOnUse"
       gradientTransform="matrix(-1.1e-6,-26.071777,-26.071777,1.1e-6,228.84619,251.41064)"
       spreadMethod="pad"
       id="linearGradient110"><stop
         style="stop-opacity:1;stop-color:#e6342a"
         offset="0"
         id="stop102" /><stop
         style="stop-opacity:1;stop-color:#e6342a"
         offset="0.0104712"
         id="stop104" /><stop
         style="stop-opacity:1;stop-color:#f9b233"
         offset="0.989529"
         id="stop106" /><stop
         style="stop-opacity:1;stop-color:#f9b233"
         offset="1"
         id="stop108" /></linearGradient><clipPath
       clipPathUnits="userSpaceOnUse"
       id="clipPath120"><path
         d="m 252.526,251.41 -9.755,-26.071 h 23.165 l 2.439,6.847 h -14.35 l 1.031,2.907 h 14.35 l 2.625,6.751 h -14.347 l 1.031,2.627 h 14.255 l 3.001,6.939 z"
         id="path118"
         inkscape:connector-curvature="0" /></clipPath><linearGradient
       x1="0"
       y1="0"
       x2="1"
       y2="0"
       gradientUnits="userSpaceOnUse"
       gradientTransform="matrix(-1.1e-6,-26.071289,-26.071289,1.1e-6,259.37109,251.41016)"
       spreadMethod="pad"
       id="linearGradient134"><stop
         style="stop-opacity:1;stop-color:#e6342a"
         offset="0"
         id="stop126" /><stop
         style="stop-opacity:1;stop-color:#e6342a"
         offset="0.0104712"
         id="stop128" /><stop
         style="stop-opacity:1;stop-color:#f9b233"
         offset="0.989529"
         id="stop130" /><stop
         style="stop-opacity:1;stop-color:#f9b233"
         offset="1"
         id="stop132" /></linearGradient><clipPath
       clipPathUnits="userSpaceOnUse"
       id="clipPath144"><path
         d="m 309.733,251.41 -11.821,-10.502 h -1.026 l 3.751,10.502 h -8.628 l -9.847,-26.071 h 8.722 l 4.97,13.035 4.501,-13.035 h 8.816 l -4.596,14.068 13.504,12.003 z"
         id="path142"
         inkscape:connector-curvature="0" /></clipPath><linearGradient
       x1="0"
       y1="0"
       x2="1"
       y2="0"
       gradientUnits="userSpaceOnUse"
       gradientTransform="matrix(-1.1e-6,-26.071289,-26.071289,1.1e-6,300.12109,251.41016)"
       spreadMethod="pad"
       id="linearGradient158"><stop
         style="stop-opacity:1;stop-color:#e6342a"
         offset="0"
         id="stop150" /><stop
         style="stop-opacity:1;stop-color:#e6342a"
         offset="0.0104712"
         id="stop152" /><stop
         style="stop-opacity:1;stop-color:#f9b233"
         offset="0.989529"
         id="stop154" /><stop
         style="stop-opacity:1;stop-color:#f9b233"
         offset="1"
         id="stop156" /></linearGradient><clipPath
       clipPathUnits="userSpaceOnUse"
       id="clipPath168"><path
         d="m 323.051,251.41 -9.845,-26.071 h 9.002 l 9.566,26.071 z"
         id="path166"
         inkscape:connector-curvature="0" /></clipPath><linearGradient
       x1="0"
       y1="0"
       x2="1"
       y2="0"
       gradientUnits="userSpaceOnUse"
       gradientTransform="matrix(-1.1e-6,-26.071289,-26.071289,1.1e-6,322.49023,251.41016)"
       spreadMethod="pad"
       id="linearGradient182"><stop
         style="stop-opacity:1;stop-color:#e6342a"
         offset="0"
         id="stop174" /><stop
         style="stop-opacity:1;stop-color:#e6342a"
         offset="0.0104712"
         id="stop176" /><stop
         style="stop-opacity:1;stop-color:#f9b233"
         offset="0.989529"
         id="stop178" /><stop
         style="stop-opacity:1;stop-color:#f9b233"
         offset="1"
         id="stop180" /></linearGradient><clipPath
       clipPathUnits="userSpaceOnUse"
       id="clipPath192"><path
         d="m 360.689,251.421 c -2.012,-0.027 -3.922,-0.054 -3.965,-0.011 v 0 c -0.095,0.093 -4.877,-13.036 -4.877,-13.036 v 0 l -7.409,13.036 h -7.691 l -10.035,-26.071 h 8.629 l 5.346,13.881 8.064,-13.881 h 6.848 c 0,0 9.611,25.931 9.751,26.071 v 0 c 0.034,0.034 -0.447,0.046 -1.197,0.046 v 0 c -0.906,0 -2.205,-0.017 -3.464,-0.035"
         id="path190"
         inkscape:connector-curvature="0" /></clipPath><linearGradient
       x1="0"
       y1="0"
       x2="1"
       y2="0"
       gradientUnits="userSpaceOnUse"
       gradientTransform="matrix(-1.1e-6,-26.117188,-26.117188,1.1e-6,346.03223,251.45605)"
       spreadMethod="pad"
       id="linearGradient206"><stop
         style="stop-opacity:1;stop-color:#e6342a"
         offset="0"
         id="stop198" /><stop
         style="stop-opacity:1;stop-color:#e6342a"
         offset="0.0104712"
         id="stop200" /><stop
         style="stop-opacity:1;stop-color:#f9b233"
         offset="0.989529"
         id="stop202" /><stop
         style="stop-opacity:1;stop-color:#f9b233"
         offset="1"
         id="stop204" /></linearGradient><clipPath
       clipPathUnits="userSpaceOnUse"
       id="clipPath216"><path
         d="m 372.73,249.739 c -1.891,-1.032 -3.723,-2.258 -5.258,-3.774 v 0 c -3.106,-3.063 -5.965,-7.91 -4.909,-12.448 v 0 c 0.541,-2.327 2.196,-4.237 4.119,-5.588 v 0 c 1.501,-1.053 3.24,-1.746 5.034,-2.102 v 0 c 4.794,-0.949 9.897,-0.488 14.759,-0.488 v 0 l 6.176,16.891 c 0,0 -9.992,-0.182 -9.931,0 v 0 c 0.06,0.181 -5.994,-6.965 -5.994,-6.965 v 0 h 4.48 l -1.211,-2.725 c -11.445,-0.787 -8.237,6.238 -8.237,6.238 v 0 c 3.27,6.783 9.206,6.056 9.206,6.056 v 0 h 8.539 l 5.929,6.616 c -0.543,-0.027 -8.169,0.006 -8.169,0.006 v 0 c -1.35,0.099 -2.595,0.142 -3.742,0.142 v 0 c -7.551,0 -10.791,-1.859 -10.791,-1.859 m 22.702,1.711 c 0.038,0.002 0.042,0.004 0.006,0.006 v 0 z"
         id="path214"
         inkscape:connector-curvature="0" /></clipPath><linearGradient
       x1="0"
       y1="0"
       x2="1"
       y2="0"
       gradientUnits="userSpaceOnUse"
       gradientTransform="matrix(-1.2e-6,-26.370605,-26.370605,1.2e-6,378.90137,251.59766)"
       spreadMethod="pad"
       id="linearGradient230"><stop
         style="stop-opacity:1;stop-color:#e6342a"
         offset="0"
         id="stop222" /><stop
         style="stop-opacity:1;stop-color:#e6342a"
         offset="0.0104712"
         id="stop224" /><stop
         style="stop-opacity:1;stop-color:#f9b233"
         offset="0.989529"
         id="stop226" /><stop
         style="stop-opacity:1;stop-color:#f9b233"
         offset="1"
         id="stop228" /></linearGradient><clipPath
       clipPathUnits="userSpaceOnUse"
       id="clipPath240"><path
         d="m 413.146,249.066 c -8.706,-5.017 -13.081,-13.743 -9.766,-19.49 v 0 c 3.308,-5.75 13.056,-6.348 21.767,-1.331 v 0 c 8.703,5.016 13.075,13.744 9.762,19.493 v 0 c -1.802,3.131 -5.512,4.733 -9.925,4.733 v 0 c -3.69,0.001 -7.871,-1.12 -11.838,-3.405 m 0.202,-14.591 c -1.597,2.203 -0.335,5.842 2.815,8.126 v 0 c 3.154,2.285 7.006,2.35 8.602,0.146 v 0 c 1.597,-2.204 0.336,-5.843 -2.814,-8.127 v 0 c -1.614,-1.169 -3.411,-1.757 -4.995,-1.757 v 0 c -1.511,0 -2.828,0.535 -3.608,1.612"
         id="path238"
         inkscape:connector-curvature="0" /></clipPath><linearGradient
       x1="0"
       y1="0"
       x2="1"
       y2="0"
       gradientUnits="userSpaceOnUse"
       gradientTransform="matrix(-1.2e-6,-27.631348,-27.631348,1.2e-6,419.14453,252.47119)"
       spreadMethod="pad"
       id="linearGradient254"><stop
         style="stop-opacity:1;stop-color:#e6342a"
         offset="0"
         id="stop246" /><stop
         style="stop-opacity:1;stop-color:#e6342a"
         offset="0.0104712"
         id="stop248" /><stop
         style="stop-opacity:1;stop-color:#f9b233"
         offset="0.989529"
         id="stop250" /><stop
         style="stop-opacity:1;stop-color:#f9b233"
         offset="1"
         id="stop252" /></linearGradient><clipPath
       clipPathUnits="userSpaceOnUse"
       id="clipPath264"><path
         d="m 442.66,251.599 -9.989,-25.957 h 8.994 l 3.447,9.871 h 13.844 l 2.687,6.835 h -13.552 l 0.877,2.627 h 13.902 l 2.57,6.624 z"
         id="path262"
         inkscape:connector-curvature="0" /></clipPath><linearGradient
       x1="0"
       y1="0"
       x2="1"
       y2="0"
       gradientUnits="userSpaceOnUse"
       gradientTransform="matrix(-1.1e-6,-25.957031,-25.957031,1.1e-6,449.05566,251.59863)"
       spreadMethod="pad"
       id="linearGradient278"><stop
         style="stop-opacity:1;stop-color:#e6342a"
         offset="0"
         id="stop270" /><stop
         style="stop-opacity:1;stop-color:#e6342a"
         offset="0.0104712"
         id="stop272" /><stop
         style="stop-opacity:1;stop-color:#f9b233"
         offset="0.989529"
         id="stop274" /><stop
         style="stop-opacity:1;stop-color:#f9b233"
         offset="1"
         id="stop276" /></linearGradient><clipPath
       clipPathUnits="userSpaceOnUse"
       id="clipPath288"><path
         d="M 0,396.85 H 595.28 V 0 H 0 Z"
         id="path286"
         inkscape:connector-curvature="0" /></clipPath><clipPath
       clipPathUnits="userSpaceOnUse"
       id="clipPath332"><path
         d="m 191.189,251.41 -2.814,-6.94 7.784,-0.094 -7.316,-19.037 h 8.722 l 7.315,19.131 h 7.034 l 2.721,6.94 z"
         id="path330"
         inkscape:connector-curvature="0" /></clipPath><linearGradient
       x1="0"
       y1="0"
       x2="1"
       y2="0"
       gradientUnits="userSpaceOnUse"
       gradientTransform="matrix(-1.1e-6,-26.071289,-26.071289,1.1e-6,201.50488,251.41016)"
       spreadMethod="pad"
       id="linearGradient346"><stop
         style="stop-opacity:1;stop-color:#e6342a"
         offset="0"
         id="stop338" /><stop
         style="stop-opacity:1;stop-color:#e6342a"
         offset="0.0104712"
         id="stop340" /><stop
         style="stop-opacity:1;stop-color:#f9b233"
         offset="0.989529"
         id="stop342" /><stop
         style="stop-opacity:1;stop-color:#f9b233"
         offset="1"
         id="stop344" /></linearGradient><clipPath
       clipPathUnits="userSpaceOnUse"
       id="clipPath356"><path
         d="m 239.206,251.41 c -0.281,0 -3.844,-9.471 -3.844,-9.471 v 0 h -10.599 l 3.095,9.471 h -8.44 l -9.754,-26.071 h 8.536 l 3.749,9.66 h 10.973 l -3.562,-9.66 h 8.814 c 0,0 9.566,26.071 9.847,26.071 v 0 c 0.188,0 -3.667,0.001 -6.342,0.001 v 0 c -1.337,0 -2.38,0 -2.473,-0.001"
         id="path354"
         inkscape:connector-curvature="0" /></clipPath><linearGradient
       x1="0"
       y1="0"
       x2="1"
       y2="0"
       gradientUnits="userSpaceOnUse"
       gradientTransform="matrix(-1.1e-6,-26.071777,-26.071777,1.1e-6,228.84619,251.41064)"
       spreadMethod="pad"
       id="linearGradient370"><stop
         style="stop-opacity:1;stop-color:#e6342a"
         offset="0"
         id="stop362" /><stop
         style="stop-opacity:1;stop-color:#e6342a"
         offset="0.0104712"
         id="stop364" /><stop
         style="stop-opacity:1;stop-color:#f9b233"
         offset="0.989529"
         id="stop366" /><stop
         style="stop-opacity:1;stop-color:#f9b233"
         offset="1"
         id="stop368" /></linearGradient><clipPath
       clipPathUnits="userSpaceOnUse"
       id="clipPath380"><path
         d="m 252.526,251.41 -9.755,-26.071 h 23.165 l 2.439,6.847 h -14.35 l 1.031,2.907 h 14.35 l 2.625,6.751 h -14.347 l 1.031,2.627 h 14.255 l 3.001,6.939 z"
         id="path378"
         inkscape:connector-curvature="0" /></clipPath><linearGradient
       x1="0"
       y1="0"
       x2="1"
       y2="0"
       gradientUnits="userSpaceOnUse"
       gradientTransform="matrix(-1.1e-6,-26.071289,-26.071289,1.1e-6,259.37109,251.41016)"
       spreadMethod="pad"
       id="linearGradient394"><stop
         style="stop-opacity:1;stop-color:#e6342a"
         offset="0"
         id="stop386" /><stop
         style="stop-opacity:1;stop-color:#e6342a"
         offset="0.0104712"
         id="stop388" /><stop
         style="stop-opacity:1;stop-color:#f9b233"
         offset="0.989529"
         id="stop390" /><stop
         style="stop-opacity:1;stop-color:#f9b233"
         offset="1"
         id="stop392" /></linearGradient><clipPath
       clipPathUnits="userSpaceOnUse"
       id="clipPath404"><path
         d="m 309.733,251.41 -11.821,-10.502 h -1.026 l 3.751,10.502 h -8.628 l -9.847,-26.071 h 8.722 l 4.97,13.035 4.501,-13.035 h 8.816 l -4.596,14.068 13.504,12.003 z"
         id="path402"
         inkscape:connector-curvature="0" /></clipPath><linearGradient
       x1="0"
       y1="0"
       x2="1"
       y2="0"
       gradientUnits="userSpaceOnUse"
       gradientTransform="matrix(-1.1e-6,-26.071289,-26.071289,1.1e-6,300.12109,251.41016)"
       spreadMethod="pad"
       id="linearGradient418"><stop
         style="stop-opacity:1;stop-color:#e6342a"
         offset="0"
         id="stop410" /><stop
         style="stop-opacity:1;stop-color:#e6342a"
         offset="0.0104712"
         id="stop412" /><stop
         style="stop-opacity:1;stop-color:#f9b233"
         offset="0.989529"
         id="stop414" /><stop
         style="stop-opacity:1;stop-color:#f9b233"
         offset="1"
         id="stop416" /></linearGradient><clipPath
       clipPathUnits="userSpaceOnUse"
       id="clipPath428"><path
         d="m 323.051,251.41 -9.845,-26.071 h 9.002 l 9.566,26.071 z"
         id="path426"
         inkscape:connector-curvature="0" /></clipPath><linearGradient
       x1="0"
       y1="0"
       x2="1"
       y2="0"
       gradientUnits="userSpaceOnUse"
       gradientTransform="matrix(-1.1e-6,-26.071289,-26.071289,1.1e-6,322.49023,251.41016)"
       spreadMethod="pad"
       id="linearGradient442"><stop
         style="stop-opacity:1;stop-color:#e6342a"
         offset="0"
         id="stop434" /><stop
         style="stop-opacity:1;stop-color:#e6342a"
         offset="0.0104712"
         id="stop436" /><stop
         style="stop-opacity:1;stop-color:#f9b233"
         offset="0.989529"
         id="stop438" /><stop
         style="stop-opacity:1;stop-color:#f9b233"
         offset="1"
         id="stop440" /></linearGradient><clipPath
       clipPathUnits="userSpaceOnUse"
       id="clipPath452"><path
         d="m 360.689,251.421 c -2.012,-0.027 -3.922,-0.054 -3.965,-0.011 v 0 c -0.095,0.093 -4.877,-13.036 -4.877,-13.036 v 0 l -7.409,13.036 h -7.691 l -10.035,-26.071 h 8.629 l 5.346,13.881 8.064,-13.881 h 6.848 c 0,0 9.611,25.931 9.751,26.071 v 0 c 0.034,0.034 -0.447,0.046 -1.197,0.046 v 0 c -0.906,0 -2.205,-0.017 -3.464,-0.035"
         id="path450"
         inkscape:connector-curvature="0" /></clipPath><linearGradient
       x1="0"
       y1="0"
       x2="1"
       y2="0"
       gradientUnits="userSpaceOnUse"
       gradientTransform="matrix(-1.1e-6,-26.117188,-26.117188,1.1e-6,346.03223,251.45605)"
       spreadMethod="pad"
       id="linearGradient466"><stop
         style="stop-opacity:1;stop-color:#e6342a"
         offset="0"
         id="stop458" /><stop
         style="stop-opacity:1;stop-color:#e6342a"
         offset="0.0104712"
         id="stop460" /><stop
         style="stop-opacity:1;stop-color:#f9b233"
         offset="0.989529"
         id="stop462" /><stop
         style="stop-opacity:1;stop-color:#f9b233"
         offset="1"
         id="stop464" /></linearGradient><clipPath
       clipPathUnits="userSpaceOnUse"
       id="clipPath476"><path
         d="m 372.73,249.739 c -1.891,-1.032 -3.723,-2.258 -5.258,-3.774 v 0 c -3.106,-3.063 -5.965,-7.91 -4.909,-12.448 v 0 c 0.541,-2.327 2.196,-4.237 4.119,-5.588 v 0 c 1.501,-1.053 3.24,-1.746 5.034,-2.102 v 0 c 4.794,-0.949 9.897,-0.488 14.759,-0.488 v 0 l 6.176,16.891 c 0,0 -9.992,-0.182 -9.931,0 v 0 c 0.06,0.181 -5.994,-6.965 -5.994,-6.965 v 0 h 4.48 l -1.211,-2.725 c -11.445,-0.787 -8.237,6.238 -8.237,6.238 v 0 c 3.27,6.783 9.206,6.056 9.206,6.056 v 0 h 8.539 l 5.929,6.616 c -0.543,-0.027 -8.169,0.006 -8.169,0.006 v 0 c -1.35,0.099 -2.595,0.142 -3.742,0.142 v 0 c -7.551,0 -10.791,-1.859 -10.791,-1.859 m 22.702,1.711 c 0.038,0.002 0.042,0.004 0.006,0.006 v 0 z"
         id="path474"
         inkscape:connector-curvature="0" /></clipPath><linearGradient
       x1="0"
       y1="0"
       x2="1"
       y2="0"
       gradientUnits="userSpaceOnUse"
       gradientTransform="matrix(-1.2e-6,-26.370605,-26.370605,1.2e-6,378.90137,251.59766)"
       spreadMethod="pad"
       id="linearGradient490"><stop
         style="stop-opacity:1;stop-color:#e6342a"
         offset="0"
         id="stop482" /><stop
         style="stop-opacity:1;stop-color:#e6342a"
         offset="0.0104712"
         id="stop484" /><stop
         style="stop-opacity:1;stop-color:#f9b233"
         offset="0.989529"
         id="stop486" /><stop
         style="stop-opacity:1;stop-color:#f9b233"
         offset="1"
         id="stop488" /></linearGradient><clipPath
       clipPathUnits="userSpaceOnUse"
       id="clipPath500"><path
         d="m 413.146,249.066 c -8.706,-5.017 -13.081,-13.743 -9.766,-19.49 v 0 c 3.308,-5.75 13.056,-6.348 21.767,-1.331 v 0 c 8.703,5.016 13.075,13.744 9.762,19.493 v 0 c -1.802,3.131 -5.512,4.733 -9.925,4.733 v 0 c -3.69,0.001 -7.871,-1.12 -11.838,-3.405 m 0.202,-14.591 c -1.597,2.203 -0.335,5.842 2.815,8.126 v 0 c 3.154,2.285 7.006,2.35 8.602,0.146 v 0 c 1.597,-2.204 0.336,-5.843 -2.814,-8.127 v 0 c -1.614,-1.169 -3.411,-1.757 -4.995,-1.757 v 0 c -1.511,0 -2.828,0.535 -3.608,1.612"
         id="path498"
         inkscape:connector-curvature="0" /></clipPath><linearGradient
       x1="0"
       y1="0"
       x2="1"
       y2="0"
       gradientUnits="userSpaceOnUse"
       gradientTransform="matrix(-1.2e-6,-27.631348,-27.631348,1.2e-6,419.14453,252.47119)"
       spreadMethod="pad"
       id="linearGradient514"><stop
         style="stop-opacity:1;stop-color:#e6342a"
         offset="0"
         id="stop506" /><stop
         style="stop-opacity:1;stop-color:#e6342a"
         offset="0.0104712"
         id="stop508" /><stop
         style="stop-opacity:1;stop-color:#f9b233"
         offset="0.989529"
         id="stop510" /><stop
         style="stop-opacity:1;stop-color:#f9b233"
         offset="1"
         id="stop512" /></linearGradient><clipPath
       clipPathUnits="userSpaceOnUse"
       id="clipPath524"><path
         d="m 442.66,251.599 -9.989,-25.957 h 8.994 l 3.447,9.871 h 13.844 l 2.687,6.835 h -13.552 l 0.877,2.627 h 13.902 l 2.57,6.624 z"
         id="path522"
         inkscape:connector-curvature="0" /></clipPath><linearGradient
       x1="0"
       y1="0"
       x2="1"
       y2="0"
       gradientUnits="userSpaceOnUse"
       gradientTransform="matrix(-1.1e-6,-25.957031,-25.957031,1.1e-6,449.05566,251.59863)"
       spreadMethod="pad"
       id="linearGradient538"><stop
         style="stop-opacity:1;stop-color:#e6342a"
         offset="0"
         id="stop530" /><stop
         style="stop-opacity:1;stop-color:#e6342a"
         offset="0.0104712"
         id="stop532" /><stop
         style="stop-opacity:1;stop-color:#f9b233"
         offset="0.989529"
         id="stop534" /><stop
         style="stop-opacity:1;stop-color:#f9b233"
         offset="1"
         id="stop536" /></linearGradient><clipPath
       clipPathUnits="userSpaceOnUse"
       id="clipPath548"><path
         d="M 0,396.85 H 595.28 V 0 H 0 Z"
         id="path546"
         inkscape:connector-curvature="0" /></clipPath><clipPath
       clipPathUnits="userSpaceOnUse"
       id="clipPath588"><path
         d="m 148.96,216.082 -22.375,-59.125 h 16.25 l 9.125,24.25 h 21 l 5.25,14.375 h -20.625 l 2.625,6.625 h 20.375 l 4.875,13.875 z"
         id="path586"
         inkscape:connector-curvature="0" /></clipPath><linearGradient
       x1="0"
       y1="0"
       x2="1"
       y2="0"
       gradientUnits="userSpaceOnUse"
       gradientTransform="matrix(-2.6e-6,-59.125488,-59.125488,2.6e-6,156.02246,216.08203)"
       spreadMethod="pad"
       id="linearGradient602"><stop
         style="stop-opacity:1;stop-color:#ea5b0b"
         offset="0"
         id="stop594" /><stop
         style="stop-opacity:1;stop-color:#fcea12"
         offset="0.48564172"
         id="stop596" /><stop
         style="stop-opacity:1;stop-color:#fcea12"
         offset="0.989529"
         id="stop598" /><stop
         style="stop-opacity:1;stop-color:#fcea12"
         offset="1"
         id="stop600" /></linearGradient><clipPath
       clipPathUnits="userSpaceOnUse"
       id="clipPath612"><path
         d="m 194.085,216.082 -23.25,-59.125 h 16.5 l 22.875,59.125 z"
         id="path610"
         inkscape:connector-curvature="0" /></clipPath><linearGradient
       x1="0"
       y1="0"
       x2="1"
       y2="0"
       gradientUnits="userSpaceOnUse"
       gradientTransform="matrix(-2.6e-6,-59.125488,-59.125488,2.6e-6,190.52246,216.08203)"
       spreadMethod="pad"
       id="linearGradient626"><stop
         style="stop-opacity:1;stop-color:#ea5b0b"
         offset="0"
         id="stop618" /><stop
         style="stop-opacity:1;stop-color:#fcea12"
         offset="0.48564172"
         id="stop620" /><stop
         style="stop-opacity:1;stop-color:#fcea12"
         offset="0.989529"
         id="stop622" /><stop
         style="stop-opacity:1;stop-color:#fcea12"
         offset="1"
         id="stop624" /></linearGradient><clipPath
       clipPathUnits="userSpaceOnUse"
       id="clipPath636"><path
         d="m 241.085,216.082 c -4.824,-0.195 -10.177,-1.072 -14.635,-2.97 v 0 c -6.127,-2.608 -12.083,-7.142 -15.815,-12.678 v 0 c -3.477,-5.157 -6.548,-10.403 -7.111,-16.805 v 0 c -0.247,-2.816 -0.388,-5.62 0.003,-8.43 v 0 c 0.651,-4.683 2.12,-9.931 5.647,-13.273 v 0 c 2.449,-2.317 6.604,-4.969 10.136,-4.969 v 0 h 21.326 l 13.074,34.375 -19,0.125 -11.75,-14.5 h 8.75 l -2.5,-5.75 c -6.924,-0.537 -10.308,5.512 -9.954,11.716 v 0 c 0.169,2.97 1.818,6.758 3.329,9.282 v 0 c 2.778,4.644 7.625,7.383 12.726,8.785 v 0 c 2.477,0.681 5.029,1.039 7.594,1.151 v 0 c 1.278,0.054 2.557,0.047 3.835,0.007 v 0 c 0.497,-0.015 3.6,-0.496 3.845,-0.191 v 0 c 0.007,0.01 11.375,14.125 11.375,14.125 v 0 z"
         id="path634"
         inkscape:connector-curvature="0" /></clipPath><linearGradient
       x1="0"
       y1="0"
       x2="1"
       y2="0"
       gradientUnits="userSpaceOnUse"
       gradientTransform="matrix(-2.6e-6,-59.125488,-59.125488,2.6e-6,232.62158,216.08203)"
       spreadMethod="pad"
       id="linearGradient650"><stop
         style="stop-opacity:1;stop-color:#ea5b0b"
         offset="0"
         id="stop642" /><stop
         style="stop-opacity:1;stop-color:#fcea12"
         offset="0.48564172"
         id="stop644" /><stop
         style="stop-opacity:1;stop-color:#fcea12"
         offset="0.989529"
         id="stop646" /><stop
         style="stop-opacity:1;stop-color:#fcea12"
         offset="1"
         id="stop648" /></linearGradient><clipPath
       clipPathUnits="userSpaceOnUse"
       id="clipPath660"><path
         d="m 301.084,216.082 -8.499,-20.625 h -14.75 l 8.125,20.625 h -16.25 l -23.25,-59.125 h 16.75 l 9.5,24.5 14.25,-0.125 -8.875,-24.375 h 16.5 l 22.499,59.125 z"
         id="path658"
         inkscape:connector-curvature="0" /></clipPath><linearGradient
       x1="0"
       y1="0"
       x2="1"
       y2="0"
       gradientUnits="userSpaceOnUse"
       gradientTransform="matrix(-2.6e-6,-59.125488,-59.125488,2.6e-6,281.77197,216.08203)"
       spreadMethod="pad"
       id="linearGradient674"><stop
         style="stop-opacity:1;stop-color:#ea5b0b"
         offset="0"
         id="stop666" /><stop
         style="stop-opacity:1;stop-color:#fcea12"
         offset="0.48564172"
         id="stop668" /><stop
         style="stop-opacity:1;stop-color:#fcea12"
         offset="0.989529"
         id="stop670" /><stop
         style="stop-opacity:1;stop-color:#fcea12"
         offset="1"
         id="stop672" /></linearGradient><clipPath
       clipPathUnits="userSpaceOnUse"
       id="clipPath684"><path
         d="m 322.959,216.082 -5.25,-13.625 h 12.375 l -17.125,-45.5 h 16.375 l 17.5,45.5 h 11.5 l 5.375,13.625 z"
         id="path682"
         inkscape:connector-curvature="0" /></clipPath><linearGradient
       x1="0"
       y1="0"
       x2="1"
       y2="0"
       gradientUnits="userSpaceOnUse"
       gradientTransform="matrix(-2.6e-6,-59.125488,-59.125488,2.6e-6,338.33398,216.08203)"
       spreadMethod="pad"
       id="linearGradient698"><stop
         style="stop-opacity:1;stop-color:#ea5b0b"
         offset="0"
         id="stop690" /><stop
         style="stop-opacity:1;stop-color:#fcea12"
         offset="0.48564172"
         id="stop692" /><stop
         style="stop-opacity:1;stop-color:#fcea12"
         offset="0.989529"
         id="stop694" /><stop
         style="stop-opacity:1;stop-color:#fcea12"
         offset="1"
         id="stop696" /></linearGradient><clipPath
       clipPathUnits="userSpaceOnUse"
       id="clipPath708"><path
         d="m 370.604,216.082 -22.299,-59.125 h 40.726 l 4.928,14.469 h -24.293 l 4.108,9.975 h 22.181 l 5.047,14.084 h -21.83 l 2.699,7.16 h 22.533 l 5.047,13.437 z"
         id="path706"
         inkscape:connector-curvature="0" /></clipPath><linearGradient
       x1="0"
       y1="0"
       x2="1"
       y2="0"
       gradientUnits="userSpaceOnUse"
       gradientTransform="matrix(-2.6e-6,-59.125488,-59.125488,2.6e-6,378.87793,216.08203)"
       spreadMethod="pad"
       id="linearGradient722"><stop
         style="stop-opacity:1;stop-color:#ea5b0b"
         offset="0"
         id="stop714" /><stop
         style="stop-opacity:1;stop-color:#fcea12"
         offset="0.48564172"
         id="stop716" /><stop
         style="stop-opacity:1;stop-color:#fcea12"
         offset="0.989529"
         id="stop718" /><stop
         style="stop-opacity:1;stop-color:#fcea12"
         offset="1"
         id="stop720" /></linearGradient><clipPath
       clipPathUnits="userSpaceOnUse"
       id="clipPath732"><path
         d="m 417.084,216.082 -22.25,-59.125 h 16.25 l 9.375,24.125 2.5,-24.125 h 16.125 l -1.875,25.875 c 12.375,9.875 13.375,21 13.375,21 v 0 c 1.25,11.5 -5.875,12.25 -5.875,12.25 v 0 z m 7.084,-24.875 c 0,0.001 5.916,15.166 5.916,15.166 v 0 h 3.918 c 0.594,0 1.256,-1.117 1.498,-1.518 v 0 c 0.699,-1.16 0.871,-2.404 0.611,-3.725 v 0 c -0.588,-2.97 -2.081,-5.862 -4.378,-7.862 v 0 c -0.923,-0.804 -1.975,-1.438 -3.155,-1.78 v 0 c -0.416,-0.122 -3.917,-0.284 -4.363,-0.284 v 0 c -0.031,0 -0.047,0.001 -0.047,0.003"
         id="path730"
         inkscape:connector-curvature="0" /></clipPath><linearGradient
       x1="0"
       y1="0"
       x2="1"
       y2="0"
       gradientUnits="userSpaceOnUse"
       gradientTransform="matrix(-2.6e-6,-59.125488,-59.125488,2.6e-6,422.7832,216.08203)"
       spreadMethod="pad"
       id="linearGradient746"><stop
         style="stop-opacity:1;stop-color:#ea5b0b"
         offset="0"
         id="stop738" /><stop
         style="stop-opacity:1;stop-color:#fcea12"
         offset="0.48564172"
         id="stop740" /><stop
         style="stop-opacity:1;stop-color:#fcea12"
         offset="0.989529"
         id="stop742" /><stop
         style="stop-opacity:1;stop-color:#fcea12"
         offset="1"
         id="stop744" /></linearGradient><clipPath
       clipPathUnits="userSpaceOnUse"
       id="clipPath756"><path
         d="m 474.496,215.932 c -1.789,-0.625 -3.612,-1.411 -5.261,-2.348 v 0 c -3.093,-1.756 -6.069,-3.848 -8.342,-6.616 v 0 c -0.995,-1.209 -1.926,-2.552 -2.678,-3.928 v 0 c -1.946,-3.556 -3.424,-7.574 -2.031,-11.582 v 0 c 1.392,-4.004 4.962,-7.476 8.525,-9.626 v 0 c 0,0 7.668,-4.334 6.625,-7.125 v 0 c 0,0 -4.748,-9.792 -23.5,1.125 v 0 c 0,0 -5.998,-14.998 -6,-15 v 0 c -0.24,-0.602 7.772,-3.207 8.174,-3.31 v 0 c 6.6,-1.7 13.812,-1.44 20.23,0.884 v 0 c 4.994,1.806 9.631,4.746 13.141,8.751 v 0 c 1,1.141 1.888,2.381 2.668,3.682 v 0 c 2.523,4.205 4.381,9.526 1.883,14.184 v 0 c -2.157,4.02 -6.723,6.056 -10.379,8.452 v 0 c -2.227,1.46 -7.9,3.987 -5.443,7.533 v 0 c 0.562,0.812 1.617,1.536 2.529,1.896 v 0 c 1.023,0.404 2.246,0.674 3.351,0.687 v 0 c 1.848,0.02 3.826,-0.386 5.596,-0.884 v 0 c 0,0 5.687,-2.562 8.75,-7.5 v 0 c 0,0 5.998,16.744 6,16.75 v 0 c 0.25,0.702 -3.582,2.373 -4.072,2.607 v 0 c -3.717,1.774 -7.695,2.736 -11.694,2.736 v 0 c -2.706,10e-4 -5.42,-0.44 -8.072,-1.368"
         id="path754"
         inkscape:connector-curvature="0" /></clipPath><linearGradient
       x1="0"
       y1="0"
       x2="1"
       y2="0"
       gradientUnits="userSpaceOnUse"
       gradientTransform="matrix(-2.7e-6,-60.876953,-60.876953,2.7e-6,470.08789,217.30029)"
       spreadMethod="pad"
       id="linearGradient770"><stop
         style="stop-opacity:1;stop-color:#ea5b0b"
         offset="0"
         id="stop762" /><stop
         style="stop-opacity:1;stop-color:#fcea12"
         offset="0.48564172"
         id="stop764" /><stop
         style="stop-opacity:1;stop-color:#fcea12"
         offset="0.989529"
         id="stop766" /><stop
         style="stop-opacity:1;stop-color:#fcea12"
         offset="1"
         id="stop768" /></linearGradient></defs><sodipodi:namedview
     pagecolor="#ffffff"
     bordercolor="#666666"
     borderopacity="1"
     objecttolerance="10"
     gridtolerance="10"
     guidetolerance="10"
     inkscape:pageopacity="0"
     inkscape:pageshadow="2"
     inkscape:window-width="1366"
     inkscape:window-height="743"
     id="namedview4"
     showgrid="false"
     inkscape:pagecheckerboard="true"
     inkscape:zoom="1.6152458"
     inkscape:cx="231.05182"
     inkscape:cy="81.943817"
     inkscape:window-x="0"
     inkscape:window-y="0"
     inkscape:window-maximized="1"
     inkscape:current-layer="g10" /><g
     id="g10"
     inkscape:groupmode="layer"
     inkscape:label="the-king-of-fighters-seeklogo.com"
     transform="matrix(1.3333333,0,0,-1.3333333,-3.7851761,191.93206)"><g
       id="g12"
       transform="matrix(0.81457465,0,0,0.81457465,-50.358522,-84.014174)"><g
         id="g14"
         clip-path="url(#clipPath18)"><g
           id="g20"
           transform="translate(450.54,179.1367)"><path
             d="M 0,0 C 1.666,1.334 4.75,5.582 4.75,5.582 H 5 C 7.583,-0.334 16.417,-8.168 16.417,-8.168 5.084,-7.668 0,0 0,0 m -86.229,37.686 1.5,2.896 c 0,0 2.375,-2.67 4.375,-2.896 z m -20.312,0.031 2.062,4.49 2.688,-4.49 c 0,0 -4.5,-0.072 -4.75,0 m -28.063,12.803 -0.812,2.375 2.437,2.375 z m -22.937,-33.938 h -3.062 l 7.187,18.75 h 1.813 c 0,0 0.812,2.188 0.874,2.375 0.063,0.188 0.75,-2.437 0.75,-2.437 z m -74.375,11.563 2.688,7.25 h 11.437 c 0,0 -10.125,-3.75 -14.125,-7.25 m -11.734,8.998 h -0.752 c 0,0 6.019,15.611 6.144,15.8 0.126,0.188 0.878,0 0.878,0 z M 58.084,28.998 c -0.667,-1.5 -18.001,23.334 -48.667,-3.166 0,0 -1,8.5 -9.5,11.334 l 3,7.832 h 13.5 l 10.167,26.834 c 0,0 -32.834,1 -33.334,0 -0.429,-0.855 -1.222,-3.541 -1.44,-4.295 -5.762,5.07 -15.682,6.182 -25.031,2.117 -11.91,-5.179 -18.351,-16.767 -14.386,-25.886 1.128,-2.594 2.996,-4.69 5.338,-6.27 h -12.814 l 9.167,24.334 -1.5,0.5 7.166,9.166 h -26.999 c 0,0 -3.5,-0.498 -6.5,-1.666 l 0.666,1.5 h -19.5 l -2.333,-6 -3.333,5.834 -58.833,0.332 -13.5,-33.832 h -4.834 l 12.167,33.5 h -93.812 l -8.581,-18.236 h 7.48 l -6.004,-15.932 h -36.083 l -26.167,-69.166 h 26.334 L -290.249,-8 h 16.833 l -8.833,-24.168 h 27.333 c 0,0 7.667,19 7.5,18.5 -0.166,-0.5 4.833,-19 23.667,-18.5 h 44.833 L -169.749,-8 h 3.167 l -8.667,-24.178 h 27.473 L -128.749,13 h 4.833 c 0,0 -15.374,-43.764 -16.134,-45.146 0.678,0.789 27.468,-0.043 27.468,-0.043 L -95.082,13 h 6.333 l -16.5,-45.189 h 73.5 l 2.5,6.355 0.667,-6.355 h 27.166 v 1.687 c 0,0 19.5,-7.666 36.333,4.334 0,0 18.834,14.5 12.167,27.5 0,0 11.667,29.166 11,27.666"
             style="fill:#191934;fill-opacity:1;fill-rule:nonzero;stroke:none"
             id="path22"
             inkscape:connector-curvature="0" /></g><g
           id="g24"
           transform="translate(124.8853,196.1748)"><path
             d="m 0,0 c 0,-1 -14.389,-46.875 -33.757,-65.5 0,0 59.757,10.5 77.007,85.25 l 5.5,16 h 38 L 106,65.5 H 54.75 c 0,0 -10,-16.667 -40.167,-28 L 9.667,24.75 4.333,24.833 c 0,0 -5.749,-10.583 -37.416,-24.833 z"
             style="fill:#1e2346;fill-opacity:1;fill-rule:nonzero;stroke:none"
             id="path26"
             inkscape:connector-curvature="0" /></g></g></g><g
       id="g28"
       transform="matrix(0.81457465,0,0,0.81457465,-50.358522,-84.014174)"><g
         id="g30"
         clip-path="url(#clipPath34)"><g
           id="g36"><g
             id="g38"><path
               d="m 175.135,266.175 c 0,0 -9.999,-16.667 -40.167,-28 v 0 l -4.916,-12.75 -5.334,0.083 c 0,0 -5.749,-10.584 -37.416,-24.833 v 0 h 33.083 c 0,-1 -14.388,-46.875 -33.756,-65.5 v 0 c 0,0 59.756,10.5 77.006,85.249 v 0 l 5.5,16.001 h 38 l 19.25,29.75 z"
               style="fill:url(#linearGradient50);stroke:none"
               id="path52"
               inkscape:connector-curvature="0" /></g></g></g></g><g
       id="g54"
       transform="matrix(0.81457465,0,0,0.81457465,-50.358522,-84.014174)"><g
         id="g56"
         clip-path="url(#clipPath60)"><g
           id="g62"
           transform="translate(445.5508,184.125)"><path
             d="M 0,0 C 1.666,1.334 4.75,5.582 4.75,5.582 H 5 C 7.583,-0.334 16.417,-8.168 16.417,-8.168 5.084,-7.668 0,0 0,0 m -86.229,37.686 1.5,2.896 c 0,0 2.375,-2.67 4.375,-2.896 z m -20.312,0.031 2.062,4.49 2.688,-4.49 c 0,0 -4.5,-0.072 -4.75,0 m -28.063,12.803 -0.812,2.375 2.437,2.375 z m -22.937,-33.938 h -3.062 l 7.187,18.75 h 1.813 c 0,0 0.812,2.188 0.875,2.375 0.062,0.188 0.75,-2.437 0.75,-2.437 z m -74.375,11.563 2.688,7.25 h 11.437 c 0,0 -10.125,-3.75 -14.125,-7.25 m -11.734,8.998 h -0.752 c 0,0 6.019,15.612 6.144,15.8 0.126,0.188 0.878,0 0.878,0 z M 58.084,28.999 c -0.667,-1.5 -18.001,23.333 -48.667,-3.167 0,0 -1,8.501 -9.5,11.334 l 3,7.833 h 13.5 l 10.167,26.833 c 0,0 -32.834,1 -33.334,0 -0.429,-0.855 -1.222,-3.541 -1.44,-4.295 -5.762,5.07 -15.682,6.183 -25.031,2.117 -11.91,-5.178 -18.351,-16.767 -14.386,-25.886 1.128,-2.594 2.996,-4.69 5.338,-6.269 h -12.814 l 9.167,24.333 -1.5,0.5 7.166,9.167 h -26.999 c 0,0 -3.5,-0.499 -6.5,-1.667 l 0.666,1.5 h -19.5 l -2.333,-6 -3.333,5.834 -58.833,0.333 -13.5,-33.833 h -4.834 l 12.167,33.5 h -93.812 l -8.581,-18.236 h 7.48 l -6.004,-15.931 h -36.083 l -26.167,-69.167 h 26.334 L -290.249,-8 h 16.833 l -8.833,-24.168 h 27.333 c 0,0 7.667,19 7.5,18.5 -0.166,-0.5 4.833,-19 23.667,-18.5 h 44.833 L -169.749,-8 h 3.167 l -8.667,-24.178 h 27.474 L -128.749,13 h 4.833 c 0,0 -15.374,-43.764 -16.134,-45.146 0.678,0.789 27.468,-0.043 27.468,-0.043 L -95.082,13 h 6.333 l -16.5,-45.189 h 73.5 l 2.5,6.355 0.667,-6.355 h 27.166 v 1.687 c 0,0 19.5,-7.666 36.333,4.334 0,0 18.834,14.5 12.167,27.5 0,0 11.667,29.167 11,27.667"
             style="fill:#272e65;fill-opacity:1;fill-rule:nonzero;stroke:none"
             id="path64"
             inkscape:connector-curvature="0" /></g></g></g><g
       id="g66"
       transform="matrix(0.81457465,0,0,0.81457465,-50.358522,-84.014174)"><g
         id="g68"
         clip-path="url(#clipPath72)"><g
           id="g74"><g
             id="g76"><path
               d="m 191.189,251.41 -2.814,-6.94 7.784,-0.094 -7.316,-19.037 h 8.722 l 7.315,19.131 h 7.034 l 2.721,6.94 z"
               style="fill:url(#linearGradient86);stroke:none"
               id="path88"
               inkscape:connector-curvature="0" /></g></g></g></g><g
       id="g90"
       transform="matrix(0.81457465,0,0,0.81457465,-50.358522,-84.014174)"><g
         id="g92"
         clip-path="url(#clipPath96)"><g
           id="g98"><g
             id="g100"><path
               d="m 239.206,251.41 c -0.281,0 -3.844,-9.471 -3.844,-9.471 v 0 h -10.599 l 3.095,9.471 h -8.44 l -9.754,-26.071 h 8.536 l 3.749,9.66 h 10.973 l -3.562,-9.66 h 8.814 c 0,0 9.566,26.071 9.847,26.071 v 0 c 0.188,0 -3.667,0.001 -6.342,0.001 v 0 c -1.337,0 -2.38,0 -2.473,-0.001"
               style="fill:url(#linearGradient110);stroke:none"
               id="path112"
               inkscape:connector-curvature="0" /></g></g></g></g><g
       id="g114"
       transform="matrix(0.81457465,0,0,0.81457465,-50.358522,-84.014174)"><g
         id="g116"
         clip-path="url(#clipPath120)"><g
           id="g122"><g
             id="g124"><path
               d="m 252.526,251.41 -9.755,-26.071 h 23.165 l 2.439,6.847 h -14.35 l 1.031,2.907 h 14.35 l 2.625,6.751 h -14.347 l 1.031,2.627 h 14.255 l 3.001,6.939 z"
               style="fill:url(#linearGradient134);stroke:none"
               id="path136"
               inkscape:connector-curvature="0" /></g></g></g></g><g
       id="g138"
       transform="matrix(0.81457465,0,0,0.81457465,-50.358522,-84.014174)"><g
         id="g140"
         clip-path="url(#clipPath144)"><g
           id="g146"><g
             id="g148"><path
               d="m 309.733,251.41 -11.821,-10.502 h -1.026 l 3.751,10.502 h -8.628 l -9.847,-26.071 h 8.722 l 4.97,13.035 4.501,-13.035 h 8.816 l -4.596,14.068 13.504,12.003 z"
               style="fill:url(#linearGradient158);stroke:none"
               id="path160"
               inkscape:connector-curvature="0" /></g></g></g></g><g
       id="g162"
       transform="matrix(0.81457465,0,0,0.81457465,-50.358522,-84.014174)"><g
         id="g164"
         clip-path="url(#clipPath168)"><g
           id="g170"><g
             id="g172"><path
               d="m 323.051,251.41 -9.845,-26.071 h 9.002 l 9.566,26.071 z"
               style="fill:url(#linearGradient182);stroke:none"
               id="path184"
               inkscape:connector-curvature="0" /></g></g></g></g><g
       id="g186"
       transform="matrix(0.81457465,0,0,0.81457465,-50.358522,-84.014174)"><g
         id="g188"
         clip-path="url(#clipPath192)"><g
           id="g194"><g
             id="g196"><path
               d="m 360.689,251.421 c -2.012,-0.027 -3.922,-0.054 -3.965,-0.011 v 0 c -0.095,0.093 -4.877,-13.036 -4.877,-13.036 v 0 l -7.409,13.036 h -7.691 l -10.035,-26.071 h 8.629 l 5.346,13.881 8.064,-13.881 h 6.848 c 0,0 9.611,25.931 9.751,26.071 v 0 c 0.034,0.034 -0.447,0.046 -1.197,0.046 v 0 c -0.906,0 -2.205,-0.017 -3.464,-0.035"
               style="fill:url(#linearGradient206);stroke:none"
               id="path208"
               inkscape:connector-curvature="0" /></g></g></g></g><g
       id="g210"
       transform="matrix(0.81457465,0,0,0.81457465,-50.358522,-84.014174)"><g
         id="g212"
         clip-path="url(#clipPath216)"><g
           id="g218"><g
             id="g220"><path
               d="m 372.73,249.739 c -1.891,-1.032 -3.723,-2.258 -5.258,-3.774 v 0 c -3.106,-3.063 -5.965,-7.91 -4.909,-12.448 v 0 c 0.541,-2.327 2.196,-4.237 4.119,-5.588 v 0 c 1.501,-1.053 3.24,-1.746 5.034,-2.102 v 0 c 4.794,-0.949 9.897,-0.488 14.759,-0.488 v 0 l 6.176,16.891 c 0,0 -9.992,-0.182 -9.931,0 v 0 c 0.06,0.181 -5.994,-6.965 -5.994,-6.965 v 0 h 4.48 l -1.211,-2.725 c -11.445,-0.787 -8.237,6.238 -8.237,6.238 v 0 c 3.27,6.783 9.206,6.056 9.206,6.056 v 0 h 8.539 l 5.929,6.616 c -0.543,-0.027 -8.169,0.006 -8.169,0.006 v 0 c -1.35,0.099 -2.595,0.142 -3.742,0.142 v 0 c -7.551,0 -10.791,-1.859 -10.791,-1.859 m 22.702,1.711 c 0.038,0.002 0.042,0.004 0.006,0.006 v 0 z"
               style="fill:url(#linearGradient230);stroke:none"
               id="path232"
               inkscape:connector-curvature="0" /></g></g></g></g><g
       id="g234"
       transform="matrix(0.81457465,0,0,0.81457465,-50.358522,-84.014174)"><g
         id="g236"
         clip-path="url(#clipPath240)"><g
           id="g242"><g
             id="g244"><path
               d="m 413.146,249.066 c -8.706,-5.017 -13.081,-13.743 -9.766,-19.49 v 0 c 3.308,-5.75 13.056,-6.348 21.767,-1.331 v 0 c 8.703,5.016 13.075,13.744 9.762,19.493 v 0 c -1.802,3.131 -5.512,4.733 -9.925,4.733 v 0 c -3.69,0.001 -7.871,-1.12 -11.838,-3.405 m 0.202,-14.591 c -1.597,2.203 -0.335,5.842 2.815,8.126 v 0 c 3.154,2.285 7.006,2.35 8.602,0.146 v 0 c 1.597,-2.204 0.336,-5.843 -2.814,-8.127 v 0 c -1.614,-1.169 -3.411,-1.757 -4.995,-1.757 v 0 c -1.511,0 -2.828,0.535 -3.608,1.612"
               style="fill:url(#linearGradient254);stroke:none"
               id="path256"
               inkscape:connector-curvature="0" /></g></g></g></g><g
       id="g258"
       transform="matrix(0.81457465,0,0,0.81457465,-50.358522,-84.014174)"><g
         id="g260"
         clip-path="url(#clipPath264)"><g
           id="g266"><g
             id="g268"><path
               d="m 442.66,251.599 -9.989,-25.957 h 8.994 l 3.447,9.871 h 13.844 l 2.687,6.835 h -13.552 l 0.877,2.627 h 13.902 l 2.57,6.624 z"
               style="fill:url(#linearGradient278);stroke:none"
               id="path280"
               inkscape:connector-curvature="0" /></g></g></g></g><g
       id="g282"
       transform="matrix(0.81457465,0,0,0.81457465,-50.358522,-84.014174)"><g
         id="g284"
         clip-path="url(#clipPath288)"><g
           id="g290"
           transform="translate(212.3799,244.2871)"><path
             d="M 0,0 2.721,6.94 C 2.78,7.095 2.761,7.269 2.668,7.404 2.575,7.541 2.42,7.623 2.255,7.623 h -23.446 c -0.205,0 -0.387,-0.123 -0.463,-0.312 L -24.468,0.37 c -0.062,-0.152 -0.045,-0.327 0.047,-0.464 0.091,-0.137 0.245,-0.221 0.41,-0.223 l 7.065,-0.085 -7.057,-18.367 c -0.059,-0.154 -0.038,-0.327 0.055,-0.462 0.094,-0.136 0.247,-0.217 0.412,-0.217 h 8.722 c 0.207,0 0.392,0.128 0.466,0.321 l 7.193,18.81 h 6.689 C -0.26,-0.317 -0.075,-0.191 0,0"
             style="fill:#ffffff;fill-opacity:1;fill-rule:nonzero;stroke:none"
             id="path292"
             inkscape:connector-curvature="0" /></g><g
           id="g294"
           transform="translate(248.5283,251.4102)"><path
             d="M 0,0 C 0,0.21 0,0.332 -0.506,0.402 L -0.507,0.5 c -0.066,0 -0.127,0 -0.208,-0.074 C -1.519,0.5 -3.225,0.5 -6.85,0.5 H -9.324 C -9.749,0.498 -9.946,0.497 -13.513,-8.972 h -9.562 l 2.881,8.817 c 0.049,0.152 0.023,0.319 -0.072,0.449 C -20.359,0.423 -20.51,0.5 -20.67,0.5 h -8.44 c -0.209,0 -0.396,-0.13 -0.469,-0.325 l -9.754,-26.071 c -0.057,-0.154 -0.035,-0.326 0.058,-0.46 0.093,-0.135 0.247,-0.215 0.411,-0.215 h 8.535 c 0.206,0 0.392,0.127 0.466,0.319 l 3.626,9.341 h 9.913 l -3.314,-8.987 c -0.056,-0.154 -0.035,-0.325 0.059,-0.459 0.094,-0.134 0.247,-0.214 0.41,-0.214 h 8.815 c 0.209,0 0.397,0.131 0.469,0.328 3.62,9.866 9.151,24.759 9.752,25.907 C -0.05,-0.244 0,-0.124 0,0"
             style="fill:#ffffff;fill-opacity:1;fill-rule:nonzero;stroke:none"
             id="path296"
             inkscape:connector-curvature="0" /></g><g
           id="g298"
           transform="translate(275.9707,251.9102)"><path
             d="m 0,0 h -23.445 c -0.209,0 -0.396,-0.13 -0.469,-0.325 l -9.754,-26.071 c -0.057,-0.154 -0.035,-0.326 0.058,-0.46 0.093,-0.135 0.247,-0.215 0.411,-0.215 h 23.164 c 0.212,0 0.4,0.133 0.471,0.332 l 2.439,6.846 c 0.055,0.154 0.031,0.324 -0.062,0.456 -0.094,0.133 -0.247,0.212 -0.409,0.212 h -13.641 l 0.676,1.908 h 13.997 c 0.206,0 0.391,0.127 0.465,0.318 l 2.625,6.752 c 0.06,0.154 0.04,0.328 -0.052,0.464 -0.094,0.137 -0.248,0.218 -0.413,0.218 h -13.615 l 0.639,1.627 h 13.914 c 0.199,0 0.38,0.118 0.459,0.301 l 3.001,6.939 C 0.525,-0.544 0.511,-0.366 0.418,-0.226 0.325,-0.085 0.168,0 0,0"
             style="fill:#ffffff;fill-opacity:1;fill-rule:nonzero;stroke:none"
             id="path300"
             inkscape:connector-curvature="0" /></g><g
           id="g302"
           transform="translate(305.1533,239.251)"><path
             d="m 0,0 13.258,11.785 c 0.156,0.139 0.209,0.358 0.137,0.552 -0.075,0.194 -0.26,0.322 -0.469,0.322 H 4.58 c -0.121,0 -0.24,-0.045 -0.332,-0.126 L -7.432,2.156 h -0.126 l 3.512,9.835 c 0.055,0.154 0.031,0.323 -0.062,0.456 -0.094,0.133 -0.246,0.212 -0.409,0.212 h -8.627 c -0.208,0 -0.394,-0.129 -0.467,-0.323 l -9.848,-26.071 c -0.058,-0.154 -0.037,-0.327 0.057,-0.461 0.092,-0.135 0.247,-0.216 0.411,-0.216 h 8.721 c 0.207,0 0.394,0.128 0.467,0.322 l 4.481,11.748 4.051,-11.733 c 0.069,-0.202 0.26,-0.337 0.473,-0.337 h 8.816 c 0.16,0 0.31,0.077 0.404,0.206 0.096,0.13 0.121,0.297 0.072,0.449 z"
             style="fill:#ffffff;fill-opacity:1;fill-rule:nonzero;stroke:none"
             id="path304"
             inkscape:connector-curvature="0" /></g><g
           id="g306"
           transform="translate(332.1846,251.6963)"><path
             d="m 0,0 c -0.094,0.134 -0.246,0.214 -0.41,0.214 h -8.723 c -0.207,0 -0.394,-0.129 -0.467,-0.323 l -9.845,-26.072 c -0.059,-0.153 -0.037,-0.326 0.056,-0.461 0.092,-0.134 0.246,-0.215 0.41,-0.215 h 9.002 c 0.211,0 0.399,0.13 0.471,0.328 L 0.061,-0.458 C 0.115,-0.305 0.094,-0.134 0,0"
             style="fill:#ffffff;fill-opacity:1;fill-rule:nonzero;stroke:none"
             id="path308"
             inkscape:connector-curvature="0" /></g><g
           id="g310"
           transform="translate(365.8154,251.6055)"><path
             d="m 0,0 c -0.145,0.351 -0.289,0.351 -1.674,0.351 -0.951,0 -2.328,-0.019 -3.638,-0.038 -1.709,-0.023 -3.342,-0.048 -3.665,-0.022 -0.037,0.01 -0.076,0.015 -0.115,0.015 -0.465,0 -0.476,0 -4.976,-12.35 l -6.873,12.096 c -0.09,0.156 -0.256,0.253 -0.436,0.253 h -7.691 c -0.207,0 -0.393,-0.127 -0.467,-0.321 L -39.57,-26.087 c -0.059,-0.154 -0.039,-0.327 0.054,-0.463 0.094,-0.136 0.248,-0.217 0.412,-0.217 h 8.629 c 0.207,0 0.393,0.127 0.467,0.321 l 4.971,12.907 7.541,-12.979 c 0.09,-0.154 0.254,-0.249 0.432,-0.249 h 6.847 c 0.209,0 0.397,0.13 0.469,0.327 2.588,6.982 9.352,25.192 9.719,26.001 C 0.047,-0.308 0.059,-0.145 0,0"
             style="fill:#ffffff;fill-opacity:1;fill-rule:nonzero;stroke:none"
             id="path312"
             inkscape:connector-curvature="0" /></g><g
           id="g314"
           transform="translate(395.4736,251.9551)"><path
             d="m 0,0 c -0.043,0.004 -0.088,0 -0.131,-0.008 -0.24,-0.006 -0.914,-0.008 -1.775,-0.008 h -0.006 c -2.406,0 -6.254,0.031 -6.262,0.016 -1.297,0.095 -2.568,0.143 -3.779,0.143 -7.596,0 -10.902,-1.846 -11.029,-1.92 -2.204,-1.202 -3.961,-2.464 -5.372,-3.857 -3.164,-3.122 -6.152,-8.155 -5.042,-12.918 0.509,-2.196 2.044,-4.286 4.318,-5.884 1.49,-1.045 3.297,-1.8 5.224,-2.182 2.129,-0.422 4.461,-0.611 7.559,-0.611 1.234,0 2.469,0.029 3.699,0.057 1.207,0.028 2.41,0.056 3.598,0.056 0.211,0 0.398,0.131 0.471,0.328 l 6.175,16.891 c 0.057,0.155 0.034,0.328 -0.062,0.461 -0.096,0.135 -0.266,0.215 -0.416,0.21 -0.045,-10e-4 -4.471,-0.081 -7.375,-0.081 -1.676,0 -2.191,0.028 -2.35,0.043 -0.062,0.028 -0.131,0.041 -0.199,0.041 -0.316,0 -0.322,0 -6.375,-7.143 -0.127,-0.149 -0.154,-0.357 -0.072,-0.533 0.082,-0.177 0.26,-0.29 0.453,-0.29 h 3.711 l -0.776,-1.747 c -0.482,-0.027 -0.937,-0.041 -1.365,-0.041 -3.093,0 -5.101,0.681 -5.97,2.024 -1.002,1.551 -0.12,3.55 -0.116,3.559 2.522,5.231 6.608,5.795 8.246,5.795 0.272,0 0.434,-0.017 0.508,-0.022 h 8.539 c 0.143,0 0.278,0.06 0.373,0.166 l 5.877,6.558 C 0.404,-0.806 0.488,-0.664 0.49,-0.508 0.492,-0.243 0.264,-0.019 0,0"
             style="fill:#ffffff;fill-opacity:1;fill-rule:nonzero;stroke:none"
             id="path316"
             inkscape:connector-curvature="0" /></g><g
           id="g318"
           transform="translate(421.6572,235.0254)"><path
             d="m 0,0 c -1.479,-1.072 -3.148,-1.662 -4.699,-1.662 -1.41,0 -2.549,0.499 -3.205,1.406 -0.674,0.929 -0.782,2.198 -0.305,3.575 0.498,1.439 1.566,2.807 3.008,3.852 1.48,1.072 3.15,1.662 4.701,1.662 1.41,0 2.547,-0.499 3.203,-1.404 C 4.137,5.451 2.924,2.119 0,0 m 13.686,12.961 c -1.823,3.168 -5.598,4.985 -10.36,4.985 -3.906,0 -8.199,-1.233 -12.088,-3.471 -4.293,-2.476 -7.699,-5.913 -9.586,-9.681 -1.923,-3.837 -2.052,-7.564 -0.363,-10.493 1.824,-3.169 5.602,-4.986 10.363,-4.987 h 0.002 c 3.907,0 8.2,1.234 12.086,3.472 8.93,5.147 13.391,14.197 9.946,20.175"
             style="fill:#ffffff;fill-opacity:1;fill-rule:nonzero;stroke:none"
             id="path320"
             inkscape:connector-curvature="0" /></g><g
           id="g322"
           transform="translate(465.8525,251.8809)"><path
             d="m 0,0 c -0.092,0.137 -0.246,0.218 -0.412,0.218 h -22.781 c -0.207,0 -0.393,-0.127 -0.467,-0.321 l -9.988,-25.957 c -0.059,-0.154 -0.04,-0.327 0.054,-0.462 0.094,-0.136 0.248,-0.217 0.412,-0.217 h 8.995 c 0.212,0 0.402,0.135 0.472,0.335 l 3.33,9.536 h 13.489 c 0.205,0 0.39,0.126 0.464,0.317 l 2.688,6.835 c 0.06,0.153 0.041,0.327 -0.051,0.464 -0.094,0.137 -0.248,0.219 -0.414,0.219 h -12.857 l 0.543,1.628 h 13.541 c 0.207,0 0.392,0.127 0.466,0.319 l 2.571,6.623 C 0.113,-0.31 0.094,-0.136 0,0"
             style="fill:#ffffff;fill-opacity:1;fill-rule:nonzero;stroke:none"
             id="path324"
             inkscape:connector-curvature="0" /></g></g></g><g
       id="g326"
       transform="matrix(0.81457465,0,0,0.81457465,-50.358522,-84.014174)"><g
         id="g328"
         clip-path="url(#clipPath332)"><g
           id="g334"><g
             id="g336"><path
               d="m 191.189,251.41 -2.814,-6.94 7.784,-0.094 -7.316,-19.037 h 8.722 l 7.315,19.131 h 7.034 l 2.721,6.94 z"
               style="fill:url(#linearGradient346);stroke:none"
               id="path348"
               inkscape:connector-curvature="0" /></g></g></g></g><g
       id="g350"
       transform="matrix(0.81457465,0,0,0.81457465,-50.358522,-84.014174)"><g
         id="g352"
         clip-path="url(#clipPath356)"><g
           id="g358"><g
             id="g360"><path
               d="m 239.206,251.41 c -0.281,0 -3.844,-9.471 -3.844,-9.471 v 0 h -10.599 l 3.095,9.471 h -8.44 l -9.754,-26.071 h 8.536 l 3.749,9.66 h 10.973 l -3.562,-9.66 h 8.814 c 0,0 9.566,26.071 9.847,26.071 v 0 c 0.188,0 -3.667,0.001 -6.342,0.001 v 0 c -1.337,0 -2.38,0 -2.473,-0.001"
               style="fill:url(#linearGradient370);stroke:none"
               id="path372"
               inkscape:connector-curvature="0" /></g></g></g></g><g
       id="g374"
       transform="matrix(0.81457465,0,0,0.81457465,-50.358522,-84.014174)"><g
         id="g376"
         clip-path="url(#clipPath380)"><g
           id="g382"><g
             id="g384"><path
               d="m 252.526,251.41 -9.755,-26.071 h 23.165 l 2.439,6.847 h -14.35 l 1.031,2.907 h 14.35 l 2.625,6.751 h -14.347 l 1.031,2.627 h 14.255 l 3.001,6.939 z"
               style="fill:url(#linearGradient394);stroke:none"
               id="path396"
               inkscape:connector-curvature="0" /></g></g></g></g><g
       id="g398"
       transform="matrix(0.81457465,0,0,0.81457465,-50.358522,-84.014174)"><g
         id="g400"
         clip-path="url(#clipPath404)"><g
           id="g406"><g
             id="g408"><path
               d="m 309.733,251.41 -11.821,-10.502 h -1.026 l 3.751,10.502 h -8.628 l -9.847,-26.071 h 8.722 l 4.97,13.035 4.501,-13.035 h 8.816 l -4.596,14.068 13.504,12.003 z"
               style="fill:url(#linearGradient418);stroke:none"
               id="path420"
               inkscape:connector-curvature="0" /></g></g></g></g><g
       id="g422"
       transform="matrix(0.81457465,0,0,0.81457465,-50.358522,-84.014174)"><g
         id="g424"
         clip-path="url(#clipPath428)"><g
           id="g430"><g
             id="g432"><path
               d="m 323.051,251.41 -9.845,-26.071 h 9.002 l 9.566,26.071 z"
               style="fill:url(#linearGradient442);stroke:none"
               id="path444"
               inkscape:connector-curvature="0" /></g></g></g></g><g
       id="g446"
       transform="matrix(0.81457465,0,0,0.81457465,-50.358522,-84.014174)"><g
         id="g448"
         clip-path="url(#clipPath452)"><g
           id="g454"><g
             id="g456"><path
               d="m 360.689,251.421 c -2.012,-0.027 -3.922,-0.054 -3.965,-0.011 v 0 c -0.095,0.093 -4.877,-13.036 -4.877,-13.036 v 0 l -7.409,13.036 h -7.691 l -10.035,-26.071 h 8.629 l 5.346,13.881 8.064,-13.881 h 6.848 c 0,0 9.611,25.931 9.751,26.071 v 0 c 0.034,0.034 -0.447,0.046 -1.197,0.046 v 0 c -0.906,0 -2.205,-0.017 -3.464,-0.035"
               style="fill:url(#linearGradient466);stroke:none"
               id="path468"
               inkscape:connector-curvature="0" /></g></g></g></g><g
       id="g470"
       transform="matrix(0.81457465,0,0,0.81457465,-50.358522,-84.014174)"><g
         id="g472"
         clip-path="url(#clipPath476)"><g
           id="g478"><g
             id="g480"><path
               d="m 372.73,249.739 c -1.891,-1.032 -3.723,-2.258 -5.258,-3.774 v 0 c -3.106,-3.063 -5.965,-7.91 -4.909,-12.448 v 0 c 0.541,-2.327 2.196,-4.237 4.119,-5.588 v 0 c 1.501,-1.053 3.24,-1.746 5.034,-2.102 v 0 c 4.794,-0.949 9.897,-0.488 14.759,-0.488 v 0 l 6.176,16.891 c 0,0 -9.992,-0.182 -9.931,0 v 0 c 0.06,0.181 -5.994,-6.965 -5.994,-6.965 v 0 h 4.48 l -1.211,-2.725 c -11.445,-0.787 -8.237,6.238 -8.237,6.238 v 0 c 3.27,6.783 9.206,6.056 9.206,6.056 v 0 h 8.539 l 5.929,6.616 c -0.543,-0.027 -8.169,0.006 -8.169,0.006 v 0 c -1.35,0.099 -2.595,0.142 -3.742,0.142 v 0 c -7.551,0 -10.791,-1.859 -10.791,-1.859 m 22.702,1.711 c 0.038,0.002 0.042,0.004 0.006,0.006 v 0 z"
               style="fill:url(#linearGradient490);stroke:none"
               id="path492"
               inkscape:connector-curvature="0" /></g></g></g></g><g
       id="g494"
       transform="matrix(0.81457465,0,0,0.81457465,-50.358522,-84.014174)"><g
         id="g496"
         clip-path="url(#clipPath500)"><g
           id="g502"><g
             id="g504"><path
               d="m 413.146,249.066 c -8.706,-5.017 -13.081,-13.743 -9.766,-19.49 v 0 c 3.308,-5.75 13.056,-6.348 21.767,-1.331 v 0 c 8.703,5.016 13.075,13.744 9.762,19.493 v 0 c -1.802,3.131 -5.512,4.733 -9.925,4.733 v 0 c -3.69,0.001 -7.871,-1.12 -11.838,-3.405 m 0.202,-14.591 c -1.597,2.203 -0.335,5.842 2.815,8.126 v 0 c 3.154,2.285 7.006,2.35 8.602,0.146 v 0 c 1.597,-2.204 0.336,-5.843 -2.814,-8.127 v 0 c -1.614,-1.169 -3.411,-1.757 -4.995,-1.757 v 0 c -1.511,0 -2.828,0.535 -3.608,1.612"
               style="fill:url(#linearGradient514);stroke:none"
               id="path516"
               inkscape:connector-curvature="0" /></g></g></g></g><g
       id="g518"
       transform="matrix(0.81457465,0,0,0.81457465,-50.358522,-84.014174)"><g
         id="g520"
         clip-path="url(#clipPath524)"><g
           id="g526"><g
             id="g528"><path
               d="m 442.66,251.599 -9.989,-25.957 h 8.994 l 3.447,9.871 h 13.844 l 2.687,6.835 h -13.552 l 0.877,2.627 h 13.902 l 2.57,6.624 z"
               style="fill:url(#linearGradient538);stroke:none"
               id="path540"
               inkscape:connector-curvature="0" /></g></g></g></g><g
       id="g542"
       transform="matrix(0.81457465,0,0,0.81457465,-50.358522,-84.014174)"><g
         id="g544"
         clip-path="url(#clipPath548)"><g
           id="g550"
           transform="translate(173.8994,180.8643)"><path
             d="m 0,0 5.25,14.375 c 0.112,0.307 0.067,0.648 -0.12,0.916 -0.187,0.268 -0.493,0.427 -0.819,0.427 h -19.154 l 1.833,4.625 H 6.686 c 0.424,0 0.802,0.267 0.943,0.668 l 4.875,13.875 c 0.107,0.306 0.06,0.645 -0.127,0.91 -0.188,0.265 -0.492,0.422 -0.816,0.422 h -36.5 c -0.416,0 -0.789,-0.258 -0.936,-0.647 L -48.25,-23.554 c -0.116,-0.306 -0.074,-0.651 0.112,-0.922 0.188,-0.27 0.495,-0.431 0.824,-0.431 h 16.25 c 0.416,0 0.789,0.258 0.935,0.647 l 8.882,23.603 H -0.939 C -0.52,-0.657 -0.145,-0.395 0,0"
             style="fill:#ffffff;fill-opacity:1;fill-rule:nonzero;stroke:none"
             id="path552"
             inkscape:connector-curvature="0" /></g><g
           id="g554"
           transform="translate(211.0352,216.6475)"><path
             d="M 0,0 C -0.187,0.272 -0.495,0.435 -0.825,0.435 H -16.95 c -0.411,0 -0.78,-0.252 -0.931,-0.635 l -23.25,-59.124 c -0.121,-0.308 -0.082,-0.656 0.105,-0.93 0.185,-0.272 0.495,-0.436 0.826,-0.436 h 16.5 c 0.413,0 0.783,0.253 0.932,0.639 L 0.107,-0.927 C 0.227,-0.618 0.187,-0.272 0,0"
             style="fill:#ffffff;fill-opacity:1;fill-rule:nonzero;stroke:none"
             id="path556"
             inkscape:connector-curvature="0" /></g><g
           id="g558"
           transform="translate(254.5352,191.8975)"><path
             d="m 0,0 c -0.186,0.27 -0.491,0.433 -0.818,0.435 l -19,0.125 h -0.007 c -0.302,0 -0.587,-0.136 -0.778,-0.371 l -11.75,-14.5 c -0.242,-0.299 -0.291,-0.711 -0.125,-1.06 0.166,-0.348 0.517,-0.569 0.903,-0.569 h 7.224 l -1.643,-3.782 c -2.298,-0.074 -4.193,0.722 -5.655,2.27 -1.838,1.945 -2.822,5.094 -2.632,8.421 0.164,2.855 1.82,6.539 3.189,8.825 2.958,4.945 8.231,7.262 12.133,8.334 2.282,0.628 4.762,1.003 7.371,1.115 1.254,0.055 2.508,0.047 3.762,0.008 0.119,-0.004 0.399,-0.039 0.753,-0.08 0.77,-0.09 1.826,-0.212 2.529,-0.212 0.516,0 1.039,0.058 1.373,0.474 L 8.204,23.558 c 0.241,0.299 0.289,0.711 0.123,1.058 C 8.16,24.964 7.81,25.185 7.425,25.185 L -13.49,25.184 c -5.575,-0.226 -10.898,-1.308 -14.987,-3.049 -6.65,-2.831 -12.574,-7.583 -16.252,-13.038 -3.205,-4.753 -6.673,-10.4 -7.278,-17.278 -0.24,-2.732 -0.406,-5.672 0.009,-8.656 0.872,-6.283 2.874,-10.947 5.95,-13.861 2.555,-2.418 6.923,-5.242 10.823,-5.242 h 21.326 c 0.415,0 0.787,0.256 0.934,0.644 L 0.109,-0.921 C 0.226,-0.614 0.185,-0.271 0,0"
             style="fill:#ffffff;fill-opacity:1;fill-rule:nonzero;stroke:none"
             id="path560"
             inkscape:connector-curvature="0" /></g><g
           id="g562"
           transform="translate(317.9082,216.6494)"><path
             d="m 0,0 c -0.187,0.271 -0.494,0.433 -0.824,0.433 h -16 c -0.405,0 -0.77,-0.245 -0.924,-0.62 l -8.245,-20.005 h -12.611 l 7.586,19.257 c 0.122,0.309 0.082,0.657 -0.104,0.93 -0.186,0.274 -0.495,0.438 -0.826,0.438 h -16.25 c -0.411,0 -0.781,-0.252 -0.931,-0.635 l -23.25,-59.124 c -0.121,-0.308 -0.082,-0.656 0.105,-0.93 0.185,-0.272 0.495,-0.436 0.826,-0.436 h 16.75 c 0.413,0 0.783,0.254 0.932,0.638 l 9.25,23.856 12.144,-0.107 -8.391,-23.046 c -0.112,-0.306 -0.066,-0.648 0.12,-0.915 0.188,-0.267 0.494,-0.426 0.82,-0.426 h 16.5 c 0.415,0 0.787,0.256 0.934,0.644 l 22.5,59.125 C 0.229,-0.616 0.186,-0.271 0,0"
             style="fill:#ffffff;fill-opacity:1;fill-rule:nonzero;stroke:none"
             id="path564"
             inkscape:connector-curvature="0" /></g><g
           id="g566"
           transform="translate(358.334,201.457)"><path
             d="m 0,0 c 0.41,0 0.779,0.251 0.932,0.633 l 5.375,13.625 c 0.121,0.308 0.082,0.656 -0.104,0.93 -0.187,0.273 -0.496,0.437 -0.828,0.437 h -40.75 c -0.412,0 -0.783,-0.254 -0.934,-0.641 L -41.559,1.359 C -41.676,1.053 -41.635,0.706 -41.449,0.434 -41.262,0.162 -40.953,0 -40.625,0 h 10.93 l -16.616,-44.147 c -0.115,-0.308 -0.072,-0.652 0.114,-0.922 0.187,-0.27 0.494,-0.431 0.822,-0.431 H -29 c 0.414,0 0.785,0.255 0.934,0.641 L -10.813,0 Z"
             style="fill:#ffffff;fill-opacity:1;fill-rule:nonzero;stroke:none"
             id="path568"
             inkscape:connector-curvature="0" /></g><g
           id="g570"
           transform="translate(394.7734,172.0078)"><path
             d="m 0,0 c -0.189,0.263 -0.492,0.418 -0.814,0.418 h -22.801 l 3.285,7.976 H 1.182 c 0.422,0 0.798,0.265 0.941,0.663 L 7.17,23.141 c 0.109,0.305 0.062,0.646 -0.125,0.912 -0.186,0.266 -0.492,0.425 -0.816,0.425 h -20.385 l 1.945,5.159 H 9.631 c 0.418,0 0.791,0.258 0.937,0.648 l 5.047,13.438 c 0.115,0.306 0.073,0.651 -0.115,0.921 -0.186,0.269 -0.494,0.43 -0.822,0.43 H -24.17 c -0.416,0 -0.789,-0.258 -0.935,-0.646 l -22.299,-59.126 c -0.116,-0.307 -0.073,-0.652 0.113,-0.921 0.187,-0.271 0.494,-0.432 0.822,-0.432 h 40.727 c 0.428,0 0.808,0.273 0.945,0.678 l 4.93,14.469 C 0.236,-0.599 0.187,-0.263 0,0"
             style="fill:#ffffff;fill-opacity:1;fill-rule:nonzero;stroke:none"
             id="path572"
             inkscape:connector-curvature="0" /></g><g
           id="g574"
           transform="translate(430.7676,205.373)"><path
             d="m 0,0 h 3.111 c 0.11,-0.084 0.338,-0.327 0.764,-1.033 0.549,-0.91 0.707,-1.897 0.486,-3.016 -0.57,-2.894 -2.048,-5.556 -4.052,-7.303 -0.875,-0.763 -1.811,-1.293 -2.747,-1.565 -0.277,-0.058 -1.593,-0.141 -2.677,-0.195 C -3.869,-9.919 -0.881,-2.258 0,0 m 20.811,-1.648 c 0.503,4.625 -0.229,8.192 -2.172,10.602 -1.975,2.448 -4.487,2.738 -4.592,2.749 -0.035,0.004 -0.07,0.006 -0.106,0.006 h -27.625 c -0.416,0 -0.789,-0.258 -0.935,-0.648 l -22.25,-59.124 c -0.115,-0.308 -0.072,-0.652 0.113,-0.922 0.188,-0.27 0.494,-0.431 0.822,-0.431 h 16.25 c 0.413,0 0.784,0.253 0.932,0.638 l 7.877,20.265 2.072,-20.007 c 0.053,-0.508 0.483,-0.896 0.994,-0.896 H 8.316 c 0.278,0 0.543,0.115 0.733,0.319 0.189,0.203 0.285,0.476 0.265,0.753 L 7.477,-22.99 c 12.177,9.939 13.294,20.892 13.334,21.342"
             style="fill:#ffffff;fill-opacity:1;fill-rule:nonzero;stroke:none"
             id="path576"
             inkscape:connector-curvature="0" /></g><g
           id="g578"
           transform="translate(494.9043,215.3691)"><path
             d="m 0,0 -0.211,0.098 c -3.941,1.881 -8.021,2.834 -12.125,2.834 -2.875,0 -5.701,-0.48 -8.402,-1.424 -2.004,-0.701 -3.83,-1.517 -5.426,-2.424 -3.83,-2.176 -6.57,-4.352 -8.619,-6.85 -1.076,-1.307 -2.037,-2.719 -2.783,-4.084 -1.682,-3.072 -3.729,-7.7 -2.098,-12.389 1.309,-3.766 4.654,-7.562 8.977,-10.168 3.275,-1.854 6.617,-4.735 6.218,-5.819 -0.017,-0.034 -1.752,-3.472 -7.424,-3.473 h -0.002 c -4.007,0 -8.943,1.691 -14.671,5.026 -0.252,0.146 -0.555,0.177 -0.829,0.081 -0.275,-0.095 -0.496,-0.304 -0.603,-0.574 0,0 -5.953,-14.882 -6,-14.999 -0.107,-0.268 -0.086,-0.648 0.045,-0.903 0.674,-1.331 8.726,-3.728 8.807,-3.748 2.908,-0.749 5.923,-1.129 8.964,-1.129 4.125,0 8.116,0.687 11.856,2.042 5.396,1.951 10.084,5.074 13.553,9.032 1.007,1.149 1.941,2.437 2.773,3.826 3.469,5.782 4.129,11.028 1.906,15.171 -1.836,3.422 -5.152,5.423 -8.361,7.358 -0.803,0.485 -1.596,0.963 -2.35,1.457 -0.33,0.217 -0.732,0.455 -1.172,0.717 -1.617,0.958 -4.06,2.406 -4.388,3.908 -0.067,0.307 -0.1,0.796 0.39,1.504 0.403,0.58 1.254,1.211 2.075,1.535 0.966,0.381 2.058,0.606 2.996,0.617 l 0.121,0.001 c 1.449,0 3.123,-0.27 5.115,-0.827 0.611,-0.291 5.557,-2.746 8.248,-7.085 0.203,-0.327 0.578,-0.507 0.955,-0.467 0.383,0.04 0.707,0.296 0.836,0.657 C 4.279,-4.006 4.373,-3.748 4.373,-3.748 4.826,-2.474 3.324,-1.523 0,0"
             style="fill:#ffffff;fill-opacity:1;fill-rule:nonzero;stroke:none"
             id="path580"
             inkscape:connector-curvature="0" /></g></g></g><g
       id="g582"
       transform="matrix(0.81457465,0,0,0.81457465,-50.358522,-84.014174)"><g
         id="g584"
         clip-path="url(#clipPath588)"><g
           id="g590"><g
             id="g592"><path
               d="m 148.96,216.082 -22.375,-59.125 h 16.25 l 9.125,24.25 h 21 l 5.25,14.375 h -20.625 l 2.625,6.625 h 20.375 l 4.875,13.875 z"
               style="fill:url(#linearGradient602);stroke:none"
               id="path604"
               inkscape:connector-curvature="0" /></g></g></g></g><g
       id="g606"
       transform="matrix(0.81457465,0,0,0.81457465,-50.358522,-84.014174)"><g
         id="g608"
         clip-path="url(#clipPath612)"><g
           id="g614"><g
             id="g616"><path
               d="m 194.085,216.082 -23.25,-59.125 h 16.5 l 22.875,59.125 z"
               style="fill:url(#linearGradient626);stroke:none"
               id="path628"
               inkscape:connector-curvature="0" /></g></g></g></g><g
       id="g630"
       transform="matrix(0.81457465,0,0,0.81457465,-50.358522,-84.014174)"><g
         id="g632"
         clip-path="url(#clipPath636)"><g
           id="g638"><g
             id="g640"><path
               d="m 241.085,216.082 c -4.824,-0.195 -10.177,-1.072 -14.635,-2.97 v 0 c -6.127,-2.608 -12.083,-7.142 -15.815,-12.678 v 0 c -3.477,-5.157 -6.548,-10.403 -7.111,-16.805 v 0 c -0.247,-2.816 -0.388,-5.62 0.003,-8.43 v 0 c 0.651,-4.683 2.12,-9.931 5.647,-13.273 v 0 c 2.449,-2.317 6.604,-4.969 10.136,-4.969 v 0 h 21.326 l 13.074,34.375 -19,0.125 -11.75,-14.5 h 8.75 l -2.5,-5.75 c -6.924,-0.537 -10.308,5.512 -9.954,11.716 v 0 c 0.169,2.97 1.818,6.758 3.329,9.282 v 0 c 2.778,4.644 7.625,7.383 12.726,8.785 v 0 c 2.477,0.681 5.029,1.039 7.594,1.151 v 0 c 1.278,0.054 2.557,0.047 3.835,0.007 v 0 c 0.497,-0.015 3.6,-0.496 3.845,-0.191 v 0 c 0.007,0.01 11.375,14.125 11.375,14.125 v 0 z"
               style="fill:url(#linearGradient650);stroke:none"
               id="path652"
               inkscape:connector-curvature="0" /></g></g></g></g><g
       id="g654"
       transform="matrix(0.81457465,0,0,0.81457465,-50.358522,-84.014174)"><g
         id="g656"
         clip-path="url(#clipPath660)"><g
           id="g662"><g
             id="g664"><path
               d="m 301.084,216.082 -8.499,-20.625 h -14.75 l 8.125,20.625 h -16.25 l -23.25,-59.125 h 16.75 l 9.5,24.5 14.25,-0.125 -8.875,-24.375 h 16.5 l 22.499,59.125 z"
               style="fill:url(#linearGradient674);stroke:none"
               id="path676"
               inkscape:connector-curvature="0" /></g></g></g></g><g
       id="g678"
       transform="matrix(0.81457465,0,0,0.81457465,-50.358522,-84.014174)"><g
         id="g680"
         clip-path="url(#clipPath684)"><g
           id="g686"><g
             id="g688"><path
               d="m 322.959,216.082 -5.25,-13.625 h 12.375 l -17.125,-45.5 h 16.375 l 17.5,45.5 h 11.5 l 5.375,13.625 z"
               style="fill:url(#linearGradient698);stroke:none"
               id="path700"
               inkscape:connector-curvature="0" /></g></g></g></g><g
       id="g702"
       transform="matrix(0.81457465,0,0,0.81457465,-50.358522,-84.014174)"><g
         id="g704"
         clip-path="url(#clipPath708)"><g
           id="g710"><g
             id="g712"><path
               d="m 370.604,216.082 -22.299,-59.125 h 40.726 l 4.928,14.469 h -24.293 l 4.108,9.975 h 22.181 l 5.047,14.084 h -21.83 l 2.699,7.16 h 22.533 l 5.047,13.437 z"
               style="fill:url(#linearGradient722);stroke:none"
               id="path724"
               inkscape:connector-curvature="0" /></g></g></g></g><g
       id="g726"
       transform="matrix(0.81457465,0,0,0.81457465,-50.358522,-84.014174)"><g
         id="g728"
         clip-path="url(#clipPath732)"><g
           id="g734"><g
             id="g736"><path
               d="m 417.084,216.082 -22.25,-59.125 h 16.25 l 9.375,24.125 2.5,-24.125 h 16.125 l -1.875,25.875 c 12.375,9.875 13.375,21 13.375,21 v 0 c 1.25,11.5 -5.875,12.25 -5.875,12.25 v 0 z m 7.084,-24.875 c 0,0.001 5.916,15.166 5.916,15.166 v 0 h 3.918 c 0.594,0 1.256,-1.117 1.498,-1.518 v 0 c 0.699,-1.16 0.871,-2.404 0.611,-3.725 v 0 c -0.588,-2.97 -2.081,-5.862 -4.378,-7.862 v 0 c -0.923,-0.804 -1.975,-1.438 -3.155,-1.78 v 0 c -0.416,-0.122 -3.917,-0.284 -4.363,-0.284 v 0 c -0.031,0 -0.047,0.001 -0.047,0.003"
               style="fill:url(#linearGradient746);stroke:none"
               id="path748"
               inkscape:connector-curvature="0" /></g></g></g></g><g
       id="g750"
       transform="matrix(0.81457465,0,0,0.81457465,-50.358522,-84.014174)"><g
         id="g752"
         clip-path="url(#clipPath756)"><g
           id="g758"><g
             id="g760"><path
               d="m 474.496,215.932 c -1.789,-0.625 -3.612,-1.411 -5.261,-2.348 v 0 c -3.093,-1.756 -6.069,-3.848 -8.342,-6.616 v 0 c -0.995,-1.209 -1.926,-2.552 -2.678,-3.928 v 0 c -1.946,-3.556 -3.424,-7.574 -2.031,-11.582 v 0 c 1.392,-4.004 4.962,-7.476 8.525,-9.626 v 0 c 0,0 7.668,-4.334 6.625,-7.125 v 0 c 0,0 -4.748,-9.792 -23.5,1.125 v 0 c 0,0 -5.998,-14.998 -6,-15 v 0 c -0.24,-0.602 7.772,-3.207 8.174,-3.31 v 0 c 6.6,-1.7 13.812,-1.44 20.23,0.884 v 0 c 4.994,1.806 9.631,4.746 13.141,8.751 v 0 c 1,1.141 1.888,2.381 2.668,3.682 v 0 c 2.523,4.205 4.381,9.526 1.883,14.184 v 0 c -2.157,4.02 -6.723,6.056 -10.379,8.452 v 0 c -2.227,1.46 -7.9,3.987 -5.443,7.533 v 0 c 0.562,0.812 1.617,1.536 2.529,1.896 v 0 c 1.023,0.404 2.246,0.674 3.351,0.687 v 0 c 1.848,0.02 3.826,-0.386 5.596,-0.884 v 0 c 0,0 5.687,-2.562 8.75,-7.5 v 0 c 0,0 5.998,16.744 6,16.75 v 0 c 0.25,0.702 -3.582,2.373 -4.072,2.607 v 0 c -3.717,1.774 -7.695,2.736 -11.694,2.736 v 0 c -2.706,10e-4 -5.42,-0.44 -8.072,-1.368"
               style="fill:url(#linearGradient770);stroke:none"
               id="path772"
               inkscape:connector-curvature="0" /></g></g></g></g><path
       d="m 11.450181,-5.3635489 c 1.188039,8.832e-4 2.361404,0.2647695 3.438422,0.7722416 1.059181,0.4731585 1.998874,1.1816717 2.748937,2.0740457 v 0 l -2.048041,2.07404582 C 15.086887,-1.0548882 14.462616,-1.5525513 13.757259,-1.9043645 13.065323,-2.2426831 12.305675,-2.4167351 11.536894,-2.4118365 10.888156,-2.4177242 10.24448,-2.295378 9.6431189,-2.0490133 9.0417448,-1.8026252 8.4946368,-1.4385656 8.0334444,-0.97766521 7.5893523,-0.52533732 7.2384705,0.01032503 7.0012059,0.60116643 6.7468175,1.2275463 6.6187225,1.8980485 6.6244348,2.5759103 6.617605,3.2586707 6.7419531,3.937769 6.990873,4.5727213 7.2232343,5.164776 7.5675713,5.7041357 8.0045418,6.1613504 c 0.4382209,0.4547654 0.9623433,0.8139264 1.5411511,1.05909 0.6031631,0.2598592 1.2523311,0.3910252 1.9075901,0.3861266 0.790232,0.00353 1.570289,-0.1801987 2.278172,-0.5344494 0.731687,-0.3726439 1.372384,-0.9034194 1.875596,-1.5567531 v 0 L 17.720036,7.655588 C 16.977082,8.5675798 16.031752,9.2895758 14.960863,9.7627343 13.860261,10.277554 12.662639,10.544785 11.450181,10.547234 10.367243,10.554299 9.2936203,10.343755 8.2915114,9.9294385 7.3420974,9.5396379 6.4752171,8.9696268 5.7377329,8.2513283 5.0097951,7.5317816 4.4308099,6.6725081 4.0345211,5.7237417 3.6237062,4.7296166 3.4113065,3.6631788 3.4095343,2.5869321 3.407768,1.5094726 3.6166562,0.44181014 4.0241988,-0.55353937 4.4157975,-1.4986318 4.9911264,-2.3542313 5.7160474,-3.0700924 6.4538895,-3.7884144 7.3211255,-4.358402 8.2708692,-4.7469779 9.2797571,-5.1637442 10.360465,-5.3733578 11.450181,-5.3635489 Z m 40.853255,-0.023315 c 1.079311,-0.00707 2.149428,0.2022541 3.14734,0.6177956 0.945213,0.3873514 1.80522,0.9610128 2.530527,1.6866945 0.725309,0.7244335 1.301549,1.5874044 1.695514,2.53983294 0.412486,0.98798989 0.625026,2.04951736 0.625026,3.12210186 0,1.072561 -0.21254,2.1341002 -0.625026,3.1233151 -0.393965,0.9512156 -0.970091,1.8141747 -1.69539,2.5398447 -0.725299,0.7244335 -1.585315,1.2981067 -2.530651,1.685458 -2.01202,0.8237232 -4.261951,0.8237232 -6.27397,0 C 48.231478,9.5408272 47.371463,8.967154 46.646158,8.2427205 45.920857,7.5170505 45.344612,6.6540914 44.950765,5.7028758 44.53853,4.7136609 44.326224,3.6521217 44.326224,2.5795607 c 0,-1.0725845 0.212306,-2.13411197 0.624541,-3.12210186 0.39397,-0.95242854 0.970092,-1.81539944 1.695393,-2.53983294 0.725305,-0.7256817 1.58532,-1.2993431 2.530648,-1.6866945 0.991543,-0.4143169 2.054913,-0.6239305 3.127733,-0.6165709 z m 0,2.9345439 c -0.633372,-0.00589 -1.261224,0.1201207 -1.845068,0.3689582 -0.583721,0.2488374 -1.111176,0.6153463 -1.550015,1.0762467 -0.432824,0.46336138 -0.773103,1.00760798494 -1.002327,1.60088689 -0.488843,1.28217461 -0.488843,2.70165021 0,3.98382491 0.231061,0.5883924 0.57134,1.1277286 1.002327,1.588629 0.438839,0.4608886 0.966294,0.8274093 1.550015,1.0762349 0.583844,0.2488375 1.211696,0.3738685 1.845068,0.36897 0.652005,0.00589 1.297989,-0.1262439 1.897279,-0.3861267 0.57232,-0.2451518 1.089247,-0.6055374 1.519484,-1.0590782 0.430997,-0.4609004 0.771276,-1.0002366 1.002345,-1.588629 0.488596,-1.2821747 0.488596,-2.7016503 0,-3.98382491 C 56.493312,4.9258494e-4 56.153033,-0.54375402 55.720199,-1.0071154 55.289962,-1.4606562 54.773035,-1.8210301 54.200715,-2.0661936 53.601672,-2.32484 52.956051,-2.4559942 52.304539,-2.4510957 Z m 47.385323,-2.6918414 v 2.8242203 H 91.430838 V 10.303272 h -3.12368 V -5.1429371 Z m 39.409841,0 v 2.8242203 h -8.25818 V 10.303272 h -3.12454 V -5.1429371 Z m 39.71076,0 v 2.7800979 h -8.55849 v 3.6638992 h 5.58471 v 2.693066 h -5.58471 v 3.5278231 h 8.47269 V 10.300822 H 167.12388 V -5.1453863 Z m 34.66663,-0.2206472 c 1.18901,8.832e-4 2.36209,0.2647696 3.43835,0.7722534 1.05907,0.4731585 1.99926,1.1816717 2.74945,2.0740458 v 0 l -2.04953,2.07403395 c -0.50257,-0.61167245 -1.1265,-1.11057195 -1.83133,-1.46113695 -0.69258,-0.3395432 -1.45257,-0.5123941 -2.22114,-0.5074838 -0.64844,-0.00707 -1.29198,0.115281 -1.89262,0.3616103 -0.60185,0.2463882 -1.14856,0.610436 -1.60946,1.07256102 -0.44373,0.45110325 -0.79555,0.98800202 -1.03213,1.57759523 -0.25496,0.62637985 -0.38366,1.29813025 -0.37754,1.97475565 -0.007,0.6839968 0.11764,1.3618587 0.36775,1.9980475 0.23044,0.5908182 0.57488,1.1301779 1.01249,1.5873926 0.43761,0.4547772 0.96225,0.8151511 1.54082,1.0603146 0.60309,0.2586346 1.25277,0.3898006 1.90734,0.3861267 0.79309,0.00235 1.57637,-0.182648 2.28609,-0.5405727 0.73181,-0.3701945 1.37168,-0.9021829 1.87548,-1.5555284 v 0 l 2.11203,2.1402352 c -0.74283,0.9119801 -1.68792,1.6339761 -2.75926,2.1071228 -1.09954,0.5148317 -2.29713,0.7820617 -3.50944,0.7845117 -1.08238,0.0071 -2.15617,-0.203479 -3.15886,-0.6177957 -0.94876,-0.3898124 -1.81664,-0.9585753 -2.55456,-1.6781103 -0.72811,-0.7195467 -1.30791,-1.5775955 -1.70385,-2.5263618 -0.41063,-0.9941134 -0.6227,-2.060563 -0.62515,-3.1380226 -8.9e-4,-1.077483 0.20715,-2.14392083 0.61534,-3.13925856 0.39103,-0.94508064 0.96593,-1.80069194 1.6916,-2.51655304 0.73793,-0.7183103 1.60456,-1.2882978 2.55455,-1.6768855 1.0076,-0.4143052 2.08629,-0.6226942 3.17358,-0.6116607 z m 41.35087,0.2206472 v 12.623201 h 5.06498 V 10.304496 H 246.6116 V 7.4790396 h 5.08827 V -5.1429371 Z m 35.80783,0 V 10.302047 h -3.12576 V -5.1441617 Z m 36.00398,-0.2439271 c 1.07993,-0.00707 2.15004,0.2022422 3.14784,0.6177838 0.94508,0.3885878 1.80436,0.9610364 2.53003,1.6867063 0.72567,0.7244335 1.30179,1.588629 1.69527,2.53984468 0.41188,0.98797811 0.62515,2.04951732 0.62515,3.12209012 0,1.072561 -0.21327,2.1341002 -0.62515,3.123315 -0.39348,0.9512157 -0.9696,1.8141748 -1.69527,2.5398329 -0.72567,0.7244453 -1.58495,1.2981303 -2.53003,1.6854699 -2.01275,0.8237348 -4.26208,0.8237348 -6.27361,0 -0.94509,-0.388576 -1.80437,-0.9610246 -2.5288,-1.6866945 -0.72567,-0.7256581 -1.30181,-1.5873926 -1.6965,-2.5386083 -0.41187,-0.9879902 -0.62516,-2.050754 -0.62516,-3.123315 0,-1.0725728 0.21329,-2.13411201 0.62516,-3.12209012 0.39469,-0.95121568 0.97083,-1.81418658 1.6965,-2.53984468 0.72443,-0.7244571 1.58371,-1.2981185 2.5288,-1.6867063 0.99167,-0.4130805 2.0532,-0.6226941 3.12577,-0.6153345 z m 0,2.9345439 c -0.64843,-0.00589 -1.29077,0.1262556 -1.88527,0.3861148 -0.56876,0.2476246 -1.08236,0.6079985 -1.51017,1.0603147 -0.4327,0.46212496 -0.77348,1.0051587 -1.00271,1.59966225 -0.48909,1.28217465 -0.48909,2.70165025 0,3.98382485 0.23046,0.5896171 0.57124,1.1289533 1.00271,1.5886291 0.42781,0.4510914 0.94141,0.8114653 1.51017,1.0590782 0.5945,0.2598709 1.23684,0.3922498 1.88527,0.3861266 0.65213,0.00589 1.29689,-0.1262557 1.8963,-0.3861266 0.57245,-0.2451518 1.08973,-0.6055493 1.51999,-1.0590782 0.43147,-0.4609004 0.77224,-1.0002484 1.00269,-1.5886291 0.48909,-1.2821746 0.48909,-2.7016502 0,-3.98382485 -0.22922,-0.59329068056 -0.56877,-1.13753729 -1.00269,-1.59966225 -0.43026,-0.4535408 -0.94754,-0.8139147 -1.51999,-1.0603147 -0.59941,-0.2586227 -1.24417,-0.3885641 -1.8963,-0.3836656 z M 365.59435,-5.145386 V 5.1868195 l 7.69674,-10.3322058 h 2.75927 V 10.300822 h -2.9321 V 0.30448559 L 365.61641,10.300822 H 362.6402 V -5.1453863 Z"
       id="path265"
       inkscape:connector-curvature="0"
       style="fill:#ffffff;stroke-width:1.22579229" /></g></svg>