<?xml version="1.0" encoding="UTF-8" standalone="no"?>
<svg
   xmlns:dc="http://purl.org/dc/elements/1.1/"
   xmlns:cc="http://creativecommons.org/ns#"
   xmlns:rdf="http://www.w3.org/1999/02/22-rdf-syntax-ns#"
   xmlns:svg="http://www.w3.org/2000/svg"
   xmlns="http://www.w3.org/2000/svg"
   xmlns:sodipodi="http://sodipodi.sourceforge.net/DTD/sodipodi-0.dtd"
   xmlns:inkscape="http://www.inkscape.org/namespaces/inkscape"
   width="500"
   height="200"
   viewBox="0 0 38.5512 15.42048"
   version="1.1"
   id="svg18"
   sodipodi:docname="lego-C.svg"
   inkscape:version="0.92.5 (2060ec1f9f, 2020-04-08)">
  <metadata
     id="metadata24">
    <rdf:RDF>
      <cc:Work
         rdf:about="">
        <dc:format>image/svg+xml</dc:format>
        <dc:type
           rdf:resource="http://purl.org/dc/dcmitype/StillImage" />
        <dc:title></dc:title>
      </cc:Work>
    </rdf:RDF>
  </metadata>
  <defs
     id="defs22" />
  <sodipodi:namedview
     pagecolor="#ffffff"
     bordercolor="#666666"
     borderopacity="1"
     objecttolerance="10"
     gridtolerance="10"
     guidetolerance="10"
     inkscape:pageopacity="0"
     inkscape:pageshadow="2"
     inkscape:window-width="1366"
     inkscape:window-height="743"
     id="namedview20"
     showgrid="false"
     inkscape:pagecheckerboard="true"
     inkscape:zoom="1.1431088"
     inkscape:cx="349.06617"
     inkscape:cy="126.43013"
     inkscape:window-x="0"
     inkscape:window-y="0"
     inkscape:window-maximized="1"
     inkscape:current-layer="svg18" />
  <g
     id="g4825"
     transform="matrix(1.5435254,0,0,1.5398142,-34.877272,6.6137318)">
    <rect
       y="-3.5277576"
       x="28.801043"
       height="7.1445322"
       width="14.003824"
       id="rect4819"
       style="opacity:0.98000004;fill:#d40000;fill-opacity:1;stroke:none;stroke-width:0.71794111;stroke-linecap:round;stroke-linejoin:bevel;stroke-miterlimit:4;stroke-dasharray:none;stroke-opacity:1" />
    <path
       d="m 41.317678,-2.3075317 v -0.09737 h 0.05852 c 0.05819,0 0.07786,0.019505 0.07786,0.03885 0,0.038844 -0.01968,0.058521 -0.05852,0.058521 z m 0.214247,0.1754002 -0.03902,-0.058521 c -0.01934,-0.058521 -0.03868,-0.078031 -0.05852,-0.078031 0.05852,0 0.0782,-0.03885 0.0782,-0.09737 0,-0.03885 -0.01968,-0.077862 -0.09754,-0.077862 H 41.25932 V -2.13213 h 0.05852 v -0.1365531 h 0.01934 c 0.01934,0 0.03902,0.019505 0.05852,0.019505 0,0.019505 0.01934,0.03885 0.03868,0.058521 l 0.01968,0.058521 z M 41.3762,-2.5412868 c 0.136386,0 0.253263,0.1168772 0.253263,0.2532625 0,0.1363853 -0.116877,0.2532632 -0.253263,0.2532632 -0.136553,0 -0.233923,-0.1168779 -0.233923,-0.2532632 0,-0.1363853 0.0972,-0.2532625 0.233923,-0.2532625 z m 0,-0.058355 c -0.156061,0 -0.292278,0.1363853 -0.292278,0.3117855 0,0.1752327 0.136386,0.3117861 0.292278,0.3117861 a 0.3079178,0.3079178 0 0 0 0.311786,-0.311786 0.30808597,0.30808597 0 0 0 -0.311786,-0.3117856 z m -1.675806,0.3311249 c -0.66225,0 -1.110589,0.2532631 -1.422207,0.6235716 -0.05852,-0.097538 -0.0972,-0.1558928 -0.155724,-0.2142477 -0.253263,-0.292278 -0.662419,-0.4284952 -1.208128,-0.4284952 -0.545709,0 -0.974036,0.1752327 -1.285822,0.4284952 -0.1754,-0.2532625 -0.54554,-0.4284952 -1.01305,-0.4284952 -0.604065,0 -1.266315,0.077862 -1.656131,0.7207733 -0.0195,-0.2337551 -0.03885,-0.3506329 -0.155892,-0.4870176 -0.155894,-0.1558934 -0.409156,-0.2142477 -0.662419,-0.2142477 -0.428664,0 -0.779296,0.1949077 -1.013052,0.6040636 -0.350632,0.5455411 -1.188451,2.396411 -1.168944,3.273077 0,0.5845561 0.389649,0.993712 1.071574,1.0130513 0.545542,0.019505 0.974037,-0.1363853 1.246975,-0.4091558 0.233756,0.2727705 0.603896,0.4286633 1.052067,0.4286633 0.487018,0 0.974035,-0.1558928 1.266314,-0.4676782 0.253263,0.292278 0.64291,0.4676782 1.130097,0.4676782 0.66225,0 1.227467,-0.3117854 1.597607,-0.7792956 0.19474,0.5455405 0.720605,0.7792956 1.285822,0.7792956 1.246806,0 1.792347,-0.8573267 2.24035,-2.2016709 0.116877,-0.3117855 0.253263,-0.8183111 0.272602,-1.2468064 0.03918,-0.70177 -0.272434,-1.4615588 -1.422039,-1.4615588 z M 31.439755,1.121438 c 0.642911,-0.09737 0.798804,0.1170459 0.779297,0.350801 -0.05852,0.6429109 -0.642911,0.7792962 -1.168945,0.7597881 -0.37014,0 -0.701433,-0.175232 -0.701433,-0.6038954 -0.01951,-0.7599563 0.740448,-2.5132883 1.110589,-3.0783369 0.175232,-0.2727706 0.37014,-0.4091559 0.701266,-0.4091559 0.311785,0 0.389647,0.1558928 0.37014,0.3312936 1.7e-4,0.5065256 -0.818143,2.0456101 -1.090914,2.6495055 z M 33.52438,0.53705 c -0.03884,0.1170459 -0.116877,0.350801 -0.175232,0.6040635 0.214248,-0.03885 0.370141,-0.077862 0.642911,-0.077862 0.292278,0 0.506526,0.1363853 0.506526,0.3896484 0,0.6235711 -0.701434,0.7988037 -1.168944,0.7988037 -0.526033,0 -0.974036,-0.29211 -0.974036,-0.8573266 0,-0.6819259 0.350632,-1.6949772 0.701433,-2.3573962 0.409156,-0.8376505 0.837651,-0.9545283 1.5781,-0.9545283 0.311786,0 0.701434,0.1558933 0.701434,0.4480033 0,0.4286627 -0.370309,0.584556 -0.720941,0.6040635 -0.155893,0.019505 -0.389649,0.019505 -0.526034,0.019505 0,0 -0.116877,0.1752328 -0.233923,0.4870182 0.642911,-0.077862 0.935189,0.058521 0.818311,0.4481708 -0.155893,0.5061895 -0.604064,0.5452044 -1.149605,0.4478346 z m 3.234399,-1.5976074 c -0.175401,0 -0.292278,0.1168779 -0.370477,0.2337551 -0.19474,0.2727706 -0.603727,1.3443449 -0.66225,1.7730082 -0.05852,0.3117854 0.07786,0.3701403 0.214247,0.3701403 0.233755,0 0.487018,-0.2532631 0.584556,-0.6429108 0,0 -0.448338,-0.019505 -0.331461,-0.3896479 0.116878,-0.3896485 0.350801,-0.4675108 0.720941,-0.4870182 0.720942,-0.019505 0.643079,0.5065256 0.584388,0.7988036 -0.19474,0.915681 -0.837482,1.6561305 -1.772839,1.6561305 -0.642911,0 -1.032728,-0.350633 -1.032728,-0.993544 0,-0.46751 0.233924,-1.1884515 0.409156,-1.6171148 0.389648,-0.8961734 0.798804,-1.5390844 1.831363,-1.5390844 0.623739,0 1.110589,0.233755 1.032727,0.8183111 -0.05852,0.4286634 -0.272603,0.6624184 -0.642743,0.7012659 -0.116878,0 -0.56488,0 -0.409324,-0.4284953 0.03918,-0.1367214 0.07786,-0.2535993 -0.155556,-0.2535993 z m 3.915819,0.7597882 c -0.116877,0.5455412 -0.37014,1.1884522 -0.623403,1.6561303 -0.448003,0.7988037 -0.974204,0.8961741 -1.422207,0.8961741 -0.467678,0 -0.993543,-0.1752327 -0.993543,-0.8961741 0,-0.5065256 0.214079,-1.227467 0.408987,-1.6949771 0.331461,-0.8573267 0.662419,-1.5585919 1.714485,-1.5390844 1.227299,-1.681e-4 1.013219,1.1104211 0.915681,1.5779312 z m -0.876665,-0.5455405 c -0.01934,0.3311249 -0.506526,1.6559623 -0.662419,1.9287323 -0.07786,0.1363852 -0.175401,0.2337556 -0.311786,0.2337556 -0.136385,0 -0.19474,-0.09737 -0.19474,-0.1949082 -0.01934,-0.29211 0.525865,-1.7728395 0.720942,-2.0261026 0.07786,-0.1168779 0.175064,-0.1363853 0.272602,-0.1363853 0.156061,1.696e-4 0.175401,0.1170459 0.175401,0.1949082 z"
       id="path14-3"
       inkscape:connector-curvature="0"
       style="clip-rule:evenodd;fill:#ffff00;fill-rule:evenodd;stroke:#f6f828;stroke-width:0.77102399;stroke-miterlimit:4;stroke-dasharray:none;stroke-opacity:1" />
    <path
       d="m 41.324654,-2.3496403 v -0.09737 h 0.05852 c 0.05819,0 0.07786,0.019505 0.07786,0.03885 0,0.038844 -0.01968,0.058521 -0.05852,0.058521 z m 0.214247,0.1754002 -0.03902,-0.058521 c -0.01934,-0.058521 -0.03868,-0.078031 -0.05852,-0.078031 0.05852,0 0.0782,-0.03885 0.0782,-0.09737 0,-0.03885 -0.01968,-0.077862 -0.09754,-0.077862 h -0.155725 v 0.3117855 h 0.05852 v -0.1365531 h 0.01934 c 0.01934,0 0.03902,0.019505 0.05852,0.019505 0,0.019505 0.01934,0.03885 0.03868,0.058521 l 0.01968,0.058521 z m -0.155725,-0.4091553 c 0.136386,0 0.253263,0.1168772 0.253263,0.2532625 0,0.1363853 -0.116877,0.2532632 -0.253263,0.2532632 -0.136553,0 -0.233923,-0.1168779 -0.233923,-0.2532632 0,-0.1363853 0.0972,-0.2532625 0.233923,-0.2532625 z m 0,-0.058355 c -0.156061,0 -0.292278,0.1363853 -0.292278,0.3117855 0,0.1752327 0.136386,0.3117861 0.292278,0.3117861 a 0.3079178,0.3079178 0 0 0 0.311786,-0.311786 0.30808597,0.30808597 0 0 0 -0.311786,-0.3117856 z m -1.675806,0.3311249 c -0.66225,0 -1.110589,0.2532631 -1.422207,0.6235716 -0.05852,-0.097538 -0.0972,-0.1558928 -0.155724,-0.2142477 -0.253263,-0.292278 -0.662419,-0.4284952 -1.208128,-0.4284952 -0.545709,0 -0.974036,0.1752327 -1.285822,0.4284952 -0.1754,-0.2532625 -0.54554,-0.4284952 -1.01305,-0.4284952 -0.604065,0 -1.266315,0.077862 -1.656131,0.7207733 -0.0195,-0.2337551 -0.03885,-0.3506329 -0.155892,-0.4870176 -0.155894,-0.1558934 -0.409156,-0.2142477 -0.662419,-0.2142477 -0.428664,0 -0.779296,0.1949077 -1.013052,0.6040636 -0.350632,0.5455411 -1.188451,2.396411 -1.168944,3.273077 0,0.5845561 0.389649,0.993712 1.071574,1.0130513 0.545542,0.019505 0.974037,-0.1363853 1.246975,-0.4091559 0.233756,0.2727706 0.603896,0.4286634 1.052067,0.4286634 0.487018,0 0.974035,-0.1558928 1.266314,-0.4676783 0.253263,0.2922781 0.64291,0.4676783 1.130097,0.4676783 0.66225,0 1.227467,-0.3117855 1.597607,-0.7792956 0.19474,0.5455405 0.720605,0.7792956 1.285822,0.7792956 1.246806,0 1.792347,-0.8573267 2.24035,-2.2016709 0.116877,-0.3117855 0.253263,-0.8183111 0.272602,-1.2468064 0.03918,-0.70177 -0.272434,-1.4615588 -1.422039,-1.4615588 z m -8.260639,3.3899549 c 0.642911,-0.09737 0.798804,0.1170459 0.779297,0.350801 -0.05852,0.6429109 -0.642911,0.7792962 -1.168945,0.7597881 -0.37014,0 -0.701433,-0.1752321 -0.701433,-0.6038954 -0.01951,-0.7599563 0.740448,-2.5132883 1.110589,-3.0783369 0.175232,-0.2727706 0.37014,-0.4091559 0.701266,-0.4091559 0.311785,0 0.389647,0.1558928 0.37014,0.3312936 1.68e-4,0.5065256 -0.818143,2.04561 -1.090914,2.6495055 z m 2.084625,-0.584388 c -0.03884,0.1170459 -0.116877,0.350801 -0.175232,0.6040635 0.214248,-0.03885 0.370141,-0.077862 0.642911,-0.077862 0.292278,0 0.506526,0.1363853 0.506526,0.3896484 0,0.623571 -0.701434,0.7988037 -1.168944,0.7988037 -0.526033,0 -0.974036,-0.29211 -0.974036,-0.8573267 0,-0.6819258 0.350632,-1.6949771 0.701433,-2.3573961 0.409156,-0.8376505 0.837651,-0.9545283 1.5781,-0.9545283 0.311786,0 0.701434,0.1558933 0.701434,0.4480033 0,0.4286627 -0.370309,0.584556 -0.720941,0.6040635 -0.155893,0.019505 -0.389649,0.019505 -0.526034,0.019505 0,0 -0.116877,0.1752328 -0.233923,0.4870182 0.642911,-0.077862 0.935189,0.058521 0.818311,0.4481708 -0.155893,0.5061895 -0.604064,0.5452044 -1.149605,0.4478346 z m 3.234399,-1.5976074 c -0.175401,0 -0.292278,0.1168779 -0.370477,0.2337551 -0.19474,0.2727706 -0.603727,1.3443448 -0.66225,1.7730082 -0.05852,0.3117854 0.07786,0.3701403 0.214247,0.3701403 0.233755,0 0.487018,-0.2532631 0.584556,-0.6429109 0,0 -0.448338,-0.019505 -0.331461,-0.3896478 0.116878,-0.3896485 0.350801,-0.4675108 0.720941,-0.4870182 0.720942,-0.019505 0.643079,0.5065256 0.584388,0.7988036 -0.19474,0.915681 -0.837482,1.6561304 -1.772839,1.6561304 -0.642911,0 -1.032728,-0.3506329 -1.032728,-0.9935439 0,-0.4675101 0.233924,-1.1884515 0.409156,-1.6171148 0.389648,-0.8961734 0.798804,-1.5390844 1.831363,-1.5390844 0.623739,0 1.110589,0.2337551 1.032727,0.8183111 -0.05852,0.4286634 -0.272603,0.6624184 -0.642743,0.7012659 -0.116878,0 -0.56488,0 -0.409324,-0.4284953 0.03918,-0.1367214 0.07786,-0.2535993 -0.155556,-0.2535993 z m 3.915819,0.7597882 c -0.116877,0.5455412 -0.37014,1.1884521 -0.623403,1.6561303 -0.448003,0.7988037 -0.974204,0.8961741 -1.422207,0.8961741 -0.467678,0 -0.993543,-0.1752327 -0.993543,-0.8961741 0,-0.5065256 0.214079,-1.227467 0.408987,-1.6949771 0.331461,-0.8573267 0.662419,-1.5585919 1.714485,-1.5390844 1.227299,-1.681e-4 1.013219,1.1104211 0.915681,1.5779312 z m -0.876666,-0.5455405 c -0.01934,0.3311249 -0.506525,1.6559623 -0.662418,1.9287323 -0.07786,0.1363852 -0.175401,0.2337556 -0.311786,0.2337556 -0.136385,0 -0.19474,-0.09737 -0.19474,-0.1949082 -0.01934,-0.29211 0.525865,-1.7728395 0.720942,-2.0261026 0.07786,-0.1168779 0.175064,-0.1363853 0.272602,-0.1363853 0.156061,1.681e-4 0.1754,0.1170459 0.1754,0.1949082 z"
       id="path14"
       inkscape:connector-curvature="0"
       style="clip-rule:evenodd;fill:#000000;fill-rule:evenodd;stroke-width:0.1681692" />
    <path
       inkscape:connector-curvature="0"
       d="m 32.610419,-2.1821204 c 0.0057,0.00246 0.01118,0.00511 0.01674,0.00772 -1.57e-4,-0.00228 -3.2e-4,-0.00462 -4.88e-4,-0.00686 -0.0054,-3.368e-4 -0.01084,-5.049e-4 -0.01626,-8.62e-4 z m 2.024735,0.2645672 c -0.740453,0 -1.168953,0.1168864 -1.578109,0.9545369 -0.3508,0.6624184 -0.701443,1.6754494 -0.701443,2.3573758 0,0.2636554 0.09753,0.4678279 0.254943,0.6107044 0.01044,9.851e-4 0.02089,0.00185 0.03133,0.00252 0.01815,0.024197 0.03993,0.046503 0.06063,0.069365 0.171155,0.1157998 0.39122,0.1747395 0.627141,0.1747395 0.467511,0 1.168938,-0.1752475 1.168938,-0.7988172 0,-0.2532644 -0.214241,-0.389646 -0.50652,-0.389646 -0.27277,0 -0.42867,0.039029 -0.642918,0.077874 0.05835,-0.2532613 0.1364,-0.487025 0.175247,-0.6040703 0.545541,0.09737 0.993696,0.058349 1.149589,-0.4478432 0.116878,-0.3896466 -0.17538,-0.5260331 -0.818291,-0.4481708 0.117046,-0.3117843 0.233924,-0.4870201 0.233924,-0.4870201 0.136385,0 0.370126,8.7e-6 0.52602,-0.019499 0.350632,-0.019505 0.720943,-0.1754076 0.720943,-0.6040709 0,-0.2921099 -0.389633,-0.4479922 -0.701418,-0.4479922 z m 1.065462,0.00283 c -0.01758,0.00765 -0.03424,0.017763 -0.05126,0.02677 0.01205,-0.00591 0.02931,-0.014161 0.04305,-0.020816 0.0027,-0.00197 0.0055,-0.00394 0.0082,-0.00597 z m 1.233059,0.016667 c -1.032559,0 -1.441708,0.6429109 -1.831356,1.5390825 -0.175232,0.4286652 -0.409146,1.1496213 -0.409146,1.6171333 0,0.642911 0.389806,0.9935408 1.032717,0.9935408 0.935356,0 1.57809,-0.7404525 1.77283,-1.656134 0.05869,-0.2922781 0.136548,-0.8183013 -0.584393,-0.7987933 -0.37014,0.019505 -0.604041,0.09737 -0.720918,0.4870195 -0.116878,0.3701385 0.331449,0.3896466 0.331449,0.3896466 -0.09754,0.3896459 -0.350789,0.6428937 -0.584544,0.6428937 -0.136386,0 -0.272766,-0.058336 -0.214248,-0.3701219 0.05853,-0.4286633 0.467502,-1.5002339 0.662242,-1.7730076 0.0782,-0.1168711 0.195073,-0.2337723 0.370474,-0.2337723 0.233419,0 0.194728,0.1168809 0.155545,0.2536012 -0.155556,0.4284964 0.292472,0.4284952 0.409349,0.4284952 0.37014,-0.03885 0.584217,-0.2726025 0.642741,-0.7012677 0.07786,-0.584556 -0.409003,-0.818316 -1.032742,-0.818316 z m 2.776449,0.018969 c -1.013617,0.00283 -1.3394,0.6955326 -1.665682,1.5394649 -0.194909,0.4675101 -0.408994,1.1884564 -0.408994,1.6949802 0,0.1956785 0.03882,0.3510701 0.104617,0.4737495 0.008,0.00797 0.01589,0.015842 0.02426,0.023883 0.04392,0.068011 0.05954,0.086767 0.07038,0.1120108 0.195709,0.2198947 0.506023,0.286525 0.794287,0.286525 0.448001,0 0.974206,-0.097364 1.422208,-0.8961673 0.253262,-0.4676782 0.50654,-1.110594 0.623419,-1.6561334 0.09754,-0.4675089 0.311607,-1.5780962 -0.91569,-1.577933 -0.01645,-3.362e-4 -0.03271,-5.049e-4 -0.0488,-3.362e-4 z m -4.089155,0.0095 c 0.0025,0.00345 0.0051,0.00688 0.0075,0.010374 0.0041,-0.00332 0.0083,-0.00656 0.01244,-0.00986 -0.0072,-1.293e-4 -0.01364,-3.362e-4 -0.01998,-5.043e-4 z m -3.460444,0.010227 c -0.331124,0 -0.526033,0.1363748 -0.701266,0.4091454 -0.37014,0.5650486 -1.130097,2.3183874 -1.11059,3.0783436 0,0.4286633 0.331304,0.6038942 0.701444,0.6038942 0.526033,0.019505 1.110415,-0.1168797 1.168938,-0.7597919 0.0195,-0.2337538 -0.136381,-0.4481676 -0.779292,-0.3507979 0.272771,-0.6038985 1.09108,-2.142973 1.090912,-2.6494968 0.0195,-0.1754021 -0.05836,-0.3312966 -0.370146,-0.3312966 z m 0.822673,0.00437 c -0.03547,0.027417 -0.05451,0.038597 -0.0064,0.00917 0.0023,-0.00332 0.0042,-0.00603 0.0064,-0.00917 z m 6.639329,0.813784 c 0.156059,1.681e-4 0.175397,0.1170361 0.175397,0.1948984 -0.01934,0.3311267 -0.506524,1.6559567 -0.662419,1.9287291 -0.07786,0.1363866 -0.175385,0.2337736 -0.311771,0.2337736 -0.136386,0 -0.194746,-0.097387 -0.194746,-0.1949249 -0.01934,-0.2921099 0.525867,-1.7728382 0.720942,-2.0261026 0.07786,-0.1168778 0.175057,-0.1363736 0.272597,-0.1363736 z m -9.60285,1.8129952 c -5.3e-5,0 -1.04e-4,1.293e-4 -1.53e-4,1.564e-4 -5.1e-5,1.681e-4 -7.7e-5,3.362e-4 -1.29e-4,6.773e-4 1.04e-4,-3.368e-4 1.68e-4,-5.049e-4 2.86e-4,-8.62e-4 z m 7.297009,1.1325471 c 0.007,0.00326 0.01066,0.00523 0.0015,0 -5.05e-4,3.7e-6 -9.85e-4,0 -0.0015,0 z m -5.64123,0.6473993 c -0.03274,0.00922 -0.06618,0.017652 -0.100413,0.025151 h 0.08228 c 0.0057,-0.00841 0.01169,-0.016802 0.01813,-0.025151 z m 7.547497,0.00691 c -0.02169,0.00641 -0.04358,0.012548 -0.06582,0.018237 h 0.03788 c 0.0091,-0.00616 0.01851,-0.012191 0.02793,-0.018237 z m -1.152831,0.00234 c 8.62e-4,0.00554 0.0014,0.010848 0.0012,0.015909 h 0.05095 c -0.01753,-0.00499 -0.03487,-0.010344 -0.05209,-0.015909 z"
       style="opacity:0.98000004;fill:#ffffff;fill-opacity:1;stroke:none;stroke-width:0.04824666;stroke-linecap:round;stroke-linejoin:bevel;stroke-miterlimit:4;stroke-dasharray:none;stroke-opacity:1"
       id="rect33" />
  </g>
  <path
     d="m 0.92257696,15.293411 c 0.12008754,0 0.23687964,-0.02648 0.35037634,-0.07945 0.1134955,-0.05297 0.2068567,-0.124098 0.2800801,-0.213388 v 0 L 1.344346,14.787183 c -0.054185,0.06507 -0.1164263,0.115018 -0.1867201,0.149826 -0.070295,0.03481 -0.1457149,0.05221 -0.22626057,0.05221 -0.0717598,0 -0.13802772,-0.01324 -0.1988026,-0.03973 -0.060776,-0.02648 -0.11349674,-0.06243 -0.15816316,-0.107829 -0.0446677,-0.0454 -0.079814,-0.09951 -0.10544255,-0.162311 -0.0256286,-0.06281 -0.0384429,-0.13053 -0.0384429,-0.203173 0,-0.07416 0.0124425,-0.142637 0.0373452,-0.205442 0.0248956,-0.06281 0.0593102,-0.117287 0.1032449,-0.163446 0.0439335,-0.04616 0.0962895,-0.08248 0.15706437,-0.108965 0.060776,-0.02648 0.12557923,-0.03973 0.19440838,-0.03973 0.0820117,0 0.15962803,0.01854 0.23285243,0.05562 0.073225,0.03708 0.1369277,0.09043 0.1911131,0.160042 v 0 l 0.2152781,-0.220199 c -0.071759,-0.0908 -0.1654857,-0.163067 -0.2811789,-0.216792 -0.1156934,-0.05373 -0.2350479,-0.08059 -0.35806477,-0.08059 -0.11422851,0 -0.22150046,0.02119 -0.32181709,0.06356 -0.10031662,0.04238 -0.18708596,0.09988 -0.26031042,0.172527 -0.0732233,0.07264 -0.13106992,0.159283 -0.17353985,0.259923 -0.04247,0.100641 -0.0637044,0.20847 -0.0637044,0.323487 0,0.115017 0.0208685,0.222469 0.0626055,0.322352 0.0417382,0.09988 0.0992178,0.186147 0.17244106,0.25879 0.0732245,0.07264 0.1599938,0.13015 0.26031158,0.172525 0.10031662,0.04237 0.20832151,0.06356 0.32401358,0.06356 z m 4.16276684,0.0023 c 0.1142297,0 0.221137,-0.02119 0.3207207,-0.06356 0.099585,-0.04237 0.1856224,-0.100262 0.2581138,-0.173661 0.072492,-0.0734 0.1299712,-0.16042 0.1724412,-0.26106 0.04247,-0.100641 0.063704,-0.207713 0.063704,-0.321216 0,-0.113505 -0.021234,-0.220578 -0.063704,-0.321217 -0.04247,-0.100637 -0.09995,-0.187656 -0.1724412,-0.261055 -0.072491,-0.0734 -0.1585291,-0.131287 -0.2581138,-0.173661 -0.099584,-0.04238 -0.206491,-0.06356 -0.3207207,-0.06356 -0.1127649,0 -0.2189369,0.02119 -0.318523,0.06356 -0.099585,0.04237 -0.1856211,0.100262 -0.2581127,0.173661 -0.072491,0.0734 -0.1299723,0.160418 -0.172441,0.261059 -0.042471,0.100639 -0.063706,0.207712 -0.063706,0.321217 0,0.113503 0.021234,0.220575 0.063706,0.321216 0.042469,0.100641 0.09995,0.18766 0.172441,0.26106 0.072492,0.0734 0.1585279,0.131286 0.2581127,0.173661 0.099586,0.04238 0.2057581,0.06356 0.318523,0.06356 z m 0,-0.301921 c -0.06883,0 -0.1329005,-0.01324 -0.1922107,-0.03973 -0.059311,-0.02648 -0.1105684,-0.0628 -0.1537714,-0.108957 -0.043201,-0.04616 -0.077249,-0.10102 -0.102146,-0.164582 -0.024897,-0.06356 -0.037345,-0.131665 -0.037345,-0.204307 0,-0.07416 0.012444,-0.142637 0.037345,-0.205442 0.024897,-0.06281 0.058946,-0.117288 0.102146,-0.163447 0.043203,-0.04616 0.09446,-0.08248 0.1537714,-0.108963 0.05931,-0.02649 0.1233804,-0.03973 0.1922107,-0.03973 0.068831,0 0.1332689,0.01324 0.1933119,0.03973 0.060043,0.02648 0.111665,0.0628 0.1548679,0.108963 0.043201,0.04616 0.077252,0.10064 0.1021461,0.163447 0.024897,0.0628 0.037345,0.131286 0.037345,0.205442 0,0.07264 -0.012444,0.140744 -0.037345,0.204307 -0.024895,0.06356 -0.058946,0.118422 -0.1021461,0.164582 -0.043203,0.04616 -0.094825,0.08248 -0.1548679,0.108962 -0.060043,0.02649 -0.1244804,0.03973 -0.1933119,0.03973 z m 4.8283715,0.276955 V 14.980144 H 9.0723755 V 13.681653 H 8.7538516 v 1.589056 z m 4.0155867,0 v -0.290601 h -0.84134 v -1.298491 h -0.318523 v 1.589056 z m 4.046341,0 V 14.984713 H 17.103549 V 14.60788 h 0.568949 v -0.27695 h -0.568949 v -0.363213 h 0.863308 v -0.28603 h -1.18183 v 1.589056 z m 3.532311,0.0227 c 0.120088,0 0.236879,-0.02649 0.350376,-0.07945 0.113496,-0.05297 0.206857,-0.124099 0.280081,-0.213388 v 0 l -0.208689,-0.213389 c -0.05419,0.06508 -0.116425,0.115018 -0.186719,0.149826 -0.07029,0.03481 -0.145715,0.05221 -0.226261,0.05221 -0.07176,0 -0.138028,-0.01324 -0.198803,-0.03973 -0.06077,-0.02649 -0.113496,-0.06243 -0.158163,-0.10783 -0.04467,-0.0454 -0.07981,-0.09951 -0.105443,-0.16231 -0.02563,-0.06281 -0.03844,-0.13053 -0.03844,-0.203172 0,-0.07416 0.01244,-0.142637 0.03735,-0.205442 0.0249,-0.06281 0.05931,-0.117288 0.103246,-0.163447 0.04393,-0.04616 0.09629,-0.08248 0.157064,-0.108963 0.06078,-0.02649 0.12558,-0.03973 0.194409,-0.03973 0.08201,0 0.159629,0.01854 0.232852,0.05562 0.07322,0.03708 0.136927,0.09042 0.191112,0.160041 v 0 l 0.21528,-0.220198 c -0.07177,-0.0908 -0.165494,-0.163068 -0.281186,-0.216793 -0.115695,-0.05373 -0.235049,-0.08059 -0.358066,-0.08059 -0.114229,0 -0.221501,0.02119 -0.321817,0.06356 -0.100317,0.04237 -0.187086,0.09988 -0.260311,0.172526 -0.07322,0.07264 -0.13107,0.159283 -0.17354,0.259923 -0.04247,0.10064 -0.0637,0.20847 -0.0637,0.323488 0,0.115018 0.02087,0.222467 0.06261,0.322351 0.04174,0.09988 0.09922,0.186146 0.172442,0.25879 0.07322,0.07264 0.159994,0.13015 0.26031,0.172525 0.100317,0.04237 0.20832,0.06356 0.324014,0.06356 z m 4.213292,-0.0227 v -1.298493 h 0.516226 v -0.29057 h -1.353173 v 0.29057 h 0.518422 v 1.298487 z m 3.648736,0 V 13.681653 H 29.05146 v 1.589056 z m 3.668506,0.02497 c 0.114231,0 0.221137,-0.02119 0.320722,-0.06356 0.09958,-0.04237 0.18562,-0.100262 0.258112,-0.173661 0.07249,-0.0734 0.129972,-0.160419 0.172443,-0.26106 0.04247,-0.100641 0.0637,-0.207713 0.0637,-0.321216 0,-0.113505 -0.02123,-0.220578 -0.0637,-0.321217 -0.04247,-0.100641 -0.09995,-0.18766 -0.172443,-0.261059 -0.07249,-0.0734 -0.158529,-0.131287 -0.258112,-0.173661 -0.09958,-0.04238 -0.206491,-0.06356 -0.320722,-0.06356 -0.112764,0 -0.218939,0.02119 -0.318521,0.06356 -0.09959,0.04237 -0.185622,0.100262 -0.258114,0.173661 -0.07249,0.0734 -0.129972,0.160418 -0.172442,0.261059 -0.04247,0.100639 -0.06371,0.207712 -0.06371,0.321217 0,0.113503 0.02123,0.220575 0.06371,0.321216 0.04247,0.100641 0.09995,0.18766 0.172442,0.26106 0.07249,0.0734 0.158529,0.131286 0.258114,0.173661 0.09958,0.04238 0.205757,0.06356 0.318521,0.06356 z m 0,-0.301921 c -0.06883,0 -0.132901,-0.01324 -0.192211,-0.03973 -0.05931,-0.02648 -0.110568,-0.06281 -0.15377,-0.108962 -0.0432,-0.04616 -0.07725,-0.101019 -0.102147,-0.164582 -0.0249,-0.06356 -0.03735,-0.131665 -0.03735,-0.204307 0,-0.07416 0.01244,-0.142637 0.03735,-0.205442 0.0249,-0.06281 0.05895,-0.117287 0.102147,-0.163446 0.0432,-0.04616 0.09446,-0.08248 0.15377,-0.108964 0.05931,-0.02649 0.123382,-0.03973 0.192211,-0.03973 0.06883,0 0.133269,0.01324 0.193311,0.03973 0.06005,0.02648 0.111665,0.0628 0.154868,0.108964 0.0432,0.04616 0.07725,0.100639 0.102147,0.163446 0.0249,0.06281 0.03734,0.131286 0.03734,0.205442 0,0.07264 -0.01244,0.140745 -0.03734,0.204307 -0.0249,0.06356 -0.05895,0.118422 -0.102147,0.164582 -0.0432,0.04616 -0.09482,0.08248 -0.154868,0.108962 -0.06004,0.02648 -0.12448,0.03973 -0.193311,0.03973 z m 3.969457,0.276951 v -1.062399 l 0.784226,1.062399 h 0.28118 v -1.589062 h -0.298754 v 1.028347 l -0.764455,-1.028347 h -0.303146 v 1.589056 z"
     id="COLLECTION"
     inkscape:connector-curvature="0"
     style="fill:#ffffff;fill-rule:nonzero;stroke:none;stroke-width:0.13658325" />
</svg>
