<?xml version="1.0" encoding="UTF-8" standalone="no"?>
<svg
   xmlns:dc="http://purl.org/dc/elements/1.1/"
   xmlns:cc="http://creativecommons.org/ns#"
   xmlns:rdf="http://www.w3.org/1999/02/22-rdf-syntax-ns#"
   xmlns:svg="http://www.w3.org/2000/svg"
   xmlns="http://www.w3.org/2000/svg"
   xmlns:sodipodi="http://sodipodi.sourceforge.net/DTD/sodipodi-0.dtd"
   xmlns:inkscape="http://www.inkscape.org/namespaces/inkscape"
   width="500"
   height="200"
   viewBox="0 0 500 200"
   version="1.1"
   id="svg14"
   sodipodi:docname="Lucasarts.svg"
   inkscape:version="0.92.5 (2060ec1f9f, 2020-04-08)">
  <metadata
     id="metadata20">
    <rdf:RDF>
      <cc:Work
         rdf:about="">
        <dc:format>image/svg+xml</dc:format>
        <dc:type
           rdf:resource="http://purl.org/dc/dcmitype/StillImage" />
        <dc:title />
      </cc:Work>
    </rdf:RDF>
  </metadata>
  <defs
     id="defs18" />
  <sodipodi:namedview
     pagecolor="#ffffff"
     bordercolor="#666666"
     borderopacity="1"
     objecttolerance="10"
     gridtolerance="10"
     guidetolerance="10"
     inkscape:pageopacity="0"
     inkscape:pageshadow="2"
     inkscape:window-width="1366"
     inkscape:window-height="743"
     id="namedview16"
     showgrid="false"
     inkscape:pagecheckerboard="true"
     inkscape:zoom="1.0117664"
     inkscape:cx="101.95571"
     inkscape:cy="43.825526"
     inkscape:window-x="0"
     inkscape:window-y="0"
     inkscape:window-maximized="1"
     inkscape:current-layer="svg14" />
  <path
     inkscape:connector-curvature="0"
     id="path16"
     style="fill:#fcd23b;fill-opacity:1;fill-rule:nonzero;stroke:none;stroke-width:0.14932562"
     d="m 219.06595,147.35909 c -15.13861,7.49316 -26.61878,22.00163 -29.66651,39.89517 -0.71677,4.09765 -0.91239,8.1726 -0.71677,12.12868 -0.24787,-3.93504 8.66986,-3.5856 9.3657,-7.6413 3.10598,-18.33718 15.75837,-32.61271 32.03184,-38.69623 8.02329,-3.00443 16.95743,-4.00044 26.02446,-2.46537 8.91325,1.51714 16.8499,5.2921 23.36651,10.62153 0,0 6.29109,4.10496 12.88826,15.93155 2.22198,4.2961 3.83618,8.9043 4.7232,13.71258 -0.85417,-8.47871 -3.6973,-16.51841 -8.16664,-23.53373 0,0 -2.6714,-4.79484 -8.45481,-10.22133 -4.09449,-4.81874 -12.71808,-17.94595 7.01981,-25.58845 0,0 16.18838,-5.30852 25.90502,-19.50639 2.34736,-3.41509 4.42897,-6.9123 5.97748,-10.60213 -1.4858,3.66445 -9.33581,-0.56295 -11.75041,2.76551 -9.15367,12.71657 -23.17684,19.87972 -37.67636,20.78612 -1.4828,-0.0835 -2.7058,-0.40021 -3.60325,-1.00345 -2.09352,-1.49475 -2.09352,-3.97505 -0.92431,-6.32544 0.64208,-1.13338 1.27972,-1.76502 2.38473,-2.37577 0.33596,-0.12244 0.6406,-0.26731 0.96913,-0.43155 l 0.42112,-0.18368 -0.043,-0.0222 c 3.23117,-1.77099 5.8623,-4.67836 7.18683,-8.44287 2.87748,-8.07253 -1.38575,-16.933514 -9.46427,-19.776683 -8.05912,-2.835685 -16.91559,1.394701 -19.75728,9.464263 -1.64854,4.68285 -0.89445,9.61059 1.57089,13.50053 0.81234,1.55299 1.21851,2.79688 0.93183,4.38868 -0.54955,2.99099 -2.5714,4.83218 -5.57734,4.67241 -1.35438,-0.0643 -2.41906,-0.38974 -3.60621,-0.90642 -1.02885,-0.64081 -2.07861,-1.25603 -3.0313,-1.98175 -2.69533,-1.93675 -5.13829,-4.09153 -7.31546,-6.43742 -3.77197,-4.00491 -6.76743,-8.52948 -8.99092,-13.37062 0,0 -3.85556,-6.465809 -4.58129,-19.991724 -0.0927,-4.833663 0.49279,-9.670332 1.79639,-14.408422 -2.95962,8.008327 -3.92875,16.487032 -3.03878,24.750712 0,0 0.49578,12.032664 10.0063,25.764644 0.004,0 14.64587,23.26494 -6.20447,35.53055 z M 341.48612,59.294302 c -0.0627,-0.335958 -0.42112,-0.571925 -0.75713,-0.537578 l -5.94163,0.67644 c 0.0207,0 -7.99641,1.169233 -11.13374,1.621687 -1.34093,-4.724671 -3.78688,-11.018746 -8.25322,-17.360606 1.36636,-1.364838 7.91726,-7.867968 7.91726,-7.867968 l 4.40509,-4.396146 c 0.26744,-0.235917 0.29567,-0.633136 0.0714,-0.912377 -0.21348,-0.279265 -0.60325,-0.343422 -0.88848,-0.153818 l -4.7904,2.946196 c 0,0 -7.23929,4.756032 -9.77037,6.438925 -2.81028,-3.304579 -6.19849,-6.541958 -10.32736,-9.476201 -1.62911,-1.139353 -3.30158,-2.15626 -5.01582,-3.092535 1.23193,-2.983534 4.59774,-11.194938 4.59774,-11.194938 l 1.90387,-4.639553 c 0.13123,-0.318066 0.0124,-0.69586 -0.29567,-0.882513 -0.31352,-0.159799 -0.7048,-0.07913 -0.91685,0.215059 l -2.61767,3.697301 c 0,0 -5.25777,7.782859 -7.11387,10.587188 C 286.3533,22.257084 279.86063,20.844466 273.36495,20.586134 273.05599,17.04711 272.1584,7.838208 272.1584,7.838208 l -0.50921,-4.9397059 c -0.0252,-0.352418 -0.28821,-0.6196874 -0.67044,-0.6301561 -0.31935,-0.00741 -0.60326,0.2553425 -0.6675,0.5868576 l -0.5913,4.4588654 c 0,0 -1.07216,9.706162 -1.43355,13.307899 -6.75098,0.391269 -13.38852,2.053224 -19.56163,4.836649 -1.17221,-2.180143 -6.41058,-11.937077 -6.41058,-11.937077 l -2.31305,-4.346877 c -0.17315,-0.313568 -0.54054,-0.450976 -0.87058,-0.328544 -0.27037,0.103056 -0.41361,0.356915 -0.42705,0.646585 l 0.0124,0.179175 1.16174,4.302071 c 2.19062,7.293058 3.46884,11.619026 4.15276,13.87385 -5.41455,3.07311 -10.35873,7.066075 -14.5712,11.883324 -2.83541,-2.078633 -11.21708,-8.198 -11.21708,-8.198 l -4.07954,-3.008919 c -0.27906,-0.203098 -0.68394,-0.168746 -0.92137,0.08363 l -0.18812,0.458441 0.14952,0.455424 2.99546,3.473321 c 0,0 7.46331,8.223357 9.89135,10.932117 -2.49972,3.50318 -5.95961,9.665854 -7.08102,13.475152 1.56195,-3.662962 9.24923,0.30912 11.52643,-3.232908 15.16702,-23.46801 46.62696,-32.191618 71.74051,-15.199847 7.75001,5.242818 13.45576,12.296954 17.14709,19.952894 0,0 4.18411,6.791323 4.92624,20.408328 -0.31936,4.754521 -0.0376,7.723116 -1.16922,12.583669 2.49226,-8.444368 2.75505,-14.826546 2.10848,-22.936412 -0.042,-0.219507 -0.14037,-1.343934 -0.48083,-3.119419 3.26274,-1.172204 16.21675,-5.753515 16.21675,-5.753515 0.33473,-0.119515 0.51518,-0.474849 0.46145,-0.810833" />
  <path
     d="m 10.838374,198.26645 c 1.574399,0 3.105603,-0.36948 4.593604,-1.10833 1.488004,-0.7389 2.712007,-1.73113 3.672008,-2.97667 v 0 l -2.736004,-2.97666 c -0.710403,0.90777 -1.526406,1.60444 -2.448006,2.09002 -0.921601,0.48552 -1.910403,0.72832 -2.966402,0.72832 -0.940803,0 -1.8096049,-0.18472 -2.6064059,-0.55418 -0.796803,-0.36944 -1.4880026,-0.87083 -2.0736053,-1.50417 -0.5856017,-0.63333 -1.0464009,-1.38804 -1.3824026,-2.26416 -0.3359983,-0.87611 -0.5039978,-1.82082 -0.5039978,-2.83416 0,-1.03444 0.1631948,-1.98972 0.4895991,-2.86583 0.3263995,-0.87611 0.7776019,-1.63612 1.3536028,-2.28001 0.5759989,-0.64388 1.2624006,-1.15055 2.0592061,-1.51998 0.7968008,-0.36948 1.6464009,-0.55416 2.5488036,-0.55416 1.075202,0 2.092805,0.2586 3.052805,0.77582 0.960002,0.51724 1.795202,1.2614 2.505604,2.2325 v 0 l 2.822404,-3.07167 c -0.940803,-1.26666 -2.169605,-2.27471 -3.686406,-3.02415 -1.516802,-0.74946 -3.081607,-1.12417 -4.694407,-1.12417 -1.4976039,0 -2.904009,0.29563 -4.2192091,0.88668 -1.3152024,0.59108 -2.452805,1.39331 -3.4128056,2.40664 -0.9600008,1.01334 -1.7184029,2.22195 -2.27520375,3.62584 -0.55679931,1.40388 -0.83519921,2.90803 -0.83519921,4.51249 0,1.60442 0.27358616,3.10334 0.82079753,4.49667 0.54720153,1.39332 1.30080323,2.59665 2.26080503,3.60999 0.9600021,1.01332 2.0976032,1.81556 3.4128061,2.40666 1.3152035,0.59111 2.7312075,0.88667 4.248009,0.88667 z m 54.576092,0.0316 c 1.497599,0 2.899205,-0.29552 4.204807,-0.88666 1.305603,-0.59111 2.433593,-1.39859 3.384005,-2.42249 0.950396,-1.02388 1.704003,-2.23778 2.260808,-3.64166 0.556811,-1.40388 0.835192,-2.89752 0.835192,-4.48083 0,-1.58334 -0.278376,-3.07695 -0.835192,-4.48083 -0.556805,-1.4039 -1.310412,-2.61779 -2.260808,-3.64166 -0.950412,-1.02389 -2.078402,-1.8314 -3.384005,-2.4225 -1.305602,-0.59112 -2.707208,-0.88667 -4.204807,-0.88667 -1.478406,0 -2.870408,0.29553 -4.176011,0.88667 -1.305607,0.5911 -2.433597,1.39861 -3.38401,2.4225 -0.950396,1.02387 -1.703998,2.23776 -2.260798,3.64166 -0.556796,1.40387 -0.835201,2.89748 -0.835201,4.48082 0,1.58331 0.278425,3.07695 0.835201,4.48083 0.5568,1.40388 1.310402,2.61777 2.260798,3.64166 0.950413,1.02389 2.078403,1.83138 3.38401,2.42249 1.305603,0.59112 2.697605,0.88666 4.176011,0.88666 z m 0,-4.21166 c -0.902393,0 -1.742403,-0.18471 -2.519997,-0.55416 -0.777608,-0.36948 -1.449604,-0.8761 -2.016015,-1.51999 -0.566394,-0.6439 -1.012798,-1.40918 -1.339198,-2.29584 -0.326419,-0.88669 -0.489629,-1.83667 -0.489629,-2.85 0,-1.03443 0.16321,-1.98972 0.489629,-2.86582 0.32637,-0.87612 0.772804,-1.63612 1.339198,-2.28001 0.566411,-0.64389 1.238407,-1.15057 2.016015,-1.52 0.777594,-0.36947 1.617604,-0.55416 2.519997,-0.55416 0.902398,0 1.747202,0.1847 2.534405,0.55416 0.787197,0.36946 1.464003,0.87611 2.030413,1.52 0.566384,0.64389 1.012789,1.40389 1.339203,2.28001 0.32637,0.8761 0.489629,1.83139 0.489629,2.86582 0,1.01333 -0.16321,1.96331 -0.489629,2.85 -0.326419,0.88666 -0.772819,1.65194 -1.339203,2.29584 -0.56641,0.64389 -1.243216,1.15054 -2.030413,1.51998 -0.787203,0.36947 -1.632007,0.55416 -2.534405,0.55416 z m 63.302514,3.86355 v -4.05353 h -11.0304 V 175.7831 h -4.17603 v 22.16663 z m 52.64648,0 v -4.05353 H 170.33303 V 175.7831 h -4.17598 v 22.16663 z m 53.04969,0 v -3.99018 h -11.43362 v -5.25667 h 7.45921 v -3.86333 h -7.45921 v -5.06665 h 11.31842 v -3.98999 h -15.49441 v 22.16664 z m 46.31048,0.31663 c 1.57442,0 3.10562,-0.36947 4.59361,-1.10833 1.48801,-0.73888 2.71201,-1.73111 3.67202,-2.97666 v 0 l -2.736,-2.97667 c -0.7104,0.90779 -1.52642,1.60444 -2.44803,2.09 -0.9216,0.48552 -1.9104,0.72832 -2.96641,0.72832 -0.94077,0 -1.80959,-0.18471 -2.60638,-0.55415 -0.79682,-0.36947 -1.48801,-0.87086 -2.0736,-1.50418 -0.58561,-0.63332 -1.04643,-1.38804 -1.3824,-2.26416 -0.33605,-0.8761 -0.50404,-1.82084 -0.50404,-2.83416 0,-1.03444 0.16321,-1.98972 0.48962,-2.86583 0.32637,-0.87612 0.77758,-1.63611 1.3536,-2.28 0.57601,-0.64389 1.26239,-1.15056 2.0592,-1.52 0.79679,-0.36947 1.6464,-0.55417 2.5488,-0.55417 1.07521,0 2.09281,0.25861 3.0528,0.77586 0.96001,0.51723 1.79522,1.26135 2.50562,2.23246 v 0 l 2.82239,-3.07164 c -0.94078,-1.26668 -2.1696,-2.27473 -3.68641,-3.02418 -1.51678,-0.74943 -3.08159,-1.12415 -4.6944,-1.12415 -1.49761,0 -2.904,0.29558 -4.21921,0.88665 -1.31519,0.59112 -2.4528,1.39334 -3.41281,2.40667 -0.95999,1.01335 -1.71838,2.22194 -2.27519,3.62583 -0.55681,1.40388 -0.83521,2.90803 -0.83521,4.5125 0,1.60442 0.27358,3.10333 0.8208,4.49666 0.54722,1.39333 1.3008,2.59667 2.26081,3.60999 0.95999,1.01334 2.09759,1.81556 3.41279,2.40666 1.31522,0.5911 2.73121,0.88666 4.24802,0.88666 z m 55.2385,-0.31663 v -18.11331 h 6.768 v -4.05332 H 324.9893 v 4.05332 h 6.79684 v 18.1133 z m 47.83689,0 v -22.16663 h -4.176 v 22.16663 z m 48.09608,0.34831 c 1.4976,0 2.8992,-0.29552 4.2048,-0.88666 1.30561,-0.59111 2.43362,-1.3986 3.38401,-2.42249 0.95041,-1.02389 1.704,-2.23778 2.26081,-3.64166 0.5568,-1.40388 0.8352,-2.89751 0.8352,-4.48083 0,-1.58335 -0.27842,-3.07695 -0.8352,-4.48083 -0.55681,-1.40388 -1.3104,-2.61778 -2.26081,-3.64165 -0.95039,-1.0239 -2.0784,-1.83139 -3.38401,-2.42251 -1.3056,-0.59111 -2.7072,-0.88666 -4.2048,-0.88666 -1.47841,0 -2.87039,0.29554 -4.17602,0.88666 -1.30559,0.59112 -2.43361,1.39861 -3.38398,2.42251 -0.95042,1.02387 -1.70402,2.23777 -2.26081,3.64166 -0.55682,1.40387 -0.83522,2.89748 -0.83522,4.48082 0,1.58332 0.27843,3.07695 0.83522,4.48083 0.55679,1.40388 1.31039,2.61777 2.26081,3.64166 0.95037,1.0239 2.07839,1.83138 3.38398,2.42249 1.30563,0.59112 2.69761,0.88666 4.17602,0.88666 z m 0,-4.21166 c -0.90238,0 -1.74241,-0.18471 -2.51999,-0.55416 -0.77761,-0.36948 -1.44961,-0.8761 -2.01602,-1.51999 -0.5664,-0.6439 -1.01278,-1.40916 -1.33921,-2.29582 -0.32637,-0.88671 -0.48958,-1.83669 -0.48958,-2.85001 0,-1.03443 0.16321,-1.98972 0.48958,-2.86583 0.32642,-0.87611 0.77281,-1.63611 1.33921,-2.27999 0.56641,-0.6439 1.23841,-1.15057 2.01602,-1.52 0.77758,-0.36948 1.61761,-0.55418 2.51999,-0.55418 0.90238,0 1.74721,0.18472 2.5344,0.55418 0.78722,0.36946 1.46402,0.8761 2.03041,1.52 0.56639,0.64388 1.0128,1.40388 1.33919,2.27999 0.32642,0.87611 0.48964,1.8314 0.48964,2.86583 0,1.01332 -0.16322,1.9633 -0.48964,2.85001 -0.32641,0.88666 -0.7728,1.65192 -1.33919,2.29582 -0.56639,0.64389 -1.24319,1.15056 -2.03041,1.51999 -0.78719,0.36947 -1.63202,0.55416 -2.5344,0.55416 z m 52.04171,3.86333 v -14.81997 l 10.28159,14.81998 h 3.68645 V 175.7833 h -3.91683 v 14.34498 L 483.96557,175.7833 h -3.97436 v 22.16663 z"
     id="COLLECTION"
     inkscape:connector-curvature="0"
     style="fill:#ffffff;fill-rule:nonzero;stroke:none;stroke-width:1.29051518" />
  <path
     inkscape:connector-curvature="0"
     id="path14"
     style="fill:#ffffff;fill-opacity:1;fill-rule:nonzero;stroke:none;stroke-width:0.14562272"
     d="m 20.582635,129.65097 c -1.166729,-1.9005 -1.620637,-21.74617 -1.620637,-31.60745 v -13.8576 c 0,-11.7107 -0.175788,-13.423367 0,-15.881328 0.155988,-2.696932 1.871545,-4.0837 4.147479,-4.469456 1.006257,-0.163259 1.497732,-0.174579 2.429424,-0.174579 0.998973,-0.01187 1.72141,-0.138199 1.72141,-0.667252 0,-0.531231 -0.521187,-0.723598 -1.72141,-0.723598 -3.071182,0.01878 -8.451796,0.194003 -10.865911,0.194003 -2.249772,0 -7.5632819,-0.214318 -11.5212644,-0.214318 -1.2827369,0 -1.845316,0.163259 -1.845316,0.691719 0,0.532976 0.4994637,0.681358 1.4272163,0.681358 1.0955805,0 2.1138018,0.09342 2.7730935,0.240711 2.7833184,0.53576 3.4539844,1.771942 3.6138328,4.380043 C 9.306538,70.720559 9.306538,72.87126 9.306538,84.59215 V 98.1585 c 0,7.09344 0,27.61881 0,31.31906 0,3.4409 0,7.04507 -2.4261038,8.3096 -1.2850019,0.62003 -1.3873894,0.64904 -2.1160718,0.97669 -0.919813,0.39023 -1.1012699,0.98296 -0.8999045,1.34873 0.7303869,1.25087 2.7162129,0.0802 6.3459591,-0.37714 l 35.599585,-6.09453 c 0.294178,-0.12342 1.997216,-0.75144 2.548401,-2.60072 0.54448,-2.05352 0.301576,-1.24918 1.211727,-4.91023 1.180269,-4.81016 1.717328,-6.9626 1.717328,-7.29025 0,-0.92325 -0.159897,-1.30041 -0.751995,-1.30041 -0.65137,0 -0.888009,0.86806 -1.107606,1.53195 -0.548272,1.525 -1.724756,3.45726 -2.830471,5.34469 -1.144592,1.38908 -3.067246,3.98984 -8.976907,5.23959 -2.06435,0.45677 -15.050258,3.30267 -17.037859,-0.004 z m 232.243335,-8.6413 c 4.60022,0 9.48152,-0.69447 13.89679,-3.16613 6.37244,-3.66954 7.86798,-8.8505 7.86798,-13.38534 0.045,-7.41541 -3.75997,-12.7232 -14.40645,-19.59529 l -2.45522,-1.5535 c -7.21848,-4.67594 -9.21208,-7.32613 -9.20044,-10.87787 0,-4.638379 4.807,-8.296562 11.26539,-8.526356 5.72298,-0.233298 8.25245,2.082553 9.59946,3.454024 2.20473,2.245644 1.87706,4.027925 1.87706,4.731572 -0.01,0.93737 0.29849,1.74456 0.91308,1.71674 0.74704,-0.0336 0.98438,-0.6553 1.00477,-2.386889 0.0148,-6.127513 0.41346,-8.418166 0.41346,-9.462565 0,-0.838502 -1.11257,-0.939127 -1.92221,-0.95223 -2.71585,-0.01285 -5.41281,-1.010911 -11.12269,-0.78782 -10.71198,0.438471 -20.0464,5.319744 -20.0464,15.339754 0,6.22828 3.77018,10.92461 13.25895,17.3291 l 4.00315,2.70262 c 7.27822,4.93121 8.02822,9.0883 8.00342,12.88644 0,4.09913 -3.90412,8.83813 -11.71535,8.84949 -5.35451,0.0306 -10.40324,-2.02852 -12.29491,-7.66121 -0.42498,-1.28614 -0.75724,-2.89644 -0.75724,-3.88507 0,-0.60186 -0.083,-1.29299 -0.86064,-1.28163 -0.6713,0.0143 -0.93198,0.86355 -1.00332,2.00407 -0.0959,1.20808 -0.44396,5.77481 -0.44396,9.9558 0,1.67056 0.25747,2.05064 1.61498,2.58639 3.68278,1.42725 7.5243,1.9659 12.51044,1.9659 z m 165.71868,-14.48086 c 0,6.88358 -0.0252,13.63057 -0.0252,17.21872 0,3.79761 -0.65385,4.39317 -2.25863,4.72082 -0.70045,0.17635 -1.05723,0.15134 -2.2295,0.15134 -0.91888,0 -1.22031,0.42552 -1.20865,0.82597 0,0.55746 0.66984,0.94483 1.65572,0.94483 4.29734,0.3498 8.88881,1.02675 9.42617,1.02675 2.27174,0.26507 4.39928,0.67124 9.41307,1.13711 -0.21847,0 1.56834,0.17517 1.60618,-0.70877 0,-0.42834 -0.17898,-0.83163 -0.98583,-1.14451 -1.17957,-0.2713 -1.25675,-0.0699 -2.8251,-0.58419 -1.79551,-0.61435 -2.08239,-3.67129 -2.08239,-4.99042 0.051,-3.31744 0.051,-10.84146 0.11799,-18.5669 l -0.0148,-39.809022 9.05624,0.260532 c 6.80641,0.144427 9.0068,2.270838 9.15239,4.308971 l 0.0844,0.859479 c 0.0755,1.1724 0.21249,1.56543 0.85339,1.56543 0.44395,0 0.5839,-0.47499 0.6655,-1.26399 0,-2.025619 0.22999,-7.413661 0.22999,-9.04333 0,-1.160464 -0.073,-1.63651 -0.60871,-1.63651 -0.28846,0 -0.92764,0.151297 -2.0635,0.395815 -1.16786,0.164445 -2.82069,0.382866 -5.28757,0.382866 l -28.71097,-0.09886 c -2.52801,0 -5.4259,-0.161628 -7.64519,-0.406096 -1.93241,-0.151446 -3.65514,-0.382816 -4.7429,-0.382816 -0.69315,0 -0.54321,0.87199 -0.61312,1.907224 -0.0655,1.191198 0.0449,6.841498 0.0449,8.093996 0,0.857871 0.39899,1.237801 0.94074,1.237801 0.45295,0 0.67714,-0.62909 0.71504,-1.268521 0.054,-1.118242 0,-1.023875 0.46749,-2.470929 0.67565,-1.960226 2.93864,-2.149682 7.51265,-2.137735 l 9.28928,-0.176357 z M 361.14886,68.106551 c 0,-0.627937 -0.2375,-1.303774 0.81699,-1.840685 0.71645,-0.365813 2.37507,-0.716748 5.38656,-0.63199 4.53032,0 11.28578,3.422128 11.36292,14.604344 0.0148,6.44672 -2.17849,10.85181 -4.45022,12.56855 -1.3965,1.02839 -2.38238,1.32984 -5.44776,1.32984 -1.93096,0 -4.23759,-0.22747 -5.83652,-0.77471 -0.54171,-0.23434 -1.88581,-0.77763 -1.88581,-1.64001 z M 351.28003,98.9024 c 0.0686,7.24648 0.0915,14.5464 0.0915,17.97582 -0.32345,2.28335 -0.6582,4.03082 -2.19888,4.32776 -0.7121,0.14447 -0.0875,0.0922 -1.43586,0.24347 -0.91012,0.0943 -1.06156,0.31001 -1.06156,0.69287 0,0.55804 0.53441,0.89705 1.15766,0.93972 3.03623,0.21841 8.184,0.53122 9.6723,0.68719 1.18246,0.0252 4.59292,0.30595 9.03734,0.57782 0.61886,0.0411 1.14747,-0.26053 1.14747,-0.81388 -0.01,-0.39424 -0.0844,-0.83005 -1.00913,-1.00742 -1.39654,-0.25771 -1.85671,-0.51711 -2.57317,-0.68151 -3.43234,-1.90504 -2.88478,-7.44161 -2.88478,-16.48156 l -0.04,-7.08879 c -0.0148,-0.4574 0.172,-1.15536 0.52426,-1.15536 l 7.89713,0.0252 c 0.5373,0 1.66882,0.1644 2.02705,0.63929 1.02807,1.17079 7.08599,13.03163 10.16736,17.36842 4.32498,6.05469 5.26862,8.85401 8.55098,10.94049 1.91491,1.22924 4.01625,2.11435 8.33544,2.56431 l 6.84281,0.38623 c 1.14311,0.0728 2.50327,-0.0847 2.54986,-0.90275 0.0755,-0.64222 -0.41796,-0.88567 -1.27711,-1.09217 -0.78054,-0.20137 -1.20721,-0.28273 -2.06929,-0.4488 -1.13443,-0.21387 -3.39596,-0.69003 -7.71799,-5.24816 -4.19251,-4.50295 -10.82853,-17.88247 -17.99755,-27.06704 7.71364,-6.45516 8.75632,-12.15659 8.71407,-17.99285 -0.0401,-5.27489 -3.10612,-9.269325 -5.25842,-10.770404 -4.15465,-2.922791 -9.29368,-3.602563 -14.11812,-3.602563 -2.38824,0 -9.22814,0.248571 -11.81875,0.248571 -1.61933,0 -7.39621,-0.152334 -11.46782,-0.152334 -1.16787,0 -1.69357,0.164247 -1.69357,0.708755 0,0.552342 0.46293,0.926004 1.2975,0.926004 1.07618,0 2.36928,0.07459 3.01004,0.24175 2.52361,0.544913 3.13521,1.794214 3.29541,4.487073 0.15901,2.510245 0.33496,5.830578 0.33496,16.530928 z m -50.15101,-2.27594 c -0.30596,0 -0.37298,-0.24289 -0.30596,-0.51535 l 6.91854,-18.87693 c 0.0745,-0.31065 0.22,-0.69448 0.45148,-0.69448 0.22148,0 0.29998,0.38267 0.37298,0.69448 l 6.75686,18.94682 c 0.0785,0.20547 0,0.44722 -0.36098,0.44722 h -13.8327 z m 15.23944,3.8328 c 0.39448,0 0.6305,0.15594 0.76159,0.5302 l 6.1103,17.63346 c 0.39449,0.92325 -0.13245,1.60461 -0.65385,1.75489 -0.75284,0.0812 -1.05572,0.23137 -1.05572,0.69448 0,0.54332 0.89994,0.67859 2.2222,0.74981 6.02441,0.14838 12.45804,0.63361 15.13454,0.7485 2.7625,0.13425 2.7625,-0.23152 2.7625,-0.843 0,-0.54609 -0.37144,-0.62735 -0.96547,-0.62735 -0.89854,0 -0.8097,-0.16222 -1.93827,-0.40788 -1.57273,-0.37144 -3.57358,-1.72708 -6.41323,-8.60775 -4.81575,-11.66744 -17.86646,-45.03091 -19.66777,-49.263149 -0.99462,-2.299233 -2.08825,-2.137591 -2.15524,-2.137591 -0.93054,-0.04202 -1.63824,1.007995 -2.54547,3.226998 l -18.86253,48.131072 c -1.50285,3.83571 -2.92849,6.45123 -6.37533,6.91037 -0.60581,0.0682 -1.64409,0.13642 -2.31543,0.13642 -0.61741,0 -0.90285,0.16326 -0.90285,0.61147 0,0.62064 0.43996,0.77762 1.40085,0.77762 3.93767,0 8.06316,0.0495 8.88156,0.0495 2.34018,0 5.56424,0.27813 7.96117,0.27813 0.82714,0 1.28296,-0.16721 1.28296,-0.77761 0,-0.46587 -0.23148,-0.62735 -1.11692,-0.62735 h -1.13586 c -2.33289,0 -3.01879,-0.97451 -3.01879,-2.3767 0,-0.8982 0.37298,-2.75489 1.13442,-4.65249 l 4.04975,-11.28752 c 0.17449,-0.46017 0.29998,-0.61889 0.67716,-0.61889 h 16.74373 z m -124.50599,-3.8328 c -0.34366,0 -0.39902,-0.24289 -0.34366,-0.51535 l 7.07289,-18.87693 c 0.096,-0.31065 0.23883,-0.69448 0.46892,-0.69448 0.21407,0 0.32038,0.38267 0.36986,0.69448 l 6.91127,18.94682 c 0.08,0.20547 0,0.44722 -0.39047,0.44722 h -14.08901 z m 15.5496,3.8328 c 0.39897,0 0.61015,0.15594 0.76015,0.5302 l 6.14384,16.26024 c 0.39449,0.91756 -0.15001,1.60475 -0.71209,1.76625 -0.76019,0.0683 -1.23346,0.2333 -1.23346,0.69914 0,0.5404 0.23147,0.74398 2.42028,0.74398 6.0972,0 11.81288,-0.25756 14.57973,-0.25756 2.8411,0 4.29734,-0.45286 4.29734,-1.07338 0,-0.52848 -0.27798,-0.89545 -0.90579,-0.89545 -0.92178,0 -1.9892,0 -3.13817,-0.2202 -1.61643,-0.39582 -4.23179,-1.78388 -7.12823,-8.69062 -5.18272,-12.27439 -17.64365,-43.251109 -19.24695,-46.931001 -0.7587,-1.772376 -1.39653,-2.116036 -2.10862,-2.116036 -0.75286,0 -1.38197,1.417047 -2.30375,3.63605 l -19.35036,49.069177 c -1.53485,3.85332 -2.9838,6.66398 -6.48748,7.13828 -0.62618,0.0683 -1.35138,0.42551 -2.03872,0.42551 -0.63345,0 -1.09509,0.29534 -1.0281,0.74516 0.11072,0.67015 0.18347,0.67015 1.17809,0.67015 4.42984,0 8.39078,-0.31628 8.94997,-0.31628 2.36929,0 5.74482,-0.2719 8.17526,-0.30828 0.83005,-0.0307 1.40526,-0.12233 1.40526,-0.72243 0,-0.47782 -0.27234,-0.62909 -1.20867,-0.62909 l -1.37468,-0.20082 c -2.36928,0 -2.8178,-1.15479 -2.8178,-2.52685 0,-0.92775 0.37427,-2.77426 1.15917,-4.68439 l 4.25945,-11.48716 c 0.11793,-0.46017 0.28249,-0.61889 0.68152,-0.61889 h 17.07281 z m -56.65016,22.59947 c 4.61043,0 10.11496,-0.54216 12.99393,-1.84082 1.2407,-0.54491 1.53194,-0.94086 1.90474,-2.27186 0.6917,-2.69969 1.58583,-9.57585 1.58583,-10.50929 0,-0.65822 -0.15145,-1.18726 -0.65677,-1.18726 -0.57666,0 -0.71646,0.31629 -0.9276,1.57854 -0.28831,1.43002 -1.24946,3.70203 -2.45957,5.20951 -2.90372,3.65018 -6.79039,4.43406 -13.22401,4.43406 -9.67007,0 -22.75282,-9.34314 -22.75282,-28.13881 0,-7.67695 1.35837,-15.16807 6.64812,-20.467277 3.17574,-3.158852 7.27764,-4.910262 13.57233,-4.910262 6.6535,0 12.28472,2.149113 14.66566,4.910262 1.82465,2.050652 2.74062,4.810057 2.80179,7.259437 0,1.11212 0.16454,1.75432 0.74704,1.75432 0.63346,0 0.77179,-0.64045 0.84753,-1.83457 0.15727,-1.56544 0.0817,-5.915331 0.22717,-8.527945 0.14417,-2.772512 0.36111,-3.714546 0.36111,-4.349314 0,-0.466002 -0.28687,-0.862376 -1.08051,-0.945528 -2.18726,-0.225142 -4.49101,-0.931698 -7.21415,-1.349781 -3.32894,-0.465805 -6.00257,-0.791898 -10.48775,-0.791898 -10.77303,0 -17.62807,3.165703 -22.8153,8.374477 -6.95741,6.981439 -8.46155,16.293879 -8.46155,21.668799 0,7.65655 1.86528,16.52527 8.95696,23.31449 6.56104,6.23499 14.88264,8.62072 24.7678,8.62072 z M 58.169749,103.17205 c 0,11.16345 2.895997,16.87914 6.807862,20.39752 5.629338,5.10414 12.970176,5.31688 17.036255,5.31688 4.97782,0 10.484834,-0.84472 15.940591,-5.53647 6.428373,-5.54852 7.281133,-14.62941 7.281133,-23.18474 V 91.9227 c 0,-11.71346 0,-21.313194 0.16386,-23.78878 0.15584,-2.678146 0.76787,-3.998942 2.82479,-4.38295 0.93577,-0.160343 1.38967,-0.244468 2.22816,-0.244468 0.90214,0 1.38968,-0.149123 1.38968,-0.693453 0,-0.517105 -0.5586,-0.689963 -1.60869,-0.689963 -2.99211,0 -7.84367,0.244468 -8.73794,0.244468 -0.0809,0 -4.901078,-0.244468 -8.817027,-0.244468 -1.073966,0 -1.606942,0.172848 -1.606942,0.689963 0,0.543168 0.449988,0.693453 1.284972,0.693453 0.839076,0 2.157693,0.08417 2.769165,0.244468 2.522765,0.528459 3.152437,1.783878 3.290636,4.38295 0.151891,2.475586 0.151891,12.07532 0.151891,23.78878 v 9.60833 c 0,7.96426 -0.226873,14.88134 -4.45285,19.11299 -3.043804,3.08705 -7.196382,4.17529 -10.571776,4.17529 -2.609263,0 -6.130424,-0.32489 -9.573089,-3.16454 -3.767987,-3.07277 -5.980727,-7.78221 -5.980727,-18.95307 V 91.92154 c 0,-11.71521 0,-21.313201 0.146207,-23.788782 0.171859,-2.67815 0.76787,-3.998947 2.838477,-4.383394 0.90956,-0.160492 1.367546,-0.244617 2.224243,-0.244617 0.7718,0 1.241727,-0.14853 1.241727,-0.693448 0,-0.516532 -0.549001,-0.691713 -1.699713,-0.691713 -2.753141,0 -7.573543,0.24521 -9.442757,0.24521 -2.287298,0 -7.121238,-0.24521 -11.167373,-0.24521 -1.174734,0 -1.703633,0.175171 -1.703633,0.691713 0,0.543312 0.465854,0.693448 1.310605,0.693448 1.061876,0 2.3885,0.08417 2.99196,0.244617 2.522913,0.52832 3.138321,1.783878 3.290784,4.383394 0.155845,2.475581 0.155845,12.073572 0.155845,23.788782 v 11.25051 z m 440.018861,13.58107 c 0.1384,5.1054 -2.18143,12.14926 -9.03154,16.72329 -4.27549,2.75659 -9.89358,4.29587 -16.34616,4.40055 -5.73169,0.0978 -10.48775,-0.67693 -14.5608,-2.35159 h -0.0148 c -1.96301,-0.84587 -2.23968,-1.81914 -2.14649,-4.37607 0.15599,-3.75435 0.13246,-7.08607 0.25345,-9.03435 l 0.0829,-1.15464 c 0.05,-0.62632 -0.23148,-2.3534 1.13296,-2.37555 1.4795,-0.0346 1.08053,1.4887 1.08053,2.02169 0.0197,0.81402 -0.18951,1.77077 0.172,2.99211 1.40525,5.68551 6.60542,8.85678 14.73264,8.70092 9.48586,-0.20077 14.9671,-6.71464 14.86662,-12.60493 -0.11349,-5.99659 -1.25821,-9.1349 -10.72368,-15.85977 l -4.8769,-3.4364 c -11.91193,-8.4199 -14.93216,-14.5014 -15.06759,-21.08224 -0.21551,-10.90684 8.39368,-17.629959 22.20893,-17.89965 3.77747,-0.06544 6.95349,0.190642 10.03342,0.78607 2.09404,0.358349 2.86149,0.409606 3.58959,0.394777 0.46145,-0.01137 1.81878,-0.03905 1.86391,1.471081 l -0.0638,0.758258 c -0.0673,1.296335 -0.475,4.150249 -0.38011,9.209484 0.0198,0.82538 0.44535,3.28786 -1.04988,3.1718 -0.86353,-0.0729 -0.70333,-1.52219 -0.82128,-2.22235 -0.10049,-1.04848 -0.10049,-2.87036 -1.23056,-4.269806 -0.78049,-1.0045 -4.74001,-4.415274 -13.85599,-4.253785 -7.38016,0.131477 -12.11728,4.526244 -12.12453,10.432561 -0.0148,5.06956 2.87315,8.30792 12.92692,15.04006 l 3.02458,2.03872 c 13.47441,9.13215 16.19614,15.25966 16.32574,22.77975" />
</svg>
