<?xml version="1.0" encoding="UTF-8" standalone="no"?>
<svg
   xmlns:dc="http://purl.org/dc/elements/1.1/"
   xmlns:cc="http://creativecommons.org/ns#"
   xmlns:rdf="http://www.w3.org/1999/02/22-rdf-syntax-ns#"
   xmlns:svg="http://www.w3.org/2000/svg"
   xmlns="http://www.w3.org/2000/svg"
   xmlns:sodipodi="http://sodipodi.sourceforge.net/DTD/sodipodi-0.dtd"
   xmlns:inkscape="http://www.inkscape.org/namespaces/inkscape"
   width="500"
   height="200"
   viewBox="0 0 500 200"
   version="1.1"
   id="svg152"
   sodipodi:docname="mame.svg"
   inkscape:version="0.92.5 (2060ec1f9f, 2020-04-08)">
  <metadata
     id="metadata158">
    <rdf:RDF>
      <cc:Work
         rdf:about="">
        <dc:format>image/svg+xml</dc:format>
        <dc:type
           rdf:resource="http://purl.org/dc/dcmitype/StillImage" />
        <dc:title>mainlogo</dc:title>
      </cc:Work>
    </rdf:RDF>
  </metadata>
  <defs
     id="defs156" />
  <sodipodi:namedview
     pagecolor="#ffffff"
     bordercolor="#666666"
     borderopacity="1"
     objecttolerance="10"
     gridtolerance="10"
     guidetolerance="10"
     inkscape:pageopacity="0"
     inkscape:pageshadow="2"
     inkscape:window-width="1366"
     inkscape:window-height="743"
     id="namedview154"
     showgrid="false"
     inkscape:pagecheckerboard="true"
     inkscape:zoom="1.0510301"
     inkscape:cx="254.19179"
     inkscape:cy="-2.3400022"
     inkscape:window-x="0"
     inkscape:window-y="0"
     inkscape:window-maximized="1"
     inkscape:current-layer="svg152" />
  <title
     id="title117">mainlogo</title>
  <g
     id="Page-1"
     style="fill:none;fill-rule:evenodd;stroke:none;stroke-width:1"
     transform="matrix(1.0737358,0,0,1.0737358,5.708685,34.25211)">
    <g
       id="mainlogo"
       style="fill-rule:nonzero">
      <path
         d="M 139.3424,0.02217441 139.34,0.026 c 0.0418,0.0083458 0.14723,0.07197951 0.14723,0.58680686 l -0.0138,66.17753414 0.0139,0.06462 0.02,-0.0355 v 0 l 65.549,-65.5480585 v 0 c 0.76297,-0.8843305 1.4248,-0.71442254 1.4248,-0.71442254 l 0.0646,0.0250408 c 0.12882,0.0587977 0.40793,0.24033929 0.40793,0.70960884 L 206.94,75.029 280.54563,1.4995646 v 0 c 0.64114,-0.74810603 1.22433,-0.73082163 1.39251,-0.70671255 l 0.0493,0.010899 c 0,0 0.45552,0.10841746 0.45552,0.71684975 V 41.705453 l 0.0168,0.128217 0.11017,-0.211553 v 0 l 40.4114,-40.5109134 v 0 c 0.84711,-0.83578541 1.11411,-0.5339965 1.11411,-0.5339965 l 8.1e-4,-0.001618 0.0274,0.0357685 c 0.0583,0.0942846 0.18947,0.4103973 0.18947,1.3461496 L 324.313,64.196 386.83682,1.550537 389.135,4.566 386.83925,1.5489188 h 71.72705 c 0.63513,0 0.63513,0.2532438 0.63513,0.2532438 l 0.002,8.091e-4 0.0257,0.075238 c 0.0609,0.190271 0.1657,0.7014836 -0.19807,1.0671903 l -22.30279,22.383352 h -37.49788 l -10.25597,10.344968 -0.0584,0.04928 18.241,8.83e-4 c 0.20996,-0.02609 0.30569,0.0534 0.34043,0.09478 l 0.0164,0.02416 c 0,0 0.33496,0.237871 0.0186,0.933685 L 383.77038,60.536919 H 363.80296 L 352.921,71.44 l 62.90212,0.0018 c 0.35146,-6.47e-4 0.48338,0.218259 0.52208,0.305847 l 0.0127,0.03316 0.0266,0.03769 c 0.0652,0.106504 0.1992,0.436838 -0.2143,0.968003 l -23.34049,23.18111 8e-4,0.0016 -92.6767,-0.02346 0.002,-0.0047 -6.46677,6.84e-4 c -0.20632,0.0085 -0.34027,-0.119087 -0.39436,-0.18341 l -0.0361,-0.04822 c -0.0216,-0.03795 -0.0565,-0.167032 0.21364,-0.439105 L 299.33826,89.38 299.338,63.23 265.25796,97.28073 c -0.42749,0.422978 -0.77195,0.33878 -0.81898,0.324593 l -0.002,0.0047 -0.0915,-0.0309 c -0.14341,-0.05774 -0.40751,-0.206824 -0.43281,-0.532224 L 263.847,57.615 224.75999,96.674725 222.97,93.736 l 1.78595,2.937916 -41.68975,-0.02346 c -0.26943,0.004 -0.65536,-0.271043 -0.65536,-0.271043 L 185.592,93.509 h -0.004 l -3.17716,2.867184 -0.0545,-0.04152 c -0.14628,-0.12456 -0.53656,-0.540477 -0.53853,-1.397046 L 181.744,63.778 117.73658,127.65299 v 0 L 79.271,127.651 c -0.0064,0.004 -0.472467,0.0562 -0.197378,-0.32569 L 114.61594,91.928629 115.828,92.468 l -1.21206,-0.541798 -0.0639,-28.338222 -0.001,-0.003 -6e-4,0.0086 -33.886925,33.93143 v 0 c -0.192565,0.210931 -0.580373,0.239634 -0.803706,0.237002 l -0.168006,-0.0072 c 0,0 -0.673968,-0.05583 -0.65455,-0.929639 l -0.06311,-39.674319 v 0 L 40.226997,95.993475 40.225,95.991 2.2452521,95.992265 C 2.125677,95.986325 1.8693496,95.939497 2.081041,95.631814 L 97.125939,0.58772521 v 0 c 0.104225,-0.0889854 0.221297,-0.0781934 0.29712,-0.0560256 l 0.105409,0.0404653 c 0.06276,0.0283762 0.219657,0.13142138 0.219657,0.45246649 L 97.748934,41.393955 138.90469,0.235773 v 0 c 0.26781,-0.33738868 0.43771,-0.21359859 0.43771,-0.21359859 z"
         id="Path"
         inkscape:connector-curvature="0"
         style="fill:#1dabe6" />
      <g
         id="Group-18"
         transform="translate(0,107.10189)"
         style="fill:#ffffff">
        <polygon
           id="path5545"
           points="2.9685349,7.8327572 1.4450268,1.7678519 1.4450268,7.8327572 8.6597396e-14,7.8327572 8.6597396e-14,0.12945369 2.32693,0.12945369 3.7250299,5.3836552 5.106948,0.12945369 7.4395416,0.12945369 7.4395416,7.8327572 5.9953239,7.8327572 5.9953239,1.7678519 4.4661522,7.8327572 " />
        <path
           d="m 13.93569,0.12783552 h 1.555062 V 4.2986715 c 0,0.6602138 0.01942,1.0922655 0.05744,1.2880642 0.06715,0.3163525 0.224926,0.567169 0.475742,0.7589222 0.250817,0.1917533 0.592251,0.2864163 1.027539,0.2864163 0.440951,0 0.774295,-0.088999 0.998411,-0.2702345 0.224117,-0.1804261 0.358425,-0.4013065 0.404543,-0.6642593 0.04531,-0.2621437 0.06796,-0.6982408 0.06796,-1.3074822 V 0.12783552 H 20.07745 V 4.1740723 c 0,0.9255939 -0.04207,1.5777169 -0.125408,1.9604143 -0.08414,0.3818884 -0.23949,0.7039044 -0.465225,0.9652391 -0.225734,0.2621437 -0.527523,0.4708878 -0.906175,0.6254231 -0.378652,0.1553444 -0.872195,0.2338257 -1.482245,0.2338257 -0.735459,0 -1.293728,-0.084145 -1.673189,-0.2532438 C 15.044946,7.5350137 14.744775,7.3157515 14.523895,7.0438988 14.303014,6.7728551 14.158188,6.4872479 14.087798,6.1886953 13.986662,5.7477437 13.93569,5.0940026 13.93569,4.2339447 Z"
           id="path5547"
           inkscape:connector-curvature="0" />
        <polygon
           id="path5549"
           points="28.275113,6.535793 32.142542,6.535793 32.142542,7.8335663 26.72005,7.8335663 26.72005,7.8327572 26.72005,0.19256236 28.275113,0.19256236 " />
        <polygon
           id="path5551"
           points="36.861938,1.4328905 36.861938,0.13026277 42.983479,0.13026277 42.983479,1.4328905 40.702667,1.4328905 40.702667,7.8327572 39.147604,7.8327572 39.147604,1.4328905 " />
        <polygon
           id="path5553"
           points="50.454575,0.12945369 50.454575,7.8327572 48.899512,7.8327572 48.899512,0.12945369 " />
        <path
           d="M 56.898132,7.8327572 V 0.12945369 h 2.496029 c 0.945821,0 1.562344,0.0388361 1.849569,0.11650832 0.440952,0.11812649 0.810704,0.36651575 1.108448,0.75649499 0.297743,0.387552 0.446615,0.8883759 0.446615,1.5000446 0,0.472506 -0.08576,0.869767 -0.257289,1.1950194 -0.171526,0.3203978 -0.38998,0.5752598 -0.654551,0.7589222 -0.264571,0.1852806 -0.533187,0.3058343 -0.806658,0.3657067 -0.37137,0.072818 -0.909412,0.1100356 -1.613316,0.1100356 h -1.013784 v 2.9078534 l -1.555063,-0.00728 v 0 z m 1.555063,-6.3998667 v 2.1853401 h 0.851157 c 0.612478,0 1.022685,-0.042882 1.22981,-0.1213629 0.207126,-0.07929 0.368944,-0.2055077 0.486261,-0.3778429 0.117317,-0.1723352 0.175571,-0.3713703 0.175571,-0.5987233 0,-0.2799436 -0.08253,-0.5121512 -0.246771,-0.6925773 C 60.78417,1.64568 60.576235,1.5348353 60.3238,1.4862902 60.13852,1.4514995 59.764722,1.4353178 59.204835,1.4353178 l -0.75164,-0.00243 z"
           id="path5555"
           inkscape:connector-curvature="0" />
        <polygon
           id="path5557"
           points="70.633168,6.535793 74.500597,6.535793 74.500597,7.8335663 69.078106,7.8335663 69.078106,7.8327572 69.078106,0.19256236 70.633168,0.19256236 " />
        <polygon
           id="path5559"
           points="86.428945,6.5317476 86.428945,7.8295208 80.570357,7.8327572 80.570357,0.12945369 86.281692,0.12945369 86.281692,1.4312723 82.125419,1.4312723 82.125419,3.1368247 85.992848,3.1368247 85.992848,4.4345979 82.125419,4.4345979 82.125419,6.5317476 " />
        <path
           d="m 153.69874,7.8327572 h -1.69179 L 151.3346,6.0818961 h -3.07938 l -0.63594,1.7508611 h -1.64973 l 3.00009,-7.70330351 h 1.64406 z m -2.86335,-3.0494434 -1.06233,-2.8576902 -1.04048,2.8576902 z"
           id="path5563"
           inkscape:connector-curvature="0" />
        <path
           d="M 159.49018,7.8327572 V 0.12945369 h 3.27356 c 0.82365,0 1.42156,0.0695813 1.79455,0.20874407 0.37299,0.13835363 0.67154,0.3859338 0.89566,0.73788604 0.22412,0.3543794 0.33658,0.7589222 0.33658,1.2136283 0,0.5776871 -0.16991,1.0550476 -0.50973,1.4328905 -0.339,0.3762248 -0.84711,0.6132868 -1.5235,0.7111862 0.33658,0.1957987 0.61328,0.4126336 0.83255,0.6464593 0.21926,0.2354439 0.51376,0.6537412 0.88513,1.2524645 l 0.94016,1.5016628 h -1.86009 l -1.12462,-1.6764253 c -0.39888,-0.5979142 -0.67316,-0.9765663 -0.81961,-1.1311016 -0.14644,-0.1529172 -0.30341,-0.2605255 -0.46765,-0.3203979 -0.16424,-0.055827 -0.42558,-0.084145 -0.78319,-0.084145 h -0.31474 V 7.840848 h -1.55506 z m 1.55506,-4.4467342 h 1.15052 c 0.74598,0 1.21201,-0.029936 1.39729,-0.093045 0.18609,-0.0623 0.33092,-0.1723352 0.4361,-0.3252524 0.10518,-0.1521081 0.15777,-0.3479068 0.15777,-0.5776871 0,-0.2589074 -0.0688,-0.4684605 -0.20713,-0.6278504 -0.13835,-0.1561535 -0.33334,-0.2572892 -0.58577,-0.3001707 -0.12622,-0.016991 -0.50406,-0.025082 -1.13515,-0.025082 h -1.21363 z"
           id="path5565"
           inkscape:connector-curvature="0" />
        <path
           d="m 177.14524,4.9985305 1.50813,0.4797877 c -0.2314,0.8422581 -0.61571,1.4668721 -1.15295,1.8714149 -0.53723,0.4077791 -1.2201,0.6124778 -2.04698,0.6124778 -1.02269,0 -1.86333,-0.3503341 -2.52192,-1.0485749 -0.6586,-0.6958136 -0.9879,-1.6537709 -0.9879,-2.865781 0,-1.2824006 0.33092,-2.2759577 0.99356,-2.9847166 0.66183,-0.70956802 1.53241,-1.06232931445 2.61173,-1.06232931445 0.94258,0 1.70717,0.27832542445 2.29618,0.83335811445 0.35034,0.3284887 0.61248,0.8026129 0.78805,1.4199451 l -1.53969,0.3657067 c -0.0914,-0.397261 -0.28075,-0.7128044 -0.5704,-0.9450119 -0.28965,-0.2297803 -0.63999,-0.3462886 -1.05343,-0.3462886 -0.57122,0 -1.03401,0.2038895 -1.39001,0.614905 -0.356,0.4102064 -0.534,1.0728474 -0.534,1.9911595 0,0.9733299 0.17557,1.6683344 0.52591,2.080968 0.35033,0.4126337 0.80585,0.6205687 1.36574,0.6205687 0.41344,0 0.76863,-0.1310719 1.06637,-0.3932156 0.29855,-0.2669983 0.51215,-0.6796319 0.64161,-1.2443736 z"
           id="path5567"
           inkscape:connector-curvature="0" />
        <path
           d="m 191.89486,7.8327572 h -1.69179 l -0.67316,-1.7508611 h -3.07938 l -0.63594,1.7508611 h -1.64973 l 3.00009,-7.70330351 h 1.64487 z m -2.86335,-3.0494434 -1.06233,-2.8576902 -1.04048,2.8576902 z"
           id="path5569"
           inkscape:connector-curvature="0" />
        <path
           d="m 197.67578,0.12783552 h 2.84313 c 0.64079,0 1.12948,0.0501633 1.46606,0.14806265 0.45228,0.13349912 0.83902,0.3697521 1.16104,0.70956803 0.32201,0.3390068 0.56798,0.7573041 0.73627,1.2476099 0.16829,0.491924 0.25243,1.0987382 0.25243,1.8212516 0,0.6327049 -0.0793,1.1796467 -0.23625,1.6383982 -0.19256,0.5590781 -0.46765,1.0145933 -0.82527,1.3608819 -0.26943,0.2629528 -0.63432,0.4676514 -1.09307,0.6165232 -0.34306,0.1100356 -0.80181,0.1642444 -1.37626,0.1642444 H 197.6774 V 0.13107186 l -0.002,-0.003236 v 0 z m 1.55506,1.30505498 V 6.535793 h 1.16104 c 0.43448,0 0.7476,-0.024273 0.94097,-0.074436 0.25243,-0.0623 0.46118,-0.1707171 0.62785,-0.3203979 0.16667,-0.1521081 0.3026,-0.3964519 0.40697,-0.7443587 0.10518,-0.3446704 0.15777,-0.8147491 0.15777,-1.4102361 0,-0.5930597 -0.0526,-1.0526203 -0.15777,-1.3689727 -0.10518,-0.3203979 -0.25244,-0.567169 -0.44095,-0.7475951 -0.18933,-0.1804261 -0.42882,-0.2985526 -0.72009,-0.3616612 -0.21764,-0.050972 -0.64322,-0.072818 -1.27674,-0.072818 l -0.69905,-0.00243 v 0 z"
           id="path5571"
           inkscape:connector-curvature="0" />
        <polygon
           id="path5573"
           points="216.2718,6.5317476 216.2718,7.8295208 210.41322,7.8327572 210.41322,0.12945369 216.12455,0.12945369 216.12455,1.4312723 211.96828,1.4312723 211.96828,3.1368247 215.83571,3.1368247 215.83571,4.4345979 211.96828,4.4345979 211.96828,6.5317476 " />
        <polygon
           id="path5577"
           points="232.08295,7.8327572 230.55621,1.7678519 230.55621,7.8327572 229.11685,7.8327572 229.11685,0.12945369 231.44458,0.12945369 232.84349,5.3836552 234.2246,0.12945369 236.5572,0.12945369 236.5572,7.8327572 235.11298,7.8327572 235.11298,1.7678519 233.583,7.8327572 " />
        <path
           d="m 250.00824,7.8327572 h -1.69099 l -0.67316,-1.7508611 h -3.0818 l -0.63271,1.7508611 h -1.65053 l 3.0009,-7.70330351 h 1.64163 z m -2.86335,-3.0494434 -1.06233,-2.8576902 -1.04048,2.8576902 z"
           id="path5579"
           inkscape:connector-curvature="0" />
        <path
           d="m 260.72458,4.9985305 1.50733,0.4797877 c -0.23059,0.8422581 -0.61572,1.4668721 -1.15295,1.8714149 -0.53804,0.4085882 -1.22091,0.6124778 -2.04699,0.6124778 -1.02268,0 -1.86332,-0.3503341 -2.5203,-1.0485749 -0.65778,-0.6958136 -0.98951,-1.6537709 -0.98951,-2.865781 0,-1.2824006 0.33092,-2.2759577 0.99437,-2.9847166 0.66183,-0.70956802 1.53402,-1.06232931445 2.61254,-1.06232931445 0.94258,0 1.70555,0.27832542445 2.29699,0.83335811445 0.35114,0.3284887 0.6149,0.8026129 0.79048,1.4199451 l -1.53889,0.3657067 c -0.0898,-0.397261 -0.28318,-0.7128044 -0.56959,-0.9450119 -0.28804,-0.2297803 -0.63999,-0.3462886 -1.05424,-0.3462886 -0.57041,0 -1.0332,0.2038895 -1.39001,0.614905 -0.35519,0.4102064 -0.534,1.0728474 -0.534,1.9911595 0,0.9733299 0.17638,1.6683344 0.52429,2.080968 0.35114,0.4126337 0.80423,0.6205687 1.36574,0.6205687 0.41263,0 0.76539,-0.1310719 1.06233,-0.3932156 0.29855,-0.2669983 0.51215,-0.6796319 0.64241,-1.2443736 z"
           id="path5581"
           inkscape:connector-curvature="0" />
        <polygon
           id="path5583"
           points="270.08894,4.463725 270.08894,7.8327572 268.53307,7.8327572 268.53307,0.12945369 270.08894,0.12945369 270.08894,3.1619063 273.13595,3.1619063 273.13595,0.12945369 274.69263,0.12945369 274.69263,7.8327572 273.13595,7.8327572 273.13595,4.463725 " />
        <polygon
           id="path5585"
           points="282.76893,0.12945369 282.76893,7.8327572 281.21305,7.8327572 281.21305,0.12945369 " />
        <polygon
           id="path5587"
           points="289.22543,7.8327572 289.22543,0.12945369 290.73923,0.12945369 293.89143,5.2728105 293.89143,0.12945369 295.33645,0.12945369 295.33645,7.8327572 293.77573,7.8327572 290.66965,2.809145 290.66965,7.8327572 " />
        <polygon
           id="path5589"
           points="307.80122,6.5317476 307.80122,7.8295208 301.94263,7.8327572 301.94263,0.12945369 307.65478,0.12945369 307.65478,1.4312723 303.4977,1.4312723 303.4977,3.1368247 307.36513,3.1368247 307.36513,4.4345979 303.4977,4.4345979 303.4977,6.5317476 " />
        <polygon
           id="path5593"
           points="327.13999,6.5317476 327.13999,7.8295208 321.28059,7.8327572 321.28059,0.12945369 326.99273,0.12945369 326.99273,1.4312723 322.83646,1.4312723 322.83646,3.1368247 326.70389,3.1368247 326.70389,4.4345979 322.83646,4.4345979 322.83646,6.5317476 " />
        <polygon
           id="path5595"
           points="336.36761,7.8327572 334.84329,1.7678519 334.84329,7.8327572 333.39907,7.8327572 333.39907,0.12945369 335.72681,0.12945369 337.12491,5.3836552 338.50764,0.12945369 340.84023,0.12945369 340.84023,7.8327572 339.39763,7.8327572 339.39763,1.7678519 337.86603,7.8327572 " />
        <path
           d="m 347.33395,0.12783552 h 1.55506 V 4.2986715 c 0,0.6602138 0.0186,1.0922655 0.0566,1.2880642 0.0663,0.3163525 0.22088,0.567169 0.47574,0.7589222 0.25163,0.1909442 0.58983,0.2864163 1.02754,0.2864163 0.44257,0 0.7743,-0.088999 0.99841,-0.2702345 0.22412,-0.1804261 0.35843,-0.4013065 0.40455,-0.6642593 0.0461,-0.2621437 0.068,-0.6982408 0.068,-1.3074822 V 0.12783552 h 1.55668 V 4.1740723 c 0,0.9255939 -0.0429,1.5777169 -0.12622,1.9604143 -0.0841,0.3818884 -0.2403,0.7039044 -0.46441,0.9652391 -0.22574,0.2621437 -0.52753,0.4708878 -0.90699,0.6254231 -0.37784,0.1553444 -0.87219,0.2338257 -1.48062,0.2338257 -0.73627,0 -1.29454,-0.084145 -1.67319,-0.2532438 -0.38108,-0.170717 -0.68125,-0.3899792 -0.89728,-0.6618319 -0.21926,-0.2710437 -0.3649,-0.5566509 -0.43448,-0.8552035 -0.10275,-0.4409516 -0.15291,-1.0946927 -0.15291,-1.9547506 V 0.12621735 l -0.006,0.001618 v 0 z"
           id="path5597"
           inkscape:connector-curvature="0" />
        <polygon
           id="path5599"
           points="361.67338,6.535793 365.54161,6.535793 365.54161,7.8335663 360.11831,7.8335663 360.11831,7.8327572 360.11831,0.19256236 361.67338,0.19256236 " />
        <path
           d="m 378.55656,7.8327572 h -1.6926 l -0.67154,-1.7508611 h -3.08019 l -0.63513,1.7508611 h -1.64973 l 2.99928,-7.70330351 h 1.64487 z m -2.86335,-3.0494434 -1.06233,-2.8576902 -1.03967,2.8576902 z"
           id="path5601"
           inkscape:connector-curvature="0" />
        <polygon
           id="path5603"
           points="382.99278,1.4328905 382.99278,0.13026277 389.1127,0.13026277 389.1127,1.4328905 386.83432,1.4328905 386.83432,7.8327572 385.27926,7.8327572 385.27926,1.4328905 " />
        <path
           d="m 394.56756,4.0276279 c 0,-0.7864312 0.11812,-1.4425996 0.35438,-1.9741688 0.17395,-0.3915974 0.41263,-0.7443587 0.71604,-1.05828388 0.30341,-0.3131161 0.63513,-0.54208731 0.99517,-0.69095905 C 397.11375,0.10113569 397.66636,0 398.29421,0 c 1.13433,0 2.04294,0.35437947 2.72419,1.0558566 0.68125,0.7039045 1.02268,1.6837071 1.02268,2.9394078 0,1.2419463 -0.3382,2.2144672 -1.01459,2.9167534 -0.6764,0.7014772 -1.58015,1.0534294 -2.71206,1.0534294 -1.14566,0 -2.05588,-0.350334 -2.73228,-1.0485749 -0.67639,-0.6982408 -1.01459,-1.6642889 -1.01459,-2.8892444 z m 1.60441,-0.0534 c 0,0.8721942 0.20066,1.5340262 0.60358,1.9822596 0.40293,0.4514697 0.91508,0.6747773 1.53403,0.6747773 0.62138,0 1.12948,-0.2208803 1.52674,-0.6674955 0.39807,-0.4482334 0.59549,-1.1173472 0.59549,-2.0105776 0,-0.8819033 -0.19256,-1.5388807 -0.58011,-1.9733597 -0.38837,-0.4328607 -0.90052,-0.6513138 -1.54212,-0.6513138 -0.64161,0 -1.15699,0.2192621 -1.55021,0.6577865 -0.39322,0.4385244 -0.5874,1.1019745 -0.5874,1.9879232 z"
           id="path5605"
           inkscape:connector-curvature="0" />
        <path
           d="M 408.21926,7.8327572 V 0.12945369 h 3.27437 c 0.82365,0 1.42075,0.0695813 1.79374,0.20874407 0.37299,0.13835363 0.67154,0.3859338 0.89566,0.73788604 0.22412,0.3543794 0.33658,0.7589222 0.33658,1.2136283 0,0.5776871 -0.17072,1.0550476 -0.51054,1.4328905 -0.33981,0.3762248 -0.84711,0.6132868 -1.5235,0.7111862 0.33658,0.1957987 0.6149,0.4126336 0.82607,0.6464593 0.21927,0.2354439 0.52186,0.6537412 0.89162,1.2524645 l 0.9353,1.5016628 h -1.85766 l -1.12544,-1.6764253 c -0.39807,-0.5979142 -0.67154,-0.9765663 -0.8188,-1.1311016 -0.15049,-0.1529172 -0.3034,-0.2605255 -0.46765,-0.3203979 -0.16424,-0.055827 -0.42477,-0.084145 -0.78562,-0.084145 h -0.31635 V 7.840848 h -1.55345 v -0.00485 h 0.003 v -0.00162 h 0.002 z m 1.55506,-4.4467342 h 1.15214 c 0.74598,0 1.21201,-0.029936 1.39729,-0.093045 0.18609,-0.0623 0.33173,-0.1723352 0.43771,-0.3252524 0.10438,-0.1521081 0.15616,-0.3479068 0.15616,-0.5776871 0,-0.2589074 -0.0696,-0.4684605 -0.20875,-0.6278504 -0.13754,-0.1561535 -0.33172,-0.2572892 -0.58497,-0.3001707 -0.12621,-0.016991 -0.50406,-0.025082 -1.13433,-0.025082 h -1.21525 z"
           id="path5607"
           inkscape:connector-curvature="0" />
      </g>
    </g>
  </g>
</svg>
