<?xml version="1.0" encoding="UTF-8" standalone="no"?>
<!-- Generator: Adobe Illustrator 15.1.0, SVG Export Plug-In . SVG Version: 6.00 Build 0)  -->

<svg
   xmlns:dc="http://purl.org/dc/elements/1.1/"
   xmlns:cc="http://creativecommons.org/ns#"
   xmlns:rdf="http://www.w3.org/1999/02/22-rdf-syntax-ns#"
   xmlns:svg="http://www.w3.org/2000/svg"
   xmlns="http://www.w3.org/2000/svg"
   xmlns:sodipodi="http://sodipodi.sourceforge.net/DTD/sodipodi-0.dtd"
   xmlns:inkscape="http://www.inkscape.org/namespaces/inkscape"
   version="1.1"
   id="Layer_1"
   width="500"
   height="200"
   viewBox="0 0 500 200"
   enable-background="new 0 0 588 122"
   xml:space="preserve"
   sodipodi:docname="metalgear.svg"
   inkscape:version="0.92.5 (2060ec1f9f, 2020-04-08)"><metadata
   id="metadata97"><rdf:RDF><cc:Work
       rdf:about=""><dc:format>image/svg+xml</dc:format><dc:type
         rdf:resource="http://purl.org/dc/dcmitype/StillImage" /><dc:title /></cc:Work></rdf:RDF></metadata><defs
   id="defs95">
	
	
	
	
	
</defs><sodipodi:namedview
   pagecolor="#ffffff"
   bordercolor="#666666"
   borderopacity="1"
   objecttolerance="10"
   gridtolerance="10"
   guidetolerance="10"
   inkscape:pageopacity="0"
   inkscape:pageshadow="2"
   inkscape:window-width="1366"
   inkscape:window-height="743"
   id="namedview93"
   showgrid="false"
   inkscape:pagecheckerboard="true"
   inkscape:zoom="1.1628151"
   inkscape:cx="493.46824"
   inkscape:cy="73.624844"
   inkscape:window-x="0"
   inkscape:window-y="0"
   inkscape:window-maximized="1"
   inkscape:current-layer="Layer_1" />
<polygon
   style="fill:#ed1c24"
   id="polygon2"
   points="29.197,96.921 542.57,96.921 549.108,119.468 24.509,119.468 "
   transform="matrix(0.85921949,0,0,0.85921949,1.284636,29.753834)" /><g
   id="g22"
   transform="matrix(0.85921949,0,0,0.85921949,1.284636,29.753834)">
		<path
   style="fill:#ed1c24"
   inkscape:connector-curvature="0"
   id="path4"
   d="M 1.361,119.827 22.724,22.445 44.59,22.408 44.664,58.951 66.197,22.408 90.101,22.445 74.907,91.194 H 54.375 L 60.639,63.398 46.11,91.194 H 31.693 L 31.656,64.25 19.52,119.938 Z" />
		<path
   style="fill:#ed1c24"
   inkscape:connector-curvature="0"
   id="path6"
   d="m 96.063,44.2 h 47.809 l -3.706,17.456 h -29.278 l -2.298,10.118 h 29.241 l -4.262,19.383 -47.92,0.037 z m 0,0 h 47.809 l -3.706,17.456 h -29.278 l -2.298,10.118 h 29.241 l -4.262,19.383 -47.92,0.037 z m 4.781,-21.755 47.957,-0.037 -3.595,15.862 h -47.92 z m 0,0 47.957,-0.037 -3.595,15.862 h -47.92 z" />
		<path
   style="fill:#ed1c24"
   inkscape:connector-curvature="0"
   id="path8"
   d="m 154.002,22.445 55.222,-0.037 -3.559,15.908 -17.418,0.037 -11.6,52.804 -20.235,0.037 11.6,-52.804 -17.493,-0.037 z" />
		<path
   style="fill:#ed1c24"
   inkscape:connector-curvature="0"
   id="path10"
   d="m 210.372,44.349 h 37.358 l 6.338,46.845 -22.497,-0.037 -2.372,-27.796 h -7.042 l -14.454,27.833 h -23.905 l 25.239,-44.881 z m 36.506,-6.115 -2.558,-15.825 h -22.756 l -8.895,15.825 z" />
		<path
   style="fill:#ed1c24"
   inkscape:connector-curvature="0"
   id="path12"
   d="m 272.87,22.445 19.346,-0.037 -11.341,51.033 28.426,-0.037 -3.928,17.753 -47.772,0.037 z" />
		<path
   style="fill:#ed1c24"
   inkscape:connector-curvature="0"
   id="path14"
   d="m 350.692,61.879 3.965,-17.642 h 32.207 l -10.378,46.919 h -44.028 l -12.194,-37.674 26.537,-31.038 44.918,-0.037 -3.633,15.974 h -30.5 l -15.492,16.252 4.929,17.362 h 15.418 l 2.224,-10.117 h -13.973 z" />
		<path
   style="fill:#ed1c24"
   inkscape:connector-curvature="0"
   id="path16"
   d="m 395.185,44.2 h 47.809 l -3.706,17.456 H 410.01 l -2.298,10.118 h 29.241 l -4.262,19.383 -47.921,0.037 z m 0,0 h 47.809 l -3.706,17.456 H 410.01 l -2.298,10.118 h 29.241 l -4.262,19.383 -47.921,0.037 z m 4.78,-21.755 47.958,-0.037 -3.595,15.862 h -47.921 z m 0,0 47.958,-0.037 -3.595,15.862 h -47.921 z" />
		<path
   style="fill:#ed1c24"
   inkscape:connector-curvature="0"
   id="path18"
   d="m 463.644,44.349 h 37.357 l 6.337,46.845 -22.496,-0.037 -2.371,-27.796 h -7.043 L 460.975,91.194 H 437.07 l 25.238,-44.881 z m 36.505,-6.115 -2.559,-15.825 h -22.755 l -8.896,15.825 z" />
		<path
   style="fill:#ed1c24"
   inkscape:connector-curvature="0"
   id="path20"
   d="m 524.498,22.445 h 34.281 l 3.483,0.371 c 5.634,0.593 9.118,3.424 10.452,8.492 0.913,3.461 1.371,6.675 1.371,9.641 0,7.737 -3.225,13.449 -9.674,17.132 l -7.708,3.3 20.211,58.558 -20.05,-0.037 -21.435,-57.504 -6.375,28.797 h -19.79 l 10.34,-47.067 h 34.208 l 2.372,-0.334 1.223,-0.481 1.001,-0.631 0.52,-1.111 v -0.927 l -0.52,-1.111 -1.223,-0.815 -1.335,-0.408 -34.801,-0.147 z" />
	</g><g
   id="g88"
   transform="matrix(0.85921949,0,0,0.85921949,1.284636,29.753834)">
		<path
   style="fill:#ed1c24"
   inkscape:connector-curvature="0"
   id="path84"
   d="m 574.606,27.701 v -6.949 h -2.596 v -0.929 h 6.245 v 0.929 h -2.606 v 6.949 z" />
		<path
   style="fill:#ed1c24"
   inkscape:connector-curvature="0"
   id="path86"
   d="m 579.293,27.701 v -7.878 h 1.569 l 1.864,5.578 c 0.173,0.52 0.298,0.908 0.377,1.167 0.089,-0.287 0.229,-0.708 0.419,-1.263 l 1.886,-5.481 h 1.403 v 7.878 h -1.005 v -6.594 l -2.29,6.594 h -0.94 l -2.278,-6.707 v 6.707 h -1.005 z" />
	</g>
<path
   d="m 12.069933,197.69951 c 1.557507,0 3.072273,-0.3435 4.544299,-1.03048 1.47201,-0.687 2.682883,-1.60952 3.632573,-2.76759 v 0 l -2.706626,-2.76758 c -0.702773,0.844 -1.510022,1.49175 -2.421716,1.9432 -0.91171,0.45144 -1.889888,0.67716 -2.934547,0.67716 -0.930706,0 -1.790186,-0.17173 -2.578422,-0.51523 -0.788251,-0.34349 -1.472027,-0.80967 -2.05134,-1.39851 -0.579329,-0.58885 -1.035169,-1.29058 -1.367565,-2.10514 -0.332396,-0.81459 -0.498595,-1.69294 -0.498595,-2.6351 0,-0.9618 0.161377,-1.84997 0.484358,-2.66454 0.322891,-0.81458 0.76924,-1.52119 1.339062,-2.11986 0.569807,-0.59866 1.248853,-1.06974 2.037089,-1.41324 0.788251,-0.34348 1.628733,-0.51524 2.52143,-0.51524 1.063672,0 2.070338,0.24045 3.020042,0.72134 0.949704,0.4809 1.77592,1.1728 2.478691,2.0757 v 0 l 2.792107,-2.85593 c -0.930693,-1.17768 -2.146311,-2.11493 -3.646825,-2.81174 -1.500515,-0.6968 -3.048515,-1.0452 -4.644015,-1.0452 -1.481516,0 -2.872808,0.27479 -4.173892,0.82438 -1.301082,0.5496 -2.426461,1.29548 -3.376165,2.23763 -0.949689,0.94215 -1.699946,2.06587 -2.250771,3.37115 -0.550826,1.30528 -0.826231,2.7038 -0.826231,4.19555 0,1.49174 0.27066,2.88536 0.811979,4.18083 0.541334,1.29546 1.286831,2.41428 2.23652,3.35644 0.949704,0.94214 2.075082,1.68802 3.37618,2.23761 1.301084,0.5496 2.701882,0.82439 4.20238,0.82439 z m 53.990107,0.0295 c 1.481533,0 2.868095,-0.27479 4.159672,-0.82439 1.291591,-0.54959 2.407479,-1.30037 3.347676,-2.25234 0.940199,-0.95198 1.685696,-2.0806 2.236521,-3.38588 0.550825,-1.30529 0.82623,-2.69399 0.82623,-4.1661 0,-1.47213 -0.275405,-2.86084 -0.82623,-4.16611 -0.550825,-1.30529 -1.296322,-2.43391 -2.236521,-3.38587 -0.940197,-0.95197 -2.056085,-1.70277 -3.347676,-2.25235 -1.291577,-0.5496 -2.678139,-0.82439 -4.159672,-0.82439 -1.462534,0 -2.83956,0.27479 -4.131168,0.82439 -1.291591,0.54958 -2.407462,1.30038 -3.347661,2.25235 -0.940198,0.95196 -1.68571,2.08058 -2.23652,3.38587 -0.55084,1.30527 -0.826245,2.69398 -0.826245,4.16611 0,1.47211 0.275405,2.86081 0.826245,4.1661 0.55081,1.30528 1.296322,2.4339 2.23652,3.38588 0.940199,0.95197 2.05607,1.70275 3.347661,2.25234 1.291608,0.5496 2.668634,0.82439 4.131168,0.82439 z m 0,-3.91584 c -0.892712,0 -1.723688,-0.17175 -2.492927,-0.51526 -0.769254,-0.34348 -1.434047,-0.81456 -1.994379,-1.41321 -0.560301,-0.59868 -1.001905,-1.3102 -1.32481,-2.13459 -0.322906,-0.82439 -0.484359,-1.70766 -0.484359,-2.64981 0,-0.96179 0.161392,-1.84997 0.484359,-2.66454 0.322905,-0.81459 0.764509,-1.52119 1.32481,-2.11986 0.560332,-0.59867 1.225125,-1.06974 1.994379,-1.41323 0.769239,-0.34351 1.600215,-0.51525 2.492927,-0.51525 0.892728,0 1.728466,0.17174 2.50721,0.51525 0.778746,0.34349 1.448269,0.81456 2.008601,1.41323 0.560301,0.59867 1.001935,1.30527 1.32481,2.11986 0.322906,0.81457 0.484358,1.70275 0.484358,2.66454 0,0.94215 -0.161392,1.82542 -0.484358,2.64981 -0.322875,0.82439 -0.764509,1.53591 -1.32481,2.13459 -0.560332,0.59865 -1.229855,1.06973 -2.008601,1.41321 -0.778744,0.34351 -1.614482,0.51526 -2.50721,0.51526 z m 62.62283,3.59198 v -3.76864 h -10.91198 v -16.84112 h -4.13118 v 20.60969 z m 52.08122,0 v -3.76864 h -10.91198 v -16.84112 h -4.13117 v 20.60969 z m 52.48009,0 v -3.70976 h -11.31085 v -4.88744 h 7.37913 v -3.59198 h -7.37913 v -4.71078 h 11.1969 v -3.70975 h -15.32806 v 20.60969 z m 45.81324,0.29442 c 1.55752,0 3.07227,-0.3435 4.54429,-1.03049 1.47202,-0.68699 2.68289,-1.60953 3.63259,-2.76759 v 0 l -2.70664,-2.76759 c -0.70277,0.84402 -1.51001,1.49175 -2.42171,1.9432 -0.91171,0.45147 -1.88989,0.67718 -2.93455,0.67718 -0.93071,0 -1.79019,-0.17174 -2.57843,-0.51524 -0.78824,-0.3435 -1.47202,-0.80967 -2.05133,-1.39852 -0.57933,-0.58885 -1.03518,-1.29055 -1.36757,-2.10513 -0.3324,-0.81457 -0.4986,-1.69294 -0.4986,-2.63509 0,-0.96179 0.16138,-1.84997 0.48435,-2.66454 0.32291,-0.81459 0.76925,-1.52119 1.33908,-2.11986 0.56981,-0.59867 1.24885,-1.06974 2.03708,-1.41323 0.78826,-0.34351 1.62874,-0.51525 2.52144,-0.51525 1.06367,0 2.07035,0.24045 3.02004,0.72134 0.9497,0.48089 1.77591,1.17279 2.47868,2.07569 v 0 l 2.79212,-2.85591 c -0.93069,-1.1777 -2.14631,-2.11495 -3.64681,-2.81176 -1.50053,-0.69679 -3.04853,-1.0452 -4.64403,-1.0452 -1.48152,0 -2.87281,0.27479 -4.17389,0.82439 -1.30109,0.54958 -2.42646,1.29546 -3.37617,2.23763 -0.94968,0.94214 -1.69995,2.06586 -2.25078,3.37114 -0.55081,1.30528 -0.82622,2.7038 -0.82622,4.19556 0,1.49175 0.27066,2.88535 0.81199,4.18082 0.54133,1.29547 1.28681,2.41427 2.23653,3.35644 0.9497,0.94216 2.07508,1.68802 3.37616,2.23761 1.30108,0.54959 2.70186,0.8244 4.20238,0.8244 z m 54.64541,-0.29442 v -16.84114 h 6.69533 v -3.76863 h -17.55034 v 3.76863 h 6.72382 v 16.84106 z m 47.32325,0 v -20.60976 h -4.13116 v 20.60969 z m 47.57966,0.32386 c 1.48154,0 2.86809,-0.27479 4.15968,-0.82439 1.29157,-0.54959 2.40746,-1.30037 3.34766,-2.25234 0.9402,-0.95198 1.68571,-2.0806 2.23654,-3.38588 0.5508,-1.30529 0.82622,-2.69399 0.82622,-4.1661 0,-1.47213 -0.27542,-2.86084 -0.82622,-4.16611 -0.55083,-1.30529 -1.29634,-2.43391 -2.23654,-3.38587 -0.9402,-0.95197 -2.05609,-1.70277 -3.34766,-2.25235 -1.29159,-0.5496 -2.67814,-0.82439 -4.15968,-0.82439 -1.46252,0 -2.83959,0.27479 -4.13115,0.82439 -1.29159,0.54958 -2.40747,1.30038 -3.34767,2.25235 -0.9402,0.95196 -1.68571,2.08058 -2.23654,3.38587 -0.55083,1.30527 -0.82625,2.69398 -0.82625,4.16611 0,1.47211 0.27542,2.86081 0.82625,4.1661 0.55083,1.30528 1.29634,2.4339 2.23654,3.38588 0.9402,0.95197 2.05608,1.70275 3.34767,2.25234 1.29156,0.5496 2.66863,0.82439 4.13115,0.82439 z m 0,-3.91584 c -0.8927,0 -1.7237,-0.17175 -2.49294,-0.51526 -0.76925,-0.34348 -1.43403,-0.81456 -1.99436,-1.41321 -0.56031,-0.59868 -1.00192,-1.3102 -1.32482,-2.13459 -0.32289,-0.82439 -0.48435,-1.70766 -0.48435,-2.64981 0,-0.96179 0.16138,-1.84997 0.48435,-2.66454 0.3229,-0.81459 0.76451,-1.52119 1.32482,-2.11986 0.56033,-0.59867 1.22511,-1.06974 1.99436,-1.41323 0.76924,-0.34351 1.60024,-0.51525 2.49294,-0.51525 0.89272,0 1.72846,0.17174 2.5072,0.51525 0.77876,0.34349 1.44826,0.81456 2.0086,1.41323 0.56032,0.59867 1.00193,1.30527 1.32482,2.11986 0.3229,0.81457 0.48435,1.70275 0.48435,2.66454 0,0.94215 -0.16137,1.82542 -0.48435,2.64981 -0.32289,0.82439 -0.7645,1.53591 -1.32482,2.13459 -0.56034,0.59865 -1.22984,1.06973 -2.0086,1.41321 -0.77874,0.34351 -1.61448,0.51526 -2.5072,0.51526 z m 51.48292,3.59198 v -13.77906 l 10.17123,13.77906 h 3.64683 v -20.60976 h -3.87476 v 13.33742 l -9.9148,-13.33742 h -3.93174 v 20.60969 z"
   id="COLLECTION"
   inkscape:connector-curvature="0"
   style="fill:#ffffff;fill-rule:nonzero;stroke:none;stroke-width:1.77145267" /></svg>