<?xml version="1.0" encoding="UTF-8" standalone="no"?>
<!-- Created with Inkscape (http://www.inkscape.org/) -->

<svg
   xmlns:dc="http://purl.org/dc/elements/1.1/"
   xmlns:cc="http://creativecommons.org/ns#"
   xmlns:rdf="http://www.w3.org/1999/02/22-rdf-syntax-ns#"
   xmlns:svg="http://www.w3.org/2000/svg"
   xmlns="http://www.w3.org/2000/svg"
   xmlns:sodipodi="http://sodipodi.sourceforge.net/DTD/sodipodi-0.dtd"
   xmlns:inkscape="http://www.inkscape.org/namespaces/inkscape"
   version="1.1"
   id="svg2"
   xml:space="preserve"
   width="500"
   height="200"
   viewBox="0 0 500 200"
   sodipodi:docname="metroid.svg"
   inkscape:version="0.92.5 (2060ec1f9f, 2020-04-08)"><metadata
     id="metadata8"><rdf:RDF><cc:Work
         rdf:about=""><dc:format>image/svg+xml</dc:format><dc:type
           rdf:resource="http://purl.org/dc/dcmitype/StillImage" /><dc:title /></cc:Work></rdf:RDF></metadata><defs
     id="defs6"><clipPath
       clipPathUnits="userSpaceOnUse"
       id="clipPath18"><path
         d="M 0,396.85 H 595.28 V 0 H 0 Z"
         id="path16"
         inkscape:connector-curvature="0" /></clipPath><clipPath
       clipPathUnits="userSpaceOnUse"
       id="clipPath34"><path
         d="m 175.135,266.175 c 0,0 -9.999,-16.667 -40.167,-28 v 0 l -4.916,-12.75 -5.334,0.083 c 0,0 -5.749,-10.584 -37.416,-24.833 v 0 h 33.083 c 0,-1 -14.388,-46.875 -33.756,-65.5 v 0 c 0,0 59.756,10.5 77.006,85.249 v 0 l 5.5,16.001 h 38 l 19.25,29.75 z"
         id="path32"
         inkscape:connector-curvature="0" /></clipPath><linearGradient
       x1="0"
       y1="0"
       x2="1"
       y2="0"
       gradientUnits="userSpaceOnUse"
       gradientTransform="matrix(91.663811,158.7664,158.7664,-91.663811,96.746582,129.33301)"
       spreadMethod="pad"
       id="linearGradient50"><stop
         style="stop-opacity:1;stop-color:#295da9"
         offset="0"
         id="stop40" /><stop
         style="stop-opacity:1;stop-color:#295da9"
         offset="0.0052356"
         id="stop42" /><stop
         style="stop-opacity:1;stop-color:#295da9"
         offset="0.33581042"
         id="stop44" /><stop
         style="stop-opacity:1;stop-color:#272e65"
         offset="0.795811"
         id="stop46" /><stop
         style="stop-opacity:1;stop-color:#272e65"
         offset="1"
         id="stop48" /></linearGradient><clipPath
       clipPathUnits="userSpaceOnUse"
       id="clipPath60"><path
         d="M 0,396.85 H 595.28 V 0 H 0 Z"
         id="path58"
         inkscape:connector-curvature="0" /></clipPath><clipPath
       clipPathUnits="userSpaceOnUse"
       id="clipPath72"><path
         d="m 191.189,251.41 -2.814,-6.94 7.784,-0.094 -7.316,-19.037 h 8.722 l 7.315,19.131 h 7.034 l 2.721,6.94 z"
         id="path70"
         inkscape:connector-curvature="0" /></clipPath><linearGradient
       x1="0"
       y1="0"
       x2="1"
       y2="0"
       gradientUnits="userSpaceOnUse"
       gradientTransform="matrix(-1.1e-6,-26.071289,-26.071289,1.1e-6,201.50488,251.41016)"
       spreadMethod="pad"
       id="linearGradient86"><stop
         style="stop-opacity:1;stop-color:#e6342a"
         offset="0"
         id="stop78" /><stop
         style="stop-opacity:1;stop-color:#e6342a"
         offset="0.0104712"
         id="stop80" /><stop
         style="stop-opacity:1;stop-color:#f9b233"
         offset="0.989529"
         id="stop82" /><stop
         style="stop-opacity:1;stop-color:#f9b233"
         offset="1"
         id="stop84" /></linearGradient><clipPath
       clipPathUnits="userSpaceOnUse"
       id="clipPath96"><path
         d="m 239.206,251.41 c -0.281,0 -3.844,-9.471 -3.844,-9.471 v 0 h -10.599 l 3.095,9.471 h -8.44 l -9.754,-26.071 h 8.536 l 3.749,9.66 h 10.973 l -3.562,-9.66 h 8.814 c 0,0 9.566,26.071 9.847,26.071 v 0 c 0.188,0 -3.667,0.001 -6.342,0.001 v 0 c -1.337,0 -2.38,0 -2.473,-0.001"
         id="path94"
         inkscape:connector-curvature="0" /></clipPath><linearGradient
       x1="0"
       y1="0"
       x2="1"
       y2="0"
       gradientUnits="userSpaceOnUse"
       gradientTransform="matrix(-1.1e-6,-26.071777,-26.071777,1.1e-6,228.84619,251.41064)"
       spreadMethod="pad"
       id="linearGradient110"><stop
         style="stop-opacity:1;stop-color:#e6342a"
         offset="0"
         id="stop102" /><stop
         style="stop-opacity:1;stop-color:#e6342a"
         offset="0.0104712"
         id="stop104" /><stop
         style="stop-opacity:1;stop-color:#f9b233"
         offset="0.989529"
         id="stop106" /><stop
         style="stop-opacity:1;stop-color:#f9b233"
         offset="1"
         id="stop108" /></linearGradient><clipPath
       clipPathUnits="userSpaceOnUse"
       id="clipPath120"><path
         d="m 252.526,251.41 -9.755,-26.071 h 23.165 l 2.439,6.847 h -14.35 l 1.031,2.907 h 14.35 l 2.625,6.751 h -14.347 l 1.031,2.627 h 14.255 l 3.001,6.939 z"
         id="path118"
         inkscape:connector-curvature="0" /></clipPath><linearGradient
       x1="0"
       y1="0"
       x2="1"
       y2="0"
       gradientUnits="userSpaceOnUse"
       gradientTransform="matrix(-1.1e-6,-26.071289,-26.071289,1.1e-6,259.37109,251.41016)"
       spreadMethod="pad"
       id="linearGradient134"><stop
         style="stop-opacity:1;stop-color:#e6342a"
         offset="0"
         id="stop126" /><stop
         style="stop-opacity:1;stop-color:#e6342a"
         offset="0.0104712"
         id="stop128" /><stop
         style="stop-opacity:1;stop-color:#f9b233"
         offset="0.989529"
         id="stop130" /><stop
         style="stop-opacity:1;stop-color:#f9b233"
         offset="1"
         id="stop132" /></linearGradient><clipPath
       clipPathUnits="userSpaceOnUse"
       id="clipPath144"><path
         d="m 309.733,251.41 -11.821,-10.502 h -1.026 l 3.751,10.502 h -8.628 l -9.847,-26.071 h 8.722 l 4.97,13.035 4.501,-13.035 h 8.816 l -4.596,14.068 13.504,12.003 z"
         id="path142"
         inkscape:connector-curvature="0" /></clipPath><linearGradient
       x1="0"
       y1="0"
       x2="1"
       y2="0"
       gradientUnits="userSpaceOnUse"
       gradientTransform="matrix(-1.1e-6,-26.071289,-26.071289,1.1e-6,300.12109,251.41016)"
       spreadMethod="pad"
       id="linearGradient158"><stop
         style="stop-opacity:1;stop-color:#e6342a"
         offset="0"
         id="stop150" /><stop
         style="stop-opacity:1;stop-color:#e6342a"
         offset="0.0104712"
         id="stop152" /><stop
         style="stop-opacity:1;stop-color:#f9b233"
         offset="0.989529"
         id="stop154" /><stop
         style="stop-opacity:1;stop-color:#f9b233"
         offset="1"
         id="stop156" /></linearGradient><clipPath
       clipPathUnits="userSpaceOnUse"
       id="clipPath168"><path
         d="m 323.051,251.41 -9.845,-26.071 h 9.002 l 9.566,26.071 z"
         id="path166"
         inkscape:connector-curvature="0" /></clipPath><linearGradient
       x1="0"
       y1="0"
       x2="1"
       y2="0"
       gradientUnits="userSpaceOnUse"
       gradientTransform="matrix(-1.1e-6,-26.071289,-26.071289,1.1e-6,322.49023,251.41016)"
       spreadMethod="pad"
       id="linearGradient182"><stop
         style="stop-opacity:1;stop-color:#e6342a"
         offset="0"
         id="stop174" /><stop
         style="stop-opacity:1;stop-color:#e6342a"
         offset="0.0104712"
         id="stop176" /><stop
         style="stop-opacity:1;stop-color:#f9b233"
         offset="0.989529"
         id="stop178" /><stop
         style="stop-opacity:1;stop-color:#f9b233"
         offset="1"
         id="stop180" /></linearGradient><clipPath
       clipPathUnits="userSpaceOnUse"
       id="clipPath192"><path
         d="m 360.689,251.421 c -2.012,-0.027 -3.922,-0.054 -3.965,-0.011 v 0 c -0.095,0.093 -4.877,-13.036 -4.877,-13.036 v 0 l -7.409,13.036 h -7.691 l -10.035,-26.071 h 8.629 l 5.346,13.881 8.064,-13.881 h 6.848 c 0,0 9.611,25.931 9.751,26.071 v 0 c 0.034,0.034 -0.447,0.046 -1.197,0.046 v 0 c -0.906,0 -2.205,-0.017 -3.464,-0.035"
         id="path190"
         inkscape:connector-curvature="0" /></clipPath><linearGradient
       x1="0"
       y1="0"
       x2="1"
       y2="0"
       gradientUnits="userSpaceOnUse"
       gradientTransform="matrix(-1.1e-6,-26.117188,-26.117188,1.1e-6,346.03223,251.45605)"
       spreadMethod="pad"
       id="linearGradient206"><stop
         style="stop-opacity:1;stop-color:#e6342a"
         offset="0"
         id="stop198" /><stop
         style="stop-opacity:1;stop-color:#e6342a"
         offset="0.0104712"
         id="stop200" /><stop
         style="stop-opacity:1;stop-color:#f9b233"
         offset="0.989529"
         id="stop202" /><stop
         style="stop-opacity:1;stop-color:#f9b233"
         offset="1"
         id="stop204" /></linearGradient><clipPath
       clipPathUnits="userSpaceOnUse"
       id="clipPath216"><path
         d="m 372.73,249.739 c -1.891,-1.032 -3.723,-2.258 -5.258,-3.774 v 0 c -3.106,-3.063 -5.965,-7.91 -4.909,-12.448 v 0 c 0.541,-2.327 2.196,-4.237 4.119,-5.588 v 0 c 1.501,-1.053 3.24,-1.746 5.034,-2.102 v 0 c 4.794,-0.949 9.897,-0.488 14.759,-0.488 v 0 l 6.176,16.891 c 0,0 -9.992,-0.182 -9.931,0 v 0 c 0.06,0.181 -5.994,-6.965 -5.994,-6.965 v 0 h 4.48 l -1.211,-2.725 c -11.445,-0.787 -8.237,6.238 -8.237,6.238 v 0 c 3.27,6.783 9.206,6.056 9.206,6.056 v 0 h 8.539 l 5.929,6.616 c -0.543,-0.027 -8.169,0.006 -8.169,0.006 v 0 c -1.35,0.099 -2.595,0.142 -3.742,0.142 v 0 c -7.551,0 -10.791,-1.859 -10.791,-1.859 m 22.702,1.711 c 0.038,0.002 0.042,0.004 0.006,0.006 v 0 z"
         id="path214"
         inkscape:connector-curvature="0" /></clipPath><linearGradient
       x1="0"
       y1="0"
       x2="1"
       y2="0"
       gradientUnits="userSpaceOnUse"
       gradientTransform="matrix(-1.2e-6,-26.370605,-26.370605,1.2e-6,378.90137,251.59766)"
       spreadMethod="pad"
       id="linearGradient230"><stop
         style="stop-opacity:1;stop-color:#e6342a"
         offset="0"
         id="stop222" /><stop
         style="stop-opacity:1;stop-color:#e6342a"
         offset="0.0104712"
         id="stop224" /><stop
         style="stop-opacity:1;stop-color:#f9b233"
         offset="0.989529"
         id="stop226" /><stop
         style="stop-opacity:1;stop-color:#f9b233"
         offset="1"
         id="stop228" /></linearGradient><clipPath
       clipPathUnits="userSpaceOnUse"
       id="clipPath240"><path
         d="m 413.146,249.066 c -8.706,-5.017 -13.081,-13.743 -9.766,-19.49 v 0 c 3.308,-5.75 13.056,-6.348 21.767,-1.331 v 0 c 8.703,5.016 13.075,13.744 9.762,19.493 v 0 c -1.802,3.131 -5.512,4.733 -9.925,4.733 v 0 c -3.69,0.001 -7.871,-1.12 -11.838,-3.405 m 0.202,-14.591 c -1.597,2.203 -0.335,5.842 2.815,8.126 v 0 c 3.154,2.285 7.006,2.35 8.602,0.146 v 0 c 1.597,-2.204 0.336,-5.843 -2.814,-8.127 v 0 c -1.614,-1.169 -3.411,-1.757 -4.995,-1.757 v 0 c -1.511,0 -2.828,0.535 -3.608,1.612"
         id="path238"
         inkscape:connector-curvature="0" /></clipPath><linearGradient
       x1="0"
       y1="0"
       x2="1"
       y2="0"
       gradientUnits="userSpaceOnUse"
       gradientTransform="matrix(-1.2e-6,-27.631348,-27.631348,1.2e-6,419.14453,252.47119)"
       spreadMethod="pad"
       id="linearGradient254"><stop
         style="stop-opacity:1;stop-color:#e6342a"
         offset="0"
         id="stop246" /><stop
         style="stop-opacity:1;stop-color:#e6342a"
         offset="0.0104712"
         id="stop248" /><stop
         style="stop-opacity:1;stop-color:#f9b233"
         offset="0.989529"
         id="stop250" /><stop
         style="stop-opacity:1;stop-color:#f9b233"
         offset="1"
         id="stop252" /></linearGradient><clipPath
       clipPathUnits="userSpaceOnUse"
       id="clipPath264"><path
         d="m 442.66,251.599 -9.989,-25.957 h 8.994 l 3.447,9.871 h 13.844 l 2.687,6.835 h -13.552 l 0.877,2.627 h 13.902 l 2.57,6.624 z"
         id="path262"
         inkscape:connector-curvature="0" /></clipPath><linearGradient
       x1="0"
       y1="0"
       x2="1"
       y2="0"
       gradientUnits="userSpaceOnUse"
       gradientTransform="matrix(-1.1e-6,-25.957031,-25.957031,1.1e-6,449.05566,251.59863)"
       spreadMethod="pad"
       id="linearGradient278"><stop
         style="stop-opacity:1;stop-color:#e6342a"
         offset="0"
         id="stop270" /><stop
         style="stop-opacity:1;stop-color:#e6342a"
         offset="0.0104712"
         id="stop272" /><stop
         style="stop-opacity:1;stop-color:#f9b233"
         offset="0.989529"
         id="stop274" /><stop
         style="stop-opacity:1;stop-color:#f9b233"
         offset="1"
         id="stop276" /></linearGradient><clipPath
       clipPathUnits="userSpaceOnUse"
       id="clipPath288"><path
         d="M 0,396.85 H 595.28 V 0 H 0 Z"
         id="path286"
         inkscape:connector-curvature="0" /></clipPath><clipPath
       clipPathUnits="userSpaceOnUse"
       id="clipPath332"><path
         d="m 191.189,251.41 -2.814,-6.94 7.784,-0.094 -7.316,-19.037 h 8.722 l 7.315,19.131 h 7.034 l 2.721,6.94 z"
         id="path330"
         inkscape:connector-curvature="0" /></clipPath><linearGradient
       x1="0"
       y1="0"
       x2="1"
       y2="0"
       gradientUnits="userSpaceOnUse"
       gradientTransform="matrix(-1.1e-6,-26.071289,-26.071289,1.1e-6,201.50488,251.41016)"
       spreadMethod="pad"
       id="linearGradient346"><stop
         style="stop-opacity:1;stop-color:#e6342a"
         offset="0"
         id="stop338" /><stop
         style="stop-opacity:1;stop-color:#e6342a"
         offset="0.0104712"
         id="stop340" /><stop
         style="stop-opacity:1;stop-color:#f9b233"
         offset="0.989529"
         id="stop342" /><stop
         style="stop-opacity:1;stop-color:#f9b233"
         offset="1"
         id="stop344" /></linearGradient><clipPath
       clipPathUnits="userSpaceOnUse"
       id="clipPath356"><path
         d="m 239.206,251.41 c -0.281,0 -3.844,-9.471 -3.844,-9.471 v 0 h -10.599 l 3.095,9.471 h -8.44 l -9.754,-26.071 h 8.536 l 3.749,9.66 h 10.973 l -3.562,-9.66 h 8.814 c 0,0 9.566,26.071 9.847,26.071 v 0 c 0.188,0 -3.667,0.001 -6.342,0.001 v 0 c -1.337,0 -2.38,0 -2.473,-0.001"
         id="path354"
         inkscape:connector-curvature="0" /></clipPath><linearGradient
       x1="0"
       y1="0"
       x2="1"
       y2="0"
       gradientUnits="userSpaceOnUse"
       gradientTransform="matrix(-1.1e-6,-26.071777,-26.071777,1.1e-6,228.84619,251.41064)"
       spreadMethod="pad"
       id="linearGradient370"><stop
         style="stop-opacity:1;stop-color:#e6342a"
         offset="0"
         id="stop362" /><stop
         style="stop-opacity:1;stop-color:#e6342a"
         offset="0.0104712"
         id="stop364" /><stop
         style="stop-opacity:1;stop-color:#f9b233"
         offset="0.989529"
         id="stop366" /><stop
         style="stop-opacity:1;stop-color:#f9b233"
         offset="1"
         id="stop368" /></linearGradient><clipPath
       clipPathUnits="userSpaceOnUse"
       id="clipPath380"><path
         d="m 252.526,251.41 -9.755,-26.071 h 23.165 l 2.439,6.847 h -14.35 l 1.031,2.907 h 14.35 l 2.625,6.751 h -14.347 l 1.031,2.627 h 14.255 l 3.001,6.939 z"
         id="path378"
         inkscape:connector-curvature="0" /></clipPath><linearGradient
       x1="0"
       y1="0"
       x2="1"
       y2="0"
       gradientUnits="userSpaceOnUse"
       gradientTransform="matrix(-1.1e-6,-26.071289,-26.071289,1.1e-6,259.37109,251.41016)"
       spreadMethod="pad"
       id="linearGradient394"><stop
         style="stop-opacity:1;stop-color:#e6342a"
         offset="0"
         id="stop386" /><stop
         style="stop-opacity:1;stop-color:#e6342a"
         offset="0.0104712"
         id="stop388" /><stop
         style="stop-opacity:1;stop-color:#f9b233"
         offset="0.989529"
         id="stop390" /><stop
         style="stop-opacity:1;stop-color:#f9b233"
         offset="1"
         id="stop392" /></linearGradient><clipPath
       clipPathUnits="userSpaceOnUse"
       id="clipPath404"><path
         d="m 309.733,251.41 -11.821,-10.502 h -1.026 l 3.751,10.502 h -8.628 l -9.847,-26.071 h 8.722 l 4.97,13.035 4.501,-13.035 h 8.816 l -4.596,14.068 13.504,12.003 z"
         id="path402"
         inkscape:connector-curvature="0" /></clipPath><linearGradient
       x1="0"
       y1="0"
       x2="1"
       y2="0"
       gradientUnits="userSpaceOnUse"
       gradientTransform="matrix(-1.1e-6,-26.071289,-26.071289,1.1e-6,300.12109,251.41016)"
       spreadMethod="pad"
       id="linearGradient418"><stop
         style="stop-opacity:1;stop-color:#e6342a"
         offset="0"
         id="stop410" /><stop
         style="stop-opacity:1;stop-color:#e6342a"
         offset="0.0104712"
         id="stop412" /><stop
         style="stop-opacity:1;stop-color:#f9b233"
         offset="0.989529"
         id="stop414" /><stop
         style="stop-opacity:1;stop-color:#f9b233"
         offset="1"
         id="stop416" /></linearGradient><clipPath
       clipPathUnits="userSpaceOnUse"
       id="clipPath428"><path
         d="m 323.051,251.41 -9.845,-26.071 h 9.002 l 9.566,26.071 z"
         id="path426"
         inkscape:connector-curvature="0" /></clipPath><linearGradient
       x1="0"
       y1="0"
       x2="1"
       y2="0"
       gradientUnits="userSpaceOnUse"
       gradientTransform="matrix(-1.1e-6,-26.071289,-26.071289,1.1e-6,322.49023,251.41016)"
       spreadMethod="pad"
       id="linearGradient442"><stop
         style="stop-opacity:1;stop-color:#e6342a"
         offset="0"
         id="stop434" /><stop
         style="stop-opacity:1;stop-color:#e6342a"
         offset="0.0104712"
         id="stop436" /><stop
         style="stop-opacity:1;stop-color:#f9b233"
         offset="0.989529"
         id="stop438" /><stop
         style="stop-opacity:1;stop-color:#f9b233"
         offset="1"
         id="stop440" /></linearGradient><clipPath
       clipPathUnits="userSpaceOnUse"
       id="clipPath452"><path
         d="m 360.689,251.421 c -2.012,-0.027 -3.922,-0.054 -3.965,-0.011 v 0 c -0.095,0.093 -4.877,-13.036 -4.877,-13.036 v 0 l -7.409,13.036 h -7.691 l -10.035,-26.071 h 8.629 l 5.346,13.881 8.064,-13.881 h 6.848 c 0,0 9.611,25.931 9.751,26.071 v 0 c 0.034,0.034 -0.447,0.046 -1.197,0.046 v 0 c -0.906,0 -2.205,-0.017 -3.464,-0.035"
         id="path450"
         inkscape:connector-curvature="0" /></clipPath><linearGradient
       x1="0"
       y1="0"
       x2="1"
       y2="0"
       gradientUnits="userSpaceOnUse"
       gradientTransform="matrix(-1.1e-6,-26.117188,-26.117188,1.1e-6,346.03223,251.45605)"
       spreadMethod="pad"
       id="linearGradient466"><stop
         style="stop-opacity:1;stop-color:#e6342a"
         offset="0"
         id="stop458" /><stop
         style="stop-opacity:1;stop-color:#e6342a"
         offset="0.0104712"
         id="stop460" /><stop
         style="stop-opacity:1;stop-color:#f9b233"
         offset="0.989529"
         id="stop462" /><stop
         style="stop-opacity:1;stop-color:#f9b233"
         offset="1"
         id="stop464" /></linearGradient><clipPath
       clipPathUnits="userSpaceOnUse"
       id="clipPath476"><path
         d="m 372.73,249.739 c -1.891,-1.032 -3.723,-2.258 -5.258,-3.774 v 0 c -3.106,-3.063 -5.965,-7.91 -4.909,-12.448 v 0 c 0.541,-2.327 2.196,-4.237 4.119,-5.588 v 0 c 1.501,-1.053 3.24,-1.746 5.034,-2.102 v 0 c 4.794,-0.949 9.897,-0.488 14.759,-0.488 v 0 l 6.176,16.891 c 0,0 -9.992,-0.182 -9.931,0 v 0 c 0.06,0.181 -5.994,-6.965 -5.994,-6.965 v 0 h 4.48 l -1.211,-2.725 c -11.445,-0.787 -8.237,6.238 -8.237,6.238 v 0 c 3.27,6.783 9.206,6.056 9.206,6.056 v 0 h 8.539 l 5.929,6.616 c -0.543,-0.027 -8.169,0.006 -8.169,0.006 v 0 c -1.35,0.099 -2.595,0.142 -3.742,0.142 v 0 c -7.551,0 -10.791,-1.859 -10.791,-1.859 m 22.702,1.711 c 0.038,0.002 0.042,0.004 0.006,0.006 v 0 z"
         id="path474"
         inkscape:connector-curvature="0" /></clipPath><linearGradient
       x1="0"
       y1="0"
       x2="1"
       y2="0"
       gradientUnits="userSpaceOnUse"
       gradientTransform="matrix(-1.2e-6,-26.370605,-26.370605,1.2e-6,378.90137,251.59766)"
       spreadMethod="pad"
       id="linearGradient490"><stop
         style="stop-opacity:1;stop-color:#e6342a"
         offset="0"
         id="stop482" /><stop
         style="stop-opacity:1;stop-color:#e6342a"
         offset="0.0104712"
         id="stop484" /><stop
         style="stop-opacity:1;stop-color:#f9b233"
         offset="0.989529"
         id="stop486" /><stop
         style="stop-opacity:1;stop-color:#f9b233"
         offset="1"
         id="stop488" /></linearGradient><clipPath
       clipPathUnits="userSpaceOnUse"
       id="clipPath500"><path
         d="m 413.146,249.066 c -8.706,-5.017 -13.081,-13.743 -9.766,-19.49 v 0 c 3.308,-5.75 13.056,-6.348 21.767,-1.331 v 0 c 8.703,5.016 13.075,13.744 9.762,19.493 v 0 c -1.802,3.131 -5.512,4.733 -9.925,4.733 v 0 c -3.69,0.001 -7.871,-1.12 -11.838,-3.405 m 0.202,-14.591 c -1.597,2.203 -0.335,5.842 2.815,8.126 v 0 c 3.154,2.285 7.006,2.35 8.602,0.146 v 0 c 1.597,-2.204 0.336,-5.843 -2.814,-8.127 v 0 c -1.614,-1.169 -3.411,-1.757 -4.995,-1.757 v 0 c -1.511,0 -2.828,0.535 -3.608,1.612"
         id="path498"
         inkscape:connector-curvature="0" /></clipPath><linearGradient
       x1="0"
       y1="0"
       x2="1"
       y2="0"
       gradientUnits="userSpaceOnUse"
       gradientTransform="matrix(-1.2e-6,-27.631348,-27.631348,1.2e-6,419.14453,252.47119)"
       spreadMethod="pad"
       id="linearGradient514"><stop
         style="stop-opacity:1;stop-color:#e6342a"
         offset="0"
         id="stop506" /><stop
         style="stop-opacity:1;stop-color:#e6342a"
         offset="0.0104712"
         id="stop508" /><stop
         style="stop-opacity:1;stop-color:#f9b233"
         offset="0.989529"
         id="stop510" /><stop
         style="stop-opacity:1;stop-color:#f9b233"
         offset="1"
         id="stop512" /></linearGradient><clipPath
       clipPathUnits="userSpaceOnUse"
       id="clipPath524"><path
         d="m 442.66,251.599 -9.989,-25.957 h 8.994 l 3.447,9.871 h 13.844 l 2.687,6.835 h -13.552 l 0.877,2.627 h 13.902 l 2.57,6.624 z"
         id="path522"
         inkscape:connector-curvature="0" /></clipPath><linearGradient
       x1="0"
       y1="0"
       x2="1"
       y2="0"
       gradientUnits="userSpaceOnUse"
       gradientTransform="matrix(-1.1e-6,-25.957031,-25.957031,1.1e-6,449.05566,251.59863)"
       spreadMethod="pad"
       id="linearGradient538"><stop
         style="stop-opacity:1;stop-color:#e6342a"
         offset="0"
         id="stop530" /><stop
         style="stop-opacity:1;stop-color:#e6342a"
         offset="0.0104712"
         id="stop532" /><stop
         style="stop-opacity:1;stop-color:#f9b233"
         offset="0.989529"
         id="stop534" /><stop
         style="stop-opacity:1;stop-color:#f9b233"
         offset="1"
         id="stop536" /></linearGradient><clipPath
       clipPathUnits="userSpaceOnUse"
       id="clipPath548"><path
         d="M 0,396.85 H 595.28 V 0 H 0 Z"
         id="path546"
         inkscape:connector-curvature="0" /></clipPath><clipPath
       clipPathUnits="userSpaceOnUse"
       id="clipPath588"><path
         d="m 148.96,216.082 -22.375,-59.125 h 16.25 l 9.125,24.25 h 21 l 5.25,14.375 h -20.625 l 2.625,6.625 h 20.375 l 4.875,13.875 z"
         id="path586"
         inkscape:connector-curvature="0" /></clipPath><linearGradient
       x1="0"
       y1="0"
       x2="1"
       y2="0"
       gradientUnits="userSpaceOnUse"
       gradientTransform="matrix(-2.6e-6,-59.125488,-59.125488,2.6e-6,156.02246,216.08203)"
       spreadMethod="pad"
       id="linearGradient602"><stop
         style="stop-opacity:1;stop-color:#ea5b0b"
         offset="0"
         id="stop594" /><stop
         style="stop-opacity:1;stop-color:#fcea12"
         offset="0.48564172"
         id="stop596" /><stop
         style="stop-opacity:1;stop-color:#fcea12"
         offset="0.989529"
         id="stop598" /><stop
         style="stop-opacity:1;stop-color:#fcea12"
         offset="1"
         id="stop600" /></linearGradient><clipPath
       clipPathUnits="userSpaceOnUse"
       id="clipPath612"><path
         d="m 194.085,216.082 -23.25,-59.125 h 16.5 l 22.875,59.125 z"
         id="path610"
         inkscape:connector-curvature="0" /></clipPath><linearGradient
       x1="0"
       y1="0"
       x2="1"
       y2="0"
       gradientUnits="userSpaceOnUse"
       gradientTransform="matrix(-2.6e-6,-59.125488,-59.125488,2.6e-6,190.52246,216.08203)"
       spreadMethod="pad"
       id="linearGradient626"><stop
         style="stop-opacity:1;stop-color:#ea5b0b"
         offset="0"
         id="stop618" /><stop
         style="stop-opacity:1;stop-color:#fcea12"
         offset="0.48564172"
         id="stop620" /><stop
         style="stop-opacity:1;stop-color:#fcea12"
         offset="0.989529"
         id="stop622" /><stop
         style="stop-opacity:1;stop-color:#fcea12"
         offset="1"
         id="stop624" /></linearGradient><clipPath
       clipPathUnits="userSpaceOnUse"
       id="clipPath636"><path
         d="m 241.085,216.082 c -4.824,-0.195 -10.177,-1.072 -14.635,-2.97 v 0 c -6.127,-2.608 -12.083,-7.142 -15.815,-12.678 v 0 c -3.477,-5.157 -6.548,-10.403 -7.111,-16.805 v 0 c -0.247,-2.816 -0.388,-5.62 0.003,-8.43 v 0 c 0.651,-4.683 2.12,-9.931 5.647,-13.273 v 0 c 2.449,-2.317 6.604,-4.969 10.136,-4.969 v 0 h 21.326 l 13.074,34.375 -19,0.125 -11.75,-14.5 h 8.75 l -2.5,-5.75 c -6.924,-0.537 -10.308,5.512 -9.954,11.716 v 0 c 0.169,2.97 1.818,6.758 3.329,9.282 v 0 c 2.778,4.644 7.625,7.383 12.726,8.785 v 0 c 2.477,0.681 5.029,1.039 7.594,1.151 v 0 c 1.278,0.054 2.557,0.047 3.835,0.007 v 0 c 0.497,-0.015 3.6,-0.496 3.845,-0.191 v 0 c 0.007,0.01 11.375,14.125 11.375,14.125 v 0 z"
         id="path634"
         inkscape:connector-curvature="0" /></clipPath><linearGradient
       x1="0"
       y1="0"
       x2="1"
       y2="0"
       gradientUnits="userSpaceOnUse"
       gradientTransform="matrix(-2.6e-6,-59.125488,-59.125488,2.6e-6,232.62158,216.08203)"
       spreadMethod="pad"
       id="linearGradient650"><stop
         style="stop-opacity:1;stop-color:#ea5b0b"
         offset="0"
         id="stop642" /><stop
         style="stop-opacity:1;stop-color:#fcea12"
         offset="0.48564172"
         id="stop644" /><stop
         style="stop-opacity:1;stop-color:#fcea12"
         offset="0.989529"
         id="stop646" /><stop
         style="stop-opacity:1;stop-color:#fcea12"
         offset="1"
         id="stop648" /></linearGradient><clipPath
       clipPathUnits="userSpaceOnUse"
       id="clipPath660"><path
         d="m 301.084,216.082 -8.499,-20.625 h -14.75 l 8.125,20.625 h -16.25 l -23.25,-59.125 h 16.75 l 9.5,24.5 14.25,-0.125 -8.875,-24.375 h 16.5 l 22.499,59.125 z"
         id="path658"
         inkscape:connector-curvature="0" /></clipPath><linearGradient
       x1="0"
       y1="0"
       x2="1"
       y2="0"
       gradientUnits="userSpaceOnUse"
       gradientTransform="matrix(-2.6e-6,-59.125488,-59.125488,2.6e-6,281.77197,216.08203)"
       spreadMethod="pad"
       id="linearGradient674"><stop
         style="stop-opacity:1;stop-color:#ea5b0b"
         offset="0"
         id="stop666" /><stop
         style="stop-opacity:1;stop-color:#fcea12"
         offset="0.48564172"
         id="stop668" /><stop
         style="stop-opacity:1;stop-color:#fcea12"
         offset="0.989529"
         id="stop670" /><stop
         style="stop-opacity:1;stop-color:#fcea12"
         offset="1"
         id="stop672" /></linearGradient><clipPath
       clipPathUnits="userSpaceOnUse"
       id="clipPath684"><path
         d="m 322.959,216.082 -5.25,-13.625 h 12.375 l -17.125,-45.5 h 16.375 l 17.5,45.5 h 11.5 l 5.375,13.625 z"
         id="path682"
         inkscape:connector-curvature="0" /></clipPath><linearGradient
       x1="0"
       y1="0"
       x2="1"
       y2="0"
       gradientUnits="userSpaceOnUse"
       gradientTransform="matrix(-2.6e-6,-59.125488,-59.125488,2.6e-6,338.33398,216.08203)"
       spreadMethod="pad"
       id="linearGradient698"><stop
         style="stop-opacity:1;stop-color:#ea5b0b"
         offset="0"
         id="stop690" /><stop
         style="stop-opacity:1;stop-color:#fcea12"
         offset="0.48564172"
         id="stop692" /><stop
         style="stop-opacity:1;stop-color:#fcea12"
         offset="0.989529"
         id="stop694" /><stop
         style="stop-opacity:1;stop-color:#fcea12"
         offset="1"
         id="stop696" /></linearGradient><clipPath
       clipPathUnits="userSpaceOnUse"
       id="clipPath708"><path
         d="m 370.604,216.082 -22.299,-59.125 h 40.726 l 4.928,14.469 h -24.293 l 4.108,9.975 h 22.181 l 5.047,14.084 h -21.83 l 2.699,7.16 h 22.533 l 5.047,13.437 z"
         id="path706"
         inkscape:connector-curvature="0" /></clipPath><linearGradient
       x1="0"
       y1="0"
       x2="1"
       y2="0"
       gradientUnits="userSpaceOnUse"
       gradientTransform="matrix(-2.6e-6,-59.125488,-59.125488,2.6e-6,378.87793,216.08203)"
       spreadMethod="pad"
       id="linearGradient722"><stop
         style="stop-opacity:1;stop-color:#ea5b0b"
         offset="0"
         id="stop714" /><stop
         style="stop-opacity:1;stop-color:#fcea12"
         offset="0.48564172"
         id="stop716" /><stop
         style="stop-opacity:1;stop-color:#fcea12"
         offset="0.989529"
         id="stop718" /><stop
         style="stop-opacity:1;stop-color:#fcea12"
         offset="1"
         id="stop720" /></linearGradient><clipPath
       clipPathUnits="userSpaceOnUse"
       id="clipPath732"><path
         d="m 417.084,216.082 -22.25,-59.125 h 16.25 l 9.375,24.125 2.5,-24.125 h 16.125 l -1.875,25.875 c 12.375,9.875 13.375,21 13.375,21 v 0 c 1.25,11.5 -5.875,12.25 -5.875,12.25 v 0 z m 7.084,-24.875 c 0,0.001 5.916,15.166 5.916,15.166 v 0 h 3.918 c 0.594,0 1.256,-1.117 1.498,-1.518 v 0 c 0.699,-1.16 0.871,-2.404 0.611,-3.725 v 0 c -0.588,-2.97 -2.081,-5.862 -4.378,-7.862 v 0 c -0.923,-0.804 -1.975,-1.438 -3.155,-1.78 v 0 c -0.416,-0.122 -3.917,-0.284 -4.363,-0.284 v 0 c -0.031,0 -0.047,0.001 -0.047,0.003"
         id="path730"
         inkscape:connector-curvature="0" /></clipPath><linearGradient
       x1="0"
       y1="0"
       x2="1"
       y2="0"
       gradientUnits="userSpaceOnUse"
       gradientTransform="matrix(-2.6e-6,-59.125488,-59.125488,2.6e-6,422.7832,216.08203)"
       spreadMethod="pad"
       id="linearGradient746"><stop
         style="stop-opacity:1;stop-color:#ea5b0b"
         offset="0"
         id="stop738" /><stop
         style="stop-opacity:1;stop-color:#fcea12"
         offset="0.48564172"
         id="stop740" /><stop
         style="stop-opacity:1;stop-color:#fcea12"
         offset="0.989529"
         id="stop742" /><stop
         style="stop-opacity:1;stop-color:#fcea12"
         offset="1"
         id="stop744" /></linearGradient><clipPath
       clipPathUnits="userSpaceOnUse"
       id="clipPath756"><path
         d="m 474.496,215.932 c -1.789,-0.625 -3.612,-1.411 -5.261,-2.348 v 0 c -3.093,-1.756 -6.069,-3.848 -8.342,-6.616 v 0 c -0.995,-1.209 -1.926,-2.552 -2.678,-3.928 v 0 c -1.946,-3.556 -3.424,-7.574 -2.031,-11.582 v 0 c 1.392,-4.004 4.962,-7.476 8.525,-9.626 v 0 c 0,0 7.668,-4.334 6.625,-7.125 v 0 c 0,0 -4.748,-9.792 -23.5,1.125 v 0 c 0,0 -5.998,-14.998 -6,-15 v 0 c -0.24,-0.602 7.772,-3.207 8.174,-3.31 v 0 c 6.6,-1.7 13.812,-1.44 20.23,0.884 v 0 c 4.994,1.806 9.631,4.746 13.141,8.751 v 0 c 1,1.141 1.888,2.381 2.668,3.682 v 0 c 2.523,4.205 4.381,9.526 1.883,14.184 v 0 c -2.157,4.02 -6.723,6.056 -10.379,8.452 v 0 c -2.227,1.46 -7.9,3.987 -5.443,7.533 v 0 c 0.562,0.812 1.617,1.536 2.529,1.896 v 0 c 1.023,0.404 2.246,0.674 3.351,0.687 v 0 c 1.848,0.02 3.826,-0.386 5.596,-0.884 v 0 c 0,0 5.687,-2.562 8.75,-7.5 v 0 c 0,0 5.998,16.744 6,16.75 v 0 c 0.25,0.702 -3.582,2.373 -4.072,2.607 v 0 c -3.717,1.774 -7.695,2.736 -11.694,2.736 v 0 c -2.706,10e-4 -5.42,-0.44 -8.072,-1.368"
         id="path754"
         inkscape:connector-curvature="0" /></clipPath><linearGradient
       x1="0"
       y1="0"
       x2="1"
       y2="0"
       gradientUnits="userSpaceOnUse"
       gradientTransform="matrix(-2.7e-6,-60.876953,-60.876953,2.7e-6,470.08789,217.30029)"
       spreadMethod="pad"
       id="linearGradient770"><stop
         style="stop-opacity:1;stop-color:#ea5b0b"
         offset="0"
         id="stop762" /><stop
         style="stop-opacity:1;stop-color:#fcea12"
         offset="0.48564172"
         id="stop764" /><stop
         style="stop-opacity:1;stop-color:#fcea12"
         offset="0.989529"
         id="stop766" /><stop
         style="stop-opacity:1;stop-color:#fcea12"
         offset="1"
         id="stop768" /></linearGradient></defs><sodipodi:namedview
     pagecolor="#ffffff"
     bordercolor="#666666"
     borderopacity="1"
     objecttolerance="10"
     gridtolerance="10"
     guidetolerance="10"
     inkscape:pageopacity="0"
     inkscape:pageshadow="2"
     inkscape:window-width="1366"
     inkscape:window-height="743"
     id="namedview4"
     showgrid="false"
     inkscape:pagecheckerboard="true"
     inkscape:zoom="1.2224588"
     inkscape:cx="309.2076"
     inkscape:cy="138.52606"
     inkscape:window-x="0"
     inkscape:window-y="0"
     inkscape:window-maximized="1"
     inkscape:current-layer="g10" /><g
     id="g10"
     inkscape:groupmode="layer"
     inkscape:label="the-king-of-fighters-seeklogo.com"
     transform="matrix(1.3333333,0,0,-1.3333333,0,160.00003)"><path
       id="path247"
       style="fill:#abceea;stroke-width:0.52610767"
       d="m 356.93555,103.36819 -20.13281,-0.0659 c -11.07301,-0.0359 -20.30869,-0.24181 -20.52392,-0.45703 -0.21522,-0.21523 -0.5022,-19.323516 -0.63721,-42.462896 -0.135,-23.139388 -0.39031,-44.905056 -0.56836,-48.367678 -0.29274,-5.693251 -0.23325,-6.361793 0.62988,-6.996091 0.76491,-0.56214 4.87265,-0.669285 20.68359,-0.539062 19.06303,0.156997 19.81341,0.202117 22.23048,1.324215 3.08544,1.432402 6.73452,5.110058 8.36425,8.43018 1.10288,2.24688 1.21678,3.136178 1.11768,8.8125 -0.0606,3.472305 -0.23758,20.255114 -0.39258,37.296385 -0.19484,21.42133 -0.47265,31.621019 -0.89941,33.045411 -0.77885,2.599576 -3.85171,6.115976 -7.24805,8.295406 z m -99.58447,-0.0132 c -7.03295,0.002 -13.49358,-0.17231 -14.35693,-0.38819 -2.18195,-0.54557 -7.66717,-3.97428 -8.36133,-5.22656 -0.31571,-0.56954 -1.22428,-1.81418 -2.02002,-2.76562 -0.79574,-0.95144 -1.44866,-2.136015 -1.45166,-2.632327 -0.18812,-34.16105 -0.45606,-53.465146 -0.76611,-55.233397 -0.2607,-1.486785 -0.18578,-2.496165 0.22265,-2.988285 0.45476,-0.548002 0.47123,-1.27161 0.0601,-2.75244 -0.8208,-2.955877 -0.68907,-12.08409 0.21827,-15.074708 1.51144,-4.981725 7.48982,-10.165192 13.15869,-11.408205 1.15744,-0.253785 7.5508,-0.399495 14.20606,-0.325192 l 12.0996,0.134767 3.17286,1.62744 c 3.96684,2.035268 7.05827,5.001173 8.70703,8.35107 1.06611,2.166083 1.30204,3.53568 1.44873,8.436038 0.0963,3.217718 -0.0764,6.756698 -0.38232,7.864748 -0.45135,1.63461 -0.404,2.183055 0.25048,2.90625 0.70721,0.781387 0.78693,4.19772 0.64454,27.69873 -0.11295,18.638739 -0.34059,27.031862 -0.74708,27.544922 -0.32155,0.40586 -0.7138,1.581307 -0.87158,2.611817 -0.38356,2.505112 -3.20589,6.585242 -5.57226,8.056642 -5.71926,3.55667 -5.73141,3.5585 -19.65967,3.5625 z m -211.434087,-0.006 -1.416504,-2.06543 c -2.045854,-2.98103 -5.135148,-5.51686 -6.269531,-5.14746 -0.515143,0.16776 -2.538249,1.84213 -4.495605,3.72217 l -3.558106,3.41893 H 17.557617 4.9394533 V 54.332548 5.38772 L 6.123047,4.91165 c 1.676834,-0.674018 21.792356,-0.672885 23.052247,0.0015 0.925399,0.495262 1.016601,1.160002 1.016601,7.334475 0,3.95904 -0.219115,6.926617 -0.525878,7.11621 -0.334264,0.206587 -0.525879,6.931575 -0.525879,18.443847 0,16.202801 0.08779,18.120118 0.834961,18.120118 0.459555,0 2.410828,-1.420578 4.334472,-3.156738 1.923639,-1.73615 3.8554,-3.154808 4.293457,-3.153809 0.438054,0.0013 2.254563,1.302897 4.03711,2.893067 1.782543,1.59018 3.741494,2.891602 4.353516,2.891602 h 1.113281 L 47.849122,37.382878 C 47.707609,27.472325 47.452063,16.22477 47.280763,12.389712 L 46.968751,5.41706 48.445314,4.856022 C 50.635284,4.02317 70.966385,4.42013 71.857912,5.31305 c 0.54239,0.543255 0.718045,10.394782 0.873047,48.842289 0.118985,29.51429 0.0032,48.352801 -0.298828,48.654791 -0.278453,0.27846 -6.150938,0.50252 -13.50293,0.51562 z m 159.770517,-0.0454 c -2.80111,0.0132 -6.28777,0.0102 -10.62598,-0.003 -11.51169,-0.0349 -20.97766,-0.11282 -21.03516,-0.17432 -0.0575,-0.0615 -0.18242,-22.006695 -0.27832,-48.766115 l -0.17432,-48.653318 1.30665,-0.687015 c 1.4518,-0.763238 15.50779,-0.731205 16.69629,0.0381 0.8194,0.530332 0.9403,13.805107 0.13037,14.305665 -0.3208,0.198247 -0.52588,4.21323 -0.52588,10.289063 0,9.130338 0.0778,9.967634 0.92139,9.990234 1.98426,0.0531 16.21686,0.07526 16.86474,0.02637 0.69419,-0.05237 0.62108,-10.866404 -0.1875,-27.508304 -0.39436,-8.116575 -0.62766,-7.935878 10.01074,-7.699215 6.1052,0.135817 7.78854,0.332212 8.20752,0.959475 0.32952,0.493327 0.3984,3.254152 0.18311,7.365232 -0.18941,3.61698 -0.42266,13.960906 -0.51855,22.986331 -0.18963,17.851931 -0.43498,19.72005 -3.01612,22.979002 l -1.62598,2.052246 0.95801,1.639159 c 3.82743,6.553742 3.52632,5.049945 3.54932,17.729005 0.0209,11.53409 0.0196,11.5451 -1.42823,14.562015 -1.77082,3.69004 -3.08763,5.19695 -5.50048,6.29736 -1.01711,0.46385 -2.24411,1.17828 -2.72754,1.58789 -0.54655,0.46311 -2.78077,0.64459 -11.18408,0.68408 z M 75.988772,103.27737 75.736817,61.057643 C 75.598615,37.836563 75.34057,15.999279 75.164065,12.530297 74.856844,6.492264 74.893151,6.182612 75.988772,5.295437 77.03098,4.451499 78.717062,4.369652 94.861818,4.369652 c 13.353582,0 17.950842,0.162375 18.626952,0.657712 0.80953,0.5931 0.90234,2.222228 0.95655,16.608406 0.0436,11.59878 -0.10805,16.122169 -0.55811,16.573239 -0.41224,0.413152 -4.0816,0.716828 -10.98487,0.909668 l -10.36523,0.29004 9.46875,0.165527 c 5.20847,0.0906 9.84896,0.128961 10.31104,0.08496 1.85068,-0.17624 2.03389,1.103736 2.07129,14.469727 0.0197,7.210579 0.0237,13.760412 0.009,14.556152 l -0.0278,1.447266 h -10.78418 c -6.839405,0 -10.78565,0.192237 -10.78565,0.525879 0,0.33209 3.648758,0.525879 9.89502,0.525879 7.09943,0 10.14236,0.185895 10.76954,0.657714 0.77284,0.581402 0.87992,2.213598 0.91552,14.07422 0.0225,7.378662 0.0283,14.303089 0.0146,15.388189 l -0.0249,1.97314 H 95.178228 Z m 223.602548,0 c -6.63818,0 -12.19546,-0.20332 -12.34864,-0.45117 -0.15318,-0.24784 -0.30322,-22.161689 -0.33251,-48.697268 -0.0416,-37.63844 0.091,-48.419015 0.59911,-49.031248 0.9624,-1.1596349 23.39275,-0.859605 24.20802,0.32373 0.35349,0.51309 0.43908,4.193813 0.24462,10.521968 -0.16449,5.353155 -0.29929,27.192966 -0.30029,48.533206 l -0.002,38.800782 z M 117.78955,103.0137 117.6504,87.5303 c -0.10854,-12.03722 0.008,-15.578229 0.52587,-15.906739 0.36615,-0.23242 3.59649,-0.426664 7.1792,-0.430664 l 6.51416,-0.0088 -0.20068,-32.733399 -0.20068,-32.734867 1.31542,-0.665033 c 0.92696,-0.46923 4.38268,-0.668332 11.70557,-0.67383 13.378,-0.01 12.74722,-0.4532997 12.21387,8.589841 -0.2075,3.51825 -0.40649,17.996685 -0.44238,32.175295 l -0.0659,25.779786 6.62988,0.262207 c 8.87431,0.35211 8.5899,0.06665 8.11084,8.138672 -0.20661,3.48149 -0.53074,10.235823 -0.71923,15.010251 l -0.34277,8.68067 H 143.83155 Z M 333.49366,71.274931 h 8.15479 8.15478 l 0.13916,-15.575684 0.13916,-15.574219 -1.38135,-0.525879 c -2.07697,-0.78966 -14.22991,-0.578593 -14.92529,0.259277 -0.37655,0.453771 -0.51411,5.7324 -0.42041,16.045899 z m -84.44092,-0.06298 7.97022,-0.14502 7.96875,-0.145019 -0.10987,-15.492188 c -0.0607,-8.52048 -0.2283,-15.681423 -0.37207,-15.914063 -0.27946,-0.45214 -13.69599,-0.519916 -14.79931,-0.07471 -0.50556,0.204 -0.65772,3.907856 -0.65772,16.018066 z M 390.01905,52.771027 c -0.27228,0 -0.49512,-0.236518 -0.49512,-0.525879 0,-0.289359 0.3692,-0.525879 0.82032,-0.525879 0.45116,0 0.67395,0.23652 0.49512,0.525879 -0.17884,0.289361 -0.54803,0.525879 -0.82032,0.525879 z M 375.31935,3.8423176 c -0.28936,0 -0.52588,-0.23652 -0.52588,-0.5258775 0,-0.2893801 0.23652,-0.5258851 0.52588,-0.5258851 0.28935,0 0.52587,0.236505 0.52587,0.5258851 0,0.2893575 -0.23652,0.5258775 -0.52587,0.5258775 z M 1.7827149,-6.6796608 c -0.289359,0 -0.5258788,-0.3540449 -0.525879,-0.7880849 0,-0.078383 0.014952,-0.149565 0.029297,-0.22119 0.3312465,-0.00375 0.6606563,-0.00825 0.9916992,-0.0132 0.016028,0.075352 0.030762,0.151335 0.030762,0.234375 0,0.43404 -0.2365199,0.7880849 -0.5258789,0.7880849 z"
       inkscape:connector-curvature="0" /><path
       inkscape:connector-curvature="0"
       id="path245"
       d="M 8.57698,4.020492 C 7.39449,4.247307 7.37985,4.343317 7.52476,10.919768 l 0.14696,6.669261 h 11.837423 11.837422 l 0.146758,-6.64253 C 31.637498,4.420923 31.618968,4.298314 30.441108,3.98276 29.108451,3.625732 10.46728,3.657899 8.57698,4.02048 Z m 41.840988,0.194933 c -0.795438,0.463301 -0.920689,1.390187 -0.920689,6.813379 0,6.072781 0.03856,6.286581 1.183742,6.567675 0.651059,0.159805 6.037086,0.223501 11.96895,0.141549 L 73.435177,17.589029 73.58295,11.137366 73.730729,4.685702 72.364959,4.166439 C 70.551787,3.47707 51.613069,3.519343 50.417968,4.215419 Z m 27.789758,0.258493 c -1.061969,1.061964 -1.19771,11.092527 -0.169107,12.496109 0.601573,0.82088 2.227377,0.885513 19.071403,0.758189 l 18.413758,-0.139187 0.14676,-6.64253 C 115.81472,4.420923 115.79619,4.298314 114.61833,3.98276 113.95889,3.806093 105.68275,3.658309 96.226913,3.654358 81.292506,3.648058 78.925884,3.75576 78.207726,4.473918 Z M 135.25282,4.030651 c -0.43404,0.165224 -0.9631,0.560841 -1.17569,0.879152 -0.66705,0.998789 -0.46988,11.612369 0.2287,12.310951 0.89287,0.892873 22.81707,0.897245 23.36872,0.0047 0.21301,-0.344669 0.48444,-3.148034 0.60317,-6.229699 0.30004,-7.787819 0.99791,-7.358678 -11.88269,-7.307004 -5.69417,0.02277 -10.70817,0.176641 -11.14221,0.341865 z m 42.08861,-0.02499 c -1.38529,0.571164 -1.56204,1.367422 -1.57026,7.074112 -0.006,3.924752 0.19371,5.758695 0.66891,6.153076 0.7578,0.628915 15.66852,0.984116 16.62023,0.395928 0.86618,-0.535325 0.80455,-12.728744 -0.0672,-13.292936 -0.78459,-0.507799 -14.51823,-0.797516 -15.65171,-0.33018 z m 35.24922,0.02499 c -0.43404,0.165224 -0.9631,0.560841 -1.17569,0.879152 -0.6774,1.014283 -0.46407,11.081532 0.255,12.03334 0.55178,0.730374 1.8694,0.885449 8.18617,0.96344 5.22088,0.06446 7.72046,-0.09854 8.15467,-0.531779 0.38787,-0.386995 0.69338,-2.916026 0.80284,-6.645919 l 0.1767,-6.021186 -1.39469,-0.530264 C 226.14276,3.625054 213.969,3.505964 212.59065,4.030651 Z m 33.6709,0.07952 c -5.49151,1.212642 -11.79678,6.676112 -13.02117,11.282731 -0.3617,1.360857 -0.65763,4.838365 -0.65763,7.727806 0,6.079586 0.45627,6.528296 2.89359,2.845606 1.9875,-3.003033 6.80263,-6.278232 10.39581,-7.071108 1.78644,-0.394196 6.92375,-0.545963 14.59429,-0.43115 11.60071,0.173647 11.8984,0.205755 14.88649,1.605838 1.79523,0.841167 4.32791,2.707503 6.15897,4.538557 1.71044,1.710445 3.23854,2.981263 3.39575,2.824053 0.66575,-0.665743 0.24836,-10.029107 -0.55173,-12.377242 -1.14127,-3.349459 -4.73358,-7.182648 -8.73095,-9.316393 L 272.30386,3.966107 260.2034,3.834828 c -6.65526,-0.0722 -12.9291,0.05172 -13.94185,0.275343 z m 43.45127,-0.01357 c -0.44705,0.723345 -0.60095,13.114238 -0.16826,13.54693 0.21668,0.216677 5.51635,0.36949 11.77704,0.339587 8.82104,-0.04214 11.4824,-0.211022 11.82435,-0.75034 0.2427,-0.382781 0.44489,-3.365243 0.44932,-6.627694 0.008,-5.886377 -0.002,-5.935657 -1.34146,-6.444819 -1.65826,-0.630472 -22.15491,-0.688359 -22.54099,-0.06366 z m 28.49395,0.102512 c -0.78689,0.47226 -0.91826,1.370694 -0.90396,6.18208 0.0111,3.754441 0.24227,5.926251 0.69385,6.52041 0.61104,0.803961 2.60073,0.906631 20.39161,1.052216 l 19.7145,0.16132 3.08533,1.841377 c 1.86091,1.110618 4.0215,3.036246 5.44427,4.852222 1.29741,1.655961 2.56268,2.884926 2.8117,2.731016 0.75765,-0.46825 0.50919,-9.30673 -0.34223,-12.173743 C 367.82173,11.0554 365.3166,7.918447 361.44803,5.781792 L 358.05942,3.910232 338.59344,3.77839 C 325.69877,3.69105 318.81665,3.83308 318.20677,4.199113 Z M 8.78441,20.251676 c -0.42008,1.09472 -0.42415,78.798804 -0.004,79.893214 0.27758,0.72335 1.80721,0.8322 11.694909,0.8322 h 11.375563 l 4.351379,-4.32878 4.351378,-4.328766 4.351379,4.328766 4.351378,4.32878 h 11.375563 c 9.887699,0 11.41733,-0.10885 11.694905,-0.8322 0.175641,-0.4577 0.319342,-18.539956 0.319342,-40.182806 0,-32.80998 -0.120642,-39.450748 -0.725808,-39.952991 -0.50279,-0.417277 -3.77639,-0.558316 -10.65368,-0.459003 l -9.927872,0.14337 -0.263054,24.552254 c -0.144679,13.50373 -0.435185,24.72412 -0.645565,24.93419 -0.21038,0.21008 -2.375792,-1.42768 -4.812028,-3.63947 -2.436236,-2.21177 -4.749963,-4.01818 -5.141619,-4.01423 -0.391655,0.004 -2.60609,1.7686 -4.920963,3.92144 -2.314874,2.15284 -4.502477,3.92522 -4.861346,3.93862 -0.50852,0.019 -0.68264,-5.46031 -0.789161,-24.83422 L 29.768432,19.69346 19.438282,19.551011 C 10.36336,19.425876 9.06882,19.511031 8.7846,20.251676 Z m 70.416944,-0.163635 c -0.138066,0.361699 -0.189825,18.650513 -0.115012,40.641813 l 0.13602,39.984176 17.325982,0.13884 c 13.511026,0.10827 17.418916,-0.008 17.748076,-0.52611 0.72718,-1.14557 0.53167,-14.484196 -0.21943,-14.970316 -0.3617,-0.2341 -5.03748,-0.54401 -10.39063,-0.68869 l -9.732984,-0.26305 v -8.41773 -8.41772 l 9.693814,-0.14375 c 6.06265,-0.0899 9.95483,-0.36037 10.39062,-0.72205 0.99512,-0.82588 0.99512,-14.27796 0,-15.10384 -0.43579,-0.36168 -4.32797,-0.63215 -10.39062,-0.72205 l -9.693814,-0.14375 v -7.36551 -7.36551 l 9.693814,-0.14375 c 6.06265,-0.0899 9.95483,-0.36037 10.39062,-0.72205 0.51191,-0.42485 0.69681,-2.36466 0.69681,-7.31026 0,-3.702569 -0.1437,-7.106433 -0.31934,-7.564136 -0.28225,-0.735535 -2.33125,-0.832192 -17.64111,-0.832192 -13.372799,0 -17.379008,0.149925 -17.572816,0.657635 z m 56.412996,-0.31769 c -0.19884,0.198842 -0.36153,14.850143 -0.36153,32.558443 v 32.1969 l -6.6018,0.25433 c -3.631,0.13987 -6.83405,0.48655 -7.11789,0.77039 -0.30271,0.30271 -0.45532,3.54408 -0.36912,7.839846 l 0.14696,7.32377 h 24.72706 24.72706 l 0.14522,-7.69514 c 0.17153,-9.089446 0.91177,-8.332926 -8.16435,-8.343956 l -5.9147,-0.007 -0.13554,-32.48714 -0.13554,-32.487152 -10.29215,-0.142323 c -5.66068,-0.07827 -10.45484,0.02036 -10.65368,0.219214 z m 41.97502,0.302343 c -0.14131,0.370143 -0.19572,18.66586 -0.1209,40.65716 l 0.13602,39.984176 19.27608,0.13795 19.27609,0.13795 3.34655,-1.72744 c 3.61961,-1.8684 6.24839,-5.01714 7.27525,-8.714266 0.29554,-1.06406 0.53635,-6.43288 0.53513,-11.93071 -0.002,-9.6136 -0.0537,-10.10675 -1.34715,-12.88963 -0.73972,-1.59148 -1.85786,-3.44098 -2.48474,-4.11001 -1.13546,-1.21178 -1.13595,-1.22276 -0.12747,-2.89359 0.55678,-0.92245 1.68064,-2.96024 2.49746,-4.52842 l 1.48514,-2.85123 -0.13911,-15.82559 -0.1391,-15.825584 h -7.10246 -7.10246 l -0.26305,15.520174 -0.26306,15.52018 h -9.99604 -9.99605 l -0.26305,-15.52018 -0.26306,-15.520174 -6.98154,-0.146874 c -5.29429,-0.111371 -7.04365,0.01578 -7.23848,0.526108 z m 35.20804,48.0657 c 0.17564,0.4577 0.31934,4.25331 0.31934,8.43467 0,7.02568 -0.0769,7.63114 -1.01402,7.98012 -0.55771,0.20769 -5.23349,0.25925 -10.39062,0.11457 l -9.37661,-0.26305 -0.14621,-7.86851 c -0.0804,-4.32767 -0.0287,-8.17483 0.11501,-8.54925 0.20098,-0.52374 2.55753,-0.68074 10.2175,-0.68074 8.59349,0 9.99998,0.11391 10.27561,0.83219 z m -18.97384,0.86498 c -0.27675,0.36867 -0.43761,3.27455 -0.35746,6.4575 0.0802,3.18295 0.15449,6.31987 0.16519,6.97092 0.0194,1.18048 0.0442,1.18375 8.97775,1.18375 h 8.95827 l -0.14597,-7.49704 -0.14597,-7.49703 -8.47431,-0.1442 c -6.38905,-0.10872 -8.59814,0.0207 -8.9775,0.5261 z m 51.5563,-48.833245 c -3.05865,0.980896 -5.52377,2.59823 -7.79938,5.11705 -3.54754,3.926705 -3.42063,2.622055 -3.40787,35.031195 0.0108,27.40814 0.0757,29.48646 0.9829,31.45183 1.34721,2.918776 4.52052,5.940316 7.94937,7.569216 2.88022,1.36826 2.95438,1.37461 16.04628,1.37461 h 13.15269 l 2.74449,-1.44675 c 3.31029,-1.74501 6.04043,-4.38118 7.64258,-7.379516 l 1.1873,-2.22199 v -28.93592 c 0,-33.14582 0.15178,-31.92559 -4.51407,-36.289951 -4.7872,-4.477865 -5.80721,-4.729692 -19.68687,-4.860382 -8.93379,-0.08412 -12.67541,0.07045 -14.29742,0.590608 z m 23.60812,32.536585 c 0.0876,9.04248 0.0882,19.90688 10e-4,24.14313 l -0.1579,7.70227 -7.56959,0.19573 c -4.16327,0.10765 -8.64962,0.10983 -9.96966,0.005 l -2.39981,-0.19078 v -24.14824 -24.14797 h 9.96834 9.96835 z m -17.5969,18.1188 c -0.78139,0.20419 -0.92178,0.89149 -0.92787,4.5424 -0.004,2.366 -0.12541,4.77531 -0.2699,5.35403 -0.55691,2.23054 0.28353,2.50904 8.3757,2.77549 5.79896,0.19095 7.87746,0.0869 8.49458,-0.42527 1.12322,-0.9322 1.0212,-10.70298 -0.12372,-11.8479 -0.59424,-0.59424 -2.2837,-0.74802 -7.69476,-0.70039 -3.81333,0.0336 -7.34765,0.1693 -7.85403,0.30164 z m 39.30982,-50.748637 c -0.14043,0.367838 -0.19411,18.661677 -0.1193,40.652977 l 0.13602,39.984176 h 10.52216 10.52215 V 60.203744 19.69346 l -10.40285,-0.142691 c -8.03564,-0.11022 -10.46096,0.0095 -10.65818,0.526108 z m 28.41483,-0.0131 c -0.14318,0.375051 -0.19913,18.674777 -0.12431,40.666077 l 0.13602,39.984176 h 19.46598 c 21.98658,0 21.51132,0.0781 25.84061,-4.2454 3.98012,-3.974786 3.92929,-3.47407 3.76577,-37.096896 -0.13685,-28.13961 -0.19731,-29.78896 -1.16329,-31.73584 -1.29928,-2.618645 -3.92178,-5.241145 -6.75512,-6.75513 -2.17338,-1.16133 -2.64512,-1.190713 -21.56365,-1.343074 -15.46733,-0.124572 -19.3938,-0.0192 -19.60201,0.526108 z m 34.47176,40.375297 v 24.17322 l -7.23397,0.15926 c -3.97869,0.0876 -8.47691,0.0877 -9.99606,2.3e-4 l -2.76206,-0.15902 v -24.17346 -24.17345 h 9.99604 9.99605 z m -17.46346,10.68141 c -0.95335,0.75616 -1.71242,10.20937 -0.92249,11.48832 0.36341,0.58837 2.13893,0.74368 8.50196,0.74368 h 8.04262 l 0.15059,-5.7803 c 0.12971,-4.97908 0.0246,-5.87241 -0.75819,-6.44482 -1.25604,-0.91844 -13.85794,-0.92422 -15.01449,-0.007 z M 96.189333,39.239404 c -0.793328,0.22424 -0.920688,0.94629 -0.920688,5.21969 v 4.95945 h 10.259095 10.2591 v -4.94174 c 0,-3.47586 -0.19508,-5.01225 -0.65764,-5.17946 -0.90711,-0.32791 -17.801927,-0.37959 -18.939867,-0.0579 z m 99.171287,0.003 c -0.94042,0.13603 -1.72596,0.52826 -1.74566,0.87162 -0.0197,0.34337 -0.12512,2.12262 -0.23428,3.95389 -0.10917,1.83127 0.0195,3.90282 0.28583,4.60344 0.48348,1.27144 0.49844,1.27366 8.58759,1.27366 6.62804,0 8.22477,-0.14638 8.77063,-0.8041 0.48307,-0.58207 0.5764,-1.98354 0.33799,-5.0752 -0.18115,-2.34909 -0.44008,-4.38179 -0.57539,-4.5171 -0.34699,-0.34699 -13.35939,-0.60543 -15.42671,-0.3064 z m -159.673667,13.54267 -4.077334,3.84276 v 3.99317 c 0,2.19623 0.23476,4.13824 0.521689,4.31558 0.557027,0.34426 4.602963,-2.19159 6.944836,-4.35279 l 1.416287,-1.30702 3.318682,2.96043 c 1.939754,1.73036 3.810529,2.96142 4.502424,2.9628 1.139823,0.002 1.183742,-0.17281 1.183742,-4.7191 0,-4.61536 -0.03251,-4.73856 -1.446796,-5.48285 -0.795738,-0.41877 -2.621636,-1.96371 -4.057558,-3.43321 -1.435916,-1.4695 -2.974781,-2.66073 -3.419699,-2.64718 -0.444914,0.0136 -2.643739,1.75388 -4.886273,3.86741 z m 60.239326,18.0268 c -0.471697,0.19033 -0.657634,1.94764 -0.657634,6.21547 0,4.94039 0.141223,6.0043 0.832192,6.26945 1.430497,0.54893 17.586023,0.35398 18.668373,-0.22528 0.91018,-0.48711 1.01763,-1.14778 1.01763,-6.257 0,-4.72362 -0.14404,-5.76767 -0.83219,-6.03173 -0.99013,-0.37995 -18.079414,-0.35382 -19.028371,0.0291 z m 24.708991,0.072 c -0.49973,0.33511 -0.63675,2.01778 -0.52611,6.46114 l 0.14959,6.00783 h 6.40234 c 3.52128,0 6.58671,-0.18498 6.81205,-0.41107 0.44638,-0.44786 0.32656,-11.47562 -0.12967,-11.93418 -0.48449,-0.48696 -11.99938,-0.59925 -12.7082,-0.12392 z m 38.2924,0.0938 c -0.58717,0.37077 -0.8354,1.77012 -0.9698,5.46696 -0.24992,6.87406 0.0613,7.17129 7.50856,7.17129 7.13278,0 7.14003,-0.007 7.14003,-6.85847 0,-4.60757 -0.1168,-5.2675 -1.01762,-5.74961 -1.27218,-0.68084 -11.59181,-0.70544 -12.66117,-0.0302 z"
       style="fill:#ffffff;stroke-width:0.52610767" /><path
       inkscape:connector-curvature="0"
       id="path243"
       d="m 8.95627,3.942084 c -1.17813,0.22592 -1.1974,0.34261 -1.05221,6.37317 l 0.14788,6.14303 h 11.31132 11.31131 l 0.14766,-6.11619 c 0.14436,-5.9796 0.12086,-6.12337 -1.05222,-6.43764 -1.33292,-0.35709 -18.92124,-0.3253 -20.81374,0.0376 z m 41.82558,-0.008 c -0.84217,0.21907 -0.92205,0.86526 -0.78916,6.38378 l 0.14787,6.14005 h 11.311309 11.311315 l 0.147626,-6.11279 0.147625,-6.11278 -1.660185,-0.33204 c -1.864283,-0.37285 -19.16214,-0.34452 -20.6164,0.0338 z m 27.610686,0.26552 c -0.935783,0.93578 -0.859844,11.15065 0.08874,11.93792 0.513713,0.42634 5.828484,0.55788 18.545295,0.45899 l 17.825229,-0.1386 0.14959,-6.00803 c 0.11087,-4.45266 -0.0253,-6.11901 -0.52611,-6.43676 -1.14503,-0.72654 -35.346491,-0.54978 -36.082747,0.18648 z m 56.845934,-0.0888 c -1.12051,0.45039 -1.18374,0.76619 -1.18374,5.91167 0,3.52641 0.22176,5.65762 0.63133,6.06719 0.87801,0.87801 21.76481,0.89732 22.30663,0.0206 0.20759,-0.3359 0.48029,-2.90124 0.60599,-5.70078 0.32184,-7.16773 0.85275,-6.84927 -11.34953,-6.80786 -5.40482,0.0184 -10.35962,0.24746 -11.01068,0.50915 z m 42.08861,0 c -1.1213,0.45071 -1.18374,0.76468 -1.18374,5.95247 0,4.02684 0.19308,5.63691 0.72938,6.082 0.4946,0.41048 3.16198,0.55823 8.2862,0.459 l 7.55681,-0.14634 0.1476,-6.11032 0.14761,-6.11032 -1.98898,-0.3287 c -2.93918,-0.48575 -12.32824,-0.34711 -13.69488,0.20221 z m 34.94587,0.0483 c -0.84195,0.48958 -0.94407,1.18816 -0.82446,5.63965 0.0751,2.79448 0.33829,5.49517 0.58491,6.00155 0.39507,0.81121 1.31832,0.92069 7.76434,0.92069 5.28343,0 7.4298,-0.1827 7.72579,-0.65763 0.22542,-0.3617 0.50532,-3.00696 0.62201,-5.87835 0.18629,-4.58408 0.0958,-5.30584 -0.74241,-5.91871 -1.18163,-0.86404 -13.6764,-0.95256 -15.13018,-0.1072 z m 33.84271,-0.12781 c -5.29026,1.16821 -10.7356,5.78336 -12.32402,10.44512 -0.93935,2.75684 -1.17378,12.24063 -0.30257,12.24063 0.28936,0 0.52611,-0.20342 0.52611,-0.45204 0,-1.16387 4.47333,-5.33263 7.45972,-6.95181 l 3.32549,-1.80304 h 13.94185 13.94185 l 2.81443,1.45139 c 1.54794,0.79826 4.15217,2.64471 5.78718,4.10322 l 2.97276,2.65183 0.1522,-4.5108 c 0.1389,-4.11664 0.0111,-4.80657 -1.46332,-7.89581 -1.73382,-3.63289 -4.27981,-6.10162 -8.42187,-8.16628 -2.21027,-1.10175 -3.171,-1.19136 -14.46796,-1.34957 -6.65526,-0.0932 -12.9291,0.0135 -13.94185,0.23716 z m 43.9853,-0.0264 c -0.43519,0.70416 -0.61819,12.0645 -0.20107,12.48216 0.45083,0.45141 21.79263,0.41135 22.52663,-0.0423 0.27764,-0.17159 0.50481,-2.90811 0.50481,-6.08115 0,-5.70872 -0.0142,-5.77453 -1.34952,-6.28224 -1.63782,-0.6227 -21.10044,-0.69199 -21.48085,-0.0765 z m 28.48602,-0.0887 c -0.80024,0.22198 -0.92068,0.95986 -0.92068,5.64039 0,3.49109 0.23129,5.69243 0.65763,6.25909 0.5889,0.78274 2.72086,0.88946 20.39975,1.02124 l 19.74212,0.14716 2.7503,1.76554 c 1.51266,0.97104 3.79205,2.92422 5.06531,4.34039 1.27325,1.41616 2.48394,2.57485 2.69041,2.57485 0.20648,0 0.28238,-2.31619 0.16867,-5.14709 -0.17241,-4.29257 -0.4481,-5.64042 -1.6606,-8.11868 -1.57678,-3.22283 -3.86287,-5.52003 -7.34503,-7.38073 -2.17947,-1.1646 -2.58316,-1.18857 -21.42426,-1.27226 -10.56161,-0.0469 -19.61724,0.0296 -20.12362,0.1701 z M 9.72944,19.690804 c -0.19923,0.19922 -0.36223,18.31565 -0.36223,40.25872 V 99.84602 h 10.90633 10.90632 l 4.61386,-4.59247 4.61384,-4.592476 4.62515,4.603716 4.62515,4.60371 10.763496,-0.14277 10.763505,-0.14276 V 59.598784 19.614604 H 61.451869 51.71888 l -0.13663,25.12164 c -0.1217,22.37564 -0.22655,25.12164 -0.95926,25.12164 -0.45245,0 -2.82566,-1.8348 -5.2738,-4.07733 -2.44814,-2.24254 -4.63869,-4.14252 -4.86788,-4.22218 -0.2292,-0.0797 -2.44746,1.75513 -4.92948,4.07733 -2.48203,2.3222 -4.88842,4.22218 -5.34755,4.22218 -0.74873,0 -0.84885,-2.58932 -0.9714,-25.12164 l -0.13663,-25.12164 -9.50229,-0.14301 c -5.22627,-0.0787 -9.6653,0.02 -9.86452,0.21921 z m 70.264373,0.0923 c -0.522967,0.33538 -0.632824,8.71131 -0.526108,40.1119 l 0.134878,39.688006 h 16.835445 16.835442 l 0.1463,-7.222566 0.1463,-7.22258 -10.14234,-0.14293 -10.142348,-0.14294 v -9.20689 -9.20688 l 9.996048,-0.26305 9.99604,-0.26306 0.14638,-7.23398 0.14637,-7.23398 h -9.64262 c -6.798333,0 -9.828834,-0.18622 -10.273943,-0.63133 -0.433744,-0.43374 -0.631329,-3.05061 -0.631329,-8.36143 0,-6.56352 0.125593,-7.7783 0.832192,-8.04945 0.457703,-0.17564 5.080979,-0.31934 10.27395,-0.31934 h 9.44175 l -0.14637,-7.23398 -0.14638,-7.23398 -16.309334,-0.12771 c -8.970136,-0.0702 -16.606783,0.063 -16.970323,0.29617 z m 56.516087,-0.0808 c -0.19291,0.19291 -0.35074,14.58931 -0.35074,31.99202 0,24.49325 -0.14857,31.83994 -0.65764,32.52069 -0.5422,0.72506 -1.81191,0.90431 -7.23398,1.02124 l -6.57634,0.14182 v 7.10245 7.102456 h 24.20095 24.20095 v -7.102456 -7.10245 l -6.8394,-0.26305 -6.8394,-0.26305 -0.13561,-32.3271 c -0.10512,-25.05963 -0.28253,-32.4204 -0.78916,-32.74215 -0.79098,-0.50232 -18.48277,-0.57728 -18.97963,-0.0804 z m 41.98633,0.29012 c -0.14162,0.37092 -0.19628,18.43055 -0.12145,40.13249 l 0.13604,39.458076 17.80523,0.13858 c 10.9876,0.0855 18.57355,-0.0683 19.81182,-0.40173 3.38187,-0.91065 6.8532,-3.65972 8.63616,-6.839306 l 1.62259,-2.89359 v -11.04796 c 0,-10.64478 -0.046,-11.13472 -1.25966,-13.41575 -0.6928,-1.30211 -1.84545,-3.13691 -2.56145,-4.07733 l -1.3018,-1.70985 1.3018,-1.70985 c 0.716,-0.94042 1.86865,-2.77522 2.56145,-4.07733 1.23478,-2.32073 1.26295,-2.67621 1.42622,-18.00037 l 0.16656,-15.63289 -1.21878,-0.30375 c -0.67032,-0.16706 -3.70463,-0.23471 -6.7429,-0.15034 l -5.52413,0.1534 -0.13927,15.59237 -0.13926,15.59236 -1.17601,0.31521 c -2.36514,0.63393 -18.55671,0.36134 -19.48556,-0.32806 -0.78952,-0.58597 -0.9008,-2.32021 -1.02125,-15.91476 l -0.13517,-15.25712 -6.19184,-0.14831 c -4.661,-0.11164 -6.2555,0.0184 -6.44934,0.52611 z m 34.88255,55.05659 c 0.0993,5.90348 -0.045,8.83957 -0.459,9.33841 -0.47378,0.57088 -2.67714,0.7276 -10.2294,0.7276 -5.29404,0 -10.00003,-0.1437 -10.45773,-0.31934 -0.71295,-0.27359 -0.83219,-1.58021 -0.83219,-9.1192 0,-4.83992 0.16259,-8.96245 0.36132,-9.16118 0.19872,-0.19872 5.11125,-0.29737 10.91673,-0.21921 l 10.55542,0.14211 z m -19.43547,-6.25289 c -0.0965,0.2841 -0.10265,3.48021 -0.0138,7.10246 l 0.16161,6.5859 h 8.38765 8.38765 v -7.10245 -7.10245 h -8.37388 c -5.00944,0 -8.44434,0.20754 -8.54925,0.51655 z m 52.17235,-48.6263 c -4.81603,1.33304 -8.70128,4.41823 -10.56398,8.38863 -0.92754,1.97709 -0.98798,3.84839 -0.99884,30.92572 -0.0126,31.55706 -0.11297,30.46104 3.1673,34.602716 1.00037,1.26307 2.95206,2.69769 5.12595,3.76788 l 3.5105,1.72822 h 12.37459 c 12.21893,0 12.41099,-0.0172 15.26818,-1.36272 3.97685,-1.87285 5.99369,-3.70892 7.58766,-6.907596 l 1.35617,-2.72149 v -28.99238 -28.99237 l -1.32058,-2.65006 c -1.4714,-2.95272 -4.29091,-5.47304 -8.03109,-7.17887 -2.25491,-1.02843 -3.51175,-1.14647 -13.53401,-1.27116 -8.61019,-0.10711 -11.6868,0.0393 -13.94185,0.66349 z m 22.65721,14.98348 c 0.98334,0.52627 1.01763,1.35585 1.01763,24.62184 0,18.02525 -0.15869,24.23591 -0.63133,24.70855 -0.88995,0.88995 -19.94391,0.88995 -20.83386,0 -0.47264,-0.47263 -0.63133,-6.6816 -0.63133,-24.70092 0,-22.36839 0.0651,-24.10749 0.92069,-24.60584 1.22883,-0.71572 18.82646,-0.73635 20.1582,-0.0236 z m -17.35216,35.96718 c -0.39432,0.47513 -0.55709,2.48061 -0.459,5.65565 l 0.15197,4.91949 7.76009,0.14559 7.76008,0.1456 v -5.48192 c 0,-4.51345 -0.14701,-5.53832 -0.83219,-5.80124 -0.4577,-0.17564 -3.74319,-0.31934 -7.30108,-0.31934 -4.90137,0 -6.61695,0.17838 -7.07987,0.73617 z m 40.00125,-51.05302 c -0.43215,0.52071 -0.55715,11.44612 -0.45899,40.11571 l 0.13489,39.400106 9.69439,0.14375 c 7.40378,0.10979 9.79483,-0.0145 10.11951,-0.52611 0.23382,-0.36842 0.42876,-18.201076 0.43319,-39.628126 0.006,-29.60849 -0.14346,-39.10978 -0.62327,-39.5896 -0.95862,-0.95861 -18.49776,-0.88202 -19.29972,0.0843 z m 28.07648,-0.0887 c -0.14457,0.37861 -0.20164,18.44451 -0.12681,40.14645 l 0.13604,39.458076 17.86005,0.13865 c 21.08678,0.16369 22.01652,0.019 26.09499,-4.05941 4.29897,-4.298966 4.24169,-3.775626 4.06955,-37.178146 l -0.14879,-28.87342 -1.30431,-2.55369 c -1.50119,-2.93917 -3.48872,-4.77915 -6.85036,-6.34182 -2.23717,-1.03995 -3.38855,-1.10946 -20.9175,-1.26279 -14.91252,-0.13045 -18.60155,-0.0273 -18.81286,0.5261 z m 34.21443,15.50275 c 0.79306,0.79306 0.85389,3.03439 0.66795,24.60861 -0.11252,13.05484 -0.38384,24.02613 -0.60294,24.38064 -0.55973,0.90565 -19.84452,0.91795 -20.74924,0.0133 -0.47242,-0.47242 -0.63133,-6.62061 -0.63133,-24.42642 0,-20.93044 0.0995,-23.89464 0.82674,-24.62184 1.26399,-1.264 19.21917,-1.22388 20.48882,0.0458 z m -17.58883,35.63897 c -0.39432,0.47514 -0.55708,2.48061 -0.459,5.65566 l 0.15197,4.91949 7.10245,0.26305 c 3.90635,0.14468 7.39839,0.0565 7.76009,-0.19594 0.88683,-0.61898 0.90946,-9.86394 0.0263,-10.7471 -0.96131,-0.96132 -13.77343,-0.8692 -14.58181,0.10484 z M 96.250171,39.516414 c -0.420797,0.50703 -0.594612,2.14214 -0.49381,4.64538 l 0.155559,3.86295 9.62212,0.14347 9.62213,0.14348 -0.15219,-4.61539 -0.15218,-4.61539 -8.97614,-0.17347 c -7.452844,-0.14403 -9.086324,-0.0407 -9.625489,0.60897 z m 99.207679,-0.31981 -1.46674,0.2211 0.15147,4.56657 0.15147,4.56657 8.0097,0.14516 8.0097,0.14516 0.33651,-1.34079 c 0.18508,-0.73743 0.17551,-2.84426 -0.0213,-4.68184 l -0.35779,-3.34107 -2.40619,-0.3298 c -2.55394,-0.35006 -9.95354,-0.32086 -12.40685,0.0489 z m -159.10946,13.00697 -3.70808,3.43311 -0.37324,3.48523 c -0.20528,1.91687 -0.17331,3.68515 0.0711,3.92951 0.44121,0.4412 4.18141,-1.79808 6.26198,-3.74909 0.59737,-0.56018 1.36886,-1.0185 1.71442,-1.0185 0.34556,0 2.04468,1.30212 3.7758,2.8936 1.73113,1.59147 3.3818,2.89359 3.66816,2.89359 0.85211,0 1.21044,-2.4513 0.81777,-5.59416 -0.34645,-2.77291 -0.5683,-3.13267 -3.80618,-6.17222 -1.89106,-1.77523 -3.72523,-3.29665 -4.07594,-3.38094 -0.35071,-0.0843 -2.30629,1.39165 -4.34574,3.27987 z m 59.937998,18.61998 c -0.49583,0.31962 -0.637048,1.83735 -0.526108,5.65448 l 0.15164,5.2176 h 9.46994 9.46994 v -5.52414 -5.52413 l -8.94383,-0.13034 c -4.91911,-0.0717 -9.248819,0.0662 -9.621582,0.30653 z m 24.440282,-0.0885 c -0.19291,0.1929 -0.35074,2.80465 -0.35074,5.80388 v 5.45314 l 6.18176,-0.14822 6.18177,-0.14823 0.15164,-5.2176 c 0.11101,-3.81971 -0.0299,-5.3328 -0.52611,-5.64759 -0.8099,-0.51385 -11.13524,-0.59847 -11.63832,-0.0954 z m 38.69264,0.0954 c -0.49617,0.31479 -0.63712,1.82789 -0.52611,5.6476 l 0.15164,5.21759 6.00802,0.1496 c 4.45267,0.11086 6.11902,-0.0253 6.43677,-0.52611 0.68733,-1.08325 0.53349,-9.5835 -0.18648,-10.30347 -0.72424,-0.72424 -10.78708,-0.88107 -11.88384,-0.18521 z"
       style="fill:#155ed6;stroke-width:0.52610767" /><path
       inkscape:connector-curvature="0"
       id="path241"
       d="m 7.1415666,4.800186 c -0.1985041,0.198505 -0.3609167,2.92569 -0.3609167,6.060418 0,4.199686 0.1730552,5.704022 0.6576346,5.716696 8.0965915,0.211753 21.6717735,-0.03967 22.0402905,-0.408159 0.269236,-0.269236 0.421623,-2.954831 0.33864,-5.967992 L 29.666333,4.72268 18.584406,4.580973 C 12.489349,4.503033 7.3400707,4.601703 7.1415666,4.800186 Z M 49.099644,5.144208 C 48.95073,5.53228 48.897161,8.191223 48.980602,11.05297 l 0.151714,5.203178 1.578323,0.283504 c 0.868077,0.155928 6.024974,0.209596 11.459766,0.119263 L 72.051848,16.49467 71.903397,10.608677 71.754945,4.72268 60.562673,4.580652 C 51.588986,4.466781 49.316732,4.578552 49.099644,5.144208 Z m 28.179431,5.358837 v 6.057057 H 95.710073 114.14107 L 113.99231,10.641391 113.84356,4.72268 95.561316,4.584334 77.279075,4.445989 Z m 56.293515,0.0068 v 6.050238 h 11.31132 11.31131 V 10.509845 4.459607 h -11.31131 -11.31132 z m 42.08862,-0.01368 v 6.063943 l 4.86649,0.04314 c 2.67657,0.02373 6.2228,0.144033 7.88051,0.267373 3.649,0.271503 3.68053,0.206224 3.45352,-7.149887 l -0.15424,-4.998023 -8.02314,-0.145232 -8.02314,-0.145226 v 6.063937 z m 35.36351,-0.117869 0.14875,5.918711 6.57635,0.413799 c 9.55873,0.601463 8.94383,1.028483 8.94383,-6.211006 V 4.459585 h -7.90885 -7.90884 z m 30.663,-4.400275 c -6.95186,3.342204 -9.95342,8.677777 -9.62978,17.117896 l 0.15984,4.168372 1.52383,-2.203381 c 1.67423,-2.420852 6.66482,-6.017672 9.69503,-6.987404 2.80187,-0.896656 22.13387,-1.238583 26.08444,-0.461354 4.08499,0.803671 7.32193,2.46513 10.67352,5.47849 1.47626,1.327291 2.82689,2.413251 3.00139,2.413251 0.68748,0 0.2665,-7.401914 -0.56792,-9.985555 -1.14837,-3.555704 -4.50014,-7.260912 -8.49392,-9.389575 L 271.00246,4.459585 257.92341,4.46 244.84436,4.460416 Z m 47.20146,4.663329 0.14822,6.181765 h 10.7038 c 5.88708,0 10.91212,-0.128723 11.16676,-0.28605 0.5979,-0.369428 0.6733,-1.319252 0.57238,-7.210984 l -0.0834,-4.866496 H 300.06893 288.74092 Z M 317.0088,4.810325 c -0.682,0.681988 -0.38182,9.927815 0.35503,10.935511 0.664,0.908072 1.79445,0.958731 19.09699,0.855808 14.44887,-0.08595 18.84059,0.0454 20.48758,0.612853 2.81721,0.97061 7.86109,4.760348 9.30702,6.992865 0.64461,0.995285 1.30134,1.812541 1.45939,1.816123 0.15806,0.0037 0.19359,-2.301784 0.079,-5.123036 -0.31844,-7.837405 -2.49474,-11.888544 -7.94802,-14.79511 l -3.08774,-1.645754 h -19.69924 c -10.83458,0 -19.85707,0.157832 -20.04997,0.35074 z M 95.076771,43.70802 c -0.143964,3.326252 -0.02399,4.078728 0.713012,4.471915 1.014694,0.541338 12.222797,0.638884 15.875917,0.138171 l 2.44091,-0.334567 v -4.137348 -4.137352 h -9.42837 -9.428375 z m 98.310209,-3.661931 c -0.20032,0.200326 -0.36422,2.218754 -0.36422,4.485405 v 4.121175 h 8.17594 8.17595 l -0.15281,-4.340388 -0.1528,-4.340389 -7.65892,-0.145011 c -4.2124,-0.07976 -7.82282,0.01889 -8.02314,0.219208 z M 35.32199,52.850761 31.507709,56.49383 v 3.444926 c 0,1.894709 0.113777,3.444927 0.252837,3.444927 0.473392,0 5.989394,-3.668254 6.319732,-4.202748 0.659602,-1.067257 2.021379,-0.476743 4.838906,2.098317 3.961391,3.620489 4.373933,3.508544 4.362285,-1.183742 l -0.0095,-3.81428 -3.89539,-3.551227 c -2.142469,-1.953175 -3.973008,-3.544719 -4.067865,-3.536769 -0.09486,0.0079 -1.8889,1.653835 -3.986754,3.657527 z M 192.93507,69.15954 c -0.0965,0.28313 -0.057,3.420047 0.0877,6.970927 l 0.26305,6.456145 h 8.15467 8.15467 l 0.1468,-6.970926 0.14679,-6.970926 h -8.38915 c -4.9995,0 -8.46001,0.207996 -8.56452,0.51478 z M 250.94,71.251034 c -0.25231,0.158027 -0.54331,2.536428 -0.64666,5.28534 l -0.1879,4.998023 3.94581,0.404219 c 2.17019,0.222323 5.60304,0.340697 7.62856,0.263054 l 3.68275,-0.141165 -0.19177,-5.261077 c -0.10548,-2.893592 -0.22385,-5.293321 -0.26306,-5.332732 -0.24191,-0.243193 -13.5946,-0.449354 -13.96773,-0.215662 z m 85.18404,-0.13067 c -0.43404,0.17199 -0.9631,0.573142 -1.17569,0.891453 -0.57784,0.865216 -0.48235,9.14816 0.10969,9.514062 0.28178,0.174147 3.71463,0.461376 7.62856,0.63829 l 7.11624,0.321662 v -5.605266 -5.605267 l -5.39261,-0.0072 c -2.96593,-0.0042 -5.8661,-0.109172 -6.44481,-0.233818 -0.57872,-0.12465 -1.40734,-0.08592 -1.84138,0.08607 z m -241.079893,5.02143 c -0.138209,2.676572 -0.03988,5.138251 0.218529,5.470399 0.591761,0.760651 15.579424,0.92636 17.506824,0.19356 1.3029,-0.495362 1.33711,-0.636559 1.33711,-5.519411 v -5.011044 h -9.40558 -9.405588 z m 24.436473,0.509251 0.15012,5.40946 5.44732,0.150535 c 3.63819,0.100539 5.69745,-0.05705 6.20045,-0.474507 0.57464,-0.476911 0.71753,-1.75943 0.60292,-5.411612 l -0.15021,-4.786569 -6.20036,-0.148384 -6.20035,-0.148383 z m 38.64367,-5.025007 c -0.19291,0.192903 -0.35074,2.433685 -0.35074,4.979509 0,5.586395 -0.0592,5.536042 6.65404,5.660955 6.15866,0.114592 6.49865,-0.171148 6.49865,-5.461623 0,-5.787142 0.30485,-5.529581 -6.54495,-5.529581 -3.24845,0 -6.0641,0.157832 -6.257,0.35074 z"
       style="fill:#022986;stroke-width:0.52610767" /><path
       d="m 10.308623,-29.388157 c 1.16813,0 2.304204,0.25763 3.408224,0.77286 1.104007,0.51525 2.012162,1.20714 2.72443,2.07569 v 0 l -2.02997,2.07569 c -0.52708,-0.633 -1.132516,-1.11881 -1.816287,-1.4574 -0.683782,-0.33858 -1.417416,-0.50787 -2.20091,-0.50787 -0.69803,0 -1.34264,0.1288 -1.933817,0.38642 -0.591188,0.25762 -1.10402,0.60725 -1.538505,1.04888 -0.434496,0.44164 -0.776376,0.96794 -1.025674,1.57886 -0.249297,0.61094 -0.373946,1.2697 -0.373946,1.97632 0,0.72135 0.121033,1.38748 0.363269,1.99841 0.242168,0.61093 0.576929,1.14089 1.004296,1.58989 0.427356,0.449 0.93664,0.80231 1.527817,1.05993 0.591188,0.25761 1.221549,0.38643 1.891073,0.38643 0.797754,0 1.552753,-0.18033 2.265031,-0.541 0.712278,-0.36068 1.33194,-0.8796 1.859018,-1.55678 v 0 l 2.094081,2.14195 c -0.69802,0.88326 -1.609734,1.5862 -2.735119,2.10881 -1.125386,0.5226 -2.286386,0.7839 -3.483011,0.7839 -1.111138,0 -2.154607,-0.2061 -3.130419,-0.61829 -0.975812,-0.4122 -1.819846,-0.97161 -2.532124,-1.67822 -0.712267,-0.70661 -1.27496,-1.5494 -1.688079,-2.52836 -0.413119,-0.97896 -0.619674,-2.02785 -0.619674,-3.14667 0,-1.1188 0.202996,-2.16402 0.608985,-3.13562 0.406001,-0.97159 0.965124,-1.81071 1.67739,-2.51733 0.712279,-0.7066 1.556312,-1.26601 2.532136,-1.67821 0.975812,-0.4122 2.026411,-0.61829 3.151785,-0.61829 z m 40.492581,-0.0221 c 1.111149,0 2.151071,0.20609 3.119754,0.61829 0.968693,0.41219 1.805609,0.97528 2.510757,1.68925 0.705149,0.71399 1.264272,1.56045 1.677391,2.53941 0.413118,0.97897 0.619672,2.0205 0.619672,3.12458 0,1.1041 -0.206554,2.14563 -0.619672,3.12458 -0.413119,0.97897 -0.972242,1.82543 -1.677391,2.5394 -0.705148,0.71398 -1.542064,1.27708 -2.510757,1.68927 -0.968683,0.4122 -2.008605,0.61829 -3.119754,0.61829 -1.096901,0 -2.12967,-0.20609 -3.098376,-0.61829 -0.968694,-0.41219 -1.805597,-0.97529 -2.510746,-1.68927 -0.705149,-0.71397 -1.264283,-1.56043 -1.67739,-2.5394 -0.41313,-0.97895 -0.619684,-2.02048 -0.619684,-3.12458 0,-1.10408 0.206554,-2.14561 0.619684,-3.12458 0.413107,-0.97896 0.972241,-1.82542 1.67739,-2.53941 0.705149,-0.71397 1.542052,-1.27706 2.510746,-1.68925 0.968706,-0.4122 2.001475,-0.61829 3.098376,-0.61829 z m 0,2.93688 c -0.669534,0 -1.292766,0.12881 -1.869696,0.38644 -0.57694,0.25761 -1.075535,0.61092 -1.495784,1.05991 -0.420226,0.44901 -0.751429,0.98265 -0.993607,1.60094 -0.24218,0.61829 -0.36327,1.28075 -0.36327,1.98736 0,0.72134 0.121044,1.38748 0.36327,1.9984 0.242178,0.61095 0.573381,1.1409 0.993607,1.5899 0.420249,0.449 0.918844,0.8023 1.495784,1.05992 0.57693,0.25763 1.200162,0.38644 1.869696,0.38644 0.669546,0 1.296349,-0.12881 1.880407,-0.38644 0.58406,-0.25762 1.086202,-0.61092 1.506451,-1.05992 0.420226,-0.449 0.751451,-0.97895 0.993608,-1.5899 0.242179,-0.61092 0.363268,-1.27706 0.363268,-1.9984 0,-0.70661 -0.121044,-1.36907 -0.363268,-1.98736 -0.242157,-0.61829 -0.573382,-1.15193 -0.993608,-1.60094 -0.420249,-0.44899 -0.922391,-0.8023 -1.506451,-1.05991 -0.584058,-0.25763 -1.210861,-0.38644 -1.880407,-0.38644 z m 46.967126,-2.69399 v 2.82648 h -8.183985 v 12.63084 H 86.48596 v -15.45727 z m 39.06092,0 v 2.82648 h -8.18399 v 12.63084 h -3.09837 v -15.45727 z m 39.36007,0 v 2.78232 h -8.48314 v 3.66558 h 5.53435 v 2.69399 h -5.53435 v 3.53308 h 8.39767 v 2.78231 h -11.49604 v -15.45726 z m 34.35993,-0.22081 c 1.16814,0 2.3042,0.25762 3.40822,0.77286 1.10401,0.51525 2.01216,1.20715 2.72444,2.0757 v 0 l -2.02998,2.07569 c -0.52708,-0.63302 -1.13251,-1.11881 -1.81628,-1.4574 -0.68379,-0.3386 -1.41742,-0.50789 -2.20092,-0.50789 -0.69803,0 -1.34264,0.12881 -1.93382,0.38643 -0.59118,0.25763 -1.10401,0.60726 -1.5385,1.04889 -0.43449,0.44164 -0.77638,0.96792 -1.02567,1.57885 -0.2493,0.61093 -0.37395,1.26971 -0.37395,1.97632 0,0.72134 0.12103,1.38748 0.36326,1.9984 0.24218,0.61095 0.57694,1.1409 1.00431,1.5899 0.42736,0.449 0.93664,0.8023 1.52781,1.05992 0.59119,0.25763 1.22155,0.38644 1.89108,0.38644 0.79775,0 1.55276,-0.18034 2.26503,-0.54101 0.71227,-0.36066 1.33193,-0.87959 1.85901,-1.55676 v 0 l 2.09409,2.14193 c -0.69802,0.88327 -1.60973,1.58621 -2.73511,2.10882 -1.1254,0.52259 -2.2864,0.7839 -3.48302,0.7839 -1.11114,0 -2.15461,-0.20609 -3.13042,-0.61829 -0.97582,-0.41219 -1.81984,-0.9716 -2.53213,-1.67823 -0.71226,-0.7066 -1.27496,-1.54939 -1.68808,-2.52835 -0.41311,-0.97896 -0.61967,-2.02785 -0.61967,-3.14667 0,-1.11881 0.203,-2.16401 0.609,-3.13562 0.40599,-0.9716 0.9651,-1.8107 1.67739,-2.51733 0.71228,-0.70662 1.55631,-1.26601 2.53212,-1.6782 0.97581,-0.4122 2.0264,-0.6183 3.15179,-0.6183 z m 40.98406,0.22081 v 12.63086 h 5.02149 v 2.82647 h -13.16275 v -2.82647 h 5.04286 v -12.6308 z m 35.49243,0 v 15.45732 h -3.09837 v -15.45727 z m 35.68475,-0.24289 c 1.11116,0 2.15107,0.20609 3.11976,0.61829 0.96868,0.41219 1.8056,0.97528 2.51075,1.68925 0.70515,0.71399 1.26428,1.56045 1.6774,2.53941 0.4131,0.97897 0.61967,2.0205 0.61967,3.12458 0,1.1041 -0.20657,2.14563 -0.61967,3.12458 -0.41312,0.97897 -0.97225,1.82543 -1.6774,2.5394 -0.70515,0.71398 -1.54207,1.27708 -2.51075,1.68927 -0.96869,0.4122 -2.0086,0.61829 -3.11976,0.61829 -1.09689,0 -2.12969,-0.20609 -3.09836,-0.61829 -0.96869,-0.41219 -1.8056,-0.97529 -2.51075,-1.68927 -0.70515,-0.71397 -1.26429,-1.56043 -1.67741,-2.5394 -0.41312,-0.97895 -0.61969,-2.02048 -0.61969,-3.12458 0,-1.10408 0.20657,-2.14561 0.61969,-3.12458 0.41312,-0.97896 0.97226,-1.82542 1.67741,-2.53941 0.70515,-0.71397 1.54206,-1.27706 2.51075,-1.68925 0.96867,-0.4122 2.00147,-0.61829 3.09836,-0.61829 z m 0,2.93688 c -0.66952,0 -1.29277,0.12881 -1.8697,0.38644 -0.57694,0.25761 -1.07553,0.61092 -1.49577,1.05991 -0.42024,0.44901 -0.75144,0.98265 -0.99362,1.60094 -0.24217,0.61829 -0.36326,1.28075 -0.36326,1.98736 0,0.72134 0.12103,1.38748 0.36326,1.9984 0.24218,0.61095 0.57338,1.1409 0.99362,1.5899 0.42024,0.449 0.91883,0.8023 1.49577,1.05992 0.57693,0.25763 1.20018,0.38644 1.8697,0.38644 0.66954,0 1.29635,-0.12881 1.8804,-0.38644 0.58407,-0.25762 1.0862,-0.61092 1.50645,-1.05992 0.42024,-0.449 0.75145,-0.97895 0.99362,-1.5899 0.24217,-0.61092 0.36326,-1.27706 0.36326,-1.9984 0,-0.70661 -0.12103,-1.36907 -0.36326,-1.98736 -0.24217,-0.61829 -0.57338,-1.15193 -0.99362,-1.60094 -0.42025,-0.44899 -0.92238,-0.8023 -1.50645,-1.05991 -0.58405,-0.25763 -1.21086,-0.38644 -1.8804,-0.38644 z m 38.61219,-2.69399 v 10.3343 l 7.62842,-10.3343 h 2.73513 v 15.45732 h -2.90607 v -10.00306 l -7.4361,10.00306 h -2.94881 v -15.45727 z"
       id="COLLECTION"
       inkscape:connector-curvature="0"
       style="fill:#ffffff;fill-rule:nonzero;stroke:none;stroke-width:1.32858956" /></g></svg>