<?xml version="1.0" encoding="UTF-8" standalone="no"?>
<svg
   xmlns:dc="http://purl.org/dc/elements/1.1/"
   xmlns:cc="http://creativecommons.org/ns#"
   xmlns:rdf="http://www.w3.org/1999/02/22-rdf-syntax-ns#"
   xmlns:svg="http://www.w3.org/2000/svg"
   xmlns="http://www.w3.org/2000/svg"
   xmlns:sodipodi="http://sodipodi.sourceforge.net/DTD/sodipodi-0.dtd"
   xmlns:inkscape="http://www.inkscape.org/namespaces/inkscape"
   width="500"
   height="200"
   viewBox="0 0 500 200"
   version="1.1"
   id="svg32"
   sodipodi:docname="msx2.svg"
   style="fill:none"
   inkscape:version="0.92.5 (2060ec1f9f, 2020-04-08)">
  <metadata
     id="metadata38">
    <rdf:RDF>
      <cc:Work
         rdf:about="">
        <dc:format>image/svg+xml</dc:format>
        <dc:type
           rdf:resource="http://purl.org/dc/dcmitype/StillImage" />
        <dc:title />
      </cc:Work>
    </rdf:RDF>
  </metadata>
  <defs
     id="defs36" />
  <sodipodi:namedview
     pagecolor="#ffffff"
     bordercolor="#666666"
     borderopacity="1"
     objecttolerance="10"
     gridtolerance="10"
     guidetolerance="10"
     inkscape:pageopacity="0"
     inkscape:pageshadow="2"
     inkscape:window-width="1366"
     inkscape:window-height="743"
     id="namedview34"
     showgrid="false"
     inkscape:pagecheckerboard="true"
     inkscape:zoom="0.97676469"
     inkscape:cx="377.69555"
     inkscape:cy="44.904362"
     inkscape:window-x="0"
     inkscape:window-y="0"
     inkscape:window-maximized="1"
     inkscape:current-layer="svg32" />
  <path
     d="M 390.48824,22.523337 H 42.999097 V 163.25471 H 390.48824 Z"
     id="path26"
     inkscape:connector-curvature="0"
     style="fill:#da0b17;stroke-width:1.30309236" />
  <path
     d="m 362.9969,42.334381 -33.0347,48.250903 35.93147,52.714656 h -33.18064 l -19.74446,-28.22147 -19.90473,28.28806 h -32.96433 c 0.89522,-1.85743 36.08263,-52.783852 36.08263,-52.783852 l -14.9986,-20.866286 -63.62218,0.07193 c -2.96584,0.234556 -6.60668,-0.666271 -8.09351,2.680852 -0.51863,1.108671 -0.74276,2.742227 -0.14595,3.861453 0.51473,1.260482 1.70836,2.446426 3.04012,2.816895 l 2.00416,0.151811 h 25.46633 c 11.7995,0.295802 22.71811,7.640288 27.83536,18.257364 4.53215,8.911453 3.86367,21.084813 -1.18582,29.553883 -6.37994,10.7582 -17.74421,16.77562 -30.06364,16.33322 h -70.8279 c 0,0 -10.84094,-39.13161 -10.91548,-39.1982 l -10.91548,39.1982 -25.83108,0.005 -10.3932,-39.35275 -11.363097,39.27014 h -28.57851 c 0,0 26.278683,-94.577803 27.986906,-100.818964 H 119.7167 l 11.35776,42.169631 11.58175,-42.169631 23.68306,-0.0052 20.26713,73.437064 h 47.21625 c 3.25903,-0.15728 7.79249,0.73273 9.13077,-3.26985 0.51863,-1.79084 0.0769,-3.64305 -1.18582,-4.90353 -1.19233,-1.04196 -2.67655,-1.33242 -4.23244,-1.33242 l -25.39076,-0.005 c -12.03015,-0.37047 -23.9795,-8.239836 -28.43478,-19.816248 -4.82665,-11.587095 -2.00415,-25.471284 6.82951,-34.441381 6.2366,-6.251847 13.65771,-9.369756 22.35064,-9.737619 l 83.29497,-0.07193 16.78383,24.197384 17.36371,-24.27192 z"
     id="path28"
     inkscape:connector-curvature="0"
     style="fill:#ffffff;stroke-width:1.30309236" />
  <path
     d="m 395.8661,163.25471 c 0.68673,-6.33172 1.15584,-12.69563 2.1097,-18.98749 1.64972,-10.88355 8.09091,-18.97159 15.97983,-26.10016 5.75576,-5.20195 11.66919,-10.23332 17.26076,-15.60571 3.81545,-3.666897 4.61816,-9.026125 2.53582,-12.847574 -1.61453,-2.963363 -4.26112,-4.2559 -7.43936,-3.573601 -3.1209,0.668878 -4.77583,2.686195 -4.93351,5.814789 -0.12509,2.531648 -0.0261,5.076588 -0.0261,7.853478 -8.48313,0 -16.80728,0 -25.13013,0 -2.81208,-15.805599 9.16986,-32.514629 25.35035,-35.499232 5.76749,-1.063323 11.43855,-0.786156 17.04315,0.77547 17.1904,4.791471 25.40118,20.690369 20.21618,39.00363 -2.04195,7.21119 -6.01508,12.91678 -12.19825,17.34325 -6.37473,4.56501 -12.36244,9.66831 -18.48828,14.57979 -1.37346,1.12183 -1.52983,1.49491 -2.10058,2.88075 11.44636,0 21.68997,0 33.02427,0 0,8.29848 0,16.33035 0,24.36522 -21.0671,-0.003 -42.13549,-0.003 -63.20389,-0.003 z"
     id="path30"
     inkscape:connector-curvature="0"
     style="fill:#da0b17;stroke-width:1.30309236" />
</svg>
