<?xml version="1.0" encoding="UTF-8" standalone="no"?>
<svg
   xmlns:dc="http://purl.org/dc/elements/1.1/"
   xmlns:cc="http://creativecommons.org/ns#"
   xmlns:rdf="http://www.w3.org/1999/02/22-rdf-syntax-ns#"
   xmlns:svg="http://www.w3.org/2000/svg"
   xmlns="http://www.w3.org/2000/svg"
   xmlns:sodipodi="http://sodipodi.sourceforge.net/DTD/sodipodi-0.dtd"
   xmlns:inkscape="http://www.inkscape.org/namespaces/inkscape"
   width="500"
   height="200"
   viewBox="0 0 500 200"
   version="1.1"
   id="svg95"
   sodipodi:docname="Namco.svg"
   inkscape:version="0.92.5 (2060ec1f9f, 2020-04-08)">
  <metadata
     id="metadata101">
    <rdf:RDF>
      <cc:Work
         rdf:about="">
        <dc:format>image/svg+xml</dc:format>
        <dc:type
           rdf:resource="http://purl.org/dc/dcmitype/StillImage" />
        <dc:title>mainlogo</dc:title>
      </cc:Work>
    </rdf:RDF>
  </metadata>
  <defs
     id="defs99">
    <clipPath
       clipPathUnits="userSpaceOnUse"
       id="clipPath909">
      <g
         style="fill:#aa8800;stroke:none"
         id="use911"
         inkscape:label="Clip">
        <g
           id="g1939"
           transform="matrix(2.0794317,0,0,2.0794317,186.00321,-131.99158)"
           style="fill:#aa8800;stroke:none">
          <path
             d="m -146.65192,109.06017 v 4.30384 h -1.16463 v -4.30384 h -1.77166 v -0.88128 h 4.77092 v 0.88128 z"
             style="font-style:normal;font-variant:normal;font-weight:normal;font-stretch:normal;font-size:medium;line-height:1.25;font-family:Eurostile;-inkscape-font-specification:Eurostile;letter-spacing:0px;word-spacing:0px;fill:#aa8800;fill-opacity:1;stroke:none;stroke-width:0.35733205;stroke-miterlimit:4;stroke-dasharray:none;stroke-opacity:1"
             id="path1925"
             inkscape:connector-curvature="0" />
          <path
             d="m -141.67415,108.13331 q 1.67275,0 2.15389,0.47103 0.48114,0.46723 0.48114,2.09684 0,1.78155 -0.48564,2.24498 -0.48114,0.46344 -2.33824,0.46344 -1.67275,0 -2.16288,-0.45584 -0.49014,-0.45963 -0.49014,-2.01707 0,-1.85373 0.48114,-2.32856 0.48114,-0.47482 2.36073,-0.47482 z m -0.0899,0.84329 q -1.17362,0 -1.37147,0.25451 -0.19785,0.25451 -0.19785,1.76256 0,1.1168 0.22933,1.34471 0.23382,0.22792 1.36697,0.22792 1.08369,0 1.29953,-0.25451 0.21584,-0.2583 0.21584,-1.55743 0,-1.30293 -0.20685,-1.53845 -0.20235,-0.23931 -1.3355,-0.23931 z"
             style="font-style:normal;font-variant:normal;font-weight:normal;font-stretch:normal;font-size:medium;line-height:1.25;font-family:Eurostile;-inkscape-font-specification:Eurostile;letter-spacing:0px;word-spacing:0px;fill:#aa8800;fill-opacity:1;stroke:none;stroke-width:0.35733205;stroke-miterlimit:4;stroke-dasharray:none;stroke-opacity:1"
             id="path1927"
             inkscape:connector-curvature="0" />
          <path
             d="m -134.53799,112.36877 h -2.64852 l -0.38221,0.99524 h -1.23208 l 2.04147,-5.18512 h 1.74919 l 2.07294,5.18512 h -1.20959 z m -0.2698,-0.72554 -1.06121,-2.70082 -1.04322,2.70082 z"
             style="font-style:normal;font-variant:normal;font-weight:normal;font-stretch:normal;font-size:medium;line-height:1.25;font-family:Eurostile;-inkscape-font-specification:Eurostile;letter-spacing:0px;word-spacing:0px;fill:#aa8800;fill-opacity:1;stroke:none;stroke-width:0.35733205;stroke-miterlimit:4;stroke-dasharray:none;stroke-opacity:1"
             id="path1929"
             inkscape:connector-curvature="0" />
          <path
             d="m -132.40659,113.36401 v -5.18512 h 2.47314 0.30577 q 1.24557,0 1.67725,0.36847 0.43617,0.36466 0.43617,1.41309 0,1.04082 -0.41369,1.38269 -0.41369,0.34188 -1.67274,0.34188 l -0.2698,0.004 h -1.37148 v 1.67519 z m 1.16462,-2.50329 h 1.32651 q 0.79141,0 1.00275,-0.15195 0.21584,-0.15574 0.21584,-0.72933 0,-0.65716 -0.17987,-0.81291 -0.17537,-0.15954 -0.92181,-0.15954 h -1.44342 z"
             style="font-style:normal;font-variant:normal;font-weight:normal;font-stretch:normal;font-size:medium;line-height:1.25;font-family:Eurostile;-inkscape-font-specification:Eurostile;letter-spacing:0px;word-spacing:0px;fill:#aa8800;fill-opacity:1;stroke:none;stroke-width:0.35733205;stroke-miterlimit:4;stroke-dasharray:none;stroke-opacity:1"
             id="path1931"
             inkscape:connector-curvature="0" />
          <path
             d="m -125.61218,108.17889 v 4.30384 h 2.87784 v 0.88128 h -4.04247 v -5.18512 z"
             style="font-style:normal;font-variant:normal;font-weight:normal;font-stretch:normal;font-size:medium;line-height:1.25;font-family:Eurostile;-inkscape-font-specification:Eurostile;letter-spacing:0px;word-spacing:0px;fill:#aa8800;fill-opacity:1;stroke:none;stroke-width:0.35733205;stroke-miterlimit:4;stroke-dasharray:none;stroke-opacity:1"
             id="path1933"
             inkscape:connector-curvature="0" />
          <path
             d="m -117.78215,112.36877 h -2.64851 l -0.38222,0.99524 h -1.23208 l 2.04147,-5.18512 h 1.74919 l 2.07295,5.18512 h -1.20959 z m -0.2698,-0.72554 -1.0612,-2.70082 -1.04322,2.70082 z"
             style="font-style:normal;font-variant:normal;font-weight:normal;font-stretch:normal;font-size:medium;line-height:1.25;font-family:Eurostile;-inkscape-font-specification:Eurostile;letter-spacing:0px;word-spacing:0px;fill:#aa8800;fill-opacity:1;stroke:none;stroke-width:0.35733205;stroke-miterlimit:4;stroke-dasharray:none;stroke-opacity:1"
             id="path1935"
             inkscape:connector-curvature="0" />
          <path
             d="m -109.66276,108.17889 v 5.18512 h -1.97402 l -1.75368,-2.84517 q -0.1304,-0.21272 -0.4092,-0.74453 l -0.19785,-0.37226 -0.19335,-0.37227 h -0.045 l 0.018,0.34188 0.0135,0.33808 0.009,0.67995 v 2.97432 h -1.16463 v -5.18512 h 1.97403 l 1.5963,2.62865 q 0.21134,0.34947 0.49013,0.84709 l 0.23383,0.42165 0.23382,0.42544 h 0.0405 l -0.0135,-0.33428 -0.0135,-0.33427 -0.009,-0.66856 v -2.98572 z"
             style="font-style:normal;font-variant:normal;font-weight:normal;font-stretch:normal;font-size:medium;line-height:1.25;font-family:Eurostile;-inkscape-font-specification:Eurostile;letter-spacing:0px;word-spacing:0px;fill:#aa8800;fill-opacity:1;stroke:none;stroke-width:0.35733205;stroke-miterlimit:4;stroke-dasharray:none;stroke-opacity:1"
             id="path1937"
             inkscape:connector-curvature="0" />
        </g>
      </g>
    </clipPath>
    <linearGradient
       id="SVGID_2_"
       gradientUnits="userSpaceOnUse"
       x1="730.24628"
       y1="285.81149"
       x2="730.24628"
       y2="33.963799"
       gradientTransform="matrix(0.43499454,0,0,-0.43499454,9.1046148,160.45593)">
      <stop
         offset="0"
         style="stop-color:#ECEFEB"
         id="stop155" />
      <stop
         offset="0.1746"
         style="stop-color:#EAECE9"
         id="stop157" />
      <stop
         offset="0.2796"
         style="stop-color:#E1E4E0"
         id="stop159" />
      <stop
         offset="0.3661"
         style="stop-color:#D3D6D3"
         id="stop161" />
      <stop
         offset="0.4427"
         style="stop-color:#C0C1BF"
         id="stop163" />
      <stop
         offset="0.5127"
         style="stop-color:#A6A7A6"
         id="stop165" />
      <stop
         offset="0.5769"
         style="stop-color:#878787"
         id="stop167" />
      <stop
         offset="0.6"
         style="stop-color:#7A7A7A"
         id="stop169" />
      <stop
         offset="1"
         style="stop-color:#343732"
         id="stop171" />
    </linearGradient>
    <linearGradient
       id="SVGID_1_"
       gradientUnits="userSpaceOnUse"
       x1="954.83661"
       y1="279.914"
       x2="954.83661"
       y2="15.5362"
       gradientTransform="matrix(0.43499454,0,0,-0.43499454,9.1046148,160.45593)">
      <stop
         offset="0"
         style="stop-color:#ECEFEB"
         id="stop132" />
      <stop
         offset="0.1746"
         style="stop-color:#EAECE9"
         id="stop134" />
      <stop
         offset="0.2796"
         style="stop-color:#E1E4E0"
         id="stop136" />
      <stop
         offset="0.3661"
         style="stop-color:#D3D6D3"
         id="stop138" />
      <stop
         offset="0.4427"
         style="stop-color:#C0C1BF"
         id="stop140" />
      <stop
         offset="0.5127"
         style="stop-color:#A6A7A6"
         id="stop142" />
      <stop
         offset="0.5769"
         style="stop-color:#878787"
         id="stop144" />
      <stop
         offset="0.6"
         style="stop-color:#7A7A7A"
         id="stop146" />
      <stop
         offset="1"
         style="stop-color:#343732"
         id="stop148" />
    </linearGradient>
    <radialGradient
       id="SVGID_1_-3"
       cx="-19.067499"
       cy="480.04959"
       r="1"
       gradientTransform="matrix(-7.2191342,25.86842,25.86842,7.2191342,-12511.769,-2887.2055)"
       gradientUnits="userSpaceOnUse">
      <stop
         offset="1.562500e-02"
         style="stop-color:#FEFEFE"
         id="stop108" />
      <stop
         offset="1"
         style="stop-color:#0549A0"
         id="stop110" />
    </radialGradient>
  </defs>
  <sodipodi:namedview
     pagecolor="#ffffff"
     bordercolor="#666666"
     borderopacity="1"
     objecttolerance="10"
     gridtolerance="10"
     guidetolerance="10"
     inkscape:pageopacity="0"
     inkscape:pageshadow="2"
     inkscape:window-width="1366"
     inkscape:window-height="743"
     id="namedview97"
     showgrid="false"
     inkscape:pagecheckerboard="true"
     inkscape:zoom="1.3031825"
     inkscape:cx="203.89546"
     inkscape:cy="92.376387"
     inkscape:window-x="0"
     inkscape:window-y="0"
     inkscape:window-maximized="1"
     inkscape:current-layer="svg95" />
  <title
     id="title70">mainlogo</title>
  <path
     d="m 18.34379,197.17759 c -1.48168,0.67745 -3.00639,1.01619 -4.57413,1.01619 -1.51039,0 -2.92039,-0.27091 -4.2300298,-0.81298 -1.30965,-0.54194 -2.44244,-1.27748 -3.39837,-2.20649 -0.95594,-0.92913 -1.70635,-2.03238 -2.25124,-3.31 -0.54489,-1.27748 -0.81733,-2.65175 -0.81733,-4.12271 0,-1.47108 0.27722,-2.85017 0.83167,-4.1374 0.55445,-1.28722 1.30963,-2.39528 2.26557,-3.32441 0.95594,-0.92913 2.08874,-1.66456 3.39838,-2.20661 1.3096298,-0.54196 2.7100898,-0.81286 4.2013498,-0.81286 1.60598,0 3.16422,0.34354 4.67451,1.03062 1.51041,0.68719 2.73401,1.6114 3.67091,2.77272 l -2.81046,2.81639 c -0.70743,-0.89042 -1.53915,-1.57269 -2.49504,-2.04693 -0.95602,-0.47425 -1.96926,-0.71138 -3.03992,-0.71138 -0.89858,0 -1.74459,0.16943 -2.53802,0.50816 -0.79343,0.33873 -1.4769198,0.80324 -2.0504998,1.39364 -0.57356,0.59028 -1.02285,1.2871 -1.34787,2.09046 -0.32501,0.80324 -0.48752,1.6791 -0.48752,2.6276 0,0.92901 0.16728,1.79525 0.50187,2.59849 0.33457,0.80324 0.79343,1.49525 1.37655,2.07591 0.58312,0.58067 1.2713998,1.04036 2.0648298,1.37909 0.79342,0.33873 1.65855,0.50816 2.59538,0.50816 1.05153,0 2.03614,-0.22257 2.95381,-0.66784 0.91779,-0.44515 1.73027,-1.08389 2.4377,-1.91622 l 2.72439,2.72919 c -0.95589,1.14198 -2.17468,2.05175 -3.65649,2.72921 z m 53.958135,0.23232 c -1.300048,0.54194 -2.695785,0.81297 -4.187087,0.81297 -1.472065,0 -2.858184,-0.27103 -4.158232,-0.81297 -1.300173,-0.54195 -2.423396,-1.28242 -3.369794,-2.22117 -0.946398,-0.93876 -1.696735,-2.05175 -2.251257,-3.33885 -0.554398,-1.28723 -0.831596,-2.65669 -0.831596,-4.10829 0,-1.45173 0.277198,-2.82119 0.831596,-4.10842 0.554522,-1.2871 1.304859,-2.40009 2.251257,-3.33884 0.946398,-0.93876 2.069621,-1.67911 3.369794,-2.22116 1.300048,-0.54196 2.686167,-0.81286 4.158232,-0.81286 1.491302,0 2.887039,0.2709 4.187087,0.81286 1.300049,0.54205 2.423273,1.2824 3.369671,2.22116 0.946398,0.93875 1.696734,2.05174 2.251256,3.33884 0.554398,1.28723 0.831597,2.65669 0.831597,4.10842 0,1.4516 -0.277199,2.82106 -0.831597,4.10829 -0.554522,1.2871 -1.304858,2.40009 -2.251256,3.33885 -0.946398,0.93875 -2.069622,1.67922 -3.369671,2.22117 z m -4.187087,-3.04858 c -0.898554,0 -1.734961,-0.16943 -2.509342,-0.50816 -0.774258,-0.33873 -1.443457,-0.80324 -2.007474,-1.39364 -0.564016,-0.59028 -1.008422,-1.29203 -1.333466,-2.10488 -0.325043,-0.81299 -0.487564,-1.68404 -0.487564,-2.61305 0,-0.9485 0.162521,-1.82436 0.487564,-2.6276 0.325044,-0.80336 0.76945,-1.50018 1.333466,-2.09046 0.564017,-0.5904 1.233216,-1.05491 2.007474,-1.39364 0.774381,-0.33873 1.610788,-0.50816 2.509342,-0.50816 0.898678,0 1.739893,0.16943 2.52377,0.50816 0.783876,0.33873 1.457761,0.80324 2.021777,1.39364 0.564016,0.59028 1.008547,1.2871 1.33359,2.09046 0.324919,0.80324 0.487441,1.6791 0.487441,2.6276 0,0.92901 -0.162522,1.80006 -0.487441,2.61305 -0.325043,0.81285 -0.769574,1.5146 -1.33359,2.10488 -0.564016,0.5904 -1.237901,1.05491 -2.021777,1.39364 -0.783877,0.33873 -1.625092,0.50816 -2.52377,0.50816 z m 63.034182,-0.17424 v 3.71642 h -15.1415 v -20.32382 h 4.15835 v 16.6074 z m 52.4249,3.71642 v -3.71642 h -10.98438 v -16.6074 h -4.15798 v 20.32382 z m 52.82444,-3.65833 v 3.65833 h -15.54313 v -20.32382 h 15.42845 v 3.65822 h -11.27047 v 4.64542 h 7.42815 v 3.54218 h -7.42815 v 4.81967 z m 46.11517,3.9486 c 1.56726,0 3.0926,-0.33874 4.57354,-1.01619 1.48217,-0.67746 2.70046,-1.58723 3.65735,-2.72921 l -2.72513,-2.72919 c -0.7078,0.83233 -1.51918,1.47107 -2.43783,1.91622 -0.91742,0.44527 -1.90143,0.66784 -2.95325,0.66784 -0.93715,0 -1.80278,-0.16943 -2.59567,-0.50816 -0.79287,-0.33873 -1.48217,-0.79842 -2.06419,-1.37909 -0.58325,-0.58066 -1.04319,-1.27267 -1.37736,-2.07591 -0.33417,-0.80324 -0.50188,-1.66948 -0.50188,-2.59849 0,-0.9485 0.16277,-1.82436 0.48832,-2.6276 0.32429,-0.80336 0.77314,-1.50018 1.34776,-2.09046 0.57339,-0.5904 1.25652,-1.05491 2.05064,-1.39364 0.79287,-0.33873 1.63878,-0.50816 2.5377,-0.50816 1.07032,0 2.08393,0.23713 3.03957,0.71138 0.95564,0.47424 1.78798,1.15651 2.49455,2.04693 l 2.81144,-2.81639 c -0.93715,-1.16132 -2.16037,-2.08553 -3.67091,-2.77272 -1.51054,-0.68708 -3.06917,-1.03062 -4.67465,-1.03062 -1.49204,0 -2.8916,0.2709 -4.20115,0.81286 -1.30954,0.54205 -2.44275,1.27748 -3.3984,2.20661 -0.95687,0.92913 -1.71153,2.03719 -2.26642,3.32441 -0.55366,1.28723 -0.83111,2.66632 -0.83111,4.1374 0,1.47096 0.27252,2.84523 0.81755,4.12271 0.54502,1.27762 1.29474,2.38087 2.25039,3.31 0.95688,0.92901 2.08886,1.66455 3.3984,2.20649 1.30954,0.54207 2.7202,0.81298 4.23074,0.81298 z m 55.00453,-16.8978 v 16.60753 h -4.15798 v -16.60753 h -6.76845 v -3.71629 h 17.66528 v 3.71629 z m 47.63435,-3.71629 h -4.158 v 20.32382 h 4.158 z m 52.07964,19.83022 c -1.29969,0.54194 -2.69555,0.81297 -4.18636,0.81297 -1.4723,0 -2.85831,-0.27103 -4.15921,-0.81297 -1.29968,-0.54195 -2.42303,-1.28242 -3.36881,-2.22117 -0.94701,-0.93876 -1.69674,-2.05175 -2.25163,-3.33885 -0.55488,-1.28723 -0.83233,-2.65669 -0.83233,-4.10829 0,-1.45173 0.27745,-2.82119 0.83233,-4.10842 0.55489,-1.2871 1.30462,-2.40009 2.25163,-3.33884 0.94578,-0.93876 2.06913,-1.67911 3.36881,-2.22116 1.3009,-0.54196 2.68691,-0.81286 4.15921,-0.81286 1.49081,0 2.88667,0.2709 4.18636,0.81286 1.29967,0.54205 2.42302,1.2824 3.37004,2.22116 0.94577,0.93875 1.69673,2.05174 2.25162,3.33884 0.55366,1.28723 0.83111,2.65669 0.83111,4.10842 0,1.4516 -0.27745,2.82106 -0.83111,4.10829 -0.55489,1.2871 -1.30585,2.40009 -2.25162,3.33885 -0.94702,0.93875 -2.07037,1.67922 -3.37004,2.22117 z m -4.18636,-3.04858 c -0.89892,0 -1.73496,-0.16943 -2.50934,-0.50816 -0.77438,-0.33873 -1.44395,-0.80324 -2.00747,-1.39364 -0.56475,-0.59028 -1.00867,-1.29203 -1.33421,-2.10488 -0.3243,-0.81299 -0.48707,-1.68404 -0.48707,-2.61305 0,-0.9485 0.16277,-1.82436 0.48707,-2.6276 0.32554,-0.80336 0.76946,-1.50018 1.33421,-2.09046 0.56352,-0.5904 1.23309,-1.05491 2.00747,-1.39364 0.77438,-0.33873 1.61042,-0.50816 2.50934,-0.50816 0.8977,0 1.7399,0.16943 2.52292,0.50816 0.78424,0.33873 1.45751,0.80324 2.02226,1.39364 0.56353,0.59028 1.00868,1.2871 1.33297,2.09046 0.32555,0.80324 0.48832,1.6791 0.48832,2.6276 0,0.92901 -0.16277,1.80006 -0.48832,2.61305 -0.32429,0.81285 -0.76944,1.5146 -1.33297,2.10488 -0.56475,0.5904 -1.23802,1.05491 -2.02226,1.39364 -0.78302,0.33873 -1.62522,0.50816 -2.52292,0.50816 z m 51.8207,-10.04575 v 13.58793 h -3.92864 v -20.32382 h 3.95823 l 9.97942,13.15241 v -13.15241 h 3.90027 v 20.32382 h -3.67092 z"
     id="path89"
     inkscape:connector-curvature="0"
     style="clip-rule:evenodd;fill:#ffffff;fill-rule:evenodd;stroke-width:1.23309207" />
  <path
     d="m 404.84481,60.58431 c -9.18658,0 -16.85322,7.665661 -16.85322,16.852411 v 29.439189 c 0,9.18669 7.66664,16.85241 16.85322,16.85241 h 53.35373 c 9.18658,0 16.85206,-7.66572 16.85206,-16.85241 V 77.436721 c 0,-9.18675 -7.66548,-16.852411 -16.85206,-16.852411 z m 3.81774,17.901251 h 45.32239 v 27.341389 h -45.32239 z"
     id="path91"
     inkscape:connector-curvature="0"
     style="fill:#e2232e;stroke-width:1.15409315" />
  <path
     d="M 3.0726902,61.842375 V 123.79757 H 23.74296 V 79.743641 H 62.766308 V 123.79757 H 83.040954 V 78.694801 c 0,-9.18677 -7.665717,-16.852426 -16.852414,-16.852426 z"
     id="path93"
     inkscape:connector-curvature="0"
     style="fill:#e2232e;stroke-width:1.15409315" />
  <path
     d="M 97.025908,61.842375 V 78.135301 H 153.1775 v 4.4054 h -43.84446 c -9.18669,0 -16.852412,7.73565 -16.852412,16.922351 v 7.482098 c 0,9.1867 7.665722,16.85242 16.852412,16.85242 h 43.84446 9.16004 11.11853 V 78.694801 c 0,-9.18677 -7.66549,-16.852426 -16.85207,-16.852426 z m 16.572662,37.201046 h 39.57893 v 8.810809 h -39.57893 z"
     id="path95"
     inkscape:connector-curvature="0"
     style="fill:#e2232e;stroke-width:1.15409315" />
  <path
     d="m 186.18341,61.842375 v 61.955195 h 20.69866 V 79.743641 h 21.25724 v 44.053929 h 20.69866 V 79.743641 h 21.67733 v 44.053929 h 20.27857 V 78.694801 c 0,-9.18677 -7.66549,-16.852426 -16.85207,-16.852426 z"
     id="path97"
     inkscape:connector-curvature="0"
     style="fill:#e2232e;stroke-width:1.15409315" />
  <path
     d="m 319.67274,60.58431 c -9.18658,0 -16.85207,7.665661 -16.85207,16.852411 v 29.439189 c 0,9.18669 7.66549,16.85241 16.85207,16.85241 h 56.64174 V 105.82695 H 323.88634 V 78.485561 h 52.42814 V 60.58431 Z"
     id="path99"
     inkscape:connector-curvature="0"
     style="fill:#e2232e;stroke-width:1.15409315" />
  <path
     d="m 488.30536,61.156844 c 2.70173,2.3e-5 5.02146,0.968088 6.96265,2.904147 1.94003,1.93612 2.91062,4.26337 2.91062,6.98177 0,2.71841 -0.96598,5.04783 -2.89793,6.98832 -1.93195,1.94049 -4.25629,2.91074 -6.97534,2.91074 -2.72712,0 -5.0607,-0.96805 -7.00073,-2.90416 -1.94118,-1.93611 -2.91062,-4.26772 -2.91062,-6.9949 0,-2.72715 0.97175,-5.05657 2.91639,-6.98832 1.94581,-1.931702 4.27707,-2.897574 6.99496,-2.897597 z m -0.0254,18.159087 c 2.26318,0 4.20667,-0.81063 5.82702,-2.43213 1.6215,-1.62139 2.43283,-3.56846 2.43283,-5.84104 0,-2.27261 -0.80902,-4.21526 -2.42591,-5.82796 -1.61688,-1.61269 -3.56153,-2.41903 -5.83394,-2.41904 -2.27356,1e-5 -4.2159,0.80635 -5.82817,2.41904 -1.61342,1.6127 -2.41898,3.55535 -2.41898,5.82796 0,2.27258 0.80556,4.21965 2.41898,5.84104 1.61227,1.6215 3.55461,2.43213 5.82817,2.43213 z m 4.45711,-2.79267 h -1.96657 l -0.82634,-2.32065 c -0.49741,-1.38976 -1.43684,-2.08472 -2.81829,-2.08472 h -1.35029 v 4.40537 h -1.71729 v -10.63325 h 3.99893 c 2.81368,2e-5 4.22168,0.97464 4.22168,2.92381 0,1.87931 -0.92213,2.88887 -2.76637,3.02872 0.94405,0.28847 1.64228,0.96154 2.09699,2.01915 z m -6.96149,-5.88695 h 2.15008 c 1.68728,0 2.53092,-0.55503 2.53092,-1.66513 0,-1.09261 -0.87018,-1.63891 -2.6094,-1.63891 h -2.0716 z"
     id="path101"
     inkscape:connector-curvature="0"
     style="fill:#e2232e;stroke-width:1.15409315" />
</svg>
