<?xml version="1.0" encoding="UTF-8" standalone="no"?>
<!-- Created with Inkscape (http://www.inkscape.org/) -->

<svg
   xmlns:dc="http://purl.org/dc/elements/1.1/"
   xmlns:cc="http://creativecommons.org/ns#"
   xmlns:rdf="http://www.w3.org/1999/02/22-rdf-syntax-ns#"
   xmlns:svg="http://www.w3.org/2000/svg"
   xmlns="http://www.w3.org/2000/svg"
   xmlns:sodipodi="http://sodipodi.sourceforge.net/DTD/sodipodi-0.dtd"
   xmlns:inkscape="http://www.inkscape.org/namespaces/inkscape"
   width="500"
   height="200"
   viewBox="0 0 500 200"
   version="1.1"
   id="svg8"
   inkscape:version="0.92.5 (2060ec1f9f, 2020-04-08)"
   sodipodi:docname="neogeocd.svg">
  <defs
     id="defs2" />
  <sodipodi:namedview
     id="base"
     pagecolor="#ffffff"
     bordercolor="#666666"
     borderopacity="1.0"
     inkscape:pageopacity="0.0"
     inkscape:pageshadow="2"
     inkscape:zoom="0.98030868"
     inkscape:cx="415.79012"
     inkscape:cy="40.017075"
     inkscape:document-units="mm"
     inkscape:current-layer="layer1"
     showgrid="false"
     units="px"
     inkscape:pagecheckerboard="true"
     inkscape:window-width="1366"
     inkscape:window-height="743"
     inkscape:window-x="0"
     inkscape:window-y="0"
     inkscape:window-maximized="1" />
  <metadata
     id="metadata5">
    <rdf:RDF>
      <cc:Work
         rdf:about="">
        <dc:format>image/svg+xml</dc:format>
        <dc:type
           rdf:resource="http://purl.org/dc/dcmitype/StillImage" />
        <dc:title />
      </cc:Work>
    </rdf:RDF>
  </metadata>
  <g
     inkscape:label="Layer 1"
     inkscape:groupmode="layer"
     id="layer1"
     transform="translate(-17.077482,-244.85252)">
    <path
       inkscape:connector-curvature="0"
       id="path493"
       d="m 88.835674,432.58684 c -2.009657,-2.25463 -9.27098,-11.08607 -16.13627,-19.62553 L 60.217061,397.43504 59.914587,412.9403 c -0.166365,8.52793 -0.05675,16.14565 0.24355,16.92829 0.300346,0.78266 1.77966,1.89195 3.287415,2.46526 5.330541,2.02662 2.868783,3.26682 -6.484717,3.26682 -5.427108,0 -9.226078,-0.44694 -9.226078,-1.08539 0,-0.59702 0.396331,-1.08544 0.88075,-1.08544 0.484414,0 1.949735,-0.9959 3.256262,-2.21311 2.273422,-2.11805 2.375512,-3.05097 2.375512,-21.70845 0,-17.61488 -0.19631,-19.69157 -2.035166,-21.53044 -1.119339,-1.11941 -2.706767,-2.3033 -3.527617,-2.63092 -3.293504,-1.31471 1.92863,-2.899 9.609299,-2.91529 l 7.845492,-0.0154 11.149383,14.05126 c 6.132164,7.72822 11.515714,14.07797 11.963447,14.11047 0.447737,0.0309 0.814069,-4.792 0.814069,-10.72115 V 389.0765 l -3.339893,-2.37821 c -1.962603,-1.39746 -2.939732,-2.77832 -2.369519,-3.34857 0.536236,-0.53623 13.806713,-0.84072 29.661354,-0.68061 l 28.691,0.28939 0.31891,7.86936 c 0.25682,6.33582 0.009,7.86927 -1.27259,7.86927 -0.87533,0 -2.1585,-1.71804 -2.85152,-3.81787 -1.58085,-4.79006 -5.71986,-7.03637 -12.96492,-7.03637 h -5.481 v 9.22612 c 0,5.80651 0.42877,9.22607 1.15679,9.22607 2.82424,0 5.37822,-2.53672 6.57471,-6.53024 0.71252,-2.3782 1.95084,-4.32396 2.75182,-4.32396 1.13684,0 1.45632,2.84328 1.45632,12.961 0,7.14396 -0.46944,13.25109 -1.04598,13.60738 -0.57528,0.35556 -2.16271,-1.69147 -3.52762,-4.54895 -1.7198,-3.60052 -3.23136,-5.30192 -4.92384,-5.54227 -2.36928,-0.3362 -2.4422,-0.0696 -2.4422,8.93402 0,9.0009 0.0821,9.30148 2.7207,9.96376 6.93721,1.74111 15.87992,-2.14756 18.99914,-8.26178 3.91733,-7.67861 5.58056,-5.34691 3.82502,5.3624 l -1.17082,7.1423 -22.49851,0.29326 c -15.109,0.19693 -22.498531,-0.0793 -22.498531,-0.8409 0,-0.62387 1.154331,-1.57319 2.565181,-2.10959 1.41085,-0.53643 2.8695,-2.1117 3.24144,-3.50077 0.86939,-3.24671 0.88502,-36.47993 0.019,-39.71298 -0.78539,-2.93103 -4.73703,-4.17458 -7.895039,-2.48444 -2.194287,1.17427 -2.271937,1.99054 -2.271937,23.88276 0,21.86194 -0.350874,26.10072 -2.160666,26.10072 -0.463646,0 -2.487262,-1.84475 -4.49692,-4.0993 z m 79.380816,3.01383 c -0.89547,-0.57876 -2.6392,-1.05967 -3.87495,-1.0688 -3.53563,-0.0271 -11.36579,-7.49851 -14.17159,-13.524 -7.55068,-16.21525 1.63796,-35.06688 18.83792,-38.64843 15.62618,-3.25378 30.13754,4.98126 33.87373,19.22304 l 1.1843,4.51428 3.15752,-3.15744 c 3.91973,-3.91978 7.93396,-4.07389 11.56384,-0.444 1.49245,1.4924 2.85826,2.71356 3.03512,2.71356 0.17681,0 0.92121,-2.00148 1.65411,-4.44767 1.62188,-5.41334 8.75561,-13.39424 14.66896,-16.41109 6.04628,-3.08451 16.45859,-3.77137 23.29177,-1.53635 6.4352,2.10486 8.48007,2.2159 9.05488,0.49139 0.24324,-0.72968 1.236,-0.97021 2.30725,-0.55914 1.60047,0.61416 1.83311,1.97611 1.56304,9.14997 -0.37509,9.96293 -1.55735,10.63426 -6.10341,3.46584 -3.73022,-5.88192 -8.7804,-8.60515 -15.9582,-8.60515 -4.45633,0 -5.60546,0.49898 -8.69572,3.77559 -7.08626,7.51364 -7.93562,28.60125 -1.48245,36.80511 2.67576,3.40165 8.73275,5.42472 13.54105,4.52263 l 3.72823,-0.69938 v -7.02937 c 0,-6.43874 -0.2273,-7.13278 -2.70507,-8.26182 -2.0992,-0.95644 -2.4341,-1.55903 -1.49523,-2.69027 0.86226,-1.03893 4.27168,-1.45778 11.8671,-1.45778 11.30224,0 14.24868,1.23025 9.88522,4.12751 -2.00006,1.32798 -2.35613,2.59049 -2.35613,8.35432 0,7.77778 -0.91338,8.99828 -7.88915,10.54152 -15.58319,3.44754 -28.01284,1.5398 -35.81844,-5.49746 -4.57387,-4.12367 -8.32784,-10.88972 -8.36879,-15.08365 -0.0294,-2.997 -0.55931,-3.03237 -4.06934,-0.27083 -4.01726,3.16003 -8.26302,2.79307 -11.44546,-0.98906 l -2.65889,-3.15992 -1.29649,5.79332 c -1.37296,6.13502 -5.96934,13.46009 -10.17539,16.21594 -6.19521,4.05926 -20.79562,6.33865 -24.64934,3.84817 z m 13.90769,-5.70495 c 3.82026,-3.16039 5.58222,-9.75346 5.58222,-20.88785 0,-15.99096 -3.34569,-22.25119 -11.89196,-22.25119 -4.99365,0 -7.56131,1.80567 -9.77853,6.87674 -4.1106,9.40146 -3.62498,27.16002 0.90982,33.27141 3.94015,5.31004 10.75254,6.65238 15.17845,2.99089 z m 160.98989,5.08716 c -6.7089,-2.10707 -11.11535,-5.83371 -14.71236,-12.44253 -7.43305,-13.65698 -2.06533,-31.01213 11.85407,-38.32711 3.15492,-1.65803 2.90156,-1.71267 -8.14066,-1.75665 l -11.39693,-0.0453 v 7.77619 c 0,8.87044 -1.70729,10.84747 -4.20505,4.86953 -2.28379,-5.46585 -5.82043,-7.40226 -12.79162,-7.00361 l -5.79717,0.33158 -0.32232,8.03544 c -0.17724,4.4195 0.16401,8.52178 0.75834,9.11608 1.73508,1.73507 6.44527,-2.06675 7.47265,-6.03163 0.50196,-1.93711 1.61425,-3.52194 2.47177,-3.52194 1.26862,0 1.55914,2.42699 1.55914,13.02507 0,10.17737 -0.31872,13.02502 -1.45769,13.02502 -0.80173,0 -2.11258,-1.90495 -2.91298,-4.23316 -1.55736,-4.53007 -3.32761,-6.25303 -5.94083,-5.78236 -1.2823,0.23135 -1.62814,2.08385 -1.62814,8.72271 0,9.9396 0.80095,10.88238 8.5493,10.06294 6.51071,-0.68848 9.64201,-2.65603 13.20174,-8.2949 3.63676,-5.76101 5.17023,-4.61615 4.22809,3.15663 -1.28186,10.57576 0.28881,9.93587 -24.38918,9.93587 -21.54963,0 -25.11227,-0.64905 -18.95668,-3.45372 l 2.71355,-1.23637 v -21.55748 -21.55745 l -2.71355,-1.23639 c -1.49246,-0.67997 -2.71356,-1.89067 -2.71356,-2.69027 0,-1.15133 3.44266,-1.45395 16.54224,-1.45395 h 16.54224 L 289.7732,361.23896 268.61792,340.06279 v -29.35066 -29.35061 l 17.49472,-17.31202 c 9.6221,-9.52158 18.11265,-17.31201 18.86791,-17.31201 0.75524,0 9.76286,8.30348 20.01694,18.45215 10.25406,10.14866 19.10965,18.45211 19.6791,18.45211 0.56943,0 7.8604,-6.83812 16.20213,-15.19581 L 376.04556,253.25 h 25.56253 25.56254 l 18.68298,18.79382 18.68294,18.79382 v 25.94336 25.94335 l -17.91987,17.91987 -17.91983,17.91986 -14.10094,-14.06956 -14.10091,-14.06961 -15.46641,15.38977 c -10.02069,9.97092 -16.57745,15.6594 -18.62171,16.1555 l -3.15518,0.76576 3.85805,1.9793 c 5.21868,2.67739 11.46354,10.20369 12.91084,15.56028 2.0649,7.64228 2.22062,7.75244 3.58474,2.53721 2.36647,-9.04771 9.58441,-17.06084 18.31874,-20.33695 4.01577,-1.50621 14.70122,-1.46474 19.11588,0.0747 2.59149,0.90344 3.81733,0.90344 4.72069,0 1.71757,-1.71754 34.4505,-1.62766 40.25206,0.11027 9.41071,2.81949 15.89057,13.36546 15.89057,25.86168 0,11.51824 -4.71543,19.83689 -13.56773,23.93542 -5.90749,2.73507 -38.53244,3.0989 -38.53244,0.42949 0,-2.15856 -2.1565,-2.06018 -5.45289,0.24878 -2.08362,1.45944 -4.97387,1.87663 -12.99523,1.87596 -11.10411,-8.8e-4 -16.31855,-1.75131 -21.37383,-7.17483 -2.71902,-2.91711 -6.79209,-11.39807 -6.82745,-14.21613 -0.0387,-2.82828 -2.19075,-2.30101 -2.2185,0.54266 -0.041,4.00985 -3.77685,11.03844 -8.10597,15.24282 -6.80165,6.60569 -19.09356,8.91243 -29.71522,5.57654 z m 14.90648,-4.19181 c 4.94295,-2.55606 7.19991,-9.2024 7.19991,-21.20228 0,-12.13424 -0.65039,-14.99104 -4.43783,-19.49217 -2.34005,-2.78095 -3.59548,-3.33994 -7.5018,-3.33994 -3.9063,0 -5.16173,0.55899 -7.50177,3.33994 -3.81354,4.53213 -4.43821,7.34822 -4.43575,19.99664 0.002,12.20362 1.91429,17.89689 6.92449,20.6197 3.65295,1.98511 6.02822,2.00414 9.75275,0.0777 z m 53.33028,1.02523 c 0,-0.29018 -1.63687,-1.21217 -3.63758,-2.04806 -6.5297,-2.72831 -10.50182,-11.05671 -10.41914,-21.84584 0.0727,-9.47791 3.36683,-15.9751 10.25777,-20.23164 l 3.25629,-2.01142 -3.02818,-0.004 c -3.91382,-0.004 -10.31352,3.31003 -13.94328,7.22311 -4.6408,5.00329 -6.5822,9.91484 -6.5822,16.65241 0,8.84463 3.78026,15.77148 10.52604,19.28754 4.71869,2.45952 13.57028,4.40208 13.57028,2.97812 z m 40.16065,-1.57864 c 0,-0.56174 -0.50652,-1.33445 -1.12564,-1.71712 -0.72279,-0.44663 -1.07974,-8.33645 -0.99722,-22.04382 l 0.12846,-21.34813 h -4.54106 -4.54102 l -0.16018,23.06525 -0.16017,23.0653 5.69849,-5e-5 c 3.13415,-3e-5 5.69845,-0.45971 5.69845,-1.02143 z m 16.05321,-2.11945 c 7.47565,-3.8154 11.08233,-10.30737 11.08233,-19.94781 0,-11.0634 -6.85284,-20.2966 -16.40584,-22.10464 l -3.67449,-0.69548 2.92735,3.1354 c 4.76806,5.10692 6.58967,10.81861 6.53888,20.50219 -0.0515,9.77129 -1.26059,13.84521 -5.39664,18.18075 -2.33905,2.45194 -2.51285,2.98492 -0.97308,2.98492 1.03087,0 3.6866,-0.92487 5.90149,-2.05533 z m -31.7918,-19.4722 c 0,-11.68464 -0.405,-18.64077 -1.08544,-18.65369 -0.59698,-0.0116 -1.32964,2.79721 -1.62812,6.24115 -0.50313,5.80519 -0.73998,6.26185 -3.24776,6.26185 -2.0267,0 -3.15396,-0.95258 -4.49563,-3.79896 -2.77128,-5.87932 -5.90417,-8.14068 -11.27801,-8.14068 -8.70946,0 -13.21143,7.64263 -12.17704,20.67203 0.64562,8.13183 2.96861,12.80214 7.24986,14.57544 5.24579,2.17287 10.45617,0.55287 16.54775,-5.14511 5.97639,-5.59024 7.54951,-5.17789 7.3157,1.91756 -0.17603,5.33399 -0.0835,5.66421 1.44192,5.15579 1.01514,-0.33814 1.35677,-5.14376 1.35677,-19.08538 z m 25.4111,13.82702 c 5.95771,-9.7967 2.18077,-32.46005 -5.40959,-32.46005 -1.98129,0 -2.09206,0.94839 -2.09206,17.90942 v 17.9095 h 2.72954 c 1.88758,0 3.35948,-1.03603 4.77211,-3.35887 z m -32.03802,-32.90942 c -0.40544,-1.05611 -1.95278,-1.72149 -4.00382,-1.72149 h -3.34319 l 3.13554,3.27286 c 2.49508,2.60429 3.31294,2.95587 4.00381,1.72136 0.47751,-0.85326 0.57099,-2.32605 0.20777,-3.27273 z m -375.769515,-24.78667 0.328048,-5.69849 21.982701,-0.54269 c 27.552636,-0.6802 29.528566,-2.4918 3.551721,-3.25631 l -18.441062,-0.54266 -3.393775,-3.39561 c -5.958464,-5.96166 -5.488241,-17.09578 0.935402,-22.14858 2.529179,-1.98945 4.508848,-2.13403 29.216183,-2.13403 h 26.503167 l -0.32809,5.69841 -0.32805,5.69845 -21.165722,0.27857 c -23.275191,0.30641 -24.840027,0.51201 -22.783188,2.99039 1.089382,1.31257 4.752057,1.61527 19.54739,1.61527 H 107.208 l 3.48671,3.97116 c 3.26191,3.71508 3.45639,4.39033 3.01642,10.47285 -0.40849,5.64696 -0.92566,6.90854 -3.9341,9.5966 l -3.46382,3.09493 H 79.680782 53.048357 Z m 65.393895,4.30672 c -0.29373,-0.76544 -0.40052,-10.41211 -0.23728,-21.43705 l 0.29675,-20.04535 7.80898,-0.31725 7.80897,-0.31725 14.29033,13.21333 c 10.84671,10.02935 14.51908,12.85233 15.23961,11.7147 0.52211,-0.82439 0.95677,-6.77189 0.96591,-13.2167 l 0.0166,-11.71787 7.32659,0.32112 7.3266,0.32112 v 21.16572 21.16568 l -8.14067,0.28398 -8.14065,0.28359 -13.02506,-12.44117 c -7.16378,-6.84262 -13.87983,-12.46512 -14.92454,-12.49448 -1.70202,-0.0483 -1.8995,1.24432 -1.8995,12.42902 v 12.4823 h -7.08933 c -4.76503,0 -7.26439,-0.45627 -7.62335,-1.39166 z m 65.31874,-0.27818 c -1.01083,-2.63417 -0.78468,-38.81027 0.25288,-40.44598 0.6224,-0.98132 3.02186,-1.31288 7.85268,-1.08543 l 6.9564,0.32809 0.31702,8.41193 c 0.1916,5.08336 0.7791,8.41205 1.48476,8.41205 0.64227,0 6.30012,-3.90756 12.57303,-8.68338 l 11.40529,-8.68338 h 9.22264 c 11.05987,0 11.2009,-0.35207 -4.62738,11.55066 -6.23863,4.69132 -11.34776,9.26232 -11.35365,10.15779 -0.005,0.8955 5.72484,6.02407 12.73494,11.3969 l 12.74564,9.76885 -9.53405,0.31416 -9.53405,0.31416 -11.26844,-8.72613 c -6.19764,-4.79938 -11.77767,-8.72613 -12.40008,-8.72613 -0.66061,0 -1.26358,3.50127 -1.44865,8.41201 l -0.31702,8.41201 -7.19261,0.31764 c -5.83161,0.25728 -7.32064,-0.0155 -7.8693,-1.44555 z"
       style="fill:#a0a0a0;stroke-width:1.08542132" />
    <path
       inkscape:connector-curvature="0"
       id="path491"
       d="m 78.126535,418.0436 c -8.357744,-10.41609 -16.050663,-19.71665 -17.095382,-20.66778 -1.801879,-1.64045 -1.899493,-0.84576 -1.899493,15.46431 0,16.15927 0.141991,17.34487 2.360056,19.70586 l 2.36004,2.5121 h -6.237797 -6.237806 l 2.249621,-2.85989 c 2.080462,-2.64489 2.249628,-4.28261 2.249628,-21.77976 0,-10.84696 -0.474789,-19.80705 -1.112713,-20.999 -0.611989,-1.14354 -2.443639,-2.80138 -4.070326,-3.68415 -2.804857,-1.52217 -2.470518,-1.60729 6.472941,-1.64853 l 9.430563,-0.0437 11.590179,14.65317 c 6.374596,8.05923 12.021749,14.65319 12.549225,14.65319 0.527472,0 0.959034,-5.37288 0.959034,-11.93968 0,-10.49237 -0.263127,-12.20268 -2.170845,-14.11042 -1.19396,-1.19396 -2.170841,-2.41514 -2.170841,-2.7136 0,-0.29829 2.771561,-0.54266 6.159023,-0.54266 h 6.159025 l -2.323371,2.47311 c -2.218823,2.36176 -2.328534,3.53332 -2.438076,26.03428 -0.06311,12.9586 -0.445923,23.7569 -0.85075,23.99616 -0.404808,0.2391 -7.574185,-8.08718 -15.931935,-18.50327 z m 90.321695,17.6974 c -15.9511,-4.46051 -23.97483,-23.29081 -16.40082,-38.48989 7.77562,-15.60356 29.2616,-19.16984 42.70026,-7.08731 10.75269,9.6676 11.70666,25.33423 2.2683,37.25119 -5.84678,7.3821 -18.62502,11.1063 -28.56774,8.32601 z m 15.71126,-6.13027 c 1.60485,-1.71618 3.43378,-4.97798 4.06427,-7.24847 1.49224,-5.37368 1.47172,-20.32305 -0.0355,-25.75107 -3.35262,-12.07525 -16.76197,-14.28979 -22.25119,-3.67487 -4.19066,8.10388 -3.98286,27.30557 0.37538,34.68341 3.9948,6.76272 12.49757,7.71123 17.84688,1.991 z m 60.03653,6.16787 c -13.67254,-4.53804 -20.33122,-12.73161 -20.38522,-25.08422 -0.0869,-19.88424 17.72939,-31.86261 38.87725,-26.13812 5.20416,1.40872 7.41444,1.59245 8.48325,0.70546 0.79497,-0.65973 1.7668,-0.87817 2.15961,-0.48535 1.03181,1.03181 0.8811,14.46284 -0.1623,14.46284 -0.48206,0 -2.36177,-2.10718 -4.1771,-4.68262 -4.28688,-6.08187 -9.84317,-8.75167 -16.81862,-8.08141 -3.0375,0.29172 -6.27093,1.38299 -7.60276,2.56565 -8.77765,7.79407 -9.72975,31.99435 -1.57942,40.1447 3.89229,3.89228 10.47267,5.54312 15.09311,3.78635 2.76935,-1.05282 2.93621,-1.51126 2.93621,-8.06551 0,-4.94734 -0.48381,-7.35069 -1.67951,-8.34303 -1.34147,-1.11337 -1.39609,-1.57374 -0.27137,-2.28716 1.65158,-1.04768 13.99759,-1.23377 16.56214,-0.24994 1.56688,0.60127 1.58331,0.8762 0.14705,2.46328 -0.9875,1.09111 -1.74498,4.52399 -1.94634,8.82057 l -0.32964,7.0342 -5.91232,1.96033 c -7.93561,2.63114 -17.99722,3.26492 -23.39406,1.47367 z m 100.92148,-0.50493 c -7.81658,-2.70284 -11.59258,-5.77259 -15.1872,-12.34662 -2.64939,-4.84543 -3.15555,-7.00514 -3.13503,-13.37629 0.0389,-12.10844 5.04502,-19.54838 16.7168,-24.84442 l 5.96982,-2.7088 -18.96397,-0.0619 -18.96395,-0.0626 -20.92528,-20.92522 -20.92528,-20.92534 V 311.3552 282.68794 l 17.89071,-17.97491 17.89068,-17.97496 19.296,19.26618 c 10.61279,10.59649 19.78603,19.26626 20.38495,19.26626 0.59893,0 7.91403,-6.83821 16.25577,-15.1959 l 15.16681,-15.19594 h 25.56367 25.56365 l 18.13904,18.25311 18.13916,18.25313 v 25.94026 25.94026 l -17.37771,17.37767 -17.37774,17.37772 -14.08381,-14.05255 -14.08378,-14.05251 -16.1071,15.97862 -16.10711,15.97863 -5.34569,0.05 -5.34565,0.0491 6.53662,3.02733 c 10.77387,4.98967 15.97604,13.00689 15.98231,24.63082 0.008,12.34813 -7.3824,22.50318 -18.85228,25.9094 -7.16524,2.12783 -9.9183,2.084 -16.71441,-0.2658 z m 13.01867,-2.84701 c 6.37755,-2.66473 8.63695,-8.64604 8.64123,-22.8759 0.004,-12.75707 -1.37415,-17.45021 -6.28713,-21.41298 -3.28213,-2.64732 -10.52536,-2.49791 -13.50567,0.27818 -5.06887,4.72232 -6.16446,8.47171 -6.17559,21.13422 -0.0124,13.99084 1.93061,19.32391 8.20466,22.52081 4.49592,2.29092 4.49016,2.29065 9.1225,0.35478 z m 44.18687,1.65262 c -10.79084,-3.72695 -17.5173,-12.93721 -17.5173,-23.98586 0,-18.76198 16.95417,-30.81177 36.44646,-25.90347 3.65004,0.91907 5.20577,0.91907 6.12484,0 1.60009,-1.60012 32.33556,-1.65529 38.05037,-0.0684 2.28093,0.63338 6.00797,2.83269 8.28225,4.88741 13.31524,12.02947 11.02703,34.22212 -4.32486,41.94597 -5.56815,2.80134 -6.8365,2.98972 -20.58684,3.05689 -8.05933,0.0387 -15.2638,0.0472 -16.01004,0.0155 -2.2111,-0.0901 -1.62639,-4.39706 0.59701,-4.39706 4.13548,0 4.55878,-1.97309 4.55878,-21.2499 0,-14.14602 -0.34666,-18.9326 -1.43689,-19.83736 -2.46359,-2.04458 -3.9902,0.88467 -3.9902,7.65629 0,5.39939 -0.28552,6.29548 -2.00604,6.29548 -1.29176,0 -2.70598,-1.55234 -3.97217,-4.36019 -4.97488,-11.03237 -18.51909,-11.45137 -23.38962,-0.7236 -2.30547,5.07798 -2.76633,15.15712 -0.98615,21.56669 1.47754,5.31987 6.60494,9.56719 11.54971,9.56719 5.02511,0 10.83081,-2.83628 13.67208,-6.67934 3.52264,-4.76452 5.56811,-4.09945 4.68548,1.52359 -0.84238,5.36704 -3.063,7.45121 -11.26229,10.57034 -7.03309,2.67557 -11.00846,2.70114 -18.48458,0.11916 z m 20.17159,-2.78924 c 5.24521,-2.44195 7.91532,-5.21289 6.44242,-6.6858 -0.32539,-0.32537 -2.01651,0.4621 -3.7583,1.74981 -6.29385,4.65325 -15.11914,4.79734 -20.05835,0.3277 -3.53896,-3.20268 -5.106,-7.35665 -5.71435,-15.14781 -0.76296,-9.77016 1.73023,-17.18975 6.94963,-20.68139 6.76256,-4.52412 16.43543,-2.60497 20.36051,4.03963 2.80131,4.74232 4.71833,4.191 4.69837,-1.35127 -0.0232,-5.30672 -1.3033,-7.9805 -3.2539,-6.77498 -0.73839,0.45631 -4.82771,-0.0349 -9.08745,-1.09898 -7.3212,-1.82312 -8.09039,-1.82823 -14.05785,-0.0936 -13.07595,3.80123 -20.99707,16.82232 -18.10236,29.7574 1.06063,4.73939 2.3705,6.98944 6.43471,11.05365 7.90897,7.90898 18.76964,9.73693 29.14692,4.90571 z m 46.38218,-1.70721 c 13.89995,-7.15472 15.57172,-29.67929 2.9734,-40.0638 -4.78639,-3.94539 -11.52927,-5.47571 -24.12704,-5.47571 -8.88597,0 -12.53938,1.00782 -9.79714,2.70261 0.68581,0.42388 1.10315,8.64001 1.10315,21.71936 0,13.07935 -0.41746,21.29544 -1.10315,21.71939 -0.60673,0.37452 -0.79139,1.18615 -0.41019,1.80259 0.43476,0.70372 5.40125,0.97873 13.34426,0.73908 10.97906,-0.33118 13.36078,-0.7469 18.01694,-3.14352 z m -17.38285,-2.39402 c -0.3308,-1.34322 -0.46227,-10.74564 -0.29212,-20.89434 0.30256,-18.02913 0.36408,-18.4599 2.67832,-18.78938 3.98176,-0.56688 8.65564,2.68126 11.08789,7.7055 1.74775,3.61042 2.28198,6.78849 2.28198,13.57544 0,13.97006 -3.91839,20.84497 -11.88075,20.84497 -2.49322,0 -3.41724,-0.58235 -3.87532,-2.44219 z m 10.25524,-2.36369 c 3.0928,-3.29212 4.92645,-12.71609 3.96448,-20.37537 -1.1116,-8.85067 -6.57768,-16.26306 -10.79838,-14.64342 -1.54367,0.59234 -1.77573,2.99774 -1.77573,18.40782 0,11.28943 0.42728,18.15382 1.177,18.90335 1.59537,1.5954 4.6716,0.64662 7.43263,-2.29238 z m -357.02984,9.23613 c 0,-0.57519 0.48844,-1.34778 1.08542,-1.71669 0.66617,-0.41141 1.08543,-9.21601 1.08543,-22.7938 0,-13.5779 -0.41929,-22.38215 -1.08543,-22.79392 -3.41914,-2.11318 0.54352,-2.71352 17.90946,-2.71352 h 18.99487 v 6.51251 c 0,3.58191 -0.23167,6.51251 -0.51484,6.51251 -0.28312,0 -1.2683,-1.45704 -2.18921,-3.23784 -2.35809,-4.56005 -7.08712,-6.70824 -13.90091,-6.31446 l -5.64617,0.32615 -0.31389,9.5152 c -0.24908,7.55207 0.0131,9.64076 1.27196,10.12376 2.57349,0.98754 6.14993,-1.61552 8.08853,-5.88718 l 1.80759,-3.98297 0.32805,5.69846 c 0.18041,3.13419 0.18041,8.20997 0,11.27967 l -0.32805,5.58119 -2.7235,-4.22442 c -1.96592,-3.04932 -3.47554,-4.22447 -5.42711,-4.22447 -2.6499,0 -2.70981,0.18765 -3.01634,9.43716 -0.29029,8.75956 -0.14218,9.52837 2.06215,10.70813 2.87579,1.53902 10.52272,0.66077 15.16967,-1.74223 1.82266,-0.94256 4.37854,-3.51506 5.67976,-5.71668 l 2.36586,-4.00297 0.33168,3.41455 c 0.18242,1.87794 -0.0924,5.05284 -0.61081,7.05521 l -0.94249,3.64071 -19.74085,0.29597 c -12.14368,0.18184 -19.74085,-0.10714 -19.74085,-0.75003 z m 178.38359,-0.98809 c 2.56161,-2.83055 2.71168,-43.6627 0.16826,-45.77358 -0.89547,-0.74319 -1.62813,-1.79114 -1.62813,-2.3288 0,-0.55423 8.34345,-0.84924 19.26623,-0.68117 l 19.26624,0.29637 0.32553,6.24122 c 0.31865,6.10941 -1.10124,8.46594 -2.48123,4.11799 -0.37064,-1.16772 -2.15055,-3.36572 -3.95539,-4.8844 -2.70714,-2.27791 -4.40691,-2.76118 -9.71079,-2.76118 h -6.42925 v 9.70471 c 0,5.57151 0.48262,10.00296 1.13316,10.40502 1.77176,1.09503 6.61498,-2.64134 7.92599,-6.1146 2.1088,-5.58687 2.88049,-3.37507 2.88049,8.25602 0,10.85111 -1.1337,14.59153 -2.62349,8.65568 -0.89762,-3.57633 -4.40666,-7.02759 -7.1453,-7.02759 -2.00942,0 -2.17085,0.7236 -2.17085,9.73058 0,11.57616 0.93864,12.63297 10.13479,11.41072 4.91435,-0.65315 6.25725,-1.43197 10.9147,-6.32997 l 5.3109,-5.58526 -0.75968,5.42713 c -1.41157,10.08429 0.63893,9.22607 -22.04311,9.22607 -19.47683,0 -20.11317,-0.0689 -18.37901,-1.98499 z m -74.55762,-19.53758 c -2.63416,-2.91068 -2.31098,-8.38574 0.616,-10.43586 5.00487,-3.50553 11.69813,-0.43568 11.69813,5.36557 0,5.94358 -8.39544,9.40037 -12.31413,5.07029 z m -154.626136,-48.21579 0.328048,-5.69848 21.982701,-0.54271 c 27.552637,-0.68019 29.528567,-2.49175 3.551721,-3.25626 l -18.441069,-0.54273 -3.393768,-3.39558 c -5.958468,-5.96165 -5.488241,-17.09574 0.935402,-22.14858 2.529179,-1.98949 4.508844,-2.13403 29.216179,-2.13403 h 26.503172 l -0.32809,5.69845 -0.32805,5.69845 -21.165718,0.27857 c -23.275196,0.30642 -24.840032,0.51198 -22.783193,2.99026 1.089382,1.31266 4.752054,1.61533 19.547394,1.61533 h 18.206817 l 3.4867,3.97116 c 3.26192,3.71508 3.4564,4.39036 3.01642,10.47285 -0.40849,5.64699 -0.92565,6.90858 -3.9341,9.59664 l -3.46381,3.09484 H 80.223517 53.591092 Z m 65.393896,4.30676 c -0.29373,-0.76547 -0.40053,-10.4121 -0.23728,-21.43705 l 0.29675,-20.04538 7.80897,-0.31725 7.80898,-0.31726 14.29033,13.21337 c 10.8467,10.02931 14.51908,12.85225 15.2396,11.71466 0.52211,-0.82439 0.95678,-6.77185 0.9659,-13.2167 l 0.0166,-11.71783 7.32659,0.32112 7.3266,0.32112 v 21.16572 21.16572 l -8.14066,0.28398 -8.14066,0.28358 -13.02506,-12.44117 c -7.16378,-6.84256 -13.87982,-12.46511 -14.92455,-12.49443 -1.702,-0.0483 -1.89948,1.24433 -1.89948,12.42898 v 12.48238 h -7.08931 c -4.76503,0 -7.26439,-0.45631 -7.62335,-1.39175 z m 65.31874,-0.27818 c -1.01082,-2.63414 -0.78469,-38.81027 0.25287,-40.44594 0.62241,-0.98132 3.02186,-1.31297 7.85269,-1.08543 l 6.9564,0.32808 0.31702,8.41202 c 0.19158,5.08324 0.7791,8.41197 1.48476,8.41197 0.64226,0 6.30012,-3.90748 12.57303,-8.68334 l 11.40529,-8.68339 h 9.22264 c 11.05987,0 11.20089,-0.35207 -4.62739,11.55066 -6.23862,4.69125 -11.34775,9.2623 -11.35364,10.15776 -0.005,0.89551 5.72484,6.0241 12.73493,11.39691 l 12.74564,9.76885 -9.53405,0.31415 -9.53405,0.31416 -11.26844,-8.72616 c -6.19763,-4.79936 -11.77766,-8.72614 -12.40006,-8.72614 -0.66063,0 -1.26359,3.50131 -1.44866,8.41205 l -0.31702,8.41194 -7.19261,0.31802 c -5.83162,0.25728 -7.32066,-0.0155 -7.86931,-1.44556 z"
       style="fill:#f6c500;stroke-width:1.08542132" />
    <path
       inkscape:connector-curvature="0"
       id="path489"
       d="M 78.128175,418.0436 C 69.77044,407.62751 62.077489,398.32695 61.032781,397.37582 c -1.80189,-1.64045 -1.899489,-0.84576 -1.899489,15.46431 0,16.15927 0.141913,17.34487 2.360056,19.70586 l 2.360068,2.5121 h -6.23784 -6.237791 l 2.249625,-2.85989 c 2.080482,-2.64489 2.249617,-4.28261 2.249617,-21.77976 0,-10.84696 -0.474762,-19.80705 -1.112686,-20.999 -0.611989,-1.14354 -2.443663,-2.80138 -4.070341,-3.68415 -2.80488,-1.52217 -2.470538,-1.60729 6.472944,-1.64853 l 9.430544,-0.0437 11.59021,14.65317 c 6.374565,8.05923 12.021737,14.65319 12.549222,14.65319 0.527445,0 0.959011,-5.37288 0.959011,-11.93968 0,-10.49237 -0.262973,-12.20268 -2.170854,-14.11042 -1.193952,-1.19396 -2.170813,-2.41514 -2.170813,-2.7136 0,-0.29829 2.771568,-0.54266 6.159025,-0.54266 h 6.159026 l -2.323382,2.47311 c -2.218812,2.36176 -2.328554,3.53332 -2.438084,26.03428 -0.06318,12.9586 -0.445935,23.7569 -0.850755,23.99616 -0.404892,0.2391 -7.57418,-8.08718 -15.931919,-18.50327 z m 90.321685,17.6974 c -15.95112,-4.46051 -23.97484,-23.29081 -16.40082,-38.48989 7.7756,-15.60356 29.26162,-19.16984 42.70028,-7.08731 10.75266,9.6676 11.70663,25.33423 2.26829,37.25119 -5.8468,7.3821 -18.62501,11.1063 -28.56775,8.32601 z m 15.71126,-6.13027 c 1.60484,-1.71618 3.43378,-4.97798 4.06426,-7.24847 1.49224,-5.37368 1.47173,-20.32305 -0.0367,-25.75107 -3.3526,-12.07525 -16.76196,-14.28979 -22.2512,-3.67487 -4.19066,8.10388 -3.98283,27.30557 0.37537,34.68341 3.99481,6.76272 12.49757,7.71123 17.84691,1.991 z m 60.03652,6.16787 c -13.67254,-4.53804 -20.3312,-12.73161 -20.38522,-25.08422 -0.0869,-19.88424 17.72943,-31.86261 38.87728,-26.13812 5.20414,1.40872 7.41442,1.59245 8.48322,0.70546 0.795,-0.65973 1.76681,-0.87817 2.15962,-0.48535 1.03182,1.03181 0.88111,14.46284 -0.16243,14.46284 -0.48207,0 -2.36173,-2.10718 -4.17708,-4.68262 -4.2869,-6.08187 -9.84317,-8.75167 -16.81865,-8.08141 -3.03748,0.29172 -6.2709,1.38299 -7.60274,2.56565 -8.77765,7.79407 -9.72973,31.99435 -1.57941,40.1447 3.89225,3.89228 10.47267,5.54312 15.09311,3.78635 2.76935,-1.05282 2.93619,-1.51126 2.93619,-8.06551 0,-4.94734 -0.48379,-7.35069 -1.67951,-8.34303 -1.34144,-1.11337 -1.39608,-1.57374 -0.27156,-2.28716 1.65157,-1.04768 13.9976,-1.23377 16.56216,-0.24994 1.56687,0.60127 1.58332,0.8762 0.1473,2.46328 -0.98754,1.09111 -1.745,4.52399 -1.94639,8.82057 l -0.3294,7.0342 -5.91231,1.96033 c -7.93559,2.63114 -17.99722,3.26492 -23.39406,1.47367 z m 100.9215,-0.50493 c -7.8166,-2.70284 -11.5926,-5.77259 -15.18722,-12.34662 -2.6494,-4.84543 -3.15555,-7.00514 -3.13504,-13.37629 0.0411,-12.10844 5.04507,-19.54838 16.71683,-24.84442 l 5.96982,-2.7088 -18.96398,-0.0619 -18.96395,-0.0626 -20.92526,-20.92522 -20.92529,-20.92534 V 311.3552 282.68794 l 17.89068,-17.97491 17.89069,-17.97496 19.29603,19.26618 c 10.61278,10.59649 19.78603,19.26626 20.38493,19.26626 0.59896,0 7.91403,-6.83821 16.25576,-15.1959 l 15.16682,-15.19594 h 25.56366 25.56369 l 18.13905,18.25311 18.13915,18.25313 v 25.94026 25.94026 l -17.37775,17.37767 -17.37774,17.37772 -14.08377,-14.05255 -14.08381,-14.05251 -16.10711,15.97862 -16.10711,15.97863 -5.34565,0.05 -5.34569,0.0491 6.53664,3.02733 c 10.77384,4.98967 15.97603,13.00689 15.9823,24.63082 0.008,12.34813 -7.38237,22.50318 -18.85227,25.9094 -7.16522,2.12783 -9.91829,2.084 -16.71441,-0.2658 z m 13.01866,-2.84701 c 6.37756,-2.66473 8.63697,-8.64604 8.64125,-22.8759 0.004,-12.75707 -1.37417,-17.45021 -6.28715,-21.41298 -3.2821,-2.64732 -10.52535,-2.49791 -13.50569,0.27818 -5.06886,4.72232 -6.16444,8.47171 -6.17555,21.13422 -0.0124,13.99084 1.93062,19.32391 8.20463,22.52081 4.49592,2.29092 4.49018,2.29065 9.12251,0.35478 z m 23.08483,-69.27773 c 7.41425,-7.313 13.98252,-14.21783 14.59606,-15.344 0.95814,-1.75867 -0.66291,-3.8265 -11.48694,-14.6532 l -12.6025,-12.6056 -15.73588,-0.35169 -15.73592,-0.35169 v -15.9171 -15.91714 l -16.53958,-16.56547 c -9.09673,-9.11094 -17.30136,-16.56535 -18.23257,-16.56535 -0.93115,0 -8.14158,6.51228 -16.02307,14.47178 l -14.33006,14.47191 0.0464,27.04547 0.0464,27.04557 18.71514,19.26619 18.71513,19.26625 h 27.54338 27.54338 l 13.4805,-13.2964 z m -57.30989,-3.95437 c -10.19797,-3.31387 -10.04525,-6.13468 0.33478,-6.18176 13.25533,-0.0603 18.78472,-4.33059 23.06498,-17.81347 1.04237,-3.28338 2.34393,-6.45414 2.89238,-7.04616 2.91375,-3.14503 4.11072,8.77403 1.58943,15.82746 -1.85977,5.2028 -6.85525,11.6102 -10.53558,13.51334 -3.72765,1.9277 -13.65275,2.90073 -17.34596,1.70059 z m -29.51436,-41.7875 c -2.67631,-2.03162 -2.35952,-4.65005 0.81407,-6.72952 2.5137,-1.64702 2.91344,-1.64702 5.42713,0 3.22094,2.11047 3.4341,3.99568 0.72858,6.44419 -2.37421,2.14857 -4.40572,2.23172 -6.96978,0.28553 z m 21.46496,-14.71649 c -2.24194,-4.33535 -2.09315,-5.93713 0.87151,-9.38374 2.015,-2.34265 3.11154,-2.79187 5.4074,-2.21567 2.97926,0.74779 6.17556,5.48489 6.17556,9.15261 0,2.99967 -3.46324,5.64919 -7.38418,5.64919 -2.68307,0 -3.76897,-0.6858 -5.07029,-3.20239 z m 86.46133,131.38871 c -10.79084,-3.72695 -17.51727,-12.93721 -17.51727,-23.98586 0,-18.76198 16.9541,-30.81177 36.44646,-25.90347 3.65004,0.91907 5.20578,0.91907 6.12488,0 1.60005,-1.60012 32.33547,-1.65529 38.0503,-0.0684 2.28093,0.63338 6.00797,2.83269 8.28224,4.88741 13.31528,12.02947 11.02708,34.22212 -4.32485,41.94597 -5.56807,2.80134 -6.83651,2.98972 -20.58689,3.05689 -8.0592,0.0387 -15.26375,0.0472 -16.00996,0.0155 -2.21117,-0.0901 -1.62642,-4.39706 0.59701,-4.39706 4.13548,0 4.55875,-1.97309 4.55875,-21.2499 0,-14.14602 -0.34666,-18.9326 -1.43686,-19.83736 -2.46362,-2.04458 -3.99023,0.88467 -3.99023,7.65629 0,5.39939 -0.28553,6.29548 -2.00605,6.29548 -1.29172,0 -2.70593,-1.55234 -3.97216,-4.36019 -4.97488,-11.03237 -18.51909,-11.45137 -23.38963,-0.7236 -2.3055,5.07798 -2.76637,15.15712 -0.98616,21.56669 1.47756,5.31987 6.60496,9.56719 11.54973,9.56719 5.02514,0 10.8308,-2.83628 13.67208,-6.67934 3.52264,-4.76452 5.56814,-4.09945 4.68552,1.52359 -0.84239,5.36704 -3.063,7.45121 -11.2623,10.57034 -7.03309,2.67557 -11.0085,2.70114 -18.48461,0.11916 z m 20.17154,-2.78924 c 5.24524,-2.44195 7.9154,-5.21289 6.44245,-6.6858 -0.32537,-0.32537 -2.01649,0.4621 -3.75821,1.74981 -6.29392,4.65325 -15.11925,4.79734 -20.05842,0.3277 -3.53896,-3.20268 -5.106,-7.35665 -5.71439,-15.14781 -0.76292,-9.77016 1.73027,-17.18975 6.94967,-20.68139 6.76264,-4.52412 16.43546,-2.60497 20.3605,4.03963 2.80139,4.74232 4.71837,4.191 4.69833,-1.35127 -0.0232,-5.30672 -1.30322,-7.9805 -3.25386,-6.77498 -0.73838,0.45631 -4.8277,-0.0349 -9.08744,-1.09898 -7.32125,-1.82312 -8.0904,-1.82823 -14.05786,-0.0936 -13.07594,3.80123 -20.99707,16.82232 -18.10236,29.7574 1.06064,4.73939 2.3705,6.98944 6.43472,11.05365 7.90897,7.90898 18.76963,9.73693 29.14687,4.90571 z m 46.38222,-1.70721 c 13.9,-7.15472 15.57176,-29.67929 2.97344,-40.0638 -4.78639,-3.94539 -11.52927,-5.47571 -24.12709,-5.47571 -8.88591,0 -12.53939,1.00782 -9.79709,2.70261 0.68578,0.42388 1.10312,8.64001 1.10312,21.71936 0,13.07935 -0.41746,21.29544 -1.10312,21.71939 -0.60673,0.37452 -0.79143,1.18615 -0.41018,1.80259 0.43475,0.70372 5.4012,0.97873 13.34422,0.73908 10.97909,-0.33118 13.36082,-0.7469 18.01694,-3.14352 z m -17.38278,-2.39402 c -0.3308,-1.34322 -0.4623,-10.74564 -0.2921,-20.89434 0.30255,-18.02913 0.36406,-18.4599 2.67827,-18.78938 3.98181,-0.56688 8.65565,2.68126 11.08785,7.7055 1.74781,3.61042 2.28207,6.78849 2.28207,13.57544 0,13.97006 -3.91843,20.84497 -11.88076,20.84497 -2.49323,0 -3.41728,-0.58235 -3.87536,-2.44219 z m 10.25522,-2.36369 c 3.09279,-3.29212 4.92644,-12.71609 3.96447,-20.37537 -1.11163,-8.85067 -6.57771,-16.26306 -10.79842,-14.64342 -1.54366,0.59234 -1.77569,2.99774 -1.77569,18.40782 0,11.28943 0.42728,18.15382 1.17702,18.90335 1.59535,1.5954 4.67155,0.64662 7.43262,-2.29238 z m -357.02988,9.23613 c 0,-0.57519 0.48843,-1.34778 1.08545,-1.71669 0.66615,-0.41141 1.08541,-9.21601 1.08541,-22.7938 0,-13.5779 -0.41928,-22.38215 -1.08541,-22.79392 -3.41917,-2.11318 0.54348,-2.71352 17.90943,-2.71352 h 18.99488 v 6.51251 c 0,3.58191 -0.23179,6.51251 -0.51484,6.51251 -0.28306,0 -1.26829,-1.45704 -2.1892,-3.23784 -2.35808,-4.56005 -7.08715,-6.70824 -13.90092,-6.31446 l -5.64618,0.32615 -0.31381,9.5152 c -0.24905,7.55207 0.0124,9.64076 1.27195,10.12376 2.57351,0.98754 6.14996,-1.61552 8.08854,-5.88718 l 1.80759,-3.98297 0.3282,5.69846 c 0.18049,3.13419 0.18049,8.20997 0,11.27967 l -0.3282,5.58119 -2.72349,-4.22442 c -1.96595,-3.04932 -3.47554,-4.22447 -5.42712,-4.22447 -2.64989,0 -2.70979,0.18765 -3.01632,9.43716 -0.29044,8.75956 -0.14234,9.52837 2.06214,10.70813 2.87577,1.53902 10.52274,0.66077 15.16966,-1.74223 1.82264,-0.94256 4.37856,-3.51506 5.67978,-5.71668 l 2.36585,-4.00297 0.33146,3.41455 c 0.18257,1.87794 -0.0923,5.05284 -0.61081,7.05521 l -0.94253,3.64071 -19.74081,0.29597 c -12.14371,0.18184 -19.74086,-0.10714 -19.74086,-0.75003 z m 178.38361,-0.98809 c 2.56158,-2.83055 2.71168,-43.6627 0.16823,-45.77358 -0.8955,-0.74319 -1.62815,-1.79114 -1.62815,-2.3288 0,-0.55423 8.34345,-0.84924 19.26625,-0.68117 l 19.26621,0.29637 0.32572,6.24122 c 0.31877,6.10941 -1.10124,8.46594 -2.48124,4.11799 -0.37041,-1.16772 -2.15055,-3.36572 -3.95538,-4.8844 -2.70713,-2.27791 -4.40691,-2.76118 -9.7108,-2.76118 h -6.42923 v 9.70471 c 0,5.57151 0.4826,10.00296 1.13315,10.40502 1.77178,1.09503 6.615,-2.64134 7.926,-6.1146 2.10879,-5.58687 2.88049,-3.37507 2.88049,8.25602 0,10.85111 -1.13369,14.59153 -2.62351,8.65568 -0.89761,-3.57633 -4.40665,-7.02759 -7.14528,-7.02759 -2.00942,0 -2.17085,0.7236 -2.17085,9.73058 0,11.57616 0.93866,12.63297 10.1348,11.41072 4.91432,-0.65315 6.25724,-1.43197 10.91471,-6.32997 l 5.31086,-5.58526 -0.75969,5.42713 c -1.41154,10.08429 0.63895,9.22607 -22.04306,9.22607 -19.47682,0 -20.11319,-0.0689 -18.37903,-1.98499 z m -74.55763,-19.53758 c -2.63417,-2.91068 -2.31099,-8.38574 0.61601,-10.43586 5.00487,-3.50553 11.69811,-0.43568 11.69811,5.36557 0,5.94358 -8.39543,9.40037 -12.31412,5.07029 z m -154.626159,-48.21579 0.328203,-5.69848 21.982724,-0.54271 c 27.552652,-0.68019 29.528562,-2.49175 3.551721,-3.25626 l -18.441061,-0.54273 -3.393772,-3.39558 c -5.958464,-5.96165 -5.488252,-17.09574 0.935383,-22.14858 2.529194,-1.98949 4.508836,-2.13403 29.216202,-2.13403 h 26.503139 l -0.3282,5.69845 -0.3282,5.69845 -21.165695,0.27857 c -23.275227,0.30642 -24.840033,0.51198 -22.783182,2.99026 1.089343,1.31266 4.752034,1.61533 19.547386,1.61533 h 18.206811 l 3.4867,3.97116 c 3.26192,3.71508 3.45638,4.39036 3.01644,10.47285 -0.40858,5.64699 -0.92566,6.90858 -3.9341,9.59664 l -3.46385,3.09484 H 80.225073 53.592629 Z m 65.393909,4.30676 c -0.29373,-0.76547 -0.4004,-10.4121 -0.23717,-21.43705 l 0.2966,-20.04538 7.80896,-0.31725 7.80901,-0.31726 14.2903,13.21337 c 10.84669,10.02931 14.51911,12.85225 15.2396,11.71466 0.52212,-0.82439 0.9568,-6.77185 0.96591,-13.2167 l 0.0163,-11.71783 7.32661,0.32112 7.3266,0.32112 v 21.16572 21.16572 l -8.14067,0.28398 -8.14065,0.28358 -13.02505,-12.44117 c -7.16378,-6.84256 -13.87984,-12.46511 -14.92455,-12.49443 -1.70203,-0.0483 -1.89948,1.24433 -1.89948,12.42898 v 12.48238 h -7.08932 c -4.76504,0 -7.26441,-0.45631 -7.62333,-1.39175 z m 65.31874,-0.27818 c -1.01082,-2.63414 -0.7847,-38.81027 0.25272,-40.44594 0.62242,-0.98132 3.02186,-1.31297 7.8527,-1.08543 l 6.95641,0.32808 0.31713,8.41202 c 0.19159,5.08324 0.77909,8.41197 1.48474,8.41197 0.64226,0 6.30014,-3.90748 12.57304,-8.68334 l 11.40529,-8.68339 h 9.22263 c 11.05986,0 11.2009,-0.35207 -4.62739,11.55066 -6.23862,4.69125 -11.34776,9.2623 -11.35363,10.15776 -0.004,0.89551 5.72484,6.0241 12.73494,11.39691 l 12.74564,9.76885 -9.53406,0.31415 -9.53405,0.31416 -11.26846,-8.72616 c -6.19763,-4.79936 -11.77764,-8.72614 -12.40005,-8.72614 -0.66061,0 -1.26358,3.50131 -1.44864,8.41205 l -0.31713,8.41194 -7.19263,0.31802 c -5.83161,0.25728 -7.32065,-0.0155 -7.8693,-1.44556 z"
       style="fill:#159ee1;stroke-width:1.08542132" />
    <path
       inkscape:connector-curvature="0"
       id="path487"
       d="m 78.126535,418.0436 c -8.357744,-10.41609 -16.050663,-19.71665 -17.095382,-20.66778 -1.801879,-1.64045 -1.899493,-0.84576 -1.899493,15.46431 0,16.15927 0.141991,17.34487 2.360056,19.70586 l 2.36004,2.5121 h -6.237797 -6.237806 l 2.249621,-2.85989 c 2.080462,-2.64489 2.249628,-4.28261 2.249628,-21.77976 0,-10.84696 -0.474789,-19.80705 -1.112713,-20.999 -0.611989,-1.14354 -2.443639,-2.80138 -4.070326,-3.68415 -2.804857,-1.52217 -2.470518,-1.60729 6.472941,-1.64853 l 9.430563,-0.0437 11.590179,14.65317 c 6.374596,8.05923 12.021749,14.65319 12.549225,14.65319 0.527472,0 0.959034,-5.37288 0.959034,-11.93968 0,-10.49237 -0.263127,-12.20268 -2.170845,-14.11042 -1.19396,-1.19396 -2.170841,-2.41514 -2.170841,-2.7136 0,-0.29829 2.771561,-0.54266 6.159023,-0.54266 h 6.159025 l -2.323371,2.47311 c -2.218823,2.36176 -2.328534,3.53332 -2.438076,26.03428 -0.06311,12.9586 -0.445923,23.7569 -0.85075,23.99616 -0.404808,0.2391 -7.574185,-8.08718 -15.931935,-18.50327 z m 90.321695,17.6974 c -15.9511,-4.46051 -23.97483,-23.29081 -16.40082,-38.48989 7.77562,-15.60356 29.2616,-19.16984 42.70026,-7.08731 10.75269,9.6676 11.70666,25.33423 2.2683,37.25119 -5.84678,7.3821 -18.62502,11.1063 -28.56774,8.32601 z m 15.71126,-6.13027 c 1.60485,-1.71618 3.43378,-4.97798 4.06427,-7.24847 1.49224,-5.37368 1.47172,-20.32305 -0.0355,-25.75107 -3.35262,-12.07525 -16.76197,-14.28979 -22.25119,-3.67487 -4.19066,8.10388 -3.98286,27.30557 0.37538,34.68341 3.9948,6.76272 12.49757,7.71123 17.84688,1.991 z m 60.03653,6.16787 c -13.67254,-4.53804 -20.33122,-12.73161 -20.38522,-25.08422 -0.0869,-19.88424 17.72939,-31.86261 38.87725,-26.13812 5.20416,1.40872 7.41444,1.59245 8.48325,0.70546 0.79497,-0.65973 1.7668,-0.87817 2.15961,-0.48535 1.03181,1.03181 0.8811,14.46284 -0.1623,14.46284 -0.48206,0 -2.36177,-2.10718 -4.1771,-4.68262 -4.28688,-6.08187 -9.84317,-8.75167 -16.81862,-8.08141 -3.0375,0.29172 -6.27093,1.38299 -7.60276,2.56565 -8.77765,7.79407 -9.72975,31.99435 -1.57942,40.1447 3.89229,3.89228 10.47267,5.54312 15.09311,3.78635 2.76935,-1.05282 2.93621,-1.51126 2.93621,-8.06551 0,-4.94734 -0.48381,-7.35069 -1.67951,-8.34303 -1.34147,-1.11337 -1.39609,-1.57374 -0.27137,-2.28716 1.65158,-1.04768 13.99759,-1.23377 16.56214,-0.24994 1.56688,0.60127 1.58331,0.8762 0.14705,2.46328 -0.9875,1.09111 -1.74498,4.52399 -1.94634,8.82057 l -0.32964,7.0342 -5.91232,1.96033 c -7.93561,2.63114 -17.99722,3.26492 -23.39406,1.47367 z m 100.92148,-0.50493 c -7.81658,-2.70284 -11.59258,-5.77259 -15.1872,-12.34662 -2.64939,-4.84543 -3.15555,-7.00514 -3.13503,-13.37629 0.0389,-12.10844 5.04502,-19.54838 16.7168,-24.84442 l 5.96982,-2.7088 -18.96397,-0.0619 -18.96395,-0.0626 -20.92528,-20.92522 -20.92528,-20.92534 V 311.3552 282.68794 l 17.89071,-17.97491 17.89068,-17.97496 19.296,19.26618 c 10.61279,10.59649 19.78603,19.26626 20.38495,19.26626 0.59893,0 7.91403,-6.83821 16.25577,-15.1959 l 15.16681,-15.19594 h 25.56367 25.56365 l 18.13904,18.25311 18.13916,18.25313 v 25.94026 25.94026 l -17.37771,17.37767 -17.37774,17.37772 -14.08381,-14.05255 -14.08378,-14.05251 -16.1071,15.97862 -16.10711,15.97863 -5.34569,0.05 -5.34565,0.0491 6.53662,3.02733 c 10.77387,4.98967 15.97604,13.00689 15.98231,24.63082 0.008,12.34813 -7.3824,22.50318 -18.85228,25.9094 -7.16524,2.12783 -9.9183,2.084 -16.71441,-0.2658 z m 13.01867,-2.84701 c 6.37755,-2.66473 8.63695,-8.64604 8.64123,-22.8759 0.004,-12.75707 -1.37415,-17.45021 -6.28713,-21.41298 -3.28213,-2.64732 -10.52536,-2.49791 -13.50567,0.27818 -5.06887,4.72232 -6.16446,8.47171 -6.17559,21.13422 -0.0124,13.99084 1.93061,19.32391 8.20466,22.52081 4.49592,2.29092 4.49016,2.29065 9.1225,0.35478 z m 23.0848,-69.27773 c 7.41429,-7.313 13.98252,-14.21783 14.59609,-15.344 0.95815,-1.75867 -0.6629,-3.8265 -11.48693,-14.6532 l -12.60251,-12.6056 -15.73592,-0.35169 -15.73589,-0.35169 v -15.9171 -15.91714 l -16.53954,-16.56559 c -9.09677,-9.11093 -17.30141,-16.56538 -18.23259,-16.56538 -0.93119,0 -8.14157,6.51232 -16.02309,14.47183 l -14.33006,14.47186 0.0465,27.0455 0.0465,27.04558 18.71514,19.26618 18.71515,19.26626 h 27.54338 27.54338 l 13.4805,-13.29644 z m -57.30987,-3.95437 c -10.19799,-3.31387 -10.04525,-6.13468 0.33477,-6.18176 13.25533,-0.0603 18.78476,-4.33059 23.065,-17.81347 1.04235,-3.28338 2.34393,-6.45414 2.89238,-7.04616 2.91377,-3.14503 4.11069,8.77403 1.58941,15.82746 -1.85976,5.2028 -6.85523,11.6102 -10.53554,13.51334 -3.72767,1.9277 -13.65276,2.90073 -17.34599,1.70059 z m -29.51434,-41.7875 c -2.67631,-2.03162 -2.35955,-4.65005 0.81405,-6.72952 2.5137,-1.64702 2.91342,-1.64702 5.42712,0 3.22094,2.11047 3.43409,3.99568 0.7286,6.44419 -2.3742,2.14857 -4.4057,2.23172 -6.96977,0.28553 z m 21.46494,-14.71649 c -2.24193,-4.33535 -2.09315,-5.93713 0.87153,-9.38374 2.01499,-2.34265 3.11151,-2.79187 5.40736,-2.21567 2.97929,0.74779 6.17558,5.48489 6.17558,9.15261 0,2.99967 -3.46323,5.64919 -7.38419,5.64919 -2.68305,0 -3.76894,-0.6858 -5.07028,-3.20239 z m 86.46134,131.38871 c -10.79084,-3.72695 -17.5173,-12.93721 -17.5173,-23.98586 0,-18.76198 16.95417,-30.81177 36.44646,-25.90347 3.65004,0.91907 5.20577,0.91907 6.12484,0 1.60009,-1.60012 32.33556,-1.65529 38.05037,-0.0684 2.28093,0.63338 6.00797,2.83269 8.28225,4.88741 13.31524,12.02947 11.02703,34.22212 -4.32486,41.94597 -5.56815,2.80134 -6.8365,2.98972 -20.58684,3.05689 -8.05933,0.0387 -15.2638,0.0472 -16.01004,0.0155 -2.2111,-0.0901 -1.62639,-4.39706 0.59701,-4.39706 4.13548,0 4.55878,-1.97309 4.55878,-21.2499 0,-14.14602 -0.34666,-18.9326 -1.43689,-19.83736 -2.46359,-2.04458 -3.9902,0.88467 -3.9902,7.65629 0,5.39939 -0.28552,6.29548 -2.00604,6.29548 -1.29176,0 -2.70598,-1.55234 -3.97217,-4.36019 -4.97488,-11.03237 -18.51909,-11.45137 -23.38962,-0.7236 -2.30547,5.07798 -2.76633,15.15712 -0.98615,21.56669 1.47754,5.31987 6.60494,9.56719 11.54971,9.56719 5.02511,0 10.83081,-2.83628 13.67208,-6.67934 3.52264,-4.76452 5.56811,-4.09945 4.68548,1.52359 -0.84238,5.36704 -3.063,7.45121 -11.26229,10.57034 -7.03309,2.67557 -11.00846,2.70114 -18.48458,0.11916 z m 20.17159,-2.78924 c 5.24521,-2.44195 7.91532,-5.21289 6.44242,-6.6858 -0.32539,-0.32537 -2.01651,0.4621 -3.7583,1.74981 -6.29385,4.65325 -15.11914,4.79734 -20.05835,0.3277 -3.53896,-3.20268 -5.106,-7.35665 -5.71435,-15.14781 -0.76296,-9.77016 1.73023,-17.18975 6.94963,-20.68139 6.76256,-4.52412 16.43543,-2.60497 20.36051,4.03963 2.80131,4.74232 4.71833,4.191 4.69837,-1.35127 -0.0232,-5.30672 -1.3033,-7.9805 -3.2539,-6.77498 -0.73839,0.45631 -4.82771,-0.0349 -9.08745,-1.09898 -7.3212,-1.82312 -8.09039,-1.82823 -14.05785,-0.0936 -13.07595,3.80123 -20.99707,16.82232 -18.10236,29.7574 1.06063,4.73939 2.3705,6.98944 6.43471,11.05365 7.90897,7.90898 18.76964,9.73693 29.14692,4.90571 z m 46.38218,-1.70721 c 13.89995,-7.15472 15.57172,-29.67929 2.9734,-40.0638 -4.78639,-3.94539 -11.52927,-5.47571 -24.12704,-5.47571 -8.88597,0 -12.53938,1.00782 -9.79714,2.70261 0.68581,0.42388 1.10315,8.64001 1.10315,21.71936 0,13.07935 -0.41746,21.29544 -1.10315,21.71939 -0.60673,0.37452 -0.79139,1.18615 -0.41019,1.80259 0.43476,0.70372 5.40125,0.97873 13.34426,0.73908 10.97906,-0.33118 13.36078,-0.7469 18.01694,-3.14352 z m -17.38285,-2.39402 c -0.3308,-1.34322 -0.46227,-10.74564 -0.29212,-20.89434 0.30256,-18.02913 0.36408,-18.4599 2.67832,-18.78938 3.98176,-0.56688 8.65564,2.68126 11.08789,7.7055 1.74775,3.61042 2.28198,6.78849 2.28198,13.57544 0,13.97006 -3.91839,20.84497 -11.88075,20.84497 -2.49322,0 -3.41724,-0.58235 -3.87532,-2.44219 z m 10.25524,-2.36369 c 3.0928,-3.29212 4.92645,-12.71609 3.96448,-20.37537 -1.1116,-8.85067 -6.57768,-16.26306 -10.79838,-14.64342 -1.54367,0.59234 -1.77573,2.99774 -1.77573,18.40782 0,11.28943 0.42728,18.15382 1.177,18.90335 1.59537,1.5954 4.6716,0.64662 7.43263,-2.29238 z m -357.02984,9.23613 c 0,-0.57519 0.48844,-1.34778 1.08542,-1.71669 0.66617,-0.41141 1.08543,-9.21601 1.08543,-22.7938 0,-13.5779 -0.41929,-22.38215 -1.08543,-22.79392 -3.41914,-2.11318 0.54352,-2.71352 17.90946,-2.71352 h 18.99487 v 6.51251 c 0,3.58191 -0.23167,6.51251 -0.51484,6.51251 -0.28312,0 -1.2683,-1.45704 -2.18921,-3.23784 -2.35809,-4.56005 -7.08712,-6.70824 -13.90091,-6.31446 l -5.64617,0.32615 -0.31389,9.5152 c -0.24908,7.55207 0.0131,9.64076 1.27196,10.12376 2.57349,0.98754 6.14993,-1.61552 8.08853,-5.88718 l 1.80759,-3.98297 0.32805,5.69846 c 0.18041,3.13419 0.18041,8.20997 0,11.27967 l -0.32805,5.58119 -2.7235,-4.22442 c -1.96592,-3.04932 -3.47554,-4.22447 -5.42711,-4.22447 -2.6499,0 -2.70981,0.18765 -3.01634,9.43716 -0.29029,8.75956 -0.14218,9.52837 2.06215,10.70813 2.87579,1.53902 10.52272,0.66077 15.16967,-1.74223 1.82266,-0.94256 4.37854,-3.51506 5.67976,-5.71668 l 2.36586,-4.00297 0.33168,3.41455 c 0.18242,1.87794 -0.0924,5.05284 -0.61081,7.05521 l -0.94249,3.64071 -19.74085,0.29597 c -12.14368,0.18184 -19.74085,-0.10714 -19.74085,-0.75003 z m 178.38359,-0.98809 c 2.56161,-2.83055 2.71168,-43.6627 0.16826,-45.77358 -0.89547,-0.74319 -1.62813,-1.79114 -1.62813,-2.3288 0,-0.55423 8.34345,-0.84924 19.26623,-0.68117 l 19.26624,0.29637 0.32553,6.24122 c 0.31865,6.10941 -1.10124,8.46594 -2.48123,4.11799 -0.37064,-1.16772 -2.15055,-3.36572 -3.95539,-4.8844 -2.70714,-2.27791 -4.40691,-2.76118 -9.71079,-2.76118 h -6.42925 v 9.70471 c 0,5.57151 0.48262,10.00296 1.13316,10.40502 1.77176,1.09503 6.61498,-2.64134 7.92599,-6.1146 2.1088,-5.58687 2.88049,-3.37507 2.88049,8.25602 0,10.85111 -1.1337,14.59153 -2.62349,8.65568 -0.89762,-3.57633 -4.40666,-7.02759 -7.1453,-7.02759 -2.00942,0 -2.17085,0.7236 -2.17085,9.73058 0,11.57616 0.93864,12.63297 10.13479,11.41072 4.91435,-0.65315 6.25725,-1.43197 10.9147,-6.32997 l 5.3109,-5.58526 -0.75968,5.42713 c -1.41157,10.08429 0.63893,9.22607 -22.04311,9.22607 -19.47683,0 -20.11317,-0.0689 -18.37901,-1.98499 z m -74.55762,-19.53758 c -2.63416,-2.91068 -2.31098,-8.38574 0.616,-10.43586 5.00487,-3.50553 11.69813,-0.43568 11.69813,5.36557 0,5.94358 -8.39544,9.40037 -12.31413,5.07029 z"
       style="fill:#ffffff;stroke-width:1.08542132" />
    <path
       inkscape:connector-curvature="0"
       id="path485"
       d="m 163.97124,431.48442 c -8.66396,-4.58625 -12.75982,-10.99829 -13.39473,-20.96929 -0.56919,-8.9392 1.74097,-15.2085 7.53207,-20.44044 6.99441,-6.31903 15.82233,-8.74076 9.75862,-2.67707 -4.38285,4.38288 -5.97619,10.34636 -5.92992,22.19415 0.0464,11.86025 2.61028,18.8173 8.18829,22.21807 4.48875,2.73674 8.06696,2.7822 12.37171,0.15708 5.42841,-3.31027 7.42838,-8.81888 7.87112,-21.67971 0.43349,-12.59206 -1.27489,-19.21248 -6.11523,-23.6984 -2.16228,-2.00388 -2.33669,-2.50453 -0.87259,-2.50453 2.68961,0 9.53691,3.74836 12.19928,6.67827 4.63841,5.10437 6.31101,9.80975 6.30725,17.74371 -0.005,11.59062 -4.90492,19.21879 -15.61024,24.30452 -7.08116,3.36392 -14.25042,2.9376 -22.30563,-1.32643 z m 74.88669,-0.0483 c -4.1622,-2.25358 -7.68234,-5.19561 -9.7688,-8.16424 -3.02872,-4.30935 -3.26186,-5.32599 -3.26186,-14.2229 0,-8.91493 0.22892,-9.90747 3.28983,-14.26263 3.87178,-5.50887 11.23831,-10.29827 17.33317,-11.26946 l 4.34169,-0.69177 -4.51878,2.80573 c -7.03205,4.36629 -9.5917,10.61568 -9.5917,23.41813 0,8.50158 0.42868,11.18148 2.4423,15.26747 2.90583,5.89658 8.83819,9.69732 15.13612,9.69732 7.12161,0 8.17277,-1.51493 7.751,-11.17026 -0.3936,-9.01069 -0.13148,-9.4528 5.60508,-9.4528 5.74746,0 6.10596,0.53825 5.62338,8.44301 -0.24498,4.0126 -0.94119,7.91052 -1.5472,8.66206 -0.606,0.75162 -3.00299,1.67053 -5.32662,2.04206 -2.32362,0.3718 -4.48699,1.09987 -4.80749,1.61846 -0.32049,0.51856 -4.09508,0.91136 -8.38796,0.87291 -6.66762,-0.0599 -8.75362,-0.58336 -14.31216,-3.59309 z m 104.19485,1.02814 c -10.02931,-4.63814 -14.96528,-12.56134 -15.02547,-24.11873 -0.047,-9.03038 3.48391,-15.9496 10.58057,-20.73355 2.87811,-1.9402 6.23976,-3.52767 7.47033,-3.52767 h 2.23737 l -2.23308,2.4422 c -4.44297,4.85908 -6.12675,9.79481 -6.6088,19.37296 -0.61823,12.28402 1.54215,20.06488 6.86993,24.74275 5.54335,4.86709 10.33657,4.65357 15.68511,-0.69881 3.00179,-3.004 4.39017,-5.57732 5.29942,-9.82216 2.75126,-12.84486 0.85517,-26.31827 -4.57473,-32.5078 l -3.41933,-3.89762 3.25626,0.81155 c 5.1585,1.28569 9.7554,4.60761 13.14553,9.49958 2.65615,3.83285 3.19339,5.79331 3.51246,12.81761 0.3099,6.82641 -0.0495,9.19938 -2.03403,13.42106 -2.70863,5.76241 -8.76733,11.37814 -13.28977,12.31799 -1.65412,0.34394 -3.27038,1.05037 -3.59168,1.57032 -1.16531,1.88546 -11.79734,0.84587 -17.28009,-1.68968 z M 54.873388,431.97547 c 0,-0.5239 0.630681,-1.47593 1.401505,-2.11562 1.040735,-0.86374 1.741606,-0.61856 2.722751,0.9525 1.177915,1.88614 1.025869,2.11561 -1.401499,2.11561 -1.49752,0 -2.722757,-0.42859 -2.722757,-0.95249 z M 76.717,413.46086 c -8.581886,-10.68431 -16.519028,-19.66552 -17.638097,-19.95809 -1.121181,-0.29326 -2.034667,-1.49268 -2.034667,-2.67166 0,-1.17675 -0.732661,-2.74761 -1.628132,-3.4908 -0.895475,-0.74318 -1.628133,-1.77987 -1.628133,-2.30372 0,-1.1473 10.937509,-1.254 12.491567,-0.12148 0.602054,0.43857 5.943223,6.90293 11.869265,14.36523 11.245408,14.1606 12.425041,15.39719 13.848448,14.51744 0.47624,-0.29443 0.865889,3.88968 0.865889,9.29776 0,5.4081 -0.122103,9.82364 -0.271368,9.8123 -0.149263,-0.0116 -7.292901,-8.76234 -15.874783,-19.44658 z m 31.49873,15.60234 c 1.23899,-4.48728 0.76329,-40.26465 -0.5728,-43.07965 -0.8047,-1.69545 -0.21848,-1.89957 5.45573,-1.90061 l 6.35731,-9.8e-4 -0.37421,10.89151 c -0.24394,7.10098 0.0577,11.41187 0.86677,12.38674 0.85193,1.02646 0.88417,1.71579 0.10284,2.19868 -0.65134,0.40244 -1.13813,4.70161 -1.13813,10.05132 0,7.17511 0.41757,9.80924 1.79636,11.33287 1.7242,1.90522 1.48791,1.98488 -5.88232,1.98488 h -7.67869 z m 27.19781,2.38698 c 1.61288,-0.71587 4.17526,-2.46905 5.69419,-3.89603 3.29596,-3.09643 3.77028,-2.81032 3.06108,1.84623 -0.52797,3.46677 -0.6335,3.52611 -6.11252,3.43949 -5.26891,-0.0832 -5.41413,-0.15979 -2.64275,-1.38969 z m 150.1119,-22.94411 v -24.42202 h 6.18471 6.18471 l -1.11976,3.21212 c -0.62003,1.77863 -0.84978,6.74373 -0.5148,11.12557 0.33269,4.35237 0.5327,9.13457 0.44441,10.62698 -0.66221,11.19115 -0.17268,20.47384 1.16462,22.08479 1.35908,1.63714 0.88323,1.79445 -5.42711,1.79445 h -6.91678 z m 28.22096,22.65781 c 1.79095,-0.96585 4.39507,-2.79566 5.78696,-4.0663 l 2.53071,-2.31022 -0.35984,3.79899 c -0.35475,3.74533 -0.43643,3.80271 -5.78698,4.06626 l -5.42709,0.26773 z m 166.87087,-23.74325 c -0.002,-9.3031 0.05,-9.5186 1.08954,-4.51961 0.73099,3.5152 0.73169,6.74236 0.002,9.76885 -0.98356,4.07944 -1.0898,3.56828 -1.0917,-5.24924 z m -351.55528,5.39432 c -0.35052,-0.91346 -1.79017,-2.26496 -3.19918,-3.00316 l -2.56184,-1.34229 3.77596,-3.0129 3.77596,-3.0129 v 6.01606 c 0,6.02243 -0.59545,7.4705 -1.7909,4.35519 z m 178.32481,0.75885 c -0.51288,-0.7946 -2.46663,-2.38021 -4.34169,-3.52352 -1.87506,-1.14339 -2.77644,-2.08068 -2.00309,-2.08289 0.77337,-0.002 2.65683,-1.25477 4.18547,-2.78343 1.52862,-1.52858 2.99914,-2.5595 3.2678,-2.2908 0.26866,0.26889 0.33896,3.10676 0.15623,6.30692 -0.21345,3.73813 -0.66564,5.30192 -1.26474,4.37372 z m -98.16648,-1.48586 c -1.84415,-1.84413 -1.61535,-6.91299 0.40313,-8.9315 3.58796,-3.58795 10.23397,-0.69633 10.23397,4.45277 0,4.57131 -7.42024,7.69556 -10.63714,4.47873 z m 58.17033,-21.93374 -4.0243,-4.57963 4.56702,0.21588 c 4.5312,0.21396 4.56963,0.25032 4.90078,4.68177 0.18359,2.45628 -0.0607,4.41996 -0.54271,4.36374 -0.48206,-0.0561 -2.68741,-2.16305 -4.90079,-4.68181 z m -128.49112,-0.74698 c -1.13224,-1.25106 -3.52803,-2.92075 -5.32399,-3.7104 -3.2499,-1.42887 -3.23836,-1.43611 2.4331,-1.52424 l 5.69847,-0.0886 v 3.79892 c 0,4.45149 -0.10638,4.50918 -2.80758,1.52424 z m 178.27407,0.70066 c -0.33223,-0.86571 -2.46036,-2.55369 -4.72917,-3.75093 l -4.12514,-2.17695 5.69846,-0.0483 5.69846,-0.0483 v 3.79896 c 0,3.84921 -1.43686,5.10643 -2.54261,2.22487 z M 91.368738,386.75467 c -0.978015,-2.54867 -0.906134,-2.67062 1.57399,-2.67062 1.517377,0 2.136114,0.58943 1.899489,1.80955 -0.480572,2.4779 -2.646957,3.01499 -3.473479,0.86107 z M 291.79753,358.81706 270.87226,337.89185 v -27.53362 -27.53357 l 15.51066,-15.85234 c 8.53087,-8.71878 16.25651,-17.03299 17.16809,-18.47602 l 1.65742,-2.62369 9.14992,9.6789 c 21.18342,22.40807 28.64457,29.75921 30.20463,29.75921 0.90915,0 8.54995,-6.8382 16.97955,-15.19589 l 15.32653,-15.19593 25.4233,-0.0232 25.42329,-0.0232 17.6095,18.20024 17.60947,18.20021 0.0309,24.97786 0.0309,24.97779 -16.56538,16.53954 c -9.11098,9.09675 -17.0557,16.53959 -17.65503,16.53959 -0.59931,0 -6.93568,-5.8613 -14.08084,-13.02507 -7.14509,-7.16382 -13.46686,-13.02508 -14.04836,-13.02508 -0.58146,0 -8.19659,7.08242 -16.92246,15.73864 l -15.86516,15.73862 h -27.56588 -27.56589 z m 90.05229,3.82991 c 7.71035,-7.61152 14.51953,-14.75739 15.13149,-15.87965 0.95415,-1.75 -0.71336,-3.87134 -11.70945,-14.89613 l -12.82206,-12.85553 -15.24123,-0.30024 -15.24121,-0.29984 -0.29644,-15.73859 -0.29645,-15.73864 -17.05759,-17.09535 c -9.38168,-9.4025 -17.81849,-17.09543 -18.7485,-17.09543 -0.93,0 -8.38444,6.75518 -16.56539,15.01154 l -14.87449,15.0115 v 27.40148 27.40149 l 19.26622,19.46687 19.26623,19.46689 27.58497,-0.0116 27.58497,-0.0116 14.0189,-13.83906 z m -58.49264,-5.36417 c -1.28085,-0.2511 -3.09995,-1.30763 -4.0424,-2.34903 -1.61326,-1.78265 -1.2797,-1.90012 5.69874,-2.00768 11.68915,-0.17991 18.8913,-4.98335 21.9711,-14.65308 2.31751,-7.27629 3.39909,-9.50313 4.33478,-8.92488 1.6696,1.03185 0.99113,10.60269 -1.07172,15.11806 -4.964,10.86561 -14.24636,15.28983 -26.8905,12.81661 z m -28.38857,-41.79737 c -3.18484,-3.18483 1.0609,-7.43053 5.21003,-5.21003 3.52055,1.88414 1.97775,6.51255 -2.17086,6.51255 -0.95517,0 -2.32279,-0.58617 -3.03917,-1.30252 z m 21.45295,-15.0715 c -1.21155,-2.92492 -1.18788,-3.9011 0.15263,-6.29745 2.92412,-5.22721 8.73097,-3.6375 10.35546,2.83505 0.98887,3.93998 -0.82749,6.21391 -5.26888,6.59628 -3.3838,0.29095 -3.96427,-0.0558 -5.23921,-3.13388 z"
       style="fill:#0000e5;stroke-width:1.08542132" />
    <path
       inkscape:connector-curvature="0"
       id="path483"
       d="m 163.97124,431.48442 c -8.66396,-4.58625 -12.75982,-10.99829 -13.39473,-20.96929 -0.56919,-8.9392 1.74097,-15.2085 7.53207,-20.44044 6.99441,-6.31903 15.82233,-8.74076 9.75862,-2.67707 -4.38285,4.38288 -5.97619,10.34636 -5.92992,22.19415 0.0464,11.86025 2.61028,18.8173 8.18829,22.21807 4.48875,2.73674 8.06696,2.7822 12.37171,0.15708 5.42841,-3.31027 7.42838,-8.81888 7.87112,-21.67971 0.43349,-12.59206 -1.27489,-19.21248 -6.11523,-23.6984 -2.16228,-2.00388 -2.33669,-2.50453 -0.87259,-2.50453 2.68961,0 9.53691,3.74836 12.19928,6.67827 4.63841,5.10437 6.31101,9.80975 6.30725,17.74371 -0.005,11.59062 -4.90492,19.21879 -15.61024,24.30452 -7.08116,3.36392 -14.25042,2.9376 -22.30563,-1.32643 z m 74.88669,-0.0483 c -4.1622,-2.25358 -7.68234,-5.19561 -9.7688,-8.16424 -3.02872,-4.30935 -3.26186,-5.32599 -3.26186,-14.2229 0,-8.91493 0.22892,-9.90747 3.28983,-14.26263 3.87178,-5.50887 11.23831,-10.29827 17.33317,-11.26946 l 4.34169,-0.69177 -4.51878,2.80573 c -7.03205,4.36629 -9.5917,10.61568 -9.5917,23.41813 0,8.50158 0.42868,11.18148 2.4423,15.26747 2.90583,5.89658 8.83819,9.69732 15.13612,9.69732 7.12161,0 8.17277,-1.51493 7.751,-11.17026 -0.3936,-9.01069 -0.13148,-9.4528 5.60508,-9.4528 5.74746,0 6.10596,0.53825 5.62338,8.44301 -0.24498,4.0126 -0.94119,7.91052 -1.5472,8.66206 -0.606,0.75162 -3.00299,1.67053 -5.32662,2.04206 -2.32362,0.3718 -4.48699,1.09987 -4.80749,1.61846 -0.32049,0.51856 -4.09508,0.91136 -8.38796,0.87291 -6.66762,-0.0599 -8.75362,-0.58336 -14.31216,-3.59309 z m 104.19485,1.02814 c -10.02931,-4.63814 -14.96528,-12.56134 -15.02547,-24.11873 -0.047,-9.03038 3.48391,-15.9496 10.58057,-20.73355 2.87811,-1.9402 6.23976,-3.52767 7.47033,-3.52767 h 2.23737 l -2.23308,2.4422 c -4.44297,4.85908 -6.12675,9.79481 -6.6088,19.37296 -0.61823,12.28402 1.54215,20.06488 6.86993,24.74275 5.54335,4.86709 10.33657,4.65357 15.68511,-0.69881 3.00179,-3.004 4.39017,-5.57732 5.29942,-9.82216 2.75126,-12.84486 0.85517,-26.31827 -4.57473,-32.5078 l -3.41933,-3.89762 3.25626,0.81155 c 5.1585,1.28569 9.7554,4.60761 13.14553,9.49958 2.65615,3.83285 3.19339,5.79331 3.51246,12.81761 0.3099,6.82641 -0.0495,9.19938 -2.03403,13.42106 -2.70863,5.76241 -8.76733,11.37814 -13.28977,12.31799 -1.65412,0.34394 -3.27038,1.05037 -3.59168,1.57032 -1.16531,1.88546 -11.79734,0.84587 -17.28009,-1.68968 z M 54.873388,431.97547 c 0,-0.5239 0.630681,-1.47593 1.401505,-2.11562 1.040735,-0.86374 1.741606,-0.61856 2.722751,0.9525 1.177915,1.88614 1.025869,2.11561 -1.401499,2.11561 -1.49752,0 -2.722757,-0.42859 -2.722757,-0.95249 z M 76.717,413.46086 c -8.581886,-10.68431 -16.519028,-19.66552 -17.638097,-19.95809 -1.121181,-0.29326 -2.034667,-1.49268 -2.034667,-2.67166 0,-1.17675 -0.732661,-2.74761 -1.628132,-3.4908 -0.895475,-0.74318 -1.628133,-1.77987 -1.628133,-2.30372 0,-1.1473 10.937509,-1.254 12.491567,-0.12148 0.602054,0.43857 5.943223,6.90293 11.869265,14.36523 11.245408,14.1606 12.425041,15.39719 13.848448,14.51744 0.47624,-0.29443 0.865889,3.88968 0.865889,9.29776 0,5.4081 -0.122103,9.82364 -0.271368,9.8123 -0.149263,-0.0116 -7.292901,-8.76234 -15.874783,-19.44658 z m 31.49873,15.60234 c 1.23899,-4.48728 0.76329,-40.26465 -0.5728,-43.07965 -0.8047,-1.69545 -0.21848,-1.89957 5.45573,-1.90061 l 6.35731,-9.8e-4 -0.37421,10.89151 c -0.24394,7.10098 0.0577,11.41187 0.86677,12.38674 0.85193,1.02646 0.88417,1.71579 0.10284,2.19868 -0.65134,0.40244 -1.13813,4.70161 -1.13813,10.05132 0,7.17511 0.41757,9.80924 1.79636,11.33287 1.7242,1.90522 1.48791,1.98488 -5.88232,1.98488 h -7.67869 z m 27.19781,2.38698 c 1.61288,-0.71587 4.17526,-2.46905 5.69419,-3.89603 3.29596,-3.09643 3.77028,-2.81032 3.06108,1.84623 -0.52797,3.46677 -0.6335,3.52611 -6.11252,3.43949 -5.26891,-0.0832 -5.41413,-0.15979 -2.64275,-1.38969 z m 150.1119,-22.94411 v -24.42202 h 6.18471 6.18471 l -1.11976,3.21212 c -0.62003,1.77863 -0.84978,6.74373 -0.5148,11.12557 0.33269,4.35237 0.5327,9.13457 0.44441,10.62698 -0.66221,11.19115 -0.17268,20.47384 1.16462,22.08479 1.35908,1.63714 0.88323,1.79445 -5.42711,1.79445 h -6.91678 z m 28.22096,22.65781 c 1.79095,-0.96585 4.39507,-2.79566 5.78696,-4.0663 l 2.53071,-2.31022 -0.35984,3.79899 c -0.35475,3.74533 -0.43643,3.80271 -5.78698,4.06626 l -5.42709,0.26773 z m 166.87087,-23.74325 c -0.002,-9.3031 0.05,-9.5186 1.08954,-4.51961 0.73099,3.5152 0.73169,6.74236 0.002,9.76885 -0.98356,4.07944 -1.0898,3.56828 -1.0917,-5.24924 z m -351.55528,5.39432 c -0.35052,-0.91346 -1.79017,-2.26496 -3.19918,-3.00316 l -2.56184,-1.34229 3.77596,-3.0129 3.77596,-3.0129 v 6.01606 c 0,6.02243 -0.59545,7.4705 -1.7909,4.35519 z m 178.32481,0.75885 c -0.51288,-0.7946 -2.46663,-2.38021 -4.34169,-3.52352 -1.87506,-1.14339 -2.77644,-2.08068 -2.00309,-2.08289 0.77337,-0.002 2.65683,-1.25477 4.18547,-2.78343 1.52862,-1.52858 2.99914,-2.5595 3.2678,-2.2908 0.26866,0.26889 0.33896,3.10676 0.15623,6.30692 -0.21345,3.73813 -0.66564,5.30192 -1.26474,4.37372 z m -98.16648,-1.48586 c -1.84415,-1.84413 -1.61535,-6.91299 0.40313,-8.9315 3.58796,-3.58795 10.23397,-0.69633 10.23397,4.45277 0,4.57131 -7.42024,7.69556 -10.63714,4.47873 z m 58.17033,-21.93374 -4.0243,-4.57963 4.56702,0.21588 c 4.5312,0.21396 4.56963,0.25032 4.90078,4.68177 0.18359,2.45628 -0.0607,4.41996 -0.54271,4.36374 -0.48206,-0.0561 -2.68741,-2.16305 -4.90079,-4.68181 z m -128.49112,-0.74698 c -1.13224,-1.25106 -3.52803,-2.92075 -5.32399,-3.7104 -3.2499,-1.42887 -3.23836,-1.43611 2.4331,-1.52424 l 5.69847,-0.0886 v 3.79892 c 0,4.45149 -0.10638,4.50918 -2.80758,1.52424 z m 178.27407,0.70066 c -0.33223,-0.86571 -2.46036,-2.55369 -4.72917,-3.75093 l -4.12514,-2.17695 5.69846,-0.0483 5.69846,-0.0483 v 3.79896 c 0,3.84921 -1.43686,5.10643 -2.54261,2.22487 z M 91.368738,386.75467 c -0.978015,-2.54867 -0.906134,-2.67062 1.57399,-2.67062 1.517377,0 2.136114,0.58943 1.899489,1.80955 -0.480572,2.4779 -2.646957,3.01499 -3.473479,0.86107 z M 291.79753,358.81706 270.87226,337.89185 v -27.53362 -27.53357 l 15.51066,-15.85234 c 8.53087,-8.71878 16.25651,-17.03299 17.16809,-18.47602 l 1.65742,-2.62369 9.14992,9.6789 c 21.18342,22.40807 28.64457,29.75921 30.20463,29.75921 0.90915,0 8.54995,-6.8382 16.97955,-15.19589 l 15.32653,-15.19593 25.4233,-0.0232 25.42329,-0.0232 17.6095,18.20024 17.60947,18.20021 0.0309,24.97786 0.0309,24.97779 -16.56538,16.53954 c -9.11098,9.09675 -17.0557,16.53959 -17.65503,16.53959 -0.59931,0 -6.93568,-5.8613 -14.08084,-13.02507 -7.14509,-7.16382 -13.46686,-13.02508 -14.04836,-13.02508 -0.58146,0 -8.19659,7.08242 -16.92246,15.73864 l -15.86516,15.73862 h -27.56588 -27.56589 z m 90.05229,3.82991 c 7.71035,-7.61152 14.51953,-14.75739 15.13149,-15.87965 0.95415,-1.75 -0.71336,-3.87134 -11.70945,-14.89613 l -12.82206,-12.85553 -15.24123,-0.30024 -15.24121,-0.29984 -0.29644,-15.73859 -0.29645,-15.73864 -17.05759,-17.09535 c -9.38168,-9.4025 -17.81849,-17.09543 -18.7485,-17.09543 -0.93,0 -8.38444,6.75518 -16.56539,15.01154 l -14.87449,15.0115 v 27.40148 27.40149 l 19.26622,19.46687 19.26623,19.46689 27.58497,-0.0116 27.58497,-0.0116 14.0189,-13.83906 z m -58.49264,-5.36417 c -1.28085,-0.2511 -3.09995,-1.30763 -4.0424,-2.34903 -1.61326,-1.78265 -1.2797,-1.90012 5.69874,-2.00768 11.68915,-0.17991 18.8913,-4.98335 21.9711,-14.65308 2.31751,-7.27629 3.39909,-9.50313 4.33478,-8.92488 1.6696,1.03185 0.99113,10.60269 -1.07172,15.11806 -4.964,10.86561 -14.24636,15.28983 -26.8905,12.81661 z m -28.38857,-41.79737 c -3.18484,-3.18483 1.0609,-7.43053 5.21003,-5.21003 3.52055,1.88414 1.97775,6.51255 -2.17086,6.51255 -0.95517,0 -2.32279,-0.58617 -3.03917,-1.30252 z m 21.45295,-15.0715 c -1.21155,-2.92492 -1.18788,-3.9011 0.15263,-6.29745 2.92412,-5.22721 8.73097,-3.6375 10.35546,2.83505 0.98887,3.93998 -0.82749,6.21391 -5.26888,6.59628 -3.3838,0.29095 -3.96427,-0.0558 -5.23921,-3.13388 z m 116.96573,41.84471 c 0.73151,-0.22942 1.90233,-2.69015 2.60187,-5.46817 1.03993,-4.13014 1.91114,-5.3179 4.7795,-6.51639 3.85401,-1.61029 4.85645,-3.31583 4.85645,-8.26251 0,-3.95893 -3.04749,-16.23165 -4.36904,-17.59492 -1.24654,-1.286 -14.03893,1.43221 -14.22321,3.02215 -0.077,0.66465 -0.0348,3.54404 0.10255,6.39858 0.30101,6.43587 -1.5636,9.47257 -7.44238,12.12353 -4.8628,2.19276 -5.28663,3.54399 -3.32586,10.60393 1.55597,5.60249 4.69903,7.56839 10.80596,6.75865 2.68644,-0.35594 5.48288,-0.83527 6.21441,-1.06485 z m -39.10764,-38.6718 c 0.72033,-0.59775 1.64659,-3.33371 2.0584,-6.07993 0.69289,-4.62036 0.51457,-5.18043 -2.38899,-7.50385 -3.64211,-2.91435 -9.25514,-3.30426 -11.7436,-0.8158 -1.02852,1.02848 -1.70566,3.58267 -1.70566,6.43382 0,4.03445 0.51762,5.14047 3.52762,7.53783 3.55854,2.83415 7.17121,2.98499 10.25223,0.42816 z m 18.72914,-23.09585 c 1.14931,-1.38484 1.08122,-2.1622 -0.38573,-4.40092 -2.12335,-3.24067 -5.5577,-3.53947 -7.12045,-0.61949 -3.70501,6.92289 2.48894,11.06571 7.50606,5.02041 z"
       style="fill:#ffffff;stroke-width:1.08542132" />
  </g>
</svg>
