<?xml version="1.0" encoding="UTF-8" standalone="no"?>
<svg
   xmlns:dc="http://purl.org/dc/elements/1.1/"
   xmlns:cc="http://creativecommons.org/ns#"
   xmlns:rdf="http://www.w3.org/1999/02/22-rdf-syntax-ns#"
   xmlns:svg="http://www.w3.org/2000/svg"
   xmlns="http://www.w3.org/2000/svg"
   xmlns:sodipodi="http://sodipodi.sourceforge.net/DTD/sodipodi-0.dtd"
   xmlns:inkscape="http://www.inkscape.org/namespaces/inkscape"
   width="500"
   height="200"
   viewBox="0 0 500 200"
   version="1.1"
   id="svg109"
   sodipodi:docname="nes.svg"
   style="fill:none"
   inkscape:version="0.92.5 (2060ec1f9f, 2020-04-08)">
  <metadata
     id="metadata115">
    <rdf:RDF>
      <cc:Work
         rdf:about="">
        <dc:format>image/svg+xml</dc:format>
        <dc:type
           rdf:resource="http://purl.org/dc/dcmitype/StillImage" />
        <dc:title />
      </cc:Work>
    </rdf:RDF>
  </metadata>
  <defs
     id="defs113" />
  <sodipodi:namedview
     pagecolor="#ffffff"
     bordercolor="#666666"
     borderopacity="1"
     objecttolerance="10"
     gridtolerance="10"
     guidetolerance="10"
     inkscape:pageopacity="0"
     inkscape:pageshadow="2"
     inkscape:window-width="1366"
     inkscape:window-height="743"
     id="namedview111"
     showgrid="false"
     inkscape:pagecheckerboard="true"
     inkscape:zoom="0.86768431"
     inkscape:cx="302.46202"
     inkscape:cy="21.562192"
     inkscape:window-x="0"
     inkscape:window-y="0"
     inkscape:window-maximized="1"
     inkscape:current-layer="svg109" />
  <g
     id="Group 26"
     transform="matrix(1.2557718,0,0,1.2557718,0,1.999847)">
    <g
       id="Group">
      <path
         style="fill:#ffffff"
         inkscape:connector-curvature="0"
         d="m 202.068,121.831 v -6.244 c 0,-0.243 -0.082,-0.451 -0.263,-0.629 -0.18,-0.177 -0.386,-0.266 -0.626,-0.266 h -2.677 v -1.784 h 8.92 v 1.784 h -2.682 c -0.246,0 -0.464,0.089 -0.638,0.266 -0.169,0.178 -0.252,0.386 -0.252,0.629 v 6.244 z"
         id="Path" />
      <path
         style="fill:#ffffff"
         inkscape:connector-curvature="0"
         d="m 209.207,121.831 v -8.92 h 10.702 c 0.492,0 0.91,0.18 1.253,0.531 0.357,0.355 0.532,0.773 0.532,1.253 v 7.136 h -1.782 v -6.244 c 0,-0.243 -0.089,-0.451 -0.269,-0.629 -0.174,-0.177 -0.386,-0.266 -0.626,-0.266 h -1.782 c -0.252,0 -0.463,0.089 -0.643,0.266 -0.169,0.178 -0.252,0.386 -0.252,0.629 v 6.244 h -1.782 v -6.244 c 0,-0.243 -0.089,-0.451 -0.269,-0.629 -0.174,-0.177 -0.386,-0.266 -0.626,-0.266 h -1.782 c -0.252,0 -0.463,0.089 -0.643,0.266 -0.169,0.178 -0.252,0.386 -0.252,0.629 v 6.244 z"
         id="Path_2" />
    </g>
    <g
       id="Group 24">
      <path
         style="fill:#ffffff"
         inkscape:connector-curvature="0"
         d="m 1.03619,137.681 v -6.223 H 20.1124 c 0.4976,0 0.9152,-0.149 1.2613,-0.444 0.346,-0.32 0.5205,-0.718 0.5205,-1.187 0,-0.443 -0.1745,-0.826 -0.5205,-1.146 -0.369,-0.321 -0.7923,-0.481 -1.2613,-0.481 H 7.07365 c -1.70456,0 -3.13742,-0.532 -4.29572,-1.596 -1.16116,-1.087 -1.74174,-2.382 -1.74174,-3.887 v -4.741 c 0,-1.505 0.58058,-2.792 1.74174,-3.856 1.18404,-1.084 2.61404,-1.627 4.29572,-1.627 H 28.7467 v 6.223 H 9.66481 c -0.49192,0 -0.92664,0.163 -1.29558,0.484 -0.31746,0.32 -0.48048,0.703 -0.48048,1.147 0,0.469 0.16302,0.863 0.48048,1.184 0.34606,0.297 0.77506,0.443 1.29558,0.443 H 22.7093 c 1.6759,0 3.0945,0.543 4.2557,1.63 1.184,1.087 1.7817,2.371 1.7817,3.855 v 4.739 c 0,1.533 -0.5977,2.829 -1.7817,3.89 -1.207,1.061 -2.6312,1.593 -4.2557,1.593 z"
         id="Path_3" />
      <path
         style="fill:#ffffff"
         inkscape:connector-curvature="0"
         d="M 42.7865,137.681 V 128.2 h -4.4073 c -1.7046,0 -3.1403,-0.532 -4.3014,-1.596 -1.1555,-1.087 -1.7361,-2.382 -1.7361,-3.887 v -10.224 h 6.8526 v 7.854 c 0,0.469 0.1573,0.863 0.4805,1.184 0.346,0.297 0.775,0.443 1.2956,0.443 h 10.4447 c 0.4976,0 0.9152,-0.146 1.2612,-0.443 0.3404,-0.321 0.5148,-0.715 0.5148,-1.184 v -7.854 h 6.8526 v 10.224 c 0,1.531 -0.592,2.826 -1.7761,3.887 -1.2126,1.064 -2.6312,1.596 -4.2614,1.596 H 49.599 v 9.481 z"
         id="Path_4" />
      <path
         style="fill:#ffffff"
         inkscape:connector-curvature="0"
         d="m 63.6445,137.681 v -6.223 h 19.0762 c 0.4976,0 0.9152,-0.149 1.2612,-0.444 0.3404,-0.32 0.5148,-0.718 0.5148,-1.187 0,-0.443 -0.1744,-0.826 -0.5148,-1.146 C 83.6073,128.36 83.1897,128.2 82.7207,128.2 H 69.6819 c -1.7045,0 -3.1402,-0.532 -4.3014,-1.596 -1.1554,-1.087 -1.736,-2.382 -1.736,-3.887 v -4.741 c 0,-1.505 0.5806,-2.792 1.736,-3.856 1.1898,-1.084 2.6197,-1.627 4.3014,-1.627 h 21.6674 v 6.223 H 72.2731 c -0.4976,0 -0.9266,0.163 -1.2956,0.484 -0.3232,0.32 -0.4805,0.703 -0.4805,1.147 0,0.469 0.1573,0.863 0.4805,1.184 0.3461,0.297 0.7751,0.443 1.2956,0.443 h 13.0387 c 1.6817,0 3.1003,0.543 4.2614,1.63 1.1841,1.087 1.7761,2.371 1.7761,3.855 v 4.739 c 0,1.533 -0.592,2.829 -1.7761,3.89 -1.2126,1.061 -2.6312,1.593 -4.2614,1.593 z"
         id="Path_5" />
      <path
         style="fill:#ffffff"
         inkscape:connector-curvature="0"
         d="m 105.392,137.681 v -17.337 c 0,-0.444 -0.183,-0.827 -0.558,-1.147 -0.34,-0.321 -0.766,-0.484 -1.255,-0.484 h -8.6319 v -6.223 h 27.7079 v 6.223 h -8.632 c -0.52,0 -0.949,0.163 -1.295,0.484 -0.346,0.32 -0.521,0.703 -0.521,1.147 v 17.337 z"
         id="Path_6" />
      <path
         style="fill:#ffffff"
         inkscape:connector-curvature="0"
         d="m 132.29,137.681 c -1.704,0 -3.14,-0.532 -4.301,-1.593 -1.156,-1.087 -1.736,-2.382 -1.736,-3.89 V 112.49 h 27.707 v 6.223 h -19.076 c -0.497,0 -0.926,0.163 -1.295,0.484 -0.324,0.32 -0.481,0.703 -0.481,1.147 0,0.469 0.157,0.863 0.481,1.184 0.346,0.297 0.775,0.443 1.295,0.443 h 19.076 v 6.226 h -19.076 c -0.497,0 -0.926,0.16 -1.295,0.481 -0.324,0.32 -0.481,0.703 -0.481,1.147 0,0.469 0.157,0.866 0.481,1.186 0.346,0.298 0.775,0.444 1.295,0.444 h 19.076 v 6.223 h -21.67 z"
         id="Path_7" />
      <path
         style="fill:#ffffff"
         inkscape:connector-curvature="0"
         d="M 157.555,137.681 V 112.49 h 32.118 c 1.653,0 3.06,0.544 4.224,1.627 1.207,1.09 1.817,2.374 1.817,3.856 v 19.708 h -6.853 v -17.337 c 0,-0.444 -0.189,-0.827 -0.558,-1.147 -0.346,-0.321 -0.766,-0.484 -1.255,-0.484 h -5.188 c -0.521,0 -0.95,0.163 -1.296,0.484 -0.346,0.32 -0.52,0.703 -0.52,1.147 v 17.337 h -6.853 v -17.337 c 0,-0.444 -0.174,-0.827 -0.515,-1.147 -0.374,-0.321 -0.792,-0.484 -1.261,-0.484 h -5.222 c -0.498,0 -0.927,0.163 -1.296,0.484 -0.323,0.32 -0.48,0.703 -0.48,1.147 v 17.337 z"
         id="Path_8" />
    </g>
  </g>
  <g
     id="Group 30"
     transform="matrix(1.2557718,0,0,1.2557718,0,1.999847)">
    <path
       style="fill:#ffffff"
       inkscape:connector-curvature="0"
       d="m 7.03746,104.191 c -1.70456,0 -3.13742,-0.532 -4.29572,-1.593 C 1.58058,101.511 1,100.215 1,98.7083 V 79 h 27.7105 v 6.2234 H 9.63148 c -0.49478,0 -0.92664,0.163 -1.29558,0.4833 -0.32032,0.3203 -0.48334,0.7036 -0.48334,1.1469 0,0.469 0.16302,0.8637 0.48334,1.184 0.34606,0.2974 0.77506,0.4433 1.29558,0.4433 H 28.7105 v 6.2262 H 9.63148 c -0.49478,0 -0.92664,0.1602 -1.29558,0.4805 -0.32032,0.3203 -0.48334,0.7036 -0.48334,1.1469 0,0.469 0.16302,0.8665 0.48334,1.1869 0.34606,0.2974 0.77506,0.4433 1.29558,0.4433 H 28.7105 v 6.2233 H 7.03746 Z"
       id="Path_9" />
    <path
       style="fill:#ffffff"
       inkscape:connector-curvature="0"
       d="M 32.3027,104.191 V 79 h 21.6731 c 1.6788,0 3.0973,0.5434 4.2585,1.6273 1.1869,1.0897 1.7789,2.3738 1.7789,3.8553 V 104.191 H 53.1607 V 86.8536 c 0,-0.4433 -0.1745,-0.8266 -0.5206,-1.1469 -0.3689,-0.3203 -0.7893,-0.4833 -1.2584,-0.4833 H 40.9342 c -0.4948,0 -0.9267,0.163 -1.2956,0.4833 -0.3203,0.3203 -0.4834,0.7036 -0.4834,1.1469 v 17.3374 z"
       id="Path_10" />
    <path
       style="fill:#ffffff"
       inkscape:connector-curvature="0"
       d="M 74.053,104.191 V 86.8536 c 0,-0.4433 -0.1859,-0.8266 -0.5548,-1.1469 -0.3461,-0.3203 -0.7665,-0.4833 -1.2584,-0.4833 H 63.6083 V 79 h 27.7105 v 6.2234 h -8.6315 c -0.5205,0 -0.9523,0.163 -1.2984,0.4833 -0.3461,0.3203 -0.5177,0.7036 -0.5177,1.1469 v 17.3374 z"
       id="Path_11" />
    <path
       style="fill:#ffffff"
       inkscape:connector-curvature="0"
       d="m 100.948,104.191 c -1.7042,0 -3.137,-0.532 -4.2953,-1.593 -1.1612,-1.087 -1.7418,-2.383 -1.7418,-3.8897 V 79 h 27.7101 v 6.2234 h -19.079 c -0.494,0 -0.926,0.163 -1.295,0.4833 -0.32,0.3203 -0.483,0.7036 -0.483,1.1469 0,0.469 0.163,0.8637 0.483,1.184 0.346,0.2974 0.775,0.4433 1.295,0.4433 h 19.079 v 6.2262 h -19.079 c -0.494,0 -0.926,0.1602 -1.295,0.4805 -0.32,0.3203 -0.483,0.7036 -0.483,1.1469 0,0.469 0.163,0.8665 0.483,1.1869 0.346,0.2974 0.775,0.4433 1.295,0.4433 h 19.079 v 6.2233 h -21.673 z"
       id="Path_12" />
    <path
       style="clip-rule:evenodd;fill:#ffffff;fill-rule:evenodd"
       inkscape:connector-curvature="0"
       d="m 126.214,79 v 25.188 h 6.852 v -7.8535 c 0,-0.4433 0.163,-0.8266 0.484,-1.1469 0.369,-0.3203 0.8,-0.4805 1.295,-0.4805 h 10.448 c 0.469,0 0.889,0.1602 1.258,0.4805 0.346,0.3203 0.521,0.7036 0.521,1.1469 v 7.8535 h 6.852 V 93.8148 c -0.097,-1.3814 -0.666,-2.1221 -1.704,-2.2194 1.038,-0.0743 1.604,-0.8151 1.704,-2.2222 v -4.8906 c 0,-1.4815 -0.592,-2.7656 -1.779,-3.8553 C 150.984,79.5434 149.566,79 147.887,79 Z m 20.337,9.0405 c -0.346,0.2974 -0.766,0.4433 -1.258,0.4433 h -10.448 c -0.52,0 -0.949,-0.1459 -1.295,-0.4433 -0.321,-0.3204 -0.484,-0.715 -0.484,-1.1841 0,-0.4433 0.163,-0.8265 0.484,-1.1468 0.369,-0.3204 0.8,-0.4834 1.295,-0.4834 h 10.448 c 0.469,0 0.889,0.163 1.258,0.4834 0.346,0.3203 0.521,0.7035 0.521,1.1468 0,0.4691 -0.175,0.8637 -0.521,1.1841 z"
       id="Shape" />
    <path
       style="fill:#ffffff"
       inkscape:connector-curvature="0"
       d="M 167.964,104.191 V 86.8536 c 0,-0.4433 -0.186,-0.8266 -0.555,-1.1469 -0.346,-0.3203 -0.766,-0.4833 -1.258,-0.4833 h -8.632 V 79 h 27.711 v 6.2234 h -8.632 c -0.52,0 -0.952,0.163 -1.298,0.4833 -0.346,0.3203 -0.518,0.7036 -0.518,1.1469 v 17.3374 z"
       id="Path_13" />
    <path
       style="clip-rule:evenodd;fill:#ffffff;fill-rule:evenodd"
       inkscape:connector-curvature="0"
       d="m 188.822,84.4826 v 19.7084 h 6.852 V 94.71 h 14.003 v 9.481 h 6.853 V 84.4826 c 0,-1.4815 -0.592,-2.7656 -1.779,-3.8553 C 213.59,79.5434 212.171,79 210.492,79 h -15.633 c -1.678,0 -3.111,0.5434 -4.295,1.6273 -1.162,1.064 -1.742,2.351 -1.742,3.8553 z m 20.855,2.3738 v 1.6274 h -14.005 v -1.6274 c 0,-0.4433 0.163,-0.8265 0.483,-1.1468 0.369,-0.3204 0.801,-0.4834 1.296,-0.4834 h 10.447 c 0.469,0 0.89,0.163 1.258,0.4834 0.347,0.3203 0.521,0.7035 0.521,1.1468 z"
       id="Shape_2" />
    <path
       style="fill:#ffffff"
       inkscape:connector-curvature="0"
       d="M 220.125,104.191 V 79 h 6.852 v 25.191 z"
       id="Path_14" />
    <path
       style="fill:#ffffff"
       inkscape:connector-curvature="0"
       d="M 230.572,104.191 V 79 h 21.67 c 1.679,0 3.101,0.5434 4.262,1.6273 1.187,1.0897 1.779,2.3738 1.779,3.8553 V 104.191 H 251.43 V 86.8536 c 0,-0.4433 -0.174,-0.8266 -0.517,-1.1469 -0.372,-0.3203 -0.79,-0.4833 -1.259,-0.4833 h -10.447 c -0.495,0 -0.927,0.163 -1.299,0.4833 -0.32,0.3203 -0.48,0.7036 -0.48,1.1469 v 17.3374 z"
       id="Path_15" />
    <path
       style="fill:#ffffff"
       inkscape:connector-curvature="0"
       d="M 261.875,104.191 V 79 h 32.118 c 1.656,0 3.063,0.5434 4.224,1.6273 1.21,1.0897 1.813,2.3738 1.813,3.8553 v 19.7084 h -6.852 V 86.8536 c 0,-0.4433 -0.186,-0.8266 -0.555,-1.1469 -0.346,-0.3203 -0.767,-0.4833 -1.259,-0.4833 h -5.185 c -0.52,0 -0.952,0.163 -1.295,0.4833 -0.346,0.3203 -0.521,0.7036 -0.521,1.1469 V 104.191 H 277.51 V 86.8536 c 0,-0.4433 -0.171,-0.8266 -0.517,-1.1469 -0.369,-0.3203 -0.79,-0.4833 -1.259,-0.4833 h -5.228 c -0.494,0 -0.926,0.163 -1.298,0.4833 -0.32,0.3203 -0.481,0.7036 -0.481,1.1469 v 17.3374 z"
       id="Path_16" />
    <path
       style="fill:#ffffff"
       inkscape:connector-curvature="0"
       d="m 309.628,104.191 c -1.704,0 -3.137,-0.532 -4.295,-1.593 -1.162,-1.087 -1.742,-2.383 -1.742,-3.8897 V 79 h 27.71 v 6.2234 h -19.079 c -0.494,0 -0.926,0.163 -1.298,0.4833 -0.32,0.3203 -0.481,0.7036 -0.481,1.1469 0,0.469 0.161,0.8637 0.481,1.184 0.346,0.2974 0.778,0.4433 1.298,0.4433 h 19.079 v 6.2262 h -19.079 c -0.494,0 -0.926,0.1602 -1.298,0.4805 -0.32,0.3203 -0.481,0.7036 -0.481,1.1469 0,0.469 0.161,0.8665 0.481,1.1869 0.346,0.2974 0.778,0.4433 1.298,0.4433 h 19.079 v 6.2233 h -21.673 z"
       id="Path_17" />
    <path
       style="fill:#ffffff"
       inkscape:connector-curvature="0"
       d="M 334.891,104.191 V 79 h 21.673 c 1.679,0 3.1,0.5434 4.258,1.6273 1.187,1.0897 1.779,2.3738 1.779,3.8553 v 19.7084 h -6.852 V 86.8536 c 0,-0.4433 -0.175,-0.8266 -0.521,-1.1469 -0.369,-0.3203 -0.786,-0.4833 -1.255,-0.4833 h -10.448 c -0.495,0 -0.924,0.163 -1.298,0.4833 -0.318,0.3203 -0.481,0.7036 -0.481,1.1469 v 17.3374 z"
       id="Path_18" />
    <path
       style="fill:#ffffff"
       inkscape:connector-curvature="0"
       d="M 376.644,104.191 V 86.8536 c 0,-0.4433 -0.186,-0.8266 -0.555,-1.1469 -0.346,-0.3203 -0.766,-0.4833 -1.258,-0.4833 h -8.635 V 79 h 27.711 v 6.2234 h -8.632 c -0.52,0 -0.952,0.163 -1.298,0.4833 -0.343,0.3203 -0.518,0.7036 -0.518,1.1469 v 17.3374 z"
       id="Path_19" />
  </g>
  <path
     style="fill:#e60012;stroke-width:1.25577176"
     inkscape:connector-curvature="0"
     d="M 40.213204,87.743355 C 16.107283,87.735193 0,70.65205 0,49.939099 0,29.226148 16.144077,11.947044 40.17641,12.000122 h 227.10332 c 24.0317,-0.05308 40.1759,17.226026 40.1759,37.938977 0,20.712951 -16.10653,37.796094 -40.21232,37.804256 z"
     id="path29-path" />
  <path
     style="fill:#ffffff;stroke-width:1.25577176"
     inkscape:connector-curvature="0"
     d="m 40.286666,21.317422 c -19.083838,0.03676 -30.7978282,12.79192 -30.7978282,28.572576 0,15.776638 11.6405272,28.638002 30.7978282,28.568683 H 267.16922 c 19.15805,0.0653 30.80157,-12.792045 30.80157,-28.568683 0,-15.776512 -11.71384,-28.531751 -30.7978,-28.568494 z"
     id="path29-path_2" />
  <path
     style="clip-rule:evenodd;fill:#e60012;fill-rule:evenodd;stroke-width:1.25577176"
     inkscape:connector-curvature="0"
     d="m 273.75072,37.747313 c 0,-3.02955 2.4588,-5.487472 5.48772,-5.487472 3.03018,0 5.48772,2.457922 5.48772,5.487472 0,3.029549 -2.45754,5.487597 -5.48772,5.487597 -3.02892,0 -5.48772,-2.458048 -5.48772,-5.487597 z m 5.48772,4.442292 c 2.45001,0 4.4379,-1.988514 4.4379,-4.438274 0,-2.453778 -1.98789,-4.438149 -4.4379,-4.438149 -2.45001,0 -4.4379,1.988389 -4.4379,4.438149 0,2.44976 1.98789,4.438274 4.4379,4.438274 z"
     id="Subtract" />
  <path
     style="clip-rule:evenodd;fill:#e60012;fill-rule:evenodd;stroke-width:1.25577176"
     inkscape:connector-curvature="0"
     d="m 281.96974,36.387689 c 0,-1.163599 -0.86146,-1.751551 -2.59693,-1.751551 h -2.38346 v 6.079442 h 1.48181 v -2.490572 h 0.72207 l 1.1641,2.490572 h 1.64506 l -1.35874,-2.715104 c 0.82881,-0.208207 1.32609,-0.812484 1.32609,-1.612787 z m -2.77651,0.947228 h -0.72207 v -1.767875 h 0.64924 c 0.89034,0 1.32735,0.273507 1.32735,0.906416 0,0.604277 -0.40938,0.861459 -1.25452,0.861459 z"
     id="Subtract_2" />
  <path
     style="clip-rule:evenodd;fill:#e60012;fill-rule:evenodd;stroke-width:1.25577176"
     inkscape:connector-curvature="0"
     d="m 163.36335,60.779423 c 0,-1.331118 -0.008,-1.437231 -0.008,-1.437231 l 10.68034,-0.0083 c -1.86482,5.597729 -7.97792,9.725576 -15.21242,9.725576 -8.72134,0 -15.78882,-5.957005 -15.78882,-13.310427 0,-7.353423 7.06748,-13.314572 15.78882,-13.314572 8.72133,0 15.82147,6.091749 15.82147,13.445172 0,0.01243 -20.19909,0.0043 -20.19909,0.0043 0,0 -0.008,3.597033 -0.008,4.895501 0,4.336055 2.90335,5.299608 4.48688,5.299608 1.58478,0 4.43789,-0.963553 4.43789,-5.299608 z m -8.20647,-13.23709 c -0.68188,1.184067 -0.72709,2.572323 -0.71076,4.650499 l 8.94612,0.0041 c 0.0163,-2.078302 -0.0126,-3.466558 -0.69445,-4.654643 -0.83634,-1.460965 -2.37466,-2.155156 -3.76982,-2.163946 0,0 0.001,0 0.001,0 h -0.004 c 0.001,0 0.001,0 0.003,0 -1.39642,0.0088 -2.93474,0.702981 -3.77109,2.163946 z"
     id="Subtract_3" />
  <path
     style="fill:#e60012;stroke-width:1.25577176"
     inkscape:connector-curvature="0"
     d="m 197.09338,42.830551 c 4.00968,-0.114275 12.14206,2.511042 12.08555,11.89781 -0.009,1.665907 -0.004,12.902176 -0.004,12.902176 h -10.65271 c 0,0 0,-14.090261 0,-15.572449 0,-2.065996 -1.97658,-4.364686 -4.90002,-4.364686 -2.91967,0 -5.0909,2.29869 -5.0909,4.364686 0,1.012529 0.0113,15.572449 0.0113,15.572449 h -10.64392 l 0.009,-23.70985 10.64016,-0.0082 c 0,0 -0.0126,1.906764 0,2.494717 2.04942,-1.955739 5.0055,-3.474595 8.54552,-3.57669 z"
     id="path29-path_3" />
  <path
     style="fill:#e60012;stroke-width:1.25577176"
     inkscape:connector-curvature="0"
     d="m 109.9545,42.830551 c 4.00943,-0.114275 12.14269,2.511042 12.08555,11.89781 -0.008,1.665907 -0.004,12.902176 -0.004,12.902176 h -10.65246 c 0,0 0,-14.090261 0,-15.572449 0,-2.065996 -1.97621,-4.364686 -4.89964,-4.364686 -2.9193,0 -5.0914,2.29869 -5.0914,4.364686 0,1.012529 0.0122,15.572449 0.0122,15.572449 H 90.760279 l -0.0041,-23.70985 10.652461,-0.0082 c 0,0 -0.0123,1.906764 0,2.494717 2.04967,-1.955739 5.00161,-3.474595 8.54565,-3.57669 z"
     id="path29-path_4" />
  <path
     style="clip-rule:evenodd;fill:#e60012;fill-rule:evenodd;stroke-width:1.25577176"
     inkscape:connector-curvature="0"
     d="M 242.87129,31.98219 H 232.2889 v 0 c 0,0 0,7.631074 0.008,13.118546 -1.71538,-0.963554 -3.52369,-1.890439 -6.06663,-2.114971 -7.72927,-0.67774 -13.63391,6.157049 -13.63391,12.416318 0,8.251676 6.3655,11.305713 7.3337,11.754903 3.60533,1.682106 8.23536,1.68625 12.33796,-0.890091 0,0.220388 0.005,1.371805 0.005,1.371805 h 10.59871 z M 232.3655,51.425305 v 4.238104 0 c 0,0 0.005,2.682454 0.005,4.205454 0,3.662459 -2.53541,4.621868 -4.20558,4.621868 -1.70283,0 -4.20182,-0.959409 -4.20182,-4.621868 0,-1.261674 0.005,-4.217761 0.005,-4.217761 0,0 -0.005,-3.00908 -0.005,-4.225797 0,-3.666603 2.49899,-4.601525 4.20558,-4.601525 1.66641,0 4.19679,0.934922 4.19679,4.601525 z"
     id="Subtract_4" />
  <path
     style="clip-rule:evenodd;fill:#e60012;fill-rule:evenodd;stroke-width:1.25577176"
     inkscape:connector-curvature="0"
     d="m 246.36233,55.622596 c 0,-7.353423 7.01475,-13.314571 15.67078,-13.314571 8.65604,0 15.67078,5.961148 15.67078,13.314571 0,7.353423 -7.01474,13.314572 -15.67078,13.314572 -8.65227,0 -15.67078,-5.961149 -15.67078,-13.314572 z m 19.97431,4.993451 c 0,-1.43723 0.004,-5.022082 0.004,-5.022082 l 0.004,0.01231 c -0.01,-0.77343 -0.009,-2.674794 -0.008,-4.131238 0,-0.33504 0,-0.646597 0,-0.915332 0,-3.764553 -2.24155,-5.311915 -4.38139,-5.311915 -2.13481,0 -4.38138,1.547362 -4.38138,5.311915 0,1.437231 -0.008,4.944476 -0.008,4.944476 0,0 -0.004,3.67464 -0.004,5.11187 0,3.780878 2.24156,5.340547 4.39269,5.340547 2.14737,0 4.38139,-1.559669 4.38139,-5.340547 z"
     id="Subtract_5" />
  <path
     style="fill:#e60012;stroke-width:1.25577176"
     inkscape:connector-curvature="0"
     d="M 74.105982,39.26215 V 31.974027 H 84.852375 V 39.26215 Z"
     id="path29-path_5" />
  <path
     style="fill:#e60012;stroke-width:1.25577176"
     inkscape:connector-curvature="0"
     d="M 74.13047,67.6387 V 43.924831 l 10.721905,0.0043 v 23.709726 z"
     id="path29-path_6" />
  <path
     style="fill:#e60012;stroke-width:1.25577176"
     inkscape:connector-curvature="0"
     d="m 127.92422,67.638826 0.004,-23.664894 h -5.83067 V 40.45438 l 5.83444,-0.0043 -0.008,-4.801569 h 10.72931 v 4.797551 h 5.80669 v 3.527714 h -5.80669 l 0.009,23.664894 z"
     id="path29-path_7" />
  <path
     style="fill:#e60012;stroke-width:1.25577176"
     inkscape:connector-curvature="0"
     d="m 30.49579,67.6387 0.004,-35.65651 H 41.609622 L 56.977883,56.847476 56.96972,31.98219 H 67.993764 V 67.6387 H 56.986045 L 41.536034,42.773414 V 67.6387 Z"
     id="path29-path_8" />
</svg>
