<?xml version="1.0" encoding="UTF-8" standalone="no"?>
<!-- Created with Inkscape (http://www.inkscape.org/) -->

<svg
   xmlns:dc="http://purl.org/dc/elements/1.1/"
   xmlns:cc="http://creativecommons.org/ns#"
   xmlns:rdf="http://www.w3.org/1999/02/22-rdf-syntax-ns#"
   xmlns:svg="http://www.w3.org/2000/svg"
   xmlns="http://www.w3.org/2000/svg"
   xmlns:sodipodi="http://sodipodi.sourceforge.net/DTD/sodipodi-0.dtd"
   xmlns:inkscape="http://www.inkscape.org/namespaces/inkscape"
   width="500"
   height="200"
   viewBox="0 0 500 200"
   version="1.1"
   id="svg8"
   inkscape:version="0.92.5 (2060ec1f9f, 2020-04-08)"
   sodipodi:docname="ngp.svg">
  <defs
     id="defs2" />
  <sodipodi:namedview
     id="base"
     pagecolor="#ffffff"
     bordercolor="#666666"
     borderopacity="1.0"
     inkscape:pageopacity="0.0"
     inkscape:pageshadow="2"
     inkscape:zoom="0.98030869"
     inkscape:cx="264.23755"
     inkscape:cy="50.16234"
     inkscape:document-units="mm"
     inkscape:current-layer="layer1"
     showgrid="false"
     units="px"
     inkscape:pagecheckerboard="true"
     inkscape:window-width="1366"
     inkscape:window-height="743"
     inkscape:window-x="0"
     inkscape:window-y="0"
     inkscape:window-maximized="1" />
  <metadata
     id="metadata5">
    <rdf:RDF>
      <cc:Work
         rdf:about="">
        <dc:format>image/svg+xml</dc:format>
        <dc:type
           rdf:resource="http://purl.org/dc/dcmitype/StillImage" />
        <dc:title />
      </cc:Work>
    </rdf:RDF>
  </metadata>
  <g
     inkscape:label="Layer 1"
     inkscape:groupmode="layer"
     id="layer1"
     transform="translate(-1.5801112,-255.0307)">
    <path
       inkscape:connector-curvature="0"
       id="path420"
       d="m 257.44813,383.11628 c -2.36215,-4.85286 -8.94682,-18.28741 -14.63262,-29.85451 -6.69293,-13.61595 -10.19744,-21.25193 -9.93966,-21.65732 0.54286,-0.85386 23.84028,-11.94906 27.55129,-13.12116 7.85889,-2.48213 15.92712,-1.21736 21.74916,3.40942 4.2338,3.36462 7.07769,8.95921 7.71267,15.17269 0.68226,6.67605 -2.08546,13.64124 -7.41947,18.67158 -3.13302,2.95469 -9.28202,6.71078 -10.98597,6.71078 -0.82796,0 -17.44664,-13.40245 -18.46532,-14.89167 -0.45395,-0.66371 -0.0461,-2.28937 2.12627,-8.47511 2.28099,-6.49496 2.87018,-7.72312 3.89139,-8.11137 0.66188,-0.25177 4.1651,-0.39735 7.78496,-0.32326 l 6.58154,0.13366 0.43006,1.74016 c 0.23654,0.95709 0.28106,2.53446 0.099,3.50518 l -0.33114,1.76503 h -4.80168 c -5.56716,0 -5.59253,0.0194 -7.02834,5.22849 -0.72076,2.61516 -0.74436,3.14767 -0.16462,3.7141 1.63034,1.59279 10.36485,7.49552 11.09144,7.49552 1.1323,0 4.30134,-2.39502 6.47256,-4.89175 4.39679,-5.05587 5.32522,-10.4445 2.76176,-16.02911 -3.28112,-7.14807 -9.6085,-10.1378 -17.79184,-8.40666 -4.92456,1.04175 -21.92131,9.59857 -21.92131,11.03607 0,0.54809 5.87422,12.64266 13.0538,26.87691 7.1796,14.23421 13.05381,26.07658 13.05381,26.31653 0,0.51631 -4.74212,2.79745 -5.82973,2.80429 -0.49932,0.003 -2.20104,-2.96968 -5.04804,-8.81868 z m -170.570819,6.35987 c -9.66841,-2.27527 -16.775817,-11.37082 -16.775817,-21.46841 0,-6.35179 2.29084,-11.69011 6.878496,-16.02892 4.681135,-4.42723 9.65423,-6.21522 16.280744,-5.85354 7.022186,0.38308 12.311946,3.20396 16.609946,8.85691 4.79814,6.31076 5.52758,15.23311 1.87518,22.93676 -1.55617,3.28226 -6.29163,8.14239 -9.37534,9.62208 -4.788017,2.29758 -10.775351,3.04537 -15.493209,1.93512 z m 10.987066,-4.29237 c 12.816993,-4.40972 16.539923,-20.54148 6.953083,-30.12831 -1.28532,-1.28536 -3.58484,-2.92182 -5.110044,-3.63659 -2.430402,-1.13908 -3.370588,-1.29965 -7.607849,-1.29965 -4.224918,0 -5.180827,0.16201 -7.578531,1.28621 -3.843973,1.80197 -6.876133,4.7715 -8.738754,8.55825 -1.456534,2.96118 -1.571025,3.54797 -1.56808,8.03659 0.0024,3.97643 0.195312,5.25965 1.077631,7.17713 4.037897,8.7749 13.701102,13.05857 22.572544,10.00637 z m 37.073233,4.05693 c -10.3241,-2.77628 -17.39021,-13.34383 -16.00963,-23.94277 1.06416,-8.16966 5.52351,-14.09815 13.27322,-17.64607 2.22254,-1.01755 3.8258,-1.35312 7.34352,-1.53712 5.60609,-0.29334 9.99748,0.95052 14.15026,4.00762 2.74112,2.01788 5.84923,5.45718 5.84923,6.47239 0,0.30499 -0.86326,0.53481 -2.00805,0.53481 -1.74751,0 -2.34089,-0.31471 -4.5733,-2.42611 -3.92385,-3.71102 -6.17602,-4.54927 -12.27415,-4.56834 -4.65633,-0.0155 -5.29186,0.0971 -7.67891,1.35432 -13.85395,7.29435 -13.94313,26.03345 -0.15623,32.82078 2.95716,1.4558 3.59986,1.58607 7.82495,1.58607 3.96329,0 4.98087,-0.17717 7.3203,-1.27405 3.26418,-1.53051 6.38037,-4.23775 8.24224,-7.16054 1.54383,-2.42354 1.72591,-3.65368 0.60446,-4.08401 -0.42061,-0.16124 -5.75091,-0.29373 -11.84512,-0.29373 h -11.08034 v -1.69217 -1.69218 h 14.32983 14.32983 l -0.30014,2.53399 c -0.64746,5.46685 -5.66262,12.43227 -10.83841,15.05318 -5.33736,2.70277 -11.15637,3.39162 -16.5036,1.95365 z m 73.47748,-0.003 c -5.29135,-1.42266 -11.12533,-6.02935 -13.47946,-10.64381 -3.09658,-6.0698 -3.36694,-13.97134 -0.67487,-19.72414 1.68837,-3.60799 5.5659,-7.99198 8.68579,-9.82037 5.17706,-3.03391 12.31735,-3.87864 17.9549,-2.12403 15.72586,4.89444 20.66731,24.93728 9.01978,36.58477 -5.5671,5.56712 -13.87427,7.77954 -21.50614,5.72758 z m 13.25555,-4.70448 c 3.80045,-1.75947 7.54398,-5.48305 9.2724,-9.22291 1.17672,-2.54611 1.36403,-3.54889 1.36403,-7.30266 0,-3.88839 -0.16384,-4.69714 -1.54018,-7.60253 -1.84887,-3.90288 -4.94877,-7.06453 -8.74972,-8.92409 -2.46231,-1.20466 -3.29146,-1.35272 -7.59864,-1.35707 -4.2309,-0.004 -5.17744,0.15579 -7.57854,1.28139 -3.67982,1.72501 -6.69022,4.60051 -8.64892,8.26138 -1.41645,2.64729 -1.64072,3.56304 -1.80592,7.37396 -0.15591,3.59727 -0.007,4.83316 0.8593,7.13226 1.95207,5.18042 6.55464,9.60474 11.73674,11.28216 3.39464,1.09882 9.24241,0.67397 12.68945,-0.92189 z m 87.60478,4.94284 c -9.64812,-2.27053 -16.77582,-11.37303 -16.77582,-21.42373 0,-6.02648 1.90569,-10.86772 5.96917,-15.16426 13.67162,-14.45574 38.00334,-4.77535 38.00334,15.11958 0,10.10369 -6.66661,18.64299 -16.65622,21.33515 -2.69978,0.72755 -7.74412,0.79135 -10.54047,0.13326 z m 12.8076,-5.11678 c 3.83336,-1.81041 6.92603,-4.84972 8.89982,-8.74635 1.27062,-2.50846 1.40337,-3.22789 1.40328,-7.60528 -9e-5,-4.32816 -0.14344,-5.12681 -1.36817,-7.62215 -1.7984,-3.66417 -5.19248,-7.08085 -8.78469,-8.84324 -2.62325,-1.28698 -3.3635,-1.42312 -7.73559,-1.42312 -4.22491,0 -5.18082,0.16201 -7.57853,1.28621 -3.84398,1.80197 -6.87613,4.7715 -8.73876,8.55825 -1.45652,2.96118 -1.57102,3.54797 -1.56808,8.03659 0.002,3.97643 0.19531,5.25965 1.07764,7.17713 3.28523,7.13925 9.61342,11.1074 17.29121,10.84263 3.16224,-0.10918 4.45774,-0.41196 7.10187,-1.66067 z m 36.66426,4.90205 c -4.96262,-1.39104 -10.43422,-5.52917 -12.92058,-9.77182 -3.79455,-6.47495 -4.05316,-15.18162 -0.64876,-21.84108 1.4024,-2.74326 5.4585,-7.03381 8.12907,-8.59886 8.26358,-4.84276 18.91555,-3.84989 26.07837,2.43072 1.81626,1.59256 4.49083,5.00019 4.49083,5.72172 0,0.22612 -0.88436,0.41106 -1.96527,0.41106 -1.7113,0 -2.25805,-0.29994 -4.23041,-2.32376 -1.24582,-1.27805 -3.57049,-2.96413 -5.16596,-3.74689 -2.62325,-1.28703 -3.3635,-1.42317 -7.73558,-1.42317 -4.22492,0 -5.18083,0.16202 -7.57853,1.28621 -3.84151,1.80085 -6.87596,4.77166 -8.73876,8.55558 -1.45584,2.95721 -1.57126,3.54758 -1.57126,8.03655 0,4.24832 0.16004,5.18645 1.29966,7.61803 5.45661,11.6429 20.93745,14.09566 29.76318,4.71571 1.56207,-1.66013 2.09819,-1.92735 3.86817,-1.92805 1.13011,-4.7e-4 2.05476,0.19737 2.05476,0.43938 0,0.74037 -3.72872,5.20638 -5.43079,6.50456 -0.88238,0.67307 -3.09092,1.91938 -4.90786,2.76963 -2.80149,1.311 -3.97516,1.57177 -7.72321,1.71634 -2.97628,0.11462 -5.28428,-0.0719 -7.06707,-0.57159 z M 4.8324814,367.98361 v -21.05529 l 2.6671918,0.14492 2.6671958,0.1453 11.297971,16.19638 c 6.213882,8.908 11.594935,16.19641 11.957895,16.19641 0.542042,0 0.682676,-2.91491 0.787228,-16.31728 l 0.12728,-16.31725 h 1.927465 1.927464 v 21.03113 21.03113 H 36.125531 34.05887 L 22.225648,371.64475 C 14.580967,360.40754 10.135725,354.29186 9.6672151,354.36704 9.0410539,354.46767 8.9246598,356.8433 8.815026,371.76116 L 8.6880563,389.03887 H 6.7602766 4.8324853 Z m 39.1614106,0.0233 V 346.97579 H 55.38472 66.775544 l -0.150048,1.81305 -0.150048,1.81301 -9.186003,0.24166 -9.186012,0.24167 v 7.01033 7.01042 l 8.425456,0.13249 c 5.408137,0.0851 8.663294,0.33024 9.089583,0.68384 0.365252,0.30344 0.598736,1.1137 0.518816,1.80124 l -0.145269,1.25007 -8.559019,0.24166 c -5.147861,0.14531 -8.766063,0.44945 -9.078533,0.76283 -0.336579,0.33763 -0.47224,3.06208 -0.385261,7.73556 l 0.134274,7.21455 9.306877,0.13171 9.306877,0.1317 v 1.92347 1.92347 H 55.3556 43.993958 Z m 122.802428,-0.008 v -21.03987 l 11.48251,0.12977 11.48251,0.12977 0.14531,1.25003 c 0.0799,0.68754 -0.15382,1.49835 -0.51948,1.80179 -0.43107,0.35783 -3.79642,0.59817 -9.57305,0.68384 l -8.90827,0.1321 v 7.01037 7.01042 l 8.94427,0.26963 c 4.91935,0.14803 8.99866,0.3116 9.06514,0.3625 0.0664,0.0513 0.12087,0.85463 0.12087,1.7853 v 1.69218 h -8.36839 c -5.95699,0 -8.60792,0.17523 -9.19961,0.60777 -0.73305,0.53605 -0.81533,1.46384 -0.69674,7.85647 l 0.13446,7.24865 9.30029,0.13171 9.30028,0.13094 0.30048,1.19723 c 0.66704,2.65767 0.7017,2.64978 -11.63375,2.64978 h -11.37681 z m 225.29899,0.008 v -21.03113 h 1.69214 1.69218 v 11.32207 c 0,11.40882 0.12821,12.8516 1.14199,12.8516 0.30538,0 5.76135,-5.43906 12.12456,-12.08683 l 11.56947,-12.08684 h 2.36301 2.36304 l -0.88642,1.12696 c -0.48759,0.61985 -4.80025,5.19453 -9.58372,10.16589 -4.78348,4.97144 -8.69724,9.33651 -8.69724,9.70017 0,0.36366 4.35124,5.19861 9.66948,10.74433 l 9.66947,10.08317 -2.33538,0.14881 -2.33534,0.1488 -8.79331,-9.04935 c -10.07051,-10.36369 -9.06641,-9.99273 -13.42794,-4.96087 l -2.59993,2.9996 -0.1624,5.47722 -0.16241,5.47726 h -1.6506 -1.65053 z m 43.02922,-0.008 v -21.03987 l 11.48248,0.12977 11.48253,0.12977 0.14531,1.25003 c 0.08,0.68754 -0.15386,1.49835 -0.51946,1.80179 -0.43115,0.35783 -3.79643,0.59817 -9.57308,0.68384 l -8.90824,0.1321 v 7.01037 7.01042 l 8.94429,0.24166 8.94426,0.24166 0.15036,1.81301 0.14997,1.81301 h -8.39757 c -5.98043,0 -8.63685,0.17484 -9.22881,0.60781 -0.73307,0.53601 -0.81532,1.46384 -0.69674,7.85646 l 0.13443,7.24866 9.30026,0.13132 9.3003,0.13094 0.30033,1.19719 c 0.66702,2.6577 0.70167,2.64978 -11.63374,2.64978 h -11.3768 z m 46.78174,2.09236 -0.12666,-19.00521 -7.25212,-0.24166 -7.25211,-0.24166 -0.14997,-1.81305 -0.15036,-1.81301 h 16.97998 16.97995 l -0.14997,1.81301 -0.15036,1.81305 -7.25211,0.24166 -7.25212,0.24166 -0.24166,18.85551 -0.24166,18.85551 -1.80742,0.14958 -1.80741,0.14998 z M 294.03662,322.99499 c -0.61715,-0.95243 -1.01345,-2.01477 -0.88068,-2.36075 0.39503,-1.02944 13.38146,-12.40861 13.94636,-12.22037 0.52479,0.17483 4.25279,6.04707 4.25279,6.69878 0,0.48091 -14.81587,9.62743 -15.58275,9.62001 -0.33747,-0.003 -1.11857,-0.78528 -1.73572,-1.73767 z m -8.91,-9.25939 c -0.73126,-0.45356 -1.32956,-1.15772 -1.32956,-1.56517 0,-1.19968 8.92774,-16.18211 9.73528,-16.33764 1.0492,-0.20203 5.49416,2.9773 5.49416,3.92981 0,0.92352 -11.33793,14.82939 -12.07529,14.81019 -0.27227,-0.008 -1.09334,-0.38347 -1.82459,-0.83719 z m -13.01842,-4.84482 c -0.7118,-0.0905 -1.49495,-0.42341 -1.74035,-0.73983 -0.4926,-0.63554 2.08927,-18.66039 2.77248,-19.3555 0.37465,-0.38153 6.95111,0.39369 7.80151,0.91944 0.61126,0.37765 -6.20355,18.94791 -7.04399,19.19466 -0.27247,0.08 -1.07786,0.0715 -1.78965,-0.0194 z"
       style="fill:#da070a;stroke-width:0.48347414" />
    <path
       inkscape:connector-curvature="0"
       id="path418"
       d="m 86.877311,389.47615 c -9.66841,-2.27527 -16.775817,-11.37082 -16.775817,-21.46841 0,-6.35179 2.29084,-11.69011 6.878496,-16.02892 4.681135,-4.42723 9.65423,-6.21522 16.280744,-5.85354 7.022186,0.38308 12.311946,3.20396 16.609946,8.85691 4.79814,6.31076 5.52758,15.23311 1.87518,22.93676 -1.55617,3.28226 -6.29163,8.14239 -9.37534,9.62208 -4.788017,2.29758 -10.775351,3.04537 -15.493209,1.93512 z m 10.987066,-4.29237 c 12.816993,-4.40972 16.539923,-20.54148 6.953083,-30.12831 -1.28532,-1.28536 -3.58484,-2.92182 -5.110044,-3.63659 -2.430402,-1.13908 -3.370588,-1.29965 -7.607849,-1.29965 -4.224918,0 -5.180827,0.16201 -7.578531,1.28621 -3.843973,1.80197 -6.876133,4.7715 -8.738754,8.55825 -1.456534,2.96118 -1.571025,3.54797 -1.56808,8.03659 0.0024,3.97643 0.195312,5.25965 1.077631,7.17713 4.037897,8.7749 13.701102,13.05857 22.572544,10.00637 z m 37.073233,4.05693 c -10.3241,-2.77628 -17.39021,-13.34383 -16.00963,-23.94277 1.06416,-8.16966 5.52351,-14.09815 13.27322,-17.64607 2.22254,-1.01755 3.8258,-1.35312 7.34352,-1.53712 5.60609,-0.29334 9.99748,0.95052 14.15026,4.00762 2.74112,2.01788 5.84923,5.45718 5.84923,6.47239 0,0.30499 -0.86326,0.53481 -2.00805,0.53481 -1.74751,0 -2.34089,-0.31471 -4.5733,-2.42611 -3.92385,-3.71102 -6.17602,-4.54927 -12.27415,-4.56834 -4.65633,-0.0155 -5.29186,0.0971 -7.67891,1.35432 -13.85395,7.29435 -13.94313,26.03345 -0.15623,32.82078 2.95716,1.4558 3.59986,1.58607 7.82495,1.58607 3.96329,0 4.98087,-0.17717 7.3203,-1.27405 3.26418,-1.53051 6.38037,-4.23775 8.24224,-7.16054 1.54383,-2.42354 1.72591,-3.65368 0.60446,-4.08401 -0.42061,-0.16124 -5.75091,-0.29373 -11.84512,-0.29373 h -11.08034 v -1.69217 -1.69218 h 14.32983 14.32983 l -0.30014,2.53399 c -0.64746,5.46685 -5.66262,12.43227 -10.83841,15.05318 -5.33736,2.70277 -11.15637,3.39162 -16.5036,1.95365 z m 73.47748,-0.003 c -5.29135,-1.42266 -11.12533,-6.02935 -13.47946,-10.64381 -3.09658,-6.0698 -3.36694,-13.97134 -0.67487,-19.72414 1.68837,-3.60799 5.5659,-7.99198 8.68579,-9.82037 5.17706,-3.03391 12.31735,-3.87864 17.9549,-2.12403 15.72586,4.89444 20.66731,24.93728 9.01978,36.58477 -5.5671,5.56712 -13.87427,7.77954 -21.50614,5.72758 z m 13.25555,-4.70448 c 3.80045,-1.75947 7.54398,-5.48305 9.2724,-9.22291 1.17672,-2.54611 1.36403,-3.54889 1.36403,-7.30266 0,-3.88839 -0.16384,-4.69714 -1.54018,-7.60253 -1.84887,-3.90288 -4.94877,-7.06453 -8.74972,-8.92409 -2.46231,-1.20466 -3.29146,-1.35272 -7.59864,-1.35707 -4.2309,-0.004 -5.17744,0.15579 -7.57854,1.28139 -3.67982,1.72501 -6.69022,4.60051 -8.64892,8.26138 -1.41645,2.64729 -1.64072,3.56304 -1.80592,7.37396 -0.15591,3.59727 -0.007,4.83316 0.8593,7.13226 1.95207,5.18042 6.55464,9.60474 11.73674,11.28216 3.39464,1.09882 9.24241,0.67397 12.68945,-0.92189 z m 87.60478,4.94284 c -9.64812,-2.27053 -16.77582,-11.37303 -16.77582,-21.42373 0,-6.02648 1.90569,-10.86772 5.96917,-15.16426 13.67162,-14.45574 38.00334,-4.77535 38.00334,15.11958 0,10.10369 -6.66661,18.64299 -16.65622,21.33515 -2.69978,0.72755 -7.74412,0.79135 -10.54047,0.13326 z m 12.8076,-5.11678 c 3.83336,-1.81041 6.92603,-4.84972 8.89982,-8.74635 1.27062,-2.50846 1.40337,-3.22789 1.40328,-7.60528 -9e-5,-4.32816 -0.14344,-5.12681 -1.36817,-7.62215 -1.7984,-3.66417 -5.19248,-7.08085 -8.78469,-8.84324 -2.62325,-1.28698 -3.3635,-1.42312 -7.73559,-1.42312 -4.22491,0 -5.18082,0.16201 -7.57853,1.28621 -3.84398,1.80197 -6.87613,4.7715 -8.73876,8.55825 -1.45652,2.96118 -1.57102,3.54797 -1.56808,8.03659 0.002,3.97643 0.19531,5.25965 1.07764,7.17713 3.28523,7.13925 9.61342,11.1074 17.29121,10.84263 3.16224,-0.10918 4.45774,-0.41196 7.10187,-1.66067 z m 36.66426,4.90205 c -4.96262,-1.39104 -10.43422,-5.52917 -12.92058,-9.77182 -3.79455,-6.47495 -4.05316,-15.18162 -0.64876,-21.84108 1.4024,-2.74326 5.4585,-7.03381 8.12907,-8.59886 8.26358,-4.84276 18.91555,-3.84989 26.07837,2.43072 1.81626,1.59256 4.49083,5.00019 4.49083,5.72172 0,0.22612 -0.88436,0.41106 -1.96527,0.41106 -1.7113,0 -2.25805,-0.29994 -4.23041,-2.32376 -1.24582,-1.27805 -3.57049,-2.96413 -5.16596,-3.74689 -2.62325,-1.28703 -3.3635,-1.42317 -7.73558,-1.42317 -4.22492,0 -5.18083,0.16202 -7.57853,1.28621 -3.84151,1.80085 -6.87596,4.77166 -8.73876,8.55558 -1.45584,2.95721 -1.57126,3.54758 -1.57126,8.03655 0,4.24832 0.16004,5.18645 1.29966,7.61803 5.45661,11.6429 20.93745,14.09566 29.76318,4.71571 1.56207,-1.66013 2.09819,-1.92735 3.86817,-1.92805 1.13011,-4.7e-4 2.05476,0.19737 2.05476,0.43938 0,0.74037 -3.72872,5.20638 -5.43079,6.50456 -0.88238,0.67307 -3.09092,1.91938 -4.90786,2.76963 -2.80149,1.311 -3.97516,1.57177 -7.72321,1.71634 -2.97628,0.11462 -5.28428,-0.0719 -7.06707,-0.57159 z M 4.8324806,367.98361 v -21.05529 l 2.6671942,0.14492 2.6671962,0.1453 11.297966,16.19638 c 6.213886,8.908 11.594939,16.19641 11.957898,16.19641 0.542042,0 0.682676,-2.91491 0.787228,-16.31728 l 0.127281,-16.31725 h 1.927465 1.927463 v 21.03113 21.03113 H 36.125531 34.05887 L 22.225647,371.64475 C 14.580969,360.40754 10.135726,354.29186 9.6672159,354.36704 9.0410531,354.46767 8.9246617,356.8433 8.815026,371.76116 L 8.6880524,389.03887 H 6.7602723 4.8324806 Z m 39.1614114,0.0233 V 346.97579 H 55.38472 66.775544 l -0.150048,1.81305 -0.150048,1.81301 -9.186003,0.24166 -9.186012,0.24167 v 7.01033 7.01042 l 8.425456,0.13249 c 5.408137,0.0851 8.663294,0.33024 9.089583,0.68384 0.365252,0.30344 0.598736,1.1137 0.518816,1.80124 l -0.145269,1.25007 -8.559019,0.24166 c -5.147861,0.14531 -8.766063,0.44945 -9.078533,0.76283 -0.336579,0.33763 -0.47224,3.06208 -0.385261,7.73556 l 0.134274,7.21455 9.306877,0.13171 9.306877,0.1317 v 1.92347 1.92347 H 55.3556 43.993958 Z m 122.802428,-0.008 v -21.03987 l 11.48251,0.12977 11.48251,0.12977 0.14531,1.25003 c 0.0799,0.68754 -0.15382,1.49835 -0.51948,1.80179 -0.43107,0.35783 -3.79642,0.59817 -9.57305,0.68384 l -8.90827,0.1321 v 7.01037 7.01042 l 8.94427,0.26963 c 4.91935,0.14803 8.99866,0.3116 9.06514,0.3625 0.0664,0.0513 0.12087,0.85463 0.12087,1.7853 v 1.69218 h -8.36839 c -5.95699,0 -8.60792,0.17523 -9.19961,0.60777 -0.73305,0.53605 -0.81533,1.46384 -0.69674,7.85647 l 0.13446,7.24865 9.30029,0.13171 9.30028,0.13094 0.30048,1.19723 c 0.66704,2.65767 0.7017,2.64978 -11.63375,2.64978 h -11.37681 z m 225.29899,0.008 v -21.03113 h 1.69214 1.69218 v 11.32207 c 0,11.40882 0.12821,12.8516 1.14199,12.8516 0.30538,0 5.76135,-5.43906 12.12456,-12.08683 l 11.56947,-12.08684 h 2.36301 2.36304 l -0.88642,1.12696 c -0.48759,0.61985 -4.80025,5.19453 -9.58372,10.16589 -4.78348,4.97144 -8.69724,9.33651 -8.69724,9.70017 0,0.36366 4.35124,5.19861 9.66948,10.74433 l 9.66947,10.08317 -2.33538,0.14881 -2.33534,0.1488 -8.79331,-9.04935 c -10.07051,-10.36369 -9.06641,-9.99273 -13.42794,-4.96087 l -2.59993,2.9996 -0.1624,5.47722 -0.16241,5.47726 h -1.6506 -1.65053 z m 43.02922,-0.008 v -21.03987 l 11.48248,0.12977 11.48253,0.12977 0.14531,1.25003 c 0.08,0.68754 -0.15386,1.49835 -0.51946,1.80179 -0.43115,0.35783 -3.79643,0.59817 -9.57308,0.68384 l -8.90824,0.1321 v 7.01037 7.01042 l 8.94429,0.24166 8.94426,0.24166 0.15036,1.81301 0.14997,1.81301 h -8.39757 c -5.98043,0 -8.63685,0.17484 -9.22881,0.60781 -0.73307,0.53601 -0.81532,1.46384 -0.69674,7.85646 l 0.13443,7.24866 9.30026,0.13132 9.3003,0.13094 0.30033,1.19719 c 0.66702,2.6577 0.70167,2.64978 -11.63374,2.64978 h -11.3768 z m 46.78174,2.09236 -0.12666,-19.00521 -7.25212,-0.24166 -7.25211,-0.24166 -0.14997,-1.81305 -0.15036,-1.81301 h 16.97998 16.97999 l -0.14997,1.81301 -0.15036,1.81305 -7.25211,0.24166 -7.25212,0.24166 -0.24166,18.85551 -0.24166,18.85551 -1.80742,0.14958 -1.80741,0.14998 z"
       style="fill:#ffffff;stroke:#ffffff;stroke-width:2.42439151;stroke-miterlimit:4;stroke-dasharray:none;stroke-opacity:1" />
  </g>
</svg>
