<?xml version="1.0" encoding="UTF-8" standalone="no"?>
<svg
   xmlns:dc="http://purl.org/dc/elements/1.1/"
   xmlns:cc="http://creativecommons.org/ns#"
   xmlns:rdf="http://www.w3.org/1999/02/22-rdf-syntax-ns#"
   xmlns:svg="http://www.w3.org/2000/svg"
   xmlns="http://www.w3.org/2000/svg"
   xmlns:sodipodi="http://sodipodi.sourceforge.net/DTD/sodipodi-0.dtd"
   xmlns:inkscape="http://www.inkscape.org/namespaces/inkscape"
   width="500"
   height="200"
   viewBox="0 0 500 200"
   version="1.1"
   id="svg14"
   sodipodi:docname="Ocean.svg"
   inkscape:version="0.92.5 (2060ec1f9f, 2020-04-08)">
  <metadata
     id="metadata20">
    <rdf:RDF>
      <cc:Work
         rdf:about="">
        <dc:format>image/svg+xml</dc:format>
        <dc:type
           rdf:resource="http://purl.org/dc/dcmitype/StillImage" />
        <dc:title />
      </cc:Work>
    </rdf:RDF>
  </metadata>
  <defs
     id="defs18" />
  <sodipodi:namedview
     pagecolor="#ffffff"
     bordercolor="#666666"
     borderopacity="1"
     objecttolerance="10"
     gridtolerance="10"
     guidetolerance="10"
     inkscape:pageopacity="0"
     inkscape:pageshadow="2"
     inkscape:window-width="1366"
     inkscape:window-height="743"
     id="namedview16"
     showgrid="false"
     inkscape:pagecheckerboard="true"
     inkscape:zoom="1.0117664"
     inkscape:cx="11.204261"
     inkscape:cy="33.292774"
     inkscape:window-x="0"
     inkscape:window-y="0"
     inkscape:window-maximized="1"
     inkscape:current-layer="svg14" />
  <path
     d="m 10.776624,198.30342 c 1.579527,0 3.115719,-0.37067 4.608566,-1.11192 1.492852,-0.74132 2.720842,-1.73677 3.683969,-2.98637 v 0 l -2.744917,-2.98637 c -0.712715,0.91074 -1.531377,1.60967 -2.455978,2.09683 -0.924603,0.4871 -1.916626,0.73069 -2.976064,0.73069 -0.9438672,0 -1.8154989,-0.18531 -2.6148951,-0.55596 -0.7993982,-0.37067 -1.4928491,-0.87369 -2.0803591,-1.50907 -0.5875091,-0.6354 -1.0498092,-1.39258 -1.3869054,-2.27154 -0.3370926,-0.87898 -0.5056394,-1.82677 -0.5056394,-2.84341 0,-1.03781 0.1637263,-1.99619 0.4911938,-2.87516 0.3274626,-0.87896 0.7801346,-1.64144 1.3580116,-2.28742 0.577875,-0.64598 1.2665124,-1.15429 2.065913,-1.52495 0.7993962,-0.37067 1.6517628,-0.55596 2.5571046,-0.55596 1.078703,0 2.099621,0.25945 3.062748,0.77835 0.963129,0.51893 1.80105,1.26551 2.513765,2.23977 v 0 l 2.831597,-3.08168 c -0.943867,-1.27077 -2.176672,-2.28211 -3.698413,-3.03399 -1.521742,-0.75191 -3.091644,-1.12783 -4.709697,-1.12783 -1.5024813,0 -2.9134673,0.29659 -4.232951,0.88956 -1.3194863,0.59302 -2.4607941,1.39786 -3.4239217,2.41449 -0.9631275,1.01664 -1.7239998,2.22918 -2.28261418,3.63763 -0.55861285,1.40846 -0.83791953263,2.91752 -0.83791953263,4.52719 0,1.60966 0.27447726263,3.11346 0.82347093263,4.51132 0.54898378,1.39787 1.30504008,2.60511 2.26816858,3.62175 0.963129,1.01663 2.1044354,1.82148 3.4239221,2.4145 1.3194873,0.59304 2.7401033,0.88955 4.2618448,0.88955 z m 54.753849,0.0317 c 1.502476,0 2.908648,-0.29649 4.218502,-0.88955 1.309856,-0.59304 2.44152,-1.40315 3.395027,-2.4304 0.953493,-1.02721 1.709553,-2.24506 2.268173,-3.65351 0.558624,-1.40846 0.837911,-2.90696 0.837911,-4.49543 0,-1.58849 -0.279282,-3.08696 -0.837911,-4.49541 -0.55862,-1.40848 -1.31468,-2.62632 -2.268173,-3.65354 -0.953507,-1.02722 -2.085171,-1.83735 -3.395027,-2.43039 -1.309854,-0.59304 -2.716026,-0.88954 -4.218502,-0.88954 -1.483221,0 -2.879757,0.29648 -4.189613,0.88954 -1.30986,0.59304 -2.441523,1.40317 -3.395031,2.43039 -0.953492,1.02722 -1.709548,2.24506 -2.268162,3.65353 -0.55861,1.40845 -0.837922,2.90692 -0.837922,4.49541 0,1.58848 0.279332,3.08698 0.837922,4.49543 0.558614,1.40845 1.31467,2.6263 2.268162,3.65352 0.953508,1.02724 2.085171,1.83735 3.395031,2.43038 1.309856,0.59305 2.706392,0.88956 4.189613,0.88956 z m 0,-4.22539 c -0.905332,0 -1.748078,-0.18531 -2.528204,-0.55597 -0.780142,-0.37067 -1.454327,-0.87894 -2.022581,-1.52493 -0.56824,-0.646 -1.016098,-1.41377 -1.343561,-2.30332 -0.327482,-0.88958 -0.491223,-1.84266 -0.491223,-2.85929 0,-1.03779 0.163741,-1.99619 0.491223,-2.87515 0.327433,-0.87898 0.775321,-1.64145 1.343561,-2.28743 0.568254,-0.64599 1.242439,-1.15431 2.022581,-1.52496 0.780126,-0.37067 1.622872,-0.55597 2.528204,-0.55597 0.905337,0 1.752894,0.18531 2.54266,0.55597 0.789761,0.37068 1.468771,0.87897 2.037026,1.52496 0.56823,0.64598 1.016088,1.40845 1.343565,2.28743 0.327433,0.87896 0.491223,1.83736 0.491223,2.87515 0,1.01663 -0.163741,1.96971 -0.491223,2.85929 -0.327482,0.88955 -0.775335,1.65732 -1.343565,2.30332 -0.568255,0.64599 -1.247265,1.15429 -2.037026,1.52493 -0.789766,0.37068 -1.637323,0.55596 -2.54266,0.55596 z m 63.508697,3.87614 v -4.06674 h -11.06634 v -18.1723 h -4.18962 v 22.23882 z m 52.81795,0 v -4.06674 h -11.06635 v -18.1723 h -4.18959 v 22.23882 z m 53.22247,0 v -4.00318 h -11.47086 v -5.27379 h 7.48353 v -3.8759 h -7.48353 v -5.08317 h 11.35529 v -4.00298 h -15.54488 v 22.23884 z m 46.46133,0.31765 c 1.57954,0 3.11572,-0.37066 4.60856,-1.11193 1.49286,-0.7413 2.72085,-1.73675 3.68398,-2.98636 v 0 l -2.74491,-2.98636 c -0.71271,0.91073 -1.53138,1.60966 -2.456,2.0968 -0.92459,0.48711 -1.91662,0.7307 -2.97606,0.7307 -0.94384,0 -1.8155,-0.18531 -2.61488,-0.55596 -0.79941,-0.37067 -1.49286,-0.87369 -2.08036,-1.50907 -0.58751,-0.63539 -1.04983,-1.39257 -1.38689,-2.27154 -0.33715,-0.87895 -0.50569,-1.82677 -0.50569,-2.8434 0,-1.03781 0.16374,-1.99619 0.49122,-2.87515 0.32744,-0.87898 0.78011,-1.64145 1.358,-2.28743 0.57789,-0.64599 1.26651,-1.1543 2.06591,-1.52496 0.79939,-0.37067 1.65177,-0.55596 2.55711,-0.55596 1.07871,0 2.09962,0.25944 3.06274,0.77837 0.96313,0.51892 1.80107,1.26547 2.51377,2.23974 v 0 l 2.83158,-3.08165 c -0.94383,-1.27079 -2.17666,-2.28213 -3.69841,-3.03402 -1.52172,-0.75188 -3.09163,-1.12781 -4.70968,-1.12781 -1.50249,0 -2.91346,0.29653 -4.23295,0.88954 -1.31948,0.59304 -2.4608,1.39787 -3.42393,2.41451 -0.96312,1.01664 -1.72398,2.22917 -2.2826,3.63763 -0.55863,1.40845 -0.83794,2.91751 -0.83794,4.52719 0,1.60965 0.27448,3.11345 0.82348,4.5113 0.549,1.39788 1.30505,2.60513 2.26818,3.62176 0.96311,1.01665 2.10442,1.82147 3.4239,2.4145 1.31951,0.59303 2.74011,0.88955 4.26186,0.88955 z m 55.41842,-0.31765 V 179.8136 h 6.79003 v -4.06652 h -17.7986 v 4.06652 h 6.81897 v 18.1723 z m 47.99269,0 v -22.23883 h -4.1896 v 22.23883 z m 48.25273,0.34945 c 1.50248,0 2.90866,-0.29649 4.21851,-0.88955 1.30985,-0.59304 2.44153,-1.40316 3.39502,-2.43039 0.95351,-1.02722 1.70955,-2.24507 2.26817,-3.65352 0.55862,-1.40845 0.83792,-2.90695 0.83792,-4.49543 0,-1.5885 -0.27933,-3.08696 -0.83792,-4.49541 -0.55862,-1.40846 -1.31466,-2.62631 -2.26817,-3.65352 -0.95349,-1.02723 -2.08517,-1.83736 -3.39502,-2.4304 -1.30985,-0.59304 -2.71603,-0.88954 -4.21851,-0.88954 -1.48322,0 -2.87974,0.29649 -4.18962,0.88954 -1.30984,0.59304 -2.44154,1.40317 -3.395,2.4304 -0.95351,1.02721 -1.70958,2.24506 -2.26818,3.65352 -0.55863,1.40845 -0.83792,2.90692 -0.83792,4.49541 0,1.58848 0.27933,3.08698 0.83792,4.49543 0.5586,1.40845 1.31467,2.6263 2.26818,3.65352 0.95346,1.02724 2.08516,1.83735 3.395,2.43039 1.30988,0.59305 2.7064,0.88955 4.18962,0.88955 z m 0,-4.22538 c -0.90532,0 -1.74809,-0.18531 -2.5282,-0.55598 -0.78014,-0.37067 -1.45432,-0.87893 -2.02259,-1.52493 -0.56823,-0.64599 -1.01608,-1.41375 -1.34356,-2.30331 -0.32744,-0.88958 -0.49118,-1.84265 -0.49118,-2.85929 0,-1.0378 0.16374,-1.99619 0.49118,-2.87515 0.32748,-0.87898 0.77533,-1.64145 1.34356,-2.28743 0.56827,-0.646 1.24245,-1.15431 2.02259,-1.52495 0.78011,-0.37068 1.62288,-0.55598 2.5282,-0.55598 0.90533,0 1.7529,0.18531 2.54266,0.55598 0.78978,0.37067 1.46879,0.87895 2.03702,1.52495 0.56823,0.64598 1.0161,1.40845 1.34356,2.28743 0.32748,0.87896 0.49122,1.83735 0.49122,2.87515 0,1.01664 -0.16374,1.96971 -0.49122,2.85929 -0.32749,0.88956 -0.77533,1.65732 -1.34356,2.30331 -0.56823,0.646 -1.24724,1.1543 -2.03702,1.52494 -0.78976,0.37067 -1.63733,0.55597 -2.54266,0.55597 z m 52.21122,3.8759 V 183.1176 l 10.31509,14.86826 h 3.69844 v -22.23882 h -3.92956 v 14.3917 l -10.05511,-14.3917 h -3.98731 v 22.23882 z"
     id="COLLECTION"
     inkscape:connector-curvature="0"
     style="fill:#ffffff;fill-rule:nonzero;stroke:none;stroke-width:1.2947185" />
  <path
     inkscape:connector-curvature="0"
     id="path79"
     d="m 43.954824,152.65635 c -6.671449,-2.4485 -10.872329,-5.9171 -14.367729,-11.86321 l -3.177257,-5.40491 -0.358597,-43.84238 c -0.197228,-24.113315 -0.04371,-45.995951 0.34147,-48.628086 1.01913,-6.966696 6.459822,-14.463039 13.133008,-18.095044 l 5.656345,-3.078571 H 251.02083 456.85962 l 6.24446,3.749683 c 4.837,2.904529 6.97914,5.160418 9.50399,10.008735 l 3.25959,6.259062 -0.32515,46.813304 c -0.31176,44.891887 -0.42372,47.002727 -2.73417,51.428297 -2.86134,5.48129 -10.38123,11.55267 -16.36846,13.21548 -2.88984,0.80258 -70.4285,1.16896 -206.20316,1.11862 -169.514356,-0.0629 -202.60781,-0.3325 -206.28195,-1.68098 z m 408.880836,-6.46224 c 4.97442,-1.65966 11.22721,-7.40506 13.28942,-12.211 1.25986,-2.93611 1.59303,-12.69331 1.59303,-46.650926 0,-41.236125 -0.0959,-43.136341 -2.4183,-47.933865 -1.67938,-3.469149 -4.05897,-5.960044 -7.78781,-8.152059 l -5.36945,-3.156498 H 250.81366 49.48478 l -4.787157,2.560067 c -2.632941,1.408031 -6.007654,4.52315 -7.49936,6.92248 -2.701866,4.345801 -2.713538,4.525827 -3.064664,47.266854 -0.24522,29.849177 0.05299,44.410017 0.979853,47.852297 1.543891,5.73356 7.512443,11.95153 12.994187,13.53719 5.695014,1.64735 399.787761,1.61372 404.728021,-0.0344 z m -367.896059,-15.479 c -8.012128,-2.15707 -11.286612,-3.9385 -17.817782,-9.6935 -3.419247,-3.01291 -6.845589,-7.65109 -9.229971,-12.49446 -3.558569,-7.22846 -3.792077,-8.45029 -3.792077,-19.841408 0,-10.870103 0.327465,-12.805395 3.133708,-18.519303 6.47131,-13.176547 16.953102,-21.255626 31.399866,-24.202153 19.436665,-3.964259 40.397495,5.768378 48.620565,22.575744 1.68896,3.452069 3.39927,6.275252 3.80072,6.273749 0.40147,-0.0015 2.20952,-2.834475 4.01792,-6.295483 3.69946,-7.080215 12.02799,-15.436616 18.75776,-18.820526 20.53234,-10.324226 44.34997,-3.647327 58.79805,16.483103 l 2.389,3.328593 4.77626,-6.465371 c 5.44188,-7.366417 8.89522,-10.088907 18.36616,-14.479264 9.12564,-4.230295 22.99966,-4.383047 33.14723,-0.364953 6.53051,2.585852 17.2201,11.674135 21.12862,17.96354 1.39254,2.240783 1.50926,2.209602 4.03813,-1.078692 6.69087,-8.700239 10.92616,-12.449814 17.99118,-15.927906 6.8494,-3.371953 8.65598,-3.756251 17.47048,-3.716376 9.95832,0.04489 13.60788,1.228322 21.65702,7.021661 2.31093,1.663287 2.59592,1.672013 2.59592,0.07948 0,-4.006496 3.32258,-5.414998 12.77363,-5.414998 7.81944,0 9.50741,0.359827 11.6259,2.478331 2.16973,2.169716 2.78033,2.28696 4.90343,0.9415 6.68763,-4.238102 9.72261,-5.132834 17.4238,-5.136657 13.16233,-0.0063 22.02212,4.819976 27.50714,14.984917 2.38205,4.414382 2.4903,6.019237 2.4903,36.919907 v 32.304925 h -11.53748 -11.53747 l -0.57688,-26.53619 c -0.62621,-28.805623 -0.96027,-30.375489 -7.14444,-33.573451 -6.53473,-3.379234 -14.82505,-0.766433 -18.62729,5.870613 -0.84134,1.468634 -1.54328,11.849538 -1.91219,28.279718 l -0.58288,25.95931 -11.18648,0.32947 c -10.64441,0.31351 -11.253,0.20169 -12.55906,-2.30749 -0.75492,-1.45033 -1.49526,-2.7867 -1.64522,-2.96972 -0.14994,-0.183 -2.92006,1.31298 -6.15586,3.32445 -4.6746,2.90592 -7.5229,3.77455 -13.86464,4.2283 -15.2325,1.08988 -27.90101,-4.64725 -36.51504,-16.53639 -2.49423,-3.44255 -4.82923,-6.25919 -5.18889,-6.25919 -0.35967,0 -2.59401,2.59868 -4.96522,5.77483 -5.01004,6.71075 -14.31813,13.27302 -22.18499,15.64061 -16.42401,4.94289 -37.04796,-2.20637 -46.96927,-16.28185 -4.17028,-5.91641 -5.61699,-6.30819 -7.85466,-2.12705 -2.79746,5.22709 -13.50175,14.02303 -20.41748,16.77749 -10.03475,3.99671 -26.0982,3.81441 -35.14861,-0.39892 -8.50554,-3.95966 -17.11021,-12.0559 -21.26596,-20.00938 -1.8084,-3.461 -3.65309,-6.29397 -4.09933,-6.29548 -0.44623,-0.002 -1.82772,2.29501 -3.06999,5.10337 -8.26677,18.68841 -31.58283,28.85879 -52.963629,23.10256 z M 271.08956,110.55024 c 1.71596,-0.65241 4.64513,-2.46956 6.50924,-4.03812 3.04716,-2.56401 4.42181,-2.85192 13.61644,-2.85192 5.62491,0 10.54135,-0.50846 10.92543,-1.12991 0.38405,-0.62145 0.13683,-2.179 -0.54938,-3.46124 -1.1962,-2.235118 -2.33841,-2.331337 -27.6752,-2.331337 -16.68934,0 -26.69506,0.432904 -27.15355,1.17479 -1.32709,2.147267 4.03784,8.961207 8.98275,11.408907 5.34336,2.64492 10.52765,3.0601 15.34427,1.22883 z m -164.84225,-3.53962 c 9.18565,-4.4467 13.38246,-16.694032 9.17292,-26.768883 -2.12839,-5.093941 -9.04858,-10.914902 -14.10345,-11.863201 -8.477291,-1.590346 -17.667152,3.370208 -21.377309,11.53916 -2.707614,5.961577 -2.713368,11.527197 -0.01785,17.396891 5.017243,10.926013 15.675775,14.851633 26.325829,9.696033 z m 86.05073,0.82979 c 2.04195,-0.87369 5.23752,-3.21002 7.10128,-5.19186 3.16992,-3.370729 3.91471,-3.604486 11.53747,-3.62101 4.48185,-0.0098 8.71588,-0.399097 9.40897,-0.865308 0.74089,-0.498366 1.21629,-4.413217 1.15374,-9.500748 l -0.10638,-8.653103 -9.3052,-0.576874 c -8.99179,-0.55744 -9.43094,-0.720241 -13.03734,-4.832985 -4.45723,-5.083052 -10.09863,-7.184286 -17.15347,-6.389109 -19.71696,2.222392 -22.618,33.304577 -3.7695,40.387057 3.24638,1.21986 10.45081,0.83547 14.17046,-0.75606 z m 165.60086,-1.72088 c 12.00623,-8.549189 10.87637,-28.756901 -1.98728,-35.543011 -10.92607,-5.763939 -22.1669,-2.099809 -27.90919,9.097465 -5.08553,9.916587 -1.55688,21.053026 8.76538,27.663576 4.86334,3.11457 15.94347,2.47589 21.13109,-1.21803 z M 282.41382,78.484681 c 1.2463,-2.016547 -4.14424,-8.501899 -8.83749,-10.632385 -5.86063,-2.660419 -11.05961,-2.847981 -16.45499,-0.593644 -4.82592,2.016397 -9.76893,7.093446 -9.76893,10.033837 0,1.987417 1.22174,2.139018 17.23811,2.139018 9.48097,0 17.50145,-0.426079 17.8233,-0.946826 z m 161.07561,-36.6461 c 0,-1.004725 0.61653,-1.621257 1.37007,-1.370073 2.13933,0.7131 2.49413,3.196839 0.45668,3.196839 -1.0047,0 -1.82675,-0.822047 -1.82675,-1.826766 z"
     style="fill:#0000ff;stroke-width:1.15374708" />
  <path
     id="path79-3"
     style="fill:#00ffff;stroke-width:1.15374708"
     d="m 433.85158,52.074432 c -5.63094,0.01378 -11.26184,0.02614 -16.89269,0.03805 -16.91633,0.03025 -33.83202,0.02858 -50.74851,0.02475 -0.008,0.133774 -0.0227,0.263354 -0.0227,0.403431 0,1.592533 -0.28474,1.58336 -2.59567,-0.07991 -0.16484,-0.118641 -0.30306,-0.206801 -0.46432,-0.321605 -14.61977,-0.0043 -29.24002,-0.0085 -43.85974,-0.01521 -4.32664,2.895796 -7.9064,6.606125 -12.79369,12.961155 -2.52886,3.288291 -2.64559,3.317866 -4.03811,1.077083 -2.71756,-4.372963 -8.71179,-10.093563 -14.30846,-14.045851 -15.62721,0.0033 -31.25444,0.0041 -46.88167,0.0038 -4.72013,2.806073 -7.59021,5.695434 -11.45209,10.923071 l -4.77653,6.466282 -2.38822,-3.328302 c -4.206,-5.860197 -9.21097,-10.566563 -14.69287,-14.059172 -16.02304,-2.17e-4 -32.046,-1.37e-4 -48.06913,0 -5.76167,4.088649 -11.79679,10.66037 -14.79371,16.396023 -1.00285,1.919304 -1.97936,3.583047 -2.74219,4.740308 9.69682,2.91e-4 19.39381,1.83e-4 29.09076,0 2.65233,-2.695844 6.16177,-4.562324 10.47587,-5.04859 6.39467,-0.720766 11.62415,0.946359 15.86701,5.04859 4.24485,1.3e-5 8.48969,0 12.7347,0 6.52082,-1.7e-5 13.04174,-4e-6 19.56257,0 h 19.19149 c 1.87861,-2.351403 4.8923,-4.757207 7.86689,-6.000076 5.39539,-2.254337 10.59439,-2.066689 16.45502,0.593728 2.36418,1.073214 4.90458,3.250893 6.68515,5.406348 h 22.26856 24.09545 6.05146 c 6.13817,-5.953642 14.78,-7.143712 23.23531,-2.68319 1.40592,0.741681 2.66316,1.653607 3.78691,2.68319 h 16.27233 19.00501 c 4.20555,-5.030976 11.35717,-6.739317 17.14009,-3.748857 2.06262,1.066617 3.46592,1.973525 4.45487,3.748857 h 13.74707 12.43403 c -0.2404,-8.433286 -0.83835,-10.101206 -2.32923,-12.864103 -1.80884,-3.352117 -3.99482,-6.11083 -6.57098,-8.319801 z M 72.983032,52.122002 C 66.333004,56.343414 61.072195,62.3509 57.234027,70.166001 c -0.558733,1.137659 -0.996673,2.110148 -1.37585,3.048561 2.32181,0.04327 4.643193,0.08126 6.964878,0.08371 7.355319,-0.05731 14.711214,-0.05129 22.066887,-0.04371 4.48494,-3.98125 10.621502,-5.966344 16.426468,-4.877319 2.71402,0.50915 5.96224,2.429358 8.72133,4.881124 8.72126,-5.22e-4 17.44249,1.02e-4 26.164,0 1.20833,6.3e-5 2.41679,-4.5e-5 3.62515,0 -0.72226,-1.153032 -1.6383,-2.809292 -2.57281,-4.719371 -3.30853,-6.762396 -8.68207,-12.376446 -15.18574,-16.416958 -1.78562,5e-6 -3.57126,-5e-6 -5.35686,0 -9.99208,1.8e-5 -19.983575,0 -29.975655,0 z"
     inkscape:connector-curvature="0" />
  <path
     sodipodi:type="star"
     style="opacity:0.98000004;fill:#ffffff;fill-opacity:1;stroke:none;stroke-width:13.09531021;stroke-linecap:round;stroke-linejoin:bevel;stroke-miterlimit:4;stroke-dasharray:none;stroke-opacity:1"
     id="path139"
     sodipodi:sides="5"
     sodipodi:cx="67.403019"
     sodipodi:cy="51.370751"
     sodipodi:r1="11.260726"
     sodipodi:r2="5.6303635"
     sodipodi:arg1="0.76214654"
     sodipodi:arg2="1.3904651"
     inkscape:flatsided="false"
     inkscape:rounded="0"
     inkscape:randomized="0"
     d="m 75.548531,59.146009 -7.135672,-2.236195 -5.887446,4.610462 -0.0783,-7.477449 -6.204131,-4.174583 7.087282,-2.385123 2.053082,-7.190496 4.458478,6.003362 7.473005,-0.269389 -4.331791,6.095406 z"
     inkscape:transform-center-x="1.3304091"
     inkscape:transform-center-y="-1.5832954" />
  <path
     sodipodi:type="star"
     style="opacity:0.98000004;fill:#ffffff;fill-opacity:1;stroke:none;stroke-width:13.09531021;stroke-linecap:round;stroke-linejoin:bevel;stroke-miterlimit:4;stroke-dasharray:none;stroke-opacity:1"
     id="path139-6"
     sodipodi:sides="5"
     sodipodi:cx="154.28713"
     sodipodi:cy="51.37074"
     sodipodi:r1="11.260726"
     sodipodi:r2="5.6303635"
     sodipodi:arg1="0.76214654"
     sodipodi:arg2="1.3904651"
     inkscape:flatsided="false"
     inkscape:rounded="0"
     inkscape:randomized="0"
     d="m 162.43263,59.145997 -7.13567,-2.236195 -5.88744,4.610463 -0.0783,-7.47745 -6.20413,-4.174582 7.08728,-2.385124 2.05308,-7.190496 4.45848,6.003363 7.47301,-0.269389 -4.3318,6.095405 z"
     inkscape:transform-center-x="1.3304228"
     inkscape:transform-center-y="-1.583292" />
  <path
     sodipodi:type="star"
     style="opacity:0.98000004;fill:#ffffff;fill-opacity:1;stroke:none;stroke-width:13.09531021;stroke-linecap:round;stroke-linejoin:bevel;stroke-miterlimit:4;stroke-dasharray:none;stroke-opacity:1"
     id="path139-7"
     sodipodi:sides="5"
     sodipodi:cx="284.33347"
     sodipodi:cy="77.145951"
     sodipodi:r1="11.260726"
     sodipodi:r2="5.6303635"
     sodipodi:arg1="0.76214654"
     sodipodi:arg2="1.3904651"
     inkscape:flatsided="false"
     inkscape:rounded="0"
     inkscape:randomized="0"
     d="m 292.47897,84.921208 -7.13567,-2.236194 -5.88744,4.610462 -0.0783,-7.47745 -6.20413,-4.174582 7.08728,-2.385123 2.05308,-7.190496 4.45848,6.003362 7.47301,-0.269389 -4.3318,6.095406 z"
     inkscape:transform-center-x="1.3304087"
     inkscape:transform-center-y="-1.5832944" />
  <path
     sodipodi:type="star"
     style="opacity:0.98000004;fill:#ffffff;fill-opacity:1;stroke:none;stroke-width:13.09531021;stroke-linecap:round;stroke-linejoin:bevel;stroke-miterlimit:4;stroke-dasharray:none;stroke-opacity:1"
     id="path139-5"
     sodipodi:sides="5"
     sodipodi:cx="431.41278"
     sodipodi:cy="53.251891"
     sodipodi:r1="11.260726"
     sodipodi:r2="5.6303635"
     sodipodi:arg1="0.76214654"
     sodipodi:arg2="1.3904651"
     inkscape:flatsided="false"
     inkscape:rounded="0"
     inkscape:randomized="0"
     d="m 439.55829,61.02715 -7.13567,-2.236195 -5.88745,4.610463 -0.0783,-7.47745 -6.20414,-4.174582 7.08729,-2.385123 2.05308,-7.190497 4.45848,6.003363 7.473,-0.269389 -4.33179,6.095405 z"
     inkscape:transform-center-x="1.3303903"
     inkscape:transform-center-y="-1.5832921" />
</svg>
