<?xml version="1.0" encoding="UTF-8" standalone="no"?>
<!-- Created with Inkscape (http://www.inkscape.org/) -->

<svg
   xmlns:dc="http://purl.org/dc/elements/1.1/"
   xmlns:cc="http://creativecommons.org/ns#"
   xmlns:rdf="http://www.w3.org/1999/02/22-rdf-syntax-ns#"
   xmlns:svg="http://www.w3.org/2000/svg"
   xmlns="http://www.w3.org/2000/svg"
   xmlns:xlink="http://www.w3.org/1999/xlink"
   xmlns:sodipodi="http://sodipodi.sourceforge.net/DTD/sodipodi-0.dtd"
   xmlns:inkscape="http://www.inkscape.org/namespaces/inkscape"
   width="500"
   height="200"
   viewBox="0 0 132.29166 52.916668"
   version="1.1"
   id="svg8"
   inkscape:version="0.92.5 (2060ec1f9f, 2020-04-08)"
   sodipodi:docname="outrun.svg">
  <defs
     id="defs2">
    <linearGradient
       inkscape:collect="always"
       id="linearGradient894">
      <stop
         style="stop-color:#0066ed;stop-opacity:1"
         offset="0"
         id="stop890" />
      <stop
         id="stop898"
         offset="0.57528788"
         style="stop-color:#ffffff;stop-opacity:1" />
      <stop
         style="stop-color:#fb1227;stop-opacity:1"
         offset="0.58642405"
         id="stop900" />
      <stop
         style="stop-color:#edde18;stop-opacity:1"
         offset="1"
         id="stop892" />
    </linearGradient>
    <linearGradient
       inkscape:collect="always"
       xlink:href="#linearGradient894"
       id="linearGradient896"
       x1="84.095963"
       y1="256.95993"
       x2="84.142067"
       y2="286.0202"
       gradientUnits="userSpaceOnUse"
       gradientTransform="matrix(0.54906899,0,0,0.54906899,23.143236,120.56262)" />
  </defs>
  <sodipodi:namedview
     id="base"
     pagecolor="#ffffff"
     bordercolor="#666666"
     borderopacity="1.0"
     inkscape:pageopacity="0.0"
     inkscape:pageshadow="2"
     inkscape:zoom="3.6428711"
     inkscape:cx="213.09414"
     inkscape:cy="91.124493"
     inkscape:document-units="mm"
     inkscape:current-layer="layer1"
     showgrid="false"
     units="px"
     inkscape:pagecheckerboard="true"
     inkscape:window-width="1366"
     inkscape:window-height="739"
     inkscape:window-x="0"
     inkscape:window-y="0"
     inkscape:window-maximized="1" />
  <metadata
     id="metadata5">
    <rdf:RDF>
      <cc:Work
         rdf:about="">
        <dc:format>image/svg+xml</dc:format>
        <dc:type
           rdf:resource="http://purl.org/dc/dcmitype/StillImage" />
        <dc:title />
      </cc:Work>
    </rdf:RDF>
  </metadata>
  <g
     inkscape:label="Layer 1"
     inkscape:groupmode="layer"
     id="layer1"
     transform="translate(0,-244.08332)">
    <path
       inkscape:connector-curvature="0"
       id="path886"
       d="m 14.276772,287.78826 c -0.954811,-0.24641 -1.685141,-0.73797 -2.846786,-1.91607 -1.6615443,-1.68506 -2.7969223,-4.24565 -3.1668273,-7.14211 -0.204103,-1.59819 -6.64e-4,-5.0841 0.410555,-7.03463 0.687141,-3.25933 2.4533293,-8.13437 3.9182573,-10.81518 3.052646,-5.58632 7.081732,-10.00556 11.163694,-12.24472 1.686085,-0.92493 2.313012,-1.16157 3.611504,-1.36331 2.123808,-0.32993 5.764223,0.80346 7.02837,2.18819 0.570567,0.625 1.50035,2.54795 1.982014,4.09919 0.990425,3.1897 0.857284,8.54056 -0.318963,12.81938 -0.448517,1.63158 -0.479052,1.93927 -0.156824,1.58021 0.558873,-0.6228 1.325113,-2.29027 1.325113,-2.88373 0,-0.72236 0.528131,-1.67876 1.089308,-1.9726 0.701878,-0.36753 2.830632,-0.9025 3.591247,-0.9025 1.327106,0 2.026503,0.69117 2.293699,2.26669 0.139533,0.82267 -0.195421,2.64698 -0.626116,3.41032 -0.349912,0.62018 -1.654722,3.49103 -1.881654,4.14003 -0.454022,1.29849 1.475279,-1.65438 2.411544,-3.69095 0.31595,-0.68726 0.668447,-1.79361 0.783338,-2.45855 0.190401,-1.10206 0.272468,-1.27233 0.927774,-1.92499 0.805249,-0.80195 1.984998,-1.27927 3.983003,-1.61144 1.455774,-0.24204 2.048933,-0.0108 2.689651,1.05009 0.227256,0.37614 0.509898,0.6839 0.628124,0.6839 0.118272,0 0.48543,-0.19609 0.816044,-0.43574 0.471743,-0.34197 0.862466,-0.45568 1.815461,-0.52833 0.667901,-0.0509 1.363356,-0.1944 1.545472,-0.31883 0.182103,-0.12448 0.73067,-1.08841 1.219039,-2.14218 0.488368,-1.05375 1.031916,-2.08904 1.20789,-2.30065 0.317857,-0.38227 1.167359,-0.71981 3.317553,-1.31821 1.471912,-0.40963 1.832175,-0.27454 2.410701,0.90402 0.648087,1.32027 0.710471,2.4542 0.196159,3.56593 -0.45987,0.99409 -0.468921,0.98177 0.803509,1.09566 1.018715,0.0911 1.500143,0.54405 1.81571,1.708 0.354048,1.30596 0.137467,1.89254 -1.200048,3.24891 -1.403843,1.4237 -1.919307,1.70598 -3.38419,1.85319 -1.52024,0.15277 -1.977483,0.47091 -2.739056,1.90579 -0.771821,1.45421 -1.888698,3.88989 -1.888698,4.11886 0,0.31818 0.557678,0.17881 1.681199,-0.42011 1.492598,-0.7957 1.879291,-0.78105 2.406212,0.0911 0.691998,1.14542 0.750693,1.4598 0.421067,2.25499 -0.668079,1.61172 -3.055923,3.88594 -4.75069,4.52462 -1.106378,0.41698 -3.06818,0.44716 -4.257316,0.0656 -0.656312,-0.21063 -1.03044,-0.48197 -1.705414,-1.23685 -1.071222,-1.19801 -1.381238,-2.09732 -1.376054,-3.99167 0.0045,-1.33918 0.02732,-1.42339 1.097267,-3.91196 0.601442,-1.39885 1.104752,-2.65283 1.118484,-2.78665 0.01536,-0.15026 -0.181113,-0.29103 -0.513882,-0.36811 -0.296358,-0.0687 -0.682077,-0.32156 -0.857166,-0.56206 -0.175074,-0.2405 -0.386929,-0.43729 -0.470798,-0.43729 -0.19418,0 -2.813311,5.38818 -3.541516,7.28573 -0.418689,1.091 -0.551105,1.67359 -0.551105,2.42458 0,1.24893 -0.265469,1.80889 -1.269876,2.67856 -0.976118,0.84516 -1.731239,1.27846 -2.505245,1.43751 -0.565711,0.11621 -0.617656,0.0852 -1.40027,-0.83588 l -0.812751,-0.95661 -0.68221,0.3301 c -1.193716,0.57762 -2.886977,0.91354 -4.098735,0.81316 -1.901587,-0.15754 -3.399974,-1.29303 -3.79309,-2.87445 -0.246408,-0.99121 -0.08106,-3.09902 0.386029,-4.92294 0.209492,-0.81796 0.320484,-1.44633 0.246642,-1.39633 -0.07382,0.0499 -0.571823,0.89551 -1.106599,1.8789 -1.758111,3.23293 -5.096085,7.434 -7.485923,9.42155 -1.53177,1.27393 -3.702844,2.62141 -5.14422,3.19277 -1.894323,0.75093 -4.380786,1.03688 -5.809611,0.66814 z m 6.218202,-12.35457 c 2.325962,-1.28612 5.840679,-7.19912 6.908503,-11.62254 0.547283,-2.26704 0.603569,-4.42211 0.133628,-5.11571 -1.20287,-1.77532 -4.561944,1.07617 -7.025078,5.96349 -0.853842,1.69417 -1.963705,4.74696 -2.32357,6.39122 -0.640363,2.92593 -0.221703,4.88418 1.044186,4.88418 0.196322,0 0.764379,-0.22527 1.262345,-0.50064 z m 48.302219,11.63506 c -0.62173,-0.47294 -1.525599,-1.62885 -1.905087,-2.43628 -0.346723,-0.73774 -0.322212,-1.42466 0.140125,-3.92928 1.390848,-7.53343 3.295183,-13.59611 6.552802,-20.86155 0.435331,-0.97092 0.791504,-1.90115 0.791504,-2.06718 0,-0.16604 -0.342175,-0.73022 -0.760393,-1.2537 -2.187019,-2.73764 -1.613011,-4.29792 2.420624,-6.57992 4.421937,-2.50169 10.880949,-3.82943 15.139964,-3.11225 3.28727,0.55353 5.101357,1.75016 6.186189,4.08059 0.54909,1.17951 0.62534,1.49062 0.67369,2.74853 0.0737,1.91552 -0.29334,3.62601 -1.191764,5.55475 -0.585792,1.25755 -1.022096,1.88865 -2.337051,3.38048 -1.796472,2.0381 -2.912315,2.91959 -6.797585,5.36997 -1.392784,0.87841 -2.633158,1.76564 -2.756361,1.97161 -0.204886,0.34252 -0.17537,0.48037 0.345512,1.61335 0.31325,0.68134 0.88875,1.77536 1.278883,2.43115 0.922119,1.54994 3.566631,5.28749 4.202787,5.93985 1.154158,1.1836 1.415272,2.75932 0.649047,3.91673 -0.516172,0.7797 -2.410967,2.51664 -3.02372,2.77185 -1.025566,0.4271 -2.081431,0.14499 -3.60523,-0.96327 -1.043402,-0.75883 -2.314296,-2.6119 -5.092289,-7.42491 -1.309448,-2.26868 -2.084798,-3.45769 -2.236498,-3.42967 -0.308614,0.0569 -0.790751,1.72584 -1.475131,5.10592 -0.304715,1.50494 -0.67211,3.00056 -0.816457,3.32362 -0.292283,0.65416 -1.875039,2.17429 -3.487268,3.34932 -1.336113,0.9738 -2.100374,1.10581 -2.896351,0.50029 z m 14.789432,-25.1671 c 2.265291,-1.23091 4.04527,-2.99174 4.904148,-4.85141 0.78703,-1.70408 0.287189,-2.27703 -1.816523,-2.08224 -1.871157,0.17326 -2.019816,0.29307 -3.108533,2.50517 -1.199075,2.43637 -2.107611,4.71086 -2.002067,5.01213 0.109855,0.31345 0.668965,0.15211 2.022975,-0.58365 z m 23.723085,20.13428 c -0.5676,-0.33643 -1.50303,-1.80397 -1.51157,-2.37137 -0.001,-0.13984 -0.0659,-0.36176 -0.14175,-0.49305 -0.1103,-0.19097 -0.2721,-0.11296 -0.80852,0.39001 -0.8478,0.79488 -2.66513,1.79858 -3.2566,1.79858 -0.53442,0 -1.17344,-0.33534 -1.58248,-0.83043 -0.384089,-0.46488 -0.548209,-0.45127 -1.605359,0.13319 -2.066679,1.14251 -4.022442,1.36105 -5.408699,0.60435 -1.60641,-0.87686 -2.680806,-2.63562 -2.791636,-4.56985 -0.06231,-1.08749 -0.0074,-1.37141 0.664374,-3.39109 0.402801,-1.2123 1.322307,-3.5776 2.043335,-5.2562 0.721028,-1.6786 1.347661,-3.31903 1.392503,-3.64543 0.166127,-1.20931 1.150453,-1.85144 3.369273,-2.19788 1.79575,-0.28038 2.31503,-0.23163 2.857319,0.26818 0.94009,0.86651 1.198,1.95761 0.85124,3.60124 -0.1537,0.72856 -0.44697,1.45535 -0.83065,2.05867 -0.588869,0.92596 -1.721119,3.43616 -1.712439,3.79647 0.007,0.33558 0.87614,-0.84951 1.557859,-2.12686 0.77079,-1.44421 1.46253,-3.19104 2.07116,-5.23027 0.23658,-0.79267 0.57213,-1.61211 0.74565,-1.82098 0.67793,-0.81603 4.16293,-1.75395 5.16758,-1.39074 0.65538,0.23691 1.71752,1.56094 1.84382,2.29842 0.16403,0.95772 -0.0576,1.68463 -1.38312,4.53644 -1.47368,3.17051 -3.35148,8.02055 -3.35148,8.65622 0,0.72929 0.25328,0.49456 0.67166,-0.62244 3.10658,-8.29405 4.97207,-12.42615 6.04552,-13.39092 0.50669,-0.45538 3.06973,-1.33263 4.00142,-1.36955 0.69045,-0.0273 0.94605,0.0484 1.44832,0.42926 l 0.6099,0.46246 1.00284,-0.34386 c 0.55155,-0.18912 1.53178,-0.38825 2.17829,-0.44251 1.48026,-0.12417 2.36963,0.17527 3.55901,1.19844 1.02962,0.88571 1.48016,1.81907 1.62487,3.36637 0.12433,1.32996 -0.0276,1.94994 -1.39749,5.70085 -0.55371,1.51605 -1.24706,3.69987 -1.54077,4.85298 -0.29373,1.1531 -0.60795,2.24783 -0.6983,2.43273 -0.21737,0.4449 -2.35202,2.318 -3.14962,2.76372 -0.79843,0.44617 -1.42728,0.3482 -2.47018,-0.38484 -1.10806,-0.77887 -1.66931,-1.68442 -1.66931,-2.69337 0,-0.94105 0.85167,-4.13336 1.73214,-6.49261 0.34161,-0.91533 0.57893,-1.71042 0.52741,-1.76687 -0.17605,-0.19283 -0.89117,0.71734 -2.09626,2.66811 -1.51704,2.45568 -1.763,2.99929 -2.08591,4.61004 -0.335,1.67105 -0.79773,2.18572 -3.10717,3.45599 -2.007,1.10393 -2.55923,1.2267 -3.36615,0.74844 z"
       style="fill:url(#linearGradient896);fill-opacity:1;stroke-width:0.16200466" />
    <path
       inkscape:connector-curvature="0"
       id="path884"
       d="m 14.276772,287.78836 c -1.001366,-0.23373 -1.749224,-0.72596 -2.944134,-1.93778 -0.861198,-0.8734 -1.255908,-1.44376 -1.8048893,-2.60806 -1.282959,-2.72097 -1.647769,-4.98323 -1.35339,-8.39256 0.630974,-7.30741 4.4328063,-15.82063 9.6008723,-21.49867 3.837828,-4.21654 8.321175,-6.57759 11.541439,-6.07806 1.00454,0.15584 3.180987,0.90788 4.04685,1.39834 1.172098,0.66394 2.514281,3.11865 3.168835,5.7955 0.278344,1.13826 0.333301,1.84737 0.341717,4.40845 0.0088,2.68568 -0.03942,3.30634 -0.401518,5.17141 -0.226339,1.1657 -0.553544,2.57011 -0.727111,3.12094 -0.364605,1.15704 -0.358476,1.11795 -0.175237,1.11795 0.07722,0 0.460299,-0.58892 0.851348,-1.30869 0.484132,-0.89112 0.711194,-1.49978 0.711593,-1.90749 7.68e-4,-0.75663 0.467815,-1.60681 1.070231,-1.94806 0.255946,-0.14501 1.04265,-0.4152 1.748248,-0.60048 2.309279,-0.60642 3.261371,-0.38817 3.853585,0.8834 0.470295,1.00977 0.365371,2.96489 -0.222103,4.13916 -0.78359,1.56624 -1.920827,4.04926 -2.028939,4.42997 -0.216315,0.76176 0.194136,0.35106 1.039076,-1.0397 1.234424,-2.03186 1.961699,-3.70142 2.216343,-5.08795 0.196456,-1.06962 0.298233,-1.28369 0.902363,-1.89792 0.766196,-0.77899 2.020169,-1.28966 3.981587,-1.62141 1.496038,-0.25305 1.975695,-0.0634 2.724024,1.07769 l 0.540772,0.82449 0.407098,-0.2935 c 0.849769,-0.61261 1.33545,-0.78727 2.402521,-0.86386 0.605224,-0.0434 1.250047,-0.18178 1.432961,-0.30739 0.182901,-0.12565 0.752331,-1.1303 1.265403,-2.23264 0.513055,-1.10231 1.063897,-2.13413 1.224072,-2.29292 0.328414,-0.32558 1.572008,-0.78724 3.292186,-1.2222 1.550435,-0.39204 1.893732,-0.24577 2.429025,1.03498 0.57547,1.3769 0.624521,2.20336 0.190816,3.21493 -0.195924,0.45695 -0.360531,0.90712 -0.365802,1.00038 -0.0059,0.0932 0.427595,0.21536 0.961913,0.27132 1.181238,0.12372 1.64328,0.52803 1.966658,1.72085 0.341349,1.25909 0.1785,1.74876 -1.0086,3.03276 -1.413543,1.52895 -2.12146,1.94608 -3.528064,2.07887 -1.899033,0.1793 -2.019742,0.30017 -3.646912,3.65197 -1.420897,2.92687 -1.379008,3.0939 0.514282,2.05116 1.678141,-0.92423 2.014189,-0.90676 2.625347,0.13643 0.555699,0.9486 0.616753,1.73289 0.193531,2.4861 -0.508184,0.90445 -1.74184,2.28479 -2.737638,3.06315 -1.33006,1.03964 -2.434785,1.43005 -4.046451,1.43005 -1.859816,0 -2.84184,-0.4075 -3.874714,-1.60793 -0.944961,-1.09823 -1.282677,-2.1059 -1.282677,-3.82728 0,-1.33054 0.120633,-1.73463 1.380335,-4.62147 0.52134,-1.19479 0.907517,-2.24392 0.858171,-2.33137 -0.04932,-0.0874 -0.26662,-0.15901 -0.482846,-0.15901 -0.237222,0 -0.565163,-0.20172 -0.826927,-0.50865 -0.23858,-0.27979 -0.494481,-0.50868 -0.568678,-0.50868 -0.18061,0 -2.830217,5.47806 -3.523914,7.28571 -0.41869,1.091 -0.551108,1.67361 -0.551108,2.42459 0,0.54482 -0.10365,1.20813 -0.23102,1.47787 -0.462972,0.98067 -2.957866,2.71533 -3.905366,2.71533 -0.144851,0 -0.620697,-0.42066 -1.05752,-0.9348 l -0.794235,-0.93482 -0.682209,0.3301 c -3.444389,1.66665 -7.208804,0.68671 -7.890025,-2.05392 -0.266857,-1.07362 -0.07767,-3.17813 0.461333,-5.13087 0.256212,-0.92829 0.446288,-1.70921 0.422397,-1.73538 -0.02392,-0.0261 -0.378173,0.58073 -0.787266,1.34867 -3.866697,7.25845 -9.162351,12.49597 -14.172324,14.01671 -1.273479,0.38658 -3.799085,0.57511 -4.745315,0.35425 z m 3.205467,-3.31233 c 2.618983,-0.74338 4.979806,-2.31109 7.267083,-4.82569 4.648233,-5.11023 8.076513,-11.49199 9.449304,-17.58991 0.947515,-4.20879 0.480719,-8.61598 -1.184517,-11.18356 -1.347675,-2.07794 -2.27319,-2.53437 -4.838944,-2.38645 -3.940317,0.22718 -8.478369,3.41849 -11.842109,8.32776 -2.546455,3.71645 -3.949205,6.42387 -5.414458,10.4503 -1.4710113,4.04226 -1.5625863,4.53857 -1.5641073,8.47775 -0.0011,3.17837 0.01477,3.3498 0.407305,4.42937 0.9043863,2.48575 2.3249293,4.05973 4.1084663,4.55217 0.767319,0.21186 2.372902,0.1 3.611977,-0.25174 z m -0.331603,-6.95879 c -0.730847,-0.34149 -1.178329,-1.23716 -1.374297,-2.75077 -0.353826,-2.73268 0.7294,-7.49547 2.52568,-11.1051 2.008326,-4.03576 4.87562,-7.12574 7.271365,-7.8361 0.971273,-0.28797 1.026408,-0.28732 1.592783,0.0195 1.149742,0.62285 1.71334,2.68713 1.455108,5.32949 -0.248932,2.54712 -0.677013,4.11332 -1.794641,6.56595 -1.197968,2.62893 -2.166717,4.30881 -3.643235,6.3176 -2.074432,2.82227 -4.463915,4.19249 -6.032763,3.4594 z m 3.240448,-2.06238 c 2.316409,-1.2838 5.846377,-7.22707 6.926723,-11.66226 0.551181,-2.26284 0.60193,-4.41473 0.120634,-5.11571 -0.285889,-0.41637 -0.431298,-0.4788 -1.102981,-0.47351 -0.669319,0.005 -0.896354,0.10692 -1.68297,0.75289 -2.145099,1.76171 -3.924473,4.51994 -5.414429,8.393 -1.231942,3.20235 -1.744364,6.18272 -1.288731,7.49545 0.412253,1.18775 1.092736,1.3578 2.441768,0.61014 z m 23.951444,4.2955 c 0.876094,-0.44686 1.458297,-1.13653 1.458297,-1.72747 0,-0.51799 0.416031,-2.46566 0.779676,-3.65008 0.289197,-0.94194 2.450804,-5.44269 3.075681,-6.40393 0.64937,-0.99894 1.094875,-2.28906 1.09644,-3.17504 0.0029,-1.62074 -0.796776,-1.80191 -3.009767,-0.68191 -0.895615,0.45327 -1.161157,0.67871 -1.37155,1.16435 -0.143521,0.33123 -0.260892,0.69483 -0.260892,0.808 0,0.54215 -1.321408,3.34464 -2.437132,5.16875 -1.67284,2.73498 -3.642688,4.83232 -4.538525,4.83232 -0.415382,0 -0.763877,-0.70575 -0.763877,-1.54696 0,-0.77839 0.201238,-1.29885 1.934882,-5.00426 1.141417,-2.4396 1.934885,-4.33377 1.934885,-4.61893 0,-0.26588 -0.144407,-0.68446 -0.32081,-0.93018 -0.383843,-0.53453 -1.177163,-0.59577 -2.431535,-0.18773 -0.887835,0.2888 -1.271723,0.74612 -1.273155,1.51664 -10e-4,0.573 -0.05551,0.69756 -1.298727,2.97189 -1.976921,3.61648 -2.879668,6.222 -2.879668,8.31124 0,2.3045 1.113746,3.50066 3.095806,3.32495 1.336734,-0.11856 2.35883,-0.47433 3.472339,-1.20882 0.505068,-0.33314 0.999977,-0.57138 1.099792,-0.52941 0.09982,0.0419 0.223445,0.35943 0.274712,0.7055 0.193369,1.30519 0.951104,1.58129 2.363128,0.86108 z m 14.306703,-0.55931 c 0.999387,-0.53246 1.549372,-0.96706 2.283157,-1.80411 0.94629,-1.07945 1.237289,-1.81026 0.720851,-1.81026 -0.135252,0 -0.79964,0.26673 -1.476548,0.59274 -1.389447,0.66917 -2.781241,0.93261 -3.151058,0.59642 -0.12905,-0.1174 -0.234668,-0.43195 -0.234668,-0.69913 0,-0.48119 3.371506,-8.14994 3.782725,-8.60413 0.11709,-0.12934 0.928202,-0.32634 1.855696,-0.45071 1.786432,-0.23952 2.071227,-0.39107 3.455507,-1.83885 0.680954,-0.71216 0.852175,-1.34723 0.41302,-1.53183 -0.13466,-0.0565 -0.970535,-0.10289 -1.857483,-0.10289 h -1.612641 l 0.0029,-0.46626 c 0.0016,-0.25646 0.349913,-1.18222 0.773947,-2.05727 1.352342,-2.79067 0.969251,-3.36269 -1.70878,-2.55154 -1.059024,0.32078 -1.854367,0.841 -1.854367,1.21292 0,0.43934 -1.56049,3.69305 -1.878169,3.9161 -0.20146,0.14145 -0.853888,0.30831 -1.449823,0.37081 -1.760312,0.18462 -2.172283,0.3601 -3.0165,1.28484 -0.79862,0.8748 -1.00358,1.54951 -0.531025,1.74814 0.134661,0.0565 0.763744,0.10288 1.397967,0.10288 0.821743,0 1.176026,0.0655 1.232828,0.2275 0.04385,0.12505 -0.410894,1.21239 -1.010505,2.41616 -0.599611,1.20376 -1.416586,3.02796 -1.81549,4.05378 -0.620372,1.59528 -0.725812,2.03033 -0.728928,3.00718 -0.0029,0.88527 0.06659,1.24513 0.308688,1.6003 0.741597,1.088 1.960635,1.59169 3.698591,1.52821 0.912418,-0.0334 1.291418,-0.15034 2.400041,-0.741 z m 9.88989,7.70342 c -0.362521,-0.30306 -0.960007,-1.0328 -1.327757,-1.62165 -0.818908,-1.31125 -0.829966,-1.55907 -0.215501,-4.83138 1.389402,-7.3993 2.961246,-12.47389 6.104538,-19.70797 0.650035,-1.49601 1.181888,-2.8582 1.181888,-3.02708 0,-0.16889 -0.319067,-0.69577 -0.709038,-1.17088 -2.24967,-2.74084 -1.66915,-4.32851 2.430781,-6.64802 1.623968,-0.91874 4.861817,-2.12325 7.039444,-2.61872 4.506765,-1.02541 8.716316,-0.80437 11.423773,0.59981 1.999543,1.03705 3.358502,3.23573 3.472692,5.61854 0.1648,3.43889 -1.13567,6.59296 -3.939354,9.55421 -1.702446,1.79811 -2.658585,2.53588 -6.115495,4.71881 -1.500188,0.94731 -2.853178,1.87438 -3.006636,2.06012 -0.270149,0.32697 -0.264612,0.37115 0.173555,1.38597 0.975467,2.2592 3.557093,6.27286 5.435232,8.45015 1.392563,1.61437 1.652657,2.9379 0.820799,4.17693 -0.545289,0.8122 -2.37869,2.49852 -2.995931,2.75558 -0.984622,0.41005 -2.12967,0.11 -3.565968,-0.93469 -1.076773,-0.78312 -2.171516,-2.36436 -4.87825,-7.04606 -2.383651,-4.12286 -2.359775,-4.08691 -2.601249,-3.91511 -0.219534,0.15622 -1.115252,3.63982 -1.651726,6.4238 -0.259799,1.34827 -0.487408,2.09298 -0.758769,2.48268 -0.499915,0.71794 -2.651245,2.58713 -3.790018,3.29295 -1.139188,0.7061 -1.684314,0.70651 -2.52701,10e-4 z m 18.542847,-3.50916 c 0.880304,-0.43779 2.060199,-1.65189 2.060199,-2.11992 0,-0.38943 -0.24301,-0.773 -1.792441,-2.8291 -2.319554,-3.07805 -4.792314,-7.52268 -5.341841,-9.60162 -0.297185,-1.12429 -0.477059,-0.97564 5.586386,-4.61649 3.026747,-1.81744 5.233272,-3.96137 6.786851,-6.59435 1.247166,-2.11366 1.588323,-4.16753 1.004186,-6.04541 -0.308658,-0.99228 -1.369409,-2.2205 -2.373374,-2.74811 -3.120669,-1.63993 -11.399705,-0.48284 -16.639975,2.32562 -3.198572,1.71427 -3.651371,2.96811 -1.029671,2.85126 1.806129,-0.0804 1.978073,0.46634 0.864356,2.74888 -2.184508,4.47716 -3.945071,8.89349 -5.733023,14.38112 -0.82759,2.54005 -1.607193,5.9095 -2.61863,11.3177 -0.09377,0.50131 0.336137,1.09088 0.795448,1.09088 0.618865,0 2.962073,-1.31445 3.611666,-2.02601 0.433869,-0.47524 0.639833,-0.88312 0.762592,-1.51012 0.840571,-4.29329 2.707932,-10.03734 3.350969,-10.30763 0.388642,-0.16335 0.693179,0.29236 2.148834,3.21557 2.407689,4.835 5.740465,10.2981 6.481708,10.62479 0.56348,0.24837 1.385577,0.18617 2.07576,-0.15706 z m -8.983319,-18.46156 c -0.379723,-0.4596 -0.320854,-0.96987 0.367985,-3.18935 0.684823,-2.20654 2.835682,-7.16352 3.462153,-7.97906 0.522785,-0.68055 1.567118,-1.15326 3.267645,-1.47908 3.647944,-0.69894 5.015243,-0.0622 5.158498,2.4022 0.08254,1.42072 -0.182486,2.37582 -1.064784,3.83658 -1.55287,2.57092 -3.63284,4.23379 -7.195929,5.75289 -2.472198,1.05401 -3.523972,1.22664 -3.995568,0.65582 z m 5.47107,-3.08294 c 2.261436,-1.24208 3.957562,-2.92084 4.80166,-4.75249 0.82452,-1.78917 0.433588,-2.30702 -1.618725,-2.14427 -2.015607,0.15985 -2.124295,0.23607 -3.127094,2.19318 -1.02685,2.00408 -2.216874,4.82851 -2.220418,5.27001 -0.0016,0.26172 0.07619,0.29153 0.50058,0.19069 0.27669,-0.0658 1.025492,-0.40643 1.663997,-0.75712 z m 23.596191,20.11084 c -0.59749,-0.40062 -1.4578,-1.76944 -1.46353,-2.3286 -0.001,-0.12728 -0.0643,-0.3388 -0.14027,-0.4701 -0.1103,-0.19097 -0.2721,-0.11296 -0.80853,0.39001 -0.84779,0.7949 -2.66511,1.79859 -3.2566,1.79859 -0.53442,0 -1.17343,-0.33533 -1.582459,-0.83042 -0.38453,-0.46542 -0.54789,-0.45149 -1.61346,0.13776 -2.134202,1.18011 -4.26015,1.35624 -5.64437,0.46766 -1.521627,-0.97677 -2.585717,-2.9387 -2.585717,-4.76743 0,-1.20076 1.137725,-4.60303 2.866439,-8.57192 0.71084,-1.63198 1.314452,-3.22659 1.34137,-3.54361 0.100251,-1.18052 1.593048,-1.93042 4.286288,-2.15312 1.30478,-0.10789 1.3563,-0.098 1.845239,0.35261 0.60748,0.55991 0.82336,0.97397 0.97411,1.86824 0.16823,0.99817 -0.24777,2.81815 -0.82355,3.6028 -0.42737,0.58245 -1.821629,3.61611 -1.821629,3.96358 0,0.39039 0.3151,0.0362 1.04282,-1.17204 1.051409,-1.74578 1.767509,-3.41244 2.449539,-5.70115 0.64458,-2.16305 1.00037,-2.6449 2.26719,-3.07051 1.11559,-0.37481 3.17736,-0.73776 3.58307,-0.63075 0.5645,0.14892 1.31216,0.86489 1.74185,1.66803 0.61104,1.14208 0.47048,1.96887 -0.77219,4.54167 -1.71272,3.54604 -3.65629,8.56067 -3.65629,9.43363 0,0.91776 0.25821,0.52915 0.93171,-1.40225 0.36583,-1.04912 0.93895,-2.55603 1.27359,-3.34871 0.33465,-0.79267 0.92192,-2.24237 1.30505,-3.22154 0.83568,-2.13571 2.44675,-5.30898 3.00918,-5.927 0.4276,-0.46989 2.79374,-1.42996 3.95705,-1.60557 0.72468,-0.10942 1.35658,0.0971 1.85145,0.60468 l 0.33179,0.34037 1.13871,-0.37584 c 1.60239,-0.52886 3.18885,-0.62234 4.11997,-0.24277 1.14809,0.46803 2.22568,1.44142 2.73868,2.47386 0.39851,0.80202 0.45474,1.08954 0.46099,2.35659 0.007,1.39705 -0.0267,1.53515 -1.05091,4.32556 -1.04396,2.84422 -1.41686,4.02071 -2.18258,6.88585 -0.38355,1.4352 -0.40879,1.47713 -1.47996,2.45856 -1.31854,1.20807 -2.41652,1.92846 -2.93794,1.92759 -0.621,-0.001 -2.19663,-1.06055 -2.74754,-1.84759 -0.39199,-0.56 -0.50308,-0.88347 -0.50308,-1.46497 0,-0.96584 0.76703,-3.88653 1.65795,-6.31321 0.38656,-1.05294 0.659,-1.96249 0.60538,-2.0212 -0.17978,-0.19695 -0.88651,0.69955 -2.10003,2.66395 -1.48554,2.40471 -1.7789,3.0325 -2.02053,4.32367 -0.35742,1.91003 -0.8138,2.44059 -3.25733,3.7867 -2.01306,1.10894 -2.4921,1.20075 -3.33086,0.63838 z m -11.212958,-2.50861 c 0.212845,-0.0851 1.053222,-0.57022 1.867509,-1.078 0.8143,-0.50779 1.58348,-0.92324 1.7093,-0.92324 0.14027,0 0.30071,0.29473 0.41483,0.7621 0.374379,1.53324 1.168699,1.8005 2.494629,0.83936 0.98134,-0.71136 1.27117,-1.35593 1.22917,-2.73351 -0.0309,-1.00975 0.0556,-1.42665 0.67853,-3.2764 0.87501,-2.59798 1.73667,-4.73834 2.9272,-7.27115 1.19832,-2.54936 1.1906,-3.24125 -0.0362,-3.24125 -0.87085,0 -2.57701,0.64089 -3.07111,1.15364 -0.26821,0.27834 -0.72586,1.21979 -1.17008,2.40701 -0.99511,2.65946 -1.73636,4.13864 -3.104759,6.19543 -1.2305,1.84954 -2.850346,3.63875 -3.294315,3.63875 -0.54957,0 -0.954366,-0.49561 -0.954366,-1.16848 0,-1.22033 1.048304,-4.11408 2.294081,-6.33264 1.29056,-2.29832 1.81972,-4.39876 1.28585,-5.10429 -0.27144,-0.35876 -1.20486,-0.36571 -2.423321,-0.018 -1.103395,0.31481 -1.569674,0.75253 -1.785546,1.67615 -0.258883,1.10761 -0.809266,2.53641 -2.131117,5.5325 -1.503952,3.4088 -1.794611,4.41776 -1.688771,5.86212 0.129788,1.77013 0.99311,3.01736 2.281768,3.29616 0.606432,0.13127 1.887663,0.0194 2.476643,-0.21618 z m 22.815358,-0.54762 c 1.64273,-0.86788 2.35014,-1.60553 2.66182,-2.77562 0.64103,-2.40645 1.40717,-4.8454 2.06139,-6.56233 0.67504,-1.77152 0.7107,-1.94591 0.7107,-3.47587 0,-1.39523 -0.0485,-1.69642 -0.36323,-2.25072 -0.47626,-0.8391 -1.04561,-1.14038 -2.15504,-1.14038 -1.59527,0 -3.16741,0.66065 -4.72689,1.98632 -0.4943,0.42022 -0.93914,0.71977 -0.98851,0.66568 -0.0495,-0.054 0.0611,-0.48277 0.24567,-0.9526 0.60407,-1.53813 -0.0108,-1.8766 -2.19794,-1.21196 -0.57562,0.17485 -1.17727,0.44744 -1.33701,0.60578 -0.5053,0.50093 -4.04025,8.4987 -5.18353,11.72766 -0.55489,1.56718 -0.71577,2.2304 -0.67868,2.79766 0.0439,0.67083 0.0905,0.74879 0.47718,0.79748 0.60618,0.0764 3.48815,-1.45942 4.00751,-2.13551 0.22379,-0.29132 0.59873,-1.08666 0.83322,-1.76738 1.39129,-4.03903 3.73055,-7.38188 5.96184,-8.51958 1.50465,-0.7672 2.31305,-0.42583 2.31305,0.97681 0,0.57743 -0.25551,1.28267 -1.2132,3.34871 -2.20566,4.75832 -2.97823,8.46688 -1.76382,8.46688 0.12963,0 0.73059,-0.26147 1.33547,-0.58103 z"
       style="fill:#0d150b;stroke-width:0.262;stroke:#151515;stroke-opacity:1;stroke-miterlimit:4;stroke-dasharray:none" />
    <path
       d="m 4.3756543,296.83099 c 0.4113866,0 0.8114856,-0.0965 1.2002958,-0.2896 0.3888102,-0.19307 0.7086386,-0.45234 0.9594837,-0.77779 v 0 l -0.7149095,-0.7778 c -0.1856253,0.2372 -0.3988443,0.41924 -0.6396559,0.54612 -0.2408115,0.12687 -0.4991825,0.1903 -0.7751124,0.1903 -0.2458287,0 -0.4728438,-0.0483 -0.6810453,-0.1448 -0.2082022,-0.0965 -0.3888106,-0.22754 -0.5418272,-0.39303 -0.153015,-0.16549 -0.273421,-0.36269 -0.361217,-0.59162 -0.0878,-0.22893 -0.131694,-0.47578 -0.131694,-0.74056 0,-0.2703 0.04264,-0.51991 0.127932,-0.74883 0.08529,-0.22893 0.203185,-0.42751 0.353692,-0.59576 0.1505066,-0.16824 0.3298611,-0.30064 0.5380632,-0.39717 0.2082015,-0.0965 0.4301995,-0.1448 0.6659946,-0.1448 0.280947,0 0.5468432,0.0676 0.7976889,0.20272 0.2508456,0.13515 0.4690811,0.3296 0.6547064,0.58335 v 0 l 0.7374858,-0.80262 c -0.2458289,-0.33097 -0.5669108,-0.59437 -0.9632468,-0.7902 -0.3963361,-0.19583 -0.8052139,-0.29374 -1.2266343,-0.29374 -0.3913189,0 -0.7588077,0.0772 -1.1024657,0.23168 -0.3436581,0.15445 -0.6409101,0.36407 -0.8917561,0.62885 -0.250845,0.26478 -0.449013,0.58059 -0.594503,0.94742 -0.145491,0.36683 -0.218236,0.75986 -0.218236,1.1791 0,0.41923 0.07149,0.81089 0.214473,1.17497 0.142982,0.36407 0.339896,0.67849 0.590741,0.94328 0.250846,0.26477 0.548097,0.4744 0.8917557,0.62885 0.3436584,0.15445 0.7136553,0.23168 1.1099911,0.23168 z m 14.2605657,0.008 c 0.391318,0 0.757553,-0.0772 1.098703,-0.23169 0.341149,-0.15445 0.635891,-0.36545 0.88423,-0.63299 0.248336,-0.26753 0.445251,-0.58472 0.590741,-0.95155 0.145494,-0.36683 0.218233,-0.75711 0.218233,-1.17083 0,-0.41372 -0.07274,-0.80399 -0.218233,-1.17082 -0.14549,-0.36684 -0.342405,-0.68402 -0.590741,-0.95156 -0.248339,-0.26754 -0.543081,-0.47853 -0.88423,-0.63299 -0.34115,-0.15446 -0.707385,-0.23168 -1.098703,-0.23168 -0.386303,0 -0.75003,0.0772 -1.09118,0.23168 -0.34115,0.15446 -0.635891,0.36545 -0.88423,0.63299 -0.248336,0.26754 -0.445249,0.58472 -0.59074,0.95156 -0.14549,0.36683 -0.218236,0.7571 -0.218236,1.17082 0,0.41372 0.07275,0.804 0.218236,1.17083 0.145491,0.36683 0.342404,0.68402 0.59074,0.95155 0.248339,0.26754 0.54308,0.47854 0.88423,0.63299 0.34115,0.15446 0.704877,0.23169 1.09118,0.23169 z m 0,-1.1005 c -0.235794,0 -0.455285,-0.0483 -0.658468,-0.1448 -0.203186,-0.0965 -0.378777,-0.22892 -0.526778,-0.39717 -0.147999,-0.16824 -0.264642,-0.36821 -0.349929,-0.59989 -0.08529,-0.23169 -0.127933,-0.47992 -0.127933,-0.7447 0,-0.27029 0.04265,-0.51991 0.127933,-0.74883 0.08529,-0.22893 0.20193,-0.42751 0.349929,-0.59576 0.148001,-0.16824 0.323592,-0.30063 0.526778,-0.39717 0.203183,-0.0965 0.422674,-0.1448 0.658468,-0.1448 0.235794,0 0.456537,0.0483 0.662231,0.1448 0.205694,0.0965 0.38254,0.22893 0.530541,0.39717 0.147995,0.16825 0.264638,0.36683 0.349929,0.59576 0.08528,0.22892 0.12793,0.47854 0.12793,0.74883 0,0.26478 -0.04265,0.51301 -0.12793,0.7447 -0.08529,0.23168 -0.201934,0.43165 -0.349929,0.59989 -0.148001,0.16825 -0.324847,0.30064 -0.530541,0.39717 -0.205694,0.0965 -0.426437,0.1448 -0.662231,0.1448 z m 16.54075,1.00948 v -1.05912 h -2.882212 v -4.73294 h -1.091181 v 5.79207 z m 13.756362,0 v -1.05912 h -2.882217 v -4.73295 h -1.091173 v 5.79208 z m 13.86172,0 v -1.04257 h -2.987569 v -1.37355 h 1.949071 v -1.00948 h -1.949071 v -1.3239 h 2.95747 v -1.04257 h -4.048644 v 5.79208 z m 12.100785,0.0827 c 0.41139,0 0.811487,-0.0965 1.200295,-0.2896 0.388811,-0.19307 0.708642,-0.45233 0.959488,-0.77779 v 0 l -0.71491,-0.77779 c -0.185623,0.2372 -0.398843,0.41923 -0.639659,0.54611 -0.240813,0.12687 -0.499184,0.1903 -0.775115,0.1903 -0.245822,0 -0.472843,-0.0483 -0.681038,-0.14479 -0.208208,-0.0965 -0.388813,-0.22755 -0.541827,-0.39304 -0.153016,-0.16549 -0.273428,-0.36269 -0.361217,-0.59162 -0.0878,-0.22892 -0.131699,-0.47578 -0.131699,-0.74056 0,-0.27029 0.04264,-0.51991 0.127937,-0.74883 0.08528,-0.22893 0.203178,-0.42751 0.353689,-0.59576 0.150509,-0.16824 0.329859,-0.30063 0.538065,-0.39717 0.208198,-0.0965 0.430197,-0.1448 0.665991,-0.1448 0.28095,0 0.546843,0.0676 0.797687,0.20273 0.250846,0.13514 0.469085,0.32959 0.654711,0.58333 v 0 l 0.737481,-0.80261 c -0.245822,-0.33098 -0.566909,-0.59438 -0.963247,-0.7902 -0.39633,-0.19583 -0.805209,-0.29374 -1.226632,-0.29374 -0.391319,0 -0.758807,0.0772 -1.102464,0.23168 -0.343656,0.15446 -0.64091,0.36407 -0.891757,0.62886 -0.250843,0.26478 -0.449011,0.58058 -0.5945,0.94741 -0.145494,0.36683 -0.218239,0.75986 -0.218239,1.1791 0,0.41923 0.07149,0.81089 0.214472,1.17496 0.142986,0.36408 0.339897,0.67851 0.590745,0.94329 0.250841,0.26478 0.548093,0.4744 0.891749,0.62885 0.343665,0.15445 0.713656,0.23168 1.109994,0.23168 z m 14.43365,-0.0827 v -4.73295 h 1.768457 v -1.05912 h -4.635625 v 1.05912 h 1.775992 v 4.73296 z m 12.499633,0 v -5.79207 h -1.09118 v 5.79208 z m 12.56736,0.091 c 0.39132,0 0.75755,-0.0772 1.09871,-0.23169 0.34114,-0.15445 0.63589,-0.36545 0.88422,-0.63299 0.24835,-0.26753 0.44525,-0.58472 0.59075,-0.95155 0.14549,-0.36683 0.21823,-0.75711 0.21823,-1.17083 0,-0.41372 -0.0727,-0.80399 -0.21823,-1.17082 -0.1455,-0.36684 -0.3424,-0.68402 -0.59075,-0.95156 -0.24833,-0.26754 -0.54308,-0.47853 -0.88422,-0.63299 -0.34116,-0.15446 -0.70739,-0.23168 -1.09871,-0.23168 -0.3863,0 -0.75003,0.0772 -1.09118,0.23168 -0.34116,0.15446 -0.6359,0.36545 -0.88423,0.63299 -0.24834,0.26754 -0.44526,0.58472 -0.59075,0.95156 -0.14549,0.36683 -0.21824,0.7571 -0.21824,1.17082 0,0.41372 0.0727,0.804 0.21824,1.17083 0.14549,0.36683 0.34241,0.68402 0.59075,0.95155 0.24833,0.26754 0.54307,0.47854 0.88423,0.63299 0.34115,0.15446 0.70488,0.23169 1.09118,0.23169 z m 0,-1.1005 c -0.23579,0 -0.45529,-0.0483 -0.65847,-0.1448 -0.20318,-0.0965 -0.37877,-0.22892 -0.52678,-0.39717 -0.148,-0.16824 -0.26464,-0.36821 -0.34994,-0.59989 -0.0853,-0.23169 -0.12792,-0.47992 -0.12792,-0.7447 0,-0.27029 0.0426,-0.51991 0.12792,-0.74883 0.0853,-0.22893 0.20194,-0.42751 0.34994,-0.59576 0.14801,-0.16824 0.3236,-0.30063 0.52678,-0.39717 0.20318,-0.0965 0.42268,-0.1448 0.65847,-0.1448 0.23579,0 0.45654,0.0483 0.66223,0.1448 0.2057,0.0965 0.38255,0.22893 0.53055,0.39717 0.14799,0.16825 0.26463,0.36683 0.34992,0.59576 0.0853,0.22892 0.12793,0.47854 0.12793,0.74883 0,0.26478 -0.0426,0.51301 -0.12793,0.7447 -0.0853,0.23168 -0.20193,0.43165 -0.34992,0.59989 -0.148,0.16825 -0.32485,0.30064 -0.53055,0.39717 -0.20569,0.0965 -0.42644,0.1448 -0.66223,0.1448 z m 13.59833,1.00948 v -3.87242 l 2.68656,3.87242 h 0.96325 v -5.79207 h -1.02345 v 3.7483 l -2.61883,-3.7483 h -1.0385 v 5.79208 z"
       id="COLLECTION"
       inkscape:connector-curvature="0"
       style="fill:#ffffff;fill-rule:nonzero;stroke:none;stroke-width:0.33720762" />
  </g>
</svg>
