<?xml version="1.0" encoding="UTF-8" standalone="no"?>
<svg
   xmlns:dc="http://purl.org/dc/elements/1.1/"
   xmlns:cc="http://creativecommons.org/ns#"
   xmlns:rdf="http://www.w3.org/1999/02/22-rdf-syntax-ns#"
   xmlns:svg="http://www.w3.org/2000/svg"
   xmlns="http://www.w3.org/2000/svg"
   xmlns:sodipodi="http://sodipodi.sourceforge.net/DTD/sodipodi-0.dtd"
   xmlns:inkscape="http://www.inkscape.org/namespaces/inkscape"
   width="500"
   height="200"
   viewBox="0 0 500 200"
   version="1.1"
   id="svg72"
   sodipodi:docname="pcengine.svg"
   inkscape:version="0.92.5 (2060ec1f9f, 2020-04-08)">
  <metadata
     id="metadata78">
    <rdf:RDF>
      <cc:Work
         rdf:about="">
        <dc:format>image/svg+xml</dc:format>
        <dc:type
           rdf:resource="http://purl.org/dc/dcmitype/StillImage" />
        <dc:title>mainlogo</dc:title>
      </cc:Work>
    </rdf:RDF>
  </metadata>
  <defs
     id="defs76" />
  <sodipodi:namedview
     pagecolor="#ffffff"
     bordercolor="#666666"
     borderopacity="1"
     objecttolerance="10"
     gridtolerance="10"
     guidetolerance="10"
     inkscape:pageopacity="0"
     inkscape:pageshadow="2"
     inkscape:window-width="1366"
     inkscape:window-height="743"
     id="namedview74"
     showgrid="false"
     inkscape:pagecheckerboard="true"
     inkscape:zoom="1.1191524"
     inkscape:cx="360.52124"
     inkscape:cy="-15.210625"
     inkscape:window-x="0"
     inkscape:window-y="0"
     inkscape:window-maximized="1"
     inkscape:current-layer="svg72" />
  <title
     id="title52">mainlogo</title>
  <rect
     style="fill:none;fill-rule:evenodd;stroke:none;stroke-width:1.13650453"
     id="Rectangle"
     x="-0.52198452"
     y="2.9251055e-09"
     width="491.76349"
     height="197.43271" />
  <g
     style="fill:none;fill-rule:evenodd;stroke:none;stroke-width:1"
     transform="matrix(0.98988081,0,0,0.98668884,93.559786,14.246845)"
     id="Group-35">
    <path
       style="stroke:#eb222c;stroke-width:3.0789156;stroke-linecap:round;stroke-linejoin:round"
       inkscape:connector-curvature="0"
       id="path22"
       d="M 37.604264,141.31917 C 15.694386,135.08237 1.8683975,125.35629 0.17586191,112.89897 -2.6240915,92.365314 28.241161,69.700869 76.250513,53.239501" />
    <path
       style="stroke:#eb222c;stroke-width:3.0789156;stroke-linecap:round;stroke-linejoin:round"
       inkscape:connector-curvature="0"
       id="path24"
       d="m 161.20491,34.003807 c 17.848,-2.273474 35.08372,-3.459975 51.21742,-3.649563" />
    <path
       style="stroke:#eb222c;stroke-width:3.0789156;stroke-linecap:round;stroke-linejoin:round"
       inkscape:connector-curvature="0"
       id="path26"
       d="m 228.8014,30.68995 c 52.45038,1.807919 89.90492,14.987612 92.92879,35.95655 4.13961,28.661883 -57.52241,61.58153 -140.043,75.90396" />
    <polyline
       style="fill:#eb222c;fill-rule:nonzero"
       points="196.763003 60.0632974 231.412131 22.4917363 187.704936 49.5492025 172.067669 38.1264063 179.640364 56.4401934 144.990726 94.0113977 188.697871 66.9485807 204.334782 78.3718865 196.763003 60.0632974"
       id="path28" />
    <path
       style="fill:#eb222c;fill-rule:nonzero"
       inkscape:connector-curvature="0"
       id="Shape"
       d="m 99.911113,60.797353 0.161987,-17.46814 11.46132,-3.949491 c 1.50324,-0.517407 2.44919,0.224689 2.4298,1.910566 l -0.1083,11.954399 c -0.0185,1.691075 -0.97981,3.085691 -2.48305,3.603099 z m 142.587777,24.831403 0.16805,-17.861798 c 0.054,-5.648679 4.98515,-12.057728 9.85299,-13.736967 l 21.06092,-7.254048 c 3.548,-1.223645 6.80253,2.405732 6.76124,6.528265 l -0.082,5.753218 c -0.0409,4.122024 -3.36903,9.082707 -6.91666,10.305843 l -21.86117,7.535842 0.0314,2.075313 c -0.0212,2.372219 1.81849,3.894648 3.86273,3.188054 l 24.4341,-8.435702 -0.086,9.418526 -27.56492,9.497355 c -4.79228,1.65265 -9.55628,-1.266407 -9.65927,-6.750808 z m -59.3004,-7.709986 8.80486,-3.029539 -0.36136,38.612389 -9.00191,3.09992 0.35579,-38.605952 z m -52.14052,56.45983 -9.00862,3.09986 0.23394,-25.0718 c 0.032,-3.14188 -1.06321,-3.96798 -3.91449,-2.9851 l -15.69434,5.41184 -0.27056,29.41589 -9.007492,3.10627 0.355304,-38.61123 30.089928,-10.370009 c 4.52049,-1.559483 7.54175,0.815351 7.4936,5.894439 z m -44.935166,5.4021 -0.09341,10.11121 -37.66113,12.97737 0.617171,-67.111866 31.112981,-10.720566 -0.08488,9.194561 -22.104435,7.620271 -0.177428,19.30562 18.010237,-6.20652 -0.08572,9.18979 -18.00988,6.20602 -0.182127,19.3119 z m 0.06855,-7.35706 -21.287445,7.33463 0.04052,-4.59042 17.191592,-5.92774 0.222937,-23.90322 -17.191668,5.92731 0.03937,-4.59696 21.28686,-7.335428 z m 51.351166,7.04835 0.005,-0.804 c 0.61046,-0.0612 1.45862,0.03 2.14434,-0.20222 l 17.70691,-6.0651 c -0.0359,3.7528 -4.67367,5.50849 -11.79198,7.95837 l -8.10078,2.79499 -0.23162,24.81904 10.64417,-3.66477 c 26.49009,-7.41402 34.29045,-23.15664 34.65185,-40.35002 l 31.9301,-11.00543 0.27043,-29.416667 2.59746,-0.897486 c 2.78908,-0.962753 2.34011,-1.416749 2.29631,1.52206 l -0.25135,27.099563 22.92345,-7.89948 0.0188,-1.78538 c 1.91818,0.47062 4.04828,0.38266 6.1875,-0.35274 l 39.64452,-13.661271 0.19382,-21.14282 -2.97554,-1.416389 c 1.81331,-3.115641 3.0125,-6.750513 3.03894,-9.627455 l 0.073,-3.342498 C 288.42427,39.598105 276.72699,38.354246 271.78663,40.057885 l -22.75132,7.83974 c -4.02868,1.390137 -8.08414,5.082909 -10.72961,9.494909 -3.60658,-2.5003 -8.5565,-2.846798 -11.23687,-1.923079 l -25.32681,8.727547 4.0533,5.93294 22.84636,-7.868111 c 3.29303,-1.137151 5.79397,-0.183308 6.88742,2.390762 l -0.008,0.08363 c -0.13129,1.983519 -0.48191,33.809062 -0.48191,33.809062 l -8.19026,2.822015 0.23332,-25.077898 c 0.0264,-3.140451 -1.06801,-3.962217 -3.914,-2.979817 l -15.69442,5.411402 -0.27569,29.417233 -9.0022,3.10588 0.3106,-33.679783 -9.21002,-7.649859 -25.69886,14.761025 12.64437,-4.357737 0.20469,-0.06512 -0.42448,45.962184 c -0.10987,11.67955 -10.26818,24.61452 -20.66845,28.20104 l -10.64368,3.66503 0.0904,-9.19646 8.09629,-2.78754 c 7.11715,-2.45647 14.06859,-11.23776 14.13835,-19.15282 l 0.0483,-4.97951 -21.08281,7.26416 c -4.52012,1.55905 -7.54281,-0.82133 -7.49331,-5.8953 l 0.19942,-21.60745 c 0.0323,-3.839124 1.80755,-7.335282 4.62935,-9.485821 l -0.0477,-0.56685 9.40494,-10.292603 -6.16729,2.189745 c -3.28832,1.130961 -9.11261,4.772068 -12.20149,10.557481 -3.64656,-3.061365 -9.16554,-3.542449 -12.04996,-2.547467 l -22.723594,7.834852 0.198807,-21.149954 16.578577,-5.713796 c 8.82552,-3.03899 17.07096,-15.021303 17.16493,-24.926717 l 0.1313,-14.250561 C 133.71752,23.462791 125.639,17.108291 116.81312,20.14779 L 80.58307,32.632659 80.175519,76.76327 46.813809,88.26177 c -2.8236,0.972645 -5.144312,4.336309 -5.171252,7.506776 l -0.661574,71.252324 c -0.02698,3.17012 2.240106,4.95658 5.064208,3.98425 l 63.656259,-21.94032 0.27605,-29.41771 2.9177,-1.01102 c 2.48467,-0.89351 1.99954,-1.18971 1.96843,1.82657 l -0.24983,26.90935 z m 114.02959,-72.167163 -0.008,1.115366 17.03124,-5.869541 c 1.34261,-0.465859 2.44406,-2.101798 2.46168,-3.664074 0.0118,-1.561282 -1.06549,-2.450388 -2.40774,-1.985039 l -4.37826,1.504926 -6.97775,2.408577 -1.76962,0.60502 c -1.98271,0.685257 -3.81561,3.344421 -3.9442,5.667985 z m -104.7249,36.637433 -0.10633,11.53243 c -0.0311,3.14708 1.0633,3.96841 3.91493,2.98502 l 16.51184,-5.68953 0.18639,-20.222347 -16.51311,5.684836 c -2.85163,0.983394 -3.96785,2.563431 -3.99372,5.709591 z m 6.49974,3.0518 c 0.0741,-2.8502 1.13628,-2.71159 3.76323,-3.58817 l 2.80868,-0.96503 -0.046,4.59233 -2.59182,0.89649 c -2.78467,0.96042 -3.91156,1.95055 -3.93409,-0.93562 z" />
    <path
       style="fill:#eb222c;fill-rule:nonzero"
       inkscape:connector-curvature="0"
       id="path32"
       d="m 176.67644,55.421491 -4.25024,-9.473937 -1.37985,0.419278 -0.0229,2.524815 c -0.014,1.749245 -1.13535,3.37127 -2.68815,3.909028 l -9.41614,3.243177 c -1.55287,0.537326 -2.64898,-0.324341 -2.63409,-2.073739 l 0.25261,-27.121509 c 0.015,-1.743614 1.1354,-3.365919 2.68828,-3.903245 l 9.417,-3.243329 c 1.55193,-0.537606 2.64855,0.324417 2.63274,2.068617 l -0.0356,3.452932 19.03793,-6.563707 0.0389,-4.133719 C 190.4111,4.0927781 182.1894,-2.3771638 172.89318,0.82164444 L 154.67925,7.0989229 C 145.38957,10.301936 136.98864,22.499249 136.89391,32.932268 l -0.26892,28.959143 c -0.0951,10.433527 8.12705,16.903393 17.42235,13.699387 l 6.09039,-2.094004 16.53871,-18.075303" />
    <path
       style="fill:#eb222c;fill-rule:nonzero"
       inkscape:connector-curvature="0"
       id="path34"
       d="m 189.50476,46.992887 c 0.26978,-1.466514 0.52975,-2.051437 0.5432,-3.507591 l 0.0364,-3.681738 -7.57668,2.613783 6.99709,4.575546" />
  </g>
  <g
     style="fill:#eb222c;fill-rule:nonzero;stroke:none;stroke-width:1"
     transform="matrix(2.0273434,0,0,2.020806,20.25994,11.615934)"
     id="NEC_logo_1963">
    <path
       inkscape:connector-curvature="0"
       id="Path"
       d="m 24.661564,1.0543453 h 18.34209 L 41.787299,8.023874 c 0,0 -0.53991,-3.7782693 -2.797414,-5.2568819 C 38.429448,2.5045512 36.993538,2.5226948 33.395238,2.5226948 l -1.408604,8.3103232 c 2.869073,0.674612 6.050803,-3.6970813 6.050803,-3.6970813 l -1.829939,9.6635803 c 0,0 -1.122522,-4.375543 -4.637983,-4.230394 l -1.559435,8.596039 c 5.120164,0 5.020832,-0.03592 6.257897,-0.791904 1.193629,-0.729227 3.980964,-4.320195 4.08616,-4.823085 l -1.136999,7.202647 h -18.54167 c 0.137452,-0.959229 1.943932,-1.062226 2.752331,-1.612582 l 1.516732,-8.360905 c -0.12224,-0.747371 -1.588757,-0.103547 -1.886385,-0.745171 0.251811,-0.687075 1.726392,-0.2366 2.154507,-0.732526 L 26.751561,2.8186739 C 26.476841,2.1774165 24.661564,1.8632937 24.661564,1.0543453 Z" />
    <path
       inkscape:connector-curvature="0"
       id="path64"
       d="M 59.263994,0.40190845 C 60.07111,2.0670886 60.720064,3.8961111 61.310923,5.7856123 60.189318,6.2206924 58.634282,6.9277434 58.634282,6.9277434 L 55.682006,2.8260047 c -3.075067,-0.2406319 -7.230687,4.339255 -7.54536,7.2009973 -0.368003,3.385707 1.738121,6.729996 5.038243,7.015529 3.437939,0.298911 7.557638,-2.610114 7.557638,-2.610114 L 56.953708,22.75282 C 49.160019,25.52586 43.392917,20.435019 43.097854,14.432417 42.64518,5.2687943 50.93791,0.21827312 59.263994,0.40190845 Z" />
    <path
       inkscape:connector-curvature="0"
       id="path66"
       d="M 16.643555,12.424158 19.30865,0 24.379147,3.1155694 20.325974,5.5061274 16.651435,23.417719 4.7998095,10.079783 3.1765979,18.338608 6.0597824,20.71707 0,23.417719 2.9442131,9.4689484 C 3.2649334,7.3613573 1.80758,6.6356129 0.52469853,6.2003496 L 5.7161534,0.21863966 Z" />
  </g>
</svg>
