<?xml version="1.0" encoding="UTF-8" standalone="no"?>
<!-- Created with Inkscape (http://www.inkscape.org/) -->

<svg
   xmlns:dc="http://purl.org/dc/elements/1.1/"
   xmlns:cc="http://creativecommons.org/ns#"
   xmlns:rdf="http://www.w3.org/1999/02/22-rdf-syntax-ns#"
   xmlns:svg="http://www.w3.org/2000/svg"
   xmlns="http://www.w3.org/2000/svg"
   xmlns:sodipodi="http://sodipodi.sourceforge.net/DTD/sodipodi-0.dtd"
   xmlns:inkscape="http://www.inkscape.org/namespaces/inkscape"
   width="500"
   height="200"
   viewBox="0 0 500 200"
   version="1.1"
   id="svg8"
   inkscape:version="0.92.5 (2060ec1f9f, 2020-04-08)"
   sodipodi:docname="pcfx.svg">
  <defs
     id="defs2" />
  <sodipodi:namedview
     id="base"
     pagecolor="#ffffff"
     bordercolor="#666666"
     borderopacity="1.0"
     inkscape:pageopacity="0.0"
     inkscape:pageshadow="2"
     inkscape:zoom="0.91862962"
     inkscape:cx="290.89362"
     inkscape:cy="62.965207"
     inkscape:document-units="mm"
     inkscape:current-layer="layer1"
     showgrid="false"
     units="px"
     inkscape:pagecheckerboard="true"
     inkscape:window-width="1366"
     inkscape:window-height="743"
     inkscape:window-x="0"
     inkscape:window-y="0"
     inkscape:window-maximized="1" />
  <metadata
     id="metadata5">
    <rdf:RDF>
      <cc:Work
         rdf:about="">
        <dc:format>image/svg+xml</dc:format>
        <dc:type
           rdf:resource="http://purl.org/dc/dcmitype/StillImage" />
        <dc:title />
      </cc:Work>
    </rdf:RDF>
  </metadata>
  <g
     inkscape:label="Layer 1"
     inkscape:groupmode="layer"
     id="layer1"
     transform="translate(1.0909515,-248.58921)">
    <path
       id="path81"
       style="fill:#fabe03;stroke-width:0.311795"
       d="m 66.823499,272.53959 c -2.545108,-0.02 -4.986902,1.93287 -4.986902,4.63401 0,1.51704 1.366848,3.72394 2.584301,4.17004 1.217543,0.446 2.733026,0.40946 3.935761,-0.093 1.413198,-0.59048 2.97172,-2.76134 2.97172,-4.14001 0,-1.21085 -1.073106,-3.2637 -2.012179,-3.85015 -0.784551,-0.48997 -1.644331,-0.71438 -2.492701,-0.72078 z m 380.126281,1.18778 c 0.51474,0.23236 1.06645,0.53108 1.64579,0.86944 0.13934,-0.36146 0.20101,-0.62915 0.15034,-0.71176 -0.038,-0.0613 -0.77579,-0.11301 -1.79596,-0.15768 z m -369.919722,1.45808 c -0.26582,0.007 -0.468938,0.0267 -0.588641,0.0647 -1.307623,0.41953 -1.957668,1.08981 -2.174354,2.24493 -0.414057,2.20713 1.064809,3.107 6.881956,4.18355 2.057846,0.38082 4.022254,0.80749 4.36523,0.949 0.342975,0.14168 1.676557,0.49227 2.962709,0.77936 1.286155,0.28702 2.899938,0.78352 3.585885,1.10218 0.685948,0.31869 2.006802,0.87553 2.935681,1.23736 3.69071,1.43757 7.022486,3.2484 11.146576,6.06055 0.48606,0.33135 2.26416,2.00244 3.95228,3.71354 2.41347,2.44624 3.34089,3.65083 4.3397,5.63408 l 1.27037,2.52125 0.0257,3.89823 c 0.024,3.66957 -0.0358,4.06713 -1.0196,6.79637 -1.35314,3.75391 -2.69752,6.01271 -5.62359,9.44219 -1.01036,1.18422 -1.08396,1.21559 -1.64728,0.70579 -0.32423,-0.29336 -1.03525,-1.31443 -1.57971,-2.26897 -1.27544,-2.2361 -6.752362,-7.72144 -8.967719,-8.98123 -3.040798,-1.72916 -7.904118,-4.04817 -9.665972,-4.60847 -0.943176,-0.30003 -1.854221,-0.64972 -2.025693,-0.77786 -0.383455,-0.28669 -5.35753,-1.43614 -7.484111,-1.72986 -0.857433,-0.11835 -1.699522,-0.32136 -1.871025,-0.4505 -0.377158,-0.28436 -5.778711,-0.93401 -7.769418,-0.93401 h -1.428189 v -10.8943 c 0,-5.99194 -0.123342,-10.97041 -0.274787,-11.06399 -0.151445,-0.0937 -1.238542,0.33986 -2.416119,0.96404 -1.177574,0.62418 -2.70322,1.41001 -3.389171,1.7464 -0.685947,0.33642 -1.49562,0.83066 -1.798949,1.09768 -0.528619,0.46543 -1.575564,1.05234 -5.683658,3.18497 -1.028922,0.5341 -2.852477,1.51978 -4.052889,2.19086 -1.200409,0.67112 -3.025468,1.65552 -4.054392,2.18636 -1.028924,0.53087 -2.711629,1.44047 -3.740552,2.02272 -1.028924,0.58221 -2.713131,1.48771 -3.742054,2.01065 -1.028924,0.52297 -2.85248,1.50937 -4.052891,2.19239 -1.20041,0.68305 -3.025469,1.67569 -4.054392,2.2059 -1.028924,0.5302 -2.711629,1.44074 -3.740553,2.02418 -1.028922,0.58344 -2.713129,1.49321 -3.742053,2.02118 -1.028924,0.52801 -2.954709,1.54735 -4.279636,2.26447 -1.324928,0.71712 -3.430186,1.83547 -4.677569,2.48519 -3.4690299,1.807 -3.4729669,1.81066 -3.7871034,4.36372 -0.3189236,2.59202 -0.6338103,60.66052 -0.3423687,63.1329 0.185047,1.56965 0.2594525,1.67946 1.6517891,2.43112 0.801779,0.43283 2.29868,1.28733 3.327605,1.89957 2.491047,1.48214 4.562527,2.66783 7.0156,4.01533 1.114667,0.61235 3.008649,1.68526 4.209059,2.38461 1.200412,0.69935 2.955044,1.67916 3.898224,2.17736 0.94318,0.49821 2.486536,1.38594 3.429715,1.97161 0.94318,0.58565 2.534651,1.52782 3.536331,2.09329 1.001682,0.56548 2.194412,1.24349 2.650371,1.50761 0.45596,0.26402 2.19958,1.2455 3.875699,2.18187 7.113724,3.97419 12.728153,7.17163 13.945609,7.94212 1.177768,0.74532 3.373253,1.99398 5.613079,3.19247 0.771694,0.41293 2.103772,1.15778 2.961209,1.65479 0.857437,0.49697 1.629111,0.90396 1.714857,0.90396 0.08574,0 0.85742,-0.40426 1.714857,-0.89796 0.857437,-0.49371 2.261444,-1.26643 3.118881,-1.71636 0.857436,-0.4499 2.469712,-1.37117 3.584382,-2.04822 1.114665,-0.67705 2.760934,-1.59502 3.657964,-2.03922 0.897026,-0.44423 1.706659,-0.9303 1.798946,-1.07968 0.09231,-0.14934 0.901923,-0.63261 1.79895,-1.07365 0.897029,-0.44106 2.543298,-1.3634 3.657964,-2.04971 1.114669,-0.68632 2.517173,-1.48658 3.117377,-1.77944 0.600208,-0.29302 1.465642,-0.78395 1.923582,-1.09168 0.457951,-0.30769 1.650683,-0.98824 2.650373,-1.51214 0.999697,-0.52391 2.689939,-1.46911 3.755568,-2.10079 2.018083,-1.19629 6.112543,-3.54976 7.727373,-4.4403 0.51446,-0.28368 1.91847,-1.08504 3.11888,-1.78093 1.20041,-0.69588 3.79564,-2.13796 5.76774,-3.20447 1.97211,-1.06651 3.84027,-2.16093 4.152,-2.43265 0.55411,-0.48313 1.60551,-1.15568 2.83958,-1.84096 -0.20331,-1.08065 -0.32822,-2.1322 -0.28532,-3.33962 -2e-5,-1.23556 -1e-5,-2.47198 0,-3.70754 -2.5e-4,-1.01611 -7.7e-4,-2.03218 0.002,-3.04829 0.002,-1.3061 -0.012,-2.61166 -0.005,-3.91776 0.004,-0.23268 0.007,-0.4654 0.012,-0.69825 0.008,-0.37996 0.009,-0.27469 0.0107,-0.25535 -0.3449,-0.67769 -1.47793,-2.07519 -0.0706,-1.13972 -0.14125,-4.74592 0.20695,-9.63451 1.35596,-14.24292 0.11215,0.55211 0.25769,2.22966 0.28232,1.66679 0.0237,-0.53574 -0.15107,-1.06375 -0.18021,-1.59922 -0.003,-0.0547 -0.002,-0.10467 -0.005,-0.15934 -0.79552,0.37819 -1.57169,0.82076 -1.71035,1.04514 -0.0956,0.15468 -0.90792,0.64978 -1.80495,1.10068 -2.85846,1.43684 -4.18465,2.17146 -4.69559,2.60083 -0.5043,0.42373 -3.07889,1.83867 -6.05006,3.32608 -0.89702,0.44906 -1.70809,0.94123 -1.80195,1.09318 -0.0939,0.15201 -1.0162,0.70688 -2.05122,1.23286 -1.03501,0.52593 -2.25879,1.20508 -2.71944,1.50911 -1.22683,0.80969 -1.861043,1.18072 -4.111459,2.40711 -3.255858,1.77436 -5.498501,3.08136 -5.971969,3.48079 -0.242351,0.20435 -0.824481,0.51804 -1.294402,0.69675 -0.469918,0.17868 -1.588835,0.78573 -2.485191,1.34847 -0.89636,0.56277 -2.858578,1.63188 -4.360726,2.37707 -1.502154,0.74516 -2.803254,1.47121 -2.89063,1.61272 -0.08737,0.14135 -0.89141,0.61902 -1.788439,1.06168 -0.897027,0.44263 -2.684149,1.43617 -3.970301,2.20736 -1.286155,0.77123 -2.899934,1.68756 -3.585885,2.03772 -0.685948,0.35016 -1.808254,1.04595 -2.494201,1.54518 -0.685951,0.49921 -1.427596,0.91167 -1.648786,0.9175 -0.41347,0.01 -1.339449,-0.45816 -4.587469,-2.32303 -1.028923,-0.59078 -2.641206,-1.50372 -3.584385,-2.02869 -0.94318,-0.525 -2.69781,-1.57735 -3.898222,-2.33954 -1.200412,-0.76219 -2.463566,-1.51784 -2.806541,-1.67882 -0.342976,-0.16101 -1.815905,-1.00381 -3.273546,-1.87251 -1.457641,-0.86869 -3.561399,-2.07895 -4.676066,-2.69093 -1.114482,-0.61198 -3.009966,-1.65972 -4.210377,-2.32751 -1.20041,-0.66778 -2.638128,-1.46004 -3.195461,-1.75993 -0.557334,-0.29968 -1.013598,-0.71675 -1.013598,-0.928 0,-0.37779 6.795036,-4.17751 7.470592,-4.17751 0.190428,0 1.169268,0.8806 2.175858,1.95662 1.008368,1.07797 2.508616,2.2883 3.341118,2.69543 0.831028,0.40639 1.721917,0.9148 1.979146,1.13071 0.257219,0.21602 1.730161,0.76783 3.273546,1.22533 1.543384,0.4575 3.034194,0.95217 3.312588,1.09918 1.547988,0.81743 14.384201,1.17669 16.252106,0.455 0.930045,-0.35933 0.622483,0.483 -0.701259,1.91908 -1.367964,1.48407 -1.469225,1.84473 -0.791358,2.81254 0.900103,1.28509 1.971102,1.44224 4.399765,0.64571 2.61451,-0.85753 4.440436,-1.94054 7.25436,-4.30215 2.816292,-2.36357 4.733941,-4.68261 6.07408,-7.34448 0.616732,-1.22495 1.603999,-2.62749 2.192375,-3.11736 1.344867,-1.11978 3.190456,-3.53936 3.982315,-5.21815 1.749953,-3.70998 2.836897,-5.42097 5.101032,-8.0322 1.36914,-1.57905 2.84992,-3.44239 3.29006,-4.1415 0.93641,-1.48741 4.04238,-7.78475 4.04238,-8.19588 0,-0.15468 0.99505,-1.32583 2.21039,-2.60232 6.602,-6.93415 10.42217,-13.55334 11.08651,-19.20579 0.10891,-0.92667 0.31819,-1.75906 0.46551,-1.85 0.34928,-0.21602 0.34928,-5.838 0,-6.22427 -0.14731,-0.16301 -0.4296,-1.13705 -0.62769,-2.16382 -0.38133,-1.97658 -2.67971,-6.79867 -4.05289,-8.50223 -2.49619,-3.0968 -6.5433,-6.6936 -9.73504,-8.65087 -4.57394,-2.80488 -6.48604,-3.86106 -7.608743,-4.20605 -0.685948,-0.21068 -1.52805,-0.55854 -1.871025,-0.77182 -0.342976,-0.21335 -1.729732,-0.76979 -3.081338,-1.23586 -1.35161,-0.46607 -2.685206,-0.97031 -2.96271,-1.12172 -0.27752,-0.15134 -1.836625,-0.56734 -3.465756,-0.9235 -1.629127,-0.35616 -3.24291,-0.78592 -3.585885,-0.95504 -1.057655,-0.52183 -6.000248,-1.22945 -7.861015,-1.19228 z m -10.223077,35.97446 2.962709,0.075 c 3.626069,0.092 8.156717,0.64081 8.557774,1.03611 0.162912,0.16067 0.565355,0.29135 0.893466,0.29135 1.138831,0 5.938969,1.29376 7.048638,1.89958 0.613659,0.33502 1.746536,0.88789 2.518226,1.22832 5.736758,2.53045 11.101525,7.17463 12.412446,10.74713 0.18878,0.51444 0.49943,1.54788 0.69075,2.296 0.31742,1.24126 0.28662,1.42584 -0.35589,2.10979 -0.38722,0.41213 -1.34418,1.11698 -2.1263,1.56618 -0.782114,0.4492 -1.705383,1.07092 -2.051222,1.38301 -0.345839,0.31202 -1.301026,0.92553 -2.121797,1.36196 -1.837489,0.97691 -2.71347,0.99761 -3.851675,0.0917 -2.629667,-2.09313 -7.438383,-4.5193 -10.702091,-5.39837 -1.11467,-0.30036 -2.166534,-0.64218 -2.338033,-0.76132 -0.653112,-0.4532 -7.331333,-1.54855 -9.509804,-1.56018 -0.771694,-0.003 -1.58158,-0.12035 -1.79895,-0.25836 -0.305822,-0.19401 -0.376888,-2.04392 -0.312356,-8.17934 z m 115.231839,13.37952 c 0.0183,0.0167 0.0357,0.0333 0.054,0.048 0.15075,0.12867 0.7351,0.29735 0.55561,0.21335 -0.20025,-0.0937 -0.4062,-0.17468 -0.60966,-0.26136 z m -114.200222,9.24099 c 2.247206,-0.0567 8.651553,0.79042 10.349212,1.44607 0.257219,0.0993 1.532413,0.55994 2.835073,1.02261 3.302931,1.17312 5.44532,2.91012 4.390758,3.56186 -0.141577,0.0877 -2.421389,0.51391 -5.066488,0.94754 -2.645102,0.43357 -5.230764,0.91927 -5.745228,1.07965 -1.509969,0.47083 -6.785976,0.70852 -7.404522,0.33336 -0.472835,-0.28669 -0.54659,-0.8501 -0.54659,-4.22255 0,-3.30001 0.07767,-3.92146 0.506047,-4.08594 0.125543,-0.048 0.36071,-0.0743 0.681738,-0.0827 z m 22.974893,10.72162 c 0.08404,10e-4 0.143344,0.01 0.174179,0.03 0.415264,0.25668 0.367861,2.13862 -0.07807,3.11736 -0.205282,0.45053 -0.871321,1.06911 -1.480603,1.374 -2.141375,1.07155 -2.645916,1.05305 -4.230083,-0.15634 -0.800429,-0.61098 -1.789169,-1.2634 -2.196882,-1.44908 -0.407721,-0.18568 -0.67589,-0.44526 -0.594644,-0.57661 0.304289,-0.49237 7.145725,-2.35927 8.406108,-2.33954 z m -24.785854,5.99751 c 5.594471,0.0333 12.652176,1.61249 11.648118,2.60683 -0.146944,0.14535 -1.457004,0.41303 -2.910152,0.59465 -2.833226,0.35392 -15.5876,0.40313 -16.791189,0.0647 l -0.725287,-0.20435 0.896473,-0.66372 c 0.493307,-0.36469 1.661513,-1.05764 2.596312,-1.54064 1.584848,-0.81883 1.942251,-0.8778 5.285725,-0.85744 z m 16.472849,8.67638 c 0.295555,0.29569 -3.139846,2.09786 -5.09202,2.6714 -1.200409,0.35272 -2.743767,0.86039 -3.429714,1.12771 -1.413941,0.55078 -11.409351,0.86154 -13.875033,0.43097 -3.95321,-0.69028 -9.353633,-2.88668 -9.353633,-3.80361 0,-0.3429 -0.172512,-0.3515 3.545343,0.19068 8.38131,1.22222 16.89397,1.17028 24.665718,-0.15002 1.88328,-0.32002 3.475961,-0.53037 3.539339,-0.46703 z m 155.077494,6.3564 c 0.34984,0.57441 1.63562,1.24026 3.54684,1.96862 0.004,-0.02 0.007,-0.0463 0.0107,-0.066 0.0447,-0.22868 0.10257,-0.4612 0.16818,-0.69525 -0.56803,-0.19068 -1.30374,-0.417 -2.07375,-0.63518 -0.45703,-0.12934 -1.03505,-0.33716 -1.65179,-0.57211 z m -116.79503,1.70433 c 0.004,0.13734 0.005,0.30836 0.0197,0.30802 0.10294,-0.002 0.0647,-0.13401 -0.0197,-0.30802 z m 148.613,7.73191 c -0.0732,0.19068 -0.14748,0.38052 -0.21775,0.5721 0.003,-0.002 0.0173,-0.007 0.021,-0.01 0.0567,-0.12234 0.13008,-0.29468 0.15165,-0.39793 0.0113,-0.0543 0.0317,-0.109 0.045,-0.16367 z m 173.89886,34.13945 c -1.51981,1.65953 -0.55471,1.46245 1.21782,0.56915 -0.40286,-0.19735 -0.80809,-0.3884 -1.21782,-0.56915 z"
       inkscape:connector-curvature="0" />
    <path
       id="path79"
       style="fill:#eb0622;stroke-width:0.311795"
       d="m 66.823499,272.53809 c -2.545108,-0.02 -4.986902,1.93437 -4.986902,4.63551 0,1.51704 1.366848,3.72244 2.584301,4.16854 1.217543,0.446 2.733026,0.41096 3.935761,-0.0917 1.413195,-0.59047 2.97172,-2.76133 2.97172,-4.14 0,-1.21086 -1.073106,-3.26371 -2.012179,-3.85015 -0.784551,-0.48997 -1.644331,-0.71589 -2.492701,-0.72229 z m 10.206559,2.64736 c -0.26582,0.007 -0.468938,0.0267 -0.588641,0.0647 -1.30762,0.41953 -1.957668,1.08981 -2.174354,2.24493 -0.414057,2.20713 1.064809,3.107 6.881956,4.18355 2.057846,0.38082 4.022254,0.80749 4.36523,0.949 0.342975,0.14168 1.676557,0.49227 2.962709,0.77936 1.286155,0.28702 2.899938,0.78352 3.585885,1.10218 0.685948,0.31869 2.006802,0.87553 2.935681,1.23736 3.69071,1.43757 7.022486,3.2484 11.146576,6.06055 0.48606,0.33135 2.26416,2.00244 3.95228,3.71354 2.41347,2.44624 3.34089,3.65083 4.3397,5.63408 l 1.27037,2.52125 0.0257,3.89823 c 0.024,3.66957 -0.0358,4.06713 -1.0196,6.79637 -1.35314,3.75391 -2.69752,6.01271 -5.62359,9.44219 -1.01036,1.18426 -1.08396,1.21559 -1.64728,0.70579 -0.32423,-0.29336 -1.03525,-1.31443 -1.57971,-2.26897 -1.27544,-2.2361 -6.752362,-7.72144 -8.967719,-8.98123 -3.040798,-1.72916 -7.904118,-4.04817 -9.665972,-4.60847 -0.943176,-0.30003 -1.854221,-0.64972 -2.025693,-0.77786 -0.383455,-0.28669 -5.35753,-1.43614 -7.484111,-1.72986 -0.857433,-0.11835 -1.699522,-0.32203 -1.871025,-0.452 -0.632117,-0.47904 -6.970256,-0.97978 -12.089598,-0.95654 -5.23699,0.0233 -9.984445,0.40256 -12.07308,0.96254 -0.600204,0.16101 -2.354837,0.5236 -3.898221,0.80489 -1.543385,0.28135 -3.648644,0.8315 -4.677567,1.22382 -1.028924,0.3923 -2.408385,0.88237 -3.066322,1.08868 -1.179072,0.36983 -5.290348,2.52366 -7.335447,3.84266 -1.62903,1.05064 -5.409008,4.90786 -6.324851,6.45397 -1.144186,1.93165 -1.50861,3.47543 -1.510637,6.39394 -0.0018,2.54856 0.653203,5.81767 1.339451,6.68223 0.208155,0.26235 0.658587,1.03591 1.000083,1.71936 0.684551,1.3701 5.119383,5.98014 6.587637,6.84744 0.870632,0.51431 0.952717,0.73279 1.288395,3.39219 0.488162,3.86742 1.677874,6.20652 4.676066,9.19744 2.125054,2.11993 2.303716,2.40041 2.476183,3.89822 0.102187,0.8875 0.519037,2.32294 0.926503,3.19097 0.8875,1.89064 3.461893,4.49667 5.39985,5.46441 0.771694,0.38536 1.613799,0.87326 1.871028,1.08568 0.257219,0.21235 1.730158,0.76182 3.273546,1.21932 1.543384,0.4575 3.034194,0.95217 3.312588,1.09918 1.547988,0.81743 14.384201,1.17669 16.252106,0.455 0.89123,-0.34432 0.651092,0.57471 -0.415951,1.59022 -1.859047,1.7693 -1.907954,2.84378 -0.178679,3.89822 1.205105,0.73496 0.885228,0.74489 3.512303,-0.11567 2.603089,-0.85267 4.431721,-1.93755 7.243849,-4.29765 2.816292,-2.36358 4.73394,-4.68262 6.07408,-7.34448 0.616732,-1.22496 1.603998,-2.62749 2.192375,-3.11736 1.344866,-1.11979 3.190459,-3.5394 3.982315,-5.21816 1.749953,-3.70997 2.836896,-5.42096 5.101025,-8.03219 1.36915,-1.57905 2.84992,-3.44239 3.29007,-4.14151 0.93641,-1.48741 4.04238,-7.78474 4.04238,-8.19587 0,-0.15468 0.99505,-1.32583 2.21039,-2.60233 6.602,-6.93414 10.42217,-13.55333 11.08651,-19.20578 0.1089,-0.92667 0.31819,-1.75907 0.4655,-1.85001 0.34928,-0.21601 0.34928,-5.838 0,-6.22426 -0.14731,-0.16301 -0.42959,-1.13705 -0.62768,-2.16383 -0.38133,-1.97657 -2.67971,-6.79866 -4.05289,-8.50222 -2.49619,-3.0968 -6.54331,-6.6936 -9.73504,-8.65088 -4.57394,-2.80487 -6.48605,-3.86105 -7.608747,-4.20604 -0.685947,-0.21068 -1.528049,-0.55854 -1.871025,-0.77183 -0.342975,-0.21335 -1.729734,-0.76979 -3.081338,-1.23585 -1.35161,-0.46607 -2.685205,-0.97031 -2.962709,-1.12172 -0.27752,-0.15134 -1.836626,-0.56734 -3.465756,-0.9235 -1.629128,-0.35616 -3.24291,-0.78593 -3.585886,-0.95504 -1.057655,-0.52184 -6.000247,-1.22946 -7.861015,-1.19229 z m -13.736883,35.97749 c 6.847676,-0.0167 14.323756,0.40633 15.034289,1.10669 0.162912,0.16067 0.565355,0.29268 0.893466,0.29268 1.138831,0 5.938969,1.29377 7.048638,1.89955 0.613659,0.33505 1.746536,0.88793 2.518226,1.22835 5.736758,2.53046 11.101525,7.17463 12.412446,10.74713 0.18878,0.51444 0.49943,1.54788 0.69075,2.296 0.31742,1.24126 0.28662,1.42434 -0.35589,2.10826 -0.38722,0.41216 -1.34418,1.11702 -2.1263,1.56622 -0.782114,0.4492 -1.705383,1.07241 -2.051222,1.3845 -0.345839,0.31202 -1.301026,0.92403 -2.121797,1.36047 -1.837489,0.9769 -2.71347,0.9991 -3.851675,0.093 -2.566806,-2.04308 -7.385273,-4.4916 -10.545923,-5.35779 -1.028923,-0.28202 -2.151229,-0.63732 -2.494201,-0.78986 -3.547406,-1.57812 -15.792829,-2.19116 -22.56945,-1.12925 -5.641501,0.8841 -11.886866,3.30151 -15.965297,6.17769 l -1.752399,1.23586 -1.214816,-0.62768 c -3.955864,-2.04099 -6.418063,-7.136 -5.432885,-11.2427 0.484253,-2.01858 2.776322,-4.44306 5.93593,-6.2798 4.627733,-2.6901 9.548629,-4.39979 15.899226,-5.52448 2.058102,-0.36449 5.94028,-0.53457 10.048884,-0.54507 z m 2.363561,22.49887 c 4.820343,0.072 10.330645,0.70578 12.531074,1.56318 0.257219,0.10034 1.532413,0.55994 2.835073,1.02261 3.302931,1.17312 5.44532,2.91162 4.390758,3.56336 -0.141577,0.0877 -2.421389,0.51391 -5.066488,0.94754 -2.645102,0.43357 -5.230764,0.91927 -5.745228,1.07965 -1.361891,0.4248 -6.490424,0.62111 -9.197461,0.35289 -11.002041,-1.09021 -17.295443,-2.04998 -19.461083,-2.97022 l -1.220824,-0.51807 0.908484,-0.73729 c 0.499674,-0.40513 1.75059,-1.03631 2.779512,-1.4025 1.028923,-0.36623 2.333033,-0.86593 2.896638,-1.10972 1.387566,-0.60008 5.390296,-1.27169 9.90623,-1.66379 1.305276,-0.11334 2.836533,-0.15168 4.443315,-0.12767 z m 25.156755,10.84023 c 0.08404,10e-4 0.143344,0.01 0.174179,0.03 0.415264,0.25668 0.367861,2.13862 -0.07807,3.11736 -0.205282,0.45053 -0.871321,1.06911 -1.480603,1.374 -2.141375,1.07155 -2.645916,1.05305 -4.230083,-0.15634 -0.800429,-0.61098 -1.789169,-1.2634 -2.196882,-1.44908 -0.407721,-0.18568 -0.67589,-0.44526 -0.594644,-0.57661 0.304289,-0.49237 7.145725,-2.35927 8.406108,-2.33954 z m -48.544592,0.48504 c 1.316339,-0.003 7.545675,1.34493 7.545675,1.63375 0,0.14235 -0.232617,0.34753 -0.516562,0.45651 -0.283954,0.109 -1.292682,0.66574 -2.241925,1.23732 -0.949247,0.57161 -1.842619,1.03914 -1.985152,1.03914 -0.540594,0 -3.016824,-2.56765 -3.3231,-3.44622 -0.302756,-0.86843 -0.274521,-0.9183 0.521064,-0.9205 z m 24.209228,5.40733 c 0.602368,-0.007 1.12138,0.01 1.522649,0.0557 5.946534,0.66559 10.439943,1.89885 9.674979,2.6564 -0.146944,0.14535 -1.457004,0.41303 -2.910152,0.59465 -3.058339,0.38189 -15.003716,0.37346 -18.331859,-0.0133 -2.438814,-0.28369 -3.749518,-0.78086 -3.28556,-1.24482 0.798646,-0.79866 9.113351,-2.00079 13.329943,-2.04822 z m 57.419203,0.66975 c -0.4673,-0.062 -1.64685,0.52344 -2.97022,1.49561 -0.41538,0.30503 -1.3264,0.83913 -2.0257,1.18779 -2.00686,1.00064 -3.95078,2.08989 -4.66705,2.61433 -0.36216,0.26502 -1.42939,0.89206 -2.37257,1.3935 -0.94318,0.50151 -2.55696,1.3592 -3.58588,1.90708 -1.02892,0.5479 -1.94145,1.10104 -2.0272,1.22832 -0.0857,0.12734 -0.99677,0.67355 -2.02569,1.21482 -2.79236,1.46895 -4.550064,2.47449 -5.042467,2.88312 -0.241884,0.20068 -1.101028,0.69808 -1.908568,1.10671 -0.807536,0.4086 -2.520469,1.3635 -3.806621,2.12179 -1.286155,0.75829 -2.79503,1.59705 -3.353135,1.86354 -0.558101,0.26635 -1.750833,0.9441 -2.650369,1.50611 -0.899537,0.56201 -1.985897,1.20329 -2.414616,1.42354 -0.428718,0.22035 -1.570723,0.845 -2.537751,1.389 -0.967021,0.54408 -2.721658,1.52342 -3.898225,2.17586 -1.176564,0.65245 -2.980417,1.66493 -4.009343,2.24944 -1.028923,0.58454 -2.52286,1.41337 -3.320096,1.8425 -0.797242,0.42913 -2.080574,1.20652 -2.851588,1.72686 -0.771017,0.52037 -1.562089,0.94604 -1.758406,0.94604 -0.371491,0 -1.383793,-0.51997 -4.54242,-2.33354 -1.028923,-0.59078 -2.641205,-1.50371 -3.584382,-2.02868 -0.943183,-0.52501 -2.697813,-1.57735 -3.898225,-2.33954 -1.200409,-0.76219 -2.463565,-1.51785 -2.806541,-1.67883 -0.342972,-0.16101 -1.815904,-1.00381 -3.273545,-1.8725 -1.457642,-0.8687 -3.561399,-2.08046 -4.676066,-2.69244 -6.166226,-3.38535 -11.024986,-6.11762 -15.062818,-8.47369 -1.233448,-0.71969 -2.958884,-1.70266 -3.833653,-2.18336 -0.874769,-0.48067 -2.557474,-1.40614 -3.740552,-2.05722 -1.183077,-0.65105 -2.923509,-1.66719 -3.866688,-2.25693 -0.943181,-0.58975 -2.448597,-1.43331 -3.345625,-1.87554 -0.897028,-0.44224 -1.713221,-0.93767 -1.813965,-1.10068 -0.22015,-0.35623 -2.224815,-1.22233 -2.8290631,-1.22233 -0.3588599,0 -0.4294685,2.41335 -0.4294685,14.64985 v 14.64839 l 1.4806066,0.79886 c 0.814563,0.43933 2.322705,1.29933 3.351629,1.91157 2.491047,1.48214 4.562527,2.66783 7.0156,4.01533 1.114667,0.61235 3.008651,1.68526 4.20906,2.38461 1.200411,0.69935 2.955043,1.67916 3.898223,2.17736 0.943181,0.49821 2.486537,1.38597 3.429715,1.97161 0.943181,0.58565 2.534651,1.52632 3.536332,2.09179 1.001682,0.56548 2.194411,1.24499 2.650371,1.50911 0.455959,0.26402 2.199579,1.2455 3.875699,2.18187 7.113724,3.97419 12.728153,7.17166 13.945606,7.94212 1.177771,0.74532 3.373256,1.99398 5.613082,3.19247 0.771694,0.41293 2.098472,1.15008 2.949195,1.63825 1.473086,0.8453 1.598305,0.86553 2.638358,0.43097 0.600642,-0.25102 1.308697,-0.64565 1.572203,-0.87694 0.26352,-0.23135 1.321122,-0.86966 2.350048,-1.41753 1.028922,-0.54794 2.513076,-1.37011 3.29907,-1.82751 0.785999,-0.45736 2.049152,-1.17475 2.806541,-1.59471 0.75739,-0.41997 1.749933,-0.98198 2.20589,-1.24786 0.455964,-0.26602 1.648692,-0.94677 2.650373,-1.51365 1.001681,-0.56684 2.522727,-1.44244 3.380164,-1.94611 0.857436,-0.50364 2.471219,-1.4172 3.585882,-2.02868 1.114669,-0.61148 2.938227,-1.65616 4.052893,-2.32301 1.114666,-0.66688 2.869299,-1.65219 3.898222,-2.18939 1.028922,-0.53718 2.641204,-1.44568 3.584384,-2.01819 2.37408,-1.44104 6.14522,-3.57046 7.63877,-4.31415 0.68595,-0.34156 1.471,-0.81019 1.74339,-1.04064 0.27239,-0.23035 1.21188,-0.80326 2.08876,-1.27336 4.56887,-2.44932 5.55081,-2.99652 6.28281,-3.49579 1.66344,-1.13466 2.6565,-1.74947 4.04387,-2.50472 l 1.43106,-0.77936 0.0811,-14.47867 c 0.0477,-8.51637 -0.037,-14.59818 -0.20571,-14.76699 -0.0361,-0.036 -0.0879,-0.0587 -0.15468,-0.0677 z m -41.396844,8.11177 c 0.295555,0.29569 -3.139846,2.09786 -5.09202,2.6714 -1.200409,0.35272 -2.743767,0.86039 -3.429714,1.12771 -1.413941,0.55078 -11.409351,0.86154 -13.875033,0.43097 -3.95321,-0.69028 -9.353633,-2.88668 -9.353633,-3.80361 0,-0.3429 -0.172512,-0.3515 3.545343,0.19068 8.38131,1.22222 16.89397,1.17028 24.665718,-0.15002 1.88328,-0.32002 3.475961,-0.53037 3.539339,-0.46703 z"
       inkscape:connector-curvature="0" />
    <path
       id="path77"
       style="fill:#ffffff;stroke-width:0.311795"
       d="m 276.975,291.1682 c -3.73233,10e-4 -7.46391,0.12601 -7.97771,0.37383 -0.41181,0.19868 -2.25922,0.64821 -4.10686,1.00087 -1.84763,0.35263 -3.81206,0.85336 -4.36526,1.11285 -0.55317,0.25935 -1.90968,0.76086 -3.01467,1.11111 -1.105,0.3503 -2.22927,0.82187 -2.49616,1.04912 -0.26689,0.22701 -1.11464,0.65614 -1.88633,0.95437 -0.77169,0.29802 -1.61361,0.71978 -1.87083,0.93713 -0.25725,0.21735 -1.10085,0.72979 -1.87254,1.13869 -0.7717,0.40883 -1.84885,1.09684 -2.39453,1.52801 -0.54568,0.4312 -1.66393,1.27406 -2.4841,1.87427 -1.78631,1.30723 -7.95688,7.47685 -9.39546,9.39376 -0.56273,0.74983 -1.34862,1.78527 -1.74852,2.29977 -0.3999,0.51444 -1.04727,1.56599 -1.43671,2.33768 -0.38945,0.77172 -0.81223,1.47327 -0.94058,1.55901 -0.46436,0.31036 -2.56964,4.56437 -3.14905,6.36357 -0.32629,1.01324 -0.74453,2.02292 -0.92852,2.24464 -0.38579,0.46486 -1.36473,4.22904 -1.69512,6.51514 -0.12394,0.8574 -0.34767,1.711 -0.49613,1.89841 -0.39965,0.50441 -0.88624,5.72689 -0.89234,9.57118 -0.006,3.6675 0.51991,9.23091 0.91991,9.72965 0.13795,0.17201 0.352,0.9441 0.47373,1.71579 0.31802,2.01619 1.3976,6.00525 1.73646,6.41354 0.15867,0.19135 0.57213,1.23373 0.91819,2.31698 0.34605,1.08321 0.79031,2.16432 0.98709,2.40141 0.19678,0.23701 0.69558,1.15882 1.10768,2.04828 0.4121,0.8895 0.86089,1.69003 0.99915,1.7795 0.13824,0.0897 0.55946,0.76749 0.93369,1.50561 0.64627,1.27463 1.97036,3.21144 3.52631,5.15255 0.99209,1.23769 7.7798,7.98392 9.06128,9.00613 1.54054,1.22883 4.21785,3.00309 5.83297,3.86569 0.7717,0.41216 1.61533,0.87896 1.87256,1.03878 1.02538,0.63721 5.86367,2.82347 6.24986,2.82347 0.22655,0 0.98238,0.27269 1.67961,0.60465 1.73161,0.82449 4.44258,1.47724 7.97254,1.9242 1.62913,0.20635 3.09296,0.49471 3.25585,0.63912 v -0.002 c 0.39854,0.3537 10.6381,0.33626 11.32315,-0.0167 0.29779,-0.15435 1.8055,-0.44157 3.34888,-0.63742 2.95768,-0.37516 6.64421,-1.18222 7.16977,-1.57108 0.17148,-0.12701 1.15371,-0.48614 2.18263,-0.79759 1.02893,-0.31136 2.20605,-0.82116 2.61503,-1.13352 0.40897,-0.31236 0.97023,-0.57081 1.24721,-0.57364 0.27699,-0.003 1.06429,-0.34569 1.75023,-0.76142 0.68596,-0.41577 1.98308,-1.12472 2.88377,-1.57625 0.9007,-0.45147 1.8184,-0.99831 2.0362,-1.21623 0.21778,-0.21768 0.95269,-0.77292 1.63482,-1.23342 4.93666,-3.33262 7.67343,-6.02288 12.62032,-12.40325 1.87829,-2.42262 5.92428,-9.8652 5.92428,-10.89764 0,-0.55681 -0.29642,-0.59088 -5.00265,-0.59088 h -5.00438 l -0.52886,0.9595 c -0.93335,1.68923 -3.12872,5.09028 -3.86913,5.99491 -1.16032,1.41768 -8.10927,8.32225 -8.37564,8.32225 -0.13428,0 -0.64016,0.32903 -1.12491,0.73216 -0.48474,0.40299 -1.56508,1.11231 -2.39968,1.57451 -0.83461,0.46224 -1.7213,1.04268 -1.97075,1.292 -0.24945,0.24968 -0.58411,0.4548 -0.74419,0.4548 -0.16008,0 -1.02649,0.36299 -1.92595,0.80619 -0.89946,0.44324 -2.82838,1.15069 -4.28602,1.57109 -1.45763,0.42043 -2.93011,0.89393 -3.27308,1.05257 -2.37084,1.09728 -11.44725,1.53608 -16.87533,0.81653 -2.07913,-0.27569 -4.18562,-0.71095 -4.67878,-0.96814 -0.49317,-0.25702 -1.06747,-0.46937 -1.27822,-0.4703 -0.71948,-0.003 -4.60567,-1.35033 -5.09912,-1.76746 -0.27076,-0.22902 -0.63405,-0.41687 -0.80794,-0.41687 -0.17388,0 -0.93415,-0.34992 -1.68994,-0.77865 -0.7558,-0.4287 -1.79565,-0.98014 -2.31011,-1.22483 -0.51447,-0.24435 -1.69752,-1.01714 -2.6288,-1.71579 -0.93129,-0.69865 -1.78542,-1.2696 -1.89839,-1.2696 -0.11298,0 -1.80555,-1.60885 -3.76232,-3.57456 -3.28743,-3.30245 -6.20852,-6.86328 -6.20852,-7.56943 0,-0.16268 -0.26455,-0.5347 -0.58744,-0.82689 -0.32289,-0.29202 -0.83273,-1.19212 -1.13352,-1.99828 -0.30079,-0.80616 -0.73925,-1.68589 -0.97331,-1.95698 -0.23405,-0.27102 -0.78779,-1.53562 -1.23171,-2.80794 -0.44391,-1.27233 -0.92284,-2.45222 -1.0629,-2.62366 -0.14007,-0.17168 -0.57191,-2.13593 -0.96125,-4.36526 -0.95571,-5.47234 -0.96076,-12.43719 -0.0103,-17.74355 0.36582,-2.04241 0.79714,-3.87058 0.95609,-4.06206 0.15894,-0.19168 0.64283,-1.39724 1.07667,-2.67877 1.38164,-4.08137 3.67113,-8.09906 6.77873,-11.89678 1.97971,-2.41934 5.92654,-6.27473 7.5591,-7.38338 5.06061,-3.43662 8.50741,-5.26165 11.88301,-6.29123 1.20041,-0.36613 2.4249,-0.79313 2.72182,-0.9492 2.54369,-1.3374 14.01407,-1.7918 20.03816,-0.79413 1.88635,0.31236 3.58099,0.69242 3.76577,0.8441 0.18478,0.15167 1.238,0.55304 2.33939,0.89406 2.2923,0.70976 10.02929,4.64495 10.73055,5.45744 0.17291,0.20035 0.83626,0.70779 1.47461,1.12662 0.63834,0.41879 2.53348,2.17469 4.21022,3.90359 3.0571,3.15213 3.80025,4.02743 5.15079,6.05521 l 0.72697,1.09218 4.96303,0.0843 c 2.73035,0.0473 5.1419,0.02 5.35752,-0.062 0.51677,-0.19835 -0.015,-1.48275 -1.82259,-4.398 -1.84909,-2.98265 -2.26178,-3.54222 -4.89068,-6.64092 -3.72759,-4.39383 -8.71937,-8.66348 -12.82876,-10.97001 -4.27933,-2.40188 -6.52753,-3.5148 -8.26195,-4.08961 -1.02892,-0.34102 -2.2247,-0.81006 -2.65464,-1.04224 -0.42994,-0.23235 -2.39438,-0.72975 -4.36526,-1.10595 -1.97088,-0.37623 -3.92073,-0.84433 -4.33253,-1.04047 -0.51994,-0.24702 -4.25227,-0.3682 -7.9846,-0.36696 z m 139.76754,2.03622 -36.83082,0.0793 -36.83251,0.081 -0.0792,50.97567 c -0.0439,28.03818 -0.012,51.15685 0.0706,51.37364 0.12061,0.30802 2.21043,0.37796 9.58842,0.31335 l 9.44027,-0.0827 0.15501,-21.67127 0.15667,-21.66954 14.96491,-0.15501 14.96658,-0.15668 v -9.82102 -9.82096 l -14.96658,-0.15668 -14.96491,-0.15668 v -9.19738 -9.19735 l 15.747,-0.15667 15.7435,-0.15502 0.0827,-9.27658 c 0.0913,-10.25429 0.21435,-10.78253 1.77607,-7.63837 0.44723,0.9003 1.43561,2.68983 2.19469,3.97596 0.75906,1.28616 1.59746,2.79418 1.86394,3.35232 0.26669,0.55807 0.93884,1.75276 1.49355,2.65463 1.20135,1.95321 1.79046,2.97852 2.90614,5.06124 0.45931,0.85743 0.93937,1.62835 1.06635,1.71406 0.12701,0.0857 0.66875,0.99864 1.20589,2.02758 1.00241,1.92018 1.81473,3.36598 4.0362,7.1715 0.70075,1.20039 1.70366,3.01642 2.22743,4.03623 0.52377,1.01981 1.06525,1.93111 1.20416,2.02585 0.13867,0.0947 0.58341,0.87383 0.9871,1.7313 0.40363,0.85743 0.99431,1.8999 1.31267,2.31527 0.31835,0.41539 0.85679,1.3266 1.19725,2.02588 0.34046,0.69929 1.09405,2.04395 1.67446,2.98712 0.58037,0.94317 1.4334,2.43035 1.89494,3.30581 l 0.83893,1.59175 -0.88547,1.63999 c -0.48707,0.90154 -1.26999,2.35928 -1.73989,3.24034 -0.46991,0.88103 -1.07942,1.91088 -1.35574,2.2877 -0.27602,0.37683 -0.73365,1.10575 -1.01637,1.62106 -0.28302,0.51534 -1.12962,2.03238 -1.88118,3.36955 -0.75152,1.3372 -1.69369,3.04339 -2.09478,3.79161 -0.40107,0.74826 -0.8863,1.54822 -1.07838,1.77953 -0.19202,0.23135 -0.8225,1.30413 -1.39881,2.38245 -0.57631,1.07831 -1.50844,2.78133 -2.07412,3.78301 -0.56567,1.00167 -1.26672,2.2446 -1.55558,2.76487 -0.28902,0.52027 -1.02517,1.75716 -1.63652,2.74767 -0.61134,0.99044 -1.11112,1.94424 -1.11112,2.12062 0,0.17635 -0.19634,0.51821 -0.43583,0.75796 -0.23968,0.23968 -0.87986,1.26676 -1.42124,2.28257 -0.54137,1.01574 -1.55308,2.82891 -2.24806,4.02933 -1.75367,3.02889 -2.67103,4.66004 -3.94666,7.01472 -0.60388,1.11468 -1.19556,2.09692 -1.3144,2.18263 -0.11901,0.0857 -0.5347,0.78399 -0.92337,1.55041 -0.38869,0.76643 -0.9882,1.77327 -1.3316,2.23777 -0.34352,0.46447 -0.5393,1.06541 -0.43586,1.33506 0.16634,0.43327 1.49298,0.48924 11.40068,0.48924 h 11.21289 l 0.96814,-1.43497 c 0.53251,-0.78903 1.32293,-2.08656 1.7554,-2.88378 0.4324,-0.79723 1.35806,-2.43102 2.05688,-3.63141 2.28617,-3.92722 3.04229,-5.27412 4.0328,-7.17149 0.53707,-1.02888 1.08201,-1.94185 1.20929,-2.02759 0.12734,-0.0857 0.67865,-0.99694 1.22656,-2.02585 2.35281,-4.41869 2.82387,-5.25062 3.24897,-5.72962 0.24702,-0.27835 0.68025,-0.99847 0.96124,-1.59865 1.01124,-2.1599 3.1433,-5.72829 3.48842,-5.83813 0.30936,-0.0983 1.02341,0.97874 2.93716,4.43589 0.28468,0.51447 1.09548,1.91761 1.80193,3.11803 0.70645,1.20039 1.60628,2.82024 2.00001,3.6004 0.39373,0.78016 1.03011,1.81694 1.41261,2.30321 0.38249,0.48623 0.69422,1.04417 0.69422,1.23859 0,0.19434 0.36362,0.88786 0.80796,1.54181 0.44436,0.65392 1.22305,1.98225 1.73126,2.95439 0.50823,0.97213 1.39783,2.54178 1.97421,3.48495 0.57638,0.94317 1.49051,2.58903 2.03275,3.65897 0.54224,1.06995 1.11752,2.02642 1.27823,2.1258 0.16068,0.0993 0.50734,0.69571 0.77002,1.32473 0.26269,0.62898 0.77573,1.46024 1.14042,1.84843 l 0.66322,0.70629 h 11.11815 c 6.11509,0 11.20076,-0.0827 11.30074,-0.18268 0.19768,-0.19768 -1.00148,-2.94632 -1.59862,-3.66584 -0.20335,-0.24502 -0.69399,-1.05884 -1.09218,-1.8071 -0.39823,-0.74819 -1.37187,-2.48345 -2.16196,-3.85532 -0.79009,-1.3719 -1.71056,-3.07309 -2.04655,-3.78301 -0.33603,-0.70995 -0.75359,-1.3803 -0.92851,-1.48838 -0.17501,-0.10801 -0.74278,-1.09455 -1.26099,-2.19126 -0.51817,-1.09675 -1.08378,-2.08055 -1.25756,-2.1878 -0.17368,-0.10734 -0.60501,-0.85226 -0.95954,-1.65375 -0.35452,-0.80146 -0.75552,-1.53095 -0.89063,-1.62275 -0.13534,-0.0917 -0.73979,-1.08002 -1.34366,-2.1947 -1.27567,-2.35467 -2.19473,-3.98586 -3.9484,-7.01475 -0.69498,-1.20042 -1.70672,-3.01356 -2.24806,-4.02933 -0.54134,-1.01578 -1.17979,-2.04456 -1.41951,-2.28427 -0.23968,-0.23969 -0.43583,-0.58185 -0.43583,-0.76143 0,-0.17968 -0.52661,-1.18492 -1.16969,-2.23429 -0.64308,-1.04938 -1.34796,-2.26184 -1.56765,-2.69254 -0.22001,-0.4307 -0.95373,-1.69332 -1.62965,-2.80797 -0.67592,-1.11468 -1.66642,-2.90432 -2.20156,-3.97593 -0.53514,-1.07161 -1.10038,-2.02615 -1.25583,-2.12232 -0.38503,-0.23802 -0.35833,-1.61329 0.0363,-1.85707 0.17534,-0.10835 0.73892,-0.99371 1.25236,-1.96728 0.51347,-0.97357 1.4228,-2.6111 2.02071,-3.64001 0.59795,-1.02894 1.51565,-2.64346 2.03965,-3.58663 0.52404,-0.94317 1.49865,-2.62696 2.1654,-3.74164 0.66675,-1.11468 1.65005,-2.90072 2.18436,-3.96903 0.5343,-1.06834 1.11531,-2.02975 1.29026,-2.13786 0.17501,-0.108 0.59008,-0.77842 0.9251,-1.48837 0.33503,-0.70992 1.3068,-2.48385 2.1585,-3.94149 0.85169,-1.45768 1.83353,-3.24044 2.18092,-3.96216 0.3474,-0.72172 0.76973,-1.39757 0.93884,-1.50218 0.16935,-0.10468 0.51694,-0.63785 0.77176,-1.18346 0.25502,-0.5456 1.15918,-2.18239 2.01208,-3.64003 0.85293,-1.45764 1.83187,-3.22324 2.17403,-3.92253 0.34219,-0.69928 0.88229,-1.61045 1.20072,-2.02585 0.31836,-0.41536 0.909,-1.45784 1.31266,-2.31527 0.40367,-0.85746 0.83123,-1.63005 0.94921,-1.71579 0.118,-0.0857 0.58801,-0.8946 1.04391,-1.79847 0.61628,-1.22159 0.72442,-1.68112 0.42723,-1.79503 -0.22002,-0.083 -5.44744,-0.11734 -11.61773,-0.0723 l -11.21806,0.0827 -1.15245,2.02585 c -0.63375,1.11469 -1.53782,2.79851 -2.00692,3.74168 -0.46907,0.94317 -0.9682,1.79333 -1.10941,1.88804 -0.14135,0.0947 -0.68469,1.00434 -1.20759,2.02415 -0.52291,1.01981 -1.57639,2.90682 -2.34284,4.19298 -0.76646,1.28613 -1.60052,2.78604 -1.85361,3.33164 -0.25302,0.54561 -0.59207,1.07205 -0.75279,1.17142 -0.16068,0.0993 -0.73748,1.05762 -1.28169,2.12753 -0.54417,1.06998 -1.53615,2.85608 -2.2033,3.97076 -0.66718,1.11465 -1.38363,2.41388 -1.59518,2.88548 -0.21135,0.4716 -0.55508,0.85616 -0.76316,0.85616 -0.40046,0 -1.25369,-1.09911 -2.05342,-2.64946 -0.64691,-1.25413 -2.51082,-4.52904 -3.99489,-7.01645 -0.66505,-1.11469 -1.48385,-2.60623 -1.81914,-3.31615 -0.33526,-0.70995 -0.75189,-1.38033 -0.9268,-1.48841 -0.17501,-0.10801 -0.75599,-1.06951 -1.29026,-2.13782 -0.53434,-1.06832 -1.51985,-2.85438 -2.19126,-3.96906 -0.67145,-1.11469 -1.61306,-2.79991 -2.09306,-3.74508 -0.48,-0.94517 -1.27453,-2.24367 -1.76403,-2.88548 z m -244.80766,0.15834 -15.6195,0.002 -0.081,50.97568 c -0.0441,28.03817 -0.0127,51.15855 0.0706,51.37706 0.11584,0.30603 1.33864,0.37743 5.2266,0.31169 l 5.07156,-0.0843 0.15674,-14.34469 0.15678,-14.34129 10.13277,-0.19802 c 9.72084,-0.18968 15.34457,-0.70035 16.34991,-1.48494 0.18185,-0.14201 1.17266,-0.50981 2.20158,-0.81826 1.02893,-0.30836 2.08217,-0.73509 2.33939,-0.94574 0.25722,-0.21068 1.23772,-0.70532 2.18091,-1.09908 0.94318,-0.39373 2.11133,-1.03988 2.59607,-1.43671 0.48474,-0.39686 1.0068,-0.72008 1.15936,-0.72008 0.26368,0 0.69457,-0.35566 3.97766,-3.27481 1.43326,-1.2744 4.77791,-5.29323 5.7434,-6.90101 0.29519,-0.49157 0.67864,-1.10379 0.851,-1.36094 0.57382,-0.85649 3.1334,-6.50608 3.13527,-6.91998 7.7e-4,-0.22435 0.21591,-0.81682 0.47717,-1.31783 1.79294,-3.43812 1.99133,-15.92911 0.31699,-19.97961 -0.21264,-0.51447 -0.64476,-1.7773 -0.95952,-2.80624 -0.31479,-1.02891 -0.73274,-2.08222 -0.93025,-2.33937 -0.19752,-0.25736 -0.66151,-1.18576 -1.02844,-2.06379 -1.19769,-2.86594 -3.6213,-6.32223 -6.60991,-9.42646 -1.84071,-1.91198 -6.68316,-5.65726 -7.31447,-5.65726 -0.21058,0 -0.70705,-0.28235 -1.10251,-0.62534 -0.39546,-0.34286 -0.83757,-0.62361 -0.98365,-0.62361 -0.14608,0 -1.00236,-0.3638 -1.90183,-0.80793 -2.06179,-1.01801 -5.00133,-1.88814 -7.32139,-2.16886 -0.98752,-0.11934 -1.99205,-0.37523 -2.23259,-0.56848 -0.31129,-0.25002 -4.94183,-0.35142 -16.05878,-0.35142 z m 4.4445,9.55914 v 0.002 c 6.03579,0.02 11.63064,0.38136 13.60914,0.913 0.68594,0.18435 1.97806,0.67492 2.86997,1.09045 0.89191,0.41549 1.94344,0.89833 2.33768,1.07151 2.51168,1.10411 5.05248,2.95478 7.31964,5.33513 1.54927,1.62658 4.14642,5.23198 4.15164,5.76236 0.002,0.19134 0.26719,0.68411 0.59089,1.09561 0.69229,0.88013 1.78568,4.41239 2.08787,6.7477 0.11701,0.90417 0.33518,1.71843 0.48408,1.81053 0.35624,0.22002 0.34964,6.59119 -0.007,6.81148 -0.15145,0.0937 -0.37094,0.94627 -0.48924,1.8932 -0.26619,2.13043 -1.26189,5.67415 -1.76402,6.27917 -0.20575,0.24801 -0.70451,1.11151 -1.10768,1.91904 -1.27938,2.56252 -3.7452,5.58615 -6.02764,7.39201 -2.82852,2.2379 -3.2616,2.53222 -4.36698,2.95782 -0.60022,0.23102 -1.3153,0.61165 -1.59175,0.84586 -0.80552,0.68232 -5.32138,1.93318 -7.04231,1.95351 -0.54575,0.007 -1.07722,0.15102 -1.1852,0.32203 -0.30579,0.49484 -19.15445,0.42103 -19.34391,-0.0757 -0.0818,-0.21435 -0.11321,-12.45833 -0.0689,-27.20622 l 0.081,-26.81341 6.85796,-0.093 c 0.87102,-0.0133 1.74243,-0.0133 2.60468,-0.0133 z m 147.80726,29.63173 c -2.65825,0.01 -4.59723,0.077 -4.70118,0.18101 -0.13885,0.13868 -0.0435,1.43814 0.21188,2.88891 0.25538,1.45078 0.46489,3.15697 0.46513,3.78992 2.2e-4,0.63294 0.14207,1.23759 0.31352,1.34366 0.38481,0.23769 0.41929,7.08386 0.0379,7.49883 -0.33042,0.35939 -0.68821,3.75284 -0.42377,4.01726 0.10354,0.10367 3.35356,0.15101 7.22317,0.10501 l 7.03713,-0.0843 v -9.8227 -9.82096 l -7.3059,-0.0827 c -1.00453,-0.01 -1.97183,-0.0167 -2.85791,-0.0133 z"
       inkscape:connector-curvature="0" />
    <path
       id="path77-3"
       style="fill:#000080;stroke-width:0.311795"
       d="m 66.823499,272.53959 c -2.545108,-0.02 -4.986902,1.93287 -4.986902,4.63401 0,1.51704 1.366848,3.72394 2.584301,4.17004 1.217543,0.446 2.733022,0.40946 3.935761,-0.093 1.413198,-0.59048 2.97172,-2.76134 2.97172,-4.14001 0,-1.21085 -1.073109,-3.2637 -2.012179,-3.85015 -0.784551,-0.48997 -1.644331,-0.71438 -2.492701,-0.72078 z m 10.206559,2.64586 c -0.26582,0.007 -0.468938,0.0267 -0.588641,0.0647 -1.307623,0.41953 -1.957668,1.08981 -2.174354,2.24493 -0.414057,2.20713 1.064809,3.1055 6.881956,4.18205 2.057846,0.38082 4.022254,0.80899 4.36523,0.9505 0.342975,0.14168 1.676554,0.49227 2.962709,0.77936 1.286152,0.28702 2.899938,0.78202 3.585885,1.10068 0.685951,0.31869 2.006802,0.87553 2.935681,1.23736 3.690713,1.43757 7.022486,3.2499 11.146576,6.06205 0.48606,0.33135 2.26415,2.00244 3.95228,3.71354 2.41347,2.44624 3.34089,3.64933 4.3397,5.63258 l 1.27037,2.52275 0.0257,3.89673 c 0.024,3.66953 -0.0358,4.06713 -1.0196,6.79636 -1.3304,3.69084 -4.14922,8.30229 -6.1867,10.11945 -0.58505,0.52164 -0.63827,0.51488 -1.24635,-0.15634 -0.34942,-0.38556 -1.03573,-1.4025 -1.52565,-2.25994 -1.19734,-2.09552 -6.729395,-7.59419 -8.859599,-8.80555 -3.040795,-1.72916 -7.904122,-4.04666 -9.665972,-4.60697 -0.94318,-0.30002 -1.854221,-0.65122 -2.025693,-0.77936 -0.383455,-0.28669 -5.35753,-1.43614 -7.484111,-1.72986 -0.857433,-0.11834 -1.699522,-0.32102 -1.871025,-0.4505 -0.583473,-0.44003 -6.328741,-0.9338 -10.810213,-0.928 -7.895908,0.01 -11.189071,0.40836 -18.965543,2.302 -7.103883,1.72986 -12.97076,4.76059 -16.863269,8.71091 -2.774185,2.81544 -4.033003,5.34457 -4.245099,8.52327 -0.414636,6.21412 1.810744,10.32406 8.870109,16.37974 1.221478,1.04781 1.325936,1.2557 1.325936,2.65337 0,1.77743 0.782068,5.00777 1.378494,5.69115 0.22887,0.26235 0.643708,0.92653 0.921999,1.47611 0.278287,0.54954 1.487884,1.96624 2.687911,3.1474 2.021528,1.98971 2.181864,2.24366 2.181864,3.47026 0,2.95141 2.985881,7.15466 6.236256,8.77851 0.771694,0.38553 1.613803,0.87477 1.871028,1.08718 0.257219,0.21235 1.730162,0.76032 3.273546,1.21783 1.543387,0.4575 3.034211,0.95213 3.312588,1.09918 1.552445,0.81976 14.390005,1.16905 16.282138,0.443 0.861904,-0.33069 0.601008,0.60574 -0.445983,1.60221 -1.859047,1.7693 -1.907954,2.84378 -0.178679,3.89823 1.205105,0.73495 0.885228,0.74639 3.512303,-0.11401 2.603089,-0.85267 4.431721,-1.93905 7.243849,-4.29915 2.816288,-2.36358 4.733944,-4.68112 6.07408,-7.34298 0.616735,-1.22496 1.602498,-2.62899 2.190875,-3.11886 1.344859,-1.11979 3.191963,-3.5379 3.983815,-5.21666 1.749959,-3.70997 2.836896,-5.42096 5.101025,-8.03219 1.36914,-1.57905 2.84992,-3.44389 3.29007,-4.14301 0.98124,-1.55861 4.04238,-7.79347 4.04238,-8.23341 0,-0.17534 1.21108,-1.58878 2.69091,-3.1414 1.47982,-1.55268 3.02154,-3.28207 3.42671,-3.84268 0.40517,-0.56054 0.95416,-1.2998 1.21932,-1.64276 3.15751,-4.0841 5.50333,-9.25855 5.95996,-13.14373 0.1089,-0.92667 0.31819,-1.75907 0.4655,-1.85001 0.34928,-0.21601 0.34928,-5.838 0,-6.22426 -0.14731,-0.16301 -0.42959,-1.13555 -0.62768,-2.16233 -0.38133,-1.97657 -2.67971,-6.80016 -4.05289,-8.50372 -2.49619,-3.0968 -6.5433,-6.6921 -9.73504,-8.64938 -4.57394,-2.80487 -6.48755,-3.86255 -7.610247,-4.20754 -0.68595,-0.21068 -1.526556,-0.55704 -1.869525,-0.77033 -0.342978,-0.21335 -1.729731,-0.76979 -3.081338,-1.23585 -1.35161,-0.46607 -2.685205,-0.97181 -2.962709,-1.12322 -0.27752,-0.15135 -1.836629,-0.56584 -3.465756,-0.922 -1.629134,-0.35616 -3.24291,-0.78593 -3.585886,-0.95504 -1.057655,-0.52184 -6.000247,-1.22946 -7.861015,-1.19229 z M 61.934204,311.0428 c 6.937927,-0.0397 15.656212,0.51311 16.39326,1.23133 0.162912,0.15868 0.565355,0.28835 0.893466,0.28835 1.138831,0 5.938969,1.29376 7.048638,1.89954 0.613659,0.33506 1.746543,0.88793 2.518226,1.22836 5.736758,2.53045 11.101528,7.17463 12.412446,10.74713 0.18878,0.51444 0.49943,1.54788 0.69075,2.296 0.31742,1.24126 0.28662,1.42584 -0.35589,2.10976 -0.38722,0.41216 -1.34418,1.11701 -2.1263,1.56621 -0.782108,0.4492 -1.705386,1.07092 -2.051222,1.38301 -0.345845,0.31202 -1.301029,0.92553 -2.121797,1.36196 -1.837489,0.97691 -2.713477,0.99761 -3.851675,0.0917 -2.566816,-2.04309 -7.385269,-4.4916 -10.545923,-5.3578 -1.028923,-0.28202 -2.15273,-0.63731 -2.495705,-0.78986 -3.364649,-1.49681 -14.450169,-2.06322 -21.707516,-1.10971 -6.027566,0.79195 -12.511412,3.2202 -16.836239,6.30683 -1.682801,1.20102 -1.803047,1.21752 -3.326103,0.43246 -1.284967,-0.66231 -2.6455,-2.03938 -3.8772,-3.92525 -2.008141,-3.07466 -2.000995,-7.41535 0.015,-9.97831 1.223922,-1.55595 5.528962,-4.37659 9.253024,-6.06358 3.027734,-1.3715 9.692111,-3.01169 14.088263,-3.46572 1.555522,-0.16068 3.669838,-0.23902 5.982479,-0.25235 z m 1.878532,22.56194 c 1.965766,-0.01 3.995503,0.086 6.093601,0.28669 4.769423,0.45613 6.916325,0.80149 8.281473,1.33343 0.257219,0.10034 1.532413,0.56144 2.835073,1.02411 3.301708,1.17268 5.44452,2.91061 4.390758,3.56186 -0.14111,0.0873 -2.420945,0.51514 -5.066488,0.95204 -2.645546,0.4369 -5.230764,0.92367 -5.745228,1.08118 -2.935041,0.89783 -12.491125,0.39306 -23.541002,-1.24336 -2.69568,-0.39923 -6.24221,-1.53898 -6.222741,-2.00018 0.03715,-0.88557 5.660103,-3.25818 9.652458,-4.0724 2.946295,-0.60088 6.045827,-0.90777 9.322096,-0.92351 z m 26.994748,10.8928 c 0.08544,0.002 0.146077,0.0133 0.17868,0.0333 0.415267,0.25669 0.369367,2.14013 -0.07657,3.11886 -0.205282,0.45054 -0.871321,1.06762 -1.480606,1.37251 -2.140608,1.07124 -2.647532,1.05367 -4.228579,-0.15335 -0.798836,-0.60974 -1.79891,-1.24096 -2.223912,-1.4025 -0.425004,-0.16168 -0.694584,-0.42273 -0.597644,-0.57965 0.324724,-0.5254 7.146899,-2.42014 8.42863,-2.38907 z m -48.974057,0.27169 c 0.566623,0.0537 1.806655,0.26335 3.199967,0.54961 1.85775,0.38143 3.762995,0.75982 4.234586,0.84089 1.051458,0.18068 1.106025,0.62192 0.123143,0.99558 -0.40392,0.15368 -1.436163,0.71072 -2.294487,1.23886 -0.85833,0.5281 -1.804152,0.95953 -2.102277,0.95953 -1.128367,0 -4.124916,-3.94182 -3.483775,-4.58297 0.01997,-0.02 0.133977,-0.02 0.322851,-0.002 z m 23.536498,5.71069 c 2.767085,-0.01 5.513845,0.21935 7.79194,0.68625 3.220855,0.66005 5.022245,1.43517 4.51239,1.94011 -0.146944,0.14535 -1.455504,0.41303 -2.908652,0.59465 -1.45314,0.18134 -5.732584,0.30868 -9.509803,0.28535 -8.710361,-0.0563 -12.323849,-0.41213 -12.323849,-1.21332 0,-0.49364 1.014295,-0.84243 4.521398,-1.55719 2.362058,-0.48136 5.149491,-0.72712 7.916576,-0.73578 z m -55.6803182,0.77936 c -0.7523057,0.16868 -0.7207834,2.87638 -0.7207834,14.71742 v 14.45767 l 1.4806066,0.84993 c 0.814563,0.46723 2.322705,1.34797 3.351629,1.95661 2.600078,1.53808 4.64611,2.70623 7.0156,4.00783 1.114669,0.61235 3.00865,1.68526 4.20906,2.38461 1.200411,0.69935 2.955044,1.67916 3.898223,2.17736 0.943181,0.49821 2.486535,1.38594 3.429715,1.97161 0.943179,0.58565 2.486535,1.49922 3.429716,2.03022 6.621892,3.72818 9.57042,5.38053 10.855259,6.08608 1.110332,0.60975 4.713436,2.69897 5.670143,3.28705 0.519152,0.31902 3.447102,1.96538 5.27221,2.96422 0.648802,0.35506 1.868265,1.06061 2.708937,1.56771 0.840673,0.50707 1.879279,1.09858 2.308001,1.31393 0.428715,0.21535 1.339746,0.73482 2.025693,1.15472 0.685951,0.42003 1.388716,0.71929 1.560192,0.66525 0.202015,-0.064 0.310823,-5.24192 0.310823,-14.70695 v -14.60782 l -1.40252,-0.86193 c -0.771694,-0.4738 -1.964422,-1.14745 -2.650373,-1.49711 -0.685947,-0.34969 -2.25888,-1.23296 -3.495785,-1.96414 -1.236898,-0.73119 -3.902559,-2.29791 -5.923918,-3.48076 -2.021357,-1.18289 -4.518085,-2.6472 -5.547007,-3.25404 -1.028927,-0.60681 -2.572278,-1.47108 -3.429718,-1.92058 -0.857436,-0.44953 -1.909316,-1.04111 -2.338032,-1.31543 -1.066444,-0.68208 -3.826262,-2.21793 -6.080087,-3.38315 -2.094301,-1.08278 -3.037271,-1.60805 -5.300742,-2.95072 -1.78028,-1.05597 -2.352608,-1.38263 -5.45541,-3.10986 -1.232248,-0.68595 -2.613654,-1.46364 -3.069325,-1.72836 -0.455671,-0.26469 -1.919195,-1.10515 -3.252524,-1.86954 -2.119703,-1.21516 -4.834482,-2.78084 -7.815966,-4.50787 -0.45509,-0.26368 -0.7928653,-0.49013 -1.0436306,-0.43396 z m 72.4955352,7.91665 c 0.187648,-0.0167 0.299489,-0.0167 0.315357,0 0.295022,0.29502 -3.138799,2.09739 -5.09202,2.6729 -1.200409,0.35372 -2.74724,0.84309 -3.435721,1.08718 -0.688481,0.24402 -2.371185,0.5203 -3.740553,0.61418 -1.369365,0.0937 -2.910746,0.20835 -3.42521,0.25368 -1.266797,0.11168 -7.273995,-0.33102 -7.909069,-0.58261 -0.280287,-0.11101 -1.671054,-0.54037 -3.090345,-0.95503 -2.461589,-0.71916 -5.058981,-2.08663 -5.058981,-2.6639 0,-0.34289 -0.171046,-0.35299 3.546842,0.18935 8.381307,1.22222 16.89397,1.17028 24.665719,-0.15035 1.412461,-0.24002 2.661026,-0.4182 3.223995,-0.4655 z"
       inkscape:connector-curvature="0" />
  </g>
</svg>
