<?xml version="1.0" encoding="UTF-8" standalone="no"?>
<svg
   xmlns:dc="http://purl.org/dc/elements/1.1/"
   xmlns:cc="http://creativecommons.org/ns#"
   xmlns:rdf="http://www.w3.org/1999/02/22-rdf-syntax-ns#"
   xmlns:svg="http://www.w3.org/2000/svg"
   xmlns="http://www.w3.org/2000/svg"
   xmlns:sodipodi="http://sodipodi.sourceforge.net/DTD/sodipodi-0.dtd"
   xmlns:inkscape="http://www.inkscape.org/namespaces/inkscape"
   width="500"
   height="200"
   viewBox="0 0 500 200"
   version="1.1"
   id="svg147"
   sodipodi:docname="psp.svg"
   style="fill:none"
   inkscape:version="0.92.5 (2060ec1f9f, 2020-04-08)">
  <metadata
     id="metadata153">
    <rdf:RDF>
      <cc:Work
         rdf:about="">
        <dc:format>image/svg+xml</dc:format>
        <dc:type
           rdf:resource="http://purl.org/dc/dcmitype/StillImage" />
        <dc:title />
      </cc:Work>
    </rdf:RDF>
  </metadata>
  <defs
     id="defs151" />
  <sodipodi:namedview
     pagecolor="#ffffff"
     bordercolor="#666666"
     borderopacity="1"
     objecttolerance="10"
     gridtolerance="10"
     guidetolerance="10"
     inkscape:pageopacity="0"
     inkscape:pageshadow="2"
     inkscape:window-width="1366"
     inkscape:window-height="743"
     id="namedview149"
     showgrid="false"
     inkscape:pagecheckerboard="true"
     inkscape:zoom="1.0009811"
     inkscape:cx="120.49847"
     inkscape:cy="44.269322"
     inkscape:window-x="0"
     inkscape:window-y="0"
     inkscape:window-maximized="1"
     inkscape:current-layer="svg147" />
  <path
     d="M 1.0009801,139.52311 V 165.809 h 2.4645067 v -11.60875 h 5.6090065 c 4.8441037,0 10.1131297,-1.46125 10.1131297,-7.33364 0,-3.94381 -1.784645,-7.3435 -8.583412,-7.3435 z M 16.63813,146.6878 c 0,4.44406 -2.804443,5.39628 -7.4786061,5.39628 H 3.4654868 v -10.44481 h 6.4588413 c 4.6740969,0 6.7138019,1.75964 6.7138019,5.04853 z"
     id="path97"
     inkscape:connector-curvature="0"
     style="clip-rule:evenodd;fill:#ffffff;fill-rule:evenodd;stroke-width:1.09702814" />
  <path
     d="M 22.501745,165.809 H 24.62636 V 139.52311 H 22.501745 Z"
     id="path99"
     inkscape:connector-curvature="0"
     style="fill:#ffffff;stroke-width:1.09702814" />
  <path
     d="m 41.623276,154.15746 c -0.679829,0.3313 -2.039595,0.5529 -2.889463,0.6297 l -2.974482,0.39931 c -4.419159,0.58582 -6.628793,2.52317 -6.628793,5.69358 0,3.64542 2.974482,5.43907 6.288824,5.43907 2.719533,0 5.269136,-1.09594 7.053781,-3.14409 0,1.31644 0.25495,2.59996 1.784646,2.81278 0.339969,0.0768 0.594918,0.1108 0.934778,0.1108 0.679938,0 1.444895,-0.2556 1.699735,-0.3664 v -1.71576 c -1.784645,0.65383 -2.294544,0.25451 -2.294544,-1.46233 v -10.29123 c 0,-4.37714 -2.974482,-5.88116 -6.798723,-5.88116 -4.164319,0 -7.47866,1.79364 -7.818629,6.24647 h 2.209634 c 0.424879,-3.28011 2.549494,-4.26634 5.523976,-4.26634 3.399361,0 4.759127,1.60605 4.759127,3.83302 0,0.65383 -0.08502,1.64006 -0.849867,1.96258 z m -4.844148,2.77987 c 1.869665,-0.14481 3.82435,-0.29839 5.694015,-1.06302 v 2.95759 c 0,3.83302 -3.48438,5.51586 -6.968761,5.51586 -2.039595,0 -4.07919,-1.08826 -4.07919,-3.39969 0,-2.5495 2.039595,-3.75623 5.353936,-4.01074 z"
     id="path101"
     inkscape:connector-curvature="0"
     style="clip-rule:evenodd;fill:#ffffff;fill-rule:evenodd;stroke-width:1.09702814" />
  <path
     d="m 50.036933,170.95077 c 0.594919,0.1108 1.189728,0.22928 1.784646,0.22928 2.549603,0 2.889462,-3.58619 3.73933,-5.22624 l -7.393641,-19.05319 h 2.464584 l 6.118894,16.24808 6.033874,-16.24808 h 2.379564 l -7.053781,18.65387 c -1.784646,4.74245 -2.974373,7.69894 -6.033875,7.69894 -0.764848,0 -1.444676,-0.1097 -2.039595,-0.25451 v -2.04815"
     id="path103"
     inkscape:connector-curvature="0"
     style="fill:#ffffff;stroke-width:1.09702814" />
  <path
     d="m 70.348301,157.95647 c 0.424879,4.70845 3.48449,6.42529 7.56368,6.42529 4.674108,0 6.628793,-2.54949 6.628793,-5.43906 0,-8.14214 -15.977119,-2.73709 -15.977119,-13.06232 0,-3.6542 2.974482,-7.04511 8.923337,-7.04511 5.863945,0 8.838427,3.56973 8.753408,7.85253 h -2.294545 c 0,-4.01951 -3.144411,-5.73636 -6.458863,-5.73636 -5.099096,0 -6.883632,3.10129 -6.458753,5.80437 1.104817,6.78183 16.062028,1.89457 16.062028,12.07609 0,4.82692 -3.5694,7.66603 -9.603275,7.66603 -5.523975,0 -9.603165,-2.83911 -9.603165,-8.54146 h 2.464474"
     id="path105"
     inkscape:connector-curvature="0"
     style="fill:#ffffff;stroke-width:1.09702814" />
  <path
     d="m 98.477969,165.87701 c -0.510009,0.1108 -1.444787,0.44211 -2.549604,0.44211 -2.124614,0 -3.314341,-0.95222 -3.314341,-3.765 V 148.7184 h -2.719533 v -1.81778 h 2.719533 v -5.26135 h 2.209524 v 5.26135 h 3.484381 v 1.81778 h -3.484381 v 12.96029 c 0,1.87043 0,2.66907 1.869775,2.66907 0.594809,0 1.189727,-0.1108 1.784646,-0.25561 v 1.78486"
     id="path107"
     inkscape:connector-curvature="0"
     style="fill:#ffffff;stroke-width:1.09702814" />
  <path
     d="m 114.11556,154.15746 c -0.76463,0.3313 -2.12495,0.5529 -2.88958,0.6297 l -3.05961,0.39931 c -4.41916,0.58582 -6.62879,2.52317 -6.62879,5.69358 0,3.64542 3.0595,5.43907 6.37384,5.43907 2.71954,0 5.1839,-1.09594 7.05324,-3.14409 0,1.31644 0.2556,2.59996 1.70039,2.81278 0.34008,0.0768 0.68016,0.1108 1.01914,0.1108 0.57704,0 1.31424,-0.24025 1.66858,-0.35543 0.011,-0.003 0.0208,-0.008 0.0318,-0.011 v -1.71576 c -1.87043,0.65383 -2.29498,0.25451 -2.29498,-1.46233 v -10.29123 c 0,-4.37714 -3.05961,-5.88116 -6.88352,-5.88116 -4.0793,0 -7.39375,1.79364 -7.73372,6.24647 h 2.20963 c 0.42488,-3.28011 2.46459,-4.26634 5.52409,-4.26634 3.39936,0 4.67411,1.60605 4.67411,3.83302 0,0.65383 -0.0856,1.64006 -0.76463,1.96258 z m -4.84448,2.77987 c 1.86934,-0.14481 3.73977,-0.29839 5.60911,-1.06302 v 2.95759 c 0,3.83302 -3.39969,5.51586 -6.88375,5.51586 -2.0397,0 -4.0793,-1.08826 -4.0793,-3.39969 0,-2.5495 2.0396,-3.75623 5.35394,-4.01074 z"
     id="path109"
     inkscape:connector-curvature="0"
     style="clip-rule:evenodd;fill:#ffffff;fill-rule:evenodd;stroke-width:1.09702814" />
  <path
     d="m 130.00711,165.87701 c -0.50902,0.1108 -1.44479,0.44211 -2.5495,0.44211 -2.12384,0 -3.31412,-0.95222 -3.31412,-3.765 V 148.7184 h -2.63396 v -1.81778 h 2.63396 v -5.26135 h 2.20942 v 5.26135 h 3.48416 v 1.81778 h -3.48416 v 12.96029 c 0,1.87043 0,2.66907 1.87043,2.66907 0.59459,0 1.18918,-0.1108 1.78377,-0.25561 v 1.78486"
     id="path111"
     inkscape:connector-curvature="0"
     style="fill:#ffffff;stroke-width:1.09702814" />
  <path
     d="m 134.25699,139.52311 v 3.2472 h 2.46393 v -3.2472 z m 0.17004,26.28589 h 2.12385 v -18.90838 h -2.12385 z"
     id="path113"
     inkscape:connector-curvature="0"
     style="clip-rule:evenodd;fill:#ffffff;fill-rule:evenodd;stroke-width:1.09702814" />
  <path
     d="m 149.46839,146.38173 c -5.77915,0 -8.75319,4.46161 -8.75319,9.96869 0,6.61179 3.99428,9.8919 8.75319,9.9687 5.35459,0 8.83875,-3.97673 8.83875,-9.9687 0,-5.54986 -2.88957,-9.96869 -8.83875,-9.96869 z m -6.37374,9.96869 c 0,-4.08753 1.78487,-7.98856 6.37374,-7.98856 4.67443,0 6.4593,3.53572 6.4593,7.98856 0,4.05352 -1.87043,7.99734 -6.4593,7.99734 -4.16432,0 -6.37374,-3.28889 -6.37374,-7.99734 z"
     id="path115"
     inkscape:connector-curvature="0"
     style="clip-rule:evenodd;fill:#ffffff;fill-rule:evenodd;stroke-width:1.09702814" />
  <path
     d="m 163.57617,165.809 h -2.20941 v -18.90838 h 2.20941 v 2.62519 c 1.6993,-1.86056 3.48416,-3.14408 6.03365,-3.14408 2.37946,0 4.41883,0.73062 5.77915,2.70198 0.93467,1.36031 1.01914,2.77987 1.01914,4.34313 V 165.809 h -2.20942 v -12.33938 c 0,-3.39091 -1.44478,-5.10776 -4.92894,-5.10776 -2.71954,0 -4.58887,1.75086 -5.26903,3.67943 -0.42455,1.20674 -0.42455,2.26976 -0.42455,3.58729 V 165.809"
     id="path117"
     inkscape:connector-curvature="0"
     style="fill:#ffffff;stroke-width:1.09702814" />
  <path
     d="m 184.14216,165.809 c 1.19027,0 2.29498,-0.4421 3.14518,-1.30876 0.8491,-0.86665 1.27474,-1.92089 1.27474,-3.15286 0,-1.22318 -0.42564,-2.27743 -1.27474,-3.12762 -0.8502,-0.87543 -1.95491,-1.29998 -3.14518,-1.29998 -1.18918,0 -2.29389,0.42455 -3.14409,1.29998 -0.85019,0.85897 -1.27474,1.91212 -1.27474,3.12762 0,1.23197 0.42455,2.28621 1.27474,3.15286 0.8502,0.86666 1.95491,1.30876 3.14409,1.30876 z m -2.71954,-7.17237 c -0.76462,0.74817 -1.1047,1.65761 -1.1047,2.71075 0,1.07948 0.34008,1.98892 1.1047,2.73709 0.76573,0.75585 1.61483,1.12994 2.71954,1.12994 1.1047,0 1.9549,-0.37409 2.71953,-1.12994 0.76573,-0.74817 1.10471,-1.65761 1.10471,-2.73709 0,-1.05314 -0.33898,-1.96258 -1.10471,-2.71075 -0.76463,-0.74818 -1.61483,-1.12226 -2.71953,-1.12226 -1.10471,0 -1.95381,0.37408 -2.71954,1.12226 z m 3.99428,0.42455 c -0.34007,-0.11848 -0.76462,-0.17004 -1.35921,-0.17004 h -1.6993 v 4.89494 h 0.8491 v -1.94613 h 0.68016 c 0.42455,0 0.76463,0.0516 0.93466,0.16236 0.25452,0.17772 0.42455,0.55181 0.42455,1.12994 v 0.39054 l 0.0856,0.15359 v 0.068 0.0417 h 0.76463 v -0.0592 -0.26329 c -0.0845,-0.11848 -0.0845,-0.24683 -0.0845,-0.36531 v -0.35653 c 0,-0.24683 -0.0856,-0.50134 -0.25561,-0.76573 -0.17004,-0.25451 -0.42455,-0.42455 -0.76463,-0.48379 0.25451,-0.0516 0.51012,-0.12725 0.68016,-0.23805 0.34008,-0.20405 0.42455,-0.5189 0.42455,-0.95222 0,-0.61982 -0.17004,-1.02792 -0.68016,-1.24074 z m -1.52925,0.42564 c 0.51011,0 0.85019,0.0592 1.1047,0.17772 0.17004,0.11958 0.34008,0.35763 0.34008,0.70539 0,0.37409 -0.17004,0.6286 -0.51012,0.76463 -0.17003,0.068 -0.51011,0.10202 -0.85019,0.10202 h -0.76463 v -1.74976 z"
     id="path119"
     inkscape:connector-curvature="0"
     style="clip-rule:evenodd;fill:#ffffff;fill-rule:evenodd;stroke-width:1.09702814" />
  <path
     d="M 195.36037,139.52311 V 165.809 h 2.46502 v -11.60875 h 5.60801 c 4.93004,0 10.1135,-1.46125 10.1135,-7.33364 0,-3.94381 -1.78486,-7.3435 -8.58315,-7.3435 z m 15.72261,7.16469 c 0,4.44406 -2.88958,5.39628 -7.56401,5.39628 h -5.69358 v -10.44481 h 6.45821 c 4.67443,0 6.79938,1.75964 6.79938,5.04853 z"
     id="path121"
     inkscape:connector-curvature="0"
     style="clip-rule:evenodd;fill:#ffffff;fill-rule:evenodd;stroke-width:1.09702814" />
  <path
     d="m 223.32033,146.38173 c -5.86362,0 -8.75319,4.46161 -8.75319,9.96869 0,6.61179 3.90871,9.8919 8.75319,9.9687 5.26902,0 8.75318,-3.97673 8.75318,-9.9687 0,-5.54986 -2.804,-9.96869 -8.75318,-9.96869 z m -6.45931,9.96869 c 0,-4.08753 1.87044,-7.98856 6.45931,-7.98856 4.67443,0 6.37373,3.53572 6.4593,7.98856 0,4.05352 -1.87044,7.99734 -6.4593,7.99734 -4.16432,0 -6.45931,-3.28889 -6.45931,-7.99734 z"
     id="path123"
     inkscape:connector-curvature="0"
     style="clip-rule:evenodd;fill:#ffffff;fill-rule:evenodd;stroke-width:1.09702814" />
  <path
     d="m 237.51258,165.809 h -2.20942 v -18.90838 h 2.20942 v 3.5434 h 0.0856 c 1.18918,-3.03438 2.97404,-4.06229 6.11812,-4.06229 v 2.37945 c -4.92894,-0.1108 -6.20369,3.53572 -6.20369,7.76806 v 9.27976"
     id="path125"
     inkscape:connector-curvature="0"
     style="fill:#ffffff;stroke-width:1.09702814" />
  <path
     d="m 255.95472,165.87701 c -0.51012,0.1108 -1.44479,0.44211 -2.46502,0.44211 -2.20942,0 -3.39969,-0.95222 -3.39969,-3.765 V 148.7184 h -2.63397 v -1.81778 h 2.63397 v -5.26135 h 2.20941 v 5.26135 h 3.56973 v 1.81778 h -3.56973 v 12.96029 c 0,1.87043 0.0856,2.66907 1.87044,2.66907 0.59458,0 1.27474,-0.1108 1.78486,-0.25561 v 1.78486"
     id="path127"
     inkscape:connector-curvature="0"
     style="fill:#ffffff;stroke-width:1.09702814" />
  <path
     d="m 270.9116,154.15746 c -0.76463,0.3313 -2.12494,0.5529 -2.88957,0.6297 l -3.05961,0.39931 c -4.41883,0.58582 -6.62825,2.52317 -6.62825,5.69358 0,3.64542 3.05962,5.43907 6.37374,5.43907 2.71953,0 5.18346,-1.09594 7.05389,-3.14409 0,1.31644 0.25451,2.59996 1.6993,2.81278 0.34007,0.0768 0.68015,0.1108 1.02023,0.1108 0.57704,0 1.31424,-0.24025 1.66748,-0.35543 0.011,-0.003 0.022,-0.008 0.0318,-0.011 v -1.71576 c -1.86934,0.65383 -2.29498,0.25451 -2.29498,-1.46233 v -10.29123 c 0,-4.37714 -3.05852,-5.88116 -6.88276,-5.88116 -4.07985,0 -7.39397,1.79364 -7.73405,6.24647 h 2.20942 c 0.42455,-3.28011 2.46502,-4.26634 5.52463,-4.26634 3.39859,0 4.67334,1.60605 4.67334,3.83302 0,0.65383 -0.0845,1.64006 -0.76463,1.96258 z m -4.84447,2.77987 c 1.87043,-0.14481 3.73976,-0.29839 5.6091,-1.06302 v 2.95759 c 0,3.83302 -3.39859,5.51586 -6.88385,5.51586 -2.03938,0 -4.07875,-1.08826 -4.07875,-3.39969 0,-2.5495 2.03937,-3.75623 5.3535,-4.01074 z"
     id="path129"
     inkscape:connector-curvature="0"
     style="clip-rule:evenodd;fill:#ffffff;fill-rule:evenodd;stroke-width:1.09702814" />
  <path
     d="m 280.42942,165.809 h 2.21051 v -3.3229 c 1.35922,2.48148 4.16322,3.83302 6.62824,3.83302 6.11923,0 8.49868,-4.35082 8.49868,-9.92592 0,-5.29425 -2.63506,-10.01147 -8.4142,-10.01147 -2.63397,0 -5.3535,1.24951 -6.71272,3.5434 v -10.40202 h -2.21051 z m 15.04245,-8.87167 c -0.0845,4.74136 -2.804,7.41043 -6.45821,7.41043 -4.16431,0 -6.37373,-3.50172 -6.37373,-8.07413 0,-4.26634 2.37945,-7.91177 6.37373,-7.91177 4.50331,0 6.62825,3.83302 6.45821,8.57547 z"
     id="path131"
     inkscape:connector-curvature="0"
     style="clip-rule:evenodd;fill:#ffffff;fill-rule:evenodd;stroke-width:1.09702814" />
  <path
     d="m 302.61133,165.809 h 2.20941 v -26.28589 h -2.20941 z"
     id="path133"
     inkscape:connector-curvature="0"
     style="fill:#ffffff;stroke-width:1.09702814" />
  <path
     d="m 317.90829,164.34776 c -4.16432,0 -6.37373,-3.39969 -6.37373,-7.47844 h 14.70237 c 0,-6.79061 -3.14518,-10.48759 -8.32864,-10.48759 -5.43907,0 -8.66872,4.52962 -8.66872,10.04548 0,5.58278 2.63506,9.89191 8.66872,9.89191 4.84338,0 7.05389,-2.74477 8.1586,-6.3145 h -2.46502 c -0.59459,2.77109 -2.88958,4.34314 -5.69358,4.34314 z m 0,-15.9859 c 3.90871,0 5.94918,2.9916 5.94918,6.67103 h -12.32291 c 0.42455,-3.56863 2.46392,-6.67103 6.37373,-6.67103 z"
     id="path135"
     inkscape:connector-curvature="0"
     style="clip-rule:evenodd;fill:#ffffff;fill-rule:evenodd;stroke-width:1.09702814" />
  <path
     d="M 1.0009801,32.967657 H 155.84212 V 78.884759 H 7.1198962 V 118.68297 H 1.0009801 V 72.765865 H 149.72399 V 39.086507 H 1.0009801 v -6.11885"
     id="path137"
     inkscape:connector-curvature="0"
     style="fill:#ffffff;stroke-width:1.09702814" />
  <path
     d="m 349.26684,78.884759 v 39.798211 h -6.11813 V 72.765865 H 491.87173 V 39.086507 H 343.14871 v -6.11885 H 497.98986 V 78.884759 H 349.26684"
     id="path139"
     inkscape:connector-curvature="0"
     style="fill:#ffffff;stroke-width:1.09702814" />
  <path
     d="m 234.79305,32.967657 v 79.596413 h -78.95093 v 6.1189 h 85.41023 V 39.086507 h 78.94983 v -6.11885 h -85.40913"
     id="path141"
     inkscape:connector-curvature="0"
     style="fill:#ffffff;stroke-width:1.09702814" />
</svg>
