<?xml version="1.0" encoding="UTF-8" standalone="no"?>
<!-- Created with Inkscape (http://www.inkscape.org/) -->

<svg
   xmlns:dc="http://purl.org/dc/elements/1.1/"
   xmlns:cc="http://creativecommons.org/ns#"
   xmlns:rdf="http://www.w3.org/1999/02/22-rdf-syntax-ns#"
   xmlns:svg="http://www.w3.org/2000/svg"
   xmlns="http://www.w3.org/2000/svg"
   xmlns:sodipodi="http://sodipodi.sourceforge.net/DTD/sodipodi-0.dtd"
   xmlns:inkscape="http://www.inkscape.org/namespaces/inkscape"
   width="500"
   height="200"
   viewBox="0 0 500 200"
   version="1.1"
   id="svg8"
   inkscape:version="0.92.5 (2060ec1f9f, 2020-04-08)"
   sodipodi:docname="quake.svg">
  <defs
     id="defs2" />
  <sodipodi:namedview
     id="base"
     pagecolor="#ffffff"
     bordercolor="#666666"
     borderopacity="1.0"
     inkscape:pageopacity="0.0"
     inkscape:pageshadow="2"
     inkscape:zoom="1.2137936"
     inkscape:cx="254.0375"
     inkscape:cy="98.604679"
     inkscape:document-units="mm"
     inkscape:current-layer="layer1"
     showgrid="false"
     units="px"
     inkscape:pagecheckerboard="true"
     inkscape:window-width="1366"
     inkscape:window-height="743"
     inkscape:window-x="0"
     inkscape:window-y="0"
     inkscape:window-maximized="1" />
  <metadata
     id="metadata5">
    <rdf:RDF>
      <cc:Work
         rdf:about="">
        <dc:format>image/svg+xml</dc:format>
        <dc:type
           rdf:resource="http://purl.org/dc/dcmitype/StillImage" />
        <dc:title />
      </cc:Work>
    </rdf:RDF>
  </metadata>
  <g
     inkscape:label="Layer 1"
     inkscape:groupmode="layer"
     id="layer1"
     transform="translate(-11.942539,-244.44089)">
    <flowRoot
       xml:space="preserve"
       id="flowRoot10"
       style="font-style:normal;font-weight:normal;font-size:40px;line-height:125%;font-family:sans-serif;letter-spacing:0px;word-spacing:0px;fill:#000000;fill-opacity:1;stroke:none;stroke-width:1px;stroke-linecap:butt;stroke-linejoin:miter;stroke-opacity:1"
       transform="matrix(0.26458333,0,0,0.26458333,0,244.08332)"><flowRegion
         id="flowRegion12"><rect
           id="rect14"
           width="92.963524"
           height="71.25631"
           x="49.549088"
           y="28.229828" /></flowRegion><flowPara
         id="flowPara16" /></flowRoot>    <g
       aria-label="Quake"
       style="font-style:normal;font-weight:normal;font-size:37.9785881px;line-height:125%;font-family:sans-serif;letter-spacing:0px;word-spacing:0px;fill:#ff6600;fill-opacity:1;stroke:#ff6701;stroke-width:0.34900001;stroke-linecap:butt;stroke-linejoin:miter;stroke-miterlimit:4;stroke-dasharray:none;stroke-opacity:1"
       id="text20"
       transform="matrix(3.5082791,0,0,3.4133189,28.561886,-577.52816)">
      <path
         d="m 34.298218,244.59684 q 3.304137,1.89893 5.203067,5.05116 1.898929,3.11424 1.898929,6.87412 0,5.5069 -3.569987,9.38071 -2.544566,2.73446 -5.620831,3.53201 -0.721593,0.18989 -2.658501,0.60766 v -3.9118 q 0,-0.79755 0.113935,-1.4052 0.227872,-1.21532 1.63308,-1.44319 0.03798,-0.076 -0.227872,-0.076 h -6.874124 q 0.113935,0 0.189893,0.076 1.177336,0.18989 1.443186,1.44319 0.03798,0.75957 0.03798,1.36722 v 3.94978 q -0.873507,-0.038 -2.506586,-0.60766 -3.152223,-0.75957 -5.734767,-3.68392 -2.506587,-2.81042 -3.152223,-6.07658 -0.303829,-1.55712 -0.303829,-3.15222 0,-4.36754 2.468609,-7.78561 1.822972,-2.50659 4.595409,-4.13967 -2.620523,0.94947 -4.709345,3.41808 -1.936908,2.24073 -2.886373,5.05115 -1.025422,2.96233 -1.025422,6.07657 0,7.44381 5.772746,12.22911 3.342115,2.77244 7.481781,3.1902 v 3.98775 q 0.189893,0.5317 2.088823,8.96295 0.569679,-4.02573 1.253293,-7.17796 0.341808,-1.5951 0.341808,-1.82297 v -3.91179 q 4.253601,-0.45574 7.671674,-3.26616 3.304138,-2.73446 4.823281,-6.83615 0.911486,-2.43063 0.911486,-5.35498 0,-3.34211 -1.177336,-6.53231 -2.278715,-6.0386 -7.481782,-8.01349 z"
         style="font-style:normal;font-variant:normal;font-weight:normal;font-stretch:normal;font-family:DpQuake;-inkscape-font-specification:DpQuake;fill:#ff6600;stroke:#ff6701;stroke-width:0.34900001;stroke-miterlimit:4;stroke-dasharray:none;stroke-opacity:1"
         id="path833"
         inkscape:connector-curvature="0" />
      <path
         d="m 46.603258,268.56133 q 0,2.27872 1.784994,4.13967 1.633079,1.70904 4.557431,1.78499 -2.316694,-0.11393 -3.532009,-2.50658 -0.303829,-0.83553 -0.303829,-2.01287 v -11.08975 q -0.151914,-1.29127 1.405208,-1.82297 h -5.165088 q 1.0634,0.30383 1.253293,1.78499 z m 14.241971,0 q 0,2.54457 -1.784994,4.10169 -0.835529,0.75957 -1.481165,1.10138 -1.253293,0.64564 -3.038287,0.68361 2.278716,-0.076 3.456052,-2.50658 0.341807,-0.64564 0.341807,-1.785 v -11.31762 q 0.151914,-1.29127 -1.367229,-1.74701 h 5.241045 q -1.177336,0.26585 -1.367229,1.74701 z"
         style="font-style:normal;font-variant:normal;font-weight:normal;font-stretch:normal;font-family:DpQuake;-inkscape-font-specification:DpQuake;fill:#ff6600;stroke:#ff6701;stroke-width:0.34900001;stroke-miterlimit:4;stroke-dasharray:none;stroke-opacity:1"
         id="path835"
         inkscape:connector-curvature="0" />
      <path
         d="m 77.859572,274.48599 h 5.013174 q -1.177336,-0.56968 -2.050844,-2.46861 -1.747015,-3.75988 -2.886372,-6.15253 -0.113936,-0.26585 -0.645636,-1.36723 h 0.03798 l -3.000308,-7.10199 -1.291272,3.30413 q -0.341808,0.79756 -1.405208,3.26616 -0.26585,0.68362 -1.822972,4.10169 -1.063401,2.27872 -1.747015,3.56999 -1.367229,2.43063 -2.316694,2.84839 h 3.418073 q -0.835529,-0.15191 -0.949465,-0.94946 l 0.113936,-0.75957 q 0.493721,-1.67106 1.215315,-2.92436 0.683614,-0.91148 2.468608,-0.91148 -1.367229,-0.076 -1.367229,-1.0634 0,-0.26585 0.151914,-0.64564 l 0.759572,-1.86095 q 0.189893,-0.5317 0.911486,-2.05084 0.759572,-1.51915 1.101379,-1.32925 0.417764,0.22787 1.177336,2.05084 0.417765,1.02542 1.291272,3.07627 0.151915,0.41776 0.151915,0.64563 0,0.7216 -1.101379,1.0634 l -0.379786,0.11394 q 0.07596,0 0.26585,0 0.721593,0.038 1.139357,0.11393 1.215315,0.37979 1.936908,2.16478 l 0.873508,2.08883 q 0.113936,1.10138 -1.063401,1.17733 z"
         style="font-style:normal;font-variant:normal;font-weight:normal;font-stretch:normal;font-family:DpQuake;-inkscape-font-specification:DpQuake;fill:#ff6600;stroke:#ff6701;stroke-width:0.34900001;stroke-miterlimit:4;stroke-dasharray:none;stroke-opacity:1"
         id="path837"
         inkscape:connector-curvature="0" />
      <path
         d="m 89.898729,272.81493 q 0,1.40521 1.215315,1.67106 h -4.785302 q 1.025421,-0.26585 1.177336,-1.67106 l 0.03798,-13.52037 q 0,-1.44319 -1.177336,-1.70904 h 4.785302 q -0.911486,0.18989 -1.215315,1.63308 v 4.7853 q 0,1.36723 1.784994,1.93691 -1.822972,0.37979 -1.822972,2.27872 z m 6.874124,-7.67167 q 3.076266,-3.98775 6.342427,-8.31731 l -9.798478,9.15284 h 0.03798 l -0.03798,0.038 h 0.07596 q 8.089438,3.00031 8.545178,9.11486 0.076,-0.60766 0.076,-1.21532 0,-4.02573 -2.278714,-6.60827 -1.291272,-1.48117 -2.96233,-2.16478 z"
         style="font-style:normal;font-variant:normal;font-weight:normal;font-stretch:normal;font-family:DpQuake;-inkscape-font-specification:DpQuake;fill:#ff6600;stroke:#ff6701;stroke-width:0.34900001;stroke-miterlimit:4;stroke-dasharray:none;stroke-opacity:1"
         id="path839"
         inkscape:connector-curvature="0" />
      <path
         d="m 110.48312,266.58645 q -0.56968,0.49372 -0.56968,1.32925 v 1.48116 q 0,0.60766 0.34181,2.62052 1.02542,2.35468 3.1902,2.46861 -2.1268,-0.076 -3.98775,-1.48116 -2.01287,-1.55712 -2.01287,-3.60797 v -10.1023 q -0.37979,-1.51915 -1.29127,-1.82298 h 5.01317 q -1.25329,0.30383 -1.25329,1.89893 v 4.82329 q 0,0.98744 0.5317,1.4052 0,0.22787 2.92435,0.34181 -1.93691,0.076 -2.88637,0.64564 z m 4.93721,7.9755 q 2.96233,-0.22787 5.69679,-5.58285 v 5.54487 q -0.41776,-0.56968 -1.29127,-0.56968 -0.5317,0 -1.97489,0.30383 -1.44318,0.30383 -2.43063,0.30383 z m -0.98744,-17.09037 h 5.77275 l 0.038,5.73477 q -0.49372,-4.63339 -5.81072,-5.73477 z"
         style="font-style:normal;font-variant:normal;font-weight:normal;font-stretch:normal;font-family:DpQuake;-inkscape-font-specification:DpQuake;fill:#ff6600;stroke:#ff6701;stroke-width:0.34900001;stroke-miterlimit:4;stroke-dasharray:none;stroke-opacity:1"
         id="path841"
         inkscape:connector-curvature="0" />
    </g>
    <path
       d="m 24.320533,442.68218 c 1.557507,0 3.072273,-0.3435 4.544299,-1.03048 1.47201,-0.687 2.682883,-1.60952 3.632573,-2.76759 v 0 l -2.706626,-2.76758 c -0.702773,0.844 -1.510022,1.49175 -2.421716,1.9432 -0.91171,0.45144 -1.889888,0.67716 -2.934547,0.67716 -0.930707,0 -1.790187,-0.17173 -2.578423,-0.51523 -0.788251,-0.34349 -1.472026,-0.80967 -2.051339,-1.39851 -0.579329,-0.58885 -1.035169,-1.29058 -1.367565,-2.10514 -0.332397,-0.81459 -0.498595,-1.69294 -0.498595,-2.6351 0,-0.9618 0.161377,-1.84997 0.484358,-2.66454 0.322891,-0.81458 0.76924,-1.52119 1.339062,-2.11986 0.569807,-0.59866 1.248852,-1.06974 2.037088,-1.41324 0.788251,-0.34348 1.628733,-0.51524 2.521431,-0.51524 1.063672,0 2.070338,0.24045 3.020042,0.72134 0.949704,0.4809 1.77592,1.1728 2.478691,2.0757 v 0 l 2.792107,-2.85593 c -0.930693,-1.17768 -2.146311,-2.11493 -3.646825,-2.81174 -1.500515,-0.6968 -3.048515,-1.0452 -4.644015,-1.0452 -1.481517,0 -2.872809,0.27479 -4.173892,0.82438 -1.301082,0.5496 -2.426461,1.29548 -3.376165,2.23763 -0.949689,0.94215 -1.699946,2.06587 -2.250772,3.37115 -0.550825,1.30528 -0.82623,2.7038 -0.82623,4.19555 0,1.49174 0.27066,2.88536 0.811979,4.18083 0.541334,1.29546 1.286831,2.41428 2.23652,3.35644 0.949704,0.94214 2.075082,1.68802 3.37618,2.23761 1.301083,0.5496 2.701881,0.82439 4.20238,0.82439 z m 53.990107,0.0295 c 1.481533,0 2.868095,-0.27479 4.159672,-0.82439 1.291591,-0.54959 2.407479,-1.30037 3.347676,-2.25234 0.940199,-0.95198 1.685696,-2.0806 2.236521,-3.38588 0.550825,-1.30529 0.82623,-2.69399 0.82623,-4.1661 0,-1.47213 -0.275405,-2.86084 -0.82623,-4.16611 -0.550825,-1.30529 -1.296322,-2.43391 -2.236521,-3.38587 -0.940197,-0.95197 -2.056085,-1.70277 -3.347676,-2.25235 -1.291577,-0.5496 -2.678139,-0.82439 -4.159672,-0.82439 -1.462534,0 -2.83956,0.27479 -4.131168,0.82439 -1.291591,0.54958 -2.407462,1.30038 -3.347661,2.25235 -0.940198,0.95196 -1.68571,2.08058 -2.23652,3.38587 -0.55084,1.30527 -0.826245,2.69398 -0.826245,4.16611 0,1.47211 0.275405,2.86081 0.826245,4.1661 0.55081,1.30528 1.296322,2.4339 2.23652,3.38588 0.940199,0.95197 2.05607,1.70275 3.347661,2.25234 1.291608,0.5496 2.668634,0.82439 4.131168,0.82439 z m 0,-3.91584 c -0.892712,0 -1.723688,-0.17175 -2.492927,-0.51526 -0.769254,-0.34348 -1.434047,-0.81456 -1.994379,-1.41321 -0.560301,-0.59868 -1.001905,-1.3102 -1.32481,-2.13459 -0.322906,-0.82439 -0.484359,-1.70766 -0.484359,-2.64981 0,-0.96179 0.161392,-1.84997 0.484359,-2.66454 0.322905,-0.81459 0.764509,-1.52119 1.32481,-2.11986 0.560332,-0.59867 1.225125,-1.06974 1.994379,-1.41323 0.769239,-0.34351 1.600215,-0.51525 2.492927,-0.51525 0.892728,0 1.728466,0.17174 2.50721,0.51525 0.778746,0.34349 1.448269,0.81456 2.008601,1.41323 0.560301,0.59867 1.001935,1.30527 1.32481,2.11986 0.322906,0.81457 0.484358,1.70275 0.484358,2.66454 0,0.94215 -0.161392,1.82542 -0.484358,2.64981 -0.322875,0.82439 -0.764509,1.53591 -1.32481,2.13459 -0.560332,0.59865 -1.229855,1.06973 -2.008601,1.41321 -0.778744,0.34351 -1.614482,0.51526 -2.50721,0.51526 z m 62.62283,3.59198 v -3.76864 h -10.91198 v -16.84112 h -4.13118 v 20.60969 z m 52.08123,0 v -3.76864 h -10.91198 v -16.84112 h -4.13117 v 20.60969 z m 52.48009,0 v -3.70976 h -11.31085 v -4.88744 h 7.37913 v -3.59198 h -7.37913 v -4.71078 h 11.1969 v -3.70975 h -15.32806 v 20.60969 z m 45.81324,0.29442 c 1.55752,0 3.07227,-0.3435 4.54429,-1.03049 1.47202,-0.68699 2.68289,-1.60953 3.63259,-2.76759 v 0 l -2.70664,-2.76759 c -0.70277,0.84402 -1.51001,1.49175 -2.42171,1.9432 -0.91171,0.45147 -1.88989,0.67718 -2.93455,0.67718 -0.93071,0 -1.79019,-0.17174 -2.57843,-0.51524 -0.78824,-0.3435 -1.47202,-0.80967 -2.05133,-1.39852 -0.57933,-0.58885 -1.03518,-1.29055 -1.36757,-2.10513 -0.3324,-0.81457 -0.4986,-1.69294 -0.4986,-2.63509 0,-0.96179 0.16138,-1.84997 0.48435,-2.66454 0.32291,-0.81459 0.76925,-1.52119 1.33908,-2.11986 0.56981,-0.59867 1.24885,-1.06974 2.03708,-1.41323 0.78826,-0.34351 1.62874,-0.51525 2.52144,-0.51525 1.06367,0 2.07035,0.24045 3.02004,0.72134 0.9497,0.48089 1.77591,1.17279 2.47868,2.07569 v 0 l 2.79212,-2.85591 c -0.93069,-1.1777 -2.14631,-2.11495 -3.64681,-2.81176 -1.50053,-0.69679 -3.04853,-1.0452 -4.64403,-1.0452 -1.48152,0 -2.87281,0.27479 -4.17389,0.82439 -1.30109,0.54958 -2.42646,1.29546 -3.37617,2.23763 -0.94968,0.94214 -1.69995,2.06586 -2.25078,3.37114 -0.55081,1.30528 -0.82622,2.7038 -0.82622,4.19556 0,1.49175 0.27066,2.88535 0.81199,4.18082 0.54133,1.29547 1.28681,2.41427 2.23653,3.35644 0.9497,0.94216 2.07508,1.68802 3.37616,2.23761 1.30108,0.54959 2.70186,0.8244 4.20238,0.8244 z m 54.64541,-0.29442 v -16.84114 h 6.69533 v -3.76863 h -17.55034 v 3.76863 h 6.72382 v 16.84106 z m 47.32325,0 v -20.60976 h -4.13116 v 20.60969 z m 47.57966,0.32386 c 1.48154,0 2.86809,-0.27479 4.15968,-0.82439 1.29157,-0.54959 2.40746,-1.30037 3.34766,-2.25234 0.9402,-0.95198 1.68571,-2.0806 2.23654,-3.38588 0.5508,-1.30529 0.82622,-2.69399 0.82622,-4.1661 0,-1.47213 -0.27542,-2.86084 -0.82622,-4.16611 -0.55083,-1.30529 -1.29634,-2.43391 -2.23654,-3.38587 -0.9402,-0.95197 -2.05609,-1.70277 -3.34766,-2.25235 -1.29159,-0.5496 -2.67814,-0.82439 -4.15968,-0.82439 -1.46252,0 -2.83959,0.27479 -4.13115,0.82439 -1.29159,0.54958 -2.40747,1.30038 -3.34767,2.25235 -0.9402,0.95196 -1.68571,2.08058 -2.23654,3.38587 -0.55083,1.30527 -0.82625,2.69398 -0.82625,4.16611 0,1.47211 0.27542,2.86081 0.82625,4.1661 0.55083,1.30528 1.29634,2.4339 2.23654,3.38588 0.9402,0.95197 2.05608,1.70275 3.34767,2.25234 1.29156,0.5496 2.66863,0.82439 4.13115,0.82439 z m 0,-3.91584 c -0.8927,0 -1.7237,-0.17175 -2.49294,-0.51526 -0.76925,-0.34348 -1.43403,-0.81456 -1.99436,-1.41321 -0.56031,-0.59868 -1.00192,-1.3102 -1.32482,-2.13459 -0.32289,-0.82439 -0.48435,-1.70766 -0.48435,-2.64981 0,-0.96179 0.16138,-1.84997 0.48435,-2.66454 0.3229,-0.81459 0.76451,-1.52119 1.32482,-2.11986 0.56033,-0.59867 1.22511,-1.06974 1.99436,-1.41323 0.76924,-0.34351 1.60024,-0.51525 2.49294,-0.51525 0.89272,0 1.72846,0.17174 2.5072,0.51525 0.77876,0.34349 1.44826,0.81456 2.0086,1.41323 0.56032,0.59867 1.00193,1.30527 1.32482,2.11986 0.3229,0.81457 0.48435,1.70275 0.48435,2.66454 0,0.94215 -0.16137,1.82542 -0.48435,2.64981 -0.32289,0.82439 -0.7645,1.53591 -1.32482,2.13459 -0.56034,0.59865 -1.22984,1.06973 -2.0086,1.41321 -0.77874,0.34351 -1.61448,0.51526 -2.5072,0.51526 z m 51.48292,3.59198 v -13.77906 l 10.17123,13.77906 h 3.64683 v -20.60976 h -3.87476 v 13.33742 l -9.9148,-13.33742 h -3.93174 v 20.60969 z"
       id="COLLECTION"
       inkscape:connector-curvature="0"
       style="fill:#ffffff;fill-rule:nonzero;stroke:none;stroke-width:1.77145267" />
  </g>
</svg>
