<?xml version="1.0" encoding="UTF-8" standalone="no"?>
<svg
   xmlns:dc="http://purl.org/dc/elements/1.1/"
   xmlns:cc="http://creativecommons.org/ns#"
   xmlns:rdf="http://www.w3.org/1999/02/22-rdf-syntax-ns#"
   xmlns:svg="http://www.w3.org/2000/svg"
   xmlns="http://www.w3.org/2000/svg"
   xmlns:xlink="http://www.w3.org/1999/xlink"
   xmlns:sodipodi="http://sodipodi.sourceforge.net/DTD/sodipodi-0.dtd"
   xmlns:inkscape="http://www.inkscape.org/namespaces/inkscape"
   width="500"
   height="200"
   viewBox="0 0 500 200"
   version="1.1"
   id="svg14"
   sodipodi:docname="Rockstar.svg"
   inkscape:version="0.92.5 (2060ec1f9f, 2020-04-08)">
  <metadata
     id="metadata20">
    <rdf:RDF>
      <cc:Work
         rdf:about="">
        <dc:format>image/svg+xml</dc:format>
        <dc:type
           rdf:resource="http://purl.org/dc/dcmitype/StillImage" />
        <dc:title />
      </cc:Work>
    </rdf:RDF>
  </metadata>
  <defs
     id="defs18">
    <linearGradient
       id="linearGradient1708">
      <stop
         offset="0"
         style="stop-color:#fcff01;stop-opacity:1"
         id="stop1698" />
      <stop
         offset="0.24505855"
         style="stop-color:#ff720c;stop-opacity:1"
         id="stop1700" />
      <stop
         offset="0.48089126"
         style="stop-color:#b300e5;stop-opacity:1"
         id="stop1702" />
      <stop
         offset="0.78216583"
         style="stop-color:#31e1fd;stop-opacity:1"
         id="stop1704" />
      <stop
         offset="1"
         style="stop-color:#00bf19;stop-opacity:1"
         id="stop1706" />
    </linearGradient>
    <linearGradient
       x1="287.04117"
       y1="350.87671"
       x2="348.69205"
       y2="275.90128"
       id="linearGradient3545"
       xlink:href="#linearGradient3539"
       gradientUnits="userSpaceOnUse"
       gradientTransform="matrix(0.27391884,0,0,0.27391884,-74.12342,-68.696897)" />
    <linearGradient
       id="linearGradient3539">
      <stop
         id="stop3541"
         style="stop-color:#bf0000;stop-opacity:1"
         offset="0" />
      <stop
         id="stop3547"
         style="stop-color:#bf0000;stop-opacity:1"
         offset="0.3747088" />
      <stop
         id="stop3543"
         style="stop-color:#fbe40a;stop-opacity:1"
         offset="1" />
    </linearGradient>
    <linearGradient
       x1="289.83875"
       y1="355.51709"
       x2="639.31293"
       y2="355.51709"
       id="linearGradient3555"
       xlink:href="#linearGradient3549"
       gradientUnits="userSpaceOnUse"
       gradientTransform="matrix(0.27391884,0,0,0.27391884,-74.12342,-68.696897)" />
    <linearGradient
       id="linearGradient3549">
      <stop
         id="stop3551"
         style="stop-color:#bf0000;stop-opacity:1"
         offset="0" />
      <stop
         id="stop3557"
         style="stop-color:#fff20c;stop-opacity:1"
         offset="0.24505855" />
      <stop
         id="stop3559"
         style="stop-color:#0ce500;stop-opacity:1"
         offset="0.44498077" />
      <stop
         id="stop3561"
         style="stop-color:#31e1fd;stop-opacity:1"
         offset="0.64282119" />
      <stop
         id="stop3553"
         style="stop-color:#0019bf;stop-opacity:1"
         offset="1" />
    </linearGradient>
  </defs>
  <sodipodi:namedview
     pagecolor="#ffffff"
     bordercolor="#666666"
     borderopacity="1"
     objecttolerance="10"
     gridtolerance="10"
     guidetolerance="10"
     inkscape:pageopacity="0"
     inkscape:pageshadow="2"
     inkscape:window-width="1366"
     inkscape:window-height="743"
     id="namedview16"
     showgrid="false"
     inkscape:pagecheckerboard="true"
     inkscape:zoom="2.0235328"
     inkscape:cx="244.33519"
     inkscape:cy="110.09626"
     inkscape:window-x="0"
     inkscape:window-y="0"
     inkscape:window-maximized="1"
     inkscape:current-layer="svg14" />
  <path
     d="m 10.703887,197.85589 c 1.568859,0 3.094675,-0.36817 4.577438,-1.10442 1.482769,-0.7363 2.702464,-1.72503 3.659086,-2.96619 v 0 l -2.726377,-2.9662 c -0.7079,0.90458 -1.521033,1.5988 -2.439389,2.08267 -0.918358,0.48382 -1.90368,0.72576 -2.955963,0.72576 -0.9374918,0 -1.8032364,-0.18406 -2.5972331,-0.55223 -0.7939989,-0.36814 -1.482766,-0.86777 -2.0663079,-1.49886 -0.5835408,-0.63111 -1.0427184,-1.38318 -1.3775375,-2.25619 -0.3348158,-0.87304 -0.5022241,-1.81444 -0.5022241,-2.82421 0,-1.03079 0.1626205,-1.98271 0.4878761,-2.85575 0.3252509,-0.87301 0.7748655,-1.63035 1.3488394,-2.27197 0.5739718,-0.64161 1.257958,-1.14649 2.0519592,-1.51464 0.7939969,-0.36817 1.6406069,-0.55221 2.5398339,-0.55221 1.071417,0 2.08544,0.2577 3.042062,0.7731 0.956622,0.51542 1.788885,1.25695 2.496785,2.22464 v 0 l 2.812472,-3.06086 c -0.937492,-1.26219 -2.161969,-2.26671 -3.673433,-3.01351 -1.511463,-0.74682 -3.070762,-1.12021 -4.677886,-1.12021 -1.4923333,0 -2.8937892,0.29459 -4.2043607,0.88356 -1.3105741,0.58901 -2.4441732,1.38841 -3.4007952,2.39817 -0.9566223,1.00977 -1.7123555,2.21413 -2.26719681,3.61307 -0.55483981,1.39895 -0.83225994573,2.8978 -0.83225994573,4.49661 0,1.59879 0.27262333573,3.09243 0.81790894573,4.48085 0.54527571,1.38842 1.29622551,2.58752 2.25284871,3.59729 0.9566236,1.00976 2.0902212,1.80917 3.4007957,2.3982 1.3105751,0.58902 2.7215959,0.88353 4.2330583,0.88353 z m 54.384028,0.0315 c 1.492329,0 2.889002,-0.29449 4.19001,-0.88353 1.301008,-0.58904 2.425028,-1.39368 3.372095,-2.41398 0.947053,-1.02028 1.698007,-2.2299 2.252853,-3.62884 0.554851,-1.39894 0.832252,-2.88733 0.832252,-4.46507 0,-1.57776 -0.277396,-3.06611 -0.832252,-4.46505 -0.554846,-1.39897 -1.3058,-2.60858 -2.252853,-3.62885 -0.947067,-1.0203 -2.071087,-1.82494 -3.372095,-2.41398 -1.301008,-0.58904 -2.697681,-0.88354 -4.19001,-0.88354 -1.473203,0 -2.860306,0.29449 -4.161314,0.88354 -1.301013,0.58904 -2.425033,1.39368 -3.372101,2.41398 -0.947052,1.02027 -1.698001,2.22988 -2.252842,3.62884 -0.554837,1.39894 -0.832263,2.88729 -0.832263,4.46506 0,1.57774 0.277446,3.06612 0.832263,4.46505 0.554841,1.39895 1.30579,2.60856 2.252842,3.62885 0.947068,1.02029 2.071088,1.82494 3.372101,2.41397 1.301008,0.58904 2.688111,0.88354 4.161314,0.88354 z m 0,-4.19683 c -0.899217,0 -1.736272,-0.18407 -2.511128,-0.55222 -0.774871,-0.36818 -1.444503,-0.87302 -2.00892,-1.51464 -0.564401,-0.64163 -1.009235,-1.40422 -1.334486,-2.28777 -0.325269,-0.88357 -0.487905,-1.8302 -0.487905,-2.83996 0,-1.0308 0.162636,-1.98272 0.487905,-2.85574 0.325222,-0.87304 0.770085,-1.63036 1.334486,-2.27197 0.564417,-0.64163 1.234049,-1.14653 2.00892,-1.51467 0.774856,-0.36816 1.611911,-0.55221 2.511128,-0.55221 0.899223,0 1.741054,0.18406 2.525487,0.55221 0.784426,0.36817 1.45885,0.87304 2.023266,1.51467 0.564391,0.64161 1.009226,1.39893 1.334491,2.27197 0.325222,0.87302 0.487906,1.82494 0.487906,2.85574 0,1.00976 -0.162635,1.95639 -0.487906,2.83996 -0.325271,0.88355 -0.7701,1.64614 -1.334491,2.28777 -0.564416,0.64162 -1.23884,1.14649 -2.023266,1.51464 -0.784433,0.36816 -1.626264,0.55221 -2.525487,0.55221 z m 63.079735,3.84994 v -4.03926 h -10.99158 v -18.04955 h -4.16133 v 22.08862 z m 52.46121,0 v -4.03926 h -10.99161 v -18.04955 h -4.16129 v 22.08862 z m 52.86299,0 v -3.97613 h -11.39338 v -5.23818 h 7.43297 v -3.84972 h -7.43297 v -5.04882 h 11.2786 v -3.97596 h -15.43989 v 22.08864 z m 46.14751,0.31551 c 1.56888,0 3.09468,-0.36816 4.57744,-1.10443 1.48277,-0.73628 2.70247,-1.72501 3.6591,-2.96618 v 0 l -2.72637,-2.96619 c -0.7079,0.90458 -1.52104,1.59879 -2.43941,2.08264 -0.91836,0.48382 -1.90368,0.72576 -2.95597,0.72576 -0.93747,0 -1.80324,-0.18405 -2.59721,-0.5522 -0.79402,-0.36817 -1.48278,-0.86778 -2.06631,-1.49888 -0.58355,-0.63109 -1.04274,-1.38316 -1.37752,-2.25619 -0.33488,-0.87303 -0.50228,-1.81444 -0.50228,-2.8242 0,-1.03079 0.16264,-1.98271 0.48791,-2.85573 0.32522,-0.87304 0.77484,-1.63037 1.34883,-2.27198 0.57397,-0.64163 1.25794,-1.14652 2.05195,-1.51466 0.794,-0.36817 1.64061,-0.55221 2.53983,-0.55221 1.07144,0 2.08544,0.25769 3.04206,0.77312 0.95662,0.51542 1.78891,1.25692 2.4968,2.2246 v 0 l 2.81245,-3.06083 c -0.93745,-1.26222 -2.16196,-2.26672 -3.67343,-3.01353 -1.51144,-0.74679 -3.07075,-1.12019 -4.67788,-1.12019 -1.49234,0 -2.89377,0.29453 -4.20435,0.88353 -1.31057,0.58904 -2.44417,1.38843 -3.4008,2.3982 -0.95662,1.00977 -1.71234,2.21412 -2.26719,3.61306 -0.55485,1.39895 -0.83227,2.89781 -0.83227,4.49662 0,1.59878 0.27261,3.09242 0.8179,4.48084 0.5453,1.38843 1.29624,2.58753 2.25287,3.59729 0.95659,1.00977 2.09021,1.80917 3.40078,2.39819 1.31059,0.58902 2.72158,0.88354 4.23306,0.88354 z m 55.04411,-0.31551 v -18.04954 h 6.74418 v -4.03906 h -17.6784 v 4.03905 h 6.77291 v 18.04956 z m 47.66854,0 v -22.08862 h -4.1613 v 22.08862 z m 47.92681,0.34709 c 1.49234,0 2.88901,-0.29449 4.19001,-0.88354 1.30102,-0.58902 2.42505,-1.39368 3.37211,-2.41397 0.94706,-1.02028 1.698,-2.2299 2.25284,-3.62884 0.55485,-1.39894 0.83227,-2.88732 0.83227,-4.46508 0,-1.57775 -0.27745,-3.06611 -0.83227,-4.46504 -0.55484,-1.39895 -1.30578,-2.60857 -2.25284,-3.62884 -0.94706,-1.02029 -2.07109,-1.82495 -3.37211,-2.41398 -1.301,-0.58904 -2.69767,-0.88354 -4.19001,-0.88354 -1.47319,0 -2.86028,0.29449 -4.16132,0.88354 -1.30098,0.58903 -2.42505,1.39369 -3.37206,2.41398 -0.94709,1.02027 -1.69803,2.22989 -2.25286,3.62885 -0.55486,1.39892 -0.83227,2.88728 -0.83227,4.46504 0,1.57776 0.27745,3.06613 0.83227,4.46507 0.55483,1.39894 1.30577,2.60856 2.25286,3.62884 0.94701,1.0203 2.07108,1.82495 3.37206,2.41397 1.30104,0.58904 2.68813,0.88354 4.16132,0.88354 z m 0,-4.19684 c -0.8992,0 -1.73627,-0.18407 -2.51112,-0.55222 -0.77487,-0.36817 -1.4445,-0.873 -2.00893,-1.51462 -0.56439,-0.64164 -1.00921,-1.40422 -1.33449,-2.28776 -0.32522,-0.88358 -0.48786,-1.83021 -0.48786,-2.83998 0,-1.03079 0.16264,-1.9827 0.48786,-2.85573 0.32527,-0.87304 0.7701,-1.63036 1.33449,-2.27197 0.56443,-0.64164 1.23406,-1.14652 2.00893,-1.51466 0.77485,-0.36818 1.61192,-0.55223 2.51112,-0.55223 0.89922,0 1.74107,0.18406 2.52549,0.55223 0.78445,0.36817 1.45886,0.87302 2.02327,1.51466 0.56439,0.64161 1.00922,1.39893 1.33447,2.27197 0.32528,0.87303 0.48791,1.82494 0.48791,2.85573 0,1.00977 -0.16263,1.9564 -0.48791,2.83998 -0.32527,0.88354 -0.77008,1.64612 -1.33447,2.28776 -0.56441,0.64162 -1.23882,1.14649 -2.02327,1.51463 -0.78442,0.36817 -1.62627,0.55221 -2.52549,0.55221 z m 51.85857,3.84972 v -14.76781 l 10.24542,14.76782 h 3.67347 v -22.08861 h -3.90304 v 14.2945 l -9.98718,-14.2945 h -3.96038 v 22.08861 z"
     id="COLLECTION"
     inkscape:connector-curvature="0"
     style="fill:#ffffff;fill-rule:nonzero;stroke:none;stroke-width:1.28597367" />
  <path
     d="m 327.69644,154.26434 c -0.753,0.753 -1.5813,1.12951 -2.63551,1.12951 -1.05421,0 -1.8825,-0.3765 -2.63551,-1.12951 -0.753,-0.75301 -1.05421,-1.5813 -1.05421,-2.63552 0,-1.05421 0.37646,-1.8825 1.05421,-2.63551 0.75301,-0.753 1.5813,-1.05421 2.63551,-1.05421 1.05421,0 1.88251,0.37651 2.63551,1.05421 0.753,0.75301 1.12951,1.5813 1.12951,2.63551 0,0.9789 -0.37646,1.88251 -1.12951,2.63552 z m -4.89452,-4.89453 c -0.6024,0.6024 -0.9036,1.35542 -0.9036,2.25901 0,0.90361 0.30118,1.65662 0.9036,2.25902 0.6024,0.60239 1.35541,0.97891 2.25901,0.97891 0.90361,0 1.65661,-0.30118 2.25901,-0.97891 0.6024,-0.6024 0.90361,-1.35541 0.90361,-2.25902 0,-0.90359 -0.30122,-1.65661 -0.90361,-2.25901 -0.6024,-0.60239 -1.3554,-0.9036 -2.25901,-0.9036 -0.8283,-0.0753 -1.58131,0.22588 -2.25901,0.9036 z m 2.25901,0.15061 c 0.52711,0 0.90361,0.0753 1.12951,0.1506 0.45181,0.15061 0.6024,0.52712 0.6024,1.05421 0,0.3765 -0.1506,0.6024 -0.37646,0.8283 -0.15061,0.0753 -0.37649,0.15061 -0.60241,0.2259 0.30122,0.0753 0.52712,0.1506 0.67772,0.37648 0.15061,0.22594 0.22588,0.45181 0.22588,0.60242 v 0.90361 h -0.67767 v -0.52712 c 0,-0.45179 -0.15061,-0.753 -0.37646,-0.90359 -0.15061,-0.0753 -0.4518,-0.15062 -0.82831,-0.15062 h -0.52714 v 1.58131 h -0.75303 v -4.06627 h 1.506 z m 0.75301,0.6777 c -0.15061,-0.0753 -0.45181,-0.15062 -0.90361,-0.15062 h -0.6024 v 1.43071 h 0.67769 c 0.30122,0 0.52711,0 0.67772,-0.0753 0.30117,-0.0753 0.4518,-0.30117 0.4518,-0.6024 0,-0.30118 -0.15061,-0.45181 -0.30117,-0.60241 z"
     id="path4"
     inkscape:connector-curvature="0"
     style="stroke-width:0.75300372" />
  <path
     d="M 300.513,5.6213825 H 195.01718 c -15.88839,0 -28.84005,12.5751635 -28.84005,27.9364385 v 93.748989 c 0,15.58717 12.49986,27.86114 28.53885,27.86114 h 105.57113 c 16.03898,0 28.53884,-12.27397 28.53884,-27.86114 V 33.557821 c 0,-15.662476 -12.42456,-27.9364385 -28.31295,-27.9364385 M 325.58804,127.30681 c 0,13.85526 -11.14445,24.62321 -25.37622,24.62321 H 194.71598 c -14.23177,0.0753 -25.30092,-10.76795 -25.30092,-24.62321 V 33.557821 c 0,-13.855268 11.21975,-24.7738231 25.60212,-24.7738231 h 105.57113 c 14.08118,0 25.07503,10.8432551 25.07503,24.7738231 v 93.748989 z"
     id="path6"
     inkscape:connector-curvature="0"
     style="fill:#040301;stroke-width:0.75300372" />
  <path
     d="m 325.58804,127.30681 c 0,13.85526 -11.14445,24.62321 -25.37622,24.62321 H 194.71598 c -14.23177,0.0753 -25.30092,-10.76795 -25.30092,-24.62321 V 33.557821 c 0,-13.855268 11.21975,-24.7738231 25.60212,-24.7738231 h 105.57113 c 14.08118,0 25.07503,10.8432551 25.07503,24.7738231 v 93.748989 z"
     id="path8"
     inkscape:connector-curvature="0"
     style="fill:#ffab00;stroke-width:0.75300372" />
  <path
     d="m 296.44679,97.563141 h -13.47877 l -2.33432,-14.68357 -8.65954,14.532971 h -13.62937 l 8.28304,8.734848 -6.77703,14.68358 14.90949,-8.88544 11.67154,9.03603 -2.1837,-14.83417"
     id="path10"
     inkscape:connector-curvature="0"
     style="fill:#ffffff;stroke-width:0.75300372" />
  <path
     d="m 305.85933,94.626425 h -20.4064 l -3.23791,-20.331099 -11.89746,20.1805 h -2.25902 c -1.35541,-2.33431 -1.88251,-5.722823 -1.88251,-7.831236 0,-3.463821 0.22594,-6.85233 0.22594,-11.295057 0,-5.873428 -1.73191,-8.960747 -6.32524,-10.090249 v -0.150606 c 9.71375,-1.355401 14.15648,-7.831241 14.15648,-16.867283 0,-12.876365 -8.58424,-15.662477 -19.80401,-15.662477 h -30.19547 l -12.80107,60.541513 h 16.03898 l 4.66862,-22.063015 h 10.69265 c 5.72283,0 8.05714,2.786117 8.05714,8.132443 0,4.066218 -0.45179,7.304136 -0.45179,10.391451 0,1.12951 0.22597,3.840323 1.05419,4.894522 l 11.59626,12.273968 -10.01494,21.46062 21.3853,-12.72577 15.96369,12.27396 -2.93672,-20.25581 z m -58.20719,-34.86407 h -12.80106 l 3.08732,-14.608272 h 11.89746 c 4.21681,0 8.65954,1.1295 8.65954,6.24993 0,6.551131 -5.04513,8.358342 -10.84326,8.358342 m 27.10815,52.183175 -14.90949,8.88544 6.85233,-14.60828 -8.28303,-8.734844 h 13.62937 l 8.58423,-14.532971 2.33432,14.683571 h 13.55406 l -12.19866,8.508944 2.18372,14.90948 z"
     id="path12"
     inkscape:connector-curvature="0"
     style="fill:#040301;stroke-width:0.75300372" />
</svg>
