<?xml version="1.0" encoding="UTF-8" standalone="no"?>
<svg
   xmlns:dc="http://purl.org/dc/elements/1.1/"
   xmlns:cc="http://creativecommons.org/ns#"
   xmlns:rdf="http://www.w3.org/1999/02/22-rdf-syntax-ns#"
   xmlns:svg="http://www.w3.org/2000/svg"
   xmlns="http://www.w3.org/2000/svg"
   xmlns:sodipodi="http://sodipodi.sourceforge.net/DTD/sodipodi-0.dtd"
   xmlns:inkscape="http://www.inkscape.org/namespaces/inkscape"
   width="500"
   height="200"
   viewBox="0 0 500 200"
   version="1.1"
   id="svg44"
   sodipodi:docname="sg-1000.svg"
   inkscape:version="0.92.5 (2060ec1f9f, 2020-04-08)">
  <metadata
     id="metadata50">
    <rdf:RDF>
      <cc:Work
         rdf:about="">
        <dc:format>image/svg+xml</dc:format>
        <dc:type
           rdf:resource="http://purl.org/dc/dcmitype/StillImage" />
        <dc:title>mainlogo</dc:title>
      </cc:Work>
    </rdf:RDF>
  </metadata>
  <defs
     id="defs48" />
  <sodipodi:namedview
     pagecolor="#ffffff"
     bordercolor="#666666"
     borderopacity="1"
     objecttolerance="10"
     gridtolerance="10"
     guidetolerance="10"
     inkscape:pageopacity="0"
     inkscape:pageshadow="2"
     inkscape:window-width="1366"
     inkscape:window-height="743"
     id="namedview46"
     showgrid="false"
     inkscape:pagecheckerboard="true"
     inkscape:zoom="1.4609728"
     inkscape:cx="314.16177"
     inkscape:cy="58.75956"
     inkscape:window-x="0"
     inkscape:window-y="0"
     inkscape:window-maximized="1"
     inkscape:current-layer="svg44" />
  <title
     id="title2">mainlogo</title>
  <g
     id="SG-1000_logo"
     transform="matrix(1.0685806,0,0,1.0685806,-1.3689509,93.163171)"
     style="fill:#ff0000;fill-rule:nonzero;stroke:none;stroke-width:1">
    <path
       d="m 0,22.62368 v -9.405 C 0,4.8586799 4.17924,0.67867999 12.54,0.67867999 H 68.969999 V 13.21868 H 12.54 v 9.405 h 43.889999 c 8.36,0 12.54,4.18 12.54,12.54 v 9.404999 c 0,8.36076 -4.18,12.54 -12.54,12.54 H 0 v -12.54 H 56.429999 V 35.16368 H 12.54 C 4.17924,35.16368 0,30.98444 0,22.62368 Z"
       id="Path"
       inkscape:connector-curvature="0" />
    <path
       d="M 75.239999,44.568679 V 13.21868 c 0,-8.3600001 4.17924,-12.54000001 12.54,-12.54000001 H 144.21 V 13.21868 H 87.779999 V 44.568679 H 131.67 V 35.16368 h -25.08 v -12.54 h 37.62 V 57.108679 H 87.779999 c -8.36076,0 -12.54,-4.17924 -12.54,-12.54 z"
       id="path5"
       inkscape:connector-curvature="0" />
    <polygon
       id="polygon7"
       points="150.48,35.16368 150.48,22.62368 172.425,22.62368 172.425,35.16368 " />
    <polygon
       id="polygon9"
       points="213.18,0.67867999 213.18,44.568679 231.99,44.568679 231.99,57.108679 178.695,57.108679 178.695,44.568679 197.505,44.568679 197.505,13.21868 178.695,13.21868 178.695,0.67867999 " />
    <path
       d="m 310.365,44.568679 c 0,8.36076 -4.18,12.54 -12.54,12.54 H 250.8 c -8.36076,0 -12.54,-4.17924 -12.54,-12.54 V 13.21868 c 0,-8.3600001 4.17924,-12.54000001 12.54,-12.54000001 h 47.025 c 8.36,0 12.54,4.17999991 12.54,12.54000001 z m -12.54,0 V 13.21868 H 250.8 v 31.349999 z"
       id="Shape"
       inkscape:connector-curvature="0" />
    <path
       d="m 388.74,44.568679 c 0,8.36076 -4.18,12.54 -12.54001,12.54 H 329.175 c -8.36,0 -12.54,-4.17924 -12.54,-12.54 V 13.21868 c 0,-8.3600001 4.18,-12.54000001 12.54,-12.54000001 h 47.02499 c 8.36001,0 12.54001,4.17999991 12.54001,12.54000001 z m -12.54001,0 V 13.21868 H 329.175 v 31.349999 z"
       id="path12"
       inkscape:connector-curvature="0" />
    <path
       d="m 467.11499,44.568679 c 0,8.36076 -4.18,12.54 -12.54,12.54 H 407.55 c -8.36001,0 -12.54001,-4.17924 -12.54001,-12.54 V 13.21868 c 0,-8.3600001 4.18,-12.54000001 12.54001,-12.54000001 h 47.02499 c 8.36,0 12.54,4.17999991 12.54,12.54000001 z m -12.54,0 V 13.21868 H 407.55 v 31.349999 z"
       id="path14"
       inkscape:connector-curvature="0" />
  </g>
  <g
     style="fill:none;fill-rule:nonzero;stroke:none;stroke-width:1"
     id="SEGA_logo"
     transform="matrix(1.0685806,0,0,1.0685806,-1.3689509,30.116919)">
    <path
       d="m 68.109922,41.883952 c 2.538087,2.464819 5.999155,3.988685 9.816422,3.988685 l 60.313646,0.0069 L 125.2141,7.0193655 C 123.43495,2.8910585 119.26102,-5.6249995e-7 114.24798,-5.6249995e-7 109.25613,-5.6249995e-7 105.01908,2.9855225 103.30629,7.0967799 L 98.964167,19.755416 98.947117,0.65387461 77.884411,0.64327621 c -3.807129,0 -7.22949,1.48561909 -9.750066,3.94306539 l 0.0074,-3.92601579 H 46.575818 c -4.016793,0 -7.670016,1.71279349 -10.225151,4.40478699 V 0.64327621 L 16.02478,0.66078661 C 7.2502268,0.65341381 0.0525312,7.5124215 0.0419328,16.580965 c 0,4.198348 1.8349055,8.005939 4.5407229,10.826956 L 0,27.400548 v 18.472089 l 20.478872,-0.0037 c 5.75401,-0.0069 11.455948,-3.478579 13.437849,-7.63822 l 0.05944,-0.170957 c 2.289715,4.624589 7.068211,7.812864 12.598732,7.812864 l 21.534565,-0.0037 v -3.984998"
       id="path17"
       inkscape:connector-curvature="0"
       style="fill:#ffffff" />
    <path
       d="M 3.1638526,42.71201 20.433253,42.6945 c 7.065446,0 12.791347,-5.70839 12.791347,-12.74204 0,-7.047475 -5.725901,-12.756326 -12.791347,-12.756326 l -4.484966,0.02442 c -0.353434,0 -0.640051,-0.289843 -0.640051,-0.646502 0,-0.356659 0.286617,-0.646963 0.640051,-0.646963 l 17.238066,0.0037 0.0069,-5.407948 H 15.944601 c -3.33481,0 -6.048,2.709043 -6.048,6.037401 0,3.331584 2.712729,6.030028 6.048,6.030028 l 4.506163,0.05944 c 4.048127,0 7.323954,3.264767 7.323954,7.29262 0,4.030617 -3.275366,7.302758 -7.323954,7.302758 H 3.1707646 l -0.00691,5.466931"
       id="path19"
       inkscape:connector-curvature="0"
       style="fill:#0060a8" />
    <path
       d="M 3.1707646,35.975575 H 20.450764 c 3.345407,0 6.051225,-2.698445 6.051225,-6.033715 0,-3.331584 -2.705818,-6.026803 -6.051225,-6.026803 l -4.506163,-0.04885 c -4.041216,0 -7.3202687,-3.268454 -7.3202687,-7.306444 0,-4.026931 3.2790527,-7.2958458 7.3202687,-7.2958458 l 17.248664,-0.00369 -0.0069,-5.4286846 H 15.948287 c -7.0580731,0 -12.7913464,5.701939 -12.7913464,12.7425014 0,7.040563 5.7332733,12.745727 12.7913464,12.745727 l 4.460544,0.0069 c 0.339149,0 0.625766,0.27648 0.625766,0.625767 0,0.342835 -0.286617,0.618854 -0.625766,0.618854 l -17.2449784,0.01382 0.00691,5.390438"
       id="path21"
       inkscape:connector-curvature="0"
       style="fill:#0060a8" />
    <path
       d="m 46.613604,37.279639 c -2.996122,0 -5.450343,-2.387866 -5.450343,-5.436518 V 14.591692 c 0,-2.932992 2.454221,-5.3452802 5.450343,-5.3452802 l 18.433381,0.00323 V 3.8315512 H 46.613604 c -5.998694,0 -10.85783,4.8416254 -10.85783,10.8195838 v 17.192447 c 0,5.978419 4.859136,10.826956 10.85783,10.826956 l 18.356427,0.0074 -0.0037,-5.404723 -18.352741,0.0065"
       id="path23"
       inkscape:connector-curvature="0"
       style="fill:#0060a8" />
    <path
       d="m 42.484836,14.651135 c 0,-2.286029 1.839053,-4.138906 4.128768,-4.138906 h 18.433381 v 5.425459 H 49.165514 c -1.272269,0 -1.289779,1.262131 -1.289779,1.262131 h 13.249381 v 5.401037 H 42.478385 l 0.0065,-7.949721"
       id="path25"
       inkscape:connector-curvature="0"
       style="fill:#0060a8" />
    <path
       d="m 46.613604,35.965437 c -2.282803,0 -4.13568,-1.842278 -4.13568,-4.121855 v -7.956634 h 18.646732 v 5.412096 H 47.875274 c 0.01751,1.272269 1.289779,1.27872 1.289779,1.27872 h 15.804518 l -0.0037,5.380301 -18.35228,0.0074"
       id="path27"
       inkscape:connector-curvature="0"
       style="fill:#0060a8" />
    <path
       d="m 77.964591,37.265815 c -2.985524,0 -5.425459,-2.433024 -5.425459,-5.422694 V 14.650674 c 0,-2.992435 2.422425,-5.404723 5.411174,-5.404723 H 95.804001 V 3.8315512 H 77.908834 c -5.99593,0 -10.855065,4.8416254 -10.855065,10.8195838 v 17.192447 c 0,5.978419 4.901068,10.826956 10.896537,10.826956 l 17.853695,0.0074 V 17.199819 H 80.460744 v 5.401037 h 9.921023 V 37.265815 H 77.964591"
       id="path29"
       inkscape:connector-curvature="0"
       style="fill:#0060a8" />
    <path
       d="m 73.8114,31.843121 c 0,2.290637 1.852877,4.153651 4.138906,4.153651 h 11.15182 V 23.880036 h -8.628019 v 5.419008 h 3.202099 l 0.01014,1.272269 H 80.49853 c -0.695808,0 -1.265357,-0.576461 -1.265357,-1.272269 l -0.02857,-12.102911 c 0,0 -0.0037,-1.258445 1.279642,-1.289779 h 15.325746 l -0.0069,-5.397811 -17.853695,0.0037 c -2.286029,0 -4.138905,1.852877 -4.138905,4.138906 v 17.191986"
       id="path31"
       inkscape:connector-curvature="0"
       style="fill:#0060a8" />
    <path
       d="m 112.58034,10.431589 c 0.24054,-0.6884348 0.89442,-1.1847164 1.66718,-1.1847164 0.77322,0 1.43355,0.4962816 1.66764,1.1847164 l 8.66672,25.603429 h -12.69043 l 0.0138,-6.023116 h 4.24075 l -1.9091,-5.67383 -6.21895,18.335231 h -6.39729 l 10.95966,-32.241714"
       id="path33"
       inkscape:connector-curvature="0"
       style="fill:#0060a8" />
    <path
       d="m 126.32923,37.265815 h -14.41658 v 5.407488 h 21.9396 L 122.44193,8.914175 c -0.99994,-3.2928766 -4.29604,-5.7153021 -8.1981,-5.7153021 -3.90804,0 -7.19401,2.4118271 -8.20132,5.7019389 L 94.527585,42.673763 h 5.743875 L 111.45139,9.8445302 c 0.45388,-1.0870272 1.52432,-1.8528767 2.78277,-1.8528767 1.25153,0 2.32796,0.7658495 2.78599,1.8459647 l 9.30908,27.4281968"
       id="path35"
       inkscape:connector-curvature="0"
       style="fill:#0060a8" />
    <path
       d="m 129.71703,8.1280502 c 1.02114,0 1.98237,-0.3985919 2.7026,-1.1151359 0.71977,-0.7234559 1.12204,-1.6777727 1.12204,-2.6984447 0,-1.0137599 -0.40227,-1.9648511 -1.12204,-2.6883071 -0.72023,-0.71285751 -1.68146,-1.11144948 -2.7026,-1.11144948 -2.10078,0 -3.81726,1.70265588 -3.81726,3.80021738 0,1.020672 0.39859,1.9749888 1.12527,2.6984447 0.71701,0.7160832 1.67455,1.1146751 2.69199,1.1146751 m -3.27859,-3.8140414 c 0,-0.8704512 0.33547,-1.6952831 0.96077,-2.3141375 0.62254,-0.6188543 1.44737,-0.9543167 2.31782,-0.9543167 0.88105,0 1.70589,0.3359232 2.32843,0.9543167 0.61885,0.6188544 0.96169,1.4436863 0.96169,2.3141375 0,1.8072576 -1.47548,3.2753663 -3.29012,3.2753663 -0.87091,0 -1.69574,-0.3391488 -2.31782,-0.9580032 -0.62577,-0.6183935 -0.96077,-1.4399999 -0.96077,-2.3173631 z"
       id="path37"
       inkscape:connector-curvature="0"
       style="fill:#ffffff" />
    <path
       d="m 128.7383,4.6356473 v 1.7966591 h -0.5525 V 2.2095353 h 1.56948 c 0.59121,0.00691 0.93727,0.00691 1.26582,0.2548224 0.31795,0.2345472 0.45112,0.58752 0.45112,0.9791999 0,0.986112 -0.80363,1.115136 -1.00731,1.1570688 l 1.18887,1.83168 h -0.6677 l -1.15707,-1.7966591 h -1.09071 m 0,-0.4649473 h 1.12204 c 0.17879,0 0.34653,0 0.51426,-0.041933 0.39168,-0.094464 0.5313,-0.3741696 0.5313,-0.6815232 0,-0.1119743 -0.0106,-0.3949055 -0.25206,-0.5907455 -0.22072,-0.1852416 -0.49997,-0.1783296 -0.82483,-0.1783296 h -1.09071 z"
       id="path39"
       inkscape:connector-curvature="0"
       style="fill:#ffffff" />
  </g>
</svg>
