<?xml version="1.0" encoding="UTF-8" standalone="no"?>
<!-- Created with Inkscape (http://www.inkscape.org/) -->

<svg
   xmlns:dc="http://purl.org/dc/elements/1.1/"
   xmlns:cc="http://creativecommons.org/ns#"
   xmlns:rdf="http://www.w3.org/1999/02/22-rdf-syntax-ns#"
   xmlns:svg="http://www.w3.org/2000/svg"
   xmlns="http://www.w3.org/2000/svg"
   xmlns:sodipodi="http://sodipodi.sourceforge.net/DTD/sodipodi-0.dtd"
   xmlns:inkscape="http://www.inkscape.org/namespaces/inkscape"
   version="1.1"
   id="svg2"
   xml:space="preserve"
   width="500"
   height="200"
   viewBox="0 0 500 200"
   sodipodi:docname="simpsons.svg"
   inkscape:version="0.92.5 (2060ec1f9f, 2020-04-08)"><metadata
     id="metadata8"><rdf:RDF><cc:Work
         rdf:about=""><dc:format>image/svg+xml</dc:format><dc:type
           rdf:resource="http://purl.org/dc/dcmitype/StillImage" /><dc:title /></cc:Work></rdf:RDF></metadata><defs
     id="defs6" /><sodipodi:namedview
     pagecolor="#ffffff"
     bordercolor="#666666"
     borderopacity="1"
     objecttolerance="10"
     gridtolerance="10"
     guidetolerance="10"
     inkscape:pageopacity="0"
     inkscape:pageshadow="2"
     inkscape:window-width="1366"
     inkscape:window-height="743"
     id="namedview4"
     showgrid="false"
     inkscape:pagecheckerboard="true"
     inkscape:zoom="0.72118416"
     inkscape:cx="18.622308"
     inkscape:cy="59.228882"
     inkscape:window-x="0"
     inkscape:window-y="0"
     inkscape:window-maximized="1"
     inkscape:current-layer="g10" /><g
     id="g10"
     inkscape:groupmode="layer"
     inkscape:label="ink_ext_XXXXXX"
     transform="matrix(1.3333333,0,0,-1.3333333,0,199.99999)"><path
       inkscape:connector-curvature="0"
       id="path14"
       style="fill:#ffffff;fill-opacity:1;fill-rule:nonzero;stroke:none;stroke-width:0.07239724"
       d="m 224.66914,139.80635 c 4.61138,-4.7153 1.5765,-12.43587 2.29287,-17.61529 -1.33407,-2.91149 -4.00222,-6.23582 -7.71853,-7.43252 -0.48872,-1.03143 -1.7148,-0.91541 -2.47157,-1.76538 4.45519,-0.50189 7.26244,2.88923 11.57235,3.38639 1.40401,1.55086 3.83052,4.43064 6.83355,3.36616 1.47315,-0.22666 2.89427,-1.53333 3.74661,-2.50741 -0.21832,-1.4571 -0.554,-2.79546 -1.8663,-3.81004 1.46616,-5.93563 -5.66653,-8.8181 -10.43486,-11.19667 -2.12428,-0.36495 -3.69845,-1.97652 -6.12495,-1.82204 -3.72097,-0.682675 -7.52041,-0.450619 -11.27633,0.44118 -7.33161,0.4297 -12.26932,6.26077 -16.22105,10.48769 -0.31312,1.18321 -0.34498,2.25983 -0.79718,3.39786 -4.17007,-3.79856 1.80959,-8.02616 -0.83292,-11.97649 1.63631,-1.04695 0.0987,-2.64301 -0.52369,-3.807332 -1.16081,-1.117105 -3.15766,-1.7249 -5.04727,-2.253096 -1.89662,0.400699 -3.99369,0.0026 -5.16848,1.773469 -0.89663,3.349289 -1.7016,6.108319 -1.04427,9.792869 -0.87099,0.966 -2.59822,0.002 -3.71008,0.65907 -0.0987,-3.22247 1.44285,-7.81973 -2.11572,-10.150401 0.45531,-1.055044 -0.46154,-2.0062 -1.51123,-2.462217 -2.54384,-0.437803 -5.66963,0.273879 -7.23138,2.228811 -1.74664,3.165127 0.72882,8.499707 -3.90587,9.962197 -3.80954,1.40313 0.77076,7.09658 -4.40393,5.92213 -1.5967,-0.4857 -3.29207,-1.41189 -5.20113,-0.94846 -0.13052,-0.20709 -0.39702,-0.33999 -0.5229,-0.53764 -1.39003,-5.35683 3.06364,-12.61396 -4.16774,-16.06174 -2.24391,-1.299241 -4.94392,-1.378167 -7.14278,-0.232055 -3.64793,4.015775 -2.0458,10.686685 -2.25635,15.330495 -1.81192,1.46115 -4.98978,0.17539 -7.14978,0.90124 -2.97817,0.32853 -5.96178,0.78522 -8.43414,2.37857 -1.56795,1.74176 -3.80176,3.44238 -2.53762,5.77441 0.58896,1.59335 1.30533,3.69736 3.73807,4.1399 4.75589,1.76537 10.09298,-0.72316 14.76731,0.65231 0.0195,2.05679 0.46384,4.54937 2.98904,5.40541 3.10248,-0.14436 7.49398,5.16795 9.97177,0.29276 0.75135,-1.87465 -1.09554,-3.66567 0.59516,-5.30557 2.76217,1.75324 7.27955,0.23206 9.56698,2.71383 4.92996,-1.61763 0.763,4.56691 5.6238,4.35442 1.15771,1.14139 1.34884,2.7199 2.78314,3.83566 2.37523,1.20277 4.4723,-0.825 5.8802,-2.25444 0.54621,-2.6059 0.92772,-5.95251 -0.038,-8.48217 3.30061,-1.65475 -2.12116,-7.17686 3.92608,-6.52994 1.86943,5.72988 -5.40235,12.11479 0.88499,17.06216 2.1064,0.28602 1.74665,2.38328 3.35966,2.98569 1.71635,0.7218 3.63937,0.20844 5.2555,-0.27119 0.83604,-0.54843 1.00152,-1.29114 1.72102,-1.85779 1.16781,-5.46274 -0.34809,-11.28234 0.94325,-16.45232 0.9487,6.35318 5.41479,11.68507 10.35016,16.82738 2.71945,1.73705 6.20188,2.58634 9.1039,4.23636 2.50345,1.06989 5.68907,1.50433 8.68743,1.05775 1.9378,-1.38897 3.18719,-2.39138 5.26328,-3.63397" /><path
       inkscape:connector-curvature="0"
       id="path16"
       style="fill:#ff0000;fill-opacity:1;fill-rule:nonzero;stroke:none;stroke-width:0.07239724"
       d="m 223.7018,139.56418 c 0.22222,-1.43483 1.22063,-3.14894 1.81814,-4.72206 0.42034,-2.73406 -0.16861,-5.31501 -0.35042,-7.97218 -4.22134,-4.20735 -9.08525,-10.64892 -17.35932,-9.23634 -2.1103,-0.62939 -0.96657,-2.90609 -0.77077,-4.01307 1.56485,-2.27267 4.92451,-2.08177 7.25234,-2.9911 6.08222,-0.47962 9.10545,4.46303 15.00585,4.43874 1.97742,1.24662 2.33405,3.03359 4.32156,3.56178 1.2292,-0.17269 2.3325,-1.06449 3.2913,-1.45979 -0.44599,-5.32311 -8.35799,-6.66417 -12.50862,-10.22055 -4.00457,-0.58082 -8.37819,-2.67337 -12.46356,-0.91137 -6.13894,-1.08472 -7.72631,3.84848 -11.54983,6.50025 -0.91063,2.16608 -0.62858,4.71329 -1.23385,6.9529 -3.27498,3.89097 1.55241,7.42712 2.36902,11.20814 4.35809,4.68563 7.78613,13.18196 17.28317,11.60344 1.72102,-0.62396 3.00614,-2.68617 4.89499,-2.73879" /><path
       inkscape:connector-curvature="0"
       id="path18"
       style="fill:#ff0000;fill-opacity:1;fill-rule:nonzero;stroke:none;stroke-width:0.07239724"
       d="m 188.6848,137.39136 c 1.50578,-6.38085 -2.10173,-13.57996 2.67126,-18.70744 1.00698,-1.6325 -1.22065,-2.89733 -1.66352,-4.26133 -1.7653,-3.48757 0.89819,-6.61088 0.66199,-10.16996 -0.87565,-1.45574 -2.65184,-1.2844 -4.51193,-1.14341 -1.81813,0.77982 -0.54,3.21977 -1.40866,4.51901 -1.44441,2.05274 1.46926,6.69857 -3.50652,6.53803 -1.30688,-1.01727 -3.49953,-0.41015 -5.23997,-0.71304 -4.27651,-3.79451 1.21365,-8.61033 -2.69224,-12.58765 -1.45373,-0.38519 -2.56792,0.56394 -3.29207,1.45304 0.13675,3.42552 -0.80107,6.49014 -1.60991,9.59051 -1.10952,1.15554 -4.89265,1.40042 -3.11413,3.88287 0.44908,2.28952 4.36897,2.23691 4.37829,4.65055 1.01241,4.80099 0.0303,9.53924 0.0955,14.27547 0.75134,1.03344 1.82124,1.28237 3.16078,1.20547 0.10027,-2.79007 2.80023,-5.56259 0.62079,-8.27643 1.735,-2.40352 0.2129,-4.9568 1.2525,-7.56541 1.44129,-2.06692 5.00297,-1.51645 7.43571,-1.13599 0.79639,0.45736 1.627,0.62466 2.25014,1.4038 -1.67517,4.93118 -0.20435,11.81798 -0.99531,17.44666 1.27969,1.72219 4.65177,1.46518 5.50724,-0.40475" /><path
       inkscape:connector-curvature="0"
       id="path20"
       style="fill:#ffffff;fill-opacity:1;fill-rule:nonzero;stroke:none;stroke-width:0.07239724"
       d="m 219.48356,134.90418 c 2.70234,-3.90513 -2.53761,-6.71273 -3.86081,-10.22055 -3.1126,0.0594 -5.94003,-3.48083 -9.01842,-0.78116 -0.92151,2.84335 2.47467,5.37707 2.89347,8.39515 1.67284,2.33201 6.96719,6.94074 9.98576,2.60656" /><path
       inkscape:connector-curvature="0"
       id="path22"
       style="fill:#ff0000;fill-opacity:1;fill-rule:nonzero;stroke:none;stroke-width:0.07239724"
       d="m 148.99659,127.81031 c -1.01864,-0.67998 0.7389,-1.30936 -0.15617,-1.89962 4.111,-2.76847 8.70762,0.91136 13.11467,1.35793 1.5019,-0.90327 1.20897,-2.90878 0.85234,-4.1237 -3.09393,-3.08013 -7.76826,-4.69306 -12.73006,-4.91568 -2.35893,-0.98285 -1.9883,-3.25282 -1.39624,-4.82324 0.94403,-3.72773 0.0529,-8.49161 0.0785,-12.15727 -0.47475,-1.462492 -2.21829,-1.511062 -3.38997,-2.304367 -2.28977,0.901239 -2.83288,3.314887 -2.09397,5.246207 0.20435,4.41782 0.11966,7.30098 -0.4693,11.69182 -2.84531,3.33781 -8.67732,0.8385 -12.50862,2.51011 -2.52674,-0.60982 -4.48939,0.76295 -5.88407,2.02508 -0.83605,0.98287 0.35353,1.88006 0.58894,2.90003 1.17014,0.81287 3.0248,1.20008 4.52981,0.68874 4.41169,0.69751 10.72777,-2.22746 13.36486,1.95695 0.47861,1.64395 -1.37139,4.47921 1.82589,4.80369 1.21521,0.37776 2.61144,1.93132 3.83752,1.01727 -0.32867,-1.57852 0.79407,-2.19104 0.43589,-3.97395" /><path
       inkscape:connector-curvature="0"
       id="path24"
       style="fill:#ffffff;fill-opacity:1;fill-rule:nonzero;stroke:none;stroke-width:0.07239724"
       d="m 215.27232,126.58999 c -2.73342,0.69886 -4.98977,-4.15002 -6.45126,-0.96262 2.29752,0.37237 1.76062,3.14084 4.03642,3.5294 0.9821,-0.62062 3.81264,-0.97073 2.41484,-2.56678" /><path
       inkscape:connector-curvature="0"
       id="path26"
       style="fill:#ffffff;fill-opacity:1;fill-rule:nonzero;stroke:none;stroke-width:0.07239724"
       d="m 99.91031,118.38929 c 3.57055,-0.7879 6.65128,-4.1318 7.32025,-7.15998 -0.0195,-2.80086 1.21754,-6.63921 -1.7785,-8.8235 -0.40015,-1.4544 1.06136,-3.504445 -1.18024,-4.340924 -3.43581,-1.0031 -9.1979,-2.072984 -12.26636,0.516055 -2.34462,1.599429 -0.75732,4.962209 -3.22331,6.206809 -7.00192,0.23205 -14.40904,0.37034 -20.468562,-2.72193 -3.089745,-0.20035 -5.161176,-2.03791 -8.36475,-1.76133 -6.651348,-2.015643 -14.195061,-5.890767 -14.718591,-12.213671 -2.338559,-2.702232 3.453916,-2.304365 2.485719,-5.241149 5.40546,-3.682531 10.202466,-8.872005 17.010144,-10.632524 0.01057,-0.225579 0.02579,-0.355774 0.01973,-0.561249 8.70157,-2.632482 15.84312,-8.839156 24.68734,-11.433657 3.94256,-1.743047 7.58163,-4.338899 11.19794,-6.836664 2.6314,6.706537 1.88784,12.545564 2.1109,19.981527 -1.35817,3.134907 -0.96213,7.05408 0.81653,9.826739 1.41255,1.039527 2.88182,1.762609 4.49173,2.281697 1.24318,-1.527045 1.79249,1.15812 3.15221,0.841878 2.83598,0.293846 5.68907,-0.67195 6.85608,-2.899614 0.57652,-3.536284 3.66036,-6.831471 1.78007,-10.548474 0.60838,-4.31731 1.33407,-9.044631 -1.0637,-13.085566 0.27585,-0.237384 0.56877,-0.652185 0.9759,-0.553898 2.6736,7.286272 2.31852,15.495841 6.48858,22.244269 1.25483,1.356042 2.85619,2.158185 4.72249,2.355768 3.01857,-1.457159 3.42572,1.442725 5.43188,2.430849 3.32159,0.822177 5.75433,-0.113266 8.48852,-1.250334 2.91834,-1.567859 1.95643,-4.709917 4.04031,-6.305972 0.57652,2.35968 2.22449,4.384769 4.61604,5.47887 0.80572,0.230031 1.47316,-0.182136 1.6301,-0.513894 1.76142,-0.06611 3.47621,4.613789 6.12728,1.84828 2.55316,-0.05929 4.80019,-1.865888 5.92916,-3.596859 0.97587,-3.948991 -1.13829,-8.121333 1.16081,-11.593329 1.81191,1.738392 7.10393,0.980772 6.28112,3.841192 -0.78166,5.727048 -0.65967,12.615115 6.49555,15.574362 4.36897,1.823457 9.3704,3.96707 14.40912,2.874857 5.58106,-1.926264 8.74492,-6.486288 11.08054,-10.499498 0.89897,4.241152 4.80175,7.104203 9.29347,8.70633 2.28277,0.245074 4.32234,0.785211 6.0993,2.018478 4.66345,1.355702 9.12954,4.625998 14.39203,3.423222 2.91679,-1.54445 3.96106,-4.399542 4.47231,-7.046459 -0.48096,-0.872231 -1.93467,-1.716805 -0.81894,-2.665399 1.3939,-0.760251 1.03027,-2.411082 0.67209,-3.396645 -3.16154,-1.997362 -7.76127,-1.155487 -11.45892,-2.245068 -1.18413,-0.683823 -4.85925,0.171546 -4.78776,-2.027653 1.519,-0.839311 2.01315,-2.366358 2.72177,-3.692041 2.0854,-1.664864 4.0706,-3.519959 6.01927,-5.339975 3.67046,4.53945 5.13818,11.773508 13.4814,12.117679 1.61612,-0.467753 4.96724,0.276376 6.11718,-1.445084 3.41638,-1.440363 7.73175,-1.68645 10.27247,-4.450946 1.65886,-1.479286 1.35971,-3.749921 2.37756,-5.486223 0.72571,1.942049 2.86551,4.858865 5.99442,5.179289 3.08694,-0.03426 6.97341,2.976315 9.01609,-0.508564 1.89351,-0.08567 3.40239,-0.992375 4.9346,-1.700684 0.98211,0.994465 0.64102,2.654539 0.21445,3.713561 -1.69227,2.200547 -5.53288,3.730495 -4.1856,6.733185 2.19731,2.514901 4.11723,4.814003 5.49948,7.587404 1.05047,0.694344 1.94089,1.50728 3.43115,1.225373 4.39227,-2.087014 6.30365,-6.560085 8.89876,-10.134549 1.08079,2.665399 3.01858,5.090986 4.50884,7.647037 5.79238,6.602247 14.9157,11.075386 25.71186,9.535995 3.00149,-0.700889 5.50724,-2.931049 7.55847,-4.543902 -0.21522,-3.752351 1.59671,-8.587671 -2.06212,-10.697082 2.0396,-1.257215 -0.30923,-2.09221 0.56334,-3.724963 -2.25404,-1.408388 -3.63007,-4.539652 -7.00683,-3.44771 -2.05201,0.86434 -4.51737,1.567858 -4.74502,3.640101 -0.0171,0.877762 0.19113,2.225303 -1.28902,2.078312 -2.21673,-1.180515 -4.92684,-1.156835 -6.75119,-2.888618 0.24319,-2.521512 3.84994,-4.761049 6.47536,-6.401628 2.1367,-2.408182 7.47379,-1.878839 6.95787,-5.678612 2.90746,-1.694613 1.82435,-4.45958 1.22919,-6.811907 -1.14838,-1.486235 -2.27346,-3.180037 -1.6845,-4.815084 -2.22138,-8.248088 -11.51175,-10.947689 -19.75709,-13.676565 -4.5601,-0.649554 -9.37972,-0.586076 -12.70442,2.067721 -1.15225,1.437461 -2.02326,3.086743 -2.11105,4.933945 1.37914,1.707226 3.23069,3.537294 5.94545,3.144688 0.13054,2.689617 3.80644,2.220042 5.78386,3.053216 1.97741,0.934967 4.92761,1.367373 5.63001,3.592677 0.67985,6.028788 -9.67886,6.028788 -11.14347,11.964619 -0.25641,-0.217418 -0.36752,-0.345522 -0.64335,-0.553427 0.59206,-4.413708 1.20354,-9.953964 -1.96809,-13.156938 -3.86082,-2.072174 -4.69996,-6.734937 -9.8428,-6.350495 -2.90203,1.783658 -4.22522,4.500933 -6.37512,6.987974 -2.20819,-1.80848 -3.44049,-4.384769 -6.60591,-5.830933 -0.29913,-2.216062 -3.24934,-2.761798 -5.39536,-3.285947 -1.76297,0.29884 -3.25944,1.23981 -3.59509,2.806389 -1.10875,4.037966 2.67438,6.799561 1.18412,10.637246 -1.30689,-0.948324 -1.09554,-2.80605 -2.40398,-4.04613 -3.25788,-2.327841 -4.32467,-5.769007 -8.14276,-8.220902 -1.60447,-0.151781 -1.96577,-0.946571 -3.42961,-1.440362 -4.80019,-0.903803 -9.76122,-1.507013 -13.24675,2.062189 -3.32782,1.963163 -3.71786,4.825877 -5.82891,7.449386 1.43974,-5.591661 -6.34018,-6.498092 -9.98577,-9.054143 -6.09853,-2.613998 -13.26462,-1.628436 -19.15725,0.542295 -2.57415,1.331013 -1.89662,4.239059 -2.12195,6.23514 0.7226,2.454055 3.31461,4.183205 6.24229,4.72469 -0.2533,0.434498 0.2696,0.780016 0.63089,1.113057 1.84689,0.736776 4.0341,1.121219 5.99131,1.751277 0.49806,0.770505 0.19113,2.196364 -0.66588,3.201623 -3.53293,0.669048 -5.37049,3.247494 -7.06897,5.302805 -0.97278,-3.139428 0.16704,-7.093881 -3.55391,-9.047533 -2.00151,0.364949 -3.16542,-0.997635 -4.773,-1.49669 -3.73262,-0.355773 -7.28265,-1.857994 -11.20097,-1.447716 -1.23384,-3.917352 -0.002,-9.731624 -6.01382,-11.005972 -2.79404,-0.553088 -5.55231,0.288855 -6.79549,1.867238 -3.91831,3.215856 2.24159,10.522163 -6.00685,11.010693 -2.01626,-2.711271 -0.53377,-6.325534 -2.19575,-9.121061 -1.22918,-1.815834 0.51281,-4.529735 -2.261,-5.925508 0.70549,-1.422689 -1.47939,-0.858741 -1.98364,-1.639837 -3.19417,-0.48907 -5.64012,0.402656 -7.74107,2.097269 -4.60517,4.527104 -0.4856,11.160856 -0.65966,16.237069 -2.45682,-3.181318 -3.13201,-8.499167 -9.07824,-8.765557 -1.64642,1.269086 -4.75591,1.511732 -5.24775,3.584244 -2.50653,-1.632685 -0.8842,-5.224082 -3.94083,-6.545515 -0.26418,-2.10678 -1.83446,-3.919984 -4.04421,-5.190353 -3.22602,-0.754652 -4.87865,1.072784 -7.47378,1.101723 -2.07142,1.465121 -3.34334,3.878836 -5.04105,5.686507 -1.83522,-1.713837 -1.45374,-4.557327 -4.60284,-5.443792 0.99842,-1.946028 -1.41177,-2.793435 -2.67126,-4.241691 -2.62077,-1.429501 -5.39147,-0.06274 -7.81178,0.487722 -4.22203,4.453576 -2.41011,-3.582087 -6.04615,-4.362576 -0.12439,-6.297863 -7.9883,-8.747957 -13.67153,-10.787772 -4.37355,-1.611612 -9.18415,-2.184214 -13.800515,-0.995794 -12.043213,1.859836 -23.72676,-1.056929 -34.718328,3.275139 -2.282384,0.476947 -4.868255,1.488817 -5.906256,3.472756 -0.623705,1.951561 -1.824087,4.259906 -0.962121,6.413769 1.400689,1.889634 3.736209,3.961877 7.259898,3.838563 2.194351,2.052679 6.062631,3.156292 9.559047,2.534937 5.04432,-1.756539 10.901982,-3.033519 16.46377,-1.403734 5.262886,-0.08642 11.208585,-0.44529 15.876535,-0.07353 0.27318,0.214515 0.66618,0.559967 0.93028,0.782646 -5.78339,3.272995 -12.314851,4.719159 -18.371421,7.424291 -4.1626,3.645429 -10.537812,5.426994 -14.870338,9.210714 -10.073486,5.761585 -24.091001,12.939789 -20.420065,25.328582 1.695092,4.147655 3.120068,8.844957 7.848738,11.653908 1.740594,3.39246 5.572434,4.34902 8.158307,7.12221 12.566742,6.09887 24.107635,12.54719 39.122189,14.22149 6.45865,-0.48097 13.56834,0.0593 18.56565,-3.99824" /><path
       inkscape:connector-curvature="0"
       id="path28"
       style="fill:#ee2432;fill-opacity:1;fill-rule:nonzero;stroke:none;stroke-width:0.07239724"
       d="m 94.36368,119.33506 c 4.03362,-2.53373 11.46522,-3.63262 11.2966,-9.27143 -0.0489,-2.13167 1.1414,-5.2833 -1.92302,-6.16228 -5.98034,-1.06719 -0.18181,5.44251 -6.4007,5.69683 -11.52427,5.07958 -25.71777,0.55382 -36.76093,-2.69428 -3.186866,-3.70479 -10.144813,-1.61764 -12.619888,-6.55961 -4.956286,-0.773741 -5.60732,-5.253356 -6.378241,-8.588074 0.937817,-2.826086 0.946986,-6.505986 4.244573,-7.864387 1.233769,-3.951554 6.847148,-6.080392 9.62882,-9.29888 2.470568,-1.028263 5.124736,-2.96606 7.983795,-3.756871 C 74.72819,64.864226 87.556,60.380091 98.34571,53.314677 c -0.1017,-1.247973 1.76188,-0.943872 2.0942,-2.064821 1.15793,-4.942106 -0.71631,-9.084701 -5.28558,-12.290305 -3.95173,-2.02374 -8.43452,-0.82292 -11.8262,-3.613724 -3.59051,-1.084084 -8.20686,0.669318 -11.940026,-0.928877 -5.253715,-0.0095 -9.59844,1.622952 -14.84765,1.479334 -5.558757,0.934428 -11.879269,1.420597 -16.969119,4.01638 -1.692109,1.171004 -1.083578,3.638752 -0.924218,5.283309 1.707261,1.479354 5.33724,1.586073 8.030879,1.227736 3.934945,-1.09201 7.897239,-1.968424 12.355793,-1.716806 7.464772,1.65488 15.088901,-1.434763 21.825251,1.440363 2.44633,0.07353 5.17182,-0.953923 7.14917,-0.0203 2.03351,-0.491161 3.06394,0.988192 4.77571,0.918846 1.73911,1.151574 -0.35811,2.21586 -1.03797,3.173695 -5.43133,0.731515 -5.68168,7.051452 -11.79738,5.749512 -7.34799,4.518335 -15.667126,6.817439 -23.057542,10.679949 -2.211055,1.369464 -3.018417,4.332353 -6.648318,3.778928 -3.138307,1.354691 -4.602761,4.517864 -7.98838,5.40217 -1.167025,1.981376 -5.243071,2.166075 -5.047348,4.628292 -2.374922,1.788918 -2.082079,4.562656 -4.180821,6.508616 -2.211065,4.589032 1.825633,7.992219 2.050182,12.233235 2.162495,2.931721 6.296269,3.961801 7.740989,7.410261 13.293685,7.34483 27.136697,14.54258 44.382028,14.06566 2.20803,-0.93161 4.74534,-0.85875 7.16432,-1.34106" /><path
       inkscape:connector-curvature="0"
       id="path30"
       style="fill:#ee2432;fill-opacity:1;fill-rule:nonzero;stroke:none;stroke-width:0.07239724"
       d="m 331.25918,97.444273 c 6.73954,-1.198054 3.07763,-6.738108 4.31613,-10.129492 -1.01086,-1.584991 -3.45058,-1.341198 -5.07602,-1.039526 -1.33097,2.159465 0.88498,4.438803 -2.26723,5.760304 -4.41481,-0.425592 -8.66257,-1.668033 -11.36491,-4.863046 -2.88181,-1.973685 -1.54774,-5.221384 -3.59354,-7.516303 3.03645,-4.541811 8.48929,-6.681781 13.32523,-9.872273 0.8034,-2.748441 4.39072,-5.078372 2.25403,-8.227242 -3.02168,-5.406962 -9.11477,-7.9904 -14.62046,-11.077344 -4.32002,0.350174 -8.31759,-3.45594 -11.97328,-0.361574 -2.74819,5.249647 5.12341,3.599556 7.41007,6.101574 4.15064,0.997636 8.66567,2.259842 10.83734,5.646166 0.648,2.543907 -1.93236,4.020563 -4.15685,5.178681 -4.06517,0.765783 -4.51815,4.947369 -8.99279,5.602453 -1.58426,3.609002 -2.83365,7.649869 -0.69696,11.374023 1.64331,5.888408 8.30128,10.647298 14.65077,12.920362 1.29756,1.925925 4.11101,1.457093 6.4233,1.219641 0.86789,-1.007823 2.54695,-0.04453 3.52517,-0.716404" /><path
       inkscape:connector-curvature="0"
       id="path32"
       style="fill:#ee2432;fill-opacity:1;fill-rule:nonzero;stroke:none;stroke-width:0.07239724"
       d="m 237.79376,92.770716 c 1.26103,-0.824741 0.52368,-2.429499 0.85157,-3.63504 -4.21591,-2.430849 -10.99274,-0.963166 -14.06415,-4.961602 -3.74115,-0.548636 -0.533,-3.527581 -2.33093,-5.365001 2.5718,-4.320753 7.28808,-7.178272 10.13416,-11.41126 1.07224,-2.642937 0.25018,-5.327022 -0.331,-8.198236 -4.35576,-4.670117 -12.42548,-5.012669 -19.15882,-4.581071 -2.49487,1.358671 -2.20506,4.162089 -1.89272,6.360005 3.81498,2.575547 9.96557,0.756272 13.41382,3.828781 -0.90441,2.906225 -3.32082,6.130783 -6.99905,7.214833 -2.98673,4.334715 -6.19021,9.889206 -1.95956,14.552239 4.66812,3.354415 9.45276,6.014553 14.88153,8.206938 2.81346,-0.0369 6.40389,0.625807 7.45515,-2.010586" /><path
       inkscape:connector-curvature="0"
       id="path34"
       style="fill:#ee2432;fill-opacity:1;fill-rule:nonzero;stroke:none;stroke-width:0.07239724"
       d="m 203.29577,84.659973 c 0.40404,-3.304361 3.92298,-6.176858 2.31308,-9.565339 2.09862,-2.572106 -1.56795,-4.102525 -2.58346,-6.152641 -5.11254,-0.699605 -9.99122,-2.499385 -15.4192,-1.773672 -3.75748,-3.317584 2.91834,-11.665509 -5.71237,-10.826197 -1.54465,1.314622 -1.25482,3.428216 -1.8663,5.037223 -0.56953,1.45689 0.0288,3.465114 -2.02327,4.413708 -1.48248,0.15495 -2.8422,-0.135658 -3.95172,0.742577 1.52832,1.807942 -2.28356,3.578714 0.74512,4.752347 2.01549,0.30572 4.15685,0.446708 5.71081,1.494397 -0.0839,6.006392 1.28203,11.668139 5.51346,16.350668 2.4203,0.392606 2.86939,2.710125 5.70149,2.2846 5.50336,0.267471 8.73639,-3.417692 11.57236,-6.757671" /><path
       inkscape:connector-curvature="0"
       id="path36"
       style="fill:#ee2432;fill-opacity:1;fill-rule:nonzero;stroke:none;stroke-width:0.07239724"
       d="m 297.33151,81.827008 c -0.50348,-7.206402 3.82586,-18.111659 -6.08532,-22.159138 -4.01699,-0.83061 -6.56316,2.640306 -8.92908,4.45958 -1.69071,-1.508293 -1.69614,-3.885716 -3.40861,-5.62323 -1.52754,-1.588704 -3.17708,-4.05834 -6.28345,-3.621954 0.17871,2.348954 0.0419,4.644617 1.30456,6.691764 -1.03495,2.847469 0.16238,5.636183 1.03337,8.204374 -1.09864,0.753573 -0.76299,2.39422 -0.432,3.418704 0.90131,0.812935 1.11187,2.47436 2.75596,2.191103 1.29679,-2.193734 4.1786,-1.100983 5.85766,-2.489874 2.48091,-1.355771 3.07297,-5.653586 7.35958,-5.088356 2.64251,1.622904 -0.0481,4.782636 2.02014,6.483319 -0.84534,3.411417 -1.10952,6.918694 -4.27028,9.386171 0.46852,0.440568 0.17869,1.093832 0.31545,1.666955 -1.22296,0.857728 -2.32628,1.166011 -1.44752,2.600775 1.16392,0.956554 0.4491,2.693058 2.40942,3.300449 4.61993,-1.76153 5.49404,-6.14495 7.80012,-9.420642" /><path
       inkscape:connector-curvature="0"
       id="path38"
       style="fill:#ee2432;fill-opacity:1;fill-rule:nonzero;stroke:none;stroke-width:0.07239724"
       d="m 116.48209,82.498957 c 0.0195,-3.642731 3.66192,-6.979811 1.1406,-10.595625 2.10795,-2.882548 -0.68528,-6.014622 0.37218,-8.948235 -2.69069,-3.845914 2.09086,-8.541596 -2.07299,-12.345619 -1.84378,-0.825012 -3.47389,-0.649553 -5.49015,-0.348085 -1.70159,2.035882 -0.62392,5.051997 -1.53144,7.320541 1.14683,5.352859 2.42652,9.922395 1.53844,15.466834 2.94242,3.463293 -2.14371,8.321549 1.11884,11.70477 2.66039,0.906432 4.07916,-0.933079 4.92452,-2.254581" /><path
       inkscape:connector-curvature="0"
       id="path40"
       style="fill:#ee2432;fill-opacity:1;fill-rule:nonzero;stroke:none;stroke-width:0.07239724"
       d="m 145.27701,82.35797 c 1.10177,-3.811377 3.39153,-7.226168 4.65412,-11.015956 0.53302,-0.206286 0.83682,-1.098824 1.62235,-0.708309 2.09862,1.491495 1.60136,3.781088 2.05978,5.890498 2.56557,2.431119 3.10636,5.650887 5.8056,8.166059 2.3325,-0.276916 4.94161,-1.233469 5.91282,-3.060907 0.63869,-4.737574 -0.68607,-8.855141 1.80571,-13.209622 0.85546,-4.939205 -1.01241,-8.875986 -1.04736,-14.087925 -1.17714,-0.910681 -2.70546,-3.022723 -4.77068,-2.336002 -1.22607,1.162841 -1.72411,2.928351 -1.10332,4.477793 1.83446,4.262739 1.26882,8.55111 1.08001,13.087659 -0.82982,0.417362 -0.83603,1.411087 -1.95099,1.481984 -2.80802,-0.407445 -3.39075,-3.067247 -5.05505,-4.628292 -1.7047,-1.627154 -2.2307,-4.5352 -5.89107,-3.874855 -4.10091,1.330407 -2.40709,6.114394 -6.12496,7.771902 0.0762,1.437395 0.8073,3.678552 -0.85777,4.749717 -2.93465,-0.97207 -2.27733,-3.934149 -2.69924,-6.167684 -2.74817,-2.205268 1.78473,-4.707284 -0.92771,-6.994784 0.64645,-2.538377 -0.13286,-6.317374 -2.89193,-8.06865 -2.3084,0.505934 -4.31302,0.771045 -5.38604,2.838025 -0.24397,5.939676 1.98053,11.25071 2.28433,16.985919 1.55707,1.474632 -0.12198,3.002421 0.74357,4.556112 1.91604,2.277989 2.43352,5.757607 5.92293,6.852518 2.67359,0.155422 5.37672,-0.64301 6.8149,-2.7052" /><path
       inkscape:connector-curvature="0"
       id="path42"
       style="fill:#ffffff;fill-opacity:1;fill-rule:nonzero;stroke:none;stroke-width:0.07239724"
       d="m 200.35024,78.38483 c 1.10486,-0.988463 0.71481,-1.736572 0.37062,-2.875195 -0.86555,-1.76126 -3.59121,-1.176535 -5.32854,-1.704596 -2.65418,-0.06219 -5.2827,-1.375536 -7.78069,-0.237452 -1.16625,2.41088 1.96575,4.481234 0.67985,6.886785 1.67596,1.615552 1.40245,4.583704 4.35886,5.20823 5.34487,0.281974 4.09858,-5.164449 7.6999,-7.277772" /><path
       inkscape:connector-curvature="0"
       id="path44"
       style="fill:#ffffff;fill-opacity:1;fill-rule:nonzero;stroke:none;stroke-width:0.07239724"
       d="m 194.30299,75.126541 c -1.63322,0.03164 -7.20884,-1.904407 -4.93694,1.589984 1.15071,1.586612 0.26884,3.761323 1.7925,5.145021 1.19577,-2.188471 3.2843,-4.102862 3.14444,-6.735005" /><path
       inkscape:connector-curvature="0"
       id="path46"
       style="fill:#ee2432;fill-opacity:1;fill-rule:nonzero;stroke:none;stroke-width:0.07239724"
       d="m 258.75593,77.267523 c 2.79402,-2.039794 4.58886,-4.073046 4.88177,-7.258345 1.60137,-3.396576 2.13827,-8.584028 -1.12739,-11.43885 -2.23539,-1.641926 -4.07294,-2.445352 -6.55695,-3.751271 -4.36975,0.231854 -9.49238,-1.270368 -12.05408,1.867171 -3.10639,2.74419 -4.2097,6.594017 -3.42494,10.511369 6.60588,3.173697 0.12587,10.509752 8.22201,12.960635 3.88336,0.226591 6.57405,-3.11467 10.05958,-2.890709" /><path
       inkscape:connector-curvature="0"
       id="path48"
       style="fill:#ffffff;fill-opacity:1;fill-rule:nonzero;stroke:none;stroke-width:0.07239724"
       d="m 257.86472,70.050868 c 0.71483,-1.312058 1.47084,-2.939212 0.85314,-4.508149 -2.78159,-0.864812 -0.48561,-4.349692 -3.69532,-4.860348 -2.71322,0.569952 -7.60121,-1.785546 -8.12179,1.612111 -0.57185,3.300988 1.24317,6.017454 2.46458,8.841246 2.606,1.407105 6.76673,1.614741 8.49939,-1.08486" /><path
       inkscape:connector-curvature="0"
       id="path50"
       style="fill:#ffffff;fill-opacity:1;fill-rule:nonzero;stroke:none;stroke-width:0.07239724"
       d="m 255.18493,63.332728 c 0.28981,-0.659605 -0.22144,-1.241902 -0.8842,-1.354421 -1.78629,0.0566 -3.65336,-0.330747 -5.12031,0.18335 -0.93315,2.40292 -0.48096,5.055436 1.56717,6.891034 3.15221,-1.259575 0.51203,-5.182189 4.43734,-5.719963" /><path
       inkscape:connector-curvature="0"
       id="path52"
       style="fill:#ee2432;fill-opacity:1;fill-rule:nonzero;stroke:none;stroke-width:0.07239724"
       d="m 335.0151,50.241899 h -2.00771 v 1.225037 h 5.71237 v -1.225037 h -2.03026 v -5.226644 h -1.6744 v 5.226644" /><path
       inkscape:connector-curvature="0"
       id="path54"
       style="fill:#ee2432;fill-opacity:1;fill-rule:nonzero;stroke:none;stroke-width:0.07239724"
       d="m 345.85555,47.485633 c -0.0349,0.774958 -0.0683,1.703854 -0.0683,2.651166 h -0.0234 c -0.2393,-0.822447 -0.54931,-1.741832 -0.83757,-2.498104 l -0.90286,-2.518341 h -1.31076 l -0.79563,2.489402 c -0.24397,0.764906 -0.48562,1.674307 -0.67364,2.527043 h -0.0226 c -0.0288,-0.869601 -0.0746,-1.865956 -0.12044,-2.670662 l -0.14374,-2.450882 h -1.55395 l 0.47473,6.451681 h 2.23692 l 0.72726,-2.163377 c 0.24397,-0.735967 0.46541,-1.539931 0.62936,-2.297552 h 0.0459 c 0.19579,0.747367 0.45065,1.589242 0.70393,2.317856 l 0.78631,2.143073 h 2.20351 l 0.39549,-6.451681 h -1.63087 l -0.11967,2.470378" /><path
       d="m 11.528436,-0.66975846 c 1.16813,0 2.304205,0.25763 3.408225,0.77286 1.104007,0.51525 2.012162,1.20713996 2.72443,2.07568996 v 0 l -2.02997,2.07569 c -0.52708,-0.633 -1.132516,-1.11881 -1.816287,-1.4574 -0.683783,-0.33858 -1.417416,-0.50787 -2.200911,-0.50787 -0.69803,0 -1.34264,0.1288 -1.933817,0.38642 -0.591188,0.25762 -1.104019,0.60725 -1.538504,1.04888 -0.434497,0.44164 -0.776377,0.96794 -1.025674,1.57886 -0.249298,0.61094 -0.373946,1.2697 -0.373946,1.97632 0,0.72135 0.121032,1.38748 0.363268,1.99841 0.242168,0.61093 0.57693,1.1408905 1.004297,1.5898905 0.427355,0.449 0.936639,0.80231 1.527816,1.05993 0.591188,0.25761 1.22155,0.38643 1.891073,0.38643 0.797754,0 1.552754,-0.18033 2.265032,-0.541 0.712278,-0.36068 1.33194,-0.8796 1.859018,-1.55678 v 0 l 2.094081,2.14195 c -0.69802,0.88326 -1.609734,1.5862 -2.735119,2.10881 -1.125386,0.5226 -2.286387,0.7839 -3.483012,0.7839 -1.111138,0 -2.154607,-0.2061 -3.130419,-0.61829 -0.975812,-0.4122 -1.819846,-0.97161 -2.532124,-1.67822 -0.712267,-0.70661 -1.274959,-1.5494 -1.688078,-2.52836 C 3.764695,9.4474015 3.558142,8.3985115 3.558142,7.2796915 c 0,-1.1188 0.202995,-2.16402 0.608984,-3.13562 0.406001,-0.97159 0.965123,-1.81071 1.67739,-2.51733 0.712278,-0.70659996 1.556311,-1.26600996 2.532135,-1.67820996 0.975812,-0.4122 2.026411,-0.61829 3.151785,-0.61829 z m 40.492582,-0.0221 c 1.111149,0 2.151071,0.20609 3.119754,0.61829 0.968693,0.41219 1.805609,0.97528 2.510757,1.68924996 0.705149,0.71399 1.264272,1.56045 1.677391,2.53941 0.413118,0.97897 0.619672,2.0205 0.619672,3.12458 0,1.1041 -0.206554,2.14563 -0.619672,3.1245805 -0.413119,0.97897 -0.972242,1.82543 -1.677391,2.5394 -0.705148,0.71398 -1.542064,1.27708 -2.510757,1.68927 -0.968683,0.4122 -2.008605,0.61829 -3.119754,0.61829 -1.096901,0 -2.12967,-0.20609 -3.098376,-0.61829 -0.968694,-0.41219 -1.805597,-0.97529 -2.510746,-1.68927 -0.705149,-0.71397 -1.264283,-1.56043 -1.67739,-2.5394 -0.41313,-0.9789505 -0.619684,-2.0204805 -0.619684,-3.1245805 0,-1.10408 0.206554,-2.14561 0.619684,-3.12458 0.413107,-0.97896 0.972241,-1.82542 1.67739,-2.53941 0.705149,-0.71396996 1.542052,-1.27705996 2.510746,-1.68924996 0.968706,-0.4122 2.001475,-0.61829 3.098376,-0.61829 z m 0,2.93687996 c -0.669534,0 -1.292766,0.12881 -1.869696,0.38644 -0.57694,0.25761 -1.075535,0.61092 -1.495784,1.05991 -0.420226,0.44901 -0.751429,0.98265 -0.993607,1.60094 -0.24218,0.61829 -0.36327,1.28075 -0.36327,1.98736 0,0.72134 0.121044,1.38748 0.36327,1.9984 0.242178,0.61095 0.573381,1.1409005 0.993607,1.5899005 0.420249,0.449 0.918844,0.8023 1.495784,1.05992 0.57693,0.25763 1.200162,0.38644 1.869696,0.38644 0.669546,0 1.296349,-0.12881 1.880407,-0.38644 0.58406,-0.25762 1.086202,-0.61092 1.506451,-1.05992 0.420226,-0.449 0.751451,-0.9789505 0.993608,-1.5899005 0.242179,-0.61092 0.363268,-1.27706 0.363268,-1.9984 0,-0.70661 -0.121044,-1.36907 -0.363268,-1.98736 -0.242157,-0.61829 -0.573382,-1.15193 -0.993608,-1.60094 -0.420249,-0.44899 -0.922391,-0.8023 -1.506451,-1.05991 -0.584058,-0.25763 -1.210861,-0.38644 -1.880407,-0.38644 z M 98.988152,-0.44896846 V 2.3775115 H 90.804167 V 15.008332 H 87.705782 V -0.44893846 Z m 39.060918,0 V 2.3775115 h -8.18399 V 15.008352 H 126.7667 V -0.44891846 Z m 39.36007,0 V 2.3333515 h -8.48313 v 3.66558 h 5.53434 v 2.69399 h -5.53434 v 3.5330805 h 8.39767 v 2.78231 H 165.82764 V -0.44896846 Z m 34.35994,-0.22081 c 1.16814,0 2.3042,0.25762 3.40821,0.77286 1.10402,0.51525 2.01217,1.20714996 2.72445,2.07569996 v 0 l -2.02998,2.07569 c -0.52708,-0.63302 -1.13251,-1.11881 -1.81629,-1.4574 -0.68378,-0.3386 -1.41741,-0.50789 -2.20091,-0.50789 -0.69803,0 -1.34264,0.12881 -1.93382,0.38643 -0.59118,0.25763 -1.10402,0.60726 -1.5385,1.04889 -0.4345,0.44164 -0.77638,0.96792 -1.02568,1.57885 -0.2493,0.61093 -0.37395,1.26971 -0.37395,1.97632 0,0.72134 0.12104,1.38748 0.36327,1.9984 0.24218,0.61095 0.57693,1.1409005 1.00431,1.5899005 0.42735,0.449 0.93663,0.8023 1.52781,1.05992 0.59119,0.25763 1.22155,0.38644 1.89108,0.38644 0.79775,0 1.55276,-0.18034 2.26503,-0.54101 0.71227,-0.36066 1.33193,-0.87959 1.85901,-1.55676 v 0 l 2.09409,2.14193 c -0.69802,0.88327 -1.60974,1.58621 -2.73511,2.10882 -1.1254,0.52259 -2.2864,0.7839 -3.48302,0.7839 -1.11114,0 -2.15461,-0.20609 -3.13042,-0.61829 -0.97582,-0.41219 -1.81985,-0.9716 -2.53213,-1.67823 -0.71226,-0.7066 -1.27496,-1.54939 -1.68808,-2.52835 -0.41311,-0.9789605 -0.61967,-2.0278505 -0.61967,-3.1466705 0,-1.11881 0.203,-2.16401 0.60899,-3.13562 0.406,-0.9716 0.96511,-1.8107 1.6774,-2.51733 0.71228,-0.70661996 1.55631,-1.26600996 2.53212,-1.67819996 0.97581,-0.4122 2.0264,-0.6183 3.15179,-0.6183 z m 40.98405,0.22081 V 12.181892 h 5.0215 v 2.82647 h -13.16275 v -2.82647 h 5.04286 V -0.44890846 Z m 35.49244,0 V 15.008352 H 285.1472 V -0.44891846 Z m 35.68475,-0.24289 c 1.11115,0 2.15107,0.20609 3.11976,0.61829 0.96868,0.41219 1.80559,0.97528 2.51074,1.68924996 0.70515,0.71399 1.26429,1.56045 1.67741,2.53941 0.4131,0.97897 0.61966,2.0205 0.61966,3.12458 0,1.1041 -0.20656,2.14563 -0.61966,3.1245805 -0.41312,0.97897 -0.97226,1.82543 -1.67741,2.5394 -0.70515,0.71398 -1.54206,1.27708 -2.51074,1.68927 -0.96869,0.4122 -2.00861,0.61829 -3.11976,0.61829 -1.09689,0 -2.12969,-0.20609 -3.09836,-0.61829 -0.9687,-0.41219 -1.80561,-0.97529 -2.51076,-1.68927 -0.70515,-0.71397 -1.26428,-1.56043 -1.6774,-2.5394 -0.41312,-0.9789505 -0.61969,-2.0204805 -0.61969,-3.1245805 0,-1.10408 0.20657,-2.14561 0.61969,-3.12458 0.41312,-0.97896 0.97225,-1.82542 1.6774,-2.53941 0.70515,-0.71396996 1.54206,-1.27705996 2.51076,-1.68924996 0.96867,-0.4122 2.00147,-0.61829 3.09836,-0.61829 z m 0,2.93687996 c -0.66953,0 -1.29278,0.12881 -1.86971,0.38644 -0.57693,0.25761 -1.07552,0.61092 -1.49577,1.05991 -0.42023,0.44901 -0.75144,0.98265 -0.99361,1.60094 -0.24217,0.61829 -0.36326,1.28075 -0.36326,1.98736 0,0.72134 0.12103,1.38748 0.36326,1.9984 0.24217,0.61095 0.57338,1.1409005 0.99361,1.5899005 0.42025,0.449 0.91884,0.8023 1.49577,1.05992 0.57693,0.25763 1.20018,0.38644 1.86971,0.38644 0.66954,0 1.29634,-0.12881 1.8804,-0.38644 0.58407,-0.25762 1.08619,-0.61092 1.50645,-1.05992 0.42024,-0.449 0.75145,-0.9789505 0.99361,-1.5899005 0.24218,-0.61092 0.36327,-1.27706 0.36327,-1.9984 0,-0.70661 -0.12103,-1.36907 -0.36327,-1.98736 -0.24216,-0.61829 -0.57337,-1.15193 -0.99361,-1.60094 -0.42026,-0.44899 -0.92238,-0.8023 -1.50645,-1.05991 -0.58406,-0.25763 -1.21086,-0.38644 -1.8804,-0.38644 z m 38.61219,-2.69398996 V 9.8853315 l 7.62842,-10.33429996 h 2.73512 V 15.008352 h -2.90607 V 5.0052915 l -7.4361,10.0030605 h -2.9488 V -0.44891846 Z"
       id="COLLECTION"
       inkscape:connector-curvature="0"
       style="fill:#ffffff;fill-rule:nonzero;stroke:none;stroke-width:1.32858956" /></g></svg>