<?xml version="1.0" encoding="UTF-8" standalone="no"?>
<!-- Created with Inkscape (http://www.inkscape.org/) -->

<svg
   xmlns:dc="http://purl.org/dc/elements/1.1/"
   xmlns:cc="http://creativecommons.org/ns#"
   xmlns:rdf="http://www.w3.org/1999/02/22-rdf-syntax-ns#"
   xmlns:svg="http://www.w3.org/2000/svg"
   xmlns="http://www.w3.org/2000/svg"
   xmlns:sodipodi="http://sodipodi.sourceforge.net/DTD/sodipodi-0.dtd"
   xmlns:inkscape="http://www.inkscape.org/namespaces/inkscape"
   width="500"
   height="200"
   viewBox="0 0 500 200"
   version="1.1"
   id="svg8"
   sodipodi:docname="snesmsu1.svg"
   inkscape:version="0.92.5 (2060ec1f9f, 2020-04-08)">
  <defs
     id="defs2">
    <clipPath
       id="clp9">
      <path
         id="path17491"
         d="m 582.39,1071.7 -3.63,2.1 v 0.3 l 3.63,-2.1 v -0.3"
         inkscape:connector-curvature="0" />
    </clipPath>
    <clipPath
       id="clp8">
      <path
         id="path17485"
         d="M 564.1,1054.8 H 660 v 26.2 h -95.9 z"
         inkscape:connector-curvature="0" />
    </clipPath>
    <clipPath
       id="clp14">
      <path
         id="path17527"
         d="m 584.85,1073.4 -6.11,3.6 -8.06,-4.7 2.49,-1.5 5.59,3.3 3.63,-2.1 2.46,1.4"
         inkscape:connector-curvature="0" />
    </clipPath>
    <clipPath
       id="clp13">
      <path
         id="path17521"
         d="M 564.1,1054.8 H 660 v 26.2 h -95.9 z"
         inkscape:connector-curvature="0" />
    </clipPath>
    <clipPath
       id="clp19">
      <path
         id="path17561"
         d="m 573.17,1064.4 5.61,-3.2 5.6,3.2 -0.28,0.2 -5.35,-3.1 -5.3,3.1 -0.28,-0.2"
         inkscape:connector-curvature="0" />
    </clipPath>
    <clipPath
       id="clp18">
      <path
         id="path17555"
         d="M 564.1,1054.8 H 660 v 26.2 h -95.9 z"
         inkscape:connector-curvature="0" />
    </clipPath>
    <clipPath
       id="clp24">
      <path
         id="path17595"
         d="m 584.38,1064.4 v 3.4 l -0.28,-0.2 v -3.1 l 0.28,-0.1"
         inkscape:connector-curvature="0" />
    </clipPath>
    <clipPath
       id="clp23">
      <path
         id="path17589"
         d="M 564.1,1054.8 H 660 v 26.2 h -95.9 z"
         inkscape:connector-curvature="0" />
    </clipPath>
    <clipPath
       id="clp29">
      <path
         id="path17629"
         d="m 578.75,1063.3 v 4.3 l -3.77,2.2 v -4.4 l 3.77,-2.1"
         inkscape:connector-curvature="0" />
    </clipPath>
    <clipPath
       id="clp28">
      <path
         id="path17623"
         d="M 564.1,1054.8 H 660 v 26.2 h -95.9 z"
         inkscape:connector-curvature="0" />
    </clipPath>
    <clipPath
       id="clp34">
      <path
         id="path17663"
         d="m 578.75,1067.6 8.09,4.7 v -9.3 l -8.06,-4.7 v 2.9 l 5.6,3.2 v 3.4 l -1.83,-1.1 v -1.3 l -3.8,-2.1 v 4.3"
         inkscape:connector-curvature="0" />
    </clipPath>
    <clipPath
       id="clp33">
      <path
         id="path17657"
         d="M 564.1,1054.8 H 660 v 26.2 h -95.9 z"
         inkscape:connector-curvature="0" />
    </clipPath>
    <clipPath
       id="clp39">
      <path
         id="path17697"
         d="m 578.75,1067.6 -3.77,2.2 3.77,2.2 3.54,-2.1 4.28,2.5 0.27,-0.1 -8.09,-4.7"
         inkscape:connector-curvature="0" />
    </clipPath>
    <clipPath
       id="clp38">
      <path
         id="path17691"
         d="M 564.1,1054.8 H 660 v 26.2 h -95.9 z"
         inkscape:connector-curvature="0" />
    </clipPath>
    <clipPath
       id="clp44">
      <path
         id="path17731"
         d="m 570.68,1072.3 -0.01,-9.3 8.11,-4.7 v 2.9 l -5.61,3.2 v 6.4 l -2.49,1.5"
         inkscape:connector-curvature="0" />
    </clipPath>
    <clipPath
       id="clp43">
      <path
         id="path17725"
         d="M 564.1,1054.8 H 660 v 26.2 h -95.9 z"
         inkscape:connector-curvature="0" />
    </clipPath>
  </defs>
  <sodipodi:namedview
     id="base"
     pagecolor="#ffffff"
     bordercolor="#666666"
     borderopacity="1.0"
     inkscape:pageopacity="0.0"
     inkscape:pageshadow="2"
     inkscape:zoom="0.63376722"
     inkscape:cx="75.108072"
     inkscape:cy="115.15703"
     inkscape:document-units="mm"
     inkscape:current-layer="layer1"
     showgrid="false"
     units="px"
     inkscape:pagecheckerboard="true"
     inkscape:window-width="1366"
     inkscape:window-height="743"
     inkscape:window-x="0"
     inkscape:window-y="0"
     inkscape:window-maximized="1" />
  <metadata
     id="metadata5">
    <rdf:RDF>
      <cc:Work
         rdf:about="">
        <dc:format>image/svg+xml</dc:format>
        <dc:type
           rdf:resource="http://purl.org/dc/dcmitype/StillImage" />
        <dc:title />
      </cc:Work>
    </rdf:RDF>
  </metadata>
  <g
     inkscape:label="Layer 1"
     inkscape:groupmode="layer"
     id="layer1"
     transform="translate(-10.013661,-245.48156)">
    <path
       inkscape:connector-curvature="0"
       id="path988"
       d="m 303.94123,423.35937 c -3.48387,-9.22907 -3.64228,-9.58266 -4.29366,-9.58266 -0.34302,0 -0.62371,3.35395 -0.62371,7.45317 v 7.45317 h -4.98141 -4.98141 l 0.19012,-17.2133 0.19003,-17.21331 h 5.25375 5.25376 l 2.4855,6.95416 c 1.36704,3.8248 2.7425,6.6972 3.05657,6.3831 0.31405,-0.31418 0.66448,-3.44342 0.77866,-6.95416 l 0.20758,-6.3831 h 4.61387 4.61388 l 0.18994,17.15457 0.18991,17.15457 -4.99992,0.23596 -4.99992,0.23595 z m 20.85478,5.32368 c -1.97124,-0.54522 -3.38317,-1.60612 -4.69764,-3.5296 -1.7804,-2.60528 -1.77116,-24.03135 0.0114,-27.04942 1.76963,-2.99571 4.91907,-4.20266 10.96333,-4.20139 8.50321,0.002 12.418,3.15825 12.85637,10.36596 l 0.16817,2.76474 h -4.9688 c -4.85965,0 -4.9736,-0.0423 -5.18837,-1.90005 -0.26069,-2.25538 -1.82148,-3.74564 -3.32051,-3.17039 -1.50989,0.5794 -1.58597,17.60335 -0.0842,18.84967 1.32011,1.09561 3.26943,-0.8019 3.26943,-3.18252 0,-0.94813 0.23954,-1.73979 0.53236,-1.75929 0.29283,-0.0169 2.44891,-0.0989 4.79134,-0.1776 l 4.25896,-0.14207 0.21498,2.94969 c 0.11827,1.62241 -0.25435,4.07306 -0.82799,5.44598 -1.61944,3.87587 -3.78628,4.88717 -10.70517,4.99643 -3.29491,0.052 -6.56815,-0.0651 -7.27387,-0.26047 z m 140.63403,-0.0782 c -0.21312,-0.34548 -0.32729,-6.45829 -0.25371,-13.58421 l 0.13447,-12.95623 -2.40067,-0.35478 c -2.36033,-0.34885 -2.40075,-0.41482 -2.40075,-3.90408 v -3.54913 l 11.53472,-0.19494 11.53468,-0.19493 v 3.92162 3.92167 h -2.75243 c -1.51382,0 -3.10328,0.42294 -3.53223,0.93967 -0.48522,0.58459 -0.85327,5.7473 -0.97421,13.66417 l -0.19409,12.72451 -5.15378,0.0972 c -2.83455,0.0533 -5.32842,-0.18478 -5.54187,-0.53047 z M 32.293774,411.46958 32.483846,394.25627 h 6.736551 6.73655 l 1.298845,4.96883 c 0.714368,2.73281 1.608154,6.16659 1.986193,7.6306 0.378073,1.46404 0.958706,2.66186 1.290371,2.66186 0.331686,0 1.322263,-2.95465 2.201324,-6.5659 2.348888,-9.64939 1.829565,-9.13981 9.069987,-8.89988 l 6.171529,0.20466 0.190115,17.21331 0.190115,17.2133 H 63.374013 58.39261 v -7.76617 c 0,-4.27141 -0.259632,-7.92664 -0.576942,-8.12276 -0.497525,-0.30741 -3.327167,7.93929 -4.782062,13.93692 -0.378877,1.56197 -0.877666,1.95201 -2.49599,1.95201 -2.169868,0 -1.856005,0.70131 -5.797878,-12.95432 -0.422642,-1.46401 -1.037243,-2.66187 -1.365851,-2.66187 -0.585039,0 -0.656239,1.09418 -0.704368,10.82488 l -0.02368,4.79131 H 37.374815 32.10379 l 0.190115,-17.2133 z m 39.750304,0 0.190115,-17.21331 h 9.582662 9.582663 v 3.54914 3.54913 l -4.258963,0.35478 -4.258963,0.35477 v 2.48439 2.48439 l 3.72659,0.21481 c 2.049626,0.11798 3.749628,0.43757 3.777777,0.70985 0.02833,0.27231 0.108039,1.93265 0.177429,3.68952 l 0.126307,3.19419 -3.90405,0.35478 -3.904049,0.35477 v 2.48439 2.48435 l 4.258963,0.35477 4.258963,0.35478 0.214513,3.72656 0.214556,3.72661 h -9.987295 -9.987291 z m 22.004519,0.0512 0.1902,-17.26464 9.227753,0.002 c 14.7905,0.004 16.68063,1.89438 16.67587,16.67852 -0.004,10.11279 -0.64806,13.22808 -3.24312,15.66888 -1.74238,1.63881 -2.34231,1.73289 -12.43579,1.95066 l -10.6051,0.22877 0.1902,-17.26465 z m 14.599683,8.50211 c 0.55664,-0.55665 0.85179,-3.49053 0.85179,-8.46726 0,-6.06592 -0.23341,-7.8488 -1.14713,-8.76254 -2.2387,-2.23871 -2.75033,-0.88867 -2.95808,7.8057 -0.11062,4.63025 -0.0406,8.83654 0.15515,9.34726 0.44556,1.16112 1.976,1.19905 3.09824,0.0765 z m 14.50334,-8.55344 0.19011,-17.21331 h 5.32371 5.3237 l 0.19011,17.21331 0.19012,17.21331 h -5.70386 -5.70386 z m 13.35203,16.32599 c 0.0165,-0.48797 1.53384,-8.23397 3.37168,-17.21331 l 3.34152,-16.32599 6.81363,-0.20212 c 4.90829,-0.14504 7.01169,0.0528 7.52189,0.70984 0.38953,0.50142 2.05334,7.77928 3.69733,16.17296 1.644,8.39369 3.15186,15.82026 3.35081,16.50351 0.32188,1.10525 -0.22885,1.24217 -4.99629,1.24217 -5.27231,0 -5.36457,-0.0338 -5.76872,-1.95202 -0.67632,-3.2144 -1.43998,-4.08151 -3.59456,-4.08151 -1.83749,0 -2.11463,0.31165 -2.68536,3.01677 l -0.63639,3.01676 h -5.22284 c -3.72115,0 -5.21418,-0.2554 -5.1927,-0.88731 z m 15.02416,-16.90522 c -0.23689,-3.53429 -0.65439,-4.25974 -1.59533,-2.77188 -0.77198,1.22069 -0.9027,5.20084 -0.19409,5.90946 1.16436,1.16432 1.98169,-0.26852 1.78942,-3.13758 z m 24.86082,0.57923 0.19012,-17.21331 10.23808,-0.19789 c 5.96228,-0.11502 10.41292,0.085 10.65671,0.4796 0.23025,0.37295 0.30357,2.12407 0.16293,3.89224 l -0.2557,3.21487 -4.36749,0.20973 -4.3675,0.20974 v 2.48439 2.48439 l 3.76236,0.21608 3.76235,0.21565 -0.2132,3.68826 -0.2132,3.68829 -3.54914,0.35478 c -3.51533,0.35181 -3.54914,0.37845 -3.54914,2.83933 v 2.48435 l 4.57675,0.35477 4.57674,0.35478 0.0368,3.72665 0.0368,3.72665 -10.83748,-9e-5 -10.83748,-4e-5 0.19011,-17.21331 z m 23.42429,0 0.19012,-17.21331 5.11228,-0.20762 c 5.04339,-0.20508 5.1271,-0.17887 6.21098,1.91675 0.60429,1.16856 1.09871,2.43344 1.09871,2.81084 0,0.37718 0.71384,2.23 1.58631,4.11681 l 1.58633,3.43053 0.36572,-6.03357 0.36573,-6.03353 h 5.3237 5.3237 l 0.19011,17.21331 0.19012,17.21331 h -5.27427 -5.27426 l -1.93975,-5.14621 c -1.06686,-2.83046 -2.42088,-6.10246 -3.00893,-7.2711 -0.98651,-1.96047 -1.1119,-2.01536 -1.62155,-0.7098 -0.30378,0.77822 -0.57483,4.05022 -0.60227,7.27105 l -0.0498,5.85606 h -4.98141 -4.98141 z m 29.81274,0 0.19011,-17.21331 h 5.67862 5.67861 l 0.20897,6.02955 c 0.22598,6.52002 0.6398,7.49178 2.88674,6.7786 1.30851,-0.41524 1.48577,-1.12031 1.66856,-6.63639 l 0.20453,-6.17176 h 4.96879 4.96879 l 0.19011,17.21331 0.19012,17.21331 h -5.30977 -5.30968 l -0.20407,-6.5659 c -0.20127,-6.476 -0.22838,-6.5659 -1.97866,-6.5659 -1.75026,0 -1.77736,0.0901 -1.97866,6.5659 l -0.20407,6.5659 h -6.01951 -6.01952 z m 29.30364,15.61619 c 0.21595,-0.8784 1.76503,-8.62439 3.44241,-17.21327 l 3.04979,-15.61623 h 7.39597 7.39598 l 3.34151,16.32599 c 1.83784,8.97934 3.3551,16.72534 3.37168,17.21331 0.0216,0.63221 -1.47155,0.88732 -5.19269,0.88732 h -5.22285 l -0.63639,-3.01677 c -0.57073,-2.70541 -0.84787,-3.01676 -2.68535,-3.01676 -2.15459,0 -2.91824,0.8671 -3.59456,4.08151 -0.40387,1.91946 -0.49953,1.95202 -5.73442,1.95202 -5.16399,0 -5.31193,-0.0478 -4.93108,-1.59712 z m 15.12858,-15.04686 c 0.29934,-2.54913 -0.44579,-5.53224 -1.25666,-5.03107 -0.84276,0.52087 -1.69947,5.80793 -1.09864,6.78012 0.80799,1.30733 2.10991,0.34082 2.3553,-1.74905 z m 72.68922,-0.56933 0.19007,-17.21331 h 9.93758 9.93758 v 3.54914 3.54913 l -4.61388,0.35478 -4.61387,0.35477 v 2.48439 c 0,2.46076 0.0338,2.48773 3.54913,2.83929 l 3.54913,0.35478 v 3.54913 3.54914 l -3.54913,0.35477 c -3.51533,0.35182 -3.54913,0.37846 -3.54913,2.83938 v 2.48435 l 4.61387,0.35477 4.61388,0.35478 0.21455,3.72656 0.21456,3.72661 h -10.34221 -10.34221 z m 22.71446,0 0.19012,-17.21331 6.18323,-0.20466 6.18325,-0.20466 1.10656,3.92721 c 0.60862,2.15993 1.60204,5.68581 2.2076,7.8353 0.60556,2.1495 1.37512,3.90814 1.71012,3.90814 0.58695,0 1.83681,-3.76686 3.58455,-10.8034 0.45767,-1.84262 1.2455,-3.69324 1.75072,-4.11254 0.53495,-0.44395 3.2442,-0.6753 6.48704,-0.55385 l 5.56845,0.20889 0.19011,17.2133 0.19008,17.21331 h -4.98146 -4.98142 v -8.16302 c 0,-8.53982 -0.78317,-10.42139 -2.14204,-5.14621 -0.42743,1.65919 -1.06061,3.97503 -1.40709,5.14621 -0.34648,1.17126 -0.97967,3.48706 -1.40708,5.1463 -0.67924,2.63683 -1.02497,3.01672 -2.74498,3.01672 -1.88793,0 -2.06396,-0.31714 -4.33397,-7.80808 -1.30135,-4.29445 -2.63946,-7.80811 -2.97356,-7.80811 -0.3341,0 -0.60747,3.51366 -0.60747,7.80811 v 7.80808 h -4.98141 -4.9814 z m 39.04048,0 0.19003,-17.21331 h 9.58271 9.58266 v 3.54914 3.54913 l -4.25898,0.35478 -4.25898,0.35477 v 2.48439 2.48435 l 3.90408,0.35478 3.90404,0.35477 v 3.54914 3.54913 l -3.90404,0.35477 -3.90408,0.35478 v 2.48439 2.48439 l 4.25898,0.35477 4.25898,0.35478 0.21439,3.72661 0.21438,3.72656 h -9.98729 -9.98733 z m 22.39635,-0.17675 0.2017,-17.39129 h 4.85774 c 3.04514,0 5.13513,0.33448 5.60125,0.8959 0.40889,0.49275 1.4303,2.80859 2.2697,5.14625 2.63552,7.34006 2.99596,8.15439 3.60948,8.15439 0.32898,0 0.68942,-3.1144 0.80114,-6.9208 l 0.20339,-6.92084 h 4.25898 4.25894 l 0.18986,17.24604 0.18986,17.24603 -4.79414,-0.21016 -4.7941,-0.21015 -2.77735,-7.27571 c -1.52751,-4.00167 -3.04919,-7.27574 -3.38156,-7.27574 -0.33236,0 -0.60425,3.35395 -0.60425,7.45317 v 7.45318 l -5.14626,5.5e-4 -5.14625,5.5e-4 z M 36.387892,362.84481 c 0,-0.29388 23.079074,-23.61162 51.28682,-51.81739 l 51.286828,-51.28315 h 6.20916 6.20916 v 34.78151 c 0,27.40864 0.18863,34.78151 0.89,34.78151 0.48949,0 16.53924,-15.65166 35.66608,-34.78151 l 34.77609,-34.78151 h 6.21834 6.21834 l -0.18213,51.63992 -0.18212,51.63987 h -9.22775 -9.22775 l -0.18406,-35.31384 c -0.10128,-19.42268 -0.42184,-35.31389 -0.71249,-35.31389 -0.29063,0 -16.49831,15.979 -36.01709,35.50891 l -35.48868,35.50895 -6.03353,-0.19494 -6.03353,-0.19493 -0.3549,-35.07747 c -0.22771,-22.50202 -0.61011,-35.16247 -1.06674,-35.31457 -0.39152,-0.13023 -16.68084,15.73438 -36.198513,35.25494 l -35.48669,35.49204 H 47.570302 c -6.15034,0 -11.182436,-0.24018 -11.182436,-0.53419 z m 209.718128,-0.36788 c -0.20077,-0.52328 -0.27494,-4.92645 -0.1647,-9.78487 l 0.20043,-8.83349 31.23239,-0.35478 c 23.95975,-0.27231 31.61313,-0.57207 32.86748,-1.28746 2.86601,-1.63466 4.39286,-5.02963 4.39578,-9.77404 0.002,-3.88768 -0.2368,-4.59532 -2.39921,-7.09827 l -2.40186,-2.7801 -23.68428,-0.35477 c -26.60771,-0.39875 -26.35329,-0.35182 -31.90677,-5.90511 -5.89349,-5.89347 -8.45844,-13.57372 -8.45844,-25.32727 0,-3.86564 0.35943,-8.72106 0.79874,-10.78991 1.10376,-5.19797 4.37143,-11.41611 7.80204,-14.84672 5.41126,-5.41126 3.85565,-5.2159 43.39404,-5.44931 l 35.3139,-0.20847 v 9.93363 9.93363 l -30.70002,0.21227 c -33.88014,0.23426 -33.44959,0.17803 -36.52959,4.75381 -3.01461,4.47831 -1.74786,12.75774 2.36476,15.45597 1.78409,1.17058 4.27138,1.33211 25.4356,1.65238 l 23.45814,0.35478 3.38499,1.98977 c 4.17738,2.45551 8.40743,7.69539 10.56942,13.09256 1.47395,3.67959 1.63684,5.24017 1.64866,15.79514 0.0127,11.35277 -0.0478,11.8429 -1.97389,15.97113 -2.85235,6.1137 -5.05978,9.04936 -8.86403,11.78806 l -3.3455,2.40849 -36.03649,0.20212 c -29.61028,0.16618 -36.1016,0.0338 -36.40159,-0.74921 z m 110.51281,0.0985 c -5.72375,-1.67399 -10.00349,-5.96139 -12.66069,-12.68341 -1.15278,-2.91625 -1.28153,-6.97801 -1.47939,-46.67114 l -0.21671,-43.4769 h 9.96821 9.96821 l 0.007,37.44338 0.007,37.44337 1.6843,3.61718 c 1.14395,2.45678 2.56497,4.16468 4.42948,5.32372 2.64529,1.64439 3.30944,1.71476 18.25134,1.9343 15.48775,0.2275 15.51065,0.22581 19.29293,-1.62494 3.02872,-1.48185 4.09483,-2.48908 5.32564,-5.03157 1.52399,-3.14815 1.5379,-3.54597 1.43714,-41.14216 l -0.10212,-37.96328 h 10.3509 10.3509 l -0.21692,43.12196 c -0.19409,38.58699 -0.34589,43.50257 -1.44104,46.74053 -1.72685,5.10498 -5.50712,9.75472 -9.54858,11.74475 -3.39095,1.66968 -3.44833,1.67281 -33.20951,1.79726 -17.83504,0.0744 -30.77109,-0.15561 -32.19813,-0.57305 z m 108.28924,0.35139 c -0.27189,-0.27232 -0.49453,-14.32784 -0.49453,-31.23521 v -30.74069 l -10.82488,-0.19578 -10.82483,-0.19578 -0.20974,-5.64006 -0.20973,-5.63998 14.75488,-14.76752 14.75492,-14.76748 h 5.15724 5.15721 l -0.18225,51.63992 -0.18225,51.63988 -8.2009,0.19874 c -4.51041,0.10909 -8.42337,-0.0211 -8.69535,-0.296 z"
       style="fill:#ffffff;stroke-width:0.70982695" />
    <rect
       style="fill:#ff0000;fill-opacity:1;fill-rule:nonzero;stroke:none;stroke-width:1.77175593;stroke-linecap:round;stroke-linejoin:round;stroke-miterlimit:4;stroke-dasharray:none;stroke-opacity:1"
       id="rect994"
       width="452.86957"
       height="13.486699"
       x="33.951927"
       y="372.25189" />
  </g>
</svg>
