<?xml version="1.0" encoding="UTF-8" standalone="no"?>
<!-- Created with Inkscape (http://www.inkscape.org/) -->

<svg
   xmlns:dc="http://purl.org/dc/elements/1.1/"
   xmlns:cc="http://creativecommons.org/ns#"
   xmlns:rdf="http://www.w3.org/1999/02/22-rdf-syntax-ns#"
   xmlns:svg="http://www.w3.org/2000/svg"
   xmlns="http://www.w3.org/2000/svg"
   xmlns:xlink="http://www.w3.org/1999/xlink"
   xmlns:sodipodi="http://sodipodi.sourceforge.net/DTD/sodipodi-0.dtd"
   xmlns:inkscape="http://www.inkscape.org/namespaces/inkscape"
   width="500"
   height="200"
   viewBox="0 0 500 200"
   version="1.1"
   id="svg8"
   inkscape:version="0.92.5 (2060ec1f9f, 2020-04-08)"
   sodipodi:docname="tekken.svg">
  <defs
     id="defs2">
    <linearGradient
       inkscape:collect="always"
       id="linearGradient1094">
      <stop
         style="stop-color:#ff6600;stop-opacity:1;"
         offset="0"
         id="stop1090" />
      <stop
         style="stop-color:#ff6600;stop-opacity:0;"
         offset="1"
         id="stop1092" />
    </linearGradient>
    <linearGradient
       inkscape:collect="always"
       xlink:href="#linearGradient1094"
       id="linearGradient1096"
       x1="0.1232865"
       y1="265.78471"
       x2="131.78767"
       y2="265.78471"
       gradientUnits="userSpaceOnUse"
       gradientTransform="matrix(3.163272,0,0,3.163272,43.608547,-489.21908)" />
  </defs>
  <sodipodi:namedview
     id="base"
     pagecolor="#ffffff"
     bordercolor="#666666"
     borderopacity="1.0"
     inkscape:pageopacity="0.0"
     inkscape:pageshadow="2"
     inkscape:zoom="1.2991385"
     inkscape:cx="245.85113"
     inkscape:cy="179.80629"
     inkscape:document-units="mm"
     inkscape:current-layer="layer1"
     showgrid="false"
     units="px"
     inkscape:pagecheckerboard="true"
     inkscape:window-width="1366"
     inkscape:window-height="743"
     inkscape:window-x="0"
     inkscape:window-y="0"
     inkscape:window-maximized="1" />
  <metadata
     id="metadata5">
    <rdf:RDF>
      <cc:Work
         rdf:about="">
        <dc:format>image/svg+xml</dc:format>
        <dc:type
           rdf:resource="http://purl.org/dc/dcmitype/StillImage" />
        <dc:title />
      </cc:Work>
    </rdf:RDF>
  </metadata>
  <g
     inkscape:label="Layer 1"
     inkscape:groupmode="layer"
     id="layer1"
     transform="translate(-0.187026,-225.50254)">
    <path
       inkscape:connector-curvature="0"
       id="path98"
       style="fill:#ff0000;stroke-width:0.39076102"
       d="m 304.30853,246.4101 c -3.1971,-0.0506 -4.12098,0.7669 -5.46268,3.03693 -0.64475,1.09084 -1.34311,1.98763 -1.55225,1.99146 -0.20915,0.003 -1.47568,-1.07716 -2.81431,-2.40389 l -2.43371,-2.41285 -7.34585,1.69438 c -8.68505,2.00304 -15.8989,4.00036 -17.96612,4.97373 -1.56059,0.73483 -1.93746,1.5545 -2.03323,4.42719 -0.0357,1.06909 -0.40329,1.73546 -1.60889,2.91271 l -1.56318,1.52543 v 4.74816 c 0,2.61135 -0.11334,5.82902 -0.25141,7.15007 -0.22909,2.19183 -0.33098,2.40191 -1.17166,2.40191 h -0.9212 v -7.37667 c 0,-5.43917 -0.12878,-7.47556 -0.48893,-7.75428 -1.59335,-1.23291 -6.49481,-1.70079 -11.46695,-1.09313 l -1.99249,0.24357 -0.24446,-3.43939 c -0.42878,-6.02163 -2.09196,-8.90569 -5.69521,-9.87596 -0.96873,-0.26096 -6.25201,-0.37522 -14.36575,-0.30999 l -12.83337,0.10343 -0.59825,1.89012 c -0.32899,1.03967 -0.91253,2.0666 -1.29685,2.28167 -0.44624,0.2499 -3.14009,0.29007 -7.45516,0.11134 l -6.75655,-0.28026 -0.61812,-1.04543 c -0.33991,-0.57543 -1.09227,-1.52059 -1.6715,-2.09982 l -1.05239,-1.05337 -12.93969,0.006 c -7.11674,0.003 -13.13704,0.13539 -13.37795,0.29324 -0.24092,0.15784 -1.33363,1.78152 -2.42875,3.60831 -4.47446,7.46409 -9.71775,12.78879 -15.76595,16.01141 -3.5554,1.89442 -3.57876,1.94449 -3.38573,7.18784 0.12913,3.50689 0.20009,3.76827 1.40419,5.19336 3.48419,4.12371 4.0032,6.15697 2.47146,9.67325 -0.8517,1.95503 -0.92698,4.25691 -0.89736,27.216 10e-4,0.76589 0.46036,2.2991 1.02159,3.40659 1.23187,2.43101 1.24774,2.72472 0.2057,3.83392 -1.22664,1.30551 -1.47522,4.64948 -1.23424,16.58978 0.21346,10.57716 0.21722,10.6172 1.18059,11.76209 1.23012,1.46193 3.33053,2.53185 6.35606,3.23767 l 2.386,0.55649 20.74268,-3.89453 c 11.40823,-2.14192 20.89775,-3.99031 21.08852,-4.10818 0.19077,-0.11798 0.61397,0.006 0.94009,0.2771 0.45136,0.37457 0.56691,1.17494 0.48594,3.34995 -0.14142,3.79814 0.13925,4.01039 5.28083,4.02769 l 3.85379,0.0126 8.17165,-6.86483 c 4.49422,-3.77584 8.40967,-6.80914 8.70134,-6.74068 0.29165,0.0686 3.37458,3.33317 6.84996,7.25544 4.1894,4.72808 6.57947,7.13217 7.09343,7.13217 1.11897,0 7.50227,-1.61324 8.04149,-2.03221 0.37674,-0.29293 4.41254,-6.98878 10.90548,-18.09234 l 1.14282,-1.95373 0.10333,1.75795 c 0.17163,2.92881 0.40261,3.38521 2.33532,4.60209 l 1.85932,1.17066 11.72335,0.2654 c 8.21361,0.18569 11.85737,0.40383 12.17251,0.72844 0.24737,0.25496 1.08893,2.53046 1.87026,5.05722 1.93425,6.25521 3.26058,7.77136 7.64398,8.73809 l 10e-4,10e-4 c 1.18205,0.26065 2.70739,0.48949 3.3897,0.50678 2.26632,0.0598 15.9158,-1.53032 18.25332,-2.12663 3.25788,-0.83109 6.68354,-2.76992 8.45986,-4.7879 1.3959,-1.58587 3.11144,-5.18919 3.11144,-6.53494 0,-1.2462 1.51468,-1.36644 17.1751,-1.36644 h 15.6646 l 1.45682,-0.92617 c 2.96,-1.88091 3.58291,-3.51554 3.59446,-9.42876 0.009,-4.36377 -0.50414,-7.67781 -1.81661,-11.74223 l -1.01563,-3.14524 2.69211,-4.86543 2.69307,-4.86543 -0.12526,-14.45817 -0.12432,-14.45815 -1.37735,-1.20246 c -1.36866,-1.19533 -1.38114,-1.23791 -2.11572,-6.83902 -0.7558,-5.76348 -1.16611,-7.30991 -2.35025,-8.8663 -0.46671,-0.61345 -0.75962,-2.0268 -0.95202,-4.59314 -0.2654,-3.54131 -0.34191,-3.77983 -1.7013,-5.31164 l -1.42306,-1.60393 -4.68457,-0.56841 c -2.84542,-0.34543 -8.89296,-0.59714 -15.40322,-0.64098 l -10.71866,-0.0715 -0.32695,1.25013 c -0.17967,0.68792 -0.46749,1.33822 -0.63997,1.44495 -0.17256,0.1066 -1.62065,-0.14709 -3.2178,-0.56348 -5.38468,-1.40382 -11.97312,-2.69434 -16.81933,-3.29429 -2.64557,-0.32753 -4.56793,-0.52947 -6.02116,-0.55253 z m 0.6539,6.29443 c 0.55151,-0.0127 2.10941,0.25559 3.75342,0.6529 3.50277,0.84678 8.87833,1.7342 13.37993,2.20815 1.39698,0.1471 2.66106,0.33819 2.80836,0.42531 0.14731,0.0869 -0.43574,1.74413 -1.29585,3.68189 -0.86013,1.93772 -1.59631,4.00074 -1.63573,4.58418 l -0.0715,1.06032 3.87067,0.11231 c 3.77046,0.10976 3.89987,0.0845 5.01549,-0.97689 0.62991,-0.59922 2.5443,-2.97939 4.25329,-5.28975 l 3.10648,-4.20063 1.64566,0.0339 c 0.90519,0.019 5.51444,0.32603 10.24264,0.68371 l 8.59699,0.64992 0.11925,1.2233 c 0.0973,1.0001 -0.24768,1.64104 -1.89309,3.51692 -2.16295,2.46584 -3.28563,4.28997 -2.81632,4.57723 0.16041,0.098 1.34693,0.29481 2.63644,0.43726 1.28951,0.14234 2.83243,0.34979 3.42845,0.46209 l 1.08321,0.20466 -0.1063,6.70785 -0.10723,6.70686 -9.57285,0.1958 c -9.248,0.18885 -9.57386,0.22207 -9.57386,0.97689 0,0.73072 0.34241,0.79765 5.27487,1.02853 2.90139,0.13571 8.22084,0.26793 11.82073,0.29324 l 6.54489,0.0459 v 7.01991 7.01989 l -3.97304,0.11135 c -2.57394,0.0721 -4.02698,0.27141 -4.1241,0.56445 -0.0825,0.24895 1.74974,1.71861 4.07143,3.26649 2.32168,1.54789 4.43093,2.98319 4.68654,3.18994 0.33984,0.27489 -0.61797,1.97037 -3.56357,6.30737 -2.21556,3.26204 -4.31969,6.5023 -4.67566,7.20079 -0.37126,0.72847 -0.94971,1.27001 -1.35647,1.27001 -0.39002,0 -2.17217,-0.87913 -3.96012,-1.95372 -4.52013,-2.71662 -4.68682,-2.6786 -4.69451,1.07424 -0.003,1.66562 -0.1353,3.22762 -0.29317,3.47118 -0.19752,0.30463 -3.4847,0.49174 -10.5368,0.59828 -6.50977,0.0983 -10.40125,0.30651 -10.665,0.5704 -0.58706,0.58707 7.94844,0.9256 23.36719,0.92719 l 12.6118,0.002 -0.10724,5.95856 -0.10818,5.95958 -17.77933,0.0983 c -16.16148,0.0899 -17.82422,0.15848 -18.26823,0.75824 -0.29216,0.39458 -0.48893,1.87898 -0.48893,3.69378 v 3.03396 l -2.05111,2.08687 c -1.63367,1.66173 -2.64921,2.3022 -4.9827,3.14525 -2.44486,0.88315 -3.48046,1.04457 -6.25172,0.97187 -1.82681,-0.0481 -5.62389,-0.14108 -8.43798,-0.20782 l -5.11686,-0.12116 -0.67476,-2.42974 c -0.37146,-1.3361 -1.30171,-3.88693 -2.06701,-5.66838 -0.76529,-1.78144 -1.26524,-3.36487 -1.11102,-3.5189 0.15415,-0.15405 2.59533,-0.27931 5.42492,-0.27931 4.31261,0 5.14467,-0.0949 5.14467,-0.58632 0,-0.51159 -2.42304,-0.59922 -19.05925,-0.68765 l -19.06025,-0.10126 0.10831,-6.15035 0.10733,-6.15136 h 18.95194 c 16.58563,0 18.95192,-0.0734 18.95192,-0.58632 0,-0.50805 -1.56356,-0.58533 -11.72334,-0.58533 h -11.72235 l -0.19578,-3.29132 c -0.10745,-1.80977 -0.38205,-3.35126 -0.61016,-3.42646 -0.2281,-0.0752 -2.10236,0.92216 -4.16583,2.21607 -2.0635,1.29393 -3.84115,2.35223 -3.95019,2.35223 -0.10913,0 -1.7316,-2.04018 -3.60434,-4.53353 -1.87276,-2.49332 -4.33354,-5.62823 -5.46866,-6.96622 -1.13513,-1.33803 -1.94674,-2.61042 -1.80366,-2.82822 0.14311,-0.21795 2.72214,-2.03257 5.73099,-4.03169 3.00887,-1.99912 5.544,-3.69736 5.63362,-3.77429 0.54672,-0.46933 -0.96728,-0.74928 -4.98071,-0.92121 l -4.56036,-0.19485 -0.10733,-6.81021 c -0.0817,-5.18606 0.0114,-6.88451 0.39055,-7.12523 0.27387,-0.17367 6.1561,-0.31813 13.07188,-0.32197 10.90466,-0.006 12.65561,-0.0876 13.18814,-0.62009 0.33772,-0.33774 0.61413,-0.86465 0.61413,-1.17165 10e-6,-0.47151 -1.84149,-0.5585 -11.85849,-0.5585 h -11.8585 l -0.22757,-6.72474 c -0.1252,-3.69856 -0.14177,-6.86382 -0.0368,-7.03382 0.10505,-0.16987 1.85676,-0.30905 3.89253,-0.30905 2.9348,0 3.74849,-0.1221 3.92733,-0.5883 0.12594,-0.32813 -0.48428,-1.71915 -1.38032,-3.14822 -0.88305,-1.40842 -1.60491,-2.70166 -1.60491,-2.87396 0,-0.64445 15.53997,-5.10122 17.81705,-5.10891 0.65821,-0.002 1.37706,1.07125 3.66299,5.47165 3.05023,5.87166 3.21034,6.02362 6.10564,5.78663 1.50429,-0.12306 1.53768,-0.16101 2.36415,-2.66524 0.46107,-1.39697 1.15655,-4.18549 1.54529,-6.19708 0.40133,-2.07681 0.92707,-3.74183 1.21636,-3.8528 0.035,-0.0126 0.0932,-0.0222 0.17192,-0.0222 z m -114.61889,1.08519 2.23794,2.549 c 2.05528,2.34101 7.10575,6.43855 7.93613,6.43855 0.45971,0 0.82012,-1.39756 0.8278,-3.20091 0.003,-0.79325 0.17775,-1.54808 0.38857,-1.67844 0.36489,-0.22554 13.34202,1.88801 14.63206,2.38302 0.52559,0.20182 0.61514,-0.1879 0.61514,-2.67618 v -2.91072 l 9.78155,-0.27236 c 5.38004,-0.14931 9.92452,-0.18316 10.09855,-0.0756 0.17395,0.10754 0.43167,2.8731 0.5734,6.14636 0.17695,4.08834 0.41116,6.04887 0.74631,6.26167 0.26838,0.17049 3.23547,0.31221 6.59358,0.316 3.3581,0.003 6.65756,0.11641 7.33292,0.25148 l 1.22829,0.24547 -0.10436,9.4258 -0.10435,9.42579 -7.40747,0.10629 c -5.32656,0.0766 -7.49248,0.24135 -7.71154,0.58631 -0.50505,0.79499 -0.35947,4.05981 0.20171,4.52556 0.32868,0.27268 3.36679,0.46933 8.30383,0.53666 l 7.7851,0.10628 0.10534,8.76492 c 0.061,5.07996 -0.0483,8.91856 -0.26038,9.13065 -0.20127,0.20119 -3.67688,0.47699 -7.72447,0.61314 l -7.35976,0.24737 -0.12621,1.09813 c -0.0964,0.84061 0.5899,2.15697 2.93059,5.61968 2.41735,3.57614 4.14285,5.54721 8.24918,9.42579 3.10139,2.92935 5.11205,5.11454 4.99262,5.42589 -0.53662,1.39843 -11.43451,16.09733 -11.94892,16.11675 -1.05233,0.0395 -10.29091,-9.69827 -12.83436,-13.52801 -1.3098,-1.97215 -2.56678,-3.69968 -2.79347,-3.83987 -0.22671,-0.14013 -2.99989,2.37499 -6.16327,5.5889 -3.16337,3.21392 -7.41516,7.27132 -9.44864,9.01735 h -0.001 c -2.99752,2.57377 -3.93893,3.17504 -4.97673,3.17504 -1.19094,0 -1.37462,-0.18727 -2.63346,-2.68714 -1.64856,-3.27357 -3.66828,-5.51931 -4.96481,-5.51931 -0.51754,0 -10.16867,1.75679 -21.44625,3.90348 -11.27762,2.14669 -20.87214,3.90553 -21.32205,3.90746 -0.78504,0.003 -0.8283,-0.24325 -1.07325,-6.14936 -0.14042,-3.38499 -0.2566,-7.67458 -0.2574,-9.53211 -10e-4,-3.66481 0.1128,-3.85182 2.35222,-3.85182 0.61448,0 1.22475,-0.17461 1.35648,-0.38757 0.13165,-0.21289 -0.73631,-3.44565 -1.92988,-7.18385 -1.19357,-3.73823 -2.17036,-6.98666 -2.17036,-7.21865 0,-0.23187 1.66996,-1.60947 3.71169,-3.06078 2.04172,-1.45127 3.71267,-2.76979 3.71267,-2.92961 0,-0.15974 -1.53899,-0.34134 -3.41952,-0.40343 l -3.41852,-0.11231 -0.10534,-8.49961 c -0.0824,-6.65194 0.002,-8.50493 0.39054,-8.52742 0.51467,-0.0285 10.01124,0.11008 12.41401,0.18284 1.26825,0.0382 1.36741,-0.0436 1.36741,-1.1309 v -1.17263 l -4.298,-0.29703 c -2.3641,-0.16354 -4.50686,-0.37399 -4.76208,-0.46706 -0.54631,-0.19929 -9.10977,-14.50965 -9.10977,-15.22334 0,-0.26793 0.83548,-1.08336 1.85634,-1.81163 3.00919,-2.1467 9.35702,-8.4758 12.7181,-12.68033 2.64333,-3.30664 3.3398,-3.94881 4.53153,-4.17777 0.77458,-0.14899 5.56991,-0.28152 10.65606,-0.29323 z m 114.84745,0.19581 -1.25611,5.08107 c -0.691,2.79459 -1.55004,5.64896 -1.909,6.34315 l -0.65291,1.26208 -2.43569,-0.2306 c -2.98807,-0.28217 -3.10995,-0.40847 -6.17918,-6.42859 -1.28578,-2.52192 -2.56382,-4.67203 -2.84015,-4.778 -0.45451,-0.1743 -9.63808,2.0182 -13.89272,3.31716 -2.50695,0.76539 -2.70465,1.34684 -1.25809,3.69778 0.66882,1.08696 1.32518,2.52352 1.45882,3.19196 l 0.24348,1.21536 -4.05154,0.11134 -4.05155,0.11231 v 6.05693 6.05697 l 12.40706,0.19486 c 6.82391,0.10755 12.45097,0.2926 12.50443,0.41043 0.0535,0.118 -0.5178,0.94886 -1.27002,1.84638 l -1.3674,1.63177 -12.70021,0.2635 c -8.53198,0.17682 -12.79354,0.40461 -12.98642,0.69364 -0.15787,0.23662 -0.28931,2.826 -0.29313,5.75485 -0.004,3.92932 0.12871,5.43722 0.5078,5.75187 0.29573,0.24547 2.6586,0.47335 5.56802,0.53662 4.09399,0.0889 5.05425,0.217 5.05425,0.67374 0,0.31032 -2.46177,2.20632 -5.47063,4.21354 -7.91797,5.2821 -7.53245,4.38569 -3.86373,8.98357 1.69532,2.12467 3.92353,4.96067 4.9509,6.30139 1.02736,1.34076 1.99389,2.36787 2.1485,2.28269 0.15468,-0.0851 1.77655,-1.05169 3.60336,-2.14752 1.82681,-1.09582 3.80435,-2.10731 4.39539,-2.24788 l 1.07524,-0.25528 0.006,3.07072 c 0.003,1.68893 0.14339,3.28828 0.31202,3.55367 0.22953,0.36141 3.24397,0.50863 12.00955,0.58632 l 11.70347,0.10343 v 1.36742 1.36739 l -19.14671,0.1958 -19.1477,0.19581 v 5.07911 5.08006 l 19.1477,0.1958 19.14671,0.19581 v 1.36742 1.36738 l -5.17746,0.10945 c -4.11725,0.0867 -5.17748,0.22017 -5.17748,0.65392 0,0.29987 0.53027,1.86993 1.17859,3.48905 0.64834,1.61912 1.28531,3.47513 1.41512,4.12408 0.12978,0.64895 0.44781,1.35541 0.70656,1.57016 0.26473,0.21953 3.61851,0.43688 7.66981,0.49689 h 0.001 c 8.22428,0.12209 8.35192,0.11166 11.45304,-0.98284 1.59752,-0.56378 2.87632,-1.38864 4.1867,-2.69905 l 1.88715,-1.88613 0.11128,-3.80511 0.1123,-3.80608 17.74452,-0.10126 c 12.5415,-0.0718 17.90088,-0.23155 18.27914,-0.54557 0.41057,-0.34106 0.51017,-1.5419 0.42632,-5.17349 l -0.10945,-4.73027 -17.93233,-0.19485 c -16.52873,-0.17999 -17.96719,-0.24927 -18.36462,-0.87946 -0.31421,-0.49834 -0.31393,-0.86911 0,-1.36742 0.3872,-0.61462 1.49422,-0.70538 10.93928,-0.89536 5.77968,-0.11641 10.5527,-0.24832 10.60636,-0.29324 0.0537,-0.0449 0.0995,-1.35653 0.10333,-2.91466 0.003,-1.55817 0.15209,-3.06392 0.33093,-3.34599 0.64646,-1.01943 2.55648,-0.58393 5.52429,1.25908 1.61189,1.00098 3.21189,1.77023 3.55566,1.70928 0.58148,-0.10281 8.94877,-12.11452 8.94877,-12.8463 0,-0.18221 -1.36233,-1.247 -3.02795,-2.36613 -5.15828,-3.46594 -7.18296,-5.06266 -7.02488,-5.54022 0.10011,-0.30241 1.74274,-0.52621 4.80978,-0.65486 l 4.65677,-0.19486 v -6.05694 -6.05693 l -11.72239,-0.19582 -11.72235,-0.19485 v -1.9537 -1.95373 l 9.57286,-0.1958 9.57385,-0.19581 0.10819,-5.571 c 0.12653,-6.50803 0.39673,-6.13238 -4.69947,-6.55382 -2.47821,-0.20498 -3.02898,-0.37027 -3.02898,-0.90831 0,-0.75586 1.36324,-2.85156 3.821,-5.8741 1.40354,-1.72604 1.61837,-2.19088 1.1925,-2.58673 -0.58106,-0.54013 -18.17317,-1.8615 -18.95889,-1.42405 -0.25537,0.14204 -1.33045,1.49244 -2.38997,3.00113 -1.05952,1.50872 -2.84656,3.75031 -3.97106,4.98073 l -2.04515,2.23694 h -4.84556 c -3.79547,0 -4.84456,-0.11356 -4.84456,-0.5247 0,-0.68026 1.24971,-4.22809 2.34229,-6.64824 0.47119,-1.04369 0.70803,-2.04252 0.52668,-2.21907 -0.18135,-0.17651 -2.47618,-0.59818 -5.09995,-0.93709 -2.62378,-0.33894 -6.05299,-0.90745 -7.62012,-1.26309 -1.56715,-0.35562 -3.4431,-0.6623 -4.16981,-0.68169 z m -120.1571,0.58631 c -2.56308,0 -7.07463,0.11483 -10.02501,0.25655 l -5.36429,0.25749 -2.86401,3.56161 c -3.56975,4.43833 -8.32853,9.29781 -11.6995,11.94695 -1.41638,1.1131 -2.57271,2.2274 -2.56886,2.47644 0.003,0.24894 1.81728,3.53011 4.03167,7.29118 l 4.0267,6.83805 4.54644,0.19581 c 2.50387,0.10754 4.73803,0.38737 4.97276,0.62306 0.23445,0.23535 0.46277,1.20286 0.50681,2.1495 l 0.0795,1.7212 -6.98114,-0.14518 c -5.60562,-0.1161 -7.04864,-0.0396 -7.321,0.39053 -0.18651,0.2945 -0.341,3.66244 -0.34484,7.48399 -0.005,6.17056 0.0675,6.97637 0.65488,7.20175 0.36379,0.13982 3.74934,0.26572 7.52275,0.28121 l 6.8599,0.0253 -0.0884,1.56319 c -0.68628,12.13438 -1.36058,19.18959 -1.88417,19.71314 -0.21655,0.21668 -3.00404,0.69586 -6.19508,1.06533 -3.24733,0.37598 -6.01771,0.88691 -6.29147,1.1607 -0.37283,0.37291 -0.44235,2.37362 -0.29216,8.42208 0.10828,4.36313 0.34971,8.12658 0.53663,8.36246 0.36137,0.45621 1.11903,0.33689 16.36419,-2.58079 4.40583,-0.84321 12.22796,-2.33705 17.38279,-3.31916 5.15481,-0.9821 9.54415,-1.9568 9.75372,-2.16636 0.43734,-0.43736 -0.7957,-15.21728 -1.31276,-15.73516 -0.17455,-0.17493 -2.822,0.061 -5.88303,0.52472 -3.35672,0.50827 -5.70762,0.7011 -5.92279,0.48594 -0.20077,-0.20055 -0.31067,-4.27629 -0.25142,-9.31748 l 0.10534,-8.95969 5.02841,0.14394 c 3.94946,0.11325 5.10118,0.0285 5.36728,-0.39155 0.40245,-0.63522 0.42502,-9.62783 0.0297,-11.86645 l -0.27625,-1.56316 -5.07412,-0.39057 -5.07511,-0.39054 0.11824,-2.13856 c 0.0648,-1.1762 0.32875,-2.27303 0.58632,-2.4367 0.25759,-0.16354 1.97151,-0.29925 3.80907,-0.30304 2.06993,-0.003 3.51953,-0.18442 3.81006,-0.475 0.65343,-0.65344 0.65343,-11.30446 0,-11.95786 -0.27906,-0.279 -1.62449,-0.46908 -3.32213,-0.46908 -1.56891,0 -2.85208,-0.16323 -2.85208,-0.36372 0,-0.4748 0.49343,-0.61835 5.97546,-1.73012 2.5342,-0.51394 4.71084,-1.03692 4.83662,-1.16269 0.33591,-0.3359 0.87377,-3.35993 0.89338,-5.02046 0.0162,-1.35989 -0.15952,-1.56635 -3.21382,-3.77131 -1.77724,-1.28299 -4.31257,-3.49302 -5.6336,-4.91114 l -2.40191,-2.57781 z m 46.21367,0.84469 c -1.17431,-0.003 -2.60201,0.006 -4.32881,0.0253 l -8.96071,0.10534 0.14709,6.93543 0.14608,6.93643 h -0.99773 c -1.83356,0 -2.1508,-0.76647 -1.92889,-4.65875 0.19622,-3.44129 0.17895,-3.53445 -0.73139,-3.87763 -1.93718,-0.73033 -11.67451,-2.1745 -12.06024,-1.78876 -0.21039,0.21036 -0.46567,2.04752 -0.56644,4.08333 -0.26008,5.2523 -0.81078,8.66117 -2.58078,15.95773 -0.85312,3.5169 -1.55126,6.58062 -1.55126,6.80923 0,0.22871 1.18263,1.51502 2.62848,2.85805 l 2.62849,2.44167 -0.47899,1.32667 c -0.60883,1.68356 -0.67424,16.35577 -0.0756,16.95447 0.26106,0.26097 2.56635,0.33885 6.48923,0.21954 6.73784,-0.20467 6.76959,-0.19454 6.77344,2.26674 0.004,2.56114 -2.20787,5.58801 -10.68785,14.62215 l -4.25029,4.52753 0.46606,4.95786 c 0.42561,4.5268 0.56493,5.08208 1.59995,6.38886 0.62342,0.78712 1.58049,2.32225 2.12764,3.41155 0.54714,1.08935 1.21285,2.06885 1.4787,2.17634 0.26588,0.10755 0.58118,0.20815 0.7006,0.22554 0.84271,0.11958 10.64481,-8.73288 15.75999,-14.23359 2.0974,-2.2555 4.04882,-4.10124 4.33675,-4.10124 0.28795,0 1.92871,2.06685 3.6461,4.59215 3.41583,5.02275 11.23271,13.19442 12.23215,12.78766 0.59125,-0.24073 10.89455,-14.37938 10.89455,-14.95007 0,-0.19422 -1.71461,-1.91745 -3.81006,-3.82993 -5.35451,-4.88698 -5.70974,-5.29057 -9.10778,-10.35892 -2.44224,-3.64271 -3.06291,-4.86828 -3.1681,-6.25272 l -0.13118,-1.7212 1.95472,-0.25939 c 1.0746,-0.14234 4.42363,-0.27394 7.44324,-0.29323 3.7076,-0.0222 5.64289,-0.186 5.95956,-0.50284 0.70394,-0.70401 0.65833,-15.29856 -0.0497,-15.8862 -0.32864,-0.27267 -3.36676,-0.4693 -8.30383,-0.53662 l -7.78509,-0.10628 v -3.32115 -3.32214 l 7.22859,-0.19485 c 3.97599,-0.10756 7.44884,-0.33794 7.71752,-0.51179 0.67228,-0.43507 0.70621,-16.50137 0.0358,-16.91572 -0.24936,-0.15405 -3.71451,-0.3845 -7.70063,-0.51179 l -7.24746,-0.23155 -0.27128,-0.97685 c -0.14905,-0.53731 -0.2914,-3.0864 -0.31601,-5.66541 -0.0247,-2.57903 -0.18667,-4.91263 -0.35975,-5.18543 -0.18201,-0.28723 -1.422,-0.40867 -4.94493,-0.41737 z m -14.48798,6.59457 c -0.0578,0.006 -0.11935,0.13602 -0.19081,0.37564 -0.16035,0.5373 -0.30858,2.09019 -0.32993,3.45131 -0.0288,1.81914 0.0902,2.43208 0.44918,2.31248 0.69475,-0.23123 0.80538,-1.21108 0.46805,-4.15986 -0.15933,-1.39282 -0.26935,-1.9907 -0.3965,-1.97957 z m -35.72854,7.60419 c 0.73041,0 5.25215,4.73267 4.79289,5.0165 -0.18419,0.11388 -2.30153,0.33184 -4.70444,0.48396 -3.87786,0.24547 -4.39678,0.20245 -4.61898,-0.37663 -0.29099,-0.7583 3.56898,-5.12383 4.53053,-5.12383 z m 0,0.82384 -1.36741,1.32567 c -0.75221,0.72906 -1.3674,1.55525 -1.3674,1.83545 0,0.37026 0.74681,0.50882 2.73481,0.50882 3.20403,0 3.4152,-0.36046 1.36841,-2.34427 z m 17.87769,1.74404 c -2.29207,0.0715 -2.34403,0.19485 -2.27174,5.43782 0.0367,2.6605 0.16959,5.00414 0.29514,5.20728 0.37874,0.61285 0.82168,-0.57046 1.8633,-4.97871 1.23896,-5.24324 1.24815,-5.70179 0.11328,-5.66639 z m 119.00235,7.04474 c 4.06657,0.0563 4.74524,0.31442 4.89523,1.85832 0.0684,0.70407 -0.085,1.5321 -0.34085,1.84045 -0.34883,0.42034 -1.40695,0.55373 -4.22744,0.53064 -2.06913,-0.0159 -3.98165,-0.1202 -4.2503,-0.22839 -0.76121,-0.30715 -0.57463,-2.23656 0.30808,-3.18398 0.68554,-0.73592 1.19073,-0.85035 3.61528,-0.81689 z m -1.27003,0.8745 c -1.22302,0.0686 -2.62418,1.07931 -2.20415,1.75895 0.1793,0.29006 1.54197,0.45415 3.77429,0.45415 3.4663,0 3.49405,-0.006 3.49405,-0.97686 0,-0.89324 -0.14621,-0.97688 -1.70926,-0.97688 -0.94027,0 -2.22218,-0.1025 -2.84811,-0.22744 -0.16165,-0.0322 -0.33209,-0.0418 -0.50682,-0.0319 z m -101.86501,5.3484 c 0.76583,0.009 1.54275,0.0851 2.12266,0.24042 0.85517,0.22902 0.8884,0.38484 0.78109,3.60932 l -0.11229,3.36983 -3.46722,0.11324 -3.46821,0.11421 0.24547,-1.09115 c 0.1352,-0.59975 0.35733,-2.05758 0.4929,-3.23963 0.13555,-1.18205 0.41992,-2.36878 0.63203,-2.63744 0.25123,-0.3182 1.49718,-0.49335 2.77358,-0.47898 z m -1.31176,1.19054 c -0.92923,0.0557 -0.94525,0.60728 -1.37337,3.25355 -0.17158,1.06049 -0.0897,1.62111 0.2703,1.84937 v 0.001 c 0.66542,0.42135 3.48992,0.42448 4.15291,0.003 0.34942,-0.22174 0.47208,-1.04928 0.39054,-2.63146 l -0.11827,-2.30849 -2.03918,-0.11831 c -0.56181,-0.0322 -0.9732,-0.0683 -1.28294,-0.0496 z m -15.83849,0.84566 -4.33775,0.28913 c -2.38556,0.15943 -4.5154,0.40002 -4.73326,0.53465 -0.59579,0.36821 -0.83171,2.1564 -0.33689,2.55296 0.23861,0.19106 2.54379,0.47588 5.12282,0.63201 2.77938,0.16829 4.80554,0.46545 4.97574,0.72943 0.15787,0.24483 0.28931,3.74243 0.29316,7.77215 l 0.006,7.32699 h -2.1495 c -1.46233,0 -2.14638,0.15564 -2.14253,0.48794 0.003,0.26856 1.58623,1.43499 3.5169,2.5917 1.93067,1.15668 3.51094,2.33386 3.51094,2.61558 0,0.28154 -1.32306,2.40144 -2.93953,4.7104 -1.61646,2.30893 -2.87594,4.38435 -2.7994,4.61303 0.0833,0.24895 1.00759,0.36346 2.30352,0.28533 l 2.1644,-0.13032 0.2852,3.06077 c 0.15658,1.68372 0.36646,3.19604 0.46608,3.35991 0.2804,0.46113 0.84151,-0.0222 4.65972,-4.01081 8.00397,-8.36047 10.86519,-12.77038 9.04816,-13.9464 -0.26866,-0.17366 -3.30196,-0.31601 -6.74066,-0.31601 h -6.2527 l -0.0537,-9.86602 -0.0547,-9.866 -1.90602,-1.71325 z m 132.48066,8.30979 v 1.75796 1.75897 l -5.86118,0.24262 c -9.15576,0.37896 -23.96311,0.38036 -24.19697,0.002 -0.11621,-0.18791 0.31379,-1.06719 0.956,-1.9537 l 1.16766,-1.61188 7.9103,-0.0607 c 4.35074,-0.0332 10.63601,-0.0781 13.96725,-0.0983 z m -5.17747,0.8129 c -2.40732,0.001 -5.66015,0.0285 -9.17834,0.0794 -13.33883,0.19549 -14.41057,0.33847 -13.83309,1.84343 0.2537,0.66109 0.99482,0.68424 13.44751,0.41439 12.90049,-0.27964 14.15508,-0.42097 14.15508,-1.593 0,-0.27299 -0.21928,-0.57606 -0.48793,-0.67374 -0.13432,-0.049 -1.6959,-0.0724 -4.10323,-0.0706 z m 9.38901,5.63461 c 0.64528,0 2.14221,1.24693 5.09201,4.24037 2.298,2.33196 4.17776,4.44148 4.17776,4.68854 0,0.32568 -2.52866,0.44918 -9.19524,0.44918 -9.88013,0 -9.78386,0.019 -9.49434,-2.02329 0.12624,-0.8911 0.22342,-0.90951 5.30665,-1.01662 5.92036,-0.12462 5.8566,-0.0727 3.98398,-3.24861 -1.30803,-2.21837 -1.27161,-3.08957 0.12919,-3.08957 z m 0.58434,1.17262 c -0.60754,0 -0.26832,1.02839 1.07226,3.25156 0.75464,1.25152 1.26233,2.45382 1.12791,2.67123 -0.15142,0.24484 -2.22381,0.3478 -5.44976,0.27046 -5.05137,-0.12148 -6.43528,0.10407 -5.24703,0.85564 0.91754,0.58026 15.22832,0.48126 15.22832,-0.10534 0,-0.51695 -6.23059,-6.94339 -6.7317,-6.94339 z m -43.05153,3.12737 c 0.63836,-0.006 1.07848,0.3157 1.32567,0.96591 l 0.36769,0.96694 6.5588,0.10724 6.55779,0.10723 v 1.95374 1.95373 l -9.1823,0.0126 c -11.70905,0.0159 -11.33281,0.0643 -11.33281,-1.50653 0,-1.0659 0.32674,-1.48741 2.24689,-2.90275 1.48827,-1.09702 2.63753,-1.6492 3.45827,-1.65759 z m -102.00216,0.65091 c -0.79155,-0.006 -1.48661,0.0586 -1.6854,0.21953 -0.50688,0.41107 -0.71065,5.41884 -0.2395,5.88998 0.13745,0.13728 0.40584,0.15501 0.59526,0.0376 0.48317,-0.29862 4.2354,-5.29228 4.2354,-5.63657 0,-0.28976 -1.58648,-0.49936 -2.90575,-0.51081 z m 101.78353,0.25433 c -1.06565,0.11672 -4.80024,2.90736 -4.59711,3.51888 0.10638,0.32031 2.44082,0.52143 7.73937,0.66682 4.17332,0.11451 8.08326,0.24642 8.68842,0.29324 0.60516,0.0468 1.44063,-0.0974 1.85633,-0.32 0.91181,-0.48803 0.99622,-1.76359 0.13814,-2.09285 -0.33995,-0.13033 -3.41791,-0.23756 -6.83903,-0.23756 -5.99174,0 -6.21992,-0.0285 -6.21992,-0.79398 0,-0.4366 -0.26543,-0.89601 -0.5903,-1.0206 -0.0454,-0.019 -0.10486,-0.0222 -0.17591,-0.0126 z m -124.3249,0.30209 c -1.76802,0.009 -1.67044,0.74824 -0.14808,3.87071 0.83828,1.7193 1.73918,3.12635 2.00143,3.12635 0.50312,0 1.11531,-4.14072 0.86953,-5.88207 -0.1165,-0.82543 -0.37002,-0.97325 -1.84938,-1.07922 -0.32999,-0.0222 -0.62093,-0.037 -0.8735,-0.0358 z m -2.99618,0.74434 c -0.50734,0 -7.59457,5.23076 -8.03154,5.92776 -0.30953,0.49366 0.004,1.96775 1.28791,6.05694 0.93319,2.97236 1.84242,5.79995 2.0203,6.28352 0.17784,0.48357 0.4944,0.87949 0.70359,0.87949 0.44548,0 8.19688,-6.05571 8.93088,-6.97717 0.31048,-0.38978 0.40271,-1.07459 0.24348,-1.80765 -0.31928,-1.4706 -4.74239,-10.36289 -5.15461,-10.36289 z m 29.01372,0.64693 c -0.56493,0.21668 -4.74554,5.61012 -5.13474,6.62437 -0.15876,0.41376 0.69647,1.54896 2.64339,3.50898 1.58283,1.59344 3.0039,2.8968 3.15717,2.8968 0.36531,0 6.18811,-8.40555 6.18811,-8.93289 0,-0.60131 -6.24135,-4.33232 -6.85393,-4.09726 z m 66.67411,3.65206 c 0.18005,0 1.06293,1.08244 1.96168,2.40589 l 1.63372,2.40687 -1.23225,1.01262 -1.23226,1.01266 0.004,4.59115 c 0.002,3.31052 -0.12726,4.59215 -0.46508,4.59215 -0.9362,0 -10.61776,-11.09043 -10.35991,-11.86745 0.0806,-0.24294 1.27491,-0.56721 2.65431,-0.72047 1.37943,-0.15342 3.35147,-0.48079 4.38247,-0.72743 1.60812,-0.38465 1.90711,-0.60868 2.1008,-1.57708 0.1242,-0.62089 0.37254,-1.12891 0.55254,-1.12891 z m -72.00065,5.70714 c -0.38416,0.23756 -0.43997,4.59738 -0.0636,4.97374 0.39703,0.39715 2.68325,0.31032 3.88659,-0.14709 l 1.07127,-0.40746 -2.28564,-2.30948 c -1.25699,-1.27024 -2.43073,-2.21975 -2.60862,-2.10974 z m -19.52036,4.455 c -0.63577,0.003 -6.32259,4.4599 -6.54587,5.12978 -0.18856,0.56568 5.75498,0.16196 6.34811,-0.43127 0.20638,-0.20626 0.45686,-1.34844 0.55551,-2.53809 0.13779,-1.66167 0.0546,-2.16232 -0.35775,-2.16042 z" />
    <path
       inkscape:connector-curvature="0"
       id="path96"
       style="fill:#ffffff;fill-opacity:1;stroke-width:0.39076102"
       d="m 304.30853,246.41013 c -3.1971,-0.0506 -4.12098,0.76788 -5.46268,3.0379 -0.64475,1.09089 -1.34311,1.98667 -1.55225,1.99049 -0.20915,0.003 -1.47568,-1.07715 -2.81431,-2.40389 l -2.43371,-2.41285 -7.34585,1.69438 c -8.68505,2.00305 -15.8989,4.00036 -17.96612,4.97373 -1.56059,0.73483 -1.93647,1.5545 -2.03223,4.42719 -0.0356,1.06909 -0.40429,1.73547 -1.60989,2.91271 l -1.56318,1.5264 v 4.74719 c 0,2.61135 -0.11236,5.82903 -0.25044,7.15007 -0.22908,2.19183 -0.33196,2.40191 -1.17264,2.40191 h -0.9212 v -7.37665 c 0,-5.43919 -0.12878,-7.47558 -0.48892,-7.7543 -1.59336,-1.23291 -6.49482,-1.69978 -11.46697,-1.09212 l -1.99148,0.24358 -0.24547,-3.44038 c -0.42878,-6.02163 -2.09197,-8.90569 -5.69522,-9.87596 -0.96872,-0.26096 -6.252,-0.37424 -14.36574,-0.30905 l -12.83338,0.1025 -0.59723,1.89012 c -0.32901,1.03968 -0.91355,2.0666 -1.29786,2.28167 -0.44626,0.2499 -3.14009,0.29007 -7.45516,0.11134 l -6.75655,-0.27931 -0.61812,-1.04644 c -0.33991,-0.57543 -1.09129,-1.52059 -1.6705,-2.09982 l -1.05339,-1.05238 -12.93971,0.006 c -7.11673,0.003 -13.13601,0.13539 -13.37695,0.29323 -0.24091,0.15786 -1.33461,1.78251 -2.42973,3.60934 -4.47445,7.46405 -9.71774,12.78875 -15.76595,16.0114 -3.5554,1.89439 -3.57876,1.94348 -3.38573,7.18682 0.12912,3.50694 0.20008,3.76829 1.40418,5.19337 3.4842,4.1237 4.00421,6.15696 2.47247,9.67325 -0.85172,1.95504 -0.92798,4.25789 -0.89836,27.21699 0.001,0.76592 0.46137,2.29811 1.02257,3.40561 1.23188,2.431 1.24775,2.72472 0.20571,3.83392 -1.22665,1.30551 -1.47621,4.65048 -1.23524,16.59075 0.21346,10.57716 0.21823,10.61623 1.18158,11.76111 1.23013,1.46194 3.32956,2.53185 6.35507,3.23767 l 2.38601,0.55648 20.74268,-3.89351 c 11.40822,-2.14191 20.89874,-3.99132 21.0895,-4.10918 0.19078,-0.11799 0.613,0.006 0.93911,0.2771 0.45137,0.37456 0.5679,1.17494 0.48694,3.34993 -0.14147,3.79815 0.13826,4.01138 5.27982,4.02869 l 3.85479,0.009 8.17066,-6.86487 c 4.49422,-3.77581 8.41066,-6.8091 8.70234,-6.74065 0.29165,0.0683 3.37357,3.33416 6.84896,7.25642 4.18939,4.72809 6.58046,7.13119 7.09443,7.13119 1.11896,0 7.50127,-1.61324 8.04048,-2.03221 0.37674,-0.29293 4.41354,-6.98878 10.90648,-18.09233 l 1.14183,-1.95374 0.10332,1.75894 c 0.17164,2.92884 0.40362,3.38419 2.33632,4.60111 l 1.85932,1.17062 11.72237,0.2654 c 8.2136,0.18569 11.85737,0.40383 12.17251,0.72844 0.24737,0.25496 1.08992,2.53046 1.87124,5.05722 1.93425,6.25522 3.2606,7.77137 7.64398,8.73809 v 10e-4 c 1.18205,0.26065 2.70739,0.48952 3.3897,0.50682 2.26632,0.0598 15.9158,-1.53033 18.25333,-2.12664 3.25787,-0.83108 6.68354,-2.76995 8.45984,-4.78793 1.39592,-1.58584 3.11145,-5.18916 3.11145,-6.53493 0,-1.24617 1.51568,-1.36642 17.17609,-1.36642 h 15.66363 l 1.45783,-0.92617 c 2.96,-1.88091 3.58288,-3.51554 3.59442,-9.42876 0.009,-4.36376 -0.50514,-7.67781 -1.81758,-11.74223 l -1.01563,-3.14426 2.69308,-4.8664 2.6921,-4.86543 -0.12431,-14.45818 -0.12527,-14.45818 -1.37637,-1.20242 c -1.36865,-1.19534 -1.38216,-1.23694 -2.1167,-6.83804 -0.7558,-5.76346 -1.1651,-7.30989 -2.34923,-8.86631 -0.46671,-0.61345 -0.76061,-2.02778 -0.95301,-4.59415 -0.2654,-3.54128 -0.34096,-3.77979 -1.70031,-5.3116 l -1.42408,-1.60293 -4.68459,-0.56942 c -2.84542,-0.34543 -8.89296,-0.59713 -15.40322,-0.64097 l -10.71767,-0.0715 -0.32695,1.25012 c -0.17967,0.68789 -0.46847,1.33819 -0.64097,1.44492 -0.17255,0.10661 -1.61965,-0.14709 -3.21678,-0.56344 -5.3847,-1.40383 -11.97313,-2.69334 -16.81933,-3.29332 -2.64558,-0.32752 -4.56894,-0.53044 -6.02217,-0.5535 z m 0.6539,6.29544 c 0.55151,-0.0126 2.10941,0.25464 3.75342,0.65189 3.50277,0.84678 8.87933,1.7342 13.38092,2.20815 1.39697,0.1471 2.66007,0.3392 2.80737,0.42632 0.14731,0.087 -0.43574,1.74312 -1.29585,3.68088 -0.86013,1.93772 -1.59631,4.00074 -1.63573,4.58418 l -0.0715,1.06134 3.87067,0.11229 c 3.77046,0.10977 3.90085,0.0845 5.01649,-0.97685 0.62991,-0.59921 2.5433,-2.9804 4.25229,-5.29075 l 3.10747,-4.20064 1.64565,0.0339 c 0.9052,0.019 5.51444,0.32604 10.24266,0.68371 l 8.596,0.64992 0.11926,1.22331 c 0.0974,1.0001 -0.24769,1.64103 -1.89313,3.51691 -2.16291,2.46584 -3.28461,4.28998 -2.8153,4.57723 0.16041,0.0981 1.34594,0.29482 2.63545,0.43726 1.2895,0.14235 2.83242,0.35078 3.42844,0.4631 l 1.08421,0.20371 -0.10723,6.70785 -0.10629,6.70788 -9.57386,0.19486 c -9.248,0.18884 -9.57386,0.22206 -9.57386,0.97688 0,0.73071 0.3434,0.79765 5.27586,1.02854 2.9014,0.13571 8.21985,0.26793 11.81975,0.29323 l 6.54589,0.0459 v 7.02089 7.01989 l -3.97405,0.11135 c -2.57392,0.0721 -4.02599,0.27046 -4.1231,0.56345 -0.0826,0.24894 1.74973,1.7186 4.07141,3.26648 2.32172,1.54788 4.42998,2.98417 4.68559,3.19095 0.33984,0.27489 -0.61797,1.96936 -3.5636,6.30637 -2.21556,3.26202 -4.31968,6.50229 -4.67564,7.20077 -0.37128,0.72847 -0.94974,1.27002 -1.3565,1.27002 -0.39001,0 -2.17115,-0.87913 -3.95913,-1.95372 -4.52011,-2.71663 -4.6878,-2.6786 -4.69549,1.07424 -0.003,1.66563 -0.1353,3.22761 -0.29317,3.47119 -0.19752,0.30461 -3.4847,0.49173 -10.5368,0.59827 -6.50977,0.0983 -10.40125,0.30652 -10.665,0.5704 -0.58706,0.58707 7.94844,0.9256 23.36719,0.92718 l 12.61278,0.002 -0.10819,5.95856 -0.10818,5.95957 -17.77932,0.0984 c -16.16148,0.0899 -17.82421,0.15975 -18.26822,0.75922 -0.29215,0.39461 -0.48794,1.878 -0.48794,3.6928 v 3.03396 l -2.0521,2.08687 c -1.63389,1.66195 -2.64756,2.30305 -4.9817,3.14622 -2.44555,0.88344 -3.48012,1.04359 -6.25173,0.9709 -1.82681,-0.0481 -5.62388,-0.14107 -8.43798,-0.20782 l -5.11686,-0.12115 -0.67575,-2.42877 c -0.37147,-1.3361 -1.30172,-3.88693 -2.06701,-5.66839 -0.7653,-1.7814 -1.26525,-3.36483 -1.11103,-3.51889 0.15416,-0.15405 2.59533,-0.28026 5.42492,-0.28026 4.31261,0 5.14469,-0.0949 5.14469,-0.58631 0,-0.5116 -2.42306,-0.59922 -19.05927,-0.68767 l -19.05926,-0.10125 0.10734,-6.15035 0.10733,-6.15137 h 18.95193 c 16.58563,0 18.95194,-0.0724 18.95194,-0.5853 0,-0.50808 -1.56257,-0.58634 -11.72235,-0.58634 H 282.0437 l -0.19476,-3.29031 c -0.10745,-1.8098 -0.38205,-3.35227 -0.61016,-3.42746 -0.2281,-0.0752 -2.10335,0.92215 -4.16682,2.21605 -2.0635,1.29394 -3.84115,2.35224 -3.95019,2.35224 -0.10913,0 -1.73061,-2.04018 -3.60336,-4.53353 -1.87274,-2.49333 -4.33352,-5.62822 -5.46864,-6.96622 -1.13512,-1.33804 -1.94674,-2.61043 -1.80367,-2.82823 0.14311,-0.21794 2.72214,-2.03157 5.73099,-4.03069 3.00886,-1.9991 5.54301,-3.69834 5.63262,-3.77527 0.54672,-0.46934 -0.96628,-0.74929 -4.97972,-0.92121 l -4.56134,-0.19486 -0.10733,-6.8092 c -0.0817,-5.18609 0.0123,-6.88552 0.39154,-7.12625 0.27388,-0.17367 6.1561,-0.31813 13.07187,-0.32195 10.90468,-0.006 12.65562,-0.0867 13.18815,-0.61912 0.33772,-0.33774 0.61414,-0.86563 0.61414,-1.17263 0,-0.47152 -1.8415,-0.5585 -11.8585,-0.5585 h -11.8585 l -0.22756,-6.72474 c -0.1252,-3.69856 -0.14175,-6.86382 -0.0368,-7.03382 0.10505,-0.16987 1.85676,-0.30905 3.89255,-0.30905 2.93478,0 3.74749,-0.12115 3.92632,-0.58733 0.12593,-0.32812 -0.48329,-1.72012 -1.37932,-3.14919 -0.88305,-1.40842 -1.60592,-2.70165 -1.60592,-2.87396 0,-0.64445 15.53998,-5.10122 17.81706,-5.1089 0.6582,-0.002 1.37805,1.07225 3.66398,5.47261 3.05023,5.87167 3.20935,6.02265 6.10465,5.78566 1.5043,-0.12305 1.53768,-0.16006 2.36415,-2.66426 0.46106,-1.39697 1.15655,-4.18647 1.5453,-6.19806 0.40133,-2.07682 0.92706,-3.74183 1.21635,-3.8528 0.035,-0.0126 0.0931,-0.019 0.17192,-0.0222 z m -114.61889,1.0852 2.23794,2.54896 c 2.05528,2.34101 7.10676,6.43757 7.93713,6.43757 0.4597,0 0.81912,-1.39658 0.8268,-3.19989 0.003,-0.79326 0.17873,-1.54909 0.38956,-1.67946 0.36487,-0.22554 13.34202,1.88801 14.63207,2.38302 0.5256,0.20182 0.61514,-0.18694 0.61514,-2.67521 v -2.91169 l 9.78155,-0.27141 c 5.38002,-0.1493 9.92352,-0.18411 10.09755,-0.0766 0.17395,0.10755 0.43266,2.87311 0.57439,6.14636 0.17696,4.08834 0.41017,6.04888 0.74532,6.26167 0.26838,0.17049 3.23547,0.31221 6.59358,0.316 3.3581,0.003 6.65855,0.11642 7.33392,0.25148 l 1.22729,0.24547 -0.10436,9.4258 -0.10435,9.42579 -7.40647,0.10629 c -5.32655,0.0766 -7.49248,0.24136 -7.71155,0.58631 -0.50505,0.795 -0.35947,4.06078 0.20172,4.52655 0.32867,0.27267 3.36679,0.46836 8.30383,0.53567 l 7.78509,0.10628 0.10534,8.76492 c 0.061,5.07996 -0.0483,8.91856 -0.26036,9.13065 -0.20129,0.20119 -3.67788,0.47798 -7.72547,0.61413 l -7.35976,0.24737 -0.12521,1.09711 c -0.0964,0.84061 0.58992,2.15697 2.93059,5.61968 2.41736,3.57614 4.14186,5.54721 8.24819,9.42579 3.10139,2.92935 5.11205,5.11454 4.99262,5.42589 -0.53662,1.39843 -11.43451,16.09831 -11.94892,16.11777 -1.05233,0.0396 -10.2899,-9.69832 -12.83338,-13.52802 -1.30978,-1.97218 -2.56675,-3.70069 -2.79345,-3.84088 -0.22671,-0.14013 -3.00089,2.37499 -6.16427,5.5889 -3.16337,3.21392 -7.41516,7.27233 -9.44864,9.01833 -2.99749,2.57377 -3.93994,3.17406 -4.97772,3.17406 -1.19094,0 -1.37363,-0.18631 -2.63246,-2.68612 -1.64857,-3.27361 -3.66928,-5.51934 -4.9658,-5.51934 -0.51755,0 -10.16766,1.7558 -21.44528,3.90249 -11.27758,2.14669 -20.8731,3.90553 -21.32302,3.90746 -0.78505,0.003 -0.82831,-0.24325 -1.07326,-6.14936 -0.14041,-3.38499 -0.25563,-7.67458 -0.25638,-9.53211 -0.001,-3.66481 0.1128,-3.85182 2.35222,-3.85182 0.61449,0 1.22475,-0.17461 1.35648,-0.38757 0.13165,-0.21288 -0.73729,-3.44565 -1.93087,-7.18385 -1.19357,-3.73823 -2.17037,-6.98666 -2.17036,-7.21865 0,-0.23187 1.67094,-1.60947 3.71267,-3.06078 2.04173,-1.45127 3.71168,-2.76878 3.71168,-2.92859 0,-0.16006 -1.53799,-0.34236 -3.41852,-0.40445 l -3.41952,-0.11231 -0.10534,-8.49961 c -0.0824,-6.65194 0.002,-8.50493 0.39056,-8.52742 0.51466,-0.0285 10.01122,0.11008 12.41399,0.18284 1.26825,0.0382 1.36841,-0.0436 1.36841,-1.1309 v -1.17263 l -4.29898,-0.29703 c -2.36411,-0.16354 -4.50686,-0.37399 -4.7621,-0.46706 -0.54629,-0.19929 -9.10975,-14.50965 -9.10975,-15.22334 0,-0.26793 0.83546,-1.08238 1.85633,-1.81063 3.0092,-2.14672 9.35699,-8.4768 12.7181,-12.68133 2.64331,-3.30664 3.3408,-3.94881 4.53252,-4.17777 0.77459,-0.14899 5.56991,-0.28152 10.65605,-0.29323 z m 26.41702,8.22033 c -0.0578,0.006 -0.1193,0.13602 -0.1908,0.37564 -0.16038,0.5373 -0.30959,2.09117 -0.33092,3.45233 -0.0285,1.8191 0.0911,2.43106 0.45017,2.31146 0.69476,-0.23123 0.80439,-1.21011 0.46706,-4.15888 -0.15933,-1.39281 -0.26833,-1.99168 -0.39551,-1.98055 z m -35.72852,8.42806 -1.36741,1.32567 c -0.75221,0.72907 -1.3684,1.55525 -1.3684,1.83545 0,0.37026 0.74782,0.50979 2.73581,0.50979 3.20403,0 3.4142,-0.36143 1.36741,-2.34524 z m 17.87669,1.74404 c -2.29207,0.0715 -2.34305,0.19485 -2.27074,5.43782 0.0367,2.6605 0.16958,5.00414 0.29513,5.20728 0.37875,0.61285 0.82069,-0.57046 1.86231,-4.9787 1.23896,-5.24325 1.24815,-5.7018 0.11328,-5.6664 z m 117.73232,7.91926 c -1.22302,0.0686 -2.62318,1.07929 -2.20315,1.75893 0.17929,0.29007 1.54196,0.45415 3.77428,0.45415 3.46629,0 3.49406,-0.006 3.49406,-0.97685 -2e-5,-0.89325 -0.14722,-0.97689 -1.71026,-0.97689 -0.94027,0 -2.22119,-0.1025 -2.84712,-0.22743 -0.16164,-0.0322 -0.33308,-0.0418 -0.50781,-0.0319 z m -103.17677,6.53892 c -0.92923,0.0556 -0.94426,0.60728 -1.37239,3.25355 -0.17157,1.06049 -0.0897,1.62209 0.27031,1.85035 0.66541,0.42138 3.48995,0.42439 4.15292,0.003 0.34941,-0.22174 0.47207,-1.04928 0.39054,-2.63146 l -0.11926,-2.30849 -2.03918,-0.11735 c -0.56181,-0.0325 -0.9732,-0.0692 -1.28294,-0.0506 z m -15.83849,0.84567 -4.33676,0.29007 c -2.38558,0.15943 -4.51637,0.40006 -4.73425,0.53466 -0.59579,0.36823 -0.83171,2.1564 -0.33689,2.55294 0.23861,0.19106 2.54379,0.47491 5.12282,0.63104 2.77938,0.16829 4.80654,0.46545 4.97672,0.72943 0.15789,0.24483 0.28932,3.74243 0.29315,7.77215 l 0.006,7.32699 h -2.14949 c -1.46234,0 -2.14639,0.15564 -2.14255,0.48794 0.003,0.26856 1.58622,1.43499 3.51691,2.5917 1.93067,1.15668 3.50995,2.33386 3.50995,2.61558 0,0.28154 -1.32208,2.40144 -2.93854,4.7104 -1.61647,2.30893 -2.87694,4.38534 -2.8004,4.61401 0.0834,0.24895 1.00858,0.36349 2.30451,0.28533 l 2.1644,-0.13127 0.28422,3.06175 c 0.15659,1.68372 0.36647,3.19507 0.46608,3.35893 0.28039,0.46113 0.84152,-0.0222 4.65973,-4.00984 8.00398,-8.36045 10.86518,-12.77135 9.04815,-13.94737 -0.26865,-0.17366 -3.30196,-0.31601 -6.74065,-0.31601 h -6.25173 l -0.0546,-9.86501 -0.0546,-9.86602 -1.90603,-1.71424 z m 127.30419,9.12268 c -2.40733,10e-4 -5.66115,0.0285 -9.17934,0.0794 -13.33883,0.19549 -14.40958,0.33847 -13.83209,1.84343 0.2537,0.66109 0.99382,0.68425 13.44651,0.41439 12.90049,-0.27964 14.15608,-0.42097 14.15608,-1.593 0,-0.27298 -0.2203,-0.57606 -0.48893,-0.67374 -0.13432,-0.049 -1.69491,-0.0724 -4.10223,-0.0706 z m 9.97235,6.80723 c -0.60754,0 -0.26832,1.0294 1.07226,3.25258 0.75464,1.25149 1.26233,2.4528 1.12791,2.67021 -0.15142,0.24484 -2.22282,0.34781 -5.44877,0.27046 -5.05137,-0.12147 -6.43527,0.10408 -5.24703,0.85564 0.91753,0.58026 15.22833,0.48226 15.22833,-0.1044 0,-0.5169 -6.23159,-6.94436 -6.7327,-6.94436 z m -145.05369,3.77926 c -0.79155,-0.006 -1.48661,0.0572 -1.6854,0.21859 -0.50688,0.41106 -0.70965,5.41982 -0.23852,5.89095 0.13745,0.13729 0.40485,0.15374 0.59427,0.0367 0.48317,-0.29862 4.23539,-5.29131 4.23539,-5.6356 0,-0.28975 -1.58647,-0.49935 -2.90575,-0.51076 z m 101.78353,0.25432 c -1.06565,0.11705 -4.80024,2.90639 -4.59711,3.51792 0.10638,0.3203 2.44181,0.52143 7.74037,0.66681 4.17332,0.11451 8.08325,0.24642 8.68841,0.29324 0.60516,0.0468 1.43964,-0.0965 1.85534,-0.31901 0.91181,-0.48801 0.99622,-1.76458 0.13814,-2.09384 -0.33995,-0.13033 -3.41692,-0.23756 -6.83803,-0.23756 -5.99174,0 -6.22092,-0.0285 -6.22092,-0.79398 0,-0.4366 -0.26543,-0.896 -0.5903,-1.0206 -0.0454,-0.019 -0.10486,-0.0222 -0.17591,-0.0126 z m -124.32391,0.30115 c -1.76801,0.009 -1.67044,0.74824 -0.14807,3.87071 0.83827,1.7193 1.73818,3.12635 2.00043,3.12635 0.50314,0 1.11531,-4.14072 0.86953,-5.88207 -0.1165,-0.82542 -0.36902,-0.97324 -1.84838,-1.07921 -0.32999,-0.0222 -0.62094,-0.037 -0.87351,-0.0358 z m 92.69165,5.04334 c 0.18005,0 1.06194,1.08244 1.96069,2.40588 l 1.63472,2.40688 -1.23226,1.01262 -1.23225,1.01265 0.004,4.59213 h -0.001 c 0.002,3.31056 -0.12726,4.59118 -0.46508,4.59118 -0.93619,0 -10.61775,-11.09044 -10.35991,-11.86746 0.0806,-0.24294 1.27489,-0.56721 2.65432,-0.72047 1.37943,-0.15342 3.35147,-0.48078 4.38246,-0.72742 1.60813,-0.38466 1.90712,-0.60869 2.10081,-1.57709 0.12419,-0.62089 0.37353,-1.1289 0.55352,-1.1289 z m -72.00164,5.70713 c -0.38418,0.23756 -0.439,4.59738 -0.0626,4.97375 0.39703,0.39714 2.68224,0.31031 3.88558,-0.1471 l 1.07127,-0.40746 -2.28563,-2.30948 c -1.25698,-1.27023 -2.43074,-2.21975 -2.60862,-2.10974 z m -19.52036,4.455 c -0.63576,0.003 -6.32257,4.4599 -6.54587,5.12978 -0.18856,0.5657 5.75596,0.16196 6.34911,-0.43127 0.20637,-0.20625 0.45586,-1.34844 0.55451,-2.53809 0.13779,-1.66167 0.0547,-2.16232 -0.35775,-2.16042 z" />
    <path
       inkscape:connector-curvature="0"
       id="path77"
       d="m 72.877999,387.33939 c 0.02404,-0.18441 6.763999,-13.209 14.97779,-28.94393 8.213786,-15.73487 14.952491,-28.74608 14.974901,-28.9137 0.0342,-0.25559 -3.345141,-0.30463 -20.954182,-0.30463 H 60.881571 l -8.441531,-6.66476 c -4.642843,-3.66557 -8.441529,-6.75079 -8.441529,-6.85598 0,-0.10534 20.331244,-0.19075 45.180557,-0.19075 36.060992,0 45.180332,0.0569 45.179462,0.28091 -6.3e-4,0.15468 -1.27754,3.28828 -2.83766,6.96391 l -2.83659,6.68292 -2.66944,0.061 -2.66944,0.061 -6.77651,14.16146 c -3.72709,7.78884 -6.7783,14.30008 -6.78049,14.46942 -0.003,0.2578 0.67735,0.28089 4.18641,0.14329 2.30471,-0.0902 4.22807,-0.20435 4.27414,-0.25274 0.0461,-0.0509 4.60129,-9.64688 10.12274,-21.32928 l 10.03897,-21.24087 h 29.35511 c 19.14003,0 29.3551,0.0769 29.3551,0.22049 0,0.21162 -4.96888,11.843 -5.39981,12.64027 -0.19374,0.35827 -1.71007,0.40961 -21.6329,0.73037 -11.7835,0.18948 -21.7478,0.3453 -22.14289,0.3453 l -0.71836,1.3e-4 -1.7704,3.87754 c -0.97371,2.13267 -1.77051,3.98724 -1.77065,4.12136 0,0.23061 21.71529,0.54276 37.76559,0.54276 4.40407,0 5.5873,0.0598 5.5873,0.28279 0,0.15563 -1.38813,3.39245 -3.08477,7.19309 l -3.08474,6.91048 h -22.18159 -22.18158 l -1.8924,4.21354 c -1.04082,2.31745 -1.8924,4.35324 -1.8924,4.52409 0,0.2635 3.26491,0.285 21.61356,0.14266 18.30011,-0.14203 21.61355,-0.12084 21.61355,0.14108 0,0.17051 -1.41833,3.46985 -3.15185,7.3329 l -3.15189,7.02384 -7.78093,-7e-5 c -22.15309,-2.2e-4 -51.07107,-0.31032 -51.07107,-0.54784 0,-0.13697 0.85075,-2.1684 1.89058,-4.51467 1.26387,-2.85187 1.82868,-4.28983 1.70387,-4.33779 -0.10271,-0.0396 -7.40444,4.67886 -16.226111,10.48524 l -16.039402,10.55711 -4.643602,0.16258 c -4.080966,0.14266 -4.638312,0.12179 -4.599976,-0.17271 z M 396.31272,359.97232 c -4.42579,-13.72323 -8.11663,-25.05461 -8.20189,-25.18088 -0.11577,-0.17145 -1.58423,2.97189 -5.77868,12.36703 -5.82308,13.04309 -5.97267,13.38975 -5.86246,13.58631 0.0364,0.0649 3.68659,0.27015 8.11128,0.45589 4.42467,0.18569 8.07423,0.38988 8.11007,0.45362 0.0358,0.0638 0.0379,0.16481 0.006,0.22395 -0.0333,0.0592 -5.29038,3.24575 -11.68244,7.08078 l -11.6219,6.97275 h -2.1178 c -1.16478,0 -4.68152,-0.067 -7.81499,-0.14961 -4.69014,-0.12305 -5.69063,-0.20308 -5.66033,-0.45305 0.019,-0.16766 6.32652,-13.70605 14.01412,-30.0862 l 13.97738,-29.7822 7.88183,0.0582 7.88187,0.0582 4.37869,13.01681 c 2.4083,7.15923 4.45876,13.15962 4.55663,13.33414 0.15343,0.27361 1.07542,-1.54217 6.64056,-13.07298 l 6.4627,-13.39035 h 20.47275 c 16.3211,0 20.46255,0.0569 20.42241,0.28089 -0.0285,0.15468 -2.40013,3.23357 -5.2721,6.84232 l -5.22174,6.56123 -9.52654,0.0126 -9.52654,0.0126 -12.59112,27.24583 c -7.64516,16.54315 -12.7892,27.48943 -13.09525,27.86599 -0.27742,0.34135 -0.59192,0.62348 -0.69918,0.62759 -0.12811,0.003 -2.95219,-8.54156 -8.242,-24.94391 z m -217.27666,15.73373 c -2.21808,-0.0892 -4.53324,-0.17588 -5.14483,-0.19296 -0.9168,-0.0285 -1.10484,-0.0898 -1.07123,-0.36785 0.0225,-0.1857 6.38639,-13.68939 14.14217,-30.00883 l 14.1014,-29.67174 h 7.4732 c 4.11028,0 7.50315,0.0863 7.53973,0.19232 0.0365,0.10565 -2.51211,5.74207 -5.66378,12.52555 -3.15164,6.78351 -5.73026,12.42413 -5.73026,12.53472 0,0.11071 0.0994,0.14962 0.22058,0.087 0.12121,-0.0626 7.39364,-5.78987 16.16073,-12.72664 l 15.94018,-12.61228 h 10.4939 c 5.77164,0 10.49389,0.0794 10.49389,0.17777 0,0.23915 1.31509,-0.87337 -22.2437,18.81786 -11.50622,9.61734 -20.99387,17.58843 -21.08367,17.71357 -0.0897,0.12527 -0.13935,0.33739 -0.11006,0.47225 0.0294,0.13475 2.01571,5.29933 4.41447,11.47694 2.39874,6.17762 4.3165,11.31203 4.26171,11.40974 -0.0549,0.098 -3.40906,0.15184 -7.45392,0.11958 l -7.3543,-0.0583 -4.23945,-12.31079 c -2.33171,-6.77096 -4.32635,-12.46583 -4.43255,-12.65524 -0.17338,-0.30906 -0.76352,0.9213 -5.79571,12.08601 -4.94838,10.97889 -5.66088,12.46774 -6.1016,12.75013 -0.61746,0.39551 -3.21056,0.46661 -8.81676,0.24041 z m 52.99419,-0.0563 c 0,-0.22554 23.13048,-51.39573 26.41841,-58.44404 l 0.81269,-1.74211 h 7.43089 c 4.81513,0 7.43091,0.0785 7.43091,0.22238 0,0.12242 -2.38191,5.7916 -5.29313,12.59849 -2.91122,6.80682 -5.29312,12.47253 -5.29312,12.59039 0,0.11799 0.0425,0.2151 0.0944,0.2151 0.0519,2.2e-4 7.44474,-5.76556 16.42836,-12.81277 l 16.33386,-12.81308 h 10.75737 c 9.13724,0 10.72959,0.0452 10.57285,0.30905 -0.10136,0.16987 -10.02407,8.32772 -22.05017,18.12792 -12.02609,9.80023 -21.94565,17.95033 -22.0435,18.11119 -0.15104,0.24894 -0.0822,0.53937 0.45873,1.93418 0.3501,0.9029 2.37097,6.09009 4.49079,11.52719 2.11979,5.43706 3.81324,9.95519 3.76317,10.04034 -0.05,0.0851 -3.34739,0.18917 -7.32739,0.23029 l -7.23633,0.0749 -4.35809,-12.40594 c -2.39696,-6.82333 -4.42566,-12.45716 -4.50821,-12.51966 -0.0862,-0.0649 -2.58636,5.22398 -5.86446,12.40598 l -5.71436,12.51962 -7.6519,0.0583 c -6.10763,0.0452 -7.65189,4.7e-4 -7.65189,-0.22681 z m 58.6246,-0.28564 c 0.0225,-0.18853 6.32606,-13.74327 14.00809,-30.12182 l 13.96727,-29.77913 h 29.35435 c 24.11088,0 29.35442,0.0509 29.35442,0.2945 0,0.16196 -1.15245,3.12063 -2.56096,6.57496 l -2.56091,6.28064 -6.35542,0.062 c -3.49552,0.0339 -13.55327,0.13538 -22.35053,0.22523 l -15.99506,0.16259 -1.86922,4.26633 c -1.0281,2.34646 -1.86925,4.39484 -1.86925,4.55192 0,0.23029 4.20759,0.28533 21.55055,0.28533 17.86434,0 21.55059,0.0509 21.55059,0.29956 0,0.16481 -1.3208,3.32564 -2.93511,7.02455 l -2.93516,6.72509 -22.07933,0.0563 -22.07933,0.0563 -1.82781,4.10172 c -1.0053,2.25595 -1.82846,4.22817 -1.82923,4.38268 -10e-4,0.22397 4.37936,0.28091 21.48614,0.28091 17.47144,0 21.48752,0.0563 21.48752,0.29007 0,0.15974 -1.37805,3.42184 -3.06229,7.24933 l -3.06237,6.9591 -29.7139,0.0563 c -26.56686,0.0509 -29.70954,0.0222 -29.67305,-0.28596 z"
       style="fill:#ffff00;fill-opacity:1;stroke:#f9f9f9;stroke-width:0;stroke-miterlimit:4;stroke-dasharray:none;stroke-opacity:0.96825406" />
    <path
       inkscape:connector-curvature="0"
       id="path77-3"
       d="m 72.878022,387.33939 c 0.02404,-0.18441 6.763999,-13.209 14.977788,-28.94393 8.213787,-15.73487 14.95249,-28.74608 14.9749,-28.9137 0.0342,-0.25559 -3.345141,-0.30463 -20.954179,-0.30463 H 60.881595 l -8.441531,-6.66476 c -4.642844,-3.66557 -8.441529,-6.75079 -8.441529,-6.85598 0,-0.10534 20.331244,-0.19075 45.180554,-0.19075 36.060991,0 45.180331,0.0569 45.179471,0.28091 -6.4e-4,0.15468 -1.27755,3.28828 -2.83768,6.96391 l -2.83658,6.68292 -2.66944,0.061 -2.66944,0.061 -6.77651,14.16146 c -3.72708,7.78884 -6.7783,14.30008 -6.78049,14.46942 -0.003,0.2578 0.67735,0.28089 4.18641,0.14329 2.30471,-0.0902 4.22807,-0.20435 4.27414,-0.25274 0.0461,-0.0509 4.60129,-9.64688 10.12274,-21.32928 l 10.03897,-21.24087 h 29.35511 c 19.14003,0 29.35511,0.0769 29.35511,0.22049 0,0.21162 -4.96889,11.843 -5.39981,12.64027 -0.19375,0.35827 -1.71008,0.40961 -21.6329,0.73037 -11.78349,0.18948 -21.7478,0.3453 -22.1429,0.3453 l -0.71836,1.3e-4 -1.7704,3.87754 c -0.9737,2.13267 -1.7705,3.98724 -1.77064,4.12136 0,0.23061 21.71528,0.54276 37.76558,0.54276 4.40407,0 5.5873,0.0598 5.5873,0.28279 0,0.15563 -1.38813,3.39245 -3.08476,7.19309 l -3.08474,6.91048 h -22.1816 -22.18158 l -1.89241,4.21354 c -1.04081,2.31745 -1.89239,4.35324 -1.89239,4.52409 0,0.2635 3.26491,0.285 21.61356,0.14266 18.30011,-0.14203 21.61355,-0.12084 21.61355,0.14108 0,0.17051 -1.41833,3.46985 -3.15185,7.3329 l -3.15189,7.02384 -7.78093,-7e-5 c -22.15308,-2.2e-4 -51.07107,-0.31032 -51.07107,-0.54784 0,-0.13697 0.85075,-2.1684 1.89058,-4.51467 1.26387,-2.85187 1.82868,-4.28983 1.70387,-4.33779 -0.10271,-0.0396 -7.40444,4.67886 -16.22611,10.48524 l -16.039402,10.55711 -4.6436,0.16258 c -4.080966,0.14266 -4.638312,0.12179 -4.599976,-0.17271 z M 396.31276,359.97232 c -4.4258,-13.72323 -8.11664,-25.05461 -8.20189,-25.18088 -0.11578,-0.17145 -1.58423,2.97189 -5.77869,12.36703 -5.82308,13.04309 -5.97267,13.38975 -5.86246,13.58631 0.0364,0.0649 3.6866,0.27015 8.11128,0.45589 4.42467,0.18569 8.07423,0.38988 8.11007,0.45362 0.0358,0.0638 0.0379,0.16481 0.006,0.22395 -0.0332,0.0592 -5.29041,3.24575 -11.68244,7.08078 l -11.62193,6.97275 h -2.1178 c -1.16478,0 -4.68152,-0.067 -7.81496,-0.14961 -4.69016,-0.12305 -5.69066,-0.20308 -5.66035,-0.45305 0.019,-0.16766 6.32651,-13.70605 14.01414,-30.0862 l 13.97701,-29.7822 7.88183,0.0582 7.88186,0.0582 4.37869,13.01681 c 2.4083,7.15923 4.45876,13.15962 4.55664,13.33414 0.15342,0.27361 1.07541,-1.54217 6.64056,-13.07298 l 6.46269,-13.39035 h 20.47276 c 16.32109,0 20.46254,0.0569 20.42239,0.28089 -0.0285,0.15468 -2.40013,3.23357 -5.27209,6.84232 l -5.22174,6.56123 -9.52654,0.0126 -9.52655,0.0126 -12.59111,27.24583 c -7.64515,16.54315 -12.78921,27.48943 -13.09525,27.86599 -0.27742,0.34135 -0.59191,0.62348 -0.69918,0.62759 -0.12811,0.003 -2.95218,-8.54156 -8.24199,-24.94391 z m -217.27667,15.73373 c -2.21809,-0.0892 -4.53325,-0.17588 -5.14484,-0.19296 -0.9168,-0.0285 -1.10484,-0.0898 -1.07122,-0.36785 0.0225,-0.1857 6.38639,-13.68939 14.14216,-30.00883 l 14.10141,-29.67174 h 7.4732 c 4.11027,0 7.50314,0.0863 7.53973,0.19232 0.0365,0.10565 -2.51212,5.74207 -5.66378,12.52555 -3.15165,6.78351 -5.73026,12.42413 -5.73026,12.53472 0,0.11071 0.0994,0.14962 0.22058,0.087 0.12121,-0.0626 7.39362,-5.78987 16.16073,-12.72664 l 15.94018,-12.61228 h 10.49389 c 5.77165,0 10.49389,0.0794 10.49389,0.17777 0,0.23915 1.31509,-0.87337 -22.2437,18.81786 -11.50622,9.61734 -20.99387,17.58843 -21.08367,17.71357 -0.0897,0.12527 -0.13935,0.33739 -0.11006,0.47225 0.0294,0.13475 2.01571,5.29933 4.41447,11.47694 2.39874,6.17762 4.3165,11.31203 4.26171,11.40974 -0.0549,0.098 -3.40906,0.15184 -7.45392,0.11958 l -7.3543,-0.0583 -4.23946,-12.31079 c -2.3317,-6.77096 -4.32634,-12.46583 -4.43254,-12.65524 -0.17338,-0.30906 -0.76352,0.9213 -5.79572,12.08601 -4.94836,10.97889 -5.66087,12.46774 -6.10159,12.75013 -0.61746,0.39551 -3.21055,0.46661 -8.81676,0.24041 z m 52.99418,-0.0563 c 0,-0.22554 23.13049,-51.39573 26.41842,-58.44404 l 0.81268,-1.74211 h 7.43089 c 4.81514,0 7.43091,0.0785 7.43091,0.22238 0,0.12242 -2.38191,5.7916 -5.29313,12.59849 -2.91121,6.80682 -5.29312,12.47253 -5.29312,12.59039 0,0.11799 0.0425,0.2151 0.0944,0.2151 0.0519,2.2e-4 7.44475,-5.76556 16.42837,-12.81277 l 16.33385,-12.81308 h 10.75739 c 9.13723,0 10.72957,0.0452 10.57284,0.30905 -0.10136,0.16987 -10.02406,8.32772 -22.05018,18.12792 -12.02609,9.80023 -21.94564,17.95033 -22.0435,18.11119 -0.15104,0.24894 -0.0822,0.53937 0.45874,1.93418 0.3501,0.9029 2.37098,6.09009 4.49079,11.52719 2.11978,5.43706 3.81323,9.95519 3.76316,10.04034 -0.0498,0.0851 -3.34738,0.18917 -7.32737,0.23029 l -7.23634,0.0749 -4.35809,-12.40594 c -2.39697,-6.82333 -4.42567,-12.45716 -4.50822,-12.51966 -0.0862,-0.0649 -2.58636,5.22398 -5.86446,12.40598 l -5.71436,12.51962 -7.6519,0.0583 c -6.10764,0.0452 -7.65188,4.7e-4 -7.65188,-0.22681 z m 58.62462,-0.28564 c 0.0225,-0.18853 6.32605,-13.74327 14.00807,-30.12182 l 13.96727,-29.77913 h 29.35435 c 24.11089,0 29.35443,0.0509 29.35443,0.2945 0,0.16196 -1.15244,3.12063 -2.56096,6.57496 l -2.56091,6.28064 -6.35542,0.062 c -3.49552,0.0339 -13.55328,0.13538 -22.35054,0.22523 l -15.99505,0.16259 -1.86922,4.26633 c -1.0281,2.34646 -1.86925,4.39484 -1.86925,4.55192 0,0.23029 4.20758,0.28533 21.55055,0.28533 17.86434,0 21.55059,0.0509 21.55059,0.29956 0,0.16481 -1.32079,3.32564 -2.93511,7.02455 l -2.93516,6.72509 -22.07933,0.0563 -22.07934,0.0563 -1.82781,4.10172 c -1.00529,2.25595 -1.82846,4.22817 -1.82922,4.38268 -8.4e-4,0.22397 4.37935,0.28091 21.48613,0.28091 17.47144,0 21.48752,0.0563 21.48752,0.29007 0,0.15974 -1.37805,3.42184 -3.06228,7.24933 l -3.06238,6.9591 -29.71388,0.0563 c -26.56688,0.0509 -29.70955,0.0222 -29.67305,-0.28596 z"
       style="fill:url(#linearGradient1096);fill-opacity:1;stroke:#f9f9f9;stroke-width:0;stroke-miterlimit:4;stroke-dasharray:none;stroke-opacity:0.96825406" />
    <path
       d="m 16.28743,423.78593 c 1.557507,0 3.072273,-0.3435 4.544299,-1.03048 1.47201,-0.687 2.682883,-1.60952 3.632573,-2.76759 v 0 l -2.706626,-2.76758 c -0.702773,0.844 -1.510022,1.49175 -2.421716,1.9432 -0.91171,0.45144 -1.889888,0.67716 -2.934547,0.67716 -0.930707,0 -1.790187,-0.17173 -2.578423,-0.51523 -0.788251,-0.34349 -1.472026,-0.80967 -2.051339,-1.39851 -0.579329,-0.58885 -1.035169,-1.29058 -1.367565,-2.10514 -0.332397,-0.81459 -0.498595,-1.69294 -0.498595,-2.6351 0,-0.9618 0.161377,-1.84997 0.484358,-2.66454 0.322891,-0.81458 0.769239,-1.52119 1.339062,-2.11986 0.569807,-0.59866 1.248852,-1.06974 2.037088,-1.41324 0.788251,-0.34348 1.628733,-0.51524 2.521431,-0.51524 1.063672,0 2.070338,0.24045 3.020042,0.72134 0.949704,0.4809 1.77592,1.1728 2.478691,2.0757 v 0 l 2.792107,-2.85593 c -0.930693,-1.17768 -2.146311,-2.11493 -3.646825,-2.81174 -1.500515,-0.6968 -3.048515,-1.0452 -4.644015,-1.0452 -1.481517,0 -2.872809,0.27479 -4.173892,0.82438 -1.301083,0.5496 -2.426461,1.29548 -3.376165,2.23763 -0.949689,0.94215 -1.699946,2.06587 -2.250772,3.37115 -0.550825,1.30528 -0.82623,2.7038 -0.82623,4.19555 0,1.49174 0.270659,2.88536 0.811979,4.18083 0.541334,1.29546 1.286831,2.41428 2.23652,3.35644 0.949704,0.94214 2.075082,1.68802 3.37618,2.23761 1.301083,0.5496 2.701881,0.82439 4.20238,0.82439 z m 53.990107,0.0295 c 1.481533,0 2.868095,-0.27479 4.159672,-0.82439 1.291591,-0.54959 2.407479,-1.30037 3.347676,-2.25234 0.940199,-0.95198 1.685696,-2.0806 2.236521,-3.38588 0.550825,-1.30529 0.82623,-2.69399 0.82623,-4.1661 0,-1.47213 -0.275405,-2.86084 -0.82623,-4.16611 -0.550825,-1.30529 -1.296322,-2.43391 -2.236521,-3.38587 -0.940197,-0.95197 -2.056085,-1.70277 -3.347676,-2.25235 -1.291577,-0.5496 -2.678139,-0.82439 -4.159672,-0.82439 -1.462534,0 -2.83956,0.27479 -4.131168,0.82439 -1.291591,0.54958 -2.407462,1.30038 -3.347661,2.25235 -0.940198,0.95196 -1.68571,2.08058 -2.23652,3.38587 -0.55084,1.30527 -0.826245,2.69398 -0.826245,4.16611 0,1.47211 0.275405,2.86081 0.826245,4.1661 0.55081,1.30528 1.296322,2.4339 2.23652,3.38588 0.940199,0.95197 2.05607,1.70275 3.347661,2.25234 1.291608,0.5496 2.668634,0.82439 4.131168,0.82439 z m 0,-3.91584 c -0.892712,0 -1.723688,-0.17175 -2.492927,-0.51526 -0.769254,-0.34348 -1.434047,-0.81456 -1.994379,-1.41321 -0.560301,-0.59868 -1.001905,-1.3102 -1.32481,-2.13459 -0.322906,-0.82439 -0.484359,-1.70766 -0.484359,-2.64981 0,-0.96179 0.161392,-1.84997 0.484359,-2.66454 0.322905,-0.81459 0.764509,-1.52119 1.32481,-2.11986 0.560332,-0.59867 1.225125,-1.06974 1.994379,-1.41323 0.769239,-0.34351 1.600215,-0.51525 2.492927,-0.51525 0.892728,0 1.728466,0.17174 2.50721,0.51525 0.778746,0.34349 1.448269,0.81456 2.008601,1.41323 0.560301,0.59867 1.001935,1.30527 1.32481,2.11986 0.322906,0.81457 0.484358,1.70275 0.484358,2.66454 0,0.94215 -0.161392,1.82542 -0.484358,2.64981 -0.322875,0.82439 -0.764509,1.53591 -1.32481,2.13459 -0.560332,0.59865 -1.229855,1.06973 -2.008601,1.41321 -0.778744,0.34351 -1.614482,0.51526 -2.50721,0.51526 z m 62.622843,3.59198 v -3.76864 H 121.9884 v -16.84112 h -4.13118 v 20.60969 z m 52.08122,0 v -3.76864 h -10.91198 v -16.84112 h -4.13117 v 20.60969 z m 52.48009,0 v -3.70976 h -11.31085 v -4.88744 h 7.37913 v -3.59198 h -7.37913 v -4.71078 h 11.1969 v -3.70975 h -15.32806 v 20.60969 z m 45.81324,0.29442 c 1.55752,0 3.07227,-0.3435 4.54429,-1.03049 1.47202,-0.68699 2.68289,-1.60953 3.63259,-2.76759 v 0 l -2.70664,-2.76759 c -0.70277,0.84402 -1.51001,1.49175 -2.42171,1.9432 -0.91171,0.45147 -1.88989,0.67718 -2.93455,0.67718 -0.93071,0 -1.79019,-0.17174 -2.57843,-0.51524 -0.78824,-0.3435 -1.47202,-0.80967 -2.05133,-1.39852 -0.57933,-0.58885 -1.03518,-1.29055 -1.36757,-2.10513 -0.3324,-0.81457 -0.4986,-1.69294 -0.4986,-2.63509 0,-0.96179 0.16138,-1.84997 0.48435,-2.66454 0.32291,-0.81459 0.76925,-1.52119 1.33908,-2.11986 0.56981,-0.59867 1.24885,-1.06974 2.03708,-1.41323 0.78826,-0.34351 1.62874,-0.51525 2.52144,-0.51525 1.06367,0 2.07035,0.24045 3.02004,0.72134 0.9497,0.48089 1.77591,1.17279 2.47868,2.07569 v 0 l 2.79212,-2.85591 c -0.93069,-1.1777 -2.14631,-2.11495 -3.64681,-2.81176 -1.50053,-0.69679 -3.04853,-1.0452 -4.64403,-1.0452 -1.48152,0 -2.87281,0.27479 -4.17389,0.82439 -1.30109,0.54958 -2.42646,1.29546 -3.37617,2.23763 -0.94968,0.94214 -1.69995,2.06586 -2.25078,3.37114 -0.55081,1.30528 -0.82622,2.7038 -0.82622,4.19556 0,1.49175 0.27066,2.88535 0.81199,4.18082 0.54133,1.29547 1.28681,2.41427 2.23653,3.35644 0.9497,0.94216 2.07508,1.68802 3.37616,2.23761 1.30108,0.54959 2.70186,0.8244 4.20238,0.8244 z m 54.64541,-0.29442 v -16.84114 h 6.69533 v -3.76863 h -17.55034 v 3.76863 h 6.72382 v 16.84106 z m 47.32325,0 v -20.60976 h -4.13116 v 20.60969 z m 47.57966,0.32386 c 1.48154,0 2.86809,-0.27479 4.15968,-0.82439 1.29157,-0.54959 2.40746,-1.30037 3.34766,-2.25234 0.9402,-0.95198 1.68571,-2.0806 2.23654,-3.38588 0.5508,-1.30529 0.82622,-2.69399 0.82622,-4.1661 0,-1.47213 -0.27542,-2.86084 -0.82622,-4.16611 -0.55083,-1.30529 -1.29634,-2.43391 -2.23654,-3.38587 -0.9402,-0.95197 -2.05609,-1.70277 -3.34766,-2.25235 -1.29159,-0.5496 -2.67814,-0.82439 -4.15968,-0.82439 -1.46252,0 -2.83959,0.27479 -4.13115,0.82439 -1.29159,0.54958 -2.40747,1.30038 -3.34767,2.25235 -0.9402,0.95196 -1.68571,2.08058 -2.23654,3.38587 -0.55083,1.30527 -0.82625,2.69398 -0.82625,4.16611 0,1.47211 0.27542,2.86081 0.82625,4.1661 0.55083,1.30528 1.29634,2.4339 2.23654,3.38588 0.9402,0.95197 2.05608,1.70275 3.34767,2.25234 1.29156,0.5496 2.66863,0.82439 4.13115,0.82439 z m 0,-3.91584 c -0.8927,0 -1.7237,-0.17175 -2.49294,-0.51526 -0.76925,-0.34348 -1.43403,-0.81456 -1.99436,-1.41321 -0.56031,-0.59868 -1.00192,-1.3102 -1.32482,-2.13459 -0.32289,-0.82439 -0.48435,-1.70766 -0.48435,-2.64981 0,-0.96179 0.16138,-1.84997 0.48435,-2.66454 0.3229,-0.81459 0.76451,-1.52119 1.32482,-2.11986 0.56033,-0.59867 1.22511,-1.06974 1.99436,-1.41323 0.76924,-0.34351 1.60024,-0.51525 2.49294,-0.51525 0.89272,0 1.72846,0.17174 2.5072,0.51525 0.77876,0.34349 1.44826,0.81456 2.0086,1.41323 0.56032,0.59867 1.00193,1.30527 1.32482,2.11986 0.3229,0.81457 0.48435,1.70275 0.48435,2.66454 0,0.94215 -0.16137,1.82542 -0.48435,2.64981 -0.32289,0.82439 -0.7645,1.53591 -1.32482,2.13459 -0.56034,0.59865 -1.22984,1.06973 -2.0086,1.41321 -0.77874,0.34351 -1.61448,0.51526 -2.5072,0.51526 z m 51.48292,3.59198 v -13.77906 l 10.17123,13.77906 h 3.64683 v -20.60976 h -3.87476 v 13.33742 l -9.9148,-13.33742 h -3.93174 v 20.60969 z"
       id="COLLECTION"
       inkscape:connector-curvature="0"
       style="fill:#ffffff;fill-rule:nonzero;stroke:none;stroke-width:1.77145267" />
  </g>
</svg>
