<?xml version="1.0" encoding="UTF-8" standalone="no"?>
<!-- Created with Inkscape (http://www.inkscape.org/) -->

<svg
   xmlns:dc="http://purl.org/dc/elements/1.1/"
   xmlns:cc="http://creativecommons.org/ns#"
   xmlns:rdf="http://www.w3.org/1999/02/22-rdf-syntax-ns#"
   xmlns:svg="http://www.w3.org/2000/svg"
   xmlns="http://www.w3.org/2000/svg"
   xmlns:sodipodi="http://sodipodi.sourceforge.net/DTD/sodipodi-0.dtd"
   xmlns:inkscape="http://www.inkscape.org/namespaces/inkscape"
   width="500"
   height="200"
   viewBox="0 0 500 200"
   version="1.1"
   id="svg8"
   inkscape:version="0.92.5 (2060ec1f9f, 2020-04-08)"
   sodipodi:docname="tg16.svg">
  <defs
     id="defs2" />
  <sodipodi:namedview
     id="base"
     pagecolor="#ffffff"
     bordercolor="#666666"
     borderopacity="1.0"
     inkscape:pageopacity="0.0"
     inkscape:pageshadow="2"
     inkscape:zoom="1.7925644"
     inkscape:cx="244.37503"
     inkscape:cy="108.27735"
     inkscape:document-units="mm"
     inkscape:current-layer="layer1"
     showgrid="false"
     units="px"
     inkscape:pagecheckerboard="true"
     inkscape:window-width="1366"
     inkscape:window-height="743"
     inkscape:window-x="0"
     inkscape:window-y="0"
     inkscape:window-maximized="1" />
  <metadata
     id="metadata5">
    <rdf:RDF>
      <cc:Work
         rdf:about="">
        <dc:format>image/svg+xml</dc:format>
        <dc:type
           rdf:resource="http://purl.org/dc/dcmitype/StillImage" />
        <dc:title />
      </cc:Work>
    </rdf:RDF>
  </metadata>
  <g
     inkscape:label="Layer 1"
     inkscape:groupmode="layer"
     id="layer1"
     transform="translate(0,-254.66665)">
    <path
       id="path1042"
       transform="translate(0,254.66665)"
       style="fill:#d4e04f;stroke-width:1.2414608"
       d="m 227.4082,62.296875 c -3.11015,0 -6.89654,0.870684 -8.41406,1.933594 -2.75716,1.93045 -2.75781,1.977243 -2.75781,42.759761 0,40.78258 0.002,40.82928 2.75781,42.75977 1.83443,1.2849 5.56211,1.93359 11.12305,1.93359 h 8.36523 l 0.35938,-24.83203 0.36132,-24.83008 -5.89843,0.002 c -5.38512,0.001 -5.89649,0.25693 -5.89649,2.95898 0,1.91478 0.87567,3.18922 2.48242,3.60938 2.33476,0.61056 2.48438,1.69191 2.48438,18.14453 v 17.49805 h -4.9668 -4.96484 V 106.91602 69.595703 l 4.6543,0.386719 4.65625,0.384766 0.375,6.517578 c 0.34459,5.98522 0.62352,6.517578 3.41406,6.517578 2.93226,0 3.03906,-0.301371 3.03906,-8.619141 0,-7.50011 -0.35901,-8.871164 -2.75976,-10.552734 -1.51752,-1.06291 -5.30391,-1.933594 -8.41407,-1.933594 z m 135.51563,14.585937 -7.71485,0.558594 c -5.65397,0.40898 -8.16544,1.17545 -9.4082,2.875 -1.33661,1.82797 -1.69531,9.623503 -1.69531,36.841794 v 34.52539 h 3.72461 3.72461 v -18.00195 -18.00195 h 4.3457 c 3.80715,0 4.34375,-0.38411 4.34375,-3.10352 0,-2.71957 -0.5366,-3.10351 -4.34375,-3.10351 h -4.3457 V 97.128906 84.787109 l 5.27539,-0.382812 c 4.78254,-0.34601 5.31582,-0.714932 5.68554,-3.951172 z m -103.23633,0.04102 v 37.378902 37.38086 h 3.06836 3.06836 l 0.3457,-16.96875 c 0.40629,-19.95958 2.11271,-22.82886 5.26758,-8.85742 1.12592,4.98625 2.89737,12.83637 3.9375,17.44531 1.76772,7.83317 2.11254,8.38086 5.27539,8.38086 h 3.38281 l -3.58984,-17.40625 -3.58789,-17.40625 2.89844,-2.34765 c 2.74812,-2.22527 2.90039,-3.12893 2.90039,-17.310549 0,-18.62431 -0.36124,-19.147863 -13.67774,-19.820313 z m 121.66211,0.105469 v 11.634765 c 0,10.821073 0.26352,12.048108 3.76562,17.570318 l 3.76368,5.93554 -3.76368,6.11914 c -3.5925,5.83853 -3.76562,6.74325 -3.76562,19.75586 v 13.63672 h 3.78516 3.78515 l -0.20703,-12.85547 c -0.1667,-10.43586 0.20803,-13.48715 1.98633,-16.20117 l 2.1914,-3.34375 2.29102,3.47461 c 1.85348,2.81107 2.29483,5.92448 2.29883,16.2832 l 0.01,12.8086 3.26563,-0.39258 3.26562,-0.39258 -0.23242,-14.10156 c -0.20701,-12.59138 -0.55629,-14.61634 -3.26562,-18.90821 -3.72369,-5.89791 -3.7231,-5.78989 -0.008,-12.45898 2.4951,-4.47825 3.07369,-7.395119 3.29493,-16.605469 l 0.26953,-11.171875 -3.29688,-0.392578 -3.29492,-0.394531 v 10.134765 c 0,7.344331 -0.58518,11.12498 -2.1289,13.738278 -1.17143,1.98305 -2.50038,3.60547 -2.95313,3.60547 -1.96778,0 -3.91623,-8.175111 -4.06641,-17.064451 -0.16107,-9.53489 -0.19528,-9.630501 -3.57617,-10.019531 z m -67.79883,0.136719 c -2.96222,0.06831 -5.86759,0.709468 -7.6543,1.960937 -2.74145,1.92005 -2.75781,2.161849 -2.75781,37.244137 v 35.3125 h 3.06836 3.07031 l 0.34375,-17.6914 0.34375,-17.69141 h 4.34571 4.3457 L 319,133.99219 l 0.3457,17.6914 h 3.06836 3.07032 v -34.76171 c -10e-6,-33.105615 -0.11775,-34.879426 -2.48243,-37.244146 -1.73888,-1.738867 -5.6426,-2.599543 -9.45117,-2.511718 z m -37.72461,7.328125 v 12.490234 12.488285 h -4.38476 c -2.50859,0 -4.65601,-0.70698 -5.01953,-1.6543 -0.34943,-0.91059 -0.47163,-6.35869 -0.27149,-12.105469 l 0.36328,-10.447266 4.65625,-0.386719 z m 33.51953,0 4.6543,0.384765 4.65625,0.384766 V 97.058594 108.85156 L 314,109.23828 l -4.6543,0.38477 V 97.058594 Z" />
    <path
       inkscape:connector-curvature="0"
       id="path1040"
       d="m 451.29829,407.57528 c -35.67708,-7.30597 -42.05292,-56.80764 -9.38319,-72.8505 5.97851,-2.93584 8.65621,-3.48372 17.02592,-3.48372 8.3697,0 11.04741,0.54788 17.02592,3.48372 28.81848,14.15168 28.27985,56.55567 -0.88695,69.823 -7.30733,3.324 -16.57352,4.50358 -23.7817,3.0275 z m -5.39263,-23.57214 c 0,-1.3794 -0.82764,-2.48294 -1.86218,-2.48294 -1.55183,0 -1.86219,-2.4829 -1.86219,-14.89754 v -14.8975 h -4.96585 c -4.46924,0 -4.96585,0.31048 -4.96585,3.10362 0,2.12825 0.68282,3.10366 2.17259,3.10366 1.91664,0 2.17255,1.38927 2.17255,11.79388 0,10.40461 -0.25579,11.79388 -2.17255,11.79388 -1.34494,0 -2.17259,0.94588 -2.17259,2.48294 0,2.18197 0.82765,2.48291 6.82804,2.48291 6.00039,0 6.82803,-0.30103 6.82803,-2.48291 z m 38.237,0.99317 c 0.81939,-0.81938 1.48978,-4.61827 1.48978,-8.44196 0,-3.82368 -0.67039,-7.62258 -1.48978,-8.44192 -0.98292,-0.98293 -6.26246,-1.48977 -15.51825,-1.48977 h -14.02852 v -4.34509 -4.34513 h 13.03535 c 10.75934,0 13.03535,0.32528 13.03535,1.86218 0,1.03459 1.10351,1.86219 2.48291,1.86219 1.89175,0 2.48294,-0.8276 2.48294,-3.47607 0,-1.91186 -0.67039,-4.14647 -1.48978,-4.96585 -2.05945,-2.05945 -30.96339,-2.05945 -33.02285,0 -1.59739,1.59744 -2.19561,30.90998 -0.66212,32.44351 1.53715,1.53715 32.08618,0.93666 33.68497,-0.66209 z m -29.54937,-8.1316 -0.002,-4.65545 13.03798,0.39026 13.03795,0.39026 v 4.26523 4.26523 h -13.03536 -13.03531 l -0.003,-4.65549 z M 8.911506,365.38123 V 324.41302 H 5.1871241 c -3.3105621,0 -3.7243824,-0.41382 -3.7243824,-3.72441 v -3.72438 H 12.635888 23.809035 v 3.72438 c 0,3.31059 -0.41382,3.72441 -3.724383,3.72441 H 16.36027 v 40.96821 40.9682 H 12.635888 8.911506 Z m 34.063721,37.90094 -3.067241,-3.06722 0.330385,-33.86621 0.330385,-33.86625 3.414017,-0.39273 3.414017,-0.39273 v 33.60191 33.60187 h 4.324833 4.324837 l 0.330632,-33.20906 0.330631,-33.2091 3.414018,-0.39273 3.414017,-0.39272 v 34.84334 c 0,33.18808 -0.117942,34.96132 -2.482924,37.32628 -3.805153,3.80514 -14.01827,3.47504 -18.077628,-0.58432 z M 83.39915,368.9699 v -37.3795 l 9.138738,0.46148 c 13.168692,0.66497 13.207552,0.72312 13.207552,19.75487 0,14.87393 -0.17465,16.03892 -2.66619,17.78407 l -2.6662,1.86749 3.69039,17.44554 3.6904,17.44558 h -3.30191 c -3.17913,0 -3.4054,-0.47316 -6.085037,-12.72499 -4.358159,-19.92631 -5.026972,-22.03593 -6.9861,-22.03593 -1.505081,0 -1.81434,2.96256 -1.81434,17.38044 v 17.38048 H 86.502801 83.39915 Z m 16.138988,-17.24474 v -12.41464 h -4.965843 -4.965842 v 12.41464 12.4146 h 4.965842 4.965843 z m 28.553602,17.24474 v -37.3795 l 9.43318,0.47633 c 7.51098,0.37916 9.78774,0.96126 11.17315,2.85589 2.2879,3.12891 2.46814,27.99236 0.21923,30.24127 -1.20001,1.20002 -1.20001,2.03433 0,3.95586 0.9883,1.58251 1.52074,7.84954 1.52074,17.89979 0,18.67024 -0.47546,19.32989 -13.9323,19.32989 h -8.41399 z m 14.89752,15.57529 v -14.35545 l -4.03474,0.38902 -4.03475,0.38903 -0.35103,13.96643 -0.35103,13.96642 h 4.38578 4.38577 z m 0,-32.82003 v -12.41464 h -4.34511 -4.34511 v 12.41464 12.4146 h 4.34511 4.34511 z m 30.58321,52.05123 -3.27107,-2.573 v -31.99547 c 0,-30.95077 0.0853,-32.0727 2.61326,-34.36043 1.90101,-1.72044 4.4686,-2.365 9.42064,-2.365 5.65634,0 7.20867,0.49557 9.18061,2.93081 2.19487,2.71057 2.37324,5.2575 2.37324,33.88628 v 30.95538 l -3.04722,3.04724 c -3.99606,3.99607 -12.49544,4.22945 -17.26946,0.47419 z m 12.86792,-34.67079 v -29.79508 h -4.34511 -4.34512 v 29.79508 29.79504 h 4.34512 4.34511 z M 43.672407,307.92664 c 0,-14.28258 -0.199983,-15.62156 -2.567975,-17.19383 l -2.567974,-1.70509 3.294841,-5.89511 c 1.812165,-3.24233 3.469563,-5.89511 3.683108,-5.89511 0.213553,0 5.878365,4.46924 12.588491,9.93169 6.710126,5.46241 12.632875,9.93169 13.161664,9.93169 0.528792,0 0.961443,-5.62423 0.961443,-12.49828 0,-12.38359 0.0255,-12.49051 2.793285,-11.65435 4.917128,1.48558 5.303955,2.85581 1.82993,6.4819 -3.19872,3.33872 -3.31704,3.98707 -3.654124,20.0236 l -0.348355,16.57312 -12.102179,-9.46302 c -6.656197,-5.20465 -12.661765,-9.46297 -13.345703,-9.46297 -0.699446,0 -1.243524,3.43886 -1.243524,7.8597 0,7.13214 0.289919,8.01489 3.132104,9.53596 3.828812,2.04914 3.562982,3.10773 -1.601494,6.37765 l -4.01353,2.54118 z m 41.799079,5.23471 c 2.008591,-2.48595 2.452908,-16.70331 0.592077,-18.94543 -1.177102,-1.41835 -1.092314,-1.94213 0.407573,-2.5177 2.718367,-1.04313 2.648918,-15.2931 -0.08928,-18.31879 -1.856213,-2.05107 -1.677413,-2.24538 2.793285,-3.0354 2.627044,-0.4642 10.005523,-1.89636 16.396619,-3.18257 6.39108,-1.28622 11.838,-2.33856 12.10424,-2.33856 0.26623,0 0.48407,2.28428 0.48407,5.07618 v 5.07622 l -3.81964,-3.21403 c -4.11669,-3.46394 -6.63415,-3.89804 -11.6178,-2.00328 -2.99934,1.14034 -3.184477,1.7155 -3.184477,9.89275 0,9.46547 1.000527,10.15112 6.979737,4.78317 2.4239,-2.17608 2.69896,-2.19763 3.43901,-0.26894 0.44241,1.15289 0.44771,3.99743 0.0119,6.32119 -0.77098,4.1097 -0.8721,4.1729 -3.70569,2.31627 -5.79965,-3.80009 -6.724846,-2.76341 -6.724846,7.53502 0,8.10146 0.279146,9.33668 1.963726,8.69023 1.08005,-0.41445 3.09122,-0.75355 4.46926,-0.75355 1.37804,0 4.40497,-1.89944 6.7265,-4.22094 l 4.22097,-4.22098 v 4.08935 4.08938 l -15.2079,2.77328 c -8.364342,1.52526 -15.766549,3.08836 -16.449352,3.47356 -0.682804,0.38533 -0.588241,-0.10815 0.21014,-1.09631 z m 46.865994,-10.9527 c -4.89462,-2.98473 -8.10412,-9.77839 -8.14444,-17.23952 -0.0716,-13.24701 8.31203,-23.53085 22.48526,-27.58178 2.68357,-0.76703 3.62833,-0.2085 6.5117,3.84844 l 3.3727,4.74563 -2.69831,1.88999 c -2.50448,1.7542 -2.94783,1.65094 -6.17163,-1.43767 -2.94615,-2.82258 -3.9848,-3.14778 -6.84329,-2.14248 -7.27868,2.55976 -11.9788,17.07654 -7.44205,22.98551 4.26364,5.55321 11.20895,6.21336 18.29674,1.73902 2.71764,-1.71558 4.94117,-2.72985 4.94117,-2.25401 0,0.47588 -0.89354,4.04983 -1.98565,7.94207 -1.46584,5.22422 -2.78112,7.43925 -5.02426,8.46128 -4.6424,2.11522 -13.02036,1.65197 -17.29794,-0.95648 z"
       style="fill:#f59125;stroke-width:1.2414608" />
  </g>
</svg>
