<?xml version="1.0" encoding="UTF-8" standalone="no"?>
<!-- Created with Inkscape (http://www.inkscape.org/) -->

<svg
   xmlns:dc="http://purl.org/dc/elements/1.1/"
   xmlns:cc="http://creativecommons.org/ns#"
   xmlns:rdf="http://www.w3.org/1999/02/22-rdf-syntax-ns#"
   xmlns:svg="http://www.w3.org/2000/svg"
   xmlns="http://www.w3.org/2000/svg"
   xmlns:xlink="http://www.w3.org/1999/xlink"
   xmlns:sodipodi="http://sodipodi.sourceforge.net/DTD/sodipodi-0.dtd"
   xmlns:inkscape="http://www.inkscape.org/namespaces/inkscape"
   width="500"
   height="200"
   viewBox="0 0 132.29166 52.916667"
   version="1.1"
   id="svg8"
   inkscape:version="0.92.5 (2060ec1f9f, 2020-04-08)"
   sodipodi:docname="tux_.svg">
  <defs
     id="defs2">
    <linearGradient
       inkscape:collect="always"
       id="linearGradient827">
      <stop
         style="stop-color:#0000ff;stop-opacity:1;"
         offset="0"
         id="stop823" />
      <stop
         style="stop-color:#dedeff;stop-opacity:0.99290782"
         offset="1"
         id="stop825" />
    </linearGradient>
    <radialGradient
       inkscape:collect="always"
       xlink:href="#linearGradient827"
       id="radialGradient833"
       cx="99.298828"
       cy="40.805569"
       fx="99.298828"
       fy="40.805569"
       r="83.017578"
       gradientTransform="matrix(1,0,0,0.22538525,0,31.608595)"
       gradientUnits="userSpaceOnUse" />
    <radialGradient
       inkscape:collect="always"
       xlink:href="#linearGradient827"
       id="radialGradient845"
       gradientUnits="userSpaceOnUse"
       gradientTransform="matrix(1,0,0,0.22538525,0,31.608595)"
       cx="99.298828"
       cy="40.805569"
       fx="99.298828"
       fy="40.805569"
       r="83.017578" />
    <radialGradient
       gradientUnits="userSpaceOnUse"
       gradientTransform="matrix(1,0,0,0.22538525,0,31.608595)"
       r="83.017578"
       fy="40.805569"
       fx="99.298828"
       cy="40.805569"
       cx="99.298828"
       id="radialGradient833-5"
       xlink:href="#linearGradient827"
       inkscape:collect="always" />
    <radialGradient
       r="83.017578"
       fy="40.805569"
       fx="99.298828"
       cy="40.805569"
       cx="99.298828"
       gradientTransform="matrix(1,0,0,0.22538525,0,31.608595)"
       gradientUnits="userSpaceOnUse"
       id="radialGradient845-9"
       xlink:href="#linearGradient827"
       inkscape:collect="always" />
  </defs>
  <sodipodi:namedview
     id="base"
     pagecolor="#ffffff"
     bordercolor="#666666"
     borderopacity="1.0"
     inkscape:pageopacity="0.0"
     inkscape:pageshadow="2"
     inkscape:zoom="1.1291611"
     inkscape:cx="275.39677"
     inkscape:cy="95.087564"
     inkscape:document-units="mm"
     inkscape:current-layer="layer1"
     showgrid="false"
     units="px"
     inkscape:pagecheckerboard="true"
     inkscape:window-width="1366"
     inkscape:window-height="739"
     inkscape:window-x="0"
     inkscape:window-y="0"
     inkscape:window-maximized="1" />
  <metadata
     id="metadata5">
    <rdf:RDF>
      <cc:Work
         rdf:about="">
        <dc:format>image/svg+xml</dc:format>
        <dc:type
           rdf:resource="http://purl.org/dc/dcmitype/StillImage" />
        <dc:title></dc:title>
      </cc:Work>
    </rdf:RDF>
  </metadata>
  <g
     inkscape:label="Layer 1"
     inkscape:groupmode="layer"
     id="layer1"
     transform="translate(0,-244.08332)">
    <g
       id="g1004"
       transform="matrix(0.19215417,0,0,0.1993732,64.359992,244.01592)">
      <path
         inkscape:connector-curvature="0"
         id="path947"
         d="m -191.67252,187.80757 c -4.06152,0 -8.12304,0 -12.18456,0 -0.78107,0 -1.56213,0 -2.34319,0 -0.31242,0 -0.62485,0 -0.93727,0 -0.15622,0 -0.31709,-0.0379 -0.46864,0 -3.03446,0.75862 0.0251,-0.0151 -2.34318,1.40591 -0.42359,0.25416 -0.96408,0.24772 -1.40592,0.46864 -0.19759,0.0988 -0.31242,0.31242 -0.46863,0.46864 -0.15621,0.15621 -0.39878,0.25905 -0.46864,0.46863 -0.0988,0.29639 0.0988,0.64088 0,0.93728 -0.0699,0.20958 -0.31242,0.31242 -0.46864,0.46863 -0.47637,0.47638 -0.74812,0.64934 -0.93727,1.40592 -0.11366,0.45464 0,0.93727 0,1.40591 0,1.09348 0,2.18697 0,3.28045 0,1.56213 0,3.12425 0,4.68638 0,0.62484 -0.12254,1.26183 0,1.87454 0.22673,1.13363 1.28977,1.46602 1.87455,2.34319 0.0867,0.12998 -0.0804,0.33468 0,0.46863 0.40185,0.66976 0.91798,1.26465 1.40591,1.87455 0.138,0.17251 0.36984,0.27104 0.46864,0.46864 0.0699,0.13972 -0.0379,0.31709 0,0.46864 0.11981,0.47923 0.24771,0.96407 0.46863,1.40591 0.30575,0.61149 2.65813,1.87643 3.28046,2.34318 0.35347,0.2651 0.56965,0.69219 0.93728,0.93728 0.29063,0.19375 0.62484,0.31242 0.93727,0.46863 0.31243,0.15622 0.59475,0.40014 0.93727,0.46864 3.57507,0 -0.36968,-0.20958 2.34319,0.46864 0.30309,0.0758 0.64088,-0.0988 0.93727,0 0.66276,0.22092 1.20283,0.74535 1.87455,0.93727 0.60081,0.17166 1.2497,0 1.87455,0 1.2497,0 2.4994,0 3.74909,0 4.37395,0 8.74789,0 13.12184,0 5.15501,0 10.31001,0 15.46502,0 1.71833,0 3.43667,0 5.15501,0 0.62484,0 1.26183,0.12254 1.87454,0 0.53562,-0.10712 2.10659,-1.26395 2.34319,-1.40591 0.29952,-0.17971 0.6059,-0.35818 0.93727,-0.46864 1.1833,-0.39443 -0.48806,0.95184 1.40591,-0.46863 0.35347,-0.2651 0.62485,-0.62485 0.93728,-0.93728 0.15621,-0.15621 0.36984,-0.27104 0.46864,-0.46864 0.0699,-0.13971 -0.0867,-0.33865 0,-0.46863 0.24508,-0.36763 0.69218,-0.56965 0.93727,-0.93727 0.0866,-0.12998 -0.0494,-0.32045 0,-0.46864 0.11046,-0.33138 0.27488,-0.64664 0.46864,-0.93728 0.24508,-0.36763 0.69218,-0.56964 0.93727,-0.93727 0.19376,-0.29064 0.25906,-0.65783 0.46864,-0.93727 0.2651,-0.35347 0.69218,-0.56965 0.93727,-0.93728 0.0866,-0.12997 -0.0379,-0.31709 0,-0.46864 0.11981,-0.47923 0.37176,-0.92151 0.46864,-1.40591 0.0613,-0.30635 -0.13972,-0.65783 0,-0.93727 0.19759,-0.39519 0.67217,-0.58381 0.93727,-0.93727 0.20958,-0.27945 0.27488,-0.64664 0.46864,-0.93728 0.24508,-0.36763 0.73968,-0.54208 0.93727,-0.93727 0.0699,-0.13972 -0.0494,-0.32044 0,-0.46864 0.11046,-0.33138 0.35818,-0.6059 0.46864,-0.93727 0.0494,-0.1482 -0.0866,-0.33866 0,-0.46864 0.24508,-0.36763 0.69219,-0.56964 0.93727,-0.93727 0.0866,-0.12998 0,-0.31243 0,-0.46864 0,-0.31243 -0.0758,-0.63418 0,-0.93728 0.0847,-0.33887 0.35818,-0.60589 0.46864,-0.93727 0.13382,-0.40146 -0.10336,-1.46111 0,-1.87455 0.56576,-2.26302 0.2227,0.0232 0.93727,-1.40591 0.0699,-0.13972 0,-0.31242 0,-0.46863 0,-0.15622 0,-0.31243 0,-0.46864 0,-0.78106 0,-1.56212 0,-2.34319 0,-1.2497 0,-2.49939 0,-3.74909 0,-0.31243 0,-0.62485 0,-0.93728 0,-0.15621 0.0699,-0.32891 0,-0.46863 -0.26862,-0.53726 -0.97781,-0.65188 -1.40591,-0.93728 -0.36763,-0.24508 -0.56964,-0.69218 -0.93727,-0.93727 -0.29064,-0.19376 -0.64664,-0.27488 -0.93727,-0.46864 -0.18382,-0.12254 -0.25906,-0.39878 -0.46864,-0.46864 -0.29639,-0.0988 -0.62485,0 -0.93728,0 -0.15621,0 -0.32891,0.0699 -0.46863,0 -0.1976,-0.0988 -0.25432,-0.41505 -0.46864,-0.46863 -0.45465,-0.11366 -0.93727,0 -1.40591,0 -0.46864,0 -0.93727,0 -1.40591,0 -1.87455,0 -3.7491,0 -5.62365,0 -3.28045,0 -6.56091,0 -9.84137,0 -0.93727,0 -1.87455,0 -2.81182,0 -0.46864,0 -0.93728,0 -1.40591,0 -0.31243,0 -0.64089,-0.0988 -0.93728,0 -0.20958,0.0699 -0.31242,0.31242 -0.46864,0.46863 -0.31242,0.15622 -0.59475,0.40014 -0.93727,0.46864 -0.45954,0.0919 -0.97079,-0.17405 -1.40591,0 -0.76291,0.76291 -0.8752,1.0728 -1.87455,1.40591 -0.29639,0.0988 -0.67732,-0.1733 -0.93727,0 -0.31243,0.31243 -0.62485,0.62485 -0.93728,0.93728 -0.15621,0 -0.32891,-0.0699 -0.46863,0 -0.1976,0.0988 -0.25432,0.41505 -0.46864,0.46863 -0.45465,0.11366 -0.95127,-0.11366 -1.40591,0 -0.42864,0.10717 -0.54209,0.73968 -0.93728,0.93728 -0.13971,0.0699 -0.31708,-0.0379 -0.46863,0 -0.47924,0.11981 -0.92152,0.37176 -1.40591,0.46864 -0.46506,0.093 -1.85082,0 -2.34319,0 -1.09348,0 -2.18697,0 -3.28046,0 -0.46863,0 -0.94089,-0.0581 -1.40591,0 -0.79038,0.0988 -1.56212,0.31242 -2.34318,0.46863 z"
         style="fill:#ffffff;fill-rule:evenodd;stroke:#000000;stroke-width:0.26458332px;stroke-linecap:butt;stroke-linejoin:miter;stroke-opacity:1" />
      <path
         inkscape:connector-curvature="0"
         id="path949"
         d="m -194.70711,44.505826 c -1.48787,1.997038 -3.17695,3.858879 -4.4636,5.991111 -0.24213,0.401246 0.12874,0.955307 0,1.405911 -2.40175,4.803489 -0.0955,-0.507664 -0.93728,3.28046 -0.93727,4.217734 -0.70295,1.405912 -1.40591,4.217734 -0.0379,0.151548 0.058,0.323596 0,0.468635 -0.25945,0.648637 -0.62485,1.249699 -0.93727,1.874549 -0.62332,1.246643 -0.87241,1.679956 -1.40591,3.280458 -0.0494,0.148196 0.0494,0.320442 0,0.468638 -0.11046,0.331375 -0.38392,0.598403 -0.46864,0.937273 -0.0758,0.303096 0.16074,0.669372 0,0.937273 -0.34098,0.568307 -0.93727,0.937276 -1.40591,1.405911 -0.15621,0.156213 -0.39878,0.259057 -0.46864,0.468638 -1.07238,3.217151 1.79439,-2.18286 -0.46863,2.343185 -0.1976,0.395189 -0.69219,0.569645 -0.93728,0.937273 -0.19376,0.290637 -0.27488,0.646639 -0.46864,0.937276 -0.12254,0.183814 -0.36984,0.271042 -0.46863,0.468635 -0.0699,0.139721 0.0494,0.320442 0,0.468638 -0.11046,0.331377 -0.31243,0.624851 -0.46864,0.937273 -0.15621,0.312425 -0.27488,0.646639 -0.46864,0.937276 -0.12254,0.183814 -0.36984,0.271042 -0.46863,0.468635 -0.0699,0.139722 0,0.312426 0,0.468638 -0.15622,0.312426 -0.25906,0.657834 -0.46864,0.937273 -0.2651,0.353468 -0.69219,0.569646 -0.93728,0.937274 -0.0867,0.129976 0.0699,0.328916 0,0.468638 -0.0988,0.197593 -0.39877,0.259056 -0.46863,0.468638 -0.0988,0.296391 0.13972,0.65783 0,0.937273 -0.23432,0.468638 -1.05443,0.937273 -1.40591,1.405911 -0.33794,0.450585 -0.59934,0.955326 -0.93728,1.405911 -0.13255,0.176734 -0.38659,0.26352 -0.46863,0.468635 -0.23921,0.598014 -0.1806,1.298467 -0.46864,1.874549 -0.29639,0.592784 -0.93727,0.937274 -1.40591,1.405912 -0.78106,0.78106 -1.56213,1.562123 -2.34319,2.343184 -0.7629,0.762905 -1.07279,0.875199 -1.40591,1.874549 -0.0494,0.148196 0.0699,0.328914 0,0.468635 -0.28118,0.562364 -1.12473,0.843548 -1.40591,1.405911 -0.0699,0.139722 0.0699,0.328917 0,0.468638 -0.0988,0.197594 -0.34609,0.284822 -0.46863,0.468636 -0.19376,0.290637 -0.31243,0.62485 -0.46864,0.937276 -0.15622,0.312422 -0.35818,0.605895 -0.46864,0.937273 -0.23432,0.702955 0.46864,0.468638 0,1.405911 -0.19759,0.39519 -0.73968,0.542084 -0.93727,0.937273 -0.27944,0.558882 0.19759,1.281764 0,1.874554 -0.0699,0.20957 -0.39878,0.25905 -0.46864,0.46863 -0.0988,0.29639 0,0.62485 0,0.93728 0,0.15621 0.0699,0.32891 0,0.46863 -0.19759,0.39519 -0.73968,0.54209 -0.93727,0.93728 -0.0699,0.13972 0,0.31242 0,0.46863 0,0.46864 0,0.93728 0,1.40591 0,0.78106 0,1.56213 0,2.34319 0,2.96803 0,5.93607 0,8.9041 0,1.71834 0,3.43667 0,5.15501 0,0.43947 -0.11107,2.8362 0,3.28046 0.92383,3.69531 -0.12131,-1.00621 1.40591,2.81182 0.11603,0.29008 -0.0758,0.63418 0,0.93727 0.0847,0.33888 0.35818,0.6059 0.46863,0.93728 0.0988,0.29639 -0.13972,0.65783 0,0.93727 0.25189,0.50377 0.73951,0.87854 0.93728,1.40591 0.27968,0.74582 0.15487,1.61106 0.46864,2.34319 0.17404,0.40611 0.70995,0.5584 0.93727,0.93727 0.25415,0.42359 0.34883,0.92667 0.46864,1.40591 0.0379,0.15155 -0.0866,0.33866 0,0.46864 0.36762,0.55144 1.03828,0.85447 1.40591,1.40591 0.19375,0.29064 0.22164,0.69028 0.46863,0.93727 0.247,0.247 0.64664,0.27488 0.93728,0.46864 0.70263,0.46842 1.12516,1.49985 1.87455,1.87455 0.27944,0.13972 0.62484,0 0.93727,0 0.46864,0.15621 0.98701,0.20682 1.40591,0.46863 0.84821,0.53014 1.48548,1.35993 2.34318,1.87455 0.72135,0.43281 1.57447,0.59562 2.34319,0.93728 0.63839,0.28373 1.26386,0.598 1.87455,0.93727 5.24899,2.91611 0.0871,0.14601 3.74909,2.34319 1.09904,0.65942 1.00198,0.40079 2.34319,0.93727 0.32432,0.12973 0.61296,0.33891 0.93727,0.46864 0.45866,0.18346 0.95187,0.27404 1.40591,0.46863 0.64212,0.2752 1.22591,0.67782 1.87455,0.93728 0.29008,0.11603 0.64088,-0.0988 0.93727,0 0.33138,0.11046 0.59476,0.40013 0.93728,0.46863 0.45954,0.0919 0.93727,0 1.40591,0 0.31242,0 0.64088,-0.0988 0.93727,0 0.66276,0.22092 1.22591,0.67782 1.87455,0.93728 0.29008,0.11603 0.62485,0 0.93728,0 0.46863,0 0.93727,0 1.40591,0 1.71833,0 3.43667,0 5.155,0 1.56213,0 3.12425,0 4.68637,0 0.31243,0 0.62485,0 0.93728,0 0.31242,0 0.66937,0.16074 0.93727,0 0.46864,-0.46864 0.93728,-0.93728 1.40591,-1.40591 0.15621,0 0.32892,0.0699 0.46864,0 0.19759,-0.0988 0.25905,-0.39878 0.46864,-0.46864 2.02901,-0.67634 -0.17225,0.89589 1.87454,-0.46864 0.36763,-0.24508 0.54209,-0.73967 0.93728,-0.93727 0.13972,-0.0699 0.32044,0.0494 0.46863,0 1.69895,-0.56631 0.33353,-0.22235 1.40592,-0.93727 0.29063,-0.19376 0.69028,-0.22165 0.93727,-0.46864 0.22092,-0.22092 -0.13972,-0.65784 0,-0.93727 2.21017,-4.42035 0.0878,0.10261 1.40591,-1.87455 0.19376,-0.29064 0.27488,-0.64664 0.46864,-0.93728 0.24508,-0.36763 0.73968,-0.54208 0.93727,-0.93727 0.0699,-0.13972 -0.0379,-0.31709 0,-0.46864 0.11981,-0.47924 0.24772,-0.96407 0.46864,-1.40591 0.19759,-0.39519 0.73968,-0.54208 0.93727,-0.93727 0.0699,-0.13972 -0.0699,-0.32892 0,-0.46864 0.0988,-0.19759 0.31243,-0.31242 0.46864,-0.46864 0.15621,-0.15621 0.31242,-0.31242 0.46864,-0.46863 0.62485,-0.62485 1.24969,-1.2497 1.87454,-1.87455 0.15622,-0.15621 0.31243,-0.31243 0.46864,-0.46864 0.15621,-0.15621 0.36984,-0.27104 0.46864,-0.46864 0.0699,-0.13972 0,-0.31242 0,-0.46863 0.15621,-0.31243 0.25905,-0.65783 0.46864,-0.93728 0.2651,-0.35346 0.62484,-0.62485 0.93727,-0.93727 0.15621,-0.15621 0.39878,-0.25906 0.46864,-0.46864 0.0988,-0.29639 -0.13972,-0.65783 0,-0.93727 0.19759,-0.39519 0.66126,-0.59226 0.93727,-0.93727 0.35185,-0.43982 0.59933,-0.95533 0.93727,-1.40592 0.13255,-0.17673 0.3461,-0.28482 0.46864,-0.46863 0.19376,-0.29064 0.22165,-0.69028 0.46864,-0.93728 0.24699,-0.24699 0.72769,-0.18919 0.93727,-0.46864 0.29639,-0.39518 0.28518,-0.94725 0.46864,-1.40591 0.12973,-0.32431 0.27488,-0.64663 0.46864,-0.93727 0.24508,-0.36763 0.73968,-0.54208 0.93727,-0.93727 0.0699,-0.13972 -0.0699,-0.32892 0,-0.46864 0.25188,-0.50377 0.72809,-0.88296 0.93727,-1.40591 0.11603,-0.29008 -0.0988,-0.64088 0,-0.93727 0.0699,-0.20959 0.31243,-0.31243 0.46864,-0.46864 0.31243,-0.31243 0.69219,-0.56965 0.93728,-0.93728 0.0867,-0.12997 -0.0379,-0.31708 0,-0.46863 0.1198,-0.47924 0.38742,-0.91865 0.46863,-1.40591 0.077,-0.46226 -0.14819,-0.96133 0,-1.40591 0.17811,-0.53433 0.68539,-0.90215 0.93728,-1.40591 0.44183,-0.88368 0.57035,-1.89452 0.93727,-2.81183 0.12973,-0.32432 0.27488,-0.64664 0.46864,-0.93727 0.12254,-0.18382 0.41505,-0.25432 0.46863,-0.46864 0.11367,-0.45464 -0.17405,-0.97079 0,-1.40591 0.1641,-0.41023 0.69219,-0.56964 0.93728,-0.93727 0.0866,-0.12998 -0.0494,-0.32044 0,-0.46864 0.11046,-0.33138 0.35818,-0.6059 0.46863,-0.93727 0.0494,-0.1482 -0.058,-0.3236 0,-0.46864 0.25946,-0.64864 0.67782,-1.22591 0.93728,-1.87455 0.0715,-0.17885 0,-1.80881 0,-1.87455 0,-0.93727 0,-1.87454 0,-2.81182 0,-0.35695 0.0979,-2.986849 0,-3.280457 -0.0699,-0.209582 -0.31243,-0.312425 -0.46864,-0.468638 -0.31242,-0.312425 -0.62485,-0.624848 -0.93727,-0.937273 -1.09349,-1.093486 -2.18698,-2.186972 -3.28046,-3.280458 -0.014,-0.01405 -1.77991,-1.685261 -1.87455,-1.874549 -0.0699,-0.139721 0.0379,-0.31709 0,-0.468638 -0.11981,-0.479237 -0.24772,-0.964075 -0.46864,-1.405911 -0.0988,-0.197593 -0.31242,-0.312423 -0.46863,-0.468635 -0.31243,-0.312426 -0.70995,-0.558403 -0.93728,-0.937276 -0.25415,-0.42359 -0.24772,-0.964076 -0.46863,-1.405909 -0.0988,-0.197596 -0.36984,-0.271044 -0.46864,-0.468638 -0.13972,-0.279442 0.13972,-0.657833 0,-0.937273 -0.23058,-0.461153 -1.64397,-1.413396 -1.87455,-1.874549 -0.0699,-0.139721 0.0867,-0.338661 0,-0.468638 -0.24509,-0.367628 -0.62485,-0.624848 -0.93727,-0.937273 -0.62485,-0.624848 -1.2497,-1.249698 -1.87455,-1.874546 -0.31243,-0.312426 -0.62485,-0.624851 -0.93727,-0.937276 -0.15622,-0.156213 -0.36984,-0.271042 -0.46864,-0.468636 -0.0699,-0.139721 0.0699,-0.328916 0,-0.468638 -0.0709,-0.141787 -1.73276,-1.803653 -1.87455,-1.874546 -0.13972,-0.06986 -0.32892,0.06986 -0.46864,0 -0.19759,-0.0988 -0.31242,-0.312425 -0.46863,-0.468638 -0.62485,-0.62485 -1.2497,-1.249698 -1.87455,-1.874549 -0.27563,-0.275624 -1.76604,-1.65753 -1.87455,-1.874546 -0.0699,-0.139722 0.0699,-0.328917 0,-0.468638 -0.0988,-0.197594 -0.36984,-0.271042 -0.46864,-0.468636 -0.0699,-0.139721 0.0867,-0.338661 0,-0.468638 -0.74694,-1.120412 -1.08541,-0.592566 -1.40591,-1.874549 -0.0758,-0.303096 0.13972,-0.657831 0,-0.937273 -0.19759,-0.395189 -0.69219,-0.569645 -0.93727,-0.937273 -0.0867,-0.129977 0.0699,-0.328917 0,-0.468638 -0.0988,-0.197593 -0.36984,-0.271042 -0.46864,-0.468635 -0.13972,-0.279443 0.0988,-0.640885 0,-0.937276 -0.28372,-0.851151 -0.40108,-0.869717 -0.93727,-1.405911 -0.15621,-0.156213 -0.39878,-0.259056 -0.46864,-0.468636 -0.0988,-0.296394 0,-0.62485 0,-0.937275 0,-0.15621 0.0866,-0.338659 0,-0.468636 -0.24509,-0.36763 -0.77318,-0.527042 -0.93727,-0.937276 -0.17405,-0.435117 0.11366,-0.951264 0,-1.405908 -0.0536,-0.214323 -0.39878,-0.259056 -0.46864,-0.468638 -0.0988,-0.296392 0.11603,-0.647195 0,-0.937273 -0.20918,-0.522949 -0.59933,-0.955326 -0.93727,-1.405911 -0.13255,-0.176734 -0.39878,-0.259057 -0.46864,-0.468638 -0.15529,-0.465855 0.1991,-1.944979 0,-2.343185 -0.28118,-0.562364 -1.12473,-0.843547 -1.40591,-1.405911 -0.0699,-0.139721 0.0699,-0.328917 0,-0.468638 -0.0988,-0.197593 -0.31243,-0.312422 -0.46864,-0.468635 -0.59123,-0.591235 -1.38487,-1.22165 -1.87455,-1.874549 -0.20958,-0.27944 -0.28892,-0.637749 -0.46863,-0.937273 0.0458,-1.036434 -0.97266,-1.224667 -1.40592,-1.874549 -0.19375,-0.290635 -0.25905,-0.657831 -0.46863,-0.937274 -0.53021,-0.706935 -1.34435,-1.167611 -1.87455,-1.874546 -0.80308,0.222803 -0.35031,-1.169263 -0.46864,-1.405911 -0.0988,-0.197596 -0.31242,-0.312426 -0.46863,-0.468638 -0.15622,-0.156213 -0.25432,-0.415057 -0.46864,-0.468638 -0.45465,-0.11366 -0.93727,0 -1.40591,0 -0.93728,0 -1.87455,0 -2.81182,0 -1.09349,0 -2.18698,0 -3.28046,0 -0.46864,0 -0.94365,-0.07704 -1.40591,0 -0.48727,0.08121 -0.96408,0.247721 -1.40591,0.468638 -0.1976,0.0988 -0.27105,0.36984 -0.46864,0.468638 -0.44184,0.220916 -0.96408,0.247719 -1.40591,0.468635 -0.50377,0.251886 -0.90214,0.68539 -1.40591,0.937276 -0.27944,0.139718 -0.65784,-0.139721 -0.93728,0 -0.19759,0.09879 -0.36984,0.271042 -0.46863,0.468635 -0.0699,0.139721 0.15621,0.468638 0,0.468638 -0.15622,0 -0.15569,-0.455821 0,-0.468638 1.48323,-0.122108 2.97573,0.06745 4.4636,0.101169"
         style="fill:#ffffff;fill-rule:evenodd;stroke:#000000;stroke-width:0.26458332px;stroke-linecap:butt;stroke-linejoin:miter;stroke-opacity:1" />
      <path
         inkscape:connector-curvature="0"
         id="path951"
         d="m -205.26299,24.253268 c 1.03739,0.400538 2.22904,-0.300404 3.28045,0 0.67173,0.191921 1.22043,0.691978 1.87455,0.937274 0.60307,0.226151 1.23923,0.362751 1.87455,0.468637 0.30817,0.05136 0.64719,-0.116032 0.93727,0 0.52295,0.209179 0.90214,0.685389 1.40591,0.937274 0.44184,0.220917 0.98233,0.214482 1.40592,0.468637 0.37887,0.227322 0.56964,0.692188 0.93727,0.937273 0.12998,0.08665 0.32044,-0.0494 0.46864,0 0.33137,0.11046 0.60589,0.358179 0.93727,0.468638 0.1482,0.0494 0.31242,0 0.46864,0 0.46864,0.156212 0.96407,0.247719 1.40591,0.468636 0.38551,0.192756 1.52795,1.643484 1.87455,1.874549 0.12997,0.08665 0.32891,-0.06986 0.46863,0 0.39519,0.197594 0.56965,0.692187 0.93728,0.937273 0.29063,0.193758 0.64664,0.27488 0.93727,0.468637 0.18382,0.122543 0.28482,0.346094 0.46864,0.468637 0.29063,0.193758 0.64664,0.27488 0.93727,0.468637 0.36763,0.245086 0.62485,0.62485 0.93728,0.937274 0.78106,0.781062 1.56212,1.562123 2.34318,2.343185 0.52256,0.522559 2.0345,1.880155 2.34319,2.343186 0.0866,0.129974 -0.0494,0.32044 0,0.468636 0.11046,0.331377 0.38392,0.598402 0.46863,0.937273 0.0758,0.303098 -0.0988,0.640884 0,0.937276 0.0699,0.209579 0.36984,0.271041 0.46864,0.468635 0.0699,0.139721 0,0.312425 0,0.468638 0.31242,0.156212 0.69028,0.221644 0.93727,0.468638 0.11046,0.110458 -0.0699,0.328914 0,0.468635 0.0988,0.197596 0.36984,0.271042 0.46864,0.468638 0.0699,0.139721 0.15621,0.468638 0,0.468638 -0.15621,0 0,-0.624851 0,-0.468638 0,0.312425 0,0.624848 0,0.937273 0,0.468638 0.0919,0.946375 0,1.405911 -0.24003,1.200169 -1.00273,1.35146 -1.87455,1.874549 -0.48296,0.28978 -0.95532,0.599335 -1.40591,0.937274 -0.93727,0.702955 0,0.468638 -1.40591,1.405911 -0.12998,0.08665 -0.32892,-0.06986 -0.46864,0 -0.19759,0.0988 -0.31242,0.312425 -0.46863,0.468635 -0.31243,0 -0.64088,-0.0988 -0.93728,0 -0.20958,0.06986 -0.31242,0.312425 -0.46863,0.468638 -0.31243,0.312425 -0.59226,0.661263 -0.93728,0.937273 -0.43981,0.351848 -0.95532,0.599337 -1.40591,0.937276 -0.17673,0.132551 -0.25905,0.398775 -0.46864,0.468635 -0.29639,0.0988 -0.64088,-0.0988 -0.93727,0 -0.41916,0.139722 -0.54209,0.73968 -0.93727,0.937276 -0.13972,0.06986 -0.32892,-0.06986 -0.46864,0 -0.1976,0.0988 -0.25431,0.415055 -0.46864,0.468636 -0.45464,0.113662 -0.93727,0 -1.40591,0 -0.46863,0.312425 -0.87158,0.759166 -1.40591,0.937273 -0.30029,0.1001 -3.11052,0 -3.7491,0 -1.09348,0 -2.18697,0 -3.28045,0 -0.15966,0 -1.62092,0.08454 -1.87455,0 -0.33138,-0.110458 -0.5984,-0.383919 -0.93728,-0.468636 -0.30309,-0.07577 -0.63417,0.07577 -0.93727,0 -0.84821,0.282462 -0.87158,-0.759163 -1.40591,-0.937273 -0.29639,-0.0988 -0.64088,0.0988 -0.93727,0 -0.20959,-0.06986 -0.31243,-0.312425 -0.46864,-0.468638 -0.15621,-0.156212 -0.31243,-0.312425 -0.46864,-0.468638 -0.37634,-0.376338 -2.07251,-1.937168 -2.34318,-2.343184 -0.0866,-0.129977 0.0699,-0.328917 0,-0.468638 -0.28118,-0.562364 -1.12473,-0.843544 -1.40591,-1.405908 -0.0699,-0.139722 0.0699,-0.328917 0,-0.468638 -0.0988,-0.197596 -0.36984,-0.271042 -0.46864,-0.468638 -0.14728,-0.294548 0.14727,-1.579999 0,-1.874547 -0.1976,-0.395189 -0.69219,-0.569645 -0.93728,-0.937276 -0.058,-0.08694 0.007,-1.84799 0,-1.874546 -0.0847,-0.338873 -0.35817,-0.605898 -0.46863,-0.937273 -0.0845,-0.25363 0,-1.714897 0,-1.874549 0,-1.093486 0,-2.186972 0,-3.280459 0,-1.249698 0,-2.499397 0,-3.749096 0,-0.468637 -0.11366,-0.951266 0,-1.405911 0.0847,-0.338872 0.35818,-0.605897 0.46863,-0.937274 0.0494,-0.148196 0,-0.312424 0,-0.468636 0,-0.562877 -0.0883,-3.059658 0,-3.280459 0.17366,-0.434147 1.40592,-1.44514 1.40592,-0.937274 0,0.156212 -0.5791,0.110458 -0.46864,0 1.13487,-0.567435 0.69028,-0.221644 1.40591,-0.937274 1.55427,-1.554274 -0.44183,0.220917 0.93727,-0.468637 0.1976,-0.0988 0.27105,-0.36984 0.46864,-0.468637 0.13972,-0.06986 0.31546,0.03064 0.46864,0 0.63157,-0.126315 1.2497,-0.312425 1.87455,-0.468637 z"
         style="fill:#ffffff;fill-rule:evenodd;stroke:#000000;stroke-width:0.26458332px;stroke-linecap:butt;stroke-linejoin:miter;stroke-opacity:1" />
      <path
         inkscape:connector-curvature="0"
         id="path953"
         d="m -267.12307,87.51926 c -1.81631,5.448929 0.15518,0.522422 -2.3432,4.686368 -0.0804,0.133951 0,0.312426 0,0.468638 0,0.624848 0,1.249699 0,1.874547 0,1.249698 0,2.499397 0,3.749098 0,0.468635 -0.11366,0.951264 0,1.405908 0.33981,1.359161 0.36563,0.548431 0.93729,1.405911 0.45529,0.68294 0.29257,0.97611 0.93726,1.40591 0.29064,0.19376 0.64664,0.27488 0.93728,0.46864 0.18381,0.12254 0.25906,0.39878 0.46863,0.46864 0.29639,0.0988 0.63418,-0.0758 0.93729,0 2.26301,0.56575 -0.0233,0.2227 1.4059,0.93727 0.13973,0.0699 0.32044,-0.0494 0.46864,0 0.33138,0.11046 0.6059,0.35818 0.93728,0.46864 0.14819,0.0494 0.31242,0 0.46863,0 0.31243,0 0.62485,0 0.93728,0 0.46863,0 0.95126,-0.11366 1.40591,0 0.42864,0.10716 0.54208,0.73968 0.93727,0.93727 0.20853,0.10427 1.6602,-0.0714 1.87455,0 0.20958,0.0699 0.25905,0.39878 0.46864,0.46864 0.29639,0.0988 0.62485,0 0.93727,0 0.15621,0 0.33866,-0.0867 0.46864,0 0.36762,0.24508 0.56964,0.69219 0.93727,0.93727 0.12998,0.0866 0.31242,0 0.46864,0 0.31242,0 0.62485,0 0.93727,0 0.49059,0 2.43073,-0.0953 2.81182,0 0.33888,0.0847 0.6059,0.35818 0.93728,0.46864 0.28115,0.0937 1.96923,0 2.34318,0 1.71834,0 3.43667,0 5.15501,0 0.93727,0 1.87455,0 2.81182,0 0.31242,0 0.62485,0 0.93728,0 0.15621,0 0.32891,0.0699 0.46863,0 0.1976,-0.0988 0.39878,-0.25906 0.46864,-0.46864 0.0988,-0.29639 0,-0.62485 0,-0.93727 0,-0.78106 0,-1.56212 0,-2.34319 0,-0.46863 0.14819,-0.96132 0,-1.40591 -0.0699,-0.20958 -0.39878,-0.25905 -0.46864,-0.46863 -0.37574,-1.12723 0.50991,-1.03846 -0.46863,-2.343191 -0.26511,-0.353467 -0.69219,-0.569642 -0.93728,-0.937273 -0.0867,-0.129976 0.0699,-0.328917 0,-0.468635 -0.12515,-0.250293 -1.15919,-1.159193 -1.40591,-1.405911 -0.15621,-0.156213 -0.31242,-0.312426 -0.46864,-0.468638 -0.15621,-0.156213 -0.27104,-0.36984 -0.46863,-0.468638 -0.26289,-0.13144 -1.68023,0.129548 -1.87455,0 -0.36763,-0.245086 -0.56965,-0.692187 -0.93728,-0.937273 -0.12997,-0.08665 -0.32044,0.0494 -0.46863,0 -0.33138,-0.110459 -0.63775,-0.288923 -0.93728,-0.468638 -0.48296,-0.28978 -0.88296,-0.728094 -1.40591,-0.937274 -0.29008,-0.11603 -0.64088,0.0988 -0.93727,0 -0.20958,-0.06986 -0.25906,-0.398777 -0.46864,-0.468635 -0.29639,-0.0988 -0.62485,0 -0.93727,0 -0.15622,0 -0.33866,0.08665 -0.46864,0 -0.36763,-0.245086 -0.5838,-0.672174 -0.93727,-0.937276 -1.45298,-1.089734 -0.41983,-0.222115 -1.40592,-0.468635 -0.47923,-0.119811 -0.96407,-0.247721 -1.4059,-0.468638 -0.1976,-0.0988 -0.25906,-0.398777 -0.46864,-0.468638 -0.29639,-0.09879 -0.65784,0.139721 -0.93728,0 -0.39519,-0.197593 -0.56964,-0.692187 -0.93727,-0.937273 -0.12998,-0.08665 -0.32892,0.06986 -0.46864,0 -0.19759,-0.0988 -0.25905,-0.398777 -0.46863,-0.468638 -0.2964,-0.09879 -0.65784,0.139721 -0.93728,0 -0.39519,-0.197593 -0.56964,-0.692187 -0.93727,-0.937273 -0.25995,-0.173302 -0.64089,0.0988 -0.93728,0 -0.33137,-0.110458 -0.5984,-0.383919 -0.93727,-0.468638 -0.3031,-0.07577 -0.62485,0 -0.93727,0 -0.15622,0 -0.32892,0.06986 -0.46864,0 -0.50377,-0.251883 -0.88296,-0.728094 -1.40591,-0.937273 -0.29008,-0.116031 -0.62485,0 -0.93728,0 -0.31242,0 -0.65783,-0.139721 -0.93727,0 -0.13973,0.06986 0.11046,0.358179 0,0.468638 -0.11046,0.110458 -0.31242,0 -0.46863,0 -0.62487,0 -1.24971,0 -1.87455,0 z"
         style="fill:#ffffff;fill-rule:evenodd;stroke:#000000;stroke-width:0.26458332px;stroke-linecap:butt;stroke-linejoin:miter;stroke-opacity:1" />
      <path
         inkscape:connector-curvature="0"
         id="path955"
         d="m -290.28572,60.562938 c 3.14809,0 6.29616,0 9.44425,0 0.66275,0 1.32548,0 1.98823,0 0.11444,0 0.61238,-0.02519 0.66276,0 0.0699,0.03493 0.0958,0.130758 0.16571,0.165688 0.0474,0.02371 0.73991,0 0.82844,0 0.11043,0 0.22658,-0.03493 0.33136,0 0.11716,0.03905 0.21423,0.126635 0.33139,0.165687 0.0524,0.01746 0.11044,0 0.16568,0 0.13875,0 0.70244,-0.0315 0.82844,0 0.1153,0.02883 0.42489,0.187013 0.49707,0.331378 0.0246,0.0494 -0.0494,0.140988 0,0.165687 0.13253,0.06627 0.36452,-0.06628 0.49705,0 0.0699,0.03493 0.0958,0.13076 0.16571,0.16569 0.0494,0.02471 0.11043,0 0.16568,0 0.11046,0 0.22659,-0.03493 0.33136,0 0.0741,0.02471 0.0958,0.130757 0.16571,0.165687 0.0494,0.02471 0.11629,-0.02468 0.16568,0 0.0698,0.03493 0.11047,0.110459 0.16569,0.165688 0.0552,0.05523 0.11046,0.110458 0.16568,0.16569 0.23302,0.23301 0.28805,0.309713 0.66275,0.497062 0.33414,0.167076 0.53891,0.114215 0.82844,0.331377 0.12499,0.09373 0.20939,0.233791 0.33139,0.331378 0.1555,0.124396 0.33774,0.211896 0.49705,0.331374 0.0625,0.04687 0.1007,0.122365 0.1657,0.16569 0.087,0.058 0.44278,0.168564 0.49705,0.331375 0.035,0.104791 -0.0349,0.226587 0,0.331378 0.0494,0.148195 0.26151,0.191656 0.33139,0.331374 0.0251,0.05038 0,0.548344 0,0.662755 0,0.09248 0.0254,0.752594 0,0.82844 -0.0246,0.0741 -0.11046,0.110458 -0.16568,0.16569 -0.0553,0.05523 -0.1007,0.122361 -0.16571,0.165687 -0.10274,0.0685 -0.2209,0.110458 -0.33136,0.165687 -0.27043,0.135216 -0.52134,0.280191 -0.82844,0.331378 -0.16343,0.02724 -0.33139,0 -0.49707,0 -0.11047,0 -0.23257,-0.0494 -0.33137,0 -0.13972,0.06986 -0.2014,0.244723 -0.33139,0.331374 -0.046,0.03064 -0.11046,0 -0.16568,0 -0.0552,0 -0.11046,0 -0.16568,0 -0.33139,0 -0.66276,0 -0.99415,0 -0.11046,0 -0.2209,0 -0.33136,0 -0.0553,0 -0.1133,-0.01746 -0.16568,0 -0.11716,0.03906 -0.21029,0.141471 -0.33139,0.16569 -0.16246,0.03249 -0.33137,0 -0.49708,0 -0.0552,0 -0.11628,-0.02469 -0.16568,0 -0.17809,0.08905 -0.31218,0.257419 -0.49705,0.331375 -0.10257,0.04102 -0.22092,0 -0.33139,0 -0.27614,0 -0.55229,0 -0.82843,0 -0.19,0 -0.49112,-0.04291 -0.66276,0 -0.1198,0.02995 -0.2142,0.126635 -0.33136,0.16569 -0.0977,0.03258 -0.82563,-5.29e-4 -0.82847,0 -0.16568,0.05523 -0.33136,0.110459 -0.49704,0.165688 -0.0553,0.05523 -0.0916,0.140988 -0.16571,0.165687 -0.10477,0.03493 -0.2209,0 -0.33136,0 -0.33137,0 -0.66276,0 -0.99412,0 -0.49708,0 -0.99415,0 -1.49119,0 -0.14359,0 -0.56679,0.03199 -0.66276,0 -0.11716,-0.03905 -0.21672,-0.119822 -0.33139,-0.165687 -0.16216,-0.06486 -0.34084,-0.08758 -0.49707,-0.165688 -0.0699,-0.03493 -0.0958,-0.130759 -0.16568,-0.16569 -0.0988,-0.0494 -0.25326,0.07811 -0.33137,0 -0.0391,-0.03905 0.039,-0.126635 0,-0.165687 -0.0391,-0.03905 -0.11975,0.03064 -0.16568,0 -0.11046,-0.110458 -0.22093,-0.220917 -0.33139,-0.331378 -0.0552,0 -0.11629,0.02471 -0.16568,0 -0.10737,-0.05368 -0.85487,-0.854874 -0.99415,-0.994126 -0.27614,-0.276149 -0.55229,-0.552294 -0.82844,-0.828443 -0.11046,-0.110458 -0.24471,-0.2014 -0.33136,-0.331377 -0.0306,-0.04595 0,-0.110458 0,-0.165687 -0.0553,-0.110459 -0.0784,-0.244052 -0.16568,-0.331378 -0.0873,-0.08732 -0.24405,-0.07836 -0.33139,-0.165687 -0.0391,-0.03905 0.0175,-0.113292 0,-0.165687 -0.0391,-0.117161 -0.0916,-0.23258 -0.16568,-0.331378 -0.0937,-0.124968 -0.22093,-0.220916 -0.3314,-0.331375 -0.0552,-0.05523 -0.13075,-0.09583 -0.16568,-0.16569 -0.0246,-0.0494 0,-0.110458 0,-0.165687 0,-0.110458 0.0349,-0.226587 0,-0.331377 -0.0374,-0.112194 -0.43378,-0.370496 -0.49704,-0.497065 -0.0246,-0.0494 0.0246,-0.11629 0,-0.165688 -0.0159,-0.03171 -0.63106,-0.646895 -0.66276,-0.662752 -0.0494,-0.02468 -0.12665,0.03905 -0.16571,0 -0.039,-0.03905 0.0246,-0.116289 0,-0.165687 -0.0349,-0.06986 -0.12234,-0.1007 -0.16568,-0.16569 -0.17862,-0.267952 -0.33136,-0.552294 -0.49707,-0.82844 z"
         style="fill:#ffffff;fill-rule:evenodd;stroke:none;stroke-width:0.26458332px;stroke-linecap:butt;stroke-linejoin:miter;stroke-opacity:1" />
      <path
         inkscape:connector-curvature="0"
         id="path957"
         d="m -138.71654,187.33894 c -1.2497,0 -2.51196,0.17673 -3.7491,0 -0.97804,-0.13973 -1.83729,-0.77486 -2.81182,-0.93728 -1.2327,-0.20545 -2.4994,0 -3.7491,0 -4.06152,0 -8.12304,0 -12.18456,0 -4.37394,0 -8.74789,0 -13.12183,0 -0.64721,0 -3.46413,-0.14248 -3.7491,0 -0.39519,0.1976 -0.54209,0.73968 -0.93727,0.93728 -0.27944,0.13972 -0.64089,-0.0988 -0.93728,0 -0.66275,0.22091 -1.21179,0.71635 -1.87454,0.93727 -0.99596,0.33198 -2.75314,-0.33199 -3.7491,0 -0.42787,0.14262 -2.38971,2.38971 -2.81182,2.81182 -1.2497,1.2497 -2.4994,2.4994 -3.7491,3.7491 -0.31242,0.31242 -0.73968,0.54208 -0.93727,0.93727 -0.20853,0.41706 0.1429,3.3204 0,3.7491 -0.27944,0.83832 -1.47936,1.08416 -1.87455,1.87454 -0.1315,0.26301 -0.1315,3.4861 0,3.7491 0.19759,0.39519 0.58381,0.67217 0.93727,0.93727 0.93728,0.62485 1.87455,1.2497 2.81183,1.87455 0.31242,0 0.65783,-0.13972 0.93727,0 0.39519,0.1976 0.51811,0.79755 0.93727,0.93728 0.59279,0.19759 1.31567,-0.27944 1.87455,0 0.79038,0.39518 1.13929,1.38437 1.87455,1.87454 0.25995,0.17331 0.65783,-0.13972 0.93727,0 0.39519,0.1976 0.51812,0.79756 0.93728,0.93728 0.42905,0.14301 4.16322,0 4.68637,0 3.74909,0 7.49819,0 11.24728,0 4.9988,0 9.99759,0 14.99639,0 2.49939,0 4.99879,0 7.49819,0 0.93727,0 1.92265,0.29639 2.81182,0 0.41916,-0.13972 0.54208,-0.73968 0.93727,-0.93728 0.27945,-0.13972 0.62485,0 0.93728,0 0.62485,0 1.28176,0.1976 1.87455,0 0.41916,-0.13972 0.56964,-0.69219 0.93727,-0.93727 0.58127,-0.38752 1.29327,-0.54976 1.87455,-0.93727 0.73526,-0.49018 1.08417,-1.47936 1.87455,-1.87455 0.27944,-0.13972 0.65783,0.13972 0.93727,0 2.52945,-1.26473 -0.0324,-0.42011 0.93727,-1.87455 4.67067,-4.67067 0.96408,-0.0804 1.87455,-2.81182 0.22092,-0.66275 0.71636,-1.2118 0.93728,-1.87455 0.20663,-0.61991 0,-4.7029 0,-5.62364 0,-0.62485 0.27944,-1.31567 0,-1.87455 -0.13973,-0.27944 -0.62486,0 -0.93728,0 -0.62485,0 -1.2497,0 -1.87455,0 -0.62484,0 -1.28176,0.19759 -1.87454,0 -0.41917,-0.13972 -0.62485,-0.62485 -0.93728,-0.93728 -0.31242,-0.31242 -1.2497,-0.62484 -0.93727,-0.93727 0.31242,-0.31242 1.2497,1.2497 0.93727,0.93727 -2.67108,-2.67107 -1.38437,-1.13929 -3.74909,-4.68636 z"
         style="fill:#e6e6e6;fill-rule:evenodd;stroke:#000000;stroke-width:0.26458332px;stroke-linecap:butt;stroke-linejoin:miter;stroke-opacity:1" />
      <g
         transform="translate(-343.97954,-25.306397)"
         id="g935">
        <path
           inkscape:connector-curvature="0"
           id="path945"
           d="m 79.044266,254.92687 c -5.667032,-2.02507 -11.557669,-8.06329 -13.508474,-13.84692 -2.510064,-7.44169 -4.808463,-28.16562 -3.788114,-34.15624 0.471207,-2.76651 0.285827,-5.13183 -0.432853,-5.52289 -0.691371,-0.37619 -7.475567,-0.16523 -15.075993,0.46881 -12.472445,1.04046 -14.272996,0.9492 -18.478685,-0.93662 -7.108502,-3.18744 -9.02922,-7.8315 -10.710081,-25.89564 -1.732908,-18.62349 -1.016728,-22.97726 4.679958,-28.45017 l 4.261438,-4.09405 25.561853,-1.20619 c 22.148738,-1.04513 26.028687,-1.50681 29.058118,-3.45763 1.922946,-1.2383 3.514452,-2.88837 3.53668,-3.66682 0.04913,-1.72051 -0.0099,-1.72193 -7.015497,-0.16882 -7.945915,1.76157 -13.96762,-0.1781 -18.253063,-5.87955 -2.644444,-3.51823 -3.184255,-5.33698 -2.641486,-8.89977 1.380932,-9.0646 10.3201,-15.18284 18.286821,-12.51606 3.512522,1.17578 3.554905,1.1387 2.74974,-2.40576 -1.420811,-6.25465 -2.441694,-6.645941 -17.3573,-6.652832 -16.384958,-0.0076 -22.89864,-1.350603 -24.851415,-5.124025 -2.09276,-4.043925 0.382994,-5.852203 9.253384,-6.758625 8.553859,-0.874075 16.327611,0.788 16.96138,3.626448 0.275523,1.233976 1.916851,1.836139 5.22522,1.917003 5.43609,0.132869 5.770147,-0.154322 2.573383,-2.21236 -1.236725,-0.796189 -1.768647,-1.871426 -1.182048,-2.389415 0.586597,-0.517989 13.607101,-1.196564 28.93445,-1.507945 l 27.867908,-0.566147 1.07952,-11.322939 c 1.9836,-20.805811 6.54637,-28.974434 18.41309,-32.964502 5.01696,-1.686904 6.71344,-1.77458 11.68495,-0.603891 14.12576,3.326329 20.73189,12.918693 23.47378,34.084809 1.34624,10.392374 2.32299,12.026914 7.8224,13.090363 2.07902,0.402032 4.35187,1.671702 5.05078,2.821492 1.51748,2.49642 0.40269,5.651461 -1.99687,5.651461 -4.15855,0 -2.71203,2.447317 3.56148,6.025555 16.20056,9.24036 20.94924,19.94012 12.57603,28.33642 -2.12201,2.12785 -3.8582,4.18371 -3.8582,4.56858 0,0.38485 3.3277,0.70164 7.39488,0.70397 8.88407,0.005 13.75481,2.29095 19.74441,9.26616 2.30629,2.6858 11.46698,10.3491 20.3571,17.02955 l 16.16385,12.14628 18.00492,-0.68604 c 17.02816,-0.64882 18.26498,-0.55002 22.79894,1.82125 8.75954,4.58125 17.71212,18.54154 17.71212,27.61953 0,1.86399 0.87631,4.24163 1.94736,5.28362 1.07106,1.04198 2.83102,4.88143 3.91103,8.5321 1.84883,6.24942 1.8223,6.806 -0.45371,9.51757 -3.71255,4.42305 -11.69533,7.79455 -30.02071,12.67911 -13.76946,3.67021 -24.20449,5.36468 -58.40722,9.4843 -38.2853,4.61136 -44.16027,5.04037 -72.87093,5.32139 -23.67319,0.23171 -31.93139,-0.0478 -34.13429,-1.15534 -2.41778,-1.21557 -6.30656,-1.07005 -23.14918,0.86629 -11.13378,1.28001 -22.268785,2.55381 -24.744461,2.83066 -2.475676,0.27686 -5.948053,-0.0136 -7.716393,-0.64553 z m 75.521284,-23.29122 c 5.29717,-0.85019 6.65218,-4.14263 3.3214,-8.07042 -4.08621,-4.81865 -5.99713,-5.36683 -11.17189,-3.20485 -5.09732,2.12962 -5.28043,2.6357 -3.26534,9.02501 1.17865,3.73722 1.7716,4.25391 4.17253,3.63588 1.53926,-0.39622 4.66374,-1.01974 6.9433,-1.38562 z m 4.70516,-74.46864 c 1.8523,-2.13811 3.36781,-4.63735 3.36781,-5.55388 0,-0.91651 -2.4596,-2.94284 -5.46578,-4.50295 -3.00617,-1.5601 -6.5312,-4.60281 -7.83341,-6.76157 -2.02541,-3.3577 -3.21314,-4.02705 -8.2174,-4.63095 -11.10312,-1.33989 -11.92111,-1.13124 -11.92111,3.04069 0,2.06064 0.84969,4.73568 1.8882,5.94454 1.0385,1.20886 1.9066,3.08961 1.92909,4.17944 0.0225,1.08984 0.56247,1.98152 1.19994,1.98152 0.63747,0 2.33909,1.76091 3.78139,3.91313 1.69935,2.53581 4.12052,4.29328 6.87886,4.9932 8.06119,2.04549 10.7933,1.55133 14.39241,-2.60317 z m -58.37572,-31.77978 c -0.19434,-1.48433 -20.395897,-7.38407 -21.227524,-6.19936 -0.920577,1.31143 7.100447,5.41216 12.995324,6.64383 5.947883,1.24275 8.43552,1.10844 8.2322,-0.44447 z m 55.68346,-12.35161 c 4.79921,-4.89425 7.03285,-6.27688 11.12318,-6.88531 6.25002,-0.92968 7.30909,-3.1217 5.2173,-10.798642 l -1.5149,-5.559777 -5.53648,0.668125 c -4.32452,0.521869 -6.65985,0.112245 -10.66829,-1.871251 -2.82249,-1.396658 -5.87378,-2.321621 -6.78065,-2.055476 -1.60268,0.470351 -8.8508,18.867221 -8.90316,22.597611 -0.0144,1.02321 -0.8942,2.15366 -1.95521,2.51213 -1.061,0.35846 -1.92909,1.11365 -1.92909,1.6782 0,0.99002 10.79821,5.55961 13.57991,5.74674 0.74927,0.0504 4.0646,-2.66415 7.36739,-6.03235 z m -49.16415,-3.21347 c 1.81047,-2.95594 4.95707,-6.90481 6.99246,-8.77527 l 3.70069,-3.400847 h -14.38733 c -7.913031,0 -14.38733,0.318433 -14.38733,0.707631 0,1.121717 6.760897,14.422076 8.157765,16.048346 2.43611,2.83618 6.542175,0.94121 9.923745,-4.57986 z m 38.11054,-45.840312 c -0.32607,-1.101686 -0.61431,-0.474468 -0.64052,1.393817 -0.0262,1.868285 0.24057,2.769664 0.59287,2.003064 0.35228,-0.7666 0.37371,-2.295197 0.0476,-3.396881 z m 7.86719,-5.533924 c -1.1447,-1.007831 -2.71554,-1.487292 -3.49075,-1.065469 -2.55372,1.389572 -1.47044,2.897887 2.08128,2.897887 3.21632,0 3.32712,-0.144056 1.40947,-1.832418 z"
           style="fill:#9f9e9f;stroke-width:1.20673287" />
        <path
           inkscape:connector-curvature="0"
           id="path943"
           d="m 75.151091,251.04914 c -2.416087,-1.5694 -4.916889,-3.67784 -5.557337,-4.68542 -3.081129,-4.84738 -4.94601,-14.89681 -5.611288,-30.238 l -0.729816,-16.82944 -17.151316,0.80878 -17.151315,0.80877 -3.794773,-3.34103 c -4.216666,-3.71249 -4.677865,-5.46916 -6.168927,-23.49693 -1.435784,-17.35941 -0.560671,-22.75541 4.31209,-26.58865 3.794896,-2.98531 4.46208,-3.08841 24.999658,-3.86297 11.605389,-0.43768 23.18175,-1.27922 25.725246,-1.87007 6.478433,-1.50494 15.713436,-7.57929 14.77978,-9.72144 -0.528464,-1.2125 -0.09874,-1.53242 1.502338,-1.11845 8.110087,2.09691 11.678449,2.02874 13.063349,-0.24957 1.98664,-3.26822 1.72864,-7.04091 -0.639,-9.34432 -1.87092,-1.82015 -1.81499,-2.0846 0.69049,-3.26517 1.49946,-0.70653 4.08569,-3.9909 5.74716,-7.2986 1.73249,-3.44906 5.00322,-7.40659 7.6689,-9.27922 8.33126,-5.852703 6.92095,-6.433057 -14.34056,-5.901274 -10.443754,0.261214 -19.665339,0.843148 -20.492405,1.293186 -1.099805,0.598444 -0.662807,2.995113 1.626769,8.921858 3.657054,9.46658 3.722548,9.97156 1.293289,9.97156 -2.988744,0 -6.044191,-3.4199 -5.184957,-5.80341 0.958161,-2.65794 -2.932179,-13.40377 -5.120229,-14.143011 -0.908329,-0.306882 -1.515913,-2.329015 -1.421658,-4.731501 L 73.36118,86.88924 98.994221,86.581392 c 14.098169,-0.169318 26.114239,-0.731513 26.702379,-1.249324 0.58813,-0.517812 1.60248,-7.125519 2.25412,-14.683794 1.63333,-18.944983 5.48519,-25.323485 17.46215,-28.916496 4.23635,-1.270878 6.70561,-1.393836 10.32441,-0.51411 13.16375,3.2001 19.37927,12.829987 21.69,33.605008 1.15297,10.365908 2.14591,11.991941 8.31691,13.619751 6.01489,1.586634 6.77172,4.675619 1.41817,5.78831 -5.23795,1.088665 -4.35386,2.872201 3.5539,7.169543 4.16756,2.2648 9.68275,6.16956 12.25596,8.67725 4.09118,3.98699 4.67859,5.28388 4.67859,10.3295 0,4.98378 -0.53948,6.21376 -3.95885,9.02602 -6.46252,5.31508 -4.85253,7.17609 6.78539,7.84327 8.71766,0.49977 10.33539,0.95459 13.7982,3.87932 2.15749,1.82224 4.22782,4.15954 4.60073,5.19398 0.84234,2.33663 35.00647,27.68853 38.69706,28.71561 1.48094,0.41213 9.5166,0.22264 17.85701,-0.42109 14.93607,-1.15281 15.24563,-1.12854 20.55753,1.61224 8.73627,4.50764 16.12276,16.28325 16.12276,25.70306 0,2.41275 -0.33287,4.38681 -0.73971,4.38681 -0.40683,0 -4.63629,-2.03813 -9.39878,-4.52917 -13.12267,-6.86389 -16.26242,-5.82243 -5.4147,1.79606 8.97205,6.30118 10.63097,9.16418 9.63465,16.62764 l -0.81714,6.1213 -10.45736,1.28967 c -62.99452,7.76889 -138.39132,15.19901 -142.1271,14.0062 -1.37726,-0.43975 -1.6118,-2.3036 -1.04237,-8.28358 l 0.73474,-7.71615 -5.65011,-6.75744 c -3.10757,-3.7166 -6.7944,-7.29663 -8.19297,-7.95563 -3.12167,-1.4709 -15.5271,0.75421 -16.4873,2.95727 -0.34758,0.79748 1.73975,4.57697 4.63851,8.39886 4.47529,5.90049 5.2675,7.82633 5.25078,12.76442 -0.0103,3.19854 -0.45606,6.41971 -0.9894,7.15818 -0.53336,0.73846 -3.85218,1.50276 -7.37519,1.69844 -6.3193,0.35099 -6.36221,0.37863 -3.19031,2.05422 2.66497,1.40779 9.04723,1.67019 37.2959,1.53333 33.19177,-0.16081 35.1872,-0.30342 76.49963,-5.46764 39.25321,-4.90681 43.58953,-5.67614 58.1048,-10.30861 16.3152,-5.20691 18.43736,-5.66875 18.43736,-4.01242 0,2.02643 -3.62604,3.44626 -20.57704,8.05718 -24.90071,6.77337 -85.93055,14.12212 -126.67745,15.25356 -20.43504,0.56742 -29.90084,0.40914 -34.08074,-0.5699 -7.92038,-1.85515 -9.36595,-1.81186 -32.79467,0.98222 -25.75117,3.07104 -26.2164,3.06521 -31.543579,-0.39512 z m -3.823218,-25.92743 c 0,-7.64349 -0.800703,-10.8494 -2.709726,-10.8494 -1.286474,0 -1.538737,11.62385 -0.337881,15.56904 1.490911,4.89812 3.047607,2.48737 3.047607,-4.71964 z m 117.205067,-0.24276 c 7.61519,-1.99107 7.16684,-4.31006 -0.62661,-3.24102 -9.03861,1.23984 -20.12355,4.19748 -20.12355,5.36929 0,1.39108 11.99538,0.16075 20.75016,-2.12827 z m -84.00346,-12.58816 c -0.47485,-3.63347 -4.804474,-4.82017 -7.428791,-2.03615 -2.210625,2.34516 0.345099,5.14996 4.692621,5.14996 2.67012,0 3.08187,-0.46857 2.73617,-3.11381 z m -2.33604,-26.32583 c 0,-0.62276 -1.41266,-1.13229 -3.13926,-1.13229 -1.726595,0 -3.496938,0.50953 -3.934096,1.13229 -0.463723,0.6606 0.844022,1.13229 3.139264,1.13229 2.163752,0 3.934092,-0.50953 3.934092,-1.13229 z M 51.393858,163.88523 c 0,-2.99099 -0.444262,-3.39688 -3.718033,-3.39688 -4.677619,0 -7.162038,2.98742 -4.676897,5.62381 1.001749,1.0627 3.160154,1.7057 5.069685,1.51027 2.751443,-0.2816 3.325245,-0.92649 3.325245,-3.7372 z m 118.318022,-0.6885 c 18.848,-2.03268 21.76834,-4.65044 15.65318,-14.03132 -2.09778,-3.21807 -3.67388,-4.42577 -5.44462,-4.17194 -1.37069,0.19648 -6.25391,0.44492 -10.85159,0.5521 -9.55301,0.22267 -13.72433,-1.56979 -17.79748,-7.64784 -2.34628,-3.50117 -3.09442,-3.78904 -12.60396,-4.84962 -5.56029,-0.62014 -10.54367,-0.91146 -11.07417,-0.64741 -1.51372,0.75344 -1.1285,11.49103 0.59382,16.55228 2.89443,8.5056 13.92848,15.18519 25.449,15.40582 2.47568,0.0474 9.7098,-0.47552 16.07582,-1.16207 z m 25.07828,-20.96372 c 0,-6.56823 -0.89135,-7.33634 -4.47152,-3.8533 -1.26392,1.22962 -3.37592,2.53688 -4.69334,2.90502 -2.18295,0.61 -2.0357,1.06334 1.6607,5.11306 5.21792,5.71663 7.50416,4.44777 7.50416,-4.16478 z m -14.05701,-7.06645 c -1.46401,-2.52658 -2.66184,-4.85362 -2.66184,-5.17118 0,-0.31758 2.17023,-0.46525 4.82274,-0.32819 4.38757,0.22673 4.85947,-0.0317 5.22968,-2.86459 0.46314,-3.5438 0.53623,-3.53008 -8.12332,-1.52481 -4.19411,0.97122 -6.58276,2.17091 -6.86864,3.44973 -0.24107,1.07839 -1.54321,2.93348 -2.89364,4.12245 -3.41723,3.00864 -3.23174,6.69094 0.33704,6.69094 1.5358,0 3.91956,-0.89168 5.29725,-1.98152 2.3996,-1.89823 2.58707,-1.87316 4.46078,0.59656 3.07575,4.05415 3.33941,2.0835 0.39995,-2.98939 z m -15.45863,-5.27923 c 4.85105,-2.20863 4.78955,-3.40696 -0.25426,-4.95501 -4.85579,-1.49034 -7.526,-0.0745 -7.526,3.99043 0,3.16605 2.31466,3.45301 7.78026,0.96458 z m 13.45936,-9.62867 c 2.35487,-4.00935 1.63289,-5.62822 -2.5101,-5.62822 -3.98716,0 -5.7877,2.15712 -4.96188,5.94454 0.92768,4.25463 4.88565,4.08708 7.47198,-0.31632 z m -21.68772,-4.45576 c 7.20167,-5.79494 12.97824,-7.94895 21.34666,-7.95991 3.5904,-0.005 4.82275,-0.47623 4.82275,-1.84531 0,-1.58082 -8.42926,-19.315909 -9.86095,-20.74736 -0.27869,-0.278645 -2.1697,0.358271 -4.20225,1.415368 -4.88367,2.539921 -10.13727,2.418908 -14.87327,-0.342595 -7.24878,-4.22667 -8.60313,-3.37218 -12.68686,8.004462 -2.02641,5.645278 -5.0273,12.487825 -6.66864,15.205665 -2.28087,3.77681 -2.61843,5.20883 -1.43216,6.07563 1.54181,1.12659 13.34702,5.47787 15.46307,5.69953 0.60817,0.0637 4.24941,-2.41376 8.09165,-5.50548 z M 148.9647,68.090985 c -1.37448,-7.567789 4.08947,-8.329763 7.62558,-1.063423 l 1.40021,2.877269 0.49368,-3.235523 c 0.5464,-3.58105 -1.58523,-9.003848 -4.32674,-11.00705 -4.29786,-3.140428 -12.09596,2.686075 -12.09596,9.037743 0,3.781544 2.8407,8.035565 5.36589,8.035565 2.0673,0 2.26979,-0.611764 1.53734,-4.644581 z m 22.26874,2.167688 c -0.41054,-0.903268 -0.71529,-0.634963 -0.77699,0.684094 -0.0558,1.193626 0.24811,1.862387 0.67547,1.486136 0.42734,-0.376252 0.47302,-1.352856 0.10147,-2.17023 z m -5.90828,-6.864532 c 2.41489,-2.505101 2.48815,-2.510944 4.38586,-0.349732 1.42135,1.618696 1.92996,1.759691 1.92996,0.535016 0,-2.424599 -3.70939,-6.695974 -5.81497,-6.695974 -2.16527,0 -4.47355,3.467069 -4.47355,6.719325 0,2.999993 0.92654,2.951333 3.9727,-0.208635 z M 66.588355,131.11555 c -5.305436,-2.06487 -8.612187,-7.59793 -7.54211,-12.61991 1.122311,-5.26713 2.773364,-5.70048 6.572666,-1.72514 1.797556,1.88084 6.730912,5.41167 10.963014,7.8463 l 7.69473,4.42659 -3.580743,1.24673 c -6.433632,2.24007 -9.944951,2.44551 -14.107557,0.82543 z M 39.497753,94.213866 c -3.111898,-1.101271 -4.011106,-5.391901 -1.286066,-6.136547 0.88417,-0.241609 4.651538,-0.753356 8.371929,-1.137217 6.053288,-0.624562 7.101007,-0.401522 9.967007,2.121798 5.602087,4.93226 4.377149,6.329255 -5.478281,6.247773 -4.774518,-0.03947 -9.983083,-0.532588 -11.574589,-1.095807 z"
           style="fill:#c79c24;stroke-width:1.20673287" />
        <path
           inkscape:connector-curvature="0"
           id="path941"
           d="m 75.151091,251.04914 c -2.416087,-1.5694 -4.916889,-3.67784 -5.557337,-4.68542 -3.081129,-4.84738 -4.94601,-14.89681 -5.611288,-30.238 l -0.729816,-16.82944 -17.151316,0.80878 -17.151315,0.80877 -3.794773,-3.34103 c -4.216666,-3.71249 -4.677865,-5.46916 -6.168927,-23.49693 -1.436382,-17.36665 -0.56137,-22.75486 4.318662,-26.59382 3.803146,-2.99181 4.460155,-3.09343 25.06436,-3.87655 11.637362,-0.44232 23.368913,-1.24306 26.070115,-1.77944 5.828834,-1.15742 14.327568,-6.93689 14.06441,-9.56433 -0.122394,-1.22206 0.53649,-1.67011 1.929099,-1.3118 8.00821,2.06048 11.557515,1.98223 12.935815,-0.28521 1.98664,-3.26822 1.72864,-7.04091 -0.639,-9.34432 -1.87092,-1.82015 -1.81499,-2.0846 0.69049,-3.26517 1.49946,-0.70653 4.08569,-3.9909 5.74716,-7.2986 1.73249,-3.44906 5.00322,-7.40659 7.6689,-9.27922 8.33126,-5.852703 6.92095,-6.433057 -14.34056,-5.901274 -10.443754,0.261214 -19.665339,0.843148 -20.492405,1.293186 -1.099805,0.598444 -0.662807,2.995113 1.626769,8.921858 3.657054,9.46658 3.722548,9.97156 1.293289,9.97156 -2.988744,0 -6.044191,-3.4199 -5.184957,-5.80341 0.953979,-2.64634 -2.927951,-13.402342 -5.102119,-14.136893 -0.862482,-0.291393 -1.525675,-2.291685 -1.473761,-4.445095 l 0.09438,-3.91529 25.242321,-0.0033 c 20.259303,-0.0027 25.542173,-0.321436 26.761283,-1.614741 0.83544,-0.886274 2.04906,-7.759896 2.69695,-15.274715 1.62592,-18.859016 5.49385,-25.249114 17.45534,-28.837485 4.23635,-1.270878 6.70561,-1.393836 10.32441,-0.51411 13.16375,3.2001 19.37927,12.829987 21.69,33.605007 1.17287,10.544781 2.25179,12.316797 8.38453,13.770724 5.96263,1.413593 6.70776,4.523884 1.35055,5.637338 -5.23795,1.088664 -4.35386,2.872201 3.5539,7.16954 4.16756,2.26479 9.68275,6.16956 12.25596,8.67725 4.09118,3.98699 4.67859,5.28388 4.67859,10.3295 0,4.98378 -0.53948,6.21376 -3.95885,9.02601 -6.46252,5.31509 -4.85253,7.1761 6.78539,7.84328 8.71766,0.49977 10.33539,0.95459 13.7982,3.87932 2.15749,1.82224 4.24157,4.19766 4.63128,5.27871 0.83167,2.30705 31.49018,25.55948 36.74146,27.86593 2.95073,1.29601 6.3945,1.36371 19.27587,0.37896 15.50246,-1.18515 15.74544,-1.16692 21.07007,1.58042 8.73016,4.50443 16.11641,16.28279 16.11641,25.69973 0,2.41275 -0.33287,4.38681 -0.73971,4.38681 -0.40683,0 -4.63629,-2.03813 -9.39878,-4.52917 -8.53131,-4.46235 -11.72462,-5.43914 -11.72462,-3.58639 0,0.51853 2.29256,2.56485 5.09459,4.54739 2.80203,1.98253 6.57731,5.31612 8.38953,7.40798 2.93257,3.38508 3.20413,4.48376 2.46913,9.9897 l -0.82582,6.18632 -10.45736,1.28979 c -31.03287,3.8275 -102.70591,11.53876 -117.2008,12.60956 -9.19537,0.6793 -18.19293,1.44539 -19.99459,1.70241 -5.54669,0.79128 -6.7598,-0.69691 -5.76409,-7.07101 l 0.89038,-5.69981 7.93292,-0.76007 c 9.09224,-0.87116 21.58688,-3.21234 27.2239,-5.10109 3.27676,-1.09792 3.5356,-1.45169 1.71757,-2.34748 -2.48489,-1.22437 -18.52377,0.48644 -27.80319,2.96567 -3.33632,0.89137 -6.71989,1.6262 -7.51908,1.63295 -0.79918,0.007 -3.85468,-2.78833 -6.79,-6.21127 -7.75294,-9.0409 -9.78856,-9.97534 -18.06607,-8.29311 -3.71805,0.75561 -7.03946,2.0148 -7.38091,2.7982 -0.34144,0.7834 1.42069,4.37744 3.91584,7.98676 4.58623,6.63412 6.94716,15.12265 5.39988,19.4148 -0.67765,1.87979 -2.10293,2.38373 -7.52186,2.65949 -6.56871,0.33427 -6.62948,0.36996 -3.47062,2.03867 2.66497,1.40779 9.04723,1.67019 37.2959,1.53333 33.19177,-0.16081 35.1872,-0.30342 76.49963,-5.46764 39.25321,-4.90681 43.58953,-5.67614 58.1048,-10.30861 16.3152,-5.20691 18.43736,-5.66875 18.43736,-4.01242 0,2.02643 -3.62604,3.44626 -20.57704,8.05718 -24.90071,6.77337 -85.93055,14.12212 -126.67745,15.25356 -20.43504,0.56742 -29.90084,0.40914 -34.08074,-0.5699 -7.92038,-1.85515 -9.36595,-1.81186 -32.79467,0.98222 -25.751165,3.07104 -26.216395,3.06521 -31.543574,-0.39512 z m -3.823218,-25.92743 c 0,-7.64349 -0.800703,-10.8494 -2.709726,-10.8494 -1.286474,0 -1.538737,11.62385 -0.337881,15.56904 1.490911,4.89812 3.047607,2.48737 3.047607,-4.71964 z m 33.201607,-12.83092 c -0.47485,-3.63347 -4.804474,-4.82017 -7.428791,-2.03615 -2.210625,2.34516 0.345099,5.14996 4.692621,5.14996 2.67012,0 3.08187,-0.46857 2.73617,-3.11381 z m -1.75023,-26.2443 c 0.40569,-0.57794 -0.34672,-1.35379 -1.67202,-1.72413 -2.754038,-0.76958 -6.630178,0.26154 -6.630178,1.76374 0,1.34144 7.357388,1.30633 8.302198,-0.0396 z m 48.92771,-11.80115 c 6.36603,-0.81859 14.32356,-1.26768 17.68341,-0.99797 4.85771,0.38996 6.10881,0.13717 6.10881,-1.23425 0,-0.99493 -2.04059,-2.30334 -4.82275,-3.09232 -10.85291,-3.07774 -10.50012,-5.07504 1.06358,-6.02128 16.28701,-1.33272 19.55912,-4.63102 13.62505,-13.73411 -2.09778,-3.21807 -3.67388,-4.42577 -5.44462,-4.17194 -1.37069,0.19648 -6.25391,0.44492 -10.85159,0.5521 -9.55301,0.22267 -13.72433,-1.56979 -17.79748,-7.64784 -2.34628,-3.50117 -3.09442,-3.78904 -12.60396,-4.84962 -5.56029,-0.62014 -10.54367,-0.91146 -11.07417,-0.64741 -1.51372,0.75344 -1.1285,11.49103 0.59382,16.55228 2.1699,6.37649 8.40539,11.43935 17.31464,14.05847 l 7.49133,2.20228 -5.14426,1.45524 c -6.91155,1.95518 -14.51919,5.71906 -15.33286,7.58593 -0.85242,1.95577 3.92569,1.95339 19.19105,-0.009 z m 40.00879,-2.01723 c 4.79977,-1.06409 5.715,-1.6887 5.39225,-3.67996 -0.52044,-3.2108 -7.11961,-3.00737 -12.53292,0.38635 -7.07112,4.43306 -4.12615,5.79141 7.14067,3.29361 z m 30.08178,-3.18798 c 0,-1.55264 -12.5155,-6.85334 -16.18148,-6.85334 -3.85641,0 -3.96743,1.88075 -0.31319,5.30542 2.24406,2.10309 4.14897,2.62064 9.64549,2.62064 3.76705,0 6.84918,-0.48272 6.84918,-1.07272 z m -170.403672,-5.1549 c 0,-2.99099 -0.444262,-3.39688 -3.718033,-3.39688 -4.677619,0 -7.162038,2.98742 -4.676897,5.62381 1.001749,1.0627 3.160154,1.7057 5.069685,1.51027 2.751443,-0.2816 3.325245,-0.92649 3.325245,-3.7372 z M 194.79016,142.23301 c 0,-6.56823 -0.89135,-7.33634 -4.47152,-3.8533 -1.26392,1.22962 -3.37592,2.53688 -4.69334,2.90502 -2.18295,0.61 -2.0357,1.06334 1.6607,5.11306 5.21792,5.71663 7.50416,4.44777 7.50416,-4.16478 z m -14.05701,-7.06645 c -1.46401,-2.52658 -2.66184,-4.85362 -2.66184,-5.17118 0,-0.31758 2.17023,-0.46525 4.82274,-0.32819 4.38757,0.22673 4.85947,-0.0317 5.22968,-2.86459 0.46314,-3.5438 0.53623,-3.53008 -8.12332,-1.52481 -4.19411,0.97122 -6.58276,2.17091 -6.86864,3.44973 -0.24107,1.07839 -1.54321,2.93348 -2.89364,4.12245 -3.41723,3.00864 -3.23174,6.69094 0.33704,6.69094 1.5358,0 3.91956,-0.89168 5.29725,-1.98152 2.3996,-1.89823 2.58707,-1.87316 4.46078,0.59656 3.07575,4.05415 3.33941,2.0835 0.39995,-2.98939 z m -15.45863,-5.27923 c 4.85105,-2.20863 4.78955,-3.40696 -0.25426,-4.95501 -4.85579,-1.49034 -7.526,-0.0745 -7.526,3.99043 0,3.16605 2.31466,3.45301 7.78026,0.96458 z m 13.45936,-9.62867 c 2.35487,-4.00935 1.63289,-5.62822 -2.5101,-5.62822 -3.98716,0 -5.7877,2.15712 -4.96188,5.94454 0.92768,4.25463 4.88565,4.08708 7.47198,-0.31632 z m -21.68772,-4.45576 c 7.20167,-5.79494 12.97824,-7.94895 21.34666,-7.95991 3.5904,-0.005 4.82275,-0.47623 4.82275,-1.84531 0,-1.58082 -8.42926,-19.315909 -9.86095,-20.74736 -0.27869,-0.278645 -2.1697,0.358271 -4.20225,1.415368 -4.93016,2.564095 -9.78965,2.423591 -15.043,-0.434944 -2.38232,-1.296315 -4.3315,-2.606811 -4.3315,-2.912211 0,-0.3054 3.04708,-0.220085 6.7713,0.189589 7.20541,0.792615 17.68314,-1.81118 17.64457,-4.384811 -0.0284,-1.893685 -3.7158,-10.604782 -3.78238,-8.935407 -0.0671,1.682662 -4.70362,1.907257 -5.84374,0.283074 -0.43716,-0.622762 -1.91814,-1.132294 -3.29107,-1.132294 -1.95789,0 -2.49727,-0.793614 -2.50103,-3.679955 -0.006,-4.819252 -4.34087,-11.039866 -7.69268,-11.039866 -3.29441,0 -7.42238,3.603358 -8.51373,7.431769 -0.46413,1.628107 -0.0912,4.968329 0.82891,7.422715 1.27719,3.407214 1.31694,4.775797 0.16811,5.787268 -2.02439,1.782345 -1.89624,4.27527 0.33128,6.444144 1.60437,1.562137 1.23031,3.358527 -2.96578,14.242833 -2.64095,6.850378 -5.79508,13.784528 -7.00918,15.409228 -1.78581,2.38975 -1.88956,3.18627 -0.54318,4.17006 1.62617,1.18824 13.38117,5.55166 15.57524,5.7815 0.60817,0.0637 4.24941,-2.41376 8.09165,-5.50548 z m -7.77373,-45.990676 c -2.41976,-5.551814 0.98209,-10.151373 4.69035,-6.341722 3.26992,3.359327 3.61105,5.751013 0.996,6.983204 -3.39,1.597347 -4.77885,1.440671 -5.68635,-0.641482 z m 16.05273,-6.418083 c 2.41489,-2.505101 2.48815,-2.510944 4.38586,-0.349732 1.42135,1.618696 1.92996,1.759691 1.92996,0.535016 0,-2.424599 -3.70939,-6.695974 -5.81497,-6.695974 -2.16527,0 -4.47355,3.467069 -4.47355,6.719325 0,2.999993 0.92654,2.951333 3.9727,-0.208635 z M 66.588355,131.11555 c -5.305436,-2.06487 -8.612187,-7.59793 -7.54211,-12.61991 1.122311,-5.26713 2.773364,-5.70048 6.572666,-1.72514 1.797556,1.88084 6.730912,5.41167 10.963014,7.8463 l 7.69473,4.42659 -3.580743,1.24673 c -6.433632,2.24007 -9.944951,2.44551 -14.107557,0.82543 z M 39.497753,94.213866 c -3.326346,-1.177163 -3.874877,-5.052387 -0.859366,-6.071189 1.118856,-0.378009 5.392767,-0.68729 9.497582,-0.68729 6.51329,0 7.727682,0.355255 9.540306,2.790897 1.142356,1.534994 2.077009,3.318357 2.077009,3.963029 0,1.446604 -16.170411,1.450239 -20.255531,0.0045 z"
           style="fill:#5c5c5d;stroke-width:1.20673287" />
        <path
           inkscape:connector-curvature="0"
           id="path939"
           d="m 74.807836,249.42623 c -5.437976,-4.20372 -7.795747,-10.99275 -4.398933,-12.6664 3.069378,-1.51234 3.703448,-6.33677 2.281201,-17.3569 -1.403269,-10.87308 -2.627767,-13.15639 -5.808954,-10.83191 -1.742587,1.27329 -1.983604,0.75938 -1.983604,-4.22957 0,-3.53013 -0.608285,-5.86214 -1.607582,-6.16306 -0.88417,-0.26625 -8.446059,0.002 -16.804198,0.59613 -17.365879,1.23441 -20.67224,0.43581 -23.584217,-5.69635 -2.031481,-4.27798 -2.283591,-11.20763 -0.444164,-12.20853 2.009694,-1.09355 1.526812,-9.1713 -0.643032,-10.75679 -1.368708,-1.00011 -1.929099,-3.64655 -1.929099,-9.11012 0,-6.55216 0.477204,-8.19986 3.19992,-11.04873 2.931656,-3.06749 8.413979,-5.56125 8.346073,-3.7964 -0.01573,0.40877 -1.160318,2.01705 -2.543534,3.57395 -1.901215,2.13995 -2.520167,4.62678 -2.536362,10.19065 -0.03407,11.70297 1.612563,15.17983 9.67159,20.42153 3.85632,2.5082 7.011492,5.06475 7.011492,5.68122 0,1.87863 6.031628,3.67049 9.657968,2.86916 l 3.417314,-0.75513 -0.382601,-17.33412 c -0.316624,-14.34501 -0.02967,-17.80836 1.664114,-20.0843 1.982623,-2.66406 14.611597,-8.91008 18.0354,-8.91991 0.928697,-0.003 4.292822,-1.52908 7.475834,-3.39204 6.524706,-3.81877 9.629504,-4.1428 16.274185,-1.69844 2.539343,0.93415 5.336153,1.69844 6.215133,1.69844 2.5831,0 6.17321,-14.84997 4.51722,-18.68479 -2.20158,-5.09823 1.39768,-12.80722 8.37812,-17.94448 10.02533,-7.378148 9.15603,-7.731002 -18.295184,-7.426077 L 75.927315,94.62057 74.266938,91.037979 72.606562,87.455387 98.331559,87.31385 c 28.252251,-0.155441 27.755551,-0.136506 28.849671,-1.099804 0.42179,-0.371357 1.29867,-6.843291 1.94862,-14.382076 1.70147,-19.735281 4.98852,-25.404099 16.73093,-28.854016 4.98286,-1.463966 6.40081,-1.474129 10.89493,-0.07809 6.4012,1.988432 10.5001,5.278525 13.89456,11.15286 2.54286,4.400572 2.54556,4.472912 0.095,2.547661 -3.1355,-2.463462 -7.25802,-2.547877 -9.47682,-0.194052 -1.4861,1.576536 -1.92284,1.342711 -3.70108,-1.981514 -3.45051,-6.450334 -10.35522,-5.216102 -14.99299,2.680034 -1.35796,2.312005 -1.65744,6.525694 -1.22832,17.282069 0.61765,15.482311 -0.5071,20.176606 -7.92445,33.073868 -4.26357,7.41346 -3.48758,9.0973 5.56017,12.0653 3.46213,1.13572 7.23479,2.81268 8.38371,3.72663 1.8529,1.47396 2.50684,1.35891 5.78729,-1.01823 10.79322,-7.82107 21.18774,-12.13321 29.24741,-12.13321 3.71614,0 4.17942,-1.41555 2.06542,-6.31096 -0.72713,-1.6838 -1.07257,-3.28112 -0.76765,-3.54958 1.04983,-0.924296 10.46353,3.96635 16.0776,8.35272 5.02957,3.92969 5.69515,5.03759 6.28762,10.46615 0.64561,5.9157 0.53166,6.17769 -4.44742,10.2255 -2.81052,2.28483 -5.75585,3.96471 -6.54522,3.73305 -0.78934,-0.23166 -2.72656,0.88643 -4.30489,2.48463 -1.57834,1.59821 -3.34407,2.90582 -3.92385,2.90582 -1.97059,0 -1.06402,-2.88616 1.51799,-4.83259 4.09274,-3.08531 3.31248,-8.53898 -1.95893,-13.69221 -2.45927,-2.40412 -4.4714,-4.8244 -4.4714,-5.37839 0,-0.554 -2.61861,-1.00727 -5.81912,-1.00727 -4.81867,0 -6.0272,0.438 -7.02939,2.54766 -2.11072,4.44313 -4.69575,6.51069 -8.1402,6.51069 -2.76492,0 -3.60009,0.75464 -4.82771,4.3622 -1.84786,5.43014 0.004,9.22533 4.50218,9.22533 2.15501,0 3.26219,0.81279 3.83252,2.81349 0.95156,3.33798 5.21566,4.58618 10.09152,2.95404 1.97186,-0.66006 3.7429,-0.72168 4.14819,-0.14432 2.04166,2.9085 -15.55125,3.59232 -20.40362,0.79308 -1.68893,-0.97431 -4.29963,-3.52206 -5.80156,-5.66165 -2.55342,-3.63754 -3.29372,-3.93994 -11.39855,-4.65626 -4.76728,-0.42132 -9.61957,-1.00696 -10.78288,-1.30139 -1.1633,-0.29443 -3.09886,0.3308 -4.30123,1.38942 -1.78241,1.56929 -2.02097,3.08867 -1.29175,8.22726 1.31464,9.26393 4.08385,14.32584 10.5998,19.37562 l 5.81077,4.50328 -5.63731,5.38578 -5.63731,5.38579 4.50123,0.33072 c 2.47568,0.18189 9.99916,-0.34655 16.71885,-1.17432 6.71969,-0.82776 17.42619,-1.41395 23.79221,-1.30263 6.36603,0.1113 14.86657,-0.45416 18.89012,-1.25663 6.68747,-1.33376 7.49833,-1.28119 9.44481,0.61248 2.31026,2.2476 5.74581,1.81252 5.74581,-0.72765 0,-1.1379 1.79136,-1.57729 6.43033,-1.57729 3.53668,0 6.43032,-0.48272 6.43032,-1.07272 0,-1.66861 -12.64498,-6.85334 -16.71457,-6.85334 -2.97515,0 -4.22936,-0.92436 -6.84516,-5.04493 -2.69613,-4.24712 -3.02343,-5.72438 -2.06973,-9.34142 0.62306,-2.36308 1.14666,-5.85509 1.16353,-7.76004 l 0.0307,-3.46353 8.892,0.8365 c 9.64464,0.90731 14.75588,2.73512 18.76144,6.70916 1.413,1.40188 10.22815,8.35124 19.58921,15.44301 9.36105,7.09176 17.62832,13.89468 18.37168,15.11759 0.88157,1.45027 2.69155,2.22348 5.20488,2.22348 4.18631,0 6.3793,2.68706 3.94335,4.83175 -1.56508,1.37794 -1.89373,6.63992 -0.66639,10.66944 0.66863,2.19522 1.92523,2.56968 10.94899,3.26271 8.40616,0.6456 11.48424,1.4657 17.55354,4.67677 13.57921,7.18433 17.53458,11.93412 15.7475,18.91034 -0.59913,2.33884 -1.40262,4.52828 -1.78553,4.86541 -2.94012,2.58857 -70.37307,11.09194 -124.27706,15.67147 -29.41047,2.49862 -29.10696,2.56779 -27.50236,-6.26701 l 0.78878,-4.34303 7.89102,-0.75579 c 9.05432,-0.86722 21.55334,-3.21086 27.18198,-5.09681 3.28968,-1.10224 3.54097,-1.44904 1.70531,-2.35352 -2.54454,-1.25376 -17.32549,0.37429 -28.61638,3.15198 l -7.62009,1.87461 -3.28716,-3.88479 c -1.80795,-2.13664 -5.69409,-6.06134 -8.63588,-8.72158 -5.31423,-4.80558 -5.39399,-4.83207 -12.37185,-4.11002 l -7.02314,0.72673 -1.55421,-5.43432 c -1.65594,-5.79004 -5.26122,-11.15134 -9.64626,-14.3447 -2.67676,-1.94932 -2.67321,-1.95643 0.98788,-1.98151 2.81625,-0.0194 3.49198,-0.44343 2.89365,-1.81623 -0.42935,-0.98508 -0.78074,-1.87676 -0.78087,-1.98152 -0.001,-0.84529 -28.605937,0.31903 -29.86959,1.21579 -0.901326,0.63965 -3.374964,1.50129 -5.496972,1.91477 -2.899689,0.565 -4.938809,2.31752 -8.207892,7.05423 -4.262502,6.17614 -4.335976,6.49849 -3.665305,16.08032 0.83369,11.91085 3.355266,17.55583 8.983964,20.11214 2.296414,1.04293 6.394719,4.11231 9.107343,6.82083 4.965244,4.95775 7.996392,5.88131 12.436342,3.78925 1.61964,-0.76317 2.67505,-0.75712 3.21948,0.0185 1.83448,2.61344 3.20429,-0.59201 3.20429,-7.49836 0,-4.20297 0.79776,-8.70754 1.86341,-10.52189 1.93731,-3.29841 10.244,-10.30249 12.21853,-10.30249 1.21817,0 8.94919,8.9823 11.64714,13.53226 2.10651,3.55251 2.16633,14.72438 0.0849,15.85696 -2.32091,1.26289 -10.79744,-0.40635 -16.12986,-3.17637 -5.46416,-2.83846 -5.82589,-2.90174 -5.82597,-1.01931 -3e-5,0.77845 2.1702,3.02387 4.82275,4.98982 2.65254,1.96595 4.5334,3.83427 4.17969,4.15181 -0.65193,0.58528 -26.827643,3.83347 -39.964516,4.95927 -6.695033,0.57375 -7.480313,0.37451 -11.856261,-3.00823 z m 45.059614,-73.93499 c -0.33335,-0.77845 -1.54689,-4.27852 -2.69674,-7.77793 -1.14985,-3.4994 -3.02092,-7.0423 -4.15792,-7.8731 -1.87469,-1.36983 -1.98177,-0.88257 -1.14941,5.23026 0.59299,4.35491 1.85465,7.64256 3.56454,9.28848 2.86897,2.76165 5.41538,3.4111 4.43953,1.13229 z m 197.4897,26.04276 c -0.66563,-0.77845 -0.84936,-2.94396 -0.40826,-4.81225 0.84871,-3.59485 0.8384,-3.60664 3.21727,3.67996 0.89604,2.74459 -0.83406,3.44198 -2.80901,1.13229 z M 171.9625,168.02628 c -3.00618,-0.99365 -5.46578,-2.2045 -5.46578,-2.69078 0,-0.48626 2.80745,-0.88412 6.23878,-0.88412 4.20498,0 8.23421,-0.93412 12.35985,-2.86547 4.75048,-2.22383 6.52116,-2.57309 7.90794,-1.55979 3.18905,2.33023 1.91761,3.81056 -5.6098,6.53142 -9.90099,3.57881 -9.23809,3.51572 -15.43099,1.46874 z M 38.997195,92.007565 c -2.591149,-1.913058 -2.753394,-2.408364 -1.107024,-3.379543 1.061004,-0.625876 5.525795,-1.14576 9.921758,-1.155296 6.598018,-0.01431 8.224963,0.364822 9.323975,2.172811 2.444807,4.021958 1.574823,4.603614 -6.885636,4.603614 -6.309039,0 -8.921913,-0.520478 -11.253073,-2.241586 z m 137.984085,-3.51882 c -2.98731,-6.328794 -3.32501,-7.827122 -1.76406,-7.827122 0.55226,0 1.64497,1.494813 2.42823,3.321807 1.09672,2.558137 2.49529,3.49873 6.08345,4.091389 7.72901,1.2766 7.73116,4.110469 0.004,5.540953 -3.82301,0.707751 -4.09532,0.500974 -6.75184,-5.127027 z m -17.55792,-2.165652 c -2.36105,-0.893269 -2.30828,-0.980926 0.64303,-1.068171 1.76834,-0.05228 4.66199,-0.380671 6.43033,-0.72977 3.10313,-0.61261 3.12818,-0.572619 0.71874,1.147755 -2.76837,1.976655 -4.01179,2.080409 -7.7921,0.650186 z M 173.48328,74.64316 c -0.35701,-0.819109 -0.0862,-2.729855 0.60188,-4.246103 1.15219,-2.539106 1.25741,-2.421494 1.33249,1.489288 0.0826,4.297442 -0.74739,5.48019 -1.93437,2.756815 z m -22.84803,-4.927045 c -1.28939,-1.135217 -1.0302,-5.811211 0.36416,-6.569936 1.60961,-0.875856 4.31833,3.651625 3.41908,5.714837 -0.74939,1.719382 -2.38237,2.088474 -3.78324,0.855099 z m 15.43278,0 c -1.68349,-1.482198 -0.87482,-6.038901 1.07172,-6.038901 1.28607,0 1.9291,1.132294 1.9291,3.396882 0,3.246452 -1.15715,4.265246 -3.00082,2.642019 z"
           style="fill:#ae161b;stroke-width:1.20673287" />
        <path
           inkscape:connector-curvature="0"
           id="path937"
           d="m 74.807836,249.42623 c -5.437976,-4.20372 -7.795747,-10.99275 -4.398933,-12.6664 3.069378,-1.51234 3.703448,-6.33677 2.281201,-17.3569 -1.403269,-10.87308 -2.627767,-13.15639 -5.808954,-10.83191 -1.742587,1.27329 -1.983604,0.75938 -1.983604,-4.22957 0,-3.53013 -0.608285,-5.86214 -1.607582,-6.16306 -0.88417,-0.26625 -8.446059,0.002 -16.804198,0.59613 -17.365879,1.23441 -20.67224,0.43581 -23.584217,-5.69635 -2.031481,-4.27798 -2.283591,-11.20763 -0.444164,-12.20853 2.009694,-1.09355 1.526812,-9.1713 -0.643032,-10.75679 -1.368708,-1.00011 -1.929099,-3.64655 -1.929099,-9.11012 0,-6.55216 0.477204,-8.19986 3.19992,-11.04873 2.931656,-3.06749 8.413979,-5.56125 8.346073,-3.7964 -0.01573,0.40877 -1.160318,2.01705 -2.543534,3.57395 -1.901215,2.13995 -2.520167,4.62678 -2.536362,10.19065 -0.03099,10.64493 1.78011,15.25491 7.412791,18.86857 2.622985,1.68278 6.620427,4.74968 8.883207,6.81533 3.991093,3.64341 8.287035,4.69762 11.596987,2.84585 1.049984,-0.58742 1.684333,-5.32898 1.929098,-14.41941 l 0.364686,-13.54419 3.421393,9.05835 c 1.881768,4.98209 3.743228,11.0612 4.13658,13.50911 0.932952,5.80598 3.431143,8.09687 6.997194,6.41657 2.845046,-1.34057 13.095241,-1.72625 13.095241,-0.49274 0,0.41255 -1.814834,3.24011 -4.032965,6.28346 -3.921836,5.3809 -4.013974,5.80483 -3.343788,15.3851 0.838213,11.9822 3.351248,17.62573 8.988748,20.18603 2.296414,1.04293 6.394719,4.11231 9.107344,6.82083 4.965244,4.95775 7.996393,5.88131 12.436333,3.78925 1.61965,-0.76317 2.67505,-0.75712 3.21949,0.0185 1.87102,2.6654 3.21263,-0.67154 3.33353,-8.29137 0.12084,-7.61586 0.20671,-7.85073 1.32815,-3.63268 0.65944,2.48029 1.71354,4.96265 2.34245,5.51637 0.62891,0.55371 0.81049,1.77075 0.40351,2.7045 -0.46975,1.07778 1.09327,3.05628 4.28022,5.418 2.76109,2.04613 4.73077,3.98006 4.37707,4.2976 -0.65194,0.58528 -26.82765,3.83347 -39.964523,4.95927 -6.695033,0.57375 -7.480314,0.37451 -11.856261,-3.00823 z M 130.563,204.44487 c -1.60909,-5.6262 -5.27393,-11.07285 -9.47451,-14.08091 -2.48687,-1.78086 -2.44886,-1.84214 1.45527,-2.34664 3.31648,-0.42856 4.76445,0.18058 8.38409,3.52706 2.4064,2.22479 5.40302,6.48199 6.65914,9.46046 1.25613,2.97845 2.7862,5.6887 3.40016,6.02277 2.18152,1.18705 -0.42803,2.71552 -4.6362,2.71552 -4.01486,0 -4.36407,-0.31967 -5.78795,-5.29826 z M 317.35715,201.534 c -0.66563,-0.77845 -0.84936,-2.94396 -0.40826,-4.81225 0.84871,-3.59485 0.8384,-3.60664 3.21727,3.67996 0.89604,2.74459 -0.83406,3.44198 -2.80901,1.13229 z m -53.8434,-9.98689 c -2.07751,-1.9119 -5.65816,-4.50113 -7.957,-5.75382 -5.17739,-2.82128 -5.2659,-4.65464 -0.37275,-7.72226 3.19191,-2.0011 4.87182,-2.26232 10.39804,-1.61689 6.92556,0.80886 9.06406,2.69195 6.3395,5.58233 -1.06565,1.13048 -1.35093,3.60313 -0.84751,7.34548 0.65771,4.88934 0.45614,5.64136 -1.51205,5.64136 -1.24902,0 -3.97072,-1.56428 -6.04823,-3.4762 z m -61.8474,-11.5245 c -0.5456,-0.77724 -1.10627,-3.37053 -1.24593,-5.76286 l -0.25393,-4.34971 2.77761,2.2909 c 2.02965,1.67401 3.35984,2.0028 4.93977,1.22102 2.92099,-1.44537 9.56629,3.41998 8.38209,6.13696 -1.00781,2.31229 -13.03384,2.69424 -14.59961,0.46369 z m -83.99571,-10.91076 c -1.45014,-4.28711 -3.55654,-8.46692 -4.68088,-9.28847 -1.84454,-1.3478 -1.95419,-0.8352 -1.12232,5.24709 0.50707,3.70745 1.86555,7.75988 3.01885,9.0054 2.09649,2.26414 2.0963,2.26414 -0.92841,0.002 -4.51626,-3.37665 -6.67861,-7.85874 -6.40485,-13.27596 0.13461,-2.66388 0.0704,-8.91968 -0.14277,-13.90177 -0.24729,-5.7803 0.3864,-11.75393 1.75108,-16.50715 1.6383,-5.70619 1.81614,-8.19555 0.7602,-10.6408 -2.1675,-5.01931 1.36996,-12.82314 8.04406,-17.74562 6.88641,-5.079071 9.67559,-12.762696 11.23304,-30.944672 1.61765,-18.884854 5.052,-24.673566 16.66214,-28.084622 4.98286,-1.463966 6.40081,-1.474129 10.89493,-0.07809 6.4012,1.988431 10.5001,5.278524 13.89456,11.152859 2.54286,4.400573 2.54556,4.472913 0.095,2.547662 -3.1355,-2.463463 -7.25802,-2.547878 -9.47682,-0.194053 -1.4861,1.576536 -1.92284,1.342712 -3.70108,-1.981514 -3.45051,-6.450333 -10.35522,-5.216101 -14.99299,2.680034 -1.35796,2.312005 -1.65744,6.525695 -1.22832,17.282069 0.61765,15.482312 -0.5071,20.176606 -7.92445,33.073867 -4.26357,7.41346 -3.48758,9.09731 5.56017,12.06531 3.46213,1.1357 7.23479,2.81268 8.38371,3.72662 1.8529,1.47395 2.50684,1.3589 5.78729,-1.01823 10.79322,-7.82066 21.18774,-12.13281 29.24741,-12.13281 3.71614,0 4.17942,-1.41555 2.06542,-6.31095 -0.72713,-1.68381 -1.07257,-3.28112 -0.76765,-3.54958 1.04983,-0.924297 10.46353,3.96635 16.0776,8.35272 5.02957,3.92969 5.69515,5.03759 6.28762,10.46615 0.64561,5.9157 0.53166,6.17769 -4.44742,10.2255 -2.81052,2.28483 -5.75585,3.96471 -6.54522,3.73305 -0.78934,-0.23166 -2.72656,0.88643 -4.30489,2.48463 -1.57834,1.59821 -3.34407,2.90582 -3.92385,2.90582 -1.97059,0 -1.06402,-2.88616 1.51799,-4.83259 4.09274,-3.08531 3.31248,-8.53898 -1.95893,-13.69221 -2.45927,-2.40412 -4.4714,-4.8244 -4.4714,-5.37839 0,-0.554 -2.61861,-1.00727 -5.81912,-1.00727 -4.81867,0 -6.0272,0.438 -7.02939,2.54766 -2.11072,4.44313 -4.69575,6.51069 -8.1402,6.51069 -2.76492,0 -3.60009,0.75464 -4.82771,4.3622 -1.84786,5.43014 0.004,9.22533 4.50218,9.22533 2.15501,0 3.26219,0.81279 3.83252,2.81349 0.95156,3.33798 5.21566,4.58618 10.09152,2.95404 1.97186,-0.66006 3.7429,-0.72168 4.14819,-0.14432 2.04166,2.9085 -15.55125,3.59232 -20.40362,0.79308 -1.68893,-0.97431 -4.29963,-3.52206 -5.80156,-5.66165 -2.55342,-3.63754 -3.29372,-3.93994 -11.39855,-4.65626 -4.76728,-0.42132 -9.61957,-1.00696 -10.78288,-1.30139 -1.1633,-0.29443 -3.09886,0.3308 -4.30123,1.38942 -1.78241,1.56929 -2.02097,3.08867 -1.29175,8.22726 1.31249,9.2488 4.08213,14.3245 10.55268,19.3391 l 5.76366,4.46677 -6.23323,6.25723 c -5.1133,5.133 -6.97441,6.2598 -10.35848,6.27152 -3.99146,0.0138 -4.21076,-0.23851 -6.76189,-7.78047 z m 54.29186,-1.08557 c -3.00618,-0.99365 -5.46578,-2.2045 -5.46578,-2.69078 0,-0.48626 2.80745,-0.88412 6.23878,-0.88412 4.20498,0 8.23421,-0.93412 12.35985,-2.86547 4.75048,-2.22383 6.52116,-2.57309 7.90794,-1.55979 3.18905,2.33023 1.91761,3.81056 -5.6098,6.53142 -9.90099,3.57881 -9.23809,3.51572 -15.43099,1.46874 z m 23.7276,-14.53186 c -0.40814,-0.58143 -0.21267,-3.06714 0.43438,-5.52381 0.64704,-2.45667 1.19025,-6.20757 1.20712,-8.33535 0.0169,-2.12776 0.42066,-3.52532 0.8973,-3.10568 0.47663,0.41965 0.71958,3.9348 0.53988,7.81146 -0.32779,7.07135 -1.69233,11.12832 -3.07868,9.15338 z M 77.517063,94.607959 c 0.928379,-0.327087 2.03761,-0.28686 2.464959,0.08939 0.427348,0.376253 -0.332234,0.643869 -1.687961,0.594704 -1.498193,-0.05433 -1.802935,-0.322637 -0.776998,-0.684095 z m 99.439647,-6.171273 c -2.99689,-6.349069 -3.30196,-7.775063 -1.66338,-7.775063 0.59412,0 1.85441,2.165513 2.80065,4.81225 0.94624,2.646737 2.57538,5.70393 3.62033,6.793763 1.67973,1.751878 1.67312,1.981515 -0.0571,1.981515 -1.14143,0 -3.10027,-2.422211 -4.70054,-5.812465 z m -17.53335,-2.113593 c -2.36105,-0.893269 -2.30828,-0.980926 0.64303,-1.068171 1.76834,-0.05228 4.66199,-0.380671 6.43033,-0.72977 3.10313,-0.61261 3.12818,-0.572619 0.71874,1.147755 -2.76837,1.976655 -4.01179,2.080409 -7.7921,0.650186 z M 173.48328,74.64316 c -0.35701,-0.819109 -0.0862,-2.729855 0.60188,-4.246103 1.15219,-2.539106 1.25741,-2.421494 1.33249,1.489288 0.0826,4.297442 -0.74739,5.48019 -1.93437,2.756815 z m -22.84803,-4.927045 c -1.28939,-1.135217 -1.0302,-5.811211 0.36416,-6.569936 1.60961,-0.875856 4.31833,3.651625 3.41908,5.714837 -0.74939,1.719382 -2.38237,2.088474 -3.78324,0.855099 z m 15.43278,0 c -1.68349,-1.482198 -0.87482,-6.038901 1.07172,-6.038901 1.28607,0 1.9291,1.132294 1.9291,3.396882 0,3.246452 -1.15715,4.265246 -3.00082,2.642019 z"
           style="fill:#2e3032;stroke-width:1.20673287" />
      </g>
    </g>
    <g
       aria-label="SuperTux"
       transform="matrix(0.76845606,0,0,0.76845606,-10.293585,239.73391)"
       style="font-style:normal;font-weight:normal;font-size:40px;line-height:125%;font-family:sans-serif;letter-spacing:0px;word-spacing:0px;fill:#ff0000;fill-opacity:1;stroke:#ffffff;stroke-width:0.46190161;stroke-linecap:butt;stroke-linejoin:miter;stroke-miterlimit:4;stroke-dasharray:none;stroke-opacity:0.99215686"
       id="flowRoot10">
      <path
         inkscape:connector-curvature="0"
         d="m 28.078125,22.211818 q 4.550781,0 8.027344,7.148437 l 2.011718,0.253906 v 0.507813 q -0.253906,0.761719 -1.503906,0.761719 h -2.265625 l -2.5,0.253906 -0.253906,-0.253906 V 30.37588 l 1.25,-1.523437 q -2.109375,-3.828125 -5.273438,-4.609375 h -2.246093 q -4.082032,1.738281 -4.277344,4.21875 v 1.035156 q 1.757812,2.695312 6.777344,3.945312 9.179687,5.078125 9.179687,9.628907 -0.332031,5.195312 -3.515625,7.441406 Q 30.5,51.840724 27.355469,51.879786 l -1.367188,0.136719 -1.621094,-0.332031 q -5.078125,-2.050781 -5.078125,-3.691406 -0.9375,-1.171875 -1.25,-3.847657 L 17.785156,43.891505 H 17.53125 l -0.996094,0.253906 -0.253906,-0.253906 v -0.507812 q 0.800781,-1.523438 2.753906,-1.523438 l 3.847656,0.761719 v 0.253906 l -1.25,1.523438 v 0.78125 q 2.109375,4.003906 5.195313,4.003906 h 0.253906 q 5.058594,-0.390625 6.777344,-4.277344 v -2.03125 q -2.519531,-5.605469 -11.308594,-8.125 -4.121094,-1.621094 -4.257812,-5.644531 0.195312,-4.6875 6.269531,-6.777344 z"
         style="font-style:normal;font-variant:normal;font-weight:normal;font-stretch:normal;font-family:'Layne Hansom';-inkscape-font-specification:'Layne Hansom';fill:#ff0000;fill-opacity:1;stroke:#ffffff;stroke-width:0.46190161;stroke-miterlimit:4;stroke-dasharray:none;stroke-opacity:0.99215686"
         id="path847" />
      <path
         inkscape:connector-curvature="0"
         d="m 40.070312,30.84463 q 2.1875,0.566406 3.574219,2.558594 -0.976562,4.84375 -0.976562,9.257812 v 0.957032 q 0,5.117187 2.285156,5.117187 4.882812,-2.207031 4.882812,-12.460937 0,-5.429688 5.839844,-5.429688 l 1.308594,0.957031 v 0.3125 q 0,0.507813 -2.929688,1.289063 l -0.3125,2.226562 q 0,11.503907 1.621094,11.503907 l 1.289063,0.332031 2.285156,-0.332031 v 0.957031 q 0,1.40625 -5.527344,2.246094 -0.644531,0 -2.597656,-2.246094 -0.9375,0 -4.550781,2.558594 l -2.285157,0.644531 h -0.644531 q -3.964844,0 -4.882812,-7.03125 h 0.332031 l -0.332031,-0.3125 v -3.203125 l 0.976562,-6.699219 -1.953125,-1.933594 q 0,-0.878906 2.597656,-1.269531 z"
         style="font-style:normal;font-variant:normal;font-weight:normal;font-stretch:normal;font-family:'Layne Hansom';-inkscape-font-specification:'Layne Hansom';fill:#ff0000;fill-opacity:1;stroke:#ffffff;stroke-width:0.46190161;stroke-miterlimit:4;stroke-dasharray:none;stroke-opacity:0.99215686"
         id="path849" />
      <path
         inkscape:connector-curvature="0"
         d="m 67.472656,29.653224 q 11.796875,0 11.992188,6.796875 l 0.15625,2.910156 q -1.074219,6.015625 -6.796875,6.601563 l -2.148438,0.175781 -2.5,-0.03906 v 0.371094 l -1.777344,9.746094 1.074219,0.371094 v 1.835937 l -8.59375,1.09375 -0.722656,-1.09375 q 0,-0.878906 4.296875,-2.597656 1.425781,-6.464844 1.425781,-9.355469 l -2.5,-1.09375 q 0,-2.207031 2.871094,-2.207031 l 0.351562,-2.832031 v -7.75391 H 64.25 L 61.027344,33.34463 H 60.65625 l -0.703125,-0.761719 q 2.695312,-2.929687 7.519531,-2.929687 z m 1.074219,3.691406 v 4.394531 l -0.371094,5.429688 2.128906,0.371094 q 5.019532,0 5.214844,-4.121094 v -1.113281 q -0.195312,-5.253907 -5.566406,-6.074219 z"
         style="font-style:normal;font-variant:normal;font-weight:normal;font-stretch:normal;font-family:'Layne Hansom';-inkscape-font-specification:'Layne Hansom';fill:#ff0000;fill-opacity:1;stroke:#ffffff;stroke-width:0.46190161;stroke-miterlimit:4;stroke-dasharray:none;stroke-opacity:0.99215686"
         id="path851" />
      <path
         inkscape:connector-curvature="0"
         d="m 90.558594,31.196193 q 7.890625,1.71875 7.890625,8.554687 0,2.246094 -4.082032,2.246094 h -9.355468 l -0.585938,0.742187 q 0,4.023438 2.636719,5.957032 h 3.203125 q 2.34375,0 3.808594,-2.988282 h 0.878906 l 2.03125,0.742188 v 1.113281 q 0,2.128906 -7.871094,3.730469 -8.769531,0 -8.769531,-11.542969 2.773437,-6.464844 5.253906,-6.699219 0,-0.839843 4.960938,-1.855468 z m -5.839844,7.441406 v 0.742187 l 1.464844,0.371094 H 91.4375 l 3.515625,-0.371094 v -0.742187 q 0,-4.257813 -4.980469,-4.84375 -4.375,0 -5.253906,4.84375 z"
         style="font-style:normal;font-variant:normal;font-weight:normal;font-stretch:normal;font-family:'Layne Hansom';-inkscape-font-specification:'Layne Hansom';fill:#ff0000;fill-opacity:1;stroke:#ffffff;stroke-width:0.46190161;stroke-miterlimit:4;stroke-dasharray:none;stroke-opacity:0.99215686"
         id="path853" />
      <path
         inkscape:connector-curvature="0"
         d="m 100.75391,30.356349 q 3.45703,0 4.12109,2.949219 h 0.58594 q 3.3789,-2.304688 5.89844,-2.304688 1.38671,0 2.07031,3.925781 h 1.46484 v 0.976563 q -1.21094,1.972656 -3.53515,1.972656 -0.60547,0 -1.77735,-4.257812 h -0.29297 q -3.125,0 -5.29297,8.496093 v 2.285157 l -0.29296,2.949218 1.17187,2.285157 v 0.644531 l -0.87891,0.976562 -0.29296,-0.3125 h -0.29297 q -1.48438,0.07813 -1.48438,0.644532 L 99.875,51.254786 h -1.777344 v -0.644531 q 2.363284,-2.265625 2.363284,-3.59375 V 38.18838 l 0.29297,-3.59375 q -0.52735,-1.464844 -2.070316,-2.597656 0.46875,-1.640625 2.070316,-1.640625 z"
         style="font-style:normal;font-variant:normal;font-weight:normal;font-stretch:normal;font-family:'Layne Hansom';-inkscape-font-specification:'Layne Hansom';fill:#ff0000;fill-opacity:1;stroke:#ffffff;stroke-width:0.46190161;stroke-miterlimit:4;stroke-dasharray:none;stroke-opacity:0.99215686"
         id="path855" />
      <path
         inkscape:connector-curvature="0"
         d="m 128.19531,22.09463 q 11.75781,0.976563 12.61719,1.582031 l 0.46875,1.308594 q -0.33203,1.09375 -1.19141,1.582031 h -0.70312 q -0.625,0 -0.95703,-1.835937 h -0.23438 l -8.08594,-0.527344 -0.23437,0.253906 v 1.835938 l 0.23437,1.328125 q -1.91406,17.03125 -2.85156,21.5625 l 0.23438,0.273437 h 1.42578 l 0.95703,-0.273437 0.9375,0.273437 v 1.054688 l -2.38281,0.78125 -4.04297,-0.527344 -1.42578,0.273438 -0.9375,-0.273438 v -1.054687 q 2.1289,0 2.1289,-2.617188 l 1.91407,-19.746094 v -3.144531 h -0.25391 l -8.55469,0.253906 v 1.328125 l -0.46875,0.507813 h -0.48828 q -1.89453,-1.230469 -1.89453,-2.363281 0,-1.054688 3.08594,-1.582032 l 0.23437,0.273438 h 0.25391 z"
         style="font-style:normal;font-variant:normal;font-weight:normal;font-stretch:normal;font-family:'Layne Hansom';-inkscape-font-specification:'Layne Hansom';fill:#ff0000;fill-opacity:1;stroke:#ffffff;stroke-width:0.46190161;stroke-miterlimit:4;stroke-dasharray:none;stroke-opacity:0.99215686"
         id="path857" />
      <path
         inkscape:connector-curvature="0"
         d="m 143.37109,30.84463 q 2.1875,0.566406 3.57422,2.558594 -0.97656,4.84375 -0.97656,9.257812 v 0.957032 q 0,5.117187 2.28516,5.117187 4.88281,-2.207031 4.88281,-12.460937 0,-5.429688 5.83984,-5.429688 l 1.3086,0.957031 v 0.3125 q 0,0.507813 -2.92969,1.289063 l -0.3125,2.226562 q 0,11.503907 1.62109,11.503907 l 1.28906,0.332031 2.28516,-0.332031 v 0.957031 q 0,1.40625 -5.52734,2.246094 -0.64453,0 -2.59766,-2.246094 -0.9375,0 -4.55078,2.558594 l -2.28516,0.644531 h -0.64453 q -3.96484,0 -4.88281,-7.03125 h 0.33203 l -0.33203,-0.3125 v -3.203125 l 0.97656,-6.699219 -1.95312,-1.933594 q 0,-0.878906 2.59765,-1.269531 z"
         style="font-style:normal;font-variant:normal;font-weight:normal;font-stretch:normal;font-family:'Layne Hansom';-inkscape-font-specification:'Layne Hansom';fill:#ff0000;fill-opacity:1;stroke:#ffffff;stroke-width:0.46190161;stroke-miterlimit:4;stroke-dasharray:none;stroke-opacity:0.99215686"
         id="path859" />
      <path
         inkscape:connector-curvature="0"
         d="m 179.60156,30.004786 q 1.64063,0.527344 1.64063,1.210938 v 0.800781 q -6.77735,6.289063 -6.77735,7.636719 3.4961,8.027344 5.13672,8.027344 2.71485,0 2.71485,1.210937 v 0.800781 q 0,1.074219 -4.0625,1.601563 -1.09375,0 -6.23047,-8.828125 -6.95313,8.828125 -9.21875,8.828125 l -1.34766,-0.410156 v -0.390625 q 1.17188,-2.539063 4.60938,-4.824219 4.0625,-4.511719 4.0625,-6.425781 -4.0625,-5.625 -7.32422,-5.625 v -0.390625 q 0.41015,-2.011719 3.53515,-2.011719 1.3086,0.01953 5.95703,6.015625 0.78125,0 5.6836,-6.425781 1.62109,-0.292969 1.62109,-0.800782 z"
         style="font-style:normal;font-variant:normal;font-weight:normal;font-stretch:normal;font-family:'Layne Hansom';-inkscape-font-specification:'Layne Hansom';fill:#ff0000;fill-opacity:1;stroke:#ffffff;stroke-width:0.46190161;stroke-miterlimit:4;stroke-dasharray:none;stroke-opacity:0.99215686"
         id="path861" />
    </g>
    <path
       d="m 2.9099488,296.53924 c 0.418922,-5.3e-4 0.8326753,-0.0936 1.2124592,-0.27321 0.3734644,-0.1674 0.7048299,-0.41805 0.9693233,-0.73376 v 0 l -0.7221725,-0.73378 c -0.1772354,0.21641 -0.397365,0.39248 -0.64609,0.51694 -0.2439901,0.1197 -0.5118614,0.18128 -0.7829466,0.17954 -0.228759,0.002 -0.4557318,-0.0412 -0.6677861,-0.12837 -0.2120545,-0.0872 -0.4049797,-0.21597 -0.5676048,-0.37902 -0.1565976,-0.16002 -0.2803226,-0.34953 -0.3639896,-0.55856 -0.089707,-0.22143 -0.1348703,-0.45895 -0.1328584,-0.69847 -0.00249,-0.24186 0.041441,-0.48184 0.1292158,-0.70675 0.081936,-0.20911 0.2033543,-0.40001 0.3574408,-0.56194 0.154524,-0.16068 0.3393402,-0.28812 0.5434406,-0.37478 0.2126882,-0.0916 0.4416036,-0.13812 0.6726611,-0.13664 0.2786525,-8e-4 0.5537144,0.0638 0.8033289,0.18942 0.2580106,0.13144 0.4839335,0.31953 0.6613763,0.55055 v 0 l 0.7450836,-0.75732 c -0.2619782,-0.32269 -0.5953376,-0.57813 -0.9729451,-0.74547 -0.3880922,-0.18197 -0.8104018,-0.27655 -1.2379365,-0.27729 -0.3818702,-0.002 -0.7604521,0.0716 -1.1138175,0.21857 -0.334786,0.13777 -0.6404644,0.3393 -0.90051717,0.59373 -0.256683,0.25461 -0.46084697,0.55848 -0.60058797,0.89392 -0.144862,0.3517 -0.219758,0.72895 -0.220383,1.1101 -6.09e-4,0.38119 0.07303,0.75875 0.216743,1.11088 0.138087,0.33436 0.34096197,0.63706 0.59658297,0.89032 0.26017807,0.25413 0.56598667,0.45578 0.90088117,0.59326 0.3557542,0.14744 0.7368352,0.2216 1.1210985,0.21813 z m 14.4057212,0.008 c 0.380587,0.002 0.757921,-0.0715 1.109798,-0.21856 0.333314,-0.13704 0.636579,-0.34 0.892357,-0.59673 0.255733,-0.25629 0.458949,-0.56159 0.597853,-0.89856 0.145452,-0.34953 0.220387,-0.72504 0.220387,-1.10454 0,-0.37951 -0.07494,-0.75515 -0.220387,-1.10477 -0.138904,-0.33661 -0.342078,-0.642 -0.597853,-0.89856 -0.255736,-0.25659 -0.558998,-0.4593 -0.892357,-0.59646 -0.709477,-0.29135 -1.50283,-0.29135 -2.212307,0 -0.333362,0.13716 -0.636626,0.33987 -0.892358,0.59646 -0.255776,0.25656 -0.458949,0.56195 -0.597853,0.89856 -0.145364,0.34966 -0.22026,0.7253 -0.22026,1.10477 0,0.37946 0.07489,0.75501 0.22026,1.10454 0.138904,0.33697 0.342121,0.64227 0.597853,0.89856 0.255776,0.25673 0.559039,0.45969 0.892358,0.59673 0.34962,0.14657 0.724568,0.22073 1.102855,0.21813 z m 0,-1.03819 c -0.223336,0.002 -0.444725,-0.0425 -0.650586,-0.13053 -0.205862,-0.0881 -0.39186,-0.21771 -0.546596,-0.38077 -0.152604,-0.16392 -0.272602,-0.35647 -0.353436,-0.56636 -0.172384,-0.4534 -0.172384,-0.95577 0,-1.40929 0.08149,-0.20842 0.201439,-0.39915 0.353436,-0.56194 0.154736,-0.16341 0.340734,-0.29308 0.546596,-0.38103 0.205861,-0.0879 0.42725,-0.13231 0.650586,-0.1304 0.229931,-0.002 0.457692,0.0448 0.669018,0.13665 0.201786,0.0868 0.384098,0.21428 0.535796,0.37478 0.152001,0.16279 0.271953,0.35352 0.353439,0.56194 0.172297,0.45357 0.172297,0.95585 0,1.40929 -0.08079,0.20989 -0.20079,0.40244 -0.353439,0.56636 -0.151698,0.16046 -0.33401,0.28796 -0.535796,0.37469 -0.211238,0.0915 -0.438912,0.13791 -0.668672,0.13617 z m 16.709052,0.95232 v -0.99917 h -2.911893 v -4.46611 h -1.101473 v 5.46485 z m 13.896817,0 v -0.99915 h -2.912076 v -4.46613 h -1.101952 v 5.46486 z m 14.002668,0 v -0.98354 h -3.017891 v -1.29632 h 1.969278 v -0.95264 h -1.969278 v -1.248 h 2.987972 v -0.98365 h -4.090787 v 5.46459 z m 12.224634,0.0781 c 0.418922,-5.3e-4 0.832643,-0.0937 1.212532,-0.27321 0.373385,-0.1674 0.70471,-0.41806 0.969243,-0.73377 v 0 l -0.72249,-0.73376 c -0.177363,0.2164 -0.397671,0.3929 -0.646165,0.51693 -0.244145,0.12013 -0.512162,0.18128 -0.783191,0.17954 -0.228547,0.002 -0.455358,-0.0408 -0.667419,-0.12793 -0.212066,-0.0872 -0.40504,-0.21597 -0.567232,-0.37946 -0.156999,-0.15959 -0.280591,-0.34953 -0.364289,-0.55813 -0.08975,-0.22156 -0.134869,-0.45908 -0.133136,-0.6986 -0.0021,-0.24185 0.04159,-0.48188 0.129672,-0.70674 0.08149,-0.2092 0.202954,-0.40011 0.356907,-0.56195 0.154379,-0.16071 0.339553,-0.28817 0.543383,-0.37477 0.212926,-0.0916 0.44191,-0.13812 0.672621,-0.13665 0.279707,-8e-4 0.555951,0.0644 0.806178,0.1909 0.258037,0.1314 0.483973,0.31948 0.661349,0.55054 v 0 l 0.745033,-0.75731 c -0.261935,-0.32269 -0.595421,-0.57812 -0.973143,-0.74547 -0.387702,-0.18189 -0.810093,-0.27647 -1.237255,-0.27729 -0.382061,-0.002 -0.760648,0.0716 -1.114092,0.21856 -0.334788,0.13761 -0.640524,0.33905 -0.900718,0.59339 -0.256733,0.25453 -0.460992,0.55844 -0.601062,0.89391 -0.144849,0.35171 -0.219443,0.72896 -0.220308,1.11012 -5.29e-4,0.38114 0.07283,0.7586 0.216837,1.11074 0.137903,0.33436 0.340868,0.63705 0.596283,0.89032 0.260207,0.25413 0.566378,0.45578 0.901168,0.59326 0.355177,0.14658 0.735505,0.2203 1.119294,0.21639 z m 14.580745,-0.0781 v -4.46611 h 1.78584 v -0.99951 h -4.682728 v 0.99951 h 1.794073 v 4.46569 z m 12.626624,0 v -5.46454 h -1.10195 v 5.46454 z m 12.69603,0.0863 c 0.38033,0.002 0.75762,-0.0715 1.10976,-0.21856 0.33305,-0.13748 0.63662,-0.34001 0.89205,-0.59673 0.25586,-0.25631 0.45925,-0.56203 0.59803,-0.89856 0.14527,-0.34954 0.2203,-0.72514 0.2203,-1.10463 0,-0.37947 -0.075,-0.75511 -0.2203,-1.10473 -0.13878,-0.33661 -0.34217,-0.642 -0.59803,-0.8986 -0.25543,-0.25656 -0.559,-0.45929 -0.89205,-0.59647 -0.70948,-0.29121 -1.50266,-0.29121 -2.21213,0 -0.33306,0.13738 -0.6362,0.34017 -0.89206,0.59672 -0.25543,0.25657 -0.45882,0.56186 -0.5976,0.89835 -0.14571,0.34958 -0.22073,0.72522 -0.22073,1.10473 0,0.37949 0.075,0.75509 0.22073,1.10463 0.13878,0.33653 0.34217,0.64183 0.5976,0.89856 0.25586,0.25629 0.559,0.45925 0.89206,0.59673 0.34953,0.14614 0.72422,0.22029 1.10237,0.21769 z m 0,-1.03819 c -0.22898,0.002 -0.45534,-0.0447 -0.66525,-0.13661 -0.20034,-0.0876 -0.38119,-0.21511 -0.5321,-0.37513 -0.15265,-0.16349 -0.27278,-0.3556 -0.35388,-0.56593 -0.17216,-0.45349 -0.17216,-0.9558 0,-1.40933 0.0815,-0.20851 0.20166,-0.39928 0.35388,-0.56199 0.15091,-0.15994 0.33176,-0.28739 0.5321,-0.37477 0.20991,-0.0921 0.43627,-0.13865 0.66525,-0.13661 0.22984,-0.002 0.45708,0.0448 0.66871,0.13661 0.20167,0.0868 0.38423,0.21427 0.53602,0.37477 0.15178,0.1628 0.27191,0.35353 0.35344,0.56199 0.1726,0.45348 0.1726,0.95588 0,1.40933 -0.0807,0.20989 -0.2008,0.40244 -0.35344,0.56593 -0.15179,0.16046 -0.33435,0.28796 -0.53602,0.37513 -0.21163,0.0915 -0.43929,0.13747 -0.66871,0.13573 z m 13.7364,0.95232 v -3.65532 l 2.71388,3.65532 h 0.97316 v -5.46459 h -1.03387 v 3.53651 l -2.64536,-3.53651 h -1.04948 v 5.46459 z"
       id="path4"
       inkscape:connector-curvature="0"
       style="fill:#ffffff;stroke-width:0.43366686" />
  </g>
</svg>
