<?xml version="1.0" encoding="UTF-8" standalone="no"?>
<!-- Created with Inkscape (http://www.inkscape.org/) -->

<svg
   xmlns:dc="http://purl.org/dc/elements/1.1/"
   xmlns:cc="http://creativecommons.org/ns#"
   xmlns:rdf="http://www.w3.org/1999/02/22-rdf-syntax-ns#"
   xmlns:svg="http://www.w3.org/2000/svg"
   xmlns="http://www.w3.org/2000/svg"
   xmlns:sodipodi="http://sodipodi.sourceforge.net/DTD/sodipodi-0.dtd"
   xmlns:inkscape="http://www.inkscape.org/namespaces/inkscape"
   width="500"
   height="200"
   viewBox="0 0 132.29166 52.916668"
   version="1.1"
   id="svg8"
   inkscape:version="0.92.5 (2060ec1f9f, 2020-04-08)"
   sodipodi:docname="videopac.svg">
  <defs
     id="defs2" />
  <sodipodi:namedview
     id="base"
     pagecolor="#ffffff"
     bordercolor="#666666"
     borderopacity="1.0"
     inkscape:pageopacity="0.0"
     inkscape:pageshadow="2"
     inkscape:zoom="1.8214355"
     inkscape:cx="220.06269"
     inkscape:cy="103.99419"
     inkscape:document-units="mm"
     inkscape:current-layer="layer1"
     showgrid="false"
     units="px"
     inkscape:pagecheckerboard="true"
     inkscape:window-width="1366"
     inkscape:window-height="739"
     inkscape:window-x="0"
     inkscape:window-y="0"
     inkscape:window-maximized="1" />
  <metadata
     id="metadata5">
    <rdf:RDF>
      <cc:Work
         rdf:about="">
        <dc:format>image/svg+xml</dc:format>
        <dc:type
           rdf:resource="http://purl.org/dc/dcmitype/StillImage" />
        <dc:title />
      </cc:Work>
    </rdf:RDF>
  </metadata>
  <g
     inkscape:label="Layer 1"
     inkscape:groupmode="layer"
     id="layer1"
     transform="translate(0,-244.08332)">
    <path
       inkscape:connector-curvature="0"
       id="path152"
       d="m 32.089183,295.00867 c -1.310117,-0.15945 -2.578673,-0.66139 -3.847831,-1.52251 -0.60618,-0.41128 -1.607751,-1.37613 -1.982698,-1.91 -0.565189,-0.80473 -1.202605,-2.07335 -1.352131,-2.69108 -0.04673,-0.19305 -0.136214,-0.56161 -0.198853,-0.81902 -0.163074,-0.67014 -0.227713,-2.67574 -0.111789,-3.46855 0.226706,-1.55046 0.630684,-2.58951 1.532499,-3.94167 0.919596,-1.37882 1.804583,-2.14517 3.343406,-2.89521 0.560092,-0.273 1.060999,-0.4967 1.113126,-0.49713 0.05213,-3.9e-4 0.251783,-0.0541 0.443678,-0.11922 0.418182,-0.14197 1.999147,-0.34806 2.67678,-0.34893 0.654001,-8.5e-4 2.043023,0.20813 2.712943,0.40814 0.969181,0.28937 2.195993,1.0223 3.111089,1.85864 0.543808,0.49701 0.560201,0.65905 0.107645,1.06405 -0.181705,0.16261 -0.70435,0.65544 -1.161434,1.09518 -0.893655,0.85974 -1.137668,0.97017 -1.429997,0.64714 -0.184228,-0.20356 -1.078325,-0.7321 -1.563331,-0.92414 -0.214507,-0.0849 -0.68343,-0.21754 -1.042053,-0.29468 -1.105373,-0.23777 -2.336994,-0.006 -3.562324,0.67041 -0.625221,0.34513 -1.382069,1.05037 -1.803147,1.68019 -0.92555,1.38437 -1.108171,3.4436 -0.450752,5.08266 0.270289,0.67388 0.970112,1.70169 1.324592,1.94539 0.115031,0.0791 0.283934,0.21805 0.37534,0.30881 0.179094,0.17784 0.909297,0.56487 1.519467,0.80537 0.207881,0.0819 0.727975,0.18967 1.155765,0.23941 1.100916,0.12799 1.970607,-0.0257 2.920073,-0.51611 0.378757,-0.19562 0.819581,-0.4756 0.979612,-0.62218 l 0.290962,-0.26651 h 2.203221 c 1.384193,0 2.221135,0.029 2.251412,0.078 0.129379,0.20934 -0.804443,1.55819 -1.788849,2.58388 -1.870814,1.94927 -4.536919,2.76276 -7.766421,2.3697 z m 31.78595,0.0307 c -1.18371,-0.0972 -1.834613,-0.27117 -2.906657,-0.7768 -2.561812,-1.20828 -4.301534,-3.41616 -4.939322,-6.26847 -0.08559,-0.38279 -0.137498,-0.74321 -0.115344,-0.80094 0.0325,-0.0847 0.396872,-0.10092 1.886274,-0.084 l 1.845996,0.0209 0.153355,0.46802 c 0.470711,1.43653 1.399746,2.65382 2.382968,3.12234 1.028754,0.49022 1.419489,0.59603 2.35575,0.63795 2.597443,0.1163 4.3345,-1.02436 5.310638,-3.48729 l 0.29369,-0.74102 1.830095,-0.0209 c 1.595067,-0.0182 1.836065,-0.005 1.876572,0.10022 0.04152,0.1082 -0.0507,0.55577 -0.369387,1.79273 -0.35393,1.37374 -1.774937,3.39022 -3.079946,4.3706 -0.752672,0.56544 -2.062218,1.20194 -2.975576,1.44628 -0.314921,0.0842 -2.283868,0.30955 -2.574077,0.29455 -0.107253,-0.006 -0.546016,-0.0389 -0.975029,-0.0742 z m 18.564555,-0.0339 c -0.386111,-0.0555 -0.868302,-0.13779 -1.071535,-0.18297 -0.506702,-0.11264 -1.937995,-0.73252 -2.35695,-1.02077 -0.189054,-0.13007 -0.376072,-0.2365 -0.415595,-0.2365 -0.03952,0 -0.447204,-0.35569 -0.905958,-0.79042 -1.236121,-1.17141 -1.854395,-2.10192 -2.335389,-3.51478 -0.323876,-0.95135 -0.549771,-1.90037 -0.489642,-2.05707 0.05896,-0.15365 3.572667,-0.16736 3.694548,-0.0144 0.04273,0.0536 0.157006,0.32566 0.253938,0.60452 0.621464,1.78787 1.716959,2.8638 3.431064,3.36979 0.310702,0.0917 0.874993,0.16737 1.455056,0.19507 0.890546,0.0425 0.98671,0.0323 1.599048,-0.17044 0.861777,-0.28529 1.321417,-0.51249 1.82888,-0.90399 0.638116,-0.49231 1.289107,-1.42499 1.656587,-2.37342 0.09973,-0.25741 0.213237,-0.54764 0.252226,-0.64496 l 0.07089,-0.17695 1.814569,0.0209 1.814571,0.0209 0.02513,0.26276 c 0.05188,0.54239 -0.538674,2.31112 -1.118543,3.35009 -0.850063,1.52307 -2.394638,2.93823 -3.899019,3.57234 -1.074456,0.45289 -1.84146,0.63176 -3.119813,0.72757 -1.267116,0.095 -1.262363,0.0951 -2.184065,-0.0373 z m 19.439412,0.0317 c -1.16754,-0.0837 -1.984634,-0.29148 -3.035444,-0.77175 -0.90274,-0.41259 -1.12249,-0.555 -2.04492,-1.32524 -1.026288,-0.85694 -1.804782,-1.95467 -2.413074,-3.40257 -0.374776,-0.89207 -0.681263,-2.30705 -0.521149,-2.406 0.134573,-0.0832 3.530823,-0.0446 3.634293,0.0413 0.0511,0.0424 0.11432,0.20804 0.14053,0.36811 0.0739,0.45142 0.72566,1.64373 1.18682,2.17122 1.517064,1.73529 4.549944,2.19526 6.585224,0.99873 0.67297,-0.39564 0.93004,-0.61103 1.34133,-1.12386 0.49129,-0.61258 0.68777,-0.95361 1.00965,-1.75244 l 0.28393,-0.70464 1.77774,-0.021 c 0.97775,-0.0115 1.80771,0.009 1.84434,0.0456 0.0883,0.0883 -0.0683,1.09396 -0.26948,1.73044 -0.23374,0.73965 -0.68116,1.67708 -1.11798,2.34239 -0.42776,0.6515 -1.74277,2.0103 -2.32387,2.40125 -0.72256,0.48612 -1.93824,1.01954 -2.74067,1.20256 -0.36177,0.0825 -2.03193,0.28804 -2.26206,0.27836 -0.0858,-0.004 -0.56965,-0.0362 -1.07521,-0.0725 z m -56.217511,-0.4579 c -0.345811,-0.0494 -0.346015,-0.1807 -0.0017,-1.09203 0.13778,-0.36466 0.435862,-1.18953 0.662404,-1.83305 0.466783,-1.32596 1.581532,-4.44423 1.924061,-5.38216 0.125339,-0.34321 0.38445,-1.09789 0.575801,-1.67705 0.191352,-0.57917 0.417961,-1.16711 0.503578,-1.30654 l 0.155666,-0.25351 h 1.831457 c 2.171056,0 2.09651,-0.0343 1.788141,0.82377 -0.242731,0.67547 -0.93697,2.59415 -1.127225,3.11535 -0.0783,0.2145 -0.315747,0.88142 -0.527653,1.48204 -0.211905,0.60062 -0.530788,1.4957 -0.70863,1.98906 -0.420627,1.1669 -0.782554,2.18295 -1.139198,3.1981 -0.158258,0.45046 -0.318169,0.85155 -0.355361,0.89131 -0.07034,0.0752 -3.102869,0.11307 -3.581348,0.0447 z M 33.68418,287.69364 c -0.02098,-0.0547 -0.02866,-0.85324 -0.01705,-1.77455 l 0.0211,-1.67512 4.251127,-0.039 c 2.33812,-0.0215 4.311044,-0.0122 4.384275,0.0204 0.197945,0.0884 0.25241,0.50313 0.253404,1.92961 6.24e-4,0.89704 -0.02909,1.34022 -0.09807,1.46255 l -0.09897,0.1755 h -4.328833 c -3.435894,0 -4.336704,-0.0205 -4.366989,-0.0994 z m 22.325718,-2.83866 c -0.09103,-0.091 -0.0538,-0.82741 0.06837,-1.35204 0.186818,-0.80227 0.623753,-1.85768 1.088398,-2.62901 0.39387,-0.65384 1.313148,-1.64058 2.043647,-2.19362 0.761487,-0.57649 2.280004,-1.35629 2.987771,-1.53428 1.863592,-0.46869 3.817,-0.45122 5.616168,0.0502 1.797511,0.50097 3.925095,2.18271 4.816322,3.80704 0.50373,0.91808 0.736418,1.52301 1.029872,2.6774 0.202955,0.79839 0.234427,1.01961 0.158133,1.11153 -0.0786,0.0947 -0.397578,0.11478 -1.825152,0.11478 -1.796609,0 -1.917107,-0.0209 -1.917107,-0.33189 0,-0.38759 -0.677798,-1.64512 -1.217405,-2.25868 -1.93295,-2.19785 -5.489075,-2.37405 -7.62633,-0.37788 -0.412457,0.38523 -0.927702,1.09618 -1.020713,1.4084 -0.03195,0.10725 -0.103931,0.26793 -0.159956,0.35706 -0.05603,0.0891 -0.157123,0.34812 -0.22466,0.57555 -0.06754,0.22742 -0.162747,0.46163 -0.211575,0.52046 -0.07034,0.0848 -0.44865,0.10698 -1.821279,0.10698 -0.952876,0 -1.755902,-0.0234 -1.784503,-0.052 z m 18.896806,-0.0719 c -0.08563,-0.10318 -0.07885,-0.24362 0.04052,-0.83852 0.332022,-1.65476 0.860168,-2.79778 1.803764,-3.90374 1.855838,-2.17518 4.193368,-3.22708 7.205054,-3.24231 0.7617,-0.004 1.161422,0.0492 2.422768,0.32143 1.444162,0.31171 3.123737,1.32934 4.189253,2.53821 1.211497,1.37449 1.808604,2.65917 2.24351,4.82693 0.08248,0.41113 0.0065,0.42715 -1.916082,0.40396 l -1.742863,-0.021 -0.314377,-0.78099 c -0.172907,-0.42955 -0.40213,-0.90622 -0.509383,-1.05927 -0.446246,-0.63678 -0.735325,-1.00682 -0.786546,-1.00682 -0.02997,0 -0.225045,-0.14291 -0.433498,-0.31758 -0.84813,-0.71068 -2.129697,-1.16446 -3.288621,-1.16446 -1.748983,0 -3.60545,0.94041 -4.311546,2.18406 -0.08525,0.15015 -0.252903,0.43096 -0.372559,0.62402 -0.119655,0.19305 -0.260786,0.52304 -0.313626,0.7333 -0.05284,0.21027 -0.147783,0.4823 -0.210988,0.60452 l -0.114916,0.22223 h -1.743499 c -1.497999,0 -1.757982,-0.0175 -1.846361,-0.12395 z m 18.979826,0.073 c -0.132703,-0.0546 -0.123606,-0.22365 0.06165,-1.14587 0.259435,-1.29146 0.582147,-2.07581 1.270232,-3.0873 0.334201,-0.49127 1.244105,-1.43082 1.903264,-1.96526 0.615,-0.49864 2.23414,-1.35712 2.76854,-1.4679 0.183704,-0.0381 0.544614,-0.1096 0.802024,-0.15894 0.25741,-0.0493 0.6177,-0.12262 0.80064,-0.16287 0.68983,-0.15178 2.88391,-0.0228 3.8405,0.22573 2.1122,0.5488 3.99539,1.97525 5.14934,3.90044 0.70014,1.16808 1.41589,3.49821 1.16676,3.79839 -0.0782,0.0943 -0.39616,0.1145 -1.79952,0.1145 h -1.70449 l -0.11054,-0.21451 c -0.0608,-0.11798 -0.16705,-0.40535 -0.23613,-0.6386 -0.21265,-0.71801 -0.98696,-1.80921 -1.62643,-2.29206 -1.12225,-0.84738 -2.19003,-1.22409 -3.46273,-1.22163 -2.29437,0.004 -4.208604,1.39754 -4.982094,3.62577 l -0.2437,0.70202 -1.749908,0.0141 c -0.962449,0.008 -1.793785,-0.004 -1.847412,-0.026 z m -50.760964,-4.08477 c -0.08814,-0.14262 -0.03995,-3.3733 0.05197,-3.48406 0.06892,-0.083 1.214753,-0.10251 6.033157,-0.10251 5.221357,0 5.960073,0.0145 6.04627,0.11831 0.08074,0.0973 0.03832,0.29485 -0.238684,1.11153 -0.185283,0.54627 -0.419244,1.23787 -0.519914,1.53688 -0.100671,0.29901 -0.235481,0.62369 -0.29958,0.72152 l -0.116543,0.17786 H 48.62848 c -3.621752,0 -5.470273,-0.0267 -5.502916,-0.0795 z m -12.948179,-6.62452 c -0.257815,-0.0758 -0.771797,-0.28244 -1.142184,-0.45922 -1.289428,-0.61542 -2.458183,-1.97505 -2.92787,-3.40604 -0.171316,-0.52195 -0.210678,-0.80828 -0.240639,-1.75053 -0.069,-2.17005 0.51875,-3.6555 1.971863,-4.98356 0.785466,-0.71787 2.371204,-1.45016 3.034908,-1.40151 l 0.318691,0.0234 0.02165,1.16152 c 0.01862,0.9989 0.0033,1.18182 -0.109592,1.30653 -0.07218,0.0798 -0.179453,0.14502 -0.238379,0.14502 -0.283769,0 -1.111506,0.5248 -1.549789,0.98259 -0.381195,0.39817 -0.522081,0.62166 -0.731869,1.16098 -0.246593,0.63394 -0.257829,0.70647 -0.221025,1.42673 0.03425,0.67028 0.07225,0.8287 0.325673,1.35751 0.434268,0.9062 1.084434,1.47424 2.251807,1.96737 l 0.294491,0.1244 -0.02148,1.22885 -0.02148,1.22886 -0.273008,0.0125 c -0.150154,0.007 -0.483947,-0.0495 -0.741761,-0.12533 z m 2.548626,0.0834 c -0.07991,-0.0507 -0.10233,-0.33665 -0.0962,-1.22735 0.0089,-1.28799 0.01636,-1.30739 0.543011,-1.40619 0.363482,-0.0682 1.024962,-0.49636 1.320234,-0.85458 0.310419,-0.37659 0.402908,-0.34696 1.398738,0.44805 0.559948,0.44704 0.799524,0.68764 0.799524,0.80296 0,0.30443 -1.662445,1.75952 -2.010263,1.75952 -0.05571,0 -0.179031,0.0502 -0.27405,0.11158 -0.150706,0.0973 -1.334258,0.43651 -1.511796,0.43324 -0.03575,-6.2e-4 -0.111893,-0.0309 -0.169199,-0.0672 z m 9.401245,-0.0169 c -0.954663,-0.1396 -2.257877,-0.82655 -3.07807,-1.62252 -0.455118,-0.44168 -0.939835,-1.12583 -1.192607,-1.68331 -0.278371,-0.61394 -0.583286,-1.82418 -0.484485,-1.92299 0.04001,-0.04 0.605424,-0.0626 1.266901,-0.0506 1.338445,0.0242 1.22454,-0.0299 1.491495,0.70901 0.200963,0.55627 0.778918,1.26712 1.304399,1.60432 0.279654,0.17945 0.612391,0.2968 1.158953,0.40874 0.856645,0.17544 1.176347,0.15833 2.010116,-0.10762 0.450123,-0.14357 0.638663,-0.26032 1.056284,-0.65406 0.33408,-0.31498 0.583003,-0.63588 0.726088,-0.93603 0.119751,-0.2512 0.277773,-0.57959 0.351162,-0.72974 l 0.133434,-0.27301 h 1.208884 1.208885 l -0.01573,0.45517 c -0.04466,1.29203 -1.178337,3.04022 -2.597344,4.00524 -1.050356,0.71431 -2.89963,1.03854 -4.548361,0.79745 z m 34.150246,-0.14303 c -0.815032,-0.24244 -1.177803,-0.44699 -1.74994,-0.98671 -0.626059,-0.59059 -0.961593,-1.19161 -1.251988,-2.24258 -0.160096,-0.57942 -0.170127,-0.8035 -0.196756,-4.39533 -0.0195,-2.63056 -0.002,-3.84191 0.05729,-3.9721 0.08408,-0.18454 0.101204,-0.18731 1.159286,-0.18731 0.872306,0 1.096954,0.023 1.196515,0.12258 0.108038,0.10803 0.122582,0.56827 0.122637,3.88061 l 6.1e-5,3.75804 0.230375,0.48697 c 0.185829,0.39281 0.302709,0.53069 0.604456,0.71306 0.746004,0.45088 0.725093,0.40278 0.725093,1.66767 0,1.42191 -8e-6,1.42192 -0.897027,1.1551 z m 2.240054,-0.0777 c -0.03079,-0.0825 -0.03844,-0.63312 -0.01699,-1.22351 l 0.039,-1.07344 0.507015,-0.35725 c 0.406459,-0.28639 0.553426,-0.44983 0.741022,-0.82405 l 0.234007,-0.46681 0.039,-3.81658 0.039,-3.81658 0.195006,-0.05 c 0.30511,-0.0782 2.105905,-0.0314 2.194343,0.057 0.05244,0.0524 0.0684,1.4089 0.04716,4.00871 -0.03516,4.30462 -0.03691,4.32213 -0.530954,5.31793 -0.499925,1.00766 -1.085401,1.58143 -2.135438,2.09277 -0.71815,0.34971 -1.255822,0.41007 -1.35218,0.1518 z M 50.5498,273.92046 c -0.13568,-0.0545 -0.142456,-0.22719 -0.133418,-3.40113 0.0052,-1.83907 0.02775,-3.37327 0.05004,-3.40933 0.07293,-0.118 0.15933,-0.0713 0.742402,0.40106 0.316771,0.25664 0.830905,0.66376 1.142521,0.90473 l 0.566573,0.43811 -0.02056,2.54687 -0.02056,2.54688 -1.092033,0.0151 c -0.600618,0.008 -1.156356,-0.0107 -1.234972,-0.0423 z m 8.806983,-0.002 c -0.02333,-0.0378 -0.04427,-1.48573 -0.04653,-3.21772 -0.0023,-1.732 -0.03343,-3.19653 -0.06926,-3.25451 -0.09517,-0.15399 -0.212493,-0.0754 -1.732942,1.16002 -1.040334,0.84534 -1.379453,1.08114 -1.499879,1.04292 -0.08558,-0.0272 -0.649649,-0.45751 -1.253475,-0.95632 -1.381949,-1.14161 -2.142137,-1.75865 -2.649607,-2.15065 -0.425901,-0.329 -1.323742,-1.05372 -1.548853,-1.25021 -0.121237,-0.10583 -0.136504,-0.28876 -0.136504,-1.63559 0,-0.9829 0.02906,-1.5344 0.08258,-1.56749 0.10609,-0.0656 0.546685,0.23369 1.495137,1.01549 0.417282,0.34397 0.959833,0.78335 1.205671,0.9764 0.245837,0.19306 0.817767,0.66692 1.270956,1.05304 1.176969,1.00276 1.454736,1.20903 1.628099,1.20903 0.153082,0 0.612458,-0.3417 1.571771,-1.16916 0.623221,-0.53755 2.924383,-2.42559 3.459406,-2.83833 0.682267,-0.52634 0.632156,-0.95702 0.661413,5.68458 0.02109,4.78875 0.0071,5.84504 -0.078,5.89901 -0.138246,0.0876 -2.305791,0.0872 -2.359981,-5.4e-4 z m 4.006806,-0.13828 c -0.05307,-0.1396 -0.07251,-2.08433 -0.05737,-5.74158 0.02245,-5.42277 0.02593,-5.53271 0.178549,-5.64427 0.122234,-0.0894 0.381822,-0.10893 1.209036,-0.0912 l 1.053382,0.0226 v 5.81117 5.81118 l -1.15167,0.0216 -1.151669,0.0216 -0.08026,-0.2111 z m 22.679206,0.15692 c -0.0297,-0.0297 -0.054,-1.74353 -0.054,-3.80852 0,-2.81617 0.02339,-3.7779 0.0936,-3.84811 0.14065,-0.14065 2.119715,-0.12933 2.237672,0.0128 0.06369,0.0767 0.08266,1.15861 0.06805,3.88062 l -0.02026,3.77421 -1.135534,0.0215 c -0.624545,0.0118 -1.159836,-0.003 -1.189536,-0.0325 z m 5.932678,-0.004 c -0.128439,-0.0336 -0.136504,-0.37378 -0.136504,-5.75852 0,-4.48488 0.02103,-5.73584 0.09721,-5.78293 0.05346,-0.033 0.571205,-0.0636 1.150535,-0.0678 0.819756,-0.006 1.083595,0.0176 1.18983,0.10657 0.127686,0.10691 0.136504,0.47782 0.136504,5.74178 0,4.27292 -0.02253,5.65 -0.0936,5.72108 -0.09136,0.0914 -2.021284,0.12416 -2.34397,0.0398 z m 3.857216,-0.0398 c -0.126856,-0.12686 -0.131312,-2.21396 -0.0049,-2.29209 0.04879,-0.0301 1.055037,-0.0511 2.236107,-0.0466 1.65785,0.006 2.162794,0.0311 2.214934,0.10873 0.0859,0.12788 0.059,2.00504 -0.0313,2.18707 -0.0621,0.125 -0.24685,0.1365 -2.194484,0.1365 -1.550114,0 -2.152099,-0.0254 -2.220324,-0.0936 z m 5.929081,0.0274 c -0.0806,-0.0511 -0.0996,-1.19102 -0.096,-5.74526 0.003,-3.22631 0.0347,-5.71789 0.0744,-5.76572 0.0787,-0.0948 2.18087,-0.1078 2.33202,-0.0144 0.0683,0.0422 0.0912,1.49501 0.0912,5.77659 0,5.14414 -0.0124,5.72499 -0.12338,5.76757 -0.18505,0.071 -2.16234,0.0547 -2.27819,-0.0188 z m 6.0102,0.002 c -0.0531,-0.0337 -0.19795,-0.35785 -0.32198,-0.72033 -0.12402,-0.36247 -0.37361,-1.08991 -0.55463,-1.61653 -0.18103,-0.52661 -0.31124,-1.00413 -0.28935,-1.06115 0.0256,-0.0668 0.25679,-0.12334 0.65013,-0.15899 0.35131,-0.0318 0.81931,-0.1389 1.10267,-0.25226 0.69955,-0.27986 0.69384,-0.28425 1.03191,0.79184 0.0943,0.3003 0.25195,0.75662 0.35023,1.01403 0.32104,0.84083 0.60313,1.82819 0.55682,1.94887 -0.0378,0.0985 -0.2437,0.11799 -1.23733,0.11699 -0.6556,-6.2e-4 -1.2354,-0.0288 -1.28847,-0.0625 z m -40.365277,-4.54198 c -0.174804,-0.0419 -0.177459,-0.06 -0.177459,-1.20904 v -1.16652 l 0.390011,-0.0206 c 0.742649,-0.0392 1.47736,-0.18129 1.6241,-0.31409 0.367654,-0.33272 0.46629,-0.87375 0.231698,-1.27088 -0.208956,-0.35374 -0.69481,-0.5395 -1.411026,-0.5395 -0.901684,0 -0.891208,0.0154 -0.87955,-1.29165 0.0074,-0.83067 0.03541,-1.10681 0.118607,-1.16954 0.158101,-0.11922 1.541975,-0.061 2.188227,0.0921 0.300309,0.0711 0.742724,0.22753 0.983143,0.34756 0.509326,0.25429 1.115105,0.88805 1.332828,1.39438 0.197803,0.46002 0.319091,1.47099 0.252655,2.10596 -0.09482,0.90621 -0.294827,1.40265 -0.781991,1.94098 -0.476959,0.52706 -0.683148,0.65894 -1.396623,0.89329 -0.474073,0.15572 -2.116144,0.29344 -2.47462,0.20756 z m 28.366642,-0.0977 c -0.02137,-0.0557 -0.02904,-0.59098 -0.01705,-1.18953 l 0.0218,-1.08828 2.145071,-0.019 c 1.21194,-0.0107 2.194014,0.0123 2.257604,0.0529 0.14388,0.0919 0.21769,1.8066 0.0917,2.13067 l -0.0834,0.2145 h -2.188444 c -1.722097,0 -2.196726,-0.0216 -2.227303,-0.10126 z m 9.846055,0.0493 c -0.0286,-0.0286 -0.052,-0.55622 -0.052,-1.17248 0,-0.8265 0.0256,-1.12928 0.0975,-1.15401 0.0536,-0.0184 0.44744,-0.071 0.87515,-0.11681 0.84151,-0.0901 1.05824,-0.18576 1.29284,-0.57053 0.22018,-0.3611 0.19417,-0.67028 -0.0849,-1.0088 -0.2855,-0.34636 -0.60177,-0.44804 -1.4006,-0.45026 -0.32176,-9e-4 -0.63297,-0.032 -0.69157,-0.0691 -0.14452,-0.0916 -0.15786,-2.20958 -0.015,-2.38171 0.0775,-0.0934 0.24522,-0.10678 0.88858,-0.0708 0.93392,0.0523 1.80199,0.26109 2.2593,0.54349 0.49718,0.30702 1.13501,0.95779 1.36615,1.39387 0.19774,0.37303 0.20679,0.44264 0.20819,1.59905 0.001,1.17259 -0.005,1.22267 -0.22072,1.66151 -0.2786,0.56735 -0.89581,1.19152 -1.41191,1.4278 -0.21749,0.0996 -0.65188,0.23498 -0.96532,0.30091 -0.56874,0.11964 -2.04721,0.16641 -2.14573,0.0679 z m -68.216071,-1.92504 c -0.179717,-0.21654 0.193132,-1.60514 0.652497,-2.43009 0.309604,-0.556 0.989344,-1.32534 1.506195,-1.70475 0.469487,-0.34463 1.53087,-0.87672 1.976137,-0.99067 1.057894,-0.27072 2.728159,-0.27199 3.669534,-0.003 1.430636,0.40913 2.716819,1.43776 3.380898,2.7039 0.540967,1.03141 0.895129,2.22439 0.722212,2.43274 -0.06284,0.0757 -0.365934,0.0953 -1.222859,0.0792 l -1.139306,-0.0215 -0.369708,-0.71389 c -0.243649,-0.47049 -0.525443,-0.87208 -0.826451,-1.17779 -0.392861,-0.39901 -0.551737,-0.49827 -1.135914,-0.70965 -1.528629,-0.55312 -3.09655,-0.14484 -3.991222,1.03929 -0.299263,0.39608 -0.413413,0.61263 -0.68979,1.30854 l -0.116168,0.29251 H 38.65491 c -0.880656,0 -1.185699,-0.0256 -1.251591,-0.10499 z m -3.051488,-1.81271 c -0.233414,-0.24189 -0.563093,-0.46141 -0.9873,-0.6574 -0.350279,-0.16183 -0.669917,-0.35943 -0.710308,-0.43911 -0.04242,-0.0837 -0.05371,-0.60606 -0.02673,-1.23692 l 0.04671,-1.09203 0.366729,-0.0236 c 0.7345,-0.0473 2.29134,0.7371 3.149528,1.58688 0.515891,0.51084 0.570615,0.62301 0.40336,0.82678 -0.222216,0.27073 -1.531979,1.30988 -1.704701,1.35249 -0.150325,0.0371 -0.255367,-0.0249 -0.537286,-0.31707 z m 49.218891,-0.80062 -0.195006,-0.0578 v -1.16303 -1.16302 l 0.31201,-0.0659 c 0.171605,-0.0362 1.868087,-0.0553 3.769959,-0.0425 3.318579,0.0224 3.46241,0.0295 3.568607,0.17478 0.157031,0.21487 0.15701,1.97843 -2.7e-5,2.19325 -0.106486,0.14567 -0.246233,0.152 -3.68561,0.1667 -1.96621,0.008 -3.66268,-0.0107 -3.769933,-0.0425 z m 12.402371,-0.007 -0.195006,-0.0507 -0.0217,-1.11698 c -0.01294,-0.66605 0.0099,-1.15503 0.05656,-1.21126 0.0569,-0.0686 0.649891,-0.0993 2.172889,-0.11274 1.89333,-0.0167 2.105274,-0.006 2.205144,0.11469 0.0862,0.10391 0.10516,0.36563 0.0862,1.19234 -0.014,0.60932 -0.0602,1.10249 -0.10885,1.16112 -0.0661,0.0796 -0.512734,0.0989 -2.042424,0.0881 -1.0768,-0.008 -2.045579,-0.0366 -2.152832,-0.0645 z m -64.068275,-6.45959 c -0.914387,-1.77715 -1.630739,-3.18291 -3.050723,-5.98668 -0.934287,-1.84475 -1.961267,-3.85758 -2.282179,-4.47295 -0.360496,-0.69128 -0.5557,-1.14663 -0.510796,-1.19153 0.04078,-0.0408 0.630185,-0.0633 1.343059,-0.0512 l 1.270379,0.0215 1.047332,2.06706 c 3.1572,6.2312 3.693629,7.3009 3.696704,7.37166 0.0069,0.15825 -1.215935,2.45362 -1.307907,2.4551 -0.05252,8.4e-4 -0.145166,-0.095 -0.205869,-0.21297 z M 68.526,258.30816 c -1.749451,-0.46899 -3.195707,-1.65173 -3.873393,-3.16765 -0.194172,-0.43434 -0.431476,-1.14529 -0.534514,-1.60137 -0.07795,-0.34503 0.06333,-0.38607 1.246933,-0.36219 1.224809,0.0247 1.064006,-0.07 1.46852,0.8646 0.250547,0.57884 0.996352,1.3652 1.546619,1.6307 0.820325,0.39581 1.973687,0.46748 2.918389,0.18136 0.813356,-0.24635 1.632457,-1.05156 2.022772,-1.98847 0.116952,-0.28074 0.246291,-0.5543 0.287421,-0.60793 0.05371,-0.07 0.391452,-0.0975 1.198712,-0.0975 1.286189,0 1.269785,-0.009 1.116635,0.64261 -0.50941,2.16887 -1.988686,3.79993 -4.005498,4.41648 -0.890406,0.27221 -2.547712,0.31586 -3.392596,0.0894 z m 32.98526,-0.0269 c -1.899504,-0.57745 -3.318744,-1.94641 -3.948894,-3.80897 -0.24452,-0.72273 -0.35577,-1.86144 -0.26586,-2.72121 0.21749,-2.07984 1.43991,-3.86654 3.279094,-4.79273 0.71342,-0.35927 1.88091,-0.69522 1.96358,-0.56503 0.10726,0.16891 0.0774,2.29104 -0.0334,2.37528 -0.0536,0.0408 -0.25965,0.13398 -0.45783,0.20712 -1.00257,0.37006 -1.97639,1.4057 -2.210594,2.35094 -0.46849,1.89085 0.280284,3.61393 1.903024,4.37927 0.32444,0.15302 0.64255,0.30469 0.7069,0.33705 0.0961,0.0483 0.117,0.26603 0.117,1.22036 v 1.16153 l -0.234,0.0171 c -0.12871,0.009 -0.49727,-0.0629 -0.81903,-0.16073 z m 2.59358,0.13096 c -0.0716,-0.0289 -0.0975,-0.33533 -0.0975,-1.15433 0,-0.79736 0.0278,-1.13775 0.0975,-1.19491 0.0536,-0.044 0.25526,-0.12212 0.44808,-0.17369 0.54061,-0.1446 0.8678,-0.34026 1.22441,-0.73219 0.17982,-0.19763 0.384,-0.35933 0.45372,-0.35933 0.13559,0 0.37214,0.16493 1.26673,0.88319 0.31113,0.2498 0.56568,0.48936 0.56568,0.53236 0,0.043 -0.27203,0.34921 -0.60452,0.68047 -0.70886,0.70625 -1.50555,1.15671 -2.48957,1.40764 -0.66534,0.16967 -0.70576,0.17485 -0.86453,0.11079 z m -57.000171,-0.28061 c -0.15592,-0.0873 -0.173621,-2.10007 -0.01954,-2.22163 0.05363,-0.0423 0.45332,-0.0992 0.888207,-0.12637 1.416768,-0.0886 2.225245,-0.47288 2.945053,-1.39985 0.474468,-0.61102 0.625326,-1.19939 0.578349,-2.25565 -0.03892,-0.87522 -0.194228,-1.33554 -0.666603,-1.9758 -0.463575,-0.62833 -1.810163,-1.12672 -3.044288,-1.12672 -0.809967,0 -0.806895,0.005 -0.781044,-1.28769 l 0.02183,-1.09138 1.01403,0.007 c 1.181858,0.008 1.790407,0.13677 2.745875,0.57971 2.06304,0.95641 3.153738,2.7738 3.14907,5.24716 -0.0053,2.81415 -1.626051,4.87888 -4.334898,5.52244 -0.732535,0.17403 -2.273079,0.25345 -2.496038,0.12867 z m 37.850594,0.047 c -0.160879,-0.0199 -0.292508,-0.0707 -0.292508,-0.11306 0,-0.13498 3.810207,-7.59289 3.893321,-7.6206 0.04387,-0.0146 0.365898,0.54695 0.715627,1.24793 l 0.635871,1.27452 -1.249605,2.49826 c -0.687283,1.37404 -1.301171,2.54106 -1.364197,2.59337 -0.120482,0.1 -1.801038,0.18592 -2.338509,0.11958 z m -45.809192,-0.1221 c -0.02092,-0.0548 -0.02895,-2.64443 -0.01786,-5.75477 l 0.02018,-5.65517 h 1.170035 1.170035 v 5.73317 5.73318 l -1.152179,0.0216 c -0.878787,0.0165 -1.161203,-0.002 -1.190214,-0.078 z m 4.058454,-0.078 c -0.02365,-0.0977 -0.03333,-2.68731 -0.02151,-5.75475 l 0.0215,-5.57717 h 1.170035 1.170035 v 5.73317 5.73318 l -1.148528,0.0216 c -1.138549,0.0214 -1.148901,0.02 -1.191532,-0.156 z m 11.86469,0.05 c -0.02604,-0.0679 -0.04735,-2.62321 -0.04735,-5.67857 0,-4.21669 0.02255,-5.57774 0.0936,-5.64879 0.06374,-0.0637 0.436203,-0.0936 1.167291,-0.0936 0.981692,0 1.080606,0.0129 1.154435,0.15088 0.11174,0.20879 0.11174,11.0338 0,11.24259 -0.07408,0.13841 -0.173268,0.15088 -1.200691,0.15088 -0.949287,0 -1.127159,-0.0188 -1.167291,-0.12339 z m 3.905981,0.0726 c -0.09764,-0.0976 -0.0609,-2.09438 0.04039,-2.19567 0.145932,-0.14593 4.145423,-0.13216 4.267302,0.0147 0.06053,0.0729 0.08275,0.44858 0.06805,1.15054 l -0.02182,1.04224 -2.150355,0.0207 c -1.182696,0.0114 -2.1743,-0.003 -2.203566,-0.0325 z m 18.236013,-0.0446 c -0.02092,-0.0548 -0.02895,-2.64443 -0.01786,-5.75477 l 0.02018,-5.65517 h 1.170035 1.170035 v 5.73317 5.73318 l -1.152179,0.0216 c -0.878787,0.0165 -1.161203,-0.002 -1.190214,-0.078 z m 16.90844,-0.002 c -0.04317,-0.0536 -0.281532,-0.47484 -0.529691,-0.93602 l -0.451199,-0.83853 h -1.588371 c -1.317941,0 -1.595784,-0.0193 -1.631913,-0.11347 -0.02395,-0.0624 0.19809,-0.5977 0.493418,-1.18953 l 0.53696,-1.07607 0.445058,-0.0234 c 0.340144,-0.0179 0.445058,-0.0519 0.445058,-0.14443 0,-0.0666 -0.544066,-1.18393 -1.209036,-2.48302 -0.66497,-1.29909 -1.209036,-2.41354 -1.209036,-2.47654 0,-0.13051 1.154527,-2.55585 1.216654,-2.55585 0.02232,0 0.01423,0.0439 -0.01799,0.0975 -0.04032,0.0671 -0.01774,0.0644 0.07248,-0.009 0.113101,-0.0917 0.138679,-0.0864 0.186718,0.039 0.03062,0.0799 1.364872,2.72081 2.965012,5.86868 1.600141,3.14786 2.909345,5.77166 2.909345,5.83067 0,0.14881 -2.514023,0.15815 -2.633465,0.01 z m -60.290426,-4.44613 c -0.202173,-0.39684 -0.490612,-0.96408 -0.640975,-1.26055 l -0.273385,-0.53903 1.205708,-2.37481 c 0.66314,-1.30615 1.26662,-2.4764 1.341066,-2.60057 l 0.135358,-0.22575 h 1.24458 c 0.705322,0 1.264502,0.0322 1.290558,0.0744 0.07345,0.11885 -3.730868,7.64784 -3.864372,7.64784 -0.03902,0 -0.236364,-0.32468 -0.438538,-0.72152 z m 25.229266,-0.0648 c -0.119136,-0.0694 -0.136504,-0.21101 -0.136504,-1.11306 0,-0.69987 0.03022,-1.06377 0.0936,-1.12716 0.145932,-0.14593 4.145423,-0.13216 4.267302,0.0147 0.06053,0.0729 0.08275,0.44858 0.06805,1.15053 l -0.02182,1.04224 -0.351011,0.0527 c -0.568255,0.0854 -3.766774,0.0691 -3.919617,-0.02 z m 22.145747,-0.0137 c -0.117841,-0.0862 -0.131571,-0.23146 -0.112412,-1.18954 l 0.02183,-1.09138 0.894384,-0.0559 c 1.197594,-0.0748 1.481009,-0.2834 1.483537,-1.09196 9.36e-4,-0.30054 -0.04281,-0.41787 -0.239275,-0.64162 -0.291068,-0.33151 -0.619581,-0.43261 -1.407574,-0.43319 -0.411789,-3.1e-4 -0.622618,-0.0337 -0.684779,-0.10865 -0.0607,-0.0731 -0.08276,-0.45869 -0.06805,-1.18954 l 0.02176,-1.08132 0.897026,0.004 c 2.229104,0.009 3.51522,0.94595 3.825713,2.78676 0.155531,0.92209 -0.03399,1.95373 -0.492291,2.67972 -0.250099,0.39619 -0.799188,0.8425 -1.342524,1.09125 -0.745877,0.34147 -2.495159,0.54262 -2.797337,0.32167 z M 64.10996,251.6013 c -0.108073,-0.17487 0.218117,-1.38329 0.551389,-2.04271 0.350231,-0.69297 0.890827,-1.38728 1.419991,-1.82376 1.460252,-1.20449 3.483233,-1.69652 5.29638,-1.28819 1.897677,0.42736 3.293884,1.53087 4.08472,3.22842 0.272654,0.58525 0.581528,1.70954 0.516336,1.87943 -0.04018,0.1047 -0.217464,0.12348 -1.165268,0.12348 -1.127622,0 -1.305087,-0.0406 -1.305087,-0.29853 0,-0.29395 -0.516573,-1.12741 -0.966601,-1.55955 -0.743419,-0.71387 -1.508743,-1.028 -2.504503,-1.028 -1.650028,0 -2.820322,0.90183 -3.466877,2.67158 l -0.07837,0.2145 h -1.167361 c -0.680635,0 -1.187121,-0.032 -1.214751,-0.0767 z m 41.88736,-1.66601 c -0.1669,-0.25474 -0.88269,-0.73298 -1.37898,-0.92133 -0.22879,-0.0868 -0.45987,-0.19417 -0.5135,-0.23853 -0.11462,-0.0948 -0.13865,-2.21589 -0.0271,-2.392 0.0564,-0.089 0.18989,-0.0724 0.77939,0.0967 1.18302,0.33934 2.00411,0.82788 2.7566,1.64014 0.37572,0.40555 0.41391,0.48458 0.31174,0.64515 -0.0991,0.15579 -1.61211,1.34905 -1.71278,1.35084 -0.0526,9.3e-4 -0.14956,-0.0805 -0.21538,-0.18094 z m -45.125277,-0.9874 -1.911057,-0.039 v -1.13103 -1.13104 h 2.184066 2.184065 l 0.02165,1.11316 c 0.01654,0.85035 -0.0019,1.12044 -0.078,1.14402 -0.239317,0.0741 -0.598191,0.0807 -2.400723,0.0439 z"
       style="fill:#ee3436;stroke-width:0.07800233" />
    <path
       inkscape:connector-curvature="0"
       id="path150"
       d="m 31.185217,256.8121 c -0.457681,-0.91466 -1.015606,-2.01403 -1.239832,-2.44305 -1.428032,-2.73225 -3.852397,-7.58921 -3.809561,-7.63204 0.02815,-0.0282 0.602161,-0.0512 1.275579,-0.0512 h 1.224396 l 0.878875,1.73556 c 0.483382,0.95455 1.541202,3.03854 2.350711,4.6311 0.80951,1.59255 1.470332,2.96149 1.468495,3.04209 -0.0046,0.20026 -1.104385,2.31727 -1.222104,2.35239 -0.05619,0.0168 -0.431305,-0.64512 -0.926559,-1.63486 z m 37.214052,1.39029 c -1.0118,-0.27917 -1.689732,-0.68785 -2.541731,-1.53227 -0.621656,-0.61612 -0.80211,-0.85277 -1.070631,-1.40404 -0.345177,-0.70864 -0.681375,-1.86065 -0.574265,-1.96776 0.03568,-0.0357 0.549744,-0.0551 1.142357,-0.0431 0.863189,0.0175 1.089509,0.0451 1.137974,0.13879 0.03327,0.0644 0.181832,0.38027 0.330131,0.70203 0.469288,1.01819 1.24604,1.65367 2.335193,1.91046 0.953196,0.22473 1.789404,0.1203 2.658021,-0.33197 0.787778,-0.41017 1.260381,-0.99852 1.722215,-2.14401 l 0.117933,-0.29251 h 1.135013 c 1.323236,0 1.244086,-0.0818 0.939052,0.97079 -0.241847,0.83456 -0.444906,1.2397 -1.005093,2.00536 -0.717683,0.98093 -1.847166,1.71423 -3.104724,2.01571 -0.921429,0.2209 -2.365847,0.20857 -3.221445,-0.0275 z m 32.877991,-0.0759 c -0.88828,-0.30344 -1.494594,-0.67925 -2.209684,-1.36961 -1.29628,-1.25144 -1.91632,-3.09032 -1.69595,-5.02973 0.17288,-1.52144 0.63969,-2.48928 1.71672,-3.55932 0.41022,-0.40756 0.944714,-0.85758 1.187754,-1.00004 0.49613,-0.2908 1.41728,-0.62308 1.91768,-0.69173 l 0.33151,-0.0455 v 1.13928 1.13927 l -0.59078,0.27296 c -0.7976,0.36851 -1.2676,0.72833 -1.62034,1.2405 -1.336414,1.94041 -0.685654,4.56976 1.37022,5.53631 0.31234,0.14684 0.62932,0.28798 0.7044,0.31363 0.1216,0.0416 0.1365,0.1704 0.1365,1.18013 v 1.13348 l -0.2535,-0.003 c -0.13943,-0.002 -0.58697,-0.11716 -0.99453,-0.25639 z m 2.82543,-0.87045 0.0217,-1.15071 0.60584,-0.21375 c 0.63543,-0.22418 0.77715,-0.31774 1.22728,-0.81018 l 0.27572,-0.30165 0.87614,0.68108 c 0.48187,0.3746 0.87614,0.70547 0.87614,0.73528 0,0.1405 -1.18219,1.24501 -1.58645,1.48221 -0.44067,0.25855 -1.39703,0.58118 -2.01643,0.68022 l -0.30153,0.0482 z m -56.590721,0.83711 -0.450689,-0.0269 0.02168,-1.06858 0.02168,-1.06857 0.721802,-0.0508 c 0.958736,-0.0675 1.43337,-0.18582 2.070271,-0.51625 0.625995,-0.32478 1.049079,-0.77487 1.401729,-1.4912 0.245341,-0.49836 0.252331,-0.54074 0.252331,-1.52987 0,-0.98793 -0.0072,-1.0319 -0.250193,-1.52268 -0.345474,-0.69784 -0.63557,-1.02108 -1.173854,-1.30798 -0.63257,-0.33716 -1.238565,-0.48831 -2.203062,-0.54949 l -0.819024,-0.052 -0.02171,-1.12178 -0.0217,-1.12179 1.035735,0.0411 c 1.831159,0.0727 3.002677,0.51626 4.070286,1.54121 0.727745,0.69866 1.134467,1.33312 1.423962,2.22131 0.294825,0.90453 0.347769,2.51365 0.114809,3.48933 -0.536229,2.24582 -2.406094,3.86115 -4.71927,4.07686 -0.844547,0.0788 -1.015707,0.0855 -1.474775,0.0581 z m -8.324574,-5.71105 v -5.69632 h 1.131543 1.131544 l -0.02001,5.67467 -0.02001,5.67467 -1.111533,0.0217 -1.111534,0.0216 z m 4.108123,5.64002 c -0.0286,-0.0286 -0.052,-2.59097 -0.052,-5.69417 v -5.64217 h 1.131033 1.131034 v 5.69417 5.69417 h -1.079032 c -0.593468,0 -1.102433,-0.0234 -1.131034,-0.052 z m 11.840224,-0.0455 c -0.02048,-0.0536 -0.02815,-2.60723 -0.01705,-5.67467 l 0.02018,-5.57716 1.086015,-0.0218 c 0.816492,-0.0164 1.10173,0.003 1.149339,0.078 0.07253,0.1143 0.09041,10.98202 0.01837,11.16974 -0.04004,0.10434 -0.215025,0.12338 -1.133481,0.12338 -0.797048,0 -1.096046,-0.0259 -1.123371,-0.0975 z m 3.881545,-0.97503 0.0217,-1.07253 h 2.106063 2.106063 l 0.0217,1.07253 0.0217,1.07253 H 61.145047 58.99558 Z m 18.235246,-4.62164 v -5.69417 h 1.131034 1.131034 v 5.69417 5.69417 h -1.131034 -1.131034 z m 7.502005,5.59667 c 0.04851,-0.18753 3.669321,-7.27472 3.771446,-7.38203 0.08646,-0.0908 0.198375,0.082 0.694004,1.07156 0.325006,0.64893 0.590921,1.23498 0.590921,1.30234 0,0.11515 -2.353846,4.79809 -2.517302,5.00813 -0.05506,0.0708 -0.417188,0.0975 -1.320083,0.0975 -0.956814,0 -1.238381,-0.0225 -1.218986,-0.0975 z m 9.222356,-0.27301 c -0.111154,-0.20378 -0.340493,-0.62499 -0.509639,-0.93602 l -0.307541,-0.56552 h -1.5964 c -1.399287,0 -1.596401,-0.0151 -1.596401,-0.12258 0,-0.0674 0.230756,-0.57638 0.512791,-1.13103 L 90.992496,253.94 h 0.462238 c 0.372442,0 0.462238,-0.0243 0.462238,-0.12528 0,-0.0689 -0.544067,-1.20819 -1.209037,-2.53176 -0.66497,-1.32357 -1.209036,-2.47048 -1.209036,-2.5487 0,-0.0782 0.232797,-0.61499 0.517327,-1.19284 0.284529,-0.57785 0.518536,-1.09055 0.520015,-1.13933 0.0015,-0.0488 0.05827,-0.082 0.126193,-0.0737 0.132071,0.016 0.393781,0.51367 3.887116,7.39116 1.16906,2.30158 2.125564,4.22291 2.125564,4.26963 0,0.0577 -0.400085,0.0849 -1.24806,0.0849 h -1.24806 z M 34.086789,253.9985 c -0.06163,-0.0965 -0.334255,-0.62391 -0.605834,-1.17197 l -0.493781,-0.99646 1.286556,-2.55264 1.286557,-2.55264 1.267538,-0.0214 c 0.837947,-0.0142 1.267538,0.006 1.267538,0.0596 0,0.0803 -3.202214,6.44342 -3.56279,7.07959 -0.214003,0.37756 -0.28783,0.4034 -0.445784,0.156 z m 25.008343,-0.51427 c -0.07489,-0.0475 -0.0944,-0.3251 -0.078,-1.11034 l 0.02186,-1.04697 h 2.106063 2.106063 l 0.02163,1.06164 0.02163,1.06164 -0.364027,0.0499 c -0.527144,0.0723 -3.717148,0.0591 -3.835217,-0.0159 z m 22.152663,0.006 c -0.07467,-0.052 -0.09435,-0.33367 -0.078,-1.11652 l 0.02186,-1.04697 0.795167,-0.0528 c 0.463416,-0.0308 0.90538,-0.10508 1.059337,-0.17813 0.504937,-0.23961 0.692112,-1.07497 0.352061,-1.57125 -0.25728,-0.37547 -0.618753,-0.51587 -1.465543,-0.56923 l -0.741022,-0.0467 -0.02171,-1.12215 -0.02171,-1.12215 0.957735,0.0436 c 1.472971,0.067 2.280837,0.38008 2.97596,1.15323 0.782586,0.87042 0.968447,2.63767 0.40549,3.85557 -0.201734,0.43644 -0.780718,1.04995 -1.254736,1.32958 -0.172186,0.10157 -0.540747,0.23878 -0.819024,0.30491 -0.610307,0.14504 -2.026663,0.23592 -2.165867,0.13899 z m -17.054691,-2.26099 c 0.266843,-1.81337 1.424024,-3.36765 3.153133,-4.23517 0.553897,-0.27789 1.450095,-0.53903 1.857159,-0.54114 0.151935,-7.8e-4 0.23828,-0.0334 0.209903,-0.0793 -0.03079,-0.0498 0.20873,-0.078 0.66302,-0.078 0.454289,0 0.693812,0.0282 0.663019,0.078 -0.02838,0.0459 0.05797,0.0786 0.209903,0.0793 0.789305,0.004 2.136011,0.5778 2.927504,1.24714 1.058562,0.8952 1.917449,2.41506 1.988706,3.51917 l 0.02204,0.34151 -1.118264,0.0217 c -1.075295,0.0208 -1.119892,0.0155 -1.160601,-0.14021 -0.02329,-0.089 -0.155921,-0.3989 -0.294747,-0.68858 -0.59086,-1.23292 -1.893027,-2.04366 -3.27345,-2.03807 -1.621622,0.007 -2.954588,1.00226 -3.469546,2.59167 l -0.09477,0.29251 h -1.168765 -1.168766 z m 41.843166,-1.3439 c -0.11607,-0.21688 -0.9075,-0.73854 -1.45298,-0.9577 l -0.45895,-0.18439 -0.0216,-1.14583 -0.0216,-1.14582 0.25559,5.9e-4 c 0.4886,0.001 1.56944,0.39983 2.1649,0.79857 0.43586,0.29187 1.40579,1.22946 1.40579,1.35892 0,0.10747 -1.57755,1.43002 -1.70574,1.43002 -0.0456,0 -0.11999,-0.0695 -0.16544,-0.15436 z m -47.036282,-2.1077 v -1.09204 h 2.145064 2.145064 v 1.09204 1.09203 h -2.145064 -2.145064 z m 45.148732,-1.45733 c 0.0563,-0.0225 0.12358,-0.0198 0.1495,0.006 0.0259,0.0259 -0.0202,0.0444 -0.10237,0.041 -0.0909,-0.004 -0.10936,-0.0222 -0.0471,-0.0471 z"
       style="fill:#ffffff;stroke-width:0.07800233" />
  </g>
</svg>
