<?xml version="1.0" encoding="UTF-8" standalone="no"?>
<svg
   xmlns:dc="http://purl.org/dc/elements/1.1/"
   xmlns:cc="http://creativecommons.org/ns#"
   xmlns:rdf="http://www.w3.org/1999/02/22-rdf-syntax-ns#"
   xmlns:svg="http://www.w3.org/2000/svg"
   xmlns="http://www.w3.org/2000/svg"
   xmlns:sodipodi="http://sodipodi.sourceforge.net/DTD/sodipodi-0.dtd"
   xmlns:inkscape="http://www.inkscape.org/namespaces/inkscape"
   width="500"
   height="200"
   viewBox="0 0 500 200"
   version="1.1"
   id="svg52"
   sodipodi:docname="virtualboy.svg"
   inkscape:version="0.92.5 (2060ec1f9f, 2020-04-08)"
   style="fill:none">
  <metadata
     id="metadata58">
    <rdf:RDF>
      <cc:Work
         rdf:about="">
        <dc:format>image/svg+xml</dc:format>
        <dc:type
           rdf:resource="http://purl.org/dc/dcmitype/StillImage" />
        <dc:title />
      </cc:Work>
    </rdf:RDF>
  </metadata>
  <defs
     id="defs56" />
  <sodipodi:namedview
     pagecolor="#ffffff"
     bordercolor="#666666"
     borderopacity="1"
     objecttolerance="10"
     gridtolerance="10"
     guidetolerance="10"
     inkscape:pageopacity="0"
     inkscape:pageshadow="2"
     inkscape:window-width="1366"
     inkscape:window-height="743"
     id="namedview54"
     showgrid="false"
     inkscape:zoom="1.1445877"
     inkscape:cx="420.94145"
     inkscape:cy="-9.6301361"
     inkscape:window-x="0"
     inkscape:window-y="0"
     inkscape:window-maximized="1"
     inkscape:current-layer="svg52"
     inkscape:pagecheckerboard="true" />
  <path
     d="M 44.149789,56.059905 C 27.275316,56.054961 16,45.666601 16,33.07096 16,20.475317 27.301074,9.967797 44.124033,10.000074 H 203.09944 c 16.82252,-0.03228 28.12368,10.475243 28.12368,23.070886 0,12.595641 -11.27479,22.98398 -28.14916,22.988945 z"
     id="path2"
     inkscape:connector-curvature="0"
     style="fill:#e60012;stroke-width:0.81931919" />
  <path
     d="m 44.201214,15.665969 c -13.358946,0.02234 -21.558925,7.778841 -21.558925,17.375132 0,9.593848 8.148554,17.414902 21.558925,17.372673 H 203.02208 c 13.41002,0.03979 21.56152,-7.778825 21.56152,-17.372673 0,-9.59377 -8.19984,-17.350306 -21.55887,-17.372657 z"
     id="path4"
     inkscape:connector-curvature="0"
     style="fill:#ffffff;stroke-width:0.81931919" />
  <path
     d="m 207.62922,25.657002 c 0,-1.842285 1.72032,-3.336958 3.84148,-3.336958 2.1203,0 3.84149,1.494673 3.84149,3.336958 0,1.842283 -1.72119,3.337032 -3.84149,3.337032 -2.12116,0 -3.84148,-1.494749 -3.84148,-3.337032 z m 3.84148,2.701379 c 1.71504,0 3.10659,-1.20915 3.10659,-2.698936 0,-1.492154 -1.39155,-2.698859 -3.10659,-2.698859 -1.71504,0 -3.10659,1.209149 -3.10659,2.698859 0,1.489786 1.39155,2.698936 3.10659,2.698936 z"
     id="path6"
     inkscape:connector-curvature="0"
     style="clip-rule:evenodd;fill:#e60012;fill-rule:evenodd;stroke-width:0.81931919" />
  <path
     d="m 213.38265,24.830283 c 0,-0.707664 -0.60303,-1.065201 -1.81702,-1.065201 h -1.66932 v 3.697013 h 1.03729 v -1.514529 h 0.50546 l 0.81489,1.514529 h 1.15156 l -0.95114,-1.651068 c 0.58018,-0.126687 0.92828,-0.494151 0.92828,-0.980744 z m -1.94359,0.576015 h -0.50546 v -1.075054 h 0.45447 c 0.62326,0 0.92916,0.166322 0.92916,0.551197 0,0.367463 -0.28568,0.523857 -0.87817,0.523857 z"
     id="path8"
     inkscape:connector-curvature="0"
     style="clip-rule:evenodd;fill:#e60012;fill-rule:evenodd;stroke-width:0.81931919" />
  <path
     d="m 130.35657,39.662935 c 0,-0.809459 -0.005,-0.873987 -0.005,-0.873987 l 7.47638,-0.0051 c -1.3054,3.404004 -5.58465,5.914168 -10.6489,5.914168 -6.10505,0 -11.05238,-3.622483 -11.05238,-8.094133 0,-4.471651 4.94733,-8.096653 11.05238,-8.096653 6.10505,0 11.07523,3.704421 11.07523,8.176072 0,0.0075 -14.13962,0.0027 -14.13962,0.0027 0,0 -0.005,2.187372 -0.005,2.976976 0,2.636776 2.03239,3.222717 3.14088,3.222717 1.10937,0 3.10659,-0.585941 3.10659,-3.222717 z m -5.74465,-8.049536 c -0.47731,0.720036 -0.50897,1.564241 -0.49753,2.82799 l 6.26239,0.0026 c 0.0114,-1.263825 -0.01,-2.107954 -0.48612,-2.83051 -0.58545,-0.88842 -1.66229,-1.310484 -2.63892,-1.315905 0,0 8.7e-4,0 8.7e-4,0 h -0.003 c 8.8e-4,0 8.8e-4,0 0.002,0 -0.97751,0.0054 -2.05436,0.427485 -2.63981,1.315905 z"
     id="path10"
     inkscape:connector-curvature="0"
     style="clip-rule:evenodd;fill:#e60012;fill-rule:evenodd;stroke-width:0.81931919" />
  <path
     d="m 153.96805,28.748296 c 2.80683,-0.06957 8.4996,1.526976 8.46004,7.235036 -0.006,1.013046 -0.003,7.84595 -0.003,7.84595 h -7.45615 c 0,0 0,-8.56843 0,-9.469755 0,-1.256265 -1.38365,-2.654186 -3.43009,-2.654186 -2.04382,0 -3.5637,1.397921 -3.5637,2.654186 0,0.615799 0.009,9.469755 0.009,9.469755 h -7.45089 l 0.006,-14.418071 7.44825,-0.0049 c 0,0 -0.01,1.159512 0,1.517049 1.43463,-1.18937 3.50393,-2.112993 5.982,-2.175001 z"
     id="path12"
     inkscape:connector-curvature="0"
     style="fill:#e60012;stroke-width:0.81931919" />
  <path
     d="m 92.969469,28.748296 c 2.806651,-0.06957 8.500141,1.526976 8.460041,7.235036 -0.005,1.013046 -0.003,7.84595 -0.003,7.84595 h -7.456856 c 0,0 0,-8.56843 0,-9.469755 0,-1.256265 -1.383376,-2.654186 -3.429827,-2.654186 -2.043538,0 -3.564045,1.397921 -3.564045,2.654186 0,0.615799 0.0086,9.469755 0.0086,9.469755 h -7.45124 l -0.0029,-14.418071 7.456872,-0.0049 c 0,0 -0.0086,1.159512 0,1.517049 1.434797,-1.18937 3.501198,-2.112993 5.982067,-2.175001 z"
     id="path14"
     inkscape:connector-curvature="0"
     style="fill:#e60012;stroke-width:0.81931919" />
  <path
     d="m 186.0132,22.151127 h -7.40781 v 0 c 0,0 0,4.640491 0.005,7.977449 -1.19992,-0.585942 -2.46664,-1.149509 -4.24673,-1.286124 -5.4106,-0.412138 -9.54392,3.744207 -9.54392,7.550421 0,5.017882 4.45593,6.875134 5.13369,7.148211 2.52378,1.022973 5.76486,1.025417 8.63674,-0.541267 0,0.134095 0.003,0.834276 0.003,0.834276 h 7.41924 z m -7.35331,11.823448 v 2.577212 0 c 0,0 0.003,1.631289 0.003,2.557356 0,2.227158 -1.77482,2.810655 -2.94396,2.810655 -1.192,0 -2.94132,-0.583497 -2.94132,-2.810655 0,-0.767154 0.003,-2.564764 0.003,-2.564764 0,0 -0.003,-1.829911 -0.003,-2.569804 0,-2.229601 1.74932,-2.798208 2.94396,-2.798208 1.1665,0 2.93868,0.568607 2.93868,2.798208 z"
     id="path16"
     inkscape:connector-curvature="0"
     style="clip-rule:evenodd;fill:#e60012;fill-rule:evenodd;stroke-width:0.81931919" />
  <path
     d="m 188.45697,36.527121 c 0,-4.471651 4.91043,-8.096653 10.96977,-8.096653 6.05934,0 10.96976,3.625002 10.96976,8.096653 0,4.47165 -4.91042,8.096654 -10.96976,8.096654 -6.05671,0 -10.96977,-3.625004 -10.96977,-8.096654 z m 13.9823,3.036617 c 0,-0.873987 0.003,-3.053953 0.003,-3.053953 l 0.003,0.0074 c -0.008,-0.470326 -0.006,-1.626554 -0.005,-2.512225 0,-0.203739 0,-0.393122 0,-0.556617 0,-2.289166 -1.56912,-3.2302 -3.06703,-3.2302 -1.4944,0 -3.06703,0.941034 -3.06703,3.2302 0,0.873986 -0.005,3.006758 -0.005,3.006758 0,0 -0.003,2.234641 -0.003,3.108629 0,2.299092 1.56911,3.247535 3.07581,3.247535 1.5032,0 3.06704,-0.948443 3.06704,-3.247535 z"
     id="path18"
     inkscape:connector-curvature="0"
     style="clip-rule:evenodd;fill:#e60012;fill-rule:evenodd;stroke-width:0.81931919" />
  <path
     d="m 67.875107,26.57818 v -4.431864 h 7.522622 v 4.431864 z"
     id="path20"
     inkscape:connector-curvature="0"
     style="fill:#e60012;stroke-width:0.81931919" />
  <path
     d="M 67.892249,43.834093 V 29.413578 l 7.50548,0.0026 v 14.41807 z"
     id="path22"
     inkscape:connector-curvature="0"
     style="fill:#e60012;stroke-width:0.81931919" />
  <path
     d="m 105.5487,43.834323 0.002,-14.390733 h -4.08151 v -2.140256 l 4.0841,-0.0027 -0.005,-2.919856 h 7.51066 v 2.917413 h 4.06476 v 2.145219 h -4.06476 l 0.006,14.390731 z"
     id="path24"
     inkscape:connector-curvature="0"
     style="fill:#e60012;stroke-width:0.81931919" />
  <path
     d="m 37.347205,43.834093 0.0028,-21.682966 h 7.77702 l 10.757992,15.120696 -0.0057,-15.120696 h 7.716981 V 43.834093 H 55.890689 L 45.075612,28.713397 v 15.120696 z"
     id="path26"
     inkscape:connector-curvature="0"
     style="fill:#e60012;stroke-width:0.81931919" />
  <path
     d="M 16,65.951607 40.638451,184.08527 65.149259,65.951607 H 51.883043 L 40.638451,132.34707 29.267031,65.951607 Z"
     id="path28"
     inkscape:connector-curvature="0"
     style="fill:#fe0016;stroke-width:1.01706707" />
  <path
     d="M 70.581923,65.952116 H 83.848038 V 184.08629 H 70.581923 Z"
     id="path30"
     inkscape:connector-curvature="0"
     style="fill:#fe0016;stroke-width:1.01706707" />
  <path
     d="m 95.71711,65.93869 v 118.15166 h 13.2711 v -61.04639 l 18.45488,61.04538 h 12.23531 l -14.76475,-55.86139 c 8.20264,-4.92057 10.61716,-11.36267 10.61716,-11.36267 V 79.333261 C 130.09561,67.267285 120.72435,65.93869 120.72435,65.93869 Z m 13.2711,12.026209 h 13.27089 v 41.056561 h -13.27089 z"
     id="path32"
     inkscape:connector-curvature="0"
     style="fill:#fe0016;stroke-width:1.01706707" />
  <path
     d="m 139.69367,65.952116 h 39.67375 V 77.954321 H 166.09977 V 184.08527 h -13.2656 V 77.955135 h -13.1405 z"
     id="path34"
     inkscape:connector-curvature="0"
     style="fill:#fe0016;stroke-width:1.01706707" />
  <path
     d="m 252.77017,65.93869 -25.63112,118.02657 v 0.12408 h 13.14662 l 2.77863,-15.92422 h 18.53808 l 2.65352,15.92422 h 13.27069 z m 0,50.92556 6.0546,40.68269 h -13.10593 z"
     id="path36"
     inkscape:connector-curvature="0"
     style="fill:#fe0016;stroke-width:1.01706707" />
  <path
     d="m 282.84382,65.952116 h 13.26765 V 172.08185 h 19.83789 v 12.00342 h -33.10351 z"
     id="path38"
     inkscape:connector-curvature="0"
     style="fill:#fe0016;stroke-width:1.01706707" />
  <path
     d="m 424.73283,65.952116 h 12.12852 l 12.38177,50.919264 11.2447,-50.919264 h 13.3907 l -18.57164,69.489894 v 48.64326 h -13.26663 v -48.64224 z"
     id="path40"
     inkscape:connector-curvature="0"
     style="fill:#fe0016;stroke-width:1.01706707" />
  <path
     d="m 400.9243,65.951811 c -15.07802,0 -19.92537,13.382162 -19.92537,13.382162 0.12408,0.189785 0,88.834197 0,91.361607 1.99956,14.35997 19.92537,13.38969 19.92537,13.38969 19.89179,0 19.88569,-13.38969 19.88569,-13.38969 V 79.333159 C 415.66668,65.289598 400.9243,65.951811 400.9243,65.951811 Z m -6.65569,13.381348 h 13.27171 v 92.729361 h -13.27171 z"
     id="path42"
     inkscape:connector-curvature="0"
     style="fill:#fe0016;stroke-width:1.01706707" />
  <path
     d="m 184.54633,65.952116 h 13.39375 V 170.69355 h 13.39274 V 65.952116 h 13.13949 V 170.69355 c 0,0 -4.2961,13.39274 -19.33037,13.39274 -15.03531,0 -20.59561,-13.39274 -20.59561,-13.39274 z"
     id="path44"
     inkscape:connector-curvature="0"
     style="fill:#fe0016;stroke-width:1.01706707" />
  <path
     d="m 330.61139,65.93869 v 118.15166 h 26.66548 c 12.37669,-3.22308 13.14558,-12.02783 13.14558,-12.02783 0,0 -0.0203,-31.55756 -0.0203,-39.71545 -0.92858,-5.14942 -5.16264,-5.32231 -5.16264,-5.32231 0,0 -0.0173,-1.4361 0,-2.57115 4.67852,-0.358 5.18399,-5.43317 5.18399,-5.43317 0,0 -0.0193,-31.527046 0,-39.687992 C 368.39853,69.695737 357.2769,65.93869 357.2769,65.93869 Z m 13.31139,13.476648 h 13.35306 v 39.605102 h -13.35306 z m -0.0406,51.592262 h 13.39375 v 41.05492 h -13.39375 z"
     id="path46"
     inkscape:connector-curvature="0"
     style="fill:#fe0016;stroke-width:1.01706707" />
  <path
     d="m 463.33255,172.08286 h 9.22073 v 1.37203 h -3.91571 v 10.63038 h -1.32829 v -10.63038 h -3.97876 v -1.37203 z"
     id="path48"
     inkscape:connector-curvature="0"
     style="fill:#fe0016;stroke-width:1.01706707" />
  <path
     d="m 473.88157,184.08527 v -12.00241 h 1.32728 l 4.73851,10.70769 4.54731,-10.70769 h 1.39033 v 12.00241 h -1.39033 v -9.28989 l -3.92079,9.28989 h -1.3405 l -4.0225,-9.28989 v 9.28989 z"
     id="path50"
     inkscape:connector-curvature="0"
     style="fill:#fe0016;stroke-width:1.01706707" />
</svg>
