<?xml version="1.0" encoding="UTF-8" standalone="no"?>
<svg
   xmlns:dc="http://purl.org/dc/elements/1.1/"
   xmlns:cc="http://creativecommons.org/ns#"
   xmlns:rdf="http://www.w3.org/1999/02/22-rdf-syntax-ns#"
   xmlns:svg="http://www.w3.org/2000/svg"
   xmlns="http://www.w3.org/2000/svg"
   xmlns:sodipodi="http://sodipodi.sourceforge.net/DTD/sodipodi-0.dtd"
   xmlns:inkscape="http://www.inkscape.org/namespaces/inkscape"
   width="500"
   height="200"
   viewBox="0 0 500 200"
   version="1.1"
   id="svg18"
   sodipodi:docname="wonderswancolor.svg"
   style="fill:none"
   inkscape:version="0.92.5 (2060ec1f9f, 2020-04-08)">
  <metadata
     id="metadata24">
    <rdf:RDF>
      <cc:Work
         rdf:about="">
        <dc:format>image/svg+xml</dc:format>
        <dc:type
           rdf:resource="http://purl.org/dc/dcmitype/StillImage" />
        <dc:title />
      </cc:Work>
    </rdf:RDF>
  </metadata>
  <defs
     id="defs22" />
  <sodipodi:namedview
     pagecolor="#ffffff"
     bordercolor="#666666"
     borderopacity="1"
     objecttolerance="10"
     gridtolerance="10"
     guidetolerance="10"
     inkscape:pageopacity="0"
     inkscape:pageshadow="2"
     inkscape:window-width="1366"
     inkscape:window-height="743"
     id="namedview20"
     showgrid="false"
     inkscape:pagecheckerboard="true"
     inkscape:zoom="1.1748028"
     inkscape:cx="347.59922"
     inkscape:cy="15.104478"
     inkscape:window-x="0"
     inkscape:window-y="0"
     inkscape:window-maximized="1"
     inkscape:current-layer="svg18" />
  <path
     d="m 196.92998,56.294727 9.28,-10.944268 h -13.69484 l -3.41648,5.501171 -4.79124,4.516372 h -14.56404 l -12.10171,7.455434 -3.32983,12.43572 c -0.73835,2.737012 1.67893,4.950889 5.38515,4.950889 h 23.58234 l 10.04639,0.246486 5.31293,-20.108242 c 0.44947,-1.649616 -0.2583,-3.127007 -1.70782,-4.037928 z m -16.01101,20.077995 -5.08182,0.122776 h -6.70212 c -0.91169,0 -1.52005,-0.578704 -1.34672,-1.231074 l 3.27205,-12.435805 6.05128,-3.722024 h 6.7752 c 0.89724,0 1.52004,0.521182 1.33142,1.231158 l -4.29929,16.039302 z m 249.41793,3.808264 -8.29524,-0.04359 5.646,-21.063091 h -5.05294 c -4.60346,0 -9.19248,2.794534 -10.08972,6.195386 l -1.34671,4.950974 c -0.85306,3.447073 2.17173,6.239569 6.77519,6.239569 h 3.95263 l -4.93653,3.721854 h -8.38191 c -7.42688,0 -12.34897,-4.473294 -10.8867,-9.960149 l 1.39004,-4.950888 c 1.53449,-5.472071 8.72942,-9.916391 16.14101,-9.916391 h 13.43484 l 13.60731,-0.504784 -6.71741,25.130842 -5.24071,0.205278 z M 334.82143,47.765518 h -18.60247 c -1.83867,0 -3.85067,1.666074 -4.41569,3.77935 l -0.53529,1.953371 c -0.53443,2.113361 0.47836,3.779291 2.34592,3.779291 h 15.18598 c 4.61791,0 7.29604,4.27065 5.83378,9.583409 l -1.05613,3.763063 c -1.44782,5.298569 -6.47102,9.569134 -11.08893,9.569134 h -51.29062 l 6.63075,-5.718302 h 37.84135 c 1.85311,0 3.80733,-1.752255 4.38595,-3.849133 l 0.52169,-1.895933 c 0.57862,-2.113192 -0.47836,-3.836728 -2.33147,-3.836728 h -15.19958 c -4.61791,0 -7.15075,-4.270735 -5.776,-9.496574 l 1.05613,-3.849133 c 1.43423,-5.225814 6.3988,-9.496472 11.08977,-9.496472 h 18.4283 l 14.24541,-0.869676 -7.26715,6.587094 z m -84.04845,32.413514 h -8.42523 l 4.64679,-17.35772 12.10257,-7.469793 H 279.291 c 5.55933,0 9.1347,3.344435 8.03439,7.469793 l -0.0323,0.08726 -5.97907,3.721854 h -8.43968 l 1.02809,-3.820415 c 0.60836,-2.096963 -1.30253,-3.750657 -4.05373,-3.750657 h -3.38675 l -6.05128,3.750657 -4.53124,17.155416 -5.11071,0.205108 z m -107.54921,0.0037 h -8.43968 l 4.6468,-17.357721 c 0.56502,-2.096963 -1.28809,-3.750657 -4.03844,-3.750657 h -8.43968 l -3.99596,15.156079 -6.64435,5.950089 h -8.44053 l 6.80409,-25.392537 13.21732,0.566724 h 16.9227 c 5.55933,0 9.14914,3.344434 8.03439,7.469792 l -4.51595,17.155332 -5.11071,0.205278 z m 332.46887,0.0024 h -8.45497 l 4.66209,-17.357721 c 0.56417,-2.096793 -1.28894,-3.750657 -4.03929,-3.750657 h -8.45413 l -3.98066,15.155994 -6.65964,5.950259 h -8.42524 l 6.78964,-25.392537 13.23177,0.566639 h 16.9227 c 5.57377,0 9.14914,3.344434 8.04883,7.469623 l -4.53039,17.155331 -5.11071,0.205193 z m -262.72276,-4.951399 1.18782,-4.516711 h 16.80714 l 12.10257,-7.455434 0.72391,-2.954526 c 0.73836,-2.737097 -1.67893,-4.950888 -5.38515,-4.950888 h -23.52456 l -12.10172,7.469708 -1.14364,4.270565 c -0.0433,0.122691 -0.0544,0.246402 -0.0875,0.369178 l -2.06978,7.759442 c -0.73835,2.720614 1.67893,4.950888 5.38515,4.950888 h 22.87372 l 6.05129,-3.721854 H 214.303 c -0.89724,0 -1.52004,-0.566724 -1.33141,-1.231158 z m 3.24315,-12.406662 6.05129,-3.750572 h 8.93163 c 0.8828,0 1.52004,0.521097 1.33142,1.230988 l -0.81058,2.954611 -6.03684,3.721854 h -10.58252 l 1.11475,-4.154841 z M 93.102278,80.184385 H 69.505753 c -3.70588,0 -6.109061,-2.228236 -5.38532,-4.950974 l 3.329651,-12.406662 12.102313,-7.469792 h 23.524053 c 3.70622,0 6.10906,2.216085 5.38515,4.951058 l -3.27204,12.420002 z M 91.713083,72.728611 95.027609,60.30861 c 0.20137,-0.710062 -0.419732,-1.231074 -1.331418,-1.231074 h -6.775195 l -6.036755,3.750658 -3.271789,12.406747 c -0.172651,0.664435 0.434262,1.230903 1.332098,1.230903 h 6.702549 l 6.065984,-3.734089 z M 381.34716,80.18498 h -45.48489 l 5.67488,-21.237612 5.84821,-3.602901 8.2808,-0.549391 -5.81933,21.786492 h 3.19897 l 5.84822,-3.590666 3.764,-14.042429 5.83377,-3.602987 8.29524,-0.549306 -4.87876,18.196251 -2.33061,3.590582 h 4.57457 l 5.89155,-3.590582 3.70622,-14.041324 5.84821,-3.602987 8.29524,-0.550495 -4.8932,18.19744 -11.65309,7.195098 z M 47.957591,80.19018 H 0.85120667 l 7.64357393,-34.265886 6.0657034,-4.48768 8.555574,-0.578694 -7.78833,34.859628 h 3.32965 l 6.051284,-4.487653 5.660271,-25.305346 6.051199,-4.487677 8.570104,-0.578675 -6.789555,30.371443 -2.403095,4.487568 h 4.733885 l 6.108976,-4.487568 5.587879,-25.305295 6.051199,-4.487676 8.570104,-0.578712 -6.789555,30.371428 -12.102228,8.961117"
     id="path2"
     inkscape:connector-curvature="0"
     style="fill:#ffffff;stroke-width:0.84966081" />
  <path
     d="m 489.43336,78.793915 h -0.84967 v -5.591023 h 2.1318 c 1.31953,0 1.97292,0.488385 1.97292,1.588951 0,1.00005 -0.62705,1.434397 -1.44953,1.54001 l 1.58717,2.462062 h -0.94397 l -1.47841,-2.424337 h -0.97031 z m 1.01364,-3.142216 c 0.71711,0 1.35521,-0.04962 1.35521,-0.910751 0,-0.690179 -0.62705,-0.819668 -1.21332,-0.819668 h -1.15553 v 1.730419 z"
     id="path4"
     inkscape:connector-curvature="0"
     style="clip-rule:evenodd;fill:#ffffff;fill-rule:evenodd;stroke-width:0.84966081" />
  <path
     d="m 485.53426,75.984257 c 0,-2.781365 2.2584,-4.833636 4.92294,-4.833636 2.64499,0 4.89659,2.052271 4.89659,4.833636 0,2.809658 -2.2516,4.860059 -4.89659,4.860059 -2.66454,0 -4.92294,-2.050401 -4.92294,-4.860059 z m 4.92209,4.052287 c 2.19637,0 3.92033,-1.717844 3.92033,-4.052287 0,-2.29298 -1.72396,-4.027223 -3.92033,-4.027223 -2.21507,0 -3.94583,1.734243 -3.94583,4.027223 0,2.334443 1.73076,4.052287 3.94583,4.052287 z"
     id="path6"
     inkscape:connector-curvature="0"
     style="clip-rule:evenodd;fill:#ffffff;fill-rule:evenodd;stroke-width:0.84966081" />
  <path
     d="M 31.979465,154.61547 C 24.671107,154.48632 15.548724,152.80144 8.2144606,145.8818 1.2689645,139.35131 -0.13049993,131.03228 1.4244601,122.19496 4.5084696,104.75329 17.181433,96.46009 32.420014,91.19916 c 9.122468,-3.16175 18.685485,-3.39499 28.274417,-2.48789 4.250258,0.41464 8.526346,0.75153 12.724775,1.55488 0.647866,0.12966 0.647866,0.31106 0.518293,0.80344 -1.86594,6.91955 -3.084014,14.02059 -5.545991,20.75866 -0.570122,1.58122 -1.632708,2.85061 -2.980355,3.80988 -1.321732,0.93292 -2.798953,0.72561 -4.172514,0.0255 -1.580879,-0.80293 -1.840026,-2.30598 -1.86594,-3.83537 -0.07774,-3.39491 0,-6.81581 -1.684538,-9.95165 -2.228745,-4.12069 -7.982138,-5.83114 -13.4763,-3.99112 -12.724775,4.27618 -23.53178,21.66618 -21.66584,34.88266 1.554964,11.04049 12.595202,16.37891 23.220805,11.32598 4.250173,-2.02135 8.137626,-4.48366 11.765847,-7.43793 2.591636,-2.09952 6.245772,-1.8922 7.956224,0.31097 1.736367,2.25415 0.958927,5.54574 -1.840025,7.64525 -8.915151,6.76415 -18.322681,9.95123 -31.669407,10.00306 z"
     id="path8"
     inkscape:connector-curvature="0"
     style="fill:#178ee6;stroke-width:0.84966081" />
  <path
     d="m 114.36674,130.07301 c 0.0263,-6.55683 -1.84036,-9.95122 -6.16769,-11.24696 -0.0518,0 -0.0782,-0.0263 -0.12999,-0.0263 -1.01025,-0.20731 -2.04684,-0.38829 -3.05793,-0.59561 0.57012,-1.29658 1.89219,-1.71121 2.95427,-2.35866 6.635,-3.93902 13.60562,-5.10561 20.99172,-2.35865 3.29158,1.2439 6.09037,7.30878 6.03854,12.49171 -0.12915,10.70318 -6.11586,17.75281 -14.53855,23.09123 -9.04464,5.75305 -19.04855,8.21537 -29.751725,7.0233 -7.049126,-0.77744 -13.268983,-3.62806 -17.104522,-9.84842 -4.535319,-7.3861 -3.006269,-14.84952 1.321648,-21.71733 4.820465,-7.64525 11.351043,-13.34681 20.473851,-15.42016 1.658538,-0.38872 3.317079,-0.38872 4.950128,0.0518 2.92793,0.77753 3.16159,3.1621 0.93293,6.09003 -4.483666,5.93488 -8.940987,11.99976 -9.537449,19.77416 -0.362805,4.84646 0.310976,9.6411 5.079272,12.38805 5.209277,2.98061 12.051597,-0.18183 15.083177,-6.60866 1.68488,-3.42073 2.54049,-6.97147 2.46232,-10.72952 z"
     id="path10"
     inkscape:connector-curvature="0"
     style="fill:#fcc11f;stroke-width:0.84966081" />
  <path
     d="m 246.66742,154.56364 c -3.39524,0.0263 -6.505,0.38914 -8.91549,-2.20232 -3.08427,-3.34342 -1.32207,-6.89415 -0.49195,-10.34038 1.7622,-7.36061 3.60171,-14.72037 5.64939,-22.02915 1.14025,-4.04269 4.22452,-6.55683 8.18903,-7.64525 3.18793,-0.90693 6.45318,-0.82918 8.94099,1.94402 2.41048,2.66879 0.15548,5.23476 -0.25915,7.85257 -0.12915,0.8811 -0.51829,1.71037 -0.7511,2.59147 -0.23366,0.80292 -0.38915,1.63304 -0.59646,2.46231 0.64829,-0.64829 1.34756,-1.27024 1.94402,-1.94402 8.18988,-9.30379 17.98562,-15.31641 30.86563,-14.87586 0.70012,0.0259 1.21841,0.12957 0.98561,1.01075 -1.8922,7.1273 -3.70623,14.27974 -5.67574,21.38036 -0.54463,1.99585 -1.84036,3.60256 -4.14719,3.68073 -2.30598,0.0773 -3.10976,-1.68488 -3.8872,-3.4989 -1.78769,-4.19818 -5.67574,-5.39025 -9.64025,-2.95428 -8.76001,5.44208 -13.76196,13.73562 -17.26086,23.11673 -0.62705,1.68317 -3.16584,1.45122 -4.94928,1.45122 z"
     id="path12"
     inkscape:connector-curvature="0"
     style="fill:#f675a9;stroke-width:0.84966081" />
  <path
     d="m 171.12238,140.72436 c 1.16659,2.46232 2.628,4.77679 3.82008,7.23826 -6.27135,3.68073 -12.96837,7.04199 -20.56179,6.60102 -11.53245,-0.67378 -17.64831,-8.00806 -15.31599,-19.30685 2.77329,-13.47647 7.15245,-26.53839 11.24781,-39.6778 1.37305,-4.37983 5.05378,-6.81589 9.64025,-7.46384 5.2611,-0.72561 8.50086,3.47273 7.04964,9.07064 -3.16159,12.23239 -6.40135,24.43905 -9.53744,36.67076 -0.67379,2.59232 -0.93293,5.2611 -0.64745,7.95623 0.36281,3.78439 3.08342,5.44292 6.60782,4.01719 2.87695,-1.16573 5.23561,-3.18707 7.69707,-5.10561 z"
     id="path14"
     inkscape:connector-curvature="0"
     style="fill:#f53216;stroke-width:0.84966081" />
  <path
     d="m 233.76108,119.49984 -0.0255,-0.0782 c -0.72561,-1.73671 -1.3739,-3.65439 -2.98061,-4.66464 -5.88305,-3.70622 -12.02525,-3.1101 -18.21928,-0.70012 -0.15549,-0.0255 -0.33647,0.1164 -1.2439,0.57012 -2.33232,1.16658 -3.26525,1.58122 -5.28659,2.74695 -0.31098,0.18183 -0.54379,0.54464 -0.80293,0.82927 0.3628,0.0782 0.69927,0.15634 1.06207,0.23366 5.33842,0.90744 7.33428,2.87695 8.16354,8.11171 0.82927,5.15744 0.10366,10.05574 -2.30682,14.74586 -3.3944,6.63501 -11.29879,10.49671 -17.51916,4.74281 -0.10366,-0.0773 -0.18098,-0.23281 -0.28464,-0.31098 -0.64829,-1.16573 -1.94402,-3.88719 -2.53963,-6.24585 -1.0111,-5.49391 1.1139,-10.46952 3.21341,-15.21233 1.42489,-3.23976 4.04269,-5.96122 6.21952,-8.86366 1.0111,-1.34756 2.04768,-2.66878 1.3739,-4.37958 -0.59646,-1.55496 -2.125,-1.60679 -3.57622,-1.78819 -2.48866,-0.31098 -4.74281,0.36289 -7.0233,1.0885 -4.7428,1.96951 -7.63165,3.89909 -11.2597,7.50165 l -3.04603,3.43518 c -4.0172,4.58647 -6.19403,9.8994 -6.42769,16.01611 -0.0518,1.16573 -0.12915,2.30598 -0.18098,3.47256 1.16574,2.46232 2.48696,4.68588 3.67904,7.1482 0.19287,0.23535 0.36365,0.39339 0.51914,0.57437 2.77329,2.90329 6.11671,4.97646 9.84842,6.32402 6.09036,2.17683 12.36171,1.71037 18.63306,0.85476 0.0263,-0.0518 0.0782,-0.10366 0.13,-0.15549 -0.0263,0.0263 -0.045,0.0518 -0.0646,0.0782 -0.0195,0.0255 -0.0391,0.0518 -0.0654,0.0773 0.77829,-0.2328 1.19292,-0.21666 1.97036,-0.44947 0.23366,0 1.19208,-0.32797 1.42488,-0.32797 3.55073,-0.8811 6.86781,-2.33232 10.18489,-3.86086 4.58731,-2.51414 10.23671,-7.12695 13.42464,-11.29964 4.06902,-5.31292 5.67573,-15.39415 3.0061,-20.21427 z"
     id="path16"
     inkscape:connector-curvature="0"
     style="fill:#7487bf;stroke-width:0.84966081" />
</svg>
