<?xml version="1.0" encoding="UTF-8" standalone="no"?>
<svg
   xmlns:dc="http://purl.org/dc/elements/1.1/"
   xmlns:cc="http://creativecommons.org/ns#"
   xmlns:rdf="http://www.w3.org/1999/02/22-rdf-syntax-ns#"
   xmlns:svg="http://www.w3.org/2000/svg"
   xmlns="http://www.w3.org/2000/svg"
   xmlns:sodipodi="http://sodipodi.sourceforge.net/DTD/sodipodi-0.dtd"
   xmlns:inkscape="http://www.inkscape.org/namespaces/inkscape"
   width="500"
   height="200"
   viewBox="0 0 500 200"
   version="1.1"
   id="svg42"
   sodipodi:docname="zxspectrum.svg"
   inkscape:version="0.92.5 (2060ec1f9f, 2020-04-08)"
   style="fill:none">
  <metadata
     id="metadata48">
    <rdf:RDF>
      <cc:Work
         rdf:about="">
        <dc:format>image/svg+xml</dc:format>
        <dc:type
           rdf:resource="http://purl.org/dc/dcmitype/StillImage" />
        <dc:title />
      </cc:Work>
    </rdf:RDF>
  </metadata>
  <defs
     id="defs46" />
  <sodipodi:namedview
     pagecolor="#ffffff"
     bordercolor="#666666"
     borderopacity="1"
     objecttolerance="10"
     gridtolerance="10"
     guidetolerance="10"
     inkscape:pageopacity="0"
     inkscape:pageshadow="2"
     inkscape:window-width="1366"
     inkscape:window-height="743"
     id="namedview44"
     showgrid="false"
     inkscape:pagecheckerboard="true"
     inkscape:zoom="0.78719526"
     inkscape:cx="410.27929"
     inkscape:cy="133.04538"
     inkscape:window-x="0"
     inkscape:window-y="0"
     inkscape:window-maximized="1"
     inkscape:current-layer="svg42" />
  <g
     transform="matrix(6.3811088,0,0,4.9428602,-719.77347,-378.155)"
     id="g845">
    <path
       d="m 139.387,110.068 h 9.476 l 12.625,-27.761 h -9.476 z"
       id="path4-3"
       inkscape:connector-curvature="0"
       style="clip-rule:evenodd;fill:#cc2229;fill-rule:evenodd" />
    <path
       d="m 158.342,110.068 h 9.478 l 12.623,-27.761 h -9.476 z"
       id="path6-6"
       inkscape:connector-curvature="0"
       style="clip-rule:evenodd;fill:#33a457;fill-rule:evenodd" />
    <path
       d="m 148.865,110.068 h 9.477 l 12.623,-27.761 h -9.477 z"
       id="path8-7"
       inkscape:connector-curvature="0"
       style="clip-rule:evenodd;fill:#db812e;fill-rule:evenodd" />
    <path
       d="m 167.82,110.068 h 9.477 l 12.625,-27.761 h -9.479 z"
       id="path10-5"
       inkscape:connector-curvature="0"
       style="clip-rule:evenodd;fill:#00acec;fill-rule:evenodd" />
  </g>
  <path
     d="M 87.91603,32.783245 H 75.233326 V 43.72202 H 87.91603 Z"
     id="path2"
     inkscape:connector-curvature="0"
     style="fill:#ffffff;stroke-width:1.02656555" />
  <path
     d="M 72.202494,60.971709 H 18.612692 V 56.624307 H 72.140797 V 45.685532 H 6.01739 L 6,71.349568 h 53.519174 v 4.207174 H 6.0000001 V 86.775974 H 72.202494 Z"
     id="path4"
     inkscape:connector-curvature="0"
     style="fill:#ffffff;stroke-width:1.02656555" />
  <path
     d="m 240.07953,34.139133 h -12.68219 v 52.730464 h 12.68219 z"
     id="path6"
     inkscape:connector-curvature="0"
     style="fill:#ffffff;stroke-width:1.02656555" />
  <path
     d="m 323.38225,45.817549 h -12.68322 v 40.959246 h 12.68322 z"
     id="path8"
     inkscape:connector-curvature="0"
     style="fill:#ffffff;stroke-width:1.02656555" />
  <path
     d="M 87.91603,45.817549 H 75.233326 V 86.776795 H 87.91603 Z"
     id="path10"
     inkscape:connector-curvature="0"
     style="fill:#ffffff;stroke-width:1.02656555" />
  <path
     d="M 156.42368,45.817549 H 90.729744 V 86.823402 H 103.41255 V 56.756323 h 40.32791 v 30.020472 h 12.68322 z"
     id="path12"
     inkscape:connector-curvature="0"
     style="fill:#ffffff;stroke-width:1.02656555" />
  <path
     d="M 224.6985,86.776795 V 75.557563 h -52.8476 v -18.80124 h 52.8476 l 0.0174,-10.938774 h -65.54724 v 40.959246 z"
     id="path14"
     inkscape:connector-curvature="0"
     style="fill:#ffffff;stroke-width:1.02656555" />
  <path
     d="M 308.0238,86.776795 V 45.817549 h -65.18794 v 10.938774 h 52.50575 v 4.247004 H 242.83586 V 86.776795 Z M 295.34161,75.557563 h -39.82253 v -4.207276 h 39.82253 z"
     id="path16"
     inkscape:connector-curvature="0"
     style="fill:#ffffff;stroke-width:1.02656555" />
  <path
     d="m 323.38225,32.783245 h -12.68322 v 10.892169 h 12.68322 z"
     id="path18"
     inkscape:connector-curvature="0"
     style="fill:#ffffff;stroke-width:1.02656555" />
  <path
     d="m 326.54715,45.817549 v 40.959246 h 12.68321 V 56.765357 h 51.4217 V 45.817549 Z"
     id="path20"
     inkscape:connector-curvature="0"
     style="fill:#ffffff;stroke-width:1.02656555" />
  <path
     d="M 6.0000001,149.77374 H 53.33504 V 137.52887 H 23.657338 l 28.66982,-31.32031 V 95.19607 H 7.679872 v 12.2071 H 33.997933 L 6.0000001,138.16329 Z"
     id="path22"
     inkscape:connector-curvature="0"
     style="fill:#ffffff;stroke-width:1.02656555" />
  <path
     d="m 53.802436,149.77374 h 16.350828 l 11.161847,-18.18047 10.228494,18.18047 H 108.82799 L 89.565105,121.10351 107.22244,95.19607 H 91.02098 L 81.315111,112.14416 72.131763,95.19607 H 55.407676 l 17.806704,25.90744 z"
     id="path24"
     inkscape:connector-curvature="0"
     style="fill:#ffffff;stroke-width:1.02656555" />
  <path
     d="m 132.57143,131.44442 c 0.29873,6.86875 2.72553,11.85785 7.27937,14.96937 4.47993,3.01092 9.95461,4.51689 16.42505,4.51689 6.27232,0.0493 11.74699,-1.28218 16.42608,-3.99436 4.8033,-2.73785 7.25474,-7.50317 7.35431,-14.29801 0,-2.48839 -0.43629,-4.60414 -1.30682,-6.34592 -0.92082,-1.71724 -2.11575,-3.18553 -3.58374,-4.40499 -3.16079,-2.36428 -6.80715,-4.03173 -10.93805,-5.00225 -0.97011,-0.29863 -1.9166,-0.57241 -2.83743,-0.82136 -1.02041,-0.24883 -1.99051,-0.48525 -2.91134,-0.70925 -1.81702,-0.44799 -3.52215,-0.89588 -5.11435,-1.34388 -1.46799,-0.52262 -2.63827,-1.10746 -3.5088,-1.7545 -0.97113,-0.72178 -1.4567,-1.56787 -1.4567,-2.53849 0.0503,-1.79187 0.8346,-3.03627 2.35187,-3.73311 1.39407,-0.6221 2.90004,-0.93325 4.51791,-0.93325 2.36418,0 4.42963,0.46041 6.19635,1.38125 1.79238,0.97061 2.66291,2.70027 2.61364,5.18898 h 14.22204 c -0.0493,-3.16069 -0.65906,-5.83603 -1.82832,-8.02611 -1.24522,-2.23986 -2.91236,-4.044155 -5.00245,-5.412875 -4.38036,-2.762488 -9.39513,-4.143732 -15.04432,-4.143732 -5.40076,0 -10.36523,1.244403 -14.89547,3.733105 -2.18966,1.294089 -3.95638,3.011332 -5.30015,5.151612 -1.36944,2.14029 -2.05314,4.70363 -2.05314,7.69001 0.0996,4.85299 1.80368,8.42431 5.11435,10.71386 3.15977,2.33944 6.7815,4.01931 10.86312,5.03961 4.1309,0.97113 7.7516,1.94124 10.86312,2.91134 1.46799,0.52355 2.63724,1.18261 3.5088,1.97922 0.87053,0.82125 1.30682,1.84166 1.30682,3.06122 -0.0503,1.94123 -0.9465,3.37227 -2.68858,4.2931 -0.82125,0.44758 -1.72873,0.75863 -2.7245,0.93314 -1.07071,0.24843 -2.17735,0.37265 -3.323,0.37265 -2.98628,0.0503 -5.39973,-0.58412 -7.24139,-1.90325 -1.84166,-1.2442 -2.86206,-3.43489 -3.06122,-6.57002 z"
     id="path26"
     inkscape:connector-curvature="0"
     style="fill:#ffffff;stroke-width:1.02656555" />
  <path
     d="m 205.90824,118.90091 c 1.46799,0 2.68755,0.29873 3.65766,0.89599 0.97113,0.6222 1.7544,1.44345 2.35186,2.46376 1.11998,2.19007 1.68049,4.60414 1.68049,7.24252 0,2.81176 -0.56051,5.38742 -1.68049,7.72696 -0.59746,1.07071 -1.38073,1.96587 -2.35186,2.68755 -1.06969,0.69704 -2.31388,1.04607 -3.7326,1.04607 -2.86206,0 -4.90287,-1.07071 -6.12243,-3.2111 -1.16926,-2.01515 -1.7544,-4.76532 -1.7544,-8.24948 0,-2.09111 0.27409,-3.82047 0.82125,-5.18929 0.47325,-1.36882 1.08303,-2.43891 1.82934,-3.21038 0.82125,-0.82135 1.69178,-1.40619 2.61261,-1.7546 0.92083,-0.29863 1.81702,-0.448 2.68857,-0.448 z m -20.49435,44.16172 h 12.99016 v -17.58198 h 0.14988 c 2.63827,3.63301 6.40782,5.45003 11.3107,5.45003 5.64919,-0.0996 9.85605,-2.16502 12.61751,-6.19737 2.76249,-3.98205 4.14425,-8.62315 4.14425,-13.92434 0,-2.86206 -0.31105,-5.58667 -0.93315,-8.17495 -0.29873,-1.31903 -0.73399,-2.56333 -1.30682,-3.73311 -0.49788,-1.16966 -1.1323,-2.23976 -1.90428,-3.21037 -2.86103,-4.38015 -7.40359,-6.63244 -13.6256,-6.75686 -4.67806,0.0498 -8.3121,1.96608 -10.90007,5.74897 h -0.18684 v -4.59172 h -12.35574 z"
     id="path28"
     inkscape:connector-curvature="0"
     style="fill:#ffffff;stroke-width:1.02656555" />
  <path
     d="m 243.89219,125.8444 c 0.39831,-2.4887 1.33146,-4.47963 2.80048,-5.97287 1.44335,-1.41851 3.30964,-2.12786 5.59888,-2.12786 2.23997,0.0498 4.06931,0.83377 5.48802,2.35186 1.39305,1.54303 2.14039,3.45932 2.23997,5.74887 z m 29.11854,7.27948 c 0.2977,-6.8937 -1.28218,-12.6053 -4.74171,-17.13472 -3.5088,-4.5792 -8.83462,-6.93106 -15.97747,-7.05548 -5.97255,0.0498 -10.98733,1.99103 -15.04431,5.8236 -4.18018,3.83258 -6.29593,8.85978 -6.34623,15.08159 0.0503,6.66959 2.05313,11.83322 6.01054,15.4919 3.93174,3.68332 9.15799,5.54961 15.67873,5.59991 4.52921,0 8.66114,-1.04504 12.39373,-3.13615 3.60838,-2.14039 6.0475,-5.487 7.31736,-10.04187 h -12.13298 c -0.67137,1.44335 -1.66714,2.51406 -2.98628,3.2111 -1.31913,0.77095 -2.79944,1.15694 -4.44195,1.15694 -2.73785,0 -4.8536,-0.83357 -6.34623,-2.50174 -1.51829,-1.64251 -2.35186,-3.80753 -2.50174,-6.49508 z"
     id="path30"
     inkscape:connector-curvature="0"
     style="fill:#ffffff;stroke-width:1.02656555" />
  <path
     d="m 317.22901,124.61252 c -0.57282,-5.25119 -2.68755,-9.17082 -6.34623,-11.7591 -3.73259,-2.61313 -8.13758,-3.91974 -13.21498,-3.91974 -6.42116,0.0498 -11.47289,2.06566 -15.15621,6.0476 -3.70795,3.93216 -5.5876,9.13356 -5.63687,15.6039 0.0493,6.12244 2.02849,11.013 5.9356,14.67065 3.83217,3.73362 8.78535,5.62455 14.85748,5.67485 5.40077,-0.0503 9.90534,-1.53061 13.51371,-4.44297 3.60838,-2.91134 5.74877,-7.0176 6.42117,-12.31879 h -12.61854 c -0.49686,4.47993 -2.97396,6.74454 -7.42823,6.79484 -1.36841,0 -2.51406,-0.3244 -3.43489,-0.97113 -1.02041,-0.57283 -1.82934,-1.36841 -2.42577,-2.38882 -1.21956,-2.04081 -1.82934,-4.38036 -1.82934,-7.01863 0,-1.41871 0.0996,-2.82408 0.29873,-4.21816 0.19915,-1.41851 0.60978,-2.66291 1.23188,-3.733 0.59746,-1.16967 1.45567,-2.0905 2.57565,-2.76249 1.11998,-0.64704 2.55101,-0.97062 4.2931,-0.97062 1.74208,0 3.22238,0.51021 4.44194,1.53061 1.21956,1.0701 1.85398,2.46376 1.90428,4.181 z"
     id="path32"
     inkscape:connector-curvature="0"
     style="fill:#ffffff;stroke-width:1.02656555" />
  <path
     d="m 347.26221,110.09093 h -8.02569 V 98.107821 h -12.99118 v 11.983109 h -6.60801 v 8.39936 h 6.60801 v 17.65785 c -0.0749,5.25088 0.88284,8.92188 2.87438,11.01197 1.94124,1.99051 5.61223,2.98628 11.01197,2.98628 2.41448,-0.0493 4.79098,-0.17349 7.13052,-0.37265 v -9.55732 c -1.17028,0.0996 -2.28924,0.14988 -3.35995,0.14988 -1.39305,0 -2.52637,-0.2741 -3.3969,-0.82126 -0.84589,-0.52252 -1.26884,-1.51829 -1.26884,-2.98627 v -18.06848 h 8.02569 z"
     id="path34"
     inkscape:connector-curvature="0"
     style="fill:#ffffff;stroke-width:1.02656555" />
  <path
     d="m 352.80669,149.77374 h 12.99119 V 130.1376 c 0,-2.61364 0.84589,-4.82825 2.53767,-6.64496 1.61787,-1.79187 4.03235,-2.7127 7.24242,-2.76249 1.69281,0 3.34763,0.24884 4.9655,0.74662 v -11.83373 c -1.02041,-0.19916 -2.04081,-0.29873 -3.06122,-0.29873 -5.79907,0.0498 -9.7688,2.62564 -11.90919,7.72747 h -0.14885 v -6.98085 h -12.61752 z"
     id="path36"
     inkscape:connector-curvature="0"
     style="fill:#ffffff;stroke-width:1.02656555" />
  <path
     d="m 423.56683,110.09093 h -12.99119 v 21.24159 c 0,1.74208 -0.22379,3.17209 -0.67137,4.29207 -0.47325,1.11998 -1.05736,2.04081 -1.7544,2.76249 -0.72168,0.64776 -1.46902,1.10766 -2.23997,1.38176 -0.84589,0.29873 -1.65482,0.44758 -2.4268,0.44758 -2.09009,0.0503 -3.671,-0.48454 -4.74068,-1.60452 -1.11998,-1.11999 -1.67946,-2.94933 -1.67946,-5.48802 v -23.03295 h -12.99119 v 23.8542 c -0.0503,5.25088 0.99475,9.35714 3.13514,12.31879 2.14038,3.06121 5.9859,4.61646 11.53551,4.66676 2.38882,-0.0503 4.67909,-0.66008 6.86875,-1.82934 2.18967,-1.19492 3.91943,-2.7748 5.18929,-4.74068 h 0.18581 v 5.41308 h 12.58056 z"
     id="path38"
     inkscape:connector-curvature="0"
     style="fill:#ffffff;stroke-width:1.02656555" />
  <path
     d="m 431.53811,149.77374 h 12.99119 v -19.33741 c 0,-4.03194 0.53484,-6.85664 1.60452,-8.4743 1.07071,-1.59272 2.75017,-2.36418 5.04044,-2.31449 1.74208,0 3.01091,0.65956 3.80753,1.9786 0.72168,1.34387 1.082,3.21038 1.082,5.5995 v 22.5481 h 12.99119 v -19.41235 c -0.0493,-3.26017 0.28641,-5.86087 1.00808,-7.802 0.77198,-1.89145 2.47608,-2.86207 5.11435,-2.91185 3.55911,0.0498 5.36278,2.31449 5.41308,6.79422 v 23.33198 h 13.02815 v -23.70535 c 0,-1.94113 -0.13654,-3.93215 -0.41063,-5.97286 -0.24843,-1.91629 -0.85821,-3.74553 -1.82934,-5.48761 -0.92083,-1.74208 -2.31388,-3.12333 -4.1812,-4.14363 -1.89093,-1.02041 -4.41731,-1.53061 -7.57811,-1.53061 -5.25088,0.0498 -9.38178,2.19008 -12.39372,6.42086 -1.06968,-2.38913 -2.62493,-4.069 -4.66574,-5.03961 -2.04082,-0.92083 -4.33108,-1.38125 -6.86875,-1.38125 -5.00246,0.12442 -8.79767,2.32702 -11.38564,6.60749 h -0.14988 v -5.45024 h -12.61752 z"
     id="path40"
     inkscape:connector-curvature="0"
     style="fill:#ffffff;stroke-width:1.02656555" />
</svg>
