<?xml version="1.0" encoding="UTF-8"?>
<svg width="405px" height="165px" viewBox="0 0 405 165" version="1.1" xmlns="http://www.w3.org/2000/svg" xmlns:xlink="http://www.w3.org/1999/xlink">
    <title>syslogo</title>
    <g id="Page-1" stroke="none" stroke-width="1" fill="none" fill-rule="evenodd">
        <g id="syslogo" fill="#FFFFFF" fill-rule="nonzero">
            <g id="Group-11">
                <g id="Group">
                    <path d="M34.6784992,5.10070822 C39.2454491,-0.742208317 48.6983406,-1.74024163 54.3012238,3.1614916 C56.5941737,5.09439155 58.198607,7.75686649 59.0197737,10.6183164 C69.3917401,46.313799 79.8110815,81.9903315 90.1704147,117.682656 C84.0495648,117.688972 77.9223983,117.673181 71.8047067,117.688972 C68.9179901,107.850764 66.0975985,97.9904478 63.2487819,88.1396064 C51.4081905,88.108023 39.5770741,88.1301314 27.739641,88.1238147 C24.8434494,97.9714978 21.9819995,107.828656 19.1331829,117.688972 C13.0439164,117.666864 6.95464984,117.682656 0.865383314,117.676339 C10.7225414,83.6326648 20.5891745,49.5763572 30.4905493,15.542158 C31.6654493,11.9858747 32.1107743,8.01269149 34.6784992,5.10070822 M45.4863156,26.9753244 C41.1436074,41.7626407 36.8924908,56.5752237 32.5782076,71.3720151 C41.1815074,71.4130734 49.7816489,71.3846484 58.3817904,71.3846484 C54.0769821,56.5815404 49.7942822,41.7752741 45.4863156,26.9753244 Z" id="Shape"></path>
                    <path d="M163.642721,5.8681832 C166.832638,1.24122497 173.000863,-1.00434998 178.433196,0.423216657 C183.401254,1.56969163 187.207046,5.85239154 188.517754,10.6751664 C198.880246,46.342224 209.280637,81.9998065 219.643128,117.666864 C213.512804,117.707922 207.385637,117.666864 201.255312,117.692131 C198.406496,107.841289 195.586104,97.9809728 192.712021,88.1332897 C180.893538,88.1396064 169.078213,88.1111814 157.25973,88.1427647 C154.43618,97.9999228 151.524197,107.834973 148.697488,117.688972 C142.614538,117.698447 136.531589,117.682656 130.451797,117.698447 C140.302639,83.4621148 150.26718,49.2510489 160.193821,15.039983 C161.236071,11.9448164 161.640338,8.54013314 163.642721,5.8681832 M162.151988,71.3846484 C170.720546,71.3972817 179.282788,71.3878067 187.851346,71.3878067 C183.590754,56.5594321 179.257521,41.7405324 175.009563,26.9058411 C170.730021,41.7342157 166.409421,56.5499571 162.151988,71.3846484 Z" id="Shape"></path>
                    <path d="M76.4664066,0.246349994 C98.6157978,0.246349994 120.758872,0.246349994 142.901947,0.246349994 C142.901947,6.22191653 142.901947,12.1880081 142.901947,18.1635746 C134.74713,18.1698913 126.595472,18.1540996 118.443814,18.1698913 C118.443814,51.3387072 118.446972,84.5169981 118.440656,117.685814 C112.604056,117.685814 106.757981,117.685814 100.921381,117.685814 C100.921381,84.5169981 100.915064,51.3418655 100.924539,18.1698913 C92.7697229,18.1540996 84.6212231,18.1698913 76.4632483,18.1635746 C76.4664066,12.1880081 76.46009,6.21875819 76.4664066,0.246349994 Z" id="Path"></path>
                    <path d="M239.111095,0.975924978 C240.794486,0.394791658 242.591578,0.195816662 244.366561,0.240033328 C251.349636,0.265299994 258.335869,0.243191661 265.312627,0.249508328 C277.07426,0.46427499 288.298977,7.76002483 293.387052,18.3467579 C296.908593,25.2192911 297.27496,33.2098743 296.38431,40.7488158 C295.774752,48.6446489 292.464818,56.5341654 286.394502,61.7675236 C283.185635,64.6226569 279.19666,66.3534235 275.769869,68.8958818 C273.884344,70.3329234 273.792752,73.1185734 274.765519,75.1114817 C284.032069,89.415573 293.664985,103.501739 303.127352,117.685814 C296.210602,117.698447 289.287535,117.670022 282.367627,117.698447 C273.309527,104.092348 264.346177,90.4167646 255.325978,76.791715 C252.672978,72.9132817 251.952878,67.7778318 253.538361,63.3530069 C254.779586,59.960957 257.745261,57.4753487 261.048877,56.1899071 C267.356069,53.7832571 273.574827,50.0027322 277.067944,44.0524323 C279.72726,39.5770741 279.588294,34.0563076 278.391285,29.160891 C276.992144,22.8031662 270.798652,17.8035246 264.251427,18.0246079 C259.728694,18.0561913 255.202803,17.9993413 250.686386,18.0467163 C248.639786,17.9993413 246.713203,19.7774829 246.738469,21.8493495 C246.719519,53.7958905 246.751103,85.7424314 246.732153,117.695289 C240.848178,117.682656 234.967361,117.695289 229.083387,117.688972 C229.070753,83.2947231 229.089703,48.9004739 229.070753,14.5030663 C229.108653,8.47380814 233.394511,2.80459994 239.111095,0.975924978 Z" id="Path"></path>
                    <path d="M312.37811,0.246349994 C318.571601,0.246349994 324.758776,0.246349994 330.949109,0.246349994 C330.945951,39.3970491 330.961743,78.5382732 330.939634,117.692131 C324.755618,117.676339 318.568443,117.692131 312.37811,117.685814 C312.37811,78.5351149 312.37811,39.3907325 312.37811,0.246349994 Z" id="Path"></path>
                </g>
                <path d="M342.006623,10 C342.699779,10 343.346578,9.87187983 343.94702,9.6156395 C344.547461,9.35939916 345.080574,8.99602386 345.546358,8.52551359 C346.012141,8.05500331 346.370861,7.51711951 346.622517,6.91186216 C346.874172,6.30660482 347,5.66600398 347,4.99005964 C347,4.30969737 346.871965,3.66578308 346.615894,3.05831677 C346.359823,2.45085045 346.002208,1.91738458 345.543046,1.45791915 C345.083885,0.998453722 344.549669,0.640600839 343.940397,0.384360504 C343.331126,0.128120168 342.686534,0 342.006623,0 C341.331126,0 340.689845,0.128120168 340.082781,0.384360504 C339.475717,0.640600839 338.93819,1.00066269 338.470199,1.46454606 C338.002208,1.92842942 337.640177,2.45968633 337.384106,3.05831677 C337.128035,3.65694721 337,4.3008615 337,4.99005964 C337,5.90457256 337.225166,6.74398056 337.675497,7.50828363 C338.125828,8.2725867 338.735099,8.87894853 339.503311,9.32736912 C340.271523,9.77578971 341.10596,10 342.006623,10 Z M342.006623,9.17163685 C341.251656,9.17163685 340.554084,8.98387453 339.913907,8.6083499 C339.273731,8.23282527 338.766004,7.72586702 338.390728,7.08747515 C338.015453,6.44908328 337.827815,5.74994478 337.827815,4.99005964 C337.827815,4.23017451 338.016556,3.53214049 338.39404,2.89595759 C338.771523,2.25977469 339.280353,1.75612989 339.92053,1.38502319 C340.560706,1.0139165 341.256071,0.828363154 342.006623,0.828363154 C342.580574,0.828363154 343.119205,0.935498122 343.622517,1.14976806 C344.125828,1.36403799 344.569536,1.66335321 344.953642,2.04771372 C345.337748,2.43207422 345.636865,2.87607687 345.850993,3.37972167 C346.065121,3.88336647 346.172185,4.42014579 346.172185,4.99005964 C346.172185,5.74552684 345.985651,6.44466534 345.612583,7.08747515 C345.239514,7.73028496 344.735099,8.23834769 344.099338,8.61166335 C343.463576,8.98497901 342.766004,9.17163685 342.006623,9.17163685 Z M340.675497,7.76010603 L340.675497,5.48045063 L341.192053,5.48045063 C341.545254,5.48045063 341.820088,5.57654076 342.016556,5.76872101 C342.213024,5.96090126 342.472406,6.34415728 342.794702,6.91848907 L342.794702,6.91848907 L343.271523,7.76010603 L344.324503,7.76010603 L343.675497,6.713055 C343.406181,6.28893307 343.187638,5.97967749 343.019868,5.78528827 C342.852097,5.59089905 342.655629,5.44952507 342.430464,5.36116634 C342.89404,5.3214049 343.264901,5.15683676 343.543046,4.8674619 C343.821192,4.57808703 343.960265,4.22133863 343.960265,3.7972167 C343.960265,3.5453943 343.883002,3.30461674 343.728477,3.07488403 C343.573951,2.84515131 343.370861,2.67506075 343.119205,2.56461233 C342.96468,2.4895074 342.774834,2.44091009 342.549669,2.41882041 C342.324503,2.39673073 342.02649,2.38568588 341.655629,2.38568588 L341.655629,2.38568588 L339.807947,2.38568588 L339.807947,7.76010603 L340.675497,7.76010603 Z M341.735099,4.73161034 L340.675497,4.73161034 L340.675497,3.12127237 L341.668874,3.12127237 C342.09713,3.12127237 342.432671,3.17097416 342.675497,3.27037773 C342.918322,3.36978131 343.039735,3.5873647 343.039735,3.9231279 C343.039735,4.11751712 342.988962,4.27545836 342.887417,4.39695162 C342.785872,4.51844489 342.639073,4.60459465 342.44702,4.65540093 C342.254967,4.7062072 342.01766,4.73161034 341.735099,4.73161034 L341.735099,4.73161034 Z" id="®"></path>
            </g>
            <g id="Group-4" transform="translate(0.000000, 136.000000)">
                <path d="M11.8848,23 L19.6212,6.1412 L15.6648,6.1412 L9.74279997,19.8248 L4.77839997,6.1412 L0.62039997,6.1412 L7.34879997,23 L11.8848,23 Z M25.14,23 L25.14,6.1412 L21.1836,6.1412 L21.1836,23 L25.14,23 Z M36.6312,23 C39.1008,23 41.0832,22.076 42.5784,20.228 C43.9224,18.5648 44.5944,16.574 44.5944,14.2556 C44.5944,12.0212 43.9728,10.1564 42.7296,8.6612 C41.3352,6.9812 39.4368,6.1412 37.0344,6.1412 L28.3404,6.1412 L28.3404,23 L36.6312,23 Z M35.6736,20.228 L31.8936,20.228 L31.8936,8.9132 L35.6736,8.9132 C37.404,8.9132 38.7312,9.4592 39.6552,10.5512 C40.4616,11.492 40.8648,12.7184 40.8648,14.2304 C40.8648,15.8264 40.428,17.1956 39.5544,18.338 C38.58,19.598 37.2864,20.228 35.6736,20.228 Z M58.8576,23 L58.8576,20.228 L50.5416,20.228 L50.5416,15.6668 L57.8748,15.6668 L57.8748,13.0712 L50.5416,13.0712 L50.5416,8.9132 L58.8576,8.9132 L58.8576,6.1412 L46.7868,6.1412 L46.7868,23 L58.8576,23 Z M69.9204,23.4284 C73.1964,23.4284 75.7332,22.538 77.5308,20.7572 C79.1436,19.1612 79.95,17.1116 79.95,14.6084 C79.95,12.1892 79.152,10.1564 77.556,8.51 C75.7584,6.6452 73.314,5.7128 70.2228,5.7128 C67.1988,5.7128 64.7964,6.6536 63.0156,8.5352 C61.4028,10.232 60.5964,12.2816 60.5964,14.684 C60.5964,17.0528 61.3776,19.0604 62.94,20.7068 C64.6704,22.5212 66.9972,23.4284 69.9204,23.4284 Z M70.1724,20.7572 C68.4252,20.7572 67.0308,20.1104 65.9892,18.8168 C65.0484,17.6408 64.578,16.2212 64.578,14.558 C64.578,12.8948 65.0736,11.4836 66.0648,10.3244 C67.14,9.0812 68.568,8.4596 70.3488,8.4596 C72.1632,8.4596 73.5912,9.0896 74.6328,10.3496 C75.5568,11.4752 76.0188,12.8612 76.0188,14.5076 C76.0188,16.2548 75.54,17.6996 74.5824,18.842 C73.524,20.1188 72.054,20.7572 70.1724,20.7572 Z M100.1856,23.3024 C100.8576,23.3024 101.559,23.2604 102.2898,23.1764 C103.0206,23.0924 103.8228,22.9664 104.6964,22.7984 L105.0996,19.8248 C104.2932,20.1104 103.5204,20.3204 102.7812,20.4548 C102.042,20.5892 101.3616,20.6564 100.74,20.6564 C98.7072,20.6564 97.0944,20.0348 95.9016,18.7916 C94.8432,17.6828 94.314,16.3136 94.314,14.684 C94.314,13.0544 94.8432,11.6684 95.9016,10.526 C97.0776,9.266 98.6484,8.636 100.614,8.636 C101.2524,8.636 101.9286,8.7074 102.6426,8.8502 C103.3566,8.993 104.1084,9.2156 104.898,9.518 L104.52,6.5192 C103.344,6.032 102.0168,5.7884 100.5384,5.7884 C97.8672,5.7884 95.616,6.452 93.7848,7.7792 C91.6512,9.3248 90.5844,11.492 90.5844,14.2808 C90.5844,16.9352 91.3404,19.0604 92.8524,20.6564 C94.5324,22.4204 96.9768,23.3024 100.1856,23.3024 Z M115.5828,23.4284 C118.8588,23.4284 121.3956,22.538 123.1932,20.7572 C124.806,19.1612 125.6124,17.1116 125.6124,14.6084 C125.6124,12.1892 124.8144,10.1564 123.2184,8.51 C121.4208,6.6452 118.9764,5.7128 115.8852,5.7128 C112.8612,5.7128 110.4588,6.6536 108.678,8.5352 C107.0652,10.232 106.2588,12.2816 106.2588,14.684 C106.2588,17.0528 107.04,19.0604 108.6024,20.7068 C110.3328,22.5212 112.6596,23.4284 115.5828,23.4284 Z M115.8348,20.7572 C114.0876,20.7572 112.6932,20.1104 111.6516,18.8168 C110.7108,17.6408 110.2404,16.2212 110.2404,14.558 C110.2404,12.8948 110.736,11.4836 111.7272,10.3244 C112.8024,9.0812 114.2304,8.4596 116.0112,8.4596 C117.8256,8.4596 119.2536,9.0896 120.2952,10.3496 C121.2192,11.4752 121.6812,12.8612 121.6812,14.5076 C121.6812,16.2548 121.2024,17.6996 120.2448,18.842 C119.1864,20.1188 117.7164,20.7572 115.8348,20.7572 Z M130.9296,23 L130.9296,10.2992 L135.2892,23 L138.6408,23 L143.0004,9.896 L143.0004,23 L146.3772,23 L146.3772,6.1412 L141.2112,6.1412 L137.0532,18.842 L133.122,6.1412 L127.956,6.1412 L127.956,23 L130.9296,23 Z M153.3324,23 L153.3324,8.7116 L156.1296,8.7116 C156.852,8.7116 157.44,8.9552 157.8936,9.4424 C158.2968,9.8792 158.4984,10.4252 158.4984,11.0804 C158.4984,11.8028 158.2548,12.416 157.7676,12.92 C157.2132,13.4912 156.4656,13.7768 155.5248,13.7768 C155.088,13.7768 154.7772,13.76 154.5924,13.7264 C154.4076,13.6928 154.122,13.6088 153.7356,13.4744 L154.542,15.8684 C155.382,16.0532 156.1128,16.1456 156.7344,16.1456 C158.4984,16.1456 159.8844,15.5912 160.8924,14.4824 C161.7828,13.508 162.228,12.3068 162.228,10.8788 C162.228,9.5852 161.8584,8.4932 161.1192,7.6028 C160.3128,6.6284 159.2376,6.1412 157.8936,6.1412 L149.7792,6.1412 L149.7792,23 L153.3324,23 Z M171.5016,23.504 C173.6352,23.504 175.4244,23.0672 176.8692,22.1936 C178.4988,21.2192 179.3136,19.9004 179.3136,18.2372 L179.3136,6.1412 L175.5336,6.1412 L175.5336,16.8512 C175.5336,18.1112 175.1388,19.1024 174.3492,19.8248 C173.6604,20.4632 172.7868,20.7824 171.7284,20.7824 C170.6028,20.7824 169.6284,20.4296 168.8052,19.724 C167.898,18.9344 167.4444,17.9096 167.4444,16.6496 L167.4444,6.1412 L163.6644,6.1412 L163.6644,18.0356 C163.6644,19.766 164.4792,21.1352 166.1088,22.1432 C167.5872,23.0504 169.3848,23.504 171.5016,23.504 Z M189.444,23 L189.444,8.9132 L194.7864,8.9132 L194.7864,6.1412 L180.3216,6.1412 L180.3216,8.9132 L185.6892,8.9132 L185.6892,23 L189.444,23 Z M208.0668,23 L208.0668,20.228 L199.7508,20.228 L199.7508,15.6668 L207.084,15.6668 L207.084,13.0712 L199.7508,13.0712 L199.7508,8.9132 L208.0668,8.9132 L208.0668,6.1412 L195.996,6.1412 L195.996,23 L208.0668,23 Z M214.6188,23 L214.6188,8.7116 L218.3988,8.7116 C218.9868,8.7116 219.495,8.9426 219.9234,9.4046 C220.3518,9.8666 220.566,10.3748 220.566,10.9292 C220.566,11.6852 220.2636,12.3488 219.6588,12.92 C218.9868,13.5584 218.1048,13.8776 217.0128,13.8776 C216.6264,13.8776 216.345,13.865 216.1686,13.8398 C215.9922,13.8146 215.7444,13.76 215.4252,13.676 L220.1628,23 L224.1192,23 L219.558,15.2636 C220.9524,15.2636 222.1284,14.7428 223.086,13.7012 C223.9764,12.7268 224.4216,11.6096 224.4216,10.3496 C224.4216,9.1736 224.0016,8.2076 223.1616,7.4516 C222.1872,6.578 220.7928,6.1412 218.9784,6.1412 L211.0656,6.1412 L211.0656,23 L214.6188,23 Z M239.6928,23.2016 C241.5072,23.2016 242.9562,22.8194 244.0398,22.055 C245.1234,21.2906 245.6652,20.3036 245.6652,19.094 C245.6652,17.8676 245.0688,16.658 243.876,15.4652 C243.7248,15.314 242.6244,14.4068 240.5748,12.7436 C239.3652,11.7692 238.7604,10.946 238.7604,10.274 C238.7604,9.77 239.0208,9.3458 239.5416,9.0014 C240.0624,8.657 240.7764,8.4848 241.6836,8.4848 C242.6916,8.4848 243.792,8.6948 244.9848,9.1148 L244.5816,6.3428 C243.9096,6.2252 243.2712,6.1328 242.6664,6.0656 C242.0616,5.9984 241.4484,5.9648 240.8268,5.9648 C239.13,5.9648 237.7608,6.242 236.7192,6.7964 C235.4928,7.4516 234.8796,8.4176 234.8796,9.6944 C234.8796,11.1392 235.4676,12.4412 236.6436,13.6004 C236.7276,13.6844 237.8364,14.5412 239.97,16.1708 C241.1628,17.078 241.7592,17.9348 241.7592,18.7412 C241.7592,19.2788 241.4652,19.7156 240.8772,20.0516 C240.2892,20.3876 239.5668,20.5556 238.71,20.5556 C238.0212,20.5556 237.3366,20.4506 236.6562,20.2406 C235.9758,20.0306 235.3164,19.6904 234.678,19.22 L235.0812,22.3952 C235.8708,22.664 236.6646,22.8656 237.4626,23 C238.2606,23.1344 239.004,23.2016 239.6928,23.2016 Z M255.3168,23 L255.3168,16.448 L261.642,6.1412 L257.484,6.1412 L253.7292,13.2728 L249.7728,6.1412 L245.6148,6.1412 L251.562,15.8684 L251.562,23 L255.3168,23 Z M266.682,23.2016 C268.4964,23.2016 269.9454,22.8194 271.029,22.055 C272.1126,21.2906 272.6544,20.3036 272.6544,19.094 C272.6544,17.8676 272.058,16.658 270.8652,15.4652 C270.714,15.314 269.6136,14.4068 267.564,12.7436 C266.3544,11.7692 265.7496,10.946 265.7496,10.274 C265.7496,9.77 266.01,9.3458 266.5308,9.0014 C267.0516,8.657 267.7656,8.4848 268.6728,8.4848 C269.6808,8.4848 270.7812,8.6948 271.974,9.1148 L271.5708,6.3428 C270.8988,6.2252 270.2604,6.1328 269.6556,6.0656 C269.0508,5.9984 268.4376,5.9648 267.816,5.9648 C266.1192,5.9648 264.75,6.242 263.7084,6.7964 C262.482,7.4516 261.8688,8.4176 261.8688,9.6944 C261.8688,11.1392 262.4568,12.4412 263.6328,13.6004 C263.7168,13.6844 264.8256,14.5412 266.9592,16.1708 C268.152,17.078 268.7484,17.9348 268.7484,18.7412 C268.7484,19.2788 268.4544,19.7156 267.8664,20.0516 C267.2784,20.3876 266.556,20.5556 265.6992,20.5556 C265.0104,20.5556 264.3258,20.4506 263.6454,20.2406 C262.965,20.0306 262.3056,19.6904 261.6672,19.22 L262.0704,22.3952 C262.86,22.664 263.6538,22.8656 264.4518,23 C265.2498,23.1344 265.9932,23.2016 266.682,23.2016 Z M282.306,23 L282.306,8.9132 L287.6484,8.9132 L287.6484,6.1412 L273.1836,6.1412 L273.1836,8.9132 L278.5512,8.9132 L278.5512,23 L282.306,23 Z M300.9288,23 L300.9288,20.228 L292.6128,20.228 L292.6128,15.6668 L299.946,15.6668 L299.946,13.0712 L292.6128,13.0712 L292.6128,8.9132 L300.9288,8.9132 L300.9288,6.1412 L288.858,6.1412 L288.858,23 L300.9288,23 Z M306.6996,23 L306.6996,10.2992 L311.0592,23 L314.4108,23 L318.7704,9.896 L318.7704,23 L322.1472,23 L322.1472,6.1412 L316.9812,6.1412 L312.8232,18.842 L308.892,6.1412 L303.726,6.1412 L303.726,23 L306.6996,23 Z" id="VIDEOCOMPUTERSYSTEM"></path>
                <path d="M327.6,9.45 L327.6,6.23297872 L326.34,6.23297872 L326.34,5.67 L329.616,5.67 L329.616,6.23297872 L328.188,6.23297872 L328.188,9.45 L327.6,9.45 Z M329.952,9.45 L329.952,5.67 L330.96,5.67 L331.968,8.72617021 L332.976,5.67 L333.9,5.67 L333.9,9.45 L333.312,9.45 L333.312,6.23297872 L332.304,9.45 L331.716,9.45 L330.624,6.23297872 L330.624,9.45 L329.952,9.45 Z" id="Shape"></path>
            </g>
            <path d="M389.303052,97.2664273 L389.303052,114.096589 C389.303052,114.775224 388.895871,115.45386 387.945781,116.132496 C386.995691,116.811131 386.045601,117.082585 385.095512,117.082585 C383.602513,117.082585 381.702334,115.996768 379.259246,113.825135 C376.951885,111.653501 374.508797,109.481867 372.201436,107.174506 C369.894075,105.002873 367.993896,103.781329 366.636625,103.781329 C365.957989,103.781329 365.279354,104.052783 364.600718,104.731418 C363.922083,105.274327 363.650628,106.088689 363.650628,107.038779 C363.650628,107.988869 363.922083,108.803232 364.600718,109.481867 C365.279354,110.160503 366.093716,110.431957 367.179533,110.431957 L367.179533,116.946858 C364.464991,116.946858 362.15763,115.996768 360.121724,113.960862 C358.221544,111.924955 357.135727,109.617594 357.135727,106.903052 C357.135727,104.18851 358.085817,101.881149 360.121724,99.9809695 C362.021903,98.0807899 364.329264,97.1307002 367.043806,97.1307002 C369.758348,97.1307002 372.608618,98.4879713 375.187433,101.066786 C377.901975,103.645601 380.48079,106.088689 382.923878,108.531777 L383.059605,97.1307002 L389.303052,97.1307002 L389.303052,97.2664273 Z M378.716338,71.3425494 C381.838061,71.3425494 384.416876,72.4283662 386.58851,74.7357271 C388.760144,77.043088 389.710233,79.7576302 389.710233,82.8793537 C389.710233,85.8653501 388.488689,88.3084381 386.181329,90.2086176 C383.873968,92.1087971 381.159425,93.194614 378.173429,93.194614 C376.951885,93.194614 374.780251,92.5159785 371.522801,91.0229803 C368.26535,89.529982 365.007899,88.0369838 361.886176,86.4082585 C358.764452,84.7795332 357.135727,83.9651706 357.135727,83.9651706 L357.135727,76.5001795 L368.808259,82.064991 C368.808259,78.9432675 369.758348,76.3644524 371.658528,74.3285458 C373.42298,72.4283662 375.866068,71.3425494 378.716338,71.3425494 L378.716338,71.3425494 Z M378.987792,77.9931777 C377.766248,77.9931777 376.680431,78.4003591 375.866068,79.2147217 C375.051706,80.0290844 374.508797,81.1149013 374.508797,82.2007181 C374.508797,83.286535 374.915978,84.3723519 375.866068,85.1867145 C376.816158,86.0010772 377.766248,86.4082585 378.852065,86.4082585 C380.209336,86.4082585 381.159425,86.0010772 381.973788,85.3224417 C382.652424,84.508079 383.059605,83.5579892 383.059605,82.2007181 C383.059605,80.843447 382.652424,79.8933573 381.838061,79.0789946 C381.023698,78.4003591 380.073609,77.9931777 378.987792,77.9931777 L378.987792,77.9931777 Z M389.438779,51.9335727 C389.438779,56.4125673 387.945781,60.4843806 385.095512,63.7418312 C382.245242,67.135009 378.444883,68.7637343 373.694434,68.7637343 C369.079713,68.7637343 365.007899,67.135009 361.886176,63.8775583 C358.628725,60.6201077 357,56.6840215 357,52.340754 C357,47.9974865 358.628725,44.1971275 361.886176,40.9396768 C365.143627,37.6822262 368.943986,36.0535009 373.151526,36.0535009 C377.359066,36.0535009 381.159425,37.5464991 384.552603,40.5324955 C387.810054,43.3827648 389.438779,47.1831239 389.438779,51.9335727 L389.438779,51.9335727 Z M373.151526,42.7041293 C370.708438,42.7041293 368.536804,43.654219 366.636625,45.5543986 C364.736445,47.4545781 363.786355,49.6262118 363.786355,52.0692998 C363.786355,54.9195691 364.736445,57.22693 366.772352,59.1271095 C368.808259,61.027289 371.115619,61.9773788 373.694434,61.9773788 C376.408977,61.9773788 378.716338,61.027289 380.48079,58.9913824 C382.245242,57.0912029 383.059605,54.6481149 383.059605,51.9335727 C383.059605,49.3547576 382.109515,47.1831239 380.345063,45.2829443 C378.444883,43.654219 376.137522,42.7041293 373.151526,42.7041293 L373.151526,42.7041293 Z M389.438779,16.37307 C389.438779,20.8520646 387.945781,24.9238779 385.095512,28.1813285 C382.245242,31.5745063 378.444883,33.2032316 373.694434,33.2032316 C369.079713,33.2032316 365.007899,31.5745063 361.886176,28.3170557 C358.628725,25.059605 357,21.1235189 357,16.7802513 C357,12.4369838 358.628725,8.63662478 361.886176,5.37917415 C365.143627,2.12172352 368.943986,0.492998205 373.151526,0.492998205 C377.359066,0.492998205 381.159425,1.98599641 384.552603,4.97199282 C387.810054,7.82226212 389.438779,11.6226212 389.438779,16.37307 L389.438779,16.37307 Z M373.151526,7.14362657 C370.708438,7.14362657 368.536804,8.09371634 366.636625,9.99389587 C364.736445,11.8940754 363.786355,14.0657092 363.786355,16.5087971 C363.786355,19.3590664 364.736445,21.6664273 366.772352,23.5666068 C368.808259,25.4667864 371.115619,26.4168761 373.694434,26.4168761 C376.408977,26.4168761 378.716338,25.4667864 380.48079,23.4308797 C382.245242,21.5307002 383.059605,19.0876122 383.059605,16.37307 C383.059605,13.7942549 382.109515,11.6226212 380.345063,9.72244165 C378.444883,8.09371634 376.137522,7.14362657 373.151526,7.14362657 L373.151526,7.14362657 Z" id="Shape"></path>
            <path d="M394.053501,6.37917415 L394.053501,0.950089767 L392.017594,0.950089767 L392.017594,4.6629367e-14 L397.310952,4.6629367e-14 L397.310952,0.950089767 L395.003591,0.950089767 L395.003591,6.37917415 L394.053501,6.37917415 Z M397.85386,6.37917415 L397.85386,4.61852778e-14 L399.482585,4.61852778e-14 L401.111311,5.15763016 L402.740036,4.61852778e-14 L404.233034,4.61852778e-14 L404.233034,6.37917415 L403.282944,6.37917415 L403.282944,0.950089767 L401.654219,6.37917415 L400.704129,6.37917415 L398.939677,0.950089767 L398.939677,6.37917415 L397.85386,6.37917415 Z" id="Shape"></path>
        </g>
    </g>
</svg>