<?xml version="1.0" encoding="UTF-8"?>
<svg width="405px" height="119px" viewBox="0 0 405 119" version="1.1" xmlns="http://www.w3.org/2000/svg" xmlns:xlink="http://www.w3.org/1999/xlink">
    <title>syslogo</title>
    <g id="Page-1" stroke="none" stroke-width="1" fill="none" fill-rule="evenodd">
        <g id="syslogo" fill="#FFFFFF">
            <g id="Group-11" transform="translate(0.000000, 1.000000)" fill-rule="nonzero">
                <g id="Group">
                    <path d="M34.6784992,5.10070822 C39.2454491,-0.742208317 48.6983406,-1.74024163 54.3012238,3.1614916 C56.5941737,5.09439155 58.198607,7.75686649 59.0197737,10.6183164 C69.3917401,46.313799 79.8110815,81.9903315 90.1704147,117.682656 C84.0495648,117.688972 77.9223983,117.673181 71.8047067,117.688972 C68.9179901,107.850764 66.0975985,97.9904478 63.2487819,88.1396064 C51.4081905,88.108023 39.5770741,88.1301314 27.739641,88.1238147 C24.8434494,97.9714978 21.9819995,107.828656 19.1331829,117.688972 C13.0439164,117.666864 6.95464984,117.682656 0.865383314,117.676339 C10.7225414,83.6326648 20.5891745,49.5763572 30.4905493,15.542158 C31.6654493,11.9858747 32.1107743,8.01269149 34.6784992,5.10070822 M45.4863156,26.9753244 C41.1436074,41.7626407 36.8924908,56.5752237 32.5782076,71.3720151 C41.1815074,71.4130734 49.7816489,71.3846484 58.3817904,71.3846484 C54.0769821,56.5815404 49.7942822,41.7752741 45.4863156,26.9753244 Z" id="Shape"></path>
                    <path d="M163.642721,5.8681832 C166.832638,1.24122497 173.000863,-1.00434998 178.433196,0.423216657 C183.401254,1.56969163 187.207046,5.85239154 188.517754,10.6751664 C198.880246,46.342224 209.280637,81.9998065 219.643128,117.666864 C213.512804,117.707922 207.385637,117.666864 201.255312,117.692131 C198.406496,107.841289 195.586104,97.9809728 192.712021,88.1332897 C180.893538,88.1396064 169.078213,88.1111814 157.25973,88.1427647 C154.43618,97.9999228 151.524197,107.834973 148.697488,117.688972 C142.614538,117.698447 136.531589,117.682656 130.451797,117.698447 C140.302639,83.4621148 150.26718,49.2510489 160.193821,15.039983 C161.236071,11.9448164 161.640338,8.54013314 163.642721,5.8681832 M162.151988,71.3846484 C170.720546,71.3972817 179.282788,71.3878067 187.851346,71.3878067 C183.590754,56.5594321 179.257521,41.7405324 175.009563,26.9058411 C170.730021,41.7342157 166.409421,56.5499571 162.151988,71.3846484 Z" id="Shape"></path>
                    <path d="M76.4664066,0.246349994 C98.6157978,0.246349994 120.758872,0.246349994 142.901947,0.246349994 C142.901947,6.22191653 142.901947,12.1880081 142.901947,18.1635746 C134.74713,18.1698913 126.595472,18.1540996 118.443814,18.1698913 C118.443814,51.3387072 118.446972,84.5169981 118.440656,117.685814 C112.604056,117.685814 106.757981,117.685814 100.921381,117.685814 C100.921381,84.5169981 100.915064,51.3418655 100.924539,18.1698913 C92.7697229,18.1540996 84.6212231,18.1698913 76.4632483,18.1635746 C76.4664066,12.1880081 76.46009,6.21875819 76.4664066,0.246349994 Z" id="Path"></path>
                    <path d="M239.111095,0.975924978 C240.794486,0.394791658 242.591578,0.195816662 244.366561,0.240033328 C251.349636,0.265299994 258.335869,0.243191661 265.312627,0.249508328 C277.07426,0.46427499 288.298977,7.76002483 293.387052,18.3467579 C296.908593,25.2192911 297.27496,33.2098743 296.38431,40.7488158 C295.774752,48.6446489 292.464818,56.5341654 286.394502,61.7675236 C283.185635,64.6226569 279.19666,66.3534235 275.769869,68.8958818 C273.884344,70.3329234 273.792752,73.1185734 274.765519,75.1114817 C284.032069,89.415573 293.664985,103.501739 303.127352,117.685814 C296.210602,117.698447 289.287535,117.670022 282.367627,117.698447 C273.309527,104.092348 264.346177,90.4167646 255.325978,76.791715 C252.672978,72.9132817 251.952878,67.7778318 253.538361,63.3530069 C254.779586,59.960957 257.745261,57.4753487 261.048877,56.1899071 C267.356069,53.7832571 273.574827,50.0027322 277.067944,44.0524323 C279.72726,39.5770741 279.588294,34.0563076 278.391285,29.160891 C276.992144,22.8031662 270.798652,17.8035246 264.251427,18.0246079 C259.728694,18.0561913 255.202803,17.9993413 250.686386,18.0467163 C248.639786,17.9993413 246.713203,19.7774829 246.738469,21.8493495 C246.719519,53.7958905 246.751103,85.7424314 246.732153,117.695289 C240.848178,117.682656 234.967361,117.695289 229.083387,117.688972 C229.070753,83.2947231 229.089703,48.9004739 229.070753,14.5030663 C229.108653,8.47380814 233.394511,2.80459994 239.111095,0.975924978 Z" id="Path"></path>
                    <path d="M312.37811,0.246349994 C318.571601,0.246349994 324.758776,0.246349994 330.949109,0.246349994 C330.945951,39.3970491 330.961743,78.5382732 330.939634,117.692131 C324.755618,117.676339 318.568443,117.692131 312.37811,117.685814 C312.37811,78.5351149 312.37811,39.3907325 312.37811,0.246349994 Z" id="Path"></path>
                </g>
                <path d="M342.006623,10 C342.699779,10 343.346578,9.87187983 343.94702,9.6156395 C344.547461,9.35939916 345.080574,8.99602386 345.546358,8.52551359 C346.012141,8.05500331 346.370861,7.51711951 346.622517,6.91186216 C346.874172,6.30660482 347,5.66600398 347,4.99005964 C347,4.30969737 346.871965,3.66578308 346.615894,3.05831677 C346.359823,2.45085045 346.002208,1.91738458 345.543046,1.45791915 C345.083885,0.998453722 344.549669,0.640600839 343.940397,0.384360504 C343.331126,0.128120168 342.686534,0 342.006623,0 C341.331126,0 340.689845,0.128120168 340.082781,0.384360504 C339.475717,0.640600839 338.93819,1.00066269 338.470199,1.46454606 C338.002208,1.92842942 337.640177,2.45968633 337.384106,3.05831677 C337.128035,3.65694721 337,4.3008615 337,4.99005964 C337,5.90457256 337.225166,6.74398056 337.675497,7.50828363 C338.125828,8.2725867 338.735099,8.87894853 339.503311,9.32736912 C340.271523,9.77578971 341.10596,10 342.006623,10 Z M342.006623,9.17163685 C341.251656,9.17163685 340.554084,8.98387453 339.913907,8.6083499 C339.273731,8.23282527 338.766004,7.72586702 338.390728,7.08747515 C338.015453,6.44908328 337.827815,5.74994478 337.827815,4.99005964 C337.827815,4.23017451 338.016556,3.53214049 338.39404,2.89595759 C338.771523,2.25977469 339.280353,1.75612989 339.92053,1.38502319 C340.560706,1.0139165 341.256071,0.828363154 342.006623,0.828363154 C342.580574,0.828363154 343.119205,0.935498122 343.622517,1.14976806 C344.125828,1.36403799 344.569536,1.66335321 344.953642,2.04771372 C345.337748,2.43207422 345.636865,2.87607687 345.850993,3.37972167 C346.065121,3.88336647 346.172185,4.42014579 346.172185,4.99005964 C346.172185,5.74552684 345.985651,6.44466534 345.612583,7.08747515 C345.239514,7.73028496 344.735099,8.23834769 344.099338,8.61166335 C343.463576,8.98497901 342.766004,9.17163685 342.006623,9.17163685 Z M340.675497,7.76010603 L340.675497,5.48045063 L341.192053,5.48045063 C341.545254,5.48045063 341.820088,5.57654076 342.016556,5.76872101 C342.213024,5.96090126 342.472406,6.34415728 342.794702,6.91848907 L342.794702,6.91848907 L343.271523,7.76010603 L344.324503,7.76010603 L343.675497,6.713055 C343.406181,6.28893307 343.187638,5.97967749 343.019868,5.78528827 C342.852097,5.59089905 342.655629,5.44952507 342.430464,5.36116634 C342.89404,5.3214049 343.264901,5.15683676 343.543046,4.8674619 C343.821192,4.57808703 343.960265,4.22133863 343.960265,3.7972167 C343.960265,3.5453943 343.883002,3.30461674 343.728477,3.07488403 C343.573951,2.84515131 343.370861,2.67506075 343.119205,2.56461233 C342.96468,2.4895074 342.774834,2.44091009 342.549669,2.41882041 C342.324503,2.39673073 342.02649,2.38568588 341.655629,2.38568588 L341.655629,2.38568588 L339.807947,2.38568588 L339.807947,7.76010603 L340.675497,7.76010603 Z M341.735099,4.73161034 L340.675497,4.73161034 L340.675497,3.12127237 L341.668874,3.12127237 C342.09713,3.12127237 342.432671,3.17097416 342.675497,3.27037773 C342.918322,3.36978131 343.039735,3.5873647 343.039735,3.9231279 C343.039735,4.11751712 342.988962,4.27545836 342.887417,4.39695162 C342.785872,4.51844489 342.639073,4.60459465 342.44702,4.65540093 C342.254967,4.7062072 342.01766,4.73161034 341.735099,4.73161034 L341.735099,4.73161034 Z" id="®"></path>
            </g>
            <path d="M394.053501,7.37917415 L394.053501,1.95008977 L392.017594,1.95008977 L392.017594,1 L397.310952,1 L397.310952,1.95008977 L395.003591,1.95008977 L395.003591,7.37917415 L394.053501,7.37917415 Z M397.85386,7.37917415 L397.85386,1 L399.482585,1 L401.111311,6.15763016 L402.740036,1 L404.233034,1 L404.233034,7.37917415 L403.282944,7.37917415 L403.282944,1.95008977 L401.654219,7.37917415 L400.704129,7.37917415 L398.939677,1.95008977 L398.939677,7.37917415 L397.85386,7.37917415 Z" id="Shape" fill-rule="nonzero"></path>
            <g id="Group-12" transform="translate(356.000000, 0.000000)">
                <path d="M6.23806975,113.825781 C8.10171688,113.828229 9.96543393,113.835711 11.8290111,113.82725 C12.0942375,113.826061 12.2019923,113.888434 12.2635265,114.168135 C12.6184669,115.780681 13.3577863,117.160026 14.8336282,118.021575 C16.9653686,119.265964 19.8799919,118.774669 21.5326047,116.920182 C23.8802742,114.28575 23.5565204,110.364972 20.8116756,108.162957 C18.8295052,106.572787 15.4685492,106.423777 13.4618351,108.895633 C13.1266835,109.308472 12.8445352,109.340638 12.3882731,109.205682 C10.9299126,108.774383 9.46015424,108.381263 7.99508091,107.972481 C7.90816385,107.948217 7.82355433,107.915631 7.72041462,107.881158 C8.00794715,106.289031 8.29156387,104.715573 8.57629939,103.142396 C9.17150291,99.8543716 9.76747561,96.5665574 10.3626092,93.2785335 C10.5072845,92.479358 10.660211,91.6814413 10.7878245,90.8795388 C10.8331361,90.5948732 11.0072499,90.6107555 11.2120609,90.6107555 C14.6367187,90.6131936 18.0613766,90.6124944 21.4860345,90.6124944 L25.3999592,90.6124944 L25.8000014,90.6124944 L25.8000014,96.2347622 L15.3213566,96.2347622 C14.9643184,98.253084 14.6114058,100.248121 14.2534586,102.271337 C14.9294257,102.064288 15.5568648,101.832626 16.2031137,101.680958 C19.4807888,100.911431 22.4380664,101.625857 24.9614581,103.817594 C27.9818083,106.440908 29.292207,109.84312 29.0013181,113.802007 C28.6168692,119.034232 24.7012663,123.239465 19.4794602,124.168072 C13.8143281,125.175485 8.03284053,121.498816 6.56636869,115.946474 C6.42490996,115.410846 6.3460343,114.858717 6.23806975,114.314279 L6.23806975,113.825781 Z" id="Fill-1" transform="translate(17.639469, 107.472500) rotate(-90.000000) translate(-17.639469, -107.472500) "></path>
                <path d="M17.3082157,42.3882613 C16.7866434,42.4297969 16.2603862,42.440006 15.7442681,42.517623 C10.4406495,43.3153999 6.48183281,47.8850134 6.15968729,53.1949952 C5.97305686,56.2720548 6.9059293,59.0029845 8.86705219,61.3912107 C11.9851579,65.1882903 17.4509331,66.4437978 21.8970587,64.3681373 C26.7864403,62.0855682 29.4520598,56.5694468 28.2058524,51.3130277 C26.9553796,46.0388476 22.5545656,42.444691 17.3082157,42.3882613 M17.3097541,71.0800597 C7.7480388,71.0514506 -0.036177216,63.3428937 0.000126469849,53.9389297 C0.0376638227,44.3128133 7.75545087,36.6545326 17.3754838,36.6974258 C26.9708331,36.7405407 34.6741456,44.4667187 34.6236294,53.9965481 C34.5728939,63.4684095 26.8300037,71.1085096 17.3097541,71.0800597" id="Fill-3" transform="translate(17.311938, 53.888693) rotate(-90.000000) translate(-17.311938, -53.888693) "></path>
                <path d="M6.09914544,18.1281733 C6.16039994,18.7397394 6.19340465,19.3556407 6.287524,19.9621722 C7.07732943,25.0527286 11.3084349,29.2123705 16.5521276,29.541089 C19.660234,29.7359706 22.3949397,28.8136569 24.6899555,26.7261791 C28.6362556,23.1367774 29.6223411,17.4812951 27.1846079,12.7388963 C24.7602304,8.02278943 19.4691284,5.63386401 14.4635311,6.99544801 C9.61687379,8.31381822 6.14907206,12.9507697 6.09914544,18.1281733 M17.3109562,35.2927796 C7.75196801,35.2677553 -0.0350450123,27.5575901 0.000147599978,18.1528569 C0.0363486435,8.52736986 7.75392592,0.868180153 17.3741686,0.910171807 C26.9692382,0.9523002 34.6715018,8.6763106 34.6236174,18.2081678 C34.5754945,27.6781412 26.8341427,35.3176819 17.3109562,35.2927796" id="Fill-5" transform="translate(17.311934, 18.101420) rotate(-90.000000) translate(-17.311934, -18.101420) "></path>
                <path d="M11.9741591,78.5281194 L6.07988211,78.5281194 C6.07988211,78.1515021 6.06771512,77.7848841 6.08177009,77.4192451 C6.19777604,74.4031604 7.15274485,71.7274716 9.35028493,69.5831446 C11.1349166,67.8417967 13.2893128,66.8378103 15.7713087,66.6028615 C19.5755207,66.2428166 22.7966262,67.4546906 25.3016974,70.3595244 C27.1242984,72.4729444 27.9236137,74.9761976 27.8536186,77.7586622 C27.7816655,80.6183942 26.5909787,83.0222836 24.8218705,85.1950701 C23.5004236,86.8181045 21.9480836,88.2063301 20.3907789,89.5911992 C18.5818832,91.1998989 16.7762041,92.8122348 14.967658,94.4213541 C14.925633,94.4586941 14.8659868,94.4762454 14.8145218,94.5030967 C14.8308843,94.5363112 14.8473167,94.5694557 14.8636792,94.6026702 L27.8479546,94.6026702 L27.8479546,100.21333 L6.42831951,100.21333 L6.42831951,99.8658021 C6.42831951,98.2377331 6.43510226,96.6095242 6.42174654,94.9815251 C6.41943901,94.7104949 6.51111098,94.5365209 6.7043843,94.3576522 C10.6937583,90.6660897 14.6830624,86.9744574 18.6585912,83.2679309 C19.8048055,82.1993336 20.8391394,81.023471 21.4235745,79.5437833 C22.1593976,77.6808354 22.1708654,75.8290756 21.011645,74.1177955 C20.0447189,72.6905517 18.6048886,72.0861181 16.9171034,72.16849 C14.3323874,72.2946351 12.533491,73.9847278 12.1590414,76.5670664 C12.0661807,77.2072319 12.0356933,77.8565575 11.9741591,78.5281194" id="Fill-8" transform="translate(16.966414, 83.377261) rotate(-90.000000) translate(-16.966414, -83.377261) "></path>
            </g>
        </g>
    </g>
</svg>