<?xml version="1.0" encoding="UTF-8" standalone="no"?>
<!-- Created with Inkscape (http://www.inkscape.org/) -->

<svg
   xmlns:dc="http://purl.org/dc/elements/1.1/"
   xmlns:cc="http://creativecommons.org/ns#"
   xmlns:rdf="http://www.w3.org/1999/02/22-rdf-syntax-ns#"
   xmlns:svg="http://www.w3.org/2000/svg"
   xmlns="http://www.w3.org/2000/svg"
   xmlns:sodipodi="http://sodipodi.sourceforge.net/DTD/sodipodi-0.dtd"
   xmlns:inkscape="http://www.inkscape.org/namespaces/inkscape"
   width="150"
   height="150"
   viewBox="0 0 39.687499 39.687501"
   version="1.1"
   id="svg8"
   sodipodi:docname="start.svg"
   inkscape:version="0.92.5 (2060ec1f9f, 2020-04-08)">
  <defs
     id="defs2" />
  <sodipodi:namedview
     id="base"
     pagecolor="#ffffff"
     bordercolor="#666666"
     borderopacity="1.0"
     inkscape:pageopacity="0.0"
     inkscape:pageshadow="2"
     inkscape:zoom="1.2137936"
     inkscape:cx="15.70232"
     inkscape:cy="40.59861"
     inkscape:document-units="mm"
     inkscape:current-layer="layer1"
     showgrid="false"
     units="px"
     inkscape:pagecheckerboard="true"
     inkscape:window-width="1366"
     inkscape:window-height="743"
     inkscape:window-x="0"
     inkscape:window-y="0"
     inkscape:window-maximized="1" />
  <metadata
     id="metadata5">
    <rdf:RDF>
      <cc:Work
         rdf:about="">
        <dc:format>image/svg+xml</dc:format>
        <dc:type
           rdf:resource="http://purl.org/dc/dcmitype/StillImage" />
        <dc:title />
      </cc:Work>
    </rdf:RDF>
  </metadata>
  <g
     inkscape:label="Layer 1"
     inkscape:groupmode="layer"
     id="layer1"
     transform="translate(0,-257.31248)">
    <rect
       style="opacity:0.98000004;fill:#ffffff;fill-opacity:1;stroke:#ffffff;stroke-width:1.29999995;stroke-linecap:round;stroke-linejoin:round;stroke-miterlimit:4;stroke-dasharray:none;stroke-opacity:1"
       id="rect932"
       width="38.503178"
       height="14.74383"
       x="0.6959886"
       y="265.04303"
       ry="4.295907" />
    <g
       aria-label="START"
       transform="matrix(0.31409057,0,0,0.30498963,16.22303,271.21643)"
       style="font-style:normal;font-weight:normal;font-size:40px;line-height:125%;font-family:sans-serif;letter-spacing:0px;word-spacing:0px;fill:#000000;fill-opacity:1;stroke:none;stroke-width:1px;stroke-linecap:butt;stroke-linejoin:miter;stroke-opacity:1"
       id="flowRoot817-0">
      <path
         d="m -24.513672,51.933594 q 0,3.144531 -2.207031,5.214843 -2.636719,2.421875 -7.695313,2.421875 -1.933593,0 -4.804687,-0.859375 -0.898438,-0.214843 -1.386719,-1.074218 -0.507812,-0.859375 -0.292969,-1.777344 l 0.03906,-0.07813 q 0.253906,-0.996094 1.132812,-1.484375 0.898438,-0.507813 1.894532,-0.175781 2.34375,0.742187 3.925781,0.742187 1.5625,0 2.558594,-0.683594 0.996093,-0.683593 0.996093,-1.777343 0,-1.113282 -0.878906,-1.816407 -0.898437,-0.703125 -3.105469,-1.503906 -6.777343,-2.421875 -6.777343,-7.34375 0,-3.359375 2.558593,-5.332031 2.558594,-2.070313 6.738282,-2.03125 1.503906,0 4.042968,0.625 0.917969,0.214844 1.425782,1.09375 0.507812,0.878906 0.273437,1.796875 l -0.03906,0.03906 q -0.292969,0.898438 -1.074219,1.367188 -0.800781,0.488281 -1.738281,0.234375 -3.886719,-1.09375 -5.488282,0.175781 -0.859375,0.683594 -0.859375,1.679688 0,0.996093 0.976563,1.621093 0.957031,0.625 3.847656,1.71875 5.9375,2.226563 5.9375,7.207032 z"
         style="font-style:normal;font-variant:normal;font-weight:normal;font-stretch:normal;font-family:Dyuthi;-inkscape-font-specification:Dyuthi;fill:#ffffff"
         id="path1034" />
      <path
         d="m -21.564453,37.441406 q 0,0 0,-0.07813 -0.273438,-1.210937 0.332031,-1.992187 0.605469,-0.78125 1.582031,-0.78125 h 14.9804691 q 0.9960938,0 1.6210938,0.820312 0.625,0.820313 0.2929687,1.953125 v 0.07813 q -0.15625,0.644531 -0.7421875,1.09375 -0.6054687,0.449219 -1.171875,0.390625 l -4.4921875,-0.351562 v 17.734375 q 0,1.269531 -0.8593746,2.148437 -0.859375,0.859375 -2.148438,0.859375 h -0.01953 q -1.25,0 -2.109375,-0.859375 -0.859375,-0.859375 -0.859375,-2.148437 V 38.574219 l -4.492188,0.351562 q -0.664062,0.05859 -1.230468,-0.449219 -0.566407,-0.488281 -0.683594,-1.035156 z"
         style="font-style:normal;font-variant:normal;font-weight:normal;font-stretch:normal;font-family:Dyuthi;-inkscape-font-specification:Dyuthi;fill:#ffffff"
         id="path1036" />
      <path
         d="M 7.3613281,48.554687 H 13.708984 L 10.544922,39.785156 Z M 15.037109,37.890625 q 0,0 6.230469,17.265625 0.507813,1.40625 -0.371094,2.617187 -0.878906,1.230469 -2.34375,1.230469 h -0.429687 q -0.9375,0 -1.738281,-0.585937 -0.800782,-0.566407 -0.957032,-1.425782 l -1.015625,-4.84375 H 7.0097656 l -0.9375,4.785157 q -0.1757812,0.9375 -0.9960937,1.503906 -0.8398438,0.566406 -1.953125,0.566406 H 2.6933594 q -1.4648438,0 -2.32421877,-1.230469 Q -0.49023438,56.5625 -0.02148438,55.15625 L 5.8964844,37.96875 q 0.5078125,-1.484375 1.7578125,-2.363281 1.25,-0.878907 2.5390621,-0.878907 h 0.546875 q 1.269532,0 2.519532,0.878907 1.269531,0.878906 1.777343,2.285156 z"
         style="font-style:normal;font-variant:normal;font-weight:normal;font-stretch:normal;font-family:Dyuthi;-inkscape-font-specification:Dyuthi;fill:#ffffff"
         id="path1038" />
      <path
         d="m 30.837891,37.1875 v 10.292969 h 2.8125 q 1.464843,-0.03906 2.5,-1.09375 1.035156,-1.074219 1.015625,-4.042969 0,-2.949219 -1.054688,-4.0625 -1.074219,-1.113281 -2.460937,-1.09375 z m 8.90625,11.621094 q 0,0 3.554687,5.976562 0.625,1.054688 0.253906,2.578125 -0.390625,1.523438 -1.25,1.523438 h -0.03906 q -0.996094,0.585937 -2.089844,0.273437 -2.285156,-0.585937 -3.203125,-3.339844 l -1.835937,-5.449218 -4.296875,0.07813 v 6.015625 q 0,1.210937 -0.878907,2.011718 -0.878906,0.800782 -1.972656,0.800782 h -0.07813 q -1.171875,0 -2.011719,-0.839844 -0.839843,-0.839844 -0.839843,-1.972656 V 37.5 q 0,-1.171875 0.859375,-2.03125 0.859375,-0.859375 2.070312,-0.859375 h 6.738281 q 0.722657,0 1.230469,0.117187 2.851563,0.429688 4.765625,2.65625 1.914063,2.226563 1.914063,4.863282 0,2.636718 -1.503907,4.980468 -0.546875,0.859375 -1.386718,1.582032 z"
         style="font-style:normal;font-variant:normal;font-weight:normal;font-stretch:normal;font-family:Dyuthi;-inkscape-font-specification:Dyuthi;fill:#ffffff"
         id="path1040" />
      <path
         d="m 46.658203,37.441406 q 0,0 0,-0.07813 -0.273437,-1.210937 0.332031,-1.992187 0.605469,-0.78125 1.582032,-0.78125 h 14.980468 q 0.996094,0 1.621094,0.820312 0.625,0.820313 0.292969,1.953125 v 0.07813 q -0.15625,0.644531 -0.742188,1.09375 -0.605468,0.449219 -1.171875,0.390625 l -4.492187,-0.351562 v 17.734375 q 0,1.269531 -0.859375,2.148437 -0.859375,0.859375 -2.148438,0.859375 h -0.01953 q -1.25,0 -2.109375,-0.859375 -0.859375,-0.859375 -0.859375,-2.148437 V 38.574219 l -4.492187,0.351562 q -0.664063,0.05859 -1.230469,-0.449219 -0.566406,-0.488281 -0.683594,-1.035156 z"
         style="font-style:normal;font-variant:normal;font-weight:normal;font-stretch:normal;font-family:Dyuthi;-inkscape-font-specification:Dyuthi;fill:#ffffff"
         id="path1042" />
    </g>
  </g>
</svg>
